<svg width="134" height="125" viewBox="0 0 134 125" fill="none" xmlns="http://www.w3.org/2000/svg">
<path d="M102.016 37.2163C95.3411 34.8874 94.6168 33.7462 101.655 19.0041C104.495 13.0653 105.636 10.1541 106.995 7.28956C107.748 5.72917 107.751 3.42353 106.713 2.00288C106.23 1.35078 105.625 0.884994 105.625 0.884994C104.973 0.489076 103.957 0 102.723 0L88.2772 0C86.3414 0 84.9354 1.76999 84.9354 1.76999L53.8257 46.928C49.065 42.6428 43.3835 39.2891 37.0468 37.2163C30.3718 34.8874 29.6475 33.7462 36.6858 19.0041C39.5254 13.0653 40.6668 10.1541 42.026 7.28956C42.7783 5.72917 42.7816 3.42353 41.7432 2.00288C41.2602 1.35078 40.6559 0.884994 40.6559 0.884994C40.0032 0.489076 38.9876 0 37.7293 0L23.2836 0C21.3479 0 19.9419 1.76999 19.9419 1.76999L-13.8835 50.8406C-20.5495 59.0384 -24.919 68.7967 -24.9348 79.8591C-24.9705 104.732 -4.04469 124.901 21.7979 124.901C34.4288 124.901 45.8809 120.08 54.3128 112.255C62.7222 120.08 74.1605 124.901 86.7914 124.901C112.634 124.901 133.618 104.732 133.653 79.8591C133.682 60.0632 120.446 43.2483 102.016 37.2163Z" fill="#F2F2F2"/>
</svg>
