<svg width="159" height="125" viewBox="0 0 159 125" fill="none" xmlns="http://www.w3.org/2000/svg">
<path d="M126.951 37.2163C120.276 34.8874 119.551 33.7462 126.59 19.0041C129.429 13.0653 130.571 10.1541 131.93 7.28956C132.682 5.72917 132.686 3.42353 131.647 2.00288C131.164 1.35078 130.56 0.884994 130.56 0.884994C129.907 0.489076 128.892 0 127.657 0L113.212 0C111.276 0 109.87 1.76999 109.87 1.76999L78.7603 46.928C73.9996 42.6428 68.3181 39.2891 61.9814 37.2163C55.3063 34.8874 54.582 33.7462 61.6204 19.0041C64.4599 13.0653 65.6014 10.1541 66.9605 7.28956C67.7129 5.72917 67.7162 3.42353 66.6778 2.00288C66.1947 1.35078 65.5905 0.884994 65.5905 0.884994C64.9377 0.489076 63.9222 0 62.6639 0L48.2182 0C46.2824 0 44.8765 1.76999 44.8765 1.76999L11.0511 50.8406C4.38508 59.0384 0.0155986 68.7967 -0.00026567 79.8591C-0.0359353 104.732 20.8899 124.901 46.7324 124.901C59.3633 124.901 70.8155 120.08 79.2473 112.255C87.6567 120.08 99.0951 124.901 111.726 124.901C137.569 124.901 158.552 104.732 158.588 79.8591C158.616 60.0632 145.38 43.2483 126.951 37.2163Z" fill="#F2F2F2"/>
</svg>
