<svg width="104" height="39" viewBox="0 0 104 39" fill="none" xmlns="http://www.w3.org/2000/svg">
<rect width="104" height="32" rx="4" fill="#3B3B3B"/>
<path d="M22.2141 19.1875C23.6568 19.1094 24.9224 18.9896 26.0109 18.8281L26.1203 19.9219C24.7193 20.1771 23.287 20.3438 21.8234 20.4219C20.3599 20.4948 18.7714 20.5312 17.0578 20.5312L16.8703 19.3125C18.5422 19.3021 19.8286 19.2812 20.7297 19.25V16.7656H22.2141V19.1875ZM25.3547 12.3125H22.2141C22.2401 12.8594 22.399 13.375 22.6906 13.8594C22.9823 14.3385 23.3859 14.7578 23.9016 15.1172C24.4224 15.4766 25.0266 15.75 25.7141 15.9375L25.0266 17.0938C24.1984 16.8594 23.4771 16.4974 22.8625 16.0078C22.2531 15.5182 21.7896 14.9401 21.4719 14.2734C21.1646 14.9818 20.7089 15.5911 20.1047 16.1016C19.5005 16.6068 18.7818 16.9792 17.9484 17.2188L17.2453 16.0938C17.9328 15.8958 18.5318 15.6094 19.0422 15.2344C19.5578 14.8594 19.9589 14.4219 20.2453 13.9219C20.537 13.4167 20.6932 12.8802 20.7141 12.3125H17.6203V11.1094H20.7297V9.4375H22.2141V11.1094H25.3547V12.3125ZM28.3703 23.3594H26.8859V9.32812H28.3703V23.3594ZM41.4878 11.2656C41.4878 12.0885 41.467 12.8281 41.4253 13.4844C41.3889 14.1406 41.2925 14.875 41.1362 15.6875H43.1128V16.9062H30.3003V15.6875H39.6441C39.8055 14.8802 39.9071 14.1562 39.9487 13.5156C39.9956 12.8698 40.0191 12.151 40.0191 11.3594H31.9097V10.1562H41.4878V11.2656ZM41.9097 23.0312H31.9722V18.3594H33.4409V21.8125H41.9097V23.0312ZM60.2072 21.6562H47.3947V20.4062H53.0353V17.9531H48.9572V13.5H57.1759V11.5312H48.9259V10.3125H58.6447V14.6875H50.4259V16.7344H58.9728V17.9531H54.5041V20.4062H60.2072V21.6562ZM71.9966 12.25C71.9966 13.0677 71.9861 13.776 71.9653 14.375C71.9497 14.974 71.9054 15.6667 71.8325 16.4531C71.7596 17.2344 71.6424 18.0885 71.4809 19.0156L69.9653 18.875C70.1372 18.0104 70.2648 17.1927 70.3481 16.4219C70.4315 15.651 70.4809 14.9661 70.4966 14.3672C70.5174 13.763 70.5278 13.0573 70.5278 12.25V11.9688H62.2778V10.75H71.9966V12.25ZM73.6684 21.3438H60.9028V20.1094H73.6684V21.3438ZM86.0203 19.5156H84.5359V9.34375H86.0203V19.5156ZM86.4422 23.0312H76.8641V18.4844H78.3641V21.8281H86.4422V23.0312ZM78.4266 10.2812C79.1245 10.2812 79.7547 10.4297 80.3172 10.7266C80.8849 11.0234 81.3302 11.4349 81.6531 11.9609C81.9813 12.487 82.1453 13.0833 82.1453 13.75C82.1453 14.4271 81.9813 15.0312 81.6531 15.5625C81.3302 16.0885 80.8849 16.5 80.3172 16.7969C79.7547 17.0885 79.1245 17.2344 78.4266 17.2344C77.7286 17.2344 77.0958 17.0885 76.5281 16.7969C75.9604 16.5 75.5125 16.0859 75.1844 15.5547C74.8563 15.0234 74.6922 14.4219 74.6922 13.75C74.6922 13.0833 74.8563 12.487 75.1844 11.9609C75.5125 11.4349 75.9604 11.0234 76.5281 10.7266C77.0958 10.4297 77.7286 10.2812 78.4266 10.2812ZM78.4266 11.5781C77.9943 11.5781 77.6036 11.6719 77.2547 11.8594C76.9109 12.0417 76.6401 12.2969 76.4422 12.625C76.2443 12.9531 76.1453 13.3281 76.1453 13.75C76.1453 14.1823 76.2417 14.5651 76.4344 14.8984C76.6323 15.2266 76.9031 15.4818 77.2469 15.6641C77.5958 15.8464 77.9891 15.9375 78.4266 15.9375C78.8536 15.9375 79.2391 15.8464 79.5828 15.6641C79.9266 15.4818 80.1974 15.224 80.3953 14.8906C80.5932 14.5573 80.6922 14.1771 80.6922 13.75C80.6922 13.3333 80.5932 12.9609 80.3953 12.6328C80.1974 12.2995 79.924 12.0417 79.575 11.8594C79.2313 11.6719 78.8484 11.5781 78.4266 11.5781Z" fill="white"/>
<path d="M52.8321 37.7519C52.4362 38.3457 51.5638 38.3457 51.1679 37.7519L46 30L58 30L52.8321 37.7519Z" fill="#3B3B3B"/>
</svg>
