<svg width="200" height="200" viewBox="0 0 200 200" fill="none" xmlns="http://www.w3.org/2000/svg">
<rect y="8.74228e-06" width="200" height="200" fill="#11DCA9"/>
<path d="M147.041 77.6196C140.735 75.2912 140.031 74.1512 146.798 59.6717C149.514 53.8265 150.606 50.9888 151.916 48.1753C152.619 46.6473 152.643 44.3675 151.673 42.9607C151.212 42.3059 150.63 41.8451 150.63 41.8451C150.024 41.4327 149.078 40.9477 147.889 40.9477L134.186 40.8506C132.367 40.8506 131.009 42.5727 131.009 42.5727L101.273 86.8603C96.7622 82.6158 91.4021 79.2688 85.4114 77.183C79.1054 74.8546 78.402 73.7147 85.1688 59.2351C87.8853 53.3899 88.9767 50.5522 90.2864 47.7387C90.9898 46.2107 91.014 43.9309 90.0439 42.5242C89.583 41.8693 89.0009 41.4085 89.0009 41.4085C88.3946 40.9962 87.4487 40.5111 86.2603 40.5111L72.5568 40.4141C70.7378 40.4141 69.3795 42.1361 69.3795 42.1361L37.0491 90.2801C30.6946 98.3081 26.4987 107.913 26.4259 118.803C26.2561 143.323 46.023 159.355 70.5195 159.525C82.5009 159.598 93.3667 154.917 101.419 147.277C109.35 155.038 120.167 159.84 132.149 159.937C156.669 160.107 173.016 144.294 173.162 119.773C173.283 100.273 164.455 83.6345 147.016 77.571L147.041 77.6196Z" fill="white"/>
<path d="M134.428 88.7281C133.215 88.3401 132.075 88.049 130.959 87.855C136.368 93.5547 129.213 100.952 129.213 100.952C129.213 100.952 122.034 109.004 116.067 103.741C112.454 100.564 112.696 96.9987 113.86 94.1853C109.034 99.9334 107.433 107.307 107.433 107.307C105.517 113.879 101.855 131.827 119.657 137.187C137.338 142.523 144.736 118.633 144.736 118.633C144.736 118.633 153.249 94.8159 134.428 88.7281Z" fill="#141414"/>
<path d="M67.7773 88.2672C66.4433 87.8306 65.1578 87.5153 63.9209 87.3213C69.5963 93.0452 62.3201 100.564 62.3201 100.564C62.3201 100.564 55.141 108.616 49.1745 103.353C45.7547 100.346 45.779 96.9743 46.7976 94.2094C42.2864 99.8606 40.7827 106.821 40.7827 106.821C38.8666 113.394 35.2043 131.342 53.0066 136.702C70.6877 142.038 78.0852 118.148 78.0852 118.148C78.0852 118.148 86.5983 94.3307 67.7773 88.2429V88.2672Z" fill="#141414"/>
</svg>