<svg width="303" height="68" viewBox="0 0 303 68" fill="none" xmlns="http://www.w3.org/2000/svg">
<g filter="url(#filter0_d_6524_1771)">
<mask id="path-1-outside-1_6524_1771" maskUnits="userSpaceOnUse" x="3.52734" y="-0.507813" width="295" height="61" fill="black">
<rect fill="white" x="3.52734" y="-0.507813" width="295" height="61"/>
<path d="M46.2266 10V17.2617H51.168V22.9766H46.2266V29.6367H39.3086V10L46.2266 10ZM35.3125 11.2031C35.3125 22.2031 28.8242 28.5195 16.5352 30.7969L14 25.168C23.002 23.6641 26.8262 20.2051 27.5352 16.6602H16.1914V11.2031H35.3125ZM46.2266 31.0117V42.6992H26.0742V43.9453H47.1719V49.3594H19.2422V37.6289H39.3516V36.4258H19.2422V31.0117H46.2266ZM88.8086 27.7461V33.2891H52.457V27.7461L88.8086 27.7461ZM84.7266 20.1836V25.5977L56.7539 25.5977V10.7734H84.5547V16.2305L63.5859 16.2305V20.1836L84.7266 20.1836ZM70.5039 35.0078C79.1836 34.9648 84.3828 37.6289 84.4258 42.3555C84.3828 47.125 79.1836 49.832 70.5039 49.832C61.7383 49.832 56.4531 47.125 56.4531 42.3555C56.4531 37.6289 61.7383 34.9648 70.5039 35.0078ZM70.5039 40.1641C65.5625 40.1641 63.457 40.8516 63.5 42.3555C63.457 44.0312 65.5625 44.6328 70.5039 44.6328C75.3164 44.6328 77.5078 44.0312 77.5078 42.3555C77.5078 40.8516 75.3164 40.1641 70.5039 40.1641ZM108.617 10.5156C117.941 10.5156 123.27 12.8789 123.312 17.2187C123.27 21.6016 117.941 23.9648 108.617 23.9648C99.25 23.9648 93.8359 21.6016 93.8789 17.2187C93.8359 12.8789 99.25 10.5156 108.617 10.5156ZM108.617 15.5C103.246 15.5 101.098 16.0156 101.098 17.2187C101.098 18.6797 103.246 18.9375 108.617 18.9805C114.031 18.9375 116.18 18.6797 116.18 17.2187C116.18 16.0156 114.031 15.5 108.617 15.5ZM126.75 25.2969V30.7539H90.4844V25.2969H126.75ZM122.453 32.2578V43.2148H101.27V44.5039H123.398V49.5742H94.5234V38.4883H115.664V37.2852H94.5664V32.2578H122.453ZM174.402 39.9062V45.4492L138.094 45.4492V39.9062L152.746 39.9062V31.6133H159.707V39.9062H174.402ZM171.18 12.6641V18.1641H159.965C160.781 22.5254 164.391 26.6074 173.328 27.875L170.664 33.2891C163.424 32.1074 158.74 29.0781 156.227 24.8672C153.799 29.1855 149.18 32.3437 142.004 33.5898L139.34 28.1328C147.998 26.8008 151.564 22.5684 152.359 18.1641H141.145V12.6641H171.18ZM209.938 10V33.5898H203.062V24.8242H198.078V19.2812H203.062V10H209.938ZM196.102 34.2344C204.738 34.2344 210.023 37.1133 210.023 42.0547C210.023 46.9531 204.738 49.875 196.102 49.875C187.551 49.875 182.266 46.9531 182.266 42.0547C182.266 37.1133 187.551 34.2344 196.102 34.2344ZM196.102 39.4336C191.375 39.4336 189.098 40.1641 189.141 42.0547C189.098 43.9023 191.375 44.6758 196.102 44.6758C200.871 44.6758 203.191 43.9023 203.191 42.0547C203.191 40.1641 200.871 39.4336 196.102 39.4336ZM199.152 12.1055V17.6055H191.977C192.385 21.5801 194.705 25.5762 200.57 27.4883L197.262 32.8594C193.008 31.5488 190.193 28.9707 188.453 25.7695C186.734 29.4219 183.748 32.3652 179.172 33.8477L175.605 28.3906C181.943 26.3711 184.328 21.8594 184.758 17.6055H177.539V12.1055H199.152ZM245.859 10V25.082H251.23V30.7109H245.859V49.7461H239.027V10H245.859ZM237.094 15.6719V21.1289H213.934V15.6719H222.141V10.7305H229.016V15.6719H237.094ZM225.578 22.6758C231.465 22.6758 235.977 26.7148 235.977 32.3437C235.977 38.0156 231.465 42.0547 225.578 42.0547C219.562 42.0547 215.137 38.0156 215.137 32.3437C215.137 26.7148 219.562 22.6758 225.578 22.6758ZM225.578 28.2187C223.344 28.2187 221.711 29.6797 221.754 32.3437C221.711 35.1367 223.344 36.4687 225.578 36.4687C227.77 36.4687 229.359 35.1367 229.359 32.3437C229.359 29.6797 227.77 28.2187 225.578 28.2187ZM284.531 20.0977V25.4258H256.43V11.418H263.305V20.0977H284.531ZM288.441 28.9492V34.2773H252.176V28.9492H288.441ZM284.789 43.4727V48.9727H255.957V37.0273H262.918V43.4727H284.789Z"/>
</mask>
<path d="M46.2266 10V17.2617H51.168V22.9766H46.2266V29.6367H39.3086V10L46.2266 10ZM35.3125 11.2031C35.3125 22.2031 28.8242 28.5195 16.5352 30.7969L14 25.168C23.002 23.6641 26.8262 20.2051 27.5352 16.6602H16.1914V11.2031H35.3125ZM46.2266 31.0117V42.6992H26.0742V43.9453H47.1719V49.3594H19.2422V37.6289H39.3516V36.4258H19.2422V31.0117H46.2266ZM88.8086 27.7461V33.2891H52.457V27.7461L88.8086 27.7461ZM84.7266 20.1836V25.5977L56.7539 25.5977V10.7734H84.5547V16.2305L63.5859 16.2305V20.1836L84.7266 20.1836ZM70.5039 35.0078C79.1836 34.9648 84.3828 37.6289 84.4258 42.3555C84.3828 47.125 79.1836 49.832 70.5039 49.832C61.7383 49.832 56.4531 47.125 56.4531 42.3555C56.4531 37.6289 61.7383 34.9648 70.5039 35.0078ZM70.5039 40.1641C65.5625 40.1641 63.457 40.8516 63.5 42.3555C63.457 44.0312 65.5625 44.6328 70.5039 44.6328C75.3164 44.6328 77.5078 44.0312 77.5078 42.3555C77.5078 40.8516 75.3164 40.1641 70.5039 40.1641ZM108.617 10.5156C117.941 10.5156 123.27 12.8789 123.312 17.2187C123.27 21.6016 117.941 23.9648 108.617 23.9648C99.25 23.9648 93.8359 21.6016 93.8789 17.2187C93.8359 12.8789 99.25 10.5156 108.617 10.5156ZM108.617 15.5C103.246 15.5 101.098 16.0156 101.098 17.2187C101.098 18.6797 103.246 18.9375 108.617 18.9805C114.031 18.9375 116.18 18.6797 116.18 17.2187C116.18 16.0156 114.031 15.5 108.617 15.5ZM126.75 25.2969V30.7539H90.4844V25.2969H126.75ZM122.453 32.2578V43.2148H101.27V44.5039H123.398V49.5742H94.5234V38.4883H115.664V37.2852H94.5664V32.2578H122.453ZM174.402 39.9062V45.4492L138.094 45.4492V39.9062L152.746 39.9062V31.6133H159.707V39.9062H174.402ZM171.18 12.6641V18.1641H159.965C160.781 22.5254 164.391 26.6074 173.328 27.875L170.664 33.2891C163.424 32.1074 158.74 29.0781 156.227 24.8672C153.799 29.1855 149.18 32.3437 142.004 33.5898L139.34 28.1328C147.998 26.8008 151.564 22.5684 152.359 18.1641H141.145V12.6641H171.18ZM209.938 10V33.5898H203.062V24.8242H198.078V19.2812H203.062V10H209.938ZM196.102 34.2344C204.738 34.2344 210.023 37.1133 210.023 42.0547C210.023 46.9531 204.738 49.875 196.102 49.875C187.551 49.875 182.266 46.9531 182.266 42.0547C182.266 37.1133 187.551 34.2344 196.102 34.2344ZM196.102 39.4336C191.375 39.4336 189.098 40.1641 189.141 42.0547C189.098 43.9023 191.375 44.6758 196.102 44.6758C200.871 44.6758 203.191 43.9023 203.191 42.0547C203.191 40.1641 200.871 39.4336 196.102 39.4336ZM199.152 12.1055V17.6055H191.977C192.385 21.5801 194.705 25.5762 200.57 27.4883L197.262 32.8594C193.008 31.5488 190.193 28.9707 188.453 25.7695C186.734 29.4219 183.748 32.3652 179.172 33.8477L175.605 28.3906C181.943 26.3711 184.328 21.8594 184.758 17.6055H177.539V12.1055H199.152ZM245.859 10V25.082H251.23V30.7109H245.859V49.7461H239.027V10H245.859ZM237.094 15.6719V21.1289H213.934V15.6719H222.141V10.7305H229.016V15.6719H237.094ZM225.578 22.6758C231.465 22.6758 235.977 26.7148 235.977 32.3437C235.977 38.0156 231.465 42.0547 225.578 42.0547C219.562 42.0547 215.137 38.0156 215.137 32.3437C215.137 26.7148 219.562 22.6758 225.578 22.6758ZM225.578 28.2187C223.344 28.2187 221.711 29.6797 221.754 32.3437C221.711 35.1367 223.344 36.4687 225.578 36.4687C227.77 36.4687 229.359 35.1367 229.359 32.3437C229.359 29.6797 227.77 28.2187 225.578 28.2187ZM284.531 20.0977V25.4258H256.43V11.418H263.305V20.0977H284.531ZM288.441 28.9492V34.2773H252.176V28.9492H288.441ZM284.789 43.4727V48.9727H255.957V37.0273H262.918V43.4727H284.789Z" fill="#11DCA9"/>
<path d="M46.2266 10H56.2266C56.2266 4.47715 51.7494 0 46.2266 0V10ZM46.2266 17.2617H36.2266C36.2266 22.7846 40.7037 27.2617 46.2266 27.2617V17.2617ZM51.168 17.2617H61.168C61.168 11.7389 56.6908 7.26172 51.168 7.26172V17.2617ZM51.168 22.9766V32.9766C56.6908 32.9766 61.168 28.4994 61.168 22.9766H51.168ZM46.2266 22.9766V12.9766C40.7037 12.9766 36.2266 17.4537 36.2266 22.9766H46.2266ZM46.2266 29.6367V39.6367C51.7494 39.6367 56.2266 35.1596 56.2266 29.6367H46.2266ZM39.3086 29.6367H29.3086C29.3086 35.1596 33.7857 39.6367 39.3086 39.6367V29.6367ZM39.3086 10V0C33.7857 0 29.3086 4.47715 29.3086 10H39.3086ZM35.3125 11.2031H45.3125C45.3125 5.68028 40.8353 1.20312 35.3125 1.20312V11.2031ZM16.5352 30.7969L7.41724 34.9034C9.30933 39.1045 13.8269 41.469 18.3573 40.6295L16.5352 30.7969ZM14 25.168L12.3522 15.3047C9.29301 15.8157 6.64414 17.7174 5.18159 20.4525C3.71905 23.1876 3.60841 26.4465 4.88209 29.2745L14 25.168ZM27.5352 16.6602L37.341 18.6213C37.9285 15.6836 37.168 12.6371 35.2686 10.3203C33.3692 8.00339 30.5311 6.66016 27.5352 6.66016V16.6602ZM16.1914 16.6602H6.19141C6.19141 22.183 10.6686 26.6602 16.1914 26.6602V16.6602ZM16.1914 11.2031V1.20312C10.6686 1.20312 6.19141 5.68028 6.19141 11.2031H16.1914ZM46.2266 31.0117H56.2266C56.2266 25.4889 51.7494 21.0117 46.2266 21.0117V31.0117ZM46.2266 42.6992V52.6992C51.7494 52.6992 56.2266 48.2221 56.2266 42.6992H46.2266ZM26.0742 42.6992V32.6992C20.5514 32.6992 16.0742 37.1764 16.0742 42.6992H26.0742ZM26.0742 43.9453H16.0742C16.0742 49.4682 20.5514 53.9453 26.0742 53.9453V43.9453ZM47.1719 43.9453H57.1719C57.1719 38.4225 52.6947 33.9453 47.1719 33.9453V43.9453ZM47.1719 49.3594V59.3594C52.6947 59.3594 57.1719 54.8822 57.1719 49.3594H47.1719ZM19.2422 49.3594H9.24219C9.24219 54.8822 13.7193 59.3594 19.2422 59.3594V49.3594ZM19.2422 37.6289V27.6289C13.7193 27.6289 9.24219 32.1061 9.24219 37.6289H19.2422ZM39.3516 37.6289V47.6289C44.8744 47.6289 49.3516 43.1518 49.3516 37.6289H39.3516ZM39.3516 36.4258H49.3516C49.3516 30.9029 44.8744 26.4258 39.3516 26.4258V36.4258ZM19.2422 36.4258H9.24219C9.24219 41.9486 13.7193 46.4258 19.2422 46.4258V36.4258ZM19.2422 31.0117V21.0117C13.7193 21.0117 9.24219 25.4889 9.24219 31.0117H19.2422ZM46.2266 10L36.2266 10V17.2617H46.2266H56.2266V10H46.2266ZM46.2266 17.2617V27.2617H51.168V17.2617V7.26172H46.2266V17.2617ZM51.168 17.2617H41.168V22.9766H51.168H61.168V17.2617H51.168ZM51.168 22.9766V12.9766H46.2266V22.9766V32.9766H51.168V22.9766ZM46.2266 22.9766H36.2266V29.6367H46.2266H56.2266V22.9766H46.2266ZM46.2266 29.6367V19.6367H39.3086V29.6367V39.6367H46.2266V29.6367ZM39.3086 29.6367H49.3086V10L39.3086 10H29.3086V29.6367H39.3086ZM39.3086 10V20H46.2266V10V0H39.3086V10ZM35.3125 11.2031H25.3125C25.3125 14.6008 24.3845 16.2519 23.3727 17.2895C22.1558 18.5375 19.6663 20.0464 14.713 20.9643L16.5352 30.7969L18.3573 40.6295C25.6931 39.27 32.5923 36.4821 37.6918 31.2525C42.9964 25.8126 45.3125 18.8055 45.3125 11.2031H35.3125ZM16.5352 30.7969L25.6531 26.6903L23.1179 21.0614L14 25.168L4.88209 29.2745L7.41724 34.9034L16.5352 30.7969ZM14 25.168L15.6478 35.0313C25.7893 33.337 35.356 28.5461 37.341 18.6213L27.5352 16.6602L17.7293 14.699C17.9751 13.4703 18.6458 13.1401 18.2018 13.4462C17.6268 13.8426 15.9581 14.7022 12.3522 15.3047L14 25.168ZM27.5352 16.6602V6.66016H16.1914V16.6602V26.6602H27.5352V16.6602ZM16.1914 16.6602H26.1914V11.2031H16.1914H6.19141L6.19141 16.6602H16.1914ZM16.1914 11.2031V21.2031H35.3125V11.2031V1.20312L16.1914 1.20312V11.2031ZM46.2266 31.0117H36.2266V42.6992H46.2266H56.2266V31.0117H46.2266ZM46.2266 42.6992V32.6992H26.0742V42.6992V52.6992H46.2266V42.6992ZM26.0742 42.6992H16.0742V43.9453H26.0742H36.0742V42.6992H26.0742ZM26.0742 43.9453V53.9453H47.1719V43.9453V33.9453H26.0742V43.9453ZM47.1719 43.9453H37.1719V49.3594H47.1719H57.1719V43.9453H47.1719ZM47.1719 49.3594V39.3594H19.2422V49.3594V59.3594H47.1719V49.3594ZM19.2422 49.3594H29.2422V37.6289H19.2422H9.24219L9.24219 49.3594H19.2422ZM19.2422 37.6289V47.6289H39.3516V37.6289V27.6289H19.2422V37.6289ZM39.3516 37.6289H49.3516V36.4258H39.3516H29.3516V37.6289H39.3516ZM39.3516 36.4258V26.4258H19.2422V36.4258V46.4258H39.3516V36.4258ZM19.2422 36.4258H29.2422V31.0117H19.2422H9.24219V36.4258H19.2422ZM19.2422 31.0117V41.0117H46.2266V31.0117V21.0117H19.2422V31.0117ZM88.8086 27.7461H98.8086C98.8086 22.2232 94.3314 17.7461 88.8086 17.7461V27.7461ZM88.8086 33.2891V43.2891C94.3314 43.2891 98.8086 38.8119 98.8086 33.2891H88.8086ZM52.457 33.2891H42.457C42.457 38.8119 46.9342 43.2891 52.457 43.2891V33.2891ZM52.457 27.7461V17.7461C46.9342 17.7461 42.457 22.2232 42.457 27.7461H52.457ZM84.7266 20.1836H94.7266C94.7266 14.6607 90.2494 10.1836 84.7266 10.1836V20.1836ZM84.7266 25.5977V35.5977C90.2494 35.5977 94.7266 31.1205 94.7266 25.5977H84.7266ZM56.7539 25.5977H46.7539C46.7539 31.1205 51.2311 35.5977 56.7539 35.5977V25.5977ZM56.7539 10.7734V0.773437C51.2311 0.773437 46.7539 5.25059 46.7539 10.7734H56.7539ZM84.5547 10.7734H94.5547C94.5547 5.25059 90.0775 0.773437 84.5547 0.773437V10.7734ZM84.5547 16.2305V26.2305C90.0775 26.2305 94.5547 21.7533 94.5547 16.2305H84.5547ZM63.5859 16.2305V6.23047C58.0631 6.23047 53.5859 10.7076 53.5859 16.2305H63.5859ZM63.5859 20.1836H53.5859C53.5859 25.7064 58.0631 30.1836 63.5859 30.1836V20.1836ZM70.5039 35.0078L70.4549 45.0077C70.4877 45.0079 70.5206 45.0079 70.5534 45.0077L70.5039 35.0078ZM84.4258 42.3555L94.4254 42.4456C94.4259 42.3852 94.4259 42.3249 94.4254 42.2646L84.4258 42.3555ZM63.5 42.3555L73.4967 42.6118C73.5013 42.4312 73.5011 42.2505 73.4959 42.0699L63.5 42.3555ZM88.8086 27.7461H78.8086V33.2891H88.8086H98.8086V27.7461H88.8086ZM88.8086 33.2891V23.2891L52.457 23.2891V33.2891V43.2891H88.8086V33.2891ZM52.457 33.2891H62.457V27.7461H52.457H42.457V33.2891H52.457ZM52.457 27.7461V37.7461H88.8086V27.7461V17.7461L52.457 17.7461V27.7461ZM84.7266 20.1836L74.7266 20.1836V25.5977L84.7266 25.5977H94.7266V20.1836H84.7266ZM84.7266 25.5977V15.5977L56.7539 15.5977V25.5977V35.5977H84.7266V25.5977ZM56.7539 25.5977H66.7539V10.7734H56.7539H46.7539V25.5977H56.7539ZM56.7539 10.7734V20.7734L84.5547 20.7734V10.7734V0.773437L56.7539 0.773437V10.7734ZM84.5547 10.7734H74.5547V16.2305L84.5547 16.2305H94.5547V10.7734H84.5547ZM84.5547 16.2305V6.23047H63.5859V16.2305V26.2305L84.5547 26.2305V16.2305ZM63.5859 16.2305H53.5859V20.1836H63.5859H73.5859V16.2305H63.5859ZM63.5859 20.1836V30.1836H84.7266V20.1836V10.1836H63.5859V20.1836ZM70.5039 35.0078L70.5534 45.0077C72.2266 44.9994 73.536 45.1241 74.5076 45.3047C75.4994 45.489 75.9629 45.6987 76.065 45.7522C76.1529 45.7982 75.7016 45.583 75.2162 44.878C74.6781 44.0964 74.433 43.1937 74.4262 42.4464L84.4258 42.3555L94.4254 42.2646C94.3631 35.4102 90.2202 30.5881 85.3422 28.034C80.9114 25.714 75.5888 24.9825 70.4544 25.0079L70.5039 35.0078ZM84.4258 42.3555L74.4262 42.2654C74.4326 41.5485 74.6661 40.6734 75.1855 39.9101C75.6549 39.2202 76.0919 39.0087 76.0029 39.056C75.8986 39.1116 75.4359 39.3243 74.448 39.5142C73.4795 39.7003 72.1737 39.832 70.5039 39.832V49.832V59.832C75.6469 59.832 80.9752 59.0675 85.4044 56.7086C90.2806 54.1116 94.3639 49.2679 94.4254 42.4456L84.4258 42.3555ZM70.5039 49.832V39.832C68.8076 39.832 67.4731 39.6995 66.4769 39.5102C65.46 39.3171 64.9731 39.0986 64.8513 39.0344C64.7418 38.9768 65.1868 39.1841 65.6694 39.8896C66.2078 40.6766 66.4531 41.5922 66.4531 42.3555H56.4531H46.4531C46.4531 49.2966 50.6517 54.1602 55.5315 56.7302C59.9755 59.0707 65.3302 59.832 70.5039 59.832V49.832ZM56.4531 42.3555H66.4531C66.4531 43.1498 66.1958 44.0932 65.6385 44.8985C65.1399 45.6189 64.6807 45.8296 64.7894 45.7733C64.9093 45.7112 65.3972 45.496 66.4178 45.3084C67.4172 45.1247 68.7553 44.9994 70.4549 45.0077L70.5039 35.0078L70.5529 25.0079C65.3875 24.9826 60.0387 25.7112 55.5934 28.0128C50.7135 30.5395 46.4531 35.3809 46.4531 42.3555H56.4531ZM70.5039 40.1641V30.1641C67.8797 30.1641 64.8116 30.3098 62.1193 31.1607C60.735 31.5982 58.5858 32.4819 56.715 34.4041C54.5437 36.6352 53.4168 39.5862 53.5041 42.6411L63.5 42.3555L73.4959 42.0699C73.5249 43.0842 73.373 44.2497 72.9093 45.4454C72.445 46.6427 71.7674 47.6136 71.0477 48.3531C69.7141 49.7234 68.392 50.1533 68.1463 50.2309C67.8145 50.3358 67.7924 50.2968 68.3005 50.2467C68.766 50.2008 69.4777 50.1641 70.5039 50.1641V40.1641ZM63.5 42.3555L53.5033 42.0991C53.4321 44.8767 54.3409 47.8168 56.5204 50.187C58.4269 52.2604 60.671 53.2 62.1193 53.6577C64.8596 54.5237 67.9902 54.6328 70.5039 54.6328V44.6328V34.6328C69.4445 34.6328 68.718 34.5994 68.2411 34.5553C67.7155 34.5066 67.7705 34.4686 68.1463 34.5874C68.4559 34.6853 69.8729 35.1603 71.2423 36.6495C72.8847 38.4356 73.5464 40.6721 73.4967 42.6118L63.5 42.3555ZM70.5039 44.6328V54.6328C72.9863 54.6328 76.0744 54.5186 78.7984 53.6658C80.2293 53.2178 82.4109 52.3138 84.3008 50.347C86.461 48.0989 87.5078 45.225 87.5078 42.3555H77.5078H67.5078C67.5078 40.3238 68.2807 38.1535 69.8797 36.4895C71.2082 35.1069 72.5412 34.6675 72.8227 34.5793C73.1707 34.4704 73.2078 34.5083 72.6965 34.5562C72.23 34.5998 71.5243 34.6328 70.5039 34.6328V44.6328ZM77.5078 42.3555H87.5078C87.5078 39.2149 86.2339 36.3449 84.1013 34.2481C82.2533 32.431 80.1677 31.5813 78.7984 31.1526C76.1238 30.3152 73.097 30.1641 70.5039 30.1641V40.1641V50.1641C71.4903 50.1641 72.1811 50.2003 72.6365 50.2457C73.1311 50.295 73.1265 50.3341 72.8227 50.239C72.6028 50.1702 71.3659 49.7743 70.0791 48.5091C69.3842 47.8259 68.6985 46.9089 68.2042 45.7487C67.7074 44.5825 67.5078 43.4133 67.5078 42.3555H77.5078ZM123.312 17.2187L133.312 17.3168C133.313 17.2511 133.313 17.1854 133.312 17.1197L123.312 17.2187ZM93.8789 17.2187L103.878 17.3168C103.879 17.2511 103.879 17.1854 103.878 17.1197L93.8789 17.2187ZM108.617 18.9805L108.537 28.9801C108.59 28.9806 108.643 28.9806 108.697 28.9802L108.617 18.9805ZM126.75 25.2969H136.75C136.75 19.774 132.273 15.2969 126.75 15.2969V25.2969ZM126.75 30.7539V40.7539C132.273 40.7539 136.75 36.2768 136.75 30.7539H126.75ZM90.4844 30.7539H80.4844C80.4844 36.2768 84.9615 40.7539 90.4844 40.7539V30.7539ZM90.4844 25.2969V15.2969C84.9615 15.2969 80.4844 19.774 80.4844 25.2969H90.4844ZM122.453 32.2578H132.453C132.453 26.735 127.976 22.2578 122.453 22.2578V32.2578ZM122.453 43.2148V53.2148C127.976 53.2148 132.453 48.7377 132.453 43.2148H122.453ZM101.27 43.2148V33.2148C95.7467 33.2148 91.2695 37.692 91.2695 43.2148H101.27ZM101.27 44.5039H91.2695C91.2695 50.0268 95.7467 54.5039 101.27 54.5039V44.5039ZM123.398 44.5039H133.398C133.398 38.9811 128.921 34.5039 123.398 34.5039V44.5039ZM123.398 49.5742V59.5742C128.921 59.5742 133.398 55.0971 133.398 49.5742H123.398ZM94.5234 49.5742H84.5234C84.5234 55.0971 89.0006 59.5742 94.5234 59.5742V49.5742ZM94.5234 38.4883V28.4883C89.0006 28.4883 84.5234 32.9654 84.5234 38.4883H94.5234ZM115.664 38.4883V48.4883C121.187 48.4883 125.664 44.0111 125.664 38.4883H115.664ZM115.664 37.2852H125.664C125.664 31.7623 121.187 27.2852 115.664 27.2852V37.2852ZM94.5664 37.2852H84.5664C84.5664 42.808 89.0436 47.2852 94.5664 47.2852V37.2852ZM94.5664 32.2578V22.2578C89.0436 22.2578 84.5664 26.735 84.5664 32.2578H94.5664ZM108.617 10.5156V20.5156C110.546 20.5156 112.085 20.6392 113.263 20.8275C114.469 21.02 115.099 21.249 115.321 21.3494C115.551 21.4538 115.043 21.2804 114.435 20.505C113.727 19.6003 113.324 18.4288 113.313 17.3178L123.312 17.2187L133.312 17.1197C133.239 9.78613 128.289 5.26676 123.57 3.13007C119.183 1.14355 113.871 0.515625 108.617 0.515625V10.5156ZM123.312 17.2187L113.313 17.1207C113.324 16.0441 113.712 14.8886 114.414 13.985C115.018 13.2084 115.527 13.0316 115.304 13.133C115.088 13.2315 114.463 13.4603 113.26 13.6529C112.084 13.8412 110.546 13.9648 108.617 13.9648V23.9648V33.9648C113.868 33.9648 119.19 33.3378 123.586 31.3377C128.34 29.1749 133.24 24.6299 133.312 17.3168L123.312 17.2187ZM108.617 23.9648V13.9648C106.676 13.9648 105.121 13.841 103.927 13.6512C102.705 13.4568 102.064 13.2253 101.838 13.1231C101.6 13.0155 102.132 13.1961 102.757 14.0048C103.492 14.9544 103.89 16.1768 103.878 17.3168L93.8789 17.2187L83.8794 17.1207C83.806 24.6082 88.8621 29.2059 93.6003 31.3476C98.0059 33.3391 103.352 33.9648 108.617 33.9648V23.9648ZM93.8789 17.2187L103.878 17.1197C103.89 18.2952 103.476 19.5344 102.736 20.4852C102.107 21.2927 101.577 21.4698 101.822 21.3593C102.053 21.2552 102.699 21.0234 103.923 20.8292C105.12 20.6394 106.676 20.5156 108.617 20.5156V10.5156V0.515625C103.349 0.515625 98.0127 1.14229 93.6164 3.12017C88.9149 5.23532 83.805 9.80756 83.8794 17.3178L93.8789 17.2187ZM108.617 15.5V5.5C105.869 5.5 102.999 5.60872 100.592 6.16502C99.4357 6.43215 97.3925 7.01263 95.4546 8.49003C93.08 10.3003 91.0977 13.3361 91.0977 17.2187H101.098H111.098C111.098 18.6243 110.766 20.1198 110.015 21.5217C109.288 22.8801 108.352 23.807 107.58 24.3952C106.833 24.9644 106.175 25.2695 105.805 25.4187C105.423 25.5729 105.161 25.636 105.095 25.6514C104.991 25.6754 105.19 25.623 105.876 25.5748C106.524 25.5294 107.416 25.5 108.617 25.5V15.5ZM101.098 17.2187H91.0977C91.0977 20.5239 92.5355 23.706 95.2369 25.8861C97.3595 27.5992 99.643 28.1787 100.799 28.4201C103.154 28.9121 106.062 28.9603 108.537 28.9801L108.617 18.9805L108.697 8.98079C107.401 8.97042 106.447 8.94762 105.73 8.90785C104.962 8.86526 104.768 8.81754 104.888 8.84263C104.969 8.85961 105.288 8.92924 105.741 9.10871C106.189 9.2859 106.957 9.64408 107.798 10.3225C108.686 11.0393 109.597 12.0705 110.247 13.4499C110.893 14.8216 111.098 16.1475 111.098 17.2187H101.098ZM108.617 18.9805L108.697 28.9802C111.193 28.9603 114.108 28.912 116.465 28.4219C117.62 28.1817 119.905 27.6047 122.031 25.8933C124.739 23.7125 126.18 20.5264 126.18 17.2187H116.18H106.18C106.18 16.1476 106.384 14.8198 107.033 13.4457C107.685 12.0637 108.598 11.0318 109.488 10.3153C110.33 9.63745 111.099 9.28046 111.545 9.10441C111.997 8.92603 112.314 8.85723 112.393 8.84082C112.508 8.81682 112.309 8.86492 111.533 8.90766C110.808 8.94759 109.845 8.97041 108.538 8.98078L108.617 18.9805ZM116.18 17.2187H126.18C126.18 13.3329 124.194 10.294 121.813 8.48317C119.872 7.00718 117.827 6.42878 116.671 6.16284C114.262 5.60863 111.384 5.5 108.617 5.5V15.5V25.5C109.83 25.5 110.732 25.5295 111.387 25.5751C112.081 25.6235 112.286 25.6765 112.186 25.6536C112.122 25.6388 111.862 25.5764 111.481 25.4232C111.113 25.2749 110.453 24.9708 109.706 24.4021C108.933 23.8142 107.994 22.8868 107.264 21.5261C106.511 20.1218 106.18 18.6244 106.18 17.2187H116.18ZM126.75 25.2969H116.75V30.7539H126.75H136.75V25.2969H126.75ZM126.75 30.7539V20.7539H90.4844V30.7539V40.7539H126.75V30.7539ZM90.4844 30.7539H100.484V25.2969H90.4844H80.4844V30.7539H90.4844ZM90.4844 25.2969V35.2969H126.75V25.2969V15.2969H90.4844V25.2969ZM122.453 32.2578H112.453V43.2148H122.453H132.453V32.2578H122.453ZM122.453 43.2148V33.2148H101.27V43.2148V53.2148H122.453V43.2148ZM101.27 43.2148H91.2695V44.5039H101.27H111.27V43.2148H101.27ZM101.27 44.5039V54.5039H123.398V44.5039V34.5039H101.27V44.5039ZM123.398 44.5039H113.398V49.5742H123.398H133.398V44.5039H123.398ZM123.398 49.5742V39.5742H94.5234V49.5742V59.5742H123.398V49.5742ZM94.5234 49.5742H104.523V38.4883H94.5234H84.5234V49.5742H94.5234ZM94.5234 38.4883V48.4883H115.664V38.4883V28.4883H94.5234V38.4883ZM115.664 38.4883H125.664V37.2852H115.664H105.664V38.4883H115.664ZM115.664 37.2852V27.2852H94.5664V37.2852V47.2852H115.664V37.2852ZM94.5664 37.2852H104.566V32.2578H94.5664H84.5664V37.2852H94.5664ZM94.5664 32.2578V42.2578H122.453V32.2578V22.2578H94.5664V32.2578ZM174.402 39.9062H184.402C184.402 34.3834 179.925 29.9062 174.402 29.9062V39.9062ZM174.402 45.4492V55.4492C179.925 55.4492 184.402 50.9721 184.402 45.4492H174.402ZM138.094 45.4492H128.094C128.094 50.9721 132.571 55.4492 138.094 55.4492V45.4492ZM138.094 39.9062V29.9062C132.571 29.9062 128.094 34.3834 128.094 39.9062H138.094ZM152.746 39.9062V49.9062C158.269 49.9062 162.746 45.4291 162.746 39.9062H152.746ZM152.746 31.6133V21.6133C147.223 21.6133 142.746 26.0904 142.746 31.6133H152.746ZM159.707 31.6133H169.707C169.707 26.0904 165.23 21.6133 159.707 21.6133V31.6133ZM159.707 39.9062H149.707C149.707 45.4291 154.184 49.9062 159.707 49.9062V39.9062ZM171.18 12.6641H181.18C181.18 7.14122 176.703 2.66406 171.18 2.66406V12.6641ZM171.18 18.1641V28.1641C176.703 28.1641 181.18 23.6869 181.18 18.1641H171.18ZM159.965 18.1641V8.16406C156.991 8.16406 154.171 9.48807 152.271 11.7766C150.371 14.065 149.588 17.0805 150.136 20.004L159.965 18.1641ZM173.328 27.875L182.301 32.2901C183.716 29.4144 183.667 26.0347 182.169 23.2013C180.671 20.3679 177.906 18.4241 174.732 17.9741L173.328 27.875ZM170.664 33.2891L169.053 43.1585C173.397 43.8674 177.693 41.6531 179.637 37.7041L170.664 33.2891ZM156.227 24.8672L164.813 19.7416C162.985 16.6787 159.663 14.8216 156.097 14.868C152.53 14.9144 149.258 16.8572 147.51 19.9666L156.227 24.8672ZM142.004 33.5898L133.018 37.9769C134.97 41.976 139.33 44.2038 143.715 43.4424L142.004 33.5898ZM139.34 28.1328L137.819 18.2491C134.677 18.7324 131.953 20.6807 130.479 23.4973C129.006 26.3139 128.959 29.6633 130.354 32.5198L139.34 28.1328ZM152.359 18.1641L162.2 19.9402C162.727 17.0244 161.933 14.0253 160.033 11.7516C158.133 9.47803 155.322 8.16406 152.359 8.16406V18.1641ZM141.145 18.1641H131.145C131.145 23.6869 135.622 28.1641 141.145 28.1641V18.1641ZM141.145 12.6641V2.66406C135.622 2.66406 131.145 7.14122 131.145 12.6641H141.145ZM174.402 39.9062H164.402V45.4492H174.402H184.402V39.9062H174.402ZM174.402 45.4492V35.4492L138.094 35.4492V45.4492V55.4492L174.402 55.4492V45.4492ZM138.094 45.4492L148.094 45.4492V39.9062L138.094 39.9062H128.094V45.4492H138.094ZM138.094 39.9062V49.9062L152.746 49.9062V39.9062V29.9062L138.094 29.9062V39.9062ZM152.746 39.9062H162.746V31.6133H152.746H142.746V39.9062H152.746ZM152.746 31.6133V41.6133H159.707V31.6133V21.6133H152.746V31.6133ZM159.707 31.6133H149.707V39.9062H159.707H169.707V31.6133H159.707ZM159.707 39.9062V49.9062H174.402V39.9062V29.9062H159.707V39.9062ZM171.18 12.6641H161.18V18.1641H171.18H181.18V12.6641H171.18ZM171.18 18.1641V8.16406H159.965V18.1641V28.1641H171.18V18.1641ZM159.965 18.1641L150.136 20.004C150.957 24.394 153.242 28.6474 157.294 31.9402C161.212 35.1241 166.224 36.9676 171.924 37.7759L173.328 27.875L174.732 17.9741C171.494 17.5149 170.233 16.6836 169.908 16.4191C169.755 16.2947 169.746 16.2499 169.777 16.3026C169.804 16.3486 169.803 16.3712 169.794 16.3241L159.965 18.1641ZM173.328 27.875L164.356 23.4599L161.691 28.874L170.664 33.2891L179.637 37.7041L182.301 32.2901L173.328 27.875ZM170.664 33.2891L172.275 23.4196C167.058 22.5683 165.408 20.7378 164.813 19.7416L156.227 24.8672L147.64 29.9928C152.073 37.4184 159.789 41.6466 169.053 43.1585L170.664 33.2891ZM156.227 24.8672L147.51 19.9666C146.914 21.0253 145.317 22.8649 140.293 23.7373L142.004 33.5898L143.715 43.4424C153.043 41.8226 160.683 37.3458 164.943 29.7677L156.227 24.8672ZM142.004 33.5898L150.99 29.2028L148.326 23.7458L139.34 28.1328L130.354 32.5198L133.018 37.9769L142.004 33.5898ZM139.34 28.1328L140.86 38.0165C146.523 37.1454 151.468 35.1796 155.302 31.8966C159.227 28.5363 161.418 24.273 162.2 19.9402L152.359 18.1641L142.518 16.3879C142.505 16.4594 142.516 16.5145 142.294 16.7045C141.982 16.9717 140.815 17.7882 137.819 18.2491L139.34 28.1328ZM152.359 18.1641V8.16406H141.145V18.1641V28.1641H152.359V18.1641ZM141.145 18.1641H151.145V12.6641H141.145H131.145V18.1641H141.145ZM141.145 12.6641V22.6641H171.18V12.6641V2.66406L141.145 2.66406V12.6641ZM209.938 10H219.938C219.938 4.47715 215.46 0 209.938 0V10ZM209.938 33.5898V43.5898C215.46 43.5898 219.938 39.1127 219.938 33.5898H209.938ZM203.062 33.5898H193.062C193.062 39.1127 197.54 43.5898 203.062 43.5898V33.5898ZM203.062 24.8242L213.062 24.8242C213.062 19.3014 208.585 14.8242 203.062 14.8242V24.8242ZM198.078 24.8242H188.078C188.078 30.3471 192.555 34.8242 198.078 34.8242V24.8242ZM198.078 19.2812V9.28125C192.555 9.28125 188.078 13.7584 188.078 19.2812H198.078ZM203.062 19.2812V29.2812C208.585 29.2812 213.062 24.8041 213.062 19.2812L203.062 19.2812ZM203.062 10V0C197.54 0 193.062 4.47715 193.062 10H203.062ZM189.141 42.0547L199.138 42.2872C199.141 42.134 199.142 41.9807 199.138 41.8275L189.141 42.0547ZM199.152 12.1055H209.152C209.152 6.58262 204.675 2.10547 199.152 2.10547V12.1055ZM199.152 17.6055V27.6055C204.675 27.6055 209.152 23.1283 209.152 17.6055L199.152 17.6055ZM191.977 17.6055V7.60547C189.147 7.60547 186.449 8.80453 184.553 10.9053C182.657 13.0062 181.74 15.812 182.029 18.6271L191.977 17.6055ZM200.57 27.4883L209.085 32.7331C210.692 30.1232 211.014 26.9202 209.958 24.0426C208.902 21.1651 206.584 18.9308 203.67 17.9808L200.57 27.4883ZM197.262 32.8594L194.317 42.4161C198.673 43.7581 203.385 41.9848 205.776 38.1041L197.262 32.8594ZM188.453 25.7695L197.239 20.9934C195.439 17.6822 191.93 15.6643 188.163 15.7738C184.395 15.8832 181.01 18.1014 179.405 21.5116L188.453 25.7695ZM179.172 33.8477L170.801 39.3184C173.269 43.0953 177.961 44.7514 182.254 43.3609L179.172 33.8477ZM175.605 28.3906L172.569 18.8626C169.593 19.8111 167.231 22.0961 166.184 25.0394C165.137 27.9828 165.526 31.2463 167.235 33.8613L175.605 28.3906ZM184.758 17.6055L194.707 18.6105C194.991 15.7977 194.072 12.9962 192.176 10.8991C190.28 8.80207 187.585 7.60547 184.758 7.60547V17.6055ZM177.539 17.6055H167.539C167.539 23.1283 172.016 27.6055 177.539 27.6055V17.6055ZM177.539 12.1055V2.10547C172.016 2.10547 167.539 6.58262 167.539 12.1055L177.539 12.1055ZM209.938 10H199.938V33.5898H209.938H219.938V10H209.938ZM209.938 33.5898V23.5898L203.062 23.5898V33.5898V43.5898H209.938V33.5898ZM203.062 33.5898H213.062V24.8242L203.062 24.8242H193.062V33.5898H203.062ZM203.062 24.8242V14.8242H198.078V24.8242V34.8242H203.062V24.8242ZM198.078 24.8242L208.078 24.8242V19.2812L198.078 19.2812H188.078V24.8242H198.078ZM198.078 19.2812V29.2812H203.062V19.2812V9.28125H198.078V19.2812ZM203.062 19.2812L213.062 19.2812V10H203.062H193.062V19.2812H203.062ZM203.062 10V20L209.938 20V10V0H203.062V10ZM196.102 34.2344V44.2344C197.724 44.2344 198.993 44.3712 199.931 44.5616C200.887 44.7555 201.334 44.9714 201.435 45.0275C201.519 45.0742 201.117 44.8702 200.691 44.2182C200.223 43.5014 200.023 42.6952 200.023 42.0547H210.023H220.023C220.023 35.2516 216.07 30.2863 211.168 27.5555C206.698 25.0657 201.305 24.2344 196.102 24.2344V34.2344ZM210.023 42.0547H200.023C200.023 41.3866 200.232 40.5745 200.697 39.865C201.118 39.2211 201.511 39.0231 201.42 39.074C201.314 39.1333 200.864 39.3506 199.913 39.5455C198.979 39.737 197.715 39.875 196.102 39.875V49.875V59.875C201.328 59.875 206.719 59.0256 211.183 56.5295C216.051 53.8066 220.023 48.8554 220.023 42.0547H210.023ZM196.102 49.875V39.875C194.515 39.875 193.272 39.7379 192.354 39.5484C191.418 39.3553 190.977 39.1406 190.875 39.0834C190.788 39.0344 191.178 39.2329 191.596 39.8732C192.057 40.5786 192.266 41.387 192.266 42.0547H182.266H172.266C172.266 48.8478 176.229 53.7955 181.079 56.5201C185.531 59.0212 190.904 59.875 196.102 59.875V49.875ZM182.266 42.0547H192.266C192.266 42.6948 192.066 43.4973 191.602 44.2101C191.179 44.8584 190.78 45.063 190.86 45.0182C190.957 44.9642 191.396 44.7509 192.335 44.5588C193.258 44.3702 194.506 44.2344 196.102 44.2344V34.2344V24.2344C190.928 24.2344 185.553 25.07 181.094 27.5648C176.21 30.2974 172.266 35.2592 172.266 42.0547H182.266ZM196.102 39.4336V29.4336C193.576 29.4336 190.326 29.5812 187.422 30.6347C185.865 31.1997 183.688 32.2766 181.894 34.4095C179.913 36.7637 179.082 39.5902 179.143 42.2819L189.141 42.0547L199.138 41.8275C199.178 43.5739 198.616 45.6 197.197 47.2856C195.965 48.7498 194.646 49.2896 194.243 49.4356C193.811 49.5923 193.689 49.5641 194.124 49.5155C194.516 49.4717 195.151 49.4336 196.102 49.4336V39.4336ZM189.141 42.0547L179.143 41.8222C179.08 44.5629 179.947 47.3821 181.913 49.7045C183.69 51.8043 185.838 52.8764 187.384 53.4445C190.285 54.5107 193.529 54.6758 196.102 54.6758V44.6758V34.6758C195.167 34.6758 194.543 34.6362 194.162 34.5921C193.738 34.5432 193.857 34.5158 194.281 34.6717C194.673 34.8155 195.963 35.3478 197.178 36.7829C198.581 38.4407 199.18 40.4703 199.138 42.2872L189.141 42.0547ZM196.102 44.6758V54.6758C198.702 54.6758 201.936 54.5082 204.828 53.4648C206.364 52.9109 208.483 51.8732 210.266 49.8449C212.239 47.5998 213.191 44.8269 213.191 42.0547H203.191H193.191C193.191 40.2063 193.854 38.2229 195.243 36.6426C196.441 35.2789 197.683 34.781 198.042 34.6514C198.436 34.5093 198.526 34.5405 198.088 34.5906C197.688 34.6361 197.048 34.6758 196.102 34.6758V44.6758ZM203.191 42.0547H213.191C213.191 39.3294 212.276 36.547 210.286 34.2689C208.485 32.2078 206.337 31.1656 204.79 30.6148C201.896 29.5839 198.656 29.4336 196.102 29.4336V39.4336V49.4336C197.065 49.4336 197.715 49.4718 198.125 49.5169C198.575 49.5667 198.481 49.5985 198.08 49.4555C197.71 49.3237 196.439 48.8186 195.223 47.4262C193.817 45.8167 193.191 43.8347 193.191 42.0547H203.191ZM199.152 12.1055H189.152V17.6055H199.152L209.152 17.6055V12.1055H199.152ZM199.152 17.6055V7.60547H191.977V17.6055V27.6055H199.152V17.6055ZM191.977 17.6055L182.029 18.6271C182.82 26.334 187.657 33.7964 197.471 36.9958L200.57 27.4883L203.67 17.9808C202.998 17.7617 202.603 17.541 202.393 17.3996C202.189 17.2624 202.11 17.1678 202.088 17.1389C202.065 17.1105 201.966 16.9857 201.924 16.5838L191.977 17.6055ZM200.57 27.4883L192.056 22.2435L188.747 27.6146L197.262 32.8594L205.776 38.1041L209.085 32.7331L200.57 27.4883ZM197.262 32.8594L200.206 23.3026C199.277 23.0166 198.697 22.6575 198.31 22.3354C197.916 22.0078 197.559 21.5818 197.239 20.9934L188.453 25.7695L179.667 30.5457C182.6 35.9405 187.458 40.3029 194.317 42.4161L197.262 32.8594ZM188.453 25.7695L179.405 21.5116C178.802 22.7935 177.902 23.7473 176.09 24.3344L179.172 33.8477L182.254 43.3609C189.594 40.9831 194.667 36.0503 197.501 30.0275L188.453 25.7695ZM179.172 33.8477L187.543 28.3769L183.976 22.9199L175.605 28.3906L167.235 33.8613L170.801 39.3184L179.172 33.8477ZM175.605 28.3906L178.642 37.9186C189.298 34.523 193.935 26.2539 194.707 18.6105L184.758 17.6055L174.808 16.6005C174.742 17.2589 174.559 17.6219 174.413 17.8144C174.324 17.9335 173.94 18.4258 172.569 18.8626L175.605 28.3906ZM184.758 17.6055V7.60547H177.539V17.6055V27.6055H184.758V17.6055ZM177.539 17.6055H187.539V12.1055H177.539L167.539 12.1055V17.6055H177.539ZM177.539 12.1055V22.1055H199.152V12.1055V2.10547L177.539 2.10547V12.1055ZM245.859 10H255.859C255.859 4.47715 251.382 0 245.859 0V10ZM245.859 25.082H235.859C235.859 30.6049 240.337 35.082 245.859 35.082V25.082ZM251.23 25.082H261.23C261.23 19.5592 256.753 15.082 251.23 15.082V25.082ZM251.23 30.7109V40.7109C256.753 40.7109 261.23 36.2338 261.23 30.7109H251.23ZM245.859 30.7109V20.7109C240.337 20.7109 235.859 25.1881 235.859 30.7109H245.859ZM245.859 49.7461V59.7461C251.382 59.7461 255.859 55.2689 255.859 49.7461H245.859ZM239.027 49.7461H229.027C229.027 55.2689 233.505 59.7461 239.027 59.7461V49.7461ZM239.027 10V0C233.505 0 229.027 4.47715 229.027 10L239.027 10ZM237.094 15.6719H247.094C247.094 10.149 242.617 5.67187 237.094 5.67187V15.6719ZM237.094 21.1289V31.1289C242.617 31.1289 247.094 26.6518 247.094 21.1289H237.094ZM213.934 21.1289L203.934 21.1289C203.934 26.6518 208.411 31.1289 213.934 31.1289V21.1289ZM213.934 15.6719V5.67187C208.411 5.67187 203.934 10.149 203.934 15.6719L213.934 15.6719ZM222.141 15.6719V25.6719C227.663 25.6719 232.141 21.1947 232.141 15.6719H222.141ZM222.141 10.7305V0.730469C216.618 0.730469 212.141 5.20762 212.141 10.7305H222.141ZM229.016 10.7305L239.016 10.7305C239.016 5.20762 234.538 0.730469 229.016 0.730469V10.7305ZM229.016 15.6719H219.016C219.016 21.1947 223.493 25.6719 229.016 25.6719V15.6719ZM221.754 32.3437L231.753 32.4976C231.754 32.3926 231.754 32.2875 231.753 32.1825L221.754 32.3437ZM245.859 10L235.859 10V25.082H245.859H255.859V10H245.859ZM245.859 25.082V35.082H251.23V25.082V15.082H245.859V25.082ZM251.23 25.082H241.23V30.7109H251.23H261.23V25.082H251.23ZM251.23 30.7109V20.7109H245.859V30.7109V40.7109H251.23V30.7109ZM245.859 30.7109H235.859V49.7461H245.859H255.859V30.7109H245.859ZM245.859 49.7461V39.7461H239.027V49.7461V59.7461H245.859V49.7461ZM239.027 49.7461H249.027V10H239.027L229.027 10V49.7461H239.027ZM239.027 10V20H245.859V10V0L239.027 0V10ZM237.094 15.6719H227.094V21.1289H237.094H247.094V15.6719H237.094ZM237.094 21.1289V11.1289H213.934V21.1289V31.1289H237.094V21.1289ZM213.934 21.1289H223.934V15.6719H213.934L203.934 15.6719V21.1289L213.934 21.1289ZM213.934 15.6719V25.6719H222.141V15.6719V5.67187H213.934V15.6719ZM222.141 15.6719H232.141V10.7305H222.141H212.141V15.6719H222.141ZM222.141 10.7305V20.7305H229.016V10.7305V0.730469H222.141V10.7305ZM229.016 10.7305H219.016V15.6719H229.016H239.016V10.7305L229.016 10.7305ZM229.016 15.6719V25.6719H237.094V15.6719V5.67187H229.016V15.6719ZM225.578 22.6758V32.6758C225.904 32.6758 226.103 32.7311 226.191 32.7641C226.28 32.7974 226.274 32.8128 226.217 32.7608C226.157 32.7055 226.081 32.6106 226.027 32.4862C225.97 32.3569 225.977 32.29 225.977 32.3437H235.977H245.977C245.977 20.4166 236.179 12.6758 225.578 12.6758V22.6758ZM235.977 32.3437H225.977C225.977 32.4188 225.966 32.3657 226.019 32.2435C226.071 32.1256 226.144 32.0317 226.206 31.9749C226.264 31.9214 226.273 31.9351 226.187 31.9673C226.101 31.9994 225.904 32.0547 225.578 32.0547V42.0547V52.0547C236.21 52.0547 245.977 44.2857 245.977 32.3437H235.977ZM225.578 42.0547V32.0547C225.195 32.0547 224.973 31.9911 224.884 31.9582C224.796 31.9257 224.818 31.9166 224.891 31.9846C224.969 32.056 225.048 32.1625 225.1 32.2831C225.153 32.4057 225.137 32.4461 225.137 32.3437H215.137H205.137C205.137 44.2597 214.79 52.0547 225.578 52.0547V42.0547ZM215.137 32.3437H225.137C225.137 32.2625 225.149 32.3167 225.093 32.4465C225.037 32.5737 224.956 32.6813 224.88 32.751C224.808 32.8175 224.789 32.8068 224.88 32.7732C224.971 32.7394 225.195 32.6758 225.578 32.6758V22.6758V12.6758C214.82 12.6758 205.137 20.4426 205.137 32.3437H215.137ZM225.578 28.2187V18.2187C222.264 18.2187 218.543 19.3418 215.659 22.2942C212.755 25.2668 211.7 29.0654 211.755 32.505L221.754 32.3437L231.753 32.1825C231.765 32.958 231.505 34.6941 229.965 36.2703C228.445 37.8262 226.658 38.2187 225.578 38.2187V28.2187ZM221.754 32.3437L211.755 32.1899C211.703 35.5736 212.691 39.4751 215.741 42.5247C218.743 45.5265 222.511 46.4687 225.578 46.4687V36.4687V26.4687C226.411 26.4687 228.246 26.745 229.883 28.3825C231.568 30.0678 231.762 31.9069 231.753 32.4976L221.754 32.3437ZM225.578 36.4687V46.4687C228.692 46.4687 232.448 45.4854 235.417 42.4683C238.39 39.448 239.359 35.6263 239.359 32.3437H229.359H219.359C219.359 31.8542 219.534 30.095 221.164 28.4389C222.79 26.7861 224.656 26.4687 225.578 26.4687V36.4687ZM229.359 32.3437H239.359C239.359 29.0131 238.33 25.2955 235.499 22.3511C232.65 19.3886 228.942 18.2187 225.578 18.2187V28.2187V38.2187C224.406 38.2187 222.588 37.7793 221.082 36.2133C219.594 34.6654 219.359 33.0104 219.359 32.3437H229.359ZM284.531 20.0977H294.531C294.531 14.5748 290.054 10.0977 284.531 10.0977V20.0977ZM284.531 25.4258V35.4258C290.054 35.4258 294.531 30.9486 294.531 25.4258H284.531ZM256.43 25.4258H246.43C246.43 30.9486 250.907 35.4258 256.43 35.4258V25.4258ZM256.43 11.418V1.41797C250.907 1.41797 246.43 5.89512 246.43 11.418H256.43ZM263.305 11.418H273.305C273.305 5.89512 268.828 1.41797 263.305 1.41797V11.418ZM263.305 20.0977H253.305C253.305 25.6205 257.782 30.0977 263.305 30.0977V20.0977ZM288.441 28.9492H298.441C298.441 23.4264 293.964 18.9492 288.441 18.9492V28.9492ZM288.441 34.2773V44.2773C293.964 44.2773 298.441 39.8002 298.441 34.2773H288.441ZM252.176 34.2773H242.176C242.176 39.8002 246.653 44.2773 252.176 44.2773V34.2773ZM252.176 28.9492V18.9492C246.653 18.9492 242.176 23.4264 242.176 28.9492H252.176ZM284.789 43.4727H294.789C294.789 37.9498 290.312 33.4727 284.789 33.4727V43.4727ZM284.789 48.9727V58.9727C290.312 58.9727 294.789 54.4955 294.789 48.9727H284.789ZM255.957 48.9727H245.957C245.957 54.4955 250.434 58.9727 255.957 58.9727V48.9727ZM255.957 37.0273V27.0273C250.434 27.0273 245.957 31.5045 245.957 37.0273H255.957ZM262.918 37.0273H272.918C272.918 31.5045 268.441 27.0273 262.918 27.0273V37.0273ZM262.918 43.4727H252.918C252.918 48.9955 257.395 53.4727 262.918 53.4727V43.4727ZM284.531 20.0977H274.531V25.4258H284.531H294.531V20.0977H284.531ZM284.531 25.4258V15.4258H256.43V25.4258V35.4258H284.531V25.4258ZM256.43 25.4258H266.43V11.418H256.43H246.43V25.4258H256.43ZM256.43 11.418V21.418H263.305V11.418V1.41797H256.43V11.418ZM263.305 11.418H253.305V20.0977H263.305H273.305V11.418H263.305ZM263.305 20.0977V30.0977H284.531V20.0977V10.0977H263.305V20.0977ZM288.441 28.9492H278.441V34.2773H288.441H298.441V28.9492H288.441ZM288.441 34.2773V24.2773H252.176V34.2773V44.2773H288.441V34.2773ZM252.176 34.2773H262.176V28.9492H252.176H242.176V34.2773H252.176ZM252.176 28.9492V38.9492H288.441V28.9492V18.9492H252.176V28.9492ZM284.789 43.4727H274.789V48.9727H284.789H294.789V43.4727H284.789ZM284.789 48.9727V38.9727H255.957V48.9727V58.9727H284.789V48.9727ZM255.957 48.9727H265.957V37.0273H255.957H245.957V48.9727H255.957ZM255.957 37.0273V47.0273H262.918V37.0273V27.0273H255.957V37.0273ZM262.918 37.0273H252.918V43.4727H262.918H272.918V37.0273H262.918ZM262.918 43.4727V53.4727H284.789V43.4727V33.4727H262.918V43.4727Z" fill="white" mask="url(#path-1-outside-1_6524_1771)"/>
</g>
<defs>
<filter id="filter0_d_6524_1771" x="0" y="0" width="302.441" height="67.875" filterUnits="userSpaceOnUse" color-interpolation-filters="sRGB">
<feFlood flood-opacity="0" result="BackgroundImageFix"/>
<feColorMatrix in="SourceAlpha" type="matrix" values="0 0 0 0 0 0 0 0 0 0 0 0 0 0 0 0 0 0 127 0" result="hardAlpha"/>
<feOffset dy="4"/>
<feGaussianBlur stdDeviation="2"/>
<feComposite in2="hardAlpha" operator="out"/>
<feColorMatrix type="matrix" values="0 0 0 0 0 0 0 0 0 0 0 0 0 0 0 0 0 0 0.07 0"/>
<feBlend mode="normal" in2="BackgroundImageFix" result="effect1_dropShadow_6524_1771"/>
<feBlend mode="normal" in="SourceGraphic" in2="effect1_dropShadow_6524_1771" result="shape"/>
</filter>
</defs>
</svg>
