<svg width="351" height="68" viewBox="0 0 351 68" fill="none" xmlns="http://www.w3.org/2000/svg">
<g filter="url(#filter0_d_6524_1824)">
<mask id="path-1-outside-1_6524_1824" maskUnits="userSpaceOnUse" x="3.52734" y="-0.507813" width="343" height="61" fill="black">
<rect fill="white" x="3.52734" y="-0.507813" width="343" height="61"/>
<path d="M46.2266 10V17.2617H51.168V22.9766H46.2266V29.6367H39.3086V10L46.2266 10ZM35.3125 11.2031C35.3125 22.2031 28.8242 28.5195 16.5352 30.7969L14 25.168C23.002 23.6641 26.8262 20.2051 27.5352 16.6602H16.1914V11.2031H35.3125ZM46.2266 31.0117V42.6992H26.0742V43.9453H47.1719V49.3594H19.2422V37.6289H39.3516V36.4258H19.2422V31.0117H46.2266ZM88.8086 27.7461V33.2891H52.457V27.7461L88.8086 27.7461ZM84.7266 20.1836V25.5977L56.7539 25.5977V10.7734H84.5547V16.2305L63.5859 16.2305V20.1836L84.7266 20.1836ZM70.5039 35.0078C79.1836 34.9648 84.3828 37.6289 84.4258 42.3555C84.3828 47.125 79.1836 49.832 70.5039 49.832C61.7383 49.832 56.4531 47.125 56.4531 42.3555C56.4531 37.6289 61.7383 34.9648 70.5039 35.0078ZM70.5039 40.1641C65.5625 40.1641 63.457 40.8516 63.5 42.3555C63.457 44.0312 65.5625 44.6328 70.5039 44.6328C75.3164 44.6328 77.5078 44.0312 77.5078 42.3555C77.5078 40.8516 75.3164 40.1641 70.5039 40.1641ZM108.617 10.5156C117.941 10.5156 123.27 12.8789 123.312 17.2187C123.27 21.6016 117.941 23.9648 108.617 23.9648C99.25 23.9648 93.8359 21.6016 93.8789 17.2187C93.8359 12.8789 99.25 10.5156 108.617 10.5156ZM108.617 15.5C103.246 15.5 101.098 16.0156 101.098 17.2187C101.098 18.6797 103.246 18.9375 108.617 18.9805C114.031 18.9375 116.18 18.6797 116.18 17.2187C116.18 16.0156 114.031 15.5 108.617 15.5ZM126.75 25.2969V30.7539H90.4844V25.2969H126.75ZM122.453 32.2578V43.2148H101.27V44.5039H123.398V49.5742H94.5234V38.4883H115.664V37.2852H94.5664V32.2578H122.453ZM160.008 13.6094C159.965 26.3281 157.086 36.5977 141.746 44.2031L138.137 38.918C144.088 35.9531 147.869 32.7734 150.168 28.9062L139.297 29.8516L138.566 24.0937L152.445 23.3633C152.768 22.0098 153.004 20.5918 153.176 19.0664H140.672V13.6094H160.008ZM171.824 10V49.7461H164.82V10H171.824ZM212.387 31.9141V37.457H197.52V49.832H190.688V37.457H176.121V31.9141H212.387ZM194.125 11.2031C202.762 11.1602 208.949 14.7695 208.949 20.3984C208.949 25.8555 202.762 29.3789 194.125 29.3789C185.488 29.3789 179.387 25.8555 179.43 20.3984C179.387 14.7695 185.488 11.1602 194.125 11.2031ZM194.125 16.6602C189.355 16.6602 186.52 17.8633 186.52 20.3984C186.52 22.7617 189.355 23.9648 194.125 23.9648C198.98 23.9648 201.773 22.7617 201.773 20.3984C201.773 17.8633 198.98 16.6602 194.125 16.6602ZM230.262 19.9687C230.262 26.1992 232.582 33.0742 239.758 35.9961L236.105 41.3672C231.551 39.498 228.607 36.0176 226.91 31.7422C225.17 36.4902 222.184 40.3574 217.543 42.3984L213.676 36.9844C220.809 33.8906 223.215 26.6289 223.215 19.9687V19.2812H215.395V13.6953H237.867V19.2812H230.262V19.9687ZM247.707 10V49.7461H240.746V10H247.707ZM272.629 11.7187C278.859 11.7187 283.5 15.6289 283.5 21C283.5 26.5 278.859 30.4102 272.629 30.4102C266.484 30.4102 261.715 26.5 261.715 21C261.715 15.6289 266.484 11.7187 272.629 11.7187ZM272.629 17.3477C270.223 17.3477 268.375 18.5937 268.418 21C268.375 23.4922 270.223 24.7812 272.629 24.8242C275.035 24.7812 276.797 23.4922 276.84 21C276.797 18.5937 275.035 17.3477 272.629 17.3477ZM293.555 10V17.8633H298.496V23.4922H293.555V29.5078H286.637V10H293.555ZM271.641 33.0312V43.0859C273.553 42.957 275.121 42.6562 276.754 42.1406L277.699 47.4258C274.691 48.5859 271.855 48.7148 267.301 48.7148H264.895V33.0312H271.641ZM296.305 32.9883V37.9297H276.367V32.9883H283.07V30.625H289.73V32.9883H296.305ZM286.293 38.5742C290.934 38.6172 294.156 40.8086 294.199 44.2461C294.156 47.6836 290.934 49.832 286.293 49.832C281.566 49.832 278.43 47.6836 278.43 44.2461C278.43 40.8086 281.566 38.6172 286.293 38.5742ZM286.293 43.3008C285.305 43.3008 284.531 43.5156 284.531 44.2461C284.531 44.9766 285.305 45.1914 286.293 45.1914C287.281 45.1914 288.055 44.9766 288.055 44.2461C288.055 43.5156 287.281 43.3008 286.293 43.3008ZM332.141 20.0977V25.4258H304.039V11.418H310.914V20.0977H332.141ZM336.051 28.9492V34.2773H299.785V28.9492H336.051ZM332.398 43.4727V48.9727H303.566V37.0273H310.527V43.4727H332.398Z"/>
</mask>
<path d="M46.2266 10V17.2617H51.168V22.9766H46.2266V29.6367H39.3086V10L46.2266 10ZM35.3125 11.2031C35.3125 22.2031 28.8242 28.5195 16.5352 30.7969L14 25.168C23.002 23.6641 26.8262 20.2051 27.5352 16.6602H16.1914V11.2031H35.3125ZM46.2266 31.0117V42.6992H26.0742V43.9453H47.1719V49.3594H19.2422V37.6289H39.3516V36.4258H19.2422V31.0117H46.2266ZM88.8086 27.7461V33.2891H52.457V27.7461L88.8086 27.7461ZM84.7266 20.1836V25.5977L56.7539 25.5977V10.7734H84.5547V16.2305L63.5859 16.2305V20.1836L84.7266 20.1836ZM70.5039 35.0078C79.1836 34.9648 84.3828 37.6289 84.4258 42.3555C84.3828 47.125 79.1836 49.832 70.5039 49.832C61.7383 49.832 56.4531 47.125 56.4531 42.3555C56.4531 37.6289 61.7383 34.9648 70.5039 35.0078ZM70.5039 40.1641C65.5625 40.1641 63.457 40.8516 63.5 42.3555C63.457 44.0312 65.5625 44.6328 70.5039 44.6328C75.3164 44.6328 77.5078 44.0312 77.5078 42.3555C77.5078 40.8516 75.3164 40.1641 70.5039 40.1641ZM108.617 10.5156C117.941 10.5156 123.27 12.8789 123.312 17.2187C123.27 21.6016 117.941 23.9648 108.617 23.9648C99.25 23.9648 93.8359 21.6016 93.8789 17.2187C93.8359 12.8789 99.25 10.5156 108.617 10.5156ZM108.617 15.5C103.246 15.5 101.098 16.0156 101.098 17.2187C101.098 18.6797 103.246 18.9375 108.617 18.9805C114.031 18.9375 116.18 18.6797 116.18 17.2187C116.18 16.0156 114.031 15.5 108.617 15.5ZM126.75 25.2969V30.7539H90.4844V25.2969H126.75ZM122.453 32.2578V43.2148H101.27V44.5039H123.398V49.5742H94.5234V38.4883H115.664V37.2852H94.5664V32.2578H122.453ZM160.008 13.6094C159.965 26.3281 157.086 36.5977 141.746 44.2031L138.137 38.918C144.088 35.9531 147.869 32.7734 150.168 28.9062L139.297 29.8516L138.566 24.0937L152.445 23.3633C152.768 22.0098 153.004 20.5918 153.176 19.0664H140.672V13.6094H160.008ZM171.824 10V49.7461H164.82V10H171.824ZM212.387 31.9141V37.457H197.52V49.832H190.688V37.457H176.121V31.9141H212.387ZM194.125 11.2031C202.762 11.1602 208.949 14.7695 208.949 20.3984C208.949 25.8555 202.762 29.3789 194.125 29.3789C185.488 29.3789 179.387 25.8555 179.43 20.3984C179.387 14.7695 185.488 11.1602 194.125 11.2031ZM194.125 16.6602C189.355 16.6602 186.52 17.8633 186.52 20.3984C186.52 22.7617 189.355 23.9648 194.125 23.9648C198.98 23.9648 201.773 22.7617 201.773 20.3984C201.773 17.8633 198.98 16.6602 194.125 16.6602ZM230.262 19.9687C230.262 26.1992 232.582 33.0742 239.758 35.9961L236.105 41.3672C231.551 39.498 228.607 36.0176 226.91 31.7422C225.17 36.4902 222.184 40.3574 217.543 42.3984L213.676 36.9844C220.809 33.8906 223.215 26.6289 223.215 19.9687V19.2812H215.395V13.6953H237.867V19.2812H230.262V19.9687ZM247.707 10V49.7461H240.746V10H247.707ZM272.629 11.7187C278.859 11.7187 283.5 15.6289 283.5 21C283.5 26.5 278.859 30.4102 272.629 30.4102C266.484 30.4102 261.715 26.5 261.715 21C261.715 15.6289 266.484 11.7187 272.629 11.7187ZM272.629 17.3477C270.223 17.3477 268.375 18.5937 268.418 21C268.375 23.4922 270.223 24.7812 272.629 24.8242C275.035 24.7812 276.797 23.4922 276.84 21C276.797 18.5937 275.035 17.3477 272.629 17.3477ZM293.555 10V17.8633H298.496V23.4922H293.555V29.5078H286.637V10H293.555ZM271.641 33.0312V43.0859C273.553 42.957 275.121 42.6562 276.754 42.1406L277.699 47.4258C274.691 48.5859 271.855 48.7148 267.301 48.7148H264.895V33.0312H271.641ZM296.305 32.9883V37.9297H276.367V32.9883H283.07V30.625H289.73V32.9883H296.305ZM286.293 38.5742C290.934 38.6172 294.156 40.8086 294.199 44.2461C294.156 47.6836 290.934 49.832 286.293 49.832C281.566 49.832 278.43 47.6836 278.43 44.2461C278.43 40.8086 281.566 38.6172 286.293 38.5742ZM286.293 43.3008C285.305 43.3008 284.531 43.5156 284.531 44.2461C284.531 44.9766 285.305 45.1914 286.293 45.1914C287.281 45.1914 288.055 44.9766 288.055 44.2461C288.055 43.5156 287.281 43.3008 286.293 43.3008ZM332.141 20.0977V25.4258H304.039V11.418H310.914V20.0977H332.141ZM336.051 28.9492V34.2773H299.785V28.9492H336.051ZM332.398 43.4727V48.9727H303.566V37.0273H310.527V43.4727H332.398Z" fill="#11DCA9"/>
<path d="M46.2266 10H56.2266C56.2266 4.47715 51.7494 0 46.2266 0V10ZM46.2266 17.2617H36.2266C36.2266 22.7846 40.7037 27.2617 46.2266 27.2617V17.2617ZM51.168 17.2617H61.168C61.168 11.7389 56.6908 7.26172 51.168 7.26172V17.2617ZM51.168 22.9766V32.9766C56.6908 32.9766 61.168 28.4994 61.168 22.9766H51.168ZM46.2266 22.9766V12.9766C40.7037 12.9766 36.2266 17.4537 36.2266 22.9766H46.2266ZM46.2266 29.6367V39.6367C51.7494 39.6367 56.2266 35.1596 56.2266 29.6367H46.2266ZM39.3086 29.6367H29.3086C29.3086 35.1596 33.7857 39.6367 39.3086 39.6367V29.6367ZM39.3086 10V0C33.7857 0 29.3086 4.47715 29.3086 10H39.3086ZM35.3125 11.2031H45.3125C45.3125 5.68028 40.8353 1.20312 35.3125 1.20312V11.2031ZM16.5352 30.7969L7.41724 34.9034C9.30933 39.1045 13.8269 41.469 18.3573 40.6295L16.5352 30.7969ZM14 25.168L12.3522 15.3047C9.29301 15.8157 6.64414 17.7174 5.18159 20.4525C3.71905 23.1876 3.60841 26.4465 4.88209 29.2745L14 25.168ZM27.5352 16.6602L37.341 18.6213C37.9285 15.6836 37.168 12.6371 35.2686 10.3203C33.3692 8.00339 30.5311 6.66016 27.5352 6.66016V16.6602ZM16.1914 16.6602H6.19141C6.19141 22.183 10.6686 26.6602 16.1914 26.6602V16.6602ZM16.1914 11.2031V1.20312C10.6686 1.20312 6.19141 5.68028 6.19141 11.2031H16.1914ZM46.2266 31.0117H56.2266C56.2266 25.4889 51.7494 21.0117 46.2266 21.0117V31.0117ZM46.2266 42.6992V52.6992C51.7494 52.6992 56.2266 48.2221 56.2266 42.6992H46.2266ZM26.0742 42.6992V32.6992C20.5514 32.6992 16.0742 37.1764 16.0742 42.6992H26.0742ZM26.0742 43.9453H16.0742C16.0742 49.4682 20.5514 53.9453 26.0742 53.9453V43.9453ZM47.1719 43.9453H57.1719C57.1719 38.4225 52.6947 33.9453 47.1719 33.9453V43.9453ZM47.1719 49.3594V59.3594C52.6947 59.3594 57.1719 54.8822 57.1719 49.3594H47.1719ZM19.2422 49.3594H9.24219C9.24219 54.8822 13.7193 59.3594 19.2422 59.3594V49.3594ZM19.2422 37.6289V27.6289C13.7193 27.6289 9.24219 32.1061 9.24219 37.6289H19.2422ZM39.3516 37.6289V47.6289C44.8744 47.6289 49.3516 43.1518 49.3516 37.6289H39.3516ZM39.3516 36.4258H49.3516C49.3516 30.9029 44.8744 26.4258 39.3516 26.4258V36.4258ZM19.2422 36.4258H9.24219C9.24219 41.9486 13.7193 46.4258 19.2422 46.4258V36.4258ZM19.2422 31.0117V21.0117C13.7193 21.0117 9.24219 25.4889 9.24219 31.0117H19.2422ZM46.2266 10L36.2266 10V17.2617H46.2266H56.2266V10H46.2266ZM46.2266 17.2617V27.2617H51.168V17.2617V7.26172H46.2266V17.2617ZM51.168 17.2617H41.168V22.9766H51.168H61.168V17.2617H51.168ZM51.168 22.9766V12.9766H46.2266V22.9766V32.9766H51.168V22.9766ZM46.2266 22.9766H36.2266V29.6367H46.2266H56.2266V22.9766H46.2266ZM46.2266 29.6367V19.6367H39.3086V29.6367V39.6367H46.2266V29.6367ZM39.3086 29.6367H49.3086V10L39.3086 10H29.3086V29.6367H39.3086ZM39.3086 10V20H46.2266V10V0H39.3086V10ZM35.3125 11.2031H25.3125C25.3125 14.6008 24.3845 16.2519 23.3727 17.2895C22.1558 18.5375 19.6663 20.0464 14.713 20.9643L16.5352 30.7969L18.3573 40.6295C25.6931 39.27 32.5923 36.4821 37.6918 31.2525C42.9964 25.8126 45.3125 18.8055 45.3125 11.2031H35.3125ZM16.5352 30.7969L25.6531 26.6903L23.1179 21.0614L14 25.168L4.88209 29.2745L7.41724 34.9034L16.5352 30.7969ZM14 25.168L15.6478 35.0313C25.7893 33.337 35.356 28.5461 37.341 18.6213L27.5352 16.6602L17.7293 14.699C17.9751 13.4703 18.6458 13.1401 18.2018 13.4462C17.6268 13.8426 15.9581 14.7022 12.3522 15.3047L14 25.168ZM27.5352 16.6602V6.66016H16.1914V16.6602V26.6602H27.5352V16.6602ZM16.1914 16.6602H26.1914V11.2031H16.1914H6.19141L6.19141 16.6602H16.1914ZM16.1914 11.2031V21.2031H35.3125V11.2031V1.20312L16.1914 1.20312V11.2031ZM46.2266 31.0117H36.2266V42.6992H46.2266H56.2266V31.0117H46.2266ZM46.2266 42.6992V32.6992H26.0742V42.6992V52.6992H46.2266V42.6992ZM26.0742 42.6992H16.0742V43.9453H26.0742H36.0742V42.6992H26.0742ZM26.0742 43.9453V53.9453H47.1719V43.9453V33.9453H26.0742V43.9453ZM47.1719 43.9453H37.1719V49.3594H47.1719H57.1719V43.9453H47.1719ZM47.1719 49.3594V39.3594H19.2422V49.3594V59.3594H47.1719V49.3594ZM19.2422 49.3594H29.2422V37.6289H19.2422H9.24219L9.24219 49.3594H19.2422ZM19.2422 37.6289V47.6289H39.3516V37.6289V27.6289H19.2422V37.6289ZM39.3516 37.6289H49.3516V36.4258H39.3516H29.3516V37.6289H39.3516ZM39.3516 36.4258V26.4258H19.2422V36.4258V46.4258H39.3516V36.4258ZM19.2422 36.4258H29.2422V31.0117H19.2422H9.24219V36.4258H19.2422ZM19.2422 31.0117V41.0117H46.2266V31.0117V21.0117H19.2422V31.0117ZM88.8086 27.7461H98.8086C98.8086 22.2232 94.3314 17.7461 88.8086 17.7461V27.7461ZM88.8086 33.2891V43.2891C94.3314 43.2891 98.8086 38.8119 98.8086 33.2891H88.8086ZM52.457 33.2891H42.457C42.457 38.8119 46.9342 43.2891 52.457 43.2891V33.2891ZM52.457 27.7461V17.7461C46.9342 17.7461 42.457 22.2232 42.457 27.7461H52.457ZM84.7266 20.1836H94.7266C94.7266 14.6607 90.2494 10.1836 84.7266 10.1836V20.1836ZM84.7266 25.5977V35.5977C90.2494 35.5977 94.7266 31.1205 94.7266 25.5977H84.7266ZM56.7539 25.5977H46.7539C46.7539 31.1205 51.2311 35.5977 56.7539 35.5977V25.5977ZM56.7539 10.7734V0.773437C51.2311 0.773437 46.7539 5.25059 46.7539 10.7734H56.7539ZM84.5547 10.7734H94.5547C94.5547 5.25059 90.0775 0.773437 84.5547 0.773437V10.7734ZM84.5547 16.2305V26.2305C90.0775 26.2305 94.5547 21.7533 94.5547 16.2305H84.5547ZM63.5859 16.2305V6.23047C58.0631 6.23047 53.5859 10.7076 53.5859 16.2305H63.5859ZM63.5859 20.1836H53.5859C53.5859 25.7064 58.0631 30.1836 63.5859 30.1836V20.1836ZM70.5039 35.0078L70.4549 45.0077C70.4877 45.0079 70.5206 45.0079 70.5534 45.0077L70.5039 35.0078ZM84.4258 42.3555L94.4254 42.4456C94.4259 42.3852 94.4259 42.3249 94.4254 42.2646L84.4258 42.3555ZM63.5 42.3555L73.4967 42.6118C73.5013 42.4312 73.5011 42.2505 73.4959 42.0699L63.5 42.3555ZM88.8086 27.7461H78.8086V33.2891H88.8086H98.8086V27.7461H88.8086ZM88.8086 33.2891V23.2891L52.457 23.2891V33.2891V43.2891H88.8086V33.2891ZM52.457 33.2891H62.457V27.7461H52.457H42.457V33.2891H52.457ZM52.457 27.7461V37.7461H88.8086V27.7461V17.7461L52.457 17.7461V27.7461ZM84.7266 20.1836L74.7266 20.1836V25.5977L84.7266 25.5977H94.7266V20.1836H84.7266ZM84.7266 25.5977V15.5977L56.7539 15.5977V25.5977V35.5977H84.7266V25.5977ZM56.7539 25.5977H66.7539V10.7734H56.7539H46.7539V25.5977H56.7539ZM56.7539 10.7734V20.7734L84.5547 20.7734V10.7734V0.773437L56.7539 0.773437V10.7734ZM84.5547 10.7734H74.5547V16.2305L84.5547 16.2305H94.5547V10.7734H84.5547ZM84.5547 16.2305V6.23047H63.5859V16.2305V26.2305L84.5547 26.2305V16.2305ZM63.5859 16.2305H53.5859V20.1836H63.5859H73.5859V16.2305H63.5859ZM63.5859 20.1836V30.1836H84.7266V20.1836V10.1836H63.5859V20.1836ZM70.5039 35.0078L70.5534 45.0077C72.2266 44.9994 73.536 45.1241 74.5076 45.3047C75.4994 45.489 75.9629 45.6987 76.065 45.7522C76.1529 45.7982 75.7016 45.583 75.2162 44.878C74.6781 44.0964 74.433 43.1937 74.4262 42.4464L84.4258 42.3555L94.4254 42.2646C94.3631 35.4102 90.2202 30.5881 85.3422 28.034C80.9114 25.714 75.5888 24.9825 70.4544 25.0079L70.5039 35.0078ZM84.4258 42.3555L74.4262 42.2654C74.4326 41.5485 74.6661 40.6734 75.1855 39.9101C75.6549 39.2202 76.0919 39.0087 76.0029 39.056C75.8986 39.1116 75.4359 39.3243 74.448 39.5142C73.4795 39.7003 72.1737 39.832 70.5039 39.832V49.832V59.832C75.6469 59.832 80.9752 59.0675 85.4044 56.7086C90.2806 54.1116 94.3639 49.2679 94.4254 42.4456L84.4258 42.3555ZM70.5039 49.832V39.832C68.8076 39.832 67.4731 39.6995 66.4769 39.5102C65.46 39.3171 64.9731 39.0986 64.8513 39.0344C64.7418 38.9768 65.1868 39.1841 65.6694 39.8896C66.2078 40.6766 66.4531 41.5922 66.4531 42.3555H56.4531H46.4531C46.4531 49.2966 50.6517 54.1602 55.5315 56.7302C59.9755 59.0707 65.3302 59.832 70.5039 59.832V49.832ZM56.4531 42.3555H66.4531C66.4531 43.1498 66.1958 44.0932 65.6385 44.8985C65.1399 45.6189 64.6807 45.8296 64.7894 45.7733C64.9093 45.7112 65.3972 45.496 66.4178 45.3084C67.4172 45.1247 68.7553 44.9994 70.4549 45.0077L70.5039 35.0078L70.5529 25.0079C65.3875 24.9826 60.0387 25.7112 55.5934 28.0128C50.7135 30.5395 46.4531 35.3809 46.4531 42.3555H56.4531ZM70.5039 40.1641V30.1641C67.8797 30.1641 64.8116 30.3098 62.1193 31.1607C60.735 31.5982 58.5858 32.4819 56.715 34.4041C54.5437 36.6352 53.4168 39.5862 53.5041 42.6411L63.5 42.3555L73.4959 42.0699C73.5249 43.0842 73.373 44.2497 72.9093 45.4454C72.445 46.6427 71.7674 47.6136 71.0477 48.3531C69.7141 49.7234 68.392 50.1533 68.1463 50.2309C67.8145 50.3358 67.7924 50.2968 68.3005 50.2467C68.766 50.2008 69.4777 50.1641 70.5039 50.1641V40.1641ZM63.5 42.3555L53.5033 42.0991C53.4321 44.8767 54.3409 47.8168 56.5204 50.187C58.4269 52.2604 60.671 53.2 62.1193 53.6577C64.8596 54.5237 67.9902 54.6328 70.5039 54.6328V44.6328V34.6328C69.4445 34.6328 68.718 34.5994 68.2411 34.5553C67.7155 34.5066 67.7705 34.4686 68.1463 34.5874C68.4559 34.6853 69.8729 35.1603 71.2423 36.6495C72.8847 38.4356 73.5464 40.6721 73.4967 42.6118L63.5 42.3555ZM70.5039 44.6328V54.6328C72.9863 54.6328 76.0744 54.5186 78.7984 53.6658C80.2293 53.2178 82.4109 52.3138 84.3008 50.347C86.461 48.0989 87.5078 45.225 87.5078 42.3555H77.5078H67.5078C67.5078 40.3238 68.2807 38.1535 69.8797 36.4895C71.2082 35.1069 72.5412 34.6675 72.8227 34.5793C73.1707 34.4704 73.2078 34.5083 72.6965 34.5562C72.23 34.5998 71.5243 34.6328 70.5039 34.6328V44.6328ZM77.5078 42.3555H87.5078C87.5078 39.2149 86.2339 36.3449 84.1013 34.2481C82.2533 32.431 80.1677 31.5813 78.7984 31.1526C76.1238 30.3152 73.097 30.1641 70.5039 30.1641V40.1641V50.1641C71.4903 50.1641 72.1811 50.2003 72.6365 50.2457C73.1311 50.295 73.1265 50.3341 72.8227 50.239C72.6028 50.1702 71.3659 49.7743 70.0791 48.5091C69.3842 47.8259 68.6985 46.9089 68.2042 45.7487C67.7074 44.5825 67.5078 43.4133 67.5078 42.3555H77.5078ZM123.312 17.2187L133.312 17.3168C133.313 17.2511 133.313 17.1854 133.312 17.1197L123.312 17.2187ZM93.8789 17.2187L103.878 17.3168C103.879 17.2511 103.879 17.1854 103.878 17.1197L93.8789 17.2187ZM108.617 18.9805L108.537 28.9801C108.59 28.9806 108.643 28.9806 108.697 28.9802L108.617 18.9805ZM126.75 25.2969H136.75C136.75 19.774 132.273 15.2969 126.75 15.2969V25.2969ZM126.75 30.7539V40.7539C132.273 40.7539 136.75 36.2768 136.75 30.7539H126.75ZM90.4844 30.7539H80.4844C80.4844 36.2768 84.9615 40.7539 90.4844 40.7539V30.7539ZM90.4844 25.2969V15.2969C84.9615 15.2969 80.4844 19.774 80.4844 25.2969H90.4844ZM122.453 32.2578H132.453C132.453 26.735 127.976 22.2578 122.453 22.2578V32.2578ZM122.453 43.2148V53.2148C127.976 53.2148 132.453 48.7377 132.453 43.2148H122.453ZM101.27 43.2148V33.2148C95.7467 33.2148 91.2695 37.692 91.2695 43.2148H101.27ZM101.27 44.5039H91.2695C91.2695 50.0268 95.7467 54.5039 101.27 54.5039V44.5039ZM123.398 44.5039H133.398C133.398 38.9811 128.921 34.5039 123.398 34.5039V44.5039ZM123.398 49.5742V59.5742C128.921 59.5742 133.398 55.0971 133.398 49.5742H123.398ZM94.5234 49.5742H84.5234C84.5234 55.0971 89.0006 59.5742 94.5234 59.5742V49.5742ZM94.5234 38.4883V28.4883C89.0006 28.4883 84.5234 32.9654 84.5234 38.4883H94.5234ZM115.664 38.4883V48.4883C121.187 48.4883 125.664 44.0111 125.664 38.4883H115.664ZM115.664 37.2852H125.664C125.664 31.7623 121.187 27.2852 115.664 27.2852V37.2852ZM94.5664 37.2852H84.5664C84.5664 42.808 89.0436 47.2852 94.5664 47.2852V37.2852ZM94.5664 32.2578V22.2578C89.0436 22.2578 84.5664 26.735 84.5664 32.2578H94.5664ZM108.617 10.5156V20.5156C110.546 20.5156 112.085 20.6392 113.263 20.8275C114.469 21.02 115.099 21.249 115.321 21.3494C115.551 21.4538 115.043 21.2804 114.435 20.505C113.727 19.6003 113.324 18.4288 113.313 17.3178L123.312 17.2187L133.312 17.1197C133.239 9.78613 128.289 5.26676 123.57 3.13007C119.183 1.14355 113.871 0.515625 108.617 0.515625V10.5156ZM123.312 17.2187L113.313 17.1207C113.324 16.0441 113.712 14.8886 114.414 13.985C115.018 13.2084 115.527 13.0316 115.304 13.133C115.088 13.2315 114.463 13.4603 113.26 13.6529C112.084 13.8412 110.546 13.9648 108.617 13.9648V23.9648V33.9648C113.868 33.9648 119.19 33.3378 123.586 31.3377C128.34 29.1749 133.24 24.6299 133.312 17.3168L123.312 17.2187ZM108.617 23.9648V13.9648C106.676 13.9648 105.121 13.841 103.927 13.6512C102.705 13.4568 102.064 13.2253 101.838 13.1231C101.6 13.0155 102.132 13.1961 102.757 14.0048C103.492 14.9544 103.89 16.1768 103.878 17.3168L93.8789 17.2187L83.8794 17.1207C83.806 24.6082 88.8621 29.2059 93.6003 31.3476C98.0059 33.3391 103.352 33.9648 108.617 33.9648V23.9648ZM93.8789 17.2187L103.878 17.1197C103.89 18.2952 103.476 19.5344 102.736 20.4852C102.107 21.2927 101.577 21.4698 101.822 21.3593C102.053 21.2552 102.699 21.0234 103.923 20.8292C105.12 20.6394 106.676 20.5156 108.617 20.5156V10.5156V0.515625C103.349 0.515625 98.0127 1.14229 93.6164 3.12017C88.9149 5.23532 83.805 9.80756 83.8794 17.3178L93.8789 17.2187ZM108.617 15.5V5.5C105.869 5.5 102.999 5.60872 100.592 6.16502C99.4357 6.43215 97.3925 7.01263 95.4546 8.49003C93.08 10.3003 91.0977 13.3361 91.0977 17.2187H101.098H111.098C111.098 18.6243 110.766 20.1198 110.015 21.5217C109.288 22.8801 108.352 23.807 107.58 24.3952C106.833 24.9644 106.175 25.2695 105.805 25.4187C105.423 25.5729 105.161 25.636 105.095 25.6514C104.991 25.6754 105.19 25.623 105.876 25.5748C106.524 25.5294 107.416 25.5 108.617 25.5V15.5ZM101.098 17.2187H91.0977C91.0977 20.5239 92.5355 23.706 95.2369 25.8861C97.3595 27.5992 99.643 28.1787 100.799 28.4201C103.154 28.9121 106.062 28.9603 108.537 28.9801L108.617 18.9805L108.697 8.98079C107.401 8.97042 106.447 8.94762 105.73 8.90785C104.962 8.86526 104.768 8.81754 104.888 8.84263C104.969 8.85961 105.288 8.92924 105.741 9.10871C106.189 9.2859 106.957 9.64408 107.798 10.3225C108.686 11.0393 109.597 12.0705 110.247 13.4499C110.893 14.8216 111.098 16.1475 111.098 17.2187H101.098ZM108.617 18.9805L108.697 28.9802C111.193 28.9603 114.108 28.912 116.465 28.4219C117.62 28.1817 119.905 27.6047 122.031 25.8933C124.739 23.7125 126.18 20.5264 126.18 17.2187H116.18H106.18C106.18 16.1476 106.384 14.8198 107.033 13.4457C107.685 12.0637 108.598 11.0318 109.488 10.3153C110.33 9.63745 111.099 9.28046 111.545 9.10441C111.997 8.92603 112.314 8.85723 112.393 8.84082C112.508 8.81682 112.309 8.86492 111.533 8.90766C110.808 8.94759 109.845 8.97041 108.538 8.98078L108.617 18.9805ZM116.18 17.2187H126.18C126.18 13.3329 124.194 10.294 121.813 8.48317C119.872 7.00718 117.827 6.42878 116.671 6.16284C114.262 5.60863 111.384 5.5 108.617 5.5V15.5V25.5C109.83 25.5 110.732 25.5295 111.387 25.5751C112.081 25.6235 112.286 25.6765 112.186 25.6536C112.122 25.6388 111.862 25.5764 111.481 25.4232C111.113 25.2749 110.453 24.9708 109.706 24.4021C108.933 23.8142 107.994 22.8868 107.264 21.5261C106.511 20.1218 106.18 18.6244 106.18 17.2187H116.18ZM126.75 25.2969H116.75V30.7539H126.75H136.75V25.2969H126.75ZM126.75 30.7539V20.7539H90.4844V30.7539V40.7539H126.75V30.7539ZM90.4844 30.7539H100.484V25.2969H90.4844H80.4844V30.7539H90.4844ZM90.4844 25.2969V35.2969H126.75V25.2969V15.2969H90.4844V25.2969ZM122.453 32.2578H112.453V43.2148H122.453H132.453V32.2578H122.453ZM122.453 43.2148V33.2148H101.27V43.2148V53.2148H122.453V43.2148ZM101.27 43.2148H91.2695V44.5039H101.27H111.27V43.2148H101.27ZM101.27 44.5039V54.5039H123.398V44.5039V34.5039H101.27V44.5039ZM123.398 44.5039H113.398V49.5742H123.398H133.398V44.5039H123.398ZM123.398 49.5742V39.5742H94.5234V49.5742V59.5742H123.398V49.5742ZM94.5234 49.5742H104.523V38.4883H94.5234H84.5234V49.5742H94.5234ZM94.5234 38.4883V48.4883H115.664V38.4883V28.4883H94.5234V38.4883ZM115.664 38.4883H125.664V37.2852H115.664H105.664V38.4883H115.664ZM115.664 37.2852V27.2852H94.5664V37.2852V47.2852H115.664V37.2852ZM94.5664 37.2852H104.566V32.2578H94.5664H84.5664V37.2852H94.5664ZM94.5664 32.2578V42.2578H122.453V32.2578V22.2578H94.5664V32.2578ZM160.008 13.6094L170.008 13.6432C170.017 10.9852 168.967 8.43294 167.091 6.55026C165.214 4.66759 162.666 3.60937 160.008 3.60937V13.6094ZM141.746 44.2031L133.488 49.8427C136.301 53.9618 141.719 55.378 146.188 53.1624L141.746 44.2031ZM138.137 38.918L133.678 29.9672C131.09 31.2561 129.188 33.6013 128.459 36.3983C127.731 39.1954 128.249 42.1708 129.879 44.5576L138.137 38.918ZM150.168 28.9062L158.764 34.0161C160.681 30.7918 160.632 26.7661 158.637 23.5893C156.643 20.4125 153.039 18.6189 149.302 18.9438L150.168 28.9062ZM139.297 29.8516L129.376 31.1101C130.052 36.4368 134.814 40.2791 140.163 39.814L139.297 29.8516ZM138.566 24.0937L138.041 14.1076C135.265 14.2537 132.675 15.5488 130.892 17.6821C129.11 19.8155 128.296 22.5945 128.646 25.3523L138.566 24.0937ZM152.445 23.3633L152.971 33.3495C157.4 33.1164 161.146 29.9939 162.173 25.6795L152.445 23.3633ZM153.176 19.0664L163.113 20.1861C163.432 17.3569 162.529 14.5259 160.632 12.403C158.735 10.28 156.023 9.06641 153.176 9.06641V19.0664ZM140.672 19.0664H130.672C130.672 24.5893 135.149 29.0664 140.672 29.0664V19.0664ZM140.672 13.6094V3.60937C135.149 3.60937 130.672 8.08653 130.672 13.6094H140.672ZM171.824 10L181.824 10C181.824 4.47715 177.347 0 171.824 0V10ZM171.824 49.7461V59.7461C177.347 59.7461 181.824 55.2689 181.824 49.7461H171.824ZM164.82 49.7461H154.82C154.82 55.2689 159.297 59.7461 164.82 59.7461V49.7461ZM164.82 10V0C159.297 0 154.82 4.47715 154.82 10H164.82ZM160.008 13.6094L150.008 13.5756C149.988 19.3176 149.301 23.1948 147.732 26.2287C146.272 29.0491 143.512 32.1661 137.304 35.2438L141.746 44.2031L146.188 53.1624C155.32 48.6347 161.669 42.8142 165.495 35.4187C169.211 28.2369 169.984 20.6199 170.008 13.6432L160.008 13.6094ZM141.746 44.2031L150.004 38.5635L146.395 33.2784L138.137 38.918L129.879 44.5576L133.488 49.8427L141.746 44.2031ZM138.137 38.918L142.596 47.8687C149.547 44.4057 155.141 40.1108 158.764 34.0161L150.168 28.9062L141.572 23.7964C140.597 25.4361 138.629 27.5005 133.678 29.9672L138.137 38.918ZM150.168 28.9062L149.302 18.9438L138.431 19.8892L139.297 29.8516L140.163 39.814L151.034 38.8687L150.168 28.9062ZM139.297 29.8516L149.217 28.593L148.487 22.8352L138.566 24.0937L128.646 25.3523L129.376 31.1101L139.297 29.8516ZM138.566 24.0937L139.092 34.0799L152.971 33.3495L152.445 23.3633L151.92 13.3771L138.041 14.1076L138.566 24.0937ZM152.445 23.3633L162.173 25.6795C162.605 23.8648 162.904 22.0395 163.113 20.1861L153.176 19.0664L143.239 17.9467C143.104 19.1441 142.93 20.1547 142.717 21.0471L152.445 23.3633ZM153.176 19.0664V9.06641H140.672V19.0664V29.0664L153.176 29.0664V19.0664ZM140.672 19.0664H150.672V13.6094H140.672H130.672V19.0664H140.672ZM140.672 13.6094V23.6094H160.008V13.6094V3.60937L140.672 3.60937V13.6094ZM171.824 10H161.824V49.7461H171.824H181.824V10L171.824 10ZM171.824 49.7461V39.7461H164.82V49.7461V59.7461H171.824V49.7461ZM164.82 49.7461H174.82V10L164.82 10H154.82V49.7461H164.82ZM164.82 10V20H171.824V10V0L164.82 0V10ZM212.387 31.9141H222.387C222.387 26.3912 217.91 21.9141 212.387 21.9141V31.9141ZM212.387 37.457V47.457C217.91 47.457 222.387 42.9799 222.387 37.457H212.387ZM197.52 37.457V27.457C191.997 27.457 187.52 31.9342 187.52 37.457H197.52ZM197.52 49.832V59.832C203.042 59.832 207.52 55.3549 207.52 49.832H197.52ZM190.688 49.832H180.688C180.688 55.3549 185.165 59.832 190.688 59.832V49.832ZM190.688 37.457H200.688C200.688 31.9342 196.21 27.457 190.688 27.457V37.457ZM176.121 37.457H166.121C166.121 42.9799 170.598 47.457 176.121 47.457V37.457ZM176.121 31.9141V21.9141C170.598 21.9141 166.121 26.3912 166.121 31.9141H176.121ZM194.125 11.2031L194.075 21.203C194.108 21.2032 194.142 21.2032 194.175 21.203L194.125 11.2031ZM179.43 20.3984L189.429 20.4772C189.43 20.4255 189.43 20.3738 189.429 20.3221L179.43 20.3984ZM212.387 31.9141H202.387V37.457H212.387H222.387V31.9141H212.387ZM212.387 37.457V27.457L197.52 27.457V37.457V47.457H212.387V37.457ZM197.52 37.457H187.52V49.832H197.52H207.52V37.457H197.52ZM197.52 49.832V39.832H190.688V49.832V59.832H197.52V49.832ZM190.688 49.832H200.688V37.457H190.688H180.688V49.832H190.688ZM190.688 37.457V27.457H176.121V37.457V47.457H190.688V37.457ZM176.121 37.457H186.121V31.9141H176.121H166.121V37.457H176.121ZM176.121 31.9141V41.9141H212.387V31.9141V21.9141L176.121 21.9141V31.9141ZM194.125 11.2031L194.175 21.203C197.251 21.1877 198.979 21.8516 199.572 22.2131C199.819 22.3638 199.647 22.3233 199.399 21.9305C199.114 21.4809 198.949 20.9105 198.949 20.3984L208.949 20.3984H218.949C218.949 13.328 214.865 8.11132 209.98 5.13454C205.32 2.29487 199.635 1.17559 194.075 1.20325L194.125 11.2031ZM208.949 20.3984L198.949 20.3984C198.949 19.7764 199.152 19.131 199.468 18.6458C199.742 18.2253 199.929 18.1829 199.662 18.3416C199.032 18.7167 197.25 19.3789 194.125 19.3789V29.3789V39.3789C199.637 39.3789 205.267 38.2794 209.89 35.5285C214.709 32.6608 218.949 27.5284 218.949 20.3984H208.949ZM194.125 29.3789V19.3789C190.997 19.3789 189.258 18.7154 188.675 18.3648C188.434 18.2201 188.64 18.2811 188.921 18.7221C189.244 19.2265 189.434 19.8749 189.429 20.4772L179.43 20.3984L169.43 20.3197C169.374 27.423 173.532 32.5968 178.37 35.5053C182.986 38.2807 188.617 39.3789 194.125 39.3789V29.3789ZM179.43 20.3984L189.429 20.3221C189.433 20.8148 189.28 21.3872 188.99 21.8546C188.734 22.2666 188.544 22.3257 188.765 22.1892C189.311 21.853 190.995 21.1877 194.075 21.203L194.125 11.2031L194.175 1.20325C188.618 1.1756 182.933 2.29349 178.28 5.15845C173.379 8.17594 169.376 13.4325 169.43 20.4748L179.43 20.3984ZM194.125 16.6602V6.66016C191.185 6.66016 187.537 6.98676 184.256 8.53972C182.508 9.36676 180.511 10.7101 178.942 12.8734C177.296 15.1436 176.52 17.7743 176.52 20.3984H186.52H196.52C196.52 21.755 196.098 23.2846 195.132 24.6162C194.244 25.841 193.254 26.4081 192.811 26.6175C192.381 26.8213 192.22 26.8085 192.531 26.7579C192.814 26.7119 193.33 26.6602 194.125 26.6602V16.6602ZM186.52 20.3984H176.52C176.52 26.7058 180.764 30.5126 184.379 32.1638C187.591 33.6311 191.164 33.9648 194.125 33.9648V23.9648V13.9648C193.332 13.9648 192.804 13.9134 192.503 13.8653C192.174 13.8128 192.297 13.793 192.689 13.9719C193.076 14.1487 194.062 14.6762 194.981 15.8782C195.999 17.2098 196.52 18.8349 196.52 20.3984H186.52ZM194.125 23.9648V33.9648C197.106 33.9648 200.701 33.6367 203.925 32.1638C207.601 30.4844 211.773 26.653 211.773 20.3984L201.773 20.3984H191.773C191.773 18.8706 192.275 17.2525 193.294 15.9086C194.218 14.6914 195.216 14.1542 195.615 13.9719C196.015 13.789 196.142 13.8095 195.803 13.8632C195.493 13.9124 194.947 13.9648 194.125 13.9648V23.9648ZM201.773 20.3984L211.773 20.3984C211.773 17.808 211.019 15.1845 209.378 12.9039C207.811 10.726 205.808 9.37271 204.048 8.53972C200.754 6.981 197.085 6.66016 194.125 6.66016V16.6602V26.6602C194.95 26.6602 195.483 26.7129 195.776 26.7601C196.096 26.8118 195.932 26.8255 195.492 26.6175C195.037 26.4022 194.036 25.825 193.144 24.5857C192.179 23.2437 191.773 21.7213 191.773 20.3984H201.773ZM239.758 35.9961L248.027 41.6192C249.725 39.1228 250.204 35.9932 249.33 33.1034C248.457 30.2136 246.325 27.8729 243.529 26.7345L239.758 35.9961ZM236.105 41.3672L232.309 50.6185C236.683 52.4134 241.716 50.8999 244.375 46.9903L236.105 41.3672ZM226.91 31.7422L236.205 28.0525C234.674 24.198 230.924 21.6879 226.777 21.7431C222.63 21.7982 218.948 24.4071 217.521 28.3009L226.91 31.7422ZM217.543 42.3984L209.406 48.2108C212.158 52.0637 217.235 53.4585 221.569 51.5522L217.543 42.3984ZM213.676 36.9844L209.697 27.8102C206.926 29.0118 204.847 31.401 204.04 34.3108C203.232 37.2206 203.783 40.3395 205.538 42.7968L213.676 36.9844ZM223.215 19.2812H233.215C233.215 13.7584 228.738 9.28125 223.215 9.28125V19.2812ZM215.395 19.2812L205.395 19.2812C205.395 24.8041 209.872 29.2812 215.395 29.2812V19.2812ZM215.395 13.6953V3.69531C209.872 3.69531 205.395 8.17247 205.395 13.6953L215.395 13.6953ZM237.867 13.6953H247.867C247.867 8.17247 243.39 3.69531 237.867 3.69531V13.6953ZM237.867 19.2812V29.2812C243.39 29.2812 247.867 24.8041 247.867 19.2812H237.867ZM230.262 19.2812V9.28125C224.739 9.28125 220.262 13.7584 220.262 19.2812H230.262ZM247.707 10H257.707C257.707 4.47715 253.23 0 247.707 0V10ZM247.707 49.7461V59.7461C253.23 59.7461 257.707 55.2689 257.707 49.7461H247.707ZM240.746 49.7461H230.746C230.746 55.2689 235.223 59.7461 240.746 59.7461V49.7461ZM240.746 10V0C235.223 0 230.746 4.47715 230.746 10L240.746 10ZM230.262 19.9687H220.262C220.262 28.2505 223.474 40.1628 235.987 45.2577L239.758 35.9961L243.529 26.7345C242.327 26.2452 241.681 25.5594 241.206 24.638C240.641 23.5438 240.262 21.937 240.262 19.9687H230.262ZM239.758 35.9961L231.489 30.373L227.836 35.7441L236.105 41.3672L244.375 46.9903L248.027 41.6192L239.758 35.9961ZM236.105 41.3672L239.902 32.1159C238.278 31.4494 237.081 30.2591 236.205 28.0525L226.91 31.7422L217.616 35.4319C220.134 41.776 224.824 47.5467 232.309 50.6185L236.105 41.3672ZM226.91 31.7422L217.521 28.3009C216.458 31.1999 215.054 32.5685 213.517 33.2447L217.543 42.3984L221.569 51.5522C229.313 48.1464 233.881 41.7805 236.299 35.1835L226.91 31.7422ZM217.543 42.3984L225.68 36.5861L221.813 31.172L213.676 36.9844L205.538 42.7968L209.406 48.2108L217.543 42.3984ZM213.676 36.9844L217.655 46.1586C230.076 40.7711 233.215 28.4633 233.215 19.9687H223.215H213.215C213.215 22.1894 212.801 24.0718 212.147 25.3991C211.57 26.573 210.828 27.3196 209.697 27.8102L213.676 36.9844ZM223.215 19.9687H233.215V19.2812H223.215H213.215V19.9687H223.215ZM223.215 19.2812V9.28125H215.395V19.2812V29.2812H223.215V19.2812ZM215.395 19.2812H225.395V13.6953H215.395L205.395 13.6953V19.2812L215.395 19.2812ZM215.395 13.6953V23.6953H237.867V13.6953V3.69531L215.395 3.69531V13.6953ZM237.867 13.6953H227.867V19.2812H237.867H247.867V13.6953H237.867ZM237.867 19.2812V9.28125L230.262 9.28125V19.2812V29.2812H237.867V19.2812ZM230.262 19.2812H220.262V19.9687H230.262H240.262V19.2812H230.262ZM247.707 10H237.707V49.7461H247.707H257.707V10H247.707ZM247.707 49.7461V39.7461H240.746V49.7461V59.7461H247.707V49.7461ZM240.746 49.7461H250.746V10H240.746L230.746 10V49.7461H240.746ZM240.746 10V20H247.707V10V0L240.746 0V10ZM268.418 21L278.416 21.1724C278.418 21.0554 278.418 20.9384 278.416 20.8215L268.418 21ZM272.629 24.8242L272.45 34.8226C272.569 34.8247 272.688 34.8247 272.807 34.8226L272.629 24.8242ZM276.84 21L286.838 21.1724C286.84 21.0554 286.84 20.9384 286.838 20.8215L276.84 21ZM293.555 10L303.555 10C303.555 4.47715 299.078 0 293.555 0V10ZM293.555 17.8633H283.555C283.555 23.3861 288.032 27.8633 293.555 27.8633V17.8633ZM298.496 17.8633H308.496C308.496 12.3404 304.019 7.86328 298.496 7.86328V17.8633ZM298.496 23.4922V33.4922C304.019 33.4922 308.496 29.015 308.496 23.4922H298.496ZM293.555 23.4922V13.4922C288.032 13.4922 283.555 17.9693 283.555 23.4922H293.555ZM293.555 29.5078V39.5078C299.078 39.5078 303.555 35.0307 303.555 29.5078H293.555ZM286.637 29.5078H276.637C276.637 35.0307 281.114 39.5078 286.637 39.5078V29.5078ZM286.637 10V0C281.114 0 276.637 4.47715 276.637 10H286.637ZM271.641 33.0312H281.641C281.641 27.5084 277.163 23.0312 271.641 23.0312V33.0312ZM271.641 43.0859H261.641C261.641 45.8549 262.789 48.5 264.812 50.3909C266.834 52.2819 269.551 53.2495 272.313 53.0633L271.641 43.0859ZM276.754 42.1406L286.598 40.3799C286.091 37.5487 284.39 35.0725 281.929 33.584C279.468 32.0955 276.485 31.7387 273.743 32.6048L276.754 42.1406ZM277.699 47.4258L281.298 56.7558C285.767 55.0319 288.386 50.3806 287.543 45.6651L277.699 47.4258ZM264.895 48.7148H254.895C254.895 54.2377 259.372 58.7148 264.895 58.7148V48.7148ZM264.895 33.0312V23.0312C259.372 23.0312 254.895 27.5084 254.895 33.0312H264.895ZM296.305 32.9883H306.305C306.305 27.4654 301.828 22.9883 296.305 22.9883V32.9883ZM296.305 37.9297V47.9297C301.828 47.9297 306.305 43.4525 306.305 37.9297H296.305ZM276.367 37.9297H266.367C266.367 43.4525 270.844 47.9297 276.367 47.9297V37.9297ZM276.367 32.9883V22.9883C270.844 22.9883 266.367 27.4654 266.367 32.9883H276.367ZM283.07 32.9883V42.9883C288.593 42.9883 293.07 38.5111 293.07 32.9883H283.07ZM283.07 30.625V20.625C277.547 20.625 273.07 25.1022 273.07 30.625H283.07ZM289.73 30.625H299.73C299.73 25.1022 295.253 20.625 289.73 20.625V30.625ZM289.73 32.9883H279.73C279.73 38.5111 284.208 42.9883 289.73 42.9883V32.9883ZM286.293 38.5742L286.386 28.5746C286.324 28.5741 286.263 28.5741 286.202 28.5746L286.293 38.5742ZM294.199 44.2461L304.198 44.3711C304.199 44.2878 304.199 44.2044 304.198 44.1211L294.199 44.2461ZM272.629 11.7187V21.7187C273.684 21.7187 274.017 22.0434 273.923 21.963C273.872 21.9201 273.749 21.795 273.643 21.5712C273.533 21.3381 273.5 21.1234 273.5 21H283.5H293.5C293.5 8.64802 282.802 1.71875 272.629 1.71875V11.7187ZM283.5 21H273.5C273.5 20.9444 273.517 20.7724 273.617 20.5592C273.713 20.3535 273.829 20.2298 273.886 20.1809C273.995 20.0871 273.683 20.4102 272.629 20.4102V30.4102V40.4102C282.899 40.4102 293.5 33.3977 293.5 21H283.5ZM272.629 30.4102V20.4102C271.64 20.4102 271.286 20.0989 271.341 20.1456C271.375 20.1746 271.486 20.2832 271.584 20.4895C271.687 20.7066 271.715 20.9019 271.715 21H261.715H251.715C251.715 33.4919 262.555 40.4102 272.629 40.4102V30.4102ZM261.715 21H271.715C271.715 21.1668 271.671 21.405 271.557 21.6415C271.448 21.8652 271.332 21.975 271.305 21.9981C271.265 22.0317 271.639 21.7187 272.629 21.7187V11.7187V1.71875C262.653 1.71875 251.715 8.55446 251.715 21H261.715ZM272.629 17.3477V7.34766C269.837 7.34766 266.332 8.05833 263.318 10.4952C260.007 13.1722 258.347 17.101 258.42 21.1785L268.418 21L278.416 20.8215C278.429 21.5337 278.302 22.488 277.839 23.5167C277.372 24.5552 276.677 25.4134 275.892 26.0478C274.393 27.26 273.014 27.3477 272.629 27.3477V17.3477ZM268.418 21L258.419 20.8276C258.351 24.8251 259.913 28.7361 263.155 31.4726C266.131 33.9841 269.634 34.7723 272.45 34.8226L272.629 24.8242L272.807 14.8258C273.218 14.8331 274.594 14.9554 276.055 16.1885C277.782 17.6467 278.442 19.6671 278.416 21.1724L268.418 21ZM272.629 24.8242L272.807 34.8226C275.654 34.7718 279.157 33.9675 282.124 31.427C285.298 28.7096 286.774 24.9268 286.838 21.1724L276.84 21L266.841 20.8276C266.863 19.5654 267.436 17.6732 269.117 16.2341C270.591 14.972 272.01 14.8337 272.45 14.8258L272.629 24.8242ZM276.84 21L286.838 20.8215C286.77 16.9985 285.207 13.2009 281.962 10.5394C278.954 8.0722 275.447 7.34766 272.629 7.34766V17.3477V27.3477C272.217 27.3477 270.794 27.2462 269.279 26.0036C267.527 24.5667 266.867 22.5953 266.841 21.1785L276.84 21ZM293.555 10H283.555V17.8633H293.555H303.555V10L293.555 10ZM293.555 17.8633V27.8633H298.496V17.8633V7.86328H293.555V17.8633ZM298.496 17.8633H288.496V23.4922H298.496H308.496V17.8633H298.496ZM298.496 23.4922V13.4922H293.555V23.4922V33.4922H298.496V23.4922ZM293.555 23.4922H283.555V29.5078H293.555H303.555V23.4922H293.555ZM293.555 29.5078V19.5078H286.637V29.5078V39.5078H293.555V29.5078ZM286.637 29.5078H296.637V10H286.637H276.637V29.5078H286.637ZM286.637 10V20H293.555V10V0L286.637 0V10ZM271.641 33.0312H261.641V43.0859H271.641H281.641V33.0312H271.641ZM271.641 43.0859L272.313 53.0633C274.99 52.8829 277.345 52.4407 279.765 51.6765L276.754 42.1406L273.743 32.6048C272.897 32.8718 272.116 33.0312 270.968 33.1086L271.641 43.0859ZM276.754 42.1406L266.91 43.9013L267.855 49.1865L277.699 47.4258L287.543 45.6651L286.598 40.3799L276.754 42.1406ZM277.699 47.4258L274.1 38.0958C273.015 38.5144 271.89 38.7148 267.301 38.7148V48.7148V58.7148C271.821 58.7148 276.368 58.6575 281.298 56.7558L277.699 47.4258ZM267.301 48.7148V38.7148H264.895V48.7148V58.7148H267.301V48.7148ZM264.895 48.7148H274.895V33.0312H264.895H254.895V48.7148H264.895ZM264.895 33.0312V43.0312H271.641V33.0312V23.0312H264.895V33.0312ZM296.305 32.9883H286.305V37.9297H296.305H306.305V32.9883H296.305ZM296.305 37.9297V27.9297H276.367V37.9297V47.9297H296.305V37.9297ZM276.367 37.9297H286.367V32.9883H276.367H266.367V37.9297H276.367ZM276.367 32.9883V42.9883H283.07V32.9883V22.9883H276.367V32.9883ZM283.07 32.9883H293.07V30.625H283.07H273.07V32.9883H283.07ZM283.07 30.625V40.625H289.73V30.625V20.625H283.07V30.625ZM289.73 30.625H279.73V32.9883H289.73H299.73V30.625H289.73ZM289.73 32.9883V42.9883H296.305V32.9883V22.9883H289.73V32.9883ZM286.293 38.5742L286.2 48.5738C287.102 48.5821 286.912 48.8074 286.2 48.3043C285.803 48.024 285.273 47.5255 284.844 46.749C284.403 45.9512 284.209 45.1082 284.2 44.3711L294.199 44.2461L304.198 44.1211C304.133 38.9005 301.494 34.6223 297.741 31.9701C294.246 29.5012 290.124 28.6093 286.386 28.5746L286.293 38.5742ZM294.199 44.2461L284.2 44.1211C284.209 43.3834 284.404 42.527 284.858 41.7105C285.3 40.9149 285.849 40.4041 286.263 40.1165C287.004 39.6016 287.211 39.832 286.293 39.832V49.832V59.832C290.016 59.832 294.154 58.9882 297.677 56.5398C301.478 53.898 304.133 49.6056 304.198 44.3711L294.199 44.2461ZM286.293 49.832V39.832C285.293 39.832 285.54 39.5852 286.341 40.1478C286.788 40.4626 287.358 41.008 287.803 41.8363C288.257 42.6809 288.43 43.5402 288.43 44.2461H278.43H268.43C268.43 49.4283 270.973 53.7918 274.837 56.5084C278.387 59.0047 282.566 59.832 286.293 59.832V49.832ZM278.43 44.2461H288.43C288.43 44.9518 288.257 45.7977 287.816 46.6234C287.385 47.4322 286.834 47.9649 286.404 48.2724C285.633 48.8239 285.401 48.5827 286.384 48.5738L286.293 38.5742L286.202 28.5746C282.458 28.6087 278.295 29.4847 274.773 32.002C270.959 34.7289 268.43 39.0765 268.43 44.2461H278.43ZM286.293 43.3008V33.3008C285.408 33.3008 283.202 33.3442 280.88 34.4064C279.58 35.0015 277.89 36.0778 276.536 37.9694C275.113 39.957 274.531 42.191 274.531 44.2461H284.531H294.531C294.531 45.9359 294.046 47.8692 292.799 49.611C291.621 51.2569 290.186 52.1425 289.203 52.5926C288.246 53.0304 287.457 53.1795 287.077 53.2363C286.664 53.2978 286.381 53.3008 286.293 53.3008V43.3008ZM284.531 44.2461H274.531C274.531 46.3012 275.113 48.5352 276.536 50.5228C277.89 52.4144 279.58 53.4907 280.88 54.0858C283.202 55.148 285.408 55.1914 286.293 55.1914V45.1914V35.1914C286.381 35.1914 286.664 35.1944 287.077 35.2559C287.457 35.3127 288.246 35.4618 289.203 35.8996C290.186 36.3496 291.621 37.2353 292.799 38.8812C294.046 40.623 294.531 42.5563 294.531 44.2461H284.531ZM286.293 45.1914V55.1914C287.178 55.1914 289.384 55.148 291.706 54.0858C293.006 53.4907 294.696 52.4144 296.05 50.5228C297.473 48.5352 298.055 46.3012 298.055 44.2461H288.055H278.055C278.055 42.5563 278.54 40.623 279.787 38.8812C280.965 37.2353 282.4 36.3496 283.383 35.8996C284.34 35.4618 285.129 35.3127 285.509 35.2559C285.922 35.1944 286.205 35.1914 286.293 35.1914V45.1914ZM288.055 44.2461H298.055C298.055 42.191 297.473 39.957 296.05 37.9694C294.696 36.0778 293.006 35.0015 291.706 34.4064C289.384 33.3442 287.178 33.3008 286.293 33.3008V43.3008V53.3008C286.205 53.3008 285.922 53.2978 285.509 53.2363C285.129 53.1795 284.34 53.0304 283.383 52.5926C282.4 52.1425 280.965 51.2569 279.787 49.611C278.54 47.8692 278.055 45.9359 278.055 44.2461H288.055ZM332.141 20.0977L342.141 20.0977C342.141 14.5748 337.663 10.0977 332.141 10.0977V20.0977ZM332.141 25.4258V35.4258C337.663 35.4258 342.141 30.9486 342.141 25.4258L332.141 25.4258ZM304.039 25.4258H294.039C294.039 30.9486 298.516 35.4258 304.039 35.4258V25.4258ZM304.039 11.418V1.41797C298.516 1.41797 294.039 5.89512 294.039 11.418L304.039 11.418ZM310.914 11.418H320.914C320.914 5.89512 316.437 1.41797 310.914 1.41797V11.418ZM310.914 20.0977H300.914C300.914 25.6205 305.391 30.0977 310.914 30.0977V20.0977ZM336.051 28.9492H346.051C346.051 23.4264 341.574 18.9492 336.051 18.9492V28.9492ZM336.051 34.2773V44.2773C341.574 44.2773 346.051 39.8002 346.051 34.2773H336.051ZM299.785 34.2773H289.785C289.785 39.8002 294.262 44.2773 299.785 44.2773V34.2773ZM299.785 28.9492V18.9492C294.262 18.9492 289.785 23.4264 289.785 28.9492H299.785ZM332.398 43.4727H342.398C342.398 37.9498 337.921 33.4727 332.398 33.4727V43.4727ZM332.398 48.9727V58.9727C337.921 58.9727 342.398 54.4955 342.398 48.9727H332.398ZM303.566 48.9727H293.566C293.566 54.4955 298.044 58.9727 303.566 58.9727V48.9727ZM303.566 37.0273V27.0273C298.044 27.0273 293.566 31.5045 293.566 37.0273H303.566ZM310.527 37.0273H320.527C320.527 31.5045 316.05 27.0273 310.527 27.0273V37.0273ZM310.527 43.4727H300.527C300.527 48.9955 305.004 53.4727 310.527 53.4727V43.4727ZM332.141 20.0977H322.141V25.4258H332.141L342.141 25.4258V20.0977L332.141 20.0977ZM332.141 25.4258V15.4258H304.039V25.4258V35.4258H332.141V25.4258ZM304.039 25.4258H314.039V11.418H304.039L294.039 11.418V25.4258H304.039ZM304.039 11.418V21.418H310.914V11.418V1.41797H304.039V11.418ZM310.914 11.418L300.914 11.418V20.0977H310.914H320.914V11.418H310.914ZM310.914 20.0977V30.0977H332.141V20.0977V10.0977H310.914V20.0977ZM336.051 28.9492H326.051V34.2773H336.051H346.051V28.9492H336.051ZM336.051 34.2773V24.2773L299.785 24.2773V34.2773V44.2773H336.051V34.2773ZM299.785 34.2773H309.785V28.9492H299.785H289.785V34.2773H299.785ZM299.785 28.9492V38.9492H336.051V28.9492V18.9492L299.785 18.9492V28.9492ZM332.398 43.4727H322.398V48.9727H332.398H342.398V43.4727H332.398ZM332.398 48.9727V38.9727H303.566V48.9727V58.9727H332.398V48.9727ZM303.566 48.9727H313.566V37.0273H303.566H293.566V48.9727H303.566ZM303.566 37.0273V47.0273H310.527V37.0273V27.0273H303.566V37.0273ZM310.527 37.0273H300.527V43.4727H310.527H320.527V37.0273H310.527ZM310.527 43.4727V53.4727H332.398V43.4727V33.4727H310.527V43.4727Z" fill="white" mask="url(#path-1-outside-1_6524_1824)"/>
</g>
<defs>
<filter id="filter0_d_6524_1824" x="0" y="0" width="350.051" height="67.832" filterUnits="userSpaceOnUse" color-interpolation-filters="sRGB">
<feFlood flood-opacity="0" result="BackgroundImageFix"/>
<feColorMatrix in="SourceAlpha" type="matrix" values="0 0 0 0 0 0 0 0 0 0 0 0 0 0 0 0 0 0 127 0" result="hardAlpha"/>
<feOffset dy="4"/>
<feGaussianBlur stdDeviation="2"/>
<feComposite in2="hardAlpha" operator="out"/>
<feColorMatrix type="matrix" values="0 0 0 0 0 0 0 0 0 0 0 0 0 0 0 0 0 0 0.07 0"/>
<feBlend mode="normal" in2="BackgroundImageFix" result="effect1_dropShadow_6524_1824"/>
<feBlend mode="normal" in="SourceGraphic" in2="effect1_dropShadow_6524_1824" result="shape"/>
</filter>
</defs>
</svg>
