<svg width="274" height="68" viewBox="0 0 274 68" fill="none" xmlns="http://www.w3.org/2000/svg">
<g filter="url(#filter0_d_6526_5738)">
<mask id="path-1-outside-1_6526_5738" maskUnits="userSpaceOnUse" x="3.52734" y="-0.507813" width="267" height="61" fill="black">
<rect fill="white" x="3.52734" y="-0.507813" width="267" height="61"/>
<path d="M46.2266 10V17.2617H51.168V22.9766H46.2266V29.6367H39.3086V10L46.2266 10ZM35.3125 11.2031C35.3125 22.2031 28.8242 28.5195 16.5352 30.7969L14 25.168C23.002 23.6641 26.8262 20.2051 27.5352 16.6602H16.1914V11.2031H35.3125ZM46.2266 31.0117V42.6992H26.0742V43.9453H47.1719V49.3594H19.2422V37.6289H39.3516V36.4258H19.2422V31.0117H46.2266ZM86.1875 10V49.7461H79.1836V10H86.1875ZM75.7891 13.3086V18.7656H72.9102V34.793C74.3281 34.6641 75.7246 34.5352 77.0781 34.3633L77.4648 39.4766C69.1289 40.8945 60.1914 41.0664 52.9727 41.0664L52.3711 35.5664L56.3672 35.5234V18.7656H53.4453V13.3086H75.7891ZM62.9844 35.3516L66.207 35.2227V18.7656H62.9844V35.3516ZM126.75 27.4023V32.4297H90.4844V27.4023H126.75ZM122.539 33.6328V43.6445H101.312V44.9336H123.613V49.4883H94.4805V39.3906H115.707V38.2734H94.4805V33.6328H122.539ZM122.539 10.4727V20.4844H101.699V21.7734H123.227V26.2852H94.8672V16.2305H115.664V15.0273H94.8242V10.4727L122.539 10.4727ZM169.805 11.5469V25.5547H159.621V28.3906H174.359V33.8477L138.094 33.8477V28.3906H152.746V25.5547H142.477V11.5469H169.805ZM149.18 16.875V20.1836H163.016V16.875H149.18ZM159.664 35.6953C159.664 39.2187 162.414 43.2578 172.125 44.2891L169.676 49.5742C162.994 48.7578 158.611 46.4375 156.184 43.2148C153.691 46.4375 149.309 48.7578 142.691 49.5742L140.285 44.2891C149.91 43.2578 152.66 39.2187 152.66 35.6953V35.1797H159.664V35.6953ZM208.305 11.9336V17.3906L201.129 17.3906C201.58 20.9785 203.943 24.6309 209.98 26.2422L206.715 31.5273C202.311 30.3672 199.367 27.9609 197.562 24.9102C195.801 28.3262 192.793 31.0332 188.109 32.3437L184.672 26.8867C190.945 25.2109 193.438 21.2148 193.91 17.3906H186.52V11.9336H208.305ZM217.5 10V18.0352H222.441V23.6211H217.5V32H210.582V10H217.5ZM197.691 33.375V36.2539H210.582V33.375H217.5V49.4023H190.816V33.375H197.691ZM197.691 43.9023H210.582V41.4961H197.691V43.9023ZM256.086 20.0977V25.4258H227.984V11.418H234.859V20.0977H256.086ZM259.996 28.9492V34.2773H223.73V28.9492H259.996ZM256.344 43.4727V48.9727H227.512V37.0273H234.473V43.4727H256.344Z"/>
</mask>
<path d="M46.2266 10V17.2617H51.168V22.9766H46.2266V29.6367H39.3086V10L46.2266 10ZM35.3125 11.2031C35.3125 22.2031 28.8242 28.5195 16.5352 30.7969L14 25.168C23.002 23.6641 26.8262 20.2051 27.5352 16.6602H16.1914V11.2031H35.3125ZM46.2266 31.0117V42.6992H26.0742V43.9453H47.1719V49.3594H19.2422V37.6289H39.3516V36.4258H19.2422V31.0117H46.2266ZM86.1875 10V49.7461H79.1836V10H86.1875ZM75.7891 13.3086V18.7656H72.9102V34.793C74.3281 34.6641 75.7246 34.5352 77.0781 34.3633L77.4648 39.4766C69.1289 40.8945 60.1914 41.0664 52.9727 41.0664L52.3711 35.5664L56.3672 35.5234V18.7656H53.4453V13.3086H75.7891ZM62.9844 35.3516L66.207 35.2227V18.7656H62.9844V35.3516ZM126.75 27.4023V32.4297H90.4844V27.4023H126.75ZM122.539 33.6328V43.6445H101.312V44.9336H123.613V49.4883H94.4805V39.3906H115.707V38.2734H94.4805V33.6328H122.539ZM122.539 10.4727V20.4844H101.699V21.7734H123.227V26.2852H94.8672V16.2305H115.664V15.0273H94.8242V10.4727L122.539 10.4727ZM169.805 11.5469V25.5547H159.621V28.3906H174.359V33.8477L138.094 33.8477V28.3906H152.746V25.5547H142.477V11.5469H169.805ZM149.18 16.875V20.1836H163.016V16.875H149.18ZM159.664 35.6953C159.664 39.2187 162.414 43.2578 172.125 44.2891L169.676 49.5742C162.994 48.7578 158.611 46.4375 156.184 43.2148C153.691 46.4375 149.309 48.7578 142.691 49.5742L140.285 44.2891C149.91 43.2578 152.66 39.2187 152.66 35.6953V35.1797H159.664V35.6953ZM208.305 11.9336V17.3906L201.129 17.3906C201.58 20.9785 203.943 24.6309 209.98 26.2422L206.715 31.5273C202.311 30.3672 199.367 27.9609 197.562 24.9102C195.801 28.3262 192.793 31.0332 188.109 32.3437L184.672 26.8867C190.945 25.2109 193.438 21.2148 193.91 17.3906H186.52V11.9336H208.305ZM217.5 10V18.0352H222.441V23.6211H217.5V32H210.582V10H217.5ZM197.691 33.375V36.2539H210.582V33.375H217.5V49.4023H190.816V33.375H197.691ZM197.691 43.9023H210.582V41.4961H197.691V43.9023ZM256.086 20.0977V25.4258H227.984V11.418H234.859V20.0977H256.086ZM259.996 28.9492V34.2773H223.73V28.9492H259.996ZM256.344 43.4727V48.9727H227.512V37.0273H234.473V43.4727H256.344Z" fill="#11DCA9"/>
<path d="M46.2266 10H56.2266C56.2266 4.47715 51.7494 0 46.2266 0V10ZM46.2266 17.2617H36.2266C36.2266 22.7846 40.7037 27.2617 46.2266 27.2617V17.2617ZM51.168 17.2617H61.168C61.168 11.7389 56.6908 7.26172 51.168 7.26172V17.2617ZM51.168 22.9766V32.9766C56.6908 32.9766 61.168 28.4994 61.168 22.9766H51.168ZM46.2266 22.9766V12.9766C40.7037 12.9766 36.2266 17.4537 36.2266 22.9766H46.2266ZM46.2266 29.6367V39.6367C51.7494 39.6367 56.2266 35.1596 56.2266 29.6367H46.2266ZM39.3086 29.6367H29.3086C29.3086 35.1596 33.7857 39.6367 39.3086 39.6367V29.6367ZM39.3086 10V0C33.7857 0 29.3086 4.47715 29.3086 10H39.3086ZM35.3125 11.2031H45.3125C45.3125 5.68028 40.8353 1.20312 35.3125 1.20312V11.2031ZM16.5352 30.7969L7.41724 34.9034C9.30933 39.1045 13.8269 41.469 18.3573 40.6295L16.5352 30.7969ZM14 25.168L12.3522 15.3047C9.29301 15.8157 6.64414 17.7174 5.18159 20.4525C3.71905 23.1876 3.60841 26.4465 4.88209 29.2745L14 25.168ZM27.5352 16.6602L37.341 18.6213C37.9285 15.6836 37.168 12.6371 35.2686 10.3203C33.3692 8.00339 30.5311 6.66016 27.5352 6.66016V16.6602ZM16.1914 16.6602H6.19141C6.19141 22.183 10.6686 26.6602 16.1914 26.6602V16.6602ZM16.1914 11.2031V1.20312C10.6686 1.20312 6.19141 5.68028 6.19141 11.2031H16.1914ZM46.2266 31.0117H56.2266C56.2266 25.4889 51.7494 21.0117 46.2266 21.0117V31.0117ZM46.2266 42.6992V52.6992C51.7494 52.6992 56.2266 48.2221 56.2266 42.6992H46.2266ZM26.0742 42.6992V32.6992C20.5514 32.6992 16.0742 37.1764 16.0742 42.6992H26.0742ZM26.0742 43.9453H16.0742C16.0742 49.4682 20.5514 53.9453 26.0742 53.9453V43.9453ZM47.1719 43.9453H57.1719C57.1719 38.4225 52.6947 33.9453 47.1719 33.9453V43.9453ZM47.1719 49.3594V59.3594C52.6947 59.3594 57.1719 54.8822 57.1719 49.3594H47.1719ZM19.2422 49.3594H9.24219C9.24219 54.8822 13.7193 59.3594 19.2422 59.3594V49.3594ZM19.2422 37.6289V27.6289C13.7193 27.6289 9.24219 32.1061 9.24219 37.6289H19.2422ZM39.3516 37.6289V47.6289C44.8744 47.6289 49.3516 43.1518 49.3516 37.6289H39.3516ZM39.3516 36.4258H49.3516C49.3516 30.9029 44.8744 26.4258 39.3516 26.4258V36.4258ZM19.2422 36.4258H9.24219C9.24219 41.9486 13.7193 46.4258 19.2422 46.4258V36.4258ZM19.2422 31.0117V21.0117C13.7193 21.0117 9.24219 25.4889 9.24219 31.0117H19.2422ZM46.2266 10L36.2266 10V17.2617H46.2266H56.2266V10H46.2266ZM46.2266 17.2617V27.2617H51.168V17.2617V7.26172H46.2266V17.2617ZM51.168 17.2617H41.168V22.9766H51.168H61.168V17.2617H51.168ZM51.168 22.9766V12.9766H46.2266V22.9766V32.9766H51.168V22.9766ZM46.2266 22.9766H36.2266V29.6367H46.2266H56.2266V22.9766H46.2266ZM46.2266 29.6367V19.6367H39.3086V29.6367V39.6367H46.2266V29.6367ZM39.3086 29.6367H49.3086V10L39.3086 10H29.3086V29.6367H39.3086ZM39.3086 10V20H46.2266V10V0H39.3086V10ZM35.3125 11.2031H25.3125C25.3125 14.6008 24.3845 16.2519 23.3727 17.2895C22.1558 18.5375 19.6663 20.0464 14.713 20.9643L16.5352 30.7969L18.3573 40.6295C25.6931 39.27 32.5923 36.4821 37.6918 31.2525C42.9964 25.8126 45.3125 18.8055 45.3125 11.2031H35.3125ZM16.5352 30.7969L25.6531 26.6903L23.1179 21.0614L14 25.168L4.88209 29.2745L7.41724 34.9034L16.5352 30.7969ZM14 25.168L15.6478 35.0313C25.7893 33.337 35.356 28.5461 37.341 18.6213L27.5352 16.6602L17.7293 14.699C17.9751 13.4703 18.6458 13.1401 18.2018 13.4462C17.6268 13.8426 15.9581 14.7022 12.3522 15.3047L14 25.168ZM27.5352 16.6602V6.66016H16.1914V16.6602V26.6602H27.5352V16.6602ZM16.1914 16.6602H26.1914V11.2031H16.1914H6.19141L6.19141 16.6602H16.1914ZM16.1914 11.2031V21.2031H35.3125V11.2031V1.20312L16.1914 1.20312V11.2031ZM46.2266 31.0117H36.2266V42.6992H46.2266H56.2266V31.0117H46.2266ZM46.2266 42.6992V32.6992H26.0742V42.6992V52.6992H46.2266V42.6992ZM26.0742 42.6992H16.0742V43.9453H26.0742H36.0742V42.6992H26.0742ZM26.0742 43.9453V53.9453H47.1719V43.9453V33.9453H26.0742V43.9453ZM47.1719 43.9453H37.1719V49.3594H47.1719H57.1719V43.9453H47.1719ZM47.1719 49.3594V39.3594H19.2422V49.3594V59.3594H47.1719V49.3594ZM19.2422 49.3594H29.2422V37.6289H19.2422H9.24219L9.24219 49.3594H19.2422ZM19.2422 37.6289V47.6289H39.3516V37.6289V27.6289H19.2422V37.6289ZM39.3516 37.6289H49.3516V36.4258H39.3516H29.3516V37.6289H39.3516ZM39.3516 36.4258V26.4258H19.2422V36.4258V46.4258H39.3516V36.4258ZM19.2422 36.4258H29.2422V31.0117H19.2422H9.24219V36.4258H19.2422ZM19.2422 31.0117V41.0117H46.2266V31.0117V21.0117H19.2422V31.0117ZM86.1875 10H96.1875C96.1875 4.47715 91.7104 0 86.1875 0V10ZM86.1875 49.7461V59.7461C91.7104 59.7461 96.1875 55.2689 96.1875 49.7461H86.1875ZM79.1836 49.7461H69.1836C69.1836 55.2689 73.6607 59.7461 79.1836 59.7461V49.7461ZM79.1836 10V0C73.6607 0 69.1836 4.47715 69.1836 10H79.1836ZM75.7891 13.3086L85.7891 13.3086C85.7891 7.78575 81.3119 3.30859 75.7891 3.30859V13.3086ZM75.7891 18.7656V28.7656C81.3119 28.7656 85.7891 24.2885 85.7891 18.7656L75.7891 18.7656ZM72.9102 18.7656V8.76562C67.3873 8.76562 62.9102 13.2428 62.9102 18.7656H72.9102ZM72.9102 34.793H62.9102C62.9102 37.6026 64.0921 40.2826 66.1668 42.1772C68.2414 44.0718 71.0174 45.0063 73.8155 44.7519L72.9102 34.793ZM77.0781 34.3633L87.0496 33.6091C86.843 30.8766 85.524 28.3486 83.401 26.6159C81.278 24.8833 78.5369 24.0977 75.8184 24.4429L77.0781 34.3633ZM77.4648 39.4766L79.1418 49.335C84.2317 48.4691 87.8257 43.8708 87.4364 38.7224L77.4648 39.4766ZM52.9727 41.0664L43.0319 42.1537C43.5867 47.2255 47.8706 51.0664 52.9727 51.0664V41.0664ZM52.3711 35.5664L52.2636 25.567C49.441 25.5973 46.7628 26.8192 44.8898 28.9309C43.0167 31.0427 42.1235 33.8477 42.4304 36.6537L52.3711 35.5664ZM56.3672 35.5234L56.4747 45.5229C61.9553 45.4639 66.3672 41.0043 66.3672 35.5234H56.3672ZM56.3672 18.7656H66.3672C66.3672 13.2428 61.89 8.76562 56.3672 8.76562V18.7656ZM53.4453 18.7656H43.4453C43.4453 24.2885 47.9225 28.7656 53.4453 28.7656V18.7656ZM53.4453 13.3086V3.30859C47.9225 3.30859 43.4453 7.78575 43.4453 13.3086H53.4453ZM62.9844 35.3516H52.9844C52.9844 38.0731 54.0936 40.677 56.0561 42.5626C58.0185 44.4481 60.6647 45.4523 63.3841 45.3436L62.9844 35.3516ZM66.207 35.2227L66.6067 45.2147C71.9698 45.0001 76.207 40.59 76.207 35.2227H66.207ZM66.207 18.7656H76.207C76.207 13.2428 71.7299 8.76562 66.207 8.76562V18.7656ZM62.9844 18.7656V8.76562C57.4615 8.76562 52.9844 13.2428 52.9844 18.7656H62.9844ZM86.1875 10H76.1875V49.7461H86.1875H96.1875V10H86.1875ZM86.1875 49.7461V39.7461H79.1836V49.7461V59.7461H86.1875V49.7461ZM79.1836 49.7461H89.1836V10H79.1836H69.1836V49.7461H79.1836ZM79.1836 10V20H86.1875V10V0L79.1836 0V10ZM75.7891 13.3086H65.7891V18.7656H75.7891L85.7891 18.7656V13.3086L75.7891 13.3086ZM75.7891 18.7656V8.76562H72.9102V18.7656V28.7656H75.7891V18.7656ZM72.9102 18.7656H62.9102V34.793H72.9102H82.9102V18.7656L72.9102 18.7656ZM72.9102 34.793L73.8155 44.7519C75.2133 44.6248 76.7813 44.4813 78.3379 44.2836L77.0781 34.3633L75.8184 24.4429C74.6679 24.589 73.4429 24.7033 72.0048 24.834L72.9102 34.793ZM77.0781 34.3633L67.1066 35.1174L67.4933 40.2307L77.4648 39.4766L87.4364 38.7224L87.0496 33.6091L77.0781 34.3633ZM77.4648 39.4766L75.7879 29.6182C68.3447 30.8843 60.1312 31.0664 52.9727 31.0664V41.0664V51.0664C60.2516 51.0664 69.9131 50.9048 79.1418 49.335L77.4648 39.4766ZM52.9727 41.0664L62.9134 39.9791L62.3118 34.4791L52.3711 35.5664L42.4304 36.6537L43.0319 42.1537L52.9727 41.0664ZM52.3711 35.5664L52.4786 45.5658L56.4747 45.5229L56.3672 35.5234L56.2597 25.524L52.2636 25.567L52.3711 35.5664ZM56.3672 35.5234H66.3672V18.7656H56.3672H46.3672V35.5234H56.3672ZM56.3672 18.7656V8.76562H53.4453V18.7656V28.7656H56.3672V18.7656ZM53.4453 18.7656H63.4453V13.3086H53.4453H43.4453V18.7656H53.4453ZM53.4453 13.3086V23.3086H75.7891V13.3086V3.30859L53.4453 3.30859V13.3086ZM62.9844 35.3516L63.3841 45.3436L66.6067 45.2147L66.207 35.2227L65.8074 25.2306L62.5847 25.3596L62.9844 35.3516ZM66.207 35.2227H76.207V18.7656H66.207H56.207V35.2227H66.207ZM66.207 18.7656V8.76562H62.9844V18.7656V28.7656H66.207V18.7656ZM62.9844 18.7656H52.9844V35.3516H62.9844H72.9844V18.7656H62.9844ZM126.75 27.4023H136.75C136.75 21.8795 132.273 17.4023 126.75 17.4023V27.4023ZM126.75 32.4297V42.4297C132.273 42.4297 136.75 37.9525 136.75 32.4297H126.75ZM90.4844 32.4297H80.4844C80.4844 37.9525 84.9615 42.4297 90.4844 42.4297V32.4297ZM90.4844 27.4023V17.4023C84.9615 17.4023 80.4844 21.8795 80.4844 27.4023H90.4844ZM122.539 33.6328H132.539C132.539 28.11 128.062 23.6328 122.539 23.6328V33.6328ZM122.539 43.6445V53.6445C128.062 53.6445 132.539 49.1674 132.539 43.6445H122.539ZM101.312 43.6445V33.6445C95.7896 33.6445 91.3125 38.1217 91.3125 43.6445H101.312ZM101.312 44.9336H91.3125C91.3125 50.4564 95.7896 54.9336 101.312 54.9336V44.9336ZM123.613 44.9336H133.613C133.613 39.4107 129.136 34.9336 123.613 34.9336V44.9336ZM123.613 49.4883V59.4883C129.136 59.4883 133.613 55.0111 133.613 49.4883H123.613ZM94.4805 49.4883H84.4805C84.4805 55.0111 88.9576 59.4883 94.4805 59.4883V49.4883ZM94.4805 39.3906V29.3906C88.9576 29.3906 84.4805 33.8678 84.4805 39.3906H94.4805ZM115.707 39.3906V49.3906C121.23 49.3906 125.707 44.9135 125.707 39.3906H115.707ZM115.707 38.2734H125.707C125.707 32.7506 121.23 28.2734 115.707 28.2734V38.2734ZM94.4805 38.2734H84.4805C84.4805 43.7963 88.9576 48.2734 94.4805 48.2734V38.2734ZM94.4805 33.6328V23.6328C88.9576 23.6328 84.4805 28.11 84.4805 33.6328H94.4805ZM122.539 10.4727H132.539C132.539 4.94981 128.062 0.472656 122.539 0.472656V10.4727ZM122.539 20.4844V30.4844C128.062 30.4844 132.539 26.0072 132.539 20.4844H122.539ZM101.699 20.4844V10.4844C96.1764 10.4844 91.6992 14.9615 91.6992 20.4844H101.699ZM101.699 21.7734H91.6992C91.6992 27.2963 96.1764 31.7734 101.699 31.7734V21.7734ZM123.227 21.7734H133.227C133.227 16.2506 128.749 11.7734 123.227 11.7734V21.7734ZM123.227 26.2852V36.2852C128.749 36.2852 133.227 31.808 133.227 26.2852H123.227ZM94.8672 26.2852H84.8672C84.8672 31.808 89.3443 36.2852 94.8672 36.2852V26.2852ZM94.8672 16.2305V6.23047C89.3443 6.23047 84.8672 10.7076 84.8672 16.2305H94.8672ZM115.664 16.2305V26.2305C121.187 26.2305 125.664 21.7533 125.664 16.2305H115.664ZM115.664 15.0273H125.664C125.664 9.5045 121.187 5.02734 115.664 5.02734V15.0273ZM94.8242 15.0273H84.8242C84.8242 20.5502 89.3014 25.0273 94.8242 25.0273V15.0273ZM94.8242 10.4727V0.472656C89.3014 0.472656 84.8242 4.94981 84.8242 10.4727H94.8242ZM126.75 27.4023H116.75V32.4297H126.75H136.75V27.4023H126.75ZM126.75 32.4297V22.4297H90.4844V32.4297V42.4297H126.75V32.4297ZM90.4844 32.4297H100.484V27.4023H90.4844H80.4844V32.4297H90.4844ZM90.4844 27.4023V37.4023H126.75V27.4023V17.4023H90.4844V27.4023ZM122.539 33.6328H112.539V43.6445H122.539H132.539V33.6328H122.539ZM122.539 43.6445V33.6445H101.312V43.6445V53.6445H122.539V43.6445ZM101.312 43.6445H91.3125V44.9336H101.312H111.312V43.6445H101.312ZM101.312 44.9336V54.9336H123.613V44.9336V34.9336H101.312V44.9336ZM123.613 44.9336H113.613V49.4883H123.613H133.613V44.9336H123.613ZM123.613 49.4883V39.4883H94.4805V49.4883V59.4883H123.613V49.4883ZM94.4805 49.4883H104.48V39.3906H94.4805H84.4805V49.4883H94.4805ZM94.4805 39.3906V49.3906H115.707V39.3906V29.3906H94.4805V39.3906ZM115.707 39.3906H125.707V38.2734H115.707H105.707V39.3906H115.707ZM115.707 38.2734V28.2734H94.4805V38.2734V48.2734H115.707V38.2734ZM94.4805 38.2734H104.48V33.6328H94.4805H84.4805V38.2734H94.4805ZM94.4805 33.6328V43.6328H122.539V33.6328V23.6328H94.4805V33.6328ZM122.539 10.4727H112.539V20.4844H122.539H132.539V10.4727H122.539ZM122.539 20.4844V10.4844L101.699 10.4844V20.4844V30.4844H122.539V20.4844ZM101.699 20.4844H91.6992V21.7734H101.699H111.699V20.4844H101.699ZM101.699 21.7734V31.7734H123.227V21.7734V11.7734L101.699 11.7734V21.7734ZM123.227 21.7734H113.227V26.2852H123.227H133.227V21.7734H123.227ZM123.227 26.2852V16.2852H94.8672V26.2852V36.2852H123.227V26.2852ZM94.8672 26.2852H104.867V16.2305H94.8672H84.8672V26.2852H94.8672ZM94.8672 16.2305V26.2305H115.664V16.2305V6.23047L94.8672 6.23047V16.2305ZM115.664 16.2305H125.664V15.0273H115.664H105.664V16.2305H115.664ZM115.664 15.0273V5.02734L94.8242 5.02734V15.0273V25.0273H115.664V15.0273ZM94.8242 15.0273H104.824V10.4727H94.8242H84.8242V15.0273H94.8242ZM94.8242 10.4727V20.4727H122.539V10.4727V0.472656L94.8242 0.472656V10.4727ZM169.805 11.5469L179.805 11.5469C179.805 6.02403 175.328 1.54687 169.805 1.54687V11.5469ZM169.805 25.5547V35.5547C175.328 35.5547 179.805 31.0775 179.805 25.5547H169.805ZM159.621 25.5547V15.5547C154.098 15.5547 149.621 20.0318 149.621 25.5547H159.621ZM159.621 28.3906H149.621C149.621 33.9135 154.098 38.3906 159.621 38.3906V28.3906ZM174.359 28.3906H184.359C184.359 22.8678 179.882 18.3906 174.359 18.3906V28.3906ZM174.359 33.8477V43.8477C179.882 43.8477 184.359 39.3705 184.359 33.8477H174.359ZM138.094 33.8477H128.094C128.094 39.3705 132.571 43.8477 138.094 43.8477V33.8477ZM138.094 28.3906V18.3906C132.571 18.3906 128.094 22.8678 128.094 28.3906H138.094ZM152.746 28.3906V38.3906C158.269 38.3906 162.746 33.9135 162.746 28.3906H152.746ZM152.746 25.5547H162.746C162.746 20.0318 158.269 15.5547 152.746 15.5547V25.5547ZM142.477 25.5547H132.477C132.477 31.0775 136.954 35.5547 142.477 35.5547V25.5547ZM142.477 11.5469V1.54687C136.954 1.54687 132.477 6.02403 132.477 11.5469H142.477ZM149.18 16.875V6.875C143.657 6.875 139.18 11.3522 139.18 16.875H149.18ZM149.18 20.1836H139.18C139.18 25.7064 143.657 30.1836 149.18 30.1836V20.1836ZM163.016 20.1836V30.1836C168.538 30.1836 173.016 25.7064 173.016 20.1836H163.016ZM163.016 16.875H173.016C173.016 11.3522 168.538 6.875 163.016 6.875V16.875ZM172.125 44.2891L181.198 48.4937C182.554 45.5669 182.416 42.1657 180.825 39.3592C179.235 36.5527 176.389 34.6856 173.181 34.345L172.125 44.2891ZM169.676 49.5742L168.463 59.5004C172.77 60.0266 176.925 57.7155 178.749 53.7788L169.676 49.5742ZM156.184 43.2148L164.171 37.1978C162.295 34.7075 159.365 33.2347 156.247 33.215C153.129 33.1953 150.18 34.631 148.273 37.0974L156.184 43.2148ZM142.691 49.5742L133.59 53.7178C135.4 57.6931 139.581 60.0338 143.916 59.499L142.691 49.5742ZM140.285 44.2891L139.22 34.346C136.026 34.6882 133.191 36.5439 131.599 39.3341C130.007 42.1242 129.853 45.5092 131.184 48.4327L140.285 44.2891ZM152.66 35.1797V25.1797C147.137 25.1797 142.66 29.6568 142.66 35.1797H152.66ZM159.664 35.1797H169.664C169.664 29.6568 165.187 25.1797 159.664 25.1797V35.1797ZM169.805 11.5469H159.805V25.5547H169.805H179.805V11.5469L169.805 11.5469ZM169.805 25.5547V15.5547H159.621V25.5547V35.5547H169.805V25.5547ZM159.621 25.5547H149.621V28.3906H159.621H169.621V25.5547H159.621ZM159.621 28.3906V38.3906H174.359V28.3906V18.3906H159.621V28.3906ZM174.359 28.3906H164.359V33.8477H174.359H184.359V28.3906H174.359ZM174.359 33.8477V23.8477H138.094V33.8477V43.8477L174.359 43.8477V33.8477ZM138.094 33.8477L148.094 33.8477V28.3906H138.094H128.094V33.8477H138.094ZM138.094 28.3906V38.3906L152.746 38.3906V28.3906V18.3906H138.094V28.3906ZM152.746 28.3906H162.746V25.5547H152.746H142.746V28.3906H152.746ZM152.746 25.5547V15.5547H142.477V25.5547V35.5547H152.746V25.5547ZM142.477 25.5547H152.477V11.5469H142.477H132.477V25.5547H142.477ZM142.477 11.5469V21.5469H169.805V11.5469V1.54687L142.477 1.54687V11.5469ZM149.18 16.875H139.18V20.1836H149.18H159.18V16.875H149.18ZM149.18 20.1836V30.1836H163.016V20.1836V10.1836H149.18V20.1836ZM163.016 20.1836H173.016V16.875H163.016H153.016V20.1836H163.016ZM163.016 16.875V6.875H149.18V16.875V26.875H163.016V16.875ZM159.664 35.6953H149.664C149.664 40.3163 151.588 45.0688 155.864 48.6196C159.835 51.9176 165.116 53.601 171.069 54.2331L172.125 44.2891L173.181 34.345C169.423 33.9459 168.474 33.0941 168.642 33.2339C168.773 33.3428 169.079 33.6544 169.33 34.2002C169.575 34.7319 169.664 35.261 169.664 35.6953H159.664ZM172.125 44.2891L163.052 40.0845L160.603 45.3696L169.676 49.5742L178.749 53.7788L181.198 48.4937L172.125 44.2891ZM169.676 49.5742L170.889 39.648C165.791 39.0252 164.396 37.4963 164.171 37.1978L156.184 43.2148L148.196 49.2319C152.827 55.3787 160.197 58.4904 168.463 59.5004L169.676 49.5742ZM156.184 43.2148L148.273 37.0974C147.946 37.5199 146.451 39.0346 141.467 39.6495L142.691 49.5742L143.916 59.499C152.167 58.481 159.437 55.3551 164.094 49.3323L156.184 43.2148ZM142.691 49.5742L151.793 45.4306L149.386 40.1455L140.285 44.2891L131.184 48.4327L133.59 53.7178L142.691 49.5742ZM140.285 44.2891L141.35 54.2322C147.275 53.5974 152.536 51.9062 156.492 48.6018C160.743 45.052 162.66 40.3089 162.66 35.6953H152.66H142.66C142.66 35.2614 142.749 34.7371 142.99 34.2116C143.237 33.672 143.539 33.3621 143.672 33.2517C143.847 33.1055 142.92 33.9495 139.22 34.346L140.285 44.2891ZM152.66 35.6953H162.66V35.1797H152.66H142.66V35.6953H152.66ZM152.66 35.1797V45.1797H159.664V35.1797V25.1797H152.66V35.1797ZM159.664 35.1797H149.664V35.6953H159.664H169.664V35.1797H159.664ZM208.305 11.9336H218.305C218.305 6.41075 213.828 1.93359 208.305 1.93359V11.9336ZM208.305 17.3906V27.3906C213.828 27.3906 218.305 22.9135 218.305 17.3906H208.305ZM201.129 17.3906V7.39062C198.259 7.39062 195.528 8.62339 193.63 10.7754C191.731 12.9273 190.849 15.7911 191.207 18.6383L201.129 17.3906ZM209.98 26.2422L218.488 31.4986C220.15 28.8077 220.442 25.4888 219.274 22.5492C218.105 19.6097 215.615 17.3961 212.559 16.5804L209.98 26.2422ZM206.715 31.5273L204.168 41.1975C208.422 42.3182 212.909 40.5266 215.222 36.7837L206.715 31.5273ZM197.562 24.9102L206.169 19.8188C204.317 16.6871 200.909 14.8088 197.272 14.9144C193.635 15.0199 190.343 17.0927 188.675 20.3266L197.562 24.9102ZM188.109 32.3437L179.648 37.6736C182.006 41.417 186.544 43.166 190.804 41.9739L188.109 32.3437ZM184.672 26.8867L182.091 17.2255C179.021 18.0456 176.523 20.2764 175.362 23.235C174.202 26.1936 174.517 29.5276 176.211 32.2166L184.672 26.8867ZM193.91 17.3906L203.835 18.6172C204.186 15.773 203.301 12.9146 201.402 10.7674C199.504 8.62023 196.776 7.39062 193.91 7.39062V17.3906ZM186.52 17.3906H176.52C176.52 22.9135 180.997 27.3906 186.52 27.3906V17.3906ZM186.52 11.9336V1.93359C180.997 1.93359 176.52 6.41075 176.52 11.9336H186.52ZM217.5 10H227.5C227.5 4.47715 223.023 0 217.5 0V10ZM217.5 18.0352H207.5C207.5 23.558 211.977 28.0352 217.5 28.0352V18.0352ZM222.441 18.0352H232.441C232.441 12.5123 227.964 8.03516 222.441 8.03516V18.0352ZM222.441 23.6211V33.6211C227.964 33.6211 232.441 29.1439 232.441 23.6211H222.441ZM217.5 23.6211V13.6211C211.977 13.6211 207.5 18.0982 207.5 23.6211H217.5ZM217.5 32V42C223.023 42 227.5 37.5228 227.5 32H217.5ZM210.582 32H200.582C200.582 37.5228 205.059 42 210.582 42V32ZM210.582 10V0C205.059 0 200.582 4.47715 200.582 10H210.582ZM197.691 33.375H207.691C207.691 27.8522 203.214 23.375 197.691 23.375V33.375ZM197.691 36.2539H187.691C187.691 41.7768 192.169 46.2539 197.691 46.2539V36.2539ZM210.582 36.2539V46.2539C216.105 46.2539 220.582 41.7768 220.582 36.2539H210.582ZM210.582 33.375V23.375C205.059 23.375 200.582 27.8522 200.582 33.375H210.582ZM217.5 33.375H227.5C227.5 27.8522 223.023 23.375 217.5 23.375V33.375ZM217.5 49.4023V59.4023C223.023 59.4023 227.5 54.9252 227.5 49.4023H217.5ZM190.816 49.4023H180.816C180.816 54.9252 185.294 59.4023 190.816 59.4023V49.4023ZM190.816 33.375V23.375C185.294 23.375 180.816 27.8522 180.816 33.375H190.816ZM197.691 43.9023H187.691C187.691 49.4252 192.169 53.9023 197.691 53.9023V43.9023ZM210.582 43.9023V53.9023C216.105 53.9023 220.582 49.4252 220.582 43.9023H210.582ZM210.582 41.4961H220.582C220.582 35.9732 216.105 31.4961 210.582 31.4961V41.4961ZM197.691 41.4961V31.4961C192.169 31.4961 187.691 35.9732 187.691 41.4961H197.691ZM208.305 11.9336H198.305V17.3906L208.305 17.3906H218.305V11.9336H208.305ZM208.305 17.3906V7.39062H201.129V17.3906V27.3906L208.305 27.3906V17.3906ZM201.129 17.3906L191.207 18.6383C191.655 22.1978 193.093 25.976 196.016 29.2345C198.934 32.4886 202.85 34.6892 207.402 35.904L209.98 26.2422L212.559 16.5804C211.801 16.3782 211.358 16.1651 211.132 16.0338C210.913 15.9073 210.869 15.841 210.904 15.8807C210.94 15.9207 210.988 15.9911 211.023 16.0722C211.055 16.1448 211.055 16.1759 211.051 16.143L201.129 17.3906ZM209.98 26.2422L201.473 20.9858L198.208 26.2709L206.715 31.5273L215.222 36.7837L218.488 31.4986L209.98 26.2422ZM206.715 31.5273L209.262 21.8572C208.195 21.5761 207.545 21.2118 207.143 20.9124C206.745 20.6151 206.432 20.2635 206.169 19.8188L197.562 24.9102L188.956 30.0015C192.144 35.3918 197.306 39.3901 204.168 41.1975L206.715 31.5273ZM197.562 24.9102L188.675 20.3266C188.375 20.9076 188.028 21.3278 187.62 21.6603C187.212 21.9923 186.545 22.3974 185.415 22.7137L188.109 32.3437L190.804 41.9739C198.154 39.9171 203.411 35.3876 206.45 29.4937L197.562 24.9102ZM188.109 32.3437L196.571 27.0139L193.133 21.5568L184.672 26.8867L176.211 32.2166L179.648 37.6736L188.109 32.3437ZM184.672 26.8867L187.253 36.548C192.036 35.2703 196.059 32.9033 199.013 29.5055C201.946 26.1319 203.386 22.2461 203.835 18.6172L193.91 17.3906L183.986 16.164C183.972 16.2708 183.951 16.3284 183.943 16.3471C183.939 16.3581 183.936 16.3643 183.92 16.3831C183.905 16.4 183.816 16.5002 183.572 16.6457C183.322 16.7953 182.86 17.0202 182.091 17.2255L184.672 26.8867ZM193.91 17.3906V7.39062H186.52V17.3906V27.3906H193.91V17.3906ZM186.52 17.3906H196.52V11.9336H186.52H176.52V17.3906H186.52ZM186.52 11.9336V21.9336L208.305 21.9336V11.9336V1.93359L186.52 1.93359V11.9336ZM217.5 10H207.5V18.0352H217.5H227.5V10H217.5ZM217.5 18.0352V28.0352H222.441V18.0352V8.03516H217.5V18.0352ZM222.441 18.0352H212.441V23.6211H222.441H232.441V18.0352H222.441ZM222.441 23.6211V13.6211H217.5V23.6211V33.6211H222.441V23.6211ZM217.5 23.6211H207.5V32H217.5H227.5V23.6211H217.5ZM217.5 32V22H210.582V32V42H217.5V32ZM210.582 32H220.582V10H210.582H200.582V32H210.582ZM210.582 10V20H217.5V10V0L210.582 0V10ZM197.691 33.375H187.691V36.2539H197.691H207.691V33.375H197.691ZM197.691 36.2539V46.2539H210.582V36.2539V26.2539L197.691 26.2539V36.2539ZM210.582 36.2539H220.582V33.375H210.582H200.582V36.2539H210.582ZM210.582 33.375V43.375H217.5V33.375V23.375H210.582V33.375ZM217.5 33.375H207.5V49.4023H217.5H227.5V33.375H217.5ZM217.5 49.4023V39.4023H190.816V49.4023V59.4023H217.5V49.4023ZM190.816 49.4023H200.816V33.375H190.816H180.816V49.4023H190.816ZM190.816 33.375V43.375H197.691V33.375V23.375H190.816V33.375ZM197.691 43.9023V53.9023H210.582V43.9023V33.9023H197.691V43.9023ZM210.582 43.9023H220.582V41.4961H210.582H200.582V43.9023H210.582ZM210.582 41.4961V31.4961H197.691V41.4961V51.4961H210.582V41.4961ZM197.691 41.4961H187.691V43.9023H197.691H207.691V41.4961H197.691ZM256.086 20.0977H266.086C266.086 14.5748 261.609 10.0977 256.086 10.0977V20.0977ZM256.086 25.4258V35.4258C261.609 35.4258 266.086 30.9486 266.086 25.4258H256.086ZM227.984 25.4258H217.984C217.984 30.9486 222.462 35.4258 227.984 35.4258V25.4258ZM227.984 11.418V1.41797C222.462 1.41797 217.984 5.89512 217.984 11.418H227.984ZM234.859 11.418L244.859 11.418C244.859 5.89512 240.382 1.41797 234.859 1.41797V11.418ZM234.859 20.0977H224.859C224.859 25.6205 229.337 30.0977 234.859 30.0977V20.0977ZM259.996 28.9492H269.996C269.996 23.4264 265.519 18.9492 259.996 18.9492V28.9492ZM259.996 34.2773V44.2773C265.519 44.2773 269.996 39.8002 269.996 34.2773H259.996ZM223.73 34.2773H213.73C213.73 39.8002 218.208 44.2773 223.73 44.2773V34.2773ZM223.73 28.9492V18.9492C218.208 18.9492 213.73 23.4264 213.73 28.9492H223.73ZM256.344 43.4727H266.344C266.344 37.9498 261.867 33.4727 256.344 33.4727V43.4727ZM256.344 48.9727V58.9727C261.867 58.9727 266.344 54.4955 266.344 48.9727H256.344ZM227.512 48.9727H217.512C217.512 54.4955 221.989 58.9727 227.512 58.9727V48.9727ZM227.512 37.0273V27.0273C221.989 27.0273 217.512 31.5045 217.512 37.0273H227.512ZM234.473 37.0273H244.473C244.473 31.5045 239.995 27.0273 234.473 27.0273V37.0273ZM234.473 43.4727H224.473C224.473 48.9955 228.95 53.4727 234.473 53.4727V43.4727ZM256.086 20.0977H246.086V25.4258H256.086H266.086V20.0977H256.086ZM256.086 25.4258V15.4258H227.984V25.4258V35.4258H256.086V25.4258ZM227.984 25.4258H237.984V11.418L227.984 11.418H217.984V25.4258H227.984ZM227.984 11.418V21.418H234.859V11.418V1.41797H227.984V11.418ZM234.859 11.418H224.859V20.0977H234.859H244.859V11.418L234.859 11.418ZM234.859 20.0977V30.0977H256.086V20.0977V10.0977L234.859 10.0977V20.0977ZM259.996 28.9492H249.996V34.2773H259.996H269.996V28.9492H259.996ZM259.996 34.2773V24.2773H223.73V34.2773V44.2773H259.996V34.2773ZM223.73 34.2773H233.73V28.9492H223.73H213.73V34.2773H223.73ZM223.73 28.9492V38.9492H259.996V28.9492V18.9492H223.73V28.9492ZM256.344 43.4727H246.344V48.9727H256.344H266.344V43.4727H256.344ZM256.344 48.9727V38.9727H227.512V48.9727V58.9727H256.344V48.9727ZM227.512 48.9727H237.512V37.0273H227.512H217.512V48.9727H227.512ZM227.512 37.0273V47.0273H234.473V37.0273V27.0273H227.512V37.0273ZM234.473 37.0273H224.473V43.4727H234.473H244.473V37.0273H234.473ZM234.473 43.4727V53.4727H256.344V43.4727V33.4727H234.473V43.4727Z" fill="white" mask="url(#path-1-outside-1_6526_5738)"/>
</g>
<defs>
<filter id="filter0_d_6526_5738" x="0" y="0" width="273.996" height="67.7461" filterUnits="userSpaceOnUse" color-interpolation-filters="sRGB">
<feFlood flood-opacity="0" result="BackgroundImageFix"/>
<feColorMatrix in="SourceAlpha" type="matrix" values="0 0 0 0 0 0 0 0 0 0 0 0 0 0 0 0 0 0 127 0" result="hardAlpha"/>
<feOffset dy="4"/>
<feGaussianBlur stdDeviation="2"/>
<feComposite in2="hardAlpha" operator="out"/>
<feColorMatrix type="matrix" values="0 0 0 0 0 0 0 0 0 0 0 0 0 0 0 0 0 0 0.07 0"/>
<feBlend mode="normal" in2="BackgroundImageFix" result="effect1_dropShadow_6526_5738"/>
<feBlend mode="normal" in="SourceGraphic" in2="effect1_dropShadow_6526_5738" result="shape"/>
</filter>
</defs>
</svg>
