<svg width="313" height="68" viewBox="0 0 313 68" fill="none" xmlns="http://www.w3.org/2000/svg">
<g filter="url(#filter0_d_6526_5729)">
<mask id="path-1-outside-1_6526_5729" maskUnits="userSpaceOnUse" x="3.78516" y="-0.507813" width="305" height="61" fill="black">
<rect fill="white" x="3.78516" y="-0.507813" width="305" height="61"/>
<path d="M46.4844 10V18.0781H51.4258V23.707H46.4844V32H39.5664V10L46.4844 10ZM35.1836 12.1914C35.1836 23.0195 28.7383 30.1094 16.707 33.2461L14 27.7461C22.293 25.834 26.6328 22.0098 27.5781 17.6055H16.0625V12.1914H35.1836ZM46.4844 33.2891V49.3164H19.9727V33.2891H46.4844ZM26.8047 38.7891V43.9883H39.6953V38.7891H26.8047ZM86.5312 10V33.5898H79.6562V24.8242L74.6719 24.8242V19.2812L79.6562 19.2812V10H86.5312ZM72.6953 34.2344C81.332 34.2344 86.6172 37.1133 86.6172 42.0547C86.6172 46.9531 81.332 49.875 72.6953 49.875C64.1445 49.875 58.8594 46.9531 58.8594 42.0547C58.8594 37.1133 64.1445 34.2344 72.6953 34.2344ZM72.6953 39.4336C67.9688 39.4336 65.6914 40.1641 65.7344 42.0547C65.6914 43.9023 67.9688 44.6758 72.6953 44.6758C77.4648 44.6758 79.7852 43.9023 79.7852 42.0547C79.7852 40.1641 77.4648 39.4336 72.6953 39.4336ZM75.7461 12.1055V17.6055H68.5703C68.9785 21.5801 71.2988 25.5762 77.1641 27.4883L73.8555 32.8594C69.6016 31.5488 66.7871 28.9707 65.0469 25.7695C63.3281 29.4219 60.3418 32.3652 55.7656 33.8477L52.1992 28.3906C58.5371 26.3711 60.9219 21.8594 61.3516 17.6055H54.1328V12.1055H75.7461ZM134.055 10V49.7461H127.051V10H134.055ZM122.023 14.082C122.023 26.543 118.5 36.4688 103.762 43.3438L100.238 37.9297C110.164 33.2031 114.139 27.7461 115.02 19.4531H102.516V14.082H122.023ZM174.617 29.207V34.6641L138.352 34.6641V29.207L152.918 29.207V26.7578H142.863V11.0312H149.609V14.0391H163.188V11.0312H170.02V26.7578H159.879V29.207H174.617ZM170.234 36.6406V49.7461H163.359V42.0117H142.391V36.6406H170.234ZM149.609 21.3437H163.188V19.0664H149.609V21.3437ZM209.938 10V49.875H202.977V10H209.938ZM188.109 12.6641C194.168 12.6211 198.723 18.207 198.723 26.9727C198.723 35.8672 194.168 41.4102 188.109 41.4102C181.922 41.4102 177.324 35.8672 177.324 26.9727C177.324 18.207 181.922 12.6211 188.109 12.6641ZM188.109 18.8945C185.574 18.8516 183.984 21.4727 183.984 26.9727C183.984 32.5586 185.574 35.0937 188.109 35.0937C190.473 35.0937 192.105 32.5586 192.105 26.9727C192.105 21.4727 190.473 18.8516 188.109 18.8945ZM239.113 34.793C239.113 37.7578 240.145 40.7871 242.98 42.9141C245.838 40.7012 246.977 37.6504 247.02 34.793V33.9336H253.766V34.793C253.766 38.9609 255.441 42.6133 260.855 44.2031L257.547 49.1445C253.873 47.9629 251.531 45.7715 250.156 42.9141C248.824 45.8145 246.568 48.2422 243.109 49.5312C239.479 48.2637 237.201 45.9004 235.891 43.043C234.473 45.793 232.174 47.9629 228.672 49.1445L225.32 44.2031C230.648 42.4414 232.367 38.6602 232.367 34.793V33.9336H239.113V34.793ZM257.504 10.0859V32.3437H250.586V10.0859H257.504ZM235.547 11.8906C241.82 11.8906 246.676 15.9297 246.676 21.6445C246.676 27.1875 241.82 31.2695 235.547 31.2695C229.23 31.2695 224.375 27.1875 224.418 21.6445C224.375 15.9297 229.23 11.8906 235.547 11.8906ZM235.547 17.6484C232.926 17.6484 231.121 18.9805 231.121 21.6445C231.121 24.1797 232.926 25.5977 235.547 25.5547C238.039 25.5977 239.844 24.1797 239.844 21.6445C239.844 18.9805 238.039 17.6484 235.547 17.6484ZM294.371 20.0977V25.4258H266.27V11.418H273.145V20.0977H294.371ZM298.281 28.9492V34.2773H262.016V28.9492H298.281ZM294.629 43.4727V48.9727H265.797V37.0273H272.758V43.4727H294.629Z"/>
</mask>
<path d="M46.4844 10V18.0781H51.4258V23.707H46.4844V32H39.5664V10L46.4844 10ZM35.1836 12.1914C35.1836 23.0195 28.7383 30.1094 16.707 33.2461L14 27.7461C22.293 25.834 26.6328 22.0098 27.5781 17.6055H16.0625V12.1914H35.1836ZM46.4844 33.2891V49.3164H19.9727V33.2891H46.4844ZM26.8047 38.7891V43.9883H39.6953V38.7891H26.8047ZM86.5312 10V33.5898H79.6562V24.8242L74.6719 24.8242V19.2812L79.6562 19.2812V10H86.5312ZM72.6953 34.2344C81.332 34.2344 86.6172 37.1133 86.6172 42.0547C86.6172 46.9531 81.332 49.875 72.6953 49.875C64.1445 49.875 58.8594 46.9531 58.8594 42.0547C58.8594 37.1133 64.1445 34.2344 72.6953 34.2344ZM72.6953 39.4336C67.9688 39.4336 65.6914 40.1641 65.7344 42.0547C65.6914 43.9023 67.9688 44.6758 72.6953 44.6758C77.4648 44.6758 79.7852 43.9023 79.7852 42.0547C79.7852 40.1641 77.4648 39.4336 72.6953 39.4336ZM75.7461 12.1055V17.6055H68.5703C68.9785 21.5801 71.2988 25.5762 77.1641 27.4883L73.8555 32.8594C69.6016 31.5488 66.7871 28.9707 65.0469 25.7695C63.3281 29.4219 60.3418 32.3652 55.7656 33.8477L52.1992 28.3906C58.5371 26.3711 60.9219 21.8594 61.3516 17.6055H54.1328V12.1055H75.7461ZM134.055 10V49.7461H127.051V10H134.055ZM122.023 14.082C122.023 26.543 118.5 36.4688 103.762 43.3438L100.238 37.9297C110.164 33.2031 114.139 27.7461 115.02 19.4531H102.516V14.082H122.023ZM174.617 29.207V34.6641L138.352 34.6641V29.207L152.918 29.207V26.7578H142.863V11.0312H149.609V14.0391H163.188V11.0312H170.02V26.7578H159.879V29.207H174.617ZM170.234 36.6406V49.7461H163.359V42.0117H142.391V36.6406H170.234ZM149.609 21.3437H163.188V19.0664H149.609V21.3437ZM209.938 10V49.875H202.977V10H209.938ZM188.109 12.6641C194.168 12.6211 198.723 18.207 198.723 26.9727C198.723 35.8672 194.168 41.4102 188.109 41.4102C181.922 41.4102 177.324 35.8672 177.324 26.9727C177.324 18.207 181.922 12.6211 188.109 12.6641ZM188.109 18.8945C185.574 18.8516 183.984 21.4727 183.984 26.9727C183.984 32.5586 185.574 35.0937 188.109 35.0937C190.473 35.0937 192.105 32.5586 192.105 26.9727C192.105 21.4727 190.473 18.8516 188.109 18.8945ZM239.113 34.793C239.113 37.7578 240.145 40.7871 242.98 42.9141C245.838 40.7012 246.977 37.6504 247.02 34.793V33.9336H253.766V34.793C253.766 38.9609 255.441 42.6133 260.855 44.2031L257.547 49.1445C253.873 47.9629 251.531 45.7715 250.156 42.9141C248.824 45.8145 246.568 48.2422 243.109 49.5312C239.479 48.2637 237.201 45.9004 235.891 43.043C234.473 45.793 232.174 47.9629 228.672 49.1445L225.32 44.2031C230.648 42.4414 232.367 38.6602 232.367 34.793V33.9336H239.113V34.793ZM257.504 10.0859V32.3437H250.586V10.0859H257.504ZM235.547 11.8906C241.82 11.8906 246.676 15.9297 246.676 21.6445C246.676 27.1875 241.82 31.2695 235.547 31.2695C229.23 31.2695 224.375 27.1875 224.418 21.6445C224.375 15.9297 229.23 11.8906 235.547 11.8906ZM235.547 17.6484C232.926 17.6484 231.121 18.9805 231.121 21.6445C231.121 24.1797 232.926 25.5977 235.547 25.5547C238.039 25.5977 239.844 24.1797 239.844 21.6445C239.844 18.9805 238.039 17.6484 235.547 17.6484ZM294.371 20.0977V25.4258H266.27V11.418H273.145V20.0977H294.371ZM298.281 28.9492V34.2773H262.016V28.9492H298.281ZM294.629 43.4727V48.9727H265.797V37.0273H272.758V43.4727H294.629Z" fill="#11DCA9"/>
<path d="M46.4844 10H56.4844C56.4844 4.47715 52.0072 0 46.4844 0V10ZM46.4844 18.0781H36.4844C36.4844 23.601 40.9615 28.0781 46.4844 28.0781V18.0781ZM51.4258 18.0781H61.4258C61.4258 12.5553 56.9486 8.07812 51.4258 8.07812V18.0781ZM51.4258 23.707V33.707C56.9486 33.707 61.4258 29.2299 61.4258 23.707H51.4258ZM46.4844 23.707V13.707C40.9615 13.707 36.4844 18.1842 36.4844 23.707H46.4844ZM46.4844 32V42C52.0072 42 56.4844 37.5228 56.4844 32H46.4844ZM39.5664 32H29.5664C29.5664 37.5228 34.0436 42 39.5664 42V32ZM39.5664 10V0C34.0436 0 29.5664 4.47715 29.5664 10H39.5664ZM35.1836 12.1914H45.1836C45.1836 6.66856 40.7064 2.19141 35.1836 2.19141V12.1914ZM16.707 33.2461L7.7349 37.6621C9.8317 41.9222 14.6352 44.1205 19.2298 42.9226L16.707 33.2461ZM14 27.7461L11.7532 18.0018C8.77692 18.688 6.27743 20.6969 4.96704 23.4559C3.65664 26.215 3.67904 29.4216 5.02787 32.1621L14 27.7461ZM27.5781 17.6055L37.3555 19.704C37.9893 16.7508 37.2544 13.6693 35.3558 11.32C33.4573 8.97073 30.5986 7.60547 27.5781 7.60547V17.6055ZM16.0625 17.6055H6.0625C6.0625 23.1283 10.5397 27.6055 16.0625 27.6055V17.6055ZM16.0625 12.1914V2.19141C10.5397 2.19141 6.0625 6.66856 6.0625 12.1914H16.0625ZM46.4844 33.2891H56.4844C56.4844 27.7662 52.0072 23.2891 46.4844 23.2891V33.2891ZM46.4844 49.3164V59.3164C52.0072 59.3164 56.4844 54.8393 56.4844 49.3164H46.4844ZM19.9727 49.3164H9.97266C9.97266 54.8393 14.4498 59.3164 19.9727 59.3164V49.3164ZM19.9727 33.2891V23.2891C14.4498 23.2891 9.97266 27.7662 9.97266 33.2891H19.9727ZM26.8047 38.7891V28.7891C21.2818 28.7891 16.8047 33.2662 16.8047 38.7891H26.8047ZM26.8047 43.9883H16.8047C16.8047 49.5111 21.2818 53.9883 26.8047 53.9883V43.9883ZM39.6953 43.9883V53.9883C45.2182 53.9883 49.6953 49.5111 49.6953 43.9883H39.6953ZM39.6953 38.7891H49.6953C49.6953 33.2662 45.2182 28.7891 39.6953 28.7891V38.7891ZM46.4844 10L36.4844 10V18.0781H46.4844H56.4844V10H46.4844ZM46.4844 18.0781V28.0781H51.4258V18.0781V8.07812H46.4844V18.0781ZM51.4258 18.0781H41.4258V23.707H51.4258H61.4258V18.0781H51.4258ZM51.4258 23.707V13.707H46.4844V23.707V33.707H51.4258V23.707ZM46.4844 23.707H36.4844V32H46.4844H56.4844V23.707H46.4844ZM46.4844 32V22H39.5664V32V42H46.4844V32ZM39.5664 32H49.5664V10L39.5664 10H29.5664V32H39.5664ZM39.5664 10V20H46.4844V10V0H39.5664V10ZM35.1836 12.1914H25.1836C25.1836 15.4844 24.2651 17.5114 22.9703 18.9736C21.5452 20.5831 18.9105 22.3373 14.1842 23.5696L16.707 33.2461L19.2298 42.9226C26.5348 41.0181 33.1384 37.6591 37.9437 32.2325C42.8795 26.6585 45.1836 19.7265 45.1836 12.1914H35.1836ZM16.707 33.2461L25.6792 28.8301L22.9721 23.3301L14 27.7461L5.02787 32.1621L7.7349 37.6621L16.707 33.2461ZM14 27.7461L16.2468 37.4904C26.1029 35.2179 35.2075 29.7113 37.3555 19.704L27.5781 17.6055L17.8008 15.5069C17.8962 15.0626 18.0887 15.184 17.3972 15.7229C16.6181 16.3301 14.9225 17.271 11.7532 18.0018L14 27.7461ZM27.5781 17.6055V7.60547H16.0625V17.6055V27.6055H27.5781V17.6055ZM16.0625 17.6055H26.0625V12.1914H16.0625H6.0625L6.0625 17.6055H16.0625ZM16.0625 12.1914V22.1914H35.1836V12.1914V2.19141L16.0625 2.19141V12.1914ZM46.4844 33.2891H36.4844V49.3164H46.4844H56.4844V33.2891H46.4844ZM46.4844 49.3164V39.3164H19.9727V49.3164V59.3164H46.4844V49.3164ZM19.9727 49.3164H29.9727V33.2891H19.9727H9.97266L9.97266 49.3164H19.9727ZM19.9727 33.2891V43.2891H46.4844V33.2891V23.2891H19.9727V33.2891ZM26.8047 38.7891H16.8047V43.9883H26.8047H36.8047V38.7891H26.8047ZM26.8047 43.9883V53.9883H39.6953V43.9883V33.9883H26.8047V43.9883ZM39.6953 43.9883H49.6953V38.7891H39.6953H29.6953V43.9883H39.6953ZM39.6953 38.7891V28.7891H26.8047V38.7891V48.7891H39.6953V38.7891ZM86.5312 10H96.5312C96.5312 4.47715 92.0541 0 86.5312 0V10ZM86.5312 33.5898V43.5898C92.0541 43.5898 96.5312 39.1127 96.5312 33.5898H86.5312ZM79.6562 33.5898H69.6562C69.6562 39.1127 74.1334 43.5898 79.6562 43.5898V33.5898ZM79.6562 24.8242H89.6562C89.6562 19.3014 85.1791 14.8242 79.6562 14.8242V24.8242ZM74.6719 24.8242H64.6719C64.6719 30.3471 69.149 34.8242 74.6719 34.8242V24.8242ZM74.6719 19.2812V9.28125C69.149 9.28125 64.6719 13.7584 64.6719 19.2812H74.6719ZM79.6562 19.2812V29.2812C85.1791 29.2812 89.6562 24.8041 89.6562 19.2812H79.6562ZM79.6562 10V0C74.1334 0 69.6562 4.47715 69.6562 10H79.6562ZM65.7344 42.0547L75.7317 42.2872C75.7352 42.134 75.7353 41.9807 75.7318 41.8275L65.7344 42.0547ZM75.7461 12.1055H85.7461C85.7461 6.58262 81.2689 2.10547 75.7461 2.10547V12.1055ZM75.7461 17.6055V27.6055C81.2689 27.6055 85.7461 23.1283 85.7461 17.6055L75.7461 17.6055ZM68.5703 17.6055V7.60547C65.7404 7.60547 63.0429 8.80453 61.1468 10.9053C59.2507 13.0062 58.3335 15.812 58.6226 18.6271L68.5703 17.6055ZM77.1641 27.4883L85.6783 32.7331C87.286 30.1232 87.6079 26.9202 86.5517 24.0426C85.4955 21.1651 83.1779 18.9308 80.2636 17.9808L77.1641 27.4883ZM73.8555 32.8594L70.9112 42.4161C75.2671 43.7581 79.9792 41.9848 82.3697 38.1041L73.8555 32.8594ZM65.0469 25.7695L73.8326 20.9934C72.0325 17.6822 68.5237 15.6643 64.7565 15.7738C60.9892 15.8832 57.6035 18.1014 55.9987 21.5116L65.0469 25.7695ZM55.7656 33.8477L47.3948 39.3184C49.8631 43.0953 54.555 44.7514 58.8474 43.3609L55.7656 33.8477ZM52.1992 28.3906L49.1632 18.8626C46.1866 19.8111 43.8244 22.0961 42.7775 25.0394C41.7305 27.9828 42.1193 31.2463 43.8284 33.8613L52.1992 28.3906ZM61.3516 17.6055L71.3009 18.6105C71.585 15.7977 70.6653 12.9962 68.7694 10.8991C66.8735 8.80207 64.1786 7.60547 61.3516 7.60547V17.6055ZM54.1328 17.6055H44.1328C44.1328 23.1283 48.61 27.6055 54.1328 27.6055V17.6055ZM54.1328 12.1055V2.10547C48.61 2.10547 44.1328 6.58262 44.1328 12.1055L54.1328 12.1055ZM86.5312 10H76.5312V33.5898H86.5312H96.5312V10H86.5312ZM86.5312 33.5898V23.5898H79.6562V33.5898V43.5898H86.5312V33.5898ZM79.6562 33.5898H89.6562V24.8242H79.6562L69.6562 24.8242V33.5898H79.6562ZM79.6562 24.8242V14.8242L74.6719 14.8242V24.8242V34.8242H79.6562V24.8242ZM74.6719 24.8242L84.6719 24.8242V19.2812L74.6719 19.2812H64.6719V24.8242H74.6719ZM74.6719 19.2812V29.2812H79.6562V19.2812V9.28125H74.6719V19.2812ZM79.6562 19.2812H89.6562V10H79.6562H69.6562V19.2812L79.6562 19.2812ZM79.6562 10V20H86.5312V10V0L79.6562 0V10ZM72.6953 34.2344V44.2344C74.3179 44.2344 75.5871 44.3712 76.5249 44.5616C77.4804 44.7555 77.9278 44.9714 78.0286 45.0275C78.1125 45.0742 77.7112 44.8702 77.2852 44.2182C76.8168 43.5014 76.6172 42.6952 76.6172 42.0547H86.6172H96.6172C96.6172 35.2516 92.6637 30.2863 87.7614 27.5555C83.2919 25.0657 77.8985 24.2344 72.6953 24.2344V34.2344ZM86.6172 42.0547H76.6172C76.6172 41.3866 76.8258 40.5745 77.2904 39.865C77.7121 39.2211 78.1047 39.0231 78.0137 39.074C77.9077 39.1333 77.4576 39.3506 76.5065 39.5455C75.5725 39.737 74.3091 39.875 72.6953 39.875V49.875V59.875C77.9215 59.875 83.3132 59.0256 87.7763 56.5295C92.6448 53.8066 96.6172 48.8554 96.6172 42.0547H86.6172ZM72.6953 49.875V39.875C71.1089 39.875 69.866 39.7379 68.9475 39.5484C68.0122 39.3553 67.5706 39.1406 67.4688 39.0834C67.3816 39.0344 67.7718 39.2329 68.1901 39.8732C68.6511 40.5786 68.8594 41.387 68.8594 42.0547H58.8594H48.8594C48.8594 48.8478 52.8231 53.7955 57.6728 56.5201C62.1248 59.0212 67.4982 59.875 72.6953 59.875V49.875ZM58.8594 42.0547H68.8594C68.8594 42.6948 68.6601 43.4973 68.1954 44.2101C67.7726 44.8584 67.3739 45.063 67.4538 45.0182C67.5504 44.9642 67.9893 44.7509 68.929 44.5588C69.8513 44.3702 71.1 44.2344 72.6953 44.2344V34.2344V24.2344C67.5213 24.2344 62.1463 25.07 57.6878 27.5648C52.8042 30.2974 48.8594 35.2592 48.8594 42.0547H58.8594ZM72.6953 39.4336V29.4336C70.1698 29.4336 66.9196 29.5812 64.0159 30.6347C62.4584 31.1997 60.2819 32.2766 58.4873 34.4095C56.5065 36.7637 55.6758 39.5902 55.737 42.2819L65.7344 42.0547L75.7318 41.8275C75.7715 43.5739 75.2093 45.6 73.7911 47.2856C72.5592 48.7498 71.2393 49.2896 70.8367 49.4356C70.4048 49.5923 70.2823 49.5641 70.7178 49.5155C71.1096 49.4717 71.7444 49.4336 72.6953 49.4336V39.4336ZM65.7344 42.0547L55.7371 41.8222C55.6733 44.5629 56.5407 47.3821 58.5065 49.7045C60.2839 51.8043 62.4313 52.8764 63.9773 53.4445C66.8791 54.5107 70.1232 54.6758 72.6953 54.6758V44.6758V34.6758C71.7609 34.6758 71.1369 34.6362 70.7553 34.5921C70.3319 34.5432 70.4509 34.5158 70.8752 34.6717C71.2665 34.8155 72.5572 35.3478 73.7719 36.7829C75.1752 38.4407 75.7739 40.4703 75.7317 42.2872L65.7344 42.0547ZM72.6953 44.6758V54.6758C75.2958 54.6758 78.5296 54.5082 81.4221 53.4648C82.9575 52.9109 85.0772 51.8732 86.8597 49.8449C88.8326 47.5998 89.7852 44.8269 89.7852 42.0547H79.7852H69.7852C69.7852 40.2063 70.4476 38.2229 71.8364 36.6426C73.0348 35.2789 74.2764 34.781 74.6355 34.6514C75.0295 34.5093 75.1202 34.5405 74.6813 34.5906C74.2821 34.6361 73.6422 34.6758 72.6953 34.6758V44.6758ZM79.7852 42.0547H89.7852C89.7852 39.3294 88.8694 36.547 86.8795 34.2689C85.0791 32.2078 82.9303 31.1656 81.384 30.6148C78.4895 29.5839 75.2498 29.4336 72.6953 29.4336V39.4336V49.4336C73.6585 49.4336 74.3092 49.4718 74.7184 49.5169C75.1692 49.5667 75.0751 49.5985 74.6736 49.4555C74.3036 49.3237 73.033 48.8186 71.8167 47.4262C70.4109 45.8167 69.7852 43.8347 69.7852 42.0547H79.7852ZM75.7461 12.1055H65.7461V17.6055H75.7461L85.7461 17.6055V12.1055H75.7461ZM75.7461 17.6055V7.60547H68.5703V17.6055V27.6055H75.7461V17.6055ZM68.5703 17.6055L58.6226 18.6271C59.4142 26.334 64.2505 33.7964 74.0645 36.9958L77.1641 27.4883L80.2636 17.9808C79.5917 17.7617 79.1969 17.541 78.9868 17.3996C78.7828 17.2624 78.7042 17.1678 78.6814 17.1389C78.6591 17.1105 78.5593 16.9857 78.518 16.5838L68.5703 17.6055ZM77.1641 27.4883L68.6498 22.2435L65.3412 27.6146L73.8555 32.8594L82.3697 38.1041L85.6783 32.7331L77.1641 27.4883ZM73.8555 32.8594L76.7997 23.3026C75.8712 23.0166 75.2906 22.6575 74.9034 22.3354C74.5095 22.0078 74.1524 21.5818 73.8326 20.9934L65.0469 25.7695L56.2612 30.5457C59.1939 35.9405 64.0518 40.3029 70.9112 42.4161L73.8555 32.8594ZM65.0469 25.7695L55.9987 21.5116C55.3954 22.7935 54.496 23.7473 52.6839 24.3344L55.7656 33.8477L58.8474 43.3609C66.1876 40.9831 71.2608 36.0503 74.0951 30.0275L65.0469 25.7695ZM55.7656 33.8477L64.1365 28.3769L60.5701 22.9199L52.1992 28.3906L43.8284 33.8613L47.3948 39.3184L55.7656 33.8477ZM52.1992 28.3906L55.2353 37.9186C65.8918 34.523 70.5289 26.2539 71.3009 18.6105L61.3516 17.6055L51.4022 16.6005C51.3357 17.2589 51.1523 17.6219 51.0071 17.8144C50.9174 17.9335 50.534 18.4258 49.1632 18.8626L52.1992 28.3906ZM61.3516 17.6055V7.60547H54.1328V17.6055V27.6055H61.3516V17.6055ZM54.1328 17.6055H64.1328V12.1055H54.1328L44.1328 12.1055V17.6055H54.1328ZM54.1328 12.1055V22.1055H75.7461V12.1055V2.10547L54.1328 2.10547V12.1055ZM134.055 10H144.055C144.055 4.47715 139.578 0 134.055 0V10ZM134.055 49.7461V59.7461C139.578 59.7461 144.055 55.2689 144.055 49.7461L134.055 49.7461ZM127.051 49.7461H117.051C117.051 55.2689 121.528 59.7461 127.051 59.7461V49.7461ZM127.051 10V0C121.528 0 117.051 4.47715 117.051 10H127.051ZM122.023 14.082H132.023C132.023 8.55918 127.546 4.08203 122.023 4.08203V14.082ZM103.762 43.3438L95.3803 48.7983C98.0978 52.9739 103.474 54.5123 107.989 52.4063L103.762 43.3438ZM100.238 37.9297L95.9389 28.9011C93.3364 30.1404 91.3952 32.4424 90.6133 35.2169C89.8313 37.9913 90.2846 40.9683 91.8569 43.3842L100.238 37.9297ZM115.02 19.4531L124.964 20.5094C125.263 17.6892 124.351 14.8745 122.455 12.7659C120.558 10.6573 117.856 9.45312 115.02 9.45312V19.4531ZM102.516 19.4531H92.5156C92.5156 24.976 96.9928 29.4531 102.516 29.4531V19.4531ZM102.516 14.082V4.08203C96.9928 4.08203 92.5156 8.55918 92.5156 14.082H102.516ZM134.055 10H124.055V49.7461H134.055L144.055 49.7461V10H134.055ZM134.055 49.7461V39.7461H127.051V49.7461V59.7461H134.055V49.7461ZM127.051 49.7461H137.051V10H127.051H117.051V49.7461H127.051ZM127.051 10V20H134.055V10V0L127.051 0V10ZM122.023 14.082H112.023C112.023 19.4566 111.245 23.132 109.679 25.9487C108.197 28.6154 105.443 31.5252 99.5343 34.2812L103.762 43.3438L107.989 52.4063C116.819 48.2873 123.196 42.7967 127.16 35.6665C131.04 28.6864 132.023 21.1684 132.023 14.082H122.023ZM103.762 43.3438L112.143 37.8892L108.62 32.4751L100.238 37.9297L91.8569 43.3842L95.3803 48.7983L103.762 43.3438ZM100.238 37.9297L104.538 46.9583C110.317 44.2061 115.264 40.8257 118.892 36.197C122.63 31.4275 124.37 26.0982 124.964 20.5094L115.02 19.4531L105.075 18.3969C104.788 21.101 104.101 22.6468 103.15 23.8606C102.088 25.2154 100.085 26.9267 95.9389 28.9011L100.238 37.9297ZM115.02 19.4531V9.45312L102.516 9.45312V19.4531V29.4531H115.02V19.4531ZM102.516 19.4531H112.516V14.082H102.516H92.5156V19.4531H102.516ZM102.516 14.082V24.082H122.023V14.082V4.08203H102.516V14.082ZM174.617 29.207H184.617C184.617 23.6842 180.14 19.207 174.617 19.207V29.207ZM174.617 34.6641V44.6641C180.14 44.6641 184.617 40.1869 184.617 34.6641H174.617ZM138.352 34.6641H128.352C128.352 40.1869 132.829 44.6641 138.352 44.6641V34.6641ZM138.352 29.207V19.207C132.829 19.207 128.352 23.6842 128.352 29.207H138.352ZM152.918 29.207V39.207C158.441 39.207 162.918 34.7299 162.918 29.207H152.918ZM152.918 26.7578H162.918C162.918 21.235 158.441 16.7578 152.918 16.7578V26.7578ZM142.863 26.7578H132.863C132.863 32.2807 137.34 36.7578 142.863 36.7578V26.7578ZM142.863 11.0312V1.03125C137.34 1.03125 132.863 5.5084 132.863 11.0312H142.863ZM149.609 11.0312H159.609C159.609 5.5084 155.132 1.03125 149.609 1.03125V11.0312ZM149.609 14.0391H139.609C139.609 19.5619 144.087 24.0391 149.609 24.0391V14.0391ZM163.188 14.0391V24.0391C168.71 24.0391 173.188 19.5619 173.188 14.0391H163.188ZM163.188 11.0312V1.03125C157.665 1.03125 153.188 5.5084 153.188 11.0312H163.188ZM170.02 11.0312L180.02 11.0312C180.02 5.5084 175.542 1.03125 170.02 1.03125V11.0312ZM170.02 26.7578V36.7578C175.542 36.7578 180.02 32.2807 180.02 26.7578H170.02ZM159.879 26.7578V16.7578C154.356 16.7578 149.879 21.235 149.879 26.7578H159.879ZM159.879 29.207H149.879C149.879 34.7299 154.356 39.207 159.879 39.207V29.207ZM170.234 36.6406H180.234C180.234 31.1178 175.757 26.6406 170.234 26.6406V36.6406ZM170.234 49.7461V59.7461C175.757 59.7461 180.234 55.2689 180.234 49.7461H170.234ZM163.359 49.7461H153.359C153.359 55.2689 157.837 59.7461 163.359 59.7461V49.7461ZM163.359 42.0117H173.359C173.359 36.4889 168.882 32.0117 163.359 32.0117V42.0117ZM142.391 42.0117L132.391 42.0117C132.391 47.5346 136.868 52.0117 142.391 52.0117V42.0117ZM142.391 36.6406V26.6406C136.868 26.6406 132.391 31.1178 132.391 36.6406L142.391 36.6406ZM149.609 21.3437H139.609C139.609 26.8666 144.087 31.3437 149.609 31.3437V21.3437ZM163.188 21.3437V31.3437C168.71 31.3437 173.188 26.8666 173.188 21.3437H163.188ZM163.188 19.0664H173.188C173.188 13.5436 168.71 9.06641 163.188 9.06641V19.0664ZM149.609 19.0664V9.06641C144.087 9.06641 139.609 13.5436 139.609 19.0664H149.609ZM174.617 29.207H164.617V34.6641H174.617H184.617V29.207H174.617ZM174.617 34.6641V24.6641H138.352V34.6641V44.6641L174.617 44.6641V34.6641ZM138.352 34.6641L148.352 34.6641V29.207L138.352 29.207H128.352V34.6641H138.352ZM138.352 29.207V39.207L152.918 39.207V29.207V19.207H138.352V29.207ZM152.918 29.207H162.918V26.7578H152.918H142.918V29.207H152.918ZM152.918 26.7578V16.7578H142.863V26.7578V36.7578H152.918V26.7578ZM142.863 26.7578H152.863V11.0312H142.863H132.863V26.7578H142.863ZM142.863 11.0312V21.0312H149.609V11.0312V1.03125H142.863V11.0312ZM149.609 11.0312H139.609V14.0391H149.609H159.609V11.0312H149.609ZM149.609 14.0391V24.0391H163.188V14.0391V4.03906L149.609 4.03906V14.0391ZM163.188 14.0391H173.188V11.0312H163.188H153.188V14.0391H163.188ZM163.188 11.0312V21.0312H170.02V11.0312V1.03125H163.188V11.0312ZM170.02 11.0312H160.02V26.7578H170.02H180.02V11.0312L170.02 11.0312ZM170.02 26.7578V16.7578H159.879V26.7578V36.7578H170.02V26.7578ZM159.879 26.7578H149.879V29.207H159.879H169.879V26.7578H159.879ZM159.879 29.207V39.207H174.617V29.207V19.207H159.879V29.207ZM170.234 36.6406H160.234V49.7461H170.234H180.234V36.6406H170.234ZM170.234 49.7461V39.7461H163.359V49.7461V59.7461H170.234V49.7461ZM163.359 49.7461H173.359V42.0117H163.359H153.359V49.7461H163.359ZM163.359 42.0117V32.0117H142.391V42.0117V52.0117H163.359V42.0117ZM142.391 42.0117H152.391V36.6406H142.391L132.391 36.6406V42.0117L142.391 42.0117ZM142.391 36.6406V46.6406H170.234V36.6406V26.6406H142.391V36.6406ZM149.609 21.3437V31.3437H163.188V21.3437V11.3437H149.609V21.3437ZM163.188 21.3437H173.188V19.0664H163.188H153.188V21.3437H163.188ZM163.188 19.0664V9.06641H149.609V19.0664V29.0664H163.188V19.0664ZM149.609 19.0664H139.609V21.3437H149.609H159.609V19.0664H149.609ZM209.938 10H219.938C219.938 4.47715 215.46 0 209.938 0V10ZM209.938 49.875V59.875C215.46 59.875 219.938 55.3978 219.938 49.875H209.938ZM202.977 49.875H192.977C192.977 55.3978 197.454 59.875 202.977 59.875V49.875ZM202.977 10V0C197.454 0 192.977 4.47715 192.977 10H202.977ZM188.109 12.6641L188.04 22.6638C188.087 22.6641 188.134 22.6641 188.18 22.6638L188.109 12.6641ZM188.109 18.8945L187.94 28.8931C188.057 28.8951 188.174 28.895 188.291 28.8929L188.109 18.8945ZM209.938 10H199.938V49.875H209.938H219.938V10H209.938ZM209.938 49.875V39.875H202.977V49.875V59.875H209.938V49.875ZM202.977 49.875H212.977V10H202.977H192.977V49.875H202.977ZM202.977 10V20L209.938 20V10V0H202.977V10ZM188.109 12.6641L188.18 22.6638C188.113 22.6643 187.943 22.6406 187.768 22.5508C187.606 22.4681 187.615 22.4198 187.736 22.5782C188.006 22.9327 188.723 24.2334 188.723 26.9727H198.723L208.723 26.9727C208.723 20.9463 207.162 15.0712 203.64 10.4521C199.993 5.66819 194.46 2.61877 188.038 2.66431L188.109 12.6641ZM198.723 26.9727H188.723C188.723 29.8028 187.993 31.1249 187.723 31.4804C187.603 31.6391 187.591 31.594 187.745 31.5147C187.911 31.4293 188.064 31.4102 188.109 31.4102V41.4102V51.4102C194.483 51.4102 200.001 48.3834 203.653 43.5733C207.175 38.9337 208.723 33.0371 208.723 26.9727L198.723 26.9727ZM188.109 41.4102V31.4102C188.088 31.4102 188.193 31.4135 188.33 31.483C188.458 31.5479 188.44 31.5815 188.32 31.4265C188.055 31.0816 187.324 29.7839 187.324 26.9727H177.324H167.324C167.324 33.056 168.893 38.977 172.473 43.6273C176.186 48.4498 181.747 51.4102 188.109 51.4102V41.4102ZM177.324 26.9727H187.324C187.324 24.2526 188.041 22.9762 188.307 22.632C188.427 22.4774 188.444 22.5139 188.308 22.5822C188.247 22.6127 188.181 22.6363 188.119 22.6507C188.057 22.6649 188.027 22.6637 188.04 22.6638L188.109 12.6641L188.179 2.6643C181.77 2.6198 176.194 5.60151 172.486 10.3982C168.906 15.0277 167.324 20.9271 167.324 26.9727H177.324ZM188.109 18.8945L188.279 8.89597C182.647 8.80052 178.449 12.0746 176.276 16.1436C174.435 19.59 173.984 23.5385 173.984 26.9727H183.984H193.984C193.984 26.0559 194.052 25.4897 194.105 25.2055C194.162 24.8993 194.168 25.0966 193.917 25.5664C193.65 26.0649 193.024 26.9904 191.81 27.7722C190.532 28.5955 189.135 28.9134 187.94 28.8931L188.109 18.8945ZM183.984 26.9727H173.984C173.984 30.4271 174.428 34.3944 176.284 37.8541C178.498 41.9836 182.673 45.0937 188.109 45.0937V35.0937V25.0937C189.219 25.0937 190.555 25.3965 191.802 26.1982C192.999 26.9673 193.631 27.8831 193.909 28.4018C194.168 28.8846 194.163 29.0928 194.107 28.7849C194.054 28.4977 193.984 27.9194 193.984 26.9727H183.984ZM188.109 35.0937V45.0937C193.709 45.0937 197.76 41.7294 199.836 37.7986C201.635 34.3926 202.105 30.4806 202.105 26.9727H192.105H182.105C182.105 27.9039 182.036 28.4806 181.981 28.7724C181.924 29.0842 181.914 28.9062 182.151 28.4572C182.4 27.9865 182.996 27.0851 184.168 26.3005C185.408 25.4703 186.817 25.0937 188.109 25.0937V35.0937ZM192.105 26.9727H202.105C202.105 23.4853 201.628 19.5914 199.844 16.199C197.813 12.3393 193.734 8.79061 187.928 8.89618L188.109 18.8945L188.291 28.8929C186.905 28.9181 185.43 28.5217 184.16 27.6697C182.971 26.8723 182.381 25.9614 182.144 25.511C181.914 25.075 181.925 24.9078 181.983 25.218C182.037 25.507 182.105 26.0715 182.105 26.9727H192.105ZM242.98 42.9141L236.98 50.9141C240.582 53.6151 245.544 53.5768 249.103 50.8204L242.98 42.9141ZM247.02 34.793L257.018 34.9433C257.019 34.8932 257.02 34.8431 257.02 34.793H247.02ZM247.02 33.9336V23.9336C241.497 23.9336 237.02 28.4107 237.02 33.9336H247.02ZM253.766 33.9336H263.766C263.766 28.4107 259.288 23.9336 253.766 23.9336V33.9336ZM260.855 44.2031L269.165 49.7668C270.936 47.1212 271.342 43.7903 270.257 40.7969C269.173 37.8034 266.728 35.5053 263.673 34.6083L260.855 44.2031ZM257.547 49.1445L254.485 58.6642C258.734 60.0307 263.373 58.4166 265.856 54.7082L257.547 49.1445ZM250.156 42.9141L259.167 38.5779C257.487 35.0863 253.941 32.8797 250.066 32.9145C246.192 32.9493 242.686 35.2193 241.069 38.7406L250.156 42.9141ZM243.109 49.5312L239.813 58.9724C242.015 59.7411 244.416 59.7161 246.601 58.9017L243.109 49.5312ZM235.891 43.043L244.98 38.8741C243.385 35.3965 239.946 33.1337 236.121 33.0456C232.296 32.9575 228.756 35.0596 227.003 38.4601L235.891 43.043ZM228.672 49.1445L220.396 54.7578C222.918 58.4766 227.611 60.0563 231.869 58.6197L228.672 49.1445ZM225.32 44.2031L222.181 34.7087C219.204 35.6928 216.862 38.0159 215.853 40.9841C214.843 43.9522 215.285 47.2219 217.044 49.8164L225.32 44.2031ZM232.367 33.9336V23.9336C226.844 23.9336 222.367 28.4107 222.367 33.9336H232.367ZM239.113 33.9336H249.113C249.113 28.4107 244.636 23.9336 239.113 23.9336V33.9336ZM257.504 10.0859H267.504C267.504 4.56309 263.027 0.0859375 257.504 0.0859375V10.0859ZM257.504 32.3437V42.3437C263.027 42.3437 267.504 37.8666 267.504 32.3437H257.504ZM250.586 32.3437H240.586C240.586 37.8666 245.063 42.3437 250.586 42.3437V32.3437ZM250.586 10.0859V0.0859375C245.063 0.0859375 240.586 4.56309 240.586 10.0859H250.586ZM224.418 21.6445L234.418 21.722C234.418 21.6711 234.418 21.6202 234.418 21.5693L224.418 21.6445ZM235.547 25.5547L235.719 15.5562C235.607 15.5542 235.495 15.5542 235.383 15.556L235.547 25.5547ZM239.113 34.793H229.113C229.113 40.1276 231.063 46.4761 236.98 50.9141L242.98 42.9141L248.98 34.9141C248.966 34.9034 248.968 34.9037 248.982 34.9168C248.995 34.9299 249.015 34.9509 249.037 34.9793C249.085 35.0405 249.12 35.1019 249.139 35.1457C249.156 35.1857 249.15 35.185 249.139 35.1276C249.128 35.068 249.113 34.9576 249.113 34.793H239.113ZM242.98 42.9141L249.103 50.8204C254.699 46.4873 256.936 40.392 257.018 34.9433L247.02 34.793L237.021 34.6426C237.018 34.8084 236.985 34.8854 236.982 34.8903C236.982 34.8911 236.982 34.8915 236.977 34.898C236.973 34.9034 236.942 34.9426 236.858 35.0078L242.98 42.9141ZM247.02 34.793H257.02V33.9336H247.02H237.02V34.793H247.02ZM247.02 33.9336V43.9336H253.766V33.9336V23.9336H247.02V33.9336ZM253.766 33.9336H243.766V34.793H253.766H263.766V33.9336H253.766ZM253.766 34.793H243.766C243.766 38.1525 244.437 42.2523 246.977 46.037C249.607 49.9562 253.523 52.4721 258.038 53.798L260.855 44.2031L263.673 34.6083C263.178 34.4628 263.05 34.3534 263.127 34.4064C263.165 34.4323 263.237 34.4876 263.327 34.5778C263.417 34.6685 263.505 34.7752 263.584 34.8927C263.662 35.0092 263.718 35.1161 263.754 35.2011C263.791 35.2846 263.804 35.3352 263.805 35.3406C263.806 35.3449 263.796 35.305 263.786 35.212C263.775 35.1186 263.766 34.9808 263.766 34.793H253.766ZM260.855 44.2031L252.546 38.6395L249.238 43.5809L257.547 49.1445L265.856 54.7082L269.165 49.7668L260.855 44.2031ZM257.547 49.1445L260.609 39.6248C259.921 39.4037 259.633 39.1827 259.533 39.0959C259.436 39.012 259.312 38.8797 259.167 38.5779L250.156 42.9141L241.145 47.2502C243.73 52.6223 248.249 56.6584 254.485 58.6642L257.547 49.1445ZM250.156 42.9141L241.069 38.7406C240.856 39.2032 240.639 39.4828 240.459 39.6572C240.295 39.8166 240.053 39.9985 239.617 40.1608L243.109 49.5312L246.601 58.9017C252.84 56.5768 256.949 52.0844 259.244 47.0876L250.156 42.9141ZM243.109 49.5312L246.405 40.0901C245.835 39.8908 245.573 39.6844 245.448 39.5683C245.314 39.4432 245.15 39.2435 244.98 38.8741L235.891 43.043L226.801 47.2119C229.172 52.3818 233.453 56.7521 239.813 58.9724L243.109 49.5312ZM235.891 43.043L227.003 38.4601C226.821 38.8127 226.651 39.0058 226.503 39.134C226.36 39.2587 226.07 39.4686 225.475 39.6694L228.672 49.1445L231.869 58.6197C237.904 56.5833 242.207 52.6142 244.779 47.6259L235.891 43.043ZM228.672 49.1445L236.948 43.5313L233.596 38.5899L225.32 44.2031L217.044 49.8164L220.396 54.7578L228.672 49.1445ZM225.32 44.2031L228.46 53.6976C232.935 52.2179 236.666 49.5914 239.171 45.8221C241.611 42.1489 242.367 38.1773 242.367 34.793H232.367H222.367C222.367 35.0272 222.34 35.1179 222.347 35.0949C222.35 35.0809 222.363 35.0384 222.391 34.975C222.419 34.9106 222.459 34.8341 222.513 34.7531C222.567 34.6716 222.625 34.6003 222.681 34.5425C222.736 34.4849 222.775 34.4549 222.784 34.4483C222.806 34.4322 222.65 34.5537 222.181 34.7087L225.32 44.2031ZM232.367 34.793H242.367V33.9336H232.367H222.367V34.793H232.367ZM232.367 33.9336V43.9336H239.113V33.9336V23.9336H232.367V33.9336ZM239.113 33.9336H229.113V34.793H239.113H249.113V33.9336H239.113ZM257.504 10.0859H247.504V32.3437H257.504H267.504V10.0859H257.504ZM257.504 32.3437V22.3437H250.586V32.3437V42.3437H257.504V32.3437ZM250.586 32.3437H260.586V10.0859H250.586H240.586V32.3437H250.586ZM250.586 10.0859V20.0859H257.504V10.0859V0.0859375H250.586V10.0859ZM235.547 11.8906V21.8906C236.568 21.8906 236.952 22.2137 236.931 22.1955C236.916 22.1828 236.835 22.1039 236.762 21.9477C236.727 21.874 236.704 21.8019 236.69 21.7389C236.676 21.6758 236.676 21.6412 236.676 21.6445H246.676H256.676C256.676 9.07375 245.908 1.89062 235.547 1.89062V11.8906ZM246.676 21.6445H236.676C236.676 21.5434 236.704 21.3695 236.79 21.1888C236.828 21.1079 236.869 21.0461 236.902 21.0035C236.934 20.9614 236.955 20.9436 236.954 20.9445C236.948 20.9503 236.542 21.2695 235.547 21.2695V31.2695V41.2695C245.846 41.2695 256.676 34.0972 256.676 21.6445H246.676ZM235.547 31.2695V21.2695C234.512 21.2695 234.101 20.9393 234.107 20.9445C234.116 20.9516 234.208 21.0366 234.296 21.2229C234.389 21.4208 234.419 21.6105 234.418 21.722L224.418 21.6445L214.418 21.567C214.321 34.123 225.259 41.2695 235.547 41.2695V31.2695ZM224.418 21.6445L234.418 21.5693C234.418 21.5687 234.418 21.5792 234.416 21.5995C234.414 21.6199 234.41 21.6477 234.402 21.6817C234.387 21.7522 234.362 21.8323 234.324 21.9138C234.244 22.0865 234.153 22.1766 234.131 22.1955C234.097 22.2247 234.486 21.8906 235.547 21.8906V11.8906V1.89062C225.194 1.89062 214.323 9.04869 214.418 21.7197L224.418 21.6445ZM235.547 17.6484V7.64844C232.668 7.64844 228.978 8.37445 225.852 11.0475C222.492 13.9207 221.121 17.8978 221.121 21.6445H231.121H241.121C241.121 22.7272 240.653 24.7062 238.85 26.2474C237.282 27.5884 235.805 27.6484 235.547 27.6484V17.6484ZM231.121 21.6445H221.121C221.121 25.4491 222.574 29.363 225.852 32.1664C228.946 34.8124 232.645 35.6036 235.711 35.5533L235.547 25.5547L235.383 15.556C235.828 15.5487 237.314 15.6524 238.85 16.9664C240.571 18.4378 241.121 20.3751 241.121 21.6445H231.121ZM235.547 25.5547L235.374 35.5532C238.494 35.607 242.168 34.7529 245.207 32.0987C248.402 29.3094 249.844 25.4398 249.844 21.6445H239.844H229.844C229.844 20.3844 230.384 18.4913 232.052 17.0341C233.566 15.7119 235.092 15.5454 235.719 15.5562L235.547 25.5547ZM239.844 21.6445H249.844C249.844 17.9056 248.482 13.9747 245.207 11.1151C242.133 8.43063 238.471 7.64844 235.547 7.64844V17.6484V27.6484C235.115 27.6484 233.601 27.5323 232.052 26.1798C230.303 24.6522 229.844 22.7194 229.844 21.6445H239.844ZM294.371 20.0977H304.371C304.371 14.5748 299.894 10.0977 294.371 10.0977V20.0977ZM294.371 25.4258V35.4258C299.894 35.4258 304.371 30.9486 304.371 25.4258H294.371ZM266.27 25.4258H256.27C256.27 30.9486 260.747 35.4258 266.27 35.4258V25.4258ZM266.27 11.418V1.41797C260.747 1.41797 256.27 5.89512 256.27 11.418H266.27ZM273.145 11.418H283.145C283.145 5.89512 278.667 1.41797 273.145 1.41797V11.418ZM273.145 20.0977H263.145C263.145 25.6205 267.622 30.0977 273.145 30.0977V20.0977ZM298.281 28.9492H308.281C308.281 23.4264 303.804 18.9492 298.281 18.9492V28.9492ZM298.281 34.2773V44.2773C303.804 44.2773 308.281 39.8002 308.281 34.2773H298.281ZM262.016 34.2773H252.016C252.016 39.8002 256.493 44.2773 262.016 44.2773V34.2773ZM262.016 28.9492V18.9492C256.493 18.9492 252.016 23.4264 252.016 28.9492H262.016ZM294.629 43.4727H304.629C304.629 37.9498 300.152 33.4727 294.629 33.4727V43.4727ZM294.629 48.9727V58.9727C300.152 58.9727 304.629 54.4955 304.629 48.9727H294.629ZM265.797 48.9727H255.797C255.797 54.4955 260.274 58.9727 265.797 58.9727V48.9727ZM265.797 37.0273V27.0273C260.274 27.0273 255.797 31.5045 255.797 37.0273H265.797ZM272.758 37.0273H282.758C282.758 31.5045 278.281 27.0273 272.758 27.0273V37.0273ZM272.758 43.4727H262.758C262.758 48.9955 267.235 53.4727 272.758 53.4727V43.4727ZM294.371 20.0977H284.371V25.4258H294.371H304.371V20.0977H294.371ZM294.371 25.4258V15.4258H266.27V25.4258V35.4258H294.371V25.4258ZM266.27 25.4258H276.27V11.418H266.27H256.27V25.4258H266.27ZM266.27 11.418V21.418H273.145V11.418V1.41797H266.27V11.418ZM273.145 11.418H263.145V20.0977H273.145H283.145V11.418H273.145ZM273.145 20.0977V30.0977H294.371V20.0977V10.0977H273.145V20.0977ZM298.281 28.9492H288.281V34.2773H298.281H308.281V28.9492H298.281ZM298.281 34.2773V24.2773H262.016V34.2773V44.2773H298.281V34.2773ZM262.016 34.2773H272.016V28.9492H262.016H252.016V34.2773H262.016ZM262.016 28.9492V38.9492H298.281V28.9492V18.9492H262.016V28.9492ZM294.629 43.4727H284.629V48.9727H294.629H304.629V43.4727H294.629ZM294.629 48.9727V38.9727H265.797V48.9727V58.9727H294.629V48.9727ZM265.797 48.9727H275.797V37.0273H265.797H255.797V48.9727H265.797ZM265.797 37.0273V47.0273H272.758V37.0273V27.0273H265.797V37.0273ZM272.758 37.0273H262.758V43.4727H272.758H282.758V37.0273H272.758ZM272.758 43.4727V53.4727H294.629V43.4727V33.4727H272.758V43.4727Z" fill="white" mask="url(#path-1-outside-1_6526_5729)"/>
</g>
<defs>
<filter id="filter0_d_6526_5729" x="0" y="0" width="312.281" height="67.875" filterUnits="userSpaceOnUse" color-interpolation-filters="sRGB">
<feFlood flood-opacity="0" result="BackgroundImageFix"/>
<feColorMatrix in="SourceAlpha" type="matrix" values="0 0 0 0 0 0 0 0 0 0 0 0 0 0 0 0 0 0 127 0" result="hardAlpha"/>
<feOffset dy="4"/>
<feGaussianBlur stdDeviation="2"/>
<feComposite in2="hardAlpha" operator="out"/>
<feColorMatrix type="matrix" values="0 0 0 0 0 0 0 0 0 0 0 0 0 0 0 0 0 0 0.07 0"/>
<feBlend mode="normal" in2="BackgroundImageFix" result="effect1_dropShadow_6526_5729"/>
<feBlend mode="normal" in="SourceGraphic" in2="effect1_dropShadow_6526_5729" result="shape"/>
</filter>
</defs>
</svg>
