<svg width="303" height="68" viewBox="0 0 303 68" fill="none" xmlns="http://www.w3.org/2000/svg">
<g filter="url(#filter0_d_6524_1817)">
<mask id="path-1-outside-1_6524_1817" maskUnits="userSpaceOnUse" x="3.78516" y="-0.507813" width="295" height="61" fill="black">
<rect fill="white" x="3.78516" y="-0.507813" width="295" height="61"/>
<path d="M46.4844 10V18.0781H51.4258V23.707H46.4844V32H39.5664V10L46.4844 10ZM35.1836 12.1914C35.1836 23.0195 28.7383 30.1094 16.707 33.2461L14 27.7461C22.293 25.834 26.6328 22.0098 27.5781 17.6055H16.0625V12.1914H35.1836ZM46.4844 33.2891V49.3164H19.9727V33.2891H46.4844ZM26.8047 38.7891V43.9883H39.6953V38.7891H26.8047ZM86.5312 10V33.5898H79.6562V24.8242L74.6719 24.8242V19.2812L79.6562 19.2812V10H86.5312ZM72.6953 34.2344C81.332 34.2344 86.6172 37.1133 86.6172 42.0547C86.6172 46.9531 81.332 49.875 72.6953 49.875C64.1445 49.875 58.8594 46.9531 58.8594 42.0547C58.8594 37.1133 64.1445 34.2344 72.6953 34.2344ZM72.6953 39.4336C67.9688 39.4336 65.6914 40.1641 65.7344 42.0547C65.6914 43.9023 67.9688 44.6758 72.6953 44.6758C77.4648 44.6758 79.7852 43.9023 79.7852 42.0547C79.7852 40.1641 77.4648 39.4336 72.6953 39.4336ZM75.7461 12.1055V17.6055H68.5703C68.9785 21.5801 71.2988 25.5762 77.1641 27.4883L73.8555 32.8594C69.6016 31.5488 66.7871 28.9707 65.0469 25.7695C63.3281 29.4219 60.3418 32.3652 55.7656 33.8477L52.1992 28.3906C58.5371 26.3711 60.9219 21.8594 61.3516 17.6055H54.1328V12.1055H75.7461ZM108.875 10.5156C118.199 10.5156 123.527 12.8789 123.57 17.2187C123.527 21.6016 118.199 23.9648 108.875 23.9648C99.5078 23.9648 94.0938 21.6016 94.1367 17.2187C94.0938 12.8789 99.5078 10.5156 108.875 10.5156ZM108.875 15.5C103.504 15.5 101.355 16.0156 101.355 17.2187C101.355 18.6797 103.504 18.9375 108.875 18.9805C114.289 18.9375 116.438 18.6797 116.438 17.2187C116.438 16.0156 114.289 15.5 108.875 15.5ZM127.008 25.2969V30.7539H90.7422V25.2969H127.008ZM122.711 32.2578V43.2148H101.527V44.5039H123.656V49.5742H94.7812V38.4883H115.922V37.2852H94.8242V32.2578H122.711ZM145.699 13.3945V21.9023H149.051V13.3945H155.41V40.6797L139.254 40.6797V13.3945H145.699ZM145.699 35.2227H149.051V27.2305H145.699V35.2227ZM173.027 10V49.7461H166.453V30.3672H164.133V48.0273H157.645V10.4727H164.133V24.8242H166.453V10H173.027ZM210.195 10V49.875H203.32V34.4062H197.52V28.8203H203.32V23.5781H197.52V18.0781H203.32V10H210.195ZM195.715 13.1797V29.1641H184.586V35.6094C188.84 35.5449 192.75 35.3086 197.133 34.707L197.648 40.293C191.934 41.1953 186.906 41.2383 180.977 41.2383H177.711V23.8789H188.969V18.5508H177.625V13.1797H195.715ZM246.117 10V25.082H251.488V30.7109H246.117V49.7461H239.285V10H246.117ZM237.352 15.6719V21.1289H214.191V15.6719H222.398V10.7305H229.273V15.6719H237.352ZM225.836 22.6758C231.723 22.6758 236.234 26.7148 236.234 32.3437C236.234 38.0156 231.723 42.0547 225.836 42.0547C219.82 42.0547 215.395 38.0156 215.395 32.3437C215.395 26.7148 219.82 22.6758 225.836 22.6758ZM225.836 28.2187C223.602 28.2187 221.969 29.6797 222.012 32.3437C221.969 35.1367 223.602 36.4687 225.836 36.4687C228.027 36.4687 229.617 35.1367 229.617 32.3437C229.617 29.6797 228.027 28.2187 225.836 28.2187ZM284.789 20.0977V25.4258H256.688V11.418H263.562V20.0977H284.789ZM288.699 28.9492V34.2773H252.434V28.9492H288.699ZM285.047 43.4727V48.9727H256.215V37.0273H263.176V43.4727H285.047Z"/>
</mask>
<path d="M46.4844 10V18.0781H51.4258V23.707H46.4844V32H39.5664V10L46.4844 10ZM35.1836 12.1914C35.1836 23.0195 28.7383 30.1094 16.707 33.2461L14 27.7461C22.293 25.834 26.6328 22.0098 27.5781 17.6055H16.0625V12.1914H35.1836ZM46.4844 33.2891V49.3164H19.9727V33.2891H46.4844ZM26.8047 38.7891V43.9883H39.6953V38.7891H26.8047ZM86.5312 10V33.5898H79.6562V24.8242L74.6719 24.8242V19.2812L79.6562 19.2812V10H86.5312ZM72.6953 34.2344C81.332 34.2344 86.6172 37.1133 86.6172 42.0547C86.6172 46.9531 81.332 49.875 72.6953 49.875C64.1445 49.875 58.8594 46.9531 58.8594 42.0547C58.8594 37.1133 64.1445 34.2344 72.6953 34.2344ZM72.6953 39.4336C67.9688 39.4336 65.6914 40.1641 65.7344 42.0547C65.6914 43.9023 67.9688 44.6758 72.6953 44.6758C77.4648 44.6758 79.7852 43.9023 79.7852 42.0547C79.7852 40.1641 77.4648 39.4336 72.6953 39.4336ZM75.7461 12.1055V17.6055H68.5703C68.9785 21.5801 71.2988 25.5762 77.1641 27.4883L73.8555 32.8594C69.6016 31.5488 66.7871 28.9707 65.0469 25.7695C63.3281 29.4219 60.3418 32.3652 55.7656 33.8477L52.1992 28.3906C58.5371 26.3711 60.9219 21.8594 61.3516 17.6055H54.1328V12.1055H75.7461ZM108.875 10.5156C118.199 10.5156 123.527 12.8789 123.57 17.2187C123.527 21.6016 118.199 23.9648 108.875 23.9648C99.5078 23.9648 94.0938 21.6016 94.1367 17.2187C94.0938 12.8789 99.5078 10.5156 108.875 10.5156ZM108.875 15.5C103.504 15.5 101.355 16.0156 101.355 17.2187C101.355 18.6797 103.504 18.9375 108.875 18.9805C114.289 18.9375 116.438 18.6797 116.438 17.2187C116.438 16.0156 114.289 15.5 108.875 15.5ZM127.008 25.2969V30.7539H90.7422V25.2969H127.008ZM122.711 32.2578V43.2148H101.527V44.5039H123.656V49.5742H94.7812V38.4883H115.922V37.2852H94.8242V32.2578H122.711ZM145.699 13.3945V21.9023H149.051V13.3945H155.41V40.6797L139.254 40.6797V13.3945H145.699ZM145.699 35.2227H149.051V27.2305H145.699V35.2227ZM173.027 10V49.7461H166.453V30.3672H164.133V48.0273H157.645V10.4727H164.133V24.8242H166.453V10H173.027ZM210.195 10V49.875H203.32V34.4062H197.52V28.8203H203.32V23.5781H197.52V18.0781H203.32V10H210.195ZM195.715 13.1797V29.1641H184.586V35.6094C188.84 35.5449 192.75 35.3086 197.133 34.707L197.648 40.293C191.934 41.1953 186.906 41.2383 180.977 41.2383H177.711V23.8789H188.969V18.5508H177.625V13.1797H195.715ZM246.117 10V25.082H251.488V30.7109H246.117V49.7461H239.285V10H246.117ZM237.352 15.6719V21.1289H214.191V15.6719H222.398V10.7305H229.273V15.6719H237.352ZM225.836 22.6758C231.723 22.6758 236.234 26.7148 236.234 32.3437C236.234 38.0156 231.723 42.0547 225.836 42.0547C219.82 42.0547 215.395 38.0156 215.395 32.3437C215.395 26.7148 219.82 22.6758 225.836 22.6758ZM225.836 28.2187C223.602 28.2187 221.969 29.6797 222.012 32.3437C221.969 35.1367 223.602 36.4687 225.836 36.4687C228.027 36.4687 229.617 35.1367 229.617 32.3437C229.617 29.6797 228.027 28.2187 225.836 28.2187ZM284.789 20.0977V25.4258H256.688V11.418H263.562V20.0977H284.789ZM288.699 28.9492V34.2773H252.434V28.9492H288.699ZM285.047 43.4727V48.9727H256.215V37.0273H263.176V43.4727H285.047Z" fill="#11DCA9"/>
<path d="M46.4844 10H56.4844C56.4844 4.47715 52.0072 0 46.4844 0V10ZM46.4844 18.0781H36.4844C36.4844 23.601 40.9615 28.0781 46.4844 28.0781V18.0781ZM51.4258 18.0781H61.4258C61.4258 12.5553 56.9486 8.07812 51.4258 8.07812V18.0781ZM51.4258 23.707V33.707C56.9486 33.707 61.4258 29.2299 61.4258 23.707H51.4258ZM46.4844 23.707V13.707C40.9615 13.707 36.4844 18.1842 36.4844 23.707H46.4844ZM46.4844 32V42C52.0072 42 56.4844 37.5228 56.4844 32H46.4844ZM39.5664 32H29.5664C29.5664 37.5228 34.0436 42 39.5664 42V32ZM39.5664 10V0C34.0436 0 29.5664 4.47715 29.5664 10H39.5664ZM35.1836 12.1914H45.1836C45.1836 6.66856 40.7064 2.19141 35.1836 2.19141V12.1914ZM16.707 33.2461L7.7349 37.6621C9.8317 41.9222 14.6352 44.1205 19.2298 42.9226L16.707 33.2461ZM14 27.7461L11.7532 18.0018C8.77692 18.688 6.27743 20.6969 4.96704 23.4559C3.65664 26.215 3.67904 29.4216 5.02787 32.1621L14 27.7461ZM27.5781 17.6055L37.3555 19.704C37.9893 16.7508 37.2544 13.6693 35.3558 11.32C33.4573 8.97073 30.5986 7.60547 27.5781 7.60547V17.6055ZM16.0625 17.6055H6.0625C6.0625 23.1283 10.5397 27.6055 16.0625 27.6055V17.6055ZM16.0625 12.1914V2.19141C10.5397 2.19141 6.0625 6.66856 6.0625 12.1914H16.0625ZM46.4844 33.2891H56.4844C56.4844 27.7662 52.0072 23.2891 46.4844 23.2891V33.2891ZM46.4844 49.3164V59.3164C52.0072 59.3164 56.4844 54.8393 56.4844 49.3164H46.4844ZM19.9727 49.3164H9.97266C9.97266 54.8393 14.4498 59.3164 19.9727 59.3164V49.3164ZM19.9727 33.2891V23.2891C14.4498 23.2891 9.97266 27.7662 9.97266 33.2891H19.9727ZM26.8047 38.7891V28.7891C21.2818 28.7891 16.8047 33.2662 16.8047 38.7891H26.8047ZM26.8047 43.9883H16.8047C16.8047 49.5111 21.2818 53.9883 26.8047 53.9883V43.9883ZM39.6953 43.9883V53.9883C45.2182 53.9883 49.6953 49.5111 49.6953 43.9883H39.6953ZM39.6953 38.7891H49.6953C49.6953 33.2662 45.2182 28.7891 39.6953 28.7891V38.7891ZM46.4844 10L36.4844 10V18.0781H46.4844H56.4844V10H46.4844ZM46.4844 18.0781V28.0781H51.4258V18.0781V8.07812H46.4844V18.0781ZM51.4258 18.0781H41.4258V23.707H51.4258H61.4258V18.0781H51.4258ZM51.4258 23.707V13.707H46.4844V23.707V33.707H51.4258V23.707ZM46.4844 23.707H36.4844V32H46.4844H56.4844V23.707H46.4844ZM46.4844 32V22H39.5664V32V42H46.4844V32ZM39.5664 32H49.5664V10L39.5664 10H29.5664V32H39.5664ZM39.5664 10V20H46.4844V10V0H39.5664V10ZM35.1836 12.1914H25.1836C25.1836 15.4844 24.2651 17.5114 22.9703 18.9736C21.5452 20.5831 18.9105 22.3373 14.1842 23.5696L16.707 33.2461L19.2298 42.9226C26.5348 41.0181 33.1384 37.6591 37.9437 32.2325C42.8795 26.6585 45.1836 19.7265 45.1836 12.1914H35.1836ZM16.707 33.2461L25.6792 28.8301L22.9721 23.3301L14 27.7461L5.02787 32.1621L7.7349 37.6621L16.707 33.2461ZM14 27.7461L16.2468 37.4904C26.1029 35.2179 35.2075 29.7113 37.3555 19.704L27.5781 17.6055L17.8008 15.5069C17.8962 15.0626 18.0887 15.184 17.3972 15.7229C16.6181 16.3301 14.9225 17.271 11.7532 18.0018L14 27.7461ZM27.5781 17.6055V7.60547H16.0625V17.6055V27.6055H27.5781V17.6055ZM16.0625 17.6055H26.0625V12.1914H16.0625H6.0625L6.0625 17.6055H16.0625ZM16.0625 12.1914V22.1914H35.1836V12.1914V2.19141L16.0625 2.19141V12.1914ZM46.4844 33.2891H36.4844V49.3164H46.4844H56.4844V33.2891H46.4844ZM46.4844 49.3164V39.3164H19.9727V49.3164V59.3164H46.4844V49.3164ZM19.9727 49.3164H29.9727V33.2891H19.9727H9.97266L9.97266 49.3164H19.9727ZM19.9727 33.2891V43.2891H46.4844V33.2891V23.2891H19.9727V33.2891ZM26.8047 38.7891H16.8047V43.9883H26.8047H36.8047V38.7891H26.8047ZM26.8047 43.9883V53.9883H39.6953V43.9883V33.9883H26.8047V43.9883ZM39.6953 43.9883H49.6953V38.7891H39.6953H29.6953V43.9883H39.6953ZM39.6953 38.7891V28.7891H26.8047V38.7891V48.7891H39.6953V38.7891ZM86.5312 10H96.5312C96.5312 4.47715 92.0541 0 86.5312 0V10ZM86.5312 33.5898V43.5898C92.0541 43.5898 96.5312 39.1127 96.5312 33.5898H86.5312ZM79.6562 33.5898H69.6562C69.6562 39.1127 74.1334 43.5898 79.6562 43.5898V33.5898ZM79.6562 24.8242H89.6562C89.6562 19.3014 85.1791 14.8242 79.6562 14.8242V24.8242ZM74.6719 24.8242H64.6719C64.6719 30.3471 69.149 34.8242 74.6719 34.8242V24.8242ZM74.6719 19.2812V9.28125C69.149 9.28125 64.6719 13.7584 64.6719 19.2812H74.6719ZM79.6562 19.2812V29.2812C85.1791 29.2812 89.6562 24.8041 89.6562 19.2812H79.6562ZM79.6562 10V0C74.1334 0 69.6562 4.47715 69.6562 10H79.6562ZM65.7344 42.0547L75.7317 42.2872C75.7352 42.134 75.7353 41.9807 75.7318 41.8275L65.7344 42.0547ZM75.7461 12.1055H85.7461C85.7461 6.58262 81.2689 2.10547 75.7461 2.10547V12.1055ZM75.7461 17.6055V27.6055C81.2689 27.6055 85.7461 23.1283 85.7461 17.6055L75.7461 17.6055ZM68.5703 17.6055V7.60547C65.7404 7.60547 63.0429 8.80453 61.1468 10.9053C59.2507 13.0062 58.3335 15.812 58.6226 18.6271L68.5703 17.6055ZM77.1641 27.4883L85.6783 32.7331C87.286 30.1232 87.6079 26.9202 86.5517 24.0426C85.4955 21.1651 83.1779 18.9308 80.2636 17.9808L77.1641 27.4883ZM73.8555 32.8594L70.9112 42.4161C75.2671 43.7581 79.9792 41.9848 82.3697 38.1041L73.8555 32.8594ZM65.0469 25.7695L73.8326 20.9934C72.0325 17.6822 68.5237 15.6643 64.7565 15.7738C60.9892 15.8832 57.6035 18.1014 55.9987 21.5116L65.0469 25.7695ZM55.7656 33.8477L47.3948 39.3184C49.8631 43.0953 54.555 44.7514 58.8474 43.3609L55.7656 33.8477ZM52.1992 28.3906L49.1632 18.8626C46.1866 19.8111 43.8244 22.0961 42.7775 25.0394C41.7305 27.9828 42.1193 31.2463 43.8284 33.8613L52.1992 28.3906ZM61.3516 17.6055L71.3009 18.6105C71.585 15.7977 70.6653 12.9962 68.7694 10.8991C66.8735 8.80207 64.1786 7.60547 61.3516 7.60547V17.6055ZM54.1328 17.6055H44.1328C44.1328 23.1283 48.61 27.6055 54.1328 27.6055V17.6055ZM54.1328 12.1055V2.10547C48.61 2.10547 44.1328 6.58262 44.1328 12.1055L54.1328 12.1055ZM86.5312 10H76.5312V33.5898H86.5312H96.5312V10H86.5312ZM86.5312 33.5898V23.5898H79.6562V33.5898V43.5898H86.5312V33.5898ZM79.6562 33.5898H89.6562V24.8242H79.6562L69.6562 24.8242V33.5898H79.6562ZM79.6562 24.8242V14.8242L74.6719 14.8242V24.8242V34.8242H79.6562V24.8242ZM74.6719 24.8242L84.6719 24.8242V19.2812L74.6719 19.2812H64.6719V24.8242H74.6719ZM74.6719 19.2812V29.2812H79.6562V19.2812V9.28125H74.6719V19.2812ZM79.6562 19.2812H89.6562V10H79.6562H69.6562V19.2812L79.6562 19.2812ZM79.6562 10V20H86.5312V10V0L79.6562 0V10ZM72.6953 34.2344V44.2344C74.3179 44.2344 75.5871 44.3712 76.5249 44.5616C77.4804 44.7555 77.9278 44.9714 78.0286 45.0275C78.1125 45.0742 77.7112 44.8702 77.2852 44.2182C76.8168 43.5014 76.6172 42.6952 76.6172 42.0547H86.6172H96.6172C96.6172 35.2516 92.6637 30.2863 87.7614 27.5555C83.2919 25.0657 77.8985 24.2344 72.6953 24.2344V34.2344ZM86.6172 42.0547H76.6172C76.6172 41.3866 76.8258 40.5745 77.2904 39.865C77.7121 39.2211 78.1047 39.0231 78.0137 39.074C77.9077 39.1333 77.4576 39.3506 76.5065 39.5455C75.5725 39.737 74.3091 39.875 72.6953 39.875V49.875V59.875C77.9215 59.875 83.3132 59.0256 87.7763 56.5295C92.6448 53.8066 96.6172 48.8554 96.6172 42.0547H86.6172ZM72.6953 49.875V39.875C71.1089 39.875 69.866 39.7379 68.9475 39.5484C68.0122 39.3553 67.5706 39.1406 67.4688 39.0834C67.3816 39.0344 67.7718 39.2329 68.1901 39.8732C68.6511 40.5786 68.8594 41.387 68.8594 42.0547H58.8594H48.8594C48.8594 48.8478 52.8231 53.7955 57.6728 56.5201C62.1248 59.0212 67.4982 59.875 72.6953 59.875V49.875ZM58.8594 42.0547H68.8594C68.8594 42.6948 68.6601 43.4973 68.1954 44.2101C67.7726 44.8584 67.3739 45.063 67.4538 45.0182C67.5504 44.9642 67.9893 44.7509 68.929 44.5588C69.8513 44.3702 71.1 44.2344 72.6953 44.2344V34.2344V24.2344C67.5213 24.2344 62.1463 25.07 57.6878 27.5648C52.8042 30.2974 48.8594 35.2592 48.8594 42.0547H58.8594ZM72.6953 39.4336V29.4336C70.1698 29.4336 66.9196 29.5812 64.0159 30.6347C62.4584 31.1997 60.2819 32.2766 58.4873 34.4095C56.5065 36.7637 55.6758 39.5902 55.737 42.2819L65.7344 42.0547L75.7318 41.8275C75.7715 43.5739 75.2093 45.6 73.7911 47.2856C72.5592 48.7498 71.2393 49.2896 70.8367 49.4356C70.4048 49.5923 70.2823 49.5641 70.7178 49.5155C71.1096 49.4717 71.7444 49.4336 72.6953 49.4336V39.4336ZM65.7344 42.0547L55.7371 41.8222C55.6733 44.5629 56.5407 47.3821 58.5065 49.7045C60.2839 51.8043 62.4313 52.8764 63.9773 53.4445C66.8791 54.5107 70.1232 54.6758 72.6953 54.6758V44.6758V34.6758C71.7609 34.6758 71.1369 34.6362 70.7553 34.5921C70.3319 34.5432 70.4509 34.5158 70.8752 34.6717C71.2665 34.8155 72.5572 35.3478 73.7719 36.7829C75.1752 38.4407 75.7739 40.4703 75.7317 42.2872L65.7344 42.0547ZM72.6953 44.6758V54.6758C75.2958 54.6758 78.5296 54.5082 81.4221 53.4648C82.9575 52.9109 85.0772 51.8732 86.8597 49.8449C88.8326 47.5998 89.7852 44.8269 89.7852 42.0547H79.7852H69.7852C69.7852 40.2063 70.4476 38.2229 71.8364 36.6426C73.0348 35.2789 74.2764 34.781 74.6355 34.6514C75.0295 34.5093 75.1202 34.5405 74.6813 34.5906C74.2821 34.6361 73.6422 34.6758 72.6953 34.6758V44.6758ZM79.7852 42.0547H89.7852C89.7852 39.3294 88.8694 36.547 86.8795 34.2689C85.0791 32.2078 82.9303 31.1656 81.384 30.6148C78.4895 29.5839 75.2498 29.4336 72.6953 29.4336V39.4336V49.4336C73.6585 49.4336 74.3092 49.4718 74.7184 49.5169C75.1692 49.5667 75.0751 49.5985 74.6736 49.4555C74.3036 49.3237 73.033 48.8186 71.8167 47.4262C70.4109 45.8167 69.7852 43.8347 69.7852 42.0547H79.7852ZM75.7461 12.1055H65.7461V17.6055H75.7461L85.7461 17.6055V12.1055H75.7461ZM75.7461 17.6055V7.60547H68.5703V17.6055V27.6055H75.7461V17.6055ZM68.5703 17.6055L58.6226 18.6271C59.4142 26.334 64.2505 33.7964 74.0645 36.9958L77.1641 27.4883L80.2636 17.9808C79.5917 17.7617 79.1969 17.541 78.9868 17.3996C78.7828 17.2624 78.7042 17.1678 78.6814 17.1389C78.6591 17.1105 78.5593 16.9857 78.518 16.5838L68.5703 17.6055ZM77.1641 27.4883L68.6498 22.2435L65.3412 27.6146L73.8555 32.8594L82.3697 38.1041L85.6783 32.7331L77.1641 27.4883ZM73.8555 32.8594L76.7997 23.3026C75.8712 23.0166 75.2906 22.6575 74.9034 22.3354C74.5095 22.0078 74.1524 21.5818 73.8326 20.9934L65.0469 25.7695L56.2612 30.5457C59.1939 35.9405 64.0518 40.3029 70.9112 42.4161L73.8555 32.8594ZM65.0469 25.7695L55.9987 21.5116C55.3954 22.7935 54.496 23.7473 52.6839 24.3344L55.7656 33.8477L58.8474 43.3609C66.1876 40.9831 71.2608 36.0503 74.0951 30.0275L65.0469 25.7695ZM55.7656 33.8477L64.1365 28.3769L60.5701 22.9199L52.1992 28.3906L43.8284 33.8613L47.3948 39.3184L55.7656 33.8477ZM52.1992 28.3906L55.2353 37.9186C65.8918 34.523 70.5289 26.2539 71.3009 18.6105L61.3516 17.6055L51.4022 16.6005C51.3357 17.2589 51.1523 17.6219 51.0071 17.8144C50.9174 17.9335 50.534 18.4258 49.1632 18.8626L52.1992 28.3906ZM61.3516 17.6055V7.60547H54.1328V17.6055V27.6055H61.3516V17.6055ZM54.1328 17.6055H64.1328V12.1055H54.1328L44.1328 12.1055V17.6055H54.1328ZM54.1328 12.1055V22.1055H75.7461V12.1055V2.10547L54.1328 2.10547V12.1055ZM123.57 17.2187L133.57 17.3168C133.57 17.2511 133.57 17.1854 133.57 17.1197L123.57 17.2187ZM94.1367 17.2187L104.136 17.3168C104.137 17.2511 104.137 17.1854 104.136 17.1197L94.1367 17.2187ZM108.875 18.9805L108.795 28.9801C108.848 28.9806 108.901 28.9806 108.954 28.9802L108.875 18.9805ZM127.008 25.2969H137.008C137.008 19.774 132.531 15.2969 127.008 15.2969V25.2969ZM127.008 30.7539V40.7539C132.531 40.7539 137.008 36.2768 137.008 30.7539H127.008ZM90.7422 30.7539H80.7422C80.7422 36.2768 85.2193 40.7539 90.7422 40.7539V30.7539ZM90.7422 25.2969V15.2969C85.2193 15.2969 80.7422 19.774 80.7422 25.2969H90.7422ZM122.711 32.2578H132.711C132.711 26.735 128.234 22.2578 122.711 22.2578V32.2578ZM122.711 43.2148V53.2148C128.234 53.2148 132.711 48.7377 132.711 43.2148H122.711ZM101.527 43.2148V33.2148C96.0045 33.2148 91.5273 37.692 91.5273 43.2148H101.527ZM101.527 44.5039H91.5273C91.5273 50.0268 96.0045 54.5039 101.527 54.5039V44.5039ZM123.656 44.5039H133.656C133.656 38.9811 129.179 34.5039 123.656 34.5039V44.5039ZM123.656 49.5742V59.5742C129.179 59.5742 133.656 55.0971 133.656 49.5742H123.656ZM94.7812 49.5742H84.7812C84.7812 55.0971 89.2584 59.5742 94.7812 59.5742V49.5742ZM94.7812 38.4883V28.4883C89.2584 28.4883 84.7812 32.9654 84.7812 38.4883H94.7812ZM115.922 38.4883V48.4883C121.445 48.4883 125.922 44.0111 125.922 38.4883H115.922ZM115.922 37.2852H125.922C125.922 31.7623 121.445 27.2852 115.922 27.2852V37.2852ZM94.8242 37.2852H84.8242C84.8242 42.808 89.3014 47.2852 94.8242 47.2852V37.2852ZM94.8242 32.2578V22.2578C89.3014 22.2578 84.8242 26.735 84.8242 32.2578H94.8242ZM108.875 10.5156V20.5156C110.804 20.5156 112.343 20.6392 113.521 20.8275C114.727 21.02 115.357 21.249 115.578 21.3494C115.809 21.4538 115.3 21.2804 114.693 20.505C113.985 19.6003 113.582 18.4288 113.571 17.3178L123.57 17.2187L133.57 17.1197C133.497 9.78613 128.547 5.26676 123.828 3.13007C119.441 1.14355 114.128 0.515625 108.875 0.515625V10.5156ZM123.57 17.2187L113.571 17.1207C113.581 16.0441 113.969 14.8886 114.672 13.985C115.275 13.2084 115.785 13.0316 115.562 13.133C115.346 13.2315 114.721 13.4603 113.518 13.6529C112.341 13.8412 110.804 13.9648 108.875 13.9648V23.9648V33.9648C114.126 33.9648 119.448 33.3378 123.844 31.3377C128.598 29.1749 133.498 24.6299 133.57 17.3168L123.57 17.2187ZM108.875 23.9648V13.9648C106.934 13.9648 105.379 13.841 104.185 13.6512C102.962 13.4568 102.322 13.2253 102.096 13.1231C101.858 13.0155 102.39 13.1961 103.015 14.0048C103.749 14.9544 104.147 16.1768 104.136 17.3168L94.1367 17.2187L84.1372 17.1207C84.0638 24.6082 89.1199 29.2059 93.8581 31.3476C98.2637 33.3391 103.609 33.9648 108.875 33.9648V23.9648ZM94.1367 17.2187L104.136 17.1197C104.148 18.2952 103.734 19.5344 102.994 20.4852C102.365 21.2927 101.834 21.4698 102.08 21.3593C102.311 21.2552 102.957 21.0234 104.181 20.8292C105.377 20.6394 106.934 20.5156 108.875 20.5156V10.5156V0.515625C103.607 0.515625 98.2705 1.14229 93.8742 3.12017C89.1728 5.23532 84.0629 9.80756 84.1372 17.3178L94.1367 17.2187ZM108.875 15.5V5.5C106.126 5.5 103.256 5.60872 100.849 6.16502C99.6935 6.43215 97.6503 7.01263 95.7124 8.49003C93.3378 10.3003 91.3555 13.3361 91.3555 17.2187H101.355H111.355C111.355 18.6243 111.024 20.1198 110.273 21.5217C109.545 22.8801 108.609 23.807 107.838 24.3952C107.091 24.9644 106.432 25.2695 106.063 25.4187C105.681 25.5729 105.419 25.636 105.353 25.6514C105.249 25.6754 105.448 25.623 106.134 25.5748C106.781 25.5294 107.674 25.5 108.875 25.5V15.5ZM101.355 17.2187H91.3555C91.3555 20.5239 92.7934 23.706 95.4947 25.8861C97.6173 27.5992 99.9008 28.1787 101.056 28.4201C103.412 28.9121 106.319 28.9603 108.795 28.9801L108.875 18.9805L108.955 8.98079C107.659 8.97042 106.705 8.94762 105.988 8.90785C105.219 8.86526 105.026 8.81754 105.146 8.84263C105.227 8.85961 105.545 8.92924 105.999 9.10871C106.446 9.2859 107.215 9.64408 108.055 10.3225C108.944 11.0393 109.855 12.0705 110.504 13.4499C111.151 14.8216 111.355 16.1475 111.355 17.2187H101.355ZM108.875 18.9805L108.954 28.9802C111.451 28.9603 114.366 28.912 116.723 28.4219C117.877 28.1817 120.163 27.6047 122.289 25.8933C124.997 23.7125 126.438 20.5264 126.438 17.2187H116.438H106.438C106.438 16.1476 106.642 14.8198 107.29 13.4457C107.942 12.0637 108.856 11.0318 109.746 10.3153C110.588 9.63745 111.356 9.28046 111.803 9.10441C112.255 8.92603 112.572 8.85723 112.65 8.84082C112.766 8.81682 112.566 8.86492 111.791 8.90766C111.066 8.94759 110.103 8.97041 108.796 8.98078L108.875 18.9805ZM116.438 17.2187H126.438C126.438 13.3329 124.452 10.294 122.071 8.48317C120.13 7.00718 118.085 6.42878 116.929 6.16284C114.52 5.60863 111.642 5.5 108.875 5.5V15.5V25.5C110.088 25.5 110.99 25.5295 111.645 25.5751C112.339 25.6235 112.544 25.6765 112.444 25.6536C112.38 25.6388 112.12 25.5764 111.739 25.4232C111.37 25.2749 110.711 24.9708 109.964 24.4021C109.191 23.8142 108.252 22.8868 107.522 21.5261C106.769 20.1218 106.438 18.6244 106.438 17.2187H116.438ZM127.008 25.2969H117.008V30.7539H127.008H137.008V25.2969H127.008ZM127.008 30.7539V20.7539H90.7422V30.7539V40.7539H127.008V30.7539ZM90.7422 30.7539H100.742V25.2969H90.7422H80.7422V30.7539H90.7422ZM90.7422 25.2969V35.2969H127.008V25.2969V15.2969H90.7422V25.2969ZM122.711 32.2578H112.711V43.2148H122.711H132.711V32.2578H122.711ZM122.711 43.2148V33.2148H101.527V43.2148V53.2148H122.711V43.2148ZM101.527 43.2148H91.5273V44.5039H101.527H111.527V43.2148H101.527ZM101.527 44.5039V54.5039H123.656V44.5039V34.5039H101.527V44.5039ZM123.656 44.5039H113.656V49.5742H123.656H133.656V44.5039H123.656ZM123.656 49.5742V39.5742H94.7812V49.5742V59.5742H123.656V49.5742ZM94.7812 49.5742H104.781V38.4883H94.7812H84.7812V49.5742H94.7812ZM94.7812 38.4883V48.4883H115.922V38.4883V28.4883H94.7812V38.4883ZM115.922 38.4883H125.922V37.2852H115.922H105.922V38.4883H115.922ZM115.922 37.2852V27.2852H94.8242V37.2852V47.2852H115.922V37.2852ZM94.8242 37.2852H104.824V32.2578H94.8242H84.8242V37.2852H94.8242ZM94.8242 32.2578V42.2578H122.711V32.2578V22.2578H94.8242V32.2578ZM145.699 13.3945H155.699C155.699 7.87168 151.222 3.39453 145.699 3.39453V13.3945ZM145.699 21.9023H135.699C135.699 27.4252 140.176 31.9023 145.699 31.9023V21.9023ZM149.051 21.9023V31.9023C154.574 31.9023 159.051 27.4252 159.051 21.9023H149.051ZM149.051 13.3945V3.39453C143.528 3.39453 139.051 7.87168 139.051 13.3945H149.051ZM155.41 13.3945H165.41C165.41 7.87168 160.933 3.39453 155.41 3.39453V13.3945ZM155.41 40.6797V50.6797C160.933 50.6797 165.41 46.2025 165.41 40.6797H155.41ZM139.254 40.6797H129.254C129.254 46.2025 133.731 50.6797 139.254 50.6797V40.6797ZM139.254 13.3945V3.39453C133.731 3.39453 129.254 7.87168 129.254 13.3945H139.254ZM145.699 35.2227L135.699 35.2227C135.699 40.7455 140.176 45.2227 145.699 45.2227V35.2227ZM149.051 35.2227V45.2227C154.574 45.2227 159.051 40.7455 159.051 35.2227H149.051ZM149.051 27.2305H159.051C159.051 21.7076 154.574 17.2305 149.051 17.2305V27.2305ZM145.699 27.2305V17.2305C140.176 17.2305 135.699 21.7076 135.699 27.2305H145.699ZM173.027 10L183.027 10C183.027 4.47715 178.55 0 173.027 0V10ZM173.027 49.7461V59.7461C178.55 59.7461 183.027 55.2689 183.027 49.7461H173.027ZM166.453 49.7461H156.453C156.453 55.2689 160.93 59.7461 166.453 59.7461V49.7461ZM166.453 30.3672H176.453C176.453 24.8443 171.976 20.3672 166.453 20.3672V30.3672ZM164.133 30.3672V20.3672C158.61 20.3672 154.133 24.8443 154.133 30.3672H164.133ZM164.133 48.0273V58.0273C169.656 58.0273 174.133 53.5502 174.133 48.0273H164.133ZM157.645 48.0273H147.645C147.645 53.5502 152.122 58.0273 157.645 58.0273V48.0273ZM157.645 10.4727V0.472656C152.122 0.472656 147.645 4.94981 147.645 10.4727H157.645ZM164.133 10.4727L174.133 10.4727C174.133 4.94981 169.656 0.472656 164.133 0.472656V10.4727ZM164.133 24.8242H154.133C154.133 30.3471 158.61 34.8242 164.133 34.8242V24.8242ZM166.453 24.8242V34.8242C171.976 34.8242 176.453 30.3471 176.453 24.8242H166.453ZM166.453 10V0C160.93 0 156.453 4.47715 156.453 10H166.453ZM145.699 13.3945H135.699V21.9023H145.699H155.699V13.3945H145.699ZM145.699 21.9023V31.9023H149.051V21.9023V11.9023H145.699V21.9023ZM149.051 21.9023H159.051V13.3945H149.051H139.051V21.9023H149.051ZM149.051 13.3945V23.3945H155.41V13.3945V3.39453H149.051V13.3945ZM155.41 13.3945H145.41V40.6797H155.41H165.41V13.3945H155.41ZM155.41 40.6797V30.6797L139.254 30.6797V40.6797V50.6797L155.41 50.6797V40.6797ZM139.254 40.6797L149.254 40.6797V13.3945H139.254H129.254V40.6797H139.254ZM139.254 13.3945V23.3945H145.699V13.3945V3.39453H139.254V13.3945ZM145.699 35.2227V45.2227H149.051V35.2227V25.2227H145.699V35.2227ZM149.051 35.2227H159.051V27.2305H149.051H139.051V35.2227L149.051 35.2227ZM149.051 27.2305V17.2305H145.699V27.2305V37.2305H149.051V27.2305ZM145.699 27.2305H135.699V35.2227L145.699 35.2227H155.699V27.2305H145.699ZM173.027 10H163.027V49.7461H173.027H183.027V10L173.027 10ZM173.027 49.7461V39.7461H166.453V49.7461V59.7461H173.027V49.7461ZM166.453 49.7461H176.453V30.3672H166.453H156.453V49.7461H166.453ZM166.453 30.3672V20.3672H164.133V30.3672V40.3672H166.453V30.3672ZM164.133 30.3672H154.133V48.0273H164.133H174.133V30.3672H164.133ZM164.133 48.0273V38.0273H157.645V48.0273V58.0273H164.133V48.0273ZM157.645 48.0273H167.645V10.4727H157.645H147.645V48.0273H157.645ZM157.645 10.4727V20.4727H164.133V10.4727V0.472656H157.645V10.4727ZM164.133 10.4727H154.133V24.8242H164.133H174.133V10.4727L164.133 10.4727ZM164.133 24.8242V34.8242H166.453V24.8242V14.8242H164.133V24.8242ZM166.453 24.8242H176.453V10L166.453 10H156.453V24.8242H166.453ZM166.453 10V20H173.027V10V0H166.453V10ZM210.195 10H220.195C220.195 4.47715 215.718 0 210.195 0V10ZM210.195 49.875V59.875C215.718 59.875 220.195 55.3978 220.195 49.875H210.195ZM203.32 49.875H193.32C193.32 55.3978 197.797 59.875 203.32 59.875V49.875ZM203.32 34.4062H213.32C213.32 28.8834 208.843 24.4062 203.32 24.4062V34.4062ZM197.52 34.4062H187.52C187.52 39.9291 191.997 44.4062 197.52 44.4062V34.4062ZM197.52 28.8203V18.8203C191.997 18.8203 187.52 23.2975 187.52 28.8203H197.52ZM203.32 28.8203V38.8203C208.843 38.8203 213.32 34.3432 213.32 28.8203H203.32ZM203.32 23.5781L213.32 23.5781C213.32 18.0553 208.843 13.5781 203.32 13.5781V23.5781ZM197.52 23.5781H187.52C187.52 29.101 191.997 33.5781 197.52 33.5781V23.5781ZM197.52 18.0781V8.07812C191.997 8.07812 187.52 12.5553 187.52 18.0781H197.52ZM203.32 18.0781V28.0781C208.843 28.0781 213.32 23.601 213.32 18.0781L203.32 18.0781ZM203.32 10V0C197.797 0 193.32 4.47715 193.32 10H203.32ZM195.715 13.1797H205.715C205.715 7.65684 201.238 3.17969 195.715 3.17969V13.1797ZM195.715 29.1641V39.1641C201.238 39.1641 205.715 34.6869 205.715 29.1641H195.715ZM184.586 29.1641V19.1641C179.063 19.1641 174.586 23.6412 174.586 29.1641H184.586ZM184.586 35.6094H174.586C174.586 38.2878 175.66 40.8543 177.569 42.7338C179.477 44.6133 182.059 45.6488 184.737 45.6082L184.586 35.6094ZM197.133 34.707L207.09 33.7879C206.84 31.0703 205.489 28.5733 203.352 26.8761C201.215 25.1789 198.477 24.4288 195.773 24.7999L197.133 34.707ZM197.648 40.293L199.208 50.1706C204.416 49.3483 208.091 44.6239 207.606 39.3738L197.648 40.293ZM177.711 41.2383H167.711C167.711 46.7611 172.188 51.2383 177.711 51.2383V41.2383ZM177.711 23.8789V13.8789C172.188 13.8789 167.711 18.3561 167.711 23.8789H177.711ZM188.969 23.8789V33.8789C194.492 33.8789 198.969 29.4018 198.969 23.8789H188.969ZM188.969 18.5508H198.969C198.969 13.0279 194.492 8.55078 188.969 8.55078V18.5508ZM177.625 18.5508H167.625C167.625 24.0736 172.102 28.5508 177.625 28.5508V18.5508ZM177.625 13.1797V3.17969C172.102 3.17969 167.625 7.65684 167.625 13.1797H177.625ZM210.195 10H200.195V49.875H210.195H220.195V10H210.195ZM210.195 49.875V39.875H203.32V49.875V59.875H210.195V49.875ZM203.32 49.875H213.32V34.4062H203.32H193.32V49.875H203.32ZM203.32 34.4062V24.4062H197.52V34.4062V44.4062H203.32V34.4062ZM197.52 34.4062H207.52V28.8203H197.52H187.52V34.4062H197.52ZM197.52 28.8203V38.8203H203.32V28.8203V18.8203H197.52V28.8203ZM203.32 28.8203H213.32V23.5781L203.32 23.5781H193.32V28.8203H203.32ZM203.32 23.5781V13.5781H197.52V23.5781V33.5781H203.32V23.5781ZM197.52 23.5781L207.52 23.5781V18.0781L197.52 18.0781H187.52V23.5781H197.52ZM197.52 18.0781V28.0781H203.32V18.0781V8.07812H197.52V18.0781ZM203.32 18.0781L213.32 18.0781V10H203.32H193.32V18.0781H203.32ZM203.32 10V20L210.195 20V10V0H203.32V10ZM195.715 13.1797H185.715V29.1641H195.715H205.715V13.1797H195.715ZM195.715 29.1641V19.1641H184.586V29.1641V39.1641H195.715V29.1641ZM184.586 29.1641H174.586V35.6094H184.586H194.586V29.1641H184.586ZM184.586 35.6094L184.737 45.6082C189.301 45.5391 193.626 45.2822 198.493 44.6141L197.133 34.707L195.773 24.7999C191.874 25.335 188.378 25.5508 184.434 25.6105L184.586 35.6094ZM197.133 34.707L187.175 35.6262L187.691 41.2121L197.648 40.293L207.606 39.3738L207.09 33.7879L197.133 34.707ZM197.648 40.293L196.089 30.4153C191.232 31.1821 186.914 31.2383 180.977 31.2383V41.2383V51.2383C186.898 51.2383 192.635 51.2085 199.208 50.1706L197.648 40.293ZM180.977 41.2383V31.2383H177.711V41.2383V51.2383H180.977V41.2383ZM177.711 41.2383H187.711V23.8789H177.711H167.711V41.2383H177.711ZM177.711 23.8789V33.8789H188.969V23.8789V13.8789H177.711V23.8789ZM188.969 23.8789H198.969V18.5508H188.969H178.969V23.8789H188.969ZM188.969 18.5508V8.55078H177.625V18.5508V28.5508H188.969V18.5508ZM177.625 18.5508H187.625V13.1797H177.625H167.625V18.5508H177.625ZM177.625 13.1797V23.1797H195.715V13.1797V3.17969L177.625 3.17969V13.1797ZM246.117 10H256.117C256.117 4.47715 251.64 0 246.117 0V10ZM246.117 25.082H236.117C236.117 30.6049 240.594 35.082 246.117 35.082V25.082ZM251.488 25.082H261.488C261.488 19.5592 257.011 15.082 251.488 15.082V25.082ZM251.488 30.7109V40.7109C257.011 40.7109 261.488 36.2338 261.488 30.7109H251.488ZM246.117 30.7109V20.7109C240.594 20.7109 236.117 25.1881 236.117 30.7109H246.117ZM246.117 49.7461V59.7461C251.64 59.7461 256.117 55.2689 256.117 49.7461H246.117ZM239.285 49.7461H229.285C229.285 55.2689 233.762 59.7461 239.285 59.7461V49.7461ZM239.285 10V0C233.762 0 229.285 4.47715 229.285 10L239.285 10ZM237.352 15.6719H247.352C247.352 10.149 242.874 5.67187 237.352 5.67187V15.6719ZM237.352 21.1289V31.1289C242.874 31.1289 247.352 26.6518 247.352 21.1289H237.352ZM214.191 21.1289L204.191 21.1289C204.191 26.6518 208.669 31.1289 214.191 31.1289V21.1289ZM214.191 15.6719V5.67187C208.669 5.67187 204.191 10.149 204.191 15.6719L214.191 15.6719ZM222.398 15.6719V25.6719C227.921 25.6719 232.398 21.1947 232.398 15.6719H222.398ZM222.398 10.7305V0.730469C216.876 0.730469 212.398 5.20762 212.398 10.7305H222.398ZM229.273 10.7305L239.273 10.7305C239.273 5.20762 234.796 0.730469 229.273 0.730469V10.7305ZM229.273 15.6719H219.273C219.273 21.1947 223.751 25.6719 229.273 25.6719V15.6719ZM222.012 32.3437L232.011 32.4976C232.012 32.3926 232.012 32.2875 232.01 32.1825L222.012 32.3437ZM246.117 10L236.117 10V25.082H246.117H256.117V10H246.117ZM246.117 25.082V35.082H251.488V25.082V15.082H246.117V25.082ZM251.488 25.082H241.488V30.7109H251.488H261.488V25.082H251.488ZM251.488 30.7109V20.7109H246.117V30.7109V40.7109H251.488V30.7109ZM246.117 30.7109H236.117V49.7461H246.117H256.117V30.7109H246.117ZM246.117 49.7461V39.7461H239.285V49.7461V59.7461H246.117V49.7461ZM239.285 49.7461H249.285V10H239.285L229.285 10V49.7461H239.285ZM239.285 10V20H246.117V10V0L239.285 0V10ZM237.352 15.6719H227.352V21.1289H237.352H247.352V15.6719H237.352ZM237.352 21.1289V11.1289H214.191V21.1289V31.1289H237.352V21.1289ZM214.191 21.1289H224.191V15.6719H214.191L204.191 15.6719V21.1289L214.191 21.1289ZM214.191 15.6719V25.6719H222.398V15.6719V5.67187H214.191V15.6719ZM222.398 15.6719H232.398V10.7305H222.398H212.398V15.6719H222.398ZM222.398 10.7305V20.7305H229.273V10.7305V0.730469H222.398V10.7305ZM229.273 10.7305H219.273V15.6719H229.273H239.273V10.7305L229.273 10.7305ZM229.273 15.6719V25.6719H237.352V15.6719V5.67187H229.273V15.6719ZM225.836 22.6758V32.6758C226.162 32.6758 226.36 32.7311 226.449 32.7641C226.538 32.7974 226.531 32.8128 226.475 32.7608C226.415 32.7055 226.339 32.6106 226.284 32.4862C226.228 32.3569 226.234 32.29 226.234 32.3437H236.234H246.234C246.234 20.4166 236.437 12.6758 225.836 12.6758V22.6758ZM236.234 32.3437H226.234C226.234 32.4188 226.223 32.3657 226.277 32.2435C226.328 32.1256 226.402 32.0317 226.463 31.9749C226.521 31.9214 226.531 31.9351 226.444 31.9673C226.359 31.9994 226.162 32.0547 225.836 32.0547V42.0547V52.0547C236.467 52.0547 246.234 44.2857 246.234 32.3437H236.234ZM225.836 42.0547V32.0547C225.453 32.0547 225.23 31.9911 225.142 31.9582C225.054 31.9257 225.076 31.9166 225.149 31.9846C225.226 32.056 225.306 32.1625 225.358 32.2831C225.411 32.4057 225.395 32.4461 225.395 32.3437H215.395H205.395C205.395 44.2597 215.047 52.0547 225.836 52.0547V42.0547ZM215.395 32.3437H225.395C225.395 32.2625 225.407 32.3167 225.35 32.4465C225.295 32.5737 225.213 32.6813 225.138 32.751C225.066 32.8175 225.047 32.8068 225.137 32.7732C225.229 32.7394 225.453 32.6758 225.836 32.6758V22.6758V12.6758C215.078 12.6758 205.395 20.4426 205.395 32.3437H215.395ZM225.836 28.2187V18.2187C222.522 18.2187 218.801 19.3418 215.917 22.2942C213.013 25.2668 211.958 29.0654 212.013 32.505L222.012 32.3437L232.01 32.1825C232.023 32.958 231.763 34.6941 230.223 36.2703C228.703 37.8262 226.915 38.2187 225.836 38.2187V28.2187ZM222.012 32.3437L212.013 32.1899C211.961 35.5736 212.949 39.4751 215.999 42.5247C219.001 45.5265 222.769 46.4687 225.836 46.4687V36.4687V26.4687C226.668 26.4687 228.503 26.745 230.141 28.3825C231.826 30.0678 232.02 31.9069 232.011 32.4976L222.012 32.3437ZM225.836 36.4687V46.4687C228.949 46.4687 232.706 45.4854 235.675 42.4683C238.648 39.448 239.617 35.6263 239.617 32.3437H229.617H219.617C219.617 31.8542 219.791 30.095 221.421 28.4389C223.048 26.7861 224.914 26.4687 225.836 26.4687V36.4687ZM229.617 32.3437H239.617C239.617 29.0131 238.588 25.2955 235.757 22.3511C232.908 19.3886 229.2 18.2187 225.836 18.2187V28.2187V38.2187C224.663 38.2187 222.846 37.7793 221.34 36.2133C219.852 34.6654 219.617 33.0104 219.617 32.3437H229.617ZM284.789 20.0977H294.789C294.789 14.5748 290.312 10.0977 284.789 10.0977V20.0977ZM284.789 25.4258V35.4258C290.312 35.4258 294.789 30.9486 294.789 25.4258H284.789ZM256.688 25.4258H246.688C246.688 30.9486 251.165 35.4258 256.688 35.4258V25.4258ZM256.688 11.418V1.41797C251.165 1.41797 246.688 5.89512 246.688 11.418H256.688ZM263.562 11.418H273.562C273.562 5.89512 269.085 1.41797 263.562 1.41797V11.418ZM263.562 20.0977H253.562C253.562 25.6205 258.04 30.0977 263.562 30.0977V20.0977ZM288.699 28.9492H298.699C298.699 23.4264 294.222 18.9492 288.699 18.9492V28.9492ZM288.699 34.2773V44.2773C294.222 44.2773 298.699 39.8002 298.699 34.2773H288.699ZM252.434 34.2773H242.434C242.434 39.8002 246.911 44.2773 252.434 44.2773V34.2773ZM252.434 28.9492V18.9492C246.911 18.9492 242.434 23.4264 242.434 28.9492H252.434ZM285.047 43.4727H295.047C295.047 37.9498 290.57 33.4727 285.047 33.4727V43.4727ZM285.047 48.9727V58.9727C290.57 58.9727 295.047 54.4955 295.047 48.9727H285.047ZM256.215 48.9727H246.215C246.215 54.4955 250.692 58.9727 256.215 58.9727V48.9727ZM256.215 37.0273V27.0273C250.692 27.0273 246.215 31.5045 246.215 37.0273H256.215ZM263.176 37.0273H273.176C273.176 31.5045 268.699 27.0273 263.176 27.0273V37.0273ZM263.176 43.4727H253.176C253.176 48.9955 257.653 53.4727 263.176 53.4727V43.4727ZM284.789 20.0977H274.789V25.4258H284.789H294.789V20.0977H284.789ZM284.789 25.4258V15.4258H256.688V25.4258V35.4258H284.789V25.4258ZM256.688 25.4258H266.688V11.418H256.688H246.688V25.4258H256.688ZM256.688 11.418V21.418H263.562V11.418V1.41797H256.688V11.418ZM263.562 11.418H253.562V20.0977H263.562H273.562V11.418H263.562ZM263.562 20.0977V30.0977H284.789V20.0977V10.0977H263.562V20.0977ZM288.699 28.9492H278.699V34.2773H288.699H298.699V28.9492H288.699ZM288.699 34.2773V24.2773H252.434V34.2773V44.2773H288.699V34.2773ZM252.434 34.2773H262.434V28.9492H252.434H242.434V34.2773H252.434ZM252.434 28.9492V38.9492H288.699V28.9492V18.9492H252.434V28.9492ZM285.047 43.4727H275.047V48.9727H285.047H295.047V43.4727H285.047ZM285.047 48.9727V38.9727H256.215V48.9727V58.9727H285.047V48.9727ZM256.215 48.9727H266.215V37.0273H256.215H246.215V48.9727H256.215ZM256.215 37.0273V47.0273H263.176V37.0273V27.0273H256.215V37.0273ZM263.176 37.0273H253.176V43.4727H263.176H273.176V37.0273H263.176ZM263.176 43.4727V53.4727H285.047V43.4727V33.4727H263.176V43.4727Z" fill="white" mask="url(#path-1-outside-1_6524_1817)"/>
</g>
<defs>
<filter id="filter0_d_6524_1817" x="0" y="0" width="302.699" height="67.875" filterUnits="userSpaceOnUse" color-interpolation-filters="sRGB">
<feFlood flood-opacity="0" result="BackgroundImageFix"/>
<feColorMatrix in="SourceAlpha" type="matrix" values="0 0 0 0 0 0 0 0 0 0 0 0 0 0 0 0 0 0 127 0" result="hardAlpha"/>
<feOffset dy="4"/>
<feGaussianBlur stdDeviation="2"/>
<feComposite in2="hardAlpha" operator="out"/>
<feColorMatrix type="matrix" values="0 0 0 0 0 0 0 0 0 0 0 0 0 0 0 0 0 0 0.07 0"/>
<feBlend mode="normal" in2="BackgroundImageFix" result="effect1_dropShadow_6524_1817"/>
<feBlend mode="normal" in="SourceGraphic" in2="effect1_dropShadow_6524_1817" result="shape"/>
</filter>
</defs>
</svg>
