<svg width="351" height="68" viewBox="0 0 351 68" fill="none" xmlns="http://www.w3.org/2000/svg">
<g filter="url(#filter0_d_6524_1830)">
<mask id="path-1-outside-1_6524_1830" maskUnits="userSpaceOnUse" x="3.78516" y="-0.507813" width="343" height="61" fill="black">
<rect fill="white" x="3.78516" y="-0.507813" width="343" height="61"/>
<path d="M46.4844 10V18.0781H51.4258V23.707H46.4844V32H39.5664V10L46.4844 10ZM35.1836 12.1914C35.1836 23.0195 28.7383 30.1094 16.707 33.2461L14 27.7461C22.293 25.834 26.6328 22.0098 27.5781 17.6055H16.0625V12.1914H35.1836ZM46.4844 33.2891V49.3164H19.9727V33.2891H46.4844ZM26.8047 38.7891V43.9883H39.6953V38.7891H26.8047ZM86.5312 10V33.5898H79.6562V24.8242L74.6719 24.8242V19.2812L79.6562 19.2812V10H86.5312ZM72.6953 34.2344C81.332 34.2344 86.6172 37.1133 86.6172 42.0547C86.6172 46.9531 81.332 49.875 72.6953 49.875C64.1445 49.875 58.8594 46.9531 58.8594 42.0547C58.8594 37.1133 64.1445 34.2344 72.6953 34.2344ZM72.6953 39.4336C67.9688 39.4336 65.6914 40.1641 65.7344 42.0547C65.6914 43.9023 67.9688 44.6758 72.6953 44.6758C77.4648 44.6758 79.7852 43.9023 79.7852 42.0547C79.7852 40.1641 77.4648 39.4336 72.6953 39.4336ZM75.7461 12.1055V17.6055H68.5703C68.9785 21.5801 71.2988 25.5762 77.1641 27.4883L73.8555 32.8594C69.6016 31.5488 66.7871 28.9707 65.0469 25.7695C63.3281 29.4219 60.3418 32.3652 55.7656 33.8477L52.1992 28.3906C58.5371 26.3711 60.9219 21.8594 61.3516 17.6055H54.1328V12.1055H75.7461ZM136.633 39.8633V45.3203H100.324V39.8633H114.848V31.3125H121.723V39.8633H136.633ZM121.938 14.7266C121.895 19.7969 125.246 25.8555 135.73 27.4023L132.852 33.1172C125.525 31.8711 120.777 28.4551 118.242 23.9648C115.643 28.4336 110.938 31.9141 103.719 33.1172L100.84 27.4023C111.152 25.8555 114.504 19.668 114.504 14.7266V12.0625H121.938V14.7266ZM174.66 39.8203V45.4062L138.352 45.4062V39.8203L153.047 39.8203V32.6875H141.918V12.707H170.922V32.6875H159.879V39.8203H174.66ZM148.75 18.207V27.3594H164.09V18.207H148.75ZM212.645 27.4023V32.4297H176.379V27.4023L212.645 27.4023ZM208.434 33.6328V43.6445H187.207V44.9336H209.508V49.4883H180.375V39.3906H201.602V38.2734H180.375V33.6328H208.434ZM208.434 10.4727V20.4844L187.594 20.4844V21.7734L209.121 21.7734V26.2852L180.762 26.2852V16.2305H201.559V15.0273H180.719V10.4727H208.434ZM260.254 25.3398V30.668H245.516V32.3437H255.957V43.1719H234.773V44.5039H256.902V49.5742H228.027V38.4883H249.168V37.3711H228.07V32.3437H238.684V30.668H223.988V25.3398H260.254ZM256.945 10.9883V16.1875H247.277C248.76 17.7773 252.154 19.2812 258.879 19.668L256.73 24.7812C249.061 24.3086 244.377 22.1816 242.078 19.1953C239.715 22.1602 235.096 24.3086 227.512 24.7812L225.406 19.668C232.066 19.2598 235.396 17.7773 236.879 16.1875H227.297V10.9883L256.945 10.9883ZM295.574 10V49.875H288.613V10H295.574ZM273.746 12.6641C279.805 12.6211 284.359 18.207 284.359 26.9727C284.359 35.8672 279.805 41.4102 273.746 41.4102C267.559 41.4102 262.961 35.8672 262.961 26.9727C262.961 18.207 267.559 12.6211 273.746 12.6641ZM273.746 18.8945C271.211 18.8516 269.621 21.4727 269.621 26.9727C269.621 32.5586 271.211 35.0937 273.746 35.0937C276.109 35.0937 277.742 32.5586 277.742 26.9727C277.742 21.4727 276.109 18.8516 273.746 18.8945ZM332.398 20.0977V25.4258H304.297V11.418H311.172V20.0977H332.398ZM336.309 28.9492V34.2773H300.043V28.9492H336.309ZM332.656 43.4727V48.9727H303.824V37.0273H310.785V43.4727H332.656Z"/>
</mask>
<path d="M46.4844 10V18.0781H51.4258V23.707H46.4844V32H39.5664V10L46.4844 10ZM35.1836 12.1914C35.1836 23.0195 28.7383 30.1094 16.707 33.2461L14 27.7461C22.293 25.834 26.6328 22.0098 27.5781 17.6055H16.0625V12.1914H35.1836ZM46.4844 33.2891V49.3164H19.9727V33.2891H46.4844ZM26.8047 38.7891V43.9883H39.6953V38.7891H26.8047ZM86.5312 10V33.5898H79.6562V24.8242L74.6719 24.8242V19.2812L79.6562 19.2812V10H86.5312ZM72.6953 34.2344C81.332 34.2344 86.6172 37.1133 86.6172 42.0547C86.6172 46.9531 81.332 49.875 72.6953 49.875C64.1445 49.875 58.8594 46.9531 58.8594 42.0547C58.8594 37.1133 64.1445 34.2344 72.6953 34.2344ZM72.6953 39.4336C67.9688 39.4336 65.6914 40.1641 65.7344 42.0547C65.6914 43.9023 67.9688 44.6758 72.6953 44.6758C77.4648 44.6758 79.7852 43.9023 79.7852 42.0547C79.7852 40.1641 77.4648 39.4336 72.6953 39.4336ZM75.7461 12.1055V17.6055H68.5703C68.9785 21.5801 71.2988 25.5762 77.1641 27.4883L73.8555 32.8594C69.6016 31.5488 66.7871 28.9707 65.0469 25.7695C63.3281 29.4219 60.3418 32.3652 55.7656 33.8477L52.1992 28.3906C58.5371 26.3711 60.9219 21.8594 61.3516 17.6055H54.1328V12.1055H75.7461ZM136.633 39.8633V45.3203H100.324V39.8633H114.848V31.3125H121.723V39.8633H136.633ZM121.938 14.7266C121.895 19.7969 125.246 25.8555 135.73 27.4023L132.852 33.1172C125.525 31.8711 120.777 28.4551 118.242 23.9648C115.643 28.4336 110.938 31.9141 103.719 33.1172L100.84 27.4023C111.152 25.8555 114.504 19.668 114.504 14.7266V12.0625H121.938V14.7266ZM174.66 39.8203V45.4062L138.352 45.4062V39.8203L153.047 39.8203V32.6875H141.918V12.707H170.922V32.6875H159.879V39.8203H174.66ZM148.75 18.207V27.3594H164.09V18.207H148.75ZM212.645 27.4023V32.4297H176.379V27.4023L212.645 27.4023ZM208.434 33.6328V43.6445H187.207V44.9336H209.508V49.4883H180.375V39.3906H201.602V38.2734H180.375V33.6328H208.434ZM208.434 10.4727V20.4844L187.594 20.4844V21.7734L209.121 21.7734V26.2852L180.762 26.2852V16.2305H201.559V15.0273H180.719V10.4727H208.434ZM260.254 25.3398V30.668H245.516V32.3437H255.957V43.1719H234.773V44.5039H256.902V49.5742H228.027V38.4883H249.168V37.3711H228.07V32.3437H238.684V30.668H223.988V25.3398H260.254ZM256.945 10.9883V16.1875H247.277C248.76 17.7773 252.154 19.2812 258.879 19.668L256.73 24.7812C249.061 24.3086 244.377 22.1816 242.078 19.1953C239.715 22.1602 235.096 24.3086 227.512 24.7812L225.406 19.668C232.066 19.2598 235.396 17.7773 236.879 16.1875H227.297V10.9883L256.945 10.9883ZM295.574 10V49.875H288.613V10H295.574ZM273.746 12.6641C279.805 12.6211 284.359 18.207 284.359 26.9727C284.359 35.8672 279.805 41.4102 273.746 41.4102C267.559 41.4102 262.961 35.8672 262.961 26.9727C262.961 18.207 267.559 12.6211 273.746 12.6641ZM273.746 18.8945C271.211 18.8516 269.621 21.4727 269.621 26.9727C269.621 32.5586 271.211 35.0937 273.746 35.0937C276.109 35.0937 277.742 32.5586 277.742 26.9727C277.742 21.4727 276.109 18.8516 273.746 18.8945ZM332.398 20.0977V25.4258H304.297V11.418H311.172V20.0977H332.398ZM336.309 28.9492V34.2773H300.043V28.9492H336.309ZM332.656 43.4727V48.9727H303.824V37.0273H310.785V43.4727H332.656Z" fill="#11DCA9"/>
<path d="M46.4844 10H56.4844C56.4844 4.47715 52.0072 0 46.4844 0V10ZM46.4844 18.0781H36.4844C36.4844 23.601 40.9615 28.0781 46.4844 28.0781V18.0781ZM51.4258 18.0781H61.4258C61.4258 12.5553 56.9486 8.07812 51.4258 8.07812V18.0781ZM51.4258 23.707V33.707C56.9486 33.707 61.4258 29.2299 61.4258 23.707H51.4258ZM46.4844 23.707V13.707C40.9615 13.707 36.4844 18.1842 36.4844 23.707H46.4844ZM46.4844 32V42C52.0072 42 56.4844 37.5228 56.4844 32H46.4844ZM39.5664 32H29.5664C29.5664 37.5228 34.0436 42 39.5664 42V32ZM39.5664 10V0C34.0436 0 29.5664 4.47715 29.5664 10H39.5664ZM35.1836 12.1914H45.1836C45.1836 6.66856 40.7064 2.19141 35.1836 2.19141V12.1914ZM16.707 33.2461L7.7349 37.6621C9.8317 41.9222 14.6352 44.1205 19.2298 42.9226L16.707 33.2461ZM14 27.7461L11.7532 18.0018C8.77692 18.688 6.27743 20.6969 4.96704 23.4559C3.65664 26.215 3.67904 29.4216 5.02787 32.1621L14 27.7461ZM27.5781 17.6055L37.3555 19.704C37.9893 16.7508 37.2544 13.6693 35.3558 11.32C33.4573 8.97073 30.5986 7.60547 27.5781 7.60547V17.6055ZM16.0625 17.6055H6.0625C6.0625 23.1283 10.5397 27.6055 16.0625 27.6055V17.6055ZM16.0625 12.1914V2.19141C10.5397 2.19141 6.0625 6.66856 6.0625 12.1914H16.0625ZM46.4844 33.2891H56.4844C56.4844 27.7662 52.0072 23.2891 46.4844 23.2891V33.2891ZM46.4844 49.3164V59.3164C52.0072 59.3164 56.4844 54.8393 56.4844 49.3164H46.4844ZM19.9727 49.3164H9.97266C9.97266 54.8393 14.4498 59.3164 19.9727 59.3164V49.3164ZM19.9727 33.2891V23.2891C14.4498 23.2891 9.97266 27.7662 9.97266 33.2891H19.9727ZM26.8047 38.7891V28.7891C21.2818 28.7891 16.8047 33.2662 16.8047 38.7891H26.8047ZM26.8047 43.9883H16.8047C16.8047 49.5111 21.2818 53.9883 26.8047 53.9883V43.9883ZM39.6953 43.9883V53.9883C45.2182 53.9883 49.6953 49.5111 49.6953 43.9883H39.6953ZM39.6953 38.7891H49.6953C49.6953 33.2662 45.2182 28.7891 39.6953 28.7891V38.7891ZM46.4844 10L36.4844 10V18.0781H46.4844H56.4844V10H46.4844ZM46.4844 18.0781V28.0781H51.4258V18.0781V8.07812H46.4844V18.0781ZM51.4258 18.0781H41.4258V23.707H51.4258H61.4258V18.0781H51.4258ZM51.4258 23.707V13.707H46.4844V23.707V33.707H51.4258V23.707ZM46.4844 23.707H36.4844V32H46.4844H56.4844V23.707H46.4844ZM46.4844 32V22H39.5664V32V42H46.4844V32ZM39.5664 32H49.5664V10L39.5664 10H29.5664V32H39.5664ZM39.5664 10V20H46.4844V10V0H39.5664V10ZM35.1836 12.1914H25.1836C25.1836 15.4844 24.2651 17.5114 22.9703 18.9736C21.5452 20.5831 18.9105 22.3373 14.1842 23.5696L16.707 33.2461L19.2298 42.9226C26.5348 41.0181 33.1384 37.6591 37.9437 32.2325C42.8795 26.6585 45.1836 19.7265 45.1836 12.1914H35.1836ZM16.707 33.2461L25.6792 28.8301L22.9721 23.3301L14 27.7461L5.02787 32.1621L7.7349 37.6621L16.707 33.2461ZM14 27.7461L16.2468 37.4904C26.1029 35.2179 35.2075 29.7113 37.3555 19.704L27.5781 17.6055L17.8008 15.5069C17.8962 15.0626 18.0887 15.184 17.3972 15.7229C16.6181 16.3301 14.9225 17.271 11.7532 18.0018L14 27.7461ZM27.5781 17.6055V7.60547H16.0625V17.6055V27.6055H27.5781V17.6055ZM16.0625 17.6055H26.0625V12.1914H16.0625H6.0625L6.0625 17.6055H16.0625ZM16.0625 12.1914V22.1914H35.1836V12.1914V2.19141L16.0625 2.19141V12.1914ZM46.4844 33.2891H36.4844V49.3164H46.4844H56.4844V33.2891H46.4844ZM46.4844 49.3164V39.3164H19.9727V49.3164V59.3164H46.4844V49.3164ZM19.9727 49.3164H29.9727V33.2891H19.9727H9.97266L9.97266 49.3164H19.9727ZM19.9727 33.2891V43.2891H46.4844V33.2891V23.2891H19.9727V33.2891ZM26.8047 38.7891H16.8047V43.9883H26.8047H36.8047V38.7891H26.8047ZM26.8047 43.9883V53.9883H39.6953V43.9883V33.9883H26.8047V43.9883ZM39.6953 43.9883H49.6953V38.7891H39.6953H29.6953V43.9883H39.6953ZM39.6953 38.7891V28.7891H26.8047V38.7891V48.7891H39.6953V38.7891ZM86.5312 10H96.5312C96.5312 4.47715 92.0541 0 86.5312 0V10ZM86.5312 33.5898V43.5898C92.0541 43.5898 96.5312 39.1127 96.5312 33.5898H86.5312ZM79.6562 33.5898H69.6562C69.6562 39.1127 74.1334 43.5898 79.6562 43.5898V33.5898ZM79.6562 24.8242H89.6562C89.6562 19.3014 85.1791 14.8242 79.6562 14.8242V24.8242ZM74.6719 24.8242H64.6719C64.6719 30.3471 69.149 34.8242 74.6719 34.8242V24.8242ZM74.6719 19.2812V9.28125C69.149 9.28125 64.6719 13.7584 64.6719 19.2812H74.6719ZM79.6562 19.2812V29.2812C85.1791 29.2812 89.6562 24.8041 89.6562 19.2812H79.6562ZM79.6562 10V0C74.1334 0 69.6562 4.47715 69.6562 10H79.6562ZM65.7344 42.0547L75.7317 42.2872C75.7352 42.134 75.7353 41.9807 75.7318 41.8275L65.7344 42.0547ZM75.7461 12.1055H85.7461C85.7461 6.58262 81.2689 2.10547 75.7461 2.10547V12.1055ZM75.7461 17.6055V27.6055C81.2689 27.6055 85.7461 23.1283 85.7461 17.6055L75.7461 17.6055ZM68.5703 17.6055V7.60547C65.7404 7.60547 63.0429 8.80453 61.1468 10.9053C59.2507 13.0062 58.3335 15.812 58.6226 18.6271L68.5703 17.6055ZM77.1641 27.4883L85.6783 32.7331C87.286 30.1232 87.6079 26.9202 86.5517 24.0426C85.4955 21.1651 83.1779 18.9308 80.2636 17.9808L77.1641 27.4883ZM73.8555 32.8594L70.9112 42.4161C75.2671 43.7581 79.9792 41.9848 82.3697 38.1041L73.8555 32.8594ZM65.0469 25.7695L73.8326 20.9934C72.0325 17.6822 68.5237 15.6643 64.7565 15.7738C60.9892 15.8832 57.6035 18.1014 55.9987 21.5116L65.0469 25.7695ZM55.7656 33.8477L47.3948 39.3184C49.8631 43.0953 54.555 44.7514 58.8474 43.3609L55.7656 33.8477ZM52.1992 28.3906L49.1632 18.8626C46.1866 19.8111 43.8244 22.0961 42.7775 25.0394C41.7305 27.9828 42.1193 31.2463 43.8284 33.8613L52.1992 28.3906ZM61.3516 17.6055L71.3009 18.6105C71.585 15.7977 70.6653 12.9962 68.7694 10.8991C66.8735 8.80207 64.1786 7.60547 61.3516 7.60547V17.6055ZM54.1328 17.6055H44.1328C44.1328 23.1283 48.61 27.6055 54.1328 27.6055V17.6055ZM54.1328 12.1055V2.10547C48.61 2.10547 44.1328 6.58262 44.1328 12.1055L54.1328 12.1055ZM86.5312 10H76.5312V33.5898H86.5312H96.5312V10H86.5312ZM86.5312 33.5898V23.5898H79.6562V33.5898V43.5898H86.5312V33.5898ZM79.6562 33.5898H89.6562V24.8242H79.6562L69.6562 24.8242V33.5898H79.6562ZM79.6562 24.8242V14.8242L74.6719 14.8242V24.8242V34.8242H79.6562V24.8242ZM74.6719 24.8242L84.6719 24.8242V19.2812L74.6719 19.2812H64.6719V24.8242H74.6719ZM74.6719 19.2812V29.2812H79.6562V19.2812V9.28125H74.6719V19.2812ZM79.6562 19.2812H89.6562V10H79.6562H69.6562V19.2812L79.6562 19.2812ZM79.6562 10V20H86.5312V10V0L79.6562 0V10ZM72.6953 34.2344V44.2344C74.3179 44.2344 75.5871 44.3712 76.5249 44.5616C77.4804 44.7555 77.9278 44.9714 78.0286 45.0275C78.1125 45.0742 77.7112 44.8702 77.2852 44.2182C76.8168 43.5014 76.6172 42.6952 76.6172 42.0547H86.6172H96.6172C96.6172 35.2516 92.6637 30.2863 87.7614 27.5555C83.2919 25.0657 77.8985 24.2344 72.6953 24.2344V34.2344ZM86.6172 42.0547H76.6172C76.6172 41.3866 76.8258 40.5745 77.2904 39.865C77.7121 39.2211 78.1047 39.0231 78.0137 39.074C77.9077 39.1333 77.4576 39.3506 76.5065 39.5455C75.5725 39.737 74.3091 39.875 72.6953 39.875V49.875V59.875C77.9215 59.875 83.3132 59.0256 87.7763 56.5295C92.6448 53.8066 96.6172 48.8554 96.6172 42.0547H86.6172ZM72.6953 49.875V39.875C71.1089 39.875 69.866 39.7379 68.9475 39.5484C68.0122 39.3553 67.5706 39.1406 67.4688 39.0834C67.3816 39.0344 67.7718 39.2329 68.1901 39.8732C68.6511 40.5786 68.8594 41.387 68.8594 42.0547H58.8594H48.8594C48.8594 48.8478 52.8231 53.7955 57.6728 56.5201C62.1248 59.0212 67.4982 59.875 72.6953 59.875V49.875ZM58.8594 42.0547H68.8594C68.8594 42.6948 68.6601 43.4973 68.1954 44.2101C67.7726 44.8584 67.3739 45.063 67.4538 45.0182C67.5504 44.9642 67.9893 44.7509 68.929 44.5588C69.8513 44.3702 71.1 44.2344 72.6953 44.2344V34.2344V24.2344C67.5213 24.2344 62.1463 25.07 57.6878 27.5648C52.8042 30.2974 48.8594 35.2592 48.8594 42.0547H58.8594ZM72.6953 39.4336V29.4336C70.1698 29.4336 66.9196 29.5812 64.0159 30.6347C62.4584 31.1997 60.2819 32.2766 58.4873 34.4095C56.5065 36.7637 55.6758 39.5902 55.737 42.2819L65.7344 42.0547L75.7318 41.8275C75.7715 43.5739 75.2093 45.6 73.7911 47.2856C72.5592 48.7498 71.2393 49.2896 70.8367 49.4356C70.4048 49.5923 70.2823 49.5641 70.7178 49.5155C71.1096 49.4717 71.7444 49.4336 72.6953 49.4336V39.4336ZM65.7344 42.0547L55.7371 41.8222C55.6733 44.5629 56.5407 47.3821 58.5065 49.7045C60.2839 51.8043 62.4313 52.8764 63.9773 53.4445C66.8791 54.5107 70.1232 54.6758 72.6953 54.6758V44.6758V34.6758C71.7609 34.6758 71.1369 34.6362 70.7553 34.5921C70.3319 34.5432 70.4509 34.5158 70.8752 34.6717C71.2665 34.8155 72.5572 35.3478 73.7719 36.7829C75.1752 38.4407 75.7739 40.4703 75.7317 42.2872L65.7344 42.0547ZM72.6953 44.6758V54.6758C75.2958 54.6758 78.5296 54.5082 81.4221 53.4648C82.9575 52.9109 85.0772 51.8732 86.8597 49.8449C88.8326 47.5998 89.7852 44.8269 89.7852 42.0547H79.7852H69.7852C69.7852 40.2063 70.4476 38.2229 71.8364 36.6426C73.0348 35.2789 74.2764 34.781 74.6355 34.6514C75.0295 34.5093 75.1202 34.5405 74.6813 34.5906C74.2821 34.6361 73.6422 34.6758 72.6953 34.6758V44.6758ZM79.7852 42.0547H89.7852C89.7852 39.3294 88.8694 36.547 86.8795 34.2689C85.0791 32.2078 82.9303 31.1656 81.384 30.6148C78.4895 29.5839 75.2498 29.4336 72.6953 29.4336V39.4336V49.4336C73.6585 49.4336 74.3092 49.4718 74.7184 49.5169C75.1692 49.5667 75.0751 49.5985 74.6736 49.4555C74.3036 49.3237 73.033 48.8186 71.8167 47.4262C70.4109 45.8167 69.7852 43.8347 69.7852 42.0547H79.7852ZM75.7461 12.1055H65.7461V17.6055H75.7461L85.7461 17.6055V12.1055H75.7461ZM75.7461 17.6055V7.60547H68.5703V17.6055V27.6055H75.7461V17.6055ZM68.5703 17.6055L58.6226 18.6271C59.4142 26.334 64.2505 33.7964 74.0645 36.9958L77.1641 27.4883L80.2636 17.9808C79.5917 17.7617 79.1969 17.541 78.9868 17.3996C78.7828 17.2624 78.7042 17.1678 78.6814 17.1389C78.6591 17.1105 78.5593 16.9857 78.518 16.5838L68.5703 17.6055ZM77.1641 27.4883L68.6498 22.2435L65.3412 27.6146L73.8555 32.8594L82.3697 38.1041L85.6783 32.7331L77.1641 27.4883ZM73.8555 32.8594L76.7997 23.3026C75.8712 23.0166 75.2906 22.6575 74.9034 22.3354C74.5095 22.0078 74.1524 21.5818 73.8326 20.9934L65.0469 25.7695L56.2612 30.5457C59.1939 35.9405 64.0518 40.3029 70.9112 42.4161L73.8555 32.8594ZM65.0469 25.7695L55.9987 21.5116C55.3954 22.7935 54.496 23.7473 52.6839 24.3344L55.7656 33.8477L58.8474 43.3609C66.1876 40.9831 71.2608 36.0503 74.0951 30.0275L65.0469 25.7695ZM55.7656 33.8477L64.1365 28.3769L60.5701 22.9199L52.1992 28.3906L43.8284 33.8613L47.3948 39.3184L55.7656 33.8477ZM52.1992 28.3906L55.2353 37.9186C65.8918 34.523 70.5289 26.2539 71.3009 18.6105L61.3516 17.6055L51.4022 16.6005C51.3357 17.2589 51.1523 17.6219 51.0071 17.8144C50.9174 17.9335 50.534 18.4258 49.1632 18.8626L52.1992 28.3906ZM61.3516 17.6055V7.60547H54.1328V17.6055V27.6055H61.3516V17.6055ZM54.1328 17.6055H64.1328V12.1055H54.1328L44.1328 12.1055V17.6055H54.1328ZM54.1328 12.1055V22.1055H75.7461V12.1055V2.10547L54.1328 2.10547V12.1055ZM136.633 39.8633L146.633 39.8633C146.633 34.3404 142.156 29.8633 136.633 29.8633V39.8633ZM136.633 45.3203V55.3203C142.156 55.3203 146.633 50.8432 146.633 45.3203L136.633 45.3203ZM100.324 45.3203H90.3242C90.3242 50.8432 94.8014 55.3203 100.324 55.3203V45.3203ZM100.324 39.8633V29.8633C94.8014 29.8633 90.3242 34.3404 90.3242 39.8633H100.324ZM114.848 39.8633V49.8633C120.371 49.8633 124.848 45.3861 124.848 39.8633H114.848ZM114.848 31.3125V21.3125C109.325 21.3125 104.848 25.7897 104.848 31.3125H114.848ZM121.723 31.3125H131.723C131.723 25.7897 127.246 21.3125 121.723 21.3125V31.3125ZM121.723 39.8633H111.723C111.723 45.3861 116.2 49.8633 121.723 49.8633V39.8633ZM121.938 14.7266L131.937 14.8113C131.937 14.7831 131.938 14.7548 131.938 14.7266H121.938ZM135.73 27.4023L144.661 31.9013C146.106 29.0331 146.086 25.6454 144.606 22.7949C143.126 19.9445 140.367 17.9782 137.19 17.5094L135.73 27.4023ZM132.852 33.1172L131.175 42.9756C135.504 43.7119 139.807 41.5379 141.782 37.6162L132.852 33.1172ZM118.242 23.9648L126.95 19.0484C125.188 15.9275 121.891 13.9882 118.307 13.9651C114.723 13.9419 111.401 15.8385 109.598 18.9365L118.242 23.9648ZM103.719 33.1172L94.7879 37.6162C96.758 41.5269 101.043 43.701 105.363 42.9811L103.719 33.1172ZM100.84 27.4023L99.3564 17.513C96.1845 17.9888 93.4333 19.9572 91.959 22.8056C90.4846 25.6541 90.466 29.0369 91.909 31.9013L100.84 27.4023ZM114.504 12.0625V2.0625C108.981 2.0625 104.504 6.53965 104.504 12.0625L114.504 12.0625ZM121.938 12.0625H131.938C131.938 6.53965 127.46 2.0625 121.938 2.0625V12.0625ZM136.633 39.8633H126.633V45.3203H136.633L146.633 45.3203V39.8633L136.633 39.8633ZM136.633 45.3203V35.3203H100.324V45.3203V55.3203H136.633V45.3203ZM100.324 45.3203H110.324V39.8633H100.324H90.3242V45.3203H100.324ZM100.324 39.8633V49.8633H114.848V39.8633V29.8633H100.324V39.8633ZM114.848 39.8633H124.848V31.3125H114.848H104.848V39.8633H114.848ZM114.848 31.3125V41.3125H121.723V31.3125V21.3125H114.848V31.3125ZM121.723 31.3125H111.723V39.8633H121.723H131.723V31.3125H121.723ZM121.723 39.8633V49.8633H136.633V39.8633V29.8633H121.723V39.8633ZM121.938 14.7266L111.938 14.6418C111.897 19.4215 113.477 24.7306 117.509 29.1369C121.545 33.5468 127.307 36.2679 134.271 37.2952L135.73 27.4023L137.19 17.5094C133.669 16.99 132.514 15.9083 132.263 15.6346C132.01 15.3573 131.935 15.1019 131.937 14.8113L121.938 14.7266ZM135.73 27.4023L126.8 22.9034L123.921 28.6182L132.852 33.1172L141.782 37.6162L144.661 31.9013L135.73 27.4023ZM132.852 33.1172L134.528 23.2588C129.614 22.423 127.748 20.4623 126.95 19.0484L118.242 23.9648L109.534 28.8813C113.806 36.4479 121.436 41.3192 131.175 42.9756L132.852 33.1172ZM118.242 23.9648L109.598 18.9365C108.664 20.5428 106.703 22.4818 102.075 23.2532L103.719 33.1172L105.363 42.9811C115.172 41.3463 122.621 36.3244 126.886 28.9932L118.242 23.9648ZM103.719 33.1172L112.65 28.6182L109.771 22.9034L100.84 27.4023L91.909 31.9013L94.7879 37.6162L103.719 33.1172ZM100.84 27.4023L102.323 37.2917C109.293 36.2462 114.991 33.4401 118.964 29.0355C122.901 24.672 124.504 19.4351 124.504 14.7266H114.504H104.504C104.504 14.9594 104.432 15.287 104.114 15.6393C103.833 15.9505 102.699 17.0116 99.3564 17.513L100.84 27.4023ZM114.504 14.7266H124.504V12.0625H114.504L104.504 12.0625V14.7266H114.504ZM114.504 12.0625V22.0625H121.938V12.0625V2.0625H114.504V12.0625ZM121.938 12.0625H111.938V14.7266H121.938H131.938V12.0625H121.938ZM174.66 39.8203H184.66C184.66 34.2975 180.183 29.8203 174.66 29.8203V39.8203ZM174.66 45.4062V55.4062C180.183 55.4062 184.66 50.9291 184.66 45.4062H174.66ZM138.352 45.4062H128.352C128.352 50.9291 132.829 55.4062 138.352 55.4062V45.4062ZM138.352 39.8203V29.8203C132.829 29.8203 128.352 34.2975 128.352 39.8203H138.352ZM153.047 39.8203V49.8203C158.57 49.8203 163.047 45.3432 163.047 39.8203H153.047ZM153.047 32.6875H163.047C163.047 27.1647 158.57 22.6875 153.047 22.6875V32.6875ZM141.918 32.6875L131.918 32.6875C131.918 38.2103 136.395 42.6875 141.918 42.6875V32.6875ZM141.918 12.707V2.70703C136.395 2.70703 131.918 7.18418 131.918 12.707H141.918ZM170.922 12.707H180.922C180.922 7.18418 176.445 2.70703 170.922 2.70703V12.707ZM170.922 32.6875V42.6875C176.445 42.6875 180.922 38.2103 180.922 32.6875H170.922ZM159.879 32.6875V22.6875C154.356 22.6875 149.879 27.1647 149.879 32.6875H159.879ZM159.879 39.8203H149.879C149.879 45.3432 154.356 49.8203 159.879 49.8203V39.8203ZM148.75 18.207V8.20703C143.227 8.20703 138.75 12.6842 138.75 18.207H148.75ZM148.75 27.3594H138.75C138.75 32.8822 143.227 37.3594 148.75 37.3594V27.3594ZM164.09 27.3594V37.3594C169.613 37.3594 174.09 32.8822 174.09 27.3594H164.09ZM164.09 18.207H174.09C174.09 12.6842 169.613 8.20703 164.09 8.20703V18.207ZM174.66 39.8203H164.66V45.4062H174.66H184.66V39.8203H174.66ZM174.66 45.4062V35.4062L138.352 35.4062V45.4062V55.4062L174.66 55.4062V45.4062ZM138.352 45.4062L148.352 45.4062V39.8203L138.352 39.8203H128.352V45.4062H138.352ZM138.352 39.8203V49.8203L153.047 49.8203V39.8203V29.8203L138.352 29.8203V39.8203ZM153.047 39.8203H163.047V32.6875H153.047H143.047V39.8203H153.047ZM153.047 32.6875V22.6875H141.918V32.6875V42.6875H153.047V32.6875ZM141.918 32.6875H151.918V12.707H141.918H131.918V32.6875L141.918 32.6875ZM141.918 12.707V22.707H170.922V12.707V2.70703L141.918 2.70703V12.707ZM170.922 12.707H160.922V32.6875H170.922H180.922V12.707H170.922ZM170.922 32.6875V22.6875H159.879V32.6875V42.6875H170.922V32.6875ZM159.879 32.6875H149.879V39.8203H159.879H169.879V32.6875H159.879ZM159.879 39.8203V49.8203H174.66V39.8203V29.8203H159.879V39.8203ZM148.75 18.207H138.75V27.3594H148.75H158.75V18.207H148.75ZM148.75 27.3594V37.3594H164.09V27.3594V17.3594H148.75V27.3594ZM164.09 27.3594H174.09V18.207H164.09H154.09V27.3594H164.09ZM164.09 18.207V8.20703H148.75V18.207V28.207H164.09V18.207ZM212.645 27.4023H222.645C222.645 21.8795 218.167 17.4023 212.645 17.4023V27.4023ZM212.645 32.4297V42.4297C218.167 42.4297 222.645 37.9525 222.645 32.4297H212.645ZM176.379 32.4297H166.379C166.379 37.9525 170.856 42.4297 176.379 42.4297V32.4297ZM176.379 27.4023V17.4023C170.856 17.4023 166.379 21.8795 166.379 27.4023H176.379ZM208.434 33.6328H218.434C218.434 28.11 213.956 23.6328 208.434 23.6328V33.6328ZM208.434 43.6445V53.6445C213.956 53.6445 218.434 49.1674 218.434 43.6445H208.434ZM187.207 43.6445V33.6445C181.684 33.6445 177.207 38.1217 177.207 43.6445H187.207ZM187.207 44.9336H177.207C177.207 50.4564 181.684 54.9336 187.207 54.9336V44.9336ZM209.508 44.9336H219.508C219.508 39.4107 215.031 34.9336 209.508 34.9336V44.9336ZM209.508 49.4883V59.4883C215.031 59.4883 219.508 55.0111 219.508 49.4883H209.508ZM180.375 49.4883H170.375C170.375 55.0111 174.852 59.4883 180.375 59.4883V49.4883ZM180.375 39.3906V29.3906C174.852 29.3906 170.375 33.8678 170.375 39.3906H180.375ZM201.602 39.3906V49.3906C207.124 49.3906 211.602 44.9135 211.602 39.3906H201.602ZM201.602 38.2734H211.602C211.602 32.7506 207.124 28.2734 201.602 28.2734V38.2734ZM180.375 38.2734H170.375C170.375 43.7963 174.852 48.2734 180.375 48.2734V38.2734ZM180.375 33.6328V23.6328C174.852 23.6328 170.375 28.11 170.375 33.6328H180.375ZM208.434 10.4727H218.434C218.434 4.94981 213.956 0.472656 208.434 0.472656V10.4727ZM208.434 20.4844V30.4844C213.956 30.4844 218.434 26.0072 218.434 20.4844H208.434ZM187.594 20.4844V10.4844C182.071 10.4844 177.594 14.9615 177.594 20.4844H187.594ZM187.594 21.7734H177.594C177.594 27.2963 182.071 31.7734 187.594 31.7734V21.7734ZM209.121 21.7734H219.121C219.121 16.2506 214.644 11.7734 209.121 11.7734V21.7734ZM209.121 26.2852V36.2852C214.644 36.2852 219.121 31.808 219.121 26.2852H209.121ZM180.762 26.2852H170.762C170.762 31.808 175.239 36.2852 180.762 36.2852V26.2852ZM180.762 16.2305V6.23047C175.239 6.23047 170.762 10.7076 170.762 16.2305H180.762ZM201.559 16.2305V26.2305C207.081 26.2305 211.559 21.7533 211.559 16.2305L201.559 16.2305ZM201.559 15.0273L211.559 15.0273C211.559 9.5045 207.081 5.02734 201.559 5.02734V15.0273ZM180.719 15.0273H170.719C170.719 20.5502 175.196 25.0273 180.719 25.0273V15.0273ZM180.719 10.4727V0.472656C175.196 0.472656 170.719 4.94981 170.719 10.4727L180.719 10.4727ZM212.645 27.4023L202.645 27.4023V32.4297H212.645H222.645V27.4023H212.645ZM212.645 32.4297V22.4297L176.379 22.4297V32.4297V42.4297H212.645V32.4297ZM176.379 32.4297H186.379V27.4023H176.379H166.379V32.4297H176.379ZM176.379 27.4023V37.4023H212.645V27.4023V17.4023L176.379 17.4023V27.4023ZM208.434 33.6328H198.434V43.6445H208.434H218.434V33.6328H208.434ZM208.434 43.6445V33.6445H187.207V43.6445V53.6445H208.434V43.6445ZM187.207 43.6445H177.207V44.9336H187.207H197.207V43.6445H187.207ZM187.207 44.9336V54.9336H209.508V44.9336V34.9336H187.207V44.9336ZM209.508 44.9336H199.508V49.4883H209.508H219.508V44.9336H209.508ZM209.508 49.4883V39.4883H180.375V49.4883V59.4883H209.508V49.4883ZM180.375 49.4883H190.375V39.3906H180.375H170.375V49.4883H180.375ZM180.375 39.3906V49.3906H201.602V39.3906V29.3906H180.375V39.3906ZM201.602 39.3906H211.602V38.2734H201.602H191.602V39.3906H201.602ZM201.602 38.2734V28.2734H180.375V38.2734V48.2734H201.602V38.2734ZM180.375 38.2734H190.375V33.6328H180.375H170.375V38.2734H180.375ZM180.375 33.6328V43.6328H208.434V33.6328V23.6328L180.375 23.6328V33.6328ZM208.434 10.4727H198.434V20.4844L208.434 20.4844H218.434V10.4727H208.434ZM208.434 20.4844V10.4844H187.594V20.4844V30.4844H208.434V20.4844ZM187.594 20.4844H177.594V21.7734H187.594H197.594V20.4844H187.594ZM187.594 21.7734V31.7734H209.121V21.7734V11.7734H187.594V21.7734ZM209.121 21.7734L199.121 21.7734V26.2852L209.121 26.2852H219.121V21.7734H209.121ZM209.121 26.2852V16.2852L180.762 16.2852V26.2852V36.2852H209.121V26.2852ZM180.762 26.2852H190.762V16.2305H180.762H170.762V26.2852H180.762ZM180.762 16.2305V26.2305H201.559V16.2305V6.23047H180.762V16.2305ZM201.559 16.2305L211.559 16.2305V15.0273L201.559 15.0273H191.559V16.2305H201.559ZM201.559 15.0273V5.02734H180.719V15.0273V25.0273H201.559V15.0273ZM180.719 15.0273H190.719V10.4727H180.719L170.719 10.4727V15.0273H180.719ZM180.719 10.4727V20.4727L208.434 20.4727V10.4727V0.472656L180.719 0.472656V10.4727ZM260.254 25.3398H270.254C270.254 19.817 265.777 15.3398 260.254 15.3398V25.3398ZM260.254 30.668V40.668C265.777 40.668 270.254 36.1908 270.254 30.668H260.254ZM245.516 30.668V20.668C239.993 20.668 235.516 25.1451 235.516 30.668H245.516ZM245.516 32.3437H235.516C235.516 37.8666 239.993 42.3437 245.516 42.3437V32.3437ZM255.957 32.3437H265.957C265.957 26.8209 261.48 22.3437 255.957 22.3437V32.3437ZM255.957 43.1719V53.1719C261.48 53.1719 265.957 48.6947 265.957 43.1719H255.957ZM234.773 43.1719V33.1719C229.251 33.1719 224.773 37.649 224.773 43.1719H234.773ZM234.773 44.5039H224.773C224.773 50.0268 229.251 54.5039 234.773 54.5039V44.5039ZM256.902 44.5039H266.902C266.902 38.9811 262.425 34.5039 256.902 34.5039V44.5039ZM256.902 49.5742V59.5742C262.425 59.5742 266.902 55.0971 266.902 49.5742H256.902ZM228.027 49.5742H218.027C218.027 55.0971 222.505 59.5742 228.027 59.5742V49.5742ZM228.027 38.4883V28.4883C222.505 28.4883 218.027 32.9654 218.027 38.4883H228.027ZM249.168 38.4883V48.4883C254.691 48.4883 259.168 44.0111 259.168 38.4883H249.168ZM249.168 37.3711H259.168C259.168 31.8482 254.691 27.3711 249.168 27.3711V37.3711ZM228.07 37.3711H218.07C218.07 42.8939 222.547 47.3711 228.07 47.3711V37.3711ZM228.07 32.3437V22.3437C222.547 22.3437 218.07 26.8209 218.07 32.3437H228.07ZM238.684 32.3437V42.3437C244.206 42.3437 248.684 37.8666 248.684 32.3437H238.684ZM238.684 30.668H248.684C248.684 25.1451 244.206 20.668 238.684 20.668V30.668ZM223.988 30.668H213.988C213.988 36.1908 218.465 40.668 223.988 40.668V30.668ZM223.988 25.3398V15.3398C218.465 15.3398 213.988 19.817 213.988 25.3398H223.988ZM256.945 10.9883H266.945C266.945 5.46543 262.468 0.988281 256.945 0.988281V10.9883ZM256.945 16.1875V26.1875C262.468 26.1875 266.945 21.7103 266.945 16.1875H256.945ZM247.277 16.1875V6.1875C243.296 6.1875 239.694 8.54894 238.107 12.1998C236.519 15.8507 237.249 20.0955 239.964 23.0072L247.277 16.1875ZM258.879 19.668L268.098 23.5416C269.356 20.5479 269.082 17.1299 267.363 14.3748C265.644 11.6198 262.695 9.8709 259.453 9.68446L258.879 19.668ZM256.73 24.7812L256.115 34.7623C260.358 35.0238 264.303 32.5741 265.95 28.6549L256.73 24.7812ZM242.078 19.1953L250.002 13.0954C248.127 10.6598 245.236 9.22169 242.163 9.19567C239.089 9.16965 236.174 10.5586 234.258 12.9622L242.078 19.1953ZM227.512 24.7812L218.265 28.5887C219.895 32.5463 223.862 35.0281 228.134 34.7619L227.512 24.7812ZM225.406 19.668L224.794 9.6867C221.573 9.88417 218.644 11.6247 216.931 14.3604C215.218 17.0962 214.93 20.4907 216.159 23.4755L225.406 19.668ZM236.879 16.1875L244.193 23.0072C246.908 20.0955 247.637 15.8507 246.049 12.1998C244.462 8.54894 240.86 6.1875 236.879 6.1875V16.1875ZM227.297 16.1875H217.297C217.297 21.7103 221.774 26.1875 227.297 26.1875V16.1875ZM227.297 10.9883V0.988281C221.774 0.988281 217.297 5.46543 217.297 10.9883H227.297ZM260.254 25.3398H250.254V30.668H260.254H270.254V25.3398H260.254ZM260.254 30.668V20.668H245.516V30.668V40.668H260.254V30.668ZM245.516 30.668H235.516V32.3437H245.516H255.516V30.668H245.516ZM245.516 32.3437V42.3437H255.957V32.3437V22.3437H245.516V32.3437ZM255.957 32.3437H245.957V43.1719H255.957H265.957V32.3437H255.957ZM255.957 43.1719V33.1719H234.773V43.1719V53.1719H255.957V43.1719ZM234.773 43.1719H224.773V44.5039H234.773H244.773V43.1719H234.773ZM234.773 44.5039V54.5039H256.902V44.5039V34.5039H234.773V44.5039ZM256.902 44.5039H246.902V49.5742H256.902H266.902V44.5039H256.902ZM256.902 49.5742V39.5742H228.027V49.5742V59.5742H256.902V49.5742ZM228.027 49.5742H238.027V38.4883H228.027H218.027V49.5742H228.027ZM228.027 38.4883V48.4883H249.168V38.4883V28.4883H228.027V38.4883ZM249.168 38.4883H259.168V37.3711H249.168H239.168V38.4883H249.168ZM249.168 37.3711V27.3711H228.07V37.3711V47.3711H249.168V37.3711ZM228.07 37.3711H238.07V32.3437H228.07H218.07V37.3711H228.07ZM228.07 32.3437V42.3437H238.684V32.3437V22.3437H228.07V32.3437ZM238.684 32.3437H248.684V30.668H238.684H228.684V32.3437H238.684ZM238.684 30.668V20.668H223.988V30.668V40.668H238.684V30.668ZM223.988 30.668H233.988V25.3398H223.988H213.988V30.668H223.988ZM223.988 25.3398V35.3398H260.254V25.3398V15.3398H223.988V25.3398ZM256.945 10.9883H246.945V16.1875H256.945H266.945V10.9883H256.945ZM256.945 16.1875V6.1875H247.277V16.1875V26.1875H256.945V16.1875ZM247.277 16.1875L239.964 23.0072C244.185 27.5346 250.947 29.2284 258.305 29.6515L258.879 19.668L259.453 9.68446C256.684 9.52525 255.074 9.15764 254.266 8.88936C253.415 8.60648 253.844 8.56697 254.591 9.36784L247.277 16.1875ZM258.879 19.668L249.66 15.7943L247.511 20.9076L256.73 24.7812L265.95 28.6549L268.098 23.5416L258.879 19.668ZM256.73 24.7812L257.346 14.8002C254.254 14.6096 252.268 14.1105 251.095 13.6426C249.947 13.1844 249.822 12.8611 250.002 13.0954L242.078 19.1953L234.154 25.2952C239.067 31.6774 247.337 34.2213 256.115 34.7623L256.73 24.7812ZM242.078 19.1953L234.258 12.9622C234.44 12.7343 233.214 14.4065 226.89 14.8006L227.512 24.7812L228.134 34.7619C236.978 34.2107 244.99 31.586 249.898 25.4284L242.078 19.1953ZM227.512 24.7812L236.758 20.9738L234.653 15.8605L225.406 19.668L216.159 23.4755L218.265 28.5887L227.512 24.7812ZM225.406 19.668L226.018 29.6492C233.311 29.2022 239.987 27.5181 244.193 23.0072L236.879 16.1875L229.565 9.36784C230.293 8.58747 230.717 8.61737 229.905 8.88953C229.122 9.15203 227.542 9.51831 224.794 9.6867L225.406 19.668ZM236.879 16.1875V6.1875H227.297V16.1875V26.1875H236.879V16.1875ZM227.297 16.1875H237.297V10.9883H227.297H217.297V16.1875H227.297ZM227.297 10.9883V20.9883H256.945V10.9883V0.988281L227.297 0.988281V10.9883ZM295.574 10L305.574 10C305.574 4.47715 301.097 0 295.574 0V10ZM295.574 49.875V59.875C301.097 59.875 305.574 55.3978 305.574 49.875H295.574ZM288.613 49.875H278.613C278.613 55.3978 283.09 59.875 288.613 59.875V49.875ZM288.613 10V0C283.09 0 278.613 4.47715 278.613 10H288.613ZM273.746 12.6641L273.677 22.6638C273.723 22.6641 273.77 22.6641 273.817 22.6638L273.746 12.6641ZM273.746 18.8945L273.577 28.8931C273.694 28.8951 273.811 28.895 273.928 28.8929L273.746 18.8945ZM295.574 10H285.574V49.875H295.574H305.574V10L295.574 10ZM295.574 49.875V39.875H288.613V49.875V59.875H295.574V49.875ZM288.613 49.875H298.613V10H288.613H278.613V49.875H288.613ZM288.613 10V20H295.574V10V0L288.613 0V10ZM273.746 12.6641L273.817 22.6638C273.749 22.6643 273.58 22.6406 273.404 22.5508C273.243 22.4681 273.252 22.4198 273.372 22.5782C273.643 22.9327 274.359 24.2334 274.359 26.9727H284.359H294.359C294.359 20.9463 292.799 15.0712 289.277 10.4521C285.63 5.66819 280.097 2.61877 273.675 2.66431L273.746 12.6641ZM284.359 26.9727H274.359C274.359 29.8028 273.63 31.1249 273.36 31.4804C273.239 31.6391 273.228 31.594 273.382 31.5147C273.548 31.4293 273.701 31.4102 273.746 31.4102V41.4102V51.4102C280.12 51.4102 285.638 48.3834 289.29 43.5733C292.812 38.9337 294.359 33.0371 294.359 26.9727H284.359ZM273.746 41.4102V31.4102C273.725 31.4102 273.829 31.4135 273.967 31.483C274.095 31.5479 274.076 31.5815 273.957 31.4265C273.691 31.0816 272.961 29.7839 272.961 26.9727H262.961H252.961C252.961 33.056 254.529 38.977 258.109 43.6273C261.822 48.4498 267.384 51.4102 273.746 51.4102V41.4102ZM262.961 26.9727H272.961C272.961 24.2526 273.678 22.9762 273.944 22.632C274.064 22.4774 274.08 22.5139 273.945 22.5822C273.884 22.6127 273.818 22.6363 273.756 22.6507C273.694 22.6649 273.664 22.6637 273.677 22.6638L273.746 12.6641L273.816 2.6643C267.406 2.6198 261.831 5.60151 258.122 10.3982C254.543 15.0277 252.961 20.9271 252.961 26.9727H262.961ZM273.746 18.8945L273.916 8.89597C268.284 8.80052 264.086 12.0746 261.912 16.1436C260.071 19.59 259.621 23.5385 259.621 26.9727H269.621H279.621C279.621 26.0559 279.689 25.4897 279.742 25.2055C279.799 24.8993 279.804 25.0966 279.553 25.5664C279.287 26.0649 278.661 26.9904 277.447 27.7722C276.169 28.5955 274.772 28.9134 273.577 28.8931L273.746 18.8945ZM269.621 26.9727H259.621C259.621 30.4271 260.065 34.3944 261.92 37.8541C264.135 41.9836 268.31 45.0937 273.746 45.0937V35.0937V25.0937C274.856 25.0937 276.192 25.3965 277.439 26.1982C278.636 26.9673 279.267 27.8831 279.546 28.4018C279.805 28.8846 279.8 29.0928 279.743 28.7849C279.69 28.4977 279.621 27.9194 279.621 26.9727H269.621ZM273.746 35.0937V45.0937C279.345 45.0937 283.396 41.7294 285.473 37.7986C287.272 34.3926 287.742 30.4806 287.742 26.9727H277.742H267.742C267.742 27.9039 267.672 28.4806 267.618 28.7724C267.56 29.0842 267.551 28.9062 267.788 28.4572C268.037 27.9865 268.633 27.0851 269.805 26.3005C271.045 25.4703 272.454 25.0937 273.746 25.0937V35.0937ZM277.742 26.9727H287.742C287.742 23.4853 287.265 19.5914 285.48 16.199C283.45 12.3393 279.371 8.79061 273.564 8.89618L273.746 18.8945L273.928 28.8929C272.542 28.9181 271.067 28.5217 269.797 27.6697C268.608 26.8723 268.017 25.9614 267.78 25.511C267.551 25.075 267.562 24.9078 267.62 25.218C267.674 25.507 267.742 26.0715 267.742 26.9727H277.742ZM332.398 20.0977L342.398 20.0977C342.398 14.5748 337.921 10.0977 332.398 10.0977V20.0977ZM332.398 25.4258V35.4258C337.921 35.4258 342.398 30.9486 342.398 25.4258L332.398 25.4258ZM304.297 25.4258H294.297C294.297 30.9486 298.774 35.4258 304.297 35.4258V25.4258ZM304.297 11.418V1.41797C298.774 1.41797 294.297 5.89512 294.297 11.418L304.297 11.418ZM311.172 11.418H321.172C321.172 5.89512 316.695 1.41797 311.172 1.41797V11.418ZM311.172 20.0977H301.172C301.172 25.6205 305.649 30.0977 311.172 30.0977V20.0977ZM336.309 28.9492H346.309C346.309 23.4264 341.831 18.9492 336.309 18.9492V28.9492ZM336.309 34.2773V44.2773C341.831 44.2773 346.309 39.8002 346.309 34.2773H336.309ZM300.043 34.2773H290.043C290.043 39.8002 294.52 44.2773 300.043 44.2773V34.2773ZM300.043 28.9492V18.9492C294.52 18.9492 290.043 23.4264 290.043 28.9492H300.043ZM332.656 43.4727H342.656C342.656 37.9498 338.179 33.4727 332.656 33.4727V43.4727ZM332.656 48.9727V58.9727C338.179 58.9727 342.656 54.4955 342.656 48.9727H332.656ZM303.824 48.9727H293.824C293.824 54.4955 298.301 58.9727 303.824 58.9727V48.9727ZM303.824 37.0273V27.0273C298.301 27.0273 293.824 31.5045 293.824 37.0273H303.824ZM310.785 37.0273H320.785C320.785 31.5045 316.308 27.0273 310.785 27.0273V37.0273ZM310.785 43.4727H300.785C300.785 48.9955 305.262 53.4727 310.785 53.4727V43.4727ZM332.398 20.0977H322.398V25.4258H332.398L342.398 25.4258V20.0977L332.398 20.0977ZM332.398 25.4258V15.4258H304.297V25.4258V35.4258H332.398V25.4258ZM304.297 25.4258H314.297V11.418H304.297L294.297 11.418V25.4258H304.297ZM304.297 11.418V21.418H311.172V11.418V1.41797H304.297V11.418ZM311.172 11.418L301.172 11.418V20.0977H311.172H321.172V11.418H311.172ZM311.172 20.0977V30.0977H332.398V20.0977V10.0977H311.172V20.0977ZM336.309 28.9492H326.309V34.2773H336.309H346.309V28.9492H336.309ZM336.309 34.2773V24.2773L300.043 24.2773V34.2773V44.2773H336.309V34.2773ZM300.043 34.2773H310.043V28.9492H300.043H290.043V34.2773H300.043ZM300.043 28.9492V38.9492H336.309V28.9492V18.9492L300.043 18.9492V28.9492ZM332.656 43.4727H322.656V48.9727H332.656H342.656V43.4727H332.656ZM332.656 48.9727V38.9727H303.824V48.9727V58.9727H332.656V48.9727ZM303.824 48.9727H313.824V37.0273H303.824H293.824V48.9727H303.824ZM303.824 37.0273V47.0273H310.785V37.0273V27.0273H303.824V37.0273ZM310.785 37.0273H300.785V43.4727H310.785H320.785V37.0273H310.785ZM310.785 43.4727V53.4727H332.656V43.4727V33.4727H310.785V43.4727Z" fill="white" mask="url(#path-1-outside-1_6524_1830)"/>
</g>
<defs>
<filter id="filter0_d_6524_1830" x="0" y="0" width="350.309" height="67.875" filterUnits="userSpaceOnUse" color-interpolation-filters="sRGB">
<feFlood flood-opacity="0" result="BackgroundImageFix"/>
<feColorMatrix in="SourceAlpha" type="matrix" values="0 0 0 0 0 0 0 0 0 0 0 0 0 0 0 0 0 0 127 0" result="hardAlpha"/>
<feOffset dy="4"/>
<feGaussianBlur stdDeviation="2"/>
<feComposite in2="hardAlpha" operator="out"/>
<feColorMatrix type="matrix" values="0 0 0 0 0 0 0 0 0 0 0 0 0 0 0 0 0 0 0.07 0"/>
<feBlend mode="normal" in2="BackgroundImageFix" result="effect1_dropShadow_6524_1830"/>
<feBlend mode="normal" in="SourceGraphic" in2="effect1_dropShadow_6524_1830" result="shape"/>
</filter>
</defs>
</svg>
