<svg width="313" height="68" viewBox="0 0 313 68" fill="none" xmlns="http://www.w3.org/2000/svg">
<g filter="url(#filter0_d_6526_5727)">
<mask id="path-1-outside-1_6526_5727" maskUnits="userSpaceOnUse" x="3.78516" y="-0.507813" width="305" height="61" fill="black">
<rect fill="white" x="3.78516" y="-0.507813" width="305" height="61"/>
<path d="M46.4844 10V18.0781H51.4258V23.707H46.4844V32H39.5664V10L46.4844 10ZM35.1836 12.1914C35.1836 23.0195 28.7383 30.1094 16.707 33.2461L14 27.7461C22.293 25.834 26.6328 22.0098 27.5781 17.6055H16.0625V12.1914H35.1836ZM46.4844 33.2891V49.3164H19.9727V33.2891H46.4844ZM26.8047 38.7891V43.9883H39.6953V38.7891H26.8047ZM86.5312 10V33.5898H79.6562V24.8242L74.6719 24.8242V19.2812L79.6562 19.2812V10H86.5312ZM72.6953 34.2344C81.332 34.2344 86.6172 37.1133 86.6172 42.0547C86.6172 46.9531 81.332 49.875 72.6953 49.875C64.1445 49.875 58.8594 46.9531 58.8594 42.0547C58.8594 37.1133 64.1445 34.2344 72.6953 34.2344ZM72.6953 39.4336C67.9688 39.4336 65.6914 40.1641 65.7344 42.0547C65.6914 43.9023 67.9688 44.6758 72.6953 44.6758C77.4648 44.6758 79.7852 43.9023 79.7852 42.0547C79.7852 40.1641 77.4648 39.4336 72.6953 39.4336ZM75.7461 12.1055V17.6055H68.5703C68.9785 21.5801 71.2988 25.5762 77.1641 27.4883L73.8555 32.8594C69.6016 31.5488 66.7871 28.9707 65.0469 25.7695C63.3281 29.4219 60.3418 32.3652 55.7656 33.8477L52.1992 28.3906C58.5371 26.3711 60.9219 21.8594 61.3516 17.6055H54.1328V12.1055H75.7461ZM136.633 39.8633V45.3203H100.324V39.8633H114.848V31.3125H121.723V39.8633H136.633ZM121.938 14.7266C121.895 19.7969 125.246 25.8555 135.73 27.4023L132.852 33.1172C125.525 31.8711 120.777 28.4551 118.242 23.9648C115.643 28.4336 110.938 31.9141 103.719 33.1172L100.84 27.4023C111.152 25.8555 114.504 19.668 114.504 14.7266V12.0625H121.938V14.7266ZM174.66 39.8203V45.4062L138.352 45.4062V39.8203L153.047 39.8203V32.6875H141.918V12.707H170.922V32.6875H159.879V39.8203H174.66ZM148.75 18.207V27.3594H164.09V18.207H148.75ZM208.09 10V24.6523H213.16V30.2812H208.09V49.6602H201.172V10H208.09ZM197.262 13.9531C197.219 26.2422 193.008 36.5547 179.43 43.2148L175.52 37.9727C184.371 33.5039 189.055 27.9395 190.258 19.5391H178.012V13.9531H197.262ZM239.113 34.793C239.113 37.7578 240.145 40.7871 242.98 42.9141C245.838 40.7012 246.977 37.6504 247.02 34.793V33.9336H253.766V34.793C253.766 38.9609 255.441 42.6133 260.855 44.2031L257.547 49.1445C253.873 47.9629 251.531 45.7715 250.156 42.9141C248.824 45.8145 246.568 48.2422 243.109 49.5312C239.479 48.2637 237.201 45.9004 235.891 43.043C234.473 45.793 232.174 47.9629 228.672 49.1445L225.32 44.2031C230.648 42.4414 232.367 38.6602 232.367 34.793V33.9336H239.113V34.793ZM257.504 10.0859V32.3437H250.586V10.0859H257.504ZM235.547 11.8906C241.82 11.8906 246.676 15.9297 246.676 21.6445C246.676 27.1875 241.82 31.2695 235.547 31.2695C229.23 31.2695 224.375 27.1875 224.418 21.6445C224.375 15.9297 229.23 11.8906 235.547 11.8906ZM235.547 17.6484C232.926 17.6484 231.121 18.9805 231.121 21.6445C231.121 24.1797 232.926 25.5977 235.547 25.5547C238.039 25.5977 239.844 24.1797 239.844 21.6445C239.844 18.9805 238.039 17.6484 235.547 17.6484ZM294.371 20.0977V25.4258H266.27V11.418H273.145V20.0977H294.371ZM298.281 28.9492V34.2773H262.016V28.9492H298.281ZM294.629 43.4727V48.9727H265.797V37.0273H272.758V43.4727H294.629Z"/>
</mask>
<path d="M46.4844 10V18.0781H51.4258V23.707H46.4844V32H39.5664V10L46.4844 10ZM35.1836 12.1914C35.1836 23.0195 28.7383 30.1094 16.707 33.2461L14 27.7461C22.293 25.834 26.6328 22.0098 27.5781 17.6055H16.0625V12.1914H35.1836ZM46.4844 33.2891V49.3164H19.9727V33.2891H46.4844ZM26.8047 38.7891V43.9883H39.6953V38.7891H26.8047ZM86.5312 10V33.5898H79.6562V24.8242L74.6719 24.8242V19.2812L79.6562 19.2812V10H86.5312ZM72.6953 34.2344C81.332 34.2344 86.6172 37.1133 86.6172 42.0547C86.6172 46.9531 81.332 49.875 72.6953 49.875C64.1445 49.875 58.8594 46.9531 58.8594 42.0547C58.8594 37.1133 64.1445 34.2344 72.6953 34.2344ZM72.6953 39.4336C67.9688 39.4336 65.6914 40.1641 65.7344 42.0547C65.6914 43.9023 67.9688 44.6758 72.6953 44.6758C77.4648 44.6758 79.7852 43.9023 79.7852 42.0547C79.7852 40.1641 77.4648 39.4336 72.6953 39.4336ZM75.7461 12.1055V17.6055H68.5703C68.9785 21.5801 71.2988 25.5762 77.1641 27.4883L73.8555 32.8594C69.6016 31.5488 66.7871 28.9707 65.0469 25.7695C63.3281 29.4219 60.3418 32.3652 55.7656 33.8477L52.1992 28.3906C58.5371 26.3711 60.9219 21.8594 61.3516 17.6055H54.1328V12.1055H75.7461ZM136.633 39.8633V45.3203H100.324V39.8633H114.848V31.3125H121.723V39.8633H136.633ZM121.938 14.7266C121.895 19.7969 125.246 25.8555 135.73 27.4023L132.852 33.1172C125.525 31.8711 120.777 28.4551 118.242 23.9648C115.643 28.4336 110.938 31.9141 103.719 33.1172L100.84 27.4023C111.152 25.8555 114.504 19.668 114.504 14.7266V12.0625H121.938V14.7266ZM174.66 39.8203V45.4062L138.352 45.4062V39.8203L153.047 39.8203V32.6875H141.918V12.707H170.922V32.6875H159.879V39.8203H174.66ZM148.75 18.207V27.3594H164.09V18.207H148.75ZM208.09 10V24.6523H213.16V30.2812H208.09V49.6602H201.172V10H208.09ZM197.262 13.9531C197.219 26.2422 193.008 36.5547 179.43 43.2148L175.52 37.9727C184.371 33.5039 189.055 27.9395 190.258 19.5391H178.012V13.9531H197.262ZM239.113 34.793C239.113 37.7578 240.145 40.7871 242.98 42.9141C245.838 40.7012 246.977 37.6504 247.02 34.793V33.9336H253.766V34.793C253.766 38.9609 255.441 42.6133 260.855 44.2031L257.547 49.1445C253.873 47.9629 251.531 45.7715 250.156 42.9141C248.824 45.8145 246.568 48.2422 243.109 49.5312C239.479 48.2637 237.201 45.9004 235.891 43.043C234.473 45.793 232.174 47.9629 228.672 49.1445L225.32 44.2031C230.648 42.4414 232.367 38.6602 232.367 34.793V33.9336H239.113V34.793ZM257.504 10.0859V32.3437H250.586V10.0859H257.504ZM235.547 11.8906C241.82 11.8906 246.676 15.9297 246.676 21.6445C246.676 27.1875 241.82 31.2695 235.547 31.2695C229.23 31.2695 224.375 27.1875 224.418 21.6445C224.375 15.9297 229.23 11.8906 235.547 11.8906ZM235.547 17.6484C232.926 17.6484 231.121 18.9805 231.121 21.6445C231.121 24.1797 232.926 25.5977 235.547 25.5547C238.039 25.5977 239.844 24.1797 239.844 21.6445C239.844 18.9805 238.039 17.6484 235.547 17.6484ZM294.371 20.0977V25.4258H266.27V11.418H273.145V20.0977H294.371ZM298.281 28.9492V34.2773H262.016V28.9492H298.281ZM294.629 43.4727V48.9727H265.797V37.0273H272.758V43.4727H294.629Z" fill="#11DCA9"/>
<path d="M46.4844 10H56.4844C56.4844 4.47715 52.0072 0 46.4844 0V10ZM46.4844 18.0781H36.4844C36.4844 23.601 40.9615 28.0781 46.4844 28.0781V18.0781ZM51.4258 18.0781H61.4258C61.4258 12.5553 56.9486 8.07812 51.4258 8.07812V18.0781ZM51.4258 23.707V33.707C56.9486 33.707 61.4258 29.2299 61.4258 23.707H51.4258ZM46.4844 23.707V13.707C40.9615 13.707 36.4844 18.1842 36.4844 23.707H46.4844ZM46.4844 32V42C52.0072 42 56.4844 37.5228 56.4844 32H46.4844ZM39.5664 32H29.5664C29.5664 37.5228 34.0436 42 39.5664 42V32ZM39.5664 10V0C34.0436 0 29.5664 4.47715 29.5664 10H39.5664ZM35.1836 12.1914H45.1836C45.1836 6.66856 40.7064 2.19141 35.1836 2.19141V12.1914ZM16.707 33.2461L7.7349 37.6621C9.8317 41.9222 14.6352 44.1205 19.2298 42.9226L16.707 33.2461ZM14 27.7461L11.7532 18.0018C8.77692 18.688 6.27743 20.6969 4.96704 23.4559C3.65664 26.215 3.67904 29.4216 5.02787 32.1621L14 27.7461ZM27.5781 17.6055L37.3555 19.704C37.9893 16.7508 37.2544 13.6693 35.3558 11.32C33.4573 8.97073 30.5986 7.60547 27.5781 7.60547V17.6055ZM16.0625 17.6055H6.0625C6.0625 23.1283 10.5397 27.6055 16.0625 27.6055V17.6055ZM16.0625 12.1914V2.19141C10.5397 2.19141 6.0625 6.66856 6.0625 12.1914H16.0625ZM46.4844 33.2891H56.4844C56.4844 27.7662 52.0072 23.2891 46.4844 23.2891V33.2891ZM46.4844 49.3164V59.3164C52.0072 59.3164 56.4844 54.8393 56.4844 49.3164H46.4844ZM19.9727 49.3164H9.97266C9.97266 54.8393 14.4498 59.3164 19.9727 59.3164V49.3164ZM19.9727 33.2891V23.2891C14.4498 23.2891 9.97266 27.7662 9.97266 33.2891H19.9727ZM26.8047 38.7891V28.7891C21.2818 28.7891 16.8047 33.2662 16.8047 38.7891H26.8047ZM26.8047 43.9883H16.8047C16.8047 49.5111 21.2818 53.9883 26.8047 53.9883V43.9883ZM39.6953 43.9883V53.9883C45.2182 53.9883 49.6953 49.5111 49.6953 43.9883H39.6953ZM39.6953 38.7891H49.6953C49.6953 33.2662 45.2182 28.7891 39.6953 28.7891V38.7891ZM46.4844 10L36.4844 10V18.0781H46.4844H56.4844V10H46.4844ZM46.4844 18.0781V28.0781H51.4258V18.0781V8.07812H46.4844V18.0781ZM51.4258 18.0781H41.4258V23.707H51.4258H61.4258V18.0781H51.4258ZM51.4258 23.707V13.707H46.4844V23.707V33.707H51.4258V23.707ZM46.4844 23.707H36.4844V32H46.4844H56.4844V23.707H46.4844ZM46.4844 32V22H39.5664V32V42H46.4844V32ZM39.5664 32H49.5664V10L39.5664 10H29.5664V32H39.5664ZM39.5664 10V20H46.4844V10V0H39.5664V10ZM35.1836 12.1914H25.1836C25.1836 15.4844 24.2651 17.5114 22.9703 18.9736C21.5452 20.5831 18.9105 22.3373 14.1842 23.5696L16.707 33.2461L19.2298 42.9226C26.5348 41.0181 33.1384 37.6591 37.9437 32.2325C42.8795 26.6585 45.1836 19.7265 45.1836 12.1914H35.1836ZM16.707 33.2461L25.6792 28.8301L22.9721 23.3301L14 27.7461L5.02787 32.1621L7.7349 37.6621L16.707 33.2461ZM14 27.7461L16.2468 37.4904C26.1029 35.2179 35.2075 29.7113 37.3555 19.704L27.5781 17.6055L17.8008 15.5069C17.8962 15.0626 18.0887 15.184 17.3972 15.7229C16.6181 16.3301 14.9225 17.271 11.7532 18.0018L14 27.7461ZM27.5781 17.6055V7.60547H16.0625V17.6055V27.6055H27.5781V17.6055ZM16.0625 17.6055H26.0625V12.1914H16.0625H6.0625L6.0625 17.6055H16.0625ZM16.0625 12.1914V22.1914H35.1836V12.1914V2.19141L16.0625 2.19141V12.1914ZM46.4844 33.2891H36.4844V49.3164H46.4844H56.4844V33.2891H46.4844ZM46.4844 49.3164V39.3164H19.9727V49.3164V59.3164H46.4844V49.3164ZM19.9727 49.3164H29.9727V33.2891H19.9727H9.97266L9.97266 49.3164H19.9727ZM19.9727 33.2891V43.2891H46.4844V33.2891V23.2891H19.9727V33.2891ZM26.8047 38.7891H16.8047V43.9883H26.8047H36.8047V38.7891H26.8047ZM26.8047 43.9883V53.9883H39.6953V43.9883V33.9883H26.8047V43.9883ZM39.6953 43.9883H49.6953V38.7891H39.6953H29.6953V43.9883H39.6953ZM39.6953 38.7891V28.7891H26.8047V38.7891V48.7891H39.6953V38.7891ZM86.5312 10H96.5312C96.5312 4.47715 92.0541 0 86.5312 0V10ZM86.5312 33.5898V43.5898C92.0541 43.5898 96.5312 39.1127 96.5312 33.5898H86.5312ZM79.6562 33.5898H69.6562C69.6562 39.1127 74.1334 43.5898 79.6562 43.5898V33.5898ZM79.6562 24.8242H89.6562C89.6562 19.3014 85.1791 14.8242 79.6562 14.8242V24.8242ZM74.6719 24.8242H64.6719C64.6719 30.3471 69.149 34.8242 74.6719 34.8242V24.8242ZM74.6719 19.2812V9.28125C69.149 9.28125 64.6719 13.7584 64.6719 19.2812H74.6719ZM79.6562 19.2812V29.2812C85.1791 29.2812 89.6562 24.8041 89.6562 19.2812H79.6562ZM79.6562 10V0C74.1334 0 69.6562 4.47715 69.6562 10H79.6562ZM65.7344 42.0547L75.7317 42.2872C75.7352 42.134 75.7353 41.9807 75.7318 41.8275L65.7344 42.0547ZM75.7461 12.1055H85.7461C85.7461 6.58262 81.2689 2.10547 75.7461 2.10547V12.1055ZM75.7461 17.6055V27.6055C81.2689 27.6055 85.7461 23.1283 85.7461 17.6055L75.7461 17.6055ZM68.5703 17.6055V7.60547C65.7404 7.60547 63.0429 8.80453 61.1468 10.9053C59.2507 13.0062 58.3335 15.812 58.6226 18.6271L68.5703 17.6055ZM77.1641 27.4883L85.6783 32.7331C87.286 30.1232 87.6079 26.9202 86.5517 24.0426C85.4955 21.1651 83.1779 18.9308 80.2636 17.9808L77.1641 27.4883ZM73.8555 32.8594L70.9112 42.4161C75.2671 43.7581 79.9792 41.9848 82.3697 38.1041L73.8555 32.8594ZM65.0469 25.7695L73.8326 20.9934C72.0325 17.6822 68.5237 15.6643 64.7565 15.7738C60.9892 15.8832 57.6035 18.1014 55.9987 21.5116L65.0469 25.7695ZM55.7656 33.8477L47.3948 39.3184C49.8631 43.0953 54.555 44.7514 58.8474 43.3609L55.7656 33.8477ZM52.1992 28.3906L49.1632 18.8626C46.1866 19.8111 43.8244 22.0961 42.7775 25.0394C41.7305 27.9828 42.1193 31.2463 43.8284 33.8613L52.1992 28.3906ZM61.3516 17.6055L71.3009 18.6105C71.585 15.7977 70.6653 12.9962 68.7694 10.8991C66.8735 8.80207 64.1786 7.60547 61.3516 7.60547V17.6055ZM54.1328 17.6055H44.1328C44.1328 23.1283 48.61 27.6055 54.1328 27.6055V17.6055ZM54.1328 12.1055V2.10547C48.61 2.10547 44.1328 6.58262 44.1328 12.1055L54.1328 12.1055ZM86.5312 10H76.5312V33.5898H86.5312H96.5312V10H86.5312ZM86.5312 33.5898V23.5898H79.6562V33.5898V43.5898H86.5312V33.5898ZM79.6562 33.5898H89.6562V24.8242H79.6562L69.6562 24.8242V33.5898H79.6562ZM79.6562 24.8242V14.8242L74.6719 14.8242V24.8242V34.8242H79.6562V24.8242ZM74.6719 24.8242L84.6719 24.8242V19.2812L74.6719 19.2812H64.6719V24.8242H74.6719ZM74.6719 19.2812V29.2812H79.6562V19.2812V9.28125H74.6719V19.2812ZM79.6562 19.2812H89.6562V10H79.6562H69.6562V19.2812L79.6562 19.2812ZM79.6562 10V20H86.5312V10V0L79.6562 0V10ZM72.6953 34.2344V44.2344C74.3179 44.2344 75.5871 44.3712 76.5249 44.5616C77.4804 44.7555 77.9278 44.9714 78.0286 45.0275C78.1125 45.0742 77.7112 44.8702 77.2852 44.2182C76.8168 43.5014 76.6172 42.6952 76.6172 42.0547H86.6172H96.6172C96.6172 35.2516 92.6637 30.2863 87.7614 27.5555C83.2919 25.0657 77.8985 24.2344 72.6953 24.2344V34.2344ZM86.6172 42.0547H76.6172C76.6172 41.3866 76.8258 40.5745 77.2904 39.865C77.7121 39.2211 78.1047 39.0231 78.0137 39.074C77.9077 39.1333 77.4576 39.3506 76.5065 39.5455C75.5725 39.737 74.3091 39.875 72.6953 39.875V49.875V59.875C77.9215 59.875 83.3132 59.0256 87.7763 56.5295C92.6448 53.8066 96.6172 48.8554 96.6172 42.0547H86.6172ZM72.6953 49.875V39.875C71.1089 39.875 69.866 39.7379 68.9475 39.5484C68.0122 39.3553 67.5706 39.1406 67.4688 39.0834C67.3816 39.0344 67.7718 39.2329 68.1901 39.8732C68.6511 40.5786 68.8594 41.387 68.8594 42.0547H58.8594H48.8594C48.8594 48.8478 52.8231 53.7955 57.6728 56.5201C62.1248 59.0212 67.4982 59.875 72.6953 59.875V49.875ZM58.8594 42.0547H68.8594C68.8594 42.6948 68.6601 43.4973 68.1954 44.2101C67.7726 44.8584 67.3739 45.063 67.4538 45.0182C67.5504 44.9642 67.9893 44.7509 68.929 44.5588C69.8513 44.3702 71.1 44.2344 72.6953 44.2344V34.2344V24.2344C67.5213 24.2344 62.1463 25.07 57.6878 27.5648C52.8042 30.2974 48.8594 35.2592 48.8594 42.0547H58.8594ZM72.6953 39.4336V29.4336C70.1698 29.4336 66.9196 29.5812 64.0159 30.6347C62.4584 31.1997 60.2819 32.2766 58.4873 34.4095C56.5065 36.7637 55.6758 39.5902 55.737 42.2819L65.7344 42.0547L75.7318 41.8275C75.7715 43.5739 75.2093 45.6 73.7911 47.2856C72.5592 48.7498 71.2393 49.2896 70.8367 49.4356C70.4048 49.5923 70.2823 49.5641 70.7178 49.5155C71.1096 49.4717 71.7444 49.4336 72.6953 49.4336V39.4336ZM65.7344 42.0547L55.7371 41.8222C55.6733 44.5629 56.5407 47.3821 58.5065 49.7045C60.2839 51.8043 62.4313 52.8764 63.9773 53.4445C66.8791 54.5107 70.1232 54.6758 72.6953 54.6758V44.6758V34.6758C71.7609 34.6758 71.1369 34.6362 70.7553 34.5921C70.3319 34.5432 70.4509 34.5158 70.8752 34.6717C71.2665 34.8155 72.5572 35.3478 73.7719 36.7829C75.1752 38.4407 75.7739 40.4703 75.7317 42.2872L65.7344 42.0547ZM72.6953 44.6758V54.6758C75.2958 54.6758 78.5296 54.5082 81.4221 53.4648C82.9575 52.9109 85.0772 51.8732 86.8597 49.8449C88.8326 47.5998 89.7852 44.8269 89.7852 42.0547H79.7852H69.7852C69.7852 40.2063 70.4476 38.2229 71.8364 36.6426C73.0348 35.2789 74.2764 34.781 74.6355 34.6514C75.0295 34.5093 75.1202 34.5405 74.6813 34.5906C74.2821 34.6361 73.6422 34.6758 72.6953 34.6758V44.6758ZM79.7852 42.0547H89.7852C89.7852 39.3294 88.8694 36.547 86.8795 34.2689C85.0791 32.2078 82.9303 31.1656 81.384 30.6148C78.4895 29.5839 75.2498 29.4336 72.6953 29.4336V39.4336V49.4336C73.6585 49.4336 74.3092 49.4718 74.7184 49.5169C75.1692 49.5667 75.0751 49.5985 74.6736 49.4555C74.3036 49.3237 73.033 48.8186 71.8167 47.4262C70.4109 45.8167 69.7852 43.8347 69.7852 42.0547H79.7852ZM75.7461 12.1055H65.7461V17.6055H75.7461L85.7461 17.6055V12.1055H75.7461ZM75.7461 17.6055V7.60547H68.5703V17.6055V27.6055H75.7461V17.6055ZM68.5703 17.6055L58.6226 18.6271C59.4142 26.334 64.2505 33.7964 74.0645 36.9958L77.1641 27.4883L80.2636 17.9808C79.5917 17.7617 79.1969 17.541 78.9868 17.3996C78.7828 17.2624 78.7042 17.1678 78.6814 17.1389C78.6591 17.1105 78.5593 16.9857 78.518 16.5838L68.5703 17.6055ZM77.1641 27.4883L68.6498 22.2435L65.3412 27.6146L73.8555 32.8594L82.3697 38.1041L85.6783 32.7331L77.1641 27.4883ZM73.8555 32.8594L76.7997 23.3026C75.8712 23.0166 75.2906 22.6575 74.9034 22.3354C74.5095 22.0078 74.1524 21.5818 73.8326 20.9934L65.0469 25.7695L56.2612 30.5457C59.1939 35.9405 64.0518 40.3029 70.9112 42.4161L73.8555 32.8594ZM65.0469 25.7695L55.9987 21.5116C55.3954 22.7935 54.496 23.7473 52.6839 24.3344L55.7656 33.8477L58.8474 43.3609C66.1876 40.9831 71.2608 36.0503 74.0951 30.0275L65.0469 25.7695ZM55.7656 33.8477L64.1365 28.3769L60.5701 22.9199L52.1992 28.3906L43.8284 33.8613L47.3948 39.3184L55.7656 33.8477ZM52.1992 28.3906L55.2353 37.9186C65.8918 34.523 70.5289 26.2539 71.3009 18.6105L61.3516 17.6055L51.4022 16.6005C51.3357 17.2589 51.1523 17.6219 51.0071 17.8144C50.9174 17.9335 50.534 18.4258 49.1632 18.8626L52.1992 28.3906ZM61.3516 17.6055V7.60547H54.1328V17.6055V27.6055H61.3516V17.6055ZM54.1328 17.6055H64.1328V12.1055H54.1328L44.1328 12.1055V17.6055H54.1328ZM54.1328 12.1055V22.1055H75.7461V12.1055V2.10547L54.1328 2.10547V12.1055ZM136.633 39.8633L146.633 39.8633C146.633 34.3404 142.156 29.8633 136.633 29.8633V39.8633ZM136.633 45.3203V55.3203C142.156 55.3203 146.633 50.8432 146.633 45.3203L136.633 45.3203ZM100.324 45.3203H90.3242C90.3242 50.8432 94.8014 55.3203 100.324 55.3203V45.3203ZM100.324 39.8633V29.8633C94.8014 29.8633 90.3242 34.3404 90.3242 39.8633H100.324ZM114.848 39.8633V49.8633C120.371 49.8633 124.848 45.3861 124.848 39.8633H114.848ZM114.848 31.3125V21.3125C109.325 21.3125 104.848 25.7897 104.848 31.3125H114.848ZM121.723 31.3125H131.723C131.723 25.7897 127.246 21.3125 121.723 21.3125V31.3125ZM121.723 39.8633H111.723C111.723 45.3861 116.2 49.8633 121.723 49.8633V39.8633ZM121.938 14.7266L131.937 14.8113C131.937 14.7831 131.938 14.7548 131.938 14.7266H121.938ZM135.73 27.4023L144.661 31.9013C146.106 29.0331 146.086 25.6454 144.606 22.7949C143.126 19.9445 140.367 17.9782 137.19 17.5094L135.73 27.4023ZM132.852 33.1172L131.175 42.9756C135.504 43.7119 139.807 41.5379 141.782 37.6162L132.852 33.1172ZM118.242 23.9648L126.95 19.0484C125.188 15.9275 121.891 13.9882 118.307 13.9651C114.723 13.9419 111.401 15.8385 109.598 18.9365L118.242 23.9648ZM103.719 33.1172L94.7879 37.6162C96.758 41.5269 101.043 43.701 105.363 42.9811L103.719 33.1172ZM100.84 27.4023L99.3564 17.513C96.1845 17.9888 93.4333 19.9572 91.959 22.8056C90.4846 25.6541 90.466 29.0369 91.909 31.9013L100.84 27.4023ZM114.504 12.0625V2.0625C108.981 2.0625 104.504 6.53965 104.504 12.0625L114.504 12.0625ZM121.938 12.0625H131.938C131.938 6.53965 127.46 2.0625 121.938 2.0625V12.0625ZM136.633 39.8633H126.633V45.3203H136.633L146.633 45.3203V39.8633L136.633 39.8633ZM136.633 45.3203V35.3203H100.324V45.3203V55.3203H136.633V45.3203ZM100.324 45.3203H110.324V39.8633H100.324H90.3242V45.3203H100.324ZM100.324 39.8633V49.8633H114.848V39.8633V29.8633H100.324V39.8633ZM114.848 39.8633H124.848V31.3125H114.848H104.848V39.8633H114.848ZM114.848 31.3125V41.3125H121.723V31.3125V21.3125H114.848V31.3125ZM121.723 31.3125H111.723V39.8633H121.723H131.723V31.3125H121.723ZM121.723 39.8633V49.8633H136.633V39.8633V29.8633H121.723V39.8633ZM121.938 14.7266L111.938 14.6418C111.897 19.4215 113.477 24.7306 117.509 29.1369C121.545 33.5468 127.307 36.2679 134.271 37.2952L135.73 27.4023L137.19 17.5094C133.669 16.99 132.514 15.9083 132.263 15.6346C132.01 15.3573 131.935 15.1019 131.937 14.8113L121.938 14.7266ZM135.73 27.4023L126.8 22.9034L123.921 28.6182L132.852 33.1172L141.782 37.6162L144.661 31.9013L135.73 27.4023ZM132.852 33.1172L134.528 23.2588C129.614 22.423 127.748 20.4623 126.95 19.0484L118.242 23.9648L109.534 28.8813C113.806 36.4479 121.436 41.3192 131.175 42.9756L132.852 33.1172ZM118.242 23.9648L109.598 18.9365C108.664 20.5428 106.703 22.4818 102.075 23.2532L103.719 33.1172L105.363 42.9811C115.172 41.3463 122.621 36.3244 126.886 28.9932L118.242 23.9648ZM103.719 33.1172L112.65 28.6182L109.771 22.9034L100.84 27.4023L91.909 31.9013L94.7879 37.6162L103.719 33.1172ZM100.84 27.4023L102.323 37.2917C109.293 36.2462 114.991 33.4401 118.964 29.0355C122.901 24.672 124.504 19.4351 124.504 14.7266H114.504H104.504C104.504 14.9594 104.432 15.287 104.114 15.6393C103.833 15.9505 102.699 17.0116 99.3564 17.513L100.84 27.4023ZM114.504 14.7266H124.504V12.0625H114.504L104.504 12.0625V14.7266H114.504ZM114.504 12.0625V22.0625H121.938V12.0625V2.0625H114.504V12.0625ZM121.938 12.0625H111.938V14.7266H121.938H131.938V12.0625H121.938ZM174.66 39.8203H184.66C184.66 34.2975 180.183 29.8203 174.66 29.8203V39.8203ZM174.66 45.4062V55.4062C180.183 55.4062 184.66 50.9291 184.66 45.4062H174.66ZM138.352 45.4062H128.352C128.352 50.9291 132.829 55.4062 138.352 55.4062V45.4062ZM138.352 39.8203V29.8203C132.829 29.8203 128.352 34.2975 128.352 39.8203H138.352ZM153.047 39.8203V49.8203C158.57 49.8203 163.047 45.3432 163.047 39.8203H153.047ZM153.047 32.6875H163.047C163.047 27.1647 158.57 22.6875 153.047 22.6875V32.6875ZM141.918 32.6875L131.918 32.6875C131.918 38.2103 136.395 42.6875 141.918 42.6875V32.6875ZM141.918 12.707V2.70703C136.395 2.70703 131.918 7.18418 131.918 12.707H141.918ZM170.922 12.707H180.922C180.922 7.18418 176.445 2.70703 170.922 2.70703V12.707ZM170.922 32.6875V42.6875C176.445 42.6875 180.922 38.2103 180.922 32.6875H170.922ZM159.879 32.6875V22.6875C154.356 22.6875 149.879 27.1647 149.879 32.6875H159.879ZM159.879 39.8203H149.879C149.879 45.3432 154.356 49.8203 159.879 49.8203V39.8203ZM148.75 18.207V8.20703C143.227 8.20703 138.75 12.6842 138.75 18.207H148.75ZM148.75 27.3594H138.75C138.75 32.8822 143.227 37.3594 148.75 37.3594V27.3594ZM164.09 27.3594V37.3594C169.613 37.3594 174.09 32.8822 174.09 27.3594H164.09ZM164.09 18.207H174.09C174.09 12.6842 169.613 8.20703 164.09 8.20703V18.207ZM174.66 39.8203H164.66V45.4062H174.66H184.66V39.8203H174.66ZM174.66 45.4062V35.4062L138.352 35.4062V45.4062V55.4062L174.66 55.4062V45.4062ZM138.352 45.4062L148.352 45.4062V39.8203L138.352 39.8203H128.352V45.4062H138.352ZM138.352 39.8203V49.8203L153.047 49.8203V39.8203V29.8203L138.352 29.8203V39.8203ZM153.047 39.8203H163.047V32.6875H153.047H143.047V39.8203H153.047ZM153.047 32.6875V22.6875H141.918V32.6875V42.6875H153.047V32.6875ZM141.918 32.6875H151.918V12.707H141.918H131.918V32.6875L141.918 32.6875ZM141.918 12.707V22.707H170.922V12.707V2.70703L141.918 2.70703V12.707ZM170.922 12.707H160.922V32.6875H170.922H180.922V12.707H170.922ZM170.922 32.6875V22.6875H159.879V32.6875V42.6875H170.922V32.6875ZM159.879 32.6875H149.879V39.8203H159.879H169.879V32.6875H159.879ZM159.879 39.8203V49.8203H174.66V39.8203V29.8203H159.879V39.8203ZM148.75 18.207H138.75V27.3594H148.75H158.75V18.207H148.75ZM148.75 27.3594V37.3594H164.09V27.3594V17.3594H148.75V27.3594ZM164.09 27.3594H174.09V18.207H164.09H154.09V27.3594H164.09ZM164.09 18.207V8.20703H148.75V18.207V28.207H164.09V18.207ZM208.09 10H218.09C218.09 4.47715 213.613 0 208.09 0V10ZM208.09 24.6523L198.09 24.6523C198.09 30.1752 202.567 34.6523 208.09 34.6523V24.6523ZM213.16 24.6523H223.16C223.16 19.1295 218.683 14.6523 213.16 14.6523V24.6523ZM213.16 30.2812V40.2812C218.683 40.2812 223.16 35.8041 223.16 30.2812H213.16ZM208.09 30.2812V20.2812C202.567 20.2812 198.09 24.7584 198.09 30.2812H208.09ZM208.09 49.6602V59.6602C213.613 59.6602 218.09 55.183 218.09 49.6602H208.09ZM201.172 49.6602H191.172C191.172 55.183 195.649 59.6602 201.172 59.6602V49.6602ZM201.172 10V0C195.649 0 191.172 4.47715 191.172 10H201.172ZM197.262 13.9531L207.262 13.9881C207.271 11.3299 206.221 8.77736 204.345 6.89443C202.469 5.0115 199.92 3.95312 197.262 3.95312V13.9531ZM179.43 43.2148L171.414 49.1938C174.292 53.0526 179.511 54.313 183.834 52.193L179.43 43.2148ZM175.52 37.9727L171.013 29.0458C168.376 30.377 166.462 32.8059 165.786 35.6812C165.109 38.5565 165.738 41.5839 167.504 43.9516L175.52 37.9727ZM190.258 19.5391L200.157 20.9568C200.568 18.0866 199.713 15.1792 197.814 12.9884C195.914 10.7976 193.157 9.53906 190.258 9.53906V19.5391ZM178.012 19.5391H168.012C168.012 25.0619 172.489 29.5391 178.012 29.5391V19.5391ZM178.012 13.9531V3.95312C172.489 3.95312 168.012 8.43028 168.012 13.9531H178.012ZM208.09 10H198.09V24.6523L208.09 24.6523H218.09V10H208.09ZM208.09 24.6523V34.6523H213.16V24.6523V14.6523H208.09V24.6523ZM213.16 24.6523L203.16 24.6523V30.2812H213.16H223.16V24.6523H213.16ZM213.16 30.2812V20.2812H208.09V30.2812V40.2812H213.16V30.2812ZM208.09 30.2812H198.09V49.6602H208.09H218.09V30.2812H208.09ZM208.09 49.6602V39.6602H201.172V49.6602V59.6602H208.09V49.6602ZM201.172 49.6602H211.172V10H201.172H191.172V49.6602H201.172ZM201.172 10V20L208.09 20V10V0H201.172V10ZM197.262 13.9531L187.262 13.9182C187.244 18.9688 186.369 22.8059 184.685 25.8287C183.062 28.7423 180.264 31.6673 175.026 34.2367L179.43 43.2148L183.834 52.193C192.173 48.1022 198.27 42.5409 202.158 35.5609C205.985 28.6902 207.236 21.2265 207.262 13.9881L197.262 13.9531ZM179.43 43.2148L187.445 37.2359L183.535 31.9937L175.52 37.9727L167.504 43.9516L171.414 49.1938L179.43 43.2148ZM175.52 37.9727L180.026 46.8995C185.271 44.2517 189.945 40.951 193.53 36.5212C197.201 31.9849 199.325 26.7651 200.157 20.9568L190.258 19.5391L180.359 18.1213C179.988 20.7134 179.168 22.4761 177.984 23.9392C176.713 25.5089 174.62 27.2248 171.013 29.0458L175.52 37.9727ZM190.258 19.5391V9.53906H178.012V19.5391V29.5391H190.258V19.5391ZM178.012 19.5391H188.012V13.9531H178.012H168.012V19.5391H178.012ZM178.012 13.9531V23.9531H197.262V13.9531V3.95312L178.012 3.95312V13.9531ZM242.98 42.9141L236.98 50.9141C240.582 53.6151 245.544 53.5768 249.103 50.8204L242.98 42.9141ZM247.02 34.793L257.018 34.9433C257.019 34.8932 257.02 34.8431 257.02 34.793H247.02ZM247.02 33.9336V23.9336C241.497 23.9336 237.02 28.4107 237.02 33.9336H247.02ZM253.766 33.9336H263.766C263.766 28.4107 259.288 23.9336 253.766 23.9336V33.9336ZM260.855 44.2031L269.165 49.7668C270.936 47.1212 271.342 43.7903 270.257 40.7969C269.173 37.8034 266.728 35.5053 263.673 34.6083L260.855 44.2031ZM257.547 49.1445L254.485 58.6642C258.734 60.0307 263.373 58.4166 265.856 54.7082L257.547 49.1445ZM250.156 42.9141L259.167 38.5779C257.487 35.0863 253.941 32.8797 250.066 32.9145C246.192 32.9493 242.686 35.2193 241.069 38.7406L250.156 42.9141ZM243.109 49.5312L239.813 58.9724C242.015 59.7411 244.416 59.7161 246.601 58.9017L243.109 49.5312ZM235.891 43.043L244.98 38.8741C243.385 35.3965 239.946 33.1337 236.121 33.0456C232.296 32.9575 228.756 35.0596 227.003 38.4601L235.891 43.043ZM228.672 49.1445L220.396 54.7578C222.918 58.4766 227.611 60.0563 231.869 58.6197L228.672 49.1445ZM225.32 44.2031L222.181 34.7087C219.204 35.6928 216.862 38.0159 215.853 40.9841C214.843 43.9522 215.285 47.2219 217.044 49.8164L225.32 44.2031ZM232.367 33.9336V23.9336C226.844 23.9336 222.367 28.4107 222.367 33.9336H232.367ZM239.113 33.9336H249.113C249.113 28.4107 244.636 23.9336 239.113 23.9336V33.9336ZM257.504 10.0859H267.504C267.504 4.56309 263.027 0.0859375 257.504 0.0859375V10.0859ZM257.504 32.3437V42.3437C263.027 42.3437 267.504 37.8666 267.504 32.3437H257.504ZM250.586 32.3437H240.586C240.586 37.8666 245.063 42.3437 250.586 42.3437V32.3437ZM250.586 10.0859V0.0859375C245.063 0.0859375 240.586 4.56309 240.586 10.0859H250.586ZM224.418 21.6445L234.418 21.722C234.418 21.6711 234.418 21.6202 234.418 21.5693L224.418 21.6445ZM235.547 25.5547L235.719 15.5562C235.607 15.5542 235.495 15.5542 235.383 15.556L235.547 25.5547ZM239.113 34.793H229.113C229.113 40.1276 231.063 46.4761 236.98 50.9141L242.98 42.9141L248.98 34.9141C248.966 34.9034 248.968 34.9037 248.982 34.9168C248.995 34.9299 249.015 34.9509 249.037 34.9793C249.085 35.0405 249.12 35.1019 249.139 35.1457C249.156 35.1857 249.15 35.185 249.139 35.1276C249.128 35.068 249.113 34.9576 249.113 34.793H239.113ZM242.98 42.9141L249.103 50.8204C254.699 46.4873 256.936 40.392 257.018 34.9433L247.02 34.793L237.021 34.6426C237.018 34.8084 236.985 34.8854 236.982 34.8903C236.982 34.8911 236.982 34.8915 236.977 34.898C236.973 34.9034 236.942 34.9426 236.858 35.0078L242.98 42.9141ZM247.02 34.793H257.02V33.9336H247.02H237.02V34.793H247.02ZM247.02 33.9336V43.9336H253.766V33.9336V23.9336H247.02V33.9336ZM253.766 33.9336H243.766V34.793H253.766H263.766V33.9336H253.766ZM253.766 34.793H243.766C243.766 38.1525 244.437 42.2523 246.977 46.037C249.607 49.9562 253.523 52.4721 258.038 53.798L260.855 44.2031L263.673 34.6083C263.178 34.4628 263.05 34.3534 263.127 34.4064C263.165 34.4323 263.237 34.4876 263.327 34.5778C263.417 34.6685 263.505 34.7752 263.584 34.8927C263.662 35.0092 263.718 35.1161 263.754 35.2011C263.791 35.2846 263.804 35.3352 263.805 35.3406C263.806 35.3449 263.796 35.305 263.786 35.212C263.775 35.1186 263.766 34.9808 263.766 34.793H253.766ZM260.855 44.2031L252.546 38.6395L249.238 43.5809L257.547 49.1445L265.856 54.7082L269.165 49.7668L260.855 44.2031ZM257.547 49.1445L260.609 39.6248C259.921 39.4037 259.633 39.1827 259.533 39.0959C259.436 39.012 259.312 38.8797 259.167 38.5779L250.156 42.9141L241.145 47.2502C243.73 52.6223 248.249 56.6584 254.485 58.6642L257.547 49.1445ZM250.156 42.9141L241.069 38.7406C240.856 39.2032 240.639 39.4828 240.459 39.6572C240.295 39.8166 240.053 39.9985 239.617 40.1608L243.109 49.5312L246.601 58.9017C252.84 56.5768 256.949 52.0844 259.244 47.0876L250.156 42.9141ZM243.109 49.5312L246.405 40.0901C245.835 39.8908 245.573 39.6844 245.448 39.5683C245.314 39.4432 245.15 39.2435 244.98 38.8741L235.891 43.043L226.801 47.2119C229.172 52.3818 233.453 56.7521 239.813 58.9724L243.109 49.5312ZM235.891 43.043L227.003 38.4601C226.821 38.8127 226.651 39.0058 226.503 39.134C226.36 39.2587 226.07 39.4686 225.475 39.6694L228.672 49.1445L231.869 58.6197C237.904 56.5833 242.207 52.6142 244.779 47.6259L235.891 43.043ZM228.672 49.1445L236.948 43.5313L233.596 38.5899L225.32 44.2031L217.044 49.8164L220.396 54.7578L228.672 49.1445ZM225.32 44.2031L228.46 53.6976C232.935 52.2179 236.666 49.5914 239.171 45.8221C241.611 42.1489 242.367 38.1773 242.367 34.793H232.367H222.367C222.367 35.0272 222.34 35.1179 222.347 35.0949C222.35 35.0809 222.363 35.0384 222.391 34.975C222.419 34.9106 222.459 34.8341 222.513 34.7531C222.567 34.6716 222.625 34.6003 222.681 34.5425C222.736 34.4849 222.775 34.4549 222.784 34.4483C222.806 34.4322 222.65 34.5537 222.181 34.7087L225.32 44.2031ZM232.367 34.793H242.367V33.9336H232.367H222.367V34.793H232.367ZM232.367 33.9336V43.9336H239.113V33.9336V23.9336H232.367V33.9336ZM239.113 33.9336H229.113V34.793H239.113H249.113V33.9336H239.113ZM257.504 10.0859H247.504V32.3437H257.504H267.504V10.0859H257.504ZM257.504 32.3437V22.3437H250.586V32.3437V42.3437H257.504V32.3437ZM250.586 32.3437H260.586V10.0859H250.586H240.586V32.3437H250.586ZM250.586 10.0859V20.0859H257.504V10.0859V0.0859375H250.586V10.0859ZM235.547 11.8906V21.8906C236.568 21.8906 236.952 22.2137 236.931 22.1955C236.916 22.1828 236.835 22.1039 236.762 21.9477C236.727 21.874 236.704 21.8019 236.69 21.7389C236.676 21.6758 236.676 21.6412 236.676 21.6445H246.676H256.676C256.676 9.07375 245.908 1.89062 235.547 1.89062V11.8906ZM246.676 21.6445H236.676C236.676 21.5434 236.704 21.3695 236.79 21.1888C236.828 21.1079 236.869 21.0461 236.902 21.0035C236.934 20.9614 236.955 20.9436 236.954 20.9445C236.948 20.9503 236.542 21.2695 235.547 21.2695V31.2695V41.2695C245.846 41.2695 256.676 34.0972 256.676 21.6445H246.676ZM235.547 31.2695V21.2695C234.512 21.2695 234.101 20.9393 234.107 20.9445C234.116 20.9516 234.208 21.0366 234.296 21.2229C234.389 21.4208 234.419 21.6105 234.418 21.722L224.418 21.6445L214.418 21.567C214.321 34.123 225.259 41.2695 235.547 41.2695V31.2695ZM224.418 21.6445L234.418 21.5693C234.418 21.5687 234.418 21.5792 234.416 21.5995C234.414 21.6199 234.41 21.6477 234.402 21.6817C234.387 21.7522 234.362 21.8323 234.324 21.9138C234.244 22.0865 234.153 22.1766 234.131 22.1955C234.097 22.2247 234.486 21.8906 235.547 21.8906V11.8906V1.89062C225.194 1.89062 214.323 9.04869 214.418 21.7197L224.418 21.6445ZM235.547 17.6484V7.64844C232.668 7.64844 228.978 8.37445 225.852 11.0475C222.492 13.9207 221.121 17.8978 221.121 21.6445H231.121H241.121C241.121 22.7272 240.653 24.7062 238.85 26.2474C237.282 27.5884 235.805 27.6484 235.547 27.6484V17.6484ZM231.121 21.6445H221.121C221.121 25.4491 222.574 29.363 225.852 32.1664C228.946 34.8124 232.645 35.6036 235.711 35.5533L235.547 25.5547L235.383 15.556C235.828 15.5487 237.314 15.6524 238.85 16.9664C240.571 18.4378 241.121 20.3751 241.121 21.6445H231.121ZM235.547 25.5547L235.374 35.5532C238.494 35.607 242.168 34.7529 245.207 32.0987C248.402 29.3094 249.844 25.4398 249.844 21.6445H239.844H229.844C229.844 20.3844 230.384 18.4913 232.052 17.0341C233.566 15.7119 235.092 15.5454 235.719 15.5562L235.547 25.5547ZM239.844 21.6445H249.844C249.844 17.9056 248.482 13.9747 245.207 11.1151C242.133 8.43063 238.471 7.64844 235.547 7.64844V17.6484V27.6484C235.115 27.6484 233.601 27.5323 232.052 26.1798C230.303 24.6522 229.844 22.7194 229.844 21.6445H239.844ZM294.371 20.0977H304.371C304.371 14.5748 299.894 10.0977 294.371 10.0977V20.0977ZM294.371 25.4258V35.4258C299.894 35.4258 304.371 30.9486 304.371 25.4258H294.371ZM266.27 25.4258H256.27C256.27 30.9486 260.747 35.4258 266.27 35.4258V25.4258ZM266.27 11.418V1.41797C260.747 1.41797 256.27 5.89512 256.27 11.418H266.27ZM273.145 11.418H283.145C283.145 5.89512 278.667 1.41797 273.145 1.41797V11.418ZM273.145 20.0977H263.145C263.145 25.6205 267.622 30.0977 273.145 30.0977V20.0977ZM298.281 28.9492H308.281C308.281 23.4264 303.804 18.9492 298.281 18.9492V28.9492ZM298.281 34.2773V44.2773C303.804 44.2773 308.281 39.8002 308.281 34.2773H298.281ZM262.016 34.2773H252.016C252.016 39.8002 256.493 44.2773 262.016 44.2773V34.2773ZM262.016 28.9492V18.9492C256.493 18.9492 252.016 23.4264 252.016 28.9492H262.016ZM294.629 43.4727H304.629C304.629 37.9498 300.152 33.4727 294.629 33.4727V43.4727ZM294.629 48.9727V58.9727C300.152 58.9727 304.629 54.4955 304.629 48.9727H294.629ZM265.797 48.9727H255.797C255.797 54.4955 260.274 58.9727 265.797 58.9727V48.9727ZM265.797 37.0273V27.0273C260.274 27.0273 255.797 31.5045 255.797 37.0273H265.797ZM272.758 37.0273H282.758C282.758 31.5045 278.281 27.0273 272.758 27.0273V37.0273ZM272.758 43.4727H262.758C262.758 48.9955 267.235 53.4727 272.758 53.4727V43.4727ZM294.371 20.0977H284.371V25.4258H294.371H304.371V20.0977H294.371ZM294.371 25.4258V15.4258H266.27V25.4258V35.4258H294.371V25.4258ZM266.27 25.4258H276.27V11.418H266.27H256.27V25.4258H266.27ZM266.27 11.418V21.418H273.145V11.418V1.41797H266.27V11.418ZM273.145 11.418H263.145V20.0977H273.145H283.145V11.418H273.145ZM273.145 20.0977V30.0977H294.371V20.0977V10.0977H273.145V20.0977ZM298.281 28.9492H288.281V34.2773H298.281H308.281V28.9492H298.281ZM298.281 34.2773V24.2773H262.016V34.2773V44.2773H298.281V34.2773ZM262.016 34.2773H272.016V28.9492H262.016H252.016V34.2773H262.016ZM262.016 28.9492V38.9492H298.281V28.9492V18.9492H262.016V28.9492ZM294.629 43.4727H284.629V48.9727H294.629H304.629V43.4727H294.629ZM294.629 48.9727V38.9727H265.797V48.9727V58.9727H294.629V48.9727ZM265.797 48.9727H275.797V37.0273H265.797H255.797V48.9727H265.797ZM265.797 37.0273V47.0273H272.758V37.0273V27.0273H265.797V37.0273ZM272.758 37.0273H262.758V43.4727H272.758H282.758V37.0273H272.758ZM272.758 43.4727V53.4727H294.629V43.4727V33.4727H272.758V43.4727Z" fill="white" mask="url(#path-1-outside-1_6526_5727)"/>
</g>
<defs>
<filter id="filter0_d_6526_5727" x="0" y="0" width="312.281" height="67.875" filterUnits="userSpaceOnUse" color-interpolation-filters="sRGB">
<feFlood flood-opacity="0" result="BackgroundImageFix"/>
<feColorMatrix in="SourceAlpha" type="matrix" values="0 0 0 0 0 0 0 0 0 0 0 0 0 0 0 0 0 0 127 0" result="hardAlpha"/>
<feOffset dy="4"/>
<feGaussianBlur stdDeviation="2"/>
<feComposite in2="hardAlpha" operator="out"/>
<feColorMatrix type="matrix" values="0 0 0 0 0 0 0 0 0 0 0 0 0 0 0 0 0 0 0.07 0"/>
<feBlend mode="normal" in2="BackgroundImageFix" result="effect1_dropShadow_6526_5727"/>
<feBlend mode="normal" in="SourceGraphic" in2="effect1_dropShadow_6526_5727" result="shape"/>
</filter>
</defs>
</svg>
