<svg width="178" height="68" viewBox="0 0 178 68" fill="none" xmlns="http://www.w3.org/2000/svg">
<g filter="url(#filter0_d_6526_5676)">
<mask id="path-1-outside-1_6526_5676" maskUnits="userSpaceOnUse" x="3.78516" y="-0.507813" width="170" height="61" fill="black">
<rect fill="white" x="3.78516" y="-0.507813" width="170" height="61"/>
<path d="M46.4844 10V18.0781H51.4258V23.707H46.4844V32H39.5664V10L46.4844 10ZM35.1836 12.1914C35.1836 23.0195 28.7383 30.1094 16.707 33.2461L14 27.7461C22.293 25.834 26.6328 22.0098 27.5781 17.6055H16.0625V12.1914H35.1836ZM46.4844 33.2891V49.3164H19.9727V33.2891H46.4844ZM26.8047 38.7891V43.9883H39.6953V38.7891H26.8047ZM86.5312 10V33.5898H79.6562V24.8242L74.6719 24.8242V19.2812L79.6562 19.2812V10H86.5312ZM72.6953 34.2344C81.332 34.2344 86.6172 37.1133 86.6172 42.0547C86.6172 46.9531 81.332 49.875 72.6953 49.875C64.1445 49.875 58.8594 46.9531 58.8594 42.0547C58.8594 37.1133 64.1445 34.2344 72.6953 34.2344ZM72.6953 39.4336C67.9688 39.4336 65.6914 40.1641 65.7344 42.0547C65.6914 43.9023 67.9688 44.6758 72.6953 44.6758C77.4648 44.6758 79.7852 43.9023 79.7852 42.0547C79.7852 40.1641 77.4648 39.4336 72.6953 39.4336ZM75.7461 12.1055V17.6055H68.5703C68.9785 21.5801 71.2988 25.5762 77.1641 27.4883L73.8555 32.8594C69.6016 31.5488 66.7871 28.9707 65.0469 25.7695C63.3281 29.4219 60.3418 32.3652 55.7656 33.8477L52.1992 28.3906C58.5371 26.3711 60.9219 21.8594 61.3516 17.6055H54.1328V12.1055H75.7461ZM113.773 11.9336V17.3477H106.555C106.898 21.3652 109.197 25.4902 115.191 27.4453L111.883 32.7305C107.607 31.4629 104.771 28.9062 103.074 25.6836C101.312 29.25 98.3477 32.1074 93.793 33.4609L90.2695 28.0469C96.6719 26.1348 99.0137 21.5801 99.4219 17.3477H92.1602V11.9336L113.773 11.9336ZM124.559 35.1367V49.7461H117.684V40.5938H96.9297V35.1367H124.559ZM124.559 10V33.6328H117.684V24.6094H112.742V19.0234H117.684V10H124.559ZM162.285 10.0859V38.3164H155.367V10.0859H162.285ZM163.23 43.6875V49.1875L135.086 49.1875V35.4805L142.047 35.4805V43.6875H163.23ZM140.328 12.4492C146.516 12.4492 151.457 16.7461 151.457 22.6328C151.457 28.6484 146.516 32.9023 140.328 32.9023C134.141 32.9023 129.156 28.6484 129.199 22.6328C129.156 16.7461 134.141 12.4492 140.328 12.4492ZM140.328 18.4219C137.793 18.4219 135.902 19.8398 135.902 22.6328C135.902 25.5547 137.793 26.9297 140.328 26.9297C142.734 26.9297 144.625 25.5547 144.625 22.6328C144.625 19.8398 142.734 18.4219 140.328 18.4219Z"/>
</mask>
<path d="M46.4844 10V18.0781H51.4258V23.707H46.4844V32H39.5664V10L46.4844 10ZM35.1836 12.1914C35.1836 23.0195 28.7383 30.1094 16.707 33.2461L14 27.7461C22.293 25.834 26.6328 22.0098 27.5781 17.6055H16.0625V12.1914H35.1836ZM46.4844 33.2891V49.3164H19.9727V33.2891H46.4844ZM26.8047 38.7891V43.9883H39.6953V38.7891H26.8047ZM86.5312 10V33.5898H79.6562V24.8242L74.6719 24.8242V19.2812L79.6562 19.2812V10H86.5312ZM72.6953 34.2344C81.332 34.2344 86.6172 37.1133 86.6172 42.0547C86.6172 46.9531 81.332 49.875 72.6953 49.875C64.1445 49.875 58.8594 46.9531 58.8594 42.0547C58.8594 37.1133 64.1445 34.2344 72.6953 34.2344ZM72.6953 39.4336C67.9688 39.4336 65.6914 40.1641 65.7344 42.0547C65.6914 43.9023 67.9688 44.6758 72.6953 44.6758C77.4648 44.6758 79.7852 43.9023 79.7852 42.0547C79.7852 40.1641 77.4648 39.4336 72.6953 39.4336ZM75.7461 12.1055V17.6055H68.5703C68.9785 21.5801 71.2988 25.5762 77.1641 27.4883L73.8555 32.8594C69.6016 31.5488 66.7871 28.9707 65.0469 25.7695C63.3281 29.4219 60.3418 32.3652 55.7656 33.8477L52.1992 28.3906C58.5371 26.3711 60.9219 21.8594 61.3516 17.6055H54.1328V12.1055H75.7461ZM113.773 11.9336V17.3477H106.555C106.898 21.3652 109.197 25.4902 115.191 27.4453L111.883 32.7305C107.607 31.4629 104.771 28.9062 103.074 25.6836C101.312 29.25 98.3477 32.1074 93.793 33.4609L90.2695 28.0469C96.6719 26.1348 99.0137 21.5801 99.4219 17.3477H92.1602V11.9336L113.773 11.9336ZM124.559 35.1367V49.7461H117.684V40.5938H96.9297V35.1367H124.559ZM124.559 10V33.6328H117.684V24.6094H112.742V19.0234H117.684V10H124.559ZM162.285 10.0859V38.3164H155.367V10.0859H162.285ZM163.23 43.6875V49.1875L135.086 49.1875V35.4805L142.047 35.4805V43.6875H163.23ZM140.328 12.4492C146.516 12.4492 151.457 16.7461 151.457 22.6328C151.457 28.6484 146.516 32.9023 140.328 32.9023C134.141 32.9023 129.156 28.6484 129.199 22.6328C129.156 16.7461 134.141 12.4492 140.328 12.4492ZM140.328 18.4219C137.793 18.4219 135.902 19.8398 135.902 22.6328C135.902 25.5547 137.793 26.9297 140.328 26.9297C142.734 26.9297 144.625 25.5547 144.625 22.6328C144.625 19.8398 142.734 18.4219 140.328 18.4219Z" fill="#11DCA9"/>
<path d="M46.4844 10H56.4844C56.4844 4.47715 52.0072 0 46.4844 0V10ZM46.4844 18.0781H36.4844C36.4844 23.601 40.9615 28.0781 46.4844 28.0781V18.0781ZM51.4258 18.0781H61.4258C61.4258 12.5553 56.9486 8.07812 51.4258 8.07812V18.0781ZM51.4258 23.707V33.707C56.9486 33.707 61.4258 29.2299 61.4258 23.707H51.4258ZM46.4844 23.707V13.707C40.9615 13.707 36.4844 18.1842 36.4844 23.707H46.4844ZM46.4844 32V42C52.0072 42 56.4844 37.5228 56.4844 32H46.4844ZM39.5664 32H29.5664C29.5664 37.5228 34.0436 42 39.5664 42V32ZM39.5664 10V0C34.0436 0 29.5664 4.47715 29.5664 10H39.5664ZM35.1836 12.1914H45.1836C45.1836 6.66856 40.7064 2.19141 35.1836 2.19141V12.1914ZM16.707 33.2461L7.7349 37.6621C9.8317 41.9222 14.6352 44.1205 19.2298 42.9226L16.707 33.2461ZM14 27.7461L11.7532 18.0018C8.77692 18.688 6.27743 20.6969 4.96704 23.4559C3.65664 26.215 3.67904 29.4216 5.02787 32.1621L14 27.7461ZM27.5781 17.6055L37.3555 19.704C37.9893 16.7508 37.2544 13.6693 35.3558 11.32C33.4573 8.97073 30.5986 7.60547 27.5781 7.60547V17.6055ZM16.0625 17.6055H6.0625C6.0625 23.1283 10.5397 27.6055 16.0625 27.6055V17.6055ZM16.0625 12.1914V2.19141C10.5397 2.19141 6.0625 6.66856 6.0625 12.1914H16.0625ZM46.4844 33.2891H56.4844C56.4844 27.7662 52.0072 23.2891 46.4844 23.2891V33.2891ZM46.4844 49.3164V59.3164C52.0072 59.3164 56.4844 54.8393 56.4844 49.3164H46.4844ZM19.9727 49.3164H9.97266C9.97266 54.8393 14.4498 59.3164 19.9727 59.3164V49.3164ZM19.9727 33.2891V23.2891C14.4498 23.2891 9.97266 27.7662 9.97266 33.2891H19.9727ZM26.8047 38.7891V28.7891C21.2818 28.7891 16.8047 33.2662 16.8047 38.7891H26.8047ZM26.8047 43.9883H16.8047C16.8047 49.5111 21.2818 53.9883 26.8047 53.9883V43.9883ZM39.6953 43.9883V53.9883C45.2182 53.9883 49.6953 49.5111 49.6953 43.9883H39.6953ZM39.6953 38.7891H49.6953C49.6953 33.2662 45.2182 28.7891 39.6953 28.7891V38.7891ZM46.4844 10L36.4844 10V18.0781H46.4844H56.4844V10H46.4844ZM46.4844 18.0781V28.0781H51.4258V18.0781V8.07812H46.4844V18.0781ZM51.4258 18.0781H41.4258V23.707H51.4258H61.4258V18.0781H51.4258ZM51.4258 23.707V13.707H46.4844V23.707V33.707H51.4258V23.707ZM46.4844 23.707H36.4844V32H46.4844H56.4844V23.707H46.4844ZM46.4844 32V22H39.5664V32V42H46.4844V32ZM39.5664 32H49.5664V10L39.5664 10H29.5664V32H39.5664ZM39.5664 10V20H46.4844V10V0H39.5664V10ZM35.1836 12.1914H25.1836C25.1836 15.4844 24.2651 17.5114 22.9703 18.9736C21.5452 20.5831 18.9105 22.3373 14.1842 23.5696L16.707 33.2461L19.2298 42.9226C26.5348 41.0181 33.1384 37.6591 37.9437 32.2325C42.8795 26.6585 45.1836 19.7265 45.1836 12.1914H35.1836ZM16.707 33.2461L25.6792 28.8301L22.9721 23.3301L14 27.7461L5.02787 32.1621L7.7349 37.6621L16.707 33.2461ZM14 27.7461L16.2468 37.4904C26.1029 35.2179 35.2075 29.7113 37.3555 19.704L27.5781 17.6055L17.8008 15.5069C17.8962 15.0626 18.0887 15.184 17.3972 15.7229C16.6181 16.3301 14.9225 17.271 11.7532 18.0018L14 27.7461ZM27.5781 17.6055V7.60547H16.0625V17.6055V27.6055H27.5781V17.6055ZM16.0625 17.6055H26.0625V12.1914H16.0625H6.0625L6.0625 17.6055H16.0625ZM16.0625 12.1914V22.1914H35.1836V12.1914V2.19141L16.0625 2.19141V12.1914ZM46.4844 33.2891H36.4844V49.3164H46.4844H56.4844V33.2891H46.4844ZM46.4844 49.3164V39.3164H19.9727V49.3164V59.3164H46.4844V49.3164ZM19.9727 49.3164H29.9727V33.2891H19.9727H9.97266L9.97266 49.3164H19.9727ZM19.9727 33.2891V43.2891H46.4844V33.2891V23.2891H19.9727V33.2891ZM26.8047 38.7891H16.8047V43.9883H26.8047H36.8047V38.7891H26.8047ZM26.8047 43.9883V53.9883H39.6953V43.9883V33.9883H26.8047V43.9883ZM39.6953 43.9883H49.6953V38.7891H39.6953H29.6953V43.9883H39.6953ZM39.6953 38.7891V28.7891H26.8047V38.7891V48.7891H39.6953V38.7891ZM86.5312 10H96.5312C96.5312 4.47715 92.0541 0 86.5312 0V10ZM86.5312 33.5898V43.5898C92.0541 43.5898 96.5312 39.1127 96.5312 33.5898H86.5312ZM79.6562 33.5898H69.6562C69.6562 39.1127 74.1334 43.5898 79.6562 43.5898V33.5898ZM79.6562 24.8242H89.6562C89.6562 19.3014 85.1791 14.8242 79.6562 14.8242V24.8242ZM74.6719 24.8242H64.6719C64.6719 30.3471 69.149 34.8242 74.6719 34.8242V24.8242ZM74.6719 19.2812V9.28125C69.149 9.28125 64.6719 13.7584 64.6719 19.2812H74.6719ZM79.6562 19.2812V29.2812C85.1791 29.2812 89.6562 24.8041 89.6562 19.2812H79.6562ZM79.6562 10V0C74.1334 0 69.6562 4.47715 69.6562 10H79.6562ZM65.7344 42.0547L75.7317 42.2872C75.7352 42.134 75.7353 41.9807 75.7318 41.8275L65.7344 42.0547ZM75.7461 12.1055H85.7461C85.7461 6.58262 81.2689 2.10547 75.7461 2.10547V12.1055ZM75.7461 17.6055V27.6055C81.2689 27.6055 85.7461 23.1283 85.7461 17.6055L75.7461 17.6055ZM68.5703 17.6055V7.60547C65.7404 7.60547 63.0429 8.80453 61.1468 10.9053C59.2507 13.0062 58.3335 15.812 58.6226 18.6271L68.5703 17.6055ZM77.1641 27.4883L85.6783 32.7331C87.286 30.1232 87.6079 26.9202 86.5517 24.0426C85.4955 21.1651 83.1779 18.9308 80.2636 17.9808L77.1641 27.4883ZM73.8555 32.8594L70.9112 42.4161C75.2671 43.7581 79.9792 41.9848 82.3697 38.1041L73.8555 32.8594ZM65.0469 25.7695L73.8326 20.9934C72.0325 17.6822 68.5237 15.6643 64.7565 15.7738C60.9892 15.8832 57.6035 18.1014 55.9987 21.5116L65.0469 25.7695ZM55.7656 33.8477L47.3948 39.3184C49.8631 43.0953 54.555 44.7514 58.8474 43.3609L55.7656 33.8477ZM52.1992 28.3906L49.1632 18.8626C46.1866 19.8111 43.8244 22.0961 42.7775 25.0394C41.7305 27.9828 42.1193 31.2463 43.8284 33.8613L52.1992 28.3906ZM61.3516 17.6055L71.3009 18.6105C71.585 15.7977 70.6653 12.9962 68.7694 10.8991C66.8735 8.80207 64.1786 7.60547 61.3516 7.60547V17.6055ZM54.1328 17.6055H44.1328C44.1328 23.1283 48.61 27.6055 54.1328 27.6055V17.6055ZM54.1328 12.1055V2.10547C48.61 2.10547 44.1328 6.58262 44.1328 12.1055L54.1328 12.1055ZM86.5312 10H76.5312V33.5898H86.5312H96.5312V10H86.5312ZM86.5312 33.5898V23.5898H79.6562V33.5898V43.5898H86.5312V33.5898ZM79.6562 33.5898H89.6562V24.8242H79.6562L69.6562 24.8242V33.5898H79.6562ZM79.6562 24.8242V14.8242L74.6719 14.8242V24.8242V34.8242H79.6562V24.8242ZM74.6719 24.8242L84.6719 24.8242V19.2812L74.6719 19.2812H64.6719V24.8242H74.6719ZM74.6719 19.2812V29.2812H79.6562V19.2812V9.28125H74.6719V19.2812ZM79.6562 19.2812H89.6562V10H79.6562H69.6562V19.2812L79.6562 19.2812ZM79.6562 10V20H86.5312V10V0L79.6562 0V10ZM72.6953 34.2344V44.2344C74.3179 44.2344 75.5871 44.3712 76.5249 44.5616C77.4804 44.7555 77.9278 44.9714 78.0286 45.0275C78.1125 45.0742 77.7112 44.8702 77.2852 44.2182C76.8168 43.5014 76.6172 42.6952 76.6172 42.0547H86.6172H96.6172C96.6172 35.2516 92.6637 30.2863 87.7614 27.5555C83.2919 25.0657 77.8985 24.2344 72.6953 24.2344V34.2344ZM86.6172 42.0547H76.6172C76.6172 41.3866 76.8258 40.5745 77.2904 39.865C77.7121 39.2211 78.1047 39.0231 78.0137 39.074C77.9077 39.1333 77.4576 39.3506 76.5065 39.5455C75.5725 39.737 74.3091 39.875 72.6953 39.875V49.875V59.875C77.9215 59.875 83.3132 59.0256 87.7763 56.5295C92.6448 53.8066 96.6172 48.8554 96.6172 42.0547H86.6172ZM72.6953 49.875V39.875C71.1089 39.875 69.866 39.7379 68.9475 39.5484C68.0122 39.3553 67.5706 39.1406 67.4688 39.0834C67.3816 39.0344 67.7718 39.2329 68.1901 39.8732C68.6511 40.5786 68.8594 41.387 68.8594 42.0547H58.8594H48.8594C48.8594 48.8478 52.8231 53.7955 57.6728 56.5201C62.1248 59.0212 67.4982 59.875 72.6953 59.875V49.875ZM58.8594 42.0547H68.8594C68.8594 42.6948 68.6601 43.4973 68.1954 44.2101C67.7726 44.8584 67.3739 45.063 67.4538 45.0182C67.5504 44.9642 67.9893 44.7509 68.929 44.5588C69.8513 44.3702 71.1 44.2344 72.6953 44.2344V34.2344V24.2344C67.5213 24.2344 62.1463 25.07 57.6878 27.5648C52.8042 30.2974 48.8594 35.2592 48.8594 42.0547H58.8594ZM72.6953 39.4336V29.4336C70.1698 29.4336 66.9196 29.5812 64.0159 30.6347C62.4584 31.1997 60.2819 32.2766 58.4873 34.4095C56.5065 36.7637 55.6758 39.5902 55.737 42.2819L65.7344 42.0547L75.7318 41.8275C75.7715 43.5739 75.2093 45.6 73.7911 47.2856C72.5592 48.7498 71.2393 49.2896 70.8367 49.4356C70.4048 49.5923 70.2823 49.5641 70.7178 49.5155C71.1096 49.4717 71.7444 49.4336 72.6953 49.4336V39.4336ZM65.7344 42.0547L55.7371 41.8222C55.6733 44.5629 56.5407 47.3821 58.5065 49.7045C60.2839 51.8043 62.4313 52.8764 63.9773 53.4445C66.8791 54.5107 70.1232 54.6758 72.6953 54.6758V44.6758V34.6758C71.7609 34.6758 71.1369 34.6362 70.7553 34.5921C70.3319 34.5432 70.4509 34.5158 70.8752 34.6717C71.2665 34.8155 72.5572 35.3478 73.7719 36.7829C75.1752 38.4407 75.7739 40.4703 75.7317 42.2872L65.7344 42.0547ZM72.6953 44.6758V54.6758C75.2958 54.6758 78.5296 54.5082 81.4221 53.4648C82.9575 52.9109 85.0772 51.8732 86.8597 49.8449C88.8326 47.5998 89.7852 44.8269 89.7852 42.0547H79.7852H69.7852C69.7852 40.2063 70.4476 38.2229 71.8364 36.6426C73.0348 35.2789 74.2764 34.781 74.6355 34.6514C75.0295 34.5093 75.1202 34.5405 74.6813 34.5906C74.2821 34.6361 73.6422 34.6758 72.6953 34.6758V44.6758ZM79.7852 42.0547H89.7852C89.7852 39.3294 88.8694 36.547 86.8795 34.2689C85.0791 32.2078 82.9303 31.1656 81.384 30.6148C78.4895 29.5839 75.2498 29.4336 72.6953 29.4336V39.4336V49.4336C73.6585 49.4336 74.3092 49.4718 74.7184 49.5169C75.1692 49.5667 75.0751 49.5985 74.6736 49.4555C74.3036 49.3237 73.033 48.8186 71.8167 47.4262C70.4109 45.8167 69.7852 43.8347 69.7852 42.0547H79.7852ZM75.7461 12.1055H65.7461V17.6055H75.7461L85.7461 17.6055V12.1055H75.7461ZM75.7461 17.6055V7.60547H68.5703V17.6055V27.6055H75.7461V17.6055ZM68.5703 17.6055L58.6226 18.6271C59.4142 26.334 64.2505 33.7964 74.0645 36.9958L77.1641 27.4883L80.2636 17.9808C79.5917 17.7617 79.1969 17.541 78.9868 17.3996C78.7828 17.2624 78.7042 17.1678 78.6814 17.1389C78.6591 17.1105 78.5593 16.9857 78.518 16.5838L68.5703 17.6055ZM77.1641 27.4883L68.6498 22.2435L65.3412 27.6146L73.8555 32.8594L82.3697 38.1041L85.6783 32.7331L77.1641 27.4883ZM73.8555 32.8594L76.7997 23.3026C75.8712 23.0166 75.2906 22.6575 74.9034 22.3354C74.5095 22.0078 74.1524 21.5818 73.8326 20.9934L65.0469 25.7695L56.2612 30.5457C59.1939 35.9405 64.0518 40.3029 70.9112 42.4161L73.8555 32.8594ZM65.0469 25.7695L55.9987 21.5116C55.3954 22.7935 54.496 23.7473 52.6839 24.3344L55.7656 33.8477L58.8474 43.3609C66.1876 40.9831 71.2608 36.0503 74.0951 30.0275L65.0469 25.7695ZM55.7656 33.8477L64.1365 28.3769L60.5701 22.9199L52.1992 28.3906L43.8284 33.8613L47.3948 39.3184L55.7656 33.8477ZM52.1992 28.3906L55.2353 37.9186C65.8918 34.523 70.5289 26.2539 71.3009 18.6105L61.3516 17.6055L51.4022 16.6005C51.3357 17.2589 51.1523 17.6219 51.0071 17.8144C50.9174 17.9335 50.534 18.4258 49.1632 18.8626L52.1992 28.3906ZM61.3516 17.6055V7.60547H54.1328V17.6055V27.6055H61.3516V17.6055ZM54.1328 17.6055H64.1328V12.1055H54.1328L44.1328 12.1055V17.6055H54.1328ZM54.1328 12.1055V22.1055H75.7461V12.1055V2.10547L54.1328 2.10547V12.1055ZM113.773 11.9336H123.773C123.773 6.41075 119.296 1.93359 113.773 1.93359V11.9336ZM113.773 17.3477V27.3477C119.296 27.3477 123.773 22.8705 123.773 17.3477H113.773ZM106.555 17.3477V7.34766C103.754 7.34766 101.082 8.52187 99.1884 10.5847C97.2945 12.6475 96.3524 15.41 96.5911 18.2002L106.555 17.3477ZM115.191 27.4453L123.668 32.7515C125.301 30.1428 125.641 26.9274 124.592 24.0343C123.542 21.1411 121.218 18.8926 118.292 17.9382L115.191 27.4453ZM111.883 32.7305L109.04 42.318C113.347 43.5947 117.976 41.8437 120.359 38.0367L111.883 32.7305ZM103.074 25.6836L111.922 21.0237C110.171 17.6983 106.703 15.6357 102.945 15.6844C99.1864 15.7332 95.773 17.885 94.1084 21.2547L103.074 25.6836ZM93.793 33.4609L85.4116 38.9155C87.8272 42.6273 92.3964 44.3082 96.6415 43.0466L93.793 33.4609ZM90.2695 28.0469L87.4079 18.4651C84.387 19.3673 81.9685 21.6412 80.8821 24.6008C79.7956 27.5604 80.1685 30.859 81.8881 33.5014L90.2695 28.0469ZM99.4219 17.3477L109.376 18.3077C109.646 15.5015 108.72 12.7115 106.825 10.6246C104.929 8.53762 102.241 7.34766 99.4219 7.34766V17.3477ZM92.1602 17.3477H82.1602C82.1602 22.8705 86.6373 27.3477 92.1602 27.3477V17.3477ZM92.1602 11.9336V1.93359C86.6373 1.93359 82.1602 6.41075 82.1602 11.9336H92.1602ZM124.559 35.1367H134.559C134.559 29.6139 130.081 25.1367 124.559 25.1367V35.1367ZM124.559 49.7461V59.7461C130.081 59.7461 134.559 55.2689 134.559 49.7461H124.559ZM117.684 49.7461H107.684C107.684 55.2689 112.161 59.7461 117.684 59.7461V49.7461ZM117.684 40.5938H127.684C127.684 35.0709 123.206 30.5938 117.684 30.5938V40.5938ZM96.9297 40.5938H86.9297C86.9297 46.1166 91.4068 50.5938 96.9297 50.5938V40.5938ZM96.9297 35.1367V25.1367C91.4068 25.1367 86.9297 29.6139 86.9297 35.1367H96.9297ZM124.559 10H134.559C134.559 4.47715 130.081 0 124.559 0V10ZM124.559 33.6328V43.6328C130.081 43.6328 134.559 39.1557 134.559 33.6328H124.559ZM117.684 33.6328H107.684C107.684 39.1557 112.161 43.6328 117.684 43.6328V33.6328ZM117.684 24.6094H127.684C127.684 19.0865 123.206 14.6094 117.684 14.6094V24.6094ZM112.742 24.6094H102.742C102.742 30.1322 107.219 34.6094 112.742 34.6094V24.6094ZM112.742 19.0234V9.02344C107.219 9.02344 102.742 13.5006 102.742 19.0234H112.742ZM117.684 19.0234V29.0234C123.206 29.0234 127.684 24.5463 127.684 19.0234H117.684ZM117.684 10V0C112.161 0 107.684 4.47715 107.684 10L117.684 10ZM113.773 11.9336L103.773 11.9336V17.3477H113.773H123.773V11.9336H113.773ZM113.773 17.3477V7.34766L106.555 7.34766V17.3477V27.3477H113.773V17.3477ZM106.555 17.3477L96.5911 18.2002C96.8999 21.8092 98.1192 25.7441 100.827 29.2653C103.566 32.8285 107.416 35.4276 112.091 36.9524L115.191 27.4453L118.292 17.9382C117.604 17.7137 117.202 17.4865 116.99 17.3422C116.784 17.2021 116.705 17.1052 116.682 17.0746C116.655 17.0401 116.553 16.9037 116.518 16.4952L106.555 17.3477ZM115.191 27.4453L106.715 22.1391L103.407 27.4243L111.883 32.7305L120.359 38.0367L123.668 32.7515L115.191 27.4453ZM111.883 32.7305L114.725 23.143C113.792 22.8663 113.23 22.5185 112.874 22.2254C112.515 21.9295 112.199 21.55 111.922 21.0237L103.074 25.6836L94.2263 30.3435C97.1626 35.9188 102.146 40.274 109.04 42.318L111.883 32.7305ZM103.074 25.6836L94.1084 21.2547C93.4832 22.5204 92.6301 23.3743 90.9444 23.8752L93.793 33.4609L96.6415 43.0466C104.065 40.8405 109.142 35.9796 112.04 30.1125L103.074 25.6836ZM93.793 33.4609L102.174 28.0064L98.6509 22.5923L90.2695 28.0469L81.8881 33.5014L85.4116 38.9155L93.793 33.4609ZM90.2695 28.0469L93.1312 37.6287C98.2019 36.1143 102.253 33.3369 105.08 29.5854C107.84 25.9231 109.032 21.8708 109.376 18.3077L99.4219 17.3477L89.4681 16.3876C89.4035 17.057 89.221 17.3982 89.107 17.5494C89.0495 17.6258 88.9477 17.7403 88.7393 17.8813C88.5255 18.026 88.1178 18.253 87.4079 18.4651L90.2695 28.0469ZM99.4219 17.3477V7.34766H92.1602V17.3477V27.3477H99.4219V17.3477ZM92.1602 17.3477H102.16V11.9336H92.1602H82.1602V17.3477H92.1602ZM92.1602 11.9336V21.9336H113.773V11.9336V1.93359L92.1602 1.93359V11.9336ZM124.559 35.1367H114.559V49.7461H124.559H134.559V35.1367H124.559ZM124.559 49.7461V39.7461H117.684V49.7461V59.7461H124.559V49.7461ZM117.684 49.7461H127.684V40.5938H117.684H107.684V49.7461H117.684ZM117.684 40.5938V30.5938H96.9297V40.5938V50.5938H117.684V40.5938ZM96.9297 40.5938H106.93V35.1367H96.9297H86.9297V40.5938H96.9297ZM96.9297 35.1367V45.1367H124.559V35.1367V25.1367H96.9297V35.1367ZM124.559 10H114.559V33.6328H124.559H134.559V10H124.559ZM124.559 33.6328V23.6328H117.684V33.6328V43.6328H124.559V33.6328ZM117.684 33.6328H127.684V24.6094H117.684H107.684V33.6328H117.684ZM117.684 24.6094V14.6094H112.742V24.6094V34.6094H117.684V24.6094ZM112.742 24.6094H122.742V19.0234H112.742H102.742V24.6094H112.742ZM112.742 19.0234V29.0234H117.684V19.0234V9.02344H112.742V19.0234ZM117.684 19.0234H127.684V10H117.684L107.684 10V19.0234H117.684ZM117.684 10V20H124.559V10V0L117.684 0V10ZM162.285 10.0859H172.285C172.285 4.56309 167.808 0.0859375 162.285 0.0859375V10.0859ZM162.285 38.3164V48.3164C167.808 48.3164 172.285 43.8393 172.285 38.3164H162.285ZM155.367 38.3164H145.367C145.367 43.8393 149.844 48.3164 155.367 48.3164V38.3164ZM155.367 10.0859V0.0859375C149.844 0.0859375 145.367 4.56309 145.367 10.0859H155.367ZM163.23 43.6875H173.23C173.23 38.1647 168.753 33.6875 163.23 33.6875V43.6875ZM163.23 49.1875V59.1875C168.753 59.1875 173.23 54.7103 173.23 49.1875H163.23ZM135.086 49.1875H125.086C125.086 54.7103 129.563 59.1875 135.086 59.1875V49.1875ZM135.086 35.4805V25.4805C129.563 25.4805 125.086 29.9576 125.086 35.4805H135.086ZM142.047 35.4805H152.047C152.047 29.9576 147.57 25.4805 142.047 25.4805V35.4805ZM142.047 43.6875L132.047 43.6875C132.047 49.2103 136.524 53.6875 142.047 53.6875V43.6875ZM129.199 22.6328L139.199 22.7042C139.199 22.6561 139.199 22.608 139.199 22.5598L129.199 22.6328ZM162.285 10.0859H152.285V38.3164H162.285H172.285V10.0859H162.285ZM162.285 38.3164V28.3164H155.367V38.3164V48.3164H162.285V38.3164ZM155.367 38.3164H165.367V10.0859H155.367H145.367V38.3164H155.367ZM155.367 10.0859V20.0859H162.285V10.0859V0.0859375H155.367V10.0859ZM163.23 43.6875H153.23V49.1875H163.23H173.23V43.6875H163.23ZM163.23 49.1875V39.1875L135.086 39.1875V49.1875V59.1875L163.23 59.1875V49.1875ZM135.086 49.1875L145.086 49.1875V35.4805L135.086 35.4805H125.086V49.1875H135.086ZM135.086 35.4805V45.4805L142.047 45.4805V35.4805V25.4805H135.086V35.4805ZM142.047 35.4805L132.047 35.4805V43.6875L142.047 43.6875H152.047V35.4805H142.047ZM142.047 43.6875V53.6875H163.23V43.6875V33.6875H142.047V43.6875ZM140.328 12.4492V22.4492C141.114 22.4492 141.466 22.7145 141.519 22.7625C141.544 22.7856 141.517 22.7678 141.486 22.6996C141.451 22.6226 141.457 22.582 141.457 22.6328H151.457H161.457C161.457 10.2688 151.033 2.44922 140.328 2.44922V12.4492ZM151.457 22.6328H141.457C141.457 22.7467 141.438 22.7399 141.468 22.6728C141.495 22.6131 141.523 22.5906 141.508 22.6043C141.477 22.6322 141.139 22.9023 140.328 22.9023V32.9023V42.9023C151.062 42.9023 161.457 35.0994 161.457 22.6328H151.457ZM140.328 32.9023V22.9023C139.51 22.9023 139.158 22.6277 139.122 22.5954C139.107 22.5816 139.142 22.6101 139.175 22.6851C139.213 22.7686 139.198 22.7961 139.199 22.7042L129.199 22.6328L119.199 22.5614C119.11 35.147 129.667 42.9023 140.328 42.9023V32.9023ZM129.199 22.6328L139.199 22.5598C139.199 22.5318 139.2 22.5937 139.158 22.6872C139.12 22.7708 139.086 22.7945 139.111 22.7714C139.17 22.7191 139.535 22.4492 140.328 22.4492V12.4492V2.44922C129.697 2.44922 119.108 10.2208 119.199 22.7058L129.199 22.6328ZM140.328 18.4219V8.42187C137.278 8.42187 133.579 9.281 130.511 12.0143C127.274 14.899 125.902 18.8404 125.902 22.6328H135.902H145.902C145.902 23.6323 145.476 25.4682 143.818 26.9457C142.33 28.2717 140.843 28.4219 140.328 28.4219V18.4219ZM135.902 22.6328H125.902C125.902 26.3614 127.191 30.361 130.483 33.3174C133.602 36.1181 137.35 36.9297 140.328 36.9297V26.9297V16.9297C140.771 16.9297 142.306 17.0538 143.846 18.4365C145.559 19.9749 145.902 21.8261 145.902 22.6328H135.902ZM140.328 26.9297V36.9297C143.36 36.9297 147.076 36.0539 150.136 33.2485C153.343 30.3089 154.625 26.3568 154.625 22.6328H144.625H134.625C134.625 21.8307 134.962 20.027 136.622 18.5054C138.135 17.118 139.703 16.9297 140.328 16.9297V26.9297ZM144.625 22.6328H154.625C154.625 18.8465 153.261 14.9508 150.108 12.0829C147.101 9.347 143.432 8.42187 140.328 8.42187V18.4219V28.4219C139.63 28.4219 138.11 28.2057 136.65 26.8771C135.044 25.4164 134.625 23.6261 134.625 22.6328H144.625Z" fill="white" mask="url(#path-1-outside-1_6526_5676)"/>
</g>
<defs>
<filter id="filter0_d_6526_5676" x="0" y="0" width="177.23" height="67.875" filterUnits="userSpaceOnUse" color-interpolation-filters="sRGB">
<feFlood flood-opacity="0" result="BackgroundImageFix"/>
<feColorMatrix in="SourceAlpha" type="matrix" values="0 0 0 0 0 0 0 0 0 0 0 0 0 0 0 0 0 0 127 0" result="hardAlpha"/>
<feOffset dy="4"/>
<feGaussianBlur stdDeviation="2"/>
<feComposite in2="hardAlpha" operator="out"/>
<feColorMatrix type="matrix" values="0 0 0 0 0 0 0 0 0 0 0 0 0 0 0 0 0 0 0.07 0"/>
<feBlend mode="normal" in2="BackgroundImageFix" result="effect1_dropShadow_6526_5676"/>
<feBlend mode="normal" in="SourceGraphic" in2="effect1_dropShadow_6526_5676" result="shape"/>
</filter>
</defs>
</svg>
