<svg width="351" height="69" viewBox="0 0 351 69" fill="none" xmlns="http://www.w3.org/2000/svg">
<g filter="url(#filter0_d_6524_1899)">
<mask id="path-1-outside-1_6524_1899" maskUnits="userSpaceOnUse" x="3.57031" y="-0.25" width="343" height="61" fill="black">
<rect fill="white" x="3.57031" y="-0.25" width="343" height="61"/>
<path d="M46.2695 10.2578V19.0234H51.2109V24.5664H46.2695V32.8594H39.3516V10.2578L46.2695 10.2578ZM35.0547 12.707C35.0547 23.6211 28.7383 31.0117 16.707 34.2344L14 28.6914C22.1641 26.6504 26.5039 22.7832 27.4922 18.1641H15.9766V12.707H35.0547ZM32.9922 33.332C41.1992 33.332 46.6562 36.6406 46.6992 41.7109C46.6562 46.9102 41.1992 50.1328 32.9922 50.1328C24.8711 50.1328 19.2422 46.9102 19.2852 41.7109C19.2422 36.6406 24.8711 33.332 32.9922 33.332ZM32.9922 38.6602C28.5664 38.6172 26.1172 39.6484 26.1172 41.7109C26.1172 43.7734 28.5664 44.8477 32.9922 44.8047C37.418 44.8477 39.8672 43.7734 39.8672 41.7109C39.8672 39.6484 37.418 38.6172 32.9922 38.6602ZM86.3164 10.2578V33.1172H79.4414V24.5234L74.2852 24.5234V18.9375L79.4414 18.9375V10.2578H86.3164ZM86.3164 34.4922V49.6602H59.1602V34.4922H86.3164ZM66.0781 39.9062V44.1602H79.6133V39.9062H66.0781ZM75.5312 11.9766V17.4336H68.3555C68.7207 21.3438 71.0195 25.4473 76.9492 27.4023L73.6406 32.8164C69.3652 31.4629 66.5078 28.8848 64.7891 25.6406C63.0488 29.2285 60.084 32.0645 55.5508 33.418L52.0273 28.0039C58.3223 26.0703 60.6855 21.7305 61.1367 17.4336H53.918V11.9766H75.5312ZM108.66 10.7734C117.984 10.7734 123.312 13.1367 123.355 17.4766C123.312 21.8594 117.984 24.2227 108.66 24.2227C99.293 24.2227 93.8789 21.8594 93.9219 17.4766C93.8789 13.1367 99.293 10.7734 108.66 10.7734ZM108.66 15.7578C103.289 15.7578 101.141 16.2734 101.141 17.4766C101.141 18.9375 103.289 19.1953 108.66 19.2383C114.074 19.1953 116.223 18.9375 116.223 17.4766C116.223 16.2734 114.074 15.7578 108.66 15.7578ZM126.793 25.5547V31.0117H90.5273V25.5547H126.793ZM122.496 32.5156V43.4727H101.312V44.7617H123.441V49.832H94.5664V38.7461H115.707V37.543H94.6094V32.5156H122.496ZM160.738 11.8906V17.2187H153.648C154.314 20.4414 156.742 23.5996 162.371 25.125L159.191 30.4102C154.809 29.293 151.844 26.9082 150.082 23.8789C148.299 27.3164 145.248 30.002 140.5 31.2266L137.148 25.8555C143.1 24.2441 145.592 20.7422 146.258 17.2187H138.953V11.8906H160.738ZM169.934 10.2578V17.6055H174.875V23.1055H169.934V30.582H163.016V10.2578H169.934ZM169.934 31.9141V43.043H149.781V44.4609H170.879V49.6172H142.949V38.2734H163.059V37.0273H142.949V31.9141H169.934ZM217.973 10.2578V19.1523H222.527V24.8672H217.973V33.6328H211.098V10.2578H217.973ZM217.973 34.793V44.2891H197.348V45.4062H219.176V49.832H190.43V40.25H211.098V39.2617H190.43V34.793H217.973ZM185.145 28.9492C187.852 28.9707 190.902 28.9707 194.082 28.9062V27.5742C189.957 26.9727 187.465 25.2109 187.465 22.4609C187.465 19.2812 191.375 17.3906 197.477 17.3906C203.535 17.3906 207.445 19.2812 207.445 22.4609C207.445 25.1895 204.996 26.9297 200.957 27.5742V28.6484C203.9 28.498 206.844 28.2617 209.637 27.918L210.109 32.0859C201.73 33.5039 192.707 33.5469 185.832 33.5469L185.145 28.9492ZM208.777 12.4492V16.9609L186.219 16.9609V12.4492H194.082V10H200.957V12.4492H208.777ZM197.477 21.5586C195.199 21.5586 194.039 21.7305 194.039 22.4609C194.039 23.2773 195.199 23.5781 197.477 23.5781C199.711 23.5781 200.828 23.2773 200.871 22.4609C200.828 21.7305 199.711 21.5586 197.477 21.5586ZM260.039 28.6055V34.0625H223.773V28.6055H231.422V24.3516C228.693 23.041 227.146 21.0859 227.168 18.5937C227.125 13.7383 232.969 10.7734 241.906 10.7305C250.758 10.7734 256.559 13.7383 256.602 18.5937C256.58 21.1504 254.947 23.127 252.09 24.4375V28.6055H260.039ZM241.82 35.4805C250.457 35.4805 255.699 38.0586 255.742 42.7422C255.699 47.4687 250.457 50.0039 241.82 50.0039C233.055 50.0039 227.77 47.4687 227.77 42.7422C227.77 38.0586 233.055 35.4805 241.82 35.4805ZM241.82 40.6367C236.879 40.6797 234.773 41.1953 234.816 42.7422C234.773 44.2891 236.879 44.9336 241.82 44.9336C246.633 44.9336 248.824 44.2891 248.824 42.7422C248.824 41.1953 246.633 40.6797 241.82 40.6367ZM241.906 16.0156C236.836 16.0156 234.301 16.7891 234.344 18.5937C234.301 20.3555 236.836 21.0859 241.906 21.0859C246.848 21.0859 249.469 20.3555 249.469 18.5937C249.469 16.7891 246.848 16.0156 241.906 16.0156ZM238.383 28.6055H245.215V26.0703C244.162 26.1992 243.066 26.2422 241.906 26.2422C240.66 26.2422 239.5 26.1777 238.383 26.0703V28.6055ZM293.512 10.2578V25.3398H298.883V30.9687H293.512V50.0039H286.68V10.2578H293.512ZM284.746 15.9297V21.3867H261.586V15.9297H269.793V10.9883H276.668V15.9297H284.746ZM273.23 22.9336C279.117 22.9336 283.629 26.9727 283.629 32.6016C283.629 38.2734 279.117 42.3125 273.23 42.3125C267.215 42.3125 262.789 38.2734 262.789 32.6016C262.789 26.9727 267.215 22.9336 273.23 22.9336ZM273.23 28.4766C270.996 28.4766 269.363 29.9375 269.406 32.6016C269.363 35.3945 270.996 36.7266 273.23 36.7266C275.422 36.7266 277.012 35.3945 277.012 32.6016C277.012 29.9375 275.422 28.4766 273.23 28.4766ZM332.184 20.3555V25.6836H304.082V11.6758H310.957V20.3555H332.184ZM336.094 29.207V34.5352H299.828V29.207H336.094ZM332.441 43.7305V49.2305H303.609V37.2852H310.57V43.7305H332.441Z"/>
</mask>
<path d="M46.2695 10.2578V19.0234H51.2109V24.5664H46.2695V32.8594H39.3516V10.2578L46.2695 10.2578ZM35.0547 12.707C35.0547 23.6211 28.7383 31.0117 16.707 34.2344L14 28.6914C22.1641 26.6504 26.5039 22.7832 27.4922 18.1641H15.9766V12.707H35.0547ZM32.9922 33.332C41.1992 33.332 46.6562 36.6406 46.6992 41.7109C46.6562 46.9102 41.1992 50.1328 32.9922 50.1328C24.8711 50.1328 19.2422 46.9102 19.2852 41.7109C19.2422 36.6406 24.8711 33.332 32.9922 33.332ZM32.9922 38.6602C28.5664 38.6172 26.1172 39.6484 26.1172 41.7109C26.1172 43.7734 28.5664 44.8477 32.9922 44.8047C37.418 44.8477 39.8672 43.7734 39.8672 41.7109C39.8672 39.6484 37.418 38.6172 32.9922 38.6602ZM86.3164 10.2578V33.1172H79.4414V24.5234L74.2852 24.5234V18.9375L79.4414 18.9375V10.2578H86.3164ZM86.3164 34.4922V49.6602H59.1602V34.4922H86.3164ZM66.0781 39.9062V44.1602H79.6133V39.9062H66.0781ZM75.5312 11.9766V17.4336H68.3555C68.7207 21.3438 71.0195 25.4473 76.9492 27.4023L73.6406 32.8164C69.3652 31.4629 66.5078 28.8848 64.7891 25.6406C63.0488 29.2285 60.084 32.0645 55.5508 33.418L52.0273 28.0039C58.3223 26.0703 60.6855 21.7305 61.1367 17.4336H53.918V11.9766H75.5312ZM108.66 10.7734C117.984 10.7734 123.312 13.1367 123.355 17.4766C123.312 21.8594 117.984 24.2227 108.66 24.2227C99.293 24.2227 93.8789 21.8594 93.9219 17.4766C93.8789 13.1367 99.293 10.7734 108.66 10.7734ZM108.66 15.7578C103.289 15.7578 101.141 16.2734 101.141 17.4766C101.141 18.9375 103.289 19.1953 108.66 19.2383C114.074 19.1953 116.223 18.9375 116.223 17.4766C116.223 16.2734 114.074 15.7578 108.66 15.7578ZM126.793 25.5547V31.0117H90.5273V25.5547H126.793ZM122.496 32.5156V43.4727H101.312V44.7617H123.441V49.832H94.5664V38.7461H115.707V37.543H94.6094V32.5156H122.496ZM160.738 11.8906V17.2187H153.648C154.314 20.4414 156.742 23.5996 162.371 25.125L159.191 30.4102C154.809 29.293 151.844 26.9082 150.082 23.8789C148.299 27.3164 145.248 30.002 140.5 31.2266L137.148 25.8555C143.1 24.2441 145.592 20.7422 146.258 17.2187H138.953V11.8906H160.738ZM169.934 10.2578V17.6055H174.875V23.1055H169.934V30.582H163.016V10.2578H169.934ZM169.934 31.9141V43.043H149.781V44.4609H170.879V49.6172H142.949V38.2734H163.059V37.0273H142.949V31.9141H169.934ZM217.973 10.2578V19.1523H222.527V24.8672H217.973V33.6328H211.098V10.2578H217.973ZM217.973 34.793V44.2891H197.348V45.4062H219.176V49.832H190.43V40.25H211.098V39.2617H190.43V34.793H217.973ZM185.145 28.9492C187.852 28.9707 190.902 28.9707 194.082 28.9062V27.5742C189.957 26.9727 187.465 25.2109 187.465 22.4609C187.465 19.2812 191.375 17.3906 197.477 17.3906C203.535 17.3906 207.445 19.2812 207.445 22.4609C207.445 25.1895 204.996 26.9297 200.957 27.5742V28.6484C203.9 28.498 206.844 28.2617 209.637 27.918L210.109 32.0859C201.73 33.5039 192.707 33.5469 185.832 33.5469L185.145 28.9492ZM208.777 12.4492V16.9609L186.219 16.9609V12.4492H194.082V10H200.957V12.4492H208.777ZM197.477 21.5586C195.199 21.5586 194.039 21.7305 194.039 22.4609C194.039 23.2773 195.199 23.5781 197.477 23.5781C199.711 23.5781 200.828 23.2773 200.871 22.4609C200.828 21.7305 199.711 21.5586 197.477 21.5586ZM260.039 28.6055V34.0625H223.773V28.6055H231.422V24.3516C228.693 23.041 227.146 21.0859 227.168 18.5937C227.125 13.7383 232.969 10.7734 241.906 10.7305C250.758 10.7734 256.559 13.7383 256.602 18.5937C256.58 21.1504 254.947 23.127 252.09 24.4375V28.6055H260.039ZM241.82 35.4805C250.457 35.4805 255.699 38.0586 255.742 42.7422C255.699 47.4687 250.457 50.0039 241.82 50.0039C233.055 50.0039 227.77 47.4687 227.77 42.7422C227.77 38.0586 233.055 35.4805 241.82 35.4805ZM241.82 40.6367C236.879 40.6797 234.773 41.1953 234.816 42.7422C234.773 44.2891 236.879 44.9336 241.82 44.9336C246.633 44.9336 248.824 44.2891 248.824 42.7422C248.824 41.1953 246.633 40.6797 241.82 40.6367ZM241.906 16.0156C236.836 16.0156 234.301 16.7891 234.344 18.5937C234.301 20.3555 236.836 21.0859 241.906 21.0859C246.848 21.0859 249.469 20.3555 249.469 18.5937C249.469 16.7891 246.848 16.0156 241.906 16.0156ZM238.383 28.6055H245.215V26.0703C244.162 26.1992 243.066 26.2422 241.906 26.2422C240.66 26.2422 239.5 26.1777 238.383 26.0703V28.6055ZM293.512 10.2578V25.3398H298.883V30.9687H293.512V50.0039H286.68V10.2578H293.512ZM284.746 15.9297V21.3867H261.586V15.9297H269.793V10.9883H276.668V15.9297H284.746ZM273.23 22.9336C279.117 22.9336 283.629 26.9727 283.629 32.6016C283.629 38.2734 279.117 42.3125 273.23 42.3125C267.215 42.3125 262.789 38.2734 262.789 32.6016C262.789 26.9727 267.215 22.9336 273.23 22.9336ZM273.23 28.4766C270.996 28.4766 269.363 29.9375 269.406 32.6016C269.363 35.3945 270.996 36.7266 273.23 36.7266C275.422 36.7266 277.012 35.3945 277.012 32.6016C277.012 29.9375 275.422 28.4766 273.23 28.4766ZM332.184 20.3555V25.6836H304.082V11.6758H310.957V20.3555H332.184ZM336.094 29.207V34.5352H299.828V29.207H336.094ZM332.441 43.7305V49.2305H303.609V37.2852H310.57V43.7305H332.441Z" fill="#11DCA9"/>
<path d="M46.2695 10.2578H56.2695C56.2695 4.73496 51.7924 0.257812 46.2695 0.257812V10.2578ZM46.2695 19.0234H36.2695C36.2695 24.5463 40.7467 29.0234 46.2695 29.0234V19.0234ZM51.2109 19.0234H61.2109C61.2109 13.5006 56.7338 9.02344 51.2109 9.02344V19.0234ZM51.2109 24.5664V34.5664C56.7338 34.5664 61.2109 30.0893 61.2109 24.5664H51.2109ZM46.2695 24.5664V14.5664C40.7467 14.5664 36.2695 19.0436 36.2695 24.5664H46.2695ZM46.2695 32.8594V42.8594C51.7924 42.8594 56.2695 38.3822 56.2695 32.8594H46.2695ZM39.3516 32.8594H29.3516C29.3516 38.3822 33.8287 42.8594 39.3516 42.8594V32.8594ZM39.3516 10.2578V0.257812C33.8287 0.257812 29.3516 4.73496 29.3516 10.2578H39.3516ZM35.0547 12.707H45.0547C45.0547 7.18418 40.5775 2.70703 35.0547 2.70703V12.707ZM16.707 34.2344L7.72136 38.6227C9.82113 42.9223 14.6724 45.1319 19.2944 43.8939L16.707 34.2344ZM14 28.6914L11.5746 18.99C8.6479 19.7217 6.20789 21.7355 4.9345 24.4704C3.6611 27.2053 3.69044 30.3689 5.01433 33.0798L14 28.6914ZM27.4922 18.1641L37.2709 20.2562C37.9026 17.3037 37.1664 14.2238 35.2678 11.8761C33.3693 9.52829 30.5116 8.16406 27.4922 8.16406V18.1641ZM15.9766 18.1641H5.97656C5.97656 23.6869 10.4537 28.1641 15.9766 28.1641V18.1641ZM15.9766 12.707V2.70703C10.4537 2.70703 5.97656 7.18418 5.97656 12.707H15.9766ZM46.6992 41.7109L56.6989 41.7936C56.6993 41.7378 56.6993 41.682 56.6989 41.6262L46.6992 41.7109ZM19.2852 41.7109L29.2848 41.7936C29.2853 41.7378 29.2853 41.682 29.2848 41.6262L19.2852 41.7109ZM32.9922 38.6602L32.8951 48.6597C32.9598 48.6603 33.0245 48.6603 33.0893 48.6597L32.9922 38.6602ZM32.9922 44.8047L33.0893 34.8052C33.0245 34.8045 32.9598 34.8045 32.8951 34.8052L32.9922 44.8047ZM46.2695 10.2578L36.2695 10.2578V19.0234H46.2695H56.2695V10.2578H46.2695ZM46.2695 19.0234V29.0234H51.2109V19.0234V9.02344H46.2695V19.0234ZM51.2109 19.0234H41.2109V24.5664H51.2109H61.2109V19.0234H51.2109ZM51.2109 24.5664V14.5664H46.2695V24.5664V34.5664H51.2109V24.5664ZM46.2695 24.5664H36.2695V32.8594H46.2695H56.2695V24.5664H46.2695ZM46.2695 32.8594V22.8594H39.3516V32.8594V42.8594H46.2695V32.8594ZM39.3516 32.8594H49.3516V10.2578L39.3516 10.2578H29.3516V32.8594H39.3516ZM39.3516 10.2578V20.2578H46.2695V10.2578V0.257812H39.3516V10.2578ZM35.0547 12.707H25.0547C25.0547 16.1244 24.1169 18.303 22.7841 19.8657C21.3563 21.5398 18.7573 23.3327 14.1197 24.5749L16.707 34.2344L19.2944 43.8939C26.6881 41.9134 33.2629 38.3997 38.0011 32.8443C42.8343 27.1774 45.0547 20.2037 45.0547 12.707H35.0547ZM16.707 34.2344L25.6927 29.846L22.9857 24.3031L14 28.6914L5.01433 33.0798L7.72136 38.6227L16.707 34.2344ZM14 28.6914L16.4254 38.3928C26.2301 35.9417 35.1197 30.3105 37.2709 20.2562L27.4922 18.1641L17.7135 16.0719C17.7609 15.8501 17.847 16.0554 17.1558 16.6134C16.3658 17.2511 14.6903 18.2111 11.5746 18.99L14 28.6914ZM27.4922 18.1641V8.16406H15.9766V18.1641V28.1641H27.4922V18.1641ZM15.9766 18.1641H25.9766V12.707H15.9766H5.97656L5.97656 18.1641H15.9766ZM15.9766 12.707V22.707H35.0547V12.707V2.70703L15.9766 2.70703V12.707ZM32.9922 33.332V43.332C34.3863 43.332 35.4929 43.4738 36.3147 43.6659C37.1485 43.8607 37.5715 44.079 37.7005 44.1577C37.8201 44.2306 37.55 44.096 37.2373 43.6005C36.8924 43.0542 36.7046 42.3932 36.6996 41.7957L46.6992 41.7109L56.6989 41.6262C56.6422 34.9445 52.8193 29.9522 48.114 27.0826C43.6682 24.3713 38.2716 23.332 32.9922 23.332V33.332ZM46.6992 41.7109L36.6996 41.6283C36.7038 41.1094 36.8665 40.4754 37.2138 39.9198C37.5306 39.4129 37.8152 39.2643 37.7144 39.3255C37.6001 39.395 37.1869 39.6097 36.3482 39.8026C35.5219 39.9927 34.405 40.1328 32.9922 40.1328V50.1328V60.1328C38.2239 60.1328 43.6313 59.1329 48.1 56.4176C52.8851 53.5101 56.6437 48.4749 56.6989 41.7936L46.6992 41.7109ZM32.9922 50.1328V40.1328C31.6081 40.1328 30.4942 39.9941 29.6569 39.8018C28.8056 39.6063 28.3704 39.3859 28.2361 39.3051C28.1111 39.2298 28.4041 39.3744 28.7365 39.904C29.1063 40.4931 29.2898 41.1913 29.2848 41.7936L19.2852 41.7109L9.2855 41.6283C9.22869 48.5016 13.162 53.5738 17.9182 56.4381C22.3852 59.1282 27.7907 60.1328 32.9922 60.1328V50.1328ZM19.2852 41.7109L29.2848 41.6262C29.2906 42.3102 29.0802 43.037 28.7129 43.6164C28.3846 44.1344 28.1062 44.2652 28.25 44.1782C28.3989 44.0883 28.8437 43.8642 29.6904 43.6667C30.5233 43.4724 31.6269 43.332 32.9922 43.332V33.332V23.332C27.7432 23.332 22.3481 24.376 17.9043 27.062C13.2309 29.8868 9.22723 34.918 9.28552 41.7957L19.2852 41.7109ZM32.9922 38.6602L33.0893 28.6606C30.365 28.6342 26.9731 28.8833 23.8846 30.2354C22.2443 30.9535 20.2606 32.1705 18.6607 34.2377C16.9566 36.4397 16.1172 39.0619 16.1172 41.7109H26.1172H36.1172C36.1172 43.3287 35.584 45.0485 34.4773 46.4784C33.475 47.7736 32.3802 48.3488 31.9054 48.5566C31.4281 48.7656 31.2189 48.7637 31.4782 48.7263C31.7074 48.6932 32.1637 48.6526 32.8951 48.6597L32.9922 38.6602ZM26.1172 41.7109H16.1172C16.1172 47.8555 20.2527 51.5848 23.8141 53.1768C26.915 54.5629 30.3245 54.8311 33.0893 54.8042L32.9922 44.8047L32.8951 34.8052C31.2341 34.8213 31.2061 34.5738 31.9759 34.9179C32.4538 35.1316 33.5274 35.7097 34.508 36.9899C35.587 38.3987 36.1172 40.0968 36.1172 41.7109H26.1172ZM32.9922 44.8047L32.8951 54.8042C35.6599 54.8311 39.0694 54.5629 42.1702 53.1768C45.7317 51.5848 49.8672 47.8555 49.8672 41.7109H39.8672H29.8672C29.8672 40.0968 30.3974 38.3987 31.4764 36.9899C32.4569 35.7097 33.5306 35.1316 34.0085 34.9179C34.7783 34.5738 34.7502 34.8213 33.0893 34.8052L32.9922 44.8047ZM39.8672 41.7109H49.8672C49.8672 39.0619 49.0278 36.4397 47.3237 34.2377C45.7238 32.1705 43.74 30.9535 42.0998 30.2354C39.0113 28.8833 35.6193 28.6342 32.8951 28.6606L32.9922 38.6602L33.0893 48.6597C33.8207 48.6526 34.277 48.6932 34.5062 48.7263C34.7654 48.7637 34.5563 48.7656 34.079 48.5566C33.6042 48.3488 32.5094 47.7736 31.507 46.4784C30.4004 45.0485 29.8672 43.3287 29.8672 41.7109H39.8672ZM86.3164 10.2578H96.3164C96.3164 4.73496 91.8393 0.257812 86.3164 0.257812V10.2578ZM86.3164 33.1172V43.1172C91.8393 43.1172 96.3164 38.64 96.3164 33.1172H86.3164ZM79.4414 33.1172H69.4414C69.4414 38.64 73.9186 43.1172 79.4414 43.1172V33.1172ZM79.4414 24.5234H89.4414C89.4414 19.0006 84.9643 14.5234 79.4414 14.5234V24.5234ZM74.2852 24.5234H64.2852C64.2852 30.0463 68.7623 34.5234 74.2852 34.5234V24.5234ZM74.2852 18.9375V8.9375C68.7623 8.9375 64.2852 13.4147 64.2852 18.9375H74.2852ZM79.4414 18.9375V28.9375C84.9643 28.9375 89.4414 24.4603 89.4414 18.9375H79.4414ZM79.4414 10.2578V0.257812C73.9186 0.257812 69.4414 4.73496 69.4414 10.2578H79.4414ZM86.3164 34.4922H96.3164C96.3164 28.9693 91.8393 24.4922 86.3164 24.4922V34.4922ZM86.3164 49.6602V59.6602C91.8393 59.6602 96.3164 55.183 96.3164 49.6602H86.3164ZM59.1602 49.6602H49.1602C49.1602 55.183 53.6373 59.6602 59.1602 59.6602V49.6602ZM59.1602 34.4922V24.4922C53.6373 24.4922 49.1602 28.9693 49.1602 34.4922H59.1602ZM66.0781 39.9062V29.9062C60.5553 29.9062 56.0781 34.3834 56.0781 39.9062H66.0781ZM66.0781 44.1602H56.0781C56.0781 49.683 60.5553 54.1602 66.0781 54.1602V44.1602ZM79.6133 44.1602V54.1602C85.1361 54.1602 89.6133 49.683 89.6133 44.1602H79.6133ZM79.6133 39.9062H89.6133C89.6133 34.3834 85.1361 29.9062 79.6133 29.9062V39.9062ZM75.5312 11.9766H85.5312C85.5312 6.45372 81.0541 1.97656 75.5312 1.97656V11.9766ZM75.5312 17.4336V27.4336C81.0541 27.4336 85.5312 22.9564 85.5312 17.4336L75.5312 17.4336ZM68.3555 17.4336V7.43359C65.5416 7.43359 62.8579 8.61915 60.9629 10.6994C59.0679 12.7796 58.1371 15.5619 58.3988 18.3636L68.3555 17.4336ZM76.9492 27.4023L85.482 32.6168C87.0741 30.0116 87.3888 26.8218 86.3365 23.9557C85.2842 21.0896 82.9801 18.8613 80.0805 17.9052L76.9492 27.4023ZM73.6406 32.8164L70.6224 42.3501C75.0079 43.7384 79.7748 41.956 82.1734 38.0309L73.6406 32.8164ZM64.7891 25.6406L73.6255 20.9591C71.862 17.6304 68.3775 15.5752 64.6111 15.6422C60.8447 15.7093 57.4355 17.8872 55.7916 21.2766L64.7891 25.6406ZM55.5508 33.418L47.1694 38.8725C49.5876 42.5883 54.1637 44.2684 58.4118 43L55.5508 33.418ZM52.0273 28.0039L49.0911 18.4447C46.0905 19.3664 43.6967 21.6435 42.6265 24.5945C41.5563 27.5454 41.9338 30.8276 43.6459 33.4585L52.0273 28.0039ZM61.1367 17.4336L71.082 18.4779C71.378 15.6594 70.4642 12.8478 68.5678 10.7419C66.6715 8.636 63.9706 7.43359 61.1367 7.43359V17.4336ZM53.918 17.4336H43.918C43.918 22.9564 48.3951 27.4336 53.918 27.4336V17.4336ZM53.918 11.9766V1.97656C48.3951 1.97656 43.918 6.45372 43.918 11.9766L53.918 11.9766ZM86.3164 10.2578H76.3164V33.1172H86.3164H96.3164V10.2578H86.3164ZM86.3164 33.1172V23.1172H79.4414V33.1172V43.1172H86.3164V33.1172ZM79.4414 33.1172H89.4414V24.5234H79.4414L69.4414 24.5234V33.1172H79.4414ZM79.4414 24.5234V14.5234L74.2852 14.5234V24.5234V34.5234H79.4414V24.5234ZM74.2852 24.5234L84.2852 24.5234V18.9375L74.2852 18.9375H64.2852V24.5234H74.2852ZM74.2852 18.9375V28.9375H79.4414V18.9375V8.9375H74.2852V18.9375ZM79.4414 18.9375H89.4414V10.2578H79.4414H69.4414V18.9375L79.4414 18.9375ZM79.4414 10.2578V20.2578H86.3164V10.2578V0.257812L79.4414 0.257812V10.2578ZM86.3164 34.4922H76.3164V49.6602H86.3164H96.3164V34.4922H86.3164ZM86.3164 49.6602V39.6602H59.1602V49.6602V59.6602H86.3164V49.6602ZM59.1602 49.6602H69.1602V34.4922H59.1602H49.1602V49.6602H59.1602ZM59.1602 34.4922V44.4922H86.3164V34.4922V24.4922L59.1602 24.4922V34.4922ZM66.0781 39.9062H56.0781V44.1602H66.0781H76.0781V39.9062H66.0781ZM66.0781 44.1602V54.1602H79.6133V44.1602V34.1602H66.0781V44.1602ZM79.6133 44.1602H89.6133V39.9062H79.6133H69.6133V44.1602H79.6133ZM79.6133 39.9062V29.9062H66.0781V39.9062V49.9062H79.6133V39.9062ZM75.5312 11.9766H65.5312V17.4336H75.5312L85.5312 17.4336V11.9766H75.5312ZM75.5312 17.4336V7.43359H68.3555V17.4336V27.4336H75.5312V17.4336ZM68.3555 17.4336L58.3988 18.3636C59.1128 26.0077 63.9026 33.6303 73.8179 36.8994L76.9492 27.4023L80.0805 17.9052C79.4077 17.6834 79.0105 17.4584 78.7968 17.3125C78.5885 17.1701 78.503 17.0683 78.4735 17.0301C78.4324 16.9771 78.344 16.845 78.3121 16.5036L68.3555 17.4336ZM76.9492 27.4023L68.4164 22.1878L65.1078 27.6019L73.6406 32.8164L82.1734 38.0309L85.482 32.6168L76.9492 27.4023ZM73.6406 32.8164L76.6588 23.2828C74.8767 22.7186 74.1126 21.8785 73.6255 20.9591L64.7891 25.6406L55.9526 30.3222C58.903 35.891 63.8537 40.2072 70.6224 42.3501L73.6406 32.8164ZM64.7891 25.6406L55.7916 21.2766C55.2031 22.4899 54.3827 23.3305 52.6898 23.836L55.5508 33.418L58.4118 43C65.7853 40.7984 70.8946 35.9672 73.7866 30.0047L64.7891 25.6406ZM55.5508 33.418L63.9322 27.9634L60.4087 22.5493L52.0273 28.0039L43.6459 33.4585L47.1694 38.8725L55.5508 33.418ZM52.0273 28.0039L54.9636 37.5631C59.8676 36.0568 63.8642 33.3871 66.6988 29.7032C69.4814 26.0869 70.705 22.0683 71.082 18.4779L61.1367 17.4336L51.1914 16.3893C51.1172 17.0957 50.9337 17.3955 50.848 17.5068C50.7991 17.5704 50.6992 17.6842 50.4786 17.8319C50.2509 17.9844 49.8239 18.2196 49.0911 18.4447L52.0273 28.0039ZM61.1367 17.4336V7.43359H53.918V17.4336V27.4336H61.1367V17.4336ZM53.918 17.4336H63.918V11.9766H53.918L43.918 11.9766V17.4336H53.918ZM53.918 11.9766V21.9766H75.5312V11.9766V1.97656L53.918 1.97656V11.9766ZM123.355 17.4766L133.355 17.5746C133.356 17.5089 133.356 17.4432 133.355 17.3776L123.355 17.4766ZM93.9219 17.4766L103.921 17.5746C103.922 17.5089 103.922 17.4432 103.921 17.3776L93.9219 17.4766ZM108.66 19.2383L108.58 29.238C108.633 29.2384 108.686 29.2384 108.74 29.238L108.66 19.2383ZM126.793 25.5547H136.793C136.793 20.0318 132.316 15.5547 126.793 15.5547V25.5547ZM126.793 31.0117V41.0117C132.316 41.0117 136.793 36.5346 136.793 31.0117H126.793ZM90.5273 31.0117H80.5273C80.5273 36.5346 85.0045 41.0117 90.5273 41.0117V31.0117ZM90.5273 25.5547V15.5547C85.0045 15.5547 80.5273 20.0318 80.5273 25.5547H90.5273ZM122.496 32.5156H132.496C132.496 26.9928 128.019 22.5156 122.496 22.5156V32.5156ZM122.496 43.4727V53.4727C128.019 53.4727 132.496 48.9955 132.496 43.4727H122.496ZM101.312 43.4727V33.4727C95.7896 33.4727 91.3125 37.9498 91.3125 43.4727H101.312ZM101.312 44.7617H91.3125C91.3125 50.2846 95.7896 54.7617 101.312 54.7617V44.7617ZM123.441 44.7617H133.441C133.441 39.2389 128.964 34.7617 123.441 34.7617V44.7617ZM123.441 49.832V59.832C128.964 59.832 133.441 55.3549 133.441 49.832H123.441ZM94.5664 49.832H84.5664C84.5664 55.3549 89.0436 59.832 94.5664 59.832V49.832ZM94.5664 38.7461V28.7461C89.0436 28.7461 84.5664 33.2232 84.5664 38.7461H94.5664ZM115.707 38.7461V48.7461C121.23 48.7461 125.707 44.2689 125.707 38.7461H115.707ZM115.707 37.543H125.707C125.707 32.0201 121.23 27.543 115.707 27.543V37.543ZM94.6094 37.543H84.6094C84.6094 43.0658 89.0865 47.543 94.6094 47.543V37.543ZM94.6094 32.5156V22.5156C89.0865 22.5156 84.6094 26.9928 84.6094 32.5156H94.6094ZM108.66 10.7734V20.7734C110.589 20.7734 112.128 20.897 113.306 21.0853C114.512 21.2778 115.142 21.5068 115.364 21.6072C115.594 21.7116 115.086 21.5382 114.478 20.7628C113.77 19.8581 113.367 18.6866 113.356 17.5756L123.355 17.4766L133.355 17.3776C133.282 10.0439 128.332 5.52457 123.613 3.38788C119.226 1.40137 113.914 0.773437 108.66 0.773437V10.7734ZM123.355 17.4766L113.356 17.3785C113.367 16.3019 113.755 15.1464 114.457 14.2429C115.061 13.4662 115.57 13.2894 115.347 13.3908C115.131 13.4893 114.506 13.7181 113.303 13.9107C112.127 14.099 110.589 14.2227 108.66 14.2227V24.2227V34.2227C113.911 34.2227 119.233 33.5957 123.629 31.5955C128.383 29.4327 133.283 24.8877 133.355 17.5746L123.355 17.4766ZM108.66 24.2227V14.2227C106.719 14.2227 105.164 14.0988 103.97 13.909C102.748 13.7146 102.107 13.4831 101.881 13.3809C101.643 13.2733 102.175 13.4539 102.8 14.2626C103.534 15.2122 103.933 16.4346 103.921 17.5746L93.9219 17.4766L83.9224 17.3785C83.8489 24.866 88.905 29.4637 93.6432 31.6055C98.0489 33.5969 103.395 34.2227 108.66 34.2227V24.2227ZM93.9219 17.4766L103.921 17.3776C103.933 18.553 103.519 19.7923 102.779 20.743C102.15 21.5505 101.62 21.7276 101.865 21.6171C102.096 21.513 102.742 21.2813 103.966 21.087C105.163 20.8972 106.719 20.7734 108.66 20.7734V10.7734V0.773437C103.392 0.773437 98.0557 1.4001 93.6594 3.37798C88.9579 5.49313 83.848 10.0654 83.9224 17.5756L93.9219 17.4766ZM108.66 15.7578V5.75781C105.912 5.75781 103.042 5.86653 100.634 6.42283C99.4786 6.68996 97.4355 7.27045 95.4976 8.74784C93.123 10.5581 91.1406 13.594 91.1406 17.4766H101.141H111.141C111.141 18.8821 110.809 20.3776 110.058 21.7795C109.331 23.1379 108.395 24.0648 107.623 24.653C106.876 25.2222 106.218 25.5273 105.848 25.6766C105.466 25.8307 105.204 25.8938 105.138 25.9092C105.034 25.9332 105.233 25.8808 105.919 25.8326C106.567 25.7872 107.459 25.7578 108.66 25.7578V15.7578ZM101.141 17.4766H91.1406C91.1406 20.7818 92.5785 23.9638 95.2799 26.1439C97.4025 27.857 99.686 28.4365 100.841 28.6779C103.197 29.1699 106.105 29.2182 108.58 29.238L108.66 19.2383L108.74 9.2386C107.444 9.22823 106.49 9.20544 105.773 9.16566C105.005 9.12307 104.811 9.07535 104.931 9.10044C105.012 9.11742 105.33 9.18705 105.784 9.36652C106.232 9.54372 107 9.90189 107.841 10.5803C108.729 11.2972 109.64 12.3283 110.29 13.7077C110.936 15.0794 111.141 16.4054 111.141 17.4766H101.141ZM108.66 19.2383L108.74 29.238C111.236 29.2182 114.151 29.1698 116.508 28.6797C117.663 28.4395 119.948 27.8625 122.074 26.1511C124.782 23.9703 126.223 20.7842 126.223 17.4766H116.223H106.223C106.223 16.4054 106.427 15.0776 107.076 13.7035C107.727 12.3215 108.641 11.2896 109.531 10.5731C110.373 9.89526 111.142 9.53827 111.588 9.36222C112.04 9.18384 112.357 9.11504 112.436 9.09864C112.551 9.07464 112.352 9.12274 111.576 9.16547C110.851 9.2054 109.888 9.22822 108.581 9.2386L108.66 19.2383ZM116.223 17.4766H126.223C126.223 13.5907 124.237 10.5518 121.856 8.74098C119.915 7.26499 117.87 6.68659 116.714 6.42065C114.305 5.86644 111.427 5.75781 108.66 5.75781V15.7578V25.7578C109.873 25.7578 110.775 25.7873 111.43 25.833C112.124 25.8813 112.329 25.9343 112.229 25.9114C112.165 25.8966 111.905 25.8342 111.524 25.681C111.156 25.5327 110.496 25.2286 109.749 24.6599C108.976 24.072 108.037 23.1446 107.307 21.7839C106.554 20.3796 106.223 18.8823 106.223 17.4766H116.223ZM126.793 25.5547H116.793V31.0117H126.793H136.793V25.5547H126.793ZM126.793 31.0117V21.0117H90.5273V31.0117V41.0117H126.793V31.0117ZM90.5273 31.0117H100.527V25.5547H90.5273H80.5273V31.0117H90.5273ZM90.5273 25.5547V35.5547H126.793V25.5547V15.5547H90.5273V25.5547ZM122.496 32.5156H112.496V43.4727H122.496H132.496V32.5156H122.496ZM122.496 43.4727V33.4727H101.312V43.4727V53.4727H122.496V43.4727ZM101.312 43.4727H91.3125V44.7617H101.312H111.312V43.4727H101.312ZM101.312 44.7617V54.7617H123.441V44.7617V34.7617H101.312V44.7617ZM123.441 44.7617H113.441V49.832H123.441H133.441V44.7617H123.441ZM123.441 49.832V39.832H94.5664V49.832V59.832H123.441V49.832ZM94.5664 49.832H104.566V38.7461H94.5664H84.5664V49.832H94.5664ZM94.5664 38.7461V48.7461H115.707V38.7461V28.7461H94.5664V38.7461ZM115.707 38.7461H125.707V37.543H115.707H105.707V38.7461H115.707ZM115.707 37.543V27.543H94.6094V37.543V47.543H115.707V37.543ZM94.6094 37.543H104.609V32.5156H94.6094H84.6094V37.543H94.6094ZM94.6094 32.5156V42.5156H122.496V32.5156V22.5156H94.6094V32.5156ZM160.738 11.8906H170.738C170.738 6.36778 166.261 1.89062 160.738 1.89062V11.8906ZM160.738 17.2187V27.2187C166.261 27.2187 170.738 22.7416 170.738 17.2187H160.738ZM153.648 17.2187V7.21875C150.641 7.21875 147.794 8.57201 145.895 10.9036C143.996 13.2353 143.247 16.2977 143.855 19.2426L153.648 17.2187ZM162.371 25.125L170.94 30.2802C172.556 27.5934 172.819 24.304 171.649 21.3947C170.48 18.4854 168.013 16.2933 164.987 15.4731L162.371 25.125ZM159.191 30.4102L156.721 40.1003C160.999 41.1906 165.485 39.3476 167.76 35.5654L159.191 30.4102ZM150.082 23.8789L158.726 18.8516C156.893 15.6985 153.488 13.7939 149.841 13.8818C146.194 13.9697 142.885 16.0362 141.205 19.2741L150.082 23.8789ZM140.5 31.2266L132.016 36.5205C134.327 40.2231 138.771 41.9996 142.997 40.9097L140.5 31.2266ZM137.148 25.8555L134.535 16.203C131.48 17.0301 128.998 19.2542 127.841 22.1997C126.684 25.1453 126.989 28.4646 128.665 31.1494L137.148 25.8555ZM146.258 17.2187L156.084 19.0761C156.637 16.1505 155.857 13.1306 153.958 10.8381C152.058 8.54551 149.235 7.21875 146.258 7.21875V17.2187ZM138.953 17.2187H128.953C128.953 22.7416 133.43 27.2187 138.953 27.2187V17.2187ZM138.953 11.8906V1.89062C133.43 1.89062 128.953 6.36778 128.953 11.8906H138.953ZM169.934 10.2578L179.934 10.2578C179.934 4.73496 175.456 0.257812 169.934 0.257812V10.2578ZM169.934 17.6055H159.934C159.934 23.1283 164.411 27.6055 169.934 27.6055V17.6055ZM174.875 17.6055H184.875C184.875 12.0826 180.398 7.60547 174.875 7.60547V17.6055ZM174.875 23.1055V33.1055C180.398 33.1055 184.875 28.6283 184.875 23.1055H174.875ZM169.934 23.1055V13.1055C164.411 13.1055 159.934 17.5826 159.934 23.1055H169.934ZM169.934 30.582V40.582C175.456 40.582 179.934 36.1049 179.934 30.582H169.934ZM163.016 30.582H153.016C153.016 36.1049 157.493 40.582 163.016 40.582V30.582ZM163.016 10.2578V0.257812C157.493 0.257812 153.016 4.73496 153.016 10.2578H163.016ZM169.934 31.9141H179.934C179.934 26.3912 175.456 21.9141 169.934 21.9141V31.9141ZM169.934 43.043V53.043C175.456 53.043 179.934 48.5658 179.934 43.043H169.934ZM149.781 43.043V33.043C144.258 33.043 139.781 37.5201 139.781 43.043L149.781 43.043ZM149.781 44.4609L139.781 44.4609C139.781 49.9838 144.258 54.4609 149.781 54.4609V44.4609ZM170.879 44.4609H180.879C180.879 38.9381 176.402 34.4609 170.879 34.4609V44.4609ZM170.879 49.6172V59.6172C176.402 59.6172 180.879 55.14 180.879 49.6172H170.879ZM142.949 49.6172L132.949 49.6172C132.949 55.14 137.426 59.6172 142.949 59.6172V49.6172ZM142.949 38.2734V28.2734C137.426 28.2734 132.949 32.7506 132.949 38.2734L142.949 38.2734ZM163.059 38.2734V48.2734C168.581 48.2734 173.059 43.7963 173.059 38.2734H163.059ZM163.059 37.0273H173.059C173.059 31.5045 168.581 27.0273 163.059 27.0273V37.0273ZM142.949 37.0273L132.949 37.0273C132.949 42.5502 137.426 47.0273 142.949 47.0273V37.0273ZM142.949 31.9141V21.9141C137.426 21.9141 132.949 26.3912 132.949 31.9141L142.949 31.9141ZM160.738 11.8906H150.738V17.2187H160.738H170.738V11.8906H160.738ZM160.738 17.2187V7.21875H153.648V17.2187V27.2187H160.738V17.2187ZM153.648 17.2187L143.855 19.2426C145.39 26.6685 151.02 32.4095 159.756 34.7769L162.371 25.125L164.987 15.4731C163.507 15.0723 163.13 14.6482 163.192 14.71C163.214 14.731 163.276 14.8027 163.339 14.921C163.399 15.0344 163.429 15.1337 163.441 15.1949L153.648 17.2187ZM162.371 25.125L153.802 19.9698L150.623 25.255L159.191 30.4102L167.76 35.5654L170.94 30.2802L162.371 25.125ZM159.191 30.4102L161.661 20.72C160.613 20.4528 159.977 20.0997 159.594 19.8171C159.216 19.5377 158.942 19.2226 158.726 18.8516L150.082 23.8789L141.438 28.9062C144.626 34.388 149.891 38.3592 156.721 40.1003L159.191 30.4102ZM150.082 23.8789L141.205 19.2741C140.909 19.8444 140.573 20.2426 140.184 20.5518C139.794 20.8608 139.14 21.2502 138.003 21.5434L140.5 31.2266L142.997 40.9097C150.481 38.9796 155.86 34.4581 158.959 28.4837L150.082 23.8789ZM140.5 31.2266L148.984 25.9327L145.632 20.5616L137.148 25.8555L128.665 31.1494L132.016 36.5205L140.5 31.2266ZM137.148 25.8555L139.762 35.5079C149.163 32.9624 154.659 26.6122 156.084 19.0761L146.258 17.2187L136.432 15.3614C136.421 15.4192 136.413 15.4221 136.428 15.3914C136.447 15.3542 136.466 15.3346 136.456 15.3448C136.445 15.3559 136.345 15.4596 136.074 15.6126C135.797 15.7693 135.311 15.9928 134.535 16.203L137.148 25.8555ZM146.258 17.2187V7.21875H138.953V17.2187V27.2187H146.258V17.2187ZM138.953 17.2187H148.953V11.8906H138.953H128.953V17.2187H138.953ZM138.953 11.8906V21.8906H160.738V11.8906V1.89062L138.953 1.89062V11.8906ZM169.934 10.2578H159.934V17.6055H169.934H179.934V10.2578L169.934 10.2578ZM169.934 17.6055V27.6055H174.875V17.6055V7.60547L169.934 7.60547V17.6055ZM174.875 17.6055H164.875V23.1055H174.875H184.875V17.6055H174.875ZM174.875 23.1055V13.1055H169.934V23.1055V33.1055H174.875V23.1055ZM169.934 23.1055H159.934V30.582H169.934H179.934V23.1055H169.934ZM169.934 30.582V20.582H163.016V30.582V40.582H169.934V30.582ZM163.016 30.582H173.016V10.2578H163.016H153.016V30.582H163.016ZM163.016 10.2578V20.2578H169.934V10.2578V0.257812L163.016 0.257812V10.2578ZM169.934 31.9141H159.934V43.043H169.934H179.934V31.9141H169.934ZM169.934 43.043V33.043H149.781V43.043V53.043H169.934V43.043ZM149.781 43.043L139.781 43.043V44.4609L149.781 44.4609H159.781V43.043H149.781ZM149.781 44.4609V54.4609H170.879V44.4609V34.4609H149.781V44.4609ZM170.879 44.4609H160.879V49.6172H170.879H180.879V44.4609H170.879ZM170.879 49.6172V39.6172H142.949V49.6172V59.6172H170.879V49.6172ZM142.949 49.6172H152.949V38.2734H142.949L132.949 38.2734V49.6172L142.949 49.6172ZM142.949 38.2734V48.2734H163.059V38.2734V28.2734H142.949V38.2734ZM163.059 38.2734H173.059V37.0273H163.059H153.059V38.2734H163.059ZM163.059 37.0273V27.0273H142.949V37.0273V47.0273H163.059V37.0273ZM142.949 37.0273H152.949V31.9141H142.949L132.949 31.9141V37.0273L142.949 37.0273ZM142.949 31.9141V41.9141H169.934V31.9141V21.9141H142.949V31.9141ZM217.973 10.2578H227.973C227.973 4.73496 223.495 0.257812 217.973 0.257812V10.2578ZM217.973 19.1523H207.973C207.973 24.6752 212.45 29.1523 217.973 29.1523V19.1523ZM222.527 19.1523H232.527C232.527 13.6295 228.05 9.15234 222.527 9.15234V19.1523ZM222.527 24.8672V34.8672C228.05 34.8672 232.527 30.39 232.527 24.8672H222.527ZM217.973 24.8672V14.8672C212.45 14.8672 207.973 19.3443 207.973 24.8672H217.973ZM217.973 33.6328V43.6328C223.495 43.6328 227.973 39.1557 227.973 33.6328H217.973ZM211.098 33.6328H201.098C201.098 39.1557 205.575 43.6328 211.098 43.6328V33.6328ZM211.098 10.2578V0.257812C205.575 0.257812 201.098 4.73496 201.098 10.2578H211.098ZM217.973 34.793H227.973C227.973 29.2701 223.495 24.793 217.973 24.793V34.793ZM217.973 44.2891V54.2891C223.495 54.2891 227.973 49.8119 227.973 44.2891H217.973ZM197.348 44.2891V34.2891C191.825 34.2891 187.348 38.7662 187.348 44.2891H197.348ZM197.348 45.4062H187.348C187.348 50.9291 191.825 55.4062 197.348 55.4062V45.4062ZM219.176 45.4062H229.176C229.176 39.8834 224.699 35.4062 219.176 35.4062V45.4062ZM219.176 49.832V59.832C224.699 59.832 229.176 55.3549 229.176 49.832H219.176ZM190.43 49.832H180.43C180.43 55.3549 184.907 59.832 190.43 59.832V49.832ZM190.43 40.25V30.25C184.907 30.25 180.43 34.7272 180.43 40.25H190.43ZM211.098 40.25V50.25C216.62 50.25 221.098 45.7728 221.098 40.25H211.098ZM211.098 39.2617H221.098C221.098 33.7389 216.62 29.2617 211.098 29.2617V39.2617ZM190.43 39.2617H180.43C180.43 44.7846 184.907 49.2617 190.43 49.2617V39.2617ZM190.43 34.793V24.793C184.907 24.793 180.43 29.2701 180.43 34.793H190.43ZM185.145 28.9492L185.224 18.9495C182.3 18.9263 179.512 20.1842 177.595 22.3919C175.677 24.5997 174.822 27.5361 175.254 30.4281L185.145 28.9492ZM194.082 28.9062L194.285 38.9042C199.727 38.7939 204.082 34.3501 204.082 28.9062H194.082ZM194.082 27.5742H204.082C204.082 22.6088 200.439 18.3954 195.525 17.6789L194.082 27.5742ZM200.957 27.5742L199.381 17.6992C194.528 18.4736 190.957 22.6597 190.957 27.5742H200.957ZM200.957 28.6484H190.957C190.957 31.3892 192.082 34.0098 194.069 35.8977C196.056 37.7856 198.73 38.7753 201.467 38.6354L200.957 28.6484ZM209.637 27.918L219.573 26.7912C219.272 24.1395 217.924 21.718 215.829 20.0655C213.733 18.4131 211.064 17.6669 208.415 17.9929L209.637 27.918ZM210.109 32.0859L211.778 41.9457C217.014 41.0597 220.644 36.2357 220.046 30.9591L210.109 32.0859ZM185.832 33.5469L175.942 35.0258C176.674 39.923 180.88 43.5469 185.832 43.5469V33.5469ZM208.777 12.4492H218.777C218.777 6.92637 214.3 2.44922 208.777 2.44922V12.4492ZM208.777 16.9609V26.9609C214.3 26.9609 218.777 22.4838 218.777 16.9609H208.777ZM186.219 16.9609H176.219C176.219 22.4838 180.696 26.9609 186.219 26.9609V16.9609ZM186.219 12.4492V2.44922C180.696 2.44922 176.219 6.92637 176.219 12.4492H186.219ZM194.082 12.4492V22.4492C199.605 22.4492 204.082 17.9721 204.082 12.4492H194.082ZM194.082 10V0C188.559 0 184.082 4.47715 184.082 10H194.082ZM200.957 10H210.957C210.957 4.47715 206.48 0 200.957 0V10ZM200.957 12.4492H190.957C190.957 17.9721 195.434 22.4492 200.957 22.4492V12.4492ZM200.871 22.4609L210.857 22.9865C210.877 22.6158 210.876 22.2443 210.854 21.8737L200.871 22.4609ZM217.973 10.2578H207.973V19.1523H217.973H227.973V10.2578H217.973ZM217.973 19.1523V29.1523H222.527V19.1523V9.15234H217.973V19.1523ZM222.527 19.1523H212.527V24.8672H222.527H232.527V19.1523H222.527ZM222.527 24.8672V14.8672H217.973V24.8672V34.8672H222.527V24.8672ZM217.973 24.8672H207.973V33.6328H217.973H227.973V24.8672H217.973ZM217.973 33.6328V23.6328H211.098V33.6328V43.6328H217.973V33.6328ZM211.098 33.6328H221.098V10.2578H211.098H201.098V33.6328H211.098ZM211.098 10.2578V20.2578H217.973V10.2578V0.257812L211.098 0.257812V10.2578ZM217.973 34.793H207.973V44.2891H217.973H227.973V34.793H217.973ZM217.973 44.2891V34.2891H197.348V44.2891V54.2891H217.973V44.2891ZM197.348 44.2891H187.348V45.4062H197.348H207.348V44.2891H197.348ZM197.348 45.4062V55.4062H219.176V45.4062V35.4062H197.348V45.4062ZM219.176 45.4062H209.176V49.832H219.176H229.176V45.4062H219.176ZM219.176 49.832V39.832H190.43V49.832V59.832H219.176V49.832ZM190.43 49.832H200.43V40.25H190.43H180.43V49.832H190.43ZM190.43 40.25V50.25H211.098V40.25V30.25H190.43V40.25ZM211.098 40.25H221.098V39.2617H211.098H201.098V40.25H211.098ZM211.098 39.2617V29.2617H190.43V39.2617V49.2617H211.098V39.2617ZM190.43 39.2617H200.43V34.793H190.43H180.43V39.2617H190.43ZM190.43 34.793V44.793H217.973V34.793V24.793L190.43 24.793V34.793ZM185.145 28.9492L185.065 38.9489C187.829 38.9708 190.98 38.9712 194.285 38.9042L194.082 28.9062L193.879 18.9083C190.825 18.9702 187.874 18.9706 185.224 18.9495L185.145 28.9492ZM194.082 28.9062H204.082V27.5742H194.082H184.082V28.9062H194.082ZM194.082 27.5742L195.525 17.6789C194.373 17.5109 194.549 17.3117 195.251 17.8414C195.666 18.1551 196.266 18.7322 196.75 19.6449C197.251 20.5876 197.465 21.5816 197.465 22.4609H187.465H177.465C177.465 27.3511 179.878 31.2961 183.202 33.8051C186.182 36.0535 189.666 37.0359 192.639 37.4695L194.082 27.5742ZM187.465 22.4609H197.465C197.465 23.859 196.991 25.2197 196.21 26.2746C195.51 27.2219 194.808 27.601 194.655 27.6777C194.493 27.7583 194.615 27.6693 195.16 27.5683C195.683 27.4714 196.451 27.3906 197.477 27.3906V17.3906V7.39062C193.607 7.39062 189.373 7.95776 185.71 9.78913C181.828 11.7301 177.465 15.8664 177.465 22.4609H187.465ZM197.477 17.3906V27.3906C198.488 27.3906 199.245 27.4708 199.759 27.5667C200.296 27.6666 200.413 27.7541 200.25 27.6721C200.094 27.5942 199.395 27.2144 198.696 26.269C197.919 25.2167 197.445 23.8585 197.445 22.4609L207.445 22.4609H217.445C217.445 15.8725 213.089 11.7371 209.216 9.79467C205.559 7.96024 201.333 7.39062 197.477 7.39062V17.3906ZM207.445 22.4609L197.445 22.4609C197.445 21.5914 197.655 20.6058 198.148 19.6677C198.625 18.759 199.218 18.1805 199.631 17.8636C200.327 17.3295 200.512 17.5187 199.381 17.6992L200.957 27.5742L202.533 37.4493C205.441 36.9852 208.87 35.982 211.801 33.7345C215.076 31.2232 217.445 27.3062 217.445 22.4609H207.445ZM200.957 27.5742H190.957V28.6484H200.957L210.957 28.6484V27.5742L200.957 27.5742ZM200.957 28.6484L201.467 38.6354C204.596 38.4756 207.782 38.2217 210.858 37.8431L209.637 27.918L208.415 17.9929C205.906 18.3017 203.205 18.5205 200.447 18.6615L200.957 28.6484ZM209.637 27.918L199.7 29.0448L200.173 33.2127L210.109 32.0859L220.046 30.9591L219.573 26.7912L209.637 27.918ZM210.109 32.0859L208.441 22.2261C201.006 23.4843 192.785 23.5469 185.832 23.5469V33.5469V43.5469C192.629 43.5469 202.455 43.5235 211.778 41.9457L210.109 32.0859ZM185.832 33.5469L195.722 32.068L195.035 27.4703L185.145 28.9492L175.254 30.4281L175.942 35.0258L185.832 33.5469ZM208.777 12.4492H198.777V16.9609L208.777 16.9609H218.777V12.4492H208.777ZM208.777 16.9609V6.96094H186.219V16.9609V26.9609L208.777 26.9609V16.9609ZM186.219 16.9609H196.219V12.4492H186.219H176.219V16.9609H186.219ZM186.219 12.4492V22.4492H194.082V12.4492V2.44922L186.219 2.44922V12.4492ZM194.082 12.4492H204.082V10H194.082H184.082V12.4492H194.082ZM194.082 10V20H200.957V10V0L194.082 0V10ZM200.957 10H190.957V12.4492H200.957H210.957V10H200.957ZM200.957 12.4492V22.4492L208.777 22.4492V12.4492V2.44922H200.957V12.4492ZM197.477 21.5586V11.5586C196.402 11.5586 194.466 11.5689 192.629 11.9981C191.722 12.2098 189.773 12.7498 187.9 14.2914C185.568 16.2112 184.039 19.1378 184.039 22.4609H194.039H204.039C204.039 23.7361 203.775 25.1652 203.092 26.5749C202.415 27.9711 201.492 29.0073 200.612 29.7321C199.028 31.0361 197.51 31.3961 197.179 31.4736C196.491 31.6343 196.274 31.5586 197.477 31.5586V21.5586ZM194.039 22.4609H184.039C184.039 25.3567 185.195 28.0794 187.218 30.084C188.952 31.8023 190.864 32.5444 191.957 32.8815C194.06 33.5303 196.204 33.5781 197.477 33.5781V23.5781V13.5781C196.471 13.5781 196.897 13.4756 197.851 13.7698C198.369 13.9297 199.848 14.4435 201.294 15.8759C203.029 17.5944 204.039 19.9734 204.039 22.4609H194.039ZM197.477 23.5781V33.5781C198.737 33.5781 200.879 33.5302 202.994 32.8656C204.113 32.5138 205.957 31.7701 207.642 30.1165C209.565 28.2283 210.714 25.7009 210.857 22.9865L200.871 22.4609L190.885 21.9353C191.006 19.6292 192 17.4455 193.632 15.8434C195.025 14.4757 196.442 13.9603 196.997 13.7857C197.984 13.4757 198.451 13.5781 197.477 13.5781V23.5781ZM200.871 22.4609L210.854 21.8737C210.671 18.7633 209.167 16.0648 206.957 14.2627C205.135 12.7759 203.25 12.2312 202.312 12.0078C200.465 11.5681 198.534 11.5586 197.477 11.5586V21.5586V31.5586C198.654 31.5586 198.398 31.635 197.679 31.4639C197.305 31.3748 195.847 31.01 194.316 29.7609C192.398 28.1964 191.05 25.7934 190.888 23.0482L200.871 22.4609ZM260.039 28.6055H270.039C270.039 23.0826 265.562 18.6055 260.039 18.6055V28.6055ZM260.039 34.0625V44.0625C265.562 44.0625 270.039 39.5853 270.039 34.0625H260.039ZM223.773 34.0625H213.773C213.773 39.5853 218.251 44.0625 223.773 44.0625V34.0625ZM223.773 28.6055V18.6055C218.251 18.6055 213.773 23.0826 213.773 28.6055H223.773ZM231.422 28.6055V38.6055C236.945 38.6055 241.422 34.1283 241.422 28.6055H231.422ZM231.422 24.3516H241.422C241.422 20.5066 239.217 17.0022 235.751 15.3374L231.422 24.3516ZM227.168 18.5937L237.168 18.68C237.168 18.6217 237.168 18.5635 237.168 18.5053L227.168 18.5937ZM241.906 10.7305L241.955 0.730587C241.923 0.73043 241.89 0.730429 241.858 0.730584L241.906 10.7305ZM256.602 18.5937L266.601 18.6778C266.602 18.6203 266.602 18.5628 266.601 18.5053L256.602 18.5937ZM252.09 24.4375L247.921 15.3479C244.368 16.9776 242.09 20.5284 242.09 24.4375H252.09ZM252.09 28.6055H242.09C242.09 34.1283 246.567 38.6055 252.09 38.6055V28.6055ZM255.742 42.7422L265.742 42.8331C265.742 42.7722 265.742 42.7113 265.742 42.6504L255.742 42.7422ZM241.82 40.6367L241.91 30.6371C241.851 30.6366 241.792 30.6366 241.733 30.6371L241.82 40.6367ZM234.816 42.7422L244.813 43.0199C244.818 42.8348 244.818 42.6496 244.813 42.4645L234.816 42.7422ZM234.344 18.5937L244.341 18.8376C244.345 18.677 244.345 18.5163 244.341 18.3557L234.344 18.5937ZM238.383 28.6055H228.383C228.383 34.1283 232.86 38.6055 238.383 38.6055V28.6055ZM245.215 28.6055V38.6055C250.738 38.6055 255.215 34.1283 255.215 28.6055H245.215ZM245.215 26.0703H255.215C255.215 23.2064 253.987 20.4799 251.842 18.5819C249.698 16.6838 246.842 15.7964 243.999 16.1444L245.215 26.0703ZM238.383 26.0703L239.34 16.1162C236.534 15.8464 233.745 16.7733 231.659 18.6686C229.572 20.5639 228.383 23.2517 228.383 26.0703H238.383ZM260.039 28.6055H250.039V34.0625H260.039H270.039V28.6055H260.039ZM260.039 34.0625V24.0625H223.773V34.0625V44.0625H260.039V34.0625ZM223.773 34.0625H233.773V28.6055H223.773H213.773V34.0625H223.773ZM223.773 28.6055V38.6055H231.422V28.6055V18.6055H223.773V28.6055ZM231.422 28.6055H241.422V24.3516H231.422H221.422V28.6055H231.422ZM231.422 24.3516L235.751 15.3374C235.422 15.1792 235.778 15.2701 236.256 15.9051C236.505 16.2363 236.751 16.6721 236.927 17.2C237.104 17.73 237.171 18.2404 237.168 18.68L227.168 18.5937L217.168 18.5075C217.102 26.1627 222.202 31.0168 227.092 33.3657L231.422 24.3516ZM227.168 18.5937L237.168 18.5053C237.176 19.4389 236.862 20.3896 236.354 21.1055C235.917 21.7228 235.572 21.8409 235.825 21.7074C236.074 21.5764 236.686 21.32 237.783 21.1012C238.86 20.8865 240.251 20.7385 241.954 20.7304L241.906 10.7305L241.858 0.730584C236.501 0.75634 231.03 1.63137 226.513 4.00744C221.769 6.50361 217.104 11.3733 217.168 18.6822L227.168 18.5937ZM241.906 10.7305L241.858 20.7304C243.534 20.7385 244.901 20.8854 245.959 21.0981C247.035 21.3146 247.638 21.5683 247.886 21.6994C248.137 21.8319 247.817 21.7247 247.4 21.1432C246.92 20.4719 246.61 19.5746 246.602 18.6822L256.602 18.5937L266.601 18.5053C266.538 11.3197 261.956 6.51289 257.228 4.01549C252.726 1.63686 247.286 0.756466 241.955 0.730587L241.906 10.7305ZM256.602 18.5937L246.602 18.5097C246.606 18.0777 246.681 17.575 246.866 17.0548C247.05 16.5372 247.301 16.1169 247.546 15.8047C248.013 15.2105 248.328 15.1611 247.921 15.3479L252.09 24.4375L256.259 33.5271C261.237 31.2438 266.536 26.451 266.601 18.6778L256.602 18.5937ZM252.09 24.4375H242.09V28.6055H252.09H262.09V24.4375H252.09ZM252.09 28.6055V38.6055H260.039V28.6055V18.6055H252.09V28.6055ZM241.82 35.4805V45.4805C243.502 45.4805 244.827 45.6075 245.819 45.7905C246.832 45.9775 247.317 46.1895 247.436 46.2509C247.545 46.3067 247.084 46.0971 246.58 45.3798C246.016 44.5768 245.75 43.6328 245.743 42.8339L255.742 42.7422L265.742 42.6504C265.678 35.7109 261.407 30.942 256.572 28.4591C252.171 26.1996 246.892 25.4805 241.82 25.4805V35.4805ZM255.742 42.7422L245.743 42.6513C245.75 41.8814 246.006 40.9427 246.574 40.1313C247.084 39.405 247.554 39.1896 247.452 39.2415C247.338 39.3001 246.855 39.5107 245.838 39.6965C244.841 39.8783 243.511 40.0039 241.82 40.0039V50.0039V60.0039C246.869 60.0039 252.149 59.302 256.556 57.0495C261.428 54.5587 265.679 49.7747 265.742 42.8331L255.742 42.7422ZM241.82 50.0039V40.0039C240.09 40.0039 238.726 39.8773 237.701 39.6926C236.653 39.5037 236.152 39.2885 236.027 39.2252C235.914 39.1676 236.398 39.3843 236.921 40.1313C237.509 40.9698 237.77 41.9433 237.77 42.7422H227.77H217.77C217.77 49.7723 222.094 54.586 226.988 57.0659C231.411 59.307 236.727 60.0039 241.82 60.0039V50.0039ZM227.77 42.7422H237.77C237.77 43.5706 237.498 44.5497 236.915 45.3798C236.397 46.1178 235.923 46.3287 236.043 46.2673C236.173 46.2012 236.676 45.9845 237.719 45.7945C238.74 45.6086 240.099 45.4805 241.82 45.4805V35.4805V25.4805C236.704 25.4805 231.39 26.1944 226.972 28.4426C222.115 30.9145 217.77 35.7133 217.77 42.7422H227.77ZM241.82 40.6367L241.733 30.6371C239.275 30.6585 236.273 30.7704 233.684 31.5154C232.353 31.8985 230.116 32.7208 228.153 34.669C225.826 36.9789 224.737 40.0147 224.82 43.0199L234.816 42.7422L244.813 42.4645C244.839 43.4328 244.701 44.6037 244.222 45.835C243.739 47.0775 243.021 48.0915 242.242 48.8643C240.816 50.2794 239.407 50.6801 239.214 50.7356C238.917 50.8212 238.934 50.7787 239.513 50.7277C240.043 50.681 240.814 50.6458 241.907 50.6363L241.82 40.6367ZM234.816 42.7422L224.82 42.4645C224.737 45.4482 225.807 48.4096 228.006 50.6856C229.9 52.6458 232.085 53.5326 233.477 53.966C236.168 54.8039 239.241 54.9336 241.82 54.9336V44.9336V34.9336C240.778 34.9336 240.056 34.8986 239.58 34.8534C239.059 34.804 239.084 34.7647 239.422 34.87C239.675 34.9489 241.033 35.3844 242.389 36.7888C243.121 37.5458 243.793 38.5272 244.247 39.7205C244.699 40.9072 244.84 42.0482 244.813 43.0199L234.816 42.7422ZM241.82 44.9336V54.9336C244.368 54.9336 247.399 54.7987 250.074 53.9738C251.451 53.5491 253.571 52.6964 255.444 50.8422C257.608 48.6984 258.824 45.815 258.824 42.7422H248.824H238.824C238.824 41.727 239.01 40.5807 239.496 39.4204C239.981 38.2614 240.662 37.3329 241.37 36.6322C242.68 35.3339 243.952 34.9323 244.18 34.8621C244.49 34.7664 244.497 34.8058 243.99 34.8544C243.525 34.899 242.823 34.9336 241.82 34.9336V44.9336ZM248.824 42.7422H258.824C258.824 39.6394 257.58 36.6878 255.293 34.5158C253.356 32.6758 251.188 31.8848 249.868 31.5086C247.293 30.7746 244.332 30.6587 241.91 30.6371L241.82 40.6367L241.731 50.6363C242.787 50.6457 243.538 50.6806 244.058 50.7269C244.623 50.7772 244.657 50.8197 244.386 50.7424C244.215 50.6938 242.896 50.3244 241.52 49.0175C240.768 48.3034 240.041 47.3454 239.525 46.1388C239.01 44.9341 238.824 43.7568 238.824 42.7422H248.824ZM241.906 16.0156V6.01562C239.163 6.01562 235.917 6.18785 233.057 7.13707C231.583 7.62641 229.419 8.57427 227.554 10.5319C225.424 12.7674 224.272 15.7169 224.347 18.8318L234.344 18.5937L244.341 18.3557C244.364 19.3351 244.212 20.4457 243.773 21.5776C243.335 22.7086 242.702 23.6266 242.035 24.3272C240.791 25.6323 239.57 26.0484 239.358 26.1188C239.071 26.2138 239.096 26.166 239.634 26.109C240.132 26.0562 240.871 26.0156 241.906 26.0156V16.0156ZM234.344 18.5937L224.347 18.3499C224.269 21.5373 225.483 24.5192 227.663 26.7366C229.553 28.6596 231.724 29.5667 233.167 30.0271C235.984 30.926 239.189 31.0859 241.906 31.0859V21.0859V11.0859C240.857 11.0859 240.101 11.0471 239.585 10.995C239.028 10.9387 238.983 10.8892 239.248 10.9739C239.428 11.0315 240.657 11.4256 241.926 12.7161C242.611 13.4138 243.275 14.3434 243.739 15.5063C244.203 16.6721 244.366 17.8218 244.341 18.8376L234.344 18.5937ZM241.906 21.0859V31.0859C244.59 31.0859 247.757 30.9208 250.558 30.0345C251.986 29.5824 254.106 28.7052 255.978 26.8713C258.126 24.7681 259.469 21.8543 259.469 18.5937H249.469H239.469C239.469 17.5402 239.672 16.3872 240.164 15.2467C240.652 14.1155 241.322 13.2315 241.986 12.5814C243.213 11.38 244.368 11.0158 244.523 10.9665C244.763 10.8907 244.701 10.9404 244.157 10.996C243.651 11.0477 242.916 11.0859 241.906 11.0859V21.0859ZM249.469 18.5937H259.469C259.469 15.4072 258.193 12.5207 256.09 10.3952C254.24 8.5259 252.125 7.60923 250.667 7.12914C247.824 6.19345 244.618 6.01562 241.906 6.01562V16.0156V26.0156C242.902 26.0156 243.62 26.0556 244.108 26.1078C244.633 26.1641 244.674 26.2122 244.414 26.1267C244.229 26.0656 243.079 25.6806 241.874 24.464C241.227 23.8098 240.587 22.9352 240.125 21.8331C239.66 20.7242 239.469 19.6094 239.469 18.5937H249.469ZM238.383 28.6055V38.6055H245.215V28.6055V18.6055H238.383V28.6055ZM245.215 28.6055H255.215V26.0703H245.215H235.215V28.6055H245.215ZM245.215 26.0703L243.999 16.1444C243.495 16.2062 242.839 16.2422 241.906 16.2422V26.2422V36.2422C243.294 36.2422 244.829 36.1923 246.43 35.9962L245.215 26.0703ZM241.906 26.2422V16.2422C241.012 16.2422 240.173 16.1963 239.34 16.1162L238.383 26.0703L237.426 36.0244C238.827 36.1592 240.308 36.2422 241.906 36.2422V26.2422ZM238.383 26.0703H228.383V28.6055H238.383H248.383V26.0703H238.383ZM293.512 10.2578L303.512 10.2578C303.512 4.73496 299.035 0.257812 293.512 0.257812V10.2578ZM293.512 25.3398H283.512C283.512 30.8627 287.989 35.3398 293.512 35.3398V25.3398ZM298.883 25.3398H308.883C308.883 19.817 304.406 15.3398 298.883 15.3398V25.3398ZM298.883 30.9687V40.9687C304.406 40.9687 308.883 36.4916 308.883 30.9687H298.883ZM293.512 30.9687V20.9687C287.989 20.9687 283.512 25.4459 283.512 30.9687H293.512ZM293.512 50.0039V60.0039C299.035 60.0039 303.512 55.5268 303.512 50.0039H293.512ZM286.68 50.0039H276.68C276.68 55.5268 281.157 60.0039 286.68 60.0039V50.0039ZM286.68 10.2578V0.257812C281.157 0.257812 276.68 4.73496 276.68 10.2578H286.68ZM284.746 15.9297H294.746C294.746 10.4068 290.269 5.92969 284.746 5.92969V15.9297ZM284.746 21.3867V31.3867C290.269 31.3867 294.746 26.9096 294.746 21.3867H284.746ZM261.586 21.3867H251.586C251.586 26.9096 256.063 31.3867 261.586 31.3867V21.3867ZM261.586 15.9297V5.92969C256.063 5.92969 251.586 10.4068 251.586 15.9297H261.586ZM269.793 15.9297V25.9297C275.316 25.9297 279.793 21.4525 279.793 15.9297H269.793ZM269.793 10.9883V0.988281C264.27 0.988281 259.793 5.46543 259.793 10.9883H269.793ZM276.668 10.9883H286.668C286.668 5.46543 282.191 0.988281 276.668 0.988281V10.9883ZM276.668 15.9297H266.668C266.668 21.4525 271.145 25.9297 276.668 25.9297V15.9297ZM269.406 32.6016L279.405 32.7554C279.407 32.6504 279.407 32.5453 279.405 32.4403L269.406 32.6016ZM293.512 10.2578H283.512V25.3398H293.512H303.512V10.2578L293.512 10.2578ZM293.512 25.3398V35.3398H298.883V25.3398V15.3398H293.512V25.3398ZM298.883 25.3398H288.883V30.9687H298.883H308.883V25.3398H298.883ZM298.883 30.9687V20.9687H293.512V30.9687V40.9687H298.883V30.9687ZM293.512 30.9687H283.512V50.0039H293.512H303.512V30.9687H293.512ZM293.512 50.0039V40.0039H286.68V50.0039V60.0039H293.512V50.0039ZM286.68 50.0039H296.68V10.2578H286.68H276.68V50.0039H286.68ZM286.68 10.2578V20.2578H293.512V10.2578V0.257812H286.68V10.2578ZM284.746 15.9297H274.746V21.3867H284.746H294.746V15.9297H284.746ZM284.746 21.3867V11.3867H261.586V21.3867V31.3867H284.746V21.3867ZM261.586 21.3867H271.586V15.9297H261.586H251.586V21.3867H261.586ZM261.586 15.9297V25.9297H269.793V15.9297V5.92969H261.586V15.9297ZM269.793 15.9297H279.793V10.9883H269.793H259.793V15.9297H269.793ZM269.793 10.9883V20.9883H276.668V10.9883V0.988281H269.793V10.9883ZM276.668 10.9883H266.668V15.9297H276.668H286.668V10.9883H276.668ZM276.668 15.9297V25.9297H284.746V15.9297V5.92969H276.668V15.9297ZM273.23 22.9336V32.9336C273.557 32.9336 273.755 32.9889 273.843 33.0219C273.933 33.0552 273.926 33.0706 273.869 33.0186C273.809 32.9633 273.734 32.8684 273.679 32.744C273.622 32.6148 273.629 32.5478 273.629 32.6016H283.629H293.629C293.629 20.6744 283.831 12.9336 273.23 12.9336V22.9336ZM283.629 32.6016H273.629C273.629 32.6766 273.618 32.6235 273.671 32.5013C273.723 32.3835 273.796 32.2895 273.858 32.2327C273.916 32.1792 273.925 32.193 273.839 32.2252C273.753 32.2572 273.557 32.3125 273.23 32.3125V42.3125V52.3125C283.862 52.3125 293.629 44.5435 293.629 32.6016H283.629ZM273.23 42.3125V32.3125C272.847 32.3125 272.625 32.2489 272.536 32.216C272.448 32.1835 272.47 32.1744 272.544 32.2425C272.621 32.3138 272.7 32.4203 272.752 32.5409C272.805 32.6635 272.789 32.7039 272.789 32.6016H262.789H252.789C252.789 44.5175 262.442 52.3125 273.23 52.3125V42.3125ZM262.789 32.6016H272.789C272.789 32.5204 272.801 32.5745 272.745 32.7043C272.69 32.8315 272.608 32.9391 272.532 33.0088C272.46 33.0753 272.441 33.0646 272.532 33.031C272.623 32.9972 272.847 32.9336 273.23 32.9336V22.9336V12.9336C262.472 12.9336 252.789 20.7004 252.789 32.6016H262.789ZM273.23 28.4766V18.4766C269.917 18.4766 266.195 19.5996 263.311 22.552C260.407 25.5247 259.352 29.3232 259.408 32.7628L269.406 32.6016L279.405 32.4403C279.417 33.2159 279.157 34.9519 277.617 36.5281C276.097 38.084 274.31 38.4766 273.23 38.4766V28.4766ZM269.406 32.6016L259.407 32.4477C259.355 35.8314 260.344 39.7329 263.393 42.7825C266.395 45.7843 270.164 46.7266 273.23 46.7266V36.7266V26.7266C274.063 26.7266 275.898 27.0028 277.535 28.6404C279.221 30.3256 279.414 32.1647 279.405 32.7554L269.406 32.6016ZM273.23 36.7266V46.7266C276.344 46.7266 280.1 45.7432 283.07 42.7262C286.043 39.7058 287.012 35.8841 287.012 32.6016H277.012H267.012C267.012 32.112 267.186 30.3528 268.816 28.6967C270.443 27.0439 272.308 26.7266 273.23 26.7266V36.7266ZM277.012 32.6016H287.012C287.012 29.2709 285.982 25.5533 283.151 22.609C280.303 19.6464 276.594 18.4766 273.23 18.4766V28.4766V38.4766C272.058 38.4766 270.24 38.0372 268.735 36.4711C267.246 34.9233 267.012 33.2682 267.012 32.6016H277.012ZM332.184 20.3555L342.184 20.3555C342.184 14.8326 337.706 10.3555 332.184 10.3555V20.3555ZM332.184 25.6836V35.6836C337.706 35.6836 342.184 31.2064 342.184 25.6836L332.184 25.6836ZM304.082 25.6836H294.082C294.082 31.2064 298.559 35.6836 304.082 35.6836V25.6836ZM304.082 11.6758V1.67578C298.559 1.67578 294.082 6.15293 294.082 11.6758L304.082 11.6758ZM310.957 11.6758H320.957C320.957 6.15293 316.48 1.67578 310.957 1.67578V11.6758ZM310.957 20.3555H300.957C300.957 25.8783 305.434 30.3555 310.957 30.3555V20.3555ZM336.094 29.207H346.094C346.094 23.6842 341.617 19.207 336.094 19.207V29.207ZM336.094 34.5352V44.5352C341.617 44.5352 346.094 40.058 346.094 34.5352H336.094ZM299.828 34.5352H289.828C289.828 40.058 294.305 44.5352 299.828 44.5352V34.5352ZM299.828 29.207V19.207C294.305 19.207 289.828 23.6842 289.828 29.207H299.828ZM332.441 43.7305H342.441C342.441 38.2076 337.964 33.7305 332.441 33.7305V43.7305ZM332.441 49.2305V59.2305C337.964 59.2305 342.441 54.7533 342.441 49.2305H332.441ZM303.609 49.2305H293.609C293.609 54.7533 298.087 59.2305 303.609 59.2305V49.2305ZM303.609 37.2852V27.2852C298.087 27.2852 293.609 31.7623 293.609 37.2852H303.609ZM310.57 37.2852H320.57C320.57 31.7623 316.093 27.2852 310.57 27.2852V37.2852ZM310.57 43.7305H300.57C300.57 49.2533 305.047 53.7305 310.57 53.7305V43.7305ZM332.184 20.3555H322.184V25.6836H332.184L342.184 25.6836V20.3555L332.184 20.3555ZM332.184 25.6836V15.6836H304.082V25.6836V35.6836H332.184V25.6836ZM304.082 25.6836H314.082V11.6758H304.082L294.082 11.6758V25.6836H304.082ZM304.082 11.6758V21.6758H310.957V11.6758V1.67578H304.082V11.6758ZM310.957 11.6758L300.957 11.6758V20.3555H310.957H320.957V11.6758H310.957ZM310.957 20.3555V30.3555H332.184V20.3555V10.3555H310.957V20.3555ZM336.094 29.207H326.094V34.5352H336.094H346.094V29.207H336.094ZM336.094 34.5352V24.5352L299.828 24.5352V34.5352V44.5352H336.094V34.5352ZM299.828 34.5352H309.828V29.207H299.828H289.828V34.5352H299.828ZM299.828 29.207V39.207H336.094V29.207V19.207L299.828 19.207V29.207ZM332.441 43.7305H322.441V49.2305H332.441H342.441V43.7305H332.441ZM332.441 49.2305V39.2305H303.609V49.2305V59.2305H332.441V49.2305ZM303.609 49.2305H313.609V37.2852H303.609H293.609V49.2305H303.609ZM303.609 37.2852V47.2852H310.57V37.2852V27.2852H303.609V37.2852ZM310.57 37.2852H300.57V43.7305H310.57H320.57V37.2852H310.57ZM310.57 43.7305V53.7305H332.441V43.7305V33.7305H310.57V43.7305Z" fill="white" mask="url(#path-1-outside-1_6524_1899)"/>
</g>
<defs>
<filter id="filter0_d_6524_1899" x="0" y="0" width="350.094" height="68.1328" filterUnits="userSpaceOnUse" color-interpolation-filters="sRGB">
<feFlood flood-opacity="0" result="BackgroundImageFix"/>
<feColorMatrix in="SourceAlpha" type="matrix" values="0 0 0 0 0 0 0 0 0 0 0 0 0 0 0 0 0 0 127 0" result="hardAlpha"/>
<feOffset dy="4"/>
<feGaussianBlur stdDeviation="2"/>
<feComposite in2="hardAlpha" operator="out"/>
<feColorMatrix type="matrix" values="0 0 0 0 0 0 0 0 0 0 0 0 0 0 0 0 0 0 0.07 0"/>
<feBlend mode="normal" in2="BackgroundImageFix" result="effect1_dropShadow_6524_1899"/>
<feBlend mode="normal" in="SourceGraphic" in2="effect1_dropShadow_6524_1899" result="shape"/>
</filter>
</defs>
</svg>
