<svg width="265" height="68" viewBox="0 0 265 68" fill="none" xmlns="http://www.w3.org/2000/svg">
<g filter="url(#filter0_d_6524_1895)">
<mask id="path-1-outside-1_6524_1895" maskUnits="userSpaceOnUse" x="3.71094" y="-0.507813" width="257" height="61" fill="black">
<rect fill="white" x="3.71094" y="-0.507813" width="257" height="61"/>
<path d="M47.4297 10V29.8516H40.5547V27.4453H32.4766V22.2891H40.5547V19.668H32.8203C30.3926 25.4043 25 28.9492 16.2773 30.7109L14 25.168C22.5508 23.6641 25.9453 20.5273 26.6758 16.7461H16.3633V11.2891H34.3242C34.3242 12.4062 34.2598 13.4805 34.1523 14.5117H40.5547V10L47.4297 10ZM47.4297 31.0117V42.6992H27.5352V43.9453H47.9883V49.3594H20.6602V37.6289H40.5117V36.3828H20.6172V31.0117H47.4297ZM74.1562 13.7383V17.6055C74.1562 21.7734 74.1562 26.4141 73.125 32.5156L66.3789 32C67.1738 26.7793 67.2598 22.8691 67.3242 19.1953H53.3164V13.7383H74.1562ZM64.5742 25.168V36.3398C68.1621 36.168 71.793 35.9102 75.1445 35.4805L75.5742 40.5508C67.5391 41.9688 58.7734 42.0977 51.8984 42.0547L51.3398 36.6406C53.3379 36.6191 55.5293 36.5977 57.8281 36.5547V25.168H64.5742ZM83.6094 10V25.5547H88.3359V31.2695H83.6094V49.7461H76.6055V10H83.6094ZM125.934 27.4023V32.4297H89.668V27.4023H125.934ZM121.723 33.6328V43.6445H100.496V44.9336H122.797V49.4883H93.6641V39.3906H114.891V38.2734H93.6641V33.6328H121.723ZM121.723 10.4727V20.4844H100.883V21.7734H122.41V26.2852H94.0508V16.2305H114.848V15.0273H94.0078V10.4727L121.723 10.4727ZM171.094 10V33.5898H164.219V24.8242H159.234V19.2812H164.219V10H171.094ZM157.258 34.2344C165.895 34.2344 171.18 37.1133 171.18 42.0547C171.18 46.9531 165.895 49.875 157.258 49.875C148.707 49.875 143.422 46.9531 143.422 42.0547C143.422 37.1133 148.707 34.2344 157.258 34.2344ZM157.258 39.4336C152.531 39.4336 150.254 40.1641 150.297 42.0547C150.254 43.9023 152.531 44.6758 157.258 44.6758C162.027 44.6758 164.348 43.9023 164.348 42.0547C164.348 40.1641 162.027 39.4336 157.258 39.4336ZM160.309 12.1055V17.6055H153.133C153.541 21.5801 155.861 25.5762 161.727 27.4883L158.418 32.8594C154.164 31.5488 151.35 28.9707 149.609 25.7695C147.891 29.4219 144.904 32.3652 140.328 33.8477L136.762 28.3906C143.1 26.3711 145.484 21.8594 145.914 17.6055H138.695V12.1055H160.309ZM208.906 10V49.875H202.031V10H208.906ZM196.445 13.1367V29.207H184.457V35.1367C190.129 35.0723 194.791 34.75 199.84 33.8906L200.398 39.4336C194.383 40.5508 188.582 40.7656 181.062 40.7656H177.324V23.8359H189.398V18.6367H177.324V13.1367H196.445ZM245.129 10.0859V21.6875H250.07V27.2734H245.129V39.6914H238.211V10.0859H245.129ZM236.793 13.8242V19.1523H213.289V13.8242H221.582V10H228.5V13.8242H236.793ZM225.02 20.0547C230.82 20.0547 234.945 23.2773 234.945 27.918C234.945 32.5586 230.82 35.6953 225.02 35.6523C219.176 35.6953 215.008 32.5586 215.008 27.918C215.008 23.2773 219.176 20.0547 225.02 20.0547ZM225.02 25.2539C223.043 25.2969 221.754 26.1133 221.754 27.918C221.754 29.7227 223.043 30.4961 225.02 30.4961C227.039 30.4961 228.414 29.7227 228.414 27.918C228.414 26.1133 227.039 25.2969 225.02 25.2539ZM246.289 43.6875V49.1875H218.789V37.457H225.707V43.6875H246.289Z"/>
</mask>
<path d="M47.4297 10V29.8516H40.5547V27.4453H32.4766V22.2891H40.5547V19.668H32.8203C30.3926 25.4043 25 28.9492 16.2773 30.7109L14 25.168C22.5508 23.6641 25.9453 20.5273 26.6758 16.7461H16.3633V11.2891H34.3242C34.3242 12.4062 34.2598 13.4805 34.1523 14.5117H40.5547V10L47.4297 10ZM47.4297 31.0117V42.6992H27.5352V43.9453H47.9883V49.3594H20.6602V37.6289H40.5117V36.3828H20.6172V31.0117H47.4297ZM74.1562 13.7383V17.6055C74.1562 21.7734 74.1562 26.4141 73.125 32.5156L66.3789 32C67.1738 26.7793 67.2598 22.8691 67.3242 19.1953H53.3164V13.7383H74.1562ZM64.5742 25.168V36.3398C68.1621 36.168 71.793 35.9102 75.1445 35.4805L75.5742 40.5508C67.5391 41.9688 58.7734 42.0977 51.8984 42.0547L51.3398 36.6406C53.3379 36.6191 55.5293 36.5977 57.8281 36.5547V25.168H64.5742ZM83.6094 10V25.5547H88.3359V31.2695H83.6094V49.7461H76.6055V10H83.6094ZM125.934 27.4023V32.4297H89.668V27.4023H125.934ZM121.723 33.6328V43.6445H100.496V44.9336H122.797V49.4883H93.6641V39.3906H114.891V38.2734H93.6641V33.6328H121.723ZM121.723 10.4727V20.4844H100.883V21.7734H122.41V26.2852H94.0508V16.2305H114.848V15.0273H94.0078V10.4727L121.723 10.4727ZM171.094 10V33.5898H164.219V24.8242H159.234V19.2812H164.219V10H171.094ZM157.258 34.2344C165.895 34.2344 171.18 37.1133 171.18 42.0547C171.18 46.9531 165.895 49.875 157.258 49.875C148.707 49.875 143.422 46.9531 143.422 42.0547C143.422 37.1133 148.707 34.2344 157.258 34.2344ZM157.258 39.4336C152.531 39.4336 150.254 40.1641 150.297 42.0547C150.254 43.9023 152.531 44.6758 157.258 44.6758C162.027 44.6758 164.348 43.9023 164.348 42.0547C164.348 40.1641 162.027 39.4336 157.258 39.4336ZM160.309 12.1055V17.6055H153.133C153.541 21.5801 155.861 25.5762 161.727 27.4883L158.418 32.8594C154.164 31.5488 151.35 28.9707 149.609 25.7695C147.891 29.4219 144.904 32.3652 140.328 33.8477L136.762 28.3906C143.1 26.3711 145.484 21.8594 145.914 17.6055H138.695V12.1055H160.309ZM208.906 10V49.875H202.031V10H208.906ZM196.445 13.1367V29.207H184.457V35.1367C190.129 35.0723 194.791 34.75 199.84 33.8906L200.398 39.4336C194.383 40.5508 188.582 40.7656 181.062 40.7656H177.324V23.8359H189.398V18.6367H177.324V13.1367H196.445ZM245.129 10.0859V21.6875H250.07V27.2734H245.129V39.6914H238.211V10.0859H245.129ZM236.793 13.8242V19.1523H213.289V13.8242H221.582V10H228.5V13.8242H236.793ZM225.02 20.0547C230.82 20.0547 234.945 23.2773 234.945 27.918C234.945 32.5586 230.82 35.6953 225.02 35.6523C219.176 35.6953 215.008 32.5586 215.008 27.918C215.008 23.2773 219.176 20.0547 225.02 20.0547ZM225.02 25.2539C223.043 25.2969 221.754 26.1133 221.754 27.918C221.754 29.7227 223.043 30.4961 225.02 30.4961C227.039 30.4961 228.414 29.7227 228.414 27.918C228.414 26.1133 227.039 25.2969 225.02 25.2539ZM246.289 43.6875V49.1875H218.789V37.457H225.707V43.6875H246.289Z" fill="#11DCA9"/>
<path d="M47.4297 10H57.4297C57.4297 4.47715 52.9525 0 47.4297 0V10ZM47.4297 29.8516V39.8516C52.9525 39.8516 57.4297 35.3744 57.4297 29.8516H47.4297ZM40.5547 29.8516H30.5547C30.5547 35.3744 35.0318 39.8516 40.5547 39.8516V29.8516ZM40.5547 27.4453H50.5547C50.5547 21.9225 46.0775 17.4453 40.5547 17.4453V27.4453ZM32.4766 27.4453H22.4766C22.4766 32.9682 26.9537 37.4453 32.4766 37.4453V27.4453ZM32.4766 22.2891V12.2891C26.9537 12.2891 22.4766 16.7662 22.4766 22.2891H32.4766ZM40.5547 22.2891V32.2891C46.0775 32.2891 50.5547 27.8119 50.5547 22.2891H40.5547ZM40.5547 19.668H50.5547C50.5547 14.1451 46.0775 9.66797 40.5547 9.66797V19.668ZM32.8203 19.668V9.66797C28.8036 9.66797 25.1767 12.0713 23.6111 15.7704L32.8203 19.668ZM16.2773 30.7109L7.0276 34.5112C8.84892 38.9443 13.5593 41.4618 18.2571 40.513L16.2773 30.7109ZM14 25.168L12.2678 15.3191C9.28552 15.8437 6.70154 17.6912 5.2407 20.3436C3.77985 22.996 3.59951 26.1674 4.75025 28.9683L14 25.168ZM26.6758 16.7461L36.4943 18.6428C37.0603 15.7126 36.288 12.6826 34.3884 10.3809C32.4887 8.07909 29.6602 6.74609 26.6758 6.74609V16.7461ZM16.3633 16.7461H6.36328C6.36328 22.2689 10.8404 26.7461 16.3633 26.7461V16.7461ZM16.3633 11.2891V1.28906C10.8404 1.28906 6.36328 5.76622 6.36328 11.2891H16.3633ZM34.3242 11.2891H44.3242C44.3242 5.76622 39.8471 1.28906 34.3242 1.28906V11.2891ZM34.1523 14.5117L24.2062 13.4757C23.9127 16.2929 24.8277 19.1024 26.724 21.2065C28.6203 23.3105 31.3199 24.5117 34.1523 24.5117V14.5117ZM40.5547 14.5117V24.5117C46.0775 24.5117 50.5547 20.0346 50.5547 14.5117H40.5547ZM40.5547 10V0C35.0318 0 30.5547 4.47715 30.5547 10H40.5547ZM47.4297 31.0117H57.4297C57.4297 25.4889 52.9525 21.0117 47.4297 21.0117V31.0117ZM47.4297 42.6992V52.6992C52.9525 52.6992 57.4297 48.2221 57.4297 42.6992H47.4297ZM27.5352 42.6992V32.6992C22.0123 32.6992 17.5352 37.1764 17.5352 42.6992H27.5352ZM27.5352 43.9453H17.5352C17.5352 49.4682 22.0123 53.9453 27.5352 53.9453V43.9453ZM47.9883 43.9453H57.9883C57.9883 38.4225 53.5111 33.9453 47.9883 33.9453V43.9453ZM47.9883 49.3594V59.3594C53.5111 59.3594 57.9883 54.8822 57.9883 49.3594H47.9883ZM20.6602 49.3594H10.6602C10.6602 54.8822 15.1373 59.3594 20.6602 59.3594V49.3594ZM20.6602 37.6289V27.6289C15.1373 27.6289 10.6602 32.1061 10.6602 37.6289H20.6602ZM40.5117 37.6289V47.6289C46.0346 47.6289 50.5117 43.1518 50.5117 37.6289H40.5117ZM40.5117 36.3828H50.5117C50.5117 30.86 46.0346 26.3828 40.5117 26.3828V36.3828ZM20.6172 36.3828H10.6172C10.6172 41.9057 15.0943 46.3828 20.6172 46.3828V36.3828ZM20.6172 31.0117V21.0117C15.0943 21.0117 10.6172 25.4889 10.6172 31.0117H20.6172ZM47.4297 10L37.4297 10V29.8516H47.4297H57.4297V10H47.4297ZM47.4297 29.8516V19.8516H40.5547V29.8516V39.8516H47.4297V29.8516ZM40.5547 29.8516H50.5547V27.4453H40.5547H30.5547V29.8516H40.5547ZM40.5547 27.4453V17.4453H32.4766V27.4453V37.4453H40.5547V27.4453ZM32.4766 27.4453H42.4766V22.2891H32.4766H22.4766V27.4453H32.4766ZM32.4766 22.2891V32.2891H40.5547V22.2891V12.2891H32.4766V22.2891ZM40.5547 22.2891H50.5547V19.668H40.5547H30.5547V22.2891H40.5547ZM40.5547 19.668V9.66797H32.8203V19.668V29.668H40.5547V19.668ZM32.8203 19.668L23.6111 15.7704C22.9919 17.2335 21.3634 19.4818 14.2976 20.9089L16.2773 30.7109L18.2571 40.513C28.6366 38.4167 37.7933 33.575 42.0295 23.5655L32.8203 19.668ZM16.2773 30.7109L25.5271 26.9107L23.2497 21.3677L14 25.168L4.75025 28.9683L7.0276 34.5112L16.2773 30.7109ZM14 25.168L15.7322 35.0168C25.6563 33.2714 34.5604 28.6535 36.4943 18.6428L26.6758 16.7461L16.8573 14.8493C16.9057 14.5989 17.0207 14.2781 17.2164 13.9784C17.4061 13.6878 17.5449 13.6112 17.4315 13.6928C17.1007 13.9307 15.7388 14.7087 12.2678 15.3191L14 25.168ZM26.6758 16.7461V6.74609H16.3633V16.7461V26.7461H26.6758V16.7461ZM16.3633 16.7461H26.3633V11.2891H16.3633H6.36328L6.36328 16.7461H16.3633ZM16.3633 11.2891V21.2891H34.3242V11.2891V1.28906L16.3633 1.28906V11.2891ZM34.3242 11.2891H24.3242C24.3242 12.0207 24.2821 12.7469 24.2062 13.4757L34.1523 14.5117L44.0985 15.5478C44.2375 14.214 44.3242 12.7918 44.3242 11.2891H34.3242ZM34.1523 14.5117V24.5117H40.5547V14.5117V4.51172H34.1523V14.5117ZM40.5547 14.5117H50.5547V10L40.5547 10H30.5547V14.5117H40.5547ZM40.5547 10V20H47.4297V10V0H40.5547V10ZM47.4297 31.0117H37.4297V42.6992H47.4297H57.4297V31.0117H47.4297ZM47.4297 42.6992V32.6992H27.5352V42.6992V52.6992H47.4297V42.6992ZM27.5352 42.6992H17.5352V43.9453H27.5352H37.5352V42.6992H27.5352ZM27.5352 43.9453V53.9453H47.9883V43.9453V33.9453H27.5352V43.9453ZM47.9883 43.9453H37.9883V49.3594H47.9883H57.9883V43.9453H47.9883ZM47.9883 49.3594V39.3594H20.6602V49.3594V59.3594H47.9883V49.3594ZM20.6602 49.3594H30.6602V37.6289H20.6602H10.6602V49.3594H20.6602ZM20.6602 37.6289V47.6289H40.5117V37.6289V27.6289H20.6602V37.6289ZM40.5117 37.6289H50.5117V36.3828H40.5117H30.5117V37.6289H40.5117ZM40.5117 36.3828V26.3828H20.6172V36.3828V46.3828H40.5117V36.3828ZM20.6172 36.3828H30.6172V31.0117H20.6172H10.6172V36.3828H20.6172ZM20.6172 31.0117V41.0117H47.4297V31.0117V21.0117H20.6172V31.0117ZM74.1562 13.7383L84.1562 13.7383C84.1562 8.21543 79.6791 3.73828 74.1562 3.73828V13.7383ZM73.125 32.5156L72.3629 42.4865C77.518 42.8806 82.1236 39.28 82.9852 34.1821L73.125 32.5156ZM66.3789 32L56.4929 30.4947C56.0741 33.2451 56.82 36.0455 58.5513 38.2232C60.2826 40.4009 62.8428 41.7589 65.6168 41.9709L66.3789 32ZM67.3242 19.1953L77.3227 19.3707C77.3697 16.6886 76.3372 14.1 74.457 12.1865C72.5769 10.2731 70.0068 9.19531 67.3242 9.19531V19.1953ZM53.3164 19.1953H43.3164C43.3164 24.7182 47.7936 29.1953 53.3164 29.1953V19.1953ZM53.3164 13.7383V3.73828C47.7936 3.73828 43.3164 8.21543 43.3164 13.7383H53.3164ZM64.5742 25.168H74.5742C74.5742 19.6451 70.0971 15.168 64.5742 15.168V25.168ZM64.5742 36.3398H54.5742C54.5742 39.075 55.6946 41.6909 57.6744 43.5781C59.6542 45.4653 62.3206 46.4593 65.0527 46.3284L64.5742 36.3398ZM75.1445 35.4805L85.1088 34.636C84.8786 31.9191 83.5489 29.414 81.4276 27.7008C79.3063 25.9876 76.5774 25.2149 73.8729 25.5617L75.1445 35.4805ZM75.5742 40.5508L77.3121 50.3986C82.4074 49.4994 85.9754 44.8619 85.5385 39.7064L75.5742 40.5508ZM51.8984 42.0547L41.9512 43.081C42.4748 48.1556 46.7344 52.0226 51.8359 52.0545L51.8984 42.0547ZM51.3398 36.6406L51.2323 26.6412C48.4204 26.6714 45.7512 27.8842 43.8789 29.9822C42.0065 32.0803 41.104 34.8697 41.3926 37.6669L51.3398 36.6406ZM57.8281 36.5547L58.015 46.5529C63.4641 46.4511 67.8281 42.0047 67.8281 36.5547H57.8281ZM57.8281 25.168V15.168C52.3053 15.168 47.8281 19.6451 47.8281 25.168H57.8281ZM83.6094 10H93.6094C93.6094 4.47715 89.1322 0 83.6094 0V10ZM83.6094 25.5547L73.6094 25.5547C73.6094 31.0775 78.0865 35.5547 83.6094 35.5547V25.5547ZM88.3359 25.5547H98.3359C98.3359 20.0318 93.8588 15.5547 88.3359 15.5547V25.5547ZM88.3359 31.2695V41.2695C93.8588 41.2695 98.3359 36.7924 98.3359 31.2695H88.3359ZM83.6094 31.2695V21.2695C78.0865 21.2695 73.6094 25.7467 73.6094 31.2695H83.6094ZM83.6094 49.7461V59.7461C89.1322 59.7461 93.6094 55.2689 93.6094 49.7461H83.6094ZM76.6055 49.7461H66.6055C66.6055 55.2689 71.0826 59.7461 76.6055 59.7461V49.7461ZM76.6055 10V0C71.0826 0 66.6055 4.47715 66.6055 10H76.6055ZM74.1562 13.7383H64.1562V17.6055H74.1562L84.1562 17.6055V13.7383L74.1562 13.7383ZM74.1562 17.6055H64.1562C64.1562 21.7067 64.1467 25.6317 63.2648 30.8491L73.125 32.5156L82.9852 34.1821C84.1658 27.1964 84.1562 21.8402 84.1562 17.6055L74.1562 17.6055ZM73.125 32.5156L73.8871 22.5447L67.141 22.0291L66.3789 32L65.6168 41.9709L72.3629 42.4865L73.125 32.5156ZM66.3789 32L76.265 33.5053C77.1648 27.5953 77.2566 23.135 77.3227 19.3707L67.3242 19.1953L57.3258 19.0199C57.2629 22.6032 57.1828 25.9633 56.4929 30.4947L66.3789 32ZM67.3242 19.1953V9.19531H53.3164V19.1953V29.1953H67.3242V19.1953ZM53.3164 19.1953H63.3164V13.7383H53.3164H43.3164V19.1953H53.3164ZM53.3164 13.7383V23.7383H74.1562V13.7383V3.73828L53.3164 3.73828V13.7383ZM64.5742 25.168H54.5742V36.3398H64.5742H74.5742V25.168H64.5742ZM64.5742 36.3398L65.0527 46.3284C68.7693 46.1503 72.6937 45.8765 76.4162 45.3993L75.1445 35.4805L73.8729 25.5617C70.8922 25.9438 67.5549 26.1856 64.0957 26.3513L64.5742 36.3398ZM75.1445 35.4805L65.1802 36.3249L65.6099 41.3952L75.5742 40.5508L85.5385 39.7064L85.1088 34.636L75.1445 35.4805ZM75.5742 40.5508L73.8364 30.7029C66.7591 31.9519 58.7714 32.0975 51.9609 32.0549L51.8984 42.0547L51.8359 52.0545C58.7754 52.0979 68.3191 51.9856 77.3121 50.3986L75.5742 40.5508ZM51.8984 42.0547L61.8456 41.0284L61.287 35.6143L51.3398 36.6406L41.3926 37.6669L41.9512 43.081L51.8984 42.0547ZM51.3398 36.6406L51.4474 46.64C53.4314 46.6187 55.6677 46.5968 58.015 46.5529L57.8281 36.5547L57.6412 26.5564C55.3909 26.5985 53.2444 26.6196 51.2323 26.6412L51.3398 36.6406ZM57.8281 36.5547H67.8281V25.168H57.8281H47.8281V36.5547H57.8281ZM57.8281 25.168V35.168H64.5742V25.168V15.168H57.8281V25.168ZM83.6094 10H73.6094V25.5547L83.6094 25.5547H93.6094V10H83.6094ZM83.6094 25.5547V35.5547H88.3359V25.5547V15.5547H83.6094V25.5547ZM88.3359 25.5547H78.3359V31.2695H88.3359H98.3359V25.5547H88.3359ZM88.3359 31.2695V21.2695H83.6094V31.2695V41.2695H88.3359V31.2695ZM83.6094 31.2695H73.6094V49.7461H83.6094H93.6094V31.2695H83.6094ZM83.6094 49.7461V39.7461H76.6055V49.7461V59.7461H83.6094V49.7461ZM76.6055 49.7461H86.6055V10H76.6055H66.6055V49.7461H76.6055ZM76.6055 10V20L83.6094 20V10V0H76.6055V10ZM125.934 27.4023H135.934C135.934 21.8795 131.456 17.4023 125.934 17.4023V27.4023ZM125.934 32.4297V42.4297C131.456 42.4297 135.934 37.9525 135.934 32.4297H125.934ZM89.668 32.4297H79.668C79.668 37.9525 84.1451 42.4297 89.668 42.4297V32.4297ZM89.668 27.4023V17.4023C84.1451 17.4023 79.668 21.8795 79.668 27.4023H89.668ZM121.723 33.6328H131.723C131.723 28.11 127.246 23.6328 121.723 23.6328V33.6328ZM121.723 43.6445V53.6445C127.246 53.6445 131.723 49.1674 131.723 43.6445H121.723ZM100.496 43.6445V33.6445C94.9732 33.6445 90.4961 38.1217 90.4961 43.6445H100.496ZM100.496 44.9336H90.4961C90.4961 50.4564 94.9732 54.9336 100.496 54.9336V44.9336ZM122.797 44.9336H132.797C132.797 39.4107 128.32 34.9336 122.797 34.9336V44.9336ZM122.797 49.4883V59.4883C128.32 59.4883 132.797 55.0111 132.797 49.4883H122.797ZM93.6641 49.4883H83.6641C83.6641 55.0111 88.1412 59.4883 93.6641 59.4883V49.4883ZM93.6641 39.3906V29.3906C88.1412 29.3906 83.6641 33.8678 83.6641 39.3906H93.6641ZM114.891 39.3906V49.3906C120.413 49.3906 124.891 44.9135 124.891 39.3906H114.891ZM114.891 38.2734H124.891C124.891 32.7506 120.413 28.2734 114.891 28.2734V38.2734ZM93.6641 38.2734H83.6641C83.6641 43.7963 88.1412 48.2734 93.6641 48.2734V38.2734ZM93.6641 33.6328V23.6328C88.1412 23.6328 83.6641 28.11 83.6641 33.6328H93.6641ZM121.723 10.4727H131.723C131.723 4.94981 127.246 0.472656 121.723 0.472656V10.4727ZM121.723 20.4844V30.4844C127.246 30.4844 131.723 26.0072 131.723 20.4844H121.723ZM100.883 20.4844V10.4844C95.36 10.4844 90.8828 14.9615 90.8828 20.4844H100.883ZM100.883 21.7734H90.8828C90.8828 27.2963 95.36 31.7734 100.883 31.7734V21.7734ZM122.41 21.7734H132.41C132.41 16.2506 127.933 11.7734 122.41 11.7734V21.7734ZM122.41 26.2852V36.2852C127.933 36.2852 132.41 31.808 132.41 26.2852H122.41ZM94.0508 26.2852H84.0508C84.0508 31.808 88.5279 36.2852 94.0508 36.2852V26.2852ZM94.0508 16.2305V6.23047C88.5279 6.23047 84.0508 10.7076 84.0508 16.2305H94.0508ZM114.848 16.2305V26.2305C120.371 26.2305 124.848 21.7533 124.848 16.2305H114.848ZM114.848 15.0273H124.848C124.848 9.5045 120.371 5.02734 114.848 5.02734V15.0273ZM94.0078 15.0273H84.0078C84.0078 20.5502 88.485 25.0273 94.0078 25.0273V15.0273ZM94.0078 10.4727V0.472656C88.485 0.472656 84.0078 4.94981 84.0078 10.4727H94.0078ZM125.934 27.4023H115.934V32.4297H125.934H135.934V27.4023H125.934ZM125.934 32.4297V22.4297H89.668V32.4297V42.4297H125.934V32.4297ZM89.668 32.4297H99.668V27.4023H89.668H79.668V32.4297H89.668ZM89.668 27.4023V37.4023H125.934V27.4023V17.4023H89.668V27.4023ZM121.723 33.6328H111.723V43.6445H121.723H131.723V33.6328H121.723ZM121.723 43.6445V33.6445H100.496V43.6445V53.6445H121.723V43.6445ZM100.496 43.6445H90.4961V44.9336H100.496H110.496V43.6445H100.496ZM100.496 44.9336V54.9336H122.797V44.9336V34.9336H100.496V44.9336ZM122.797 44.9336H112.797V49.4883H122.797H132.797V44.9336H122.797ZM122.797 49.4883V39.4883H93.6641V49.4883V59.4883H122.797V49.4883ZM93.6641 49.4883H103.664V39.3906H93.6641H83.6641V49.4883H93.6641ZM93.6641 39.3906V49.3906H114.891V39.3906V29.3906H93.6641V39.3906ZM114.891 39.3906H124.891V38.2734H114.891H104.891V39.3906H114.891ZM114.891 38.2734V28.2734H93.6641V38.2734V48.2734H114.891V38.2734ZM93.6641 38.2734H103.664V33.6328H93.6641H83.6641V38.2734H93.6641ZM93.6641 33.6328V43.6328H121.723V33.6328V23.6328H93.6641V33.6328ZM121.723 10.4727H111.723V20.4844H121.723H131.723V10.4727H121.723ZM121.723 20.4844V10.4844L100.883 10.4844V20.4844V30.4844H121.723V20.4844ZM100.883 20.4844H90.8828V21.7734H100.883H110.883V20.4844H100.883ZM100.883 21.7734V31.7734H122.41V21.7734V11.7734L100.883 11.7734V21.7734ZM122.41 21.7734H112.41V26.2852H122.41H132.41V21.7734H122.41ZM122.41 26.2852V16.2852H94.0508V26.2852V36.2852H122.41V26.2852ZM94.0508 26.2852H104.051V16.2305H94.0508H84.0508V26.2852H94.0508ZM94.0508 16.2305V26.2305H114.848V16.2305V6.23047L94.0508 6.23047V16.2305ZM114.848 16.2305H124.848V15.0273H114.848H104.848V16.2305H114.848ZM114.848 15.0273V5.02734L94.0078 5.02734V15.0273V25.0273H114.848V15.0273ZM94.0078 15.0273H104.008V10.4727H94.0078H84.0078V15.0273H94.0078ZM94.0078 10.4727V20.4727H121.723V10.4727V0.472656L94.0078 0.472656V10.4727ZM171.094 10L181.094 10C181.094 4.47715 176.617 0 171.094 0V10ZM171.094 33.5898V43.5898C176.617 43.5898 181.094 39.1127 181.094 33.5898H171.094ZM164.219 33.5898H154.219C154.219 39.1127 158.696 43.5898 164.219 43.5898V33.5898ZM164.219 24.8242H174.219C174.219 19.3014 169.742 14.8242 164.219 14.8242V24.8242ZM159.234 24.8242H149.234C149.234 30.3471 153.712 34.8242 159.234 34.8242V24.8242ZM159.234 19.2812V9.28125C153.712 9.28125 149.234 13.7584 149.234 19.2812H159.234ZM164.219 19.2812V29.2812C169.742 29.2812 174.219 24.8041 174.219 19.2812H164.219ZM164.219 10V0C158.696 0 154.219 4.47715 154.219 10H164.219ZM150.297 42.0547L160.294 42.2872C160.298 42.134 160.298 41.9807 160.294 41.8275L150.297 42.0547ZM160.309 12.1055H170.309C170.309 6.58262 165.831 2.10547 160.309 2.10547V12.1055ZM160.309 17.6055V27.6055C165.831 27.6055 170.309 23.1283 170.309 17.6055H160.309ZM153.133 17.6055V7.60547C150.303 7.60547 147.605 8.80453 145.709 10.9053C143.813 13.0062 142.896 15.812 143.185 18.6271L153.133 17.6055ZM161.727 27.4883L170.241 32.7331C171.848 30.1232 172.17 26.9202 171.114 24.0426C170.058 21.1651 167.74 18.9308 164.826 17.9808L161.727 27.4883ZM158.418 32.8594L155.474 42.4161C159.83 43.7581 164.542 41.9848 166.932 38.1041L158.418 32.8594ZM149.609 25.7695L158.395 20.9934C156.595 17.6822 153.086 15.6643 149.319 15.7738C145.552 15.8832 142.166 18.1014 140.561 21.5116L149.609 25.7695ZM140.328 33.8477L131.957 39.3184C134.426 43.0953 139.118 44.7514 143.41 43.3609L140.328 33.8477ZM136.762 28.3906L133.726 18.8626C130.749 19.8111 128.387 22.0961 127.34 25.0394C126.293 27.9828 126.682 31.2463 128.391 33.8613L136.762 28.3906ZM145.914 17.6055L155.863 18.6105C156.148 15.7977 155.228 12.9962 153.332 10.8991C151.436 8.80207 148.741 7.60547 145.914 7.60547V17.6055ZM138.695 17.6055H128.695C128.695 23.1283 133.172 27.6055 138.695 27.6055V17.6055ZM138.695 12.1055V2.10547C133.172 2.10547 128.695 6.58262 128.695 12.1055H138.695ZM171.094 10H161.094V33.5898H171.094H181.094V10L171.094 10ZM171.094 33.5898V23.5898H164.219V33.5898V43.5898H171.094V33.5898ZM164.219 33.5898H174.219V24.8242H164.219H154.219V33.5898H164.219ZM164.219 24.8242V14.8242H159.234V24.8242V34.8242H164.219V24.8242ZM159.234 24.8242H169.234V19.2812H159.234H149.234V24.8242H159.234ZM159.234 19.2812V29.2812H164.219V19.2812V9.28125H159.234V19.2812ZM164.219 19.2812H174.219V10L164.219 10H154.219V19.2812H164.219ZM164.219 10V20H171.094V10V0L164.219 0V10ZM157.258 34.2344V44.2344C158.88 44.2344 160.15 44.3712 161.087 44.5616C162.043 44.7555 162.49 44.9714 162.591 45.0275C162.675 45.0742 162.274 44.8702 161.848 44.2182C161.379 43.5014 161.18 42.6952 161.18 42.0547H171.18H181.18C181.18 35.2516 177.226 30.2863 172.324 27.5555C167.854 25.0657 162.461 24.2344 157.258 24.2344V34.2344ZM171.18 42.0547H161.18C161.18 41.3866 161.388 40.5745 161.853 39.865C162.275 39.2211 162.667 39.0231 162.576 39.074C162.47 39.1333 162.02 39.3506 161.069 39.5455C160.135 39.737 158.872 39.875 157.258 39.875V49.875V59.875C162.484 59.875 167.876 59.0256 172.339 56.5295C177.207 53.8066 181.18 48.8554 181.18 42.0547H171.18ZM157.258 49.875V39.875C155.671 39.875 154.428 39.7379 153.51 39.5484C152.575 39.3553 152.133 39.1406 152.031 39.0834C151.944 39.0344 152.334 39.2329 152.753 39.8732C153.214 40.5786 153.422 41.387 153.422 42.0547H143.422L133.422 42.0547C133.422 48.8478 137.386 53.7955 142.235 56.5201C146.687 59.0212 152.061 59.875 157.258 59.875V49.875ZM143.422 42.0547H153.422C153.422 42.6948 153.223 43.4973 152.758 44.2101C152.335 44.8584 151.936 45.063 152.016 45.0182C152.113 44.9642 152.552 44.7509 153.491 44.5588C154.414 44.3702 155.662 44.2344 157.258 44.2344V34.2344V24.2344C152.084 24.2344 146.709 25.07 142.25 27.5648C137.367 30.2974 133.422 35.2592 133.422 42.0547L143.422 42.0547ZM157.258 39.4336V29.4336C154.732 29.4336 151.482 29.5812 148.578 30.6347C147.021 31.1997 144.844 32.2766 143.05 34.4095C141.069 36.7637 140.238 39.5902 140.299 42.2819L150.297 42.0547L160.294 41.8275C160.334 43.5739 159.772 45.6 158.354 47.2856C157.122 48.7498 155.802 49.2896 155.399 49.4356C154.967 49.5923 154.845 49.5641 155.28 49.5155C155.672 49.4717 156.307 49.4336 157.258 49.4336V39.4336ZM150.297 42.0547L140.3 41.8222C140.236 44.5629 141.103 47.3821 143.069 49.7045C144.846 51.8043 146.994 52.8764 148.54 53.4445C151.442 54.5107 154.686 54.6758 157.258 54.6758V44.6758V34.6758C156.323 34.6758 155.699 34.6362 155.318 34.5921C154.894 34.5432 155.013 34.5158 155.438 34.6717C155.829 34.8155 157.12 35.3478 158.334 36.7829C159.738 38.4407 160.336 40.4703 160.294 42.2872L150.297 42.0547ZM157.258 44.6758V54.6758C159.858 54.6758 163.092 54.5082 165.985 53.4648C167.52 52.9109 169.64 51.8732 171.422 49.8449C173.395 47.5998 174.348 44.8269 174.348 42.0547H164.348H154.348C154.348 40.2063 155.01 38.2229 156.399 36.6426C157.597 35.2789 158.839 34.781 159.198 34.6514C159.592 34.5093 159.683 34.5405 159.244 34.5906C158.845 34.6361 158.205 34.6758 157.258 34.6758V44.6758ZM164.348 42.0547H174.348C174.348 39.3294 173.432 36.547 171.442 34.2689C169.642 32.2078 167.493 31.1656 165.947 30.6148C163.052 29.5839 159.812 29.4336 157.258 29.4336V39.4336V49.4336C158.221 49.4336 158.872 49.4718 159.281 49.5169C159.732 49.5667 159.638 49.5985 159.236 49.4555C158.866 49.3237 157.595 48.8186 156.379 47.4262C154.973 45.8167 154.348 43.8347 154.348 42.0547H164.348ZM160.309 12.1055H150.309V17.6055H160.309H170.309V12.1055H160.309ZM160.309 17.6055V7.60547H153.133V17.6055V27.6055H160.309V17.6055ZM153.133 17.6055L143.185 18.6271C143.977 26.334 148.813 33.7964 158.627 36.9958L161.727 27.4883L164.826 17.9808C164.154 17.7617 163.759 17.541 163.549 17.3996C163.345 17.2624 163.267 17.1678 163.244 17.1389C163.222 17.1105 163.122 16.9857 163.08 16.5838L153.133 17.6055ZM161.727 27.4883L153.212 22.2435L149.904 27.6146L158.418 32.8594L166.932 38.1041L170.241 32.7331L161.727 27.4883ZM158.418 32.8594L161.362 23.3026C160.434 23.0166 159.853 22.6575 159.466 22.3354C159.072 22.0078 158.715 21.5818 158.395 20.9934L149.609 25.7695L140.824 30.5457C143.756 35.9405 148.614 40.3029 155.474 42.4161L158.418 32.8594ZM149.609 25.7695L140.561 21.5116C139.958 22.7935 139.059 23.7473 137.246 24.3344L140.328 33.8477L143.41 43.3609C150.75 40.9831 155.823 36.0503 158.658 30.0275L149.609 25.7695ZM140.328 33.8477L148.699 28.3769L145.133 22.9199L136.762 28.3906L128.391 33.8613L131.957 39.3184L140.328 33.8477ZM136.762 28.3906L139.798 37.9186C150.454 34.523 155.091 26.2539 155.863 18.6105L145.914 17.6055L135.965 16.6005C135.898 17.2589 135.715 17.6219 135.57 17.8144C135.48 17.9335 135.096 18.4258 133.726 18.8626L136.762 28.3906ZM145.914 17.6055V7.60547H138.695V17.6055V27.6055H145.914V17.6055ZM138.695 17.6055H148.695V12.1055H138.695H128.695V17.6055H138.695ZM138.695 12.1055V22.1055H160.309V12.1055V2.10547L138.695 2.10547V12.1055ZM208.906 10H218.906C218.906 4.47715 214.429 0 208.906 0V10ZM208.906 49.875V59.875C214.429 59.875 218.906 55.3978 218.906 49.875H208.906ZM202.031 49.875H192.031C192.031 55.3978 196.508 59.875 202.031 59.875V49.875ZM202.031 10V0C196.508 0 192.031 4.47715 192.031 10H202.031ZM196.445 13.1367L206.445 13.1367C206.445 7.61387 201.968 3.13672 196.445 3.13672V13.1367ZM196.445 29.207V39.207C201.968 39.207 206.445 34.7299 206.445 29.207H196.445ZM184.457 29.207V19.207C178.934 19.207 174.457 23.6842 174.457 29.207H184.457ZM184.457 35.1367H174.457C174.457 37.8086 175.526 40.3693 177.426 42.2478C179.326 44.1264 181.899 45.1664 184.571 45.1361L184.457 35.1367ZM199.84 33.8906L209.789 32.888C209.512 30.1315 208.103 27.6137 205.899 25.9351C203.695 24.2565 200.893 23.5675 198.162 24.0324L199.84 33.8906ZM200.398 39.4336L202.224 49.2655C207.338 48.3159 210.87 43.6054 210.348 38.4309L200.398 39.4336ZM177.324 40.7656H167.324C167.324 46.2885 171.801 50.7656 177.324 50.7656V40.7656ZM177.324 23.8359V13.8359C171.801 13.8359 167.324 18.3131 167.324 23.8359H177.324ZM189.398 23.8359V33.8359C194.921 33.8359 199.398 29.3588 199.398 23.8359H189.398ZM189.398 18.6367H199.398C199.398 13.1139 194.921 8.63672 189.398 8.63672V18.6367ZM177.324 18.6367H167.324C167.324 24.1596 171.801 28.6367 177.324 28.6367V18.6367ZM177.324 13.1367V3.13672C171.801 3.13672 167.324 7.61387 167.324 13.1367H177.324ZM208.906 10H198.906V49.875H208.906H218.906V10H208.906ZM208.906 49.875V39.875H202.031V49.875V59.875H208.906V49.875ZM202.031 49.875H212.031V10H202.031H192.031V49.875H202.031ZM202.031 10V20L208.906 20V10V0H202.031V10ZM196.445 13.1367H186.445V29.207H196.445H206.445V13.1367L196.445 13.1367ZM196.445 29.207V19.207H184.457V29.207V39.207H196.445V29.207ZM184.457 29.207H174.457V35.1367H184.457H194.457V29.207H184.457ZM184.457 35.1367L184.571 45.1361C190.596 45.0676 195.807 44.7209 201.518 43.7488L199.84 33.8906L198.162 24.0324C193.775 24.7791 189.662 25.0769 184.343 25.1374L184.457 35.1367ZM199.84 33.8906L189.89 34.8933L190.449 40.4363L200.398 39.4336L210.348 38.4309L209.789 32.888L199.84 33.8906ZM200.398 39.4336L198.573 29.6017C193.493 30.5451 188.443 30.7656 181.062 30.7656V40.7656V50.7656C188.721 50.7656 195.273 50.5565 202.224 49.2655L200.398 39.4336ZM181.062 40.7656V30.7656H177.324V40.7656V50.7656H181.062V40.7656ZM177.324 40.7656H187.324V23.8359H177.324H167.324V40.7656H177.324ZM177.324 23.8359V33.8359H189.398V23.8359V13.8359H177.324V23.8359ZM189.398 23.8359H199.398V18.6367H189.398H179.398V23.8359H189.398ZM189.398 18.6367V8.63672H177.324V18.6367V28.6367H189.398V18.6367ZM177.324 18.6367H187.324V13.1367H177.324H167.324V18.6367H177.324ZM177.324 13.1367V23.1367H196.445V13.1367V3.13672L177.324 3.13672V13.1367ZM245.129 10.0859H255.129C255.129 4.56309 250.652 0.0859375 245.129 0.0859375V10.0859ZM245.129 21.6875H235.129C235.129 27.2103 239.606 31.6875 245.129 31.6875V21.6875ZM250.07 21.6875H260.07C260.07 16.1647 255.593 11.6875 250.07 11.6875V21.6875ZM250.07 27.2734V37.2734C255.593 37.2734 260.07 32.7963 260.07 27.2734H250.07ZM245.129 27.2734V17.2734C239.606 17.2734 235.129 21.7506 235.129 27.2734H245.129ZM245.129 39.6914V49.6914C250.652 49.6914 255.129 45.2143 255.129 39.6914H245.129ZM238.211 39.6914H228.211C228.211 45.2143 232.688 49.6914 238.211 49.6914V39.6914ZM238.211 10.0859V0.0859375C232.688 0.0859375 228.211 4.56309 228.211 10.0859L238.211 10.0859ZM236.793 13.8242H246.793C246.793 8.30137 242.316 3.82422 236.793 3.82422V13.8242ZM236.793 19.1523V29.1523C242.316 29.1523 246.793 24.6752 246.793 19.1523H236.793ZM213.289 19.1523L203.289 19.1523C203.289 24.6752 207.766 29.1523 213.289 29.1523V19.1523ZM213.289 13.8242V3.82422C207.766 3.82422 203.289 8.30137 203.289 13.8242L213.289 13.8242ZM221.582 13.8242V23.8242C227.105 23.8242 231.582 19.3471 231.582 13.8242H221.582ZM221.582 10V0C216.059 0 211.582 4.47715 211.582 10H221.582ZM228.5 10L238.5 10C238.5 4.47715 234.023 0 228.5 0V10ZM228.5 13.8242H218.5C218.5 19.3471 222.977 23.8242 228.5 23.8242V13.8242ZM225.02 35.6523L225.094 25.6526C225.044 25.6523 224.995 25.6523 224.946 25.6526L225.02 35.6523ZM225.02 25.2539L225.232 15.2562C225.089 15.2531 224.946 15.2532 224.802 15.2563L225.02 25.2539ZM246.289 43.6875H256.289C256.289 38.1647 251.812 33.6875 246.289 33.6875V43.6875ZM246.289 49.1875V59.1875C251.812 59.1875 256.289 54.7103 256.289 49.1875H246.289ZM218.789 49.1875H208.789C208.789 54.7103 213.266 59.1875 218.789 59.1875V49.1875ZM218.789 37.457V27.457C213.266 27.457 208.789 31.9342 208.789 37.457H218.789ZM225.707 37.457H235.707C235.707 31.9342 231.23 27.457 225.707 27.457V37.457ZM225.707 43.6875H215.707C215.707 49.2103 220.184 53.6875 225.707 53.6875V43.6875ZM245.129 10.0859L235.129 10.0859V21.6875H245.129H255.129V10.0859H245.129ZM245.129 21.6875V31.6875H250.07V21.6875V11.6875H245.129V21.6875ZM250.07 21.6875H240.07V27.2734H250.07H260.07V21.6875H250.07ZM250.07 27.2734V17.2734H245.129V27.2734V37.2734H250.07V27.2734ZM245.129 27.2734H235.129V39.6914H245.129H255.129V27.2734H245.129ZM245.129 39.6914V29.6914H238.211V39.6914V49.6914H245.129V39.6914ZM238.211 39.6914H248.211V10.0859H238.211L228.211 10.0859V39.6914H238.211ZM238.211 10.0859V20.0859H245.129V10.0859V0.0859375L238.211 0.0859375V10.0859ZM236.793 13.8242H226.793V19.1523H236.793H246.793V13.8242H236.793ZM236.793 19.1523V9.15234L213.289 9.15234V19.1523V29.1523H236.793V19.1523ZM213.289 19.1523H223.289V13.8242H213.289L203.289 13.8242V19.1523L213.289 19.1523ZM213.289 13.8242V23.8242H221.582V13.8242V3.82422L213.289 3.82422V13.8242ZM221.582 13.8242H231.582V10H221.582H211.582V13.8242H221.582ZM221.582 10V20H228.5V10V0H221.582V10ZM228.5 10H218.5V13.8242H228.5H238.5V10L228.5 10ZM228.5 13.8242V23.8242H236.793V13.8242V3.82422H228.5V13.8242ZM225.02 20.0547V30.0547C226.144 30.0547 226.31 30.3697 225.964 30.0968C225.774 29.9475 225.493 29.6587 225.266 29.2037C225.032 28.7368 224.945 28.2729 224.945 27.918H234.945H244.945C244.945 22.357 242.367 17.5637 238.352 14.3954C234.493 11.351 229.696 10.0547 225.02 10.0547V20.0547ZM234.945 27.918H224.945C224.945 27.5621 225.033 27.0793 225.282 26.5852C225.526 26.1028 225.829 25.7942 226.038 25.6324C226.417 25.3394 226.261 25.6613 225.094 25.6526L225.02 35.6523L224.945 45.6521C229.579 45.6864 234.386 44.4614 238.277 41.4506C242.348 38.3007 244.945 33.4973 244.945 27.918H234.945ZM225.02 35.6523L224.946 25.6526C223.741 25.6615 223.548 25.3307 223.907 25.6054C224.107 25.7591 224.412 26.0633 224.66 26.55C224.915 27.0498 225.008 27.5449 225.008 27.918H215.008H205.008C205.008 33.5383 207.652 38.3447 211.738 41.4776C215.641 44.4701 220.454 45.6862 225.093 45.6521L225.02 35.6523ZM215.008 27.918H225.008C225.008 28.29 224.916 28.7662 224.677 29.2388C224.445 29.6982 224.162 29.9827 223.981 30.1242C223.655 30.3793 223.856 30.0547 225.02 30.0547V20.0547V10.0547C216.085 10.0547 205.008 15.6025 205.008 27.918H215.008ZM225.02 25.2539L224.802 15.2563C222.715 15.3016 219.49 15.7513 216.574 17.9796C213.192 20.5634 211.754 24.3486 211.754 27.918H221.754H231.754C231.754 28.6625 231.618 29.7332 231.077 30.9136C230.52 32.1283 229.681 33.1346 228.717 33.871C226.94 35.2292 225.347 35.2491 225.237 35.2515L225.02 25.2539ZM221.754 27.918H211.754C211.754 31.492 213.205 35.3526 216.719 37.9382C219.71 40.1396 222.982 40.4961 225.02 40.4961V30.4961V20.4961C225.08 20.4961 226.719 20.4658 228.572 21.8294C229.587 22.5757 230.47 23.6099 231.054 24.8656C231.619 26.0805 231.754 27.1768 231.754 27.918H221.754ZM225.02 30.4961V40.4961C227.051 40.4961 230.258 40.1493 233.224 38.0657C236.75 35.5876 238.414 31.7381 238.414 27.918H228.414H218.414C218.414 27.0865 218.578 25.922 219.194 24.6692C219.824 23.3883 220.743 22.3918 221.725 21.7019C223.497 20.4562 225.007 20.4961 225.02 20.4961V30.4961ZM228.414 27.918H238.414C238.414 24.1082 236.768 20.3277 233.369 17.8474C230.474 15.7347 227.308 15.3003 225.232 15.2562L225.02 25.2539L224.807 35.2516C224.751 35.2505 223.282 35.2458 221.579 34.0032C220.645 33.321 219.771 32.3492 219.169 31.1087C218.579 29.8906 218.414 28.7524 218.414 27.918H228.414ZM246.289 43.6875H236.289V49.1875H246.289H256.289V43.6875H246.289ZM246.289 49.1875V39.1875H218.789V49.1875V59.1875H246.289V49.1875ZM218.789 49.1875H228.789V37.457H218.789H208.789V49.1875H218.789ZM218.789 37.457V47.457H225.707V37.457V27.457H218.789V37.457ZM225.707 37.457H215.707V43.6875H225.707H235.707V37.457H225.707ZM225.707 43.6875V53.6875H246.289V43.6875V33.6875H225.707V43.6875Z" fill="white" mask="url(#path-1-outside-1_6524_1895)"/>
</g>
<defs>
<filter id="filter0_d_6524_1895" x="0" y="0" width="264.07" height="67.875" filterUnits="userSpaceOnUse" color-interpolation-filters="sRGB">
<feFlood flood-opacity="0" result="BackgroundImageFix"/>
<feColorMatrix in="SourceAlpha" type="matrix" values="0 0 0 0 0 0 0 0 0 0 0 0 0 0 0 0 0 0 127 0" result="hardAlpha"/>
<feOffset dy="4"/>
<feGaussianBlur stdDeviation="2"/>
<feComposite in2="hardAlpha" operator="out"/>
<feColorMatrix type="matrix" values="0 0 0 0 0 0 0 0 0 0 0 0 0 0 0 0 0 0 0.07 0"/>
<feBlend mode="normal" in2="BackgroundImageFix" result="effect1_dropShadow_6524_1895"/>
<feBlend mode="normal" in="SourceGraphic" in2="effect1_dropShadow_6524_1895" result="shape"/>
</filter>
</defs>
</svg>
