<svg width="262" height="68" viewBox="0 0 262 68" fill="none" xmlns="http://www.w3.org/2000/svg">
<g filter="url(#filter0_d_6526_5762)">
<mask id="path-1-outside-1_6526_5762" maskUnits="userSpaceOnUse" x="3.71094" y="-0.464844" width="255" height="61" fill="black">
<rect fill="white" x="3.71094" y="-0.464844" width="255" height="61"/>
<path d="M47.4297 10.043V29.8945H40.5547V27.4883H32.4766V22.332H40.5547V19.7109H32.8203C30.3926 25.4473 25 28.9922 16.2773 30.7539L14 25.2109C22.5508 23.707 25.9453 20.5703 26.6758 16.7891H16.3633V11.332H34.3242C34.3242 12.4492 34.2598 13.5234 34.1523 14.5547H40.5547V10.043L47.4297 10.043ZM47.4297 31.0547V42.7422H27.5352V43.9883H47.9883V49.4023H20.6602V37.6719H40.5117V36.4258H20.6172V31.0547H47.4297ZM74.1562 13.7812V17.6484C74.1562 21.8164 74.1562 26.457 73.125 32.5586L66.3789 32.043C67.1738 26.8223 67.2598 22.9121 67.3242 19.2383H53.3164V13.7812H74.1562ZM64.5742 25.2109V36.3828C68.1621 36.2109 71.793 35.9531 75.1445 35.5234L75.5742 40.5938C67.5391 42.0117 58.7734 42.1406 51.8984 42.0977L51.3398 36.6836C53.3379 36.6621 55.5293 36.6406 57.8281 36.5977V25.2109H64.5742ZM83.6094 10.043V25.5977H88.3359V31.3125H83.6094V49.7891H76.6055V10.043H83.6094ZM122.711 11.9766V17.4336H115.621C116.201 20.8926 118.65 24.3945 124.559 25.8555L121.121 31.2266C116.738 30.0449 113.795 27.6172 112.055 24.5234C110.25 27.8965 107.199 30.582 102.602 31.9141L99.1211 26.543C105.244 24.8672 107.736 21.1504 108.359 17.4336H100.969V11.9766L122.711 11.9766ZM132.766 10.043V31.6562H125.848V10.043H132.766ZM112.484 33.1172V36.168H125.891V33.1172H132.766V49.4453H105.695V33.1172H112.484ZM112.484 43.9453H125.891V41.4102H112.484V43.9453ZM160.008 13.7812V19.1523H152.617C152.832 22.6113 155.109 26.3711 161.598 27.9609L158.461 33.375C154.057 32.2578 151.07 29.959 149.266 27.0156C147.525 30.2383 144.539 32.7734 139.984 33.9336L136.719 28.6055C143.164 26.9727 145.506 22.9121 145.742 19.1523H138.352V13.7812H145.742V10H152.66V13.7812H160.008ZM169.074 10.043V19.3672H174.016V25.082H169.074V34.4922H162.156V10.043H169.074ZM169.074 35.8672V49.832H162.156V41.2812H141.875V35.8672H169.074ZM198.336 11.9766V17.3906H191.117C191.461 21.4082 193.76 25.5332 199.754 27.4883L196.445 32.7734C192.17 31.5059 189.334 28.9492 187.637 25.7266C185.875 29.293 182.91 32.1504 178.355 33.5039L174.832 28.0898C181.234 26.1777 183.576 21.623 183.984 17.3906H176.723V11.9766H198.336ZM209.121 35.1797V49.7891H202.246V40.6367H181.492V35.1797H209.121ZM209.121 10.043V33.6758H202.246V24.6523H197.305V19.0664H202.246V10.043H209.121ZM246.848 10.1289V38.3594H239.93V10.1289H246.848ZM247.793 43.7305V49.2305H219.648V35.5234H226.609V43.7305H247.793ZM224.891 12.4922C231.078 12.4922 236.02 16.7891 236.02 22.6758C236.02 28.6914 231.078 32.9453 224.891 32.9453C218.703 32.9453 213.719 28.6914 213.762 22.6758C213.719 16.7891 218.703 12.4922 224.891 12.4922ZM224.891 18.4648C222.355 18.4648 220.465 19.8828 220.465 22.6758C220.465 25.5977 222.355 26.9727 224.891 26.9727C227.297 26.9727 229.188 25.5977 229.188 22.6758C229.188 19.8828 227.297 18.4648 224.891 18.4648Z"/>
</mask>
<path d="M47.4297 10.043V29.8945H40.5547V27.4883H32.4766V22.332H40.5547V19.7109H32.8203C30.3926 25.4473 25 28.9922 16.2773 30.7539L14 25.2109C22.5508 23.707 25.9453 20.5703 26.6758 16.7891H16.3633V11.332H34.3242C34.3242 12.4492 34.2598 13.5234 34.1523 14.5547H40.5547V10.043L47.4297 10.043ZM47.4297 31.0547V42.7422H27.5352V43.9883H47.9883V49.4023H20.6602V37.6719H40.5117V36.4258H20.6172V31.0547H47.4297ZM74.1562 13.7812V17.6484C74.1562 21.8164 74.1562 26.457 73.125 32.5586L66.3789 32.043C67.1738 26.8223 67.2598 22.9121 67.3242 19.2383H53.3164V13.7812H74.1562ZM64.5742 25.2109V36.3828C68.1621 36.2109 71.793 35.9531 75.1445 35.5234L75.5742 40.5938C67.5391 42.0117 58.7734 42.1406 51.8984 42.0977L51.3398 36.6836C53.3379 36.6621 55.5293 36.6406 57.8281 36.5977V25.2109H64.5742ZM83.6094 10.043V25.5977H88.3359V31.3125H83.6094V49.7891H76.6055V10.043H83.6094ZM122.711 11.9766V17.4336H115.621C116.201 20.8926 118.65 24.3945 124.559 25.8555L121.121 31.2266C116.738 30.0449 113.795 27.6172 112.055 24.5234C110.25 27.8965 107.199 30.582 102.602 31.9141L99.1211 26.543C105.244 24.8672 107.736 21.1504 108.359 17.4336H100.969V11.9766L122.711 11.9766ZM132.766 10.043V31.6562H125.848V10.043H132.766ZM112.484 33.1172V36.168H125.891V33.1172H132.766V49.4453H105.695V33.1172H112.484ZM112.484 43.9453H125.891V41.4102H112.484V43.9453ZM160.008 13.7812V19.1523H152.617C152.832 22.6113 155.109 26.3711 161.598 27.9609L158.461 33.375C154.057 32.2578 151.07 29.959 149.266 27.0156C147.525 30.2383 144.539 32.7734 139.984 33.9336L136.719 28.6055C143.164 26.9727 145.506 22.9121 145.742 19.1523H138.352V13.7812H145.742V10H152.66V13.7812H160.008ZM169.074 10.043V19.3672H174.016V25.082H169.074V34.4922H162.156V10.043H169.074ZM169.074 35.8672V49.832H162.156V41.2812H141.875V35.8672H169.074ZM198.336 11.9766V17.3906H191.117C191.461 21.4082 193.76 25.5332 199.754 27.4883L196.445 32.7734C192.17 31.5059 189.334 28.9492 187.637 25.7266C185.875 29.293 182.91 32.1504 178.355 33.5039L174.832 28.0898C181.234 26.1777 183.576 21.623 183.984 17.3906H176.723V11.9766H198.336ZM209.121 35.1797V49.7891H202.246V40.6367H181.492V35.1797H209.121ZM209.121 10.043V33.6758H202.246V24.6523H197.305V19.0664H202.246V10.043H209.121ZM246.848 10.1289V38.3594H239.93V10.1289H246.848ZM247.793 43.7305V49.2305H219.648V35.5234H226.609V43.7305H247.793ZM224.891 12.4922C231.078 12.4922 236.02 16.7891 236.02 22.6758C236.02 28.6914 231.078 32.9453 224.891 32.9453C218.703 32.9453 213.719 28.6914 213.762 22.6758C213.719 16.7891 218.703 12.4922 224.891 12.4922ZM224.891 18.4648C222.355 18.4648 220.465 19.8828 220.465 22.6758C220.465 25.5977 222.355 26.9727 224.891 26.9727C227.297 26.9727 229.188 25.5977 229.188 22.6758C229.188 19.8828 227.297 18.4648 224.891 18.4648Z" fill="#11DCA9"/>
<path d="M47.4297 10.043H57.4297C57.4297 4.52012 52.9525 0.0429687 47.4297 0.0429687V10.043ZM47.4297 29.8945V39.8945C52.9525 39.8945 57.4297 35.4174 57.4297 29.8945H47.4297ZM40.5547 29.8945H30.5547C30.5547 35.4174 35.0318 39.8945 40.5547 39.8945V29.8945ZM40.5547 27.4883H50.5547C50.5547 21.9654 46.0775 17.4883 40.5547 17.4883V27.4883ZM32.4766 27.4883H22.4766C22.4766 33.0111 26.9537 37.4883 32.4766 37.4883V27.4883ZM32.4766 22.332V12.332C26.9537 12.332 22.4766 16.8092 22.4766 22.332H32.4766ZM40.5547 22.332V32.332C46.0775 32.332 50.5547 27.8549 50.5547 22.332H40.5547ZM40.5547 19.7109H50.5547C50.5547 14.1881 46.0775 9.71094 40.5547 9.71094V19.7109ZM32.8203 19.7109V9.71094C28.8036 9.71094 25.1767 12.1143 23.6111 15.8134L32.8203 19.7109ZM16.2773 30.7539L7.0276 34.5542C8.84892 38.9872 13.5593 41.5048 18.2571 40.556L16.2773 30.7539ZM14 25.2109L12.2678 15.3621C9.28552 15.8866 6.70154 17.7342 5.2407 20.3866C3.77985 23.0389 3.59951 26.2104 4.75025 29.0112L14 25.2109ZM26.6758 16.7891L36.4943 18.6858C37.0603 15.7555 36.288 12.7256 34.3884 10.4238C32.4887 8.12205 29.6602 6.78906 26.6758 6.78906V16.7891ZM16.3633 16.7891H6.36328C6.36328 22.3119 10.8404 26.7891 16.3633 26.7891V16.7891ZM16.3633 11.332V1.33203C10.8404 1.33203 6.36328 5.80918 6.36328 11.332H16.3633ZM34.3242 11.332H44.3242C44.3242 5.80918 39.8471 1.33203 34.3242 1.33203V11.332ZM34.1523 14.5547L24.2062 13.5186C23.9127 16.3359 24.8277 19.1454 26.724 21.2494C28.6203 23.3535 31.3199 24.5547 34.1523 24.5547V14.5547ZM40.5547 14.5547V24.5547C46.0775 24.5547 50.5547 20.0775 50.5547 14.5547H40.5547ZM40.5547 10.043V0.0429687C35.0318 0.0429687 30.5547 4.52012 30.5547 10.043H40.5547ZM47.4297 31.0547H57.4297C57.4297 25.5318 52.9525 21.0547 47.4297 21.0547V31.0547ZM47.4297 42.7422V52.7422C52.9525 52.7422 57.4297 48.265 57.4297 42.7422H47.4297ZM27.5352 42.7422V32.7422C22.0123 32.7422 17.5352 37.2193 17.5352 42.7422H27.5352ZM27.5352 43.9883H17.5352C17.5352 49.5111 22.0123 53.9883 27.5352 53.9883V43.9883ZM47.9883 43.9883H57.9883C57.9883 38.4654 53.5111 33.9883 47.9883 33.9883V43.9883ZM47.9883 49.4023V59.4023C53.5111 59.4023 57.9883 54.9252 57.9883 49.4023H47.9883ZM20.6602 49.4023H10.6602C10.6602 54.9252 15.1373 59.4023 20.6602 59.4023V49.4023ZM20.6602 37.6719V27.6719C15.1373 27.6719 10.6602 32.149 10.6602 37.6719H20.6602ZM40.5117 37.6719V47.6719C46.0346 47.6719 50.5117 43.1947 50.5117 37.6719H40.5117ZM40.5117 36.4258H50.5117C50.5117 30.9029 46.0346 26.4258 40.5117 26.4258V36.4258ZM20.6172 36.4258H10.6172C10.6172 41.9486 15.0943 46.4258 20.6172 46.4258V36.4258ZM20.6172 31.0547V21.0547C15.0943 21.0547 10.6172 25.5318 10.6172 31.0547H20.6172ZM47.4297 10.043L37.4297 10.043V29.8945H47.4297H57.4297V10.043H47.4297ZM47.4297 29.8945V19.8945H40.5547V29.8945V39.8945H47.4297V29.8945ZM40.5547 29.8945H50.5547V27.4883H40.5547H30.5547V29.8945H40.5547ZM40.5547 27.4883V17.4883H32.4766V27.4883V37.4883H40.5547V27.4883ZM32.4766 27.4883H42.4766V22.332H32.4766H22.4766V27.4883H32.4766ZM32.4766 22.332V32.332H40.5547V22.332V12.332H32.4766V22.332ZM40.5547 22.332H50.5547V19.7109H40.5547H30.5547V22.332H40.5547ZM40.5547 19.7109V9.71094H32.8203V19.7109V29.7109H40.5547V19.7109ZM32.8203 19.7109L23.6111 15.8134C22.9919 17.2765 21.3634 19.5247 14.2976 20.9518L16.2773 30.7539L18.2571 40.556C28.6366 38.4596 37.7933 33.618 42.0295 23.6085L32.8203 19.7109ZM16.2773 30.7539L25.5271 26.9536L23.2497 21.4107L14 25.2109L4.75025 29.0112L7.0276 34.5542L16.2773 30.7539ZM14 25.2109L15.7322 35.0598C25.6563 33.3143 34.5604 28.6964 36.4943 18.6858L26.6758 16.7891L16.8573 14.8923C16.9057 14.6419 17.0207 14.321 17.2164 14.0214C17.4061 13.7308 17.5449 13.6542 17.4315 13.7358C17.1007 13.9736 15.7388 14.7516 12.2678 15.3621L14 25.2109ZM26.6758 16.7891V6.78906H16.3633V16.7891V26.7891H26.6758V16.7891ZM16.3633 16.7891H26.3633V11.332H16.3633H6.36328L6.36328 16.7891H16.3633ZM16.3633 11.332V21.332H34.3242V11.332V1.33203L16.3633 1.33203V11.332ZM34.3242 11.332H24.3242C24.3242 12.0637 24.2821 12.7899 24.2062 13.5186L34.1523 14.5547L44.0985 15.5907C44.2375 14.257 44.3242 12.8348 44.3242 11.332H34.3242ZM34.1523 14.5547V24.5547H40.5547V14.5547V4.55469H34.1523V14.5547ZM40.5547 14.5547H50.5547V10.043L40.5547 10.043H30.5547V14.5547H40.5547ZM40.5547 10.043V20.043H47.4297V10.043V0.0429687H40.5547V10.043ZM47.4297 31.0547H37.4297V42.7422H47.4297H57.4297V31.0547H47.4297ZM47.4297 42.7422V32.7422H27.5352V42.7422V52.7422H47.4297V42.7422ZM27.5352 42.7422H17.5352V43.9883H27.5352H37.5352V42.7422H27.5352ZM27.5352 43.9883V53.9883H47.9883V43.9883V33.9883H27.5352V43.9883ZM47.9883 43.9883H37.9883V49.4023H47.9883H57.9883V43.9883H47.9883ZM47.9883 49.4023V39.4023H20.6602V49.4023V59.4023H47.9883V49.4023ZM20.6602 49.4023H30.6602V37.6719H20.6602H10.6602V49.4023H20.6602ZM20.6602 37.6719V47.6719H40.5117V37.6719V27.6719H20.6602V37.6719ZM40.5117 37.6719H50.5117V36.4258H40.5117H30.5117V37.6719H40.5117ZM40.5117 36.4258V26.4258H20.6172V36.4258V46.4258H40.5117V36.4258ZM20.6172 36.4258H30.6172V31.0547H20.6172H10.6172V36.4258H20.6172ZM20.6172 31.0547V41.0547H47.4297V31.0547V21.0547H20.6172V31.0547ZM74.1562 13.7812L84.1562 13.7812C84.1562 8.2584 79.6791 3.78125 74.1562 3.78125V13.7812ZM73.125 32.5586L72.3629 42.5295C77.518 42.9235 82.1236 39.323 82.9852 34.2251L73.125 32.5586ZM66.3789 32.043L56.4929 30.5377C56.0741 33.288 56.82 36.0885 58.5513 38.2662C60.2826 40.4439 62.8428 41.8019 65.6168 42.0139L66.3789 32.043ZM67.3242 19.2383L77.3227 19.4137C77.3697 16.7315 76.3372 14.1429 74.457 12.2295C72.5769 10.3161 70.0068 9.23828 67.3242 9.23828V19.2383ZM53.3164 19.2383H43.3164C43.3164 24.7611 47.7936 29.2383 53.3164 29.2383V19.2383ZM53.3164 13.7812V3.78125C47.7936 3.78125 43.3164 8.2584 43.3164 13.7812H53.3164ZM64.5742 25.2109H74.5742C74.5742 19.6881 70.0971 15.2109 64.5742 15.2109V25.2109ZM64.5742 36.3828H54.5742C54.5742 39.118 55.6946 41.7338 57.6744 43.6211C59.6542 45.5083 62.3206 46.5022 65.0527 46.3714L64.5742 36.3828ZM75.1445 35.5234L85.1088 34.679C84.8786 31.9621 83.5489 29.457 81.4276 27.7438C79.3063 26.0306 76.5774 25.2579 73.8729 25.6046L75.1445 35.5234ZM75.5742 40.5938L77.3121 50.4416C82.4074 49.5424 85.9754 44.9049 85.5385 39.7493L75.5742 40.5938ZM51.8984 42.0977L41.9512 43.124C42.4748 48.1986 46.7344 52.0656 51.8359 52.0975L51.8984 42.0977ZM51.3398 36.6836L51.2323 26.6842C48.4204 26.7144 45.7512 27.9272 43.8789 30.0252C42.0065 32.1233 41.104 34.9127 41.3926 37.7099L51.3398 36.6836ZM57.8281 36.5977L58.015 46.5959C63.4641 46.4941 67.8281 42.0477 67.8281 36.5977H57.8281ZM57.8281 25.2109V15.2109C52.3053 15.2109 47.8281 19.6881 47.8281 25.2109H57.8281ZM83.6094 10.043H93.6094C93.6094 4.52012 89.1322 0.0429687 83.6094 0.0429687V10.043ZM83.6094 25.5977L73.6094 25.5977C73.6094 31.1205 78.0865 35.5977 83.6094 35.5977V25.5977ZM88.3359 25.5977H98.3359C98.3359 20.0748 93.8588 15.5977 88.3359 15.5977V25.5977ZM88.3359 31.3125V41.3125C93.8588 41.3125 98.3359 36.8353 98.3359 31.3125H88.3359ZM83.6094 31.3125V21.3125C78.0865 21.3125 73.6094 25.7897 73.6094 31.3125H83.6094ZM83.6094 49.7891V59.7891C89.1322 59.7891 93.6094 55.3119 93.6094 49.7891H83.6094ZM76.6055 49.7891H66.6055C66.6055 55.3119 71.0826 59.7891 76.6055 59.7891V49.7891ZM76.6055 10.043V0.0429687C71.0826 0.0429687 66.6055 4.52012 66.6055 10.043H76.6055ZM74.1562 13.7812H64.1562V17.6484H74.1562L84.1562 17.6484V13.7812L74.1562 13.7812ZM74.1562 17.6484H64.1562C64.1562 21.7496 64.1467 25.6747 63.2648 30.8921L73.125 32.5586L82.9852 34.2251C84.1658 27.2394 84.1562 21.8832 84.1562 17.6484L74.1562 17.6484ZM73.125 32.5586L73.8871 22.5877L67.141 22.0721L66.3789 32.043L65.6168 42.0139L72.3629 42.5295L73.125 32.5586ZM66.3789 32.043L76.265 33.5483C77.1648 27.6383 77.2566 23.178 77.3227 19.4137L67.3242 19.2383L57.3258 19.0629C57.2629 22.6462 57.1828 26.0063 56.4929 30.5377L66.3789 32.043ZM67.3242 19.2383V9.23828H53.3164V19.2383V29.2383H67.3242V19.2383ZM53.3164 19.2383H63.3164V13.7812H53.3164H43.3164V19.2383H53.3164ZM53.3164 13.7812V23.7812H74.1562V13.7812V3.78125L53.3164 3.78125V13.7812ZM64.5742 25.2109H54.5742V36.3828H64.5742H74.5742V25.2109H64.5742ZM64.5742 36.3828L65.0527 46.3714C68.7693 46.1933 72.6937 45.9195 76.4162 45.4423L75.1445 35.5234L73.8729 25.6046C70.8922 25.9868 67.5549 26.2286 64.0957 26.3943L64.5742 36.3828ZM75.1445 35.5234L65.1802 36.3679L65.6099 41.4382L75.5742 40.5938L85.5385 39.7493L85.1088 34.679L75.1445 35.5234ZM75.5742 40.5938L73.8364 30.7459C66.7591 31.9949 58.7714 32.1404 51.9609 32.0979L51.8984 42.0977L51.8359 52.0975C58.7754 52.1408 68.3191 52.0286 77.3121 50.4416L75.5742 40.5938ZM51.8984 42.0977L61.8456 41.0714L61.287 35.6573L51.3398 36.6836L41.3926 37.7099L41.9512 43.124L51.8984 42.0977ZM51.3398 36.6836L51.4474 46.683C53.4314 46.6617 55.6677 46.6398 58.015 46.5959L57.8281 36.5977L57.6412 26.5994C55.3909 26.6415 53.2444 26.6625 51.2323 26.6842L51.3398 36.6836ZM57.8281 36.5977H67.8281V25.2109H57.8281H47.8281V36.5977H57.8281ZM57.8281 25.2109V35.2109H64.5742V25.2109V15.2109H57.8281V25.2109ZM83.6094 10.043H73.6094V25.5977L83.6094 25.5977H93.6094V10.043H83.6094ZM83.6094 25.5977V35.5977H88.3359V25.5977V15.5977H83.6094V25.5977ZM88.3359 25.5977H78.3359V31.3125H88.3359H98.3359V25.5977H88.3359ZM88.3359 31.3125V21.3125H83.6094V31.3125V41.3125H88.3359V31.3125ZM83.6094 31.3125H73.6094V49.7891H83.6094H93.6094V31.3125H83.6094ZM83.6094 49.7891V39.7891H76.6055V49.7891V59.7891H83.6094V49.7891ZM76.6055 49.7891H86.6055V10.043H76.6055H66.6055V49.7891H76.6055ZM76.6055 10.043V20.043L83.6094 20.043V10.043V0.0429687H76.6055V10.043ZM122.711 11.9766H132.711C132.711 6.45372 128.234 1.97656 122.711 1.97656V11.9766ZM122.711 17.4336V27.4336C128.234 27.4336 132.711 22.9564 132.711 17.4336H122.711ZM115.621 17.4336V7.43359C112.68 7.43359 109.888 8.72847 107.988 10.9737C106.088 13.2189 105.272 16.1867 105.759 19.0875L115.621 17.4336ZM124.559 25.8555L132.981 31.246C134.719 28.5309 135.041 25.1447 133.847 22.1506C132.653 19.1564 130.088 16.9216 126.959 16.1478L124.559 25.8555ZM121.121 31.2266L118.518 40.8818C122.73 42.0174 127.192 40.2915 129.544 36.6171L121.121 31.2266ZM112.055 24.5234L120.77 19.6208C118.981 16.4391 115.599 14.4855 111.949 14.524C108.299 14.5625 104.96 16.5871 103.237 19.8059L112.055 24.5234ZM102.602 31.9141L94.2095 37.3521C96.6079 41.0535 101.148 42.7464 105.384 41.5191L102.602 31.9141ZM99.1211 26.543L96.4813 16.8977C93.4046 17.7397 90.9142 19.9991 89.7775 22.9796C88.6408 25.9601 88.9943 29.3041 90.729 31.981L99.1211 26.543ZM108.359 17.4336L118.222 19.0868C118.708 16.1861 117.893 13.2185 115.993 10.9734C114.093 8.72836 111.301 7.43359 108.359 7.43359V17.4336ZM100.969 17.4336H90.9688C90.9688 22.9564 95.4459 27.4336 100.969 27.4336V17.4336ZM100.969 11.9766V1.97656C95.4459 1.97656 90.9688 6.45372 90.9688 11.9766H100.969ZM132.766 10.043H142.766C142.766 4.52012 138.288 0.0429687 132.766 0.0429687V10.043ZM132.766 31.6562V41.6562C138.288 41.6562 142.766 37.1791 142.766 31.6562L132.766 31.6562ZM125.848 31.6562H115.848C115.848 37.1791 120.325 41.6562 125.848 41.6562V31.6562ZM125.848 10.043V0.0429687C120.325 0.0429687 115.848 4.52012 115.848 10.043H125.848ZM112.484 33.1172H122.484C122.484 27.5943 118.007 23.1172 112.484 23.1172V33.1172ZM112.484 36.168H102.484C102.484 41.6908 106.962 46.168 112.484 46.168V36.168ZM125.891 36.168V46.168C131.413 46.168 135.891 41.6908 135.891 36.168H125.891ZM125.891 33.1172V23.1172C120.368 23.1172 115.891 27.5943 115.891 33.1172H125.891ZM132.766 33.1172L142.766 33.1172C142.766 27.5943 138.288 23.1172 132.766 23.1172V33.1172ZM132.766 49.4453V59.4453C138.288 59.4453 142.766 54.9682 142.766 49.4453L132.766 49.4453ZM105.695 49.4453H95.6953C95.6953 54.9682 100.172 59.4453 105.695 59.4453V49.4453ZM105.695 33.1172V23.1172C100.172 23.1172 95.6953 27.5943 95.6953 33.1172H105.695ZM112.484 43.9453H102.484C102.484 49.4682 106.962 53.9453 112.484 53.9453V43.9453ZM125.891 43.9453V53.9453C131.413 53.9453 135.891 49.4682 135.891 43.9453H125.891ZM125.891 41.4102H135.891C135.891 35.8873 131.413 31.4102 125.891 31.4102V41.4102ZM112.484 41.4102V31.4102C106.962 31.4102 102.484 35.8873 102.484 41.4102H112.484ZM122.711 11.9766H112.711V17.4336H122.711H132.711V11.9766H122.711ZM122.711 17.4336V7.43359H115.621V17.4336V27.4336H122.711V17.4336ZM115.621 17.4336L105.759 19.0875C107.038 26.7132 112.616 33.2036 122.158 35.5631L124.559 25.8555L126.959 16.1478C126.229 15.9674 125.794 15.7706 125.568 15.646C125.348 15.5252 125.295 15.4572 125.324 15.4875C125.353 15.5181 125.401 15.5812 125.44 15.6631C125.476 15.7379 125.484 15.7832 125.483 15.7797L115.621 17.4336ZM124.559 25.8555L116.136 20.4649L112.698 25.836L121.121 31.2266L129.544 36.6171L132.981 31.246L124.559 25.8555ZM121.121 31.2266L123.724 21.5713C122.667 21.2864 122.031 20.9219 121.649 20.6315C121.272 20.3451 120.994 20.0185 120.77 19.6208L112.055 24.5234L103.339 29.426C106.472 34.9952 111.695 39.0423 118.518 40.8818L121.121 31.2266ZM112.055 24.5234L103.237 19.8059C102.72 20.772 101.863 21.7168 99.8188 22.3091L102.602 31.9141L105.384 41.5191C112.535 39.4473 117.78 35.0209 120.872 29.241L112.055 24.5234ZM102.602 31.9141L110.994 26.476L107.513 21.1049L99.1211 26.543L90.729 31.981L94.2095 37.3521L102.602 31.9141ZM99.1211 26.543L101.761 36.1883C106.34 34.935 110.244 32.7151 113.182 29.5025C116.118 26.2921 117.635 22.5864 118.222 19.0868L108.359 17.4336L98.497 15.7804C98.476 15.9055 98.4508 15.9637 98.4453 15.9755C98.4433 15.9797 98.443 15.9835 98.4235 16.0048C98.4042 16.0259 98.3018 16.1345 98.0335 16.2905C97.7579 16.4508 97.2706 16.6817 96.4813 16.8977L99.1211 26.543ZM108.359 17.4336V7.43359H100.969V17.4336V27.4336H108.359V17.4336ZM100.969 17.4336H110.969V11.9766L100.969 11.9766H90.9688V17.4336H100.969ZM100.969 11.9766V21.9766H122.711V11.9766V1.97656H100.969V11.9766ZM132.766 10.043H122.766V31.6562H132.766L142.766 31.6562V10.043H132.766ZM132.766 31.6562V21.6562H125.848V31.6562V41.6562H132.766V31.6562ZM125.848 31.6562H135.848V10.043H125.848H115.848V31.6562H125.848ZM125.848 10.043V20.043H132.766V10.043V0.0429687L125.848 0.0429687V10.043ZM112.484 33.1172H102.484V36.168H112.484H122.484V33.1172H112.484ZM112.484 36.168V46.168H125.891V36.168V26.168H112.484V36.168ZM125.891 36.168H135.891V33.1172H125.891H115.891V36.168H125.891ZM125.891 33.1172V43.1172H132.766V33.1172V23.1172H125.891V33.1172ZM132.766 33.1172H122.766V49.4453H132.766L142.766 49.4453V33.1172L132.766 33.1172ZM132.766 49.4453V39.4453H105.695V49.4453V59.4453H132.766V49.4453ZM105.695 49.4453H115.695V33.1172H105.695H95.6953V49.4453H105.695ZM105.695 33.1172V43.1172H112.484V33.1172V23.1172H105.695V33.1172ZM112.484 43.9453V53.9453H125.891V43.9453V33.9453H112.484V43.9453ZM125.891 43.9453H135.891V41.4102H125.891H115.891V43.9453H125.891ZM125.891 41.4102V31.4102H112.484V41.4102V51.4102H125.891V41.4102ZM112.484 41.4102H102.484V43.9453H112.484H122.484V41.4102H112.484ZM160.008 13.7812H170.008C170.008 8.2584 165.531 3.78125 160.008 3.78125V13.7812ZM160.008 19.1523V29.1523C165.531 29.1523 170.008 24.6752 170.008 19.1523H160.008ZM152.617 19.1523V9.15234C149.857 9.15234 147.22 10.2929 145.33 12.304C143.44 14.315 142.465 17.0178 142.636 19.7723L152.617 19.1523ZM161.598 27.9609L170.25 32.974C171.829 30.249 172.032 26.9394 170.798 24.0419C169.564 21.1445 167.036 18.9978 163.978 18.2483L161.598 27.9609ZM158.461 33.375L156.002 43.068C160.336 44.1673 164.872 42.2565 167.114 38.3881L158.461 33.375ZM149.266 27.0156L157.791 21.7885C155.921 18.7397 152.566 16.9212 148.991 17.0194C145.416 17.1175 142.166 19.1173 140.467 22.2641L149.266 27.0156ZM139.984 33.9336L131.458 39.1592C133.749 42.8961 138.205 44.706 142.453 43.6242L139.984 33.9336ZM136.719 28.6055L134.263 18.9117C131.181 19.6924 128.654 21.892 127.456 24.8368C126.258 27.7815 126.531 31.1205 128.193 33.8311L136.719 28.6055ZM145.742 19.1523L155.722 19.7797C155.896 17.024 154.922 14.3194 153.032 12.3067C151.142 10.294 148.503 9.15234 145.742 9.15234V19.1523ZM138.352 19.1523H128.352C128.352 24.6752 132.829 29.1523 138.352 29.1523V19.1523ZM138.352 13.7812V3.78125C132.829 3.78125 128.352 8.2584 128.352 13.7812H138.352ZM145.742 13.7812V23.7812C151.265 23.7812 155.742 19.3041 155.742 13.7812H145.742ZM145.742 10V0C140.219 0 135.742 4.47715 135.742 10H145.742ZM152.66 10H162.66C162.66 4.47715 158.183 0 152.66 0V10ZM152.66 13.7812H142.66C142.66 19.3041 147.137 23.7812 152.66 23.7812V13.7812ZM169.074 10.043L179.074 10.043C179.074 4.52012 174.597 0.0429687 169.074 0.0429687V10.043ZM169.074 19.3672H159.074C159.074 24.89 163.551 29.3672 169.074 29.3672V19.3672ZM174.016 19.3672H184.016C184.016 13.8443 179.538 9.36719 174.016 9.36719V19.3672ZM174.016 25.082V35.082C179.538 35.082 184.016 30.6049 184.016 25.082H174.016ZM169.074 25.082V15.082C163.551 15.082 159.074 19.5592 159.074 25.082H169.074ZM169.074 34.4922V44.4922C174.597 44.4922 179.074 40.015 179.074 34.4922H169.074ZM162.156 34.4922H152.156C152.156 40.015 156.633 44.4922 162.156 44.4922V34.4922ZM162.156 10.043V0.0429687C156.633 0.0429687 152.156 4.52012 152.156 10.043H162.156ZM169.074 35.8672H179.074C179.074 30.3443 174.597 25.8672 169.074 25.8672V35.8672ZM169.074 49.832V59.832C174.597 59.832 179.074 55.3549 179.074 49.832H169.074ZM162.156 49.832H152.156C152.156 55.3549 156.633 59.832 162.156 59.832V49.832ZM162.156 41.2812H172.156C172.156 35.7584 167.679 31.2812 162.156 31.2812V41.2812ZM141.875 41.2812L131.875 41.2812C131.875 46.8041 136.352 51.2812 141.875 51.2812V41.2812ZM141.875 35.8672V25.8672C136.352 25.8672 131.875 30.3443 131.875 35.8672L141.875 35.8672ZM160.008 13.7812H150.008V19.1523H160.008H170.008V13.7812H160.008ZM160.008 19.1523V9.15234H152.617V19.1523V29.1523H160.008V19.1523ZM152.617 19.1523L142.636 19.7723C142.869 23.5139 144.25 27.5176 147.306 30.9296C150.335 34.3115 154.463 36.5086 159.218 37.6736L161.598 27.9609L163.978 18.2483C162.244 17.8235 161.989 17.3458 162.204 17.5855C162.294 17.6862 162.403 17.8484 162.485 18.0542C162.563 18.2495 162.591 18.4174 162.598 18.5324L152.617 19.1523ZM161.598 27.9609L152.945 22.9479L149.808 28.3619L158.461 33.375L167.114 38.3881L170.25 32.974L161.598 27.9609ZM158.461 33.375L160.92 23.682C159.791 23.3956 159.098 23.0253 158.682 22.7292C158.274 22.4394 158 22.1291 157.791 21.7885L149.266 27.0156L140.741 32.2427C144.031 37.6091 149.309 41.3701 156.002 43.068L158.461 33.375ZM149.266 27.0156L140.467 22.2641C140.225 22.7119 139.938 23.0486 139.577 23.327C139.213 23.6071 138.59 23.9694 137.516 24.243L139.984 33.9336L142.453 43.6242C149.63 41.796 154.956 37.5245 158.065 31.7671L149.266 27.0156ZM139.984 33.9336L148.51 28.708L145.245 23.3798L136.719 28.6055L128.193 33.8311L131.458 39.1592L139.984 33.9336ZM136.719 28.6055L139.175 38.2992C144.074 37.0581 148.225 34.6643 151.212 31.113C154.181 27.5826 155.488 23.5133 155.722 19.7797L145.742 19.1523L135.762 18.525C135.76 18.5512 135.778 18.392 135.906 18.24C135.951 18.1859 135.923 18.2431 135.719 18.3642C135.505 18.4905 135.057 18.7104 134.263 18.9117L136.719 28.6055ZM145.742 19.1523V9.15234H138.352V19.1523V29.1523L145.742 29.1523V19.1523ZM138.352 19.1523H148.352V13.7812H138.352H128.352V19.1523H138.352ZM138.352 13.7812V23.7812H145.742V13.7812V3.78125H138.352V13.7812ZM145.742 13.7812H155.742V10H145.742H135.742V13.7812H145.742ZM145.742 10V20H152.66V10V0L145.742 0V10ZM152.66 10H142.66V13.7812H152.66H162.66V10H152.66ZM152.66 13.7812V23.7812H160.008V13.7812V3.78125L152.66 3.78125V13.7812ZM169.074 10.043H159.074V19.3672H169.074H179.074V10.043L169.074 10.043ZM169.074 19.3672V29.3672H174.016V19.3672V9.36719L169.074 9.36719V19.3672ZM174.016 19.3672H164.016V25.082H174.016H184.016V19.3672H174.016ZM174.016 25.082V15.082H169.074V25.082V35.082H174.016V25.082ZM169.074 25.082H159.074V34.4922H169.074H179.074V25.082H169.074ZM169.074 34.4922V24.4922H162.156V34.4922V44.4922H169.074V34.4922ZM162.156 34.4922H172.156V10.043H162.156H152.156V34.4922H162.156ZM162.156 10.043V20.043H169.074V10.043V0.0429687L162.156 0.0429687V10.043ZM169.074 35.8672H159.074V49.832H169.074H179.074V35.8672H169.074ZM169.074 49.832V39.832H162.156V49.832V59.832H169.074V49.832ZM162.156 49.832H172.156V41.2812H162.156H152.156V49.832H162.156ZM162.156 41.2812V31.2812H141.875V41.2812V51.2812H162.156V41.2812ZM141.875 41.2812H151.875V35.8672H141.875L131.875 35.8672V41.2812L141.875 41.2812ZM141.875 35.8672V45.8672H169.074V35.8672V25.8672H141.875V35.8672ZM198.336 11.9766H208.336C208.336 6.45372 203.859 1.97656 198.336 1.97656V11.9766ZM198.336 17.3906V27.3906C203.859 27.3906 208.336 22.9135 208.336 17.3906L198.336 17.3906ZM191.117 17.3906V7.39062C188.317 7.39062 185.645 8.56484 183.751 10.6277C181.857 12.6905 180.915 15.4529 181.154 18.2431L191.117 17.3906ZM199.754 27.4883L208.23 32.7945C209.863 30.1858 210.204 26.9704 209.154 24.0772C208.104 21.1841 205.781 18.9356 202.855 17.9812L199.754 27.4883ZM196.445 32.7734L193.603 42.3609C197.909 43.6376 202.538 41.8867 204.921 38.0796L196.445 32.7734ZM187.637 25.7266L196.485 21.0667C194.733 17.7412 191.265 15.6787 187.507 15.7274C183.749 15.7761 180.336 17.928 178.671 21.2977L187.637 25.7266ZM178.355 33.5039L169.974 38.9585C172.39 42.6702 176.959 44.3511 181.204 43.0896L178.355 33.5039ZM174.832 28.0898L171.97 18.508C168.949 19.4102 166.531 21.6842 165.445 24.6438C164.358 27.6034 164.731 30.902 166.451 33.5444L174.832 28.0898ZM183.984 17.3906L193.938 18.3506C194.209 15.5445 193.282 12.7545 191.387 10.6675C189.492 8.58059 186.804 7.39062 183.984 7.39062V17.3906ZM176.723 17.3906H166.723C166.723 22.9135 171.2 27.3906 176.723 27.3906V17.3906ZM176.723 11.9766V1.97656C171.2 1.97656 166.723 6.45372 166.723 11.9766L176.723 11.9766ZM209.121 35.1797H219.121C219.121 29.6568 214.644 25.1797 209.121 25.1797V35.1797ZM209.121 49.7891V59.7891C214.644 59.7891 219.121 55.3119 219.121 49.7891H209.121ZM202.246 49.7891H192.246C192.246 55.3119 196.723 59.7891 202.246 59.7891V49.7891ZM202.246 40.6367H212.246C212.246 35.1139 207.769 30.6367 202.246 30.6367V40.6367ZM181.492 40.6367H171.492C171.492 46.1596 175.969 50.6367 181.492 50.6367V40.6367ZM181.492 35.1797V25.1797C175.969 25.1797 171.492 29.6568 171.492 35.1797H181.492ZM209.121 10.043H219.121C219.121 4.52012 214.644 0.0429687 209.121 0.0429687V10.043ZM209.121 33.6758V43.6758C214.644 43.6758 219.121 39.1986 219.121 33.6758H209.121ZM202.246 33.6758H192.246C192.246 39.1986 196.723 43.6758 202.246 43.6758V33.6758ZM202.246 24.6523L212.246 24.6523C212.246 19.1295 207.769 14.6523 202.246 14.6523V24.6523ZM197.305 24.6523H187.305C187.305 30.1752 191.782 34.6523 197.305 34.6523V24.6523ZM197.305 19.0664V9.06641C191.782 9.06641 187.305 13.5436 187.305 19.0664H197.305ZM202.246 19.0664V29.0664C207.769 29.0664 212.246 24.5893 212.246 19.0664L202.246 19.0664ZM202.246 10.043V0.0429687C196.723 0.0429687 192.246 4.52012 192.246 10.043H202.246ZM198.336 11.9766H188.336V17.3906H198.336L208.336 17.3906V11.9766H198.336ZM198.336 17.3906V7.39062H191.117V17.3906V27.3906H198.336V17.3906ZM191.117 17.3906L181.154 18.2431C181.462 21.8521 182.682 25.7871 185.389 29.3083C188.129 32.8714 191.978 35.4706 196.653 36.9954L199.754 27.4883L202.855 17.9812C202.166 17.7567 201.765 17.5295 201.553 17.3852C201.347 17.245 201.268 17.1481 201.244 17.1175C201.218 17.083 201.116 16.9467 201.081 16.5381L191.117 17.3906ZM199.754 27.4883L191.278 22.1821L187.969 27.4673L196.445 32.7734L204.921 38.0796L208.23 32.7945L199.754 27.4883ZM196.445 32.7734L199.288 23.1859C198.355 22.9093 197.792 22.5615 197.437 22.2684C197.078 21.9725 196.762 21.593 196.485 21.0667L187.637 25.7266L178.789 30.3865C181.725 35.9617 186.709 40.317 193.603 42.3609L196.445 32.7734ZM187.637 25.7266L178.671 21.2977C178.046 22.5634 177.193 23.4173 175.507 23.9182L178.355 33.5039L181.204 43.0896C188.628 40.8835 193.704 36.0225 196.602 30.1554L187.637 25.7266ZM178.355 33.5039L186.737 28.0493L183.213 22.6353L174.832 28.0898L166.451 33.5444L169.974 38.9585L178.355 33.5039ZM174.832 28.0898L177.694 37.6716C182.764 36.1572 186.816 33.3799 189.642 29.6283C192.402 25.9661 193.595 21.9137 193.938 18.3506L183.984 17.3906L174.031 16.4306C173.966 17.0999 173.783 17.4412 173.67 17.5924C173.612 17.6687 173.51 17.7833 173.302 17.9243C173.088 18.0689 172.68 18.296 171.97 18.508L174.832 28.0898ZM183.984 17.3906V7.39062H176.723V17.3906V27.3906H183.984V17.3906ZM176.723 17.3906H186.723V11.9766H176.723L166.723 11.9766V17.3906H176.723ZM176.723 11.9766V21.9766H198.336V11.9766V1.97656L176.723 1.97656V11.9766ZM209.121 35.1797H199.121V49.7891H209.121H219.121V35.1797H209.121ZM209.121 49.7891V39.7891H202.246V49.7891V59.7891H209.121V49.7891ZM202.246 49.7891H212.246V40.6367H202.246H192.246V49.7891H202.246ZM202.246 40.6367V30.6367H181.492V40.6367V50.6367H202.246V40.6367ZM181.492 40.6367H191.492V35.1797H181.492H171.492V40.6367H181.492ZM181.492 35.1797V45.1797H209.121V35.1797V25.1797L181.492 25.1797V35.1797ZM209.121 10.043H199.121V33.6758H209.121H219.121V10.043H209.121ZM209.121 33.6758V23.6758L202.246 23.6758V33.6758V43.6758H209.121V33.6758ZM202.246 33.6758H212.246V24.6523L202.246 24.6523H192.246V33.6758H202.246ZM202.246 24.6523V14.6523H197.305V24.6523V34.6523H202.246V24.6523ZM197.305 24.6523L207.305 24.6523V19.0664L197.305 19.0664H187.305V24.6523H197.305ZM197.305 19.0664V29.0664H202.246V19.0664V9.06641H197.305V19.0664ZM202.246 19.0664L212.246 19.0664V10.043H202.246H192.246V19.0664H202.246ZM202.246 10.043V20.043L209.121 20.043V10.043V0.0429687H202.246V10.043ZM246.848 10.1289H256.848C256.848 4.60606 252.37 0.128906 246.848 0.128906V10.1289ZM246.848 38.3594V48.3594C252.37 48.3594 256.848 43.8822 256.848 38.3594H246.848ZM239.93 38.3594H229.93C229.93 43.8822 234.407 48.3594 239.93 48.3594V38.3594ZM239.93 10.1289V0.128906C234.407 0.128906 229.93 4.60606 229.93 10.1289L239.93 10.1289ZM247.793 43.7305H257.793C257.793 38.2076 253.316 33.7305 247.793 33.7305V43.7305ZM247.793 49.2305V59.2305C253.316 59.2305 257.793 54.7533 257.793 49.2305H247.793ZM219.648 49.2305H209.648C209.648 54.7533 214.126 59.2305 219.648 59.2305V49.2305ZM219.648 35.5234V25.5234C214.126 25.5234 209.648 30.0006 209.648 35.5234H219.648ZM226.609 35.5234H236.609C236.609 30.0006 232.132 25.5234 226.609 25.5234V35.5234ZM226.609 43.7305H216.609C216.609 49.2533 221.087 53.7305 226.609 53.7305V43.7305ZM213.762 22.6758L223.761 22.7472C223.762 22.6991 223.762 22.6509 223.761 22.6028L213.762 22.6758ZM246.848 10.1289H236.848V38.3594H246.848H256.848V10.1289H246.848ZM246.848 38.3594V28.3594H239.93V38.3594V48.3594H246.848V38.3594ZM239.93 38.3594H249.93V10.1289H239.93L229.93 10.1289V38.3594H239.93ZM239.93 10.1289V20.1289H246.848V10.1289V0.128906L239.93 0.128906V10.1289ZM247.793 43.7305H237.793V49.2305H247.793H257.793V43.7305H247.793ZM247.793 49.2305V39.2305H219.648V49.2305V59.2305H247.793V49.2305ZM219.648 49.2305H229.648V35.5234H219.648H209.648V49.2305H219.648ZM219.648 35.5234V45.5234H226.609V35.5234V25.5234H219.648V35.5234ZM226.609 35.5234H216.609V43.7305H226.609H236.609V35.5234H226.609ZM226.609 43.7305V53.7305H247.793V43.7305V33.7305H226.609V43.7305ZM224.891 12.4922V22.4922C225.677 22.4922 226.028 22.7575 226.081 22.8055C226.107 22.8285 226.08 22.8108 226.049 22.7425C226.014 22.6655 226.02 22.6249 226.02 22.6758H236.02H246.02C246.02 10.3118 235.596 2.49219 224.891 2.49219V12.4922ZM236.02 22.6758H226.02C226.02 22.7896 226.001 22.7829 226.031 22.7158C226.058 22.6561 226.086 22.6335 226.07 22.6473C226.04 22.6752 225.702 22.9453 224.891 22.9453V32.9453V42.9453C235.625 42.9453 246.02 35.1424 246.02 22.6758H236.02ZM224.891 32.9453V22.9453C224.073 22.9453 223.721 22.6706 223.685 22.6384C223.67 22.6246 223.704 22.6531 223.738 22.7281C223.775 22.8116 223.761 22.8391 223.761 22.7472L213.762 22.6758L203.762 22.6044C203.672 35.1899 214.229 42.9453 224.891 42.9453V32.9453ZM213.762 22.6758L223.761 22.6028C223.761 22.5747 223.763 22.6366 223.72 22.7302C223.682 22.8138 223.648 22.8375 223.674 22.8143C223.732 22.7621 224.098 22.4922 224.891 22.4922V12.4922V2.49219C214.26 2.49219 203.671 10.2637 203.762 22.7488L213.762 22.6758ZM224.891 18.4648V8.46484C221.841 8.46484 218.141 9.32397 215.074 12.0573C211.837 14.9419 210.465 18.8833 210.465 22.6758H220.465H230.465C230.465 23.6753 230.038 25.5112 228.38 26.9886C226.892 28.3147 225.405 28.4648 224.891 28.4648V18.4648ZM220.465 22.6758H210.465C210.465 26.4044 211.753 30.404 215.046 33.3604C218.165 36.161 221.913 36.9727 224.891 36.9727V26.9727V16.9727C225.333 16.9727 226.869 17.0968 228.408 18.4794C230.122 20.0179 230.465 21.8691 230.465 22.6758H220.465ZM224.891 26.9727V36.9727C227.922 36.9727 231.638 36.0969 234.699 33.2915C237.905 30.3519 239.188 26.3998 239.188 22.6758H229.188H219.188C219.188 21.8736 219.524 20.07 221.184 18.5484C222.698 17.1609 224.265 16.9727 224.891 16.9727V26.9727ZM229.188 22.6758H239.188C239.188 18.8895 237.823 14.9938 234.671 12.1259C231.663 9.38997 227.995 8.46484 224.891 8.46484V18.4648V28.4648C224.193 28.4648 222.673 28.2487 221.212 26.92C219.607 25.4594 219.188 23.6691 219.188 22.6758H229.188Z" fill="white" mask="url(#path-1-outside-1_6526_5762)"/>
</g>
<defs>
<filter id="filter0_d_6526_5762" x="0" y="0" width="261.793" height="67.832" filterUnits="userSpaceOnUse" color-interpolation-filters="sRGB">
<feFlood flood-opacity="0" result="BackgroundImageFix"/>
<feColorMatrix in="SourceAlpha" type="matrix" values="0 0 0 0 0 0 0 0 0 0 0 0 0 0 0 0 0 0 127 0" result="hardAlpha"/>
<feOffset dy="4"/>
<feGaussianBlur stdDeviation="2"/>
<feComposite in2="hardAlpha" operator="out"/>
<feColorMatrix type="matrix" values="0 0 0 0 0 0 0 0 0 0 0 0 0 0 0 0 0 0 0.07 0"/>
<feBlend mode="normal" in2="BackgroundImageFix" result="effect1_dropShadow_6526_5762"/>
<feBlend mode="normal" in="SourceGraphic" in2="effect1_dropShadow_6526_5762" result="shape"/>
</filter>
</defs>
</svg>
