<svg width="224" height="69" viewBox="0 0 224 69" fill="none" xmlns="http://www.w3.org/2000/svg">
<g filter="url(#filter0_d_6526_5694)">
<mask id="path-1-outside-1_6526_5694" maskUnits="userSpaceOnUse" x="3.71094" y="-0.507813" width="217" height="61" fill="black">
<rect fill="white" x="3.71094" y="-0.507813" width="217" height="61"/>
<path d="M47.4297 10V29.8516H40.5547V27.4453H32.4766V22.2891H40.5547V19.668H32.8203C30.3926 25.4043 25 28.9492 16.2773 30.7109L14 25.168C22.5508 23.6641 25.9453 20.5273 26.6758 16.7461H16.3633V11.2891H34.3242C34.3242 12.4062 34.2598 13.4805 34.1523 14.5117H40.5547V10L47.4297 10ZM47.4297 31.0117V42.6992H27.5352V43.9453H47.9883V49.3594H20.6602V37.6289H40.5117V36.3828H20.6172V31.0117H47.4297ZM87.9062 31.5273V36.9844H51.6406V31.5273H66.3789V29.3359H56.0234V17.6055L76.8203 17.6055V15.8867L55.9805 15.8867V10.6445H83.6953V22.418L62.8555 22.418V24.1797L84.3398 24.1797V29.3359H73.2109V31.5273H87.9062ZM84.5977 44.9336V50.3477H56.0664V38.5742H62.8984V44.9336H84.5977ZM123.227 10V49.875H116.266V10H123.227ZM101.398 12.6641C107.457 12.6211 112.012 18.207 112.012 26.9727C112.012 35.8672 107.457 41.4102 101.398 41.4102C95.2109 41.4102 90.6133 35.8672 90.6133 26.9727C90.6133 18.207 95.2109 12.6211 101.398 12.6641ZM101.398 18.8945C98.8633 18.8516 97.2734 21.4727 97.2734 26.9727C97.2734 32.5586 98.8633 35.0938 101.398 35.0938C103.762 35.0938 105.395 32.5586 105.395 26.9727C105.395 21.4727 103.762 18.8516 101.398 18.8945ZM169.805 27.3164V32.9023H141.102V13.4805H147.977V27.3164H169.805ZM173.586 39.8203V45.5781L137.277 45.5781V39.8203L173.586 39.8203ZM208.777 10.0859V39.3477H201.902V10.0859H208.777ZM209.766 43.6875V49.1875H181.664V36.8125H188.539V43.6875H209.766ZM195.93 12.5352V25.9414H184.199V29.1211C191.01 29.0781 195.07 28.8633 199.539 27.918L200.312 33.375C195.027 34.4922 190 34.6641 181.062 34.6211H177.41V20.957H189.141V17.9492H177.367V12.5352H195.93Z"/>
</mask>
<path d="M47.4297 10V29.8516H40.5547V27.4453H32.4766V22.2891H40.5547V19.668H32.8203C30.3926 25.4043 25 28.9492 16.2773 30.7109L14 25.168C22.5508 23.6641 25.9453 20.5273 26.6758 16.7461H16.3633V11.2891H34.3242C34.3242 12.4062 34.2598 13.4805 34.1523 14.5117H40.5547V10L47.4297 10ZM47.4297 31.0117V42.6992H27.5352V43.9453H47.9883V49.3594H20.6602V37.6289H40.5117V36.3828H20.6172V31.0117H47.4297ZM87.9062 31.5273V36.9844H51.6406V31.5273H66.3789V29.3359H56.0234V17.6055L76.8203 17.6055V15.8867L55.9805 15.8867V10.6445H83.6953V22.418L62.8555 22.418V24.1797L84.3398 24.1797V29.3359H73.2109V31.5273H87.9062ZM84.5977 44.9336V50.3477H56.0664V38.5742H62.8984V44.9336H84.5977ZM123.227 10V49.875H116.266V10H123.227ZM101.398 12.6641C107.457 12.6211 112.012 18.207 112.012 26.9727C112.012 35.8672 107.457 41.4102 101.398 41.4102C95.2109 41.4102 90.6133 35.8672 90.6133 26.9727C90.6133 18.207 95.2109 12.6211 101.398 12.6641ZM101.398 18.8945C98.8633 18.8516 97.2734 21.4727 97.2734 26.9727C97.2734 32.5586 98.8633 35.0938 101.398 35.0938C103.762 35.0938 105.395 32.5586 105.395 26.9727C105.395 21.4727 103.762 18.8516 101.398 18.8945ZM169.805 27.3164V32.9023H141.102V13.4805H147.977V27.3164H169.805ZM173.586 39.8203V45.5781L137.277 45.5781V39.8203L173.586 39.8203ZM208.777 10.0859V39.3477H201.902V10.0859H208.777ZM209.766 43.6875V49.1875H181.664V36.8125H188.539V43.6875H209.766ZM195.93 12.5352V25.9414H184.199V29.1211C191.01 29.0781 195.07 28.8633 199.539 27.918L200.312 33.375C195.027 34.4922 190 34.6641 181.062 34.6211H177.41V20.957H189.141V17.9492H177.367V12.5352H195.93Z" fill="#11DCA9"/>
<path d="M47.4297 10H57.4297C57.4297 4.47715 52.9525 0 47.4297 0V10ZM47.4297 29.8516V39.8516C52.9525 39.8516 57.4297 35.3744 57.4297 29.8516H47.4297ZM40.5547 29.8516H30.5547C30.5547 35.3744 35.0318 39.8516 40.5547 39.8516V29.8516ZM40.5547 27.4453H50.5547C50.5547 21.9225 46.0775 17.4453 40.5547 17.4453V27.4453ZM32.4766 27.4453H22.4766C22.4766 32.9682 26.9537 37.4453 32.4766 37.4453V27.4453ZM32.4766 22.2891V12.2891C26.9537 12.2891 22.4766 16.7662 22.4766 22.2891H32.4766ZM40.5547 22.2891V32.2891C46.0775 32.2891 50.5547 27.8119 50.5547 22.2891H40.5547ZM40.5547 19.668H50.5547C50.5547 14.1451 46.0775 9.66797 40.5547 9.66797V19.668ZM32.8203 19.668V9.66797C28.8036 9.66797 25.1767 12.0713 23.6111 15.7704L32.8203 19.668ZM16.2773 30.7109L7.0276 34.5112C8.84892 38.9443 13.5593 41.4618 18.2571 40.513L16.2773 30.7109ZM14 25.168L12.2678 15.3191C9.28552 15.8437 6.70154 17.6912 5.2407 20.3436C3.77985 22.996 3.59951 26.1674 4.75025 28.9683L14 25.168ZM26.6758 16.7461L36.4943 18.6428C37.0603 15.7126 36.288 12.6826 34.3884 10.3809C32.4887 8.07909 29.6602 6.74609 26.6758 6.74609V16.7461ZM16.3633 16.7461H6.36328C6.36328 22.2689 10.8404 26.7461 16.3633 26.7461V16.7461ZM16.3633 11.2891V1.28906C10.8404 1.28906 6.36328 5.76622 6.36328 11.2891H16.3633ZM34.3242 11.2891H44.3242C44.3242 5.76622 39.8471 1.28906 34.3242 1.28906V11.2891ZM34.1523 14.5117L24.2062 13.4757C23.9127 16.2929 24.8277 19.1024 26.724 21.2065C28.6203 23.3105 31.3199 24.5117 34.1523 24.5117V14.5117ZM40.5547 14.5117V24.5117C46.0775 24.5117 50.5547 20.0346 50.5547 14.5117H40.5547ZM40.5547 10V0C35.0318 0 30.5547 4.47715 30.5547 10H40.5547ZM47.4297 31.0117H57.4297C57.4297 25.4889 52.9525 21.0117 47.4297 21.0117V31.0117ZM47.4297 42.6992V52.6992C52.9525 52.6992 57.4297 48.2221 57.4297 42.6992H47.4297ZM27.5352 42.6992V32.6992C22.0123 32.6992 17.5352 37.1764 17.5352 42.6992H27.5352ZM27.5352 43.9453H17.5352C17.5352 49.4682 22.0123 53.9453 27.5352 53.9453V43.9453ZM47.9883 43.9453H57.9883C57.9883 38.4225 53.5111 33.9453 47.9883 33.9453V43.9453ZM47.9883 49.3594V59.3594C53.5111 59.3594 57.9883 54.8822 57.9883 49.3594H47.9883ZM20.6602 49.3594H10.6602C10.6602 54.8822 15.1373 59.3594 20.6602 59.3594V49.3594ZM20.6602 37.6289V27.6289C15.1373 27.6289 10.6602 32.1061 10.6602 37.6289H20.6602ZM40.5117 37.6289V47.6289C46.0346 47.6289 50.5117 43.1518 50.5117 37.6289H40.5117ZM40.5117 36.3828H50.5117C50.5117 30.86 46.0346 26.3828 40.5117 26.3828V36.3828ZM20.6172 36.3828H10.6172C10.6172 41.9057 15.0943 46.3828 20.6172 46.3828V36.3828ZM20.6172 31.0117V21.0117C15.0943 21.0117 10.6172 25.4889 10.6172 31.0117H20.6172ZM47.4297 10L37.4297 10V29.8516H47.4297H57.4297V10H47.4297ZM47.4297 29.8516V19.8516H40.5547V29.8516V39.8516H47.4297V29.8516ZM40.5547 29.8516H50.5547V27.4453H40.5547H30.5547V29.8516H40.5547ZM40.5547 27.4453V17.4453H32.4766V27.4453V37.4453H40.5547V27.4453ZM32.4766 27.4453H42.4766V22.2891H32.4766H22.4766V27.4453H32.4766ZM32.4766 22.2891V32.2891H40.5547V22.2891V12.2891H32.4766V22.2891ZM40.5547 22.2891H50.5547V19.668H40.5547H30.5547V22.2891H40.5547ZM40.5547 19.668V9.66797H32.8203V19.668V29.668H40.5547V19.668ZM32.8203 19.668L23.6111 15.7704C22.9919 17.2335 21.3634 19.4818 14.2976 20.9089L16.2773 30.7109L18.2571 40.513C28.6366 38.4167 37.7933 33.575 42.0295 23.5655L32.8203 19.668ZM16.2773 30.7109L25.5271 26.9107L23.2497 21.3677L14 25.168L4.75025 28.9683L7.0276 34.5112L16.2773 30.7109ZM14 25.168L15.7322 35.0168C25.6563 33.2714 34.5604 28.6535 36.4943 18.6428L26.6758 16.7461L16.8573 14.8493C16.9057 14.5989 17.0207 14.2781 17.2164 13.9784C17.4061 13.6878 17.5449 13.6112 17.4315 13.6928C17.1007 13.9307 15.7388 14.7087 12.2678 15.3191L14 25.168ZM26.6758 16.7461V6.74609H16.3633V16.7461V26.7461H26.6758V16.7461ZM16.3633 16.7461H26.3633V11.2891H16.3633H6.36328L6.36328 16.7461H16.3633ZM16.3633 11.2891V21.2891H34.3242V11.2891V1.28906L16.3633 1.28906V11.2891ZM34.3242 11.2891H24.3242C24.3242 12.0207 24.2821 12.7469 24.2062 13.4757L34.1523 14.5117L44.0985 15.5478C44.2375 14.214 44.3242 12.7918 44.3242 11.2891H34.3242ZM34.1523 14.5117V24.5117H40.5547V14.5117V4.51172H34.1523V14.5117ZM40.5547 14.5117H50.5547V10L40.5547 10H30.5547V14.5117H40.5547ZM40.5547 10V20H47.4297V10V0H40.5547V10ZM47.4297 31.0117H37.4297V42.6992H47.4297H57.4297V31.0117H47.4297ZM47.4297 42.6992V32.6992H27.5352V42.6992V52.6992H47.4297V42.6992ZM27.5352 42.6992H17.5352V43.9453H27.5352H37.5352V42.6992H27.5352ZM27.5352 43.9453V53.9453H47.9883V43.9453V33.9453H27.5352V43.9453ZM47.9883 43.9453H37.9883V49.3594H47.9883H57.9883V43.9453H47.9883ZM47.9883 49.3594V39.3594H20.6602V49.3594V59.3594H47.9883V49.3594ZM20.6602 49.3594H30.6602V37.6289H20.6602H10.6602V49.3594H20.6602ZM20.6602 37.6289V47.6289H40.5117V37.6289V27.6289H20.6602V37.6289ZM40.5117 37.6289H50.5117V36.3828H40.5117H30.5117V37.6289H40.5117ZM40.5117 36.3828V26.3828H20.6172V36.3828V46.3828H40.5117V36.3828ZM20.6172 36.3828H30.6172V31.0117H20.6172H10.6172V36.3828H20.6172ZM20.6172 31.0117V41.0117H47.4297V31.0117V21.0117H20.6172V31.0117ZM87.9062 31.5273H97.9062C97.9062 26.0045 93.4291 21.5273 87.9062 21.5273V31.5273ZM87.9062 36.9844V46.9844C93.4291 46.9844 97.9062 42.5072 97.9062 36.9844H87.9062ZM51.6406 36.9844H41.6406C41.6406 42.5072 46.1178 46.9844 51.6406 46.9844V36.9844ZM51.6406 31.5273V21.5273C46.1178 21.5273 41.6406 26.0045 41.6406 31.5273H51.6406ZM66.3789 31.5273V41.5273C71.9018 41.5273 76.3789 37.0502 76.3789 31.5273H66.3789ZM66.3789 29.3359H76.3789C76.3789 23.8131 71.9018 19.3359 66.3789 19.3359V29.3359ZM56.0234 29.3359H46.0234C46.0234 34.8588 50.5006 39.3359 56.0234 39.3359V29.3359ZM56.0234 17.6055V7.60547C50.5006 7.60547 46.0234 12.0826 46.0234 17.6055H56.0234ZM76.8203 17.6055V27.6055C82.3432 27.6055 86.8203 23.1283 86.8203 17.6055H76.8203ZM76.8203 15.8867H86.8203C86.8203 10.3639 82.3432 5.88672 76.8203 5.88672V15.8867ZM55.9805 15.8867H45.9805C45.9805 21.4096 50.4576 25.8867 55.9805 25.8867V15.8867ZM55.9805 10.6445V0.644531C50.4576 0.644531 45.9805 5.12168 45.9805 10.6445H55.9805ZM83.6953 10.6445H93.6953C93.6953 5.12168 89.2182 0.644531 83.6953 0.644531V10.6445ZM83.6953 22.418V32.418C89.2182 32.418 93.6953 27.9408 93.6953 22.418H83.6953ZM62.8555 22.418V12.418C57.3326 12.418 52.8555 16.8951 52.8555 22.418H62.8555ZM62.8555 24.1797H52.8555C52.8555 29.7025 57.3326 34.1797 62.8555 34.1797V24.1797ZM84.3398 24.1797H94.3398C94.3398 18.6568 89.8627 14.1797 84.3398 14.1797V24.1797ZM84.3398 29.3359V39.3359C89.8627 39.3359 94.3398 34.8588 94.3398 29.3359H84.3398ZM73.2109 29.3359V19.3359C67.6881 19.3359 63.2109 23.8131 63.2109 29.3359H73.2109ZM73.2109 31.5273H63.2109C63.2109 37.0502 67.6881 41.5273 73.2109 41.5273V31.5273ZM84.5977 44.9336H94.5977C94.5977 39.4107 90.1205 34.9336 84.5977 34.9336V44.9336ZM84.5977 50.3477V60.3477C90.1205 60.3477 94.5977 55.8705 94.5977 50.3477H84.5977ZM56.0664 50.3477H46.0664C46.0664 55.8705 50.5436 60.3477 56.0664 60.3477V50.3477ZM56.0664 38.5742V28.5742C50.5436 28.5742 46.0664 33.0514 46.0664 38.5742H56.0664ZM62.8984 38.5742H72.8984C72.8984 33.0514 68.4213 28.5742 62.8984 28.5742V38.5742ZM62.8984 44.9336H52.8984C52.8984 50.4564 57.3756 54.9336 62.8984 54.9336V44.9336ZM87.9062 31.5273H77.9062V36.9844H87.9062H97.9062V31.5273H87.9062ZM87.9062 36.9844V26.9844L51.6406 26.9844V36.9844V46.9844H87.9062V36.9844ZM51.6406 36.9844H61.6406V31.5273H51.6406H41.6406V36.9844H51.6406ZM51.6406 31.5273V41.5273H66.3789V31.5273V21.5273H51.6406V31.5273ZM66.3789 31.5273H76.3789V29.3359H66.3789H56.3789V31.5273H66.3789ZM66.3789 29.3359V19.3359H56.0234V29.3359V39.3359H66.3789V29.3359ZM56.0234 29.3359H66.0234V17.6055H56.0234H46.0234V29.3359H56.0234ZM56.0234 17.6055V27.6055L76.8203 27.6055V17.6055V7.60547H56.0234V17.6055ZM76.8203 17.6055H86.8203V15.8867H76.8203L66.8203 15.8867V17.6055L76.8203 17.6055ZM76.8203 15.8867V5.88672H55.9805V15.8867V25.8867L76.8203 25.8867V15.8867ZM55.9805 15.8867H65.9805V10.6445H55.9805H45.9805V15.8867H55.9805ZM55.9805 10.6445V20.6445L83.6953 20.6445V10.6445V0.644531L55.9805 0.644531V10.6445ZM83.6953 10.6445H73.6953V22.418L83.6953 22.418H93.6953V10.6445H83.6953ZM83.6953 22.418V12.418H62.8555V22.418V32.418H83.6953V22.418ZM62.8555 22.418H52.8555V24.1797H62.8555H72.8555V22.418H62.8555ZM62.8555 24.1797V34.1797H84.3398V24.1797V14.1797L62.8555 14.1797V24.1797ZM84.3398 24.1797L74.3398 24.1797V29.3359H84.3398H94.3398V24.1797H84.3398ZM84.3398 29.3359V19.3359L73.2109 19.3359V29.3359V39.3359H84.3398V29.3359ZM73.2109 29.3359H63.2109V31.5273H73.2109H83.2109V29.3359H73.2109ZM73.2109 31.5273V41.5273H87.9062V31.5273V21.5273L73.2109 21.5273V31.5273ZM84.5977 44.9336H74.5977V50.3477H84.5977H94.5977V44.9336H84.5977ZM84.5977 50.3477V40.3477H56.0664V50.3477V60.3477H84.5977V50.3477ZM56.0664 50.3477H66.0664V38.5742H56.0664H46.0664V50.3477H56.0664ZM56.0664 38.5742V48.5742H62.8984V38.5742V28.5742H56.0664V38.5742ZM62.8984 38.5742H52.8984V44.9336H62.8984H72.8984V38.5742H62.8984ZM62.8984 44.9336V54.9336H84.5977V44.9336V34.9336H62.8984V44.9336ZM123.227 10H133.227C133.227 4.47715 128.749 0 123.227 0V10ZM123.227 49.875V59.875C128.749 59.875 133.227 55.3978 133.227 49.875H123.227ZM116.266 49.875H106.266C106.266 55.3978 110.743 59.875 116.266 59.875V49.875ZM116.266 10V0C110.743 0 106.266 4.47715 106.266 10L116.266 10ZM101.398 12.6641L101.329 22.6638C101.376 22.6641 101.423 22.6641 101.469 22.6638L101.398 12.6641ZM101.398 18.8945L101.229 28.8931C101.346 28.8951 101.463 28.895 101.58 28.8929L101.398 18.8945ZM123.227 10H113.227V49.875H123.227H133.227V10H123.227ZM123.227 49.875V39.875H116.266V49.875V59.875H123.227V49.875ZM116.266 49.875H126.266V10H116.266L106.266 10V49.875H116.266ZM116.266 10V20H123.227V10V0L116.266 0V10ZM101.398 12.6641L101.469 22.6638C101.402 22.6643 101.232 22.6406 101.057 22.5508C100.895 22.4681 100.904 22.4198 101.025 22.5782C101.295 22.9327 102.012 24.2334 102.012 26.9727H112.012H122.012C122.012 20.9463 120.451 15.0712 116.929 10.4521C113.282 5.66819 107.749 2.61877 101.328 2.66431L101.398 12.6641ZM112.012 26.9727H102.012C102.012 29.8028 101.282 31.1249 101.012 31.4804C100.892 31.6391 100.88 31.594 101.035 31.5147C101.2 31.4293 101.353 31.4102 101.398 31.4102V41.4102V51.4102C107.772 51.4102 113.29 48.3834 116.942 43.5733C120.464 38.9337 122.012 33.0371 122.012 26.9727H112.012ZM101.398 41.4102V31.4102C101.377 31.4102 101.482 31.4135 101.619 31.483C101.747 31.5479 101.729 31.5815 101.609 31.4265C101.344 31.0816 100.613 29.7839 100.613 26.9727H90.6133H80.6133C80.6133 33.056 82.1817 38.977 85.7618 43.6273C89.4747 48.4498 95.0362 51.4102 101.398 51.4102V41.4102ZM90.6133 26.9727H100.613C100.613 24.2526 101.33 22.9762 101.597 22.632C101.716 22.4774 101.733 22.5139 101.597 22.5822C101.537 22.6127 101.47 22.6363 101.408 22.6507C101.346 22.6649 101.316 22.6637 101.329 22.6638L101.398 12.6641L101.468 2.6643C95.0588 2.6198 89.4835 5.60151 85.7746 10.3982C82.195 15.0277 80.6133 20.9271 80.6133 26.9727H90.6133ZM101.398 18.8945L101.568 8.89597C95.9363 8.80052 91.7381 12.0746 89.5647 16.1436C87.7238 19.59 87.2734 23.5385 87.2734 26.9727H97.2734H107.273C107.273 26.0559 107.342 25.4897 107.394 25.2055C107.451 24.8993 107.457 25.0966 107.206 25.5664C106.94 26.0649 106.313 26.9904 105.099 27.7722C103.821 28.5955 102.424 28.9134 101.229 28.8931L101.398 18.8945ZM97.2734 26.9727H87.2734C87.2734 30.4271 87.7172 34.3944 89.5726 37.8541C91.7872 41.9836 95.9621 45.0938 101.398 45.0938V35.0938V25.0937C102.509 25.0937 103.844 25.3965 105.091 26.1982C106.288 26.9673 106.92 27.8831 107.198 28.4018C107.457 28.8846 107.452 29.0928 107.396 28.7849C107.343 28.4977 107.273 27.9194 107.273 26.9727H97.2734ZM101.398 35.0938V45.0938C106.998 45.0938 111.049 41.7294 113.125 37.7986C114.924 34.3926 115.395 30.4806 115.395 26.9727H105.395H95.3945C95.3945 27.9039 95.3247 28.4806 95.2706 28.7724C95.2127 29.0842 95.2034 28.9062 95.4405 28.4572C95.6891 27.9865 96.2849 27.0851 97.4569 26.3005C98.697 25.4703 100.106 25.0937 101.398 25.0937V35.0938ZM105.395 26.9727H115.395C115.395 23.4853 114.917 19.5914 113.133 16.199C111.102 12.3393 107.023 8.79061 101.217 8.89618L101.398 18.8945L101.58 28.8929C100.194 28.9181 98.7191 28.5217 97.449 27.6697C96.2602 26.8723 95.6697 25.9614 95.4328 25.511C95.2034 25.075 95.2142 24.9078 95.2721 25.218C95.326 25.507 95.3945 26.0715 95.3945 26.9727H105.395ZM169.805 27.3164H179.805C179.805 21.7936 175.328 17.3164 169.805 17.3164V27.3164ZM169.805 32.9023V42.9023C175.328 42.9023 179.805 38.4252 179.805 32.9023H169.805ZM141.102 32.9023L131.102 32.9023C131.102 38.4252 135.579 42.9023 141.102 42.9023V32.9023ZM141.102 13.4805V3.48047C135.579 3.48047 131.102 7.95762 131.102 13.4805H141.102ZM147.977 13.4805H157.977C157.977 7.95762 153.499 3.48047 147.977 3.48047V13.4805ZM147.977 27.3164H137.977C137.977 32.8393 142.454 37.3164 147.977 37.3164V27.3164ZM173.586 39.8203H183.586C183.586 34.2975 179.109 29.8203 173.586 29.8203V39.8203ZM173.586 45.5781V55.5781C179.109 55.5781 183.586 51.101 183.586 45.5781H173.586ZM137.277 45.5781H127.277C127.277 51.101 131.754 55.5781 137.277 55.5781V45.5781ZM137.277 39.8203V29.8203C131.754 29.8203 127.277 34.2975 127.277 39.8203H137.277ZM169.805 27.3164H159.805V32.9023H169.805H179.805V27.3164H169.805ZM169.805 32.9023V22.9023H141.102V32.9023V42.9023H169.805V32.9023ZM141.102 32.9023H151.102V13.4805H141.102H131.102V32.9023L141.102 32.9023ZM141.102 13.4805V23.4805H147.977V13.4805V3.48047H141.102V13.4805ZM147.977 13.4805H137.977V27.3164H147.977H157.977V13.4805H147.977ZM147.977 27.3164V37.3164H169.805V27.3164V17.3164H147.977V27.3164ZM173.586 39.8203H163.586V45.5781H173.586H183.586V39.8203H173.586ZM173.586 45.5781V35.5781L137.277 35.5781V45.5781V55.5781L173.586 55.5781V45.5781ZM137.277 45.5781L147.277 45.5781V39.8203L137.277 39.8203H127.277V45.5781H137.277ZM137.277 39.8203V49.8203L173.586 49.8203V39.8203V29.8203L137.277 29.8203V39.8203ZM208.777 10.0859H218.777C218.777 4.56309 214.3 0.0859375 208.777 0.0859375V10.0859ZM208.777 39.3477V49.3477C214.3 49.3477 218.777 44.8705 218.777 39.3477H208.777ZM201.902 39.3477H191.902C191.902 44.8705 196.38 49.3477 201.902 49.3477V39.3477ZM201.902 10.0859V0.0859375C196.38 0.0859375 191.902 4.56309 191.902 10.0859H201.902ZM209.766 43.6875H219.766C219.766 38.1647 215.288 33.6875 209.766 33.6875V43.6875ZM209.766 49.1875V59.1875C215.288 59.1875 219.766 54.7103 219.766 49.1875H209.766ZM181.664 49.1875H171.664C171.664 54.7103 176.141 59.1875 181.664 59.1875V49.1875ZM181.664 36.8125V26.8125C176.141 26.8125 171.664 31.2897 171.664 36.8125H181.664ZM188.539 36.8125H198.539C198.539 31.2897 194.062 26.8125 188.539 26.8125V36.8125ZM188.539 43.6875H178.539C178.539 49.2103 183.016 53.6875 188.539 53.6875V43.6875ZM195.93 12.5352L205.93 12.5352C205.93 7.01231 201.453 2.53516 195.93 2.53516V12.5352ZM195.93 25.9414V35.9414C201.453 35.9414 205.93 31.4643 205.93 25.9414L195.93 25.9414ZM184.199 25.9414V15.9414C178.676 15.9414 174.199 20.4186 174.199 25.9414H184.199ZM184.199 29.1211H174.199C174.199 31.7842 175.261 34.3373 177.15 36.2144C179.04 38.0916 181.599 39.1377 184.262 39.1209L184.199 29.1211ZM199.539 27.918L209.44 26.5147C209.051 23.7725 207.543 21.3143 205.274 19.7259C203.005 18.1375 200.179 17.5613 197.469 18.1345L199.539 27.918ZM200.312 33.375L202.381 43.1588C207.528 42.0708 210.952 37.1806 210.214 31.9717L200.312 33.375ZM181.062 34.6211L181.111 24.6212C181.095 24.6211 181.079 24.6211 181.062 24.6211V34.6211ZM177.41 34.6211H167.41C167.41 40.1439 171.887 44.6211 177.41 44.6211V34.6211ZM177.41 20.957V10.957C171.887 10.957 167.41 15.4342 167.41 20.957H177.41ZM189.141 20.957V30.957C194.663 30.957 199.141 26.4799 199.141 20.957H189.141ZM189.141 17.9492H199.141C199.141 12.4264 194.663 7.94922 189.141 7.94922V17.9492ZM177.367 17.9492H167.367C167.367 23.4721 171.844 27.9492 177.367 27.9492V17.9492ZM177.367 12.5352V2.53516C171.844 2.53516 167.367 7.01231 167.367 12.5352H177.367ZM208.777 10.0859H198.777V39.3477H208.777H218.777V10.0859H208.777ZM208.777 39.3477V29.3477H201.902V39.3477V49.3477H208.777V39.3477ZM201.902 39.3477H211.902V10.0859H201.902H191.902V39.3477H201.902ZM201.902 10.0859V20.0859L208.777 20.0859V10.0859V0.0859375H201.902V10.0859ZM209.766 43.6875H199.766V49.1875H209.766H219.766V43.6875H209.766ZM209.766 49.1875V39.1875H181.664V49.1875V59.1875H209.766V49.1875ZM181.664 49.1875H191.664V36.8125H181.664H171.664V49.1875H181.664ZM181.664 36.8125V46.8125H188.539V36.8125V26.8125H181.664V36.8125ZM188.539 36.8125H178.539V43.6875H188.539H198.539V36.8125H188.539ZM188.539 43.6875V53.6875H209.766V43.6875V33.6875H188.539V43.6875ZM195.93 12.5352H185.93V25.9414H195.93L205.93 25.9414V12.5352L195.93 12.5352ZM195.93 25.9414V15.9414H184.199V25.9414V35.9414H195.93V25.9414ZM184.199 25.9414H174.199V29.1211H184.199H194.199V25.9414H184.199ZM184.199 29.1211L184.262 39.1209C191.208 39.0771 196.105 38.8656 201.609 37.7015L199.539 27.918L197.469 18.1345C194.035 18.8609 190.812 19.0792 184.136 19.1213L184.199 29.1211ZM199.539 27.918L189.638 29.3213L190.411 34.7783L200.312 33.375L210.214 31.9717L209.44 26.5147L199.539 27.918ZM200.312 33.375L198.244 23.5912C194.109 24.4654 190.037 24.6641 181.111 24.6212L181.062 34.6211L181.014 44.621C189.963 44.664 195.946 44.519 202.381 43.1588L200.312 33.375ZM181.062 34.6211V24.6211H177.41V34.6211V44.6211H181.062V34.6211ZM177.41 34.6211H187.41V20.957H177.41H167.41V34.6211H177.41ZM177.41 20.957V30.957H189.141V20.957V10.957H177.41V20.957ZM189.141 20.957H199.141V17.9492H189.141H179.141V20.957H189.141ZM189.141 17.9492V7.94922H177.367V17.9492V27.9492H189.141V17.9492ZM177.367 17.9492H187.367V12.5352H177.367H167.367V17.9492H177.367ZM177.367 12.5352V22.5352H195.93V12.5352V2.53516L177.367 2.53516V12.5352Z" fill="white" mask="url(#path-1-outside-1_6526_5694)"/>
</g>
<defs>
<filter id="filter0_d_6526_5694" x="0" y="0" width="223.766" height="68.3477" filterUnits="userSpaceOnUse" color-interpolation-filters="sRGB">
<feFlood flood-opacity="0" result="BackgroundImageFix"/>
<feColorMatrix in="SourceAlpha" type="matrix" values="0 0 0 0 0 0 0 0 0 0 0 0 0 0 0 0 0 0 127 0" result="hardAlpha"/>
<feOffset dy="4"/>
<feGaussianBlur stdDeviation="2"/>
<feComposite in2="hardAlpha" operator="out"/>
<feColorMatrix type="matrix" values="0 0 0 0 0 0 0 0 0 0 0 0 0 0 0 0 0 0 0.07 0"/>
<feBlend mode="normal" in2="BackgroundImageFix" result="effect1_dropShadow_6526_5694"/>
<feBlend mode="normal" in="SourceGraphic" in2="effect1_dropShadow_6526_5694" result="shape"/>
</filter>
</defs>
</svg>
