<svg width="178" height="68" viewBox="0 0 178 68" fill="none" xmlns="http://www.w3.org/2000/svg">
<g filter="url(#filter0_d_6524_1740)">
<mask id="path-1-outside-1_6524_1740" maskUnits="userSpaceOnUse" x="3.04297" y="-0.292969" width="171" height="61" fill="black">
<rect fill="white" x="3.04297" y="-0.292969" width="171" height="61"/>
<path d="M49.6211 10.2148V49.9609H43.1758V10.2148L49.6211 10.2148ZM41.1562 11.0312V48.3711H34.7109V35.7383H30.1992V30.1953H34.7109V25.8984H31.0156C29.1895 32.3223 25.3223 37.5859 17.9531 41.9258L14 37.1133C21.627 32.6016 24.7637 27.6172 25.5156 20.2266H16.6211V14.7695H32.3047C32.3047 16.7031 32.2188 18.5723 32.0469 20.3555H34.7109V11.0312H41.1562ZM77.8086 12.75V17.6484H54.2617V12.75H62.5547V10H69.4297V12.75H77.8086ZM66.0352 18.1641C72.0508 18.1641 76.2188 20.5703 76.2188 24.2656C76.2188 27.1875 73.5547 29.2285 69.4297 29.8945V31.3555C72.2871 31.2051 75.123 30.9902 77.8086 30.668L78.2812 35.2227C69.9883 36.6836 60.8789 36.8555 54.0039 36.8555L53.1875 31.7422C56.0449 31.7422 59.2246 31.7207 62.5547 31.6133V29.8945C58.3652 29.207 55.7656 27.1875 55.7656 24.2656C55.7656 20.5703 59.8477 18.1641 66.0352 18.1641ZM66.0352 22.6758C63.7578 22.6758 62.4258 23.1055 62.4258 24.2656C62.4258 25.2969 63.7578 25.6836 66.0352 25.6836C68.1406 25.6836 69.6016 25.2969 69.6445 24.2656C69.6016 23.1055 68.1406 22.6758 66.0352 22.6758ZM86.7461 10.3437V37.3711H79.7422V10.3437H86.7461ZM86.7461 38.7461V49.9609H79.7422V43.9453H58.6016V38.7461H86.7461ZM114.031 12.1484V17.5625H106.812C107.156 21.5801 109.455 25.7051 115.449 27.6602L112.141 32.9453C107.865 31.6777 105.029 29.1211 103.332 25.8984C101.57 29.4648 98.6055 32.3223 94.0508 33.6758L90.5273 28.2617C96.9297 26.3496 99.2715 21.7949 99.6797 17.5625H92.418V12.1484L114.031 12.1484ZM124.816 35.3516V49.9609H117.941V40.8086H97.1875V35.3516H124.816ZM124.816 10.2148V33.8477H117.941V24.8242H113V19.2383H117.941V10.2148H124.816ZM162.543 10.3008V38.5312H155.625V10.3008H162.543ZM163.488 43.9023V49.4023L135.344 49.4023V35.6953L142.305 35.6953V43.9023H163.488ZM140.586 12.6641C146.773 12.6641 151.715 16.9609 151.715 22.8477C151.715 28.8633 146.773 33.1172 140.586 33.1172C134.398 33.1172 129.414 28.8633 129.457 22.8477C129.414 16.9609 134.398 12.6641 140.586 12.6641ZM140.586 18.6367C138.051 18.6367 136.16 20.0547 136.16 22.8477C136.16 25.7695 138.051 27.1445 140.586 27.1445C142.992 27.1445 144.883 25.7695 144.883 22.8477C144.883 20.0547 142.992 18.6367 140.586 18.6367Z"/>
</mask>
<path d="M49.6211 10.2148V49.9609H43.1758V10.2148L49.6211 10.2148ZM41.1562 11.0312V48.3711H34.7109V35.7383H30.1992V30.1953H34.7109V25.8984H31.0156C29.1895 32.3223 25.3223 37.5859 17.9531 41.9258L14 37.1133C21.627 32.6016 24.7637 27.6172 25.5156 20.2266H16.6211V14.7695H32.3047C32.3047 16.7031 32.2188 18.5723 32.0469 20.3555H34.7109V11.0312H41.1562ZM77.8086 12.75V17.6484H54.2617V12.75H62.5547V10H69.4297V12.75H77.8086ZM66.0352 18.1641C72.0508 18.1641 76.2188 20.5703 76.2188 24.2656C76.2188 27.1875 73.5547 29.2285 69.4297 29.8945V31.3555C72.2871 31.2051 75.123 30.9902 77.8086 30.668L78.2812 35.2227C69.9883 36.6836 60.8789 36.8555 54.0039 36.8555L53.1875 31.7422C56.0449 31.7422 59.2246 31.7207 62.5547 31.6133V29.8945C58.3652 29.207 55.7656 27.1875 55.7656 24.2656C55.7656 20.5703 59.8477 18.1641 66.0352 18.1641ZM66.0352 22.6758C63.7578 22.6758 62.4258 23.1055 62.4258 24.2656C62.4258 25.2969 63.7578 25.6836 66.0352 25.6836C68.1406 25.6836 69.6016 25.2969 69.6445 24.2656C69.6016 23.1055 68.1406 22.6758 66.0352 22.6758ZM86.7461 10.3437V37.3711H79.7422V10.3437H86.7461ZM86.7461 38.7461V49.9609H79.7422V43.9453H58.6016V38.7461H86.7461ZM114.031 12.1484V17.5625H106.812C107.156 21.5801 109.455 25.7051 115.449 27.6602L112.141 32.9453C107.865 31.6777 105.029 29.1211 103.332 25.8984C101.57 29.4648 98.6055 32.3223 94.0508 33.6758L90.5273 28.2617C96.9297 26.3496 99.2715 21.7949 99.6797 17.5625H92.418V12.1484L114.031 12.1484ZM124.816 35.3516V49.9609H117.941V40.8086H97.1875V35.3516H124.816ZM124.816 10.2148V33.8477H117.941V24.8242H113V19.2383H117.941V10.2148H124.816ZM162.543 10.3008V38.5312H155.625V10.3008H162.543ZM163.488 43.9023V49.4023L135.344 49.4023V35.6953L142.305 35.6953V43.9023H163.488ZM140.586 12.6641C146.773 12.6641 151.715 16.9609 151.715 22.8477C151.715 28.8633 146.773 33.1172 140.586 33.1172C134.398 33.1172 129.414 28.8633 129.457 22.8477C129.414 16.9609 134.398 12.6641 140.586 12.6641ZM140.586 18.6367C138.051 18.6367 136.16 20.0547 136.16 22.8477C136.16 25.7695 138.051 27.1445 140.586 27.1445C142.992 27.1445 144.883 25.7695 144.883 22.8477C144.883 20.0547 142.992 18.6367 140.586 18.6367Z" fill="#11DCA9"/>
<path d="M49.6211 10.2148H59.6211C59.6211 4.692 55.1439 0.214844 49.6211 0.214844V10.2148ZM49.6211 49.9609V59.9609C55.1439 59.9609 59.6211 55.4838 59.6211 49.9609H49.6211ZM43.1758 49.9609H33.1758C33.1758 55.4838 37.6529 59.9609 43.1758 59.9609V49.9609ZM43.1758 10.2148V0.214844C37.6529 0.214844 33.1758 4.692 33.1758 10.2148H43.1758ZM41.1562 11.0312L51.1562 11.0312C51.1562 5.5084 46.6791 1.03125 41.1562 1.03125V11.0312ZM41.1562 48.3711V58.3711C46.6791 58.3711 51.1562 53.8939 51.1562 48.3711H41.1562ZM34.7109 48.3711H24.7109C24.7109 53.8939 29.1881 58.3711 34.7109 58.3711V48.3711ZM34.7109 35.7383H44.7109C44.7109 30.2154 40.2338 25.7383 34.7109 25.7383V35.7383ZM30.1992 35.7383H20.1992C20.1992 41.2611 24.6764 45.7383 30.1992 45.7383V35.7383ZM30.1992 30.1953V20.1953C24.6764 20.1953 20.1992 24.6725 20.1992 30.1953H30.1992ZM34.7109 30.1953V40.1953C40.2338 40.1953 44.7109 35.7182 44.7109 30.1953H34.7109ZM34.7109 25.8984H44.7109C44.7109 20.3756 40.2338 15.8984 34.7109 15.8984V25.8984ZM31.0156 25.8984V15.8984C26.5459 15.8984 22.619 18.8646 21.3968 23.164L31.0156 25.8984ZM17.9531 41.9258L10.2259 48.2732C13.352 52.079 18.7838 53.0419 23.0277 50.5425L17.9531 41.9258ZM14 37.1133L8.90862 28.5064C6.39615 29.9927 4.65854 32.5026 4.15182 35.3774C3.64509 38.2522 4.41984 41.205 6.27274 43.4607L14 37.1133ZM25.5156 20.2266L35.4643 21.2388C35.7505 18.425 34.8319 15.6216 32.9359 13.5229C31.0399 11.4242 28.3439 10.2266 25.5156 10.2266V20.2266ZM16.6211 20.2266H6.62109C6.62109 25.7494 11.0982 30.2266 16.6211 30.2266V20.2266ZM16.6211 14.7695V4.76953C11.0982 4.76953 6.62109 9.24668 6.62109 14.7695H16.6211ZM32.3047 14.7695H42.3047C42.3047 9.24668 37.8275 4.76953 32.3047 4.76953V14.7695ZM32.0469 20.3555L22.093 19.3961C21.8225 22.2021 22.749 24.992 24.6444 27.0788C26.5397 29.1656 29.2278 30.3555 32.0469 30.3555V20.3555ZM34.7109 20.3555V30.3555C40.2338 30.3555 44.7109 25.8783 44.7109 20.3555H34.7109ZM34.7109 11.0312V1.03125C29.1881 1.03125 24.7109 5.5084 24.7109 11.0312H34.7109ZM49.6211 10.2148L39.6211 10.2148V49.9609H49.6211H59.6211V10.2148H49.6211ZM49.6211 49.9609V39.9609H43.1758V49.9609V59.9609H49.6211V49.9609ZM43.1758 49.9609H53.1758V10.2148L43.1758 10.2148H33.1758V49.9609H43.1758ZM43.1758 10.2148V20.2148H49.6211V10.2148V0.214844H43.1758V10.2148ZM41.1562 11.0312H31.1562V48.3711H41.1562H51.1562V11.0312L41.1562 11.0312ZM41.1562 48.3711V38.3711H34.7109V48.3711V58.3711H41.1562V48.3711ZM34.7109 48.3711H44.7109V35.7383H34.7109H24.7109V48.3711H34.7109ZM34.7109 35.7383V25.7383H30.1992V35.7383V45.7383H34.7109V35.7383ZM30.1992 35.7383H40.1992V30.1953H30.1992H20.1992V35.7383H30.1992ZM30.1992 30.1953V40.1953H34.7109V30.1953V20.1953H30.1992V30.1953ZM34.7109 30.1953H44.7109V25.8984H34.7109H24.7109V30.1953H34.7109ZM34.7109 25.8984V15.8984H31.0156V25.8984V35.8984H34.7109V25.8984ZM31.0156 25.8984L21.3968 23.164C20.3273 26.9258 18.2098 30.1693 12.8785 33.309L17.9531 41.9258L23.0277 50.5425C32.4347 45.0026 38.0516 37.7187 40.6345 28.6329L31.0156 25.8984ZM17.9531 41.9258L25.6804 35.5784L21.7273 30.7659L14 37.1133L6.27274 43.4607L10.2259 48.2732L17.9531 41.9258ZM14 37.1133L19.0914 45.7201C23.7613 42.9576 27.7417 39.6473 30.6439 35.3153C33.5885 30.92 34.9635 26.1605 35.4643 21.2388L25.5156 20.2266L15.567 19.2143C15.3158 21.6833 14.7465 23.1113 14.028 24.1837C13.2671 25.3195 11.8656 26.7572 8.90862 28.5064L14 37.1133ZM25.5156 20.2266V10.2266H16.6211V20.2266V30.2266H25.5156V20.2266ZM16.6211 20.2266H26.6211V14.7695H16.6211H6.62109V20.2266H16.6211ZM16.6211 14.7695V24.7695H32.3047V14.7695V4.76953H16.6211V14.7695ZM32.3047 14.7695H22.3047C22.3047 16.4096 22.2317 17.9573 22.093 19.3961L32.0469 20.3555L42.0007 21.3149C42.2058 19.1872 42.3047 16.9967 42.3047 14.7695H32.3047ZM32.0469 20.3555V30.3555H34.7109V20.3555V10.3555H32.0469V20.3555ZM34.7109 20.3555H44.7109V11.0312H34.7109H24.7109V20.3555H34.7109ZM34.7109 11.0312V21.0312H41.1562V11.0312V1.03125H34.7109V11.0312ZM77.8086 12.75L87.8086 12.75C87.8086 7.22715 83.3314 2.75 77.8086 2.75V12.75ZM77.8086 17.6484V27.6484C83.3314 27.6484 87.8086 23.1713 87.8086 17.6484L77.8086 17.6484ZM54.2617 17.6484H44.2617C44.2617 23.1713 48.7389 27.6484 54.2617 27.6484V17.6484ZM54.2617 12.75V2.75C48.7389 2.75 44.2617 7.22715 44.2617 12.75H54.2617ZM62.5547 12.75V22.75C68.0775 22.75 72.5547 18.2728 72.5547 12.75H62.5547ZM62.5547 10V0C57.0318 0 52.5547 4.47715 52.5547 10H62.5547ZM69.4297 10H79.4297C79.4297 4.47715 74.9525 0 69.4297 0V10ZM69.4297 12.75H59.4297C59.4297 18.2728 63.9068 22.75 69.4297 22.75V12.75ZM69.4297 29.8945L67.8357 20.0224C62.9909 20.8046 59.4297 24.987 59.4297 29.8945H69.4297ZM69.4297 31.3555H59.4297C59.4297 34.0989 60.5568 36.7218 62.547 38.61C64.5371 40.4982 67.2157 41.4858 69.9553 41.3416L69.4297 31.3555ZM77.8086 30.668L87.7552 29.6358C87.4786 26.9701 86.1436 24.5271 84.0496 22.8545C81.9557 21.182 79.278 20.4199 76.6171 20.7392L77.8086 30.668ZM78.2812 35.2227L80.0162 45.071C85.1843 44.1606 88.7695 39.4101 88.2278 34.1905L78.2812 35.2227ZM54.0039 36.8555L44.129 38.4321C44.9038 43.2849 49.0897 46.8555 54.0039 46.8555V36.8555ZM53.1875 31.7422V21.7422C50.2599 21.7422 47.4793 23.0251 45.5794 25.2525C43.6795 27.4798 42.851 30.4279 43.3126 33.3189L53.1875 31.7422ZM62.5547 31.6133L62.8771 41.6081C68.2716 41.4341 72.5547 37.0106 72.5547 31.6133H62.5547ZM62.5547 29.8945H72.5547C72.5547 24.9967 69.0072 20.8197 64.1741 20.0265L62.5547 29.8945ZM69.6445 24.2656L79.6359 24.6819C79.6468 24.4199 79.6474 24.1576 79.6377 23.8955L69.6445 24.2656ZM86.7461 10.3437H96.7461C96.7461 4.8209 92.2689 0.34375 86.7461 0.34375V10.3437ZM86.7461 37.3711V47.3711C92.2689 47.3711 96.7461 42.8939 96.7461 37.3711H86.7461ZM79.7422 37.3711H69.7422C69.7422 42.8939 74.2193 47.3711 79.7422 47.3711V37.3711ZM79.7422 10.3437V0.34375C74.2193 0.34375 69.7422 4.8209 69.7422 10.3437H79.7422ZM86.7461 38.7461H96.7461C96.7461 33.2232 92.2689 28.7461 86.7461 28.7461V38.7461ZM86.7461 49.9609V59.9609C92.2689 59.9609 96.7461 55.4838 96.7461 49.9609H86.7461ZM79.7422 49.9609H69.7422C69.7422 55.4838 74.2193 59.9609 79.7422 59.9609V49.9609ZM79.7422 43.9453H89.7422C89.7422 38.4225 85.265 33.9453 79.7422 33.9453V43.9453ZM58.6016 43.9453H48.6016C48.6016 49.4682 53.0787 53.9453 58.6016 53.9453V43.9453ZM58.6016 38.7461V28.7461C53.0787 28.7461 48.6016 33.2232 48.6016 38.7461H58.6016ZM77.8086 12.75H67.8086V17.6484H77.8086L87.8086 17.6484V12.75L77.8086 12.75ZM77.8086 17.6484V7.64844H54.2617V17.6484V27.6484H77.8086V17.6484ZM54.2617 17.6484H64.2617V12.75H54.2617H44.2617V17.6484H54.2617ZM54.2617 12.75V22.75H62.5547V12.75V2.75L54.2617 2.75V12.75ZM62.5547 12.75H72.5547V10H62.5547H52.5547V12.75H62.5547ZM62.5547 10V20H69.4297V10V0H62.5547V10ZM69.4297 10H59.4297V12.75H69.4297L79.4297 12.75V10H69.4297ZM69.4297 12.75V22.75H77.8086V12.75V2.75H69.4297V12.75ZM66.0352 18.1641V28.1641C66.8863 28.1641 67.5172 28.2504 67.9311 28.3452C68.3589 28.4433 68.4377 28.5227 68.2834 28.4312C68.1258 28.3377 67.5983 27.9861 67.0908 27.2058C66.5418 26.3618 66.2188 25.317 66.2188 24.2656H76.2188L86.2188 24.2656C86.2188 18.0305 82.4975 13.6073 78.4822 11.227C74.6801 8.97307 70.2069 8.16406 66.0352 8.16406V18.1641ZM76.2188 24.2656H66.2188C66.2188 23.4251 66.4227 22.5343 66.8401 21.7206C67.2432 20.9346 67.7339 20.4336 68.0705 20.1606C68.6582 19.6837 68.7841 19.8693 67.8357 20.0224L69.4297 29.8945L71.0236 39.7667C74.2003 39.2538 77.7207 38.0858 80.6717 35.6915C83.8471 33.1151 86.2188 29.1598 86.2188 24.2656L76.2188 24.2656ZM69.4297 29.8945H59.4297V31.3555H69.4297H79.4297V29.8945H69.4297ZM69.4297 31.3555L69.9553 41.3416C72.9525 41.1839 76.024 40.9539 79 40.5967L77.8086 30.668L76.6171 20.7392C74.2221 21.0266 71.6217 21.2263 68.9041 21.3693L69.4297 31.3555ZM77.8086 30.668L67.862 31.7002L68.3347 36.2548L78.2812 35.2227L88.2278 34.1905L87.7552 29.6358L77.8086 30.668ZM78.2812 35.2227L76.5463 25.3743C69.1805 26.6719 60.8257 26.8555 54.0039 26.8555V36.8555V46.8555C60.9321 46.8555 70.7961 46.6953 80.0162 45.071L78.2812 35.2227ZM54.0039 36.8555L63.8788 35.2788L63.0624 30.1655L53.1875 31.7422L43.3126 33.3189L44.129 38.4321L54.0039 36.8555ZM53.1875 31.7422V41.7422C56.0902 41.7422 59.3915 41.7205 62.8771 41.6081L62.5547 31.6133L62.2323 21.6185C59.0577 21.7209 55.9997 21.7422 53.1875 21.7422V31.7422ZM62.5547 31.6133H72.5547V29.8945H62.5547H52.5547V31.6133H62.5547ZM62.5547 29.8945L64.1741 20.0265C63.1519 19.8588 63.2916 19.6652 63.9051 20.165C64.258 20.4525 64.7565 20.9689 65.1599 21.7659C65.5756 22.5874 65.7656 23.4645 65.7656 24.2656H55.7656H45.7656C45.7656 29.0909 48.0606 33.0538 51.2732 35.671C54.2338 38.0828 57.7681 39.2428 60.9353 39.7625L62.5547 29.8945ZM55.7656 24.2656H65.7656C65.7656 25.2739 65.4615 26.3064 64.9104 27.1632C64.3981 27.9597 63.8562 28.3264 63.6795 28.4312C63.5099 28.5317 63.582 28.4519 64.026 28.3515C64.4561 28.2542 65.1217 28.1641 66.0352 28.1641V18.1641V8.16406C61.8223 8.16406 57.3107 8.95649 53.4806 11.227C49.3918 13.651 45.7656 18.1006 45.7656 24.2656H55.7656ZM66.0352 22.6758V12.6758C64.6011 12.6758 62.0811 12.7621 59.5933 13.7789C58.228 14.3369 56.3591 15.3809 54.818 17.3347C53.1578 19.4394 52.4258 21.9094 52.4258 24.2656H62.4258H72.4258C72.4258 26.0418 71.8602 28.023 70.521 29.7209C69.3008 31.2678 67.9072 31.9869 67.1597 32.2924C65.9072 32.8043 65.1919 32.6758 66.0352 32.6758V22.6758ZM62.4258 24.2656H52.4258C52.4258 26.903 53.3617 29.4943 55.1816 31.5504C56.8129 33.3932 58.6996 34.2993 59.9459 34.7545C62.2789 35.6065 64.6394 35.6836 66.0352 35.6836V25.6836V15.6836C65.1535 15.6836 65.7093 15.5673 66.807 15.9682C67.4356 16.1977 68.847 16.8138 70.1573 18.2941C71.6564 19.9876 72.4258 22.1439 72.4258 24.2656H62.4258ZM66.0352 25.6836V35.6836C67.4421 35.6836 69.7041 35.5876 71.9665 34.7824C74.196 33.9888 79.3635 31.2196 79.6359 24.6819L69.6445 24.2656L59.6532 23.8493C59.7501 21.523 60.7401 19.4442 62.1819 17.9583C63.4356 16.6663 64.714 16.1347 65.26 15.9403C66.2549 15.5862 66.7337 15.6836 66.0352 15.6836V25.6836ZM69.6445 24.2656L79.6377 23.8955C79.4161 17.912 75.061 14.8398 72.3136 13.7455C69.9027 12.7852 67.4904 12.6758 66.0352 12.6758V22.6758V32.6758C66.6854 32.6758 66.0563 32.7812 64.913 32.3258C64.2588 32.0653 62.98 31.4398 61.7942 30.0685C60.4721 28.5395 59.7243 26.6034 59.6514 24.6357L69.6445 24.2656ZM86.7461 10.3437H76.7461V37.3711H86.7461H96.7461V10.3437H86.7461ZM86.7461 37.3711V27.3711H79.7422V37.3711V47.3711H86.7461V37.3711ZM79.7422 37.3711H89.7422V10.3437H79.7422H69.7422V37.3711H79.7422ZM79.7422 10.3437V20.3437H86.7461V10.3437V0.34375L79.7422 0.34375V10.3437ZM86.7461 38.7461H76.7461V49.9609H86.7461H96.7461V38.7461H86.7461ZM86.7461 49.9609V39.9609H79.7422V49.9609V59.9609H86.7461V49.9609ZM79.7422 49.9609H89.7422V43.9453H79.7422H69.7422V49.9609H79.7422ZM79.7422 43.9453V33.9453H58.6016V43.9453V53.9453H79.7422V43.9453ZM58.6016 43.9453H68.6016V38.7461H58.6016H48.6016V43.9453H58.6016ZM58.6016 38.7461V48.7461H86.7461V38.7461V28.7461H58.6016V38.7461ZM114.031 12.1484H124.031C124.031 6.62559 119.554 2.14844 114.031 2.14844V12.1484ZM114.031 17.5625V27.5625C119.554 27.5625 124.031 23.0853 124.031 17.5625H114.031ZM106.812 17.5625V7.5625C104.012 7.5625 101.34 8.73671 99.4462 10.7995C97.5523 12.8624 96.6102 15.6248 96.8489 18.415L106.812 17.5625ZM115.449 27.6602L123.925 32.9663C125.558 30.3576 125.899 27.1423 124.849 24.2491C123.8 21.356 121.476 19.1074 118.55 18.1531L115.449 27.6602ZM112.141 32.9453L109.298 42.5328C113.604 43.8095 118.233 42.0585 120.617 38.2515L112.141 32.9453ZM103.332 25.8984L112.18 21.2385C110.429 17.9131 106.96 15.8505 103.202 15.8993C99.4442 15.948 96.0308 18.0998 94.3663 21.4696L103.332 25.8984ZM94.0508 33.6758L85.6694 39.1303C88.085 42.8421 92.6542 44.523 96.8994 43.2615L94.0508 33.6758ZM90.5273 28.2617L87.6657 18.6799C84.6448 19.5821 82.2263 21.8561 81.1399 24.8157C80.0534 27.7752 80.4263 31.0739 82.146 33.7163L90.5273 28.2617ZM99.6797 17.5625L109.633 18.5225C109.904 15.7164 108.978 12.9264 107.082 10.8394C105.187 8.75247 102.499 7.5625 99.6797 7.5625V17.5625ZM92.418 17.5625H82.418C82.418 23.0853 86.8951 27.5625 92.418 27.5625V17.5625ZM92.418 12.1484V2.14844C86.8951 2.14844 82.418 6.62559 82.418 12.1484H92.418ZM124.816 35.3516H134.816C134.816 29.8287 130.339 25.3516 124.816 25.3516V35.3516ZM124.816 49.9609V59.9609C130.339 59.9609 134.816 55.4838 134.816 49.9609H124.816ZM117.941 49.9609H107.941C107.941 55.4838 112.419 59.9609 117.941 59.9609V49.9609ZM117.941 40.8086H127.941C127.941 35.2857 123.464 30.8086 117.941 30.8086V40.8086ZM97.1875 40.8086H87.1875C87.1875 46.3314 91.6646 50.8086 97.1875 50.8086V40.8086ZM97.1875 35.3516V25.3516C91.6646 25.3516 87.1875 29.8287 87.1875 35.3516H97.1875ZM124.816 10.2148H134.816C134.816 4.692 130.339 0.214844 124.816 0.214844V10.2148ZM124.816 33.8477V43.8477C130.339 43.8477 134.816 39.3705 134.816 33.8477H124.816ZM117.941 33.8477H107.941C107.941 39.3705 112.419 43.8477 117.941 43.8477V33.8477ZM117.941 24.8242H127.941C127.941 19.3014 123.464 14.8242 117.941 14.8242V24.8242ZM113 24.8242H103C103 30.3471 107.477 34.8242 113 34.8242V24.8242ZM113 19.2383V9.23828C107.477 9.23828 103 13.7154 103 19.2383H113ZM117.941 19.2383V29.2383C123.464 29.2383 127.941 24.7611 127.941 19.2383H117.941ZM117.941 10.2148V0.214844C112.419 0.214844 107.941 4.692 107.941 10.2148L117.941 10.2148ZM114.031 12.1484L104.031 12.1484V17.5625H114.031H124.031V12.1484H114.031ZM114.031 17.5625V7.5625L106.812 7.5625V17.5625V27.5625H114.031V17.5625ZM106.812 17.5625L96.8489 18.415C97.1577 22.024 98.377 25.959 101.084 29.4801C103.824 33.0433 107.674 35.6425 112.348 37.1672L115.449 27.6602L118.55 18.1531C117.862 17.9285 117.46 17.7014 117.248 17.557C117.042 17.4169 116.963 17.32 116.94 17.2894C116.913 17.2549 116.811 17.1186 116.776 16.71L106.812 17.5625ZM115.449 27.6602L106.973 22.354L103.665 27.6391L112.141 32.9453L120.617 38.2515L123.925 32.9663L115.449 27.6602ZM112.141 32.9453L114.983 23.3578C114.05 23.0812 113.487 22.7333 113.132 22.4402C112.773 22.1443 112.457 21.7649 112.18 21.2385L103.332 25.8984L94.4841 30.5583C97.4204 36.1336 102.404 40.4889 109.298 42.5328L112.141 32.9453ZM103.332 25.8984L94.3663 21.4696C93.741 22.7353 92.8879 23.5891 91.2022 24.0901L94.0508 33.6758L96.8994 43.2615C104.323 41.0554 109.4 36.1944 112.298 30.3273L103.332 25.8984ZM94.0508 33.6758L102.432 28.2212L98.9087 22.8072L90.5273 28.2617L82.146 33.7163L85.6694 39.1303L94.0508 33.6758ZM90.5273 28.2617L93.389 37.8435C98.4597 36.3291 102.511 33.5518 105.338 29.8002C108.097 26.1379 109.29 22.0856 109.633 18.5225L99.6797 17.5625L89.7259 16.6025C89.6613 17.2718 89.4788 17.613 89.3648 17.7642C89.3073 17.8406 89.2056 17.9551 88.9971 18.0961C88.7833 18.2408 88.3756 18.4679 87.6657 18.6799L90.5273 28.2617ZM99.6797 17.5625V7.5625H92.418V17.5625V27.5625H99.6797V17.5625ZM92.418 17.5625H102.418V12.1484H92.418H82.418V17.5625H92.418ZM92.418 12.1484V22.1484H114.031V12.1484V2.14844L92.418 2.14844V12.1484ZM124.816 35.3516H114.816V49.9609H124.816H134.816V35.3516H124.816ZM124.816 49.9609V39.9609H117.941V49.9609V59.9609H124.816V49.9609ZM117.941 49.9609H127.941V40.8086H117.941H107.941V49.9609H117.941ZM117.941 40.8086V30.8086H97.1875V40.8086V50.8086H117.941V40.8086ZM97.1875 40.8086H107.188V35.3516H97.1875H87.1875V40.8086H97.1875ZM97.1875 35.3516V45.3516H124.816V35.3516V25.3516H97.1875V35.3516ZM124.816 10.2148H114.816V33.8477H124.816H134.816V10.2148H124.816ZM124.816 33.8477V23.8477H117.941V33.8477V43.8477H124.816V33.8477ZM117.941 33.8477H127.941V24.8242H117.941H107.941V33.8477H117.941ZM117.941 24.8242V14.8242H113V24.8242V34.8242H117.941V24.8242ZM113 24.8242H123V19.2383H113H103V24.8242H113ZM113 19.2383V29.2383H117.941V19.2383V9.23828H113V19.2383ZM117.941 19.2383H127.941V10.2148H117.941L107.941 10.2148V19.2383H117.941ZM117.941 10.2148V20.2148H124.816V10.2148V0.214844L117.941 0.214844V10.2148ZM162.543 10.3008H172.543C172.543 4.77793 168.066 0.300781 162.543 0.300781V10.3008ZM162.543 38.5312V48.5312C168.066 48.5312 172.543 44.0541 172.543 38.5312H162.543ZM155.625 38.5312H145.625C145.625 44.0541 150.102 48.5312 155.625 48.5312V38.5312ZM155.625 10.3008V0.300781C150.102 0.300781 145.625 4.77793 145.625 10.3008H155.625ZM163.488 43.9023H173.488C173.488 38.3795 169.011 33.9023 163.488 33.9023V43.9023ZM163.488 49.4023V59.4023C169.011 59.4023 173.488 54.9252 173.488 49.4023H163.488ZM135.344 49.4023H125.344C125.344 54.9252 129.821 59.4023 135.344 59.4023V49.4023ZM135.344 35.6953V25.6953C129.821 25.6953 125.344 30.1725 125.344 35.6953H135.344ZM142.305 35.6953H152.305C152.305 30.1725 147.828 25.6953 142.305 25.6953V35.6953ZM142.305 43.9023L132.305 43.9023C132.305 49.4252 136.782 53.9023 142.305 53.9023V43.9023ZM129.457 22.8477L139.457 22.9191C139.457 22.8709 139.457 22.8228 139.457 22.7747L129.457 22.8477ZM162.543 10.3008H152.543V38.5312H162.543H172.543V10.3008H162.543ZM162.543 38.5312V28.5312H155.625V38.5312V48.5312H162.543V38.5312ZM155.625 38.5312H165.625V10.3008H155.625H145.625V38.5312H155.625ZM155.625 10.3008V20.3008H162.543V10.3008V0.300781H155.625V10.3008ZM163.488 43.9023H153.488V49.4023H163.488H173.488V43.9023H163.488ZM163.488 49.4023V39.4023L135.344 39.4023V49.4023V59.4023L163.488 59.4023V49.4023ZM135.344 49.4023L145.344 49.4023V35.6953L135.344 35.6953H125.344V49.4023H135.344ZM135.344 35.6953V45.6953L142.305 45.6953V35.6953V25.6953H135.344V35.6953ZM142.305 35.6953L132.305 35.6953V43.9023L142.305 43.9023H152.305V35.6953H142.305ZM142.305 43.9023V53.9023H163.488V43.9023V33.9023H142.305V43.9023ZM140.586 12.6641V22.6641C141.372 22.6641 141.723 22.9293 141.777 22.9773C141.802 23.0004 141.775 22.9827 141.744 22.9144C141.709 22.8374 141.715 22.7968 141.715 22.8477H151.715H161.715C161.715 10.4836 151.291 2.66406 140.586 2.66406V12.6641ZM151.715 22.8477H141.715C141.715 22.9615 141.696 22.9548 141.726 22.8877C141.753 22.828 141.781 22.8054 141.766 22.8192C141.735 22.8471 141.397 23.1172 140.586 23.1172V33.1172V43.1172C151.32 43.1172 161.715 35.3143 161.715 22.8477H151.715ZM140.586 33.1172V23.1172C139.768 23.1172 139.416 22.8425 139.38 22.8103C139.365 22.7965 139.399 22.825 139.433 22.9C139.47 22.9834 139.456 23.011 139.457 22.9191L129.457 22.8477L119.457 22.7762C119.367 35.3618 129.925 43.1172 140.586 43.1172V33.1172ZM129.457 22.8477L139.457 22.7747C139.457 22.7466 139.458 22.8085 139.415 22.9021C139.378 22.9857 139.343 23.0094 139.369 22.9862C139.427 22.934 139.793 22.6641 140.586 22.6641V12.6641V2.66406C129.955 2.66406 119.366 10.4356 119.457 22.9206L129.457 22.8477ZM140.586 18.6367V8.63672C137.536 8.63672 133.836 9.49584 130.769 12.2291C127.532 15.1138 126.16 19.0552 126.16 22.8477H136.16H146.16C146.16 23.8471 145.733 25.6831 144.075 27.1605C142.587 28.4866 141.101 28.6367 140.586 28.6367V18.6367ZM136.16 22.8477H126.16C126.16 26.5763 127.449 30.5759 130.741 33.5323C133.86 36.3329 137.608 37.1445 140.586 37.1445V27.1445V17.1445C141.029 17.1445 142.564 17.2686 144.104 18.6513C145.817 20.1898 146.16 22.0409 146.16 22.8477H136.16ZM140.586 27.1445V37.1445C143.617 37.1445 147.334 36.2687 150.394 33.4633C153.601 30.5238 154.883 26.5717 154.883 22.8477H144.883H134.883C134.883 22.0455 135.22 20.2418 136.879 18.7203C138.393 17.3328 139.961 17.1445 140.586 17.1445V27.1445ZM144.883 22.8477H154.883C154.883 19.0614 153.518 15.1656 150.366 12.2977C147.359 9.56185 143.69 8.63672 140.586 8.63672V18.6367V28.6367C139.888 28.6367 138.368 28.4206 136.907 27.0919C135.302 25.6312 134.883 23.841 134.883 22.8477H144.883Z" fill="white" mask="url(#path-1-outside-1_6524_1740)"/>
</g>
<defs>
<filter id="filter0_d_6524_1740" x="0" y="0" width="177.488" height="67.9609" filterUnits="userSpaceOnUse" color-interpolation-filters="sRGB">
<feFlood flood-opacity="0" result="BackgroundImageFix"/>
<feColorMatrix in="SourceAlpha" type="matrix" values="0 0 0 0 0 0 0 0 0 0 0 0 0 0 0 0 0 0 127 0" result="hardAlpha"/>
<feOffset dy="4"/>
<feGaussianBlur stdDeviation="2"/>
<feComposite in2="hardAlpha" operator="out"/>
<feColorMatrix type="matrix" values="0 0 0 0 0 0 0 0 0 0 0 0 0 0 0 0 0 0 0.07 0"/>
<feBlend mode="normal" in2="BackgroundImageFix" result="effect1_dropShadow_6524_1740"/>
<feBlend mode="normal" in="SourceGraphic" in2="effect1_dropShadow_6524_1740" result="shape"/>
</filter>
</defs>
</svg>
