<svg width="217" height="68" viewBox="0 0 217 68" fill="none" xmlns="http://www.w3.org/2000/svg">
<g filter="url(#filter0_d_6526_5750)">
<mask id="path-1-outside-1_6526_5750" maskUnits="userSpaceOnUse" x="3.09766" y="-0.507813" width="210" height="61" fill="black">
<rect fill="white" x="3.09766" y="-0.507813" width="210" height="61"/>
<path d="M47.3008 13.0938V16.7461C47.3008 21.7734 47.3008 27.4453 45.625 36.168L38.6641 35.5234C40.1465 28.4121 40.3184 22.998 40.3398 18.5078H17.6523V13.0938H47.3008ZM50.2656 39.8203V45.3633H14V39.8203H26.2031V26.543H33.0352V39.8203H50.2656ZM75.4883 11.9336V17.3906H68.3984C68.9785 20.8496 71.4277 24.3516 77.3359 25.8125L73.8984 31.1836C69.5156 30.002 66.5723 27.5742 64.832 24.4805C63.0273 27.8535 59.9766 30.5391 55.3789 31.8711L51.8984 26.5C58.0215 24.8242 60.5137 21.1074 61.1367 17.3906H53.7461V11.9336H75.4883ZM85.543 10V31.6133H78.625V10H85.543ZM65.2617 33.0742V36.125H78.668V33.0742H85.543V49.4023H58.4727V33.0742H65.2617ZM65.2617 43.9023H78.668V41.3672H65.2617V43.9023ZM111.668 14.8555C111.625 20.0977 115.105 26.4141 125.418 28.0898L122.453 33.8047C115.17 32.4727 110.465 28.8633 107.973 24.2227C105.395 28.8203 100.668 32.4297 93.4922 33.8047L90.5703 28.0898C100.668 26.3711 104.234 19.9687 104.234 14.8555V12.1484L111.668 12.1484V14.8555ZM126.363 39.6055V45.2344H90.0547V39.6055H126.363ZM161.898 10V49.875H155.023V29.3359H149.523V23.75H155.023V10H161.898ZM147.418 13.1367V28.6484L136.289 28.6484V35.1367C140.994 35.1152 145.312 34.9004 149.953 34.1484L150.512 39.6914C144.668 40.6367 139.125 40.8086 132.809 40.8086H129.414V23.2773H140.672V18.6367H129.328V13.1367H147.418ZM202.375 28.8633V34.2344H188.066V40.3789H181.062V34.2344H166.109V28.8633H202.375ZM198.422 43.6875V49.1875H170.148V37.1133H177.109V43.6875H198.422ZM184.242 10.6445C192.922 10.6445 198.809 13.9102 198.809 19.0664C198.809 24.1797 192.922 27.4023 184.242 27.4023C175.477 27.4023 169.59 24.1797 169.59 19.0664C169.59 13.9102 175.477 10.6445 184.242 10.6445ZM184.242 16.0156C179.773 16.0156 177.023 16.918 177.066 19.0664C177.023 21.043 179.773 21.9023 184.242 21.9453C188.668 21.9023 191.375 21.043 191.375 19.0664C191.375 16.918 188.668 16.0156 184.242 16.0156Z"/>
</mask>
<path d="M47.3008 13.0938V16.7461C47.3008 21.7734 47.3008 27.4453 45.625 36.168L38.6641 35.5234C40.1465 28.4121 40.3184 22.998 40.3398 18.5078H17.6523V13.0938H47.3008ZM50.2656 39.8203V45.3633H14V39.8203H26.2031V26.543H33.0352V39.8203H50.2656ZM75.4883 11.9336V17.3906H68.3984C68.9785 20.8496 71.4277 24.3516 77.3359 25.8125L73.8984 31.1836C69.5156 30.002 66.5723 27.5742 64.832 24.4805C63.0273 27.8535 59.9766 30.5391 55.3789 31.8711L51.8984 26.5C58.0215 24.8242 60.5137 21.1074 61.1367 17.3906H53.7461V11.9336H75.4883ZM85.543 10V31.6133H78.625V10H85.543ZM65.2617 33.0742V36.125H78.668V33.0742H85.543V49.4023H58.4727V33.0742H65.2617ZM65.2617 43.9023H78.668V41.3672H65.2617V43.9023ZM111.668 14.8555C111.625 20.0977 115.105 26.4141 125.418 28.0898L122.453 33.8047C115.17 32.4727 110.465 28.8633 107.973 24.2227C105.395 28.8203 100.668 32.4297 93.4922 33.8047L90.5703 28.0898C100.668 26.3711 104.234 19.9687 104.234 14.8555V12.1484L111.668 12.1484V14.8555ZM126.363 39.6055V45.2344H90.0547V39.6055H126.363ZM161.898 10V49.875H155.023V29.3359H149.523V23.75H155.023V10H161.898ZM147.418 13.1367V28.6484L136.289 28.6484V35.1367C140.994 35.1152 145.312 34.9004 149.953 34.1484L150.512 39.6914C144.668 40.6367 139.125 40.8086 132.809 40.8086H129.414V23.2773H140.672V18.6367H129.328V13.1367H147.418ZM202.375 28.8633V34.2344H188.066V40.3789H181.062V34.2344H166.109V28.8633H202.375ZM198.422 43.6875V49.1875H170.148V37.1133H177.109V43.6875H198.422ZM184.242 10.6445C192.922 10.6445 198.809 13.9102 198.809 19.0664C198.809 24.1797 192.922 27.4023 184.242 27.4023C175.477 27.4023 169.59 24.1797 169.59 19.0664C169.59 13.9102 175.477 10.6445 184.242 10.6445ZM184.242 16.0156C179.773 16.0156 177.023 16.918 177.066 19.0664C177.023 21.043 179.773 21.9023 184.242 21.9453C188.668 21.9023 191.375 21.043 191.375 19.0664C191.375 16.918 188.668 16.0156 184.242 16.0156Z" fill="#11DCA9"/>
<path d="M47.3008 13.0938H57.3008C57.3008 7.5709 52.8236 3.09375 47.3008 3.09375V13.0938ZM45.625 36.168L44.703 46.1254C49.827 46.5998 54.4745 43.1081 55.4454 38.0546L45.625 36.168ZM38.6641 35.5234L28.8745 33.4827C28.2931 36.2716 28.9289 39.1761 30.6221 41.4671C32.3154 43.7581 34.9054 45.2182 37.7421 45.4808L38.6641 35.5234ZM40.3398 18.5078L50.3397 18.5557C50.3525 15.8952 49.3045 13.3394 47.4278 11.4537C45.5511 9.56796 43.0003 8.50781 40.3398 8.50781V18.5078ZM17.6523 18.5078H7.65234C7.65234 24.0307 12.1295 28.5078 17.6523 28.5078V18.5078ZM17.6523 13.0938V3.09375C12.1295 3.09375 7.65234 7.5709 7.65234 13.0938H17.6523ZM50.2656 39.8203H60.2656C60.2656 34.2975 55.7885 29.8203 50.2656 29.8203V39.8203ZM50.2656 45.3633V55.3633C55.7885 55.3633 60.2656 50.8861 60.2656 45.3633H50.2656ZM14 45.3633H4C4 50.8861 8.47715 55.3633 14 55.3633V45.3633ZM14 39.8203L14 29.8203C8.47715 29.8203 4 34.2975 4 39.8203H14ZM26.2031 39.8203V49.8203C31.726 49.8203 36.2031 45.3432 36.2031 39.8203H26.2031ZM26.2031 26.543V16.543C20.6803 16.543 16.2031 21.0201 16.2031 26.543H26.2031ZM33.0352 26.543H43.0352C43.0352 21.0201 38.558 16.543 33.0352 16.543V26.543ZM33.0352 39.8203H23.0352C23.0352 45.3432 27.5123 49.8203 33.0352 49.8203V39.8203ZM47.3008 13.0938H37.3008V16.7461H47.3008H57.3008V13.0938H47.3008ZM47.3008 16.7461H37.3008C37.3008 21.5742 37.3002 26.4965 35.8046 34.2813L45.625 36.168L55.4454 38.0546C57.3014 28.3941 57.3008 21.9726 57.3008 16.7461H47.3008ZM45.625 36.168L46.547 26.2106L39.586 25.566L38.6641 35.5234L37.7421 45.4808L44.703 46.1254L45.625 36.168ZM38.6641 35.5234L48.4536 37.5642C50.1283 29.5304 50.3167 23.3728 50.3397 18.5557L40.3398 18.5078L30.34 18.46C30.32 22.6233 30.1646 27.2938 28.8745 33.4827L38.6641 35.5234ZM40.3398 18.5078V8.50781H17.6523V18.5078V28.5078H40.3398V18.5078ZM17.6523 18.5078H27.6523V13.0938H17.6523H7.65234V18.5078H17.6523ZM17.6523 13.0938V23.0938H47.3008V13.0938V3.09375L17.6523 3.09375V13.0938ZM50.2656 39.8203H40.2656V45.3633H50.2656H60.2656V39.8203H50.2656ZM50.2656 45.3633V35.3633H14V45.3633V55.3633H50.2656V45.3633ZM14 45.3633H24V39.8203H14H4V45.3633H14ZM14 39.8203V49.8203H26.2031V39.8203V29.8203H14L14 39.8203ZM26.2031 39.8203H36.2031V26.543H26.2031H16.2031V39.8203H26.2031ZM26.2031 26.543V36.543H33.0352V26.543V16.543H26.2031V26.543ZM33.0352 26.543H23.0352V39.8203H33.0352H43.0352V26.543H33.0352ZM33.0352 39.8203V49.8203H50.2656V39.8203V29.8203H33.0352V39.8203ZM75.4883 11.9336H85.4883C85.4883 6.41075 81.0111 1.93359 75.4883 1.93359V11.9336ZM75.4883 17.3906V27.3906C81.0111 27.3906 85.4883 22.9135 85.4883 17.3906L75.4883 17.3906ZM68.3984 17.3906V7.39062C65.4572 7.39062 62.665 8.6855 60.765 10.9307C58.8649 13.1759 58.0497 16.1438 58.5362 19.0445L68.3984 17.3906ZM77.3359 25.8125L85.7587 31.203C87.4963 28.488 87.8186 25.1017 86.6243 22.1076C85.43 19.1135 82.8656 16.8787 79.7364 16.1049L77.3359 25.8125ZM73.8984 31.1836L71.2953 40.8388C75.5074 41.9744 79.9695 40.2485 82.3212 36.5741L73.8984 31.1836ZM64.832 24.4805L73.5478 19.5779C71.7581 16.3961 68.3768 14.4425 64.7265 14.481C61.0762 14.5196 57.7369 16.5441 56.0147 19.7629L64.832 24.4805ZM55.3789 31.8711L46.9868 37.3092C49.3853 41.0105 53.9254 42.7034 58.1617 41.4761L55.3789 31.8711ZM51.8984 26.5L49.2587 16.8547C46.1819 17.6968 43.6915 19.9561 42.5549 22.9366C41.4182 25.9171 41.7717 29.2611 43.5063 31.9381L51.8984 26.5ZM61.1367 17.3906L70.9991 19.0439C71.4854 16.1432 70.67 13.1755 68.7699 10.9305C66.8699 8.6854 64.0779 7.39062 61.1367 7.39062V17.3906ZM53.7461 17.3906H43.7461C43.7461 22.9135 48.2232 27.3906 53.7461 27.3906V17.3906ZM53.7461 11.9336V1.93359C48.2232 1.93359 43.7461 6.41075 43.7461 11.9336L53.7461 11.9336ZM85.543 10H95.543C95.543 4.47715 91.0658 0 85.543 0V10ZM85.543 31.6133V41.6133C91.0658 41.6133 95.543 37.1361 95.543 31.6133H85.543ZM78.625 31.6133H68.625C68.625 37.1361 73.1022 41.6133 78.625 41.6133V31.6133ZM78.625 10V0C73.1022 0 68.625 4.47715 68.625 10H78.625ZM65.2617 33.0742H75.2617C75.2617 27.5514 70.7846 23.0742 65.2617 23.0742V33.0742ZM65.2617 36.125H55.2617C55.2617 41.6478 59.7389 46.125 65.2617 46.125V36.125ZM78.668 36.125V46.125C84.1908 46.125 88.668 41.6478 88.668 36.125H78.668ZM78.668 33.0742V23.0742C73.1451 23.0742 68.668 27.5514 68.668 33.0742H78.668ZM85.543 33.0742H95.543C95.543 27.5514 91.0658 23.0742 85.543 23.0742V33.0742ZM85.543 49.4023V59.4023C91.0658 59.4023 95.543 54.9252 95.543 49.4023H85.543ZM58.4727 49.4023H48.4727C48.4727 54.9252 52.9498 59.4023 58.4727 59.4023V49.4023ZM58.4727 33.0742V23.0742C52.9498 23.0742 48.4727 27.5514 48.4727 33.0742H58.4727ZM65.2617 43.9023H55.2617C55.2617 49.4252 59.7389 53.9023 65.2617 53.9023V43.9023ZM78.668 43.9023V53.9023C84.1908 53.9023 88.668 49.4252 88.668 43.9023H78.668ZM78.668 41.3672H88.668C88.668 35.8443 84.1908 31.3672 78.668 31.3672V41.3672ZM65.2617 41.3672V31.3672C59.7389 31.3672 55.2617 35.8443 55.2617 41.3672H65.2617ZM75.4883 11.9336H65.4883V17.3906H75.4883L85.4883 17.3906V11.9336H75.4883ZM75.4883 17.3906V7.39062H68.3984V17.3906V27.3906H75.4883V17.3906ZM68.3984 17.3906L58.5362 19.0445C59.815 26.6702 65.3933 33.1606 74.9355 35.5201L77.3359 25.8125L79.7364 16.1049C79.0065 15.9244 78.5717 15.7276 78.3449 15.603C78.1253 15.4823 78.0723 15.4142 78.1012 15.4445C78.1304 15.4751 78.1784 15.5382 78.2178 15.6201C78.2538 15.6949 78.2613 15.7402 78.2607 15.7367L68.3984 17.3906ZM77.3359 25.8125L68.9132 20.422L65.4757 25.7931L73.8984 31.1836L82.3212 36.5741L85.7587 31.203L77.3359 25.8125ZM73.8984 31.1836L76.5016 21.5284C75.4447 21.2434 74.8085 20.8789 74.4265 20.5885C74.0498 20.3021 73.7715 19.9755 73.5478 19.5779L64.832 24.4805L56.1163 29.3831C59.2489 34.9523 64.4725 38.9994 71.2953 40.8388L73.8984 31.1836ZM64.832 24.4805L56.0147 19.7629C55.4978 20.7291 54.6404 21.6738 52.5961 22.2661L55.3789 31.8711L58.1617 41.4761C65.3127 39.4043 70.5569 34.978 73.6493 29.198L64.832 24.4805ZM55.3789 31.8711L63.771 26.433L60.2905 21.0619L51.8984 26.5L43.5063 31.9381L46.9868 37.3092L55.3789 31.8711ZM51.8984 26.5L54.5382 36.1453C59.1172 34.8921 63.0211 32.6722 65.9593 29.4595C68.8955 26.2491 70.4125 22.5434 70.9991 19.0439L61.1367 17.3906L51.2743 15.7374C51.2533 15.8625 51.2281 15.9207 51.2226 15.9325C51.2207 15.9367 51.2203 15.9405 51.2008 15.9618C51.1815 15.983 51.0791 16.0915 50.8108 16.2475C50.5352 16.4078 50.048 16.6387 49.2587 16.8547L51.8984 26.5ZM61.1367 17.3906V7.39062H53.7461V17.3906V27.3906H61.1367V17.3906ZM53.7461 17.3906H63.7461V11.9336H53.7461L43.7461 11.9336V17.3906H53.7461ZM53.7461 11.9336V21.9336H75.4883V11.9336V1.93359L53.7461 1.93359V11.9336ZM85.543 10H75.543V31.6133H85.543H95.543V10H85.543ZM85.543 31.6133V21.6133H78.625V31.6133V41.6133H85.543V31.6133ZM78.625 31.6133H88.625V10H78.625H68.625V31.6133H78.625ZM78.625 10V20H85.543V10V0L78.625 0V10ZM65.2617 33.0742H55.2617V36.125H65.2617H75.2617V33.0742H65.2617ZM65.2617 36.125V46.125H78.668V36.125V26.125L65.2617 26.125V36.125ZM78.668 36.125H88.668V33.0742H78.668H68.668V36.125H78.668ZM78.668 33.0742V43.0742H85.543V33.0742V23.0742H78.668V33.0742ZM85.543 33.0742H75.543V49.4023H85.543H95.543V33.0742H85.543ZM85.543 49.4023V39.4023H58.4727V49.4023V59.4023H85.543V49.4023ZM58.4727 49.4023H68.4727V33.0742H58.4727H48.4727V49.4023H58.4727ZM58.4727 33.0742V43.0742H65.2617V33.0742V23.0742H58.4727V33.0742ZM65.2617 43.9023V53.9023H78.668V43.9023V33.9023H65.2617V43.9023ZM78.668 43.9023H88.668V41.3672H78.668H68.668V43.9023H78.668ZM78.668 41.3672V31.3672H65.2617V41.3672V51.3672H78.668V41.3672ZM65.2617 41.3672H55.2617V43.9023H65.2617H75.2617V41.3672H65.2617ZM111.668 14.8555L121.668 14.9374C121.668 14.9101 121.668 14.8828 121.668 14.8555H111.668ZM125.418 28.0898L134.295 32.695C135.771 29.8483 135.793 26.4661 134.354 23.6006C132.914 20.735 130.187 18.7337 127.022 18.2193L125.418 28.0898ZM122.453 33.8047L120.654 43.6415C124.975 44.4319 129.307 42.3093 131.33 38.4098L122.453 33.8047ZM107.973 24.2227L116.783 19.4914C115.056 16.2757 111.714 14.2563 108.064 14.2231C104.414 14.1898 101.036 16.1479 99.2504 19.3317L107.973 24.2227ZM93.4922 33.8047L84.5884 38.357C86.6125 42.3158 91.0073 44.4628 95.3741 43.626L93.4922 33.8047ZM90.5703 28.0898L88.8923 18.2316C85.7542 18.7658 83.0579 20.762 81.6311 23.6075C80.2043 26.4531 80.2175 29.8079 81.6666 32.6421L90.5703 28.0898ZM104.234 12.1484V2.14844C98.7115 2.14844 94.2344 6.62559 94.2344 12.1484H104.234ZM111.668 12.1484H121.668C121.668 6.62559 117.191 2.14844 111.668 2.14844V12.1484ZM126.363 39.6055H136.363C136.363 34.0826 131.886 29.6055 126.363 29.6055V39.6055ZM126.363 45.2344V55.2344C131.886 55.2344 136.363 50.7572 136.363 45.2344H126.363ZM90.0547 45.2344H80.0547C80.0547 50.7572 84.5318 55.2344 90.0547 55.2344V45.2344ZM90.0547 39.6055V29.6055C84.5318 29.6055 80.0547 34.0826 80.0547 39.6055H90.0547ZM111.668 14.8555L101.668 14.7735C101.629 19.6261 103.229 24.9641 107.157 29.4219C111.121 33.9198 116.831 36.8256 123.814 37.9604L125.418 28.0898L127.022 18.2193C123.693 17.6783 122.505 16.5881 122.162 16.1982C121.783 15.7684 121.664 15.327 121.668 14.9374L111.668 14.8555ZM125.418 28.0898L116.541 23.4847L113.577 29.1996L122.453 33.8047L131.33 38.4098L134.295 32.695L125.418 28.0898ZM122.453 33.8047L124.252 23.9679C119.555 23.1088 117.652 21.1094 116.783 19.4914L107.973 24.2227L99.1627 28.9539C103.278 36.6172 110.784 41.8365 120.654 43.6415L122.453 33.8047ZM107.973 24.2227L99.2504 19.3317C98.2735 21.0737 96.2267 23.0988 91.6103 23.9834L93.4922 33.8047L95.3741 43.626C105.109 41.7606 112.516 36.5669 116.695 29.1137L107.973 24.2227ZM93.4922 33.8047L102.396 29.2524L99.4741 23.5376L90.5703 28.0898L81.6666 32.6421L84.5884 38.357L93.4922 33.8047ZM90.5703 28.0898L92.2483 37.9481C99.1875 36.7669 104.806 33.7854 108.706 29.3411C112.549 24.9605 114.234 19.7003 114.234 14.8555H104.234H94.2344C94.2344 15.1239 94.1362 15.6215 93.6724 16.1501C93.2644 16.615 92.0508 17.694 88.8923 18.2316L90.5703 28.0898ZM104.234 14.8555H114.234V12.1484L104.234 12.1484H94.2344V14.8555H104.234ZM104.234 12.1484V22.1484H111.668V12.1484V2.14844H104.234V12.1484ZM111.668 12.1484L101.668 12.1484V14.8555H111.668H121.668V12.1484H111.668ZM126.363 39.6055H116.363V45.2344H126.363H136.363V39.6055H126.363ZM126.363 45.2344V35.2344H90.0547V45.2344V55.2344H126.363V45.2344ZM90.0547 45.2344H100.055V39.6055H90.0547H80.0547V45.2344H90.0547ZM90.0547 39.6055V49.6055H126.363V39.6055V29.6055H90.0547V39.6055ZM161.898 10H171.898C171.898 4.47715 167.421 0 161.898 0V10ZM161.898 49.875V59.875C167.421 59.875 171.898 55.3978 171.898 49.875H161.898ZM155.023 49.875H145.023C145.023 55.3978 149.501 59.875 155.023 59.875V49.875ZM155.023 29.3359H165.023C165.023 23.8131 160.546 19.3359 155.023 19.3359V29.3359ZM149.523 29.3359L139.523 29.3359C139.523 34.8588 144.001 39.3359 149.523 39.3359V29.3359ZM149.523 23.75V13.75C144.001 13.75 139.523 18.2272 139.523 23.75H149.523ZM155.023 23.75V33.75C160.546 33.75 165.023 29.2728 165.023 23.75H155.023ZM155.023 10V0C149.501 0 145.023 4.47715 145.023 10H155.023ZM147.418 13.1367H157.418C157.418 7.61387 152.941 3.13672 147.418 3.13672V13.1367ZM147.418 28.6484V38.6484C152.941 38.6484 157.418 34.1713 157.418 28.6484H147.418ZM136.289 28.6484V18.6484C130.766 18.6484 126.289 23.1256 126.289 28.6484H136.289ZM136.289 35.1367H126.289C126.289 37.7968 127.349 40.3473 129.234 42.2239C131.119 44.1006 133.675 45.1488 136.335 45.1366L136.289 35.1367ZM149.953 34.1484L159.903 33.1458C159.626 30.403 158.23 27.896 156.044 26.2171C153.857 24.5382 151.075 23.8363 148.354 24.2772L149.953 34.1484ZM150.512 39.6914L152.109 49.5631C157.331 48.7183 160.992 43.9523 160.461 38.6887L150.512 39.6914ZM129.414 40.8086H119.414C119.414 46.3314 123.891 50.8086 129.414 50.8086V40.8086ZM129.414 23.2773V13.2773C123.891 13.2773 119.414 17.7545 119.414 23.2773H129.414ZM140.672 23.2773V33.2773C146.195 33.2773 150.672 28.8002 150.672 23.2773H140.672ZM140.672 18.6367H150.672C150.672 13.1139 146.195 8.63672 140.672 8.63672V18.6367ZM129.328 18.6367H119.328C119.328 24.1596 123.805 28.6367 129.328 28.6367V18.6367ZM129.328 13.1367V3.13672C123.805 3.13672 119.328 7.61387 119.328 13.1367H129.328ZM161.898 10H151.898V49.875H161.898H171.898V10H161.898ZM161.898 49.875V39.875H155.023V49.875V59.875H161.898V49.875ZM155.023 49.875H165.023V29.3359H155.023H145.023V49.875H155.023ZM155.023 29.3359V19.3359H149.523V29.3359V39.3359H155.023V29.3359ZM149.523 29.3359H159.523V23.75H149.523H139.523V29.3359L149.523 29.3359ZM149.523 23.75V33.75H155.023V23.75V13.75H149.523V23.75ZM155.023 23.75H165.023V10H155.023H145.023V23.75H155.023ZM155.023 10V20H161.898V10V0H155.023V10ZM147.418 13.1367H137.418V28.6484L147.418 28.6484H157.418V13.1367H147.418ZM147.418 28.6484V18.6484H136.289V28.6484V38.6484L147.418 38.6484V28.6484ZM136.289 28.6484H126.289V35.1367H136.289L146.289 35.1367V28.6484L136.289 28.6484ZM136.289 35.1367L136.335 45.1366C141.328 45.1138 146.211 44.8853 151.553 44.0197L149.953 34.1484L148.354 24.2772C144.414 24.9155 140.661 25.1167 136.243 25.1368L136.289 35.1367ZM149.953 34.1484L140.004 35.1511L140.562 40.6941L150.512 39.6914L160.461 38.6887L159.903 33.1458L149.953 34.1484ZM150.512 39.6914L148.915 29.8197C143.876 30.6348 138.973 30.8086 132.809 30.8086V40.8086V50.8086C139.277 50.8086 145.46 50.6386 152.109 49.5631L150.512 39.6914ZM132.809 40.8086V30.8086H129.414V40.8086V50.8086H132.809V40.8086ZM129.414 40.8086H139.414V23.2773H129.414H119.414V40.8086H129.414ZM129.414 23.2773V33.2773H140.672V23.2773V13.2773H129.414V23.2773ZM140.672 23.2773H150.672V18.6367H140.672H130.672V23.2773H140.672ZM140.672 18.6367V8.63672H129.328V18.6367V28.6367H140.672V18.6367ZM129.328 18.6367H139.328V13.1367H129.328H119.328V18.6367H129.328ZM129.328 13.1367V23.1367H147.418V13.1367V3.13672H129.328V13.1367ZM202.375 28.8633H212.375C212.375 23.3404 207.898 18.8633 202.375 18.8633V28.8633ZM202.375 34.2344V44.2344C207.898 44.2344 212.375 39.7572 212.375 34.2344H202.375ZM188.066 34.2344V24.2344C182.544 24.2344 178.066 28.7115 178.066 34.2344H188.066ZM188.066 40.3789V50.3789C193.589 50.3789 198.066 45.9018 198.066 40.3789H188.066ZM181.062 40.3789H171.062C171.062 45.9018 175.54 50.3789 181.062 50.3789V40.3789ZM181.062 34.2344H191.062C191.062 28.7115 186.585 24.2344 181.062 24.2344V34.2344ZM166.109 34.2344H156.109C156.109 39.7572 160.587 44.2344 166.109 44.2344V34.2344ZM166.109 28.8633V18.8633C160.587 18.8633 156.109 23.3404 156.109 28.8633H166.109ZM198.422 43.6875H208.422C208.422 38.1647 203.945 33.6875 198.422 33.6875V43.6875ZM198.422 49.1875V59.1875C203.945 59.1875 208.422 54.7103 208.422 49.1875H198.422ZM170.148 49.1875H160.148C160.148 54.7103 164.626 59.1875 170.148 59.1875V49.1875ZM170.148 37.1133V27.1133C164.626 27.1133 160.148 31.5904 160.148 37.1133H170.148ZM177.109 37.1133H187.109C187.109 31.5904 182.632 27.1133 177.109 27.1133V37.1133ZM177.109 43.6875H167.109C167.109 49.2103 171.587 53.6875 177.109 53.6875V43.6875ZM177.066 19.0664L187.064 19.2837C187.067 19.1447 187.067 19.0055 187.064 18.8664L177.066 19.0664ZM184.242 21.9453L184.146 31.9449C184.21 31.9455 184.275 31.9455 184.339 31.9448L184.242 21.9453ZM202.375 28.8633H192.375V34.2344H202.375H212.375V28.8633H202.375ZM202.375 34.2344V24.2344H188.066V34.2344V44.2344H202.375V34.2344ZM188.066 34.2344H178.066V40.3789H188.066H198.066V34.2344H188.066ZM188.066 40.3789V30.3789H181.062V40.3789V50.3789H188.066V40.3789ZM181.062 40.3789H191.062V34.2344H181.062H171.062V40.3789H181.062ZM181.062 34.2344V24.2344H166.109V34.2344V44.2344H181.062V34.2344ZM166.109 34.2344H176.109V28.8633H166.109H156.109V34.2344H166.109ZM166.109 28.8633V38.8633H202.375V28.8633V18.8633H166.109V28.8633ZM198.422 43.6875H188.422V49.1875H198.422H208.422V43.6875H198.422ZM198.422 49.1875V39.1875H170.148V49.1875V59.1875H198.422V49.1875ZM170.148 49.1875H180.148V37.1133H170.148H160.148V49.1875H170.148ZM170.148 37.1133V47.1133H177.109V37.1133V27.1133H170.148V37.1133ZM177.109 37.1133H167.109V43.6875H177.109H187.109V37.1133H177.109ZM177.109 43.6875V53.6875H198.422V43.6875V33.6875H177.109V43.6875ZM184.242 10.6445V20.6445C187.511 20.6445 189.264 21.2872 189.819 21.6043C190.04 21.7309 189.775 21.6354 189.433 21.1222C189.043 20.5377 188.809 19.7837 188.809 19.0664H198.809L208.809 19.0664C208.809 11.9931 204.538 6.98009 199.742 4.23944C195.183 1.63466 189.653 0.644531 184.242 0.644531V10.6445ZM198.809 19.0664H188.809C188.809 18.319 189.055 17.5405 189.458 16.9414C189.811 16.4166 190.085 16.3186 189.86 16.4459C189.298 16.7639 187.53 17.4023 184.242 17.4023V27.4023V37.4023C189.634 37.4023 195.15 36.4294 199.7 33.8578C204.484 31.1543 208.809 26.1664 208.809 19.0664L198.809 19.0664ZM184.242 27.4023V17.4023C180.898 17.4023 179.105 16.7591 178.533 16.4371C178.304 16.3083 178.581 16.4059 178.937 16.9339C179.344 17.5368 179.59 18.3185 179.59 19.0664H169.59H159.59C159.59 26.1735 163.922 31.1642 168.725 33.8666C173.287 36.4343 178.821 37.4023 184.242 37.4023V27.4023ZM169.59 19.0664H179.59C179.59 19.7841 179.355 20.5414 178.962 21.1297C178.617 21.6461 178.349 21.7414 178.575 21.6132C179.139 21.2922 180.916 20.6445 184.242 20.6445V10.6445V0.644531C178.803 0.644531 173.254 1.62965 168.683 4.23051C163.869 6.9701 159.59 11.9861 159.59 19.0664H169.59ZM184.242 16.0156V6.01562C181.626 6.01562 178.291 6.23892 175.262 7.44505C173.67 8.07916 171.579 9.21345 169.852 11.2894C167.964 13.5602 167.011 16.3714 167.068 19.2664L177.066 19.0664L187.064 18.8664C187.101 20.6872 186.475 22.5799 185.23 24.0773C184.147 25.3798 183.014 25.8857 182.662 26.0257C182.281 26.1777 182.181 26.1519 182.552 26.1023C182.889 26.0575 183.439 26.0156 184.242 26.0156V16.0156ZM177.066 19.0664L167.069 18.8491C167.001 21.9454 168.122 24.8155 170.091 27.0144C171.855 28.9853 173.934 30.0228 175.438 30.5892C178.346 31.6844 181.565 31.92 184.146 31.9449L184.242 21.9453L184.338 11.9458C183.511 11.9378 182.924 11.8925 182.545 11.8422C182.13 11.7872 182.169 11.7528 182.487 11.8727C182.75 11.9718 183.87 12.4212 184.991 13.6737C186.317 15.1542 187.11 17.1757 187.064 19.2837L177.066 19.0664ZM184.242 21.9453L184.339 31.9448C186.908 31.9199 190.114 31.683 193.02 30.5791C196.011 29.4425 201.375 26.0887 201.375 19.0664H191.375H181.375C181.375 17.0286 182.162 15.0872 183.446 13.6582C184.544 12.4371 185.638 11.989 185.917 11.8828C186.243 11.7589 186.293 11.7906 185.895 11.844C185.53 11.8929 184.958 11.9379 184.145 11.9458L184.242 21.9453ZM191.375 19.0664H201.375C201.375 16.2326 200.413 13.4938 198.559 11.2736C196.852 9.23035 194.793 8.09759 193.196 7.45618C190.169 6.24019 186.846 6.01562 184.242 6.01562V16.0156V26.0156C185.031 26.0156 185.566 26.0572 185.887 26.1005C186.242 26.1483 186.13 26.1711 185.74 26.0145C185.374 25.8673 184.268 25.3629 183.207 24.0931C181.999 22.6463 181.375 20.826 181.375 19.0664H191.375Z" fill="white" mask="url(#path-1-outside-1_6526_5750)"/>
</g>
<defs>
<filter id="filter0_d_6526_5750" x="0" y="0" width="216.375" height="67.875" filterUnits="userSpaceOnUse" color-interpolation-filters="sRGB">
<feFlood flood-opacity="0" result="BackgroundImageFix"/>
<feColorMatrix in="SourceAlpha" type="matrix" values="0 0 0 0 0 0 0 0 0 0 0 0 0 0 0 0 0 0 127 0" result="hardAlpha"/>
<feOffset dy="4"/>
<feGaussianBlur stdDeviation="2"/>
<feComposite in2="hardAlpha" operator="out"/>
<feColorMatrix type="matrix" values="0 0 0 0 0 0 0 0 0 0 0 0 0 0 0 0 0 0 0.07 0"/>
<feBlend mode="normal" in2="BackgroundImageFix" result="effect1_dropShadow_6526_5750"/>
<feBlend mode="normal" in="SourceGraphic" in2="effect1_dropShadow_6526_5750" result="shape"/>
</filter>
</defs>
</svg>
