<svg width="312" height="68" viewBox="0 0 312 68" fill="none" xmlns="http://www.w3.org/2000/svg">
<g filter="url(#filter0_d_6524_1910)">
<mask id="path-1-outside-1_6524_1910" maskUnits="userSpaceOnUse" x="3.39844" y="-0.507813" width="305" height="61" fill="black">
<rect fill="white" x="3.39844" y="-0.507813" width="305" height="61"/>
<path d="M36.8164 13.7383V17.6055C36.8164 21.7734 36.8164 26.4141 35.7852 32.5156L29.0391 32C29.834 26.7793 29.9199 22.8691 29.9844 19.1953H15.9766V13.7383H36.8164ZM27.2344 25.168V36.3398C30.8223 36.168 34.4531 35.9102 37.8047 35.4805L38.2344 40.5508C30.1992 41.9688 21.4336 42.0977 14.5586 42.0547L14 36.6406C15.998 36.6191 18.1895 36.5977 20.4883 36.5547V25.168H27.2344ZM46.2695 10V25.5547H50.9961V31.2695H46.2695V49.7461H39.2656V10L46.2695 10ZM75.0156 12.5352V17.9492H67.7969C68.1621 21.8594 70.4824 25.6621 76.5195 27.3594L73.2969 32.7305C69.043 31.5273 66.1855 29.1641 64.4453 26.1562C62.6621 29.8086 59.6328 32.709 54.9492 34.1484L51.4688 28.7773C57.8926 26.7793 60.2773 22.2891 60.707 17.9492H53.2734V12.5352H75.0156ZM84.125 10V18.6797H89.0664V24.2227H84.125V33.332H77.207V10H84.125ZM70.9336 33.9336C79.2695 33.8906 84.5117 36.8555 84.5117 41.8398C84.5117 46.8242 79.2695 49.832 70.9336 49.832C62.3828 49.832 57.0117 46.8242 57.0547 41.8398C57.0117 36.8555 62.3828 33.8906 70.9336 33.9336ZM70.9336 39.2188C66.25 39.2188 63.9297 39.9492 63.9297 41.8398C63.9297 43.7305 66.25 44.5039 70.9336 44.5039C75.5312 44.5039 77.6797 43.7305 77.6797 41.8398C77.6797 39.9492 75.5312 39.2188 70.9336 39.2188ZM110.551 33.2461V36.5117H112.914V33.2461H119.273V44.1172C123.141 42.2051 124.559 38.9609 124.559 35.6953V32.8594H131.52V35.6953C131.477 39.6914 133.066 43.1719 138.051 44.6328L134.57 49.7031C131.305 48.7148 129.178 46.7598 127.91 44.2031C126.578 46.6523 124.516 48.6074 121.508 49.7031L119.273 46.3086V49.4023H104.234V33.2461H110.551ZM110.551 44.2461H112.914V41.4961H110.551V44.2461ZM111.109 11.375C115.965 11.375 120.004 14.0605 121.336 18.0352H126.879V10H133.754V31.0547H126.879V23.6211H121.336C120.047 27.7246 116.008 30.4102 111.109 30.4102C104.965 30.4102 100.324 26.457 100.367 20.8281C100.324 15.3711 104.965 11.375 111.109 11.375ZM111.109 17.0039C108.617 17.0039 106.855 18.3359 106.898 20.8281C106.855 23.4062 108.617 24.8242 111.109 24.8242C113.516 24.8242 115.191 23.4062 115.234 20.8281C115.191 18.3359 113.516 17.0039 111.109 17.0039ZM171.523 10V49.875H164.562V10H171.523ZM149.695 12.6641C155.754 12.6211 160.309 18.207 160.309 26.9727C160.309 35.8672 155.754 41.4102 149.695 41.4102C143.508 41.4102 138.91 35.8672 138.91 26.9727C138.91 18.207 143.508 12.6211 149.695 12.6641ZM149.695 18.8945C147.16 18.8516 145.57 21.4727 145.57 26.9727C145.57 32.5586 147.16 35.0937 149.695 35.0937C152.059 35.0937 153.691 32.5586 153.691 26.9727C153.691 21.4727 152.059 18.8516 149.695 18.8945ZM217.371 10V17.0898H222.312V22.7617H217.371V29.6367H210.453V10H217.371ZM205.941 11.6328V28.5625H186.434V11.6328H205.941ZM193.266 17.0469V23.1484H199.109V17.0469H193.266ZM217.371 31.0117V42.6133H197.219V44.0312H218.316V49.4023H190.387V37.6719H210.496V36.2539H190.387V31.0117H217.371ZM255.312 10V25.082H260.684V30.7109H255.312V49.7461H248.48V10H255.312ZM246.547 15.6719V21.1289H223.387V15.6719H231.594V10.7305L238.469 10.7305V15.6719H246.547ZM235.031 22.6758C240.918 22.6758 245.43 26.7148 245.43 32.3437C245.43 38.0156 240.918 42.0547 235.031 42.0547C229.016 42.0547 224.59 38.0156 224.59 32.3437C224.59 26.7148 229.016 22.6758 235.031 22.6758ZM235.031 28.2187C232.797 28.2187 231.164 29.6797 231.207 32.3437C231.164 35.1367 232.797 36.4687 235.031 36.4687C237.223 36.4687 238.812 35.1367 238.812 32.3437C238.812 29.6797 237.223 28.2187 235.031 28.2187ZM293.984 20.0977V25.4258H265.883V11.418H272.758V20.0977H293.984ZM297.895 28.9492V34.2773H261.629V28.9492H297.895ZM294.242 43.4727V48.9727H265.41V37.0273H272.371V43.4727H294.242Z"/>
</mask>
<path d="M36.8164 13.7383V17.6055C36.8164 21.7734 36.8164 26.4141 35.7852 32.5156L29.0391 32C29.834 26.7793 29.9199 22.8691 29.9844 19.1953H15.9766V13.7383H36.8164ZM27.2344 25.168V36.3398C30.8223 36.168 34.4531 35.9102 37.8047 35.4805L38.2344 40.5508C30.1992 41.9688 21.4336 42.0977 14.5586 42.0547L14 36.6406C15.998 36.6191 18.1895 36.5977 20.4883 36.5547V25.168H27.2344ZM46.2695 10V25.5547H50.9961V31.2695H46.2695V49.7461H39.2656V10L46.2695 10ZM75.0156 12.5352V17.9492H67.7969C68.1621 21.8594 70.4824 25.6621 76.5195 27.3594L73.2969 32.7305C69.043 31.5273 66.1855 29.1641 64.4453 26.1562C62.6621 29.8086 59.6328 32.709 54.9492 34.1484L51.4688 28.7773C57.8926 26.7793 60.2773 22.2891 60.707 17.9492H53.2734V12.5352H75.0156ZM84.125 10V18.6797H89.0664V24.2227H84.125V33.332H77.207V10H84.125ZM70.9336 33.9336C79.2695 33.8906 84.5117 36.8555 84.5117 41.8398C84.5117 46.8242 79.2695 49.832 70.9336 49.832C62.3828 49.832 57.0117 46.8242 57.0547 41.8398C57.0117 36.8555 62.3828 33.8906 70.9336 33.9336ZM70.9336 39.2188C66.25 39.2188 63.9297 39.9492 63.9297 41.8398C63.9297 43.7305 66.25 44.5039 70.9336 44.5039C75.5312 44.5039 77.6797 43.7305 77.6797 41.8398C77.6797 39.9492 75.5312 39.2188 70.9336 39.2188ZM110.551 33.2461V36.5117H112.914V33.2461H119.273V44.1172C123.141 42.2051 124.559 38.9609 124.559 35.6953V32.8594H131.52V35.6953C131.477 39.6914 133.066 43.1719 138.051 44.6328L134.57 49.7031C131.305 48.7148 129.178 46.7598 127.91 44.2031C126.578 46.6523 124.516 48.6074 121.508 49.7031L119.273 46.3086V49.4023H104.234V33.2461H110.551ZM110.551 44.2461H112.914V41.4961H110.551V44.2461ZM111.109 11.375C115.965 11.375 120.004 14.0605 121.336 18.0352H126.879V10H133.754V31.0547H126.879V23.6211H121.336C120.047 27.7246 116.008 30.4102 111.109 30.4102C104.965 30.4102 100.324 26.457 100.367 20.8281C100.324 15.3711 104.965 11.375 111.109 11.375ZM111.109 17.0039C108.617 17.0039 106.855 18.3359 106.898 20.8281C106.855 23.4062 108.617 24.8242 111.109 24.8242C113.516 24.8242 115.191 23.4062 115.234 20.8281C115.191 18.3359 113.516 17.0039 111.109 17.0039ZM171.523 10V49.875H164.562V10H171.523ZM149.695 12.6641C155.754 12.6211 160.309 18.207 160.309 26.9727C160.309 35.8672 155.754 41.4102 149.695 41.4102C143.508 41.4102 138.91 35.8672 138.91 26.9727C138.91 18.207 143.508 12.6211 149.695 12.6641ZM149.695 18.8945C147.16 18.8516 145.57 21.4727 145.57 26.9727C145.57 32.5586 147.16 35.0937 149.695 35.0937C152.059 35.0937 153.691 32.5586 153.691 26.9727C153.691 21.4727 152.059 18.8516 149.695 18.8945ZM217.371 10V17.0898H222.312V22.7617H217.371V29.6367H210.453V10H217.371ZM205.941 11.6328V28.5625H186.434V11.6328H205.941ZM193.266 17.0469V23.1484H199.109V17.0469H193.266ZM217.371 31.0117V42.6133H197.219V44.0312H218.316V49.4023H190.387V37.6719H210.496V36.2539H190.387V31.0117H217.371ZM255.312 10V25.082H260.684V30.7109H255.312V49.7461H248.48V10H255.312ZM246.547 15.6719V21.1289H223.387V15.6719H231.594V10.7305L238.469 10.7305V15.6719H246.547ZM235.031 22.6758C240.918 22.6758 245.43 26.7148 245.43 32.3437C245.43 38.0156 240.918 42.0547 235.031 42.0547C229.016 42.0547 224.59 38.0156 224.59 32.3437C224.59 26.7148 229.016 22.6758 235.031 22.6758ZM235.031 28.2187C232.797 28.2187 231.164 29.6797 231.207 32.3437C231.164 35.1367 232.797 36.4687 235.031 36.4687C237.223 36.4687 238.812 35.1367 238.812 32.3437C238.812 29.6797 237.223 28.2187 235.031 28.2187ZM293.984 20.0977V25.4258H265.883V11.418H272.758V20.0977H293.984ZM297.895 28.9492V34.2773H261.629V28.9492H297.895ZM294.242 43.4727V48.9727H265.41V37.0273H272.371V43.4727H294.242Z" fill="#11DCA9"/>
<path d="M36.8164 13.7383H46.8164C46.8164 8.21543 42.3393 3.73828 36.8164 3.73828V13.7383ZM35.7852 32.5156L35.023 42.4865C40.1782 42.8806 44.7837 39.28 45.6453 34.1821L35.7852 32.5156ZM29.0391 32L19.153 30.4947C18.7342 33.2451 19.4801 36.0455 21.2114 38.2232C22.9428 40.4009 25.503 41.7589 28.277 41.9709L29.0391 32ZM29.9844 19.1953L39.9828 19.3707C40.0299 16.6886 38.9973 14.1 37.1172 12.1865C35.237 10.2731 32.6669 9.19531 29.9844 9.19531V19.1953ZM15.9766 19.1953H5.97656C5.97656 24.7182 10.4537 29.1953 15.9766 29.1953V19.1953ZM15.9766 13.7383V3.73828C10.4537 3.73828 5.97656 8.21543 5.97656 13.7383H15.9766ZM27.2344 25.168H37.2344C37.2344 19.6451 32.7572 15.168 27.2344 15.168V25.168ZM27.2344 36.3398H17.2344C17.2344 39.075 18.3547 41.6909 20.3346 43.5781C22.3144 45.4653 24.9808 46.4593 27.7129 46.3284L27.2344 36.3398ZM37.8047 35.4805L47.769 34.636C47.5387 31.9191 46.209 29.414 44.0877 27.7008C41.9665 25.9876 39.2376 25.2149 36.533 25.5617L37.8047 35.4805ZM38.2344 40.5508L39.9722 50.3986C45.0676 49.4994 48.6356 44.8619 48.1987 39.7064L38.2344 40.5508ZM14.5586 42.0547L4.6114 43.081C5.13497 48.1556 9.3946 52.0226 14.4961 52.0545L14.5586 42.0547ZM14 36.6406L13.8925 26.6412C11.0806 26.6714 8.4114 27.8842 6.53904 29.9822C4.66667 32.0803 3.7642 34.8697 4.0528 37.6669L14 36.6406ZM20.4883 36.5547L20.6752 46.5529C26.1242 46.4511 30.4883 42.0047 30.4883 36.5547H20.4883ZM20.4883 25.168V15.168C14.9654 15.168 10.4883 19.6451 10.4883 25.168H20.4883ZM46.2695 10H56.2695C56.2695 4.47715 51.7924 0 46.2695 0V10ZM46.2695 25.5547H36.2695C36.2695 31.0775 40.7467 35.5547 46.2695 35.5547V25.5547ZM50.9961 25.5547H60.9961C60.9961 20.0318 56.5189 15.5547 50.9961 15.5547V25.5547ZM50.9961 31.2695V41.2695C56.5189 41.2695 60.9961 36.7924 60.9961 31.2695H50.9961ZM46.2695 31.2695V21.2695C40.7467 21.2695 36.2695 25.7467 36.2695 31.2695H46.2695ZM46.2695 49.7461V59.7461C51.7924 59.7461 56.2695 55.2689 56.2695 49.7461H46.2695ZM39.2656 49.7461H29.2656C29.2656 55.2689 33.7428 59.7461 39.2656 59.7461V49.7461ZM39.2656 10V0C33.7428 0 29.2656 4.47715 29.2656 10H39.2656ZM36.8164 13.7383H26.8164V17.6055H36.8164H46.8164V13.7383H36.8164ZM36.8164 17.6055H26.8164C26.8164 21.7067 26.8068 25.6317 25.925 30.8491L35.7852 32.5156L45.6453 34.1821C46.826 27.1964 46.8164 21.8402 46.8164 17.6055H36.8164ZM35.7852 32.5156L36.5473 22.5447L29.8012 22.0291L29.0391 32L28.277 41.9709L35.023 42.4865L35.7852 32.5156ZM29.0391 32L38.9251 33.5053C39.825 27.5953 39.9168 23.135 39.9828 19.3707L29.9844 19.1953L19.9859 19.0199C19.923 22.6032 19.843 25.9633 19.153 30.4947L29.0391 32ZM29.9844 19.1953V9.19531H15.9766V19.1953V29.1953H29.9844V19.1953ZM15.9766 19.1953H25.9766V13.7383H15.9766H5.97656V19.1953H15.9766ZM15.9766 13.7383V23.7383H36.8164V13.7383V3.73828L15.9766 3.73828V13.7383ZM27.2344 25.168H17.2344V36.3398H27.2344H37.2344V25.168H27.2344ZM27.2344 36.3398L27.7129 46.3284C31.4295 46.1503 35.3539 45.8765 39.0763 45.3993L37.8047 35.4805L36.533 25.5617C33.5524 25.9438 30.215 26.1856 26.7559 26.3513L27.2344 36.3398ZM37.8047 35.4805L27.8404 36.3249L28.2701 41.3952L38.2344 40.5508L48.1987 39.7064L47.769 34.636L37.8047 35.4805ZM38.2344 40.5508L36.4965 30.7029C29.4192 31.9519 21.4316 32.0975 14.6211 32.0549L14.5586 42.0547L14.4961 52.0545C21.4356 52.0979 30.9792 51.9856 39.9722 50.3986L38.2344 40.5508ZM14.5586 42.0547L24.5058 41.0284L23.9472 35.6143L14 36.6406L4.0528 37.6669L4.6114 43.081L14.5586 42.0547ZM14 36.6406L14.1075 46.64C16.0915 46.6187 18.3279 46.5968 20.6752 46.5529L20.4883 36.5547L20.3014 26.5564C18.051 26.5985 15.9046 26.6196 13.8925 26.6412L14 36.6406ZM20.4883 36.5547H30.4883V25.168H20.4883H10.4883L10.4883 36.5547H20.4883ZM20.4883 25.168V35.168H27.2344V25.168V15.168H20.4883V25.168ZM46.2695 10L36.2695 10V25.5547H46.2695H56.2695V10H46.2695ZM46.2695 25.5547V35.5547H50.9961V25.5547V15.5547H46.2695V25.5547ZM50.9961 25.5547H40.9961V31.2695H50.9961H60.9961V25.5547H50.9961ZM50.9961 31.2695V21.2695H46.2695V31.2695V41.2695H50.9961V31.2695ZM46.2695 31.2695H36.2695V49.7461H46.2695H56.2695V31.2695H46.2695ZM46.2695 49.7461V39.7461H39.2656V49.7461V59.7461H46.2695V49.7461ZM39.2656 49.7461H49.2656V10L39.2656 10H29.2656V49.7461H39.2656ZM39.2656 10V20H46.2695V10V0H39.2656V10ZM75.0156 12.5352L85.0156 12.5352C85.0156 7.01231 80.5385 2.53516 75.0156 2.53516V12.5352ZM75.0156 17.9492V27.9492C80.5385 27.9492 85.0156 23.4721 85.0156 17.9492L75.0156 17.9492ZM67.7969 17.9492V7.94922C64.983 7.94922 62.2993 9.13478 60.4043 11.215C58.5093 13.2952 57.5785 16.0775 57.8402 18.8792L67.7969 17.9492ZM76.5195 27.3594L85.0945 32.5043C86.6981 29.8316 86.9638 26.564 85.813 23.6673C84.6622 20.7706 82.2266 18.5762 79.226 17.7326L76.5195 27.3594ZM73.2969 32.7305L70.5753 42.353C74.9199 43.5818 79.5489 41.747 81.8718 37.8754L73.2969 32.7305ZM64.4453 26.1562L73.101 21.1483C71.2504 17.9498 67.7868 16.0325 64.0938 16.1624C60.4008 16.2923 57.0804 18.4482 55.4592 21.7689L64.4453 26.1562ZM54.9492 34.1484L46.5571 39.5865C48.9882 43.3381 53.6139 45.0205 57.887 43.7072L54.9492 34.1484ZM51.4688 28.7773L48.4987 19.2286C45.5106 20.158 43.1299 22.4326 42.0653 25.3753C41.0006 28.3179 41.3749 31.5893 43.0767 34.2154L51.4688 28.7773ZM60.707 17.9492L70.6584 18.9345C70.9366 16.1247 70.0139 13.3282 68.1183 11.2355C66.2226 9.14291 63.5306 7.94922 60.707 7.94922V17.9492ZM53.2734 17.9492H43.2734C43.2734 23.4721 47.7506 27.9492 53.2734 27.9492V17.9492ZM53.2734 12.5352V2.53516C47.7506 2.53516 43.2734 7.01231 43.2734 12.5352H53.2734ZM84.125 10H94.125C94.125 4.47715 89.6479 0 84.125 0V10ZM84.125 18.6797L74.125 18.6797C74.125 24.2025 78.6021 28.6797 84.125 28.6797V18.6797ZM89.0664 18.6797H99.0664C99.0664 13.1568 94.5893 8.67969 89.0664 8.67969V18.6797ZM89.0664 24.2227V34.2227C94.5893 34.2227 99.0664 29.7455 99.0664 24.2227H89.0664ZM84.125 24.2227V14.2227C78.6021 14.2227 74.125 18.6998 74.125 24.2227L84.125 24.2227ZM84.125 33.332V43.332C89.6479 43.332 94.125 38.8549 94.125 33.332H84.125ZM77.207 33.332H67.207C67.207 38.8549 71.6842 43.332 77.207 43.332V33.332ZM77.207 10V0C71.6842 0 67.207 4.47715 67.207 10H77.207ZM70.9336 33.9336L70.8833 43.9335C70.9173 43.9336 70.9512 43.9336 70.9851 43.9335L70.9336 33.9336ZM57.0547 41.8398L67.0543 41.926C67.0548 41.8686 67.0548 41.8111 67.0543 41.7536L57.0547 41.8398ZM75.0156 12.5352H65.0156V17.9492H75.0156L85.0156 17.9492V12.5352L75.0156 12.5352ZM75.0156 17.9492V7.94922H67.7969V17.9492V27.9492H75.0156V17.9492ZM67.7969 17.9492L57.8402 18.8792C58.1797 22.514 59.4776 26.4503 62.3582 29.897C65.2475 33.354 69.2034 35.6902 73.8131 36.9862L76.5195 27.3594L79.226 17.7326C78.4922 17.5263 78.0792 17.3147 77.8816 17.1938C77.6935 17.0786 77.6658 17.0253 77.7043 17.0712C77.7419 17.1163 77.7714 17.1711 77.7835 17.2023C77.7917 17.2233 77.7678 17.1717 77.7535 17.0192L67.7969 17.9492ZM76.5195 27.3594L67.9446 22.2144L64.7219 27.5855L73.2969 32.7305L81.8718 37.8754L85.0945 32.5043L76.5195 27.3594ZM73.2969 32.7305L76.0184 23.1079C74.9934 22.818 74.3734 22.4593 73.9959 22.1712C73.6232 21.8867 73.3382 21.5583 73.101 21.1483L64.4453 26.1562L55.7896 31.1642C58.8966 36.5342 63.9444 40.4776 70.5753 42.353L73.2969 32.7305ZM64.4453 26.1562L55.4592 21.7689C54.8358 23.0456 53.9348 23.9986 52.0114 24.5897L54.9492 34.1484L57.887 43.7072C65.3308 41.4194 70.4884 36.5716 73.4315 30.5436L64.4453 26.1562ZM54.9492 34.1484L63.3413 28.7104L59.8608 23.3393L51.4688 28.7773L43.0767 34.2154L46.5571 39.5865L54.9492 34.1484ZM51.4688 28.7773L54.4388 38.3261C59.4335 36.7726 63.4645 34.0258 66.302 30.2861C69.0845 26.619 70.2999 22.5553 70.6584 18.9345L60.707 17.9492L50.7557 16.9639C50.6845 17.683 50.4927 18.0343 50.3693 18.1969C50.3012 18.2867 49.9279 18.7841 48.4987 19.2286L51.4688 28.7773ZM60.707 17.9492V7.94922H53.2734V17.9492V27.9492H60.707V17.9492ZM53.2734 17.9492H63.2734V12.5352H53.2734H43.2734V17.9492H53.2734ZM53.2734 12.5352V22.5352H75.0156V12.5352V2.53516L53.2734 2.53516V12.5352ZM84.125 10H74.125V18.6797L84.125 18.6797H94.125V10H84.125ZM84.125 18.6797V28.6797H89.0664V18.6797V8.67969H84.125V18.6797ZM89.0664 18.6797H79.0664V24.2227H89.0664H99.0664V18.6797H89.0664ZM89.0664 24.2227V14.2227H84.125V24.2227V34.2227H89.0664V24.2227ZM84.125 24.2227L74.125 24.2227V33.332H84.125H94.125V24.2227H84.125ZM84.125 33.332V23.332L77.207 23.332V33.332V43.332H84.125V33.332ZM77.207 33.332H87.207V10H77.207H67.207V33.332H77.207ZM77.207 10V20L84.125 20V10V0H77.207V10ZM70.9336 33.9336L70.9851 43.9335C72.4889 43.9257 73.6594 44.0562 74.5144 44.2359C75.3846 44.4189 75.7778 44.6208 75.8468 44.6607C75.8982 44.6903 75.5177 44.4811 75.1227 43.8595C74.6923 43.1825 74.5117 42.4312 74.5117 41.8398H84.5117H94.5117C94.5117 35.1435 90.7065 30.1472 85.8504 27.3422C81.3992 24.7711 76.0351 23.9072 70.882 23.9337L70.9336 33.9336ZM84.5117 41.8398H74.5117C74.5117 41.2489 74.6919 40.5086 75.1111 39.8458C75.4955 39.2381 75.8625 39.0365 75.8026 39.0716C75.7257 39.1165 75.3276 39.3221 74.4578 39.5102C73.6028 39.6952 72.4338 39.832 70.9336 39.832V49.832V59.832C76.0972 59.832 81.4561 58.9328 85.8947 56.3386C90.7227 53.5167 94.5117 48.5224 94.5117 41.8398H84.5117ZM70.9336 49.832V39.832C69.3644 39.832 68.1302 39.6925 67.2164 39.4997C66.2859 39.3033 65.8413 39.0846 65.7329 39.0226C65.6385 38.9687 66.0144 39.1607 66.4175 39.7885C66.8622 40.4811 67.0599 41.2739 67.0543 41.926L57.0547 41.8398L47.0551 41.7536C46.9961 48.5942 50.95 53.6103 55.8101 56.3875C60.2851 58.9446 65.6986 59.832 70.9336 59.832V49.832ZM57.0547 41.8398L67.0543 41.7536C67.0599 42.4062 66.8617 43.21 66.4057 43.9169C65.9918 44.5584 65.6025 44.7576 65.6889 44.7089C65.7899 44.6518 66.23 44.4369 67.161 44.2459C68.0749 44.0585 69.3107 43.9256 70.8833 43.9335L70.9336 33.9336L70.9838 23.9337C65.7592 23.9075 60.3409 24.7602 55.8541 27.294C50.9669 30.054 46.996 35.071 47.0551 41.926L57.0547 41.8398ZM70.9336 39.2188V29.2188C68.4104 29.2188 65.1848 29.3702 62.2927 30.4098C60.7474 30.9652 58.609 32.0126 56.819 34.0713C54.8437 36.3431 53.9297 39.1164 53.9297 41.8398H63.9297H73.9297C73.9297 43.6179 73.3057 45.591 71.9118 47.1941C70.7032 48.5841 69.4377 49.0943 69.0579 49.2308C68.6482 49.3781 68.5423 49.3489 68.9752 49.3004C69.367 49.2566 69.9967 49.2188 70.9336 49.2188V39.2188ZM63.9297 41.8398H53.9297C53.9297 44.5591 54.8398 47.3117 56.7803 49.5703C58.5455 51.625 60.6617 52.6904 62.2162 53.2636C65.1286 54.3372 68.3718 54.5039 70.9336 54.5039V44.5039V34.5039C70.0126 34.5039 69.3971 34.4646 69.0203 34.4207C68.6037 34.3722 68.7185 34.3449 69.1343 34.4982C69.5234 34.6416 70.7667 35.1592 71.9505 36.5371C73.3096 38.119 73.9297 40.0659 73.9297 41.8398H63.9297ZM70.9336 44.5039V54.5039C73.4375 54.5039 76.6985 54.3436 79.6356 53.2085C81.2327 52.5913 83.3375 51.4597 85.0521 49.3364C86.9033 47.044 87.6797 44.3632 87.6797 41.8398H77.6797H67.6797C67.6797 40.2618 68.1875 38.3866 69.4922 36.7711C70.6603 35.3245 71.9407 34.7407 72.4259 34.5532C72.9145 34.3644 73.1019 34.3807 72.7324 34.4252C72.4039 34.4647 71.8302 34.5039 70.9336 34.5039V44.5039ZM77.6797 41.8398H87.6797C87.6797 39.3139 86.9006 36.6116 85.0152 34.3045C83.2745 32.1746 81.1454 31.0612 79.5569 30.4626C76.6405 29.3637 73.3978 29.2188 70.9336 29.2188V39.2188V49.2188C71.8464 49.2188 72.4348 49.2565 72.779 49.2963C73.1657 49.341 72.9874 49.3599 72.5047 49.178C72.028 48.9984 70.7233 48.4221 69.5291 46.9608C68.1902 45.3225 67.6797 43.4205 67.6797 41.8398H77.6797ZM110.551 33.2461H120.551C120.551 27.7232 116.074 23.2461 110.551 23.2461V33.2461ZM110.551 36.5117H100.551C100.551 42.0346 105.028 46.5117 110.551 46.5117V36.5117ZM112.914 36.5117V46.5117C118.437 46.5117 122.914 42.0346 122.914 36.5117H112.914ZM112.914 33.2461V23.2461C107.391 23.2461 102.914 27.7232 102.914 33.2461H112.914ZM119.273 33.2461H129.273C129.273 27.7232 124.796 23.2461 119.273 23.2461V33.2461ZM119.273 44.1172H109.273C109.273 47.575 111.06 50.7875 113.997 52.612C116.935 54.4364 120.606 54.6139 123.706 53.0813L119.273 44.1172ZM124.559 32.8594V22.8594C119.036 22.8594 114.559 27.3365 114.559 32.8594H124.559ZM131.52 32.8594L141.52 32.8594C141.52 27.3365 137.042 22.8594 131.52 22.8594V32.8594ZM131.52 35.6953L141.519 35.8028C141.519 35.767 141.52 35.7312 141.52 35.6953L131.52 35.6953ZM138.051 44.6328L146.295 50.2922C148.109 47.6497 148.547 44.298 147.471 41.2786C146.396 38.2592 143.939 35.938 140.863 35.0365L138.051 44.6328ZM134.57 49.7031L131.674 59.2744C135.843 60.5362 140.35 58.9539 142.815 55.3625L134.57 49.7031ZM127.91 44.2031L136.869 39.7611C135.212 36.4177 131.83 34.2755 128.099 34.2049C124.368 34.1343 120.908 36.1471 119.125 39.4254L127.91 44.2031ZM121.508 49.7031L113.155 55.2012C115.703 59.0721 120.576 60.6853 124.931 59.0991L121.508 49.7031ZM119.273 46.3086L127.626 40.8105C125.198 37.1206 120.635 35.4615 116.404 36.7292C112.172 37.9969 109.273 41.8911 109.273 46.3086H119.273ZM119.273 49.4023V59.4023C124.796 59.4023 129.273 54.9252 129.273 49.4023H119.273ZM104.234 49.4023H94.2344C94.2344 54.9252 98.7115 59.4023 104.234 59.4023V49.4023ZM104.234 33.2461V23.2461C98.7115 23.2461 94.2344 27.7232 94.2344 33.2461H104.234ZM110.551 44.2461H100.551C100.551 49.7689 105.028 54.2461 110.551 54.2461V44.2461ZM112.914 44.2461V54.2461C118.437 54.2461 122.914 49.7689 122.914 44.2461H112.914ZM112.914 41.4961H122.914C122.914 35.9732 118.437 31.4961 112.914 31.4961V41.4961ZM110.551 41.4961V31.4961C105.028 31.4961 100.551 35.9732 100.551 41.4961H110.551ZM121.336 18.0352L111.854 21.2128C113.22 25.2884 117.038 28.0352 121.336 28.0352V18.0352ZM126.879 18.0352V28.0352C132.402 28.0352 136.879 23.558 136.879 18.0352H126.879ZM126.879 10V0C121.356 0 116.879 4.47715 116.879 10H126.879ZM133.754 10H143.754C143.754 4.47715 139.277 0 133.754 0V10ZM133.754 31.0547V41.0547C139.277 41.0547 143.754 36.5775 143.754 31.0547L133.754 31.0547ZM126.879 31.0547H116.879C116.879 36.5775 121.356 41.0547 126.879 41.0547V31.0547ZM126.879 23.6211H136.879C136.879 18.0982 132.402 13.6211 126.879 13.6211V23.6211ZM121.336 23.6211V13.6211C116.968 13.6211 113.105 16.4566 111.796 20.6241L121.336 23.6211ZM100.367 20.8281L110.367 20.9045C110.367 20.8528 110.367 20.8011 110.367 20.7494L100.367 20.8281ZM106.898 20.8281L116.897 20.9948C116.899 20.8818 116.899 20.7687 116.897 20.6557L106.898 20.8281ZM115.234 20.8281L125.233 20.9948C125.235 20.8818 125.235 20.7687 125.233 20.6557L115.234 20.8281ZM110.551 33.2461H100.551V36.5117H110.551H120.551V33.2461H110.551ZM110.551 36.5117V46.5117H112.914V36.5117V26.5117H110.551V36.5117ZM112.914 36.5117H122.914V33.2461H112.914H102.914V36.5117H112.914ZM112.914 33.2461V43.2461H119.273V33.2461V23.2461H112.914V33.2461ZM119.273 33.2461H109.273V44.1172H119.273H129.273V33.2461H119.273ZM119.273 44.1172L123.706 53.0813C131.452 49.2514 134.559 42.2119 134.559 35.6953H124.559H114.559C114.559 35.8909 114.52 35.7382 114.696 35.4318C114.781 35.2836 114.878 35.1705 114.952 35.1023C115.023 35.0366 115.012 35.0688 114.841 35.1531L119.273 44.1172ZM124.559 35.6953H134.559V32.8594H124.559H114.559V35.6953H124.559ZM124.559 32.8594V42.8594H131.52V32.8594V22.8594H124.559V32.8594ZM131.52 32.8594H121.52V35.6953H131.52L141.52 35.6953V32.8594L131.52 32.8594ZM131.52 35.6953L121.52 35.5878C121.485 38.8716 122.105 42.8789 124.531 46.588C127.057 50.4514 130.857 52.945 135.238 54.2291L138.051 44.6328L140.863 35.0365C140.509 34.9327 140.492 34.875 140.654 34.9881C140.834 35.1139 141.069 35.3356 141.269 35.6415C141.665 36.2461 141.511 36.5151 141.519 35.8028L131.52 35.6953ZM138.051 44.6328L129.806 38.9735L126.326 44.0438L134.57 49.7031L142.815 55.3625L146.295 50.2922L138.051 44.6328ZM134.57 49.7031L137.467 40.1318C137.24 40.063 137.106 40 137.04 39.9649C137.006 39.9468 136.985 39.9335 136.975 39.9262C136.969 39.9225 136.965 39.9198 136.963 39.9182C136.962 39.9174 136.962 39.9168 136.961 39.9165C136.961 39.9161 136.96 39.9159 136.96 39.9159C136.96 39.9159 136.961 39.916 136.961 39.9162C136.961 39.9164 136.961 39.9167 136.962 39.917C136.962 39.9177 136.963 39.9184 136.963 39.9188C136.965 39.9201 136.963 39.9183 136.958 39.9117C136.949 39.9 136.916 39.8558 136.869 39.7611L127.91 44.2031L118.951 48.6451C121.436 53.6571 125.747 57.4807 131.674 59.2744L134.57 49.7031ZM127.91 44.2031L119.125 39.4254C118.967 39.717 118.828 39.8681 118.728 39.9562C118.635 40.038 118.457 40.1718 118.085 40.3072L121.508 49.7031L124.931 59.0991C130.375 57.1159 134.275 53.4313 136.695 48.9808L127.91 44.2031ZM121.508 49.7031L129.861 44.205L127.626 40.8105L119.273 46.3086L110.921 51.8067L113.155 55.2012L121.508 49.7031ZM119.273 46.3086H109.273V49.4023H119.273H129.273V46.3086H119.273ZM119.273 49.4023V39.4023H104.234V49.4023V59.4023H119.273V49.4023ZM104.234 49.4023H114.234V33.2461H104.234H94.2344V49.4023H104.234ZM104.234 33.2461V43.2461H110.551V33.2461V23.2461H104.234V33.2461ZM110.551 44.2461V54.2461H112.914V44.2461V34.2461H110.551V44.2461ZM112.914 44.2461H122.914V41.4961H112.914H102.914V44.2461H112.914ZM112.914 41.4961V31.4961H110.551V41.4961V51.4961H112.914V41.4961ZM110.551 41.4961H100.551V44.2461H110.551H120.551V41.4961H110.551ZM111.109 11.375V21.375C111.699 21.375 111.998 21.5361 112.064 21.5794C112.096 21.6007 112.071 21.5906 112.019 21.525C111.964 21.4563 111.9 21.3496 111.854 21.2128L121.336 18.0352L130.818 14.8575C127.898 6.14694 119.523 1.375 111.109 1.375V11.375ZM121.336 18.0352V28.0352H126.879V18.0352V8.03516H121.336V18.0352ZM126.879 18.0352H136.879V10H126.879H116.879V18.0352H126.879ZM126.879 10V20H133.754V10V0L126.879 0V10ZM133.754 10H123.754V31.0547H133.754L143.754 31.0547V10H133.754ZM133.754 31.0547V21.0547H126.879V31.0547V41.0547H133.754V31.0547ZM126.879 31.0547H136.879V23.6211H126.879H116.879V31.0547H126.879ZM126.879 23.6211V13.6211H121.336V23.6211V33.6211H126.879V23.6211ZM121.336 23.6211L111.796 20.6241C111.831 20.5126 111.888 20.406 111.952 20.3225C112.013 20.2425 112.056 20.2164 112.044 20.2243C112.02 20.2403 111.739 20.4102 111.109 20.4102V30.4102V40.4102C119.575 40.4102 128.053 35.606 130.876 26.6181L121.336 23.6211ZM111.109 30.4102V20.4102C110.157 20.4102 109.899 20.113 110.024 20.2224C110.087 20.2777 110.193 20.3984 110.277 20.583C110.363 20.774 110.367 20.9061 110.367 20.9045L100.367 20.8281L90.3675 20.7518C90.2727 33.1693 100.734 40.4102 111.109 40.4102V30.4102ZM100.367 20.8281L110.367 20.7494C110.368 20.8364 110.345 21.0182 110.249 21.2259C110.158 21.4249 110.049 21.5404 110 21.5835C109.904 21.6678 110.183 21.375 111.109 21.375V11.375V1.375C100.799 1.375 90.2706 8.60252 90.3675 20.9069L100.367 20.8281ZM111.109 17.0039V7.00391C108.192 7.00391 104.565 7.78161 101.518 10.412C98.2453 13.2378 96.834 17.1795 96.8999 21.0005L106.898 20.8281L116.897 20.6557C116.92 21.9845 116.368 24.0142 114.588 25.5509C113.034 26.8922 111.535 27.0039 111.109 27.0039V17.0039ZM106.898 20.8281L96.8998 20.6615C96.8375 24.3989 98.1559 28.3184 101.337 31.202C104.36 33.9418 108.04 34.8242 111.109 34.8242V24.8242V14.8242C111.686 14.8242 113.24 14.9977 114.769 16.3839C116.457 17.9141 116.916 19.8355 116.897 20.9948L106.898 20.8281ZM111.109 24.8242V34.8242C114.25 34.8242 117.911 33.876 120.881 31.1035C123.929 28.2586 125.175 24.4958 125.233 20.9948L115.234 20.8281L105.236 20.6615C105.251 19.7386 105.637 17.9738 107.235 16.4824C108.755 15.0635 110.375 14.8242 111.109 14.8242V24.8242ZM115.234 20.8281L125.233 20.6557C125.171 17.0825 123.843 13.2998 120.702 10.5074C117.7 7.83951 114.091 7.00391 111.109 7.00391V17.0039V27.0039C110.534 27.0039 108.966 26.8343 107.414 25.4555C105.723 23.9521 105.255 22.0816 105.236 21.0005L115.234 20.8281ZM171.523 10L181.523 10C181.523 4.47715 177.046 0 171.523 0V10ZM171.523 49.875V59.875C177.046 59.875 181.523 55.3978 181.523 49.875H171.523ZM164.562 49.875H154.562C154.562 55.3978 159.04 59.875 164.562 59.875V49.875ZM164.562 10V0C159.04 0 154.562 4.47715 154.562 10H164.562ZM149.695 12.6641L149.626 22.6638C149.673 22.6641 149.719 22.6641 149.766 22.6638L149.695 12.6641ZM149.695 18.8945L149.526 28.8931C149.643 28.8951 149.76 28.895 149.877 28.8929L149.695 18.8945ZM171.523 10H161.523V49.875H171.523H181.523V10L171.523 10ZM171.523 49.875V39.875H164.562V49.875V59.875H171.523V49.875ZM164.562 49.875H174.562V10L164.562 10H154.562V49.875H164.562ZM164.562 10V20H171.523V10V0L164.562 0V10ZM149.695 12.6641L149.766 22.6638C149.698 22.6643 149.529 22.6406 149.354 22.5508C149.192 22.4681 149.201 22.4198 149.322 22.5782C149.592 22.9327 150.309 24.2334 150.309 26.9727H160.309H170.309C170.309 20.9463 168.748 15.0712 165.226 10.4521C161.579 5.66819 156.046 2.61877 149.624 2.66431L149.695 12.6641ZM160.309 26.9727H150.309C150.309 29.8028 149.579 31.1249 149.309 31.4804C149.188 31.6391 149.177 31.594 149.331 31.5147C149.497 31.4293 149.65 31.4102 149.695 31.4102V41.4102V51.4102C156.069 51.4102 161.587 48.3834 165.239 43.5733C168.761 38.9337 170.309 33.0371 170.309 26.9727H160.309ZM149.695 41.4102V31.4102C149.674 31.4102 149.779 31.4135 149.916 31.483C150.044 31.5479 150.025 31.5815 149.906 31.4265C149.641 31.0816 148.91 29.7839 148.91 26.9727H138.91H128.91C128.91 33.056 130.479 38.977 134.059 43.6273C137.772 48.4498 143.333 51.4102 149.695 51.4102V41.4102ZM138.91 26.9727H148.91C148.91 24.2526 149.627 22.9762 149.893 22.632C150.013 22.4774 150.03 22.5139 149.894 22.5822C149.833 22.6127 149.767 22.6363 149.705 22.6507C149.643 22.6649 149.613 22.6637 149.626 22.6638L149.695 12.6641L149.765 2.6643C143.356 2.6198 137.78 5.60151 134.071 10.3982C130.492 15.0277 128.91 20.9271 128.91 26.9727H138.91ZM149.695 18.8945L149.865 8.89597C144.233 8.80052 140.035 12.0746 137.862 16.1436C136.021 19.59 135.57 23.5385 135.57 26.9727H145.57H155.57C155.57 26.0559 155.638 25.4897 155.691 25.2055C155.748 24.8993 155.754 25.0966 155.503 25.5664C155.236 26.0649 154.61 26.9904 153.396 27.7722C152.118 28.5955 150.721 28.9134 149.526 28.8931L149.695 18.8945ZM145.57 26.9727H135.57C135.57 30.4271 136.014 34.3944 137.869 37.8541C140.084 41.9836 144.259 45.0937 149.695 45.0937V35.0937V25.0937C150.805 25.0937 152.141 25.3965 153.388 26.1982C154.585 26.9673 155.217 27.8831 155.495 28.4018C155.754 28.8846 155.749 29.0928 155.693 28.7849C155.64 28.4977 155.57 27.9194 155.57 26.9727H145.57ZM149.695 35.0937V45.0937C155.294 45.0937 159.345 41.7294 161.422 37.7986C163.221 34.3926 163.691 30.4806 163.691 26.9727H153.691H143.691C143.691 27.9039 143.622 28.4806 143.567 28.7724C143.51 29.0842 143.5 28.9062 143.737 28.4572C143.986 27.9865 144.582 27.0851 145.754 26.3005C146.994 25.4703 148.403 25.0937 149.695 25.0937V35.0937ZM153.691 26.9727H163.691C163.691 23.4853 163.214 19.5914 161.43 16.199C159.399 12.3393 155.32 8.79061 149.514 8.89618L149.695 18.8945L149.877 28.8929C148.491 28.9181 147.016 28.5217 145.746 27.6697C144.557 26.8723 143.967 25.9614 143.73 25.511C143.5 25.075 143.511 24.9078 143.569 25.218C143.623 25.507 143.691 26.0715 143.691 26.9727H153.691ZM217.371 10H227.371C227.371 4.47715 222.894 0 217.371 0V10ZM217.371 17.0898H207.371C207.371 22.6127 211.848 27.0898 217.371 27.0898V17.0898ZM222.312 17.0898H232.312C232.312 11.567 227.835 7.08984 222.312 7.08984V17.0898ZM222.312 22.7617V32.7617C227.835 32.7617 232.312 28.2846 232.312 22.7617H222.312ZM217.371 22.7617V12.7617C211.848 12.7617 207.371 17.2389 207.371 22.7617H217.371ZM217.371 29.6367V39.6367C222.894 39.6367 227.371 35.1596 227.371 29.6367H217.371ZM210.453 29.6367H200.453C200.453 35.1596 204.93 39.6367 210.453 39.6367V29.6367ZM210.453 10V0C204.93 0 200.453 4.47715 200.453 10H210.453ZM205.941 11.6328H215.941C215.941 6.10997 211.464 1.63281 205.941 1.63281V11.6328ZM205.941 28.5625V38.5625C211.464 38.5625 215.941 34.0853 215.941 28.5625H205.941ZM186.434 28.5625H176.434C176.434 34.0853 180.911 38.5625 186.434 38.5625V28.5625ZM186.434 11.6328V1.63281C180.911 1.63281 176.434 6.10997 176.434 11.6328H186.434ZM193.266 17.0469V7.04687C187.743 7.04687 183.266 11.524 183.266 17.0469H193.266ZM193.266 23.1484H183.266C183.266 28.6713 187.743 33.1484 193.266 33.1484V23.1484ZM199.109 23.1484V33.1484C204.632 33.1484 209.109 28.6713 209.109 23.1484L199.109 23.1484ZM199.109 17.0469L209.109 17.0469C209.109 11.524 204.632 7.04687 199.109 7.04687V17.0469ZM217.371 31.0117H227.371C227.371 25.4889 222.894 21.0117 217.371 21.0117V31.0117ZM217.371 42.6133V52.6133C222.894 52.6133 227.371 48.1361 227.371 42.6133H217.371ZM197.219 42.6133V32.6133C191.696 32.6133 187.219 37.0904 187.219 42.6133H197.219ZM197.219 44.0312H187.219C187.219 49.5541 191.696 54.0312 197.219 54.0312V44.0312ZM218.316 44.0312H228.316C228.316 38.5084 223.839 34.0312 218.316 34.0312V44.0312ZM218.316 49.4023V59.4023C223.839 59.4023 228.316 54.9252 228.316 49.4023H218.316ZM190.387 49.4023H180.387C180.387 54.9252 184.864 59.4023 190.387 59.4023V49.4023ZM190.387 37.6719V27.6719C184.864 27.6719 180.387 32.149 180.387 37.6719H190.387ZM210.496 37.6719V47.6719C216.019 47.6719 220.496 43.1947 220.496 37.6719H210.496ZM210.496 36.2539H220.496C220.496 30.7311 216.019 26.2539 210.496 26.2539V36.2539ZM190.387 36.2539H180.387C180.387 41.7768 184.864 46.2539 190.387 46.2539V36.2539ZM190.387 31.0117V21.0117C184.864 21.0117 180.387 25.4889 180.387 31.0117H190.387ZM217.371 10H207.371V17.0898H217.371H227.371V10H217.371ZM217.371 17.0898V27.0898H222.312V17.0898V7.08984H217.371V17.0898ZM222.312 17.0898H212.312V22.7617H222.312H232.312V17.0898H222.312ZM222.312 22.7617V12.7617H217.371V22.7617V32.7617H222.312V22.7617ZM217.371 22.7617H207.371V29.6367H217.371H227.371V22.7617H217.371ZM217.371 29.6367V19.6367H210.453V29.6367V39.6367H217.371V29.6367ZM210.453 29.6367H220.453V10H210.453H200.453V29.6367H210.453ZM210.453 10V20H217.371V10V0L210.453 0V10ZM205.941 11.6328H195.941V28.5625H205.941H215.941V11.6328H205.941ZM205.941 28.5625V18.5625L186.434 18.5625V28.5625V38.5625H205.941V28.5625ZM186.434 28.5625H196.434V11.6328H186.434H176.434V28.5625H186.434ZM186.434 11.6328V21.6328L205.941 21.6328V11.6328V1.63281L186.434 1.63281V11.6328ZM193.266 17.0469H183.266V23.1484H193.266H203.266V17.0469H193.266ZM193.266 23.1484V33.1484H199.109V23.1484V13.1484H193.266V23.1484ZM199.109 23.1484L209.109 23.1484V17.0469L199.109 17.0469H189.109V23.1484H199.109ZM199.109 17.0469V7.04687H193.266V17.0469V27.0469H199.109V17.0469ZM217.371 31.0117H207.371V42.6133H217.371H227.371V31.0117H217.371ZM217.371 42.6133V32.6133H197.219V42.6133V52.6133H217.371V42.6133ZM197.219 42.6133H187.219V44.0312H197.219H207.219V42.6133H197.219ZM197.219 44.0312V54.0312H218.316V44.0312V34.0312H197.219V44.0312ZM218.316 44.0312H208.316V49.4023H218.316H228.316V44.0312H218.316ZM218.316 49.4023V39.4023H190.387V49.4023V59.4023H218.316V49.4023ZM190.387 49.4023H200.387V37.6719H190.387H180.387V49.4023H190.387ZM190.387 37.6719V47.6719H210.496V37.6719V27.6719L190.387 27.6719V37.6719ZM210.496 37.6719H220.496V36.2539H210.496H200.496V37.6719H210.496ZM210.496 36.2539V26.2539L190.387 26.2539V36.2539V46.2539H210.496V36.2539ZM190.387 36.2539H200.387V31.0117H190.387H180.387V36.2539H190.387ZM190.387 31.0117V41.0117H217.371V31.0117V21.0117L190.387 21.0117V31.0117ZM255.312 10H265.312C265.312 4.47715 260.835 0 255.312 0V10ZM255.312 25.082H245.312C245.312 30.6049 249.79 35.082 255.312 35.082V25.082ZM260.684 25.082H270.684C270.684 19.5592 266.206 15.082 260.684 15.082V25.082ZM260.684 30.7109V40.7109C266.206 40.7109 270.684 36.2338 270.684 30.7109H260.684ZM255.312 30.7109V20.7109C249.79 20.7109 245.312 25.1881 245.312 30.7109H255.312ZM255.312 49.7461V59.7461C260.835 59.7461 265.312 55.2689 265.312 49.7461H255.312ZM248.48 49.7461H238.48C238.48 55.2689 242.958 59.7461 248.48 59.7461V49.7461ZM248.48 10V0C242.958 0 238.48 4.47715 238.48 10H248.48ZM246.547 15.6719H256.547C256.547 10.149 252.07 5.67187 246.547 5.67187V15.6719ZM246.547 21.1289V31.1289C252.07 31.1289 256.547 26.6518 256.547 21.1289H246.547ZM223.387 21.1289H213.387C213.387 26.6518 217.864 31.1289 223.387 31.1289V21.1289ZM223.387 15.6719V5.67187C217.864 5.67187 213.387 10.149 213.387 15.6719H223.387ZM231.594 15.6719V25.6719C237.117 25.6719 241.594 21.1947 241.594 15.6719H231.594ZM231.594 10.7305V0.730469C226.071 0.730469 221.594 5.20762 221.594 10.7305H231.594ZM238.469 10.7305H248.469C248.469 5.20762 243.992 0.730469 238.469 0.730469V10.7305ZM238.469 15.6719H228.469C228.469 21.1947 232.946 25.6719 238.469 25.6719V15.6719ZM231.207 32.3437L241.206 32.4976C241.207 32.3926 241.207 32.2875 241.206 32.1825L231.207 32.3437ZM255.312 10H245.312V25.082H255.312H265.312V10H255.312ZM255.312 25.082V35.082H260.684V25.082V15.082H255.312V25.082ZM260.684 25.082H250.684V30.7109H260.684H270.684V25.082H260.684ZM260.684 30.7109V20.7109H255.312V30.7109V40.7109H260.684V30.7109ZM255.312 30.7109H245.312V49.7461H255.312H265.312V30.7109H255.312ZM255.312 49.7461V39.7461H248.48V49.7461V59.7461H255.312V49.7461ZM248.48 49.7461H258.48V10H248.48H238.48V49.7461H248.48ZM248.48 10V20H255.312V10V0H248.48V10ZM246.547 15.6719H236.547V21.1289H246.547H256.547V15.6719H246.547ZM246.547 21.1289V11.1289L223.387 11.1289V21.1289V31.1289H246.547V21.1289ZM223.387 21.1289H233.387V15.6719H223.387H213.387V21.1289H223.387ZM223.387 15.6719V25.6719H231.594V15.6719V5.67187H223.387V15.6719ZM231.594 15.6719H241.594V10.7305L231.594 10.7305H221.594V15.6719H231.594ZM231.594 10.7305V20.7305H238.469V10.7305V0.730469H231.594V10.7305ZM238.469 10.7305L228.469 10.7305V15.6719H238.469H248.469V10.7305H238.469ZM238.469 15.6719V25.6719H246.547V15.6719V5.67187H238.469V15.6719ZM235.031 22.6758V32.6758C235.358 32.6758 235.556 32.7311 235.644 32.7641C235.733 32.7974 235.727 32.8128 235.67 32.7608C235.61 32.7055 235.535 32.6106 235.48 32.4862C235.423 32.3569 235.43 32.29 235.43 32.3437H245.43H255.43C255.43 20.4166 245.632 12.6758 235.031 12.6758V22.6758ZM245.43 32.3437H235.43C235.43 32.4188 235.419 32.3657 235.472 32.2435C235.524 32.1256 235.597 32.0317 235.659 31.9749C235.717 31.9214 235.726 31.9351 235.64 31.9673C235.554 31.9994 235.358 32.0547 235.031 32.0547V42.0547V52.0547C245.663 52.0547 255.43 44.2857 255.43 32.3437H245.43ZM235.031 42.0547V32.0547C234.648 32.0547 234.426 31.9911 234.337 31.9582C234.249 31.9257 234.271 31.9166 234.345 31.9846C234.422 32.056 234.501 32.1625 234.553 32.2831C234.606 32.4057 234.59 32.4461 234.59 32.3437H224.59H214.59C214.59 44.2597 224.243 52.0547 235.031 52.0547V42.0547ZM224.59 32.3437H234.59C234.59 32.2625 234.602 32.3167 234.546 32.4465C234.49 32.5737 234.409 32.6813 234.333 32.751C234.261 32.8175 234.242 32.8068 234.333 32.7732C234.424 32.7394 234.648 32.6758 235.031 32.6758V22.6758V12.6758C224.273 12.6758 214.59 20.4426 214.59 32.3437H224.59ZM235.031 28.2187V18.2187C231.717 18.2187 227.996 19.3418 225.112 22.2942C222.208 25.2668 221.153 29.0654 221.208 32.505L231.207 32.3437L241.206 32.1825C241.218 32.958 240.958 34.6941 239.418 36.2703C237.898 37.8262 236.111 38.2187 235.031 38.2187V28.2187ZM231.207 32.3437L221.208 32.1899C221.156 35.5736 222.145 39.4751 225.194 42.5247C228.196 45.5265 231.964 46.4687 235.031 46.4687V36.4687V26.4687C235.864 26.4687 237.699 26.745 239.336 28.3825C241.021 30.0678 241.215 31.9069 241.206 32.4976L231.207 32.3437ZM235.031 36.4687V46.4687C238.145 46.4687 241.901 45.4854 244.871 42.4683C247.843 39.448 248.812 35.6263 248.812 32.3437H238.812H228.812C228.812 31.8542 228.987 30.095 230.617 28.4389C232.243 26.7861 234.109 26.4687 235.031 26.4687V36.4687ZM238.812 32.3437H248.812C248.812 29.0131 247.783 25.2955 244.952 22.3511C242.103 19.3886 238.395 18.2187 235.031 18.2187V28.2187V38.2187C233.859 38.2187 232.041 37.7793 230.535 36.2133C229.047 34.6654 228.812 33.0104 228.812 32.3437H238.812ZM293.984 20.0977H303.984C303.984 14.5748 299.507 10.0977 293.984 10.0977V20.0977ZM293.984 25.4258V35.4258C299.507 35.4258 303.984 30.9486 303.984 25.4258H293.984ZM265.883 25.4258H255.883C255.883 30.9486 260.36 35.4258 265.883 35.4258V25.4258ZM265.883 11.418V1.41797C260.36 1.41797 255.883 5.89512 255.883 11.418H265.883ZM272.758 11.418H282.758C282.758 5.89512 278.281 1.41797 272.758 1.41797V11.418ZM272.758 20.0977H262.758C262.758 25.6205 267.235 30.0977 272.758 30.0977V20.0977ZM297.895 28.9492H307.895C307.895 23.4264 303.417 18.9492 297.895 18.9492V28.9492ZM297.895 34.2773V44.2773C303.417 44.2773 307.895 39.8002 307.895 34.2773H297.895ZM261.629 34.2773H251.629C251.629 39.8002 256.106 44.2773 261.629 44.2773V34.2773ZM261.629 28.9492V18.9492C256.106 18.9492 251.629 23.4264 251.629 28.9492H261.629ZM294.242 43.4727H304.242C304.242 37.9498 299.765 33.4727 294.242 33.4727V43.4727ZM294.242 48.9727V58.9727C299.765 58.9727 304.242 54.4955 304.242 48.9727H294.242ZM265.41 48.9727H255.41C255.41 54.4955 259.887 58.9727 265.41 58.9727V48.9727ZM265.41 37.0273V27.0273C259.887 27.0273 255.41 31.5045 255.41 37.0273H265.41ZM272.371 37.0273H282.371C282.371 31.5045 277.894 27.0273 272.371 27.0273V37.0273ZM272.371 43.4727H262.371C262.371 48.9955 266.848 53.4727 272.371 53.4727V43.4727ZM293.984 20.0977H283.984V25.4258H293.984H303.984V20.0977H293.984ZM293.984 25.4258V15.4258H265.883V25.4258V35.4258H293.984V25.4258ZM265.883 25.4258H275.883V11.418H265.883H255.883V25.4258H265.883ZM265.883 11.418V21.418H272.758V11.418V1.41797H265.883V11.418ZM272.758 11.418H262.758V20.0977H272.758H282.758V11.418H272.758ZM272.758 20.0977V30.0977H293.984V20.0977V10.0977H272.758V20.0977ZM297.895 28.9492H287.895V34.2773H297.895H307.895V28.9492H297.895ZM297.895 34.2773V24.2773H261.629V34.2773V44.2773H297.895V34.2773ZM261.629 34.2773H271.629V28.9492H261.629H251.629V34.2773H261.629ZM261.629 28.9492V38.9492H297.895V28.9492V18.9492H261.629V28.9492ZM294.242 43.4727H284.242V48.9727H294.242H304.242V43.4727H294.242ZM294.242 48.9727V38.9727H265.41V48.9727V58.9727H294.242V48.9727ZM265.41 48.9727H275.41V37.0273H265.41H255.41V48.9727H265.41ZM265.41 37.0273V47.0273H272.371V37.0273V27.0273H265.41V37.0273ZM272.371 37.0273H262.371V43.4727H272.371H282.371V37.0273H272.371ZM272.371 43.4727V53.4727H294.242V43.4727V33.4727H272.371V43.4727Z" fill="white" mask="url(#path-1-outside-1_6524_1910)"/>
</g>
<defs>
<filter id="filter0_d_6524_1910" x="0" y="0" width="311.895" height="67.875" filterUnits="userSpaceOnUse" color-interpolation-filters="sRGB">
<feFlood flood-opacity="0" result="BackgroundImageFix"/>
<feColorMatrix in="SourceAlpha" type="matrix" values="0 0 0 0 0 0 0 0 0 0 0 0 0 0 0 0 0 0 127 0" result="hardAlpha"/>
<feOffset dy="4"/>
<feGaussianBlur stdDeviation="2"/>
<feComposite in2="hardAlpha" operator="out"/>
<feColorMatrix type="matrix" values="0 0 0 0 0 0 0 0 0 0 0 0 0 0 0 0 0 0 0.07 0"/>
<feBlend mode="normal" in2="BackgroundImageFix" result="effect1_dropShadow_6524_1910"/>
<feBlend mode="normal" in="SourceGraphic" in2="effect1_dropShadow_6524_1910" result="shape"/>
</filter>
</defs>
</svg>
