<svg width="339" height="69" viewBox="0 0 339 69" fill="none" xmlns="http://www.w3.org/2000/svg">
<g filter="url(#filter0_d_6526_5711)">
<mask id="path-1-outside-1_6526_5711" maskUnits="userSpaceOnUse" x="3.82812" y="-0.207031" width="332" height="61" fill="black">
<rect fill="white" x="3.82812" y="-0.207031" width="332" height="61"/>
<path d="M37.1602 13.0938V15.8008C37.1602 18.6797 37.1602 22.6328 36.3438 27.4023L29.5977 26.7578C30.1562 23.5137 30.3281 20.9141 30.4141 18.6797H16.3203V13.0938H37.1602ZM27.4922 22.5039V29.5508C31.166 29.3789 34.9258 29.0781 38.4062 28.5625L38.75 33.4609C30.5 35.0508 21.3906 35.1797 14.6016 35.1797L14 29.8086C16.0195 29.7871 18.2754 29.7871 20.6602 29.7227V22.5039H27.4922ZM47.2578 10.3008V21.9023H51.4258V27.6172H47.2578V39.9492H40.168V10.3008L47.2578 10.3008ZM48.4609 43.9883V49.4883H19.6719V37.3281H26.5898V43.9883H48.4609ZM87.4336 10.3008V50.0469H80.9883V10.3008H87.4336ZM78.9688 11.1172V48.457H72.5234V35.8242H68.0117V30.2812H72.5234V25.9844H68.8281C67.002 32.4082 63.1348 37.6719 55.7656 42.0117L51.8125 37.1992C59.4395 32.6875 62.5762 27.7031 63.3281 20.3125H54.4336V14.8555H70.1172C70.1172 16.7891 70.0312 18.6582 69.8594 20.4414H72.5234V11.1172H78.9688ZM127.094 40.207V45.75H90.7852V40.207H105.48V33.6328H94.3516V12.6641H101.27V18.207H116.438V12.6641H123.312V33.6328H112.312V40.207H127.094ZM101.27 28.1758H116.438V23.6211H101.27V28.1758ZM160.523 10.3008V24.4805H165.895V30.0664H160.523V50.1758H153.605V10.3008H160.523ZM148.965 13.8672V19.4102H137.148V35.0508C142.111 34.9863 146.602 34.707 151.371 33.9336L152.102 39.6055C146 40.6367 140.457 40.7656 133.754 40.7227H130.316V13.8672H148.965ZM210.238 10.3008V30.1523H203.363V27.7461H195.285V22.5898H203.363V19.9687H195.629C193.201 25.7051 187.809 29.25 179.086 31.0117L176.809 25.4687C185.359 23.9648 188.754 20.8281 189.484 17.0469H179.172V11.5898H197.133C197.133 12.707 197.068 13.7812 196.961 14.8125H203.363V10.3008H210.238ZM210.238 31.3125V43H190.344V44.2461H210.797V49.6602H183.469V37.9297H203.32V36.6836H183.426V31.3125H210.238ZM236.965 14.0391V17.9062C236.965 22.0742 236.965 26.7148 235.934 32.8164L229.188 32.3008C229.982 27.0801 230.068 23.1699 230.133 19.4961H216.125V14.0391H236.965ZM227.383 25.4687V36.6406C230.971 36.4687 234.602 36.2109 237.953 35.7812L238.383 40.8516C230.348 42.2695 221.582 42.3984 214.707 42.3555L214.148 36.9414C216.146 36.9199 218.338 36.8984 220.637 36.8555V25.4687H227.383ZM246.418 10.3008V25.8555H251.145V31.5703H246.418V50.0469H239.414V10.3008H246.418ZM274.391 13.5234V18.8945H252.605V13.5234H260.426V10H267.301V13.5234H274.391ZM263.777 19.7539C269.32 19.7969 273.402 22.8906 273.402 27.2734C273.402 31.7422 269.32 34.707 263.777 34.707C258.234 34.707 254.238 31.7422 254.281 27.2734C254.238 22.8906 258.234 19.7969 263.777 19.7539ZM263.777 24.8672C261.887 24.8672 260.684 25.5977 260.684 27.2734C260.684 28.9922 261.887 29.6797 263.777 29.6367C265.668 29.6797 267.043 28.9922 267.043 27.2734C267.043 25.5977 265.668 24.8672 263.777 24.8672ZM286.293 10.3008V35.4375H279.418V32.043H275.035V26.5859H279.418V23.9648H275.121V18.5078H279.418V10.3008H286.293ZM272.543 35.9102C281.094 35.9102 286.465 38.6172 286.508 43.043C286.465 47.4258 281.094 50.1328 272.543 50.1328C263.992 50.1328 258.621 47.4258 258.621 43.043C258.621 38.6172 263.992 35.9102 272.543 35.9102ZM272.543 41.1094C268.074 41.1094 265.883 41.625 265.926 43.043C265.883 44.418 268.074 44.9766 272.543 44.9766C276.926 44.9766 279.074 44.418 279.074 43.043C279.074 41.625 276.926 41.1094 272.543 41.1094ZM324.02 10.3867V38.6172H317.102V10.3867H324.02ZM324.965 43.9883V49.4883H296.82V35.7812H303.781V43.9883H324.965ZM302.062 12.75C308.25 12.75 313.191 17.0469 313.191 22.9336C313.191 28.9492 308.25 33.2031 302.062 33.2031C295.875 33.2031 290.891 28.9492 290.934 22.9336C290.891 17.0469 295.875 12.75 302.062 12.75ZM302.062 18.7227C299.527 18.7227 297.637 20.1406 297.637 22.9336C297.637 25.8555 299.527 27.2305 302.062 27.2305C304.469 27.2305 306.359 25.8555 306.359 22.9336C306.359 20.1406 304.469 18.7227 302.062 18.7227Z"/>
</mask>
<path d="M37.1602 13.0938V15.8008C37.1602 18.6797 37.1602 22.6328 36.3438 27.4023L29.5977 26.7578C30.1562 23.5137 30.3281 20.9141 30.4141 18.6797H16.3203V13.0938H37.1602ZM27.4922 22.5039V29.5508C31.166 29.3789 34.9258 29.0781 38.4062 28.5625L38.75 33.4609C30.5 35.0508 21.3906 35.1797 14.6016 35.1797L14 29.8086C16.0195 29.7871 18.2754 29.7871 20.6602 29.7227V22.5039H27.4922ZM47.2578 10.3008V21.9023H51.4258V27.6172H47.2578V39.9492H40.168V10.3008L47.2578 10.3008ZM48.4609 43.9883V49.4883H19.6719V37.3281H26.5898V43.9883H48.4609ZM87.4336 10.3008V50.0469H80.9883V10.3008H87.4336ZM78.9688 11.1172V48.457H72.5234V35.8242H68.0117V30.2812H72.5234V25.9844H68.8281C67.002 32.4082 63.1348 37.6719 55.7656 42.0117L51.8125 37.1992C59.4395 32.6875 62.5762 27.7031 63.3281 20.3125H54.4336V14.8555H70.1172C70.1172 16.7891 70.0312 18.6582 69.8594 20.4414H72.5234V11.1172H78.9688ZM127.094 40.207V45.75H90.7852V40.207H105.48V33.6328H94.3516V12.6641H101.27V18.207H116.438V12.6641H123.312V33.6328H112.312V40.207H127.094ZM101.27 28.1758H116.438V23.6211H101.27V28.1758ZM160.523 10.3008V24.4805H165.895V30.0664H160.523V50.1758H153.605V10.3008H160.523ZM148.965 13.8672V19.4102H137.148V35.0508C142.111 34.9863 146.602 34.707 151.371 33.9336L152.102 39.6055C146 40.6367 140.457 40.7656 133.754 40.7227H130.316V13.8672H148.965ZM210.238 10.3008V30.1523H203.363V27.7461H195.285V22.5898H203.363V19.9687H195.629C193.201 25.7051 187.809 29.25 179.086 31.0117L176.809 25.4687C185.359 23.9648 188.754 20.8281 189.484 17.0469H179.172V11.5898H197.133C197.133 12.707 197.068 13.7812 196.961 14.8125H203.363V10.3008H210.238ZM210.238 31.3125V43H190.344V44.2461H210.797V49.6602H183.469V37.9297H203.32V36.6836H183.426V31.3125H210.238ZM236.965 14.0391V17.9062C236.965 22.0742 236.965 26.7148 235.934 32.8164L229.188 32.3008C229.982 27.0801 230.068 23.1699 230.133 19.4961H216.125V14.0391H236.965ZM227.383 25.4687V36.6406C230.971 36.4687 234.602 36.2109 237.953 35.7812L238.383 40.8516C230.348 42.2695 221.582 42.3984 214.707 42.3555L214.148 36.9414C216.146 36.9199 218.338 36.8984 220.637 36.8555V25.4687H227.383ZM246.418 10.3008V25.8555H251.145V31.5703H246.418V50.0469H239.414V10.3008H246.418ZM274.391 13.5234V18.8945H252.605V13.5234H260.426V10H267.301V13.5234H274.391ZM263.777 19.7539C269.32 19.7969 273.402 22.8906 273.402 27.2734C273.402 31.7422 269.32 34.707 263.777 34.707C258.234 34.707 254.238 31.7422 254.281 27.2734C254.238 22.8906 258.234 19.7969 263.777 19.7539ZM263.777 24.8672C261.887 24.8672 260.684 25.5977 260.684 27.2734C260.684 28.9922 261.887 29.6797 263.777 29.6367C265.668 29.6797 267.043 28.9922 267.043 27.2734C267.043 25.5977 265.668 24.8672 263.777 24.8672ZM286.293 10.3008V35.4375H279.418V32.043H275.035V26.5859H279.418V23.9648H275.121V18.5078H279.418V10.3008H286.293ZM272.543 35.9102C281.094 35.9102 286.465 38.6172 286.508 43.043C286.465 47.4258 281.094 50.1328 272.543 50.1328C263.992 50.1328 258.621 47.4258 258.621 43.043C258.621 38.6172 263.992 35.9102 272.543 35.9102ZM272.543 41.1094C268.074 41.1094 265.883 41.625 265.926 43.043C265.883 44.418 268.074 44.9766 272.543 44.9766C276.926 44.9766 279.074 44.418 279.074 43.043C279.074 41.625 276.926 41.1094 272.543 41.1094ZM324.02 10.3867V38.6172H317.102V10.3867H324.02ZM324.965 43.9883V49.4883H296.82V35.7812H303.781V43.9883H324.965ZM302.062 12.75C308.25 12.75 313.191 17.0469 313.191 22.9336C313.191 28.9492 308.25 33.2031 302.062 33.2031C295.875 33.2031 290.891 28.9492 290.934 22.9336C290.891 17.0469 295.875 12.75 302.062 12.75ZM302.062 18.7227C299.527 18.7227 297.637 20.1406 297.637 22.9336C297.637 25.8555 299.527 27.2305 302.062 27.2305C304.469 27.2305 306.359 25.8555 306.359 22.9336C306.359 20.1406 304.469 18.7227 302.062 18.7227Z" fill="#11DCA9"/>
<path d="M37.1602 13.0938H47.1602C47.1602 7.5709 42.683 3.09375 37.1602 3.09375V13.0938ZM36.3438 27.4023L35.3927 37.357C40.6039 37.8549 45.3172 34.2494 46.2004 29.0895L36.3438 27.4023ZM29.5977 26.7578L19.7427 25.0609C19.2705 27.8034 19.9624 30.6186 21.6521 32.8297C23.3418 35.0408 25.8764 36.4478 28.6466 36.7125L29.5977 26.7578ZM30.4141 18.6797L40.4067 19.064C40.5112 16.3472 39.5049 13.7049 37.6197 11.7458C35.7345 9.78673 33.1329 8.67969 30.4141 8.67969V18.6797ZM16.3203 18.6797H6.32031C6.32031 24.2025 10.7975 28.6797 16.3203 28.6797V18.6797ZM16.3203 13.0938V3.09375C10.7975 3.09375 6.32031 7.5709 6.32031 13.0938H16.3203ZM27.4922 22.5039H37.4922C37.4922 16.9811 33.015 12.5039 27.4922 12.5039V22.5039ZM27.4922 29.5508H17.4922C17.4922 32.284 18.611 34.8982 20.5883 36.7852C22.5657 38.6722 25.2292 39.6676 27.9595 39.5399L27.4922 29.5508ZM38.4062 28.5625L48.3817 27.8625C48.1867 25.0834 46.8412 22.5117 44.6695 20.7669C42.4977 19.022 39.6966 18.2622 36.9408 18.6705L38.4062 28.5625ZM38.75 33.4609L40.6423 43.2803C45.6095 42.323 49.0796 37.8071 48.7255 32.7609L38.75 33.4609ZM14.6016 35.1797L4.6637 36.2927C5.23047 41.3532 9.50942 45.1797 14.6016 45.1797V35.1797ZM14 29.8086L13.8936 19.8092C11.0664 19.8392 8.38395 21.0648 6.51044 23.1824C4.63693 25.3 3.74743 28.1118 4.06214 30.9216L14 29.8086ZM20.6602 29.7227L20.9303 39.719C26.346 39.5726 30.6602 35.1403 30.6602 29.7227H20.6602ZM20.6602 22.5039V12.5039C15.1373 12.5039 10.6602 16.9811 10.6602 22.5039H20.6602ZM47.2578 10.3008H57.2578C57.2578 4.77793 52.7807 0.300781 47.2578 0.300781V10.3008ZM47.2578 21.9023H37.2578C37.2578 27.4252 41.735 31.9023 47.2578 31.9023V21.9023ZM51.4258 21.9023H61.4258C61.4258 16.3795 56.9486 11.9023 51.4258 11.9023V21.9023ZM51.4258 27.6172V37.6172C56.9486 37.6172 61.4258 33.14 61.4258 27.6172H51.4258ZM47.2578 27.6172V17.6172C41.735 17.6172 37.2578 22.0943 37.2578 27.6172H47.2578ZM47.2578 39.9492V49.9492C52.7807 49.9492 57.2578 45.4721 57.2578 39.9492H47.2578ZM40.168 39.9492H30.168C30.168 45.4721 34.6451 49.9492 40.168 49.9492V39.9492ZM40.168 10.3008V0.300781C34.6451 0.300781 30.168 4.77793 30.168 10.3008H40.168ZM48.4609 43.9883H58.4609C58.4609 38.4654 53.9838 33.9883 48.4609 33.9883V43.9883ZM48.4609 49.4883V59.4883C53.9838 59.4883 58.4609 55.0111 58.4609 49.4883H48.4609ZM19.6719 49.4883H9.67188C9.67188 55.0111 14.149 59.4883 19.6719 59.4883V49.4883ZM19.6719 37.3281V27.3281C14.149 27.3281 9.67188 31.8053 9.67188 37.3281H19.6719ZM26.5898 37.3281H36.5898C36.5898 31.8053 32.1127 27.3281 26.5898 27.3281V37.3281ZM26.5898 43.9883H16.5898C16.5898 49.5111 21.067 53.9883 26.5898 53.9883V43.9883ZM37.1602 13.0938H27.1602V15.8008H37.1602H47.1602V13.0938H37.1602ZM37.1602 15.8008H27.1602C27.1602 18.629 27.149 21.8482 26.4871 25.7152L36.3438 27.4023L46.2004 29.0895C47.1713 23.4175 47.1602 18.7304 47.1602 15.8008H37.1602ZM36.3438 27.4023L37.2948 17.4477L30.5487 16.8031L29.5977 26.7578L28.6466 36.7125L35.3927 37.357L36.3438 27.4023ZM29.5977 26.7578L39.4526 28.4547C40.111 24.6309 40.3106 21.5608 40.4067 19.064L30.4141 18.6797L20.4215 18.2954C20.3456 20.2674 20.2015 22.3965 19.7427 25.0609L29.5977 26.7578ZM30.4141 18.6797V8.67969H16.3203V18.6797V28.6797H30.4141V18.6797ZM16.3203 18.6797H26.3203V13.0938H16.3203H6.32031V18.6797H16.3203ZM16.3203 13.0938V23.0938H37.1602V13.0938V3.09375L16.3203 3.09375V13.0938ZM27.4922 22.5039H17.4922V29.5508H27.4922H37.4922V22.5039H27.4922ZM27.4922 29.5508L27.9595 39.5399C31.8321 39.3587 35.949 39.0357 39.8717 38.4545L38.4062 28.5625L36.9408 18.6705C33.9025 19.1206 30.4999 19.3991 27.0249 19.5617L27.4922 29.5508ZM38.4062 28.5625L28.4308 29.2625L28.7745 34.161L38.75 33.4609L48.7255 32.7609L48.3817 27.8625L38.4062 28.5625ZM38.75 33.4609L36.8577 23.6416C29.6447 25.0316 21.3975 25.1797 14.6016 25.1797L14.6016 35.1797V45.1797C21.3838 45.1797 31.3553 45.0699 40.6423 43.2803L38.75 33.4609ZM14.6016 35.1797L24.5394 34.0666L23.9379 28.6956L14 29.8086L4.06214 30.9216L4.6637 36.2927L14.6016 35.1797ZM14 29.8086L14.1064 39.808C15.9892 39.788 18.4372 39.7864 20.9303 39.719L20.6602 29.7227L20.39 19.7263C18.1136 19.7878 16.0498 19.7862 13.8936 19.8092L14 29.8086ZM20.6602 29.7227H30.6602V22.5039H20.6602H10.6602V29.7227H20.6602ZM20.6602 22.5039V32.5039H27.4922V22.5039V12.5039H20.6602V22.5039ZM47.2578 10.3008L37.2578 10.3008V21.9023H47.2578H57.2578V10.3008H47.2578ZM47.2578 21.9023V31.9023H51.4258V21.9023V11.9023H47.2578V21.9023ZM51.4258 21.9023H41.4258V27.6172H51.4258H61.4258V21.9023H51.4258ZM51.4258 27.6172V17.6172H47.2578V27.6172V37.6172H51.4258V27.6172ZM47.2578 27.6172H37.2578V39.9492H47.2578H57.2578V27.6172H47.2578ZM47.2578 39.9492V29.9492H40.168V39.9492V49.9492H47.2578V39.9492ZM40.168 39.9492H50.168V10.3008L40.168 10.3008H30.168V39.9492H40.168ZM40.168 10.3008V20.3008H47.2578V10.3008V0.300781H40.168V10.3008ZM48.4609 43.9883H38.4609V49.4883H48.4609H58.4609V43.9883H48.4609ZM48.4609 49.4883V39.4883H19.6719V49.4883V59.4883H48.4609V49.4883ZM19.6719 49.4883H29.6719V37.3281H19.6719H9.67188L9.67188 49.4883H19.6719ZM19.6719 37.3281V47.3281H26.5898V37.3281V27.3281H19.6719V37.3281ZM26.5898 37.3281H16.5898V43.9883H26.5898H36.5898V37.3281H26.5898ZM26.5898 43.9883V53.9883H48.4609V43.9883V33.9883H26.5898V43.9883ZM87.4336 10.3008H97.4336C97.4336 4.77793 92.9564 0.300781 87.4336 0.300781V10.3008ZM87.4336 50.0469V60.0469C92.9564 60.0469 97.4336 55.5697 97.4336 50.0469H87.4336ZM80.9883 50.0469H70.9883C70.9883 55.5697 75.4654 60.0469 80.9883 60.0469V50.0469ZM80.9883 10.3008V0.300781C75.4654 0.300781 70.9883 4.77793 70.9883 10.3008H80.9883ZM78.9688 11.1172H88.9688C88.9688 5.59434 84.4916 1.11719 78.9688 1.11719V11.1172ZM78.9688 48.457V58.457C84.4916 58.457 88.9688 53.9799 88.9688 48.457H78.9688ZM72.5234 48.457H62.5234C62.5234 53.9799 67.0006 58.457 72.5234 58.457V48.457ZM72.5234 35.8242H82.5234C82.5234 30.3014 78.0463 25.8242 72.5234 25.8242V35.8242ZM68.0117 35.8242H58.0117C58.0117 41.3471 62.4889 45.8242 68.0117 45.8242V35.8242ZM68.0117 30.2812V20.2812C62.4889 20.2812 58.0117 24.7584 58.0117 30.2812H68.0117ZM72.5234 30.2812V40.2812C78.0463 40.2812 82.5234 35.8041 82.5234 30.2812H72.5234ZM72.5234 25.9844L82.5234 25.9844C82.5234 20.4615 78.0463 15.9844 72.5234 15.9844V25.9844ZM68.8281 25.9844V15.9844C64.3584 15.9844 60.4315 18.9505 59.2093 23.2499L68.8281 25.9844ZM55.7656 42.0117L48.0384 48.3591C51.1645 52.1649 56.5963 53.1278 60.8402 50.6285L55.7656 42.0117ZM51.8125 37.1992L46.7211 28.5924C44.2087 30.0786 42.471 32.5885 41.9643 35.4633C41.4576 38.3382 42.2323 41.2909 44.0852 43.5466L51.8125 37.1992ZM63.3281 20.3125L73.2768 21.3247C73.563 18.5109 72.6444 15.7075 70.7484 13.6089C68.8524 11.5102 66.1564 10.3125 63.3281 10.3125V20.3125ZM54.4336 20.3125H44.4336C44.4336 25.8353 48.9107 30.3125 54.4336 30.3125V20.3125ZM54.4336 14.8555V4.85547C48.9107 4.85547 44.4336 9.33262 44.4336 14.8555H54.4336ZM70.1172 14.8555L80.1172 14.8555C80.1172 9.33262 75.64 4.85547 70.1172 4.85547V14.8555ZM69.8594 20.4414L59.9055 19.482C59.635 22.288 60.5615 25.0779 62.4569 27.1647C64.3522 29.2515 67.0403 30.4414 69.8594 30.4414V20.4414ZM72.5234 20.4414V30.4414C78.0463 30.4414 82.5234 25.9643 82.5234 20.4414L72.5234 20.4414ZM72.5234 11.1172V1.11719C67.0006 1.11719 62.5234 5.59434 62.5234 11.1172H72.5234ZM87.4336 10.3008H77.4336V50.0469H87.4336H97.4336V10.3008H87.4336ZM87.4336 50.0469V40.0469H80.9883V50.0469V60.0469H87.4336V50.0469ZM80.9883 50.0469H90.9883V10.3008H80.9883H70.9883V50.0469H80.9883ZM80.9883 10.3008V20.3008H87.4336V10.3008V0.300781L80.9883 0.300781V10.3008ZM78.9688 11.1172H68.9688V48.457H78.9688H88.9688V11.1172H78.9688ZM78.9688 48.457V38.457H72.5234V48.457V58.457H78.9688V48.457ZM72.5234 48.457H82.5234V35.8242H72.5234H62.5234V48.457H72.5234ZM72.5234 35.8242V25.8242H68.0117V35.8242V45.8242H72.5234V35.8242ZM68.0117 35.8242H78.0117V30.2812H68.0117H58.0117V35.8242H68.0117ZM68.0117 30.2812V40.2812H72.5234V30.2812V20.2812H68.0117V30.2812ZM72.5234 30.2812H82.5234V25.9844L72.5234 25.9844H62.5234V30.2812H72.5234ZM72.5234 25.9844V15.9844H68.8281V25.9844V35.9844H72.5234V25.9844ZM68.8281 25.9844L59.2093 23.2499C58.1398 27.0117 56.0223 30.2553 50.691 33.395L55.7656 42.0117L60.8402 50.6285C70.2472 45.0885 75.8641 37.8047 78.447 28.7188L68.8281 25.9844ZM55.7656 42.0117L63.4929 35.6643L59.5398 30.8518L51.8125 37.1992L44.0852 43.5466L48.0384 48.3591L55.7656 42.0117ZM51.8125 37.1992L56.9039 45.8061C61.5738 43.0436 65.5542 39.7332 68.4564 35.4013C71.401 31.0059 72.776 26.2464 73.2768 21.3247L63.3281 20.3125L53.3795 19.3003C53.1283 21.7692 52.559 23.1972 51.8405 24.2696C51.0796 25.4055 49.6781 26.8431 46.7211 28.5924L51.8125 37.1992ZM63.3281 20.3125V10.3125H54.4336V20.3125V30.3125H63.3281V20.3125ZM54.4336 20.3125H64.4336V14.8555H54.4336H44.4336V20.3125H54.4336ZM54.4336 14.8555V24.8555H70.1172V14.8555V4.85547H54.4336V14.8555ZM70.1172 14.8555H60.1172C60.1172 16.4955 60.0442 18.0433 59.9055 19.482L69.8594 20.4414L79.8132 21.4008C80.0183 19.2731 80.1172 17.0826 80.1172 14.8555L70.1172 14.8555ZM69.8594 20.4414V30.4414H72.5234V20.4414V10.4414H69.8594V20.4414ZM72.5234 20.4414L82.5234 20.4414V11.1172H72.5234H62.5234V20.4414H72.5234ZM72.5234 11.1172V21.1172L78.9688 21.1172V11.1172V1.11719H72.5234V11.1172ZM127.094 40.207H137.094C137.094 34.6842 132.617 30.207 127.094 30.207V40.207ZM127.094 45.75V55.75C132.617 55.75 137.094 51.2728 137.094 45.75H127.094ZM90.7852 45.75H80.7852C80.7852 51.2728 85.2623 55.75 90.7852 55.75V45.75ZM90.7852 40.207V30.207C85.2623 30.207 80.7852 34.6842 80.7852 40.207H90.7852ZM105.48 40.207V50.207C111.003 50.207 115.48 45.7299 115.48 40.207H105.48ZM105.48 33.6328H115.48C115.48 28.11 111.003 23.6328 105.48 23.6328V33.6328ZM94.3516 33.6328H84.3516C84.3516 39.1557 88.8287 43.6328 94.3516 43.6328V33.6328ZM94.3516 12.6641V2.66406C88.8287 2.66406 84.3516 7.14122 84.3516 12.6641H94.3516ZM101.27 12.6641L111.27 12.6641C111.27 7.14122 106.792 2.66406 101.27 2.66406V12.6641ZM101.27 18.207H91.2695C91.2695 23.7299 95.7467 28.207 101.27 28.207V18.207ZM116.438 18.207V28.207C121.96 28.207 126.438 23.7299 126.438 18.207H116.438ZM116.438 12.6641V2.66406C110.915 2.66406 106.438 7.14122 106.438 12.6641L116.438 12.6641ZM123.312 12.6641H133.312C133.312 7.14122 128.835 2.66406 123.312 2.66406V12.6641ZM123.312 33.6328V43.6328C128.835 43.6328 133.312 39.1557 133.312 33.6328H123.312ZM112.312 33.6328V23.6328C106.79 23.6328 102.312 28.11 102.312 33.6328H112.312ZM112.312 40.207H102.312C102.312 45.7299 106.79 50.207 112.312 50.207V40.207ZM101.27 28.1758H91.2695C91.2695 33.6986 95.7467 38.1758 101.27 38.1758V28.1758ZM116.438 28.1758V38.1758C121.96 38.1758 126.438 33.6986 126.438 28.1758H116.438ZM116.438 23.6211H126.438C126.438 18.0982 121.96 13.6211 116.438 13.6211V23.6211ZM101.27 23.6211V13.6211C95.7467 13.6211 91.2695 18.0982 91.2695 23.6211H101.27ZM127.094 40.207H117.094V45.75H127.094H137.094V40.207H127.094ZM127.094 45.75V35.75H90.7852V45.75V55.75H127.094V45.75ZM90.7852 45.75H100.785V40.207H90.7852H80.7852V45.75H90.7852ZM90.7852 40.207V50.207H105.48V40.207V30.207H90.7852V40.207ZM105.48 40.207H115.48V33.6328H105.48H95.4805V40.207H105.48ZM105.48 33.6328V23.6328H94.3516V33.6328V43.6328H105.48V33.6328ZM94.3516 33.6328H104.352V12.6641H94.3516H84.3516V33.6328H94.3516ZM94.3516 12.6641V22.6641H101.27V12.6641V2.66406H94.3516V12.6641ZM101.27 12.6641H91.2695V18.207H101.27H111.27V12.6641L101.27 12.6641ZM101.27 18.207V28.207H116.438V18.207V8.20703L101.27 8.20703V18.207ZM116.438 18.207H126.438V12.6641H116.438L106.438 12.6641V18.207H116.438ZM116.438 12.6641V22.6641H123.312V12.6641V2.66406H116.438V12.6641ZM123.312 12.6641H113.312V33.6328H123.312H133.312V12.6641H123.312ZM123.312 33.6328V23.6328H112.312V33.6328V43.6328H123.312V33.6328ZM112.312 33.6328H102.312V40.207H112.312H122.312V33.6328H112.312ZM112.312 40.207V50.207H127.094V40.207V30.207H112.312V40.207ZM101.27 28.1758V38.1758H116.438V28.1758V18.1758H101.27V28.1758ZM116.438 28.1758H126.438V23.6211H116.438H106.438V28.1758H116.438ZM116.438 23.6211V13.6211H101.27V23.6211V33.6211H116.438V23.6211ZM101.27 23.6211H91.2695V28.1758H101.27H111.27V23.6211H101.27ZM160.523 10.3008H170.523C170.523 4.77793 166.046 0.300781 160.523 0.300781V10.3008ZM160.523 24.4805H150.523C150.523 30.0033 155.001 34.4805 160.523 34.4805V24.4805ZM165.895 24.4805H175.895C175.895 18.9576 171.417 14.4805 165.895 14.4805V24.4805ZM165.895 30.0664V40.0664C171.417 40.0664 175.895 35.5893 175.895 30.0664H165.895ZM160.523 30.0664V20.0664C155.001 20.0664 150.523 24.5436 150.523 30.0664H160.523ZM160.523 50.1758V60.1758C166.046 60.1758 170.523 55.6986 170.523 50.1758H160.523ZM153.605 50.1758H143.605C143.605 55.6986 148.083 60.1758 153.605 60.1758V50.1758ZM153.605 10.3008V0.300781C148.083 0.300781 143.605 4.77793 143.605 10.3008H153.605ZM148.965 13.8672H158.965C158.965 8.34434 154.488 3.86719 148.965 3.86719V13.8672ZM148.965 19.4102V29.4102C154.488 29.4102 158.965 24.933 158.965 19.4102H148.965ZM137.148 19.4102V9.41016C131.626 9.41016 127.148 13.8873 127.148 19.4102H137.148ZM137.148 35.0508H127.148C127.148 37.7255 128.22 40.2887 130.123 42.1676C132.027 44.0466 134.604 45.0847 137.278 45.0499L137.148 35.0508ZM151.371 33.9336L161.289 32.6563C160.943 29.9696 159.522 27.5383 157.351 25.9185C155.18 24.2986 152.444 23.6289 149.77 24.0625L151.371 33.9336ZM152.102 39.6055L153.768 49.4656C159.063 48.5707 162.706 43.654 162.02 38.3281L152.102 39.6055ZM133.754 40.7227L133.818 30.7229C133.797 30.7227 133.775 30.7227 133.754 30.7227V40.7227ZM130.316 40.7227H120.316C120.316 46.2455 124.794 50.7227 130.316 50.7227V40.7227ZM130.316 13.8672V3.86719C124.794 3.86719 120.316 8.34434 120.316 13.8672H130.316ZM160.523 10.3008H150.523V24.4805H160.523H170.523V10.3008H160.523ZM160.523 24.4805V34.4805H165.895V24.4805V14.4805H160.523V24.4805ZM165.895 24.4805H155.895V30.0664H165.895H175.895V24.4805H165.895ZM165.895 30.0664V20.0664H160.523V30.0664V40.0664H165.895V30.0664ZM160.523 30.0664H150.523V50.1758H160.523H170.523V30.0664H160.523ZM160.523 50.1758V40.1758H153.605V50.1758V60.1758H160.523V50.1758ZM153.605 50.1758H163.605V10.3008H153.605H143.605V50.1758H153.605ZM153.605 10.3008V20.3008H160.523V10.3008V0.300781H153.605V10.3008ZM148.965 13.8672H138.965V19.4102H148.965H158.965V13.8672H148.965ZM148.965 19.4102V9.41016H137.148V19.4102V29.4102L148.965 29.4102V19.4102ZM137.148 19.4102H127.148V35.0508H137.148L147.148 35.0508V19.4102H137.148ZM137.148 35.0508L137.278 45.0499C142.555 44.9814 147.566 44.6813 152.972 43.8046L151.371 33.9336L149.77 24.0625C145.637 24.7328 141.668 24.9912 137.019 25.0516L137.148 35.0508ZM151.371 33.9336L141.453 35.2109L142.183 40.8828L152.102 39.6055L162.02 38.3281L161.289 32.6563L151.371 33.9336ZM152.102 39.6055L150.435 29.7453C145.219 30.6269 140.383 30.7649 133.818 30.7229L133.754 40.7227L133.69 50.7225C140.531 50.7663 146.781 50.6465 153.768 49.4656L152.102 39.6055ZM133.754 40.7227V30.7227H130.316V40.7227V50.7227H133.754V40.7227ZM130.316 40.7227H140.316V13.8672H130.316H120.316V40.7227H130.316ZM130.316 13.8672V23.8672H148.965V13.8672V3.86719H130.316V13.8672ZM210.238 10.3008H220.238C220.238 4.77793 215.761 0.300781 210.238 0.300781V10.3008ZM210.238 30.1523V40.1523C215.761 40.1523 220.238 35.6752 220.238 30.1523H210.238ZM203.363 30.1523H193.363C193.363 35.6752 197.84 40.1523 203.363 40.1523V30.1523ZM203.363 27.7461L213.363 27.7461C213.363 22.2232 208.886 17.7461 203.363 17.7461V27.7461ZM195.285 27.7461H185.285C185.285 33.2689 189.762 37.7461 195.285 37.7461V27.7461ZM195.285 22.5898V12.5898C189.762 12.5898 185.285 17.067 185.285 22.5898H195.285ZM203.363 22.5898V32.5898C208.886 32.5898 213.363 28.1127 213.363 22.5898L203.363 22.5898ZM203.363 19.9687L213.363 19.9687C213.363 14.4459 208.886 9.96875 203.363 9.96875V19.9687ZM195.629 19.9687V9.96875C191.612 9.96875 187.985 12.3721 186.42 16.0712L195.629 19.9687ZM179.086 31.0117L169.836 34.812C171.658 39.245 176.368 41.7626 181.066 40.8138L179.086 31.0117ZM176.809 25.4687L175.076 15.6199C172.094 16.1444 169.51 17.992 168.049 20.6444C166.588 23.2967 166.408 26.4682 167.559 29.269L176.809 25.4687ZM189.484 17.0469L199.303 18.9436C199.869 16.0134 199.097 12.9834 197.197 10.6816C195.297 8.37987 192.469 7.04687 189.484 7.04687V17.0469ZM179.172 17.0469H169.172C169.172 22.5697 173.649 27.0469 179.172 27.0469V17.0469ZM179.172 11.5898V1.58984C173.649 1.58984 169.172 6.067 169.172 11.5898L179.172 11.5898ZM197.133 11.5898H207.133C207.133 6.067 202.656 1.58984 197.133 1.58984V11.5898ZM196.961 14.8125L187.015 13.7764C186.721 16.5937 187.636 19.4032 189.533 21.5073C191.429 23.6113 194.128 24.8125 196.961 24.8125V14.8125ZM203.363 14.8125V24.8125C208.886 24.8125 213.363 20.3353 213.363 14.8125L203.363 14.8125ZM203.363 10.3008V0.300781C197.84 0.300781 193.363 4.77793 193.363 10.3008H203.363ZM210.238 31.3125H220.238C220.238 25.7897 215.761 21.3125 210.238 21.3125V31.3125ZM210.238 43V53C215.761 53 220.238 48.5228 220.238 43H210.238ZM190.344 43V33C184.821 33 180.344 37.4772 180.344 43H190.344ZM190.344 44.2461H180.344C180.344 49.7689 184.821 54.2461 190.344 54.2461V44.2461ZM210.797 44.2461H220.797C220.797 38.7232 216.32 34.2461 210.797 34.2461V44.2461ZM210.797 49.6602V59.6602C216.32 59.6602 220.797 55.183 220.797 49.6602H210.797ZM183.469 49.6602H173.469C173.469 55.183 177.946 59.6602 183.469 59.6602V49.6602ZM183.469 37.9297V27.9297C177.946 27.9297 173.469 32.4068 173.469 37.9297H183.469ZM203.32 37.9297V47.9297C208.843 47.9297 213.32 43.4525 213.32 37.9297H203.32ZM203.32 36.6836H213.32C213.32 31.1607 208.843 26.6836 203.32 26.6836V36.6836ZM183.426 36.6836H173.426C173.426 42.2064 177.903 46.6836 183.426 46.6836V36.6836ZM183.426 31.3125V21.3125C177.903 21.3125 173.426 25.7897 173.426 31.3125H183.426ZM210.238 10.3008H200.238V30.1523H210.238H220.238V10.3008H210.238ZM210.238 30.1523V20.1523L203.363 20.1523V30.1523V40.1523H210.238V30.1523ZM203.363 30.1523H213.363V27.7461L203.363 27.7461H193.363V30.1523H203.363ZM203.363 27.7461V17.7461H195.285V27.7461V37.7461H203.363V27.7461ZM195.285 27.7461H205.285V22.5898H195.285H185.285V27.7461H195.285ZM195.285 22.5898V32.5898H203.363V22.5898V12.5898H195.285V22.5898ZM203.363 22.5898L213.363 22.5898V19.9687L203.363 19.9687H193.363V22.5898H203.363ZM203.363 19.9687V9.96875H195.629V19.9687V29.9687H203.363V19.9687ZM195.629 19.9687L186.42 16.0712C185.8 17.5343 184.172 19.7826 177.106 21.2096L179.086 31.0117L181.066 40.8138C191.445 38.7174 200.602 33.8758 204.838 23.8663L195.629 19.9687ZM179.086 31.0117L188.336 27.2114L186.058 21.6685L176.809 25.4687L167.559 29.269L169.836 34.812L179.086 31.0117ZM176.809 25.4687L178.541 35.3176C188.465 33.5721 197.369 28.9542 199.303 18.9436L189.484 17.0469L179.666 15.1501C179.714 14.8997 179.829 14.5788 180.025 14.2792C180.215 13.9886 180.354 13.912 180.24 13.9936C179.909 14.2315 178.547 15.0094 175.076 15.6199L176.809 25.4687ZM189.484 17.0469V7.04687H179.172V17.0469V27.0469H189.484V17.0469ZM179.172 17.0469H189.172V11.5898H179.172L169.172 11.5898V17.0469H179.172ZM179.172 11.5898V21.5898H197.133V11.5898V1.58984L179.172 1.58984V11.5898ZM197.133 11.5898H187.133C187.133 12.3215 187.091 13.0477 187.015 13.7764L196.961 14.8125L206.907 15.8486C207.046 14.5148 207.133 13.0926 207.133 11.5898H197.133ZM196.961 14.8125V24.8125H203.363V14.8125V4.8125H196.961V14.8125ZM203.363 14.8125L213.363 14.8125V10.3008H203.363H193.363V14.8125H203.363ZM203.363 10.3008V20.3008L210.238 20.3008V10.3008V0.300781H203.363V10.3008ZM210.238 31.3125H200.238V43H210.238H220.238V31.3125H210.238ZM210.238 43V33H190.344V43V53H210.238V43ZM190.344 43H180.344V44.2461H190.344H200.344V43H190.344ZM190.344 44.2461V54.2461H210.797V44.2461V34.2461H190.344V44.2461ZM210.797 44.2461H200.797V49.6602H210.797H220.797V44.2461H210.797ZM210.797 49.6602V39.6602H183.469V49.6602V59.6602H210.797V49.6602ZM183.469 49.6602H193.469V37.9297H183.469H173.469V49.6602H183.469ZM183.469 37.9297V47.9297H203.32V37.9297V27.9297H183.469V37.9297ZM203.32 37.9297H213.32V36.6836H203.32H193.32V37.9297H203.32ZM203.32 36.6836V26.6836H183.426V36.6836V46.6836H203.32V36.6836ZM183.426 36.6836H193.426V31.3125H183.426H173.426V36.6836H183.426ZM183.426 31.3125V41.3125H210.238V31.3125V21.3125L183.426 21.3125V31.3125ZM236.965 14.0391H246.965C246.965 8.51622 242.488 4.03906 236.965 4.03906V14.0391ZM235.934 32.8164L235.171 42.7873C240.327 43.1813 244.932 39.5808 245.794 34.4829L235.934 32.8164ZM229.188 32.3008L219.301 30.7955C218.883 33.5458 219.629 36.3463 221.36 38.524C223.091 40.7017 225.651 42.0597 228.425 42.2717L229.188 32.3008ZM230.133 19.4961L240.131 19.6715C240.178 16.9893 239.146 14.4007 237.266 12.4873C235.385 10.5739 232.815 9.49609 230.133 9.49609V19.4961ZM216.125 19.4961H206.125C206.125 25.0189 210.602 29.4961 216.125 29.4961V19.4961ZM216.125 14.0391V4.03906C210.602 4.03906 206.125 8.51622 206.125 14.0391H216.125ZM227.383 25.4687H237.383C237.383 19.9459 232.906 15.4687 227.383 15.4687V25.4687ZM227.383 36.6406H217.383C217.383 39.3758 218.503 41.9916 220.483 43.8789C222.463 45.7661 225.129 46.76 227.861 46.6292L227.383 36.6406ZM237.953 35.7812L247.917 34.9368C247.687 32.2199 246.357 29.7148 244.236 28.0016C242.115 26.2884 239.386 25.5157 236.681 25.8624L237.953 35.7812ZM238.383 40.8516L240.121 50.6994C245.216 49.8002 248.784 45.1627 248.347 40.0071L238.383 40.8516ZM214.707 42.3555L204.76 43.3818C205.283 48.4564 209.543 52.3234 214.645 52.3553L214.707 42.3555ZM214.148 36.9414L214.041 26.942C211.229 26.9722 208.56 28.185 206.687 30.283C204.815 32.3811 203.913 35.1705 204.201 37.9677L214.148 36.9414ZM220.637 36.8555L220.824 46.8537C226.273 46.7519 230.637 42.3055 230.637 36.8555H220.637ZM220.637 25.4687V15.4687C215.114 15.4687 210.637 19.9459 210.637 25.4687H220.637ZM246.418 10.3008H256.418C256.418 4.77793 251.941 0.300781 246.418 0.300781V10.3008ZM246.418 25.8555H236.418C236.418 31.3783 240.895 35.8555 246.418 35.8555V25.8555ZM251.145 25.8555H261.145C261.145 20.3326 256.667 15.8555 251.145 15.8555V25.8555ZM251.145 31.5703V41.5703C256.667 41.5703 261.145 37.0932 261.145 31.5703H251.145ZM246.418 31.5703V21.5703C240.895 21.5703 236.418 26.0475 236.418 31.5703H246.418ZM246.418 50.0469V60.0469C251.941 60.0469 256.418 55.5697 256.418 50.0469H246.418ZM239.414 50.0469H229.414C229.414 55.5697 233.891 60.0469 239.414 60.0469V50.0469ZM239.414 10.3008V0.300781C233.891 0.300781 229.414 4.77793 229.414 10.3008L239.414 10.3008ZM236.965 14.0391H226.965V17.9062H236.965H246.965V14.0391H236.965ZM236.965 17.9062H226.965C226.965 22.0074 226.955 25.9325 226.073 31.1499L235.934 32.8164L245.794 34.4829C246.974 27.4972 246.965 22.141 246.965 17.9062H236.965ZM235.934 32.8164L236.696 22.8455L229.95 22.3299L229.188 32.3008L228.425 42.2717L235.171 42.7873L235.934 32.8164ZM229.188 32.3008L239.074 33.8061C239.973 27.8961 240.065 23.4358 240.131 19.6715L230.133 19.4961L220.134 19.3207C220.071 22.904 219.991 26.2641 219.301 30.7955L229.188 32.3008ZM230.133 19.4961V9.49609H216.125V19.4961V29.4961H230.133V19.4961ZM216.125 19.4961H226.125V14.0391H216.125H206.125V19.4961H216.125ZM216.125 14.0391V24.0391H236.965V14.0391V4.03906L216.125 4.03906V14.0391ZM227.383 25.4687H217.383V36.6406H227.383H237.383V25.4687H227.383ZM227.383 36.6406L227.861 46.6292C231.578 46.4511 235.502 46.1773 239.225 45.7001L237.953 35.7812L236.681 25.8624C233.701 26.2446 230.363 26.4864 226.904 26.6521L227.383 36.6406ZM237.953 35.7812L227.989 36.6257L228.419 41.696L238.383 40.8516L248.347 40.0071L247.917 34.9368L237.953 35.7812ZM238.383 40.8516L236.645 31.0037C229.568 32.2527 221.58 32.3982 214.77 32.3557L214.707 42.3555L214.645 52.3553C221.584 52.3986 231.128 52.2864 240.121 50.6994L238.383 40.8516ZM214.707 42.3555L224.654 41.3292L224.096 35.9151L214.148 36.9414L204.201 37.9677L204.76 43.3818L214.707 42.3555ZM214.148 36.9414L214.256 46.9408C216.24 46.9195 218.476 46.8976 220.824 46.8537L220.637 36.8555L220.45 26.8572C218.199 26.8993 216.053 26.9203 214.041 26.942L214.148 36.9414ZM220.637 36.8555H230.637V25.4687H220.637H210.637V36.8555H220.637ZM220.637 25.4687V35.4687H227.383V25.4687V15.4687H220.637V25.4687ZM246.418 10.3008L236.418 10.3008V25.8555H246.418H256.418V10.3008H246.418ZM246.418 25.8555V35.8555H251.145V25.8555V15.8555H246.418V25.8555ZM251.145 25.8555H241.145V31.5703H251.145H261.145V25.8555H251.145ZM251.145 31.5703V21.5703H246.418V31.5703V41.5703H251.145V31.5703ZM246.418 31.5703H236.418V50.0469H246.418H256.418V31.5703H246.418ZM246.418 50.0469V40.0469H239.414V50.0469V60.0469H246.418V50.0469ZM239.414 50.0469H249.414V10.3008H239.414L229.414 10.3008V50.0469H239.414ZM239.414 10.3008V20.3008H246.418V10.3008V0.300781L239.414 0.300781V10.3008ZM274.391 13.5234H284.391C284.391 8.00059 279.913 3.52344 274.391 3.52344V13.5234ZM274.391 18.8945V28.8945C279.913 28.8945 284.391 24.4174 284.391 18.8945H274.391ZM252.605 18.8945H242.605C242.605 24.4174 247.083 28.8945 252.605 28.8945V18.8945ZM252.605 13.5234V3.52344C247.083 3.52344 242.605 8.00059 242.605 13.5234H252.605ZM260.426 13.5234V23.5234C265.949 23.5234 270.426 19.0463 270.426 13.5234H260.426ZM260.426 10V0C254.903 0 250.426 4.47715 250.426 10H260.426ZM267.301 10H277.301C277.301 4.47715 272.824 0 267.301 0V10ZM267.301 13.5234H257.301C257.301 19.0463 261.778 23.5234 267.301 23.5234V13.5234ZM263.777 19.7539L263.855 9.75421C263.803 9.75381 263.752 9.75381 263.7 9.75421L263.777 19.7539ZM254.281 27.2734L264.281 27.3696C264.281 27.3049 264.281 27.2401 264.281 27.1754L254.281 27.2734ZM263.777 29.6367L264.005 19.6393C263.853 19.6359 263.702 19.6359 263.55 19.6393L263.777 29.6367ZM286.293 10.3008H296.293C296.293 4.77793 291.816 0.300781 286.293 0.300781V10.3008ZM286.293 35.4375V45.4375C291.816 45.4375 296.293 40.9603 296.293 35.4375H286.293ZM279.418 35.4375H269.418C269.418 40.9603 273.895 45.4375 279.418 45.4375V35.4375ZM279.418 32.043H289.418C289.418 26.5201 284.941 22.043 279.418 22.043V32.043ZM275.035 32.043H265.035C265.035 37.5658 269.512 42.043 275.035 42.043V32.043ZM275.035 26.5859V16.5859C269.512 16.5859 265.035 21.0631 265.035 26.5859H275.035ZM279.418 26.5859V36.5859C284.941 36.5859 289.418 32.1088 289.418 26.5859H279.418ZM279.418 23.9648H289.418C289.418 18.442 284.941 13.9648 279.418 13.9648V23.9648ZM275.121 23.9648H265.121C265.121 29.4877 269.598 33.9648 275.121 33.9648V23.9648ZM275.121 18.5078V8.50781C269.598 8.50781 265.121 12.985 265.121 18.5078H275.121ZM279.418 18.5078V28.5078C284.941 28.5078 289.418 24.0307 289.418 18.5078H279.418ZM279.418 10.3008V0.300781C273.895 0.300781 269.418 4.77793 269.418 10.3008H279.418ZM286.508 43.043L296.507 43.141C296.508 43.076 296.508 43.0109 296.507 42.9459L286.508 43.043ZM265.926 43.043L275.921 43.3553C275.927 43.1503 275.927 42.9451 275.921 42.7401L265.926 43.043ZM274.391 13.5234H264.391V18.8945H274.391H284.391V13.5234H274.391ZM274.391 18.8945V8.89453H252.605V18.8945V28.8945H274.391V18.8945ZM252.605 18.8945H262.605V13.5234H252.605H242.605V18.8945H252.605ZM252.605 13.5234V23.5234H260.426V13.5234V3.52344L252.605 3.52344V13.5234ZM260.426 13.5234H270.426V10H260.426H250.426V13.5234H260.426ZM260.426 10V20H267.301V10V0L260.426 0V10ZM267.301 10H257.301V13.5234H267.301H277.301V10H267.301ZM267.301 13.5234V23.5234H274.391V13.5234V3.52344H267.301V13.5234ZM263.777 19.7539L263.7 29.7536C264.712 29.7615 264.876 30.0488 264.546 29.7931C264.361 29.6498 264.055 29.3511 263.796 28.8509C263.528 28.3319 263.402 27.7705 263.402 27.2734H273.402H283.402C283.402 15.1162 272.287 9.81957 263.855 9.75421L263.777 19.7539ZM273.402 27.2734H263.402C263.402 26.8277 263.514 26.2695 263.798 25.7222C264.072 25.1919 264.407 24.8643 264.625 24.6991C265.009 24.4075 264.865 24.707 263.777 24.707V34.707V44.707C268.233 44.707 272.901 43.5242 276.712 40.6329C280.715 37.5968 283.402 32.8829 283.402 27.2734H273.402ZM263.777 34.707V24.707C262.689 24.707 262.601 24.408 263.039 24.7454C263.283 24.9336 263.629 25.2853 263.904 25.8322C264.186 26.3932 264.285 26.9478 264.281 27.3696L254.281 27.2734L244.282 27.1773C244.228 32.7399 246.817 37.494 250.83 40.5866C254.641 43.5237 259.323 44.707 263.777 44.707V34.707ZM254.281 27.2734L264.281 27.1754C264.285 27.6491 264.173 28.2076 263.905 28.7409C263.646 29.2578 263.328 29.5802 263.117 29.7459C262.734 30.0472 262.843 29.7615 263.855 29.7536L263.777 19.7539L263.7 9.75421C255.182 9.82024 244.162 15.2086 244.282 27.3715L254.281 27.2734ZM263.777 24.8672V14.8672C261.804 14.8672 258.584 15.205 255.625 17.365C252.13 19.9163 250.684 23.7423 250.684 27.2734H260.684H270.684C270.684 28.0534 270.541 29.1851 269.958 30.4292C269.357 31.7141 268.451 32.7644 267.418 33.5188C265.533 34.8946 263.86 34.8672 263.777 34.8672V24.8672ZM260.684 27.2734H250.684C250.684 30.7382 252.076 34.6735 255.732 37.2696C258.793 39.4426 262.094 39.6776 264.005 39.6341L263.777 29.6367L263.55 19.6393C263.57 19.6388 265.324 19.5516 267.311 20.9619C268.41 21.7423 269.352 22.8331 269.965 24.1504C270.554 25.4139 270.684 26.5425 270.684 27.2734H260.684ZM263.777 29.6367L263.55 39.6341C265.494 39.6783 268.642 39.4247 271.612 37.4718C275.207 35.1089 277.043 31.2511 277.043 27.2734H267.043H257.043C257.043 26.3503 257.235 25.0929 257.922 23.7695C258.619 22.4251 259.613 21.4252 260.626 20.7597C262.436 19.5694 263.951 19.6381 264.005 19.6393L263.777 29.6367ZM267.043 27.2734H277.043C277.043 23.2351 275.149 19.4752 271.719 17.157C268.844 15.2133 265.77 14.8672 263.777 14.8672V24.8672V34.8672C263.675 34.8672 262.235 34.8864 260.519 33.7268C259.568 33.084 258.612 32.12 257.93 30.8108C257.252 29.5104 257.043 28.2498 257.043 27.2734H267.043ZM286.293 10.3008H276.293V35.4375H286.293H296.293V10.3008H286.293ZM286.293 35.4375V25.4375H279.418V35.4375V45.4375H286.293V35.4375ZM279.418 35.4375H289.418V32.043H279.418H269.418V35.4375H279.418ZM279.418 32.043V22.043H275.035V32.043V42.043H279.418V32.043ZM275.035 32.043H285.035V26.5859H275.035H265.035V32.043H275.035ZM275.035 26.5859V36.5859H279.418V26.5859V16.5859H275.035V26.5859ZM279.418 26.5859H289.418V23.9648H279.418H269.418V26.5859H279.418ZM279.418 23.9648V13.9648H275.121V23.9648V33.9648H279.418V23.9648ZM275.121 23.9648H285.121V18.5078H275.121H265.121V23.9648H275.121ZM275.121 18.5078V28.5078H279.418V18.5078V8.50781H275.121V18.5078ZM279.418 18.5078H289.418V10.3008H279.418H269.418V18.5078H279.418ZM279.418 10.3008V20.3008H286.293V10.3008V0.300781H279.418V10.3008ZM272.543 35.9102V45.9102C274.17 45.9102 275.475 46.0402 276.467 46.2279C277.479 46.4195 278.007 46.6409 278.18 46.7293C278.359 46.82 277.945 46.6546 277.449 45.979C276.882 45.2064 276.518 44.1785 276.508 43.1401L286.508 43.043L296.507 42.9459C296.439 35.8641 291.832 31.2356 287.251 28.9045C282.898 26.6893 277.665 25.9102 272.543 25.9102V35.9102ZM286.508 43.043L276.508 42.9449C276.519 41.8734 276.896 40.8296 277.469 40.0555C277.968 39.3799 278.381 39.2174 278.196 39.3111C278.018 39.4015 277.486 39.6234 276.471 39.815C275.476 40.0028 274.169 40.1328 272.543 40.1328V50.1328V60.1328C277.667 60.1328 282.891 59.3529 287.235 57.1518C291.786 54.8464 296.438 50.2401 296.507 43.141L286.508 43.043ZM272.543 50.1328V40.1328C270.916 40.1328 269.61 40.0028 268.617 39.8151C267.602 39.6236 267.075 39.4023 266.903 39.3151C266.724 39.2244 267.153 39.396 267.662 40.0918C268.246 40.8897 268.621 41.9578 268.621 43.043H258.621H248.621C248.621 50.1898 253.291 54.8339 257.848 57.1477C262.192 59.3539 267.422 60.1328 272.543 60.1328V50.1328ZM258.621 43.043H268.621C268.621 44.0947 268.261 45.1464 267.682 45.9427C267.176 46.6384 266.747 46.813 266.919 46.7252C267.086 46.64 267.609 46.4193 268.62 46.2278C269.611 46.0402 270.916 45.9102 272.543 45.9102V35.9102V25.9102C267.424 25.9102 262.185 26.6883 257.832 28.9086C253.245 31.2483 248.621 35.9145 248.621 43.043H258.621ZM272.543 41.1094V31.1094C270.221 31.1094 267.376 31.2114 264.864 31.9099C263.607 32.2594 261.472 33.0081 259.542 34.7841C257.229 36.912 255.828 39.9678 255.93 43.3459L265.926 43.043L275.921 42.7401C275.956 43.8968 275.761 45.2028 275.198 46.5093C274.64 47.8056 273.852 48.7947 273.085 49.5012C271.693 50.7817 270.377 51.1356 270.221 51.1789C269.911 51.2652 270.396 51.1094 272.543 51.1094V41.1094ZM265.926 43.043L255.931 42.7306C255.822 46.1968 257.302 49.2395 259.572 51.3112C261.474 53.0471 263.57 53.7939 264.82 54.1477C267.333 54.8587 270.172 54.9766 272.543 54.9766V44.9766V34.9766C270.445 34.9766 269.954 34.8152 270.265 34.9031C270.414 34.9453 271.691 35.2947 273.055 36.5391C273.807 37.2255 274.6 38.2008 275.17 39.4978C275.747 40.8119 275.959 42.1466 275.921 43.3553L265.926 43.043ZM272.543 44.9766V54.9766C274.88 54.9766 277.7 54.8583 280.212 54.137C281.475 53.7743 283.531 53.0237 285.402 51.3196C287.605 49.3144 289.074 46.3968 289.074 43.043H279.074H269.074C269.074 41.8718 269.312 40.5986 269.883 39.3546C270.446 38.1258 271.209 37.1946 271.938 36.5308C273.27 35.3181 274.514 34.965 274.692 34.9137C275.034 34.8156 274.589 34.9766 272.543 34.9766V44.9766ZM279.074 43.043H289.074C289.074 39.7697 287.677 36.836 285.432 34.7757C283.532 33.0317 281.438 32.2787 280.168 31.9203C277.656 31.2115 274.83 31.1094 272.543 31.1094V41.1094V51.1094C274.638 51.1094 275.078 51.265 274.736 51.1686C274.551 51.1163 273.268 50.7581 271.908 49.5096C271.163 48.826 270.404 47.8807 269.852 46.6511C269.295 45.4123 269.074 44.1648 269.074 43.043H279.074ZM324.02 10.3867H334.02C334.02 4.86387 329.542 0.386719 324.02 0.386719V10.3867ZM324.02 38.6172V48.6172C329.542 48.6172 334.02 44.14 334.02 38.6172H324.02ZM317.102 38.6172H307.102C307.102 44.14 311.579 48.6172 317.102 48.6172V38.6172ZM317.102 10.3867V0.386719C311.579 0.386719 307.102 4.86387 307.102 10.3867H317.102ZM324.965 43.9883H334.965C334.965 38.4654 330.488 33.9883 324.965 33.9883V43.9883ZM324.965 49.4883V59.4883C330.488 59.4883 334.965 55.0111 334.965 49.4883H324.965ZM296.82 49.4883H286.82C286.82 55.0111 291.297 59.4883 296.82 59.4883V49.4883ZM296.82 35.7812V25.7812C291.297 25.7812 286.82 30.2584 286.82 35.7812H296.82ZM303.781 35.7812H313.781C313.781 30.2584 309.304 25.7812 303.781 25.7812V35.7812ZM303.781 43.9883H293.781C293.781 49.5111 298.258 53.9883 303.781 53.9883V43.9883ZM290.934 22.9336L300.933 23.005C300.934 22.9569 300.934 22.9087 300.933 22.8606L290.934 22.9336ZM324.02 10.3867H314.02V38.6172H324.02H334.02V10.3867H324.02ZM324.02 38.6172V28.6172H317.102V38.6172V48.6172H324.02V38.6172ZM317.102 38.6172H327.102V10.3867H317.102H307.102V38.6172H317.102ZM317.102 10.3867V20.3867H324.02V10.3867V0.386719H317.102V10.3867ZM324.965 43.9883H314.965V49.4883H324.965H334.965V43.9883H324.965ZM324.965 49.4883V39.4883H296.82V49.4883V59.4883H324.965V49.4883ZM296.82 49.4883H306.82V35.7812H296.82H286.82V49.4883H296.82ZM296.82 35.7812V45.7812H303.781V35.7812V25.7812H296.82V35.7812ZM303.781 35.7812H293.781V43.9883H303.781H313.781V35.7812H303.781ZM303.781 43.9883V53.9883H324.965V43.9883V33.9883H303.781V43.9883ZM302.062 12.75V22.75C302.848 22.75 303.2 23.0153 303.253 23.0633C303.279 23.0864 303.252 23.0686 303.22 23.0003C303.185 22.9233 303.191 22.8828 303.191 22.9336H313.191H323.191C323.191 10.5696 312.767 2.75 302.062 2.75V12.75ZM313.191 22.9336H303.191C303.191 23.0475 303.173 23.0407 303.203 22.9736C303.23 22.9139 303.258 22.8913 303.242 22.9051C303.211 22.933 302.874 23.2031 302.062 23.2031V33.2031V43.2031C312.797 43.2031 323.191 35.4002 323.191 22.9336H313.191ZM302.062 33.2031V23.2031C301.244 23.2031 300.892 22.9284 300.857 22.8962C300.841 22.8824 300.876 22.9109 300.91 22.9859C300.947 23.0694 300.933 23.0969 300.933 23.005L290.934 22.9336L280.934 22.8622C280.844 35.4477 291.401 43.2031 302.062 43.2031V33.2031ZM290.934 22.9336L300.933 22.8606C300.933 22.8325 300.934 22.8944 300.892 22.988C300.854 23.0716 300.82 23.0953 300.846 23.0721C300.904 23.0199 301.27 22.75 302.062 22.75V12.75V2.75C291.432 2.75 280.843 10.5216 280.934 23.0066L290.934 22.9336ZM302.062 18.7227V8.72266C299.013 8.72266 295.313 9.58178 292.246 12.3151C289.009 15.1997 287.637 19.1411 287.637 22.9336H297.637H307.637C307.637 23.9331 307.21 25.769 305.552 27.2464C304.064 28.5725 302.577 28.7227 302.062 28.7227V18.7227ZM297.637 22.9336H287.637C287.637 26.6622 288.925 30.6618 292.218 33.6182C295.337 36.4189 299.085 37.2305 302.062 37.2305V27.2305V17.2305C302.505 17.2305 304.04 17.3546 305.58 18.7372C307.293 20.2757 307.637 22.1269 307.637 22.9336H297.637ZM302.062 27.2305V37.2305C305.094 37.2305 308.81 36.3547 311.871 33.5493C315.077 30.6097 316.359 26.6576 316.359 22.9336H306.359H296.359C296.359 22.1315 296.696 20.3278 298.356 18.8062C299.87 17.4188 301.437 17.2305 302.062 17.2305V27.2305ZM306.359 22.9336H316.359C316.359 19.1473 314.995 15.2516 311.843 12.3837C308.835 9.64778 305.167 8.72266 302.062 8.72266V18.7227V28.7227C301.365 28.7227 299.845 28.5065 298.384 27.1778C296.778 25.7172 296.359 23.9269 296.359 22.9336H306.359Z" fill="white" mask="url(#path-1-outside-1_6526_5711)"/>
</g>
<defs>
<filter id="filter0_d_6526_5711" x="0" y="0" width="338.965" height="68.1758" filterUnits="userSpaceOnUse" color-interpolation-filters="sRGB">
<feFlood flood-opacity="0" result="BackgroundImageFix"/>
<feColorMatrix in="SourceAlpha" type="matrix" values="0 0 0 0 0 0 0 0 0 0 0 0 0 0 0 0 0 0 127 0" result="hardAlpha"/>
<feOffset dy="4"/>
<feGaussianBlur stdDeviation="2"/>
<feComposite in2="hardAlpha" operator="out"/>
<feColorMatrix type="matrix" values="0 0 0 0 0 0 0 0 0 0 0 0 0 0 0 0 0 0 0.07 0"/>
<feBlend mode="normal" in2="BackgroundImageFix" result="effect1_dropShadow_6526_5711"/>
<feBlend mode="normal" in="SourceGraphic" in2="effect1_dropShadow_6526_5711" result="shape"/>
</filter>
</defs>
</svg>
