<svg width="265" height="68" viewBox="0 0 265 68" fill="none" xmlns="http://www.w3.org/2000/svg">
<g filter="url(#filter0_d_6524_1751)">
<mask id="path-1-outside-1_6524_1751" maskUnits="userSpaceOnUse" x="3.82812" y="-0.464844" width="257" height="61" fill="black">
<rect fill="white" x="3.82812" y="-0.464844" width="257" height="61"/>
<path d="M37.1602 12.8359V15.543C37.1602 18.4219 37.1602 22.375 36.3438 27.1445L29.5977 26.5C30.1562 23.2559 30.3281 20.6562 30.4141 18.4219H16.3203V12.8359H37.1602ZM27.4922 22.2461V29.293C31.166 29.1211 34.9258 28.8203 38.4062 28.3047L38.75 33.2031C30.5 34.793 21.3906 34.9219 14.6016 34.9219L14 29.5508C16.0195 29.5293 18.2754 29.5293 20.6602 29.4648V22.2461H27.4922ZM47.2578 10.043V21.6445H51.4258V27.3594H47.2578V39.6914H40.168V10.043L47.2578 10.043ZM48.4609 43.7305V49.2305H19.6719V37.0703H26.5898V43.7305H48.4609ZM75.4883 13.1367V18.4648H68.1406C68.5059 21.3008 70.9121 24.1582 76.9492 25.2539L74.0703 30.4531C69.5586 29.6152 66.5723 27.6172 64.7891 25.0391C62.9844 27.9609 59.9121 30.1953 55.1641 31.1836L52.2422 25.8555C58.4512 24.6309 60.8145 21.5586 61.1797 18.4648H53.832V13.1367H61.2227V10H68.1406V13.1367H75.4883ZM84.5547 10.043V17.5625H89.4961V23.1055H84.5547V30.5391H77.6367V10.043H84.5547ZM84.5547 31.9141V43.2148H64.4023V44.418H85.5V49.6172H57.5703V38.3164H77.6797V37.1133H57.5703V31.9141H84.5547ZM109.992 12.3203V25.5117H99.0352V28.5195C104.02 28.498 107.285 28.2832 110.895 27.5742L111.496 33.0742C107.027 33.8477 102.773 33.9766 95.3398 33.9766H92.2461V20.4844H103.074V17.6484H92.2031V12.3203L109.992 12.3203ZM124.602 10.1289V34.6211H117.727V29.3359H112.055V23.9219H117.727V20.7852H112.055V15.3711H117.727V10.1289H124.602ZM124.602 36.125V49.7891H117.727V41.582H96.8438V36.125H124.602ZM162.371 10.043V49.918H155.41V10.043H162.371ZM140.543 12.707C146.602 12.6641 151.156 18.25 151.156 27.0156C151.156 35.9102 146.602 41.4531 140.543 41.4531C134.355 41.4531 129.758 35.9102 129.758 27.0156C129.758 18.25 134.355 12.6641 140.543 12.707ZM140.543 18.9375C138.008 18.8945 136.418 21.5156 136.418 27.0156C136.418 32.6016 138.008 35.1367 140.543 35.1367C142.906 35.1367 144.539 32.6016 144.539 27.0156C144.539 21.5156 142.906 18.8945 140.543 18.9375ZM197.906 21.9453V24.9102L212.688 24.9102V30.3672H176.422V24.9102H191.031V21.9453H197.906ZM209.379 10.9023V16.0586L200.312 16.0586C201.709 17.4336 204.889 18.7012 211.312 18.9805L209.164 24.0508C201.043 23.5996 196.467 21.3008 194.512 18.1211C192.557 21.2793 187.959 23.5996 179.859 24.0508L177.711 18.9805C183.963 18.7012 187.143 17.4121 188.625 16.0586H179.73V10.9023H209.379ZM209.293 33.6328V38.6602H179.602V33.6328H190.988V31.2266H197.949V33.6328H209.293ZM194.383 39.3047C202.117 39.3047 206.801 41.1953 206.801 44.5898C206.801 48.0273 202.117 49.875 194.383 49.875C186.605 49.875 182.094 48.0273 182.094 44.5898C182.094 41.1953 186.605 39.3047 194.383 39.3047ZM194.383 43.8164C190.859 43.8164 189.227 43.9023 189.227 44.5898C189.227 45.2344 190.859 45.4062 194.383 45.4062C198.035 45.4062 199.539 45.2344 199.539 44.5898C199.539 43.9023 198.035 43.8164 194.383 43.8164ZM250.715 29.9805V35.3945H214.449V29.9805H250.715ZM246.504 43.7305V49.2305H218.617V37.543H225.535V43.7305H246.504ZM232.582 11.1602C241.348 11.1602 247.234 14.3398 247.277 19.4531C247.234 24.6523 241.348 27.875 232.582 27.875C223.73 27.875 217.801 24.6523 217.844 19.4531C217.801 14.3398 223.73 11.1602 232.582 11.1602ZM232.582 16.5742C227.598 16.6172 224.977 17.5195 225.02 19.4531C224.977 21.5156 227.598 22.332 232.582 22.2891C237.48 22.332 240.145 21.5156 240.145 19.4531C240.145 17.5195 237.48 16.6172 232.582 16.5742Z"/>
</mask>
<path d="M37.1602 12.8359V15.543C37.1602 18.4219 37.1602 22.375 36.3438 27.1445L29.5977 26.5C30.1562 23.2559 30.3281 20.6562 30.4141 18.4219H16.3203V12.8359H37.1602ZM27.4922 22.2461V29.293C31.166 29.1211 34.9258 28.8203 38.4062 28.3047L38.75 33.2031C30.5 34.793 21.3906 34.9219 14.6016 34.9219L14 29.5508C16.0195 29.5293 18.2754 29.5293 20.6602 29.4648V22.2461H27.4922ZM47.2578 10.043V21.6445H51.4258V27.3594H47.2578V39.6914H40.168V10.043L47.2578 10.043ZM48.4609 43.7305V49.2305H19.6719V37.0703H26.5898V43.7305H48.4609ZM75.4883 13.1367V18.4648H68.1406C68.5059 21.3008 70.9121 24.1582 76.9492 25.2539L74.0703 30.4531C69.5586 29.6152 66.5723 27.6172 64.7891 25.0391C62.9844 27.9609 59.9121 30.1953 55.1641 31.1836L52.2422 25.8555C58.4512 24.6309 60.8145 21.5586 61.1797 18.4648H53.832V13.1367H61.2227V10H68.1406V13.1367H75.4883ZM84.5547 10.043V17.5625H89.4961V23.1055H84.5547V30.5391H77.6367V10.043H84.5547ZM84.5547 31.9141V43.2148H64.4023V44.418H85.5V49.6172H57.5703V38.3164H77.6797V37.1133H57.5703V31.9141H84.5547ZM109.992 12.3203V25.5117H99.0352V28.5195C104.02 28.498 107.285 28.2832 110.895 27.5742L111.496 33.0742C107.027 33.8477 102.773 33.9766 95.3398 33.9766H92.2461V20.4844H103.074V17.6484H92.2031V12.3203L109.992 12.3203ZM124.602 10.1289V34.6211H117.727V29.3359H112.055V23.9219H117.727V20.7852H112.055V15.3711H117.727V10.1289H124.602ZM124.602 36.125V49.7891H117.727V41.582H96.8438V36.125H124.602ZM162.371 10.043V49.918H155.41V10.043H162.371ZM140.543 12.707C146.602 12.6641 151.156 18.25 151.156 27.0156C151.156 35.9102 146.602 41.4531 140.543 41.4531C134.355 41.4531 129.758 35.9102 129.758 27.0156C129.758 18.25 134.355 12.6641 140.543 12.707ZM140.543 18.9375C138.008 18.8945 136.418 21.5156 136.418 27.0156C136.418 32.6016 138.008 35.1367 140.543 35.1367C142.906 35.1367 144.539 32.6016 144.539 27.0156C144.539 21.5156 142.906 18.8945 140.543 18.9375ZM197.906 21.9453V24.9102L212.688 24.9102V30.3672H176.422V24.9102H191.031V21.9453H197.906ZM209.379 10.9023V16.0586L200.312 16.0586C201.709 17.4336 204.889 18.7012 211.312 18.9805L209.164 24.0508C201.043 23.5996 196.467 21.3008 194.512 18.1211C192.557 21.2793 187.959 23.5996 179.859 24.0508L177.711 18.9805C183.963 18.7012 187.143 17.4121 188.625 16.0586H179.73V10.9023H209.379ZM209.293 33.6328V38.6602H179.602V33.6328H190.988V31.2266H197.949V33.6328H209.293ZM194.383 39.3047C202.117 39.3047 206.801 41.1953 206.801 44.5898C206.801 48.0273 202.117 49.875 194.383 49.875C186.605 49.875 182.094 48.0273 182.094 44.5898C182.094 41.1953 186.605 39.3047 194.383 39.3047ZM194.383 43.8164C190.859 43.8164 189.227 43.9023 189.227 44.5898C189.227 45.2344 190.859 45.4062 194.383 45.4062C198.035 45.4062 199.539 45.2344 199.539 44.5898C199.539 43.9023 198.035 43.8164 194.383 43.8164ZM250.715 29.9805V35.3945H214.449V29.9805H250.715ZM246.504 43.7305V49.2305H218.617V37.543H225.535V43.7305H246.504ZM232.582 11.1602C241.348 11.1602 247.234 14.3398 247.277 19.4531C247.234 24.6523 241.348 27.875 232.582 27.875C223.73 27.875 217.801 24.6523 217.844 19.4531C217.801 14.3398 223.73 11.1602 232.582 11.1602ZM232.582 16.5742C227.598 16.6172 224.977 17.5195 225.02 19.4531C224.977 21.5156 227.598 22.332 232.582 22.2891C237.48 22.332 240.145 21.5156 240.145 19.4531C240.145 17.5195 237.48 16.6172 232.582 16.5742Z" fill="#11DCA9"/>
<path d="M37.1602 12.8359H47.1602C47.1602 7.31309 42.683 2.83594 37.1602 2.83594V12.8359ZM36.3438 27.1445L35.3927 37.0992C40.6039 37.5971 45.3172 33.9916 46.2004 28.8317L36.3438 27.1445ZM29.5977 26.5L19.7427 24.8031C19.2705 27.5456 19.9624 30.3608 21.6521 32.5719C23.3418 34.783 25.8764 36.19 28.6466 36.4547L29.5977 26.5ZM30.4141 18.4219L40.4067 18.8062C40.5112 16.0894 39.5049 13.4471 37.6197 11.488C35.7345 9.52892 33.1329 8.42188 30.4141 8.42188V18.4219ZM16.3203 18.4219H6.32031C6.32031 23.9447 10.7975 28.4219 16.3203 28.4219V18.4219ZM16.3203 12.8359V2.83594C10.7975 2.83594 6.32031 7.31309 6.32031 12.8359H16.3203ZM27.4922 22.2461H37.4922C37.4922 16.7232 33.015 12.2461 27.4922 12.2461V22.2461ZM27.4922 29.293H17.4922C17.4922 32.0262 18.611 34.6404 20.5883 36.5274C22.5657 38.4144 25.2292 39.4098 27.9595 39.282L27.4922 29.293ZM38.4062 28.3047L48.3817 27.6047C48.1867 24.8256 46.8412 22.2539 44.6695 20.5091C42.4977 18.7642 39.6966 18.0044 36.9408 18.4127L38.4062 28.3047ZM38.75 33.2031L40.6423 43.0225C45.6095 42.0652 49.0796 37.5493 48.7255 32.5031L38.75 33.2031ZM14.6016 34.9219L4.6637 36.0349C5.23047 41.0954 9.50942 44.9219 14.6016 44.9219V34.9219ZM14 29.5508L13.8936 19.5513C11.0664 19.5814 8.38395 20.807 6.51044 22.9246C4.63693 25.0422 3.74743 27.854 4.06214 30.6638L14 29.5508ZM20.6602 29.4648L20.9303 39.4612C26.346 39.3148 30.6602 34.8825 30.6602 29.4648H20.6602ZM20.6602 22.2461V12.2461C15.1373 12.2461 10.6602 16.7232 10.6602 22.2461H20.6602ZM47.2578 10.043H57.2578C57.2578 4.52012 52.7807 0.0429687 47.2578 0.0429687V10.043ZM47.2578 21.6445H37.2578C37.2578 27.1674 41.735 31.6445 47.2578 31.6445V21.6445ZM51.4258 21.6445H61.4258C61.4258 16.1217 56.9486 11.6445 51.4258 11.6445V21.6445ZM51.4258 27.3594V37.3594C56.9486 37.3594 61.4258 32.8822 61.4258 27.3594H51.4258ZM47.2578 27.3594V17.3594C41.735 17.3594 37.2578 21.8365 37.2578 27.3594H47.2578ZM47.2578 39.6914V49.6914C52.7807 49.6914 57.2578 45.2143 57.2578 39.6914H47.2578ZM40.168 39.6914H30.168C30.168 45.2143 34.6451 49.6914 40.168 49.6914V39.6914ZM40.168 10.043V0.0429687C34.6451 0.0429687 30.168 4.52012 30.168 10.043H40.168ZM48.4609 43.7305H58.4609C58.4609 38.2076 53.9838 33.7305 48.4609 33.7305V43.7305ZM48.4609 49.2305V59.2305C53.9838 59.2305 58.4609 54.7533 58.4609 49.2305H48.4609ZM19.6719 49.2305H9.67188C9.67188 54.7533 14.149 59.2305 19.6719 59.2305V49.2305ZM19.6719 37.0703V27.0703C14.149 27.0703 9.67188 31.5475 9.67188 37.0703H19.6719ZM26.5898 37.0703H36.5898C36.5898 31.5475 32.1127 27.0703 26.5898 27.0703V37.0703ZM26.5898 43.7305H16.5898C16.5898 49.2533 21.067 53.7305 26.5898 53.7305V43.7305ZM37.1602 12.8359H27.1602V15.543H37.1602H47.1602V12.8359H37.1602ZM37.1602 15.543H27.1602C27.1602 18.3712 27.149 21.5903 26.4871 25.4574L36.3438 27.1445L46.2004 28.8317C47.1713 23.1597 47.1602 18.4725 47.1602 15.543H37.1602ZM36.3438 27.1445L37.2948 17.1899L30.5487 16.5453L29.5977 26.5L28.6466 36.4547L35.3927 37.0992L36.3438 27.1445ZM29.5977 26.5L39.4526 28.1969C40.111 24.3731 40.3106 21.303 40.4067 18.8062L30.4141 18.4219L20.4215 18.0375C20.3456 20.0095 20.2015 22.1387 19.7427 24.8031L29.5977 26.5ZM30.4141 18.4219V8.42188H16.3203V18.4219V28.4219H30.4141V18.4219ZM16.3203 18.4219H26.3203V12.8359H16.3203H6.32031V18.4219H16.3203ZM16.3203 12.8359V22.8359H37.1602V12.8359V2.83594L16.3203 2.83594V12.8359ZM27.4922 22.2461H17.4922V29.293H27.4922H37.4922V22.2461H27.4922ZM27.4922 29.293L27.9595 39.282C31.8321 39.1009 35.949 38.7779 39.8717 38.1967L38.4062 28.3047L36.9408 18.4127C33.9025 18.8628 30.4999 19.1413 27.0249 19.3039L27.4922 29.293ZM38.4062 28.3047L28.4308 29.0047L28.7745 33.9032L38.75 33.2031L48.7255 32.5031L48.3817 27.6047L38.4062 28.3047ZM38.75 33.2031L36.8577 23.3838C29.6447 24.7738 21.3975 24.9219 14.6016 24.9219L14.6016 34.9219V44.9219C21.3838 44.9219 31.3553 44.8121 40.6423 43.0225L38.75 33.2031ZM14.6016 34.9219L24.5394 33.8088L23.9379 28.4377L14 29.5508L4.06214 30.6638L4.6637 36.0349L14.6016 34.9219ZM14 29.5508L14.1064 39.5502C15.9892 39.5302 18.4372 39.5286 20.9303 39.4612L20.6602 29.4648L20.39 19.4685C18.1136 19.53 16.0498 19.5284 13.8936 19.5513L14 29.5508ZM20.6602 29.4648H30.6602V22.2461H20.6602H10.6602V29.4648H20.6602ZM20.6602 22.2461V32.2461H27.4922V22.2461V12.2461H20.6602V22.2461ZM47.2578 10.043L37.2578 10.043V21.6445H47.2578H57.2578V10.043H47.2578ZM47.2578 21.6445V31.6445H51.4258V21.6445V11.6445H47.2578V21.6445ZM51.4258 21.6445H41.4258V27.3594H51.4258H61.4258V21.6445H51.4258ZM51.4258 27.3594V17.3594H47.2578V27.3594V37.3594H51.4258V27.3594ZM47.2578 27.3594H37.2578V39.6914H47.2578H57.2578V27.3594H47.2578ZM47.2578 39.6914V29.6914H40.168V39.6914V49.6914H47.2578V39.6914ZM40.168 39.6914H50.168V10.043L40.168 10.043H30.168V39.6914H40.168ZM40.168 10.043V20.043H47.2578V10.043V0.0429687H40.168V10.043ZM48.4609 43.7305H38.4609V49.2305H48.4609H58.4609V43.7305H48.4609ZM48.4609 49.2305V39.2305H19.6719V49.2305V59.2305H48.4609V49.2305ZM19.6719 49.2305H29.6719V37.0703H19.6719H9.67188L9.67188 49.2305H19.6719ZM19.6719 37.0703V47.0703H26.5898V37.0703V27.0703H19.6719V37.0703ZM26.5898 37.0703H16.5898V43.7305H26.5898H36.5898V37.0703H26.5898ZM26.5898 43.7305V53.7305H48.4609V43.7305V33.7305H26.5898V43.7305ZM75.4883 13.1367L85.4883 13.1367C85.4883 7.61387 81.0111 3.13672 75.4883 3.13672V13.1367ZM75.4883 18.4648V28.4648C81.0111 28.4648 85.4883 23.9877 85.4883 18.4648L75.4883 18.4648ZM68.1406 18.4648V8.46484C65.2658 8.46484 62.5301 9.70208 60.6315 11.8608C58.733 14.0195 57.8553 16.8909 58.2225 19.7422L68.1406 18.4648ZM76.9492 25.2539L85.6976 30.0981C87.2585 27.2791 87.3654 23.8808 85.9849 20.9694C84.6043 18.0579 81.9054 15.9901 78.735 15.4146L76.9492 25.2539ZM74.0703 30.4531L72.2444 40.285C76.4752 41.0707 80.7342 39.0618 82.8187 35.2973L74.0703 30.4531ZM64.7891 25.0391L73.0135 19.3505C71.0937 16.575 67.9036 14.955 64.53 15.0424C61.1564 15.1298 58.0545 16.9129 56.2811 19.7841L64.7891 25.0391ZM55.1641 31.1836L46.3959 35.9919C48.5106 39.848 52.8963 41.8699 57.2018 40.9738L55.1641 31.1836ZM52.2422 25.8555L50.3071 16.0445C47.1792 16.6614 44.5329 18.7329 43.1829 21.6212C41.8329 24.5094 41.9411 27.8683 43.4741 30.6638L52.2422 25.8555ZM61.1797 18.4648L71.1107 19.6373C71.4456 16.8006 70.5515 13.9561 68.6538 11.8212C66.7561 9.68632 64.0361 8.46484 61.1797 8.46484V18.4648ZM53.832 18.4648H43.832C43.832 23.9877 48.3092 28.4648 53.832 28.4648V18.4648ZM53.832 13.1367V3.13672C48.3092 3.13672 43.832 7.61387 43.832 13.1367H53.832ZM61.2227 13.1367V23.1367C66.7455 23.1367 71.2227 18.6596 71.2227 13.1367H61.2227ZM61.2227 10V0C55.6998 0 51.2227 4.47715 51.2227 10H61.2227ZM68.1406 10H78.1406C78.1406 4.47715 73.6635 0 68.1406 0V10ZM68.1406 13.1367H58.1406C58.1406 18.6596 62.6178 23.1367 68.1406 23.1367V13.1367ZM84.5547 10.043H94.5547C94.5547 4.52012 90.0775 0.0429687 84.5547 0.0429687V10.043ZM84.5547 17.5625L74.5547 17.5625C74.5547 23.0853 79.0318 27.5625 84.5547 27.5625V17.5625ZM89.4961 17.5625H99.4961C99.4961 12.0397 95.0189 7.5625 89.4961 7.5625V17.5625ZM89.4961 23.1055V33.1055C95.0189 33.1055 99.4961 28.6283 99.4961 23.1055H89.4961ZM84.5547 23.1055V13.1055C79.0318 13.1055 74.5547 17.5826 74.5547 23.1055L84.5547 23.1055ZM84.5547 30.5391V40.5391C90.0775 40.5391 94.5547 36.0619 94.5547 30.5391H84.5547ZM77.6367 30.5391H67.6367C67.6367 36.0619 72.1139 40.5391 77.6367 40.5391V30.5391ZM77.6367 10.043V0.0429687C72.1139 0.0429687 67.6367 4.52012 67.6367 10.043H77.6367ZM84.5547 31.9141H94.5547C94.5547 26.3912 90.0775 21.9141 84.5547 21.9141V31.9141ZM84.5547 43.2148V53.2148C90.0775 53.2148 94.5547 48.7377 94.5547 43.2148H84.5547ZM64.4023 43.2148V33.2148C58.8795 33.2148 54.4023 37.692 54.4023 43.2148H64.4023ZM64.4023 44.418H54.4023C54.4023 49.9408 58.8795 54.418 64.4023 54.418V44.418ZM85.5 44.418H95.5C95.5 38.8951 91.0229 34.418 85.5 34.418V44.418ZM85.5 49.6172V59.6172C91.0229 59.6172 95.5 55.14 95.5 49.6172H85.5ZM57.5703 49.6172H47.5703C47.5703 55.14 52.0475 59.6172 57.5703 59.6172V49.6172ZM57.5703 38.3164V28.3164C52.0475 28.3164 47.5703 32.7936 47.5703 38.3164H57.5703ZM77.6797 38.3164V48.3164C83.2025 48.3164 87.6797 43.8393 87.6797 38.3164H77.6797ZM77.6797 37.1133H87.6797C87.6797 31.5904 83.2025 27.1133 77.6797 27.1133V37.1133ZM57.5703 37.1133H47.5703C47.5703 42.6361 52.0475 47.1133 57.5703 47.1133V37.1133ZM57.5703 31.9141V21.9141C52.0475 21.9141 47.5703 26.3912 47.5703 31.9141H57.5703ZM75.4883 13.1367H65.4883V18.4648H75.4883L85.4883 18.4648V13.1367L75.4883 13.1367ZM75.4883 18.4648V8.46484H68.1406V18.4648V28.4648H75.4883V18.4648ZM68.1406 18.4648L58.2225 19.7422C59.3419 28.4334 66.5879 33.5367 75.1634 35.0932L76.9492 25.2539L78.735 15.4146C76.9232 15.0858 76.6261 14.6616 76.939 14.9307C77.1082 15.0762 77.372 15.3576 77.6103 15.7964C77.8476 16.2335 77.9976 16.7132 78.0587 17.1875L68.1406 18.4648ZM76.9492 25.2539L68.2008 20.4098L65.3219 25.609L74.0703 30.4531L82.8187 35.2973L85.6976 30.0981L76.9492 25.2539ZM74.0703 30.4531L75.8962 20.6212C74.6551 20.3907 73.9451 20.0616 73.5779 19.8397C73.2293 19.629 73.0857 19.4549 73.0135 19.3505L64.7891 25.0391L56.5647 30.7276C60.0959 35.8329 65.5947 39.0501 72.2444 40.285L74.0703 30.4531ZM64.7891 25.0391L56.2811 19.7841C56.1364 20.0183 55.9376 20.249 55.5725 20.4899C55.1856 20.7452 54.4454 21.1189 53.1263 21.3934L55.1641 31.1836L57.2018 40.9738C64.2261 39.5117 69.8427 35.8868 73.297 30.294L64.7891 25.0391ZM55.1641 31.1836L63.9322 26.3753L61.0103 21.0471L52.2422 25.8555L43.4741 30.6638L46.3959 35.9919L55.1641 31.1836ZM52.2422 25.8555L54.1772 35.6665C58.5495 34.8041 62.5648 33.0981 65.6961 30.1989C68.9404 27.1952 70.6632 23.4284 71.1107 19.6373L61.1797 18.4648L51.2487 17.2924C51.2831 17.0007 51.3737 16.6501 51.5523 16.2918C51.7345 15.9263 51.95 15.67 52.1085 15.5232C52.4147 15.2398 52.1438 15.6822 50.3071 16.0445L52.2422 25.8555ZM61.1797 18.4648V8.46484H53.832V18.4648V28.4648H61.1797V18.4648ZM53.832 18.4648H63.832V13.1367H53.832H43.832V18.4648H53.832ZM53.832 13.1367V23.1367H61.2227V13.1367V3.13672H53.832V13.1367ZM61.2227 13.1367H71.2227V10H61.2227H51.2227V13.1367H61.2227ZM61.2227 10V20H68.1406V10V0H61.2227V10ZM68.1406 10H58.1406V13.1367H68.1406L78.1406 13.1367V10H68.1406ZM68.1406 13.1367V23.1367H75.4883V13.1367V3.13672H68.1406V13.1367ZM84.5547 10.043H74.5547V17.5625L84.5547 17.5625H94.5547V10.043H84.5547ZM84.5547 17.5625V27.5625H89.4961V17.5625V7.5625H84.5547V17.5625ZM89.4961 17.5625H79.4961V23.1055H89.4961H99.4961V17.5625H89.4961ZM89.4961 23.1055V13.1055H84.5547V23.1055V33.1055H89.4961V23.1055ZM84.5547 23.1055L74.5547 23.1055V30.5391H84.5547H94.5547V23.1055H84.5547ZM84.5547 30.5391V20.5391L77.6367 20.5391V30.5391V40.5391H84.5547V30.5391ZM77.6367 30.5391H87.6367V10.043H77.6367H67.6367V30.5391H77.6367ZM77.6367 10.043V20.043L84.5547 20.043V10.043V0.0429687H77.6367V10.043ZM84.5547 31.9141H74.5547V43.2148H84.5547H94.5547V31.9141H84.5547ZM84.5547 43.2148V33.2148H64.4023V43.2148V53.2148H84.5547V43.2148ZM64.4023 43.2148H54.4023V44.418H64.4023H74.4023V43.2148H64.4023ZM64.4023 44.418V54.418H85.5V44.418V34.418H64.4023V44.418ZM85.5 44.418H75.5V49.6172H85.5H95.5V44.418H85.5ZM85.5 49.6172V39.6172H57.5703V49.6172V59.6172H85.5V49.6172ZM57.5703 49.6172H67.5703V38.3164H57.5703H47.5703V49.6172H57.5703ZM57.5703 38.3164V48.3164H77.6797V38.3164V28.3164H57.5703V38.3164ZM77.6797 38.3164H87.6797V37.1133H77.6797H67.6797V38.3164H77.6797ZM77.6797 37.1133V27.1133H57.5703V37.1133V47.1133H77.6797V37.1133ZM57.5703 37.1133H67.5703V31.9141H57.5703H47.5703V37.1133H57.5703ZM57.5703 31.9141V41.9141H84.5547V31.9141V21.9141L57.5703 21.9141V31.9141ZM109.992 12.3203H119.992C119.992 6.79747 115.515 2.32031 109.992 2.32031V12.3203ZM109.992 25.5117V35.5117C115.515 35.5117 119.992 31.0346 119.992 25.5117H109.992ZM99.0352 25.5117V15.5117C93.5123 15.5117 89.0352 19.9889 89.0352 25.5117H99.0352ZM99.0352 28.5195H89.0352C89.0352 31.1792 90.0947 33.7292 91.9793 35.6058C93.864 37.4824 96.4186 38.5309 99.0783 38.5194L99.0352 28.5195ZM110.895 27.5742L120.835 26.487C120.531 23.7038 119.074 21.1757 116.818 19.5173C114.562 17.8589 111.714 17.2221 108.967 17.7617L110.895 27.5742ZM111.496 33.0742L113.202 42.9277C118.405 42.0272 122.011 37.2362 121.437 31.987L111.496 33.0742ZM92.2461 33.9766H82.2461C82.2461 39.4994 86.7232 43.9766 92.2461 43.9766V33.9766ZM92.2461 20.4844V10.4844C86.7232 10.4844 82.2461 14.9615 82.2461 20.4844H92.2461ZM103.074 20.4844V30.4844C108.597 30.4844 113.074 26.0072 113.074 20.4844H103.074ZM103.074 17.6484H113.074C113.074 12.1256 108.597 7.64844 103.074 7.64844V17.6484ZM92.2031 17.6484H82.2031C82.2031 23.1713 86.6803 27.6484 92.2031 27.6484V17.6484ZM92.2031 12.3203V2.32031C86.6803 2.32031 82.2031 6.79747 82.2031 12.3203H92.2031ZM124.602 10.1289H134.602C134.602 4.60606 130.124 0.128906 124.602 0.128906V10.1289ZM124.602 34.6211V44.6211C130.124 44.6211 134.602 40.1439 134.602 34.6211H124.602ZM117.727 34.6211H107.727C107.727 40.1439 112.204 44.6211 117.727 44.6211V34.6211ZM117.727 29.3359H127.727C127.727 23.8131 123.249 19.3359 117.727 19.3359V29.3359ZM112.055 29.3359H102.055C102.055 34.8588 106.532 39.3359 112.055 39.3359V29.3359ZM112.055 23.9219V13.9219C106.532 13.9219 102.055 18.399 102.055 23.9219H112.055ZM117.727 23.9219V33.9219C123.249 33.9219 127.727 29.4447 127.727 23.9219H117.727ZM117.727 20.7852H127.727C127.727 15.2623 123.249 10.7852 117.727 10.7852V20.7852ZM112.055 20.7852H102.055C102.055 26.308 106.532 30.7852 112.055 30.7852V20.7852ZM112.055 15.3711V5.37109C106.532 5.37109 102.055 9.84825 102.055 15.3711H112.055ZM117.727 15.3711V25.3711C123.249 25.3711 127.727 20.8939 127.727 15.3711H117.727ZM117.727 10.1289V0.128906C112.204 0.128906 107.727 4.60606 107.727 10.1289L117.727 10.1289ZM124.602 36.125H134.602C134.602 30.6022 130.124 26.125 124.602 26.125V36.125ZM124.602 49.7891V59.7891C130.124 59.7891 134.602 55.3119 134.602 49.7891H124.602ZM117.727 49.7891H107.727C107.727 55.3119 112.204 59.7891 117.727 59.7891V49.7891ZM117.727 41.582H127.727C127.727 36.0592 123.249 31.582 117.727 31.582V41.582ZM96.8438 41.582H86.8438C86.8438 47.1049 91.3209 51.582 96.8438 51.582V41.582ZM96.8438 36.125V26.125C91.3209 26.125 86.8438 30.6022 86.8438 36.125H96.8438ZM109.992 12.3203L99.9922 12.3203V25.5117H109.992H119.992V12.3203H109.992ZM109.992 25.5117V15.5117H99.0352V25.5117V35.5117H109.992V25.5117ZM99.0352 25.5117H89.0352V28.5195H99.0352H109.035V25.5117H99.0352ZM99.0352 28.5195L99.0783 38.5194C104.357 38.4967 108.33 38.269 112.822 37.3867L110.895 27.5742L108.967 17.7617C106.24 18.2974 103.682 18.4994 98.9921 18.5196L99.0352 28.5195ZM110.895 27.5742L100.954 28.6615L101.555 34.1615L111.496 33.0742L121.437 31.987L120.835 26.487L110.895 27.5742ZM111.496 33.0742L109.791 23.2207C106.254 23.8328 102.769 23.9766 95.3398 23.9766V33.9766V43.9766C102.777 43.9766 107.8 43.8625 113.202 42.9277L111.496 33.0742ZM95.3398 33.9766V23.9766H92.2461V33.9766V43.9766H95.3398V33.9766ZM92.2461 33.9766H102.246V20.4844H92.2461H82.2461V33.9766H92.2461ZM92.2461 20.4844V30.4844H103.074V20.4844V10.4844H92.2461V20.4844ZM103.074 20.4844H113.074V17.6484H103.074H93.0742V20.4844H103.074ZM103.074 17.6484V7.64844H92.2031V17.6484V27.6484H103.074V17.6484ZM92.2031 17.6484H102.203V12.3203H92.2031H82.2031V17.6484H92.2031ZM92.2031 12.3203V22.3203H109.992V12.3203V2.32031L92.2031 2.32031V12.3203ZM124.602 10.1289H114.602V34.6211H124.602H134.602V10.1289H124.602ZM124.602 34.6211V24.6211H117.727V34.6211V44.6211H124.602V34.6211ZM117.727 34.6211H127.727V29.3359H117.727H107.727V34.6211H117.727ZM117.727 29.3359V19.3359H112.055V29.3359V39.3359H117.727V29.3359ZM112.055 29.3359H122.055V23.9219H112.055H102.055V29.3359H112.055ZM112.055 23.9219V33.9219H117.727V23.9219V13.9219H112.055V23.9219ZM117.727 23.9219H127.727V20.7852H117.727H107.727V23.9219H117.727ZM117.727 20.7852V10.7852H112.055V20.7852V30.7852H117.727V20.7852ZM112.055 20.7852H122.055V15.3711H112.055H102.055V20.7852H112.055ZM112.055 15.3711V25.3711H117.727V15.3711V5.37109H112.055V15.3711ZM117.727 15.3711H127.727V10.1289H117.727L107.727 10.1289V15.3711H117.727ZM117.727 10.1289V20.1289H124.602V10.1289V0.128906L117.727 0.128906V10.1289ZM124.602 36.125H114.602V49.7891H124.602H134.602V36.125H124.602ZM124.602 49.7891V39.7891H117.727V49.7891V59.7891H124.602V49.7891ZM117.727 49.7891H127.727V41.582H117.727H107.727V49.7891H117.727ZM117.727 41.582V31.582H96.8438V41.582V51.582H117.727V41.582ZM96.8438 41.582H106.844V36.125H96.8438H86.8438V41.582H96.8438ZM96.8438 36.125V46.125H124.602V36.125V26.125H96.8438V36.125ZM162.371 10.043H172.371C172.371 4.52012 167.894 0.0429687 162.371 0.0429687V10.043ZM162.371 49.918V59.918C167.894 59.918 172.371 55.4408 172.371 49.918H162.371ZM155.41 49.918H145.41C145.41 55.4408 149.887 59.918 155.41 59.918V49.918ZM155.41 10.043V0.0429687C149.887 0.0429687 145.41 4.52012 145.41 10.043H155.41ZM140.543 12.707L140.474 22.7068C140.52 22.7071 140.567 22.7071 140.614 22.7068L140.543 12.707ZM140.543 18.9375L140.374 28.9361C140.491 28.938 140.608 28.938 140.725 28.9358L140.543 18.9375ZM162.371 10.043H152.371V49.918H162.371H172.371V10.043H162.371ZM162.371 49.918V39.918H155.41V49.918V59.918H162.371V49.918ZM155.41 49.918H165.41V10.043H155.41H145.41V49.918H155.41ZM155.41 10.043V20.043H162.371V10.043V0.0429687H155.41V10.043ZM140.543 12.707L140.614 22.7068C140.546 22.7073 140.377 22.6835 140.201 22.5938C140.04 22.511 140.049 22.4628 140.169 22.6211C140.44 22.9757 141.156 24.2764 141.156 27.0156H151.156H161.156C161.156 20.9893 159.596 15.1141 156.074 10.4951C152.427 5.71116 146.894 2.66174 140.472 2.70728L140.543 12.707ZM151.156 27.0156H141.156C141.156 29.8458 140.427 31.1679 140.157 31.5233C140.036 31.6821 140.025 31.637 140.179 31.5576C140.345 31.4722 140.498 31.4531 140.543 31.4531V41.4531V51.4531C146.916 51.4531 152.435 48.4264 156.087 43.6163C159.609 38.9767 161.156 33.08 161.156 27.0156H151.156ZM140.543 41.4531V31.4531C140.521 31.4531 140.626 31.4565 140.764 31.526C140.892 31.5909 140.873 31.6244 140.754 31.4694C140.488 31.1245 139.758 29.8268 139.758 27.0156H129.758H119.758C119.758 33.0989 121.326 39.02 124.906 43.6702C128.619 48.4928 134.181 51.4531 140.543 51.4531V41.4531ZM129.758 27.0156H139.758C139.758 24.2956 140.475 23.0192 140.741 22.675C140.861 22.5203 140.877 22.5569 140.742 22.6251C140.681 22.6556 140.615 22.6793 140.553 22.6937C140.491 22.7079 140.46 22.7067 140.474 22.7068L140.543 12.707L140.612 2.70727C134.203 2.66276 128.628 5.64447 124.919 10.4412C121.34 15.0706 119.758 20.97 119.758 27.0156H129.758ZM140.543 18.9375L140.712 8.93894C135.081 8.84349 130.883 12.1176 128.709 16.1866C126.868 19.633 126.418 23.5815 126.418 27.0156H136.418H146.418C146.418 26.0989 146.486 25.5327 146.539 25.2484C146.595 24.9423 146.601 25.1395 146.35 25.6093C146.084 26.1079 145.458 27.0333 144.244 27.8152C142.966 28.6385 141.569 28.9563 140.374 28.9361L140.543 18.9375ZM136.418 27.0156H126.418C126.418 30.4701 126.862 34.4374 128.717 37.8971C130.932 42.0266 135.107 45.1367 140.543 45.1367V35.1367V25.1367C141.653 25.1367 142.989 25.4395 144.236 26.2412C145.433 27.0103 146.064 27.9261 146.342 28.4447C146.601 28.9275 146.597 29.1358 146.54 28.8278C146.487 28.5407 146.418 27.9624 146.418 27.0156H136.418ZM140.543 35.1367V45.1367C146.142 45.1367 150.193 41.7724 152.269 37.8416C154.069 34.4356 154.539 30.5236 154.539 27.0156H144.539H134.539C134.539 27.9469 134.469 28.5236 134.415 28.8154C134.357 29.1272 134.348 28.9492 134.585 28.5002C134.834 28.0295 135.429 27.1281 136.601 26.3434C137.842 25.5133 139.251 25.1367 140.543 25.1367V35.1367ZM144.539 27.0156H154.539C154.539 23.5283 154.062 19.6343 152.277 16.2419C150.247 12.3823 146.168 8.83358 140.361 8.93915L140.543 18.9375L140.725 28.9358C139.339 28.961 137.864 28.5647 136.594 27.7127C135.405 26.9153 134.814 26.0044 134.577 25.5539C134.348 25.118 134.359 24.9508 134.417 25.2609C134.471 25.55 134.539 26.1145 134.539 27.0156H144.539ZM197.906 21.9453L207.906 21.9453C207.906 16.4225 203.429 11.9453 197.906 11.9453V21.9453ZM197.906 24.9102H187.906C187.906 30.433 192.383 34.9102 197.906 34.9102V24.9102ZM212.688 24.9102H222.688C222.688 19.3873 218.21 14.9102 212.688 14.9102V24.9102ZM212.688 30.3672V40.3672C218.21 40.3672 222.688 35.89 222.688 30.3672H212.688ZM176.422 30.3672H166.422C166.422 35.89 170.899 40.3672 176.422 40.3672V30.3672ZM176.422 24.9102V14.9102C170.899 14.9102 166.422 19.3873 166.422 24.9102H176.422ZM191.031 24.9102V34.9102C196.554 34.9102 201.031 30.433 201.031 24.9102H191.031ZM191.031 21.9453V11.9453C185.508 11.9453 181.031 16.4225 181.031 21.9453H191.031ZM209.379 10.9023H219.379C219.379 5.3795 214.902 0.902344 209.379 0.902344V10.9023ZM209.379 16.0586V26.0586C214.902 26.0586 219.379 21.5814 219.379 16.0586H209.379ZM200.312 16.0586V6.05859C196.254 6.05859 192.598 8.51182 191.059 12.2676C189.52 16.0234 190.404 20.3366 193.296 23.1843L200.312 16.0586ZM211.312 18.9805L220.52 22.882C221.799 19.8644 221.518 16.4118 219.768 13.6409C218.018 10.8699 215.021 9.13226 211.747 8.98991L211.312 18.9805ZM209.164 24.0508L208.609 34.0354C212.821 34.2693 216.726 31.8358 218.372 27.9523L209.164 24.0508ZM194.512 18.1211L203.03 12.8833C201.214 9.92862 197.995 8.12636 194.527 8.12111C191.058 8.11585 187.835 9.90835 186.009 12.8575L194.512 18.1211ZM179.859 24.0508L170.652 27.9523C172.298 31.8363 176.204 34.2699 180.416 34.0353L179.859 24.0508ZM177.711 18.9805L177.265 8.99043C173.993 9.1366 171 10.8757 169.253 13.6459C167.505 16.4161 167.226 19.8663 168.503 22.882L177.711 18.9805ZM188.625 16.0586L195.368 23.4434C198.416 20.6604 199.441 16.2907 197.948 12.4426C196.456 8.59441 192.752 6.05859 188.625 6.05859V16.0586ZM179.73 16.0586H169.73C169.73 21.5814 174.208 26.0586 179.73 26.0586V16.0586ZM179.73 10.9023V0.902344C174.208 0.902344 169.73 5.3795 169.73 10.9023L179.73 10.9023ZM209.293 33.6328H219.293C219.293 28.11 214.816 23.6328 209.293 23.6328V33.6328ZM209.293 38.6602V48.6602C214.816 48.6602 219.293 44.183 219.293 38.6602H209.293ZM179.602 38.6602H169.602C169.602 44.183 174.079 48.6602 179.602 48.6602V38.6602ZM179.602 33.6328V23.6328C174.079 23.6328 169.602 28.11 169.602 33.6328H179.602ZM190.988 33.6328V43.6328C196.511 43.6328 200.988 39.1557 200.988 33.6328H190.988ZM190.988 31.2266V21.2266C185.465 21.2266 180.988 25.7037 180.988 31.2266H190.988ZM197.949 31.2266H207.949C207.949 25.7037 203.472 21.2266 197.949 21.2266V31.2266ZM197.949 33.6328H187.949C187.949 39.1557 192.426 43.6328 197.949 43.6328V33.6328ZM197.906 21.9453H187.906V24.9102H197.906L207.906 24.9102V21.9453L197.906 21.9453ZM197.906 24.9102V34.9102H212.688V24.9102V14.9102L197.906 14.9102V24.9102ZM212.688 24.9102L202.688 24.9102V30.3672H212.688H222.688V24.9102H212.688ZM212.688 30.3672V20.3672L176.422 20.3672V30.3672V40.3672H212.688V30.3672ZM176.422 30.3672H186.422V24.9102H176.422H166.422V30.3672H176.422ZM176.422 24.9102V34.9102H191.031V24.9102V14.9102H176.422V24.9102ZM191.031 24.9102H201.031V21.9453H191.031H181.031V24.9102H191.031ZM191.031 21.9453V31.9453H197.906V21.9453V11.9453H191.031V21.9453ZM209.379 10.9023H199.379V16.0586L209.379 16.0586H219.379V10.9023H209.379ZM209.379 16.0586V6.05859H200.312V16.0586V26.0586L209.379 26.0586V16.0586ZM200.312 16.0586L193.296 23.1843C197.507 27.3304 204.018 28.6728 210.878 28.971L211.312 18.9805L211.747 8.98991C209.064 8.87326 207.521 8.56474 206.761 8.34024C205.942 8.09835 206.468 8.08563 207.329 8.93293L200.312 16.0586ZM211.312 18.9805L202.105 15.079L199.957 20.1493L209.164 24.0508L218.372 27.9523L220.52 22.882L211.312 18.9805ZM209.164 24.0508L209.719 14.0662C206.421 13.883 204.476 13.3503 203.46 12.9156C202.503 12.506 202.693 12.3343 203.03 12.8833L194.512 18.1211L185.993 23.3589C190.578 30.8151 199.465 33.5274 208.609 34.0354L209.164 24.0508ZM194.512 18.1211L186.009 12.8575C186.35 12.3074 186.528 12.4905 185.551 12.9096C184.525 13.3493 182.577 13.8839 179.303 14.0663L179.859 24.0508L180.416 34.0353C189.565 33.5257 198.436 30.7811 203.014 23.3846L194.512 18.1211ZM179.859 24.0508L189.067 20.1493L186.918 15.079L177.711 18.9805L168.503 22.882L170.652 27.9523L179.859 24.0508ZM177.711 18.9805L178.157 28.9705C185.103 28.6602 191.24 27.212 195.368 23.4434L188.625 16.0586L181.882 8.67374C182.569 8.04631 182.89 8.10291 182.094 8.34089C181.328 8.56959 179.825 8.87607 177.265 8.99043L177.711 18.9805ZM188.625 16.0586V6.05859H179.73V16.0586V26.0586H188.625V16.0586ZM179.73 16.0586H189.73V10.9023H179.73L169.73 10.9023V16.0586H179.73ZM179.73 10.9023V20.9023L209.379 20.9023V10.9023V0.902344L179.73 0.902344V10.9023ZM209.293 33.6328H199.293V38.6602H209.293H219.293V33.6328H209.293ZM209.293 38.6602V28.6602H179.602V38.6602V48.6602H209.293V38.6602ZM179.602 38.6602H189.602V33.6328H179.602H169.602V38.6602H179.602ZM179.602 33.6328V43.6328H190.988V33.6328V23.6328H179.602V33.6328ZM190.988 33.6328H200.988V31.2266H190.988H180.988V33.6328H190.988ZM190.988 31.2266V41.2266H197.949V31.2266V21.2266H190.988V31.2266ZM197.949 31.2266H187.949V33.6328H197.949H207.949V31.2266H197.949ZM197.949 33.6328V43.6328H209.293V33.6328V23.6328L197.949 23.6328V33.6328ZM194.383 39.3047V49.3047C195.927 49.3047 197.159 49.4002 198.095 49.5413C199.058 49.6866 199.521 49.8527 199.623 49.8955C199.761 49.9536 199.109 49.7208 198.349 48.8322C197.449 47.7796 196.801 46.2585 196.801 44.5898H206.801H216.801C216.801 37.1099 211.271 33.0938 207.361 31.4532C203.46 29.816 198.832 29.3047 194.383 29.3047V39.3047ZM206.801 44.5898H196.801C196.801 42.9624 197.428 41.4461 198.339 40.3772C199.108 39.4753 199.775 39.2371 199.643 39.2921C199.546 39.3325 199.085 39.4972 198.116 39.6413C197.175 39.781 195.936 39.875 194.383 39.875V49.875V59.875C198.807 59.875 203.435 59.3802 207.342 57.7509C211.304 56.0982 216.801 52.0669 216.801 44.5898H206.801ZM194.383 49.875V39.875C192.815 39.875 191.583 39.7807 190.661 39.6427C189.71 39.5004 189.286 39.3408 189.23 39.3167C189.146 39.2813 189.843 39.5479 190.618 40.4826C191.526 41.5775 192.094 43.0631 192.094 44.5898H182.094H172.094C172.094 51.8995 177.331 55.9927 181.414 57.7263C185.32 59.3846 189.953 59.875 194.383 59.875V49.875ZM182.094 44.5898H192.094C192.094 46.1571 191.506 47.6475 190.608 48.7268C189.842 49.6482 189.159 49.9091 189.25 49.8706C189.311 49.8442 189.738 49.6833 190.683 49.5398C191.6 49.4006 192.825 49.3047 194.383 49.3047V39.3047V29.3047C189.927 29.3047 185.295 29.8116 181.394 31.478C177.363 33.1997 172.094 37.2766 172.094 44.5898H182.094ZM194.383 43.8164V33.8164C192.777 33.8164 190.822 33.8227 189.228 34.0245C188.546 34.1107 186.83 34.346 185.042 35.2462C182.89 36.3289 179.227 39.2666 179.227 44.5898H189.227H199.227C199.227 46.6603 198.554 48.7057 197.28 50.3906C196.127 51.9151 194.806 52.7219 194.032 53.1117C193.243 53.5086 192.599 53.6847 192.308 53.7559C191.987 53.8344 191.776 53.8615 191.739 53.8661C191.688 53.8726 191.848 53.8518 192.38 53.8364C192.879 53.8219 193.524 53.8164 194.383 53.8164V43.8164ZM189.227 44.5898H179.227C179.227 50.0833 183.118 52.9358 184.973 53.8872C186.684 54.7645 188.325 55.031 189.043 55.1354C190.698 55.3763 192.66 55.4062 194.383 55.4062V45.4062V35.4062C193.569 35.4062 192.954 35.396 192.494 35.3775C192.003 35.3576 191.857 35.3343 191.924 35.344C191.967 35.3503 192.171 35.3807 192.478 35.4617C192.757 35.5352 193.36 35.7119 194.1 36.0914C194.814 36.4573 196.076 37.2263 197.203 38.6782C198.458 40.2949 199.227 42.3618 199.227 44.5898H189.227ZM194.383 45.4062V55.4062C196.147 55.4062 198.136 55.3781 199.798 55.1314C200.518 55.0247 202.224 54.7449 203.992 53.7921C206.1 52.6557 209.539 49.7233 209.539 44.5898H199.539H189.539C189.539 42.5617 190.182 40.5757 191.379 38.9301C192.47 37.4292 193.731 36.6021 194.502 36.1865C195.283 35.7656 195.93 35.5681 196.239 35.4838C196.576 35.3919 196.806 35.3565 196.863 35.3481C196.956 35.3342 196.829 35.3573 196.33 35.3773C195.864 35.3959 195.233 35.4062 194.383 35.4062V45.4062ZM199.539 44.5898H209.539C209.539 42.538 208.932 40.4211 207.628 38.5802C206.419 36.8724 204.955 35.8855 203.922 35.3389C202.073 34.3613 200.289 34.1151 199.61 34.0275C198.013 33.8215 196.033 33.8164 194.383 33.8164V43.8164V53.8164C195.277 53.8164 195.938 53.822 196.442 53.8365C196.984 53.852 197.127 53.8729 197.051 53.8631C197.001 53.8566 196.764 53.8253 196.414 53.7365C196.093 53.6553 195.404 53.4587 194.572 53.019C193.737 52.5771 192.419 51.7098 191.306 50.1383C190.099 48.4336 189.539 46.4698 189.539 44.5898H199.539ZM250.715 29.9805H260.715C260.715 24.4576 256.238 19.9805 250.715 19.9805V29.9805ZM250.715 35.3945V45.3945C256.238 45.3945 260.715 40.9174 260.715 35.3945H250.715ZM214.449 35.3945H204.449C204.449 40.9174 208.926 45.3945 214.449 45.3945V35.3945ZM214.449 29.9805V19.9805C208.926 19.9805 204.449 24.4576 204.449 29.9805H214.449ZM246.504 43.7305H256.504C256.504 38.2076 252.027 33.7305 246.504 33.7305V43.7305ZM246.504 49.2305V59.2305C252.027 59.2305 256.504 54.7533 256.504 49.2305H246.504ZM218.617 49.2305H208.617C208.617 54.7533 213.094 59.2305 218.617 59.2305V49.2305ZM218.617 37.543V27.543C213.094 27.543 208.617 32.0201 208.617 37.543H218.617ZM225.535 37.543H235.535C235.535 32.0201 231.058 27.543 225.535 27.543V37.543ZM225.535 43.7305H215.535C215.535 49.2533 220.012 53.7305 225.535 53.7305V43.7305ZM247.277 19.4531L257.277 19.5358C257.277 19.4802 257.277 19.4247 257.277 19.3691L247.277 19.4531ZM217.844 19.4531L227.843 19.5358C227.844 19.4802 227.844 19.4247 227.843 19.3691L217.844 19.4531ZM232.582 16.5742L232.67 6.5746C232.612 6.57409 232.554 6.57409 232.496 6.57459L232.582 16.5742ZM225.02 19.4531L235.017 19.6614C235.02 19.5179 235.02 19.3744 235.017 19.231L225.02 19.4531ZM232.582 22.2891L232.67 12.2894C232.612 12.2889 232.554 12.2889 232.496 12.2894L232.582 22.2891ZM250.715 29.9805H240.715V35.3945H250.715H260.715V29.9805H250.715ZM250.715 35.3945V25.3945H214.449V35.3945V45.3945H250.715V35.3945ZM214.449 35.3945H224.449V29.9805H214.449H204.449V35.3945H214.449ZM214.449 29.9805V39.9805H250.715V29.9805V19.9805H214.449V29.9805ZM246.504 43.7305H236.504V49.2305H246.504H256.504V43.7305H246.504ZM246.504 49.2305V39.2305H218.617V49.2305V59.2305H246.504V49.2305ZM218.617 49.2305H228.617V37.543H218.617H208.617V49.2305H218.617ZM218.617 37.543V47.543H225.535V37.543V27.543H218.617V37.543ZM225.535 37.543H215.535V43.7305H225.535H235.535V37.543H225.535ZM225.535 43.7305V53.7305H246.504V43.7305V33.7305H225.535V43.7305ZM232.582 11.1602V21.1602C235.944 21.1602 237.748 21.7985 238.332 22.1238C238.566 22.2542 238.294 22.1613 237.939 21.6412C237.533 21.0469 237.284 20.2754 237.278 19.5372L247.277 19.4531L257.277 19.3691C257.217 12.2838 252.875 7.33288 248.069 4.65448C243.508 2.11168 237.986 1.16016 232.582 1.16016V11.1602ZM247.277 19.4531L237.278 19.3705C237.283 18.6906 237.51 17.9583 237.898 17.3819C238.238 16.8753 238.501 16.7829 238.277 16.9102C237.708 17.2316 235.927 17.875 232.582 17.875V27.875V37.875C238.003 37.875 243.547 36.9071 248.125 34.3174C252.964 31.5795 257.219 26.5841 257.277 19.5358L247.277 19.4531ZM232.582 27.875V17.875C229.175 17.875 227.361 17.2251 226.786 16.9014C226.56 16.7739 226.846 16.8777 227.207 17.4192C227.618 18.0374 227.849 18.8181 227.843 19.5358L217.844 19.4531L207.844 19.3705C207.785 26.53 212.106 31.5864 216.969 34.3261C221.561 36.9136 227.137 37.875 232.582 37.875V27.875ZM217.844 19.4531L227.843 19.3691C227.85 20.1461 227.597 20.9672 227.166 21.6038C226.791 22.1589 226.495 22.2632 226.731 22.1324C227.321 21.8048 229.159 21.1602 232.582 21.1602V11.1602V1.16016C227.154 1.16016 221.601 2.10539 217.024 4.64587C212.197 7.32534 207.784 12.3377 207.844 19.5372L217.844 19.4531ZM232.582 16.5742L232.496 6.57459C229.706 6.59864 226.383 6.83548 223.435 7.93007C221.902 8.49923 219.79 9.54537 218.009 11.5491C216.019 13.7866 214.955 16.6563 215.022 19.6753L225.02 19.4531L235.017 19.231C235.063 21.2832 234.31 23.3149 232.955 24.8381C231.809 26.1275 230.656 26.5828 230.396 26.6793C230.084 26.7953 230.073 26.7517 230.559 26.6896C231.008 26.6323 231.695 26.5822 232.668 26.5738L232.582 16.5742ZM225.02 19.4531L215.022 19.2448C214.962 22.116 215.907 24.9964 217.93 27.327C219.754 29.4293 221.946 30.5022 223.54 31.0736C226.556 32.1555 229.94 32.3122 232.668 32.2887L232.582 22.2891L232.496 12.2894C231.506 12.298 230.817 12.261 230.371 12.2126C229.885 12.1597 229.932 12.1187 230.291 12.2477C230.612 12.3626 231.845 12.8474 233.034 14.2178C234.422 15.8166 235.056 17.8215 235.017 19.6614L225.02 19.4531ZM232.582 22.2891L232.494 32.2887C235.204 32.3124 238.558 32.1513 241.564 31.0781C243.146 30.5129 245.3 29.4636 247.115 27.4279C249.124 25.1757 250.145 22.3496 250.145 19.4531H240.145H230.145C230.145 17.5879 230.832 15.6373 232.188 14.1169C233.351 12.813 234.533 12.3518 234.837 12.2432C235.18 12.1207 235.217 12.1615 234.742 12.2135C234.305 12.2613 233.632 12.2979 232.67 12.2894L232.582 22.2891ZM240.145 19.4531H250.145C250.145 16.4145 249.004 13.6048 247.035 11.4489C245.264 9.51086 243.191 8.48825 241.668 7.9253C238.733 6.84016 235.44 6.5989 232.67 6.5746L232.582 16.5742L232.494 26.5738C233.441 26.5821 234.112 26.6316 234.553 26.6884C235.029 26.7497 235.028 26.7933 234.732 26.6841C234.488 26.5938 233.387 26.162 232.269 24.9383C230.952 23.4968 230.145 21.525 230.145 19.4531H240.145Z" fill="white" mask="url(#path-1-outside-1_6524_1751)"/>
</g>
<defs>
<filter id="filter0_d_6524_1751" x="0" y="0" width="264.715" height="67.918" filterUnits="userSpaceOnUse" color-interpolation-filters="sRGB">
<feFlood flood-opacity="0" result="BackgroundImageFix"/>
<feColorMatrix in="SourceAlpha" type="matrix" values="0 0 0 0 0 0 0 0 0 0 0 0 0 0 0 0 0 0 127 0" result="hardAlpha"/>
<feOffset dy="4"/>
<feGaussianBlur stdDeviation="2"/>
<feComposite in2="hardAlpha" operator="out"/>
<feColorMatrix type="matrix" values="0 0 0 0 0 0 0 0 0 0 0 0 0 0 0 0 0 0 0.07 0"/>
<feBlend mode="normal" in2="BackgroundImageFix" result="effect1_dropShadow_6524_1751"/>
<feBlend mode="normal" in="SourceGraphic" in2="effect1_dropShadow_6524_1751" result="shape"/>
</filter>
</defs>
</svg>
