<svg width="177" height="69" viewBox="0 0 177 69" fill="none" xmlns="http://www.w3.org/2000/svg">
<g filter="url(#filter0_d_6524_1911)">
<mask id="path-1-outside-1_6524_1911" maskUnits="userSpaceOnUse" x="3.09766" y="-0.207031" width="170" height="61" fill="black">
<rect fill="white" x="3.09766" y="-0.207031" width="170" height="61"/>
<path d="M46.3125 12.0625V15.6719C46.3125 18.8301 46.3125 22.2891 45.582 26.543H50.3086V31.957H41.8867V40.0352H35.1836V31.957H32.7773V40.0352H25.9883V31.957H14L14 26.543H38.6641C39.2656 22.998 39.373 20.1191 39.4375 17.3906H18.2109V12.0625L46.3125 12.0625ZM47.3867 43.9883V49.4883H17.5234V36.2109H24.3984V43.9883H47.3867ZM73.9414 13.5234V18.8945H52.1562V13.5234H59.9766V10H66.8516V13.5234H73.9414ZM63.3281 19.7539C68.8711 19.7969 72.9531 22.8906 72.9531 27.2734C72.9531 31.7422 68.8711 34.707 63.3281 34.707C57.7852 34.707 53.7891 31.7422 53.832 27.2734C53.7891 22.8906 57.7852 19.7969 63.3281 19.7539ZM63.3281 24.8672C61.4375 24.8672 60.2344 25.5977 60.2344 27.2734C60.2344 28.9922 61.4375 29.6797 63.3281 29.6367C65.2188 29.6797 66.5938 28.9922 66.5938 27.2734C66.5938 25.5977 65.2188 24.8672 63.3281 24.8672ZM85.8438 10.3008V35.4375H78.9688V32.043H74.5859V26.5859L78.9688 26.5859V23.9648L74.6719 23.9648V18.5078L78.9688 18.5078V10.3008H85.8438ZM72.0938 35.9102C80.6445 35.9102 86.0156 38.6172 86.0586 43.043C86.0156 47.4258 80.6445 50.1328 72.0938 50.1328C63.543 50.1328 58.1719 47.4258 58.1719 43.043C58.1719 38.6172 63.543 35.9102 72.0938 35.9102ZM72.0938 41.1094C67.625 41.1094 65.4336 41.625 65.4766 43.043C65.4336 44.418 67.625 44.9766 72.0938 44.9766C76.4766 44.9766 78.625 44.418 78.625 43.043C78.625 41.625 76.4766 41.1094 72.0938 41.1094ZM113.086 12.2344V17.6484H105.867C106.211 21.666 108.51 25.791 114.504 27.7461L111.195 33.0312C106.92 31.7637 104.084 29.207 102.387 25.9844C100.625 29.5508 97.6602 32.4082 93.1055 33.7617L89.582 28.3477C95.9844 26.4355 98.3262 21.8809 98.7344 17.6484H91.4727V12.2344L113.086 12.2344ZM123.871 35.4375V50.0469H116.996V40.8945H96.2422V35.4375H123.871ZM123.871 10.3008V33.9336H116.996V24.9102H112.055V19.3242H116.996V10.3008H123.871ZM161.598 10.3867V38.6172H154.68V10.3867H161.598ZM162.543 43.9883V49.4883L134.398 49.4883V35.7812L141.359 35.7812V43.9883H162.543ZM139.641 12.75C145.828 12.75 150.77 17.0469 150.77 22.9336C150.77 28.9492 145.828 33.2031 139.641 33.2031C133.453 33.2031 128.469 28.9492 128.512 22.9336C128.469 17.0469 133.453 12.75 139.641 12.75ZM139.641 18.7227C137.105 18.7227 135.215 20.1406 135.215 22.9336C135.215 25.8555 137.105 27.2305 139.641 27.2305C142.047 27.2305 143.938 25.8555 143.938 22.9336C143.938 20.1406 142.047 18.7227 139.641 18.7227Z"/>
</mask>
<path d="M46.3125 12.0625V15.6719C46.3125 18.8301 46.3125 22.2891 45.582 26.543H50.3086V31.957H41.8867V40.0352H35.1836V31.957H32.7773V40.0352H25.9883V31.957H14L14 26.543H38.6641C39.2656 22.998 39.373 20.1191 39.4375 17.3906H18.2109V12.0625L46.3125 12.0625ZM47.3867 43.9883V49.4883H17.5234V36.2109H24.3984V43.9883H47.3867ZM73.9414 13.5234V18.8945H52.1562V13.5234H59.9766V10H66.8516V13.5234H73.9414ZM63.3281 19.7539C68.8711 19.7969 72.9531 22.8906 72.9531 27.2734C72.9531 31.7422 68.8711 34.707 63.3281 34.707C57.7852 34.707 53.7891 31.7422 53.832 27.2734C53.7891 22.8906 57.7852 19.7969 63.3281 19.7539ZM63.3281 24.8672C61.4375 24.8672 60.2344 25.5977 60.2344 27.2734C60.2344 28.9922 61.4375 29.6797 63.3281 29.6367C65.2188 29.6797 66.5938 28.9922 66.5938 27.2734C66.5938 25.5977 65.2188 24.8672 63.3281 24.8672ZM85.8438 10.3008V35.4375H78.9688V32.043H74.5859V26.5859L78.9688 26.5859V23.9648L74.6719 23.9648V18.5078L78.9688 18.5078V10.3008H85.8438ZM72.0938 35.9102C80.6445 35.9102 86.0156 38.6172 86.0586 43.043C86.0156 47.4258 80.6445 50.1328 72.0938 50.1328C63.543 50.1328 58.1719 47.4258 58.1719 43.043C58.1719 38.6172 63.543 35.9102 72.0938 35.9102ZM72.0938 41.1094C67.625 41.1094 65.4336 41.625 65.4766 43.043C65.4336 44.418 67.625 44.9766 72.0938 44.9766C76.4766 44.9766 78.625 44.418 78.625 43.043C78.625 41.625 76.4766 41.1094 72.0938 41.1094ZM113.086 12.2344V17.6484H105.867C106.211 21.666 108.51 25.791 114.504 27.7461L111.195 33.0312C106.92 31.7637 104.084 29.207 102.387 25.9844C100.625 29.5508 97.6602 32.4082 93.1055 33.7617L89.582 28.3477C95.9844 26.4355 98.3262 21.8809 98.7344 17.6484H91.4727V12.2344L113.086 12.2344ZM123.871 35.4375V50.0469H116.996V40.8945H96.2422V35.4375H123.871ZM123.871 10.3008V33.9336H116.996V24.9102H112.055V19.3242H116.996V10.3008H123.871ZM161.598 10.3867V38.6172H154.68V10.3867H161.598ZM162.543 43.9883V49.4883L134.398 49.4883V35.7812L141.359 35.7812V43.9883H162.543ZM139.641 12.75C145.828 12.75 150.77 17.0469 150.77 22.9336C150.77 28.9492 145.828 33.2031 139.641 33.2031C133.453 33.2031 128.469 28.9492 128.512 22.9336C128.469 17.0469 133.453 12.75 139.641 12.75ZM139.641 18.7227C137.105 18.7227 135.215 20.1406 135.215 22.9336C135.215 25.8555 137.105 27.2305 139.641 27.2305C142.047 27.2305 143.938 25.8555 143.938 22.9336C143.938 20.1406 142.047 18.7227 139.641 18.7227Z" fill="#11DCA9"/>
<path d="M46.3125 12.0625H56.3125C56.3125 6.53965 51.8353 2.0625 46.3125 2.0625V12.0625ZM45.582 26.543L35.7263 24.8506C35.2273 27.7561 36.0359 30.7338 37.936 32.988C39.836 35.2421 42.6339 36.543 45.582 36.543V26.543ZM50.3086 26.543H60.3086C60.3086 21.0201 55.8314 16.543 50.3086 16.543V26.543ZM50.3086 31.957V41.957C55.8314 41.957 60.3086 37.4799 60.3086 31.957H50.3086ZM41.8867 31.957V21.957C36.3639 21.957 31.8867 26.4342 31.8867 31.957H41.8867ZM41.8867 40.0352V50.0352C47.4096 50.0352 51.8867 45.558 51.8867 40.0352H41.8867ZM35.1836 40.0352H25.1836C25.1836 45.558 29.6607 50.0352 35.1836 50.0352V40.0352ZM35.1836 31.957H45.1836C45.1836 26.4342 40.7064 21.957 35.1836 21.957V31.957ZM32.7773 31.957V21.957C27.2545 21.957 22.7773 26.4342 22.7773 31.957H32.7773ZM32.7773 40.0352V50.0352C38.3002 50.0352 42.7773 45.558 42.7773 40.0352H32.7773ZM25.9883 40.0352H15.9883C15.9883 45.558 20.4654 50.0352 25.9883 50.0352V40.0352ZM25.9883 31.957H35.9883C35.9883 26.4342 31.5111 21.957 25.9883 21.957V31.957ZM14 31.957H4C4 37.4799 8.47715 41.957 14 41.957V31.957ZM14 26.543V16.543C8.47715 16.543 4 21.0201 4 26.543H14ZM38.6641 26.543V36.543C43.5413 36.543 47.7071 33.0245 48.5231 28.216L38.6641 26.543ZM39.4375 17.3906L49.4347 17.6268C49.4983 14.9344 48.4733 12.3302 46.5916 10.4035C44.7099 8.47688 42.1306 7.39062 39.4375 7.39062V17.3906ZM18.2109 17.3906H8.21094C8.21094 22.9135 12.6881 27.3906 18.2109 27.3906V17.3906ZM18.2109 12.0625V2.0625C12.6881 2.0625 8.21094 6.53965 8.21094 12.0625H18.2109ZM47.3867 43.9883H57.3867C57.3867 38.4654 52.9096 33.9883 47.3867 33.9883V43.9883ZM47.3867 49.4883V59.4883C52.9096 59.4883 57.3867 55.0111 57.3867 49.4883H47.3867ZM17.5234 49.4883H7.52344C7.52344 55.0111 12.0006 59.4883 17.5234 59.4883V49.4883ZM17.5234 36.2109V26.2109C12.0006 26.2109 7.52344 30.6881 7.52344 36.2109H17.5234ZM24.3984 36.2109H34.3984C34.3984 30.6881 29.9213 26.2109 24.3984 26.2109V36.2109ZM24.3984 43.9883H14.3984C14.3984 49.5111 18.8756 53.9883 24.3984 53.9883V43.9883ZM46.3125 12.0625L36.3125 12.0625V15.6719H46.3125H56.3125V12.0625H46.3125ZM46.3125 15.6719H36.3125C36.3125 18.8104 36.299 21.5154 35.7263 24.8506L45.582 26.543L55.4378 28.2354C56.326 23.0628 56.3125 18.8498 56.3125 15.6719H46.3125ZM45.582 26.543V36.543H50.3086V26.543V16.543H45.582V26.543ZM50.3086 26.543H40.3086V31.957H50.3086H60.3086V26.543H50.3086ZM50.3086 31.957V21.957H41.8867V31.957V41.957H50.3086V31.957ZM41.8867 31.957H31.8867V40.0352H41.8867H51.8867V31.957H41.8867ZM41.8867 40.0352V30.0352H35.1836V40.0352V50.0352H41.8867V40.0352ZM35.1836 40.0352H45.1836V31.957H35.1836H25.1836V40.0352H35.1836ZM35.1836 31.957V21.957H32.7773V31.957V41.957H35.1836V31.957ZM32.7773 31.957H22.7773V40.0352H32.7773H42.7773V31.957H32.7773ZM32.7773 40.0352V30.0352H25.9883V40.0352V50.0352H32.7773V40.0352ZM25.9883 40.0352H35.9883V31.957H25.9883H15.9883L15.9883 40.0352H25.9883ZM25.9883 31.957V21.957H14L14 31.957V41.957H25.9883V31.957ZM14 31.957H24V26.543H14H4L4 31.957H14ZM14 26.543L14 36.543H38.6641V26.543V16.543H14V26.543ZM38.6641 26.543L48.5231 28.216C49.2482 23.9432 49.3672 20.4848 49.4347 17.6268L39.4375 17.3906L29.4403 17.1545C29.3789 19.7535 29.2831 22.0529 28.805 24.8699L38.6641 26.543ZM39.4375 17.3906V7.39062H18.2109V17.3906V27.3906H39.4375V17.3906ZM18.2109 17.3906H28.2109V12.0625H18.2109H8.21094V17.3906H18.2109ZM18.2109 12.0625V22.0625H46.3125V12.0625V2.0625L18.2109 2.0625V12.0625ZM47.3867 43.9883H37.3867V49.4883H47.3867H57.3867V43.9883H47.3867ZM47.3867 49.4883V39.4883H17.5234V49.4883V59.4883H47.3867V49.4883ZM17.5234 49.4883H27.5234V36.2109H17.5234H7.52344L7.52344 49.4883H17.5234ZM17.5234 36.2109V46.2109H24.3984V36.2109V26.2109H17.5234V36.2109ZM24.3984 36.2109H14.3984V43.9883H24.3984H34.3984V36.2109H24.3984ZM24.3984 43.9883V53.9883H47.3867V43.9883V33.9883H24.3984V43.9883ZM73.9414 13.5234L83.9414 13.5234C83.9414 8.00059 79.4643 3.52344 73.9414 3.52344V13.5234ZM73.9414 18.8945V28.8945C79.4643 28.8945 83.9414 24.4174 83.9414 18.8945L73.9414 18.8945ZM52.1562 18.8945H42.1562C42.1562 24.4174 46.6334 28.8945 52.1562 28.8945V18.8945ZM52.1562 13.5234V3.52344C46.6334 3.52344 42.1562 8.00059 42.1562 13.5234H52.1562ZM59.9766 13.5234V23.5234C65.4994 23.5234 69.9766 19.0463 69.9766 13.5234H59.9766ZM59.9766 10V0C54.4537 0 49.9766 4.47715 49.9766 10H59.9766ZM66.8516 10H76.8516C76.8516 4.47715 72.3744 0 66.8516 0V10ZM66.8516 13.5234H56.8516C56.8516 19.0463 61.3287 23.5234 66.8516 23.5234V13.5234ZM63.3281 19.7539L63.4056 9.75421C63.354 9.75381 63.3023 9.75381 63.2506 9.75421L63.3281 19.7539ZM53.832 27.2734L63.8316 27.3696C63.8322 27.3049 63.8322 27.2401 63.8316 27.1754L53.832 27.2734ZM63.3281 29.6367L63.5553 19.6393C63.4039 19.6359 63.2524 19.6359 63.1009 19.6393L63.3281 29.6367ZM85.8438 10.3008H95.8438C95.8438 4.77793 91.3666 0.300781 85.8438 0.300781V10.3008ZM85.8438 35.4375V45.4375C91.3666 45.4375 95.8438 40.9603 95.8438 35.4375H85.8438ZM78.9688 35.4375H68.9688C68.9688 40.9603 73.4459 45.4375 78.9688 45.4375V35.4375ZM78.9688 32.043H88.9688C88.9688 26.5201 84.4916 22.043 78.9688 22.043V32.043ZM74.5859 32.043H64.5859C64.5859 37.5658 69.0631 42.043 74.5859 42.043V32.043ZM74.5859 26.5859V16.5859C69.0631 16.5859 64.5859 21.0631 64.5859 26.5859H74.5859ZM78.9688 26.5859V36.5859C84.4916 36.5859 88.9688 32.1088 88.9688 26.5859H78.9688ZM78.9688 23.9648H88.9688C88.9688 18.442 84.4916 13.9648 78.9688 13.9648V23.9648ZM74.6719 23.9648H64.6719C64.6719 29.4877 69.149 33.9648 74.6719 33.9648V23.9648ZM74.6719 18.5078V8.50781C69.149 8.50781 64.6719 12.985 64.6719 18.5078H74.6719ZM78.9688 18.5078V28.5078C84.4916 28.5078 88.9688 24.0307 88.9688 18.5078H78.9688ZM78.9688 10.3008V0.300781C73.4459 0.300781 68.9688 4.77793 68.9688 10.3008H78.9688ZM86.0586 43.043L96.0581 43.141C96.0588 43.076 96.0588 43.0109 96.0581 42.9459L86.0586 43.043ZM65.4766 43.043L75.4717 43.3553C75.4781 43.1503 75.4782 42.9451 75.472 42.7401L65.4766 43.043ZM73.9414 13.5234H63.9414V18.8945H73.9414L83.9414 18.8945V13.5234L73.9414 13.5234ZM73.9414 18.8945V8.89453H52.1562V18.8945V28.8945H73.9414V18.8945ZM52.1562 18.8945H62.1562V13.5234H52.1562H42.1562V18.8945H52.1562ZM52.1562 13.5234V23.5234H59.9766V13.5234V3.52344H52.1562V13.5234ZM59.9766 13.5234H69.9766V10H59.9766H49.9766V13.5234H59.9766ZM59.9766 10V20H66.8516V10V0H59.9766V10ZM66.8516 10H56.8516V13.5234H66.8516H76.8516V10H66.8516ZM66.8516 13.5234V23.5234H73.9414V13.5234V3.52344H66.8516V13.5234ZM63.3281 19.7539L63.2506 29.7536C64.2632 29.7615 64.4273 30.0488 64.097 29.7931C63.912 29.6498 63.6059 29.3511 63.3471 28.8509C63.0786 28.3319 62.9531 27.7705 62.9531 27.2734H72.9531L82.9531 27.2734C82.9531 15.1162 71.8379 9.81957 63.4056 9.75421L63.3281 19.7539ZM72.9531 27.2734H62.9531C62.9531 26.8277 63.0651 26.2695 63.3485 25.7222C63.6231 25.1919 63.9576 24.8643 64.1754 24.6991C64.5598 24.4075 64.4153 24.707 63.3281 24.707V34.707V44.707C67.7839 44.707 72.4519 43.5242 76.2631 40.6329C80.2653 37.5968 82.9531 32.8829 82.9531 27.2734L72.9531 27.2734ZM63.3281 34.707V24.707C62.2398 24.707 62.152 24.408 62.5898 24.7454C62.834 24.9336 63.1798 25.2853 63.4545 25.8322C63.7363 26.3932 63.8356 26.9478 63.8316 27.3696L53.832 27.2734L43.8325 27.1773C43.779 32.7399 46.3682 37.494 50.3809 40.5866C54.1918 43.5237 58.8735 44.707 63.3281 44.707V34.707ZM53.832 27.2734L63.8316 27.1754C63.8362 27.6491 63.7235 28.2076 63.4558 28.7409C63.1964 29.2578 62.8787 29.5802 62.668 29.7459C62.285 30.0472 62.3934 29.7615 63.4056 29.7536L63.3281 19.7539L63.2506 9.75421C54.7329 9.82024 43.7133 15.2086 43.8325 27.3715L53.832 27.2734ZM63.3281 24.8672V14.8672C61.3548 14.8672 58.1351 15.205 55.1762 17.365C51.6813 19.9163 50.2344 23.7423 50.2344 27.2734H60.2344H70.2344C70.2344 28.0534 70.0914 29.1851 69.5091 30.4292C68.9078 31.7141 68.0018 32.7644 66.9684 33.5188C65.0836 34.8946 63.4108 34.8672 63.3281 34.8672V24.8672ZM60.2344 27.2734H50.2344C50.2344 30.7382 51.6266 34.6735 55.283 37.2696C58.3436 39.4426 61.6445 39.6776 63.5553 39.6341L63.3281 29.6367L63.1009 19.6393C63.1211 19.6388 64.8751 19.5516 66.8615 20.9619C67.9606 21.7423 68.9025 22.8331 69.5163 24.1504C70.105 25.4139 70.2344 26.5425 70.2344 27.2734H60.2344ZM63.3281 29.6367L63.1009 39.6341C65.0452 39.6783 68.1925 39.4247 71.1632 37.4718C74.7574 35.1089 76.5938 31.2511 76.5938 27.2734H66.5938H56.5938C56.5938 26.3503 56.786 25.0929 57.4724 23.7695C58.1698 22.4251 59.1642 21.4252 60.1766 20.7597C61.9872 19.5694 63.5017 19.6381 63.5553 19.6393L63.3281 29.6367ZM66.5938 27.2734H76.5938C76.5938 23.2351 74.6997 19.4752 71.2699 17.157C68.3943 15.2133 65.3206 14.8672 63.3281 14.8672V24.8672V34.8672C63.2263 34.8672 61.7854 34.8864 60.0699 33.7268C59.1189 33.084 58.1628 32.12 57.4807 30.8108C56.8032 29.5104 56.5938 28.2498 56.5938 27.2734H66.5938ZM85.8438 10.3008H75.8438V35.4375H85.8438H95.8438V10.3008H85.8438ZM85.8438 35.4375V25.4375H78.9688V35.4375V45.4375H85.8438V35.4375ZM78.9688 35.4375H88.9688V32.043H78.9688H68.9688V35.4375H78.9688ZM78.9688 32.043V22.043L74.5859 22.043V32.043V42.043H78.9688V32.043ZM74.5859 32.043H84.5859V26.5859L74.5859 26.5859H64.5859V32.043H74.5859ZM74.5859 26.5859V36.5859H78.9688V26.5859V16.5859L74.5859 16.5859V26.5859ZM78.9688 26.5859H88.9688V23.9648H78.9688L68.9688 23.9648V26.5859L78.9688 26.5859ZM78.9688 23.9648V13.9648L74.6719 13.9648V23.9648V33.9648H78.9688V23.9648ZM74.6719 23.9648L84.6719 23.9648V18.5078L74.6719 18.5078H64.6719V23.9648H74.6719ZM74.6719 18.5078V28.5078L78.9688 28.5078V18.5078V8.50781H74.6719V18.5078ZM78.9688 18.5078H88.9688V10.3008H78.9688H68.9688V18.5078L78.9688 18.5078ZM78.9688 10.3008V20.3008H85.8438V10.3008V0.300781L78.9688 0.300781V10.3008ZM72.0938 35.9102V45.9102C73.7204 45.9102 75.0258 46.0402 76.0179 46.2279C77.0302 46.4195 77.5576 46.6409 77.7312 46.7293C77.9095 46.82 77.4958 46.6546 76.9998 45.979C76.4326 45.2064 76.0691 44.1785 76.0591 43.1401L86.0586 43.043L96.0581 42.9459C95.9894 35.8641 91.3826 31.2356 86.802 28.9045C82.4489 26.6893 77.2159 25.9102 72.0938 25.9102V35.9102ZM86.0586 43.043L76.0591 42.9449C76.0696 41.8734 76.4472 40.8296 77.0194 40.0555C77.5188 39.3799 77.9318 39.2174 77.747 39.3111C77.5686 39.4015 77.0364 39.6234 76.0216 39.815C75.0271 40.0028 73.7202 40.1328 72.0938 40.1328V50.1328V60.1328C77.2181 60.1328 82.442 59.3529 86.7862 57.1518C91.3365 54.8464 95.9885 50.2401 96.0581 43.141L86.0586 43.043ZM72.0938 50.1328V40.1328C70.4671 40.1328 69.1605 40.0028 68.1673 39.8151C67.1532 39.6236 66.6256 39.4023 66.4539 39.3151C66.2753 39.2244 66.7035 39.396 67.2129 40.0918C67.7972 40.8897 68.1719 41.9578 68.1719 43.043H58.1719H48.1719C48.1719 50.1898 52.842 54.8339 57.3986 57.1477C61.7431 59.3539 66.9725 60.1328 72.0938 60.1328V50.1328ZM58.1719 43.043H68.1719C68.1719 44.0947 67.8114 45.1464 67.2323 45.9427C66.7264 46.6384 66.2976 46.813 66.4697 46.7252C66.6366 46.64 67.1594 46.4193 68.171 46.2278C69.1618 46.0402 70.4669 45.9102 72.0938 45.9102V35.9102V25.9102C66.9747 25.9102 61.7362 26.6883 57.3829 28.9086C52.7954 31.2483 48.1719 35.9145 48.1719 43.043H58.1719ZM72.0938 41.1094V31.1094C69.7718 31.1094 66.9267 31.2114 64.4144 31.9099C63.1576 32.2594 61.0226 33.0081 59.0926 34.7841C56.7801 36.912 55.3788 39.9678 55.4812 43.3459L65.4766 43.043L75.472 42.7401C75.507 43.8968 75.3121 45.2028 74.7493 46.5093C74.1908 47.8056 73.4031 48.7947 72.6353 49.5012C71.2438 50.7817 69.9278 51.1356 69.7721 51.1789C69.462 51.2652 69.947 51.1094 72.0938 51.1094V41.1094ZM65.4766 43.043L55.4814 42.7306C55.3731 46.1968 56.8527 49.2395 59.1226 51.3112C61.0245 53.0471 63.1205 53.7939 64.3709 54.1477C66.8838 54.8587 69.7229 54.9766 72.0938 54.9766V44.9766V34.9766C69.9959 34.9766 69.5048 34.8152 69.8157 34.9031C69.9649 34.9453 71.2419 35.2947 72.6053 36.5391C73.3574 37.2255 74.1504 38.2008 74.7203 39.4978C75.2978 40.8119 75.5095 42.1466 75.4717 43.3553L65.4766 43.043ZM72.0938 44.9766V54.9766C74.431 54.9766 77.2508 54.8583 79.7627 54.137C81.0261 53.7743 83.0813 53.0237 84.953 51.3196C87.1555 49.3144 88.625 46.3968 88.625 43.043H78.625H68.625C68.625 41.8718 68.8632 40.5986 69.4333 39.3546C69.9965 38.1258 70.7595 37.1946 71.4886 36.5308C72.8205 35.3181 74.0647 34.965 74.2432 34.9137C74.5852 34.8156 74.1393 34.9766 72.0938 34.9766V44.9766ZM78.625 43.043H88.625C88.625 39.7697 87.2276 36.836 84.983 34.7757C83.0831 33.0317 80.9891 32.2787 79.7187 31.9203C77.2071 31.2115 74.3811 31.1094 72.0938 31.1094V41.1094V51.1094C74.1892 51.1094 74.6288 51.265 74.2872 51.1686C74.1017 51.1163 72.8188 50.7581 71.4586 49.5096C70.7139 48.826 69.955 47.8807 69.4025 46.6511C68.8459 45.4123 68.625 44.1648 68.625 43.043H78.625ZM113.086 12.2344H123.086C123.086 6.71153 118.609 2.23437 113.086 2.23437V12.2344ZM113.086 17.6484V27.6484C118.609 27.6484 123.086 23.1713 123.086 17.6484H113.086ZM105.867 17.6484V7.64844C103.067 7.64844 100.395 8.82265 98.5009 10.8855C96.607 12.9483 95.6649 15.7108 95.9036 18.5009L105.867 17.6484ZM114.504 27.7461L122.98 33.0523C124.613 30.4436 124.954 27.2282 123.904 24.3351C122.854 21.4419 120.531 19.1934 117.605 18.239L114.504 27.7461ZM111.195 33.0312L108.353 42.6187C112.659 43.8955 117.288 42.1445 119.671 38.3374L111.195 33.0312ZM102.387 25.9844L111.235 21.3245C109.483 17.9991 106.015 15.9365 102.257 15.9852C98.4989 16.034 95.0855 18.1858 93.4209 21.5555L102.387 25.9844ZM93.1055 33.7617L84.7241 39.2163C87.1397 42.9281 91.7089 44.6089 95.954 43.3474L93.1055 33.7617ZM89.582 28.3477L86.7204 18.7659C83.6995 19.6681 81.281 21.942 80.1946 24.9016C79.1081 27.8612 79.481 31.1598 81.2006 33.8022L89.582 28.3477ZM98.7344 17.6484L108.688 18.6084C108.959 15.8023 108.032 13.0123 106.137 10.9253C104.242 8.8384 101.554 7.64844 98.7344 7.64844V17.6484ZM91.4727 17.6484H81.4727C81.4727 23.1713 85.9498 27.6484 91.4727 27.6484V17.6484ZM91.4727 12.2344V2.23437C85.9498 2.23437 81.4727 6.71153 81.4727 12.2344H91.4727ZM123.871 35.4375H133.871C133.871 29.9147 129.394 25.4375 123.871 25.4375V35.4375ZM123.871 50.0469V60.0469C129.394 60.0469 133.871 55.5697 133.871 50.0469H123.871ZM116.996 50.0469H106.996C106.996 55.5697 111.473 60.0469 116.996 60.0469V50.0469ZM116.996 40.8945H126.996C126.996 35.3717 122.519 30.8945 116.996 30.8945V40.8945ZM96.2422 40.8945H86.2422C86.2422 46.4174 90.7193 50.8945 96.2422 50.8945V40.8945ZM96.2422 35.4375V25.4375C90.7193 25.4375 86.2422 29.9147 86.2422 35.4375H96.2422ZM123.871 10.3008H133.871C133.871 4.77793 129.394 0.300781 123.871 0.300781V10.3008ZM123.871 33.9336V43.9336C129.394 43.9336 133.871 39.4564 133.871 33.9336H123.871ZM116.996 33.9336H106.996C106.996 39.4564 111.473 43.9336 116.996 43.9336V33.9336ZM116.996 24.9102H126.996C126.996 19.3873 122.519 14.9102 116.996 14.9102V24.9102ZM112.055 24.9102H102.055C102.055 30.433 106.532 34.9102 112.055 34.9102V24.9102ZM112.055 19.3242V9.32422C106.532 9.32422 102.055 13.8014 102.055 19.3242H112.055ZM116.996 19.3242V29.3242C122.519 29.3242 126.996 24.8471 126.996 19.3242H116.996ZM116.996 10.3008V0.300781C111.473 0.300781 106.996 4.77793 106.996 10.3008L116.996 10.3008ZM113.086 12.2344L103.086 12.2344V17.6484H113.086H123.086V12.2344H113.086ZM113.086 17.6484V7.64844L105.867 7.64844V17.6484V27.6484H113.086V17.6484ZM105.867 17.6484L95.9036 18.5009C96.2124 22.11 97.4317 26.0449 100.139 29.5661C102.879 33.1293 106.728 35.7284 111.403 37.2532L114.504 27.7461L117.605 18.239C116.916 18.0145 116.515 17.7873 116.303 17.643C116.097 17.5028 116.018 17.406 115.994 17.3753C115.968 17.3408 115.866 17.2045 115.831 16.7959L105.867 17.6484ZM114.504 27.7461L106.028 22.4399L102.719 27.7251L111.195 33.0312L119.671 38.3374L122.98 33.0523L114.504 27.7461ZM111.195 33.0312L114.038 23.4438C113.105 23.1671 112.542 22.8193 112.187 22.5262C111.828 22.2303 111.512 21.8508 111.235 21.3245L102.387 25.9844L93.5388 30.6443C96.4751 36.2195 101.459 40.5748 108.353 42.6187L111.195 33.0312ZM102.387 25.9844L93.4209 21.5555C92.7957 22.8212 91.9426 23.6751 90.2569 24.176L93.1055 33.7617L95.954 43.3474C103.378 41.1413 108.454 36.2804 111.352 30.4132L102.387 25.9844ZM93.1055 33.7617L101.487 28.3072L97.9634 22.8931L89.582 28.3477L81.2006 33.8022L84.7241 39.2163L93.1055 33.7617ZM89.582 28.3477L92.4437 37.9295C97.5144 36.4151 101.566 33.6377 104.392 29.8861C107.152 26.2239 108.345 22.1716 108.688 18.6084L98.7344 17.6484L88.7806 16.6884C88.716 17.3577 88.5335 17.699 88.4195 17.8502C88.362 17.9265 88.2602 18.0411 88.0518 18.1821C87.838 18.3268 87.4303 18.5538 86.7204 18.7659L89.582 28.3477ZM98.7344 17.6484V7.64844H91.4727V17.6484V27.6484H98.7344V17.6484ZM91.4727 17.6484H101.473V12.2344H91.4727H81.4727V17.6484H91.4727ZM91.4727 12.2344V22.2344H113.086V12.2344V2.23437L91.4727 2.23437V12.2344ZM123.871 35.4375H113.871V50.0469H123.871H133.871V35.4375H123.871ZM123.871 50.0469V40.0469H116.996V50.0469V60.0469H123.871V50.0469ZM116.996 50.0469H126.996V40.8945H116.996H106.996V50.0469H116.996ZM116.996 40.8945V30.8945H96.2422V40.8945V50.8945H116.996V40.8945ZM96.2422 40.8945H106.242V35.4375H96.2422H86.2422V40.8945H96.2422ZM96.2422 35.4375V45.4375H123.871V35.4375V25.4375H96.2422V35.4375ZM123.871 10.3008H113.871V33.9336H123.871H133.871V10.3008H123.871ZM123.871 33.9336V23.9336H116.996V33.9336V43.9336H123.871V33.9336ZM116.996 33.9336H126.996V24.9102H116.996H106.996V33.9336H116.996ZM116.996 24.9102V14.9102H112.055V24.9102V34.9102H116.996V24.9102ZM112.055 24.9102H122.055V19.3242H112.055H102.055V24.9102H112.055ZM112.055 19.3242V29.3242H116.996V19.3242V9.32422H112.055V19.3242ZM116.996 19.3242H126.996V10.3008H116.996L106.996 10.3008V19.3242H116.996ZM116.996 10.3008V20.3008H123.871V10.3008V0.300781L116.996 0.300781V10.3008ZM161.598 10.3867H171.598C171.598 4.86387 167.12 0.386719 161.598 0.386719V10.3867ZM161.598 38.6172V48.6172C167.12 48.6172 171.598 44.14 171.598 38.6172H161.598ZM154.68 38.6172H144.68C144.68 44.14 149.157 48.6172 154.68 48.6172V38.6172ZM154.68 10.3867V0.386719C149.157 0.386719 144.68 4.86387 144.68 10.3867H154.68ZM162.543 43.9883H172.543C172.543 38.4654 168.066 33.9883 162.543 33.9883V43.9883ZM162.543 49.4883V59.4883C168.066 59.4883 172.543 55.0111 172.543 49.4883H162.543ZM134.398 49.4883H124.398C124.398 55.0111 128.876 59.4883 134.398 59.4883V49.4883ZM134.398 35.7812V25.7812C128.876 25.7812 124.398 30.2584 124.398 35.7812H134.398ZM141.359 35.7812H151.359C151.359 30.2584 146.882 25.7812 141.359 25.7812V35.7812ZM141.359 43.9883L131.359 43.9883C131.359 49.5111 135.837 53.9883 141.359 53.9883V43.9883ZM128.512 22.9336L138.511 23.005C138.512 22.9569 138.512 22.9087 138.511 22.8606L128.512 22.9336ZM161.598 10.3867H151.598V38.6172H161.598H171.598V10.3867H161.598ZM161.598 38.6172V28.6172H154.68V38.6172V48.6172H161.598V38.6172ZM154.68 38.6172H164.68V10.3867H154.68H144.68V38.6172H154.68ZM154.68 10.3867V20.3867H161.598V10.3867V0.386719H154.68V10.3867ZM162.543 43.9883H152.543V49.4883H162.543H172.543V43.9883H162.543ZM162.543 49.4883V39.4883L134.398 39.4883V49.4883V59.4883L162.543 59.4883V49.4883ZM134.398 49.4883L144.398 49.4883V35.7812L134.398 35.7812H124.398V49.4883H134.398ZM134.398 35.7812V45.7812L141.359 45.7812V35.7812V25.7812H134.398V35.7812ZM141.359 35.7812L131.359 35.7812V43.9883L141.359 43.9883H151.359V35.7812H141.359ZM141.359 43.9883V53.9883H162.543V43.9883V33.9883H141.359V43.9883ZM139.641 12.75V22.75C140.427 22.75 140.778 23.0153 140.831 23.0633C140.857 23.0864 140.83 23.0686 140.799 23.0003C140.764 22.9233 140.77 22.8828 140.77 22.9336H150.77H160.77C160.77 10.5696 150.346 2.75 139.641 2.75V12.75ZM150.77 22.9336H140.77C140.77 23.0475 140.751 23.0407 140.781 22.9736C140.808 22.9139 140.836 22.8913 140.82 22.9051C140.79 22.933 140.452 23.2031 139.641 23.2031V33.2031V43.2031C150.375 43.2031 160.77 35.4002 160.77 22.9336H150.77ZM139.641 33.2031V23.2031C138.823 23.2031 138.471 22.9284 138.435 22.8962C138.42 22.8824 138.454 22.9109 138.488 22.9859C138.525 23.0694 138.511 23.0969 138.511 23.005L128.512 22.9336L118.512 22.8622C118.422 35.4477 128.979 43.2031 139.641 43.2031V33.2031ZM128.512 22.9336L138.511 22.8606C138.511 22.8325 138.513 22.8944 138.47 22.988C138.432 23.0716 138.398 23.0953 138.424 23.0721C138.482 23.0199 138.848 22.75 139.641 22.75V12.75V2.75C129.01 2.75 118.421 10.5216 118.512 23.0066L128.512 22.9336ZM139.641 18.7227V8.72266C136.591 8.72266 132.891 9.58178 129.824 12.3151C126.587 15.1997 125.215 19.1411 125.215 22.9336H135.215H145.215C145.215 23.9331 144.788 25.769 143.13 27.2464C141.642 28.5725 140.155 28.7227 139.641 28.7227V18.7227ZM135.215 22.9336H125.215C125.215 26.6622 126.503 30.6618 129.796 33.6182C132.915 36.4189 136.663 37.2305 139.641 37.2305V27.2305V17.2305C140.083 17.2305 141.619 17.3546 143.158 18.7372C144.872 20.2757 145.215 22.1269 145.215 22.9336H135.215ZM139.641 27.2305V37.2305C142.672 37.2305 146.388 36.3547 149.449 33.5493C152.655 30.6097 153.938 26.6576 153.938 22.9336H143.938H133.938C133.938 22.1315 134.274 20.3278 135.934 18.8062C137.448 17.4188 139.015 17.2305 139.641 17.2305V27.2305ZM143.938 22.9336H153.938C153.938 19.1473 152.573 15.2516 149.421 12.3837C146.413 9.64778 142.745 8.72266 139.641 8.72266V18.7227V28.7227C138.943 28.7227 137.423 28.5065 135.962 27.1778C134.357 25.7172 133.938 23.9269 133.938 22.9336H143.938Z" fill="white" mask="url(#path-1-outside-1_6524_1911)"/>
</g>
<defs>
<filter id="filter0_d_6524_1911" x="0" y="0" width="176.543" height="68.1328" filterUnits="userSpaceOnUse" color-interpolation-filters="sRGB">
<feFlood flood-opacity="0" result="BackgroundImageFix"/>
<feColorMatrix in="SourceAlpha" type="matrix" values="0 0 0 0 0 0 0 0 0 0 0 0 0 0 0 0 0 0 127 0" result="hardAlpha"/>
<feOffset dy="4"/>
<feGaussianBlur stdDeviation="2"/>
<feComposite in2="hardAlpha" operator="out"/>
<feColorMatrix type="matrix" values="0 0 0 0 0 0 0 0 0 0 0 0 0 0 0 0 0 0 0.07 0"/>
<feBlend mode="normal" in2="BackgroundImageFix" result="effect1_dropShadow_6524_1911"/>
<feBlend mode="normal" in="SourceGraphic" in2="effect1_dropShadow_6524_1911" result="shape"/>
</filter>
</defs>
</svg>
