<svg width="312" height="68" viewBox="0 0 312 68" fill="none" xmlns="http://www.w3.org/2000/svg">
<g filter="url(#filter0_d_6524_1838)">
<mask id="path-1-outside-1_6524_1838" maskUnits="userSpaceOnUse" x="3.09766" y="-0.378906" width="305" height="61" fill="black">
<rect fill="white" x="3.09766" y="-0.378906" width="305" height="61"/>
<path d="M46.3125 12.2773V15.8438C46.3125 19.1738 46.3125 22.8047 45.5391 27.3164H50.3086V32.7734H14L14 27.3164H38.5352C39.2441 23.5566 39.373 20.6133 39.4375 17.7344H18.3398V12.2773L46.3125 12.2773ZM47.3867 43.8164V49.2734H18.5117V35.6094H25.2578V43.8164H47.3867ZM63.2852 11.5039V14.7695H76.8633V11.5039H83.6953V27.9609L73.5547 27.9609V30.7539H88.293V36.2109H52.0273V30.7539H66.5938V27.9609H56.5391V11.5039H63.2852ZM63.2852 22.5039H76.8633V20.0117H63.2852V22.5039ZM84.082 43.8164V49.3164H56.1953V37.9297H63.1133V43.8164H84.082ZM133.84 10.2148V40.1211H126.965V37.5859H119.746V32.9883H126.965V10.2148H133.84ZM134.699 43.8164V49.3164H104.148V37.2852H109.52V32.5156C106.254 32.6445 103.117 32.6875 100.281 32.6875L99.5078 27.3164C106.77 27.2305 116.48 27.1445 124.816 26.0703L125.16 30.9688C122.303 31.4844 119.359 31.8281 116.438 32.0859V39.4336H111.066V43.8164H134.699ZM112.355 11.375C118.113 11.375 122.324 14.3828 122.367 18.6367C122.324 22.8906 118.113 25.7266 112.355 25.7266C106.469 25.7266 102.301 22.8906 102.301 18.6367C102.301 14.3828 106.469 11.375 112.355 11.375ZM112.355 16.3594C110.25 16.4023 108.832 17.0469 108.832 18.6367C108.832 20.1406 110.25 20.7852 112.355 20.7852C114.375 20.7852 115.793 20.1406 115.793 18.6367C115.793 17.0469 114.375 16.4023 112.355 16.3594ZM171.18 10.2148V38.4453H164.262V10.2148H171.18ZM172.125 43.8164V49.3164H143.98V35.6094H150.941V43.8164H172.125ZM149.223 12.5781C155.41 12.5781 160.352 16.875 160.352 22.7617C160.352 28.7773 155.41 33.0312 149.223 33.0312C143.035 33.0312 138.051 28.7773 138.094 22.7617C138.051 16.875 143.035 12.5781 149.223 12.5781ZM149.223 18.5508C146.688 18.5508 144.797 19.9687 144.797 22.7617C144.797 25.6836 146.688 27.0586 149.223 27.0586C151.629 27.0586 153.52 25.6836 153.52 22.7617C153.52 19.9687 151.629 18.5508 149.223 18.5508ZM193.824 10.6445C203.148 10.6445 208.477 13.0078 208.52 17.3477C208.477 21.7305 203.148 24.0937 193.824 24.0937C184.457 24.0937 179.043 21.7305 179.086 17.3477C179.043 13.0078 184.457 10.6445 193.824 10.6445ZM193.824 15.6289C188.453 15.6289 186.305 16.1445 186.305 17.3477C186.305 18.8086 188.453 19.0664 193.824 19.1094C199.238 19.0664 201.387 18.8086 201.387 17.3477C201.387 16.1445 199.238 15.6289 193.824 15.6289ZM211.957 25.4258V30.8828H175.691V25.4258L211.957 25.4258ZM207.66 32.3867V43.3437H186.477V44.6328H208.605V49.7031H179.73V38.6172H200.871V37.4141H179.773V32.3867H207.66ZM246.031 13.4805V18.8516H238.641C238.92 22.1387 241.219 25.5762 247.535 27.0586L244.57 32.3008C240.059 31.3125 237.051 29.1211 235.246 26.2852C233.484 29.4219 230.52 31.8711 226.008 33.0312L222.785 27.6172C229.145 26.1348 231.465 22.418 231.766 18.8516H224.375V13.4805H231.766V10L238.684 10V13.4805H246.031ZM255.098 10.1289V18.5078H260.039V24.1367H255.098V32.5156H248.18V10.1289H255.098ZM255.441 33.9336V39.2617H246.16C247.277 41.5176 250.457 43.8164 257.332 44.5898L254.883 49.832C248.33 49.0801 244.141 46.7598 241.863 43.6875C239.607 46.7168 235.461 48.9727 228.973 49.7031L226.523 44.5039C233.463 43.7734 236.621 41.5605 237.738 39.2617H228.328V33.9336H255.441ZM293.684 20.2266V25.5547H265.582V11.5469H272.457V20.2266H293.684ZM297.594 29.0781V34.4062H261.328V29.0781H297.594ZM293.941 43.6016V49.1016H265.109V37.1562H272.07V43.6016H293.941Z"/>
</mask>
<path d="M46.3125 12.2773V15.8438C46.3125 19.1738 46.3125 22.8047 45.5391 27.3164H50.3086V32.7734H14L14 27.3164H38.5352C39.2441 23.5566 39.373 20.6133 39.4375 17.7344H18.3398V12.2773L46.3125 12.2773ZM47.3867 43.8164V49.2734H18.5117V35.6094H25.2578V43.8164H47.3867ZM63.2852 11.5039V14.7695H76.8633V11.5039H83.6953V27.9609L73.5547 27.9609V30.7539H88.293V36.2109H52.0273V30.7539H66.5938V27.9609H56.5391V11.5039H63.2852ZM63.2852 22.5039H76.8633V20.0117H63.2852V22.5039ZM84.082 43.8164V49.3164H56.1953V37.9297H63.1133V43.8164H84.082ZM133.84 10.2148V40.1211H126.965V37.5859H119.746V32.9883H126.965V10.2148H133.84ZM134.699 43.8164V49.3164H104.148V37.2852H109.52V32.5156C106.254 32.6445 103.117 32.6875 100.281 32.6875L99.5078 27.3164C106.77 27.2305 116.48 27.1445 124.816 26.0703L125.16 30.9688C122.303 31.4844 119.359 31.8281 116.438 32.0859V39.4336H111.066V43.8164H134.699ZM112.355 11.375C118.113 11.375 122.324 14.3828 122.367 18.6367C122.324 22.8906 118.113 25.7266 112.355 25.7266C106.469 25.7266 102.301 22.8906 102.301 18.6367C102.301 14.3828 106.469 11.375 112.355 11.375ZM112.355 16.3594C110.25 16.4023 108.832 17.0469 108.832 18.6367C108.832 20.1406 110.25 20.7852 112.355 20.7852C114.375 20.7852 115.793 20.1406 115.793 18.6367C115.793 17.0469 114.375 16.4023 112.355 16.3594ZM171.18 10.2148V38.4453H164.262V10.2148H171.18ZM172.125 43.8164V49.3164H143.98V35.6094H150.941V43.8164H172.125ZM149.223 12.5781C155.41 12.5781 160.352 16.875 160.352 22.7617C160.352 28.7773 155.41 33.0312 149.223 33.0312C143.035 33.0312 138.051 28.7773 138.094 22.7617C138.051 16.875 143.035 12.5781 149.223 12.5781ZM149.223 18.5508C146.688 18.5508 144.797 19.9687 144.797 22.7617C144.797 25.6836 146.688 27.0586 149.223 27.0586C151.629 27.0586 153.52 25.6836 153.52 22.7617C153.52 19.9687 151.629 18.5508 149.223 18.5508ZM193.824 10.6445C203.148 10.6445 208.477 13.0078 208.52 17.3477C208.477 21.7305 203.148 24.0937 193.824 24.0937C184.457 24.0937 179.043 21.7305 179.086 17.3477C179.043 13.0078 184.457 10.6445 193.824 10.6445ZM193.824 15.6289C188.453 15.6289 186.305 16.1445 186.305 17.3477C186.305 18.8086 188.453 19.0664 193.824 19.1094C199.238 19.0664 201.387 18.8086 201.387 17.3477C201.387 16.1445 199.238 15.6289 193.824 15.6289ZM211.957 25.4258V30.8828H175.691V25.4258L211.957 25.4258ZM207.66 32.3867V43.3437H186.477V44.6328H208.605V49.7031H179.73V38.6172H200.871V37.4141H179.773V32.3867H207.66ZM246.031 13.4805V18.8516H238.641C238.92 22.1387 241.219 25.5762 247.535 27.0586L244.57 32.3008C240.059 31.3125 237.051 29.1211 235.246 26.2852C233.484 29.4219 230.52 31.8711 226.008 33.0312L222.785 27.6172C229.145 26.1348 231.465 22.418 231.766 18.8516H224.375V13.4805H231.766V10L238.684 10V13.4805H246.031ZM255.098 10.1289V18.5078H260.039V24.1367H255.098V32.5156H248.18V10.1289H255.098ZM255.441 33.9336V39.2617H246.16C247.277 41.5176 250.457 43.8164 257.332 44.5898L254.883 49.832C248.33 49.0801 244.141 46.7598 241.863 43.6875C239.607 46.7168 235.461 48.9727 228.973 49.7031L226.523 44.5039C233.463 43.7734 236.621 41.5605 237.738 39.2617H228.328V33.9336H255.441ZM293.684 20.2266V25.5547H265.582V11.5469H272.457V20.2266H293.684ZM297.594 29.0781V34.4062H261.328V29.0781H297.594ZM293.941 43.6016V49.1016H265.109V37.1562H272.07V43.6016H293.941Z" fill="#11DCA9"/>
<path d="M46.3125 12.2773H56.3125C56.3125 6.7545 51.8353 2.27734 46.3125 2.27734V12.2773ZM45.5391 27.3164L35.6828 25.6268C35.1848 28.532 35.9939 31.509 37.8939 33.7625C39.794 36.016 42.5914 37.3164 45.5391 37.3164V27.3164ZM50.3086 27.3164H60.3086C60.3086 21.7936 55.8314 17.3164 50.3086 17.3164V27.3164ZM50.3086 32.7734V42.7734C55.8314 42.7734 60.3086 38.2963 60.3086 32.7734H50.3086ZM14 32.7734H4C4 38.2963 8.47715 42.7734 14 42.7734V32.7734ZM14 27.3164V17.3164C8.47715 17.3164 4 21.7936 4 27.3164H14ZM38.5352 27.3164V37.3164C43.3434 37.3164 47.471 33.8944 48.362 29.1695L38.5352 27.3164ZM39.4375 17.7344L49.435 17.9582C49.4952 15.2679 48.4687 12.6669 46.5873 10.7429C44.7059 8.81891 42.1285 7.73438 39.4375 7.73438V17.7344ZM18.3398 17.7344H8.33984C8.33984 23.2572 12.817 27.7344 18.3398 27.7344V17.7344ZM18.3398 12.2773V2.27734C12.817 2.27734 8.33984 6.7545 8.33984 12.2773H18.3398ZM47.3867 43.8164H57.3867C57.3867 38.2936 52.9096 33.8164 47.3867 33.8164V43.8164ZM47.3867 49.2734V59.2734C52.9096 59.2734 57.3867 54.7963 57.3867 49.2734H47.3867ZM18.5117 49.2734H8.51172C8.51172 54.7963 12.9889 59.2734 18.5117 59.2734V49.2734ZM18.5117 35.6094V25.6094C12.9889 25.6094 8.51172 30.0865 8.51172 35.6094H18.5117ZM25.2578 35.6094H35.2578C35.2578 30.0865 30.7807 25.6094 25.2578 25.6094V35.6094ZM25.2578 43.8164H15.2578C15.2578 49.3393 19.735 53.8164 25.2578 53.8164V43.8164ZM46.3125 12.2773L36.3125 12.2773V15.8438H46.3125H56.3125V12.2773H46.3125ZM46.3125 15.8438H36.3125C36.3125 19.1482 36.2995 22.0298 35.6828 25.6268L45.5391 27.3164L55.3953 29.006C56.3255 23.5796 56.3125 19.1995 56.3125 15.8438H46.3125ZM45.5391 27.3164V37.3164H50.3086V27.3164V17.3164H45.5391V27.3164ZM50.3086 27.3164H40.3086V32.7734H50.3086H60.3086V27.3164H50.3086ZM50.3086 32.7734V22.7734H14L14 32.7734V42.7734H50.3086V32.7734ZM14 32.7734H24V27.3164H14H4L4 32.7734H14ZM14 27.3164L14 37.3164H38.5352V27.3164V17.3164H14V27.3164ZM38.5352 27.3164L48.362 29.1695C49.22 24.6194 49.3659 21.0463 49.435 17.9582L39.4375 17.7344L29.44 17.5105C29.3802 20.1802 29.2683 22.4938 28.7083 25.4634L38.5352 27.3164ZM39.4375 17.7344V7.73438H18.3398V17.7344V27.7344H39.4375V17.7344ZM18.3398 17.7344H28.3398V12.2773H18.3398H8.33984V17.7344H18.3398ZM18.3398 12.2773V22.2773H46.3125V12.2773V2.27734L18.3398 2.27734V12.2773ZM47.3867 43.8164H37.3867V49.2734H47.3867H57.3867V43.8164H47.3867ZM47.3867 49.2734V39.2734H18.5117V49.2734V59.2734H47.3867V49.2734ZM18.5117 49.2734H28.5117V35.6094H18.5117H8.51172L8.51172 49.2734H18.5117ZM18.5117 35.6094V45.6094H25.2578V35.6094V25.6094H18.5117V35.6094ZM25.2578 35.6094H15.2578L15.2578 43.8164H25.2578H35.2578V35.6094H25.2578ZM25.2578 43.8164V53.8164H47.3867V43.8164V33.8164H25.2578V43.8164ZM63.2852 11.5039H73.2852C73.2852 5.98106 68.808 1.50391 63.2852 1.50391V11.5039ZM63.2852 14.7695H53.2852C53.2852 20.2924 57.7623 24.7695 63.2852 24.7695V14.7695ZM76.8633 14.7695V24.7695C82.3861 24.7695 86.8633 20.2924 86.8633 14.7695L76.8633 14.7695ZM76.8633 11.5039V1.50391C71.3404 1.50391 66.8633 5.98106 66.8633 11.5039H76.8633ZM83.6953 11.5039H93.6953C93.6953 5.98106 89.2182 1.50391 83.6953 1.50391V11.5039ZM83.6953 27.9609V37.9609C89.2182 37.9609 93.6953 33.4838 93.6953 27.9609H83.6953ZM73.5547 27.9609V17.9609C68.0318 17.9609 63.5547 22.4381 63.5547 27.9609H73.5547ZM73.5547 30.7539H63.5547C63.5547 36.2768 68.0318 40.7539 73.5547 40.7539V30.7539ZM88.293 30.7539H98.293C98.293 25.2311 93.8158 20.7539 88.293 20.7539V30.7539ZM88.293 36.2109V46.2109C93.8158 46.2109 98.293 41.7338 98.293 36.2109H88.293ZM52.0273 36.2109H42.0273C42.0273 41.7338 46.5045 46.2109 52.0273 46.2109V36.2109ZM52.0273 30.7539V20.7539C46.5045 20.7539 42.0273 25.2311 42.0273 30.7539H52.0273ZM66.5938 30.7539V40.7539C72.1166 40.7539 76.5938 36.2768 76.5938 30.7539H66.5938ZM66.5938 27.9609H76.5938C76.5938 22.4381 72.1166 17.9609 66.5938 17.9609V27.9609ZM56.5391 27.9609H46.5391C46.5391 33.4838 51.0162 37.9609 56.5391 37.9609V27.9609ZM56.5391 11.5039V1.50391C51.0162 1.50391 46.5391 5.98106 46.5391 11.5039H56.5391ZM63.2852 22.5039H53.2852C53.2852 28.0268 57.7623 32.5039 63.2852 32.5039V22.5039ZM76.8633 22.5039V32.5039C82.3861 32.5039 86.8633 28.0268 86.8633 22.5039L76.8633 22.5039ZM76.8633 20.0117L86.8633 20.0117C86.8633 14.4889 82.3861 10.0117 76.8633 10.0117V20.0117ZM63.2852 20.0117V10.0117C57.7623 10.0117 53.2852 14.4889 53.2852 20.0117H63.2852ZM84.082 43.8164H94.082C94.082 38.2936 89.6049 33.8164 84.082 33.8164V43.8164ZM84.082 49.3164V59.3164C89.6049 59.3164 94.082 54.8393 94.082 49.3164H84.082ZM56.1953 49.3164H46.1953C46.1953 54.8393 50.6725 59.3164 56.1953 59.3164V49.3164ZM56.1953 37.9297V27.9297C50.6725 27.9297 46.1953 32.4068 46.1953 37.9297H56.1953ZM63.1133 37.9297H73.1133C73.1133 32.4068 68.6361 27.9297 63.1133 27.9297V37.9297ZM63.1133 43.8164H53.1133C53.1133 49.3393 57.5904 53.8164 63.1133 53.8164V43.8164ZM63.2852 11.5039H53.2852V14.7695H63.2852H73.2852V11.5039H63.2852ZM63.2852 14.7695V24.7695H76.8633V14.7695V4.76953H63.2852V14.7695ZM76.8633 14.7695L86.8633 14.7695V11.5039H76.8633H66.8633V14.7695H76.8633ZM76.8633 11.5039V21.5039L83.6953 21.5039V11.5039V1.50391H76.8633V11.5039ZM83.6953 11.5039H73.6953V27.9609L83.6953 27.9609H93.6953V11.5039H83.6953ZM83.6953 27.9609V17.9609L73.5547 17.9609V27.9609V37.9609H83.6953V27.9609ZM73.5547 27.9609H63.5547V30.7539H73.5547H83.5547V27.9609L73.5547 27.9609ZM73.5547 30.7539V40.7539H88.293V30.7539V20.7539L73.5547 20.7539V30.7539ZM88.293 30.7539H78.293V36.2109H88.293H98.293V30.7539H88.293ZM88.293 36.2109V26.2109L52.0273 26.2109V36.2109V46.2109H88.293V36.2109ZM52.0273 36.2109H62.0273V30.7539H52.0273H42.0273V36.2109H52.0273ZM52.0273 30.7539V40.7539H66.5938V30.7539V20.7539H52.0273V30.7539ZM66.5938 30.7539H76.5938V27.9609H66.5938H56.5938V30.7539H66.5938ZM66.5938 27.9609V17.9609H56.5391V27.9609V37.9609H66.5938V27.9609ZM56.5391 27.9609H66.5391V11.5039H56.5391H46.5391V27.9609H56.5391ZM56.5391 11.5039V21.5039H63.2852V11.5039V1.50391L56.5391 1.50391V11.5039ZM63.2852 22.5039V32.5039H76.8633V22.5039V12.5039H63.2852V22.5039ZM76.8633 22.5039L86.8633 22.5039V20.0117L76.8633 20.0117H66.8633V22.5039H76.8633ZM76.8633 20.0117V10.0117H63.2852V20.0117V30.0117H76.8633V20.0117ZM63.2852 20.0117H53.2852V22.5039H63.2852H73.2852V20.0117H63.2852ZM84.082 43.8164H74.082V49.3164H84.082H94.082V43.8164H84.082ZM84.082 49.3164V39.3164H56.1953V49.3164V59.3164H84.082V49.3164ZM56.1953 49.3164H66.1953V37.9297H56.1953H46.1953V49.3164H56.1953ZM56.1953 37.9297V47.9297H63.1133V37.9297V27.9297H56.1953V37.9297ZM63.1133 37.9297H53.1133V43.8164H63.1133H73.1133V37.9297H63.1133ZM63.1133 43.8164V53.8164H84.082V43.8164V33.8164H63.1133V43.8164ZM133.84 10.2148H143.84C143.84 4.692 139.363 0.214844 133.84 0.214844V10.2148ZM133.84 40.1211V50.1211C139.363 50.1211 143.84 45.6439 143.84 40.1211L133.84 40.1211ZM126.965 40.1211H116.965C116.965 45.6439 121.442 50.1211 126.965 50.1211V40.1211ZM126.965 37.5859H136.965C136.965 32.0631 132.488 27.5859 126.965 27.5859V37.5859ZM119.746 37.5859H109.746C109.746 43.1088 114.223 47.5859 119.746 47.5859V37.5859ZM119.746 32.9883V22.9883C114.223 22.9883 109.746 27.4654 109.746 32.9883H119.746ZM126.965 32.9883V42.9883C132.488 42.9883 136.965 38.5111 136.965 32.9883H126.965ZM126.965 10.2148V0.214844C121.442 0.214844 116.965 4.692 116.965 10.2148H126.965ZM134.699 43.8164L144.699 43.8164C144.699 38.2936 140.222 33.8164 134.699 33.8164V43.8164ZM134.699 49.3164V59.3164C140.222 59.3164 144.699 54.8393 144.699 49.3164L134.699 49.3164ZM104.148 49.3164H94.1484C94.1484 54.8393 98.6256 59.3164 104.148 59.3164V49.3164ZM104.148 37.2852V27.2852C98.6256 27.2852 94.1484 31.7623 94.1484 37.2852H104.148ZM109.52 37.2852V47.2852C115.042 47.2852 119.52 42.808 119.52 37.2852H109.52ZM109.52 32.5156H119.52C119.52 29.795 118.411 27.1919 116.45 25.3065C114.488 23.421 111.844 22.4161 109.125 22.5234L109.52 32.5156ZM100.281 32.6875L90.3833 34.1128C91.092 39.0343 95.309 42.6875 100.281 42.6875V32.6875ZM99.5078 27.3164L99.3895 17.3171C96.5095 17.3512 93.784 18.6254 91.911 20.8135C90.038 23.0015 89.1994 25.8909 89.6099 28.7417L99.5078 27.3164ZM124.816 26.0703L134.792 25.3703C134.599 22.6241 133.283 20.0788 131.153 18.3343C129.023 16.5898 126.269 15.8005 123.538 16.1523L124.816 26.0703ZM125.16 30.9688L126.936 40.8098C131.959 39.9035 135.493 35.3601 135.136 30.2687L125.16 30.9688ZM116.438 32.0859L115.559 22.1246C110.396 22.5801 106.438 26.9037 106.438 32.0859H116.438ZM116.438 39.4336V49.4336C121.96 49.4336 126.438 44.9564 126.438 39.4336H116.438ZM111.066 39.4336V29.4336C105.544 29.4336 101.066 33.9107 101.066 39.4336H111.066ZM111.066 43.8164H101.066C101.066 49.3393 105.544 53.8164 111.066 53.8164V43.8164ZM122.367 18.6367L132.367 18.7377C132.367 18.6704 132.367 18.603 132.367 18.5357L122.367 18.6367ZM112.355 16.3594L112.568 6.36164C112.429 6.35868 112.29 6.35862 112.151 6.36146L112.355 16.3594ZM133.84 10.2148H123.84V40.1211H133.84L143.84 40.1211V10.2148H133.84ZM133.84 40.1211V30.1211H126.965V40.1211V50.1211H133.84V40.1211ZM126.965 40.1211H136.965V37.5859H126.965H116.965V40.1211H126.965ZM126.965 37.5859V27.5859H119.746V37.5859V47.5859H126.965V37.5859ZM119.746 37.5859H129.746V32.9883H119.746H109.746V37.5859H119.746ZM119.746 32.9883V42.9883H126.965V32.9883V22.9883H119.746V32.9883ZM126.965 32.9883H136.965V10.2148H126.965H116.965V32.9883H126.965ZM126.965 10.2148V20.2148H133.84V10.2148V0.214844L126.965 0.214844V10.2148ZM134.699 43.8164H124.699V49.3164H134.699L144.699 49.3164V43.8164L134.699 43.8164ZM134.699 49.3164V39.3164H104.148V49.3164V59.3164H134.699V49.3164ZM104.148 49.3164H114.148V37.2852H104.148H94.1484V49.3164H104.148ZM104.148 37.2852V47.2852H109.52V37.2852V27.2852H104.148V37.2852ZM109.52 37.2852H119.52V32.5156H109.52H99.5195V37.2852H109.52ZM109.52 32.5156L109.125 22.5234C106.021 22.646 103.019 22.6875 100.281 22.6875V32.6875V42.6875C103.215 42.6875 106.487 42.6431 109.914 42.5078L109.52 32.5156ZM100.281 32.6875L110.179 31.2622L109.406 25.8911L99.5078 27.3164L89.6099 28.7417L90.3833 34.1128L100.281 32.6875ZM99.5078 27.3164L99.6261 37.3157C106.731 37.2316 117.067 37.1517 126.094 35.9883L124.816 26.0703L123.538 16.1523C115.894 17.1374 106.808 17.2293 99.3895 17.3171L99.5078 27.3164ZM124.816 26.0703L114.841 26.7703L115.185 31.6688L125.16 30.9688L135.136 30.2687L134.792 25.3703L124.816 26.0703ZM125.16 30.9688L123.384 21.1277C120.927 21.5711 118.306 21.8822 115.559 22.1246L116.438 32.0859L117.316 42.0472C120.412 41.7741 123.678 41.3976 126.936 40.8098L125.16 30.9688ZM116.438 32.0859H106.438V39.4336H116.438H126.438V32.0859H116.438ZM116.438 39.4336V29.4336H111.066V39.4336V49.4336H116.438V39.4336ZM111.066 39.4336H101.066V43.8164H111.066H121.066V39.4336H111.066ZM111.066 43.8164V53.8164H134.699V43.8164V33.8164H111.066V43.8164ZM112.355 11.375V21.375C113.591 21.375 113.914 21.7085 113.65 21.5181C113.493 21.4045 113.16 21.1155 112.86 20.5775C112.546 20.0135 112.374 19.3616 112.368 18.7377L122.367 18.6367L132.367 18.5357C132.309 12.7859 129.326 8.1677 125.358 5.30321C121.539 2.54541 116.877 1.375 112.355 1.375V11.375ZM122.367 18.6367L112.368 18.5357C112.374 17.9062 112.55 17.2156 112.899 16.6003C113.232 16.0141 113.604 15.6999 113.781 15.5764C114.067 15.3773 113.713 15.7266 112.355 15.7266V25.7266V35.7266C116.756 35.7266 121.386 34.6579 125.227 31.9773C129.267 29.1585 132.308 24.5444 132.367 18.7377L122.367 18.6367ZM112.355 25.7266V15.7266C110.89 15.7266 110.53 15.3574 110.844 15.5764C111.038 15.712 111.43 16.0469 111.774 16.662C112.134 17.3056 112.301 18.0124 112.301 18.6367H102.301H92.3008C92.3008 24.4518 95.3037 29.1202 99.3976 31.9773C103.267 34.6778 107.935 35.7266 112.355 35.7266V25.7266ZM102.301 18.6367H112.301C112.301 19.2564 112.136 19.9244 111.812 20.5161C111.501 21.0823 111.149 21.392 110.975 21.5181C110.681 21.7302 111.01 21.375 112.355 21.375V11.375V1.375C107.814 1.375 103.116 2.52373 99.2666 5.30321C95.2463 8.2061 92.3008 12.8774 92.3008 18.6367H102.301ZM112.355 16.3594L112.151 6.36146C110.427 6.39666 107.511 6.65637 104.714 8.31019C101.174 10.4034 98.832 14.1679 98.832 18.6367H108.832H118.832C118.832 19.7738 118.562 21.2161 117.727 22.6499C116.901 24.0685 115.809 24.9848 114.894 25.5257C113.332 26.4491 112.179 26.3651 112.56 26.3573L112.355 16.3594ZM108.832 18.6367H98.832C98.832 23.2897 101.393 27.0078 104.884 28.9805C107.677 30.5595 110.568 30.7852 112.355 30.7852V20.7852V10.7852C112.037 10.7852 113.167 10.6886 114.725 11.5693C115.627 12.0793 116.752 12.9703 117.624 14.4C118.516 15.8619 118.832 17.3796 118.832 18.6367H108.832ZM112.355 20.7852V30.7852C114.155 30.7852 117.035 30.5436 119.818 28.9431C123.26 26.9632 125.793 23.2645 125.793 18.6367H115.793H105.793C105.793 17.3797 106.109 15.8765 106.984 14.4309C107.839 13.017 108.945 12.1247 109.845 11.6067C110.705 11.1122 111.42 10.9283 111.771 10.8576C112.14 10.7834 112.352 10.7852 112.355 10.7852V20.7852ZM115.793 18.6367H125.793C125.793 14.1907 123.476 10.4487 119.988 8.34974C117.204 6.67444 114.301 6.39851 112.568 6.36164L112.355 16.3594L112.143 26.3571C112.143 26.3571 112.132 26.3569 112.112 26.3557C112.093 26.3544 112.061 26.3521 112.019 26.3475C111.937 26.3388 111.795 26.3199 111.605 26.2783C111.26 26.2026 110.538 26.0051 109.675 25.4862C108.764 24.9378 107.691 24.0212 106.881 22.6193C106.062 21.202 105.793 19.7742 105.793 18.6367H115.793ZM171.18 10.2148L181.18 10.2148C181.18 4.692 176.703 0.214844 171.18 0.214844V10.2148ZM171.18 38.4453V48.4453C176.703 48.4453 181.18 43.9682 181.18 38.4453H171.18ZM164.262 38.4453H154.262C154.262 43.9682 158.739 48.4453 164.262 48.4453V38.4453ZM164.262 10.2148V0.214844C158.739 0.214844 154.262 4.692 154.262 10.2148H164.262ZM172.125 43.8164H182.125C182.125 38.2936 177.648 33.8164 172.125 33.8164V43.8164ZM172.125 49.3164V59.3164C177.648 59.3164 182.125 54.8393 182.125 49.3164H172.125ZM143.98 49.3164L133.98 49.3164C133.98 54.8393 138.458 59.3164 143.98 59.3164V49.3164ZM143.98 35.6094V25.6094C138.458 25.6094 133.98 30.0865 133.98 35.6094L143.98 35.6094ZM150.941 35.6094H160.941C160.941 30.0865 156.464 25.6094 150.941 25.6094V35.6094ZM150.941 43.8164L140.941 43.8164C140.941 49.3393 145.419 53.8164 150.941 53.8164V43.8164ZM138.094 22.7617L148.093 22.8331C148.094 22.785 148.094 22.7369 148.093 22.6887L138.094 22.7617ZM171.18 10.2148H161.18V38.4453H171.18H181.18V10.2148L171.18 10.2148ZM171.18 38.4453V28.4453H164.262V38.4453V48.4453H171.18V38.4453ZM164.262 38.4453H174.262V10.2148L164.262 10.2148H154.262V38.4453H164.262ZM164.262 10.2148V20.2148H171.18V10.2148V0.214844L164.262 0.214844V10.2148ZM172.125 43.8164H162.125V49.3164H172.125H182.125V43.8164H172.125ZM172.125 49.3164V39.3164H143.98V49.3164V59.3164H172.125V49.3164ZM143.98 49.3164H153.98V35.6094H143.98L133.98 35.6094V49.3164L143.98 49.3164ZM143.98 35.6094V45.6094H150.941V35.6094V25.6094H143.98V35.6094ZM150.941 35.6094L140.941 35.6094V43.8164L150.941 43.8164H160.941V35.6094H150.941ZM150.941 43.8164V53.8164H172.125V43.8164V33.8164H150.941V43.8164ZM149.223 12.5781V22.5781C150.009 22.5781 150.36 22.8434 150.413 22.8914C150.439 22.9145 150.412 22.8967 150.381 22.8285C150.346 22.7515 150.352 22.7109 150.352 22.7617H160.352H170.352C170.352 10.3977 159.928 2.57812 149.223 2.57812V12.5781ZM160.352 22.7617H150.352C150.352 22.8756 150.333 22.8688 150.363 22.8018C150.39 22.742 150.418 22.7195 150.402 22.7332C150.372 22.7611 150.034 23.0312 149.223 23.0312V33.0312V43.0312C159.957 43.0312 170.352 35.2283 170.352 22.7617H160.352ZM149.223 33.0312V23.0312C148.405 23.0312 148.053 22.7566 148.017 22.7243C148.002 22.7105 148.036 22.739 148.07 22.814C148.107 22.8975 148.093 22.925 148.093 22.8331L138.094 22.7617L128.094 22.6903C128.004 35.2759 138.561 43.0312 149.223 43.0312V33.0312ZM138.094 22.7617L148.093 22.6887C148.093 22.6607 148.095 22.7226 148.052 22.8161C148.014 22.8997 147.98 22.9234 148.006 22.9003C148.064 22.848 148.43 22.5781 149.223 22.5781V12.5781V2.57812C138.592 2.57812 128.003 10.3497 128.094 22.8347L138.094 22.7617ZM149.223 18.5508V8.55078C146.173 8.55078 142.473 9.4099 139.406 12.1432C136.169 15.0279 134.797 18.9693 134.797 22.7617H144.797H154.797C154.797 23.7612 154.37 25.5971 152.712 27.0746C151.224 28.4006 149.737 28.5508 149.223 28.5508V18.5508ZM144.797 22.7617H134.797C134.797 26.4903 136.085 30.4899 139.378 33.4463C142.497 36.247 146.245 37.0586 149.223 37.0586V27.0586V17.0586C149.665 17.0586 151.201 17.1827 152.74 18.5654C154.454 20.1038 154.797 21.955 154.797 22.7617H144.797ZM149.223 27.0586V37.0586C152.254 37.0586 155.97 36.1828 159.031 33.3774C162.237 30.4378 163.52 26.4857 163.52 22.7617H153.52H143.52C143.52 21.9596 143.856 20.1559 145.516 18.6343C147.03 17.2469 148.597 17.0586 149.223 17.0586V27.0586ZM153.52 22.7617H163.52C163.52 18.9754 162.155 15.0797 159.003 12.2118C155.995 9.47591 152.327 8.55078 149.223 8.55078V18.5508V28.5508C148.525 28.5508 147.005 28.3346 145.544 27.006C143.939 25.5453 143.52 23.755 143.52 22.7617H153.52ZM208.52 17.3477L218.519 17.4457C218.52 17.38 218.52 17.3143 218.519 17.2487L208.52 17.3477ZM179.086 17.3477L189.085 17.4457C189.086 17.38 189.086 17.3143 189.085 17.2487L179.086 17.3477ZM193.824 19.1094L193.744 29.1091C193.797 29.1095 193.85 29.1095 193.904 29.1091L193.824 19.1094ZM211.957 25.4258H221.957C221.957 19.9029 217.48 15.4258 211.957 15.4258V25.4258ZM211.957 30.8828V40.8828C217.48 40.8828 221.957 36.4057 221.957 30.8828H211.957ZM175.691 30.8828H165.691C165.691 36.4057 170.169 40.8828 175.691 40.8828V30.8828ZM175.691 25.4258V15.4258C170.169 15.4258 165.691 19.9029 165.691 25.4258H175.691ZM207.66 32.3867H217.66C217.66 26.8639 213.183 22.3867 207.66 22.3867V32.3867ZM207.66 43.3437V53.3437C213.183 53.3437 217.66 48.8666 217.66 43.3437H207.66ZM186.477 43.3437V33.3437C180.954 33.3437 176.477 37.8209 176.477 43.3437H186.477ZM186.477 44.6328H176.477C176.477 50.1557 180.954 54.6328 186.477 54.6328V44.6328ZM208.605 44.6328H218.605C218.605 39.11 214.128 34.6328 208.605 34.6328V44.6328ZM208.605 49.7031V59.7031C214.128 59.7031 218.605 55.226 218.605 49.7031H208.605ZM179.73 49.7031H169.73C169.73 55.226 174.208 59.7031 179.73 59.7031V49.7031ZM179.73 38.6172V28.6172C174.208 28.6172 169.73 33.0943 169.73 38.6172H179.73ZM200.871 38.6172V48.6172C206.394 48.6172 210.871 44.14 210.871 38.6172H200.871ZM200.871 37.4141H210.871C210.871 31.8912 206.394 27.4141 200.871 27.4141V37.4141ZM179.773 37.4141H169.773C169.773 42.9369 174.251 47.4141 179.773 47.4141V37.4141ZM179.773 32.3867V22.3867C174.251 22.3867 169.773 26.8639 169.773 32.3867H179.773ZM193.824 10.6445V20.6445C195.753 20.6445 197.292 20.7681 198.47 20.9564C199.676 21.1489 200.306 21.3779 200.528 21.4783C200.758 21.5827 200.25 21.4093 199.643 20.6339C198.934 19.7292 198.531 18.5577 198.52 17.4467L208.52 17.3477L218.519 17.2487C218.446 9.91504 213.496 5.39567 208.777 3.25897C204.39 1.27246 199.078 0.644531 193.824 0.644531V10.6445ZM208.52 17.3477L198.52 17.2496C198.531 16.173 198.919 15.0175 199.621 14.114C200.225 13.3373 200.734 13.1605 200.511 13.2619C200.295 13.3604 199.67 13.5892 198.467 13.7818C197.291 13.9701 195.753 14.0937 193.824 14.0937V24.0937V34.0937C199.075 34.0937 204.397 33.4668 208.793 31.4666C213.547 29.3038 218.447 24.7588 218.519 17.4457L208.52 17.3477ZM193.824 24.0937V14.0937C191.883 14.0937 190.328 13.9699 189.134 13.7801C187.912 13.5857 187.271 13.3542 187.045 13.252C186.807 13.1444 187.339 13.325 187.964 14.1337C188.699 15.0833 189.097 16.3057 189.085 17.4457L179.086 17.3477L169.086 17.2496C169.013 24.7371 174.069 29.3348 178.807 31.4766C183.213 33.468 188.559 34.0937 193.824 34.0937V24.0937ZM179.086 17.3477L189.085 17.2487C189.097 18.4241 188.683 19.6634 187.943 20.6141C187.314 21.4216 186.784 21.5987 187.029 21.4882C187.261 21.3841 187.906 21.1523 189.13 20.9581C190.327 20.7683 191.883 20.6445 193.824 20.6445V10.6445V0.644531C188.556 0.644531 183.22 1.27119 178.823 3.24907C174.122 5.36423 169.012 9.93647 169.086 17.4467L179.086 17.3477ZM193.824 15.6289V5.62891C191.076 5.62891 188.206 5.73763 185.799 6.29393C184.643 6.56105 182.6 7.14154 180.662 8.61893C178.287 10.4292 176.305 13.465 176.305 17.3477H186.305H196.305C196.305 18.7532 195.973 20.2487 195.222 21.6506C194.495 23.009 193.559 23.9359 192.787 24.5241C192.04 25.0933 191.382 25.3984 191.012 25.5477C190.63 25.7018 190.369 25.7649 190.302 25.7803C190.198 25.8043 190.397 25.7519 191.083 25.7037C191.731 25.6583 192.623 25.6289 193.824 25.6289V15.6289ZM186.305 17.3477H176.305C176.305 20.6529 177.743 23.8349 180.444 26.015C182.567 27.7281 184.85 28.3076 186.006 28.549C188.361 29.041 191.269 29.0893 193.744 29.1091L193.824 19.1094L193.904 9.1097C192.608 9.09933 191.654 9.07653 190.937 9.03676C190.169 8.99416 189.975 8.94644 190.095 8.97154C190.176 8.98851 190.495 9.05814 190.948 9.23762C191.396 9.41481 192.164 9.77299 193.005 10.4514C193.893 11.1682 194.804 12.1994 195.454 13.5788C196.1 14.9505 196.305 16.2765 196.305 17.3477H186.305ZM193.824 19.1094L193.904 29.1091C196.4 29.0892 199.315 29.0409 201.672 28.5508C202.827 28.3106 205.112 27.7336 207.238 26.0222C209.947 23.8414 211.387 20.6553 211.387 17.3477L201.387 17.3477H191.387C191.387 16.2765 191.591 14.9487 192.24 13.5746C192.892 12.1926 193.805 11.1607 194.695 10.4442C195.537 9.76635 196.306 9.40936 196.752 9.23332C197.204 9.05494 197.521 8.98613 197.6 8.96973C197.715 8.94573 197.516 8.99383 196.74 9.03656C196.015 9.07649 195.052 9.09932 193.745 9.10969L193.824 19.1094ZM201.387 17.3477L211.387 17.3477C211.387 13.4618 209.401 10.4229 207.02 8.61207C205.079 7.13608 203.034 6.55769 201.878 6.29175C199.469 5.73754 196.591 5.62891 193.824 5.62891V15.6289V25.6289C195.037 25.6289 195.939 25.6584 196.594 25.704C197.288 25.7524 197.493 25.8054 197.393 25.7825C197.329 25.7677 197.069 25.7053 196.688 25.5521C196.32 25.4038 195.66 25.0997 194.913 24.531C194.14 23.9431 193.201 23.0157 192.471 21.655C191.718 20.2507 191.387 18.7534 191.387 17.3477H201.387ZM211.957 25.4258L201.957 25.4258V30.8828H211.957H221.957V25.4258H211.957ZM211.957 30.8828V20.8828L175.691 20.8828V30.8828V40.8828H211.957V30.8828ZM175.691 30.8828H185.691V25.4258H175.691H165.691V30.8828H175.691ZM175.691 25.4258V35.4258H211.957V25.4258V15.4258L175.691 15.4258V25.4258ZM207.66 32.3867H197.66V43.3437H207.66H217.66V32.3867H207.66ZM207.66 43.3437V33.3437H186.477V43.3437V53.3437H207.66V43.3437ZM186.477 43.3437H176.477V44.6328H186.477H196.477V43.3437H186.477ZM186.477 44.6328V54.6328H208.605V44.6328V34.6328H186.477V44.6328ZM208.605 44.6328H198.605V49.7031H208.605H218.605V44.6328H208.605ZM208.605 49.7031V39.7031H179.73V49.7031V59.7031H208.605V49.7031ZM179.73 49.7031H189.73V38.6172H179.73H169.73V49.7031H179.73ZM179.73 38.6172V48.6172H200.871V38.6172V28.6172H179.73V38.6172ZM200.871 38.6172H210.871V37.4141H200.871H190.871V38.6172H200.871ZM200.871 37.4141V27.4141H179.773V37.4141V47.4141H200.871V37.4141ZM179.773 37.4141H189.773V32.3867H179.773H169.773V37.4141H179.773ZM179.773 32.3867V42.3867H207.66V32.3867V22.3867L179.773 22.3867V32.3867ZM246.031 13.4805H256.031C256.031 7.95762 251.554 3.48047 246.031 3.48047V13.4805ZM246.031 18.8516V28.8516C251.554 28.8516 256.031 24.3744 256.031 18.8516H246.031ZM238.641 18.8516V8.85156C235.841 8.85156 233.17 10.0249 231.276 12.0864C229.383 14.148 228.44 16.9089 228.677 19.6982L238.641 18.8516ZM247.535 27.0586L256.239 31.9815C257.789 29.2412 257.958 25.9309 256.695 23.0471C255.432 20.1632 252.885 18.0425 249.82 17.3231L247.535 27.0586ZM244.57 32.3008L242.431 42.0692C246.717 43.0081 251.114 41.0431 253.275 37.2237L244.57 32.3008ZM235.246 26.2852L243.683 20.9164C241.795 17.9494 238.487 16.1923 234.971 16.2889C231.456 16.3856 228.249 18.3219 226.527 21.3882L235.246 26.2852ZM226.008 33.0312L217.415 38.1461C219.685 41.9606 224.199 43.8217 228.498 42.7162L226.008 33.0312ZM222.785 27.6172L220.515 17.8783C217.408 18.6025 214.833 20.7654 213.584 23.7006C212.335 26.6358 212.561 29.9909 214.192 32.732L222.785 27.6172ZM231.766 18.8516L241.73 19.692C241.965 16.9036 241.022 14.1443 239.128 12.0841C237.234 10.024 234.564 8.85156 231.766 8.85156V18.8516ZM224.375 18.8516H214.375C214.375 24.3744 218.852 28.8516 224.375 28.8516V18.8516ZM224.375 13.4805V3.48047C218.852 3.48047 214.375 7.95762 214.375 13.4805H224.375ZM231.766 13.4805V23.4805C237.288 23.4805 241.766 19.0033 241.766 13.4805H231.766ZM231.766 10V0C226.243 0 221.766 4.47715 221.766 10H231.766ZM238.684 10H248.684C248.684 4.47715 244.206 0 238.684 0V10ZM238.684 13.4805H228.684C228.684 19.0033 233.161 23.4805 238.684 23.4805V13.4805ZM255.098 10.1289H265.098C265.098 4.60606 260.62 0.128906 255.098 0.128906V10.1289ZM255.098 18.5078H245.098C245.098 24.0307 249.575 28.5078 255.098 28.5078V18.5078ZM260.039 18.5078H270.039C270.039 12.985 265.562 8.50781 260.039 8.50781V18.5078ZM260.039 24.1367V34.1367C265.562 34.1367 270.039 29.6596 270.039 24.1367H260.039ZM255.098 24.1367V14.1367C249.575 14.1367 245.098 18.6139 245.098 24.1367H255.098ZM255.098 32.5156V42.5156C260.62 42.5156 265.098 38.0385 265.098 32.5156H255.098ZM248.18 32.5156H238.18C238.18 38.0385 242.657 42.5156 248.18 42.5156V32.5156ZM248.18 10.1289V0.128906C242.657 0.128906 238.18 4.60606 238.18 10.1289H248.18ZM255.441 33.9336H265.441C265.441 28.4107 260.964 23.9336 255.441 23.9336V33.9336ZM255.441 39.2617V49.2617C260.964 49.2617 265.441 44.7846 265.441 39.2617H255.441ZM246.16 39.2617V29.2617C242.701 29.2617 239.488 31.0493 237.664 33.9882C235.84 36.9271 235.664 40.6 237.199 43.6997L246.16 39.2617ZM257.332 44.5898L266.392 48.8228C267.755 45.9052 267.63 42.5098 266.055 39.7007C264.481 36.8916 261.65 35.0125 258.45 34.6525L257.332 44.5898ZM254.883 49.832L253.743 59.7668C258.015 60.2571 262.122 57.9611 263.943 54.0649L254.883 49.832ZM241.863 43.6875L249.897 37.7325C248.013 35.1911 245.038 33.691 241.874 33.6875C238.711 33.684 235.732 35.1776 233.843 37.7148L241.863 43.6875ZM228.973 49.7031L219.926 53.9647C221.75 57.8373 225.837 60.1193 230.091 59.6403L228.973 49.7031ZM226.523 44.5039L225.477 34.5589C222.256 34.8979 219.399 36.7755 217.81 39.5974C216.221 42.4192 216.097 45.8358 217.477 48.7655L226.523 44.5039ZM237.738 39.2617L246.732 43.6327C248.239 40.5336 248.043 36.8774 246.215 33.9565C244.387 31.0357 241.184 29.2617 237.738 29.2617V39.2617ZM228.328 39.2617H218.328C218.328 44.7846 222.805 49.2617 228.328 49.2617V39.2617ZM228.328 33.9336V23.9336C222.805 23.9336 218.328 28.4107 218.328 33.9336H228.328ZM246.031 13.4805H236.031V18.8516H246.031H256.031V13.4805H246.031ZM246.031 18.8516V8.85156H238.641V18.8516V28.8516H246.031V18.8516ZM238.641 18.8516L228.677 19.6982C228.995 23.4436 230.505 27.3272 233.615 30.5619C236.66 33.7304 240.703 35.7269 245.25 36.7941L247.535 27.0586L249.82 17.3231C248.051 16.9078 247.786 16.4444 248.033 16.7018C248.15 16.823 248.3 17.0272 248.421 17.3028C248.538 17.5693 248.589 17.8156 248.605 18.0049L238.641 18.8516ZM247.535 27.0586L238.831 22.1357L235.866 27.3779L244.57 32.3008L253.275 37.2237L256.239 31.9815L247.535 27.0586ZM244.57 32.3008L246.71 22.5324C245.517 22.2711 244.82 21.9181 244.433 21.6609C244.061 21.4131 243.842 21.1661 243.683 20.9164L235.246 26.2852L226.809 31.6539C230.215 37.0047 235.646 40.5831 242.431 42.0692L244.57 32.3008ZM235.246 26.2852L226.527 21.3882C226.29 21.8108 226.008 22.1358 225.64 22.4129C225.267 22.6945 224.623 23.062 223.517 23.3463L226.008 33.0312L228.498 42.7162C235.516 40.9117 240.8 36.8179 243.965 31.1821L235.246 26.2852ZM226.008 33.0312L234.601 27.9164L231.378 22.5023L222.785 27.6172L214.192 32.732L217.415 38.1461L226.008 33.0312ZM222.785 27.6172L225.055 37.3561C229.787 36.253 233.913 34.0942 236.961 30.7273C240.024 27.3432 241.42 23.375 241.73 19.692L231.766 18.8516L221.801 18.0112C221.804 17.9753 221.819 17.8665 221.882 17.7128C221.95 17.5482 222.044 17.4037 222.134 17.3044C222.223 17.2065 222.223 17.2442 222.018 17.3567C221.803 17.475 221.339 17.6861 220.515 17.8783L222.785 27.6172ZM231.766 18.8516V8.85156H224.375V18.8516V28.8516H231.766V18.8516ZM224.375 18.8516H234.375V13.4805H224.375H214.375V18.8516H224.375ZM224.375 13.4805V23.4805H231.766V13.4805V3.48047H224.375V13.4805ZM231.766 13.4805H241.766V10L231.766 10H221.766V13.4805H231.766ZM231.766 10V20H238.684V10V0H231.766V10ZM238.684 10L228.684 10V13.4805H238.684H248.684V10H238.684ZM238.684 13.4805V23.4805H246.031V13.4805V3.48047H238.684V13.4805ZM255.098 10.1289H245.098V18.5078H255.098H265.098V10.1289H255.098ZM255.098 18.5078V28.5078H260.039V18.5078V8.50781H255.098V18.5078ZM260.039 18.5078H250.039V24.1367H260.039H270.039V18.5078H260.039ZM260.039 24.1367V14.1367H255.098V24.1367V34.1367H260.039V24.1367ZM255.098 24.1367H245.098V32.5156H255.098H265.098V24.1367H255.098ZM255.098 32.5156V22.5156H248.18V32.5156V42.5156H255.098V32.5156ZM248.18 32.5156H258.18V10.1289H248.18H238.18V32.5156H248.18ZM248.18 10.1289V20.1289H255.098V10.1289V0.128906H248.18V10.1289ZM255.441 33.9336H245.441V39.2617H255.441H265.441V33.9336H255.441ZM255.441 39.2617V29.2617H246.16V39.2617V49.2617H255.441V39.2617ZM246.16 39.2617L237.199 43.6997C240.559 50.4847 248.021 53.6054 256.214 54.5272L257.332 44.5898L258.45 34.6525C255.875 34.3628 254.663 33.8547 254.28 33.6512C253.939 33.4704 254.572 33.7138 255.121 34.8238L246.16 39.2617ZM257.332 44.5898L248.272 40.3569L245.823 45.5991L254.883 49.832L263.943 54.0649L266.392 48.8228L257.332 44.5898ZM254.883 49.832L256.023 39.8972C251.187 39.3424 249.995 37.8655 249.897 37.7325L241.863 43.6875L233.83 49.6425C238.286 55.654 245.473 58.8178 253.743 59.7668L254.883 49.832ZM241.863 43.6875L233.843 37.7148C233.794 37.7806 232.674 39.2232 227.854 39.7659L228.973 49.7031L230.091 59.6403C238.248 58.7221 245.421 55.653 249.884 49.6602L241.863 43.6875ZM228.973 49.7031L238.019 45.4416L235.57 40.2423L226.523 44.5039L217.477 48.7655L219.926 53.9647L228.973 49.7031ZM226.523 44.5039L227.57 54.449C235.688 53.5945 243.327 50.6393 246.732 43.6327L237.738 39.2617L228.744 34.8907C229.306 33.7353 229.997 33.4451 229.71 33.594C229.349 33.7812 228.132 34.2793 225.477 34.5589L226.523 44.5039ZM237.738 39.2617V29.2617H228.328V39.2617V49.2617H237.738V39.2617ZM228.328 39.2617H238.328V33.9336H228.328H218.328V39.2617H228.328ZM228.328 33.9336V43.9336H255.441V33.9336V23.9336H228.328V33.9336ZM293.684 20.2266H303.684C303.684 14.7037 299.206 10.2266 293.684 10.2266V20.2266ZM293.684 25.5547V35.5547C299.206 35.5547 303.684 31.0775 303.684 25.5547H293.684ZM265.582 25.5547H255.582C255.582 31.0775 260.059 35.5547 265.582 35.5547V25.5547ZM265.582 11.5469V1.54687C260.059 1.54687 255.582 6.02403 255.582 11.5469H265.582ZM272.457 11.5469H282.457C282.457 6.02403 277.98 1.54687 272.457 1.54687V11.5469ZM272.457 20.2266H262.457C262.457 25.7494 266.934 30.2266 272.457 30.2266V20.2266ZM297.594 29.0781H307.594C307.594 23.5553 303.117 19.0781 297.594 19.0781V29.0781ZM297.594 34.4062V44.4062C303.117 44.4062 307.594 39.9291 307.594 34.4062H297.594ZM261.328 34.4062H251.328C251.328 39.9291 255.805 44.4062 261.328 44.4062V34.4062ZM261.328 29.0781V19.0781C255.805 19.0781 251.328 23.5553 251.328 29.0781H261.328ZM293.941 43.6016H303.941C303.941 38.0787 299.464 33.6016 293.941 33.6016V43.6016ZM293.941 49.1016V59.1016C299.464 59.1016 303.941 54.6244 303.941 49.1016H293.941ZM265.109 49.1016H255.109C255.109 54.6244 259.587 59.1016 265.109 59.1016V49.1016ZM265.109 37.1562V27.1562C259.587 27.1562 255.109 31.6334 255.109 37.1562H265.109ZM272.07 37.1562H282.07C282.07 31.6334 277.593 27.1562 272.07 27.1562V37.1562ZM272.07 43.6016H262.07C262.07 49.1244 266.547 53.6016 272.07 53.6016V43.6016ZM293.684 20.2266H283.684V25.5547H293.684H303.684V20.2266H293.684ZM293.684 25.5547V15.5547H265.582V25.5547V35.5547H293.684V25.5547ZM265.582 25.5547H275.582V11.5469H265.582H255.582V25.5547H265.582ZM265.582 11.5469V21.5469H272.457V11.5469V1.54687H265.582V11.5469ZM272.457 11.5469H262.457V20.2266H272.457H282.457V11.5469H272.457ZM272.457 20.2266V30.2266H293.684V20.2266V10.2266H272.457V20.2266ZM297.594 29.0781H287.594V34.4062H297.594H307.594V29.0781H297.594ZM297.594 34.4062V24.4062H261.328V34.4062V44.4062H297.594V34.4062ZM261.328 34.4062H271.328V29.0781H261.328H251.328V34.4062H261.328ZM261.328 29.0781V39.0781H297.594V29.0781V19.0781H261.328V29.0781ZM293.941 43.6016H283.941V49.1016H293.941H303.941V43.6016H293.941ZM293.941 49.1016V39.1016H265.109V49.1016V59.1016H293.941V49.1016ZM265.109 49.1016H275.109V37.1562H265.109H255.109V49.1016H265.109ZM265.109 37.1562V47.1562H272.07V37.1562V27.1562H265.109V37.1562ZM272.07 37.1562H262.07V43.6016H272.07H282.07V37.1562H272.07ZM272.07 43.6016V53.6016H293.941V43.6016V33.6016H272.07V43.6016Z" fill="white" mask="url(#path-1-outside-1_6524_1838)"/>
</g>
<defs>
<filter id="filter0_d_6524_1838" x="0" y="0" width="311.594" height="67.832" filterUnits="userSpaceOnUse" color-interpolation-filters="sRGB">
<feFlood flood-opacity="0" result="BackgroundImageFix"/>
<feColorMatrix in="SourceAlpha" type="matrix" values="0 0 0 0 0 0 0 0 0 0 0 0 0 0 0 0 0 0 127 0" result="hardAlpha"/>
<feOffset dy="4"/>
<feGaussianBlur stdDeviation="2"/>
<feComposite in2="hardAlpha" operator="out"/>
<feColorMatrix type="matrix" values="0 0 0 0 0 0 0 0 0 0 0 0 0 0 0 0 0 0 0.07 0"/>
<feBlend mode="normal" in2="BackgroundImageFix" result="effect1_dropShadow_6524_1838"/>
<feBlend mode="normal" in="SourceGraphic" in2="effect1_dropShadow_6524_1838" result="shape"/>
</filter>
</defs>
</svg>
