<svg width="177" height="68" viewBox="0 0 177 68" fill="none" xmlns="http://www.w3.org/2000/svg">
<g filter="url(#filter0_d_6524_1744)">
<mask id="path-1-outside-1_6524_1744" maskUnits="userSpaceOnUse" x="3.09766" y="-0.507813" width="170" height="61" fill="black">
<rect fill="white" x="3.09766" y="-0.507813" width="170" height="61"/>
<path d="M46.3125 11.7617V15.1133C46.3125 18.1855 46.3125 21.6445 45.4961 25.8984H50.1797V31.3555H14L14 25.8984H38.4492C39.1797 22.4824 39.3516 19.7539 39.4375 17.2188H18.3398V11.7617L46.3125 11.7617ZM32.1328 33.8477C40.8125 33.8047 46.2695 36.8125 46.2695 41.8828C46.2695 46.9531 40.8125 49.7891 32.1328 49.7461C23.4102 49.7891 17.8672 46.9531 17.9102 41.8828C17.8672 36.8125 23.4102 33.8047 32.1328 33.8477ZM32.1328 39.3047C27.1484 39.3047 24.8281 39.9922 24.8281 41.8828C24.8281 43.6016 27.1484 44.332 32.1328 44.332C37.0312 44.332 39.3516 43.6016 39.3516 41.8828C39.3516 39.9922 37.0312 39.3047 32.1328 39.3047ZM85.8438 10V33.5898H78.9688V24.8242L73.9844 24.8242V19.2812L78.9688 19.2812V10H85.8438ZM72.0078 34.2344C80.6445 34.2344 85.9297 37.1133 85.9297 42.0547C85.9297 46.9531 80.6445 49.875 72.0078 49.875C63.457 49.875 58.1719 46.9531 58.1719 42.0547C58.1719 37.1133 63.457 34.2344 72.0078 34.2344ZM72.0078 39.4336C67.2812 39.4336 65.0039 40.1641 65.0469 42.0547C65.0039 43.9023 67.2812 44.6758 72.0078 44.6758C76.7773 44.6758 79.0977 43.9023 79.0977 42.0547C79.0977 40.1641 76.7773 39.4336 72.0078 39.4336ZM75.0586 12.1055V17.6055H67.8828C68.291 21.5801 70.6113 25.5762 76.4766 27.4883L73.168 32.8594C68.9141 31.5488 66.0996 28.9707 64.3594 25.7695C62.6406 29.4219 59.6543 32.3652 55.0781 33.8477L51.5117 28.3906C57.8496 26.3711 60.2344 21.8594 60.6641 17.6055H53.4453V12.1055H75.0586ZM113.086 11.9336V17.3477H105.867C106.211 21.3652 108.51 25.4902 114.504 27.4453L111.195 32.7305C106.92 31.4629 104.084 28.9062 102.387 25.6836C100.625 29.25 97.6602 32.1074 93.1055 33.4609L89.582 28.0469C95.9844 26.1348 98.3262 21.5801 98.7344 17.3477H91.4727V11.9336L113.086 11.9336ZM123.871 35.1367V49.7461H116.996V40.5938H96.2422V35.1367H123.871ZM123.871 10V33.6328H116.996V24.6094H112.055V19.0234H116.996V10H123.871ZM161.598 10.0859V38.3164H154.68V10.0859H161.598ZM162.543 43.6875V49.1875L134.398 49.1875V35.4805L141.359 35.4805V43.6875H162.543ZM139.641 12.4492C145.828 12.4492 150.77 16.7461 150.77 22.6328C150.77 28.6484 145.828 32.9023 139.641 32.9023C133.453 32.9023 128.469 28.6484 128.512 22.6328C128.469 16.7461 133.453 12.4492 139.641 12.4492ZM139.641 18.4219C137.105 18.4219 135.215 19.8398 135.215 22.6328C135.215 25.5547 137.105 26.9297 139.641 26.9297C142.047 26.9297 143.938 25.5547 143.938 22.6328C143.938 19.8398 142.047 18.4219 139.641 18.4219Z"/>
</mask>
<path d="M46.3125 11.7617V15.1133C46.3125 18.1855 46.3125 21.6445 45.4961 25.8984H50.1797V31.3555H14L14 25.8984H38.4492C39.1797 22.4824 39.3516 19.7539 39.4375 17.2188H18.3398V11.7617L46.3125 11.7617ZM32.1328 33.8477C40.8125 33.8047 46.2695 36.8125 46.2695 41.8828C46.2695 46.9531 40.8125 49.7891 32.1328 49.7461C23.4102 49.7891 17.8672 46.9531 17.9102 41.8828C17.8672 36.8125 23.4102 33.8047 32.1328 33.8477ZM32.1328 39.3047C27.1484 39.3047 24.8281 39.9922 24.8281 41.8828C24.8281 43.6016 27.1484 44.332 32.1328 44.332C37.0312 44.332 39.3516 43.6016 39.3516 41.8828C39.3516 39.9922 37.0312 39.3047 32.1328 39.3047ZM85.8438 10V33.5898H78.9688V24.8242L73.9844 24.8242V19.2812L78.9688 19.2812V10H85.8438ZM72.0078 34.2344C80.6445 34.2344 85.9297 37.1133 85.9297 42.0547C85.9297 46.9531 80.6445 49.875 72.0078 49.875C63.457 49.875 58.1719 46.9531 58.1719 42.0547C58.1719 37.1133 63.457 34.2344 72.0078 34.2344ZM72.0078 39.4336C67.2812 39.4336 65.0039 40.1641 65.0469 42.0547C65.0039 43.9023 67.2812 44.6758 72.0078 44.6758C76.7773 44.6758 79.0977 43.9023 79.0977 42.0547C79.0977 40.1641 76.7773 39.4336 72.0078 39.4336ZM75.0586 12.1055V17.6055H67.8828C68.291 21.5801 70.6113 25.5762 76.4766 27.4883L73.168 32.8594C68.9141 31.5488 66.0996 28.9707 64.3594 25.7695C62.6406 29.4219 59.6543 32.3652 55.0781 33.8477L51.5117 28.3906C57.8496 26.3711 60.2344 21.8594 60.6641 17.6055H53.4453V12.1055H75.0586ZM113.086 11.9336V17.3477H105.867C106.211 21.3652 108.51 25.4902 114.504 27.4453L111.195 32.7305C106.92 31.4629 104.084 28.9062 102.387 25.6836C100.625 29.25 97.6602 32.1074 93.1055 33.4609L89.582 28.0469C95.9844 26.1348 98.3262 21.5801 98.7344 17.3477H91.4727V11.9336L113.086 11.9336ZM123.871 35.1367V49.7461H116.996V40.5938H96.2422V35.1367H123.871ZM123.871 10V33.6328H116.996V24.6094H112.055V19.0234H116.996V10H123.871ZM161.598 10.0859V38.3164H154.68V10.0859H161.598ZM162.543 43.6875V49.1875L134.398 49.1875V35.4805L141.359 35.4805V43.6875H162.543ZM139.641 12.4492C145.828 12.4492 150.77 16.7461 150.77 22.6328C150.77 28.6484 145.828 32.9023 139.641 32.9023C133.453 32.9023 128.469 28.6484 128.512 22.6328C128.469 16.7461 133.453 12.4492 139.641 12.4492ZM139.641 18.4219C137.105 18.4219 135.215 19.8398 135.215 22.6328C135.215 25.5547 137.105 26.9297 139.641 26.9297C142.047 26.9297 143.938 25.5547 143.938 22.6328C143.938 19.8398 142.047 18.4219 139.641 18.4219Z" fill="#11DCA9"/>
<path d="M46.3125 11.7617H56.3125C56.3125 6.23887 51.8353 1.76172 46.3125 1.76172V11.7617ZM45.4961 25.8984L35.6753 24.0136C35.1132 26.9425 35.8877 29.9694 37.7874 32.2684C39.6871 34.5673 42.5138 35.8984 45.4961 35.8984V25.8984ZM50.1797 25.8984H60.1797C60.1797 20.3756 55.7025 15.8984 50.1797 15.8984V25.8984ZM50.1797 31.3555V41.3555C55.7025 41.3555 60.1797 36.8783 60.1797 31.3555H50.1797ZM14 31.3555H4C4 36.8783 8.47715 41.3555 14 41.3555V31.3555ZM14 25.8984V15.8984C8.47715 15.8984 4 20.3756 4 25.8984H14ZM38.4492 25.8984V35.8984C43.1662 35.8984 47.2418 32.6022 48.2281 27.9895L38.4492 25.8984ZM39.4375 17.2188L49.4318 17.5575C49.5236 14.8482 48.5115 12.2176 46.6273 10.2685C44.7432 8.31938 42.1484 7.21875 39.4375 7.21875V17.2188ZM18.3398 17.2188H8.33984C8.33984 22.7416 12.817 27.2188 18.3398 27.2188V17.2188ZM18.3398 11.7617V1.76172C12.817 1.76172 8.33984 6.23887 8.33984 11.7617H18.3398ZM32.1328 33.8477L32.0836 43.8475C32.1165 43.8477 32.1494 43.8477 32.1823 43.8475L32.1328 33.8477ZM32.1328 49.7461L32.1823 39.7462C32.1494 39.7461 32.1165 39.7461 32.0836 39.7462L32.1328 49.7461ZM17.9102 41.8828L27.9098 41.9676C27.9103 41.9111 27.9103 41.8546 27.9098 41.7981L17.9102 41.8828ZM46.3125 11.7617L36.3125 11.7617V15.1133H46.3125H56.3125V11.7617H46.3125ZM46.3125 15.1133H36.3125C36.3125 18.1552 36.2964 20.7772 35.6753 24.0136L45.4961 25.8984L55.3169 27.7832C56.3285 22.5118 56.3125 18.2159 56.3125 15.1133H46.3125ZM45.4961 25.8984V35.8984H50.1797V25.8984V15.8984H45.4961V25.8984ZM50.1797 25.8984H40.1797V31.3555H50.1797H60.1797V25.8984H50.1797ZM50.1797 31.3555V21.3555H14L14 31.3555V41.3555H50.1797V31.3555ZM14 31.3555H24V25.8984H14H4L4 31.3555H14ZM14 25.8984L14 35.8984H38.4492V25.8984V15.8984H14V25.8984ZM38.4492 25.8984L48.2281 27.9895C49.1336 23.7553 49.3365 20.369 49.4318 17.5575L39.4375 17.2188L29.4432 16.88C29.3667 19.1388 29.2258 21.2095 28.6703 23.8073L38.4492 25.8984ZM39.4375 17.2188V7.21875H18.3398V17.2188V27.2188H39.4375V17.2188ZM18.3398 17.2188H28.3398V11.7617H18.3398H8.33984V17.2188H18.3398ZM18.3398 11.7617V21.7617H46.3125V11.7617V1.76172L18.3398 1.76172V11.7617ZM32.1328 33.8477L32.1823 43.8475C33.7875 43.8396 35.0534 43.9752 35.9948 44.1682C36.9528 44.3646 37.4201 44.5884 37.5462 44.6594C37.6574 44.7221 37.2958 44.545 36.9003 43.9375C36.4636 43.2666 36.2695 42.5014 36.2695 41.8828H46.2695H56.2695C56.2695 35.0242 52.2845 30.0082 47.3659 27.2361C42.8412 24.686 37.3745 23.8216 32.0833 23.8478L32.1328 33.8477ZM46.2695 41.8828H36.2695C36.2695 41.2598 36.4669 40.4559 36.9414 39.7386C37.3704 39.0902 37.7687 38.8977 37.6635 38.9552C37.5417 39.0217 37.0673 39.2421 36.0825 39.4348C35.1163 39.624 33.8218 39.7543 32.1823 39.7462L32.1328 49.7461L32.0833 59.746C37.2914 59.7718 42.7295 58.9763 47.2486 56.5087C52.214 53.7973 56.2695 48.804 56.2695 41.8828H46.2695ZM32.1328 49.7461L32.0836 39.7462C30.4309 39.7544 29.1176 39.6236 28.1313 39.432C27.1253 39.2367 26.6313 39.0116 26.4947 38.9377C26.372 38.8713 26.7769 39.0603 27.217 39.7227C27.7076 40.4612 27.9154 41.3018 27.9098 41.9676L17.9102 41.8828L7.91052 41.7981C7.85095 48.827 12.01 53.8391 16.974 56.5262C21.5034 58.978 26.9591 59.7717 32.1821 59.746L32.1328 49.7461ZM17.9102 41.8828L27.9098 41.7981C27.9154 42.4598 27.7105 43.2614 27.2583 43.9534C26.8518 44.5752 26.4836 44.7492 26.6117 44.6777C26.7523 44.5992 27.239 44.3705 28.2184 44.1712C29.1801 43.9756 30.4649 43.8396 32.0836 43.8475L32.1328 33.8477L32.1821 23.8478C26.8767 23.8216 21.3925 24.6839 16.857 27.2178C11.9383 29.9659 7.85148 35.0019 7.91052 41.9676L17.9102 41.8828ZM32.1328 39.3047V29.3047C29.5344 29.3047 26.2768 29.4384 23.3984 30.415C21.861 30.9366 19.6651 31.9469 17.8146 34.0162C15.7522 36.3223 14.8281 39.1487 14.8281 41.8828H24.8281H34.8281C34.8281 43.6717 34.1941 45.7031 32.7226 47.3485C31.4628 48.7572 30.1585 49.2412 29.8243 49.3546C29.4509 49.4812 29.3956 49.442 29.9067 49.3897C30.3736 49.3419 31.0897 49.3047 32.1328 49.3047V39.3047ZM24.8281 41.8828H14.8281C14.8281 44.8395 15.933 47.6883 18.0272 49.8872C19.8734 51.8257 22.0101 52.7634 23.4745 53.2472C26.2833 54.1751 29.4641 54.332 32.1328 54.332V44.332V34.332C31.1076 34.332 30.3922 34.2934 29.9211 34.2445C29.4095 34.1914 29.4241 34.1496 29.7482 34.2567C30.0095 34.343 31.2545 34.7759 32.5099 36.094C34.0133 37.6726 34.8281 39.7855 34.8281 41.8828H24.8281ZM32.1328 44.332V54.332C34.769 54.332 37.9352 54.1742 40.7414 53.2388C42.2051 52.7509 44.3327 51.8082 46.1695 49.8707C48.2492 47.677 49.3516 44.8368 49.3516 41.8828H39.3516H29.3516C29.3516 39.7882 30.1639 37.6838 31.6554 36.1105C32.9042 34.7934 34.1455 34.3556 34.4168 34.2651C34.7493 34.1543 34.7755 34.1939 34.2812 34.2459C33.8271 34.2937 33.1321 34.332 32.1328 34.332V44.332ZM39.3516 41.8828H49.3516C49.3516 39.1506 48.4293 36.3333 46.3815 34.0331C44.541 31.9656 42.3549 30.95 40.818 30.4238C37.9417 29.4391 34.6981 29.3047 32.1328 29.3047V39.3047V49.3047C33.1503 49.3047 33.8459 49.3417 34.2958 49.3883C34.7894 49.4395 34.7222 49.4765 34.3402 49.3457C33.9957 49.2278 32.6958 48.7385 31.4434 47.3317C29.9838 45.6921 29.3516 43.6697 29.3516 41.8828H39.3516ZM85.8438 10H95.8438C95.8438 4.47715 91.3666 0 85.8438 0V10ZM85.8438 33.5898V43.5898C91.3666 43.5898 95.8438 39.1127 95.8438 33.5898H85.8438ZM78.9688 33.5898H68.9688C68.9688 39.1127 73.4459 43.5898 78.9688 43.5898V33.5898ZM78.9688 24.8242H88.9688C88.9688 19.3014 84.4916 14.8242 78.9688 14.8242V24.8242ZM73.9844 24.8242H63.9844C63.9844 30.3471 68.4615 34.8242 73.9844 34.8242V24.8242ZM73.9844 19.2812V9.28125C68.4615 9.28125 63.9844 13.7584 63.9844 19.2812H73.9844ZM78.9688 19.2812V29.2812C84.4916 29.2812 88.9688 24.8041 88.9688 19.2812H78.9688ZM78.9688 10V0C73.4459 0 68.9688 4.47715 68.9688 10H78.9688ZM65.0469 42.0547L75.0442 42.2872C75.0477 42.134 75.0478 41.9807 75.0443 41.8275L65.0469 42.0547ZM75.0586 12.1055H85.0586C85.0586 6.58262 80.5814 2.10547 75.0586 2.10547V12.1055ZM75.0586 17.6055V27.6055C80.5814 27.6055 85.0586 23.1283 85.0586 17.6055L75.0586 17.6055ZM67.8828 17.6055V7.60547C65.0529 7.60547 62.3554 8.80453 60.4593 10.9053C58.5632 13.0062 57.646 15.812 57.9351 18.6271L67.8828 17.6055ZM76.4766 27.4883L84.9908 32.7331C86.5985 30.1232 86.9204 26.9202 85.8642 24.0426C84.808 21.1651 82.4904 18.9308 79.5761 17.9808L76.4766 27.4883ZM73.168 32.8594L70.2237 42.4161C74.5796 43.7581 79.2917 41.9848 81.6822 38.1041L73.168 32.8594ZM64.3594 25.7695L73.1451 20.9934C71.345 17.6822 67.8362 15.6643 64.069 15.7738C60.3017 15.8832 56.916 18.1014 55.3112 21.5116L64.3594 25.7695ZM55.0781 33.8477L46.7073 39.3184C49.1756 43.0953 53.8675 44.7514 58.1599 43.3609L55.0781 33.8477ZM51.5117 28.3906L48.4757 18.8626C45.4991 19.8111 43.1369 22.0961 42.09 25.0394C41.043 27.9828 41.4318 31.2463 43.1409 33.8613L51.5117 28.3906ZM60.6641 17.6055L70.6134 18.6105C70.8975 15.7977 69.9778 12.9962 68.0819 10.8991C66.186 8.80207 63.4911 7.60547 60.6641 7.60547V17.6055ZM53.4453 17.6055H43.4453C43.4453 23.1283 47.9225 27.6055 53.4453 27.6055V17.6055ZM53.4453 12.1055V2.10547C47.9225 2.10547 43.4453 6.58262 43.4453 12.1055L53.4453 12.1055ZM85.8438 10H75.8438V33.5898H85.8438H95.8438V10H85.8438ZM85.8438 33.5898V23.5898H78.9688V33.5898V43.5898H85.8438V33.5898ZM78.9688 33.5898H88.9688V24.8242H78.9688L68.9688 24.8242V33.5898H78.9688ZM78.9688 24.8242V14.8242L73.9844 14.8242V24.8242V34.8242H78.9688V24.8242ZM73.9844 24.8242L83.9844 24.8242V19.2812L73.9844 19.2812H63.9844V24.8242H73.9844ZM73.9844 19.2812V29.2812H78.9688V19.2812V9.28125H73.9844V19.2812ZM78.9688 19.2812H88.9688V10H78.9688H68.9688V19.2812L78.9688 19.2812ZM78.9688 10V20H85.8438V10V0L78.9688 0V10ZM72.0078 34.2344V44.2344C73.6304 44.2344 74.8996 44.3712 75.8374 44.5616C76.7929 44.7555 77.2403 44.9714 77.3411 45.0275C77.425 45.0742 77.0237 44.8702 76.5977 44.2182C76.1293 43.5014 75.9297 42.6952 75.9297 42.0547H85.9297H95.9297C95.9297 35.2516 91.9762 30.2863 87.0739 27.5555C82.6044 25.0657 77.211 24.2344 72.0078 24.2344V34.2344ZM85.9297 42.0547H75.9297C75.9297 41.3866 76.1383 40.5745 76.6029 39.865C77.0246 39.2211 77.4172 39.0231 77.3262 39.074C77.2202 39.1333 76.7701 39.3506 75.819 39.5455C74.885 39.737 73.6216 39.875 72.0078 39.875V49.875V59.875C77.234 59.875 82.6257 59.0256 87.0888 56.5295C91.9573 53.8066 95.9297 48.8554 95.9297 42.0547H85.9297ZM72.0078 49.875V39.875C70.4214 39.875 69.1785 39.7379 68.26 39.5484C67.3247 39.3553 66.8831 39.1406 66.7813 39.0834C66.6941 39.0344 67.0843 39.2329 67.5026 39.8732C67.9636 40.5786 68.1719 41.387 68.1719 42.0547H58.1719H48.1719C48.1719 48.8478 52.1356 53.7955 56.9853 56.5201C61.4373 59.0212 66.8107 59.875 72.0078 59.875V49.875ZM58.1719 42.0547H68.1719C68.1719 42.6948 67.9726 43.4973 67.5079 44.2101C67.0851 44.8584 66.6864 45.063 66.7663 45.0182C66.8629 44.9642 67.3018 44.7509 68.2415 44.5588C69.1638 44.3702 70.4125 44.2344 72.0078 44.2344V34.2344V24.2344C66.8338 24.2344 61.4588 25.07 57.0003 27.5648C52.1167 30.2974 48.1719 35.2592 48.1719 42.0547H58.1719ZM72.0078 39.4336V29.4336C69.4823 29.4336 66.2321 29.5812 63.3284 30.6347C61.7709 31.1997 59.5944 32.2766 57.7998 34.4095C55.819 36.7637 54.9883 39.5902 55.0495 42.2819L65.0469 42.0547L75.0443 41.8275C75.084 43.5739 74.5218 45.6 73.1036 47.2856C71.8717 48.7498 70.5518 49.2896 70.1492 49.4356C69.7173 49.5923 69.5948 49.5641 70.0303 49.5155C70.4221 49.4717 71.0569 49.4336 72.0078 49.4336V39.4336ZM65.0469 42.0547L55.0496 41.8222C54.9858 44.5629 55.8532 47.3821 57.819 49.7045C59.5964 51.8043 61.7438 52.8764 63.2898 53.4445C66.1916 54.5107 69.4357 54.6758 72.0078 54.6758V44.6758V34.6758C71.0734 34.6758 70.4494 34.6362 70.0678 34.5921C69.6444 34.5432 69.7634 34.5158 70.1877 34.6717C70.579 34.8155 71.8697 35.3478 73.0844 36.7829C74.4877 38.4407 75.0864 40.4703 75.0442 42.2872L65.0469 42.0547ZM72.0078 44.6758V54.6758C74.6083 54.6758 77.8421 54.5082 80.7346 53.4648C82.27 52.9109 84.3897 51.8732 86.1722 49.8449C88.1451 47.5998 89.0977 44.8269 89.0977 42.0547H79.0977H69.0977C69.0977 40.2063 69.7601 38.2229 71.1489 36.6426C72.3473 35.2789 73.5889 34.781 73.948 34.6514C74.342 34.5093 74.4327 34.5405 73.9938 34.5906C73.5946 34.6361 72.9547 34.6758 72.0078 34.6758V44.6758ZM79.0977 42.0547H89.0977C89.0977 39.3294 88.1819 36.547 86.192 34.2689C84.3916 32.2078 82.2428 31.1656 80.6965 30.6148C77.802 29.5839 74.5623 29.4336 72.0078 29.4336V39.4336V49.4336C72.971 49.4336 73.6217 49.4718 74.0309 49.5169C74.4817 49.5667 74.3876 49.5985 73.9861 49.4555C73.6161 49.3237 72.3455 48.8186 71.1292 47.4262C69.7234 45.8167 69.0977 43.8347 69.0977 42.0547H79.0977ZM75.0586 12.1055H65.0586V17.6055H75.0586L85.0586 17.6055V12.1055H75.0586ZM75.0586 17.6055V7.60547H67.8828V17.6055V27.6055H75.0586V17.6055ZM67.8828 17.6055L57.9351 18.6271C58.7267 26.334 63.563 33.7964 73.377 36.9958L76.4766 27.4883L79.5761 17.9808C78.9042 17.7617 78.5094 17.541 78.2993 17.3996C78.0953 17.2624 78.0167 17.1678 77.9939 17.1389C77.9716 17.1105 77.8718 16.9857 77.8305 16.5838L67.8828 17.6055ZM76.4766 27.4883L67.9623 22.2435L64.6537 27.6146L73.168 32.8594L81.6822 38.1041L84.9908 32.7331L76.4766 27.4883ZM73.168 32.8594L76.1122 23.3026C75.1837 23.0166 74.6031 22.6575 74.2159 22.3354C73.822 22.0078 73.4649 21.5818 73.1451 20.9934L64.3594 25.7695L55.5737 30.5457C58.5064 35.9405 63.3643 40.3029 70.2237 42.4161L73.168 32.8594ZM64.3594 25.7695L55.3112 21.5116C54.7079 22.7935 53.8085 23.7473 51.9964 24.3344L55.0781 33.8477L58.1599 43.3609C65.5001 40.9831 70.5733 36.0503 73.4076 30.0275L64.3594 25.7695ZM55.0781 33.8477L63.449 28.3769L59.8826 22.9199L51.5117 28.3906L43.1409 33.8613L46.7073 39.3184L55.0781 33.8477ZM51.5117 28.3906L54.5478 37.9186C65.2043 34.523 69.8414 26.2539 70.6134 18.6105L60.6641 17.6055L50.7147 16.6005C50.6482 17.2589 50.4648 17.6219 50.3196 17.8144C50.2299 17.9335 49.8465 18.4258 48.4757 18.8626L51.5117 28.3906ZM60.6641 17.6055V7.60547H53.4453V17.6055V27.6055H60.6641V17.6055ZM53.4453 17.6055H63.4453V12.1055H53.4453L43.4453 12.1055V17.6055H53.4453ZM53.4453 12.1055V22.1055H75.0586V12.1055V2.10547L53.4453 2.10547V12.1055ZM113.086 11.9336H123.086C123.086 6.41075 118.609 1.93359 113.086 1.93359V11.9336ZM113.086 17.3477V27.3477C118.609 27.3477 123.086 22.8705 123.086 17.3477H113.086ZM105.867 17.3477V7.34766C103.067 7.34766 100.395 8.52187 98.5009 10.5847C96.607 12.6475 95.6649 15.41 95.9036 18.2002L105.867 17.3477ZM114.504 27.4453L122.98 32.7515C124.613 30.1428 124.954 26.9274 123.904 24.0343C122.854 21.1411 120.531 18.8926 117.605 17.9382L114.504 27.4453ZM111.195 32.7305L108.353 42.318C112.659 43.5947 117.288 41.8437 119.671 38.0367L111.195 32.7305ZM102.387 25.6836L111.235 21.0237C109.483 17.6983 106.015 15.6357 102.257 15.6844C98.4989 15.7332 95.0855 17.885 93.4209 21.2547L102.387 25.6836ZM93.1055 33.4609L84.7241 38.9155C87.1397 42.6273 91.7089 44.3082 95.954 43.0466L93.1055 33.4609ZM89.582 28.0469L86.7204 18.4651C83.6995 19.3673 81.281 21.6412 80.1946 24.6008C79.1081 27.5604 79.481 30.859 81.2006 33.5014L89.582 28.0469ZM98.7344 17.3477L108.688 18.3077C108.959 15.5015 108.032 12.7115 106.137 10.6246C104.242 8.53762 101.554 7.34766 98.7344 7.34766V17.3477ZM91.4727 17.3477H81.4727C81.4727 22.8705 85.9498 27.3477 91.4727 27.3477V17.3477ZM91.4727 11.9336V1.93359C85.9498 1.93359 81.4727 6.41075 81.4727 11.9336H91.4727ZM123.871 35.1367H133.871C133.871 29.6139 129.394 25.1367 123.871 25.1367V35.1367ZM123.871 49.7461V59.7461C129.394 59.7461 133.871 55.2689 133.871 49.7461H123.871ZM116.996 49.7461H106.996C106.996 55.2689 111.473 59.7461 116.996 59.7461V49.7461ZM116.996 40.5938H126.996C126.996 35.0709 122.519 30.5938 116.996 30.5938V40.5938ZM96.2422 40.5938H86.2422C86.2422 46.1166 90.7193 50.5938 96.2422 50.5938V40.5938ZM96.2422 35.1367V25.1367C90.7193 25.1367 86.2422 29.6139 86.2422 35.1367H96.2422ZM123.871 10H133.871C133.871 4.47715 129.394 0 123.871 0V10ZM123.871 33.6328V43.6328C129.394 43.6328 133.871 39.1557 133.871 33.6328H123.871ZM116.996 33.6328H106.996C106.996 39.1557 111.473 43.6328 116.996 43.6328V33.6328ZM116.996 24.6094H126.996C126.996 19.0865 122.519 14.6094 116.996 14.6094V24.6094ZM112.055 24.6094H102.055C102.055 30.1322 106.532 34.6094 112.055 34.6094V24.6094ZM112.055 19.0234V9.02344C106.532 9.02344 102.055 13.5006 102.055 19.0234H112.055ZM116.996 19.0234V29.0234C122.519 29.0234 126.996 24.5463 126.996 19.0234H116.996ZM116.996 10V0C111.473 0 106.996 4.47715 106.996 10L116.996 10ZM113.086 11.9336L103.086 11.9336V17.3477H113.086H123.086V11.9336H113.086ZM113.086 17.3477V7.34766L105.867 7.34766V17.3477V27.3477H113.086V17.3477ZM105.867 17.3477L95.9036 18.2002C96.2124 21.8092 97.4317 25.7441 100.139 29.2653C102.879 32.8285 106.728 35.4276 111.403 36.9524L114.504 27.4453L117.605 17.9382C116.916 17.7137 116.515 17.4865 116.303 17.3422C116.097 17.2021 116.018 17.1052 115.994 17.0746C115.968 17.0401 115.866 16.9037 115.831 16.4952L105.867 17.3477ZM114.504 27.4453L106.028 22.1391L102.719 27.4243L111.195 32.7305L119.671 38.0367L122.98 32.7515L114.504 27.4453ZM111.195 32.7305L114.038 23.143C113.105 22.8663 112.542 22.5185 112.187 22.2254C111.828 21.9295 111.512 21.55 111.235 21.0237L102.387 25.6836L93.5388 30.3435C96.4751 35.9188 101.459 40.274 108.353 42.318L111.195 32.7305ZM102.387 25.6836L93.4209 21.2547C92.7957 22.5204 91.9426 23.3743 90.2569 23.8752L93.1055 33.4609L95.954 43.0466C103.378 40.8405 108.454 35.9796 111.352 30.1125L102.387 25.6836ZM93.1055 33.4609L101.487 28.0064L97.9634 22.5923L89.582 28.0469L81.2006 33.5014L84.7241 38.9155L93.1055 33.4609ZM89.582 28.0469L92.4437 37.6287C97.5144 36.1143 101.566 33.3369 104.392 29.5854C107.152 25.9231 108.345 21.8708 108.688 18.3077L98.7344 17.3477L88.7806 16.3876C88.716 17.057 88.5335 17.3982 88.4195 17.5494C88.362 17.6258 88.2602 17.7403 88.0518 17.8813C87.838 18.026 87.4303 18.253 86.7204 18.4651L89.582 28.0469ZM98.7344 17.3477V7.34766H91.4727V17.3477V27.3477H98.7344V17.3477ZM91.4727 17.3477H101.473V11.9336H91.4727H81.4727V17.3477H91.4727ZM91.4727 11.9336V21.9336H113.086V11.9336V1.93359L91.4727 1.93359V11.9336ZM123.871 35.1367H113.871V49.7461H123.871H133.871V35.1367H123.871ZM123.871 49.7461V39.7461H116.996V49.7461V59.7461H123.871V49.7461ZM116.996 49.7461H126.996V40.5938H116.996H106.996V49.7461H116.996ZM116.996 40.5938V30.5938H96.2422V40.5938V50.5938H116.996V40.5938ZM96.2422 40.5938H106.242V35.1367H96.2422H86.2422V40.5938H96.2422ZM96.2422 35.1367V45.1367H123.871V35.1367V25.1367H96.2422V35.1367ZM123.871 10H113.871V33.6328H123.871H133.871V10H123.871ZM123.871 33.6328V23.6328H116.996V33.6328V43.6328H123.871V33.6328ZM116.996 33.6328H126.996V24.6094H116.996H106.996V33.6328H116.996ZM116.996 24.6094V14.6094H112.055V24.6094V34.6094H116.996V24.6094ZM112.055 24.6094H122.055V19.0234H112.055H102.055V24.6094H112.055ZM112.055 19.0234V29.0234H116.996V19.0234V9.02344H112.055V19.0234ZM116.996 19.0234H126.996V10H116.996L106.996 10V19.0234H116.996ZM116.996 10V20H123.871V10V0L116.996 0V10ZM161.598 10.0859H171.598C171.598 4.56309 167.12 0.0859375 161.598 0.0859375V10.0859ZM161.598 38.3164V48.3164C167.12 48.3164 171.598 43.8393 171.598 38.3164H161.598ZM154.68 38.3164H144.68C144.68 43.8393 149.157 48.3164 154.68 48.3164V38.3164ZM154.68 10.0859V0.0859375C149.157 0.0859375 144.68 4.56309 144.68 10.0859H154.68ZM162.543 43.6875H172.543C172.543 38.1647 168.066 33.6875 162.543 33.6875V43.6875ZM162.543 49.1875V59.1875C168.066 59.1875 172.543 54.7103 172.543 49.1875H162.543ZM134.398 49.1875H124.398C124.398 54.7103 128.876 59.1875 134.398 59.1875V49.1875ZM134.398 35.4805V25.4805C128.876 25.4805 124.398 29.9576 124.398 35.4805H134.398ZM141.359 35.4805H151.359C151.359 29.9576 146.882 25.4805 141.359 25.4805V35.4805ZM141.359 43.6875L131.359 43.6875C131.359 49.2103 135.837 53.6875 141.359 53.6875V43.6875ZM128.512 22.6328L138.511 22.7042C138.512 22.6561 138.512 22.608 138.511 22.5598L128.512 22.6328ZM161.598 10.0859H151.598V38.3164H161.598H171.598V10.0859H161.598ZM161.598 38.3164V28.3164H154.68V38.3164V48.3164H161.598V38.3164ZM154.68 38.3164H164.68V10.0859H154.68H144.68V38.3164H154.68ZM154.68 10.0859V20.0859H161.598V10.0859V0.0859375H154.68V10.0859ZM162.543 43.6875H152.543V49.1875H162.543H172.543V43.6875H162.543ZM162.543 49.1875V39.1875L134.398 39.1875V49.1875V59.1875L162.543 59.1875V49.1875ZM134.398 49.1875L144.398 49.1875V35.4805L134.398 35.4805H124.398V49.1875H134.398ZM134.398 35.4805V45.4805L141.359 45.4805V35.4805V25.4805H134.398V35.4805ZM141.359 35.4805L131.359 35.4805V43.6875L141.359 43.6875H151.359V35.4805H141.359ZM141.359 43.6875V53.6875H162.543V43.6875V33.6875H141.359V43.6875ZM139.641 12.4492V22.4492C140.427 22.4492 140.778 22.7145 140.831 22.7625C140.857 22.7856 140.83 22.7678 140.799 22.6996C140.764 22.6226 140.77 22.582 140.77 22.6328H150.77H160.77C160.77 10.2688 150.346 2.44922 139.641 2.44922V12.4492ZM150.77 22.6328H140.77C140.77 22.7467 140.751 22.7399 140.781 22.6728C140.808 22.6131 140.836 22.5906 140.82 22.6043C140.79 22.6322 140.452 22.9023 139.641 22.9023V32.9023V42.9023C150.375 42.9023 160.77 35.0994 160.77 22.6328H150.77ZM139.641 32.9023V22.9023C138.823 22.9023 138.471 22.6277 138.435 22.5954C138.42 22.5816 138.454 22.6101 138.488 22.6851C138.525 22.7686 138.511 22.7961 138.511 22.7042L128.512 22.6328L118.512 22.5614C118.422 35.147 128.979 42.9023 139.641 42.9023V32.9023ZM128.512 22.6328L138.511 22.5598C138.511 22.5318 138.513 22.5937 138.47 22.6872C138.432 22.7708 138.398 22.7945 138.424 22.7714C138.482 22.7191 138.848 22.4492 139.641 22.4492V12.4492V2.44922C129.01 2.44922 118.421 10.2208 118.512 22.7058L128.512 22.6328ZM139.641 18.4219V8.42187C136.591 8.42187 132.891 9.281 129.824 12.0143C126.587 14.899 125.215 18.8404 125.215 22.6328H135.215H145.215C145.215 23.6323 144.788 25.4682 143.13 26.9457C141.642 28.2717 140.155 28.4219 139.641 28.4219V18.4219ZM135.215 22.6328H125.215C125.215 26.3614 126.503 30.361 129.796 33.3174C132.915 36.1181 136.663 36.9297 139.641 36.9297V26.9297V16.9297C140.083 16.9297 141.619 17.0538 143.158 18.4365C144.872 19.9749 145.215 21.8261 145.215 22.6328H135.215ZM139.641 26.9297V36.9297C142.672 36.9297 146.388 36.0539 149.449 33.2485C152.655 30.3089 153.938 26.3568 153.938 22.6328H143.938H133.938C133.938 21.8307 134.274 20.027 135.934 18.5054C137.448 17.118 139.015 16.9297 139.641 16.9297V26.9297ZM143.938 22.6328H153.938C153.938 18.8465 152.573 14.9508 149.421 12.0829C146.413 9.347 142.745 8.42187 139.641 8.42187V18.4219V28.4219C138.943 28.4219 137.423 28.2057 135.962 26.8771C134.357 25.4164 133.938 23.6261 133.938 22.6328H143.938Z" fill="white" mask="url(#path-1-outside-1_6524_1744)"/>
</g>
<defs>
<filter id="filter0_d_6524_1744" x="0" y="0" width="176.543" height="67.875" filterUnits="userSpaceOnUse" color-interpolation-filters="sRGB">
<feFlood flood-opacity="0" result="BackgroundImageFix"/>
<feColorMatrix in="SourceAlpha" type="matrix" values="0 0 0 0 0 0 0 0 0 0 0 0 0 0 0 0 0 0 127 0" result="hardAlpha"/>
<feOffset dy="4"/>
<feGaussianBlur stdDeviation="2"/>
<feComposite in2="hardAlpha" operator="out"/>
<feColorMatrix type="matrix" values="0 0 0 0 0 0 0 0 0 0 0 0 0 0 0 0 0 0 0.07 0"/>
<feBlend mode="normal" in2="BackgroundImageFix" result="effect1_dropShadow_6524_1744"/>
<feBlend mode="normal" in="SourceGraphic" in2="effect1_dropShadow_6524_1744" result="shape"/>
</filter>
</defs>
</svg>
