<svg width="350" height="68" viewBox="0 0 350 68" fill="none" xmlns="http://www.w3.org/2000/svg">
<g filter="url(#filter0_d_6524_1870)">
<mask id="path-1-outside-1_6524_1870" maskUnits="userSpaceOnUse" x="3.09766" y="-0.507813" width="343" height="61" fill="black">
<rect fill="white" x="3.09766" y="-0.507813" width="343" height="61"/>
<path d="M46.3125 11.7617V15.1133C46.3125 18.1855 46.3125 21.6445 45.4961 25.8984H50.1797V31.3555H14L14 25.8984H38.4492C39.1797 22.4824 39.3516 19.7539 39.4375 17.2188H18.3398V11.7617L46.3125 11.7617ZM32.1328 33.8477C40.8125 33.8047 46.2695 36.8125 46.2695 41.8828C46.2695 46.9531 40.8125 49.7891 32.1328 49.7461C23.4102 49.7891 17.8672 46.9531 17.9102 41.8828C17.8672 36.8125 23.4102 33.8047 32.1328 33.8477ZM32.1328 39.3047C27.1484 39.3047 24.8281 39.9922 24.8281 41.8828C24.8281 43.6016 27.1484 44.332 32.1328 44.332C37.0312 44.332 39.3516 43.6016 39.3516 41.8828C39.3516 39.9922 37.0312 39.3047 32.1328 39.3047ZM85.8438 10V33.5898H78.9688V24.8242L73.9844 24.8242V19.2812L78.9688 19.2812V10H85.8438ZM72.0078 34.2344C80.6445 34.2344 85.9297 37.1133 85.9297 42.0547C85.9297 46.9531 80.6445 49.875 72.0078 49.875C63.457 49.875 58.1719 46.9531 58.1719 42.0547C58.1719 37.1133 63.457 34.2344 72.0078 34.2344ZM72.0078 39.4336C67.2812 39.4336 65.0039 40.1641 65.0469 42.0547C65.0039 43.9023 67.2812 44.6758 72.0078 44.6758C76.7773 44.6758 79.0977 43.9023 79.0977 42.0547C79.0977 40.1641 76.7773 39.4336 72.0078 39.4336ZM75.0586 12.1055V17.6055H67.8828C68.291 21.5801 70.6113 25.5762 76.4766 27.4883L73.168 32.8594C68.9141 31.5488 66.0996 28.9707 64.3594 25.7695C62.6406 29.4219 59.6543 32.3652 55.0781 33.8477L51.5117 28.3906C57.8496 26.3711 60.2344 21.8594 60.6641 17.6055H53.4453V12.1055H75.0586ZM113.086 11.9336V17.3477H105.867C106.211 21.3652 108.51 25.4902 114.504 27.4453L111.195 32.7305C106.92 31.4629 104.084 28.9062 102.387 25.6836C100.625 29.25 97.6602 32.1074 93.1055 33.4609L89.582 28.0469C95.9844 26.1348 98.3262 21.5801 98.7344 17.3477H91.4727V11.9336L113.086 11.9336ZM123.871 35.1367V49.7461H116.996V40.5938H96.2422V35.1367H123.871ZM123.871 10V33.6328H116.996V24.6094H112.055V19.0234H116.996V10H123.871ZM148.793 11.7187C155.023 11.7187 159.793 15.7148 159.793 21.2578C159.793 26.9727 155.023 30.9258 148.793 30.9258C142.52 30.9258 137.707 26.9727 137.707 21.2578C137.707 15.7148 142.52 11.7187 148.793 11.7187ZM148.793 17.3477C146.301 17.3477 144.453 18.7227 144.496 21.2578C144.453 23.9219 146.301 25.168 148.793 25.2109C151.242 25.168 153.047 23.9219 153.047 21.2578C153.047 18.7227 151.242 17.3477 148.793 17.3477ZM169.461 10V17.9492H174.402V23.5352H169.461V31.6133H162.543V10H169.461ZM149.652 33.0742V36.082H162.543V33.0742H169.461V49.4023H142.777V33.0742H149.652ZM149.652 43.9023H162.543V41.2812H149.652V43.9023ZM207.488 10V19.3672H212.43V24.9102H207.488V33.8047H200.57V10H207.488ZM207.488 35.3086V49.7461H200.57V40.7656H180.289V35.3086H207.488ZM183.383 12.5781V17.2187H189.355V12.5781H196.23V32.1719H176.551V12.5781H183.383ZM183.383 26.7578H189.355V22.5039H183.383V26.7578ZM231.852 10.5156C241.176 10.5156 246.504 12.8789 246.547 17.2187C246.504 21.6016 241.176 23.9648 231.852 23.9648C222.484 23.9648 217.07 21.6016 217.113 17.2187C217.07 12.8789 222.484 10.5156 231.852 10.5156ZM231.852 15.5C226.48 15.5 224.332 16.0156 224.332 17.2187C224.332 18.6797 226.48 18.9375 231.852 18.9805C237.266 18.9375 239.414 18.6797 239.414 17.2187C239.414 16.0156 237.266 15.5 231.852 15.5ZM249.984 25.2969V30.7539H213.719V25.2969H249.984ZM245.688 32.2578V43.2148H224.504V44.5039H246.633V49.5742H217.758V38.4883H238.898V37.2852H217.801V32.2578H245.688ZM297.594 31.4844V36.9414H282.727V49.7891H275.895V36.9414H261.328V31.4844H297.594ZM294.457 11.8906V17.1758H283.715C284.424 20.2266 287.646 23.5566 296.133 24.4805L293.641 29.8516C286.4 29.0137 281.824 26.3066 279.461 22.6328C277.119 26.3066 272.586 29.0137 265.367 29.8516L262.875 24.4805C271.254 23.5566 274.477 20.2266 275.293 17.1758H264.508V11.8906H294.457ZM331.711 20.0977V25.4258H303.609V11.418H310.484V20.0977H331.711ZM335.621 28.9492V34.2773H299.355V28.9492H335.621ZM331.969 43.4727V48.9727H303.137V37.0273H310.098V43.4727H331.969Z"/>
</mask>
<path d="M46.3125 11.7617V15.1133C46.3125 18.1855 46.3125 21.6445 45.4961 25.8984H50.1797V31.3555H14L14 25.8984H38.4492C39.1797 22.4824 39.3516 19.7539 39.4375 17.2188H18.3398V11.7617L46.3125 11.7617ZM32.1328 33.8477C40.8125 33.8047 46.2695 36.8125 46.2695 41.8828C46.2695 46.9531 40.8125 49.7891 32.1328 49.7461C23.4102 49.7891 17.8672 46.9531 17.9102 41.8828C17.8672 36.8125 23.4102 33.8047 32.1328 33.8477ZM32.1328 39.3047C27.1484 39.3047 24.8281 39.9922 24.8281 41.8828C24.8281 43.6016 27.1484 44.332 32.1328 44.332C37.0312 44.332 39.3516 43.6016 39.3516 41.8828C39.3516 39.9922 37.0312 39.3047 32.1328 39.3047ZM85.8438 10V33.5898H78.9688V24.8242L73.9844 24.8242V19.2812L78.9688 19.2812V10H85.8438ZM72.0078 34.2344C80.6445 34.2344 85.9297 37.1133 85.9297 42.0547C85.9297 46.9531 80.6445 49.875 72.0078 49.875C63.457 49.875 58.1719 46.9531 58.1719 42.0547C58.1719 37.1133 63.457 34.2344 72.0078 34.2344ZM72.0078 39.4336C67.2812 39.4336 65.0039 40.1641 65.0469 42.0547C65.0039 43.9023 67.2812 44.6758 72.0078 44.6758C76.7773 44.6758 79.0977 43.9023 79.0977 42.0547C79.0977 40.1641 76.7773 39.4336 72.0078 39.4336ZM75.0586 12.1055V17.6055H67.8828C68.291 21.5801 70.6113 25.5762 76.4766 27.4883L73.168 32.8594C68.9141 31.5488 66.0996 28.9707 64.3594 25.7695C62.6406 29.4219 59.6543 32.3652 55.0781 33.8477L51.5117 28.3906C57.8496 26.3711 60.2344 21.8594 60.6641 17.6055H53.4453V12.1055H75.0586ZM113.086 11.9336V17.3477H105.867C106.211 21.3652 108.51 25.4902 114.504 27.4453L111.195 32.7305C106.92 31.4629 104.084 28.9062 102.387 25.6836C100.625 29.25 97.6602 32.1074 93.1055 33.4609L89.582 28.0469C95.9844 26.1348 98.3262 21.5801 98.7344 17.3477H91.4727V11.9336L113.086 11.9336ZM123.871 35.1367V49.7461H116.996V40.5938H96.2422V35.1367H123.871ZM123.871 10V33.6328H116.996V24.6094H112.055V19.0234H116.996V10H123.871ZM148.793 11.7187C155.023 11.7187 159.793 15.7148 159.793 21.2578C159.793 26.9727 155.023 30.9258 148.793 30.9258C142.52 30.9258 137.707 26.9727 137.707 21.2578C137.707 15.7148 142.52 11.7187 148.793 11.7187ZM148.793 17.3477C146.301 17.3477 144.453 18.7227 144.496 21.2578C144.453 23.9219 146.301 25.168 148.793 25.2109C151.242 25.168 153.047 23.9219 153.047 21.2578C153.047 18.7227 151.242 17.3477 148.793 17.3477ZM169.461 10V17.9492H174.402V23.5352H169.461V31.6133H162.543V10H169.461ZM149.652 33.0742V36.082H162.543V33.0742H169.461V49.4023H142.777V33.0742H149.652ZM149.652 43.9023H162.543V41.2812H149.652V43.9023ZM207.488 10V19.3672H212.43V24.9102H207.488V33.8047H200.57V10H207.488ZM207.488 35.3086V49.7461H200.57V40.7656H180.289V35.3086H207.488ZM183.383 12.5781V17.2187H189.355V12.5781H196.23V32.1719H176.551V12.5781H183.383ZM183.383 26.7578H189.355V22.5039H183.383V26.7578ZM231.852 10.5156C241.176 10.5156 246.504 12.8789 246.547 17.2187C246.504 21.6016 241.176 23.9648 231.852 23.9648C222.484 23.9648 217.07 21.6016 217.113 17.2187C217.07 12.8789 222.484 10.5156 231.852 10.5156ZM231.852 15.5C226.48 15.5 224.332 16.0156 224.332 17.2187C224.332 18.6797 226.48 18.9375 231.852 18.9805C237.266 18.9375 239.414 18.6797 239.414 17.2187C239.414 16.0156 237.266 15.5 231.852 15.5ZM249.984 25.2969V30.7539H213.719V25.2969H249.984ZM245.688 32.2578V43.2148H224.504V44.5039H246.633V49.5742H217.758V38.4883H238.898V37.2852H217.801V32.2578H245.688ZM297.594 31.4844V36.9414H282.727V49.7891H275.895V36.9414H261.328V31.4844H297.594ZM294.457 11.8906V17.1758H283.715C284.424 20.2266 287.646 23.5566 296.133 24.4805L293.641 29.8516C286.4 29.0137 281.824 26.3066 279.461 22.6328C277.119 26.3066 272.586 29.0137 265.367 29.8516L262.875 24.4805C271.254 23.5566 274.477 20.2266 275.293 17.1758H264.508V11.8906H294.457ZM331.711 20.0977V25.4258H303.609V11.418H310.484V20.0977H331.711ZM335.621 28.9492V34.2773H299.355V28.9492H335.621ZM331.969 43.4727V48.9727H303.137V37.0273H310.098V43.4727H331.969Z" fill="#11DCA9"/>
<path d="M46.3125 11.7617H56.3125C56.3125 6.23887 51.8353 1.76172 46.3125 1.76172V11.7617ZM45.4961 25.8984L35.6753 24.0136C35.1132 26.9425 35.8877 29.9694 37.7874 32.2684C39.6871 34.5673 42.5138 35.8984 45.4961 35.8984V25.8984ZM50.1797 25.8984H60.1797C60.1797 20.3756 55.7025 15.8984 50.1797 15.8984V25.8984ZM50.1797 31.3555V41.3555C55.7025 41.3555 60.1797 36.8783 60.1797 31.3555H50.1797ZM14 31.3555H4C4 36.8783 8.47715 41.3555 14 41.3555V31.3555ZM14 25.8984V15.8984C8.47715 15.8984 4 20.3756 4 25.8984H14ZM38.4492 25.8984V35.8984C43.1662 35.8984 47.2418 32.6022 48.2281 27.9895L38.4492 25.8984ZM39.4375 17.2188L49.4318 17.5575C49.5236 14.8482 48.5115 12.2176 46.6273 10.2685C44.7432 8.31938 42.1484 7.21875 39.4375 7.21875V17.2188ZM18.3398 17.2188H8.33984C8.33984 22.7416 12.817 27.2188 18.3398 27.2188V17.2188ZM18.3398 11.7617V1.76172C12.817 1.76172 8.33984 6.23887 8.33984 11.7617H18.3398ZM32.1328 33.8477L32.0836 43.8475C32.1165 43.8477 32.1494 43.8477 32.1823 43.8475L32.1328 33.8477ZM32.1328 49.7461L32.1823 39.7462C32.1494 39.7461 32.1165 39.7461 32.0836 39.7462L32.1328 49.7461ZM17.9102 41.8828L27.9098 41.9676C27.9103 41.9111 27.9103 41.8546 27.9098 41.7981L17.9102 41.8828ZM46.3125 11.7617L36.3125 11.7617V15.1133H46.3125H56.3125V11.7617H46.3125ZM46.3125 15.1133H36.3125C36.3125 18.1552 36.2964 20.7772 35.6753 24.0136L45.4961 25.8984L55.3169 27.7832C56.3285 22.5118 56.3125 18.2159 56.3125 15.1133H46.3125ZM45.4961 25.8984V35.8984H50.1797V25.8984V15.8984H45.4961V25.8984ZM50.1797 25.8984H40.1797V31.3555H50.1797H60.1797V25.8984H50.1797ZM50.1797 31.3555V21.3555H14L14 31.3555V41.3555H50.1797V31.3555ZM14 31.3555H24V25.8984H14H4L4 31.3555H14ZM14 25.8984L14 35.8984H38.4492V25.8984V15.8984H14V25.8984ZM38.4492 25.8984L48.2281 27.9895C49.1336 23.7553 49.3365 20.369 49.4318 17.5575L39.4375 17.2188L29.4432 16.88C29.3667 19.1388 29.2258 21.2095 28.6703 23.8073L38.4492 25.8984ZM39.4375 17.2188V7.21875H18.3398V17.2188V27.2188H39.4375V17.2188ZM18.3398 17.2188H28.3398V11.7617H18.3398H8.33984V17.2188H18.3398ZM18.3398 11.7617V21.7617H46.3125V11.7617V1.76172L18.3398 1.76172V11.7617ZM32.1328 33.8477L32.1823 43.8475C33.7875 43.8396 35.0534 43.9752 35.9948 44.1682C36.9528 44.3646 37.4201 44.5884 37.5462 44.6594C37.6574 44.7221 37.2958 44.545 36.9003 43.9375C36.4636 43.2666 36.2695 42.5014 36.2695 41.8828H46.2695H56.2695C56.2695 35.0242 52.2845 30.0082 47.3659 27.2361C42.8412 24.686 37.3745 23.8216 32.0833 23.8478L32.1328 33.8477ZM46.2695 41.8828H36.2695C36.2695 41.2598 36.4669 40.4559 36.9414 39.7386C37.3704 39.0902 37.7687 38.8977 37.6635 38.9552C37.5417 39.0217 37.0673 39.2421 36.0825 39.4348C35.1163 39.624 33.8218 39.7543 32.1823 39.7462L32.1328 49.7461L32.0833 59.746C37.2914 59.7718 42.7295 58.9763 47.2486 56.5087C52.214 53.7973 56.2695 48.804 56.2695 41.8828H46.2695ZM32.1328 49.7461L32.0836 39.7462C30.4309 39.7544 29.1176 39.6236 28.1313 39.432C27.1253 39.2367 26.6313 39.0116 26.4947 38.9377C26.372 38.8713 26.7769 39.0603 27.217 39.7227C27.7076 40.4612 27.9154 41.3018 27.9098 41.9676L17.9102 41.8828L7.91052 41.7981C7.85095 48.827 12.01 53.8391 16.974 56.5262C21.5034 58.978 26.9591 59.7717 32.1821 59.746L32.1328 49.7461ZM17.9102 41.8828L27.9098 41.7981C27.9154 42.4598 27.7105 43.2614 27.2583 43.9534C26.8518 44.5752 26.4836 44.7492 26.6117 44.6777C26.7523 44.5992 27.239 44.3705 28.2184 44.1712C29.1801 43.9756 30.4649 43.8396 32.0836 43.8475L32.1328 33.8477L32.1821 23.8478C26.8767 23.8216 21.3925 24.6839 16.857 27.2178C11.9383 29.9659 7.85148 35.0019 7.91052 41.9676L17.9102 41.8828ZM32.1328 39.3047V29.3047C29.5344 29.3047 26.2768 29.4384 23.3984 30.415C21.861 30.9366 19.6651 31.9469 17.8146 34.0162C15.7522 36.3223 14.8281 39.1487 14.8281 41.8828H24.8281H34.8281C34.8281 43.6717 34.1941 45.7031 32.7226 47.3485C31.4628 48.7572 30.1585 49.2412 29.8243 49.3546C29.4509 49.4812 29.3956 49.442 29.9067 49.3897C30.3736 49.3419 31.0897 49.3047 32.1328 49.3047V39.3047ZM24.8281 41.8828H14.8281C14.8281 44.8395 15.933 47.6883 18.0272 49.8872C19.8734 51.8257 22.0101 52.7634 23.4745 53.2472C26.2833 54.1751 29.4641 54.332 32.1328 54.332V44.332V34.332C31.1076 34.332 30.3922 34.2934 29.9211 34.2445C29.4095 34.1914 29.4241 34.1496 29.7482 34.2567C30.0095 34.343 31.2545 34.7759 32.5099 36.094C34.0133 37.6726 34.8281 39.7855 34.8281 41.8828H24.8281ZM32.1328 44.332V54.332C34.769 54.332 37.9352 54.1742 40.7414 53.2388C42.2051 52.7509 44.3327 51.8082 46.1695 49.8707C48.2492 47.677 49.3516 44.8368 49.3516 41.8828H39.3516H29.3516C29.3516 39.7882 30.1639 37.6838 31.6554 36.1105C32.9042 34.7934 34.1455 34.3556 34.4168 34.2651C34.7493 34.1543 34.7755 34.1939 34.2812 34.2459C33.8271 34.2937 33.1321 34.332 32.1328 34.332V44.332ZM39.3516 41.8828H49.3516C49.3516 39.1506 48.4293 36.3333 46.3815 34.0331C44.541 31.9656 42.3549 30.95 40.818 30.4238C37.9417 29.4391 34.6981 29.3047 32.1328 29.3047V39.3047V49.3047C33.1503 49.3047 33.8459 49.3417 34.2958 49.3883C34.7894 49.4395 34.7222 49.4765 34.3402 49.3457C33.9957 49.2278 32.6958 48.7385 31.4434 47.3317C29.9838 45.6921 29.3516 43.6697 29.3516 41.8828H39.3516ZM85.8438 10H95.8438C95.8438 4.47715 91.3666 0 85.8438 0V10ZM85.8438 33.5898V43.5898C91.3666 43.5898 95.8438 39.1127 95.8438 33.5898H85.8438ZM78.9688 33.5898H68.9688C68.9688 39.1127 73.4459 43.5898 78.9688 43.5898V33.5898ZM78.9688 24.8242H88.9688C88.9688 19.3014 84.4916 14.8242 78.9688 14.8242V24.8242ZM73.9844 24.8242H63.9844C63.9844 30.3471 68.4615 34.8242 73.9844 34.8242V24.8242ZM73.9844 19.2812V9.28125C68.4615 9.28125 63.9844 13.7584 63.9844 19.2812H73.9844ZM78.9688 19.2812V29.2812C84.4916 29.2812 88.9688 24.8041 88.9688 19.2812H78.9688ZM78.9688 10V0C73.4459 0 68.9688 4.47715 68.9688 10H78.9688ZM65.0469 42.0547L75.0442 42.2872C75.0477 42.134 75.0478 41.9807 75.0443 41.8275L65.0469 42.0547ZM75.0586 12.1055H85.0586C85.0586 6.58262 80.5814 2.10547 75.0586 2.10547V12.1055ZM75.0586 17.6055V27.6055C80.5814 27.6055 85.0586 23.1283 85.0586 17.6055L75.0586 17.6055ZM67.8828 17.6055V7.60547C65.0529 7.60547 62.3554 8.80453 60.4593 10.9053C58.5632 13.0062 57.646 15.812 57.9351 18.6271L67.8828 17.6055ZM76.4766 27.4883L84.9908 32.7331C86.5985 30.1232 86.9204 26.9202 85.8642 24.0426C84.808 21.1651 82.4904 18.9308 79.5761 17.9808L76.4766 27.4883ZM73.168 32.8594L70.2237 42.4161C74.5796 43.7581 79.2917 41.9848 81.6822 38.1041L73.168 32.8594ZM64.3594 25.7695L73.1451 20.9934C71.345 17.6822 67.8362 15.6643 64.069 15.7738C60.3017 15.8832 56.916 18.1014 55.3112 21.5116L64.3594 25.7695ZM55.0781 33.8477L46.7073 39.3184C49.1756 43.0953 53.8675 44.7514 58.1599 43.3609L55.0781 33.8477ZM51.5117 28.3906L48.4757 18.8626C45.4991 19.8111 43.1369 22.0961 42.09 25.0394C41.043 27.9828 41.4318 31.2463 43.1409 33.8613L51.5117 28.3906ZM60.6641 17.6055L70.6134 18.6105C70.8975 15.7977 69.9778 12.9962 68.0819 10.8991C66.186 8.80207 63.4911 7.60547 60.6641 7.60547V17.6055ZM53.4453 17.6055H43.4453C43.4453 23.1283 47.9225 27.6055 53.4453 27.6055V17.6055ZM53.4453 12.1055V2.10547C47.9225 2.10547 43.4453 6.58262 43.4453 12.1055L53.4453 12.1055ZM85.8438 10H75.8438V33.5898H85.8438H95.8438V10H85.8438ZM85.8438 33.5898V23.5898H78.9688V33.5898V43.5898H85.8438V33.5898ZM78.9688 33.5898H88.9688V24.8242H78.9688L68.9688 24.8242V33.5898H78.9688ZM78.9688 24.8242V14.8242L73.9844 14.8242V24.8242V34.8242H78.9688V24.8242ZM73.9844 24.8242L83.9844 24.8242V19.2812L73.9844 19.2812H63.9844V24.8242H73.9844ZM73.9844 19.2812V29.2812H78.9688V19.2812V9.28125H73.9844V19.2812ZM78.9688 19.2812H88.9688V10H78.9688H68.9688V19.2812L78.9688 19.2812ZM78.9688 10V20H85.8438V10V0L78.9688 0V10ZM72.0078 34.2344V44.2344C73.6304 44.2344 74.8996 44.3712 75.8374 44.5616C76.7929 44.7555 77.2403 44.9714 77.3411 45.0275C77.425 45.0742 77.0237 44.8702 76.5977 44.2182C76.1293 43.5014 75.9297 42.6952 75.9297 42.0547H85.9297H95.9297C95.9297 35.2516 91.9762 30.2863 87.0739 27.5555C82.6044 25.0657 77.211 24.2344 72.0078 24.2344V34.2344ZM85.9297 42.0547H75.9297C75.9297 41.3866 76.1383 40.5745 76.6029 39.865C77.0246 39.2211 77.4172 39.0231 77.3262 39.074C77.2202 39.1333 76.7701 39.3506 75.819 39.5455C74.885 39.737 73.6216 39.875 72.0078 39.875V49.875V59.875C77.234 59.875 82.6257 59.0256 87.0888 56.5295C91.9573 53.8066 95.9297 48.8554 95.9297 42.0547H85.9297ZM72.0078 49.875V39.875C70.4214 39.875 69.1785 39.7379 68.26 39.5484C67.3247 39.3553 66.8831 39.1406 66.7813 39.0834C66.6941 39.0344 67.0843 39.2329 67.5026 39.8732C67.9636 40.5786 68.1719 41.387 68.1719 42.0547H58.1719H48.1719C48.1719 48.8478 52.1356 53.7955 56.9853 56.5201C61.4373 59.0212 66.8107 59.875 72.0078 59.875V49.875ZM58.1719 42.0547H68.1719C68.1719 42.6948 67.9726 43.4973 67.5079 44.2101C67.0851 44.8584 66.6864 45.063 66.7663 45.0182C66.8629 44.9642 67.3018 44.7509 68.2415 44.5588C69.1638 44.3702 70.4125 44.2344 72.0078 44.2344V34.2344V24.2344C66.8338 24.2344 61.4588 25.07 57.0003 27.5648C52.1167 30.2974 48.1719 35.2592 48.1719 42.0547H58.1719ZM72.0078 39.4336V29.4336C69.4823 29.4336 66.2321 29.5812 63.3284 30.6347C61.7709 31.1997 59.5944 32.2766 57.7998 34.4095C55.819 36.7637 54.9883 39.5902 55.0495 42.2819L65.0469 42.0547L75.0443 41.8275C75.084 43.5739 74.5218 45.6 73.1036 47.2856C71.8717 48.7498 70.5518 49.2896 70.1492 49.4356C69.7173 49.5923 69.5948 49.5641 70.0303 49.5155C70.4221 49.4717 71.0569 49.4336 72.0078 49.4336V39.4336ZM65.0469 42.0547L55.0496 41.8222C54.9858 44.5629 55.8532 47.3821 57.819 49.7045C59.5964 51.8043 61.7438 52.8764 63.2898 53.4445C66.1916 54.5107 69.4357 54.6758 72.0078 54.6758V44.6758V34.6758C71.0734 34.6758 70.4494 34.6362 70.0678 34.5921C69.6444 34.5432 69.7634 34.5158 70.1877 34.6717C70.579 34.8155 71.8697 35.3478 73.0844 36.7829C74.4877 38.4407 75.0864 40.4703 75.0442 42.2872L65.0469 42.0547ZM72.0078 44.6758V54.6758C74.6083 54.6758 77.8421 54.5082 80.7346 53.4648C82.27 52.9109 84.3897 51.8732 86.1722 49.8449C88.1451 47.5998 89.0977 44.8269 89.0977 42.0547H79.0977H69.0977C69.0977 40.2063 69.7601 38.2229 71.1489 36.6426C72.3473 35.2789 73.5889 34.781 73.948 34.6514C74.342 34.5093 74.4327 34.5405 73.9938 34.5906C73.5946 34.6361 72.9547 34.6758 72.0078 34.6758V44.6758ZM79.0977 42.0547H89.0977C89.0977 39.3294 88.1819 36.547 86.192 34.2689C84.3916 32.2078 82.2428 31.1656 80.6965 30.6148C77.802 29.5839 74.5623 29.4336 72.0078 29.4336V39.4336V49.4336C72.971 49.4336 73.6217 49.4718 74.0309 49.5169C74.4817 49.5667 74.3876 49.5985 73.9861 49.4555C73.6161 49.3237 72.3455 48.8186 71.1292 47.4262C69.7234 45.8167 69.0977 43.8347 69.0977 42.0547H79.0977ZM75.0586 12.1055H65.0586V17.6055H75.0586L85.0586 17.6055V12.1055H75.0586ZM75.0586 17.6055V7.60547H67.8828V17.6055V27.6055H75.0586V17.6055ZM67.8828 17.6055L57.9351 18.6271C58.7267 26.334 63.563 33.7964 73.377 36.9958L76.4766 27.4883L79.5761 17.9808C78.9042 17.7617 78.5094 17.541 78.2993 17.3996C78.0953 17.2624 78.0167 17.1678 77.9939 17.1389C77.9716 17.1105 77.8718 16.9857 77.8305 16.5838L67.8828 17.6055ZM76.4766 27.4883L67.9623 22.2435L64.6537 27.6146L73.168 32.8594L81.6822 38.1041L84.9908 32.7331L76.4766 27.4883ZM73.168 32.8594L76.1122 23.3026C75.1837 23.0166 74.6031 22.6575 74.2159 22.3354C73.822 22.0078 73.4649 21.5818 73.1451 20.9934L64.3594 25.7695L55.5737 30.5457C58.5064 35.9405 63.3643 40.3029 70.2237 42.4161L73.168 32.8594ZM64.3594 25.7695L55.3112 21.5116C54.7079 22.7935 53.8085 23.7473 51.9964 24.3344L55.0781 33.8477L58.1599 43.3609C65.5001 40.9831 70.5733 36.0503 73.4076 30.0275L64.3594 25.7695ZM55.0781 33.8477L63.449 28.3769L59.8826 22.9199L51.5117 28.3906L43.1409 33.8613L46.7073 39.3184L55.0781 33.8477ZM51.5117 28.3906L54.5478 37.9186C65.2043 34.523 69.8414 26.2539 70.6134 18.6105L60.6641 17.6055L50.7147 16.6005C50.6482 17.2589 50.4648 17.6219 50.3196 17.8144C50.2299 17.9335 49.8465 18.4258 48.4757 18.8626L51.5117 28.3906ZM60.6641 17.6055V7.60547H53.4453V17.6055V27.6055H60.6641V17.6055ZM53.4453 17.6055H63.4453V12.1055H53.4453L43.4453 12.1055V17.6055H53.4453ZM53.4453 12.1055V22.1055H75.0586V12.1055V2.10547L53.4453 2.10547V12.1055ZM113.086 11.9336H123.086C123.086 6.41075 118.609 1.93359 113.086 1.93359V11.9336ZM113.086 17.3477V27.3477C118.609 27.3477 123.086 22.8705 123.086 17.3477H113.086ZM105.867 17.3477V7.34766C103.067 7.34766 100.395 8.52187 98.5009 10.5847C96.607 12.6475 95.6649 15.41 95.9036 18.2002L105.867 17.3477ZM114.504 27.4453L122.98 32.7515C124.613 30.1428 124.954 26.9274 123.904 24.0343C122.854 21.1411 120.531 18.8926 117.605 17.9382L114.504 27.4453ZM111.195 32.7305L108.353 42.318C112.659 43.5947 117.288 41.8437 119.671 38.0367L111.195 32.7305ZM102.387 25.6836L111.235 21.0237C109.483 17.6983 106.015 15.6357 102.257 15.6844C98.4989 15.7332 95.0855 17.885 93.4209 21.2547L102.387 25.6836ZM93.1055 33.4609L84.7241 38.9155C87.1397 42.6273 91.7089 44.3082 95.954 43.0466L93.1055 33.4609ZM89.582 28.0469L86.7204 18.4651C83.6995 19.3673 81.281 21.6412 80.1946 24.6008C79.1081 27.5604 79.481 30.859 81.2006 33.5014L89.582 28.0469ZM98.7344 17.3477L108.688 18.3077C108.959 15.5015 108.032 12.7115 106.137 10.6246C104.242 8.53762 101.554 7.34766 98.7344 7.34766V17.3477ZM91.4727 17.3477H81.4727C81.4727 22.8705 85.9498 27.3477 91.4727 27.3477V17.3477ZM91.4727 11.9336V1.93359C85.9498 1.93359 81.4727 6.41075 81.4727 11.9336H91.4727ZM123.871 35.1367H133.871C133.871 29.6139 129.394 25.1367 123.871 25.1367V35.1367ZM123.871 49.7461V59.7461C129.394 59.7461 133.871 55.2689 133.871 49.7461H123.871ZM116.996 49.7461H106.996C106.996 55.2689 111.473 59.7461 116.996 59.7461V49.7461ZM116.996 40.5938H126.996C126.996 35.0709 122.519 30.5938 116.996 30.5938V40.5938ZM96.2422 40.5938H86.2422C86.2422 46.1166 90.7193 50.5938 96.2422 50.5938V40.5938ZM96.2422 35.1367V25.1367C90.7193 25.1367 86.2422 29.6139 86.2422 35.1367H96.2422ZM123.871 10H133.871C133.871 4.47715 129.394 0 123.871 0V10ZM123.871 33.6328V43.6328C129.394 43.6328 133.871 39.1557 133.871 33.6328H123.871ZM116.996 33.6328H106.996C106.996 39.1557 111.473 43.6328 116.996 43.6328V33.6328ZM116.996 24.6094H126.996C126.996 19.0865 122.519 14.6094 116.996 14.6094V24.6094ZM112.055 24.6094H102.055C102.055 30.1322 106.532 34.6094 112.055 34.6094V24.6094ZM112.055 19.0234V9.02344C106.532 9.02344 102.055 13.5006 102.055 19.0234H112.055ZM116.996 19.0234V29.0234C122.519 29.0234 126.996 24.5463 126.996 19.0234H116.996ZM116.996 10V0C111.473 0 106.996 4.47715 106.996 10L116.996 10ZM113.086 11.9336L103.086 11.9336V17.3477H113.086H123.086V11.9336H113.086ZM113.086 17.3477V7.34766L105.867 7.34766V17.3477V27.3477H113.086V17.3477ZM105.867 17.3477L95.9036 18.2002C96.2124 21.8092 97.4317 25.7441 100.139 29.2653C102.879 32.8285 106.728 35.4276 111.403 36.9524L114.504 27.4453L117.605 17.9382C116.916 17.7137 116.515 17.4865 116.303 17.3422C116.097 17.2021 116.018 17.1052 115.994 17.0746C115.968 17.0401 115.866 16.9037 115.831 16.4952L105.867 17.3477ZM114.504 27.4453L106.028 22.1391L102.719 27.4243L111.195 32.7305L119.671 38.0367L122.98 32.7515L114.504 27.4453ZM111.195 32.7305L114.038 23.143C113.105 22.8663 112.542 22.5185 112.187 22.2254C111.828 21.9295 111.512 21.55 111.235 21.0237L102.387 25.6836L93.5388 30.3435C96.4751 35.9188 101.459 40.274 108.353 42.318L111.195 32.7305ZM102.387 25.6836L93.4209 21.2547C92.7957 22.5204 91.9426 23.3743 90.2569 23.8752L93.1055 33.4609L95.954 43.0466C103.378 40.8405 108.454 35.9796 111.352 30.1125L102.387 25.6836ZM93.1055 33.4609L101.487 28.0064L97.9634 22.5923L89.582 28.0469L81.2006 33.5014L84.7241 38.9155L93.1055 33.4609ZM89.582 28.0469L92.4437 37.6287C97.5144 36.1143 101.566 33.3369 104.392 29.5854C107.152 25.9231 108.345 21.8708 108.688 18.3077L98.7344 17.3477L88.7806 16.3876C88.716 17.057 88.5335 17.3982 88.4195 17.5494C88.362 17.6258 88.2602 17.7403 88.0518 17.8813C87.838 18.026 87.4303 18.253 86.7204 18.4651L89.582 28.0469ZM98.7344 17.3477V7.34766H91.4727V17.3477V27.3477H98.7344V17.3477ZM91.4727 17.3477H101.473V11.9336H91.4727H81.4727V17.3477H91.4727ZM91.4727 11.9336V21.9336H113.086V11.9336V1.93359L91.4727 1.93359V11.9336ZM123.871 35.1367H113.871V49.7461H123.871H133.871V35.1367H123.871ZM123.871 49.7461V39.7461H116.996V49.7461V59.7461H123.871V49.7461ZM116.996 49.7461H126.996V40.5938H116.996H106.996V49.7461H116.996ZM116.996 40.5938V30.5938H96.2422V40.5938V50.5938H116.996V40.5938ZM96.2422 40.5938H106.242V35.1367H96.2422H86.2422V40.5938H96.2422ZM96.2422 35.1367V45.1367H123.871V35.1367V25.1367H96.2422V35.1367ZM123.871 10H113.871V33.6328H123.871H133.871V10H123.871ZM123.871 33.6328V23.6328H116.996V33.6328V43.6328H123.871V33.6328ZM116.996 33.6328H126.996V24.6094H116.996H106.996V33.6328H116.996ZM116.996 24.6094V14.6094H112.055V24.6094V34.6094H116.996V24.6094ZM112.055 24.6094H122.055V19.0234H112.055H102.055V24.6094H112.055ZM112.055 19.0234V29.0234H116.996V19.0234V9.02344H112.055V19.0234ZM116.996 19.0234H126.996V10H116.996L106.996 10V19.0234H116.996ZM116.996 10V20H123.871V10V0L116.996 0V10ZM144.496 21.2578L154.495 21.4191C154.497 21.3088 154.497 21.1986 154.495 21.0883L144.496 21.2578ZM148.793 25.2109L148.621 35.2094C148.737 35.2114 148.852 35.2114 148.968 35.2094L148.793 25.2109ZM169.461 10L179.461 10C179.461 4.47715 174.984 0 169.461 0V10ZM169.461 17.9492H159.461C159.461 23.4721 163.938 27.9492 169.461 27.9492V17.9492ZM174.402 17.9492H184.402C184.402 12.4264 179.925 7.94922 174.402 7.94922V17.9492ZM174.402 23.5352V33.5352C179.925 33.5352 184.402 29.058 184.402 23.5352H174.402ZM169.461 23.5352V13.5352C163.938 13.5352 159.461 18.0123 159.461 23.5352H169.461ZM169.461 31.6133V41.6133C174.984 41.6133 179.461 37.1361 179.461 31.6133H169.461ZM162.543 31.6133H152.543C152.543 37.1361 157.02 41.6133 162.543 41.6133V31.6133ZM162.543 10V0C157.02 0 152.543 4.47715 152.543 10H162.543ZM149.652 33.0742H159.652C159.652 27.5514 155.175 23.0742 149.652 23.0742V33.0742ZM149.652 36.082L139.652 36.082C139.652 41.6049 144.13 46.082 149.652 46.082V36.082ZM162.543 36.082V46.082C168.066 46.082 172.543 41.6049 172.543 36.082H162.543ZM162.543 33.0742V23.0742C157.02 23.0742 152.543 27.5514 152.543 33.0742H162.543ZM169.461 33.0742H179.461C179.461 27.5514 174.984 23.0742 169.461 23.0742V33.0742ZM169.461 49.4023V59.4023C174.984 59.4023 179.461 54.9252 179.461 49.4023H169.461ZM142.777 49.4023L132.777 49.4023C132.777 54.9252 137.254 59.4023 142.777 59.4023V49.4023ZM142.777 33.0742V23.0742C137.254 23.0742 132.777 27.5514 132.777 33.0742L142.777 33.0742ZM149.652 43.9023L139.652 43.9023C139.652 49.4252 144.13 53.9023 149.652 53.9023V43.9023ZM162.543 43.9023V53.9023C168.066 53.9023 172.543 49.4252 172.543 43.9023H162.543ZM162.543 41.2812H172.543C172.543 35.7584 168.066 31.2812 162.543 31.2812V41.2812ZM149.652 41.2812V31.2812C144.13 31.2812 139.652 35.7584 139.652 41.2812L149.652 41.2812ZM148.793 11.7187V21.7187C149.8 21.7187 150.161 22.0359 150.116 21.9979C150.09 21.9755 149.993 21.88 149.906 21.6957C149.815 21.5017 149.793 21.3322 149.793 21.2578H159.793H169.793C169.793 8.81301 159.058 1.71875 148.793 1.71875V11.7187ZM159.793 21.2578H149.793C149.793 21.2714 149.796 21.1505 149.878 20.9727C149.957 20.8021 150.053 20.7014 150.093 20.6671C150.165 20.6046 149.826 20.9258 148.793 20.9258V30.9258V40.9258C159.121 40.9258 169.793 33.82 169.793 21.2578H159.793ZM148.793 30.9258V20.9258C147.72 20.9258 147.348 20.5929 147.404 20.6408C147.437 20.6691 147.533 20.7674 147.615 20.9429C147.654 21.0253 147.679 21.1036 147.693 21.1691C147.708 21.2346 147.707 21.2675 147.707 21.2578H137.707H127.707C127.707 33.89 138.503 40.9258 148.793 40.9258V30.9258ZM137.707 21.2578H147.707C147.707 21.3463 147.682 21.5264 147.587 21.7258C147.497 21.9146 147.399 22.0076 147.38 22.024C147.352 22.0478 147.746 21.7187 148.793 21.7187V11.7187V1.71875C138.566 1.71875 127.707 8.74334 127.707 21.2578H137.707ZM148.793 17.3477V7.34766C145.808 7.34766 142.196 8.17019 139.173 10.7707C135.931 13.5595 134.431 17.4915 134.498 21.4273L144.496 21.2578L154.495 21.0883C154.518 22.489 153.921 24.4659 152.215 25.9334C150.728 27.2126 149.286 27.3477 148.793 27.3477V17.3477ZM144.496 21.2578L134.497 21.0965C134.435 24.9763 135.855 28.9917 139.234 31.8511C142.311 34.4547 145.908 35.1627 148.621 35.2094L148.793 25.2109L148.965 15.2124C149.186 15.2162 150.612 15.2796 152.153 16.5834C152.958 17.2642 153.609 18.1433 154.023 19.1302C154.425 20.0901 154.503 20.912 154.495 21.4191L144.496 21.2578ZM148.793 25.2109L148.968 35.2094C151.708 35.1613 155.294 34.429 158.351 31.806C161.664 28.9626 163.047 25.0237 163.047 21.2578H153.047H143.047C143.047 20.156 143.527 18.1721 145.326 16.6285C146.868 15.3054 148.327 15.2176 148.618 15.2125L148.793 25.2109ZM153.047 21.2578H163.047C163.047 17.4444 161.592 13.5905 158.412 10.8164C155.412 8.19895 151.809 7.34766 148.793 7.34766V17.3477V27.3477C148.226 27.3477 146.75 27.1839 145.265 25.8877C143.599 24.4349 143.047 22.5361 143.047 21.2578H153.047ZM169.461 10H159.461V17.9492H169.461H179.461V10L169.461 10ZM169.461 17.9492V27.9492H174.402V17.9492V7.94922L169.461 7.94922V17.9492ZM174.402 17.9492H164.402V23.5352H174.402H184.402V17.9492H174.402ZM174.402 23.5352V13.5352H169.461V23.5352V33.5352H174.402V23.5352ZM169.461 23.5352H159.461V31.6133H169.461H179.461V23.5352H169.461ZM169.461 31.6133V21.6133H162.543V31.6133V41.6133H169.461V31.6133ZM162.543 31.6133H172.543V10H162.543H152.543V31.6133H162.543ZM162.543 10V20H169.461V10V0L162.543 0V10ZM149.652 33.0742L139.652 33.0742V36.082L149.652 36.082H159.652V33.0742H149.652ZM149.652 36.082V46.082H162.543V36.082V26.082H149.652V36.082ZM162.543 36.082H172.543V33.0742H162.543H152.543V36.082H162.543ZM162.543 33.0742V43.0742H169.461V33.0742V23.0742H162.543V33.0742ZM169.461 33.0742H159.461V49.4023H169.461H179.461V33.0742H169.461ZM169.461 49.4023V39.4023H142.777V49.4023V59.4023H169.461V49.4023ZM142.777 49.4023H152.777V33.0742H142.777L132.777 33.0742V49.4023L142.777 49.4023ZM142.777 33.0742V43.0742H149.652V33.0742V23.0742H142.777V33.0742ZM149.652 43.9023V53.9023H162.543V43.9023V33.9023H149.652V43.9023ZM162.543 43.9023H172.543V41.2812H162.543H152.543V43.9023H162.543ZM162.543 41.2812V31.2812H149.652V41.2812V51.2812H162.543V41.2812ZM149.652 41.2812L139.652 41.2812V43.9023L149.652 43.9023H159.652V41.2812H149.652ZM207.488 10H217.488C217.488 4.47715 213.011 0 207.488 0V10ZM207.488 19.3672L197.488 19.3672C197.488 24.89 201.965 29.3672 207.488 29.3672V19.3672ZM212.43 19.3672H222.43C222.43 13.8443 217.953 9.36719 212.43 9.36719V19.3672ZM212.43 24.9102V34.9102C217.953 34.9102 222.43 30.433 222.43 24.9102H212.43ZM207.488 24.9102V14.9102C201.965 14.9102 197.488 19.3873 197.488 24.9102L207.488 24.9102ZM207.488 33.8047V43.8047C213.011 43.8047 217.488 39.3275 217.488 33.8047H207.488ZM200.57 33.8047H190.57C190.57 39.3275 195.047 43.8047 200.57 43.8047V33.8047ZM200.57 10V0C195.047 0 190.57 4.47715 190.57 10H200.57ZM207.488 35.3086H217.488C217.488 29.7857 213.011 25.3086 207.488 25.3086V35.3086ZM207.488 49.7461V59.7461C213.011 59.7461 217.488 55.2689 217.488 49.7461H207.488ZM200.57 49.7461H190.57C190.57 55.2689 195.047 59.7461 200.57 59.7461V49.7461ZM200.57 40.7656H210.57C210.57 35.2428 206.093 30.7656 200.57 30.7656V40.7656ZM180.289 40.7656H170.289C170.289 46.2885 174.766 50.7656 180.289 50.7656V40.7656ZM180.289 35.3086V25.3086C174.766 25.3086 170.289 29.7857 170.289 35.3086H180.289ZM183.383 12.5781H193.383C193.383 7.05528 188.906 2.57812 183.383 2.57812V12.5781ZM183.383 17.2187H173.383C173.383 22.7416 177.86 27.2187 183.383 27.2187V17.2187ZM189.355 17.2187V27.2187C194.878 27.2187 199.355 22.7416 199.355 17.2187H189.355ZM189.355 12.5781V2.57812C183.833 2.57812 179.355 7.05528 179.355 12.5781H189.355ZM196.23 12.5781L206.23 12.5781C206.23 7.05528 201.753 2.57812 196.23 2.57812V12.5781ZM196.23 32.1719V42.1719C201.753 42.1719 206.23 37.6947 206.23 32.1719H196.23ZM176.551 32.1719H166.551C166.551 37.6947 171.028 42.1719 176.551 42.1719V32.1719ZM176.551 12.5781V2.57812C171.028 2.57812 166.551 7.05528 166.551 12.5781H176.551ZM183.383 26.7578H173.383C173.383 32.2807 177.86 36.7578 183.383 36.7578V26.7578ZM189.355 26.7578V36.7578C194.878 36.7578 199.355 32.2807 199.355 26.7578H189.355ZM189.355 22.5039H199.355C199.355 16.9811 194.878 12.5039 189.355 12.5039V22.5039ZM183.383 22.5039V12.5039C177.86 12.5039 173.383 16.9811 173.383 22.5039H183.383ZM207.488 10H197.488V19.3672L207.488 19.3672H217.488V10H207.488ZM207.488 19.3672V29.3672H212.43V19.3672V9.36719H207.488V19.3672ZM212.43 19.3672L202.43 19.3672V24.9102L212.43 24.9102H222.43V19.3672H212.43ZM212.43 24.9102V14.9102H207.488V24.9102V34.9102H212.43V24.9102ZM207.488 24.9102L197.488 24.9102V33.8047H207.488H217.488V24.9102H207.488ZM207.488 33.8047V23.8047L200.57 23.8047V33.8047V43.8047H207.488V33.8047ZM200.57 33.8047H210.57V10H200.57H190.57V33.8047H200.57ZM200.57 10V20L207.488 20V10V0H200.57V10ZM207.488 35.3086H197.488V49.7461H207.488H217.488V35.3086H207.488ZM207.488 49.7461V39.7461H200.57V49.7461V59.7461H207.488V49.7461ZM200.57 49.7461H210.57V40.7656H200.57H190.57V49.7461H200.57ZM200.57 40.7656V30.7656H180.289V40.7656V50.7656H200.57V40.7656ZM180.289 40.7656H190.289V35.3086H180.289H170.289V40.7656H180.289ZM180.289 35.3086V45.3086H207.488V35.3086V25.3086L180.289 25.3086V35.3086ZM183.383 12.5781H173.383V17.2187H183.383H193.383V12.5781H183.383ZM183.383 17.2187V27.2187H189.355V17.2187V7.21875H183.383V17.2187ZM189.355 17.2187H199.355V12.5781H189.355H179.355V17.2187H189.355ZM189.355 12.5781V22.5781H196.23V12.5781V2.57812H189.355V12.5781ZM196.23 12.5781H186.23V32.1719H196.23H206.23V12.5781L196.23 12.5781ZM196.23 32.1719V22.1719H176.551V32.1719V42.1719H196.23V32.1719ZM176.551 32.1719H186.551V12.5781H176.551H166.551V32.1719H176.551ZM176.551 12.5781V22.5781H183.383V12.5781V2.57812H176.551V12.5781ZM183.383 26.7578V36.7578H189.355V26.7578V16.7578H183.383V26.7578ZM189.355 26.7578H199.355V22.5039H189.355H179.355V26.7578H189.355ZM189.355 22.5039V12.5039H183.383V22.5039V32.5039H189.355V22.5039ZM183.383 22.5039H173.383V26.7578H183.383H193.383V22.5039H183.383ZM246.547 17.2187L256.546 17.3168C256.547 17.2511 256.547 17.1854 256.546 17.1197L246.547 17.2187ZM217.113 17.2187L227.113 17.3168C227.113 17.2511 227.113 17.1854 227.113 17.1197L217.113 17.2187ZM231.852 18.9805L231.772 28.9801C231.825 28.9806 231.878 28.9806 231.931 28.9802L231.852 18.9805ZM249.984 25.2969H259.984C259.984 19.774 255.507 15.2969 249.984 15.2969V25.2969ZM249.984 30.7539V40.7539C255.507 40.7539 259.984 36.2768 259.984 30.7539H249.984ZM213.719 30.7539H203.719C203.719 36.2768 208.196 40.7539 213.719 40.7539V30.7539ZM213.719 25.2969V15.2969C208.196 15.2969 203.719 19.774 203.719 25.2969L213.719 25.2969ZM245.688 32.2578H255.688C255.688 26.735 251.21 22.2578 245.688 22.2578V32.2578ZM245.688 43.2148V53.2148C251.21 53.2148 255.688 48.7377 255.688 43.2148H245.688ZM224.504 43.2148V33.2148C218.981 33.2148 214.504 37.692 214.504 43.2148H224.504ZM224.504 44.5039H214.504C214.504 50.0268 218.981 54.5039 224.504 54.5039V44.5039ZM246.633 44.5039H256.633C256.633 38.9811 252.156 34.5039 246.633 34.5039V44.5039ZM246.633 49.5742V59.5742C252.156 59.5742 256.633 55.0971 256.633 49.5742H246.633ZM217.758 49.5742H207.758C207.758 55.0971 212.235 59.5742 217.758 59.5742V49.5742ZM217.758 38.4883V28.4883C212.235 28.4883 207.758 32.9654 207.758 38.4883H217.758ZM238.898 38.4883V48.4883C244.421 48.4883 248.898 44.0111 248.898 38.4883H238.898ZM238.898 37.2852H248.898C248.898 31.7623 244.421 27.2852 238.898 27.2852V37.2852ZM217.801 37.2852H207.801C207.801 42.808 212.278 47.2852 217.801 47.2852V37.2852ZM217.801 32.2578V22.2578C212.278 22.2578 207.801 26.735 207.801 32.2578H217.801ZM231.852 10.5156V20.5156C233.78 20.5156 235.319 20.6392 236.498 20.8275C237.703 21.02 238.333 21.249 238.555 21.3494C238.785 21.4538 238.277 21.2804 237.67 20.505C236.962 19.6003 236.558 18.4288 236.547 17.3178L246.547 17.2187L256.546 17.1197C256.474 9.78613 251.523 5.26676 246.804 3.13007C242.417 1.14355 237.105 0.515625 231.852 0.515625V10.5156ZM246.547 17.2187L236.547 17.1207C236.558 16.0441 236.946 14.8886 237.648 13.985C238.252 13.2084 238.762 13.0316 238.539 13.133C238.322 13.2315 237.697 13.4603 236.494 13.6529C235.318 13.8412 233.78 13.9648 231.852 13.9648V23.9648V33.9648C237.102 33.9648 242.424 33.3378 246.821 31.3377C251.575 29.1749 256.475 24.6299 256.546 17.3168L246.547 17.2187ZM231.852 23.9648V13.9648C229.91 13.9648 228.355 13.841 227.161 13.6512C225.939 13.4568 225.299 13.2253 225.073 13.1231C224.835 13.0155 225.366 13.1961 225.992 14.0048C226.726 14.9544 227.124 16.1768 227.113 17.3168L217.113 17.2187L207.114 17.1207C207.04 24.6082 212.096 29.2059 216.835 31.3476C221.24 33.3391 226.586 33.9648 231.852 33.9648V23.9648ZM217.113 17.2187L227.113 17.1197C227.124 18.2952 226.711 19.5344 225.97 20.4852C225.341 21.2927 224.811 21.4698 225.056 21.3593C225.288 21.2552 225.933 21.0234 227.158 20.8292C228.354 20.6394 229.91 20.5156 231.852 20.5156V10.5156V0.515625C226.583 0.515625 221.247 1.14229 216.851 3.12017C212.149 5.23532 207.039 9.80756 207.114 17.3178L217.113 17.2187ZM231.852 15.5V5.5C229.103 5.5 226.233 5.60872 223.826 6.16502C222.67 6.43215 220.627 7.01263 218.689 8.49003C216.314 10.3003 214.332 13.3361 214.332 17.2187H224.332H234.332C234.332 18.6243 234.001 20.1198 233.25 21.5217C232.522 22.8801 231.586 23.807 230.814 24.3952C230.068 24.9644 229.409 25.2695 229.039 25.4187C228.658 25.5729 228.396 25.636 228.329 25.6514C228.225 25.6754 228.425 25.623 229.111 25.5748C229.758 25.5294 230.65 25.5 231.852 25.5V15.5ZM224.332 17.2187H214.332C214.332 20.5239 215.77 23.706 218.471 25.8861C220.594 27.5992 222.877 28.1787 224.033 28.4201C226.388 28.9121 229.296 28.9603 231.772 28.9801L231.852 18.9805L231.932 8.98079C230.636 8.97042 229.682 8.94762 228.964 8.90785C228.196 8.86526 228.002 8.81754 228.122 8.84263C228.204 8.85961 228.522 8.92924 228.975 9.10871C229.423 9.2859 230.191 9.64408 231.032 10.3225C231.92 11.0393 232.831 12.0705 233.481 13.4499C234.127 14.8216 234.332 16.1475 234.332 17.2187H224.332ZM231.852 18.9805L231.931 28.9802C234.427 28.9603 237.342 28.912 239.699 28.4219C240.854 28.1817 243.14 27.6047 245.265 25.8933C247.974 23.7125 249.414 20.5264 249.414 17.2187H239.414H229.414C229.414 16.1476 229.619 14.8198 230.267 13.4457C230.919 12.0637 231.832 11.0318 232.722 10.3153C233.564 9.63745 234.333 9.28046 234.779 9.10441C235.232 8.92603 235.548 8.85723 235.627 8.84082C235.742 8.81682 235.543 8.86492 234.767 8.90766C234.042 8.94759 233.079 8.97041 231.772 8.98078L231.852 18.9805ZM239.414 17.2187H249.414C249.414 13.3329 247.428 10.294 245.047 8.48317C243.107 7.00718 241.061 6.42878 239.905 6.16284C237.497 5.60863 234.619 5.5 231.852 5.5V15.5V25.5C233.065 25.5 233.967 25.5295 234.622 25.5751C235.315 25.6235 235.52 25.6765 235.421 25.6536C235.357 25.6388 235.096 25.5764 234.715 25.4232C234.347 25.2749 233.688 24.9708 232.94 24.4021C232.167 23.8142 231.229 22.8868 230.499 21.5261C229.746 20.1218 229.414 18.6244 229.414 17.2187H239.414ZM249.984 25.2969H239.984V30.7539H249.984H259.984V25.2969H249.984ZM249.984 30.7539V20.7539H213.719V30.7539V40.7539H249.984V30.7539ZM213.719 30.7539H223.719V25.2969H213.719L203.719 25.2969V30.7539H213.719ZM213.719 25.2969V35.2969H249.984V25.2969V15.2969H213.719V25.2969ZM245.688 32.2578H235.688V43.2148H245.688H255.688V32.2578H245.688ZM245.688 43.2148V33.2148H224.504V43.2148V53.2148H245.688V43.2148ZM224.504 43.2148H214.504V44.5039H224.504H234.504V43.2148H224.504ZM224.504 44.5039V54.5039H246.633V44.5039V34.5039H224.504V44.5039ZM246.633 44.5039H236.633V49.5742H246.633H256.633V44.5039H246.633ZM246.633 49.5742V39.5742H217.758V49.5742V59.5742H246.633V49.5742ZM217.758 49.5742H227.758V38.4883H217.758H207.758V49.5742H217.758ZM217.758 38.4883V48.4883H238.898V38.4883V28.4883H217.758V38.4883ZM238.898 38.4883H248.898V37.2852H238.898H228.898V38.4883H238.898ZM238.898 37.2852V27.2852H217.801V37.2852V47.2852H238.898V37.2852ZM217.801 37.2852H227.801V32.2578H217.801H207.801V37.2852H217.801ZM217.801 32.2578V42.2578H245.688V32.2578V22.2578H217.801V32.2578ZM297.594 31.4844H307.594C307.594 25.9615 303.117 21.4844 297.594 21.4844V31.4844ZM297.594 36.9414V46.9414C303.117 46.9414 307.594 42.4643 307.594 36.9414H297.594ZM282.727 36.9414V26.9414C277.204 26.9414 272.727 31.4186 272.727 36.9414H282.727ZM282.727 49.7891V59.7891C288.249 59.7891 292.727 55.3119 292.727 49.7891H282.727ZM275.895 49.7891H265.895C265.895 55.3119 270.372 59.7891 275.895 59.7891V49.7891ZM275.895 36.9414H285.895C285.895 31.4186 281.417 26.9414 275.895 26.9414V36.9414ZM261.328 36.9414H251.328C251.328 42.4643 255.805 46.9414 261.328 46.9414V36.9414ZM261.328 31.4844V21.4844C255.805 21.4844 251.328 25.9615 251.328 31.4844H261.328ZM294.457 11.8906L304.457 11.8906C304.457 6.36778 299.98 1.89062 294.457 1.89062V11.8906ZM294.457 17.1758V27.1758C299.98 27.1758 304.457 22.6986 304.457 17.1758H294.457ZM283.715 17.1758V7.17578C280.665 7.17578 277.781 8.56785 275.884 10.9563C273.987 13.3448 273.284 16.4684 273.974 19.4394L283.715 17.1758ZM296.133 24.4805L305.204 28.6894C306.56 25.7668 306.425 22.3698 304.841 19.5641C303.257 16.7585 300.418 14.8879 297.215 14.5392L296.133 24.4805ZM293.641 29.8516L292.491 39.7853C296.776 40.2812 300.896 37.9735 302.712 34.0605L293.641 29.8516ZM279.461 22.6328L287.871 17.2228C286.027 14.3558 282.849 12.6258 279.44 12.6328C276.031 12.6399 272.861 14.3831 271.028 17.2577L279.461 22.6328ZM265.367 29.8516L256.296 34.0605C258.112 37.9746 262.234 40.2824 266.52 39.7849L265.367 29.8516ZM262.875 24.4805L261.779 14.5407C258.579 14.8935 255.744 16.7655 254.164 19.5701C252.583 22.3748 252.449 25.769 253.804 28.6894L262.875 24.4805ZM275.293 17.1758L284.953 19.7609C285.757 16.7582 285.118 13.5526 283.226 11.0869C281.333 8.62119 278.401 7.17578 275.293 7.17578V17.1758ZM264.508 17.1758H254.508C254.508 22.6986 258.985 27.1758 264.508 27.1758V17.1758ZM264.508 11.8906V1.89062C258.985 1.89062 254.508 6.36778 254.508 11.8906H264.508ZM297.594 31.4844H287.594V36.9414H297.594H307.594V31.4844H297.594ZM297.594 36.9414V26.9414H282.727V36.9414V46.9414H297.594V36.9414ZM282.727 36.9414H272.727V49.7891H282.727H292.727V36.9414H282.727ZM282.727 49.7891V39.7891H275.895V49.7891V59.7891H282.727V49.7891ZM275.895 49.7891H285.895V36.9414H275.895H265.895V49.7891H275.895ZM275.895 36.9414V26.9414H261.328V36.9414V46.9414H275.895V36.9414ZM261.328 36.9414H271.328V31.4844H261.328H251.328V36.9414H261.328ZM261.328 31.4844V41.4844H297.594V31.4844V21.4844H261.328V31.4844ZM294.457 11.8906H284.457V17.1758H294.457H304.457V11.8906L294.457 11.8906ZM294.457 17.1758V7.17578H283.715V17.1758V27.1758H294.457V17.1758ZM283.715 17.1758L273.974 19.4394C276.076 28.4819 284.608 33.2849 295.051 34.4217L296.133 24.4805L297.215 14.5392C294.033 14.1928 292.828 13.4908 292.63 13.3563C292.556 13.3057 292.711 13.3967 292.925 13.7C293.142 14.0066 293.341 14.4197 293.455 14.9122L283.715 17.1758ZM296.133 24.4805L287.062 20.2715L284.57 25.6426L293.641 29.8516L302.712 34.0605L305.204 28.6894L296.133 24.4805ZM293.641 29.8516L294.79 19.9179C289.417 19.2961 288.094 17.5692 287.871 17.2228L279.461 22.6328L271.051 28.0429C275.554 35.0441 283.383 38.7313 292.491 39.7853L293.641 29.8516ZM279.461 22.6328L271.028 17.2577C270.817 17.5895 269.543 19.2998 264.214 19.9183L265.367 29.8516L266.52 39.7849C275.629 38.7276 283.421 35.0238 287.893 28.0079L279.461 22.6328ZM265.367 29.8516L274.438 25.6426L271.946 20.2715L262.875 24.4805L253.804 28.6894L256.296 34.0605L265.367 29.8516ZM262.875 24.4805L263.971 34.4202C274.498 33.2595 282.641 28.4007 284.953 19.7609L275.293 17.1758L265.633 14.5907C265.74 14.1895 265.91 13.8534 266.09 13.6045C266.27 13.3568 266.388 13.2946 266.297 13.3563C266.076 13.5063 264.881 14.1987 261.779 14.5407L262.875 24.4805ZM275.293 17.1758V7.17578H264.508V17.1758V27.1758H275.293V17.1758ZM264.508 17.1758H274.508V11.8906H264.508H254.508V17.1758H264.508ZM264.508 11.8906V21.8906H294.457V11.8906V1.89062L264.508 1.89062V11.8906ZM331.711 20.0977L341.711 20.0977C341.711 14.5748 337.234 10.0977 331.711 10.0977V20.0977ZM331.711 25.4258V35.4258C337.234 35.4258 341.711 30.9486 341.711 25.4258L331.711 25.4258ZM303.609 25.4258H293.609C293.609 30.9486 298.087 35.4258 303.609 35.4258V25.4258ZM303.609 11.418V1.41797C298.087 1.41797 293.609 5.89512 293.609 11.418L303.609 11.418ZM310.484 11.418H320.484C320.484 5.89512 316.007 1.41797 310.484 1.41797V11.418ZM310.484 20.0977H300.484C300.484 25.6205 304.962 30.0977 310.484 30.0977V20.0977ZM335.621 28.9492H345.621C345.621 23.4264 341.144 18.9492 335.621 18.9492V28.9492ZM335.621 34.2773V44.2773C341.144 44.2773 345.621 39.8002 345.621 34.2773H335.621ZM299.355 34.2773H289.355C289.355 39.8002 293.833 44.2773 299.355 44.2773V34.2773ZM299.355 28.9492V18.9492C293.833 18.9492 289.355 23.4264 289.355 28.9492H299.355ZM331.969 43.4727H341.969C341.969 37.9498 337.492 33.4727 331.969 33.4727V43.4727ZM331.969 48.9727V58.9727C337.492 58.9727 341.969 54.4955 341.969 48.9727H331.969ZM303.137 48.9727H293.137C293.137 54.4955 297.614 58.9727 303.137 58.9727V48.9727ZM303.137 37.0273V27.0273C297.614 27.0273 293.137 31.5045 293.137 37.0273H303.137ZM310.098 37.0273H320.098C320.098 31.5045 315.621 27.0273 310.098 27.0273V37.0273ZM310.098 43.4727H300.098C300.098 48.9955 304.575 53.4727 310.098 53.4727V43.4727ZM331.711 20.0977H321.711V25.4258H331.711L341.711 25.4258V20.0977L331.711 20.0977ZM331.711 25.4258V15.4258H303.609V25.4258V35.4258H331.711V25.4258ZM303.609 25.4258H313.609V11.418H303.609L293.609 11.418V25.4258H303.609ZM303.609 11.418V21.418H310.484V11.418V1.41797H303.609V11.418ZM310.484 11.418L300.484 11.418V20.0977H310.484H320.484V11.418H310.484ZM310.484 20.0977V30.0977H331.711V20.0977V10.0977H310.484V20.0977ZM335.621 28.9492H325.621V34.2773H335.621H345.621V28.9492H335.621ZM335.621 34.2773V24.2773L299.355 24.2773V34.2773V44.2773H335.621V34.2773ZM299.355 34.2773H309.355V28.9492H299.355H289.355V34.2773H299.355ZM299.355 28.9492V38.9492H335.621V28.9492V18.9492L299.355 18.9492V28.9492ZM331.969 43.4727H321.969V48.9727H331.969H341.969V43.4727H331.969ZM331.969 48.9727V38.9727H303.137V48.9727V58.9727H331.969V48.9727ZM303.137 48.9727H313.137V37.0273H303.137H293.137V48.9727H303.137ZM303.137 37.0273V47.0273H310.098V37.0273V27.0273H303.137V37.0273ZM310.098 37.0273H300.098V43.4727H310.098H320.098V37.0273H310.098ZM310.098 43.4727V53.4727H331.969V43.4727V33.4727H310.098V43.4727Z" fill="white" mask="url(#path-1-outside-1_6524_1870)"/>
</g>
<defs>
<filter id="filter0_d_6524_1870" x="0" y="0" width="349.621" height="67.875" filterUnits="userSpaceOnUse" color-interpolation-filters="sRGB">
<feFlood flood-opacity="0" result="BackgroundImageFix"/>
<feColorMatrix in="SourceAlpha" type="matrix" values="0 0 0 0 0 0 0 0 0 0 0 0 0 0 0 0 0 0 127 0" result="hardAlpha"/>
<feOffset dy="4"/>
<feGaussianBlur stdDeviation="2"/>
<feComposite in2="hardAlpha" operator="out"/>
<feColorMatrix type="matrix" values="0 0 0 0 0 0 0 0 0 0 0 0 0 0 0 0 0 0 0.07 0"/>
<feBlend mode="normal" in2="BackgroundImageFix" result="effect1_dropShadow_6524_1870"/>
<feBlend mode="normal" in="SourceGraphic" in2="effect1_dropShadow_6524_1870" result="shape"/>
</filter>
</defs>
</svg>
