<svg width="388" height="68" viewBox="0 0 388 68" fill="none" xmlns="http://www.w3.org/2000/svg">
<g filter="url(#filter0_d_6524_1881)">
<mask id="path-1-outside-1_6524_1881" maskUnits="userSpaceOnUse" x="3.18359" y="-0.507813" width="381" height="61" fill="black">
<rect fill="white" x="3.18359" y="-0.507813" width="381" height="61"/>
<path d="M47.8164 10V49.7461H40.8125V10L47.8164 10ZM35.7852 14.082C35.7852 26.543 32.2617 36.4688 17.5234 43.3438L14 37.9297C23.9258 33.2031 27.9004 27.7461 28.7812 19.4531H16.2773V14.082H35.7852ZM85.0703 11.5469V16.918L75.3164 16.918C76.1543 19.3242 79.2695 21.9883 87.0898 22.7617L84.5977 28.1758C76.7129 27.4023 72.1797 24.459 70.1602 20.6992C68.1191 24.4375 63.6504 27.4023 55.8086 28.1758L53.3594 22.7617C61.1582 21.9883 64.2305 19.3027 65.1328 16.918H55.4219V11.5469H85.0703ZM88.3789 29.3789V34.8359H74.2422V40.8516H67.4102V34.8359H52.1133V29.3789H88.3789ZM84.4258 43.6875V49.1875H56.0664V37.5859H62.9414V43.6875H84.4258ZM123.699 10V49.875H116.738V10H123.699ZM101.871 12.6641C107.93 12.6211 112.484 18.207 112.484 26.9727C112.484 35.8672 107.93 41.4102 101.871 41.4102C95.6836 41.4102 91.0859 35.8672 91.0859 26.9727C91.0859 18.207 95.6836 12.6211 101.871 12.6641ZM101.871 18.8945C99.3359 18.8516 97.7461 21.4727 97.7461 26.9727C97.7461 32.5586 99.3359 35.0938 101.871 35.0938C104.234 35.0938 105.867 32.5586 105.867 26.9727C105.867 21.4727 104.234 18.8516 101.871 18.8945ZM174.016 32.3867V37.6719L137.75 37.6719V32.3867L174.016 32.3867ZM169.805 43.8164V49.1875H141.918V39.3047H148.836V43.8164H169.805ZM172.254 13.0937V18.1641H139.383V13.0937H152.359V10H159.32V13.0937H172.254ZM155.883 19.0234C164.562 19.0234 169.504 21.043 169.504 25.125C169.504 29.0781 164.562 31.2266 155.883 31.2266C147.16 31.2266 142.176 29.0781 142.219 25.125C142.176 21.043 147.16 19.0234 155.883 19.0234ZM155.883 23.75C151.027 23.75 149.223 24.1367 149.266 25.125C149.223 26.1562 151.027 26.4141 155.883 26.4141C160.652 26.4141 162.457 26.1562 162.457 25.125C162.457 24.1367 160.652 23.75 155.883 23.75ZM212.129 24.7812V30.1523H175.777V24.7812L212.129 24.7812ZM207.789 17.9492V23.2773L180.117 23.2773V10.4727H207.531V15.9297L186.949 15.9297V17.9492L207.789 17.9492ZM207.746 31.6992V42.8281H186.562V44.2461H208.691V49.4883H179.816V38.0156H200.957V36.8125H179.859V31.6992H207.746ZM247.406 10V49.875H240.531V10H247.406ZM234.945 13.1367V29.207H222.957V35.1367C228.629 35.0723 233.291 34.75 238.34 33.8906L238.898 39.4336C232.883 40.5508 227.082 40.7656 219.562 40.7656H215.824V23.8359H227.898V18.6367H215.824V13.1367H234.945ZM267.945 19.9687C267.945 26.1992 270.266 33.0742 277.441 35.9961L273.789 41.3672C269.234 39.498 266.291 36.0176 264.594 31.7422C262.854 36.4902 259.867 40.3574 255.227 42.3984L251.359 36.9844C258.492 33.8906 260.898 26.6289 260.898 19.9687V19.2812H253.078V13.6953H275.551V19.2812H267.945V19.9687ZM285.391 10V49.7461H278.43V10H285.391ZM310.312 11.7187C316.543 11.7187 321.184 15.6289 321.184 21C321.184 26.5 316.543 30.4102 310.312 30.4102C304.168 30.4102 299.398 26.5 299.398 21C299.398 15.6289 304.168 11.7187 310.312 11.7187ZM310.312 17.3477C307.906 17.3477 306.059 18.5937 306.102 21C306.059 23.4922 307.906 24.7812 310.312 24.8242C312.719 24.7812 314.48 23.4922 314.523 21C314.48 18.5937 312.719 17.3477 310.312 17.3477ZM331.238 10V17.8633L336.18 17.8633V23.4922L331.238 23.4922V29.5078H324.32V10H331.238ZM309.324 33.0312V43.0859C311.236 42.957 312.805 42.6562 314.438 42.1406L315.383 47.4258C312.375 48.5859 309.539 48.7148 304.984 48.7148H302.578V33.0312H309.324ZM333.988 32.9883V37.9297H314.051V32.9883H320.754V30.625H327.414V32.9883H333.988ZM323.977 38.5742C328.617 38.6172 331.84 40.8086 331.883 44.2461C331.84 47.6836 328.617 49.832 323.977 49.832C319.25 49.832 316.113 47.6836 316.113 44.2461C316.113 40.8086 319.25 38.6172 323.977 38.5742ZM323.977 43.3008C322.988 43.3008 322.215 43.5156 322.215 44.2461C322.215 44.9766 322.988 45.1914 323.977 45.1914C324.965 45.1914 325.738 44.9766 325.738 44.2461C325.738 43.5156 324.965 43.3008 323.977 43.3008ZM369.824 20.0977V25.4258H341.723V11.418H348.598V20.0977H369.824ZM373.734 28.9492V34.2773H337.469V28.9492H373.734ZM370.082 43.4727V48.9727H341.25V37.0273H348.211V43.4727H370.082Z"/>
</mask>
<path d="M47.8164 10V49.7461H40.8125V10L47.8164 10ZM35.7852 14.082C35.7852 26.543 32.2617 36.4688 17.5234 43.3438L14 37.9297C23.9258 33.2031 27.9004 27.7461 28.7812 19.4531H16.2773V14.082H35.7852ZM85.0703 11.5469V16.918L75.3164 16.918C76.1543 19.3242 79.2695 21.9883 87.0898 22.7617L84.5977 28.1758C76.7129 27.4023 72.1797 24.459 70.1602 20.6992C68.1191 24.4375 63.6504 27.4023 55.8086 28.1758L53.3594 22.7617C61.1582 21.9883 64.2305 19.3027 65.1328 16.918H55.4219V11.5469H85.0703ZM88.3789 29.3789V34.8359H74.2422V40.8516H67.4102V34.8359H52.1133V29.3789H88.3789ZM84.4258 43.6875V49.1875H56.0664V37.5859H62.9414V43.6875H84.4258ZM123.699 10V49.875H116.738V10H123.699ZM101.871 12.6641C107.93 12.6211 112.484 18.207 112.484 26.9727C112.484 35.8672 107.93 41.4102 101.871 41.4102C95.6836 41.4102 91.0859 35.8672 91.0859 26.9727C91.0859 18.207 95.6836 12.6211 101.871 12.6641ZM101.871 18.8945C99.3359 18.8516 97.7461 21.4727 97.7461 26.9727C97.7461 32.5586 99.3359 35.0938 101.871 35.0938C104.234 35.0938 105.867 32.5586 105.867 26.9727C105.867 21.4727 104.234 18.8516 101.871 18.8945ZM174.016 32.3867V37.6719L137.75 37.6719V32.3867L174.016 32.3867ZM169.805 43.8164V49.1875H141.918V39.3047H148.836V43.8164H169.805ZM172.254 13.0937V18.1641H139.383V13.0937H152.359V10H159.32V13.0937H172.254ZM155.883 19.0234C164.562 19.0234 169.504 21.043 169.504 25.125C169.504 29.0781 164.562 31.2266 155.883 31.2266C147.16 31.2266 142.176 29.0781 142.219 25.125C142.176 21.043 147.16 19.0234 155.883 19.0234ZM155.883 23.75C151.027 23.75 149.223 24.1367 149.266 25.125C149.223 26.1562 151.027 26.4141 155.883 26.4141C160.652 26.4141 162.457 26.1562 162.457 25.125C162.457 24.1367 160.652 23.75 155.883 23.75ZM212.129 24.7812V30.1523H175.777V24.7812L212.129 24.7812ZM207.789 17.9492V23.2773L180.117 23.2773V10.4727H207.531V15.9297L186.949 15.9297V17.9492L207.789 17.9492ZM207.746 31.6992V42.8281H186.562V44.2461H208.691V49.4883H179.816V38.0156H200.957V36.8125H179.859V31.6992H207.746ZM247.406 10V49.875H240.531V10H247.406ZM234.945 13.1367V29.207H222.957V35.1367C228.629 35.0723 233.291 34.75 238.34 33.8906L238.898 39.4336C232.883 40.5508 227.082 40.7656 219.562 40.7656H215.824V23.8359H227.898V18.6367H215.824V13.1367H234.945ZM267.945 19.9687C267.945 26.1992 270.266 33.0742 277.441 35.9961L273.789 41.3672C269.234 39.498 266.291 36.0176 264.594 31.7422C262.854 36.4902 259.867 40.3574 255.227 42.3984L251.359 36.9844C258.492 33.8906 260.898 26.6289 260.898 19.9687V19.2812H253.078V13.6953H275.551V19.2812H267.945V19.9687ZM285.391 10V49.7461H278.43V10H285.391ZM310.312 11.7187C316.543 11.7187 321.184 15.6289 321.184 21C321.184 26.5 316.543 30.4102 310.312 30.4102C304.168 30.4102 299.398 26.5 299.398 21C299.398 15.6289 304.168 11.7187 310.312 11.7187ZM310.312 17.3477C307.906 17.3477 306.059 18.5937 306.102 21C306.059 23.4922 307.906 24.7812 310.312 24.8242C312.719 24.7812 314.48 23.4922 314.523 21C314.48 18.5937 312.719 17.3477 310.312 17.3477ZM331.238 10V17.8633L336.18 17.8633V23.4922L331.238 23.4922V29.5078H324.32V10H331.238ZM309.324 33.0312V43.0859C311.236 42.957 312.805 42.6562 314.438 42.1406L315.383 47.4258C312.375 48.5859 309.539 48.7148 304.984 48.7148H302.578V33.0312H309.324ZM333.988 32.9883V37.9297H314.051V32.9883H320.754V30.625H327.414V32.9883H333.988ZM323.977 38.5742C328.617 38.6172 331.84 40.8086 331.883 44.2461C331.84 47.6836 328.617 49.832 323.977 49.832C319.25 49.832 316.113 47.6836 316.113 44.2461C316.113 40.8086 319.25 38.6172 323.977 38.5742ZM323.977 43.3008C322.988 43.3008 322.215 43.5156 322.215 44.2461C322.215 44.9766 322.988 45.1914 323.977 45.1914C324.965 45.1914 325.738 44.9766 325.738 44.2461C325.738 43.5156 324.965 43.3008 323.977 43.3008ZM369.824 20.0977V25.4258H341.723V11.418H348.598V20.0977H369.824ZM373.734 28.9492V34.2773H337.469V28.9492H373.734ZM370.082 43.4727V48.9727H341.25V37.0273H348.211V43.4727H370.082Z" fill="#11DCA9"/>
<path d="M47.8164 10H57.8164C57.8164 4.47715 53.3393 0 47.8164 0V10ZM47.8164 49.7461V59.7461C53.3393 59.7461 57.8164 55.2689 57.8164 49.7461H47.8164ZM40.8125 49.7461H30.8125C30.8125 55.2689 35.2897 59.7461 40.8125 59.7461V49.7461ZM40.8125 10V0C35.2897 0 30.8125 4.47715 30.8125 10H40.8125ZM35.7852 14.082H45.7852C45.7852 8.55918 41.308 4.08203 35.7852 4.08203V14.082ZM17.5234 43.3438L9.14204 48.7983C11.8595 52.9739 17.236 54.5123 21.7508 52.4063L17.5234 43.3438ZM14 37.9297L9.70066 28.9011C7.09813 30.1404 5.15697 32.4424 4.37499 35.2169C3.59302 37.9913 4.04631 40.9683 5.6186 43.3842L14 37.9297ZM28.7812 19.4531L38.7253 20.5094C39.0249 17.6892 38.1129 14.8745 36.2164 12.7659C34.3199 10.6573 31.6173 9.45312 28.7812 9.45312V19.4531ZM16.2773 19.4531H6.27734C6.27734 24.976 10.7545 29.4531 16.2773 29.4531V19.4531ZM16.2773 14.082V4.08203C10.7545 4.08203 6.27734 8.55918 6.27734 14.082H16.2773ZM47.8164 10L37.8164 10V49.7461H47.8164H57.8164V10H47.8164ZM47.8164 49.7461V39.7461H40.8125V49.7461V59.7461H47.8164V49.7461ZM40.8125 49.7461H50.8125V10L40.8125 10H30.8125V49.7461H40.8125ZM40.8125 10V20H47.8164V10V0H40.8125V10ZM35.7852 14.082H25.7852C25.7852 19.4566 25.0068 23.132 23.4409 25.9487C21.9585 28.6154 19.2043 31.5252 13.296 34.2812L17.5234 43.3438L21.7508 52.4063C30.5809 48.2873 36.9575 42.7967 40.9214 35.6665C44.8018 28.6864 45.7852 21.1684 45.7852 14.082H35.7852ZM17.5234 43.3438L25.9048 37.8892L22.3814 32.4751L14 37.9297L5.6186 43.3842L9.14204 48.7983L17.5234 43.3438ZM14 37.9297L18.2993 46.9583C24.079 44.2061 29.0262 40.8257 32.6535 36.197C36.3912 31.4275 38.1317 26.0982 38.7253 20.5094L28.7812 19.4531L18.8372 18.3969C18.55 21.101 17.8627 22.6468 16.9114 23.8606C15.8498 25.2154 13.8468 26.9267 9.70066 28.9011L14 37.9297ZM28.7812 19.4531V9.45312H16.2773V19.4531V29.4531H28.7812V19.4531ZM16.2773 19.4531H26.2773V14.082H16.2773H6.27734V19.4531H16.2773ZM16.2773 14.082V24.082H35.7852V14.082V4.08203L16.2773 4.08203V14.082ZM85.0703 11.5469H95.0703C95.0703 6.02403 90.5932 1.54687 85.0703 1.54687V11.5469ZM85.0703 16.918V26.918C90.5932 26.918 95.0703 22.4408 95.0703 16.918H85.0703ZM75.3164 16.918V6.91797C72.0784 6.91797 69.0409 8.48575 67.1652 11.1251C65.2895 13.7644 64.8078 17.1486 65.8726 20.2064L75.3164 16.918ZM87.0898 22.7617L96.1737 26.9432C97.5259 24.0055 97.374 20.5952 95.766 17.7894C94.158 14.9835 91.2923 13.1286 88.0741 12.8103L87.0898 22.7617ZM84.5977 28.1758L83.6214 38.128C87.8617 38.544 91.8999 36.2275 93.6815 32.3572L84.5977 28.1758ZM70.1602 20.6992L78.9697 15.9672C77.233 12.7339 73.8645 10.7118 70.1943 10.6993C66.5241 10.6867 63.1419 12.6858 61.3831 15.9072L70.1602 20.6992ZM55.8086 28.1758L46.6975 32.2975C48.4644 36.2032 52.5241 38.5483 56.7901 38.1275L55.8086 28.1758ZM53.3594 22.7617L52.3725 12.8105C49.1663 13.1285 46.3097 14.9718 44.6989 17.7621C43.0881 20.5524 42.9203 23.9479 44.2483 26.8834L53.3594 22.7617ZM65.1328 16.918L74.4857 20.4569C75.6482 17.3845 75.2276 13.937 73.3605 11.2342C71.4934 8.53137 68.4178 6.91797 65.1328 6.91797V16.918ZM55.4219 16.918H45.4219C45.4219 22.4408 49.899 26.918 55.4219 26.918V16.918ZM55.4219 11.5469V1.54687C49.899 1.54687 45.4219 6.02403 45.4219 11.5469H55.4219ZM88.3789 29.3789H98.3789C98.3789 23.8561 93.9018 19.3789 88.3789 19.3789V29.3789ZM88.3789 34.8359V44.8359C93.9018 44.8359 98.3789 40.3588 98.3789 34.8359H88.3789ZM74.2422 34.8359V24.8359C68.7193 24.8359 64.2422 29.3131 64.2422 34.8359H74.2422ZM74.2422 40.8516V50.8516C79.765 50.8516 84.2422 46.3744 84.2422 40.8516H74.2422ZM67.4102 40.8516H57.4102C57.4102 46.3744 61.8873 50.8516 67.4102 50.8516V40.8516ZM67.4102 34.8359H77.4102C77.4102 29.3131 72.933 24.8359 67.4102 24.8359V34.8359ZM52.1133 34.8359H42.1133C42.1133 40.3588 46.5904 44.8359 52.1133 44.8359V34.8359ZM52.1133 29.3789V19.3789C46.5904 19.3789 42.1133 23.8561 42.1133 29.3789H52.1133ZM84.4258 43.6875H94.4258C94.4258 38.1647 89.9486 33.6875 84.4258 33.6875V43.6875ZM84.4258 49.1875V59.1875C89.9486 59.1875 94.4258 54.7103 94.4258 49.1875H84.4258ZM56.0664 49.1875H46.0664C46.0664 54.7103 50.5436 59.1875 56.0664 59.1875V49.1875ZM56.0664 37.5859V27.5859C50.5436 27.5859 46.0664 32.0631 46.0664 37.5859H56.0664ZM62.9414 37.5859H72.9414C72.9414 32.0631 68.4643 27.5859 62.9414 27.5859V37.5859ZM62.9414 43.6875H52.9414C52.9414 49.2103 57.4186 53.6875 62.9414 53.6875V43.6875ZM85.0703 11.5469H75.0703V16.918L85.0703 16.918H95.0703V11.5469H85.0703ZM85.0703 16.918V6.91797H75.3164V16.918V26.918L85.0703 26.918V16.918ZM75.3164 16.918L65.8726 20.2064C68.6699 28.2398 76.9996 31.8126 86.1056 32.7132L87.0898 22.7617L88.0741 12.8103C85.0656 12.5127 83.8148 11.9232 83.5461 11.7697C83.37 11.6691 84.2421 12.1416 84.7602 13.6295L75.3164 16.918ZM87.0898 22.7617L78.006 18.5803L75.5138 23.9943L84.5977 28.1758L93.6815 32.3572L96.1737 26.9432L87.0898 22.7617ZM84.5977 28.1758L85.5739 18.2235C82.6344 17.9352 80.91 17.2958 79.9937 16.7925C79.1405 16.3239 78.975 15.9771 78.9697 15.9672L70.1602 20.6992L61.3506 25.4312C65.5098 33.1743 73.8068 37.1653 83.6214 38.128L84.5977 28.1758ZM70.1602 20.6992L61.3831 15.9072C61.3431 15.9805 61.1422 16.3423 60.3083 16.8049C59.4123 17.302 57.7237 17.9384 54.8271 18.2241L55.8086 28.1758L56.7901 38.1275C66.6652 37.1535 74.7884 33.0901 78.9372 25.4913L70.1602 20.6992ZM55.8086 28.1758L64.9197 24.0541L62.4705 18.64L53.3594 22.7617L44.2483 26.8834L46.6975 32.2975L55.8086 28.1758ZM53.3594 22.7617L54.3463 32.7129C63.6425 31.791 71.584 28.1255 74.4857 20.4569L65.1328 16.918L55.7799 13.379C56.2687 12.0873 57.0165 11.678 56.8506 11.7733C56.5821 11.9275 55.3485 12.5154 52.3725 12.8105L53.3594 22.7617ZM65.1328 16.918V6.91797H55.4219V16.918V26.918H65.1328V16.918ZM55.4219 16.918H65.4219V11.5469H55.4219H45.4219V16.918H55.4219ZM55.4219 11.5469V21.5469L85.0703 21.5469V11.5469V1.54687L55.4219 1.54687V11.5469ZM88.3789 29.3789H78.3789V34.8359H88.3789H98.3789V29.3789H88.3789ZM88.3789 34.8359V24.8359L74.2422 24.8359V34.8359V44.8359H88.3789V34.8359ZM74.2422 34.8359H64.2422V40.8516H74.2422H84.2422V34.8359H74.2422ZM74.2422 40.8516V30.8516H67.4102V40.8516V50.8516H74.2422V40.8516ZM67.4102 40.8516H77.4102V34.8359H67.4102H57.4102V40.8516H67.4102ZM67.4102 34.8359V24.8359H52.1133V34.8359V44.8359H67.4102V34.8359ZM52.1133 34.8359H62.1133V29.3789H52.1133H42.1133V34.8359H52.1133ZM52.1133 29.3789V39.3789H88.3789V29.3789V19.3789L52.1133 19.3789V29.3789ZM84.4258 43.6875H74.4258V49.1875H84.4258H94.4258V43.6875H84.4258ZM84.4258 49.1875V39.1875H56.0664V49.1875V59.1875H84.4258V49.1875ZM56.0664 49.1875H66.0664V37.5859H56.0664H46.0664V49.1875H56.0664ZM56.0664 37.5859V47.5859H62.9414V37.5859V27.5859H56.0664V37.5859ZM62.9414 37.5859H52.9414V43.6875H62.9414H72.9414V37.5859H62.9414ZM62.9414 43.6875V53.6875H84.4258V43.6875V33.6875H62.9414V43.6875ZM123.699 10H133.699C133.699 4.47715 129.222 0 123.699 0V10ZM123.699 49.875V59.875C129.222 59.875 133.699 55.3978 133.699 49.875H123.699ZM116.738 49.875H106.738C106.738 55.3978 111.215 59.875 116.738 59.875V49.875ZM116.738 10V0C111.215 0 106.738 4.47715 106.738 10L116.738 10ZM101.871 12.6641L101.802 22.6638C101.848 22.6641 101.895 22.6641 101.942 22.6638L101.871 12.6641ZM101.871 18.8945L101.702 28.8931C101.819 28.8951 101.936 28.895 102.053 28.8929L101.871 18.8945ZM123.699 10H113.699V49.875H123.699H133.699V10H123.699ZM123.699 49.875V39.875H116.738V49.875V59.875H123.699V49.875ZM116.738 49.875H126.738V10H116.738L106.738 10V49.875H116.738ZM116.738 10V20H123.699V10V0L116.738 0V10ZM101.871 12.6641L101.942 22.6638C101.874 22.6643 101.705 22.6406 101.529 22.5508C101.368 22.4681 101.377 22.4198 101.497 22.5782C101.768 22.9327 102.484 24.2334 102.484 26.9727H112.484H122.484C122.484 20.9463 120.924 15.0712 117.402 10.4521C113.755 5.66819 108.222 2.61877 101.8 2.66431L101.871 12.6641ZM112.484 26.9727H102.484C102.484 29.8028 101.755 31.1249 101.485 31.4804C101.364 31.6391 101.353 31.594 101.507 31.5147C101.673 31.4293 101.826 31.4102 101.871 31.4102V41.4102V51.4102C108.245 51.4102 113.763 48.3834 117.415 43.5733C120.937 38.9337 122.484 33.0371 122.484 26.9727H112.484ZM101.871 41.4102V31.4102C101.85 31.4102 101.954 31.4135 102.092 31.483C102.22 31.5479 102.201 31.5815 102.082 31.4265C101.816 31.0816 101.086 29.7839 101.086 26.9727H91.0859H81.0859C81.0859 33.056 82.6543 38.977 86.2345 43.6273C89.9473 48.4498 95.5089 51.4102 101.871 51.4102V41.4102ZM91.0859 26.9727H101.086C101.086 24.2526 101.803 22.9762 102.069 22.632C102.189 22.4774 102.205 22.5139 102.07 22.5822C102.009 22.6127 101.943 22.6363 101.881 22.6507C101.819 22.6649 101.789 22.6637 101.802 22.6638L101.871 12.6641L101.941 2.6643C95.5314 2.6198 89.9561 5.60151 86.2472 10.3982C82.6677 15.0277 81.0859 20.9271 81.0859 26.9727H91.0859ZM101.871 18.8945L102.041 8.89597C96.409 8.80052 92.2107 12.0746 90.0373 16.1436C88.1965 19.59 87.7461 23.5385 87.7461 26.9727H97.7461H107.746C107.746 26.0559 107.814 25.4897 107.867 25.2055C107.924 24.8993 107.929 25.0966 107.678 25.5664C107.412 26.0649 106.786 26.9904 105.572 27.7722C104.294 28.5955 102.897 28.9134 101.702 28.8931L101.871 18.8945ZM97.7461 26.9727H87.7461C87.7461 30.4271 88.1898 34.3944 90.0452 37.8541C92.2599 41.9836 96.4348 45.0938 101.871 45.0938V35.0938V25.0937C102.981 25.0937 104.317 25.3965 105.564 26.1982C106.761 26.9673 107.392 27.8831 107.671 28.4018C107.93 28.8846 107.925 29.0928 107.868 28.7849C107.815 28.4977 107.746 27.9194 107.746 26.9727H97.7461ZM101.871 35.0938V45.0938C107.47 45.0938 111.521 41.7294 113.598 37.7986C115.397 34.3926 115.867 30.4806 115.867 26.9727H105.867H95.8672C95.8672 27.9039 95.7974 28.4806 95.7432 28.7724C95.6853 29.0842 95.676 28.9062 95.9132 28.4572C96.1618 27.9865 96.7575 27.0851 97.9296 26.3005C99.1697 25.4703 100.579 25.0937 101.871 25.0937V35.0938ZM105.867 26.9727H115.867C115.867 23.4853 115.39 19.5914 113.605 16.199C111.575 12.3393 107.496 8.79061 101.689 8.89618L101.871 18.8945L102.053 28.8929C100.667 28.9181 99.1917 28.5217 97.9217 27.6697C96.7329 26.8723 96.1424 25.9614 95.9054 25.511C95.676 25.075 95.6869 24.9078 95.7447 25.218C95.7986 25.507 95.8672 26.0715 95.8672 26.9727H105.867ZM174.016 32.3867H184.016C184.016 26.8639 179.538 22.3867 174.016 22.3867V32.3867ZM174.016 37.6719V47.6719C179.538 47.6719 184.016 43.1947 184.016 37.6719H174.016ZM137.75 37.6719H127.75C127.75 43.1947 132.227 47.6719 137.75 47.6719V37.6719ZM137.75 32.3867V22.3867C132.227 22.3867 127.75 26.8639 127.75 32.3867H137.75ZM169.805 43.8164H179.805C179.805 38.2936 175.328 33.8164 169.805 33.8164V43.8164ZM169.805 49.1875V59.1875C175.328 59.1875 179.805 54.7103 179.805 49.1875H169.805ZM141.918 49.1875L131.918 49.1875C131.918 54.7103 136.395 59.1875 141.918 59.1875V49.1875ZM141.918 39.3047V29.3047C136.395 29.3047 131.918 33.7818 131.918 39.3047L141.918 39.3047ZM148.836 39.3047H158.836C158.836 33.7818 154.359 29.3047 148.836 29.3047V39.3047ZM148.836 43.8164L138.836 43.8164C138.836 49.3393 143.313 53.8164 148.836 53.8164V43.8164ZM172.254 13.0937H182.254C182.254 7.5709 177.777 3.09375 172.254 3.09375V13.0937ZM172.254 18.1641V28.1641C177.777 28.1641 182.254 23.6869 182.254 18.1641H172.254ZM139.383 18.1641H129.383C129.383 23.6869 133.86 28.1641 139.383 28.1641V18.1641ZM139.383 13.0937V3.09375C133.86 3.09375 129.383 7.5709 129.383 13.0937H139.383ZM152.359 13.0937V23.0937C157.882 23.0937 162.359 18.6166 162.359 13.0937H152.359ZM152.359 10V0C146.837 0 142.359 4.47715 142.359 10H152.359ZM159.32 10H169.32C169.32 4.47715 164.843 0 159.32 0V10ZM159.32 13.0937H149.32C149.32 18.6166 153.797 23.0937 159.32 23.0937V13.0937ZM142.219 25.125L152.218 25.2337C152.219 25.1624 152.219 25.0911 152.218 25.0197L142.219 25.125ZM149.266 25.125L159.257 25.5413C159.269 25.2579 159.269 24.974 159.256 24.6906L149.266 25.125ZM174.016 32.3867H164.016V37.6719H174.016H184.016V32.3867H174.016ZM174.016 37.6719V27.6719H137.75V37.6719V47.6719L174.016 47.6719V37.6719ZM137.75 37.6719L147.75 37.6719V32.3867L137.75 32.3867H127.75V37.6719H137.75ZM137.75 32.3867V42.3867L174.016 42.3867V32.3867V22.3867H137.75V32.3867ZM169.805 43.8164H159.805V49.1875H169.805H179.805V43.8164H169.805ZM169.805 49.1875V39.1875H141.918V49.1875V59.1875H169.805V49.1875ZM141.918 49.1875H151.918V39.3047H141.918L131.918 39.3047V49.1875L141.918 49.1875ZM141.918 39.3047V49.3047H148.836V39.3047V29.3047H141.918V39.3047ZM148.836 39.3047L138.836 39.3047V43.8164L148.836 43.8164H158.836V39.3047H148.836ZM148.836 43.8164V53.8164H169.805V43.8164V33.8164H148.836V43.8164ZM172.254 13.0937H162.254V18.1641H172.254H182.254V13.0937H172.254ZM172.254 18.1641V8.16406H139.383V18.1641V28.1641H172.254V18.1641ZM139.383 18.1641H149.383V13.0937H139.383H129.383V18.1641H139.383ZM139.383 13.0937V23.0937H152.359V13.0937V3.09375H139.383V13.0937ZM152.359 13.0937H162.359V10H152.359H142.359V13.0937H152.359ZM152.359 10V20H159.32V10V0H152.359V10ZM159.32 10H149.32V13.0937H159.32H169.32V10H159.32ZM159.32 13.0937V23.0937H172.254V13.0937V3.09375H159.32V13.0937ZM155.883 19.0234V29.0234C157.687 29.0234 159.109 29.1298 160.186 29.2917C161.293 29.4581 161.817 29.6511 161.94 29.705C162.072 29.7626 161.433 29.5196 160.728 28.6219C159.912 27.581 159.504 26.2868 159.504 25.125H169.504H179.504C179.504 17.8321 174.58 13.4046 169.956 11.3819C165.758 9.54511 160.72 9.02344 155.883 9.02344V19.0234ZM169.504 25.125H159.504C159.504 23.858 159.957 22.5488 160.752 21.5433C161.435 20.6796 162.038 20.4528 161.887 20.5201C161.749 20.5811 161.22 20.7785 160.129 20.9491C159.065 21.1152 157.66 21.2266 155.883 21.2266V31.2266V41.2266C160.791 41.2266 165.823 40.6569 170.01 38.7963C174.498 36.8013 179.504 32.4218 179.504 25.125H169.504ZM155.883 31.2266V21.2266C154.093 21.2266 152.674 21.115 151.598 20.9478C150.493 20.776 149.953 20.5767 149.809 20.5131C149.648 20.4419 150.264 20.6703 150.96 21.5519C151.774 22.5836 152.232 23.9312 152.218 25.2337L142.219 25.125L132.219 25.0163C132.139 32.413 137.238 36.8212 141.718 38.8033C145.911 40.658 150.959 41.2266 155.883 41.2266V31.2266ZM142.219 25.125L152.218 25.0197C152.231 26.2146 151.819 27.546 150.983 28.6134C150.267 29.529 149.615 29.7734 149.756 29.7118C149.886 29.6553 150.42 29.4604 151.54 29.2929C152.63 29.13 154.066 29.0234 155.883 29.0234V19.0234V9.02344C151.029 9.02344 145.975 9.54414 141.771 11.3751C139.581 12.3287 137.146 13.8433 135.235 16.2857C133.204 18.8798 132.185 21.9944 132.219 25.2303L142.219 25.125ZM155.883 23.75V13.75C153.453 13.75 150.859 13.8251 148.69 14.2788C147.686 14.4887 145.648 14.9903 143.686 16.4285C141.161 18.2795 139.099 21.5011 139.275 25.5594L149.266 25.125L159.256 24.6906C159.321 26.1737 159.029 27.8226 158.209 29.3982C157.417 30.921 156.362 31.9345 155.511 32.558C154.692 33.1588 153.968 33.4702 153.573 33.6182C153.161 33.7729 152.871 33.837 152.785 33.855C152.722 33.8683 153.457 33.75 155.883 33.75V23.75ZM149.266 25.125L139.274 24.7087C139.109 28.6669 141.078 31.9817 143.821 33.9235C145.867 35.3716 147.982 35.8175 148.931 35.9917C151.016 36.3746 153.571 36.4141 155.883 36.4141V26.4141V16.4141C154.736 16.4141 153.891 16.3984 153.267 16.3688C152.597 16.3372 152.428 16.2996 152.544 16.3208C152.617 16.3342 152.91 16.3904 153.333 16.5368C153.737 16.6766 154.504 16.9822 155.376 17.5994C156.292 18.2474 157.402 19.2995 158.22 20.8807C159.058 22.4996 159.315 24.1445 159.257 25.5413L149.266 25.125ZM155.883 26.4141V36.4141C158.159 36.4141 160.692 36.3744 162.774 35.9901C163.739 35.8119 165.797 35.3686 167.803 33.9761C170.429 32.1534 172.457 29.0198 172.457 25.125H162.457H152.457C152.457 23.7302 152.781 22.1487 153.626 20.6253C154.448 19.1422 155.519 18.1569 156.398 17.5469C157.239 16.9632 157.975 16.6702 158.371 16.5337C158.783 16.3914 159.069 16.3361 159.143 16.3224C159.26 16.3008 159.097 16.3378 158.443 16.3691C157.833 16.3984 157.006 16.4141 155.883 16.4141V26.4141ZM162.457 25.125H172.457C172.457 21.151 170.353 18.1103 167.938 16.3741C166.016 14.9921 164.034 14.4948 163.016 14.2809C160.851 13.8257 158.28 13.75 155.883 13.75V23.75V33.75C158.255 33.75 158.971 33.8676 158.901 33.8529C158.814 33.8347 158.532 33.7717 158.131 33.6218C157.745 33.4776 157.052 33.1798 156.263 32.6124C155.447 32.0259 154.432 31.0785 153.637 29.654C152.814 28.1778 152.457 26.5983 152.457 25.125H162.457ZM212.129 24.7812H222.129C222.129 19.2584 217.652 14.7812 212.129 14.7812V24.7812ZM212.129 30.1523V40.1523C217.652 40.1523 222.129 35.6752 222.129 30.1523H212.129ZM175.777 30.1523H165.777C165.777 35.6752 170.255 40.1523 175.777 40.1523V30.1523ZM175.777 24.7812V14.7812C170.255 14.7812 165.777 19.2584 165.777 24.7812H175.777ZM207.789 17.9492H217.789C217.789 12.4264 213.312 7.94922 207.789 7.94922V17.9492ZM207.789 23.2773V33.2773C213.312 33.2773 217.789 28.8002 217.789 23.2773H207.789ZM180.117 23.2773H170.117C170.117 28.8002 174.594 33.2773 180.117 33.2773V23.2773ZM180.117 10.4727V0.472656C174.594 0.472656 170.117 4.94981 170.117 10.4727L180.117 10.4727ZM207.531 10.4727H217.531C217.531 4.94981 213.054 0.472656 207.531 0.472656V10.4727ZM207.531 15.9297V25.9297C213.054 25.9297 217.531 21.4525 217.531 15.9297H207.531ZM186.949 15.9297V5.92969C181.426 5.92969 176.949 10.4068 176.949 15.9297H186.949ZM186.949 17.9492H176.949C176.949 23.4721 181.426 27.9492 186.949 27.9492V17.9492ZM207.746 31.6992H217.746C217.746 26.1764 213.269 21.6992 207.746 21.6992V31.6992ZM207.746 42.8281V52.8281C213.269 52.8281 217.746 48.351 217.746 42.8281H207.746ZM186.562 42.8281V32.8281C181.04 32.8281 176.562 37.3053 176.562 42.8281H186.562ZM186.562 44.2461H176.562C176.562 49.7689 181.04 54.2461 186.562 54.2461V44.2461ZM208.691 44.2461H218.691C218.691 38.7232 214.214 34.2461 208.691 34.2461V44.2461ZM208.691 49.4883V59.4883C214.214 59.4883 218.691 55.0111 218.691 49.4883H208.691ZM179.816 49.4883H169.816C169.816 55.0111 174.294 59.4883 179.816 59.4883V49.4883ZM179.816 38.0156V28.0156C174.294 28.0156 169.816 32.4928 169.816 38.0156H179.816ZM200.957 38.0156V48.0156C206.48 48.0156 210.957 43.5385 210.957 38.0156H200.957ZM200.957 36.8125H210.957C210.957 31.2897 206.48 26.8125 200.957 26.8125V36.8125ZM179.859 36.8125H169.859C169.859 42.3353 174.337 46.8125 179.859 46.8125V36.8125ZM179.859 31.6992V21.6992C174.337 21.6992 169.859 26.1764 169.859 31.6992H179.859ZM212.129 24.7812L202.129 24.7812V30.1523H212.129H222.129V24.7812H212.129ZM212.129 30.1523V20.1523L175.777 20.1523V30.1523V40.1523H212.129V30.1523ZM175.777 30.1523H185.777V24.7812H175.777H165.777V30.1523H175.777ZM175.777 24.7812V34.7812H212.129V24.7812V14.7812L175.777 14.7812V24.7812ZM207.789 17.9492L197.789 17.9492V23.2773L207.789 23.2773H217.789V17.9492H207.789ZM207.789 23.2773V13.2773L180.117 13.2773V23.2773V33.2773H207.789V23.2773ZM180.117 23.2773H190.117V10.4727H180.117L170.117 10.4727V23.2773H180.117ZM180.117 10.4727V20.4727L207.531 20.4727V10.4727V0.472656L180.117 0.472656V10.4727ZM207.531 10.4727H197.531V15.9297L207.531 15.9297H217.531V10.4727H207.531ZM207.531 15.9297V5.92969H186.949V15.9297V25.9297L207.531 25.9297V15.9297ZM186.949 15.9297H176.949V17.9492H186.949H196.949V15.9297H186.949ZM186.949 17.9492V27.9492L207.789 27.9492V17.9492V7.94922H186.949V17.9492ZM207.746 31.6992H197.746V42.8281H207.746H217.746V31.6992H207.746ZM207.746 42.8281V32.8281H186.562V42.8281V52.8281H207.746V42.8281ZM186.562 42.8281H176.562V44.2461H186.562H196.562V42.8281H186.562ZM186.562 44.2461V54.2461H208.691V44.2461V34.2461H186.562V44.2461ZM208.691 44.2461H198.691V49.4883H208.691H218.691V44.2461H208.691ZM208.691 49.4883V39.4883H179.816V49.4883V59.4883H208.691V49.4883ZM179.816 49.4883H189.816V38.0156H179.816H169.816V49.4883H179.816ZM179.816 38.0156V48.0156H200.957V38.0156V28.0156H179.816V38.0156ZM200.957 38.0156H210.957V36.8125H200.957H190.957V38.0156H200.957ZM200.957 36.8125V26.8125H179.859V36.8125V46.8125H200.957V36.8125ZM179.859 36.8125H189.859V31.6992H179.859H169.859V36.8125H179.859ZM179.859 31.6992V41.6992H207.746V31.6992V21.6992L179.859 21.6992V31.6992ZM247.406 10H257.406C257.406 4.47715 252.929 0 247.406 0V10ZM247.406 49.875V59.875C252.929 59.875 257.406 55.3978 257.406 49.875H247.406ZM240.531 49.875H230.531C230.531 55.3978 235.008 59.875 240.531 59.875V49.875ZM240.531 10V0C235.008 0 230.531 4.47715 230.531 10L240.531 10ZM234.945 13.1367H244.945C244.945 7.61387 240.468 3.13672 234.945 3.13672V13.1367ZM234.945 29.207V39.207C240.468 39.207 244.945 34.7299 244.945 29.207H234.945ZM222.957 29.207V19.207C217.434 19.207 212.957 23.6842 212.957 29.207H222.957ZM222.957 35.1367H212.957C212.957 37.8086 214.026 40.3693 215.926 42.2478C217.826 44.1264 220.399 45.1664 223.071 45.1361L222.957 35.1367ZM238.34 33.8906L248.289 32.888C248.012 30.1315 246.603 27.6137 244.399 25.9351C242.195 24.2565 239.393 23.5675 236.662 24.0324L238.34 33.8906ZM238.898 39.4336L240.724 49.2655C245.838 48.3159 249.37 43.6054 248.848 38.4309L238.898 39.4336ZM215.824 40.7656H205.824C205.824 46.2885 210.301 50.7656 215.824 50.7656V40.7656ZM215.824 23.8359V13.8359C210.301 13.8359 205.824 18.3131 205.824 23.8359H215.824ZM227.898 23.8359V33.8359C233.421 33.8359 237.898 29.3588 237.898 23.8359H227.898ZM227.898 18.6367H237.898C237.898 13.1139 233.421 8.63672 227.898 8.63672V18.6367ZM215.824 18.6367H205.824C205.824 24.1596 210.301 28.6367 215.824 28.6367V18.6367ZM215.824 13.1367V3.13672C210.301 3.13672 205.824 7.61387 205.824 13.1367H215.824ZM247.406 10H237.406V49.875H247.406H257.406V10H247.406ZM247.406 49.875V39.875H240.531V49.875V59.875H247.406V49.875ZM240.531 49.875H250.531V10H240.531L230.531 10V49.875H240.531ZM240.531 10V20H247.406V10V0L240.531 0V10ZM234.945 13.1367H224.945V29.207H234.945H244.945V13.1367H234.945ZM234.945 29.207V19.207H222.957V29.207V39.207H234.945V29.207ZM222.957 29.207H212.957V35.1367H222.957H232.957V29.207H222.957ZM222.957 35.1367L223.071 45.1361C229.096 45.0676 234.307 44.7209 240.018 43.7488L238.34 33.8906L236.662 24.0324C232.275 24.7791 228.162 25.0769 222.843 25.1374L222.957 35.1367ZM238.34 33.8906L228.39 34.8933L228.949 40.4363L238.898 39.4336L248.848 38.4309L248.289 32.888L238.34 33.8906ZM238.898 39.4336L237.073 29.6017C231.993 30.5451 226.943 30.7656 219.562 30.7656V40.7656V50.7656C227.221 50.7656 233.773 50.5565 240.724 49.2655L238.898 39.4336ZM219.562 40.7656V30.7656H215.824V40.7656V50.7656H219.562V40.7656ZM215.824 40.7656H225.824V23.8359H215.824H205.824V40.7656H215.824ZM215.824 23.8359V33.8359H227.898V23.8359V13.8359H215.824V23.8359ZM227.898 23.8359H237.898V18.6367H227.898H217.898V23.8359H227.898ZM227.898 18.6367V8.63672H215.824V18.6367V28.6367H227.898V18.6367ZM215.824 18.6367H225.824V13.1367H215.824H205.824V18.6367H215.824ZM215.824 13.1367V23.1367H234.945V13.1367V3.13672L215.824 3.13672V13.1367ZM277.441 35.9961L285.711 41.6192C287.408 39.1228 287.887 35.9932 287.014 33.1034C286.141 30.2136 284.009 27.8729 281.213 26.7345L277.441 35.9961ZM273.789 41.3672L269.993 50.6185C274.366 52.4134 279.4 50.8999 282.058 46.9903L273.789 41.3672ZM264.594 31.7422L273.888 28.0525C272.358 24.198 268.608 21.6879 264.461 21.7431C260.314 21.7982 256.632 24.4071 255.205 28.3009L264.594 31.7422ZM255.227 42.3984L247.089 48.2108C249.841 52.0637 254.918 53.4585 259.253 51.5522L255.227 42.3984ZM251.359 36.9844L247.38 27.8102C244.61 29.0118 242.531 31.401 241.723 34.3108C240.916 37.2206 241.467 40.3395 243.222 42.7968L251.359 36.9844ZM260.898 19.2812H270.898C270.898 13.7584 266.421 9.28125 260.898 9.28125V19.2812ZM253.078 19.2812H243.078C243.078 24.8041 247.555 29.2812 253.078 29.2812V19.2812ZM253.078 13.6953V3.69531C247.555 3.69531 243.078 8.17247 243.078 13.6953H253.078ZM275.551 13.6953H285.551C285.551 8.17247 281.074 3.69531 275.551 3.69531V13.6953ZM275.551 19.2812V29.2812C281.074 29.2812 285.551 24.8041 285.551 19.2812H275.551ZM267.945 19.2812V9.28125C262.422 9.28125 257.945 13.7584 257.945 19.2812H267.945ZM285.391 10H295.391C295.391 4.47715 290.913 0 285.391 0V10ZM285.391 49.7461V59.7461C290.913 59.7461 295.391 55.2689 295.391 49.7461H285.391ZM278.43 49.7461H268.43C268.43 55.2689 272.907 59.7461 278.43 59.7461V49.7461ZM278.43 10V0C272.907 0 268.43 4.47715 268.43 10H278.43ZM267.945 19.9687H257.945C257.945 28.2505 261.158 40.1628 273.67 45.2577L277.441 35.9961L281.213 26.7345C280.011 26.2452 279.365 25.5594 278.889 24.638C278.325 23.5438 277.945 21.937 277.945 19.9687H267.945ZM277.441 35.9961L269.172 30.373L265.52 35.7441L273.789 41.3672L282.058 46.9903L285.711 41.6192L277.441 35.9961ZM273.789 41.3672L277.586 32.1159C275.962 31.4494 274.764 30.2591 273.888 28.0525L264.594 31.7422L255.299 35.4319C257.818 41.776 262.507 47.5467 269.993 50.6185L273.789 41.3672ZM264.594 31.7422L255.205 28.3009C254.142 31.1999 252.738 32.5685 251.201 33.2447L255.227 42.3984L259.253 51.5522C266.996 48.1464 271.565 41.7805 273.983 35.1835L264.594 31.7422ZM255.227 42.3984L263.364 36.5861L259.497 31.172L251.359 36.9844L243.222 42.7968L247.089 48.2108L255.227 42.3984ZM251.359 36.9844L255.339 46.1586C267.76 40.7711 270.898 28.4633 270.898 19.9687H260.898H250.898C250.898 22.1894 250.484 24.0718 249.831 25.3991C249.253 26.573 248.511 27.3196 247.38 27.8102L251.359 36.9844ZM260.898 19.9687H270.898V19.2812H260.898H250.898V19.9687H260.898ZM260.898 19.2812V9.28125H253.078V19.2812V29.2812H260.898V19.2812ZM253.078 19.2812H263.078V13.6953H253.078H243.078V19.2812H253.078ZM253.078 13.6953V23.6953H275.551V13.6953V3.69531L253.078 3.69531V13.6953ZM275.551 13.6953H265.551V19.2812H275.551H285.551V13.6953H275.551ZM275.551 19.2812V9.28125H267.945V19.2812V29.2812H275.551V19.2812ZM267.945 19.2812H257.945V19.9687H267.945H277.945V19.2812H267.945ZM285.391 10H275.391V49.7461H285.391H295.391V10H285.391ZM285.391 49.7461V39.7461H278.43V49.7461V59.7461H285.391V49.7461ZM278.43 49.7461H288.43V10H278.43H268.43V49.7461H278.43ZM278.43 10V20H285.391V10V0H278.43V10ZM306.102 21L316.1 21.1724C316.102 21.0554 316.102 20.9384 316.1 20.8215L306.102 21ZM310.312 24.8242L310.134 34.8226C310.253 34.8247 310.372 34.8247 310.491 34.8226L310.312 24.8242ZM314.523 21L324.522 21.1724C324.524 21.0554 324.524 20.9384 324.522 20.8215L314.523 21ZM331.238 10H341.238C341.238 4.47715 336.761 0 331.238 0V10ZM331.238 17.8633H321.238C321.238 23.3861 325.715 27.8633 331.238 27.8633V17.8633ZM336.18 17.8633H346.18C346.18 12.3404 341.703 7.86328 336.18 7.86328V17.8633ZM336.18 23.4922V33.4922C341.703 33.4922 346.18 29.015 346.18 23.4922H336.18ZM331.238 23.4922V13.4922C325.715 13.4922 321.238 17.9693 321.238 23.4922H331.238ZM331.238 29.5078V39.5078C336.761 39.5078 341.238 35.0307 341.238 29.5078H331.238ZM324.32 29.5078H314.32C314.32 35.0307 318.797 39.5078 324.32 39.5078V29.5078ZM324.32 10V0C318.797 0 314.32 4.47715 314.32 10H324.32ZM309.324 33.0312H319.324C319.324 27.5084 314.847 23.0312 309.324 23.0312V33.0312ZM309.324 43.0859H299.324C299.324 45.8549 300.472 48.5 302.495 50.3909C304.518 52.2819 307.234 53.2495 309.997 53.0633L309.324 43.0859ZM314.438 42.1406L324.281 40.3799C323.775 37.5487 322.074 35.0725 319.613 33.584C317.152 32.0955 314.169 31.7387 311.426 32.6048L314.438 42.1406ZM315.383 47.4258L318.982 56.7558C323.451 55.0319 326.07 50.3806 325.227 45.6651L315.383 47.4258ZM302.578 48.7148H292.578C292.578 54.2377 297.055 58.7148 302.578 58.7148V48.7148ZM302.578 33.0312V23.0312C297.055 23.0312 292.578 27.5084 292.578 33.0312H302.578ZM333.988 32.9883H343.988C343.988 27.4654 339.511 22.9883 333.988 22.9883V32.9883ZM333.988 37.9297V47.9297C339.511 47.9297 343.988 43.4525 343.988 37.9297H333.988ZM314.051 37.9297H304.051C304.051 43.4525 308.528 47.9297 314.051 47.9297V37.9297ZM314.051 32.9883V22.9883C308.528 22.9883 304.051 27.4654 304.051 32.9883H314.051ZM320.754 32.9883V42.9883C326.277 42.9883 330.754 38.5111 330.754 32.9883H320.754ZM320.754 30.625V20.625C315.231 20.625 310.754 25.1022 310.754 30.625H320.754ZM327.414 30.625H337.414C337.414 25.1022 332.937 20.625 327.414 20.625V30.625ZM327.414 32.9883H317.414C317.414 38.5111 321.891 42.9883 327.414 42.9883V32.9883ZM323.977 38.5742L324.069 28.5746C324.008 28.5741 323.947 28.5741 323.886 28.5746L323.977 38.5742ZM331.883 44.2461L341.882 44.3711C341.883 44.2878 341.883 44.2044 341.882 44.1211L331.883 44.2461ZM310.312 11.7187V21.7187C311.367 21.7187 311.701 22.0434 311.606 21.963C311.556 21.9201 311.433 21.795 311.327 21.5712C311.216 21.3381 311.184 21.1234 311.184 21H321.184H331.184C331.184 8.64802 320.485 1.71875 310.312 1.71875V11.7187ZM321.184 21H311.184C311.184 20.9444 311.201 20.7724 311.301 20.5592C311.397 20.3535 311.513 20.2298 311.57 20.1809C311.679 20.0871 311.366 20.4102 310.312 20.4102V30.4102V40.4102C320.583 40.4102 331.184 33.3977 331.184 21H321.184ZM310.312 30.4102V20.4102C309.324 20.4102 308.97 20.0989 309.025 20.1456C309.059 20.1746 309.169 20.2832 309.267 20.4895C309.371 20.7066 309.398 20.9019 309.398 21H299.398H289.398C289.398 33.4919 300.239 40.4102 310.312 40.4102V30.4102ZM299.398 21H309.398C309.398 21.1668 309.355 21.405 309.24 21.6415C309.132 21.8652 309.016 21.975 308.988 21.9981C308.948 22.0317 309.323 21.7187 310.312 21.7187V11.7187V1.71875C300.336 1.71875 289.398 8.55446 289.398 21H299.398ZM310.312 17.3477V7.34766C307.521 7.34766 304.015 8.05833 301.001 10.4952C297.69 13.1722 296.03 17.101 296.103 21.1785L306.102 21L316.1 20.8215C316.113 21.5337 315.986 22.488 315.523 23.5167C315.056 24.5552 314.36 25.4134 313.576 26.0478C312.076 27.26 310.698 27.3477 310.312 27.3477V17.3477ZM306.102 21L296.103 20.8276C296.034 24.8251 297.596 28.7361 300.839 31.4726C303.815 33.9841 307.318 34.7723 310.134 34.8226L310.312 24.8242L310.491 14.8258C310.901 14.8331 312.277 14.9554 313.738 16.1885C315.466 17.6467 316.126 19.6671 316.1 21.1724L306.102 21ZM310.312 24.8242L310.491 34.8226C313.337 34.7718 316.84 33.9675 319.808 31.427C322.982 28.7096 324.457 24.9268 324.522 21.1724L314.523 21L304.525 20.8276C304.547 19.5654 305.12 17.6732 306.801 16.2341C308.275 14.972 309.694 14.8337 310.134 14.8258L310.312 24.8242ZM314.523 21L324.522 20.8215C324.454 16.9985 322.891 13.2009 319.646 10.5394C316.637 8.0722 313.131 7.34766 310.312 7.34766V17.3477V27.3477C309.9 27.3477 308.478 27.2462 306.963 26.0036C305.211 24.5667 304.55 22.5953 304.525 21.1785L314.523 21ZM331.238 10H321.238V17.8633H331.238L341.238 17.8633V10H331.238ZM331.238 17.8633V27.8633L336.18 27.8633V17.8633V7.86328H331.238V17.8633ZM336.18 17.8633L326.18 17.8633V23.4922L336.18 23.4922H346.18V17.8633H336.18ZM336.18 23.4922V13.4922L331.238 13.4922V23.4922V33.4922H336.18V23.4922ZM331.238 23.4922H321.238V29.5078H331.238H341.238V23.4922L331.238 23.4922ZM331.238 29.5078V19.5078H324.32V29.5078V39.5078H331.238V29.5078ZM324.32 29.5078H334.32V10H324.32H314.32V29.5078H324.32ZM324.32 10V20H331.238V10V0L324.32 0V10ZM309.324 33.0312H299.324V43.0859H309.324H319.324V33.0312H309.324ZM309.324 43.0859L309.997 53.0633C312.673 52.8829 315.029 52.4407 317.449 51.6765L314.438 42.1406L311.426 32.6048C310.581 32.8718 309.799 33.0312 308.652 33.1086L309.324 43.0859ZM314.438 42.1406L304.594 43.9013L305.539 49.1865L315.383 47.4258L325.227 45.6651L324.281 40.3799L314.438 42.1406ZM315.383 47.4258L311.784 38.0958C310.699 38.5144 309.574 38.7148 304.984 38.7148V48.7148V58.7148C309.504 58.7148 314.051 58.6575 318.982 56.7558L315.383 47.4258ZM304.984 48.7148V38.7148H302.578V48.7148V58.7148H304.984V48.7148ZM302.578 48.7148H312.578V33.0312H302.578H292.578V48.7148H302.578ZM302.578 33.0312V43.0312H309.324V33.0312V23.0312H302.578V33.0312ZM333.988 32.9883H323.988V37.9297H333.988H343.988V32.9883H333.988ZM333.988 37.9297V27.9297L314.051 27.9297V37.9297V47.9297H333.988V37.9297ZM314.051 37.9297H324.051V32.9883H314.051H304.051V37.9297H314.051ZM314.051 32.9883V42.9883H320.754V32.9883V22.9883H314.051V32.9883ZM320.754 32.9883H330.754V30.625H320.754H310.754V32.9883H320.754ZM320.754 30.625V40.625H327.414V30.625V20.625H320.754V30.625ZM327.414 30.625H317.414V32.9883H327.414H337.414V30.625H327.414ZM327.414 32.9883V42.9883H333.988V32.9883V22.9883L327.414 22.9883V32.9883ZM323.977 38.5742L323.884 48.5738C324.786 48.5821 324.595 48.8074 323.883 48.3043C323.487 48.024 322.956 47.5255 322.528 46.749C322.087 45.9512 321.893 45.1082 321.884 44.3711L331.883 44.2461L341.882 44.1211C341.817 38.9005 339.178 34.6223 335.424 31.9701C331.93 29.5012 327.808 28.6093 324.069 28.5746L323.977 38.5742ZM331.883 44.2461L321.884 44.1211C321.893 43.3834 322.088 42.527 322.542 41.7105C322.984 40.9149 323.533 40.4041 323.947 40.1165C324.688 39.6016 324.894 39.832 323.977 39.832V49.832V59.832C327.7 59.832 331.838 58.9882 335.361 56.5398C339.162 53.898 341.817 49.6056 341.882 44.3711L331.883 44.2461ZM323.977 49.832V39.832C322.977 39.832 323.224 39.5852 324.024 40.1478C324.472 40.4626 325.041 41.008 325.486 41.8363C325.94 42.6809 326.113 43.5402 326.113 44.2461H316.113H306.113C306.113 49.4283 308.657 53.7918 312.521 56.5084C316.071 59.0047 320.25 59.832 323.977 59.832V49.832ZM316.113 44.2461H326.113C326.113 44.9518 325.94 45.7977 325.5 46.6234C325.068 47.4322 324.518 47.9649 324.088 48.2724C323.316 48.8239 323.085 48.5827 324.067 48.5738L323.977 38.5742L323.886 28.5746C320.142 28.6087 315.979 29.4847 312.457 32.002C308.642 34.7289 306.113 39.0765 306.113 44.2461H316.113ZM323.977 43.3008V33.3008C323.091 33.3008 320.885 33.3442 318.564 34.4064C317.264 35.0015 315.574 36.0778 314.22 37.9694C312.797 39.957 312.215 42.191 312.215 44.2461H322.215H332.215C332.215 45.9359 331.729 47.8692 330.482 49.611C329.304 51.2569 327.87 52.1425 326.886 52.5926C325.93 53.0304 325.141 53.1795 324.76 53.2363C324.348 53.2978 324.065 53.3008 323.977 53.3008V43.3008ZM322.215 44.2461H312.215C312.215 46.3012 312.797 48.5352 314.22 50.5228C315.574 52.4144 317.264 53.4907 318.564 54.0858C320.885 55.148 323.091 55.1914 323.977 55.1914V45.1914V35.1914C324.065 35.1914 324.348 35.1944 324.76 35.2559C325.141 35.3127 325.93 35.4618 326.886 35.8996C327.87 36.3496 329.304 37.2353 330.482 38.8812C331.729 40.623 332.215 42.5563 332.215 44.2461H322.215ZM323.977 45.1914V55.1914C324.862 55.1914 327.068 55.148 329.389 54.0858C330.69 53.4907 332.379 52.4144 333.733 50.5228C335.156 48.5352 335.738 46.3012 335.738 44.2461H325.738H315.738C315.738 42.5563 316.224 40.623 317.471 38.8812C318.649 37.2353 320.083 36.3496 321.067 35.8996C322.023 35.4618 322.812 35.3127 323.193 35.2559C323.605 35.1944 323.888 35.1914 323.977 35.1914V45.1914ZM325.738 44.2461H335.738C335.738 42.191 335.156 39.957 333.733 37.9694C332.379 36.0778 330.69 35.0015 329.389 34.4064C327.068 33.3442 324.862 33.3008 323.977 33.3008V43.3008V53.3008C323.888 53.3008 323.605 53.2978 323.193 53.2363C322.812 53.1795 322.023 53.0304 321.067 52.5926C320.083 52.1425 318.649 51.2569 317.471 49.611C316.224 47.8692 315.738 45.9359 315.738 44.2461H325.738ZM369.824 20.0977H379.824C379.824 14.5748 375.347 10.0977 369.824 10.0977V20.0977ZM369.824 25.4258V35.4258C375.347 35.4258 379.824 30.9486 379.824 25.4258H369.824ZM341.723 25.4258L331.723 25.4258C331.723 30.9486 336.2 35.4258 341.723 35.4258V25.4258ZM341.723 11.418V1.41797C336.2 1.41797 331.723 5.89512 331.723 11.418H341.723ZM348.598 11.418H358.598C358.598 5.89512 354.121 1.41797 348.598 1.41797V11.418ZM348.598 20.0977H338.598C338.598 25.6205 343.075 30.0977 348.598 30.0977V20.0977ZM373.734 28.9492H383.734C383.734 23.4264 379.257 18.9492 373.734 18.9492V28.9492ZM373.734 34.2773V44.2773C379.257 44.2773 383.734 39.8002 383.734 34.2773H373.734ZM337.469 34.2773H327.469C327.469 39.8002 331.946 44.2773 337.469 44.2773V34.2773ZM337.469 28.9492V18.9492C331.946 18.9492 327.469 23.4264 327.469 28.9492H337.469ZM370.082 43.4727H380.082C380.082 37.9498 375.605 33.4727 370.082 33.4727V43.4727ZM370.082 48.9727V58.9727C375.605 58.9727 380.082 54.4955 380.082 48.9727H370.082ZM341.25 48.9727H331.25C331.25 54.4955 335.727 58.9727 341.25 58.9727V48.9727ZM341.25 37.0273V27.0273C335.727 27.0273 331.25 31.5045 331.25 37.0273H341.25ZM348.211 37.0273H358.211C358.211 31.5045 353.734 27.0273 348.211 27.0273V37.0273ZM348.211 43.4727H338.211C338.211 48.9955 342.688 53.4727 348.211 53.4727V43.4727ZM369.824 20.0977H359.824V25.4258H369.824H379.824V20.0977H369.824ZM369.824 25.4258V15.4258H341.723V25.4258V35.4258H369.824V25.4258ZM341.723 25.4258H351.723V11.418H341.723H331.723V25.4258L341.723 25.4258ZM341.723 11.418V21.418H348.598V11.418V1.41797H341.723V11.418ZM348.598 11.418H338.598V20.0977H348.598H358.598V11.418H348.598ZM348.598 20.0977V30.0977H369.824V20.0977V10.0977L348.598 10.0977V20.0977ZM373.734 28.9492H363.734V34.2773H373.734H383.734V28.9492H373.734ZM373.734 34.2773V24.2773H337.469V34.2773V44.2773H373.734V34.2773ZM337.469 34.2773H347.469V28.9492H337.469H327.469V34.2773H337.469ZM337.469 28.9492V38.9492H373.734V28.9492V18.9492H337.469V28.9492ZM370.082 43.4727H360.082V48.9727H370.082H380.082V43.4727H370.082ZM370.082 48.9727V38.9727H341.25V48.9727V58.9727H370.082V48.9727ZM341.25 48.9727H351.25V37.0273H341.25H331.25V48.9727H341.25ZM341.25 37.0273V47.0273H348.211V37.0273V27.0273H341.25V37.0273ZM348.211 37.0273H338.211V43.4727H348.211H358.211V37.0273H348.211ZM348.211 43.4727V53.4727H370.082V43.4727V33.4727H348.211V43.4727Z" fill="white" mask="url(#path-1-outside-1_6524_1881)"/>
</g>
<defs>
<filter id="filter0_d_6524_1881" x="0" y="0" width="387.734" height="67.875" filterUnits="userSpaceOnUse" color-interpolation-filters="sRGB">
<feFlood flood-opacity="0" result="BackgroundImageFix"/>
<feColorMatrix in="SourceAlpha" type="matrix" values="0 0 0 0 0 0 0 0 0 0 0 0 0 0 0 0 0 0 127 0" result="hardAlpha"/>
<feOffset dy="4"/>
<feGaussianBlur stdDeviation="2"/>
<feComposite in2="hardAlpha" operator="out"/>
<feColorMatrix type="matrix" values="0 0 0 0 0 0 0 0 0 0 0 0 0 0 0 0 0 0 0.07 0"/>
<feBlend mode="normal" in2="BackgroundImageFix" result="effect1_dropShadow_6524_1881"/>
<feBlend mode="normal" in="SourceGraphic" in2="effect1_dropShadow_6524_1881" result="shape"/>
</filter>
</defs>
</svg>
