<svg width="264" height="68" viewBox="0 0 264 68" fill="none" xmlns="http://www.w3.org/2000/svg">
<g filter="url(#filter0_d_6526_5718)">
<mask id="path-1-outside-1_6526_5718" maskUnits="userSpaceOnUse" x="3.58203" y="-0.507813" width="257" height="61" fill="black">
<rect fill="white" x="3.58203" y="-0.507813" width="257" height="61"/>
<path d="M46.9141 10.0859V38.918H39.9961V10.0859L46.9141 10.0859ZM35.3125 12.9219C35.2695 24.0078 28.8672 31.5273 16.6211 34.9648L14 29.5078C22.3145 27.209 26.7188 23.2773 27.793 18.5078H16.3633V12.9219H35.3125ZM47.6016 43.6875V49.1875H19.9297V36.2969H26.8047V43.6875H47.6016ZM74.1992 12.5352V17.9492H66.9805C67.3457 21.8594 69.666 25.6621 75.7031 27.3594L72.4805 32.7305C68.2266 31.5273 65.3691 29.1641 63.6289 26.1562C61.8457 29.8086 58.8164 32.709 54.1328 34.1484L50.6523 28.7773C57.0762 26.7793 59.4609 22.2891 59.8906 17.9492H52.457V12.5352H74.1992ZM83.3086 10V18.6797H88.25V24.2227H83.3086V33.332H76.3906V10H83.3086ZM70.1172 33.9336C78.4531 33.8906 83.6953 36.8555 83.6953 41.8398C83.6953 46.8242 78.4531 49.832 70.1172 49.832C61.5664 49.832 56.1953 46.8242 56.2383 41.8398C56.1953 36.8555 61.5664 33.8906 70.1172 33.9336ZM70.1172 39.2188C65.4336 39.2188 63.1133 39.9492 63.1133 41.8398C63.1133 43.7305 65.4336 44.5039 70.1172 44.5039C74.7148 44.5039 76.8633 43.7305 76.8633 41.8398C76.8633 39.9492 74.7148 39.2188 70.1172 39.2188ZM124.215 10V49.7461H117.641V10H124.215ZM115.75 10.4727V48.0273H109.262V29.6367H107.328C106.748 37.457 103.418 42.0977 98.5195 42.0977C93.1914 42.0977 89.7539 36.5117 89.7969 27.2734C89.7539 18.1211 93.1914 12.5352 98.5195 12.5352C103.268 12.5352 106.533 16.8965 107.285 24.2227H109.262V10.4727H115.75ZM98.5195 19.0664C96.8867 19.0664 96.0703 21.4297 96.1133 27.2734C96.0703 33.1602 96.8867 35.4805 98.5195 35.4805C100.195 35.4805 101.098 33.1602 101.098 27.2734C101.098 21.4297 100.195 19.0664 98.5195 19.0664ZM158.977 13.0508V32.6445L139.125 32.6445V13.0508H158.977ZM145.914 18.4648V27.2305H152.145V18.4648H145.914ZM170.664 10.0859V38.1445H163.746V10.0859H170.664ZM171.609 43.7305V49.1875H143.465V35.6094H150.426V43.7305H171.609ZM206.973 10V18.0781H211.914V23.707H206.973V32H200.055V10H206.973ZM195.672 12.1914C195.672 23.0195 189.227 30.1094 177.195 33.2461L174.488 27.7461C182.781 25.834 187.121 22.0098 188.066 17.6055H176.551V12.1914H195.672ZM206.973 33.2891V49.3164H180.461V33.2891H206.973ZM187.293 38.7891V43.9883H200.184V38.7891H187.293ZM245 10.0859V21.6875H249.941V27.2734H245V39.6914H238.082V10.0859H245ZM236.664 13.8242V19.1523H213.16V13.8242H221.453V10H228.371V13.8242H236.664ZM224.891 20.0547C230.691 20.0547 234.816 23.2773 234.816 27.918C234.816 32.5586 230.691 35.6953 224.891 35.6523C219.047 35.6953 214.879 32.5586 214.879 27.918C214.879 23.2773 219.047 20.0547 224.891 20.0547ZM224.891 25.2539C222.914 25.2969 221.625 26.1133 221.625 27.918C221.625 29.7227 222.914 30.4961 224.891 30.4961C226.91 30.4961 228.285 29.7227 228.285 27.918C228.285 26.1133 226.91 25.2969 224.891 25.2539ZM246.16 43.6875V49.1875H218.66V37.457H225.578V43.6875H246.16Z"/>
</mask>
<path d="M46.9141 10.0859V38.918H39.9961V10.0859L46.9141 10.0859ZM35.3125 12.9219C35.2695 24.0078 28.8672 31.5273 16.6211 34.9648L14 29.5078C22.3145 27.209 26.7188 23.2773 27.793 18.5078H16.3633V12.9219H35.3125ZM47.6016 43.6875V49.1875H19.9297V36.2969H26.8047V43.6875H47.6016ZM74.1992 12.5352V17.9492H66.9805C67.3457 21.8594 69.666 25.6621 75.7031 27.3594L72.4805 32.7305C68.2266 31.5273 65.3691 29.1641 63.6289 26.1562C61.8457 29.8086 58.8164 32.709 54.1328 34.1484L50.6523 28.7773C57.0762 26.7793 59.4609 22.2891 59.8906 17.9492H52.457V12.5352H74.1992ZM83.3086 10V18.6797H88.25V24.2227H83.3086V33.332H76.3906V10H83.3086ZM70.1172 33.9336C78.4531 33.8906 83.6953 36.8555 83.6953 41.8398C83.6953 46.8242 78.4531 49.832 70.1172 49.832C61.5664 49.832 56.1953 46.8242 56.2383 41.8398C56.1953 36.8555 61.5664 33.8906 70.1172 33.9336ZM70.1172 39.2188C65.4336 39.2188 63.1133 39.9492 63.1133 41.8398C63.1133 43.7305 65.4336 44.5039 70.1172 44.5039C74.7148 44.5039 76.8633 43.7305 76.8633 41.8398C76.8633 39.9492 74.7148 39.2188 70.1172 39.2188ZM124.215 10V49.7461H117.641V10H124.215ZM115.75 10.4727V48.0273H109.262V29.6367H107.328C106.748 37.457 103.418 42.0977 98.5195 42.0977C93.1914 42.0977 89.7539 36.5117 89.7969 27.2734C89.7539 18.1211 93.1914 12.5352 98.5195 12.5352C103.268 12.5352 106.533 16.8965 107.285 24.2227H109.262V10.4727H115.75ZM98.5195 19.0664C96.8867 19.0664 96.0703 21.4297 96.1133 27.2734C96.0703 33.1602 96.8867 35.4805 98.5195 35.4805C100.195 35.4805 101.098 33.1602 101.098 27.2734C101.098 21.4297 100.195 19.0664 98.5195 19.0664ZM158.977 13.0508V32.6445L139.125 32.6445V13.0508H158.977ZM145.914 18.4648V27.2305H152.145V18.4648H145.914ZM170.664 10.0859V38.1445H163.746V10.0859H170.664ZM171.609 43.7305V49.1875H143.465V35.6094H150.426V43.7305H171.609ZM206.973 10V18.0781H211.914V23.707H206.973V32H200.055V10H206.973ZM195.672 12.1914C195.672 23.0195 189.227 30.1094 177.195 33.2461L174.488 27.7461C182.781 25.834 187.121 22.0098 188.066 17.6055H176.551V12.1914H195.672ZM206.973 33.2891V49.3164H180.461V33.2891H206.973ZM187.293 38.7891V43.9883H200.184V38.7891H187.293ZM245 10.0859V21.6875H249.941V27.2734H245V39.6914H238.082V10.0859H245ZM236.664 13.8242V19.1523H213.16V13.8242H221.453V10H228.371V13.8242H236.664ZM224.891 20.0547C230.691 20.0547 234.816 23.2773 234.816 27.918C234.816 32.5586 230.691 35.6953 224.891 35.6523C219.047 35.6953 214.879 32.5586 214.879 27.918C214.879 23.2773 219.047 20.0547 224.891 20.0547ZM224.891 25.2539C222.914 25.2969 221.625 26.1133 221.625 27.918C221.625 29.7227 222.914 30.4961 224.891 30.4961C226.91 30.4961 228.285 29.7227 228.285 27.918C228.285 26.1133 226.91 25.2969 224.891 25.2539ZM246.16 43.6875V49.1875H218.66V37.457H225.578V43.6875H246.16Z" fill="#11DCA9"/>
<path d="M46.9141 10.0859H56.9141C56.9141 4.56309 52.4369 0.0859375 46.9141 0.0859375V10.0859ZM46.9141 38.918V48.918C52.4369 48.918 56.9141 44.4408 56.9141 38.918H46.9141ZM39.9961 38.918H29.9961C29.9961 44.4408 34.4732 48.918 39.9961 48.918V38.918ZM39.9961 10.0859V0.0859375C34.4732 0.0859375 29.9961 4.56309 29.9961 10.0859H39.9961ZM35.3125 12.9219L45.3124 12.9606C45.3227 10.3018 44.2737 7.74828 42.3973 5.86452C40.5208 3.98077 37.9714 2.92187 35.3125 2.92187V12.9219ZM16.6211 34.9648L7.60697 39.2945C9.70879 43.6704 14.6498 45.9047 19.3237 44.5927L16.6211 34.9648ZM14 29.5078L11.3351 19.8694C8.48019 20.6588 6.1221 22.6732 4.89637 25.3697C3.67065 28.0662 3.70343 31.1674 4.98588 33.8374L14 29.5078ZM27.793 18.5078L37.5486 20.705C38.2162 17.7411 37.5 14.6343 35.6023 12.2617C33.7046 9.88905 30.8312 8.50781 27.793 8.50781V18.5078ZM16.3633 18.5078H6.36328C6.36328 24.0307 10.8404 28.5078 16.3633 28.5078V18.5078ZM16.3633 12.9219V2.92188C10.8404 2.92188 6.36328 7.39903 6.36328 12.9219H16.3633ZM47.6016 43.6875H57.6016C57.6016 38.1647 53.1244 33.6875 47.6016 33.6875V43.6875ZM47.6016 49.1875V59.1875C53.1244 59.1875 57.6016 54.7103 57.6016 49.1875H47.6016ZM19.9297 49.1875H9.92969C9.92969 54.7103 14.4068 59.1875 19.9297 59.1875V49.1875ZM19.9297 36.2969V26.2969C14.4068 26.2969 9.92969 30.774 9.92969 36.2969H19.9297ZM26.8047 36.2969H36.8047C36.8047 30.774 32.3275 26.2969 26.8047 26.2969V36.2969ZM26.8047 43.6875H16.8047C16.8047 49.2103 21.2818 53.6875 26.8047 53.6875V43.6875ZM46.9141 10.0859L36.9141 10.0859V38.918H46.9141H56.9141V10.0859H46.9141ZM46.9141 38.918V28.918H39.9961V38.918V48.918H46.9141V38.918ZM39.9961 38.918H49.9961V10.0859L39.9961 10.0859H29.9961V38.918H39.9961ZM39.9961 10.0859V20.0859H46.9141V10.0859V0.0859375H39.9961V10.0859ZM35.3125 12.9219L25.3126 12.8831C25.299 16.3964 24.3311 18.6769 22.9192 20.3402C21.4103 22.1178 18.6977 23.9954 13.9185 25.337L16.6211 34.9648L19.3237 44.5927C26.7905 42.4968 33.4022 38.8958 38.1667 33.2829C43.0283 27.5556 45.2831 20.5332 45.3124 12.9606L35.3125 12.9219ZM16.6211 34.9648L25.6352 30.6352L23.0141 25.1782L14 29.5078L4.98588 33.8374L7.60697 39.2945L16.6211 34.9648ZM14 29.5078L16.6649 39.1462C26.5188 36.4217 35.2897 30.7344 37.5486 20.705L27.793 18.5078L18.0373 16.3106C18.0311 16.3383 18.0187 16.3891 17.9515 16.4932C17.8781 16.607 17.6907 16.8571 17.2683 17.2037C16.3801 17.9325 14.5906 18.9693 11.3351 19.8694L14 29.5078ZM27.793 18.5078V8.50781H16.3633V18.5078V28.5078H27.793V18.5078ZM16.3633 18.5078H26.3633V12.9219H16.3633H6.36328V18.5078H16.3633ZM16.3633 12.9219V22.9219H35.3125V12.9219V2.92187L16.3633 2.92188V12.9219ZM47.6016 43.6875H37.6016V49.1875H47.6016H57.6016V43.6875H47.6016ZM47.6016 49.1875V39.1875H19.9297V49.1875V59.1875H47.6016V49.1875ZM19.9297 49.1875H29.9297V36.2969H19.9297H9.92969L9.92969 49.1875H19.9297ZM19.9297 36.2969V46.2969H26.8047V36.2969V26.2969H19.9297V36.2969ZM26.8047 36.2969H16.8047V43.6875H26.8047H36.8047V36.2969H26.8047ZM26.8047 43.6875V53.6875H47.6016V43.6875V33.6875H26.8047V43.6875ZM74.1992 12.5352L84.1992 12.5352C84.1992 7.01231 79.7221 2.53516 74.1992 2.53516V12.5352ZM74.1992 17.9492V27.9492C79.7221 27.9492 84.1992 23.4721 84.1992 17.9492L74.1992 17.9492ZM66.9805 17.9492V7.94922C64.1666 7.94922 61.4829 9.13478 59.5879 11.215C57.6929 13.2952 56.7621 16.0775 57.0238 18.8792L66.9805 17.9492ZM75.7031 27.3594L84.2781 32.5043C85.8817 29.8316 86.1474 26.564 84.9966 23.6673C83.8458 20.7706 81.4102 18.5762 78.4096 17.7326L75.7031 27.3594ZM72.4805 32.7305L69.7589 42.353C74.1035 43.5818 78.7325 41.747 81.0554 37.8754L72.4805 32.7305ZM63.6289 26.1562L72.2846 21.1483C70.434 17.9498 66.9704 16.0325 63.2774 16.1624C59.5844 16.2923 56.264 18.4482 54.6427 21.7689L63.6289 26.1562ZM54.1328 34.1484L45.7407 39.5865C48.1718 43.3381 52.7975 45.0205 57.0706 43.7072L54.1328 34.1484ZM50.6523 28.7773L47.6823 19.2286C44.6942 20.158 42.3135 22.4326 41.2488 25.3753C40.1842 28.3179 40.5585 31.5893 42.2602 34.2154L50.6523 28.7773ZM59.8906 17.9492L69.842 18.9345C70.1202 16.1247 69.1975 13.3282 67.3019 11.2355C65.4062 9.14291 62.7142 7.94922 59.8906 7.94922V17.9492ZM52.457 17.9492H42.457C42.457 23.4721 46.9342 27.9492 52.457 27.9492V17.9492ZM52.457 12.5352V2.53516C46.9342 2.53516 42.457 7.01231 42.457 12.5352H52.457ZM83.3086 10H93.3086C93.3086 4.47715 88.8314 0 83.3086 0V10ZM83.3086 18.6797L73.3086 18.6797C73.3086 24.2025 77.7857 28.6797 83.3086 28.6797V18.6797ZM88.25 18.6797H98.25C98.25 13.1568 93.7729 8.67969 88.25 8.67969V18.6797ZM88.25 24.2227V34.2227C93.7729 34.2227 98.25 29.7455 98.25 24.2227H88.25ZM83.3086 24.2227V14.2227C77.7857 14.2227 73.3086 18.6998 73.3086 24.2227L83.3086 24.2227ZM83.3086 33.332V43.332C88.8314 43.332 93.3086 38.8549 93.3086 33.332H83.3086ZM76.3906 33.332H66.3906C66.3906 38.8549 70.8678 43.332 76.3906 43.332V33.332ZM76.3906 10V0C70.8678 0 66.3906 4.47715 66.3906 10H76.3906ZM70.1172 33.9336L70.0669 43.9335C70.1009 43.9336 70.1348 43.9336 70.1687 43.9335L70.1172 33.9336ZM56.2383 41.8398L66.2379 41.926C66.2384 41.8686 66.2384 41.8111 66.2379 41.7536L56.2383 41.8398ZM74.1992 12.5352H64.1992V17.9492H74.1992L84.1992 17.9492V12.5352L74.1992 12.5352ZM74.1992 17.9492V7.94922H66.9805V17.9492V27.9492H74.1992V17.9492ZM66.9805 17.9492L57.0238 18.8792C57.3633 22.514 58.6612 26.4503 61.5418 29.897C64.4311 33.354 68.387 35.6902 72.9967 36.9862L75.7031 27.3594L78.4096 17.7326C77.6758 17.5263 77.2628 17.3147 77.0652 17.1938C76.8771 17.0786 76.8494 17.0253 76.8878 17.0712C76.9255 17.1163 76.9549 17.1711 76.9671 17.2023C76.9753 17.2233 76.9514 17.1717 76.9371 17.0192L66.9805 17.9492ZM75.7031 27.3594L67.1282 22.2144L63.9055 27.5855L72.4805 32.7305L81.0554 37.8754L84.2781 32.5043L75.7031 27.3594ZM72.4805 32.7305L75.202 23.1079C74.177 22.818 73.557 22.4593 73.1795 22.1712C72.8068 21.8867 72.5218 21.5583 72.2846 21.1483L63.6289 26.1562L54.9732 31.1642C58.0802 36.5342 63.128 40.4776 69.7589 42.353L72.4805 32.7305ZM63.6289 26.1562L54.6427 21.7689C54.0194 23.0456 53.1184 23.9986 51.195 24.5897L54.1328 34.1484L57.0706 43.7072C64.5144 41.4194 69.672 36.5716 72.6151 30.5436L63.6289 26.1562ZM54.1328 34.1484L62.5249 28.7104L59.0444 23.3393L50.6523 28.7773L42.2602 34.2154L45.7407 39.5865L54.1328 34.1484ZM50.6523 28.7773L53.6224 38.3261C58.6171 36.7726 62.6481 34.0258 65.4856 30.2861C68.2681 26.619 69.4835 22.5553 69.842 18.9345L59.8906 17.9492L49.9393 16.9639C49.8681 17.683 49.6763 18.0343 49.5529 18.1969C49.4847 18.2867 49.1115 18.7841 47.6823 19.2286L50.6523 28.7773ZM59.8906 17.9492V7.94922H52.457V17.9492V27.9492H59.8906V17.9492ZM52.457 17.9492H62.457V12.5352H52.457H42.457V17.9492H52.457ZM52.457 12.5352V22.5352H74.1992V12.5352V2.53516L52.457 2.53516V12.5352ZM83.3086 10H73.3086V18.6797L83.3086 18.6797H93.3086V10H83.3086ZM83.3086 18.6797V28.6797H88.25V18.6797V8.67969H83.3086V18.6797ZM88.25 18.6797H78.25V24.2227H88.25H98.25V18.6797H88.25ZM88.25 24.2227V14.2227H83.3086V24.2227V34.2227H88.25V24.2227ZM83.3086 24.2227L73.3086 24.2227V33.332H83.3086H93.3086V24.2227H83.3086ZM83.3086 33.332V23.332L76.3906 23.332V33.332V43.332H83.3086V33.332ZM76.3906 33.332H86.3906V10H76.3906H66.3906V33.332H76.3906ZM76.3906 10V20L83.3086 20V10V0H76.3906V10ZM70.1172 33.9336L70.1687 43.9335C71.6725 43.9257 72.843 44.0562 73.698 44.2359C74.5681 44.4189 74.9614 44.6208 75.0304 44.6607C75.0818 44.6903 74.7013 44.4811 74.3063 43.8595C73.8759 43.1825 73.6953 42.4312 73.6953 41.8398H83.6953H93.6953C93.6953 35.1435 89.8901 30.1472 85.034 27.3422C80.5828 24.7711 75.2187 23.9072 70.0656 23.9337L70.1172 33.9336ZM83.6953 41.8398H73.6953C73.6953 41.2489 73.8754 40.5086 74.2947 39.8458C74.6791 39.2381 75.0461 39.0365 74.9862 39.0716C74.9093 39.1165 74.5112 39.3221 73.6413 39.5102C72.7863 39.6952 71.6174 39.832 70.1172 39.832V49.832V59.832C75.2808 59.832 80.6397 58.9328 85.0783 56.3386C89.9063 53.5167 93.6953 48.5224 93.6953 41.8398H83.6953ZM70.1172 49.832V39.832C68.548 39.832 67.3138 39.6925 66.4 39.4997C65.4695 39.3033 65.0249 39.0846 64.9165 39.0226C64.8221 38.9687 65.1979 39.1607 65.6011 39.7885C66.0457 40.4811 66.2435 41.2739 66.2379 41.926L56.2383 41.8398L46.2387 41.7536C46.1797 48.5942 50.1336 53.6103 54.9937 56.3875C59.4687 58.9446 64.8822 59.832 70.1172 59.832V49.832ZM56.2383 41.8398L66.2379 41.7536C66.2435 42.4062 66.0453 43.21 65.5892 43.9169C65.1754 44.5584 64.7861 44.7576 64.8724 44.7089C64.9735 44.6518 65.4136 44.4369 66.3446 44.2459C67.2585 44.0585 68.4943 43.9256 70.0669 43.9335L70.1172 33.9336L70.1674 23.9337C64.9428 23.9075 59.5245 24.7602 55.0377 27.294C50.1505 30.054 46.1796 35.071 46.2387 41.926L56.2383 41.8398ZM70.1172 39.2188V29.2188C67.594 29.2188 64.3684 29.3702 61.4763 30.4098C59.931 30.9652 57.7926 32.0126 56.0026 34.0713C54.0273 36.3431 53.1133 39.1164 53.1133 41.8398H63.1133H73.1133C73.1133 43.6179 72.4893 45.591 71.0954 47.1941C69.8868 48.5841 68.6213 49.0943 68.2415 49.2308C67.8318 49.3781 67.7259 49.3489 68.1588 49.3004C68.5506 49.2566 69.1803 49.2188 70.1172 49.2188V39.2188ZM63.1133 41.8398H53.1133C53.1133 44.5591 54.0234 47.3117 55.9639 49.5703C57.7291 51.625 59.8453 52.6904 61.3998 53.2636C64.3122 54.3372 67.5554 54.5039 70.1172 54.5039V44.5039V34.5039C69.1962 34.5039 68.5807 34.4646 68.2039 34.4207C67.7873 34.3722 67.9021 34.3449 68.3179 34.4982C68.707 34.6416 69.9503 35.1592 71.1341 36.5371C72.4932 38.119 73.1133 40.0659 73.1133 41.8398H63.1133ZM70.1172 44.5039V54.5039C72.6211 54.5039 75.8821 54.3436 78.8192 53.2085C80.4163 52.5913 82.521 51.4597 84.2357 49.3364C86.0869 47.044 86.8633 44.3632 86.8633 41.8398H76.8633H66.8633C66.8633 40.2618 67.3711 38.3866 68.6758 36.7711C69.8439 35.3245 71.1243 34.7407 71.6095 34.5532C72.0981 34.3644 72.2855 34.3807 71.916 34.4252C71.5875 34.4647 71.0138 34.5039 70.1172 34.5039V44.5039ZM76.8633 41.8398H86.8633C86.8633 39.3139 86.0842 36.6116 84.1988 34.3045C82.4581 32.1746 80.3289 31.0612 78.7404 30.4626C75.8241 29.3637 72.5814 29.2188 70.1172 29.2188V39.2188V49.2188C71.03 49.2188 71.6184 49.2565 71.9626 49.2963C72.3493 49.341 72.171 49.3599 71.6883 49.178C71.2116 48.9984 69.9069 48.4221 68.7127 46.9608C67.3738 45.3225 66.8633 43.4205 66.8633 41.8398H76.8633ZM124.215 10H134.215C134.215 4.47715 129.738 0 124.215 0V10ZM124.215 49.7461V59.7461C129.738 59.7461 134.215 55.2689 134.215 49.7461H124.215ZM117.641 49.7461H107.641C107.641 55.2689 112.118 59.7461 117.641 59.7461V49.7461ZM117.641 10V0C112.118 0 107.641 4.47715 107.641 10L117.641 10ZM115.75 10.4727H125.75C125.75 4.94981 121.273 0.472656 115.75 0.472656V10.4727ZM115.75 48.0273V58.0273C121.273 58.0273 125.75 53.5502 125.75 48.0273H115.75ZM109.262 48.0273H99.2617C99.2617 53.5502 103.739 58.0273 109.262 58.0273V48.0273ZM109.262 29.6367H119.262C119.262 24.1139 114.785 19.6367 109.262 19.6367V29.6367ZM107.328 29.6367V19.6367C102.092 19.6367 97.7428 23.6755 97.3555 28.897L107.328 29.6367ZM89.7969 27.2734L99.7968 27.3199C99.7969 27.2888 99.7969 27.2576 99.7968 27.2265L89.7969 27.2734ZM107.285 24.2227L97.3374 25.2437C97.861 30.3444 102.158 34.2227 107.285 34.2227V24.2227ZM109.262 24.2227V34.2227C114.785 34.2227 119.262 29.7455 119.262 24.2227H109.262ZM109.262 10.4727V0.472656C103.739 0.472656 99.2617 4.94981 99.2617 10.4727L109.262 10.4727ZM96.1133 27.2734L106.113 27.3464C106.113 27.2976 106.113 27.2487 106.113 27.1999L96.1133 27.2734ZM124.215 10H114.215V49.7461H124.215H134.215V10H124.215ZM124.215 49.7461V39.7461H117.641V49.7461V59.7461H124.215V49.7461ZM117.641 49.7461H127.641V10H117.641L107.641 10V49.7461H117.641ZM117.641 10V20H124.215V10V0H117.641V10ZM115.75 10.4727L105.75 10.4727V48.0273H115.75H125.75V10.4727H115.75ZM115.75 48.0273V38.0273H109.262V48.0273V58.0273H115.75V48.0273ZM109.262 48.0273H119.262V29.6367H109.262H99.2617V48.0273H109.262ZM109.262 29.6367V19.6367H107.328V29.6367V39.6367H109.262V29.6367ZM107.328 29.6367L97.3555 28.897C97.2561 30.2367 97.0522 31.2436 96.8347 31.9531C96.615 32.6701 96.4162 32.9727 96.3886 33.0117C96.3741 33.0321 96.5644 32.7625 97.0504 32.4944C97.5658 32.2101 98.1084 32.0977 98.5195 32.0977V42.0977V52.0977C104.609 52.0977 109.549 49.024 112.698 44.5879C115.623 40.4667 116.93 35.3792 117.301 30.3764L107.328 29.6367ZM98.5195 42.0977V32.0977C99.0136 32.0977 99.6408 32.25 100.196 32.596C100.701 32.9115 100.827 33.1857 100.735 33.0316C100.471 32.5883 99.7802 30.8849 99.7968 27.3199L89.7969 27.2734L79.797 27.2269C79.7706 32.9002 80.7773 38.609 83.5532 43.2682C86.5433 48.287 91.7257 52.0977 98.5195 52.0977V42.0977ZM89.7969 27.2734L99.7968 27.2265C99.7803 23.7189 100.466 22.0402 100.725 21.6064C100.816 21.4557 100.69 21.7276 100.188 22.0402C99.6371 22.3831 99.0133 22.5352 98.5195 22.5352V12.5352V2.53516C91.7323 2.53516 86.5539 6.33843 83.5627 11.3379C80.7822 15.9852 79.7705 21.6756 79.797 27.3204L89.7969 27.2734ZM98.5195 12.5352V22.5352C98.124 22.5352 97.6012 22.431 97.0967 22.1632C96.6175 21.9087 96.4095 21.6431 96.3996 21.6299C96.3981 21.6279 96.4434 21.6882 96.5175 21.834C96.5916 21.98 96.6883 22.1994 96.7918 22.5058C97.002 23.128 97.2126 24.0281 97.3374 25.2437L107.285 24.2227L117.233 23.2016C116.744 18.4359 115.352 13.5677 112.402 9.63331C109.233 5.40601 104.396 2.53516 98.5195 2.53516V12.5352ZM107.285 24.2227V34.2227H109.262V24.2227V14.2227H107.285V24.2227ZM109.262 24.2227H119.262V10.4727H109.262L99.2617 10.4727V24.2227H109.262ZM109.262 10.4727V20.4727H115.75V10.4727V0.472656H109.262V10.4727ZM98.5195 19.0664V9.06641C95.3601 9.06641 92.4402 10.3424 90.2937 12.5409C88.4359 14.4435 87.5668 16.6056 87.1227 18.0623C86.2534 20.9133 86.0907 24.2421 86.1135 27.347L96.1133 27.2734L106.113 27.1999C106.104 25.9553 106.143 25.0595 106.199 24.4421C106.26 23.7845 106.321 23.6728 106.253 23.8948C106.212 24.0301 105.85 25.2362 104.604 26.5131C103.928 27.2048 103.018 27.8881 101.864 28.3795C100.706 28.8728 99.5522 29.0664 98.5195 29.0664V19.0664ZM96.1133 27.2734L86.1135 27.2004C86.0908 30.3168 86.2518 33.656 87.126 36.5116C87.5741 37.9756 88.4525 40.1469 90.3314 42.0505C92.5005 44.2482 95.4146 45.4805 98.5195 45.4805V35.4805V25.4805C99.5281 25.4805 100.666 25.6659 101.817 26.1489C102.965 26.6311 103.88 27.3067 104.566 28.0013C105.834 29.286 106.205 30.5093 106.25 30.6573C106.321 30.8893 106.26 30.7848 106.2 30.1247C106.143 29.5055 106.104 28.6041 106.113 27.3464L96.1133 27.2734ZM98.5195 35.4805V45.4805C101.541 45.4805 104.4 44.3219 106.579 42.2166C108.494 40.3657 109.435 38.2247 109.932 36.7235C110.892 33.8183 111.098 30.4309 111.098 27.2734H101.098H91.0977C91.0977 28.5116 91.0492 29.3909 90.9862 29.9854C90.919 30.6193 90.8585 30.6994 90.9425 30.4455C91.0037 30.2602 91.4053 29.0671 92.6799 27.8353C93.3624 27.1757 94.2558 26.5468 95.3577 26.1005C96.4604 25.654 97.5492 25.4805 98.5195 25.4805V35.4805ZM101.098 27.2734H111.098C111.098 24.1273 110.89 20.751 109.935 17.851C109.444 16.3577 108.512 14.2248 106.617 12.3739C104.46 10.2661 101.593 9.06641 98.5195 9.06641V19.0664V29.0664C97.5259 29.0664 96.4213 28.8853 95.3109 28.429C94.2035 27.974 93.3142 27.3375 92.6412 26.68C91.3871 25.4548 90.9953 24.278 90.9387 24.106C90.8584 23.8624 90.9193 23.9499 90.9864 24.5816C91.0493 25.1746 91.0977 26.0484 91.0977 27.2734H101.098ZM158.977 13.0508H168.977C168.977 7.52793 164.499 3.05078 158.977 3.05078V13.0508ZM158.977 32.6445V42.6445C164.499 42.6445 168.977 38.1674 168.977 32.6445H158.977ZM139.125 32.6445H129.125C129.125 38.1674 133.602 42.6445 139.125 42.6445V32.6445ZM139.125 13.0508V3.05078C133.602 3.05078 129.125 7.52793 129.125 13.0508H139.125ZM145.914 18.4648V8.46484C140.391 8.46484 135.914 12.942 135.914 18.4648H145.914ZM145.914 27.2305H135.914C135.914 32.7533 140.391 37.2305 145.914 37.2305V27.2305ZM152.145 27.2305V37.2305C157.667 37.2305 162.145 32.7533 162.145 27.2305H152.145ZM152.145 18.4648H162.145C162.145 12.942 157.667 8.46484 152.145 8.46484V18.4648ZM170.664 10.0859L180.664 10.0859C180.664 4.56309 176.187 0.0859375 170.664 0.0859375V10.0859ZM170.664 38.1445V48.1445C176.187 48.1445 180.664 43.6674 180.664 38.1445H170.664ZM163.746 38.1445H153.746C153.746 43.6674 158.223 48.1445 163.746 48.1445V38.1445ZM163.746 10.0859V0.0859375C158.223 0.0859375 153.746 4.56309 153.746 10.0859H163.746ZM171.609 43.7305H181.609C181.609 38.2076 177.132 33.7305 171.609 33.7305V43.7305ZM171.609 49.1875V59.1875C177.132 59.1875 181.609 54.7103 181.609 49.1875H171.609ZM143.465 49.1875L133.465 49.1875C133.465 54.7103 137.942 59.1875 143.465 59.1875V49.1875ZM143.465 35.6094V25.6094C137.942 25.6094 133.465 30.0865 133.465 35.6094L143.465 35.6094ZM150.426 35.6094H160.426C160.426 30.0865 155.949 25.6094 150.426 25.6094V35.6094ZM150.426 43.7305L140.426 43.7305C140.426 49.2533 144.903 53.7305 150.426 53.7305V43.7305ZM158.977 13.0508H148.977V32.6445H158.977H168.977V13.0508H158.977ZM158.977 32.6445V22.6445H139.125V32.6445V42.6445L158.977 42.6445V32.6445ZM139.125 32.6445L149.125 32.6445V13.0508H139.125H129.125V32.6445H139.125ZM139.125 13.0508V23.0508H158.977V13.0508V3.05078L139.125 3.05078V13.0508ZM145.914 18.4648H135.914V27.2305H145.914H155.914V18.4648H145.914ZM145.914 27.2305V37.2305H152.145V27.2305V17.2305H145.914V27.2305ZM152.145 27.2305H162.145V18.4648H152.145H142.145V27.2305H152.145ZM152.145 18.4648V8.46484H145.914V18.4648V28.4648H152.145V18.4648ZM170.664 10.0859H160.664V38.1445H170.664H180.664V10.0859L170.664 10.0859ZM170.664 38.1445V28.1445H163.746V38.1445V48.1445H170.664V38.1445ZM163.746 38.1445H173.746V10.0859L163.746 10.0859H153.746V38.1445H163.746ZM163.746 10.0859V20.0859H170.664V10.0859V0.0859375L163.746 0.0859375V10.0859ZM171.609 43.7305H161.609V49.1875H171.609H181.609V43.7305H171.609ZM171.609 49.1875V39.1875H143.465V49.1875V59.1875H171.609V49.1875ZM143.465 49.1875H153.465V35.6094H143.465L133.465 35.6094V49.1875L143.465 49.1875ZM143.465 35.6094V45.6094H150.426V35.6094V25.6094H143.465V35.6094ZM150.426 35.6094L140.426 35.6094V43.7305L150.426 43.7305H160.426V35.6094H150.426ZM150.426 43.7305V53.7305H171.609V43.7305V33.7305H150.426V43.7305ZM206.973 10H216.973C216.973 4.47715 212.495 0 206.973 0V10ZM206.973 18.0781L196.973 18.0781C196.973 23.601 201.45 28.0781 206.973 28.0781V18.0781ZM211.914 18.0781H221.914C221.914 12.5553 217.437 8.07812 211.914 8.07812V18.0781ZM211.914 23.707V33.707C217.437 33.707 221.914 29.2299 221.914 23.707H211.914ZM206.973 23.707V13.707C201.45 13.707 196.973 18.1842 196.973 23.707L206.973 23.707ZM206.973 32V42C212.495 42 216.973 37.5228 216.973 32H206.973ZM200.055 32H190.055C190.055 37.5228 194.532 42 200.055 42V32ZM200.055 10V0C194.532 0 190.055 4.47715 190.055 10H200.055ZM195.672 12.1914H205.672C205.672 6.66856 201.195 2.19141 195.672 2.19141V12.1914ZM177.195 33.2461L168.223 37.6621C170.32 41.9222 175.123 44.1205 179.718 42.9226L177.195 33.2461ZM174.488 27.7461L172.242 18.0018C169.265 18.688 166.766 20.6969 165.455 23.4559C164.145 26.215 164.167 29.4216 165.516 32.1621L174.488 27.7461ZM188.066 17.6055L197.844 19.704C198.478 16.7508 197.743 13.6693 195.844 11.32C193.946 8.97073 191.087 7.60547 188.066 7.60547V17.6055ZM176.551 17.6055H166.551C166.551 23.1283 171.028 27.6055 176.551 27.6055V17.6055ZM176.551 12.1914V2.19141C171.028 2.19141 166.551 6.66856 166.551 12.1914L176.551 12.1914ZM206.973 33.2891H216.973C216.973 27.7662 212.495 23.2891 206.973 23.2891V33.2891ZM206.973 49.3164V59.3164C212.495 59.3164 216.973 54.8393 216.973 49.3164H206.973ZM180.461 49.3164H170.461C170.461 54.8393 174.938 59.3164 180.461 59.3164V49.3164ZM180.461 33.2891V23.2891C174.938 23.2891 170.461 27.7662 170.461 33.2891H180.461ZM187.293 38.7891V28.7891C181.77 28.7891 177.293 33.2662 177.293 38.7891H187.293ZM187.293 43.9883H177.293C177.293 49.5111 181.77 53.9883 187.293 53.9883V43.9883ZM200.184 43.9883V53.9883C205.706 53.9883 210.184 49.5111 210.184 43.9883H200.184ZM200.184 38.7891H210.184C210.184 33.2662 205.706 28.7891 200.184 28.7891V38.7891ZM206.973 10H196.973V18.0781L206.973 18.0781H216.973V10H206.973ZM206.973 18.0781V28.0781H211.914V18.0781V8.07812H206.973V18.0781ZM211.914 18.0781L201.914 18.0781V23.707L211.914 23.707H221.914V18.0781H211.914ZM211.914 23.707V13.707H206.973V23.707V33.707H211.914V23.707ZM206.973 23.707L196.973 23.707V32H206.973H216.973V23.707H206.973ZM206.973 32V22L200.055 22V32V42H206.973V32ZM200.055 32H210.055V10H200.055H190.055V32H200.055ZM200.055 10V20L206.973 20V10V0H200.055V10ZM195.672 12.1914H185.672C185.672 15.4844 184.753 17.5114 183.459 18.9736C182.033 20.5831 179.399 22.3373 174.673 23.5696L177.195 33.2461L179.718 42.9226C187.023 41.0181 193.627 37.6591 198.432 32.2325C203.368 26.6585 205.672 19.7265 205.672 12.1914H195.672ZM177.195 33.2461L186.167 28.8301L183.46 23.3301L174.488 27.7461L165.516 32.1621L168.223 37.6621L177.195 33.2461ZM174.488 27.7461L176.735 37.4904C186.591 35.2179 195.696 29.7113 197.844 19.704L188.066 17.6055L178.289 15.5069C178.384 15.0626 178.577 15.184 177.885 15.7229C177.106 16.3301 175.411 17.271 172.242 18.0018L174.488 27.7461ZM188.066 17.6055V7.60547H176.551V17.6055V27.6055H188.066V17.6055ZM176.551 17.6055H186.551V12.1914H176.551L166.551 12.1914V17.6055H176.551ZM176.551 12.1914V22.1914H195.672V12.1914V2.19141L176.551 2.19141V12.1914ZM206.973 33.2891H196.973V49.3164H206.973H216.973V33.2891H206.973ZM206.973 49.3164V39.3164H180.461V49.3164V59.3164H206.973V49.3164ZM180.461 49.3164H190.461V33.2891H180.461H170.461V49.3164H180.461ZM180.461 33.2891V43.2891H206.973V33.2891V23.2891L180.461 23.2891V33.2891ZM187.293 38.7891H177.293V43.9883H187.293H197.293V38.7891H187.293ZM187.293 43.9883V53.9883H200.184V43.9883V33.9883H187.293V43.9883ZM200.184 43.9883H210.184V38.7891H200.184H190.184V43.9883H200.184ZM200.184 38.7891V28.7891H187.293V38.7891V48.7891H200.184V38.7891ZM245 10.0859H255C255 4.56309 250.523 0.0859375 245 0.0859375V10.0859ZM245 21.6875H235C235 27.2103 239.477 31.6875 245 31.6875V21.6875ZM249.941 21.6875H259.941C259.941 16.1647 255.464 11.6875 249.941 11.6875V21.6875ZM249.941 27.2734V37.2734C255.464 37.2734 259.941 32.7963 259.941 27.2734H249.941ZM245 27.2734V17.2734C239.477 17.2734 235 21.7506 235 27.2734H245ZM245 39.6914V49.6914C250.523 49.6914 255 45.2143 255 39.6914H245ZM238.082 39.6914H228.082C228.082 45.2143 232.559 49.6914 238.082 49.6914V39.6914ZM238.082 10.0859V0.0859375C232.559 0.0859375 228.082 4.56309 228.082 10.0859L238.082 10.0859ZM236.664 13.8242H246.664C246.664 8.30137 242.187 3.82422 236.664 3.82422V13.8242ZM236.664 19.1523V29.1523C242.187 29.1523 246.664 24.6752 246.664 19.1523H236.664ZM213.16 19.1523L203.16 19.1523C203.16 24.6752 207.637 29.1523 213.16 29.1523V19.1523ZM213.16 13.8242V3.82422C207.637 3.82422 203.16 8.30137 203.16 13.8242L213.16 13.8242ZM221.453 13.8242V23.8242C226.976 23.8242 231.453 19.3471 231.453 13.8242H221.453ZM221.453 10V0C215.93 0 211.453 4.47715 211.453 10H221.453ZM228.371 10L238.371 10C238.371 4.47715 233.894 0 228.371 0V10ZM228.371 13.8242H218.371C218.371 19.3471 222.848 23.8242 228.371 23.8242V13.8242ZM224.891 35.6523L224.965 25.6526C224.915 25.6523 224.866 25.6523 224.817 25.6526L224.891 35.6523ZM224.891 25.2539L225.103 15.2562C224.96 15.2531 224.817 15.2532 224.673 15.2563L224.891 25.2539ZM246.16 43.6875H256.16C256.16 38.1647 251.683 33.6875 246.16 33.6875V43.6875ZM246.16 49.1875V59.1875C251.683 59.1875 256.16 54.7103 256.16 49.1875H246.16ZM218.66 49.1875H208.66C208.66 54.7103 213.137 59.1875 218.66 59.1875V49.1875ZM218.66 37.457V27.457C213.137 27.457 208.66 31.9342 208.66 37.457H218.66ZM225.578 37.457H235.578C235.578 31.9342 231.101 27.457 225.578 27.457V37.457ZM225.578 43.6875H215.578C215.578 49.2103 220.055 53.6875 225.578 53.6875V43.6875ZM245 10.0859L235 10.0859V21.6875H245H255V10.0859H245ZM245 21.6875V31.6875H249.941V21.6875V11.6875H245V21.6875ZM249.941 21.6875H239.941V27.2734H249.941H259.941V21.6875H249.941ZM249.941 27.2734V17.2734H245V27.2734V37.2734H249.941V27.2734ZM245 27.2734H235V39.6914H245H255V27.2734H245ZM245 39.6914V29.6914H238.082V39.6914V49.6914H245V39.6914ZM238.082 39.6914H248.082V10.0859H238.082L228.082 10.0859V39.6914H238.082ZM238.082 10.0859V20.0859H245V10.0859V0.0859375L238.082 0.0859375V10.0859ZM236.664 13.8242H226.664V19.1523H236.664H246.664V13.8242H236.664ZM236.664 19.1523V9.15234L213.16 9.15234V19.1523V29.1523H236.664V19.1523ZM213.16 19.1523H223.16V13.8242H213.16L203.16 13.8242V19.1523L213.16 19.1523ZM213.16 13.8242V23.8242H221.453V13.8242V3.82422L213.16 3.82422V13.8242ZM221.453 13.8242H231.453V10H221.453H211.453V13.8242H221.453ZM221.453 10V20H228.371V10V0H221.453V10ZM228.371 10H218.371V13.8242H228.371H238.371V10L228.371 10ZM228.371 13.8242V23.8242H236.664V13.8242V3.82422H228.371V13.8242ZM224.891 20.0547V30.0547C226.015 30.0547 226.181 30.3697 225.835 30.0968C225.646 29.9475 225.364 29.6587 225.137 29.2037C224.904 28.7368 224.816 28.2729 224.816 27.918H234.816H244.816C244.816 22.357 242.239 17.5637 238.223 14.3954C234.364 11.351 229.567 10.0547 224.891 10.0547V20.0547ZM234.816 27.918H224.816C224.816 27.5621 224.904 27.0793 225.154 26.5852C225.397 26.1028 225.7 25.7942 225.91 25.6324C226.288 25.3394 226.132 25.6613 224.965 25.6526L224.891 35.6523L224.817 45.6521C229.45 45.6864 234.257 44.4614 238.148 41.4506C242.219 38.3007 244.816 33.4973 244.816 27.918H234.816ZM224.891 35.6523L224.817 25.6526C223.612 25.6615 223.419 25.3307 223.778 25.6054C223.978 25.7591 224.283 26.0633 224.531 26.55C224.786 27.0498 224.879 27.5449 224.879 27.918H214.879H204.879C204.879 33.5383 207.523 38.3447 211.609 41.4776C215.512 44.4701 220.326 45.6862 224.964 45.6521L224.891 35.6523ZM214.879 27.918H224.879C224.879 28.29 224.787 28.7662 224.548 29.2388C224.316 29.6982 224.033 29.9827 223.853 30.1242C223.526 30.3793 223.727 30.0547 224.891 30.0547V20.0547V10.0547C215.956 10.0547 204.879 15.6025 204.879 27.918H214.879ZM224.891 25.2539L224.673 15.2563C222.587 15.3016 219.361 15.7513 216.445 17.9796C213.064 20.5634 211.625 24.3486 211.625 27.918H221.625H231.625C231.625 28.6625 231.489 29.7332 230.948 30.9136C230.391 32.1283 229.552 33.1346 228.588 33.871C226.811 35.2292 225.218 35.2491 225.108 35.2515L224.891 25.2539ZM221.625 27.918H211.625C211.625 31.492 213.076 35.3526 216.59 37.9382C219.582 40.1396 222.853 40.4961 224.891 40.4961V30.4961V20.4961C224.951 20.4961 226.59 20.4658 228.443 21.8294C229.458 22.5757 230.341 23.6099 230.925 24.8656C231.49 26.0805 231.625 27.1768 231.625 27.918H221.625ZM224.891 30.4961V40.4961C226.922 40.4961 230.13 40.1493 233.095 38.0657C236.621 35.5876 238.285 31.7381 238.285 27.918H228.285H218.285C218.285 27.0865 218.449 25.922 219.065 24.6692C219.695 23.3883 220.614 22.3918 221.596 21.7019C223.368 20.4562 224.879 20.4961 224.891 20.4961V30.4961ZM228.285 27.918H238.285C238.285 24.1082 236.639 20.3277 233.24 17.8474C230.345 15.7347 227.179 15.3003 225.103 15.2562L224.891 25.2539L224.678 35.2516C224.622 35.2505 223.153 35.2458 221.451 34.0032C220.516 33.321 219.642 32.3492 219.04 31.1087C218.45 29.8906 218.285 28.7524 218.285 27.918H228.285ZM246.16 43.6875H236.16V49.1875H246.16H256.16V43.6875H246.16ZM246.16 49.1875V39.1875H218.66V49.1875V59.1875H246.16V49.1875ZM218.66 49.1875H228.66V37.457H218.66H208.66V49.1875H218.66ZM218.66 37.457V47.457H225.578V37.457V27.457H218.66V37.457ZM225.578 37.457H215.578V43.6875H225.578H235.578V37.457H225.578ZM225.578 43.6875V53.6875H246.16V43.6875V33.6875H225.578V43.6875Z" fill="white" mask="url(#path-1-outside-1_6526_5718)"/>
</g>
<defs>
<filter id="filter0_d_6526_5718" x="0" y="0" width="263.941" height="67.832" filterUnits="userSpaceOnUse" color-interpolation-filters="sRGB">
<feFlood flood-opacity="0" result="BackgroundImageFix"/>
<feColorMatrix in="SourceAlpha" type="matrix" values="0 0 0 0 0 0 0 0 0 0 0 0 0 0 0 0 0 0 127 0" result="hardAlpha"/>
<feOffset dy="4"/>
<feGaussianBlur stdDeviation="2"/>
<feComposite in2="hardAlpha" operator="out"/>
<feColorMatrix type="matrix" values="0 0 0 0 0 0 0 0 0 0 0 0 0 0 0 0 0 0 0.07 0"/>
<feBlend mode="normal" in2="BackgroundImageFix" result="effect1_dropShadow_6526_5718"/>
<feBlend mode="normal" in="SourceGraphic" in2="effect1_dropShadow_6526_5718" result="shape"/>
</filter>
</defs>
</svg>
