<svg width="177" height="68" viewBox="0 0 177 68" fill="none" xmlns="http://www.w3.org/2000/svg">
<g filter="url(#filter0_d_6524_1733)">
<mask id="path-1-outside-1_6524_1733" maskUnits="userSpaceOnUse" x="3.09766" y="-0.507813" width="170" height="61" fill="black">
<rect fill="white" x="3.09766" y="-0.507813" width="170" height="61"/>
<path d="M46.2695 19.8398V25.2109H35.6133V29.3789H50.3516V34.8359H14L14 29.3789H28.7383V25.2109H18.3398V10.9023H25.2148V19.8398H46.2695ZM46.6133 43.6875V49.1875H18.0391V36.8984H24.9141V43.6875H46.6133ZM85.6289 10V49.875H78.7539V10H85.6289ZM73.168 13.1367V29.207H61.1797V35.1367C66.8516 35.0723 71.5137 34.75 76.5625 33.8906L77.1211 39.4336C71.1055 40.5508 65.3047 40.7656 57.7852 40.7656H54.0469V23.8359H66.1211V18.6367H54.0469V13.1367H73.168ZM113.086 11.9336V17.3477H105.867C106.211 21.3652 108.51 25.4902 114.504 27.4453L111.195 32.7305C106.92 31.4629 104.084 28.9062 102.387 25.6836C100.625 29.25 97.6602 32.1074 93.1055 33.4609L89.582 28.0469C95.9844 26.1348 98.3262 21.5801 98.7344 17.3477H91.4727V11.9336L113.086 11.9336ZM123.871 35.1367V49.7461H116.996V40.5938H96.2422V35.1367H123.871ZM123.871 10V33.6328H116.996V24.6094H112.055V19.0234H116.996V10H123.871ZM161.598 10.0859V38.3164H154.68V10.0859H161.598ZM162.543 43.6875V49.1875L134.398 49.1875V35.4805L141.359 35.4805V43.6875H162.543ZM139.641 12.4492C145.828 12.4492 150.77 16.7461 150.77 22.6328C150.77 28.6484 145.828 32.9023 139.641 32.9023C133.453 32.9023 128.469 28.6484 128.512 22.6328C128.469 16.7461 133.453 12.4492 139.641 12.4492ZM139.641 18.4219C137.105 18.4219 135.215 19.8398 135.215 22.6328C135.215 25.5547 137.105 26.9297 139.641 26.9297C142.047 26.9297 143.938 25.5547 143.938 22.6328C143.938 19.8398 142.047 18.4219 139.641 18.4219Z"/>
</mask>
<path d="M46.2695 19.8398V25.2109H35.6133V29.3789H50.3516V34.8359H14L14 29.3789H28.7383V25.2109H18.3398V10.9023H25.2148V19.8398H46.2695ZM46.6133 43.6875V49.1875H18.0391V36.8984H24.9141V43.6875H46.6133ZM85.6289 10V49.875H78.7539V10H85.6289ZM73.168 13.1367V29.207H61.1797V35.1367C66.8516 35.0723 71.5137 34.75 76.5625 33.8906L77.1211 39.4336C71.1055 40.5508 65.3047 40.7656 57.7852 40.7656H54.0469V23.8359H66.1211V18.6367H54.0469V13.1367H73.168ZM113.086 11.9336V17.3477H105.867C106.211 21.3652 108.51 25.4902 114.504 27.4453L111.195 32.7305C106.92 31.4629 104.084 28.9062 102.387 25.6836C100.625 29.25 97.6602 32.1074 93.1055 33.4609L89.582 28.0469C95.9844 26.1348 98.3262 21.5801 98.7344 17.3477H91.4727V11.9336L113.086 11.9336ZM123.871 35.1367V49.7461H116.996V40.5938H96.2422V35.1367H123.871ZM123.871 10V33.6328H116.996V24.6094H112.055V19.0234H116.996V10H123.871ZM161.598 10.0859V38.3164H154.68V10.0859H161.598ZM162.543 43.6875V49.1875L134.398 49.1875V35.4805L141.359 35.4805V43.6875H162.543ZM139.641 12.4492C145.828 12.4492 150.77 16.7461 150.77 22.6328C150.77 28.6484 145.828 32.9023 139.641 32.9023C133.453 32.9023 128.469 28.6484 128.512 22.6328C128.469 16.7461 133.453 12.4492 139.641 12.4492ZM139.641 18.4219C137.105 18.4219 135.215 19.8398 135.215 22.6328C135.215 25.5547 137.105 26.9297 139.641 26.9297C142.047 26.9297 143.938 25.5547 143.938 22.6328C143.938 19.8398 142.047 18.4219 139.641 18.4219Z" fill="#11DCA9"/>
<path d="M46.2695 19.8398H56.2695C56.2695 14.317 51.7924 9.83984 46.2695 9.83984V19.8398ZM46.2695 25.2109V35.2109C51.7924 35.2109 56.2695 30.7338 56.2695 25.2109H46.2695ZM35.6133 25.2109V15.2109C30.0904 15.2109 25.6133 19.6881 25.6133 25.2109H35.6133ZM35.6133 29.3789H25.6133C25.6133 34.9018 30.0904 39.3789 35.6133 39.3789V29.3789ZM50.3516 29.3789H60.3516C60.3516 23.8561 55.8744 19.3789 50.3516 19.3789V29.3789ZM50.3516 34.8359V44.8359C55.8744 44.8359 60.3516 40.3588 60.3516 34.8359H50.3516ZM14 34.8359H4C4 40.3588 8.47715 44.8359 14 44.8359V34.8359ZM14 29.3789V19.3789C8.47715 19.3789 4 23.8561 4 29.3789H14ZM28.7383 29.3789V39.3789C34.2611 39.3789 38.7383 34.9018 38.7383 29.3789H28.7383ZM28.7383 25.2109H38.7383C38.7383 19.6881 34.2611 15.2109 28.7383 15.2109V25.2109ZM18.3398 25.2109H8.33984C8.33984 30.7338 12.817 35.2109 18.3398 35.2109V25.2109ZM18.3398 10.9023V0.902344C12.817 0.902344 8.33984 5.3795 8.33984 10.9023H18.3398ZM25.2148 10.9023H35.2148C35.2148 5.3795 30.7377 0.902344 25.2148 0.902344V10.9023ZM25.2148 19.8398H15.2148C15.2148 25.3627 19.692 29.8398 25.2148 29.8398V19.8398ZM46.6133 43.6875H56.6133C56.6133 38.1647 52.1361 33.6875 46.6133 33.6875V43.6875ZM46.6133 49.1875V59.1875C52.1361 59.1875 56.6133 54.7103 56.6133 49.1875H46.6133ZM18.0391 49.1875H8.03906C8.03906 54.7103 12.5162 59.1875 18.0391 59.1875V49.1875ZM18.0391 36.8984V26.8984C12.5162 26.8984 8.03906 31.3756 8.03906 36.8984H18.0391ZM24.9141 36.8984H34.9141C34.9141 31.3756 30.4369 26.8984 24.9141 26.8984V36.8984ZM24.9141 43.6875H14.9141C14.9141 49.2103 19.3912 53.6875 24.9141 53.6875V43.6875ZM46.2695 19.8398H36.2695V25.2109H46.2695H56.2695V19.8398H46.2695ZM46.2695 25.2109V15.2109H35.6133V25.2109V35.2109H46.2695V25.2109ZM35.6133 25.2109H25.6133V29.3789H35.6133H45.6133V25.2109H35.6133ZM35.6133 29.3789V39.3789H50.3516V29.3789V19.3789H35.6133V29.3789ZM50.3516 29.3789H40.3516V34.8359H50.3516H60.3516V29.3789H50.3516ZM50.3516 34.8359V24.8359H14L14 34.8359V44.8359H50.3516V34.8359ZM14 34.8359H24V29.3789H14H4V34.8359H14ZM14 29.3789L14 39.3789H28.7383V29.3789V19.3789H14V29.3789ZM28.7383 29.3789H38.7383V25.2109H28.7383H18.7383V29.3789H28.7383ZM28.7383 25.2109V15.2109H18.3398V25.2109V35.2109H28.7383V25.2109ZM18.3398 25.2109H28.3398V10.9023H18.3398H8.33984V25.2109H18.3398ZM18.3398 10.9023V20.9023H25.2148V10.9023V0.902344H18.3398V10.9023ZM25.2148 10.9023H15.2148V19.8398H25.2148H35.2148V10.9023H25.2148ZM25.2148 19.8398V29.8398H46.2695V19.8398V9.83984L25.2148 9.83984V19.8398ZM46.6133 43.6875H36.6133V49.1875H46.6133H56.6133V43.6875H46.6133ZM46.6133 49.1875V39.1875H18.0391V49.1875V59.1875H46.6133V49.1875ZM18.0391 49.1875H28.0391V36.8984H18.0391H8.03906L8.03906 49.1875H18.0391ZM18.0391 36.8984V46.8984H24.9141V36.8984V26.8984H18.0391V36.8984ZM24.9141 36.8984H14.9141V43.6875H24.9141H34.9141V36.8984H24.9141ZM24.9141 43.6875V53.6875H46.6133V43.6875V33.6875H24.9141V43.6875ZM85.6289 10H95.6289C95.6289 4.47715 91.1518 0 85.6289 0V10ZM85.6289 49.875V59.875C91.1518 59.875 95.6289 55.3978 95.6289 49.875H85.6289ZM78.7539 49.875H68.7539C68.7539 55.3978 73.2311 59.875 78.7539 59.875V49.875ZM78.7539 10V0C73.2311 0 68.7539 4.47715 68.7539 10H78.7539ZM73.168 13.1367L83.168 13.1367C83.168 7.61387 78.6908 3.13672 73.168 3.13672V13.1367ZM73.168 29.207V39.207C78.6908 39.207 83.168 34.7299 83.168 29.207H73.168ZM61.1797 29.207V19.207C55.6568 19.207 51.1797 23.6842 51.1797 29.207H61.1797ZM61.1797 35.1367H51.1797C51.1797 37.8086 52.2489 40.3693 54.1489 42.2478C56.0489 44.1264 58.6216 45.1664 61.2933 45.1361L61.1797 35.1367ZM76.5625 33.8906L86.5121 32.888C86.2343 30.1315 84.8254 27.6137 82.6214 25.9351C80.4173 24.2565 77.6157 23.5675 74.8845 24.0324L76.5625 33.8906ZM77.1211 39.4336L78.947 49.2655C84.0603 48.3159 87.5922 43.6054 87.0707 38.4309L77.1211 39.4336ZM54.0469 40.7656H44.0469C44.0469 46.2885 48.524 50.7656 54.0469 50.7656V40.7656ZM54.0469 23.8359V13.8359C48.524 13.8359 44.0469 18.3131 44.0469 23.8359H54.0469ZM66.1211 23.8359V33.8359C71.6439 33.8359 76.1211 29.3588 76.1211 23.8359H66.1211ZM66.1211 18.6367H76.1211C76.1211 13.1139 71.6439 8.63672 66.1211 8.63672V18.6367ZM54.0469 18.6367H44.0469C44.0469 24.1596 48.524 28.6367 54.0469 28.6367V18.6367ZM54.0469 13.1367V3.13672C48.524 3.13672 44.0469 7.61387 44.0469 13.1367H54.0469ZM85.6289 10H75.6289V49.875H85.6289H95.6289V10H85.6289ZM85.6289 49.875V39.875H78.7539V49.875V59.875H85.6289V49.875ZM78.7539 49.875H88.7539V10H78.7539H68.7539V49.875H78.7539ZM78.7539 10V20H85.6289V10V0L78.7539 0V10ZM73.168 13.1367H63.168V29.207H73.168H83.168V13.1367L73.168 13.1367ZM73.168 29.207V19.207H61.1797V29.207V39.207H73.168V29.207ZM61.1797 29.207H51.1797V35.1367H61.1797H71.1797V29.207H61.1797ZM61.1797 35.1367L61.2933 45.1361C67.3184 45.0676 72.5297 44.7209 78.2405 43.7488L76.5625 33.8906L74.8845 24.0324C70.4976 24.7791 66.3847 25.0769 61.0661 25.1374L61.1797 35.1367ZM76.5625 33.8906L66.6129 34.8933L67.1715 40.4363L77.1211 39.4336L87.0707 38.4309L86.5121 32.888L76.5625 33.8906ZM77.1211 39.4336L75.2952 29.6017C70.2154 30.5451 65.1655 30.7656 57.7852 30.7656V40.7656V50.7656C65.4439 50.7656 71.9955 50.5565 78.947 49.2655L77.1211 39.4336ZM57.7852 40.7656V30.7656H54.0469V40.7656V50.7656H57.7852V40.7656ZM54.0469 40.7656H64.0469V23.8359H54.0469H44.0469V40.7656H54.0469ZM54.0469 23.8359V33.8359H66.1211V23.8359V13.8359H54.0469V23.8359ZM66.1211 23.8359H76.1211V18.6367H66.1211H56.1211V23.8359H66.1211ZM66.1211 18.6367V8.63672H54.0469V18.6367V28.6367H66.1211V18.6367ZM54.0469 18.6367H64.0469V13.1367H54.0469H44.0469V18.6367H54.0469ZM54.0469 13.1367V23.1367H73.168V13.1367V3.13672L54.0469 3.13672V13.1367ZM113.086 11.9336H123.086C123.086 6.41075 118.609 1.93359 113.086 1.93359V11.9336ZM113.086 17.3477V27.3477C118.609 27.3477 123.086 22.8705 123.086 17.3477H113.086ZM105.867 17.3477V7.34766C103.067 7.34766 100.395 8.52187 98.5009 10.5847C96.607 12.6475 95.6649 15.41 95.9036 18.2002L105.867 17.3477ZM114.504 27.4453L122.98 32.7515C124.613 30.1428 124.954 26.9274 123.904 24.0343C122.854 21.1411 120.531 18.8926 117.605 17.9382L114.504 27.4453ZM111.195 32.7305L108.353 42.318C112.659 43.5947 117.288 41.8437 119.671 38.0367L111.195 32.7305ZM102.387 25.6836L111.235 21.0237C109.483 17.6983 106.015 15.6357 102.257 15.6844C98.4989 15.7332 95.0855 17.885 93.4209 21.2547L102.387 25.6836ZM93.1055 33.4609L84.7241 38.9155C87.1397 42.6273 91.7089 44.3082 95.954 43.0466L93.1055 33.4609ZM89.582 28.0469L86.7204 18.4651C83.6995 19.3673 81.281 21.6412 80.1946 24.6008C79.1081 27.5604 79.481 30.859 81.2006 33.5014L89.582 28.0469ZM98.7344 17.3477L108.688 18.3077C108.959 15.5015 108.032 12.7115 106.137 10.6246C104.242 8.53762 101.554 7.34766 98.7344 7.34766V17.3477ZM91.4727 17.3477H81.4727C81.4727 22.8705 85.9498 27.3477 91.4727 27.3477V17.3477ZM91.4727 11.9336V1.93359C85.9498 1.93359 81.4727 6.41075 81.4727 11.9336H91.4727ZM123.871 35.1367H133.871C133.871 29.6139 129.394 25.1367 123.871 25.1367V35.1367ZM123.871 49.7461V59.7461C129.394 59.7461 133.871 55.2689 133.871 49.7461H123.871ZM116.996 49.7461H106.996C106.996 55.2689 111.473 59.7461 116.996 59.7461V49.7461ZM116.996 40.5938H126.996C126.996 35.0709 122.519 30.5938 116.996 30.5938V40.5938ZM96.2422 40.5938H86.2422C86.2422 46.1166 90.7193 50.5938 96.2422 50.5938V40.5938ZM96.2422 35.1367V25.1367C90.7193 25.1367 86.2422 29.6139 86.2422 35.1367H96.2422ZM123.871 10H133.871C133.871 4.47715 129.394 0 123.871 0V10ZM123.871 33.6328V43.6328C129.394 43.6328 133.871 39.1557 133.871 33.6328H123.871ZM116.996 33.6328H106.996C106.996 39.1557 111.473 43.6328 116.996 43.6328V33.6328ZM116.996 24.6094H126.996C126.996 19.0865 122.519 14.6094 116.996 14.6094V24.6094ZM112.055 24.6094H102.055C102.055 30.1322 106.532 34.6094 112.055 34.6094V24.6094ZM112.055 19.0234V9.02344C106.532 9.02344 102.055 13.5006 102.055 19.0234H112.055ZM116.996 19.0234V29.0234C122.519 29.0234 126.996 24.5463 126.996 19.0234H116.996ZM116.996 10V0C111.473 0 106.996 4.47715 106.996 10L116.996 10ZM113.086 11.9336L103.086 11.9336V17.3477H113.086H123.086V11.9336H113.086ZM113.086 17.3477V7.34766L105.867 7.34766V17.3477V27.3477H113.086V17.3477ZM105.867 17.3477L95.9036 18.2002C96.2124 21.8092 97.4317 25.7441 100.139 29.2653C102.879 32.8285 106.728 35.4276 111.403 36.9524L114.504 27.4453L117.605 17.9382C116.916 17.7137 116.515 17.4865 116.303 17.3422C116.097 17.2021 116.018 17.1052 115.994 17.0746C115.968 17.0401 115.866 16.9037 115.831 16.4952L105.867 17.3477ZM114.504 27.4453L106.028 22.1391L102.719 27.4243L111.195 32.7305L119.671 38.0367L122.98 32.7515L114.504 27.4453ZM111.195 32.7305L114.038 23.143C113.105 22.8663 112.542 22.5185 112.187 22.2254C111.828 21.9295 111.512 21.55 111.235 21.0237L102.387 25.6836L93.5388 30.3435C96.4751 35.9188 101.459 40.274 108.353 42.318L111.195 32.7305ZM102.387 25.6836L93.4209 21.2547C92.7957 22.5204 91.9426 23.3743 90.2569 23.8752L93.1055 33.4609L95.954 43.0466C103.378 40.8405 108.454 35.9796 111.352 30.1125L102.387 25.6836ZM93.1055 33.4609L101.487 28.0064L97.9634 22.5923L89.582 28.0469L81.2006 33.5014L84.7241 38.9155L93.1055 33.4609ZM89.582 28.0469L92.4437 37.6287C97.5144 36.1143 101.566 33.3369 104.392 29.5854C107.152 25.9231 108.345 21.8708 108.688 18.3077L98.7344 17.3477L88.7806 16.3876C88.716 17.057 88.5335 17.3982 88.4195 17.5494C88.362 17.6258 88.2602 17.7403 88.0518 17.8813C87.838 18.026 87.4303 18.253 86.7204 18.4651L89.582 28.0469ZM98.7344 17.3477V7.34766H91.4727V17.3477V27.3477H98.7344V17.3477ZM91.4727 17.3477H101.473V11.9336H91.4727H81.4727V17.3477H91.4727ZM91.4727 11.9336V21.9336H113.086V11.9336V1.93359L91.4727 1.93359V11.9336ZM123.871 35.1367H113.871V49.7461H123.871H133.871V35.1367H123.871ZM123.871 49.7461V39.7461H116.996V49.7461V59.7461H123.871V49.7461ZM116.996 49.7461H126.996V40.5938H116.996H106.996V49.7461H116.996ZM116.996 40.5938V30.5938H96.2422V40.5938V50.5938H116.996V40.5938ZM96.2422 40.5938H106.242V35.1367H96.2422H86.2422V40.5938H96.2422ZM96.2422 35.1367V45.1367H123.871V35.1367V25.1367H96.2422V35.1367ZM123.871 10H113.871V33.6328H123.871H133.871V10H123.871ZM123.871 33.6328V23.6328H116.996V33.6328V43.6328H123.871V33.6328ZM116.996 33.6328H126.996V24.6094H116.996H106.996V33.6328H116.996ZM116.996 24.6094V14.6094H112.055V24.6094V34.6094H116.996V24.6094ZM112.055 24.6094H122.055V19.0234H112.055H102.055V24.6094H112.055ZM112.055 19.0234V29.0234H116.996V19.0234V9.02344H112.055V19.0234ZM116.996 19.0234H126.996V10H116.996L106.996 10V19.0234H116.996ZM116.996 10V20H123.871V10V0L116.996 0V10ZM161.598 10.0859H171.598C171.598 4.56309 167.12 0.0859375 161.598 0.0859375V10.0859ZM161.598 38.3164V48.3164C167.12 48.3164 171.598 43.8393 171.598 38.3164H161.598ZM154.68 38.3164H144.68C144.68 43.8393 149.157 48.3164 154.68 48.3164V38.3164ZM154.68 10.0859V0.0859375C149.157 0.0859375 144.68 4.56309 144.68 10.0859H154.68ZM162.543 43.6875H172.543C172.543 38.1647 168.066 33.6875 162.543 33.6875V43.6875ZM162.543 49.1875V59.1875C168.066 59.1875 172.543 54.7103 172.543 49.1875H162.543ZM134.398 49.1875H124.398C124.398 54.7103 128.876 59.1875 134.398 59.1875V49.1875ZM134.398 35.4805V25.4805C128.876 25.4805 124.398 29.9576 124.398 35.4805H134.398ZM141.359 35.4805H151.359C151.359 29.9576 146.882 25.4805 141.359 25.4805V35.4805ZM141.359 43.6875L131.359 43.6875C131.359 49.2103 135.837 53.6875 141.359 53.6875V43.6875ZM128.512 22.6328L138.511 22.7042C138.512 22.6561 138.512 22.608 138.511 22.5598L128.512 22.6328ZM161.598 10.0859H151.598V38.3164H161.598H171.598V10.0859H161.598ZM161.598 38.3164V28.3164H154.68V38.3164V48.3164H161.598V38.3164ZM154.68 38.3164H164.68V10.0859H154.68H144.68V38.3164H154.68ZM154.68 10.0859V20.0859H161.598V10.0859V0.0859375H154.68V10.0859ZM162.543 43.6875H152.543V49.1875H162.543H172.543V43.6875H162.543ZM162.543 49.1875V39.1875L134.398 39.1875V49.1875V59.1875L162.543 59.1875V49.1875ZM134.398 49.1875L144.398 49.1875V35.4805L134.398 35.4805H124.398V49.1875H134.398ZM134.398 35.4805V45.4805L141.359 45.4805V35.4805V25.4805H134.398V35.4805ZM141.359 35.4805L131.359 35.4805V43.6875L141.359 43.6875H151.359V35.4805H141.359ZM141.359 43.6875V53.6875H162.543V43.6875V33.6875H141.359V43.6875ZM139.641 12.4492V22.4492C140.427 22.4492 140.778 22.7145 140.831 22.7625C140.857 22.7856 140.83 22.7678 140.799 22.6996C140.764 22.6226 140.77 22.582 140.77 22.6328H150.77H160.77C160.77 10.2688 150.346 2.44922 139.641 2.44922V12.4492ZM150.77 22.6328H140.77C140.77 22.7467 140.751 22.7399 140.781 22.6728C140.808 22.6131 140.836 22.5906 140.82 22.6043C140.79 22.6322 140.452 22.9023 139.641 22.9023V32.9023V42.9023C150.375 42.9023 160.77 35.0994 160.77 22.6328H150.77ZM139.641 32.9023V22.9023C138.823 22.9023 138.471 22.6277 138.435 22.5954C138.42 22.5816 138.454 22.6101 138.488 22.6851C138.525 22.7686 138.511 22.7961 138.511 22.7042L128.512 22.6328L118.512 22.5614C118.422 35.147 128.979 42.9023 139.641 42.9023V32.9023ZM128.512 22.6328L138.511 22.5598C138.511 22.5318 138.513 22.5937 138.47 22.6872C138.432 22.7708 138.398 22.7945 138.424 22.7714C138.482 22.7191 138.848 22.4492 139.641 22.4492V12.4492V2.44922C129.01 2.44922 118.421 10.2208 118.512 22.7058L128.512 22.6328ZM139.641 18.4219V8.42187C136.591 8.42187 132.891 9.281 129.824 12.0143C126.587 14.899 125.215 18.8404 125.215 22.6328H135.215H145.215C145.215 23.6323 144.788 25.4682 143.13 26.9457C141.642 28.2717 140.155 28.4219 139.641 28.4219V18.4219ZM135.215 22.6328H125.215C125.215 26.3614 126.503 30.361 129.796 33.3174C132.915 36.1181 136.663 36.9297 139.641 36.9297V26.9297V16.9297C140.083 16.9297 141.619 17.0538 143.158 18.4365C144.872 19.9749 145.215 21.8261 145.215 22.6328H135.215ZM139.641 26.9297V36.9297C142.672 36.9297 146.388 36.0539 149.449 33.2485C152.655 30.3089 153.938 26.3568 153.938 22.6328H143.938H133.938C133.938 21.8307 134.274 20.027 135.934 18.5054C137.448 17.118 139.015 16.9297 139.641 16.9297V26.9297ZM143.938 22.6328H153.938C153.938 18.8465 152.573 14.9508 149.421 12.0829C146.413 9.347 142.745 8.42187 139.641 8.42187V18.4219V28.4219C138.943 28.4219 137.423 28.2057 135.962 26.8771C134.357 25.4164 133.938 23.6261 133.938 22.6328H143.938Z" fill="white" mask="url(#path-1-outside-1_6524_1733)"/>
</g>
<defs>
<filter id="filter0_d_6524_1733" x="0" y="0" width="176.543" height="67.875" filterUnits="userSpaceOnUse" color-interpolation-filters="sRGB">
<feFlood flood-opacity="0" result="BackgroundImageFix"/>
<feColorMatrix in="SourceAlpha" type="matrix" values="0 0 0 0 0 0 0 0 0 0 0 0 0 0 0 0 0 0 127 0" result="hardAlpha"/>
<feOffset dy="4"/>
<feGaussianBlur stdDeviation="2"/>
<feComposite in2="hardAlpha" operator="out"/>
<feColorMatrix type="matrix" values="0 0 0 0 0 0 0 0 0 0 0 0 0 0 0 0 0 0 0.07 0"/>
<feBlend mode="normal" in2="BackgroundImageFix" result="effect1_dropShadow_6524_1733"/>
<feBlend mode="normal" in="SourceGraphic" in2="effect1_dropShadow_6524_1733" result="shape"/>
</filter>
</defs>
</svg>
