<svg width="264" height="68" viewBox="0 0 264 68" fill="none" xmlns="http://www.w3.org/2000/svg">
<g filter="url(#filter0_d_6524_1763)">
<mask id="path-1-outside-1_6524_1763" maskUnits="userSpaceOnUse" x="3.09766" y="-0.507813" width="257" height="61" fill="black">
<rect fill="white" x="3.09766" y="-0.507813" width="257" height="61"/>
<path d="M46.2695 19.8398V25.2109H35.6133V29.3789H50.3516V34.8359H14L14 29.3789H28.7383V25.2109H18.3398V10.9023H25.2148V19.8398H46.2695ZM46.6133 43.6875V49.1875H18.0391V36.8984H24.9141V43.6875H46.6133ZM64.7891 12.5352C71.1484 12.4922 76.0039 16.7461 76.0039 22.5469C76.0039 28.3906 71.1484 32.6016 64.7891 32.5586C58.5586 32.6016 53.5742 28.3906 53.5742 22.5469C53.5742 16.7461 58.5586 12.4922 64.7891 12.5352ZM64.7891 18.4648C62.3828 18.4648 60.4492 19.8398 60.4492 22.5469C60.4492 25.3398 62.3828 26.6289 64.7891 26.6289C67.3242 26.6289 69.3008 25.3398 69.3008 22.5469C69.3008 19.8398 67.3242 18.4648 64.7891 18.4648ZM85.8867 10V49.875H79.0547V10H85.8867ZM52.1562 36.6406C59.0742 36.6406 68.7422 36.5117 77.0352 35.3945L77.5508 40.3359C68.957 42.0547 59.7188 42.1406 52.9297 42.1406L52.1562 36.6406ZM121.766 10V24.6523H126.836V30.2812H121.766V49.6602H114.848V10H121.766ZM110.938 13.9531C110.895 26.2422 106.684 36.5547 93.1055 43.2148L89.1953 37.9727C98.0469 33.5039 102.73 27.9395 103.934 19.5391H91.6875V13.9531H110.938ZM173.93 25.6836V31.0547L137.664 31.0547V25.6836H173.93ZM169.633 32.3437V43.1719H148.449V44.5039H170.578V49.5742H141.703V38.4883H162.844V37.2852H141.746V32.3437H169.633ZM170.621 11.1172V16.4883H160.867C162.371 18.0781 165.766 19.582 172.555 19.9258L170.406 25.2109C162.736 24.7168 158.053 22.5684 155.754 19.582C153.391 22.5469 148.771 24.7168 141.188 25.2109L139.082 19.9258C145.764 19.582 149.094 18.0566 150.598 16.4883H140.973V11.1172H170.621ZM209.508 10V49.7461H202.633V30.4531H195.801V24.8672H202.633V10H209.508ZM196.102 14.082C196.059 26.543 192.75 36.2109 178.484 43.2578L175.047 37.8867C184.586 33.1387 188.281 27.6602 189.141 19.4531H176.98V14.082H196.102ZM249.984 28.8633V34.2344H235.676V40.3789H228.672V34.2344H213.719V28.8633H249.984ZM246.031 43.6875V49.1875H217.758V37.1133H224.719V43.6875H246.031ZM231.852 10.6445C240.531 10.6445 246.418 13.9102 246.418 19.0664C246.418 24.1797 240.531 27.4023 231.852 27.4023C223.086 27.4023 217.199 24.1797 217.199 19.0664C217.199 13.9102 223.086 10.6445 231.852 10.6445ZM231.852 16.0156C227.383 16.0156 224.633 16.918 224.676 19.0664C224.633 21.043 227.383 21.9023 231.852 21.9453C236.277 21.9023 238.984 21.043 238.984 19.0664C238.984 16.918 236.277 16.0156 231.852 16.0156Z"/>
</mask>
<path d="M46.2695 19.8398V25.2109H35.6133V29.3789H50.3516V34.8359H14L14 29.3789H28.7383V25.2109H18.3398V10.9023H25.2148V19.8398H46.2695ZM46.6133 43.6875V49.1875H18.0391V36.8984H24.9141V43.6875H46.6133ZM64.7891 12.5352C71.1484 12.4922 76.0039 16.7461 76.0039 22.5469C76.0039 28.3906 71.1484 32.6016 64.7891 32.5586C58.5586 32.6016 53.5742 28.3906 53.5742 22.5469C53.5742 16.7461 58.5586 12.4922 64.7891 12.5352ZM64.7891 18.4648C62.3828 18.4648 60.4492 19.8398 60.4492 22.5469C60.4492 25.3398 62.3828 26.6289 64.7891 26.6289C67.3242 26.6289 69.3008 25.3398 69.3008 22.5469C69.3008 19.8398 67.3242 18.4648 64.7891 18.4648ZM85.8867 10V49.875H79.0547V10H85.8867ZM52.1562 36.6406C59.0742 36.6406 68.7422 36.5117 77.0352 35.3945L77.5508 40.3359C68.957 42.0547 59.7188 42.1406 52.9297 42.1406L52.1562 36.6406ZM121.766 10V24.6523H126.836V30.2812H121.766V49.6602H114.848V10H121.766ZM110.938 13.9531C110.895 26.2422 106.684 36.5547 93.1055 43.2148L89.1953 37.9727C98.0469 33.5039 102.73 27.9395 103.934 19.5391H91.6875V13.9531H110.938ZM173.93 25.6836V31.0547L137.664 31.0547V25.6836H173.93ZM169.633 32.3437V43.1719H148.449V44.5039H170.578V49.5742H141.703V38.4883H162.844V37.2852H141.746V32.3437H169.633ZM170.621 11.1172V16.4883H160.867C162.371 18.0781 165.766 19.582 172.555 19.9258L170.406 25.2109C162.736 24.7168 158.053 22.5684 155.754 19.582C153.391 22.5469 148.771 24.7168 141.188 25.2109L139.082 19.9258C145.764 19.582 149.094 18.0566 150.598 16.4883H140.973V11.1172H170.621ZM209.508 10V49.7461H202.633V30.4531H195.801V24.8672H202.633V10H209.508ZM196.102 14.082C196.059 26.543 192.75 36.2109 178.484 43.2578L175.047 37.8867C184.586 33.1387 188.281 27.6602 189.141 19.4531H176.98V14.082H196.102ZM249.984 28.8633V34.2344H235.676V40.3789H228.672V34.2344H213.719V28.8633H249.984ZM246.031 43.6875V49.1875H217.758V37.1133H224.719V43.6875H246.031ZM231.852 10.6445C240.531 10.6445 246.418 13.9102 246.418 19.0664C246.418 24.1797 240.531 27.4023 231.852 27.4023C223.086 27.4023 217.199 24.1797 217.199 19.0664C217.199 13.9102 223.086 10.6445 231.852 10.6445ZM231.852 16.0156C227.383 16.0156 224.633 16.918 224.676 19.0664C224.633 21.043 227.383 21.9023 231.852 21.9453C236.277 21.9023 238.984 21.043 238.984 19.0664C238.984 16.918 236.277 16.0156 231.852 16.0156Z" fill="#11DCA9"/>
<path d="M46.2695 19.8398H56.2695C56.2695 14.317 51.7924 9.83984 46.2695 9.83984V19.8398ZM46.2695 25.2109V35.2109C51.7924 35.2109 56.2695 30.7338 56.2695 25.2109H46.2695ZM35.6133 25.2109V15.2109C30.0904 15.2109 25.6133 19.6881 25.6133 25.2109H35.6133ZM35.6133 29.3789H25.6133C25.6133 34.9018 30.0904 39.3789 35.6133 39.3789V29.3789ZM50.3516 29.3789H60.3516C60.3516 23.8561 55.8744 19.3789 50.3516 19.3789V29.3789ZM50.3516 34.8359V44.8359C55.8744 44.8359 60.3516 40.3588 60.3516 34.8359H50.3516ZM14 34.8359H4C4 40.3588 8.47715 44.8359 14 44.8359V34.8359ZM14 29.3789V19.3789C8.47715 19.3789 4 23.8561 4 29.3789H14ZM28.7383 29.3789V39.3789C34.2611 39.3789 38.7383 34.9018 38.7383 29.3789H28.7383ZM28.7383 25.2109H38.7383C38.7383 19.6881 34.2611 15.2109 28.7383 15.2109V25.2109ZM18.3398 25.2109H8.33984C8.33984 30.7338 12.817 35.2109 18.3398 35.2109V25.2109ZM18.3398 10.9023V0.902344C12.817 0.902344 8.33984 5.3795 8.33984 10.9023H18.3398ZM25.2148 10.9023H35.2148C35.2148 5.3795 30.7377 0.902344 25.2148 0.902344V10.9023ZM25.2148 19.8398H15.2148C15.2148 25.3627 19.692 29.8398 25.2148 29.8398V19.8398ZM46.6133 43.6875H56.6133C56.6133 38.1647 52.1361 33.6875 46.6133 33.6875V43.6875ZM46.6133 49.1875V59.1875C52.1361 59.1875 56.6133 54.7103 56.6133 49.1875H46.6133ZM18.0391 49.1875H8.03906C8.03906 54.7103 12.5162 59.1875 18.0391 59.1875V49.1875ZM18.0391 36.8984V26.8984C12.5162 26.8984 8.03906 31.3756 8.03906 36.8984H18.0391ZM24.9141 36.8984H34.9141C34.9141 31.3756 30.4369 26.8984 24.9141 26.8984V36.8984ZM24.9141 43.6875H14.9141C14.9141 49.2103 19.3912 53.6875 24.9141 53.6875V43.6875ZM46.2695 19.8398H36.2695V25.2109H46.2695H56.2695V19.8398H46.2695ZM46.2695 25.2109V15.2109H35.6133V25.2109V35.2109H46.2695V25.2109ZM35.6133 25.2109H25.6133V29.3789H35.6133H45.6133V25.2109H35.6133ZM35.6133 29.3789V39.3789H50.3516V29.3789V19.3789H35.6133V29.3789ZM50.3516 29.3789H40.3516V34.8359H50.3516H60.3516V29.3789H50.3516ZM50.3516 34.8359V24.8359H14L14 34.8359V44.8359H50.3516V34.8359ZM14 34.8359H24V29.3789H14H4V34.8359H14ZM14 29.3789L14 39.3789H28.7383V29.3789V19.3789H14V29.3789ZM28.7383 29.3789H38.7383V25.2109H28.7383H18.7383V29.3789H28.7383ZM28.7383 25.2109V15.2109H18.3398V25.2109V35.2109H28.7383V25.2109ZM18.3398 25.2109H28.3398V10.9023H18.3398H8.33984V25.2109H18.3398ZM18.3398 10.9023V20.9023H25.2148V10.9023V0.902344H18.3398V10.9023ZM25.2148 10.9023H15.2148V19.8398H25.2148H35.2148V10.9023H25.2148ZM25.2148 19.8398V29.8398H46.2695V19.8398V9.83984L25.2148 9.83984V19.8398ZM46.6133 43.6875H36.6133V49.1875H46.6133H56.6133V43.6875H46.6133ZM46.6133 49.1875V39.1875H18.0391V49.1875V59.1875H46.6133V49.1875ZM18.0391 49.1875H28.0391V36.8984H18.0391H8.03906L8.03906 49.1875H18.0391ZM18.0391 36.8984V46.8984H24.9141V36.8984V26.8984H18.0391V36.8984ZM24.9141 36.8984H14.9141V43.6875H24.9141H34.9141V36.8984H24.9141ZM24.9141 43.6875V53.6875H46.6133V43.6875V33.6875H24.9141V43.6875ZM64.7891 12.5352L64.7201 22.5349C64.7656 22.5352 64.8111 22.5352 64.8566 22.5349L64.7891 12.5352ZM64.7891 32.5586L64.8566 22.5588C64.8111 22.5585 64.7656 22.5585 64.7201 22.5588L64.7891 32.5586ZM85.8867 10H95.8867C95.8867 4.47715 91.4096 0 85.8867 0V10ZM85.8867 49.875V59.875C91.4096 59.875 95.8867 55.3978 95.8867 49.875H85.8867ZM79.0547 49.875H69.0547C69.0547 55.3978 73.5318 59.875 79.0547 59.875V49.875ZM79.0547 10V0C73.5318 0 69.0547 4.47715 69.0547 10H79.0547ZM52.1562 36.6406V26.6406C49.2612 26.6406 46.5081 27.8953 44.6089 30.0803C42.7096 32.2654 41.8505 35.1663 42.2537 38.0332L52.1562 36.6406ZM77.0352 35.3945L86.9812 34.3567C86.7005 31.6672 85.3427 29.206 83.2172 27.5344C81.0918 25.8627 78.3799 25.123 75.7001 25.4841L77.0352 35.3945ZM77.5508 40.3359L79.5119 50.1417C84.5731 49.1295 88.0325 44.4317 87.4968 39.2981L77.5508 40.3359ZM52.9297 42.1406L43.0271 43.5332C43.7213 48.4694 47.9449 52.1406 52.9297 52.1406V42.1406ZM64.7891 12.5352L64.8566 22.5349C65.3222 22.5318 65.65 22.6075 65.852 22.6799C66.0554 22.7527 66.1372 22.8233 66.1426 22.8281C66.1444 22.8297 66.0955 22.784 66.0502 22.6848C66.0015 22.5782 66.0039 22.5128 66.0039 22.5469H76.0039L86.0039 22.5469C86.0039 10.1666 75.5408 2.46228 64.7215 2.53538L64.7891 12.5352ZM76.0039 22.5469H66.0039C66.0039 22.6018 65.9973 22.543 66.0476 22.4328C66.069 22.3858 66.0936 22.3458 66.1163 22.3153C66.1387 22.2853 66.1538 22.2718 66.1538 22.2718C66.1535 22.2721 66.1348 22.2886 66.0906 22.3144C66.0463 22.3403 65.9753 22.376 65.8728 22.4125C65.6688 22.4851 65.3341 22.562 64.8566 22.5588L64.7891 32.5586L64.7215 42.5584C75.5109 42.6313 86.0039 34.9968 86.0039 22.5469L76.0039 22.5469ZM64.7891 32.5586L64.7201 22.5588C63.8587 22.5648 63.4819 22.2798 63.443 22.2456C63.4265 22.2312 63.4727 22.2685 63.5201 22.3707C63.5721 22.4827 63.5742 22.5621 63.5742 22.5469H53.5742H43.5742C43.5742 35.0666 54.275 42.6313 64.858 42.5584L64.7891 32.5586ZM53.5742 22.5469H63.5742C63.5742 22.5409 63.5745 22.5641 63.5647 22.6086C63.555 22.6526 63.539 22.7006 63.5175 22.7469C63.4719 22.8448 63.4305 22.8752 63.4542 22.8544C63.507 22.8078 63.8854 22.5292 64.7201 22.5349L64.7891 12.5352L64.858 2.53539C54.245 2.4622 43.5742 10.0966 43.5742 22.5469H53.5742ZM64.7891 18.4648V8.46484C61.7687 8.46484 58.1615 9.32939 55.1537 11.9458C51.9515 14.7313 50.4492 18.6259 50.4492 22.5469H60.4492H70.4492C70.4492 23.7608 69.9138 25.6144 68.2799 27.0357C66.8404 28.2878 65.4032 28.4648 64.7891 28.4648V18.4648ZM60.4492 22.5469H50.4492C50.4492 26.4329 51.9018 30.3964 55.2132 33.2315C58.2887 35.8646 61.9187 36.6289 64.7891 36.6289V26.6289V16.6289C65.2532 16.6289 66.7133 16.7486 68.2204 18.039C69.9635 19.5313 70.4492 21.4538 70.4492 22.5469H60.4492ZM64.7891 26.6289V36.6289C67.6114 36.6289 71.2509 35.9223 74.3723 33.3383C77.7749 30.5216 79.3008 26.5148 79.3008 22.5469L69.3008 22.5469H59.3008C59.3008 21.3719 59.8384 19.4061 61.6189 17.9322C63.1182 16.691 64.5019 16.6289 64.7891 16.6289V26.6289ZM69.3008 22.5469L79.3008 22.5469C79.3008 18.5435 77.7238 14.606 74.4323 11.8377C71.374 9.2655 67.7563 8.46484 64.7891 8.46484V18.4648V28.4648C64.357 28.4648 62.9951 28.3517 61.5589 27.1438C59.8895 25.7397 59.3008 23.8432 59.3008 22.5469H69.3008ZM85.8867 10H75.8867V49.875H85.8867H95.8867V10H85.8867ZM85.8867 49.875V39.875H79.0547V49.875V59.875H85.8867V49.875ZM79.0547 49.875H89.0547V10H79.0547H69.0547V49.875H79.0547ZM79.0547 10V20H85.8867V10V0L79.0547 0V10ZM52.1562 36.6406V46.6406C59.0841 46.6406 69.3478 46.5205 78.3702 45.305L77.0352 35.3945L75.7001 25.4841C68.1366 26.503 59.0644 26.6406 52.1562 26.6406V36.6406ZM77.0352 35.3945L67.0892 36.4324L67.6048 41.3738L77.5508 40.3359L87.4968 39.2981L86.9812 34.3567L77.0352 35.3945ZM77.5508 40.3359L75.5896 30.5301C68.0831 32.0314 59.7597 32.1406 52.9297 32.1406V42.1406V52.1406C59.6778 52.1406 69.8309 52.0779 79.5119 50.1417L77.5508 40.3359ZM52.9297 42.1406L62.8323 40.7481L62.0588 35.2481L52.1562 36.6406L42.2537 38.0332L43.0271 43.5332L52.9297 42.1406ZM121.766 10H131.766C131.766 4.47715 127.288 0 121.766 0V10ZM121.766 24.6523H111.766C111.766 30.1752 116.243 34.6523 121.766 34.6523V24.6523ZM126.836 24.6523H136.836C136.836 19.1295 132.359 14.6523 126.836 14.6523V24.6523ZM126.836 30.2812V40.2812C132.359 40.2812 136.836 35.8041 136.836 30.2812H126.836ZM121.766 30.2812V20.2812C116.243 20.2812 111.766 24.7584 111.766 30.2812H121.766ZM121.766 49.6602V59.6602C127.288 59.6602 131.766 55.183 131.766 49.6602H121.766ZM114.848 49.6602H104.848C104.848 55.183 109.325 59.6602 114.848 59.6602V49.6602ZM114.848 10V0C109.325 0 104.848 4.47715 104.848 10L114.848 10ZM110.938 13.9531L120.937 13.9881C120.947 11.3299 119.897 8.77736 118.021 6.89443C116.145 5.0115 113.596 3.95312 110.938 3.95312V13.9531ZM93.1055 43.2148L85.0897 49.1938C87.968 53.0526 93.1872 54.313 97.5093 52.193L93.1055 43.2148ZM89.1953 37.9727L84.6885 29.0458C82.0517 30.377 80.1383 32.8059 79.4614 35.6812C78.7845 38.5565 79.4135 41.5839 81.1796 43.9516L89.1953 37.9727ZM103.934 19.5391L113.833 20.9568C114.244 18.0866 113.389 15.1792 111.489 12.9884C109.59 10.7976 106.833 9.53906 103.934 9.53906V19.5391ZM91.6875 19.5391H81.6875C81.6875 25.0619 86.1646 29.5391 91.6875 29.5391V19.5391ZM91.6875 13.9531V3.95312C86.1646 3.95312 81.6875 8.43028 81.6875 13.9531H91.6875ZM121.766 10H111.766V24.6523H121.766H131.766V10H121.766ZM121.766 24.6523V34.6523H126.836V24.6523V14.6523H121.766V24.6523ZM126.836 24.6523H116.836V30.2812H126.836H136.836V24.6523H126.836ZM126.836 30.2812V20.2812H121.766V30.2812V40.2812H126.836V30.2812ZM121.766 30.2812H111.766V49.6602H121.766H131.766V30.2812H121.766ZM121.766 49.6602V39.6602H114.848V49.6602V59.6602H121.766V49.6602ZM114.848 49.6602H124.848V10H114.848L104.848 10V49.6602H114.848ZM114.848 10V20H121.766V10V0L114.848 0V10ZM110.938 13.9531L100.938 13.9182C100.92 18.9688 100.045 22.8059 98.361 25.8287C96.7381 28.7423 93.94 31.6673 88.7017 34.2367L93.1055 43.2148L97.5093 52.193C105.849 48.1022 111.946 42.5409 115.833 35.5609C119.66 28.6902 120.912 21.2265 120.937 13.9881L110.938 13.9531ZM93.1055 43.2148L101.121 37.2359L97.2111 31.9937L89.1953 37.9727L81.1796 43.9516L85.0897 49.1938L93.1055 43.2148ZM89.1953 37.9727L93.7021 46.8995C98.9468 44.2517 103.621 40.951 107.206 36.5212C110.877 31.9849 113.001 26.7651 113.833 20.9568L103.934 19.5391L94.0346 18.1213C93.6634 20.7134 92.8435 22.4761 91.6594 23.9392C90.389 25.5089 88.2954 27.2248 84.6885 29.0458L89.1953 37.9727ZM103.934 19.5391V9.53906H91.6875V19.5391V29.5391H103.934V19.5391ZM91.6875 19.5391H101.688V13.9531H91.6875H81.6875V19.5391H91.6875ZM91.6875 13.9531V23.9531H110.938V13.9531V3.95312L91.6875 3.95312V13.9531ZM173.93 25.6836H183.93C183.93 20.1607 179.453 15.6836 173.93 15.6836V25.6836ZM173.93 31.0547V41.0547C179.453 41.0547 183.93 36.5775 183.93 31.0547H173.93ZM137.664 31.0547H127.664C127.664 36.5775 132.141 41.0547 137.664 41.0547V31.0547ZM137.664 25.6836V15.6836C132.141 15.6836 127.664 20.1607 127.664 25.6836H137.664ZM169.633 32.3437H179.633C179.633 26.8209 175.156 22.3437 169.633 22.3437V32.3437ZM169.633 43.1719V53.1719C175.156 53.1719 179.633 48.6947 179.633 43.1719H169.633ZM148.449 43.1719V33.1719C142.926 33.1719 138.449 37.649 138.449 43.1719L148.449 43.1719ZM148.449 44.5039L138.449 44.5039C138.449 50.0268 142.926 54.5039 148.449 54.5039V44.5039ZM170.578 44.5039H180.578C180.578 38.9811 176.101 34.5039 170.578 34.5039V44.5039ZM170.578 49.5742V59.5742C176.101 59.5742 180.578 55.0971 180.578 49.5742H170.578ZM141.703 49.5742L131.703 49.5742C131.703 55.0971 136.18 59.5742 141.703 59.5742V49.5742ZM141.703 38.4883V28.4883C136.18 28.4883 131.703 32.9654 131.703 38.4883L141.703 38.4883ZM162.844 38.4883V48.4883C168.367 48.4883 172.844 44.0111 172.844 38.4883H162.844ZM162.844 37.2852H172.844C172.844 31.7623 168.367 27.2852 162.844 27.2852V37.2852ZM141.746 37.2852L131.746 37.2852C131.746 42.808 136.223 47.2852 141.746 47.2852V37.2852ZM141.746 32.3437V22.3437C136.223 22.3437 131.746 26.8209 131.746 32.3438L141.746 32.3437ZM170.621 11.1172L180.621 11.1172C180.621 5.59434 176.144 1.11719 170.621 1.11719V11.1172ZM170.621 16.4883V26.4883C176.144 26.4883 180.621 22.0111 180.621 16.4883H170.621ZM160.867 16.4883V6.48828C156.873 6.48828 153.262 8.86502 151.682 12.5335C150.103 16.2021 150.858 20.4587 153.603 23.3603L160.867 16.4883ZM172.555 19.9258L181.819 23.6916C183.038 20.6913 182.729 17.2861 180.99 14.5543C179.25 11.8225 176.295 10.1024 173.06 9.93857L172.555 19.9258ZM170.406 25.2109L169.763 35.1902C174.059 35.467 178.049 32.9641 179.67 28.9767L170.406 25.2109ZM155.754 19.582L163.678 13.4822C161.803 11.0465 158.912 9.60841 155.839 9.58239C152.765 9.55637 149.85 10.9453 147.934 13.3489L155.754 19.582ZM141.188 25.2109L131.898 28.9118C133.501 32.9369 137.514 35.4715 141.838 35.1898L141.188 25.2109ZM139.082 19.9258L138.568 9.93899C135.348 10.1047 132.404 11.8134 130.664 14.5282C128.923 17.2431 128.599 20.6307 129.792 23.6267L139.082 19.9258ZM150.598 16.4883L157.815 23.4095C160.588 20.5177 161.368 16.25 159.796 12.5648C158.224 8.87955 154.604 6.48828 150.598 6.48828V16.4883ZM140.973 16.4883H130.973C130.973 22.0111 135.45 26.4883 140.973 26.4883V16.4883ZM140.973 11.1172V1.11719C135.45 1.11719 130.973 5.59434 130.973 11.1172H140.973ZM173.93 25.6836H163.93V31.0547H173.93H183.93V25.6836H173.93ZM173.93 31.0547V21.0547H137.664V31.0547V41.0547L173.93 41.0547V31.0547ZM137.664 31.0547L147.664 31.0547V25.6836H137.664H127.664V31.0547H137.664ZM137.664 25.6836V35.6836L173.93 35.6836V25.6836V15.6836H137.664V25.6836ZM169.633 32.3437H159.633V43.1719H169.633H179.633V32.3437H169.633ZM169.633 43.1719V33.1719H148.449V43.1719V53.1719H169.633V43.1719ZM148.449 43.1719L138.449 43.1719V44.5039L148.449 44.5039H158.449V43.1719H148.449ZM148.449 44.5039V54.5039H170.578V44.5039V34.5039H148.449V44.5039ZM170.578 44.5039H160.578V49.5742H170.578H180.578V44.5039H170.578ZM170.578 49.5742V39.5742H141.703V49.5742V59.5742H170.578V49.5742ZM141.703 49.5742H151.703V38.4883H141.703L131.703 38.4883V49.5742L141.703 49.5742ZM141.703 38.4883V48.4883H162.844V38.4883V28.4883H141.703V38.4883ZM162.844 38.4883H172.844V37.2852H162.844H152.844V38.4883H162.844ZM162.844 37.2852V27.2852H141.746V37.2852V47.2852H162.844V37.2852ZM141.746 37.2852H151.746V32.3437H141.746L131.746 32.3438V37.2852L141.746 37.2852ZM141.746 32.3437V42.3437H169.633V32.3437V22.3437H141.746V32.3437ZM170.621 11.1172H160.621V16.4883H170.621H180.621V11.1172L170.621 11.1172ZM170.621 16.4883V6.48828H160.867V16.4883V26.4883H170.621V16.4883ZM160.867 16.4883L153.603 23.3603C157.847 27.8469 164.578 29.5347 172.049 29.913L172.555 19.9258L173.06 9.93857C170.266 9.79708 168.649 9.43547 167.843 9.17136C167.005 8.89712 167.409 8.85194 168.132 9.61628L160.867 16.4883ZM172.555 19.9258L163.291 16.16L161.142 21.4451L170.406 25.2109L179.67 28.9767L181.819 23.6916L172.555 19.9258ZM170.406 25.2109L171.049 15.2316C167.962 15.0327 165.975 14.5269 164.798 14.0534C163.643 13.5891 163.506 13.259 163.678 13.4822L155.754 19.582L147.83 25.6819C152.726 32.0422 160.968 34.6236 169.763 35.1902L170.406 25.2109ZM155.754 19.582L147.934 13.3489C148.098 13.1429 146.845 14.8211 140.537 15.2321L141.188 25.2109L141.838 35.1898C150.698 34.6125 158.683 31.9509 163.574 25.8152L155.754 19.582ZM141.188 25.2109L150.477 21.5101L148.372 16.2249L139.082 19.9258L129.792 23.6267L131.898 28.9118L141.188 25.2109ZM139.082 19.9258L139.596 29.9126C147.098 29.5266 153.637 27.7669 157.815 23.4095L150.598 16.4883L143.38 9.56708C144.045 8.87304 144.394 8.92031 143.611 9.18218C142.843 9.43879 141.283 9.79931 138.568 9.93899L139.082 19.9258ZM150.598 16.4883V6.48828H140.973V16.4883V26.4883H150.598V16.4883ZM140.973 16.4883H150.973V11.1172H140.973H130.973V16.4883H140.973ZM140.973 11.1172V21.1172H170.621V11.1172V1.11719L140.973 1.11719V11.1172ZM209.508 10H219.508C219.508 4.47715 215.031 0 209.508 0V10ZM209.508 49.7461V59.7461C215.031 59.7461 219.508 55.2689 219.508 49.7461H209.508ZM202.633 49.7461H192.633C192.633 55.2689 197.11 59.7461 202.633 59.7461V49.7461ZM202.633 30.4531H212.633C212.633 24.9303 208.156 20.4531 202.633 20.4531V30.4531ZM195.801 30.4531H185.801C185.801 35.976 190.278 40.4531 195.801 40.4531V30.4531ZM195.801 24.8672V14.8672C190.278 14.8672 185.801 19.3443 185.801 24.8672H195.801ZM202.633 24.8672V34.8672C208.156 34.8672 212.633 30.39 212.633 24.8672L202.633 24.8672ZM202.633 10V0C197.11 0 192.633 4.47715 192.633 10H202.633ZM196.102 14.082L206.102 14.1165C206.111 11.4584 205.061 8.90599 203.185 7.02317C201.308 5.14034 198.76 4.08203 196.102 4.08203V14.082ZM178.484 43.2578L170.062 48.6483C172.809 52.9407 178.344 54.4806 182.913 52.2236L178.484 43.2578ZM175.047 37.8867L170.591 28.9344C168.049 30.1994 166.165 32.485 165.409 35.2211C164.652 37.9573 165.094 40.8862 166.624 43.2773L175.047 37.8867ZM189.141 19.4531L199.086 20.4946C199.381 17.6765 198.467 14.8656 196.571 12.7604C194.674 10.6551 191.974 9.45312 189.141 9.45312V19.4531ZM176.98 19.4531H166.98C166.98 24.976 171.458 29.4531 176.98 29.4531V19.4531ZM176.98 14.082V4.08203C171.458 4.08203 166.98 8.55918 166.98 14.082H176.98ZM209.508 10H199.508V49.7461H209.508H219.508V10H209.508ZM209.508 49.7461V39.7461H202.633V49.7461V59.7461H209.508V49.7461ZM202.633 49.7461H212.633V30.4531H202.633H192.633V49.7461H202.633ZM202.633 30.4531V20.4531H195.801V30.4531V40.4531H202.633V30.4531ZM195.801 30.4531H205.801V24.8672L195.801 24.8672H185.801V30.4531H195.801ZM195.801 24.8672V34.8672H202.633V24.8672V14.8672H195.801V24.8672ZM202.633 24.8672L212.633 24.8672V10H202.633H192.633V24.8672H202.633ZM202.633 10V20L209.508 20V10V0H202.633V10ZM196.102 14.082L186.102 14.0475C186.083 19.4977 185.332 23.1553 183.823 25.9575C182.401 28.5963 179.767 31.4708 174.055 34.292L178.484 43.2578L182.913 52.2236C191.468 47.9979 197.62 42.515 201.43 35.4429C205.152 28.5341 206.077 21.1273 206.102 14.1165L196.102 14.082ZM178.484 43.2578L186.907 37.8673L183.47 32.4962L175.047 37.8867L166.624 43.2773L170.062 48.6483L178.484 43.2578ZM175.047 37.8867L179.503 46.839C185.14 44.033 189.907 40.5936 193.372 35.9359C196.915 31.1735 198.518 25.9193 199.086 20.4946L189.141 19.4531L179.195 18.4117C178.904 21.1939 178.23 22.7825 177.325 23.9982C176.343 25.3185 174.492 26.9924 170.591 28.9344L175.047 37.8867ZM189.141 19.4531V9.45312H176.98V19.4531V29.4531H189.141V19.4531ZM176.98 19.4531H186.98V14.082H176.98H166.98V19.4531H176.98ZM176.98 14.082V24.082H196.102V14.082V4.08203L176.98 4.08203V14.082ZM249.984 28.8633H259.984C259.984 23.3404 255.507 18.8633 249.984 18.8633V28.8633ZM249.984 34.2344V44.2344C255.507 44.2344 259.984 39.7572 259.984 34.2344H249.984ZM235.676 34.2344V24.2344C230.153 24.2344 225.676 28.7115 225.676 34.2344H235.676ZM235.676 40.3789V50.3789C241.199 50.3789 245.676 45.9018 245.676 40.3789H235.676ZM228.672 40.3789H218.672C218.672 45.9018 223.149 50.3789 228.672 50.3789V40.3789ZM228.672 34.2344H238.672C238.672 28.7115 234.195 24.2344 228.672 24.2344V34.2344ZM213.719 34.2344H203.719C203.719 39.7572 208.196 44.2344 213.719 44.2344V34.2344ZM213.719 28.8633V18.8633C208.196 18.8633 203.719 23.3404 203.719 28.8633H213.719ZM246.031 43.6875H256.031C256.031 38.1647 251.554 33.6875 246.031 33.6875V43.6875ZM246.031 49.1875V59.1875C251.554 59.1875 256.031 54.7103 256.031 49.1875H246.031ZM217.758 49.1875H207.758C207.758 54.7103 212.235 59.1875 217.758 59.1875V49.1875ZM217.758 37.1133V27.1133C212.235 27.1133 207.758 31.5904 207.758 37.1133H217.758ZM224.719 37.1133H234.719C234.719 31.5904 230.242 27.1133 224.719 27.1133V37.1133ZM224.719 43.6875H214.719C214.719 49.2103 219.196 53.6875 224.719 53.6875V43.6875ZM224.676 19.0664L234.673 19.2837C234.676 19.1447 234.677 19.0055 234.674 18.8664L224.676 19.0664ZM231.852 21.9453L231.755 31.9449C231.82 31.9455 231.884 31.9455 231.949 31.9448L231.852 21.9453ZM249.984 28.8633H239.984V34.2344H249.984H259.984V28.8633H249.984ZM249.984 34.2344V24.2344H235.676V34.2344V44.2344H249.984V34.2344ZM235.676 34.2344H225.676V40.3789H235.676H245.676V34.2344H235.676ZM235.676 40.3789V30.3789H228.672V40.3789V50.3789H235.676V40.3789ZM228.672 40.3789H238.672V34.2344H228.672H218.672V40.3789H228.672ZM228.672 34.2344V24.2344H213.719V34.2344V44.2344H228.672V34.2344ZM213.719 34.2344H223.719V28.8633H213.719H203.719V34.2344H213.719ZM213.719 28.8633V38.8633H249.984V28.8633V18.8633H213.719V28.8633ZM246.031 43.6875H236.031V49.1875H246.031H256.031V43.6875H246.031ZM246.031 49.1875V39.1875H217.758V49.1875V59.1875H246.031V49.1875ZM217.758 49.1875H227.758V37.1133H217.758H207.758V49.1875H217.758ZM217.758 37.1133V47.1133H224.719V37.1133V27.1133H217.758V37.1133ZM224.719 37.1133H214.719V43.6875H224.719H234.719V37.1133H224.719ZM224.719 43.6875V53.6875H246.031V43.6875V33.6875H224.719V43.6875ZM231.852 10.6445V20.6445C235.12 20.6445 236.873 21.2872 237.428 21.6043C237.65 21.7309 237.384 21.6354 237.042 21.1222C236.652 20.5377 236.418 19.7837 236.418 19.0664H246.418H256.418C256.418 11.9931 252.147 6.98009 247.351 4.23944C242.793 1.63466 237.262 0.644531 231.852 0.644531V10.6445ZM246.418 19.0664H236.418C236.418 18.319 236.664 17.5405 237.067 16.9414C237.421 16.4166 237.695 16.3186 237.47 16.4459C236.907 16.7639 235.139 17.4023 231.852 17.4023V27.4023V37.4023C237.244 37.4023 242.759 36.4294 247.31 33.8578C252.094 31.1543 256.418 26.1664 256.418 19.0664H246.418ZM231.852 27.4023V17.4023C228.507 17.4023 226.715 16.7591 226.143 16.4371C225.914 16.3083 226.19 16.4059 226.546 16.9339C226.953 17.5368 227.199 18.3185 227.199 19.0664H217.199H207.199C207.199 26.1735 211.532 31.1642 216.334 33.8666C220.897 36.4343 226.431 37.4023 231.852 37.4023V27.4023ZM217.199 19.0664H227.199C227.199 19.7841 226.964 20.5414 226.571 21.1297C226.227 21.6461 225.959 21.7414 226.184 21.6132C226.748 21.2922 228.525 20.6445 231.852 20.6445V10.6445V0.644531C226.412 0.644531 220.863 1.62965 216.293 4.23051C211.478 6.9701 207.199 11.9861 207.199 19.0664H217.199ZM231.852 16.0156V6.01562C229.236 6.01562 225.9 6.23892 222.872 7.44505C221.28 8.07916 219.188 9.21345 217.462 11.2894C215.573 13.5602 214.62 16.3714 214.678 19.2664L224.676 19.0664L234.674 18.8664C234.71 20.6872 234.084 22.5799 232.839 24.0773C231.756 25.3798 230.623 25.8857 230.272 26.0257C229.89 26.1777 229.79 26.1519 230.162 26.1023C230.498 26.0575 231.049 26.0156 231.852 26.0156V16.0156ZM224.676 19.0664L214.678 18.8491C214.611 21.9454 215.731 24.8155 217.7 27.0144C219.465 28.9853 221.543 30.0228 223.047 30.5892C225.955 31.6844 229.174 31.92 231.755 31.9449L231.852 21.9453L231.948 11.9458C231.121 11.9378 230.534 11.8925 230.154 11.8422C229.74 11.7872 229.778 11.7528 230.096 11.8727C230.359 11.9718 231.479 12.4212 232.601 13.6737C233.926 15.1542 234.719 17.1757 234.673 19.2837L224.676 19.0664ZM231.852 21.9453L231.949 31.9448C234.517 31.9199 237.723 31.683 240.629 30.5791C243.621 29.4425 248.984 26.0887 248.984 19.0664H238.984H228.984C228.984 17.0286 229.771 15.0872 231.056 13.6582C232.154 12.4371 233.247 11.989 233.526 11.8828C233.853 11.7589 233.903 11.7906 233.504 11.844C233.139 11.8929 232.568 11.9379 231.754 11.9458L231.852 21.9453ZM238.984 19.0664H248.984C248.984 16.2326 248.022 13.4938 246.168 11.2736C244.462 9.23035 242.402 8.09759 240.806 7.45618C237.779 6.24019 234.455 6.01562 231.852 6.01562V16.0156V26.0156C232.64 26.0156 233.176 26.0572 233.497 26.1005C233.851 26.1483 233.739 26.1711 233.35 26.0145C232.983 25.8673 231.877 25.3629 230.817 24.0931C229.608 22.6463 228.984 20.826 228.984 19.0664H238.984Z" fill="white" mask="url(#path-1-outside-1_6524_1763)"/>
</g>
<defs>
<filter id="filter0_d_6524_1763" x="0" y="0" width="263.984" height="67.875" filterUnits="userSpaceOnUse" color-interpolation-filters="sRGB">
<feFlood flood-opacity="0" result="BackgroundImageFix"/>
<feColorMatrix in="SourceAlpha" type="matrix" values="0 0 0 0 0 0 0 0 0 0 0 0 0 0 0 0 0 0 127 0" result="hardAlpha"/>
<feOffset dy="4"/>
<feGaussianBlur stdDeviation="2"/>
<feComposite in2="hardAlpha" operator="out"/>
<feColorMatrix type="matrix" values="0 0 0 0 0 0 0 0 0 0 0 0 0 0 0 0 0 0 0.07 0"/>
<feBlend mode="normal" in2="BackgroundImageFix" result="effect1_dropShadow_6524_1763"/>
<feBlend mode="normal" in="SourceGraphic" in2="effect1_dropShadow_6524_1763" result="shape"/>
</filter>
</defs>
</svg>
