<svg width="387" height="68" viewBox="0 0 387 68" fill="none" xmlns="http://www.w3.org/2000/svg">
<g filter="url(#filter0_d_6524_1836)">
<mask id="path-1-outside-1_6524_1836" maskUnits="userSpaceOnUse" x="3.19531" y="-0.378906" width="380" height="61" fill="black">
<rect fill="white" x="3.19531" y="-0.378906" width="380" height="61"/>
<path d="M47.6875 10.1289V49.875H41.1992V30.5391H38.6211V48.0703H32.3477V10.7305H38.6211V25.082H41.1992V10.1289L47.6875 10.1289ZM28.7812 14.5977V20.0977H20.918V35.6953C23.9688 35.6094 27.0195 35.416 30.3711 34.8359L30.8438 40.3789C25.9453 41.2812 21.6055 41.4102 16.9219 41.4102H14L14 14.5977H28.7812ZM82.9219 10.2148V21.1719H87.8633V26.8008H82.9219V38.875H76.0039V10.2148H82.9219ZM84.082 43.8164V49.3164H56.582V35.8242H63.5V43.8164H84.082ZM62.2539 12.5781C68.4414 12.5781 73.3828 16.875 73.3828 22.8906C73.3828 28.7344 68.4414 33.1602 62.2539 33.1602C56.0664 33.1602 51.082 28.7344 51.082 22.8906C51.082 16.875 56.0664 12.5781 62.2539 12.5781ZM62.2539 18.5508C59.8477 18.5508 57.8281 19.9688 57.8281 22.8906C57.8281 25.6836 59.8477 27.1445 62.2539 27.1445C64.7461 27.1445 66.6367 25.6836 66.6797 22.8906C66.6367 19.9688 64.7461 18.5508 62.2539 18.5508ZM107.285 10.6445C116.609 10.6445 121.938 13.0078 121.98 17.3477C121.938 21.7305 116.609 24.0937 107.285 24.0937C97.918 24.0937 92.5039 21.7305 92.5469 17.3477C92.5039 13.0078 97.918 10.6445 107.285 10.6445ZM107.285 15.6289C101.914 15.6289 99.7656 16.1445 99.7656 17.3477C99.7656 18.8086 101.914 19.0664 107.285 19.1094C112.699 19.0664 114.848 18.8086 114.848 17.3477C114.848 16.1445 112.699 15.6289 107.285 15.6289ZM125.418 25.4258V30.8828H89.1523V25.4258H125.418ZM121.121 32.3867V43.3438H99.9375V44.6328H122.066V49.7031H93.1914V38.6172H114.332V37.4141H93.2344V32.3867H121.121ZM168.559 10.1289V19.4531H173.5V25.168H168.559V34.1484H161.641V10.1289H168.559ZM168.559 35.5234V49.5312H142.047V35.5234H168.559ZM148.836 40.8945V44.0312H161.77V40.8945H148.836ZM160.223 13.3516V18.7227H136.719V13.3516H145.012V10H151.93V13.3516H160.223ZM148.449 19.4531C154.293 19.4531 158.375 22.418 158.375 26.6289C158.375 30.8828 154.25 33.8477 148.449 33.8477C142.562 33.8477 138.438 30.8828 138.438 26.6289C138.438 22.418 142.562 19.4531 148.449 19.4531ZM148.449 24.5664C146.473 24.5664 145.184 25.168 145.184 26.6289C145.184 28.1758 146.473 28.8633 148.449 28.8203C150.469 28.8633 151.844 28.1758 151.844 26.6289C151.844 25.168 150.469 24.5664 148.449 24.5664ZM184.5 14.5547C184.457 25.4687 183.598 34.0625 179.043 42.0117L173.715 39.2617C177.281 33.1387 178.312 27.8105 178.57 20.0117H175.348V14.5547H184.5ZM193.438 14.5547C193.438 18.0996 193.373 21.4512 193.18 24.6094H195.414V10.9453H201.816V48.2852H195.414V30.0664H192.578C191.783 34.9004 190.408 39.3477 187.938 43.6016L182.738 40.8086C186.584 34.1699 187.422 28.3047 187.637 20.0117H185.574V14.5547H193.438ZM209.938 10.1289V49.875H203.32V10.1289H209.938ZM256.988 10.1289V49.875H250.5V10.1289H256.988ZM248.781 10.6445V48.1992H242.379V37.457L238.984 41.7969C235.697 39.9062 233.592 36.8555 232.324 33.1172C230.971 37.1992 228.801 40.6367 225.449 42.6992L221.367 37.6289C227.426 33.8477 228.93 26.8008 228.93 20.3555V19.2812H223.129V13.8242H240.746V19.2812H235.547V20.3555C235.504 26.5859 236.836 32.9238 242.379 36.4258V28.8633H238.082V23.3203H242.379V10.6445H248.781ZM276.754 18.0781C276.711 25.4258 278.988 32.7305 286.336 35.6953L282.34 41.2383C277.936 39.3047 275.078 35.8887 273.359 31.5703C271.619 36.4043 268.611 40.25 263.82 42.3125L259.695 36.5977C267.301 33.5469 269.707 25.8984 269.75 18.0781V12.9648H276.754V18.0781ZM293.984 10.1289V50.0039H287.023V10.1289H293.984ZM330.164 10.1289V25.2109L335.535 25.2109V30.8398H330.164V49.875H323.332V10.1289H330.164ZM321.398 15.8008V21.2578H298.238V15.8008H306.445V10.8594H313.32V15.8008H321.398ZM309.883 22.8047C315.77 22.8047 320.281 26.8437 320.281 32.4727C320.281 38.1445 315.77 42.1836 309.883 42.1836C303.867 42.1836 299.441 38.1445 299.441 32.4727C299.441 26.8437 303.867 22.8047 309.883 22.8047ZM309.883 28.3477C307.648 28.3477 306.016 29.8086 306.059 32.4727C306.016 35.2656 307.648 36.5977 309.883 36.5977C312.074 36.5977 313.664 35.2656 313.664 32.4727C313.664 29.8086 312.074 28.3477 309.883 28.3477ZM368.836 20.2266V25.5547H340.734V11.5469H347.609V20.2266H368.836ZM372.746 29.0781V34.4062H336.48V29.0781H372.746ZM369.094 43.6016V49.1016H340.262V37.1562H347.223V43.6016H369.094Z"/>
</mask>
<path d="M47.6875 10.1289V49.875H41.1992V30.5391H38.6211V48.0703H32.3477V10.7305H38.6211V25.082H41.1992V10.1289L47.6875 10.1289ZM28.7812 14.5977V20.0977H20.918V35.6953C23.9688 35.6094 27.0195 35.416 30.3711 34.8359L30.8438 40.3789C25.9453 41.2812 21.6055 41.4102 16.9219 41.4102H14L14 14.5977H28.7812ZM82.9219 10.2148V21.1719H87.8633V26.8008H82.9219V38.875H76.0039V10.2148H82.9219ZM84.082 43.8164V49.3164H56.582V35.8242H63.5V43.8164H84.082ZM62.2539 12.5781C68.4414 12.5781 73.3828 16.875 73.3828 22.8906C73.3828 28.7344 68.4414 33.1602 62.2539 33.1602C56.0664 33.1602 51.082 28.7344 51.082 22.8906C51.082 16.875 56.0664 12.5781 62.2539 12.5781ZM62.2539 18.5508C59.8477 18.5508 57.8281 19.9688 57.8281 22.8906C57.8281 25.6836 59.8477 27.1445 62.2539 27.1445C64.7461 27.1445 66.6367 25.6836 66.6797 22.8906C66.6367 19.9688 64.7461 18.5508 62.2539 18.5508ZM107.285 10.6445C116.609 10.6445 121.938 13.0078 121.98 17.3477C121.938 21.7305 116.609 24.0937 107.285 24.0937C97.918 24.0937 92.5039 21.7305 92.5469 17.3477C92.5039 13.0078 97.918 10.6445 107.285 10.6445ZM107.285 15.6289C101.914 15.6289 99.7656 16.1445 99.7656 17.3477C99.7656 18.8086 101.914 19.0664 107.285 19.1094C112.699 19.0664 114.848 18.8086 114.848 17.3477C114.848 16.1445 112.699 15.6289 107.285 15.6289ZM125.418 25.4258V30.8828H89.1523V25.4258H125.418ZM121.121 32.3867V43.3438H99.9375V44.6328H122.066V49.7031H93.1914V38.6172H114.332V37.4141H93.2344V32.3867H121.121ZM168.559 10.1289V19.4531H173.5V25.168H168.559V34.1484H161.641V10.1289H168.559ZM168.559 35.5234V49.5312H142.047V35.5234H168.559ZM148.836 40.8945V44.0312H161.77V40.8945H148.836ZM160.223 13.3516V18.7227H136.719V13.3516H145.012V10H151.93V13.3516H160.223ZM148.449 19.4531C154.293 19.4531 158.375 22.418 158.375 26.6289C158.375 30.8828 154.25 33.8477 148.449 33.8477C142.562 33.8477 138.438 30.8828 138.438 26.6289C138.438 22.418 142.562 19.4531 148.449 19.4531ZM148.449 24.5664C146.473 24.5664 145.184 25.168 145.184 26.6289C145.184 28.1758 146.473 28.8633 148.449 28.8203C150.469 28.8633 151.844 28.1758 151.844 26.6289C151.844 25.168 150.469 24.5664 148.449 24.5664ZM184.5 14.5547C184.457 25.4687 183.598 34.0625 179.043 42.0117L173.715 39.2617C177.281 33.1387 178.312 27.8105 178.57 20.0117H175.348V14.5547H184.5ZM193.438 14.5547C193.438 18.0996 193.373 21.4512 193.18 24.6094H195.414V10.9453H201.816V48.2852H195.414V30.0664H192.578C191.783 34.9004 190.408 39.3477 187.938 43.6016L182.738 40.8086C186.584 34.1699 187.422 28.3047 187.637 20.0117H185.574V14.5547H193.438ZM209.938 10.1289V49.875H203.32V10.1289H209.938ZM256.988 10.1289V49.875H250.5V10.1289H256.988ZM248.781 10.6445V48.1992H242.379V37.457L238.984 41.7969C235.697 39.9062 233.592 36.8555 232.324 33.1172C230.971 37.1992 228.801 40.6367 225.449 42.6992L221.367 37.6289C227.426 33.8477 228.93 26.8008 228.93 20.3555V19.2812H223.129V13.8242H240.746V19.2812H235.547V20.3555C235.504 26.5859 236.836 32.9238 242.379 36.4258V28.8633H238.082V23.3203H242.379V10.6445H248.781ZM276.754 18.0781C276.711 25.4258 278.988 32.7305 286.336 35.6953L282.34 41.2383C277.936 39.3047 275.078 35.8887 273.359 31.5703C271.619 36.4043 268.611 40.25 263.82 42.3125L259.695 36.5977C267.301 33.5469 269.707 25.8984 269.75 18.0781V12.9648H276.754V18.0781ZM293.984 10.1289V50.0039H287.023V10.1289H293.984ZM330.164 10.1289V25.2109L335.535 25.2109V30.8398H330.164V49.875H323.332V10.1289H330.164ZM321.398 15.8008V21.2578H298.238V15.8008H306.445V10.8594H313.32V15.8008H321.398ZM309.883 22.8047C315.77 22.8047 320.281 26.8437 320.281 32.4727C320.281 38.1445 315.77 42.1836 309.883 42.1836C303.867 42.1836 299.441 38.1445 299.441 32.4727C299.441 26.8437 303.867 22.8047 309.883 22.8047ZM309.883 28.3477C307.648 28.3477 306.016 29.8086 306.059 32.4727C306.016 35.2656 307.648 36.5977 309.883 36.5977C312.074 36.5977 313.664 35.2656 313.664 32.4727C313.664 29.8086 312.074 28.3477 309.883 28.3477ZM368.836 20.2266V25.5547H340.734V11.5469H347.609V20.2266H368.836ZM372.746 29.0781V34.4062H336.48V29.0781H372.746ZM369.094 43.6016V49.1016H340.262V37.1562H347.223V43.6016H369.094Z" fill="#11DCA9"/>
<path d="M47.6875 10.1289H57.6875C57.6875 4.60606 53.2103 0.128906 47.6875 0.128906V10.1289ZM47.6875 49.875V59.875C53.2103 59.875 57.6875 55.3978 57.6875 49.875H47.6875ZM41.1992 49.875H31.1992C31.1992 55.3978 35.6764 59.875 41.1992 59.875V49.875ZM41.1992 30.5391H51.1992C51.1992 25.0162 46.7221 20.5391 41.1992 20.5391V30.5391ZM38.6211 30.5391V20.5391C33.0982 20.5391 28.6211 25.0162 28.6211 30.5391H38.6211ZM38.6211 48.0703V58.0703C44.1439 58.0703 48.6211 53.5932 48.6211 48.0703H38.6211ZM32.3477 48.0703H22.3477C22.3477 53.5932 26.8248 58.0703 32.3477 58.0703V48.0703ZM32.3477 10.7305V0.730469C26.8248 0.730469 22.3477 5.20762 22.3477 10.7305H32.3477ZM38.6211 10.7305L48.6211 10.7305C48.6211 5.20762 44.1439 0.730469 38.6211 0.730469V10.7305ZM38.6211 25.082H28.6211C28.6211 30.6049 33.0982 35.082 38.6211 35.082V25.082ZM41.1992 25.082V35.082C46.7221 35.082 51.1992 30.6049 51.1992 25.082H41.1992ZM41.1992 10.1289V0.128906C35.6764 0.128906 31.1992 4.60606 31.1992 10.1289H41.1992ZM28.7812 14.5977H38.7812C38.7812 9.07481 34.3041 4.59766 28.7812 4.59766V14.5977ZM28.7812 20.0977V30.0977C34.3041 30.0977 38.7812 25.6205 38.7812 20.0977H28.7812ZM20.918 20.0977V10.0977C15.3951 10.0977 10.918 14.5748 10.918 20.0977H20.918ZM20.918 35.6953H10.918C10.918 38.3963 12.0106 40.9824 13.9472 42.8652C15.8838 44.7481 18.4996 45.7674 21.1995 45.6913L20.918 35.6953ZM30.3711 34.8359L40.3349 33.9863C40.0969 31.1944 38.6984 28.6305 36.4799 26.9187C34.2615 25.207 31.4267 24.5046 28.6657 24.9824L30.3711 34.8359ZM30.8438 40.3789L32.6554 50.2134C37.7175 49.2809 41.2449 44.658 40.8076 39.5293L30.8438 40.3789ZM14 41.4102H4C4 46.933 8.47715 51.4102 14 51.4102V41.4102ZM14 14.5977V4.59766C8.47715 4.59766 4 9.07481 4 14.5977H14ZM47.6875 10.1289L37.6875 10.1289V49.875H47.6875H57.6875V10.1289H47.6875ZM47.6875 49.875V39.875H41.1992V49.875V59.875H47.6875V49.875ZM41.1992 49.875H51.1992V30.5391H41.1992H31.1992V49.875H41.1992ZM41.1992 30.5391V20.5391H38.6211V30.5391V40.5391H41.1992V30.5391ZM38.6211 30.5391H28.6211V48.0703H38.6211H48.6211V30.5391H38.6211ZM38.6211 48.0703V38.0703H32.3477V48.0703V58.0703H38.6211V48.0703ZM32.3477 48.0703H42.3477V10.7305H32.3477H22.3477V48.0703H32.3477ZM32.3477 10.7305V20.7305H38.6211V10.7305V0.730469H32.3477V10.7305ZM38.6211 10.7305H28.6211V25.082H38.6211H48.6211V10.7305L38.6211 10.7305ZM38.6211 25.082V35.082H41.1992V25.082V15.082H38.6211V25.082ZM41.1992 25.082H51.1992V10.1289L41.1992 10.1289H31.1992V25.082H41.1992ZM41.1992 10.1289V20.1289H47.6875V10.1289V0.128906H41.1992V10.1289ZM28.7812 14.5977H18.7812V20.0977H28.7812H38.7812V14.5977H28.7812ZM28.7812 20.0977V10.0977H20.918V20.0977V30.0977H28.7812V20.0977ZM20.918 20.0977H10.918L10.918 35.6953H20.918H30.918V20.0977H20.918ZM20.918 35.6953L21.1995 45.6913C24.4938 45.5986 28.0694 45.383 32.0765 44.6894L30.3711 34.8359L28.6657 24.9824C25.9697 25.4491 23.4437 25.6202 20.6364 25.6993L20.918 35.6953ZM30.3711 34.8359L20.4073 35.6856L20.8799 41.2285L30.8438 40.3789L40.8076 39.5293L40.3349 33.9863L30.3711 34.8359ZM30.8438 40.3789L29.0321 30.5444C25.0401 31.2797 21.4238 31.4102 16.9219 31.4102V41.4102V51.4102C21.7871 51.4102 26.8505 51.2828 32.6554 50.2134L30.8438 40.3789ZM16.9219 41.4102V31.4102H14L14 41.4102V51.4102H16.9219V41.4102ZM14 41.4102H24V14.5977H14H4L4 41.4102H14ZM14 14.5977V24.5977H28.7812V14.5977V4.59766L14 4.59766V14.5977ZM82.9219 10.2148H92.9219C92.9219 4.692 88.4447 0.214844 82.9219 0.214844V10.2148ZM82.9219 21.1719L72.9219 21.1719C72.9219 26.6947 77.399 31.1719 82.9219 31.1719V21.1719ZM87.8633 21.1719H97.8633C97.8633 15.649 93.3861 11.1719 87.8633 11.1719V21.1719ZM87.8633 26.8008V36.8008C93.3861 36.8008 97.8633 32.3236 97.8633 26.8008H87.8633ZM82.9219 26.8008V16.8008C77.399 16.8008 72.9219 21.2779 72.9219 26.8008L82.9219 26.8008ZM82.9219 38.875V48.875C88.4447 48.875 92.9219 44.3978 92.9219 38.875H82.9219ZM76.0039 38.875H66.0039C66.0039 44.3978 70.4811 48.875 76.0039 48.875V38.875ZM76.0039 10.2148V0.214844C70.4811 0.214844 66.0039 4.692 66.0039 10.2148H76.0039ZM84.082 43.8164H94.082C94.082 38.2936 89.6049 33.8164 84.082 33.8164V43.8164ZM84.082 49.3164V59.3164C89.6049 59.3164 94.082 54.8393 94.082 49.3164H84.082ZM56.582 49.3164H46.582C46.582 54.8393 51.0592 59.3164 56.582 59.3164V49.3164ZM56.582 35.8242V25.8242C51.0592 25.8242 46.582 30.3014 46.582 35.8242H56.582ZM63.5 35.8242H73.5C73.5 30.3014 69.0228 25.8242 63.5 25.8242V35.8242ZM63.5 43.8164H53.5C53.5 49.3393 57.9772 53.8164 63.5 53.8164V43.8164ZM66.6797 22.8906L76.6785 23.0445C76.68 22.9442 76.6801 22.8439 76.6786 22.7436L66.6797 22.8906ZM82.9219 10.2148H72.9219V21.1719L82.9219 21.1719H92.9219V10.2148H82.9219ZM82.9219 21.1719V31.1719H87.8633V21.1719V11.1719H82.9219V21.1719ZM87.8633 21.1719H77.8633V26.8008H87.8633H97.8633V21.1719H87.8633ZM87.8633 26.8008V16.8008H82.9219V26.8008V36.8008H87.8633V26.8008ZM82.9219 26.8008L72.9219 26.8008V38.875H82.9219H92.9219V26.8008H82.9219ZM82.9219 38.875V28.875H76.0039V38.875V48.875H82.9219V38.875ZM76.0039 38.875H86.0039V10.2148H76.0039H66.0039V38.875H76.0039ZM76.0039 10.2148V20.2148L82.9219 20.2148V10.2148V0.214844H76.0039V10.2148ZM84.082 43.8164H74.082V49.3164H84.082H94.082V43.8164H84.082ZM84.082 49.3164V39.3164H56.582V49.3164V59.3164H84.082V49.3164ZM56.582 49.3164H66.582V35.8242H56.582H46.582V49.3164H56.582ZM56.582 35.8242V45.8242H63.5V35.8242V25.8242H56.582V35.8242ZM63.5 35.8242H53.5V43.8164H63.5H73.5V35.8242H63.5ZM63.5 43.8164V53.8164H84.082V43.8164V33.8164H63.5V43.8164ZM62.2539 12.5781V22.5781C63.0377 22.5781 63.3712 22.8409 63.4119 22.8779C63.4327 22.8968 63.4115 22.8823 63.3893 22.8329C63.3638 22.776 63.3828 22.7762 63.3828 22.8906H73.3828L83.3828 22.8906C83.3828 10.4766 73.046 2.57812 62.2539 2.57812V12.5781ZM73.3828 22.8906H63.3828C63.3828 22.9219 63.3804 22.8887 63.4043 22.836C63.4241 22.7922 63.4339 22.7973 63.3904 22.8371C63.3034 22.9166 62.9585 23.1602 62.2539 23.1602V33.1602V43.1602C73.1036 43.1602 83.3828 35.0803 83.3828 22.8906L73.3828 22.8906ZM62.2539 33.1602V23.1602C61.545 23.1602 61.1796 22.9131 61.0763 22.8192C61.0263 22.7737 61.0351 22.7653 61.0561 22.8114C61.0815 22.8671 61.082 22.9088 61.082 22.8906H51.082H41.082C41.082 35.128 51.4566 43.1602 62.2539 43.1602V33.1602ZM51.082 22.8906H61.082C61.082 22.7891 61.0983 22.7973 61.0712 22.8573C61.0478 22.9092 61.0274 22.9204 61.0547 22.8957C61.1118 22.8441 61.4661 22.5781 62.2539 22.5781V12.5781V2.57812C51.5142 2.57812 41.082 10.4291 41.082 22.8906H51.082ZM62.2539 18.5508V8.55078C59.166 8.55078 55.5015 9.46509 52.4765 12.1674C49.2771 15.0256 47.8281 18.9653 47.8281 22.8906H57.8281H67.8281C67.8281 23.894 67.389 25.6639 65.8008 27.0826C64.3872 28.3455 62.9356 28.5508 62.2539 28.5508V18.5508ZM57.8281 22.8906H47.8281C47.8281 26.88 49.3657 30.7643 52.5043 33.5473C55.4756 36.1819 59.0962 37.1445 62.2539 37.1445V27.1445V17.1445C63.0053 17.1445 64.413 17.3767 65.773 18.5826C67.3004 19.9368 67.8281 21.6942 67.8281 22.8906H57.8281ZM62.2539 27.1445V37.1445C65.4041 37.1445 69.0801 36.2075 72.0944 33.4803C75.2332 30.6404 76.6209 26.7904 76.6785 23.0445L66.6797 22.8906L56.6809 22.7368C56.6955 21.7838 57.1164 20.0608 58.6761 18.6496C60.1113 17.3511 61.5959 17.1445 62.2539 17.1445V27.1445ZM66.6797 22.8906L76.6786 22.7436C76.6243 19.0539 75.3152 15.1456 72.122 12.2347C69.0554 9.43935 65.3333 8.55078 62.2539 8.55078V18.5508V28.5508C61.6667 28.5508 60.136 28.3712 58.6485 27.0153C57.0344 25.5439 56.6921 23.8055 56.6808 23.0377L66.6797 22.8906ZM121.98 17.3477L131.98 17.4457C131.981 17.38 131.981 17.3143 131.98 17.2487L121.98 17.3477ZM92.5469 17.3477L102.546 17.4457C102.547 17.38 102.547 17.3143 102.546 17.2487L92.5469 17.3477ZM107.285 19.1094L107.205 29.1091C107.258 29.1095 107.311 29.1095 107.365 29.1091L107.285 19.1094ZM125.418 25.4258H135.418C135.418 19.9029 130.941 15.4258 125.418 15.4258V25.4258ZM125.418 30.8828V40.8828C130.941 40.8828 135.418 36.4057 135.418 30.8828H125.418ZM89.1523 30.8828H79.1523C79.1523 36.4057 83.6295 40.8828 89.1523 40.8828V30.8828ZM89.1523 25.4258V15.4258C83.6295 15.4258 79.1523 19.9029 79.1523 25.4258H89.1523ZM121.121 32.3867H131.121C131.121 26.8639 126.644 22.3867 121.121 22.3867V32.3867ZM121.121 43.3438V53.3438C126.644 53.3438 131.121 48.8666 131.121 43.3438H121.121ZM99.9375 43.3438V33.3438C94.4146 33.3438 89.9375 37.8209 89.9375 43.3438H99.9375ZM99.9375 44.6328H89.9375C89.9375 50.1557 94.4146 54.6328 99.9375 54.6328V44.6328ZM122.066 44.6328H132.066C132.066 39.11 127.589 34.6328 122.066 34.6328V44.6328ZM122.066 49.7031V59.7031C127.589 59.7031 132.066 55.226 132.066 49.7031H122.066ZM93.1914 49.7031H83.1914C83.1914 55.226 87.6686 59.7031 93.1914 59.7031V49.7031ZM93.1914 38.6172V28.6172C87.6686 28.6172 83.1914 33.0943 83.1914 38.6172H93.1914ZM114.332 38.6172V48.6172C119.855 48.6172 124.332 44.14 124.332 38.6172H114.332ZM114.332 37.4141H124.332C124.332 31.8912 119.855 27.4141 114.332 27.4141V37.4141ZM93.2344 37.4141H83.2344C83.2344 42.9369 87.7115 47.4141 93.2344 47.4141V37.4141ZM93.2344 32.3867V22.3867C87.7115 22.3867 83.2344 26.8639 83.2344 32.3867H93.2344ZM107.285 10.6445V20.6445C109.214 20.6445 110.753 20.7681 111.931 20.9564C113.137 21.1489 113.767 21.3779 113.989 21.4783C114.219 21.5827 113.711 21.4093 113.103 20.6339C112.395 19.7292 111.992 18.5577 111.981 17.4467L121.98 17.3477L131.98 17.2487C131.907 9.91504 126.957 5.39567 122.238 3.25897C117.851 1.27246 112.539 0.644531 107.285 0.644531V10.6445ZM121.98 17.3477L111.981 17.2496C111.992 16.173 112.38 15.0175 113.082 14.114C113.686 13.3373 114.195 13.1605 113.972 13.2619C113.756 13.3604 113.131 13.5892 111.928 13.7818C110.752 13.9701 109.214 14.0937 107.285 14.0937V24.0937V34.0938C112.536 34.0938 117.858 33.4668 122.254 31.4666C127.008 29.3038 131.908 24.7588 131.98 17.4457L121.98 17.3477ZM107.285 24.0937V14.0937C105.344 14.0937 103.789 13.9699 102.595 13.7801C101.373 13.5857 100.732 13.3542 100.506 13.252C100.268 13.1444 100.8 13.325 101.425 14.1337C102.159 15.0833 102.558 16.3057 102.546 17.4457L92.5469 17.3477L82.5474 17.2496C82.4739 24.7371 87.53 29.3348 92.2682 31.4766C96.6739 33.468 102.02 34.0938 107.285 34.0938V24.0937ZM92.5469 17.3477L102.546 17.2487C102.558 18.4241 102.144 19.6634 101.404 20.6141C100.775 21.4216 100.245 21.5987 100.49 21.4882C100.721 21.3841 101.367 21.1523 102.591 20.9581C103.788 20.7683 105.344 20.6445 107.285 20.6445V10.6445V0.644531C102.017 0.644531 96.6807 1.27119 92.2844 3.24907C87.5829 5.36423 82.473 9.93647 82.5474 17.4467L92.5469 17.3477ZM107.285 15.6289V5.62891C104.537 5.62891 101.667 5.73763 99.2595 6.29393C98.1036 6.56105 96.0605 7.14154 94.1226 8.61893C91.748 10.4292 89.7656 13.465 89.7656 17.3477H99.7656H109.766C109.766 18.7532 109.434 20.2487 108.683 21.6506C107.956 23.009 107.02 23.9359 106.248 24.5241C105.501 25.0933 104.843 25.3984 104.473 25.5477C104.091 25.7018 103.829 25.7649 103.763 25.7803C103.659 25.8043 103.858 25.7519 104.544 25.7037C105.192 25.6583 106.084 25.6289 107.285 25.6289V15.6289ZM99.7656 17.3477H89.7656C89.7656 20.6529 91.2035 23.8349 93.9049 26.015C96.0275 27.7281 98.311 28.3076 99.4665 28.549C101.822 29.041 104.73 29.0893 107.205 29.1091L107.285 19.1094L107.365 9.1097C106.069 9.09933 105.115 9.07653 104.398 9.03676C103.63 8.99416 103.436 8.94644 103.556 8.97154C103.637 8.98851 103.955 9.05814 104.409 9.23762C104.857 9.41481 105.625 9.77299 106.466 10.4514C107.354 11.1682 108.265 12.1994 108.915 13.5788C109.561 14.9505 109.766 16.2765 109.766 17.3477H99.7656ZM107.285 19.1094L107.365 29.1091C109.861 29.0892 112.776 29.0409 115.133 28.5508C116.288 28.3106 118.573 27.7336 120.699 26.0222C123.407 23.8414 124.848 20.6553 124.848 17.3477H114.848H104.848C104.848 16.2765 105.052 14.9487 105.701 13.5746C106.352 12.1926 107.266 11.1607 108.156 10.4442C108.998 9.76635 109.767 9.40936 110.213 9.23332C110.665 9.05494 110.982 8.98613 111.061 8.96973C111.176 8.94573 110.977 8.99383 110.201 9.03656C109.476 9.07649 108.513 9.09932 107.206 9.10969L107.285 19.1094ZM114.848 17.3477H124.848C124.848 13.4618 122.862 10.4229 120.481 8.61207C118.54 7.13608 116.495 6.55769 115.339 6.29175C112.93 5.73754 110.052 5.62891 107.285 5.62891V15.6289V25.6289C108.498 25.6289 109.4 25.6584 110.055 25.704C110.749 25.7524 110.954 25.8054 110.854 25.7825C110.79 25.7677 110.53 25.7053 110.149 25.5521C109.781 25.4038 109.121 25.0997 108.374 24.531C107.601 23.9431 106.662 23.0157 105.932 21.655C105.179 20.2507 104.848 18.7534 104.848 17.3477H114.848ZM125.418 25.4258H115.418V30.8828H125.418H135.418V25.4258H125.418ZM125.418 30.8828V20.8828H89.1523V30.8828V40.8828H125.418V30.8828ZM89.1523 30.8828H99.1523V25.4258H89.1523H79.1523V30.8828H89.1523ZM89.1523 25.4258V35.4258H125.418V25.4258V15.4258H89.1523V25.4258ZM121.121 32.3867H111.121V43.3438H121.121H131.121V32.3867H121.121ZM121.121 43.3438V33.3438H99.9375V43.3438V53.3438H121.121V43.3438ZM99.9375 43.3438H89.9375V44.6328H99.9375H109.938V43.3438H99.9375ZM99.9375 44.6328V54.6328H122.066V44.6328V34.6328H99.9375V44.6328ZM122.066 44.6328H112.066V49.7031H122.066H132.066V44.6328H122.066ZM122.066 49.7031V39.7031H93.1914V49.7031V59.7031H122.066V49.7031ZM93.1914 49.7031H103.191V38.6172H93.1914H83.1914V49.7031H93.1914ZM93.1914 38.6172V48.6172H114.332V38.6172V28.6172H93.1914V38.6172ZM114.332 38.6172H124.332V37.4141H114.332H104.332V38.6172H114.332ZM114.332 37.4141V27.4141H93.2344V37.4141V47.4141H114.332V37.4141ZM93.2344 37.4141H103.234V32.3867H93.2344H83.2344V37.4141H93.2344ZM93.2344 32.3867V42.3867H121.121V32.3867V22.3867H93.2344V32.3867ZM168.559 10.1289L178.559 10.1289C178.559 4.60606 174.081 0.128906 168.559 0.128906V10.1289ZM168.559 19.4531H158.559C158.559 24.976 163.036 29.4531 168.559 29.4531V19.4531ZM173.5 19.4531H183.5C183.5 13.9303 179.023 9.45312 173.5 9.45312V19.4531ZM173.5 25.168V35.168C179.023 35.168 183.5 30.6908 183.5 25.168H173.5ZM168.559 25.168V15.168C163.036 15.168 158.559 19.6451 158.559 25.168H168.559ZM168.559 34.1484V44.1484C174.081 44.1484 178.559 39.6713 178.559 34.1484H168.559ZM161.641 34.1484H151.641C151.641 39.6713 156.118 44.1484 161.641 44.1484V34.1484ZM161.641 10.1289V0.128906C156.118 0.128906 151.641 4.60606 151.641 10.1289H161.641ZM168.559 35.5234H178.559C178.559 30.0006 174.081 25.5234 168.559 25.5234V35.5234ZM168.559 49.5312V59.5312C174.081 59.5312 178.559 55.0541 178.559 49.5312H168.559ZM142.047 49.5312L132.047 49.5312C132.047 55.0541 136.524 59.5312 142.047 59.5312V49.5312ZM142.047 35.5234V25.5234C136.524 25.5234 132.047 30.0006 132.047 35.5234L142.047 35.5234ZM148.836 40.8945V30.8945C143.313 30.8945 138.836 35.3717 138.836 40.8945L148.836 40.8945ZM148.836 44.0312L138.836 44.0312C138.836 49.5541 143.313 54.0312 148.836 54.0312V44.0312ZM161.77 44.0312V54.0312C167.292 54.0312 171.77 49.5541 171.77 44.0312H161.77ZM161.77 40.8945H171.77C171.77 35.3717 167.292 30.8945 161.77 30.8945V40.8945ZM160.223 13.3516H170.223C170.223 7.82872 165.745 3.35156 160.223 3.35156V13.3516ZM160.223 18.7227V28.7227C165.745 28.7227 170.223 24.2455 170.223 18.7227H160.223ZM136.719 18.7227H126.719C126.719 24.2455 131.196 28.7227 136.719 28.7227V18.7227ZM136.719 13.3516V3.35156C131.196 3.35156 126.719 7.82872 126.719 13.3516H136.719ZM145.012 13.3516V23.3516C150.535 23.3516 155.012 18.8744 155.012 13.3516H145.012ZM145.012 10V0C139.489 0 135.012 4.47715 135.012 10H145.012ZM151.93 10H161.93C161.93 4.47715 157.453 0 151.93 0V10ZM151.93 13.3516H141.93C141.93 18.8744 146.407 23.3516 151.93 23.3516V13.3516ZM148.449 28.8203L148.662 18.8226C148.519 18.8195 148.375 18.8196 148.232 18.8227L148.449 28.8203ZM168.559 10.1289H158.559V19.4531H168.559H178.559V10.1289L168.559 10.1289ZM168.559 19.4531V29.4531H173.5V19.4531V9.45312L168.559 9.45312V19.4531ZM173.5 19.4531H163.5V25.168H173.5H183.5V19.4531H173.5ZM173.5 25.168V15.168H168.559V25.168V35.168H173.5V25.168ZM168.559 25.168H158.559V34.1484H168.559H178.559V25.168H168.559ZM168.559 34.1484V24.1484H161.641V34.1484V44.1484H168.559V34.1484ZM161.641 34.1484H171.641V10.1289H161.641H151.641V34.1484H161.641ZM161.641 10.1289V20.1289H168.559V10.1289V0.128906L161.641 0.128906V10.1289ZM168.559 35.5234H158.559V49.5312H168.559H178.559V35.5234H168.559ZM168.559 49.5312V39.5312H142.047V49.5312V59.5312H168.559V49.5312ZM142.047 49.5312H152.047V35.5234H142.047L132.047 35.5234V49.5312L142.047 49.5312ZM142.047 35.5234V45.5234H168.559V35.5234V25.5234H142.047V35.5234ZM148.836 40.8945L138.836 40.8945V44.0312L148.836 44.0312H158.836V40.8945H148.836ZM148.836 44.0312V54.0312H161.77V44.0312V34.0312H148.836V44.0312ZM161.77 44.0312H171.77V40.8945H161.77H151.77V44.0312H161.77ZM161.77 40.8945V30.8945H148.836V40.8945V50.8945H161.77V40.8945ZM160.223 13.3516H150.223V18.7227H160.223H170.223V13.3516H160.223ZM160.223 18.7227V8.72266H136.719V18.7227V28.7227L160.223 28.7227V18.7227ZM136.719 18.7227H146.719V13.3516H136.719H126.719V18.7227H136.719ZM136.719 13.3516V23.3516H145.012V13.3516V3.35156H136.719V13.3516ZM145.012 13.3516H155.012V10H145.012H135.012V13.3516H145.012ZM145.012 10V20H151.93V10V0L145.012 0V10ZM151.93 10H141.93V13.3516H151.93H161.93V10H151.93ZM151.93 13.3516V23.3516H160.223V13.3516V3.35156L151.93 3.35156V13.3516ZM148.449 19.4531V29.4531C149.787 29.4531 150.073 29.8037 149.74 29.5621C149.544 29.4209 149.18 29.0948 148.864 28.515C148.535 27.9112 148.375 27.2405 148.375 26.6289H158.375H168.375C168.375 20.927 165.484 16.2693 161.467 13.3617C157.632 10.585 152.955 9.45312 148.449 9.45312V19.4531ZM158.375 26.6289H148.375C148.375 26.0271 148.533 25.3643 148.859 24.7672C149.171 24.1946 149.529 23.8739 149.719 23.7365C150.041 23.503 149.753 23.8477 148.449 23.8477V33.8477V43.8477C152.946 43.8477 157.621 42.7099 161.456 39.9305C165.471 37.0204 168.375 32.355 168.375 26.6289H158.375ZM148.449 33.8477V23.8477C147.074 23.8477 146.761 23.4894 147.081 23.7196C147.27 23.856 147.634 24.1784 147.95 24.7568C148.279 25.3597 148.438 26.0268 148.438 26.6289H138.438H128.438C128.438 32.3618 131.349 37.0357 135.391 39.9474C139.245 42.7235 143.937 43.8477 148.449 43.8477V33.8477ZM138.438 26.6289H148.438C148.438 27.2596 148.27 27.943 147.936 28.5514C147.615 29.1341 147.25 29.4547 147.065 29.5876C146.753 29.8112 147.075 29.4531 148.449 29.4531V19.4531V9.45312C143.936 9.45312 139.253 10.5775 135.407 13.3363C131.381 16.2245 128.438 20.8831 128.438 26.6289H138.438ZM148.449 24.5664V14.5664C146.752 14.5664 143.841 14.7719 141.026 16.4179C137.45 18.5101 135.184 22.2782 135.184 26.6289H145.184H155.184C155.184 27.7769 154.916 29.2418 154.068 30.7042C153.225 32.1589 152.098 33.1117 151.124 33.6817C150.205 34.2193 149.431 34.4166 149.054 34.4916C148.847 34.5327 148.691 34.5504 148.598 34.5583C148.505 34.5664 148.453 34.5664 148.449 34.5664V24.5664ZM145.184 26.6289H135.184C135.184 30.6955 137.15 34.5095 140.732 36.7738C143.661 38.6252 146.745 38.8597 148.667 38.818L148.449 28.8203L148.232 18.8227C148.315 18.8209 148.638 18.8189 149.133 18.9213C149.619 19.022 150.463 19.2639 151.418 19.8678C152.427 20.5053 153.469 21.4952 154.217 22.8827C154.959 24.2584 155.184 25.5995 155.184 26.6289H145.184ZM148.449 28.8203L148.236 38.8181C150.162 38.859 153.182 38.6259 156.071 36.8821C159.607 34.7477 161.844 30.9743 161.844 26.6289H151.844H141.844C141.844 25.4913 142.111 24.0784 142.911 22.6753C143.707 21.2803 144.776 20.339 145.736 19.7595C146.649 19.2084 147.437 18.9945 147.87 18.9078C148.316 18.8186 148.6 18.8213 148.662 18.8226L148.449 28.8203ZM151.844 26.6289H161.844C161.844 21.9847 159.278 18.2731 155.78 16.3194C153.009 14.7713 150.157 14.5664 148.449 14.5664V24.5664V34.5664C148.761 34.5664 147.607 34.6623 146.027 33.7802C145.109 33.2673 143.961 32.3672 143.071 30.9154C142.162 29.4316 141.844 27.8937 141.844 26.6289H151.844ZM184.5 14.5547L194.5 14.5941C194.51 11.9351 193.461 9.38144 191.585 7.49755C189.708 5.61367 187.159 4.55469 184.5 4.55469V14.5547ZM179.043 42.0117L174.457 50.8979C179.213 53.3528 185.059 51.6273 187.72 46.9832L179.043 42.0117ZM173.715 39.2617L165.074 34.2287C163.694 36.5968 163.347 39.4273 164.114 42.0585C164.88 44.6897 166.693 46.891 169.128 48.1479L173.715 39.2617ZM178.57 20.0117L188.565 20.3421C188.654 17.6341 187.641 15.0057 185.757 13.0584C183.873 11.1112 181.28 10.0117 178.57 10.0117V20.0117ZM175.348 20.0117H165.348C165.348 25.5346 169.825 30.0117 175.348 30.0117V20.0117ZM175.348 14.5547V4.55469C169.825 4.55469 165.348 9.03184 165.348 14.5547H175.348ZM193.438 14.5547H203.438C203.438 9.03184 198.96 4.55469 193.438 4.55469V14.5547ZM193.18 24.6094L183.198 23.9983C183.03 26.7514 184.006 29.4519 185.896 31.461C187.786 33.4701 190.421 34.6094 193.18 34.6094V24.6094ZM195.414 24.6094V34.6094C200.937 34.6094 205.414 30.1322 205.414 24.6094L195.414 24.6094ZM195.414 10.9453V0.945312C189.891 0.945312 185.414 5.42247 185.414 10.9453H195.414ZM201.816 10.9453H211.816C211.816 5.42247 207.339 0.945312 201.816 0.945312V10.9453ZM201.816 48.2852V58.2852C207.339 58.2852 211.816 53.808 211.816 48.2852H201.816ZM195.414 48.2852H185.414C185.414 53.808 189.891 58.2852 195.414 58.2852V48.2852ZM195.414 30.0664H205.414C205.414 24.5436 200.937 20.0664 195.414 20.0664V30.0664ZM192.578 30.0664V20.0664C187.682 20.0664 183.505 23.6121 182.711 28.4438L192.578 30.0664ZM187.938 43.6016L183.205 52.4109C187.957 54.9633 193.876 53.2879 196.585 48.624L187.938 43.6016ZM182.738 40.8086L174.085 35.796C172.728 38.1391 172.379 40.9324 173.118 43.5375C173.857 46.1425 175.621 48.3366 178.006 49.618L182.738 40.8086ZM187.637 20.0117L197.633 20.2707C197.703 17.5745 196.681 14.9645 194.799 13.0328C192.917 11.1012 190.334 10.0117 187.637 10.0117V20.0117ZM185.574 20.0117H175.574C175.574 25.5346 180.051 30.0117 185.574 30.0117V20.0117ZM185.574 14.5547V4.55469C180.051 4.55469 175.574 9.03184 175.574 14.5547H185.574ZM209.938 10.1289H219.938C219.938 4.60606 215.46 0.128906 209.938 0.128906V10.1289ZM209.938 49.875V59.875C215.46 59.875 219.938 55.3978 219.938 49.875H209.938ZM203.32 49.875H193.32C193.32 55.3978 197.797 59.875 203.32 59.875V49.875ZM203.32 10.1289V0.128906C197.797 0.128906 193.32 4.60606 193.32 10.1289H203.32ZM184.5 14.5547L174.5 14.5153C174.458 25.125 173.555 31.4744 170.366 37.0402L179.043 42.0117L187.72 46.9832C193.64 36.6506 194.456 25.8125 194.5 14.5941L184.5 14.5547ZM179.043 42.0117L183.629 33.1255L178.301 30.3755L173.715 39.2617L169.128 48.1479L174.457 50.8979L179.043 42.0117ZM173.715 39.2617L182.356 44.2948C187.04 36.2521 188.275 29.1206 188.565 20.3421L178.57 20.0117L168.576 19.6813C168.35 26.5005 167.522 30.0252 165.074 34.2287L173.715 39.2617ZM178.57 20.0117V10.0117H175.348V20.0117V30.0117H178.57V20.0117ZM175.348 20.0117H185.348V14.5547H175.348H165.348V20.0117H175.348ZM175.348 14.5547V24.5547H184.5V14.5547V4.55469H175.348V14.5547ZM193.438 14.5547H183.438C183.438 17.9923 183.375 21.1213 183.198 23.9983L193.18 24.6094L203.161 25.2205C203.372 21.781 203.438 18.2069 203.438 14.5547H193.438ZM193.18 24.6094V34.6094H195.414V24.6094V14.6094H193.18V24.6094ZM195.414 24.6094L205.414 24.6094V10.9453H195.414H185.414V24.6094H195.414ZM195.414 10.9453V20.9453H201.816V10.9453V0.945312H195.414V10.9453ZM201.816 10.9453H191.816V48.2852H201.816H211.816V10.9453H201.816ZM201.816 48.2852V38.2852H195.414V48.2852V58.2852H201.816V48.2852ZM195.414 48.2852H205.414V30.0664H195.414H185.414V48.2852H195.414ZM195.414 30.0664V20.0664H192.578V30.0664V40.0664H195.414V30.0664ZM192.578 30.0664L182.711 28.4438C182.062 32.3881 181.012 35.615 179.29 38.5792L187.938 43.6016L196.585 48.624C199.805 43.0803 201.504 37.4126 202.446 31.6891L192.578 30.0664ZM187.938 43.6016L192.67 34.7922L187.471 31.9992L182.738 40.8086L178.006 49.618L183.205 52.4109L187.938 43.6016ZM182.738 40.8086L191.391 45.8212C196.459 37.0734 197.401 29.253 197.633 20.2707L187.637 20.0117L177.64 19.7527C177.443 27.3563 176.709 31.2665 174.085 35.796L182.738 40.8086ZM187.637 20.0117V10.0117H185.574V20.0117V30.0117H187.637V20.0117ZM185.574 20.0117H195.574V14.5547H185.574H175.574V20.0117H185.574ZM185.574 14.5547V24.5547H193.438V14.5547V4.55469L185.574 4.55469V14.5547ZM209.938 10.1289H199.938V49.875H209.938H219.938V10.1289H209.938ZM209.938 49.875V39.875H203.32V49.875V59.875H209.938V49.875ZM203.32 49.875H213.32V10.1289H203.32H193.32V49.875H203.32ZM203.32 10.1289V20.1289L209.938 20.1289V10.1289V0.128906H203.32V10.1289ZM256.988 10.1289H266.988C266.988 4.60606 262.511 0.128906 256.988 0.128906V10.1289ZM256.988 49.875V59.875C262.511 59.875 266.988 55.3978 266.988 49.875H256.988ZM250.5 49.875H240.5C240.5 55.3978 244.977 59.875 250.5 59.875V49.875ZM250.5 10.1289V0.128906C244.977 0.128906 240.5 4.60606 240.5 10.1289H250.5ZM248.781 10.6445H258.781C258.781 5.12168 254.304 0.644531 248.781 0.644531V10.6445ZM248.781 48.1992V58.1992C254.304 58.1992 258.781 53.7221 258.781 48.1992H248.781ZM242.379 48.1992H232.379C232.379 53.7221 236.856 58.1992 242.379 58.1992V48.1992ZM242.379 37.457H252.379C252.379 33.19 249.671 29.3931 245.637 28.0027C241.603 26.6124 237.131 27.9351 234.502 31.2961L242.379 37.457ZM238.984 41.7969L233.999 50.4653C238.313 52.9466 243.795 51.8779 246.861 47.9579L238.984 41.7969ZM232.324 33.1172L241.795 29.906C240.415 25.8359 236.588 23.1028 232.29 23.1172C227.993 23.1317 224.185 25.8906 222.832 29.9699L232.324 33.1172ZM225.449 42.6992L217.66 48.9703C220.818 52.8932 226.401 53.8553 230.69 51.2158L225.449 42.6992ZM221.367 37.6289L216.073 29.1455C213.646 30.6601 211.984 33.1413 211.507 35.9617C211.03 38.7822 211.784 41.6718 213.578 43.9L221.367 37.6289ZM228.93 19.2812H238.93C238.93 13.7584 234.453 9.28125 228.93 9.28125V19.2812ZM223.129 19.2812H213.129C213.129 24.8041 217.606 29.2812 223.129 29.2812V19.2812ZM223.129 13.8242V3.82422C217.606 3.82422 213.129 8.30137 213.129 13.8242H223.129ZM240.746 13.8242H250.746C250.746 8.30137 246.269 3.82422 240.746 3.82422V13.8242ZM240.746 19.2812V29.2812C246.269 29.2812 250.746 24.8041 250.746 19.2812H240.746ZM235.547 19.2812V9.28125C230.024 9.28125 225.547 13.7584 225.547 19.2812H235.547ZM235.547 20.3555L245.547 20.4244C245.547 20.4014 245.547 20.3785 245.547 20.3555H235.547ZM242.379 36.4258L237.038 44.8799C240.118 46.8262 244.014 46.9427 247.205 45.184C250.397 43.4252 252.379 40.0697 252.379 36.4258H242.379ZM242.379 28.8633H252.379C252.379 23.3404 247.902 18.8633 242.379 18.8633V28.8633ZM238.082 28.8633H228.082C228.082 34.3861 232.559 38.8633 238.082 38.8633V28.8633ZM238.082 23.3203V13.3203C232.559 13.3203 228.082 17.7975 228.082 23.3203H238.082ZM242.379 23.3203V33.3203C247.902 33.3203 252.379 28.8432 252.379 23.3203H242.379ZM242.379 10.6445V0.644531C236.856 0.644531 232.379 5.12168 232.379 10.6445L242.379 10.6445ZM256.988 10.1289H246.988V49.875H256.988H266.988V10.1289H256.988ZM256.988 49.875V39.875H250.5V49.875V59.875H256.988V49.875ZM250.5 49.875H260.5V10.1289H250.5H240.5V49.875H250.5ZM250.5 10.1289V20.1289H256.988V10.1289V0.128906H250.5V10.1289ZM248.781 10.6445H238.781V48.1992H248.781H258.781V10.6445H248.781ZM248.781 48.1992V38.1992H242.379V48.1992V58.1992H248.781V48.1992ZM242.379 48.1992H252.379V37.457H242.379H232.379V48.1992H242.379ZM242.379 37.457L234.502 31.2961L231.108 35.6359L238.984 41.7969L246.861 47.9579L250.256 43.618L242.379 37.457ZM238.984 41.7969L243.97 33.1284C243.327 32.7585 242.505 32.0007 241.795 29.906L232.324 33.1172L222.854 36.3284C224.679 41.7102 228.068 47.054 233.999 50.4653L238.984 41.7969ZM232.324 33.1172L222.832 29.9699C221.917 32.7309 220.865 33.7784 220.208 34.1826L225.449 42.6992L230.69 51.2158C236.736 47.495 240.024 41.6676 241.816 36.2645L232.324 33.1172ZM225.449 42.6992L233.239 36.4281L229.157 31.3578L221.367 37.6289L213.578 43.9L217.66 48.9703L225.449 42.6992ZM221.367 37.6289L226.662 46.1123C237.314 39.4638 238.93 27.6718 238.93 20.3555H228.93H218.93C218.93 22.8975 218.619 24.9715 218.05 26.4981C217.534 27.8835 216.888 28.6368 216.073 29.1455L221.367 37.6289ZM228.93 20.3555H238.93V19.2812H228.93H218.93V20.3555H228.93ZM228.93 19.2812V9.28125H223.129V19.2812V29.2812H228.93V19.2812ZM223.129 19.2812H233.129V13.8242H223.129H213.129V19.2812H223.129ZM223.129 13.8242V23.8242H240.746V13.8242V3.82422H223.129V13.8242ZM240.746 13.8242H230.746V19.2812H240.746H250.746V13.8242H240.746ZM240.746 19.2812V9.28125L235.547 9.28125V19.2812V29.2812H240.746V19.2812ZM235.547 19.2812H225.547V20.3555H235.547H245.547V19.2812H235.547ZM235.547 20.3555L225.547 20.2865C225.498 27.3685 226.9 38.4748 237.038 44.8799L242.379 36.4258L247.72 27.9717C247.122 27.5939 246.659 27.0756 246.264 25.9906C245.806 24.7343 245.53 22.9071 245.547 20.4244L235.547 20.3555ZM242.379 36.4258H252.379V28.8633H242.379H232.379V36.4258H242.379ZM242.379 28.8633V18.8633H238.082V28.8633V38.8633H242.379V28.8633ZM238.082 28.8633H248.082V23.3203H238.082H228.082V28.8633H238.082ZM238.082 23.3203V33.3203H242.379V23.3203V13.3203H238.082V23.3203ZM242.379 23.3203H252.379V10.6445H242.379L232.379 10.6445V23.3203H242.379ZM242.379 10.6445V20.6445H248.781V10.6445V0.644531H242.379V10.6445ZM276.754 18.0781L286.754 18.1366C286.754 18.1171 286.754 18.0976 286.754 18.0781H276.754ZM286.336 35.6953L294.448 41.5433C296.245 39.0509 296.796 35.8709 295.943 32.9191C295.09 29.9673 292.927 27.5715 290.078 26.4218L286.336 35.6953ZM282.34 41.2383L278.32 50.3947C282.638 52.2905 287.694 50.9117 290.452 47.0863L282.34 41.2383ZM273.359 31.5703L282.651 27.8724C281.114 24.011 277.349 21.5026 273.193 21.5717C269.038 21.6408 265.358 24.2728 263.951 28.1831L273.359 31.5703ZM263.82 42.3125L255.712 48.1652C258.455 51.9655 263.469 53.3508 267.774 51.4975L263.82 42.3125ZM259.695 36.5977L255.972 27.3165C253.116 28.4621 250.947 30.8588 250.09 33.8144C249.234 36.7699 249.786 39.9552 251.587 42.4503L259.695 36.5977ZM269.75 18.0781L279.75 18.1331C279.75 18.1148 279.75 18.0964 279.75 18.0781H269.75ZM269.75 12.9648V2.96484C264.227 2.96484 259.75 7.442 259.75 12.9648H269.75ZM276.754 12.9648H286.754C286.754 7.442 282.277 2.96484 276.754 2.96484V12.9648ZM293.984 10.1289L303.984 10.1289C303.984 4.60606 299.507 0.128906 293.984 0.128906V10.1289ZM293.984 50.0039V60.0039C299.507 60.0039 303.984 55.5268 303.984 50.0039H293.984ZM287.023 50.0039H277.023C277.023 55.5268 281.501 60.0039 287.023 60.0039V50.0039ZM287.023 10.1289V0.128906C281.501 0.128906 277.023 4.60606 277.023 10.1289H287.023ZM276.754 18.0781L266.754 18.0196C266.702 26.8585 269.498 39.6845 282.594 44.9688L286.336 35.6953L290.078 26.4218C288.965 25.9729 288.324 25.328 287.803 24.2334C287.175 22.9137 286.738 20.8748 286.754 18.1366L276.754 18.0781ZM286.336 35.6953L278.224 29.8473L274.228 35.3903L282.34 41.2383L290.452 47.0863L294.448 41.5433L286.336 35.6953ZM282.34 41.2383L286.36 32.0818C284.773 31.3854 283.578 30.2018 282.651 27.8724L273.359 31.5703L264.068 35.2683C266.579 41.5756 271.098 47.224 278.32 50.3947L282.34 41.2383ZM273.359 31.5703L263.951 28.1831C262.917 31.0539 261.55 32.4024 259.866 33.1275L263.82 42.3125L267.774 51.4975C275.672 48.0976 280.321 41.7547 282.768 34.9575L273.359 31.5703ZM263.82 42.3125L271.929 36.4598L267.804 30.745L259.695 36.5977L251.587 42.4503L255.712 48.1652L263.82 42.3125ZM259.695 36.5977L263.418 45.8788C276.81 40.5069 279.7 27.2913 279.75 18.1331L269.75 18.0781L259.75 18.0232C259.734 21.046 259.246 23.3228 258.53 24.8271C257.921 26.1051 257.175 26.8339 255.972 27.3165L259.695 36.5977ZM269.75 18.0781H279.75V12.9648H269.75H259.75V18.0781H269.75ZM269.75 12.9648V22.9648H276.754V12.9648V2.96484H269.75V12.9648ZM276.754 12.9648H266.754V18.0781H276.754H286.754V12.9648H276.754ZM293.984 10.1289H283.984V50.0039H293.984H303.984V10.1289L293.984 10.1289ZM293.984 50.0039V40.0039H287.023V50.0039V60.0039H293.984V50.0039ZM287.023 50.0039H297.023V10.1289H287.023H277.023V50.0039H287.023ZM287.023 10.1289V20.1289H293.984V10.1289V0.128906L287.023 0.128906V10.1289ZM330.164 10.1289H340.164C340.164 4.60606 335.687 0.128906 330.164 0.128906V10.1289ZM330.164 25.2109H320.164C320.164 30.7338 324.641 35.2109 330.164 35.2109V25.2109ZM335.535 25.2109H345.535C345.535 19.6881 341.058 15.2109 335.535 15.2109V25.2109ZM335.535 30.8398V40.8398C341.058 40.8398 345.535 36.3627 345.535 30.8398H335.535ZM330.164 30.8398V20.8398C324.641 20.8398 320.164 25.317 320.164 30.8398H330.164ZM330.164 49.875V59.875C335.687 59.875 340.164 55.3978 340.164 49.875H330.164ZM323.332 49.875H313.332C313.332 55.3978 317.809 59.875 323.332 59.875V49.875ZM323.332 10.1289V0.128906C317.809 0.128906 313.332 4.60606 313.332 10.1289H323.332ZM321.398 15.8008H331.398C331.398 10.2779 326.921 5.80078 321.398 5.80078V15.8008ZM321.398 21.2578V31.2578C326.921 31.2578 331.398 26.7807 331.398 21.2578H321.398ZM298.238 21.2578H288.238C288.238 26.7807 292.715 31.2578 298.238 31.2578V21.2578ZM298.238 15.8008V5.80078C292.715 5.80078 288.238 10.2779 288.238 15.8008H298.238ZM306.445 15.8008V25.8008C311.968 25.8008 316.445 21.3236 316.445 15.8008H306.445ZM306.445 10.8594V0.859375C300.922 0.859375 296.445 5.33653 296.445 10.8594L306.445 10.8594ZM313.32 10.8594H323.32C323.32 5.33653 318.843 0.859375 313.32 0.859375V10.8594ZM313.32 15.8008H303.32C303.32 21.3236 307.797 25.8008 313.32 25.8008V15.8008ZM306.059 32.4727L316.057 32.6265C316.059 32.5215 316.059 32.4164 316.057 32.3114L306.059 32.4727ZM330.164 10.1289H320.164V25.2109H330.164L340.164 25.2109V10.1289H330.164ZM330.164 25.2109V35.2109H335.535V25.2109V15.2109L330.164 15.2109V25.2109ZM335.535 25.2109L325.535 25.2109V30.8398H335.535H345.535V25.2109H335.535ZM335.535 30.8398V20.8398L330.164 20.8398V30.8398V40.8398H335.535V30.8398ZM330.164 30.8398H320.164V49.875H330.164H340.164V30.8398H330.164ZM330.164 49.875V39.875H323.332V49.875V59.875H330.164V49.875ZM323.332 49.875H333.332V10.1289H323.332H313.332V49.875H323.332ZM323.332 10.1289V20.1289H330.164V10.1289V0.128906L323.332 0.128906V10.1289ZM321.398 15.8008H311.398V21.2578H321.398H331.398V15.8008H321.398ZM321.398 21.2578V11.2578L298.238 11.2578V21.2578V31.2578H321.398V21.2578ZM298.238 21.2578H308.238V15.8008H298.238H288.238V21.2578H298.238ZM298.238 15.8008V25.8008H306.445V15.8008V5.80078L298.238 5.80078V15.8008ZM306.445 15.8008H316.445V10.8594H306.445L296.445 10.8594V15.8008H306.445ZM306.445 10.8594V20.8594H313.32V10.8594V0.859375H306.445V10.8594ZM313.32 10.8594H303.32V15.8008H313.32H323.32V10.8594H313.32ZM313.32 15.8008V25.8008H321.398V15.8008V5.80078H313.32V15.8008ZM309.883 22.8047V32.8047C310.209 32.8047 310.407 32.86 310.496 32.893C310.585 32.9263 310.578 32.9417 310.522 32.8897C310.462 32.8344 310.386 32.7395 310.331 32.6151C310.274 32.4859 310.281 32.4189 310.281 32.4727H320.281H330.281C330.281 20.5455 320.484 12.8047 309.883 12.8047V22.8047ZM320.281 32.4727H310.281C310.281 32.5477 310.27 32.4946 310.324 32.3724C310.375 32.2546 310.449 32.1606 310.51 32.1038C310.568 32.0503 310.578 32.064 310.491 32.0962C310.406 32.1283 310.209 32.1836 309.883 32.1836V42.1836V52.1836C320.514 52.1836 330.281 44.4146 330.281 32.4727H320.281ZM309.883 42.1836V32.1836C309.499 32.1836 309.277 32.12 309.189 32.0871C309.101 32.0546 309.123 32.0455 309.196 32.1136C309.273 32.1849 309.353 32.2914 309.405 32.412C309.458 32.5346 309.441 32.575 309.441 32.4727H299.441H289.441C289.441 44.3886 299.094 52.1836 309.883 52.1836V42.1836ZM299.441 32.4727H309.441C309.441 32.3914 309.454 32.4456 309.397 32.5754C309.342 32.7026 309.26 32.8102 309.185 32.8799C309.113 32.9464 309.093 32.9357 309.184 32.9021C309.276 32.8683 309.5 32.8047 309.883 32.8047V22.8047V12.8047C299.125 12.8047 289.441 20.5715 289.441 32.4727H299.441ZM309.883 28.3477V18.3477C306.569 18.3477 302.848 19.4707 299.964 22.4231C297.06 25.3958 296.004 29.1943 296.06 32.6339L306.059 32.4727L316.057 32.3114C316.07 33.087 315.81 34.823 314.27 36.3992C312.75 37.9551 310.962 38.3477 309.883 38.3477V28.3477ZM306.059 32.4727L296.06 32.3188C296.008 35.7025 296.996 39.604 300.046 42.6536C303.047 45.6554 306.816 46.5977 309.883 46.5977V36.5977V26.5977C310.715 26.5977 312.55 26.8739 314.188 28.5115C315.873 30.1967 316.066 32.0358 316.057 32.6265L306.059 32.4727ZM309.883 36.5977V46.5977C312.996 46.5977 316.753 45.6143 319.722 42.5972C322.695 39.5769 323.664 35.7552 323.664 32.4727H313.664H303.664C303.664 31.9831 303.838 30.2239 305.468 28.5678C307.095 26.915 308.961 26.5977 309.883 26.5977V36.5977ZM313.664 32.4727H323.664C323.664 29.142 322.635 25.4244 319.804 22.48C316.955 19.5175 313.247 18.3477 309.883 18.3477V28.3477V38.3477C308.71 38.3477 306.893 37.9082 305.387 36.3422C303.899 34.7944 303.664 33.1393 303.664 32.4727H313.664ZM368.836 20.2266H378.836C378.836 14.7037 374.359 10.2266 368.836 10.2266V20.2266ZM368.836 25.5547V35.5547C374.359 35.5547 378.836 31.0775 378.836 25.5547H368.836ZM340.734 25.5547L330.734 25.5547C330.734 31.0775 335.212 35.5547 340.734 35.5547V25.5547ZM340.734 11.5469V1.54687C335.212 1.54687 330.734 6.02403 330.734 11.5469H340.734ZM347.609 11.5469H357.609C357.609 6.02403 353.132 1.54687 347.609 1.54687V11.5469ZM347.609 20.2266H337.609C337.609 25.7494 342.087 30.2266 347.609 30.2266V20.2266ZM372.746 29.0781H382.746C382.746 23.5553 378.269 19.0781 372.746 19.0781V29.0781ZM372.746 34.4062V44.4062C378.269 44.4062 382.746 39.9291 382.746 34.4062H372.746ZM336.48 34.4062H326.48C326.48 39.9291 330.958 44.4062 336.48 44.4062V34.4062ZM336.48 29.0781V19.0781C330.958 19.0781 326.48 23.5553 326.48 29.0781H336.48ZM369.094 43.6016H379.094C379.094 38.0787 374.617 33.6016 369.094 33.6016V43.6016ZM369.094 49.1016V59.1016C374.617 59.1016 379.094 54.6244 379.094 49.1016H369.094ZM340.262 49.1016H330.262C330.262 54.6244 334.739 59.1016 340.262 59.1016V49.1016ZM340.262 37.1562V27.1562C334.739 27.1562 330.262 31.6334 330.262 37.1562H340.262ZM347.223 37.1562H357.223C357.223 31.6334 352.746 27.1562 347.223 27.1562V37.1562ZM347.223 43.6016H337.223C337.223 49.1244 341.7 53.6016 347.223 53.6016V43.6016ZM368.836 20.2266H358.836V25.5547H368.836H378.836V20.2266H368.836ZM368.836 25.5547V15.5547H340.734V25.5547V35.5547H368.836V25.5547ZM340.734 25.5547H350.734V11.5469H340.734H330.734V25.5547L340.734 25.5547ZM340.734 11.5469V21.5469H347.609V11.5469V1.54687H340.734V11.5469ZM347.609 11.5469H337.609V20.2266H347.609H357.609V11.5469H347.609ZM347.609 20.2266V30.2266H368.836V20.2266V10.2266L347.609 10.2266V20.2266ZM372.746 29.0781H362.746V34.4062H372.746H382.746V29.0781H372.746ZM372.746 34.4062V24.4062H336.48V34.4062V44.4062H372.746V34.4062ZM336.48 34.4062H346.48V29.0781H336.48H326.48V34.4062H336.48ZM336.48 29.0781V39.0781H372.746V29.0781V19.0781H336.48V29.0781ZM369.094 43.6016H359.094V49.1016H369.094H379.094V43.6016H369.094ZM369.094 49.1016V39.1016H340.262V49.1016V59.1016H369.094V49.1016ZM340.262 49.1016H350.262V37.1562H340.262H330.262V49.1016H340.262ZM340.262 37.1562V47.1562H347.223V37.1562V27.1562H340.262V37.1562ZM347.223 37.1562H337.223V43.6016H347.223H357.223V37.1562H347.223ZM347.223 43.6016V53.6016H369.094V43.6016V33.6016H347.223V43.6016Z" fill="white" mask="url(#path-1-outside-1_6524_1836)"/>
</g>
<defs>
<filter id="filter0_d_6524_1836" x="0" y="0" width="386.746" height="68.0039" filterUnits="userSpaceOnUse" color-interpolation-filters="sRGB">
<feFlood flood-opacity="0" result="BackgroundImageFix"/>
<feColorMatrix in="SourceAlpha" type="matrix" values="0 0 0 0 0 0 0 0 0 0 0 0 0 0 0 0 0 0 127 0" result="hardAlpha"/>
<feOffset dy="4"/>
<feGaussianBlur stdDeviation="2"/>
<feComposite in2="hardAlpha" operator="out"/>
<feColorMatrix type="matrix" values="0 0 0 0 0 0 0 0 0 0 0 0 0 0 0 0 0 0 0.07 0"/>
<feBlend mode="normal" in2="BackgroundImageFix" result="effect1_dropShadow_6524_1836"/>
<feBlend mode="normal" in="SourceGraphic" in2="effect1_dropShadow_6524_1836" result="shape"/>
</filter>
</defs>
</svg>
