<svg width="177" height="68" viewBox="0 0 177 68" fill="none" xmlns="http://www.w3.org/2000/svg">
<g filter="url(#filter0_d_6524_1781)">
<mask id="path-1-outside-1_6524_1781" maskUnits="userSpaceOnUse" x="3.09766" y="-0.507813" width="170" height="61" fill="black">
<rect fill="white" x="3.09766" y="-0.507813" width="170" height="61"/>
<path d="M46.5703 27.2734V32.6875H35.5273V39.9922H50.3086V45.5781H14V39.9922H28.6953V32.6875H18.0391V12.5781H46.3125V17.9922H24.957V27.2734H46.5703ZM85.8438 10.0859V38.9609H78.9688V25.4258L73.5977 25.4258V19.9258L78.9688 19.9258V10.0859H85.8438ZM86.7031 43.6875V49.1875H58.9453V36.5117H65.8203V43.6875H86.7031ZM75.0586 12.4062V17.8633H67.7969C67.8613 22.0957 70.0098 26.8008 76.4766 28.8203L73.168 34.2773C68.8926 32.9453 66.0566 30.3672 64.3594 27.1016C62.5977 30.7109 59.6328 33.5684 55.0781 34.9648L51.5547 29.4219C58.3867 27.4023 60.5996 22.4609 60.75 17.8633H53.4453V12.4062H75.0586ZM113.086 11.9336V17.3477H105.867C106.211 21.3652 108.51 25.4902 114.504 27.4453L111.195 32.7305C106.92 31.4629 104.084 28.9062 102.387 25.6836C100.625 29.25 97.6602 32.1074 93.1055 33.4609L89.582 28.0469C95.9844 26.1348 98.3262 21.5801 98.7344 17.3477H91.4727V11.9336L113.086 11.9336ZM123.871 35.1367V49.7461H116.996V40.5938H96.2422V35.1367H123.871ZM123.871 10V33.6328H116.996V24.6094H112.055V19.0234H116.996V10H123.871ZM161.598 10.0859V38.3164H154.68V10.0859H161.598ZM162.543 43.6875V49.1875L134.398 49.1875V35.4805L141.359 35.4805V43.6875H162.543ZM139.641 12.4492C145.828 12.4492 150.77 16.7461 150.77 22.6328C150.77 28.6484 145.828 32.9023 139.641 32.9023C133.453 32.9023 128.469 28.6484 128.512 22.6328C128.469 16.7461 133.453 12.4492 139.641 12.4492ZM139.641 18.4219C137.105 18.4219 135.215 19.8398 135.215 22.6328C135.215 25.5547 137.105 26.9297 139.641 26.9297C142.047 26.9297 143.938 25.5547 143.938 22.6328C143.938 19.8398 142.047 18.4219 139.641 18.4219Z"/>
</mask>
<path d="M46.5703 27.2734V32.6875H35.5273V39.9922H50.3086V45.5781H14V39.9922H28.6953V32.6875H18.0391V12.5781H46.3125V17.9922H24.957V27.2734H46.5703ZM85.8438 10.0859V38.9609H78.9688V25.4258L73.5977 25.4258V19.9258L78.9688 19.9258V10.0859H85.8438ZM86.7031 43.6875V49.1875H58.9453V36.5117H65.8203V43.6875H86.7031ZM75.0586 12.4062V17.8633H67.7969C67.8613 22.0957 70.0098 26.8008 76.4766 28.8203L73.168 34.2773C68.8926 32.9453 66.0566 30.3672 64.3594 27.1016C62.5977 30.7109 59.6328 33.5684 55.0781 34.9648L51.5547 29.4219C58.3867 27.4023 60.5996 22.4609 60.75 17.8633H53.4453V12.4062H75.0586ZM113.086 11.9336V17.3477H105.867C106.211 21.3652 108.51 25.4902 114.504 27.4453L111.195 32.7305C106.92 31.4629 104.084 28.9062 102.387 25.6836C100.625 29.25 97.6602 32.1074 93.1055 33.4609L89.582 28.0469C95.9844 26.1348 98.3262 21.5801 98.7344 17.3477H91.4727V11.9336L113.086 11.9336ZM123.871 35.1367V49.7461H116.996V40.5938H96.2422V35.1367H123.871ZM123.871 10V33.6328H116.996V24.6094H112.055V19.0234H116.996V10H123.871ZM161.598 10.0859V38.3164H154.68V10.0859H161.598ZM162.543 43.6875V49.1875L134.398 49.1875V35.4805L141.359 35.4805V43.6875H162.543ZM139.641 12.4492C145.828 12.4492 150.77 16.7461 150.77 22.6328C150.77 28.6484 145.828 32.9023 139.641 32.9023C133.453 32.9023 128.469 28.6484 128.512 22.6328C128.469 16.7461 133.453 12.4492 139.641 12.4492ZM139.641 18.4219C137.105 18.4219 135.215 19.8398 135.215 22.6328C135.215 25.5547 137.105 26.9297 139.641 26.9297C142.047 26.9297 143.938 25.5547 143.938 22.6328C143.938 19.8398 142.047 18.4219 139.641 18.4219Z" fill="#11DCA9"/>
<path d="M46.5703 27.2734H56.5703C56.5703 21.7506 52.0932 17.2734 46.5703 17.2734V27.2734ZM46.5703 32.6875V42.6875C52.0932 42.6875 56.5703 38.2103 56.5703 32.6875H46.5703ZM35.5273 32.6875V22.6875C30.0045 22.6875 25.5273 27.1647 25.5273 32.6875H35.5273ZM35.5273 39.9922H25.5273C25.5273 45.515 30.0045 49.9922 35.5273 49.9922V39.9922ZM50.3086 39.9922H60.3086C60.3086 34.4693 55.8314 29.9922 50.3086 29.9922V39.9922ZM50.3086 45.5781V55.5781C55.8314 55.5781 60.3086 51.101 60.3086 45.5781H50.3086ZM14 45.5781H4C4 51.101 8.47715 55.5781 14 55.5781V45.5781ZM14 39.9922L14 29.9922C8.47715 29.9922 4 34.4693 4 39.9922H14ZM28.6953 39.9922V49.9922C34.2182 49.9922 38.6953 45.515 38.6953 39.9922H28.6953ZM28.6953 32.6875H38.6953C38.6953 27.1647 34.2182 22.6875 28.6953 22.6875V32.6875ZM18.0391 32.6875H8.03906C8.03906 38.2103 12.5162 42.6875 18.0391 42.6875V32.6875ZM18.0391 12.5781V2.57812C12.5162 2.57812 8.03906 7.05528 8.03906 12.5781H18.0391ZM46.3125 12.5781H56.3125C56.3125 7.05528 51.8353 2.57812 46.3125 2.57812V12.5781ZM46.3125 17.9922V27.9922C51.8353 27.9922 56.3125 23.515 56.3125 17.9922H46.3125ZM24.957 17.9922V7.99219C19.4342 7.99219 14.957 12.4693 14.957 17.9922H24.957ZM24.957 27.2734H14.957C14.957 32.7963 19.4342 37.2734 24.957 37.2734V27.2734ZM46.5703 27.2734H36.5703V32.6875H46.5703H56.5703V27.2734H46.5703ZM46.5703 32.6875V22.6875H35.5273V32.6875V42.6875H46.5703V32.6875ZM35.5273 32.6875H25.5273V39.9922H35.5273H45.5273V32.6875H35.5273ZM35.5273 39.9922V49.9922H50.3086V39.9922V29.9922H35.5273V39.9922ZM50.3086 39.9922H40.3086V45.5781H50.3086H60.3086V39.9922H50.3086ZM50.3086 45.5781V35.5781H14V45.5781V55.5781H50.3086V45.5781ZM14 45.5781H24V39.9922H14H4V45.5781H14ZM14 39.9922V49.9922H28.6953V39.9922V29.9922H14L14 39.9922ZM28.6953 39.9922H38.6953V32.6875H28.6953H18.6953V39.9922H28.6953ZM28.6953 32.6875V22.6875H18.0391V32.6875V42.6875H28.6953V32.6875ZM18.0391 32.6875H28.0391V12.5781H18.0391H8.03906V32.6875H18.0391ZM18.0391 12.5781V22.5781H46.3125V12.5781V2.57812L18.0391 2.57812V12.5781ZM46.3125 12.5781H36.3125V17.9922H46.3125H56.3125V12.5781H46.3125ZM46.3125 17.9922V7.99219L24.957 7.99219V17.9922V27.9922H46.3125V17.9922ZM24.957 17.9922H14.957V27.2734H24.957H34.957V17.9922H24.957ZM24.957 27.2734V37.2734H46.5703V27.2734V17.2734H24.957V27.2734ZM85.8438 10.0859H95.8438C95.8438 4.56309 91.3666 0.0859375 85.8438 0.0859375V10.0859ZM85.8438 38.9609V48.9609C91.3666 48.9609 95.8438 44.4838 95.8438 38.9609H85.8438ZM78.9688 38.9609H68.9688C68.9688 44.4838 73.4459 48.9609 78.9688 48.9609V38.9609ZM78.9688 25.4258H88.9688C88.9688 19.9029 84.4916 15.4258 78.9688 15.4258V25.4258ZM73.5977 25.4258H63.5977C63.5977 30.9486 68.0748 35.4258 73.5977 35.4258V25.4258ZM73.5977 19.9258V9.92578C68.0748 9.92578 63.5977 14.4029 63.5977 19.9258H73.5977ZM78.9688 19.9258V29.9258C84.4916 29.9258 88.9688 25.4486 88.9688 19.9258H78.9688ZM78.9688 10.0859V0.0859375C73.4459 0.0859375 68.9688 4.56309 68.9688 10.0859H78.9688ZM86.7031 43.6875H96.7031C96.7031 38.1647 92.226 33.6875 86.7031 33.6875V43.6875ZM86.7031 49.1875V59.1875C92.226 59.1875 96.7031 54.7103 96.7031 49.1875H86.7031ZM58.9453 49.1875H48.9453C48.9453 54.7103 53.4225 59.1875 58.9453 59.1875V49.1875ZM58.9453 36.5117V26.5117C53.4225 26.5117 48.9453 30.9889 48.9453 36.5117H58.9453ZM65.8203 36.5117H75.8203C75.8203 30.9889 71.3432 26.5117 65.8203 26.5117V36.5117ZM65.8203 43.6875H55.8203C55.8203 49.2103 60.2975 53.6875 65.8203 53.6875V43.6875ZM75.0586 12.4062H85.0586C85.0586 6.8834 80.5814 2.40625 75.0586 2.40625V12.4062ZM75.0586 17.8633V27.8633C80.5814 27.8633 85.0586 23.3861 85.0586 17.8633L75.0586 17.8633ZM67.7969 17.8633V7.86328C65.1183 7.86328 62.5517 8.93786 60.6722 10.8463C58.7926 12.7546 57.7572 15.3373 57.798 18.0155L67.7969 17.8633ZM76.4766 28.8203L85.0276 34.0048C86.6217 31.3756 86.9177 28.1592 85.8301 25.2832C84.7426 22.4073 82.3924 20.1915 79.4575 19.2749L76.4766 28.8203ZM73.168 34.2773L70.1934 43.8247C74.5814 45.1918 79.3362 43.3919 81.719 39.4619L73.168 34.2773ZM64.3594 27.1016L73.2325 22.4899C71.4908 19.1387 68.0097 17.0547 64.2332 17.1024C60.4568 17.15 57.0293 19.3212 55.3727 22.7152L64.3594 27.1016ZM55.0781 34.9648L46.6388 40.3294C49.053 44.1273 53.7068 45.8448 58.0095 44.5256L55.0781 34.9648ZM51.5547 29.4219L48.72 19.8321C45.7099 20.7218 43.2923 22.9733 42.1907 25.9124C41.0892 28.8516 41.4316 32.1375 43.1154 34.7864L51.5547 29.4219ZM60.75 17.8633L70.7447 18.1902C70.8332 15.4828 69.8196 12.8553 67.9357 10.9088C66.0518 8.96224 63.4589 7.86328 60.75 7.86328V17.8633ZM53.4453 17.8633H43.4453C43.4453 23.3861 47.9225 27.8633 53.4453 27.8633V17.8633ZM53.4453 12.4062V2.40625C47.9225 2.40625 43.4453 6.8834 43.4453 12.4062L53.4453 12.4062ZM85.8438 10.0859H75.8438V38.9609H85.8438H95.8438V10.0859H85.8438ZM85.8438 38.9609V28.9609H78.9688V38.9609V48.9609H85.8438V38.9609ZM78.9688 38.9609H88.9688V25.4258H78.9688L68.9688 25.4258V38.9609H78.9688ZM78.9688 25.4258V15.4258L73.5977 15.4258V25.4258V35.4258H78.9688V25.4258ZM73.5977 25.4258L83.5977 25.4258V19.9258L73.5977 19.9258H63.5977V25.4258H73.5977ZM73.5977 19.9258V29.9258H78.9688V19.9258V9.92578H73.5977V19.9258ZM78.9688 19.9258H88.9688V10.0859H78.9688H68.9688V19.9258L78.9688 19.9258ZM78.9688 10.0859V20.0859H85.8438V10.0859V0.0859375L78.9688 0.0859375V10.0859ZM86.7031 43.6875H76.7031V49.1875H86.7031H96.7031V43.6875H86.7031ZM86.7031 49.1875V39.1875H58.9453V49.1875V59.1875H86.7031V49.1875ZM58.9453 49.1875H68.9453V36.5117H58.9453H48.9453V49.1875H58.9453ZM58.9453 36.5117V46.5117H65.8203V36.5117V26.5117H58.9453V36.5117ZM65.8203 36.5117H55.8203V43.6875H65.8203H75.8203V36.5117H65.8203ZM65.8203 43.6875V53.6875H86.7031V43.6875V33.6875H65.8203V43.6875ZM75.0586 12.4062H65.0586V17.8633H75.0586L85.0586 17.8633V12.4062H75.0586ZM75.0586 17.8633V7.86328H67.7969V17.8633V27.8633H75.0586V17.8633ZM67.7969 17.8633L57.798 18.0155C57.8546 21.7306 58.8321 25.9846 61.5103 29.8584C64.2563 33.8304 68.3499 36.7587 73.4956 38.3657L76.4766 28.8203L79.4575 19.2749C78.7521 19.0546 78.3738 18.8281 78.1994 18.704C78.0316 18.5846 77.9767 18.507 77.9614 18.4848C77.9326 18.4431 77.8036 18.2284 77.7957 17.711L67.7969 17.8633ZM76.4766 28.8203L67.9255 23.6358L64.6169 29.0928L73.168 34.2773L81.719 39.4619L85.0276 34.0048L76.4766 28.8203ZM73.168 34.2773L76.1425 24.73C75.1784 24.4296 74.5918 24.0616 74.2182 23.7486C73.8429 23.4343 73.5165 23.0364 73.2325 22.4899L64.3594 27.1016L55.4863 31.7133C58.4096 37.338 63.3653 41.6974 70.1934 43.8247L73.168 34.2773ZM64.3594 27.1016L55.3727 22.7152C54.7485 23.9942 53.8896 24.8698 52.1468 25.4041L55.0781 34.9648L58.0095 44.5256C65.3761 42.2669 70.4468 37.4277 73.346 31.4879L64.3594 27.1016ZM55.0781 34.9648L63.5174 29.6003L59.994 24.0574L51.5547 29.4219L43.1154 34.7864L46.6388 40.3294L55.0781 34.9648ZM51.5547 29.4219L54.3894 39.0117C59.7721 37.4206 64.0323 34.42 66.8834 30.2965C69.648 26.2978 70.6225 21.924 70.7447 18.1902L60.75 17.8633L50.7553 17.5364C50.7271 18.4002 50.5199 18.7959 50.4326 18.9223C50.3913 18.982 50.3118 19.0824 50.1194 19.2171C49.9188 19.3574 49.4979 19.6021 48.72 19.8321L51.5547 29.4219ZM60.75 17.8633V7.86328H53.4453V17.8633V27.8633H60.75V17.8633ZM53.4453 17.8633H63.4453V12.4062H53.4453L43.4453 12.4062V17.8633H53.4453ZM53.4453 12.4062V22.4062H75.0586V12.4062V2.40625L53.4453 2.40625V12.4062ZM113.086 11.9336H123.086C123.086 6.41075 118.609 1.93359 113.086 1.93359V11.9336ZM113.086 17.3477V27.3477C118.609 27.3477 123.086 22.8705 123.086 17.3477H113.086ZM105.867 17.3477V7.34766C103.067 7.34766 100.395 8.52187 98.5009 10.5847C96.607 12.6475 95.6649 15.41 95.9036 18.2002L105.867 17.3477ZM114.504 27.4453L122.98 32.7515C124.613 30.1428 124.954 26.9274 123.904 24.0343C122.854 21.1411 120.531 18.8926 117.605 17.9382L114.504 27.4453ZM111.195 32.7305L108.353 42.318C112.659 43.5947 117.288 41.8437 119.671 38.0367L111.195 32.7305ZM102.387 25.6836L111.235 21.0237C109.483 17.6983 106.015 15.6357 102.257 15.6844C98.4989 15.7332 95.0855 17.885 93.4209 21.2547L102.387 25.6836ZM93.1055 33.4609L84.7241 38.9155C87.1397 42.6273 91.7089 44.3082 95.954 43.0466L93.1055 33.4609ZM89.582 28.0469L86.7204 18.4651C83.6995 19.3673 81.281 21.6412 80.1946 24.6008C79.1081 27.5604 79.481 30.859 81.2006 33.5014L89.582 28.0469ZM98.7344 17.3477L108.688 18.3077C108.959 15.5015 108.032 12.7115 106.137 10.6246C104.242 8.53762 101.554 7.34766 98.7344 7.34766V17.3477ZM91.4727 17.3477H81.4727C81.4727 22.8705 85.9498 27.3477 91.4727 27.3477V17.3477ZM91.4727 11.9336V1.93359C85.9498 1.93359 81.4727 6.41075 81.4727 11.9336H91.4727ZM123.871 35.1367H133.871C133.871 29.6139 129.394 25.1367 123.871 25.1367V35.1367ZM123.871 49.7461V59.7461C129.394 59.7461 133.871 55.2689 133.871 49.7461H123.871ZM116.996 49.7461H106.996C106.996 55.2689 111.473 59.7461 116.996 59.7461V49.7461ZM116.996 40.5938H126.996C126.996 35.0709 122.519 30.5938 116.996 30.5938V40.5938ZM96.2422 40.5938H86.2422C86.2422 46.1166 90.7193 50.5938 96.2422 50.5938V40.5938ZM96.2422 35.1367V25.1367C90.7193 25.1367 86.2422 29.6139 86.2422 35.1367H96.2422ZM123.871 10H133.871C133.871 4.47715 129.394 0 123.871 0V10ZM123.871 33.6328V43.6328C129.394 43.6328 133.871 39.1557 133.871 33.6328H123.871ZM116.996 33.6328H106.996C106.996 39.1557 111.473 43.6328 116.996 43.6328V33.6328ZM116.996 24.6094H126.996C126.996 19.0865 122.519 14.6094 116.996 14.6094V24.6094ZM112.055 24.6094H102.055C102.055 30.1322 106.532 34.6094 112.055 34.6094V24.6094ZM112.055 19.0234V9.02344C106.532 9.02344 102.055 13.5006 102.055 19.0234H112.055ZM116.996 19.0234V29.0234C122.519 29.0234 126.996 24.5463 126.996 19.0234H116.996ZM116.996 10V0C111.473 0 106.996 4.47715 106.996 10L116.996 10ZM113.086 11.9336L103.086 11.9336V17.3477H113.086H123.086V11.9336H113.086ZM113.086 17.3477V7.34766L105.867 7.34766V17.3477V27.3477H113.086V17.3477ZM105.867 17.3477L95.9036 18.2002C96.2124 21.8092 97.4317 25.7441 100.139 29.2653C102.879 32.8285 106.728 35.4276 111.403 36.9524L114.504 27.4453L117.605 17.9382C116.916 17.7137 116.515 17.4865 116.303 17.3422C116.097 17.2021 116.018 17.1052 115.994 17.0746C115.968 17.0401 115.866 16.9037 115.831 16.4952L105.867 17.3477ZM114.504 27.4453L106.028 22.1391L102.719 27.4243L111.195 32.7305L119.671 38.0367L122.98 32.7515L114.504 27.4453ZM111.195 32.7305L114.038 23.143C113.105 22.8663 112.542 22.5185 112.187 22.2254C111.828 21.9295 111.512 21.55 111.235 21.0237L102.387 25.6836L93.5388 30.3435C96.4751 35.9188 101.459 40.274 108.353 42.318L111.195 32.7305ZM102.387 25.6836L93.4209 21.2547C92.7957 22.5204 91.9426 23.3743 90.2569 23.8752L93.1055 33.4609L95.954 43.0466C103.378 40.8405 108.454 35.9796 111.352 30.1125L102.387 25.6836ZM93.1055 33.4609L101.487 28.0064L97.9634 22.5923L89.582 28.0469L81.2006 33.5014L84.7241 38.9155L93.1055 33.4609ZM89.582 28.0469L92.4437 37.6287C97.5144 36.1143 101.566 33.3369 104.392 29.5854C107.152 25.9231 108.345 21.8708 108.688 18.3077L98.7344 17.3477L88.7806 16.3876C88.716 17.057 88.5335 17.3982 88.4195 17.5494C88.362 17.6258 88.2602 17.7403 88.0518 17.8813C87.838 18.026 87.4303 18.253 86.7204 18.4651L89.582 28.0469ZM98.7344 17.3477V7.34766H91.4727V17.3477V27.3477H98.7344V17.3477ZM91.4727 17.3477H101.473V11.9336H91.4727H81.4727V17.3477H91.4727ZM91.4727 11.9336V21.9336H113.086V11.9336V1.93359L91.4727 1.93359V11.9336ZM123.871 35.1367H113.871V49.7461H123.871H133.871V35.1367H123.871ZM123.871 49.7461V39.7461H116.996V49.7461V59.7461H123.871V49.7461ZM116.996 49.7461H126.996V40.5938H116.996H106.996V49.7461H116.996ZM116.996 40.5938V30.5938H96.2422V40.5938V50.5938H116.996V40.5938ZM96.2422 40.5938H106.242V35.1367H96.2422H86.2422V40.5938H96.2422ZM96.2422 35.1367V45.1367H123.871V35.1367V25.1367H96.2422V35.1367ZM123.871 10H113.871V33.6328H123.871H133.871V10H123.871ZM123.871 33.6328V23.6328H116.996V33.6328V43.6328H123.871V33.6328ZM116.996 33.6328H126.996V24.6094H116.996H106.996V33.6328H116.996ZM116.996 24.6094V14.6094H112.055V24.6094V34.6094H116.996V24.6094ZM112.055 24.6094H122.055V19.0234H112.055H102.055V24.6094H112.055ZM112.055 19.0234V29.0234H116.996V19.0234V9.02344H112.055V19.0234ZM116.996 19.0234H126.996V10H116.996L106.996 10V19.0234H116.996ZM116.996 10V20H123.871V10V0L116.996 0V10ZM161.598 10.0859H171.598C171.598 4.56309 167.12 0.0859375 161.598 0.0859375V10.0859ZM161.598 38.3164V48.3164C167.12 48.3164 171.598 43.8393 171.598 38.3164H161.598ZM154.68 38.3164H144.68C144.68 43.8393 149.157 48.3164 154.68 48.3164V38.3164ZM154.68 10.0859V0.0859375C149.157 0.0859375 144.68 4.56309 144.68 10.0859H154.68ZM162.543 43.6875H172.543C172.543 38.1647 168.066 33.6875 162.543 33.6875V43.6875ZM162.543 49.1875V59.1875C168.066 59.1875 172.543 54.7103 172.543 49.1875H162.543ZM134.398 49.1875H124.398C124.398 54.7103 128.876 59.1875 134.398 59.1875V49.1875ZM134.398 35.4805V25.4805C128.876 25.4805 124.398 29.9576 124.398 35.4805H134.398ZM141.359 35.4805H151.359C151.359 29.9576 146.882 25.4805 141.359 25.4805V35.4805ZM141.359 43.6875L131.359 43.6875C131.359 49.2103 135.837 53.6875 141.359 53.6875V43.6875ZM128.512 22.6328L138.511 22.7042C138.512 22.6561 138.512 22.608 138.511 22.5598L128.512 22.6328ZM161.598 10.0859H151.598V38.3164H161.598H171.598V10.0859H161.598ZM161.598 38.3164V28.3164H154.68V38.3164V48.3164H161.598V38.3164ZM154.68 38.3164H164.68V10.0859H154.68H144.68V38.3164H154.68ZM154.68 10.0859V20.0859H161.598V10.0859V0.0859375H154.68V10.0859ZM162.543 43.6875H152.543V49.1875H162.543H172.543V43.6875H162.543ZM162.543 49.1875V39.1875L134.398 39.1875V49.1875V59.1875L162.543 59.1875V49.1875ZM134.398 49.1875L144.398 49.1875V35.4805L134.398 35.4805H124.398V49.1875H134.398ZM134.398 35.4805V45.4805L141.359 45.4805V35.4805V25.4805H134.398V35.4805ZM141.359 35.4805L131.359 35.4805V43.6875L141.359 43.6875H151.359V35.4805H141.359ZM141.359 43.6875V53.6875H162.543V43.6875V33.6875H141.359V43.6875ZM139.641 12.4492V22.4492C140.427 22.4492 140.778 22.7145 140.831 22.7625C140.857 22.7856 140.83 22.7678 140.799 22.6996C140.764 22.6226 140.77 22.582 140.77 22.6328H150.77H160.77C160.77 10.2688 150.346 2.44922 139.641 2.44922V12.4492ZM150.77 22.6328H140.77C140.77 22.7467 140.751 22.7399 140.781 22.6728C140.808 22.6131 140.836 22.5906 140.82 22.6043C140.79 22.6322 140.452 22.9023 139.641 22.9023V32.9023V42.9023C150.375 42.9023 160.77 35.0994 160.77 22.6328H150.77ZM139.641 32.9023V22.9023C138.823 22.9023 138.471 22.6277 138.435 22.5954C138.42 22.5816 138.454 22.6101 138.488 22.6851C138.525 22.7686 138.511 22.7961 138.511 22.7042L128.512 22.6328L118.512 22.5614C118.422 35.147 128.979 42.9023 139.641 42.9023V32.9023ZM128.512 22.6328L138.511 22.5598C138.511 22.5318 138.513 22.5937 138.47 22.6872C138.432 22.7708 138.398 22.7945 138.424 22.7714C138.482 22.7191 138.848 22.4492 139.641 22.4492V12.4492V2.44922C129.01 2.44922 118.421 10.2208 118.512 22.7058L128.512 22.6328ZM139.641 18.4219V8.42187C136.591 8.42187 132.891 9.281 129.824 12.0143C126.587 14.899 125.215 18.8404 125.215 22.6328H135.215H145.215C145.215 23.6323 144.788 25.4682 143.13 26.9457C141.642 28.2717 140.155 28.4219 139.641 28.4219V18.4219ZM135.215 22.6328H125.215C125.215 26.3614 126.503 30.361 129.796 33.3174C132.915 36.1181 136.663 36.9297 139.641 36.9297V26.9297V16.9297C140.083 16.9297 141.619 17.0538 143.158 18.4365C144.872 19.9749 145.215 21.8261 145.215 22.6328H135.215ZM139.641 26.9297V36.9297C142.672 36.9297 146.388 36.0539 149.449 33.2485C152.655 30.3089 153.938 26.3568 153.938 22.6328H143.938H133.938C133.938 21.8307 134.274 20.027 135.934 18.5054C137.448 17.118 139.015 16.9297 139.641 16.9297V26.9297ZM143.938 22.6328H153.938C153.938 18.8465 152.573 14.9508 149.421 12.0829C146.413 9.347 142.745 8.42187 139.641 8.42187V18.4219V28.4219C138.943 28.4219 137.423 28.2057 135.962 26.8771C134.357 25.4164 133.938 23.6261 133.938 22.6328H143.938Z" fill="white" mask="url(#path-1-outside-1_6524_1781)"/>
</g>
<defs>
<filter id="filter0_d_6524_1781" x="0" y="0" width="176.543" height="67.7461" filterUnits="userSpaceOnUse" color-interpolation-filters="sRGB">
<feFlood flood-opacity="0" result="BackgroundImageFix"/>
<feColorMatrix in="SourceAlpha" type="matrix" values="0 0 0 0 0 0 0 0 0 0 0 0 0 0 0 0 0 0 127 0" result="hardAlpha"/>
<feOffset dy="4"/>
<feGaussianBlur stdDeviation="2"/>
<feComposite in2="hardAlpha" operator="out"/>
<feColorMatrix type="matrix" values="0 0 0 0 0 0 0 0 0 0 0 0 0 0 0 0 0 0 0.07 0"/>
<feBlend mode="normal" in2="BackgroundImageFix" result="effect1_dropShadow_6524_1781"/>
<feBlend mode="normal" in="SourceGraphic" in2="effect1_dropShadow_6524_1781" result="shape"/>
</filter>
</defs>
</svg>
