<svg width="141" height="68" viewBox="0 0 141 68" fill="none" xmlns="http://www.w3.org/2000/svg">
<g filter="url(#filter0_d_6524_1734)">
<mask id="path-1-outside-1_6524_1734" maskUnits="userSpaceOnUse" x="3.53906" y="-0.421875" width="133" height="61" fill="black">
<rect fill="white" x="3.53906" y="-0.421875" width="133" height="61"/>
<path d="M46.0547 10V24.4805H50.1797V30.1953H46.0547V49.832H39.1367V10L46.0547 10ZM24.4414 13.9531V19.4531H20.832V34.8359C22.0566 34.75 23.2383 34.6211 24.5273 34.4062L25.043 39.9922C22.0781 40.4648 19.8008 40.5078 16.1484 40.5078H14L14 13.9531H24.4414ZM37.2031 13.9531V19.4531H33.1211V34.8359C34.9258 34.793 36.0859 34.6426 37.332 34.3203L37.7617 39.9062C35.5703 40.5078 33.7227 40.5078 28.5664 40.5078H26.375V13.9531H37.2031ZM87.7344 28.1328V33.5898H51.4688V28.1328L87.7344 28.1328ZM84.5117 20.8281V26.1992L70.7188 26.1992V11.9766H84.3828V17.3477H77.6367V20.8281H84.5117ZM68.9141 11.9766V17.3477H61.6523V20.7852C64.2734 20.6992 66.4219 20.5273 68.9141 20.0547L69.3867 25.4258C65.6055 26.1562 62.4258 26.1992 57.3984 26.1992H54.7773V11.9766H68.9141ZM73.168 35.6953C73.125 39.2188 75.832 43.3438 85.6289 44.332L83.1797 49.6602C76.5195 48.8652 72.1152 46.5234 69.6875 43.3008C67.2383 46.5234 62.877 48.8652 56.1523 49.6602L53.7461 44.332C63.543 43.3438 66.1211 39.2188 66.1641 35.6953V35.2656H73.168V35.6953ZM121.293 10.1719V21.7734H126.234V27.3594H121.293V39.7773H114.375V10.1719H121.293ZM112.957 13.9102V19.2383H89.4531V13.9102H97.7461V10.0859H104.664V13.9102H112.957ZM101.184 20.1406C106.984 20.1406 111.109 23.3633 111.109 28.0039C111.109 32.6445 106.984 35.7812 101.184 35.7383C95.3398 35.7812 91.1719 32.6445 91.1719 28.0039C91.1719 23.3633 95.3398 20.1406 101.184 20.1406ZM101.184 25.3398C99.207 25.3828 97.918 26.1992 97.918 28.0039C97.918 29.8086 99.207 30.582 101.184 30.582C103.203 30.582 104.578 29.8086 104.578 28.0039C104.578 26.1992 103.203 25.3828 101.184 25.3398ZM122.453 43.7734V49.2734H94.9531V37.543H101.871V43.7734H122.453Z"/>
</mask>
<path d="M46.0547 10V24.4805H50.1797V30.1953H46.0547V49.832H39.1367V10L46.0547 10ZM24.4414 13.9531V19.4531H20.832V34.8359C22.0566 34.75 23.2383 34.6211 24.5273 34.4062L25.043 39.9922C22.0781 40.4648 19.8008 40.5078 16.1484 40.5078H14L14 13.9531H24.4414ZM37.2031 13.9531V19.4531H33.1211V34.8359C34.9258 34.793 36.0859 34.6426 37.332 34.3203L37.7617 39.9062C35.5703 40.5078 33.7227 40.5078 28.5664 40.5078H26.375V13.9531H37.2031ZM87.7344 28.1328V33.5898H51.4688V28.1328L87.7344 28.1328ZM84.5117 20.8281V26.1992L70.7188 26.1992V11.9766H84.3828V17.3477H77.6367V20.8281H84.5117ZM68.9141 11.9766V17.3477H61.6523V20.7852C64.2734 20.6992 66.4219 20.5273 68.9141 20.0547L69.3867 25.4258C65.6055 26.1562 62.4258 26.1992 57.3984 26.1992H54.7773V11.9766H68.9141ZM73.168 35.6953C73.125 39.2188 75.832 43.3438 85.6289 44.332L83.1797 49.6602C76.5195 48.8652 72.1152 46.5234 69.6875 43.3008C67.2383 46.5234 62.877 48.8652 56.1523 49.6602L53.7461 44.332C63.543 43.3438 66.1211 39.2188 66.1641 35.6953V35.2656H73.168V35.6953ZM121.293 10.1719V21.7734H126.234V27.3594H121.293V39.7773H114.375V10.1719H121.293ZM112.957 13.9102V19.2383H89.4531V13.9102H97.7461V10.0859H104.664V13.9102H112.957ZM101.184 20.1406C106.984 20.1406 111.109 23.3633 111.109 28.0039C111.109 32.6445 106.984 35.7812 101.184 35.7383C95.3398 35.7812 91.1719 32.6445 91.1719 28.0039C91.1719 23.3633 95.3398 20.1406 101.184 20.1406ZM101.184 25.3398C99.207 25.3828 97.918 26.1992 97.918 28.0039C97.918 29.8086 99.207 30.582 101.184 30.582C103.203 30.582 104.578 29.8086 104.578 28.0039C104.578 26.1992 103.203 25.3828 101.184 25.3398ZM122.453 43.7734V49.2734H94.9531V37.543H101.871V43.7734H122.453Z" fill="#11DCA9"/>
<path d="M46.0547 10H56.0547C56.0547 4.47715 51.5775 0 46.0547 0V10ZM46.0547 24.4805H36.0547C36.0547 30.0033 40.5318 34.4805 46.0547 34.4805V24.4805ZM50.1797 24.4805H60.1797C60.1797 18.9576 55.7025 14.4805 50.1797 14.4805V24.4805ZM50.1797 30.1953V40.1953C55.7025 40.1953 60.1797 35.7182 60.1797 30.1953H50.1797ZM46.0547 30.1953V20.1953C40.5318 20.1953 36.0547 24.6725 36.0547 30.1953H46.0547ZM46.0547 49.832V59.832C51.5775 59.832 56.0547 55.3549 56.0547 49.832H46.0547ZM39.1367 49.832H29.1367C29.1367 55.3549 33.6139 59.832 39.1367 59.832V49.832ZM39.1367 10V0C33.6139 0 29.1367 4.47715 29.1367 10H39.1367ZM24.4414 13.9531H34.4414C34.4414 8.43028 29.9643 3.95312 24.4414 3.95312V13.9531ZM24.4414 19.4531V29.4531C29.9643 29.4531 34.4414 24.976 34.4414 19.4531H24.4414ZM20.832 19.4531V9.45312C15.3092 9.45312 10.832 13.9303 10.832 19.4531H20.832ZM20.832 34.8359H10.832C10.832 37.6097 11.9841 40.2589 14.013 42.1503C16.0418 44.0418 18.7651 45.0056 21.5321 44.8114L20.832 34.8359ZM24.5273 34.4062L34.485 33.4871C34.2296 30.7198 32.8341 28.1836 30.6332 26.4868C28.4323 24.7899 25.6246 24.0854 22.8834 24.5423L24.5273 34.4062ZM25.043 39.9922L26.6173 49.8675C31.8183 49.0383 35.4847 44.3174 35.0006 39.073L25.043 39.9922ZM14 40.5078H4C4 46.0307 8.47715 50.5078 14 50.5078V40.5078ZM14 13.9531V3.95312C8.47715 3.95312 4 8.43028 4 13.9531H14ZM37.2031 13.9531H47.2031C47.2031 8.43028 42.726 3.95312 37.2031 3.95312V13.9531ZM37.2031 19.4531V29.4531C42.726 29.4531 47.2031 24.976 47.2031 19.4531H37.2031ZM33.1211 19.4531V9.45312C27.5982 9.45312 23.1211 13.9303 23.1211 19.4531H33.1211ZM33.1211 34.8359H23.1211C23.1211 37.5294 24.2076 40.1089 26.1347 41.9907C28.0618 43.8724 30.6665 44.8972 33.3591 44.8331L33.1211 34.8359ZM37.332 34.3203L47.3026 33.5533C47.0756 30.603 45.5537 27.9047 43.1462 26.1843C40.7388 24.4638 37.693 23.898 34.8282 24.6388L37.332 34.3203ZM37.7617 39.9062L40.4089 49.5495C45.0283 48.2814 48.0997 43.9155 47.7323 39.1393L37.7617 39.9062ZM26.375 40.5078H16.375C16.375 46.0307 20.8522 50.5078 26.375 50.5078V40.5078ZM26.375 13.9531V3.95312C20.8522 3.95312 16.375 8.43028 16.375 13.9531H26.375ZM46.0547 10L36.0547 10V24.4805H46.0547H56.0547V10H46.0547ZM46.0547 24.4805V34.4805H50.1797V24.4805V14.4805H46.0547V24.4805ZM50.1797 24.4805H40.1797V30.1953H50.1797H60.1797V24.4805H50.1797ZM50.1797 30.1953V20.1953H46.0547V30.1953V40.1953H50.1797V30.1953ZM46.0547 30.1953H36.0547V49.832H46.0547H56.0547V30.1953H46.0547ZM46.0547 49.832V39.832H39.1367V49.832V59.832H46.0547V49.832ZM39.1367 49.832H49.1367V10L39.1367 10H29.1367V49.832H39.1367ZM39.1367 10V20H46.0547V10V0H39.1367V10ZM24.4414 13.9531H14.4414V19.4531H24.4414H34.4414V13.9531H24.4414ZM24.4414 19.4531V9.45312H20.832V19.4531V29.4531H24.4414V19.4531ZM20.832 19.4531H10.832L10.832 34.8359H20.832H30.832V19.4531H20.832ZM20.832 34.8359L21.5321 44.8114C23.0237 44.7067 24.5244 44.5447 26.1713 44.2702L24.5273 34.4062L22.8834 24.5423C21.9522 24.6975 21.0896 24.7933 20.132 24.8605L20.832 34.8359ZM24.5273 34.4062L14.5697 35.3254L15.0853 40.9114L25.043 39.9922L35.0006 39.073L34.485 33.4871L24.5273 34.4062ZM25.043 39.9922L23.4686 30.1169C21.3381 30.4565 19.7339 30.5078 16.1484 30.5078V40.5078V50.5078C19.8676 50.5078 22.8182 50.4731 26.6173 49.8675L25.043 39.9922ZM16.1484 40.5078V30.5078H14L14 40.5078V50.5078H16.1484V40.5078ZM14 40.5078H24V13.9531H14H4L4 40.5078H14ZM14 13.9531V23.9531H24.4414V13.9531V3.95312H14V13.9531ZM37.2031 13.9531H27.2031V19.4531H37.2031H47.2031V13.9531H37.2031ZM37.2031 19.4531V9.45312H33.1211V19.4531V29.4531H37.2031V19.4531ZM33.1211 19.4531H23.1211V34.8359H33.1211H43.1211V19.4531H33.1211ZM33.1211 34.8359L33.3591 44.8331C35.7132 44.7771 37.6661 44.5629 39.8359 44.0018L37.332 34.3203L34.8282 24.6388C34.5058 24.7222 34.1383 24.8089 32.8831 24.8388L33.1211 34.8359ZM37.332 34.3203L27.3615 35.0873L27.7912 40.6732L37.7617 39.9062L47.7323 39.1393L47.3026 33.5533L37.332 34.3203ZM37.7617 39.9062L35.1145 30.263C34.8494 30.3358 34.567 30.4019 33.7319 30.4474C32.6891 30.5042 31.2635 30.5078 28.5664 30.5078V40.5078V50.5078C33.2325 50.5078 36.6286 50.5872 40.4089 49.5495L37.7617 39.9062ZM28.5664 40.5078V30.5078H26.375V40.5078V50.5078H28.5664V40.5078ZM26.375 40.5078H36.375V13.9531H26.375H16.375V40.5078H26.375ZM26.375 13.9531V23.9531H37.2031V13.9531V3.95312L26.375 3.95312V13.9531ZM87.7344 28.1328H97.7344C97.7344 22.61 93.2572 18.1328 87.7344 18.1328V28.1328ZM87.7344 33.5898V43.5898C93.2572 43.5898 97.7344 39.1127 97.7344 33.5898H87.7344ZM51.4688 33.5898H41.4688C41.4688 39.1127 45.9459 43.5898 51.4688 43.5898V33.5898ZM51.4688 28.1328V18.1328C45.9459 18.1328 41.4688 22.61 41.4688 28.1328H51.4688ZM84.5117 20.8281H94.5117C94.5117 15.3053 90.0346 10.8281 84.5117 10.8281V20.8281ZM84.5117 26.1992V36.1992C90.0346 36.1992 94.5117 31.7221 94.5117 26.1992H84.5117ZM70.7188 26.1992H60.7188C60.7188 31.7221 65.1959 36.1992 70.7188 36.1992V26.1992ZM70.7188 11.9766V1.97656C65.1959 1.97656 60.7188 6.45372 60.7188 11.9766H70.7188ZM84.3828 11.9766H94.3828C94.3828 6.45372 89.9057 1.97656 84.3828 1.97656V11.9766ZM84.3828 17.3477V27.3477C89.9057 27.3477 94.3828 22.8705 94.3828 17.3477H84.3828ZM77.6367 17.3477V7.34766C72.1139 7.34766 67.6367 11.8248 67.6367 17.3477L77.6367 17.3477ZM77.6367 20.8281L67.6367 20.8281C67.6367 26.351 72.1139 30.8281 77.6367 30.8281V20.8281ZM68.9141 11.9766H78.9141C78.9141 6.45372 74.4369 1.97656 68.9141 1.97656V11.9766ZM68.9141 17.3477V27.3477C74.4369 27.3477 78.9141 22.8705 78.9141 17.3477L68.9141 17.3477ZM61.6523 17.3477V7.34766C56.1295 7.34766 51.6523 11.8248 51.6523 17.3477H61.6523ZM61.6523 20.7852H51.6523C51.6523 23.4942 52.7514 26.0872 54.6981 27.9711C56.6448 29.855 59.2725 30.8686 61.98 30.7798L61.6523 20.7852ZM68.9141 20.0547L78.8756 19.1781C78.6279 16.3637 77.2013 13.7854 74.9484 12.0805C72.6955 10.3757 69.8265 9.70338 67.0507 10.2298L68.9141 20.0547ZM69.3867 25.4258L71.2835 35.2443C76.315 34.2723 79.7974 29.654 79.3482 24.5492L69.3867 25.4258ZM54.7773 26.1992H44.7773C44.7773 31.7221 49.2545 36.1992 54.7773 36.1992V26.1992ZM54.7773 11.9766V1.97656C49.2545 1.97656 44.7773 6.45372 44.7773 11.9766H54.7773ZM73.168 35.6953L83.1672 35.8173C83.1677 35.7766 83.168 35.736 83.168 35.6953H73.168ZM85.6289 44.332L94.7149 48.5087C96.0638 45.5743 95.9125 42.1691 94.3086 39.3659C92.7048 36.5627 89.8459 34.7067 86.6326 34.3825L85.6289 44.332ZM83.1797 49.6602L81.9946 59.5897C86.3039 60.104 90.4531 57.7801 92.2657 53.8368L83.1797 49.6602ZM69.6875 43.3008L77.6747 37.2838C75.7898 34.7817 72.8413 33.3074 69.7087 33.3008C66.5761 33.2942 63.6214 34.7559 61.7259 37.25L69.6875 43.3008ZM56.1523 49.6602L47.0386 53.776C48.8333 57.75 52.996 60.1029 57.3263 59.591L56.1523 49.6602ZM53.7461 44.332L52.7424 34.3825C49.5409 34.7055 46.6903 36.5493 45.083 39.3369C43.4757 42.1245 43.308 45.5153 44.6324 48.4479L53.7461 44.332ZM66.1641 35.6953L76.1633 35.8173C76.1638 35.7766 76.1641 35.736 76.1641 35.6953H66.1641ZM66.1641 35.2656V25.2656C60.6412 25.2656 56.1641 29.7428 56.1641 35.2656H66.1641ZM73.168 35.2656H83.168C83.168 29.7428 78.6908 25.2656 73.168 25.2656V35.2656ZM87.7344 28.1328H77.7344V33.5898H87.7344H97.7344V28.1328H87.7344ZM87.7344 33.5898V23.5898L51.4688 23.5898V33.5898V43.5898H87.7344V33.5898ZM51.4688 33.5898H61.4688V28.1328H51.4688H41.4688V33.5898H51.4688ZM51.4688 28.1328V38.1328H87.7344V28.1328V18.1328L51.4688 18.1328V28.1328ZM84.5117 20.8281L74.5117 20.8281V26.1992L84.5117 26.1992H94.5117V20.8281H84.5117ZM84.5117 26.1992V16.1992L70.7188 16.1992V26.1992V36.1992H84.5117V26.1992ZM70.7188 26.1992L80.7188 26.1992V11.9766H70.7188H60.7188V26.1992H70.7188ZM70.7188 11.9766V21.9766L84.3828 21.9766V11.9766V1.97656H70.7188V11.9766ZM84.3828 11.9766H74.3828V17.3477L84.3828 17.3477H94.3828V11.9766H84.3828ZM84.3828 17.3477V7.34766H77.6367V17.3477V27.3477H84.3828V17.3477ZM77.6367 17.3477L67.6367 17.3477V20.8281L77.6367 20.8281H87.6367V17.3477H77.6367ZM77.6367 20.8281V30.8281H84.5117V20.8281V10.8281H77.6367V20.8281ZM68.9141 11.9766H58.9141V17.3477H68.9141L78.9141 17.3477V11.9766H68.9141ZM68.9141 17.3477V7.34766H61.6523V17.3477V27.3477H68.9141V17.3477ZM61.6523 17.3477H51.6523V20.7852H61.6523H71.6523V17.3477H61.6523ZM61.6523 20.7852L61.98 30.7798C64.9046 30.6839 67.6057 30.4811 70.7774 29.8796L68.9141 20.0547L67.0507 10.2298C65.238 10.5736 63.6423 10.7145 61.3246 10.7905L61.6523 20.7852ZM68.9141 20.0547L58.9526 20.9313L59.4252 26.3024L69.3867 25.4258L79.3482 24.5492L78.8756 19.1781L68.9141 20.0547ZM69.3867 25.4258L67.49 15.6073C64.7621 16.1343 62.4681 16.1992 57.3984 16.1992V26.1992V36.1992C62.3834 36.1992 66.4488 36.1782 71.2835 35.2443L69.3867 25.4258ZM57.3984 26.1992V16.1992H54.7773V26.1992V36.1992H57.3984V26.1992ZM54.7773 26.1992H64.7773V11.9766H54.7773H44.7773V26.1992H54.7773ZM54.7773 11.9766V21.9766H68.9141V11.9766V1.97656L54.7773 1.97656V11.9766ZM73.168 35.6953L63.1687 35.5734C63.1125 40.1856 64.9761 45.0032 69.2705 48.6163C73.2654 51.9775 78.604 53.6741 84.6252 54.2815L85.6289 44.332L86.6326 34.3825C82.8569 34.0016 81.9435 33.1417 82.1465 33.3124C82.2932 33.4358 82.603 33.7613 82.8502 34.3151C83.0899 34.8519 83.1725 35.3823 83.1672 35.8173L73.168 35.6953ZM85.6289 44.332L76.5429 40.1554L74.0937 45.4835L83.1797 49.6602L92.2657 53.8368L94.7149 48.5087L85.6289 44.332ZM83.1797 49.6602L84.3648 39.7306C79.3304 39.1298 77.907 37.5921 77.6747 37.2838L69.6875 43.3008L61.7003 49.3178C66.3235 55.4548 73.7086 58.6007 81.9946 59.5897L83.1797 49.6602ZM69.6875 43.3008L61.7259 37.25C61.4576 37.6029 60.0427 39.1306 54.9784 39.7293L56.1523 49.6602L57.3263 59.591C65.7112 58.5998 73.0189 55.444 77.6491 49.3516L69.6875 43.3008ZM56.1523 49.6602L65.266 45.5443L62.8598 40.2162L53.7461 44.332L44.6324 48.4479L47.0386 53.776L56.1523 49.6602ZM53.7461 44.332L54.7498 54.2815C60.7782 53.6734 66.1084 51.9715 70.0937 48.58C74.3759 44.9358 76.1101 40.1838 76.1633 35.8173L66.1641 35.6953L56.1648 35.5734C56.1687 35.252 56.2346 34.8024 56.4523 34.3151C56.6801 33.8048 56.9714 33.4853 57.1319 33.3487C57.3682 33.1476 56.5109 34.0024 52.7424 34.3825L53.7461 44.332ZM66.1641 35.6953H76.1641V35.2656H66.1641H56.1641V35.6953H66.1641ZM66.1641 35.2656V45.2656H73.168V35.2656V25.2656H66.1641V35.2656ZM73.168 35.2656H63.168V35.6953H73.168H83.168V35.2656H73.168ZM121.293 10.1719H131.293C131.293 4.64903 126.816 0.171875 121.293 0.171875V10.1719ZM121.293 21.7734H111.293C111.293 27.2963 115.77 31.7734 121.293 31.7734V21.7734ZM126.234 21.7734H136.234C136.234 16.2506 131.757 11.7734 126.234 11.7734V21.7734ZM126.234 27.3594V37.3594C131.757 37.3594 136.234 32.8822 136.234 27.3594H126.234ZM121.293 27.3594V17.3594C115.77 17.3594 111.293 21.8365 111.293 27.3594H121.293ZM121.293 39.7773V49.7773C126.816 49.7773 131.293 45.3002 131.293 39.7773H121.293ZM114.375 39.7773H104.375C104.375 45.3002 108.852 49.7773 114.375 49.7773V39.7773ZM114.375 10.1719V0.171875C108.852 0.171875 104.375 4.64903 104.375 10.1719L114.375 10.1719ZM112.957 13.9102H122.957C122.957 8.38731 118.48 3.91016 112.957 3.91016V13.9102ZM112.957 19.2383V29.2383C118.48 29.2383 122.957 24.7611 122.957 19.2383H112.957ZM89.4531 19.2383H79.4531C79.4531 24.7611 83.9303 29.2383 89.4531 29.2383V19.2383ZM89.4531 13.9102V3.91016C83.9303 3.91016 79.4531 8.38731 79.4531 13.9102H89.4531ZM97.7461 13.9102V23.9102C103.269 23.9102 107.746 19.433 107.746 13.9102H97.7461ZM97.7461 10.0859V0.0859375C92.2232 0.0859375 87.7461 4.56309 87.7461 10.0859H97.7461ZM104.664 10.0859L114.664 10.0859C114.664 4.56309 110.187 0.0859375 104.664 0.0859375V10.0859ZM104.664 13.9102H94.6641C94.6641 19.433 99.1412 23.9102 104.664 23.9102V13.9102ZM101.184 35.7383L101.258 25.7386C101.208 25.7382 101.159 25.7382 101.11 25.7386L101.184 35.7383ZM101.184 25.3398L101.396 15.3421C101.253 15.3391 101.11 15.3391 100.966 15.3422L101.184 25.3398ZM122.453 43.7734H132.453C132.453 38.2506 127.976 33.7734 122.453 33.7734V43.7734ZM122.453 49.2734V59.2734C127.976 59.2734 132.453 54.7963 132.453 49.2734H122.453ZM94.9531 49.2734H84.9531C84.9531 54.7963 89.4303 59.2734 94.9531 59.2734V49.2734ZM94.9531 37.543V27.543C89.4303 27.543 84.9531 32.0201 84.9531 37.543H94.9531ZM101.871 37.543H111.871C111.871 32.0201 107.394 27.543 101.871 27.543V37.543ZM101.871 43.7734H91.8711C91.8711 49.2963 96.3482 53.7734 101.871 53.7734V43.7734ZM121.293 10.1719H111.293V21.7734H121.293H131.293V10.1719H121.293ZM121.293 21.7734V31.7734H126.234V21.7734V11.7734H121.293V21.7734ZM126.234 21.7734H116.234V27.3594H126.234H136.234V21.7734H126.234ZM126.234 27.3594V17.3594H121.293V27.3594V37.3594H126.234V27.3594ZM121.293 27.3594H111.293V39.7773H121.293H131.293V27.3594H121.293ZM121.293 39.7773V29.7773H114.375V39.7773V49.7773H121.293V39.7773ZM114.375 39.7773H124.375V10.1719H114.375L104.375 10.1719V39.7773H114.375ZM114.375 10.1719V20.1719H121.293V10.1719V0.171875L114.375 0.171875V10.1719ZM112.957 13.9102H102.957V19.2383H112.957H122.957V13.9102H112.957ZM112.957 19.2383V9.23828L89.4531 9.23828V19.2383V29.2383H112.957V19.2383ZM89.4531 19.2383H99.4531V13.9102H89.4531H79.4531V19.2383H89.4531ZM89.4531 13.9102V23.9102H97.7461V13.9102V3.91016L89.4531 3.91016V13.9102ZM97.7461 13.9102H107.746V10.0859H97.7461H87.7461V13.9102H97.7461ZM97.7461 10.0859V20.0859H104.664V10.0859V0.0859375L97.7461 0.0859375V10.0859ZM104.664 10.0859H94.6641V13.9102H104.664H114.664V10.0859L104.664 10.0859ZM104.664 13.9102V23.9102H112.957V13.9102V3.91016H104.664V13.9102ZM101.184 20.1406V30.1406C102.308 30.1406 102.474 30.4557 102.128 30.1827C101.938 30.0334 101.657 29.7446 101.43 29.2896C101.196 28.8228 101.109 28.3588 101.109 28.0039H111.109H121.109C121.109 22.4429 118.531 17.6496 114.516 14.4814C110.657 11.4369 105.86 10.1406 101.184 10.1406V20.1406ZM111.109 28.0039H101.109C101.109 27.648 101.197 27.1652 101.446 26.6712C101.69 26.1887 101.993 25.8801 102.202 25.7183C102.581 25.4253 102.425 25.7472 101.258 25.7386L101.184 35.7383L101.11 45.738C105.743 45.7723 110.55 44.5474 114.441 41.5366C118.512 38.3866 121.109 33.5832 121.109 28.0039H111.109ZM101.184 35.7383L101.11 25.7386C99.9049 25.7474 99.7123 25.4166 100.071 25.6914C100.271 25.8451 100.576 26.1492 100.824 26.6359C101.079 27.1357 101.172 27.6308 101.172 28.0039H91.1719H81.1719C81.1719 33.6242 83.8157 38.4306 87.902 41.5635C91.8053 44.556 96.6185 45.7721 101.257 45.738L101.184 35.7383ZM91.1719 28.0039H101.172C101.172 28.3759 101.08 28.8522 100.841 29.3248C100.609 29.7841 100.326 30.0687 100.146 30.2101C99.8193 30.4652 100.02 30.1406 101.184 30.1406V20.1406V10.1406C92.2486 10.1406 81.1719 15.6884 81.1719 28.0039H91.1719ZM101.184 25.3398L100.966 15.3422C98.8795 15.3876 95.6539 15.8372 92.7379 18.0655C89.3565 20.6494 87.918 24.4346 87.918 28.0039H97.918H107.918C107.918 28.7484 107.782 29.8191 107.241 30.9995C106.684 32.2143 105.845 33.2205 104.881 33.9569C103.104 35.3151 101.511 35.3351 101.401 35.3375L101.184 25.3398ZM97.918 28.0039H87.918C87.918 31.5779 89.3691 35.4385 92.8828 38.0241C95.8745 40.2256 99.1463 40.582 101.184 40.582V30.582V20.582C101.244 20.582 102.883 20.5518 104.736 21.9153C105.751 22.6616 106.634 23.6958 107.218 24.9515C107.783 26.1664 107.918 27.2627 107.918 28.0039H97.918ZM101.184 30.582V40.582C103.215 40.582 106.423 40.2352 109.388 38.1516C112.914 35.6735 114.578 31.8241 114.578 28.0039H104.578H94.5781C94.5781 27.1724 94.742 26.008 95.3581 24.7551C95.988 23.4742 96.9069 22.4778 97.8887 21.7878C99.6615 20.5421 101.172 20.582 101.184 20.582V30.582ZM104.578 28.0039H114.578C114.578 24.1941 112.932 20.4136 109.533 17.9333C106.638 15.8206 103.472 15.3863 101.396 15.3421L101.184 25.3398L100.971 35.3376C100.915 35.3364 99.4463 35.3317 97.7435 34.0891C96.8086 33.4069 95.9347 32.4351 95.3334 31.1946C94.7429 29.9766 94.5781 28.8383 94.5781 28.0039H104.578ZM122.453 43.7734H112.453V49.2734H122.453H132.453V43.7734H122.453ZM122.453 49.2734V39.2734H94.9531V49.2734V59.2734H122.453V49.2734ZM94.9531 49.2734H104.953V37.543H94.9531H84.9531V49.2734H94.9531ZM94.9531 37.543V47.543H101.871V37.543V27.543H94.9531V37.543ZM101.871 37.543H91.8711V43.7734H101.871H111.871V37.543H101.871ZM101.871 43.7734V53.7734H122.453V43.7734V33.7734H101.871V43.7734Z" fill="white" mask="url(#path-1-outside-1_6524_1734)"/>
</g>
<defs>
<filter id="filter0_d_6524_1734" x="0" y="0" width="140.234" height="67.832" filterUnits="userSpaceOnUse" color-interpolation-filters="sRGB">
<feFlood flood-opacity="0" result="BackgroundImageFix"/>
<feColorMatrix in="SourceAlpha" type="matrix" values="0 0 0 0 0 0 0 0 0 0 0 0 0 0 0 0 0 0 127 0" result="hardAlpha"/>
<feOffset dy="4"/>
<feGaussianBlur stdDeviation="2"/>
<feComposite in2="hardAlpha" operator="out"/>
<feColorMatrix type="matrix" values="0 0 0 0 0 0 0 0 0 0 0 0 0 0 0 0 0 0 0.07 0"/>
<feBlend mode="normal" in2="BackgroundImageFix" result="effect1_dropShadow_6524_1734"/>
<feBlend mode="normal" in="SourceGraphic" in2="effect1_dropShadow_6524_1734" result="shape"/>
</filter>
</defs>
</svg>
