<svg width="348" height="68" viewBox="0 0 348 68" fill="none" xmlns="http://www.w3.org/2000/svg">
<g filter="url(#filter0_d_6524_1835)">
<mask id="path-1-outside-1_6524_1835" maskUnits="userSpaceOnUse" x="3.07812" y="-0.507813" width="341" height="61" fill="black">
<rect fill="white" x="3.07812" y="-0.507813" width="341" height="61"/>
<path d="M45.582 10V49.875H38.707V10L45.582 10ZM33.1211 13.1367V29.207H21.1328V35.1367C26.8047 35.0723 31.4668 34.75 36.5156 33.8906L37.0742 39.4336C31.0586 40.5508 25.2578 40.7656 17.7383 40.7656H14L14 23.8359H26.0742V18.6367H14V13.1367H33.1211ZM71.6211 14.8555C71.5781 20.0977 75.0586 26.4141 85.3711 28.0898L82.4062 33.8047C75.123 32.4727 70.418 28.8633 67.9258 24.2227C65.3477 28.8203 60.6211 32.4297 53.4453 33.8047L50.5234 28.0898C60.6211 26.3711 64.1875 19.9688 64.1875 14.8555V12.1484H71.6211V14.8555ZM86.3164 39.6055V45.2344H50.0078V39.6055H86.3164ZM121.035 13.1797V17.6484C121.035 23.3633 121.035 28.9062 119.145 37.8867L112.27 37.2422C113 34.2773 113.473 31.6133 113.773 29.1641L91.5586 30.1953L90.7422 24.7383L114.203 24.0078C114.268 22.1387 114.289 20.377 114.289 18.6367H92.0312V13.1797H121.035ZM124.301 39.9492V45.4922H88.0352V39.9492H124.301ZM162.328 27.4023V32.4297L126.062 32.4297V27.4023H162.328ZM158.117 33.6328V43.6445L136.891 43.6445V44.9336L159.191 44.9336V49.4883L130.059 49.4883V39.3906L151.285 39.3906V38.2734L130.059 38.2734V33.6328L158.117 33.6328ZM158.117 10.4727V20.4844H137.277V21.7734H158.805V26.2852H130.445V16.2305H151.242V15.0273H130.402V10.4727H158.117ZM195.156 13.4375V40.6367H175.434V13.4375H195.156ZM182.309 18.7656V35.2227H188.453V18.7656H182.309ZM207.23 10V49.875H200.27V10H207.23ZM245.301 10V49.875H238.426V10H245.301ZM232.84 13.1367V29.207H220.852V35.1367C226.523 35.0723 231.186 34.75 236.234 33.8906L236.793 39.4336C230.777 40.5508 224.977 40.7656 217.457 40.7656H213.719V23.8359H225.793V18.6367H213.719V13.1367H232.84ZM295.617 39.9062V45.4492H259.309V39.9062H274.004V33.332H262.875V12.3633H269.793V17.9062H284.961V12.3633H291.836V33.332H280.836V39.9062H295.617ZM269.793 27.875H284.961V23.3203H269.793V27.875ZM329.691 20.0977V25.4258H301.59V11.418H308.465V20.0977H329.691ZM333.602 28.9492V34.2773H297.336V28.9492H333.602ZM329.949 43.4727V48.9727H301.117V37.0273H308.078V43.4727H329.949Z"/>
</mask>
<path d="M45.582 10V49.875H38.707V10L45.582 10ZM33.1211 13.1367V29.207H21.1328V35.1367C26.8047 35.0723 31.4668 34.75 36.5156 33.8906L37.0742 39.4336C31.0586 40.5508 25.2578 40.7656 17.7383 40.7656H14L14 23.8359H26.0742V18.6367H14V13.1367H33.1211ZM71.6211 14.8555C71.5781 20.0977 75.0586 26.4141 85.3711 28.0898L82.4062 33.8047C75.123 32.4727 70.418 28.8633 67.9258 24.2227C65.3477 28.8203 60.6211 32.4297 53.4453 33.8047L50.5234 28.0898C60.6211 26.3711 64.1875 19.9688 64.1875 14.8555V12.1484H71.6211V14.8555ZM86.3164 39.6055V45.2344H50.0078V39.6055H86.3164ZM121.035 13.1797V17.6484C121.035 23.3633 121.035 28.9062 119.145 37.8867L112.27 37.2422C113 34.2773 113.473 31.6133 113.773 29.1641L91.5586 30.1953L90.7422 24.7383L114.203 24.0078C114.268 22.1387 114.289 20.377 114.289 18.6367H92.0312V13.1797H121.035ZM124.301 39.9492V45.4922H88.0352V39.9492H124.301ZM162.328 27.4023V32.4297L126.062 32.4297V27.4023H162.328ZM158.117 33.6328V43.6445L136.891 43.6445V44.9336L159.191 44.9336V49.4883L130.059 49.4883V39.3906L151.285 39.3906V38.2734L130.059 38.2734V33.6328L158.117 33.6328ZM158.117 10.4727V20.4844H137.277V21.7734H158.805V26.2852H130.445V16.2305H151.242V15.0273H130.402V10.4727H158.117ZM195.156 13.4375V40.6367H175.434V13.4375H195.156ZM182.309 18.7656V35.2227H188.453V18.7656H182.309ZM207.23 10V49.875H200.27V10H207.23ZM245.301 10V49.875H238.426V10H245.301ZM232.84 13.1367V29.207H220.852V35.1367C226.523 35.0723 231.186 34.75 236.234 33.8906L236.793 39.4336C230.777 40.5508 224.977 40.7656 217.457 40.7656H213.719V23.8359H225.793V18.6367H213.719V13.1367H232.84ZM295.617 39.9062V45.4492H259.309V39.9062H274.004V33.332H262.875V12.3633H269.793V17.9062H284.961V12.3633H291.836V33.332H280.836V39.9062H295.617ZM269.793 27.875H284.961V23.3203H269.793V27.875ZM329.691 20.0977V25.4258H301.59V11.418H308.465V20.0977H329.691ZM333.602 28.9492V34.2773H297.336V28.9492H333.602ZM329.949 43.4727V48.9727H301.117V37.0273H308.078V43.4727H329.949Z" fill="#11DCA9"/>
<path d="M45.582 10H55.582C55.582 4.47715 51.1049 0 45.582 0V10ZM45.582 49.875V59.875C51.1049 59.875 55.582 55.3978 55.582 49.875H45.582ZM38.707 49.875H28.707C28.707 55.3978 33.1842 59.875 38.707 59.875V49.875ZM38.707 10V0C33.1842 0 28.707 4.47715 28.707 10H38.707ZM33.1211 13.1367H43.1211C43.1211 7.61387 38.6439 3.13672 33.1211 3.13672V13.1367ZM33.1211 29.207V39.207C38.6439 39.207 43.1211 34.7299 43.1211 29.207H33.1211ZM21.1328 29.207V19.207C15.61 19.207 11.1328 23.6842 11.1328 29.207H21.1328ZM21.1328 35.1367H11.1328C11.1328 37.8086 12.202 40.3693 14.102 42.2478C16.002 44.1264 18.5748 45.1664 21.2464 45.1361L21.1328 35.1367ZM36.5156 33.8906L46.4652 32.888C46.1874 30.1315 44.7785 27.6137 42.5745 25.9351C40.3705 24.2565 37.5688 23.5675 34.8376 24.0324L36.5156 33.8906ZM37.0742 39.4336L38.9001 49.2655C44.0134 48.3159 47.5453 43.6054 47.0238 38.4309L37.0742 39.4336ZM14 40.7656H4C4 46.2885 8.47715 50.7656 14 50.7656V40.7656ZM14 23.8359V13.8359C8.47715 13.8359 4 18.3131 4 23.8359H14ZM26.0742 23.8359V33.8359C31.5971 33.8359 36.0742 29.3588 36.0742 23.8359H26.0742ZM26.0742 18.6367H36.0742C36.0742 13.1139 31.5971 8.63672 26.0742 8.63672V18.6367ZM14 18.6367H4C4 24.1596 8.47715 28.6367 14 28.6367V18.6367ZM14 13.1367V3.13672C8.47715 3.13672 4 7.61387 4 13.1367H14ZM45.582 10L35.582 10V49.875H45.582H55.582V10H45.582ZM45.582 49.875V39.875H38.707V49.875V59.875H45.582V49.875ZM38.707 49.875H48.707V10L38.707 10H28.707V49.875H38.707ZM38.707 10V20H45.582V10V0H38.707V10ZM33.1211 13.1367H23.1211V29.207H33.1211H43.1211V13.1367H33.1211ZM33.1211 29.207V19.207H21.1328V29.207V39.207H33.1211V29.207ZM21.1328 29.207H11.1328V35.1367H21.1328H31.1328V29.207H21.1328ZM21.1328 35.1367L21.2464 45.1361C27.2715 45.0676 32.4828 44.7209 38.1936 43.7488L36.5156 33.8906L34.8376 24.0324C30.4508 24.7791 26.3378 25.0769 21.0192 25.1374L21.1328 35.1367ZM36.5156 33.8906L26.566 34.8933L27.1246 40.4363L37.0742 39.4336L47.0238 38.4309L46.4652 32.888L36.5156 33.8906ZM37.0742 39.4336L35.2483 29.6017C30.1685 30.5451 25.1186 30.7656 17.7383 30.7656V40.7656V50.7656C25.397 50.7656 31.9487 50.5565 38.9001 49.2655L37.0742 39.4336ZM17.7383 40.7656V30.7656H14L14 40.7656V50.7656H17.7383V40.7656ZM14 40.7656H24V23.8359H14H4V40.7656H14ZM14 23.8359V33.8359H26.0742V23.8359V13.8359H14V23.8359ZM26.0742 23.8359H36.0742V18.6367H26.0742H16.0742V23.8359H26.0742ZM26.0742 18.6367V8.63672H14V18.6367V28.6367H26.0742V18.6367ZM14 18.6367H24V13.1367H14H4V18.6367H14ZM14 13.1367V23.1367H33.1211V13.1367V3.13672L14 3.13672V13.1367ZM71.6211 14.8555L81.6208 14.9374C81.621 14.9101 81.6211 14.8828 81.6211 14.8555L71.6211 14.8555ZM85.3711 28.0898L94.2476 32.695C95.7244 29.8483 95.7464 26.4661 94.3068 23.6006C92.8671 20.735 90.1404 18.7337 86.9751 18.2193L85.3711 28.0898ZM82.4062 33.8047L80.6072 43.6415C84.9286 44.4319 89.2597 42.3093 91.2828 38.4098L82.4062 33.8047ZM67.9258 24.2227L76.7357 19.4914C75.0088 16.2757 71.6669 14.2563 68.0169 14.2231C64.3669 14.1898 60.9888 16.1479 59.2035 19.3317L67.9258 24.2227ZM53.4453 33.8047L44.5416 38.357C46.5656 42.3158 50.9604 44.4628 55.3272 43.626L53.4453 33.8047ZM50.5234 28.0898L48.8454 18.2316C45.7074 18.7658 43.0111 20.762 41.5843 23.6075C40.1574 26.4531 40.1706 29.8079 41.6197 32.6421L50.5234 28.0898ZM64.1875 12.1484V2.14844C58.6647 2.14844 54.1875 6.62559 54.1875 12.1484H64.1875ZM71.6211 12.1484H81.6211C81.6211 6.62559 77.1439 2.14844 71.6211 2.14844V12.1484ZM86.3164 39.6055H96.3164C96.3164 34.0826 91.8393 29.6055 86.3164 29.6055V39.6055ZM86.3164 45.2344V55.2344C91.8393 55.2344 96.3164 50.7572 96.3164 45.2344H86.3164ZM50.0078 45.2344H40.0078C40.0078 50.7572 44.485 55.2344 50.0078 55.2344V45.2344ZM50.0078 39.6055V29.6055C44.485 29.6055 40.0078 34.0826 40.0078 39.6055H50.0078ZM71.6211 14.8555L61.6214 14.7735C61.5817 19.6261 63.1818 24.9641 67.1106 29.4219C71.0746 33.9198 76.7838 36.8256 83.7671 37.9604L85.3711 28.0898L86.9751 18.2193C83.6459 17.6783 82.4586 16.5881 82.115 16.1982C81.7362 15.7684 81.6176 15.327 81.6208 14.9374L71.6211 14.8555ZM85.3711 28.0898L76.4946 23.4847L73.5297 29.1996L82.4062 33.8047L91.2828 38.4098L94.2476 32.695L85.3711 28.0898ZM82.4062 33.8047L84.2053 23.9679C79.5085 23.1088 77.6047 21.1094 76.7357 19.4914L67.9258 24.2227L59.1158 28.9539C63.2313 36.6172 70.7376 41.8365 80.6072 43.6415L82.4062 33.8047ZM67.9258 24.2227L59.2035 19.3317C58.2267 21.0737 56.1798 23.0988 51.5634 23.9834L53.4453 33.8047L55.3272 43.626C65.0624 41.7606 72.4687 36.5669 76.6481 29.1137L67.9258 24.2227ZM53.4453 33.8047L62.3491 29.2524L59.4272 23.5376L50.5234 28.0898L41.6197 32.6421L44.5416 38.357L53.4453 33.8047ZM50.5234 28.0898L52.2014 37.9481C59.1406 36.7669 64.759 33.7854 68.6587 29.3411C72.5025 24.9605 74.1875 19.7003 74.1875 14.8555H64.1875H54.1875C54.1875 15.1239 54.0893 15.6215 53.6255 16.1501C53.2176 16.615 52.0039 17.694 48.8454 18.2316L50.5234 28.0898ZM64.1875 14.8555H74.1875V12.1484H64.1875H54.1875V14.8555H64.1875ZM64.1875 12.1484V22.1484H71.6211V12.1484V2.14844H64.1875V12.1484ZM71.6211 12.1484H61.6211V14.8555H71.6211L81.6211 14.8555V12.1484H71.6211ZM86.3164 39.6055H76.3164V45.2344H86.3164H96.3164V39.6055H86.3164ZM86.3164 45.2344V35.2344H50.0078V45.2344V55.2344H86.3164V45.2344ZM50.0078 45.2344H60.0078V39.6055H50.0078H40.0078V45.2344H50.0078ZM50.0078 39.6055V49.6055H86.3164V39.6055V29.6055H50.0078V39.6055ZM121.035 13.1797H131.035C131.035 7.65684 126.558 3.17969 121.035 3.17969V13.1797ZM119.145 37.8867L118.211 47.8431C123.272 48.3175 127.883 44.9205 128.93 39.9468L119.145 37.8867ZM112.27 37.2422L102.56 34.85C101.864 37.6752 102.433 40.6635 104.118 43.0352C105.804 45.407 108.439 46.9269 111.336 47.1985L112.27 37.2422ZM113.773 29.1641L123.699 30.383C124.058 27.4594 123.11 24.5263 121.107 22.366C119.105 20.2058 116.252 19.0382 113.31 19.1748L113.773 29.1641ZM91.5586 30.1953L81.6687 31.6749C82.4274 36.7466 86.8997 40.4224 92.0223 40.1846L91.5586 30.1953ZM90.7422 24.7383L90.431 14.7431C87.5762 14.832 84.8957 16.1373 83.0654 18.33C81.2351 20.5226 80.4297 23.3932 80.8523 26.2179L90.7422 24.7383ZM114.203 24.0078L114.514 34.003C119.78 33.839 124.016 29.6177 124.197 24.3524L114.203 24.0078ZM114.289 18.6367H124.289C124.289 13.1139 119.812 8.63672 114.289 8.63672V18.6367ZM92.0312 18.6367H82.0312C82.0312 24.1596 86.5084 28.6367 92.0312 28.6367V18.6367ZM92.0312 13.1797V3.17969C86.5084 3.17969 82.0312 7.65684 82.0312 13.1797H92.0312ZM124.301 39.9492H134.301C134.301 34.4264 129.824 29.9492 124.301 29.9492V39.9492ZM124.301 45.4922V55.4922C129.824 55.4922 134.301 51.015 134.301 45.4922H124.301ZM88.0352 45.4922H78.0352C78.0352 51.015 82.5123 55.4922 88.0352 55.4922V45.4922ZM88.0352 39.9492V29.9492C82.5123 29.9492 78.0352 34.4264 78.0352 39.9492H88.0352ZM121.035 13.1797H111.035V17.6484H121.035H131.035V13.1797H121.035ZM121.035 17.6484H111.035C111.035 23.1405 111.035 27.8654 109.359 35.8266L119.145 37.8867L128.93 39.9468C131.035 29.9471 131.035 23.5861 131.035 17.6484H121.035ZM119.145 37.8867L120.078 27.9304L113.203 27.2858L112.27 37.2422L111.336 47.1985L118.211 47.8431L119.145 37.8867ZM112.27 37.2422L121.979 39.6344C122.805 36.2842 123.349 33.2284 123.699 30.383L113.773 29.1641L103.848 27.9452C103.596 29.9982 103.195 32.2705 102.56 34.85L112.27 37.2422ZM113.773 29.1641L113.31 19.1748L91.0949 20.2061L91.5586 30.1953L92.0223 40.1846L114.237 39.1533L113.773 29.1641ZM91.5586 30.1953L101.449 28.7157L100.632 23.2587L90.7422 24.7383L80.8523 26.2179L81.6687 31.6749L91.5586 30.1953ZM90.7422 24.7383L91.0534 34.7334L114.514 34.003L114.203 24.0078L113.892 14.0127L90.431 14.7431L90.7422 24.7383ZM114.203 24.0078L124.197 24.3524C124.267 22.3413 124.289 20.461 124.289 18.6367H114.289H104.289C104.289 20.2929 104.269 21.936 104.209 23.6632L114.203 24.0078ZM114.289 18.6367V8.63672L92.0312 8.63672V18.6367V28.6367H114.289V18.6367ZM92.0312 18.6367H102.031V13.1797H92.0312H82.0312V18.6367H92.0312ZM92.0312 13.1797V23.1797H121.035V13.1797V3.17969H92.0312V13.1797ZM124.301 39.9492H114.301V45.4922H124.301H134.301V39.9492H124.301ZM124.301 45.4922V35.4922H88.0352V45.4922V55.4922H124.301V45.4922ZM88.0352 45.4922H98.0352V39.9492H88.0352H78.0352V45.4922H88.0352ZM88.0352 39.9492V49.9492H124.301V39.9492V29.9492H88.0352V39.9492ZM162.328 27.4023H172.328C172.328 21.8795 167.851 17.4023 162.328 17.4023V27.4023ZM162.328 32.4297V42.4297C167.851 42.4297 172.328 37.9525 172.328 32.4297H162.328ZM126.062 32.4297H116.062C116.062 37.9525 120.54 42.4297 126.062 42.4297V32.4297ZM126.062 27.4023V17.4023C120.54 17.4023 116.062 21.8795 116.062 27.4023H126.062ZM158.117 33.6328H168.117C168.117 28.11 163.64 23.6328 158.117 23.6328V33.6328ZM158.117 43.6445V53.6445C163.64 53.6445 168.117 49.1674 168.117 43.6445H158.117ZM136.891 43.6445V33.6445C131.368 33.6445 126.891 38.1217 126.891 43.6445H136.891ZM136.891 44.9336H126.891C126.891 50.4564 131.368 54.9336 136.891 54.9336V44.9336ZM159.191 44.9336H169.191C169.191 39.4107 164.714 34.9336 159.191 34.9336V44.9336ZM159.191 49.4883V59.4883C164.714 59.4883 169.191 55.0111 169.191 49.4883H159.191ZM130.059 49.4883H120.059C120.059 55.0111 124.536 59.4883 130.059 59.4883V49.4883ZM130.059 39.3906V29.3906C124.536 29.3906 120.059 33.8678 120.059 39.3906H130.059ZM151.285 39.3906V49.3906C156.808 49.3906 161.285 44.9135 161.285 39.3906H151.285ZM151.285 38.2734H161.285C161.285 32.7506 156.808 28.2734 151.285 28.2734V38.2734ZM130.059 38.2734H120.059C120.059 43.7963 124.536 48.2734 130.059 48.2734V38.2734ZM130.059 33.6328V23.6328C124.536 23.6328 120.059 28.11 120.059 33.6328H130.059ZM158.117 10.4727H168.117C168.117 4.94981 163.64 0.472656 158.117 0.472656V10.4727ZM158.117 20.4844V30.4844C163.64 30.4844 168.117 26.0072 168.117 20.4844H158.117ZM137.277 20.4844V10.4844C131.754 10.4844 127.277 14.9615 127.277 20.4844H137.277ZM137.277 21.7734H127.277C127.277 27.2963 131.754 31.7734 137.277 31.7734V21.7734ZM158.805 21.7734H168.805C168.805 16.2506 164.328 11.7734 158.805 11.7734V21.7734ZM158.805 26.2852V36.2852C164.328 36.2852 168.805 31.808 168.805 26.2852H158.805ZM130.445 26.2852H120.445C120.445 31.808 124.922 36.2852 130.445 36.2852V26.2852ZM130.445 16.2305V6.23047C124.922 6.23047 120.445 10.7076 120.445 16.2305H130.445ZM151.242 16.2305V26.2305C156.765 26.2305 161.242 21.7533 161.242 16.2305H151.242ZM151.242 15.0273H161.242C161.242 9.5045 156.765 5.02734 151.242 5.02734V15.0273ZM130.402 15.0273H120.402C120.402 20.5502 124.879 25.0273 130.402 25.0273V15.0273ZM130.402 10.4727V0.472656C124.879 0.472656 120.402 4.94981 120.402 10.4727H130.402ZM162.328 27.4023H152.328V32.4297H162.328H172.328V27.4023H162.328ZM162.328 32.4297V22.4297H126.062V32.4297V42.4297L162.328 42.4297V32.4297ZM126.062 32.4297H136.062V27.4023H126.062H116.062V32.4297H126.062ZM126.062 27.4023V37.4023L162.328 37.4023V27.4023V17.4023H126.062V27.4023ZM158.117 33.6328H148.117V43.6445H158.117H168.117V33.6328H158.117ZM158.117 43.6445V33.6445L136.891 33.6445V43.6445V53.6445L158.117 53.6445V43.6445ZM136.891 43.6445H126.891V44.9336H136.891L146.891 44.9336V43.6445L136.891 43.6445ZM136.891 44.9336V54.9336L159.191 54.9336V44.9336V34.9336L136.891 34.9336V44.9336ZM159.191 44.9336H149.191V49.4883H159.191H169.191V44.9336H159.191ZM159.191 49.4883V39.4883L130.059 39.4883V49.4883V59.4883L159.191 59.4883V49.4883ZM130.059 49.4883L140.059 49.4883V39.3906L130.059 39.3906H120.059V49.4883H130.059ZM130.059 39.3906V49.3906L151.285 49.3906V39.3906V29.3906L130.059 29.3906V39.3906ZM151.285 39.3906H161.285V38.2734H151.285H141.285V39.3906H151.285ZM151.285 38.2734V28.2734H130.059V38.2734V48.2734L151.285 48.2734V38.2734ZM130.059 38.2734L140.059 38.2734V33.6328L130.059 33.6328H120.059V38.2734H130.059ZM130.059 33.6328V43.6328L158.117 43.6328V33.6328V23.6328H130.059V33.6328ZM158.117 10.4727H148.117V20.4844H158.117H168.117V10.4727H158.117ZM158.117 20.4844V10.4844H137.277V20.4844V30.4844L158.117 30.4844V20.4844ZM137.277 20.4844H127.277V21.7734H137.277H147.277V20.4844H137.277ZM137.277 21.7734V31.7734L158.805 31.7734V21.7734V11.7734H137.277V21.7734ZM158.805 21.7734H148.805V26.2852H158.805H168.805V21.7734H158.805ZM158.805 26.2852V16.2852H130.445V26.2852V36.2852L158.805 36.2852V26.2852ZM130.445 26.2852H140.445V16.2305H130.445H120.445V26.2852H130.445ZM130.445 16.2305V26.2305H151.242V16.2305V6.23047H130.445V16.2305ZM151.242 16.2305H161.242V15.0273H151.242H141.242V16.2305H151.242ZM151.242 15.0273V5.02734H130.402V15.0273V25.0273H151.242V15.0273ZM130.402 15.0273H140.402V10.4727H130.402H120.402V15.0273H130.402ZM130.402 10.4727V20.4727H158.117V10.4727V0.472656L130.402 0.472656V10.4727ZM195.156 13.4375L205.156 13.4375C205.156 7.91465 200.679 3.4375 195.156 3.4375V13.4375ZM195.156 40.6367V50.6367C200.679 50.6367 205.156 46.1596 205.156 40.6367H195.156ZM175.434 40.6367H165.434C165.434 46.1596 169.911 50.6367 175.434 50.6367V40.6367ZM175.434 13.4375V3.4375C169.911 3.4375 165.434 7.91465 165.434 13.4375H175.434ZM182.309 18.7656V8.76562C176.786 8.76562 172.309 13.2428 172.309 18.7656H182.309ZM182.309 35.2227H172.309C172.309 40.7455 176.786 45.2227 182.309 45.2227V35.2227ZM188.453 35.2227V45.2227C193.976 45.2227 198.453 40.7455 198.453 35.2227H188.453ZM188.453 18.7656H198.453C198.453 13.2428 193.976 8.76562 188.453 8.76562V18.7656ZM207.23 10H217.23C217.23 4.47715 212.753 0 207.23 0V10ZM207.23 49.875V59.875C212.753 59.875 217.23 55.3978 217.23 49.875H207.23ZM200.27 49.875H190.27C190.27 55.3978 194.747 59.875 200.27 59.875V49.875ZM200.27 10V0C194.747 0 190.27 4.47715 190.27 10H200.27ZM195.156 13.4375H185.156V40.6367H195.156H205.156V13.4375L195.156 13.4375ZM195.156 40.6367V30.6367H175.434V40.6367V50.6367H195.156V40.6367ZM175.434 40.6367H185.434V13.4375H175.434H165.434V40.6367H175.434ZM175.434 13.4375V23.4375H195.156V13.4375V3.4375L175.434 3.4375V13.4375ZM182.309 18.7656H172.309V35.2227H182.309H192.309V18.7656H182.309ZM182.309 35.2227V45.2227H188.453V35.2227V25.2227H182.309V35.2227ZM188.453 35.2227H198.453V18.7656H188.453H178.453V35.2227H188.453ZM188.453 18.7656V8.76562H182.309V18.7656V28.7656H188.453V18.7656ZM207.23 10H197.23V49.875H207.23H217.23V10H207.23ZM207.23 49.875V39.875H200.27V49.875V59.875H207.23V49.875ZM200.27 49.875H210.27V10H200.27H190.27V49.875H200.27ZM200.27 10V20L207.23 20V10V0H200.27V10ZM245.301 10H255.301C255.301 4.47715 250.824 0 245.301 0V10ZM245.301 49.875V59.875C250.824 59.875 255.301 55.3978 255.301 49.875H245.301ZM238.426 49.875H228.426C228.426 55.3978 232.903 59.875 238.426 59.875V49.875ZM238.426 10V0C232.903 0 228.426 4.47715 228.426 10L238.426 10ZM232.84 13.1367H242.84C242.84 7.61387 238.363 3.13672 232.84 3.13672V13.1367ZM232.84 29.207V39.207C238.363 39.207 242.84 34.7299 242.84 29.207H232.84ZM220.852 29.207V19.207C215.329 19.207 210.852 23.6842 210.852 29.207H220.852ZM220.852 35.1367H210.852C210.852 37.8086 211.921 40.3693 213.821 42.2478C215.721 44.1264 218.294 45.1664 220.965 45.1361L220.852 35.1367ZM236.234 33.8906L246.184 32.888C245.906 30.1315 244.497 27.6137 242.293 25.9351C240.089 24.2565 237.288 23.5675 234.556 24.0324L236.234 33.8906ZM236.793 39.4336L238.619 49.2655C243.732 48.3159 247.264 43.6054 246.743 38.4309L236.793 39.4336ZM213.719 40.7656H203.719C203.719 46.2885 208.196 50.7656 213.719 50.7656V40.7656ZM213.719 23.8359V13.8359C208.196 13.8359 203.719 18.3131 203.719 23.8359H213.719ZM225.793 23.8359V33.8359C231.316 33.8359 235.793 29.3588 235.793 23.8359H225.793ZM225.793 18.6367H235.793C235.793 13.1139 231.316 8.63672 225.793 8.63672V18.6367ZM213.719 18.6367H203.719C203.719 24.1596 208.196 28.6367 213.719 28.6367V18.6367ZM213.719 13.1367V3.13672C208.196 3.13672 203.719 7.61387 203.719 13.1367H213.719ZM245.301 10H235.301V49.875H245.301H255.301V10H245.301ZM245.301 49.875V39.875H238.426V49.875V59.875H245.301V49.875ZM238.426 49.875H248.426V10H238.426L228.426 10V49.875H238.426ZM238.426 10V20H245.301V10V0L238.426 0V10ZM232.84 13.1367H222.84V29.207H232.84H242.84V13.1367H232.84ZM232.84 29.207V19.207H220.852V29.207V39.207H232.84V29.207ZM220.852 29.207H210.852V35.1367H220.852H230.852V29.207H220.852ZM220.852 35.1367L220.965 45.1361C226.99 45.0676 232.202 44.7209 237.912 43.7488L236.234 33.8906L234.556 24.0324C230.17 24.7791 226.057 25.0769 220.738 25.1374L220.852 35.1367ZM236.234 33.8906L226.285 34.8933L226.843 40.4363L236.793 39.4336L246.743 38.4309L246.184 32.888L236.234 33.8906ZM236.793 39.4336L234.967 29.6017C229.887 30.5451 224.837 30.7656 217.457 30.7656V40.7656V50.7656C225.116 50.7656 231.667 50.5565 238.619 49.2655L236.793 39.4336ZM217.457 40.7656V30.7656H213.719V40.7656V50.7656H217.457V40.7656ZM213.719 40.7656H223.719V23.8359H213.719H203.719V40.7656H213.719ZM213.719 23.8359V33.8359H225.793V23.8359V13.8359H213.719V23.8359ZM225.793 23.8359H235.793V18.6367H225.793H215.793V23.8359H225.793ZM225.793 18.6367V8.63672H213.719V18.6367V28.6367H225.793V18.6367ZM213.719 18.6367H223.719V13.1367H213.719H203.719V18.6367H213.719ZM213.719 13.1367V23.1367H232.84V13.1367V3.13672L213.719 3.13672V13.1367ZM295.617 39.9062H305.617C305.617 34.3834 301.14 29.9062 295.617 29.9062V39.9062ZM295.617 45.4492V55.4492C301.14 55.4492 305.617 50.9721 305.617 45.4492H295.617ZM259.309 45.4492H249.309C249.309 50.9721 253.786 55.4492 259.309 55.4492V45.4492ZM259.309 39.9062V29.9062C253.786 29.9062 249.309 34.3834 249.309 39.9062H259.309ZM274.004 39.9062V49.9062C279.527 49.9062 284.004 45.4291 284.004 39.9062H274.004ZM274.004 33.332H284.004C284.004 27.8092 279.527 23.332 274.004 23.332V33.332ZM262.875 33.332H252.875C252.875 38.8549 257.352 43.332 262.875 43.332V33.332ZM262.875 12.3633V2.36328C257.352 2.36328 252.875 6.84043 252.875 12.3633H262.875ZM269.793 12.3633H279.793C279.793 6.84043 275.316 2.36328 269.793 2.36328V12.3633ZM269.793 17.9062H259.793C259.793 23.4291 264.27 27.9062 269.793 27.9062V17.9062ZM284.961 17.9062V27.9062C290.484 27.9062 294.961 23.4291 294.961 17.9062H284.961ZM284.961 12.3633V2.36328C279.438 2.36328 274.961 6.84043 274.961 12.3633H284.961ZM291.836 12.3633L301.836 12.3633C301.836 6.84043 297.359 2.36328 291.836 2.36328V12.3633ZM291.836 33.332V43.332C297.359 43.332 301.836 38.8549 301.836 33.332H291.836ZM280.836 33.332V23.332C275.313 23.332 270.836 27.8092 270.836 33.332H280.836ZM280.836 39.9062H270.836C270.836 45.4291 275.313 49.9062 280.836 49.9062V39.9062ZM269.793 27.875H259.793C259.793 33.3978 264.27 37.875 269.793 37.875V27.875ZM284.961 27.875V37.875C290.484 37.875 294.961 33.3978 294.961 27.875H284.961ZM284.961 23.3203H294.961C294.961 17.7975 290.484 13.3203 284.961 13.3203V23.3203ZM269.793 23.3203V13.3203C264.27 13.3203 259.793 17.7975 259.793 23.3203H269.793ZM295.617 39.9062H285.617V45.4492H295.617H305.617V39.9062H295.617ZM295.617 45.4492V35.4492H259.309V45.4492V55.4492H295.617V45.4492ZM259.309 45.4492H269.309V39.9062H259.309H249.309V45.4492H259.309ZM259.309 39.9062V49.9062H274.004V39.9062V29.9062H259.309V39.9062ZM274.004 39.9062H284.004V33.332H274.004H264.004V39.9062H274.004ZM274.004 33.332V23.332H262.875V33.332V43.332H274.004V33.332ZM262.875 33.332H272.875V12.3633H262.875H252.875V33.332H262.875ZM262.875 12.3633V22.3633H269.793V12.3633V2.36328H262.875V12.3633ZM269.793 12.3633H259.793V17.9062H269.793H279.793V12.3633H269.793ZM269.793 17.9062V27.9062H284.961V17.9062V7.90625H269.793V17.9062ZM284.961 17.9062H294.961V12.3633H284.961H274.961V17.9062H284.961ZM284.961 12.3633V22.3633H291.836V12.3633V2.36328H284.961V12.3633ZM291.836 12.3633H281.836V33.332H291.836H301.836V12.3633L291.836 12.3633ZM291.836 33.332V23.332H280.836V33.332V43.332H291.836V33.332ZM280.836 33.332H270.836V39.9062H280.836H290.836V33.332H280.836ZM280.836 39.9062V49.9062H295.617V39.9062V29.9062H280.836V39.9062ZM269.793 27.875V37.875H284.961V27.875V17.875H269.793V27.875ZM284.961 27.875H294.961V23.3203H284.961H274.961V27.875H284.961ZM284.961 23.3203V13.3203H269.793V23.3203V33.3203H284.961V23.3203ZM269.793 23.3203H259.793V27.875H269.793H279.793V23.3203H269.793ZM329.691 20.0977L339.691 20.0977C339.691 14.5748 335.214 10.0977 329.691 10.0977V20.0977ZM329.691 25.4258V35.4258C335.214 35.4258 339.691 30.9486 339.691 25.4258L329.691 25.4258ZM301.59 25.4258H291.59C291.59 30.9486 296.067 35.4258 301.59 35.4258V25.4258ZM301.59 11.418V1.41797C296.067 1.41797 291.59 5.89512 291.59 11.418L301.59 11.418ZM308.465 11.418H318.465C318.465 5.89512 313.988 1.41797 308.465 1.41797V11.418ZM308.465 20.0977H298.465C298.465 25.6205 302.942 30.0977 308.465 30.0977V20.0977ZM333.602 28.9492H343.602C343.602 23.4264 339.124 18.9492 333.602 18.9492V28.9492ZM333.602 34.2773V44.2773C339.124 44.2773 343.602 39.8002 343.602 34.2773H333.602ZM297.336 34.2773H287.336C287.336 39.8002 291.813 44.2773 297.336 44.2773V34.2773ZM297.336 28.9492V18.9492C291.813 18.9492 287.336 23.4264 287.336 28.9492H297.336ZM329.949 43.4727H339.949C339.949 37.9498 335.472 33.4727 329.949 33.4727V43.4727ZM329.949 48.9727V58.9727C335.472 58.9727 339.949 54.4955 339.949 48.9727H329.949ZM301.117 48.9727H291.117C291.117 54.4955 295.594 58.9727 301.117 58.9727V48.9727ZM301.117 37.0273V27.0273C295.594 27.0273 291.117 31.5045 291.117 37.0273H301.117ZM308.078 37.0273H318.078C318.078 31.5045 313.601 27.0273 308.078 27.0273V37.0273ZM308.078 43.4727H298.078C298.078 48.9955 302.555 53.4727 308.078 53.4727V43.4727ZM329.691 20.0977H319.691V25.4258H329.691L339.691 25.4258V20.0977L329.691 20.0977ZM329.691 25.4258V15.4258H301.59V25.4258V35.4258H329.691V25.4258ZM301.59 25.4258H311.59V11.418H301.59L291.59 11.418V25.4258H301.59ZM301.59 11.418V21.418H308.465V11.418V1.41797H301.59V11.418ZM308.465 11.418L298.465 11.418V20.0977H308.465H318.465V11.418H308.465ZM308.465 20.0977V30.0977H329.691V20.0977V10.0977H308.465V20.0977ZM333.602 28.9492H323.602V34.2773H333.602H343.602V28.9492H333.602ZM333.602 34.2773V24.2773L297.336 24.2773V34.2773V44.2773H333.602V34.2773ZM297.336 34.2773H307.336V28.9492H297.336H287.336V34.2773H297.336ZM297.336 28.9492V38.9492H333.602V28.9492V18.9492L297.336 18.9492V28.9492ZM329.949 43.4727H319.949V48.9727H329.949H339.949V43.4727H329.949ZM329.949 48.9727V38.9727H301.117V48.9727V58.9727H329.949V48.9727ZM301.117 48.9727H311.117V37.0273H301.117H291.117V48.9727H301.117ZM301.117 37.0273V47.0273H308.078V37.0273V27.0273H301.117V37.0273ZM308.078 37.0273H298.078V43.4727H308.078H318.078V37.0273H308.078ZM308.078 43.4727V53.4727H329.949V43.4727V33.4727H308.078V43.4727Z" fill="white" mask="url(#path-1-outside-1_6524_1835)"/>
</g>
<defs>
<filter id="filter0_d_6524_1835" x="0" y="0" width="347.602" height="67.875" filterUnits="userSpaceOnUse" color-interpolation-filters="sRGB">
<feFlood flood-opacity="0" result="BackgroundImageFix"/>
<feColorMatrix in="SourceAlpha" type="matrix" values="0 0 0 0 0 0 0 0 0 0 0 0 0 0 0 0 0 0 127 0" result="hardAlpha"/>
<feOffset dy="4"/>
<feGaussianBlur stdDeviation="2"/>
<feComposite in2="hardAlpha" operator="out"/>
<feColorMatrix type="matrix" values="0 0 0 0 0 0 0 0 0 0 0 0 0 0 0 0 0 0 0.07 0"/>
<feBlend mode="normal" in2="BackgroundImageFix" result="effect1_dropShadow_6524_1835"/>
<feBlend mode="normal" in="SourceGraphic" in2="effect1_dropShadow_6524_1835" result="shape"/>
</filter>
</defs>
</svg>
