<svg width="387" height="68" viewBox="0 0 387 68" fill="none" xmlns="http://www.w3.org/2000/svg">
<g filter="url(#filter0_d_6524_1877)">
<mask id="path-1-outside-1_6524_1877" maskUnits="userSpaceOnUse" x="3.23828" y="-0.507813" width="380" height="61" fill="black">
<rect fill="white" x="3.23828" y="-0.507813" width="380" height="61"/>
<path d="M44.9375 10V17.0898H49.8789V22.7617H44.9375V29.6367H38.0195V10L44.9375 10ZM33.5078 11.6328V28.5625H14V11.6328H33.5078ZM20.832 17.0469V23.1484H26.6758V17.0469H20.832ZM44.9375 31.0117V42.6133H24.7852V44.0312H45.8828V49.4023H17.9531V37.6719H38.0625V36.2539H17.9531V31.0117H44.9375ZM73.6836 13.7383V17.6055C73.6836 21.7734 73.6836 26.4141 72.6523 32.5156L65.9062 32C66.7012 26.7793 66.7871 22.8691 66.8516 19.1953H52.8438V13.7383H73.6836ZM64.1016 25.168V36.3398C67.6895 36.168 71.3203 35.9102 74.6719 35.4805L75.1016 40.5508C67.0664 41.9688 58.3008 42.0977 51.4258 42.0547L50.8672 36.6406C52.8652 36.6191 55.0566 36.5977 57.3555 36.5547V25.168H64.1016ZM83.1367 10V25.5547H87.8633V31.2695H83.1367V49.7461H76.1328V10H83.1367ZM133.152 10V34.793H126.621V24.8242H124.816V33.5469H118.371V10.7305H124.816V19.2383H126.621V10H133.152ZM117.512 13.6953V18.9805H98.5625V13.6953H104.621V10.4297L111.453 10.4297V13.6953H117.512ZM108.102 19.7969C113.172 19.7969 116.867 22.6758 116.91 26.8437C116.867 30.9688 113.172 33.8047 108.102 33.8047C103.16 33.8047 99.4648 30.9688 99.4648 26.8437C99.4648 22.6758 103.16 19.7969 108.102 19.7969ZM108.102 24.6953C106.598 24.6953 105.566 25.3828 105.566 26.8437C105.566 28.2617 106.598 28.9922 108.102 28.9922C109.648 28.9922 110.637 28.2617 110.68 26.8437C110.637 25.3828 109.648 24.6953 108.102 24.6953ZM119.273 34.9648C128.039 34.9648 133.324 37.6719 133.367 42.3984C133.324 47.125 128.039 49.832 119.273 49.832C110.637 49.832 105.266 47.125 105.309 42.3984C105.266 37.6719 110.637 34.9648 119.273 34.9648ZM119.273 40.0781C114.418 40.0781 112.184 40.6797 112.184 42.3984C112.184 44.0312 114.418 44.6758 119.273 44.6758C124.215 44.6758 126.363 44.0312 126.406 42.3984C126.363 40.6797 124.215 40.0781 119.273 40.0781ZM173.156 28.2187V33.6328L136.805 33.6328V28.2187H151.629V25.6406H141.102V11.7187H168.902V17.0469H147.934V20.2695H169.074V25.6406H158.418V28.2187H173.156ZM154.852 35.0078C163.531 35.0078 168.73 37.6719 168.773 42.4844C168.73 47.168 163.531 49.875 154.852 49.875C146.086 49.875 140.801 47.168 140.801 42.4844C140.801 37.6719 146.086 35.0078 154.852 35.0078ZM154.852 40.207C149.91 40.207 147.805 40.8945 147.848 42.4844C147.805 44.1172 149.91 44.6758 154.852 44.6758C159.664 44.6758 161.855 44.1172 161.855 42.4844C161.855 40.8945 159.664 40.207 154.852 40.207ZM208.391 10V49.875H201.43V10H208.391ZM186.562 12.6641C192.621 12.6211 197.176 18.207 197.176 26.9727C197.176 35.8672 192.621 41.4102 186.562 41.4102C180.375 41.4102 175.777 35.8672 175.777 26.9727C175.777 18.207 180.375 12.6211 186.562 12.6641ZM186.562 18.8945C184.027 18.8516 182.438 21.4727 182.438 26.9727C182.438 32.5586 184.027 35.0937 186.562 35.0937C188.926 35.0937 190.559 32.5586 190.559 26.9727C190.559 21.4727 188.926 18.8516 186.562 18.8945ZM233.742 11.0312C239.887 10.9883 244.57 14.8984 244.57 20.2695C244.57 25.5977 239.887 29.4648 233.742 29.4648C227.555 29.4648 222.828 25.5977 222.871 20.2695C222.828 14.8984 227.555 10.9883 233.742 11.0312ZM233.742 16.5742C231.293 16.6172 229.488 17.7773 229.531 20.2695C229.488 22.7187 231.293 23.9648 233.742 23.9648C236.191 23.9648 237.91 22.7187 237.91 20.2695C237.91 17.7773 236.191 16.6172 233.742 16.5742ZM255.957 10V29.6367H249.039V10H255.957ZM255.957 31.0977V42.6562H235.633V44.0312H256.816V49.4023H228.887V37.7148H249.082V36.3398H228.801V31.0977H255.957ZM293.941 10V49.7461H287.066V10H293.941ZM276.582 22.2031C276.582 27.3594 278.902 33.8477 285.949 36.7266L282.297 41.9687C277.893 40.25 274.928 36.8125 273.188 32.6875C271.447 37.0703 268.439 40.7441 263.906 42.5273L260.297 37.2852C267.258 34.2773 269.664 27.6172 269.664 22.2031V21.6875H261.801V16.2305H269.621V11.0312H276.496V16.2305H284.188V21.6875H276.582V22.2031ZM330.207 10V25.082L335.578 25.082V30.7109H330.207V49.7461H323.375V10H330.207ZM321.441 15.6719V21.1289H298.281V15.6719H306.488V10.7305H313.363V15.6719H321.441ZM309.926 22.6758C315.812 22.6758 320.324 26.7148 320.324 32.3437C320.324 38.0156 315.812 42.0547 309.926 42.0547C303.91 42.0547 299.484 38.0156 299.484 32.3437C299.484 26.7148 303.91 22.6758 309.926 22.6758ZM309.926 28.2187C307.691 28.2187 306.059 29.6797 306.102 32.3437C306.059 35.1367 307.691 36.4687 309.926 36.4687C312.117 36.4687 313.707 35.1367 313.707 32.3437C313.707 29.6797 312.117 28.2187 309.926 28.2187ZM368.879 20.0977V25.4258H340.777V11.418H347.652V20.0977H368.879ZM372.789 28.9492V34.2773H336.523V28.9492H372.789ZM369.137 43.4727V48.9727H340.305V37.0273H347.266V43.4727H369.137Z"/>
</mask>
<path d="M44.9375 10V17.0898H49.8789V22.7617H44.9375V29.6367H38.0195V10L44.9375 10ZM33.5078 11.6328V28.5625H14V11.6328H33.5078ZM20.832 17.0469V23.1484H26.6758V17.0469H20.832ZM44.9375 31.0117V42.6133H24.7852V44.0312H45.8828V49.4023H17.9531V37.6719H38.0625V36.2539H17.9531V31.0117H44.9375ZM73.6836 13.7383V17.6055C73.6836 21.7734 73.6836 26.4141 72.6523 32.5156L65.9062 32C66.7012 26.7793 66.7871 22.8691 66.8516 19.1953H52.8438V13.7383H73.6836ZM64.1016 25.168V36.3398C67.6895 36.168 71.3203 35.9102 74.6719 35.4805L75.1016 40.5508C67.0664 41.9688 58.3008 42.0977 51.4258 42.0547L50.8672 36.6406C52.8652 36.6191 55.0566 36.5977 57.3555 36.5547V25.168H64.1016ZM83.1367 10V25.5547H87.8633V31.2695H83.1367V49.7461H76.1328V10H83.1367ZM133.152 10V34.793H126.621V24.8242H124.816V33.5469H118.371V10.7305H124.816V19.2383H126.621V10H133.152ZM117.512 13.6953V18.9805H98.5625V13.6953H104.621V10.4297L111.453 10.4297V13.6953H117.512ZM108.102 19.7969C113.172 19.7969 116.867 22.6758 116.91 26.8437C116.867 30.9688 113.172 33.8047 108.102 33.8047C103.16 33.8047 99.4648 30.9688 99.4648 26.8437C99.4648 22.6758 103.16 19.7969 108.102 19.7969ZM108.102 24.6953C106.598 24.6953 105.566 25.3828 105.566 26.8437C105.566 28.2617 106.598 28.9922 108.102 28.9922C109.648 28.9922 110.637 28.2617 110.68 26.8437C110.637 25.3828 109.648 24.6953 108.102 24.6953ZM119.273 34.9648C128.039 34.9648 133.324 37.6719 133.367 42.3984C133.324 47.125 128.039 49.832 119.273 49.832C110.637 49.832 105.266 47.125 105.309 42.3984C105.266 37.6719 110.637 34.9648 119.273 34.9648ZM119.273 40.0781C114.418 40.0781 112.184 40.6797 112.184 42.3984C112.184 44.0312 114.418 44.6758 119.273 44.6758C124.215 44.6758 126.363 44.0312 126.406 42.3984C126.363 40.6797 124.215 40.0781 119.273 40.0781ZM173.156 28.2187V33.6328L136.805 33.6328V28.2187H151.629V25.6406H141.102V11.7187H168.902V17.0469H147.934V20.2695H169.074V25.6406H158.418V28.2187H173.156ZM154.852 35.0078C163.531 35.0078 168.73 37.6719 168.773 42.4844C168.73 47.168 163.531 49.875 154.852 49.875C146.086 49.875 140.801 47.168 140.801 42.4844C140.801 37.6719 146.086 35.0078 154.852 35.0078ZM154.852 40.207C149.91 40.207 147.805 40.8945 147.848 42.4844C147.805 44.1172 149.91 44.6758 154.852 44.6758C159.664 44.6758 161.855 44.1172 161.855 42.4844C161.855 40.8945 159.664 40.207 154.852 40.207ZM208.391 10V49.875H201.43V10H208.391ZM186.562 12.6641C192.621 12.6211 197.176 18.207 197.176 26.9727C197.176 35.8672 192.621 41.4102 186.562 41.4102C180.375 41.4102 175.777 35.8672 175.777 26.9727C175.777 18.207 180.375 12.6211 186.562 12.6641ZM186.562 18.8945C184.027 18.8516 182.438 21.4727 182.438 26.9727C182.438 32.5586 184.027 35.0937 186.562 35.0937C188.926 35.0937 190.559 32.5586 190.559 26.9727C190.559 21.4727 188.926 18.8516 186.562 18.8945ZM233.742 11.0312C239.887 10.9883 244.57 14.8984 244.57 20.2695C244.57 25.5977 239.887 29.4648 233.742 29.4648C227.555 29.4648 222.828 25.5977 222.871 20.2695C222.828 14.8984 227.555 10.9883 233.742 11.0312ZM233.742 16.5742C231.293 16.6172 229.488 17.7773 229.531 20.2695C229.488 22.7187 231.293 23.9648 233.742 23.9648C236.191 23.9648 237.91 22.7187 237.91 20.2695C237.91 17.7773 236.191 16.6172 233.742 16.5742ZM255.957 10V29.6367H249.039V10H255.957ZM255.957 31.0977V42.6562H235.633V44.0312H256.816V49.4023H228.887V37.7148H249.082V36.3398H228.801V31.0977H255.957ZM293.941 10V49.7461H287.066V10H293.941ZM276.582 22.2031C276.582 27.3594 278.902 33.8477 285.949 36.7266L282.297 41.9687C277.893 40.25 274.928 36.8125 273.188 32.6875C271.447 37.0703 268.439 40.7441 263.906 42.5273L260.297 37.2852C267.258 34.2773 269.664 27.6172 269.664 22.2031V21.6875H261.801V16.2305H269.621V11.0312H276.496V16.2305H284.188V21.6875H276.582V22.2031ZM330.207 10V25.082L335.578 25.082V30.7109H330.207V49.7461H323.375V10H330.207ZM321.441 15.6719V21.1289H298.281V15.6719H306.488V10.7305H313.363V15.6719H321.441ZM309.926 22.6758C315.812 22.6758 320.324 26.7148 320.324 32.3437C320.324 38.0156 315.812 42.0547 309.926 42.0547C303.91 42.0547 299.484 38.0156 299.484 32.3437C299.484 26.7148 303.91 22.6758 309.926 22.6758ZM309.926 28.2187C307.691 28.2187 306.059 29.6797 306.102 32.3437C306.059 35.1367 307.691 36.4687 309.926 36.4687C312.117 36.4687 313.707 35.1367 313.707 32.3437C313.707 29.6797 312.117 28.2187 309.926 28.2187ZM368.879 20.0977V25.4258H340.777V11.418H347.652V20.0977H368.879ZM372.789 28.9492V34.2773H336.523V28.9492H372.789ZM369.137 43.4727V48.9727H340.305V37.0273H347.266V43.4727H369.137Z" fill="#11DCA9"/>
<path d="M44.9375 10H54.9375C54.9375 4.47715 50.4603 0 44.9375 0V10ZM44.9375 17.0898H34.9375C34.9375 22.6127 39.4147 27.0898 44.9375 27.0898V17.0898ZM49.8789 17.0898H59.8789C59.8789 11.567 55.4018 7.08984 49.8789 7.08984V17.0898ZM49.8789 22.7617V32.7617C55.4018 32.7617 59.8789 28.2846 59.8789 22.7617H49.8789ZM44.9375 22.7617V12.7617C39.4147 12.7617 34.9375 17.2389 34.9375 22.7617H44.9375ZM44.9375 29.6367V39.6367C50.4603 39.6367 54.9375 35.1596 54.9375 29.6367H44.9375ZM38.0195 29.6367H28.0195C28.0195 35.1596 32.4967 39.6367 38.0195 39.6367V29.6367ZM38.0195 10V0C32.4967 0 28.0195 4.47715 28.0195 10H38.0195ZM33.5078 11.6328H43.5078C43.5078 6.10997 39.0307 1.63281 33.5078 1.63281V11.6328ZM33.5078 28.5625V38.5625C39.0307 38.5625 43.5078 34.0853 43.5078 28.5625H33.5078ZM14 28.5625H4C4 34.0853 8.47715 38.5625 14 38.5625L14 28.5625ZM14 11.6328V1.63281C8.47715 1.63281 4 6.10997 4 11.6328H14ZM20.832 17.0469V7.04688C15.3092 7.04688 10.832 11.524 10.832 17.0469H20.832ZM20.832 23.1484H10.832C10.832 28.6713 15.3092 33.1484 20.832 33.1484V23.1484ZM26.6758 23.1484V33.1484C32.1986 33.1484 36.6758 28.6713 36.6758 23.1484H26.6758ZM26.6758 17.0469H36.6758C36.6758 11.524 32.1986 7.04688 26.6758 7.04688V17.0469ZM44.9375 31.0117H54.9375C54.9375 25.4889 50.4603 21.0117 44.9375 21.0117V31.0117ZM44.9375 42.6133V52.6133C50.4603 52.6133 54.9375 48.1361 54.9375 42.6133H44.9375ZM24.7852 42.6133V32.6133C19.2623 32.6133 14.7852 37.0904 14.7852 42.6133H24.7852ZM24.7852 44.0312H14.7852C14.7852 49.5541 19.2623 54.0312 24.7852 54.0312V44.0312ZM45.8828 44.0312H55.8828C55.8828 38.5084 51.4057 34.0312 45.8828 34.0312V44.0312ZM45.8828 49.4023V59.4023C51.4057 59.4023 55.8828 54.9252 55.8828 49.4023H45.8828ZM17.9531 49.4023H7.95313C7.95313 54.9252 12.4303 59.4023 17.9531 59.4023V49.4023ZM17.9531 37.6719V27.6719C12.4303 27.6719 7.95313 32.149 7.95313 37.6719H17.9531ZM38.0625 37.6719V47.6719C43.5853 47.6719 48.0625 43.1947 48.0625 37.6719H38.0625ZM38.0625 36.2539H48.0625C48.0625 30.7311 43.5853 26.2539 38.0625 26.2539V36.2539ZM17.9531 36.2539H7.95313C7.95313 41.7768 12.4303 46.2539 17.9531 46.2539V36.2539ZM17.9531 31.0117V21.0117C12.4303 21.0117 7.95313 25.4889 7.95313 31.0117H17.9531ZM44.9375 10L34.9375 10V17.0898H44.9375H54.9375V10H44.9375ZM44.9375 17.0898V27.0898H49.8789V17.0898V7.08984H44.9375V17.0898ZM49.8789 17.0898H39.8789V22.7617H49.8789H59.8789V17.0898H49.8789ZM49.8789 22.7617V12.7617H44.9375V22.7617V32.7617H49.8789V22.7617ZM44.9375 22.7617H34.9375V29.6367H44.9375H54.9375V22.7617H44.9375ZM44.9375 29.6367V19.6367H38.0195V29.6367V39.6367H44.9375V29.6367ZM38.0195 29.6367H48.0195V10L38.0195 10H28.0195V29.6367H38.0195ZM38.0195 10V20H44.9375V10V0H38.0195V10ZM33.5078 11.6328H23.5078V28.5625H33.5078H43.5078V11.6328H33.5078ZM33.5078 28.5625V18.5625H14V28.5625L14 38.5625H33.5078V28.5625ZM14 28.5625H24V11.6328H14H4L4 28.5625H14ZM14 11.6328V21.6328H33.5078V11.6328V1.63281L14 1.63281V11.6328ZM20.832 17.0469H10.832V23.1484H20.832H30.832V17.0469H20.832ZM20.832 23.1484V33.1484H26.6758V23.1484V13.1484H20.832V23.1484ZM26.6758 23.1484H36.6758V17.0469H26.6758H16.6758V23.1484H26.6758ZM26.6758 17.0469V7.04688H20.832V17.0469V27.0469H26.6758V17.0469ZM44.9375 31.0117H34.9375V42.6133H44.9375H54.9375V31.0117H44.9375ZM44.9375 42.6133V32.6133H24.7852V42.6133V52.6133H44.9375V42.6133ZM24.7852 42.6133H14.7852V44.0312H24.7852H34.7852V42.6133H24.7852ZM24.7852 44.0312V54.0312H45.8828V44.0312V34.0312H24.7852V44.0312ZM45.8828 44.0312H35.8828V49.4023H45.8828H55.8828V44.0312H45.8828ZM45.8828 49.4023V39.4023H17.9531V49.4023V59.4023H45.8828V49.4023ZM17.9531 49.4023H27.9531V37.6719H17.9531H7.95313L7.95313 49.4023H17.9531ZM17.9531 37.6719V47.6719H38.0625V37.6719V27.6719H17.9531V37.6719ZM38.0625 37.6719H48.0625V36.2539H38.0625H28.0625V37.6719H38.0625ZM38.0625 36.2539V26.2539H17.9531V36.2539V46.2539H38.0625V36.2539ZM17.9531 36.2539H27.9531V31.0117H17.9531H7.95313V36.2539H17.9531ZM17.9531 31.0117V41.0117H44.9375V31.0117V21.0117H17.9531V31.0117ZM73.6836 13.7383L83.6836 13.7383C83.6836 8.21543 79.2064 3.73828 73.6836 3.73828V13.7383ZM72.6523 32.5156L71.8902 42.4865C77.0454 42.8806 81.6509 39.28 82.5125 34.1821L72.6523 32.5156ZM65.9062 32L56.0202 30.4947C55.6014 33.2451 56.3473 36.0455 58.0786 38.2232C59.81 40.4009 62.3702 41.7589 65.1441 41.9709L65.9062 32ZM66.8516 19.1953L76.85 19.3707C76.8971 16.6886 75.8645 14.1 73.9844 12.1865C72.1042 10.2731 69.5341 9.19531 66.8516 9.19531V19.1953ZM52.8438 19.1953H42.8438C42.8438 24.7182 47.3209 29.1953 52.8438 29.1953V19.1953ZM52.8438 13.7383V3.73828C47.3209 3.73828 42.8438 8.21543 42.8438 13.7383H52.8438ZM64.1016 25.168H74.1016C74.1016 19.6451 69.6244 15.168 64.1016 15.168V25.168ZM64.1016 36.3398H54.1016C54.1016 39.075 55.2219 41.6909 57.2017 43.5781C59.1816 45.4653 61.848 46.4593 64.5801 46.3284L64.1016 36.3398ZM74.6719 35.4805L84.6362 34.636C84.4059 31.9191 83.0762 29.414 80.9549 27.7008C78.8336 25.9876 76.1048 25.2149 73.4002 25.5617L74.6719 35.4805ZM75.1016 40.5508L76.8394 50.3986C81.9348 49.4994 85.5028 44.8619 85.0658 39.7064L75.1016 40.5508ZM51.4258 42.0547L41.4786 43.081C42.0022 48.1556 46.2618 52.0226 51.3633 52.0545L51.4258 42.0547ZM50.8672 36.6406L50.7597 26.6412C47.9478 26.6714 45.2786 27.8842 43.4062 29.9822C41.5339 32.0803 40.6314 34.8697 40.92 37.6669L50.8672 36.6406ZM57.3555 36.5547L57.5424 46.5529C62.9914 46.4511 67.3555 42.0047 67.3555 36.5547H57.3555ZM57.3555 25.168V15.168C51.8326 15.168 47.3555 19.6451 47.3555 25.168H57.3555ZM83.1367 10H93.1367C93.1367 4.47715 88.6596 0 83.1367 0V10ZM83.1367 25.5547L73.1367 25.5547C73.1367 31.0775 77.6139 35.5547 83.1367 35.5547V25.5547ZM87.8633 25.5547H97.8633C97.8633 20.0318 93.3861 15.5547 87.8633 15.5547V25.5547ZM87.8633 31.2695V41.2695C93.3861 41.2695 97.8633 36.7924 97.8633 31.2695H87.8633ZM83.1367 31.2695V21.2695C77.6139 21.2695 73.1367 25.7467 73.1367 31.2695H83.1367ZM83.1367 49.7461V59.7461C88.6596 59.7461 93.1367 55.2689 93.1367 49.7461H83.1367ZM76.1328 49.7461H66.1328C66.1328 55.2689 70.61 59.7461 76.1328 59.7461V49.7461ZM76.1328 10V0C70.61 0 66.1328 4.47715 66.1328 10H76.1328ZM73.6836 13.7383H63.6836V17.6055H73.6836L83.6836 17.6055V13.7383L73.6836 13.7383ZM73.6836 17.6055H63.6836C63.6836 21.7067 63.674 25.6317 62.7922 30.8491L72.6523 32.5156L82.5125 34.1821C83.6932 27.1964 83.6836 21.8402 83.6836 17.6055L73.6836 17.6055ZM72.6523 32.5156L73.4145 22.5447L66.6684 22.0291L65.9062 32L65.1441 41.9709L71.8902 42.4865L72.6523 32.5156ZM65.9062 32L75.7923 33.5053C76.6922 27.5953 76.784 23.135 76.85 19.3707L66.8516 19.1953L56.8531 19.0199C56.7902 22.6032 56.7102 25.9633 56.0202 30.4947L65.9062 32ZM66.8516 19.1953V9.19531H52.8438V19.1953V29.1953H66.8516V19.1953ZM52.8438 19.1953H62.8438V13.7383H52.8438H42.8438V19.1953H52.8438ZM52.8438 13.7383V23.7383H73.6836V13.7383V3.73828L52.8438 3.73828V13.7383ZM64.1016 25.168H54.1016V36.3398H64.1016H74.1016V25.168H64.1016ZM64.1016 36.3398L64.5801 46.3284C68.2967 46.1503 72.2211 45.8765 75.9435 45.3993L74.6719 35.4805L73.4002 25.5617C70.4195 25.9438 67.0822 26.1856 63.6231 26.3513L64.1016 36.3398ZM74.6719 35.4805L64.7076 36.3249L65.1373 41.3952L75.1016 40.5508L85.0658 39.7064L84.6362 34.636L74.6719 35.4805ZM75.1016 40.5508L73.3637 30.7029C66.2864 31.9519 58.2988 32.0975 51.4883 32.0549L51.4258 42.0547L51.3633 52.0545C58.3028 52.0979 67.8464 51.9856 76.8394 50.3986L75.1016 40.5508ZM51.4258 42.0547L61.373 41.0284L60.8144 35.6143L50.8672 36.6406L40.92 37.6669L41.4786 43.081L51.4258 42.0547ZM50.8672 36.6406L50.9747 46.64C52.9587 46.6187 55.195 46.5968 57.5424 46.5529L57.3555 36.5547L57.1686 26.5564C54.9182 26.5985 52.7718 26.6196 50.7597 26.6412L50.8672 36.6406ZM57.3555 36.5547H67.3555V25.168H57.3555H47.3555V36.5547H57.3555ZM57.3555 25.168V35.168H64.1016V25.168V15.168H57.3555V25.168ZM83.1367 10H73.1367V25.5547L83.1367 25.5547H93.1367V10H83.1367ZM83.1367 25.5547V35.5547H87.8633V25.5547V15.5547H83.1367V25.5547ZM87.8633 25.5547H77.8633V31.2695H87.8633H97.8633V25.5547H87.8633ZM87.8633 31.2695V21.2695H83.1367V31.2695V41.2695H87.8633V31.2695ZM83.1367 31.2695H73.1367V49.7461H83.1367H93.1367V31.2695H83.1367ZM83.1367 49.7461V39.7461H76.1328V49.7461V59.7461H83.1367V49.7461ZM76.1328 49.7461H86.1328V10H76.1328H66.1328V49.7461H76.1328ZM76.1328 10V20L83.1367 20V10V0H76.1328V10ZM133.152 10H143.152C143.152 4.47715 138.675 0 133.152 0V10ZM133.152 34.793V44.793C138.675 44.793 143.152 40.3158 143.152 34.793L133.152 34.793ZM126.621 34.793H116.621C116.621 40.3158 121.098 44.793 126.621 44.793V34.793ZM126.621 24.8242H136.621C136.621 19.3014 132.144 14.8242 126.621 14.8242V24.8242ZM124.816 24.8242V14.8242C119.294 14.8242 114.816 19.3014 114.816 24.8242H124.816ZM124.816 33.5469V43.5469C130.339 43.5469 134.816 39.0697 134.816 33.5469H124.816ZM118.371 33.5469H108.371C108.371 39.0697 112.848 43.5469 118.371 43.5469V33.5469ZM118.371 10.7305V0.730469C112.848 0.730469 108.371 5.20762 108.371 10.7305H118.371ZM124.816 10.7305H134.816C134.816 5.20762 130.339 0.730469 124.816 0.730469V10.7305ZM124.816 19.2383H114.816C114.816 24.7611 119.294 29.2383 124.816 29.2383V19.2383ZM126.621 19.2383V29.2383C132.144 29.2383 136.621 24.7611 136.621 19.2383H126.621ZM126.621 10V0C121.098 0 116.621 4.47715 116.621 10H126.621ZM117.512 13.6953H127.512C127.512 8.17247 123.035 3.69531 117.512 3.69531V13.6953ZM117.512 18.9805V28.9805C123.035 28.9805 127.512 24.5033 127.512 18.9805H117.512ZM98.5625 18.9805H88.5625C88.5625 24.5033 93.0396 28.9805 98.5625 28.9805V18.9805ZM98.5625 13.6953V3.69531C93.0396 3.69531 88.5625 8.17247 88.5625 13.6953H98.5625ZM104.621 13.6953V23.6953C110.144 23.6953 114.621 19.2182 114.621 13.6953H104.621ZM104.621 10.4297V0.429687C99.0982 0.429687 94.6211 4.90684 94.6211 10.4297H104.621ZM111.453 10.4297H121.453C121.453 4.90684 116.976 0.429687 111.453 0.429687V10.4297ZM111.453 13.6953H101.453C101.453 19.2182 105.93 23.6953 111.453 23.6953V13.6953ZM116.91 26.8437L126.91 26.9479C126.91 26.8788 126.91 26.8097 126.91 26.7407L116.91 26.8437ZM110.68 26.8437L120.675 27.1466C120.681 26.9477 120.681 26.7487 120.675 26.5498L110.68 26.8437ZM133.367 42.3984L143.367 42.4893C143.367 42.4287 143.367 42.3681 143.367 42.3075L133.367 42.3984ZM105.309 42.3984L115.308 42.4893C115.309 42.4287 115.309 42.3681 115.308 42.3075L105.309 42.3984ZM126.406 42.3984L136.403 42.6615C136.407 42.4905 136.407 42.3195 136.403 42.1485L126.406 42.3984ZM133.152 10H123.152V34.793H133.152L143.152 34.793V10H133.152ZM133.152 34.793V24.793H126.621V34.793V44.793H133.152V34.793ZM126.621 34.793H136.621V24.8242H126.621H116.621V34.793H126.621ZM126.621 24.8242V14.8242H124.816V24.8242V34.8242H126.621V24.8242ZM124.816 24.8242H114.816V33.5469H124.816H134.816V24.8242H124.816ZM124.816 33.5469V23.5469H118.371V33.5469V43.5469H124.816V33.5469ZM118.371 33.5469H128.371V10.7305H118.371H108.371V33.5469H118.371ZM118.371 10.7305V20.7305H124.816V10.7305V0.730469L118.371 0.730469V10.7305ZM124.816 10.7305H114.816V19.2383H124.816H134.816V10.7305H124.816ZM124.816 19.2383V29.2383H126.621V19.2383V9.23828H124.816V19.2383ZM126.621 19.2383H136.621V10H126.621H116.621V19.2383H126.621ZM126.621 10V20H133.152V10V0L126.621 0V10ZM117.512 13.6953H107.512V18.9805H117.512H127.512V13.6953H117.512ZM117.512 18.9805V8.98047L98.5625 8.98047V18.9805V28.9805H117.512V18.9805ZM98.5625 18.9805H108.562V13.6953H98.5625H88.5625V18.9805H98.5625ZM98.5625 13.6953V23.6953H104.621V13.6953V3.69531H98.5625V13.6953ZM104.621 13.6953H114.621V10.4297L104.621 10.4297H94.6211V13.6953H104.621ZM104.621 10.4297V20.4297H111.453V10.4297V0.429687H104.621V10.4297ZM111.453 10.4297L101.453 10.4297V13.6953H111.453H121.453V10.4297H111.453ZM111.453 13.6953V23.6953H117.512V13.6953V3.69531H111.453V13.6953ZM108.102 19.7969V29.7969C108.811 29.7969 108.69 29.9997 108.174 29.5896C107.902 29.3737 107.565 29.0132 107.3 28.4872C107.029 27.9498 106.915 27.4024 106.911 26.9468L116.91 26.8437L126.91 26.7407C126.79 15.1574 116.495 9.79687 108.102 9.79687V19.7969ZM116.91 26.8437L106.911 26.7396C106.916 26.2561 107.037 25.683 107.321 25.1261C107.599 24.582 107.949 24.2151 108.224 23.9995C108.742 23.5935 108.846 23.8047 108.102 23.8047V33.8047V43.8047C116.364 43.8047 126.788 38.5917 126.91 26.9479L116.91 26.8437ZM108.102 33.8047V23.8047C107.471 23.8047 107.621 23.6206 108.15 24.0412C108.432 24.2644 108.784 24.6401 109.061 25.1938C109.345 25.7615 109.465 26.347 109.465 26.8437H99.4648H89.4648C89.4648 38.5152 99.906 43.8047 108.102 43.8047V33.8047ZM99.4648 26.8437H109.465C109.465 27.3125 109.353 27.872 109.082 28.4199C108.817 28.955 108.478 29.324 108.2 29.5474C107.673 29.9718 107.507 29.7969 108.102 29.7969V19.7969V9.79687C99.7732 9.79687 89.4648 15.2355 89.4648 26.8437H99.4648ZM108.102 24.6953V14.6953C106.007 14.6953 102.866 15.1521 100.046 17.3946C96.8714 19.9191 95.5664 23.5322 95.5664 26.8437H105.566H115.566C115.566 28.6944 114.777 31.2332 112.494 33.0487C110.565 34.5823 108.692 34.6953 108.102 34.6953V24.6953ZM105.566 26.8437H95.5664C95.5664 30.2097 96.9208 33.7543 99.9888 36.2309C102.757 38.4656 105.878 38.9922 108.102 38.9922V28.9922V18.9922C108.822 18.9922 110.674 19.1535 112.551 20.6685C114.728 22.4254 115.566 24.8958 115.566 26.8437H105.566ZM108.102 28.9922V38.9922C110.309 38.9922 113.446 38.4831 116.236 36.2309C119.292 33.7635 120.579 30.3015 120.675 27.1466L110.68 26.8437L100.684 26.5409C100.737 24.804 101.508 22.4162 103.673 20.6685C105.572 19.136 107.441 18.9922 108.102 18.9922V28.9922ZM110.68 26.8437L120.675 26.5498C120.584 23.4408 119.338 19.9073 116.179 17.3946C113.338 15.1357 110.18 14.6953 108.102 14.6953V24.6953V34.6953C107.57 34.6953 105.68 34.5987 103.731 33.0487C101.462 31.2451 100.732 28.7858 100.684 27.1377L110.68 26.8437ZM119.273 34.9648V44.9648C120.969 44.9648 122.306 45.0973 123.306 45.2868C124.326 45.4801 124.822 45.6998 124.955 45.7694C125.077 45.8334 124.646 45.6381 124.169 44.9509C123.635 44.1825 123.375 43.2721 123.368 42.4893L133.367 42.3984L143.367 42.3075C143.304 35.3901 139.073 30.5841 134.228 28.0489C129.792 25.728 124.453 24.9648 119.273 24.9648V34.9648ZM133.367 42.3984L123.368 42.3075C123.375 41.5248 123.635 40.6143 124.169 39.8459C124.646 39.1587 125.077 38.9635 124.955 39.0275C124.822 39.0971 124.326 39.3168 123.306 39.5101C122.306 39.6996 120.969 39.832 119.273 39.832V49.832V59.832C124.453 59.832 129.792 59.0688 134.228 56.7479C139.073 54.2127 143.304 49.4067 143.367 42.4893L133.367 42.3984ZM119.273 49.832V39.832C117.618 39.832 116.304 39.7008 115.316 39.5124C114.307 39.3199 113.813 39.1011 113.681 39.0317C113.555 38.966 114.002 39.1685 114.494 39.8825C115.048 40.6869 115.316 41.6501 115.308 42.4893L105.309 42.3984L95.309 42.3075C95.2449 49.3639 99.5795 54.22 104.392 56.7437C108.816 59.0642 114.143 59.832 119.273 59.832V49.832ZM105.309 42.3984L115.308 42.3075C115.316 43.1467 115.048 44.11 114.494 44.9143C114.002 45.6284 113.555 45.8309 113.681 45.7652C113.813 45.6958 114.307 45.477 115.316 45.2845C116.304 45.0961 117.618 44.9648 119.273 44.9648V34.9648V24.9648C114.143 24.9648 108.816 25.7327 104.392 28.0532C99.5795 30.5769 95.2449 35.433 95.309 42.4893L105.309 42.3984ZM119.273 40.0781V30.0781C116.777 30.0781 113.662 30.1913 110.917 31.0513C109.474 31.5038 107.28 32.4155 105.385 34.396C103.221 36.6563 102.184 39.5355 102.184 42.3984H112.184H122.184C122.184 44.402 121.425 46.5615 119.833 48.2256C118.507 49.6099 117.176 50.049 116.898 50.1362C116.555 50.2437 116.524 50.2044 117.046 50.1557C117.523 50.1112 118.24 50.0781 119.273 50.0781V40.0781ZM112.184 42.3984H102.184C102.184 45.3865 103.324 48.2646 105.48 50.4562C107.357 52.3643 109.505 53.2492 110.917 53.6919C113.638 54.5443 116.721 54.6758 119.273 54.6758V44.6758V34.6758C118.257 34.6758 117.547 34.641 117.076 34.5956C116.562 34.5462 116.576 34.5062 116.898 34.607C117.145 34.6844 118.431 35.102 119.737 36.43C120.439 37.143 121.095 38.0699 121.555 39.2042C122.014 40.3355 122.184 41.4383 122.184 42.3984H112.184ZM119.273 44.6758V54.6758C121.852 54.6758 124.951 54.5469 127.68 53.6879C129.113 53.2367 131.243 52.3454 133.105 50.4478C135.222 48.2909 136.328 45.5094 136.403 42.6615L126.406 42.3984L116.41 42.1354C116.463 40.1039 117.284 38.0152 118.832 36.4384C120.125 35.1209 121.401 34.6969 121.674 34.6109C122.008 34.5059 122.031 34.5455 121.513 34.5951C121.037 34.6407 120.316 34.6758 119.273 34.6758V44.6758ZM126.406 42.3984L136.403 42.1485C136.335 39.4155 135.324 36.628 133.201 34.4045C131.32 32.4348 129.144 31.5164 127.68 31.0553C124.927 30.1888 121.797 30.0781 119.273 30.0781V40.0781V50.0781C120.333 50.0781 121.061 50.1115 121.542 50.1562C122.069 50.205 122.029 50.2441 121.674 50.1322C121.369 50.0363 120.048 49.5906 118.736 48.2171C117.182 46.5898 116.456 44.522 116.409 42.6484L126.406 42.3984ZM173.156 28.2187H183.156C183.156 22.6959 178.679 18.2187 173.156 18.2187V28.2187ZM173.156 33.6328V43.6328C178.679 43.6328 183.156 39.1557 183.156 33.6328H173.156ZM136.805 33.6328H126.805C126.805 39.1557 131.282 43.6328 136.805 43.6328V33.6328ZM136.805 28.2187V18.2187C131.282 18.2187 126.805 22.6959 126.805 28.2187H136.805ZM151.629 28.2187V38.2187C157.152 38.2187 161.629 33.7416 161.629 28.2187H151.629ZM151.629 25.6406H161.629C161.629 20.1178 157.152 15.6406 151.629 15.6406V25.6406ZM141.102 25.6406H131.102C131.102 31.1635 135.579 35.6406 141.102 35.6406V25.6406ZM141.102 11.7187V1.71875C135.579 1.71875 131.102 6.1959 131.102 11.7187H141.102ZM168.902 11.7187L178.902 11.7187C178.902 6.1959 174.425 1.71875 168.902 1.71875V11.7187ZM168.902 17.0469V27.0469C174.425 27.0469 178.902 22.5697 178.902 17.0469H168.902ZM147.934 17.0469V7.04687C142.411 7.04687 137.934 11.524 137.934 17.0469H147.934ZM147.934 20.2695H137.934C137.934 25.7924 142.411 30.2695 147.934 30.2695V20.2695ZM169.074 20.2695H179.074C179.074 14.7467 174.597 10.2695 169.074 10.2695V20.2695ZM169.074 25.6406V35.6406C174.597 35.6406 179.074 31.1635 179.074 25.6406H169.074ZM158.418 25.6406V15.6406C152.895 15.6406 148.418 20.1178 148.418 25.6406H158.418ZM158.418 28.2187H148.418C148.418 33.7416 152.895 38.2187 158.418 38.2187V28.2187ZM168.773 42.4844L178.773 42.5761C178.774 42.5158 178.774 42.4554 178.773 42.3951L168.773 42.4844ZM147.848 42.4844L157.844 42.7474C157.849 42.5697 157.849 42.3919 157.844 42.2142L147.848 42.4844ZM173.156 28.2187H163.156V33.6328H173.156H183.156V28.2187H173.156ZM173.156 33.6328V23.6328H136.805V33.6328V43.6328L173.156 43.6328V33.6328ZM136.805 33.6328L146.805 33.6328V28.2187H136.805H126.805V33.6328H136.805ZM136.805 28.2187V38.2188L151.629 38.2187V28.2187V18.2187H136.805V28.2187ZM151.629 28.2187H161.629V25.6406H151.629H141.629V28.2187H151.629ZM151.629 25.6406V15.6406H141.102V25.6406V35.6406H151.629V25.6406ZM141.102 25.6406H151.102V11.7187H141.102H131.102V25.6406H141.102ZM141.102 11.7187V21.7187H168.902V11.7187V1.71875L141.102 1.71875V11.7187ZM168.902 11.7187H158.902V17.0469H168.902H178.902V11.7187L168.902 11.7187ZM168.902 17.0469V7.04687H147.934V17.0469V27.0469H168.902V17.0469ZM147.934 17.0469H137.934V20.2695H147.934H157.934V17.0469H147.934ZM147.934 20.2695V30.2695H169.074V20.2695V10.2695H147.934V20.2695ZM169.074 20.2695H159.074V25.6406H169.074H179.074V20.2695H169.074ZM169.074 25.6406V15.6406H158.418V25.6406V35.6406H169.074V25.6406ZM158.418 25.6406H148.418V28.2187H158.418H168.418V25.6406H158.418ZM158.418 28.2187V38.2187H173.156V28.2187V18.2187H158.418V28.2187ZM154.852 35.0078V45.0078C156.53 45.0078 157.842 45.1382 158.814 45.3232C159.807 45.5119 160.267 45.7233 160.366 45.7759C160.448 45.8193 160.002 45.6018 159.527 44.9032C159.004 44.1321 158.78 43.2624 158.774 42.5737L168.773 42.4844L178.773 42.3951C178.712 35.5704 174.648 30.7117 169.737 28.1069C165.302 25.7549 159.971 25.0078 154.852 25.0078V35.0078ZM168.773 42.4844L158.774 42.3926C158.781 41.6161 159.036 40.7094 159.568 39.9387C160.045 39.246 160.483 39.0398 160.382 39.0933C160.268 39.1532 159.796 39.367 158.803 39.557C157.83 39.7433 156.521 39.875 154.852 39.875V49.875V59.875C159.999 59.875 165.309 59.1088 169.721 56.7787C174.548 54.2299 178.71 49.4289 178.773 42.5761L168.773 42.4844ZM154.852 49.875V39.875C153.156 39.875 151.818 39.7426 150.817 39.5532C149.795 39.3598 149.299 39.1403 149.168 39.0719C149.046 39.0082 149.491 39.2102 149.982 39.9182C150.533 40.7124 150.801 41.6601 150.801 42.4844H140.801L130.801 42.4844C130.801 49.458 135.082 54.2788 139.91 56.8001C144.337 59.112 149.673 59.875 154.852 59.875V49.875ZM140.801 42.4844H150.801C150.801 43.2189 150.565 44.1288 150.023 44.9237C149.535 45.6379 149.081 45.8511 149.184 45.7974C149.3 45.7362 149.785 45.5191 150.806 45.327C151.806 45.139 153.147 45.0078 154.852 45.0078V35.0078V25.0078C149.701 25.0078 144.344 25.7518 139.895 28.0854C134.979 30.6634 130.801 35.5415 130.801 42.4844L140.801 42.4844ZM154.852 40.207V30.207C152.247 30.207 149.128 30.348 146.386 31.2405C144.955 31.7061 142.779 32.6394 140.915 34.6383C138.778 36.93 137.773 39.8506 137.851 42.7545L147.848 42.4844L157.844 42.2142C157.901 44.3233 157.143 46.5617 155.543 48.2774C154.216 49.7002 152.867 50.1635 152.575 50.2585C152.212 50.3767 152.163 50.3396 152.663 50.2895C153.119 50.2439 153.824 50.207 154.852 50.207V40.207ZM147.848 42.4844L137.851 42.2213C137.776 45.0698 138.741 48.0527 140.988 50.4122C142.927 52.4486 145.182 53.3406 146.59 53.7657C149.279 54.5772 152.364 54.6758 154.852 54.6758V44.6758V34.6758C153.778 34.6758 153.034 34.6444 152.537 34.6009C151.99 34.5532 152.02 34.5134 152.371 34.6191C152.64 34.7005 154.068 35.1466 155.47 36.6191C156.224 37.4102 156.883 38.4115 157.319 39.5945C157.748 40.7616 157.868 41.8554 157.844 42.7474L147.848 42.4844ZM154.852 44.6758V54.6758C157.306 54.6758 160.35 54.5726 163.023 53.7731C164.416 53.3565 166.606 52.4983 168.526 50.5698C170.747 48.3382 171.855 45.4279 171.855 42.4844H161.855H151.855C151.855 41.5491 152.017 40.4468 152.48 39.3006C152.947 38.1466 153.619 37.1962 154.35 36.4615C155.708 35.0969 157.049 34.6845 157.293 34.6117C157.616 34.515 157.629 34.5547 157.097 34.6017C156.61 34.6447 155.887 34.6758 154.852 34.6758V44.6758ZM161.855 42.4844H171.855C171.855 39.4937 170.71 36.6445 168.6 34.4792C166.755 32.5853 164.64 31.6877 163.227 31.232C160.503 30.3536 157.426 30.207 154.852 30.207V40.207V50.207C155.84 50.207 156.524 50.2434 156.969 50.2885C157.455 50.3377 157.424 50.3749 157.089 50.267C156.825 50.1819 155.56 49.7543 154.276 48.4365C152.727 46.8472 151.855 44.6801 151.855 42.4844H161.855ZM208.391 10H218.391C218.391 4.47715 213.913 0 208.391 0V10ZM208.391 49.875V59.875C213.913 59.875 218.391 55.3978 218.391 49.875H208.391ZM201.43 49.875H191.43C191.43 55.3978 195.907 59.875 201.43 59.875V49.875ZM201.43 10V0C195.907 0 191.43 4.47715 191.43 10H201.43ZM186.562 12.6641L186.493 22.6638C186.54 22.6641 186.587 22.6641 186.633 22.6638L186.562 12.6641ZM186.562 18.8945L186.393 28.8931C186.51 28.8951 186.627 28.895 186.744 28.8929L186.562 18.8945ZM208.391 10H198.391V49.875H208.391H218.391V10H208.391ZM208.391 49.875V39.875H201.43V49.875V59.875H208.391V49.875ZM201.43 49.875H211.43V10H201.43H191.43V49.875H201.43ZM201.43 10V20L208.391 20V10V0H201.43V10ZM186.562 12.6641L186.633 22.6638C186.566 22.6643 186.396 22.6406 186.221 22.5508C186.059 22.4681 186.068 22.4198 186.189 22.5782C186.459 22.9327 187.176 24.2334 187.176 26.9727H197.176L207.176 26.9727C207.176 20.9463 205.615 15.0712 202.093 10.4521C198.446 5.66819 192.913 2.61877 186.492 2.66431L186.562 12.6641ZM197.176 26.9727H187.176C187.176 29.8028 186.446 31.1249 186.176 31.4804C186.056 31.6391 186.044 31.594 186.199 31.5147C186.364 31.4293 186.517 31.4102 186.562 31.4102V41.4102V51.4102C192.936 51.4102 198.455 48.3834 202.106 43.5733C205.628 38.9337 207.176 33.0371 207.176 26.9727L197.176 26.9727ZM186.562 41.4102V31.4102C186.541 31.4102 186.646 31.4135 186.783 31.483C186.911 31.5479 186.893 31.5815 186.773 31.4265C186.508 31.0816 185.777 29.7839 185.777 26.9727H175.777H165.777C165.777 33.056 167.346 38.977 170.926 43.6273C174.639 48.4498 180.2 51.4102 186.562 51.4102V41.4102ZM175.777 26.9727H185.777C185.777 24.2526 186.494 22.9762 186.761 22.632C186.88 22.4774 186.897 22.5139 186.761 22.5822C186.701 22.6127 186.634 22.6363 186.572 22.6507C186.51 22.6649 186.48 22.6637 186.493 22.6638L186.562 12.6641L186.632 2.6643C180.223 2.6198 174.648 5.60151 170.939 10.3982C167.359 15.0277 165.777 20.9271 165.777 26.9727H175.777ZM186.562 18.8945L186.732 8.89597C181.1 8.80052 176.902 12.0746 174.729 16.1436C172.888 19.59 172.438 23.5385 172.438 26.9727H182.438H192.438C192.438 26.0559 192.506 25.4897 192.558 25.2055C192.615 24.8993 192.621 25.0966 192.37 25.5664C192.104 26.0649 191.477 26.9904 190.263 27.7722C188.985 28.5955 187.589 28.9134 186.393 28.8931L186.562 18.8945ZM182.438 26.9727H172.438C172.438 30.4271 172.881 34.3944 174.737 37.8541C176.951 41.9836 181.126 45.0937 186.562 45.0937V35.0937V25.0937C187.673 25.0937 189.008 25.3965 190.255 26.1982C191.452 26.9673 192.084 27.8831 192.362 28.4018C192.621 28.8846 192.617 29.0928 192.56 28.7849C192.507 28.4977 192.438 27.9194 192.438 26.9727H182.438ZM186.562 35.0937V45.0937C192.162 45.0937 196.213 41.7294 198.289 37.7986C200.088 34.3926 200.559 30.4806 200.559 26.9727H190.559H180.559C180.559 27.9039 180.489 28.4806 180.435 28.7724C180.377 29.0842 180.367 28.9062 180.605 28.4572C180.853 27.9865 181.449 27.0851 182.621 26.3005C183.861 25.4703 185.27 25.0937 186.562 25.0937V35.0937ZM190.559 26.9727H200.559C200.559 23.4853 200.081 19.5914 198.297 16.199C196.266 12.3393 192.187 8.79061 186.381 8.89618L186.562 18.8945L186.744 28.8929C185.358 28.9181 183.883 28.5217 182.613 27.6697C181.424 26.8723 180.834 25.9614 180.597 25.511C180.367 25.075 180.378 24.9078 180.436 25.218C180.49 25.507 180.559 26.0715 180.559 26.9727H190.559ZM233.742 11.0312L233.673 21.031C233.719 21.0313 233.766 21.0313 233.812 21.031L233.742 11.0312ZM222.871 20.2695L232.871 20.3502C232.871 20.2966 232.871 20.2431 232.871 20.1895L222.871 20.2695ZM233.742 16.5742L233.918 6.57576C233.801 6.57371 233.684 6.57371 233.567 6.57576L233.742 16.5742ZM229.531 20.2695L239.53 20.4449C239.532 20.329 239.532 20.2131 239.53 20.0971L229.531 20.2695ZM255.957 10H265.957C265.957 4.47715 261.48 0 255.957 0V10ZM255.957 29.6367V39.6367C261.48 39.6367 265.957 35.1596 265.957 29.6367H255.957ZM249.039 29.6367H239.039C239.039 35.1596 243.516 39.6367 249.039 39.6367V29.6367ZM249.039 10V0C243.516 0 239.039 4.47715 239.039 10H249.039ZM255.957 31.0977H265.957C265.957 25.5748 261.48 21.0977 255.957 21.0977V31.0977ZM255.957 42.6562V52.6562C261.48 52.6562 265.957 48.1791 265.957 42.6562H255.957ZM235.633 42.6562V32.6562C230.11 32.6562 225.633 37.1334 225.633 42.6562H235.633ZM235.633 44.0312H225.633C225.633 49.5541 230.11 54.0312 235.633 54.0312V44.0312ZM256.816 44.0312H266.816C266.816 38.5084 262.339 34.0312 256.816 34.0312V44.0312ZM256.816 49.4023V59.4023C262.339 59.4023 266.816 54.9252 266.816 49.4023H256.816ZM228.887 49.4023H218.887C218.887 54.9252 223.364 59.4023 228.887 59.4023V49.4023ZM228.887 37.7148V27.7148C223.364 27.7148 218.887 32.192 218.887 37.7148H228.887ZM249.082 37.7148V47.7148C254.605 47.7148 259.082 43.2377 259.082 37.7148H249.082ZM249.082 36.3398H259.082C259.082 30.817 254.605 26.3398 249.082 26.3398V36.3398ZM228.801 36.3398H218.801C218.801 41.8627 223.278 46.3398 228.801 46.3398V36.3398ZM228.801 31.0977V21.0977C223.278 21.0977 218.801 25.5748 218.801 31.0977H228.801ZM233.742 11.0312L233.812 21.031C234.775 21.0243 235.085 21.3252 234.994 21.2484C234.945 21.2068 234.824 21.0839 234.718 20.8612C234.606 20.628 234.57 20.4069 234.57 20.2695H244.57H254.57C254.57 7.91744 243.82 0.960535 233.672 1.03149L233.742 11.0312ZM244.57 20.2695H234.57C234.57 20.108 234.612 19.8657 234.732 19.6174C234.846 19.3806 234.974 19.2545 235.019 19.2161C235.098 19.1499 234.754 19.4648 233.742 19.4648V29.4648V39.4648C243.73 39.4648 254.57 32.662 254.57 20.2695H244.57ZM233.742 29.4648V19.4648C232.687 19.4648 232.317 19.1369 232.391 19.1986C232.436 19.2366 232.573 19.3701 232.696 19.6263C232.826 19.8954 232.872 20.1632 232.871 20.3502L222.871 20.2695L212.871 20.1889C212.77 32.7355 223.824 39.4648 233.742 39.4648V29.4648ZM222.871 20.2695L232.871 20.1895C232.872 20.352 232.831 20.5985 232.711 20.8524C232.595 21.0944 232.464 21.2247 232.415 21.266C232.33 21.3383 232.666 21.024 233.673 21.031L233.742 11.0312L233.812 1.03149C223.734 0.961509 212.771 7.84291 212.871 20.3495L222.871 20.2695ZM233.742 16.5742L233.567 6.57576C230.988 6.62099 227.479 7.25397 224.421 9.72192C220.995 12.4874 219.465 16.4849 219.533 20.4419L229.531 20.2695L239.53 20.0971C239.54 20.7039 239.441 21.6214 238.987 22.6585C238.522 23.7198 237.81 24.6171 236.983 25.2849C235.429 26.539 234.047 26.5704 233.918 26.5727L233.742 16.5742ZM229.531 20.2695L219.533 20.0941C219.463 24.0535 221.007 28.013 224.355 30.7629C227.406 33.2697 230.963 33.9648 233.742 33.9648V23.9648V13.9648C234.072 13.9648 235.502 14.037 237.05 15.3084C238.893 16.8229 239.556 18.9348 239.53 20.4449L229.531 20.2695ZM233.742 23.9648V33.9648C236.536 33.9648 240.117 33.2609 243.174 30.6949C246.481 27.9187 247.91 24.0222 247.91 20.2695H237.91H227.91C227.91 18.966 228.48 16.9173 230.315 15.3764C231.901 14.0457 233.397 13.9648 233.742 13.9648V23.9648ZM237.91 20.2695H247.91C247.91 16.5168 246.492 12.5806 243.108 9.78899C240.044 7.26229 236.511 6.62125 233.918 6.57576L233.742 16.5742L233.567 26.5727C233.423 26.5702 231.973 26.5307 230.382 25.2178C229.547 24.5292 228.866 23.6346 228.429 22.6247C228.004 21.6451 227.91 20.799 227.91 20.2695H237.91ZM255.957 10H245.957V29.6367H255.957H265.957V10H255.957ZM255.957 29.6367V19.6367H249.039V29.6367V39.6367H255.957V29.6367ZM249.039 29.6367H259.039V10H249.039H239.039V29.6367H249.039ZM249.039 10V20H255.957V10V0H249.039V10ZM255.957 31.0977H245.957V42.6562H255.957H265.957V31.0977H255.957ZM255.957 42.6562V32.6562H235.633V42.6562V52.6562H255.957V42.6562ZM235.633 42.6562H225.633V44.0312H235.633H245.633V42.6562H235.633ZM235.633 44.0312V54.0312H256.816V44.0312V34.0312H235.633V44.0312ZM256.816 44.0312H246.816V49.4023H256.816H266.816V44.0312H256.816ZM256.816 49.4023V39.4023H228.887V49.4023V59.4023H256.816V49.4023ZM228.887 49.4023H238.887V37.7148H228.887H218.887V49.4023H228.887ZM228.887 37.7148V47.7148H249.082V37.7148V27.7148H228.887V37.7148ZM249.082 37.7148H259.082V36.3398H249.082H239.082V37.7148H249.082ZM249.082 36.3398V26.3398H228.801V36.3398V46.3398H249.082V36.3398ZM228.801 36.3398H238.801V31.0977H228.801H218.801V36.3398H228.801ZM228.801 31.0977V41.0977H255.957V31.0977V21.0977H228.801V31.0977ZM293.941 10L303.941 10C303.941 4.47715 299.464 0 293.941 0V10ZM293.941 49.7461V59.7461C299.464 59.7461 303.941 55.2689 303.941 49.7461H293.941ZM287.066 49.7461H277.066C277.066 55.2689 281.544 59.7461 287.066 59.7461V49.7461ZM287.066 10V0C281.544 0 277.066 4.47715 277.066 10H287.066ZM285.949 36.7266L294.154 42.4431C295.89 39.9515 296.4 36.8061 295.54 33.8937C294.679 30.9814 292.542 28.6178 289.731 27.4693L285.949 36.7266ZM282.297 41.9687L278.661 51.2845C282.966 52.9643 287.861 51.4764 290.502 47.6853L282.297 41.9687ZM273.188 32.6875L282.401 28.8005C280.823 25.0602 277.141 22.6449 273.081 22.6881C269.022 22.7312 265.391 25.2241 263.893 28.9972L273.188 32.6875ZM263.906 42.5273L255.67 48.1984C258.308 52.0294 263.238 53.5359 267.567 51.8332L263.906 42.5273ZM260.297 37.2852L256.33 28.1055C253.584 29.2922 251.513 31.6464 250.686 34.5219C249.859 37.3973 250.364 40.4919 252.06 42.9562L260.297 37.2852ZM269.664 21.6875H279.664C279.664 16.1647 275.187 11.6875 269.664 11.6875V21.6875ZM261.801 21.6875H251.801C251.801 27.2103 256.278 31.6875 261.801 31.6875V21.6875ZM261.801 16.2305V6.23047C256.278 6.23047 251.801 10.7076 251.801 16.2305H261.801ZM269.621 16.2305V26.2305C275.144 26.2305 279.621 21.7533 279.621 16.2305H269.621ZM269.621 11.0312V1.03125C264.098 1.03125 259.621 5.5084 259.621 11.0312H269.621ZM276.496 11.0312H286.496C286.496 5.5084 282.019 1.03125 276.496 1.03125V11.0312ZM276.496 16.2305H266.496C266.496 21.7533 270.973 26.2305 276.496 26.2305V16.2305ZM284.188 16.2305H294.188C294.188 10.7076 289.71 6.23047 284.188 6.23047V16.2305ZM284.188 21.6875V31.6875C289.71 31.6875 294.188 27.2103 294.188 21.6875H284.188ZM276.582 21.6875V11.6875C271.059 11.6875 266.582 16.1647 266.582 21.6875H276.582ZM293.941 10H283.941V49.7461H293.941H303.941V10L293.941 10ZM293.941 49.7461V39.7461H287.066V49.7461V59.7461H293.941V49.7461ZM287.066 49.7461H297.066V10H287.066H277.066V49.7461H287.066ZM287.066 10V20H293.941V10V0L287.066 0V10ZM276.582 22.2031H266.582C266.582 29.9923 270.192 41.0916 282.167 45.9838L285.949 36.7266L289.731 27.4693C288.441 26.9424 287.788 26.2242 287.362 25.4579C286.86 24.5544 286.582 23.3727 286.582 22.2031H276.582ZM285.949 36.7266L277.744 31.01L274.092 36.2522L282.297 41.9687L290.502 47.6853L294.154 42.4431L285.949 36.7266ZM282.297 41.9687L285.932 32.653C284.553 32.1146 283.324 30.9891 282.401 28.8005L273.188 32.6875L263.974 36.5745C266.531 42.6359 271.232 48.3854 278.661 51.2845L282.297 41.9687ZM273.188 32.6875L263.893 28.9972C262.896 31.5089 261.58 32.6965 260.246 33.2214L263.906 42.5273L267.567 51.8332C275.299 48.7918 279.999 42.6317 282.482 36.3778L273.188 32.6875ZM263.906 42.5273L272.143 36.8563L268.533 31.6141L260.297 37.2852L252.06 42.9562L255.67 48.1984L263.906 42.5273ZM260.297 37.2852L264.263 46.4648C276.052 41.3711 279.664 30.1614 279.664 22.2031H269.664H259.664C259.664 23.5167 259.358 24.8491 258.797 25.8848C258.303 26.797 257.584 27.5636 256.33 28.1055L260.297 37.2852ZM269.664 22.2031H279.664V21.6875H269.664H259.664V22.2031H269.664ZM269.664 21.6875V11.6875H261.801V21.6875V31.6875H269.664V21.6875ZM261.801 21.6875H271.801V16.2305H261.801H251.801V21.6875H261.801ZM261.801 16.2305V26.2305H269.621V16.2305V6.23047H261.801V16.2305ZM269.621 16.2305H279.621V11.0312H269.621H259.621V16.2305H269.621ZM269.621 11.0312V21.0312H276.496V11.0312V1.03125H269.621V11.0312ZM276.496 11.0312H266.496V16.2305H276.496H286.496V11.0312H276.496ZM276.496 16.2305V26.2305H284.188V16.2305V6.23047H276.496V16.2305ZM284.188 16.2305H274.188V21.6875H284.188H294.188V16.2305H284.188ZM284.188 21.6875V11.6875H276.582V21.6875V31.6875H284.188V21.6875ZM276.582 21.6875H266.582V22.2031H276.582H286.582V21.6875H276.582ZM330.207 10H340.207C340.207 4.47715 335.73 0 330.207 0V10ZM330.207 25.082H320.207C320.207 30.6049 324.684 35.082 330.207 35.082V25.082ZM335.578 25.082H345.578C345.578 19.5592 341.101 15.082 335.578 15.082V25.082ZM335.578 30.7109V40.7109C341.101 40.7109 345.578 36.2338 345.578 30.7109H335.578ZM330.207 30.7109V20.7109C324.684 20.7109 320.207 25.1881 320.207 30.7109H330.207ZM330.207 49.7461V59.7461C335.73 59.7461 340.207 55.2689 340.207 49.7461H330.207ZM323.375 49.7461H313.375C313.375 55.2689 317.852 59.7461 323.375 59.7461V49.7461ZM323.375 10V0C317.852 0 313.375 4.47715 313.375 10H323.375ZM321.441 15.6719H331.441C331.441 10.149 326.964 5.67187 321.441 5.67187V15.6719ZM321.441 21.1289V31.1289C326.964 31.1289 331.441 26.6518 331.441 21.1289H321.441ZM298.281 21.1289H288.281C288.281 26.6518 292.758 31.1289 298.281 31.1289V21.1289ZM298.281 15.6719V5.67187C292.758 5.67187 288.281 10.149 288.281 15.6719H298.281ZM306.488 15.6719V25.6719C312.011 25.6719 316.488 21.1947 316.488 15.6719H306.488ZM306.488 10.7305V0.730469C300.965 0.730469 296.488 5.20762 296.488 10.7305L306.488 10.7305ZM313.363 10.7305H323.363C323.363 5.20762 318.886 0.730469 313.363 0.730469V10.7305ZM313.363 15.6719H303.363C303.363 21.1947 307.84 25.6719 313.363 25.6719V15.6719ZM306.102 32.3437L316.1 32.4976C316.102 32.3926 316.102 32.2875 316.1 32.1825L306.102 32.3437ZM330.207 10H320.207V25.082H330.207L340.207 25.082V10H330.207ZM330.207 25.082V35.082H335.578V25.082V15.082L330.207 15.082V25.082ZM335.578 25.082L325.578 25.082V30.7109H335.578H345.578V25.082H335.578ZM335.578 30.7109V20.7109L330.207 20.7109V30.7109V40.7109H335.578V30.7109ZM330.207 30.7109H320.207V49.7461H330.207H340.207V30.7109H330.207ZM330.207 49.7461V39.7461H323.375V49.7461V59.7461H330.207V49.7461ZM323.375 49.7461H333.375V10H323.375H313.375V49.7461H323.375ZM323.375 10V20H330.207V10V0L323.375 0V10ZM321.441 15.6719H311.441V21.1289H321.441H331.441V15.6719H321.441ZM321.441 21.1289V11.1289L298.281 11.1289V21.1289V31.1289H321.441V21.1289ZM298.281 21.1289H308.281V15.6719H298.281H288.281V21.1289H298.281ZM298.281 15.6719V25.6719H306.488V15.6719V5.67187L298.281 5.67187V15.6719ZM306.488 15.6719H316.488V10.7305H306.488L296.488 10.7305V15.6719H306.488ZM306.488 10.7305V20.7305H313.363V10.7305V0.730469H306.488V10.7305ZM313.363 10.7305H303.363V15.6719H313.363H323.363V10.7305H313.363ZM313.363 15.6719V25.6719H321.441V15.6719V5.67187H313.363V15.6719ZM309.926 22.6758V32.6758C310.252 32.6758 310.45 32.7311 310.539 32.7641C310.628 32.7974 310.621 32.8128 310.565 32.7608C310.505 32.7055 310.429 32.6106 310.374 32.4862C310.317 32.3569 310.324 32.29 310.324 32.3437H320.324H330.324C330.324 20.4166 320.527 12.6758 309.926 12.6758V22.6758ZM320.324 32.3437H310.324C310.324 32.4188 310.313 32.3657 310.367 32.2435C310.418 32.1256 310.492 32.0317 310.553 31.9749C310.611 31.9214 310.621 31.9351 310.534 31.9673C310.449 31.9994 310.252 32.0547 309.926 32.0547V42.0547V52.0547C320.557 52.0547 330.324 44.2857 330.324 32.3437H320.324ZM309.926 42.0547V32.0547C309.542 32.0547 309.32 31.9911 309.232 31.9582C309.144 31.9257 309.166 31.9166 309.239 31.9846C309.316 32.056 309.396 32.1625 309.448 32.2831C309.501 32.4057 309.484 32.4461 309.484 32.3437H299.484H289.484C289.484 44.2597 299.137 52.0547 309.926 52.0547V42.0547ZM299.484 32.3437H309.484C309.484 32.2625 309.497 32.3167 309.44 32.4465C309.385 32.5737 309.303 32.6813 309.228 32.751C309.155 32.8175 309.136 32.8068 309.227 32.7732C309.319 32.7394 309.543 32.6758 309.926 32.6758V22.6758V12.6758C299.168 12.6758 289.484 20.4426 289.484 32.3437H299.484ZM309.926 28.2187V18.2187C306.612 18.2187 302.891 19.3418 300.007 22.2942C297.102 25.2668 296.047 29.0654 296.103 32.505L306.102 32.3437L316.1 32.1825C316.113 32.958 315.853 34.6941 314.313 36.2703C312.793 37.8262 311.005 38.2187 309.926 38.2187V28.2187ZM306.102 32.3437L296.103 32.1899C296.051 35.5736 297.039 39.4751 300.089 42.5247C303.09 45.5265 306.859 46.4687 309.926 46.4687V36.4687V26.4687C310.758 26.4687 312.593 26.745 314.231 28.3825C315.916 30.0678 316.109 31.9069 316.1 32.4976L306.102 32.3437ZM309.926 36.4687V46.4687C313.039 46.4687 316.796 45.4854 319.765 42.4683C322.738 39.448 323.707 35.6263 323.707 32.3437H313.707H303.707C303.707 31.8542 303.881 30.095 305.511 28.4389C307.138 26.7861 309.004 26.4687 309.926 26.4687V36.4687ZM313.707 32.3437H323.707C323.707 29.0131 322.678 25.2955 319.847 22.3511C316.998 19.3886 313.29 18.2187 309.926 18.2187V28.2187V38.2187C308.753 38.2187 306.936 37.7793 305.43 36.2133C303.942 34.6654 303.707 33.0104 303.707 32.3437H313.707ZM368.879 20.0977H378.879C378.879 14.5748 374.402 10.0977 368.879 10.0977V20.0977ZM368.879 25.4258V35.4258C374.402 35.4258 378.879 30.9486 378.879 25.4258H368.879ZM340.777 25.4258L330.777 25.4258C330.777 30.9486 335.254 35.4258 340.777 35.4258V25.4258ZM340.777 11.418V1.41797C335.254 1.41797 330.777 5.89512 330.777 11.418H340.777ZM347.652 11.418H357.652C357.652 5.89512 353.175 1.41797 347.652 1.41797V11.418ZM347.652 20.0977H337.652C337.652 25.6205 342.129 30.0977 347.652 30.0977V20.0977ZM372.789 28.9492H382.789C382.789 23.4264 378.312 18.9492 372.789 18.9492V28.9492ZM372.789 34.2773V44.2773C378.312 44.2773 382.789 39.8002 382.789 34.2773H372.789ZM336.523 34.2773H326.523C326.523 39.8002 331.001 44.2773 336.523 44.2773V34.2773ZM336.523 28.9492V18.9492C331.001 18.9492 326.523 23.4264 326.523 28.9492H336.523ZM369.137 43.4727H379.137C379.137 37.9498 374.66 33.4727 369.137 33.4727V43.4727ZM369.137 48.9727V58.9727C374.66 58.9727 379.137 54.4955 379.137 48.9727H369.137ZM340.305 48.9727H330.305C330.305 54.4955 334.782 58.9727 340.305 58.9727V48.9727ZM340.305 37.0273V27.0273C334.782 27.0273 330.305 31.5045 330.305 37.0273H340.305ZM347.266 37.0273H357.266C357.266 31.5045 352.788 27.0273 347.266 27.0273V37.0273ZM347.266 43.4727H337.266C337.266 48.9955 341.743 53.4727 347.266 53.4727V43.4727ZM368.879 20.0977H358.879V25.4258H368.879H378.879V20.0977H368.879ZM368.879 25.4258V15.4258H340.777V25.4258V35.4258H368.879V25.4258ZM340.777 25.4258H350.777V11.418H340.777H330.777V25.4258L340.777 25.4258ZM340.777 11.418V21.418H347.652V11.418V1.41797H340.777V11.418ZM347.652 11.418H337.652V20.0977H347.652H357.652V11.418H347.652ZM347.652 20.0977V30.0977H368.879V20.0977V10.0977L347.652 10.0977V20.0977ZM372.789 28.9492H362.789V34.2773H372.789H382.789V28.9492H372.789ZM372.789 34.2773V24.2773H336.523V34.2773V44.2773H372.789V34.2773ZM336.523 34.2773H346.523V28.9492H336.523H326.523V34.2773H336.523ZM336.523 28.9492V38.9492H372.789V28.9492V18.9492H336.523V28.9492ZM369.137 43.4727H359.137V48.9727H369.137H379.137V43.4727H369.137ZM369.137 48.9727V38.9727H340.305V48.9727V58.9727H369.137V48.9727ZM340.305 48.9727H350.305V37.0273H340.305H330.305V48.9727H340.305ZM340.305 37.0273V47.0273H347.266V37.0273V27.0273H340.305V37.0273ZM347.266 37.0273H337.266V43.4727H347.266H357.266V37.0273H347.266ZM347.266 43.4727V53.4727H369.137V43.4727V33.4727H347.266V43.4727Z" fill="white" mask="url(#path-1-outside-1_6524_1877)"/>
</g>
<defs>
<filter id="filter0_d_6524_1877" x="0" y="0" width="386.789" height="67.875" filterUnits="userSpaceOnUse" color-interpolation-filters="sRGB">
<feFlood flood-opacity="0" result="BackgroundImageFix"/>
<feColorMatrix in="SourceAlpha" type="matrix" values="0 0 0 0 0 0 0 0 0 0 0 0 0 0 0 0 0 0 127 0" result="hardAlpha"/>
<feOffset dy="4"/>
<feGaussianBlur stdDeviation="2"/>
<feComposite in2="hardAlpha" operator="out"/>
<feColorMatrix type="matrix" values="0 0 0 0 0 0 0 0 0 0 0 0 0 0 0 0 0 0 0.07 0"/>
<feBlend mode="normal" in2="BackgroundImageFix" result="effect1_dropShadow_6524_1877"/>
<feBlend mode="normal" in="SourceGraphic" in2="effect1_dropShadow_6524_1877" result="shape"/>
</filter>
</defs>
</svg>
