<svg width="235" height="68" viewBox="0 0 235 68" fill="none" xmlns="http://www.w3.org/2000/svg">
<g filter="url(#filter0_d_6524_1788)">
<mask id="path-1-outside-1_6524_1788" maskUnits="userSpaceOnUse" x="3.65625" y="-0.507813" width="228" height="61" fill="black">
<rect fill="white" x="3.65625" y="-0.507813" width="228" height="61"/>
<path d="M44.9375 10V17.0898H49.8789V22.7617H44.9375V29.6367H38.0195V10H44.9375ZM33.5078 11.6328V28.5625H14L14 11.6328H33.5078ZM20.832 17.0469V23.1484H26.6758V17.0469H20.832ZM44.9375 31.0117V42.6133H24.7852V44.0312H45.8828V49.4023H17.9531V37.6719H38.0625V36.2539H17.9531V31.0117H44.9375ZM69.3008 10.5156C78.625 10.5156 83.9531 12.8789 83.9961 17.2187C83.9531 21.6016 78.625 23.9648 69.3008 23.9648C59.9336 23.9648 54.5195 21.6016 54.5625 17.2188C54.5195 12.8789 59.9336 10.5156 69.3008 10.5156ZM69.3008 15.5C63.9297 15.5 61.7812 16.0156 61.7812 17.2188C61.7812 18.6797 63.9297 18.9375 69.3008 18.9805C74.7148 18.9375 76.8633 18.6797 76.8633 17.2187C76.8633 16.0156 74.7148 15.5 69.3008 15.5ZM87.4336 25.2969V30.7539H51.168V25.2969L87.4336 25.2969ZM83.1367 32.2578V43.2148H61.9531V44.5039H84.082V49.5742H55.207V38.4883H76.3477V37.2852H55.25V32.2578H83.1367ZM121.379 11.6328V16.9609H114.289C114.955 20.1836 117.383 23.3418 123.012 24.8672L119.832 30.1523C115.449 29.0352 112.484 26.6504 110.723 23.6211C108.939 27.0586 105.889 29.7441 101.141 30.9688L97.7891 25.5977C103.74 23.9863 106.232 20.4844 106.898 16.9609H99.5938V11.6328H121.379ZM130.574 10V17.3477H135.516V22.8477H130.574V30.3242H123.656V10H130.574ZM130.574 31.6562V42.7852H110.422V44.2031L131.52 44.2031V49.3594L103.59 49.3594V38.0156H123.699V36.7695H103.59V31.6562H130.574ZM178.098 10V25.082H183.469V30.7109H178.098V49.7461H171.266V10H178.098ZM169.332 15.6719V21.1289H146.172V15.6719H154.379V10.7305H161.254V15.6719H169.332ZM157.816 22.6758C163.703 22.6758 168.215 26.7148 168.215 32.3437C168.215 38.0156 163.703 42.0547 157.816 42.0547C151.801 42.0547 147.375 38.0156 147.375 32.3437C147.375 26.7148 151.801 22.6758 157.816 22.6758ZM157.816 28.2187C155.582 28.2187 153.949 29.6797 153.992 32.3437C153.949 35.1367 155.582 36.4687 157.816 36.4687C160.008 36.4687 161.598 35.1367 161.598 32.3437C161.598 29.6797 160.008 28.2187 157.816 28.2187ZM216.77 20.0977V25.4258L188.668 25.4258V11.418H195.543V20.0977H216.77ZM220.68 28.9492V34.2773H184.414V28.9492H220.68ZM217.027 43.4727V48.9727H188.195V37.0273H195.156V43.4727H217.027Z"/>
</mask>
<path d="M44.9375 10V17.0898H49.8789V22.7617H44.9375V29.6367H38.0195V10H44.9375ZM33.5078 11.6328V28.5625H14L14 11.6328H33.5078ZM20.832 17.0469V23.1484H26.6758V17.0469H20.832ZM44.9375 31.0117V42.6133H24.7852V44.0312H45.8828V49.4023H17.9531V37.6719H38.0625V36.2539H17.9531V31.0117H44.9375ZM69.3008 10.5156C78.625 10.5156 83.9531 12.8789 83.9961 17.2187C83.9531 21.6016 78.625 23.9648 69.3008 23.9648C59.9336 23.9648 54.5195 21.6016 54.5625 17.2188C54.5195 12.8789 59.9336 10.5156 69.3008 10.5156ZM69.3008 15.5C63.9297 15.5 61.7812 16.0156 61.7812 17.2188C61.7812 18.6797 63.9297 18.9375 69.3008 18.9805C74.7148 18.9375 76.8633 18.6797 76.8633 17.2187C76.8633 16.0156 74.7148 15.5 69.3008 15.5ZM87.4336 25.2969V30.7539H51.168V25.2969L87.4336 25.2969ZM83.1367 32.2578V43.2148H61.9531V44.5039H84.082V49.5742H55.207V38.4883H76.3477V37.2852H55.25V32.2578H83.1367ZM121.379 11.6328V16.9609H114.289C114.955 20.1836 117.383 23.3418 123.012 24.8672L119.832 30.1523C115.449 29.0352 112.484 26.6504 110.723 23.6211C108.939 27.0586 105.889 29.7441 101.141 30.9688L97.7891 25.5977C103.74 23.9863 106.232 20.4844 106.898 16.9609H99.5938V11.6328H121.379ZM130.574 10V17.3477H135.516V22.8477H130.574V30.3242H123.656V10H130.574ZM130.574 31.6562V42.7852H110.422V44.2031L131.52 44.2031V49.3594L103.59 49.3594V38.0156H123.699V36.7695H103.59V31.6562H130.574ZM178.098 10V25.082H183.469V30.7109H178.098V49.7461H171.266V10H178.098ZM169.332 15.6719V21.1289H146.172V15.6719H154.379V10.7305H161.254V15.6719H169.332ZM157.816 22.6758C163.703 22.6758 168.215 26.7148 168.215 32.3437C168.215 38.0156 163.703 42.0547 157.816 42.0547C151.801 42.0547 147.375 38.0156 147.375 32.3437C147.375 26.7148 151.801 22.6758 157.816 22.6758ZM157.816 28.2187C155.582 28.2187 153.949 29.6797 153.992 32.3437C153.949 35.1367 155.582 36.4687 157.816 36.4687C160.008 36.4687 161.598 35.1367 161.598 32.3437C161.598 29.6797 160.008 28.2187 157.816 28.2187ZM216.77 20.0977V25.4258L188.668 25.4258V11.418H195.543V20.0977H216.77ZM220.68 28.9492V34.2773H184.414V28.9492H220.68ZM217.027 43.4727V48.9727H188.195V37.0273H195.156V43.4727H217.027Z" fill="#11DCA9"/>
<path d="M44.9375 10H54.9375C54.9375 4.47715 50.4603 0 44.9375 0V10ZM44.9375 17.0898H34.9375C34.9375 22.6127 39.4147 27.0898 44.9375 27.0898V17.0898ZM49.8789 17.0898H59.8789C59.8789 11.567 55.4018 7.08984 49.8789 7.08984V17.0898ZM49.8789 22.7617V32.7617C55.4018 32.7617 59.8789 28.2846 59.8789 22.7617H49.8789ZM44.9375 22.7617V12.7617C39.4147 12.7617 34.9375 17.2389 34.9375 22.7617H44.9375ZM44.9375 29.6367V39.6367C50.4603 39.6367 54.9375 35.1596 54.9375 29.6367H44.9375ZM38.0195 29.6367H28.0195C28.0195 35.1596 32.4967 39.6367 38.0195 39.6367V29.6367ZM38.0195 10V0C32.4967 0 28.0195 4.47715 28.0195 10L38.0195 10ZM33.5078 11.6328L43.5078 11.6328C43.5078 6.10997 39.0307 1.63281 33.5078 1.63281V11.6328ZM33.5078 28.5625V38.5625C39.0307 38.5625 43.5078 34.0853 43.5078 28.5625H33.5078ZM14 28.5625H4C4 34.0853 8.47715 38.5625 14 38.5625V28.5625ZM14 11.6328V1.63281C8.47715 1.63281 4 6.10997 4 11.6328H14ZM20.832 17.0469V7.04688C15.3092 7.04688 10.832 11.524 10.832 17.0469H20.832ZM20.832 23.1484H10.832C10.832 28.6713 15.3092 33.1484 20.832 33.1484V23.1484ZM26.6758 23.1484V33.1484C32.1986 33.1484 36.6758 28.6713 36.6758 23.1484H26.6758ZM26.6758 17.0469H36.6758C36.6758 11.524 32.1986 7.04688 26.6758 7.04688V17.0469ZM44.9375 31.0117H54.9375C54.9375 25.4889 50.4603 21.0117 44.9375 21.0117V31.0117ZM44.9375 42.6133V52.6133C50.4603 52.6133 54.9375 48.1361 54.9375 42.6133H44.9375ZM24.7852 42.6133V32.6133C19.2623 32.6133 14.7852 37.0904 14.7852 42.6133H24.7852ZM24.7852 44.0312H14.7852C14.7852 49.5541 19.2623 54.0312 24.7852 54.0312V44.0312ZM45.8828 44.0312H55.8828C55.8828 38.5084 51.4057 34.0312 45.8828 34.0312V44.0312ZM45.8828 49.4023V59.4023C51.4057 59.4023 55.8828 54.9252 55.8828 49.4023H45.8828ZM17.9531 49.4023H7.95313C7.95313 54.9252 12.4303 59.4023 17.9531 59.4023V49.4023ZM17.9531 37.6719V27.6719C12.4303 27.6719 7.95313 32.149 7.95313 37.6719H17.9531ZM38.0625 37.6719V47.6719C43.5853 47.6719 48.0625 43.1947 48.0625 37.6719H38.0625ZM38.0625 36.2539H48.0625C48.0625 30.7311 43.5853 26.2539 38.0625 26.2539V36.2539ZM17.9531 36.2539H7.95313C7.95313 41.7768 12.4303 46.2539 17.9531 46.2539V36.2539ZM17.9531 31.0117V21.0117C12.4303 21.0117 7.95313 25.4889 7.95313 31.0117H17.9531ZM44.9375 10H34.9375V17.0898H44.9375H54.9375V10H44.9375ZM44.9375 17.0898V27.0898H49.8789V17.0898V7.08984H44.9375V17.0898ZM49.8789 17.0898H39.8789V22.7617H49.8789H59.8789V17.0898H49.8789ZM49.8789 22.7617V12.7617H44.9375V22.7617V32.7617H49.8789V22.7617ZM44.9375 22.7617H34.9375V29.6367H44.9375H54.9375V22.7617H44.9375ZM44.9375 29.6367V19.6367H38.0195V29.6367V39.6367H44.9375V29.6367ZM38.0195 29.6367H48.0195V10H38.0195L28.0195 10V29.6367H38.0195ZM38.0195 10V20H44.9375V10V0L38.0195 0V10ZM33.5078 11.6328H23.5078V28.5625H33.5078H43.5078V11.6328L33.5078 11.6328ZM33.5078 28.5625V18.5625H14L14 28.5625V38.5625H33.5078V28.5625ZM14 28.5625H24V11.6328H14H4L4 28.5625H14ZM14 11.6328V21.6328H33.5078V11.6328V1.63281L14 1.63281V11.6328ZM20.832 17.0469H10.832V23.1484H20.832H30.832V17.0469H20.832ZM20.832 23.1484V33.1484H26.6758V23.1484V13.1484H20.832V23.1484ZM26.6758 23.1484H36.6758V17.0469H26.6758H16.6758V23.1484H26.6758ZM26.6758 17.0469V7.04688H20.832V17.0469V27.0469H26.6758V17.0469ZM44.9375 31.0117H34.9375V42.6133H44.9375H54.9375V31.0117H44.9375ZM44.9375 42.6133V32.6133H24.7852V42.6133V52.6133H44.9375V42.6133ZM24.7852 42.6133H14.7852V44.0312H24.7852H34.7852V42.6133H24.7852ZM24.7852 44.0312V54.0312H45.8828V44.0312V34.0312H24.7852V44.0312ZM45.8828 44.0312H35.8828V49.4023H45.8828H55.8828V44.0312H45.8828ZM45.8828 49.4023V39.4023H17.9531V49.4023V59.4023H45.8828V49.4023ZM17.9531 49.4023H27.9531V37.6719H17.9531H7.95313L7.95313 49.4023H17.9531ZM17.9531 37.6719V47.6719H38.0625V37.6719V27.6719H17.9531V37.6719ZM38.0625 37.6719H48.0625V36.2539H38.0625H28.0625V37.6719H38.0625ZM38.0625 36.2539V26.2539H17.9531V36.2539V46.2539H38.0625V36.2539ZM17.9531 36.2539H27.9531V31.0117H17.9531H7.95313V36.2539H17.9531ZM17.9531 31.0117V41.0117H44.9375V31.0117V21.0117H17.9531V31.0117ZM83.9961 17.2187L93.9956 17.3168C93.9963 17.2511 93.9963 17.1854 93.9956 17.1197L83.9961 17.2187ZM54.5625 17.2188L64.562 17.3168C64.5627 17.2511 64.5627 17.1854 64.562 17.1197L54.5625 17.2188ZM69.3008 18.9805L69.2208 28.9801C69.2739 28.9806 69.327 28.9806 69.3801 28.9802L69.3008 18.9805ZM87.4336 25.2969H97.4336C97.4336 19.774 92.9564 15.2969 87.4336 15.2969V25.2969ZM87.4336 30.7539V40.7539C92.9564 40.7539 97.4336 36.2768 97.4336 30.7539H87.4336ZM51.168 30.7539H41.168C41.168 36.2768 45.6451 40.7539 51.168 40.7539V30.7539ZM51.168 25.2969V15.2969C45.6451 15.2969 41.168 19.774 41.168 25.2969H51.168ZM83.1367 32.2578H93.1367C93.1367 26.735 88.6596 22.2578 83.1367 22.2578V32.2578ZM83.1367 43.2148V53.2148C88.6596 53.2148 93.1367 48.7377 93.1367 43.2148H83.1367ZM61.9531 43.2148V33.2148C56.4303 33.2148 51.9531 37.692 51.9531 43.2148H61.9531ZM61.9531 44.5039H51.9531C51.9531 50.0268 56.4303 54.5039 61.9531 54.5039V44.5039ZM84.082 44.5039H94.082C94.082 38.9811 89.6049 34.5039 84.082 34.5039V44.5039ZM84.082 49.5742V59.5742C89.6049 59.5742 94.082 55.0971 94.082 49.5742H84.082ZM55.207 49.5742H45.207C45.207 55.0971 49.6842 59.5742 55.207 59.5742V49.5742ZM55.207 38.4883V28.4883C49.6842 28.4883 45.207 32.9654 45.207 38.4883H55.207ZM76.3477 38.4883V48.4883C81.8705 48.4883 86.3477 44.0111 86.3477 38.4883H76.3477ZM76.3477 37.2852H86.3477C86.3477 31.7623 81.8705 27.2852 76.3477 27.2852V37.2852ZM55.25 37.2852H45.25C45.25 42.808 49.7272 47.2852 55.25 47.2852V37.2852ZM55.25 32.2578V22.2578C49.7272 22.2578 45.25 26.735 45.25 32.2578H55.25ZM69.3008 10.5156V20.5156C71.2294 20.5156 72.7684 20.6392 73.9471 20.8275C75.1524 21.02 75.7824 21.249 76.0041 21.3494C76.2346 21.4538 75.7262 21.2804 75.1191 20.505C74.4108 19.6003 74.0076 18.4288 73.9966 17.3178L83.9961 17.2187L93.9956 17.1197C93.923 9.78613 88.9726 5.26676 84.2537 3.13007C79.8664 1.14355 74.5541 0.515625 69.3008 0.515625V10.5156ZM83.9961 17.2187L73.9966 17.1207C74.0071 16.0441 74.3952 14.8886 75.0975 13.985C75.7011 13.2084 76.211 13.0316 75.9879 13.133C75.7714 13.2315 75.1465 13.4603 73.9435 13.6529C72.7672 13.8412 71.2296 13.9648 69.3008 13.9648V23.9648V33.9648C74.5514 33.9648 79.8733 33.3378 84.2699 31.3377C89.0239 29.1749 93.9239 24.6299 93.9956 17.3168L83.9961 17.2187ZM69.3008 23.9648V13.9648C67.3593 13.9648 65.8044 13.841 64.6104 13.6512C63.3882 13.4568 62.748 13.2253 62.5218 13.1231C62.2838 13.0155 62.8155 13.1961 63.4409 14.0048C64.1751 14.9544 64.5732 16.1768 64.562 17.3168L54.5625 17.2188L44.563 17.1207C44.4896 24.6082 49.5457 29.2059 54.2838 31.3476C58.6895 33.3391 64.0352 33.9648 69.3008 33.9648V23.9648ZM54.5625 17.2188L64.562 17.1197C64.5736 18.2952 64.1599 19.5344 63.4194 20.4852C62.7905 21.2927 62.2601 21.4698 62.5057 21.3593C62.7371 21.2552 63.3824 21.0234 64.6068 20.8292C65.8032 20.6394 67.3596 20.5156 69.3008 20.5156V10.5156V0.515625C64.0324 0.515625 58.6963 1.14229 54.3 3.12017C49.5985 5.23532 44.4886 9.80756 44.563 17.3178L54.5625 17.2188ZM69.3008 15.5V5.5C66.5522 5.5 63.6822 5.60872 61.2751 6.16502C60.1193 6.43215 58.0761 7.01263 56.1382 8.49003C53.7636 10.3003 51.7812 13.3361 51.7812 17.2188H61.7812L71.7812 17.2187C71.7812 18.6243 71.4499 20.1198 70.6989 21.5217C69.9712 22.8801 69.0352 23.807 68.2636 24.3952C67.5169 24.9644 66.8582 25.2695 66.4886 25.4187C66.107 25.5729 65.8451 25.636 65.7786 25.6514C65.6746 25.6754 65.8739 25.623 66.56 25.5748C67.2072 25.5294 68.0996 25.5 69.3008 25.5V15.5ZM61.7812 17.2188H51.7812C51.7812 20.5239 53.2191 23.706 55.9205 25.8861C58.0431 27.5992 60.3266 28.1787 61.4821 28.4201C63.8375 28.9121 66.7453 28.9603 69.2208 28.9801L69.3008 18.9805L69.3808 8.98079C68.0849 8.97042 67.1309 8.94762 66.4135 8.90785C65.6452 8.86526 65.4515 8.81754 65.5716 8.84263C65.6529 8.85961 65.9711 8.92924 66.4246 9.10871C66.8722 9.2859 67.6407 9.64408 68.4813 10.3225C69.3695 11.0393 70.2803 12.0705 70.9303 13.4499C71.5765 14.8216 71.7812 16.1475 71.7812 17.2187L61.7812 17.2188ZM69.3008 18.9805L69.3801 28.9802C71.8763 28.9603 74.7917 28.912 77.1484 28.4219C78.3031 28.1817 80.589 27.6047 82.7144 25.8933C85.4231 23.7125 86.8633 20.5264 86.8633 17.2187H76.8633H66.8633C66.8633 16.1476 67.068 14.8198 67.7162 13.4457C68.3681 12.0637 69.2817 11.0318 70.1715 10.3153C71.0134 9.63745 71.7823 9.28046 72.2286 9.10441C72.6808 8.92603 72.9973 8.85723 73.0762 8.84082C73.1916 8.81682 72.9921 8.86492 72.2164 8.90766C71.4916 8.94759 70.5286 8.97041 69.2214 8.98078L69.3008 18.9805ZM76.8633 17.2187H86.8633C86.8633 13.3329 84.8776 10.294 82.4967 8.48317C80.556 7.00718 78.5104 6.42878 77.3546 6.16284C74.9459 5.60863 72.068 5.5 69.3008 5.5V15.5V25.5C70.5139 25.5 71.4159 25.5295 72.0708 25.5751C72.7646 25.6235 72.9696 25.6765 72.87 25.6536C72.8057 25.6388 72.5453 25.5764 72.1647 25.4232C71.7962 25.2749 71.137 24.9708 70.3893 24.4021C69.6164 23.8142 68.6778 22.8868 67.948 21.5261C67.1947 20.1218 66.8633 18.6244 66.8633 17.2187H76.8633ZM87.4336 25.2969H77.4336V30.7539H87.4336H97.4336V25.2969H87.4336ZM87.4336 30.7539V20.7539L51.168 20.7539V30.7539V40.7539H87.4336V30.7539ZM51.168 30.7539H61.168V25.2969H51.168H41.168V30.7539H51.168ZM51.168 25.2969V35.2969H87.4336V25.2969V15.2969L51.168 15.2969V25.2969ZM83.1367 32.2578H73.1367V43.2148H83.1367H93.1367V32.2578H83.1367ZM83.1367 43.2148V33.2148H61.9531V43.2148V53.2148H83.1367V43.2148ZM61.9531 43.2148H51.9531V44.5039H61.9531H71.9531V43.2148H61.9531ZM61.9531 44.5039V54.5039H84.082V44.5039V34.5039H61.9531V44.5039ZM84.082 44.5039H74.082V49.5742H84.082H94.082V44.5039H84.082ZM84.082 49.5742V39.5742H55.207V49.5742V59.5742H84.082V49.5742ZM55.207 49.5742H65.207V38.4883H55.207H45.207V49.5742H55.207ZM55.207 38.4883V48.4883H76.3477V38.4883V28.4883L55.207 28.4883V38.4883ZM76.3477 38.4883H86.3477V37.2852H76.3477H66.3477V38.4883H76.3477ZM76.3477 37.2852V27.2852L55.25 27.2852V37.2852V47.2852H76.3477V37.2852ZM55.25 37.2852H65.25V32.2578H55.25H45.25V37.2852H55.25ZM55.25 32.2578V42.2578H83.1367V32.2578V22.2578L55.25 22.2578V32.2578ZM121.379 11.6328H131.379C131.379 6.10997 126.902 1.63281 121.379 1.63281V11.6328ZM121.379 16.9609V26.9609C126.902 26.9609 131.379 22.4838 131.379 16.9609H121.379ZM114.289 16.9609V6.96094C111.282 6.96094 108.434 8.31419 106.535 10.6458C104.636 12.9775 103.887 16.0399 104.496 18.9848L114.289 16.9609ZM123.012 24.8672L131.58 30.0224C133.197 27.3356 133.46 24.0461 132.29 21.1369C131.12 18.2276 128.654 16.0354 125.627 15.2153L123.012 24.8672ZM119.832 30.1523L117.362 39.8425C121.639 40.9328 126.125 39.0898 128.401 35.3075L119.832 30.1523ZM110.723 23.6211L119.367 18.5938C117.533 15.4406 114.128 13.5361 110.482 13.624C106.835 13.7119 103.526 15.7784 101.846 19.0163L110.723 23.6211ZM101.141 30.9688L92.6568 36.2626C94.9673 39.9652 99.412 41.7418 103.638 40.6519L101.141 30.9688ZM97.7891 25.5977L95.1756 15.9452C92.121 16.7723 89.6381 18.9964 88.4812 21.9419C87.3243 24.8875 87.63 28.2068 89.3053 30.8915L97.7891 25.5977ZM106.898 16.9609L116.724 18.8183C117.277 15.8927 116.498 12.8728 114.598 10.5802C112.698 8.28769 109.876 6.96094 106.898 6.96094V16.9609ZM99.5938 16.9609H89.5938C89.5938 22.4838 94.0709 26.9609 99.5938 26.9609V16.9609ZM99.5938 11.6328V1.63281C94.0709 1.63281 89.5938 6.10997 89.5938 11.6328L99.5938 11.6328ZM130.574 10H140.574C140.574 4.47715 136.097 0 130.574 0V10ZM130.574 17.3477H120.574C120.574 22.8705 125.051 27.3477 130.574 27.3477V17.3477ZM135.516 17.3477H145.516C145.516 11.8248 141.038 7.34766 135.516 7.34766V17.3477ZM135.516 22.8477V32.8477C141.038 32.8477 145.516 28.3705 145.516 22.8477H135.516ZM130.574 22.8477V12.8477C125.051 12.8477 120.574 17.3248 120.574 22.8477H130.574ZM130.574 30.3242V40.3242C136.097 40.3242 140.574 35.8471 140.574 30.3242L130.574 30.3242ZM123.656 30.3242H113.656C113.656 35.8471 118.133 40.3242 123.656 40.3242V30.3242ZM123.656 10V0C118.133 0 113.656 4.47715 113.656 10H123.656ZM130.574 31.6562L140.574 31.6562C140.574 26.1334 136.097 21.6562 130.574 21.6562V31.6562ZM130.574 42.7852V52.7852C136.097 52.7852 140.574 48.308 140.574 42.7852L130.574 42.7852ZM110.422 42.7852V32.7852C104.899 32.7852 100.422 37.2623 100.422 42.7852H110.422ZM110.422 44.2031H100.422C100.422 49.726 104.899 54.2031 110.422 54.2031V44.2031ZM131.52 44.2031H141.52C141.52 38.6803 137.042 34.2031 131.52 34.2031V44.2031ZM131.52 49.3594V59.3594C137.042 59.3594 141.52 54.8822 141.52 49.3594H131.52ZM103.59 49.3594H93.5898C93.5898 54.8822 98.067 59.3594 103.59 59.3594V49.3594ZM103.59 38.0156V28.0156C98.067 28.0156 93.5898 32.4928 93.5898 38.0156H103.59ZM123.699 38.0156V48.0156C129.222 48.0156 133.699 43.5385 133.699 38.0156L123.699 38.0156ZM123.699 36.7695L133.699 36.7695C133.699 31.2467 129.222 26.7695 123.699 26.7695V36.7695ZM103.59 36.7695H93.5898C93.5898 42.2924 98.067 46.7695 103.59 46.7695V36.7695ZM103.59 31.6562V21.6562C98.067 21.6562 93.5898 26.1334 93.5898 31.6562H103.59ZM121.379 11.6328H111.379V16.9609H121.379H131.379V11.6328H121.379ZM121.379 16.9609V6.96094H114.289V16.9609V26.9609H121.379V16.9609ZM114.289 16.9609L104.496 18.9848C106.031 26.4107 111.66 32.1517 120.396 34.5191L123.012 24.8672L125.627 15.2153C124.148 14.8145 123.771 14.3904 123.833 14.4522C123.854 14.4732 123.917 14.5449 123.98 14.6632C124.04 14.7766 124.069 14.8759 124.082 14.937L114.289 16.9609ZM123.012 24.8672L114.443 19.712L111.263 24.9971L119.832 30.1523L128.401 35.3075L131.58 30.0224L123.012 24.8672ZM119.832 30.1523L122.302 20.4622C121.254 20.1949 120.617 19.8419 120.235 19.5593C119.856 19.2799 119.583 18.9648 119.367 18.5938L110.723 23.6211L102.078 28.6484C105.266 34.1302 110.531 38.1014 117.362 39.8425L119.832 30.1523ZM110.723 23.6211L101.846 19.0163C101.55 19.5866 101.214 19.9848 100.824 20.294C100.435 20.603 99.7803 20.9923 98.6432 21.2856L101.141 30.9688L103.638 40.6519C111.121 38.7218 116.5 34.2003 119.599 28.2259L110.723 23.6211ZM101.141 30.9688L109.624 25.6749L106.273 20.3038L97.7891 25.5977L89.3053 30.8915L92.6568 36.2626L101.141 30.9688ZM97.7891 25.5977L100.403 35.2501C109.804 32.7046 115.3 26.3544 116.724 18.8183L106.898 16.9609L97.0724 15.1036C97.0615 15.1614 97.0539 15.1643 97.0691 15.1336C97.0875 15.0964 97.1062 15.0768 97.0965 15.087C97.0859 15.0981 96.986 15.2018 96.715 15.3548C96.4372 15.5115 95.952 15.735 95.1756 15.9452L97.7891 25.5977ZM106.898 16.9609V6.96094H99.5938V16.9609V26.9609H106.898V16.9609ZM99.5938 16.9609H109.594V11.6328H99.5938L89.5938 11.6328V16.9609H99.5938ZM99.5938 11.6328V21.6328H121.379V11.6328V1.63281L99.5938 1.63281V11.6328ZM130.574 10H120.574V17.3477H130.574H140.574V10H130.574ZM130.574 17.3477V27.3477H135.516V17.3477V7.34766H130.574V17.3477ZM135.516 17.3477H125.516V22.8477H135.516H145.516V17.3477H135.516ZM135.516 22.8477V12.8477H130.574V22.8477V32.8477L135.516 32.8477V22.8477ZM130.574 22.8477H120.574V30.3242H130.574L140.574 30.3242V22.8477H130.574ZM130.574 30.3242V20.3242H123.656V30.3242V40.3242H130.574V30.3242ZM123.656 30.3242L133.656 30.3242V10H123.656H113.656V30.3242H123.656ZM123.656 10V20H130.574V10V0H123.656V10ZM130.574 31.6562H120.574V42.7852H130.574L140.574 42.7852V31.6562L130.574 31.6562ZM130.574 42.7852V32.7852H110.422V42.7852V52.7852H130.574V42.7852ZM110.422 42.7852H100.422V44.2031H110.422H120.422V42.7852H110.422ZM110.422 44.2031V54.2031L131.52 54.2031V44.2031V34.2031L110.422 34.2031V44.2031ZM131.52 44.2031L121.52 44.2031V49.3594L131.52 49.3594H141.52V44.2031H131.52ZM131.52 49.3594V39.3594L103.59 39.3594V49.3594V59.3594L131.52 59.3594V49.3594ZM103.59 49.3594H113.59V38.0156H103.59H93.5898V49.3594H103.59ZM103.59 38.0156V48.0156H123.699V38.0156V28.0156H103.59V38.0156ZM123.699 38.0156L133.699 38.0156V36.7695L123.699 36.7695H113.699V38.0156H123.699ZM123.699 36.7695V26.7695H103.59V36.7695V46.7695H123.699V36.7695ZM103.59 36.7695H113.59V31.6562H103.59H93.5898V36.7695H103.59ZM103.59 31.6562V41.6562H130.574V31.6562V21.6562H103.59V31.6562ZM178.098 10H188.098C188.098 4.47715 183.62 0 178.098 0V10ZM178.098 25.082H168.098C168.098 30.6049 172.575 35.082 178.098 35.082V25.082ZM183.469 25.082H193.469C193.469 19.5592 188.992 15.082 183.469 15.082V25.082ZM183.469 30.7109V40.7109C188.992 40.7109 193.469 36.2338 193.469 30.7109H183.469ZM178.098 30.7109V20.7109C172.575 20.7109 168.098 25.1881 168.098 30.7109H178.098ZM178.098 49.7461V59.7461C183.62 59.7461 188.098 55.2689 188.098 49.7461H178.098ZM171.266 49.7461H161.266C161.266 55.2689 165.743 59.7461 171.266 59.7461V49.7461ZM171.266 10V0C165.743 0 161.266 4.47715 161.266 10L171.266 10ZM169.332 15.6719H179.332C179.332 10.149 174.855 5.67187 169.332 5.67187V15.6719ZM169.332 21.1289V31.1289C174.855 31.1289 179.332 26.6518 179.332 21.1289H169.332ZM146.172 21.1289H136.172C136.172 26.6518 140.649 31.1289 146.172 31.1289V21.1289ZM146.172 15.6719V5.67187C140.649 5.67187 136.172 10.149 136.172 15.6719H146.172ZM154.379 15.6719V25.6719C159.902 25.6719 164.379 21.1947 164.379 15.6719H154.379ZM154.379 10.7305V0.730469C148.856 0.730469 144.379 5.20762 144.379 10.7305H154.379ZM161.254 10.7305L171.254 10.7305C171.254 5.20762 166.777 0.730469 161.254 0.730469V10.7305ZM161.254 15.6719H151.254C151.254 21.1947 155.731 25.6719 161.254 25.6719V15.6719ZM153.992 32.3437L163.991 32.4976C163.993 32.3926 163.993 32.2875 163.991 32.1825L153.992 32.3437ZM178.098 10H168.098V25.082H178.098H188.098V10H178.098ZM178.098 25.082V35.082H183.469V25.082V15.082H178.098V25.082ZM183.469 25.082H173.469V30.7109H183.469H193.469V25.082H183.469ZM183.469 30.7109V20.7109H178.098V30.7109V40.7109H183.469V30.7109ZM178.098 30.7109H168.098V49.7461H178.098H188.098V30.7109H178.098ZM178.098 49.7461V39.7461H171.266V49.7461V59.7461H178.098V49.7461ZM171.266 49.7461H181.266V10H171.266L161.266 10V49.7461H171.266ZM171.266 10V20H178.098V10V0H171.266V10ZM169.332 15.6719H159.332V21.1289H169.332H179.332V15.6719H169.332ZM169.332 21.1289V11.1289L146.172 11.1289V21.1289V31.1289H169.332V21.1289ZM146.172 21.1289H156.172V15.6719H146.172H136.172V21.1289H146.172ZM146.172 15.6719V25.6719H154.379V15.6719V5.67187H146.172V15.6719ZM154.379 15.6719H164.379V10.7305L154.379 10.7305H144.379V15.6719H154.379ZM154.379 10.7305V20.7305H161.254V10.7305V0.730469H154.379V10.7305ZM161.254 10.7305H151.254V15.6719H161.254H171.254V10.7305L161.254 10.7305ZM161.254 15.6719V25.6719H169.332V15.6719V5.67187L161.254 5.67187V15.6719ZM157.816 22.6758V32.6758C158.143 32.6758 158.341 32.7311 158.429 32.7641C158.519 32.7974 158.512 32.8128 158.455 32.7608C158.395 32.7055 158.32 32.6106 158.265 32.4862C158.208 32.3569 158.215 32.29 158.215 32.3437H168.215H178.215C178.215 20.4166 168.417 12.6758 157.816 12.6758V22.6758ZM168.215 32.3437H158.215C158.215 32.4188 158.204 32.3657 158.257 32.2435C158.309 32.1256 158.382 32.0317 158.444 31.9749C158.502 31.9214 158.511 31.9351 158.425 31.9673C158.339 31.9994 158.143 32.0547 157.816 32.0547V42.0547V52.0547C168.448 52.0547 178.215 44.2857 178.215 32.3437H168.215ZM157.816 42.0547V32.0547C157.433 32.0547 157.211 31.9911 157.122 31.9582C157.034 31.9257 157.056 31.9166 157.13 31.9846C157.207 32.056 157.286 32.1625 157.338 32.2831C157.391 32.4057 157.375 32.4461 157.375 32.3437H147.375H137.375C137.375 44.2597 147.028 52.0547 157.816 52.0547V42.0547ZM147.375 32.3437H157.375C157.375 32.2625 157.387 32.3167 157.331 32.4465C157.276 32.5737 157.194 32.6813 157.118 32.751C157.046 32.8175 157.027 32.8068 157.118 32.7732C157.209 32.7394 157.433 32.6758 157.816 32.6758V22.6758V12.6758C147.058 12.6758 137.375 20.4426 137.375 32.3437H147.375ZM157.816 28.2187V18.2187C154.503 18.2187 150.781 19.3418 147.897 22.2942C144.993 25.2668 143.938 29.0654 143.993 32.505L153.992 32.3437L163.991 32.1825C164.003 32.958 163.743 34.6941 162.203 36.2703C160.683 37.8262 158.896 38.2187 157.816 38.2187V28.2187ZM153.992 32.3437L143.993 32.1899C143.941 35.5736 144.93 39.4751 147.979 42.5247C150.981 45.5265 154.75 46.4687 157.816 46.4687V36.4687V26.4687C158.649 26.4687 160.484 26.745 162.121 28.3825C163.807 30.0678 164 31.9069 163.991 32.4976L153.992 32.3437ZM157.816 36.4687V46.4687C160.93 46.4687 164.686 45.4854 167.656 42.4683C170.629 39.448 171.598 35.6263 171.598 32.3437H161.598H151.598C151.598 31.8542 151.772 30.095 153.402 28.4389C155.029 26.7861 156.894 26.4687 157.816 26.4687V36.4687ZM161.598 32.3437H171.598C171.598 29.0131 170.568 25.2955 167.737 22.3511C164.889 19.3886 161.18 18.2187 157.816 18.2187V28.2187V38.2187C156.644 38.2187 154.826 37.7793 153.32 36.2133C151.832 34.6654 151.598 33.0104 151.598 32.3437H161.598ZM216.77 20.0977H226.77C226.77 14.5748 222.292 10.0977 216.77 10.0977V20.0977ZM216.77 25.4258V35.4258C222.292 35.4258 226.77 30.9486 226.77 25.4258H216.77ZM188.668 25.4258H178.668C178.668 30.9486 183.145 35.4258 188.668 35.4258V25.4258ZM188.668 11.418V1.41797C183.145 1.41797 178.668 5.89512 178.668 11.418H188.668ZM195.543 11.418H205.543C205.543 5.89512 201.066 1.41797 195.543 1.41797V11.418ZM195.543 20.0977L185.543 20.0977C185.543 25.6205 190.02 30.0977 195.543 30.0977V20.0977ZM220.68 28.9492H230.68C230.68 23.4264 226.203 18.9492 220.68 18.9492V28.9492ZM220.68 34.2773V44.2773C226.203 44.2773 230.68 39.8002 230.68 34.2773H220.68ZM184.414 34.2773H174.414C174.414 39.8002 178.891 44.2773 184.414 44.2773V34.2773ZM184.414 28.9492V18.9492C178.891 18.9492 174.414 23.4264 174.414 28.9492H184.414ZM217.027 43.4727H227.027C227.027 37.9498 222.55 33.4727 217.027 33.4727V43.4727ZM217.027 48.9727V58.9727C222.55 58.9727 227.027 54.4955 227.027 48.9727H217.027ZM188.195 48.9727H178.195C178.195 54.4955 182.672 58.9727 188.195 58.9727V48.9727ZM188.195 37.0273V27.0273C182.672 27.0273 178.195 31.5045 178.195 37.0273H188.195ZM195.156 37.0273H205.156C205.156 31.5045 200.679 27.0273 195.156 27.0273V37.0273ZM195.156 43.4727H185.156C185.156 48.9955 189.633 53.4727 195.156 53.4727V43.4727ZM216.77 20.0977H206.77V25.4258H216.77H226.77V20.0977H216.77ZM216.77 25.4258V15.4258L188.668 15.4258V25.4258V35.4258H216.77V25.4258ZM188.668 25.4258L198.668 25.4258V11.418H188.668H178.668V25.4258H188.668ZM188.668 11.418V21.418L195.543 21.418V11.418V1.41797H188.668V11.418ZM195.543 11.418H185.543V20.0977L195.543 20.0977H205.543V11.418H195.543ZM195.543 20.0977V30.0977H216.77V20.0977V10.0977H195.543V20.0977ZM220.68 28.9492H210.68V34.2773H220.68H230.68V28.9492H220.68ZM220.68 34.2773V24.2773L184.414 24.2773V34.2773V44.2773H220.68V34.2773ZM184.414 34.2773H194.414V28.9492H184.414H174.414V34.2773H184.414ZM184.414 28.9492V38.9492H220.68V28.9492V18.9492L184.414 18.9492V28.9492ZM217.027 43.4727H207.027V48.9727H217.027H227.027V43.4727H217.027ZM217.027 48.9727V38.9727H188.195V48.9727V58.9727H217.027V48.9727ZM188.195 48.9727H198.195V37.0273H188.195H178.195V48.9727H188.195ZM188.195 37.0273V47.0273H195.156V37.0273V27.0273L188.195 27.0273V37.0273ZM195.156 37.0273H185.156V43.4727H195.156H205.156V37.0273H195.156ZM195.156 43.4727V53.4727H217.027V43.4727V33.4727H195.156V43.4727Z" fill="white" mask="url(#path-1-outside-1_6524_1788)"/>
</g>
<defs>
<filter id="filter0_d_6524_1788" x="0" y="0" width="234.68" height="67.7461" filterUnits="userSpaceOnUse" color-interpolation-filters="sRGB">
<feFlood flood-opacity="0" result="BackgroundImageFix"/>
<feColorMatrix in="SourceAlpha" type="matrix" values="0 0 0 0 0 0 0 0 0 0 0 0 0 0 0 0 0 0 127 0" result="hardAlpha"/>
<feOffset dy="4"/>
<feGaussianBlur stdDeviation="2"/>
<feComposite in2="hardAlpha" operator="out"/>
<feColorMatrix type="matrix" values="0 0 0 0 0 0 0 0 0 0 0 0 0 0 0 0 0 0 0.07 0"/>
<feBlend mode="normal" in2="BackgroundImageFix" result="effect1_dropShadow_6524_1788"/>
<feBlend mode="normal" in="SourceGraphic" in2="effect1_dropShadow_6524_1788" result="shape"/>
</filter>
</defs>
</svg>
