<svg width="303" height="68" viewBox="0 0 303 68" fill="none" xmlns="http://www.w3.org/2000/svg">
<g filter="url(#filter0_d_6524_1787)">
<mask id="path-1-outside-1_6524_1787" maskUnits="userSpaceOnUse" x="3.09766" y="-0.507813" width="295" height="61" fill="black">
<rect fill="white" x="3.09766" y="-0.507813" width="295" height="61"/>
<path d="M45.7109 11.5469V25.8984H35.5273V28.8633H50.2656V34.3633H14L14 28.8633H28.5664V25.8984H18.3828V11.5469L45.7109 11.5469ZM25.0859 16.875V20.5273H38.9219V16.875H25.0859ZM45.8828 36.5117V49.7461H39.0078V41.8828H18.0391V36.5117H45.8828ZM88.3359 40.207V45.6641H52.0273V40.207H60.3203V33.8906H54.8633V28.3906H59.6328V18.3359H54.6484V12.8789L85.5859 12.8789V18.3359H80.4727V28.3906H85.3711V33.8906H79.9141V40.207H88.3359ZM66.5078 28.3906H73.6406V18.3359H66.5078V28.3906ZM67.2383 40.207H72.9961V33.8906H67.2383V40.207ZM126.32 27.4023V32.4297H90.0547V27.4023H126.32ZM122.109 33.6328V43.6445H100.883V44.9336H123.184V49.4883H94.0508V39.3906H115.277V38.2734H94.0508V33.6328H122.109ZM122.109 10.4727V20.4844H101.27V21.7734H122.797V26.2852H94.4375V16.2305H115.234V15.0273H94.3945V10.4727L122.109 10.4727ZM155.496 34.5352C164.305 34.5781 169.805 37.3281 169.848 42.1836C169.805 46.9531 164.305 49.832 155.496 49.832C146.859 49.832 141.188 46.9531 141.188 42.1836C141.188 37.3281 146.859 34.5781 155.496 34.5352ZM155.496 39.6055C150.598 39.6055 148.062 40.4219 148.105 42.1836C148.062 43.9453 150.598 44.6328 155.496 44.6328C160.438 44.6328 163.016 43.9453 163.016 42.1836C163.016 40.4219 160.438 39.6055 155.496 39.6055ZM169.719 11.6758V14.8555C169.719 17.9492 169.719 21.4727 168.559 25.5117L161.812 24.9102C162.564 21.7734 162.736 19.3672 162.801 17.0039H141.703V11.6758H169.719ZM173.801 27.2734V32.8164L137.793 32.8164V27.2734H150.383V20.7422H157.215V27.2734H173.801ZM211.957 31.7852V37.2852H204.137V49.7461H197.133V37.2852H190.301V49.7461H183.254V37.2852H175.691V31.7852H211.957ZM193.695 11.2031C202.332 11.1602 208.52 14.7695 208.52 20.3555C208.52 25.7695 202.332 29.207 193.695 29.207C185.059 29.207 178.957 25.7695 179 20.3555C178.957 14.7695 185.059 11.1602 193.695 11.2031ZM193.695 16.6602C188.926 16.6602 186.09 17.8203 186.09 20.3555C186.09 22.6758 188.926 23.793 193.695 23.8359C198.551 23.793 201.344 22.6758 201.344 20.3555C201.344 17.8203 198.551 16.6602 193.695 16.6602ZM245.43 10V25.082H250.801V30.7109H245.43V49.7461H238.598V10H245.43ZM236.664 15.6719V21.1289H213.504V15.6719H221.711V10.7305H228.586V15.6719H236.664ZM225.148 22.6758C231.035 22.6758 235.547 26.7148 235.547 32.3437C235.547 38.0156 231.035 42.0547 225.148 42.0547C219.133 42.0547 214.707 38.0156 214.707 32.3437C214.707 26.7148 219.133 22.6758 225.148 22.6758ZM225.148 28.2187C222.914 28.2187 221.281 29.6797 221.324 32.3437C221.281 35.1367 222.914 36.4687 225.148 36.4687C227.34 36.4687 228.93 35.1367 228.93 32.3437C228.93 29.6797 227.34 28.2187 225.148 28.2187ZM284.102 20.0977V25.4258H256V11.418H262.875V20.0977H284.102ZM288.012 28.9492V34.2773H251.746V28.9492H288.012ZM284.359 43.4727V48.9727H255.527V37.0273H262.488V43.4727H284.359Z"/>
</mask>
<path d="M45.7109 11.5469V25.8984H35.5273V28.8633H50.2656V34.3633H14L14 28.8633H28.5664V25.8984H18.3828V11.5469L45.7109 11.5469ZM25.0859 16.875V20.5273H38.9219V16.875H25.0859ZM45.8828 36.5117V49.7461H39.0078V41.8828H18.0391V36.5117H45.8828ZM88.3359 40.207V45.6641H52.0273V40.207H60.3203V33.8906H54.8633V28.3906H59.6328V18.3359H54.6484V12.8789L85.5859 12.8789V18.3359H80.4727V28.3906H85.3711V33.8906H79.9141V40.207H88.3359ZM66.5078 28.3906H73.6406V18.3359H66.5078V28.3906ZM67.2383 40.207H72.9961V33.8906H67.2383V40.207ZM126.32 27.4023V32.4297H90.0547V27.4023H126.32ZM122.109 33.6328V43.6445H100.883V44.9336H123.184V49.4883H94.0508V39.3906H115.277V38.2734H94.0508V33.6328H122.109ZM122.109 10.4727V20.4844H101.27V21.7734H122.797V26.2852H94.4375V16.2305H115.234V15.0273H94.3945V10.4727L122.109 10.4727ZM155.496 34.5352C164.305 34.5781 169.805 37.3281 169.848 42.1836C169.805 46.9531 164.305 49.832 155.496 49.832C146.859 49.832 141.188 46.9531 141.188 42.1836C141.188 37.3281 146.859 34.5781 155.496 34.5352ZM155.496 39.6055C150.598 39.6055 148.062 40.4219 148.105 42.1836C148.062 43.9453 150.598 44.6328 155.496 44.6328C160.438 44.6328 163.016 43.9453 163.016 42.1836C163.016 40.4219 160.438 39.6055 155.496 39.6055ZM169.719 11.6758V14.8555C169.719 17.9492 169.719 21.4727 168.559 25.5117L161.812 24.9102C162.564 21.7734 162.736 19.3672 162.801 17.0039H141.703V11.6758H169.719ZM173.801 27.2734V32.8164L137.793 32.8164V27.2734H150.383V20.7422H157.215V27.2734H173.801ZM211.957 31.7852V37.2852H204.137V49.7461H197.133V37.2852H190.301V49.7461H183.254V37.2852H175.691V31.7852H211.957ZM193.695 11.2031C202.332 11.1602 208.52 14.7695 208.52 20.3555C208.52 25.7695 202.332 29.207 193.695 29.207C185.059 29.207 178.957 25.7695 179 20.3555C178.957 14.7695 185.059 11.1602 193.695 11.2031ZM193.695 16.6602C188.926 16.6602 186.09 17.8203 186.09 20.3555C186.09 22.6758 188.926 23.793 193.695 23.8359C198.551 23.793 201.344 22.6758 201.344 20.3555C201.344 17.8203 198.551 16.6602 193.695 16.6602ZM245.43 10V25.082H250.801V30.7109H245.43V49.7461H238.598V10H245.43ZM236.664 15.6719V21.1289H213.504V15.6719H221.711V10.7305H228.586V15.6719H236.664ZM225.148 22.6758C231.035 22.6758 235.547 26.7148 235.547 32.3437C235.547 38.0156 231.035 42.0547 225.148 42.0547C219.133 42.0547 214.707 38.0156 214.707 32.3437C214.707 26.7148 219.133 22.6758 225.148 22.6758ZM225.148 28.2187C222.914 28.2187 221.281 29.6797 221.324 32.3437C221.281 35.1367 222.914 36.4687 225.148 36.4687C227.34 36.4687 228.93 35.1367 228.93 32.3437C228.93 29.6797 227.34 28.2187 225.148 28.2187ZM284.102 20.0977V25.4258H256V11.418H262.875V20.0977H284.102ZM288.012 28.9492V34.2773H251.746V28.9492H288.012ZM284.359 43.4727V48.9727H255.527V37.0273H262.488V43.4727H284.359Z" fill="#11DCA9"/>
<path d="M45.7109 11.5469H55.7109C55.7109 6.02403 51.2338 1.54687 45.7109 1.54687V11.5469ZM45.7109 25.8984V35.8984C51.2338 35.8984 55.7109 31.4213 55.7109 25.8984H45.7109ZM35.5273 25.8984V15.8984C30.0045 15.8984 25.5273 20.3756 25.5273 25.8984H35.5273ZM35.5273 28.8633H25.5273C25.5273 34.3861 30.0045 38.8633 35.5273 38.8633V28.8633ZM50.2656 28.8633H60.2656C60.2656 23.3404 55.7885 18.8633 50.2656 18.8633V28.8633ZM50.2656 34.3633V44.3633C55.7885 44.3633 60.2656 39.8861 60.2656 34.3633H50.2656ZM14 34.3633H4C4 39.8861 8.47715 44.3633 14 44.3633V34.3633ZM14 28.8633V18.8633C8.47715 18.8633 4 23.3404 4 28.8633H14ZM28.5664 28.8633V38.8633C34.0893 38.8633 38.5664 34.3861 38.5664 28.8633H28.5664ZM28.5664 25.8984H38.5664C38.5664 20.3756 34.0893 15.8984 28.5664 15.8984V25.8984ZM18.3828 25.8984H8.38281C8.38281 31.4213 12.86 35.8984 18.3828 35.8984V25.8984ZM18.3828 11.5469V1.54688C12.86 1.54688 8.38281 6.02403 8.38281 11.5469H18.3828ZM25.0859 16.875V6.875C19.5631 6.875 15.0859 11.3522 15.0859 16.875H25.0859ZM25.0859 20.5273H15.0859C15.0859 26.0502 19.5631 30.5273 25.0859 30.5273V20.5273ZM38.9219 20.5273V30.5273C44.4447 30.5273 48.9219 26.0502 48.9219 20.5273H38.9219ZM38.9219 16.875H48.9219C48.9219 11.3522 44.4447 6.875 38.9219 6.875V16.875ZM45.8828 36.5117H55.8828C55.8828 30.9889 51.4057 26.5117 45.8828 26.5117V36.5117ZM45.8828 49.7461V59.7461C51.4057 59.7461 55.8828 55.2689 55.8828 49.7461H45.8828ZM39.0078 49.7461H29.0078C29.0078 55.2689 33.485 59.7461 39.0078 59.7461V49.7461ZM39.0078 41.8828H49.0078C49.0078 36.36 44.5307 31.8828 39.0078 31.8828V41.8828ZM18.0391 41.8828H8.03906C8.03906 47.4057 12.5162 51.8828 18.0391 51.8828V41.8828ZM18.0391 36.5117V26.5117C12.5162 26.5117 8.03906 30.9889 8.03906 36.5117H18.0391ZM45.7109 11.5469L35.7109 11.5469V25.8984H45.7109H55.7109V11.5469H45.7109ZM45.7109 25.8984V15.8984H35.5273V25.8984V35.8984H45.7109V25.8984ZM35.5273 25.8984H25.5273V28.8633H35.5273H45.5273V25.8984H35.5273ZM35.5273 28.8633V38.8633H50.2656V28.8633V18.8633H35.5273V28.8633ZM50.2656 28.8633H40.2656V34.3633H50.2656H60.2656V28.8633H50.2656ZM50.2656 34.3633V24.3633H14L14 34.3633V44.3633H50.2656V34.3633ZM14 34.3633H24V28.8633H14H4V34.3633H14ZM14 28.8633L14 38.8633H28.5664V28.8633V18.8633H14V28.8633ZM28.5664 28.8633H38.5664V25.8984H28.5664H18.5664V28.8633H28.5664ZM28.5664 25.8984V15.8984H18.3828V25.8984V35.8984H28.5664V25.8984ZM18.3828 25.8984H28.3828V11.5469H18.3828H8.38281V25.8984H18.3828ZM18.3828 11.5469V21.5469H45.7109V11.5469V1.54687L18.3828 1.54688V11.5469ZM25.0859 16.875H15.0859V20.5273H25.0859H35.0859V16.875H25.0859ZM25.0859 20.5273V30.5273H38.9219V20.5273V10.5273H25.0859V20.5273ZM38.9219 20.5273H48.9219V16.875H38.9219H28.9219V20.5273H38.9219ZM38.9219 16.875V6.875H25.0859V16.875V26.875H38.9219V16.875ZM45.8828 36.5117H35.8828V49.7461H45.8828H55.8828V36.5117H45.8828ZM45.8828 49.7461V39.7461H39.0078V49.7461V59.7461H45.8828V49.7461ZM39.0078 49.7461H49.0078V41.8828H39.0078H29.0078V49.7461H39.0078ZM39.0078 41.8828V31.8828H18.0391V41.8828V51.8828H39.0078V41.8828ZM18.0391 41.8828H28.0391V36.5117H18.0391H8.03906V41.8828H18.0391ZM18.0391 36.5117V46.5117H45.8828V36.5117V26.5117H18.0391V36.5117ZM88.3359 40.207H98.3359C98.3359 34.6842 93.8588 30.207 88.3359 30.207V40.207ZM88.3359 45.6641V55.6641C93.8588 55.6641 98.3359 51.1869 98.3359 45.6641H88.3359ZM52.0273 45.6641H42.0273C42.0273 51.1869 46.5045 55.6641 52.0273 55.6641V45.6641ZM52.0273 40.207V30.207C46.5045 30.207 42.0273 34.6842 42.0273 40.207H52.0273ZM60.3203 40.207V50.207C65.8432 50.207 70.3203 45.7299 70.3203 40.207H60.3203ZM60.3203 33.8906H70.3203C70.3203 28.3678 65.8432 23.8906 60.3203 23.8906V33.8906ZM54.8633 33.8906H44.8633C44.8633 39.4135 49.3404 43.8906 54.8633 43.8906V33.8906ZM54.8633 28.3906V18.3906C49.3404 18.3906 44.8633 22.8678 44.8633 28.3906H54.8633ZM59.6328 28.3906V38.3906C65.1557 38.3906 69.6328 33.9135 69.6328 28.3906H59.6328ZM59.6328 18.3359H69.6328C69.6328 12.8131 65.1557 8.33594 59.6328 8.33594V18.3359ZM54.6484 18.3359H44.6484C44.6484 23.8588 49.1256 28.3359 54.6484 28.3359V18.3359ZM54.6484 12.8789V2.87891C49.1256 2.87891 44.6484 7.35606 44.6484 12.8789H54.6484ZM85.5859 12.8789H95.5859C95.5859 7.35606 91.1088 2.87891 85.5859 2.87891V12.8789ZM85.5859 18.3359V28.3359C91.1088 28.3359 95.5859 23.8588 95.5859 18.3359H85.5859ZM80.4727 18.3359V8.33594C74.9498 8.33594 70.4727 12.8131 70.4727 18.3359L80.4727 18.3359ZM80.4727 28.3906L70.4727 28.3906C70.4727 33.9135 74.9498 38.3906 80.4727 38.3906V28.3906ZM85.3711 28.3906H95.3711C95.3711 22.8678 90.8939 18.3906 85.3711 18.3906V28.3906ZM85.3711 33.8906V43.8906C90.8939 43.8906 95.3711 39.4135 95.3711 33.8906H85.3711ZM79.9141 33.8906V23.8906C74.3912 23.8906 69.9141 28.3678 69.9141 33.8906H79.9141ZM79.9141 40.207H69.9141C69.9141 45.7299 74.3912 50.207 79.9141 50.207V40.207ZM66.5078 28.3906H56.5078C56.5078 33.9135 60.985 38.3906 66.5078 38.3906V28.3906ZM73.6406 28.3906V38.3906C79.1635 38.3906 83.6406 33.9135 83.6406 28.3906L73.6406 28.3906ZM73.6406 18.3359L83.6406 18.3359C83.6406 12.8131 79.1635 8.33594 73.6406 8.33594V18.3359ZM66.5078 18.3359V8.33594C60.985 8.33594 56.5078 12.8131 56.5078 18.3359H66.5078ZM67.2383 40.207H57.2383C57.2383 45.7299 61.7154 50.207 67.2383 50.207V40.207ZM72.9961 40.207V50.207C78.5189 50.207 82.9961 45.7299 82.9961 40.207H72.9961ZM72.9961 33.8906H82.9961C82.9961 28.3678 78.5189 23.8906 72.9961 23.8906V33.8906ZM67.2383 33.8906V23.8906C61.7154 23.8906 57.2383 28.3678 57.2383 33.8906H67.2383ZM88.3359 40.207H78.3359V45.6641H88.3359H98.3359V40.207H88.3359ZM88.3359 45.6641V35.6641H52.0273V45.6641V55.6641H88.3359V45.6641ZM52.0273 45.6641H62.0273V40.207H52.0273H42.0273V45.6641H52.0273ZM52.0273 40.207V50.207H60.3203V40.207V30.207H52.0273V40.207ZM60.3203 40.207H70.3203V33.8906H60.3203H50.3203V40.207H60.3203ZM60.3203 33.8906V23.8906H54.8633V33.8906V43.8906H60.3203V33.8906ZM54.8633 33.8906H64.8633V28.3906H54.8633H44.8633V33.8906H54.8633ZM54.8633 28.3906V38.3906H59.6328V28.3906V18.3906H54.8633V28.3906ZM59.6328 28.3906H69.6328V18.3359H59.6328H49.6328V28.3906H59.6328ZM59.6328 18.3359V8.33594H54.6484V18.3359V28.3359H59.6328V18.3359ZM54.6484 18.3359H64.6484V12.8789H54.6484H44.6484V18.3359H54.6484ZM54.6484 12.8789V22.8789L85.5859 22.8789V12.8789V2.87891L54.6484 2.87891V12.8789ZM85.5859 12.8789L75.5859 12.8789V18.3359L85.5859 18.3359H95.5859V12.8789H85.5859ZM85.5859 18.3359V8.33594H80.4727V18.3359V28.3359H85.5859V18.3359ZM80.4727 18.3359L70.4727 18.3359V28.3906L80.4727 28.3906H90.4727V18.3359H80.4727ZM80.4727 28.3906V38.3906H85.3711V28.3906V18.3906H80.4727V28.3906ZM85.3711 28.3906L75.3711 28.3906V33.8906H85.3711H95.3711V28.3906H85.3711ZM85.3711 33.8906V23.8906H79.9141V33.8906V43.8906H85.3711V33.8906ZM79.9141 33.8906H69.9141V40.207H79.9141H89.9141V33.8906H79.9141ZM79.9141 40.207V50.207H88.3359V40.207V30.207H79.9141V40.207ZM66.5078 28.3906V38.3906H73.6406V28.3906V18.3906H66.5078V28.3906ZM73.6406 28.3906L83.6406 28.3906V18.3359L73.6406 18.3359H63.6406V28.3906H73.6406ZM73.6406 18.3359V8.33594H66.5078V18.3359V28.3359H73.6406V18.3359ZM66.5078 18.3359H56.5078V28.3906H66.5078H76.5078V18.3359H66.5078ZM67.2383 40.207V50.207H72.9961V40.207V30.207H67.2383V40.207ZM72.9961 40.207H82.9961V33.8906H72.9961H62.9961V40.207H72.9961ZM72.9961 33.8906V23.8906H67.2383V33.8906V43.8906H72.9961V33.8906ZM67.2383 33.8906H57.2383V40.207H67.2383H77.2383V33.8906H67.2383ZM126.32 27.4023H136.32C136.32 21.8795 131.843 17.4023 126.32 17.4023V27.4023ZM126.32 32.4297V42.4297C131.843 42.4297 136.32 37.9525 136.32 32.4297H126.32ZM90.0547 32.4297H80.0547C80.0547 37.9525 84.5318 42.4297 90.0547 42.4297V32.4297ZM90.0547 27.4023V17.4023C84.5318 17.4023 80.0547 21.8795 80.0547 27.4023H90.0547ZM122.109 33.6328H132.109C132.109 28.11 127.632 23.6328 122.109 23.6328V33.6328ZM122.109 43.6445V53.6445C127.632 53.6445 132.109 49.1674 132.109 43.6445H122.109ZM100.883 43.6445V33.6445C95.36 33.6445 90.8828 38.1217 90.8828 43.6445H100.883ZM100.883 44.9336H90.8828C90.8828 50.4564 95.36 54.9336 100.883 54.9336V44.9336ZM123.184 44.9336H133.184C133.184 39.4107 128.706 34.9336 123.184 34.9336V44.9336ZM123.184 49.4883V59.4883C128.706 59.4883 133.184 55.0111 133.184 49.4883H123.184ZM94.0508 49.4883H84.0508C84.0508 55.0111 88.5279 59.4883 94.0508 59.4883V49.4883ZM94.0508 39.3906V29.3906C88.5279 29.3906 84.0508 33.8678 84.0508 39.3906H94.0508ZM115.277 39.3906V49.3906C120.8 49.3906 125.277 44.9135 125.277 39.3906H115.277ZM115.277 38.2734H125.277C125.277 32.7506 120.8 28.2734 115.277 28.2734V38.2734ZM94.0508 38.2734H84.0508C84.0508 43.7963 88.5279 48.2734 94.0508 48.2734V38.2734ZM94.0508 33.6328V23.6328C88.5279 23.6328 84.0508 28.11 84.0508 33.6328H94.0508ZM122.109 10.4727H132.109C132.109 4.94981 127.632 0.472656 122.109 0.472656V10.4727ZM122.109 20.4844V30.4844C127.632 30.4844 132.109 26.0072 132.109 20.4844H122.109ZM101.27 20.4844V10.4844C95.7467 10.4844 91.2695 14.9615 91.2695 20.4844H101.27ZM101.27 21.7734H91.2695C91.2695 27.2963 95.7467 31.7734 101.27 31.7734V21.7734ZM122.797 21.7734H132.797C132.797 16.2506 128.32 11.7734 122.797 11.7734V21.7734ZM122.797 26.2852V36.2852C128.32 36.2852 132.797 31.808 132.797 26.2852H122.797ZM94.4375 26.2852H84.4375C84.4375 31.808 88.9146 36.2852 94.4375 36.2852V26.2852ZM94.4375 16.2305V6.23047C88.9146 6.23047 84.4375 10.7076 84.4375 16.2305H94.4375ZM115.234 16.2305V26.2305C120.757 26.2305 125.234 21.7533 125.234 16.2305H115.234ZM115.234 15.0273H125.234C125.234 9.5045 120.757 5.02734 115.234 5.02734V15.0273ZM94.3945 15.0273H84.3945C84.3945 20.5502 88.8717 25.0273 94.3945 25.0273V15.0273ZM94.3945 10.4727V0.472656C88.8717 0.472656 84.3945 4.94981 84.3945 10.4727H94.3945ZM126.32 27.4023H116.32V32.4297H126.32H136.32V27.4023H126.32ZM126.32 32.4297V22.4297H90.0547V32.4297V42.4297H126.32V32.4297ZM90.0547 32.4297H100.055V27.4023H90.0547H80.0547V32.4297H90.0547ZM90.0547 27.4023V37.4023H126.32V27.4023V17.4023H90.0547V27.4023ZM122.109 33.6328H112.109V43.6445H122.109H132.109V33.6328H122.109ZM122.109 43.6445V33.6445H100.883V43.6445V53.6445H122.109V43.6445ZM100.883 43.6445H90.8828V44.9336H100.883H110.883V43.6445H100.883ZM100.883 44.9336V54.9336H123.184V44.9336V34.9336H100.883V44.9336ZM123.184 44.9336H113.184V49.4883H123.184H133.184V44.9336H123.184ZM123.184 49.4883V39.4883H94.0508V49.4883V59.4883H123.184V49.4883ZM94.0508 49.4883H104.051V39.3906H94.0508H84.0508V49.4883H94.0508ZM94.0508 39.3906V49.3906H115.277V39.3906V29.3906H94.0508V39.3906ZM115.277 39.3906H125.277V38.2734H115.277H105.277V39.3906H115.277ZM115.277 38.2734V28.2734H94.0508V38.2734V48.2734H115.277V38.2734ZM94.0508 38.2734H104.051V33.6328H94.0508H84.0508V38.2734H94.0508ZM94.0508 33.6328V43.6328H122.109V33.6328V23.6328H94.0508V33.6328ZM122.109 10.4727H112.109V20.4844H122.109H132.109V10.4727H122.109ZM122.109 20.4844V10.4844L101.27 10.4844V20.4844V30.4844H122.109V20.4844ZM101.27 20.4844H91.2695V21.7734H101.27H111.27V20.4844H101.27ZM101.27 21.7734V31.7734H122.797V21.7734V11.7734L101.27 11.7734V21.7734ZM122.797 21.7734H112.797V26.2852H122.797H132.797V21.7734H122.797ZM122.797 26.2852V16.2852H94.4375V26.2852V36.2852H122.797V26.2852ZM94.4375 26.2852H104.438V16.2305H94.4375H84.4375V26.2852H94.4375ZM94.4375 16.2305V26.2305H115.234V16.2305V6.23047L94.4375 6.23047V16.2305ZM115.234 16.2305H125.234V15.0273H115.234H105.234V16.2305H115.234ZM115.234 15.0273V5.02734L94.3945 5.02734V15.0273V25.0273H115.234V15.0273ZM94.3945 15.0273H104.395V10.4727H94.3945H84.3945V15.0273H94.3945ZM94.3945 10.4727V20.4727H122.109V10.4727V0.472656L94.3945 0.472656V10.4727ZM155.496 34.5352L155.545 24.5353C155.512 24.5351 155.479 24.5351 155.446 24.5353L155.496 34.5352ZM169.848 42.1836L179.847 42.2737C179.848 42.2142 179.848 42.1546 179.847 42.0951L169.848 42.1836ZM148.105 42.1836L158.102 42.4274C158.106 42.2649 158.106 42.1023 158.102 41.9398L148.105 42.1836ZM169.719 11.6758L179.719 11.6758C179.719 6.15293 175.242 1.67578 169.719 1.67578V11.6758ZM168.559 25.5117L167.67 35.4722C172.443 35.8978 176.847 32.878 178.17 28.2724L168.559 25.5117ZM161.812 24.9102L152.088 22.5789C151.41 25.4055 151.996 28.3871 153.693 30.7472C155.39 33.1074 158.029 34.6125 160.924 34.8706L161.812 24.9102ZM162.801 17.0039L172.797 17.2765C172.871 14.5781 171.85 11.9645 169.968 10.0299C168.085 8.09526 165.5 7.00391 162.801 7.00391V17.0039ZM141.703 17.0039H131.703C131.703 22.5268 136.18 27.0039 141.703 27.0039V17.0039ZM141.703 11.6758V1.67578C136.18 1.67578 131.703 6.15293 131.703 11.6758H141.703ZM173.801 27.2734H183.801C183.801 21.7506 179.324 17.2734 173.801 17.2734V27.2734ZM173.801 32.8164V42.8164C179.324 42.8164 183.801 38.3393 183.801 32.8164H173.801ZM137.793 32.8164H127.793C127.793 38.3393 132.27 42.8164 137.793 42.8164V32.8164ZM137.793 27.2734V17.2734C132.27 17.2734 127.793 21.7506 127.793 27.2734H137.793ZM150.383 27.2734V37.2734C155.906 37.2734 160.383 32.7963 160.383 27.2734H150.383ZM150.383 20.7422V10.7422C144.86 10.7422 140.383 15.2193 140.383 20.7422H150.383ZM157.215 20.7422H167.215C167.215 15.2193 162.738 10.7422 157.215 10.7422V20.7422ZM157.215 27.2734H147.215C147.215 32.7963 151.692 37.2734 157.215 37.2734V27.2734ZM155.496 34.5352L155.447 44.535C157.153 44.5434 158.515 44.6833 159.548 44.8833C160.602 45.0872 161.142 45.3204 161.319 45.413C161.488 45.5016 161.093 45.3363 160.635 44.6831C160.118 43.9445 159.855 43.052 159.848 42.2721L169.848 42.1836L179.847 42.0951C179.785 35.0601 175.443 30.2339 170.599 27.6964C166.132 25.3562 160.751 24.5607 155.545 24.5353L155.496 34.5352ZM169.848 42.1836L159.848 42.0935C159.856 41.2589 160.137 40.3639 160.637 39.6511C161.079 39.0213 161.451 38.8678 161.274 38.9618C161.093 39.0579 160.555 39.2922 159.523 39.4949C158.509 39.6938 157.171 39.832 155.496 39.832V49.832V59.832C160.778 59.832 166.174 59.0016 170.644 56.631C175.424 54.096 179.784 49.2838 179.847 42.2737L169.848 42.1836ZM155.496 49.832V39.832C153.876 39.832 152.561 39.6957 151.552 39.4967C150.523 39.2938 149.968 39.0568 149.764 38.9493C149.558 38.8407 149.922 38.9805 150.367 39.6082C150.877 40.3281 151.188 41.2681 151.188 42.1836H141.188L131.188 42.1836C131.188 49.3556 135.737 54.1645 140.442 56.6435C144.9 58.9926 150.272 59.832 155.496 59.832V49.832ZM141.188 42.1836H151.188C151.188 43.0429 150.898 43.9797 150.369 44.726C149.908 45.3769 149.521 45.5286 149.72 45.4253C149.919 45.3215 150.477 45.0857 151.526 44.8815C152.555 44.6814 153.894 44.5433 155.546 44.535L155.496 34.5352L155.446 24.5353C150.299 24.5609 144.943 25.3649 140.486 27.6841C135.716 30.1666 131.188 34.9877 131.188 42.1836L141.188 42.1836ZM155.496 39.6055V29.6055C152.773 29.6055 149.562 29.7971 146.712 30.7719C145.249 31.2723 143.132 32.2258 141.304 34.1489C139.227 36.3349 138.031 39.2604 138.108 42.4274L148.105 42.1836L158.102 41.9398C158.158 44.226 157.263 46.3888 155.802 47.9262C154.591 49.2007 153.406 49.6198 153.184 49.6959C152.888 49.7969 152.893 49.7534 153.386 49.698C153.841 49.6468 154.528 49.6055 155.496 49.6055V39.6055ZM148.105 42.1836L138.108 41.9398C138.031 45.1282 139.246 48.1154 141.436 50.3345C143.332 52.2553 145.506 53.1526 146.934 53.604C149.723 54.4852 152.881 54.6328 155.496 54.6328V44.6328V34.6328C154.483 34.6328 153.755 34.5963 153.257 34.5469C152.719 34.4934 152.687 34.447 152.961 34.5336C153.149 34.5931 154.39 34.9881 155.67 36.2845C156.362 36.9859 157.031 37.9202 157.498 39.0886C157.965 40.2595 158.127 41.4123 158.102 42.4274L148.105 42.1836ZM155.496 44.6328V54.6328C158.139 54.6328 161.292 54.4833 164.075 53.6187C165.5 53.1763 167.64 52.3065 169.531 50.4554C171.708 48.3244 173.016 45.4009 173.016 42.1836H163.016H153.016C153.016 41.1525 153.211 40.0069 153.701 38.8624C154.188 37.7241 154.862 36.8277 155.54 36.1636C156.793 34.9369 157.98 34.5693 158.142 34.519C158.389 34.4425 158.331 34.4915 157.778 34.5457C157.265 34.5962 156.521 34.6328 155.496 34.6328V44.6328ZM163.016 42.1836H173.016C173.016 38.9929 171.733 36.1278 169.665 34.0258C167.84 32.1701 165.753 31.2452 164.295 30.7551C161.451 29.7989 158.245 29.6055 155.496 29.6055V39.6055V49.6055C156.476 49.6055 157.179 49.647 157.651 49.6994C158.159 49.7558 158.19 49.8025 157.922 49.7126C157.727 49.6469 156.593 49.2565 155.406 48.0493C153.976 46.5959 153.016 44.4935 153.016 42.1836H163.016ZM169.719 11.6758H159.719V14.8555H169.719H179.719V11.6758L169.719 11.6758ZM169.719 14.8555H159.719C159.719 17.9608 159.678 20.2068 158.947 22.751L168.559 25.5117L178.17 28.2724C179.759 22.7386 179.719 17.9376 179.719 14.8555H169.719ZM168.559 25.5117L169.447 15.5512L162.701 14.9497L161.812 24.9102L160.924 34.8706L167.67 35.4722L168.559 25.5117ZM161.812 24.9102L171.537 27.2414C172.505 23.202 172.721 20.0519 172.797 17.2765L162.801 17.0039L152.805 16.7313C152.751 18.6825 152.624 20.3449 152.088 22.5789L161.812 24.9102ZM162.801 17.0039V7.00391H141.703V17.0039V27.0039H162.801V17.0039ZM141.703 17.0039H151.703V11.6758H141.703H131.703V17.0039H141.703ZM141.703 11.6758V21.6758H169.719V11.6758V1.67578L141.703 1.67578V11.6758ZM173.801 27.2734H163.801V32.8164H173.801H183.801V27.2734H173.801ZM173.801 32.8164V22.8164H137.793V32.8164V42.8164L173.801 42.8164V32.8164ZM137.793 32.8164L147.793 32.8164V27.2734H137.793H127.793V32.8164H137.793ZM137.793 27.2734V37.2734L150.383 37.2734V27.2734V17.2734H137.793V27.2734ZM150.383 27.2734H160.383V20.7422H150.383H140.383V27.2734H150.383ZM150.383 20.7422V30.7422H157.215V20.7422V10.7422H150.383V20.7422ZM157.215 20.7422H147.215V27.2734H157.215H167.215V20.7422H157.215ZM157.215 27.2734V37.2734H173.801V27.2734V17.2734H157.215V27.2734ZM211.957 31.7852H221.957C221.957 26.2623 217.48 21.7852 211.957 21.7852V31.7852ZM211.957 37.2852V47.2852C217.48 47.2852 221.957 42.808 221.957 37.2852H211.957ZM204.137 37.2852V27.2852C198.614 27.2852 194.137 31.7623 194.137 37.2852H204.137ZM204.137 49.7461V59.7461C209.66 59.7461 214.137 55.2689 214.137 49.7461H204.137ZM197.133 49.7461H187.133C187.133 55.2689 191.61 59.7461 197.133 59.7461V49.7461ZM197.133 37.2852H207.133C207.133 31.7623 202.656 27.2852 197.133 27.2852V37.2852ZM190.301 37.2852V27.2852C184.778 27.2852 180.301 31.7623 180.301 37.2852H190.301ZM190.301 49.7461V59.7461C195.824 59.7461 200.301 55.2689 200.301 49.7461H190.301ZM183.254 49.7461H173.254C173.254 55.2689 177.731 59.7461 183.254 59.7461V49.7461ZM183.254 37.2852H193.254C193.254 31.7623 188.777 27.2852 183.254 27.2852V37.2852ZM175.691 37.2852H165.691C165.691 42.808 170.169 47.2852 175.691 47.2852V37.2852ZM175.691 31.7852V21.7852C170.169 21.7852 165.691 26.2623 165.691 31.7852H175.691ZM193.695 11.2031L193.646 21.203C193.679 21.2032 193.712 21.2032 193.745 21.203L193.695 11.2031ZM179 20.3555L189 20.4348C189 20.3827 189 20.3306 189 20.2785L179 20.3555ZM193.695 23.8359L193.605 33.8355C193.665 33.8361 193.724 33.8361 193.784 33.8355L193.695 23.8359ZM211.957 31.7852H201.957V37.2852H211.957H221.957V31.7852H211.957ZM211.957 37.2852V27.2852L204.137 27.2852V37.2852V47.2852H211.957V37.2852ZM204.137 37.2852H194.137V49.7461H204.137H214.137V37.2852H204.137ZM204.137 49.7461V39.7461H197.133V49.7461V59.7461H204.137V49.7461ZM197.133 49.7461H207.133V37.2852H197.133H187.133V49.7461H197.133ZM197.133 37.2852V27.2852H190.301V37.2852V47.2852H197.133V37.2852ZM190.301 37.2852H180.301V49.7461H190.301H200.301V37.2852H190.301ZM190.301 49.7461V39.7461H183.254V49.7461V59.7461H190.301V49.7461ZM183.254 49.7461H193.254V37.2852H183.254H173.254V49.7461H183.254ZM183.254 37.2852V27.2852H175.691V37.2852V47.2852H183.254V37.2852ZM175.691 37.2852H185.691V31.7852H175.691H165.691V37.2852H175.691ZM175.691 31.7852V41.7852H211.957V31.7852V21.7852L175.691 21.7852V31.7852ZM193.695 11.2031L193.745 21.203C196.821 21.1877 198.555 21.8512 199.155 22.2155C199.407 22.3683 199.234 22.3288 198.982 21.9329C198.693 21.479 198.52 20.8939 198.52 20.3555L208.52 20.3555H218.52C218.52 13.2776 214.404 8.07746 209.537 5.12141C204.884 2.29531 199.207 1.17558 193.646 1.20325L193.695 11.2031ZM208.52 20.3555L198.52 20.3555C198.52 19.7032 198.734 19.0256 199.071 18.515C199.363 18.0731 199.565 18.023 199.298 18.1795C198.661 18.5516 196.859 19.207 193.695 19.207V29.207V39.207C199.168 39.207 204.778 38.1437 209.395 35.4435C214.214 32.6248 218.52 27.5226 218.52 20.3555H208.52ZM193.695 29.207V19.207C190.528 19.207 188.769 18.5503 188.18 18.2023C187.939 18.0595 188.161 18.1285 188.46 18.5914C188.803 19.1218 189.005 19.8027 189 20.4348L179 20.3555L169 20.2761C168.944 27.4166 173.166 32.5612 178.005 35.4208C182.616 38.145 188.226 39.207 193.695 39.207V29.207ZM179 20.3555L189 20.2785C189.004 20.7976 188.842 21.3849 188.547 21.8569C188.288 22.2722 188.097 22.3303 188.323 22.1917C188.876 21.8525 190.566 21.1877 193.646 21.203L193.695 11.2031L193.745 1.20325C188.187 1.1756 182.509 2.29394 177.863 5.14523C172.979 8.14194 168.946 13.3822 169 20.4324L179 20.3555ZM193.695 16.6602V6.66016C190.793 6.66016 187.16 6.96784 183.887 8.48959C182.141 9.30184 180.125 10.6337 178.537 12.804C176.868 15.0853 176.09 17.7293 176.09 20.3555H186.09H196.09C196.09 21.7141 195.666 23.2624 194.678 24.6131C193.771 25.8529 192.762 26.4193 192.321 26.6247C191.891 26.8246 191.735 26.8092 192.06 26.7579C192.355 26.7111 192.885 26.6602 193.695 26.6602V16.6602ZM186.09 20.3555H176.09C176.09 26.8076 180.535 30.5435 184.074 32.1017C187.225 33.4894 190.732 33.8096 193.605 33.8355L193.695 23.8359L193.785 13.8363C192.953 13.8288 192.386 13.7747 192.046 13.7213C191.675 13.6631 191.766 13.6359 192.134 13.7977C192.49 13.9544 193.502 14.4652 194.46 15.6804C195.535 17.0432 196.09 18.7281 196.09 20.3555H186.09ZM193.695 23.8359L193.784 33.8355C196.679 33.8099 200.207 33.4945 203.37 32.1017C205.043 31.3651 207.069 30.128 208.708 28.0336C210.46 25.7943 211.344 23.1064 211.344 20.3555L201.344 20.3555H191.344C191.344 18.7647 191.879 17.0866 192.955 15.7107C193.918 14.4797 194.943 13.9596 195.31 13.7977C195.686 13.6322 195.781 13.6601 195.401 13.7193C195.051 13.7737 194.468 13.8287 193.607 13.8363L193.695 23.8359ZM201.344 20.3555L211.344 20.3555C211.344 17.7631 210.588 15.1263 208.924 12.8345C207.338 10.6494 205.316 9.30765 203.557 8.48959C200.273 6.96237 196.618 6.66016 193.695 6.66016V16.6602V26.6602C194.535 26.6602 195.082 26.712 195.387 26.7599C195.722 26.8125 195.562 26.8286 195.124 26.6247C194.67 26.4135 193.649 25.8372 192.739 24.5826C191.751 23.2214 191.344 21.6803 191.344 20.3555H201.344ZM245.43 10H255.43C255.43 4.47715 250.953 0 245.43 0V10ZM245.43 25.082H235.43C235.43 30.6049 239.907 35.082 245.43 35.082V25.082ZM250.801 25.082H260.801C260.801 19.5592 256.324 15.082 250.801 15.082V25.082ZM250.801 30.7109V40.7109C256.324 40.7109 260.801 36.2338 260.801 30.7109H250.801ZM245.43 30.7109V20.7109C239.907 20.7109 235.43 25.1881 235.43 30.7109H245.43ZM245.43 49.7461V59.7461C250.953 59.7461 255.43 55.2689 255.43 49.7461H245.43ZM238.598 49.7461H228.598C228.598 55.2689 233.075 59.7461 238.598 59.7461V49.7461ZM238.598 10V0C233.075 0 228.598 4.47715 228.598 10L238.598 10ZM236.664 15.6719H246.664C246.664 10.149 242.187 5.67187 236.664 5.67187V15.6719ZM236.664 21.1289V31.1289C242.187 31.1289 246.664 26.6518 246.664 21.1289H236.664ZM213.504 21.1289L203.504 21.1289C203.504 26.6518 207.981 31.1289 213.504 31.1289V21.1289ZM213.504 15.6719V5.67187C207.981 5.67187 203.504 10.149 203.504 15.6719L213.504 15.6719ZM221.711 15.6719V25.6719C227.234 25.6719 231.711 21.1947 231.711 15.6719H221.711ZM221.711 10.7305V0.730469C216.188 0.730469 211.711 5.20762 211.711 10.7305H221.711ZM228.586 10.7305L238.586 10.7305C238.586 5.20762 234.109 0.730469 228.586 0.730469V10.7305ZM228.586 15.6719H218.586C218.586 21.1947 223.063 25.6719 228.586 25.6719V15.6719ZM221.324 32.3437L231.323 32.4976C231.325 32.3926 231.325 32.2875 231.323 32.1825L221.324 32.3437ZM245.43 10L235.43 10V25.082H245.43H255.43V10H245.43ZM245.43 25.082V35.082H250.801V25.082V15.082H245.43V25.082ZM250.801 25.082H240.801V30.7109H250.801H260.801V25.082H250.801ZM250.801 30.7109V20.7109H245.43V30.7109V40.7109H250.801V30.7109ZM245.43 30.7109H235.43V49.7461H245.43H255.43V30.7109H245.43ZM245.43 49.7461V39.7461H238.598V49.7461V59.7461H245.43V49.7461ZM238.598 49.7461H248.598V10H238.598L228.598 10V49.7461H238.598ZM238.598 10V20H245.43V10V0L238.598 0V10ZM236.664 15.6719H226.664V21.1289H236.664H246.664V15.6719H236.664ZM236.664 21.1289V11.1289H213.504V21.1289V31.1289H236.664V21.1289ZM213.504 21.1289H223.504V15.6719H213.504L203.504 15.6719V21.1289L213.504 21.1289ZM213.504 15.6719V25.6719H221.711V15.6719V5.67187H213.504V15.6719ZM221.711 15.6719H231.711V10.7305H221.711H211.711V15.6719H221.711ZM221.711 10.7305V20.7305H228.586V10.7305V0.730469H221.711V10.7305ZM228.586 10.7305H218.586V15.6719H228.586H238.586V10.7305L228.586 10.7305ZM228.586 15.6719V25.6719H236.664V15.6719V5.67187H228.586V15.6719ZM225.148 22.6758V32.6758C225.475 32.6758 225.673 32.7311 225.761 32.7641C225.851 32.7974 225.844 32.8128 225.787 32.7608C225.727 32.7055 225.652 32.6106 225.597 32.4862C225.54 32.3569 225.547 32.29 225.547 32.3437H235.547H245.547C245.547 20.4166 235.749 12.6758 225.148 12.6758V22.6758ZM235.547 32.3437H225.547C225.547 32.4188 225.536 32.3657 225.589 32.2435C225.641 32.1256 225.714 32.0317 225.776 31.9749C225.834 31.9214 225.843 31.9351 225.757 31.9673C225.671 31.9994 225.475 32.0547 225.148 32.0547V42.0547V52.0547C235.78 52.0547 245.547 44.2857 245.547 32.3437H235.547ZM225.148 42.0547V32.0547C224.765 32.0547 224.543 31.9911 224.454 31.9582C224.366 31.9257 224.388 31.9166 224.462 31.9846C224.539 32.056 224.618 32.1625 224.67 32.2831C224.723 32.4057 224.707 32.4461 224.707 32.3437H214.707H204.707C204.707 44.2597 214.36 52.0547 225.148 52.0547V42.0547ZM214.707 32.3437H224.707C224.707 32.2625 224.719 32.3167 224.663 32.4465C224.608 32.5737 224.526 32.6813 224.45 32.751C224.378 32.8175 224.359 32.8068 224.45 32.7732C224.541 32.7394 224.765 32.6758 225.148 32.6758V22.6758V12.6758C214.39 12.6758 204.707 20.4426 204.707 32.3437H214.707ZM225.148 28.2187V18.2187C221.835 18.2187 218.113 19.3418 215.229 22.2942C212.325 25.2668 211.27 29.0654 211.326 32.505L221.324 32.3437L231.323 32.1825C231.335 32.958 231.075 34.6941 229.535 36.2703C228.015 37.8262 226.228 38.2187 225.148 38.2187V28.2187ZM221.324 32.3437L211.325 32.1899C211.273 35.5736 212.262 39.4751 215.311 42.5247C218.313 45.5265 222.082 46.4687 225.148 46.4687V36.4687V26.4687C225.981 26.4687 227.816 26.745 229.453 28.3825C231.139 30.0678 231.332 31.9069 231.323 32.4976L221.324 32.3437ZM225.148 36.4687V46.4687C228.262 46.4687 232.018 45.4854 234.988 42.4683C237.961 39.448 238.93 35.6263 238.93 32.3437H228.93H218.93C218.93 31.8542 219.104 30.095 220.734 28.4389C222.361 26.7861 224.226 26.4687 225.148 26.4687V36.4687ZM228.93 32.3437H238.93C238.93 29.0131 237.9 25.2955 235.069 22.3511C232.221 19.3886 228.512 18.2187 225.148 18.2187V28.2187V38.2187C223.976 38.2187 222.158 37.7793 220.653 36.2133C219.164 34.6654 218.93 33.0104 218.93 32.3437H228.93ZM284.102 20.0977H294.102C294.102 14.5748 289.624 10.0977 284.102 10.0977V20.0977ZM284.102 25.4258V35.4258C289.624 35.4258 294.102 30.9486 294.102 25.4258H284.102ZM256 25.4258H246C246 30.9486 250.477 35.4258 256 35.4258V25.4258ZM256 11.418V1.41797C250.477 1.41797 246 5.89512 246 11.418H256ZM262.875 11.418H272.875C272.875 5.89512 268.398 1.41797 262.875 1.41797V11.418ZM262.875 20.0977H252.875C252.875 25.6205 257.352 30.0977 262.875 30.0977V20.0977ZM288.012 28.9492H298.012C298.012 23.4264 293.535 18.9492 288.012 18.9492V28.9492ZM288.012 34.2773V44.2773C293.535 44.2773 298.012 39.8002 298.012 34.2773H288.012ZM251.746 34.2773H241.746C241.746 39.8002 246.223 44.2773 251.746 44.2773V34.2773ZM251.746 28.9492V18.9492C246.223 18.9492 241.746 23.4264 241.746 28.9492H251.746ZM284.359 43.4727H294.359C294.359 37.9498 289.882 33.4727 284.359 33.4727V43.4727ZM284.359 48.9727V58.9727C289.882 58.9727 294.359 54.4955 294.359 48.9727H284.359ZM255.527 48.9727H245.527C245.527 54.4955 250.005 58.9727 255.527 58.9727V48.9727ZM255.527 37.0273V27.0273C250.005 27.0273 245.527 31.5045 245.527 37.0273H255.527ZM262.488 37.0273H272.488C272.488 31.5045 268.011 27.0273 262.488 27.0273V37.0273ZM262.488 43.4727H252.488C252.488 48.9955 256.965 53.4727 262.488 53.4727V43.4727ZM284.102 20.0977H274.102V25.4258H284.102H294.102V20.0977H284.102ZM284.102 25.4258V15.4258H256V25.4258V35.4258H284.102V25.4258ZM256 25.4258H266V11.418H256H246V25.4258H256ZM256 11.418V21.418H262.875V11.418V1.41797H256V11.418ZM262.875 11.418H252.875V20.0977H262.875H272.875V11.418H262.875ZM262.875 20.0977V30.0977H284.102V20.0977V10.0977H262.875V20.0977ZM288.012 28.9492H278.012V34.2773H288.012H298.012V28.9492H288.012ZM288.012 34.2773V24.2773H251.746V34.2773V44.2773H288.012V34.2773ZM251.746 34.2773H261.746V28.9492H251.746H241.746V34.2773H251.746ZM251.746 28.9492V38.9492H288.012V28.9492V18.9492H251.746V28.9492ZM284.359 43.4727H274.359V48.9727H284.359H294.359V43.4727H284.359ZM284.359 48.9727V38.9727H255.527V48.9727V58.9727H284.359V48.9727ZM255.527 48.9727H265.527V37.0273H255.527H245.527V48.9727H255.527ZM255.527 37.0273V47.0273H262.488V37.0273V27.0273H255.527V37.0273ZM262.488 37.0273H252.488V43.4727H262.488H272.488V37.0273H262.488ZM262.488 43.4727V53.4727H284.359V43.4727V33.4727H262.488V43.4727Z" fill="white" mask="url(#path-1-outside-1_6524_1787)"/>
</g>
<defs>
<filter id="filter0_d_6524_1787" x="0" y="0" width="302.012" height="67.832" filterUnits="userSpaceOnUse" color-interpolation-filters="sRGB">
<feFlood flood-opacity="0" result="BackgroundImageFix"/>
<feColorMatrix in="SourceAlpha" type="matrix" values="0 0 0 0 0 0 0 0 0 0 0 0 0 0 0 0 0 0 127 0" result="hardAlpha"/>
<feOffset dy="4"/>
<feGaussianBlur stdDeviation="2"/>
<feComposite in2="hardAlpha" operator="out"/>
<feColorMatrix type="matrix" values="0 0 0 0 0 0 0 0 0 0 0 0 0 0 0 0 0 0 0.07 0"/>
<feBlend mode="normal" in2="BackgroundImageFix" result="effect1_dropShadow_6524_1787"/>
<feBlend mode="normal" in="SourceGraphic" in2="effect1_dropShadow_6524_1787" result="shape"/>
</filter>
</defs>
</svg>
