<svg width="302" height="68" viewBox="0 0 302 68" fill="none" xmlns="http://www.w3.org/2000/svg">
<g filter="url(#filter0_d_6526_5751)">
<mask id="path-1-outside-1_6526_5751" maskUnits="userSpaceOnUse" x="3.23828" y="-0.378906" width="294" height="61" fill="black">
<rect fill="white" x="3.23828" y="-0.378906" width="294" height="61"/>
<path d="M31.7461 34.1055C40.082 34.0625 45.3242 36.9844 45.3242 41.9688C45.3242 47.0391 40.082 50.0039 31.7461 50.0039C23.1953 50.0039 17.8242 47.0391 17.8672 41.9688C17.8242 36.9844 23.1953 34.0625 31.7461 34.1055ZM31.7461 39.3906C27.0625 39.3906 24.7422 40.0781 24.7422 41.9688C24.7422 43.8594 27.0625 44.6758 31.7461 44.6758C36.3438 44.6758 38.4922 43.8594 38.4922 41.9688C38.4922 40.0781 36.3438 39.3906 31.7461 39.3906ZM44.9375 10.1289V18.9375H49.8789V24.6094H44.9375V33.2891H38.0195V10.1289L44.9375 10.1289ZM20.832 12.707V17.0469H26.8047V12.707H33.6797V31.5273H14V12.707H20.832ZM20.832 26.1992H26.8047V22.332H20.832V26.1992ZM87.6484 15.2422V20.7852H82.9648V23.9219H87.6484V29.4648H82.9648V35.1367H76.0469V10.1289H82.9648V15.2422H87.6484ZM69.6875 35.5664C77.9805 35.5664 83.3516 38.2734 83.3945 42.7852C83.3516 47.2109 77.9805 49.9609 69.6875 49.9609C61.2227 49.9609 55.9375 47.2109 55.9805 42.7852C55.9375 38.2734 61.2227 35.5664 69.6875 35.5664ZM69.6875 40.7656C65.0039 40.7656 62.8125 41.2383 62.8125 42.7852C62.8125 44.2031 65.0039 44.8906 69.6875 44.8906C74.2422 44.8906 76.4336 44.2031 76.4336 42.7852C76.4336 41.2383 74.2422 40.7656 69.6875 40.7656ZM74.6289 13.4805V18.8086H51.125V13.4805H59.418V10H66.3359V13.4805H74.6289ZM62.8555 19.7109C68.6562 19.7109 72.7812 22.7188 72.7812 26.9297C72.7812 31.2266 68.6562 34.1055 62.8555 34.1484C56.9688 34.1055 52.8438 31.2266 52.8438 26.9297C52.8438 22.7188 56.9688 19.7109 62.8555 19.7109ZM62.8555 24.6953C60.8789 24.6953 59.5898 25.3398 59.5898 26.9297C59.5898 28.4766 60.8789 29.1211 62.8555 29.1211C64.875 29.1211 66.25 28.4766 66.25 26.9297C66.25 25.3398 64.875 24.6953 62.8555 24.6953ZM122.754 10.1289V50.0039H115.793V10.1289H122.754ZM100.926 12.793C106.984 12.75 111.539 18.3359 111.539 27.1016C111.539 35.9961 106.984 41.5391 100.926 41.5391C94.7383 41.5391 90.1406 35.9961 90.1406 27.1016C90.1406 18.3359 94.7383 12.75 100.926 12.793ZM100.926 19.0234C98.3906 18.9805 96.8008 21.6016 96.8008 27.1016C96.8008 32.6875 98.3906 35.2227 100.926 35.2227C103.289 35.2227 104.922 32.6875 104.922 27.1016C104.922 21.6016 103.289 18.9805 100.926 19.0234ZM173.07 32.5156V37.8008L136.805 37.8008V32.5156L173.07 32.5156ZM168.859 43.9453V49.3164H140.973V39.4336H147.891V43.9453H168.859ZM171.309 13.2227V18.293H138.438V13.2227H151.414V10.1289H158.375V13.2227H171.309ZM154.938 19.1523C163.617 19.1523 168.559 21.1719 168.559 25.2539C168.559 29.207 163.617 31.3555 154.938 31.3555C146.215 31.3555 141.23 29.207 141.273 25.2539C141.23 21.1719 146.215 19.1523 154.938 19.1523ZM154.938 23.8789C150.082 23.8789 148.277 24.2656 148.32 25.2539C148.277 26.2852 150.082 26.543 154.938 26.543C159.707 26.543 161.512 26.2852 161.512 25.2539C161.512 24.2656 159.707 23.8789 154.938 23.8789ZM211.184 24.9102V30.2812H174.832V24.9102L211.184 24.9102ZM206.844 18.0781V23.4062L179.172 23.4062V10.6016H206.586V16.0586L186.004 16.0586V18.0781L206.844 18.0781ZM206.801 31.8281V42.957H185.617V44.375H207.746V49.6172H178.871V38.1445H200.012V36.9414H178.914V31.8281H206.801ZM246.461 10.1289V50.0039H239.586V10.1289H246.461ZM234 13.2656V29.3359H222.012V35.2656C227.684 35.2012 232.346 34.8789 237.395 34.0195L237.953 39.5625C231.938 40.6797 226.137 40.8945 218.617 40.8945H214.879V23.9648H226.953V18.7656H214.879V13.2656H234ZM283.242 20.2266V25.5547H255.141V11.5469H262.016V20.2266H283.242ZM287.152 29.0781V34.4062H250.887V29.0781H287.152ZM283.5 43.6016V49.1016H254.668V37.1562H261.629V43.6016H283.5Z"/>
</mask>
<path d="M31.7461 34.1055C40.082 34.0625 45.3242 36.9844 45.3242 41.9688C45.3242 47.0391 40.082 50.0039 31.7461 50.0039C23.1953 50.0039 17.8242 47.0391 17.8672 41.9688C17.8242 36.9844 23.1953 34.0625 31.7461 34.1055ZM31.7461 39.3906C27.0625 39.3906 24.7422 40.0781 24.7422 41.9688C24.7422 43.8594 27.0625 44.6758 31.7461 44.6758C36.3438 44.6758 38.4922 43.8594 38.4922 41.9688C38.4922 40.0781 36.3438 39.3906 31.7461 39.3906ZM44.9375 10.1289V18.9375H49.8789V24.6094H44.9375V33.2891H38.0195V10.1289L44.9375 10.1289ZM20.832 12.707V17.0469H26.8047V12.707H33.6797V31.5273H14V12.707H20.832ZM20.832 26.1992H26.8047V22.332H20.832V26.1992ZM87.6484 15.2422V20.7852H82.9648V23.9219H87.6484V29.4648H82.9648V35.1367H76.0469V10.1289H82.9648V15.2422H87.6484ZM69.6875 35.5664C77.9805 35.5664 83.3516 38.2734 83.3945 42.7852C83.3516 47.2109 77.9805 49.9609 69.6875 49.9609C61.2227 49.9609 55.9375 47.2109 55.9805 42.7852C55.9375 38.2734 61.2227 35.5664 69.6875 35.5664ZM69.6875 40.7656C65.0039 40.7656 62.8125 41.2383 62.8125 42.7852C62.8125 44.2031 65.0039 44.8906 69.6875 44.8906C74.2422 44.8906 76.4336 44.2031 76.4336 42.7852C76.4336 41.2383 74.2422 40.7656 69.6875 40.7656ZM74.6289 13.4805V18.8086H51.125V13.4805H59.418V10H66.3359V13.4805H74.6289ZM62.8555 19.7109C68.6562 19.7109 72.7812 22.7188 72.7812 26.9297C72.7812 31.2266 68.6562 34.1055 62.8555 34.1484C56.9688 34.1055 52.8438 31.2266 52.8438 26.9297C52.8438 22.7188 56.9688 19.7109 62.8555 19.7109ZM62.8555 24.6953C60.8789 24.6953 59.5898 25.3398 59.5898 26.9297C59.5898 28.4766 60.8789 29.1211 62.8555 29.1211C64.875 29.1211 66.25 28.4766 66.25 26.9297C66.25 25.3398 64.875 24.6953 62.8555 24.6953ZM122.754 10.1289V50.0039H115.793V10.1289H122.754ZM100.926 12.793C106.984 12.75 111.539 18.3359 111.539 27.1016C111.539 35.9961 106.984 41.5391 100.926 41.5391C94.7383 41.5391 90.1406 35.9961 90.1406 27.1016C90.1406 18.3359 94.7383 12.75 100.926 12.793ZM100.926 19.0234C98.3906 18.9805 96.8008 21.6016 96.8008 27.1016C96.8008 32.6875 98.3906 35.2227 100.926 35.2227C103.289 35.2227 104.922 32.6875 104.922 27.1016C104.922 21.6016 103.289 18.9805 100.926 19.0234ZM173.07 32.5156V37.8008L136.805 37.8008V32.5156L173.07 32.5156ZM168.859 43.9453V49.3164H140.973V39.4336H147.891V43.9453H168.859ZM171.309 13.2227V18.293H138.438V13.2227H151.414V10.1289H158.375V13.2227H171.309ZM154.938 19.1523C163.617 19.1523 168.559 21.1719 168.559 25.2539C168.559 29.207 163.617 31.3555 154.938 31.3555C146.215 31.3555 141.23 29.207 141.273 25.2539C141.23 21.1719 146.215 19.1523 154.938 19.1523ZM154.938 23.8789C150.082 23.8789 148.277 24.2656 148.32 25.2539C148.277 26.2852 150.082 26.543 154.938 26.543C159.707 26.543 161.512 26.2852 161.512 25.2539C161.512 24.2656 159.707 23.8789 154.938 23.8789ZM211.184 24.9102V30.2812H174.832V24.9102L211.184 24.9102ZM206.844 18.0781V23.4062L179.172 23.4062V10.6016H206.586V16.0586L186.004 16.0586V18.0781L206.844 18.0781ZM206.801 31.8281V42.957H185.617V44.375H207.746V49.6172H178.871V38.1445H200.012V36.9414H178.914V31.8281H206.801ZM246.461 10.1289V50.0039H239.586V10.1289H246.461ZM234 13.2656V29.3359H222.012V35.2656C227.684 35.2012 232.346 34.8789 237.395 34.0195L237.953 39.5625C231.938 40.6797 226.137 40.8945 218.617 40.8945H214.879V23.9648H226.953V18.7656H214.879V13.2656H234ZM283.242 20.2266V25.5547H255.141V11.5469H262.016V20.2266H283.242ZM287.152 29.0781V34.4062H250.887V29.0781H287.152ZM283.5 43.6016V49.1016H254.668V37.1562H261.629V43.6016H283.5Z" fill="#11DCA9"/>
<path d="M31.7461 34.1055L31.6958 44.1053C31.7298 44.1055 31.7637 44.1055 31.7976 44.1053L31.7461 34.1055ZM17.8672 41.9688L27.8668 42.0535C27.8673 41.9965 27.8673 41.9395 27.8668 41.8825L17.8672 41.9688ZM44.9375 10.1289H54.9375C54.9375 4.60606 50.4603 0.128906 44.9375 0.128906V10.1289ZM44.9375 18.9375H34.9375C34.9375 24.4603 39.4147 28.9375 44.9375 28.9375V18.9375ZM49.8789 18.9375H59.8789C59.8789 13.4147 55.4018 8.9375 49.8789 8.9375V18.9375ZM49.8789 24.6094V34.6094C55.4018 34.6094 59.8789 30.1322 59.8789 24.6094H49.8789ZM44.9375 24.6094V14.6094C39.4147 14.6094 34.9375 19.0865 34.9375 24.6094H44.9375ZM44.9375 33.2891V43.2891C50.4603 43.2891 54.9375 38.8119 54.9375 33.2891H44.9375ZM38.0195 33.2891H28.0195C28.0195 38.8119 32.4967 43.2891 38.0195 43.2891V33.2891ZM38.0195 10.1289V0.128906C32.4967 0.128906 28.0195 4.60606 28.0195 10.1289H38.0195ZM20.832 12.707H30.832C30.832 7.18418 26.3549 2.70703 20.832 2.70703V12.707ZM20.832 17.0469H10.832C10.832 22.5697 15.3092 27.0469 20.832 27.0469V17.0469ZM26.8047 17.0469V27.0469C32.3275 27.0469 36.8047 22.5697 36.8047 17.0469H26.8047ZM26.8047 12.707V2.70703C21.2818 2.70703 16.8047 7.18418 16.8047 12.707H26.8047ZM33.6797 12.707H43.6797C43.6797 7.18418 39.2025 2.70703 33.6797 2.70703V12.707ZM33.6797 31.5273V41.5273C39.2025 41.5273 43.6797 37.0502 43.6797 31.5273H33.6797ZM14 31.5273H4C4 37.0502 8.47715 41.5273 14 41.5273L14 31.5273ZM14 12.707V2.70703C8.47715 2.70703 4 7.18418 4 12.707H14ZM20.832 26.1992H10.832C10.832 31.7221 15.3092 36.1992 20.832 36.1992V26.1992ZM26.8047 26.1992V36.1992C32.3275 36.1992 36.8047 31.7221 36.8047 26.1992H26.8047ZM26.8047 22.332H36.8047C36.8047 16.8092 32.3275 12.332 26.8047 12.332V22.332ZM20.832 22.332V12.332C15.3092 12.332 10.832 16.8092 10.832 22.332H20.832ZM31.7461 34.1055L31.7976 44.1053C33.3104 44.0975 34.4883 44.2268 35.3496 44.4058C36.2266 44.5881 36.6215 44.7894 36.6891 44.8282C36.7384 44.8565 36.3486 44.6431 35.9452 44.0109C35.5056 43.3221 35.3242 42.5612 35.3242 41.9688H45.3242H55.3242C55.3242 35.2572 51.5021 30.2657 46.6332 27.4755C42.1828 24.9252 36.8259 24.0792 31.6945 24.1056L31.7461 34.1055ZM45.3242 41.9688H35.3242C35.3242 41.4322 35.487 40.7135 35.9039 40.0489C36.2882 39.4363 36.6624 39.2266 36.6151 39.2542C36.5476 39.2936 36.1567 39.4971 35.2853 39.6842C34.429 39.8681 33.2557 40.0039 31.7461 40.0039V50.0039V60.0039C36.8844 60.0039 42.2538 59.1241 46.7072 56.5212C51.5875 53.6688 55.3242 48.6418 55.3242 41.9688H45.3242ZM31.7461 50.0039V40.0039C30.1677 40.0039 28.9293 39.8655 28.0141 39.6738C27.0821 39.4786 26.6445 39.2619 26.5454 39.2053C26.4636 39.1585 26.8468 39.3586 27.2499 39.9916C27.6924 40.6864 27.8719 41.4572 27.8668 42.0535L17.8672 41.9688L7.86755 41.884C7.80967 48.7134 11.7082 53.7619 16.6226 56.5701C21.1121 59.1355 26.536 60.0039 31.7461 60.0039V50.0039ZM17.8672 41.9688L27.8668 41.8825C27.8724 42.5361 27.6735 43.3496 27.2079 44.0684C26.7857 44.7202 26.3871 44.9234 26.4718 44.8759C26.5717 44.8199 27.0135 44.6058 27.9512 44.4156C28.8714 44.2291 30.1145 44.0974 31.6958 44.1053L31.7461 34.1055L31.7963 24.1056C26.5927 24.0794 21.1817 24.9147 16.6962 27.4278C11.7969 30.1727 7.80833 35.1843 7.86756 42.055L17.8672 41.9688ZM31.7461 39.3906V29.3906C29.2616 29.3906 26.0534 29.5273 23.1824 30.5328C21.6469 31.0706 19.4862 32.0993 17.6711 34.1617C15.6601 36.4467 14.7422 39.2414 14.7422 41.9688H24.7422H34.7422C34.7422 43.7508 34.1143 45.7506 32.6847 47.3749C31.4511 48.7767 30.1632 49.279 29.7932 49.4086C29.39 49.5498 29.2931 49.5187 29.7425 49.4705C30.1494 49.4269 30.7933 49.3906 31.7461 49.3906V39.3906ZM24.7422 41.9688H14.7422C14.7422 44.6838 15.6484 47.4161 17.5548 49.6615C19.2956 51.7119 21.3898 52.795 22.9529 53.3857C25.8848 54.4936 29.1459 54.6758 31.7461 54.6758V44.6758V34.6758C30.8409 34.6758 30.2397 34.635 29.8778 34.5912C29.4775 34.5427 29.6011 34.5176 30.0226 34.6768C30.4203 34.8271 31.6416 35.3516 32.801 36.7172C34.126 38.2778 34.7422 40.199 34.7422 41.9688H24.7422ZM31.7461 44.6758V54.6758C34.2897 54.6758 37.5692 54.4997 40.5262 53.3284C42.1311 52.6926 44.2117 51.5435 45.9008 49.4269C47.7185 47.1493 48.4922 44.4894 48.4922 41.9688H38.4922H28.4922C28.4922 40.3934 28.9974 38.5446 30.2685 36.9517C31.4111 35.52 32.6673 34.9295 33.1604 34.7341C33.6545 34.5384 33.8508 34.5519 33.4985 34.596C33.1855 34.6352 32.6266 34.6758 31.7461 34.6758V44.6758ZM38.4922 41.9688H48.4922C48.4922 39.4403 47.7105 36.716 45.7899 34.3942C44.0228 32.258 41.8691 31.1632 40.2898 30.5834C37.3951 29.5206 34.1704 29.3906 31.7461 29.3906V39.3906V49.3906C32.6752 49.3906 33.2781 49.4268 33.6381 49.4667C34.0421 49.5115 33.8731 49.5329 33.3967 49.358C32.9293 49.1864 31.6 48.618 30.3794 47.1424C29.0053 45.4813 28.4922 43.5519 28.4922 41.9688H38.4922ZM44.9375 10.1289L34.9375 10.1289V18.9375H44.9375H54.9375V10.1289H44.9375ZM44.9375 18.9375V28.9375H49.8789V18.9375V8.9375H44.9375V18.9375ZM49.8789 18.9375H39.8789V24.6094H49.8789H59.8789V18.9375H49.8789ZM49.8789 24.6094V14.6094H44.9375V24.6094V34.6094H49.8789V24.6094ZM44.9375 24.6094H34.9375V33.2891H44.9375H54.9375V24.6094H44.9375ZM44.9375 33.2891V23.2891H38.0195V33.2891V43.2891H44.9375V33.2891ZM38.0195 33.2891H48.0195V10.1289L38.0195 10.1289H28.0195V33.2891H38.0195ZM38.0195 10.1289V20.1289H44.9375V10.1289V0.128906H38.0195V10.1289ZM20.832 12.707H10.832V17.0469H20.832H30.832V12.707H20.832ZM20.832 17.0469V27.0469H26.8047V17.0469V7.04688H20.832V17.0469ZM26.8047 17.0469H36.8047V12.707H26.8047H16.8047V17.0469H26.8047ZM26.8047 12.707V22.707H33.6797V12.707V2.70703L26.8047 2.70703V12.707ZM33.6797 12.707H23.6797V31.5273H33.6797H43.6797V12.707H33.6797ZM33.6797 31.5273V21.5273H14V31.5273L14 41.5273H33.6797V31.5273ZM14 31.5273H24V12.707H14H4L4 31.5273H14ZM14 12.707V22.707H20.832V12.707V2.70703H14V12.707ZM20.832 26.1992V36.1992H26.8047V26.1992V16.1992H20.832V26.1992ZM26.8047 26.1992H36.8047V22.332H26.8047H16.8047V26.1992H26.8047ZM26.8047 22.332V12.332H20.832V22.332V32.332H26.8047V22.332ZM20.832 22.332H10.832V26.1992H20.832H30.832V22.332H20.832ZM87.6484 15.2422H97.6484C97.6484 9.71934 93.1713 5.24219 87.6484 5.24219V15.2422ZM87.6484 20.7852V30.7852C93.1713 30.7852 97.6484 26.308 97.6484 20.7852H87.6484ZM82.9648 20.7852V10.7852C77.442 10.7852 72.9648 15.2623 72.9648 20.7852L82.9648 20.7852ZM82.9648 23.9219L72.9648 23.9219C72.9648 29.4447 77.442 33.9219 82.9648 33.9219V23.9219ZM87.6484 23.9219H97.6484C97.6484 18.399 93.1713 13.9219 87.6484 13.9219V23.9219ZM87.6484 29.4648V39.4648C93.1713 39.4648 97.6484 34.9877 97.6484 29.4648H87.6484ZM82.9648 29.4648V19.4648C77.442 19.4648 72.9648 23.942 72.9648 29.4648H82.9648ZM82.9648 35.1367V45.1367C88.4877 45.1367 92.9648 40.6596 92.9648 35.1367H82.9648ZM76.0469 35.1367H66.0469C66.0469 40.6596 70.524 45.1367 76.0469 45.1367V35.1367ZM76.0469 10.1289V0.128906C70.524 0.128906 66.0469 4.60606 66.0469 10.1289H76.0469ZM82.9648 10.1289H92.9648C92.9648 4.60606 88.4877 0.128906 82.9648 0.128906V10.1289ZM82.9648 15.2422L72.9648 15.2422C72.9648 20.765 77.442 25.2422 82.9648 25.2422V15.2422ZM83.3945 42.7852L93.3941 42.8822C93.3947 42.8181 93.3947 42.754 93.3941 42.6899L83.3945 42.7852ZM55.9805 42.7852L65.98 42.8822C65.9806 42.8181 65.9806 42.754 65.98 42.6899L55.9805 42.7852ZM74.6289 13.4805L84.6289 13.4805C84.6289 7.95762 80.1518 3.48047 74.6289 3.48047V13.4805ZM74.6289 18.8086V28.8086C80.1518 28.8086 84.6289 24.3314 84.6289 18.8086L74.6289 18.8086ZM51.125 18.8086H41.125C41.125 24.3314 45.6022 28.8086 51.125 28.8086V18.8086ZM51.125 13.4805V3.48047C45.6022 3.48047 41.125 7.95762 41.125 13.4805H51.125ZM59.418 13.4805V23.4805C64.9408 23.4805 69.418 19.0033 69.418 13.4805H59.418ZM59.418 10V0C53.8951 0 49.418 4.47715 49.418 10H59.418ZM66.3359 10H76.3359C76.3359 4.47715 71.8588 0 66.3359 0V10ZM66.3359 13.4805H56.3359C56.3359 19.0033 60.8131 23.4805 66.3359 23.4805V13.4805ZM62.8555 34.1484L62.7825 44.1482C62.8315 44.1485 62.8805 44.1485 62.9295 44.1482L62.8555 34.1484ZM87.6484 15.2422H77.6484V20.7852H87.6484H97.6484V15.2422H87.6484ZM87.6484 20.7852V10.7852H82.9648V20.7852V30.7852H87.6484V20.7852ZM82.9648 20.7852L72.9648 20.7852V23.9219L82.9648 23.9219H92.9648V20.7852H82.9648ZM82.9648 23.9219V33.9219H87.6484V23.9219V13.9219H82.9648V23.9219ZM87.6484 23.9219H77.6484V29.4648H87.6484H97.6484V23.9219H87.6484ZM87.6484 29.4648V19.4648H82.9648V29.4648V39.4648H87.6484V29.4648ZM82.9648 29.4648H72.9648V35.1367H82.9648H92.9648V29.4648H82.9648ZM82.9648 35.1367V25.1367L76.0469 25.1367V35.1367V45.1367H82.9648V35.1367ZM76.0469 35.1367H86.0469V10.1289H76.0469H66.0469V35.1367H76.0469ZM76.0469 10.1289V20.1289L82.9648 20.1289V10.1289V0.128906H76.0469V10.1289ZM82.9648 10.1289H72.9648V15.2422L82.9648 15.2422H92.9648V10.1289H82.9648ZM82.9648 15.2422V25.2422H87.6484V15.2422V5.24219H82.9648V15.2422ZM69.6875 35.5664V45.5664C71.2333 45.5664 72.4748 45.6939 73.416 45.8766C74.3768 46.0631 74.8687 46.2767 75.0194 46.3551C75.1717 46.4344 74.7633 46.2609 74.2839 45.5946C73.7389 44.8372 73.4042 43.8519 73.395 42.8804L83.3945 42.7852L93.3941 42.6899C93.3272 35.6672 88.839 31.0001 84.2502 28.6127C79.9119 26.3556 74.7156 25.5664 69.6875 25.5664V35.5664ZM83.3945 42.7852L73.395 42.6881C73.405 41.6539 73.765 40.6471 74.3092 39.8977C74.7866 39.2402 75.1849 39.0754 75.0194 39.1615C74.8589 39.245 74.3598 39.4606 73.4008 39.6483C72.461 39.8323 71.2239 39.9609 69.6875 39.9609V49.9609V59.9609C74.7409 59.9609 79.9271 59.1531 84.2502 56.9039C88.7729 54.5509 93.3257 49.9186 93.3941 42.8822L83.3945 42.7852ZM69.6875 49.9609V39.9609C68.0959 39.9609 66.8275 39.8303 65.8733 39.6452C64.8987 39.4561 64.4118 39.2414 64.2754 39.1701C64.1364 39.0975 64.5786 39.292 65.0816 40.0042C65.6531 40.8133 65.9899 41.8584 65.98 42.8822L55.9805 42.7852L45.9809 42.6881C45.9123 49.7614 50.4122 54.4915 55.0117 56.8953C59.3533 59.1644 64.584 59.9609 69.6875 59.9609V49.9609ZM55.9805 42.7852L65.98 42.6899C65.9892 43.6498 65.6774 44.6721 65.1063 45.4881C64.6018 46.2089 64.1498 46.4122 64.2754 46.3465C64.402 46.2803 64.8817 46.0676 65.8583 45.8797C66.814 45.6958 68.0866 45.5664 69.6875 45.5664V35.5664V25.5664C64.6094 25.5664 59.3682 26.3445 55.0117 28.6213C50.345 31.0602 45.9137 35.8249 45.9809 42.8804L55.9805 42.7852ZM69.6875 40.7656V30.7656C67.3413 30.7656 64.408 30.8479 61.8432 31.553C60.5285 31.9143 58.3407 32.6872 56.3799 34.5299C54.0596 36.7104 52.8125 39.6806 52.8125 42.7852H62.8125H72.8125C72.8125 43.799 72.6267 44.983 72.1055 46.1975C71.583 47.4153 70.8437 48.383 70.0763 49.1042C68.6727 50.4232 67.3255 50.7878 67.1442 50.8377C66.8595 50.9159 66.8784 50.8759 67.4275 50.8324C67.9312 50.7925 68.6599 50.7656 69.6875 50.7656V40.7656ZM62.8125 42.7852H52.8125C52.8125 46.0873 54.23 48.9636 56.3521 50.9732C58.185 52.709 60.2247 53.5183 61.5496 53.9264C64.1695 54.7335 67.1249 54.8906 69.6875 54.8906V44.8906V34.8906C67.5665 34.8906 67.0844 34.704 67.4377 34.8128C67.6293 34.8719 68.8284 35.2434 70.1041 36.4514C70.7967 37.1073 71.5151 38.016 72.0451 39.2016C72.5816 40.4017 72.8125 41.6354 72.8125 42.7852H62.8125ZM69.6875 44.8906V54.8906C72.2023 54.8906 75.1357 54.7318 77.7513 53.9144C79.0753 53.5007 81.1026 52.6841 82.9223 50.9483C85.0221 48.9453 86.4336 46.0809 86.4336 42.7852H76.4336H66.4336C66.4336 41.6356 66.6643 40.407 67.1957 39.214C67.7205 38.0358 68.4314 37.1311 69.1178 36.4764C70.3843 35.2683 71.579 34.8895 71.7858 34.8248C72.1671 34.7057 71.7274 34.8906 69.6875 34.8906V44.8906ZM76.4336 42.7852H86.4336C86.4336 39.6861 85.1916 36.7291 82.8945 34.5547C80.9465 32.7107 78.7704 31.9297 77.4545 31.5628C74.892 30.8482 71.9805 30.7656 69.6875 30.7656V40.7656V50.7656C70.678 50.7656 71.3771 50.7923 71.8562 50.831C72.3801 50.8735 72.3811 50.9111 72.0826 50.8278C71.8839 50.7724 70.5403 50.3996 69.1455 49.0793C68.3847 48.3591 67.653 47.3955 67.1356 46.1853C66.6194 44.9779 66.4336 43.7991 66.4336 42.7852H76.4336ZM74.6289 13.4805H64.6289V18.8086H74.6289L84.6289 18.8086V13.4805L74.6289 13.4805ZM74.6289 18.8086V8.80859H51.125V18.8086V28.8086H74.6289V18.8086ZM51.125 18.8086H61.125V13.4805H51.125H41.125V18.8086H51.125ZM51.125 13.4805V23.4805H59.418V13.4805V3.48047H51.125V13.4805ZM59.418 13.4805H69.418V10H59.418H49.418V13.4805H59.418ZM59.418 10V20H66.3359V10V0H59.418V10ZM66.3359 10H56.3359V13.4805H66.3359L76.3359 13.4805V10H66.3359ZM66.3359 13.4805V23.4805H74.6289V13.4805V3.48047H66.3359V13.4805ZM62.8555 19.7109V29.7109C64.1279 29.7109 64.4179 30.0512 64.109 29.8264C63.9287 29.6952 63.5778 29.3827 63.2694 28.818C62.9475 28.2284 62.7812 27.5588 62.7812 26.9297H72.7812L82.7812 26.9297C82.7812 21.2045 79.8595 16.5536 75.8783 13.656C72.0567 10.8745 67.3838 9.71094 62.8555 9.71094V19.7109ZM72.7812 26.9297H62.7812C62.7812 26.3533 62.9325 25.689 63.2679 25.0744C63.5895 24.4849 63.962 24.1545 64.1578 24.0138C64.4807 23.7817 64.166 24.1385 62.7814 24.1487L62.8555 34.1484L62.9295 44.1482C67.3457 44.1155 71.9939 43.0112 75.8295 40.2548C79.8799 37.344 82.7812 32.6725 82.7812 26.9297L72.7812 26.9297ZM62.8555 34.1484L62.9285 24.1487C61.4738 24.1381 61.1348 23.7686 61.4545 23.9969C61.6501 24.1367 62.027 24.4687 62.3528 25.064C62.6922 25.6844 62.8438 26.353 62.8438 26.9297H52.8438H42.8438C42.8438 32.6793 45.7524 37.3593 49.8297 40.2716C53.6836 43.0244 58.3504 44.1158 62.7825 44.1482L62.8555 34.1484ZM52.8438 26.9297H62.8438C62.8438 27.5591 62.6773 28.233 62.3512 28.8284C62.0388 29.3989 61.6835 29.7131 61.5033 29.8435C61.1968 30.0652 61.5116 29.7109 62.8555 29.7109V19.7109V9.71094C58.3126 9.71094 53.6216 10.8606 49.7809 13.639C45.7728 16.5384 42.8438 21.1977 42.8438 26.9297H52.8438ZM62.8555 24.6953V14.6953C61.0847 14.6953 58.0388 14.9301 55.1385 16.7633C51.5062 19.0592 49.5898 22.9031 49.5898 26.9297H59.5898H69.5898C69.5898 27.9059 69.3832 29.2353 68.6422 30.6222C67.8908 32.0286 66.8378 33.0287 65.8244 33.6693C64.8724 34.271 64.0433 34.5055 63.6021 34.5998C63.1514 34.6962 62.876 34.6953 62.8555 34.6953V24.6953ZM59.5898 26.9297H49.5898C49.5898 31.0456 51.6011 34.8562 55.1959 37.0944C58.0687 38.8832 61.0776 39.1211 62.8555 39.1211V29.1211V19.1211C62.877 19.1211 63.1457 19.1204 63.5864 19.2139C64.016 19.305 64.8284 19.5321 65.767 20.1165C66.7637 20.7371 67.8285 21.7209 68.5995 23.1332C69.3646 24.5348 69.5898 25.8987 69.5898 26.9297H59.5898ZM62.8555 29.1211V39.1211C64.6403 39.1211 67.5874 38.8855 70.4208 37.2008C73.9639 35.0941 76.25 31.3272 76.25 26.9297L66.25 26.9297H56.25C56.25 25.7899 56.5184 24.3537 57.3431 22.925C58.1616 21.5072 59.2529 20.5728 60.1993 20.0101C61.095 19.4775 61.8517 19.2774 62.2308 19.1997C62.6249 19.119 62.8543 19.1211 62.8555 19.1211V29.1211ZM66.25 26.9297L76.25 26.9297C76.25 22.625 74.0674 18.8218 70.4777 16.655C67.6163 14.9279 64.6332 14.6953 62.8555 14.6953V24.6953V34.6953C62.8554 34.6953 62.6194 34.6976 62.2155 34.6142C61.8254 34.5337 61.0521 34.3267 60.1424 33.7776C59.1779 33.1954 58.0966 32.244 57.2972 30.8291C56.497 29.4128 56.25 28.0115 56.25 26.9297H66.25ZM122.754 10.1289H132.754C132.754 4.60606 128.277 0.128906 122.754 0.128906V10.1289ZM122.754 50.0039V60.0039C128.277 60.0039 132.754 55.5268 132.754 50.0039H122.754ZM115.793 50.0039H105.793C105.793 55.5268 110.27 60.0039 115.793 60.0039V50.0039ZM115.793 10.1289V0.128906C110.27 0.128906 105.793 4.60606 105.793 10.1289L115.793 10.1289ZM100.926 12.793L100.856 22.7927C100.903 22.7931 100.95 22.793 100.997 22.7927L100.926 12.793ZM100.926 19.0234L100.756 29.022C100.873 29.024 100.99 29.0239 101.108 29.0218L100.926 19.0234ZM122.754 10.1289H112.754V50.0039H122.754H132.754V10.1289H122.754ZM122.754 50.0039V40.0039H115.793V50.0039V60.0039H122.754V50.0039ZM115.793 50.0039H125.793V10.1289H115.793L105.793 10.1289V50.0039H115.793ZM115.793 10.1289V20.1289H122.754V10.1289V0.128906L115.793 0.128906V10.1289ZM100.926 12.793L100.997 22.7927C100.929 22.7932 100.759 22.7695 100.584 22.6797C100.422 22.597 100.431 22.5487 100.552 22.7071C100.822 23.0616 101.539 24.3623 101.539 27.1016H111.539H121.539C121.539 21.0752 119.978 15.2001 116.457 10.581C112.809 5.7971 107.276 2.74768 100.855 2.79322L100.926 12.793ZM111.539 27.1016H101.539C101.539 29.9317 100.809 31.2538 100.539 31.6093C100.419 31.768 100.408 31.7229 100.562 31.6436C100.728 31.5582 100.881 31.5391 100.926 31.5391V41.5391V51.5391C107.299 51.5391 112.818 48.5123 116.469 43.7023C119.991 39.0626 121.539 33.166 121.539 27.1016H111.539ZM100.926 41.5391V31.5391C100.904 31.5391 101.009 31.5424 101.147 31.6119C101.275 31.6768 101.256 31.7104 101.137 31.5554C100.871 31.2105 100.141 29.9128 100.141 27.1016H90.1406H80.1406C80.1406 33.1849 81.709 39.1059 85.2892 43.7562C89.002 48.5787 94.5636 51.5391 100.926 51.5391V41.5391ZM90.1406 27.1016H100.141C100.141 24.3815 100.858 23.1052 101.124 22.7609C101.243 22.6063 101.26 22.6428 101.124 22.7111C101.064 22.7416 100.998 22.7652 100.936 22.7796C100.874 22.7938 100.843 22.7926 100.856 22.7927L100.926 12.793L100.995 2.79321C94.5861 2.7487 89.0108 5.73041 85.3019 10.5271C81.7224 15.1566 80.1406 21.056 80.1406 27.1016H90.1406ZM100.926 19.0234L101.095 9.02487C95.4637 8.92942 91.2654 12.2035 89.092 16.2725C87.2511 19.7189 86.8008 23.6674 86.8008 27.1016H96.8008H106.801C106.801 26.1848 106.869 25.6186 106.922 25.3344C106.978 25.0282 106.984 25.2255 106.733 25.6953C106.467 26.1938 105.841 27.1193 104.627 27.9011C103.348 28.7244 101.952 29.0423 100.756 29.022L100.926 19.0234ZM96.8008 27.1016H86.8008C86.8008 30.556 87.2445 34.5233 89.0999 37.983C91.3145 42.1125 95.4895 45.2227 100.926 45.2227V35.2227V25.2227C102.036 25.2227 103.372 25.5254 104.619 26.3271C105.815 27.0963 106.447 28.012 106.725 28.5307C106.984 29.0135 106.98 29.2217 106.923 28.9138C106.87 28.6266 106.801 28.0483 106.801 27.1016H96.8008ZM100.926 35.2227V45.2227C106.525 45.2227 110.576 41.8583 112.652 37.9275C114.451 34.5216 114.922 30.6095 114.922 27.1016H104.922H94.9219C94.9219 28.0329 94.8521 28.6095 94.7979 28.9013C94.74 29.2131 94.7307 29.0351 94.9678 28.5862C95.2165 28.1154 95.8122 27.214 96.9843 26.4294C98.2243 25.5992 99.6337 25.2227 100.926 25.2227V35.2227ZM104.922 27.1016H114.922C114.922 23.6142 114.445 19.7203 112.66 16.3279C110.629 12.4682 106.551 8.91951 100.744 9.02509L100.926 19.0234L101.108 29.0218C99.7217 29.047 98.2464 28.6506 96.9763 27.7986C95.7876 27.0012 95.1971 26.0903 94.9601 25.6399C94.7307 25.2039 94.7416 25.0367 94.7994 25.3469C94.8533 25.6359 94.9219 26.2004 94.9219 27.1016H104.922ZM173.07 32.5156H183.07C183.07 26.9928 178.593 22.5156 173.07 22.5156V32.5156ZM173.07 37.8008V47.8008C178.593 47.8008 183.07 43.3236 183.07 37.8008H173.07ZM136.805 37.8008H126.805C126.805 43.3236 131.282 47.8008 136.805 47.8008V37.8008ZM136.805 32.5156V22.5156C131.282 22.5156 126.805 26.9928 126.805 32.5156H136.805ZM168.859 43.9453H178.859C178.859 38.4225 174.382 33.9453 168.859 33.9453V43.9453ZM168.859 49.3164V59.3164C174.382 59.3164 178.859 54.8393 178.859 49.3164H168.859ZM140.973 49.3164L130.973 49.3164C130.973 54.8393 135.45 59.3164 140.973 59.3164V49.3164ZM140.973 39.4336V29.4336C135.45 29.4336 130.973 33.9107 130.973 39.4336L140.973 39.4336ZM147.891 39.4336H157.891C157.891 33.9107 153.413 29.4336 147.891 29.4336V39.4336ZM147.891 43.9453L137.891 43.9453C137.891 49.4682 142.368 53.9453 147.891 53.9453V43.9453ZM171.309 13.2227H181.309C181.309 7.69981 176.831 3.22266 171.309 3.22266V13.2227ZM171.309 18.293V28.293C176.831 28.293 181.309 23.8158 181.309 18.293H171.309ZM138.438 18.293H128.438C128.438 23.8158 132.915 28.293 138.438 28.293V18.293ZM138.438 13.2227V3.22266C132.915 3.22266 128.438 7.69981 128.438 13.2227H138.438ZM151.414 13.2227V23.2227C156.937 23.2227 161.414 18.7455 161.414 13.2227H151.414ZM151.414 10.1289V0.128906C145.891 0.128906 141.414 4.60606 141.414 10.1289H151.414ZM158.375 10.1289H168.375C168.375 4.60606 163.898 0.128906 158.375 0.128906V10.1289ZM158.375 13.2227H148.375C148.375 18.7455 152.852 23.2227 158.375 23.2227V13.2227ZM141.273 25.2539L151.273 25.3626C151.274 25.2913 151.274 25.22 151.273 25.1486L141.273 25.2539ZM148.32 25.2539L158.312 25.6702C158.323 25.3868 158.323 25.103 158.311 24.8195L148.32 25.2539ZM173.07 32.5156H163.07V37.8008H173.07H183.07V32.5156H173.07ZM173.07 37.8008V27.8008H136.805V37.8008V47.8008L173.07 47.8008V37.8008ZM136.805 37.8008L146.805 37.8008V32.5156L136.805 32.5156H126.805V37.8008H136.805ZM136.805 32.5156V42.5156L173.07 42.5156V32.5156V22.5156H136.805V32.5156ZM168.859 43.9453H158.859V49.3164H168.859H178.859V43.9453H168.859ZM168.859 49.3164V39.3164H140.973V49.3164V59.3164H168.859V49.3164ZM140.973 49.3164H150.973V39.4336H140.973L130.973 39.4336V49.3164L140.973 49.3164ZM140.973 39.4336V49.4336H147.891V39.4336V29.4336H140.973V39.4336ZM147.891 39.4336L137.891 39.4336V43.9453L147.891 43.9453H157.891V39.4336H147.891ZM147.891 43.9453V53.9453H168.859V43.9453V33.9453H147.891V43.9453ZM171.309 13.2227H161.309V18.293H171.309H181.309V13.2227H171.309ZM171.309 18.293V8.29297H138.438V18.293V28.293H171.309V18.293ZM138.438 18.293H148.438V13.2227H138.438H128.438V18.293H138.438ZM138.438 13.2227V23.2227H151.414V13.2227V3.22266H138.438V13.2227ZM151.414 13.2227H161.414V10.1289H151.414H141.414V13.2227H151.414ZM151.414 10.1289V20.1289H158.375V10.1289V0.128906H151.414V10.1289ZM158.375 10.1289H148.375V13.2227H158.375H168.375V10.1289H158.375ZM158.375 13.2227V23.2227H171.309V13.2227V3.22266H158.375V13.2227ZM154.938 19.1523V29.1523C156.741 29.1523 158.164 29.2587 159.241 29.4206C160.348 29.587 160.871 29.78 160.995 29.8339C161.126 29.8916 160.487 29.6485 159.783 28.7508C158.966 27.7099 158.559 26.4157 158.559 25.2539H168.559H178.559C178.559 17.961 173.634 13.5335 169.011 11.5108C164.813 9.67402 159.775 9.15234 154.938 9.15234V19.1523ZM168.559 25.2539H158.559C158.559 23.9869 159.012 22.6778 159.807 21.6722C160.49 20.8085 161.093 20.5817 160.942 20.649C160.804 20.71 160.274 20.9074 159.183 21.078C158.12 21.2441 156.715 21.3555 154.938 21.3555V31.3555V41.3555C159.846 41.3555 164.878 40.7858 169.064 38.9252C173.553 36.9302 178.559 32.5507 178.559 25.2539H168.559ZM154.938 31.3555V21.3555C153.147 21.3555 151.728 21.2439 150.652 21.0767C149.548 20.9049 149.008 20.7056 148.864 20.6421C148.703 20.5709 149.319 20.7992 150.014 21.6808C150.828 22.7125 151.287 24.0601 151.273 25.3626L141.273 25.2539L131.274 25.1452C131.194 32.5419 136.292 36.9501 140.773 38.9322C144.965 40.7869 150.013 41.3555 154.938 41.3555V31.3555ZM141.273 25.2539L151.273 25.1486C151.285 26.3435 150.874 27.6749 150.038 28.7423C149.321 29.6579 148.67 29.9023 148.811 29.8407C148.941 29.7842 149.474 29.5893 150.595 29.4218C151.685 29.2589 153.121 29.1523 154.938 29.1523V19.1523V9.15234C150.084 9.15234 145.03 9.67305 140.826 11.504C138.636 12.4576 136.201 13.9722 134.289 16.4146C132.259 19.0087 131.24 22.1233 131.274 25.3592L141.273 25.2539ZM154.938 23.8789V13.8789C152.507 13.8789 149.913 13.954 147.744 14.4077C146.741 14.6176 144.702 15.1192 142.741 16.5574C140.216 18.4084 138.153 21.63 138.33 25.6883L148.32 25.2539L158.311 24.8195C158.375 26.3026 158.084 27.9515 157.264 29.5271C156.472 31.0499 155.416 32.0634 154.566 32.6869C153.746 33.2877 153.023 33.5991 152.628 33.7472C152.216 33.9018 151.926 33.9659 151.84 33.9839C151.776 33.9972 152.512 33.8789 154.938 33.8789V23.8789ZM148.32 25.2539L138.329 24.8376C138.164 28.7958 140.132 32.1106 142.876 34.0524C144.921 35.5005 147.037 35.9464 147.985 36.1206C150.07 36.5036 152.626 36.543 154.938 36.543V26.543V16.543C153.791 16.543 152.946 16.5273 152.322 16.4977C151.652 16.4661 151.483 16.4285 151.599 16.4497C151.672 16.4631 151.965 16.5193 152.388 16.6657C152.791 16.8055 153.559 17.1111 154.431 17.7283C155.346 18.3763 156.456 19.4284 157.275 21.0096C158.112 22.6285 158.37 24.2734 158.312 25.6702L148.32 25.2539ZM154.938 26.543V36.543C157.213 36.543 159.747 36.5033 161.829 36.119C162.794 35.9408 164.852 35.4975 166.858 34.105C169.483 32.2823 171.512 29.1488 171.512 25.2539H161.512H151.512C151.512 23.8591 151.835 22.2776 152.68 20.7543C153.503 19.2711 154.574 18.2858 155.453 17.6758C156.293 17.0921 157.03 16.7991 157.425 16.6626C157.837 16.5203 158.124 16.465 158.198 16.4513C158.315 16.4297 158.152 16.4667 157.498 16.4981C156.888 16.5273 156.061 16.543 154.938 16.543V26.543ZM161.512 25.2539H171.512C171.512 21.2799 169.408 18.2392 166.993 16.503C165.071 15.121 163.088 14.6237 162.071 14.4098C159.906 13.9546 157.334 13.8789 154.938 13.8789V23.8789V33.8789C157.31 33.8789 158.026 33.9965 157.956 33.9818C157.869 33.9636 157.586 33.9006 157.186 33.7507C156.8 33.6065 156.107 33.3087 155.317 32.7413C154.502 32.1548 153.487 31.2074 152.692 29.7829C151.868 28.3067 151.512 26.7272 151.512 25.2539H161.512ZM211.184 24.9102H221.184C221.184 19.3873 216.706 14.9102 211.184 14.9102V24.9102ZM211.184 30.2812V40.2812C216.706 40.2812 221.184 35.8041 221.184 30.2812H211.184ZM174.832 30.2812H164.832C164.832 35.8041 169.309 40.2812 174.832 40.2812V30.2812ZM174.832 24.9102V14.9102C169.309 14.9102 164.832 19.3873 164.832 24.9102H174.832ZM206.844 18.0781H216.844C216.844 12.5553 212.367 8.07812 206.844 8.07812V18.0781ZM206.844 23.4062V33.4062C212.367 33.4062 216.844 28.9291 216.844 23.4062H206.844ZM179.172 23.4062H169.172C169.172 28.9291 173.649 33.4062 179.172 33.4062V23.4062ZM179.172 10.6016V0.601562C173.649 0.601562 169.172 5.07872 169.172 10.6016L179.172 10.6016ZM206.586 10.6016H216.586C216.586 5.07872 212.109 0.601562 206.586 0.601562V10.6016ZM206.586 16.0586V26.0586C212.109 26.0586 216.586 21.5814 216.586 16.0586H206.586ZM186.004 16.0586V6.05859C180.481 6.05859 176.004 10.5357 176.004 16.0586H186.004ZM186.004 18.0781H176.004C176.004 23.601 180.481 28.0781 186.004 28.0781V18.0781ZM206.801 31.8281H216.801C216.801 26.3053 212.324 21.8281 206.801 21.8281V31.8281ZM206.801 42.957V52.957C212.324 52.957 216.801 48.4799 216.801 42.957H206.801ZM185.617 42.957V32.957C180.094 32.957 175.617 37.4342 175.617 42.957H185.617ZM185.617 44.375H175.617C175.617 49.8978 180.094 54.375 185.617 54.375V44.375ZM207.746 44.375H217.746C217.746 38.8522 213.269 34.375 207.746 34.375V44.375ZM207.746 49.6172V59.6172C213.269 59.6172 217.746 55.14 217.746 49.6172H207.746ZM178.871 49.6172H168.871C168.871 55.14 173.348 59.6172 178.871 59.6172V49.6172ZM178.871 38.1445V28.1445C173.348 28.1445 168.871 32.6217 168.871 38.1445H178.871ZM200.012 38.1445V48.1445C205.535 48.1445 210.012 43.6674 210.012 38.1445H200.012ZM200.012 36.9414H210.012C210.012 31.4186 205.535 26.9414 200.012 26.9414V36.9414ZM178.914 36.9414H168.914C168.914 42.4643 173.391 46.9414 178.914 46.9414V36.9414ZM178.914 31.8281V21.8281C173.391 21.8281 168.914 26.3053 168.914 31.8281H178.914ZM211.184 24.9102L201.184 24.9102V30.2812H211.184H221.184V24.9102H211.184ZM211.184 30.2812V20.2812L174.832 20.2812V30.2812V40.2812H211.184V30.2812ZM174.832 30.2812H184.832V24.9102H174.832H164.832V30.2812H174.832ZM174.832 24.9102V34.9102H211.184V24.9102V14.9102L174.832 14.9102V24.9102ZM206.844 18.0781L196.844 18.0781V23.4062L206.844 23.4062H216.844V18.0781H206.844ZM206.844 23.4062V13.4062L179.172 13.4062V23.4062V33.4062H206.844V23.4062ZM179.172 23.4062H189.172V10.6016H179.172L169.172 10.6016V23.4062H179.172ZM179.172 10.6016V20.6016L206.586 20.6016V10.6016V0.601562L179.172 0.601562V10.6016ZM206.586 10.6016H196.586V16.0586L206.586 16.0586H216.586V10.6016H206.586ZM206.586 16.0586V6.05859H186.004V16.0586V26.0586L206.586 26.0586V16.0586ZM186.004 16.0586H176.004V18.0781H186.004H196.004V16.0586H186.004ZM186.004 18.0781V28.0781L206.844 28.0781V18.0781V8.07812H186.004V18.0781ZM206.801 31.8281H196.801V42.957H206.801H216.801V31.8281H206.801ZM206.801 42.957V32.957H185.617V42.957V52.957H206.801V42.957ZM185.617 42.957H175.617V44.375H185.617H195.617V42.957H185.617ZM185.617 44.375V54.375H207.746V44.375V34.375H185.617V44.375ZM207.746 44.375H197.746V49.6172H207.746H217.746V44.375H207.746ZM207.746 49.6172V39.6172H178.871V49.6172V59.6172H207.746V49.6172ZM178.871 49.6172H188.871V38.1445H178.871H168.871V49.6172H178.871ZM178.871 38.1445V48.1445H200.012V38.1445V28.1445H178.871V38.1445ZM200.012 38.1445H210.012V36.9414H200.012H190.012V38.1445H200.012ZM200.012 36.9414V26.9414H178.914V36.9414V46.9414H200.012V36.9414ZM178.914 36.9414H188.914V31.8281H178.914H168.914V36.9414H178.914ZM178.914 31.8281V41.8281H206.801V31.8281V21.8281L178.914 21.8281V31.8281ZM246.461 10.1289H256.461C256.461 4.60606 251.984 0.128906 246.461 0.128906V10.1289ZM246.461 50.0039V60.0039C251.984 60.0039 256.461 55.5268 256.461 50.0039H246.461ZM239.586 50.0039H229.586C229.586 55.5268 234.063 60.0039 239.586 60.0039V50.0039ZM239.586 10.1289V0.128906C234.063 0.128906 229.586 4.60606 229.586 10.1289L239.586 10.1289ZM234 13.2656H244C244 7.74278 239.523 3.26562 234 3.26562V13.2656ZM234 29.3359V39.3359C239.523 39.3359 244 34.8588 244 29.3359H234ZM222.012 29.3359V19.3359C216.489 19.3359 212.012 23.8131 212.012 29.3359H222.012ZM222.012 35.2656H212.012C212.012 37.9375 213.081 40.4982 214.981 42.3768C216.881 44.2553 219.454 45.2953 222.125 45.265L222.012 35.2656ZM237.395 34.0195L247.344 33.0169C247.066 30.2604 245.657 27.7426 243.453 26.064C241.249 24.3854 238.448 23.6964 235.717 24.1613L237.395 34.0195ZM237.953 39.5625L239.779 49.3944C244.892 48.4448 248.424 43.7343 247.903 38.5598L237.953 39.5625ZM214.879 40.8945H204.879C204.879 46.4174 209.356 50.8945 214.879 50.8945V40.8945ZM214.879 23.9648V13.9648C209.356 13.9648 204.879 18.442 204.879 23.9648H214.879ZM226.953 23.9648V33.9648C232.476 33.9648 236.953 29.4877 236.953 23.9648H226.953ZM226.953 18.7656H236.953C236.953 13.2428 232.476 8.76562 226.953 8.76562V18.7656ZM214.879 18.7656H204.879C204.879 24.2885 209.356 28.7656 214.879 28.7656V18.7656ZM214.879 13.2656V3.26562C209.356 3.26562 204.879 7.74278 204.879 13.2656H214.879ZM246.461 10.1289H236.461V50.0039H246.461H256.461V10.1289H246.461ZM246.461 50.0039V40.0039H239.586V50.0039V60.0039H246.461V50.0039ZM239.586 50.0039H249.586V10.1289H239.586L229.586 10.1289V50.0039H239.586ZM239.586 10.1289V20.1289H246.461V10.1289V0.128906L239.586 0.128906V10.1289ZM234 13.2656H224V29.3359H234H244V13.2656H234ZM234 29.3359V19.3359H222.012V29.3359V39.3359H234V29.3359ZM222.012 29.3359H212.012V35.2656H222.012H232.012V29.3359H222.012ZM222.012 35.2656L222.125 45.265C228.15 45.1965 233.362 44.8498 239.073 43.8777L237.395 34.0195L235.717 24.1613C231.33 24.908 227.217 25.2058 221.898 25.2663L222.012 35.2656ZM237.395 34.0195L227.445 35.0222L228.004 40.5652L237.953 39.5625L247.903 38.5598L247.344 33.0169L237.395 34.0195ZM237.953 39.5625L236.127 29.7306C231.047 30.674 225.998 30.8945 218.617 30.8945V40.8945V50.8945C226.276 50.8945 232.828 50.6854 239.779 49.3944L237.953 39.5625ZM218.617 40.8945V30.8945H214.879V40.8945V50.8945H218.617V40.8945ZM214.879 40.8945H224.879V23.9648H214.879H204.879V40.8945H214.879ZM214.879 23.9648V33.9648H226.953V23.9648V13.9648H214.879V23.9648ZM226.953 23.9648H236.953V18.7656H226.953H216.953V23.9648H226.953ZM226.953 18.7656V8.76562H214.879V18.7656V28.7656H226.953V18.7656ZM214.879 18.7656H224.879V13.2656H214.879H204.879V18.7656H214.879ZM214.879 13.2656V23.2656H234V13.2656V3.26562L214.879 3.26562V13.2656ZM283.242 20.2266H293.242C293.242 14.7037 288.765 10.2266 283.242 10.2266V20.2266ZM283.242 25.5547V35.5547C288.765 35.5547 293.242 31.0775 293.242 25.5547H283.242ZM255.141 25.5547H245.141C245.141 31.0775 249.618 35.5547 255.141 35.5547V25.5547ZM255.141 11.5469V1.54687C249.618 1.54687 245.141 6.02403 245.141 11.5469H255.141ZM262.016 11.5469H272.016C272.016 6.02403 267.538 1.54687 262.016 1.54687V11.5469ZM262.016 20.2266H252.016C252.016 25.7494 256.493 30.2266 262.016 30.2266V20.2266ZM287.152 29.0781H297.152C297.152 23.5553 292.675 19.0781 287.152 19.0781V29.0781ZM287.152 34.4062V44.4062C292.675 44.4062 297.152 39.9291 297.152 34.4062H287.152ZM250.887 34.4062H240.887C240.887 39.9291 245.364 44.4062 250.887 44.4062V34.4062ZM250.887 29.0781V19.0781C245.364 19.0781 240.887 23.5553 240.887 29.0781H250.887ZM283.5 43.6016H293.5C293.5 38.0787 289.023 33.6016 283.5 33.6016V43.6016ZM283.5 49.1016V59.1016C289.023 59.1016 293.5 54.6244 293.5 49.1016H283.5ZM254.668 49.1016H244.668C244.668 54.6244 249.145 59.1016 254.668 59.1016V49.1016ZM254.668 37.1562V27.1562C249.145 27.1562 244.668 31.6334 244.668 37.1562H254.668ZM261.629 37.1562H271.629C271.629 31.6334 267.152 27.1562 261.629 27.1562V37.1562ZM261.629 43.6016H251.629C251.629 49.1244 256.106 53.6016 261.629 53.6016V43.6016ZM283.242 20.2266H273.242V25.5547H283.242H293.242V20.2266H283.242ZM283.242 25.5547V15.5547H255.141V25.5547V35.5547H283.242V25.5547ZM255.141 25.5547H265.141V11.5469H255.141H245.141V25.5547H255.141ZM255.141 11.5469V21.5469H262.016V11.5469V1.54687H255.141V11.5469ZM262.016 11.5469H252.016V20.2266H262.016H272.016V11.5469H262.016ZM262.016 20.2266V30.2266H283.242V20.2266V10.2266H262.016V20.2266ZM287.152 29.0781H277.152V34.4062H287.152H297.152V29.0781H287.152ZM287.152 34.4062V24.4062H250.887V34.4062V44.4062H287.152V34.4062ZM250.887 34.4062H260.887V29.0781H250.887H240.887V34.4062H250.887ZM250.887 29.0781V39.0781H287.152V29.0781V19.0781H250.887V29.0781ZM283.5 43.6016H273.5V49.1016H283.5H293.5V43.6016H283.5ZM283.5 49.1016V39.1016H254.668V49.1016V59.1016H283.5V49.1016ZM254.668 49.1016H264.668V37.1562H254.668H244.668V49.1016H254.668ZM254.668 37.1562V47.1562H261.629V37.1562V27.1562H254.668V37.1562ZM261.629 37.1562H251.629V43.6016H261.629H271.629V37.1562H261.629ZM261.629 43.6016V53.6016H283.5V43.6016V33.6016H261.629V43.6016Z" fill="white" mask="url(#path-1-outside-1_6526_5751)"/>
</g>
<defs>
<filter id="filter0_d_6526_5751" x="0" y="0" width="301.152" height="68.0039" filterUnits="userSpaceOnUse" color-interpolation-filters="sRGB">
<feFlood flood-opacity="0" result="BackgroundImageFix"/>
<feColorMatrix in="SourceAlpha" type="matrix" values="0 0 0 0 0 0 0 0 0 0 0 0 0 0 0 0 0 0 127 0" result="hardAlpha"/>
<feOffset dy="4"/>
<feGaussianBlur stdDeviation="2"/>
<feComposite in2="hardAlpha" operator="out"/>
<feColorMatrix type="matrix" values="0 0 0 0 0 0 0 0 0 0 0 0 0 0 0 0 0 0 0.07 0"/>
<feBlend mode="normal" in2="BackgroundImageFix" result="effect1_dropShadow_6526_5751"/>
<feBlend mode="normal" in="SourceGraphic" in2="effect1_dropShadow_6526_5751" result="shape"/>
</filter>
</defs>
</svg>
