<svg width="311" height="68" viewBox="0 0 311 68" fill="none" xmlns="http://www.w3.org/2000/svg">
<g filter="url(#filter0_d_6526_5696)">
<mask id="path-1-outside-1_6526_5696" maskUnits="userSpaceOnUse" x="3.23828" y="-0.378906" width="304" height="61" fill="black">
<rect fill="white" x="3.23828" y="-0.378906" width="304" height="61"/>
<path d="M31.7461 34.1055C40.082 34.0625 45.3242 36.9844 45.3242 41.9688C45.3242 47.0391 40.082 50.0039 31.7461 50.0039C23.1953 50.0039 17.8242 47.0391 17.8672 41.9688C17.8242 36.9844 23.1953 34.0625 31.7461 34.1055ZM31.7461 39.3906C27.0625 39.3906 24.7422 40.0781 24.7422 41.9688C24.7422 43.8594 27.0625 44.6758 31.7461 44.6758C36.3438 44.6758 38.4922 43.8594 38.4922 41.9688C38.4922 40.0781 36.3438 39.3906 31.7461 39.3906ZM44.9375 10.1289V18.9375H49.8789V24.6094H44.9375V33.2891H38.0195V10.1289L44.9375 10.1289ZM20.832 12.707V17.0469H26.8047V12.707H33.6797V31.5273H14V12.707H20.832ZM20.832 26.1992H26.8047V22.332H20.832V26.1992ZM87.6484 15.2422V20.7852H82.9648V23.9219H87.6484V29.4648H82.9648V35.1367H76.0469V10.1289H82.9648V15.2422H87.6484ZM69.6875 35.5664C77.9805 35.5664 83.3516 38.2734 83.3945 42.7852C83.3516 47.2109 77.9805 49.9609 69.6875 49.9609C61.2227 49.9609 55.9375 47.2109 55.9805 42.7852C55.9375 38.2734 61.2227 35.5664 69.6875 35.5664ZM69.6875 40.7656C65.0039 40.7656 62.8125 41.2383 62.8125 42.7852C62.8125 44.2031 65.0039 44.8906 69.6875 44.8906C74.2422 44.8906 76.4336 44.2031 76.4336 42.7852C76.4336 41.2383 74.2422 40.7656 69.6875 40.7656ZM74.6289 13.4805V18.8086H51.125V13.4805H59.418V10H66.3359V13.4805H74.6289ZM62.8555 19.7109C68.6562 19.7109 72.7812 22.7188 72.7812 26.9297C72.7812 31.2266 68.6562 34.1055 62.8555 34.1484C56.9688 34.1055 52.8438 31.2266 52.8438 26.9297C52.8438 22.7188 56.9688 19.7109 62.8555 19.7109ZM62.8555 24.6953C60.8789 24.6953 59.5898 25.3398 59.5898 26.9297C59.5898 28.4766 60.8789 29.1211 62.8555 29.1211C64.875 29.1211 66.25 28.4766 66.25 26.9297C66.25 25.3398 64.875 24.6953 62.8555 24.6953ZM132.594 10.2148V39.0898H125.719V25.5547H120.348V20.0547H125.719V10.2148H132.594ZM133.453 43.8164V49.3164H105.695V36.6406H112.57V43.8164H133.453ZM121.809 12.5352V17.9922H114.547C114.611 22.2246 116.76 26.9297 123.227 28.9492L119.918 34.4062C115.643 33.0742 112.807 30.4961 111.109 27.2305C109.348 30.8398 106.383 33.6973 101.828 35.0938L98.3047 29.5508C105.137 27.5312 107.35 22.5898 107.5 17.9922H100.195V12.5352L121.809 12.5352ZM169.031 10.1289V22.6758H173.586V28.2617H169.031V41.1523H162.156V10.1289H169.031ZM170.363 43.8164V49.3164H141.531V39.0898H148.492V43.8164H170.363ZM136.203 32.5156C138.867 32.5156 141.939 32.4941 145.141 32.3867V30.5391C141.037 29.8301 138.523 27.7246 138.523 24.7812C138.523 20.7852 142.477 18.5078 148.535 18.5078C154.508 18.5078 158.504 20.7852 158.504 24.7812C158.504 27.7031 156.012 29.7871 152.016 30.5391V32.043C154.959 31.8926 157.902 31.6133 160.695 31.2266L161.168 35.8672C152.918 37.5 143.637 37.5859 136.891 37.7148L136.203 32.5156ZM159.836 12.9219V17.8203H137.277V12.9219H145.141V10.043H152.016V12.9219H159.836ZM148.535 23.0195C146.258 23.0195 145.098 23.4492 145.098 24.7812C145.098 25.8125 146.258 26.3281 148.535 26.3281C150.77 26.3281 151.887 25.8125 151.93 24.7812C151.887 23.4492 150.77 23.0195 148.535 23.0195ZM208.391 10.1289V50.0039H201.43V10.1289H208.391ZM186.562 12.793C192.621 12.75 197.176 18.3359 197.176 27.1016C197.176 35.9961 192.621 41.5391 186.562 41.5391C180.375 41.5391 175.777 35.9961 175.777 27.1016C175.777 18.3359 180.375 12.75 186.562 12.793ZM186.562 19.0234C184.027 18.9805 182.438 21.6016 182.438 27.1016C182.438 32.6875 184.027 35.2227 186.562 35.2227C188.926 35.2227 190.559 32.6875 190.559 27.1016C190.559 21.6016 188.926 18.9805 186.562 19.0234ZM245.043 12.4062V17.8633H237.867C238.383 21.3652 240.725 24.9102 246.719 26.543L243.41 31.9141C239.027 30.6895 236.062 28.2187 234.301 25.125C232.496 28.5195 229.488 31.2266 224.848 32.5156L221.367 27.1875C227.619 25.4258 230.09 21.6445 230.648 17.8633H223.258V12.4062L245.043 12.4062ZM254.238 10.1289V18.3359H259.18V23.9648H254.238V32.3437H247.32V10.1289H254.238ZM254.582 33.8047V39.1758H245.258C246.354 41.4531 249.512 43.7949 256.473 44.5898L254.023 49.832C247.471 49.0801 243.281 46.7598 241.047 43.6875C238.77 46.7383 234.623 48.9941 228.113 49.7031L225.664 44.5039C232.732 43.7734 235.848 41.5176 236.922 39.1758H227.469V33.8047H254.582ZM296.734 30.0664V35.4805H260.469V30.0664H296.734ZM292.523 43.8164V49.3164H264.637V37.6289H271.555V43.8164H292.523ZM278.602 11.2461C287.367 11.2461 293.254 14.4258 293.297 19.5391C293.254 24.7383 287.367 27.9609 278.602 27.9609C269.75 27.9609 263.82 24.7383 263.863 19.5391C263.82 14.4258 269.75 11.2461 278.602 11.2461ZM278.602 16.6602C273.617 16.7031 270.996 17.6055 271.039 19.5391C270.996 21.6016 273.617 22.418 278.602 22.375C283.5 22.418 286.164 21.6016 286.164 19.5391C286.164 17.6055 283.5 16.7031 278.602 16.6602Z"/>
</mask>
<path d="M31.7461 34.1055C40.082 34.0625 45.3242 36.9844 45.3242 41.9688C45.3242 47.0391 40.082 50.0039 31.7461 50.0039C23.1953 50.0039 17.8242 47.0391 17.8672 41.9688C17.8242 36.9844 23.1953 34.0625 31.7461 34.1055ZM31.7461 39.3906C27.0625 39.3906 24.7422 40.0781 24.7422 41.9688C24.7422 43.8594 27.0625 44.6758 31.7461 44.6758C36.3438 44.6758 38.4922 43.8594 38.4922 41.9688C38.4922 40.0781 36.3438 39.3906 31.7461 39.3906ZM44.9375 10.1289V18.9375H49.8789V24.6094H44.9375V33.2891H38.0195V10.1289L44.9375 10.1289ZM20.832 12.707V17.0469H26.8047V12.707H33.6797V31.5273H14V12.707H20.832ZM20.832 26.1992H26.8047V22.332H20.832V26.1992ZM87.6484 15.2422V20.7852H82.9648V23.9219H87.6484V29.4648H82.9648V35.1367H76.0469V10.1289H82.9648V15.2422H87.6484ZM69.6875 35.5664C77.9805 35.5664 83.3516 38.2734 83.3945 42.7852C83.3516 47.2109 77.9805 49.9609 69.6875 49.9609C61.2227 49.9609 55.9375 47.2109 55.9805 42.7852C55.9375 38.2734 61.2227 35.5664 69.6875 35.5664ZM69.6875 40.7656C65.0039 40.7656 62.8125 41.2383 62.8125 42.7852C62.8125 44.2031 65.0039 44.8906 69.6875 44.8906C74.2422 44.8906 76.4336 44.2031 76.4336 42.7852C76.4336 41.2383 74.2422 40.7656 69.6875 40.7656ZM74.6289 13.4805V18.8086H51.125V13.4805H59.418V10H66.3359V13.4805H74.6289ZM62.8555 19.7109C68.6562 19.7109 72.7812 22.7188 72.7812 26.9297C72.7812 31.2266 68.6562 34.1055 62.8555 34.1484C56.9688 34.1055 52.8438 31.2266 52.8438 26.9297C52.8438 22.7188 56.9688 19.7109 62.8555 19.7109ZM62.8555 24.6953C60.8789 24.6953 59.5898 25.3398 59.5898 26.9297C59.5898 28.4766 60.8789 29.1211 62.8555 29.1211C64.875 29.1211 66.25 28.4766 66.25 26.9297C66.25 25.3398 64.875 24.6953 62.8555 24.6953ZM132.594 10.2148V39.0898H125.719V25.5547H120.348V20.0547H125.719V10.2148H132.594ZM133.453 43.8164V49.3164H105.695V36.6406H112.57V43.8164H133.453ZM121.809 12.5352V17.9922H114.547C114.611 22.2246 116.76 26.9297 123.227 28.9492L119.918 34.4062C115.643 33.0742 112.807 30.4961 111.109 27.2305C109.348 30.8398 106.383 33.6973 101.828 35.0938L98.3047 29.5508C105.137 27.5312 107.35 22.5898 107.5 17.9922H100.195V12.5352L121.809 12.5352ZM169.031 10.1289V22.6758H173.586V28.2617H169.031V41.1523H162.156V10.1289H169.031ZM170.363 43.8164V49.3164H141.531V39.0898H148.492V43.8164H170.363ZM136.203 32.5156C138.867 32.5156 141.939 32.4941 145.141 32.3867V30.5391C141.037 29.8301 138.523 27.7246 138.523 24.7812C138.523 20.7852 142.477 18.5078 148.535 18.5078C154.508 18.5078 158.504 20.7852 158.504 24.7812C158.504 27.7031 156.012 29.7871 152.016 30.5391V32.043C154.959 31.8926 157.902 31.6133 160.695 31.2266L161.168 35.8672C152.918 37.5 143.637 37.5859 136.891 37.7148L136.203 32.5156ZM159.836 12.9219V17.8203H137.277V12.9219H145.141V10.043H152.016V12.9219H159.836ZM148.535 23.0195C146.258 23.0195 145.098 23.4492 145.098 24.7812C145.098 25.8125 146.258 26.3281 148.535 26.3281C150.77 26.3281 151.887 25.8125 151.93 24.7812C151.887 23.4492 150.77 23.0195 148.535 23.0195ZM208.391 10.1289V50.0039H201.43V10.1289H208.391ZM186.562 12.793C192.621 12.75 197.176 18.3359 197.176 27.1016C197.176 35.9961 192.621 41.5391 186.562 41.5391C180.375 41.5391 175.777 35.9961 175.777 27.1016C175.777 18.3359 180.375 12.75 186.562 12.793ZM186.562 19.0234C184.027 18.9805 182.438 21.6016 182.438 27.1016C182.438 32.6875 184.027 35.2227 186.562 35.2227C188.926 35.2227 190.559 32.6875 190.559 27.1016C190.559 21.6016 188.926 18.9805 186.562 19.0234ZM245.043 12.4062V17.8633H237.867C238.383 21.3652 240.725 24.9102 246.719 26.543L243.41 31.9141C239.027 30.6895 236.062 28.2187 234.301 25.125C232.496 28.5195 229.488 31.2266 224.848 32.5156L221.367 27.1875C227.619 25.4258 230.09 21.6445 230.648 17.8633H223.258V12.4062L245.043 12.4062ZM254.238 10.1289V18.3359H259.18V23.9648H254.238V32.3437H247.32V10.1289H254.238ZM254.582 33.8047V39.1758H245.258C246.354 41.4531 249.512 43.7949 256.473 44.5898L254.023 49.832C247.471 49.0801 243.281 46.7598 241.047 43.6875C238.77 46.7383 234.623 48.9941 228.113 49.7031L225.664 44.5039C232.732 43.7734 235.848 41.5176 236.922 39.1758H227.469V33.8047H254.582ZM296.734 30.0664V35.4805H260.469V30.0664H296.734ZM292.523 43.8164V49.3164H264.637V37.6289H271.555V43.8164H292.523ZM278.602 11.2461C287.367 11.2461 293.254 14.4258 293.297 19.5391C293.254 24.7383 287.367 27.9609 278.602 27.9609C269.75 27.9609 263.82 24.7383 263.863 19.5391C263.82 14.4258 269.75 11.2461 278.602 11.2461ZM278.602 16.6602C273.617 16.7031 270.996 17.6055 271.039 19.5391C270.996 21.6016 273.617 22.418 278.602 22.375C283.5 22.418 286.164 21.6016 286.164 19.5391C286.164 17.6055 283.5 16.7031 278.602 16.6602Z" fill="#11DCA9"/>
<path d="M31.7461 34.1055L31.6958 44.1053C31.7298 44.1055 31.7637 44.1055 31.7976 44.1053L31.7461 34.1055ZM17.8672 41.9688L27.8668 42.0535C27.8673 41.9965 27.8673 41.9395 27.8668 41.8825L17.8672 41.9688ZM44.9375 10.1289H54.9375C54.9375 4.60606 50.4603 0.128906 44.9375 0.128906V10.1289ZM44.9375 18.9375H34.9375C34.9375 24.4603 39.4147 28.9375 44.9375 28.9375V18.9375ZM49.8789 18.9375H59.8789C59.8789 13.4147 55.4018 8.9375 49.8789 8.9375V18.9375ZM49.8789 24.6094V34.6094C55.4018 34.6094 59.8789 30.1322 59.8789 24.6094H49.8789ZM44.9375 24.6094V14.6094C39.4147 14.6094 34.9375 19.0865 34.9375 24.6094H44.9375ZM44.9375 33.2891V43.2891C50.4603 43.2891 54.9375 38.8119 54.9375 33.2891H44.9375ZM38.0195 33.2891H28.0195C28.0195 38.8119 32.4967 43.2891 38.0195 43.2891V33.2891ZM38.0195 10.1289V0.128906C32.4967 0.128906 28.0195 4.60606 28.0195 10.1289H38.0195ZM20.832 12.707H30.832C30.832 7.18418 26.3549 2.70703 20.832 2.70703V12.707ZM20.832 17.0469H10.832C10.832 22.5697 15.3092 27.0469 20.832 27.0469V17.0469ZM26.8047 17.0469V27.0469C32.3275 27.0469 36.8047 22.5697 36.8047 17.0469H26.8047ZM26.8047 12.707V2.70703C21.2818 2.70703 16.8047 7.18418 16.8047 12.707H26.8047ZM33.6797 12.707H43.6797C43.6797 7.18418 39.2025 2.70703 33.6797 2.70703V12.707ZM33.6797 31.5273V41.5273C39.2025 41.5273 43.6797 37.0502 43.6797 31.5273H33.6797ZM14 31.5273H4C4 37.0502 8.47715 41.5273 14 41.5273L14 31.5273ZM14 12.707V2.70703C8.47715 2.70703 4 7.18418 4 12.707H14ZM20.832 26.1992H10.832C10.832 31.7221 15.3092 36.1992 20.832 36.1992V26.1992ZM26.8047 26.1992V36.1992C32.3275 36.1992 36.8047 31.7221 36.8047 26.1992H26.8047ZM26.8047 22.332H36.8047C36.8047 16.8092 32.3275 12.332 26.8047 12.332V22.332ZM20.832 22.332V12.332C15.3092 12.332 10.832 16.8092 10.832 22.332H20.832ZM31.7461 34.1055L31.7976 44.1053C33.3104 44.0975 34.4883 44.2268 35.3496 44.4058C36.2266 44.5881 36.6215 44.7894 36.6891 44.8282C36.7384 44.8565 36.3486 44.6431 35.9452 44.0109C35.5056 43.3221 35.3242 42.5612 35.3242 41.9688H45.3242H55.3242C55.3242 35.2572 51.5021 30.2657 46.6332 27.4755C42.1828 24.9252 36.8259 24.0792 31.6945 24.1056L31.7461 34.1055ZM45.3242 41.9688H35.3242C35.3242 41.4322 35.487 40.7135 35.9039 40.0489C36.2882 39.4363 36.6624 39.2266 36.6151 39.2542C36.5476 39.2936 36.1567 39.4971 35.2853 39.6842C34.429 39.8681 33.2557 40.0039 31.7461 40.0039V50.0039V60.0039C36.8844 60.0039 42.2538 59.1241 46.7072 56.5212C51.5875 53.6688 55.3242 48.6418 55.3242 41.9688H45.3242ZM31.7461 50.0039V40.0039C30.1677 40.0039 28.9293 39.8655 28.0141 39.6738C27.0821 39.4786 26.6445 39.2619 26.5454 39.2053C26.4636 39.1585 26.8468 39.3586 27.2499 39.9916C27.6924 40.6864 27.8719 41.4572 27.8668 42.0535L17.8672 41.9688L7.86755 41.884C7.80967 48.7134 11.7082 53.7619 16.6226 56.5701C21.1121 59.1355 26.536 60.0039 31.7461 60.0039V50.0039ZM17.8672 41.9688L27.8668 41.8825C27.8724 42.5361 27.6735 43.3496 27.2079 44.0684C26.7857 44.7202 26.3871 44.9234 26.4718 44.8759C26.5717 44.8199 27.0135 44.6058 27.9512 44.4156C28.8714 44.2291 30.1145 44.0974 31.6958 44.1053L31.7461 34.1055L31.7963 24.1056C26.5927 24.0794 21.1817 24.9147 16.6962 27.4278C11.7969 30.1727 7.80833 35.1843 7.86756 42.055L17.8672 41.9688ZM31.7461 39.3906V29.3906C29.2616 29.3906 26.0534 29.5273 23.1824 30.5328C21.6469 31.0706 19.4862 32.0993 17.6711 34.1617C15.6601 36.4467 14.7422 39.2414 14.7422 41.9688H24.7422H34.7422C34.7422 43.7508 34.1143 45.7506 32.6847 47.3749C31.4511 48.7767 30.1632 49.279 29.7932 49.4086C29.39 49.5498 29.2931 49.5187 29.7425 49.4705C30.1494 49.4269 30.7933 49.3906 31.7461 49.3906V39.3906ZM24.7422 41.9688H14.7422C14.7422 44.6838 15.6484 47.4161 17.5548 49.6615C19.2956 51.7119 21.3898 52.795 22.9529 53.3857C25.8848 54.4936 29.1459 54.6758 31.7461 54.6758V44.6758V34.6758C30.8409 34.6758 30.2397 34.635 29.8778 34.5912C29.4775 34.5427 29.6011 34.5176 30.0226 34.6768C30.4203 34.8271 31.6416 35.3516 32.801 36.7172C34.126 38.2778 34.7422 40.199 34.7422 41.9688H24.7422ZM31.7461 44.6758V54.6758C34.2897 54.6758 37.5692 54.4997 40.5262 53.3284C42.1311 52.6926 44.2117 51.5435 45.9008 49.4269C47.7185 47.1493 48.4922 44.4894 48.4922 41.9688H38.4922H28.4922C28.4922 40.3934 28.9974 38.5446 30.2685 36.9517C31.4111 35.52 32.6673 34.9295 33.1604 34.7341C33.6545 34.5384 33.8508 34.5519 33.4985 34.596C33.1855 34.6352 32.6266 34.6758 31.7461 34.6758V44.6758ZM38.4922 41.9688H48.4922C48.4922 39.4403 47.7105 36.716 45.7899 34.3942C44.0228 32.258 41.8691 31.1632 40.2898 30.5834C37.3951 29.5206 34.1704 29.3906 31.7461 29.3906V39.3906V49.3906C32.6752 49.3906 33.2781 49.4268 33.6381 49.4667C34.0421 49.5115 33.8731 49.5329 33.3967 49.358C32.9293 49.1864 31.6 48.618 30.3794 47.1424C29.0053 45.4813 28.4922 43.5519 28.4922 41.9688H38.4922ZM44.9375 10.1289L34.9375 10.1289V18.9375H44.9375H54.9375V10.1289H44.9375ZM44.9375 18.9375V28.9375H49.8789V18.9375V8.9375H44.9375V18.9375ZM49.8789 18.9375H39.8789V24.6094H49.8789H59.8789V18.9375H49.8789ZM49.8789 24.6094V14.6094H44.9375V24.6094V34.6094H49.8789V24.6094ZM44.9375 24.6094H34.9375V33.2891H44.9375H54.9375V24.6094H44.9375ZM44.9375 33.2891V23.2891H38.0195V33.2891V43.2891H44.9375V33.2891ZM38.0195 33.2891H48.0195V10.1289L38.0195 10.1289H28.0195V33.2891H38.0195ZM38.0195 10.1289V20.1289H44.9375V10.1289V0.128906H38.0195V10.1289ZM20.832 12.707H10.832V17.0469H20.832H30.832V12.707H20.832ZM20.832 17.0469V27.0469H26.8047V17.0469V7.04688H20.832V17.0469ZM26.8047 17.0469H36.8047V12.707H26.8047H16.8047V17.0469H26.8047ZM26.8047 12.707V22.707H33.6797V12.707V2.70703L26.8047 2.70703V12.707ZM33.6797 12.707H23.6797V31.5273H33.6797H43.6797V12.707H33.6797ZM33.6797 31.5273V21.5273H14V31.5273L14 41.5273H33.6797V31.5273ZM14 31.5273H24V12.707H14H4L4 31.5273H14ZM14 12.707V22.707H20.832V12.707V2.70703H14V12.707ZM20.832 26.1992V36.1992H26.8047V26.1992V16.1992H20.832V26.1992ZM26.8047 26.1992H36.8047V22.332H26.8047H16.8047V26.1992H26.8047ZM26.8047 22.332V12.332H20.832V22.332V32.332H26.8047V22.332ZM20.832 22.332H10.832V26.1992H20.832H30.832V22.332H20.832ZM87.6484 15.2422H97.6484C97.6484 9.71934 93.1713 5.24219 87.6484 5.24219V15.2422ZM87.6484 20.7852V30.7852C93.1713 30.7852 97.6484 26.308 97.6484 20.7852H87.6484ZM82.9648 20.7852V10.7852C77.442 10.7852 72.9648 15.2623 72.9648 20.7852L82.9648 20.7852ZM82.9648 23.9219L72.9648 23.9219C72.9648 29.4447 77.442 33.9219 82.9648 33.9219V23.9219ZM87.6484 23.9219H97.6484C97.6484 18.399 93.1713 13.9219 87.6484 13.9219V23.9219ZM87.6484 29.4648V39.4648C93.1713 39.4648 97.6484 34.9877 97.6484 29.4648H87.6484ZM82.9648 29.4648V19.4648C77.442 19.4648 72.9648 23.942 72.9648 29.4648H82.9648ZM82.9648 35.1367V45.1367C88.4877 45.1367 92.9648 40.6596 92.9648 35.1367H82.9648ZM76.0469 35.1367H66.0469C66.0469 40.6596 70.524 45.1367 76.0469 45.1367V35.1367ZM76.0469 10.1289V0.128906C70.524 0.128906 66.0469 4.60606 66.0469 10.1289H76.0469ZM82.9648 10.1289H92.9648C92.9648 4.60606 88.4877 0.128906 82.9648 0.128906V10.1289ZM82.9648 15.2422L72.9648 15.2422C72.9648 20.765 77.442 25.2422 82.9648 25.2422V15.2422ZM83.3945 42.7852L93.3941 42.8822C93.3947 42.8181 93.3947 42.754 93.3941 42.6899L83.3945 42.7852ZM55.9805 42.7852L65.98 42.8822C65.9806 42.8181 65.9806 42.754 65.98 42.6899L55.9805 42.7852ZM74.6289 13.4805L84.6289 13.4805C84.6289 7.95762 80.1518 3.48047 74.6289 3.48047V13.4805ZM74.6289 18.8086V28.8086C80.1518 28.8086 84.6289 24.3314 84.6289 18.8086L74.6289 18.8086ZM51.125 18.8086H41.125C41.125 24.3314 45.6022 28.8086 51.125 28.8086V18.8086ZM51.125 13.4805V3.48047C45.6022 3.48047 41.125 7.95762 41.125 13.4805H51.125ZM59.418 13.4805V23.4805C64.9408 23.4805 69.418 19.0033 69.418 13.4805H59.418ZM59.418 10V0C53.8951 0 49.418 4.47715 49.418 10H59.418ZM66.3359 10H76.3359C76.3359 4.47715 71.8588 0 66.3359 0V10ZM66.3359 13.4805H56.3359C56.3359 19.0033 60.8131 23.4805 66.3359 23.4805V13.4805ZM62.8555 34.1484L62.7825 44.1482C62.8315 44.1485 62.8805 44.1485 62.9295 44.1482L62.8555 34.1484ZM87.6484 15.2422H77.6484V20.7852H87.6484H97.6484V15.2422H87.6484ZM87.6484 20.7852V10.7852H82.9648V20.7852V30.7852H87.6484V20.7852ZM82.9648 20.7852L72.9648 20.7852V23.9219L82.9648 23.9219H92.9648V20.7852H82.9648ZM82.9648 23.9219V33.9219H87.6484V23.9219V13.9219H82.9648V23.9219ZM87.6484 23.9219H77.6484V29.4648H87.6484H97.6484V23.9219H87.6484ZM87.6484 29.4648V19.4648H82.9648V29.4648V39.4648H87.6484V29.4648ZM82.9648 29.4648H72.9648V35.1367H82.9648H92.9648V29.4648H82.9648ZM82.9648 35.1367V25.1367L76.0469 25.1367V35.1367V45.1367H82.9648V35.1367ZM76.0469 35.1367H86.0469V10.1289H76.0469H66.0469V35.1367H76.0469ZM76.0469 10.1289V20.1289L82.9648 20.1289V10.1289V0.128906H76.0469V10.1289ZM82.9648 10.1289H72.9648V15.2422L82.9648 15.2422H92.9648V10.1289H82.9648ZM82.9648 15.2422V25.2422H87.6484V15.2422V5.24219H82.9648V15.2422ZM69.6875 35.5664V45.5664C71.2333 45.5664 72.4748 45.6939 73.416 45.8766C74.3768 46.0631 74.8687 46.2767 75.0194 46.3551C75.1717 46.4344 74.7633 46.2609 74.2839 45.5946C73.7389 44.8372 73.4042 43.8519 73.395 42.8804L83.3945 42.7852L93.3941 42.6899C93.3272 35.6672 88.839 31.0001 84.2502 28.6127C79.9119 26.3556 74.7156 25.5664 69.6875 25.5664V35.5664ZM83.3945 42.7852L73.395 42.6881C73.405 41.6539 73.765 40.6471 74.3092 39.8977C74.7866 39.2402 75.1849 39.0754 75.0194 39.1615C74.8589 39.245 74.3598 39.4606 73.4008 39.6483C72.461 39.8323 71.2239 39.9609 69.6875 39.9609V49.9609V59.9609C74.7409 59.9609 79.9271 59.1531 84.2502 56.9039C88.7729 54.5509 93.3257 49.9186 93.3941 42.8822L83.3945 42.7852ZM69.6875 49.9609V39.9609C68.0959 39.9609 66.8275 39.8303 65.8733 39.6452C64.8987 39.4561 64.4118 39.2414 64.2754 39.1701C64.1364 39.0975 64.5786 39.292 65.0816 40.0042C65.6531 40.8133 65.9899 41.8584 65.98 42.8822L55.9805 42.7852L45.9809 42.6881C45.9123 49.7614 50.4122 54.4915 55.0117 56.8953C59.3533 59.1644 64.584 59.9609 69.6875 59.9609V49.9609ZM55.9805 42.7852L65.98 42.6899C65.9892 43.6498 65.6774 44.6721 65.1063 45.4881C64.6018 46.2089 64.1498 46.4122 64.2754 46.3465C64.402 46.2803 64.8817 46.0676 65.8583 45.8797C66.814 45.6958 68.0866 45.5664 69.6875 45.5664V35.5664V25.5664C64.6094 25.5664 59.3682 26.3445 55.0117 28.6213C50.345 31.0602 45.9137 35.8249 45.9809 42.8804L55.9805 42.7852ZM69.6875 40.7656V30.7656C67.3413 30.7656 64.408 30.8479 61.8432 31.553C60.5285 31.9143 58.3407 32.6872 56.3799 34.5299C54.0596 36.7104 52.8125 39.6806 52.8125 42.7852H62.8125H72.8125C72.8125 43.799 72.6267 44.983 72.1055 46.1975C71.583 47.4153 70.8437 48.383 70.0763 49.1042C68.6727 50.4232 67.3255 50.7878 67.1442 50.8377C66.8595 50.9159 66.8784 50.8759 67.4275 50.8324C67.9312 50.7925 68.6599 50.7656 69.6875 50.7656V40.7656ZM62.8125 42.7852H52.8125C52.8125 46.0873 54.23 48.9636 56.3521 50.9732C58.185 52.709 60.2247 53.5183 61.5496 53.9264C64.1695 54.7335 67.1249 54.8906 69.6875 54.8906V44.8906V34.8906C67.5665 34.8906 67.0844 34.704 67.4377 34.8128C67.6293 34.8719 68.8284 35.2434 70.1041 36.4514C70.7967 37.1073 71.5151 38.016 72.0451 39.2016C72.5816 40.4017 72.8125 41.6354 72.8125 42.7852H62.8125ZM69.6875 44.8906V54.8906C72.2023 54.8906 75.1357 54.7318 77.7513 53.9144C79.0753 53.5007 81.1026 52.6841 82.9223 50.9483C85.0221 48.9453 86.4336 46.0809 86.4336 42.7852H76.4336H66.4336C66.4336 41.6356 66.6643 40.407 67.1957 39.214C67.7205 38.0358 68.4314 37.1311 69.1178 36.4764C70.3843 35.2683 71.579 34.8895 71.7858 34.8248C72.1671 34.7057 71.7274 34.8906 69.6875 34.8906V44.8906ZM76.4336 42.7852H86.4336C86.4336 39.6861 85.1916 36.7291 82.8945 34.5547C80.9465 32.7107 78.7704 31.9297 77.4545 31.5628C74.892 30.8482 71.9805 30.7656 69.6875 30.7656V40.7656V50.7656C70.678 50.7656 71.3771 50.7923 71.8562 50.831C72.3801 50.8735 72.3811 50.9111 72.0826 50.8278C71.8839 50.7724 70.5403 50.3996 69.1455 49.0793C68.3847 48.3591 67.653 47.3955 67.1356 46.1853C66.6194 44.9779 66.4336 43.7991 66.4336 42.7852H76.4336ZM74.6289 13.4805H64.6289V18.8086H74.6289L84.6289 18.8086V13.4805L74.6289 13.4805ZM74.6289 18.8086V8.80859H51.125V18.8086V28.8086H74.6289V18.8086ZM51.125 18.8086H61.125V13.4805H51.125H41.125V18.8086H51.125ZM51.125 13.4805V23.4805H59.418V13.4805V3.48047H51.125V13.4805ZM59.418 13.4805H69.418V10H59.418H49.418V13.4805H59.418ZM59.418 10V20H66.3359V10V0H59.418V10ZM66.3359 10H56.3359V13.4805H66.3359L76.3359 13.4805V10H66.3359ZM66.3359 13.4805V23.4805H74.6289V13.4805V3.48047H66.3359V13.4805ZM62.8555 19.7109V29.7109C64.1279 29.7109 64.4179 30.0512 64.109 29.8264C63.9287 29.6952 63.5778 29.3827 63.2694 28.818C62.9475 28.2284 62.7812 27.5588 62.7812 26.9297H72.7812L82.7812 26.9297C82.7812 21.2045 79.8595 16.5536 75.8783 13.656C72.0567 10.8745 67.3838 9.71094 62.8555 9.71094V19.7109ZM72.7812 26.9297H62.7812C62.7812 26.3533 62.9325 25.689 63.2679 25.0744C63.5895 24.4849 63.962 24.1545 64.1578 24.0138C64.4807 23.7817 64.166 24.1385 62.7814 24.1487L62.8555 34.1484L62.9295 44.1482C67.3457 44.1155 71.9939 43.0112 75.8295 40.2548C79.8799 37.344 82.7812 32.6725 82.7812 26.9297L72.7812 26.9297ZM62.8555 34.1484L62.9285 24.1487C61.4738 24.1381 61.1348 23.7686 61.4545 23.9969C61.6501 24.1367 62.027 24.4687 62.3528 25.064C62.6922 25.6844 62.8438 26.353 62.8438 26.9297H52.8438H42.8438C42.8438 32.6793 45.7524 37.3593 49.8297 40.2716C53.6836 43.0244 58.3504 44.1158 62.7825 44.1482L62.8555 34.1484ZM52.8438 26.9297H62.8438C62.8438 27.5591 62.6773 28.233 62.3512 28.8284C62.0388 29.3989 61.6835 29.7131 61.5033 29.8435C61.1968 30.0652 61.5116 29.7109 62.8555 29.7109V19.7109V9.71094C58.3126 9.71094 53.6216 10.8606 49.7809 13.639C45.7728 16.5384 42.8438 21.1977 42.8438 26.9297H52.8438ZM62.8555 24.6953V14.6953C61.0847 14.6953 58.0388 14.9301 55.1385 16.7633C51.5062 19.0592 49.5898 22.9031 49.5898 26.9297H59.5898H69.5898C69.5898 27.9059 69.3832 29.2353 68.6422 30.6222C67.8908 32.0286 66.8378 33.0287 65.8244 33.6693C64.8724 34.271 64.0433 34.5055 63.6021 34.5998C63.1514 34.6962 62.876 34.6953 62.8555 34.6953V24.6953ZM59.5898 26.9297H49.5898C49.5898 31.0456 51.6011 34.8562 55.1959 37.0944C58.0687 38.8832 61.0776 39.1211 62.8555 39.1211V29.1211V19.1211C62.877 19.1211 63.1457 19.1204 63.5864 19.2139C64.016 19.305 64.8284 19.5321 65.767 20.1165C66.7637 20.7371 67.8285 21.7209 68.5995 23.1332C69.3646 24.5348 69.5898 25.8987 69.5898 26.9297H59.5898ZM62.8555 29.1211V39.1211C64.6403 39.1211 67.5874 38.8855 70.4208 37.2008C73.9639 35.0941 76.25 31.3272 76.25 26.9297L66.25 26.9297H56.25C56.25 25.7899 56.5184 24.3537 57.3431 22.925C58.1616 21.5072 59.2529 20.5728 60.1993 20.0101C61.095 19.4775 61.8517 19.2774 62.2308 19.1997C62.6249 19.119 62.8543 19.1211 62.8555 19.1211V29.1211ZM66.25 26.9297L76.25 26.9297C76.25 22.625 74.0674 18.8218 70.4777 16.655C67.6163 14.9279 64.6332 14.6953 62.8555 14.6953V24.6953V34.6953C62.8554 34.6953 62.6194 34.6976 62.2155 34.6142C61.8254 34.5337 61.0521 34.3267 60.1424 33.7776C59.1779 33.1954 58.0966 32.244 57.2972 30.8291C56.497 29.4128 56.25 28.0115 56.25 26.9297H66.25ZM132.594 10.2148H142.594C142.594 4.692 138.117 0.214844 132.594 0.214844V10.2148ZM132.594 39.0898V49.0898C138.117 49.0898 142.594 44.6127 142.594 39.0898L132.594 39.0898ZM125.719 39.0898H115.719C115.719 44.6127 120.196 49.0898 125.719 49.0898V39.0898ZM125.719 25.5547H135.719C135.719 20.0318 131.242 15.5547 125.719 15.5547V25.5547ZM120.348 25.5547H110.348C110.348 31.0775 114.825 35.5547 120.348 35.5547V25.5547ZM120.348 20.0547V10.0547C114.825 10.0547 110.348 14.5318 110.348 20.0547H120.348ZM125.719 20.0547V30.0547C131.242 30.0547 135.719 25.5775 135.719 20.0547H125.719ZM125.719 10.2148V0.214844C120.196 0.214844 115.719 4.692 115.719 10.2148H125.719ZM133.453 43.8164L143.453 43.8164C143.453 38.2936 138.976 33.8164 133.453 33.8164V43.8164ZM133.453 49.3164V59.3164C138.976 59.3164 143.453 54.8393 143.453 49.3164L133.453 49.3164ZM105.695 49.3164H95.6953C95.6953 54.8393 100.172 59.3164 105.695 59.3164V49.3164ZM105.695 36.6406V26.6406C100.172 26.6406 95.6953 31.1178 95.6953 36.6406H105.695ZM112.57 36.6406H122.57C122.57 31.1178 118.093 26.6406 112.57 26.6406V36.6406ZM112.57 43.8164H102.57C102.57 49.3393 107.047 53.8164 112.57 53.8164V43.8164ZM121.809 12.5352H131.809C131.809 7.01231 127.331 2.53516 121.809 2.53516V12.5352ZM121.809 17.9922V27.9922C127.331 27.9922 131.809 23.515 131.809 17.9922H121.809ZM114.547 17.9922V7.99219C111.868 7.99219 109.302 9.06677 107.422 10.9752C105.543 12.8836 104.507 15.4662 104.548 18.1445L114.547 17.9922ZM123.227 28.9492L131.778 34.1337C133.372 31.5045 133.668 28.2881 132.58 25.4122C131.493 22.5362 129.142 20.3204 126.208 19.4039L123.227 28.9492ZM119.918 34.4062L116.943 43.9536C121.331 45.3207 126.086 43.5208 128.469 39.5908L119.918 34.4062ZM111.109 27.2305L119.982 22.6188C118.241 19.2676 114.76 17.1836 110.983 17.2313C107.207 17.2789 103.779 19.4501 102.123 22.8441L111.109 27.2305ZM101.828 35.0938L93.3888 40.4583C95.803 44.2562 100.457 45.9737 104.759 44.6545L101.828 35.0938ZM98.3047 29.5508L95.47 19.961C92.4599 20.8507 90.0423 23.1022 88.9407 26.0414C87.8392 28.9805 88.1816 32.2664 89.8654 34.9153L98.3047 29.5508ZM107.5 17.9922L117.495 18.3191C117.583 15.6117 116.57 12.9842 114.686 11.0377C112.802 9.09115 110.209 7.99219 107.5 7.99219V17.9922ZM100.195 17.9922H90.1953C90.1953 23.515 94.6725 27.9922 100.195 27.9922V17.9922ZM100.195 12.5352V2.53516C94.6725 2.53516 90.1953 7.01231 90.1953 12.5352H100.195ZM132.594 10.2148H122.594V39.0898H132.594L142.594 39.0898V10.2148H132.594ZM132.594 39.0898V29.0898H125.719V39.0898V49.0898H132.594V39.0898ZM125.719 39.0898H135.719V25.5547H125.719H115.719V39.0898H125.719ZM125.719 25.5547V15.5547H120.348V25.5547V35.5547H125.719V25.5547ZM120.348 25.5547H130.348V20.0547H120.348H110.348V25.5547H120.348ZM120.348 20.0547V30.0547H125.719V20.0547V10.0547H120.348V20.0547ZM125.719 20.0547H135.719V10.2148H125.719H115.719V20.0547H125.719ZM125.719 10.2148V20.2148H132.594V10.2148V0.214844L125.719 0.214844V10.2148ZM133.453 43.8164H123.453V49.3164H133.453L143.453 49.3164V43.8164L133.453 43.8164ZM133.453 49.3164V39.3164H105.695V49.3164V59.3164H133.453V49.3164ZM105.695 49.3164H115.695V36.6406H105.695H95.6953V49.3164H105.695ZM105.695 36.6406V46.6406H112.57V36.6406V26.6406H105.695V36.6406ZM112.57 36.6406H102.57V43.8164H112.57H122.57V36.6406H112.57ZM112.57 43.8164V53.8164H133.453V43.8164V33.8164H112.57V43.8164ZM121.809 12.5352H111.809V17.9922H121.809H131.809V12.5352H121.809ZM121.809 17.9922V7.99219H114.547V17.9922V27.9922H121.809V17.9922ZM114.547 17.9922L104.548 18.1445C104.605 21.8595 105.582 26.1135 108.26 29.9874C111.006 33.9593 115.1 36.8876 120.246 38.4946L123.227 28.9492L126.208 19.4039C125.502 19.1836 125.124 18.957 124.949 18.8329C124.782 18.7135 124.727 18.6359 124.711 18.6137C124.683 18.572 124.554 18.3573 124.546 17.8399L114.547 17.9922ZM123.227 28.9492L114.675 23.7647L111.367 29.2217L119.918 34.4062L128.469 39.5908L131.778 34.1337L123.227 28.9492ZM119.918 34.4062L122.893 24.8589C121.928 24.5585 121.342 24.1905 120.968 23.8775C120.593 23.5632 120.267 23.1653 119.982 22.6188L111.109 27.2305L102.236 31.8422C105.16 37.4669 110.115 41.8263 116.943 43.9536L119.918 34.4062ZM111.109 27.2305L102.123 22.8441C101.498 24.1231 100.64 24.9987 98.8968 25.533L101.828 35.0938L104.759 44.6545C112.126 42.3958 117.197 37.5566 120.096 31.6168L111.109 27.2305ZM101.828 35.0938L110.267 29.7292L106.744 24.1863L98.3047 29.5508L89.8654 34.9153L93.3888 40.4583L101.828 35.0938ZM98.3047 29.5508L101.139 39.1406C106.522 37.5495 110.782 34.5489 113.633 30.4254C116.398 26.4267 117.373 22.0529 117.495 18.3191L107.5 17.9922L97.5053 17.6653C97.4771 18.5291 97.2699 18.9248 97.1826 19.0512C97.1413 19.1109 97.0618 19.2113 96.8694 19.346C96.6688 19.4864 96.2479 19.731 95.47 19.961L98.3047 29.5508ZM107.5 17.9922V7.99219H100.195V17.9922V27.9922H107.5V17.9922ZM100.195 17.9922H110.195V12.5352L100.195 12.5352H90.1953V17.9922H100.195ZM100.195 12.5352V22.5352H121.809V12.5352V2.53516H100.195V12.5352ZM169.031 10.1289L179.031 10.1289C179.031 4.60606 174.554 0.128906 169.031 0.128906V10.1289ZM169.031 22.6758H159.031C159.031 28.1986 163.508 32.6758 169.031 32.6758V22.6758ZM173.586 22.6758H183.586C183.586 17.1529 179.109 12.6758 173.586 12.6758V22.6758ZM173.586 28.2617V38.2617C179.109 38.2617 183.586 33.7846 183.586 28.2617H173.586ZM169.031 28.2617V18.2617C163.508 18.2617 159.031 22.7389 159.031 28.2617H169.031ZM169.031 41.1523V51.1523C174.554 51.1523 179.031 46.6752 179.031 41.1523H169.031ZM162.156 41.1523H152.156C152.156 46.6752 156.633 51.1523 162.156 51.1523V41.1523ZM162.156 10.1289V0.128906C156.633 0.128906 152.156 4.60606 152.156 10.1289H162.156ZM170.363 43.8164H180.363C180.363 38.2936 175.886 33.8164 170.363 33.8164V43.8164ZM170.363 49.3164V59.3164C175.886 59.3164 180.363 54.8393 180.363 49.3164H170.363ZM141.531 49.3164L131.531 49.3164C131.531 54.8393 136.008 59.3164 141.531 59.3164V49.3164ZM141.531 39.0898V29.0898C136.008 29.0898 131.531 33.567 131.531 39.0898L141.531 39.0898ZM148.492 39.0898H158.492C158.492 33.567 154.015 29.0898 148.492 29.0898V39.0898ZM148.492 43.8164L138.492 43.8164C138.492 49.3393 142.969 53.8164 148.492 53.8164V43.8164ZM136.203 32.5156V22.5156C133.322 22.5156 130.582 23.7579 128.683 25.9243C126.784 28.0907 125.912 30.9707 126.289 33.8265L136.203 32.5156ZM145.141 32.3867L145.476 42.3811C150.865 42.2002 155.141 37.779 155.141 32.3867H145.141ZM145.141 30.5391H155.141C155.141 25.6731 151.638 21.5135 146.843 20.6851L145.141 30.5391ZM152.016 30.5391L150.166 20.7115C145.44 21.601 142.016 25.7294 142.016 30.5391H152.016ZM152.016 32.043H142.016C142.016 34.7837 143.141 37.4043 145.127 39.2922C147.114 41.1801 149.789 42.1698 152.526 42.0299L152.016 32.043ZM160.695 31.2266L170.644 30.2133C170.369 27.5125 169.007 25.0396 166.873 23.3627C164.738 21.6857 162.013 20.9487 159.324 21.3211L160.695 31.2266ZM161.168 35.8672L163.109 45.6769C168.171 44.6752 171.639 39.987 171.117 34.8539L161.168 35.8672ZM136.891 37.7148L126.977 39.0257C127.644 44.0708 131.994 47.8102 137.082 47.713L136.891 37.7148ZM159.836 12.9219H169.836C169.836 7.39903 165.359 2.92187 159.836 2.92187V12.9219ZM159.836 17.8203V27.8203C165.359 27.8203 169.836 23.3432 169.836 17.8203H159.836ZM137.277 17.8203H127.277C127.277 23.3432 131.754 27.8203 137.277 27.8203V17.8203ZM137.277 12.9219V2.92187C131.754 2.92187 127.277 7.39903 127.277 12.9219H137.277ZM145.141 12.9219V22.9219C150.663 22.9219 155.141 18.4447 155.141 12.9219H145.141ZM145.141 10.043V0.0429687C139.618 0.0429687 135.141 4.52012 135.141 10.043H145.141ZM152.016 10.043H162.016C162.016 4.52012 157.538 0.0429687 152.016 0.0429687V10.043ZM152.016 12.9219H142.016C142.016 18.4447 146.493 22.9219 152.016 22.9219V12.9219ZM151.93 24.7812L161.921 25.1976C161.931 24.9514 161.932 24.705 161.924 24.4588L151.93 24.7812ZM169.031 10.1289H159.031V22.6758H169.031H179.031V10.1289L169.031 10.1289ZM169.031 22.6758V32.6758H173.586V22.6758V12.6758H169.031V22.6758ZM173.586 22.6758H163.586V28.2617H173.586H183.586V22.6758H173.586ZM173.586 28.2617V18.2617H169.031V28.2617V38.2617H173.586V28.2617ZM169.031 28.2617H159.031V41.1523H169.031H179.031V28.2617H169.031ZM169.031 41.1523V31.1523H162.156V41.1523V51.1523H169.031V41.1523ZM162.156 41.1523H172.156V10.1289H162.156H152.156V41.1523H162.156ZM162.156 10.1289V20.1289H169.031V10.1289V0.128906L162.156 0.128906V10.1289ZM170.363 43.8164H160.363V49.3164H170.363H180.363V43.8164H170.363ZM170.363 49.3164V39.3164H141.531V49.3164V59.3164H170.363V49.3164ZM141.531 49.3164H151.531V39.0898H141.531L131.531 39.0898V49.3164L141.531 49.3164ZM141.531 39.0898V49.0898H148.492V39.0898V29.0898H141.531V39.0898ZM148.492 39.0898L138.492 39.0898V43.8164L148.492 43.8164H158.492V39.0898H148.492ZM148.492 43.8164V53.8164H170.363V43.8164V33.8164H148.492V43.8164ZM136.203 32.5156V42.5156C138.915 42.5156 142.114 42.4939 145.476 42.3811L145.141 32.3867L144.805 22.3923C141.765 22.4944 138.819 22.5156 136.203 22.5156V32.5156ZM145.141 32.3867H155.141V30.5391H145.141L135.141 30.5391V32.3867L145.141 32.3867ZM145.141 30.5391L146.843 20.6851C145.966 20.5336 146.185 20.3751 146.819 20.9206C147.172 21.2249 147.629 21.7346 147.99 22.4835C148.359 23.2495 148.523 24.0535 148.523 24.7812H138.523H128.523C128.523 35.1031 137.537 39.3734 143.438 40.3931L145.141 30.5391ZM138.523 24.7812H148.523C148.523 25.4994 148.326 26.4017 147.811 27.2601C147.319 28.0794 146.751 28.5078 146.479 28.6743C146.231 28.826 146.223 28.7696 146.616 28.6807C146.998 28.5946 147.629 28.5078 148.535 28.5078V18.5078V8.50781C144.461 8.50781 139.917 9.24089 136.035 11.6177C131.719 14.2606 128.523 18.8604 128.523 24.7812H138.523ZM148.535 18.5078V28.5078C149.411 28.5078 150.024 28.5929 150.397 28.6776C150.782 28.7652 150.777 28.8212 150.537 28.6743C150.275 28.5139 149.714 28.0936 149.224 27.2819C148.709 26.4283 148.504 25.5199 148.504 24.7812H158.504H168.504C168.504 18.8237 165.262 14.2391 160.981 11.6177C157.113 9.24927 152.589 8.50781 148.535 8.50781V18.5078ZM158.504 24.7812H148.504C148.504 24.0493 148.669 23.2474 149.034 22.4872C149.389 21.7452 149.838 21.2412 150.181 20.9414C150.795 20.4052 151.008 20.5531 150.166 20.7115L152.016 30.5391L153.865 40.3666C159.602 39.2871 168.504 35.0139 168.504 24.7812H158.504ZM152.016 30.5391H142.016V32.043H152.016H162.016V30.5391H152.016ZM152.016 32.043L152.526 42.0299C155.753 41.8651 158.984 41.5589 162.067 41.1321L160.695 31.2266L159.324 21.3211C156.821 21.6676 154.165 21.9201 151.505 22.056L152.016 32.043ZM160.695 31.2266L150.747 32.2398L151.219 36.8805L161.168 35.8672L171.117 34.8539L170.644 30.2133L160.695 31.2266ZM161.168 35.8672L159.226 26.0575C152.022 27.4833 143.71 27.5827 136.7 27.7167L136.891 37.7148L137.082 47.713C143.564 47.5892 153.814 47.5167 163.109 45.6769L161.168 35.8672ZM136.891 37.7148L146.804 36.4039L146.117 31.2047L136.203 32.5156L126.289 33.8265L126.977 39.0257L136.891 37.7148ZM159.836 12.9219H149.836V17.8203H159.836H169.836V12.9219H159.836ZM159.836 17.8203V7.82031H137.277V17.8203V27.8203H159.836V17.8203ZM137.277 17.8203H147.277V12.9219H137.277H127.277V17.8203H137.277ZM137.277 12.9219V22.9219H145.141V12.9219V2.92187H137.277V12.9219ZM145.141 12.9219H155.141V10.043H145.141H135.141V12.9219H145.141ZM145.141 10.043V20.043H152.016V10.043V0.0429687L145.141 0.0429687V10.043ZM152.016 10.043H142.016V12.9219H152.016H162.016V10.043H152.016ZM152.016 12.9219V22.9219H159.836V12.9219V2.92187L152.016 2.92187V12.9219ZM148.535 23.0195V13.0195C147.211 13.0195 144.397 13.069 141.66 14.3738C140.059 15.1366 138.229 16.4456 136.87 18.5882C135.509 20.7344 135.098 22.9655 135.098 24.7812H145.098H155.098C155.098 25.931 154.832 27.6089 153.759 29.2999C152.689 30.9872 151.291 31.9391 150.265 32.4279C149.325 32.8758 148.608 32.9847 148.447 33.0076C148.25 33.0357 148.243 33.0195 148.535 33.0195V23.0195ZM145.098 24.7812H135.098C135.098 27.048 135.782 29.4048 137.301 31.4402C138.731 33.3549 140.495 34.4487 141.869 35.0654C144.388 36.1953 146.948 36.3281 148.535 36.3281V26.3281V16.3281C147.845 16.3281 148.686 16.2032 150.055 16.8174C150.855 17.1763 152.187 17.9478 153.328 19.4758C154.559 21.1245 155.098 23.0301 155.098 24.7812H145.098ZM148.535 26.3281V36.3281C150.122 36.3281 152.684 36.1919 155.212 35.0362C156.598 34.4026 158.296 33.3148 159.682 31.4757C161.136 29.5457 161.832 27.3324 161.921 25.1976L151.93 24.7812L141.938 24.3649C142.006 22.7458 142.546 20.9836 143.709 19.4403C144.803 17.9879 146.075 17.2224 146.897 16.8467C148.297 16.2066 149.183 16.3281 148.535 16.3281V26.3281ZM151.93 24.7812L161.924 24.4588C161.869 22.7252 161.43 20.6023 160.118 18.5528C158.797 16.4894 157.03 15.1864 155.423 14.4058C152.674 13.0702 149.855 13.0195 148.535 13.0195V23.0195V33.0195C148.811 33.0195 148.782 33.0353 148.561 33.0031C148.372 32.9755 147.636 32.8579 146.685 32.396C145.642 31.8893 144.303 30.9435 143.273 29.3353C142.253 27.741 141.969 26.1713 141.935 25.1037L151.93 24.7812ZM208.391 10.1289H218.391C218.391 4.60606 213.913 0.128906 208.391 0.128906V10.1289ZM208.391 50.0039V60.0039C213.913 60.0039 218.391 55.5268 218.391 50.0039H208.391ZM201.43 50.0039H191.43C191.43 55.5268 195.907 60.0039 201.43 60.0039V50.0039ZM201.43 10.1289V0.128906C195.907 0.128906 191.43 4.60606 191.43 10.1289H201.43ZM186.562 12.793L186.493 22.7927C186.54 22.7931 186.587 22.793 186.633 22.7927L186.562 12.793ZM186.562 19.0234L186.393 29.022C186.51 29.024 186.627 29.0239 186.744 29.0218L186.562 19.0234ZM208.391 10.1289H198.391V50.0039H208.391H218.391V10.1289H208.391ZM208.391 50.0039V40.0039H201.43V50.0039V60.0039H208.391V50.0039ZM201.43 50.0039H211.43V10.1289H201.43H191.43V50.0039H201.43ZM201.43 10.1289V20.1289L208.391 20.1289V10.1289V0.128906H201.43V10.1289ZM186.562 12.793L186.633 22.7927C186.566 22.7932 186.396 22.7695 186.221 22.6797C186.059 22.597 186.068 22.5487 186.189 22.7071C186.459 23.0616 187.176 24.3623 187.176 27.1016H197.176L207.176 27.1016C207.176 21.0752 205.615 15.2001 202.093 10.581C198.446 5.7971 192.913 2.74768 186.492 2.79322L186.562 12.793ZM197.176 27.1016H187.176C187.176 29.9317 186.446 31.2538 186.176 31.6093C186.056 31.768 186.044 31.7229 186.199 31.6436C186.364 31.5582 186.517 31.5391 186.562 31.5391V41.5391V51.5391C192.936 51.5391 198.455 48.5123 202.106 43.7023C205.628 39.0626 207.176 33.166 207.176 27.1016L197.176 27.1016ZM186.562 41.5391V31.5391C186.541 31.5391 186.646 31.5424 186.783 31.6119C186.911 31.6768 186.893 31.7104 186.773 31.5554C186.508 31.2105 185.777 29.9128 185.777 27.1016H175.777H165.777C165.777 33.1849 167.346 39.1059 170.926 43.7562C174.639 48.5787 180.2 51.5391 186.562 51.5391V41.5391ZM175.777 27.1016H185.777C185.777 24.3815 186.494 23.1052 186.761 22.7609C186.88 22.6063 186.897 22.6428 186.761 22.7111C186.701 22.7416 186.634 22.7652 186.572 22.7796C186.51 22.7938 186.48 22.7926 186.493 22.7927L186.562 12.793L186.632 2.79321C180.223 2.7487 174.648 5.73041 170.939 10.5271C167.359 15.1566 165.777 21.056 165.777 27.1016H175.777ZM186.562 19.0234L186.732 9.02487C181.1 8.92942 176.902 12.2035 174.729 16.2725C172.888 19.7189 172.438 23.6674 172.438 27.1016H182.438H192.438C192.438 26.1848 192.506 25.6186 192.558 25.3344C192.615 25.0282 192.621 25.2255 192.37 25.6953C192.104 26.1938 191.477 27.1193 190.263 27.9011C188.985 28.7244 187.589 29.0423 186.393 29.022L186.562 19.0234ZM182.438 27.1016H172.438C172.438 30.556 172.881 34.5233 174.737 37.983C176.951 42.1125 181.126 45.2227 186.562 45.2227V35.2227V25.2227C187.673 25.2227 189.008 25.5254 190.255 26.3271C191.452 27.0963 192.084 28.012 192.362 28.5307C192.621 29.0135 192.617 29.2217 192.56 28.9138C192.507 28.6266 192.438 28.0483 192.438 27.1016H182.438ZM186.562 35.2227V45.2227C192.162 45.2227 196.213 41.8583 198.289 37.9275C200.088 34.5216 200.559 30.6095 200.559 27.1016H190.559H180.559C180.559 28.0329 180.489 28.6095 180.435 28.9013C180.377 29.2131 180.367 29.0351 180.605 28.5862C180.853 28.1154 181.449 27.214 182.621 26.4294C183.861 25.5992 185.27 25.2227 186.562 25.2227V35.2227ZM190.559 27.1016H200.559C200.559 23.6142 200.081 19.7203 198.297 16.3279C196.266 12.4682 192.187 8.91951 186.381 9.02509L186.562 19.0234L186.744 29.0218C185.358 29.047 183.883 28.6506 182.613 27.7986C181.424 27.0012 180.834 26.0903 180.597 25.6399C180.367 25.2039 180.378 25.0367 180.436 25.3469C180.49 25.6359 180.559 26.2004 180.559 27.1016H190.559ZM245.043 12.4062H255.043C255.043 6.8834 250.566 2.40625 245.043 2.40625V12.4062ZM245.043 17.8633V27.8633C250.566 27.8633 255.043 23.3861 255.043 17.8633H245.043ZM237.867 17.8633V7.86328C234.961 7.86328 232.198 9.12775 230.299 11.3275C228.399 13.5272 227.55 16.4446 227.974 19.32L237.867 17.8633ZM246.719 26.543L255.233 31.7877C256.886 29.1043 257.177 25.7986 256.019 22.8675C254.86 19.9364 252.388 17.7229 249.347 16.8945L246.719 26.543ZM243.41 31.9141L240.719 41.5452C245.014 42.7453 249.585 40.9561 251.924 37.1588L243.41 31.9141ZM234.301 25.125L242.991 20.1766C241.187 17.0084 237.801 15.0732 234.156 15.1261C230.51 15.1789 227.183 17.2116 225.471 20.4307L234.301 25.125ZM224.848 32.5156L216.476 37.9845C218.858 41.6314 223.327 43.3167 227.524 42.1508L224.848 32.5156ZM221.367 27.1875L218.655 17.5623C215.591 18.4257 213.121 20.696 212.004 23.6765C210.886 26.657 211.254 29.9914 212.995 32.6564L221.367 27.1875ZM230.648 17.8633L240.541 19.3247C240.966 16.4487 240.118 13.5301 238.219 11.3293C236.319 9.12848 233.556 7.86328 230.648 7.86328V17.8633ZM223.258 17.8633H213.258C213.258 23.3861 217.735 27.8633 223.258 27.8633V17.8633ZM223.258 12.4062V2.40625C217.735 2.40625 213.258 6.8834 213.258 12.4062H223.258ZM254.238 10.1289H264.238C264.238 4.60606 259.761 0.128906 254.238 0.128906V10.1289ZM254.238 18.3359H244.238C244.238 23.8588 248.715 28.3359 254.238 28.3359V18.3359ZM259.18 18.3359H269.18C269.18 12.8131 264.703 8.33594 259.18 8.33594V18.3359ZM259.18 23.9648V33.9648C264.703 33.9648 269.18 29.4877 269.18 23.9648H259.18ZM254.238 23.9648V13.9648C248.715 13.9648 244.238 18.442 244.238 23.9648H254.238ZM254.238 32.3437V42.3437C259.761 42.3437 264.238 37.8666 264.238 32.3437H254.238ZM247.32 32.3437H237.32C237.32 37.8666 241.797 42.3437 247.32 42.3437V32.3437ZM247.32 10.1289V0.128906C241.797 0.128906 237.32 4.60606 237.32 10.1289H247.32ZM254.582 33.8047H264.582C264.582 28.2818 260.105 23.8047 254.582 23.8047V33.8047ZM254.582 39.1758V49.1758C260.105 49.1758 264.582 44.6986 264.582 39.1758H254.582ZM245.258 39.1758V29.1758C241.819 29.1758 238.622 30.9426 236.792 33.8539C234.961 36.7653 234.756 40.4127 236.247 43.5114L245.258 39.1758ZM256.473 44.5898L265.533 48.8228C266.894 45.9079 266.771 42.5159 265.2 39.708C263.629 36.9001 260.804 35.0195 257.607 34.6544L256.473 44.5898ZM254.023 49.832L252.883 59.7668C257.156 60.2571 261.263 57.9611 263.083 54.0649L254.023 49.832ZM241.047 43.6875L249.134 37.8058C247.265 35.2361 244.286 33.7075 241.109 33.6877C237.932 33.6679 234.934 35.1593 233.033 37.7056L241.047 43.6875ZM228.113 49.7031L219.067 53.9647C220.885 57.8253 224.954 60.1064 229.196 59.6443L228.113 49.7031ZM225.664 44.5039L224.636 34.5569C221.411 34.8901 218.548 36.7659 216.955 39.5891C215.362 42.4123 215.236 45.8328 216.618 48.7655L225.664 44.5039ZM236.922 39.1758L246.011 43.3452C247.431 40.2493 247.178 36.6434 245.339 33.7764C243.5 30.9095 240.328 29.1758 236.922 29.1758V39.1758ZM227.469 39.1758H217.469C217.469 44.6986 221.946 49.1758 227.469 49.1758V39.1758ZM227.469 33.8047V23.8047C221.946 23.8047 217.469 28.2818 217.469 33.8047H227.469ZM245.043 12.4062L235.043 12.4062V17.8633H245.043H255.043V12.4062H245.043ZM245.043 17.8633V7.86328H237.867V17.8633V27.8633H245.043V17.8633ZM237.867 17.8633L227.974 19.32C228.485 22.7937 229.95 26.4759 232.863 29.6572C235.764 32.8251 239.619 34.9734 244.09 36.1914L246.719 26.543L249.347 16.8945C247.824 16.4797 247.511 16.0391 247.614 16.1509C247.646 16.1858 247.694 16.2538 247.732 16.3363C247.765 16.4104 247.766 16.4425 247.761 16.4066L237.867 17.8633ZM246.719 26.543L238.205 21.2982L234.896 26.6693L243.41 31.9141L251.924 37.1588L255.233 31.7877L246.719 26.543ZM243.41 31.9141L246.101 22.283C245.042 21.9869 244.377 21.6068 243.958 21.2853C243.542 20.9659 243.233 20.6021 242.991 20.1766L234.301 25.125L225.611 30.0734C228.737 35.5639 233.918 39.6449 240.719 41.5452L243.41 31.9141ZM234.301 25.125L225.471 20.4307C225.142 21.049 224.768 21.4952 224.342 21.8405C223.92 22.182 223.26 22.578 222.171 22.8804L224.848 32.5156L227.524 42.1508C234.869 40.1107 240.069 35.5771 243.13 29.8193L234.301 25.125ZM224.848 32.5156L233.22 27.0468L229.739 21.7186L221.367 27.1875L212.995 32.6564L216.476 37.9845L224.848 32.5156ZM221.367 27.1875L224.079 36.8127C228.701 35.5102 232.642 33.2436 235.588 29.9589C238.538 26.6693 240.015 22.8859 240.541 19.3247L230.648 17.8633L220.756 16.4019C220.737 16.5309 220.713 16.5864 220.71 16.5917C220.709 16.595 220.709 16.5936 220.711 16.5907C220.713 16.5875 220.71 16.5925 220.698 16.6066C220.68 16.6263 220.574 16.7414 220.29 16.9091C219.999 17.0814 219.485 17.3284 218.655 17.5623L221.367 27.1875ZM230.648 17.8633V7.86328H223.258V17.8633V27.8633H230.648V17.8633ZM223.258 17.8633H233.258V12.4062H223.258H213.258V17.8633H223.258ZM223.258 12.4062V22.4062H245.043V12.4062V2.40625H223.258V12.4062ZM254.238 10.1289H244.238V18.3359H254.238H264.238V10.1289H254.238ZM254.238 18.3359V28.3359H259.18V18.3359V8.33594H254.238V18.3359ZM259.18 18.3359H249.18V23.9648H259.18H269.18V18.3359H259.18ZM259.18 23.9648V13.9648H254.238V23.9648V33.9648H259.18V23.9648ZM254.238 23.9648H244.238V32.3437H254.238H264.238V23.9648H254.238ZM254.238 32.3437V22.3437H247.32V32.3437V42.3437H254.238V32.3437ZM247.32 32.3437H257.32V10.1289H247.32H237.32V32.3437H247.32ZM247.32 10.1289V20.1289H254.238V10.1289V0.128906H247.32V10.1289ZM254.582 33.8047H244.582V39.1758H254.582H264.582V33.8047H254.582ZM254.582 39.1758V29.1758H245.258V39.1758V49.1758H254.582V39.1758ZM245.258 39.1758L236.247 43.5114C239.552 50.3823 247.031 53.5766 255.338 54.5253L256.473 44.5898L257.607 34.6544C254.994 34.356 253.784 33.8375 253.415 33.6382C253.097 33.4669 253.733 33.7257 254.269 34.8402L245.258 39.1758ZM256.473 44.5898L247.413 40.3569L244.964 45.5991L254.023 49.832L263.083 54.0649L265.533 48.8228L256.473 44.5898ZM254.023 49.832L255.163 39.8972C250.299 39.339 249.171 37.8561 249.134 37.8058L241.047 43.6875L232.96 49.5692C237.392 55.6634 244.642 58.8211 252.883 59.7668L254.023 49.832ZM241.047 43.6875L233.033 37.7056C232.962 37.8016 231.84 39.2381 227.031 39.7619L228.113 49.7031L229.196 59.6443C237.406 58.7502 244.577 55.6749 249.06 49.6694L241.047 43.6875ZM228.113 49.7031L237.16 45.4416L234.711 40.2423L225.664 44.5039L216.618 48.7655L219.067 53.9647L228.113 49.7031ZM225.664 44.5039L226.692 54.4509C234.957 53.5968 242.695 50.5735 246.011 43.3452L236.922 39.1758L227.833 35.0064C228.377 33.8196 229.097 33.482 228.874 33.5998C228.553 33.769 227.354 34.276 224.636 34.5569L225.664 44.5039ZM236.922 39.1758V29.1758H227.469V39.1758V49.1758H236.922V39.1758ZM227.469 39.1758H237.469V33.8047H227.469H217.469V39.1758H227.469ZM227.469 33.8047V43.8047H254.582V33.8047V23.8047H227.469V33.8047ZM296.734 30.0664H306.734C306.734 24.5436 302.257 20.0664 296.734 20.0664V30.0664ZM296.734 35.4805V45.4805C302.257 45.4805 306.734 41.0033 306.734 35.4805H296.734ZM260.469 35.4805H250.469C250.469 41.0033 254.946 45.4805 260.469 45.4805V35.4805ZM260.469 30.0664V20.0664C254.946 20.0664 250.469 24.5436 250.469 30.0664H260.469ZM292.523 43.8164H302.523C302.523 38.2936 298.046 33.8164 292.523 33.8164V43.8164ZM292.523 49.3164V59.3164C298.046 59.3164 302.523 54.8393 302.523 49.3164H292.523ZM264.637 49.3164H254.637C254.637 54.8393 259.114 59.3164 264.637 59.3164V49.3164ZM264.637 37.6289V27.6289C259.114 27.6289 254.637 32.1061 254.637 37.6289H264.637ZM271.555 37.6289H281.555C281.555 32.1061 277.078 27.6289 271.555 27.6289V37.6289ZM271.555 43.8164H261.555C261.555 49.3393 266.032 53.8164 271.555 53.8164V43.8164ZM293.297 19.5391L303.297 19.6217C303.297 19.5661 303.297 19.5106 303.297 19.455L293.297 19.5391ZM263.863 19.5391L273.863 19.6217C273.863 19.5661 273.863 19.5106 273.863 19.455L263.863 19.5391ZM278.602 16.6602L278.689 6.66054C278.631 6.66003 278.573 6.66003 278.515 6.66053L278.602 16.6602ZM271.039 19.5391L281.037 19.7474C281.04 19.6039 281.04 19.4604 281.037 19.3169L271.039 19.5391ZM278.602 22.375L278.689 12.3754C278.631 12.3749 278.573 12.3749 278.515 12.3754L278.602 22.375ZM296.734 30.0664H286.734V35.4805H296.734H306.734V30.0664H296.734ZM296.734 35.4805V25.4805H260.469V35.4805V45.4805H296.734V35.4805ZM260.469 35.4805H270.469V30.0664H260.469H250.469V35.4805H260.469ZM260.469 30.0664V40.0664H296.734V30.0664V20.0664H260.469V30.0664ZM292.523 43.8164H282.523V49.3164H292.523H302.523V43.8164H292.523ZM292.523 49.3164V39.3164H264.637V49.3164V59.3164H292.523V49.3164ZM264.637 49.3164H274.637V37.6289H264.637H254.637V49.3164H264.637ZM264.637 37.6289V47.6289H271.555V37.6289V27.6289H264.637V37.6289ZM271.555 37.6289H261.555V43.8164H271.555H281.555V37.6289H271.555ZM271.555 43.8164V53.8164H292.523V43.8164V33.8164H271.555V43.8164ZM278.602 11.2461V21.2461C281.963 21.2461 283.768 21.8844 284.351 22.2098C284.585 22.3401 284.314 22.2472 283.958 21.7271C283.552 21.1328 283.303 20.3614 283.297 19.6231L293.297 19.5391L303.297 19.455C303.237 12.3697 298.894 7.41882 294.089 4.74041C289.527 2.19762 284.005 1.24609 278.602 1.24609V11.2461ZM293.297 19.5391L283.297 19.4564C283.303 18.7765 283.53 18.0443 283.917 17.4678C284.258 16.9612 284.521 16.8688 284.296 16.9961C283.728 17.3175 281.946 17.9609 278.602 17.9609V27.9609V37.9609C284.022 37.9609 289.567 36.993 294.144 34.4033C298.984 31.6655 303.238 26.6701 303.297 19.6217L293.297 19.5391ZM278.602 27.9609V17.9609C275.195 17.9609 273.38 17.311 272.806 16.9873C272.579 16.8598 272.866 16.9637 273.226 17.5051C273.638 18.1233 273.869 18.9041 273.863 19.6217L263.863 19.5391L253.864 19.4564C253.804 26.6159 258.126 31.6724 262.988 34.4121C267.581 36.9995 273.157 37.9609 278.602 37.9609V27.9609ZM263.863 19.5391L273.863 19.455C273.869 20.232 273.616 21.0532 273.186 21.6898C272.81 22.2448 272.515 22.3492 272.75 22.2184C273.341 21.8907 275.178 21.2461 278.602 21.2461V11.2461V1.24609C273.173 1.24609 267.62 2.19133 263.044 4.73181C258.217 7.41128 253.803 12.4237 253.864 19.6231L263.863 19.5391ZM278.602 16.6602L278.515 6.66053C275.725 6.68458 272.402 6.92142 269.454 8.016C267.921 8.58517 265.81 9.63131 264.028 11.635C262.039 13.8726 260.974 16.7422 261.042 19.7612L271.039 19.5391L281.037 19.3169C281.082 21.3691 280.329 23.4009 278.975 24.9241C277.829 26.2134 276.676 26.6687 276.416 26.7652C276.104 26.8812 276.092 26.8377 276.578 26.7756C277.027 26.7182 277.714 26.6682 278.688 26.6598L278.602 16.6602ZM271.039 19.5391L261.041 19.3308C260.981 22.2019 261.927 25.0823 263.949 27.4129C265.774 29.5152 267.966 30.5881 269.559 31.1595C272.576 32.2414 275.959 32.3981 278.688 32.3746L278.602 22.375L278.515 12.3754C277.525 12.3839 276.836 12.3469 276.391 12.2985C275.904 12.2457 275.951 12.2046 276.311 12.3337C276.631 12.4485 277.865 12.9333 279.054 14.3038C280.441 15.9025 281.075 17.9075 281.037 19.7474L271.039 19.5391ZM278.602 22.375L278.514 32.3746C281.223 32.3984 284.578 32.2373 287.583 31.164C289.165 30.5989 291.319 29.5496 293.135 27.5139C295.143 25.2616 296.164 22.4355 296.164 19.5391H286.164H276.164C276.164 17.6739 276.852 15.7233 278.208 14.2028C279.371 12.8989 280.552 12.4378 280.856 12.3292C281.199 12.2066 281.237 12.2474 280.762 12.2994C280.325 12.3472 279.652 12.3838 278.689 12.3754L278.602 22.375ZM286.164 19.5391H296.164C296.164 16.5004 295.024 13.6907 293.054 11.5349C291.284 9.5968 289.21 8.57419 287.688 8.01124C284.753 6.9261 281.459 6.68484 278.689 6.66054L278.602 16.6602L278.514 26.6598C279.46 26.6681 280.132 26.7175 280.573 26.7743C281.049 26.8356 281.047 26.8792 280.752 26.77C280.508 26.6797 279.406 26.2479 278.288 25.0242C276.971 23.5827 276.164 21.6109 276.164 19.5391H286.164Z" fill="white" mask="url(#path-1-outside-1_6526_5696)"/>
</g>
<defs>
<filter id="filter0_d_6526_5696" x="0" y="0" width="310.734" height="68.0039" filterUnits="userSpaceOnUse" color-interpolation-filters="sRGB">
<feFlood flood-opacity="0" result="BackgroundImageFix"/>
<feColorMatrix in="SourceAlpha" type="matrix" values="0 0 0 0 0 0 0 0 0 0 0 0 0 0 0 0 0 0 127 0" result="hardAlpha"/>
<feOffset dy="4"/>
<feGaussianBlur stdDeviation="2"/>
<feComposite in2="hardAlpha" operator="out"/>
<feColorMatrix type="matrix" values="0 0 0 0 0 0 0 0 0 0 0 0 0 0 0 0 0 0 0.07 0"/>
<feBlend mode="normal" in2="BackgroundImageFix" result="effect1_dropShadow_6526_5696"/>
<feBlend mode="normal" in="SourceGraphic" in2="effect1_dropShadow_6526_5696" result="shape"/>
</filter>
</defs>
</svg>
