<svg width="302" height="68" viewBox="0 0 302 68" fill="none" xmlns="http://www.w3.org/2000/svg">
<g filter="url(#filter0_d_6526_5673)">
<mask id="path-1-outside-1_6526_5673" maskUnits="userSpaceOnUse" x="3.23828" y="-0.378906" width="294" height="61" fill="black">
<rect fill="white" x="3.23828" y="-0.378906" width="294" height="61"/>
<path d="M31.7461 34.1055C40.082 34.0625 45.3242 36.9844 45.3242 41.9688C45.3242 47.0391 40.082 50.0039 31.7461 50.0039C23.1953 50.0039 17.8242 47.0391 17.8672 41.9688C17.8242 36.9844 23.1953 34.0625 31.7461 34.1055ZM31.7461 39.3906C27.0625 39.3906 24.7422 40.0781 24.7422 41.9688C24.7422 43.8594 27.0625 44.6758 31.7461 44.6758C36.3438 44.6758 38.4922 43.8594 38.4922 41.9688C38.4922 40.0781 36.3438 39.3906 31.7461 39.3906ZM44.9375 10.1289V18.9375H49.8789V24.6094H44.9375V33.2891H38.0195V10.1289L44.9375 10.1289ZM20.832 12.707V17.0469H26.8047V12.707H33.6797V31.5273H14V12.707H20.832ZM20.832 26.1992H26.8047V22.332H20.832V26.1992ZM87.6484 15.2422V20.7852H82.9648V23.9219H87.6484V29.4648H82.9648V35.1367H76.0469V10.1289H82.9648V15.2422H87.6484ZM69.6875 35.5664C77.9805 35.5664 83.3516 38.2734 83.3945 42.7852C83.3516 47.2109 77.9805 49.9609 69.6875 49.9609C61.2227 49.9609 55.9375 47.2109 55.9805 42.7852C55.9375 38.2734 61.2227 35.5664 69.6875 35.5664ZM69.6875 40.7656C65.0039 40.7656 62.8125 41.2383 62.8125 42.7852C62.8125 44.2031 65.0039 44.8906 69.6875 44.8906C74.2422 44.8906 76.4336 44.2031 76.4336 42.7852C76.4336 41.2383 74.2422 40.7656 69.6875 40.7656ZM74.6289 13.4805V18.8086H51.125V13.4805H59.418V10H66.3359V13.4805H74.6289ZM62.8555 19.7109C68.6562 19.7109 72.7812 22.7188 72.7812 26.9297C72.7812 31.2266 68.6562 34.1055 62.8555 34.1484C56.9688 34.1055 52.8438 31.2266 52.8438 26.9297C52.8438 22.7188 56.9688 19.7109 62.8555 19.7109ZM62.8555 24.6953C60.8789 24.6953 59.5898 25.3398 59.5898 26.9297C59.5898 28.4766 60.8789 29.1211 62.8555 29.1211C64.875 29.1211 66.25 28.4766 66.25 26.9297C66.25 25.3398 64.875 24.6953 62.8555 24.6953ZM105.051 15.0273C105.051 20.1406 106.941 24.9961 113.688 26.9727L110.078 32.3438C105.975 30.9902 103.311 28.5625 101.699 25.3828C99.9375 29.1426 96.8867 32.1074 92.2461 33.5898L88.5938 28.0898C95.8984 25.8984 98.0469 20.5273 98.0898 15.3711V12.1055H105.051V15.0273ZM123.012 10.1289V33.2891H116.137V22.2461H109.605V16.6602H116.137V10.1289H123.012ZM109.176 34.2344C117.812 34.2344 123.098 37.1562 123.098 42.0977C123.098 47.082 117.812 49.9609 109.176 49.9609C100.625 49.9609 95.3398 47.082 95.3398 42.0977C95.3398 37.1562 100.625 34.2344 109.176 34.2344ZM109.176 39.5195C104.449 39.5195 102.172 40.25 102.215 42.0977C102.172 43.8594 104.449 44.6328 109.176 44.6328C113.945 44.6328 116.266 43.8594 116.266 42.0977C116.266 40.25 113.945 39.5195 109.176 39.5195ZM160.781 10.1289V50.0039H153.82V10.1289H160.781ZM138.953 12.793C145.012 12.75 149.566 18.3359 149.566 27.1016C149.566 35.9961 145.012 41.5391 138.953 41.5391C132.766 41.5391 128.168 35.9961 128.168 27.1016C128.168 18.3359 132.766 12.75 138.953 12.793ZM138.953 19.0234C136.418 18.9805 134.828 21.6016 134.828 27.1016C134.828 32.6875 136.418 35.2227 138.953 35.2227C141.316 35.2227 142.949 32.6875 142.949 27.1016C142.949 21.6016 141.316 18.9805 138.953 19.0234ZM206.543 10.1289V24.5234H211.914V30.1953H206.543V49.875H199.625V10.1289H206.543ZM182.738 13.1797V22.2891H188.84V13.1797H195.715V40.8945H175.863V13.1797H182.738ZM182.738 35.3516H188.84V27.6172H182.738V35.3516ZM247.449 10.2148V49.832H240.488V10.2148H247.449ZM212.645 28.6055L217.07 28.5625C218.166 24.3945 218.402 21.2148 218.488 18.293H214.449V12.75H225.234V16.1875C225.234 19.6035 225.234 23.5566 223.988 28.3906C225.75 28.3691 227.533 28.2832 229.316 28.1758C230.348 24.1582 230.562 21.1074 230.648 18.293H226.781V12.75H237.395V16.1875C237.352 19.4102 237.352 23.127 236.32 27.6172L238.77 27.3594L239.242 32.4297C236.105 32.9238 232.904 33.2676 229.746 33.5039V48.7148H222.785V33.8477C219.498 33.998 216.318 34.0195 213.418 34.0625L212.645 28.6055ZM283.242 20.2266V25.5547H255.141V11.5469H262.016V20.2266H283.242ZM287.152 29.0781V34.4062H250.887V29.0781H287.152ZM283.5 43.6016V49.1016H254.668V37.1562H261.629V43.6016H283.5Z"/>
</mask>
<path d="M31.7461 34.1055C40.082 34.0625 45.3242 36.9844 45.3242 41.9688C45.3242 47.0391 40.082 50.0039 31.7461 50.0039C23.1953 50.0039 17.8242 47.0391 17.8672 41.9688C17.8242 36.9844 23.1953 34.0625 31.7461 34.1055ZM31.7461 39.3906C27.0625 39.3906 24.7422 40.0781 24.7422 41.9688C24.7422 43.8594 27.0625 44.6758 31.7461 44.6758C36.3438 44.6758 38.4922 43.8594 38.4922 41.9688C38.4922 40.0781 36.3438 39.3906 31.7461 39.3906ZM44.9375 10.1289V18.9375H49.8789V24.6094H44.9375V33.2891H38.0195V10.1289L44.9375 10.1289ZM20.832 12.707V17.0469H26.8047V12.707H33.6797V31.5273H14V12.707H20.832ZM20.832 26.1992H26.8047V22.332H20.832V26.1992ZM87.6484 15.2422V20.7852H82.9648V23.9219H87.6484V29.4648H82.9648V35.1367H76.0469V10.1289H82.9648V15.2422H87.6484ZM69.6875 35.5664C77.9805 35.5664 83.3516 38.2734 83.3945 42.7852C83.3516 47.2109 77.9805 49.9609 69.6875 49.9609C61.2227 49.9609 55.9375 47.2109 55.9805 42.7852C55.9375 38.2734 61.2227 35.5664 69.6875 35.5664ZM69.6875 40.7656C65.0039 40.7656 62.8125 41.2383 62.8125 42.7852C62.8125 44.2031 65.0039 44.8906 69.6875 44.8906C74.2422 44.8906 76.4336 44.2031 76.4336 42.7852C76.4336 41.2383 74.2422 40.7656 69.6875 40.7656ZM74.6289 13.4805V18.8086H51.125V13.4805H59.418V10H66.3359V13.4805H74.6289ZM62.8555 19.7109C68.6562 19.7109 72.7812 22.7188 72.7812 26.9297C72.7812 31.2266 68.6562 34.1055 62.8555 34.1484C56.9688 34.1055 52.8438 31.2266 52.8438 26.9297C52.8438 22.7188 56.9688 19.7109 62.8555 19.7109ZM62.8555 24.6953C60.8789 24.6953 59.5898 25.3398 59.5898 26.9297C59.5898 28.4766 60.8789 29.1211 62.8555 29.1211C64.875 29.1211 66.25 28.4766 66.25 26.9297C66.25 25.3398 64.875 24.6953 62.8555 24.6953ZM105.051 15.0273C105.051 20.1406 106.941 24.9961 113.688 26.9727L110.078 32.3438C105.975 30.9902 103.311 28.5625 101.699 25.3828C99.9375 29.1426 96.8867 32.1074 92.2461 33.5898L88.5938 28.0898C95.8984 25.8984 98.0469 20.5273 98.0898 15.3711V12.1055H105.051V15.0273ZM123.012 10.1289V33.2891H116.137V22.2461H109.605V16.6602H116.137V10.1289H123.012ZM109.176 34.2344C117.812 34.2344 123.098 37.1562 123.098 42.0977C123.098 47.082 117.812 49.9609 109.176 49.9609C100.625 49.9609 95.3398 47.082 95.3398 42.0977C95.3398 37.1562 100.625 34.2344 109.176 34.2344ZM109.176 39.5195C104.449 39.5195 102.172 40.25 102.215 42.0977C102.172 43.8594 104.449 44.6328 109.176 44.6328C113.945 44.6328 116.266 43.8594 116.266 42.0977C116.266 40.25 113.945 39.5195 109.176 39.5195ZM160.781 10.1289V50.0039H153.82V10.1289H160.781ZM138.953 12.793C145.012 12.75 149.566 18.3359 149.566 27.1016C149.566 35.9961 145.012 41.5391 138.953 41.5391C132.766 41.5391 128.168 35.9961 128.168 27.1016C128.168 18.3359 132.766 12.75 138.953 12.793ZM138.953 19.0234C136.418 18.9805 134.828 21.6016 134.828 27.1016C134.828 32.6875 136.418 35.2227 138.953 35.2227C141.316 35.2227 142.949 32.6875 142.949 27.1016C142.949 21.6016 141.316 18.9805 138.953 19.0234ZM206.543 10.1289V24.5234H211.914V30.1953H206.543V49.875H199.625V10.1289H206.543ZM182.738 13.1797V22.2891H188.84V13.1797H195.715V40.8945H175.863V13.1797H182.738ZM182.738 35.3516H188.84V27.6172H182.738V35.3516ZM247.449 10.2148V49.832H240.488V10.2148H247.449ZM212.645 28.6055L217.07 28.5625C218.166 24.3945 218.402 21.2148 218.488 18.293H214.449V12.75H225.234V16.1875C225.234 19.6035 225.234 23.5566 223.988 28.3906C225.75 28.3691 227.533 28.2832 229.316 28.1758C230.348 24.1582 230.562 21.1074 230.648 18.293H226.781V12.75H237.395V16.1875C237.352 19.4102 237.352 23.127 236.32 27.6172L238.77 27.3594L239.242 32.4297C236.105 32.9238 232.904 33.2676 229.746 33.5039V48.7148H222.785V33.8477C219.498 33.998 216.318 34.0195 213.418 34.0625L212.645 28.6055ZM283.242 20.2266V25.5547H255.141V11.5469H262.016V20.2266H283.242ZM287.152 29.0781V34.4062H250.887V29.0781H287.152ZM283.5 43.6016V49.1016H254.668V37.1562H261.629V43.6016H283.5Z" fill="#11DCA9"/>
<path d="M31.7461 34.1055L31.6958 44.1053C31.7298 44.1055 31.7637 44.1055 31.7976 44.1053L31.7461 34.1055ZM17.8672 41.9688L27.8668 42.0535C27.8673 41.9965 27.8673 41.9395 27.8668 41.8825L17.8672 41.9688ZM44.9375 10.1289H54.9375C54.9375 4.60606 50.4603 0.128906 44.9375 0.128906V10.1289ZM44.9375 18.9375H34.9375C34.9375 24.4603 39.4147 28.9375 44.9375 28.9375V18.9375ZM49.8789 18.9375H59.8789C59.8789 13.4147 55.4018 8.9375 49.8789 8.9375V18.9375ZM49.8789 24.6094V34.6094C55.4018 34.6094 59.8789 30.1322 59.8789 24.6094H49.8789ZM44.9375 24.6094V14.6094C39.4147 14.6094 34.9375 19.0865 34.9375 24.6094H44.9375ZM44.9375 33.2891V43.2891C50.4603 43.2891 54.9375 38.8119 54.9375 33.2891H44.9375ZM38.0195 33.2891H28.0195C28.0195 38.8119 32.4967 43.2891 38.0195 43.2891V33.2891ZM38.0195 10.1289V0.128906C32.4967 0.128906 28.0195 4.60606 28.0195 10.1289H38.0195ZM20.832 12.707H30.832C30.832 7.18418 26.3549 2.70703 20.832 2.70703V12.707ZM20.832 17.0469H10.832C10.832 22.5697 15.3092 27.0469 20.832 27.0469V17.0469ZM26.8047 17.0469V27.0469C32.3275 27.0469 36.8047 22.5697 36.8047 17.0469H26.8047ZM26.8047 12.707V2.70703C21.2818 2.70703 16.8047 7.18418 16.8047 12.707H26.8047ZM33.6797 12.707H43.6797C43.6797 7.18418 39.2025 2.70703 33.6797 2.70703V12.707ZM33.6797 31.5273V41.5273C39.2025 41.5273 43.6797 37.0502 43.6797 31.5273H33.6797ZM14 31.5273H4C4 37.0502 8.47715 41.5273 14 41.5273L14 31.5273ZM14 12.707V2.70703C8.47715 2.70703 4 7.18418 4 12.707H14ZM20.832 26.1992H10.832C10.832 31.7221 15.3092 36.1992 20.832 36.1992V26.1992ZM26.8047 26.1992V36.1992C32.3275 36.1992 36.8047 31.7221 36.8047 26.1992H26.8047ZM26.8047 22.332H36.8047C36.8047 16.8092 32.3275 12.332 26.8047 12.332V22.332ZM20.832 22.332V12.332C15.3092 12.332 10.832 16.8092 10.832 22.332H20.832ZM31.7461 34.1055L31.7976 44.1053C33.3104 44.0975 34.4883 44.2268 35.3496 44.4058C36.2266 44.5881 36.6215 44.7894 36.6891 44.8282C36.7384 44.8565 36.3486 44.6431 35.9452 44.0109C35.5056 43.3221 35.3242 42.5612 35.3242 41.9688H45.3242H55.3242C55.3242 35.2572 51.5021 30.2657 46.6332 27.4755C42.1828 24.9252 36.8259 24.0792 31.6945 24.1056L31.7461 34.1055ZM45.3242 41.9688H35.3242C35.3242 41.4322 35.487 40.7135 35.9039 40.0489C36.2882 39.4363 36.6624 39.2266 36.6151 39.2542C36.5476 39.2936 36.1567 39.4971 35.2853 39.6842C34.429 39.8681 33.2557 40.0039 31.7461 40.0039V50.0039V60.0039C36.8844 60.0039 42.2538 59.1241 46.7072 56.5212C51.5875 53.6688 55.3242 48.6418 55.3242 41.9688H45.3242ZM31.7461 50.0039V40.0039C30.1677 40.0039 28.9293 39.8655 28.0141 39.6738C27.0821 39.4786 26.6445 39.2619 26.5454 39.2053C26.4636 39.1585 26.8468 39.3586 27.2499 39.9916C27.6924 40.6864 27.8719 41.4572 27.8668 42.0535L17.8672 41.9688L7.86755 41.884C7.80967 48.7134 11.7082 53.7619 16.6226 56.5701C21.1121 59.1355 26.536 60.0039 31.7461 60.0039V50.0039ZM17.8672 41.9688L27.8668 41.8825C27.8724 42.5361 27.6735 43.3496 27.2079 44.0684C26.7857 44.7202 26.3871 44.9234 26.4718 44.8759C26.5717 44.8199 27.0135 44.6058 27.9512 44.4156C28.8714 44.2291 30.1145 44.0974 31.6958 44.1053L31.7461 34.1055L31.7963 24.1056C26.5927 24.0794 21.1817 24.9147 16.6962 27.4278C11.7969 30.1727 7.80833 35.1843 7.86756 42.055L17.8672 41.9688ZM31.7461 39.3906V29.3906C29.2616 29.3906 26.0534 29.5273 23.1824 30.5328C21.6469 31.0706 19.4862 32.0993 17.6711 34.1617C15.6601 36.4467 14.7422 39.2414 14.7422 41.9688H24.7422H34.7422C34.7422 43.7508 34.1143 45.7506 32.6847 47.3749C31.4511 48.7767 30.1632 49.279 29.7932 49.4086C29.39 49.5498 29.2931 49.5187 29.7425 49.4705C30.1494 49.4269 30.7933 49.3906 31.7461 49.3906V39.3906ZM24.7422 41.9688H14.7422C14.7422 44.6838 15.6484 47.4161 17.5548 49.6615C19.2956 51.7119 21.3898 52.795 22.9529 53.3857C25.8848 54.4936 29.1459 54.6758 31.7461 54.6758V44.6758V34.6758C30.8409 34.6758 30.2397 34.635 29.8778 34.5912C29.4775 34.5427 29.6011 34.5176 30.0226 34.6768C30.4203 34.8271 31.6416 35.3516 32.801 36.7172C34.126 38.2778 34.7422 40.199 34.7422 41.9688H24.7422ZM31.7461 44.6758V54.6758C34.2897 54.6758 37.5692 54.4997 40.5262 53.3284C42.1311 52.6926 44.2117 51.5435 45.9008 49.4269C47.7185 47.1493 48.4922 44.4894 48.4922 41.9688H38.4922H28.4922C28.4922 40.3934 28.9974 38.5446 30.2685 36.9517C31.4111 35.52 32.6673 34.9295 33.1604 34.7341C33.6545 34.5384 33.8508 34.5519 33.4985 34.596C33.1855 34.6352 32.6266 34.6758 31.7461 34.6758V44.6758ZM38.4922 41.9688H48.4922C48.4922 39.4403 47.7105 36.716 45.7899 34.3942C44.0228 32.258 41.8691 31.1632 40.2898 30.5834C37.3951 29.5206 34.1704 29.3906 31.7461 29.3906V39.3906V49.3906C32.6752 49.3906 33.2781 49.4268 33.6381 49.4667C34.0421 49.5115 33.8731 49.5329 33.3967 49.358C32.9293 49.1864 31.6 48.618 30.3794 47.1424C29.0053 45.4813 28.4922 43.5519 28.4922 41.9688H38.4922ZM44.9375 10.1289L34.9375 10.1289V18.9375H44.9375H54.9375V10.1289H44.9375ZM44.9375 18.9375V28.9375H49.8789V18.9375V8.9375H44.9375V18.9375ZM49.8789 18.9375H39.8789V24.6094H49.8789H59.8789V18.9375H49.8789ZM49.8789 24.6094V14.6094H44.9375V24.6094V34.6094H49.8789V24.6094ZM44.9375 24.6094H34.9375V33.2891H44.9375H54.9375V24.6094H44.9375ZM44.9375 33.2891V23.2891H38.0195V33.2891V43.2891H44.9375V33.2891ZM38.0195 33.2891H48.0195V10.1289L38.0195 10.1289H28.0195V33.2891H38.0195ZM38.0195 10.1289V20.1289H44.9375V10.1289V0.128906H38.0195V10.1289ZM20.832 12.707H10.832V17.0469H20.832H30.832V12.707H20.832ZM20.832 17.0469V27.0469H26.8047V17.0469V7.04688H20.832V17.0469ZM26.8047 17.0469H36.8047V12.707H26.8047H16.8047V17.0469H26.8047ZM26.8047 12.707V22.707H33.6797V12.707V2.70703L26.8047 2.70703V12.707ZM33.6797 12.707H23.6797V31.5273H33.6797H43.6797V12.707H33.6797ZM33.6797 31.5273V21.5273H14V31.5273L14 41.5273H33.6797V31.5273ZM14 31.5273H24V12.707H14H4L4 31.5273H14ZM14 12.707V22.707H20.832V12.707V2.70703H14V12.707ZM20.832 26.1992V36.1992H26.8047V26.1992V16.1992H20.832V26.1992ZM26.8047 26.1992H36.8047V22.332H26.8047H16.8047V26.1992H26.8047ZM26.8047 22.332V12.332H20.832V22.332V32.332H26.8047V22.332ZM20.832 22.332H10.832V26.1992H20.832H30.832V22.332H20.832ZM87.6484 15.2422H97.6484C97.6484 9.71934 93.1713 5.24219 87.6484 5.24219V15.2422ZM87.6484 20.7852V30.7852C93.1713 30.7852 97.6484 26.308 97.6484 20.7852H87.6484ZM82.9648 20.7852V10.7852C77.442 10.7852 72.9648 15.2623 72.9648 20.7852L82.9648 20.7852ZM82.9648 23.9219L72.9648 23.9219C72.9648 29.4447 77.442 33.9219 82.9648 33.9219V23.9219ZM87.6484 23.9219H97.6484C97.6484 18.399 93.1713 13.9219 87.6484 13.9219V23.9219ZM87.6484 29.4648V39.4648C93.1713 39.4648 97.6484 34.9877 97.6484 29.4648H87.6484ZM82.9648 29.4648V19.4648C77.442 19.4648 72.9648 23.942 72.9648 29.4648H82.9648ZM82.9648 35.1367V45.1367C88.4877 45.1367 92.9648 40.6596 92.9648 35.1367H82.9648ZM76.0469 35.1367H66.0469C66.0469 40.6596 70.524 45.1367 76.0469 45.1367V35.1367ZM76.0469 10.1289V0.128906C70.524 0.128906 66.0469 4.60606 66.0469 10.1289H76.0469ZM82.9648 10.1289H92.9648C92.9648 4.60606 88.4877 0.128906 82.9648 0.128906V10.1289ZM82.9648 15.2422L72.9648 15.2422C72.9648 20.765 77.442 25.2422 82.9648 25.2422V15.2422ZM83.3945 42.7852L93.3941 42.8822C93.3947 42.8181 93.3947 42.754 93.3941 42.6899L83.3945 42.7852ZM55.9805 42.7852L65.98 42.8822C65.9806 42.8181 65.9806 42.754 65.98 42.6899L55.9805 42.7852ZM74.6289 13.4805L84.6289 13.4805C84.6289 7.95762 80.1518 3.48047 74.6289 3.48047V13.4805ZM74.6289 18.8086V28.8086C80.1518 28.8086 84.6289 24.3314 84.6289 18.8086L74.6289 18.8086ZM51.125 18.8086H41.125C41.125 24.3314 45.6022 28.8086 51.125 28.8086V18.8086ZM51.125 13.4805V3.48047C45.6022 3.48047 41.125 7.95762 41.125 13.4805H51.125ZM59.418 13.4805V23.4805C64.9408 23.4805 69.418 19.0033 69.418 13.4805H59.418ZM59.418 10V0C53.8951 0 49.418 4.47715 49.418 10H59.418ZM66.3359 10H76.3359C76.3359 4.47715 71.8588 0 66.3359 0V10ZM66.3359 13.4805H56.3359C56.3359 19.0033 60.8131 23.4805 66.3359 23.4805V13.4805ZM62.8555 34.1484L62.7825 44.1482C62.8315 44.1485 62.8805 44.1485 62.9295 44.1482L62.8555 34.1484ZM87.6484 15.2422H77.6484V20.7852H87.6484H97.6484V15.2422H87.6484ZM87.6484 20.7852V10.7852H82.9648V20.7852V30.7852H87.6484V20.7852ZM82.9648 20.7852L72.9648 20.7852V23.9219L82.9648 23.9219H92.9648V20.7852H82.9648ZM82.9648 23.9219V33.9219H87.6484V23.9219V13.9219H82.9648V23.9219ZM87.6484 23.9219H77.6484V29.4648H87.6484H97.6484V23.9219H87.6484ZM87.6484 29.4648V19.4648H82.9648V29.4648V39.4648H87.6484V29.4648ZM82.9648 29.4648H72.9648V35.1367H82.9648H92.9648V29.4648H82.9648ZM82.9648 35.1367V25.1367L76.0469 25.1367V35.1367V45.1367H82.9648V35.1367ZM76.0469 35.1367H86.0469V10.1289H76.0469H66.0469V35.1367H76.0469ZM76.0469 10.1289V20.1289L82.9648 20.1289V10.1289V0.128906H76.0469V10.1289ZM82.9648 10.1289H72.9648V15.2422L82.9648 15.2422H92.9648V10.1289H82.9648ZM82.9648 15.2422V25.2422H87.6484V15.2422V5.24219H82.9648V15.2422ZM69.6875 35.5664V45.5664C71.2333 45.5664 72.4748 45.6939 73.416 45.8766C74.3768 46.0631 74.8687 46.2767 75.0194 46.3551C75.1717 46.4344 74.7633 46.2609 74.2839 45.5946C73.7389 44.8372 73.4042 43.8519 73.395 42.8804L83.3945 42.7852L93.3941 42.6899C93.3272 35.6672 88.839 31.0001 84.2502 28.6127C79.9119 26.3556 74.7156 25.5664 69.6875 25.5664V35.5664ZM83.3945 42.7852L73.395 42.6881C73.405 41.6539 73.765 40.6471 74.3092 39.8977C74.7866 39.2402 75.1849 39.0754 75.0194 39.1615C74.8589 39.245 74.3598 39.4606 73.4008 39.6483C72.461 39.8323 71.2239 39.9609 69.6875 39.9609V49.9609V59.9609C74.7409 59.9609 79.9271 59.1531 84.2502 56.9039C88.7729 54.5509 93.3257 49.9186 93.3941 42.8822L83.3945 42.7852ZM69.6875 49.9609V39.9609C68.0959 39.9609 66.8275 39.8303 65.8733 39.6452C64.8987 39.4561 64.4118 39.2414 64.2754 39.1701C64.1364 39.0975 64.5786 39.292 65.0816 40.0042C65.6531 40.8133 65.9899 41.8584 65.98 42.8822L55.9805 42.7852L45.9809 42.6881C45.9123 49.7614 50.4122 54.4915 55.0117 56.8953C59.3533 59.1644 64.584 59.9609 69.6875 59.9609V49.9609ZM55.9805 42.7852L65.98 42.6899C65.9892 43.6498 65.6774 44.6721 65.1063 45.4881C64.6018 46.2089 64.1498 46.4122 64.2754 46.3465C64.402 46.2803 64.8817 46.0676 65.8583 45.8797C66.814 45.6958 68.0866 45.5664 69.6875 45.5664V35.5664V25.5664C64.6094 25.5664 59.3682 26.3445 55.0117 28.6213C50.345 31.0602 45.9137 35.8249 45.9809 42.8804L55.9805 42.7852ZM69.6875 40.7656V30.7656C67.3413 30.7656 64.408 30.8479 61.8432 31.553C60.5285 31.9143 58.3407 32.6872 56.3799 34.5299C54.0596 36.7104 52.8125 39.6806 52.8125 42.7852H62.8125H72.8125C72.8125 43.799 72.6267 44.983 72.1055 46.1975C71.583 47.4153 70.8437 48.383 70.0763 49.1042C68.6727 50.4232 67.3255 50.7878 67.1442 50.8377C66.8595 50.9159 66.8784 50.8759 67.4275 50.8324C67.9312 50.7925 68.6599 50.7656 69.6875 50.7656V40.7656ZM62.8125 42.7852H52.8125C52.8125 46.0873 54.23 48.9636 56.3521 50.9732C58.185 52.709 60.2247 53.5183 61.5496 53.9264C64.1695 54.7335 67.1249 54.8906 69.6875 54.8906V44.8906V34.8906C67.5665 34.8906 67.0844 34.704 67.4377 34.8128C67.6293 34.8719 68.8284 35.2434 70.1041 36.4514C70.7967 37.1073 71.5151 38.016 72.0451 39.2016C72.5816 40.4017 72.8125 41.6354 72.8125 42.7852H62.8125ZM69.6875 44.8906V54.8906C72.2023 54.8906 75.1357 54.7318 77.7513 53.9144C79.0753 53.5007 81.1026 52.6841 82.9223 50.9483C85.0221 48.9453 86.4336 46.0809 86.4336 42.7852H76.4336H66.4336C66.4336 41.6356 66.6643 40.407 67.1957 39.214C67.7205 38.0358 68.4314 37.1311 69.1178 36.4764C70.3843 35.2683 71.579 34.8895 71.7858 34.8248C72.1671 34.7057 71.7274 34.8906 69.6875 34.8906V44.8906ZM76.4336 42.7852H86.4336C86.4336 39.6861 85.1916 36.7291 82.8945 34.5547C80.9465 32.7107 78.7704 31.9297 77.4545 31.5628C74.892 30.8482 71.9805 30.7656 69.6875 30.7656V40.7656V50.7656C70.678 50.7656 71.3771 50.7923 71.8562 50.831C72.3801 50.8735 72.3811 50.9111 72.0826 50.8278C71.8839 50.7724 70.5403 50.3996 69.1455 49.0793C68.3847 48.3591 67.653 47.3955 67.1356 46.1853C66.6194 44.9779 66.4336 43.7991 66.4336 42.7852H76.4336ZM74.6289 13.4805H64.6289V18.8086H74.6289L84.6289 18.8086V13.4805L74.6289 13.4805ZM74.6289 18.8086V8.80859H51.125V18.8086V28.8086H74.6289V18.8086ZM51.125 18.8086H61.125V13.4805H51.125H41.125V18.8086H51.125ZM51.125 13.4805V23.4805H59.418V13.4805V3.48047H51.125V13.4805ZM59.418 13.4805H69.418V10H59.418H49.418V13.4805H59.418ZM59.418 10V20H66.3359V10V0H59.418V10ZM66.3359 10H56.3359V13.4805H66.3359L76.3359 13.4805V10H66.3359ZM66.3359 13.4805V23.4805H74.6289V13.4805V3.48047H66.3359V13.4805ZM62.8555 19.7109V29.7109C64.1279 29.7109 64.4179 30.0512 64.109 29.8264C63.9287 29.6952 63.5778 29.3827 63.2694 28.818C62.9475 28.2284 62.7812 27.5588 62.7812 26.9297H72.7812L82.7812 26.9297C82.7812 21.2045 79.8595 16.5536 75.8783 13.656C72.0567 10.8745 67.3838 9.71094 62.8555 9.71094V19.7109ZM72.7812 26.9297H62.7812C62.7812 26.3533 62.9325 25.689 63.2679 25.0744C63.5895 24.4849 63.962 24.1545 64.1578 24.0138C64.4807 23.7817 64.166 24.1385 62.7814 24.1487L62.8555 34.1484L62.9295 44.1482C67.3457 44.1155 71.9939 43.0112 75.8295 40.2548C79.8799 37.344 82.7812 32.6725 82.7812 26.9297L72.7812 26.9297ZM62.8555 34.1484L62.9285 24.1487C61.4738 24.1381 61.1348 23.7686 61.4545 23.9969C61.6501 24.1367 62.027 24.4687 62.3528 25.064C62.6922 25.6844 62.8438 26.353 62.8438 26.9297H52.8438H42.8438C42.8438 32.6793 45.7524 37.3593 49.8297 40.2716C53.6836 43.0244 58.3504 44.1158 62.7825 44.1482L62.8555 34.1484ZM52.8438 26.9297H62.8438C62.8438 27.5591 62.6773 28.233 62.3512 28.8284C62.0388 29.3989 61.6835 29.7131 61.5033 29.8435C61.1968 30.0652 61.5116 29.7109 62.8555 29.7109V19.7109V9.71094C58.3126 9.71094 53.6216 10.8606 49.7809 13.639C45.7728 16.5384 42.8438 21.1977 42.8438 26.9297H52.8438ZM62.8555 24.6953V14.6953C61.0847 14.6953 58.0388 14.9301 55.1385 16.7633C51.5062 19.0592 49.5898 22.9031 49.5898 26.9297H59.5898H69.5898C69.5898 27.9059 69.3832 29.2353 68.6422 30.6222C67.8908 32.0286 66.8378 33.0287 65.8244 33.6693C64.8724 34.271 64.0433 34.5055 63.6021 34.5998C63.1514 34.6962 62.876 34.6953 62.8555 34.6953V24.6953ZM59.5898 26.9297H49.5898C49.5898 31.0456 51.6011 34.8562 55.1959 37.0944C58.0687 38.8832 61.0776 39.1211 62.8555 39.1211V29.1211V19.1211C62.877 19.1211 63.1457 19.1204 63.5864 19.2139C64.016 19.305 64.8284 19.5321 65.767 20.1165C66.7637 20.7371 67.8285 21.7209 68.5995 23.1332C69.3646 24.5348 69.5898 25.8987 69.5898 26.9297H59.5898ZM62.8555 29.1211V39.1211C64.6403 39.1211 67.5874 38.8855 70.4208 37.2008C73.9639 35.0941 76.25 31.3272 76.25 26.9297L66.25 26.9297H56.25C56.25 25.7899 56.5184 24.3537 57.3431 22.925C58.1616 21.5072 59.2529 20.5728 60.1993 20.0101C61.095 19.4775 61.8517 19.2774 62.2308 19.1997C62.6249 19.119 62.8543 19.1211 62.8555 19.1211V29.1211ZM66.25 26.9297L76.25 26.9297C76.25 22.625 74.0674 18.8218 70.4777 16.655C67.6163 14.9279 64.6332 14.6953 62.8555 14.6953V24.6953V34.6953C62.8554 34.6953 62.6194 34.6976 62.2155 34.6142C61.8254 34.5337 61.0521 34.3267 60.1424 33.7776C59.1779 33.1954 58.0966 32.244 57.2972 30.8291C56.497 29.4128 56.25 28.0115 56.25 26.9297H66.25ZM113.688 26.9727L121.988 32.5503C123.766 29.9043 124.176 26.5692 123.091 23.5714C122.007 20.5736 119.558 18.2724 116.499 17.3761L113.688 26.9727ZM110.078 32.3438L106.946 41.8405C111.204 43.2451 115.877 41.6432 118.378 37.9214L110.078 32.3438ZM101.699 25.3828L110.619 20.8625C108.891 17.4516 105.368 15.325 101.545 15.384C97.7215 15.443 94.2665 17.6772 92.644 21.1398L101.699 25.3828ZM92.2461 33.5898L83.9156 39.1218C86.3882 42.8452 91.0314 44.4757 95.289 43.1156L92.2461 33.5898ZM88.5938 28.0898L85.7203 18.5116C82.687 19.4216 80.264 21.7145 79.1883 24.6931C78.1126 27.6716 78.5114 30.9837 80.2632 33.6218L88.5938 28.0898ZM98.0898 15.3711L108.089 15.4544C108.09 15.4266 108.09 15.3989 108.09 15.3711H98.0898ZM98.0898 12.1055V2.10547C92.567 2.10547 88.0898 6.58262 88.0898 12.1055H98.0898ZM105.051 12.1055L115.051 12.1055C115.051 6.58262 110.574 2.10547 105.051 2.10547V12.1055ZM123.012 10.1289H133.012C133.012 4.60606 128.535 0.128906 123.012 0.128906V10.1289ZM123.012 33.2891V43.2891C128.535 43.2891 133.012 38.8119 133.012 33.2891H123.012ZM116.137 33.2891H106.137C106.137 38.8119 110.614 43.2891 116.137 43.2891V33.2891ZM116.137 22.2461H126.137C126.137 16.7232 121.66 12.2461 116.137 12.2461V22.2461ZM109.605 22.2461H99.6055C99.6055 27.7689 104.083 32.2461 109.605 32.2461V22.2461ZM109.605 16.6602V6.66016C104.083 6.66016 99.6055 11.1373 99.6055 16.6602H109.605ZM116.137 16.6602V26.6602C121.66 26.6602 126.137 22.183 126.137 16.6602H116.137ZM116.137 10.1289V0.128906C110.614 0.128906 106.137 4.60606 106.137 10.1289L116.137 10.1289ZM102.215 42.0977L112.212 42.3415C112.216 42.1827 112.216 42.0239 112.212 41.8652L102.215 42.0977ZM105.051 15.0273H95.0508C95.0508 18.7166 95.7193 23.2629 98.3655 27.486C101.147 31.9248 105.473 34.9863 110.876 36.5692L113.688 26.9727L116.499 17.3761C115.757 17.1587 115.434 16.9473 115.346 16.8842C115.275 16.8329 115.293 16.8339 115.313 16.8665C115.328 16.8895 115.051 16.4514 115.051 15.0273H105.051ZM113.688 26.9727L105.387 21.395L101.778 26.7661L110.078 32.3438L118.378 37.9214L121.988 32.5503L113.688 26.9727ZM110.078 32.3438L113.211 22.847C112.257 22.5325 111.731 22.1843 111.431 21.9294C111.137 21.6791 110.87 21.3574 110.619 20.8625L101.699 25.3828L92.7792 29.9031C95.622 35.5128 100.408 39.684 106.946 41.8405L110.078 32.3438ZM101.699 25.3828L92.644 21.1398C92.0119 22.4888 91.0778 23.4652 89.2031 24.0641L92.2461 33.5898L95.289 43.1156C102.696 40.7496 107.863 35.7964 110.754 29.6258L101.699 25.3828ZM92.2461 33.5898L100.577 28.0579L96.9243 22.5579L88.5938 28.0898L80.2632 33.6218L83.9156 39.1218L92.2461 33.5898ZM88.5938 28.0898L91.4672 37.6681C97.1609 35.96 101.598 32.7218 104.473 28.2549C107.237 23.9611 108.057 19.3179 108.089 15.4544L98.0898 15.3711L88.0902 15.2878C88.0794 16.5805 87.8036 17.201 87.6564 17.4297C87.5911 17.5311 87.4915 17.656 87.279 17.8102C87.056 17.9722 86.5905 18.2505 85.7203 18.5116L88.5938 28.0898ZM98.0898 15.3711H108.09V12.1055H98.0898H88.0898V15.3711H98.0898ZM98.0898 12.1055V22.1055H105.051V12.1055V2.10547H98.0898V12.1055ZM105.051 12.1055H95.0508V15.0273H105.051H115.051V12.1055L105.051 12.1055ZM123.012 10.1289H113.012V33.2891H123.012H133.012V10.1289H123.012ZM123.012 33.2891V23.2891H116.137V33.2891V43.2891H123.012V33.2891ZM116.137 33.2891H126.137V22.2461H116.137H106.137V33.2891H116.137ZM116.137 22.2461V12.2461H109.605V22.2461V32.2461H116.137V22.2461ZM109.605 22.2461H119.605V16.6602H109.605H99.6055V22.2461H109.605ZM109.605 16.6602V26.6602H116.137V16.6602V6.66016H109.605V16.6602ZM116.137 16.6602H126.137V10.1289H116.137L106.137 10.1289V16.6602H116.137ZM116.137 10.1289V20.1289H123.012V10.1289V0.128906L116.137 0.128906V10.1289ZM109.176 34.2344V44.2344C110.79 44.2344 112.052 44.3725 112.983 44.5637C113.932 44.7585 114.377 44.9752 114.479 45.0324C114.565 45.0803 114.173 44.8801 113.755 44.2385C113.296 43.5334 113.098 42.7371 113.098 42.0977H123.098H133.098C133.098 35.3104 129.162 30.3397 124.272 27.5936C119.801 25.083 114.4 24.2344 109.176 24.2344V34.2344ZM123.098 42.0977H113.098C113.098 41.4856 113.288 40.6951 113.75 39.9829C114.172 39.3333 114.572 39.127 114.494 39.1707C114.398 39.2248 113.955 39.44 113.002 39.6338C112.066 39.8241 110.799 39.9609 109.176 39.9609V49.9609V59.9609C114.377 59.9609 119.779 59.1303 124.257 56.6262C129.181 53.8722 133.098 48.8873 133.098 42.0977H123.098ZM109.176 49.9609V39.9609C107.58 39.9609 106.333 39.825 105.413 39.6366C104.476 39.4447 104.042 39.232 103.949 39.1801C103.875 39.1383 104.273 39.3451 104.691 39.991C105.15 40.6992 105.34 41.486 105.34 42.0977H95.3398H85.3398C85.3398 48.8797 89.2481 53.8611 94.1533 56.6168C98.6198 59.1261 104.004 59.9609 109.176 59.9609V49.9609ZM95.3398 42.0977H105.34C105.34 42.7367 105.141 43.5294 104.686 44.2304C104.272 44.8683 103.883 45.069 103.964 45.023C104.062 44.9679 104.499 44.7538 105.432 44.5609C106.348 44.3715 107.589 44.2344 109.176 44.2344V34.2344V24.2344C103.981 24.2344 98.5983 25.0874 94.1384 27.603C89.2669 30.3508 85.3398 35.318 85.3398 42.0977H95.3398ZM109.176 39.5195V29.5195C106.642 29.5195 103.416 29.6696 100.535 30.7013C98.9991 31.2514 96.8288 32.3047 95.026 34.4087C93.0239 36.7454 92.1537 39.5864 92.2175 42.3302L102.215 42.0977L112.212 41.8652C112.254 43.6851 111.653 45.7419 110.213 47.422C108.973 48.8693 107.66 49.3937 107.278 49.5302C106.861 49.6798 106.751 49.6504 107.191 49.6016C107.587 49.5575 108.226 49.5195 109.176 49.5195V39.5195ZM102.215 42.0977L92.2178 41.8538C92.1482 44.7064 93.102 47.5544 95.1066 49.8365C96.8985 51.8764 99.0314 52.9018 100.535 53.4403C103.391 54.463 106.587 54.6328 109.176 54.6328V44.6328V34.6328C108.243 34.6328 107.612 34.5934 107.221 34.5488C106.789 34.4995 106.882 34.4695 107.278 34.6114C107.627 34.7364 108.904 35.2381 110.133 36.6375C111.575 38.2791 112.26 40.3697 112.212 42.3415L102.215 42.0977ZM109.176 44.6328V54.6328C111.793 54.6328 114.98 54.4606 117.826 53.4598C119.321 52.9344 121.424 51.9424 123.217 49.9753C125.223 47.7759 126.266 44.9805 126.266 42.0977H116.266H106.266C106.266 40.0956 107.018 38.0576 108.44 36.4987C109.649 35.1721 110.874 34.7038 111.192 34.592C111.559 34.4633 111.624 34.4968 111.177 34.5473C110.768 34.5933 110.121 34.6328 109.176 34.6328V44.6328ZM116.266 42.0977H126.266C126.266 39.3207 125.309 36.5267 123.3 34.2689C121.493 32.2374 119.352 31.2182 117.826 30.6819C114.955 29.6722 111.739 29.5195 109.176 29.5195V39.5195V49.5195C110.138 49.5195 110.792 49.5576 111.206 49.603C111.661 49.6529 111.58 49.6858 111.192 49.5496C110.843 49.4268 109.58 48.9366 108.357 47.5618C106.933 45.9606 106.266 43.9508 106.266 42.0977H116.266ZM160.781 10.1289H170.781C170.781 4.60606 166.304 0.128906 160.781 0.128906V10.1289ZM160.781 50.0039V60.0039C166.304 60.0039 170.781 55.5268 170.781 50.0039H160.781ZM153.82 50.0039H143.82C143.82 55.5268 148.297 60.0039 153.82 60.0039V50.0039ZM153.82 10.1289V0.128906C148.297 0.128906 143.82 4.60606 143.82 10.1289H153.82ZM138.953 12.793L138.884 22.7927C138.93 22.7931 138.977 22.793 139.024 22.7927L138.953 12.793ZM138.953 19.0234L138.784 29.022C138.901 29.024 139.018 29.0239 139.135 29.0218L138.953 19.0234ZM160.781 10.1289H150.781V50.0039H160.781H170.781V10.1289H160.781ZM160.781 50.0039V40.0039H153.82V50.0039V60.0039H160.781V50.0039ZM153.82 50.0039H163.82V10.1289H153.82H143.82V50.0039H153.82ZM153.82 10.1289V20.1289H160.781V10.1289V0.128906H153.82V10.1289ZM138.953 12.793L139.024 22.7927C138.956 22.7932 138.787 22.7695 138.611 22.6797C138.45 22.597 138.459 22.5487 138.579 22.7071C138.85 23.0616 139.566 24.3623 139.566 27.1016H149.566H159.566C159.566 21.0752 158.006 15.2001 154.484 10.581C150.837 5.7971 145.304 2.74768 138.882 2.79322L138.953 12.793ZM149.566 27.1016H139.566C139.566 29.9317 138.837 31.2538 138.567 31.6093C138.446 31.768 138.435 31.7229 138.589 31.6436C138.755 31.5582 138.908 31.5391 138.953 31.5391V41.5391V51.5391C145.327 51.5391 150.845 48.5123 154.497 43.7023C158.019 39.0626 159.566 33.166 159.566 27.1016H149.566ZM138.953 41.5391V31.5391C138.932 31.5391 139.036 31.5424 139.174 31.6119C139.302 31.6768 139.283 31.7104 139.164 31.5554C138.898 31.2105 138.168 29.9128 138.168 27.1016H128.168H118.168C118.168 33.1849 119.736 39.1059 123.317 43.7562C127.029 48.5787 132.591 51.5391 138.953 51.5391V41.5391ZM128.168 27.1016H138.168C138.168 24.3815 138.885 23.1052 139.151 22.7609C139.271 22.6063 139.287 22.6428 139.152 22.7111C139.091 22.7416 139.025 22.7652 138.963 22.7796C138.901 22.7938 138.871 22.7926 138.884 22.7927L138.953 12.793L139.023 2.79321C132.613 2.7487 127.038 5.73041 123.329 10.5271C119.75 15.1566 118.168 21.056 118.168 27.1016H128.168ZM138.953 19.0234L139.123 9.02487C133.491 8.92942 129.293 12.2035 127.119 16.2725C125.278 19.7189 124.828 23.6674 124.828 27.1016H134.828H144.828C144.828 26.1848 144.896 25.6186 144.949 25.3344C145.006 25.0282 145.011 25.2255 144.761 25.6953C144.494 26.1938 143.868 27.1193 142.654 27.9011C141.376 28.7244 139.979 29.0423 138.784 29.022L138.953 19.0234ZM134.828 27.1016H124.828C124.828 30.556 125.272 34.5233 127.127 37.983C129.342 42.1125 133.517 45.2227 138.953 45.2227V35.2227V25.2227C140.063 25.2227 141.399 25.5254 142.646 26.3271C143.843 27.0963 144.474 28.012 144.753 28.5307C145.012 29.0135 145.007 29.2217 144.95 28.9138C144.897 28.6266 144.828 28.0483 144.828 27.1016H134.828ZM138.953 35.2227V45.2227C144.552 45.2227 148.603 41.8583 150.68 37.9275C152.479 34.5216 152.949 30.6095 152.949 27.1016H142.949H132.949C132.949 28.0329 132.879 28.6095 132.825 28.9013C132.767 29.2131 132.758 29.0351 132.995 28.5862C133.244 28.1154 133.84 27.214 135.012 26.4294C136.252 25.5992 137.661 25.2227 138.953 25.2227V35.2227ZM142.949 27.1016H152.949C152.949 23.6142 152.472 19.7203 150.687 16.3279C148.657 12.4682 144.578 8.91951 138.771 9.02509L138.953 19.0234L139.135 29.0218C137.749 29.047 136.274 28.6506 135.004 27.7986C133.815 27.0012 133.224 26.0903 132.987 25.6399C132.758 25.2039 132.769 25.0367 132.827 25.3469C132.881 25.6359 132.949 26.2004 132.949 27.1016H142.949ZM206.543 10.1289H216.543C216.543 4.60606 212.066 0.128906 206.543 0.128906V10.1289ZM206.543 24.5234L196.543 24.5234C196.543 30.0463 201.02 34.5234 206.543 34.5234V24.5234ZM211.914 24.5234H221.914C221.914 19.0006 217.437 14.5234 211.914 14.5234V24.5234ZM211.914 30.1953V40.1953C217.437 40.1953 221.914 35.7182 221.914 30.1953H211.914ZM206.543 30.1953V20.1953C201.02 20.1953 196.543 24.6725 196.543 30.1953H206.543ZM206.543 49.875V59.875C212.066 59.875 216.543 55.3978 216.543 49.875H206.543ZM199.625 49.875H189.625C189.625 55.3978 194.102 59.875 199.625 59.875V49.875ZM199.625 10.1289V0.128906C194.102 0.128906 189.625 4.60606 189.625 10.1289H199.625ZM182.738 13.1797H192.738C192.738 7.65684 188.261 3.17969 182.738 3.17969V13.1797ZM182.738 22.2891H172.738C172.738 27.8119 177.215 32.2891 182.738 32.2891V22.2891ZM188.84 22.2891V32.2891C194.363 32.2891 198.84 27.8119 198.84 22.2891H188.84ZM188.84 13.1797V3.17969C183.317 3.17969 178.84 7.65684 178.84 13.1797H188.84ZM195.715 13.1797L205.715 13.1797C205.715 7.65684 201.238 3.17969 195.715 3.17969V13.1797ZM195.715 40.8945V50.8945C201.238 50.8945 205.715 46.4174 205.715 40.8945H195.715ZM175.863 40.8945H165.863C165.863 46.4174 170.34 50.8945 175.863 50.8945V40.8945ZM175.863 13.1797V3.17969C170.34 3.17969 165.863 7.65684 165.863 13.1797H175.863ZM182.738 35.3516H172.738C172.738 40.8744 177.215 45.3516 182.738 45.3516V35.3516ZM188.84 35.3516V45.3516C194.363 45.3516 198.84 40.8744 198.84 35.3516H188.84ZM188.84 27.6172H198.84C198.84 22.0943 194.363 17.6172 188.84 17.6172V27.6172ZM182.738 27.6172V17.6172C177.215 17.6172 172.738 22.0943 172.738 27.6172H182.738ZM206.543 10.1289H196.543V24.5234L206.543 24.5234H216.543V10.1289H206.543ZM206.543 24.5234V34.5234H211.914V24.5234V14.5234H206.543V24.5234ZM211.914 24.5234L201.914 24.5234V30.1953H211.914H221.914V24.5234H211.914ZM211.914 30.1953V20.1953H206.543V30.1953V40.1953H211.914V30.1953ZM206.543 30.1953H196.543V49.875H206.543H216.543V30.1953H206.543ZM206.543 49.875V39.875H199.625V49.875V59.875H206.543V49.875ZM199.625 49.875H209.625V10.1289H199.625H189.625V49.875H199.625ZM199.625 10.1289V20.1289L206.543 20.1289V10.1289V0.128906H199.625V10.1289ZM182.738 13.1797H172.738V22.2891H182.738H192.738V13.1797H182.738ZM182.738 22.2891V32.2891H188.84V22.2891V12.2891H182.738V22.2891ZM188.84 22.2891H198.84V13.1797H188.84H178.84V22.2891H188.84ZM188.84 13.1797V23.1797H195.715V13.1797V3.17969H188.84V13.1797ZM195.715 13.1797H185.715V40.8945H195.715H205.715V13.1797L195.715 13.1797ZM195.715 40.8945V30.8945H175.863V40.8945V50.8945H195.715V40.8945ZM175.863 40.8945H185.863V13.1797H175.863H165.863V40.8945H175.863ZM175.863 13.1797V23.1797H182.738V13.1797V3.17969H175.863V13.1797ZM182.738 35.3516V45.3516H188.84V35.3516V25.3516H182.738V35.3516ZM188.84 35.3516H198.84V27.6172H188.84H178.84V35.3516H188.84ZM188.84 27.6172V17.6172H182.738V27.6172V37.6172H188.84V27.6172ZM182.738 27.6172H172.738V35.3516H182.738H192.738V27.6172H182.738ZM247.449 10.2148H257.449C257.449 4.692 252.972 0.214844 247.449 0.214844V10.2148ZM247.449 49.832V59.832C252.972 59.832 257.449 55.3549 257.449 49.832H247.449ZM240.488 49.832H230.488C230.488 55.3549 234.965 59.832 240.488 59.832V49.832ZM240.488 10.2148V0.214844C234.965 0.214844 230.488 4.692 230.488 10.2148L240.488 10.2148ZM212.645 28.6055L212.547 18.6059C209.668 18.6339 206.939 19.9022 205.062 22.086C203.184 24.2699 202.339 27.1572 202.743 30.0088L212.645 28.6055ZM217.07 28.5625L217.167 38.562C221.675 38.5183 225.596 35.4644 226.742 31.105L217.07 28.5625ZM218.488 18.293L228.484 18.587C228.563 15.885 227.546 13.2659 225.663 11.3266C223.779 9.38731 221.191 8.29297 218.488 8.29297V18.293ZM214.449 18.293H204.449C204.449 23.8158 208.926 28.293 214.449 28.293V18.293ZM214.449 12.75V2.75C208.926 2.75 204.449 7.22715 204.449 12.75H214.449ZM225.234 12.75H235.234C235.234 7.22715 230.757 2.75 225.234 2.75V12.75ZM223.988 28.3906L214.305 25.8944C213.528 28.9095 214.199 32.1145 216.121 34.564C218.043 37.0135 220.997 38.4278 224.11 38.3899L223.988 28.3906ZM229.316 28.1758L229.918 38.1577C234.252 37.8966 237.923 34.868 239.002 30.662L229.316 28.1758ZM230.648 18.293L240.644 18.5982C240.726 15.8943 239.71 13.2724 237.827 11.3306C235.943 9.38888 233.354 8.29297 230.648 8.29297V18.293ZM226.781 18.293H216.781C216.781 23.8158 221.258 28.293 226.781 28.293V18.293ZM226.781 12.75V2.75C221.258 2.75 216.781 7.22715 216.781 12.75H226.781ZM237.395 12.75H247.395C247.395 7.22715 242.917 2.75 237.395 2.75V12.75ZM237.395 16.1875L247.394 16.3208C247.394 16.2764 247.395 16.2319 247.395 16.1875H237.395ZM236.32 27.6172L226.574 25.3788C225.851 28.5269 226.693 31.8304 228.835 34.2483C230.977 36.6661 234.155 37.9004 237.367 37.5622L236.32 27.6172ZM238.77 27.3594L248.726 26.4312C248.478 23.7699 247.175 21.3187 245.108 19.6246C243.04 17.9305 240.381 17.1345 237.723 17.4143L238.77 27.3594ZM239.242 32.4297L240.798 42.3079C246.011 41.4866 249.689 36.756 249.199 31.5015L239.242 32.4297ZM229.746 33.5039L229 23.5318C223.781 23.9223 219.746 28.2705 219.746 33.5039H229.746ZM229.746 48.7148V58.7148C235.269 58.7148 239.746 54.2377 239.746 48.7148H229.746ZM222.785 48.7148H212.785C212.785 54.2377 217.262 58.7148 222.785 58.7148V48.7148ZM222.785 33.8477H232.785C232.785 31.1162 231.668 28.5036 229.693 26.6168C227.718 24.73 225.057 23.7333 222.328 23.8581L222.785 33.8477ZM213.418 34.0625L203.517 35.4658C204.224 40.453 208.53 44.136 213.566 44.0614L213.418 34.0625ZM247.449 10.2148H237.449V49.832H247.449H257.449V10.2148H247.449ZM247.449 49.832V39.832H240.488V49.832V59.832H247.449V49.832ZM240.488 49.832H250.488V10.2148H240.488L230.488 10.2148V49.832H240.488ZM240.488 10.2148V20.2148H247.449V10.2148V0.214844L240.488 0.214844V10.2148ZM212.645 28.6055L212.742 38.605L217.167 38.562L217.07 28.5625L216.973 18.563L212.547 18.6059L212.645 28.6055ZM217.07 28.5625L226.742 31.105C228.095 25.9564 228.385 21.9631 228.484 18.587L218.488 18.293L208.493 17.999C208.42 20.4666 208.237 22.8327 207.399 26.02L217.07 28.5625ZM218.488 18.293V8.29297H214.449V18.293V28.293H218.488V18.293ZM214.449 18.293H224.449V12.75H214.449H204.449V18.293H214.449ZM214.449 12.75V22.75H225.234V12.75V2.75L214.449 2.75V12.75ZM225.234 12.75H215.234V16.1875H225.234H235.234V12.75H225.234ZM225.234 16.1875H215.234C215.234 19.5501 215.208 22.3915 214.305 25.8944L223.988 28.3906L233.672 30.8868C235.261 24.7218 235.234 19.657 235.234 16.1875H225.234ZM223.988 28.3906L224.11 38.3899C226.103 38.3656 228.066 38.2692 229.918 38.1577L229.316 28.1758L228.715 18.1939C227 18.2972 225.397 18.3727 223.866 18.3914L223.988 28.3906ZM229.316 28.1758L239.002 30.662C240.282 25.6751 240.545 21.8269 240.644 18.5982L230.648 18.293L220.653 17.9878C220.58 20.388 220.413 22.6413 219.63 25.6895L229.316 28.1758ZM230.648 18.293V8.29297H226.781V18.293V28.293H230.648V18.293ZM226.781 18.293H236.781V12.75H226.781H216.781V18.293H226.781ZM226.781 12.75V22.75H237.395V12.75V2.75H226.781V12.75ZM237.395 12.75H227.395V16.1875H237.395H247.395V12.75H237.395ZM237.395 16.1875L227.395 16.0542C227.351 19.3707 227.334 22.0704 226.574 25.3788L236.32 27.6172L246.067 29.8556C247.369 24.1835 247.352 19.4496 247.394 16.3208L237.395 16.1875ZM236.32 27.6172L237.367 37.5622L239.816 37.3044L238.77 27.3594L237.723 17.4143L235.273 17.6721L236.32 27.6172ZM238.77 27.3594L228.813 28.2876L229.285 33.3579L239.242 32.4297L249.199 31.5015L248.726 26.4312L238.77 27.3594ZM239.242 32.4297L237.686 22.5515C234.871 22.995 231.947 23.3113 229 23.5318L229.746 33.5039L230.492 43.476C233.862 43.2239 237.34 42.8527 240.798 42.3079L239.242 32.4297ZM229.746 33.5039H219.746V48.7148H229.746H239.746V33.5039H229.746ZM229.746 48.7148V38.7148H222.785V48.7148V58.7148H229.746V48.7148ZM222.785 48.7148H232.785V33.8477H222.785H212.785V48.7148H222.785ZM222.785 33.8477L222.328 23.8581C219.24 23.9994 216.276 24.0191 213.27 24.0636L213.418 34.0625L213.566 44.0614C216.361 44.02 219.756 43.9967 223.242 43.8372L222.785 33.8477ZM213.418 34.0625L223.319 32.6592L222.546 27.2022L212.645 28.6055L202.743 30.0088L203.517 35.4658L213.418 34.0625ZM283.242 20.2266H293.242C293.242 14.7037 288.765 10.2266 283.242 10.2266V20.2266ZM283.242 25.5547V35.5547C288.765 35.5547 293.242 31.0775 293.242 25.5547H283.242ZM255.141 25.5547H245.141C245.141 31.0775 249.618 35.5547 255.141 35.5547V25.5547ZM255.141 11.5469V1.54687C249.618 1.54687 245.141 6.02403 245.141 11.5469H255.141ZM262.016 11.5469H272.016C272.016 6.02403 267.538 1.54687 262.016 1.54687V11.5469ZM262.016 20.2266H252.016C252.016 25.7494 256.493 30.2266 262.016 30.2266V20.2266ZM287.152 29.0781H297.152C297.152 23.5553 292.675 19.0781 287.152 19.0781V29.0781ZM287.152 34.4062V44.4062C292.675 44.4062 297.152 39.9291 297.152 34.4062H287.152ZM250.887 34.4062H240.887C240.887 39.9291 245.364 44.4062 250.887 44.4062V34.4062ZM250.887 29.0781V19.0781C245.364 19.0781 240.887 23.5553 240.887 29.0781H250.887ZM283.5 43.6016H293.5C293.5 38.0787 289.023 33.6016 283.5 33.6016V43.6016ZM283.5 49.1016V59.1016C289.023 59.1016 293.5 54.6244 293.5 49.1016H283.5ZM254.668 49.1016H244.668C244.668 54.6244 249.145 59.1016 254.668 59.1016V49.1016ZM254.668 37.1562V27.1562C249.145 27.1562 244.668 31.6334 244.668 37.1562H254.668ZM261.629 37.1562H271.629C271.629 31.6334 267.152 27.1562 261.629 27.1562V37.1562ZM261.629 43.6016H251.629C251.629 49.1244 256.106 53.6016 261.629 53.6016V43.6016ZM283.242 20.2266H273.242V25.5547H283.242H293.242V20.2266H283.242ZM283.242 25.5547V15.5547H255.141V25.5547V35.5547H283.242V25.5547ZM255.141 25.5547H265.141V11.5469H255.141H245.141V25.5547H255.141ZM255.141 11.5469V21.5469H262.016V11.5469V1.54687H255.141V11.5469ZM262.016 11.5469H252.016V20.2266H262.016H272.016V11.5469H262.016ZM262.016 20.2266V30.2266H283.242V20.2266V10.2266H262.016V20.2266ZM287.152 29.0781H277.152V34.4062H287.152H297.152V29.0781H287.152ZM287.152 34.4062V24.4062H250.887V34.4062V44.4062H287.152V34.4062ZM250.887 34.4062H260.887V29.0781H250.887H240.887V34.4062H250.887ZM250.887 29.0781V39.0781H287.152V29.0781V19.0781H250.887V29.0781ZM283.5 43.6016H273.5V49.1016H283.5H293.5V43.6016H283.5ZM283.5 49.1016V39.1016H254.668V49.1016V59.1016H283.5V49.1016ZM254.668 49.1016H264.668V37.1562H254.668H244.668V49.1016H254.668ZM254.668 37.1562V47.1562H261.629V37.1562V27.1562H254.668V37.1562ZM261.629 37.1562H251.629V43.6016H261.629H271.629V37.1562H261.629ZM261.629 43.6016V53.6016H283.5V43.6016V33.6016H261.629V43.6016Z" fill="white" mask="url(#path-1-outside-1_6526_5673)"/>
</g>
<defs>
<filter id="filter0_d_6526_5673" x="0" y="0" width="301.152" height="68.0039" filterUnits="userSpaceOnUse" color-interpolation-filters="sRGB">
<feFlood flood-opacity="0" result="BackgroundImageFix"/>
<feColorMatrix in="SourceAlpha" type="matrix" values="0 0 0 0 0 0 0 0 0 0 0 0 0 0 0 0 0 0 127 0" result="hardAlpha"/>
<feOffset dy="4"/>
<feGaussianBlur stdDeviation="2"/>
<feComposite in2="hardAlpha" operator="out"/>
<feColorMatrix type="matrix" values="0 0 0 0 0 0 0 0 0 0 0 0 0 0 0 0 0 0 0.07 0"/>
<feBlend mode="normal" in2="BackgroundImageFix" result="effect1_dropShadow_6526_5673"/>
<feBlend mode="normal" in="SourceGraphic" in2="effect1_dropShadow_6526_5673" result="shape"/>
</filter>
</defs>
</svg>
