<svg width="301" height="68" viewBox="0 0 301 68" fill="none" xmlns="http://www.w3.org/2000/svg">
<g filter="url(#filter0_d_6524_1834)">
<mask id="path-1-outside-1_6524_1834" maskUnits="userSpaceOnUse" x="3.59375" y="-0.507813" width="293" height="61" fill="black">
<rect fill="white" x="3.59375" y="-0.507813" width="293" height="61"/>
<path d="M46.3125 10.0859V39.3047H39.4375V30.2383H33.4648V33.375H14V12.6641H20.918V18.1211H26.6758V12.6641H33.4648V16.2734H39.4375V10.0859L46.3125 10.0859ZM47.1289 43.6875V49.1875H19.3711V36.3828H26.375V43.6875H47.1289ZM20.918 28.0469H26.6758V23.3203H20.918V28.0469ZM33.4648 24.7812H39.4375V21.7734H33.4648V24.7812ZM72.3086 12.75C72.3086 16.875 75.4883 22.2461 85.8008 23.4922L83.1367 28.9922C75.9395 28.0469 71.2129 25.0391 68.6562 21.0859C66.0781 25.0176 61.416 28.0469 54.3047 28.9922L51.6406 23.4922C61.8672 22.2461 65.0469 16.7891 65.0469 12.75V11.0312H72.3086V12.75ZM86.7891 31.1406V36.7266H71.9219V49.7461H65.0898V36.7266H50.5234V31.1406H86.7891ZM124.816 27.4023V32.4297H88.5508V27.4023H124.816ZM120.605 33.6328V43.6445H99.3789V44.9336H121.68V49.4883H92.5469V39.3906H113.773V38.2734H92.5469V33.6328H120.605ZM120.605 10.4727V20.4844H99.7656V21.7734H121.293V26.2852H92.9336V16.2305H113.73V15.0273H92.8906V10.4727L120.605 10.4727ZM169.461 13.0937V16.7461C169.461 21.7734 169.461 27.4453 167.785 36.168L160.824 35.5234C162.307 28.4121 162.479 22.998 162.5 18.5078H139.812V13.0937H169.461ZM172.426 39.8203V45.3633L136.16 45.3633V39.8203L148.363 39.8203V26.543H155.195V39.8203H172.426ZM208.004 10V49.875H201.129V34.4062H195.328V28.8203H201.129V23.5781H195.328V18.0781H201.129V10H208.004ZM193.523 13.1797V29.1641H182.395V35.6094C186.648 35.5449 190.559 35.3086 194.941 34.707L195.457 40.293C189.742 41.1953 184.715 41.2383 178.785 41.2383H175.52V23.8789H186.777V18.5508H175.434V13.1797H193.523ZM243.926 10V25.082H249.297V30.7109H243.926V49.7461H237.094V10H243.926ZM235.16 15.6719V21.1289H212V15.6719H220.207V10.7305H227.082V15.6719H235.16ZM223.645 22.6758C229.531 22.6758 234.043 26.7148 234.043 32.3437C234.043 38.0156 229.531 42.0547 223.645 42.0547C217.629 42.0547 213.203 38.0156 213.203 32.3437C213.203 26.7148 217.629 22.6758 223.645 22.6758ZM223.645 28.2187C221.41 28.2187 219.777 29.6797 219.82 32.3437C219.777 35.1367 221.41 36.4687 223.645 36.4687C225.836 36.4687 227.426 35.1367 227.426 32.3437C227.426 29.6797 225.836 28.2187 223.645 28.2187ZM282.598 20.0977V25.4258H254.496V11.418H261.371V20.0977H282.598ZM286.508 28.9492V34.2773H250.242V28.9492H286.508ZM282.855 43.4727V48.9727H254.023V37.0273H260.984V43.4727H282.855Z"/>
</mask>
<path d="M46.3125 10.0859V39.3047H39.4375V30.2383H33.4648V33.375H14V12.6641H20.918V18.1211H26.6758V12.6641H33.4648V16.2734H39.4375V10.0859L46.3125 10.0859ZM47.1289 43.6875V49.1875H19.3711V36.3828H26.375V43.6875H47.1289ZM20.918 28.0469H26.6758V23.3203H20.918V28.0469ZM33.4648 24.7812H39.4375V21.7734H33.4648V24.7812ZM72.3086 12.75C72.3086 16.875 75.4883 22.2461 85.8008 23.4922L83.1367 28.9922C75.9395 28.0469 71.2129 25.0391 68.6562 21.0859C66.0781 25.0176 61.416 28.0469 54.3047 28.9922L51.6406 23.4922C61.8672 22.2461 65.0469 16.7891 65.0469 12.75V11.0312H72.3086V12.75ZM86.7891 31.1406V36.7266H71.9219V49.7461H65.0898V36.7266H50.5234V31.1406H86.7891ZM124.816 27.4023V32.4297H88.5508V27.4023H124.816ZM120.605 33.6328V43.6445H99.3789V44.9336H121.68V49.4883H92.5469V39.3906H113.773V38.2734H92.5469V33.6328H120.605ZM120.605 10.4727V20.4844H99.7656V21.7734H121.293V26.2852H92.9336V16.2305H113.73V15.0273H92.8906V10.4727L120.605 10.4727ZM169.461 13.0937V16.7461C169.461 21.7734 169.461 27.4453 167.785 36.168L160.824 35.5234C162.307 28.4121 162.479 22.998 162.5 18.5078H139.812V13.0937H169.461ZM172.426 39.8203V45.3633L136.16 45.3633V39.8203L148.363 39.8203V26.543H155.195V39.8203H172.426ZM208.004 10V49.875H201.129V34.4062H195.328V28.8203H201.129V23.5781H195.328V18.0781H201.129V10H208.004ZM193.523 13.1797V29.1641H182.395V35.6094C186.648 35.5449 190.559 35.3086 194.941 34.707L195.457 40.293C189.742 41.1953 184.715 41.2383 178.785 41.2383H175.52V23.8789H186.777V18.5508H175.434V13.1797H193.523ZM243.926 10V25.082H249.297V30.7109H243.926V49.7461H237.094V10H243.926ZM235.16 15.6719V21.1289H212V15.6719H220.207V10.7305H227.082V15.6719H235.16ZM223.645 22.6758C229.531 22.6758 234.043 26.7148 234.043 32.3437C234.043 38.0156 229.531 42.0547 223.645 42.0547C217.629 42.0547 213.203 38.0156 213.203 32.3437C213.203 26.7148 217.629 22.6758 223.645 22.6758ZM223.645 28.2187C221.41 28.2187 219.777 29.6797 219.82 32.3437C219.777 35.1367 221.41 36.4687 223.645 36.4687C225.836 36.4687 227.426 35.1367 227.426 32.3437C227.426 29.6797 225.836 28.2187 223.645 28.2187ZM282.598 20.0977V25.4258H254.496V11.418H261.371V20.0977H282.598ZM286.508 28.9492V34.2773H250.242V28.9492H286.508ZM282.855 43.4727V48.9727H254.023V37.0273H260.984V43.4727H282.855Z" fill="#11DCA9"/>
<path d="M46.3125 10.0859H56.3125C56.3125 4.56309 51.8353 0.0859375 46.3125 0.0859375V10.0859ZM46.3125 39.3047V49.3047C51.8353 49.3047 56.3125 44.8275 56.3125 39.3047H46.3125ZM39.4375 39.3047H29.4375C29.4375 44.8275 33.9147 49.3047 39.4375 49.3047V39.3047ZM39.4375 30.2383H49.4375C49.4375 24.7154 44.9603 20.2383 39.4375 20.2383V30.2383ZM33.4648 30.2383V20.2383C27.942 20.2383 23.4648 24.7154 23.4648 30.2383H33.4648ZM33.4648 33.375V43.375C38.9877 43.375 43.4648 38.8978 43.4648 33.375H33.4648ZM14 33.375H4C4 38.8978 8.47715 43.375 14 43.375L14 33.375ZM14 12.6641V2.66406C8.47715 2.66406 4 7.14122 4 12.6641H14ZM20.918 12.6641H30.918C30.918 7.14122 26.4408 2.66406 20.918 2.66406V12.6641ZM20.918 18.1211H10.918C10.918 23.6439 15.3951 28.1211 20.918 28.1211V18.1211ZM26.6758 18.1211V28.1211C32.1986 28.1211 36.6758 23.6439 36.6758 18.1211H26.6758ZM26.6758 12.6641V2.66406C21.1529 2.66406 16.6758 7.14122 16.6758 12.6641H26.6758ZM33.4648 12.6641H43.4648C43.4648 7.14122 38.9877 2.66406 33.4648 2.66406V12.6641ZM33.4648 16.2734H23.4648C23.4648 21.7963 27.942 26.2734 33.4648 26.2734V16.2734ZM39.4375 16.2734V26.2734C44.9603 26.2734 49.4375 21.7963 49.4375 16.2734H39.4375ZM39.4375 10.0859V0.0859375C33.9147 0.0859375 29.4375 4.56309 29.4375 10.0859H39.4375ZM47.1289 43.6875H57.1289C57.1289 38.1647 52.6518 33.6875 47.1289 33.6875V43.6875ZM47.1289 49.1875V59.1875C52.6518 59.1875 57.1289 54.7103 57.1289 49.1875H47.1289ZM19.3711 49.1875H9.37109C9.37109 54.7103 13.8482 59.1875 19.3711 59.1875V49.1875ZM19.3711 36.3828V26.3828C13.8482 26.3828 9.37109 30.86 9.37109 36.3828H19.3711ZM26.375 36.3828H36.375C36.375 30.86 31.8978 26.3828 26.375 26.3828V36.3828ZM26.375 43.6875H16.375C16.375 49.2103 20.8522 53.6875 26.375 53.6875V43.6875ZM20.918 28.0469H10.918C10.918 33.5697 15.3951 38.0469 20.918 38.0469V28.0469ZM26.6758 28.0469V38.0469C32.1986 38.0469 36.6758 33.5697 36.6758 28.0469H26.6758ZM26.6758 23.3203H36.6758C36.6758 17.7975 32.1986 13.3203 26.6758 13.3203V23.3203ZM20.918 23.3203V13.3203C15.3951 13.3203 10.918 17.7975 10.918 23.3203H20.918ZM33.4648 24.7812H23.4648C23.4648 30.3041 27.942 34.7812 33.4648 34.7812V24.7812ZM39.4375 24.7812V34.7812C44.9603 34.7812 49.4375 30.3041 49.4375 24.7812H39.4375ZM39.4375 21.7734H49.4375C49.4375 16.2506 44.9603 11.7734 39.4375 11.7734V21.7734ZM33.4648 21.7734V11.7734C27.942 11.7734 23.4648 16.2506 23.4648 21.7734H33.4648ZM46.3125 10.0859L36.3125 10.0859V39.3047H46.3125H56.3125V10.0859H46.3125ZM46.3125 39.3047V29.3047H39.4375V39.3047V49.3047H46.3125V39.3047ZM39.4375 39.3047H49.4375V30.2383H39.4375H29.4375V39.3047H39.4375ZM39.4375 30.2383V20.2383H33.4648V30.2383V40.2383H39.4375V30.2383ZM33.4648 30.2383H23.4648V33.375H33.4648H43.4648V30.2383H33.4648ZM33.4648 33.375V23.375H14V33.375L14 43.375H33.4648V33.375ZM14 33.375H24V12.6641H14H4V33.375H14ZM14 12.6641V22.6641H20.918V12.6641V2.66406H14V12.6641ZM20.918 12.6641H10.918V18.1211H20.918H30.918V12.6641H20.918ZM20.918 18.1211V28.1211H26.6758V18.1211V8.12109H20.918V18.1211ZM26.6758 18.1211H36.6758V12.6641H26.6758H16.6758V18.1211H26.6758ZM26.6758 12.6641V22.6641H33.4648V12.6641V2.66406L26.6758 2.66406V12.6641ZM33.4648 12.6641H23.4648V16.2734H33.4648H43.4648V12.6641H33.4648ZM33.4648 16.2734V26.2734H39.4375V16.2734V6.27344H33.4648V16.2734ZM39.4375 16.2734H49.4375V10.0859L39.4375 10.0859H29.4375V16.2734H39.4375ZM39.4375 10.0859V20.0859H46.3125V10.0859V0.0859375H39.4375V10.0859ZM47.1289 43.6875H37.1289V49.1875H47.1289H57.1289V43.6875H47.1289ZM47.1289 49.1875V39.1875H19.3711V49.1875V59.1875H47.1289V49.1875ZM19.3711 49.1875H29.3711V36.3828H19.3711H9.37109L9.37109 49.1875H19.3711ZM19.3711 36.3828V46.3828H26.375V36.3828V26.3828H19.3711V36.3828ZM26.375 36.3828H16.375V43.6875H26.375H36.375V36.3828H26.375ZM26.375 43.6875V53.6875H47.1289V43.6875V33.6875H26.375V43.6875ZM20.918 28.0469V38.0469H26.6758V28.0469V18.0469H20.918V28.0469ZM26.6758 28.0469H36.6758V23.3203H26.6758H16.6758V28.0469H26.6758ZM26.6758 23.3203V13.3203H20.918V23.3203V33.3203H26.6758V23.3203ZM20.918 23.3203H10.918V28.0469H20.918H30.918V23.3203H20.918ZM33.4648 24.7812V34.7812H39.4375V24.7812V14.7812H33.4648V24.7812ZM39.4375 24.7812H49.4375V21.7734H39.4375H29.4375V24.7812H39.4375ZM39.4375 21.7734V11.7734H33.4648V21.7734V31.7734H39.4375V21.7734ZM33.4648 21.7734H23.4648V24.7812H33.4648H43.4648V21.7734H33.4648ZM85.8008 23.4922L94.8006 27.8515C96.2088 24.9441 96.1259 21.5356 94.5779 18.7002C93.0299 15.8649 90.2075 13.9519 87.0004 13.5644L85.8008 23.4922ZM83.1367 28.9922L81.8345 38.907C86.1068 39.4682 90.2581 37.2295 92.1365 33.3515L83.1367 28.9922ZM68.6562 21.0859L77.0532 15.6553C75.2167 12.8157 72.0695 11.0967 68.6878 11.086C65.3062 11.0753 62.1482 12.7744 60.2938 15.6024L68.6562 21.0859ZM54.3047 28.9922L45.3049 33.3515C47.1858 37.2347 51.3453 39.4735 55.6224 38.905L54.3047 28.9922ZM51.6406 23.4922L50.4311 13.5656C47.2261 13.9561 44.4069 15.87 42.8611 18.7046C41.3154 21.5392 41.2333 24.9457 42.6408 27.8515L51.6406 23.4922ZM65.0469 11.0312V1.03125C59.524 1.03125 55.0469 5.5084 55.0469 11.0312H65.0469ZM72.3086 11.0312H82.3086C82.3086 5.5084 77.8314 1.03125 72.3086 1.03125V11.0312ZM86.7891 31.1406H96.7891C96.7891 25.6178 92.3119 21.1406 86.7891 21.1406V31.1406ZM86.7891 36.7266V46.7266C92.3119 46.7266 96.7891 42.2494 96.7891 36.7266H86.7891ZM71.9219 36.7266V26.7266C66.399 26.7266 61.9219 31.2037 61.9219 36.7266H71.9219ZM71.9219 49.7461V59.7461C77.4447 59.7461 81.9219 55.2689 81.9219 49.7461H71.9219ZM65.0898 49.7461H55.0898C55.0898 55.2689 59.567 59.7461 65.0898 59.7461V49.7461ZM65.0898 36.7266H75.0898C75.0898 31.2037 70.6127 26.7266 65.0898 26.7266V36.7266ZM50.5234 36.7266H40.5234C40.5234 42.2494 45.0006 46.7266 50.5234 46.7266V36.7266ZM50.5234 31.1406V21.1406C45.0006 21.1406 40.5234 25.6178 40.5234 31.1406H50.5234ZM72.3086 12.75H62.3086C62.3086 17.4255 64.1349 22.4256 68.2379 26.3912C72.2901 30.3076 77.9095 32.6114 84.6012 33.42L85.8008 23.4922L87.0004 13.5644C83.3796 13.1269 82.2528 12.1221 82.1371 12.0102C82.0721 11.9474 82.3086 12.1995 82.3086 12.75L72.3086 12.75ZM85.8008 23.4922L76.801 19.1329L74.1369 24.6329L83.1367 28.9922L92.1365 33.3515L94.8006 27.8515L85.8008 23.4922ZM83.1367 28.9922L84.439 19.0773C79.432 18.4197 77.6618 16.5964 77.0532 15.6553L68.6562 21.0859L60.2593 26.5166C64.764 33.4817 72.4469 37.674 81.8345 38.907L83.1367 28.9922ZM68.6562 21.0859L60.2938 15.6024C59.6116 16.6428 57.8143 18.4377 52.987 19.0794L54.3047 28.9922L55.6224 38.905C65.0177 37.6561 72.5447 33.3924 77.0187 26.5695L68.6562 21.0859ZM54.3047 28.9922L63.3045 24.6329L60.6404 19.1329L51.6406 23.4922L42.6408 27.8515L45.3049 33.3515L54.3047 28.9922ZM51.6406 23.4922L52.8502 33.4188C59.5544 32.6019 65.1469 30.2477 69.1659 26.3224C73.2054 22.3771 75.0469 17.4067 75.0469 12.75H65.0469H55.0469C55.0469 12.1324 55.2985 11.91 55.1915 12.0145C55.064 12.139 53.9534 13.1364 50.4311 13.5656L51.6406 23.4922ZM65.0469 12.75H75.0469V11.0312H65.0469H55.0469V12.75H65.0469ZM65.0469 11.0312V21.0312H72.3086V11.0312V1.03125H65.0469V11.0312ZM72.3086 11.0312H62.3086V12.75H72.3086L82.3086 12.75V11.0312H72.3086ZM86.7891 31.1406H76.7891V36.7266H86.7891H96.7891V31.1406H86.7891ZM86.7891 36.7266V26.7266L71.9219 26.7266V36.7266V46.7266H86.7891V36.7266ZM71.9219 36.7266H61.9219V49.7461H71.9219H81.9219V36.7266H71.9219ZM71.9219 49.7461V39.7461H65.0898V49.7461V59.7461H71.9219V49.7461ZM65.0898 49.7461H75.0898V36.7266H65.0898H55.0898V49.7461H65.0898ZM65.0898 36.7266V26.7266H50.5234V36.7266V46.7266H65.0898V36.7266ZM50.5234 36.7266H60.5234V31.1406H50.5234H40.5234V36.7266H50.5234ZM50.5234 31.1406V41.1406H86.7891V31.1406V21.1406L50.5234 21.1406V31.1406ZM124.816 27.4023H134.816C134.816 21.8795 130.339 17.4023 124.816 17.4023V27.4023ZM124.816 32.4297V42.4297C130.339 42.4297 134.816 37.9525 134.816 32.4297H124.816ZM88.5508 32.4297H78.5508C78.5508 37.9525 83.0279 42.4297 88.5508 42.4297V32.4297ZM88.5508 27.4023V17.4023C83.0279 17.4023 78.5508 21.8795 78.5508 27.4023H88.5508ZM120.605 33.6328H130.605C130.605 28.11 126.128 23.6328 120.605 23.6328V33.6328ZM120.605 43.6445V53.6445C126.128 53.6445 130.605 49.1674 130.605 43.6445H120.605ZM99.3789 43.6445V33.6445C93.8561 33.6445 89.3789 38.1217 89.3789 43.6445H99.3789ZM99.3789 44.9336H89.3789C89.3789 50.4564 93.8561 54.9336 99.3789 54.9336V44.9336ZM121.68 44.9336H131.68C131.68 39.4107 127.203 34.9336 121.68 34.9336V44.9336ZM121.68 49.4883V59.4883C127.203 59.4883 131.68 55.0111 131.68 49.4883H121.68ZM92.5469 49.4883H82.5469C82.5469 55.0111 87.024 59.4883 92.5469 59.4883V49.4883ZM92.5469 39.3906V29.3906C87.024 29.3906 82.5469 33.8678 82.5469 39.3906H92.5469ZM113.773 39.3906V49.3906C119.296 49.3906 123.773 44.9135 123.773 39.3906H113.773ZM113.773 38.2734H123.773C123.773 32.7506 119.296 28.2734 113.773 28.2734V38.2734ZM92.5469 38.2734H82.5469C82.5469 43.7963 87.024 48.2734 92.5469 48.2734V38.2734ZM92.5469 33.6328V23.6328C87.024 23.6328 82.5469 28.11 82.5469 33.6328H92.5469ZM120.605 10.4727H130.605C130.605 4.94981 126.128 0.472656 120.605 0.472656V10.4727ZM120.605 20.4844V30.4844C126.128 30.4844 130.605 26.0072 130.605 20.4844H120.605ZM99.7656 20.4844V10.4844C94.2428 10.4844 89.7656 14.9615 89.7656 20.4844H99.7656ZM99.7656 21.7734H89.7656C89.7656 27.2963 94.2428 31.7734 99.7656 31.7734V21.7734ZM121.293 21.7734H131.293C131.293 16.2506 126.816 11.7734 121.293 11.7734V21.7734ZM121.293 26.2852V36.2852C126.816 36.2852 131.293 31.808 131.293 26.2852H121.293ZM92.9336 26.2852H82.9336C82.9336 31.808 87.4107 36.2852 92.9336 36.2852V26.2852ZM92.9336 16.2305V6.23047C87.4107 6.23047 82.9336 10.7076 82.9336 16.2305H92.9336ZM113.73 16.2305V26.2305C119.253 26.2305 123.73 21.7533 123.73 16.2305H113.73ZM113.73 15.0273H123.73C123.73 9.5045 119.253 5.02734 113.73 5.02734V15.0273ZM92.8906 15.0273H82.8906C82.8906 20.5502 87.3678 25.0273 92.8906 25.0273V15.0273ZM92.8906 10.4727V0.472656C87.3678 0.472656 82.8906 4.94981 82.8906 10.4727H92.8906ZM124.816 27.4023H114.816V32.4297H124.816H134.816V27.4023H124.816ZM124.816 32.4297V22.4297H88.5508V32.4297V42.4297H124.816V32.4297ZM88.5508 32.4297H98.5508V27.4023H88.5508H78.5508V32.4297H88.5508ZM88.5508 27.4023V37.4023H124.816V27.4023V17.4023H88.5508V27.4023ZM120.605 33.6328H110.605V43.6445H120.605H130.605V33.6328H120.605ZM120.605 43.6445V33.6445H99.3789V43.6445V53.6445H120.605V43.6445ZM99.3789 43.6445H89.3789V44.9336H99.3789H109.379V43.6445H99.3789ZM99.3789 44.9336V54.9336H121.68V44.9336V34.9336H99.3789V44.9336ZM121.68 44.9336H111.68V49.4883H121.68H131.68V44.9336H121.68ZM121.68 49.4883V39.4883H92.5469V49.4883V59.4883H121.68V49.4883ZM92.5469 49.4883H102.547V39.3906H92.5469H82.5469V49.4883H92.5469ZM92.5469 39.3906V49.3906H113.773V39.3906V29.3906H92.5469V39.3906ZM113.773 39.3906H123.773V38.2734H113.773H103.773V39.3906H113.773ZM113.773 38.2734V28.2734H92.5469V38.2734V48.2734H113.773V38.2734ZM92.5469 38.2734H102.547V33.6328H92.5469H82.5469V38.2734H92.5469ZM92.5469 33.6328V43.6328H120.605V33.6328V23.6328H92.5469V33.6328ZM120.605 10.4727H110.605V20.4844H120.605H130.605V10.4727H120.605ZM120.605 20.4844V10.4844L99.7656 10.4844V20.4844V30.4844H120.605V20.4844ZM99.7656 20.4844H89.7656V21.7734H99.7656H109.766V20.4844H99.7656ZM99.7656 21.7734V31.7734H121.293V21.7734V11.7734L99.7656 11.7734V21.7734ZM121.293 21.7734H111.293V26.2852H121.293H131.293V21.7734H121.293ZM121.293 26.2852V16.2852H92.9336V26.2852V36.2852H121.293V26.2852ZM92.9336 26.2852H102.934V16.2305H92.9336H82.9336V26.2852H92.9336ZM92.9336 16.2305V26.2305H113.73V16.2305V6.23047L92.9336 6.23047V16.2305ZM113.73 16.2305H123.73V15.0273H113.73H103.73V16.2305H113.73ZM113.73 15.0273V5.02734L92.8906 5.02734V15.0273V25.0273H113.73V15.0273ZM92.8906 15.0273H102.891V10.4727H92.8906H82.8906V15.0273H92.8906ZM92.8906 10.4727V20.4727H120.605V10.4727V0.472656L92.8906 0.472656V10.4727ZM169.461 13.0937H179.461C179.461 7.5709 174.984 3.09375 169.461 3.09375V13.0937ZM167.785 36.168L166.863 46.1254C171.987 46.5998 176.635 43.1081 177.606 38.0546L167.785 36.168ZM160.824 35.5234L151.035 33.4827C150.453 36.2716 151.089 39.1761 152.782 41.4671C154.476 43.7581 157.066 45.2182 159.902 45.4808L160.824 35.5234ZM162.5 18.5078L172.5 18.5557C172.513 15.8952 171.465 13.3394 169.588 11.4537C167.711 9.56796 165.16 8.50781 162.5 8.50781V18.5078ZM139.812 18.5078H129.812C129.812 24.0307 134.29 28.5078 139.812 28.5078V18.5078ZM139.812 13.0937V3.09375C134.29 3.09375 129.812 7.5709 129.812 13.0937H139.812ZM172.426 39.8203H182.426C182.426 34.2975 177.949 29.8203 172.426 29.8203V39.8203ZM172.426 45.3633V55.3633C177.949 55.3633 182.426 50.8861 182.426 45.3633H172.426ZM136.16 45.3633H126.16C126.16 50.8861 130.637 55.3633 136.16 55.3633V45.3633ZM136.16 39.8203V29.8203C130.637 29.8203 126.16 34.2975 126.16 39.8203H136.16ZM148.363 39.8203V49.8203C153.886 49.8203 158.363 45.3432 158.363 39.8203H148.363ZM148.363 26.543V16.543C142.84 16.543 138.363 21.0201 138.363 26.543H148.363ZM155.195 26.543H165.195C165.195 21.0201 160.718 16.543 155.195 16.543V26.543ZM155.195 39.8203H145.195C145.195 45.3432 149.672 49.8203 155.195 49.8203V39.8203ZM169.461 13.0937H159.461V16.7461H169.461H179.461V13.0937H169.461ZM169.461 16.7461H159.461C159.461 21.5742 159.46 26.4965 157.965 34.2813L167.785 36.168L177.606 38.0546C179.462 28.3941 179.461 21.9726 179.461 16.7461H169.461ZM167.785 36.168L168.707 26.2106L161.746 25.566L160.824 35.5234L159.902 45.4808L166.863 46.1254L167.785 36.168ZM160.824 35.5234L170.614 37.5642C172.288 29.5304 172.477 23.3728 172.5 18.5557L162.5 18.5078L152.5 18.46C152.48 22.6233 152.325 27.2938 151.035 33.4827L160.824 35.5234ZM162.5 18.5078V8.50781H139.812V18.5078V28.5078H162.5V18.5078ZM139.812 18.5078H149.812V13.0937H139.812H129.812V18.5078H139.812ZM139.812 13.0937V23.0937H169.461V13.0937V3.09375L139.812 3.09375V13.0937ZM172.426 39.8203H162.426V45.3633H172.426H182.426V39.8203H172.426ZM172.426 45.3633V35.3633L136.16 35.3633V45.3633V55.3633L172.426 55.3633V45.3633ZM136.16 45.3633L146.16 45.3633V39.8203L136.16 39.8203H126.16V45.3633H136.16ZM136.16 39.8203V49.8203L148.363 49.8203V39.8203V29.8203L136.16 29.8203V39.8203ZM148.363 39.8203H158.363V26.543H148.363H138.363V39.8203L148.363 39.8203ZM148.363 26.543V36.543H155.195V26.543V16.543H148.363V26.543ZM155.195 26.543H145.195V39.8203H155.195H165.195V26.543H155.195ZM155.195 39.8203V49.8203H172.426V39.8203V29.8203H155.195V39.8203ZM208.004 10H218.004C218.004 4.47715 213.527 0 208.004 0V10ZM208.004 49.875V59.875C213.527 59.875 218.004 55.3978 218.004 49.875H208.004ZM201.129 49.875H191.129C191.129 55.3978 195.606 59.875 201.129 59.875V49.875ZM201.129 34.4062H211.129C211.129 28.8834 206.652 24.4062 201.129 24.4062V34.4062ZM195.328 34.4062H185.328C185.328 39.9291 189.805 44.4062 195.328 44.4062V34.4062ZM195.328 28.8203V18.8203C189.805 18.8203 185.328 23.2975 185.328 28.8203H195.328ZM201.129 28.8203V38.8203C206.652 38.8203 211.129 34.3432 211.129 28.8203H201.129ZM201.129 23.5781L211.129 23.5781C211.129 18.0553 206.652 13.5781 201.129 13.5781V23.5781ZM195.328 23.5781H185.328C185.328 29.101 189.805 33.5781 195.328 33.5781V23.5781ZM195.328 18.0781V8.07812C189.805 8.07812 185.328 12.5553 185.328 18.0781H195.328ZM201.129 18.0781V28.0781C206.652 28.0781 211.129 23.601 211.129 18.0781L201.129 18.0781ZM201.129 10V0C195.606 0 191.129 4.47715 191.129 10H201.129ZM193.523 13.1797H203.523C203.523 7.65684 199.046 3.17969 193.523 3.17969V13.1797ZM193.523 29.1641V39.1641C199.046 39.1641 203.523 34.6869 203.523 29.1641H193.523ZM182.395 29.1641V19.1641C176.872 19.1641 172.395 23.6412 172.395 29.1641H182.395ZM182.395 35.6094H172.395C172.395 38.2878 173.469 40.8543 175.377 42.7338C177.285 44.6133 179.868 45.6488 182.546 45.6082L182.395 35.6094ZM194.941 34.707L204.899 33.7879C204.648 31.0703 203.298 28.5733 201.16 26.8761C199.023 25.1789 196.285 24.4288 193.582 24.7999L194.941 34.707ZM195.457 40.293L197.017 50.1706C202.225 49.3483 205.899 44.6239 205.415 39.3738L195.457 40.293ZM175.52 41.2383H165.52C165.52 46.7611 169.997 51.2383 175.52 51.2383V41.2383ZM175.52 23.8789V13.8789C169.997 13.8789 165.52 18.3561 165.52 23.8789H175.52ZM186.777 23.8789V33.8789C192.3 33.8789 196.777 29.4018 196.777 23.8789H186.777ZM186.777 18.5508H196.777C196.777 13.0279 192.3 8.55078 186.777 8.55078V18.5508ZM175.434 18.5508H165.434C165.434 24.0736 169.911 28.5508 175.434 28.5508V18.5508ZM175.434 13.1797V3.17969C169.911 3.17969 165.434 7.65684 165.434 13.1797H175.434ZM208.004 10H198.004V49.875H208.004H218.004V10H208.004ZM208.004 49.875V39.875H201.129V49.875V59.875H208.004V49.875ZM201.129 49.875H211.129V34.4062H201.129H191.129V49.875H201.129ZM201.129 34.4062V24.4062H195.328V34.4062V44.4062H201.129V34.4062ZM195.328 34.4062H205.328V28.8203H195.328H185.328V34.4062H195.328ZM195.328 28.8203V38.8203H201.129V28.8203V18.8203H195.328V28.8203ZM201.129 28.8203H211.129V23.5781L201.129 23.5781H191.129V28.8203H201.129ZM201.129 23.5781V13.5781H195.328V23.5781V33.5781H201.129V23.5781ZM195.328 23.5781L205.328 23.5781V18.0781L195.328 18.0781H185.328V23.5781H195.328ZM195.328 18.0781V28.0781H201.129V18.0781V8.07812H195.328V18.0781ZM201.129 18.0781L211.129 18.0781V10H201.129H191.129V18.0781H201.129ZM201.129 10V20L208.004 20V10V0H201.129V10ZM193.523 13.1797H183.523V29.1641H193.523H203.523V13.1797H193.523ZM193.523 29.1641V19.1641H182.395V29.1641V39.1641H193.523V29.1641ZM182.395 29.1641H172.395V35.6094H182.395H192.395V29.1641H182.395ZM182.395 35.6094L182.546 45.6082C187.11 45.5391 191.434 45.2822 196.301 44.6141L194.941 34.707L193.582 24.7999C189.683 25.335 186.187 25.5508 182.243 25.6105L182.395 35.6094ZM194.941 34.707L184.984 35.6262L185.499 41.2121L195.457 40.293L205.415 39.3738L204.899 33.7879L194.941 34.707ZM195.457 40.293L193.897 30.4153C189.041 31.1821 184.723 31.2383 178.785 31.2383V41.2383V51.2383C184.707 51.2383 190.443 51.2085 197.017 50.1706L195.457 40.293ZM178.785 41.2383V31.2383H175.52V41.2383V51.2383H178.785V41.2383ZM175.52 41.2383H185.52V23.8789H175.52H165.52V41.2383H175.52ZM175.52 23.8789V33.8789H186.777V23.8789V13.8789H175.52V23.8789ZM186.777 23.8789H196.777V18.5508H186.777H176.777V23.8789H186.777ZM186.777 18.5508V8.55078H175.434V18.5508V28.5508H186.777V18.5508ZM175.434 18.5508H185.434V13.1797H175.434H165.434V18.5508H175.434ZM175.434 13.1797V23.1797H193.523V13.1797V3.17969L175.434 3.17969V13.1797ZM243.926 10H253.926C253.926 4.47715 249.449 0 243.926 0V10ZM243.926 25.082H233.926C233.926 30.6049 238.403 35.082 243.926 35.082V25.082ZM249.297 25.082H259.297C259.297 19.5592 254.82 15.082 249.297 15.082V25.082ZM249.297 30.7109V40.7109C254.82 40.7109 259.297 36.2338 259.297 30.7109H249.297ZM243.926 30.7109V20.7109C238.403 20.7109 233.926 25.1881 233.926 30.7109H243.926ZM243.926 49.7461V59.7461C249.449 59.7461 253.926 55.2689 253.926 49.7461H243.926ZM237.094 49.7461H227.094C227.094 55.2689 231.571 59.7461 237.094 59.7461V49.7461ZM237.094 10V0C231.571 0 227.094 4.47715 227.094 10L237.094 10ZM235.16 15.6719H245.16C245.16 10.149 240.683 5.67187 235.16 5.67187V15.6719ZM235.16 21.1289V31.1289C240.683 31.1289 245.16 26.6518 245.16 21.1289H235.16ZM212 21.1289L202 21.1289C202 26.6518 206.477 31.1289 212 31.1289V21.1289ZM212 15.6719V5.67187C206.477 5.67187 202 10.149 202 15.6719L212 15.6719ZM220.207 15.6719V25.6719C225.73 25.6719 230.207 21.1947 230.207 15.6719H220.207ZM220.207 10.7305V0.730469C214.684 0.730469 210.207 5.20762 210.207 10.7305H220.207ZM227.082 10.7305L237.082 10.7305C237.082 5.20762 232.605 0.730469 227.082 0.730469V10.7305ZM227.082 15.6719H217.082C217.082 21.1947 221.559 25.6719 227.082 25.6719V15.6719ZM219.82 32.3437L229.819 32.4976C229.821 32.3926 229.821 32.2875 229.819 32.1825L219.82 32.3437ZM243.926 10L233.926 10V25.082H243.926H253.926V10H243.926ZM243.926 25.082V35.082H249.297V25.082V15.082H243.926V25.082ZM249.297 25.082H239.297V30.7109H249.297H259.297V25.082H249.297ZM249.297 30.7109V20.7109H243.926V30.7109V40.7109H249.297V30.7109ZM243.926 30.7109H233.926V49.7461H243.926H253.926V30.7109H243.926ZM243.926 49.7461V39.7461H237.094V49.7461V59.7461H243.926V49.7461ZM237.094 49.7461H247.094V10H237.094L227.094 10V49.7461H237.094ZM237.094 10V20H243.926V10V0L237.094 0V10ZM235.16 15.6719H225.16V21.1289H235.16H245.16V15.6719H235.16ZM235.16 21.1289V11.1289H212V21.1289V31.1289H235.16V21.1289ZM212 21.1289H222V15.6719H212L202 15.6719V21.1289L212 21.1289ZM212 15.6719V25.6719H220.207V15.6719V5.67187H212V15.6719ZM220.207 15.6719H230.207V10.7305H220.207H210.207V15.6719H220.207ZM220.207 10.7305V20.7305H227.082V10.7305V0.730469H220.207V10.7305ZM227.082 10.7305H217.082V15.6719H227.082H237.082V10.7305L227.082 10.7305ZM227.082 15.6719V25.6719H235.16V15.6719V5.67187H227.082V15.6719ZM223.645 22.6758V32.6758C223.971 32.6758 224.169 32.7311 224.258 32.7641C224.347 32.7974 224.34 32.8128 224.283 32.7608C224.223 32.7055 224.148 32.6106 224.093 32.4862C224.036 32.3569 224.043 32.29 224.043 32.3437H234.043H244.043C244.043 20.4166 234.245 12.6758 223.645 12.6758V22.6758ZM234.043 32.3437H224.043C224.043 32.4188 224.032 32.3657 224.085 32.2435C224.137 32.1256 224.21 32.0317 224.272 31.9749C224.33 31.9214 224.339 31.9351 224.253 31.9673C224.167 31.9994 223.971 32.0547 223.645 32.0547V42.0547V52.0547C234.276 52.0547 244.043 44.2857 244.043 32.3437H234.043ZM223.645 42.0547V32.0547C223.261 32.0547 223.039 31.9911 222.95 31.9582C222.863 31.9257 222.884 31.9166 222.958 31.9846C223.035 32.056 223.114 32.1625 223.166 32.2831C223.22 32.4057 223.203 32.4461 223.203 32.3437H213.203H203.203C203.203 44.2597 212.856 52.0547 223.645 52.0547V42.0547ZM213.203 32.3437H223.203C223.203 32.2625 223.215 32.3167 223.159 32.4465C223.104 32.5737 223.022 32.6813 222.946 32.751C222.874 32.8175 222.855 32.8068 222.946 32.7732C223.037 32.7394 223.261 32.6758 223.645 32.6758V22.6758V12.6758C212.887 12.6758 203.203 20.4426 203.203 32.3437H213.203ZM223.645 28.2187V18.2187C220.331 18.2187 216.61 19.3418 213.725 22.2942C210.821 25.2668 209.766 29.0654 209.822 32.505L219.82 32.3437L229.819 32.1825C229.832 32.958 229.571 34.6941 228.032 36.2703C226.512 37.8262 224.724 38.2187 223.645 38.2187V28.2187ZM219.82 32.3437L209.822 32.1899C209.769 35.5736 210.758 39.4751 213.807 42.5247C216.809 45.5265 220.578 46.4687 223.645 46.4687V36.4687V26.4687C224.477 26.4687 226.312 26.745 227.949 28.3825C229.635 30.0678 229.828 31.9069 229.819 32.4976L219.82 32.3437ZM223.645 36.4687V46.4687C226.758 46.4687 230.514 45.4854 233.484 42.4683C236.457 39.448 237.426 35.6263 237.426 32.3437H227.426H217.426C217.426 31.8542 217.6 30.095 219.23 28.4389C220.857 26.7861 222.722 26.4687 223.645 26.4687V36.4687ZM227.426 32.3437H237.426C237.426 29.0131 236.396 25.2955 233.565 22.3511C230.717 19.3886 227.008 18.2187 223.645 18.2187V28.2187V38.2187C222.472 38.2187 220.654 37.7793 219.149 36.2133C217.66 34.6654 217.426 33.0104 217.426 32.3437H227.426ZM282.598 20.0977H292.598C292.598 14.5748 288.121 10.0977 282.598 10.0977V20.0977ZM282.598 25.4258V35.4258C288.121 35.4258 292.598 30.9486 292.598 25.4258H282.598ZM254.496 25.4258H244.496C244.496 30.9486 248.973 35.4258 254.496 35.4258V25.4258ZM254.496 11.418V1.41797C248.973 1.41797 244.496 5.89512 244.496 11.418H254.496ZM261.371 11.418H271.371C271.371 5.89512 266.894 1.41797 261.371 1.41797V11.418ZM261.371 20.0977H251.371C251.371 25.6205 255.848 30.0977 261.371 30.0977V20.0977ZM286.508 28.9492H296.508C296.508 23.4264 292.031 18.9492 286.508 18.9492V28.9492ZM286.508 34.2773V44.2773C292.031 44.2773 296.508 39.8002 296.508 34.2773H286.508ZM250.242 34.2773H240.242C240.242 39.8002 244.719 44.2773 250.242 44.2773V34.2773ZM250.242 28.9492V18.9492C244.719 18.9492 240.242 23.4264 240.242 28.9492H250.242ZM282.855 43.4727H292.855C292.855 37.9498 288.378 33.4727 282.855 33.4727V43.4727ZM282.855 48.9727V58.9727C288.378 58.9727 292.855 54.4955 292.855 48.9727H282.855ZM254.023 48.9727H244.023C244.023 54.4955 248.501 58.9727 254.023 58.9727V48.9727ZM254.023 37.0273V27.0273C248.501 27.0273 244.023 31.5045 244.023 37.0273H254.023ZM260.984 37.0273H270.984C270.984 31.5045 266.507 27.0273 260.984 27.0273V37.0273ZM260.984 43.4727H250.984C250.984 48.9955 255.462 53.4727 260.984 53.4727V43.4727ZM282.598 20.0977H272.598V25.4258H282.598H292.598V20.0977H282.598ZM282.598 25.4258V15.4258H254.496V25.4258V35.4258H282.598V25.4258ZM254.496 25.4258H264.496V11.418H254.496H244.496V25.4258H254.496ZM254.496 11.418V21.418H261.371V11.418V1.41797H254.496V11.418ZM261.371 11.418H251.371V20.0977H261.371H271.371V11.418H261.371ZM261.371 20.0977V30.0977H282.598V20.0977V10.0977H261.371V20.0977ZM286.508 28.9492H276.508V34.2773H286.508H296.508V28.9492H286.508ZM286.508 34.2773V24.2773H250.242V34.2773V44.2773H286.508V34.2773ZM250.242 34.2773H260.242V28.9492H250.242H240.242V34.2773H250.242ZM250.242 28.9492V38.9492H286.508V28.9492V18.9492H250.242V28.9492ZM282.855 43.4727H272.855V48.9727H282.855H292.855V43.4727H282.855ZM282.855 48.9727V38.9727H254.023V48.9727V58.9727H282.855V48.9727ZM254.023 48.9727H264.023V37.0273H254.023H244.023V48.9727H254.023ZM254.023 37.0273V47.0273H260.984V37.0273V27.0273H254.023V37.0273ZM260.984 37.0273H250.984V43.4727H260.984H270.984V37.0273H260.984ZM260.984 43.4727V53.4727H282.855V43.4727V33.4727H260.984V43.4727Z" fill="white" mask="url(#path-1-outside-1_6524_1834)"/>
</g>
<defs>
<filter id="filter0_d_6524_1834" x="0" y="0" width="300.508" height="67.875" filterUnits="userSpaceOnUse" color-interpolation-filters="sRGB">
<feFlood flood-opacity="0" result="BackgroundImageFix"/>
<feColorMatrix in="SourceAlpha" type="matrix" values="0 0 0 0 0 0 0 0 0 0 0 0 0 0 0 0 0 0 127 0" result="hardAlpha"/>
<feOffset dy="4"/>
<feGaussianBlur stdDeviation="2"/>
<feComposite in2="hardAlpha" operator="out"/>
<feColorMatrix type="matrix" values="0 0 0 0 0 0 0 0 0 0 0 0 0 0 0 0 0 0 0.07 0"/>
<feBlend mode="normal" in2="BackgroundImageFix" result="effect1_dropShadow_6524_1834"/>
<feBlend mode="normal" in="SourceGraphic" in2="effect1_dropShadow_6524_1834" result="shape"/>
</filter>
</defs>
</svg>
