<svg width="263" height="68" viewBox="0 0 263 68" fill="none" xmlns="http://www.w3.org/2000/svg">
<g filter="url(#filter0_d_6524_1858)">
<mask id="path-1-outside-1_6524_1858" maskUnits="userSpaceOnUse" x="3.59375" y="-0.507813" width="255" height="61" fill="black">
<rect fill="white" x="3.59375" y="-0.507813" width="255" height="61"/>
<path d="M20.918 12.4492V17.1328H26.6758V12.4492H33.4648V15.5H39.4375V10L46.3125 10V33.5898H39.4375V28.9922H33.4648V31.6992H14V12.4492H20.918ZM20.918 26.4141H26.6758V22.332H20.918V26.4141ZM32.4766 34.1914C41.1133 34.1914 46.3984 37.0703 46.3984 42.0547C46.3984 46.9531 41.1133 49.832 32.4766 49.832C23.9258 49.832 18.6406 46.9531 18.6406 42.0547C18.6406 37.0703 23.9258 34.1914 32.4766 34.1914ZM32.4766 39.3906C27.75 39.3906 25.4727 40.1211 25.5156 42.0547C25.4727 43.8594 27.75 44.6328 32.4766 44.6328C37.2461 44.6328 39.5664 43.8594 39.5664 42.0547C39.5664 40.1211 37.2461 39.3906 32.4766 39.3906ZM33.4648 23.5352H39.4375V20.8281H33.4648V23.5352ZM82.2344 11.5469V25.8984L72.0508 25.8984V28.8633H86.7891V34.3633H50.5234V28.8633H65.0898V25.8984H54.9062V11.5469H82.2344ZM61.6094 16.875V20.5273H75.4453V16.875H61.6094ZM82.4062 36.5117V49.7461H75.5312V41.8828H54.5625V36.5117H82.4062ZM106.684 10.5156C116.008 10.5156 121.336 12.8789 121.379 17.2187C121.336 21.6016 116.008 23.9648 106.684 23.9648C97.3164 23.9648 91.9023 21.6016 91.9453 17.2187C91.9023 12.8789 97.3164 10.5156 106.684 10.5156ZM106.684 15.5C101.312 15.5 99.1641 16.0156 99.1641 17.2187C99.1641 18.6797 101.312 18.9375 106.684 18.9805C112.098 18.9375 114.246 18.6797 114.246 17.2187C114.246 16.0156 112.098 15.5 106.684 15.5ZM124.816 25.2969V30.7539H88.5508V25.2969H124.816ZM120.52 32.2578V43.2148H99.3359V44.5039H121.465V49.5742H92.5898V38.4883H113.73V37.2852H92.6328V32.2578H120.52ZM172.426 25.3398V30.668H157.688V32.3437H168.129V43.1719H146.945V44.5039H169.074V49.5742H140.199V38.4883H161.34V37.3711H140.242V32.3437H150.855V30.668L136.16 30.668V25.3398H172.426ZM169.117 10.9883V16.1875H159.449C160.932 17.7773 164.326 19.2812 171.051 19.668L168.902 24.7812C161.232 24.3086 156.549 22.1816 154.25 19.1953C151.887 22.1602 147.268 24.3086 139.684 24.7812L137.578 19.668C144.238 19.2598 147.568 17.7773 149.051 16.1875H139.469V10.9883H169.117ZM207.746 10V49.875H200.785V10H207.746ZM185.918 12.6641C191.977 12.6211 196.531 18.207 196.531 26.9727C196.531 35.8672 191.977 41.4102 185.918 41.4102C179.73 41.4102 175.133 35.8672 175.133 26.9727C175.133 18.207 179.73 12.6211 185.918 12.6641ZM185.918 18.8945C183.383 18.8516 181.793 21.4727 181.793 26.9727C181.793 32.5586 183.383 35.0937 185.918 35.0937C188.281 35.0937 189.914 32.5586 189.914 26.9727C189.914 21.4727 188.281 18.8516 185.918 18.8945ZM244.57 20.0977V25.4258H216.469V11.418H223.344V20.0977H244.57ZM248.48 28.9492V34.2773H212.215V28.9492H248.48ZM244.828 43.4727V48.9727H215.996V37.0273H222.957V43.4727H244.828Z"/>
</mask>
<path d="M20.918 12.4492V17.1328H26.6758V12.4492H33.4648V15.5H39.4375V10L46.3125 10V33.5898H39.4375V28.9922H33.4648V31.6992H14V12.4492H20.918ZM20.918 26.4141H26.6758V22.332H20.918V26.4141ZM32.4766 34.1914C41.1133 34.1914 46.3984 37.0703 46.3984 42.0547C46.3984 46.9531 41.1133 49.832 32.4766 49.832C23.9258 49.832 18.6406 46.9531 18.6406 42.0547C18.6406 37.0703 23.9258 34.1914 32.4766 34.1914ZM32.4766 39.3906C27.75 39.3906 25.4727 40.1211 25.5156 42.0547C25.4727 43.8594 27.75 44.6328 32.4766 44.6328C37.2461 44.6328 39.5664 43.8594 39.5664 42.0547C39.5664 40.1211 37.2461 39.3906 32.4766 39.3906ZM33.4648 23.5352H39.4375V20.8281H33.4648V23.5352ZM82.2344 11.5469V25.8984L72.0508 25.8984V28.8633H86.7891V34.3633H50.5234V28.8633H65.0898V25.8984H54.9062V11.5469H82.2344ZM61.6094 16.875V20.5273H75.4453V16.875H61.6094ZM82.4062 36.5117V49.7461H75.5312V41.8828H54.5625V36.5117H82.4062ZM106.684 10.5156C116.008 10.5156 121.336 12.8789 121.379 17.2187C121.336 21.6016 116.008 23.9648 106.684 23.9648C97.3164 23.9648 91.9023 21.6016 91.9453 17.2187C91.9023 12.8789 97.3164 10.5156 106.684 10.5156ZM106.684 15.5C101.312 15.5 99.1641 16.0156 99.1641 17.2187C99.1641 18.6797 101.312 18.9375 106.684 18.9805C112.098 18.9375 114.246 18.6797 114.246 17.2187C114.246 16.0156 112.098 15.5 106.684 15.5ZM124.816 25.2969V30.7539H88.5508V25.2969H124.816ZM120.52 32.2578V43.2148H99.3359V44.5039H121.465V49.5742H92.5898V38.4883H113.73V37.2852H92.6328V32.2578H120.52ZM172.426 25.3398V30.668H157.688V32.3437H168.129V43.1719H146.945V44.5039H169.074V49.5742H140.199V38.4883H161.34V37.3711H140.242V32.3437H150.855V30.668L136.16 30.668V25.3398H172.426ZM169.117 10.9883V16.1875H159.449C160.932 17.7773 164.326 19.2812 171.051 19.668L168.902 24.7812C161.232 24.3086 156.549 22.1816 154.25 19.1953C151.887 22.1602 147.268 24.3086 139.684 24.7812L137.578 19.668C144.238 19.2598 147.568 17.7773 149.051 16.1875H139.469V10.9883H169.117ZM207.746 10V49.875H200.785V10H207.746ZM185.918 12.6641C191.977 12.6211 196.531 18.207 196.531 26.9727C196.531 35.8672 191.977 41.4102 185.918 41.4102C179.73 41.4102 175.133 35.8672 175.133 26.9727C175.133 18.207 179.73 12.6211 185.918 12.6641ZM185.918 18.8945C183.383 18.8516 181.793 21.4727 181.793 26.9727C181.793 32.5586 183.383 35.0937 185.918 35.0937C188.281 35.0937 189.914 32.5586 189.914 26.9727C189.914 21.4727 188.281 18.8516 185.918 18.8945ZM244.57 20.0977V25.4258H216.469V11.418H223.344V20.0977H244.57ZM248.48 28.9492V34.2773H212.215V28.9492H248.48ZM244.828 43.4727V48.9727H215.996V37.0273H222.957V43.4727H244.828Z" fill="#11DCA9"/>
<path d="M20.918 12.4492H30.918C30.918 6.92637 26.4408 2.44922 20.918 2.44922V12.4492ZM20.918 17.1328H10.918C10.918 22.6557 15.3951 27.1328 20.918 27.1328V17.1328ZM26.6758 17.1328V27.1328C32.1986 27.1328 36.6758 22.6557 36.6758 17.1328H26.6758ZM26.6758 12.4492V2.44922C21.1529 2.44922 16.6758 6.92637 16.6758 12.4492H26.6758ZM33.4648 12.4492H43.4648C43.4648 6.92637 38.9877 2.44922 33.4648 2.44922V12.4492ZM33.4648 15.5H23.4648C23.4648 21.0228 27.942 25.5 33.4648 25.5V15.5ZM39.4375 15.5V25.5C44.9603 25.5 49.4375 21.0228 49.4375 15.5H39.4375ZM39.4375 10V0C33.9147 0 29.4375 4.47715 29.4375 10H39.4375ZM46.3125 10H56.3125C56.3125 4.47715 51.8353 0 46.3125 0V10ZM46.3125 33.5898V43.5898C51.8353 43.5898 56.3125 39.1127 56.3125 33.5898H46.3125ZM39.4375 33.5898H29.4375C29.4375 39.1127 33.9147 43.5898 39.4375 43.5898V33.5898ZM39.4375 28.9922H49.4375C49.4375 23.4693 44.9603 18.9922 39.4375 18.9922V28.9922ZM33.4648 28.9922V18.9922C27.942 18.9922 23.4648 23.4693 23.4648 28.9922H33.4648ZM33.4648 31.6992V41.6992C38.9877 41.6992 43.4648 37.2221 43.4648 31.6992H33.4648ZM14 31.6992H4C4 37.2221 8.47715 41.6992 14 41.6992L14 31.6992ZM14 12.4492V2.44922C8.47715 2.44922 4 6.92637 4 12.4492H14ZM20.918 26.4141H10.918C10.918 31.9369 15.3951 36.4141 20.918 36.4141V26.4141ZM26.6758 26.4141V36.4141C32.1986 36.4141 36.6758 31.9369 36.6758 26.4141H26.6758ZM26.6758 22.332H36.6758C36.6758 16.8092 32.1986 12.332 26.6758 12.332V22.332ZM20.918 22.332V12.332C15.3951 12.332 10.918 16.8092 10.918 22.332H20.918ZM25.5156 42.0547L35.5128 42.2927C35.5164 42.1393 35.5166 41.9859 35.5132 41.8325L25.5156 42.0547ZM33.4648 23.5352H23.4648C23.4648 29.058 27.942 33.5352 33.4648 33.5352V23.5352ZM39.4375 23.5352V33.5352C44.9603 33.5352 49.4375 29.058 49.4375 23.5352H39.4375ZM39.4375 20.8281H49.4375C49.4375 15.3053 44.9603 10.8281 39.4375 10.8281V20.8281ZM33.4648 20.8281V10.8281C27.942 10.8281 23.4648 15.3053 23.4648 20.8281H33.4648ZM20.918 12.4492H10.918V17.1328H20.918H30.918V12.4492H20.918ZM20.918 17.1328V27.1328H26.6758V17.1328V7.13281H20.918V17.1328ZM26.6758 17.1328H36.6758V12.4492H26.6758H16.6758V17.1328H26.6758ZM26.6758 12.4492V22.4492H33.4648V12.4492V2.44922L26.6758 2.44922V12.4492ZM33.4648 12.4492H23.4648V15.5H33.4648H43.4648V12.4492H33.4648ZM33.4648 15.5V25.5H39.4375V15.5V5.5H33.4648V15.5ZM39.4375 15.5H49.4375V10L39.4375 10H29.4375V15.5H39.4375ZM39.4375 10V20H46.3125V10V0H39.4375V10ZM46.3125 10L36.3125 10V33.5898H46.3125H56.3125V10H46.3125ZM46.3125 33.5898V23.5898H39.4375V33.5898V43.5898H46.3125V33.5898ZM39.4375 33.5898H49.4375V28.9922H39.4375H29.4375V33.5898H39.4375ZM39.4375 28.9922V18.9922H33.4648V28.9922V38.9922H39.4375V28.9922ZM33.4648 28.9922H23.4648V31.6992H33.4648H43.4648V28.9922H33.4648ZM33.4648 31.6992V21.6992H14V31.6992L14 41.6992H33.4648V31.6992ZM14 31.6992H24V12.4492H14H4L4 31.6992H14ZM14 12.4492V22.4492H20.918V12.4492V2.44922H14V12.4492ZM20.918 26.4141V36.4141H26.6758V26.4141V16.4141H20.918V26.4141ZM26.6758 26.4141H36.6758V22.332H26.6758H16.6758V26.4141H26.6758ZM26.6758 22.332V12.332H20.918V22.332V32.332H26.6758V22.332ZM20.918 22.332H10.918V26.4141H20.918H30.918V22.332H20.918ZM32.4766 34.1914V44.1914C34.0994 44.1914 35.3671 44.3283 36.3025 44.5185C37.2554 44.7123 37.6984 44.9276 37.795 44.9816C37.8732 45.0254 37.4727 44.8191 37.0509 44.1695C36.5883 43.4572 36.3984 42.6667 36.3984 42.0547H46.3984H56.3984C56.3984 35.2651 52.4816 30.2801 47.5575 27.5262C43.0801 25.022 37.6777 24.1914 32.4766 24.1914V34.1914ZM46.3984 42.0547H36.3984C36.3984 41.3854 36.608 40.5635 37.0822 39.8422C37.5124 39.188 37.9144 38.9862 37.8248 39.0359C37.7198 39.0942 37.2679 39.3107 36.3099 39.5048C35.3696 39.6953 34.0989 39.832 32.4766 39.832V49.832V59.832C37.6818 59.832 43.0662 58.9999 47.5277 56.5246C52.4078 53.8171 56.3984 48.8716 56.3984 42.0547H46.3984ZM32.4766 49.832V39.832C30.8815 39.832 29.6312 39.6962 28.7065 39.5075C27.7643 39.3153 27.3209 39.1014 27.2201 39.0452C27.1345 38.9975 27.5339 39.1998 27.9609 39.8504C28.4314 40.5676 28.6406 41.3858 28.6406 42.0547H18.6406H8.64063C8.64063 48.8639 12.6224 53.806 17.484 56.5154C21.9345 58.9956 27.3005 59.832 32.4766 59.832V49.832ZM18.6406 42.0547H28.6406C28.6406 42.6664 28.451 43.4531 27.9922 44.1613C27.5736 44.8073 27.1757 45.014 27.25 44.9723C27.3424 44.9204 27.7768 44.7077 28.7139 44.5157C29.6338 44.3273 30.881 44.1914 32.4766 44.1914V34.1914V24.1914C27.3046 24.1914 21.9206 25.0263 17.4541 27.5355C12.5489 30.2913 8.64062 35.2726 8.64063 42.0547H18.6406ZM32.4766 39.3906V29.3906C29.9596 29.3906 26.6852 29.5358 23.7586 30.6111C22.1797 31.1913 19.9978 32.2916 18.2122 34.4523C16.2534 36.8225 15.4594 39.6344 15.5181 42.2769L25.5156 42.0547L35.5132 41.8325C35.5504 43.5082 35.025 45.5037 33.6288 47.1931C32.4058 48.673 31.0806 49.2281 30.6565 49.384C30.2107 49.5478 30.0755 49.5208 30.5065 49.4723C30.8934 49.4288 31.5249 49.3906 32.4766 49.3906V39.3906ZM25.5156 42.0547L15.5185 41.8167C15.4519 44.6118 16.3609 47.4454 18.3466 49.7486C20.1316 51.819 22.2722 52.8678 23.7971 53.421C26.6759 54.4654 29.896 54.6328 32.4766 54.6328V44.6328V34.6328C31.5429 34.6328 30.9156 34.5933 30.529 34.549C30.1013 34.4999 30.2076 34.4711 30.6179 34.62C30.988 34.7543 32.2719 35.2714 33.4943 36.6892C34.9174 38.3398 35.5579 40.4 35.5128 42.2927L25.5156 42.0547ZM32.4766 44.6328V54.6328C35.0853 54.6328 38.2956 54.4629 41.1652 53.4408C42.6801 52.9013 44.792 51.8864 46.5805 49.8882C48.5704 47.665 49.5664 44.8808 49.5664 42.0547H39.5664H29.5664C29.5664 40.131 30.2723 38.1202 31.6781 36.5496C32.8826 35.2039 34.1163 34.7208 34.4549 34.6002C34.835 34.4648 34.9133 34.4972 34.4699 34.5474C34.0659 34.5932 33.4227 34.6328 32.4766 34.6328V44.6328ZM39.5664 42.0547H49.5664C49.5664 39.3784 48.6892 36.6077 46.7187 34.3111C44.9258 32.2214 42.7705 31.1562 41.2033 30.5909C38.2862 29.5386 35.0227 29.3906 32.4766 29.3906V39.3906V49.3906C33.4405 49.3906 34.0879 49.4289 34.4922 49.4738C34.9386 49.5234 34.832 49.554 34.4168 49.4042C34.0259 49.2632 32.7488 48.7432 31.5399 47.3343C30.1535 45.7184 29.5664 43.7642 29.5664 42.0547H39.5664ZM33.4648 23.5352V33.5352H39.4375V23.5352V13.5352H33.4648V23.5352ZM39.4375 23.5352H49.4375V20.8281H39.4375H29.4375V23.5352H39.4375ZM39.4375 20.8281V10.8281H33.4648V20.8281V30.8281H39.4375V20.8281ZM33.4648 20.8281H23.4648V23.5352H33.4648H43.4648V20.8281H33.4648ZM82.2344 11.5469H92.2344C92.2344 6.02403 87.7572 1.54687 82.2344 1.54687V11.5469ZM82.2344 25.8984V35.8984C87.7572 35.8984 92.2344 31.4213 92.2344 25.8984H82.2344ZM72.0508 25.8984V15.8984C66.5279 15.8984 62.0508 20.3756 62.0508 25.8984H72.0508ZM72.0508 28.8633H62.0508C62.0508 34.3861 66.5279 38.8633 72.0508 38.8633V28.8633ZM86.7891 28.8633H96.7891C96.7891 23.3404 92.3119 18.8633 86.7891 18.8633V28.8633ZM86.7891 34.3633V44.3633C92.3119 44.3633 96.7891 39.8861 96.7891 34.3633H86.7891ZM50.5234 34.3633H40.5234C40.5234 39.8861 45.0006 44.3633 50.5234 44.3633V34.3633ZM50.5234 28.8633V18.8633C45.0006 18.8633 40.5234 23.3404 40.5234 28.8633H50.5234ZM65.0898 28.8633V38.8633C70.6127 38.8633 75.0898 34.3861 75.0898 28.8633H65.0898ZM65.0898 25.8984H75.0898C75.0898 20.3756 70.6127 15.8984 65.0898 15.8984V25.8984ZM54.9062 25.8984H44.9062C44.9062 31.4213 49.3834 35.8984 54.9062 35.8984V25.8984ZM54.9062 11.5469V1.54687C49.3834 1.54687 44.9062 6.02403 44.9062 11.5469H54.9062ZM61.6094 16.875V6.875C56.0865 6.875 51.6094 11.3522 51.6094 16.875H61.6094ZM61.6094 20.5273H51.6094C51.6094 26.0502 56.0865 30.5273 61.6094 30.5273V20.5273ZM75.4453 20.5273V30.5273C80.9682 30.5273 85.4453 26.0502 85.4453 20.5273L75.4453 20.5273ZM75.4453 16.875L85.4453 16.875C85.4453 11.3522 80.9682 6.875 75.4453 6.875V16.875ZM82.4062 36.5117H92.4062C92.4062 30.9889 87.9291 26.5117 82.4062 26.5117V36.5117ZM82.4062 49.7461V59.7461C87.9291 59.7461 92.4062 55.2689 92.4062 49.7461H82.4062ZM75.5312 49.7461H65.5312C65.5312 55.2689 70.0084 59.7461 75.5312 59.7461V49.7461ZM75.5312 41.8828H85.5312C85.5312 36.36 81.0541 31.8828 75.5312 31.8828V41.8828ZM54.5625 41.8828H44.5625C44.5625 47.4057 49.0397 51.8828 54.5625 51.8828V41.8828ZM54.5625 36.5117V26.5117C49.0397 26.5117 44.5625 30.9889 44.5625 36.5117H54.5625ZM82.2344 11.5469H72.2344V25.8984L82.2344 25.8984H92.2344V11.5469H82.2344ZM82.2344 25.8984V15.8984L72.0508 15.8984V25.8984V35.8984H82.2344V25.8984ZM72.0508 25.8984H62.0508V28.8633H72.0508H82.0508V25.8984L72.0508 25.8984ZM72.0508 28.8633V38.8633H86.7891V28.8633V18.8633L72.0508 18.8633V28.8633ZM86.7891 28.8633H76.7891V34.3633H86.7891H96.7891V28.8633H86.7891ZM86.7891 34.3633V24.3633L50.5234 24.3633V34.3633V44.3633H86.7891V34.3633ZM50.5234 34.3633H60.5234V28.8633H50.5234H40.5234V34.3633H50.5234ZM50.5234 28.8633V38.8633H65.0898V28.8633V18.8633H50.5234V28.8633ZM65.0898 28.8633H75.0898V25.8984H65.0898H55.0898V28.8633H65.0898ZM65.0898 25.8984V15.8984H54.9062V25.8984V35.8984H65.0898V25.8984ZM54.9062 25.8984H64.9062V11.5469H54.9062H44.9062V25.8984H54.9062ZM54.9062 11.5469V21.5469L82.2344 21.5469V11.5469V1.54687L54.9062 1.54687V11.5469ZM61.6094 16.875H51.6094V20.5273H61.6094H71.6094V16.875H61.6094ZM61.6094 20.5273V30.5273H75.4453V20.5273V10.5273H61.6094V20.5273ZM75.4453 20.5273L85.4453 20.5273V16.875L75.4453 16.875H65.4453V20.5273H75.4453ZM75.4453 16.875V6.875H61.6094V16.875V26.875H75.4453V16.875ZM82.4062 36.5117H72.4062V49.7461H82.4062H92.4062V36.5117H82.4062ZM82.4062 49.7461V39.7461H75.5312V49.7461V59.7461H82.4062V49.7461ZM75.5312 49.7461H85.5312V41.8828H75.5312H65.5312V49.7461H75.5312ZM75.5312 41.8828V31.8828H54.5625V41.8828V51.8828H75.5312V41.8828ZM54.5625 41.8828H64.5625V36.5117H54.5625H44.5625V41.8828H54.5625ZM54.5625 36.5117V46.5117H82.4062V36.5117V26.5117L54.5625 26.5117V36.5117ZM121.379 17.2187L131.378 17.3168C131.379 17.2511 131.379 17.1854 131.378 17.1197L121.379 17.2187ZM91.9453 17.2187L101.945 17.3168C101.945 17.2511 101.945 17.1854 101.945 17.1197L91.9453 17.2187ZM106.684 18.9805L106.604 28.9801C106.657 28.9806 106.71 28.9806 106.763 28.9802L106.684 18.9805ZM124.816 25.2969H134.816C134.816 19.774 130.339 15.2969 124.816 15.2969V25.2969ZM124.816 30.7539V40.7539C130.339 40.7539 134.816 36.2768 134.816 30.7539H124.816ZM88.5508 30.7539H78.5508C78.5508 36.2768 83.0279 40.7539 88.5508 40.7539V30.7539ZM88.5508 25.2969V15.2969C83.0279 15.2969 78.5508 19.774 78.5508 25.2969H88.5508ZM120.52 32.2578H130.52C130.52 26.735 126.042 22.2578 120.52 22.2578V32.2578ZM120.52 43.2148V53.2148C126.042 53.2148 130.52 48.7377 130.52 43.2148H120.52ZM99.3359 43.2148V33.2148C93.8131 33.2148 89.3359 37.692 89.3359 43.2148H99.3359ZM99.3359 44.5039H89.3359C89.3359 50.0268 93.8131 54.5039 99.3359 54.5039V44.5039ZM121.465 44.5039H131.465C131.465 38.9811 126.988 34.5039 121.465 34.5039V44.5039ZM121.465 49.5742V59.5742C126.988 59.5742 131.465 55.0971 131.465 49.5742H121.465ZM92.5898 49.5742H82.5898C82.5898 55.0971 87.067 59.5742 92.5898 59.5742V49.5742ZM92.5898 38.4883V28.4883C87.067 28.4883 82.5898 32.9654 82.5898 38.4883H92.5898ZM113.73 38.4883V48.4883C119.253 48.4883 123.73 44.0111 123.73 38.4883H113.73ZM113.73 37.2852H123.73C123.73 31.7623 119.253 27.2852 113.73 27.2852V37.2852ZM92.6328 37.2852H82.6328C82.6328 42.808 87.11 47.2852 92.6328 47.2852V37.2852ZM92.6328 32.2578V22.2578C87.11 22.2578 82.6328 26.735 82.6328 32.2578H92.6328ZM106.684 10.5156V20.5156C108.612 20.5156 110.151 20.6392 111.33 20.8275C112.535 21.02 113.165 21.249 113.387 21.3494C113.617 21.4538 113.109 21.2804 112.502 20.505C111.794 19.6003 111.39 18.4288 111.379 17.3178L121.379 17.2187L131.378 17.1197C131.306 9.78613 126.355 5.26676 121.636 3.13007C117.249 1.14355 111.937 0.515625 106.684 0.515625V10.5156ZM121.379 17.2187L111.379 17.1207C111.39 16.0441 111.778 14.8886 112.48 13.985C113.084 13.2084 113.594 13.0316 113.371 13.133C113.154 13.2315 112.529 13.4603 111.326 13.6529C110.15 13.8412 108.612 13.9648 106.684 13.9648V23.9648V33.9648C111.934 33.9648 117.256 33.3378 121.653 31.3377C126.407 29.1749 131.307 24.6299 131.378 17.3168L121.379 17.2187ZM106.684 23.9648V13.9648C104.742 13.9648 103.187 13.841 101.993 13.6512C100.771 13.4568 100.131 13.2253 99.9046 13.1231C99.6666 13.0155 100.198 13.1961 100.824 14.0048C101.558 14.9544 101.956 16.1768 101.945 17.3168L91.9453 17.2187L81.9458 17.1207C81.8724 24.6082 86.9285 29.2059 91.6667 31.3476C96.0723 33.3391 101.418 33.9648 106.684 33.9648V23.9648ZM91.9453 17.2187L101.945 17.1197C101.956 18.2952 101.543 19.5344 100.802 20.4852C100.173 21.2927 99.643 21.4698 99.8885 21.3593C100.12 21.2552 100.765 21.0234 101.99 20.8292C103.186 20.6394 104.742 20.5156 106.684 20.5156V10.5156V0.515625C101.415 0.515625 96.0791 1.14229 91.6828 3.12017C86.9814 5.23532 81.8714 9.80756 81.9458 17.3178L91.9453 17.2187ZM106.684 15.5V5.5C103.935 5.5 101.065 5.60872 98.6579 6.16502C97.5021 6.43215 95.4589 7.01263 93.521 8.49003C91.1464 10.3003 89.1641 13.3361 89.1641 17.2187H99.1641H109.164C109.164 18.6243 108.833 20.1198 108.082 21.5217C107.354 22.8801 106.418 23.807 105.646 24.3952C104.9 24.9644 104.241 25.2695 103.871 25.4187C103.49 25.5729 103.228 25.636 103.161 25.6514C103.057 25.6754 103.257 25.623 103.943 25.5748C104.59 25.5294 105.482 25.5 106.684 25.5V15.5ZM99.1641 17.2187H89.1641C89.1641 20.5239 90.6019 23.706 93.3033 25.8861C95.4259 27.5992 97.7094 28.1787 98.8649 28.4201C101.22 28.9121 104.128 28.9603 106.604 28.9801L106.684 18.9805L106.764 8.98079C105.468 8.97042 104.514 8.94762 103.796 8.90785C103.028 8.86526 102.834 8.81754 102.954 8.84263C103.036 8.85961 103.354 8.92924 103.807 9.10871C104.255 9.2859 105.023 9.64408 105.864 10.3225C106.752 11.0393 107.663 12.0705 108.313 13.4499C108.959 14.8216 109.164 16.1475 109.164 17.2187H99.1641ZM106.684 18.9805L106.763 28.9802C109.259 28.9603 112.174 28.912 114.531 28.4219C115.686 28.1817 117.972 27.6047 120.097 25.8933C122.806 23.7125 124.246 20.5264 124.246 17.2187H114.246H104.246C104.246 16.1476 104.451 14.8198 105.099 13.4457C105.751 12.0637 106.664 11.0318 107.554 10.3153C108.396 9.63745 109.165 9.28046 109.611 9.10441C110.064 8.92603 110.38 8.85723 110.459 8.84082C110.574 8.81682 110.375 8.86492 109.599 8.90766C108.874 8.94759 107.911 8.97041 106.604 8.98078L106.684 18.9805ZM114.246 17.2187H124.246C124.246 13.3329 122.26 10.294 119.879 8.48317C117.939 7.00718 115.893 6.42878 114.737 6.16284C112.329 5.60863 109.451 5.5 106.684 5.5V15.5V25.5C107.897 25.5 108.799 25.5295 109.454 25.5751C110.147 25.6235 110.352 25.6765 110.253 25.6536C110.189 25.6388 109.928 25.5764 109.547 25.4232C109.179 25.2749 108.52 24.9708 107.772 24.4021C106.999 23.8142 106.061 22.8868 105.331 21.5261C104.578 20.1218 104.246 18.6244 104.246 17.2187H114.246ZM124.816 25.2969H114.816V30.7539H124.816H134.816V25.2969H124.816ZM124.816 30.7539V20.7539H88.5508V30.7539V40.7539H124.816V30.7539ZM88.5508 30.7539H98.5508V25.2969H88.5508H78.5508V30.7539H88.5508ZM88.5508 25.2969V35.2969H124.816V25.2969V15.2969H88.5508V25.2969ZM120.52 32.2578H110.52V43.2148H120.52H130.52V32.2578H120.52ZM120.52 43.2148V33.2148H99.3359V43.2148V53.2148H120.52V43.2148ZM99.3359 43.2148H89.3359V44.5039H99.3359H109.336V43.2148H99.3359ZM99.3359 44.5039V54.5039H121.465V44.5039V34.5039H99.3359V44.5039ZM121.465 44.5039H111.465V49.5742H121.465H131.465V44.5039H121.465ZM121.465 49.5742V39.5742H92.5898V49.5742V59.5742H121.465V49.5742ZM92.5898 49.5742H102.59V38.4883H92.5898H82.5898V49.5742H92.5898ZM92.5898 38.4883V48.4883H113.73V38.4883V28.4883H92.5898V38.4883ZM113.73 38.4883H123.73V37.2852H113.73H103.73V38.4883H113.73ZM113.73 37.2852V27.2852H92.6328V37.2852V47.2852H113.73V37.2852ZM92.6328 37.2852H102.633V32.2578H92.6328H82.6328V37.2852H92.6328ZM92.6328 32.2578V42.2578H120.52V32.2578V22.2578H92.6328V32.2578ZM172.426 25.3398H182.426C182.426 19.817 177.949 15.3398 172.426 15.3398V25.3398ZM172.426 30.668V40.668C177.949 40.668 182.426 36.1908 182.426 30.668H172.426ZM157.688 30.668V20.668C152.165 20.668 147.688 25.1451 147.688 30.668H157.688ZM157.688 32.3437H147.688C147.688 37.8666 152.165 42.3437 157.688 42.3437V32.3437ZM168.129 32.3437H178.129C178.129 26.8209 173.652 22.3437 168.129 22.3437V32.3437ZM168.129 43.1719V53.1719C173.652 53.1719 178.129 48.6947 178.129 43.1719H168.129ZM146.945 43.1719V33.1719C141.422 33.1719 136.945 37.649 136.945 43.1719L146.945 43.1719ZM146.945 44.5039L136.945 44.5039C136.945 50.0268 141.422 54.5039 146.945 54.5039V44.5039ZM169.074 44.5039H179.074C179.074 38.9811 174.597 34.5039 169.074 34.5039V44.5039ZM169.074 49.5742V59.5742C174.597 59.5742 179.074 55.0971 179.074 49.5742H169.074ZM140.199 49.5742L130.199 49.5742C130.199 55.0971 134.676 59.5742 140.199 59.5742V49.5742ZM140.199 38.4883V28.4883C134.676 28.4883 130.199 32.9654 130.199 38.4883L140.199 38.4883ZM161.34 38.4883V48.4883C166.863 48.4883 171.34 44.0111 171.34 38.4883H161.34ZM161.34 37.3711H171.34C171.34 31.8482 166.863 27.3711 161.34 27.3711V37.3711ZM140.242 37.3711L130.242 37.3711C130.242 42.8939 134.719 47.3711 140.242 47.3711V37.3711ZM140.242 32.3437V22.3437C134.719 22.3437 130.242 26.8209 130.242 32.3438L140.242 32.3437ZM150.855 32.3437V42.3437C156.378 42.3437 160.855 37.8666 160.855 32.3437H150.855ZM150.855 30.668H160.855C160.855 25.1451 156.378 20.668 150.855 20.668V30.668ZM136.16 30.668H126.16C126.16 36.1908 130.637 40.668 136.16 40.668V30.668ZM136.16 25.3398V15.3398C130.637 15.3398 126.16 19.817 126.16 25.3398H136.16ZM169.117 10.9883L179.117 10.9883C179.117 5.46543 174.64 0.988281 169.117 0.988281V10.9883ZM169.117 16.1875V26.1875C174.64 26.1875 179.117 21.7103 179.117 16.1875H169.117ZM159.449 16.1875V6.1875C155.468 6.1875 151.866 8.54894 150.279 12.1998C148.691 15.8507 149.42 20.0955 152.135 23.0072L159.449 16.1875ZM171.051 19.668L180.27 23.5416C181.528 20.5479 181.254 17.1299 179.535 14.3748C177.816 11.6198 174.867 9.8709 171.625 9.68446L171.051 19.668ZM168.902 24.7812L168.287 34.7623C172.53 35.0238 176.475 32.5741 178.122 28.6549L168.902 24.7812ZM154.25 19.1953L162.174 13.0954C160.299 10.6598 157.408 9.22169 154.335 9.19567C151.261 9.16965 148.346 10.5586 146.43 12.9622L154.25 19.1953ZM139.684 24.7812L130.437 28.5887C132.066 32.5463 136.034 35.0281 140.306 34.7619L139.684 24.7812ZM137.578 19.668L136.966 9.6867C133.744 9.88417 130.816 11.6247 129.103 14.3604C127.39 17.0962 127.102 20.4907 128.331 23.4755L137.578 19.668ZM149.051 16.1875L156.365 23.0072C159.08 20.0955 159.809 15.8507 158.221 12.1998C156.634 8.54894 153.032 6.1875 149.051 6.1875V16.1875ZM139.469 16.1875H129.469C129.469 21.7103 133.946 26.1875 139.469 26.1875V16.1875ZM139.469 10.9883V0.988281C133.946 0.988281 129.469 5.46543 129.469 10.9883H139.469ZM172.426 25.3398H162.426V30.668H172.426H182.426V25.3398H172.426ZM172.426 30.668V20.668H157.688V30.668V40.668H172.426V30.668ZM157.688 30.668H147.688V32.3437H157.688H167.688V30.668H157.688ZM157.688 32.3437V42.3437H168.129V32.3437V22.3437H157.688V32.3437ZM168.129 32.3437H158.129V43.1719H168.129H178.129V32.3437H168.129ZM168.129 43.1719V33.1719H146.945V43.1719V53.1719H168.129V43.1719ZM146.945 43.1719L136.945 43.1719V44.5039L146.945 44.5039H156.945V43.1719H146.945ZM146.945 44.5039V54.5039H169.074V44.5039V34.5039H146.945V44.5039ZM169.074 44.5039H159.074V49.5742H169.074H179.074V44.5039H169.074ZM169.074 49.5742V39.5742H140.199V49.5742V59.5742H169.074V49.5742ZM140.199 49.5742H150.199V38.4883H140.199L130.199 38.4883V49.5742L140.199 49.5742ZM140.199 38.4883V48.4883H161.34V38.4883V28.4883H140.199V38.4883ZM161.34 38.4883H171.34V37.3711H161.34H151.34V38.4883H161.34ZM161.34 37.3711V27.3711H140.242V37.3711V47.3711H161.34V37.3711ZM140.242 37.3711H150.242V32.3437H140.242L130.242 32.3438V37.3711L140.242 37.3711ZM140.242 32.3437V42.3437H150.855V32.3437V22.3437H140.242V32.3437ZM150.855 32.3437H160.855V30.668H150.855H140.855V32.3437H150.855ZM150.855 30.668V20.668H136.16V30.668V40.668L150.855 40.668V30.668ZM136.16 30.668L146.16 30.668V25.3398H136.16H126.16V30.668H136.16ZM136.16 25.3398V35.3398L172.426 35.3398V25.3398V15.3398H136.16V25.3398ZM169.117 10.9883H159.117V16.1875H169.117H179.117V10.9883L169.117 10.9883ZM169.117 16.1875V6.1875H159.449V16.1875V26.1875H169.117V16.1875ZM159.449 16.1875L152.135 23.0072C156.357 27.5346 163.119 29.2284 170.477 29.6515L171.051 19.668L171.625 9.68446C168.856 9.52525 167.245 9.15764 166.438 8.88936C165.587 8.60648 166.016 8.56697 166.763 9.36784L159.449 16.1875ZM171.051 19.668L161.832 15.7943L159.683 20.9076L168.902 24.7812L178.122 28.6549L180.27 23.5416L171.051 19.668ZM168.902 24.7812L169.517 14.8002C166.425 14.6096 164.44 14.1105 163.267 13.6426C162.118 13.1844 161.994 12.8611 162.174 13.0954L154.25 19.1953L146.326 25.2952C151.239 31.6774 159.509 34.2213 168.287 34.7623L168.902 24.7812ZM154.25 19.1953L146.43 12.9622C146.612 12.7343 145.386 14.4065 139.062 14.8006L139.684 24.7812L140.306 34.7619C149.149 34.2107 157.162 31.586 162.07 25.4284L154.25 19.1953ZM139.684 24.7812L148.93 20.9738L146.825 15.8605L137.578 19.668L128.331 23.4755L130.437 28.5887L139.684 24.7812ZM137.578 19.668L138.19 29.6492C145.483 29.2022 152.159 27.5181 156.365 23.0072L149.051 16.1875L141.737 9.36784C142.465 8.58747 142.889 8.61737 142.077 8.88953C141.294 9.15203 139.714 9.51831 136.966 9.6867L137.578 19.668ZM149.051 16.1875V6.1875H139.469V16.1875V26.1875H149.051V16.1875ZM139.469 16.1875H149.469V10.9883H139.469H129.469V16.1875H139.469ZM139.469 10.9883V20.9883H169.117V10.9883V0.988281L139.469 0.988281V10.9883ZM207.746 10H217.746C217.746 4.47715 213.269 0 207.746 0V10ZM207.746 49.875V59.875C213.269 59.875 217.746 55.3978 217.746 49.875H207.746ZM200.785 49.875H190.785C190.785 55.3978 195.262 59.875 200.785 59.875V49.875ZM200.785 10V0C195.262 0 190.785 4.47715 190.785 10H200.785ZM185.918 12.6641L185.849 22.6638C185.895 22.6641 185.942 22.6641 185.989 22.6638L185.918 12.6641ZM185.918 18.8945L185.749 28.8931C185.866 28.8951 185.983 28.895 186.1 28.8929L185.918 18.8945ZM207.746 10H197.746V49.875H207.746H217.746V10H207.746ZM207.746 49.875V39.875H200.785V49.875V59.875H207.746V49.875ZM200.785 49.875H210.785V10H200.785H190.785V49.875H200.785ZM200.785 10V20L207.746 20V10V0H200.785V10ZM185.918 12.6641L185.989 22.6638C185.921 22.6643 185.752 22.6406 185.576 22.5508C185.415 22.4681 185.423 22.4198 185.544 22.5782C185.815 22.9327 186.531 24.2334 186.531 26.9727H196.531L206.531 26.9727C206.531 20.9463 204.971 15.0712 201.449 10.4521C197.802 5.66819 192.269 2.61877 185.847 2.66431L185.918 12.6641ZM196.531 26.9727H186.531C186.531 29.8028 185.802 31.1249 185.532 31.4804C185.411 31.6391 185.4 31.594 185.554 31.5147C185.72 31.4293 185.873 31.4102 185.918 31.4102V41.4102V51.4102C192.291 51.4102 197.81 48.3834 201.462 43.5733C204.984 38.9337 206.531 33.0371 206.531 26.9727L196.531 26.9727ZM185.918 41.4102V31.4102C185.896 31.4102 186.001 31.4135 186.139 31.483C186.267 31.5479 186.248 31.5815 186.129 31.4265C185.863 31.0816 185.133 29.7839 185.133 26.9727H175.133H165.133C165.133 33.056 166.701 38.977 170.281 43.6273C173.994 48.4498 179.556 51.4102 185.918 51.4102V41.4102ZM175.133 26.9727H185.133C185.133 24.2526 185.85 22.9762 186.116 22.632C186.236 22.4774 186.252 22.5139 186.117 22.5822C186.056 22.6127 185.99 22.6363 185.928 22.6507C185.866 22.6649 185.835 22.6637 185.849 22.6638L185.918 12.6641L185.987 2.6643C179.578 2.6198 174.003 5.60151 170.294 10.3982C166.715 15.0277 165.133 20.9271 165.133 26.9727H175.133ZM185.918 18.8945L186.087 8.89597C180.456 8.80052 176.258 12.0746 174.084 16.1436C172.243 19.59 171.793 23.5385 171.793 26.9727H181.793H191.793C191.793 26.0559 191.861 25.4897 191.914 25.2055C191.97 24.8993 191.976 25.0966 191.725 25.5664C191.459 26.0649 190.833 26.9904 189.619 27.7722C188.341 28.5955 186.944 28.9134 185.749 28.8931L185.918 18.8945ZM181.793 26.9727H171.793C171.793 30.4271 172.237 34.3944 174.092 37.8541C176.307 41.9836 180.482 45.0937 185.918 45.0937V35.0937V25.0937C187.028 25.0937 188.364 25.3965 189.611 26.1982C190.808 26.9673 191.439 27.8831 191.717 28.4018C191.976 28.8846 191.972 29.0928 191.915 28.7849C191.862 28.4977 191.793 27.9194 191.793 26.9727H181.793ZM185.918 35.0937V45.0937C191.517 45.0937 195.568 41.7294 197.644 37.7986C199.444 34.3926 199.914 30.4806 199.914 26.9727H189.914H179.914C179.914 27.9039 179.844 28.4806 179.79 28.7724C179.732 29.0842 179.723 28.9062 179.96 28.4572C180.209 27.9865 180.804 27.0851 181.976 26.3005C183.217 25.4703 184.626 25.0937 185.918 25.0937V35.0937ZM189.914 26.9727H199.914C199.914 23.4853 199.437 19.5914 197.652 16.199C195.622 12.3393 191.543 8.79061 185.736 8.89618L185.918 18.8945L186.1 28.8929C184.714 28.9181 183.239 28.5217 181.969 27.6697C180.78 26.8723 180.189 25.9614 179.952 25.511C179.723 25.075 179.734 24.9078 179.792 25.218C179.846 25.507 179.914 26.0715 179.914 26.9727H189.914ZM244.57 20.0977H254.57C254.57 14.5748 250.093 10.0977 244.57 10.0977V20.0977ZM244.57 25.4258V35.4258C250.093 35.4258 254.57 30.9486 254.57 25.4258H244.57ZM216.469 25.4258H206.469C206.469 30.9486 210.946 35.4258 216.469 35.4258V25.4258ZM216.469 11.418V1.41797C210.946 1.41797 206.469 5.89512 206.469 11.418H216.469ZM223.344 11.418H233.344C233.344 5.89512 228.867 1.41797 223.344 1.41797V11.418ZM223.344 20.0977H213.344C213.344 25.6205 217.821 30.0977 223.344 30.0977V20.0977ZM248.48 28.9492H258.48C258.48 23.4264 254.003 18.9492 248.48 18.9492V28.9492ZM248.48 34.2773V44.2773C254.003 44.2773 258.48 39.8002 258.48 34.2773H248.48ZM212.215 34.2773H202.215C202.215 39.8002 206.692 44.2773 212.215 44.2773V34.2773ZM212.215 28.9492V18.9492C206.692 18.9492 202.215 23.4264 202.215 28.9492H212.215ZM244.828 43.4727H254.828C254.828 37.9498 250.351 33.4727 244.828 33.4727V43.4727ZM244.828 48.9727V58.9727C250.351 58.9727 254.828 54.4955 254.828 48.9727H244.828ZM215.996 48.9727H205.996C205.996 54.4955 210.473 58.9727 215.996 58.9727V48.9727ZM215.996 37.0273V27.0273C210.473 27.0273 205.996 31.5045 205.996 37.0273H215.996ZM222.957 37.0273H232.957C232.957 31.5045 228.48 27.0273 222.957 27.0273V37.0273ZM222.957 43.4727H212.957C212.957 48.9955 217.434 53.4727 222.957 53.4727V43.4727ZM244.57 20.0977H234.57V25.4258H244.57H254.57V20.0977H244.57ZM244.57 25.4258V15.4258H216.469V25.4258V35.4258H244.57V25.4258ZM216.469 25.4258H226.469V11.418H216.469H206.469V25.4258H216.469ZM216.469 11.418V21.418H223.344V11.418V1.41797L216.469 1.41797V11.418ZM223.344 11.418H213.344V20.0977H223.344H233.344V11.418H223.344ZM223.344 20.0977V30.0977H244.57V20.0977V10.0977L223.344 10.0977V20.0977ZM248.48 28.9492H238.48V34.2773H248.48H258.48V28.9492H248.48ZM248.48 34.2773V24.2773H212.215V34.2773V44.2773H248.48V34.2773ZM212.215 34.2773H222.215V28.9492H212.215H202.215V34.2773H212.215ZM212.215 28.9492V38.9492H248.48V28.9492V18.9492H212.215V28.9492ZM244.828 43.4727H234.828V48.9727H244.828H254.828V43.4727H244.828ZM244.828 48.9727V38.9727H215.996V48.9727V58.9727H244.828V48.9727ZM215.996 48.9727H225.996V37.0273H215.996H205.996V48.9727H215.996ZM215.996 37.0273V47.0273H222.957V37.0273V27.0273H215.996V37.0273ZM222.957 37.0273H212.957V43.4727H222.957H232.957V37.0273H222.957ZM222.957 43.4727V53.4727H244.828V43.4727V33.4727H222.957V43.4727Z" fill="white" mask="url(#path-1-outside-1_6524_1858)"/>
</g>
<defs>
<filter id="filter0_d_6524_1858" x="0" y="0" width="262.48" height="67.875" filterUnits="userSpaceOnUse" color-interpolation-filters="sRGB">
<feFlood flood-opacity="0" result="BackgroundImageFix"/>
<feColorMatrix in="SourceAlpha" type="matrix" values="0 0 0 0 0 0 0 0 0 0 0 0 0 0 0 0 0 0 127 0" result="hardAlpha"/>
<feOffset dy="4"/>
<feGaussianBlur stdDeviation="2"/>
<feComposite in2="hardAlpha" operator="out"/>
<feColorMatrix type="matrix" values="0 0 0 0 0 0 0 0 0 0 0 0 0 0 0 0 0 0 0.07 0"/>
<feBlend mode="normal" in2="BackgroundImageFix" result="effect1_dropShadow_6524_1858"/>
<feBlend mode="normal" in="SourceGraphic" in2="effect1_dropShadow_6524_1858" result="shape"/>
</filter>
</defs>
</svg>
