<svg width="436" height="68" viewBox="0 0 436 68" fill="none" xmlns="http://www.w3.org/2000/svg">
<g filter="url(#filter0_d_6524_1867)">
<mask id="path-1-outside-1_6524_1867" maskUnits="userSpaceOnUse" x="3.09766" y="-0.507813" width="429" height="61" fill="black">
<rect fill="white" x="3.09766" y="-0.507813" width="429" height="61"/>
<path d="M50.3086 39.9062V45.4492H14V39.9062H28.6953V33.332H17.5664V12.3633H24.4844V17.9062H39.6523V12.3633L46.5273 12.3633V33.332H35.5273V39.9062H50.3086ZM24.4844 27.875H39.6523V23.3203H24.4844V27.875ZM85.5859 10V49.875H78.625V10H85.5859ZM63.7578 12.6641C69.8164 12.6211 74.3711 18.207 74.3711 26.9727C74.3711 35.8672 69.8164 41.4102 63.7578 41.4102C57.5703 41.4102 52.9727 35.8672 52.9727 26.9727C52.9727 18.207 57.5703 12.6211 63.7578 12.6641ZM63.7578 18.8945C61.2227 18.8516 59.6328 21.4727 59.6328 26.9727C59.6328 32.5586 61.2227 35.0938 63.7578 35.0938C66.1211 35.0938 67.7539 32.5586 67.7539 26.9727C67.7539 21.4727 66.1211 18.8516 63.7578 18.8945ZM106.168 19.9687C106.168 26.1992 108.488 33.0742 115.664 35.9961L112.012 41.3672C107.457 39.498 104.514 36.0176 102.816 31.7422C101.076 36.4902 98.0898 40.3574 93.4492 42.3984L89.582 36.9844C96.7148 33.8906 99.1211 26.6289 99.1211 19.9687V19.2812H91.3008V13.6953H113.773V19.2812H106.168V19.9687ZM123.613 10V49.7461H116.652V10H123.613ZM148.535 11.7187C154.766 11.7187 159.406 15.6289 159.406 21C159.406 26.5 154.766 30.4102 148.535 30.4102C142.391 30.4102 137.621 26.5 137.621 21C137.621 15.6289 142.391 11.7187 148.535 11.7187ZM148.535 17.3477C146.129 17.3477 144.281 18.5937 144.324 21C144.281 23.4922 146.129 24.7812 148.535 24.8242C150.941 24.7812 152.703 23.4922 152.746 21C152.703 18.5937 150.941 17.3477 148.535 17.3477ZM169.461 10V17.8633H174.402V23.4922H169.461V29.5078H162.543V10H169.461ZM147.547 33.0312V43.0859C149.459 42.957 151.027 42.6562 152.66 42.1406L153.605 47.4258C150.598 48.5859 147.762 48.7148 143.207 48.7148L140.801 48.7148V33.0312L147.547 33.0312ZM172.211 32.9883V37.9297H152.273V32.9883H158.977V30.625H165.637V32.9883H172.211ZM162.199 38.5742C166.84 38.6172 170.062 40.8086 170.105 44.2461C170.062 47.6836 166.84 49.832 162.199 49.832C157.473 49.832 154.336 47.6836 154.336 44.2461C154.336 40.8086 157.473 38.6172 162.199 38.5742ZM162.199 43.3008C161.211 43.3008 160.438 43.5156 160.438 44.2461C160.438 44.9766 161.211 45.1914 162.199 45.1914C163.188 45.1914 163.961 44.9766 163.961 44.2461C163.961 43.5156 163.188 43.3008 162.199 43.3008ZM208.047 20.0977V25.4258L179.945 25.4258V11.418H186.82V20.0977L208.047 20.0977ZM211.957 28.9492V34.2773H175.691V28.9492H211.957ZM208.305 43.4727V48.9727H179.473V37.0273H186.434V43.4727H208.305ZM234.602 11.0312C240.746 10.9883 245.43 14.8984 245.43 20.2695C245.43 25.5977 240.746 29.4648 234.602 29.4648C228.414 29.4648 223.688 25.5977 223.73 20.2695C223.688 14.8984 228.414 10.9883 234.602 11.0312ZM234.602 16.5742C232.152 16.6172 230.348 17.7773 230.391 20.2695C230.348 22.7187 232.152 23.9648 234.602 23.9648C237.051 23.9648 238.77 22.7187 238.77 20.2695C238.77 17.7773 237.051 16.6172 234.602 16.5742ZM256.816 10V29.6367H249.898V10H256.816ZM256.816 31.0977V42.6562H236.492V44.0312H257.676V49.4023H229.746V37.7148H249.941V36.3398H229.66V31.0977H256.816ZM279.461 10.5156C288.785 10.5156 294.113 12.8789 294.156 17.2187C294.113 21.6016 288.785 23.9648 279.461 23.9648C270.094 23.9648 264.68 21.6016 264.723 17.2187C264.68 12.8789 270.094 10.5156 279.461 10.5156ZM279.461 15.5C274.09 15.5 271.941 16.0156 271.941 17.2187C271.941 18.6797 274.09 18.9375 279.461 18.9805C284.875 18.9375 287.023 18.6797 287.023 17.2187C287.023 16.0156 284.875 15.5 279.461 15.5ZM297.594 25.2969V30.7539H261.328V25.2969H297.594ZM293.297 32.2578V43.2148H272.113V44.5039H294.242V49.5742H265.367V38.4883H286.508V37.2852H265.41V32.2578H293.297ZM327.371 14.082V19.4102H321.957C321.979 22.9121 323.654 26.1777 328.445 27.7461V10.7305H334.934V19.0234H336.781V10.0859H343.312V34.3633H336.781V24.5664H334.934V33.2031H328.445V28.1758L325.652 32.8594C322.408 31.8926 320.238 30.0664 318.863 27.7461C317.51 30.4531 315.275 32.5801 311.859 33.8047L308.68 28.7773C313.686 26.9512 315.34 23.2129 315.426 19.4102H310.012V14.082H315.426V10.6875H321.957V14.082H327.371ZM329.434 34.4922C337.984 34.5352 343.484 37.4141 343.527 42.2695C343.484 46.9961 337.984 49.832 329.434 49.832C320.883 49.832 315.426 46.9961 315.469 42.2695C315.426 37.4141 320.883 34.5352 329.434 34.4922ZM329.434 39.7344C324.836 39.6914 322.344 40.5078 322.344 42.2695C322.344 43.9453 324.836 44.6328 329.434 44.6328C334.074 44.6328 336.523 43.9453 336.566 42.2695C336.523 40.5078 334.074 39.6914 329.434 39.7344ZM380.695 10V49.7461H373.691V10H380.695ZM368.664 14.082C368.664 26.543 365.141 36.4687 350.402 43.3437L346.879 37.9297C356.805 33.2031 360.779 27.7461 361.66 19.4531H349.156V14.082H368.664ZM417.348 20.0977V25.4258H389.246V11.418H396.121V20.0977H417.348ZM421.258 28.9492V34.2773L384.992 34.2773V28.9492L421.258 28.9492ZM417.605 43.4727V48.9727L388.773 48.9727V37.0273H395.734V43.4727L417.605 43.4727Z"/>
</mask>
<path d="M50.3086 39.9062V45.4492H14V39.9062H28.6953V33.332H17.5664V12.3633H24.4844V17.9062H39.6523V12.3633L46.5273 12.3633V33.332H35.5273V39.9062H50.3086ZM24.4844 27.875H39.6523V23.3203H24.4844V27.875ZM85.5859 10V49.875H78.625V10H85.5859ZM63.7578 12.6641C69.8164 12.6211 74.3711 18.207 74.3711 26.9727C74.3711 35.8672 69.8164 41.4102 63.7578 41.4102C57.5703 41.4102 52.9727 35.8672 52.9727 26.9727C52.9727 18.207 57.5703 12.6211 63.7578 12.6641ZM63.7578 18.8945C61.2227 18.8516 59.6328 21.4727 59.6328 26.9727C59.6328 32.5586 61.2227 35.0938 63.7578 35.0938C66.1211 35.0938 67.7539 32.5586 67.7539 26.9727C67.7539 21.4727 66.1211 18.8516 63.7578 18.8945ZM106.168 19.9687C106.168 26.1992 108.488 33.0742 115.664 35.9961L112.012 41.3672C107.457 39.498 104.514 36.0176 102.816 31.7422C101.076 36.4902 98.0898 40.3574 93.4492 42.3984L89.582 36.9844C96.7148 33.8906 99.1211 26.6289 99.1211 19.9687V19.2812H91.3008V13.6953H113.773V19.2812H106.168V19.9687ZM123.613 10V49.7461H116.652V10H123.613ZM148.535 11.7187C154.766 11.7187 159.406 15.6289 159.406 21C159.406 26.5 154.766 30.4102 148.535 30.4102C142.391 30.4102 137.621 26.5 137.621 21C137.621 15.6289 142.391 11.7187 148.535 11.7187ZM148.535 17.3477C146.129 17.3477 144.281 18.5937 144.324 21C144.281 23.4922 146.129 24.7812 148.535 24.8242C150.941 24.7812 152.703 23.4922 152.746 21C152.703 18.5937 150.941 17.3477 148.535 17.3477ZM169.461 10V17.8633H174.402V23.4922H169.461V29.5078H162.543V10H169.461ZM147.547 33.0312V43.0859C149.459 42.957 151.027 42.6562 152.66 42.1406L153.605 47.4258C150.598 48.5859 147.762 48.7148 143.207 48.7148L140.801 48.7148V33.0312L147.547 33.0312ZM172.211 32.9883V37.9297H152.273V32.9883H158.977V30.625H165.637V32.9883H172.211ZM162.199 38.5742C166.84 38.6172 170.062 40.8086 170.105 44.2461C170.062 47.6836 166.84 49.832 162.199 49.832C157.473 49.832 154.336 47.6836 154.336 44.2461C154.336 40.8086 157.473 38.6172 162.199 38.5742ZM162.199 43.3008C161.211 43.3008 160.438 43.5156 160.438 44.2461C160.438 44.9766 161.211 45.1914 162.199 45.1914C163.188 45.1914 163.961 44.9766 163.961 44.2461C163.961 43.5156 163.188 43.3008 162.199 43.3008ZM208.047 20.0977V25.4258L179.945 25.4258V11.418H186.82V20.0977L208.047 20.0977ZM211.957 28.9492V34.2773H175.691V28.9492H211.957ZM208.305 43.4727V48.9727H179.473V37.0273H186.434V43.4727H208.305ZM234.602 11.0312C240.746 10.9883 245.43 14.8984 245.43 20.2695C245.43 25.5977 240.746 29.4648 234.602 29.4648C228.414 29.4648 223.688 25.5977 223.73 20.2695C223.688 14.8984 228.414 10.9883 234.602 11.0312ZM234.602 16.5742C232.152 16.6172 230.348 17.7773 230.391 20.2695C230.348 22.7187 232.152 23.9648 234.602 23.9648C237.051 23.9648 238.77 22.7187 238.77 20.2695C238.77 17.7773 237.051 16.6172 234.602 16.5742ZM256.816 10V29.6367H249.898V10H256.816ZM256.816 31.0977V42.6562H236.492V44.0312H257.676V49.4023H229.746V37.7148H249.941V36.3398H229.66V31.0977H256.816ZM279.461 10.5156C288.785 10.5156 294.113 12.8789 294.156 17.2187C294.113 21.6016 288.785 23.9648 279.461 23.9648C270.094 23.9648 264.68 21.6016 264.723 17.2187C264.68 12.8789 270.094 10.5156 279.461 10.5156ZM279.461 15.5C274.09 15.5 271.941 16.0156 271.941 17.2187C271.941 18.6797 274.09 18.9375 279.461 18.9805C284.875 18.9375 287.023 18.6797 287.023 17.2187C287.023 16.0156 284.875 15.5 279.461 15.5ZM297.594 25.2969V30.7539H261.328V25.2969H297.594ZM293.297 32.2578V43.2148H272.113V44.5039H294.242V49.5742H265.367V38.4883H286.508V37.2852H265.41V32.2578H293.297ZM327.371 14.082V19.4102H321.957C321.979 22.9121 323.654 26.1777 328.445 27.7461V10.7305H334.934V19.0234H336.781V10.0859H343.312V34.3633H336.781V24.5664H334.934V33.2031H328.445V28.1758L325.652 32.8594C322.408 31.8926 320.238 30.0664 318.863 27.7461C317.51 30.4531 315.275 32.5801 311.859 33.8047L308.68 28.7773C313.686 26.9512 315.34 23.2129 315.426 19.4102H310.012V14.082H315.426V10.6875H321.957V14.082H327.371ZM329.434 34.4922C337.984 34.5352 343.484 37.4141 343.527 42.2695C343.484 46.9961 337.984 49.832 329.434 49.832C320.883 49.832 315.426 46.9961 315.469 42.2695C315.426 37.4141 320.883 34.5352 329.434 34.4922ZM329.434 39.7344C324.836 39.6914 322.344 40.5078 322.344 42.2695C322.344 43.9453 324.836 44.6328 329.434 44.6328C334.074 44.6328 336.523 43.9453 336.566 42.2695C336.523 40.5078 334.074 39.6914 329.434 39.7344ZM380.695 10V49.7461H373.691V10H380.695ZM368.664 14.082C368.664 26.543 365.141 36.4687 350.402 43.3437L346.879 37.9297C356.805 33.2031 360.779 27.7461 361.66 19.4531H349.156V14.082H368.664ZM417.348 20.0977V25.4258H389.246V11.418H396.121V20.0977H417.348ZM421.258 28.9492V34.2773L384.992 34.2773V28.9492L421.258 28.9492ZM417.605 43.4727V48.9727L388.773 48.9727V37.0273H395.734V43.4727L417.605 43.4727Z" fill="#11DCA9"/>
<path d="M50.3086 39.9062H60.3086C60.3086 34.3834 55.8314 29.9062 50.3086 29.9062V39.9062ZM50.3086 45.4492V55.4492C55.8314 55.4492 60.3086 50.9721 60.3086 45.4492H50.3086ZM14 45.4492H4C4 50.9721 8.47715 55.4492 14 55.4492V45.4492ZM14 39.9062L14 29.9062C8.47715 29.9062 4 34.3834 4 39.9062H14ZM28.6953 39.9062V49.9062C34.2182 49.9062 38.6953 45.4291 38.6953 39.9062H28.6953ZM28.6953 33.332H38.6953C38.6953 27.8092 34.2182 23.332 28.6953 23.332V33.332ZM17.5664 33.332H7.56641C7.56641 38.8549 12.0436 43.332 17.5664 43.332V33.332ZM17.5664 12.3633V2.36328C12.0436 2.36328 7.56641 6.84043 7.56641 12.3633H17.5664ZM24.4844 12.3633H34.4844C34.4844 6.84043 30.0072 2.36328 24.4844 2.36328V12.3633ZM24.4844 17.9062H14.4844C14.4844 23.4291 18.9615 27.9062 24.4844 27.9062V17.9062ZM39.6523 17.9062V27.9062C45.1752 27.9062 49.6523 23.4291 49.6523 17.9062H39.6523ZM39.6523 12.3633V2.36328C34.1295 2.36328 29.6523 6.84043 29.6523 12.3633H39.6523ZM46.5273 12.3633H56.5273C56.5273 6.84043 52.0502 2.36328 46.5273 2.36328V12.3633ZM46.5273 33.332V43.332C52.0502 43.332 56.5273 38.8549 56.5273 33.332H46.5273ZM35.5273 33.332V23.332C30.0045 23.332 25.5273 27.8092 25.5273 33.332H35.5273ZM35.5273 39.9062H25.5273C25.5273 45.4291 30.0045 49.9062 35.5273 49.9062V39.9062ZM24.4844 27.875H14.4844C14.4844 33.3978 18.9615 37.875 24.4844 37.875V27.875ZM39.6523 27.875V37.875C45.1752 37.875 49.6523 33.3978 49.6523 27.875H39.6523ZM39.6523 23.3203H49.6523C49.6523 17.7975 45.1752 13.3203 39.6523 13.3203V23.3203ZM24.4844 23.3203V13.3203C18.9615 13.3203 14.4844 17.7975 14.4844 23.3203H24.4844ZM50.3086 39.9062H40.3086V45.4492H50.3086H60.3086V39.9062H50.3086ZM50.3086 45.4492V35.4492H14V45.4492V55.4492H50.3086V45.4492ZM14 45.4492H24V39.9062H14H4V45.4492H14ZM14 39.9062V49.9062H28.6953V39.9062V29.9062H14L14 39.9062ZM28.6953 39.9062H38.6953V33.332H28.6953H18.6953V39.9062H28.6953ZM28.6953 33.332V23.332H17.5664V33.332V43.332H28.6953V33.332ZM17.5664 33.332H27.5664V12.3633H17.5664H7.56641L7.56641 33.332H17.5664ZM17.5664 12.3633V22.3633H24.4844V12.3633V2.36328H17.5664V12.3633ZM24.4844 12.3633H14.4844V17.9062H24.4844H34.4844V12.3633H24.4844ZM24.4844 17.9062V27.9062H39.6523V17.9062V7.90625H24.4844V17.9062ZM39.6523 17.9062H49.6523V12.3633L39.6523 12.3633H29.6523V17.9062H39.6523ZM39.6523 12.3633V22.3633H46.5273V12.3633V2.36328H39.6523V12.3633ZM46.5273 12.3633L36.5273 12.3633V33.332H46.5273H56.5273V12.3633H46.5273ZM46.5273 33.332V23.332H35.5273V33.332V43.332H46.5273V33.332ZM35.5273 33.332H25.5273V39.9062H35.5273H45.5273V33.332H35.5273ZM35.5273 39.9062V49.9062H50.3086V39.9062V29.9062H35.5273V39.9062ZM24.4844 27.875V37.875H39.6523V27.875V17.875H24.4844V27.875ZM39.6523 27.875H49.6523V23.3203H39.6523H29.6523V27.875H39.6523ZM39.6523 23.3203V13.3203H24.4844V23.3203V33.3203H39.6523V23.3203ZM24.4844 23.3203H14.4844V27.875H24.4844H34.4844V23.3203H24.4844ZM85.5859 10H95.5859C95.5859 4.47715 91.1088 0 85.5859 0V10ZM85.5859 49.875V59.875C91.1088 59.875 95.5859 55.3978 95.5859 49.875H85.5859ZM78.625 49.875H68.625C68.625 55.3978 73.1022 59.875 78.625 59.875V49.875ZM78.625 10V0C73.1022 0 68.625 4.47715 68.625 10H78.625ZM63.7578 12.6641L63.6884 22.6638C63.7352 22.6641 63.7819 22.6641 63.8287 22.6638L63.7578 12.6641ZM63.7578 18.8945L63.5883 28.8931C63.7054 28.8951 63.8225 28.895 63.9396 28.8929L63.7578 18.8945ZM85.5859 10H75.5859V49.875H85.5859H95.5859V10H85.5859ZM85.5859 49.875V39.875H78.625V49.875V59.875H85.5859V49.875ZM78.625 49.875H88.625V10H78.625H68.625V49.875H78.625ZM78.625 10V20H85.5859V10V0L78.625 0V10ZM63.7578 12.6641L63.8287 22.6638C63.761 22.6643 63.5914 22.6406 63.4161 22.5508C63.2544 22.4681 63.2633 22.4198 63.3841 22.5782C63.6544 22.9327 64.3711 24.2334 64.3711 26.9727H74.3711L84.3711 26.9727C84.3711 20.9463 82.8104 15.0712 79.2888 10.4521C75.6414 5.66819 70.1084 2.61877 63.6869 2.66431L63.7578 12.6641ZM74.3711 26.9727H64.3711C64.3711 29.8028 63.6414 31.1249 63.3715 31.4804C63.251 31.6391 63.2398 31.594 63.3939 31.5147C63.5597 31.4293 63.7126 31.4102 63.7578 31.4102V41.4102V51.4102C70.1313 51.4102 75.6498 48.3834 79.3013 43.5733C82.8235 38.9337 84.3711 33.0371 84.3711 26.9727L74.3711 26.9727ZM63.7578 41.4102V31.4102C63.7363 31.4102 63.8412 31.4135 63.9786 31.483C64.1068 31.5479 64.088 31.5815 63.9686 31.4265C63.7031 31.0816 62.9727 29.7839 62.9727 26.9727H52.9727H42.9727C42.9727 33.056 44.541 38.977 48.1212 43.6273C51.834 48.4498 57.3956 51.4102 63.7578 51.4102V41.4102ZM52.9727 26.9727H62.9727C62.9727 24.2526 63.6897 22.9762 63.9559 22.632C64.0755 22.4774 64.0922 22.5139 63.9565 22.5822C63.8959 22.6127 63.8297 22.6363 63.7676 22.6507C63.7058 22.6649 63.6753 22.6637 63.6884 22.6638L63.7578 12.6641L63.8273 2.6643C57.4182 2.6198 51.8429 5.60151 48.1339 10.3982C44.5544 15.0277 42.9727 20.9271 42.9727 26.9727H52.9727ZM63.7578 18.8945L63.9273 8.89597C58.2957 8.80052 54.0974 12.0746 51.924 16.1436C50.0832 19.59 49.6328 23.5385 49.6328 26.9727H59.6328H69.6328C69.6328 26.0559 69.7009 25.4897 69.7536 25.2055C69.8103 24.8993 69.8162 25.0966 69.5652 25.5664C69.2989 26.0649 68.6726 26.9904 67.4587 27.7722C66.1805 28.5955 64.7839 28.9134 63.5883 28.8931L63.7578 18.8945ZM59.6328 26.9727H49.6328C49.6328 30.4271 50.0766 34.3944 51.9319 37.8541C54.1466 41.9836 58.3215 45.0938 63.7578 45.0938V35.0938V25.0938C64.8679 25.0938 66.2036 25.3965 67.4508 26.1982C68.6474 26.9673 69.2792 27.8831 69.5573 28.4018C69.8162 28.8846 69.8118 29.0928 69.7551 28.7849C69.7021 28.4977 69.6328 27.9194 69.6328 26.9727H59.6328ZM63.7578 35.0938V45.0938C69.357 45.0938 73.408 41.7294 75.4843 37.7986C77.2834 34.3926 77.7539 30.4806 77.7539 26.9727L67.7539 26.9727H57.7539C57.7539 27.9039 57.6841 28.4806 57.6299 28.7724C57.572 29.0842 57.5627 28.9062 57.7999 28.4572C58.0485 27.9865 58.6442 27.0851 59.8163 26.3005C61.0564 25.4703 62.4657 25.0938 63.7578 25.0938V35.0938ZM67.7539 26.9727L77.7539 26.9727C77.7539 23.4853 77.2768 19.5914 75.492 16.199C73.4614 12.3393 69.3827 8.79061 63.576 8.89618L63.7578 18.8945L63.9396 28.8929C62.5537 28.9181 61.0785 28.5217 59.8084 27.6697C58.6196 26.8723 58.0291 25.9614 57.7921 25.511C57.5628 25.075 57.5736 24.9078 57.6314 25.218C57.6854 25.507 57.7539 26.0715 57.7539 26.9727H67.7539ZM115.664 35.9961L123.933 41.6192C125.631 39.1228 126.11 35.9932 125.237 33.1034C124.363 30.2136 122.231 27.8729 119.435 26.7345L115.664 35.9961ZM112.012 41.3672L108.215 50.6185C112.589 52.4134 117.622 50.8999 120.281 46.9903L112.012 41.3672ZM102.816 31.7422L112.111 28.0525C110.581 24.198 106.83 21.6879 102.683 21.7431C98.5367 21.7982 94.8543 24.4071 93.4272 28.3009L102.816 31.7422ZM93.4492 42.3984L85.3119 48.2108C88.064 52.0637 93.141 53.4585 97.4752 51.5522L93.4492 42.3984ZM89.582 36.9844L85.6029 27.8102C82.8325 29.0118 80.7534 31.401 79.9461 34.3108C79.1387 37.2206 79.6895 40.3395 81.4447 42.7968L89.582 36.9844ZM99.1211 19.2812H109.121C109.121 13.7584 104.644 9.28125 99.1211 9.28125V19.2812ZM91.3008 19.2812H81.3008C81.3008 24.8041 85.7779 29.2812 91.3008 29.2812V19.2812ZM91.3008 13.6953V3.69531C85.7779 3.69531 81.3008 8.17247 81.3008 13.6953H91.3008ZM113.773 13.6953H123.773C123.773 8.17247 119.296 3.69531 113.773 3.69531V13.6953ZM113.773 19.2812V29.2812C119.296 29.2812 123.773 24.8041 123.773 19.2812H113.773ZM106.168 19.2812V9.28125C100.645 9.28125 96.168 13.7584 96.168 19.2812H106.168ZM123.613 10H133.613C133.613 4.47715 129.136 0 123.613 0V10ZM123.613 49.7461V59.7461C129.136 59.7461 133.613 55.2689 133.613 49.7461H123.613ZM116.652 49.7461H106.652C106.652 55.2689 111.129 59.7461 116.652 59.7461V49.7461ZM116.652 10V0C111.129 0 106.652 4.47715 106.652 10L116.652 10ZM106.168 19.9687H96.168C96.168 28.2505 99.3804 40.1628 111.893 45.2577L115.664 35.9961L119.435 26.7345C118.234 26.2452 117.587 25.5594 117.112 24.638C116.547 23.5438 116.168 21.937 116.168 19.9687H106.168ZM115.664 35.9961L107.395 30.373L103.742 35.7441L112.012 41.3672L120.281 46.9903L123.933 41.6192L115.664 35.9961ZM112.012 41.3672L115.808 32.1159C114.184 31.4494 112.987 30.2591 112.111 28.0525L102.816 31.7422L93.522 35.4319C96.0405 41.776 100.73 47.5467 108.215 50.6185L112.012 41.3672ZM102.816 31.7422L93.4272 28.3009C92.3646 31.1999 90.9606 32.5685 89.4233 33.2447L93.4492 42.3984L97.4752 51.5522C105.219 48.1464 109.788 41.7805 112.206 35.1835L102.816 31.7422ZM93.4492 42.3984L101.587 36.5861L97.7194 31.172L89.582 36.9844L81.4447 42.7968L85.3119 48.2108L93.4492 42.3984ZM89.582 36.9844L93.5612 46.1586C105.982 40.7711 109.121 28.4633 109.121 19.9687H99.1211H89.1211C89.1211 22.1894 88.7068 24.0718 88.0537 25.3991C87.4761 26.573 86.734 27.3196 85.6029 27.8102L89.582 36.9844ZM99.1211 19.9687H109.121V19.2812H99.1211H89.1211V19.9687H99.1211ZM99.1211 19.2812V9.28125H91.3008V19.2812V29.2812H99.1211V19.2812ZM91.3008 19.2812H101.301V13.6953H91.3008H81.3008V19.2812H91.3008ZM91.3008 13.6953V23.6953H113.773V13.6953V3.69531L91.3008 3.69531V13.6953ZM113.773 13.6953H103.773V19.2812H113.773H123.773V13.6953H113.773ZM113.773 19.2812V9.28125L106.168 9.28125V19.2812V29.2812H113.773V19.2812ZM106.168 19.2812H96.168V19.9687H106.168H116.168V19.2812H106.168ZM123.613 10H113.613V49.7461H123.613H133.613V10H123.613ZM123.613 49.7461V39.7461H116.652V49.7461V59.7461H123.613V49.7461ZM116.652 49.7461H126.652V10H116.652L106.652 10V49.7461H116.652ZM116.652 10V20H123.613V10V0L116.652 0V10ZM144.324 21L154.323 21.1724C154.325 21.0554 154.325 20.9384 154.323 20.8215L144.324 21ZM148.535 24.8242L148.357 34.8226C148.476 34.8247 148.595 34.8247 148.714 34.8226L148.535 24.8242ZM152.746 21L162.745 21.1724C162.747 21.0554 162.747 20.9384 162.745 20.8215L152.746 21ZM169.461 10L179.461 10C179.461 4.47715 174.984 0 169.461 0V10ZM169.461 17.8633H159.461C159.461 23.3861 163.938 27.8633 169.461 27.8633V17.8633ZM174.402 17.8633H184.402C184.402 12.3404 179.925 7.86328 174.402 7.86328V17.8633ZM174.402 23.4922V33.4922C179.925 33.4922 184.402 29.015 184.402 23.4922H174.402ZM169.461 23.4922V13.4922C163.938 13.4922 159.461 17.9693 159.461 23.4922H169.461ZM169.461 29.5078V39.5078C174.984 39.5078 179.461 35.0307 179.461 29.5078H169.461ZM162.543 29.5078H152.543C152.543 35.0307 157.02 39.5078 162.543 39.5078V29.5078ZM162.543 10V0C157.02 0 152.543 4.47715 152.543 10H162.543ZM147.547 33.0312H157.547C157.547 27.5084 153.07 23.0312 147.547 23.0312V33.0312ZM147.547 43.0859L137.547 43.0859C137.547 45.8549 138.695 48.5 140.718 50.3909C142.741 52.2819 145.457 53.2495 148.22 53.0633L147.547 43.0859ZM152.66 42.1406L162.504 40.3799C161.998 37.5487 160.297 35.0725 157.835 33.584C155.374 32.0955 152.392 31.7387 149.649 32.6048L152.66 42.1406ZM153.605 47.4258L157.204 56.7558C161.674 55.0319 164.293 50.3806 163.449 45.6651L153.605 47.4258ZM140.801 48.7148H130.801C130.801 54.2377 135.278 58.7148 140.801 58.7148V48.7148ZM140.801 33.0312V23.0312C135.278 23.0312 130.801 27.5084 130.801 33.0312H140.801ZM172.211 32.9883H182.211C182.211 27.4654 177.734 22.9883 172.211 22.9883V32.9883ZM172.211 37.9297V47.9297C177.734 47.9297 182.211 43.4525 182.211 37.9297H172.211ZM152.273 37.9297H142.273C142.273 43.4525 146.751 47.9297 152.273 47.9297V37.9297ZM152.273 32.9883V22.9883C146.751 22.9883 142.273 27.4654 142.273 32.9883H152.273ZM158.977 32.9883V42.9883C164.499 42.9883 168.977 38.5111 168.977 32.9883H158.977ZM158.977 30.625V20.625C153.454 20.625 148.977 25.1022 148.977 30.625H158.977ZM165.637 30.625H175.637C175.637 25.1022 171.16 20.625 165.637 20.625V30.625ZM165.637 32.9883H155.637C155.637 38.5111 160.114 42.9883 165.637 42.9883V32.9883ZM162.199 38.5742L162.292 28.5746C162.231 28.5741 162.169 28.5741 162.108 28.5746L162.199 38.5742ZM170.105 44.2461L180.105 44.3711C180.106 44.2878 180.106 44.2044 180.105 44.1211L170.105 44.2461ZM148.535 11.7187V21.7187C149.59 21.7187 149.923 22.0434 149.829 21.963C149.778 21.9201 149.656 21.795 149.55 21.5712C149.439 21.3381 149.406 21.1234 149.406 21H159.406H169.406C169.406 8.64802 158.708 1.71875 148.535 1.71875V11.7187ZM159.406 21H149.406C149.406 20.9444 149.424 20.7724 149.523 20.5592C149.619 20.3535 149.735 20.2298 149.792 20.1809C149.902 20.0871 149.589 20.4102 148.535 20.4102V30.4102V40.4102C158.805 40.4102 169.406 33.3977 169.406 21H159.406ZM148.535 30.4102V20.4102C147.547 20.4102 147.192 20.0989 147.247 20.1456C147.282 20.1746 147.392 20.2832 147.49 20.4895C147.594 20.7066 147.621 20.9019 147.621 21H137.621H127.621C127.621 33.4919 138.461 40.4102 148.535 40.4102V30.4102ZM137.621 21H147.621C147.621 21.1668 147.577 21.405 147.463 21.6415C147.355 21.8652 147.238 21.975 147.211 21.9981C147.171 22.0317 147.546 21.7187 148.535 21.7187V11.7187V1.71875C138.559 1.71875 127.621 8.55446 127.621 21H137.621ZM148.535 17.3477V7.34766C145.743 7.34766 142.238 8.05833 139.224 10.4952C135.913 13.1722 134.253 17.101 134.326 21.1785L144.324 21L154.323 20.8215C154.335 21.5337 154.208 22.488 153.745 23.5167C153.278 24.5552 152.583 25.4134 151.798 26.0478C150.299 27.26 148.921 27.3477 148.535 27.3477V17.3477ZM144.324 21L134.326 20.8276C134.257 24.8251 135.819 28.7361 139.062 31.4726C142.037 33.9841 145.54 34.7723 148.357 34.8226L148.535 24.8242L148.714 14.8258C149.124 14.8331 150.5 14.9554 151.961 16.1885C153.689 17.6467 154.349 19.6671 154.323 21.1724L144.324 21ZM148.535 24.8242L148.714 34.8226C151.56 34.7718 155.063 33.9675 158.03 31.427C161.204 28.7096 162.68 24.9268 162.745 21.1724L152.746 21L142.748 20.8276C142.769 19.5654 143.342 17.6732 145.023 16.2341C146.498 14.972 147.917 14.8337 148.357 14.8258L148.535 24.8242ZM152.746 21L162.745 20.8215C162.676 16.9985 161.114 13.2009 157.868 10.5394C154.86 8.0722 151.354 7.34766 148.535 7.34766V17.3477V27.3477C148.123 27.3477 146.7 27.2462 145.185 26.0036C143.433 24.5667 142.773 22.5953 142.748 21.1785L152.746 21ZM169.461 10H159.461V17.8633H169.461H179.461V10L169.461 10ZM169.461 17.8633V27.8633H174.402V17.8633V7.86328L169.461 7.86328V17.8633ZM174.402 17.8633H164.402V23.4922H174.402H184.402V17.8633H174.402ZM174.402 23.4922V13.4922H169.461V23.4922V33.4922H174.402V23.4922ZM169.461 23.4922H159.461V29.5078H169.461H179.461V23.4922H169.461ZM169.461 29.5078V19.5078H162.543V29.5078V39.5078H169.461V29.5078ZM162.543 29.5078H172.543V10H162.543H152.543V29.5078H162.543ZM162.543 10V20H169.461V10V0L162.543 0V10ZM147.547 33.0312L137.547 33.0312V43.0859L147.547 43.0859H157.547V33.0312H147.547ZM147.547 43.0859L148.22 53.0633C150.896 52.8829 153.251 52.4407 155.671 51.6765L152.66 42.1406L149.649 32.6048C148.803 32.8718 148.022 33.0312 146.874 33.1086L147.547 43.0859ZM152.66 42.1406L142.816 43.9013L143.762 49.1865L153.605 47.4258L163.449 45.6651L162.504 40.3799L152.66 42.1406ZM153.605 47.4258L150.007 38.0958C148.921 38.5144 147.797 38.7148 143.207 38.7148V48.7148V58.7148C147.727 58.7148 152.274 58.6575 157.204 56.7558L153.605 47.4258ZM143.207 48.7148V38.7148L140.801 38.7148V48.7148V58.7148L143.207 58.7148V48.7148ZM140.801 48.7148L150.801 48.7148V33.0312L140.801 33.0312H130.801V48.7148H140.801ZM140.801 33.0312V43.0312L147.547 43.0312V33.0312V23.0312H140.801V33.0312ZM172.211 32.9883H162.211V37.9297H172.211H182.211V32.9883H172.211ZM172.211 37.9297V27.9297H152.273V37.9297V47.9297H172.211V37.9297ZM152.273 37.9297H162.273V32.9883H152.273H142.273V37.9297H152.273ZM152.273 32.9883V42.9883H158.977V32.9883V22.9883H152.273V32.9883ZM158.977 32.9883H168.977V30.625H158.977H148.977V32.9883H158.977ZM158.977 30.625V40.625H165.637V30.625V20.625H158.977V30.625ZM165.637 30.625H155.637V32.9883H165.637H175.637V30.625H165.637ZM165.637 32.9883V42.9883H172.211V32.9883V22.9883H165.637V32.9883ZM162.199 38.5742L162.107 48.5738C163.009 48.5821 162.818 48.8074 162.106 48.3043C161.709 48.024 161.179 47.5255 160.75 46.749C160.31 45.9512 160.115 45.1082 160.106 44.3711L170.105 44.2461L180.105 44.1211C180.039 38.9005 177.401 34.6223 173.647 31.9701C170.153 29.5012 166.03 28.6093 162.292 28.5746L162.199 38.5742ZM170.105 44.2461L160.106 44.1211C160.115 43.3834 160.31 42.527 160.764 41.7105C161.206 40.9149 161.756 40.4041 162.17 40.1165C162.91 39.6016 163.117 39.832 162.199 39.832V49.832V59.832C165.922 59.832 170.06 58.9882 173.583 56.5398C177.385 53.898 180.039 49.6056 180.105 44.3711L170.105 44.2461ZM162.199 49.832V39.832C161.2 39.832 161.447 39.5852 162.247 40.1478C162.695 40.4626 163.264 41.008 163.709 41.8363C164.163 42.6809 164.336 43.5402 164.336 44.2461H154.336H144.336C144.336 49.4283 146.88 53.7918 150.743 56.5084C154.294 59.0047 158.472 59.832 162.199 59.832V49.832ZM154.336 44.2461H164.336C164.336 44.9518 164.163 45.7977 163.722 46.6234C163.291 47.4322 162.741 47.9649 162.311 48.2724C161.539 48.8239 161.308 48.5827 162.29 48.5738L162.199 38.5742L162.108 28.5746C158.364 28.6087 154.201 29.4847 150.68 32.002C146.865 34.7289 144.336 39.0765 144.336 44.2461H154.336ZM162.199 43.3008V33.3008C161.314 33.3008 159.108 33.3442 156.787 34.4064C155.486 35.0015 153.797 36.0778 152.442 37.9694C151.02 39.957 150.438 42.191 150.438 44.2461H160.438H170.438C170.438 45.9359 169.952 47.8692 168.705 49.611C167.527 51.2569 166.092 52.1425 165.109 52.5926C164.152 53.0304 163.363 53.1795 162.983 53.2363C162.57 53.2978 162.287 53.3008 162.199 53.3008V43.3008ZM160.438 44.2461H150.438C150.438 46.3012 151.02 48.5352 152.442 50.5228C153.797 52.4144 155.486 53.4907 156.787 54.0858C159.108 55.148 161.314 55.1914 162.199 55.1914V45.1914V35.1914C162.287 35.1914 162.57 35.1944 162.983 35.2559C163.363 35.3127 164.152 35.4618 165.109 35.8996C166.092 36.3496 167.527 37.2353 168.705 38.8812C169.952 40.623 170.438 42.5563 170.438 44.2461H160.438ZM162.199 45.1914V55.1914C163.085 55.1914 165.291 55.148 167.612 54.0858C168.912 53.4907 170.602 52.4144 171.956 50.5228C173.379 48.5352 173.961 46.3012 173.961 44.2461H163.961H153.961C153.961 42.5563 154.446 40.623 155.693 38.8812C156.872 37.2353 158.306 36.3496 159.289 35.8996C160.246 35.4618 161.035 35.3127 161.416 35.2559C161.828 35.1944 162.111 35.1914 162.199 35.1914V45.1914ZM163.961 44.2461H173.961C173.961 42.191 173.379 39.957 171.956 37.9694C170.602 36.0778 168.912 35.0015 167.612 34.4064C165.291 33.3442 163.085 33.3008 162.199 33.3008V43.3008V53.3008C162.111 53.3008 161.828 53.2978 161.416 53.2363C161.035 53.1795 160.246 53.0304 159.289 52.5926C158.306 52.1425 156.872 51.2569 155.693 49.611C154.446 47.8692 153.961 45.9359 153.961 44.2461H163.961ZM208.047 20.0977H218.047C218.047 14.5748 213.57 10.0977 208.047 10.0977V20.0977ZM208.047 25.4258V35.4258C213.57 35.4258 218.047 30.9486 218.047 25.4258H208.047ZM179.945 25.4258H169.945C169.945 30.9486 174.422 35.4258 179.945 35.4258V25.4258ZM179.945 11.418V1.41797C174.422 1.41797 169.945 5.89512 169.945 11.418L179.945 11.418ZM186.82 11.418H196.82C196.82 5.89512 192.343 1.41797 186.82 1.41797V11.418ZM186.82 20.0977H176.82C176.82 25.6205 181.297 30.0977 186.82 30.0977V20.0977ZM211.957 28.9492H221.957C221.957 23.4264 217.48 18.9492 211.957 18.9492V28.9492ZM211.957 34.2773V44.2773C217.48 44.2773 221.957 39.8002 221.957 34.2773H211.957ZM175.691 34.2773H165.691C165.691 39.8002 170.169 44.2773 175.691 44.2773V34.2773ZM175.691 28.9492V18.9492C170.169 18.9492 165.691 23.4264 165.691 28.9492H175.691ZM208.305 43.4727H218.305C218.305 37.9498 213.828 33.4727 208.305 33.4727V43.4727ZM208.305 48.9727V58.9727C213.828 58.9727 218.305 54.4955 218.305 48.9727H208.305ZM179.473 48.9727H169.473C169.473 54.4955 173.95 58.9727 179.473 58.9727V48.9727ZM179.473 37.0273V27.0273C173.95 27.0273 169.473 31.5045 169.473 37.0273H179.473ZM186.434 37.0273H196.434C196.434 31.5045 191.956 27.0273 186.434 27.0273V37.0273ZM186.434 43.4727H176.434C176.434 48.9955 180.911 53.4727 186.434 53.4727V43.4727ZM208.047 20.0977L198.047 20.0977V25.4258L208.047 25.4258H218.047V20.0977H208.047ZM208.047 25.4258V15.4258L179.945 15.4258V25.4258V35.4258H208.047V25.4258ZM179.945 25.4258H189.945V11.418H179.945L169.945 11.418V25.4258H179.945ZM179.945 11.418V21.418H186.82V11.418V1.41797H179.945V11.418ZM186.82 11.418H176.82V20.0977H186.82H196.82V11.418H186.82ZM186.82 20.0977V30.0977H208.047V20.0977V10.0977H186.82V20.0977ZM211.957 28.9492H201.957V34.2773H211.957H221.957V28.9492H211.957ZM211.957 34.2773V24.2773L175.691 24.2773V34.2773V44.2773H211.957V34.2773ZM175.691 34.2773H185.691V28.9492H175.691H165.691V34.2773H175.691ZM175.691 28.9492V38.9492H211.957V28.9492V18.9492L175.691 18.9492V28.9492ZM208.305 43.4727H198.305V48.9727H208.305H218.305V43.4727H208.305ZM208.305 48.9727V38.9727H179.473V48.9727V58.9727H208.305V48.9727ZM179.473 48.9727H189.473V37.0273H179.473H169.473V48.9727H179.473ZM179.473 37.0273V47.0273H186.434V37.0273V27.0273H179.473V37.0273ZM186.434 37.0273H176.434V43.4727H186.434H196.434V37.0273H186.434ZM186.434 43.4727V53.4727H208.305V43.4727V33.4727H186.434V43.4727ZM234.602 11.0312L234.532 21.031C234.579 21.0313 234.625 21.0313 234.671 21.031L234.602 11.0312ZM223.73 20.2695L233.73 20.3502C233.731 20.2966 233.731 20.2431 233.73 20.1895L223.73 20.2695ZM234.602 16.5742L234.777 6.57576C234.66 6.57371 234.543 6.57371 234.426 6.57576L234.602 16.5742ZM230.391 20.2695L240.389 20.4449C240.391 20.329 240.391 20.2131 240.389 20.0971L230.391 20.2695ZM256.816 10H266.816C266.816 4.47715 262.339 0 256.816 0V10ZM256.816 29.6367V39.6367C262.339 39.6367 266.816 35.1596 266.816 29.6367H256.816ZM249.898 29.6367H239.898C239.898 35.1596 244.376 39.6367 249.898 39.6367V29.6367ZM249.898 10V0C244.376 0 239.898 4.47715 239.898 10H249.898ZM256.816 31.0977H266.816C266.816 25.5748 262.339 21.0977 256.816 21.0977V31.0977ZM256.816 42.6562V52.6562C262.339 52.6562 266.816 48.1791 266.816 42.6562H256.816ZM236.492 42.6562V32.6562C230.969 32.6562 226.492 37.1334 226.492 42.6562H236.492ZM236.492 44.0312H226.492C226.492 49.5541 230.969 54.0312 236.492 54.0312V44.0312ZM257.676 44.0312H267.676C267.676 38.5084 263.199 34.0312 257.676 34.0312V44.0312ZM257.676 49.4023V59.4023C263.199 59.4023 267.676 54.9252 267.676 49.4023H257.676ZM229.746 49.4023H219.746C219.746 54.9252 224.223 59.4023 229.746 59.4023V49.4023ZM229.746 37.7148V27.7148C224.223 27.7148 219.746 32.192 219.746 37.7148H229.746ZM249.941 37.7148V47.7148C255.464 47.7148 259.941 43.2377 259.941 37.7148H249.941ZM249.941 36.3398H259.941C259.941 30.817 255.464 26.3398 249.941 26.3398V36.3398ZM229.66 36.3398H219.66C219.66 41.8627 224.137 46.3398 229.66 46.3398V36.3398ZM229.66 31.0977V21.0977C224.137 21.0977 219.66 25.5748 219.66 31.0977H229.66ZM234.602 11.0312L234.671 21.031C235.634 21.0243 235.944 21.3252 235.854 21.2484C235.805 21.2068 235.683 21.0839 235.577 20.8612C235.466 20.628 235.43 20.4069 235.43 20.2695H245.43H255.43C255.43 7.91744 244.679 0.960535 234.532 1.03149L234.602 11.0312ZM245.43 20.2695H235.43C235.43 20.108 235.472 19.8657 235.591 19.6174C235.705 19.3806 235.833 19.2545 235.878 19.2161C235.957 19.1499 235.613 19.4648 234.602 19.4648V29.4648V39.4648C244.59 39.4648 255.43 32.662 255.43 20.2695H245.43ZM234.602 29.4648V19.4648C233.547 19.4648 233.176 19.1369 233.25 19.1986C233.295 19.2366 233.433 19.3701 233.556 19.6263C233.685 19.8954 233.732 20.1632 233.73 20.3502L223.73 20.2695L213.731 20.1889C213.63 32.7355 224.684 39.4648 234.602 39.4648V29.4648ZM223.73 20.2695L233.73 20.1895C233.731 20.352 233.691 20.5985 233.57 20.8524C233.455 21.0944 233.324 21.2247 233.275 21.266C233.189 21.3383 233.526 21.024 234.532 21.031L234.602 11.0312L234.671 1.03149C224.594 0.961509 213.631 7.84291 213.731 20.3495L223.73 20.2695ZM234.602 16.5742L234.426 6.57576C231.848 6.62099 228.338 7.25397 225.281 9.72192C221.854 12.4874 220.324 16.4849 220.392 20.4419L230.391 20.2695L240.389 20.0971C240.4 20.7039 240.3 21.6214 239.846 22.6585C239.381 23.7198 238.67 24.6171 237.842 25.2849C236.289 26.539 234.906 26.5704 234.777 26.5727L234.602 16.5742ZM230.391 20.2695L220.392 20.0941C220.323 24.0535 221.866 28.013 225.214 30.7629C228.266 33.2697 231.823 33.9648 234.602 33.9648V23.9648V13.9648C234.931 13.9648 236.361 14.037 237.909 15.3084C239.753 16.8229 240.416 18.9348 240.389 20.4449L230.391 20.2695ZM234.602 23.9648V33.9648C237.396 33.9648 240.976 33.2609 244.033 30.6949C247.341 27.9187 248.77 24.0222 248.77 20.2695H238.77H228.77C228.77 18.966 229.339 16.9173 231.175 15.3764C232.76 14.0457 234.257 13.9648 234.602 13.9648V23.9648ZM238.77 20.2695H248.77C248.77 16.5168 247.351 12.5806 243.967 9.78899C240.904 7.26229 237.37 6.62125 234.777 6.57576L234.602 16.5742L234.426 26.5727C234.282 26.5702 232.833 26.5307 231.241 25.2178C230.406 24.5292 229.726 23.6346 229.288 22.6247C228.863 21.6451 228.77 20.799 228.77 20.2695H238.77ZM256.816 10H246.816V29.6367H256.816H266.816V10H256.816ZM256.816 29.6367V19.6367H249.898V29.6367V39.6367H256.816V29.6367ZM249.898 29.6367H259.898V10H249.898H239.898V29.6367H249.898ZM249.898 10V20H256.816V10V0H249.898V10ZM256.816 31.0977H246.816V42.6562H256.816H266.816V31.0977H256.816ZM256.816 42.6562V32.6562H236.492V42.6562V52.6562H256.816V42.6562ZM236.492 42.6562H226.492V44.0312H236.492H246.492V42.6562H236.492ZM236.492 44.0312V54.0312H257.676V44.0312V34.0312H236.492V44.0312ZM257.676 44.0312H247.676V49.4023H257.676H267.676V44.0312H257.676ZM257.676 49.4023V39.4023H229.746V49.4023V59.4023H257.676V49.4023ZM229.746 49.4023H239.746V37.7148H229.746H219.746V49.4023H229.746ZM229.746 37.7148V47.7148H249.941V37.7148V27.7148H229.746V37.7148ZM249.941 37.7148H259.941V36.3398H249.941H239.941V37.7148H249.941ZM249.941 36.3398V26.3398H229.66V36.3398V46.3398H249.941V36.3398ZM229.66 36.3398H239.66V31.0977H229.66H219.66V36.3398H229.66ZM229.66 31.0977V41.0977H256.816V31.0977V21.0977H229.66V31.0977ZM294.156 17.2187L304.156 17.3168C304.156 17.2511 304.156 17.1854 304.156 17.1197L294.156 17.2187ZM264.723 17.2187L274.722 17.3168C274.723 17.2511 274.723 17.1854 274.722 17.1197L264.723 17.2187ZM279.461 18.9805L279.381 28.9801C279.434 28.9806 279.487 28.9806 279.54 28.9802L279.461 18.9805ZM297.594 25.2969H307.594C307.594 19.774 303.117 15.2969 297.594 15.2969V25.2969ZM297.594 30.7539V40.7539C303.117 40.7539 307.594 36.2768 307.594 30.7539H297.594ZM261.328 30.7539H251.328C251.328 36.2768 255.805 40.7539 261.328 40.7539V30.7539ZM261.328 25.2969V15.2969C255.805 15.2969 251.328 19.774 251.328 25.2969H261.328ZM293.297 32.2578H303.297C303.297 26.735 298.82 22.2578 293.297 22.2578V32.2578ZM293.297 43.2148V53.2148C298.82 53.2148 303.297 48.7377 303.297 43.2148H293.297ZM272.113 43.2148V33.2148C266.59 33.2148 262.113 37.692 262.113 43.2148H272.113ZM272.113 44.5039H262.113C262.113 50.0268 266.59 54.5039 272.113 54.5039V44.5039ZM294.242 44.5039H304.242C304.242 38.9811 299.765 34.5039 294.242 34.5039V44.5039ZM294.242 49.5742V59.5742C299.765 59.5742 304.242 55.0971 304.242 49.5742H294.242ZM265.367 49.5742H255.367C255.367 55.0971 259.844 59.5742 265.367 59.5742V49.5742ZM265.367 38.4883V28.4883C259.844 28.4883 255.367 32.9654 255.367 38.4883H265.367ZM286.508 38.4883V48.4883C292.031 48.4883 296.508 44.0111 296.508 38.4883H286.508ZM286.508 37.2852H296.508C296.508 31.7623 292.031 27.2852 286.508 27.2852V37.2852ZM265.41 37.2852H255.41C255.41 42.808 259.887 47.2852 265.41 47.2852V37.2852ZM265.41 32.2578V22.2578C259.887 22.2578 255.41 26.735 255.41 32.2578H265.41ZM279.461 10.5156V20.5156C281.39 20.5156 282.929 20.6392 284.107 20.8275C285.313 21.02 285.943 21.249 286.164 21.3494C286.395 21.4538 285.886 21.2804 285.279 20.505C284.571 19.6003 284.168 18.4288 284.157 17.3178L294.156 17.2187L304.156 17.1197C304.083 9.78613 299.133 5.26676 294.414 3.13007C290.027 1.14355 284.714 0.515625 279.461 0.515625V10.5156ZM294.156 17.2187L284.157 17.1207C284.167 16.0441 284.555 14.8886 285.258 13.985C285.861 13.2084 286.371 13.0316 286.148 13.133C285.932 13.2315 285.307 13.4603 284.104 13.6529C282.927 13.8412 281.39 13.9648 279.461 13.9648V23.9648V33.9648C284.712 33.9648 290.033 33.3378 294.43 31.3377C299.184 29.1749 304.084 24.6299 304.156 17.3168L294.156 17.2187ZM279.461 23.9648V13.9648C277.519 13.9648 275.965 13.841 274.771 13.6512C273.548 13.4568 272.908 13.2253 272.682 13.1231C272.444 13.0155 272.976 13.1961 273.601 14.0048C274.335 14.9544 274.733 16.1768 274.722 17.3168L264.723 17.2187L254.723 17.1207C254.65 24.6082 259.706 29.2059 264.444 31.3476C268.85 33.3391 274.195 33.9648 279.461 33.9648V23.9648ZM264.723 17.2187L274.722 17.1197C274.734 18.2952 274.32 19.5344 273.58 20.4852C272.951 21.2927 272.42 21.4698 272.666 21.3593C272.897 21.2552 273.543 21.0234 274.767 20.8292C275.963 20.6394 277.52 20.5156 279.461 20.5156V10.5156V0.515625C274.193 0.515625 268.856 1.14229 264.46 3.12017C259.759 5.23532 254.649 9.80756 254.723 17.3178L264.723 17.2187ZM279.461 15.5V5.5C276.712 5.5 273.842 5.60872 271.435 6.16502C270.279 6.43215 268.236 7.01263 266.298 8.49003C263.924 10.3003 261.941 13.3361 261.941 17.2187H271.941H281.941C281.941 18.6243 281.61 20.1198 280.859 21.5217C280.131 22.8801 279.195 23.807 278.424 24.3952C277.677 24.9644 277.018 25.2695 276.649 25.4187C276.267 25.5729 276.005 25.636 275.939 25.6514C275.835 25.6754 276.034 25.623 276.72 25.5748C277.367 25.5294 278.26 25.5 279.461 25.5V15.5ZM271.941 17.2187H261.941C261.941 20.5239 263.379 23.706 266.081 25.8861C268.203 27.5992 270.487 28.1787 271.642 28.4201C273.998 28.9121 276.905 28.9603 279.381 28.9801L279.461 18.9805L279.541 8.98079C278.245 8.97042 277.291 8.94762 276.574 8.90785C275.805 8.86526 275.612 8.81754 275.732 8.84263C275.813 8.85961 276.131 8.92924 276.585 9.10871C277.032 9.2859 277.801 9.64408 278.641 10.3225C279.53 11.0393 280.44 12.0705 281.09 13.4499C281.737 14.8216 281.941 16.1475 281.941 17.2187H271.941ZM279.461 18.9805L279.54 28.9802C282.036 28.9603 284.952 28.912 287.309 28.4219C288.463 28.1817 290.749 27.6047 292.875 25.8933C295.583 23.7125 297.023 20.5264 297.023 17.2187H287.023H277.023C277.023 16.1476 277.228 14.8198 277.876 13.4457C278.528 12.0637 279.442 11.0318 280.332 10.3153C281.174 9.63745 281.942 9.28046 282.389 9.10441C282.841 8.92603 283.158 8.85723 283.236 8.84082C283.352 8.81682 283.152 8.86492 282.377 8.90766C281.652 8.94759 280.689 8.97041 279.382 8.98078L279.461 18.9805ZM287.023 17.2187H297.023C297.023 13.3329 295.038 10.294 292.657 8.48317C290.716 7.00718 288.671 6.42878 287.515 6.16284C285.106 5.60863 282.228 5.5 279.461 5.5V15.5V25.5C280.674 25.5 281.576 25.5295 282.231 25.5751C282.925 25.6235 283.13 25.6765 283.03 25.6536C282.966 25.6388 282.705 25.5764 282.325 25.4232C281.956 25.2749 281.297 24.9708 280.549 24.4021C279.777 23.8142 278.838 22.8868 278.108 21.5261C277.355 20.1218 277.023 18.6244 277.023 17.2187H287.023ZM297.594 25.2969H287.594V30.7539H297.594H307.594V25.2969H297.594ZM297.594 30.7539V20.7539H261.328V30.7539V40.7539H297.594V30.7539ZM261.328 30.7539H271.328V25.2969H261.328H251.328V30.7539H261.328ZM261.328 25.2969V35.2969H297.594V25.2969V15.2969H261.328V25.2969ZM293.297 32.2578H283.297V43.2148H293.297H303.297V32.2578H293.297ZM293.297 43.2148V33.2148H272.113V43.2148V53.2148H293.297V43.2148ZM272.113 43.2148H262.113V44.5039H272.113H282.113V43.2148H272.113ZM272.113 44.5039V54.5039H294.242V44.5039V34.5039H272.113V44.5039ZM294.242 44.5039H284.242V49.5742H294.242H304.242V44.5039H294.242ZM294.242 49.5742V39.5742H265.367V49.5742V59.5742H294.242V49.5742ZM265.367 49.5742H275.367V38.4883H265.367H255.367V49.5742H265.367ZM265.367 38.4883V48.4883H286.508V38.4883V28.4883H265.367V38.4883ZM286.508 38.4883H296.508V37.2852H286.508H276.508V38.4883H286.508ZM286.508 37.2852V27.2852H265.41V37.2852V47.2852H286.508V37.2852ZM265.41 37.2852H275.41V32.2578H265.41H255.41V37.2852H265.41ZM265.41 32.2578V42.2578H293.297V32.2578V22.2578H265.41V32.2578ZM327.371 14.082L337.371 14.082C337.371 8.55918 332.894 4.08203 327.371 4.08203V14.082ZM327.371 19.4102V29.4102C332.894 29.4102 337.371 24.933 337.371 19.4102L327.371 19.4102ZM321.957 19.4102V9.41016C319.294 9.41016 316.741 10.4722 314.864 12.3608C312.987 14.2495 311.941 16.8088 311.957 19.4715L321.957 19.4102ZM328.445 27.7461L325.334 37.2498C328.38 38.2469 331.719 37.7237 334.314 35.8427C336.909 33.9618 338.445 30.951 338.445 27.7461L328.445 27.7461ZM328.445 10.7305V0.730469C322.922 0.730469 318.445 5.20762 318.445 10.7305H328.445ZM334.934 10.7305H344.934C344.934 5.20762 340.456 0.730469 334.934 0.730469V10.7305ZM334.934 19.0234L324.934 19.0234C324.934 24.5463 329.411 29.0234 334.934 29.0234V19.0234ZM336.781 19.0234V29.0234C342.304 29.0234 346.781 24.5463 346.781 19.0234H336.781ZM336.781 10.0859V0.0859375C331.258 0.0859375 326.781 4.56309 326.781 10.0859H336.781ZM343.312 10.0859H353.312C353.312 4.56309 348.835 0.0859375 343.312 0.0859375V10.0859ZM343.312 34.3633V44.3633C348.835 44.3633 353.312 39.8861 353.312 34.3633H343.312ZM336.781 34.3633H326.781C326.781 39.8861 331.258 44.3633 336.781 44.3633V34.3633ZM336.781 24.5664H346.781C346.781 19.0436 342.304 14.5664 336.781 14.5664V24.5664ZM334.934 24.5664V14.5664C329.411 14.5664 324.934 19.0436 324.934 24.5664L334.934 24.5664ZM334.934 33.2031V43.2031C340.456 43.2031 344.934 38.726 344.934 33.2031H334.934ZM328.445 33.2031H318.445C318.445 38.726 322.922 43.2031 328.445 43.2031V33.2031ZM328.445 28.1758L338.445 28.1758C338.445 23.676 335.44 19.7303 331.102 18.535C326.763 17.3397 322.161 19.1892 319.857 23.054L328.445 28.1758ZM325.652 32.8594L322.796 42.4429C327.183 43.7501 331.897 41.9123 334.241 37.9811L325.652 32.8594ZM318.863 27.7461L327.466 22.6481C325.601 19.4997 322.164 17.622 318.507 17.7524C314.85 17.8829 311.556 20.0007 309.919 23.274L318.863 27.7461ZM311.859 33.8047L303.408 39.1501C305.911 43.1078 310.826 44.7984 315.234 43.2181L311.859 33.8047ZM308.68 28.7773L305.253 19.3829C302.41 20.4198 300.191 22.6875 299.214 25.551C298.238 28.4145 298.611 31.5659 300.228 34.1227L308.68 28.7773ZM315.426 19.4102L325.423 19.6361C325.484 16.9454 324.458 14.3439 322.576 12.4194C320.695 10.495 318.117 9.41016 315.426 9.41016V19.4102ZM310.012 19.4102H300.012C300.012 24.933 304.489 29.4102 310.012 29.4102V19.4102ZM310.012 14.082V4.08203C304.489 4.08203 300.012 8.55918 300.012 14.082H310.012ZM315.426 14.082V24.082C320.949 24.082 325.426 19.6049 325.426 14.082H315.426ZM315.426 10.6875V0.6875C309.903 0.6875 305.426 5.16465 305.426 10.6875H315.426ZM321.957 10.6875H331.957C331.957 5.16465 327.48 0.6875 321.957 0.6875V10.6875ZM321.957 14.082H311.957C311.957 19.6049 316.434 24.082 321.957 24.082V14.082ZM329.434 34.4922L329.484 24.4923C329.45 24.4921 329.417 24.4921 329.383 24.4923L329.434 34.4922ZM343.527 42.2695L353.527 42.3604C353.527 42.3006 353.527 42.2408 353.527 42.181L343.527 42.2695ZM315.469 42.2695L325.468 42.3604C325.469 42.3006 325.469 42.2408 325.468 42.181L315.469 42.2695ZM329.434 39.7344L329.34 49.7339C329.402 49.7345 329.464 49.7345 329.526 49.7339L329.434 39.7344ZM336.566 42.2695L346.563 42.5259C346.567 42.3592 346.568 42.1924 346.563 42.0257L336.566 42.2695ZM327.371 14.082H317.371V19.4102H327.371L337.371 19.4102V14.082L327.371 14.082ZM327.371 19.4102V9.41016H321.957V19.4102V29.4102H327.371V19.4102ZM321.957 19.4102L311.957 19.4715C311.978 22.7982 312.799 26.5976 315.235 30.0582C317.702 33.5646 321.259 35.9157 325.334 37.2498L328.445 27.7461L331.556 18.2424C331.17 18.1158 331.073 18.0298 331.145 18.0802C331.229 18.1391 331.409 18.2899 331.591 18.5483C331.77 18.8026 331.872 19.0484 331.922 19.2243C331.968 19.3871 331.957 19.4418 331.957 19.3488L321.957 19.4102ZM328.445 27.7461L338.445 27.7461V10.7305H328.445H318.445V27.7461H328.445ZM328.445 10.7305V20.7305L334.934 20.7305V10.7305V0.730469H328.445V10.7305ZM334.934 10.7305H324.934V19.0234L334.934 19.0234H344.934V10.7305H334.934ZM334.934 19.0234V29.0234H336.781V19.0234V9.02344H334.934V19.0234ZM336.781 19.0234H346.781V10.0859H336.781H326.781V19.0234L336.781 19.0234ZM336.781 10.0859V20.0859H343.312V10.0859V0.0859375L336.781 0.0859375V10.0859ZM343.312 10.0859H333.312V34.3633H343.312H353.312V10.0859H343.312ZM343.312 34.3633V24.3633H336.781V34.3633V44.3633H343.312V34.3633ZM336.781 34.3633H346.781V24.5664H336.781L326.781 24.5664V34.3633H336.781ZM336.781 24.5664V14.5664H334.934V24.5664V34.5664H336.781V24.5664ZM334.934 24.5664L324.934 24.5664V33.2031H334.934H344.934V24.5664H334.934ZM334.934 33.2031V23.2031L328.445 23.2031V33.2031V43.2031H334.934V33.2031ZM328.445 33.2031H338.445V28.1758L328.445 28.1758H318.445V33.2031H328.445ZM328.445 28.1758L319.857 23.054L317.064 27.7376L325.652 32.8594L334.241 37.9811L337.034 33.2975L328.445 28.1758ZM325.652 32.8594L328.508 23.2759C327.972 23.1162 327.747 22.9559 327.681 22.9045C327.617 22.855 327.551 22.7918 327.466 22.6481L318.863 27.7461L310.26 32.8441C312.945 37.3747 317.191 40.7725 322.796 42.4429L325.652 32.8594ZM318.863 27.7461L309.919 23.274C309.769 23.5736 309.63 23.7341 309.503 23.8467C309.375 23.9597 309.091 24.1739 308.485 24.3913L311.859 33.8047L315.234 43.2181C321.065 41.1278 325.299 37.236 327.808 32.2182L318.863 27.7461ZM311.859 33.8047L320.311 28.4593L317.131 23.432L308.68 28.7773L300.228 34.1227L303.408 39.1501L311.859 33.8047ZM308.68 28.7773L312.107 38.1717C316.449 36.5877 319.966 33.8985 322.317 30.2314C324.596 26.6756 325.35 22.875 325.423 19.6361L315.426 19.4102L305.428 19.1842C305.422 19.4553 305.39 19.5949 305.382 19.6276C305.375 19.6505 305.395 19.5688 305.479 19.4386C305.519 19.3763 305.564 19.3175 305.611 19.2664C305.658 19.2152 305.694 19.1849 305.708 19.1734C305.723 19.1624 305.703 19.1794 305.636 19.2159C305.568 19.2528 305.445 19.3127 305.253 19.3829L308.68 28.7773ZM315.426 19.4102V9.41016H310.012V19.4102V29.4102H315.426V19.4102ZM310.012 19.4102H320.012V14.082H310.012H300.012V19.4102H310.012ZM310.012 14.082V24.082H315.426V14.082V4.08203H310.012V14.082ZM315.426 14.082H325.426V10.6875H315.426H305.426V14.082H315.426ZM315.426 10.6875V20.6875H321.957V10.6875V0.6875L315.426 0.6875V10.6875ZM321.957 10.6875H311.957V14.082H321.957H331.957V10.6875H321.957ZM321.957 14.082V24.082H327.371V14.082V4.08203H321.957V14.082ZM329.434 34.4922L329.383 44.4921C330.982 44.5001 332.263 44.6413 333.232 44.8396C334.219 45.0417 334.728 45.2709 334.893 45.361C335.052 45.4476 334.691 45.2907 334.268 44.6763C333.792 43.9838 333.535 43.1317 333.528 42.358L343.527 42.2695L353.527 42.181C353.465 35.2215 349.211 30.3815 344.449 27.7913C340.008 25.3761 334.661 24.5183 329.484 24.4923L329.434 34.4922ZM343.527 42.2695L333.528 42.1786C333.536 41.3134 333.829 40.4034 334.333 39.6876C334.778 39.0564 335.153 38.9 334.983 38.9901C334.811 39.0813 334.293 39.3082 333.298 39.5049C332.322 39.6979 331.035 39.832 329.434 39.832V49.832V59.832C334.607 59.832 339.932 59.0059 344.359 56.6564C349.07 54.1559 353.463 49.3791 353.527 42.3604L343.527 42.2695ZM329.434 49.832V39.832C327.831 39.832 326.55 39.6978 325.583 39.506C324.596 39.3104 324.098 39.0871 323.949 39.0073C323.803 38.9292 324.211 39.1101 324.673 39.7834C325.196 40.545 325.476 41.49 325.468 42.3604L315.469 42.2695L305.469 42.1786C305.405 49.2444 309.769 54.1016 314.508 56.6392C318.934 59.0085 324.268 59.832 329.434 59.832V49.832ZM315.469 42.2695L325.468 42.181C325.475 42.9591 325.23 43.8442 324.736 44.5805C324.297 45.236 323.903 45.4175 324.039 45.3432C324.182 45.2649 324.671 45.0393 325.65 44.8384C326.609 44.6413 327.884 44.5001 329.484 44.4921L329.434 34.4922L329.383 24.4923C324.214 24.5183 318.857 25.3735 314.418 27.8091C309.628 30.4374 305.407 35.3559 305.469 42.358L315.469 42.2695ZM329.434 39.7344L329.527 29.7348C326.892 29.7102 323.723 29.8857 320.863 30.886C319.386 31.4026 317.319 32.3674 315.533 34.2597C313.533 36.3788 312.344 39.1944 312.344 42.2695H322.344H332.344C332.344 44.4638 331.466 46.5167 330.077 47.9886C328.902 49.2336 327.745 49.6668 327.466 49.7644C327.002 49.9268 327.377 49.7156 329.34 49.7339L329.434 39.7344ZM322.344 42.2695H312.344C312.344 45.5049 313.675 48.3946 315.797 50.4793C317.647 52.2973 319.736 53.1644 321.131 53.6083C323.862 54.4778 326.915 54.6328 329.434 54.6328V44.6328V34.6328C327.354 34.6328 326.863 34.4441 327.198 34.5509C327.395 34.6135 328.573 34.9945 329.813 36.2123C330.483 36.87 331.155 37.7611 331.645 38.8985C332.139 40.0452 332.344 41.2059 332.344 42.2695H322.344ZM329.434 44.6328V54.6328C331.968 54.6328 335.024 54.4786 337.758 53.6083C339.163 53.1611 341.227 52.2981 343.063 50.5099C345.152 48.4753 346.482 45.6739 346.563 42.5259L336.566 42.2695L326.57 42.0132C326.629 39.7031 327.637 37.616 329.11 36.1817C330.33 34.9936 331.483 34.6167 331.69 34.5509C331.971 34.4617 331.961 34.502 331.479 34.5515C331.033 34.5972 330.368 34.6328 329.434 34.6328V44.6328ZM336.566 42.2695L346.563 42.0257C346.394 35.0613 340.952 31.9094 338.026 30.886C335.163 29.8847 331.99 29.7103 329.341 29.7348L329.434 39.7344L329.526 49.7339C330.406 49.7258 331.013 49.761 331.396 49.8036C331.813 49.8499 331.762 49.883 331.423 49.7644C331.134 49.6635 330.001 49.2351 328.845 48.0203C327.489 46.5968 326.621 44.6255 326.569 42.5134L336.566 42.2695ZM380.695 10H390.695C390.695 4.47715 386.218 0 380.695 0V10ZM380.695 49.7461V59.7461C386.218 59.7461 390.695 55.2689 390.695 49.7461H380.695ZM373.691 49.7461H363.691C363.691 55.2689 368.169 59.7461 373.691 59.7461V49.7461ZM373.691 10V0C368.169 0 363.691 4.47715 363.691 10L373.691 10ZM368.664 14.082H378.664C378.664 8.55918 374.187 4.08203 368.664 4.08203V14.082ZM350.402 43.3437L342.021 48.7983C344.738 52.9739 350.115 54.5123 354.63 52.4063L350.402 43.3437ZM346.879 37.9297L342.58 28.9011C339.977 30.1404 338.036 32.4424 337.254 35.2169C336.472 37.9913 336.925 40.9683 338.497 43.3842L346.879 37.9297ZM361.66 19.4531L371.604 20.5094C371.904 17.6892 370.992 14.8745 369.095 12.7659C367.199 10.6573 364.496 9.45312 361.66 9.45312V19.4531ZM349.156 19.4531H339.156C339.156 24.976 343.633 29.4531 349.156 29.4531V19.4531ZM349.156 14.082V4.08203C343.633 4.08203 339.156 8.55918 339.156 14.082H349.156ZM380.695 10H370.695V49.7461H380.695H390.695V10H380.695ZM380.695 49.7461V39.7461H373.691V49.7461V59.7461H380.695V49.7461ZM373.691 49.7461H383.691V10H373.691L363.691 10V49.7461H373.691ZM373.691 10V20H380.695V10V0H373.691V10ZM368.664 14.082H358.664C358.664 19.4566 357.886 23.132 356.32 25.9487C354.837 28.6154 352.083 31.5252 346.175 34.2812L350.402 43.3437L354.63 52.4063C363.46 48.2873 369.836 42.7967 373.8 35.6665C377.681 28.6864 378.664 21.1684 378.664 14.082H368.664ZM350.402 43.3437L358.784 37.8892L355.26 32.4751L346.879 37.9297L338.497 43.3842L342.021 48.7983L350.402 43.3437ZM346.879 37.9297L351.178 46.9583C356.958 44.2061 361.905 40.8257 365.532 36.197C369.27 31.4275 371.011 26.0982 371.604 20.5094L361.66 19.4531L351.716 18.3969C351.429 21.101 350.742 22.6468 349.79 23.8606C348.729 25.2154 346.726 26.9267 342.58 28.9011L346.879 37.9297ZM361.66 19.4531V9.45312H349.156V19.4531V29.4531H361.66V19.4531ZM349.156 19.4531H359.156V14.082H349.156H339.156V19.4531H349.156ZM349.156 14.082V24.082H368.664V14.082V4.08203H349.156V14.082ZM417.348 20.0977H427.348C427.348 14.5748 422.871 10.0977 417.348 10.0977V20.0977ZM417.348 25.4258V35.4258C422.871 35.4258 427.348 30.9486 427.348 25.4258H417.348ZM389.246 25.4258H379.246C379.246 30.9486 383.723 35.4258 389.246 35.4258V25.4258ZM389.246 11.418V1.41797C383.723 1.41797 379.246 5.89512 379.246 11.418H389.246ZM396.121 11.418H406.121C406.121 5.89512 401.644 1.41797 396.121 1.41797V11.418ZM396.121 20.0977H386.121C386.121 25.6205 390.598 30.0977 396.121 30.0977V20.0977ZM421.258 28.9492H431.258C431.258 23.4264 426.781 18.9492 421.258 18.9492V28.9492ZM421.258 34.2773V44.2773C426.781 44.2773 431.258 39.8002 431.258 34.2773H421.258ZM384.992 34.2773H374.992C374.992 39.8002 379.469 44.2773 384.992 44.2773V34.2773ZM384.992 28.9492V18.9492C379.469 18.9492 374.992 23.4264 374.992 28.9492H384.992ZM417.605 43.4727H427.605C427.605 37.9498 423.128 33.4727 417.605 33.4727V43.4727ZM417.605 48.9727V58.9727C423.128 58.9727 427.605 54.4955 427.605 48.9727H417.605ZM388.773 48.9727H378.773C378.773 54.4955 383.251 58.9727 388.773 58.9727V48.9727ZM388.773 37.0273V27.0273C383.251 27.0273 378.773 31.5045 378.773 37.0273H388.773ZM395.734 37.0273L405.734 37.0273C405.734 31.5045 401.257 27.0273 395.734 27.0273V37.0273ZM395.734 43.4727H385.734C385.734 48.9955 390.212 53.4727 395.734 53.4727V43.4727ZM417.348 20.0977H407.348V25.4258H417.348H427.348V20.0977H417.348ZM417.348 25.4258V15.4258H389.246V25.4258V35.4258L417.348 35.4258V25.4258ZM389.246 25.4258H399.246V11.418H389.246H379.246V25.4258H389.246ZM389.246 11.418V21.418H396.121V11.418V1.41797H389.246V11.418ZM396.121 11.418H386.121V20.0977H396.121H406.121V11.418H396.121ZM396.121 20.0977V30.0977L417.348 30.0977V20.0977V10.0977H396.121V20.0977ZM421.258 28.9492H411.258V34.2773H421.258H431.258V28.9492H421.258ZM421.258 34.2773V24.2773H384.992V34.2773V44.2773L421.258 44.2773V34.2773ZM384.992 34.2773H394.992V28.9492H384.992H374.992V34.2773H384.992ZM384.992 28.9492V38.9492L421.258 38.9492V28.9492V18.9492H384.992V28.9492ZM417.605 43.4727H407.605V48.9727H417.605H427.605V43.4727H417.605ZM417.605 48.9727V38.9727L388.773 38.9727V48.9727V58.9727L417.605 58.9727V48.9727ZM388.773 48.9727L398.773 48.9727V37.0273L388.773 37.0273H378.773V48.9727H388.773ZM388.773 37.0273V47.0273H395.734V37.0273V27.0273H388.773V37.0273ZM395.734 37.0273H385.734V43.4727H395.734L405.734 43.4727V37.0273L395.734 37.0273ZM395.734 43.4727V53.4727L417.605 53.4727V43.4727V33.4727L395.734 33.4727V43.4727Z" fill="white" mask="url(#path-1-outside-1_6524_1867)"/>
</g>
<defs>
<filter id="filter0_d_6524_1867" x="0" y="0" width="435.258" height="67.875" filterUnits="userSpaceOnUse" color-interpolation-filters="sRGB">
<feFlood flood-opacity="0" result="BackgroundImageFix"/>
<feColorMatrix in="SourceAlpha" type="matrix" values="0 0 0 0 0 0 0 0 0 0 0 0 0 0 0 0 0 0 127 0" result="hardAlpha"/>
<feOffset dy="4"/>
<feGaussianBlur stdDeviation="2"/>
<feComposite in2="hardAlpha" operator="out"/>
<feColorMatrix type="matrix" values="0 0 0 0 0 0 0 0 0 0 0 0 0 0 0 0 0 0 0.07 0"/>
<feBlend mode="normal" in2="BackgroundImageFix" result="effect1_dropShadow_6524_1867"/>
<feBlend mode="normal" in="SourceGraphic" in2="effect1_dropShadow_6524_1867" result="shape"/>
</filter>
</defs>
</svg>
