<svg width="263" height="68" viewBox="0 0 263 68" fill="none" xmlns="http://www.w3.org/2000/svg">
<g filter="url(#filter0_d_6526_5697)">
<mask id="path-1-outside-1_6526_5697" maskUnits="userSpaceOnUse" x="3.09766" y="-0.378906" width="256" height="61" fill="black">
<rect fill="white" x="3.09766" y="-0.378906" width="256" height="61"/>
<path d="M25.2578 11.5039V14.7695H38.8359V11.5039L45.668 11.5039V27.9609H35.5273V30.7539H50.2656V36.2109H14V30.7539H28.5664V27.9609H18.5117V11.5039H25.2578ZM25.2578 22.5039H38.8359V20.0117H25.2578V22.5039ZM46.0547 43.8164V49.3164H18.168V37.9297H25.0859V43.8164H46.0547ZM85.5 10.1289V30.4102H78.625V10.1289H85.5ZM85.543 31.7422V43.0859H65.2188V44.5039H86.4023V49.7031H58.4727V38.2305H78.668V36.8984H58.3867V31.7422H85.543ZM75.4883 11.7187V17.1328H68.3984C69.0215 20.334 71.4707 23.5566 77.3359 24.9961L74.1133 30.2812C69.623 29.1426 66.6582 26.7578 64.918 23.75C63.0703 27.166 59.9121 29.8516 55.0781 31.0977L51.9414 25.6406C57.957 24.1367 60.4707 20.6133 61.0938 17.1328H53.7461V11.7187H75.4883ZM115.75 20.0977C115.75 26.3281 118.07 33.2031 125.246 36.125L121.594 41.4961C117.039 39.627 114.096 36.1465 112.398 31.8711C110.658 36.6191 107.672 40.4863 103.031 42.5273L99.1641 37.1133C106.297 34.0195 108.703 26.7578 108.703 20.0977V19.4102H100.883V13.8242H123.355V19.4102H115.75V20.0977ZM133.195 10.1289V49.875H126.234V10.1289H133.195ZM174.145 15.2422V20.7852H169.461V23.9219H174.145V29.4648H169.461V35.1367H162.543V10.1289H169.461V15.2422H174.145ZM156.184 35.5664C164.477 35.5664 169.848 38.2734 169.891 42.7852C169.848 47.2109 164.477 49.9609 156.184 49.9609C147.719 49.9609 142.434 47.2109 142.477 42.7852C142.434 38.2734 147.719 35.5664 156.184 35.5664ZM156.184 40.7656C151.5 40.7656 149.309 41.2383 149.309 42.7852C149.309 44.2031 151.5 44.8906 156.184 44.8906C160.738 44.8906 162.93 44.2031 162.93 42.7852C162.93 41.2383 160.738 40.7656 156.184 40.7656ZM161.125 13.4805V18.8086H137.621V13.4805H145.914V10H152.832V13.4805H161.125ZM149.352 19.7109C155.152 19.7109 159.277 22.7187 159.277 26.9297C159.277 31.2266 155.152 34.1055 149.352 34.1484C143.465 34.1055 139.34 31.2266 139.34 26.9297C139.34 22.7187 143.465 19.7109 149.352 19.7109ZM149.352 24.6953C147.375 24.6953 146.086 25.3398 146.086 26.9297C146.086 28.4766 147.375 29.1211 149.352 29.1211C151.371 29.1211 152.746 28.4766 152.746 26.9297C152.746 25.3398 151.371 24.6953 149.352 24.6953ZM198.723 12.0625V17.4766H191.504C191.848 21.4941 194.146 25.6191 200.141 27.5742L196.832 32.8594C192.557 31.5918 189.721 29.0352 188.023 25.8125C186.262 29.3789 183.297 32.2363 178.742 33.5898L175.219 28.1758C181.621 26.2637 183.963 21.709 184.371 17.4766H177.109V12.0625H198.723ZM209.508 35.2656V49.875H202.633V40.7227H181.879V35.2656H209.508ZM209.508 10.1289V33.7617H202.633V24.7383H197.691V19.1523H202.633V10.1289H209.508ZM247.234 10.2148V38.4453H240.316V10.2148H247.234ZM248.18 43.8164V49.3164H220.035V35.6094H226.996V43.8164H248.18ZM225.277 12.5781C231.465 12.5781 236.406 16.875 236.406 22.7617C236.406 28.7773 231.465 33.0312 225.277 33.0312C219.09 33.0312 214.105 28.7773 214.148 22.7617C214.105 16.875 219.09 12.5781 225.277 12.5781ZM225.277 18.5508C222.742 18.5508 220.852 19.9687 220.852 22.7617C220.852 25.6836 222.742 27.0586 225.277 27.0586C227.684 27.0586 229.574 25.6836 229.574 22.7617C229.574 19.9687 227.684 18.5508 225.277 18.5508Z"/>
</mask>
<path d="M25.2578 11.5039V14.7695H38.8359V11.5039L45.668 11.5039V27.9609H35.5273V30.7539H50.2656V36.2109H14V30.7539H28.5664V27.9609H18.5117V11.5039H25.2578ZM25.2578 22.5039H38.8359V20.0117H25.2578V22.5039ZM46.0547 43.8164V49.3164H18.168V37.9297H25.0859V43.8164H46.0547ZM85.5 10.1289V30.4102H78.625V10.1289H85.5ZM85.543 31.7422V43.0859H65.2188V44.5039H86.4023V49.7031H58.4727V38.2305H78.668V36.8984H58.3867V31.7422H85.543ZM75.4883 11.7187V17.1328H68.3984C69.0215 20.334 71.4707 23.5566 77.3359 24.9961L74.1133 30.2812C69.623 29.1426 66.6582 26.7578 64.918 23.75C63.0703 27.166 59.9121 29.8516 55.0781 31.0977L51.9414 25.6406C57.957 24.1367 60.4707 20.6133 61.0938 17.1328H53.7461V11.7187H75.4883ZM115.75 20.0977C115.75 26.3281 118.07 33.2031 125.246 36.125L121.594 41.4961C117.039 39.627 114.096 36.1465 112.398 31.8711C110.658 36.6191 107.672 40.4863 103.031 42.5273L99.1641 37.1133C106.297 34.0195 108.703 26.7578 108.703 20.0977V19.4102H100.883V13.8242H123.355V19.4102H115.75V20.0977ZM133.195 10.1289V49.875H126.234V10.1289H133.195ZM174.145 15.2422V20.7852H169.461V23.9219H174.145V29.4648H169.461V35.1367H162.543V10.1289H169.461V15.2422H174.145ZM156.184 35.5664C164.477 35.5664 169.848 38.2734 169.891 42.7852C169.848 47.2109 164.477 49.9609 156.184 49.9609C147.719 49.9609 142.434 47.2109 142.477 42.7852C142.434 38.2734 147.719 35.5664 156.184 35.5664ZM156.184 40.7656C151.5 40.7656 149.309 41.2383 149.309 42.7852C149.309 44.2031 151.5 44.8906 156.184 44.8906C160.738 44.8906 162.93 44.2031 162.93 42.7852C162.93 41.2383 160.738 40.7656 156.184 40.7656ZM161.125 13.4805V18.8086H137.621V13.4805H145.914V10H152.832V13.4805H161.125ZM149.352 19.7109C155.152 19.7109 159.277 22.7187 159.277 26.9297C159.277 31.2266 155.152 34.1055 149.352 34.1484C143.465 34.1055 139.34 31.2266 139.34 26.9297C139.34 22.7187 143.465 19.7109 149.352 19.7109ZM149.352 24.6953C147.375 24.6953 146.086 25.3398 146.086 26.9297C146.086 28.4766 147.375 29.1211 149.352 29.1211C151.371 29.1211 152.746 28.4766 152.746 26.9297C152.746 25.3398 151.371 24.6953 149.352 24.6953ZM198.723 12.0625V17.4766H191.504C191.848 21.4941 194.146 25.6191 200.141 27.5742L196.832 32.8594C192.557 31.5918 189.721 29.0352 188.023 25.8125C186.262 29.3789 183.297 32.2363 178.742 33.5898L175.219 28.1758C181.621 26.2637 183.963 21.709 184.371 17.4766H177.109V12.0625H198.723ZM209.508 35.2656V49.875H202.633V40.7227H181.879V35.2656H209.508ZM209.508 10.1289V33.7617H202.633V24.7383H197.691V19.1523H202.633V10.1289H209.508ZM247.234 10.2148V38.4453H240.316V10.2148H247.234ZM248.18 43.8164V49.3164H220.035V35.6094H226.996V43.8164H248.18ZM225.277 12.5781C231.465 12.5781 236.406 16.875 236.406 22.7617C236.406 28.7773 231.465 33.0312 225.277 33.0312C219.09 33.0312 214.105 28.7773 214.148 22.7617C214.105 16.875 219.09 12.5781 225.277 12.5781ZM225.277 18.5508C222.742 18.5508 220.852 19.9687 220.852 22.7617C220.852 25.6836 222.742 27.0586 225.277 27.0586C227.684 27.0586 229.574 25.6836 229.574 22.7617C229.574 19.9687 227.684 18.5508 225.277 18.5508Z" fill="#11DCA9"/>
<path d="M25.2578 11.5039H35.2578C35.2578 5.98106 30.7807 1.50391 25.2578 1.50391V11.5039ZM25.2578 14.7695H15.2578C15.2578 20.2924 19.735 24.7695 25.2578 24.7695V14.7695ZM38.8359 14.7695V24.7695C44.3588 24.7695 48.8359 20.2924 48.8359 14.7695H38.8359ZM38.8359 11.5039V1.50391C33.3131 1.50391 28.8359 5.98106 28.8359 11.5039H38.8359ZM45.668 11.5039H55.668C55.668 5.98106 51.1908 1.50391 45.668 1.50391V11.5039ZM45.668 27.9609V37.9609C51.1908 37.9609 55.668 33.4838 55.668 27.9609H45.668ZM35.5273 27.9609V17.9609C30.0045 17.9609 25.5273 22.4381 25.5273 27.9609H35.5273ZM35.5273 30.7539H25.5273C25.5273 36.2768 30.0045 40.7539 35.5273 40.7539V30.7539ZM50.2656 30.7539H60.2656C60.2656 25.2311 55.7885 20.7539 50.2656 20.7539V30.7539ZM50.2656 36.2109V46.2109C55.7885 46.2109 60.2656 41.7338 60.2656 36.2109H50.2656ZM14 36.2109H4C4 41.7338 8.47715 46.2109 14 46.2109V36.2109ZM14 30.7539L14 20.7539C8.47715 20.7539 4 25.2311 4 30.7539H14ZM28.5664 30.7539V40.7539C34.0893 40.7539 38.5664 36.2768 38.5664 30.7539H28.5664ZM28.5664 27.9609H38.5664C38.5664 22.4381 34.0893 17.9609 28.5664 17.9609V27.9609ZM18.5117 27.9609H8.51172C8.51172 33.4838 12.9889 37.9609 18.5117 37.9609V27.9609ZM18.5117 11.5039V1.50391C12.9889 1.50391 8.51172 5.98106 8.51172 11.5039H18.5117ZM25.2578 22.5039H15.2578C15.2578 28.0268 19.735 32.5039 25.2578 32.5039V22.5039ZM38.8359 22.5039V32.5039C44.3588 32.5039 48.8359 28.0268 48.8359 22.5039H38.8359ZM38.8359 20.0117H48.8359C48.8359 14.4889 44.3588 10.0117 38.8359 10.0117V20.0117ZM25.2578 20.0117V10.0117C19.735 10.0117 15.2578 14.4889 15.2578 20.0117H25.2578ZM46.0547 43.8164H56.0547C56.0547 38.2936 51.5775 33.8164 46.0547 33.8164V43.8164ZM46.0547 49.3164V59.3164C51.5775 59.3164 56.0547 54.8393 56.0547 49.3164H46.0547ZM18.168 49.3164H8.16797C8.16797 54.8393 12.6451 59.3164 18.168 59.3164V49.3164ZM18.168 37.9297V27.9297C12.6451 27.9297 8.16797 32.4068 8.16797 37.9297H18.168ZM25.0859 37.9297H35.0859C35.0859 32.4068 30.6088 27.9297 25.0859 27.9297V37.9297ZM25.0859 43.8164H15.0859C15.0859 49.3393 19.5631 53.8164 25.0859 53.8164V43.8164ZM25.2578 11.5039H15.2578V14.7695H25.2578H35.2578V11.5039H25.2578ZM25.2578 14.7695V24.7695H38.8359V14.7695V4.76953H25.2578V14.7695ZM38.8359 14.7695H48.8359V11.5039L38.8359 11.5039H28.8359V14.7695H38.8359ZM38.8359 11.5039V21.5039H45.668V11.5039V1.50391H38.8359V11.5039ZM45.668 11.5039L35.668 11.5039V27.9609H45.668H55.668V11.5039H45.668ZM45.668 27.9609V17.9609H35.5273V27.9609V37.9609H45.668V27.9609ZM35.5273 27.9609H25.5273V30.7539H35.5273H45.5273V27.9609H35.5273ZM35.5273 30.7539V40.7539H50.2656V30.7539V20.7539H35.5273V30.7539ZM50.2656 30.7539H40.2656V36.2109H50.2656H60.2656V30.7539H50.2656ZM50.2656 36.2109V26.2109H14L14 36.2109V46.2109H50.2656V36.2109ZM14 36.2109H24V30.7539H14H4V36.2109H14ZM14 30.7539V40.7539H28.5664V30.7539V20.7539H14L14 30.7539ZM28.5664 30.7539H38.5664V27.9609H28.5664H18.5664V30.7539H28.5664ZM28.5664 27.9609V17.9609H18.5117V27.9609V37.9609H28.5664V27.9609ZM18.5117 27.9609H28.5117V11.5039H18.5117H8.51172V27.9609H18.5117ZM18.5117 11.5039V21.5039H25.2578V11.5039V1.50391H18.5117V11.5039ZM25.2578 22.5039V32.5039H38.8359V22.5039V12.5039H25.2578V22.5039ZM38.8359 22.5039H48.8359V20.0117H38.8359H28.8359V22.5039H38.8359ZM38.8359 20.0117V10.0117H25.2578V20.0117V30.0117H38.8359V20.0117ZM25.2578 20.0117H15.2578V22.5039H25.2578H35.2578V20.0117H25.2578ZM46.0547 43.8164H36.0547V49.3164H46.0547H56.0547V43.8164H46.0547ZM46.0547 49.3164V39.3164H18.168V49.3164V59.3164H46.0547V49.3164ZM18.168 49.3164H28.168V37.9297H18.168H8.16797L8.16797 49.3164H18.168ZM18.168 37.9297V47.9297H25.0859V37.9297V27.9297H18.168V37.9297ZM25.0859 37.9297H15.0859V43.8164H25.0859H35.0859V37.9297H25.0859ZM25.0859 43.8164V53.8164H46.0547V43.8164V33.8164H25.0859V43.8164ZM85.5 10.1289H95.5C95.5 4.60606 91.0229 0.128906 85.5 0.128906V10.1289ZM85.5 30.4102V40.4102C91.0229 40.4102 95.5 35.933 95.5 30.4102H85.5ZM78.625 30.4102H68.625C68.625 35.933 73.1022 40.4102 78.625 40.4102V30.4102ZM78.625 10.1289V0.128906C73.1022 0.128906 68.625 4.60606 68.625 10.1289H78.625ZM85.543 31.7422H95.543C95.543 26.2193 91.0658 21.7422 85.543 21.7422V31.7422ZM85.543 43.0859V53.0859C91.0658 53.0859 95.543 48.6088 95.543 43.0859H85.543ZM65.2188 43.0859V33.0859C59.6959 33.0859 55.2188 37.5631 55.2188 43.0859H65.2188ZM65.2188 44.5039H55.2188C55.2188 50.0268 59.6959 54.5039 65.2188 54.5039V44.5039ZM86.4023 44.5039H96.4023C96.4023 38.9811 91.9252 34.5039 86.4023 34.5039V44.5039ZM86.4023 49.7031V59.7031C91.9252 59.7031 96.4023 55.226 96.4023 49.7031H86.4023ZM58.4727 49.7031H48.4727C48.4727 55.226 52.9498 59.7031 58.4727 59.7031V49.7031ZM58.4727 38.2305V28.2305C52.9498 28.2305 48.4727 32.7076 48.4727 38.2305H58.4727ZM78.668 38.2305V48.2305C84.1908 48.2305 88.668 43.7533 88.668 38.2305H78.668ZM78.668 36.8984H88.668C88.668 31.3756 84.1908 26.8984 78.668 26.8984V36.8984ZM58.3867 36.8984H48.3867C48.3867 42.4213 52.8639 46.8984 58.3867 46.8984V36.8984ZM58.3867 31.7422V21.7422C52.8639 21.7422 48.3867 26.2193 48.3867 31.7422H58.3867ZM75.4883 11.7187H85.4883C85.4883 6.1959 81.0111 1.71875 75.4883 1.71875V11.7187ZM75.4883 17.1328V27.1328C81.0111 27.1328 85.4883 22.6557 85.4883 17.1328L75.4883 17.1328ZM68.3984 17.1328V7.13281C65.4116 7.13281 62.581 8.46798 60.6814 10.773C58.7818 13.0779 58.012 16.1114 58.5826 19.0433L68.3984 17.1328ZM77.3359 24.9961L85.8739 30.2022C87.5337 27.4801 87.7961 24.1296 86.5801 21.1823C85.3642 18.235 82.8158 16.0442 79.7194 15.2843L77.3359 24.9961ZM74.1133 30.2812L71.6552 39.9744C75.908 41.0529 80.3671 39.2333 82.6512 35.4873L74.1133 30.2812ZM64.918 23.75L73.5736 18.7421C71.7604 15.6081 68.3948 13.6991 64.7745 13.751C61.1542 13.803 57.8447 15.8078 56.1222 18.9925L64.918 23.75ZM55.0781 31.0977L46.4083 36.0811C48.6498 39.9806 53.2189 41.9038 57.5743 40.7811L55.0781 31.0977ZM51.9414 25.6406L49.516 15.9392C46.4745 16.6996 43.9657 18.8423 42.7389 21.7274C41.512 24.6125 41.7092 27.906 43.2716 30.6241L51.9414 25.6406ZM61.0938 17.1328L70.9373 18.8949C71.4589 15.9808 70.6626 12.9852 68.7626 10.7149C66.8625 8.44458 64.0542 7.13281 61.0938 7.13281V17.1328ZM53.7461 17.1328H43.7461C43.7461 22.6557 48.2232 27.1328 53.7461 27.1328V17.1328ZM53.7461 11.7187V1.71875C48.2232 1.71875 43.7461 6.1959 43.7461 11.7188L53.7461 11.7187ZM85.5 10.1289H75.5V30.4102H85.5H95.5V10.1289H85.5ZM85.5 30.4102V20.4102H78.625V30.4102V40.4102H85.5V30.4102ZM78.625 30.4102H88.625V10.1289H78.625H68.625V30.4102H78.625ZM78.625 10.1289V20.1289H85.5V10.1289V0.128906L78.625 0.128906V10.1289ZM85.543 31.7422H75.543V43.0859H85.543H95.543V31.7422H85.543ZM85.543 43.0859V33.0859H65.2188V43.0859V53.0859H85.543V43.0859ZM65.2188 43.0859H55.2188V44.5039H65.2188H75.2188V43.0859H65.2188ZM65.2188 44.5039V54.5039H86.4023V44.5039V34.5039H65.2188V44.5039ZM86.4023 44.5039H76.4023V49.7031H86.4023H96.4023V44.5039H86.4023ZM86.4023 49.7031V39.7031H58.4727V49.7031V59.7031H86.4023V49.7031ZM58.4727 49.7031H68.4727V38.2305H58.4727H48.4727V49.7031H58.4727ZM58.4727 38.2305V48.2305H78.668V38.2305V28.2305L58.4727 28.2305V38.2305ZM78.668 38.2305H88.668V36.8984H78.668H68.668V38.2305H78.668ZM78.668 36.8984V26.8984L58.3867 26.8984V36.8984V46.8984H78.668V36.8984ZM58.3867 36.8984H68.3867V31.7422H58.3867H48.3867V36.8984H58.3867ZM58.3867 31.7422V41.7422H85.543V31.7422V21.7422L58.3867 21.7422V31.7422ZM75.4883 11.7187H65.4883V17.1328H75.4883L85.4883 17.1328V11.7187H75.4883ZM75.4883 17.1328V7.13281H68.3984V17.1328V27.1328H75.4883V17.1328ZM68.3984 17.1328L58.5826 19.0433C60.0608 26.6382 65.8956 32.4852 74.9525 34.7079L77.3359 24.9961L79.7194 15.2843C78.1526 14.8998 77.7795 14.4649 77.8772 14.56C77.9156 14.5975 77.998 14.6926 78.077 14.8423C78.153 14.9864 78.1945 15.1211 78.2142 15.2224L68.3984 17.1328ZM77.3359 24.9961L68.798 19.79L65.5753 25.0752L74.1133 30.2812L82.6512 35.4873L85.8739 30.2022L77.3359 24.9961ZM74.1133 30.2812L76.5714 20.5881C75.4438 20.3021 74.7797 19.9323 74.3974 19.6521C74.0231 19.3776 73.7696 19.0808 73.5736 18.7421L64.918 23.75L56.2623 28.7579C59.4568 34.2792 64.761 38.2262 71.6552 39.9744L74.1133 30.2812ZM64.918 23.75L56.1222 18.9925C55.8242 19.5433 55.4636 19.9695 55.0075 20.3215C54.5485 20.6758 53.8059 21.0987 52.5819 21.4142L55.0781 31.0977L57.5743 40.7811C65.013 38.8636 70.4997 34.4497 73.7138 28.5075L64.918 23.75ZM55.0781 31.0977L63.7479 26.1142L60.6112 20.6572L51.9414 25.6406L43.2716 30.6241L46.4083 36.0811L55.0781 31.0977ZM51.9414 25.6406L54.3668 35.342C63.9133 32.9554 69.5693 26.5368 70.9373 18.8949L61.0938 17.1328L51.2502 15.3707C51.2486 15.3795 51.2542 15.3444 51.284 15.284C51.2985 15.2549 51.3151 15.2271 51.332 15.2031C51.3401 15.1915 51.3472 15.1824 51.3527 15.1758C51.3581 15.1692 51.3611 15.1662 51.3606 15.1667C51.3606 15.1667 51.3412 15.1868 51.293 15.2232C51.2445 15.2599 51.1597 15.3182 51.0275 15.3904C50.7637 15.5345 50.2882 15.7462 49.516 15.9392L51.9414 25.6406ZM61.0938 17.1328V7.13281H53.7461V17.1328V27.1328H61.0938V17.1328ZM53.7461 17.1328H63.7461V11.7187H53.7461L43.7461 11.7188V17.1328H53.7461ZM53.7461 11.7187V21.7188H75.4883V11.7187V1.71875L53.7461 1.71875V11.7187ZM125.246 36.125L133.515 41.7481C135.213 39.2517 135.692 36.1221 134.819 33.2323C133.945 30.3425 131.813 28.0018 129.017 26.8634L125.246 36.125ZM121.594 41.4961L117.797 50.7474C122.171 52.5423 127.204 51.0288 129.863 47.1192L121.594 41.4961ZM112.398 31.8711L121.693 28.1814C120.163 24.3269 116.412 21.8168 112.265 21.872C108.119 21.9271 104.436 24.536 103.009 28.4298L112.398 31.8711ZM103.031 42.5273L94.8939 48.3397C97.646 52.1926 102.723 53.5874 107.057 51.6811L103.031 42.5273ZM99.1641 37.1133L95.1849 27.9391C92.4145 29.1407 90.3354 31.5299 89.5281 34.4397C88.7207 37.3495 89.2715 40.4684 91.0267 42.9257L99.1641 37.1133ZM108.703 19.4102H118.703C118.703 13.8873 114.226 9.41016 108.703 9.41016V19.4102ZM100.883 19.4102H90.8828C90.8828 24.933 95.36 29.4102 100.883 29.4102V19.4102ZM100.883 13.8242V3.82422C95.36 3.82422 90.8828 8.30137 90.8828 13.8242H100.883ZM123.355 13.8242H133.355C133.355 8.30137 128.878 3.82422 123.355 3.82422V13.8242ZM123.355 19.4102V29.4102C128.878 29.4102 133.355 24.933 133.355 19.4102H123.355ZM115.75 19.4102V9.41016C110.227 9.41016 105.75 13.8873 105.75 19.4102H115.75ZM133.195 10.1289H143.195C143.195 4.60606 138.718 0.128906 133.195 0.128906V10.1289ZM133.195 49.875V59.875C138.718 59.875 143.195 55.3978 143.195 49.875L133.195 49.875ZM126.234 49.875H116.234C116.234 55.3978 120.712 59.875 126.234 59.875V49.875ZM126.234 10.1289V0.128906C120.712 0.128906 116.234 4.60606 116.234 10.1289H126.234ZM115.75 20.0977H105.75C105.75 28.3794 108.962 40.2917 121.475 45.3866L125.246 36.125L129.017 26.8634C127.816 26.3741 127.169 25.6883 126.694 24.7669C126.129 23.6728 125.75 22.0659 125.75 20.0977H115.75ZM125.246 36.125L116.977 30.5019L113.324 35.873L121.594 41.4961L129.863 47.1192L133.515 41.7481L125.246 36.125ZM121.594 41.4961L125.39 32.2448C123.766 31.5783 122.569 30.388 121.693 28.1814L112.398 31.8711L103.104 35.5608C105.623 41.9049 110.312 47.6756 117.797 50.7474L121.594 41.4961ZM112.398 31.8711L103.009 28.4298C101.947 31.3288 100.543 32.6974 99.0053 33.3736L103.031 42.5273L107.057 51.6811C114.801 48.2753 119.37 41.9095 121.788 35.3124L112.398 31.8711ZM103.031 42.5273L111.169 36.715L107.301 31.3009L99.1641 37.1133L91.0267 42.9257L94.8939 48.3397L103.031 42.5273ZM99.1641 37.1133L103.143 46.2875C115.564 40.9001 118.703 28.5922 118.703 20.0977H108.703H98.7031C98.7031 22.3183 98.2888 24.2007 97.6357 25.528C97.0581 26.7019 96.316 27.4485 95.1849 27.9391L99.1641 37.1133ZM108.703 20.0977H118.703V19.4102H108.703H98.7031V20.0977H108.703ZM108.703 19.4102V9.41016H100.883V19.4102V29.4102H108.703V19.4102ZM100.883 19.4102H110.883V13.8242H100.883H90.8828V19.4102H100.883ZM100.883 13.8242V23.8242H123.355V13.8242V3.82422H100.883V13.8242ZM123.355 13.8242H113.355V19.4102H123.355H133.355V13.8242H123.355ZM123.355 19.4102V9.41016H115.75V19.4102V29.4102H123.355V19.4102ZM115.75 19.4102H105.75V20.0977H115.75H125.75V19.4102H115.75ZM133.195 10.1289H123.195V49.875H133.195L143.195 49.875V10.1289H133.195ZM133.195 49.875V39.875H126.234V49.875V59.875H133.195V49.875ZM126.234 49.875H136.234V10.1289H126.234H116.234V49.875H126.234ZM126.234 10.1289V20.1289H133.195V10.1289V0.128906L126.234 0.128906V10.1289ZM174.145 15.2422H184.145C184.145 9.71934 179.667 5.24219 174.145 5.24219V15.2422ZM174.145 20.7852V30.7852C179.667 30.7852 184.145 26.308 184.145 20.7852H174.145ZM169.461 20.7852V10.7852C163.938 10.7852 159.461 15.2623 159.461 20.7852H169.461ZM169.461 23.9219H159.461C159.461 29.4447 163.938 33.9219 169.461 33.9219V23.9219ZM174.145 23.9219H184.145C184.145 18.399 179.667 13.9219 174.145 13.9219V23.9219ZM174.145 29.4648V39.4648C179.667 39.4648 184.145 34.9877 184.145 29.4648H174.145ZM169.461 29.4648V19.4648C163.938 19.4648 159.461 23.942 159.461 29.4648H169.461ZM169.461 35.1367V45.1367C174.984 45.1367 179.461 40.6596 179.461 35.1367H169.461ZM162.543 35.1367H152.543C152.543 40.6596 157.02 45.1367 162.543 45.1367V35.1367ZM162.543 10.1289V0.128906C157.02 0.128906 152.543 4.60606 152.543 10.1289H162.543ZM169.461 10.1289L179.461 10.1289C179.461 4.60606 174.984 0.128906 169.461 0.128906V10.1289ZM169.461 15.2422H159.461C159.461 20.765 163.938 25.2422 169.461 25.2422V15.2422ZM169.891 42.7852L179.89 42.8822C179.891 42.8181 179.891 42.754 179.89 42.6899L169.891 42.7852ZM142.477 42.7852L152.476 42.8822C152.477 42.8181 152.477 42.754 152.476 42.6899L142.477 42.7852ZM161.125 13.4805H171.125C171.125 7.95762 166.648 3.48047 161.125 3.48047V13.4805ZM161.125 18.8086V28.8086C166.648 28.8086 171.125 24.3314 171.125 18.8086H161.125ZM137.621 18.8086H127.621C127.621 24.3314 132.098 28.8086 137.621 28.8086V18.8086ZM137.621 13.4805V3.48047C132.098 3.48047 127.621 7.95762 127.621 13.4805H137.621ZM145.914 13.4805V23.4805C151.437 23.4805 155.914 19.0033 155.914 13.4805H145.914ZM145.914 10V0C140.391 0 135.914 4.47715 135.914 10H145.914ZM152.832 10H162.832C162.832 4.47715 158.355 0 152.832 0V10ZM152.832 13.4805H142.832C142.832 19.0033 147.309 23.4805 152.832 23.4805V13.4805ZM149.352 34.1484L149.279 44.1482C149.328 44.1485 149.377 44.1485 149.426 44.1482L149.352 34.1484ZM174.145 15.2422H164.145V20.7852H174.145H184.145V15.2422H174.145ZM174.145 20.7852V10.7852L169.461 10.7852V20.7852V30.7852H174.145V20.7852ZM169.461 20.7852H159.461V23.9219H169.461H179.461V20.7852H169.461ZM169.461 23.9219V33.9219H174.145V23.9219V13.9219H169.461V23.9219ZM174.145 23.9219H164.145V29.4648H174.145H184.145V23.9219H174.145ZM174.145 29.4648V19.4648H169.461V29.4648V39.4648H174.145V29.4648ZM169.461 29.4648H159.461V35.1367H169.461H179.461V29.4648H169.461ZM169.461 35.1367V25.1367H162.543V35.1367V45.1367H169.461V35.1367ZM162.543 35.1367H172.543V10.1289H162.543H152.543V35.1367H162.543ZM162.543 10.1289V20.1289H169.461V10.1289V0.128906L162.543 0.128906V10.1289ZM169.461 10.1289H159.461V15.2422H169.461H179.461V10.1289L169.461 10.1289ZM169.461 15.2422V25.2422H174.145V15.2422V5.24219L169.461 5.24219V15.2422ZM156.184 35.5664V45.5664C157.729 45.5664 158.971 45.6939 159.912 45.8766C160.873 46.0631 161.365 46.2767 161.515 46.3551C161.668 46.4344 161.259 46.2609 160.78 45.5946C160.235 44.8372 159.9 43.8519 159.891 42.8804L169.891 42.7852L179.89 42.6899C179.823 35.6672 175.335 31.0001 170.746 28.6127C166.408 26.3556 161.212 25.5664 156.184 25.5664V35.5664ZM169.891 42.7852L159.891 42.6881C159.901 41.6539 160.261 40.6471 160.805 39.8977C161.283 39.2402 161.681 39.0754 161.515 39.1615C161.355 39.245 160.856 39.4606 159.897 39.6483C158.957 39.8323 157.72 39.9609 156.184 39.9609V49.9609V59.9609C161.237 59.9609 166.423 59.1531 170.746 56.9039C175.269 54.5509 179.822 49.9186 179.89 42.8822L169.891 42.7852ZM156.184 49.9609V39.9609C154.592 39.9609 153.324 39.8303 152.369 39.6452C151.395 39.4561 150.908 39.2414 150.771 39.1701C150.633 39.0975 151.075 39.292 151.578 40.0042C152.149 40.8133 152.486 41.8584 152.476 42.8822L142.477 42.7852L132.477 42.6881C132.408 49.7614 136.908 54.4915 141.508 56.8953C145.849 59.1644 151.08 59.9609 156.184 59.9609V49.9609ZM142.477 42.7852L152.476 42.6899C152.485 43.6498 152.174 44.6721 151.602 45.4881C151.098 46.2089 150.646 46.4122 150.771 46.3465C150.898 46.2803 151.378 46.0676 152.354 45.8797C153.31 45.6958 154.583 45.5664 156.184 45.5664V35.5664V25.5664C151.105 25.5664 145.864 26.3445 141.508 28.6213C136.841 31.0602 132.41 35.8249 132.477 42.8804L142.477 42.7852ZM156.184 40.7656V30.7656C153.837 30.7656 150.904 30.8479 148.339 31.553C147.025 31.9143 144.837 32.6872 142.876 34.5299C140.556 36.7104 139.309 39.6806 139.309 42.7852L149.309 42.7852H159.309C159.309 43.799 159.123 44.983 158.602 46.1975C158.079 47.4153 157.34 48.383 156.572 49.1042C155.169 50.4232 153.822 50.7878 153.64 50.8377C153.356 50.9159 153.374 50.8759 153.924 50.8324C154.427 50.7925 155.156 50.7656 156.184 50.7656V40.7656ZM149.309 42.7852L139.309 42.7852C139.309 46.0873 140.726 48.9636 142.848 50.9732C144.681 52.709 146.721 53.5183 148.046 53.9264C150.666 54.7335 153.621 54.8906 156.184 54.8906V44.8906V34.8906C154.063 34.8906 153.58 34.704 153.934 34.8128C154.125 34.8719 155.325 35.2434 156.6 36.4514C157.293 37.1073 158.011 38.016 158.541 39.2016C159.078 40.4017 159.309 41.6354 159.309 42.7852H149.309ZM156.184 44.8906V54.8906C158.698 54.8906 161.632 54.7318 164.247 53.9144C165.571 53.5007 167.599 52.6841 169.418 50.9483C171.518 48.9453 172.93 46.0809 172.93 42.7852H162.93H152.93C152.93 41.6356 153.16 40.407 153.692 39.214C154.217 38.0358 154.928 37.1311 155.614 36.4764C156.88 35.2683 158.075 34.8895 158.282 34.8248C158.663 34.7057 158.224 34.8906 156.184 34.8906V44.8906ZM162.93 42.7852H172.93C172.93 39.6861 171.688 36.7291 169.391 34.5547C167.443 32.7107 165.267 31.9297 163.951 31.5628C161.388 30.8482 158.477 30.7656 156.184 30.7656V40.7656V50.7656C157.174 50.7656 157.873 50.7923 158.352 50.831C158.876 50.8735 158.877 50.9111 158.579 50.8278C158.38 50.7724 157.036 50.3996 155.642 49.0793C154.881 48.3591 154.149 47.3955 153.632 46.1853C153.116 44.9779 152.93 43.7991 152.93 42.7852H162.93ZM161.125 13.4805H151.125V18.8086H161.125H171.125V13.4805H161.125ZM161.125 18.8086V8.80859H137.621V18.8086V28.8086L161.125 28.8086V18.8086ZM137.621 18.8086H147.621V13.4805H137.621H127.621V18.8086H137.621ZM137.621 13.4805V23.4805H145.914V13.4805V3.48047H137.621V13.4805ZM145.914 13.4805H155.914V10H145.914H135.914V13.4805H145.914ZM145.914 10V20H152.832V10V0L145.914 0V10ZM152.832 10H142.832V13.4805H152.832H162.832V10H152.832ZM152.832 13.4805V23.4805H161.125V13.4805V3.48047L152.832 3.48047V13.4805ZM149.352 19.7109V29.7109C150.624 29.7109 150.914 30.0512 150.605 29.8264C150.425 29.6952 150.074 29.3827 149.766 28.818C149.444 28.2284 149.277 27.5588 149.277 26.9297H159.277H169.277C169.277 21.2045 166.356 16.5536 162.374 13.656C158.553 10.8745 153.88 9.71094 149.352 9.71094V19.7109ZM159.277 26.9297H149.277C149.277 26.3533 149.429 25.689 149.764 25.0744C150.086 24.4849 150.458 24.1545 150.654 24.0138C150.977 23.7817 150.662 24.1385 149.277 24.1487L149.352 34.1484L149.426 44.1482C153.842 44.1155 158.49 43.0112 162.326 40.2548C166.376 37.344 169.277 32.6725 169.277 26.9297H159.277ZM149.352 34.1484L149.425 24.1487C147.97 24.1381 147.631 23.7686 147.951 23.9969C148.146 24.1367 148.523 24.4687 148.849 25.064C149.188 25.6844 149.34 26.353 149.34 26.9297H139.34H129.34C129.34 32.6793 132.249 37.3593 136.326 40.2716C140.18 43.0244 144.847 44.1158 149.279 44.1482L149.352 34.1484ZM139.34 26.9297H149.34C149.34 27.5591 149.173 28.233 148.847 28.8284C148.535 29.3989 148.18 29.7131 147.999 29.8435C147.693 30.0652 148.008 29.7109 149.352 29.7109V19.7109V9.71094C144.809 9.71094 140.118 10.8606 136.277 13.639C132.269 16.5384 129.34 21.1977 129.34 26.9297H139.34ZM149.352 24.6953V14.6953C147.581 14.6953 144.535 14.9301 141.635 16.7633C138.002 19.0592 136.086 22.9031 136.086 26.9297H146.086H156.086C156.086 27.9059 155.879 29.2353 155.138 30.6222C154.387 32.0286 153.334 33.0287 152.32 33.6693C151.368 34.271 150.539 34.5055 150.098 34.5998C149.647 34.6962 149.372 34.6953 149.352 34.6953V24.6953ZM146.086 26.9297H136.086C136.086 31.0456 138.097 34.8562 141.692 37.0944C144.565 38.8832 147.574 39.1211 149.352 39.1211V29.1211V19.1211C149.373 19.1211 149.642 19.1204 150.082 19.2139C150.512 19.305 151.324 19.5321 152.263 20.1165C153.26 20.7371 154.325 21.7209 155.096 23.1332C155.861 24.5348 156.086 25.8987 156.086 26.9297H146.086ZM149.352 29.1211V39.1211C151.136 39.1211 154.084 38.8855 156.917 37.2008C160.46 35.0941 162.746 31.3272 162.746 26.9297H152.746H142.746C142.746 25.7899 143.014 24.3537 143.839 22.925C144.658 21.5072 145.749 20.5728 146.695 20.0101C147.591 19.4775 148.348 19.2774 148.727 19.1997C149.121 19.119 149.35 19.1211 149.352 19.1211V29.1211ZM152.746 26.9297H162.746C162.746 22.625 160.564 18.8218 156.974 16.655C154.112 14.9279 151.129 14.6953 149.352 14.6953V24.6953V34.6953C149.351 34.6953 149.115 34.6976 148.712 34.6142C148.322 34.5337 147.548 34.3267 146.639 33.7776C145.674 33.1954 144.593 32.244 143.793 30.8291C142.993 29.4128 142.746 28.0115 142.746 26.9297H152.746ZM198.723 12.0625H208.723C208.723 6.53965 204.245 2.0625 198.723 2.0625V12.0625ZM198.723 17.4766V27.4766C204.245 27.4766 208.723 22.9994 208.723 17.4766L198.723 17.4766ZM191.504 17.4766V7.47656C188.704 7.47656 186.031 8.65077 184.138 10.7136C182.244 12.7765 181.302 15.5389 181.54 18.3291L191.504 17.4766ZM200.141 27.5742L208.617 32.8804C210.25 30.2717 210.591 27.0563 209.541 24.1632C208.491 21.2701 206.168 19.0215 203.242 18.0671L200.141 27.5742ZM196.832 32.8594L193.99 42.4469C198.296 43.7236 202.925 41.9726 205.308 38.1656L196.832 32.8594ZM188.023 25.8125L196.871 21.1526C195.12 17.8272 191.652 15.7646 187.894 15.8133C184.136 15.8621 180.722 18.0139 179.058 21.3836L188.023 25.8125ZM178.742 33.5898L170.361 39.0444C172.776 42.7562 177.346 44.4371 181.591 43.1755L178.742 33.5898ZM175.219 28.1758L172.357 18.594C169.336 19.4962 166.918 21.7701 165.831 24.7297C164.745 27.6893 165.118 30.9879 166.837 33.6303L175.219 28.1758ZM184.371 17.4766L194.325 18.4366C194.596 15.6304 193.669 12.8404 191.774 10.7535C189.878 8.66653 187.19 7.47656 184.371 7.47656V17.4766ZM177.109 17.4766H167.109C167.109 22.9994 171.587 27.4766 177.109 27.4766V17.4766ZM177.109 12.0625V2.0625C171.587 2.0625 167.109 6.53965 167.109 12.0625L177.109 12.0625ZM209.508 35.2656H219.508C219.508 29.7428 215.031 25.2656 209.508 25.2656V35.2656ZM209.508 49.875V59.875C215.031 59.875 219.508 55.3978 219.508 49.875H209.508ZM202.633 49.875H192.633C192.633 55.3978 197.11 59.875 202.633 59.875V49.875ZM202.633 40.7227H212.633C212.633 35.1998 208.156 30.7227 202.633 30.7227V40.7227ZM181.879 40.7227H171.879C171.879 46.2455 176.356 50.7227 181.879 50.7227V40.7227ZM181.879 35.2656V25.2656C176.356 25.2656 171.879 29.7428 171.879 35.2656H181.879ZM209.508 10.1289H219.508C219.508 4.60606 215.031 0.128906 209.508 0.128906V10.1289ZM209.508 33.7617V43.7617C215.031 43.7617 219.508 39.2846 219.508 33.7617H209.508ZM202.633 33.7617H192.633C192.633 39.2846 197.11 43.7617 202.633 43.7617V33.7617ZM202.633 24.7383L212.633 24.7383C212.633 19.2154 208.156 14.7383 202.633 14.7383V24.7383ZM197.691 24.7383H187.691C187.691 30.2611 192.169 34.7383 197.691 34.7383V24.7383ZM197.691 19.1523V9.15234C192.169 9.15234 187.691 13.6295 187.691 19.1523H197.691ZM202.633 19.1523V29.1523C208.156 29.1523 212.633 24.6752 212.633 19.1523L202.633 19.1523ZM202.633 10.1289V0.128906C197.11 0.128906 192.633 4.60606 192.633 10.1289H202.633ZM198.723 12.0625H188.723V17.4766H198.723L208.723 17.4766V12.0625H198.723ZM198.723 17.4766V7.47656H191.504V17.4766V27.4766H198.723V17.4766ZM191.504 17.4766L181.54 18.3291C181.849 21.9381 183.068 25.873 185.776 29.3942C188.515 32.9574 192.365 35.5566 197.04 37.0813L200.141 27.5742L203.242 18.0671C202.553 17.8426 202.151 17.6155 201.939 17.4711C201.734 17.331 201.654 17.2341 201.631 17.2035C201.604 17.169 201.502 17.0326 201.467 16.6241L191.504 17.4766ZM200.141 27.5742L191.665 22.268L188.356 27.5532L196.832 32.8594L205.308 38.1656L208.617 32.8804L200.141 27.5742ZM196.832 32.8594L199.675 23.2719C198.741 22.9952 198.179 22.6474 197.824 22.3543C197.465 22.0584 197.149 21.6789 196.871 21.1526L188.023 25.8125L179.176 30.4724C182.112 36.0477 187.095 40.4029 193.99 42.4469L196.832 32.8594ZM188.023 25.8125L179.058 21.3836C178.432 22.6493 177.579 23.5032 175.894 24.0041L178.742 33.5898L181.591 43.1755C189.014 40.9694 194.091 36.1085 196.989 30.2414L188.023 25.8125ZM178.742 33.5898L187.124 28.1353L183.6 22.7212L175.219 28.1758L166.837 33.6303L170.361 39.0444L178.742 33.5898ZM175.219 28.1758L178.08 37.7576C183.151 36.2432 187.202 33.4659 190.029 29.7143C192.789 26.052 193.981 21.9997 194.325 18.4366L184.371 17.4766L174.417 16.5166C174.353 17.1859 174.17 17.5271 174.056 17.6783C173.999 17.7547 173.897 17.8692 173.689 18.0102C173.475 18.1549 173.067 18.382 172.357 18.594L175.219 28.1758ZM184.371 17.4766V7.47656H177.109V17.4766V27.4766H184.371V17.4766ZM177.109 17.4766H187.109V12.0625H177.109L167.109 12.0625V17.4766H177.109ZM177.109 12.0625V22.0625H198.723V12.0625V2.0625L177.109 2.0625V12.0625ZM209.508 35.2656H199.508V49.875H209.508H219.508V35.2656H209.508ZM209.508 49.875V39.875H202.633V49.875V59.875H209.508V49.875ZM202.633 49.875H212.633V40.7227H202.633H192.633V49.875H202.633ZM202.633 40.7227V30.7227H181.879V40.7227V50.7227H202.633V40.7227ZM181.879 40.7227H191.879V35.2656H181.879H171.879V40.7227H181.879ZM181.879 35.2656V45.2656H209.508V35.2656V25.2656L181.879 25.2656V35.2656ZM209.508 10.1289H199.508V33.7617H209.508H219.508V10.1289H209.508ZM209.508 33.7617V23.7617L202.633 23.7617V33.7617V43.7617H209.508V33.7617ZM202.633 33.7617H212.633V24.7383L202.633 24.7383H192.633V33.7617H202.633ZM202.633 24.7383V14.7383H197.691V24.7383V34.7383H202.633V24.7383ZM197.691 24.7383L207.691 24.7383V19.1523L197.691 19.1523H187.691V24.7383H197.691ZM197.691 19.1523V29.1523H202.633V19.1523V9.15234H197.691V19.1523ZM202.633 19.1523L212.633 19.1523V10.1289H202.633H192.633V19.1523H202.633ZM202.633 10.1289V20.1289L209.508 20.1289V10.1289V0.128906H202.633V10.1289ZM247.234 10.2148H257.234C257.234 4.692 252.757 0.214844 247.234 0.214844V10.2148ZM247.234 38.4453V48.4453C252.757 48.4453 257.234 43.9682 257.234 38.4453H247.234ZM240.316 38.4453H230.316C230.316 43.9682 234.794 48.4453 240.316 48.4453V38.4453ZM240.316 10.2148V0.214844C234.794 0.214844 230.316 4.692 230.316 10.2148L240.316 10.2148ZM248.18 43.8164H258.18C258.18 38.2936 253.703 33.8164 248.18 33.8164V43.8164ZM248.18 49.3164V59.3164C253.703 59.3164 258.18 54.8393 258.18 49.3164H248.18ZM220.035 49.3164H210.035C210.035 54.8393 214.512 59.3164 220.035 59.3164V49.3164ZM220.035 35.6094V25.6094C214.512 25.6094 210.035 30.0865 210.035 35.6094H220.035ZM226.996 35.6094H236.996C236.996 30.0865 232.519 25.6094 226.996 25.6094V35.6094ZM226.996 43.8164H216.996C216.996 49.3393 221.473 53.8164 226.996 53.8164V43.8164ZM214.148 22.7617L224.148 22.8331C224.149 22.785 224.149 22.7369 224.148 22.6887L214.148 22.7617ZM247.234 10.2148H237.234V38.4453H247.234H257.234V10.2148H247.234ZM247.234 38.4453V28.4453H240.316V38.4453V48.4453H247.234V38.4453ZM240.316 38.4453H250.316V10.2148H240.316L230.316 10.2148V38.4453H240.316ZM240.316 10.2148V20.2148H247.234V10.2148V0.214844L240.316 0.214844V10.2148ZM248.18 43.8164H238.18V49.3164H248.18H258.18V43.8164H248.18ZM248.18 49.3164V39.3164H220.035V49.3164V59.3164H248.18V49.3164ZM220.035 49.3164H230.035V35.6094H220.035H210.035V49.3164H220.035ZM220.035 35.6094V45.6094H226.996V35.6094V25.6094H220.035V35.6094ZM226.996 35.6094H216.996V43.8164H226.996H236.996V35.6094H226.996ZM226.996 43.8164V53.8164H248.18V43.8164V33.8164H226.996V43.8164ZM225.277 12.5781V22.5781C226.063 22.5781 226.415 22.8434 226.468 22.8914C226.494 22.9145 226.466 22.8967 226.435 22.8285C226.4 22.7515 226.406 22.7109 226.406 22.7617H236.406H246.406C246.406 10.3977 235.982 2.57812 225.277 2.57812V12.5781ZM236.406 22.7617H226.406C226.406 22.8756 226.388 22.8688 226.418 22.8018C226.445 22.742 226.472 22.7195 226.457 22.7332C226.426 22.7611 226.089 23.0312 225.277 23.0312V33.0312V43.0312C236.011 43.0312 246.406 35.2283 246.406 22.7617H236.406ZM225.277 33.0312V23.0312C224.459 23.0312 224.107 22.7566 224.072 22.7243C224.056 22.7105 224.091 22.739 224.124 22.814C224.162 22.8975 224.148 22.925 224.148 22.8331L214.148 22.7617L204.149 22.6903C204.059 35.2759 214.616 43.0312 225.277 43.0312V33.0312ZM214.148 22.7617L224.148 22.6887C224.148 22.6607 224.149 22.7226 224.107 22.8161C224.069 22.8997 224.035 22.9234 224.061 22.9003C224.119 22.848 224.485 22.5781 225.277 22.5781V12.5781V2.57812C214.647 2.57812 204.058 10.3497 204.149 22.8347L214.148 22.7617ZM225.277 18.5508V8.55078C222.228 8.55078 218.528 9.4099 215.461 12.1432C212.224 15.0279 210.852 18.9693 210.852 22.7617H220.852H230.852C230.852 23.7612 230.425 25.5971 228.767 27.0746C227.279 28.4006 225.792 28.5508 225.277 28.5508V18.5508ZM220.852 22.7617H210.852C210.852 26.4903 212.14 30.4899 215.433 33.4463C218.551 36.247 222.3 37.0586 225.277 37.0586V27.0586V17.0586C225.72 17.0586 227.255 17.1827 228.795 18.5654C230.508 20.1038 230.852 21.955 230.852 22.7617H220.852ZM225.277 27.0586V37.0586C228.309 37.0586 232.025 36.1828 235.085 33.3774C238.292 30.4378 239.574 26.4857 239.574 22.7617H229.574H219.574C219.574 21.9596 219.911 20.1559 221.571 18.6343C223.084 17.2469 224.652 17.0586 225.277 17.0586V27.0586ZM229.574 22.7617H239.574C239.574 18.9754 238.21 15.0797 235.057 12.2118C232.05 9.47591 228.381 8.55078 225.277 8.55078V18.5508V28.5508C224.579 28.5508 223.059 28.3346 221.599 27.006C219.993 25.5453 219.574 23.755 219.574 22.7617H229.574Z" fill="white" mask="url(#path-1-outside-1_6526_5697)"/>
</g>
<defs>
<filter id="filter0_d_6526_5697" x="0" y="0" width="262.18" height="67.9609" filterUnits="userSpaceOnUse" color-interpolation-filters="sRGB">
<feFlood flood-opacity="0" result="BackgroundImageFix"/>
<feColorMatrix in="SourceAlpha" type="matrix" values="0 0 0 0 0 0 0 0 0 0 0 0 0 0 0 0 0 0 127 0" result="hardAlpha"/>
<feOffset dy="4"/>
<feGaussianBlur stdDeviation="2"/>
<feComposite in2="hardAlpha" operator="out"/>
<feColorMatrix type="matrix" values="0 0 0 0 0 0 0 0 0 0 0 0 0 0 0 0 0 0 0.07 0"/>
<feBlend mode="normal" in2="BackgroundImageFix" result="effect1_dropShadow_6526_5697"/>
<feBlend mode="normal" in="SourceGraphic" in2="effect1_dropShadow_6526_5697" result="shape"/>
</filter>
</defs>
</svg>
