<svg width="398" height="68" viewBox="0 0 398 68" fill="none" xmlns="http://www.w3.org/2000/svg">
<g filter="url(#filter0_d_6524_1822)">
<mask id="path-1-outside-1_6524_1822" maskUnits="userSpaceOnUse" x="3.09766" y="-0.507813" width="391" height="61" fill="black">
<rect fill="white" x="3.09766" y="-0.507813" width="391" height="61"/>
<path d="M50.2656 32.5156V37.8438H35.3984V49.7461H28.5664V37.8438H14V32.5156H50.2656ZM24.7422 11.5039V15.5H39.3086V11.5039L46.2266 11.5039V29.3359H17.9531V11.5039H24.7422ZM24.7422 23.8359H39.3086V20.8281H24.7422V23.8359ZM83.8242 10V18.5078H88.7656V24.1367H83.8242V32.1719H76.9062V10H83.8242ZM71.1484 12.4062V17.8203H60.2344V25.7695C66.8945 25.748 70.4824 25.4688 74.3711 24.6953L75.0586 30.0234C70.4609 31.1406 65.9492 31.2695 56.8398 31.2266H53.3594V12.4062H71.1484ZM83.8242 33.5898V49.3164H57.3125V33.5898H83.8242ZM64.1016 39.0039V43.9883H77.0352V39.0039H64.1016ZM110.25 33.2461V36.5117H112.613V33.2461H118.973V44.1172C122.84 42.2051 124.258 38.9609 124.258 35.6953V32.8594H131.219V35.6953C131.176 39.6914 132.766 43.1719 137.75 44.6328L134.27 49.7031C131.004 48.7148 128.877 46.7598 127.609 44.2031C126.277 46.6523 124.215 48.6074 121.207 49.7031L118.973 46.3086V49.4023H103.934V33.2461H110.25ZM110.25 44.2461H112.613V41.4961H110.25V44.2461ZM110.809 11.375C115.664 11.375 119.703 14.0605 121.035 18.0352H126.578V10H133.453V31.0547H126.578V23.6211H121.035C119.746 27.7246 115.707 30.4102 110.809 30.4102C104.664 30.4102 100.023 26.457 100.066 20.8281C100.023 15.3711 104.664 11.375 110.809 11.375ZM110.809 17.0039C108.316 17.0039 106.555 18.3359 106.598 20.8281C106.555 23.4062 108.316 24.8242 110.809 24.8242C113.215 24.8242 114.891 23.4062 114.934 20.8281C114.891 18.3359 113.215 17.0039 110.809 17.0039ZM171.223 10V49.875H164.262V10H171.223ZM149.395 12.6641C155.453 12.6211 160.008 18.207 160.008 26.9727C160.008 35.8672 155.453 41.4102 149.395 41.4102C143.207 41.4102 138.609 35.8672 138.609 26.9727C138.609 18.207 143.207 12.6211 149.395 12.6641ZM149.395 18.8945C146.859 18.8516 145.27 21.4727 145.27 26.9727C145.27 32.5586 146.859 35.0937 149.395 35.0937C151.758 35.0937 153.391 32.5586 153.391 26.9727C153.391 21.4727 151.758 18.8516 149.395 18.8945ZM198.035 12.5352C204.395 12.4922 209.25 16.7461 209.25 22.5469C209.25 28.3906 204.395 32.6016 198.035 32.5586C191.805 32.6016 186.82 28.3906 186.82 22.5469C186.82 16.7461 191.805 12.4922 198.035 12.5352ZM198.035 18.4648C195.629 18.4648 193.695 19.8398 193.695 22.5469C193.695 25.3398 195.629 26.6289 198.035 26.6289C200.57 26.6289 202.547 25.3398 202.547 22.5469C202.547 19.8398 200.57 18.4648 198.035 18.4648ZM219.133 10V49.875H212.301V10H219.133ZM185.402 36.6406C192.32 36.6406 201.988 36.5117 210.281 35.3945L210.797 40.3359C202.203 42.0547 192.965 42.1406 186.176 42.1406L185.402 36.6406ZM257.074 10.0859V39.1328H250.242V31.6992H242.207V26.2422H250.242V22.8477H242.809C239.973 28.7344 234.43 33.0312 226.566 35.3086L223.773 29.9805C231.658 27.5312 236.32 23.4277 237.438 18.4219H225.965V12.9648H244.914C244.914 14.4902 244.785 15.9727 244.527 17.3906H250.242V10.0859H257.074ZM258.148 43.6875V49.1875H230.348V36.2539H237.352V43.6875H258.148ZM279.461 10.5156C288.785 10.5156 294.113 12.8789 294.156 17.2187C294.113 21.6016 288.785 23.9648 279.461 23.9648C270.094 23.9648 264.68 21.6016 264.723 17.2187C264.68 12.8789 270.094 10.5156 279.461 10.5156ZM279.461 15.5C274.09 15.5 271.941 16.0156 271.941 17.2187C271.941 18.6797 274.09 18.9375 279.461 18.9805C284.875 18.9375 287.023 18.6797 287.023 17.2187C287.023 16.0156 284.875 15.5 279.461 15.5ZM297.594 25.2969V30.7539H261.328V25.2969H297.594ZM293.297 32.2578V43.2148H272.113V44.5039H294.242V49.5742H265.367V38.4883H286.508V37.2852H265.41V32.2578H293.297ZM341.422 43.9453V49.4023H313.105V35.5234H323.547V32.8594H308.938V27.4453L345.203 27.4453V32.8594H330.422V35.5234H341.035V40.9805H319.98V43.9453H341.422ZM340.648 11.2031V25.2969L313.32 25.2969V11.2031H340.648ZM320.023 16.5742V19.9687L333.859 19.9687V16.5742L320.023 16.5742ZM379.32 20.0977V25.4258H351.219V11.418H358.094V20.0977H379.32ZM383.23 28.9492V34.2773H346.965V28.9492H383.23ZM379.578 43.4727V48.9727H350.746V37.0273H357.707V43.4727H379.578Z"/>
</mask>
<path d="M50.2656 32.5156V37.8438H35.3984V49.7461H28.5664V37.8438H14V32.5156H50.2656ZM24.7422 11.5039V15.5H39.3086V11.5039L46.2266 11.5039V29.3359H17.9531V11.5039H24.7422ZM24.7422 23.8359H39.3086V20.8281H24.7422V23.8359ZM83.8242 10V18.5078H88.7656V24.1367H83.8242V32.1719H76.9062V10H83.8242ZM71.1484 12.4062V17.8203H60.2344V25.7695C66.8945 25.748 70.4824 25.4688 74.3711 24.6953L75.0586 30.0234C70.4609 31.1406 65.9492 31.2695 56.8398 31.2266H53.3594V12.4062H71.1484ZM83.8242 33.5898V49.3164H57.3125V33.5898H83.8242ZM64.1016 39.0039V43.9883H77.0352V39.0039H64.1016ZM110.25 33.2461V36.5117H112.613V33.2461H118.973V44.1172C122.84 42.2051 124.258 38.9609 124.258 35.6953V32.8594H131.219V35.6953C131.176 39.6914 132.766 43.1719 137.75 44.6328L134.27 49.7031C131.004 48.7148 128.877 46.7598 127.609 44.2031C126.277 46.6523 124.215 48.6074 121.207 49.7031L118.973 46.3086V49.4023H103.934V33.2461H110.25ZM110.25 44.2461H112.613V41.4961H110.25V44.2461ZM110.809 11.375C115.664 11.375 119.703 14.0605 121.035 18.0352H126.578V10H133.453V31.0547H126.578V23.6211H121.035C119.746 27.7246 115.707 30.4102 110.809 30.4102C104.664 30.4102 100.023 26.457 100.066 20.8281C100.023 15.3711 104.664 11.375 110.809 11.375ZM110.809 17.0039C108.316 17.0039 106.555 18.3359 106.598 20.8281C106.555 23.4062 108.316 24.8242 110.809 24.8242C113.215 24.8242 114.891 23.4062 114.934 20.8281C114.891 18.3359 113.215 17.0039 110.809 17.0039ZM171.223 10V49.875H164.262V10H171.223ZM149.395 12.6641C155.453 12.6211 160.008 18.207 160.008 26.9727C160.008 35.8672 155.453 41.4102 149.395 41.4102C143.207 41.4102 138.609 35.8672 138.609 26.9727C138.609 18.207 143.207 12.6211 149.395 12.6641ZM149.395 18.8945C146.859 18.8516 145.27 21.4727 145.27 26.9727C145.27 32.5586 146.859 35.0937 149.395 35.0937C151.758 35.0937 153.391 32.5586 153.391 26.9727C153.391 21.4727 151.758 18.8516 149.395 18.8945ZM198.035 12.5352C204.395 12.4922 209.25 16.7461 209.25 22.5469C209.25 28.3906 204.395 32.6016 198.035 32.5586C191.805 32.6016 186.82 28.3906 186.82 22.5469C186.82 16.7461 191.805 12.4922 198.035 12.5352ZM198.035 18.4648C195.629 18.4648 193.695 19.8398 193.695 22.5469C193.695 25.3398 195.629 26.6289 198.035 26.6289C200.57 26.6289 202.547 25.3398 202.547 22.5469C202.547 19.8398 200.57 18.4648 198.035 18.4648ZM219.133 10V49.875H212.301V10H219.133ZM185.402 36.6406C192.32 36.6406 201.988 36.5117 210.281 35.3945L210.797 40.3359C202.203 42.0547 192.965 42.1406 186.176 42.1406L185.402 36.6406ZM257.074 10.0859V39.1328H250.242V31.6992H242.207V26.2422H250.242V22.8477H242.809C239.973 28.7344 234.43 33.0312 226.566 35.3086L223.773 29.9805C231.658 27.5312 236.32 23.4277 237.438 18.4219H225.965V12.9648H244.914C244.914 14.4902 244.785 15.9727 244.527 17.3906H250.242V10.0859H257.074ZM258.148 43.6875V49.1875H230.348V36.2539H237.352V43.6875H258.148ZM279.461 10.5156C288.785 10.5156 294.113 12.8789 294.156 17.2187C294.113 21.6016 288.785 23.9648 279.461 23.9648C270.094 23.9648 264.68 21.6016 264.723 17.2187C264.68 12.8789 270.094 10.5156 279.461 10.5156ZM279.461 15.5C274.09 15.5 271.941 16.0156 271.941 17.2187C271.941 18.6797 274.09 18.9375 279.461 18.9805C284.875 18.9375 287.023 18.6797 287.023 17.2187C287.023 16.0156 284.875 15.5 279.461 15.5ZM297.594 25.2969V30.7539H261.328V25.2969H297.594ZM293.297 32.2578V43.2148H272.113V44.5039H294.242V49.5742H265.367V38.4883H286.508V37.2852H265.41V32.2578H293.297ZM341.422 43.9453V49.4023H313.105V35.5234H323.547V32.8594H308.938V27.4453L345.203 27.4453V32.8594H330.422V35.5234H341.035V40.9805H319.98V43.9453H341.422ZM340.648 11.2031V25.2969L313.32 25.2969V11.2031H340.648ZM320.023 16.5742V19.9687L333.859 19.9687V16.5742L320.023 16.5742ZM379.32 20.0977V25.4258H351.219V11.418H358.094V20.0977H379.32ZM383.23 28.9492V34.2773H346.965V28.9492H383.23ZM379.578 43.4727V48.9727H350.746V37.0273H357.707V43.4727H379.578Z" fill="#11DCA9"/>
<path d="M50.2656 32.5156H60.2656C60.2656 26.9928 55.7885 22.5156 50.2656 22.5156V32.5156ZM50.2656 37.8438V47.8438C55.7885 47.8438 60.2656 43.3666 60.2656 37.8438H50.2656ZM35.3984 37.8438V27.8438C29.8756 27.8438 25.3984 32.3209 25.3984 37.8438H35.3984ZM35.3984 49.7461V59.7461C40.9213 59.7461 45.3984 55.2689 45.3984 49.7461H35.3984ZM28.5664 49.7461H18.5664C18.5664 55.2689 23.0436 59.7461 28.5664 59.7461V49.7461ZM28.5664 37.8438H38.5664C38.5664 32.3209 34.0893 27.8438 28.5664 27.8438V37.8438ZM14 37.8438H4C4 43.3666 8.47715 47.8438 14 47.8438V37.8438ZM14 32.5156L14 22.5156C8.47715 22.5156 4 26.9928 4 32.5156H14ZM24.7422 11.5039H34.7422C34.7422 5.98106 30.265 1.50391 24.7422 1.50391V11.5039ZM24.7422 15.5H14.7422C14.7422 21.0228 19.2193 25.5 24.7422 25.5V15.5ZM39.3086 15.5V25.5C44.8314 25.5 49.3086 21.0228 49.3086 15.5H39.3086ZM39.3086 11.5039V1.50391C33.7857 1.50391 29.3086 5.98106 29.3086 11.5039H39.3086ZM46.2266 11.5039H56.2266C56.2266 5.98106 51.7494 1.50391 46.2266 1.50391V11.5039ZM46.2266 29.3359V39.3359C51.7494 39.3359 56.2266 34.8588 56.2266 29.3359H46.2266ZM17.9531 29.3359H7.95313C7.95313 34.8588 12.4303 39.3359 17.9531 39.3359V29.3359ZM17.9531 11.5039V1.50391C12.4303 1.50391 7.95312 5.98106 7.95312 11.5039H17.9531ZM24.7422 23.8359H14.7422C14.7422 29.3588 19.2193 33.8359 24.7422 33.8359V23.8359ZM39.3086 23.8359V33.8359C44.8314 33.8359 49.3086 29.3588 49.3086 23.8359H39.3086ZM39.3086 20.8281H49.3086C49.3086 15.3053 44.8314 10.8281 39.3086 10.8281V20.8281ZM24.7422 20.8281V10.8281C19.2193 10.8281 14.7422 15.3053 14.7422 20.8281H24.7422ZM50.2656 32.5156H40.2656V37.8438H50.2656H60.2656V32.5156H50.2656ZM50.2656 37.8438V27.8438H35.3984V37.8438V47.8438H50.2656V37.8438ZM35.3984 37.8438H25.3984V49.7461H35.3984H45.3984V37.8438H35.3984ZM35.3984 49.7461V39.7461H28.5664V49.7461V59.7461H35.3984V49.7461ZM28.5664 49.7461H38.5664V37.8438H28.5664H18.5664V49.7461H28.5664ZM28.5664 37.8438V27.8438H14L14 37.8438V47.8438H28.5664V37.8438ZM14 37.8438H24V32.5156H14H4V37.8438H14ZM14 32.5156V42.5156H50.2656V32.5156V22.5156H14L14 32.5156ZM24.7422 11.5039H14.7422V15.5H24.7422H34.7422V11.5039H24.7422ZM24.7422 15.5V25.5H39.3086V15.5V5.5H24.7422V15.5ZM39.3086 15.5H49.3086V11.5039L39.3086 11.5039H29.3086V15.5H39.3086ZM39.3086 11.5039V21.5039H46.2266V11.5039V1.50391H39.3086V11.5039ZM46.2266 11.5039L36.2266 11.5039V29.3359H46.2266H56.2266V11.5039H46.2266ZM46.2266 29.3359V19.3359H17.9531V29.3359V39.3359H46.2266V29.3359ZM17.9531 29.3359H27.9531V11.5039H17.9531H7.95312L7.95313 29.3359H17.9531ZM17.9531 11.5039V21.5039H24.7422V11.5039V1.50391H17.9531V11.5039ZM24.7422 23.8359V33.8359H39.3086V23.8359V13.8359H24.7422V23.8359ZM39.3086 23.8359H49.3086V20.8281H39.3086H29.3086V23.8359H39.3086ZM39.3086 20.8281V10.8281H24.7422V20.8281V30.8281H39.3086V20.8281ZM24.7422 20.8281H14.7422V23.8359H24.7422H34.7422V20.8281H24.7422ZM83.8242 10H93.8242C93.8242 4.47715 89.3471 0 83.8242 0V10ZM83.8242 18.5078L73.8242 18.5078C73.8242 24.0307 78.3014 28.5078 83.8242 28.5078V18.5078ZM88.7656 18.5078H98.7656C98.7656 12.985 94.2885 8.50781 88.7656 8.50781V18.5078ZM88.7656 24.1367V34.1367C94.2885 34.1367 98.7656 29.6596 98.7656 24.1367H88.7656ZM83.8242 24.1367V14.1367C78.3014 14.1367 73.8242 18.6139 73.8242 24.1367L83.8242 24.1367ZM83.8242 32.1719V42.1719C89.3471 42.1719 93.8242 37.6947 93.8242 32.1719H83.8242ZM76.9062 32.1719H66.9062C66.9062 37.6947 71.3834 42.1719 76.9062 42.1719V32.1719ZM76.9062 10V0C71.3834 0 66.9062 4.47715 66.9062 10H76.9062ZM71.1484 12.4062H81.1484C81.1484 6.8834 76.6713 2.40625 71.1484 2.40625V12.4062ZM71.1484 17.8203V27.8203C76.6713 27.8203 81.1484 23.3432 81.1484 17.8203L71.1484 17.8203ZM60.2344 17.8203V7.82031C54.7115 7.82031 50.2344 12.2975 50.2344 17.8203H60.2344ZM60.2344 25.7695H50.2344C50.2344 28.4273 51.2924 30.9757 53.1747 32.852C55.0571 34.7283 57.6089 35.7781 60.2666 35.7695L60.2344 25.7695ZM74.3711 24.6953L84.2889 23.4156C83.9344 20.6682 82.4561 18.1909 80.2064 16.5744C77.9567 14.9579 75.1373 14.347 72.4204 14.8874L74.3711 24.6953ZM75.0586 30.0234L77.4198 39.7407C82.3735 38.537 85.6287 33.7996 84.9764 28.7437L75.0586 30.0234ZM56.8398 31.2266L56.887 21.2267C56.8713 21.2266 56.8556 21.2266 56.8398 21.2266V31.2266ZM53.3594 31.2266H43.3594C43.3594 36.7494 47.8365 41.2266 53.3594 41.2266V31.2266ZM53.3594 12.4062V2.40625C47.8365 2.40625 43.3594 6.8834 43.3594 12.4062L53.3594 12.4062ZM83.8242 33.5898H93.8242C93.8242 28.067 89.3471 23.5898 83.8242 23.5898V33.5898ZM83.8242 49.3164V59.3164C89.3471 59.3164 93.8242 54.8393 93.8242 49.3164H83.8242ZM57.3125 49.3164H47.3125C47.3125 54.8393 51.7897 59.3164 57.3125 59.3164V49.3164ZM57.3125 33.5898V23.5898C51.7897 23.5898 47.3125 28.067 47.3125 33.5898H57.3125ZM64.1016 39.0039V29.0039C58.5787 29.0039 54.1016 33.4811 54.1016 39.0039H64.1016ZM64.1016 43.9883H54.1016C54.1016 49.5111 58.5787 53.9883 64.1016 53.9883V43.9883ZM77.0352 43.9883V53.9883C82.558 53.9883 87.0352 49.5111 87.0352 43.9883H77.0352ZM77.0352 39.0039H87.0352C87.0352 33.4811 82.558 29.0039 77.0352 29.0039V39.0039ZM83.8242 10H73.8242V18.5078L83.8242 18.5078H93.8242V10H83.8242ZM83.8242 18.5078V28.5078H88.7656V18.5078V8.50781H83.8242V18.5078ZM88.7656 18.5078H78.7656V24.1367H88.7656H98.7656V18.5078H88.7656ZM88.7656 24.1367V14.1367H83.8242V24.1367V34.1367H88.7656V24.1367ZM83.8242 24.1367L73.8242 24.1367V32.1719H83.8242H93.8242V24.1367H83.8242ZM83.8242 32.1719V22.1719L76.9062 22.1719V32.1719V42.1719H83.8242V32.1719ZM76.9062 32.1719H86.9062V10H76.9062H66.9062V32.1719H76.9062ZM76.9062 10V20L83.8242 20V10V0H76.9062V10ZM71.1484 12.4062H61.1484V17.8203H71.1484L81.1484 17.8203V12.4062H71.1484ZM71.1484 17.8203V7.82031H60.2344V17.8203V27.8203H71.1484V17.8203ZM60.2344 17.8203H50.2344V25.7695H60.2344H70.2344V17.8203H60.2344ZM60.2344 25.7695L60.2666 35.7695C67.217 35.7471 71.5294 35.4564 76.3218 34.5032L74.3711 24.6953L72.4204 14.8874C69.4354 15.4811 66.5721 15.749 60.2021 15.7696L60.2344 25.7695ZM74.3711 24.6953L64.4533 25.975L65.1408 31.3032L75.0586 30.0234L84.9764 28.7437L84.2889 23.4156L74.3711 24.6953ZM75.0586 30.0234L72.6974 20.3062C69.467 21.0911 66.1545 21.2704 56.887 21.2267L56.8398 31.2266L56.7927 41.2265C65.744 41.2687 71.4548 41.1901 77.4198 39.7407L75.0586 30.0234ZM56.8398 31.2266V21.2266H53.3594V31.2266V41.2266H56.8398V31.2266ZM53.3594 31.2266H63.3594V12.4062H53.3594L43.3594 12.4062V31.2266H53.3594ZM53.3594 12.4062V22.4062H71.1484V12.4062V2.40625L53.3594 2.40625V12.4062ZM83.8242 33.5898H73.8242V49.3164H83.8242H93.8242V33.5898H83.8242ZM83.8242 49.3164V39.3164H57.3125V49.3164V59.3164H83.8242V49.3164ZM57.3125 49.3164H67.3125V33.5898H57.3125H47.3125V49.3164H57.3125ZM57.3125 33.5898V43.5898H83.8242V33.5898V23.5898L57.3125 23.5898V33.5898ZM64.1016 39.0039H54.1016V43.9883H64.1016H74.1016V39.0039H64.1016ZM64.1016 43.9883V53.9883H77.0352V43.9883V33.9883H64.1016V43.9883ZM77.0352 43.9883H87.0352V39.0039H77.0352H67.0352V43.9883H77.0352ZM77.0352 39.0039V29.0039H64.1016V39.0039V49.0039H77.0352V39.0039ZM110.25 33.2461H120.25C120.25 27.7232 115.773 23.2461 110.25 23.2461V33.2461ZM110.25 36.5117H100.25C100.25 42.0346 104.727 46.5117 110.25 46.5117V36.5117ZM112.613 36.5117V46.5117C118.136 46.5117 122.613 42.0346 122.613 36.5117H112.613ZM112.613 33.2461V23.2461C107.09 23.2461 102.613 27.7232 102.613 33.2461H112.613ZM118.973 33.2461H128.973C128.973 27.7232 124.496 23.2461 118.973 23.2461V33.2461ZM118.973 44.1172H108.973C108.973 47.575 110.759 50.7875 113.696 52.612C116.634 54.4364 120.305 54.6139 123.405 53.0813L118.973 44.1172ZM124.258 32.8594V22.8594C118.735 22.8594 114.258 27.3365 114.258 32.8594H124.258ZM131.219 32.8594L141.219 32.8594C141.219 27.3365 136.742 22.8594 131.219 22.8594V32.8594ZM131.219 35.6953L141.218 35.8028C141.219 35.767 141.219 35.7312 141.219 35.6953L131.219 35.6953ZM137.75 44.6328L145.994 50.2922C147.808 47.6497 148.246 44.298 147.171 41.2786C146.096 38.2592 143.638 35.938 140.563 35.0365L137.75 44.6328ZM134.27 49.7031L131.373 59.2744C135.542 60.5362 140.049 58.9539 142.514 55.3625L134.27 49.7031ZM127.609 44.2031L136.569 39.7611C134.911 36.4177 131.53 34.2755 127.799 34.2049C124.067 34.1343 120.607 36.1471 118.825 39.4254L127.609 44.2031ZM121.207 49.7031L112.854 55.2012C115.402 59.0721 120.276 60.6853 124.63 59.0991L121.207 49.7031ZM118.973 46.3086L127.326 40.8105C124.897 37.1206 120.335 35.4615 116.103 36.7292C111.871 37.9969 108.973 41.8911 108.973 46.3086H118.973ZM118.973 49.4023V59.4023C124.496 59.4023 128.973 54.9252 128.973 49.4023H118.973ZM103.934 49.4023H93.9336C93.9336 54.9252 98.4107 59.4023 103.934 59.4023V49.4023ZM103.934 33.2461V23.2461C98.4107 23.2461 93.9336 27.7232 93.9336 33.2461H103.934ZM110.25 44.2461H100.25C100.25 49.7689 104.727 54.2461 110.25 54.2461V44.2461ZM112.613 44.2461V54.2461C118.136 54.2461 122.613 49.7689 122.613 44.2461H112.613ZM112.613 41.4961H122.613C122.613 35.9732 118.136 31.4961 112.613 31.4961V41.4961ZM110.25 41.4961V31.4961C104.727 31.4961 100.25 35.9732 100.25 41.4961H110.25ZM121.035 18.0352L111.553 21.2128C112.919 25.2884 116.737 28.0352 121.035 28.0352V18.0352ZM126.578 18.0352V28.0352C132.101 28.0352 136.578 23.558 136.578 18.0352H126.578ZM126.578 10V0C121.055 0 116.578 4.47715 116.578 10H126.578ZM133.453 10H143.453C143.453 4.47715 138.976 0 133.453 0V10ZM133.453 31.0547V41.0547C138.976 41.0547 143.453 36.5775 143.453 31.0547L133.453 31.0547ZM126.578 31.0547H116.578C116.578 36.5775 121.055 41.0547 126.578 41.0547V31.0547ZM126.578 23.6211H136.578C136.578 18.0982 132.101 13.6211 126.578 13.6211V23.6211ZM121.035 23.6211V13.6211C116.667 13.6211 112.804 16.4566 111.495 20.6241L121.035 23.6211ZM100.066 20.8281L110.066 20.9045C110.067 20.8528 110.067 20.8011 110.066 20.7494L100.066 20.8281ZM106.598 20.8281L116.596 20.9948C116.598 20.8818 116.598 20.7687 116.596 20.6557L106.598 20.8281ZM114.934 20.8281L124.932 20.9948C124.934 20.8818 124.934 20.7687 124.932 20.6557L114.934 20.8281ZM110.25 33.2461H100.25V36.5117H110.25H120.25V33.2461H110.25ZM110.25 36.5117V46.5117H112.613V36.5117V26.5117H110.25V36.5117ZM112.613 36.5117H122.613V33.2461H112.613H102.613V36.5117H112.613ZM112.613 33.2461V43.2461H118.973V33.2461V23.2461H112.613V33.2461ZM118.973 33.2461H108.973V44.1172H118.973H128.973V33.2461H118.973ZM118.973 44.1172L123.405 53.0813C131.151 49.2514 134.258 42.2119 134.258 35.6953H124.258H114.258C114.258 35.8909 114.219 35.7382 114.395 35.4318C114.48 35.2836 114.577 35.1705 114.651 35.1023C114.722 35.0366 114.711 35.0688 114.54 35.1531L118.973 44.1172ZM124.258 35.6953H134.258V32.8594H124.258H114.258V35.6953H124.258ZM124.258 32.8594V42.8594H131.219V32.8594V22.8594H124.258V32.8594ZM131.219 32.8594H121.219V35.6953H131.219L141.219 35.6953V32.8594L131.219 32.8594ZM131.219 35.6953L121.219 35.5878C121.184 38.8716 121.804 42.8789 124.23 46.588C126.756 50.4514 130.556 52.945 134.937 54.2291L137.75 44.6328L140.563 35.0365C140.208 34.9327 140.191 34.875 140.353 34.9881C140.533 35.1139 140.768 35.3356 140.968 35.6415C141.364 36.2461 141.211 36.5151 141.218 35.8028L131.219 35.6953ZM137.75 44.6328L129.506 38.9735L126.025 44.0438L134.27 49.7031L142.514 55.3625L145.994 50.2922L137.75 44.6328ZM134.27 49.7031L137.166 40.1318C136.939 40.063 136.805 40 136.739 39.9649C136.705 39.9468 136.685 39.9335 136.674 39.9262C136.668 39.9225 136.665 39.9198 136.663 39.9182C136.662 39.9174 136.661 39.9168 136.66 39.9165C136.66 39.9161 136.66 39.9159 136.66 39.9159C136.66 39.9159 136.66 39.916 136.66 39.9162C136.66 39.9164 136.661 39.9167 136.661 39.917C136.662 39.9177 136.662 39.9184 136.663 39.9188C136.664 39.9201 136.662 39.9183 136.657 39.9117C136.648 39.9 136.616 39.8558 136.569 39.7611L127.609 44.2031L118.65 48.6451C121.135 53.6571 125.446 57.4807 131.373 59.2744L134.27 49.7031ZM127.609 44.2031L118.825 39.4254C118.666 39.717 118.527 39.8681 118.427 39.9562C118.334 40.038 118.156 40.1718 117.784 40.3072L121.207 49.7031L124.63 59.0991C130.074 57.1159 133.974 53.4313 136.394 48.9808L127.609 44.2031ZM121.207 49.7031L129.56 44.205L127.326 40.8105L118.973 46.3086L110.62 51.8067L112.854 55.2012L121.207 49.7031ZM118.973 46.3086H108.973V49.4023H118.973H128.973V46.3086H118.973ZM118.973 49.4023V39.4023H103.934V49.4023V59.4023H118.973V49.4023ZM103.934 49.4023H113.934V33.2461H103.934H93.9336V49.4023H103.934ZM103.934 33.2461V43.2461H110.25V33.2461V23.2461H103.934V33.2461ZM110.25 44.2461V54.2461H112.613V44.2461V34.2461H110.25V44.2461ZM112.613 44.2461H122.613V41.4961H112.613H102.613V44.2461H112.613ZM112.613 41.4961V31.4961H110.25V41.4961V51.4961H112.613V41.4961ZM110.25 41.4961H100.25V44.2461H110.25H120.25V41.4961H110.25ZM110.809 11.375V21.375C111.398 21.375 111.697 21.5361 111.763 21.5794C111.796 21.6007 111.77 21.5906 111.718 21.525C111.663 21.4563 111.599 21.3496 111.553 21.2128L121.035 18.0352L130.517 14.8575C127.598 6.14694 119.222 1.375 110.809 1.375V11.375ZM121.035 18.0352V28.0352H126.578V18.0352V8.03516H121.035V18.0352ZM126.578 18.0352H136.578V10H126.578H116.578V18.0352H126.578ZM126.578 10V20H133.453V10V0L126.578 0V10ZM133.453 10H123.453V31.0547H133.453L143.453 31.0547V10H133.453ZM133.453 31.0547V21.0547H126.578V31.0547V41.0547H133.453V31.0547ZM126.578 31.0547H136.578V23.6211H126.578H116.578V31.0547H126.578ZM126.578 23.6211V13.6211H121.035V23.6211V33.6211H126.578V23.6211ZM121.035 23.6211L111.495 20.6241C111.53 20.5126 111.587 20.406 111.651 20.3225C111.712 20.2425 111.755 20.2164 111.743 20.2243C111.719 20.2403 111.438 20.4102 110.809 20.4102V30.4102V40.4102C119.274 40.4102 127.752 35.606 130.576 26.6181L121.035 23.6211ZM110.809 30.4102V20.4102C109.856 20.4102 109.599 20.113 109.723 20.2224C109.786 20.2777 109.892 20.3984 109.976 20.583C110.062 20.774 110.066 20.9061 110.066 20.9045L100.066 20.8281L90.0667 20.7518C89.9719 33.1693 100.433 40.4102 110.809 40.4102V30.4102ZM100.066 20.8281L110.066 20.7494C110.067 20.8364 110.044 21.0182 109.949 21.2259C109.857 21.4249 109.749 21.5404 109.699 21.5835C109.603 21.6678 109.883 21.375 110.809 21.375V11.375V1.375C100.499 1.375 89.9698 8.60252 90.0667 20.9069L100.066 20.8281ZM110.809 17.0039V7.00391C107.891 7.00391 104.265 7.78161 101.218 10.412C97.9445 13.2378 96.5333 17.1795 96.5991 21.0005L106.598 20.8281L116.596 20.6557C116.619 21.9845 116.067 24.0142 114.287 25.5509C112.734 26.8922 111.234 27.0039 110.809 27.0039V17.0039ZM106.598 20.8281L96.599 20.6615C96.5368 24.3989 97.8552 28.3184 101.036 31.202C104.059 33.9418 107.74 34.8242 110.809 34.8242V24.8242V14.8242C111.385 14.8242 112.939 14.9977 114.469 16.3839C116.157 17.9141 116.616 19.8355 116.596 20.9948L106.598 20.8281ZM110.809 24.8242V34.8242C113.949 34.8242 117.61 33.876 120.581 31.1035C123.629 28.2586 124.874 24.4958 124.932 20.9948L114.934 20.8281L104.935 20.6615C104.95 19.7386 105.336 17.9738 106.934 16.4824C108.454 15.0635 110.074 14.8242 110.809 14.8242V24.8242ZM114.934 20.8281L124.932 20.6557C124.87 17.0825 123.542 13.2998 120.401 10.5074C117.4 7.83951 113.791 7.00391 110.809 7.00391V17.0039V27.0039C110.233 27.0039 108.665 26.8343 107.114 25.4555C105.422 23.9521 104.954 22.0816 104.935 21.0005L114.934 20.8281ZM171.223 10L181.223 10C181.223 4.47715 176.745 0 171.223 0V10ZM171.223 49.875V59.875C176.745 59.875 181.223 55.3978 181.223 49.875H171.223ZM164.262 49.875H154.262C154.262 55.3978 158.739 59.875 164.262 59.875V49.875ZM164.262 10V0C158.739 0 154.262 4.47715 154.262 10H164.262ZM149.395 12.6641L149.325 22.6638C149.372 22.6641 149.419 22.6641 149.465 22.6638L149.395 12.6641ZM149.395 18.8945L149.225 28.8931C149.342 28.8951 149.459 28.895 149.576 28.8929L149.395 18.8945ZM171.223 10H161.223V49.875H171.223H181.223V10L171.223 10ZM171.223 49.875V39.875H164.262V49.875V59.875H171.223V49.875ZM164.262 49.875H174.262V10L164.262 10H154.262V49.875H164.262ZM164.262 10V20H171.223V10V0L164.262 0V10ZM149.395 12.6641L149.465 22.6638C149.398 22.6643 149.228 22.6406 149.053 22.5508C148.891 22.4681 148.9 22.4198 149.021 22.5782C149.291 22.9327 150.008 24.2334 150.008 26.9727H160.008H170.008C170.008 20.9463 168.447 15.0712 164.925 10.4521C161.278 5.66819 155.745 2.61877 149.324 2.66431L149.395 12.6641ZM160.008 26.9727H150.008C150.008 29.8028 149.278 31.1249 149.008 31.4804C148.888 31.6391 148.877 31.594 149.031 31.5147C149.196 31.4293 149.349 31.4102 149.395 31.4102V41.4102V51.4102C155.768 51.4102 161.287 48.3834 164.938 43.5733C168.46 38.9337 170.008 33.0371 170.008 26.9727H160.008ZM149.395 41.4102V31.4102C149.373 31.4102 149.478 31.4135 149.615 31.483C149.743 31.5479 149.725 31.5815 149.605 31.4265C149.34 31.0816 148.609 29.7839 148.609 26.9727H138.609H128.609C128.609 33.056 130.178 38.977 133.758 43.6273C137.471 48.4498 143.032 51.4102 149.395 51.4102V41.4102ZM138.609 26.9727H148.609C148.609 24.2526 149.326 22.9762 149.593 22.632C149.712 22.4774 149.729 22.5139 149.593 22.5822C149.533 22.6127 149.466 22.6363 149.404 22.6507C149.343 22.6649 149.312 22.6637 149.325 22.6638L149.395 12.6641L149.464 2.6643C143.055 2.6198 137.48 5.60151 133.771 10.3982C130.191 15.0277 128.609 20.9271 128.609 26.9727H138.609ZM149.395 18.8945L149.564 8.89597C143.932 8.80052 139.734 12.0746 137.561 16.1436C135.72 19.59 135.27 23.5385 135.27 26.9727H145.27H155.27C155.27 26.0559 155.338 25.4897 155.39 25.2055C155.447 24.8993 155.453 25.0966 155.202 25.5664C154.936 26.0649 154.309 26.9904 153.095 27.7722C151.817 28.5955 150.421 28.9134 149.225 28.8931L149.395 18.8945ZM145.27 26.9727H135.27C135.27 30.4271 135.713 34.3944 137.569 37.8541C139.783 41.9836 143.958 45.0937 149.395 45.0937V35.0937V25.0937C150.505 25.0937 151.84 25.3965 153.087 26.1982C154.284 26.9673 154.916 27.8831 155.194 28.4018C155.453 28.8846 155.449 29.0928 155.392 28.7849C155.339 28.4977 155.27 27.9194 155.27 26.9727H145.27ZM149.395 35.0937V45.0937C154.994 45.0937 159.045 41.7294 161.121 37.7986C162.92 34.3926 163.391 30.4806 163.391 26.9727H153.391H143.391C143.391 27.9039 143.321 28.4806 143.267 28.7724C143.209 29.0842 143.199 28.9062 143.437 28.4572C143.685 27.9865 144.281 27.0851 145.453 26.3005C146.693 25.4703 148.102 25.0937 149.395 25.0937V35.0937ZM153.391 26.9727H163.391C163.391 23.4853 162.914 19.5914 161.129 16.199C159.098 12.3393 155.019 8.79061 149.213 8.89618L149.395 18.8945L149.576 28.8929C148.19 28.9181 146.715 28.5217 145.445 27.6697C144.256 26.8723 143.666 25.9614 143.429 25.511C143.199 25.075 143.21 24.9078 143.268 25.218C143.322 25.507 143.391 26.0715 143.391 26.9727H153.391ZM198.035 12.5352L197.966 22.5349C198.012 22.5352 198.057 22.5352 198.103 22.5349L198.035 12.5352ZM198.035 32.5586L198.103 22.5588C198.057 22.5585 198.012 22.5585 197.966 22.5588L198.035 32.5586ZM219.133 10H229.133C229.133 4.47715 224.656 0 219.133 0V10ZM219.133 49.875V59.875C224.656 59.875 229.133 55.3978 229.133 49.875H219.133ZM212.301 49.875H202.301C202.301 55.3978 206.778 59.875 212.301 59.875V49.875ZM212.301 10V0C206.778 0 202.301 4.47715 202.301 10H212.301ZM185.402 36.6406V26.6406C182.507 26.6406 179.754 27.8953 177.855 30.0803C175.956 32.2654 175.097 35.1663 175.5 38.0332L185.402 36.6406ZM210.281 35.3945L220.227 34.3567C219.947 31.6672 218.589 29.206 216.463 27.5344C214.338 25.8627 211.626 25.123 208.946 25.4841L210.281 35.3945ZM210.797 40.3359L212.758 50.1417C217.819 49.1295 221.279 44.4317 220.743 39.2981L210.797 40.3359ZM186.176 42.1406L176.273 43.5332C176.967 48.4694 181.191 52.1406 186.176 52.1406V42.1406ZM198.035 12.5352L198.103 22.5349C198.568 22.5318 198.896 22.6075 199.098 22.6799C199.301 22.7527 199.383 22.8233 199.389 22.8281C199.391 22.8297 199.342 22.784 199.296 22.6848C199.248 22.5782 199.25 22.5128 199.25 22.5469L209.25 22.5469H219.25C219.25 10.1666 208.787 2.46228 197.968 2.53538L198.035 12.5352ZM209.25 22.5469L199.25 22.5469C199.25 22.6018 199.243 22.543 199.294 22.4328C199.315 22.3858 199.34 22.3458 199.362 22.3153C199.385 22.2853 199.4 22.2718 199.4 22.2718C199.4 22.2721 199.381 22.2886 199.337 22.3144C199.292 22.3403 199.221 22.376 199.119 22.4125C198.915 22.4851 198.58 22.562 198.103 22.5588L198.035 32.5586L197.968 42.5584C208.757 42.6313 219.25 34.9968 219.25 22.5469H209.25ZM198.035 32.5586L197.966 22.5588C197.105 22.5648 196.728 22.2798 196.689 22.2456C196.673 22.2312 196.719 22.2685 196.766 22.3707C196.818 22.4827 196.82 22.5621 196.82 22.5469H186.82H176.82C176.82 35.0666 187.521 42.6313 198.104 42.5584L198.035 32.5586ZM186.82 22.5469H196.82C196.82 22.5409 196.821 22.5641 196.811 22.6086C196.801 22.6526 196.785 22.7006 196.764 22.7469C196.718 22.8448 196.677 22.8752 196.7 22.8544C196.753 22.8078 197.132 22.5292 197.966 22.5349L198.035 12.5352L198.104 2.53539C187.491 2.4622 176.82 10.0966 176.82 22.5469H186.82ZM198.035 18.4648V8.46484C195.015 8.46484 191.408 9.32939 188.4 11.9458C185.198 14.7313 183.695 18.6259 183.695 22.5469H193.695H203.695C203.695 23.7608 203.16 25.6144 201.526 27.0357C200.087 28.2878 198.649 28.4648 198.035 28.4648V18.4648ZM193.695 22.5469H183.695C183.695 26.4329 185.148 30.3964 188.459 33.2315C191.535 35.8646 195.165 36.6289 198.035 36.6289V26.6289V16.6289C198.499 16.6289 199.959 16.7486 201.467 18.039C203.21 19.5313 203.695 21.4538 203.695 22.5469H193.695ZM198.035 26.6289V36.6289C200.857 36.6289 204.497 35.9223 207.618 33.3383C211.021 30.5216 212.547 26.5148 212.547 22.5469L202.547 22.5469H192.547C192.547 21.3719 193.084 19.4061 194.865 17.9322C196.364 16.691 197.748 16.6289 198.035 16.6289V26.6289ZM202.547 22.5469L212.547 22.5469C212.547 18.5435 210.97 14.606 207.678 11.8377C204.62 9.2655 201.002 8.46484 198.035 8.46484V18.4648V28.4648C197.603 28.4648 196.241 28.3517 194.805 27.1438C193.136 25.7397 192.547 23.8432 192.547 22.5469H202.547ZM219.133 10H209.133V49.875H219.133H229.133V10H219.133ZM219.133 49.875V39.875H212.301V49.875V59.875H219.133V49.875ZM212.301 49.875H222.301V10H212.301H202.301V49.875H212.301ZM212.301 10V20H219.133V10V0L212.301 0V10ZM185.402 36.6406V46.6406C192.33 46.6406 202.594 46.5205 211.616 45.305L210.281 35.3945L208.946 25.4841C201.383 26.503 192.31 26.6406 185.402 26.6406V36.6406ZM210.281 35.3945L200.335 36.4324L200.851 41.3738L210.797 40.3359L220.743 39.2981L220.227 34.3567L210.281 35.3945ZM210.797 40.3359L208.836 30.5301C201.329 32.0314 193.006 32.1406 186.176 32.1406V42.1406V52.1406C192.924 52.1406 203.077 52.0779 212.758 50.1417L210.797 40.3359ZM186.176 42.1406L196.078 40.7481L195.305 35.2481L185.402 36.6406L175.5 38.0332L176.273 43.5332L186.176 42.1406ZM257.074 10.0859H267.074C267.074 4.56309 262.597 0.0859375 257.074 0.0859375V10.0859ZM257.074 39.1328V49.1328C262.597 49.1328 267.074 44.6557 267.074 39.1328H257.074ZM250.242 39.1328H240.242C240.242 44.6557 244.719 49.1328 250.242 49.1328V39.1328ZM250.242 31.6992H260.242C260.242 26.1764 255.765 21.6992 250.242 21.6992V31.6992ZM242.207 31.6992H232.207C232.207 37.2221 236.684 41.6992 242.207 41.6992V31.6992ZM242.207 26.2422V16.2422C236.684 16.2422 232.207 20.7193 232.207 26.2422H242.207ZM250.242 26.2422V36.2422C255.765 36.2422 260.242 31.765 260.242 26.2422H250.242ZM250.242 22.8477H260.242C260.242 17.3248 255.765 12.8477 250.242 12.8477V22.8477ZM242.809 22.8477V12.8477C238.968 12.8477 235.466 15.0474 233.8 18.5075L242.809 22.8477ZM226.566 35.3086L217.709 39.9513C219.916 44.1616 224.782 46.2363 229.348 44.9139L226.566 35.3086ZM223.773 29.9805L220.807 20.4306C217.972 21.3111 215.675 23.4055 214.537 26.1471C213.399 28.8887 213.538 31.9942 214.917 34.6232L223.773 29.9805ZM237.438 18.4219L247.197 20.6C247.858 17.6381 247.139 14.5363 245.241 12.1681C243.343 9.80002 240.472 8.42187 237.438 8.42187V18.4219ZM225.965 18.4219H215.965C215.965 23.9447 220.442 28.4219 225.965 28.4219V18.4219ZM225.965 12.9648V2.96484C220.442 2.96484 215.965 7.442 215.965 12.9648H225.965ZM244.914 12.9648H254.914C254.914 7.442 250.437 2.96484 244.914 2.96484V12.9648ZM244.527 17.3906L234.689 15.6018C234.158 18.5192 234.95 21.5215 236.85 23.7981C238.75 26.0747 241.562 27.3906 244.527 27.3906V17.3906ZM250.242 17.3906V27.3906C255.765 27.3906 260.242 22.9135 260.242 17.3906H250.242ZM250.242 10.0859V0.0859375C244.719 0.0859375 240.242 4.56309 240.242 10.0859H250.242ZM258.148 43.6875H268.148C268.148 38.1647 263.671 33.6875 258.148 33.6875V43.6875ZM258.148 49.1875V59.1875C263.671 59.1875 268.148 54.7103 268.148 49.1875H258.148ZM230.348 49.1875H220.348C220.348 54.7103 224.825 59.1875 230.348 59.1875V49.1875ZM230.348 36.2539V26.2539C224.825 26.2539 220.348 30.7311 220.348 36.2539H230.348ZM237.352 36.2539H247.352C247.352 30.7311 242.874 26.2539 237.352 26.2539V36.2539ZM237.352 43.6875H227.352C227.352 49.2103 231.829 53.6875 237.352 53.6875V43.6875ZM257.074 10.0859H247.074V39.1328H257.074H267.074V10.0859H257.074ZM257.074 39.1328V29.1328H250.242V39.1328V49.1328H257.074V39.1328ZM250.242 39.1328H260.242V31.6992H250.242H240.242V39.1328H250.242ZM250.242 31.6992V21.6992H242.207V31.6992V41.6992H250.242V31.6992ZM242.207 31.6992H252.207V26.2422H242.207H232.207V31.6992H242.207ZM242.207 26.2422V36.2422H250.242V26.2422V16.2422H242.207V26.2422ZM250.242 26.2422H260.242V22.8477H250.242H240.242V26.2422H250.242ZM250.242 22.8477V12.8477H242.809V22.8477V32.8477H250.242V22.8477ZM242.809 22.8477L233.8 18.5075C232.474 21.2582 229.599 24.0193 223.785 25.7033L226.566 35.3086L229.348 44.9139C239.26 42.0432 247.471 36.2106 251.818 27.1878L242.809 22.8477ZM226.566 35.3086L235.423 30.6659L232.63 25.3377L223.773 29.9805L214.917 34.6232L217.709 39.9513L226.566 35.3086ZM223.773 29.9805L226.74 39.5303C236.119 36.6169 244.942 30.7047 247.197 20.6L237.438 18.4219L227.678 16.2437C227.665 16.2994 227.571 16.7675 226.646 17.5579C225.653 18.4067 223.833 19.4905 220.807 20.4306L223.773 29.9805ZM237.438 18.4219V8.42187L225.965 8.42187V18.4219V28.4219H237.438V18.4219ZM225.965 18.4219H235.965V12.9648H225.965H215.965V18.4219H225.965ZM225.965 12.9648V22.9648H244.914V12.9648V2.96484H225.965V12.9648ZM244.914 12.9648H234.914C234.914 13.9294 234.832 14.8113 234.689 15.6018L244.527 17.3906L254.366 19.1795C254.738 17.134 254.914 15.0511 254.914 12.9648H244.914ZM244.527 17.3906V27.3906H250.242V17.3906V7.39062H244.527V17.3906ZM250.242 17.3906H260.242V10.0859H250.242H240.242V17.3906H250.242ZM250.242 10.0859V20.0859H257.074V10.0859V0.0859375H250.242V10.0859ZM258.148 43.6875H248.148V49.1875H258.148H268.148V43.6875H258.148ZM258.148 49.1875V39.1875H230.348V49.1875V59.1875H258.148V49.1875ZM230.348 49.1875H240.348V36.2539H230.348H220.348V49.1875H230.348ZM230.348 36.2539V46.2539H237.352V36.2539V26.2539H230.348V36.2539ZM237.352 36.2539H227.352V43.6875H237.352H247.352V36.2539H237.352ZM237.352 43.6875V53.6875H258.148V43.6875V33.6875H237.352V43.6875ZM294.156 17.2187L304.156 17.3168C304.156 17.2511 304.156 17.1854 304.156 17.1197L294.156 17.2187ZM264.723 17.2187L274.722 17.3168C274.723 17.2511 274.723 17.1854 274.722 17.1197L264.723 17.2187ZM279.461 18.9805L279.381 28.9801C279.434 28.9806 279.487 28.9806 279.54 28.9802L279.461 18.9805ZM297.594 25.2969H307.594C307.594 19.774 303.117 15.2969 297.594 15.2969V25.2969ZM297.594 30.7539V40.7539C303.117 40.7539 307.594 36.2768 307.594 30.7539H297.594ZM261.328 30.7539H251.328C251.328 36.2768 255.805 40.7539 261.328 40.7539V30.7539ZM261.328 25.2969V15.2969C255.805 15.2969 251.328 19.774 251.328 25.2969H261.328ZM293.297 32.2578H303.297C303.297 26.735 298.82 22.2578 293.297 22.2578V32.2578ZM293.297 43.2148V53.2148C298.82 53.2148 303.297 48.7377 303.297 43.2148H293.297ZM272.113 43.2148V33.2148C266.59 33.2148 262.113 37.692 262.113 43.2148H272.113ZM272.113 44.5039H262.113C262.113 50.0268 266.59 54.5039 272.113 54.5039V44.5039ZM294.242 44.5039H304.242C304.242 38.9811 299.765 34.5039 294.242 34.5039V44.5039ZM294.242 49.5742V59.5742C299.765 59.5742 304.242 55.0971 304.242 49.5742H294.242ZM265.367 49.5742H255.367C255.367 55.0971 259.844 59.5742 265.367 59.5742V49.5742ZM265.367 38.4883V28.4883C259.844 28.4883 255.367 32.9654 255.367 38.4883H265.367ZM286.508 38.4883V48.4883C292.031 48.4883 296.508 44.0111 296.508 38.4883H286.508ZM286.508 37.2852H296.508C296.508 31.7623 292.031 27.2852 286.508 27.2852V37.2852ZM265.41 37.2852H255.41C255.41 42.808 259.887 47.2852 265.41 47.2852V37.2852ZM265.41 32.2578V22.2578C259.887 22.2578 255.41 26.735 255.41 32.2578H265.41ZM279.461 10.5156V20.5156C281.39 20.5156 282.929 20.6392 284.107 20.8275C285.313 21.02 285.943 21.249 286.164 21.3494C286.395 21.4538 285.886 21.2804 285.279 20.505C284.571 19.6003 284.168 18.4288 284.157 17.3178L294.156 17.2187L304.156 17.1197C304.083 9.78613 299.133 5.26676 294.414 3.13007C290.027 1.14355 284.714 0.515625 279.461 0.515625V10.5156ZM294.156 17.2187L284.157 17.1207C284.167 16.0441 284.555 14.8886 285.258 13.985C285.861 13.2084 286.371 13.0316 286.148 13.133C285.932 13.2315 285.307 13.4603 284.104 13.6529C282.927 13.8412 281.39 13.9648 279.461 13.9648V23.9648V33.9648C284.712 33.9648 290.033 33.3378 294.43 31.3377C299.184 29.1749 304.084 24.6299 304.156 17.3168L294.156 17.2187ZM279.461 23.9648V13.9648C277.519 13.9648 275.965 13.841 274.771 13.6512C273.548 13.4568 272.908 13.2253 272.682 13.1231C272.444 13.0155 272.976 13.1961 273.601 14.0048C274.335 14.9544 274.733 16.1768 274.722 17.3168L264.723 17.2187L254.723 17.1207C254.65 24.6082 259.706 29.2059 264.444 31.3476C268.85 33.3391 274.195 33.9648 279.461 33.9648V23.9648ZM264.723 17.2187L274.722 17.1197C274.734 18.2952 274.32 19.5344 273.58 20.4852C272.951 21.2927 272.42 21.4698 272.666 21.3593C272.897 21.2552 273.543 21.0234 274.767 20.8292C275.963 20.6394 277.52 20.5156 279.461 20.5156V10.5156V0.515625C274.193 0.515625 268.856 1.14229 264.46 3.12017C259.759 5.23532 254.649 9.80756 254.723 17.3178L264.723 17.2187ZM279.461 15.5V5.5C276.712 5.5 273.842 5.60872 271.435 6.16502C270.279 6.43215 268.236 7.01263 266.298 8.49003C263.924 10.3003 261.941 13.3361 261.941 17.2187H271.941H281.941C281.941 18.6243 281.61 20.1198 280.859 21.5217C280.131 22.8801 279.195 23.807 278.424 24.3952C277.677 24.9644 277.018 25.2695 276.649 25.4187C276.267 25.5729 276.005 25.636 275.939 25.6514C275.835 25.6754 276.034 25.623 276.72 25.5748C277.367 25.5294 278.26 25.5 279.461 25.5V15.5ZM271.941 17.2187H261.941C261.941 20.5239 263.379 23.706 266.081 25.8861C268.203 27.5992 270.487 28.1787 271.642 28.4201C273.998 28.9121 276.905 28.9603 279.381 28.9801L279.461 18.9805L279.541 8.98079C278.245 8.97042 277.291 8.94762 276.574 8.90785C275.805 8.86526 275.612 8.81754 275.732 8.84263C275.813 8.85961 276.131 8.92924 276.585 9.10871C277.032 9.2859 277.801 9.64408 278.641 10.3225C279.53 11.0393 280.44 12.0705 281.09 13.4499C281.737 14.8216 281.941 16.1475 281.941 17.2187H271.941ZM279.461 18.9805L279.54 28.9802C282.036 28.9603 284.952 28.912 287.309 28.4219C288.463 28.1817 290.749 27.6047 292.875 25.8933C295.583 23.7125 297.023 20.5264 297.023 17.2187H287.023H277.023C277.023 16.1476 277.228 14.8198 277.876 13.4457C278.528 12.0637 279.442 11.0318 280.332 10.3153C281.174 9.63745 281.942 9.28046 282.389 9.10441C282.841 8.92603 283.158 8.85723 283.236 8.84082C283.352 8.81682 283.152 8.86492 282.377 8.90766C281.652 8.94759 280.689 8.97041 279.382 8.98078L279.461 18.9805ZM287.023 17.2187H297.023C297.023 13.3329 295.038 10.294 292.657 8.48317C290.716 7.00718 288.671 6.42878 287.515 6.16284C285.106 5.60863 282.228 5.5 279.461 5.5V15.5V25.5C280.674 25.5 281.576 25.5295 282.231 25.5751C282.925 25.6235 283.13 25.6765 283.03 25.6536C282.966 25.6388 282.705 25.5764 282.325 25.4232C281.956 25.2749 281.297 24.9708 280.549 24.4021C279.777 23.8142 278.838 22.8868 278.108 21.5261C277.355 20.1218 277.023 18.6244 277.023 17.2187H287.023ZM297.594 25.2969H287.594V30.7539H297.594H307.594V25.2969H297.594ZM297.594 30.7539V20.7539H261.328V30.7539V40.7539H297.594V30.7539ZM261.328 30.7539H271.328V25.2969H261.328H251.328V30.7539H261.328ZM261.328 25.2969V35.2969H297.594V25.2969V15.2969H261.328V25.2969ZM293.297 32.2578H283.297V43.2148H293.297H303.297V32.2578H293.297ZM293.297 43.2148V33.2148H272.113V43.2148V53.2148H293.297V43.2148ZM272.113 43.2148H262.113V44.5039H272.113H282.113V43.2148H272.113ZM272.113 44.5039V54.5039H294.242V44.5039V34.5039H272.113V44.5039ZM294.242 44.5039H284.242V49.5742H294.242H304.242V44.5039H294.242ZM294.242 49.5742V39.5742H265.367V49.5742V59.5742H294.242V49.5742ZM265.367 49.5742H275.367V38.4883H265.367H255.367V49.5742H265.367ZM265.367 38.4883V48.4883H286.508V38.4883V28.4883H265.367V38.4883ZM286.508 38.4883H296.508V37.2852H286.508H276.508V38.4883H286.508ZM286.508 37.2852V27.2852H265.41V37.2852V47.2852H286.508V37.2852ZM265.41 37.2852H275.41V32.2578H265.41H255.41V37.2852H265.41ZM265.41 32.2578V42.2578H293.297V32.2578V22.2578H265.41V32.2578ZM341.422 43.9453H351.422C351.422 38.4225 346.945 33.9453 341.422 33.9453V43.9453ZM341.422 49.4023V59.4023C346.945 59.4023 351.422 54.9252 351.422 49.4023H341.422ZM313.105 49.4023H303.105C303.105 54.9252 307.583 59.4023 313.105 59.4023V49.4023ZM313.105 35.5234V25.5234C307.583 25.5234 303.105 30.0006 303.105 35.5234H313.105ZM323.547 35.5234V45.5234C329.07 45.5234 333.547 41.0463 333.547 35.5234H323.547ZM323.547 32.8594H333.547C333.547 27.3365 329.07 22.8594 323.547 22.8594V32.8594ZM308.938 32.8594H298.938C298.938 38.3822 303.415 42.8594 308.938 42.8594V32.8594ZM308.938 27.4453V17.4453C303.415 17.4453 298.938 21.9225 298.938 27.4453H308.938ZM345.203 27.4453H355.203C355.203 21.9225 350.726 17.4453 345.203 17.4453V27.4453ZM345.203 32.8594V42.8594C350.726 42.8594 355.203 38.3822 355.203 32.8594H345.203ZM330.422 32.8594V22.8594C324.899 22.8594 320.422 27.3365 320.422 32.8594H330.422ZM330.422 35.5234H320.422C320.422 41.0463 324.899 45.5234 330.422 45.5234V35.5234ZM341.035 35.5234H351.035C351.035 30.0006 346.558 25.5234 341.035 25.5234V35.5234ZM341.035 40.9805V50.9805C346.558 50.9805 351.035 46.5033 351.035 40.9805H341.035ZM319.98 40.9805V30.9805C314.458 30.9805 309.98 35.4576 309.98 40.9805H319.98ZM319.98 43.9453H309.98C309.98 49.4682 314.458 53.9453 319.98 53.9453V43.9453ZM340.648 11.2031H350.648C350.648 5.68028 346.171 1.20312 340.648 1.20312V11.2031ZM340.648 25.2969V35.2969C346.171 35.2969 350.648 30.8197 350.648 25.2969H340.648ZM313.32 25.2969H303.32C303.32 30.8197 307.797 35.2969 313.32 35.2969V25.2969ZM313.32 11.2031V1.20312C307.797 1.20312 303.32 5.68028 303.32 11.2031H313.32ZM320.023 16.5742V6.57422C314.501 6.57422 310.023 11.0514 310.023 16.5742H320.023ZM320.023 19.9687H310.023C310.023 25.4916 314.501 29.9687 320.023 29.9687V19.9687ZM333.859 19.9687V29.9687C339.382 29.9687 343.859 25.4916 343.859 19.9687H333.859ZM333.859 16.5742H343.859C343.859 11.0514 339.382 6.57422 333.859 6.57422V16.5742ZM341.422 43.9453H331.422V49.4023H341.422H351.422V43.9453H341.422ZM341.422 49.4023V39.4023H313.105V49.4023V59.4023H341.422V49.4023ZM313.105 49.4023H323.105V35.5234H313.105H303.105V49.4023H313.105ZM313.105 35.5234V45.5234H323.547V35.5234V25.5234H313.105V35.5234ZM323.547 35.5234H333.547V32.8594H323.547H313.547V35.5234H323.547ZM323.547 32.8594V22.8594H308.938V32.8594V42.8594H323.547V32.8594ZM308.938 32.8594H318.938V27.4453H308.938H298.938V32.8594H308.938ZM308.938 27.4453V37.4453H345.203V27.4453V17.4453L308.938 17.4453V27.4453ZM345.203 27.4453H335.203V32.8594H345.203H355.203V27.4453H345.203ZM345.203 32.8594V22.8594L330.422 22.8594V32.8594V42.8594H345.203V32.8594ZM330.422 32.8594H320.422V35.5234H330.422H340.422V32.8594H330.422ZM330.422 35.5234V45.5234H341.035V35.5234V25.5234L330.422 25.5234V35.5234ZM341.035 35.5234H331.035V40.9805H341.035H351.035V35.5234H341.035ZM341.035 40.9805V30.9805H319.98V40.9805V50.9805H341.035V40.9805ZM319.98 40.9805H309.98V43.9453H319.98H329.98V40.9805H319.98ZM319.98 43.9453V53.9453H341.422V43.9453V33.9453H319.98V43.9453ZM340.648 11.2031H330.648V25.2969L340.648 25.2969H350.648V11.2031H340.648ZM340.648 25.2969V15.2969L313.32 15.2969V25.2969V35.2969H340.648V25.2969ZM313.32 25.2969H323.32V11.2031H313.32H303.32V25.2969H313.32ZM313.32 11.2031V21.2031L340.648 21.2031V11.2031V1.20312L313.32 1.20312V11.2031ZM320.023 16.5742H310.023V19.9687H320.023H330.023V16.5742H320.023ZM320.023 19.9687V29.9687H333.859V19.9687V9.96875H320.023V19.9687ZM333.859 19.9687H343.859V16.5742H333.859L323.859 16.5742V19.9687L333.859 19.9687ZM333.859 16.5742V6.57422H320.023V16.5742V26.5742L333.859 26.5742V16.5742ZM379.32 20.0977H389.32C389.32 14.5748 384.843 10.0977 379.32 10.0977V20.0977ZM379.32 25.4258V35.4258C384.843 35.4258 389.32 30.9486 389.32 25.4258H379.32ZM351.219 25.4258H341.219C341.219 30.9486 345.696 35.4258 351.219 35.4258V25.4258ZM351.219 11.418V1.41797C345.696 1.41797 341.219 5.89512 341.219 11.418H351.219ZM358.094 11.418L368.094 11.418C368.094 5.89512 363.617 1.41797 358.094 1.41797V11.418ZM358.094 20.0977H348.094C348.094 25.6205 352.571 30.0977 358.094 30.0977V20.0977ZM383.23 28.9492H393.23C393.23 23.4264 388.753 18.9492 383.23 18.9492V28.9492ZM383.23 34.2773V44.2773C388.753 44.2773 393.23 39.8002 393.23 34.2773H383.23ZM346.965 34.2773H336.965C336.965 39.8002 341.442 44.2773 346.965 44.2773V34.2773ZM346.965 28.9492V18.9492C341.442 18.9492 336.965 23.4264 336.965 28.9492H346.965ZM379.578 43.4727H389.578C389.578 37.9498 385.101 33.4727 379.578 33.4727V43.4727ZM379.578 48.9727V58.9727C385.101 58.9727 389.578 54.4955 389.578 48.9727H379.578ZM350.746 48.9727H340.746C340.746 54.4955 345.223 58.9727 350.746 58.9727V48.9727ZM350.746 37.0273V27.0273C345.223 27.0273 340.746 31.5045 340.746 37.0273H350.746ZM357.707 37.0273H367.707C367.707 31.5045 363.23 27.0273 357.707 27.0273V37.0273ZM357.707 43.4727H347.707C347.707 48.9955 352.184 53.4727 357.707 53.4727V43.4727ZM379.32 20.0977H369.32V25.4258H379.32H389.32V20.0977H379.32ZM379.32 25.4258V15.4258H351.219V25.4258V35.4258H379.32V25.4258ZM351.219 25.4258H361.219V11.418H351.219H341.219V25.4258H351.219ZM351.219 11.418V21.418H358.094V11.418V1.41797H351.219V11.418ZM358.094 11.418H348.094V20.0977H358.094H368.094V11.418L358.094 11.418ZM358.094 20.0977V30.0977H379.32V20.0977V10.0977L358.094 10.0977V20.0977ZM383.23 28.9492H373.23V34.2773H383.23H393.23V28.9492H383.23ZM383.23 34.2773V24.2773H346.965V34.2773V44.2773H383.23V34.2773ZM346.965 34.2773H356.965V28.9492H346.965H336.965V34.2773H346.965ZM346.965 28.9492V38.9492H383.23V28.9492V18.9492H346.965V28.9492ZM379.578 43.4727H369.578V48.9727H379.578H389.578V43.4727H379.578ZM379.578 48.9727V38.9727H350.746V48.9727V58.9727H379.578V48.9727ZM350.746 48.9727H360.746V37.0273H350.746H340.746V48.9727H350.746ZM350.746 37.0273V47.0273H357.707V37.0273V27.0273H350.746V37.0273ZM357.707 37.0273H347.707V43.4727H357.707H367.707V37.0273H357.707ZM357.707 43.4727V53.4727H379.578V43.4727V33.4727H357.707V43.4727Z" fill="white" mask="url(#path-1-outside-1_6524_1822)"/>
</g>
<defs>
<filter id="filter0_d_6524_1822" x="0" y="0" width="397.23" height="67.875" filterUnits="userSpaceOnUse" color-interpolation-filters="sRGB">
<feFlood flood-opacity="0" result="BackgroundImageFix"/>
<feColorMatrix in="SourceAlpha" type="matrix" values="0 0 0 0 0 0 0 0 0 0 0 0 0 0 0 0 0 0 127 0" result="hardAlpha"/>
<feOffset dy="4"/>
<feGaussianBlur stdDeviation="2"/>
<feComposite in2="hardAlpha" operator="out"/>
<feColorMatrix type="matrix" values="0 0 0 0 0 0 0 0 0 0 0 0 0 0 0 0 0 0 0.07 0"/>
<feBlend mode="normal" in2="BackgroundImageFix" result="effect1_dropShadow_6524_1822"/>
<feBlend mode="normal" in="SourceGraphic" in2="effect1_dropShadow_6524_1822" result="shape"/>
</filter>
</defs>
</svg>
