<svg width="300" height="69" viewBox="0 0 300 69" fill="none" xmlns="http://www.w3.org/2000/svg">
<g filter="url(#filter0_d_6524_1746)">
<mask id="path-1-outside-1_6524_1746" maskUnits="userSpaceOnUse" x="3.09766" y="-0.207031" width="293" height="61" fill="black">
<rect fill="white" x="3.09766" y="-0.207031" width="293" height="61"/>
<path d="M50.2656 30.2812V35.6523H36.1289V41.1523H29.2969V35.6523H14L14 30.2812H50.2656ZM46.3125 43.9883V49.4883H17.9531V38.4023H24.7852V43.9883H46.3125ZM25.2578 11.5898V15.1562H38.8359V11.5898L45.668 11.5898V28.2188H18.5117V11.5898H25.2578ZM25.2578 22.8477H38.8359V20.1836H25.2578V22.8477ZM64.875 11.8047C71.0195 11.8047 75.5742 15.3711 75.5742 20.4844C75.5742 25.4688 71.0195 29.1211 64.875 29.0781C58.7734 29.1211 54.2617 25.4688 54.3047 20.4844C54.2617 15.3711 58.7734 11.8047 64.875 11.8047ZM64.875 17.3047C62.5547 17.3047 60.9219 18.293 60.9219 20.4844C60.9219 22.5469 62.5547 23.5352 64.875 23.4922C67.3672 23.5352 69.043 22.5469 69.043 20.4844C69.043 18.293 67.3672 17.3047 64.875 17.3047ZM85.9727 10.3867V50.0039H79.0977V10.3867H85.9727ZM52.2422 30.8828C58.9883 30.8398 68.8281 30.7109 77.0352 29.4648L77.5078 34.4492C74.5859 35.0938 71.5781 35.502 68.6133 35.7812V48.8867H61.6953V36.2109C58.5586 36.3398 55.6367 36.3828 53.0586 36.4258L52.2422 30.8828ZM123.785 10.3008V50.0469H116.781V10.3008H123.785ZM111.754 14.3828C111.754 26.8437 108.23 36.7695 93.4922 43.6445L89.9688 38.2305C99.8945 33.5039 103.869 28.0469 104.75 19.7539H92.2461V14.3828H111.754ZM154.723 14.125V24.4805H157.387V10.7734H163.875V48.3281H157.387V29.8945H154.723V40.5508L138.566 40.5508V14.125H154.723ZM145.012 19.4961V35.1797H148.32V19.4961H145.012ZM172.34 10.3008V50.0469H165.766V10.3008H172.34ZM209.25 10.3008V50.1758H202.289V10.3008H209.25ZM187.422 12.9648C193.48 12.9219 198.035 18.5078 198.035 27.2734C198.035 36.168 193.48 41.7109 187.422 41.7109C181.234 41.7109 176.637 36.168 176.637 27.2734C176.637 18.5078 181.234 12.9219 187.422 12.9648ZM187.422 19.1953C184.887 19.1523 183.297 21.7734 183.297 27.2734C183.297 32.8594 184.887 35.3945 187.422 35.3945C189.785 35.3945 191.418 32.8594 191.418 27.2734C191.418 21.7734 189.785 19.1523 187.422 19.1953ZM234.215 13.9102C234.172 26.6289 231.379 36.7266 216.898 44.418L213.16 39.2187C218.811 36.168 222.355 33.0098 224.547 29.207L214.277 30.1523L213.461 24.3945L226.652 23.707C226.975 22.3535 227.189 20.9141 227.34 19.3672H215.652V13.9102H234.215ZM247.535 10.3008V50.0469H240.66V30.7539H234.172V25.168H240.66V10.3008H247.535ZM273.66 13.5234V18.8945H251.875V13.5234H259.695V10H266.57V13.5234H273.66ZM263.047 19.7539C268.59 19.7969 272.672 22.8906 272.672 27.2734C272.672 31.7422 268.59 34.707 263.047 34.707C257.504 34.707 253.508 31.7422 253.551 27.2734C253.508 22.8906 257.504 19.7969 263.047 19.7539ZM263.047 24.8672C261.156 24.8672 259.953 25.5977 259.953 27.2734C259.953 28.9922 261.156 29.6797 263.047 29.6367C264.938 29.6797 266.312 28.9922 266.312 27.2734C266.312 25.5977 264.938 24.8672 263.047 24.8672ZM285.562 10.3008V35.4375H278.688V32.043H274.305V26.5859H278.688V23.9648H274.391V18.5078H278.688V10.3008H285.562ZM271.812 35.9102C280.363 35.9102 285.734 38.6172 285.777 43.043C285.734 47.4258 280.363 50.1328 271.812 50.1328C263.262 50.1328 257.891 47.4258 257.891 43.043C257.891 38.6172 263.262 35.9102 271.812 35.9102ZM271.812 41.1094C267.344 41.1094 265.152 41.625 265.195 43.043C265.152 44.418 267.344 44.9766 271.812 44.9766C276.195 44.9766 278.344 44.418 278.344 43.043C278.344 41.625 276.195 41.1094 271.812 41.1094Z"/>
</mask>
<path d="M50.2656 30.2812V35.6523H36.1289V41.1523H29.2969V35.6523H14L14 30.2812H50.2656ZM46.3125 43.9883V49.4883H17.9531V38.4023H24.7852V43.9883H46.3125ZM25.2578 11.5898V15.1562H38.8359V11.5898L45.668 11.5898V28.2188H18.5117V11.5898H25.2578ZM25.2578 22.8477H38.8359V20.1836H25.2578V22.8477ZM64.875 11.8047C71.0195 11.8047 75.5742 15.3711 75.5742 20.4844C75.5742 25.4688 71.0195 29.1211 64.875 29.0781C58.7734 29.1211 54.2617 25.4688 54.3047 20.4844C54.2617 15.3711 58.7734 11.8047 64.875 11.8047ZM64.875 17.3047C62.5547 17.3047 60.9219 18.293 60.9219 20.4844C60.9219 22.5469 62.5547 23.5352 64.875 23.4922C67.3672 23.5352 69.043 22.5469 69.043 20.4844C69.043 18.293 67.3672 17.3047 64.875 17.3047ZM85.9727 10.3867V50.0039H79.0977V10.3867H85.9727ZM52.2422 30.8828C58.9883 30.8398 68.8281 30.7109 77.0352 29.4648L77.5078 34.4492C74.5859 35.0938 71.5781 35.502 68.6133 35.7812V48.8867H61.6953V36.2109C58.5586 36.3398 55.6367 36.3828 53.0586 36.4258L52.2422 30.8828ZM123.785 10.3008V50.0469H116.781V10.3008H123.785ZM111.754 14.3828C111.754 26.8437 108.23 36.7695 93.4922 43.6445L89.9688 38.2305C99.8945 33.5039 103.869 28.0469 104.75 19.7539H92.2461V14.3828H111.754ZM154.723 14.125V24.4805H157.387V10.7734H163.875V48.3281H157.387V29.8945H154.723V40.5508L138.566 40.5508V14.125H154.723ZM145.012 19.4961V35.1797H148.32V19.4961H145.012ZM172.34 10.3008V50.0469H165.766V10.3008H172.34ZM209.25 10.3008V50.1758H202.289V10.3008H209.25ZM187.422 12.9648C193.48 12.9219 198.035 18.5078 198.035 27.2734C198.035 36.168 193.48 41.7109 187.422 41.7109C181.234 41.7109 176.637 36.168 176.637 27.2734C176.637 18.5078 181.234 12.9219 187.422 12.9648ZM187.422 19.1953C184.887 19.1523 183.297 21.7734 183.297 27.2734C183.297 32.8594 184.887 35.3945 187.422 35.3945C189.785 35.3945 191.418 32.8594 191.418 27.2734C191.418 21.7734 189.785 19.1523 187.422 19.1953ZM234.215 13.9102C234.172 26.6289 231.379 36.7266 216.898 44.418L213.16 39.2187C218.811 36.168 222.355 33.0098 224.547 29.207L214.277 30.1523L213.461 24.3945L226.652 23.707C226.975 22.3535 227.189 20.9141 227.34 19.3672H215.652V13.9102H234.215ZM247.535 10.3008V50.0469H240.66V30.7539H234.172V25.168H240.66V10.3008H247.535ZM273.66 13.5234V18.8945H251.875V13.5234H259.695V10H266.57V13.5234H273.66ZM263.047 19.7539C268.59 19.7969 272.672 22.8906 272.672 27.2734C272.672 31.7422 268.59 34.707 263.047 34.707C257.504 34.707 253.508 31.7422 253.551 27.2734C253.508 22.8906 257.504 19.7969 263.047 19.7539ZM263.047 24.8672C261.156 24.8672 259.953 25.5977 259.953 27.2734C259.953 28.9922 261.156 29.6797 263.047 29.6367C264.938 29.6797 266.312 28.9922 266.312 27.2734C266.312 25.5977 264.938 24.8672 263.047 24.8672ZM285.562 10.3008V35.4375H278.688V32.043H274.305V26.5859H278.688V23.9648H274.391V18.5078H278.688V10.3008H285.562ZM271.812 35.9102C280.363 35.9102 285.734 38.6172 285.777 43.043C285.734 47.4258 280.363 50.1328 271.812 50.1328C263.262 50.1328 257.891 47.4258 257.891 43.043C257.891 38.6172 263.262 35.9102 271.812 35.9102ZM271.812 41.1094C267.344 41.1094 265.152 41.625 265.195 43.043C265.152 44.418 267.344 44.9766 271.812 44.9766C276.195 44.9766 278.344 44.418 278.344 43.043C278.344 41.625 276.195 41.1094 271.812 41.1094Z" fill="#11DCA9"/>
<path d="M50.2656 30.2812H60.2656C60.2656 24.7584 55.7885 20.2812 50.2656 20.2812V30.2812ZM50.2656 35.6523V45.6523C55.7885 45.6523 60.2656 41.1752 60.2656 35.6523H50.2656ZM36.1289 35.6523V25.6523C30.6061 25.6523 26.1289 30.1295 26.1289 35.6523H36.1289ZM36.1289 41.1523V51.1523C41.6518 51.1523 46.1289 46.6752 46.1289 41.1523H36.1289ZM29.2969 41.1523H19.2969C19.2969 46.6752 23.774 51.1523 29.2969 51.1523V41.1523ZM29.2969 35.6523H39.2969C39.2969 30.1295 34.8197 25.6523 29.2969 25.6523V35.6523ZM14 35.6523H4C4 41.1752 8.47715 45.6523 14 45.6523V35.6523ZM14 30.2812V20.2812C8.47715 20.2812 4 24.7584 4 30.2812H14ZM46.3125 43.9883H56.3125C56.3125 38.4654 51.8353 33.9883 46.3125 33.9883V43.9883ZM46.3125 49.4883V59.4883C51.8353 59.4883 56.3125 55.0111 56.3125 49.4883H46.3125ZM17.9531 49.4883H7.95313C7.95313 55.0111 12.4303 59.4883 17.9531 59.4883V49.4883ZM17.9531 38.4023V28.4023C12.4303 28.4023 7.95313 32.8795 7.95313 38.4023H17.9531ZM24.7852 38.4023H34.7852C34.7852 32.8795 30.308 28.4023 24.7852 28.4023V38.4023ZM24.7852 43.9883H14.7852C14.7852 49.5111 19.2623 53.9883 24.7852 53.9883V43.9883ZM25.2578 11.5898H35.2578C35.2578 6.067 30.7807 1.58984 25.2578 1.58984V11.5898ZM25.2578 15.1562H15.2578C15.2578 20.6791 19.735 25.1562 25.2578 25.1562V15.1562ZM38.8359 15.1562V25.1562C44.3588 25.1562 48.8359 20.6791 48.8359 15.1562H38.8359ZM38.8359 11.5898V1.58984C33.3131 1.58984 28.8359 6.067 28.8359 11.5898H38.8359ZM45.668 11.5898H55.668C55.668 6.067 51.1908 1.58984 45.668 1.58984V11.5898ZM45.668 28.2188V38.2188C51.1908 38.2188 55.668 33.7416 55.668 28.2188H45.668ZM18.5117 28.2188H8.51172C8.51172 33.7416 12.9889 38.2188 18.5117 38.2188V28.2188ZM18.5117 11.5898V1.58984C12.9889 1.58984 8.51172 6.067 8.51172 11.5898H18.5117ZM25.2578 22.8477H15.2578C15.2578 28.3705 19.735 32.8477 25.2578 32.8477V22.8477ZM38.8359 22.8477V32.8477C44.3588 32.8477 48.8359 28.3705 48.8359 22.8477H38.8359ZM38.8359 20.1836H48.8359C48.8359 14.6607 44.3588 10.1836 38.8359 10.1836V20.1836ZM25.2578 20.1836V10.1836C19.735 10.1836 15.2578 14.6607 15.2578 20.1836H25.2578ZM50.2656 30.2812H40.2656V35.6523H50.2656H60.2656V30.2812H50.2656ZM50.2656 35.6523V25.6523H36.1289V35.6523V45.6523H50.2656V35.6523ZM36.1289 35.6523H26.1289V41.1523H36.1289H46.1289V35.6523H36.1289ZM36.1289 41.1523V31.1523H29.2969V41.1523V51.1523H36.1289V41.1523ZM29.2969 41.1523H39.2969V35.6523H29.2969H19.2969V41.1523H29.2969ZM29.2969 35.6523V25.6523H14L14 35.6523V45.6523H29.2969V35.6523ZM14 35.6523H24V30.2812H14H4V35.6523H14ZM14 30.2812L14 40.2812H50.2656V30.2812V20.2812H14V30.2812ZM46.3125 43.9883H36.3125V49.4883H46.3125H56.3125V43.9883H46.3125ZM46.3125 49.4883V39.4883H17.9531V49.4883V59.4883H46.3125V49.4883ZM17.9531 49.4883H27.9531V38.4023H17.9531H7.95313L7.95313 49.4883H17.9531ZM17.9531 38.4023V48.4023H24.7852V38.4023V28.4023H17.9531V38.4023ZM24.7852 38.4023H14.7852V43.9883H24.7852H34.7852V38.4023H24.7852ZM24.7852 43.9883V53.9883H46.3125V43.9883V33.9883H24.7852V43.9883ZM25.2578 11.5898H15.2578V15.1562H25.2578H35.2578V11.5898H25.2578ZM25.2578 15.1562V25.1562H38.8359V15.1562V5.15625H25.2578V15.1562ZM38.8359 15.1562H48.8359V11.5898L38.8359 11.5898H28.8359V15.1562H38.8359ZM38.8359 11.5898V21.5898H45.668V11.5898V1.58984H38.8359V11.5898ZM45.668 11.5898L35.668 11.5898V28.2188H45.668H55.668V11.5898H45.668ZM45.668 28.2188V18.2188H18.5117V28.2188V38.2188H45.668V28.2188ZM18.5117 28.2188H28.5117V11.5898H18.5117H8.51172V28.2188H18.5117ZM18.5117 11.5898V21.5898H25.2578V11.5898V1.58984H18.5117V11.5898ZM25.2578 22.8477V32.8477H38.8359V22.8477V12.8477H25.2578V22.8477ZM38.8359 22.8477H48.8359V20.1836H38.8359H28.8359V22.8477H38.8359ZM38.8359 20.1836V10.1836H25.2578V20.1836V30.1836H38.8359V20.1836ZM25.2578 20.1836H15.2578V22.8477H25.2578H35.2578V20.1836H25.2578ZM64.875 29.0781L64.9449 19.0784C64.8981 19.078 64.8514 19.078 64.8046 19.0784L64.875 29.0781ZM54.3047 20.4844L64.3043 20.5706C64.3048 20.5138 64.3048 20.4571 64.3043 20.4003L54.3047 20.4844ZM64.875 23.4922L65.0474 13.4937C64.9282 13.4916 64.809 13.4917 64.6898 13.4939L64.875 23.4922ZM85.9727 10.3867H95.9727C95.9727 4.86387 91.4955 0.386719 85.9727 0.386719V10.3867ZM85.9727 50.0039V60.0039C91.4955 60.0039 95.9727 55.5268 95.9727 50.0039H85.9727ZM79.0977 50.0039H69.0977C69.0977 55.5268 73.5748 60.0039 79.0977 60.0039V50.0039ZM79.0977 10.3867V0.386719C73.5748 0.386719 69.0977 4.86387 69.0977 10.3867H79.0977ZM52.2422 30.8828L52.1785 20.883C49.2832 20.9015 46.538 22.1739 44.6527 24.3713C42.7674 26.5688 41.927 29.4755 42.3489 32.34L52.2422 30.8828ZM77.0352 29.4648L86.9905 28.5208C86.7309 25.7835 85.3557 23.2739 83.1883 21.582C81.0209 19.8902 78.2524 19.1654 75.534 19.5782L77.0352 29.4648ZM77.5078 34.4492L79.6619 44.2145C84.5934 43.1266 87.9399 38.5327 87.4632 33.5052L77.5078 34.4492ZM68.6133 35.7812L67.6754 25.8253C62.5386 26.3092 58.6133 30.6217 58.6133 35.7812H68.6133ZM68.6133 48.8867V58.8867C74.1361 58.8867 78.6133 54.4096 78.6133 48.8867H68.6133ZM61.6953 48.8867H51.6953C51.6953 54.4096 56.1725 58.8867 61.6953 58.8867V48.8867ZM61.6953 36.2109H71.6953C71.6953 33.4875 70.5846 30.8819 68.6197 28.9962C66.6548 27.1104 64.0058 26.1075 61.2847 26.2194L61.6953 36.2109ZM53.0586 36.4258L43.1653 37.8829C43.8973 42.8527 48.2026 46.5081 53.2252 46.4244L53.0586 36.4258ZM64.875 11.8047V21.8047C66.0783 21.8047 66.4308 22.1553 66.2685 22.025C66.1736 21.9488 65.9776 21.756 65.8097 21.418C65.6355 21.0671 65.5742 20.7239 65.5742 20.4844H75.5742L85.5742 20.4844C85.5742 7.90986 74.3804 1.80469 64.875 1.80469V11.8047ZM75.5742 20.4844H65.5742C65.5742 20.174 65.6529 19.8015 65.828 19.4523C65.996 19.1175 66.1855 18.9351 66.2685 18.8685C66.4142 18.7515 66.0716 19.0862 64.9449 19.0784L64.875 29.0781L64.8051 39.0779C74.4037 39.145 85.5742 32.9062 85.5742 20.4844L75.5742 20.4844ZM64.875 29.0781L64.8046 19.0784C63.7137 19.0861 63.4126 18.7601 63.5891 18.9033C63.6871 18.9829 63.885 19.1796 64.0554 19.5264C64.2327 19.8872 64.307 20.2644 64.3043 20.5706L54.3047 20.4844L44.3051 20.3982C44.1978 32.8416 55.338 39.1455 64.9454 39.0779L64.875 29.0781ZM54.3047 20.4844L64.3043 20.4003C64.3063 20.6351 64.2492 20.9824 64.0732 21.3443C63.9032 21.6939 63.699 21.9009 63.5891 21.9902C63.396 22.147 63.7068 21.8047 64.875 21.8047V11.8047V1.80469C55.36 1.80469 44.1992 7.97463 44.305 20.5684L54.3047 20.4844ZM64.875 17.3047V7.30469C62.5071 7.30469 59.1039 7.77788 56.0481 10.058C52.5448 12.6719 50.9219 16.5925 50.9219 20.4844H60.9219H70.9219C70.9219 21.1895 70.7859 22.2108 70.2553 23.3341C69.7123 24.4835 68.9069 25.4172 68.0086 26.0875C66.3492 27.3256 64.9225 27.3047 64.875 27.3047V17.3047ZM60.9219 20.4844H50.9219C50.9219 24.5178 52.7096 28.4068 56.21 30.9109C59.2632 33.0951 62.6395 33.5353 65.0602 33.4905L64.875 23.4922L64.6898 13.4939C64.7902 13.492 66.1899 13.4596 67.8466 14.6447C68.7427 15.2858 69.587 16.207 70.1732 17.3899C70.752 18.5577 70.9219 19.6605 70.9219 20.4844H60.9219ZM64.875 23.4922L64.7026 33.4907C67.0822 33.5317 70.4569 33.1395 73.5382 31.0324C77.1341 28.5734 79.043 24.6442 79.043 20.4844L69.043 20.4844H59.043C59.043 19.6219 59.2263 18.471 59.8453 17.2648C60.4708 16.046 61.3554 15.1343 62.2489 14.5233C63.0996 13.9416 63.8563 13.6971 64.298 13.5937C64.7422 13.4897 65.0131 13.4931 65.0474 13.4937L64.875 23.4922ZM69.043 20.4844L79.043 20.4844C79.043 16.4737 77.3099 12.5059 73.7003 9.93138C70.6116 7.72842 67.2046 7.30469 64.875 7.30469V17.3047V27.3047C64.8619 27.3047 64.5965 27.3058 64.1523 27.1948C63.7073 27.0835 62.9402 26.8228 62.0868 26.2141C61.187 25.5723 60.3403 24.6449 59.7591 23.4568C59.1902 22.2936 59.043 21.2252 59.043 20.4844H69.043ZM85.9727 10.3867H75.9727V50.0039H85.9727H95.9727V10.3867H85.9727ZM85.9727 50.0039V40.0039H79.0977V50.0039V60.0039H85.9727V50.0039ZM79.0977 50.0039H89.0977V10.3867H79.0977H69.0977V50.0039H79.0977ZM79.0977 10.3867V20.3867H85.9727V10.3867V0.386719L79.0977 0.386719V10.3867ZM52.2422 30.8828L52.3059 40.8826C58.9741 40.8401 69.5106 40.7219 78.5363 39.3515L77.0352 29.4648L75.534 19.5782C68.1456 20.7 59.0025 20.8396 52.1785 20.883L52.2422 30.8828ZM77.0352 29.4648L67.0798 30.4089L67.5525 35.3933L77.5078 34.4492L87.4632 33.5052L86.9905 28.5208L77.0352 29.4648ZM77.5078 34.4492L75.3537 24.684C72.9565 25.2128 70.3803 25.5705 67.6754 25.8253L68.6133 35.7812L69.5512 45.7372C72.7759 45.4334 76.2154 44.9747 79.6619 44.2145L77.5078 34.4492ZM68.6133 35.7812H58.6133V48.8867H68.6133H78.6133V35.7812H68.6133ZM68.6133 48.8867V38.8867H61.6953V48.8867V58.8867H68.6133V48.8867ZM61.6953 48.8867H71.6953V36.2109H61.6953H51.6953V48.8867H61.6953ZM61.6953 36.2109L61.2847 26.2194C58.2932 26.3423 55.4999 26.3837 52.8919 26.4272L53.0586 36.4258L53.2252 46.4244C55.7736 46.3819 58.824 46.3374 62.1059 46.2025L61.6953 36.2109ZM53.0586 36.4258L62.9519 34.9686L62.1355 29.4257L52.2422 30.8828L42.3489 32.34L43.1653 37.8829L53.0586 36.4258ZM123.785 10.3008H133.785C133.785 4.77793 129.308 0.300781 123.785 0.300781V10.3008ZM123.785 50.0469V60.0469C129.308 60.0469 133.785 55.5697 133.785 50.0469H123.785ZM116.781 50.0469H106.781C106.781 55.5697 111.258 60.0469 116.781 60.0469V50.0469ZM116.781 10.3008V0.300781C111.258 0.300781 106.781 4.77793 106.781 10.3008L116.781 10.3008ZM111.754 14.3828H121.754C121.754 8.85997 117.277 4.38281 111.754 4.38281V14.3828ZM93.4922 43.6445L85.1108 49.0991C87.8282 53.2747 93.2047 54.8131 97.7196 52.707L93.4922 43.6445ZM89.9688 38.2305L85.6694 29.2019C83.0669 30.4412 81.1257 32.7432 80.3437 35.5177C79.5618 38.2921 80.0151 41.2691 81.5874 43.685L89.9688 38.2305ZM104.75 19.7539L114.694 20.8101C114.994 17.99 114.082 15.1753 112.185 13.0667C110.289 10.9581 107.586 9.75391 104.75 9.75391V19.7539ZM92.2461 19.7539H82.2461C82.2461 25.2768 86.7232 29.7539 92.2461 29.7539V19.7539ZM92.2461 14.3828V4.38281C86.7232 4.38281 82.2461 8.85997 82.2461 14.3828H92.2461ZM123.785 10.3008H113.785V50.0469H123.785H133.785V10.3008H123.785ZM123.785 50.0469V40.0469H116.781V50.0469V60.0469H123.785V50.0469ZM116.781 50.0469H126.781V10.3008H116.781L106.781 10.3008V50.0469H116.781ZM116.781 10.3008V20.3008H123.785V10.3008V0.300781L116.781 0.300781V10.3008ZM111.754 14.3828H101.754C101.754 19.7573 100.976 23.4328 99.4097 26.2495C97.9272 28.9162 95.173 31.826 89.2648 34.582L93.4922 43.6445L97.7196 52.707C106.55 48.5881 112.926 43.0975 116.89 35.9673C120.771 28.9871 121.754 21.4692 121.754 14.3828H111.754ZM93.4922 43.6445L101.874 38.19L98.3501 32.7759L89.9688 38.2305L81.5874 43.685L85.1108 49.0991L93.4922 43.6445ZM89.9688 38.2305L94.2681 47.2591C100.048 44.5069 104.995 41.1264 108.622 36.4978C112.36 31.7282 114.1 26.399 114.694 20.8101L104.75 19.7539L94.8059 18.6977C94.5187 21.4018 93.8314 22.9475 92.8802 24.1614C91.8185 25.5161 89.8156 27.2275 85.6694 29.2019L89.9688 38.2305ZM104.75 19.7539V9.75391H92.2461V19.7539V29.7539H104.75V19.7539ZM92.2461 19.7539H102.246V14.3828H92.2461H82.2461V19.7539H92.2461ZM92.2461 14.3828V24.3828H111.754V14.3828V4.38281L92.2461 4.38281V14.3828ZM154.723 14.125H164.723C164.723 8.60215 160.245 4.125 154.723 4.125V14.125ZM154.723 24.4805H144.723C144.723 30.0033 149.2 34.4805 154.723 34.4805V24.4805ZM157.387 24.4805V34.4805C162.91 34.4805 167.387 30.0033 167.387 24.4805H157.387ZM157.387 10.7734V0.773437C151.864 0.773437 147.387 5.25059 147.387 10.7734H157.387ZM163.875 10.7734L173.875 10.7734C173.875 5.25059 169.398 0.773437 163.875 0.773437V10.7734ZM163.875 48.3281V58.3281C169.398 58.3281 173.875 53.851 173.875 48.3281H163.875ZM157.387 48.3281H147.387C147.387 53.851 151.864 58.3281 157.387 58.3281V48.3281ZM157.387 29.8945H167.387C167.387 24.3717 162.91 19.8945 157.387 19.8945V29.8945ZM154.723 29.8945V19.8945C149.2 19.8945 144.723 24.3717 144.723 29.8945H154.723ZM154.723 40.5508V50.5508C160.245 50.5508 164.723 46.0736 164.723 40.5508H154.723ZM138.566 40.5508H128.566C128.566 46.0736 133.044 50.5508 138.566 50.5508V40.5508ZM138.566 14.125V4.125C133.044 4.125 128.566 8.60215 128.566 14.125H138.566ZM145.012 19.4961V9.49609C139.489 9.49609 135.012 13.9732 135.012 19.4961H145.012ZM145.012 35.1797L135.012 35.1797C135.012 40.7025 139.489 45.1797 145.012 45.1797V35.1797ZM148.32 35.1797V45.1797C153.843 45.1797 158.32 40.7025 158.32 35.1797H148.32ZM148.32 19.4961H158.32C158.32 13.9732 153.843 9.49609 148.32 9.49609V19.4961ZM172.34 10.3008L182.34 10.3008C182.34 4.77793 177.863 0.300781 172.34 0.300781V10.3008ZM172.34 50.0469V60.0469C177.863 60.0469 182.34 55.5697 182.34 50.0469H172.34ZM165.766 50.0469H155.766C155.766 55.5697 160.243 60.0469 165.766 60.0469V50.0469ZM165.766 10.3008V0.300781C160.243 0.300781 155.766 4.77793 155.766 10.3008H165.766ZM154.723 14.125H144.723V24.4805H154.723H164.723V14.125H154.723ZM154.723 24.4805V34.4805H157.387V24.4805V14.4805H154.723V24.4805ZM157.387 24.4805H167.387V10.7734H157.387H147.387V24.4805H157.387ZM157.387 10.7734V20.7734H163.875V10.7734V0.773437H157.387V10.7734ZM163.875 10.7734H153.875V48.3281H163.875H173.875V10.7734L163.875 10.7734ZM163.875 48.3281V38.3281H157.387V48.3281V58.3281H163.875V48.3281ZM157.387 48.3281H167.387V29.8945H157.387H147.387V48.3281H157.387ZM157.387 29.8945V19.8945H154.723V29.8945V39.8945H157.387V29.8945ZM154.723 29.8945H144.723V40.5508H154.723H164.723V29.8945H154.723ZM154.723 40.5508V30.5508L138.566 30.5508V40.5508V50.5508L154.723 50.5508V40.5508ZM138.566 40.5508L148.566 40.5508V14.125H138.566H128.566V40.5508H138.566ZM138.566 14.125V24.125H154.723V14.125V4.125H138.566V14.125ZM145.012 19.4961H135.012V35.1797L145.012 35.1797H155.012V19.4961H145.012ZM145.012 35.1797V45.1797H148.32V35.1797V25.1797H145.012V35.1797ZM148.32 35.1797H158.32V19.4961H148.32H138.32V35.1797L148.32 35.1797ZM148.32 19.4961V9.49609H145.012V19.4961V29.4961H148.32V19.4961ZM172.34 10.3008H162.34V50.0469H172.34H182.34V10.3008L172.34 10.3008ZM172.34 50.0469V40.0469H165.766V50.0469V60.0469H172.34V50.0469ZM165.766 50.0469H175.766V10.3008L165.766 10.3008H155.766V50.0469H165.766ZM165.766 10.3008V20.3008H172.34V10.3008V0.300781H165.766V10.3008ZM209.25 10.3008H219.25C219.25 4.77793 214.773 0.300781 209.25 0.300781V10.3008ZM209.25 50.1758V60.1758C214.773 60.1758 219.25 55.6986 219.25 50.1758H209.25ZM202.289 50.1758H192.289C192.289 55.6986 196.766 60.1758 202.289 60.1758V50.1758ZM202.289 10.3008V0.300781C196.766 0.300781 192.289 4.77793 192.289 10.3008H202.289ZM187.422 12.9648L187.352 22.9646C187.399 22.9649 187.446 22.9649 187.493 22.9646L187.422 12.9648ZM187.422 19.1953L187.252 29.1939C187.369 29.1959 187.487 29.1958 187.604 29.1937L187.422 19.1953ZM209.25 10.3008H199.25V50.1758H209.25H219.25V10.3008H209.25ZM209.25 50.1758V40.1758H202.289V50.1758V60.1758H209.25V50.1758ZM202.289 50.1758H212.289V10.3008H202.289H192.289V50.1758H202.289ZM202.289 10.3008V20.3008L209.25 20.3008V10.3008V0.300781H202.289V10.3008ZM187.422 12.9648L187.493 22.9646C187.425 22.9651 187.255 22.9413 187.08 22.8516C186.918 22.7688 186.927 22.7206 187.048 22.8789C187.318 23.2335 188.035 24.5342 188.035 27.2734H198.035L208.035 27.2734C208.035 21.2471 206.474 15.372 202.953 10.7529C199.305 5.96898 193.773 2.91955 187.351 2.9651L187.422 12.9648ZM198.035 27.2734H188.035C188.035 30.1036 187.305 31.4257 187.036 31.7811C186.915 31.9399 186.904 31.8948 187.058 31.8154C187.224 31.7301 187.377 31.7109 187.422 31.7109V41.7109V51.7109C193.795 51.7109 199.314 48.6842 202.965 43.8741C206.488 39.2345 208.035 33.3378 208.035 27.2734L198.035 27.2734ZM187.422 41.7109V31.7109C187.4 31.7109 187.505 31.7143 187.643 31.7838C187.771 31.8487 187.752 31.8823 187.633 31.7272C187.367 31.3823 186.637 30.0846 186.637 27.2734H176.637H166.637C166.637 33.3568 168.205 39.2778 171.785 43.928C175.498 48.7506 181.06 51.7109 187.422 51.7109V41.7109ZM176.637 27.2734H186.637C186.637 24.5534 187.354 23.277 187.62 22.9328C187.74 22.7782 187.756 22.8147 187.621 22.8829C187.56 22.9135 187.494 22.9371 187.432 22.9515C187.37 22.9657 187.339 22.9645 187.352 22.9646L187.422 12.9648L187.491 2.96509C181.082 2.92058 175.507 5.90229 171.798 10.699C168.218 15.3284 166.637 21.2278 166.637 27.2734H176.637ZM187.422 19.1953L187.591 9.19675C181.96 9.1013 177.762 12.3754 175.588 16.4444C173.747 19.8908 173.297 23.8393 173.297 27.2734H183.297H193.297C193.297 26.3567 193.365 25.7905 193.418 25.5062C193.474 25.2001 193.48 25.3974 193.229 25.8672C192.963 26.3657 192.337 27.2911 191.123 28.073C189.845 28.8963 188.448 29.2141 187.252 29.1939L187.422 19.1953ZM183.297 27.2734H173.297C173.297 30.7279 173.741 34.6952 175.596 38.1549C177.811 42.2844 181.986 45.3945 187.422 45.3945V35.3945V25.3945C188.532 25.3945 189.868 25.6973 191.115 26.499C192.311 27.2681 192.943 28.1839 193.221 28.7026C193.48 29.1854 193.476 29.3936 193.419 29.0857C193.366 28.7985 193.297 28.2202 193.297 27.2734H183.297ZM187.422 35.3945V45.3945C193.021 45.3945 197.072 42.0302 199.148 38.0994C200.947 34.6934 201.418 30.7814 201.418 27.2734H191.418H181.418C181.418 28.2047 181.348 28.7814 181.294 29.0732C181.236 29.385 181.227 29.207 181.464 28.758C181.713 28.2873 182.308 27.3859 183.48 26.6013C184.72 25.7711 186.13 25.3945 187.422 25.3945V35.3945ZM191.418 27.2734H201.418C201.418 23.7861 200.941 19.8922 199.156 16.4998C197.126 12.6401 193.047 9.09139 187.24 9.19697L187.422 19.1953L187.604 29.1937C186.218 29.2189 184.743 28.8225 183.472 27.9705C182.284 27.1731 181.693 26.2622 181.456 25.8118C181.227 25.3758 181.238 25.2086 181.296 25.5188C181.349 25.8078 181.418 26.3723 181.418 27.2734H191.418ZM234.215 13.9102L244.215 13.9439C244.224 11.2859 243.174 8.73372 241.298 6.85104C239.422 4.96837 236.873 3.91016 234.215 3.91016V13.9102ZM216.898 44.418L208.779 50.2557C211.699 54.3172 217.172 55.596 221.589 53.2495L216.898 44.418ZM213.16 39.2187L208.409 30.4194C205.879 31.7854 204.06 34.1743 203.415 36.9762C202.77 39.7782 203.363 42.7221 205.041 45.0565L213.16 39.2187ZM224.547 29.207L233.211 34.2C235.076 30.9633 234.982 26.9568 232.966 23.8116C230.951 20.6663 227.35 18.9067 223.63 19.2491L224.547 29.207ZM214.277 30.1523L204.376 31.5562C205.125 36.8356 209.884 40.599 215.194 40.1102L214.277 30.1523ZM213.461 24.3945L212.94 14.4081C210.138 14.5541 207.526 15.8711 205.742 18.0374C203.958 20.2036 203.166 23.0199 203.56 25.7984L213.461 24.3945ZM226.652 23.707L227.173 33.6935C231.604 33.4625 235.353 30.3395 236.38 26.0232L226.652 23.707ZM227.34 19.3672L237.293 20.3348C237.566 17.5276 236.641 14.7356 234.745 12.6469C232.85 10.5583 230.16 9.36719 227.34 9.36719V19.3672ZM215.652 19.3672H205.652C205.652 24.89 210.13 29.3672 215.652 29.3672V19.3672ZM215.652 13.9102V3.91016C210.13 3.91016 205.652 8.38731 205.652 13.9102H215.652ZM247.535 10.3008H257.535C257.535 4.77793 253.058 0.300781 247.535 0.300781V10.3008ZM247.535 50.0469V60.0469C253.058 60.0469 257.535 55.5697 257.535 50.0469H247.535ZM240.66 50.0469H230.66C230.66 55.5697 235.137 60.0469 240.66 60.0469V50.0469ZM240.66 30.7539H250.66C250.66 25.2311 246.183 20.7539 240.66 20.7539V30.7539ZM234.172 30.7539H224.172C224.172 36.2768 228.649 40.7539 234.172 40.7539V30.7539ZM234.172 25.168V15.168C228.649 15.168 224.172 19.6451 224.172 25.168H234.172ZM240.66 25.168V35.168C246.183 35.168 250.66 30.6908 250.66 25.168H240.66ZM240.66 10.3008V0.300781C235.137 0.300781 230.66 4.77793 230.66 10.3008L240.66 10.3008ZM234.215 13.9102L224.215 13.8764C224.195 19.6387 223.527 23.5478 222.009 26.6114C220.603 29.4518 217.989 32.5155 212.208 35.5865L216.898 44.418L221.589 53.2495C230.288 48.629 236.311 42.7982 239.932 35.4873C243.442 28.3994 244.191 20.9004 244.215 13.9439L234.215 13.9102ZM216.898 44.418L225.018 38.5802L221.279 33.381L213.16 39.2187L205.041 45.0565L208.779 50.2557L216.898 44.418ZM213.16 39.2187L217.911 48.0181C224.548 44.4345 229.785 40.1448 233.211 34.2L224.547 29.207L215.883 24.214C214.926 25.8747 213.073 27.9014 208.409 30.4194L213.16 39.2187ZM224.547 29.207L223.63 19.2491L213.361 20.1944L214.277 30.1523L215.194 40.1102L225.464 39.1649L224.547 29.207ZM214.277 30.1523L224.178 28.7485L223.362 22.9907L213.461 24.3945L203.56 25.7984L204.376 31.5562L214.277 30.1523ZM213.461 24.3945L213.981 34.381L227.173 33.6935L226.652 23.707L226.132 13.7206L212.94 14.4081L213.461 24.3945ZM226.652 23.707L236.38 26.0232C236.838 24.1004 237.113 22.1863 237.293 20.3348L227.34 19.3672L217.387 18.3995C217.266 19.6418 217.111 20.6066 216.924 21.3908L226.652 23.707ZM227.34 19.3672V9.36719H215.652V19.3672V29.3672H227.34V19.3672ZM215.652 19.3672H225.652V13.9102H215.652H205.652V19.3672H215.652ZM215.652 13.9102V23.9102H234.215V13.9102V3.91016L215.652 3.91016V13.9102ZM247.535 10.3008H237.535V50.0469H247.535H257.535V10.3008H247.535ZM247.535 50.0469V40.0469H240.66V50.0469V60.0469H247.535V50.0469ZM240.66 50.0469H250.66V30.7539H240.66H230.66V50.0469H240.66ZM240.66 30.7539V20.7539H234.172V30.7539V40.7539H240.66V30.7539ZM234.172 30.7539H244.172V25.168H234.172H224.172V30.7539H234.172ZM234.172 25.168V35.168H240.66V25.168V15.168H234.172V25.168ZM240.66 25.168H250.66V10.3008H240.66L230.66 10.3008V25.168H240.66ZM240.66 10.3008V20.3008H247.535V10.3008V0.300781L240.66 0.300781V10.3008ZM273.66 13.5234H283.66C283.66 8.00059 279.183 3.52344 273.66 3.52344V13.5234ZM273.66 18.8945V28.8945C279.183 28.8945 283.66 24.4174 283.66 18.8945H273.66ZM251.875 18.8945H241.875C241.875 24.4174 246.352 28.8945 251.875 28.8945V18.8945ZM251.875 13.5234V3.52344C246.352 3.52344 241.875 8.00059 241.875 13.5234H251.875ZM259.695 13.5234V23.5234C265.218 23.5234 269.695 19.0463 269.695 13.5234H259.695ZM259.695 10V0C254.172 0 249.695 4.47715 249.695 10H259.695ZM266.57 10H276.57C276.57 4.47715 272.093 0 266.57 0V10ZM266.57 13.5234H256.57C256.57 19.0463 261.047 23.5234 266.57 23.5234V13.5234ZM263.047 19.7539L263.124 9.75421C263.073 9.75381 263.021 9.75381 262.969 9.75421L263.047 19.7539ZM253.551 27.2734L263.55 27.3696C263.551 27.3049 263.551 27.2401 263.55 27.1754L253.551 27.2734ZM263.047 29.6367L263.274 19.6393C263.123 19.6359 262.971 19.6359 262.82 19.6393L263.047 29.6367ZM285.562 10.3008H295.562C295.562 4.77793 291.085 0.300781 285.562 0.300781V10.3008ZM285.562 35.4375V45.4375C291.085 45.4375 295.562 40.9603 295.562 35.4375H285.562ZM278.688 35.4375H268.688C268.688 40.9603 273.165 45.4375 278.688 45.4375V35.4375ZM278.688 32.043H288.688C288.688 26.5201 284.21 22.043 278.688 22.043V32.043ZM274.305 32.043H264.305C264.305 37.5658 268.782 42.043 274.305 42.043V32.043ZM274.305 26.5859V16.5859C268.782 16.5859 264.305 21.0631 264.305 26.5859H274.305ZM278.688 26.5859V36.5859C284.21 36.5859 288.688 32.1088 288.688 26.5859H278.688ZM278.688 23.9648H288.688C288.688 18.442 284.21 13.9648 278.688 13.9648V23.9648ZM274.391 23.9648H264.391C264.391 29.4877 268.868 33.9648 274.391 33.9648V23.9648ZM274.391 18.5078V8.50781C268.868 8.50781 264.391 12.985 264.391 18.5078H274.391ZM278.688 18.5078V28.5078C284.21 28.5078 288.688 24.0307 288.688 18.5078H278.688ZM278.688 10.3008V0.300781C273.165 0.300781 268.688 4.77793 268.688 10.3008H278.688ZM285.777 43.043L295.777 43.141C295.777 43.076 295.777 43.0109 295.777 42.9459L285.777 43.043ZM265.195 43.043L275.19 43.3553C275.197 43.1503 275.197 42.9451 275.191 42.7401L265.195 43.043ZM273.66 13.5234H263.66V18.8945H273.66H283.66V13.5234H273.66ZM273.66 18.8945V8.89453H251.875V18.8945V28.8945H273.66V18.8945ZM251.875 18.8945H261.875V13.5234H251.875H241.875V18.8945H251.875ZM251.875 13.5234V23.5234H259.695V13.5234V3.52344L251.875 3.52344V13.5234ZM259.695 13.5234H269.695V10H259.695H249.695V13.5234H259.695ZM259.695 10V20H266.57V10V0L259.695 0V10ZM266.57 10H256.57V13.5234H266.57H276.57V10H266.57ZM266.57 13.5234V23.5234H273.66V13.5234V3.52344H266.57V13.5234ZM263.047 19.7539L262.969 29.7536C263.982 29.7615 264.146 30.0488 263.816 29.7931C263.631 29.6498 263.325 29.3511 263.066 28.8509C262.797 28.3319 262.672 27.7705 262.672 27.2734H272.672H282.672C282.672 15.1162 271.557 9.81957 263.124 9.75421L263.047 19.7539ZM272.672 27.2734H262.672C262.672 26.8277 262.784 26.2695 263.067 25.7222C263.342 25.1919 263.676 24.8643 263.894 24.6991C264.279 24.4075 264.134 24.707 263.047 24.707V34.707V44.707C267.503 44.707 272.171 43.5242 275.982 40.6329C279.984 37.5968 282.672 32.8829 282.672 27.2734H272.672ZM263.047 34.707V24.707C261.959 24.707 261.871 24.408 262.309 24.7454C262.553 24.9336 262.899 25.2853 263.173 25.8322C263.455 26.3932 263.554 26.9478 263.55 27.3696L253.551 27.2734L243.551 27.1773C243.498 32.7399 246.087 37.494 250.1 40.5866C253.911 43.5237 258.592 44.707 263.047 44.707V34.707ZM253.551 27.2734L263.55 27.1754C263.555 27.6491 263.442 28.2076 263.175 28.7409C262.915 29.2578 262.597 29.5802 262.387 29.7459C262.004 30.0472 262.112 29.7615 263.124 29.7536L263.047 19.7539L262.969 9.75421C254.452 9.82024 243.432 15.2086 243.551 27.3715L253.551 27.2734ZM263.047 24.8672V14.8672C261.074 14.8672 257.854 15.205 254.895 17.365C251.4 19.9163 249.953 23.7423 249.953 27.2734H259.953H269.953C269.953 28.0534 269.81 29.1851 269.228 30.4292C268.627 31.7141 267.721 32.7644 266.687 33.5188C264.802 34.8946 263.13 34.8672 263.047 34.8672V24.8672ZM259.953 27.2734H249.953C249.953 30.7382 251.345 34.6735 255.002 37.2696C258.062 39.4426 261.363 39.6776 263.274 39.6341L263.047 29.6367L262.82 19.6393C262.84 19.6388 264.594 19.5516 266.58 20.9619C267.679 21.7423 268.621 22.8331 269.235 24.1504C269.824 25.4139 269.953 26.5425 269.953 27.2734H259.953ZM263.047 29.6367L262.82 39.6341C264.764 39.6783 267.911 39.4247 270.882 37.4718C274.476 35.1089 276.312 31.2511 276.312 27.2734H266.312H256.312C256.312 26.3503 256.505 25.0929 257.191 23.7695C257.889 22.4251 258.883 21.4252 259.895 20.7597C261.706 19.5694 263.22 19.6381 263.274 19.6393L263.047 29.6367ZM266.312 27.2734H276.312C276.312 23.2351 274.418 19.4752 270.989 17.157C268.113 15.2133 265.039 14.8672 263.047 14.8672V24.8672V34.8672C262.945 34.8672 261.504 34.8864 259.789 33.7268C258.838 33.084 257.882 32.12 257.199 30.8108C256.522 29.5104 256.312 28.2498 256.312 27.2734H266.312ZM285.562 10.3008H275.562V35.4375H285.562H295.562V10.3008H285.562ZM285.562 35.4375V25.4375H278.688V35.4375V45.4375H285.562V35.4375ZM278.688 35.4375H288.688V32.043H278.688H268.688V35.4375H278.688ZM278.688 32.043V22.043H274.305V32.043V42.043H278.688V32.043ZM274.305 32.043H284.305V26.5859H274.305H264.305V32.043H274.305ZM274.305 26.5859V36.5859H278.688V26.5859V16.5859H274.305V26.5859ZM278.688 26.5859H288.688V23.9648H278.688H268.688V26.5859H278.688ZM278.688 23.9648V13.9648H274.391V23.9648V33.9648H278.688V23.9648ZM274.391 23.9648H284.391V18.5078H274.391H264.391V23.9648H274.391ZM274.391 18.5078V28.5078H278.688V18.5078V8.50781H274.391V18.5078ZM278.688 18.5078H288.688V10.3008H278.688H268.688V18.5078H278.688ZM278.688 10.3008V20.3008H285.562V10.3008V0.300781H278.688V10.3008ZM271.812 35.9102V45.9102C273.439 45.9102 274.745 46.0402 275.737 46.2279C276.749 46.4195 277.276 46.6409 277.45 46.7293C277.628 46.82 277.215 46.6546 276.719 45.979C276.151 45.2064 275.788 44.1785 275.778 43.1401L285.777 43.043L295.777 42.9459C295.708 35.8641 291.101 31.2356 286.521 28.9045C282.168 26.6893 276.935 25.9102 271.812 25.9102V35.9102ZM285.777 43.043L275.778 42.9449C275.788 41.8734 276.166 40.8296 276.738 40.0555C277.238 39.3799 277.651 39.2174 277.466 39.3111C277.287 39.4015 276.755 39.6234 275.74 39.815C274.746 40.0028 273.439 40.1328 271.812 40.1328V50.1328V60.1328C276.937 60.1328 282.161 59.3529 286.505 57.1518C291.055 54.8464 295.707 50.2401 295.777 43.141L285.777 43.043ZM271.812 50.1328V40.1328C270.186 40.1328 268.879 40.0028 267.886 39.8151C266.872 39.6236 266.344 39.4023 266.173 39.3151C265.994 39.2244 266.422 39.396 266.932 40.0918C267.516 40.8897 267.891 41.9578 267.891 43.043H257.891H247.891C247.891 50.1898 252.561 54.8339 257.117 57.1477C261.462 59.3539 266.691 60.1328 271.812 60.1328V50.1328ZM257.891 43.043H267.891C267.891 44.0947 267.53 45.1464 266.951 45.9427C266.445 46.6384 266.016 46.813 266.188 46.7252C266.355 46.64 266.878 46.4193 267.89 46.2278C268.881 46.0402 270.186 45.9102 271.812 45.9102V35.9102V25.9102C266.693 25.9102 261.455 26.6883 257.102 28.9086C252.514 31.2483 247.891 35.9145 247.891 43.043H257.891ZM271.812 41.1094V31.1094C269.491 31.1094 266.645 31.2114 264.133 31.9099C262.876 32.2594 260.741 33.0081 258.811 34.7841C256.499 36.912 255.098 39.9678 255.2 43.3459L265.195 43.043L275.191 42.7401C275.226 43.8968 275.031 45.2028 274.468 46.5093C273.91 47.8056 273.122 48.7947 272.354 49.5012C270.963 50.7817 269.647 51.1356 269.491 51.1789C269.181 51.2652 269.666 51.1094 271.812 51.1094V41.1094ZM265.195 43.043L255.2 42.7306C255.092 46.1968 256.571 49.2395 258.841 51.3112C260.743 53.0471 262.839 53.7939 264.09 54.1477C266.603 54.8587 269.442 54.9766 271.812 54.9766V44.9766V34.9766C269.715 34.9766 269.224 34.8152 269.534 34.9031C269.684 34.9453 270.961 35.2947 272.324 36.5391C273.076 37.2255 273.869 38.2008 274.439 39.4978C275.017 40.8119 275.228 42.1466 275.19 43.3553L265.195 43.043ZM271.812 44.9766V54.9766C274.15 54.9766 276.97 54.8583 279.481 54.137C280.745 53.7743 282.8 53.0237 284.672 51.3196C286.874 49.3144 288.344 46.3968 288.344 43.043H278.344H268.344C268.344 41.8718 268.582 40.5986 269.152 39.3546C269.715 38.1258 270.478 37.1946 271.207 36.5308C272.539 35.3181 273.784 34.965 273.962 34.9137C274.304 34.8156 273.858 34.9766 271.812 34.9766V44.9766ZM278.344 43.043H288.344C288.344 39.7697 286.946 36.836 284.702 34.7757C282.802 33.0317 280.708 32.2787 279.437 31.9203C276.926 31.2115 274.1 31.1094 271.812 31.1094V41.1094V51.1094C273.908 51.1094 274.348 51.265 274.006 51.1686C273.82 51.1163 272.538 50.7581 271.177 49.5096C270.433 48.826 269.674 47.8807 269.121 46.6511C268.565 45.4123 268.344 44.1648 268.344 43.043H278.344Z" fill="white" mask="url(#path-1-outside-1_6524_1746)"/>
</g>
<defs>
<filter id="filter0_d_6524_1746" x="0" y="0" width="299.777" height="68.1758" filterUnits="userSpaceOnUse" color-interpolation-filters="sRGB">
<feFlood flood-opacity="0" result="BackgroundImageFix"/>
<feColorMatrix in="SourceAlpha" type="matrix" values="0 0 0 0 0 0 0 0 0 0 0 0 0 0 0 0 0 0 127 0" result="hardAlpha"/>
<feOffset dy="4"/>
<feGaussianBlur stdDeviation="2"/>
<feComposite in2="hardAlpha" operator="out"/>
<feColorMatrix type="matrix" values="0 0 0 0 0 0 0 0 0 0 0 0 0 0 0 0 0 0 0.07 0"/>
<feBlend mode="normal" in2="BackgroundImageFix" result="effect1_dropShadow_6524_1746"/>
<feBlend mode="normal" in="SourceGraphic" in2="effect1_dropShadow_6524_1746" result="shape"/>
</filter>
</defs>
</svg>
