<svg width="389" height="69" viewBox="0 0 389 69" fill="none" xmlns="http://www.w3.org/2000/svg">
<g filter="url(#filter0_d_6524_1840)">
<mask id="path-1-outside-1_6524_1840" maskUnits="userSpaceOnUse" x="3.95703" y="-0.25" width="382" height="61" fill="black">
<rect fill="white" x="3.95703" y="-0.25" width="382" height="61"/>
<path d="M30.1133 16.4453C30.0703 20.8711 32.0469 25.2969 38.707 27.1875L35.0547 32.5156C31.0371 31.2695 28.3301 28.9062 26.6758 25.8984C24.957 29.4648 22.0781 32.2578 17.6953 33.6328L14 28.2617C21.0469 26.0273 23.1094 20.7852 23.1523 15.7148V12.4492H30.1133V16.4453ZM46.6562 10.2578V18.8945H51.5977V24.5664H46.6562V33.4609H39.7383V10.2578L46.6562 10.2578ZM33.4648 34.1484C41.7148 34.1055 47.043 37.1133 47.043 42.0977C47.043 47.168 41.7148 50.0898 33.4648 50.0898C24.957 50.0898 19.543 47.168 19.5859 42.0977C19.543 37.1133 24.957 34.1055 33.4648 34.1484ZM33.4648 39.4766C28.7812 39.4766 26.4609 40.293 26.4609 42.0977C26.4609 43.9883 28.7812 44.7188 33.4648 44.7188C38.0625 44.7188 40.2109 43.9883 40.2109 42.0977C40.2109 40.293 38.0625 39.4766 33.4648 39.4766ZM85.1133 10.3437V21.1719H89.668V26.7578H85.1133V37.0703H78.2383V10.3437H85.1133ZM71.3633 37.2852C80.1719 37.2852 85.1992 39.6055 85.1992 43.7305C85.1992 47.8984 80.1719 50.1328 71.3633 50.1328C62.4688 50.1328 57.4844 47.8984 57.4844 43.7305C57.4844 39.6055 62.4688 37.2852 71.3633 37.2852ZM71.3633 42.2266C66.25 42.2266 64.3594 42.6133 64.4023 43.7305C64.3594 44.8047 66.25 45.1914 71.3633 45.1484C76.3906 45.1914 78.2812 44.8047 78.2812 43.7305C78.2812 42.6133 76.3906 42.2266 71.3633 42.2266ZM52.2852 31.3555C55.0137 31.334 58.043 31.334 61.2227 31.2695V29.4648C57.0977 28.7773 54.6055 26.7793 54.6055 23.9648C54.6055 20.4414 58.5156 18.25 64.6172 18.25C70.6758 18.25 74.5859 20.4414 74.5859 23.9648C74.5859 26.7578 72.1367 28.7344 68.0977 29.4219V31.0117C71.041 30.8613 73.9844 30.6465 76.7773 30.2812L77.25 34.9219C68.8711 36.3398 59.9766 36.4258 52.9727 36.4258L52.2852 31.3555ZM75.918 12.75V17.7344H53.3594V12.75H61.2227V10H68.0977V12.75H75.918ZM64.6172 22.6328C62.3398 22.6758 61.1797 23.0625 61.1797 23.9648C61.1797 24.9531 62.3398 25.2969 64.6172 25.2969C66.8516 25.2969 67.9688 24.9531 68.0117 23.9648C67.9688 23.0625 66.8516 22.6758 64.6172 22.6328ZM124.73 10.2578V30.5391H117.855V27.2734H111.883V29.6797H92.418V11.8477H99.3359V15.8437H105.094V11.8477L111.883 11.8477V14.9414H117.855V10.2578H124.73ZM124.73 31.6992V43.1719H104.836V44.2891H125.676V49.6602H97.875V38.1445H117.855V36.9414H97.875V31.6992H124.73ZM99.3359 24.3516H105.094V20.957H99.3359V24.3516ZM111.883 22.1172H117.855V20.0117H111.883V22.1172ZM173.113 10.2578V50.0039H166.625V30.668H164.047V48.1992H157.773V10.8594H164.047V25.2109H166.625V10.2578H173.113ZM154.207 14.7266V20.2266H146.344V35.8242C149.395 35.7383 152.445 35.5449 155.797 34.9648L156.27 40.5078C151.371 41.4102 147.031 41.5391 142.348 41.5391L139.426 41.5391V14.7266H154.207ZM212.816 28.4336V33.7617H176.551V28.4336L212.816 28.4336ZM194.598 35.2227C203.234 35.2227 208.477 37.8867 208.52 42.6992C208.477 47.4258 203.234 50.0898 194.598 50.0898C185.832 50.0898 180.547 47.4258 180.547 42.6992C180.547 37.8867 185.832 35.2227 194.598 35.2227ZM194.598 40.4219C189.656 40.4219 187.551 41.0234 187.594 42.6992C187.551 44.2891 189.656 44.8906 194.598 44.8906C199.41 44.8906 201.602 44.2891 201.602 42.6992C201.602 41.0234 199.41 40.4219 194.598 40.4219ZM194.684 11.0312C203.492 11.0742 209.336 14.125 209.379 18.9805C209.336 23.8789 203.492 26.8867 194.684 26.9297C185.789 26.8867 179.902 23.8789 179.945 18.9805C179.902 14.125 185.789 11.0742 194.684 11.0312ZM194.684 16.3164C189.656 16.3594 187.078 17.0469 187.121 18.9805C187.078 20.8711 189.656 21.6016 194.684 21.6016C199.582 21.6016 202.246 20.8711 202.246 18.9805C202.246 17.0469 199.582 16.3594 194.684 16.3164ZM248.137 10.2578V50.1328H241.176V10.2578H248.137ZM226.309 12.9219C232.367 12.8789 236.922 18.4648 236.922 27.2305C236.922 36.125 232.367 41.668 226.309 41.668C220.121 41.668 215.523 36.125 215.523 27.2305C215.523 18.4648 220.121 12.8789 226.309 12.9219ZM226.309 19.1523C223.773 19.1094 222.184 21.7305 222.184 27.2305C222.184 32.8164 223.773 35.3516 226.309 35.3516C228.672 35.3516 230.305 32.8164 230.305 27.2305C230.305 21.7305 228.672 19.1094 226.309 19.1523ZM298.453 32.043V37.543H290.633V50.0039H283.629V37.543H276.797V50.0039H269.75V37.543H262.188V32.043H298.453ZM280.191 11.4609C288.828 11.418 295.016 15.0273 295.016 20.6133C295.016 26.0273 288.828 29.4648 280.191 29.4648C271.555 29.4648 265.453 26.0273 265.496 20.6133C265.453 15.0273 271.555 11.418 280.191 11.4609ZM280.191 16.918C275.422 16.918 272.586 18.0781 272.586 20.6133C272.586 22.9336 275.422 24.0508 280.191 24.0937C285.047 24.0508 287.84 22.9336 287.84 20.6133C287.84 18.0781 285.047 16.918 280.191 16.918ZM334.031 10.3437V39.1758H327.156V30.625H318.82C316.887 32.4512 314.266 33.5469 311.387 33.5469C305.328 33.5469 300.602 29.0352 300.645 23.0625C300.602 16.9609 305.328 12.4922 311.387 12.4922C314.287 12.4922 316.93 13.5879 318.863 15.457H327.156V10.3437H334.031ZM334.891 43.9453V49.4453H307.133V36.3398H314.008V43.9453H334.891ZM311.387 18.6367C308.895 18.5937 307.133 20.0977 307.176 23.0625C307.133 25.9414 308.895 27.4023 311.387 27.4453C313.664 27.4023 315.469 25.9414 315.512 23.0625C315.469 20.0977 313.664 18.5937 311.387 18.6367ZM321.828 25.168H327.156V20.9141H321.828C321.957 21.6016 322.043 22.3105 322.043 23.0625C322.043 23.793 321.957 24.502 321.828 25.168ZM370.039 10.3437V21.9453H374.98V27.5312H370.039V39.9492H363.121V10.3437L370.039 10.3437ZM361.703 14.082V19.4102H338.199V14.082H346.492V10.2578H353.41V14.082H361.703ZM349.93 20.3125C355.73 20.3125 359.855 23.5352 359.855 28.1758C359.855 32.8164 355.73 35.9531 349.93 35.9102C344.086 35.9531 339.918 32.8164 339.918 28.1758C339.918 23.5352 344.086 20.3125 349.93 20.3125ZM349.93 25.5117C347.953 25.5547 346.664 26.3711 346.664 28.1758C346.664 29.9805 347.953 30.7539 349.93 30.7539C351.949 30.7539 353.324 29.9805 353.324 28.1758C353.324 26.3711 351.949 25.5547 349.93 25.5117ZM371.199 43.9453V49.4453H343.699V37.7148H350.617V43.9453H371.199Z"/>
</mask>
<path d="M30.1133 16.4453C30.0703 20.8711 32.0469 25.2969 38.707 27.1875L35.0547 32.5156C31.0371 31.2695 28.3301 28.9062 26.6758 25.8984C24.957 29.4648 22.0781 32.2578 17.6953 33.6328L14 28.2617C21.0469 26.0273 23.1094 20.7852 23.1523 15.7148V12.4492H30.1133V16.4453ZM46.6562 10.2578V18.8945H51.5977V24.5664H46.6562V33.4609H39.7383V10.2578L46.6562 10.2578ZM33.4648 34.1484C41.7148 34.1055 47.043 37.1133 47.043 42.0977C47.043 47.168 41.7148 50.0898 33.4648 50.0898C24.957 50.0898 19.543 47.168 19.5859 42.0977C19.543 37.1133 24.957 34.1055 33.4648 34.1484ZM33.4648 39.4766C28.7812 39.4766 26.4609 40.293 26.4609 42.0977C26.4609 43.9883 28.7812 44.7188 33.4648 44.7188C38.0625 44.7188 40.2109 43.9883 40.2109 42.0977C40.2109 40.293 38.0625 39.4766 33.4648 39.4766ZM85.1133 10.3437V21.1719H89.668V26.7578H85.1133V37.0703H78.2383V10.3437H85.1133ZM71.3633 37.2852C80.1719 37.2852 85.1992 39.6055 85.1992 43.7305C85.1992 47.8984 80.1719 50.1328 71.3633 50.1328C62.4688 50.1328 57.4844 47.8984 57.4844 43.7305C57.4844 39.6055 62.4688 37.2852 71.3633 37.2852ZM71.3633 42.2266C66.25 42.2266 64.3594 42.6133 64.4023 43.7305C64.3594 44.8047 66.25 45.1914 71.3633 45.1484C76.3906 45.1914 78.2812 44.8047 78.2812 43.7305C78.2812 42.6133 76.3906 42.2266 71.3633 42.2266ZM52.2852 31.3555C55.0137 31.334 58.043 31.334 61.2227 31.2695V29.4648C57.0977 28.7773 54.6055 26.7793 54.6055 23.9648C54.6055 20.4414 58.5156 18.25 64.6172 18.25C70.6758 18.25 74.5859 20.4414 74.5859 23.9648C74.5859 26.7578 72.1367 28.7344 68.0977 29.4219V31.0117C71.041 30.8613 73.9844 30.6465 76.7773 30.2812L77.25 34.9219C68.8711 36.3398 59.9766 36.4258 52.9727 36.4258L52.2852 31.3555ZM75.918 12.75V17.7344H53.3594V12.75H61.2227V10H68.0977V12.75H75.918ZM64.6172 22.6328C62.3398 22.6758 61.1797 23.0625 61.1797 23.9648C61.1797 24.9531 62.3398 25.2969 64.6172 25.2969C66.8516 25.2969 67.9688 24.9531 68.0117 23.9648C67.9688 23.0625 66.8516 22.6758 64.6172 22.6328ZM124.73 10.2578V30.5391H117.855V27.2734H111.883V29.6797H92.418V11.8477H99.3359V15.8437H105.094V11.8477L111.883 11.8477V14.9414H117.855V10.2578H124.73ZM124.73 31.6992V43.1719H104.836V44.2891H125.676V49.6602H97.875V38.1445H117.855V36.9414H97.875V31.6992H124.73ZM99.3359 24.3516H105.094V20.957H99.3359V24.3516ZM111.883 22.1172H117.855V20.0117H111.883V22.1172ZM173.113 10.2578V50.0039H166.625V30.668H164.047V48.1992H157.773V10.8594H164.047V25.2109H166.625V10.2578H173.113ZM154.207 14.7266V20.2266H146.344V35.8242C149.395 35.7383 152.445 35.5449 155.797 34.9648L156.27 40.5078C151.371 41.4102 147.031 41.5391 142.348 41.5391L139.426 41.5391V14.7266H154.207ZM212.816 28.4336V33.7617H176.551V28.4336L212.816 28.4336ZM194.598 35.2227C203.234 35.2227 208.477 37.8867 208.52 42.6992C208.477 47.4258 203.234 50.0898 194.598 50.0898C185.832 50.0898 180.547 47.4258 180.547 42.6992C180.547 37.8867 185.832 35.2227 194.598 35.2227ZM194.598 40.4219C189.656 40.4219 187.551 41.0234 187.594 42.6992C187.551 44.2891 189.656 44.8906 194.598 44.8906C199.41 44.8906 201.602 44.2891 201.602 42.6992C201.602 41.0234 199.41 40.4219 194.598 40.4219ZM194.684 11.0312C203.492 11.0742 209.336 14.125 209.379 18.9805C209.336 23.8789 203.492 26.8867 194.684 26.9297C185.789 26.8867 179.902 23.8789 179.945 18.9805C179.902 14.125 185.789 11.0742 194.684 11.0312ZM194.684 16.3164C189.656 16.3594 187.078 17.0469 187.121 18.9805C187.078 20.8711 189.656 21.6016 194.684 21.6016C199.582 21.6016 202.246 20.8711 202.246 18.9805C202.246 17.0469 199.582 16.3594 194.684 16.3164ZM248.137 10.2578V50.1328H241.176V10.2578H248.137ZM226.309 12.9219C232.367 12.8789 236.922 18.4648 236.922 27.2305C236.922 36.125 232.367 41.668 226.309 41.668C220.121 41.668 215.523 36.125 215.523 27.2305C215.523 18.4648 220.121 12.8789 226.309 12.9219ZM226.309 19.1523C223.773 19.1094 222.184 21.7305 222.184 27.2305C222.184 32.8164 223.773 35.3516 226.309 35.3516C228.672 35.3516 230.305 32.8164 230.305 27.2305C230.305 21.7305 228.672 19.1094 226.309 19.1523ZM298.453 32.043V37.543H290.633V50.0039H283.629V37.543H276.797V50.0039H269.75V37.543H262.188V32.043H298.453ZM280.191 11.4609C288.828 11.418 295.016 15.0273 295.016 20.6133C295.016 26.0273 288.828 29.4648 280.191 29.4648C271.555 29.4648 265.453 26.0273 265.496 20.6133C265.453 15.0273 271.555 11.418 280.191 11.4609ZM280.191 16.918C275.422 16.918 272.586 18.0781 272.586 20.6133C272.586 22.9336 275.422 24.0508 280.191 24.0937C285.047 24.0508 287.84 22.9336 287.84 20.6133C287.84 18.0781 285.047 16.918 280.191 16.918ZM334.031 10.3437V39.1758H327.156V30.625H318.82C316.887 32.4512 314.266 33.5469 311.387 33.5469C305.328 33.5469 300.602 29.0352 300.645 23.0625C300.602 16.9609 305.328 12.4922 311.387 12.4922C314.287 12.4922 316.93 13.5879 318.863 15.457H327.156V10.3437H334.031ZM334.891 43.9453V49.4453H307.133V36.3398H314.008V43.9453H334.891ZM311.387 18.6367C308.895 18.5937 307.133 20.0977 307.176 23.0625C307.133 25.9414 308.895 27.4023 311.387 27.4453C313.664 27.4023 315.469 25.9414 315.512 23.0625C315.469 20.0977 313.664 18.5937 311.387 18.6367ZM321.828 25.168H327.156V20.9141H321.828C321.957 21.6016 322.043 22.3105 322.043 23.0625C322.043 23.793 321.957 24.502 321.828 25.168ZM370.039 10.3437V21.9453H374.98V27.5312H370.039V39.9492H363.121V10.3437L370.039 10.3437ZM361.703 14.082V19.4102H338.199V14.082H346.492V10.2578H353.41V14.082H361.703ZM349.93 20.3125C355.73 20.3125 359.855 23.5352 359.855 28.1758C359.855 32.8164 355.73 35.9531 349.93 35.9102C344.086 35.9531 339.918 32.8164 339.918 28.1758C339.918 23.5352 344.086 20.3125 349.93 20.3125ZM349.93 25.5117C347.953 25.5547 346.664 26.3711 346.664 28.1758C346.664 29.9805 347.953 30.7539 349.93 30.7539C351.949 30.7539 353.324 29.9805 353.324 28.1758C353.324 26.3711 351.949 25.5547 349.93 25.5117ZM371.199 43.9453V49.4453H343.699V37.7148H350.617V43.9453H371.199Z" fill="#11DCA9"/>
<path d="M30.1133 16.4453L40.1128 16.5424C40.1131 16.51 40.1133 16.4777 40.1133 16.4453H30.1133ZM38.707 27.1875L46.9552 32.8415C48.7752 30.1864 49.2058 26.8176 48.1122 23.7901C47.0186 20.7626 44.5345 18.4466 41.4378 17.5676L38.707 27.1875ZM35.0547 32.5156L32.0923 42.0668C36.2794 43.3654 40.8242 41.7855 43.3029 38.1696L35.0547 32.5156ZM26.6758 25.8984L35.4379 21.0793C33.6339 17.7992 30.1491 15.8014 26.407 15.9021C22.665 16.0027 19.2925 18.1848 17.6673 21.557L26.6758 25.8984ZM17.6953 33.6328L9.45682 39.3009C11.9449 42.9173 16.5004 44.4883 20.6887 43.1743L17.6953 33.6328ZM14 28.2617L10.9776 18.7294C7.95742 19.687 5.56975 22.0192 4.5414 25.016C3.51304 28.0128 3.96567 31.3196 5.7615 33.9298L14 28.2617ZM23.1523 15.7148L33.152 15.7996C33.1522 15.7713 33.1523 15.7431 33.1523 15.7148H23.1523ZM23.1523 12.4492V2.44922C17.6295 2.44922 13.1523 6.92637 13.1523 12.4492H23.1523ZM30.1133 12.4492H40.1133C40.1133 6.92637 35.6361 2.44922 30.1133 2.44922V12.4492ZM46.6562 10.2578H56.6562C56.6562 4.73496 52.1791 0.257812 46.6562 0.257812V10.2578ZM46.6562 18.8945H36.6562C36.6562 24.4174 41.1334 28.8945 46.6562 28.8945V18.8945ZM51.5977 18.8945H61.5977C61.5977 13.3717 57.1205 8.89453 51.5977 8.89453V18.8945ZM51.5977 24.5664V34.5664C57.1205 34.5664 61.5977 30.0893 61.5977 24.5664H51.5977ZM46.6562 24.5664V14.5664C41.1334 14.5664 36.6562 19.0436 36.6562 24.5664H46.6562ZM46.6562 33.4609V43.4609C52.1791 43.4609 56.6562 38.9838 56.6562 33.4609H46.6562ZM39.7383 33.4609H29.7383C29.7383 38.9838 34.2154 43.4609 39.7383 43.4609V33.4609ZM39.7383 10.2578V0.257812C34.2154 0.257812 29.7383 4.73496 29.7383 10.2578H39.7383ZM33.4648 34.1484L33.4143 44.1483C33.4485 44.1485 33.4827 44.1485 33.5169 44.1483L33.4648 34.1484ZM19.5859 42.0977L29.5856 42.1824C29.5861 42.1254 29.5861 42.0684 29.5856 42.0115L19.5859 42.0977ZM30.1133 16.4453L20.1138 16.3482C20.0779 20.0459 20.8838 24.4547 23.6922 28.4845C26.5645 32.6062 30.8496 35.3521 35.9762 36.8074L38.707 27.1875L41.4378 17.5676C40.633 17.3391 40.2433 17.1122 40.1081 17.0217C39.9895 16.9424 40.0269 16.9436 40.1008 17.0496C40.2666 17.2875 40.1057 17.2705 40.1128 16.5424L30.1133 16.4453ZM38.707 27.1875L30.4589 21.5335L26.8065 26.8616L35.0547 32.5156L43.3029 38.1696L46.9552 32.8415L38.707 27.1875ZM35.0547 32.5156L38.0171 22.9645C37.1295 22.6892 36.5992 22.3611 36.2736 22.0973C35.9493 21.8346 35.6768 21.5135 35.4379 21.0793L26.6758 25.8984L17.9136 30.7176C20.8398 36.038 25.65 40.0686 32.0923 42.0668L35.0547 32.5156ZM26.6758 25.8984L17.6673 21.557C17.0647 22.8074 16.2681 23.6 14.7019 24.0913L17.6953 33.6328L20.6887 43.1743C27.8881 40.9156 32.8493 36.1223 35.6842 30.2399L26.6758 25.8984ZM17.6953 33.6328L25.9338 27.9647L22.2385 22.5936L14 28.2617L5.7615 33.9298L9.45682 39.3009L17.6953 33.6328ZM14 28.2617L17.0224 37.794C22.5723 36.0343 26.8801 32.7972 29.6619 28.3848C32.3346 24.1453 33.1199 19.588 33.152 15.7996L23.1523 15.7148L13.1527 15.6301C13.1418 16.912 12.8744 17.511 12.7434 17.7187C12.6863 17.8092 12.6008 17.9193 12.4136 18.0591C12.2165 18.2063 11.7906 18.4716 10.9776 18.7294L14 28.2617ZM23.1523 15.7148H33.1523V12.4492H23.1523H13.1523V15.7148H23.1523ZM23.1523 12.4492V22.4492H30.1133V12.4492V2.44922L23.1523 2.44922V12.4492ZM30.1133 12.4492H20.1133V16.4453H30.1133H40.1133V12.4492H30.1133ZM46.6562 10.2578L36.6562 10.2578V18.8945H46.6562H56.6562V10.2578H46.6562ZM46.6562 18.8945V28.8945H51.5977V18.8945V8.89453H46.6562V18.8945ZM51.5977 18.8945H41.5977V24.5664H51.5977H61.5977V18.8945H51.5977ZM51.5977 24.5664V14.5664H46.6562V24.5664V34.5664H51.5977V24.5664ZM46.6562 24.5664H36.6562V33.4609H46.6562H56.6562V24.5664H46.6562ZM46.6562 33.4609V23.4609H39.7383V33.4609V43.4609H46.6562V33.4609ZM39.7383 33.4609H49.7383V10.2578L39.7383 10.2578H29.7383V33.4609H39.7383ZM39.7383 10.2578V20.2578H46.6562V10.2578V0.257812H39.7383V10.2578ZM33.4648 34.1484L33.5169 44.1483C34.9832 44.1407 36.1346 44.271 36.9819 44.4517C37.8441 44.6355 38.2477 44.8401 38.3334 44.8898C38.4049 44.9312 38.0433 44.7383 37.658 44.136C37.2353 43.4753 37.043 42.721 37.043 42.0977H47.043H57.043C57.043 35.3539 53.169 30.3717 48.3619 27.5858C43.9176 25.0101 38.5627 24.1217 33.4128 24.1486L33.4648 34.1484ZM47.043 42.0977H37.043C37.043 41.5276 37.2184 40.7866 37.6463 40.1145C38.0376 39.5 38.4115 39.298 38.3482 39.3346C38.2671 39.3814 37.8627 39.5864 36.9857 39.7731C36.1244 39.9563 34.9552 40.0898 33.4648 40.0898V50.0898V60.0898C38.556 60.0898 43.9017 59.2219 48.3472 56.6557C53.205 53.8514 57.043 48.8481 57.043 42.0977H47.043ZM33.4648 50.0898V40.0898C31.8917 40.0898 30.6518 39.9532 29.7311 39.7623C28.793 39.5678 28.348 39.3509 28.2426 39.2913C28.1535 39.2409 28.5411 39.4391 28.9518 40.0779C29.4045 40.7821 29.5908 41.5688 29.5856 42.1824L19.5859 42.0977L9.5863 42.0129C9.52803 48.8886 13.4867 53.9223 18.3951 56.6989C22.8801 59.2361 28.2889 60.0898 33.4648 60.0898V50.0898ZM19.5859 42.0977L29.5856 42.0115C29.5913 42.6796 29.3874 43.48 28.94 44.1726C28.5353 44.7991 28.1603 44.9884 28.2573 44.9333C28.3671 44.8709 28.8112 44.6543 29.7348 44.4624C30.6417 44.274 31.8645 44.1405 33.4143 44.1483L33.4648 34.1484L33.5153 24.1486C28.2823 24.1221 22.8648 24.9955 18.3804 27.5423C13.5239 30.3004 9.52708 35.3133 9.58631 42.1839L19.5859 42.0977ZM33.4648 39.4766V29.4766C30.8487 29.4766 27.6343 29.6634 24.7475 30.7277C23.2244 31.2892 21.144 32.327 19.3898 34.3201C17.4499 36.5244 16.4609 39.2794 16.4609 42.0977H26.4609H36.4609C36.4609 44.0136 35.762 45.9897 34.4035 47.5334C33.2308 48.8659 32.0232 49.3612 31.6656 49.493C31.2712 49.6384 31.1723 49.6106 31.5815 49.5616C31.9533 49.5172 32.5611 49.4766 33.4648 49.4766V39.4766ZM26.4609 42.0977H16.4609C16.4609 44.8211 17.375 47.5944 19.3503 49.8662C21.1403 51.9249 23.2786 52.9723 24.824 53.5277C27.7161 54.5673 30.9417 54.7188 33.4648 54.7188V44.7188V34.7188C32.5279 34.7188 31.8982 34.6809 31.5064 34.6371C31.0735 34.5886 31.1794 34.5594 31.5891 34.7067C31.9689 34.8432 33.2345 35.3534 34.443 36.7434C35.8369 38.3465 36.4609 40.3196 36.4609 42.0977H26.4609ZM33.4648 44.7188V54.7188C35.929 54.7188 39.1717 54.5738 42.0881 53.4749C43.6766 52.8763 45.8057 51.7629 47.5464 49.633C49.4319 47.3259 50.2109 44.6236 50.2109 42.0977H40.2109H30.2109C30.2109 40.517 30.7214 38.615 32.0604 36.9767C33.2546 35.5154 34.5592 34.9391 35.0359 34.7595C35.5186 34.5776 35.6969 34.5965 35.3102 34.6412C34.966 34.681 34.3777 34.7188 33.4648 34.7188V44.7188ZM40.2109 42.0977H50.2109C50.2109 39.4828 49.366 36.7979 47.5087 34.5527C45.8017 32.4892 43.7303 31.3869 42.1669 30.7827C39.2558 29.6577 36.0253 29.4766 33.4648 29.4766V39.4766V49.4766C34.3438 49.4766 34.9095 49.517 35.2327 49.5569C35.5944 49.6016 35.4236 49.6183 34.9571 49.438C34.5055 49.2635 33.2586 48.7037 32.0981 47.3008C30.7873 45.7162 30.2109 43.8102 30.2109 42.0977H40.2109ZM85.1133 10.3437H95.1133C95.1133 4.8209 90.6361 0.34375 85.1133 0.34375V10.3437ZM85.1133 21.1719L75.1133 21.1719C75.1133 26.6947 79.5904 31.1719 85.1133 31.1719V21.1719ZM89.668 21.1719H99.668C99.668 15.649 95.1908 11.1719 89.668 11.1719V21.1719ZM89.668 26.7578V36.7578C95.1908 36.7578 99.668 32.2807 99.668 26.7578H89.668ZM85.1133 26.7578V16.7578C79.5904 16.7578 75.1133 21.235 75.1133 26.7578L85.1133 26.7578ZM85.1133 37.0703V47.0703C90.6361 47.0703 95.1133 42.5932 95.1133 37.0703H85.1133ZM78.2383 37.0703H68.2383C68.2383 42.5932 72.7154 47.0703 78.2383 47.0703V37.0703ZM78.2383 10.3437V0.34375C72.7154 0.34375 68.2383 4.8209 68.2383 10.3437H78.2383ZM64.4023 43.7305L74.3944 44.1301C74.4048 43.8689 74.405 43.6074 74.395 43.3461L64.4023 43.7305ZM71.3633 45.1484L71.4487 35.1488C71.3923 35.1483 71.3358 35.1483 71.2793 35.1488L71.3633 45.1484ZM52.2852 31.3555L52.2064 21.3558C49.3338 21.3784 46.6096 22.6353 44.7282 24.8063C42.8468 26.9772 41.9898 29.8524 42.3758 32.6991L52.2852 31.3555ZM61.2227 31.2695L61.4253 41.2675C66.8681 41.1572 71.2227 36.7134 71.2227 31.2695H61.2227ZM61.2227 29.4648H71.2227C71.2227 24.5765 67.6885 20.4046 62.8666 19.6009L61.2227 29.4648ZM68.0977 29.4219L66.4197 19.5637C61.6134 20.3817 58.0977 24.5465 58.0977 29.4219H68.0977ZM68.0977 31.0117H58.0977C58.0977 33.7524 59.2225 36.3731 61.2094 38.261C63.1962 40.1488 65.8708 41.1385 68.6079 40.9987L68.0977 31.0117ZM76.7773 30.2812L86.7259 29.268C86.4521 26.5802 85.1025 24.1176 82.9843 22.4407C80.8661 20.7639 78.1595 20.0154 75.4807 20.3657L76.7773 30.2812ZM77.25 34.9219L78.9186 44.7817C84.111 43.903 87.7322 39.1478 87.1985 33.9086L77.25 34.9219ZM52.9727 36.4258L43.0633 37.7694C43.7356 42.7276 47.9691 46.4258 52.9727 46.4258V36.4258ZM75.918 12.75H85.918C85.918 7.22715 81.4408 2.75 75.918 2.75V12.75ZM75.918 17.7344V27.7344C81.4408 27.7344 85.918 23.2572 85.918 17.7344L75.918 17.7344ZM53.3594 17.7344H43.3594C43.3594 23.2572 47.8365 27.7344 53.3594 27.7344V17.7344ZM53.3594 12.75V2.75C47.8365 2.75 43.3594 7.22715 43.3594 12.75L53.3594 12.75ZM61.2227 12.75V22.75C66.7455 22.75 71.2227 18.2728 71.2227 12.75H61.2227ZM61.2227 10V0C55.6998 0 51.2227 4.47715 51.2227 10H61.2227ZM68.0977 10H78.0977C78.0977 4.47715 73.6205 0 68.0977 0V10ZM68.0977 12.75H58.0977C58.0977 18.2728 62.5748 22.75 68.0977 22.75V12.75ZM64.6172 22.6328L64.8095 12.6347C64.6825 12.6322 64.5555 12.6322 64.4285 12.6346L64.6172 22.6328ZM68.0117 23.9648L78.0023 24.3992C78.0155 24.096 78.0148 23.7923 78.0004 23.4892L68.0117 23.9648ZM85.1133 10.3437H75.1133V21.1719L85.1133 21.1719H95.1133V10.3437H85.1133ZM85.1133 21.1719V31.1719H89.668V21.1719V11.1719H85.1133V21.1719ZM89.668 21.1719H79.668V26.7578H89.668H99.668V21.1719H89.668ZM89.668 26.7578V16.7578H85.1133V26.7578V36.7578H89.668V26.7578ZM85.1133 26.7578L75.1133 26.7578V37.0703H85.1133H95.1133V26.7578H85.1133ZM85.1133 37.0703V27.0703H78.2383V37.0703V47.0703H85.1133V37.0703ZM78.2383 37.0703H88.2383V10.3437H78.2383H68.2383V37.0703H78.2383ZM78.2383 10.3437V20.3437H85.1133V10.3437V0.34375H78.2383V10.3437ZM71.3633 37.2852V47.2852C73.1461 47.2852 74.5533 47.404 75.6142 47.5789C76.7012 47.7582 77.2305 47.9646 77.3703 48.0296C77.5171 48.0978 76.958 47.877 76.3277 47.0514C75.6017 46.1004 75.1992 44.8853 75.1992 43.7305H85.1992H95.1992C95.1992 36.535 90.3999 32.0304 85.7986 29.8923C81.5331 27.9101 76.395 27.2852 71.3633 27.2852V37.2852ZM85.1992 43.7305H75.1992C75.1992 42.6073 75.5893 41.3856 76.3351 40.4112C76.9824 39.5656 77.5628 39.3376 77.4215 39.4023C77.2856 39.4646 76.7553 39.6685 75.6558 39.8451C74.5835 40.0172 73.1633 40.1328 71.3633 40.1328V50.1328V60.1328C76.3516 60.1328 81.4829 59.5395 85.7475 57.5869C90.3972 55.458 95.1992 50.9487 95.1992 43.7305H85.1992ZM71.3633 50.1328V40.1328C69.5373 40.1328 68.1017 40.0167 67.0206 39.8439C65.9119 39.6667 65.3825 39.4624 65.2514 39.4023C65.1167 39.3407 65.7052 39.574 66.356 40.4282C67.104 41.4097 67.4844 42.6274 67.4844 43.7305H57.4844H47.4844C47.4844 50.9193 52.2412 55.4422 56.9254 57.5869C61.1967 59.5426 66.3446 60.1328 71.3633 60.1328V50.1328ZM57.4844 43.7305H67.4844C67.4844 44.8651 67.0917 46.0763 66.3634 47.0345C65.7295 47.8685 65.1625 48.0947 65.3025 48.0296C65.4375 47.9669 65.9659 47.76 67.0619 47.5801C68.1317 47.4046 69.5543 47.2852 71.3633 47.2852V37.2852V27.2852C66.3014 27.2852 61.1467 27.9069 56.8742 29.8923C52.2386 32.0464 47.4844 36.5642 47.4844 43.7305H57.4844ZM71.3633 42.2266V32.2266C68.8423 32.2266 66.12 32.2975 63.8604 32.7802C62.7977 33.0071 60.6679 33.5484 58.6516 35.1011C56.0469 37.1068 54.2646 40.3411 54.4097 44.1148L64.4023 43.7305L74.395 43.3461C74.4463 44.6808 74.2053 46.2227 73.4593 47.7452C72.7272 49.2393 71.7236 50.2776 70.854 50.9473C70.0234 51.5869 69.2786 51.9218 68.8618 52.0839C68.4311 52.2513 68.1269 52.32 68.038 52.339C67.9914 52.3489 68.771 52.2266 71.3633 52.2266V42.2266ZM64.4023 43.7305L54.4103 43.3308C54.2532 47.2587 56.1859 50.5033 58.7872 52.4369C60.7985 53.932 62.9041 54.4433 63.9515 54.6568C66.1993 55.1151 68.9035 55.1695 71.4473 55.1481L71.3633 45.1484L71.2793 35.1488C68.7098 35.1704 67.912 35.0528 67.947 35.06C68.0296 35.0768 68.324 35.1401 68.7446 35.2976C69.1493 35.4491 69.8871 35.7677 70.7184 36.3856C71.5858 37.0303 72.6248 38.0569 73.3944 39.5714C74.1842 41.1258 74.4506 42.7244 74.3944 44.1301L64.4023 43.7305ZM71.3633 45.1484L71.2778 55.1481C73.7881 55.1695 76.4702 55.1147 78.7146 54.6549C79.7759 54.4375 81.8273 53.93 83.8016 52.4894C86.3 50.6664 88.2812 47.5888 88.2812 43.7305H78.2812H68.2812C68.2812 42.3322 68.6066 40.7949 69.4021 39.3299C70.1754 37.9057 71.179 36.9416 72.013 36.3331C72.8154 35.7476 73.5241 35.4421 73.9201 35.2942C74.33 35.1412 74.617 35.079 74.7004 35.0619C74.7427 35.0532 73.9659 35.1703 71.4487 35.1488L71.3633 45.1484ZM78.2812 43.7305H88.2812C88.2812 40.017 86.4442 36.9417 83.9374 35.0468C81.9573 33.5501 79.8821 33.0132 78.8061 32.7822C76.5503 32.2981 73.8504 32.2266 71.3633 32.2266V42.2266V52.2266C73.9035 52.2266 74.6626 52.3484 74.609 52.3369C74.5195 52.3177 74.2229 52.2502 73.8031 52.0875C73.3954 51.9294 72.6796 51.608 71.8772 51.0015C71.0404 50.369 70.0685 49.3921 69.331 47.9835C68.5775 46.5443 68.2812 45.0586 68.2812 43.7305H78.2812ZM52.2852 31.3555L52.3639 41.3552C54.9908 41.3345 58.1635 41.3336 61.4253 41.2675L61.2227 31.2695L61.02 21.2716C57.9224 21.3344 55.0365 21.3335 52.2064 21.3558L52.2852 31.3555ZM61.2227 31.2695H71.2227V29.4648H61.2227H51.2227V31.2695H61.2227ZM61.2227 29.4648L62.8666 19.6009C61.8908 19.4383 62.0776 19.2609 62.7223 19.7916C63.0888 20.0932 63.5918 20.6225 63.9965 21.4286C64.4128 22.2578 64.6055 23.1455 64.6055 23.9648H54.6055H44.6055C44.6055 28.7083 46.8477 32.6288 50.012 35.2333C52.9341 37.6385 56.4295 38.8039 59.5787 39.3288L61.2227 29.4648ZM54.6055 23.9648H64.6055C64.6055 25.032 64.2806 26.1489 63.6617 27.0881C63.0876 27.9593 62.4742 28.3609 62.2615 28.4817C62.0574 28.5976 62.1084 28.5245 62.5594 28.4286C62.9943 28.3361 63.674 28.25 64.6172 28.25V18.25V8.25C60.5675 8.25 56.1601 8.94665 52.385 11.0905C48.296 13.4127 44.6055 17.7897 44.6055 23.9648H54.6055ZM64.6172 18.25V28.25C65.5453 28.25 66.2138 28.3353 66.6403 28.4265C67.0827 28.5211 67.1295 28.5924 66.9237 28.4752C66.7095 28.3532 66.0984 27.9512 65.5267 27.0825C64.9106 26.1461 64.5859 25.0317 64.5859 23.9648H74.5859L84.5859 23.9648C84.5859 17.7949 80.9014 13.4202 76.8233 11.0971C73.0544 8.95007 68.6555 8.25 64.6172 8.25V18.25ZM74.5859 23.9648H64.5859C64.5859 23.1559 64.7742 22.2751 65.1857 21.4474C65.5863 20.6415 66.0878 20.1057 66.4619 19.7946C67.1235 19.2443 67.3447 19.4062 66.4197 19.5637L68.0977 29.4219L69.7757 39.2801C72.8897 38.75 76.355 37.5799 79.251 35.1712C82.3873 32.5626 84.5859 28.6609 84.5859 23.9648L74.5859 23.9648ZM68.0977 29.4219H58.0977V31.0117H68.0977H78.0977V29.4219H68.0977ZM68.0977 31.0117L68.6079 40.9987C71.6743 40.842 74.9105 40.6105 78.074 40.1968L76.7773 30.2812L75.4807 20.3657C73.0583 20.6825 70.4078 20.8806 67.5874 21.0247L68.0977 31.0117ZM76.7773 30.2812L66.8288 31.2945L67.3015 35.9352L77.25 34.9219L87.1985 33.9086L86.7259 29.268L76.7773 30.2812ZM77.25 34.9219L75.5814 25.0621C68.1264 26.3237 60.0009 26.4258 52.9727 26.4258V36.4258V46.4258C59.9523 46.4258 69.6158 46.356 78.9186 44.7817L77.25 34.9219ZM52.9727 36.4258L62.882 35.0821L62.1945 30.0118L52.2852 31.3555L42.3758 32.6991L43.0633 37.7694L52.9727 36.4258ZM75.918 12.75H65.918V17.7344H75.918L85.918 17.7344V12.75H75.918ZM75.918 17.7344V7.73437H53.3594V17.7344V27.7344H75.918V17.7344ZM53.3594 17.7344H63.3594V12.75H53.3594L43.3594 12.75V17.7344H53.3594ZM53.3594 12.75V22.75H61.2227V12.75V2.75H53.3594V12.75ZM61.2227 12.75H71.2227V10H61.2227H51.2227V12.75H61.2227ZM61.2227 10V20H68.0977V10V0H61.2227V10ZM68.0977 10H58.0977V12.75H68.0977H78.0977V10H68.0977ZM68.0977 12.75V22.75H75.918V12.75V2.75H68.0977V12.75ZM64.6172 22.6328L64.4285 12.6346C63.0675 12.6603 60.7847 12.7716 58.5428 13.6097C57.3426 14.0584 55.495 14.9536 53.8937 16.771C52.1 18.8066 51.1797 21.3664 51.1797 23.9648H61.1797H71.1797C71.1797 26.1121 70.4044 28.2852 68.8994 29.9932C67.5868 31.4829 66.1716 32.1096 65.5461 32.3434C64.4536 32.7519 63.8896 32.6483 64.8058 32.631L64.6172 22.6328ZM61.1797 23.9648H51.1797C51.1797 26.3467 51.9476 28.8966 53.7513 31.0359C55.3903 32.9797 57.3308 33.927 58.62 34.3968C60.959 35.2494 63.3353 35.2969 64.6172 35.2969V25.2969V15.2969C63.6217 15.2969 64.2793 15.1725 65.4689 15.6061C66.1833 15.8665 67.6915 16.5425 69.0418 18.1439C70.5568 19.9408 71.1797 22.0771 71.1797 23.9648H61.1797ZM64.6172 25.2969V35.2969C65.8893 35.2969 68.2667 35.2491 70.6181 34.3757C71.9284 33.889 73.8006 32.9421 75.3931 31.0707C77.1172 29.0447 77.9044 26.6508 78.0023 24.3992L68.0117 23.9648L58.0212 23.5305C58.0976 21.7731 58.729 19.7927 60.1617 18.1091C61.4628 16.5801 62.908 15.9044 63.6544 15.6272C64.8779 15.1728 65.5794 15.2969 64.6172 15.2969V25.2969ZM68.0117 23.9648L78.0004 23.4892C77.8842 21.048 76.9597 18.6592 75.2498 16.7365C73.6962 14.9896 71.9161 14.0964 70.6962 13.6317C68.4447 12.774 66.1633 12.6607 64.8095 12.6347L64.6172 22.6328L64.4249 32.631C65.3054 32.6479 64.6999 32.7495 63.5763 32.3214C62.9203 32.0715 61.5673 31.4469 60.305 30.0276C58.8865 28.4326 58.1178 26.4305 58.023 24.4405L68.0117 23.9648ZM124.73 10.2578H134.73C134.73 4.73496 130.253 0.257812 124.73 0.257812V10.2578ZM124.73 30.5391V40.5391C130.253 40.5391 134.73 36.0619 134.73 30.5391H124.73ZM117.855 30.5391H107.855C107.855 36.0619 112.333 40.5391 117.855 40.5391V30.5391ZM117.855 27.2734H127.855C127.855 21.7506 123.378 17.2734 117.855 17.2734V27.2734ZM111.883 27.2734V17.2734C106.36 17.2734 101.883 21.7506 101.883 27.2734H111.883ZM111.883 29.6797V39.6797C117.406 39.6797 121.883 35.2025 121.883 29.6797H111.883ZM92.418 29.6797H82.418C82.418 35.2025 86.8951 39.6797 92.418 39.6797V29.6797ZM92.418 11.8477V1.84766C86.8951 1.84766 82.418 6.32481 82.418 11.8477H92.418ZM99.3359 11.8477H109.336C109.336 6.32481 104.859 1.84766 99.3359 1.84766V11.8477ZM99.3359 15.8437H89.3359C89.3359 21.3666 93.8131 25.8437 99.3359 25.8437V15.8437ZM105.094 15.8437V25.8437C110.617 25.8437 115.094 21.3666 115.094 15.8437H105.094ZM105.094 11.8477V1.84766C99.5709 1.84766 95.0938 6.32481 95.0938 11.8477H105.094ZM111.883 11.8477H121.883C121.883 6.32481 117.406 1.84766 111.883 1.84766V11.8477ZM111.883 14.9414H101.883C101.883 20.4643 106.36 24.9414 111.883 24.9414V14.9414ZM117.855 14.9414V24.9414C123.378 24.9414 127.855 20.4643 127.855 14.9414H117.855ZM117.855 10.2578V0.257812C112.333 0.257812 107.855 4.73496 107.855 10.2578L117.855 10.2578ZM124.73 31.6992H134.73C134.73 26.1764 130.253 21.6992 124.73 21.6992V31.6992ZM124.73 43.1719V53.1719C130.253 53.1719 134.73 48.6947 134.73 43.1719H124.73ZM104.836 43.1719V33.1719C99.3131 33.1719 94.8359 37.649 94.8359 43.1719H104.836ZM104.836 44.2891H94.8359C94.8359 49.8119 99.3131 54.2891 104.836 54.2891V44.2891ZM125.676 44.2891H135.676C135.676 38.7662 131.199 34.2891 125.676 34.2891V44.2891ZM125.676 49.6602V59.6602C131.199 59.6602 135.676 55.183 135.676 49.6602H125.676ZM97.875 49.6602H87.875C87.875 55.183 92.3521 59.6602 97.875 59.6602V49.6602ZM97.875 38.1445V28.1445C92.3521 28.1445 87.875 32.6217 87.875 38.1445H97.875ZM117.855 38.1445V48.1445C123.378 48.1445 127.855 43.6674 127.855 38.1445H117.855ZM117.855 36.9414H127.855C127.855 31.4186 123.378 26.9414 117.855 26.9414V36.9414ZM97.875 36.9414H87.875C87.875 42.4643 92.3521 46.9414 97.875 46.9414V36.9414ZM97.875 31.6992V21.6992C92.3521 21.6992 87.875 26.1764 87.875 31.6992H97.875ZM99.3359 24.3516H89.3359C89.3359 29.8744 93.8131 34.3516 99.3359 34.3516V24.3516ZM105.094 24.3516V34.3516C110.617 34.3516 115.094 29.8744 115.094 24.3516H105.094ZM105.094 20.957H115.094C115.094 15.4342 110.617 10.957 105.094 10.957V20.957ZM99.3359 20.957V10.957C93.8131 10.957 89.3359 15.4342 89.3359 20.957H99.3359ZM111.883 22.1172H101.883C101.883 27.64 106.36 32.1172 111.883 32.1172V22.1172ZM117.855 22.1172V32.1172C123.378 32.1172 127.855 27.64 127.855 22.1172H117.855ZM117.855 20.0117H127.855C127.855 14.4889 123.378 10.0117 117.855 10.0117V20.0117ZM111.883 20.0117V10.0117C106.36 10.0117 101.883 14.4889 101.883 20.0117H111.883ZM124.73 10.2578H114.73V30.5391H124.73H134.73V10.2578H124.73ZM124.73 30.5391V20.5391H117.855V30.5391V40.5391H124.73V30.5391ZM117.855 30.5391H127.855V27.2734H117.855H107.855V30.5391H117.855ZM117.855 27.2734V17.2734H111.883V27.2734V37.2734H117.855V27.2734ZM111.883 27.2734H101.883V29.6797H111.883H121.883V27.2734H111.883ZM111.883 29.6797V19.6797H92.418V29.6797V39.6797H111.883V29.6797ZM92.418 29.6797H102.418V11.8477H92.418H82.418V29.6797H92.418ZM92.418 11.8477V21.8477H99.3359V11.8477V1.84766L92.418 1.84766V11.8477ZM99.3359 11.8477H89.3359V15.8437H99.3359H109.336V11.8477H99.3359ZM99.3359 15.8437V25.8437H105.094V15.8437V5.84375H99.3359V15.8437ZM105.094 15.8437H115.094V11.8477L105.094 11.8477H95.0938V15.8437H105.094ZM105.094 11.8477V21.8477H111.883V11.8477V1.84766H105.094V11.8477ZM111.883 11.8477L101.883 11.8477V14.9414H111.883H121.883V11.8477H111.883ZM111.883 14.9414V24.9414H117.855V14.9414V4.94141H111.883V14.9414ZM117.855 14.9414H127.855V10.2578H117.855L107.855 10.2578V14.9414H117.855ZM117.855 10.2578V20.2578H124.73V10.2578V0.257812L117.855 0.257812V10.2578ZM124.73 31.6992H114.73V43.1719H124.73H134.73V31.6992H124.73ZM124.73 43.1719V33.1719H104.836V43.1719V53.1719H124.73V43.1719ZM104.836 43.1719H94.8359V44.2891H104.836H114.836V43.1719H104.836ZM104.836 44.2891V54.2891H125.676V44.2891V34.2891H104.836V44.2891ZM125.676 44.2891H115.676V49.6602H125.676H135.676V44.2891H125.676ZM125.676 49.6602V39.6602H97.875V49.6602V59.6602H125.676V49.6602ZM97.875 49.6602H107.875V38.1445H97.875H87.875V49.6602H97.875ZM97.875 38.1445V48.1445H117.855V38.1445V28.1445H97.875V38.1445ZM117.855 38.1445H127.855V36.9414H117.855H107.855V38.1445H117.855ZM117.855 36.9414V26.9414H97.875V36.9414V46.9414H117.855V36.9414ZM97.875 36.9414H107.875V31.6992H97.875H87.875V36.9414H97.875ZM97.875 31.6992V41.6992H124.73V31.6992V21.6992H97.875V31.6992ZM99.3359 24.3516V34.3516H105.094V24.3516V14.3516H99.3359V24.3516ZM105.094 24.3516H115.094V20.957H105.094H95.0938V24.3516H105.094ZM105.094 20.957V10.957H99.3359V20.957V30.957H105.094V20.957ZM99.3359 20.957H89.3359V24.3516H99.3359H109.336V20.957H99.3359ZM111.883 22.1172V32.1172H117.855V22.1172V12.1172H111.883V22.1172ZM117.855 22.1172H127.855V20.0117H117.855H107.855V22.1172H117.855ZM117.855 20.0117V10.0117H111.883V20.0117V30.0117H117.855V20.0117ZM111.883 20.0117H101.883V22.1172H111.883H121.883V20.0117H111.883ZM173.113 10.2578L183.113 10.2578C183.113 4.73496 178.636 0.257812 173.113 0.257812V10.2578ZM173.113 50.0039V60.0039C178.636 60.0039 183.113 55.5268 183.113 50.0039H173.113ZM166.625 50.0039H156.625C156.625 55.5268 161.102 60.0039 166.625 60.0039V50.0039ZM166.625 30.668H176.625C176.625 25.1451 172.148 20.668 166.625 20.668V30.668ZM164.047 30.668V20.668C158.524 20.668 154.047 25.1451 154.047 30.668H164.047ZM164.047 48.1992V58.1992C169.57 58.1992 174.047 53.7221 174.047 48.1992H164.047ZM157.773 48.1992H147.773C147.773 53.7221 152.251 58.1992 157.773 58.1992V48.1992ZM157.773 10.8594V0.859375C152.251 0.859375 147.773 5.33653 147.773 10.8594H157.773ZM164.047 10.8594L174.047 10.8594C174.047 5.33653 169.57 0.859375 164.047 0.859375V10.8594ZM164.047 25.2109H154.047C154.047 30.7338 158.524 35.2109 164.047 35.2109V25.2109ZM166.625 25.2109V35.2109C172.148 35.2109 176.625 30.7338 176.625 25.2109H166.625ZM166.625 10.2578V0.257812C161.102 0.257812 156.625 4.73496 156.625 10.2578H166.625ZM154.207 14.7266H164.207C164.207 9.20372 159.73 4.72656 154.207 4.72656V14.7266ZM154.207 20.2266V30.2266C159.73 30.2266 164.207 25.7494 164.207 20.2266H154.207ZM146.344 20.2266V10.2266C140.821 10.2266 136.344 14.7037 136.344 20.2266H146.344ZM146.344 35.8242L136.344 35.8242C136.344 38.5252 137.436 41.1113 139.373 42.9941C141.31 44.877 143.925 45.8963 146.625 45.8203L146.344 35.8242ZM155.797 34.9648L165.761 34.1152C165.523 31.3233 164.124 28.7594 161.906 27.0476C159.687 25.3359 156.852 24.6335 154.091 25.1113L155.797 34.9648ZM156.27 40.5078L158.081 50.3423C163.143 49.4098 166.671 44.7869 166.233 39.6582L156.27 40.5078ZM139.426 41.5391H129.426C129.426 47.0619 133.903 51.5391 139.426 51.5391V41.5391ZM139.426 14.7266V4.72656C133.903 4.72656 129.426 9.20372 129.426 14.7266H139.426ZM173.113 10.2578H163.113V50.0039H173.113H183.113V10.2578L173.113 10.2578ZM173.113 50.0039V40.0039H166.625V50.0039V60.0039H173.113V50.0039ZM166.625 50.0039H176.625V30.668H166.625H156.625V50.0039H166.625ZM166.625 30.668V20.668H164.047V30.668V40.668H166.625V30.668ZM164.047 30.668H154.047V48.1992H164.047H174.047V30.668H164.047ZM164.047 48.1992V38.1992H157.773V48.1992V58.1992H164.047V48.1992ZM157.773 48.1992H167.773V10.8594H157.773H147.773V48.1992H157.773ZM157.773 10.8594V20.8594H164.047V10.8594V0.859375L157.773 0.859375V10.8594ZM164.047 10.8594H154.047V25.2109H164.047H174.047V10.8594L164.047 10.8594ZM164.047 25.2109V35.2109H166.625V25.2109V15.2109H164.047V25.2109ZM166.625 25.2109H176.625V10.2578L166.625 10.2578H156.625V25.2109H166.625ZM166.625 10.2578V20.2578H173.113V10.2578V0.257812H166.625V10.2578ZM154.207 14.7266H144.207V20.2266H154.207H164.207V14.7266H154.207ZM154.207 20.2266V10.2266H146.344V20.2266V30.2266H154.207V20.2266ZM146.344 20.2266H136.344V35.8242L146.344 35.8242H156.344V20.2266H146.344ZM146.344 35.8242L146.625 45.8203C149.92 45.7275 153.495 45.5119 157.502 44.8183L155.797 34.9648L154.091 25.1113C151.395 25.578 148.87 25.7491 146.062 25.8282L146.344 35.8242ZM155.797 34.9648L145.833 35.8145L146.306 41.3574L156.27 40.5078L166.233 39.6582L165.761 34.1152L155.797 34.9648ZM156.27 40.5078L154.458 30.6733C150.466 31.4086 146.85 31.5391 142.348 31.5391V41.5391V51.5391C147.213 51.5391 152.276 51.4117 158.081 50.3423L156.27 40.5078ZM142.348 41.5391V31.5391L139.426 31.5391V41.5391V51.5391L142.348 51.5391V41.5391ZM139.426 41.5391L149.426 41.5391V14.7266H139.426H129.426V41.5391H139.426ZM139.426 14.7266V24.7266H154.207V14.7266V4.72656H139.426V14.7266ZM212.816 28.4336H222.816C222.816 22.9107 218.339 18.4336 212.816 18.4336V28.4336ZM212.816 33.7617V43.7617C218.339 43.7617 222.816 39.2846 222.816 33.7617H212.816ZM176.551 33.7617H166.551C166.551 39.2846 171.028 43.7617 176.551 43.7617V33.7617ZM176.551 28.4336V18.4336C171.028 18.4336 166.551 22.9107 166.551 28.4336H176.551ZM208.52 42.6992L218.519 42.7901C218.52 42.7301 218.52 42.67 218.519 42.6099L208.52 42.6992ZM187.594 42.6992L197.59 42.9694C197.595 42.7939 197.595 42.6184 197.59 42.4429L187.594 42.6992ZM194.684 11.0312L194.732 1.03137C194.7 1.03121 194.668 1.03121 194.635 1.03137L194.684 11.0312ZM209.379 18.9805L219.379 19.0682C219.379 19.0094 219.379 18.9507 219.379 18.892L209.379 18.9805ZM194.684 26.9297L194.635 36.9296C194.668 36.9297 194.7 36.9297 194.732 36.9296L194.684 26.9297ZM179.945 18.9805L189.945 19.0682C189.945 19.0094 189.945 18.9507 189.945 18.892L179.945 18.9805ZM194.684 16.3164L194.771 6.31679C194.714 6.31628 194.656 6.31628 194.598 6.31677L194.684 16.3164ZM187.121 18.9805L197.119 19.2077C197.122 19.0579 197.122 18.9081 197.119 18.7583L187.121 18.9805ZM212.816 28.4336L202.816 28.4336V33.7617H212.816H222.816V28.4336H212.816ZM212.816 33.7617V23.7617L176.551 23.7617V33.7617V43.7617H212.816V33.7617ZM176.551 33.7617H186.551V28.4336H176.551H166.551V33.7617H176.551ZM176.551 28.4336V38.4336H212.816V28.4336V18.4336L176.551 18.4336V28.4336ZM194.598 35.2227V45.2227C196.263 45.2227 197.569 45.3526 198.54 45.5376C199.532 45.7264 199.997 45.9386 200.104 45.9951C200.195 46.0433 199.755 45.8319 199.281 45.1386C198.757 44.3704 198.526 43.4946 198.52 42.7885L208.52 42.6992L218.519 42.6099C218.458 35.7532 214.349 30.9055 209.458 28.3174C205.026 25.9722 199.704 25.2227 194.598 25.2227V35.2227ZM208.52 42.6992L198.52 42.6083C198.527 41.8427 198.78 40.9354 199.316 40.1597C199.798 39.4635 200.239 39.2574 200.135 39.3118C200.019 39.3725 199.544 39.5858 198.548 39.7748C197.571 39.9599 196.262 40.0898 194.598 40.0898V50.0898V60.0898C199.709 60.0898 205.012 59.3386 209.427 57.0222C214.269 54.4822 218.457 49.6773 218.519 42.7901L208.52 42.6992ZM194.598 50.0898V40.0898C192.893 40.0898 191.55 39.9588 190.545 39.7706C189.518 39.5784 189.025 39.3603 188.899 39.2948C188.784 39.235 189.238 39.4428 189.734 40.1597C190.289 40.9623 190.547 41.9043 190.547 42.6992H180.547H170.547C170.547 49.6745 174.807 54.5097 179.672 57.0392C184.104 59.3442 189.442 60.0898 194.598 60.0898V50.0898ZM180.547 42.6992H190.547C190.547 43.4337 190.312 44.3436 189.769 45.1386C189.281 45.8528 188.827 46.066 188.93 46.0123C189.046 45.951 189.531 45.7339 190.552 45.5419C191.552 45.3538 192.893 45.2227 194.598 45.2227V35.2227V25.2227C189.447 25.2227 184.09 25.9666 179.641 28.3002C174.725 30.8782 170.547 35.7564 170.547 42.6992H180.547ZM194.598 40.4219V30.4219C192.084 30.4219 188.953 30.531 186.213 31.397C184.765 31.8547 182.521 32.7943 180.614 34.8677C178.435 37.2379 177.526 40.178 177.597 42.9555L187.594 42.6992L197.59 42.4429C197.64 44.3825 196.978 46.6191 195.336 48.4051C193.967 49.8944 192.55 50.3694 192.24 50.4673C191.864 50.586 191.809 50.5481 192.335 50.4994C192.812 50.4553 193.538 50.4219 194.598 50.4219V40.4219ZM187.594 42.6992L177.597 42.429C177.519 45.3439 178.534 48.316 180.758 50.6348C182.675 52.6331 184.895 53.5226 186.295 53.9518C188.985 54.7767 192.064 54.8906 194.598 54.8906V44.8906V34.8906C193.54 34.8906 192.807 34.8574 192.32 34.813C191.786 34.7644 191.814 34.7249 192.158 34.8304C192.419 34.9105 193.812 35.3515 195.192 36.7899C195.934 37.5641 196.6 38.5557 197.045 39.7442C197.486 40.9214 197.615 42.0384 197.59 42.9694L187.594 42.6992ZM194.598 44.8906V54.8906C197.099 54.8906 200.136 54.7718 202.811 53.9595C204.196 53.5388 206.351 52.6832 208.247 50.7919C210.44 48.6032 211.602 45.7064 211.602 42.6992H201.602H191.602C191.602 41.7249 191.775 40.6008 192.249 39.4472C192.725 38.2903 193.402 37.3506 194.121 36.6328C195.456 35.3014 196.762 34.8943 196.998 34.8228C197.315 34.7265 197.325 34.7661 196.805 34.8139C196.329 34.8578 195.616 34.8906 194.598 34.8906V44.8906ZM201.602 42.6992H211.602C211.602 39.8297 210.555 36.9558 208.395 34.7076C206.505 32.7409 204.323 31.8369 202.892 31.3889C200.168 30.5361 197.08 30.4219 194.598 30.4219V40.4219V50.4219C195.618 50.4219 196.324 50.4549 196.79 50.4985C197.302 50.5464 197.264 50.5843 196.916 50.4753C196.635 50.3872 195.302 49.9478 193.973 48.5652C192.374 46.9012 191.602 44.7309 191.602 42.6992H201.602ZM194.684 11.0312L194.635 21.0311C198.087 21.048 199.965 21.6782 200.597 22.0165C200.858 22.1561 200.56 22.0613 200.162 21.5031C199.702 20.858 199.387 19.9743 199.379 19.069L209.379 18.9805L219.379 18.892C219.315 11.713 214.731 6.89838 210.04 4.38582C205.537 1.97418 200.089 1.0575 194.732 1.03137L194.684 11.0312ZM209.379 18.9805L199.379 18.8928C199.387 18.0159 199.691 17.1379 200.157 16.484C200.56 15.9177 200.866 15.8172 200.612 15.9529C200.36 16.0871 199.758 16.3425 198.691 16.5601C197.643 16.774 196.289 16.9217 194.635 16.9298L194.684 26.9297L194.732 36.9296C200.068 36.9035 205.516 36.0045 210.025 33.5989C214.75 31.0781 219.316 26.2517 219.379 19.0682L209.379 18.9805ZM194.684 26.9297L194.732 16.9298C193.05 16.9217 191.673 16.7729 190.605 16.5569C189.518 16.3369 188.907 16.0788 188.654 15.9447C188.397 15.8082 188.728 15.9197 189.153 16.5215C189.645 17.2196 189.953 18.1503 189.945 19.0682L179.945 18.9805L169.946 18.8928C169.882 26.1982 174.528 31.0872 179.271 33.607C183.795 36.0102 189.275 36.9037 194.635 36.9296L194.684 26.9297ZM179.945 18.9805L189.945 18.892C189.953 19.8392 189.634 20.7763 189.147 21.4655C188.728 22.0592 188.405 22.1651 188.669 22.0247C189.308 21.684 191.22 21.0481 194.732 21.0311L194.684 11.0312L194.635 1.03137C189.253 1.05737 183.774 1.96837 179.257 4.37764C174.549 6.88882 169.881 11.7664 169.946 19.069L179.945 18.9805ZM194.684 16.3164L194.598 6.31677C191.975 6.33919 188.721 6.49991 185.863 7.4446C184.37 7.93795 182.155 8.90621 180.263 10.9355C178.108 13.2476 177.057 16.206 177.124 19.2026L187.121 18.9805L197.119 18.7583C197.139 19.6542 197.007 20.7095 196.595 21.8129C196.18 22.9227 195.568 23.8488 194.892 24.5735C193.629 25.9288 192.364 26.3599 192.139 26.4343C191.847 26.531 191.869 26.4826 192.431 26.4229C192.95 26.3678 193.708 26.3251 194.769 26.316L194.684 16.3164ZM187.121 18.9805L177.124 18.7533C177.054 21.8009 178.147 24.7553 180.29 27.0358C182.172 29.0381 184.369 30.001 185.863 30.4949C188.74 31.4459 192.001 31.6016 194.684 31.6016V21.6016V11.6016C193.645 11.6016 192.905 11.5627 192.404 11.5109C191.861 11.4548 191.843 11.4074 192.139 11.5052C192.366 11.5801 193.611 12.0058 194.865 13.3395C195.535 14.0531 196.154 14.9739 196.578 16.0896C196.999 17.202 197.14 18.278 197.119 19.2077L187.121 18.9805ZM194.684 21.6016V31.6016C197.333 31.6016 200.555 31.4405 203.416 30.5027C204.894 30.0183 207.042 29.0866 208.91 27.1719C211.032 24.9972 212.246 22.1012 212.246 18.9805L202.246 18.9805H192.246C192.246 18.0152 192.422 16.9335 192.87 15.8409C193.317 14.7508 193.944 13.8715 194.597 13.2033C195.812 11.9574 196.988 11.5628 197.187 11.4973C197.457 11.409 197.423 11.4566 196.893 11.512C196.402 11.5633 195.682 11.6016 194.684 11.6016V21.6016ZM202.246 18.9805L212.246 18.9805C212.246 15.9089 211.076 13.0068 208.938 10.7989C207.059 8.85761 204.893 7.92065 203.416 7.43677C200.574 6.50518 197.36 6.3395 194.771 6.31679L194.684 16.3164L194.596 26.316C195.618 26.325 196.356 26.3672 196.865 26.4218C197.414 26.4808 197.454 26.5294 197.187 26.4421C196.989 26.3772 195.795 25.9773 194.569 24.7102C193.911 24.0308 193.289 23.1454 192.851 22.0594C192.412 20.974 192.246 19.9119 192.246 18.9805H202.246ZM248.137 10.2578H258.137C258.137 4.73496 253.66 0.257812 248.137 0.257812V10.2578ZM248.137 50.1328V60.1328C253.66 60.1328 258.137 55.6557 258.137 50.1328H248.137ZM241.176 50.1328H231.176C231.176 55.6557 235.653 60.1328 241.176 60.1328V50.1328ZM241.176 10.2578V0.257812C235.653 0.257812 231.176 4.73496 231.176 10.2578L241.176 10.2578ZM226.309 12.9219L226.239 22.9216C226.286 22.922 226.333 22.922 226.38 22.9216L226.309 12.9219ZM226.309 19.1523L226.139 29.1509C226.256 29.1529 226.373 29.1528 226.49 29.1507L226.309 19.1523ZM248.137 10.2578H238.137V50.1328H248.137H258.137V10.2578H248.137ZM248.137 50.1328V40.1328H241.176V50.1328V60.1328H248.137V50.1328ZM241.176 50.1328H251.176V10.2578H241.176L231.176 10.2578V50.1328H241.176ZM241.176 10.2578V20.2578H248.137V10.2578V0.257812L241.176 0.257812V10.2578ZM226.309 12.9219L226.38 22.9216C226.312 22.9221 226.142 22.8984 225.967 22.8086C225.805 22.7259 225.814 22.6776 225.935 22.836C226.205 23.1905 226.922 24.4912 226.922 27.2305H236.922H246.922C246.922 21.2041 245.361 15.329 241.84 10.7099C238.192 5.92601 232.659 2.87658 226.238 2.92213L226.309 12.9219ZM236.922 27.2305H226.922C226.922 30.0606 226.192 31.3827 225.922 31.7382C225.802 31.8969 225.791 31.8518 225.945 31.7725C226.11 31.6871 226.263 31.668 226.309 31.668V41.668V51.668C232.682 51.668 238.201 48.6412 241.852 43.8312C245.374 39.1915 246.922 33.2949 246.922 27.2305H236.922ZM226.309 41.668V31.668C226.287 31.668 226.392 31.6713 226.529 31.7408C226.658 31.8057 226.639 31.8393 226.519 31.6843C226.254 31.3394 225.523 30.0417 225.523 27.2305H215.523L205.523 27.2305C205.523 33.3138 207.092 39.2348 210.672 43.8851C214.385 48.7076 219.946 51.668 226.309 51.668V41.668ZM215.523 27.2305H225.523C225.523 24.5104 226.241 23.2341 226.507 22.8899C226.626 22.7352 226.643 22.7717 226.507 22.84C226.447 22.8705 226.38 22.8942 226.318 22.9085C226.257 22.9228 226.226 22.9215 226.239 22.9216L226.309 12.9219L226.378 2.92212C219.969 2.87761 214.394 5.85932 210.685 10.656C207.105 15.2855 205.523 21.1849 205.523 27.2305L215.523 27.2305ZM226.309 19.1523L226.478 9.15378C220.847 9.05833 216.648 12.3324 214.475 16.4014C212.634 19.8478 212.184 23.7964 212.184 27.2305H222.184H232.184C232.184 26.3137 232.252 25.7475 232.304 25.4633C232.361 25.1571 232.367 25.3544 232.116 25.8242C231.85 26.3227 231.223 27.2482 230.009 28.0301C228.731 28.8533 227.335 29.1712 226.139 29.1509L226.309 19.1523ZM222.184 27.2305H212.184C212.184 30.6849 212.627 34.6522 214.483 38.1119C216.697 42.2414 220.872 45.3516 226.309 45.3516V35.3516V25.3516C227.419 25.3516 228.754 25.6544 230.002 26.456C231.198 27.2252 231.83 28.1409 232.108 28.6596C232.367 29.1424 232.363 29.3506 232.306 29.0427C232.253 28.7555 232.184 28.1772 232.184 27.2305H222.184ZM226.309 35.3516V45.3516C231.908 45.3516 235.959 41.9872 238.035 38.0564C239.834 34.6505 240.305 30.7384 240.305 27.2305H230.305H220.305C220.305 28.1618 220.235 28.7385 220.181 29.0302C220.123 29.3421 220.114 29.164 220.351 28.7151C220.599 28.2444 221.195 27.3429 222.367 26.5583C223.607 25.7281 225.017 25.3516 226.309 25.3516V35.3516ZM230.305 27.2305H240.305C240.305 23.7431 239.828 19.8492 238.043 16.4568C236.012 12.5971 231.933 9.04842 226.127 9.154L226.309 19.1523L226.49 29.1507C225.104 29.1759 223.629 28.7795 222.359 27.9276C221.17 27.1301 220.58 26.2192 220.343 25.7688C220.114 25.3328 220.124 25.1656 220.182 25.4758C220.236 25.7648 220.305 26.3293 220.305 27.2305H230.305ZM298.453 32.043H308.453C308.453 26.5201 303.976 22.043 298.453 22.043V32.043ZM298.453 37.543V47.543C303.976 47.543 308.453 43.0658 308.453 37.543H298.453ZM290.633 37.543V27.543C285.11 27.543 280.633 32.0201 280.633 37.543H290.633ZM290.633 50.0039V60.0039C296.156 60.0039 300.633 55.5268 300.633 50.0039H290.633ZM283.629 50.0039H273.629C273.629 55.5268 278.106 60.0039 283.629 60.0039V50.0039ZM283.629 37.543H293.629C293.629 32.0201 289.152 27.543 283.629 27.543V37.543ZM276.797 37.543V27.543C271.274 27.543 266.797 32.0201 266.797 37.543H276.797ZM276.797 50.0039V60.0039C282.32 60.0039 286.797 55.5268 286.797 50.0039H276.797ZM269.75 50.0039H259.75C259.75 55.5268 264.227 60.0039 269.75 60.0039V50.0039ZM269.75 37.543H279.75C279.75 32.0201 275.273 27.543 269.75 27.543V37.543ZM262.188 37.543H252.188C252.188 43.0658 256.665 47.543 262.188 47.543V37.543ZM262.188 32.043V22.043C256.665 22.043 252.188 26.5201 252.188 32.043H262.188ZM280.191 11.4609L280.142 21.4608C280.175 21.461 280.208 21.461 280.241 21.4608L280.191 11.4609ZM265.496 20.6133L275.496 20.6926C275.496 20.6406 275.496 20.5885 275.496 20.5364L265.496 20.6133ZM280.191 24.0937L280.101 34.0933C280.161 34.0939 280.22 34.0939 280.28 34.0934L280.191 24.0937ZM298.453 32.043H288.453V37.543H298.453H308.453V32.043H298.453ZM298.453 37.543V27.543H290.633V37.543V47.543H298.453V37.543ZM290.633 37.543H280.633V50.0039H290.633H300.633V37.543H290.633ZM290.633 50.0039V40.0039H283.629V50.0039V60.0039H290.633V50.0039ZM283.629 50.0039H293.629V37.543H283.629H273.629V50.0039H283.629ZM283.629 37.543V27.543H276.797V37.543V47.543H283.629V37.543ZM276.797 37.543H266.797V50.0039H276.797H286.797V37.543H276.797ZM276.797 50.0039V40.0039H269.75V50.0039V60.0039H276.797V50.0039ZM269.75 50.0039H279.75V37.543H269.75H259.75V50.0039H269.75ZM269.75 37.543V27.543H262.188V37.543V47.543H269.75V37.543ZM262.188 37.543H272.188V32.043H262.188H252.188V37.543H262.188ZM262.188 32.043V42.043H298.453V32.043V22.043H262.188V32.043ZM280.191 11.4609L280.241 21.4608C283.317 21.4455 285.051 22.109 285.651 22.4733C285.903 22.6261 285.73 22.5866 285.478 22.1907C285.189 21.7368 285.016 21.1517 285.016 20.6133H295.016H305.016C305.016 13.5354 300.9 8.33527 296.033 5.37922C291.38 2.55312 285.703 1.43339 280.142 1.46106L280.191 11.4609ZM295.016 20.6133H285.016C285.016 19.961 285.23 19.2834 285.567 18.7728C285.859 18.3309 286.061 18.2808 285.794 18.4373C285.157 18.8095 283.355 19.4648 280.191 19.4648V29.4648V39.4648C285.665 39.4648 291.274 38.4015 295.891 35.7014C300.71 32.8826 305.016 27.7804 305.016 20.6133H295.016ZM280.191 29.4648V19.4648C277.024 19.4648 275.265 18.8081 274.676 18.4601C274.435 18.3173 274.657 18.3863 274.956 18.8492C275.299 19.3796 275.501 20.0606 275.496 20.6926L265.496 20.6133L255.496 20.5339C255.44 27.6744 259.662 32.8191 264.502 35.6786C269.112 38.4028 274.722 39.4648 280.191 39.4648V29.4648ZM265.496 20.6133L275.496 20.5364C275.5 21.0554 275.338 21.6427 275.043 22.1147C274.784 22.53 274.593 22.5882 274.819 22.4495C275.372 22.1104 277.063 21.4455 280.142 21.4608L280.191 11.4609L280.241 1.46106C274.684 1.43341 269.005 2.55175 264.359 5.40304C259.475 8.39975 255.442 13.64 255.496 20.6902L265.496 20.6133ZM280.191 16.918V6.91797C277.289 6.91797 273.656 7.22566 270.384 8.7474C268.637 9.55965 266.621 10.8915 265.033 13.0618C263.364 15.3431 262.586 17.9871 262.586 20.6133H272.586H282.586C282.586 21.9719 282.162 23.5202 281.174 24.8709C280.267 26.1107 279.258 26.6772 278.817 26.8825C278.387 27.0824 278.231 27.0671 278.556 27.0157C278.851 26.9689 279.381 26.918 280.191 26.918V16.918ZM272.586 20.6133H262.586C262.586 27.0654 267.031 30.8013 270.57 32.3596C273.721 33.7472 277.228 34.0675 280.101 34.0933L280.191 24.0937L280.281 14.0942C279.449 14.0867 278.882 14.0325 278.542 13.9791C278.171 13.9209 278.263 13.8937 278.63 14.0555C278.986 14.2122 279.998 14.723 280.956 15.9383C282.031 17.3011 282.586 18.9859 282.586 20.6133H272.586ZM280.191 24.0937L280.28 34.0934C283.175 34.0677 286.703 33.7523 289.866 32.3596C291.539 31.6229 293.566 30.3858 295.204 28.2914C296.956 26.0521 297.84 23.3642 297.84 20.6133H287.84H277.84C277.84 19.0225 278.375 17.3444 279.451 15.9685C280.414 14.7375 281.439 14.2174 281.807 14.0555C282.182 13.89 282.277 13.9179 281.897 13.9771C281.547 14.0315 280.964 14.0865 280.103 14.0941L280.191 24.0937ZM287.84 20.6133H297.84C297.84 18.0209 297.084 15.3841 295.421 13.0923C293.835 10.9072 291.812 9.56546 290.053 8.7474C286.769 7.22018 283.114 6.91797 280.191 6.91797V16.918V26.918C281.031 26.918 281.578 26.9698 281.883 27.0177C282.218 27.0703 282.058 27.0864 281.62 26.8825C281.166 26.6714 280.145 26.095 279.235 24.8404C278.247 23.4792 277.84 21.9381 277.84 20.6133H287.84ZM334.031 10.3437H344.031C344.031 4.8209 339.554 0.34375 334.031 0.34375V10.3437ZM334.031 39.1758V49.1758C339.554 49.1758 344.031 44.6986 344.031 39.1758H334.031ZM327.156 39.1758H317.156C317.156 44.6986 321.633 49.1758 327.156 49.1758V39.1758ZM327.156 30.625H337.156C337.156 25.1022 332.679 20.625 327.156 20.625V30.625ZM318.82 30.625V20.625C316.267 20.625 313.81 21.6017 311.954 23.3549L318.82 30.625ZM300.645 23.0625L310.644 23.1344C310.645 23.087 310.645 23.0395 310.644 22.9921L300.645 23.0625ZM318.863 15.457L311.913 22.6469C313.778 24.4494 316.27 25.457 318.863 25.457V15.457ZM327.156 15.457V25.457C332.679 25.457 337.156 20.9799 337.156 15.457L327.156 15.457ZM327.156 10.3437V0.34375C321.633 0.34375 317.156 4.8209 317.156 10.3437H327.156ZM334.891 43.9453H344.891C344.891 38.4225 340.413 33.9453 334.891 33.9453V43.9453ZM334.891 49.4453V59.4453C340.413 59.4453 344.891 54.9682 344.891 49.4453H334.891ZM307.133 49.4453H297.133C297.133 54.9682 301.61 59.4453 307.133 59.4453V49.4453ZM307.133 36.3398V26.3398C301.61 26.3398 297.133 30.817 297.133 36.3398H307.133ZM314.008 36.3398H324.008C324.008 30.817 319.531 26.3398 314.008 26.3398V36.3398ZM314.008 43.9453H304.008C304.008 49.4682 308.485 53.9453 314.008 53.9453V43.9453ZM311.387 18.6367L311.214 28.6352C311.335 28.6373 311.455 28.6372 311.575 28.6349L311.387 18.6367ZM307.176 23.0625L317.175 23.2117C317.176 23.1137 317.176 23.0156 317.175 22.9176L307.176 23.0625ZM311.387 27.4453L311.214 37.4438C311.335 37.4459 311.455 37.4458 311.575 37.4435L311.387 27.4453ZM315.512 23.0625L325.511 23.2117C325.512 23.1137 325.512 23.0156 325.511 22.9176L315.512 23.0625ZM321.828 25.168L312.01 23.2677C311.443 26.1984 312.215 29.2293 314.114 31.5318C316.014 33.8344 318.843 35.168 321.828 35.168V25.168ZM327.156 25.168V35.168C332.679 35.168 337.156 30.6908 337.156 25.168L327.156 25.168ZM327.156 20.9141L337.156 20.9141C337.156 15.3912 332.679 10.9141 327.156 10.9141V20.9141ZM321.828 20.9141V10.9141C318.853 10.9141 316.033 12.2385 314.133 14.5277C312.233 16.8169 311.451 19.8331 311.999 22.7569L321.828 20.9141ZM334.031 10.3437H324.031V39.1758H334.031H344.031V10.3437H334.031ZM334.031 39.1758V29.1758H327.156V39.1758V49.1758H334.031V39.1758ZM327.156 39.1758H337.156V30.625H327.156H317.156V39.1758H327.156ZM327.156 30.625V20.625H318.82V30.625V40.625H327.156V30.625ZM318.82 30.625L311.954 23.3549C311.902 23.4045 311.833 23.4504 311.748 23.4846C311.666 23.5172 311.55 23.5469 311.387 23.5469V33.5469V43.5469C316.844 43.5469 321.915 41.4575 325.687 37.8951L318.82 30.625ZM311.387 33.5469V23.5469C311.12 23.5469 310.947 23.4986 310.851 23.4602C310.752 23.4206 310.704 23.3803 310.688 23.3645C310.673 23.35 310.671 23.3439 310.669 23.3398C310.667 23.3357 310.662 23.3219 310.657 23.2942C310.651 23.2669 310.644 23.2152 310.644 23.1344L300.645 23.0625L290.645 22.9906C290.559 34.8722 300.142 43.5469 311.387 43.5469V33.5469ZM300.645 23.0625L310.644 22.9921C310.643 22.7801 310.68 22.6906 310.685 22.6809C310.69 22.6669 310.693 22.6647 310.698 22.6592C310.706 22.6519 310.744 22.6167 310.839 22.5792C310.931 22.5424 311.107 22.4922 311.387 22.4922V12.4922V2.49219C300.114 2.49219 290.56 11.1509 290.645 23.1329L300.645 23.0625ZM311.387 12.4922V22.4922C311.571 22.4922 311.692 22.5258 311.763 22.5544C311.837 22.5839 311.883 22.6182 311.913 22.6469L318.863 15.457L325.814 8.26715C321.988 4.56936 316.843 2.49219 311.387 2.49219V12.4922ZM318.863 15.457V25.457H327.156V15.457V5.45703H318.863V15.457ZM327.156 15.457L337.156 15.457V10.3437H327.156H317.156V15.457H327.156ZM327.156 10.3437V20.3437L334.031 20.3437V10.3437V0.34375H327.156V10.3437ZM334.891 43.9453H324.891V49.4453H334.891H344.891V43.9453H334.891ZM334.891 49.4453V39.4453H307.133V49.4453V59.4453H334.891V49.4453ZM307.133 49.4453H317.133V36.3398H307.133H297.133V49.4453H307.133ZM307.133 36.3398V46.3398H314.008V36.3398V26.3398H307.133V36.3398ZM314.008 36.3398H304.008V43.9453H314.008H324.008V36.3398H314.008ZM314.008 43.9453V53.9453H334.891V43.9453V33.9453H314.008V43.9453ZM311.387 18.6367L311.559 8.6382C308.28 8.58168 304.374 9.55871 301.285 12.6251C298.167 15.7209 297.126 19.7087 297.177 23.2074L307.176 23.0625L317.175 22.9176C317.182 23.4515 317.001 25.2049 315.376 26.8182C313.781 28.4022 312.001 28.6488 311.214 28.6352L311.387 18.6367ZM307.176 23.0625L297.177 22.9133C297.124 26.477 298.229 30.4245 301.337 33.4652C304.353 36.4157 308.109 37.3903 311.214 37.4438L311.387 27.4453L311.559 17.4468C312.172 17.4574 313.802 17.68 315.324 19.1696C316.939 20.7493 317.185 22.5269 317.175 23.2117L307.176 23.0625ZM311.387 27.4453L311.575 37.4435C314.794 37.3828 318.425 36.28 321.306 33.4399C324.244 30.5446 325.457 26.7797 325.511 23.2117L315.512 23.0625L305.513 22.9133C305.523 22.2242 305.812 20.6292 307.268 19.1949C308.667 17.8157 310.257 17.4649 311.198 17.4471L311.387 27.4453ZM315.512 23.0625L325.511 22.9176C325.46 19.4099 324.31 15.6027 321.358 12.6506C318.408 9.70076 314.619 8.57395 311.198 8.6385L311.387 18.6367L311.575 28.6349C310.431 28.6565 308.683 28.2602 307.216 26.7927C305.746 25.3231 305.521 23.7502 305.513 23.2074L315.512 23.0625ZM321.828 25.168V35.168H327.156V25.168V15.168H321.828V25.168ZM327.156 25.168L337.156 25.168V20.9141L327.156 20.9141H317.156V25.168H327.156ZM327.156 20.9141V10.9141H321.828V20.9141V30.9141H327.156V20.9141ZM321.828 20.9141L311.999 22.7569C312.046 23.0079 312.043 23.0815 312.043 23.0625H322.043H332.043C332.043 21.5396 331.868 20.1952 331.657 19.0712L321.828 20.9141ZM322.043 23.0625H312.043C312.043 23.0366 312.044 23.04 312.04 23.0768C312.037 23.1137 312.028 23.1763 312.01 23.2677L321.828 25.168L331.646 27.0682C331.867 25.9271 332.043 24.5681 332.043 23.0625H322.043ZM370.039 10.3437H380.039C380.039 4.8209 375.562 0.34375 370.039 0.34375V10.3437ZM370.039 21.9453H360.039C360.039 27.4682 364.516 31.9453 370.039 31.9453V21.9453ZM374.98 21.9453H384.98C384.98 16.4225 380.503 11.9453 374.98 11.9453V21.9453ZM374.98 27.5312V37.5312C380.503 37.5312 384.98 33.0541 384.98 27.5312H374.98ZM370.039 27.5312V17.5312C364.516 17.5312 360.039 22.0084 360.039 27.5312H370.039ZM370.039 39.9492V49.9492C375.562 49.9492 380.039 45.4721 380.039 39.9492H370.039ZM363.121 39.9492H353.121C353.121 45.4721 357.598 49.9492 363.121 49.9492V39.9492ZM363.121 10.3437V0.34375C357.598 0.34375 353.121 4.8209 353.121 10.3437H363.121ZM361.703 14.082H371.703C371.703 8.55918 367.226 4.08203 361.703 4.08203V14.082ZM361.703 19.4102V29.4102C367.226 29.4102 371.703 24.933 371.703 19.4102H361.703ZM338.199 19.4102L328.199 19.4102C328.199 24.933 332.676 29.4102 338.199 29.4102V19.4102ZM338.199 14.082V4.08203C332.676 4.08203 328.199 8.55918 328.199 14.082L338.199 14.082ZM346.492 14.082V24.082C352.015 24.082 356.492 19.6049 356.492 14.082H346.492ZM346.492 10.2578V0.257812C340.969 0.257812 336.492 4.73496 336.492 10.2578H346.492ZM353.41 10.2578H363.41C363.41 4.73496 358.933 0.257812 353.41 0.257812V10.2578ZM353.41 14.082H343.41C343.41 19.6049 347.887 24.082 353.41 24.082V14.082ZM349.93 35.9102L350.004 25.9104C349.955 25.9101 349.905 25.9101 349.856 25.9104L349.93 35.9102ZM349.93 25.5117L350.142 15.514C349.999 15.5109 349.856 15.511 349.712 15.5141L349.93 25.5117ZM371.199 43.9453H381.199C381.199 38.4225 376.722 33.9453 371.199 33.9453V43.9453ZM371.199 49.4453V59.4453C376.722 59.4453 381.199 54.9682 381.199 49.4453H371.199ZM343.699 49.4453H333.699C333.699 54.9682 338.176 59.4453 343.699 59.4453V49.4453ZM343.699 37.7148V27.7148C338.176 27.7148 333.699 32.192 333.699 37.7148H343.699ZM350.617 37.7148H360.617C360.617 32.192 356.14 27.7148 350.617 27.7148V37.7148ZM350.617 43.9453H340.617C340.617 49.4682 345.094 53.9453 350.617 53.9453V43.9453ZM370.039 10.3437L360.039 10.3437V21.9453H370.039H380.039V10.3437H370.039ZM370.039 21.9453V31.9453H374.98V21.9453V11.9453H370.039V21.9453ZM374.98 21.9453H364.98V27.5312H374.98H384.98V21.9453H374.98ZM374.98 27.5312V17.5312H370.039V27.5312V37.5312H374.98V27.5312ZM370.039 27.5312H360.039V39.9492H370.039H380.039V27.5312H370.039ZM370.039 39.9492V29.9492H363.121V39.9492V49.9492H370.039V39.9492ZM363.121 39.9492H373.121V10.3437L363.121 10.3437H353.121V39.9492H363.121ZM363.121 10.3437V20.3437H370.039V10.3437V0.34375H363.121V10.3437ZM361.703 14.082H351.703V19.4102H361.703H371.703V14.082H361.703ZM361.703 19.4102V9.41016H338.199V19.4102V29.4102H361.703V19.4102ZM338.199 19.4102H348.199V14.082H338.199L328.199 14.082V19.4102L338.199 19.4102ZM338.199 14.082V24.082H346.492V14.082V4.08203H338.199V14.082ZM346.492 14.082H356.492V10.2578H346.492H336.492V14.082H346.492ZM346.492 10.2578V20.2578H353.41V10.2578V0.257812H346.492V10.2578ZM353.41 10.2578H343.41V14.082H353.41H363.41V10.2578H353.41ZM353.41 14.082V24.082H361.703V14.082V4.08203H353.41V14.082ZM349.93 20.3125V30.3125C351.054 30.3125 351.22 30.6276 350.874 30.3546C350.685 30.2053 350.404 29.9165 350.176 29.4615C349.943 28.9946 349.855 28.5307 349.855 28.1758H359.855H369.855C369.855 22.6148 367.278 17.8215 363.262 14.6532C359.403 11.6088 354.606 10.3125 349.93 10.3125V20.3125ZM359.855 28.1758H349.855C349.855 27.8199 349.943 27.3371 350.193 26.843C350.436 26.3606 350.74 26.052 350.949 25.8902C351.327 25.5972 351.171 25.9191 350.004 25.9104L349.93 35.9102L349.856 45.9099C354.489 45.9442 359.296 44.7192 363.187 41.7084C367.258 38.5585 369.855 33.7551 369.855 28.1758H359.855ZM349.93 35.9102L349.856 25.9104C348.651 25.9193 348.458 25.5885 348.817 25.8633C349.017 26.017 349.322 26.3211 349.57 26.8078C349.825 27.3076 349.918 27.8027 349.918 28.1758H339.918L329.918 28.1758C329.918 33.7961 332.562 38.6025 336.648 41.7354C340.551 44.7279 345.365 45.944 350.003 45.9099L349.93 35.9102ZM339.918 28.1758H349.918C349.918 28.5478 349.826 29.024 349.587 29.4966C349.355 29.956 349.073 30.2406 348.892 30.382C348.565 30.6371 348.766 30.3125 349.93 30.3125V20.3125V10.3125C340.995 10.3125 329.918 15.8603 329.918 28.1758L339.918 28.1758ZM349.93 25.5117L349.712 15.5141C347.626 15.5594 344.4 16.0091 341.484 18.2374C338.103 20.8212 336.664 24.6064 336.664 28.1758H346.664H356.664C356.664 28.9203 356.528 29.991 355.987 31.1714C355.43 32.3861 354.591 33.3924 353.627 34.1288C351.85 35.487 350.257 35.507 350.147 35.5094L349.93 25.5117ZM346.664 28.1758H336.664C336.664 31.7498 338.115 35.6104 341.629 38.196C344.621 40.3975 347.892 40.7539 349.93 40.7539V30.7539V20.7539C349.99 20.7539 351.629 20.7236 353.482 22.0872C354.497 22.8335 355.38 23.8677 355.964 25.1234C356.529 26.3383 356.664 27.4346 356.664 28.1758H346.664ZM349.93 30.7539V40.7539C351.961 40.7539 355.169 40.4071 358.134 38.3235C361.66 35.8454 363.324 31.996 363.324 28.1758H353.324H343.324C343.324 27.3443 343.488 26.1799 344.104 24.927C344.734 23.6461 345.653 22.6496 346.635 21.9597C348.408 20.714 349.918 20.7539 349.93 20.7539V30.7539ZM353.324 28.1758H363.324C363.324 24.366 361.678 20.5855 358.279 18.1052C355.384 15.9925 352.218 15.5581 350.142 15.514L349.93 25.5117L349.717 35.5095C349.661 35.5083 348.192 35.5036 346.49 34.261C345.555 33.5788 344.681 32.607 344.079 31.3665C343.489 30.1485 343.324 29.0102 343.324 28.1758H353.324ZM371.199 43.9453H361.199V49.4453H371.199H381.199V43.9453H371.199ZM371.199 49.4453V39.4453H343.699V49.4453V59.4453H371.199V49.4453ZM343.699 49.4453H353.699V37.7148H343.699H333.699V49.4453H343.699ZM343.699 37.7148V47.7148H350.617V37.7148V27.7148H343.699V37.7148ZM350.617 37.7148H340.617V43.9453H350.617H360.617V37.7148H350.617ZM350.617 43.9453V53.9453H371.199V43.9453V33.9453H350.617V43.9453Z" fill="white" mask="url(#path-1-outside-1_6524_1840)"/>
</g>
<defs>
<filter id="filter0_d_6524_1840" x="0" y="0" width="388.98" height="68.1328" filterUnits="userSpaceOnUse" color-interpolation-filters="sRGB">
<feFlood flood-opacity="0" result="BackgroundImageFix"/>
<feColorMatrix in="SourceAlpha" type="matrix" values="0 0 0 0 0 0 0 0 0 0 0 0 0 0 0 0 0 0 127 0" result="hardAlpha"/>
<feOffset dy="4"/>
<feGaussianBlur stdDeviation="2"/>
<feComposite in2="hardAlpha" operator="out"/>
<feColorMatrix type="matrix" values="0 0 0 0 0 0 0 0 0 0 0 0 0 0 0 0 0 0 0.07 0"/>
<feBlend mode="normal" in2="BackgroundImageFix" result="effect1_dropShadow_6524_1840"/>
<feBlend mode="normal" in="SourceGraphic" in2="effect1_dropShadow_6524_1840" result="shape"/>
</filter>
</defs>
</svg>
