<svg width="301" height="68" viewBox="0 0 301 68" fill="none" xmlns="http://www.w3.org/2000/svg">
<g filter="url(#filter0_d_6524_1904)">
<mask id="path-1-outside-1_6524_1904" maskUnits="userSpaceOnUse" x="3.69922" y="-0.507813" width="294" height="61" fill="black">
<rect fill="white" x="3.69922" y="-0.507813" width="294" height="61"/>
<path d="M30.457 14.8984C30.457 20.0117 32.3477 24.8672 39.0938 26.8438L35.4844 32.2148C31.3809 30.8613 28.7168 28.4336 27.1055 25.2539C25.3438 29.0137 22.293 31.9785 17.6523 33.4609L14 27.9609C21.3047 25.7695 23.4531 20.3984 23.4961 15.2422V11.9766H30.457V14.8984ZM48.418 10V33.1602H41.543V22.1172H35.0117V16.5312H41.543V10L48.418 10ZM34.582 34.1055C43.2188 34.1055 48.5039 37.0273 48.5039 41.9688C48.5039 46.9531 43.2188 49.832 34.582 49.832C26.0312 49.832 20.7461 46.9531 20.7461 41.9688C20.7461 37.0273 26.0312 34.1055 34.582 34.1055ZM34.582 39.3906C29.8555 39.3906 27.5781 40.1211 27.6211 41.9688C27.5781 43.7305 29.8555 44.5039 34.582 44.5039C39.3516 44.5039 41.6719 43.7305 41.6719 41.9688C41.6719 40.1211 39.3516 39.3906 34.582 39.3906ZM75.3164 12.5352V17.9492H68.0977C68.4629 21.8594 70.7832 25.6621 76.8203 27.3594L73.5977 32.7305C69.3438 31.5273 66.4863 29.1641 64.7461 26.1562C62.9629 29.8086 59.9336 32.709 55.25 34.1484L51.7695 28.7773C58.1934 26.7793 60.5781 22.2891 61.0078 17.9492H53.5742V12.5352H75.3164ZM84.4258 10V18.6797H89.3672V24.2227H84.4258V33.332H77.5078V10H84.4258ZM71.2344 33.9336C79.5703 33.8906 84.8125 36.8555 84.8125 41.8398C84.8125 46.8242 79.5703 49.832 71.2344 49.832C62.6836 49.832 57.3125 46.8242 57.3555 41.8398C57.3125 36.8555 62.6836 33.8906 71.2344 33.9336ZM71.2344 39.2188C66.5508 39.2188 64.2305 39.9492 64.2305 41.8398C64.2305 43.7305 66.5508 44.5039 71.2344 44.5039C75.832 44.5039 77.9805 43.7305 77.9805 41.8398C77.9805 39.9492 75.832 39.2188 71.2344 39.2188ZM124.215 10V49.875H117.254V10H124.215ZM102.387 12.6641C108.445 12.6211 113 18.207 113 26.9727C113 35.8672 108.445 41.4102 102.387 41.4102C96.1992 41.4102 91.6016 35.8672 91.6016 26.9727C91.6016 18.207 96.1992 12.6211 102.387 12.6641ZM102.387 18.8945C99.8516 18.8516 98.2617 21.4727 98.2617 26.9727C98.2617 32.5586 99.8516 35.0938 102.387 35.0938C104.75 35.0938 106.383 32.5586 106.383 26.9727C106.383 21.4727 104.75 18.8516 102.387 18.8945ZM170.062 10.0859V21.043H175.004V26.6719H170.062V38.7461H163.145V10.0859H170.062ZM171.223 43.6875V49.1875H143.723V35.6953H150.641V43.6875H171.223ZM149.395 12.4492C155.582 12.4492 160.523 16.7461 160.523 22.7617C160.523 28.6055 155.582 33.0312 149.395 33.0312C143.207 33.0312 138.223 28.6055 138.223 22.7617C138.223 16.7461 143.207 12.4492 149.395 12.4492ZM149.395 18.4219C146.988 18.4219 144.969 19.8398 144.969 22.7617C144.969 25.5547 146.988 27.0156 149.395 27.0156C151.887 27.0156 153.777 25.5547 153.82 22.7617C153.777 19.8398 151.887 18.4219 149.395 18.4219ZM210.109 10V33.5898H203.234V24.8242H198.25V19.2812H203.234V10H210.109ZM196.273 34.2344C204.91 34.2344 210.195 37.1133 210.195 42.0547C210.195 46.9531 204.91 49.875 196.273 49.875C187.723 49.875 182.438 46.9531 182.438 42.0547C182.438 37.1133 187.723 34.2344 196.273 34.2344ZM196.273 39.4336C191.547 39.4336 189.27 40.1641 189.312 42.0547C189.27 43.9023 191.547 44.6758 196.273 44.6758C201.043 44.6758 203.363 43.9023 203.363 42.0547C203.363 40.1641 201.043 39.4336 196.273 39.4336ZM199.324 12.1055V17.6055H192.148C192.557 21.5801 194.877 25.5762 200.742 27.4883L197.434 32.8594C193.18 31.5488 190.365 28.9707 188.625 25.7695C186.906 29.4219 183.92 32.3652 179.344 33.8477L175.777 28.3906C182.115 26.3711 184.5 21.8594 184.93 17.6055H177.711V12.1055H199.324ZM237.352 11.9336V17.3477H230.133C230.477 21.3652 232.775 25.4902 238.77 27.4453L235.461 32.7305C231.186 31.4629 228.35 28.9062 226.652 25.6836C224.891 29.25 221.926 32.1074 217.371 33.4609L213.848 28.0469C220.25 26.1348 222.592 21.5801 223 17.3477H215.738V11.9336H237.352ZM248.137 35.1367V49.7461H241.262V40.5937H220.508V35.1367H248.137ZM248.137 10V33.6328H241.262V24.6094H236.32V19.0234H241.262V10H248.137ZM285.863 10.0859V38.3164H278.945V10.0859H285.863ZM286.809 43.6875V49.1875H258.664V35.4805H265.625V43.6875H286.809ZM263.906 12.4492C270.094 12.4492 275.035 16.7461 275.035 22.6328C275.035 28.6484 270.094 32.9023 263.906 32.9023C257.719 32.9023 252.734 28.6484 252.777 22.6328C252.734 16.7461 257.719 12.4492 263.906 12.4492ZM263.906 18.4219C261.371 18.4219 259.48 19.8398 259.48 22.6328C259.48 25.5547 261.371 26.9297 263.906 26.9297C266.312 26.9297 268.203 25.5547 268.203 22.6328C268.203 19.8398 266.312 18.4219 263.906 18.4219Z"/>
</mask>
<path d="M30.457 14.8984C30.457 20.0117 32.3477 24.8672 39.0938 26.8438L35.4844 32.2148C31.3809 30.8613 28.7168 28.4336 27.1055 25.2539C25.3438 29.0137 22.293 31.9785 17.6523 33.4609L14 27.9609C21.3047 25.7695 23.4531 20.3984 23.4961 15.2422V11.9766H30.457V14.8984ZM48.418 10V33.1602H41.543V22.1172H35.0117V16.5312H41.543V10L48.418 10ZM34.582 34.1055C43.2188 34.1055 48.5039 37.0273 48.5039 41.9688C48.5039 46.9531 43.2188 49.832 34.582 49.832C26.0312 49.832 20.7461 46.9531 20.7461 41.9688C20.7461 37.0273 26.0312 34.1055 34.582 34.1055ZM34.582 39.3906C29.8555 39.3906 27.5781 40.1211 27.6211 41.9688C27.5781 43.7305 29.8555 44.5039 34.582 44.5039C39.3516 44.5039 41.6719 43.7305 41.6719 41.9688C41.6719 40.1211 39.3516 39.3906 34.582 39.3906ZM75.3164 12.5352V17.9492H68.0977C68.4629 21.8594 70.7832 25.6621 76.8203 27.3594L73.5977 32.7305C69.3438 31.5273 66.4863 29.1641 64.7461 26.1562C62.9629 29.8086 59.9336 32.709 55.25 34.1484L51.7695 28.7773C58.1934 26.7793 60.5781 22.2891 61.0078 17.9492H53.5742V12.5352H75.3164ZM84.4258 10V18.6797H89.3672V24.2227H84.4258V33.332H77.5078V10H84.4258ZM71.2344 33.9336C79.5703 33.8906 84.8125 36.8555 84.8125 41.8398C84.8125 46.8242 79.5703 49.832 71.2344 49.832C62.6836 49.832 57.3125 46.8242 57.3555 41.8398C57.3125 36.8555 62.6836 33.8906 71.2344 33.9336ZM71.2344 39.2188C66.5508 39.2188 64.2305 39.9492 64.2305 41.8398C64.2305 43.7305 66.5508 44.5039 71.2344 44.5039C75.832 44.5039 77.9805 43.7305 77.9805 41.8398C77.9805 39.9492 75.832 39.2188 71.2344 39.2188ZM124.215 10V49.875H117.254V10H124.215ZM102.387 12.6641C108.445 12.6211 113 18.207 113 26.9727C113 35.8672 108.445 41.4102 102.387 41.4102C96.1992 41.4102 91.6016 35.8672 91.6016 26.9727C91.6016 18.207 96.1992 12.6211 102.387 12.6641ZM102.387 18.8945C99.8516 18.8516 98.2617 21.4727 98.2617 26.9727C98.2617 32.5586 99.8516 35.0938 102.387 35.0938C104.75 35.0938 106.383 32.5586 106.383 26.9727C106.383 21.4727 104.75 18.8516 102.387 18.8945ZM170.062 10.0859V21.043H175.004V26.6719H170.062V38.7461H163.145V10.0859H170.062ZM171.223 43.6875V49.1875H143.723V35.6953H150.641V43.6875H171.223ZM149.395 12.4492C155.582 12.4492 160.523 16.7461 160.523 22.7617C160.523 28.6055 155.582 33.0312 149.395 33.0312C143.207 33.0312 138.223 28.6055 138.223 22.7617C138.223 16.7461 143.207 12.4492 149.395 12.4492ZM149.395 18.4219C146.988 18.4219 144.969 19.8398 144.969 22.7617C144.969 25.5547 146.988 27.0156 149.395 27.0156C151.887 27.0156 153.777 25.5547 153.82 22.7617C153.777 19.8398 151.887 18.4219 149.395 18.4219ZM210.109 10V33.5898H203.234V24.8242H198.25V19.2812H203.234V10H210.109ZM196.273 34.2344C204.91 34.2344 210.195 37.1133 210.195 42.0547C210.195 46.9531 204.91 49.875 196.273 49.875C187.723 49.875 182.438 46.9531 182.438 42.0547C182.438 37.1133 187.723 34.2344 196.273 34.2344ZM196.273 39.4336C191.547 39.4336 189.27 40.1641 189.312 42.0547C189.27 43.9023 191.547 44.6758 196.273 44.6758C201.043 44.6758 203.363 43.9023 203.363 42.0547C203.363 40.1641 201.043 39.4336 196.273 39.4336ZM199.324 12.1055V17.6055H192.148C192.557 21.5801 194.877 25.5762 200.742 27.4883L197.434 32.8594C193.18 31.5488 190.365 28.9707 188.625 25.7695C186.906 29.4219 183.92 32.3652 179.344 33.8477L175.777 28.3906C182.115 26.3711 184.5 21.8594 184.93 17.6055H177.711V12.1055H199.324ZM237.352 11.9336V17.3477H230.133C230.477 21.3652 232.775 25.4902 238.77 27.4453L235.461 32.7305C231.186 31.4629 228.35 28.9062 226.652 25.6836C224.891 29.25 221.926 32.1074 217.371 33.4609L213.848 28.0469C220.25 26.1348 222.592 21.5801 223 17.3477H215.738V11.9336H237.352ZM248.137 35.1367V49.7461H241.262V40.5937H220.508V35.1367H248.137ZM248.137 10V33.6328H241.262V24.6094H236.32V19.0234H241.262V10H248.137ZM285.863 10.0859V38.3164H278.945V10.0859H285.863ZM286.809 43.6875V49.1875H258.664V35.4805H265.625V43.6875H286.809ZM263.906 12.4492C270.094 12.4492 275.035 16.7461 275.035 22.6328C275.035 28.6484 270.094 32.9023 263.906 32.9023C257.719 32.9023 252.734 28.6484 252.777 22.6328C252.734 16.7461 257.719 12.4492 263.906 12.4492ZM263.906 18.4219C261.371 18.4219 259.48 19.8398 259.48 22.6328C259.48 25.5547 261.371 26.9297 263.906 26.9297C266.312 26.9297 268.203 25.5547 268.203 22.6328C268.203 19.8398 266.312 18.4219 263.906 18.4219Z" fill="#11DCA9"/>
<path d="M39.0938 26.8438L47.3938 32.4214C49.1718 29.7754 49.5818 26.4403 48.4976 23.4425C47.4133 20.4447 44.9647 18.1435 41.9055 17.2472L39.0938 26.8438ZM35.4844 32.2148L32.3519 41.7116C36.6104 43.1162 41.2833 41.5143 43.7844 37.7925L35.4844 32.2148ZM27.1055 25.2539L36.0255 20.7336C34.297 17.3227 30.7747 15.1961 26.9512 15.2551C23.1278 15.3141 19.6727 17.5483 18.0503 21.0109L27.1055 25.2539ZM17.6523 33.4609L9.32184 38.9929C11.7944 42.7163 16.4376 44.3468 20.6953 42.9867L17.6523 33.4609ZM14 27.9609L11.1265 18.3827C8.09324 19.2927 5.67027 21.5856 4.59457 24.5642C3.51887 27.5427 3.91761 30.8548 5.6695 33.4929L14 27.9609ZM23.4961 15.2422L33.4957 15.3255C33.496 15.2977 33.4961 15.27 33.4961 15.2422H23.4961ZM23.4961 11.9766V1.97656C17.9732 1.97656 13.4961 6.45372 13.4961 11.9766H23.4961ZM30.457 11.9766H40.457C40.457 6.45372 35.9799 1.97656 30.457 1.97656V11.9766ZM48.418 10H58.418C58.418 4.47715 53.9408 0 48.418 0V10ZM48.418 33.1602V43.1602C53.9408 43.1602 58.418 38.683 58.418 33.1602H48.418ZM41.543 33.1602H31.543C31.543 38.683 36.0201 43.1602 41.543 43.1602V33.1602ZM41.543 22.1172H51.543C51.543 16.5943 47.0658 12.1172 41.543 12.1172V22.1172ZM35.0117 22.1172H25.0117C25.0117 27.64 29.4889 32.1172 35.0117 32.1172V22.1172ZM35.0117 16.5312V6.53125C29.4889 6.53125 25.0117 11.0084 25.0117 16.5312H35.0117ZM41.543 16.5312V26.5312C47.0658 26.5312 51.543 22.0541 51.543 16.5312H41.543ZM41.543 10V0C36.0201 0 31.543 4.47715 31.543 10H41.543ZM27.6211 41.9688L37.6181 42.2126C37.622 42.0538 37.6221 41.895 37.6184 41.7363L27.6211 41.9688ZM30.457 14.8984H20.457C20.457 18.5877 21.1255 23.134 23.7717 27.3571C26.5531 31.7959 30.8793 34.8574 36.282 36.4403L39.0938 26.8438L41.9055 17.2472C41.1636 17.0298 40.84 16.8184 40.7526 16.7553C40.6816 16.704 40.6991 16.705 40.7195 16.7376C40.7339 16.7606 40.457 16.3225 40.457 14.8984H30.457ZM39.0938 26.8438L30.7937 21.2661L27.1844 26.6372L35.4844 32.2148L43.7844 37.7925L47.3938 32.4214L39.0938 26.8438ZM35.4844 32.2148L38.6168 22.7181C37.6633 22.4036 37.1374 22.0553 36.8377 21.8005C36.5432 21.5502 36.2763 21.2285 36.0255 20.7336L27.1055 25.2539L18.1854 29.7742C21.0282 35.3839 25.814 39.5551 32.3519 41.7116L35.4844 32.2148ZM27.1055 25.2539L18.0503 21.0109C17.4182 22.3599 16.4841 23.3363 14.6094 23.9352L17.6523 33.4609L20.6953 42.9867C28.1019 40.6207 33.2693 35.6675 36.1607 29.4969L27.1055 25.2539ZM17.6523 33.4609L25.9828 27.929L22.3305 22.429L14 27.9609L5.6695 33.4929L9.32184 38.9929L17.6523 33.4609ZM14 27.9609L16.8735 37.5392C22.5671 35.8311 27.0044 32.5928 29.8797 28.126C32.6437 23.8322 33.4636 19.189 33.4957 15.3255L23.4961 15.2422L13.4964 15.1589C13.4857 16.4516 13.2098 17.0721 13.0627 17.3008C12.9973 17.4022 12.8978 17.5271 12.6853 17.6813C12.4622 17.8432 11.9967 18.1216 11.1265 18.3827L14 27.9609ZM23.4961 15.2422H33.4961V11.9766H23.4961H13.4961V15.2422H23.4961ZM23.4961 11.9766V21.9766H30.457V11.9766V1.97656L23.4961 1.97656V11.9766ZM30.457 11.9766H20.457V14.8984H30.457H40.457V11.9766H30.457ZM48.418 10L38.418 10V33.1602H48.418H58.418V10H48.418ZM48.418 33.1602V23.1602H41.543V33.1602V43.1602H48.418V33.1602ZM41.543 33.1602H51.543V22.1172H41.543H31.543V33.1602H41.543ZM41.543 22.1172V12.1172H35.0117V22.1172V32.1172H41.543V22.1172ZM35.0117 22.1172H45.0117V16.5312H35.0117H25.0117V22.1172H35.0117ZM35.0117 16.5312V26.5312H41.543V16.5312V6.53125H35.0117V16.5312ZM41.543 16.5312H51.543V10L41.543 10H31.543V16.5312H41.543ZM41.543 10V20H48.418V10V0H41.543V10ZM34.582 34.1055V44.1055C36.196 44.1055 37.4579 44.2436 38.3895 44.4348C39.3381 44.6296 39.7837 44.8463 39.8856 44.9035C39.971 44.9514 39.579 44.7512 39.1615 44.1096C38.7027 43.4045 38.5039 42.6082 38.5039 41.9688H48.5039H58.5039C58.5039 35.1815 54.5683 30.2108 49.6779 27.4647C45.2068 24.9541 39.8062 24.1055 34.582 24.1055V34.1055ZM48.5039 41.9688H38.5039C38.5039 41.3567 38.6938 40.5662 39.1563 39.854C39.5782 39.2044 39.9786 38.9981 39.9005 39.0418C39.8038 39.0959 39.3609 39.3111 38.408 39.5049C37.4725 39.6952 36.2049 39.832 34.582 39.832V49.832V59.832C39.7832 59.832 45.1855 59.0014 49.663 56.4973C54.587 53.7433 58.5039 48.7584 58.5039 41.9688H48.5039ZM34.582 49.832V39.832C32.9865 39.832 31.7393 39.6961 30.8194 39.5077C29.8823 39.3158 29.4479 39.1031 29.3555 39.0512C29.2811 39.0094 29.679 39.2162 30.0976 39.8621C30.5565 40.5703 30.7461 41.357 30.7461 41.9688H20.7461H10.7461C10.7461 48.7508 14.6544 53.7322 19.5596 56.4879C24.026 58.9972 29.41 59.832 34.582 59.832V49.832ZM20.7461 41.9688H30.7461C30.7461 42.6078 30.5476 43.4005 30.0925 44.1015C29.6782 44.7394 29.2888 44.9401 29.3704 44.8941C29.4681 44.839 29.9051 44.6249 30.838 44.432C31.754 44.2426 32.9954 44.1055 34.582 44.1055V34.1055V24.1055C29.3869 24.1055 24.0046 24.9585 19.5447 27.4741C14.6731 30.2219 10.7461 35.1891 10.7461 41.9688H20.7461ZM34.582 39.3906V29.3906C32.048 29.3906 28.8221 29.5407 25.9413 30.5724C24.4054 31.1224 22.2351 32.1758 20.4323 34.2798C18.4301 36.6165 17.56 39.4575 17.6238 42.2012L27.6211 41.9688L37.6184 41.7363C37.6607 43.5562 37.0591 45.613 35.6196 47.2931C34.3794 48.7404 33.0658 49.2648 32.6847 49.4013C32.2668 49.5509 32.1571 49.5215 32.597 49.4727C32.9937 49.4286 33.6319 49.3906 34.582 49.3906V39.3906ZM27.6211 41.9688L17.6241 41.7249C17.5545 44.5775 18.5083 47.4255 20.5129 49.7076C22.3047 51.7475 24.4376 52.7729 25.9413 53.3114C28.7969 54.3341 31.993 54.5039 34.582 54.5039V44.5039V34.5039C33.6491 34.5039 33.0185 34.4645 32.627 34.4199C32.1948 34.3706 32.2884 34.3406 32.6847 34.4825C33.0335 34.6075 34.3098 35.1092 35.539 36.5086C36.981 38.1502 37.6662 40.2408 37.6181 42.2126L27.6211 41.9688ZM34.582 44.5039V54.5039C37.199 54.5039 40.3858 54.3317 43.2325 53.3308C44.7268 52.8055 46.8298 51.8135 48.6237 49.8464C50.6294 47.647 51.6719 44.8516 51.6719 41.9688H41.6719H31.6719C31.6719 39.9667 32.4243 37.9287 33.8459 36.3698C35.0557 35.0432 36.2806 34.5749 36.5986 34.4631C36.9648 34.3344 37.0305 34.3679 36.5828 34.4184C36.1739 34.4644 35.5274 34.5039 34.582 34.5039V44.5039ZM41.6719 41.9688H51.6719C51.6719 39.1918 50.7149 36.3978 48.7064 34.14C46.8993 32.1085 44.7579 31.0893 43.2325 30.5529C40.3608 29.5433 37.1449 29.3906 34.582 29.3906V39.3906V49.3906C35.5445 49.3906 36.1985 49.4287 36.6125 49.4741C37.0677 49.524 36.9861 49.5569 36.5986 49.4207C36.2495 49.2979 34.9862 48.8077 33.7632 47.4329C32.3388 45.8317 31.6719 43.8219 31.6719 41.9688H41.6719ZM75.3164 12.5352L85.3164 12.5352C85.3164 7.01231 80.8393 2.53516 75.3164 2.53516V12.5352ZM75.3164 17.9492V27.9492C80.8393 27.9492 85.3164 23.4721 85.3164 17.9492L75.3164 17.9492ZM68.0977 17.9492V7.94922C65.2837 7.94922 62.6 9.13478 60.7051 11.215C58.8101 13.2952 57.8793 16.0775 58.141 18.8792L68.0977 17.9492ZM76.8203 27.3594L85.3952 32.5043C86.9989 29.8316 87.2646 26.564 86.1138 23.6673C84.963 20.7706 82.5274 18.5762 79.5268 17.7326L76.8203 27.3594ZM73.5977 32.7305L70.8761 42.353C75.2206 43.5818 79.8497 41.747 82.1726 37.8754L73.5977 32.7305ZM64.7461 26.1562L73.4018 21.1483C71.5512 17.9498 68.0876 16.0325 64.3946 16.1624C60.7015 16.2923 57.3812 18.4482 55.7599 21.7689L64.7461 26.1562ZM55.25 34.1484L46.8579 39.5865C49.2889 43.3381 53.9146 45.0205 58.1878 43.7072L55.25 34.1484ZM51.7695 28.7773L48.7995 19.2286C45.8114 20.158 43.4307 22.4326 42.366 25.3753C41.3014 28.3179 41.6757 31.5893 43.3774 34.2154L51.7695 28.7773ZM61.0078 17.9492L70.9592 18.9345C71.2374 16.1247 70.3147 13.3282 68.419 11.2355C66.5234 9.14291 63.8314 7.94922 61.0078 7.94922V17.9492ZM53.5742 17.9492H43.5742C43.5742 23.4721 48.0514 27.9492 53.5742 27.9492V17.9492ZM53.5742 12.5352V2.53516C48.0514 2.53516 43.5742 7.01231 43.5742 12.5352H53.5742ZM84.4258 10H94.4258C94.4258 4.47715 89.9486 0 84.4258 0V10ZM84.4258 18.6797L74.4258 18.6797C74.4258 24.2025 78.9029 28.6797 84.4258 28.6797V18.6797ZM89.3672 18.6797H99.3672C99.3672 13.1568 94.89 8.67969 89.3672 8.67969V18.6797ZM89.3672 24.2227V34.2227C94.89 34.2227 99.3672 29.7455 99.3672 24.2227H89.3672ZM84.4258 24.2227V14.2227C78.9029 14.2227 74.4258 18.6998 74.4258 24.2227L84.4258 24.2227ZM84.4258 33.332V43.332C89.9486 43.332 94.4258 38.8549 94.4258 33.332H84.4258ZM77.5078 33.332H67.5078C67.5078 38.8549 71.985 43.332 77.5078 43.332V33.332ZM77.5078 10V0C71.985 0 67.5078 4.47715 67.5078 10H77.5078ZM71.2344 33.9336L71.1841 43.9335C71.2181 43.9336 71.252 43.9336 71.2859 43.9335L71.2344 33.9336ZM57.3555 41.8398L67.3551 41.926C67.3556 41.8686 67.3556 41.8111 67.3551 41.7536L57.3555 41.8398ZM75.3164 12.5352H65.3164V17.9492H75.3164L85.3164 17.9492V12.5352L75.3164 12.5352ZM75.3164 17.9492V7.94922H68.0977V17.9492V27.9492H75.3164V17.9492ZM68.0977 17.9492L58.141 18.8792C58.4805 22.514 59.7784 26.4503 62.659 29.897C65.5483 33.354 69.5042 35.6902 74.1138 36.9862L76.8203 27.3594L79.5268 17.7326C78.793 17.5263 78.38 17.3147 78.1824 17.1938C77.9943 17.0786 77.9666 17.0253 78.005 17.0712C78.0427 17.1163 78.0721 17.1711 78.0843 17.2023C78.0925 17.2233 78.0686 17.1717 78.0543 17.0192L68.0977 17.9492ZM76.8203 27.3594L68.2454 22.2144L65.0227 27.5855L73.5977 32.7305L82.1726 37.8754L85.3952 32.5043L76.8203 27.3594ZM73.5977 32.7305L76.3192 23.1079C75.2942 22.818 74.6742 22.4593 74.2967 22.1712C73.924 21.8867 73.639 21.5583 73.4018 21.1483L64.7461 26.1562L56.0904 31.1642C59.1974 36.5342 64.2452 40.4776 70.8761 42.353L73.5977 32.7305ZM64.7461 26.1562L55.7599 21.7689C55.1366 23.0456 54.2356 23.9986 52.3122 24.5897L55.25 34.1484L58.1878 43.7072C65.6316 41.4194 70.7892 36.5716 73.7323 30.5436L64.7461 26.1562ZM55.25 34.1484L63.6421 28.7104L60.1616 23.3393L51.7695 28.7773L43.3774 34.2154L46.8579 39.5865L55.25 34.1484ZM51.7695 28.7773L54.7396 38.3261C59.7342 36.7726 63.7653 34.0258 66.6028 30.2861C69.3853 26.619 70.6007 22.5553 70.9592 18.9345L61.0078 17.9492L51.0565 16.9639C50.9853 17.683 50.7935 18.0343 50.6701 18.1969C50.6019 18.2867 50.2286 18.7841 48.7995 19.2286L51.7695 28.7773ZM61.0078 17.9492V7.94922H53.5742V17.9492V27.9492H61.0078V17.9492ZM53.5742 17.9492H63.5742V12.5352H53.5742H43.5742V17.9492H53.5742ZM53.5742 12.5352V22.5352H75.3164V12.5352V2.53516L53.5742 2.53516V12.5352ZM84.4258 10H74.4258V18.6797L84.4258 18.6797H94.4258V10H84.4258ZM84.4258 18.6797V28.6797H89.3672V18.6797V8.67969H84.4258V18.6797ZM89.3672 18.6797H79.3672V24.2227H89.3672H99.3672V18.6797H89.3672ZM89.3672 24.2227V14.2227H84.4258V24.2227V34.2227H89.3672V24.2227ZM84.4258 24.2227L74.4258 24.2227V33.332H84.4258H94.4258V24.2227H84.4258ZM84.4258 33.332V23.332L77.5078 23.332V33.332V43.332H84.4258V33.332ZM77.5078 33.332H87.5078V10H77.5078H67.5078V33.332H77.5078ZM77.5078 10V20L84.4258 20V10V0H77.5078V10ZM71.2344 33.9336L71.2859 43.9335C72.7897 43.9257 73.9602 44.0562 74.8152 44.2359C75.6853 44.4189 76.0786 44.6208 76.1476 44.6607C76.199 44.6903 75.8185 44.4811 75.4234 43.8595C74.9931 43.1825 74.8125 42.4312 74.8125 41.8398H84.8125H94.8125C94.8125 35.1435 91.0073 30.1472 86.1512 27.3422C81.7 24.7711 76.3359 23.9072 71.1828 23.9337L71.2344 33.9336ZM84.8125 41.8398H74.8125C74.8125 41.2489 74.9926 40.5086 75.4118 39.8458C75.7963 39.2381 76.1633 39.0365 76.1034 39.0716C76.0265 39.1165 75.6283 39.3221 74.7585 39.5102C73.9035 39.6952 72.7346 39.832 71.2344 39.832V49.832V59.832C76.398 59.832 81.7569 58.9328 86.1955 56.3386C91.0235 53.5167 94.8125 48.5224 94.8125 41.8398H84.8125ZM71.2344 49.832V39.832C69.6651 39.832 68.431 39.6925 67.5172 39.4997C66.5867 39.3033 66.1421 39.0846 66.0337 39.0226C65.9393 38.9687 66.3151 39.1607 66.7182 39.7885C67.1629 40.4811 67.3607 41.2739 67.3551 41.926L57.3555 41.8398L47.3558 41.7536C47.2969 48.5942 51.2507 53.6103 56.1109 56.3875C60.5859 58.9446 65.9994 59.832 71.2344 59.832V49.832ZM57.3555 41.8398L67.3551 41.7536C67.3607 42.4062 67.1625 43.21 66.7064 43.9169C66.2926 44.5584 65.9033 44.7576 65.9896 44.7089C66.0907 44.6518 66.5308 44.4369 67.4617 44.2459C68.3757 44.0585 69.6115 43.9256 71.1841 43.9335L71.2344 33.9336L71.2846 23.9337C66.0599 23.9075 60.6417 24.7602 56.1549 27.294C51.2677 30.054 47.2967 35.071 47.3558 41.926L57.3555 41.8398ZM71.2344 39.2188V29.2188C68.7112 29.2188 65.4856 29.3702 62.5935 30.4098C61.0482 30.9652 58.9098 32.0126 57.1198 34.0713C55.1445 36.3431 54.2305 39.1164 54.2305 41.8398H64.2305H74.2305C74.2305 43.6179 73.6065 45.591 72.2126 47.1941C71.004 48.5841 69.7385 49.0943 69.3587 49.2308C68.9489 49.3781 68.8431 49.3489 69.276 49.3004C69.6677 49.2566 70.2975 49.2188 71.2344 49.2188V39.2188ZM64.2305 41.8398H54.2305C54.2305 44.5591 55.1406 47.3117 57.0811 49.5703C58.8463 51.625 60.9625 52.6904 62.517 53.2636C65.4294 54.3372 68.6726 54.5039 71.2344 54.5039V44.5039V34.5039C70.3134 34.5039 69.6979 34.4646 69.3211 34.4207C68.9045 34.3722 69.0193 34.3449 69.4351 34.4982C69.8242 34.6416 71.0675 35.1592 72.2513 36.5371C73.6103 38.119 74.2305 40.0659 74.2305 41.8398H64.2305ZM71.2344 44.5039V54.5039C73.7383 54.5039 76.9993 54.3436 79.9364 53.2085C81.5335 52.5913 83.6382 51.4597 85.3529 49.3364C87.2041 47.044 87.9805 44.3632 87.9805 41.8398H77.9805H67.9805C67.9805 40.2618 68.4883 38.3866 69.7929 36.7711C70.9611 35.3245 72.2414 34.7407 72.7267 34.5532C73.2153 34.3644 73.4027 34.3807 73.0332 34.4252C72.7047 34.4647 72.131 34.5039 71.2344 34.5039V44.5039ZM77.9805 41.8398H87.9805C87.9805 39.3139 87.2014 36.6116 85.316 34.3045C83.5753 32.1746 81.4461 31.0612 79.8576 30.4626C76.9412 29.3637 73.6985 29.2188 71.2344 29.2188V39.2188V49.2188C72.1472 49.2188 72.7355 49.2565 73.0798 49.2963C73.4665 49.341 73.2882 49.3599 72.8055 49.178C72.3288 48.9984 71.0241 48.4221 69.8299 46.9608C68.491 45.3225 67.9805 43.4205 67.9805 41.8398H77.9805ZM124.215 10H134.215C134.215 4.47715 129.738 0 124.215 0V10ZM124.215 49.875V59.875C129.738 59.875 134.215 55.3978 134.215 49.875H124.215ZM117.254 49.875H107.254C107.254 55.3978 111.731 59.875 117.254 59.875V49.875ZM117.254 10V0C111.731 0 107.254 4.47715 107.254 10L117.254 10ZM102.387 12.6641L102.317 22.6638C102.364 22.6641 102.411 22.6641 102.458 22.6638L102.387 12.6641ZM102.387 18.8945L102.217 28.8931C102.334 28.8951 102.451 28.895 102.569 28.8929L102.387 18.8945ZM124.215 10H114.215V49.875H124.215H134.215V10H124.215ZM124.215 49.875V39.875H117.254V49.875V59.875H124.215V49.875ZM117.254 49.875H127.254V10H117.254L107.254 10V49.875H117.254ZM117.254 10V20H124.215V10V0L117.254 0V10ZM102.387 12.6641L102.458 22.6638C102.39 22.6643 102.22 22.6406 102.045 22.5508C101.883 22.4681 101.892 22.4198 102.013 22.5782C102.283 22.9327 103 24.2334 103 26.9727H113H123C123 20.9463 121.439 15.0712 117.918 10.4521C114.27 5.66819 108.737 2.61877 102.316 2.66431L102.387 12.6641ZM113 26.9727H103C103 29.8028 102.27 31.1249 102 31.4804C101.88 31.6391 101.869 31.594 102.023 31.5147C102.189 31.4293 102.341 31.4102 102.387 31.4102V41.4102V51.4102C108.76 51.4102 114.279 48.3834 117.93 43.5733C121.452 38.9337 123 33.0371 123 26.9727H113ZM102.387 41.4102V31.4102C102.365 31.4102 102.47 31.4135 102.607 31.483C102.736 31.5479 102.717 31.5815 102.598 31.4265C102.332 31.0816 101.602 29.7839 101.602 26.9727H91.6016H81.6016C81.6016 33.056 83.1699 38.977 86.7501 43.6273C90.463 48.4498 96.0245 51.4102 102.387 51.4102V41.4102ZM91.6016 26.9727H101.602C101.602 24.2526 102.319 22.9762 102.585 22.632C102.704 22.4774 102.721 22.5139 102.585 22.5822C102.525 22.6127 102.459 22.6363 102.396 22.6507C102.335 22.6649 102.304 22.6637 102.317 22.6638L102.387 12.6641L102.456 2.6643C96.0471 2.6198 90.4718 5.60151 86.7629 10.3982C83.1833 15.0277 81.6016 20.9271 81.6016 26.9727H91.6016ZM102.387 18.8945L102.556 8.89597C96.9246 8.80052 92.7263 12.0746 90.5529 16.1436C88.7121 19.59 88.2617 23.5385 88.2617 26.9727H98.2617H108.262C108.262 26.0559 108.33 25.4897 108.382 25.2055C108.439 24.8993 108.445 25.0966 108.194 25.5664C107.928 26.0649 107.302 26.9904 106.088 27.7722C104.809 28.5955 103.413 28.9134 102.217 28.8931L102.387 18.8945ZM98.2617 26.9727H88.2617C88.2617 30.4271 88.7055 34.3944 90.5609 37.8541C92.7755 41.9836 96.9504 45.0938 102.387 45.0938V35.0938V25.0937C103.497 25.0937 104.832 25.3965 106.08 26.1982C107.276 26.9673 107.908 27.8831 108.186 28.4018C108.445 28.8846 108.441 29.0928 108.384 28.7849C108.331 28.4977 108.262 27.9194 108.262 26.9727H98.2617ZM102.387 35.0938V45.0938C107.986 45.0938 112.037 41.7294 114.113 37.7986C115.912 34.3926 116.383 30.4806 116.383 26.9727H106.383H96.3828C96.3828 27.9039 96.313 28.4806 96.2588 28.7724C96.2009 29.0842 96.1916 28.9062 96.4288 28.4572C96.6774 27.9865 97.2731 27.0851 98.4452 26.3005C99.6853 25.4703 101.095 25.0937 102.387 25.0937V35.0938ZM106.383 26.9727H116.383C116.383 23.4853 115.906 19.5914 114.121 16.199C112.09 12.3393 108.012 8.79061 102.205 8.89618L102.387 18.8945L102.569 28.8929C101.183 28.9181 99.7074 28.5217 98.4373 27.6697C97.2485 26.8723 96.658 25.9614 96.421 25.511C96.1917 25.075 96.2025 24.9078 96.2604 25.218C96.3143 25.507 96.3828 26.0715 96.3828 26.9727H106.383ZM170.062 10.0859L180.062 10.0859C180.062 4.56309 175.585 0.0859375 170.062 0.0859375V10.0859ZM170.062 21.043H160.062C160.062 26.5658 164.54 31.043 170.062 31.043V21.043ZM175.004 21.043H185.004C185.004 15.5201 180.527 11.043 175.004 11.043V21.043ZM175.004 26.6719V36.6719C180.527 36.6719 185.004 32.1947 185.004 26.6719H175.004ZM170.062 26.6719V16.6719C164.54 16.6719 160.062 21.149 160.062 26.6719H170.062ZM170.062 38.7461V48.7461C175.585 48.7461 180.062 44.2689 180.062 38.7461H170.062ZM163.145 38.7461H153.145C153.145 44.2689 157.622 48.7461 163.145 48.7461V38.7461ZM163.145 10.0859V0.0859375C157.622 0.0859375 153.145 4.56309 153.145 10.0859H163.145ZM171.223 43.6875H181.223C181.223 38.1647 176.745 33.6875 171.223 33.6875V43.6875ZM171.223 49.1875V59.1875C176.745 59.1875 181.223 54.7103 181.223 49.1875H171.223ZM143.723 49.1875L133.723 49.1875C133.723 54.7103 138.2 59.1875 143.723 59.1875V49.1875ZM143.723 35.6953V25.6953C138.2 25.6953 133.723 30.1725 133.723 35.6953L143.723 35.6953ZM150.641 35.6953H160.641C160.641 30.1725 156.163 25.6953 150.641 25.6953V35.6953ZM150.641 43.6875L140.641 43.6875C140.641 49.2103 145.118 53.6875 150.641 53.6875V43.6875ZM153.82 22.7617L163.819 22.9155C163.821 22.8153 163.821 22.715 163.819 22.6147L153.82 22.7617ZM170.062 10.0859H160.062V21.043H170.062H180.062V10.0859L170.062 10.0859ZM170.062 21.043V31.043H175.004V21.043V11.043L170.062 11.043V21.043ZM175.004 21.043H165.004V26.6719H175.004H185.004V21.043H175.004ZM175.004 26.6719V16.6719H170.062V26.6719V36.6719H175.004V26.6719ZM170.062 26.6719H160.062V38.7461H170.062H180.062V26.6719H170.062ZM170.062 38.7461V28.7461H163.145V38.7461V48.7461H170.062V38.7461ZM163.145 38.7461H173.145V10.0859H163.145H153.145V38.7461H163.145ZM163.145 10.0859V20.0859H170.062V10.0859V0.0859375L163.145 0.0859375V10.0859ZM171.223 43.6875H161.223V49.1875H171.223H181.223V43.6875H171.223ZM171.223 49.1875V39.1875H143.723V49.1875V59.1875H171.223V49.1875ZM143.723 49.1875H153.723V35.6953H143.723L133.723 35.6953V49.1875L143.723 49.1875ZM143.723 35.6953V45.6953H150.641V35.6953V25.6953H143.723V35.6953ZM150.641 35.6953L140.641 35.6953V43.6875L150.641 43.6875H160.641V35.6953H150.641ZM150.641 43.6875V53.6875H171.223V43.6875V33.6875H150.641V43.6875ZM149.395 12.4492V22.4492C150.178 22.4492 150.512 22.712 150.553 22.749C150.573 22.7679 150.552 22.7534 150.53 22.704C150.504 22.6471 150.523 22.6473 150.523 22.7617H160.523H170.523C170.523 10.3477 160.187 2.44922 149.395 2.44922V12.4492ZM160.523 22.7617H150.523C150.523 22.793 150.521 22.7598 150.545 22.7071C150.565 22.6633 150.574 22.6684 150.531 22.7082C150.444 22.7877 150.099 23.0312 149.395 23.0312V33.0312V43.0312C160.244 43.0312 170.523 34.9514 170.523 22.7617H160.523ZM149.395 33.0312V23.0312C148.686 23.0312 148.32 22.7842 148.217 22.6903C148.167 22.6448 148.176 22.6364 148.197 22.6825C148.222 22.7382 148.223 22.7798 148.223 22.7617H138.223H128.223C128.223 34.9991 138.597 43.0312 149.395 43.0312V33.0312ZM138.223 22.7617H148.223C148.223 22.6602 148.239 22.6684 148.212 22.7284C148.188 22.7803 148.168 22.7915 148.195 22.7668C148.252 22.7152 148.607 22.4492 149.395 22.4492V12.4492V2.44922C138.655 2.44922 128.223 10.3002 128.223 22.7617H138.223ZM149.395 18.4219V8.42187C146.307 8.42187 142.642 9.33618 139.617 12.0385C136.418 14.8967 134.969 18.8364 134.969 22.7617H144.969H154.969C154.969 23.7651 154.53 25.535 152.941 26.9537C151.528 28.2166 150.076 28.4219 149.395 28.4219V18.4219ZM144.969 22.7617H134.969C134.969 26.7511 136.506 30.6354 139.645 33.4184C142.616 36.0529 146.237 37.0156 149.395 37.0156V27.0156V17.0156C150.146 17.0156 151.554 17.2478 152.914 18.4537C154.441 19.8079 154.969 21.5653 154.969 22.7617H144.969ZM149.395 27.0156V37.0156C152.545 37.0156 156.221 36.0786 159.235 33.3514C162.374 30.5115 163.762 26.6615 163.819 22.9155L153.82 22.7617L143.822 22.6079C143.836 21.6549 144.257 19.9319 145.817 18.5207C147.252 17.2221 148.736 17.0156 149.395 17.0156V27.0156ZM153.82 22.7617L163.819 22.6147C163.765 18.925 162.456 15.0167 159.263 12.1058C156.196 9.31044 152.474 8.42187 149.395 8.42187V18.4219V28.4219C148.807 28.4219 147.277 28.2423 145.789 26.8864C144.175 25.415 143.833 23.6766 143.821 22.9088L153.82 22.7617ZM210.109 10H220.109C220.109 4.47715 215.632 0 210.109 0V10ZM210.109 33.5898V43.5898C215.632 43.5898 220.109 39.1127 220.109 33.5898H210.109ZM203.234 33.5898H193.234C193.234 39.1127 197.712 43.5898 203.234 43.5898V33.5898ZM203.234 24.8242L213.234 24.8242C213.234 19.3014 208.757 14.8242 203.234 14.8242V24.8242ZM198.25 24.8242H188.25C188.25 30.3471 192.727 34.8242 198.25 34.8242V24.8242ZM198.25 19.2812V9.28125C192.727 9.28125 188.25 13.7584 188.25 19.2812H198.25ZM203.234 19.2812V29.2812C208.757 29.2812 213.234 24.8041 213.234 19.2812L203.234 19.2812ZM203.234 10V0C197.712 0 193.234 4.47715 193.234 10H203.234ZM189.312 42.0547L199.31 42.2872C199.313 42.134 199.313 41.9807 199.31 41.8275L189.312 42.0547ZM199.324 12.1055H209.324C209.324 6.58262 204.847 2.10547 199.324 2.10547V12.1055ZM199.324 17.6055V27.6055C204.847 27.6055 209.324 23.1283 209.324 17.6055L199.324 17.6055ZM192.148 17.6055V7.60547C189.318 7.60547 186.621 8.80453 184.725 10.9053C182.829 13.0062 181.912 15.812 182.201 18.6271L192.148 17.6055ZM200.742 27.4883L209.256 32.7331C210.864 30.1232 211.186 26.9202 210.13 24.0426C209.074 21.1651 206.756 18.9308 203.842 17.9808L200.742 27.4883ZM197.434 32.8594L194.489 42.4161C198.845 43.7581 203.557 41.9848 205.948 38.1041L197.434 32.8594ZM188.625 25.7695L197.411 20.9934C195.611 17.6822 192.102 15.6643 188.335 15.7738C184.567 15.8832 181.182 18.1014 179.577 21.5116L188.625 25.7695ZM179.344 33.8477L170.973 39.3184C173.441 43.0953 178.133 44.7514 182.426 43.3609L179.344 33.8477ZM175.777 28.3906L172.741 18.8626C169.765 19.8111 167.402 22.0961 166.356 25.0394C165.309 27.9828 165.697 31.2463 167.406 33.8613L175.777 28.3906ZM184.93 17.6055L194.879 18.6105C195.163 15.7977 194.243 12.9962 192.348 10.8991C190.452 8.80207 187.757 7.60547 184.93 7.60547V17.6055ZM177.711 17.6055H167.711C167.711 23.1283 172.188 27.6055 177.711 27.6055V17.6055ZM177.711 12.1055V2.10547C172.188 2.10547 167.711 6.58262 167.711 12.1055L177.711 12.1055ZM210.109 10H200.109V33.5898H210.109H220.109V10H210.109ZM210.109 33.5898V23.5898L203.234 23.5898V33.5898V43.5898H210.109V33.5898ZM203.234 33.5898H213.234V24.8242L203.234 24.8242H193.234V33.5898H203.234ZM203.234 24.8242V14.8242H198.25V24.8242V34.8242H203.234V24.8242ZM198.25 24.8242L208.25 24.8242V19.2812L198.25 19.2812H188.25V24.8242H198.25ZM198.25 19.2812V29.2812H203.234V19.2812V9.28125H198.25V19.2812ZM203.234 19.2812L213.234 19.2812V10H203.234H193.234V19.2812H203.234ZM203.234 10V20L210.109 20V10V0H203.234V10ZM196.273 34.2344V44.2344C197.896 44.2344 199.165 44.3712 200.103 44.5616C201.059 44.7555 201.506 44.9714 201.607 45.0275C201.691 45.0742 201.289 44.8702 200.863 44.2182C200.395 43.5014 200.195 42.6952 200.195 42.0547H210.195H220.195C220.195 35.2516 216.242 30.2863 211.34 27.5555C206.87 25.0657 201.477 24.2344 196.273 24.2344V34.2344ZM210.195 42.0547H200.195C200.195 41.3866 200.404 40.5745 200.869 39.865C201.29 39.2211 201.683 39.0231 201.592 39.074C201.486 39.1333 201.036 39.3506 200.085 39.5455C199.151 39.737 197.887 39.875 196.273 39.875V49.875V59.875C201.5 59.875 206.891 59.0256 211.354 56.5295C216.223 53.8066 220.195 48.8554 220.195 42.0547H210.195ZM196.273 49.875V39.875C194.687 39.875 193.444 39.7379 192.526 39.5484C191.59 39.3553 191.149 39.1406 191.047 39.0834C190.96 39.0344 191.35 39.2329 191.768 39.8732C192.229 40.5786 192.438 41.387 192.438 42.0547H182.438H172.438C172.438 48.8478 176.401 53.7955 181.251 56.5201C185.703 59.0212 191.076 59.875 196.273 59.875V49.875ZM182.438 42.0547H192.438C192.438 42.6948 192.238 43.4973 191.773 44.2101C191.351 44.8584 190.952 45.063 191.032 45.0182C191.129 44.9642 191.567 44.7509 192.507 44.5588C193.429 44.3702 194.678 44.2344 196.273 44.2344V34.2344V24.2344C191.099 24.2344 185.724 25.07 181.266 27.5648C176.382 30.2974 172.438 35.2592 172.438 42.0547H182.438ZM196.273 39.4336V29.4336C193.748 29.4336 190.498 29.5812 187.594 30.6347C186.037 31.1997 183.86 32.2766 182.065 34.4095C180.085 36.7637 179.254 39.5902 179.315 42.2819L189.312 42.0547L199.31 41.8275C199.35 43.5739 198.787 45.6 197.369 47.2856C196.137 48.7498 194.817 49.2896 194.415 49.4356C193.983 49.5923 193.86 49.5641 194.296 49.5155C194.688 49.4717 195.323 49.4336 196.273 49.4336V39.4336ZM189.312 42.0547L179.315 41.8222C179.251 44.5629 180.119 47.3821 182.085 49.7045C183.862 51.8043 186.009 52.8764 187.555 53.4445C190.457 54.5107 193.701 54.6758 196.273 54.6758V44.6758V34.6758C195.339 34.6758 194.715 34.6362 194.333 34.5921C193.91 34.5432 194.029 34.5158 194.453 34.6717C194.845 34.8155 196.135 35.3478 197.35 36.7829C198.753 38.4407 199.352 40.4703 199.31 42.2872L189.312 42.0547ZM196.273 44.6758V54.6758C198.874 54.6758 202.108 54.5082 205 53.4648C206.536 52.9109 208.655 51.8732 210.438 49.8449C212.411 47.5998 213.363 44.8269 213.363 42.0547H203.363H193.363C193.363 40.2063 194.026 38.2229 195.415 36.6426C196.613 35.2789 197.855 34.781 198.214 34.6514C198.608 34.5093 198.698 34.5405 198.259 34.5906C197.86 34.6361 197.22 34.6758 196.273 34.6758V44.6758ZM203.363 42.0547H213.363C213.363 39.3294 212.448 36.547 210.458 34.2689C208.657 32.2078 206.508 31.1656 204.962 30.6148C202.068 29.5839 198.828 29.4336 196.273 29.4336V39.4336V49.4336C197.237 49.4336 197.887 49.4718 198.296 49.5169C198.747 49.5667 198.653 49.5985 198.252 49.4555C197.882 49.3237 196.611 48.8186 195.395 47.4262C193.989 45.8167 193.363 43.8347 193.363 42.0547H203.363ZM199.324 12.1055H189.324V17.6055H199.324L209.324 17.6055V12.1055H199.324ZM199.324 17.6055V7.60547H192.148V17.6055V27.6055H199.324V17.6055ZM192.148 17.6055L182.201 18.6271C182.992 26.334 187.829 33.7964 197.643 36.9958L200.742 27.4883L203.842 17.9808C203.17 17.7617 202.775 17.541 202.565 17.3996C202.361 17.2624 202.282 17.1678 202.26 17.1389C202.237 17.1105 202.137 16.9857 202.096 16.5838L192.148 17.6055ZM200.742 27.4883L192.228 22.2435L188.919 27.6146L197.434 32.8594L205.948 38.1041L209.256 32.7331L200.742 27.4883ZM197.434 32.8594L200.378 23.3026C199.449 23.0166 198.869 22.6575 198.482 22.3354C198.088 22.0078 197.731 21.5818 197.411 20.9934L188.625 25.7695L179.839 30.5457C182.772 35.9405 187.63 40.3029 194.489 42.4161L197.434 32.8594ZM188.625 25.7695L179.577 21.5116C178.974 22.7935 178.074 23.7473 176.262 24.3344L179.344 33.8477L182.426 43.3609C189.766 40.9831 194.839 36.0503 197.673 30.0275L188.625 25.7695ZM179.344 33.8477L187.715 28.3769L184.148 22.9199L175.777 28.3906L167.406 33.8613L170.973 39.3184L179.344 33.8477ZM175.777 28.3906L178.813 37.9186C189.47 34.523 194.107 26.2539 194.879 18.6105L184.93 17.6055L174.98 16.6005C174.914 17.2589 174.73 17.6219 174.585 17.8144C174.495 17.9335 174.112 18.4258 172.741 18.8626L175.777 28.3906ZM184.93 17.6055V7.60547H177.711V17.6055V27.6055H184.93V17.6055ZM177.711 17.6055H187.711V12.1055H177.711L167.711 12.1055V17.6055H177.711ZM177.711 12.1055V22.1055H199.324V12.1055V2.10547L177.711 2.10547V12.1055ZM237.352 11.9336L247.352 11.9336C247.352 6.41075 242.874 1.93359 237.352 1.93359V11.9336ZM237.352 17.3477V27.3477C242.874 27.3477 247.352 22.8705 247.352 17.3477H237.352ZM230.133 17.3477V7.34766C227.332 7.34766 224.66 8.52187 222.767 10.5847C220.873 12.6475 219.93 15.41 220.169 18.2002L230.133 17.3477ZM238.77 27.4453L247.246 32.7515C248.879 30.1428 249.22 26.9274 248.17 24.0343C247.12 21.1411 244.796 18.8926 241.87 17.9382L238.77 27.4453ZM235.461 32.7305L232.618 42.318C236.925 43.5947 241.554 41.8437 243.937 38.0367L235.461 32.7305ZM226.652 25.6836L235.5 21.0237C233.749 17.6983 230.281 15.6357 226.523 15.6844C222.765 15.7332 219.351 17.885 217.687 21.2547L226.652 25.6836ZM217.371 33.4609L208.99 38.9155C211.405 42.6273 215.975 44.3082 220.22 43.0466L217.371 33.4609ZM213.848 28.0469L210.986 18.4651C207.965 19.3673 205.547 21.6412 204.46 24.6008C203.374 27.5604 203.747 30.859 205.466 33.5014L213.848 28.0469ZM223 17.3477L232.954 18.3077C233.224 15.5015 232.298 12.7115 230.403 10.6246C228.507 8.53762 225.819 7.34766 223 7.34766V17.3477ZM215.738 17.3477H205.738C205.738 22.8705 210.215 27.3477 215.738 27.3477V17.3477ZM215.738 11.9336V1.93359C210.215 1.93359 205.738 6.41075 205.738 11.9336H215.738ZM248.137 35.1367H258.137C258.137 29.6139 253.66 25.1367 248.137 25.1367V35.1367ZM248.137 49.7461V59.7461C253.66 59.7461 258.137 55.2689 258.137 49.7461H248.137ZM241.262 49.7461H231.262C231.262 55.2689 235.739 59.7461 241.262 59.7461V49.7461ZM241.262 40.5937H251.262C251.262 35.0709 246.785 30.5937 241.262 30.5937V40.5937ZM220.508 40.5937H210.508C210.508 46.1166 214.985 50.5937 220.508 50.5937V40.5937ZM220.508 35.1367V25.1367C214.985 25.1367 210.508 29.6139 210.508 35.1367H220.508ZM248.137 10H258.137C258.137 4.47715 253.66 0 248.137 0V10ZM248.137 33.6328V43.6328C253.66 43.6328 258.137 39.1557 258.137 33.6328H248.137ZM241.262 33.6328H231.262C231.262 39.1557 235.739 43.6328 241.262 43.6328V33.6328ZM241.262 24.6094H251.262C251.262 19.0865 246.785 14.6094 241.262 14.6094V24.6094ZM236.32 24.6094H226.32C226.32 30.1322 230.797 34.6094 236.32 34.6094V24.6094ZM236.32 19.0234V9.02344C230.797 9.02344 226.32 13.5006 226.32 19.0234H236.32ZM241.262 19.0234V29.0234C246.785 29.0234 251.262 24.5463 251.262 19.0234H241.262ZM241.262 10V0C235.739 0 231.262 4.47715 231.262 10L241.262 10ZM237.352 11.9336H227.352V17.3477H237.352H247.352V11.9336L237.352 11.9336ZM237.352 17.3477V7.34766H230.133V17.3477V27.3477H237.352V17.3477ZM230.133 17.3477L220.169 18.2002C220.478 21.8092 221.697 25.7441 224.405 29.2653C227.144 32.8285 230.994 35.4276 235.669 36.9524L238.77 27.4453L241.87 17.9382C241.182 17.7137 240.78 17.4865 240.568 17.3422C240.362 17.2021 240.283 17.1052 240.26 17.0746C240.233 17.0401 240.131 16.9037 240.096 16.4952L230.133 17.3477ZM238.77 27.4453L230.293 22.1391L226.985 27.4243L235.461 32.7305L243.937 38.0367L247.246 32.7515L238.77 27.4453ZM235.461 32.7305L238.303 23.143C237.37 22.8663 236.808 22.5185 236.452 22.2254C236.094 21.9295 235.777 21.55 235.5 21.0237L226.652 25.6836L217.804 30.3435C220.741 35.9188 225.724 40.274 232.618 42.318L235.461 32.7305ZM226.652 25.6836L217.687 21.2547C217.061 22.5204 216.208 23.3743 214.523 23.8752L217.371 33.4609L220.22 43.0466C227.643 40.8405 232.72 35.9796 235.618 30.1125L226.652 25.6836ZM217.371 33.4609L225.752 28.0064L222.229 22.5923L213.848 28.0469L205.466 33.5014L208.99 38.9155L217.371 33.4609ZM213.848 28.0469L216.709 37.6287C221.78 36.1143 225.831 33.3369 228.658 29.5854C231.418 25.9231 232.61 21.8708 232.954 18.3077L223 17.3477L213.046 16.3876C212.982 17.057 212.799 17.3982 212.685 17.5494C212.628 17.6258 212.526 17.7403 212.317 17.8813C212.104 18.026 211.696 18.253 210.986 18.4651L213.848 28.0469ZM223 17.3477V7.34766H215.738V17.3477V27.3477H223V17.3477ZM215.738 17.3477H225.738V11.9336H215.738H205.738V17.3477H215.738ZM215.738 11.9336V21.9336H237.352V11.9336V1.93359L215.738 1.93359V11.9336ZM248.137 35.1367H238.137V49.7461H248.137H258.137V35.1367H248.137ZM248.137 49.7461V39.7461H241.262V49.7461V59.7461H248.137V49.7461ZM241.262 49.7461H251.262V40.5937H241.262H231.262V49.7461H241.262ZM241.262 40.5937V30.5937H220.508V40.5937V50.5937H241.262V40.5937ZM220.508 40.5937H230.508V35.1367H220.508H210.508V40.5937H220.508ZM220.508 35.1367V45.1367H248.137V35.1367V25.1367H220.508V35.1367ZM248.137 10H238.137V33.6328H248.137H258.137V10H248.137ZM248.137 33.6328V23.6328H241.262V33.6328V43.6328H248.137V33.6328ZM241.262 33.6328H251.262V24.6094H241.262H231.262V33.6328H241.262ZM241.262 24.6094V14.6094H236.32V24.6094V34.6094H241.262V24.6094ZM236.32 24.6094H246.32V19.0234H236.32H226.32V24.6094H236.32ZM236.32 19.0234V29.0234H241.262V19.0234V9.02344L236.32 9.02344V19.0234ZM241.262 19.0234H251.262V10H241.262L231.262 10V19.0234H241.262ZM241.262 10V20H248.137V10V0L241.262 0V10ZM285.863 10.0859H295.863C295.863 4.56309 291.386 0.0859375 285.863 0.0859375V10.0859ZM285.863 38.3164V48.3164C291.386 48.3164 295.863 43.8393 295.863 38.3164H285.863ZM278.945 38.3164H268.945C268.945 43.8393 273.422 48.3164 278.945 48.3164V38.3164ZM278.945 10.0859V0.0859375C273.422 0.0859375 268.945 4.56309 268.945 10.0859H278.945ZM286.809 43.6875H296.809C296.809 38.1647 292.331 33.6875 286.809 33.6875V43.6875ZM286.809 49.1875V59.1875C292.331 59.1875 296.809 54.7103 296.809 49.1875H286.809ZM258.664 49.1875H248.664C248.664 54.7103 253.141 59.1875 258.664 59.1875V49.1875ZM258.664 35.4805V25.4805C253.141 25.4805 248.664 29.9576 248.664 35.4805H258.664ZM265.625 35.4805H275.625C275.625 29.9576 271.148 25.4805 265.625 25.4805V35.4805ZM265.625 43.6875H255.625C255.625 49.2103 260.102 53.6875 265.625 53.6875V43.6875ZM252.777 22.6328L262.777 22.7042C262.777 22.6561 262.777 22.608 262.777 22.5598L252.777 22.6328ZM285.863 10.0859H275.863V38.3164H285.863H295.863V10.0859H285.863ZM285.863 38.3164V28.3164H278.945V38.3164V48.3164H285.863V38.3164ZM278.945 38.3164H288.945V10.0859H278.945H268.945V38.3164H278.945ZM278.945 10.0859V20.0859H285.863V10.0859V0.0859375H278.945V10.0859ZM286.809 43.6875H276.809V49.1875H286.809H296.809V43.6875H286.809ZM286.809 49.1875V39.1875H258.664V49.1875V59.1875H286.809V49.1875ZM258.664 49.1875H268.664V35.4805H258.664H248.664V49.1875H258.664ZM258.664 35.4805V45.4805H265.625V35.4805V25.4805H258.664V35.4805ZM265.625 35.4805H255.625V43.6875H265.625H275.625V35.4805H265.625ZM265.625 43.6875V53.6875H286.809V43.6875V33.6875H265.625V43.6875ZM263.906 12.4492V22.4492C264.692 22.4492 265.044 22.7145 265.097 22.7625C265.123 22.7856 265.095 22.7678 265.064 22.6996C265.029 22.6226 265.035 22.582 265.035 22.6328H275.035H285.035C285.035 10.2688 274.611 2.44922 263.906 2.44922V12.4492ZM275.035 22.6328H265.035C265.035 22.7467 265.016 22.7399 265.047 22.6728C265.073 22.6131 265.101 22.5906 265.086 22.6043C265.055 22.6322 264.718 22.9023 263.906 22.9023V32.9023V42.9023C274.64 42.9023 285.035 35.0994 285.035 22.6328H275.035ZM263.906 32.9023V22.9023C263.088 22.9023 262.736 22.6277 262.7 22.5954C262.685 22.5816 262.72 22.6101 262.753 22.6851C262.791 22.7686 262.776 22.7961 262.777 22.7042L252.777 22.6328L242.778 22.5614C242.688 35.147 253.245 42.9023 263.906 42.9023V32.9023ZM252.777 22.6328L262.777 22.5598C262.777 22.5318 262.778 22.5937 262.736 22.6872C262.698 22.7708 262.664 22.7945 262.69 22.7714C262.748 22.7191 263.114 22.4492 263.906 22.4492V12.4492V2.44922C253.275 2.44922 242.686 10.2208 242.778 22.7058L252.777 22.6328ZM263.906 18.4219V8.42187C260.856 8.42187 257.157 9.281 254.09 12.0143C250.853 14.899 249.48 18.8404 249.48 22.6328H259.48H269.48C269.48 23.6323 269.054 25.4682 267.396 26.9457C265.908 28.2717 264.421 28.4219 263.906 28.4219V18.4219ZM259.48 22.6328H249.48C249.48 26.3614 250.769 30.361 254.061 33.3174C257.18 36.1181 260.929 36.9297 263.906 36.9297V26.9297V16.9297C264.349 16.9297 265.884 17.0538 267.424 18.4365C269.137 19.9749 269.48 21.8261 269.48 22.6328H259.48ZM263.906 26.9297V36.9297C266.938 36.9297 270.654 36.0539 273.714 33.2485C276.921 30.3089 278.203 26.3568 278.203 22.6328H268.203H258.203C258.203 21.8307 258.54 20.027 260.2 18.5054C261.713 17.118 263.281 16.9297 263.906 16.9297V26.9297ZM268.203 22.6328H278.203C278.203 18.8465 276.839 14.9508 273.686 12.0829C270.679 9.347 267.01 8.42187 263.906 8.42187V18.4219V28.4219C263.208 28.4219 261.688 28.2057 260.228 26.8771C258.622 25.4164 258.203 23.6261 258.203 22.6328H268.203Z" fill="white" mask="url(#path-1-outside-1_6524_1904)"/>
</g>
<defs>
<filter id="filter0_d_6524_1904" x="0" y="0" width="300.809" height="67.875" filterUnits="userSpaceOnUse" color-interpolation-filters="sRGB">
<feFlood flood-opacity="0" result="BackgroundImageFix"/>
<feColorMatrix in="SourceAlpha" type="matrix" values="0 0 0 0 0 0 0 0 0 0 0 0 0 0 0 0 0 0 127 0" result="hardAlpha"/>
<feOffset dy="4"/>
<feGaussianBlur stdDeviation="2"/>
<feComposite in2="hardAlpha" operator="out"/>
<feColorMatrix type="matrix" values="0 0 0 0 0 0 0 0 0 0 0 0 0 0 0 0 0 0 0.07 0"/>
<feBlend mode="normal" in2="BackgroundImageFix" result="effect1_dropShadow_6524_1904"/>
<feBlend mode="normal" in="SourceGraphic" in2="effect1_dropShadow_6524_1904" result="shape"/>
</filter>
</defs>
</svg>
