<svg width="351" height="68" viewBox="0 0 351 68" fill="none" xmlns="http://www.w3.org/2000/svg">
<g filter="url(#filter0_d_6524_1880)">
<mask id="path-1-outside-1_6524_1880" maskUnits="userSpaceOnUse" x="3.69922" y="-0.378906" width="343" height="61" fill="black">
<rect fill="white" x="3.69922" y="-0.378906" width="343" height="61"/>
<path d="M30.457 15.0273C30.457 20.1406 32.3477 24.9961 39.0938 26.9727L35.4844 32.3438C31.3809 30.9902 28.7168 28.5625 27.1055 25.3828C25.3438 29.1426 22.293 32.1074 17.6523 33.5898L14 28.0898C21.3047 25.8984 23.4531 20.5273 23.4961 15.3711V12.1055H30.457V15.0273ZM48.418 10.1289V33.2891H41.543V22.2461H35.0117V16.6602H41.543V10.1289L48.418 10.1289ZM34.582 34.2344C43.2188 34.2344 48.5039 37.1562 48.5039 42.0977C48.5039 47.082 43.2188 49.9609 34.582 49.9609C26.0312 49.9609 20.7461 47.082 20.7461 42.0977C20.7461 37.1562 26.0312 34.2344 34.582 34.2344ZM34.582 39.5195C29.8555 39.5195 27.5781 40.25 27.6211 42.0977C27.5781 43.8594 29.8555 44.6328 34.582 44.6328C39.3516 44.6328 41.6719 43.8594 41.6719 42.0977C41.6719 40.25 39.3516 39.5195 34.582 39.5195ZM75.3164 12.6641V18.0781H68.0977C68.4629 21.9883 70.7832 25.791 76.8203 27.4883L73.5977 32.8594C69.3438 31.6562 66.4863 29.293 64.7461 26.2852C62.9629 29.9375 59.9336 32.8379 55.25 34.2773L51.7695 28.9062C58.1934 26.9082 60.5781 22.418 61.0078 18.0781H53.5742V12.6641H75.3164ZM84.4258 10.1289V18.8086H89.3672V24.3516H84.4258V33.4609H77.5078V10.1289H84.4258ZM71.2344 34.0625C79.5703 34.0195 84.8125 36.9844 84.8125 41.9688C84.8125 46.9531 79.5703 49.9609 71.2344 49.9609C62.6836 49.9609 57.3125 46.9531 57.3555 41.9688C57.3125 36.9844 62.6836 34.0195 71.2344 34.0625ZM71.2344 39.3477C66.5508 39.3477 64.2305 40.0781 64.2305 41.9688C64.2305 43.8594 66.5508 44.6328 71.2344 44.6328C75.832 44.6328 77.9805 43.8594 77.9805 41.9688C77.9805 40.0781 75.832 39.3477 71.2344 39.3477ZM118.844 34.1055C127.18 34.0625 132.422 36.9844 132.422 41.9688C132.422 47.0391 127.18 50.0039 118.844 50.0039C110.293 50.0039 104.922 47.0391 104.965 41.9688C104.922 36.9844 110.293 34.0625 118.844 34.1055ZM118.844 39.3906C114.16 39.3906 111.84 40.0781 111.84 41.9688C111.84 43.8594 114.16 44.6758 118.844 44.6758C123.441 44.6758 125.59 43.8594 125.59 41.9688C125.59 40.0781 123.441 39.3906 118.844 39.3906ZM132.035 10.1289V18.9375H136.977V24.6094H132.035V33.2891H125.117V10.1289H132.035ZM107.93 12.707V17.0469H113.902V12.707H120.777V31.5273H101.098V12.707H107.93ZM107.93 26.1992H113.902V22.332H107.93V26.1992ZM174.746 15.2422V20.7852H170.062V23.9219H174.746V29.4648H170.062V35.1367H163.145V10.1289H170.062V15.2422H174.746ZM156.785 35.5664C165.078 35.5664 170.449 38.2734 170.492 42.7852C170.449 47.2109 165.078 49.9609 156.785 49.9609C148.32 49.9609 143.035 47.2109 143.078 42.7852C143.035 38.2734 148.32 35.5664 156.785 35.5664ZM156.785 40.7656C152.102 40.7656 149.91 41.2383 149.91 42.7852C149.91 44.2031 152.102 44.8906 156.785 44.8906C161.34 44.8906 163.531 44.2031 163.531 42.7852C163.531 41.2383 161.34 40.7656 156.785 40.7656ZM161.727 13.4805V18.8086H138.223V13.4805H146.516V10H153.434V13.4805H161.727ZM149.953 19.7109C155.754 19.7109 159.879 22.7187 159.879 26.9297C159.879 31.2266 155.754 34.1055 149.953 34.1484C144.066 34.1055 139.941 31.2266 139.941 26.9297C139.941 22.7187 144.066 19.7109 149.953 19.7109ZM149.953 24.6953C147.977 24.6953 146.688 25.3398 146.688 26.9297C146.688 28.4766 147.977 29.1211 149.953 29.1211C151.973 29.1211 153.348 28.4766 153.348 26.9297C153.348 25.3398 151.973 24.6953 149.953 24.6953ZM209.852 10.1289V50.0039H202.891V10.1289H209.852ZM188.023 12.793C194.082 12.75 198.637 18.3359 198.637 27.1016C198.637 35.9961 194.082 41.5391 188.023 41.5391C181.836 41.5391 177.238 35.9961 177.238 27.1016C177.238 18.3359 181.836 12.75 188.023 12.793ZM188.023 19.0234C185.488 18.9805 183.898 21.6016 183.898 27.1016C183.898 32.6875 185.488 35.2227 188.023 35.2227C190.387 35.2227 192.02 32.6875 192.02 27.1016C192.02 21.6016 190.387 18.9805 188.023 19.0234ZM260.168 30.1094V35.4805H246.031V40.9805H239.199V35.4805H223.902V30.1094H260.168ZM256.215 43.8164V49.3164H227.855V38.2305H234.688V43.8164H256.215ZM235.16 11.418V14.9844H248.738V11.418H255.57V28.0469H228.414V11.418H235.16ZM235.16 22.6758H248.738V20.0117H235.16V22.6758ZM295.746 10.1289V33.2891H288.871V28.9922H282.727V31.5273H263.434V13.0078H282.727V15.5859H288.871V10.1289H295.746ZM270.309 18.4219V26.1562H275.98V18.4219H270.309ZM281.91 34.2344C290.547 34.2344 295.832 37.1562 295.832 42.0977C295.832 47.082 290.547 49.9609 281.91 49.9609C273.359 49.9609 268.074 47.082 268.074 42.0977C268.074 37.1562 273.359 34.2344 281.91 34.2344ZM281.91 39.4336C277.184 39.4336 274.906 40.1641 274.949 42.0977C274.906 43.9453 277.184 44.7617 281.91 44.7617C286.68 44.7617 289 43.9453 289 42.0977C289 40.1641 286.68 39.4336 281.91 39.4336ZM282.727 23.4492H288.871V20.9141H282.727V23.4492ZM331.754 10.2148V21.8164L336.695 21.8164V27.4023L331.754 27.4023V39.8203H324.836V10.2148H331.754ZM323.418 13.9531V19.2812H299.914V13.9531H308.207V10.1289H315.125V13.9531H323.418ZM311.645 20.1836C317.445 20.1836 321.57 23.4062 321.57 28.0469C321.57 32.6875 317.445 35.8242 311.645 35.7812C305.801 35.8242 301.633 32.6875 301.633 28.0469C301.633 23.4062 305.801 20.1836 311.645 20.1836ZM311.645 25.3828C309.668 25.4258 308.379 26.2422 308.379 28.0469C308.379 29.8516 309.668 30.625 311.645 30.625C313.664 30.625 315.039 29.8516 315.039 28.0469C315.039 26.2422 313.664 25.4258 311.645 25.3828ZM332.914 43.8164V49.3164H305.414V37.5859H312.332V43.8164H332.914Z"/>
</mask>
<path d="M30.457 15.0273C30.457 20.1406 32.3477 24.9961 39.0938 26.9727L35.4844 32.3438C31.3809 30.9902 28.7168 28.5625 27.1055 25.3828C25.3438 29.1426 22.293 32.1074 17.6523 33.5898L14 28.0898C21.3047 25.8984 23.4531 20.5273 23.4961 15.3711V12.1055H30.457V15.0273ZM48.418 10.1289V33.2891H41.543V22.2461H35.0117V16.6602H41.543V10.1289L48.418 10.1289ZM34.582 34.2344C43.2188 34.2344 48.5039 37.1562 48.5039 42.0977C48.5039 47.082 43.2188 49.9609 34.582 49.9609C26.0312 49.9609 20.7461 47.082 20.7461 42.0977C20.7461 37.1562 26.0312 34.2344 34.582 34.2344ZM34.582 39.5195C29.8555 39.5195 27.5781 40.25 27.6211 42.0977C27.5781 43.8594 29.8555 44.6328 34.582 44.6328C39.3516 44.6328 41.6719 43.8594 41.6719 42.0977C41.6719 40.25 39.3516 39.5195 34.582 39.5195ZM75.3164 12.6641V18.0781H68.0977C68.4629 21.9883 70.7832 25.791 76.8203 27.4883L73.5977 32.8594C69.3438 31.6562 66.4863 29.293 64.7461 26.2852C62.9629 29.9375 59.9336 32.8379 55.25 34.2773L51.7695 28.9062C58.1934 26.9082 60.5781 22.418 61.0078 18.0781H53.5742V12.6641H75.3164ZM84.4258 10.1289V18.8086H89.3672V24.3516H84.4258V33.4609H77.5078V10.1289H84.4258ZM71.2344 34.0625C79.5703 34.0195 84.8125 36.9844 84.8125 41.9688C84.8125 46.9531 79.5703 49.9609 71.2344 49.9609C62.6836 49.9609 57.3125 46.9531 57.3555 41.9688C57.3125 36.9844 62.6836 34.0195 71.2344 34.0625ZM71.2344 39.3477C66.5508 39.3477 64.2305 40.0781 64.2305 41.9688C64.2305 43.8594 66.5508 44.6328 71.2344 44.6328C75.832 44.6328 77.9805 43.8594 77.9805 41.9688C77.9805 40.0781 75.832 39.3477 71.2344 39.3477ZM118.844 34.1055C127.18 34.0625 132.422 36.9844 132.422 41.9688C132.422 47.0391 127.18 50.0039 118.844 50.0039C110.293 50.0039 104.922 47.0391 104.965 41.9688C104.922 36.9844 110.293 34.0625 118.844 34.1055ZM118.844 39.3906C114.16 39.3906 111.84 40.0781 111.84 41.9688C111.84 43.8594 114.16 44.6758 118.844 44.6758C123.441 44.6758 125.59 43.8594 125.59 41.9688C125.59 40.0781 123.441 39.3906 118.844 39.3906ZM132.035 10.1289V18.9375H136.977V24.6094H132.035V33.2891H125.117V10.1289H132.035ZM107.93 12.707V17.0469H113.902V12.707H120.777V31.5273H101.098V12.707H107.93ZM107.93 26.1992H113.902V22.332H107.93V26.1992ZM174.746 15.2422V20.7852H170.062V23.9219H174.746V29.4648H170.062V35.1367H163.145V10.1289H170.062V15.2422H174.746ZM156.785 35.5664C165.078 35.5664 170.449 38.2734 170.492 42.7852C170.449 47.2109 165.078 49.9609 156.785 49.9609C148.32 49.9609 143.035 47.2109 143.078 42.7852C143.035 38.2734 148.32 35.5664 156.785 35.5664ZM156.785 40.7656C152.102 40.7656 149.91 41.2383 149.91 42.7852C149.91 44.2031 152.102 44.8906 156.785 44.8906C161.34 44.8906 163.531 44.2031 163.531 42.7852C163.531 41.2383 161.34 40.7656 156.785 40.7656ZM161.727 13.4805V18.8086H138.223V13.4805H146.516V10H153.434V13.4805H161.727ZM149.953 19.7109C155.754 19.7109 159.879 22.7187 159.879 26.9297C159.879 31.2266 155.754 34.1055 149.953 34.1484C144.066 34.1055 139.941 31.2266 139.941 26.9297C139.941 22.7187 144.066 19.7109 149.953 19.7109ZM149.953 24.6953C147.977 24.6953 146.688 25.3398 146.688 26.9297C146.688 28.4766 147.977 29.1211 149.953 29.1211C151.973 29.1211 153.348 28.4766 153.348 26.9297C153.348 25.3398 151.973 24.6953 149.953 24.6953ZM209.852 10.1289V50.0039H202.891V10.1289H209.852ZM188.023 12.793C194.082 12.75 198.637 18.3359 198.637 27.1016C198.637 35.9961 194.082 41.5391 188.023 41.5391C181.836 41.5391 177.238 35.9961 177.238 27.1016C177.238 18.3359 181.836 12.75 188.023 12.793ZM188.023 19.0234C185.488 18.9805 183.898 21.6016 183.898 27.1016C183.898 32.6875 185.488 35.2227 188.023 35.2227C190.387 35.2227 192.02 32.6875 192.02 27.1016C192.02 21.6016 190.387 18.9805 188.023 19.0234ZM260.168 30.1094V35.4805H246.031V40.9805H239.199V35.4805H223.902V30.1094H260.168ZM256.215 43.8164V49.3164H227.855V38.2305H234.688V43.8164H256.215ZM235.16 11.418V14.9844H248.738V11.418H255.57V28.0469H228.414V11.418H235.16ZM235.16 22.6758H248.738V20.0117H235.16V22.6758ZM295.746 10.1289V33.2891H288.871V28.9922H282.727V31.5273H263.434V13.0078H282.727V15.5859H288.871V10.1289H295.746ZM270.309 18.4219V26.1562H275.98V18.4219H270.309ZM281.91 34.2344C290.547 34.2344 295.832 37.1562 295.832 42.0977C295.832 47.082 290.547 49.9609 281.91 49.9609C273.359 49.9609 268.074 47.082 268.074 42.0977C268.074 37.1562 273.359 34.2344 281.91 34.2344ZM281.91 39.4336C277.184 39.4336 274.906 40.1641 274.949 42.0977C274.906 43.9453 277.184 44.7617 281.91 44.7617C286.68 44.7617 289 43.9453 289 42.0977C289 40.1641 286.68 39.4336 281.91 39.4336ZM282.727 23.4492H288.871V20.9141H282.727V23.4492ZM331.754 10.2148V21.8164L336.695 21.8164V27.4023L331.754 27.4023V39.8203H324.836V10.2148H331.754ZM323.418 13.9531V19.2812H299.914V13.9531H308.207V10.1289H315.125V13.9531H323.418ZM311.645 20.1836C317.445 20.1836 321.57 23.4062 321.57 28.0469C321.57 32.6875 317.445 35.8242 311.645 35.7812C305.801 35.8242 301.633 32.6875 301.633 28.0469C301.633 23.4062 305.801 20.1836 311.645 20.1836ZM311.645 25.3828C309.668 25.4258 308.379 26.2422 308.379 28.0469C308.379 29.8516 309.668 30.625 311.645 30.625C313.664 30.625 315.039 29.8516 315.039 28.0469C315.039 26.2422 313.664 25.4258 311.645 25.3828ZM332.914 43.8164V49.3164H305.414V37.5859H312.332V43.8164H332.914Z" fill="#11DCA9"/>
<path d="M39.0938 26.9727L47.3938 32.5503C49.1718 29.9043 49.5818 26.5692 48.4976 23.5714C47.4133 20.5736 44.9647 18.2724 41.9055 17.3761L39.0938 26.9727ZM35.4844 32.3438L32.3519 41.8405C36.6104 43.2451 41.2833 41.6432 43.7844 37.9214L35.4844 32.3438ZM27.1055 25.3828L36.0255 20.8625C34.297 17.4516 30.7747 15.325 26.9512 15.384C23.1278 15.443 19.6727 17.6772 18.0503 21.1398L27.1055 25.3828ZM17.6523 33.5898L9.32184 39.1218C11.7944 42.8452 16.4376 44.4757 20.6953 43.1156L17.6523 33.5898ZM14 28.0898L11.1265 18.5116C8.09324 19.4216 5.67027 21.7145 4.59457 24.6931C3.51887 27.6716 3.91761 30.9837 5.6695 33.6218L14 28.0898ZM23.4961 15.3711L33.4957 15.4544C33.496 15.4266 33.4961 15.3989 33.4961 15.3711H23.4961ZM23.4961 12.1055V2.10547C17.9732 2.10547 13.4961 6.58262 13.4961 12.1055H23.4961ZM30.457 12.1055H40.457C40.457 6.58262 35.9799 2.10547 30.457 2.10547V12.1055ZM48.418 10.1289H58.418C58.418 4.60606 53.9408 0.128906 48.418 0.128906V10.1289ZM48.418 33.2891V43.2891C53.9408 43.2891 58.418 38.8119 58.418 33.2891H48.418ZM41.543 33.2891H31.543C31.543 38.8119 36.0201 43.2891 41.543 43.2891V33.2891ZM41.543 22.2461H51.543C51.543 16.7232 47.0658 12.2461 41.543 12.2461V22.2461ZM35.0117 22.2461H25.0117C25.0117 27.7689 29.4889 32.2461 35.0117 32.2461V22.2461ZM35.0117 16.6602V6.66016C29.4889 6.66016 25.0117 11.1373 25.0117 16.6602H35.0117ZM41.543 16.6602V26.6602C47.0658 26.6602 51.543 22.183 51.543 16.6602H41.543ZM41.543 10.1289V0.128906C36.0201 0.128906 31.543 4.60606 31.543 10.1289H41.543ZM27.6211 42.0977L37.6181 42.3415C37.622 42.1827 37.6221 42.0239 37.6184 41.8652L27.6211 42.0977ZM30.457 15.0273H20.457C20.457 18.7166 21.1255 23.2629 23.7717 27.486C26.5531 31.9248 30.8793 34.9863 36.282 36.5692L39.0938 26.9727L41.9055 17.3761C41.1636 17.1587 40.84 16.9473 40.7526 16.8842C40.6816 16.8329 40.6991 16.8339 40.7195 16.8665C40.7339 16.8895 40.457 16.4514 40.457 15.0273H30.457ZM39.0938 26.9727L30.7937 21.395L27.1844 26.7661L35.4844 32.3438L43.7844 37.9214L47.3938 32.5503L39.0938 26.9727ZM35.4844 32.3438L38.6168 22.847C37.6633 22.5325 37.1374 22.1843 36.8377 21.9294C36.5432 21.6791 36.2763 21.3574 36.0255 20.8625L27.1055 25.3828L18.1854 29.9031C21.0282 35.5128 25.814 39.684 32.3519 41.8405L35.4844 32.3438ZM27.1055 25.3828L18.0503 21.1398C17.4182 22.4888 16.4841 23.4652 14.6094 24.0641L17.6523 33.5898L20.6953 43.1156C28.1019 40.7496 33.2693 35.7964 36.1607 29.6258L27.1055 25.3828ZM17.6523 33.5898L25.9828 28.0579L22.3305 22.5579L14 28.0898L5.6695 33.6218L9.32184 39.1218L17.6523 33.5898ZM14 28.0898L16.8735 37.6681C22.5671 35.96 27.0044 32.7218 29.8797 28.2549C32.6437 23.9611 33.4636 19.3179 33.4957 15.4544L23.4961 15.3711L13.4964 15.2878C13.4857 16.5805 13.2098 17.201 13.0627 17.4297C12.9973 17.5311 12.8978 17.656 12.6853 17.8102C12.4622 17.9722 11.9967 18.2505 11.1265 18.5116L14 28.0898ZM23.4961 15.3711H33.4961V12.1055H23.4961H13.4961V15.3711H23.4961ZM23.4961 12.1055V22.1055H30.457V12.1055V2.10547L23.4961 2.10547V12.1055ZM30.457 12.1055H20.457V15.0273H30.457H40.457V12.1055H30.457ZM48.418 10.1289L38.418 10.1289V33.2891H48.418H58.418V10.1289H48.418ZM48.418 33.2891V23.2891H41.543V33.2891V43.2891H48.418V33.2891ZM41.543 33.2891H51.543V22.2461H41.543H31.543V33.2891H41.543ZM41.543 22.2461V12.2461H35.0117V22.2461V32.2461H41.543V22.2461ZM35.0117 22.2461H45.0117V16.6602H35.0117H25.0117V22.2461H35.0117ZM35.0117 16.6602V26.6602H41.543V16.6602V6.66016H35.0117V16.6602ZM41.543 16.6602H51.543V10.1289L41.543 10.1289H31.543V16.6602H41.543ZM41.543 10.1289V20.1289H48.418V10.1289V0.128906H41.543V10.1289ZM34.582 34.2344V44.2344C36.196 44.2344 37.4579 44.3725 38.3895 44.5637C39.3381 44.7585 39.7837 44.9752 39.8856 45.0324C39.971 45.0803 39.579 44.8801 39.1615 44.2385C38.7027 43.5334 38.5039 42.7371 38.5039 42.0977H48.5039H58.5039C58.5039 35.3104 54.5683 30.3397 49.6779 27.5936C45.2068 25.083 39.8062 24.2344 34.582 24.2344V34.2344ZM48.5039 42.0977H38.5039C38.5039 41.4856 38.6938 40.6951 39.1563 39.9829C39.5782 39.3333 39.9786 39.127 39.9005 39.1707C39.8038 39.2248 39.3609 39.44 38.408 39.6338C37.4725 39.8241 36.2049 39.9609 34.582 39.9609V49.9609V59.9609C39.7832 59.9609 45.1855 59.1303 49.663 56.6262C54.587 53.8722 58.5039 48.8873 58.5039 42.0977H48.5039ZM34.582 49.9609V39.9609C32.9865 39.9609 31.7393 39.825 30.8194 39.6366C29.8823 39.4447 29.4479 39.232 29.3555 39.1801C29.2811 39.1383 29.679 39.3451 30.0976 39.991C30.5565 40.6992 30.7461 41.486 30.7461 42.0977H20.7461H10.7461C10.7461 48.8797 14.6544 53.8611 19.5596 56.6168C24.026 59.1261 29.41 59.9609 34.582 59.9609V49.9609ZM20.7461 42.0977H30.7461C30.7461 42.7367 30.5476 43.5294 30.0925 44.2304C29.6782 44.8683 29.2888 45.069 29.3704 45.023C29.4681 44.9679 29.9051 44.7538 30.838 44.5609C31.754 44.3715 32.9954 44.2344 34.582 44.2344V34.2344V24.2344C29.3869 24.2344 24.0046 25.0874 19.5447 27.603C14.6731 30.3508 10.7461 35.318 10.7461 42.0977H20.7461ZM34.582 39.5195V29.5195C32.048 29.5195 28.8221 29.6696 25.9413 30.7013C24.4054 31.2514 22.2351 32.3047 20.4323 34.4087C18.4301 36.7454 17.56 39.5864 17.6238 42.3302L27.6211 42.0977L37.6184 41.8652C37.6607 43.6851 37.0591 45.7419 35.6196 47.422C34.3794 48.8693 33.0658 49.3937 32.6847 49.5302C32.2668 49.6798 32.1571 49.6504 32.597 49.6016C32.9937 49.5575 33.6319 49.5195 34.582 49.5195V39.5195ZM27.6211 42.0977L17.6241 41.8538C17.5545 44.7064 18.5083 47.5544 20.5129 49.8365C22.3047 51.8764 24.4376 52.9018 25.9413 53.4403C28.7969 54.463 31.993 54.6328 34.582 54.6328V44.6328V34.6328C33.6491 34.6328 33.0185 34.5934 32.627 34.5488C32.1948 34.4995 32.2884 34.4695 32.6847 34.6114C33.0335 34.7364 34.3098 35.2381 35.539 36.6375C36.981 38.2791 37.6662 40.3697 37.6181 42.3415L27.6211 42.0977ZM34.582 44.6328V54.6328C37.199 54.6328 40.3858 54.4606 43.2325 53.4598C44.7268 52.9344 46.8298 51.9424 48.6237 49.9753C50.6294 47.7759 51.6719 44.9805 51.6719 42.0977H41.6719H31.6719C31.6719 40.0956 32.4243 38.0576 33.8459 36.4987C35.0557 35.1721 36.2806 34.7038 36.5986 34.592C36.9648 34.4633 37.0305 34.4968 36.5828 34.5473C36.1739 34.5933 35.5274 34.6328 34.582 34.6328V44.6328ZM41.6719 42.0977H51.6719C51.6719 39.3207 50.7149 36.5267 48.7064 34.2689C46.8993 32.2374 44.7579 31.2182 43.2325 30.6819C40.3608 29.6722 37.1449 29.5195 34.582 29.5195V39.5195V49.5195C35.5445 49.5195 36.1985 49.5576 36.6125 49.603C37.0677 49.6529 36.9861 49.6858 36.5986 49.5496C36.2495 49.4268 34.9862 48.9366 33.7632 47.5618C32.3388 45.9606 31.6719 43.9508 31.6719 42.0977H41.6719ZM75.3164 12.6641L85.3164 12.6641C85.3164 7.14122 80.8393 2.66406 75.3164 2.66406V12.6641ZM75.3164 18.0781V28.0781C80.8393 28.0781 85.3164 23.601 85.3164 18.0781L75.3164 18.0781ZM68.0977 18.0781V8.07812C65.2837 8.07812 62.6 9.26368 60.7051 11.3439C58.8101 13.4241 57.8793 16.2064 58.141 19.0081L68.0977 18.0781ZM76.8203 27.4883L85.3952 32.6332C86.9989 29.9605 87.2646 26.6929 86.1138 23.7962C84.963 20.8995 82.5274 18.7051 79.5268 17.8615L76.8203 27.4883ZM73.5977 32.8594L70.8761 42.4819C75.2206 43.7107 79.8497 41.8759 82.1726 38.0043L73.5977 32.8594ZM64.7461 26.2852L73.4018 21.2772C71.5512 18.0787 68.0876 16.1614 64.3946 16.2913C60.7015 16.4212 57.3812 18.5772 55.7599 21.8978L64.7461 26.2852ZM55.25 34.2773L46.8579 39.7154C49.2889 43.467 53.9146 45.1494 58.1878 43.8361L55.25 34.2773ZM51.7695 28.9062L48.7995 19.3575C45.8114 20.2869 43.4307 22.5615 42.366 25.5042C41.3014 28.4468 41.6757 31.7182 43.3774 34.3443L51.7695 28.9062ZM61.0078 18.0781L70.9592 19.0634C71.2374 16.2536 70.3147 13.4571 68.419 11.3644C66.5234 9.27181 63.8314 8.07812 61.0078 8.07812V18.0781ZM53.5742 18.0781H43.5742C43.5742 23.601 48.0514 28.0781 53.5742 28.0781V18.0781ZM53.5742 12.6641V2.66406C48.0514 2.66406 43.5742 7.14122 43.5742 12.6641H53.5742ZM84.4258 10.1289H94.4258C94.4258 4.60606 89.9486 0.128906 84.4258 0.128906V10.1289ZM84.4258 18.8086L74.4258 18.8086C74.4258 24.3314 78.9029 28.8086 84.4258 28.8086V18.8086ZM89.3672 18.8086H99.3672C99.3672 13.2857 94.89 8.80859 89.3672 8.80859V18.8086ZM89.3672 24.3516V34.3516C94.89 34.3516 99.3672 29.8744 99.3672 24.3516H89.3672ZM84.4258 24.3516V14.3516C78.9029 14.3516 74.4258 18.8287 74.4258 24.3516L84.4258 24.3516ZM84.4258 33.4609V43.4609C89.9486 43.4609 94.4258 38.9838 94.4258 33.4609H84.4258ZM77.5078 33.4609H67.5078C67.5078 38.9838 71.985 43.4609 77.5078 43.4609V33.4609ZM77.5078 10.1289V0.128906C71.985 0.128906 67.5078 4.60606 67.5078 10.1289H77.5078ZM71.2344 34.0625L71.1841 44.0624C71.2181 44.0625 71.252 44.0625 71.2859 44.0624L71.2344 34.0625ZM57.3555 41.9688L67.3551 42.055C67.3556 41.9975 67.3556 41.94 67.3551 41.8825L57.3555 41.9688ZM75.3164 12.6641H65.3164V18.0781H75.3164L85.3164 18.0781V12.6641L75.3164 12.6641ZM75.3164 18.0781V8.07812H68.0977V18.0781V28.0781H75.3164V18.0781ZM68.0977 18.0781L58.141 19.0081C58.4805 22.6429 59.7784 26.5792 62.659 30.0259C65.5483 33.4829 69.5042 35.8191 74.1138 37.1151L76.8203 27.4883L79.5268 17.8615C78.793 17.6552 78.38 17.4436 78.1824 17.3227C77.9943 17.2075 77.9666 17.1542 78.005 17.2002C78.0427 17.2452 78.0721 17.3 78.0843 17.3312C78.0925 17.3522 78.0686 17.3006 78.0543 17.1481L68.0977 18.0781ZM76.8203 27.4883L68.2454 22.3433L65.0227 27.7144L73.5977 32.8594L82.1726 38.0043L85.3952 32.6332L76.8203 27.4883ZM73.5977 32.8594L76.3192 23.2368C75.2942 22.9469 74.6742 22.5882 74.2967 22.3001C73.924 22.0156 73.639 21.6872 73.4018 21.2772L64.7461 26.2852L56.0904 31.2931C59.1974 36.6631 64.2452 40.6065 70.8761 42.4819L73.5977 32.8594ZM64.7461 26.2852L55.7599 21.8978C55.1366 23.1745 54.2356 24.1275 52.3122 24.7186L55.25 34.2773L58.1878 43.8361C65.6316 41.5483 70.7892 36.7005 73.7323 30.6725L64.7461 26.2852ZM55.25 34.2773L63.6421 28.8393L60.1616 23.4682L51.7695 28.9062L43.3774 34.3443L46.8579 39.7154L55.25 34.2773ZM51.7695 28.9062L54.7396 38.455C59.7342 36.9015 63.7653 34.1547 66.6028 30.415C69.3853 26.7479 70.6007 22.6842 70.9592 19.0634L61.0078 18.0781L51.0565 17.0928C50.9853 17.8119 50.7935 18.1632 50.6701 18.3258C50.6019 18.4156 50.2286 18.913 48.7995 19.3575L51.7695 28.9062ZM61.0078 18.0781V8.07812H53.5742V18.0781V28.0781H61.0078V18.0781ZM53.5742 18.0781H63.5742V12.6641H53.5742H43.5742V18.0781H53.5742ZM53.5742 12.6641V22.6641H75.3164V12.6641V2.66406L53.5742 2.66406V12.6641ZM84.4258 10.1289H74.4258V18.8086L84.4258 18.8086H94.4258V10.1289H84.4258ZM84.4258 18.8086V28.8086H89.3672V18.8086V8.80859H84.4258V18.8086ZM89.3672 18.8086H79.3672V24.3516H89.3672H99.3672V18.8086H89.3672ZM89.3672 24.3516V14.3516H84.4258V24.3516V34.3516H89.3672V24.3516ZM84.4258 24.3516L74.4258 24.3516V33.4609H84.4258H94.4258V24.3516H84.4258ZM84.4258 33.4609V23.4609L77.5078 23.4609V33.4609V43.4609H84.4258V33.4609ZM77.5078 33.4609H87.5078V10.1289H77.5078H67.5078V33.4609H77.5078ZM77.5078 10.1289V20.1289L84.4258 20.1289V10.1289V0.128906H77.5078V10.1289ZM71.2344 34.0625L71.2859 44.0624C72.7897 44.0546 73.9602 44.1851 74.8152 44.3648C75.6853 44.5478 76.0786 44.7497 76.1476 44.7896C76.199 44.8192 75.8185 44.6101 75.4234 43.9885C74.9931 43.3114 74.8125 42.5602 74.8125 41.9688H84.8125H94.8125C94.8125 35.2724 91.0073 30.2761 86.1512 27.4711C81.7 24.9 76.3359 24.0361 71.1828 24.0626L71.2344 34.0625ZM84.8125 41.9688H74.8125C74.8125 41.3778 74.9926 40.6375 75.4118 39.9747C75.7963 39.367 76.1633 39.1655 76.1034 39.2005C76.0265 39.2454 75.6283 39.451 74.7585 39.6391C73.9035 39.8241 72.7346 39.9609 71.2344 39.9609V49.9609V59.9609C76.398 59.9609 81.7569 59.0617 86.1955 56.4675C91.0235 53.6456 94.8125 48.6513 94.8125 41.9688H84.8125ZM71.2344 49.9609V39.9609C69.6651 39.9609 68.431 39.8214 67.5172 39.6286C66.5867 39.4322 66.1421 39.2135 66.0337 39.1516C65.9393 39.0976 66.3151 39.2896 66.7182 39.9174C67.1629 40.61 67.3607 41.4028 67.3551 42.055L57.3555 41.9688L47.3558 41.8825C47.2969 48.7231 51.2507 53.7392 56.1109 56.5164C60.5859 59.0736 65.9994 59.9609 71.2344 59.9609V49.9609ZM57.3555 41.9688L67.3551 41.8825C67.3607 42.5351 67.1625 43.3389 66.7064 44.0458C66.2926 44.6873 65.9033 44.8866 65.9896 44.8378C66.0907 44.7807 66.5308 44.5658 67.4617 44.3748C68.3757 44.1874 69.6115 44.0545 71.1841 44.0624L71.2344 34.0625L71.2846 24.0626C66.0599 24.0364 60.6417 24.8891 56.1549 27.4229C51.2677 30.1829 47.2967 35.1999 47.3558 42.055L57.3555 41.9688ZM71.2344 39.3477V29.3477C68.7112 29.3477 65.4856 29.4991 62.5935 30.5387C61.0482 31.0941 58.9098 32.1415 57.1198 34.2002C55.1445 36.472 54.2305 39.2454 54.2305 41.9688H64.2305H74.2305C74.2305 43.7468 73.6065 45.7199 72.2126 47.323C71.004 48.713 69.7385 49.2232 69.3587 49.3597C68.9489 49.507 68.8431 49.4778 69.276 49.4293C69.6677 49.3855 70.2975 49.3477 71.2344 49.3477V39.3477ZM64.2305 41.9688H54.2305C54.2305 44.688 55.1406 47.4406 57.0811 49.6992C58.8463 51.7539 60.9625 52.8194 62.517 53.3925C65.4294 54.4662 68.6726 54.6328 71.2344 54.6328V44.6328V34.6328C70.3134 34.6328 69.6979 34.5935 69.3211 34.5496C68.9045 34.5011 69.0193 34.4738 69.4351 34.6271C69.8242 34.7705 71.0675 35.2881 72.2513 36.666C73.6103 38.2479 74.2305 40.1948 74.2305 41.9688H64.2305ZM71.2344 44.6328V54.6328C73.7383 54.6328 76.9993 54.4725 79.9364 53.3374C81.5335 52.7202 83.6382 51.5886 85.3529 49.4653C87.2041 47.173 87.9805 44.4922 87.9805 41.9688H77.9805H67.9805C67.9805 40.3907 68.4883 38.5155 69.7929 36.9C70.9611 35.4534 72.2414 34.8697 72.7267 34.6821C73.2153 34.4933 73.4027 34.5096 73.0332 34.5541C72.7047 34.5936 72.131 34.6328 71.2344 34.6328V44.6328ZM77.9805 41.9688H87.9805C87.9805 39.4428 87.2014 36.7405 85.316 34.4335C83.5753 32.3035 81.4461 31.1901 79.8576 30.5915C76.9412 29.4926 73.6985 29.3477 71.2344 29.3477V39.3477V49.3477C72.1472 49.3477 72.7355 49.3854 73.0798 49.4252C73.4665 49.4699 73.2882 49.4888 72.8055 49.3069C72.3288 49.1273 71.0241 48.551 69.8299 47.0897C68.491 45.4514 67.9805 43.5494 67.9805 41.9688H77.9805ZM118.844 34.1055L118.794 44.1053C118.827 44.1055 118.861 44.1055 118.895 44.1053L118.844 34.1055ZM104.965 41.9688L114.964 42.0535C114.965 41.9965 114.965 41.9395 114.964 41.8825L104.965 41.9688ZM132.035 10.1289H142.035C142.035 4.60606 137.558 0.128906 132.035 0.128906V10.1289ZM132.035 18.9375H122.035C122.035 24.4603 126.512 28.9375 132.035 28.9375V18.9375ZM136.977 18.9375H146.977C146.977 13.4147 142.499 8.9375 136.977 8.9375V18.9375ZM136.977 24.6094V34.6094C142.499 34.6094 146.977 30.1322 146.977 24.6094H136.977ZM132.035 24.6094V14.6094C126.512 14.6094 122.035 19.0865 122.035 24.6094H132.035ZM132.035 33.2891V43.2891C137.558 43.2891 142.035 38.8119 142.035 33.2891L132.035 33.2891ZM125.117 33.2891H115.117C115.117 38.8119 119.594 43.2891 125.117 43.2891V33.2891ZM125.117 10.1289V0.128906C119.594 0.128906 115.117 4.60606 115.117 10.1289H125.117ZM107.93 12.707H117.93C117.93 7.18418 113.453 2.70703 107.93 2.70703V12.707ZM107.93 17.0469H97.9297C97.9297 22.5697 102.407 27.0469 107.93 27.0469V17.0469ZM113.902 17.0469V27.0469C119.425 27.0469 123.902 22.5697 123.902 17.0469H113.902ZM113.902 12.707V2.70703C108.379 2.70703 103.902 7.18418 103.902 12.707H113.902ZM120.777 12.707H130.777C130.777 7.18418 126.3 2.70703 120.777 2.70703V12.707ZM120.777 31.5273V41.5273C126.3 41.5273 130.777 37.0502 130.777 31.5273H120.777ZM101.098 31.5273H91.0977C91.0977 37.0502 95.5748 41.5273 101.098 41.5273V31.5273ZM101.098 12.707V2.70703C95.5748 2.70703 91.0977 7.18418 91.0977 12.707H101.098ZM107.93 26.1992H97.9297C97.9297 31.7221 102.407 36.1992 107.93 36.1992V26.1992ZM113.902 26.1992V36.1992C119.425 36.1992 123.902 31.7221 123.902 26.1992H113.902ZM113.902 22.332H123.902C123.902 16.8092 119.425 12.332 113.902 12.332V22.332ZM107.93 22.332V12.332C102.407 12.332 97.9297 16.8092 97.9297 22.332H107.93ZM118.844 34.1055L118.895 44.1053C120.408 44.0975 121.586 44.2268 122.447 44.4058C123.324 44.5881 123.719 44.7894 123.787 44.8282C123.836 44.8565 123.446 44.6431 123.043 44.0109C122.603 43.3221 122.422 42.5612 122.422 41.9688H132.422L142.422 41.9687C142.422 35.2572 138.6 30.2657 133.731 27.4755C129.28 24.9252 123.924 24.0792 118.792 24.1056L118.844 34.1055ZM132.422 41.9688H122.422C122.422 41.4322 122.585 40.7135 123.002 40.0489C123.386 39.4363 123.76 39.2266 123.713 39.2542C123.645 39.2936 123.254 39.4971 122.383 39.6842C121.527 39.8681 120.353 40.0039 118.844 40.0039V50.0039V60.0039C123.982 60.0039 129.351 59.1241 133.805 56.5212C138.685 53.6688 142.422 48.6418 142.422 41.9687L132.422 41.9688ZM118.844 50.0039V40.0039C117.265 40.0039 116.027 39.8655 115.112 39.6738C114.18 39.4786 113.742 39.2619 113.643 39.2053C113.561 39.1585 113.944 39.3586 114.348 39.9916C114.79 40.6864 114.97 41.4572 114.964 42.0535L104.965 41.9688L94.9652 41.884C94.9073 48.7134 98.8058 53.7619 103.72 56.5701C108.21 59.1355 113.634 60.0039 118.844 60.0039V50.0039ZM104.965 41.9688L114.964 41.8825C114.97 42.5361 114.771 43.3496 114.306 44.0684C113.883 44.7202 113.485 44.9234 113.569 44.8759C113.669 44.8199 114.111 44.6058 115.049 44.4156C115.969 44.2291 117.212 44.0974 118.794 44.1053L118.844 34.1055L118.894 24.1056C113.69 24.0794 108.279 24.9147 103.794 27.4278C98.8946 30.1727 94.906 35.1843 94.9652 42.055L104.965 41.9688ZM118.844 39.3906V29.3906C116.359 29.3906 113.151 29.5273 110.28 30.5328C108.745 31.0706 106.584 32.0993 104.769 34.1617C102.758 36.4467 101.84 39.2414 101.84 41.9688H111.84H121.84C121.84 43.7508 121.212 45.7506 119.782 47.3749C118.549 48.7767 117.261 49.279 116.891 49.4086C116.488 49.5498 116.391 49.5187 116.84 49.4705C117.247 49.4269 117.891 49.3906 118.844 49.3906V39.3906ZM111.84 41.9688H101.84C101.84 44.6838 102.746 47.4161 104.652 49.6615C106.393 51.7119 108.487 52.795 110.051 53.3857C112.982 54.4936 116.244 54.6758 118.844 54.6758V44.6758V34.6758C117.939 34.6758 117.337 34.635 116.975 34.5912C116.575 34.5427 116.699 34.5176 117.12 34.6768C117.518 34.8271 118.739 35.3516 119.899 36.7172C121.224 38.2778 121.84 40.199 121.84 41.9688H111.84ZM118.844 44.6758V54.6758C121.387 54.6758 124.667 54.4997 127.624 53.3284C129.229 52.6926 131.309 51.5435 132.998 49.4269C134.816 47.1493 135.59 44.4894 135.59 41.9688H125.59H115.59C115.59 40.3934 116.095 38.5446 117.366 36.9517C118.509 35.52 119.765 34.9295 120.258 34.7341C120.752 34.5384 120.948 34.5519 120.596 34.596C120.283 34.6352 119.724 34.6758 118.844 34.6758V44.6758ZM125.59 41.9688H135.59C135.59 39.4403 134.808 36.716 132.888 34.3942C131.12 32.258 128.967 31.1632 127.387 30.5834C124.493 29.5206 121.268 29.3906 118.844 29.3906V39.3906V49.3906C119.773 49.3906 120.376 49.4268 120.736 49.4667C121.14 49.5115 120.971 49.5329 120.494 49.358C120.027 49.1864 118.698 48.618 117.477 47.1424C116.103 45.4813 115.59 43.5519 115.59 41.9688H125.59ZM132.035 10.1289H122.035V18.9375H132.035H142.035V10.1289H132.035ZM132.035 18.9375V28.9375H136.977V18.9375V8.9375H132.035V18.9375ZM136.977 18.9375H126.977V24.6094H136.977H146.977V18.9375H136.977ZM136.977 24.6094V14.6094H132.035V24.6094V34.6094H136.977V24.6094ZM132.035 24.6094H122.035V33.2891H132.035L142.035 33.2891V24.6094H132.035ZM132.035 33.2891V23.2891H125.117V33.2891V43.2891H132.035V33.2891ZM125.117 33.2891H135.117V10.1289H125.117H115.117V33.2891H125.117ZM125.117 10.1289V20.1289H132.035V10.1289V0.128906H125.117V10.1289ZM107.93 12.707H97.9297V17.0469H107.93H117.93V12.707H107.93ZM107.93 17.0469V27.0469H113.902V17.0469V7.04687L107.93 7.04687V17.0469ZM113.902 17.0469H123.902V12.707H113.902H103.902V17.0469H113.902ZM113.902 12.707V22.707H120.777V12.707V2.70703H113.902V12.707ZM120.777 12.707H110.777V31.5273H120.777H130.777V12.707H120.777ZM120.777 31.5273V21.5273H101.098V31.5273V41.5273H120.777V31.5273ZM101.098 31.5273H111.098V12.707H101.098H91.0977V31.5273H101.098ZM101.098 12.707V22.707H107.93V12.707V2.70703H101.098V12.707ZM107.93 26.1992V36.1992H113.902V26.1992V16.1992H107.93V26.1992ZM113.902 26.1992H123.902V22.332H113.902H103.902V26.1992H113.902ZM113.902 22.332V12.332L107.93 12.332V22.332V32.332H113.902V22.332ZM107.93 22.332H97.9297V26.1992H107.93H117.93V22.332H107.93ZM174.746 15.2422H184.746C184.746 9.71934 180.269 5.24219 174.746 5.24219V15.2422ZM174.746 20.7852V30.7852C180.269 30.7852 184.746 26.308 184.746 20.7852H174.746ZM170.062 20.7852V10.7852C164.54 10.7852 160.062 15.2623 160.062 20.7852H170.062ZM170.062 23.9219H160.062C160.062 29.4447 164.54 33.9219 170.062 33.9219V23.9219ZM174.746 23.9219H184.746C184.746 18.399 180.269 13.9219 174.746 13.9219V23.9219ZM174.746 29.4648V39.4648C180.269 39.4648 184.746 34.9877 184.746 29.4648H174.746ZM170.062 29.4648V19.4648C164.54 19.4648 160.062 23.942 160.062 29.4648H170.062ZM170.062 35.1367V45.1367C175.585 45.1367 180.062 40.6596 180.062 35.1367H170.062ZM163.145 35.1367H153.145C153.145 40.6596 157.622 45.1367 163.145 45.1367V35.1367ZM163.145 10.1289V0.128906C157.622 0.128906 153.145 4.60606 153.145 10.1289H163.145ZM170.062 10.1289L180.062 10.1289C180.062 4.60606 175.585 0.128906 170.062 0.128906V10.1289ZM170.062 15.2422H160.062C160.062 20.765 164.54 25.2422 170.062 25.2422V15.2422ZM170.492 42.7852L180.492 42.8822C180.492 42.8181 180.492 42.754 180.492 42.6899L170.492 42.7852ZM143.078 42.7852L153.078 42.8822C153.078 42.8181 153.078 42.754 153.078 42.6899L143.078 42.7852ZM161.727 13.4805H171.727C171.727 7.95762 167.249 3.48047 161.727 3.48047V13.4805ZM161.727 18.8086V28.8086C167.249 28.8086 171.727 24.3314 171.727 18.8086H161.727ZM138.223 18.8086H128.223C128.223 24.3314 132.7 28.8086 138.223 28.8086V18.8086ZM138.223 13.4805V3.48047C132.7 3.48047 128.223 7.95762 128.223 13.4805H138.223ZM146.516 13.4805V23.4805C152.038 23.4805 156.516 19.0033 156.516 13.4805H146.516ZM146.516 10V0C140.993 0 136.516 4.47715 136.516 10H146.516ZM153.434 10H163.434C163.434 4.47715 158.956 0 153.434 0V10ZM153.434 13.4805H143.434C143.434 19.0033 147.911 23.4805 153.434 23.4805V13.4805ZM149.953 34.1484L149.88 44.1482C149.929 44.1485 149.978 44.1485 150.027 44.1482L149.953 34.1484ZM174.746 15.2422H164.746V20.7852H174.746H184.746V15.2422H174.746ZM174.746 20.7852V10.7852L170.062 10.7852V20.7852V30.7852H174.746V20.7852ZM170.062 20.7852H160.062V23.9219H170.062H180.062V20.7852H170.062ZM170.062 23.9219V33.9219H174.746V23.9219V13.9219H170.062V23.9219ZM174.746 23.9219H164.746V29.4648H174.746H184.746V23.9219H174.746ZM174.746 29.4648V19.4648H170.062V29.4648V39.4648H174.746V29.4648ZM170.062 29.4648H160.062V35.1367H170.062H180.062V29.4648H170.062ZM170.062 35.1367V25.1367H163.145V35.1367V45.1367H170.062V35.1367ZM163.145 35.1367H173.145V10.1289H163.145H153.145V35.1367H163.145ZM163.145 10.1289V20.1289H170.062V10.1289V0.128906L163.145 0.128906V10.1289ZM170.062 10.1289H160.062V15.2422H170.062H180.062V10.1289L170.062 10.1289ZM170.062 15.2422V25.2422H174.746V15.2422V5.24219L170.062 5.24219V15.2422ZM156.785 35.5664V45.5664C158.331 45.5664 159.572 45.6939 160.514 45.8766C161.474 46.0631 161.966 46.2767 162.117 46.3551C162.269 46.4344 161.861 46.2609 161.382 45.5946C160.837 44.8372 160.502 43.8519 160.493 42.8804L170.492 42.7852L180.492 42.6899C180.425 35.6672 175.937 31.0001 171.348 28.6127C167.01 26.3556 161.813 25.5664 156.785 25.5664V35.5664ZM170.492 42.7852L160.493 42.6881C160.503 41.6539 160.863 40.6471 161.407 39.8977C161.884 39.2402 162.283 39.0754 162.117 39.1615C161.957 39.245 161.457 39.4606 160.498 39.6483C159.559 39.8323 158.322 39.9609 156.785 39.9609V49.9609V59.9609C161.839 59.9609 167.025 59.1531 171.348 56.9039C175.871 54.5509 180.423 49.9186 180.492 42.8822L170.492 42.7852ZM156.785 49.9609V39.9609C155.194 39.9609 153.925 39.8303 152.971 39.6452C151.996 39.4561 151.509 39.2414 151.373 39.1701C151.234 39.0975 151.676 39.292 152.179 40.0042C152.751 40.8133 153.088 41.8584 153.078 42.8822L143.078 42.7852L133.079 42.6881C133.01 49.7614 137.51 54.4915 142.109 56.8953C146.451 59.1644 151.682 59.9609 156.785 59.9609V49.9609ZM143.078 42.7852L153.078 42.6899C153.087 43.6498 152.775 44.6721 152.204 45.4881C151.699 46.2089 151.247 46.4122 151.373 46.3465C151.5 46.2803 151.979 46.0676 152.956 45.8797C153.912 45.6958 155.184 45.5664 156.785 45.5664V35.5664V25.5664C151.707 25.5664 146.466 26.3445 142.109 28.6213C137.443 31.0602 133.011 35.8249 133.079 42.8804L143.078 42.7852ZM156.785 40.7656V30.7656C154.439 30.7656 151.506 30.8479 148.941 31.553C147.626 31.9143 145.438 32.6872 143.478 34.5299C141.157 36.7104 139.91 39.6806 139.91 42.7852L149.91 42.7852H159.91C159.91 43.799 159.724 44.983 159.203 46.1975C158.681 47.4153 157.941 48.383 157.174 49.1042C155.77 50.4232 154.423 50.7878 154.242 50.8377C153.957 50.9159 153.976 50.8759 154.525 50.8324C155.029 50.7925 155.758 50.7656 156.785 50.7656V40.7656ZM149.91 42.7852L139.91 42.7852C139.91 46.0873 141.328 48.9636 143.45 50.9732C145.283 52.709 147.322 53.5183 148.647 53.9264C151.267 54.7335 154.223 54.8906 156.785 54.8906V44.8906V34.8906C154.664 34.8906 154.182 34.704 154.535 34.8128C154.727 34.8719 155.926 35.2434 157.202 36.4514C157.894 37.1073 158.613 38.016 159.143 39.2016C159.679 40.4017 159.91 41.6354 159.91 42.7852H149.91ZM156.785 44.8906V54.8906C159.3 54.8906 162.233 54.7318 164.849 53.9144C166.173 53.5007 168.2 52.6841 170.02 50.9483C172.12 48.9453 173.531 46.0809 173.531 42.7852H163.531H153.531C153.531 41.6356 153.762 40.407 154.293 39.214C154.818 38.0358 155.529 37.1311 156.215 36.4764C157.482 35.2683 158.677 34.8895 158.883 34.8248C159.265 34.7057 158.825 34.8906 156.785 34.8906V44.8906ZM163.531 42.7852H173.531C173.531 39.6861 172.289 36.7291 169.992 34.5547C168.044 32.7107 165.868 31.9297 164.552 31.5628C161.99 30.8482 159.078 30.7656 156.785 30.7656V40.7656V50.7656C157.776 50.7656 158.475 50.7923 158.954 50.831C159.478 50.8735 159.479 50.9111 159.18 50.8278C158.982 50.7724 157.638 50.3996 156.243 49.0793C155.482 48.3591 154.751 47.3955 154.233 46.1853C153.717 44.9779 153.531 43.7991 153.531 42.7852H163.531ZM161.727 13.4805H151.727V18.8086H161.727H171.727V13.4805H161.727ZM161.727 18.8086V8.80859H138.223V18.8086V28.8086L161.727 28.8086V18.8086ZM138.223 18.8086H148.223V13.4805H138.223H128.223V18.8086H138.223ZM138.223 13.4805V23.4805H146.516V13.4805V3.48047H138.223V13.4805ZM146.516 13.4805H156.516V10H146.516H136.516V13.4805H146.516ZM146.516 10V20H153.434V10V0L146.516 0V10ZM153.434 10H143.434V13.4805H153.434H163.434V10H153.434ZM153.434 13.4805V23.4805H161.727V13.4805V3.48047L153.434 3.48047V13.4805ZM149.953 19.7109V29.7109C151.226 29.7109 151.516 30.0512 151.207 29.8264C151.026 29.6952 150.675 29.3827 150.367 28.818C150.045 28.2284 149.879 27.5588 149.879 26.9297H159.879H169.879C169.879 21.2045 166.957 16.5536 162.976 13.656C159.154 10.8745 154.482 9.71094 149.953 9.71094V19.7109ZM159.879 26.9297H149.879C149.879 26.3533 150.03 25.689 150.366 25.0744C150.687 24.4849 151.06 24.1545 151.255 24.0138C151.578 23.7817 151.264 24.1385 149.879 24.1487L149.953 34.1484L150.027 44.1482C154.443 44.1155 159.092 43.0112 162.927 40.2548C166.978 37.344 169.879 32.6725 169.879 26.9297H159.879ZM149.953 34.1484L150.026 24.1487C148.571 24.1381 148.232 23.7686 148.552 23.9969C148.748 24.1367 149.125 24.4687 149.45 25.064C149.79 25.6844 149.941 26.353 149.941 26.9297H139.941H129.941C129.941 32.6793 132.85 37.3593 136.927 40.2716C140.781 43.0244 145.448 44.1158 149.88 44.1482L149.953 34.1484ZM139.941 26.9297H149.941C149.941 27.5591 149.775 28.233 149.449 28.8284C149.136 29.3989 148.781 29.7131 148.601 29.8435C148.294 30.0652 148.609 29.7109 149.953 29.7109V19.7109V9.71094C145.41 9.71094 140.719 10.8606 136.879 13.639C132.87 16.5384 129.941 21.1977 129.941 26.9297H139.941ZM149.953 24.6953V14.6953C148.182 14.6953 145.136 14.9301 142.236 16.7633C138.604 19.0592 136.688 22.9031 136.688 26.9297H146.688H156.688C156.688 27.9059 156.481 29.2353 155.74 30.6222C154.988 32.0286 153.935 33.0287 152.922 33.6693C151.97 34.271 151.141 34.5055 150.7 34.5998C150.249 34.6962 149.974 34.6953 149.953 34.6953V24.6953ZM146.688 26.9297H136.688C136.688 31.0456 138.699 34.8562 142.294 37.0944C145.166 38.8832 148.175 39.1211 149.953 39.1211V29.1211V19.1211C149.975 19.1211 150.243 19.1204 150.684 19.2139C151.114 19.305 151.926 19.5321 152.865 20.1165C153.861 20.7371 154.926 21.7209 155.697 23.1332C156.462 24.5348 156.688 25.8987 156.688 26.9297H146.688ZM149.953 29.1211V39.1211C151.738 39.1211 154.685 38.8855 157.518 37.2008C161.062 35.0941 163.348 31.3272 163.348 26.9297H153.348H143.348C143.348 25.7899 143.616 24.3537 144.441 22.925C145.259 21.5072 146.351 20.5728 147.297 20.0101C148.193 19.4775 148.949 19.2774 149.328 19.1997C149.723 19.119 149.952 19.1211 149.953 19.1211V29.1211ZM153.348 26.9297H163.348C163.348 22.625 161.165 18.8218 157.575 16.655C154.714 14.9279 151.731 14.6953 149.953 14.6953V24.6953V34.6953C149.953 34.6953 149.717 34.6976 149.313 34.6142C148.923 34.5337 148.15 34.3267 147.24 33.7776C146.276 33.1954 145.194 32.244 144.395 30.8291C143.595 29.4128 143.348 28.0115 143.348 26.9297H153.348ZM209.852 10.1289H219.852C219.852 4.60606 215.374 0.128906 209.852 0.128906V10.1289ZM209.852 50.0039V60.0039C215.374 60.0039 219.852 55.5268 219.852 50.0039H209.852ZM202.891 50.0039H192.891C192.891 55.5268 197.368 60.0039 202.891 60.0039V50.0039ZM202.891 10.1289V0.128906C197.368 0.128906 192.891 4.60606 192.891 10.1289H202.891ZM188.023 12.793L187.954 22.7927C188.001 22.7931 188.048 22.793 188.094 22.7927L188.023 12.793ZM188.023 19.0234L187.854 29.022C187.971 29.024 188.088 29.0239 188.205 29.0218L188.023 19.0234ZM209.852 10.1289H199.852V50.0039H209.852H219.852V10.1289H209.852ZM209.852 50.0039V40.0039H202.891V50.0039V60.0039H209.852V50.0039ZM202.891 50.0039H212.891V10.1289H202.891H192.891V50.0039H202.891ZM202.891 10.1289V20.1289L209.852 20.1289V10.1289V0.128906H202.891V10.1289ZM188.023 12.793L188.094 22.7927C188.027 22.7932 187.857 22.7695 187.682 22.6797C187.52 22.597 187.529 22.5487 187.65 22.7071C187.92 23.0616 188.637 24.3623 188.637 27.1016H198.637L208.637 27.1016C208.637 21.0752 207.076 15.2001 203.554 10.581C199.907 5.7971 194.374 2.74768 187.953 2.79322L188.023 12.793ZM198.637 27.1016H188.637C188.637 29.9317 187.907 31.2538 187.637 31.6093C187.517 31.768 187.505 31.7229 187.66 31.6436C187.825 31.5582 187.978 31.5391 188.023 31.5391V41.5391V51.5391C194.397 51.5391 199.915 48.5123 203.567 43.7023C207.089 39.0626 208.637 33.166 208.637 27.1016L198.637 27.1016ZM188.023 41.5391V31.5391C188.002 31.5391 188.107 31.5424 188.244 31.6119C188.372 31.6768 188.354 31.7104 188.234 31.5554C187.969 31.2105 187.238 29.9128 187.238 27.1016H177.238H167.238C167.238 33.1849 168.807 39.1059 172.387 43.7562C176.1 48.5787 181.661 51.5391 188.023 51.5391V41.5391ZM177.238 27.1016H187.238C187.238 24.3815 187.955 23.1052 188.222 22.7609C188.341 22.6063 188.358 22.6428 188.222 22.7111C188.162 22.7416 188.095 22.7652 188.033 22.7796C187.971 22.7938 187.941 22.7926 187.954 22.7927L188.023 12.793L188.093 2.79321C181.684 2.7487 176.108 5.73041 172.4 10.5271C168.82 15.1566 167.238 21.056 167.238 27.1016H177.238ZM188.023 19.0234L188.193 9.02487C182.561 8.92942 178.363 12.2035 176.19 16.2725C174.349 19.7189 173.898 23.6674 173.898 27.1016H183.898H193.898C193.898 26.1848 193.967 25.6186 194.019 25.3344C194.076 25.0282 194.082 25.2255 193.831 25.6953C193.565 26.1938 192.938 27.1193 191.724 27.9011C190.446 28.7244 189.049 29.0423 187.854 29.022L188.023 19.0234ZM183.898 27.1016H173.898C173.898 30.556 174.342 34.5233 176.198 37.983C178.412 42.1125 182.587 45.2227 188.023 45.2227V35.2227V25.2227C189.134 25.2227 190.469 25.5254 191.716 26.3271C192.913 27.0963 193.545 28.012 193.823 28.5307C194.082 29.0135 194.077 29.2217 194.021 28.9138C193.968 28.6266 193.898 28.0483 193.898 27.1016H183.898ZM188.023 35.2227V45.2227C193.623 45.2227 197.674 41.8583 199.75 37.9275C201.549 34.5216 202.02 30.6095 202.02 27.1016H192.02H182.02C182.02 28.0329 181.95 28.6095 181.896 28.9013C181.838 29.2131 181.828 29.0351 182.066 28.5862C182.314 28.1154 182.91 27.214 184.082 26.4294C185.322 25.5992 186.731 25.2227 188.023 25.2227V35.2227ZM192.02 27.1016H202.02C202.02 23.6142 201.542 19.7203 199.758 16.3279C197.727 12.4682 193.648 8.91951 187.842 9.02509L188.023 19.0234L188.205 29.0218C186.819 29.047 185.344 28.6506 184.074 27.7986C182.885 27.0012 182.295 26.0903 182.058 25.6399C181.828 25.2039 181.839 25.0367 181.897 25.3469C181.951 25.6359 182.02 26.2004 182.02 27.1016H192.02ZM260.168 30.1094H270.168C270.168 24.5865 265.691 20.1094 260.168 20.1094V30.1094ZM260.168 35.4805V45.4805C265.691 45.4805 270.168 41.0033 270.168 35.4805H260.168ZM246.031 35.4805V25.4805C240.508 25.4805 236.031 29.9576 236.031 35.4805H246.031ZM246.031 40.9805V50.9805C251.554 50.9805 256.031 46.5033 256.031 40.9805H246.031ZM239.199 40.9805H229.199C229.199 46.5033 233.676 50.9805 239.199 50.9805V40.9805ZM239.199 35.4805H249.199C249.199 29.9576 244.722 25.4805 239.199 25.4805V35.4805ZM223.902 35.4805H213.902C213.902 41.0033 218.38 45.4805 223.902 45.4805V35.4805ZM223.902 30.1094V20.1094C218.38 20.1094 213.902 24.5865 213.902 30.1094H223.902ZM256.215 43.8164H266.215C266.215 38.2936 261.738 33.8164 256.215 33.8164V43.8164ZM256.215 49.3164V59.3164C261.738 59.3164 266.215 54.8393 266.215 49.3164H256.215ZM227.855 49.3164H217.855C217.855 54.8393 222.333 59.3164 227.855 59.3164V49.3164ZM227.855 38.2305V28.2305C222.333 28.2305 217.855 32.7076 217.855 38.2305H227.855ZM234.688 38.2305H244.688C244.688 32.7076 240.21 28.2305 234.688 28.2305V38.2305ZM234.688 43.8164H224.688C224.688 49.3393 229.165 53.8164 234.688 53.8164V43.8164ZM235.16 11.418L245.16 11.418C245.16 5.89512 240.683 1.41797 235.16 1.41797V11.418ZM235.16 14.9844H225.16C225.16 20.5072 229.637 24.9844 235.16 24.9844V14.9844ZM248.738 14.9844V24.9844C254.261 24.9844 258.738 20.5072 258.738 14.9844H248.738ZM248.738 11.418V1.41797C243.215 1.41797 238.738 5.89512 238.738 11.418H248.738ZM255.57 11.418H265.57C265.57 5.89512 261.093 1.41797 255.57 1.41797V11.418ZM255.57 28.0469V38.0469C261.093 38.0469 265.57 33.5697 265.57 28.0469H255.57ZM228.414 28.0469H218.414C218.414 33.5697 222.891 38.0469 228.414 38.0469V28.0469ZM228.414 11.418V1.41797C222.891 1.41797 218.414 5.89512 218.414 11.418H228.414ZM235.16 22.6758H225.16C225.16 28.1986 229.637 32.6758 235.16 32.6758V22.6758ZM248.738 22.6758V32.6758C254.261 32.6758 258.738 28.1986 258.738 22.6758H248.738ZM248.738 20.0117H258.738C258.738 14.4889 254.261 10.0117 248.738 10.0117V20.0117ZM235.16 20.0117V10.0117C229.637 10.0117 225.16 14.4889 225.16 20.0117H235.16ZM260.168 30.1094H250.168V35.4805H260.168H270.168V30.1094H260.168ZM260.168 35.4805V25.4805H246.031V35.4805V45.4805H260.168V35.4805ZM246.031 35.4805H236.031V40.9805H246.031H256.031V35.4805H246.031ZM246.031 40.9805V30.9805H239.199V40.9805V50.9805H246.031V40.9805ZM239.199 40.9805H249.199V35.4805H239.199H229.199V40.9805H239.199ZM239.199 35.4805V25.4805H223.902V35.4805V45.4805H239.199V35.4805ZM223.902 35.4805H233.902V30.1094H223.902H213.902V35.4805H223.902ZM223.902 30.1094V40.1094H260.168V30.1094V20.1094H223.902V30.1094ZM256.215 43.8164H246.215V49.3164H256.215H266.215V43.8164H256.215ZM256.215 49.3164V39.3164H227.855V49.3164V59.3164H256.215V49.3164ZM227.855 49.3164H237.855V38.2305H227.855H217.855V49.3164H227.855ZM227.855 38.2305V48.2305H234.688V38.2305V28.2305H227.855V38.2305ZM234.688 38.2305H224.688V43.8164H234.688H244.688V38.2305H234.688ZM234.688 43.8164V53.8164H256.215V43.8164V33.8164H234.688V43.8164ZM235.16 11.418H225.16V14.9844H235.16H245.16V11.418L235.16 11.418ZM235.16 14.9844V24.9844H248.738V14.9844V4.98437L235.16 4.98437V14.9844ZM248.738 14.9844H258.738V11.418H248.738H238.738V14.9844H248.738ZM248.738 11.418V21.418H255.57V11.418V1.41797L248.738 1.41797V11.418ZM255.57 11.418H245.57V28.0469H255.57H265.57V11.418H255.57ZM255.57 28.0469V18.0469H228.414V28.0469V38.0469H255.57V28.0469ZM228.414 28.0469H238.414V11.418L228.414 11.418H218.414V28.0469H228.414ZM228.414 11.418V21.418H235.16V11.418V1.41797H228.414V11.418ZM235.16 22.6758V32.6758H248.738V22.6758V12.6758H235.16V22.6758ZM248.738 22.6758H258.738V20.0117H248.738H238.738V22.6758H248.738ZM248.738 20.0117V10.0117L235.16 10.0117V20.0117V30.0117H248.738V20.0117ZM235.16 20.0117H225.16V22.6758H235.16H245.16V20.0117H235.16ZM295.746 10.1289L305.746 10.1289C305.746 4.60606 301.269 0.128906 295.746 0.128906V10.1289ZM295.746 33.2891V43.2891C301.269 43.2891 305.746 38.8119 305.746 33.2891H295.746ZM288.871 33.2891H278.871C278.871 38.8119 283.348 43.2891 288.871 43.2891V33.2891ZM288.871 28.9922H298.871C298.871 23.4693 294.394 18.9922 288.871 18.9922V28.9922ZM282.727 28.9922V18.9922C277.204 18.9922 272.727 23.4693 272.727 28.9922H282.727ZM282.727 31.5273V41.5273C288.249 41.5273 292.727 37.0502 292.727 31.5273H282.727ZM263.434 31.5273H253.434C253.434 37.0502 257.911 41.5273 263.434 41.5273V31.5273ZM263.434 13.0078V3.00781C257.911 3.00781 253.434 7.48497 253.434 13.0078H263.434ZM282.727 13.0078H292.727C292.727 7.48497 288.249 3.00781 282.727 3.00781V13.0078ZM282.727 15.5859H272.727C272.727 21.1088 277.204 25.5859 282.727 25.5859V15.5859ZM288.871 15.5859V25.5859C294.394 25.5859 298.871 21.1088 298.871 15.5859H288.871ZM288.871 10.1289V0.128906C283.348 0.128906 278.871 4.60606 278.871 10.1289H288.871ZM270.309 18.4219V8.42187C264.786 8.42187 260.309 12.899 260.309 18.4219H270.309ZM270.309 26.1562H260.309C260.309 31.6791 264.786 36.1562 270.309 36.1562V26.1562ZM275.98 26.1562V36.1562C281.503 36.1562 285.98 31.6791 285.98 26.1562H275.98ZM275.98 18.4219H285.98C285.98 12.899 281.503 8.42187 275.98 8.42187V18.4219ZM274.949 42.0977L284.947 42.3302C284.95 42.1786 284.95 42.027 284.947 41.8755L274.949 42.0977ZM282.727 23.4492H272.727C272.727 28.9721 277.204 33.4492 282.727 33.4492V23.4492ZM288.871 23.4492V33.4492C294.394 33.4492 298.871 28.9721 298.871 23.4492H288.871ZM288.871 20.9141H298.871C298.871 15.3912 294.394 10.9141 288.871 10.9141V20.9141ZM282.727 20.9141V10.9141C277.204 10.9141 272.727 15.3912 272.727 20.9141H282.727ZM295.746 10.1289H285.746V33.2891H295.746H305.746V10.1289L295.746 10.1289ZM295.746 33.2891V23.2891H288.871V33.2891V43.2891H295.746V33.2891ZM288.871 33.2891H298.871V28.9922H288.871H278.871V33.2891H288.871ZM288.871 28.9922V18.9922H282.727V28.9922V38.9922H288.871V28.9922ZM282.727 28.9922H272.727V31.5273H282.727H292.727V28.9922H282.727ZM282.727 31.5273V21.5273H263.434V31.5273V41.5273H282.727V31.5273ZM263.434 31.5273H273.434V13.0078H263.434H253.434V31.5273H263.434ZM263.434 13.0078V23.0078H282.727V13.0078V3.00781H263.434V13.0078ZM282.727 13.0078H272.727V15.5859H282.727H292.727V13.0078H282.727ZM282.727 15.5859V25.5859H288.871V15.5859V5.58594H282.727V15.5859ZM288.871 15.5859H298.871V10.1289H288.871H278.871V15.5859H288.871ZM288.871 10.1289V20.1289H295.746V10.1289V0.128906L288.871 0.128906V10.1289ZM270.309 18.4219H260.309V26.1562H270.309H280.309V18.4219H270.309ZM270.309 26.1562V36.1562H275.98V26.1562V16.1562H270.309V26.1562ZM275.98 26.1562H285.98V18.4219H275.98H265.98V26.1562H275.98ZM275.98 18.4219V8.42187H270.309V18.4219V28.4219H275.98V18.4219ZM281.91 34.2344V44.2344C283.524 44.2344 284.786 44.3725 285.718 44.5637C286.666 44.7585 287.112 44.9752 287.214 45.0324C287.299 45.0803 286.907 44.8801 286.49 44.2385C286.031 43.5334 285.832 42.7371 285.832 42.0977H295.832H305.832C305.832 35.3104 301.896 30.3397 297.006 27.5936C292.535 25.083 287.134 24.2344 281.91 24.2344V34.2344ZM295.832 42.0977H285.832C285.832 41.4856 286.022 40.6951 286.484 39.9829C286.906 39.3333 287.307 39.127 287.229 39.1707C287.132 39.2248 286.689 39.44 285.736 39.6338C284.801 39.8241 283.533 39.9609 281.91 39.9609V49.9609V59.9609C287.111 59.9609 292.514 59.1303 296.991 56.6262C301.915 53.8722 305.832 48.8873 305.832 42.0977H295.832ZM281.91 49.9609V39.9609C280.315 39.9609 279.067 39.825 278.148 39.6366C277.21 39.4447 276.776 39.232 276.684 39.1801C276.609 39.1383 277.007 39.3451 277.426 39.991C277.885 40.6992 278.074 41.486 278.074 42.0977H268.074H258.074C258.074 48.8797 261.983 53.8611 266.888 56.6168C271.354 59.1261 276.738 59.9609 281.91 59.9609V49.9609ZM268.074 42.0977H278.074C278.074 42.7367 277.876 43.5294 277.421 44.2304C277.006 44.8683 276.617 45.069 276.698 45.023C276.796 44.9679 277.233 44.7538 278.166 44.5609C279.082 44.3715 280.324 44.2344 281.91 44.2344V34.2344V24.2344C276.715 24.2344 271.333 25.0874 266.873 27.603C262.001 30.3508 258.074 35.318 258.074 42.0977H268.074ZM281.91 39.4336V29.4336C279.393 29.4336 276.119 29.5788 273.192 30.6541C271.613 31.2343 269.431 32.3346 267.646 34.4953C265.687 36.8655 264.893 39.6774 264.952 42.3198L274.949 42.0977L284.947 41.8755C284.984 43.5511 284.459 45.5467 283.062 47.236C281.839 48.716 280.514 49.2711 280.09 49.4269C279.644 49.5907 279.509 49.5638 279.94 49.5153C280.327 49.4718 280.958 49.4336 281.91 49.4336V39.4336ZM274.949 42.0977L264.952 41.8652C264.888 44.6027 265.753 47.4006 267.683 49.7088C269.435 51.804 271.56 52.8944 273.116 53.4805C276.038 54.5813 279.3 54.7617 281.91 54.7617V44.7617V34.7617C280.991 34.7617 280.382 34.7207 280.015 34.6767C279.608 34.6278 279.736 34.6025 280.167 34.7646C280.567 34.9156 281.835 35.4555 283.025 36.878C284.393 38.5135 284.989 40.5165 284.947 42.3302L274.949 42.0977ZM281.91 44.7617V54.7617C284.548 54.7617 287.8 54.5788 290.713 53.5016C292.257 52.9302 294.356 51.8745 296.114 49.8496C298.052 47.6174 299 44.865 299 42.0977H289H279C279 40.2541 279.658 38.2966 281.012 36.7372C282.186 35.385 283.406 34.8798 283.775 34.7435C284.175 34.5955 284.275 34.6248 283.852 34.675C283.467 34.7206 282.841 34.7617 281.91 34.7617V44.7617ZM289 42.0977H299C299 39.4214 298.123 36.6507 296.152 34.354C294.359 32.2643 292.204 31.1992 290.637 30.6338C287.72 29.5815 284.456 29.4336 281.91 29.4336V39.4336V49.4336C282.874 49.4336 283.521 49.4719 283.926 49.5168C284.372 49.5664 284.266 49.597 283.85 49.4472C283.46 49.3062 282.182 48.7862 280.974 47.3773C279.587 45.7614 279 43.8072 279 42.0977H289ZM282.727 23.4492V33.4492H288.871V23.4492V13.4492H282.727V23.4492ZM288.871 23.4492H298.871V20.9141H288.871H278.871V23.4492H288.871ZM288.871 20.9141V10.9141H282.727V20.9141V30.9141H288.871V20.9141ZM282.727 20.9141H272.727V23.4492H282.727H292.727V20.9141H282.727ZM331.754 10.2148H341.754C341.754 4.692 337.277 0.214844 331.754 0.214844V10.2148ZM331.754 21.8164H321.754C321.754 27.3393 326.231 31.8164 331.754 31.8164V21.8164ZM336.695 21.8164H346.695C346.695 16.2936 342.218 11.8164 336.695 11.8164V21.8164ZM336.695 27.4023V37.4023C342.218 37.4023 346.695 32.9252 346.695 27.4023H336.695ZM331.754 27.4023V17.4023C326.231 17.4023 321.754 21.8795 321.754 27.4023H331.754ZM331.754 39.8203V49.8203C337.277 49.8203 341.754 45.3432 341.754 39.8203H331.754ZM324.836 39.8203H314.836C314.836 45.3432 319.313 49.8203 324.836 49.8203V39.8203ZM324.836 10.2148V0.214844C319.313 0.214844 314.836 4.692 314.836 10.2148H324.836ZM323.418 13.9531H333.418C333.418 8.43028 328.941 3.95312 323.418 3.95312V13.9531ZM323.418 19.2812V29.2812C328.941 29.2812 333.418 24.8041 333.418 19.2812H323.418ZM299.914 19.2812H289.914C289.914 24.8041 294.391 29.2812 299.914 29.2812V19.2812ZM299.914 13.9531V3.95312C294.391 3.95312 289.914 8.43028 289.914 13.9531H299.914ZM308.207 13.9531V23.9531C313.73 23.9531 318.207 19.476 318.207 13.9531H308.207ZM308.207 10.1289V0.128906C302.684 0.128906 298.207 4.60606 298.207 10.1289L308.207 10.1289ZM315.125 10.1289H325.125C325.125 4.60606 320.648 0.128906 315.125 0.128906V10.1289ZM315.125 13.9531H305.125C305.125 19.476 309.602 23.9531 315.125 23.9531V13.9531ZM311.645 35.7812L311.719 25.7815C311.669 25.7812 311.62 25.7812 311.571 25.7815L311.645 35.7812ZM311.645 25.3828L311.857 15.3851C311.714 15.382 311.571 15.3821 311.427 15.3852L311.645 25.3828ZM332.914 43.8164H342.914C342.914 38.2936 338.437 33.8164 332.914 33.8164V43.8164ZM332.914 49.3164V59.3164C338.437 59.3164 342.914 54.8393 342.914 49.3164H332.914ZM305.414 49.3164H295.414C295.414 54.8393 299.891 59.3164 305.414 59.3164V49.3164ZM305.414 37.5859V27.5859C299.891 27.5859 295.414 32.0631 295.414 37.5859H305.414ZM312.332 37.5859H322.332C322.332 32.0631 317.855 27.5859 312.332 27.5859V37.5859ZM312.332 43.8164H302.332C302.332 49.3393 306.809 53.8164 312.332 53.8164V43.8164ZM331.754 10.2148H321.754V21.8164H331.754L341.754 21.8164V10.2148H331.754ZM331.754 21.8164V31.8164H336.695V21.8164V11.8164H331.754V21.8164ZM336.695 21.8164L326.695 21.8164V27.4023L336.695 27.4023H346.695V21.8164H336.695ZM336.695 27.4023V17.4023L331.754 17.4023V27.4023V37.4023H336.695V27.4023ZM331.754 27.4023H321.754V39.8203H331.754H341.754V27.4023L331.754 27.4023ZM331.754 39.8203V29.8203H324.836V39.8203V49.8203H331.754V39.8203ZM324.836 39.8203H334.836V10.2148H324.836H314.836V39.8203H324.836ZM324.836 10.2148V20.2148H331.754V10.2148V0.214844L324.836 0.214844V10.2148ZM323.418 13.9531H313.418V19.2812H323.418H333.418V13.9531H323.418ZM323.418 19.2812V9.28125L299.914 9.28125V19.2812V29.2812H323.418V19.2812ZM299.914 19.2812H309.914V13.9531H299.914H289.914V19.2812H299.914ZM299.914 13.9531V23.9531H308.207V13.9531V3.95312H299.914V13.9531ZM308.207 13.9531H318.207V10.1289H308.207L298.207 10.1289V13.9531H308.207ZM308.207 10.1289V20.1289H315.125V10.1289V0.128906L308.207 0.128906V10.1289ZM315.125 10.1289H305.125V13.9531H315.125H325.125V10.1289H315.125ZM315.125 13.9531V23.9531H323.418V13.9531V3.95312L315.125 3.95312V13.9531ZM311.645 20.1836V30.1836C312.769 30.1836 312.935 30.4987 312.589 30.2257C312.399 30.0764 312.118 29.7876 311.891 29.3326C311.657 28.8657 311.57 28.4018 311.57 28.0469H321.57H331.57C331.57 22.4859 328.992 17.6926 324.977 14.5243C321.118 11.4799 316.321 10.1836 311.645 10.1836V20.1836ZM321.57 28.0469H311.57C311.57 27.691 311.658 27.2082 311.907 26.7141C312.151 26.2317 312.454 25.9231 312.663 25.7613C313.042 25.4683 312.886 25.7902 311.719 25.7815L311.645 35.7812L311.57 45.781C316.204 45.8153 321.011 44.5903 324.902 41.5795C328.973 38.4296 331.57 33.6262 331.57 28.0469H321.57ZM311.645 35.7812L311.571 25.7815C310.366 25.7904 310.173 25.4596 310.532 25.7343C310.732 25.8881 311.037 26.1922 311.285 26.6789C311.54 27.1787 311.633 27.6738 311.633 28.0469H301.633H291.633C291.633 33.6672 294.277 38.4736 298.363 41.6065C302.266 44.599 307.079 45.8151 311.718 45.781L311.645 35.7812ZM301.633 28.0469H311.633C311.633 28.4189 311.541 28.8951 311.302 29.3677C311.07 29.8271 310.787 30.1117 310.606 30.2531C310.28 30.5082 310.481 30.1836 311.645 30.1836V20.1836V10.1836C302.71 10.1836 291.633 15.7314 291.633 28.0469H301.633ZM311.645 25.3828L311.427 15.3852C309.34 15.4305 306.115 15.8802 303.199 18.1085C299.817 20.6923 298.379 24.4775 298.379 28.0469H308.379H318.379C318.379 28.7914 318.243 29.8621 317.702 31.0425C317.145 32.2572 316.306 33.2635 315.342 33.9999C313.565 35.3581 311.972 35.3781 311.862 35.3805L311.645 25.3828ZM308.379 28.0469H298.379C298.379 31.6209 299.83 35.4815 303.344 38.0671C306.335 40.2685 309.607 40.625 311.645 40.625V30.625V20.625C311.705 20.625 313.344 20.5947 315.197 21.9583C316.212 22.7046 317.095 23.7388 317.679 24.9945C318.244 26.2094 318.379 27.3057 318.379 28.0469H308.379ZM311.645 30.625V40.625C313.676 40.625 316.883 40.2782 319.849 38.1946C323.375 35.7165 325.039 31.8671 325.039 28.0469H315.039H305.039C305.039 27.2154 305.203 26.051 305.819 24.7981C306.449 23.5172 307.368 22.5207 308.35 21.8308C310.122 20.5851 311.632 20.625 311.645 20.625V30.625ZM315.039 28.0469H325.039C325.039 24.2371 323.393 20.4566 319.994 17.9763C317.099 15.8636 313.933 15.4292 311.857 15.3851L311.645 25.3828L311.432 35.3806C311.376 35.3794 309.907 35.3747 308.204 34.1321C307.27 33.4499 306.396 32.4781 305.794 31.2376C305.204 30.0196 305.039 28.8813 305.039 28.0469H315.039ZM332.914 43.8164H322.914V49.3164H332.914H342.914V43.8164H332.914ZM332.914 49.3164V39.3164H305.414V49.3164V59.3164H332.914V49.3164ZM305.414 49.3164H315.414V37.5859H305.414H295.414V49.3164H305.414ZM305.414 37.5859V47.5859H312.332V37.5859V27.5859H305.414V37.5859ZM312.332 37.5859H302.332V43.8164H312.332H322.332V37.5859H312.332ZM312.332 43.8164V53.8164H332.914V43.8164V33.8164H312.332V43.8164Z" fill="white" mask="url(#path-1-outside-1_6524_1880)"/>
</g>
<defs>
<filter id="filter0_d_6524_1880" x="0" y="0" width="350.695" height="68.0039" filterUnits="userSpaceOnUse" color-interpolation-filters="sRGB">
<feFlood flood-opacity="0" result="BackgroundImageFix"/>
<feColorMatrix in="SourceAlpha" type="matrix" values="0 0 0 0 0 0 0 0 0 0 0 0 0 0 0 0 0 0 127 0" result="hardAlpha"/>
<feOffset dy="4"/>
<feGaussianBlur stdDeviation="2"/>
<feComposite in2="hardAlpha" operator="out"/>
<feColorMatrix type="matrix" values="0 0 0 0 0 0 0 0 0 0 0 0 0 0 0 0 0 0 0.07 0"/>
<feBlend mode="normal" in2="BackgroundImageFix" result="effect1_dropShadow_6524_1880"/>
<feBlend mode="normal" in="SourceGraphic" in2="effect1_dropShadow_6524_1880" result="shape"/>
</filter>
</defs>
</svg>
