<svg width="180" height="68" viewBox="0 0 180 68" fill="none" xmlns="http://www.w3.org/2000/svg">
<g filter="url(#filter0_d_6524_1726)">
<mask id="path-1-outside-1_6524_1726" maskUnits="userSpaceOnUse" x="3.95703" y="-0.507813" width="172" height="61" fill="black">
<rect fill="white" x="3.95703" y="-0.507813" width="172" height="61"/>
<path d="M49.2344 10V39.7344H42.7031V10L49.2344 10ZM41.0703 10.5586V38.5312H34.582V24.0938H30.6289V18.5078H34.582V10.5586H41.0703ZM50.1367 43.6875V49.1875H21.7773V36.3398H28.6523V43.6875H50.1367ZM27.8789 17.3047C27.8359 21.8594 29.2539 26.2852 34.3672 28.7344L30.5859 34.0195C27.7285 32.666 25.7949 30.5176 24.5703 27.875C23.1953 30.9258 21.0039 33.418 17.7383 34.9219L14 29.7227C19.5859 27.0156 21.1328 22.0312 21.1758 17.3047V12.5781H27.8789V17.3047ZM74.5 14.8555C74.457 20.0977 77.9375 26.4141 88.25 28.0898L85.2852 33.8047C78.002 32.4727 73.2969 28.8633 70.8047 24.2227C68.2266 28.8203 63.5 32.4297 56.3242 33.8047L53.4023 28.0898C63.5 26.3711 67.0664 19.9688 67.0664 14.8555V12.1484H74.5V14.8555ZM89.1953 39.6055V45.2344H52.8867V39.6055H89.1953ZM106.039 34.793C106.039 37.7578 107.07 40.7871 109.906 42.9141C112.764 40.7012 113.902 37.6504 113.945 34.793V33.9336H120.691V34.793C120.691 38.9609 122.367 42.6133 127.781 44.2031L124.473 49.1445C120.799 47.9629 118.457 45.7715 117.082 42.9141C115.75 45.8145 113.494 48.2422 110.035 49.5312C106.404 48.2637 104.127 45.9004 102.816 43.043C101.398 45.793 99.0996 47.9629 95.5977 49.1445L92.2461 44.2031C97.5742 42.4414 99.293 38.6602 99.293 34.793V33.9336H106.039V34.793ZM124.43 10.0859V32.3438H117.512V10.0859H124.43ZM102.473 11.8906C108.746 11.8906 113.602 15.9297 113.602 21.6445C113.602 27.1875 108.746 31.2695 102.473 31.2695C96.1562 31.2695 91.3008 27.1875 91.3438 21.6445C91.3008 15.9297 96.1562 11.8906 102.473 11.8906ZM102.473 17.6484C99.8516 17.6484 98.0469 18.9805 98.0469 21.6445C98.0469 24.1797 99.8516 25.5977 102.473 25.5547C104.965 25.5977 106.77 24.1797 106.77 21.6445C106.77 18.9805 104.965 17.6484 102.473 17.6484ZM161.297 20.0977V25.4258H133.195V11.418H140.07V20.0977H161.297ZM165.207 28.9492V34.2773L128.941 34.2773V28.9492L165.207 28.9492ZM161.555 43.4727V48.9727L132.723 48.9727V37.0273H139.684V43.4727L161.555 43.4727Z"/>
</mask>
<path d="M49.2344 10V39.7344H42.7031V10L49.2344 10ZM41.0703 10.5586V38.5312H34.582V24.0938H30.6289V18.5078H34.582V10.5586H41.0703ZM50.1367 43.6875V49.1875H21.7773V36.3398H28.6523V43.6875H50.1367ZM27.8789 17.3047C27.8359 21.8594 29.2539 26.2852 34.3672 28.7344L30.5859 34.0195C27.7285 32.666 25.7949 30.5176 24.5703 27.875C23.1953 30.9258 21.0039 33.418 17.7383 34.9219L14 29.7227C19.5859 27.0156 21.1328 22.0312 21.1758 17.3047V12.5781H27.8789V17.3047ZM74.5 14.8555C74.457 20.0977 77.9375 26.4141 88.25 28.0898L85.2852 33.8047C78.002 32.4727 73.2969 28.8633 70.8047 24.2227C68.2266 28.8203 63.5 32.4297 56.3242 33.8047L53.4023 28.0898C63.5 26.3711 67.0664 19.9688 67.0664 14.8555V12.1484H74.5V14.8555ZM89.1953 39.6055V45.2344H52.8867V39.6055H89.1953ZM106.039 34.793C106.039 37.7578 107.07 40.7871 109.906 42.9141C112.764 40.7012 113.902 37.6504 113.945 34.793V33.9336H120.691V34.793C120.691 38.9609 122.367 42.6133 127.781 44.2031L124.473 49.1445C120.799 47.9629 118.457 45.7715 117.082 42.9141C115.75 45.8145 113.494 48.2422 110.035 49.5312C106.404 48.2637 104.127 45.9004 102.816 43.043C101.398 45.793 99.0996 47.9629 95.5977 49.1445L92.2461 44.2031C97.5742 42.4414 99.293 38.6602 99.293 34.793V33.9336H106.039V34.793ZM124.43 10.0859V32.3438H117.512V10.0859H124.43ZM102.473 11.8906C108.746 11.8906 113.602 15.9297 113.602 21.6445C113.602 27.1875 108.746 31.2695 102.473 31.2695C96.1562 31.2695 91.3008 27.1875 91.3438 21.6445C91.3008 15.9297 96.1562 11.8906 102.473 11.8906ZM102.473 17.6484C99.8516 17.6484 98.0469 18.9805 98.0469 21.6445C98.0469 24.1797 99.8516 25.5977 102.473 25.5547C104.965 25.5977 106.77 24.1797 106.77 21.6445C106.77 18.9805 104.965 17.6484 102.473 17.6484ZM161.297 20.0977V25.4258H133.195V11.418H140.07V20.0977H161.297ZM165.207 28.9492V34.2773L128.941 34.2773V28.9492L165.207 28.9492ZM161.555 43.4727V48.9727L132.723 48.9727V37.0273H139.684V43.4727L161.555 43.4727Z" fill="#11DCA9"/>
<path d="M49.2344 10H59.2344C59.2344 4.47715 54.7572 0 49.2344 0V10ZM49.2344 39.7344V49.7344C54.7572 49.7344 59.2344 45.2572 59.2344 39.7344H49.2344ZM42.7031 39.7344H32.7031C32.7031 45.2572 37.1803 49.7344 42.7031 49.7344V39.7344ZM42.7031 10V0C37.1803 0 32.7031 4.47715 32.7031 10H42.7031ZM41.0703 10.5586L51.0703 10.5586C51.0703 5.03575 46.5932 0.558594 41.0703 0.558594V10.5586ZM41.0703 38.5312V48.5312C46.5932 48.5312 51.0703 44.0541 51.0703 38.5312H41.0703ZM34.582 38.5312H24.582C24.582 44.0541 29.0592 48.5312 34.582 48.5312V38.5312ZM34.582 24.0938H44.582C44.582 18.5709 40.1049 14.0938 34.582 14.0938V24.0938ZM30.6289 24.0938H20.6289C20.6289 29.6166 25.1061 34.0938 30.6289 34.0938V24.0938ZM30.6289 18.5078V8.50781C25.1061 8.50781 20.6289 12.985 20.6289 18.5078H30.6289ZM34.582 18.5078V28.5078C40.1049 28.5078 44.582 24.0307 44.582 18.5078H34.582ZM34.582 10.5586V0.558594C29.0592 0.558594 24.582 5.03575 24.582 10.5586H34.582ZM50.1367 43.6875H60.1367C60.1367 38.1647 55.6596 33.6875 50.1367 33.6875V43.6875ZM50.1367 49.1875V59.1875C55.6596 59.1875 60.1367 54.7103 60.1367 49.1875H50.1367ZM21.7773 49.1875H11.7773C11.7773 54.7103 16.2545 59.1875 21.7773 59.1875V49.1875ZM21.7773 36.3398V26.3398C16.2545 26.3398 11.7773 30.817 11.7773 36.3398H21.7773ZM28.6523 36.3398H38.6523C38.6523 30.817 34.1752 26.3398 28.6523 26.3398V36.3398ZM28.6523 43.6875H18.6523C18.6523 49.2103 23.1295 53.6875 28.6523 53.6875V43.6875ZM27.8789 17.3047L37.8785 17.399C37.8788 17.3676 37.8789 17.3361 37.8789 17.3047H27.8789ZM34.3672 28.7344L42.5001 34.553C44.2198 32.1493 44.7881 29.108 44.0525 26.2454C43.3169 23.3829 41.3527 20.9924 38.6871 19.7156L34.3672 28.7344ZM30.5859 34.0195L26.3051 43.0569C30.6768 45.1277 35.9041 43.7724 38.7188 39.8382L30.5859 34.0195ZM24.5703 27.875L33.6434 23.6704C31.9978 20.1192 28.4316 17.8546 24.5177 17.8751C20.6039 17.8957 17.0617 20.1977 15.4535 23.766L24.5703 27.875ZM17.7383 34.9219L9.61912 40.7596C12.4142 44.647 17.5724 46.0077 21.9213 44.005L17.7383 34.9219ZM14 29.7227L9.63896 20.7237C6.98275 22.0109 5.03092 24.4059 4.30615 27.2672C3.58138 30.1285 4.15772 33.1639 5.88084 35.5604L14 29.7227ZM21.1758 17.3047L31.1754 17.3956C31.1756 17.3653 31.1758 17.335 31.1758 17.3047H21.1758ZM21.1758 12.5781V2.57812C15.6529 2.57812 11.1758 7.05528 11.1758 12.5781H21.1758ZM27.8789 12.5781H37.8789C37.8789 7.05528 33.4018 2.57812 27.8789 2.57812V12.5781ZM49.2344 10L39.2344 10V39.7344H49.2344H59.2344V10H49.2344ZM49.2344 39.7344V29.7344H42.7031V39.7344V49.7344H49.2344V39.7344ZM42.7031 39.7344H52.7031V10L42.7031 10H32.7031V39.7344H42.7031ZM42.7031 10V20H49.2344V10V0H42.7031V10ZM41.0703 10.5586H31.0703V38.5312H41.0703H51.0703V10.5586L41.0703 10.5586ZM41.0703 38.5312V28.5312H34.582V38.5312V48.5312H41.0703V38.5312ZM34.582 38.5312H44.582V24.0938H34.582H24.582V38.5312H34.582ZM34.582 24.0938V14.0938H30.6289V24.0938V34.0938H34.582V24.0938ZM30.6289 24.0938H40.6289V18.5078H30.6289H20.6289V24.0938H30.6289ZM30.6289 18.5078V28.5078H34.582V18.5078V8.50781H30.6289V18.5078ZM34.582 18.5078H44.582V10.5586H34.582H24.582V18.5078H34.582ZM34.582 10.5586V20.5586H41.0703V10.5586V0.558594H34.582V10.5586ZM50.1367 43.6875H40.1367V49.1875H50.1367H60.1367V43.6875H50.1367ZM50.1367 49.1875V39.1875H21.7773V49.1875V59.1875H50.1367V49.1875ZM21.7773 49.1875H31.7773V36.3398H21.7773H11.7773L11.7773 49.1875H21.7773ZM21.7773 36.3398V46.3398H28.6523V36.3398V26.3398H21.7773V36.3398ZM28.6523 36.3398H18.6523V43.6875H28.6523H38.6523V36.3398H28.6523ZM28.6523 43.6875V53.6875H50.1367V43.6875V33.6875H28.6523V43.6875ZM27.8789 17.3047L17.8794 17.2104C17.8485 20.4791 18.3239 24.4282 20.2403 28.2715C22.2495 32.3007 25.5404 35.5944 30.0473 37.7532L34.3672 28.7344L38.6871 19.7156C38.3184 19.539 38.1879 19.412 38.1732 19.3977C38.1613 19.3861 38.157 19.3836 38.1386 19.3466C38.0785 19.2261 37.8663 18.6849 37.8785 17.399L27.8789 17.3047ZM34.3672 28.7344L26.2343 22.9157L22.4531 28.2009L30.5859 34.0195L38.7188 39.8382L42.5001 34.553L34.3672 28.7344ZM30.5859 34.0195L34.8668 24.9822C34.5252 24.8203 34.3263 24.6583 34.1849 24.5108C34.0345 24.3539 33.8428 24.1006 33.6434 23.6704L24.5703 27.875L15.4972 32.0796C17.6016 36.6207 21.1222 40.6019 26.3051 43.0569L30.5859 34.0195ZM24.5703 27.875L15.4535 23.766C14.9265 24.9354 14.3335 25.4804 13.5553 25.8388L17.7383 34.9219L21.9213 44.005C27.6743 41.3556 31.4642 36.9162 33.6871 31.984L24.5703 27.875ZM17.7383 34.9219L25.8574 29.0841L22.1192 23.8849L14 29.7227L5.88084 35.5604L9.61912 40.7596L17.7383 34.9219ZM14 29.7227L18.361 38.7216C28.6583 33.7314 31.1132 24.2347 31.1754 17.3956L21.1758 17.3047L11.1762 17.2138C11.1637 18.5926 10.9269 19.3906 10.7267 19.79C10.6386 19.9658 10.547 20.0889 10.4366 20.1981C10.3269 20.3068 10.0984 20.5011 9.63896 20.7237L14 29.7227ZM21.1758 17.3047H31.1758V12.5781H21.1758H11.1758V17.3047H21.1758ZM21.1758 12.5781V22.5781H27.8789V12.5781V2.57812H21.1758V12.5781ZM27.8789 12.5781H17.8789V17.3047H27.8789H37.8789V12.5781H27.8789ZM74.5 14.8555L84.4997 14.9374C84.4999 14.9101 84.5 14.8828 84.5 14.8555L74.5 14.8555ZM88.25 28.0898L97.1265 32.695C98.6034 29.8483 98.6253 26.4661 97.1857 23.6006C95.746 20.735 93.0193 18.7337 89.854 18.2193L88.25 28.0898ZM85.2852 33.8047L83.4861 43.6415C87.8075 44.4319 92.1386 42.3093 94.1617 38.4098L85.2852 33.8047ZM70.8047 24.2227L79.6146 19.4914C77.8877 16.2757 74.5458 14.2563 70.8958 14.2231C67.2458 14.1898 63.8677 16.1479 62.0824 19.3317L70.8047 24.2227ZM56.3242 33.8047L47.4205 38.357C49.4445 42.3158 53.8393 44.4628 58.2062 43.626L56.3242 33.8047ZM53.4023 28.0898L51.7243 18.2316C48.5863 18.7658 45.89 20.762 44.4632 23.6075C43.0364 26.4531 43.0495 29.8079 44.4986 32.6421L53.4023 28.0898ZM67.0664 12.1484V2.14844C61.5436 2.14844 57.0664 6.62559 57.0664 12.1484H67.0664ZM74.5 12.1484H84.5C84.5 6.62559 80.0229 2.14844 74.5 2.14844V12.1484ZM89.1953 39.6055H99.1953C99.1953 34.0826 94.7182 29.6055 89.1953 29.6055V39.6055ZM89.1953 45.2344V55.2344C94.7182 55.2344 99.1953 50.7572 99.1953 45.2344H89.1953ZM52.8867 45.2344H42.8867C42.8867 50.7572 47.3639 55.2344 52.8867 55.2344V45.2344ZM52.8867 39.6055V29.6055C47.3639 29.6055 42.8867 34.0826 42.8867 39.6055H52.8867ZM74.5 14.8555L64.5003 14.7735C64.4606 19.6261 66.0607 24.9641 69.9895 29.4219C73.9535 33.9198 79.6627 36.8256 86.646 37.9604L88.25 28.0898L89.854 18.2193C86.5248 17.6783 85.3375 16.5881 84.9939 16.1982C84.6151 15.7684 84.4965 15.327 84.4997 14.9374L74.5 14.8555ZM88.25 28.0898L79.3735 23.4847L76.4086 29.1996L85.2852 33.8047L94.1617 38.4098L97.1265 32.695L88.25 28.0898ZM85.2852 33.8047L87.0842 23.9679C82.3874 23.1088 80.4836 21.1094 79.6146 19.4914L70.8047 24.2227L61.9947 28.9539C66.1102 36.6172 73.6165 41.8365 83.4861 43.6415L85.2852 33.8047ZM70.8047 24.2227L62.0824 19.3317C61.1056 21.0737 59.0587 23.0988 54.4423 23.9834L56.3242 33.8047L58.2062 43.626C67.9413 41.7606 75.3476 36.5669 79.527 29.1137L70.8047 24.2227ZM56.3242 33.8047L65.228 29.2524L62.3061 23.5376L53.4023 28.0898L44.4986 32.6421L47.4205 38.357L56.3242 33.8047ZM53.4023 28.0898L55.0803 37.9481C62.0195 36.7669 67.6379 33.7854 71.5376 29.3411C75.3814 24.9605 77.0664 19.7003 77.0664 14.8555H67.0664H57.0664C57.0664 15.1239 56.9682 15.6215 56.5044 16.1501C56.0965 16.615 54.8829 17.694 51.7243 18.2316L53.4023 28.0898ZM67.0664 14.8555H77.0664V12.1484H67.0664H57.0664V14.8555H67.0664ZM67.0664 12.1484V22.1484H74.5V12.1484V2.14844H67.0664V12.1484ZM74.5 12.1484H64.5V14.8555H74.5L84.5 14.8555V12.1484H74.5ZM89.1953 39.6055H79.1953V45.2344H89.1953H99.1953V39.6055H89.1953ZM89.1953 45.2344V35.2344H52.8867V45.2344V55.2344H89.1953V45.2344ZM52.8867 45.2344H62.8867V39.6055H52.8867H42.8867V45.2344H52.8867ZM52.8867 39.6055V49.6055H89.1953V39.6055V29.6055H52.8867V39.6055ZM109.906 42.9141L103.906 50.9141C107.508 53.6151 112.47 53.5768 116.029 50.8204L109.906 42.9141ZM113.945 34.793L123.944 34.9433C123.945 34.8932 123.945 34.8431 123.945 34.793H113.945ZM113.945 33.9336V23.9336C108.422 23.9336 103.945 28.4107 103.945 33.9336H113.945ZM120.691 33.9336H130.691C130.691 28.4107 126.214 23.9336 120.691 23.9336V33.9336ZM127.781 44.2031L136.091 49.7668C137.862 47.1212 138.268 43.7903 137.183 40.7969C136.099 37.8034 133.654 35.5053 130.599 34.6083L127.781 44.2031ZM124.473 49.1445L121.411 58.6642C125.659 60.0307 130.299 58.4166 132.782 54.7082L124.473 49.1445ZM117.082 42.9141L126.093 38.5779C124.413 35.0863 120.867 32.8797 116.992 32.9145C113.118 32.9493 109.612 35.2193 107.995 38.7406L117.082 42.9141ZM110.035 49.5312L106.739 58.9724C108.941 59.7411 111.342 59.7161 113.527 58.9017L110.035 49.5312ZM102.816 43.043L111.906 38.8741C110.311 35.3965 106.872 33.1337 103.047 33.0456C99.2217 32.9575 95.6818 35.0596 93.9284 38.4601L102.816 43.043ZM95.5977 49.1445L87.3217 54.7578C89.844 58.4766 94.5371 60.0563 98.7948 58.6197L95.5977 49.1445ZM92.2461 44.2031L89.1068 34.7087C86.1303 35.6928 83.7876 38.0159 82.7784 40.9841C81.7692 43.9522 82.2104 47.2219 83.9701 49.8164L92.2461 44.2031ZM99.293 33.9336V23.9336C93.7701 23.9336 89.293 28.4107 89.293 33.9336H99.293ZM106.039 33.9336H116.039C116.039 28.4107 111.562 23.9336 106.039 23.9336V33.9336ZM124.43 10.0859H134.43C134.43 4.56309 129.953 0.0859375 124.43 0.0859375V10.0859ZM124.43 32.3438V42.3438C129.953 42.3438 134.43 37.8666 134.43 32.3438H124.43ZM117.512 32.3438H107.512C107.512 37.8666 111.989 42.3438 117.512 42.3438V32.3438ZM117.512 10.0859V0.0859375C111.989 0.0859375 107.512 4.56309 107.512 10.0859L117.512 10.0859ZM91.3438 21.6445L101.343 21.722C101.344 21.6711 101.344 21.6202 101.343 21.5693L91.3438 21.6445ZM102.473 25.5547L102.645 15.5562C102.533 15.5542 102.421 15.5542 102.309 15.556L102.473 25.5547ZM106.039 34.793H96.0391C96.0391 40.1276 97.989 46.4761 103.906 50.9141L109.906 42.9141L115.906 34.9141C115.892 34.9034 115.894 34.9037 115.908 34.9168C115.921 34.9299 115.941 34.9509 115.963 34.9793C116.011 35.0405 116.045 35.1019 116.065 35.1457C116.082 35.1857 116.076 35.185 116.065 35.1276C116.054 35.068 116.039 34.9576 116.039 34.793H106.039ZM109.906 42.9141L116.029 50.8204C121.624 46.4873 123.862 40.392 123.944 34.9433L113.945 34.793L103.946 34.6426C103.944 34.8084 103.91 34.8854 103.908 34.8903C103.908 34.8911 103.908 34.8915 103.903 34.898C103.899 34.9034 103.867 34.9426 103.783 35.0078L109.906 42.9141ZM113.945 34.793H123.945V33.9336H113.945H103.945V34.793H113.945ZM113.945 33.9336V43.9336H120.691V33.9336V23.9336H113.945V33.9336ZM120.691 33.9336H110.691V34.793H120.691H130.691V33.9336H120.691ZM120.691 34.793H110.691C110.691 38.1525 111.363 42.2523 113.902 46.037C116.532 49.9562 120.449 52.4721 124.964 53.798L127.781 44.2031L130.599 34.6083C130.103 34.4628 129.975 34.3534 130.053 34.4064C130.09 34.4323 130.163 34.4876 130.253 34.5778C130.343 34.6685 130.431 34.7752 130.51 34.8927C130.588 35.0092 130.643 35.1161 130.68 35.2011C130.716 35.2846 130.73 35.3352 130.731 35.3406C130.732 35.3449 130.722 35.305 130.711 35.212C130.701 35.1186 130.691 34.9808 130.691 34.793H120.691ZM127.781 44.2031L119.472 38.6395L116.163 43.5809L124.473 49.1445L132.782 54.7082L136.091 49.7668L127.781 44.2031ZM124.473 49.1445L127.535 39.6248C126.847 39.4037 126.559 39.1827 126.459 39.0959C126.362 39.012 126.238 38.8797 126.093 38.5779L117.082 42.9141L108.071 47.2502C110.656 52.6223 115.174 56.6584 121.411 58.6642L124.473 49.1445ZM117.082 42.9141L107.995 38.7406C107.782 39.2032 107.565 39.4828 107.385 39.6572C107.221 39.8166 106.979 39.9985 106.543 40.1608L110.035 49.5312L113.527 58.9017C119.766 56.5768 123.875 52.0844 126.169 47.0876L117.082 42.9141ZM110.035 49.5312L113.331 40.0901C112.761 39.8908 112.499 39.6844 112.374 39.5683C112.24 39.4432 112.075 39.2435 111.906 38.8741L102.816 43.043L93.7268 47.2119C96.098 52.3818 100.379 56.7521 106.739 58.9724L110.035 49.5312ZM102.816 43.043L93.9284 38.4601C93.7465 38.8127 93.5764 39.0058 93.4288 39.134C93.2854 39.2587 92.9957 39.4686 92.4005 39.6694L95.5977 49.1445L98.7948 58.6197C104.83 56.5833 109.132 52.6142 111.704 47.6259L102.816 43.043ZM95.5977 49.1445L103.874 43.5313L100.522 38.5899L92.2461 44.2031L83.9701 49.8164L87.3217 54.7578L95.5977 49.1445ZM92.2461 44.2031L95.3854 53.6976C99.8607 52.2179 103.592 49.5914 106.096 45.8221C108.537 42.1489 109.293 38.1773 109.293 34.793H99.293H89.293C89.293 35.0272 89.2662 35.1179 89.2723 35.0949C89.276 35.0809 89.2884 35.0384 89.3163 34.975C89.3447 34.9106 89.3849 34.8341 89.4387 34.7531C89.4929 34.6716 89.551 34.6003 89.6066 34.5425C89.662 34.4849 89.7011 34.4549 89.7101 34.4483C89.7323 34.4322 89.5755 34.5537 89.1068 34.7087L92.2461 44.2031ZM99.293 34.793H109.293V33.9336H99.293H89.293V34.793H99.293ZM99.293 33.9336V43.9336H106.039V33.9336V23.9336H99.293V33.9336ZM106.039 33.9336H96.0391V34.793H106.039H116.039V33.9336H106.039ZM124.43 10.0859H114.43V32.3438H124.43H134.43V10.0859H124.43ZM124.43 32.3438V22.3437H117.512V32.3438V42.3438H124.43V32.3438ZM117.512 32.3438H127.512V10.0859H117.512L107.512 10.0859V32.3438H117.512ZM117.512 10.0859V20.0859H124.43V10.0859V0.0859375L117.512 0.0859375V10.0859ZM102.473 11.8906V21.8906C103.494 21.8906 103.878 22.2137 103.857 22.1955C103.842 22.1828 103.76 22.1039 103.687 21.9477C103.653 21.874 103.629 21.8019 103.615 21.7389C103.602 21.6758 103.602 21.6412 103.602 21.6445H113.602H123.602C123.602 9.07375 112.834 1.89062 102.473 1.89062V11.8906ZM113.602 21.6445H103.602C103.602 21.5434 103.63 21.3695 103.716 21.1888C103.754 21.1079 103.795 21.0461 103.828 21.0035C103.86 20.9614 103.881 20.9436 103.88 20.9445C103.873 20.9503 103.468 21.2695 102.473 21.2695V31.2695V41.2695C112.772 41.2695 123.602 34.0972 123.602 21.6445H113.602ZM102.473 31.2695V21.2695C101.437 21.2695 101.027 20.9393 101.033 20.9445C101.041 20.9516 101.134 21.0366 101.222 21.2229C101.315 21.4208 101.344 21.6105 101.343 21.722L91.3438 21.6445L81.344 21.567C81.2467 34.123 92.1846 41.2695 102.473 41.2695V31.2695ZM91.3438 21.6445L101.343 21.5693C101.343 21.5687 101.344 21.5792 101.341 21.5995C101.339 21.6199 101.335 21.6477 101.328 21.6817C101.313 21.7522 101.287 21.8323 101.25 21.9138C101.169 22.0865 101.078 22.1766 101.056 22.1955C101.023 22.2247 101.411 21.8906 102.473 21.8906V11.8906V1.89062C92.1201 1.89062 81.2488 9.04869 81.344 21.7197L91.3438 21.6445ZM102.473 17.6484V7.64844C99.5939 7.64844 95.9033 8.37445 92.7776 11.0475C89.4178 13.9207 88.0469 17.8978 88.0469 21.6445H98.0469H108.047C108.047 22.7272 107.578 24.7062 105.776 26.2474C104.208 27.5884 102.73 27.6484 102.473 27.6484V17.6484ZM98.0469 21.6445H88.0469C88.0469 25.4491 89.4995 29.363 92.7776 32.1664C95.8718 34.8124 99.5708 35.6036 102.637 35.5533L102.473 25.5547L102.309 15.556C102.753 15.5487 104.24 15.6524 105.776 16.9664C107.497 18.4378 108.047 20.3751 108.047 21.6445H98.0469ZM102.473 25.5547L102.3 35.5532C105.42 35.607 109.094 34.7529 112.133 32.0987C115.327 29.3094 116.77 25.4398 116.77 21.6445H106.77H96.7695C96.7695 20.3844 97.3093 18.4913 98.9781 17.0341C100.492 15.7119 102.018 15.5454 102.645 15.5562L102.473 25.5547ZM106.77 21.6445H116.77C116.77 17.9056 115.408 13.9747 112.133 11.1151C109.059 8.43063 105.397 7.64844 102.473 7.64844V17.6484V27.6484C102.04 27.6484 100.527 27.5323 98.9781 26.1798C97.2288 24.6522 96.7695 22.7194 96.7695 21.6445H106.77ZM161.297 20.0977H171.297C171.297 14.5748 166.82 10.0977 161.297 10.0977V20.0977ZM161.297 25.4258V35.4258C166.82 35.4258 171.297 30.9486 171.297 25.4258H161.297ZM133.195 25.4258H123.195C123.195 30.9486 127.672 35.4258 133.195 35.4258V25.4258ZM133.195 11.418V1.41797C127.672 1.41797 123.195 5.89512 123.195 11.418H133.195ZM140.07 11.418H150.07C150.07 5.89512 145.593 1.41797 140.07 1.41797V11.418ZM140.07 20.0977H130.07C130.07 25.6205 134.547 30.0977 140.07 30.0977V20.0977ZM165.207 28.9492H175.207C175.207 23.4264 170.73 18.9492 165.207 18.9492V28.9492ZM165.207 34.2773V44.2773C170.73 44.2773 175.207 39.8002 175.207 34.2773H165.207ZM128.941 34.2773H118.941C118.941 39.8002 123.419 44.2773 128.941 44.2773V34.2773ZM128.941 28.9492V18.9492C123.419 18.9492 118.941 23.4264 118.941 28.9492H128.941ZM161.555 43.4727H171.555C171.555 37.9498 167.078 33.4727 161.555 33.4727V43.4727ZM161.555 48.9727V58.9727C167.078 58.9727 171.555 54.4955 171.555 48.9727H161.555ZM132.723 48.9727H122.723C122.723 54.4955 127.2 58.9727 132.723 58.9727V48.9727ZM132.723 37.0273V27.0273C127.2 27.0273 122.723 31.5045 122.723 37.0273H132.723ZM139.684 37.0273L149.684 37.0273C149.684 31.5045 145.206 27.0273 139.684 27.0273V37.0273ZM139.684 43.4727H129.684C129.684 48.9955 134.161 53.4727 139.684 53.4727V43.4727ZM161.297 20.0977H151.297V25.4258H161.297H171.297V20.0977H161.297ZM161.297 25.4258V15.4258H133.195V25.4258V35.4258L161.297 35.4258V25.4258ZM133.195 25.4258H143.195V11.418H133.195H123.195V25.4258H133.195ZM133.195 11.418V21.418H140.07V11.418V1.41797H133.195V11.418ZM140.07 11.418H130.07V20.0977H140.07H150.07V11.418H140.07ZM140.07 20.0977V30.0977L161.297 30.0977V20.0977V10.0977H140.07V20.0977ZM165.207 28.9492H155.207V34.2773H165.207H175.207V28.9492H165.207ZM165.207 34.2773V24.2773H128.941V34.2773V44.2773L165.207 44.2773V34.2773ZM128.941 34.2773H138.941V28.9492H128.941H118.941V34.2773H128.941ZM128.941 28.9492V38.9492L165.207 38.9492V28.9492V18.9492H128.941V28.9492ZM161.555 43.4727H151.555V48.9727H161.555H171.555V43.4727H161.555ZM161.555 48.9727V38.9727L132.723 38.9727V48.9727V58.9727L161.555 58.9727V48.9727ZM132.723 48.9727L142.723 48.9727V37.0273L132.723 37.0273H122.723V48.9727H132.723ZM132.723 37.0273V47.0273H139.684V37.0273V27.0273H132.723V37.0273ZM139.684 37.0273H129.684V43.4727H139.684L149.684 43.4727V37.0273L139.684 37.0273ZM139.684 43.4727V53.4727L161.555 53.4727V43.4727V33.4727L139.684 33.4727V43.4727Z" fill="white" mask="url(#path-1-outside-1_6524_1726)"/>
</g>
<defs>
<filter id="filter0_d_6524_1726" x="0" y="0" width="179.207" height="67.5312" filterUnits="userSpaceOnUse" color-interpolation-filters="sRGB">
<feFlood flood-opacity="0" result="BackgroundImageFix"/>
<feColorMatrix in="SourceAlpha" type="matrix" values="0 0 0 0 0 0 0 0 0 0 0 0 0 0 0 0 0 0 127 0" result="hardAlpha"/>
<feOffset dy="4"/>
<feGaussianBlur stdDeviation="2"/>
<feComposite in2="hardAlpha" operator="out"/>
<feColorMatrix type="matrix" values="0 0 0 0 0 0 0 0 0 0 0 0 0 0 0 0 0 0 0.07 0"/>
<feBlend mode="normal" in2="BackgroundImageFix" result="effect1_dropShadow_6524_1726"/>
<feBlend mode="normal" in="SourceGraphic" in2="effect1_dropShadow_6524_1726" result="shape"/>
</filter>
</defs>
</svg>
