<svg width="265" height="68" viewBox="0 0 265 68" fill="none" xmlns="http://www.w3.org/2000/svg">
<g filter="url(#filter0_d_6526_5733)">
<mask id="path-1-outside-1_6526_5733" maskUnits="userSpaceOnUse" x="3.09766" y="-0.507813" width="258" height="61" fill="black">
<rect fill="white" x="3.09766" y="-0.507813" width="258" height="61"/>
<path d="M35.6133 14.8555C35.5703 20.0977 39.0508 26.4141 49.3633 28.0898L46.3984 33.8047C39.1152 32.4727 34.4102 28.8633 31.918 24.2227C29.3398 28.8203 24.6133 32.4297 17.4375 33.8047L14.5156 28.0898C24.6133 26.3711 28.1797 19.9688 28.1797 14.8555V12.1484H35.6133V14.8555ZM50.3086 39.6055V45.2344H14V39.6055H50.3086ZM73.6406 14.8555C73.5977 20.0977 77.0781 26.4141 87.3906 28.0898L84.4258 33.8047C77.1426 32.4727 72.4375 28.8633 69.9453 24.2227C67.3672 28.8203 62.6406 32.4297 55.4648 33.8047L52.543 28.0898C62.6406 26.3711 66.207 19.9688 66.207 14.8555V12.1484H73.6406V14.8555ZM88.3359 39.6055V45.2344H52.0273V39.6055H88.3359ZM126.363 40.0781V45.6641H90.0547V40.0781H104.75V35.0078H94.0078V20.957H115.621V17.8633H93.9648V12.3633L122.453 12.3633V26.2852H100.926V29.4648H123.355V35.0078H111.582V40.0781H126.363ZM148.836 12.0195C153.713 12.0195 157.752 14.834 159.062 19.0234H164.605V10H171.48V32.3867H164.605V24.5234H159.148C157.881 28.7773 153.799 31.6992 148.836 31.6992C142.777 31.6992 138.051 27.5312 138.094 21.9023C138.051 16.1875 142.777 12.0195 148.836 12.0195ZM148.836 17.7344C146.387 17.7344 144.582 19.1953 144.625 21.9023C144.582 24.6094 146.387 25.8555 148.836 25.8984C151.156 25.8555 152.918 24.6094 152.961 21.9023C152.918 19.1953 151.156 17.7344 148.836 17.7344ZM171.48 33.9336V49.4023H144.324V33.9336H171.48ZM151.242 39.3477V43.9023H164.777V39.3477H151.242ZM197.133 12.4062C197.133 13.6738 197.047 14.8984 196.875 16.0586H202.633V10.0859H209.508V33.5898H202.633V29.8945H194.598V24.4375H202.633V21.3867H195.371C192.729 27.4668 187.078 31.6562 178.57 33.8477L176.035 28.3906C184.393 26.3281 188.732 22.4395 189.699 17.9492H178.398V12.4062H197.133ZM209.508 35.1367V49.6172H202.633V40.4648H181.879V35.1367H209.508ZM245.516 10.0859V21.6875H250.457V27.2734H245.516V39.6914H238.598V10.0859H245.516ZM237.18 13.8242V19.1523H213.676V13.8242H221.969V10H228.887V13.8242H237.18ZM225.406 20.0547C231.207 20.0547 235.332 23.2773 235.332 27.918C235.332 32.5586 231.207 35.6953 225.406 35.6523C219.562 35.6953 215.395 32.5586 215.395 27.918C215.395 23.2773 219.562 20.0547 225.406 20.0547ZM225.406 25.2539C223.43 25.2969 222.141 26.1133 222.141 27.918C222.141 29.7227 223.43 30.4961 225.406 30.4961C227.426 30.4961 228.801 29.7227 228.801 27.918C228.801 26.1133 227.426 25.2969 225.406 25.2539ZM246.676 43.6875V49.1875H219.176V37.457H226.094V43.6875H246.676Z"/>
</mask>
<path d="M35.6133 14.8555C35.5703 20.0977 39.0508 26.4141 49.3633 28.0898L46.3984 33.8047C39.1152 32.4727 34.4102 28.8633 31.918 24.2227C29.3398 28.8203 24.6133 32.4297 17.4375 33.8047L14.5156 28.0898C24.6133 26.3711 28.1797 19.9688 28.1797 14.8555V12.1484H35.6133V14.8555ZM50.3086 39.6055V45.2344H14V39.6055H50.3086ZM73.6406 14.8555C73.5977 20.0977 77.0781 26.4141 87.3906 28.0898L84.4258 33.8047C77.1426 32.4727 72.4375 28.8633 69.9453 24.2227C67.3672 28.8203 62.6406 32.4297 55.4648 33.8047L52.543 28.0898C62.6406 26.3711 66.207 19.9688 66.207 14.8555V12.1484H73.6406V14.8555ZM88.3359 39.6055V45.2344H52.0273V39.6055H88.3359ZM126.363 40.0781V45.6641H90.0547V40.0781H104.75V35.0078H94.0078V20.957H115.621V17.8633H93.9648V12.3633L122.453 12.3633V26.2852H100.926V29.4648H123.355V35.0078H111.582V40.0781H126.363ZM148.836 12.0195C153.713 12.0195 157.752 14.834 159.062 19.0234H164.605V10H171.48V32.3867H164.605V24.5234H159.148C157.881 28.7773 153.799 31.6992 148.836 31.6992C142.777 31.6992 138.051 27.5312 138.094 21.9023C138.051 16.1875 142.777 12.0195 148.836 12.0195ZM148.836 17.7344C146.387 17.7344 144.582 19.1953 144.625 21.9023C144.582 24.6094 146.387 25.8555 148.836 25.8984C151.156 25.8555 152.918 24.6094 152.961 21.9023C152.918 19.1953 151.156 17.7344 148.836 17.7344ZM171.48 33.9336V49.4023H144.324V33.9336H171.48ZM151.242 39.3477V43.9023H164.777V39.3477H151.242ZM197.133 12.4062C197.133 13.6738 197.047 14.8984 196.875 16.0586H202.633V10.0859H209.508V33.5898H202.633V29.8945H194.598V24.4375H202.633V21.3867H195.371C192.729 27.4668 187.078 31.6562 178.57 33.8477L176.035 28.3906C184.393 26.3281 188.732 22.4395 189.699 17.9492H178.398V12.4062H197.133ZM209.508 35.1367V49.6172H202.633V40.4648H181.879V35.1367H209.508ZM245.516 10.0859V21.6875H250.457V27.2734H245.516V39.6914H238.598V10.0859H245.516ZM237.18 13.8242V19.1523H213.676V13.8242H221.969V10H228.887V13.8242H237.18ZM225.406 20.0547C231.207 20.0547 235.332 23.2773 235.332 27.918C235.332 32.5586 231.207 35.6953 225.406 35.6523C219.562 35.6953 215.395 32.5586 215.395 27.918C215.395 23.2773 219.562 20.0547 225.406 20.0547ZM225.406 25.2539C223.43 25.2969 222.141 26.1133 222.141 27.918C222.141 29.7227 223.43 30.4961 225.406 30.4961C227.426 30.4961 228.801 29.7227 228.801 27.918C228.801 26.1133 227.426 25.2969 225.406 25.2539ZM246.676 43.6875V49.1875H219.176V37.457H226.094V43.6875H246.676Z" fill="#11DCA9"/>
<path d="M35.6133 14.8555L45.6129 14.9374C45.6132 14.9101 45.6133 14.8828 45.6133 14.8555H35.6133ZM49.3633 28.0898L58.2398 32.695C59.7166 29.8483 59.7386 26.4661 58.299 23.6006C56.8593 20.735 54.1326 18.7337 50.9672 18.2193L49.3633 28.0898ZM46.3984 33.8047L44.5994 43.6415C48.9208 44.4319 53.2519 42.3093 55.275 38.4098L46.3984 33.8047ZM31.918 24.2227L40.7279 19.4914C39.0009 16.2757 35.659 14.2563 32.0091 14.2231C28.3591 14.1898 24.981 16.1479 23.1957 19.3317L31.918 24.2227ZM17.4375 33.8047L8.53376 38.357C10.5578 42.3158 14.9526 44.4628 19.3194 43.626L17.4375 33.8047ZM14.5156 28.0898L12.8376 18.2316C9.69956 18.7658 7.00326 20.762 5.57645 23.6075C4.14964 26.4531 4.16279 29.8079 5.61188 32.6421L14.5156 28.0898ZM28.1797 12.1484V2.14844C22.6568 2.14844 18.1797 6.62559 18.1797 12.1484H28.1797ZM35.6133 12.1484L45.6133 12.1484C45.6133 6.62559 41.1361 2.14844 35.6133 2.14844V12.1484ZM50.3086 39.6055H60.3086C60.3086 34.0826 55.8314 29.6055 50.3086 29.6055V39.6055ZM50.3086 45.2344V55.2344C55.8314 55.2344 60.3086 50.7572 60.3086 45.2344H50.3086ZM14 45.2344H4C4 50.7572 8.47715 55.2344 14 55.2344V45.2344ZM14 39.6055L14 29.6055C8.47715 29.6055 4 34.0826 4 39.6055H14ZM35.6133 14.8555L25.6136 14.7735C25.5738 19.6261 27.174 24.9641 31.1028 29.4219C35.0668 33.9198 40.776 36.8256 47.7593 37.9604L49.3633 28.0898L50.9672 18.2193C47.6381 17.6783 46.4508 16.5881 46.1072 16.1982C45.7284 15.7684 45.6098 15.327 45.6129 14.9374L35.6133 14.8555ZM49.3633 28.0898L40.4867 23.4847L37.5219 29.1996L46.3984 33.8047L55.275 38.4098L58.2398 32.695L49.3633 28.0898ZM46.3984 33.8047L48.1975 23.9679C43.5007 23.1088 41.5968 21.1094 40.7279 19.4914L31.918 24.2227L23.108 28.9539C27.2235 36.6172 34.7298 41.8365 44.5994 43.6415L46.3984 33.8047ZM31.918 24.2227L23.1957 19.3317C22.2188 21.0737 20.172 23.0988 15.5556 23.9834L17.4375 33.8047L19.3194 43.626C29.0545 41.7606 36.4608 36.5669 40.6402 29.1137L31.918 24.2227ZM17.4375 33.8047L26.3412 29.2524L23.4194 23.5376L14.5156 28.0898L5.61188 32.6421L8.53376 38.357L17.4375 33.8047ZM14.5156 28.0898L16.1936 37.9481C23.1328 36.7669 28.7512 33.7854 32.6509 29.3411C36.4947 24.9605 38.1797 19.7003 38.1797 14.8555H28.1797H18.1797C18.1797 15.1239 18.0815 15.6215 17.6177 16.1501C17.2098 16.615 15.9961 17.694 12.8376 18.2316L14.5156 28.0898ZM28.1797 14.8555H38.1797V12.1484H28.1797H18.1797V14.8555H28.1797ZM28.1797 12.1484V22.1484H35.6133V12.1484V2.14844L28.1797 2.14844V12.1484ZM35.6133 12.1484H25.6133V14.8555H35.6133H45.6133V12.1484L35.6133 12.1484ZM50.3086 39.6055H40.3086V45.2344H50.3086H60.3086V39.6055H50.3086ZM50.3086 45.2344V35.2344H14V45.2344V55.2344H50.3086V45.2344ZM14 45.2344H24V39.6055H14H4V45.2344H14ZM14 39.6055V49.6055H50.3086V39.6055V29.6055H14L14 39.6055ZM73.6406 14.8555L83.6403 14.9374C83.6405 14.9101 83.6406 14.8828 83.6406 14.8555L73.6406 14.8555ZM87.3906 28.0898L96.2672 32.695C97.744 29.8483 97.766 26.4661 96.3263 23.6006C94.8866 20.735 92.16 18.7337 88.9946 18.2193L87.3906 28.0898ZM84.4258 33.8047L82.6267 43.6415C86.9481 44.4319 91.2793 42.3093 93.3023 38.4098L84.4258 33.8047ZM69.9453 24.2227L78.7553 19.4914C77.0283 16.2757 73.6864 14.2563 70.0364 14.2231C66.3864 14.1898 63.0083 16.1479 61.223 19.3317L69.9453 24.2227ZM55.4648 33.8047L46.5611 38.357C48.5852 42.3158 52.98 44.4628 57.3468 43.626L55.4648 33.8047ZM52.543 28.0898L50.865 18.2316C47.7269 18.7658 45.0306 20.762 43.6038 23.6075C42.177 26.4531 42.1901 29.8079 43.6392 32.6421L52.543 28.0898ZM66.207 12.1484V2.14844C60.6842 2.14844 56.207 6.62559 56.207 12.1484H66.207ZM73.6406 12.1484H83.6406C83.6406 6.62559 79.1635 2.14844 73.6406 2.14844V12.1484ZM88.3359 39.6055H98.3359C98.3359 34.0826 93.8588 29.6055 88.3359 29.6055V39.6055ZM88.3359 45.2344V55.2344C93.8588 55.2344 98.3359 50.7572 98.3359 45.2344H88.3359ZM52.0273 45.2344H42.0273C42.0273 50.7572 46.5045 55.2344 52.0273 55.2344V45.2344ZM52.0273 39.6055V29.6055C46.5045 29.6055 42.0273 34.0826 42.0273 39.6055H52.0273ZM73.6406 14.8555L63.641 14.7735C63.6012 19.6261 65.2013 24.9641 69.1301 29.4219C73.0941 33.9198 78.8034 36.8256 85.7867 37.9604L87.3906 28.0898L88.9946 18.2193C85.6654 17.6783 84.4781 16.5881 84.1346 16.1982C83.7557 15.7684 83.6371 15.327 83.6403 14.9374L73.6406 14.8555ZM87.3906 28.0898L78.5141 23.4847L75.5492 29.1996L84.4258 33.8047L93.3023 38.4098L96.2672 32.695L87.3906 28.0898ZM84.4258 33.8047L86.2248 23.9679C81.528 23.1088 79.6242 21.1094 78.7553 19.4914L69.9453 24.2227L61.1354 28.9539C65.2508 36.6172 72.7571 41.8365 82.6267 43.6415L84.4258 33.8047ZM69.9453 24.2227L61.223 19.3317C60.2462 21.0737 58.1994 23.0988 53.5829 23.9834L55.4648 33.8047L57.3468 43.626C67.0819 41.7606 74.4882 36.5669 78.6676 29.1137L69.9453 24.2227ZM55.4648 33.8047L64.3686 29.2524L61.4467 23.5376L52.543 28.0898L43.6392 32.6421L46.5611 38.357L55.4648 33.8047ZM52.543 28.0898L54.221 37.9481C61.1601 36.7669 66.7785 33.7854 70.6782 29.3411C74.522 24.9605 76.207 19.7003 76.207 14.8555H66.207H56.207C56.207 15.1239 56.1089 15.6215 55.645 16.1501C55.2371 16.615 54.0235 17.694 50.865 18.2316L52.543 28.0898ZM66.207 14.8555H76.207V12.1484H66.207H56.207V14.8555H66.207ZM66.207 12.1484V22.1484H73.6406V12.1484V2.14844H66.207V12.1484ZM73.6406 12.1484H63.6406V14.8555H73.6406L83.6406 14.8555V12.1484H73.6406ZM88.3359 39.6055H78.3359V45.2344H88.3359H98.3359V39.6055H88.3359ZM88.3359 45.2344V35.2344H52.0273V45.2344V55.2344H88.3359V45.2344ZM52.0273 45.2344H62.0273V39.6055H52.0273H42.0273V45.2344H52.0273ZM52.0273 39.6055V49.6055H88.3359V39.6055V29.6055H52.0273V39.6055ZM126.363 40.0781H136.363C136.363 34.5553 131.886 30.0781 126.363 30.0781V40.0781ZM126.363 45.6641V55.6641C131.886 55.6641 136.363 51.1869 136.363 45.6641H126.363ZM90.0547 45.6641H80.0547C80.0547 51.1869 84.5318 55.6641 90.0547 55.6641V45.6641ZM90.0547 40.0781V30.0781C84.5318 30.0781 80.0547 34.5553 80.0547 40.0781H90.0547ZM104.75 40.0781V50.0781C110.273 50.0781 114.75 45.601 114.75 40.0781H104.75ZM104.75 35.0078H114.75C114.75 29.485 110.273 25.0078 104.75 25.0078V35.0078ZM94.0078 35.0078H84.0078C84.0078 40.5307 88.485 45.0078 94.0078 45.0078V35.0078ZM94.0078 20.957V10.957C88.485 10.957 84.0078 15.4342 84.0078 20.957H94.0078ZM115.621 20.957V30.957C121.144 30.957 125.621 26.4799 125.621 20.957H115.621ZM115.621 17.8633H125.621C125.621 12.3404 121.144 7.86328 115.621 7.86328V17.8633ZM93.9648 17.8633H83.9648C83.9648 23.3861 88.442 27.8633 93.9648 27.8633V17.8633ZM93.9648 12.3633V2.36328C88.442 2.36328 83.9648 6.84043 83.9648 12.3633H93.9648ZM122.453 12.3633H132.453C132.453 6.84043 127.976 2.36328 122.453 2.36328V12.3633ZM122.453 26.2852V36.2852C127.976 36.2852 132.453 31.808 132.453 26.2852H122.453ZM100.926 26.2852V16.2852C95.4029 16.2852 90.9258 20.7623 90.9258 26.2852H100.926ZM100.926 29.4648H90.9258C90.9258 34.9877 95.4029 39.4648 100.926 39.4648V29.4648ZM123.355 29.4648H133.355C133.355 23.942 128.878 19.4648 123.355 19.4648V29.4648ZM123.355 35.0078V45.0078C128.878 45.0078 133.355 40.5307 133.355 35.0078H123.355ZM111.582 35.0078V25.0078C106.059 25.0078 101.582 29.485 101.582 35.0078H111.582ZM111.582 40.0781H101.582C101.582 45.601 106.059 50.0781 111.582 50.0781V40.0781ZM126.363 40.0781H116.363V45.6641H126.363H136.363V40.0781H126.363ZM126.363 45.6641V35.6641H90.0547V45.6641V55.6641H126.363V45.6641ZM90.0547 45.6641H100.055V40.0781H90.0547H80.0547V45.6641H90.0547ZM90.0547 40.0781V50.0781H104.75V40.0781V30.0781H90.0547V40.0781ZM104.75 40.0781H114.75V35.0078H104.75H94.75V40.0781H104.75ZM104.75 35.0078V25.0078H94.0078V35.0078V45.0078H104.75V35.0078ZM94.0078 35.0078H104.008V20.957H94.0078H84.0078V35.0078H94.0078ZM94.0078 20.957V30.957H115.621V20.957V10.957L94.0078 10.957V20.957ZM115.621 20.957H125.621V17.8633H115.621H105.621V20.957H115.621ZM115.621 17.8633V7.86328L93.9648 7.86328V17.8633V27.8633H115.621V17.8633ZM93.9648 17.8633H103.965V12.3633H93.9648H83.9648V17.8633H93.9648ZM93.9648 12.3633V22.3633H122.453V12.3633V2.36328H93.9648V12.3633ZM122.453 12.3633H112.453V26.2852H122.453H132.453V12.3633H122.453ZM122.453 26.2852V16.2852H100.926V26.2852V36.2852H122.453V26.2852ZM100.926 26.2852H90.9258V29.4648H100.926H110.926V26.2852H100.926ZM100.926 29.4648V39.4648H123.355V29.4648V19.4648H100.926V29.4648ZM123.355 29.4648H113.355V35.0078H123.355H133.355V29.4648H123.355ZM123.355 35.0078V25.0078H111.582V35.0078V45.0078H123.355V35.0078ZM111.582 35.0078H101.582V40.0781H111.582H121.582V35.0078H111.582ZM111.582 40.0781V50.0781H126.363V40.0781V30.0781H111.582V40.0781ZM159.062 19.0234L149.519 22.009C150.824 26.1823 154.69 29.0234 159.062 29.0234V19.0234ZM164.605 19.0234V29.0234C170.128 29.0234 174.605 24.5463 174.605 19.0234H164.605ZM164.605 10V0C159.083 0 154.605 4.47715 154.605 10H164.605ZM171.48 10L181.48 10C181.48 4.47715 177.003 0 171.48 0V10ZM171.48 32.3867V42.3867C177.003 42.3867 181.48 37.9096 181.48 32.3867H171.48ZM164.605 32.3867H154.605C154.605 37.9096 159.083 42.3867 164.605 42.3867V32.3867ZM164.605 24.5234H174.605C174.605 19.0006 170.128 14.5234 164.605 14.5234V24.5234ZM159.148 24.5234V14.5234C154.725 14.5234 150.828 17.429 149.565 21.6677L159.148 24.5234ZM138.094 21.9023L148.093 21.9787C148.094 21.9282 148.094 21.8777 148.093 21.8272L138.094 21.9023ZM144.625 21.9023L154.624 22.0611C154.625 21.9553 154.625 21.8494 154.624 21.7436L144.625 21.9023ZM148.836 25.8984L148.661 35.8969C148.781 35.899 148.901 35.8989 149.021 35.8967L148.836 25.8984ZM152.961 21.9023L162.96 22.0611C162.961 21.9553 162.961 21.8494 162.96 21.7436L152.961 21.9023ZM171.48 33.9336H181.48C181.48 28.4107 177.003 23.9336 171.48 23.9336V33.9336ZM171.48 49.4023V59.4023C177.003 59.4023 181.48 54.9252 181.48 49.4023H171.48ZM144.324 49.4023L134.324 49.4023C134.324 54.9252 138.801 59.4023 144.324 59.4023V49.4023ZM144.324 33.9336V23.9336C138.801 23.9336 134.324 28.4107 134.324 33.9336L144.324 33.9336ZM151.242 39.3477V29.3477C145.719 29.3477 141.242 33.8248 141.242 39.3477H151.242ZM151.242 43.9023H141.242C141.242 49.4252 145.719 53.9023 151.242 53.9023V43.9023ZM164.777 43.9023V53.9023C170.3 53.9023 174.777 49.4252 174.777 43.9023H164.777ZM164.777 39.3477H174.777C174.777 33.8248 170.3 29.3477 164.777 29.3477V39.3477ZM148.836 12.0195V22.0195C149.344 22.0195 149.578 22.1611 149.617 22.188C149.64 22.2034 149.625 22.1979 149.595 22.1581C149.563 22.1159 149.535 22.0616 149.519 22.009L159.062 19.0234L168.606 16.0379C165.84 7.19577 157.562 2.01953 148.836 2.01953V12.0195ZM159.062 19.0234V29.0234H164.605V19.0234V9.02344H159.062V19.0234ZM164.605 19.0234H174.605V10L164.605 10H154.605V19.0234H164.605ZM164.605 10V20H171.48V10V0L164.605 0V10ZM171.48 10H161.48V32.3867H171.48H181.48V10L171.48 10ZM171.48 32.3867V22.3867H164.605V32.3867V42.3867H171.48V32.3867ZM164.605 32.3867H174.605V24.5234H164.605H154.605V32.3867H164.605ZM164.605 24.5234V14.5234H159.148V24.5234V34.5234H164.605V24.5234ZM159.148 24.5234L149.565 21.6677C149.58 21.6165 149.606 21.5674 149.631 21.5321C149.656 21.4993 149.664 21.4997 149.635 21.52C149.585 21.5553 149.345 21.6992 148.836 21.6992V31.6992V41.6992C157.732 41.6992 166.067 36.323 168.732 27.3791L159.148 24.5234ZM148.836 31.6992V21.6992C148.094 21.6992 147.839 21.4536 147.878 21.4889C147.897 21.5062 147.964 21.5757 148.022 21.7061C148.085 21.845 148.094 21.9551 148.093 21.9787L138.094 21.9023L128.094 21.826C128.001 34.0172 138.291 41.6992 148.836 41.6992V31.6992ZM138.094 21.9023L148.093 21.8272C148.093 21.807 148.093 21.889 148.038 22.0143C147.985 22.132 147.923 22.1997 147.9 22.2201C147.853 22.2635 148.095 22.0195 148.836 22.0195V12.0195V2.01953C138.229 2.01953 128.002 9.75659 128.094 21.9775L138.094 21.9023ZM148.836 17.7344V7.73437C145.675 7.73437 141.964 8.69324 138.963 11.5013C135.839 14.4249 134.567 18.3419 134.626 22.0611L144.625 21.9023L154.624 21.7436C154.64 22.7558 154.249 24.5887 152.628 26.1051C151.131 27.506 149.548 27.7344 148.836 27.7344V17.7344ZM144.625 21.9023L134.626 21.7436C134.566 25.5116 135.881 29.5238 139.226 32.4385C142.303 35.12 145.931 35.849 148.661 35.8969L148.836 25.8984L149.011 15.9C149.292 15.9049 150.792 15.9893 152.366 17.3603C154.206 18.9644 154.641 21.0001 154.624 22.0611L144.625 21.9023ZM148.836 25.8984L149.021 35.8967C151.823 35.8448 155.395 35.0456 158.403 32.3675C161.593 29.5265 162.902 25.683 162.96 22.0611L152.961 21.9023L142.962 21.7436C142.977 20.8287 143.383 18.9618 145.102 17.4313C146.638 16.0638 148.169 15.9091 148.651 15.9002L148.836 25.8984ZM152.961 21.9023L162.96 21.7436C162.903 18.1748 161.641 14.4226 158.663 11.5757C155.746 8.78597 152.09 7.73437 148.836 7.73437V17.7344V27.7344C147.902 27.7344 146.287 27.4133 144.841 26.0308C143.336 24.591 142.976 22.9229 142.962 22.0611L152.961 21.9023ZM171.48 33.9336H161.48V49.4023H171.48H181.48V33.9336H171.48ZM171.48 49.4023V39.4023H144.324V49.4023V59.4023H171.48V49.4023ZM144.324 49.4023H154.324V33.9336H144.324L134.324 33.9336V49.4023L144.324 49.4023ZM144.324 33.9336V43.9336H171.48V33.9336V23.9336H144.324V33.9336ZM151.242 39.3477H141.242V43.9023H151.242H161.242V39.3477H151.242ZM151.242 43.9023V53.9023H164.777V43.9023V33.9023H151.242V43.9023ZM164.777 43.9023H174.777V39.3477H164.777H154.777V43.9023H164.777ZM164.777 39.3477V29.3477H151.242V39.3477V49.3477H164.777V39.3477ZM197.133 12.4062H207.133C207.133 6.8834 202.656 2.40625 197.133 2.40625V12.4062ZM196.875 16.0586L186.983 14.5931C186.557 17.4697 187.404 20.3893 189.304 22.591C191.203 24.7928 193.967 26.0586 196.875 26.0586V16.0586ZM202.633 16.0586V26.0586C208.156 26.0586 212.633 21.5814 212.633 16.0586L202.633 16.0586ZM202.633 10.0859V0.0859375C197.11 0.0859375 192.633 4.56309 192.633 10.0859H202.633ZM209.508 10.0859H219.508C219.508 4.56309 215.031 0.0859375 209.508 0.0859375V10.0859ZM209.508 33.5898V43.5898C215.031 43.5898 219.508 39.1127 219.508 33.5898H209.508ZM202.633 33.5898H192.633C192.633 39.1127 197.11 43.5898 202.633 43.5898V33.5898ZM202.633 29.8945H212.633C212.633 24.3717 208.156 19.8945 202.633 19.8945V29.8945ZM194.598 29.8945H184.598C184.598 35.4174 189.075 39.8945 194.598 39.8945V29.8945ZM194.598 24.4375V14.4375C189.075 14.4375 184.598 18.9147 184.598 24.4375H194.598ZM202.633 24.4375V34.4375C208.156 34.4375 212.633 29.9603 212.633 24.4375L202.633 24.4375ZM202.633 21.3867L212.633 21.3867C212.633 15.8639 208.156 11.3867 202.633 11.3867V21.3867ZM195.371 21.3867V11.3867C191.389 11.3867 187.787 13.7489 186.2 17.4006L195.371 21.3867ZM178.57 33.8477L169.501 38.0609C171.533 42.4338 176.395 44.7343 181.065 43.5316L178.57 33.8477ZM176.035 28.3906L173.639 18.6819C170.738 19.3979 168.309 21.3737 167.018 24.0683C165.726 26.7629 165.707 29.8938 166.966 32.6038L176.035 28.3906ZM189.699 17.9492L199.475 20.0541C200.111 17.1001 199.377 14.017 197.479 11.6663C195.58 9.3155 192.721 7.94922 189.699 7.94922V17.9492ZM178.398 17.9492H168.398C168.398 23.4721 172.876 27.9492 178.398 27.9492V17.9492ZM178.398 12.4062V2.40625C172.876 2.40625 168.398 6.8834 168.398 12.4062L178.398 12.4062ZM209.508 35.1367H219.508C219.508 29.6139 215.031 25.1367 209.508 25.1367V35.1367ZM209.508 49.6172V59.6172C215.031 59.6172 219.508 55.14 219.508 49.6172H209.508ZM202.633 49.6172H192.633C192.633 55.14 197.11 59.6172 202.633 59.6172V49.6172ZM202.633 40.4648H212.633C212.633 34.942 208.156 30.4648 202.633 30.4648V40.4648ZM181.879 40.4648H171.879C171.879 45.9877 176.356 50.4648 181.879 50.4648V40.4648ZM181.879 35.1367V25.1367C176.356 25.1367 171.879 29.6139 171.879 35.1367H181.879ZM197.133 12.4062H187.133C187.133 13.2267 187.077 13.9592 186.983 14.5931L196.875 16.0586L206.767 17.5241C207.017 15.8377 207.133 14.121 207.133 12.4062H197.133ZM196.875 16.0586V26.0586H202.633V16.0586V6.05859H196.875V16.0586ZM202.633 16.0586L212.633 16.0586V10.0859H202.633H192.633V16.0586H202.633ZM202.633 10.0859V20.0859L209.508 20.0859V10.0859V0.0859375H202.633V10.0859ZM209.508 10.0859H199.508V33.5898H209.508H219.508V10.0859H209.508ZM209.508 33.5898V23.5898L202.633 23.5898V33.5898V43.5898H209.508V33.5898ZM202.633 33.5898H212.633V29.8945H202.633H192.633V33.5898H202.633ZM202.633 29.8945V19.8945H194.598V29.8945V39.8945H202.633V29.8945ZM194.598 29.8945H204.598V24.4375H194.598H184.598V29.8945H194.598ZM194.598 24.4375V34.4375H202.633V24.4375V14.4375H194.598V24.4375ZM202.633 24.4375L212.633 24.4375V21.3867L202.633 21.3867H192.633V24.4375H202.633ZM202.633 21.3867V11.3867H195.371V21.3867V31.3867H202.633V21.3867ZM195.371 21.3867L186.2 17.4006C185.161 19.7898 182.649 22.4708 176.076 24.1637L178.57 33.8477L181.065 43.5316C191.508 40.8417 200.296 35.1438 204.542 25.3728L195.371 21.3867ZM178.57 33.8477L187.639 29.6344L185.104 24.1774L176.035 28.3906L166.966 32.6038L169.501 38.0609L178.57 33.8477ZM176.035 28.3906L178.431 38.0993C188.35 35.6515 197.325 30.0426 199.475 20.0541L189.699 17.9492L179.923 15.8443C179.997 15.5026 180.134 15.6805 179.411 16.2562C178.596 16.905 176.862 17.8866 173.639 18.6819L176.035 28.3906ZM189.699 17.9492V7.94922H178.398V17.9492V27.9492H189.699V17.9492ZM178.398 17.9492H188.398V12.4062H178.398L168.398 12.4062V17.9492H178.398ZM178.398 12.4062V22.4062H197.133V12.4062V2.40625L178.398 2.40625V12.4062ZM209.508 35.1367H199.508V49.6172H209.508H219.508V35.1367H209.508ZM209.508 49.6172V39.6172H202.633V49.6172V59.6172H209.508V49.6172ZM202.633 49.6172H212.633V40.4648H202.633H192.633V49.6172H202.633ZM202.633 40.4648V30.4648H181.879V40.4648V50.4648H202.633V40.4648ZM181.879 40.4648H191.879V35.1367H181.879H171.879V40.4648H181.879ZM181.879 35.1367V45.1367H209.508V35.1367V25.1367L181.879 25.1367V35.1367ZM245.516 10.0859H255.516C255.516 4.56309 251.038 0.0859375 245.516 0.0859375V10.0859ZM245.516 21.6875H235.516C235.516 27.2103 239.993 31.6875 245.516 31.6875V21.6875ZM250.457 21.6875H260.457C260.457 16.1647 255.98 11.6875 250.457 11.6875V21.6875ZM250.457 27.2734V37.2734C255.98 37.2734 260.457 32.7963 260.457 27.2734H250.457ZM245.516 27.2734V17.2734C239.993 17.2734 235.516 21.7506 235.516 27.2734H245.516ZM245.516 39.6914V49.6914C251.038 49.6914 255.516 45.2143 255.516 39.6914H245.516ZM238.598 39.6914H228.598C228.598 45.2143 233.075 49.6914 238.598 49.6914V39.6914ZM238.598 10.0859V0.0859375C233.075 0.0859375 228.598 4.56309 228.598 10.0859L238.598 10.0859ZM237.18 13.8242H247.18C247.18 8.30137 242.703 3.82422 237.18 3.82422V13.8242ZM237.18 19.1523V29.1523C242.703 29.1523 247.18 24.6752 247.18 19.1523H237.18ZM213.676 19.1523L203.676 19.1523C203.676 24.6752 208.153 29.1523 213.676 29.1523V19.1523ZM213.676 13.8242V3.82422C208.153 3.82422 203.676 8.30137 203.676 13.8242L213.676 13.8242ZM221.969 13.8242V23.8242C227.492 23.8242 231.969 19.3471 231.969 13.8242H221.969ZM221.969 10V0C216.446 0 211.969 4.47715 211.969 10H221.969ZM228.887 10L238.887 10C238.887 4.47715 234.41 0 228.887 0V10ZM228.887 13.8242H218.887C218.887 19.3471 223.364 23.8242 228.887 23.8242V13.8242ZM225.406 35.6523L225.48 25.6526C225.431 25.6523 225.382 25.6523 225.333 25.6526L225.406 35.6523ZM225.406 25.2539L225.619 15.2562C225.476 15.2531 225.332 15.2532 225.189 15.2563L225.406 25.2539ZM246.676 43.6875H256.676C256.676 38.1647 252.199 33.6875 246.676 33.6875V43.6875ZM246.676 49.1875V59.1875C252.199 59.1875 256.676 54.7103 256.676 49.1875H246.676ZM219.176 49.1875H209.176C209.176 54.7103 213.653 59.1875 219.176 59.1875V49.1875ZM219.176 37.457V27.457C213.653 27.457 209.176 31.9342 209.176 37.457H219.176ZM226.094 37.457H236.094C236.094 31.9342 231.617 27.457 226.094 27.457V37.457ZM226.094 43.6875H216.094C216.094 49.2103 220.571 53.6875 226.094 53.6875V43.6875ZM245.516 10.0859L235.516 10.0859V21.6875H245.516H255.516V10.0859H245.516ZM245.516 21.6875V31.6875H250.457V21.6875V11.6875H245.516V21.6875ZM250.457 21.6875H240.457V27.2734H250.457H260.457V21.6875H250.457ZM250.457 27.2734V17.2734H245.516V27.2734V37.2734H250.457V27.2734ZM245.516 27.2734H235.516V39.6914H245.516H255.516V27.2734H245.516ZM245.516 39.6914V29.6914H238.598V39.6914V49.6914H245.516V39.6914ZM238.598 39.6914H248.598V10.0859H238.598L228.598 10.0859V39.6914H238.598ZM238.598 10.0859V20.0859H245.516V10.0859V0.0859375L238.598 0.0859375V10.0859ZM237.18 13.8242H227.18V19.1523H237.18H247.18V13.8242H237.18ZM237.18 19.1523V9.15234L213.676 9.15234V19.1523V29.1523H237.18V19.1523ZM213.676 19.1523H223.676V13.8242H213.676L203.676 13.8242V19.1523L213.676 19.1523ZM213.676 13.8242V23.8242H221.969V13.8242V3.82422L213.676 3.82422V13.8242ZM221.969 13.8242H231.969V10H221.969H211.969V13.8242H221.969ZM221.969 10V20H228.887V10V0H221.969V10ZM228.887 10H218.887V13.8242H228.887H238.887V10L228.887 10ZM228.887 13.8242V23.8242H237.18V13.8242V3.82422H228.887V13.8242ZM225.406 20.0547V30.0547C226.531 30.0547 226.696 30.3697 226.35 30.0968C226.161 29.9475 225.88 29.6587 225.653 29.2037C225.419 28.7368 225.332 28.2729 225.332 27.918H235.332H245.332C245.332 22.357 242.754 17.5637 238.739 14.3954C234.88 11.351 230.082 10.0547 225.406 10.0547V20.0547ZM235.332 27.918H225.332C225.332 27.5621 225.42 27.0793 225.669 26.5852C225.913 26.1028 226.216 25.7942 226.425 25.6324C226.804 25.3394 226.647 25.6613 225.48 25.6526L225.406 35.6523L225.332 45.6521C229.966 45.6864 234.772 44.4614 238.664 41.4506C242.735 38.3007 245.332 33.4973 245.332 27.918H235.332ZM225.406 35.6523L225.333 25.6526C224.128 25.6615 223.935 25.3307 224.293 25.6054C224.494 25.7591 224.799 26.0633 225.047 26.55C225.302 27.0498 225.395 27.5449 225.395 27.918H215.395H205.395C205.395 33.5383 208.038 38.3447 212.125 41.4776C216.028 44.4701 220.841 45.6862 225.48 45.6521L225.406 35.6523ZM215.395 27.918H225.395C225.395 28.29 225.302 28.7662 225.064 29.2388C224.832 29.6982 224.549 29.9827 224.368 30.1242C224.042 30.3793 224.243 30.0547 225.406 30.0547V20.0547V10.0547C216.471 10.0547 205.395 15.6025 205.395 27.918H215.395ZM225.406 25.2539L225.189 15.2563C223.102 15.3016 219.877 15.7513 216.961 17.9796C213.579 20.5634 212.141 24.3486 212.141 27.918H222.141H232.141C232.141 28.6625 232.004 29.7332 231.463 30.9136C230.906 32.1283 230.068 33.1346 229.104 33.871C227.327 35.2292 225.734 35.2491 225.624 35.2515L225.406 25.2539ZM222.141 27.918H212.141C212.141 31.492 213.592 35.3526 217.105 37.9382C220.097 40.1396 223.369 40.4961 225.406 40.4961V30.4961V20.4961C225.467 20.4961 227.106 20.4658 228.959 21.8294C229.973 22.5757 230.857 23.6099 231.44 24.8656C232.005 26.0805 232.141 27.1768 232.141 27.918H222.141ZM225.406 30.4961V40.4961C227.438 40.4961 230.645 40.1493 233.61 38.0657C237.137 35.5876 238.801 31.7381 238.801 27.918H228.801H218.801C218.801 27.0865 218.965 25.922 219.581 24.6692C220.211 23.3883 221.13 22.3918 222.111 21.7019C223.884 20.4562 225.394 20.4961 225.406 20.4961V30.4961ZM228.801 27.918H238.801C238.801 24.1082 237.154 20.3277 233.756 17.8474C230.86 15.7347 227.695 15.3003 225.619 15.2562L225.406 25.2539L225.194 35.2516C225.137 35.2505 223.669 35.2458 221.966 34.0032C221.031 33.321 220.157 32.3492 219.556 31.1087C218.966 29.8906 218.801 28.7524 218.801 27.918H228.801ZM246.676 43.6875H236.676V49.1875H246.676H256.676V43.6875H246.676ZM246.676 49.1875V39.1875H219.176V49.1875V59.1875H246.676V49.1875ZM219.176 49.1875H229.176V37.457H219.176H209.176V49.1875H219.176ZM219.176 37.457V47.457H226.094V37.457V27.457H219.176V37.457ZM226.094 37.457H216.094V43.6875H226.094H236.094V37.457H226.094ZM226.094 43.6875V53.6875H246.676V43.6875V33.6875H226.094V43.6875Z" fill="white" mask="url(#path-1-outside-1_6526_5733)"/>
</g>
<defs>
<filter id="filter0_d_6526_5733" x="0" y="0" width="264.457" height="67.6172" filterUnits="userSpaceOnUse" color-interpolation-filters="sRGB">
<feFlood flood-opacity="0" result="BackgroundImageFix"/>
<feColorMatrix in="SourceAlpha" type="matrix" values="0 0 0 0 0 0 0 0 0 0 0 0 0 0 0 0 0 0 127 0" result="hardAlpha"/>
<feOffset dy="4"/>
<feGaussianBlur stdDeviation="2"/>
<feComposite in2="hardAlpha" operator="out"/>
<feColorMatrix type="matrix" values="0 0 0 0 0 0 0 0 0 0 0 0 0 0 0 0 0 0 0.07 0"/>
<feBlend mode="normal" in2="BackgroundImageFix" result="effect1_dropShadow_6526_5733"/>
<feBlend mode="normal" in="SourceGraphic" in2="effect1_dropShadow_6526_5733" result="shape"/>
</filter>
</defs>
</svg>
