<svg width="426" height="68" viewBox="0 0 426 68" fill="none" xmlns="http://www.w3.org/2000/svg">
<g filter="url(#filter0_d_6524_1786)">
<mask id="path-1-outside-1_6524_1786" maskUnits="userSpaceOnUse" x="3.09766" y="-0.507813" width="419" height="61" fill="black">
<rect fill="white" x="3.09766" y="-0.507813" width="419" height="61"/>
<path d="M35.6133 14.8555C35.5703 20.0977 39.0508 26.4141 49.3633 28.0898L46.3984 33.8047C39.1152 32.4727 34.4102 28.8633 31.918 24.2227C29.3398 28.8203 24.6133 32.4297 17.4375 33.8047L14.5156 28.0898C24.6133 26.3711 28.1797 19.9688 28.1797 14.8555V12.1484H35.6133V14.8555ZM50.3086 39.6055V45.2344H14V39.6055H50.3086ZM73.6406 14.8555C73.5977 20.0977 77.0781 26.4141 87.3906 28.0898L84.4258 33.8047C77.1426 32.4727 72.4375 28.8633 69.9453 24.2227C67.3672 28.8203 62.6406 32.4297 55.4648 33.8047L52.543 28.0898C62.6406 26.3711 66.207 19.9688 66.207 14.8555V12.1484H73.6406V14.8555ZM88.3359 39.6055V45.2344H52.0273V39.6055H88.3359ZM126.363 40.0781V45.6641H90.0547V40.0781H104.75V35.0078H94.0078V20.957H115.621V17.8633H93.9648V12.3633L122.453 12.3633V26.2852H100.926V29.4648H123.355V35.0078H111.582V40.0781H126.363ZM174.016 28.2187V33.6328L137.664 33.6328V28.2187H152.488V25.6406H141.961V11.7187H169.762V17.0469H148.793V20.2695H169.934V25.6406H159.277V28.2187H174.016ZM155.711 35.0078C164.391 35.0078 169.59 37.6719 169.633 42.4844C169.59 47.168 164.391 49.875 155.711 49.875C146.945 49.875 141.66 47.168 141.66 42.4844C141.66 37.6719 146.945 35.0078 155.711 35.0078ZM155.711 40.207C150.77 40.207 148.664 40.8945 148.707 42.4844C148.664 44.1172 150.77 44.6758 155.711 44.6758C160.523 44.6758 162.715 44.1172 162.715 42.4844C162.715 40.8945 160.523 40.207 155.711 40.207ZM209.422 10V49.7461H202.418V10H209.422ZM197.391 14.082C197.391 26.543 193.867 36.4687 179.129 43.3437L175.605 37.9297C185.531 33.2031 189.506 27.7461 190.387 19.4531H177.883V14.082H197.391ZM249.984 32.5156V37.8437H235.117V49.7461H228.285V37.8437H213.719V32.5156H249.984ZM224.461 11.5039V15.5H239.027V11.5039H245.945V29.3359H217.672V11.5039H224.461ZM224.461 23.8359H239.027V20.8281H224.461V23.8359ZM262.875 12.6641C266.377 12.6426 269.32 14.4902 271.211 17.7344H278.816V10H285.648V49.875H278.816V35.3516H271.727C269.857 39.1973 266.699 41.4102 262.875 41.4102C256.73 41.4102 252.305 35.8672 252.305 26.9727C252.305 18.207 256.73 12.6211 262.875 12.6641ZM262.875 18.8945C260.512 18.8516 258.879 21.4727 258.922 26.9727C258.879 32.5586 260.512 35.0937 262.875 35.0937C265.281 35.0937 266.828 32.5586 266.828 26.9727C266.828 21.4727 265.281 18.8516 262.875 18.8945ZM273.102 23.2344C273.295 24.3945 273.402 25.6621 273.402 26.9727C273.402 27.9824 273.338 28.9707 273.23 29.8945H278.816V23.2344H273.102ZM321.484 10V24.6523H326.555V30.2812H321.484V49.6602H314.566V10H321.484ZM310.656 13.9531C310.613 26.2422 306.402 36.5547 292.824 43.2148L288.914 37.9727C297.766 33.5039 302.449 27.9395 303.652 19.5391H291.406V13.9531H310.656ZM360.973 25.5117V31.0117H353.926V36.6836C356.805 36.5977 359.662 36.4043 362.391 36.125L362.906 41.1094C354.312 42.4414 345.676 42.4414 338.285 42.4844L337.512 36.8984C340.477 36.9414 343.699 36.9414 347.008 36.8984V31.0117H339.875V13.3945H360.801V18.8086H346.75V25.5117H360.973ZM371.242 10V49.875H364.41V10L371.242 10ZM407.766 20.0977V25.4258H379.664V11.418H386.539V20.0977H407.766ZM411.676 28.9492V34.2773L375.41 34.2773V28.9492L411.676 28.9492ZM408.023 43.4727V48.9727L379.191 48.9727V37.0273H386.152V43.4727L408.023 43.4727Z"/>
</mask>
<path d="M35.6133 14.8555C35.5703 20.0977 39.0508 26.4141 49.3633 28.0898L46.3984 33.8047C39.1152 32.4727 34.4102 28.8633 31.918 24.2227C29.3398 28.8203 24.6133 32.4297 17.4375 33.8047L14.5156 28.0898C24.6133 26.3711 28.1797 19.9688 28.1797 14.8555V12.1484H35.6133V14.8555ZM50.3086 39.6055V45.2344H14V39.6055H50.3086ZM73.6406 14.8555C73.5977 20.0977 77.0781 26.4141 87.3906 28.0898L84.4258 33.8047C77.1426 32.4727 72.4375 28.8633 69.9453 24.2227C67.3672 28.8203 62.6406 32.4297 55.4648 33.8047L52.543 28.0898C62.6406 26.3711 66.207 19.9688 66.207 14.8555V12.1484H73.6406V14.8555ZM88.3359 39.6055V45.2344H52.0273V39.6055H88.3359ZM126.363 40.0781V45.6641H90.0547V40.0781H104.75V35.0078H94.0078V20.957H115.621V17.8633H93.9648V12.3633L122.453 12.3633V26.2852H100.926V29.4648H123.355V35.0078H111.582V40.0781H126.363ZM174.016 28.2187V33.6328L137.664 33.6328V28.2187H152.488V25.6406H141.961V11.7187H169.762V17.0469H148.793V20.2695H169.934V25.6406H159.277V28.2187H174.016ZM155.711 35.0078C164.391 35.0078 169.59 37.6719 169.633 42.4844C169.59 47.168 164.391 49.875 155.711 49.875C146.945 49.875 141.66 47.168 141.66 42.4844C141.66 37.6719 146.945 35.0078 155.711 35.0078ZM155.711 40.207C150.77 40.207 148.664 40.8945 148.707 42.4844C148.664 44.1172 150.77 44.6758 155.711 44.6758C160.523 44.6758 162.715 44.1172 162.715 42.4844C162.715 40.8945 160.523 40.207 155.711 40.207ZM209.422 10V49.7461H202.418V10H209.422ZM197.391 14.082C197.391 26.543 193.867 36.4687 179.129 43.3437L175.605 37.9297C185.531 33.2031 189.506 27.7461 190.387 19.4531H177.883V14.082H197.391ZM249.984 32.5156V37.8437H235.117V49.7461H228.285V37.8437H213.719V32.5156H249.984ZM224.461 11.5039V15.5H239.027V11.5039H245.945V29.3359H217.672V11.5039H224.461ZM224.461 23.8359H239.027V20.8281H224.461V23.8359ZM262.875 12.6641C266.377 12.6426 269.32 14.4902 271.211 17.7344H278.816V10H285.648V49.875H278.816V35.3516H271.727C269.857 39.1973 266.699 41.4102 262.875 41.4102C256.73 41.4102 252.305 35.8672 252.305 26.9727C252.305 18.207 256.73 12.6211 262.875 12.6641ZM262.875 18.8945C260.512 18.8516 258.879 21.4727 258.922 26.9727C258.879 32.5586 260.512 35.0937 262.875 35.0937C265.281 35.0937 266.828 32.5586 266.828 26.9727C266.828 21.4727 265.281 18.8516 262.875 18.8945ZM273.102 23.2344C273.295 24.3945 273.402 25.6621 273.402 26.9727C273.402 27.9824 273.338 28.9707 273.23 29.8945H278.816V23.2344H273.102ZM321.484 10V24.6523H326.555V30.2812H321.484V49.6602H314.566V10H321.484ZM310.656 13.9531C310.613 26.2422 306.402 36.5547 292.824 43.2148L288.914 37.9727C297.766 33.5039 302.449 27.9395 303.652 19.5391H291.406V13.9531H310.656ZM360.973 25.5117V31.0117H353.926V36.6836C356.805 36.5977 359.662 36.4043 362.391 36.125L362.906 41.1094C354.312 42.4414 345.676 42.4414 338.285 42.4844L337.512 36.8984C340.477 36.9414 343.699 36.9414 347.008 36.8984V31.0117H339.875V13.3945H360.801V18.8086H346.75V25.5117H360.973ZM371.242 10V49.875H364.41V10L371.242 10ZM407.766 20.0977V25.4258H379.664V11.418H386.539V20.0977H407.766ZM411.676 28.9492V34.2773L375.41 34.2773V28.9492L411.676 28.9492ZM408.023 43.4727V48.9727L379.191 48.9727V37.0273H386.152V43.4727L408.023 43.4727Z" fill="#11DCA9"/>
<path d="M35.6133 14.8555L45.6129 14.9374C45.6132 14.9101 45.6133 14.8828 45.6133 14.8555H35.6133ZM49.3633 28.0898L58.2398 32.695C59.7166 29.8483 59.7386 26.4661 58.299 23.6006C56.8593 20.735 54.1326 18.7337 50.9672 18.2193L49.3633 28.0898ZM46.3984 33.8047L44.5994 43.6415C48.9208 44.4319 53.2519 42.3093 55.275 38.4098L46.3984 33.8047ZM31.918 24.2227L40.7279 19.4914C39.0009 16.2757 35.659 14.2563 32.0091 14.2231C28.3591 14.1898 24.981 16.1479 23.1957 19.3317L31.918 24.2227ZM17.4375 33.8047L8.53376 38.357C10.5578 42.3158 14.9526 44.4628 19.3194 43.626L17.4375 33.8047ZM14.5156 28.0898L12.8376 18.2316C9.69956 18.7658 7.00326 20.762 5.57645 23.6075C4.14964 26.4531 4.16279 29.8079 5.61188 32.6421L14.5156 28.0898ZM28.1797 12.1484V2.14844C22.6568 2.14844 18.1797 6.62559 18.1797 12.1484H28.1797ZM35.6133 12.1484L45.6133 12.1484C45.6133 6.62559 41.1361 2.14844 35.6133 2.14844V12.1484ZM50.3086 39.6055H60.3086C60.3086 34.0826 55.8314 29.6055 50.3086 29.6055V39.6055ZM50.3086 45.2344V55.2344C55.8314 55.2344 60.3086 50.7572 60.3086 45.2344H50.3086ZM14 45.2344H4C4 50.7572 8.47715 55.2344 14 55.2344V45.2344ZM14 39.6055L14 29.6055C8.47715 29.6055 4 34.0826 4 39.6055H14ZM35.6133 14.8555L25.6136 14.7735C25.5738 19.6261 27.174 24.9641 31.1028 29.4219C35.0668 33.9198 40.776 36.8256 47.7593 37.9604L49.3633 28.0898L50.9672 18.2193C47.6381 17.6783 46.4508 16.5881 46.1072 16.1982C45.7284 15.7684 45.6098 15.327 45.6129 14.9374L35.6133 14.8555ZM49.3633 28.0898L40.4867 23.4847L37.5219 29.1996L46.3984 33.8047L55.275 38.4098L58.2398 32.695L49.3633 28.0898ZM46.3984 33.8047L48.1975 23.9679C43.5007 23.1088 41.5968 21.1094 40.7279 19.4914L31.918 24.2227L23.108 28.9539C27.2235 36.6172 34.7298 41.8365 44.5994 43.6415L46.3984 33.8047ZM31.918 24.2227L23.1957 19.3317C22.2188 21.0737 20.172 23.0988 15.5556 23.9834L17.4375 33.8047L19.3194 43.626C29.0545 41.7606 36.4608 36.5669 40.6402 29.1137L31.918 24.2227ZM17.4375 33.8047L26.3412 29.2524L23.4194 23.5376L14.5156 28.0898L5.61188 32.6421L8.53376 38.357L17.4375 33.8047ZM14.5156 28.0898L16.1936 37.9481C23.1328 36.7669 28.7512 33.7854 32.6509 29.3411C36.4947 24.9605 38.1797 19.7003 38.1797 14.8555H28.1797H18.1797C18.1797 15.1239 18.0815 15.6215 17.6177 16.1501C17.2098 16.615 15.9961 17.694 12.8376 18.2316L14.5156 28.0898ZM28.1797 14.8555H38.1797V12.1484H28.1797H18.1797V14.8555H28.1797ZM28.1797 12.1484V22.1484H35.6133V12.1484V2.14844L28.1797 2.14844V12.1484ZM35.6133 12.1484H25.6133V14.8555H35.6133H45.6133V12.1484L35.6133 12.1484ZM50.3086 39.6055H40.3086V45.2344H50.3086H60.3086V39.6055H50.3086ZM50.3086 45.2344V35.2344H14V45.2344V55.2344H50.3086V45.2344ZM14 45.2344H24V39.6055H14H4V45.2344H14ZM14 39.6055V49.6055H50.3086V39.6055V29.6055H14L14 39.6055ZM73.6406 14.8555L83.6403 14.9374C83.6405 14.9101 83.6406 14.8828 83.6406 14.8555L73.6406 14.8555ZM87.3906 28.0898L96.2672 32.695C97.744 29.8483 97.766 26.4661 96.3263 23.6006C94.8866 20.735 92.16 18.7337 88.9946 18.2193L87.3906 28.0898ZM84.4258 33.8047L82.6267 43.6415C86.9481 44.4319 91.2793 42.3093 93.3023 38.4098L84.4258 33.8047ZM69.9453 24.2227L78.7553 19.4914C77.0283 16.2757 73.6864 14.2563 70.0364 14.2231C66.3864 14.1898 63.0083 16.1479 61.223 19.3317L69.9453 24.2227ZM55.4648 33.8047L46.5611 38.357C48.5852 42.3158 52.98 44.4628 57.3468 43.626L55.4648 33.8047ZM52.543 28.0898L50.865 18.2316C47.7269 18.7658 45.0306 20.762 43.6038 23.6075C42.177 26.4531 42.1901 29.8079 43.6392 32.6421L52.543 28.0898ZM66.207 12.1484V2.14844C60.6842 2.14844 56.207 6.62559 56.207 12.1484H66.207ZM73.6406 12.1484H83.6406C83.6406 6.62559 79.1635 2.14844 73.6406 2.14844V12.1484ZM88.3359 39.6055H98.3359C98.3359 34.0826 93.8588 29.6055 88.3359 29.6055V39.6055ZM88.3359 45.2344V55.2344C93.8588 55.2344 98.3359 50.7572 98.3359 45.2344H88.3359ZM52.0273 45.2344H42.0273C42.0273 50.7572 46.5045 55.2344 52.0273 55.2344V45.2344ZM52.0273 39.6055V29.6055C46.5045 29.6055 42.0273 34.0826 42.0273 39.6055H52.0273ZM73.6406 14.8555L63.641 14.7735C63.6012 19.6261 65.2013 24.9641 69.1301 29.4219C73.0941 33.9198 78.8034 36.8256 85.7867 37.9604L87.3906 28.0898L88.9946 18.2193C85.6654 17.6783 84.4781 16.5881 84.1346 16.1982C83.7557 15.7684 83.6371 15.327 83.6403 14.9374L73.6406 14.8555ZM87.3906 28.0898L78.5141 23.4847L75.5492 29.1996L84.4258 33.8047L93.3023 38.4098L96.2672 32.695L87.3906 28.0898ZM84.4258 33.8047L86.2248 23.9679C81.528 23.1088 79.6242 21.1094 78.7553 19.4914L69.9453 24.2227L61.1354 28.9539C65.2508 36.6172 72.7571 41.8365 82.6267 43.6415L84.4258 33.8047ZM69.9453 24.2227L61.223 19.3317C60.2462 21.0737 58.1994 23.0988 53.5829 23.9834L55.4648 33.8047L57.3468 43.626C67.0819 41.7606 74.4882 36.5669 78.6676 29.1137L69.9453 24.2227ZM55.4648 33.8047L64.3686 29.2524L61.4467 23.5376L52.543 28.0898L43.6392 32.6421L46.5611 38.357L55.4648 33.8047ZM52.543 28.0898L54.221 37.9481C61.1601 36.7669 66.7785 33.7854 70.6782 29.3411C74.522 24.9605 76.207 19.7003 76.207 14.8555H66.207H56.207C56.207 15.1239 56.1089 15.6215 55.645 16.1501C55.2371 16.615 54.0235 17.694 50.865 18.2316L52.543 28.0898ZM66.207 14.8555H76.207V12.1484H66.207H56.207V14.8555H66.207ZM66.207 12.1484V22.1484H73.6406V12.1484V2.14844H66.207V12.1484ZM73.6406 12.1484H63.6406V14.8555H73.6406L83.6406 14.8555V12.1484H73.6406ZM88.3359 39.6055H78.3359V45.2344H88.3359H98.3359V39.6055H88.3359ZM88.3359 45.2344V35.2344H52.0273V45.2344V55.2344H88.3359V45.2344ZM52.0273 45.2344H62.0273V39.6055H52.0273H42.0273V45.2344H52.0273ZM52.0273 39.6055V49.6055H88.3359V39.6055V29.6055H52.0273V39.6055ZM126.363 40.0781H136.363C136.363 34.5553 131.886 30.0781 126.363 30.0781V40.0781ZM126.363 45.6641V55.6641C131.886 55.6641 136.363 51.1869 136.363 45.6641H126.363ZM90.0547 45.6641H80.0547C80.0547 51.1869 84.5318 55.6641 90.0547 55.6641V45.6641ZM90.0547 40.0781V30.0781C84.5318 30.0781 80.0547 34.5553 80.0547 40.0781H90.0547ZM104.75 40.0781V50.0781C110.273 50.0781 114.75 45.601 114.75 40.0781H104.75ZM104.75 35.0078H114.75C114.75 29.485 110.273 25.0078 104.75 25.0078V35.0078ZM94.0078 35.0078H84.0078C84.0078 40.5307 88.485 45.0078 94.0078 45.0078V35.0078ZM94.0078 20.957V10.957C88.485 10.957 84.0078 15.4342 84.0078 20.957H94.0078ZM115.621 20.957V30.957C121.144 30.957 125.621 26.4799 125.621 20.957H115.621ZM115.621 17.8633H125.621C125.621 12.3404 121.144 7.86328 115.621 7.86328V17.8633ZM93.9648 17.8633H83.9648C83.9648 23.3861 88.442 27.8633 93.9648 27.8633V17.8633ZM93.9648 12.3633V2.36328C88.442 2.36328 83.9648 6.84043 83.9648 12.3633H93.9648ZM122.453 12.3633H132.453C132.453 6.84043 127.976 2.36328 122.453 2.36328V12.3633ZM122.453 26.2852V36.2852C127.976 36.2852 132.453 31.808 132.453 26.2852H122.453ZM100.926 26.2852V16.2852C95.4029 16.2852 90.9258 20.7623 90.9258 26.2852H100.926ZM100.926 29.4648H90.9258C90.9258 34.9877 95.4029 39.4648 100.926 39.4648V29.4648ZM123.355 29.4648H133.355C133.355 23.942 128.878 19.4648 123.355 19.4648V29.4648ZM123.355 35.0078V45.0078C128.878 45.0078 133.355 40.5307 133.355 35.0078H123.355ZM111.582 35.0078V25.0078C106.059 25.0078 101.582 29.485 101.582 35.0078H111.582ZM111.582 40.0781H101.582C101.582 45.601 106.059 50.0781 111.582 50.0781V40.0781ZM126.363 40.0781H116.363V45.6641H126.363H136.363V40.0781H126.363ZM126.363 45.6641V35.6641H90.0547V45.6641V55.6641H126.363V45.6641ZM90.0547 45.6641H100.055V40.0781H90.0547H80.0547V45.6641H90.0547ZM90.0547 40.0781V50.0781H104.75V40.0781V30.0781H90.0547V40.0781ZM104.75 40.0781H114.75V35.0078H104.75H94.75V40.0781H104.75ZM104.75 35.0078V25.0078H94.0078V35.0078V45.0078H104.75V35.0078ZM94.0078 35.0078H104.008V20.957H94.0078H84.0078V35.0078H94.0078ZM94.0078 20.957V30.957H115.621V20.957V10.957L94.0078 10.957V20.957ZM115.621 20.957H125.621V17.8633H115.621H105.621V20.957H115.621ZM115.621 17.8633V7.86328L93.9648 7.86328V17.8633V27.8633H115.621V17.8633ZM93.9648 17.8633H103.965V12.3633H93.9648H83.9648V17.8633H93.9648ZM93.9648 12.3633V22.3633H122.453V12.3633V2.36328H93.9648V12.3633ZM122.453 12.3633H112.453V26.2852H122.453H132.453V12.3633H122.453ZM122.453 26.2852V16.2852H100.926V26.2852V36.2852H122.453V26.2852ZM100.926 26.2852H90.9258V29.4648H100.926H110.926V26.2852H100.926ZM100.926 29.4648V39.4648H123.355V29.4648V19.4648H100.926V29.4648ZM123.355 29.4648H113.355V35.0078H123.355H133.355V29.4648H123.355ZM123.355 35.0078V25.0078H111.582V35.0078V45.0078H123.355V35.0078ZM111.582 35.0078H101.582V40.0781H111.582H121.582V35.0078H111.582ZM111.582 40.0781V50.0781H126.363V40.0781V30.0781H111.582V40.0781ZM174.016 28.2187H184.016C184.016 22.6959 179.538 18.2187 174.016 18.2187V28.2187ZM174.016 33.6328V43.6328C179.538 43.6328 184.016 39.1557 184.016 33.6328H174.016ZM137.664 33.6328H127.664C127.664 39.1557 132.141 43.6328 137.664 43.6328V33.6328ZM137.664 28.2187V18.2187C132.141 18.2187 127.664 22.6959 127.664 28.2187H137.664ZM152.488 28.2187V38.2187C158.011 38.2187 162.488 33.7416 162.488 28.2187H152.488ZM152.488 25.6406H162.488C162.488 20.1178 158.011 15.6406 152.488 15.6406V25.6406ZM141.961 25.6406H131.961C131.961 31.1635 136.438 35.6406 141.961 35.6406V25.6406ZM141.961 11.7187V1.71875C136.438 1.71875 131.961 6.1959 131.961 11.7187H141.961ZM169.762 11.7187L179.762 11.7187C179.762 6.1959 175.285 1.71875 169.762 1.71875V11.7187ZM169.762 17.0469V27.0469C175.285 27.0469 179.762 22.5697 179.762 17.0469H169.762ZM148.793 17.0469V7.04687C143.27 7.04687 138.793 11.524 138.793 17.0469H148.793ZM148.793 20.2695H138.793C138.793 25.7924 143.27 30.2695 148.793 30.2695V20.2695ZM169.934 20.2695H179.934C179.934 14.7467 175.456 10.2695 169.934 10.2695V20.2695ZM169.934 25.6406V35.6406C175.456 35.6406 179.934 31.1635 179.934 25.6406H169.934ZM159.277 25.6406V15.6406C153.755 15.6406 149.277 20.1178 149.277 25.6406H159.277ZM159.277 28.2187H149.277C149.277 33.7416 153.755 38.2187 159.277 38.2187V28.2187ZM169.633 42.4844L179.632 42.5761C179.633 42.5158 179.633 42.4554 179.632 42.3951L169.633 42.4844ZM148.707 42.4844L158.704 42.7474C158.708 42.5697 158.708 42.3919 158.703 42.2142L148.707 42.4844ZM174.016 28.2187H164.016V33.6328H174.016H184.016V28.2187H174.016ZM174.016 33.6328V23.6328H137.664V33.6328V43.6328L174.016 43.6328V33.6328ZM137.664 33.6328L147.664 33.6328V28.2187H137.664H127.664V33.6328H137.664ZM137.664 28.2187V38.2188L152.488 38.2187V28.2187V18.2187H137.664V28.2187ZM152.488 28.2187H162.488V25.6406H152.488H142.488V28.2187H152.488ZM152.488 25.6406V15.6406H141.961V25.6406V35.6406H152.488V25.6406ZM141.961 25.6406H151.961V11.7187H141.961H131.961V25.6406H141.961ZM141.961 11.7187V21.7187H169.762V11.7187V1.71875L141.961 1.71875V11.7187ZM169.762 11.7187H159.762V17.0469H169.762H179.762V11.7187L169.762 11.7187ZM169.762 17.0469V7.04687H148.793V17.0469V27.0469H169.762V17.0469ZM148.793 17.0469H138.793V20.2695H148.793H158.793V17.0469H148.793ZM148.793 20.2695V30.2695H169.934V20.2695V10.2695H148.793V20.2695ZM169.934 20.2695H159.934V25.6406H169.934H179.934V20.2695H169.934ZM169.934 25.6406V15.6406H159.277V25.6406V35.6406H169.934V25.6406ZM159.277 25.6406H149.277V28.2187H159.277H169.277V25.6406H159.277ZM159.277 28.2187V38.2187H174.016V28.2187V18.2187H159.277V28.2187ZM155.711 35.0078V45.0078C157.39 45.0078 158.701 45.1382 159.674 45.3232C160.666 45.5119 161.126 45.7233 161.225 45.7759C161.307 45.8193 160.861 45.6018 160.387 44.9032C159.863 44.1321 159.639 43.2624 159.633 42.5737L169.633 42.4844L179.632 42.3951C179.571 35.5704 175.507 30.7117 170.596 28.1069C166.161 25.7549 160.831 25.0078 155.711 25.0078V35.0078ZM169.633 42.4844L159.633 42.3926C159.64 41.6161 159.896 40.7094 160.427 39.9387C160.905 39.246 161.342 39.0398 161.241 39.0933C161.128 39.1532 160.655 39.367 159.662 39.557C158.689 39.7433 157.38 39.875 155.711 39.875V49.875V59.875C160.858 59.875 166.168 59.1088 170.58 56.7787C175.407 54.2299 179.57 49.4289 179.632 42.5761L169.633 42.4844ZM155.711 49.875V39.875C154.015 39.875 152.678 39.7426 151.677 39.5532C150.655 39.3598 150.158 39.1403 150.027 39.0719C149.905 39.0082 150.351 39.2102 150.842 39.9182C151.392 40.7124 151.66 41.6601 151.66 42.4844H141.66L131.66 42.4844C131.66 49.458 135.941 54.2788 140.769 56.8001C145.196 59.112 150.533 59.875 155.711 59.875V49.875ZM141.66 42.4844H151.66C151.66 43.2189 151.425 44.1288 150.882 44.9237C150.395 45.6379 149.94 45.8511 150.043 45.7974C150.16 45.7362 150.644 45.5191 151.665 45.327C152.666 45.139 154.006 45.0078 155.711 45.0078V35.0078V25.0078C150.56 25.0078 145.204 25.7518 140.754 28.0854C135.838 30.6634 131.66 35.5415 131.66 42.4844L141.66 42.4844ZM155.711 40.207V30.207C153.106 30.207 149.987 30.348 147.245 31.2405C145.814 31.7061 143.638 32.6394 141.774 34.6383C139.638 36.93 138.632 39.8506 138.711 42.7545L148.707 42.4844L158.703 42.2142C158.76 44.3233 158.002 46.5617 156.402 48.2774C155.076 49.7002 153.727 50.1635 153.435 50.2585C153.072 50.3767 153.022 50.3396 153.522 50.2895C153.978 50.2439 154.683 50.207 155.711 50.207V40.207ZM148.707 42.4844L138.71 42.2213C138.636 45.0698 139.6 48.0527 141.847 50.4122C143.786 52.4486 146.042 53.3406 147.45 53.7657C150.138 54.5772 153.224 54.6758 155.711 54.6758V44.6758V34.6758C154.637 34.6758 153.893 34.6444 153.396 34.6009C152.849 34.5532 152.88 34.5134 153.23 34.6191C153.499 34.7005 154.927 35.1466 156.33 36.6191C157.083 37.4102 157.743 38.4115 158.178 39.5945C158.607 40.7616 158.727 41.8554 158.704 42.7474L148.707 42.4844ZM155.711 44.6758V54.6758C158.166 54.6758 161.21 54.5726 163.883 53.7731C165.276 53.3565 167.466 52.4983 169.385 50.5698C171.606 48.3382 172.715 45.4279 172.715 42.4844H162.715H152.715C152.715 41.5491 152.877 40.4468 153.34 39.3006C153.806 38.1466 154.478 37.1962 155.209 36.4615C156.567 35.0969 157.909 34.6845 158.152 34.6117C158.475 34.515 158.488 34.5547 157.956 34.6017C157.469 34.6447 156.746 34.6758 155.711 34.6758V44.6758ZM162.715 42.4844H172.715C172.715 39.4937 171.569 36.6445 169.46 34.4792C167.614 32.5853 165.5 31.6877 164.086 31.232C161.362 30.3536 158.286 30.207 155.711 30.207V40.207V50.207C156.699 50.207 157.383 50.2434 157.829 50.2885C158.315 50.3377 158.284 50.3749 157.949 50.267C157.685 50.1819 156.419 49.7543 155.135 48.4365C153.586 46.8472 152.715 44.6801 152.715 42.4844H162.715ZM209.422 10H219.422C219.422 4.47715 214.945 0 209.422 0V10ZM209.422 49.7461V59.7461C214.945 59.7461 219.422 55.2689 219.422 49.7461H209.422ZM202.418 49.7461H192.418C192.418 55.2689 196.895 59.7461 202.418 59.7461V49.7461ZM202.418 10V0C196.895 0 192.418 4.47715 192.418 10H202.418ZM197.391 14.082L207.391 14.082C207.391 8.55918 202.913 4.08203 197.391 4.08203V14.082ZM179.129 43.3437L170.748 48.7983C173.465 52.9739 178.841 54.5123 183.356 52.4063L179.129 43.3437ZM175.605 37.9297L171.306 28.9011C168.704 30.1404 166.762 32.4424 165.98 35.2169C165.198 37.9913 165.652 40.9683 167.224 43.3842L175.605 37.9297ZM190.387 19.4531L200.331 20.5094C200.63 17.6892 199.718 14.8745 197.822 12.7659C195.925 10.6573 193.223 9.45312 190.387 9.45312V19.4531ZM177.883 19.4531H167.883C167.883 24.976 172.36 29.4531 177.883 29.4531V19.4531ZM177.883 14.082V4.08203C172.36 4.08203 167.883 8.55918 167.883 14.082H177.883ZM209.422 10H199.422V49.7461H209.422H219.422V10H209.422ZM209.422 49.7461V39.7461H202.418V49.7461V59.7461H209.422V49.7461ZM202.418 49.7461H212.418V10H202.418H192.418V49.7461H202.418ZM202.418 10V20L209.422 20V10V0H202.418V10ZM197.391 14.082H187.391C187.391 19.4566 186.612 23.132 185.046 25.9487C183.564 28.6154 180.81 31.5252 174.902 34.2812L179.129 43.3437L183.356 52.4063C192.186 48.2873 198.563 42.7967 202.527 35.6665C206.407 28.6864 207.391 21.1684 207.391 14.082L197.391 14.082ZM179.129 43.3437L187.51 37.8892L183.987 32.4751L175.605 37.9297L167.224 43.3842L170.748 48.7983L179.129 43.3437ZM175.605 37.9297L179.905 46.9583C185.684 44.2061 190.632 40.8257 194.259 36.197C197.997 31.4275 199.737 26.0982 200.331 20.5094L190.387 19.4531L180.443 18.3969C180.155 21.101 179.468 22.6468 178.517 23.8606C177.455 25.2154 175.452 26.9267 171.306 28.9011L175.605 37.9297ZM190.387 19.4531V9.45312H177.883V19.4531V29.4531H190.387V19.4531ZM177.883 19.4531H187.883V14.082H177.883H167.883V19.4531H177.883ZM177.883 14.082V24.082H197.391V14.082V4.08203L177.883 4.08203V14.082ZM249.984 32.5156H259.984C259.984 26.9928 255.507 22.5156 249.984 22.5156V32.5156ZM249.984 37.8437V47.8437C255.507 47.8437 259.984 43.3666 259.984 37.8437H249.984ZM235.117 37.8437V27.8437C229.594 27.8437 225.117 32.3209 225.117 37.8437H235.117ZM235.117 49.7461V59.7461C240.64 59.7461 245.117 55.2689 245.117 49.7461H235.117ZM228.285 49.7461H218.285C218.285 55.2689 222.762 59.7461 228.285 59.7461V49.7461ZM228.285 37.8437H238.285C238.285 32.3209 233.808 27.8437 228.285 27.8437V37.8437ZM213.719 37.8437H203.719C203.719 43.3666 208.196 47.8437 213.719 47.8437V37.8437ZM213.719 32.5156V22.5156C208.196 22.5156 203.719 26.9928 203.719 32.5156H213.719ZM224.461 11.5039H234.461C234.461 5.98106 229.984 1.50391 224.461 1.50391V11.5039ZM224.461 15.5H214.461C214.461 21.0228 218.938 25.5 224.461 25.5V15.5ZM239.027 15.5V25.5C244.55 25.5 249.027 21.0228 249.027 15.5H239.027ZM239.027 11.5039V1.50391C233.505 1.50391 229.027 5.98106 229.027 11.5039L239.027 11.5039ZM245.945 11.5039H255.945C255.945 5.98106 251.468 1.50391 245.945 1.50391V11.5039ZM245.945 29.3359V39.3359C251.468 39.3359 255.945 34.8588 255.945 29.3359H245.945ZM217.672 29.3359H207.672C207.672 34.8588 212.149 39.3359 217.672 39.3359V29.3359ZM217.672 11.5039V1.50391C212.149 1.50391 207.672 5.98106 207.672 11.5039H217.672ZM224.461 23.8359H214.461C214.461 29.3588 218.938 33.8359 224.461 33.8359V23.8359ZM239.027 23.8359V33.8359C244.55 33.8359 249.027 29.3588 249.027 23.8359H239.027ZM239.027 20.8281H249.027C249.027 15.3053 244.55 10.8281 239.027 10.8281V20.8281ZM224.461 20.8281V10.8281C218.938 10.8281 214.461 15.3053 214.461 20.8281H224.461ZM249.984 32.5156H239.984V37.8437H249.984H259.984V32.5156H249.984ZM249.984 37.8437V27.8437H235.117V37.8437V47.8437H249.984V37.8437ZM235.117 37.8437H225.117V49.7461H235.117H245.117V37.8437H235.117ZM235.117 49.7461V39.7461H228.285V49.7461V59.7461H235.117V49.7461ZM228.285 49.7461H238.285V37.8437H228.285H218.285V49.7461H228.285ZM228.285 37.8437V27.8437H213.719V37.8437V47.8437H228.285V37.8437ZM213.719 37.8437H223.719V32.5156H213.719H203.719V37.8437H213.719ZM213.719 32.5156V42.5156H249.984V32.5156V22.5156H213.719V32.5156ZM224.461 11.5039H214.461V15.5H224.461H234.461V11.5039H224.461ZM224.461 15.5V25.5H239.027V15.5V5.5L224.461 5.5V15.5ZM239.027 15.5H249.027V11.5039H239.027L229.027 11.5039V15.5H239.027ZM239.027 11.5039V21.5039H245.945V11.5039V1.50391H239.027V11.5039ZM245.945 11.5039L235.945 11.5039V29.3359H245.945H255.945V11.5039H245.945ZM245.945 29.3359V19.3359H217.672V29.3359V39.3359H245.945V29.3359ZM217.672 29.3359H227.672V11.5039H217.672H207.672V29.3359H217.672ZM217.672 11.5039V21.5039H224.461V11.5039V1.50391L217.672 1.50391V11.5039ZM224.461 23.8359V33.8359H239.027V23.8359V13.8359H224.461V23.8359ZM239.027 23.8359H249.027V20.8281H239.027H229.027V23.8359H239.027ZM239.027 20.8281V10.8281L224.461 10.8281V20.8281V30.8281H239.027V20.8281ZM224.461 20.8281H214.461V23.8359H224.461H234.461V20.8281H224.461ZM262.875 12.6641L262.805 22.6638C262.849 22.6641 262.893 22.6641 262.936 22.6639L262.875 12.6641ZM271.211 17.7344L262.571 22.7695C264.363 25.8437 267.653 27.7344 271.211 27.7344V17.7344ZM278.816 17.7344V27.7344C284.339 27.7344 288.816 23.2572 288.816 17.7344H278.816ZM278.816 10V0C273.294 0 268.816 4.47715 268.816 10H278.816ZM285.648 10H295.648C295.648 4.47715 291.171 0 285.648 0V10ZM285.648 49.875V59.875C291.171 59.875 295.648 55.3978 295.648 49.875H285.648ZM278.816 49.875H268.816C268.816 55.3978 273.294 59.875 278.816 59.875V49.875ZM278.816 35.3516H288.816C288.816 29.8287 284.339 25.3516 278.816 25.3516V35.3516ZM271.727 35.3516V25.3516C267.898 25.3516 264.406 27.5371 262.733 30.9802L271.727 35.3516ZM262.875 18.8945L262.693 28.8929C262.813 28.8951 262.933 28.8951 263.054 28.8929L262.875 18.8945ZM258.922 26.9727L268.922 27.0496C268.922 26.9979 268.922 26.9462 268.922 26.8945L258.922 26.9727ZM273.102 23.2344V13.2344C270.162 13.2344 267.371 14.5277 265.471 16.7706C263.571 19.0135 262.754 21.9788 263.238 24.8784L273.102 23.2344ZM273.23 29.8945L263.297 28.7395C262.968 31.5737 263.865 34.4138 265.762 36.5447C267.66 38.6757 270.377 39.8945 273.23 39.8945V29.8945ZM278.816 29.8945V39.8945C284.339 39.8945 288.816 35.4174 288.816 29.8945H278.816ZM278.816 23.2344H288.816C288.816 17.7115 284.339 13.2344 278.816 13.2344V23.2344ZM262.875 12.6641L262.936 22.6639C262.917 22.664 262.838 22.6609 262.721 22.6286C262.604 22.5962 262.499 22.5482 262.419 22.499C262.341 22.4512 262.32 22.4231 262.347 22.4513C262.375 22.4812 262.459 22.5764 262.571 22.7695L271.211 17.7344L279.851 12.6992C276.41 6.7949 270.37 2.61789 262.814 2.66425L262.875 12.6641ZM271.211 17.7344V27.7344H278.816V17.7344V7.73437H271.211V17.7344ZM278.816 17.7344H288.816V10H278.816H268.816V17.7344H278.816ZM278.816 10V20H285.648V10V0H278.816V10ZM285.648 10H275.648V49.875H285.648H295.648V10H285.648ZM285.648 49.875V39.875H278.816V49.875V59.875H285.648V49.875ZM278.816 49.875H288.816V35.3516H278.816H268.816V49.875H278.816ZM278.816 35.3516V25.3516H271.727V35.3516V45.3516H278.816V35.3516ZM271.727 35.3516L262.733 30.9802C262.433 31.5959 262.231 31.6774 262.362 31.5873C262.424 31.5446 262.523 31.4912 262.648 31.4527C262.772 31.4142 262.857 31.4102 262.875 31.4102V41.4102V51.4102C271.194 51.4102 277.49 46.3686 280.721 39.7229L271.727 35.3516ZM262.875 41.4102V31.4102C262.862 31.4102 262.9 31.4092 262.974 31.4269C263.049 31.4447 263.131 31.4744 263.209 31.5147C263.383 31.6038 263.39 31.666 263.284 31.5241C263.033 31.1902 262.305 29.8661 262.305 26.9727H252.305H242.305C242.305 32.9737 243.789 38.8684 247.288 43.5296C250.942 48.398 256.479 51.4102 262.875 51.4102V41.4102ZM252.305 26.9727H262.305C262.305 24.1696 263.02 22.867 263.271 22.5344C263.378 22.3929 263.368 22.4583 263.187 22.5508C263.105 22.593 263.016 22.625 262.933 22.6445C262.85 22.6639 262.803 22.6638 262.805 22.6638L262.875 12.6641L262.945 2.66431C256.501 2.61925 250.95 5.65315 247.3 10.4958C243.802 15.1369 242.305 21.0101 242.305 26.9727H252.305ZM262.875 18.8945L263.057 8.89618C257.251 8.79063 253.161 12.3395 251.132 16.2269C249.349 19.6402 248.895 23.5516 248.922 27.0508L258.922 26.9727L268.922 26.8945C268.906 24.8937 269.246 24.7445 268.861 25.4831C268.62 25.9446 268.025 26.8637 266.83 27.6662C265.556 28.5223 264.078 28.9181 262.693 28.8929L262.875 18.8945ZM258.922 26.9727L248.922 26.8957C248.895 30.4145 249.343 34.3438 251.139 37.7707C253.214 41.7292 257.277 45.0937 262.875 45.0937V35.0937V25.0937C264.166 25.0937 265.578 25.4698 266.822 26.304C268 27.0937 268.6 28.0033 268.853 28.4852C269.094 28.9445 269.086 29.1323 269.031 28.8286C268.98 28.545 268.914 27.9752 268.922 27.0496L258.922 26.9727ZM262.875 35.0937V45.0937C268.491 45.0937 272.568 41.7289 274.64 37.7144C276.398 34.3088 276.828 30.4093 276.828 26.9727H266.828H256.828C256.828 27.9311 256.76 28.5297 256.704 28.8411C256.645 29.175 256.632 28.9983 256.868 28.5415C257.117 28.0586 257.723 27.1219 258.929 26.3112C260.205 25.4534 261.626 25.0937 262.875 25.0937V35.0937ZM266.828 26.9727H276.828C276.828 23.557 276.392 19.6757 274.648 16.2831C272.62 12.3383 268.518 8.79217 262.696 8.89612L262.875 18.8945L263.054 28.8929C261.714 28.9169 260.228 28.5393 258.921 27.659C257.698 26.8354 257.098 25.8892 256.86 25.4268C256.632 24.9829 256.646 24.817 256.706 25.149C256.761 25.4574 256.828 26.044 256.828 26.9727H266.828ZM273.102 23.2344L263.238 24.8784C263.338 25.4794 263.402 26.1966 263.402 26.9727H273.402H283.402C283.402 25.1276 283.252 23.3097 282.966 21.5904L273.102 23.2344ZM273.402 26.9727H263.402C263.402 27.564 263.364 28.1654 263.297 28.7395L273.23 29.8945L283.164 31.0495C283.312 29.776 283.402 28.4009 283.402 26.9727H273.402ZM273.23 29.8945V39.8945H278.816V29.8945V19.8945H273.23V29.8945ZM278.816 29.8945H288.816V23.2344H278.816H268.816V29.8945H278.816ZM278.816 23.2344V13.2344H273.102V23.2344V33.2344H278.816V23.2344ZM321.484 10H331.484C331.484 4.47715 327.007 0 321.484 0V10ZM321.484 24.6523H311.484C311.484 30.1752 315.962 34.6523 321.484 34.6523V24.6523ZM326.555 24.6523L336.555 24.6523C336.555 19.1295 332.078 14.6523 326.555 14.6523V24.6523ZM326.555 30.2812V40.2812C332.078 40.2812 336.555 35.8041 336.555 30.2812H326.555ZM321.484 30.2812V20.2812C315.962 20.2812 311.484 24.7584 311.484 30.2812H321.484ZM321.484 49.6602V59.6602C327.007 59.6602 331.484 55.183 331.484 49.6602H321.484ZM314.566 49.6602H304.566C304.566 55.183 309.044 59.6602 314.566 59.6602V49.6602ZM314.566 10V0C309.044 0 304.566 4.47715 304.566 10H314.566ZM310.656 13.9531L320.656 13.9881C320.665 11.3299 319.616 8.77736 317.74 6.89443C315.863 5.0115 313.314 3.95312 310.656 3.95312V13.9531ZM292.824 43.2148L284.808 49.1938C287.687 53.0526 292.906 54.313 297.228 52.193L292.824 43.2148ZM288.914 37.9727L284.407 29.0458C281.77 30.377 279.857 32.8059 279.18 35.6812C278.503 38.5565 279.132 41.5839 280.898 43.9516L288.914 37.9727ZM303.652 19.5391L313.551 20.9568C313.962 18.0866 313.107 15.1792 311.208 12.9884C309.309 10.7976 306.552 9.53906 303.652 9.53906V19.5391ZM291.406 19.5391H281.406C281.406 25.0619 285.883 29.5391 291.406 29.5391V19.5391ZM291.406 13.9531V3.95312C285.883 3.95312 281.406 8.43028 281.406 13.9531H291.406ZM321.484 10H311.484V24.6523H321.484H331.484V10H321.484ZM321.484 24.6523V34.6523H326.555V24.6523V14.6523H321.484V24.6523ZM326.555 24.6523H316.555V30.2812H326.555H336.555V24.6523L326.555 24.6523ZM326.555 30.2812V20.2812H321.484V30.2812V40.2812H326.555V30.2812ZM321.484 30.2812H311.484V49.6602H321.484H331.484V30.2812H321.484ZM321.484 49.6602V39.6602H314.566V49.6602V59.6602H321.484V49.6602ZM314.566 49.6602H324.566V10H314.566H304.566V49.6602H314.566ZM314.566 10V20H321.484V10V0H314.566V10ZM310.656 13.9531L300.656 13.9182C300.639 18.9688 299.763 22.8059 298.08 25.8287C296.457 28.7423 293.659 31.6673 288.42 34.2367L292.824 43.2148L297.228 52.193C305.568 48.1022 311.664 42.5409 315.552 35.5609C319.379 28.6902 320.631 21.2265 320.656 13.9881L310.656 13.9531ZM292.824 43.2148L300.84 37.2359L296.93 31.9937L288.914 37.9727L280.898 43.9516L284.808 49.1938L292.824 43.2148ZM288.914 37.9727L293.421 46.8995C298.666 44.2517 303.34 40.951 306.925 36.5212C310.596 31.9849 312.719 26.7651 313.551 20.9568L303.652 19.5391L293.753 18.1213C293.382 20.7134 292.562 22.4761 291.378 23.9392C290.108 25.5089 288.014 27.2248 284.407 29.0458L288.914 37.9727ZM303.652 19.5391V9.53906L291.406 9.53906V19.5391V29.5391H303.652V19.5391ZM291.406 19.5391H301.406V13.9531H291.406H281.406V19.5391H291.406ZM291.406 13.9531V23.9531H310.656V13.9531V3.95312H291.406V13.9531ZM360.973 25.5117H370.973C370.973 19.9889 366.496 15.5117 360.973 15.5117V25.5117ZM360.973 31.0117V41.0117C366.496 41.0117 370.973 36.5346 370.973 31.0117H360.973ZM353.926 31.0117V21.0117C348.403 21.0117 343.926 25.4889 343.926 31.0117H353.926ZM353.926 36.6836H343.926C343.926 39.3875 345.021 41.9762 346.961 43.8594C348.901 45.7426 351.521 46.7598 354.224 46.6791L353.926 36.6836ZM362.391 36.125L372.338 35.096C371.77 29.6067 366.862 25.615 361.372 26.177L362.391 36.125ZM362.906 41.1094L364.438 50.9914C369.701 50.1756 373.401 45.378 372.853 40.0804L362.906 41.1094ZM338.285 42.4844L328.38 43.8559C329.067 48.8235 333.328 52.5134 338.343 52.4842L338.285 42.4844ZM337.512 36.8984L337.657 26.8995C334.74 26.8572 331.951 28.0903 330.019 30.2757C328.087 32.4611 327.206 35.3808 327.606 38.27L337.512 36.8984ZM347.008 36.8984L347.138 46.8976C352.609 46.8265 357.008 42.3706 357.008 36.8984H347.008ZM347.008 31.0117H357.008C357.008 25.4889 352.531 21.0117 347.008 21.0117V31.0117ZM339.875 31.0117H329.875C329.875 36.5346 334.352 41.0117 339.875 41.0117V31.0117ZM339.875 13.3945V3.39453C334.352 3.39453 329.875 7.87168 329.875 13.3945L339.875 13.3945ZM360.801 13.3945H370.801C370.801 7.87168 366.324 3.39453 360.801 3.39453V13.3945ZM360.801 18.8086V28.8086C366.324 28.8086 370.801 24.3314 370.801 18.8086H360.801ZM346.75 18.8086V8.80859C341.227 8.80859 336.75 13.2857 336.75 18.8086H346.75ZM346.75 25.5117H336.75C336.75 31.0346 341.227 35.5117 346.75 35.5117V25.5117ZM371.242 10H381.242C381.242 4.47715 376.765 0 371.242 0V10ZM371.242 49.875V59.875C376.765 59.875 381.242 55.3978 381.242 49.875H371.242ZM364.41 49.875H354.41C354.41 55.3978 358.887 59.875 364.41 59.875V49.875ZM364.41 10V0C358.887 0 354.41 4.47715 354.41 10H364.41ZM360.973 25.5117H350.973V31.0117H360.973H370.973V25.5117H360.973ZM360.973 31.0117V21.0117H353.926V31.0117V41.0117H360.973V31.0117ZM353.926 31.0117H343.926V36.6836H353.926H363.926V31.0117H353.926ZM353.926 36.6836L354.224 46.6791C357.349 46.5859 360.446 46.3763 363.409 46.073L362.391 36.125L361.372 26.177C358.878 26.4323 356.261 26.6094 353.627 26.688L353.926 36.6836ZM362.391 36.125L352.444 37.154L352.959 42.1384L362.906 41.1094L372.853 40.0804L372.338 35.096L362.391 36.125ZM362.906 41.1094L361.375 31.2274C353.645 32.4255 345.772 32.4407 338.227 32.4845L338.285 42.4844L338.343 52.4842C345.58 52.4421 354.98 52.4573 364.438 50.9914L362.906 41.1094ZM338.285 42.4844L348.191 41.1128L347.417 35.5269L337.512 36.8984L327.606 38.27L328.38 43.8559L338.285 42.4844ZM337.512 36.8984L337.367 46.8974C340.433 46.9418 343.748 46.9416 347.138 46.8976L347.008 36.8984L346.878 26.8993C343.651 26.9412 340.52 26.941 337.657 26.8995L337.512 36.8984ZM347.008 36.8984H357.008V31.0117H347.008H337.008V36.8984H347.008ZM347.008 31.0117V21.0117H339.875V31.0117V41.0117H347.008V31.0117ZM339.875 31.0117H349.875V13.3945H339.875L329.875 13.3945V31.0117H339.875ZM339.875 13.3945V23.3945H360.801V13.3945V3.39453L339.875 3.39453V13.3945ZM360.801 13.3945H350.801V18.8086H360.801H370.801V13.3945H360.801ZM360.801 18.8086V8.80859H346.75V18.8086V28.8086H360.801V18.8086ZM346.75 18.8086H336.75V25.5117H346.75H356.75V18.8086H346.75ZM346.75 25.5117V35.5117H360.973V25.5117V15.5117H346.75V25.5117ZM371.242 10L361.242 10V49.875H371.242H381.242V10H371.242ZM371.242 49.875V39.875H364.41V49.875V59.875H371.242V49.875ZM364.41 49.875H374.41V10L364.41 10H354.41V49.875H364.41ZM364.41 10V20H371.242V10V0H364.41V10ZM407.766 20.0977H417.766C417.766 14.5748 413.288 10.0977 407.766 10.0977V20.0977ZM407.766 25.4258V35.4258C413.288 35.4258 417.766 30.9486 417.766 25.4258H407.766ZM379.664 25.4258H369.664C369.664 30.9486 374.141 35.4258 379.664 35.4258V25.4258ZM379.664 11.418V1.41797C374.141 1.41797 369.664 5.89512 369.664 11.418H379.664ZM386.539 11.418H396.539C396.539 5.89512 392.062 1.41797 386.539 1.41797V11.418ZM386.539 20.0977H376.539C376.539 25.6205 381.016 30.0977 386.539 30.0977V20.0977ZM411.676 28.9492H421.676C421.676 23.4264 417.199 18.9492 411.676 18.9492V28.9492ZM411.676 34.2773V44.2773C417.199 44.2773 421.676 39.8002 421.676 34.2773H411.676ZM375.41 34.2773H365.41C365.41 39.8002 369.887 44.2773 375.41 44.2773V34.2773ZM375.41 28.9492V18.9492C369.887 18.9492 365.41 23.4264 365.41 28.9492H375.41ZM408.023 43.4727H418.023C418.023 37.9498 413.546 33.4727 408.023 33.4727V43.4727ZM408.023 48.9727V58.9727C413.546 58.9727 418.023 54.4955 418.023 48.9727H408.023ZM379.191 48.9727H369.191C369.191 54.4955 373.669 58.9727 379.191 58.9727V48.9727ZM379.191 37.0273V27.0273C373.669 27.0273 369.191 31.5045 369.191 37.0273H379.191ZM386.152 37.0273H396.152C396.152 31.5045 391.675 27.0273 386.152 27.0273V37.0273ZM386.152 43.4727H376.152C376.152 48.9955 380.629 53.4727 386.152 53.4727V43.4727ZM407.766 20.0977H397.766V25.4258H407.766H417.766V20.0977H407.766ZM407.766 25.4258V15.4258H379.664V25.4258V35.4258L407.766 35.4258V25.4258ZM379.664 25.4258H389.664V11.418H379.664H369.664V25.4258H379.664ZM379.664 11.418V21.418H386.539V11.418V1.41797L379.664 1.41797V11.418ZM386.539 11.418H376.539V20.0977H386.539H396.539V11.418H386.539ZM386.539 20.0977V30.0977L407.766 30.0977V20.0977V10.0977H386.539V20.0977ZM411.676 28.9492H401.676V34.2773H411.676H421.676V28.9492H411.676ZM411.676 34.2773V24.2773H375.41V34.2773V44.2773L411.676 44.2773V34.2773ZM375.41 34.2773H385.41V28.9492H375.41H365.41V34.2773H375.41ZM375.41 28.9492V38.9492L411.676 38.9492V28.9492V18.9492H375.41V28.9492ZM408.023 43.4727H398.023V48.9727H408.023H418.023V43.4727H408.023ZM408.023 48.9727V38.9727L379.191 38.9727V48.9727V58.9727L408.023 58.9727V48.9727ZM379.191 48.9727H389.191V37.0273H379.191H369.191V48.9727H379.191ZM379.191 37.0273V47.0273H386.152V37.0273V27.0273H379.191V37.0273ZM386.152 37.0273H376.152V43.4727H386.152H396.152V37.0273H386.152ZM386.152 43.4727V53.4727L408.023 53.4727V43.4727V33.4727L386.152 33.4727V43.4727Z" fill="white" mask="url(#path-1-outside-1_6524_1786)"/>
</g>
<defs>
<filter id="filter0_d_6524_1786" x="0" y="0" width="425.676" height="67.875" filterUnits="userSpaceOnUse" color-interpolation-filters="sRGB">
<feFlood flood-opacity="0" result="BackgroundImageFix"/>
<feColorMatrix in="SourceAlpha" type="matrix" values="0 0 0 0 0 0 0 0 0 0 0 0 0 0 0 0 0 0 127 0" result="hardAlpha"/>
<feOffset dy="4"/>
<feGaussianBlur stdDeviation="2"/>
<feComposite in2="hardAlpha" operator="out"/>
<feColorMatrix type="matrix" values="0 0 0 0 0 0 0 0 0 0 0 0 0 0 0 0 0 0 0.07 0"/>
<feBlend mode="normal" in2="BackgroundImageFix" result="effect1_dropShadow_6524_1786"/>
<feBlend mode="normal" in="SourceGraphic" in2="effect1_dropShadow_6524_1786" result="shape"/>
</filter>
</defs>
</svg>
