<svg width="227" height="68" viewBox="0 0 227 68" fill="none" xmlns="http://www.w3.org/2000/svg">
<g filter="url(#filter0_d_6524_1916)">
<mask id="path-1-outside-1_6524_1916" maskUnits="userSpaceOnUse" x="3.61328" y="-0.507813" width="219" height="61" fill="black">
<rect fill="white" x="3.61328" y="-0.507813" width="219" height="61"/>
<path d="M48.0312 10.0859V38.9609H41.1133V10.0859L48.0312 10.0859ZM48.9766 43.6875V49.1875H20.832V36.082H27.793V43.6875H48.9766ZM30.457 15.9727C30.4141 20.7422 32.3906 25.6836 39.3086 27.7461L35.8281 33.1172C31.4883 31.8066 28.6094 29.207 26.8906 25.8555C25.1074 29.4648 22.1211 32.3652 17.5234 33.8047L14 28.3477C21.1328 26.1562 23.2383 20.8281 23.2812 15.9727V12.2344H30.457V15.9727ZM75.9609 13.3086V25.9844H62.125V28.3906H76.7344V33.6758H69.2148V37.5C72.0508 37.3711 74.8652 37.1992 77.5508 36.9414L78.0664 41.9258C69.4727 43.3867 60.8359 43.3438 53.4453 43.2148L52.6719 37.6719C55.7012 37.7148 58.9668 37.7148 62.3398 37.6719V33.6758H55.207V21.043H69.1289V18.6797H55.25V13.3086H75.9609ZM86.4023 10V49.875H79.5703V10H86.4023ZM126.836 27.4023V32.4297H90.5703V27.4023H126.836ZM122.625 33.6328V43.6445H101.398V44.9336H123.699V49.4883H94.5664V39.3906H115.793V38.2734H94.5664V33.6328H122.625ZM122.625 10.4727V20.4844H101.785V21.7734H123.312V26.2852H94.9531V16.2305H115.75V15.0273H94.9102V10.4727L122.625 10.4727ZM174.445 31.4844V36.9414H159.578V49.7891H152.746V36.9414L138.18 36.9414V31.4844L174.445 31.4844ZM171.309 11.8906V17.1758H160.566C161.275 20.2266 164.498 23.5566 172.984 24.4805L170.492 29.8516C163.252 29.0137 158.676 26.3066 156.312 22.6328C153.971 26.3066 149.438 29.0137 142.219 29.8516L139.727 24.4805C148.105 23.5566 151.328 20.2266 152.145 17.1758H141.359V11.8906H171.309ZM208.562 20.0977V25.4258L180.461 25.4258V11.418H187.336V20.0977L208.562 20.0977ZM212.473 28.9492V34.2773H176.207V28.9492H212.473ZM208.82 43.4727V48.9727H179.988V37.0273H186.949V43.4727H208.82Z"/>
</mask>
<path d="M48.0312 10.0859V38.9609H41.1133V10.0859L48.0312 10.0859ZM48.9766 43.6875V49.1875H20.832V36.082H27.793V43.6875H48.9766ZM30.457 15.9727C30.4141 20.7422 32.3906 25.6836 39.3086 27.7461L35.8281 33.1172C31.4883 31.8066 28.6094 29.207 26.8906 25.8555C25.1074 29.4648 22.1211 32.3652 17.5234 33.8047L14 28.3477C21.1328 26.1562 23.2383 20.8281 23.2812 15.9727V12.2344H30.457V15.9727ZM75.9609 13.3086V25.9844H62.125V28.3906H76.7344V33.6758H69.2148V37.5C72.0508 37.3711 74.8652 37.1992 77.5508 36.9414L78.0664 41.9258C69.4727 43.3867 60.8359 43.3438 53.4453 43.2148L52.6719 37.6719C55.7012 37.7148 58.9668 37.7148 62.3398 37.6719V33.6758H55.207V21.043H69.1289V18.6797H55.25V13.3086H75.9609ZM86.4023 10V49.875H79.5703V10H86.4023ZM126.836 27.4023V32.4297H90.5703V27.4023H126.836ZM122.625 33.6328V43.6445H101.398V44.9336H123.699V49.4883H94.5664V39.3906H115.793V38.2734H94.5664V33.6328H122.625ZM122.625 10.4727V20.4844H101.785V21.7734H123.312V26.2852H94.9531V16.2305H115.75V15.0273H94.9102V10.4727L122.625 10.4727ZM174.445 31.4844V36.9414H159.578V49.7891H152.746V36.9414L138.18 36.9414V31.4844L174.445 31.4844ZM171.309 11.8906V17.1758H160.566C161.275 20.2266 164.498 23.5566 172.984 24.4805L170.492 29.8516C163.252 29.0137 158.676 26.3066 156.312 22.6328C153.971 26.3066 149.438 29.0137 142.219 29.8516L139.727 24.4805C148.105 23.5566 151.328 20.2266 152.145 17.1758H141.359V11.8906H171.309ZM208.562 20.0977V25.4258L180.461 25.4258V11.418H187.336V20.0977L208.562 20.0977ZM212.473 28.9492V34.2773H176.207V28.9492H212.473ZM208.82 43.4727V48.9727H179.988V37.0273H186.949V43.4727H208.82Z" fill="#11DCA9"/>
<path d="M48.0312 10.0859H58.0312C58.0312 4.56309 53.5541 0.0859375 48.0312 0.0859375V10.0859ZM48.0312 38.9609V48.9609C53.5541 48.9609 58.0312 44.4838 58.0312 38.9609H48.0312ZM41.1133 38.9609H31.1133C31.1133 44.4838 35.5904 48.9609 41.1133 48.9609V38.9609ZM41.1133 10.0859V0.0859375C35.5904 0.0859375 31.1133 4.56309 31.1133 10.0859H41.1133ZM48.9766 43.6875H58.9766C58.9766 38.1647 54.4994 33.6875 48.9766 33.6875V43.6875ZM48.9766 49.1875V59.1875C54.4994 59.1875 58.9766 54.7103 58.9766 49.1875H48.9766ZM20.832 49.1875H10.832C10.832 54.7103 15.3092 59.1875 20.832 59.1875V49.1875ZM20.832 36.082V26.082C15.3092 26.082 10.832 30.5592 10.832 36.082H20.832ZM27.793 36.082H37.793C37.793 30.5592 33.3158 26.082 27.793 26.082V36.082ZM27.793 43.6875H17.793C17.793 49.2103 22.2701 53.6875 27.793 53.6875V43.6875ZM30.457 15.9727L40.4566 16.0627C40.4569 16.0327 40.457 16.0027 40.457 15.9727H30.457ZM39.3086 27.7461L47.7007 33.1842C49.4137 30.5406 49.781 27.2444 48.6918 24.2886C47.6027 21.3328 45.1845 19.0629 42.1657 18.1629L39.3086 27.7461ZM35.8281 33.1172L32.9373 42.6902C37.1994 43.9773 41.7991 42.2916 44.2202 38.5553L35.8281 33.1172ZM26.8906 25.8555L35.7888 21.2923C34.0649 17.9306 30.5936 15.8275 26.8157 15.8557C23.0379 15.884 19.5985 18.039 17.9251 21.4261L26.8906 25.8555ZM17.5234 33.8047L9.12242 39.229C11.5611 43.006 16.2207 44.6912 20.5113 43.3479L17.5234 33.8047ZM14 28.3477L11.0632 18.7886C8.06878 19.7086 5.67849 21.9786 4.60524 24.9215C3.53199 27.8645 3.8998 31.1403 5.59898 33.7719L14 28.3477ZM23.2812 15.9727L33.2809 16.0611C33.2811 16.0317 33.2812 16.0022 33.2812 15.9727H23.2812ZM23.2812 12.2344V2.23438C17.7584 2.23438 13.2812 6.71153 13.2812 12.2344H23.2812ZM30.457 12.2344H40.457C40.457 6.71153 35.9799 2.23437 30.457 2.23437V12.2344ZM48.0312 10.0859L38.0312 10.0859V38.9609H48.0312H58.0312V10.0859H48.0312ZM48.0312 38.9609V28.9609H41.1133V38.9609V48.9609H48.0312V38.9609ZM41.1133 38.9609H51.1133V10.0859L41.1133 10.0859H31.1133V38.9609H41.1133ZM41.1133 10.0859V20.0859H48.0312V10.0859V0.0859375H41.1133V10.0859ZM48.9766 43.6875H38.9766V49.1875H48.9766H58.9766V43.6875H48.9766ZM48.9766 49.1875V39.1875H20.832V49.1875V59.1875H48.9766V49.1875ZM20.832 49.1875H30.832V36.082H20.832H10.832L10.832 49.1875H20.832ZM20.832 36.082V46.082H27.793V36.082V26.082H20.832V36.082ZM27.793 36.082H17.793V43.6875H27.793H37.793V36.082H27.793ZM27.793 43.6875V53.6875H48.9766V43.6875V33.6875H27.793V43.6875ZM30.457 15.9727L20.4574 15.8826C20.4238 19.6126 21.1692 24.1275 23.8797 28.3115C26.6914 32.6519 31.0214 35.7103 36.4515 37.3293L39.3086 27.7461L42.1657 18.1629C41.3641 17.9239 40.9702 17.6819 40.8183 17.5733C40.7392 17.5167 40.701 17.4789 40.6876 17.4648C40.6742 17.4508 40.6689 17.4431 40.6653 17.4375C40.6621 17.4327 40.6115 17.3561 40.5587 17.1419C40.5028 16.9151 40.4521 16.5609 40.4566 16.0627L30.457 15.9727ZM39.3086 27.7461L30.9165 22.308L27.436 27.6791L35.8281 33.1172L44.2202 38.5553L47.7007 33.1842L39.3086 27.7461ZM35.8281 33.1172L38.719 23.5442C36.9835 23.0201 36.2707 22.232 35.7888 21.2923L26.8906 25.8555L17.9925 30.4186C20.9481 36.1821 25.993 40.5932 32.9373 42.6902L35.8281 33.1172ZM26.8906 25.8555L17.9251 21.4261C17.2674 22.7574 16.3485 23.6939 14.5356 24.2615L17.5234 33.8047L20.5113 43.3479C27.8937 41.0366 32.9475 36.1723 35.8561 30.2849L26.8906 25.8555ZM17.5234 33.8047L25.9245 28.3804L22.401 22.9234L14 28.3477L5.59898 33.7719L9.12242 39.229L17.5234 33.8047ZM14 28.3477L16.9368 37.9067C22.5609 36.1788 26.9005 32.9365 29.7098 28.5688C32.4142 24.3642 33.2475 19.8317 33.2809 16.0611L23.2812 15.9727L13.2816 15.8842C13.272 16.9691 13.0311 17.5283 12.8889 17.7495C12.8256 17.8479 12.7291 17.969 12.5278 18.1171C12.3184 18.271 11.8812 18.5373 11.0632 18.7886L14 28.3477ZM23.2812 15.9727H33.2812V12.2344H23.2812H13.2812V15.9727H23.2812ZM23.2812 12.2344V22.2344H30.457V12.2344V2.23437L23.2812 2.23438V12.2344ZM30.457 12.2344H20.457V15.9727H30.457H40.457V12.2344H30.457ZM75.9609 13.3086L85.9609 13.3086C85.9609 7.78575 81.4838 3.30859 75.9609 3.30859V13.3086ZM75.9609 25.9844V35.9844C81.4838 35.9844 85.9609 31.5072 85.9609 25.9844L75.9609 25.9844ZM62.125 25.9844V15.9844C56.6022 15.9844 52.125 20.4615 52.125 25.9844H62.125ZM62.125 28.3906H52.125C52.125 33.9135 56.6022 38.3906 62.125 38.3906V28.3906ZM76.7344 28.3906L86.7344 28.3906C86.7344 22.8678 82.2572 18.3906 76.7344 18.3906V28.3906ZM76.7344 33.6758V43.6758C82.2572 43.6758 86.7344 39.1986 86.7344 33.6758H76.7344ZM69.2148 33.6758V23.6758C63.692 23.6758 59.2148 28.1529 59.2148 33.6758H69.2148ZM69.2148 37.5H59.2148C59.2148 40.231 60.3317 42.8431 62.3062 44.7298C64.2806 46.6166 66.9408 47.6137 69.6689 47.4897L69.2148 37.5ZM77.5508 36.9414L87.4977 35.9124C86.9324 30.4475 82.0641 26.4622 76.5952 26.9872L77.5508 36.9414ZM78.0664 41.9258L79.7424 51.7843C84.9373 50.9012 88.5555 46.1383 88.0133 40.8968L78.0664 41.9258ZM53.4453 43.2148L43.5413 44.5968C44.2216 49.4723 48.349 53.1275 53.2709 53.2133L53.4453 43.2148ZM52.6719 37.6719L52.8137 27.6729C49.896 27.6315 47.1058 28.8666 45.1748 31.0542C43.2437 33.2419 42.3646 36.1638 42.7678 39.0538L52.6719 37.6719ZM62.3398 37.6719L62.4672 47.6711C67.9399 47.6013 72.3398 43.145 72.3398 37.6719H62.3398ZM62.3398 33.6758H72.3398C72.3398 28.1529 67.8627 23.6758 62.3398 23.6758V33.6758ZM55.207 33.6758H45.207C45.207 39.1986 49.6842 43.6758 55.207 43.6758V33.6758ZM55.207 21.043V11.043C49.6842 11.043 45.207 15.5201 45.207 21.043H55.207ZM69.1289 21.043V31.043C74.6518 31.043 79.1289 26.5658 79.1289 21.043L69.1289 21.043ZM69.1289 18.6797L79.1289 18.6797C79.1289 13.1568 74.6518 8.67969 69.1289 8.67969V18.6797ZM55.25 18.6797H45.25C45.25 24.2025 49.7272 28.6797 55.25 28.6797V18.6797ZM55.25 13.3086V3.30859C49.7272 3.30859 45.25 7.78575 45.25 13.3086H55.25ZM86.4023 10H96.4023C96.4023 4.47715 91.9252 0 86.4023 0V10ZM86.4023 49.875V59.875C91.9252 59.875 96.4023 55.3978 96.4023 49.875H86.4023ZM79.5703 49.875H69.5703C69.5703 55.3978 74.0475 59.875 79.5703 59.875V49.875ZM79.5703 10V0C74.0475 0 69.5703 4.47715 69.5703 10H79.5703ZM75.9609 13.3086H65.9609V25.9844H75.9609L85.9609 25.9844V13.3086L75.9609 13.3086ZM75.9609 25.9844V15.9844H62.125V25.9844V35.9844H75.9609V25.9844ZM62.125 25.9844H52.125V28.3906H62.125H72.125V25.9844H62.125ZM62.125 28.3906V38.3906H76.7344V28.3906V18.3906H62.125V28.3906ZM76.7344 28.3906H66.7344V33.6758H76.7344H86.7344V28.3906L76.7344 28.3906ZM76.7344 33.6758V23.6758H69.2148V33.6758V43.6758H76.7344V33.6758ZM69.2148 33.6758H59.2148V37.5H69.2148H79.2148V33.6758H69.2148ZM69.2148 37.5L69.6689 47.4897C72.5967 47.3566 75.5926 47.1754 78.5064 46.8956L77.5508 36.9414L76.5952 26.9872C74.1378 27.2231 71.5049 27.3856 68.7608 27.5103L69.2148 37.5ZM77.5508 36.9414L67.6039 37.9704L68.1195 42.9548L78.0664 41.9258L88.0133 40.8968L87.4977 35.9124L77.5508 36.9414ZM78.0664 41.9258L76.3904 32.0672C68.8073 33.3564 61.0034 33.3451 53.6197 33.2164L53.4453 43.2148L53.2709 53.2133C60.6685 53.3424 70.138 53.4171 79.7424 51.7843L78.0664 41.9258ZM53.4453 43.2148L63.3494 41.8329L62.5759 36.2899L52.6719 37.6719L42.7678 39.0538L43.5413 44.5968L53.4453 43.2148ZM52.6719 37.6719L52.53 47.6709C55.6585 47.7152 59.0143 47.715 62.4672 47.6711L62.3398 37.6719L62.2125 27.6727C58.9193 27.7146 55.7439 27.7144 52.8137 27.6729L52.6719 37.6719ZM62.3398 37.6719H72.3398V33.6758H62.3398H52.3398V37.6719H62.3398ZM62.3398 33.6758V23.6758H55.207V33.6758V43.6758H62.3398V33.6758ZM55.207 33.6758H65.207V21.043H55.207H45.207V33.6758H55.207ZM55.207 21.043V31.043H69.1289V21.043V11.043H55.207V21.043ZM69.1289 21.043L79.1289 21.043V18.6797L69.1289 18.6797H59.1289V21.043H69.1289ZM69.1289 18.6797V8.67969H55.25V18.6797V28.6797H69.1289V18.6797ZM55.25 18.6797H65.25V13.3086H55.25H45.25V18.6797H55.25ZM55.25 13.3086V23.3086H75.9609V13.3086V3.30859L55.25 3.30859V13.3086ZM86.4023 10H76.4023V49.875H86.4023H96.4023V10H86.4023ZM86.4023 49.875V39.875H79.5703V49.875V59.875H86.4023V49.875ZM79.5703 49.875H89.5703V10H79.5703H69.5703V49.875H79.5703ZM79.5703 10V20H86.4023V10V0L79.5703 0V10ZM126.836 27.4023H136.836C136.836 21.8795 132.359 17.4023 126.836 17.4023V27.4023ZM126.836 32.4297V42.4297C132.359 42.4297 136.836 37.9525 136.836 32.4297H126.836ZM90.5703 32.4297H80.5703C80.5703 37.9525 85.0475 42.4297 90.5703 42.4297V32.4297ZM90.5703 27.4023V17.4023C85.0475 17.4023 80.5703 21.8795 80.5703 27.4023H90.5703ZM122.625 33.6328H132.625C132.625 28.11 128.148 23.6328 122.625 23.6328V33.6328ZM122.625 43.6445V53.6445C128.148 53.6445 132.625 49.1674 132.625 43.6445H122.625ZM101.398 43.6445V33.6445C95.8756 33.6445 91.3984 38.1217 91.3984 43.6445H101.398ZM101.398 44.9336H91.3984C91.3984 50.4564 95.8756 54.9336 101.398 54.9336V44.9336ZM123.699 44.9336H133.699C133.699 39.4107 129.222 34.9336 123.699 34.9336V44.9336ZM123.699 49.4883V59.4883C129.222 59.4883 133.699 55.0111 133.699 49.4883H123.699ZM94.5664 49.4883H84.5664C84.5664 55.0111 89.0436 59.4883 94.5664 59.4883V49.4883ZM94.5664 39.3906V29.3906C89.0436 29.3906 84.5664 33.8678 84.5664 39.3906H94.5664ZM115.793 39.3906V49.3906C121.316 49.3906 125.793 44.9135 125.793 39.3906H115.793ZM115.793 38.2734H125.793C125.793 32.7506 121.316 28.2734 115.793 28.2734V38.2734ZM94.5664 38.2734H84.5664C84.5664 43.7963 89.0436 48.2734 94.5664 48.2734V38.2734ZM94.5664 33.6328V23.6328C89.0436 23.6328 84.5664 28.11 84.5664 33.6328H94.5664ZM122.625 10.4727H132.625C132.625 4.94981 128.148 0.472656 122.625 0.472656V10.4727ZM122.625 20.4844V30.4844C128.148 30.4844 132.625 26.0072 132.625 20.4844H122.625ZM101.785 20.4844V10.4844C96.2623 10.4844 91.7852 14.9615 91.7852 20.4844H101.785ZM101.785 21.7734H91.7852C91.7852 27.2963 96.2623 31.7734 101.785 31.7734V21.7734ZM123.312 21.7734H133.312C133.312 16.2506 128.835 11.7734 123.312 11.7734V21.7734ZM123.312 26.2852V36.2852C128.835 36.2852 133.312 31.808 133.312 26.2852H123.312ZM94.9531 26.2852H84.9531C84.9531 31.808 89.4303 36.2852 94.9531 36.2852V26.2852ZM94.9531 16.2305V6.23047C89.4303 6.23047 84.9531 10.7076 84.9531 16.2305H94.9531ZM115.75 16.2305V26.2305C121.273 26.2305 125.75 21.7533 125.75 16.2305H115.75ZM115.75 15.0273H125.75C125.75 9.5045 121.273 5.02734 115.75 5.02734V15.0273ZM94.9102 15.0273H84.9102C84.9102 20.5502 89.3873 25.0273 94.9102 25.0273V15.0273ZM94.9102 10.4727V0.472656C89.3873 0.472656 84.9102 4.94981 84.9102 10.4727H94.9102ZM126.836 27.4023H116.836V32.4297H126.836H136.836V27.4023H126.836ZM126.836 32.4297V22.4297H90.5703V32.4297V42.4297H126.836V32.4297ZM90.5703 32.4297H100.57V27.4023H90.5703H80.5703V32.4297H90.5703ZM90.5703 27.4023V37.4023H126.836V27.4023V17.4023H90.5703V27.4023ZM122.625 33.6328H112.625V43.6445H122.625H132.625V33.6328H122.625ZM122.625 43.6445V33.6445H101.398V43.6445V53.6445H122.625V43.6445ZM101.398 43.6445H91.3984V44.9336H101.398H111.398V43.6445H101.398ZM101.398 44.9336V54.9336H123.699V44.9336V34.9336H101.398V44.9336ZM123.699 44.9336H113.699V49.4883H123.699H133.699V44.9336H123.699ZM123.699 49.4883V39.4883H94.5664V49.4883V59.4883H123.699V49.4883ZM94.5664 49.4883H104.566V39.3906H94.5664H84.5664V49.4883H94.5664ZM94.5664 39.3906V49.3906H115.793V39.3906V29.3906H94.5664V39.3906ZM115.793 39.3906H125.793V38.2734H115.793H105.793V39.3906H115.793ZM115.793 38.2734V28.2734H94.5664V38.2734V48.2734H115.793V38.2734ZM94.5664 38.2734H104.566V33.6328H94.5664H84.5664V38.2734H94.5664ZM94.5664 33.6328V43.6328H122.625V33.6328V23.6328H94.5664V33.6328ZM122.625 10.4727H112.625V20.4844H122.625H132.625V10.4727H122.625ZM122.625 20.4844V10.4844L101.785 10.4844V20.4844V30.4844H122.625V20.4844ZM101.785 20.4844H91.7852V21.7734H101.785H111.785V20.4844H101.785ZM101.785 21.7734V31.7734H123.312V21.7734V11.7734L101.785 11.7734V21.7734ZM123.312 21.7734H113.312V26.2852H123.312H133.312V21.7734H123.312ZM123.312 26.2852V16.2852H94.9531V26.2852V36.2852H123.312V26.2852ZM94.9531 26.2852H104.953V16.2305H94.9531H84.9531V26.2852H94.9531ZM94.9531 16.2305V26.2305H115.75V16.2305V6.23047L94.9531 6.23047V16.2305ZM115.75 16.2305H125.75V15.0273H115.75H105.75V16.2305H115.75ZM115.75 15.0273V5.02734L94.9102 5.02734V15.0273V25.0273H115.75V15.0273ZM94.9102 15.0273H104.91V10.4727H94.9102H84.9102V15.0273H94.9102ZM94.9102 10.4727V20.4727H122.625V10.4727V0.472656L94.9102 0.472656V10.4727ZM174.445 31.4844H184.445C184.445 25.9615 179.968 21.4844 174.445 21.4844V31.4844ZM174.445 36.9414V46.9414C179.968 46.9414 184.445 42.4643 184.445 36.9414H174.445ZM159.578 36.9414V26.9414C154.055 26.9414 149.578 31.4186 149.578 36.9414H159.578ZM159.578 49.7891V59.7891C165.101 59.7891 169.578 55.3119 169.578 49.7891H159.578ZM152.746 49.7891H142.746C142.746 55.3119 147.223 59.7891 152.746 59.7891V49.7891ZM152.746 36.9414H162.746C162.746 31.4186 158.269 26.9414 152.746 26.9414V36.9414ZM138.18 36.9414H128.18C128.18 42.4643 132.657 46.9414 138.18 46.9414V36.9414ZM138.18 31.4844V21.4844C132.657 21.4844 128.18 25.9615 128.18 31.4844H138.18ZM171.309 11.8906L181.309 11.8906C181.309 6.36778 176.831 1.89062 171.309 1.89062V11.8906ZM171.309 17.1758V27.1758C176.831 27.1758 181.309 22.6986 181.309 17.1758H171.309ZM160.566 17.1758V7.17578C157.516 7.17578 154.633 8.56785 152.736 10.9563C150.839 13.3448 150.136 16.4684 150.826 19.4394L160.566 17.1758ZM172.984 24.4805L182.055 28.6894C183.412 25.7668 183.276 22.3698 181.692 19.5641C180.108 16.7585 177.27 14.8879 174.067 14.5392L172.984 24.4805ZM170.492 29.8516L169.343 39.7853C173.628 40.2812 177.748 37.9735 179.563 34.0605L170.492 29.8516ZM156.312 22.6328L164.723 17.2228C162.878 14.3558 159.701 12.6258 156.292 12.6328C152.883 12.6399 149.712 14.3831 147.88 17.2577L156.312 22.6328ZM142.219 29.8516L133.148 34.0605C134.964 37.9746 139.086 40.2824 143.372 39.7849L142.219 29.8516ZM139.727 24.4805L138.631 14.5407C135.431 14.8935 132.596 16.7655 131.015 19.5701C129.434 22.3748 129.3 25.769 130.655 28.6894L139.727 24.4805ZM152.145 17.1758L161.805 19.7609C162.608 16.7582 161.97 13.5526 160.077 11.0869C158.184 8.62119 155.253 7.17578 152.145 7.17578V17.1758ZM141.359 17.1758H131.359C131.359 22.6986 135.837 27.1758 141.359 27.1758V17.1758ZM141.359 11.8906V1.89062C135.837 1.89062 131.359 6.36778 131.359 11.8906H141.359ZM174.445 31.4844H164.445V36.9414H174.445H184.445V31.4844H174.445ZM174.445 36.9414V26.9414H159.578V36.9414V46.9414H174.445V36.9414ZM159.578 36.9414H149.578V49.7891H159.578H169.578V36.9414H159.578ZM159.578 49.7891V39.7891H152.746V49.7891V59.7891H159.578V49.7891ZM152.746 49.7891H162.746V36.9414H152.746H142.746V49.7891H152.746ZM152.746 36.9414V26.9414H138.18V36.9414V46.9414L152.746 46.9414V36.9414ZM138.18 36.9414L148.18 36.9414V31.4844L138.18 31.4844H128.18V36.9414H138.18ZM138.18 31.4844V41.4844L174.445 41.4844V31.4844V21.4844H138.18V31.4844ZM171.309 11.8906H161.309V17.1758H171.309H181.309V11.8906L171.309 11.8906ZM171.309 17.1758V7.17578H160.566V17.1758V27.1758H171.309V17.1758ZM160.566 17.1758L150.826 19.4394C152.927 28.4819 161.459 33.2849 171.902 34.4217L172.984 24.4805L174.067 14.5392C170.885 14.1928 169.68 13.4908 169.482 13.3563C169.407 13.3057 169.562 13.3967 169.777 13.7C169.994 14.0066 170.192 14.4197 170.307 14.9122L160.566 17.1758ZM172.984 24.4805L163.913 20.2715L161.421 25.6426L170.492 29.8516L179.563 34.0605L182.055 28.6894L172.984 24.4805ZM170.492 29.8516L171.642 19.9179C166.269 19.2961 164.946 17.5692 164.723 17.2228L156.312 22.6328L147.902 28.0429C152.406 35.0441 160.235 38.7313 169.343 39.7853L170.492 29.8516ZM156.312 22.6328L147.88 17.2577C147.668 17.5895 146.394 19.2998 141.066 19.9183L142.219 29.8516L143.372 39.7849C152.481 38.7276 160.273 35.0238 164.745 28.0079L156.312 22.6328ZM142.219 29.8516L151.29 25.6426L148.798 20.2715L139.727 24.4805L130.655 28.6894L133.148 34.0605L142.219 29.8516ZM139.727 24.4805L140.822 34.4202C151.35 33.2595 159.493 28.4007 161.805 19.7609L152.145 17.1758L142.484 14.5907C142.592 14.1895 142.762 13.8534 142.942 13.6045C143.122 13.3568 143.239 13.2946 143.149 13.3563C142.928 13.5063 141.733 14.1987 138.631 14.5407L139.727 24.4805ZM152.145 17.1758V7.17578H141.359V17.1758V27.1758H152.145V17.1758ZM141.359 17.1758H151.359V11.8906H141.359H131.359V17.1758H141.359ZM141.359 11.8906V21.8906H171.309V11.8906V1.89062L141.359 1.89062V11.8906ZM208.562 20.0977H218.562C218.562 14.5748 214.085 10.0977 208.562 10.0977V20.0977ZM208.562 25.4258V35.4258C214.085 35.4258 218.562 30.9486 218.562 25.4258H208.562ZM180.461 25.4258H170.461C170.461 30.9486 174.938 35.4258 180.461 35.4258V25.4258ZM180.461 11.418V1.41797C174.938 1.41797 170.461 5.89512 170.461 11.418L180.461 11.418ZM187.336 11.418H197.336C197.336 5.89512 192.859 1.41797 187.336 1.41797V11.418ZM187.336 20.0977H177.336C177.336 25.6205 181.813 30.0977 187.336 30.0977V20.0977ZM212.473 28.9492H222.473C222.473 23.4264 217.995 18.9492 212.473 18.9492V28.9492ZM212.473 34.2773V44.2773C217.995 44.2773 222.473 39.8002 222.473 34.2773H212.473ZM176.207 34.2773H166.207C166.207 39.8002 170.684 44.2773 176.207 44.2773V34.2773ZM176.207 28.9492V18.9492C170.684 18.9492 166.207 23.4264 166.207 28.9492H176.207ZM208.82 43.4727H218.82C218.82 37.9498 214.343 33.4727 208.82 33.4727V43.4727ZM208.82 48.9727V58.9727C214.343 58.9727 218.82 54.4955 218.82 48.9727H208.82ZM179.988 48.9727H169.988C169.988 54.4955 174.465 58.9727 179.988 58.9727V48.9727ZM179.988 37.0273V27.0273C174.465 27.0273 169.988 31.5045 169.988 37.0273H179.988ZM186.949 37.0273H196.949C196.949 31.5045 192.472 27.0273 186.949 27.0273V37.0273ZM186.949 43.4727H176.949C176.949 48.9955 181.426 53.4727 186.949 53.4727V43.4727ZM208.562 20.0977L198.562 20.0977V25.4258L208.562 25.4258H218.562V20.0977H208.562ZM208.562 25.4258V15.4258L180.461 15.4258V25.4258V35.4258H208.562V25.4258ZM180.461 25.4258H190.461V11.418H180.461L170.461 11.418V25.4258H180.461ZM180.461 11.418V21.418H187.336V11.418V1.41797H180.461V11.418ZM187.336 11.418H177.336V20.0977H187.336H197.336V11.418H187.336ZM187.336 20.0977V30.0977H208.562V20.0977V10.0977H187.336V20.0977ZM212.473 28.9492H202.473V34.2773H212.473H222.473V28.9492H212.473ZM212.473 34.2773V24.2773L176.207 24.2773V34.2773V44.2773H212.473V34.2773ZM176.207 34.2773H186.207V28.9492H176.207H166.207V34.2773H176.207ZM176.207 28.9492V38.9492H212.473V28.9492V18.9492L176.207 18.9492V28.9492ZM208.82 43.4727H198.82V48.9727H208.82H218.82V43.4727H208.82ZM208.82 48.9727V38.9727H179.988V48.9727V58.9727H208.82V48.9727ZM179.988 48.9727H189.988V37.0273H179.988H169.988V48.9727H179.988ZM179.988 37.0273V47.0273H186.949V37.0273V27.0273H179.988V37.0273ZM186.949 37.0273H176.949V43.4727H186.949H196.949V37.0273H186.949ZM186.949 43.4727V53.4727H208.82V43.4727V33.4727H186.949V43.4727Z" fill="white" mask="url(#path-1-outside-1_6524_1916)"/>
</g>
<defs>
<filter id="filter0_d_6524_1916" x="0" y="0" width="226.473" height="67.875" filterUnits="userSpaceOnUse" color-interpolation-filters="sRGB">
<feFlood flood-opacity="0" result="BackgroundImageFix"/>
<feColorMatrix in="SourceAlpha" type="matrix" values="0 0 0 0 0 0 0 0 0 0 0 0 0 0 0 0 0 0 127 0" result="hardAlpha"/>
<feOffset dy="4"/>
<feGaussianBlur stdDeviation="2"/>
<feComposite in2="hardAlpha" operator="out"/>
<feColorMatrix type="matrix" values="0 0 0 0 0 0 0 0 0 0 0 0 0 0 0 0 0 0 0.07 0"/>
<feBlend mode="normal" in2="BackgroundImageFix" result="effect1_dropShadow_6524_1916"/>
<feBlend mode="normal" in="SourceGraphic" in2="effect1_dropShadow_6524_1916" result="shape"/>
</filter>
</defs>
</svg>
