<svg width="351" height="68" viewBox="0 0 351 68" fill="none" xmlns="http://www.w3.org/2000/svg">
<g filter="url(#filter0_d_6524_1861)">
<mask id="path-1-outside-1_6524_1861" maskUnits="userSpaceOnUse" x="3.61328" y="-0.507813" width="343" height="61" fill="black">
<rect fill="white" x="3.61328" y="-0.507813" width="343" height="61"/>
<path d="M48.0312 10.0859V38.9609H41.1133V10.0859L48.0312 10.0859ZM48.9766 43.6875V49.1875H20.832V36.082H27.793V43.6875H48.9766ZM30.457 15.9727C30.4141 20.7422 32.3906 25.6836 39.3086 27.7461L35.8281 33.1172C31.4883 31.8066 28.6094 29.207 26.8906 25.8555C25.1074 29.4648 22.1211 32.3652 17.5234 33.8047L14 28.3477C21.1328 26.1562 23.2383 20.8281 23.2812 15.9727V12.2344H30.457V15.9727ZM75.9609 13.3086V25.9844H62.125V28.3906H76.7344V33.6758H69.2148V37.5C72.0508 37.3711 74.8652 37.1992 77.5508 36.9414L78.0664 41.9258C69.4727 43.3867 60.8359 43.3438 53.4453 43.2148L52.6719 37.6719C55.7012 37.7148 58.9668 37.7148 62.3398 37.6719V33.6758H55.207V21.043H69.1289V18.6797H55.25V13.3086H75.9609ZM86.4023 10V49.875H79.5703V10H86.4023ZM103.332 12.5352C109.691 12.4922 114.547 16.7461 114.547 22.5469C114.547 28.3906 109.691 32.6016 103.332 32.5586C97.1016 32.6016 92.1172 28.3906 92.1172 22.5469C92.1172 16.7461 97.1016 12.4922 103.332 12.5352ZM103.332 18.4648C100.926 18.4648 98.9922 19.8398 98.9922 22.5469C98.9922 25.3398 100.926 26.6289 103.332 26.6289C105.867 26.6289 107.844 25.3398 107.844 22.5469C107.844 19.8398 105.867 18.4648 103.332 18.4648ZM124.43 10V49.875H117.598V10H124.43ZM90.6992 36.6406C97.6172 36.6406 107.285 36.5117 115.578 35.3945L116.094 40.3359C107.5 42.0547 98.2617 42.1406 91.4727 42.1406L90.6992 36.6406ZM171.91 10V49.7461H164.906V10H171.91ZM159.879 14.082C159.879 26.543 156.355 36.4687 141.617 43.3437L138.094 37.9297C148.02 33.2031 151.994 27.7461 152.875 19.4531H140.371V14.082H159.879ZM209.164 11.5469V16.918L199.41 16.918C200.248 19.3242 203.363 21.9883 211.184 22.7617L208.691 28.1758C200.807 27.4023 196.273 24.459 194.254 20.6992C192.213 24.4375 187.744 27.4023 179.902 28.1758L177.453 22.7617C185.252 21.9883 188.324 19.3027 189.227 16.918H179.516V11.5469H209.164ZM212.473 29.3789V34.8359H198.336V40.8516H191.504V34.8359H176.207V29.3789H212.473ZM208.52 43.6875V49.1875H180.16V37.5859H187.035V43.6875H208.52ZM247.793 10V49.875H240.832V10H247.793ZM225.965 12.6641C232.023 12.6211 236.578 18.207 236.578 26.9727C236.578 35.8672 232.023 41.4102 225.965 41.4102C219.777 41.4102 215.18 35.8672 215.18 26.9727C215.18 18.207 219.777 12.6211 225.965 12.6641ZM225.965 18.8945C223.43 18.8516 221.84 21.4727 221.84 26.9727C221.84 32.5586 223.43 35.0937 225.965 35.0937C228.328 35.0937 229.961 32.5586 229.961 26.9727C229.961 21.4727 228.328 18.8516 225.965 18.8945ZM285.434 25.5117V31.0117H278.387V36.6836C281.266 36.5977 284.123 36.4043 286.852 36.125L287.367 41.1094C278.773 42.4414 270.137 42.4414 262.746 42.4844L261.973 36.8984C264.938 36.9414 268.16 36.9414 271.469 36.8984V31.0117H264.336V13.3945H285.262V18.8086H271.211V25.5117H285.434ZM295.703 10V49.875H288.871V10H295.703ZM332.227 20.0977V25.4258H304.125V11.418H311V20.0977H332.227ZM336.137 28.9492V34.2773H299.871V28.9492H336.137ZM332.484 43.4727V48.9727H303.652V37.0273H310.613V43.4727H332.484Z"/>
</mask>
<path d="M48.0312 10.0859V38.9609H41.1133V10.0859L48.0312 10.0859ZM48.9766 43.6875V49.1875H20.832V36.082H27.793V43.6875H48.9766ZM30.457 15.9727C30.4141 20.7422 32.3906 25.6836 39.3086 27.7461L35.8281 33.1172C31.4883 31.8066 28.6094 29.207 26.8906 25.8555C25.1074 29.4648 22.1211 32.3652 17.5234 33.8047L14 28.3477C21.1328 26.1562 23.2383 20.8281 23.2812 15.9727V12.2344H30.457V15.9727ZM75.9609 13.3086V25.9844H62.125V28.3906H76.7344V33.6758H69.2148V37.5C72.0508 37.3711 74.8652 37.1992 77.5508 36.9414L78.0664 41.9258C69.4727 43.3867 60.8359 43.3438 53.4453 43.2148L52.6719 37.6719C55.7012 37.7148 58.9668 37.7148 62.3398 37.6719V33.6758H55.207V21.043H69.1289V18.6797H55.25V13.3086H75.9609ZM86.4023 10V49.875H79.5703V10H86.4023ZM103.332 12.5352C109.691 12.4922 114.547 16.7461 114.547 22.5469C114.547 28.3906 109.691 32.6016 103.332 32.5586C97.1016 32.6016 92.1172 28.3906 92.1172 22.5469C92.1172 16.7461 97.1016 12.4922 103.332 12.5352ZM103.332 18.4648C100.926 18.4648 98.9922 19.8398 98.9922 22.5469C98.9922 25.3398 100.926 26.6289 103.332 26.6289C105.867 26.6289 107.844 25.3398 107.844 22.5469C107.844 19.8398 105.867 18.4648 103.332 18.4648ZM124.43 10V49.875H117.598V10H124.43ZM90.6992 36.6406C97.6172 36.6406 107.285 36.5117 115.578 35.3945L116.094 40.3359C107.5 42.0547 98.2617 42.1406 91.4727 42.1406L90.6992 36.6406ZM171.91 10V49.7461H164.906V10H171.91ZM159.879 14.082C159.879 26.543 156.355 36.4687 141.617 43.3437L138.094 37.9297C148.02 33.2031 151.994 27.7461 152.875 19.4531H140.371V14.082H159.879ZM209.164 11.5469V16.918L199.41 16.918C200.248 19.3242 203.363 21.9883 211.184 22.7617L208.691 28.1758C200.807 27.4023 196.273 24.459 194.254 20.6992C192.213 24.4375 187.744 27.4023 179.902 28.1758L177.453 22.7617C185.252 21.9883 188.324 19.3027 189.227 16.918H179.516V11.5469H209.164ZM212.473 29.3789V34.8359H198.336V40.8516H191.504V34.8359H176.207V29.3789H212.473ZM208.52 43.6875V49.1875H180.16V37.5859H187.035V43.6875H208.52ZM247.793 10V49.875H240.832V10H247.793ZM225.965 12.6641C232.023 12.6211 236.578 18.207 236.578 26.9727C236.578 35.8672 232.023 41.4102 225.965 41.4102C219.777 41.4102 215.18 35.8672 215.18 26.9727C215.18 18.207 219.777 12.6211 225.965 12.6641ZM225.965 18.8945C223.43 18.8516 221.84 21.4727 221.84 26.9727C221.84 32.5586 223.43 35.0937 225.965 35.0937C228.328 35.0937 229.961 32.5586 229.961 26.9727C229.961 21.4727 228.328 18.8516 225.965 18.8945ZM285.434 25.5117V31.0117H278.387V36.6836C281.266 36.5977 284.123 36.4043 286.852 36.125L287.367 41.1094C278.773 42.4414 270.137 42.4414 262.746 42.4844L261.973 36.8984C264.938 36.9414 268.16 36.9414 271.469 36.8984V31.0117H264.336V13.3945H285.262V18.8086H271.211V25.5117H285.434ZM295.703 10V49.875H288.871V10H295.703ZM332.227 20.0977V25.4258H304.125V11.418H311V20.0977H332.227ZM336.137 28.9492V34.2773H299.871V28.9492H336.137ZM332.484 43.4727V48.9727H303.652V37.0273H310.613V43.4727H332.484Z" fill="#11DCA9"/>
<path d="M48.0312 10.0859H58.0312C58.0312 4.56309 53.5541 0.0859375 48.0312 0.0859375V10.0859ZM48.0312 38.9609V48.9609C53.5541 48.9609 58.0312 44.4838 58.0312 38.9609H48.0312ZM41.1133 38.9609H31.1133C31.1133 44.4838 35.5904 48.9609 41.1133 48.9609V38.9609ZM41.1133 10.0859V0.0859375C35.5904 0.0859375 31.1133 4.56309 31.1133 10.0859H41.1133ZM48.9766 43.6875H58.9766C58.9766 38.1647 54.4994 33.6875 48.9766 33.6875V43.6875ZM48.9766 49.1875V59.1875C54.4994 59.1875 58.9766 54.7103 58.9766 49.1875H48.9766ZM20.832 49.1875H10.832C10.832 54.7103 15.3092 59.1875 20.832 59.1875V49.1875ZM20.832 36.082V26.082C15.3092 26.082 10.832 30.5592 10.832 36.082H20.832ZM27.793 36.082H37.793C37.793 30.5592 33.3158 26.082 27.793 26.082V36.082ZM27.793 43.6875H17.793C17.793 49.2103 22.2701 53.6875 27.793 53.6875V43.6875ZM30.457 15.9727L40.4566 16.0627C40.4569 16.0327 40.457 16.0027 40.457 15.9727H30.457ZM39.3086 27.7461L47.7007 33.1842C49.4137 30.5406 49.781 27.2444 48.6918 24.2886C47.6027 21.3328 45.1845 19.0629 42.1657 18.1629L39.3086 27.7461ZM35.8281 33.1172L32.9373 42.6902C37.1994 43.9773 41.7991 42.2916 44.2202 38.5553L35.8281 33.1172ZM26.8906 25.8555L35.7888 21.2923C34.0649 17.9306 30.5936 15.8275 26.8157 15.8557C23.0379 15.884 19.5985 18.039 17.9251 21.4261L26.8906 25.8555ZM17.5234 33.8047L9.12242 39.229C11.5611 43.006 16.2207 44.6912 20.5113 43.3479L17.5234 33.8047ZM14 28.3477L11.0632 18.7886C8.06878 19.7086 5.67849 21.9786 4.60524 24.9215C3.53199 27.8645 3.8998 31.1403 5.59898 33.7719L14 28.3477ZM23.2812 15.9727L33.2809 16.0611C33.2811 16.0317 33.2812 16.0022 33.2812 15.9727H23.2812ZM23.2812 12.2344V2.23438C17.7584 2.23438 13.2812 6.71153 13.2812 12.2344H23.2812ZM30.457 12.2344H40.457C40.457 6.71153 35.9799 2.23437 30.457 2.23437V12.2344ZM48.0312 10.0859L38.0312 10.0859V38.9609H48.0312H58.0312V10.0859H48.0312ZM48.0312 38.9609V28.9609H41.1133V38.9609V48.9609H48.0312V38.9609ZM41.1133 38.9609H51.1133V10.0859L41.1133 10.0859H31.1133V38.9609H41.1133ZM41.1133 10.0859V20.0859H48.0312V10.0859V0.0859375H41.1133V10.0859ZM48.9766 43.6875H38.9766V49.1875H48.9766H58.9766V43.6875H48.9766ZM48.9766 49.1875V39.1875H20.832V49.1875V59.1875H48.9766V49.1875ZM20.832 49.1875H30.832V36.082H20.832H10.832L10.832 49.1875H20.832ZM20.832 36.082V46.082H27.793V36.082V26.082H20.832V36.082ZM27.793 36.082H17.793V43.6875H27.793H37.793V36.082H27.793ZM27.793 43.6875V53.6875H48.9766V43.6875V33.6875H27.793V43.6875ZM30.457 15.9727L20.4574 15.8826C20.4238 19.6126 21.1692 24.1275 23.8797 28.3115C26.6914 32.6519 31.0214 35.7103 36.4515 37.3293L39.3086 27.7461L42.1657 18.1629C41.3641 17.9239 40.9702 17.6819 40.8183 17.5733C40.7392 17.5167 40.701 17.4789 40.6876 17.4648C40.6742 17.4508 40.6689 17.4431 40.6653 17.4375C40.6621 17.4327 40.6115 17.3561 40.5587 17.1419C40.5028 16.9151 40.4521 16.5609 40.4566 16.0627L30.457 15.9727ZM39.3086 27.7461L30.9165 22.308L27.436 27.6791L35.8281 33.1172L44.2202 38.5553L47.7007 33.1842L39.3086 27.7461ZM35.8281 33.1172L38.719 23.5442C36.9835 23.0201 36.2707 22.232 35.7888 21.2923L26.8906 25.8555L17.9925 30.4186C20.9481 36.1821 25.993 40.5932 32.9373 42.6902L35.8281 33.1172ZM26.8906 25.8555L17.9251 21.4261C17.2674 22.7574 16.3485 23.6939 14.5356 24.2615L17.5234 33.8047L20.5113 43.3479C27.8937 41.0366 32.9475 36.1723 35.8561 30.2849L26.8906 25.8555ZM17.5234 33.8047L25.9245 28.3804L22.401 22.9234L14 28.3477L5.59898 33.7719L9.12242 39.229L17.5234 33.8047ZM14 28.3477L16.9368 37.9067C22.5609 36.1788 26.9005 32.9365 29.7098 28.5688C32.4142 24.3642 33.2475 19.8317 33.2809 16.0611L23.2812 15.9727L13.2816 15.8842C13.272 16.9691 13.0311 17.5283 12.8889 17.7495C12.8256 17.8479 12.7291 17.969 12.5278 18.1171C12.3184 18.271 11.8812 18.5373 11.0632 18.7886L14 28.3477ZM23.2812 15.9727H33.2812V12.2344H23.2812H13.2812V15.9727H23.2812ZM23.2812 12.2344V22.2344H30.457V12.2344V2.23437L23.2812 2.23438V12.2344ZM30.457 12.2344H20.457V15.9727H30.457H40.457V12.2344H30.457ZM75.9609 13.3086L85.9609 13.3086C85.9609 7.78575 81.4838 3.30859 75.9609 3.30859V13.3086ZM75.9609 25.9844V35.9844C81.4838 35.9844 85.9609 31.5072 85.9609 25.9844L75.9609 25.9844ZM62.125 25.9844V15.9844C56.6022 15.9844 52.125 20.4615 52.125 25.9844H62.125ZM62.125 28.3906H52.125C52.125 33.9135 56.6022 38.3906 62.125 38.3906V28.3906ZM76.7344 28.3906L86.7344 28.3906C86.7344 22.8678 82.2572 18.3906 76.7344 18.3906V28.3906ZM76.7344 33.6758V43.6758C82.2572 43.6758 86.7344 39.1986 86.7344 33.6758H76.7344ZM69.2148 33.6758V23.6758C63.692 23.6758 59.2148 28.1529 59.2148 33.6758H69.2148ZM69.2148 37.5H59.2148C59.2148 40.231 60.3317 42.8431 62.3062 44.7298C64.2806 46.6166 66.9408 47.6137 69.6689 47.4897L69.2148 37.5ZM77.5508 36.9414L87.4977 35.9124C86.9324 30.4475 82.0641 26.4622 76.5952 26.9872L77.5508 36.9414ZM78.0664 41.9258L79.7424 51.7843C84.9373 50.9012 88.5555 46.1383 88.0133 40.8968L78.0664 41.9258ZM53.4453 43.2148L43.5413 44.5968C44.2216 49.4723 48.349 53.1275 53.2709 53.2133L53.4453 43.2148ZM52.6719 37.6719L52.8137 27.6729C49.896 27.6315 47.1058 28.8666 45.1748 31.0542C43.2437 33.2419 42.3646 36.1638 42.7678 39.0538L52.6719 37.6719ZM62.3398 37.6719L62.4672 47.6711C67.9399 47.6013 72.3398 43.145 72.3398 37.6719H62.3398ZM62.3398 33.6758H72.3398C72.3398 28.1529 67.8627 23.6758 62.3398 23.6758V33.6758ZM55.207 33.6758H45.207C45.207 39.1986 49.6842 43.6758 55.207 43.6758V33.6758ZM55.207 21.043V11.043C49.6842 11.043 45.207 15.5201 45.207 21.043H55.207ZM69.1289 21.043V31.043C74.6518 31.043 79.1289 26.5658 79.1289 21.043L69.1289 21.043ZM69.1289 18.6797L79.1289 18.6797C79.1289 13.1568 74.6518 8.67969 69.1289 8.67969V18.6797ZM55.25 18.6797H45.25C45.25 24.2025 49.7272 28.6797 55.25 28.6797V18.6797ZM55.25 13.3086V3.30859C49.7272 3.30859 45.25 7.78575 45.25 13.3086H55.25ZM86.4023 10H96.4023C96.4023 4.47715 91.9252 0 86.4023 0V10ZM86.4023 49.875V59.875C91.9252 59.875 96.4023 55.3978 96.4023 49.875H86.4023ZM79.5703 49.875H69.5703C69.5703 55.3978 74.0475 59.875 79.5703 59.875V49.875ZM79.5703 10V0C74.0475 0 69.5703 4.47715 69.5703 10H79.5703ZM75.9609 13.3086H65.9609V25.9844H75.9609L85.9609 25.9844V13.3086L75.9609 13.3086ZM75.9609 25.9844V15.9844H62.125V25.9844V35.9844H75.9609V25.9844ZM62.125 25.9844H52.125V28.3906H62.125H72.125V25.9844H62.125ZM62.125 28.3906V38.3906H76.7344V28.3906V18.3906H62.125V28.3906ZM76.7344 28.3906H66.7344V33.6758H76.7344H86.7344V28.3906L76.7344 28.3906ZM76.7344 33.6758V23.6758H69.2148V33.6758V43.6758H76.7344V33.6758ZM69.2148 33.6758H59.2148V37.5H69.2148H79.2148V33.6758H69.2148ZM69.2148 37.5L69.6689 47.4897C72.5967 47.3566 75.5926 47.1754 78.5064 46.8956L77.5508 36.9414L76.5952 26.9872C74.1378 27.2231 71.5049 27.3856 68.7608 27.5103L69.2148 37.5ZM77.5508 36.9414L67.6039 37.9704L68.1195 42.9548L78.0664 41.9258L88.0133 40.8968L87.4977 35.9124L77.5508 36.9414ZM78.0664 41.9258L76.3904 32.0672C68.8073 33.3564 61.0034 33.3451 53.6197 33.2164L53.4453 43.2148L53.2709 53.2133C60.6685 53.3424 70.138 53.4171 79.7424 51.7843L78.0664 41.9258ZM53.4453 43.2148L63.3494 41.8329L62.5759 36.2899L52.6719 37.6719L42.7678 39.0538L43.5413 44.5968L53.4453 43.2148ZM52.6719 37.6719L52.53 47.6709C55.6585 47.7152 59.0143 47.715 62.4672 47.6711L62.3398 37.6719L62.2125 27.6727C58.9193 27.7146 55.7439 27.7144 52.8137 27.6729L52.6719 37.6719ZM62.3398 37.6719H72.3398V33.6758H62.3398H52.3398V37.6719H62.3398ZM62.3398 33.6758V23.6758H55.207V33.6758V43.6758H62.3398V33.6758ZM55.207 33.6758H65.207V21.043H55.207H45.207V33.6758H55.207ZM55.207 21.043V31.043H69.1289V21.043V11.043H55.207V21.043ZM69.1289 21.043L79.1289 21.043V18.6797L69.1289 18.6797H59.1289V21.043H69.1289ZM69.1289 18.6797V8.67969H55.25V18.6797V28.6797H69.1289V18.6797ZM55.25 18.6797H65.25V13.3086H55.25H45.25V18.6797H55.25ZM55.25 13.3086V23.3086H75.9609V13.3086V3.30859L55.25 3.30859V13.3086ZM86.4023 10H76.4023V49.875H86.4023H96.4023V10H86.4023ZM86.4023 49.875V39.875H79.5703V49.875V59.875H86.4023V49.875ZM79.5703 49.875H89.5703V10H79.5703H69.5703V49.875H79.5703ZM79.5703 10V20H86.4023V10V0L79.5703 0V10ZM103.332 12.5352L103.263 22.5349C103.309 22.5352 103.354 22.5352 103.4 22.5349L103.332 12.5352ZM103.332 32.5586L103.4 22.5588C103.354 22.5585 103.309 22.5585 103.263 22.5588L103.332 32.5586ZM124.43 10H134.43C134.43 4.47715 129.953 0 124.43 0V10ZM124.43 49.875V59.875C129.953 59.875 134.43 55.3978 134.43 49.875H124.43ZM117.598 49.875H107.598C107.598 55.3978 112.075 59.875 117.598 59.875V49.875ZM117.598 10V0C112.075 0 107.598 4.47715 107.598 10L117.598 10ZM90.6992 36.6406V26.6406C87.8041 26.6406 85.0511 27.8953 83.1519 30.0803C81.2526 32.2654 80.3935 35.1663 80.7967 38.0332L90.6992 36.6406ZM115.578 35.3945L125.524 34.3567C125.243 31.6672 123.886 29.206 121.76 27.5344C119.635 25.8627 116.923 25.123 114.243 25.4841L115.578 35.3945ZM116.094 40.3359L118.055 50.1417C123.116 49.1295 126.575 44.4317 126.04 39.2981L116.094 40.3359ZM91.4727 42.1406L81.5701 43.5332C82.2643 48.4694 86.4878 52.1406 91.4727 52.1406V42.1406ZM103.332 12.5352L103.4 22.5349C103.865 22.5318 104.193 22.6075 104.395 22.6799C104.598 22.7527 104.68 22.8233 104.686 22.8281C104.687 22.8297 104.638 22.784 104.593 22.6848C104.544 22.5782 104.547 22.5128 104.547 22.5469H114.547H124.547C124.547 10.1666 114.084 2.46228 103.264 2.53538L103.332 12.5352ZM114.547 22.5469H104.547C104.547 22.6018 104.54 22.543 104.591 22.4328C104.612 22.3858 104.637 22.3458 104.659 22.3153C104.682 22.2853 104.697 22.2718 104.697 22.2718C104.696 22.2721 104.678 22.2886 104.634 22.3144C104.589 22.3403 104.518 22.376 104.416 22.4125C104.212 22.4851 103.877 22.562 103.4 22.5588L103.332 32.5586L103.264 42.5584C114.054 42.6313 124.547 34.9968 124.547 22.5469H114.547ZM103.332 32.5586L103.263 22.5588C102.402 22.5648 102.025 22.2798 101.986 22.2456C101.97 22.2312 102.016 22.2685 102.063 22.3707C102.115 22.4827 102.117 22.5621 102.117 22.5469H92.1172H82.1172C82.1172 35.0666 92.8179 42.6313 103.401 42.5584L103.332 32.5586ZM92.1172 22.5469H102.117C102.117 22.5409 102.117 22.5641 102.108 22.6086C102.098 22.6526 102.082 22.7006 102.06 22.7469C102.015 22.8448 101.974 22.8752 101.997 22.8544C102.05 22.8078 102.428 22.5292 103.263 22.5349L103.332 12.5352L103.401 2.53539C92.788 2.4622 82.1172 10.0966 82.1172 22.5469H92.1172ZM103.332 18.4648V8.46484C100.312 8.46484 96.7045 9.32939 93.6967 11.9458C90.4944 14.7313 88.9922 18.6259 88.9922 22.5469H98.9922H108.992C108.992 23.7608 108.457 25.6144 106.823 27.0357C105.383 28.2878 103.946 28.4648 103.332 28.4648V18.4648ZM98.9922 22.5469H88.9922C88.9922 26.4329 90.4447 30.3964 93.7561 33.2315C96.8316 35.8646 100.462 36.6289 103.332 36.6289V26.6289V16.6289C103.796 16.6289 105.256 16.7486 106.763 18.039C108.506 19.5313 108.992 21.4538 108.992 22.5469H98.9922ZM103.332 26.6289V36.6289C106.154 36.6289 109.794 35.9223 112.915 33.3383C116.318 30.5216 117.844 26.5148 117.844 22.5469H107.844H97.8438C97.8438 21.3719 98.3813 19.4061 100.162 17.9322C101.661 16.691 103.045 16.6289 103.332 16.6289V26.6289ZM107.844 22.5469H117.844C117.844 18.5435 116.267 14.606 112.975 11.8377C109.917 9.2655 106.299 8.46484 103.332 8.46484V18.4648V28.4648C102.9 28.4648 101.538 28.3517 100.102 27.1438C98.4324 25.7397 97.8438 23.8432 97.8438 22.5469H107.844ZM124.43 10H114.43V49.875H124.43H134.43V10H124.43ZM124.43 49.875V39.875H117.598V49.875V59.875H124.43V49.875ZM117.598 49.875H127.598V10H117.598L107.598 10V49.875H117.598ZM117.598 10V20H124.43V10V0L117.598 0V10ZM90.6992 36.6406V46.6406C97.627 46.6406 107.891 46.5205 116.913 45.305L115.578 35.3945L114.243 25.4841C106.68 26.503 97.6073 26.6406 90.6992 26.6406V36.6406ZM115.578 35.3945L105.632 36.4324L106.148 41.3738L116.094 40.3359L126.04 39.2981L125.524 34.3567L115.578 35.3945ZM116.094 40.3359L114.133 30.5301C106.626 32.0314 98.3027 32.1406 91.4727 32.1406V42.1406V52.1406C98.2208 52.1406 108.374 52.0779 118.055 50.1417L116.094 40.3359ZM91.4727 42.1406L101.375 40.7481L100.602 35.2481L90.6992 36.6406L80.7967 38.0332L81.5701 43.5332L91.4727 42.1406ZM171.91 10L181.91 10C181.91 4.47715 177.433 0 171.91 0V10ZM171.91 49.7461V59.7461C177.433 59.7461 181.91 55.2689 181.91 49.7461H171.91ZM164.906 49.7461H154.906C154.906 55.2689 159.383 59.7461 164.906 59.7461V49.7461ZM164.906 10V0C159.383 0 154.906 4.47715 154.906 10H164.906ZM159.879 14.082H169.879C169.879 8.55918 165.402 4.08203 159.879 4.08203V14.082ZM141.617 43.3437L133.236 48.7983C135.953 52.9739 141.33 54.5123 145.845 52.4063L141.617 43.3437ZM138.094 37.9297L133.794 28.9011C131.192 30.1404 129.251 32.4424 128.469 35.2169C127.687 37.9913 128.14 40.9683 129.712 43.3842L138.094 37.9297ZM152.875 19.4531L162.819 20.5094C163.119 17.6892 162.207 14.8745 160.31 12.7659C158.414 10.6573 155.711 9.45312 152.875 9.45312V19.4531ZM140.371 19.4531H130.371C130.371 24.976 134.848 29.4531 140.371 29.4531V19.4531ZM140.371 14.082V4.08203C134.848 4.08203 130.371 8.55918 130.371 14.082H140.371ZM171.91 10H161.91V49.7461H171.91H181.91V10L171.91 10ZM171.91 49.7461V39.7461H164.906V49.7461V59.7461H171.91V49.7461ZM164.906 49.7461H174.906V10L164.906 10H154.906V49.7461H164.906ZM164.906 10V20H171.91V10V0L164.906 0V10ZM159.879 14.082H149.879C149.879 19.4566 149.101 23.132 147.535 25.9487C146.052 28.6154 143.298 31.5252 137.39 34.2812L141.617 43.3437L145.845 52.4063C154.675 48.2873 161.051 42.7967 165.015 35.6665C168.896 28.6864 169.879 21.1684 169.879 14.082H159.879ZM141.617 43.3437L149.999 37.8892L146.475 32.4751L138.094 37.9297L129.712 43.3842L133.236 48.7983L141.617 43.3437ZM138.094 37.9297L142.393 46.9583C148.173 44.2061 153.12 40.8257 156.747 36.197C160.485 31.4275 162.225 26.0982 162.819 20.5094L152.875 19.4531L142.931 18.3969C142.644 21.101 141.956 22.6468 141.005 23.8606C139.944 25.2154 137.941 26.9267 133.794 28.9011L138.094 37.9297ZM152.875 19.4531V9.45312H140.371V19.4531V29.4531L152.875 29.4531V19.4531ZM140.371 19.4531H150.371V14.082H140.371H130.371V19.4531H140.371ZM140.371 14.082V24.082H159.879V14.082V4.08203L140.371 4.08203V14.082ZM209.164 11.5469H219.164C219.164 6.02403 214.687 1.54687 209.164 1.54687V11.5469ZM209.164 16.918V26.918C214.687 26.918 219.164 22.4408 219.164 16.918H209.164ZM199.41 16.918V6.91797C196.172 6.91797 193.135 8.48575 191.259 11.1251C189.383 13.7644 188.902 17.1486 189.966 20.2064L199.41 16.918ZM211.184 22.7617L220.267 26.9432C221.62 24.0055 221.468 20.5952 219.86 17.7894C218.252 14.9835 215.386 13.1286 212.168 12.8103L211.184 22.7617ZM208.691 28.1758L207.715 38.128C211.955 38.544 215.994 36.2275 217.775 32.3572L208.691 28.1758ZM194.254 20.6992L203.063 15.9672C201.327 12.7339 197.958 10.7118 194.288 10.6993C190.618 10.6867 187.236 12.6858 185.477 15.9072L194.254 20.6992ZM179.902 28.1758L170.791 32.2975C172.558 36.2032 176.618 38.5483 180.884 38.1275L179.902 28.1758ZM177.453 22.7617L176.466 12.8105C173.26 13.1285 170.403 14.9718 168.793 17.7621C167.182 20.5524 167.014 23.9479 168.342 26.8834L177.453 22.7617ZM189.227 16.918L198.579 20.4569C199.742 17.3845 199.321 13.937 197.454 11.2342C195.587 8.53137 192.512 6.91797 189.227 6.91797V16.918ZM179.516 16.918H169.516C169.516 22.4408 173.993 26.918 179.516 26.918V16.918ZM179.516 11.5469V1.54687C173.993 1.54687 169.516 6.02403 169.516 11.5469L179.516 11.5469ZM212.473 29.3789H222.473C222.473 23.8561 217.995 19.3789 212.473 19.3789V29.3789ZM212.473 34.8359V44.8359C217.995 44.8359 222.473 40.3588 222.473 34.8359H212.473ZM198.336 34.8359V24.8359C192.813 24.8359 188.336 29.3131 188.336 34.8359H198.336ZM198.336 40.8516V50.8516C203.859 50.8516 208.336 46.3744 208.336 40.8516H198.336ZM191.504 40.8516H181.504C181.504 46.3744 185.981 50.8516 191.504 50.8516V40.8516ZM191.504 34.8359H201.504C201.504 29.3131 197.027 24.8359 191.504 24.8359V34.8359ZM176.207 34.8359H166.207C166.207 40.3588 170.684 44.8359 176.207 44.8359V34.8359ZM176.207 29.3789V19.3789C170.684 19.3789 166.207 23.8561 166.207 29.3789H176.207ZM208.52 43.6875H218.52C218.52 38.1647 214.042 33.6875 208.52 33.6875V43.6875ZM208.52 49.1875V59.1875C214.042 59.1875 218.52 54.7103 218.52 49.1875H208.52ZM180.16 49.1875H170.16C170.16 54.7103 174.637 59.1875 180.16 59.1875V49.1875ZM180.16 37.5859V27.5859C174.637 27.5859 170.16 32.0631 170.16 37.5859H180.16ZM187.035 37.5859H197.035C197.035 32.0631 192.558 27.5859 187.035 27.5859V37.5859ZM187.035 43.6875H177.035C177.035 49.2103 181.512 53.6875 187.035 53.6875V43.6875ZM209.164 11.5469H199.164V16.918L209.164 16.918H219.164V11.5469H209.164ZM209.164 16.918V6.91797H199.41V16.918V26.918L209.164 26.918V16.918ZM199.41 16.918L189.966 20.2064C192.764 28.2398 201.093 31.8126 210.199 32.7132L211.184 22.7617L212.168 12.8103C209.159 12.5127 207.909 11.9232 207.64 11.7697C207.464 11.6691 208.336 12.1416 208.854 13.6295L199.41 16.918ZM211.184 22.7617L202.1 18.5803L199.608 23.9943L208.691 28.1758L217.775 32.3572L220.267 26.9432L211.184 22.7617ZM208.691 28.1758L209.668 18.2235C206.728 17.9352 205.004 17.2958 204.087 16.7925C203.234 16.3239 203.069 15.9771 203.063 15.9672L194.254 20.6992L185.444 25.4312C189.604 33.1743 197.901 37.1653 207.715 38.128L208.691 28.1758ZM194.254 20.6992L185.477 15.9072C185.437 15.9805 185.236 16.3423 184.402 16.8049C183.506 17.302 181.817 17.9384 178.921 18.2241L179.902 28.1758L180.884 38.1275C190.759 37.1535 198.882 33.0901 203.031 25.4913L194.254 20.6992ZM179.902 28.1758L189.013 24.0541L186.564 18.64L177.453 22.7617L168.342 26.8834L170.791 32.2975L179.902 28.1758ZM177.453 22.7617L178.44 32.7129C187.736 31.791 195.678 28.1255 198.579 20.4569L189.227 16.918L179.874 13.379C180.362 12.0873 181.11 11.678 180.944 11.7733C180.676 11.9275 179.442 12.5154 176.466 12.8105L177.453 22.7617ZM189.227 16.918V6.91797H179.516V16.918V26.918H189.227V16.918ZM179.516 16.918H189.516V11.5469H179.516L169.516 11.5469V16.918H179.516ZM179.516 11.5469V21.5469L209.164 21.5469V11.5469V1.54687L179.516 1.54687V11.5469ZM212.473 29.3789H202.473V34.8359H212.473H222.473V29.3789H212.473ZM212.473 34.8359V24.8359L198.336 24.8359V34.8359V44.8359H212.473V34.8359ZM198.336 34.8359H188.336V40.8516H198.336H208.336V34.8359H198.336ZM198.336 40.8516V30.8516H191.504V40.8516V50.8516H198.336V40.8516ZM191.504 40.8516H201.504V34.8359H191.504H181.504V40.8516H191.504ZM191.504 34.8359V24.8359H176.207V34.8359V44.8359H191.504V34.8359ZM176.207 34.8359H186.207V29.3789H176.207H166.207V34.8359H176.207ZM176.207 29.3789V39.3789H212.473V29.3789V19.3789L176.207 19.3789V29.3789ZM208.52 43.6875H198.52V49.1875H208.52H218.52V43.6875H208.52ZM208.52 49.1875V39.1875H180.16V49.1875V59.1875H208.52V49.1875ZM180.16 49.1875H190.16V37.5859H180.16H170.16V49.1875H180.16ZM180.16 37.5859V47.5859H187.035V37.5859V27.5859H180.16V37.5859ZM187.035 37.5859H177.035V43.6875H187.035H197.035V37.5859H187.035ZM187.035 43.6875V53.6875H208.52V43.6875V33.6875H187.035V43.6875ZM247.793 10H257.793C257.793 4.47715 253.316 0 247.793 0V10ZM247.793 49.875V59.875C253.316 59.875 257.793 55.3978 257.793 49.875H247.793ZM240.832 49.875H230.832C230.832 55.3978 235.309 59.875 240.832 59.875V49.875ZM240.832 10V0C235.309 0 230.832 4.47715 230.832 10L240.832 10ZM225.965 12.6641L225.895 22.6638C225.942 22.6641 225.989 22.6641 226.036 22.6638L225.965 12.6641ZM225.965 18.8945L225.795 28.8931C225.912 28.8951 226.03 28.895 226.147 28.8929L225.965 18.8945ZM247.793 10H237.793V49.875H247.793H257.793V10H247.793ZM247.793 49.875V39.875H240.832V49.875V59.875H247.793V49.875ZM240.832 49.875H250.832V10H240.832L230.832 10V49.875H240.832ZM240.832 10V20H247.793V10V0L240.832 0V10ZM225.965 12.6641L226.036 22.6638C225.968 22.6643 225.798 22.6406 225.623 22.5508C225.461 22.4681 225.47 22.4198 225.591 22.5782C225.861 22.9327 226.578 24.2334 226.578 26.9727H236.578H246.578C246.578 20.9463 245.017 15.0712 241.496 10.4521C237.848 5.66819 232.315 2.61877 225.894 2.66431L225.965 12.6641ZM236.578 26.9727H226.578C226.578 29.8028 225.848 31.1249 225.579 31.4804C225.458 31.6391 225.447 31.594 225.601 31.5147C225.767 31.4293 225.92 31.4102 225.965 31.4102V41.4102V51.4102C232.338 51.4102 237.857 48.3834 241.508 43.5733C245.031 38.9337 246.578 33.0371 246.578 26.9727H236.578ZM225.965 41.4102V31.4102C225.943 31.4102 226.048 31.4135 226.186 31.483C226.314 31.5479 226.295 31.5815 226.176 31.4265C225.91 31.0816 225.18 29.7839 225.18 26.9727H215.18L205.18 26.9727C205.18 33.056 206.748 38.977 210.328 43.6273C214.041 48.4498 219.603 51.4102 225.965 51.4102V41.4102ZM215.18 26.9727H225.18C225.18 24.2526 225.897 22.9762 226.163 22.632C226.283 22.4774 226.299 22.5139 226.164 22.5822C226.103 22.6127 226.037 22.6363 225.975 22.6507C225.913 22.6649 225.882 22.6637 225.895 22.6638L225.965 12.6641L226.034 2.6643C219.625 2.6198 214.05 5.60151 210.341 10.3982C206.761 15.0277 205.18 20.9271 205.18 26.9727L215.18 26.9727ZM225.965 18.8945L226.134 8.89597C220.503 8.80052 216.304 12.0746 214.131 16.1436C212.29 19.59 211.84 23.5385 211.84 26.9727H221.84H231.84C231.84 26.0559 231.908 25.4897 231.961 25.2055C232.017 24.8993 232.023 25.0966 231.772 25.5664C231.506 26.0649 230.88 26.9904 229.666 27.7722C228.387 28.5955 226.991 28.9134 225.795 28.8931L225.965 18.8945ZM221.84 26.9727H211.84C211.84 30.4271 212.284 34.3944 214.139 37.8541C216.354 41.9836 220.529 45.0937 225.965 45.0937V35.0937V25.0937C227.075 25.0937 228.411 25.3965 229.658 26.1982C230.854 26.9673 231.486 27.8831 231.764 28.4018C232.023 28.8846 232.019 29.0928 231.962 28.7849C231.909 28.4977 231.84 27.9194 231.84 26.9727H221.84ZM225.965 35.0937V45.0937C231.564 45.0937 235.615 41.7294 237.691 37.7986C239.49 34.3926 239.961 30.4806 239.961 26.9727H229.961H219.961C219.961 27.9039 219.891 28.4806 219.837 28.7724C219.779 29.0842 219.77 28.9062 220.007 28.4572C220.256 27.9865 220.851 27.0851 222.023 26.3005C223.263 25.4703 224.673 25.0937 225.965 25.0937V35.0937ZM229.961 26.9727H239.961C239.961 23.4853 239.484 19.5914 237.699 16.199C235.668 12.3393 231.59 8.79061 225.783 8.89618L225.965 18.8945L226.147 28.8929C224.761 28.9181 223.286 28.5217 222.015 27.6697C220.827 26.8723 220.236 25.9614 219.999 25.511C219.77 25.075 219.781 24.9078 219.838 25.218C219.892 25.507 219.961 26.0715 219.961 26.9727H229.961ZM285.434 25.5117H295.434C295.434 19.9889 290.956 15.5117 285.434 15.5117V25.5117ZM285.434 31.0117V41.0117C290.956 41.0117 295.434 36.5346 295.434 31.0117H285.434ZM278.387 31.0117V21.0117C272.864 21.0117 268.387 25.4889 268.387 31.0117H278.387ZM278.387 36.6836H268.387C268.387 39.3875 269.482 41.9762 271.422 43.8594C273.362 45.7426 275.982 46.7598 278.685 46.6791L278.387 36.6836ZM286.852 36.125L296.798 35.096C296.231 29.6067 291.323 25.615 285.833 26.177L286.852 36.125ZM287.367 41.1094L288.899 50.9914C294.162 50.1756 297.862 45.378 297.314 40.0804L287.367 41.1094ZM262.746 42.4844L252.841 43.8559C253.528 48.8235 257.789 52.5134 262.804 52.4842L262.746 42.4844ZM261.973 36.8984L262.118 26.8995C259.201 26.8572 256.412 28.0903 254.48 30.2757C252.548 32.4611 251.667 35.3808 252.067 38.27L261.973 36.8984ZM271.469 36.8984L271.599 46.8976C277.07 46.8265 281.469 42.3706 281.469 36.8984H271.469ZM271.469 31.0117H281.469C281.469 25.4889 276.992 21.0117 271.469 21.0117V31.0117ZM264.336 31.0117H254.336C254.336 36.5346 258.813 41.0117 264.336 41.0117V31.0117ZM264.336 13.3945V3.39453C258.813 3.39453 254.336 7.87168 254.336 13.3945H264.336ZM285.262 13.3945H295.262C295.262 7.87168 290.785 3.39453 285.262 3.39453V13.3945ZM285.262 18.8086V28.8086C290.785 28.8086 295.262 24.3314 295.262 18.8086H285.262ZM271.211 18.8086V8.80859C265.688 8.80859 261.211 13.2857 261.211 18.8086H271.211ZM271.211 25.5117H261.211C261.211 31.0346 265.688 35.5117 271.211 35.5117V25.5117ZM295.703 10L305.703 10C305.703 4.47715 301.226 0 295.703 0V10ZM295.703 49.875V59.875C301.226 59.875 305.703 55.3978 305.703 49.875H295.703ZM288.871 49.875H278.871C278.871 55.3978 283.348 59.875 288.871 59.875V49.875ZM288.871 10V0C283.348 0 278.871 4.47715 278.871 10H288.871ZM285.434 25.5117H275.434V31.0117H285.434H295.434V25.5117H285.434ZM285.434 31.0117V21.0117H278.387V31.0117V41.0117H285.434V31.0117ZM278.387 31.0117H268.387V36.6836H278.387H288.387V31.0117H278.387ZM278.387 36.6836L278.685 46.6791C281.81 46.5859 284.907 46.3763 287.87 46.073L286.852 36.125L285.833 26.177C283.339 26.4323 280.722 26.6094 278.088 26.688L278.387 36.6836ZM286.852 36.125L276.905 37.154L277.42 42.1384L287.367 41.1094L297.314 40.0804L296.798 35.096L286.852 36.125ZM287.367 41.1094L285.835 31.2274C278.106 32.4255 270.233 32.4407 262.688 32.4845L262.746 42.4844L262.804 52.4842C270.04 52.4421 279.441 52.4573 288.899 50.9914L287.367 41.1094ZM262.746 42.4844L272.652 41.1128L271.878 35.5269L261.973 36.8984L252.067 38.27L252.841 43.8559L262.746 42.4844ZM261.973 36.8984L261.828 46.8974C264.894 46.9418 268.209 46.9416 271.599 46.8976L271.469 36.8984L271.339 26.8993C268.112 26.9412 264.981 26.941 262.118 26.8995L261.973 36.8984ZM271.469 36.8984H281.469V31.0117H271.469H261.469V36.8984H271.469ZM271.469 31.0117V21.0117H264.336V31.0117V41.0117H271.469V31.0117ZM264.336 31.0117H274.336V13.3945H264.336H254.336V31.0117H264.336ZM264.336 13.3945V23.3945H285.262V13.3945V3.39453H264.336V13.3945ZM285.262 13.3945H275.262V18.8086H285.262H295.262V13.3945H285.262ZM285.262 18.8086V8.80859H271.211V18.8086V28.8086H285.262V18.8086ZM271.211 18.8086H261.211V25.5117H271.211H281.211V18.8086H271.211ZM271.211 25.5117V35.5117H285.434V25.5117V15.5117H271.211V25.5117ZM295.703 10H285.703V49.875H295.703H305.703V10L295.703 10ZM295.703 49.875V39.875H288.871V49.875V59.875H295.703V49.875ZM288.871 49.875H298.871V10H288.871H278.871V49.875H288.871ZM288.871 10V20H295.703V10V0L288.871 0V10ZM332.227 20.0977L342.227 20.0977C342.227 14.5748 337.749 10.0977 332.227 10.0977V20.0977ZM332.227 25.4258V35.4258C337.749 35.4258 342.227 30.9486 342.227 25.4258L332.227 25.4258ZM304.125 25.4258H294.125C294.125 30.9486 298.602 35.4258 304.125 35.4258V25.4258ZM304.125 11.418V1.41797C298.602 1.41797 294.125 5.89512 294.125 11.418L304.125 11.418ZM311 11.418H321C321 5.89512 316.523 1.41797 311 1.41797V11.418ZM311 20.0977H301C301 25.6205 305.477 30.0977 311 30.0977V20.0977ZM336.137 28.9492H346.137C346.137 23.4264 341.66 18.9492 336.137 18.9492V28.9492ZM336.137 34.2773V44.2773C341.66 44.2773 346.137 39.8002 346.137 34.2773H336.137ZM299.871 34.2773H289.871C289.871 39.8002 294.348 44.2773 299.871 44.2773V34.2773ZM299.871 28.9492V18.9492C294.348 18.9492 289.871 23.4264 289.871 28.9492H299.871ZM332.484 43.4727H342.484C342.484 37.9498 338.007 33.4727 332.484 33.4727V43.4727ZM332.484 48.9727V58.9727C338.007 58.9727 342.484 54.4955 342.484 48.9727H332.484ZM303.652 48.9727H293.652C293.652 54.4955 298.129 58.9727 303.652 58.9727V48.9727ZM303.652 37.0273V27.0273C298.129 27.0273 293.652 31.5045 293.652 37.0273H303.652ZM310.613 37.0273H320.613C320.613 31.5045 316.136 27.0273 310.613 27.0273V37.0273ZM310.613 43.4727H300.613C300.613 48.9955 305.09 53.4727 310.613 53.4727V43.4727ZM332.227 20.0977H322.227V25.4258H332.227L342.227 25.4258V20.0977L332.227 20.0977ZM332.227 25.4258V15.4258H304.125V25.4258V35.4258H332.227V25.4258ZM304.125 25.4258H314.125V11.418H304.125L294.125 11.418V25.4258H304.125ZM304.125 11.418V21.418H311V11.418V1.41797H304.125V11.418ZM311 11.418L301 11.418V20.0977H311H321V11.418H311ZM311 20.0977V30.0977H332.227V20.0977V10.0977H311V20.0977ZM336.137 28.9492H326.137V34.2773H336.137H346.137V28.9492H336.137ZM336.137 34.2773V24.2773L299.871 24.2773V34.2773V44.2773H336.137V34.2773ZM299.871 34.2773H309.871V28.9492H299.871H289.871V34.2773H299.871ZM299.871 28.9492V38.9492H336.137V28.9492V18.9492L299.871 18.9492V28.9492ZM332.484 43.4727H322.484V48.9727H332.484H342.484V43.4727H332.484ZM332.484 48.9727V38.9727H303.652V48.9727V58.9727H332.484V48.9727ZM303.652 48.9727H313.652V37.0273H303.652H293.652V48.9727H303.652ZM303.652 37.0273V47.0273H310.613V37.0273V27.0273H303.652V37.0273ZM310.613 37.0273H300.613V43.4727H310.613H320.613V37.0273H310.613ZM310.613 43.4727V53.4727H332.484V43.4727V33.4727H310.613V43.4727Z" fill="white" mask="url(#path-1-outside-1_6524_1861)"/>
</g>
<defs>
<filter id="filter0_d_6524_1861" x="0" y="0" width="350.137" height="67.875" filterUnits="userSpaceOnUse" color-interpolation-filters="sRGB">
<feFlood flood-opacity="0" result="BackgroundImageFix"/>
<feColorMatrix in="SourceAlpha" type="matrix" values="0 0 0 0 0 0 0 0 0 0 0 0 0 0 0 0 0 0 127 0" result="hardAlpha"/>
<feOffset dy="4"/>
<feGaussianBlur stdDeviation="2"/>
<feComposite in2="hardAlpha" operator="out"/>
<feColorMatrix type="matrix" values="0 0 0 0 0 0 0 0 0 0 0 0 0 0 0 0 0 0 0.07 0"/>
<feBlend mode="normal" in2="BackgroundImageFix" result="effect1_dropShadow_6524_1861"/>
<feBlend mode="normal" in="SourceGraphic" in2="effect1_dropShadow_6524_1861" result="shape"/>
</filter>
</defs>
</svg>
