<svg width="351" height="68" viewBox="0 0 351 68" fill="none" xmlns="http://www.w3.org/2000/svg">
<g filter="url(#filter0_d_6524_1852)">
<mask id="path-1-outside-1_6524_1852" maskUnits="userSpaceOnUse" x="3.57031" y="-0.292969" width="343" height="61" fill="black">
<rect fill="white" x="3.57031" y="-0.292969" width="343" height="61"/>
<path d="M47.9453 10.2148V30.0234H41.0703V10.2148L47.9453 10.2148ZM47.9883 31.6133V43.1289H27.6641V44.4609H48.8477V49.7891H20.918V38.1445H41.1133V36.8555H20.832V31.6133H47.9883ZM30.4141 13.9961C30.3711 18.3359 32.3906 22.7188 39.2656 24.5664L35.957 29.8516C31.5312 28.6699 28.6094 26.2637 26.8477 23.1484C25.043 26.5645 21.9922 29.25 17.3516 30.4961L14 25.125C21.0469 23.1914 23.1953 18.3789 23.2383 13.9961V10.9453H30.4141V13.9961ZM88.7656 31.9141V37.3711H73.8984V49.918H67.0664V37.3711H52.5V31.9141H88.7656ZM84.6836 12.0195V28.3477L56.4961 28.3477V12.0195H84.6836ZM63.2422 17.4336V22.9766L77.8086 22.9766V17.4336L63.2422 17.4336ZM102.301 12.4492C108.402 12.4492 113.344 16.6602 113.344 22.4609C113.344 27.1445 110.186 30.7539 105.781 32V36.6406C108.531 36.4902 111.26 36.2539 113.859 35.9102L114.332 40.9375C106.168 42.6133 97.4883 42.5273 90.9141 42.4414L90.0977 36.9414C92.7188 36.9199 95.748 36.9199 98.9062 36.8555V32.043C94.3086 30.8398 91.1289 27.209 91.1719 22.4609C91.1289 16.6602 95.9414 12.4492 102.301 12.4492ZM102.301 18.293C99.7656 18.293 97.875 19.668 97.875 22.4609C97.875 25.2109 99.7656 26.6719 102.301 26.6289C104.664 26.6719 106.555 25.2109 106.598 22.4609C106.555 19.668 104.664 18.293 102.301 18.293ZM122.625 10.2148V25.2969H127.352V31.0547H122.625V49.9609H115.707V10.2148H122.625ZM171.867 10.2148V49.9609H164.863V10.2148H171.867ZM159.836 14.2969C159.836 26.7578 156.312 36.6836 141.574 43.5586L138.051 38.1445C147.977 33.418 151.951 27.9609 152.832 19.668H140.328V14.2969H159.836ZM201 12.75V17.6484H177.453V12.75H185.746V10H192.621V12.75H201ZM189.227 18.1641C195.242 18.1641 199.41 20.5703 199.41 24.2656C199.41 27.1875 196.746 29.2285 192.621 29.8945V31.3555C195.479 31.2051 198.314 30.9902 201 30.668L201.473 35.2227C193.18 36.6836 184.07 36.8555 177.195 36.8555L176.379 31.7422C179.236 31.7422 182.416 31.7207 185.746 31.6133V29.8945C181.557 29.207 178.957 27.1875 178.957 24.2656C178.957 20.5703 183.039 18.1641 189.227 18.1641ZM189.227 22.6758C186.949 22.6758 185.617 23.1055 185.617 24.2656C185.617 25.2969 186.949 25.6836 189.227 25.6836C191.332 25.6836 192.793 25.2969 192.836 24.2656C192.793 23.1055 191.332 22.6758 189.227 22.6758ZM209.938 10.3437V37.3711H202.934V10.3437H209.938ZM209.938 38.7461V49.9609H202.934V43.9453H181.793V38.7461H209.938ZM232.324 10.7305C241.648 10.7305 246.977 13.0937 247.02 17.4336C246.977 21.8164 241.648 24.1797 232.324 24.1797C222.957 24.1797 217.543 21.8164 217.586 17.4336C217.543 13.0937 222.957 10.7305 232.324 10.7305ZM232.324 15.7148C226.953 15.7148 224.805 16.2305 224.805 17.4336C224.805 18.8945 226.953 19.1523 232.324 19.1953C237.738 19.1523 239.887 18.8945 239.887 17.4336C239.887 16.2305 237.738 15.7148 232.324 15.7148ZM250.457 25.5117V30.9687H214.191V25.5117H250.457ZM246.16 32.4727V43.4297H224.977V44.7187H247.105V49.7891H218.23V38.7031H239.371V37.5H218.273V32.4727H246.16ZM295.316 10.2148V36.5547H288.398V10.2148H295.316ZM285.004 35.2656C285.004 38.875 287.797 43.2578 297.164 44.4609L294.5 49.832C287.969 48.9082 283.715 46.3301 281.395 42.8711C279.031 46.3086 274.82 48.9082 268.375 49.832L265.711 44.4609C275.078 43.3008 277.828 38.875 277.828 35.2656V34.75H285.004V35.2656ZM273.359 12.5781C279.633 12.5781 284.488 16.7031 284.488 22.418C284.488 28.2187 279.633 32.3867 273.359 32.3867C267.043 32.3867 262.188 28.2187 262.23 22.418C262.188 16.7031 267.043 12.5781 273.359 12.5781ZM273.359 18.4219C270.738 18.4219 268.934 19.7109 268.934 22.418C268.934 25.168 270.738 26.5859 273.359 26.5859C275.852 26.5859 277.656 25.168 277.656 22.418C277.656 19.7109 275.852 18.4219 273.359 18.4219ZM332.184 20.3125V25.6406H304.082V11.6328H310.957V20.3125H332.184ZM336.094 29.1641V34.4922H299.828V29.1641H336.094ZM332.441 43.6875V49.1875H303.609V37.2422H310.57V43.6875H332.441Z"/>
</mask>
<path d="M47.9453 10.2148V30.0234H41.0703V10.2148L47.9453 10.2148ZM47.9883 31.6133V43.1289H27.6641V44.4609H48.8477V49.7891H20.918V38.1445H41.1133V36.8555H20.832V31.6133H47.9883ZM30.4141 13.9961C30.3711 18.3359 32.3906 22.7188 39.2656 24.5664L35.957 29.8516C31.5312 28.6699 28.6094 26.2637 26.8477 23.1484C25.043 26.5645 21.9922 29.25 17.3516 30.4961L14 25.125C21.0469 23.1914 23.1953 18.3789 23.2383 13.9961V10.9453H30.4141V13.9961ZM88.7656 31.9141V37.3711H73.8984V49.918H67.0664V37.3711H52.5V31.9141H88.7656ZM84.6836 12.0195V28.3477L56.4961 28.3477V12.0195H84.6836ZM63.2422 17.4336V22.9766L77.8086 22.9766V17.4336L63.2422 17.4336ZM102.301 12.4492C108.402 12.4492 113.344 16.6602 113.344 22.4609C113.344 27.1445 110.186 30.7539 105.781 32V36.6406C108.531 36.4902 111.26 36.2539 113.859 35.9102L114.332 40.9375C106.168 42.6133 97.4883 42.5273 90.9141 42.4414L90.0977 36.9414C92.7188 36.9199 95.748 36.9199 98.9062 36.8555V32.043C94.3086 30.8398 91.1289 27.209 91.1719 22.4609C91.1289 16.6602 95.9414 12.4492 102.301 12.4492ZM102.301 18.293C99.7656 18.293 97.875 19.668 97.875 22.4609C97.875 25.2109 99.7656 26.6719 102.301 26.6289C104.664 26.6719 106.555 25.2109 106.598 22.4609C106.555 19.668 104.664 18.293 102.301 18.293ZM122.625 10.2148V25.2969H127.352V31.0547H122.625V49.9609H115.707V10.2148H122.625ZM171.867 10.2148V49.9609H164.863V10.2148H171.867ZM159.836 14.2969C159.836 26.7578 156.312 36.6836 141.574 43.5586L138.051 38.1445C147.977 33.418 151.951 27.9609 152.832 19.668H140.328V14.2969H159.836ZM201 12.75V17.6484H177.453V12.75H185.746V10H192.621V12.75H201ZM189.227 18.1641C195.242 18.1641 199.41 20.5703 199.41 24.2656C199.41 27.1875 196.746 29.2285 192.621 29.8945V31.3555C195.479 31.2051 198.314 30.9902 201 30.668L201.473 35.2227C193.18 36.6836 184.07 36.8555 177.195 36.8555L176.379 31.7422C179.236 31.7422 182.416 31.7207 185.746 31.6133V29.8945C181.557 29.207 178.957 27.1875 178.957 24.2656C178.957 20.5703 183.039 18.1641 189.227 18.1641ZM189.227 22.6758C186.949 22.6758 185.617 23.1055 185.617 24.2656C185.617 25.2969 186.949 25.6836 189.227 25.6836C191.332 25.6836 192.793 25.2969 192.836 24.2656C192.793 23.1055 191.332 22.6758 189.227 22.6758ZM209.938 10.3437V37.3711H202.934V10.3437H209.938ZM209.938 38.7461V49.9609H202.934V43.9453H181.793V38.7461H209.938ZM232.324 10.7305C241.648 10.7305 246.977 13.0937 247.02 17.4336C246.977 21.8164 241.648 24.1797 232.324 24.1797C222.957 24.1797 217.543 21.8164 217.586 17.4336C217.543 13.0937 222.957 10.7305 232.324 10.7305ZM232.324 15.7148C226.953 15.7148 224.805 16.2305 224.805 17.4336C224.805 18.8945 226.953 19.1523 232.324 19.1953C237.738 19.1523 239.887 18.8945 239.887 17.4336C239.887 16.2305 237.738 15.7148 232.324 15.7148ZM250.457 25.5117V30.9687H214.191V25.5117H250.457ZM246.16 32.4727V43.4297H224.977V44.7187H247.105V49.7891H218.23V38.7031H239.371V37.5H218.273V32.4727H246.16ZM295.316 10.2148V36.5547H288.398V10.2148H295.316ZM285.004 35.2656C285.004 38.875 287.797 43.2578 297.164 44.4609L294.5 49.832C287.969 48.9082 283.715 46.3301 281.395 42.8711C279.031 46.3086 274.82 48.9082 268.375 49.832L265.711 44.4609C275.078 43.3008 277.828 38.875 277.828 35.2656V34.75H285.004V35.2656ZM273.359 12.5781C279.633 12.5781 284.488 16.7031 284.488 22.418C284.488 28.2187 279.633 32.3867 273.359 32.3867C267.043 32.3867 262.188 28.2187 262.23 22.418C262.188 16.7031 267.043 12.5781 273.359 12.5781ZM273.359 18.4219C270.738 18.4219 268.934 19.7109 268.934 22.418C268.934 25.168 270.738 26.5859 273.359 26.5859C275.852 26.5859 277.656 25.168 277.656 22.418C277.656 19.7109 275.852 18.4219 273.359 18.4219ZM332.184 20.3125V25.6406H304.082V11.6328H310.957V20.3125H332.184ZM336.094 29.1641V34.4922H299.828V29.1641H336.094ZM332.441 43.6875V49.1875H303.609V37.2422H310.57V43.6875H332.441Z" fill="#11DCA9"/>
<path d="M47.9453 10.2148H57.9453C57.9453 4.692 53.4682 0.214844 47.9453 0.214844V10.2148ZM47.9453 30.0234V40.0234C53.4682 40.0234 57.9453 35.5463 57.9453 30.0234H47.9453ZM41.0703 30.0234H31.0703C31.0703 35.5463 35.5475 40.0234 41.0703 40.0234V30.0234ZM41.0703 10.2148V0.214844C35.5475 0.214844 31.0703 4.692 31.0703 10.2148H41.0703ZM47.9883 31.6133H57.9883C57.9883 26.0904 53.5111 21.6133 47.9883 21.6133V31.6133ZM47.9883 43.1289V53.1289C53.5111 53.1289 57.9883 48.6518 57.9883 43.1289H47.9883ZM27.6641 43.1289V33.1289C22.1412 33.1289 17.6641 37.6061 17.6641 43.1289H27.6641ZM27.6641 44.4609H17.6641C17.6641 49.9838 22.1412 54.4609 27.6641 54.4609V44.4609ZM48.8477 44.4609H58.8477C58.8477 38.9381 54.3705 34.4609 48.8477 34.4609V44.4609ZM48.8477 49.7891V59.7891C54.3705 59.7891 58.8477 55.3119 58.8477 49.7891H48.8477ZM20.918 49.7891H10.918C10.918 55.3119 15.3951 59.7891 20.918 59.7891V49.7891ZM20.918 38.1445V28.1445C15.3951 28.1445 10.918 32.6217 10.918 38.1445H20.918ZM41.1133 38.1445V48.1445C46.6361 48.1445 51.1133 43.6674 51.1133 38.1445H41.1133ZM41.1133 36.8555H51.1133C51.1133 31.3326 46.6361 26.8555 41.1133 26.8555V36.8555ZM20.832 36.8555H10.832C10.832 42.3783 15.3092 46.8555 20.832 46.8555V36.8555ZM20.832 31.6133V21.6133C15.3092 21.6133 10.832 26.0904 10.832 31.6133H20.832ZM30.4141 13.9961L40.4136 14.0951C40.4139 14.0621 40.4141 14.0291 40.4141 13.9961H30.4141ZM39.2656 24.5664L47.7417 29.8726C49.424 27.1853 49.7323 23.8594 48.5727 20.9087C47.413 17.958 44.9228 15.7319 41.861 14.9091L39.2656 24.5664ZM35.957 29.8516L33.3775 39.5131C37.6192 40.6456 42.1036 38.879 44.4331 35.1577L35.957 29.8516ZM26.8477 23.1484L35.5522 18.2259C33.7526 15.0437 30.3599 13.0971 26.7044 13.1495C23.049 13.2018 19.7134 15.2448 18.0057 18.4772L26.8477 23.1484ZM17.3516 30.4961L8.86777 35.79C11.1976 39.5237 15.6945 41.2953 19.9449 40.154L17.3516 30.4961ZM14 25.125L11.3539 15.4814C8.30785 16.3173 5.83575 18.5431 4.68601 21.485C3.53627 24.427 3.84406 27.7392 5.51621 30.4189L14 25.125ZM23.2383 13.9961L33.2378 14.0941C33.2381 14.0615 33.2383 14.0288 33.2383 13.9961H23.2383ZM23.2383 10.9453V0.945312C17.7154 0.945312 13.2383 5.42247 13.2383 10.9453H23.2383ZM30.4141 10.9453H40.4141C40.4141 5.42247 35.9369 0.945312 30.4141 0.945312V10.9453ZM47.9453 10.2148L37.9453 10.2148V30.0234H47.9453H57.9453V10.2148H47.9453ZM47.9453 30.0234V20.0234H41.0703V30.0234V40.0234H47.9453V30.0234ZM41.0703 30.0234H51.0703V10.2148L41.0703 10.2148H31.0703V30.0234H41.0703ZM41.0703 10.2148V20.2148H47.9453V10.2148V0.214844H41.0703V10.2148ZM47.9883 31.6133H37.9883V43.1289H47.9883H57.9883V31.6133H47.9883ZM47.9883 43.1289V33.1289H27.6641V43.1289V53.1289H47.9883V43.1289ZM27.6641 43.1289H17.6641V44.4609H27.6641H37.6641V43.1289H27.6641ZM27.6641 44.4609V54.4609H48.8477V44.4609V34.4609H27.6641V44.4609ZM48.8477 44.4609H38.8477V49.7891H48.8477H58.8477V44.4609H48.8477ZM48.8477 49.7891V39.7891H20.918V49.7891V59.7891H48.8477V49.7891ZM20.918 49.7891H30.918V38.1445H20.918H10.918V49.7891H20.918ZM20.918 38.1445V48.1445H41.1133V38.1445V28.1445H20.918V38.1445ZM41.1133 38.1445H51.1133V36.8555H41.1133H31.1133V38.1445H41.1133ZM41.1133 36.8555V26.8555H20.832V36.8555V46.8555H41.1133V36.8555ZM20.832 36.8555H30.832V31.6133H20.832H10.832L10.832 36.8555H20.832ZM20.832 31.6133V41.6133H47.9883V31.6133V21.6133H20.832V31.6133ZM30.4141 13.9961L20.4146 13.8971C20.3776 17.6295 21.2311 22.0712 24.1572 26.0962C27.1276 30.1819 31.5048 32.8355 36.6702 34.2237L39.2656 24.5664L41.861 14.9091C40.9773 14.6716 40.5318 14.4284 40.3617 14.3197C40.2095 14.2224 40.246 14.2145 40.334 14.3355C40.5424 14.6221 40.4076 14.7025 40.4136 14.0951L30.4141 13.9961ZM39.2656 24.5664L30.7895 19.2602L27.4809 24.5454L35.957 29.8516L44.4331 35.1577L47.7417 29.8726L39.2656 24.5664ZM35.957 29.8516L38.5366 20.19C37.4452 19.8986 36.81 19.5329 36.4397 19.2525C36.0768 18.9777 35.7945 18.6544 35.5522 18.2259L26.8477 23.1484L18.1431 28.071C21.3007 33.6544 26.5043 37.6781 33.3775 39.5131L35.957 29.8516ZM26.8477 23.1484L18.0057 18.4772C17.6956 19.0643 17.3357 19.4918 16.9178 19.826C16.5025 20.1581 15.8444 20.5466 14.7582 20.8382L17.3516 30.4961L19.9449 40.154C27.2849 38.183 32.5927 33.6817 35.6896 27.8196L26.8477 23.1484ZM17.3516 30.4961L25.8354 25.2022L22.4838 19.8311L14 25.125L5.51621 30.4189L8.86777 35.79L17.3516 30.4961ZM14 25.125L16.6461 34.7686C22.0563 33.2841 26.4379 30.4145 29.3829 26.2914C32.2553 22.27 33.201 17.8444 33.2378 14.0941L23.2383 13.9961L13.2388 13.8981C13.2358 14.2039 13.1962 14.4131 13.1615 14.5331C13.1449 14.5904 13.1303 14.6247 13.1224 14.6414C13.1149 14.6571 13.1104 14.6636 13.1083 14.6666C13.1066 14.669 13.0971 14.6824 13.0709 14.7076C13.0446 14.7329 12.987 14.7841 12.8817 14.854C12.6759 14.9905 12.2165 15.2447 11.3539 15.4814L14 25.125ZM23.2383 13.9961H33.2383V10.9453H23.2383H13.2383V13.9961H23.2383ZM23.2383 10.9453V20.9453H30.4141V10.9453V0.945312L23.2383 0.945312V10.9453ZM30.4141 10.9453H20.4141V13.9961H30.4141H40.4141V10.9453H30.4141ZM88.7656 31.9141H98.7656C98.7656 26.3912 94.2885 21.9141 88.7656 21.9141V31.9141ZM88.7656 37.3711V47.3711C94.2885 47.3711 98.7656 42.8939 98.7656 37.3711H88.7656ZM73.8984 37.3711V27.3711C68.3756 27.3711 63.8984 31.8482 63.8984 37.3711H73.8984ZM73.8984 49.918V59.918C79.4213 59.918 83.8984 55.4408 83.8984 49.918H73.8984ZM67.0664 49.918H57.0664C57.0664 55.4408 61.5436 59.918 67.0664 59.918V49.918ZM67.0664 37.3711H77.0664C77.0664 31.8482 72.5893 27.3711 67.0664 27.3711V37.3711ZM52.5 37.3711H42.5C42.5 42.8939 46.9772 47.3711 52.5 47.3711V37.3711ZM52.5 31.9141V21.9141C46.9772 21.9141 42.5 26.3912 42.5 31.9141H52.5ZM84.6836 12.0195H94.6836C94.6836 6.49668 90.2064 2.01953 84.6836 2.01953V12.0195ZM84.6836 28.3477V38.3477C90.2064 38.3477 94.6836 33.8705 94.6836 28.3477H84.6836ZM56.4961 28.3477H46.4961C46.4961 33.8705 50.9732 38.3477 56.4961 38.3477V28.3477ZM56.4961 12.0195V2.01953C50.9732 2.01953 46.4961 6.49668 46.4961 12.0195H56.4961ZM63.2422 17.4336V7.43359C57.7193 7.43359 53.2422 11.9107 53.2422 17.4336H63.2422ZM63.2422 22.9766H53.2422C53.2422 28.4994 57.7193 32.9766 63.2422 32.9766V22.9766ZM77.8086 22.9766V32.9766C83.3314 32.9766 87.8086 28.4994 87.8086 22.9766H77.8086ZM77.8086 17.4336H87.8086C87.8086 11.9107 83.3314 7.43359 77.8086 7.43359V17.4336ZM88.7656 31.9141H78.7656V37.3711H88.7656H98.7656V31.9141H88.7656ZM88.7656 37.3711V27.3711L73.8984 27.3711V37.3711V47.3711H88.7656V37.3711ZM73.8984 37.3711H63.8984V49.918H73.8984H83.8984V37.3711H73.8984ZM73.8984 49.918V39.918H67.0664V49.918V59.918H73.8984V49.918ZM67.0664 49.918H77.0664V37.3711H67.0664H57.0664V49.918H67.0664ZM67.0664 37.3711V27.3711H52.5V37.3711V47.3711H67.0664V37.3711ZM52.5 37.3711H62.5V31.9141H52.5H42.5V37.3711H52.5ZM52.5 31.9141V41.9141H88.7656V31.9141V21.9141L52.5 21.9141V31.9141ZM84.6836 12.0195H74.6836V28.3477L84.6836 28.3477H94.6836V12.0195H84.6836ZM84.6836 28.3477V18.3477L56.4961 18.3477V28.3477V38.3477H84.6836V28.3477ZM56.4961 28.3477H66.4961V12.0195H56.4961H46.4961V28.3477H56.4961ZM56.4961 12.0195V22.0195L84.6836 22.0195V12.0195V2.01953L56.4961 2.01953V12.0195ZM63.2422 17.4336H53.2422V22.9766H63.2422H73.2422V17.4336H63.2422ZM63.2422 22.9766V32.9766H77.8086V22.9766V12.9766L63.2422 12.9766V22.9766ZM77.8086 22.9766H87.8086V17.4336H77.8086L67.8086 17.4336V22.9766L77.8086 22.9766ZM77.8086 17.4336V7.43359H63.2422V17.4336V27.4336L77.8086 27.4336V17.4336ZM105.781 32L103.059 22.3777C98.7535 23.5958 95.7812 27.5256 95.7812 32H105.781ZM105.781 36.6406H95.7812C95.7812 39.3876 96.9112 42.0136 98.906 43.9022C100.901 45.7908 103.584 46.7757 106.327 46.6257L105.781 36.6406ZM113.859 35.9102L123.815 34.9741C123.561 32.2685 122.216 29.7828 120.091 28.0893C117.966 26.3958 115.243 25.6402 112.548 25.9965L113.859 35.9102ZM114.332 40.9375L116.343 50.7333C121.341 49.7072 124.766 45.082 124.288 40.0015L114.332 40.9375ZM90.9141 42.4414L81.0224 43.9097C81.7428 48.7628 85.8775 52.3764 90.7834 52.4406L90.9141 42.4414ZM90.0977 36.9414L90.0157 26.9417C87.1216 26.9655 84.3798 28.2418 82.4985 30.4411C80.6173 32.6404 79.7811 35.5469 80.206 38.4097L90.0977 36.9414ZM98.9062 36.8555L99.1103 46.8534C104.552 46.7423 108.906 42.2988 108.906 36.8555H98.9062ZM98.9062 32.043H108.906C108.906 27.4951 105.838 23.52 101.438 22.3687L98.9062 32.043ZM91.1719 22.4609L101.171 22.5514C101.172 22.4966 101.172 22.4417 101.172 22.3869L91.1719 22.4609ZM102.301 26.6289L102.483 16.6306C102.365 16.6284 102.248 16.6284 102.131 16.6303L102.301 26.6289ZM106.598 22.4609L116.596 22.6172C116.598 22.5138 116.598 22.4105 116.596 22.3071L106.598 22.4609ZM122.625 10.2148H132.625C132.625 4.692 128.148 0.214844 122.625 0.214844V10.2148ZM122.625 25.2969H112.625C112.625 30.8197 117.102 35.2969 122.625 35.2969V25.2969ZM127.352 25.2969H137.352C137.352 19.774 132.874 15.2969 127.352 15.2969V25.2969ZM127.352 31.0547V41.0547C132.874 41.0547 137.352 36.5775 137.352 31.0547H127.352ZM122.625 31.0547V21.0547C117.102 21.0547 112.625 25.5318 112.625 31.0547H122.625ZM122.625 49.9609V59.9609C128.148 59.9609 132.625 55.4838 132.625 49.9609H122.625ZM115.707 49.9609H105.707C105.707 55.4838 110.184 59.9609 115.707 59.9609V49.9609ZM115.707 10.2148V0.214844C110.184 0.214844 105.707 4.692 105.707 10.2148L115.707 10.2148ZM102.301 12.4492V22.4492C103.067 22.4492 103.417 22.7093 103.463 22.7506C103.482 22.7676 103.441 22.7352 103.396 22.6393C103.348 22.5333 103.344 22.4543 103.344 22.4609H113.344H123.344C123.344 10.0714 112.795 2.44922 102.301 2.44922V12.4492ZM113.344 22.4609H103.344C103.344 22.483 103.342 22.4816 103.346 22.4611C103.349 22.4407 103.356 22.4101 103.37 22.3734C103.398 22.2944 103.436 22.2339 103.464 22.2003C103.518 22.1334 103.439 22.2701 103.059 22.3777L105.781 32L108.504 41.6223C116.612 39.3282 123.344 32.2142 123.344 22.4609H113.344ZM105.781 32H95.7812V36.6406H105.781H115.781V32H105.781ZM105.781 36.6406L106.327 46.6257C109.28 46.4643 112.269 46.2075 115.17 45.8239L113.859 35.9102L112.548 25.9965C110.251 26.3003 107.783 26.5162 105.235 26.6555L105.781 36.6406ZM113.859 35.9102L103.903 36.8462L104.376 41.8735L114.332 40.9375L124.288 40.0015L123.815 34.9741L113.859 35.9102ZM114.332 40.9375L112.321 31.1417C105.37 32.5685 97.7357 32.5297 91.0448 32.4423L90.9141 42.4414L90.7834 52.4406C97.2408 52.525 106.966 52.658 116.343 50.7333L114.332 40.9375ZM90.9141 42.4414L100.806 40.9731L99.9893 35.4731L90.0977 36.9414L80.206 38.4097L81.0224 43.9097L90.9141 42.4414ZM90.0977 36.9414L90.1796 46.9411C92.6934 46.9205 95.8717 46.9195 99.1103 46.8534L98.9062 36.8555L98.7022 26.8575C95.6244 26.9204 92.7441 26.9194 90.0157 26.9417L90.0977 36.9414ZM98.9062 36.8555H108.906V32.043H98.9062H88.9062V36.8555H98.9062ZM98.9062 32.043L101.438 22.3687C100.971 22.2465 100.912 22.0953 101.009 22.2128C101.055 22.2687 101.106 22.3529 101.141 22.4519C101.177 22.553 101.171 22.5989 101.171 22.5514L91.1719 22.4609L81.1723 22.3704C81.0823 32.3183 87.9726 39.5185 96.3747 41.7172L98.9062 32.043ZM91.1719 22.4609L101.172 22.3869C101.171 22.35 101.175 22.4262 101.118 22.5516C101.065 22.67 101.004 22.732 100.993 22.7417C100.968 22.764 101.316 22.4492 102.301 22.4492V12.4492V2.44922C91.5708 2.44922 81.0798 10.0705 81.1721 22.535L91.1719 22.4609ZM102.301 18.293V8.29297C99.3247 8.29297 95.6313 9.10169 92.5413 11.8133C89.2558 14.6965 87.875 18.6597 87.875 22.4609H97.875H107.875C107.875 23.4693 107.44 25.3484 105.733 26.8458C104.222 28.1717 102.742 28.293 102.301 28.293V18.293ZM97.875 22.4609H87.875C87.875 26.2601 89.2656 30.1897 92.4841 33.058C95.5596 35.7987 99.3012 36.6812 102.47 36.6275L102.301 26.6289L102.131 16.6303C102.765 16.6196 104.294 16.7931 105.79 18.1266C107.43 19.5876 107.875 21.4118 107.875 22.4609H97.875ZM102.301 26.6289L102.119 36.6273C105.381 36.6866 109.066 35.7024 112.049 32.9894C115.132 30.1843 116.538 26.3708 116.596 22.6172L106.598 22.4609L96.5989 22.3047C96.6146 21.3011 97.0535 19.5931 98.59 18.1952C100.025 16.8894 101.583 16.6142 102.483 16.6306L102.301 26.6289ZM106.598 22.4609L116.596 22.3071C116.539 18.5481 115.141 14.702 111.992 11.8812C108.989 9.19142 105.357 8.29297 102.301 8.29297V18.293V28.293C101.608 28.293 100.103 28.082 98.6469 26.7779C97.0449 25.3429 96.6137 23.5808 96.5988 22.6148L106.598 22.4609ZM122.625 10.2148H112.625V25.2969H122.625H132.625V10.2148H122.625ZM122.625 25.2969V35.2969H127.352V25.2969V15.2969H122.625V25.2969ZM127.352 25.2969H117.352V31.0547H127.352H137.352V25.2969H127.352ZM127.352 31.0547V21.0547H122.625V31.0547V41.0547H127.352V31.0547ZM122.625 31.0547H112.625V49.9609H122.625H132.625V31.0547H122.625ZM122.625 49.9609V39.9609H115.707V49.9609V59.9609H122.625V49.9609ZM115.707 49.9609H125.707V10.2148H115.707L105.707 10.2148V49.9609H115.707ZM115.707 10.2148V20.2148H122.625V10.2148V0.214844L115.707 0.214844V10.2148ZM171.867 10.2148L181.867 10.2148C181.867 4.692 177.39 0.214844 171.867 0.214844V10.2148ZM171.867 49.9609V59.9609C177.39 59.9609 181.867 55.4838 181.867 49.9609H171.867ZM164.863 49.9609H154.863C154.863 55.4838 159.34 59.9609 164.863 59.9609V49.9609ZM164.863 10.2148V0.214844C159.34 0.214844 154.863 4.692 154.863 10.2148H164.863ZM159.836 14.2969H169.836C169.836 8.77403 165.359 4.29687 159.836 4.29687V14.2969ZM141.574 43.5586L133.193 49.0132C135.91 53.1887 141.287 54.7272 145.802 52.6211L141.574 43.5586ZM138.051 38.1445L133.751 29.1159C131.149 30.3552 129.208 32.6573 128.426 35.4317C127.644 38.2062 128.097 41.1831 129.669 43.5991L138.051 38.1445ZM152.832 19.668L162.776 20.7242C163.076 17.9041 162.164 15.0894 160.267 12.9808C158.371 10.8721 155.668 9.66797 152.832 9.66797V19.668ZM140.328 19.668H130.328C130.328 25.1908 134.805 29.668 140.328 29.668V19.668ZM140.328 14.2969V4.29687C134.805 4.29687 130.328 8.77403 130.328 14.2969H140.328ZM171.867 10.2148H161.867V49.9609H171.867H181.867V10.2148L171.867 10.2148ZM171.867 49.9609V39.9609H164.863V49.9609V59.9609H171.867V49.9609ZM164.863 49.9609H174.863V10.2148L164.863 10.2148H154.863V49.9609H164.863ZM164.863 10.2148V20.2148H171.867V10.2148V0.214844L164.863 0.214844V10.2148ZM159.836 14.2969H149.836C149.836 19.6714 149.058 23.3468 147.492 26.1636C146.009 28.8302 143.255 31.74 137.347 34.4961L141.574 43.5586L145.802 52.6211C154.632 48.5021 161.008 43.0116 164.972 35.8813C168.853 28.9012 169.836 21.3833 169.836 14.2969H159.836ZM141.574 43.5586L149.956 38.104L146.432 32.69L138.051 38.1445L129.669 43.5991L133.193 49.0132L141.574 43.5586ZM138.051 38.1445L142.35 47.1731C148.13 44.4209 153.077 41.0405 156.704 36.4119C160.442 31.6423 162.182 26.3131 162.776 20.7242L152.832 19.668L142.888 18.6117C142.601 21.3158 141.913 22.8616 140.962 24.0754C139.901 25.4302 137.898 27.1416 133.751 29.1159L138.051 38.1445ZM152.832 19.668V9.66797H140.328V19.668V29.668L152.832 29.668V19.668ZM140.328 19.668H150.328V14.2969H140.328H130.328V19.668H140.328ZM140.328 14.2969V24.2969H159.836V14.2969V4.29687L140.328 4.29687V14.2969ZM201 12.75L211 12.75C211 7.22715 206.523 2.75 201 2.75V12.75ZM201 17.6484V27.6484C206.523 27.6484 211 23.1713 211 17.6484L201 17.6484ZM177.453 17.6484H167.453C167.453 23.1713 171.93 27.6484 177.453 27.6484V17.6484ZM177.453 12.75V2.75C171.93 2.75 167.453 7.22715 167.453 12.75H177.453ZM185.746 12.75V22.75C191.269 22.75 195.746 18.2728 195.746 12.75H185.746ZM185.746 10V0C180.223 0 175.746 4.47715 175.746 10H185.746ZM192.621 10H202.621C202.621 4.47715 198.144 0 192.621 0V10ZM192.621 12.75H182.621C182.621 18.2728 187.098 22.75 192.621 22.75V12.75ZM192.621 29.8945L191.027 20.0224C186.182 20.8046 182.621 24.987 182.621 29.8945H192.621ZM192.621 31.3555H182.621C182.621 34.0989 183.748 36.7218 185.738 38.61C187.729 40.4982 190.407 41.4858 193.147 41.3416L192.621 31.3555ZM201 30.668L210.947 29.6358C210.67 26.9701 209.335 24.5271 207.241 22.8545C205.147 21.182 202.469 20.4199 199.809 20.7392L201 30.668ZM201.473 35.2227L203.208 45.071C208.376 44.1606 211.961 39.4101 211.419 34.1905L201.473 35.2227ZM177.195 36.8555L167.32 38.4321C168.095 43.2849 172.281 46.8555 177.195 46.8555V36.8555ZM176.379 31.7422V21.7422C173.451 21.7422 170.671 23.0251 168.771 25.2525C166.871 27.4798 166.042 30.4279 166.504 33.3189L176.379 31.7422ZM185.746 31.6133L186.069 41.6081C191.463 41.4341 195.746 37.0106 195.746 31.6133H185.746ZM185.746 29.8945H195.746C195.746 24.9967 192.199 20.8197 187.365 20.0265L185.746 29.8945ZM192.836 24.2656L202.827 24.6819C202.838 24.4199 202.839 24.1576 202.829 23.8955L192.836 24.2656ZM209.938 10.3437H219.938C219.938 4.8209 215.46 0.34375 209.938 0.34375V10.3437ZM209.938 37.3711V47.3711C215.46 47.3711 219.938 42.8939 219.938 37.3711H209.938ZM202.934 37.3711H192.934C192.934 42.8939 197.411 47.3711 202.934 47.3711V37.3711ZM202.934 10.3437V0.34375C197.411 0.34375 192.934 4.8209 192.934 10.3437H202.934ZM209.938 38.7461H219.938C219.938 33.2232 215.46 28.7461 209.938 28.7461V38.7461ZM209.938 49.9609V59.9609C215.46 59.9609 219.938 55.4838 219.938 49.9609H209.938ZM202.934 49.9609H192.934C192.934 55.4838 197.411 59.9609 202.934 59.9609V49.9609ZM202.934 43.9453H212.934C212.934 38.4225 208.456 33.9453 202.934 33.9453V43.9453ZM181.793 43.9453H171.793C171.793 49.4682 176.27 53.9453 181.793 53.9453V43.9453ZM181.793 38.7461V28.7461C176.27 28.7461 171.793 33.2232 171.793 38.7461H181.793ZM201 12.75H191V17.6484H201L211 17.6484V12.75L201 12.75ZM201 17.6484V7.64844H177.453V17.6484V27.6484H201V17.6484ZM177.453 17.6484H187.453V12.75H177.453H167.453V17.6484H177.453ZM177.453 12.75V22.75H185.746V12.75V2.75H177.453V12.75ZM185.746 12.75H195.746V10H185.746H175.746V12.75H185.746ZM185.746 10V20H192.621V10V0H185.746V10ZM192.621 10H182.621V12.75H192.621H202.621V10H192.621ZM192.621 12.75V22.75H201V12.75V2.75H192.621V12.75ZM189.227 18.1641V28.1641C190.078 28.1641 190.709 28.2504 191.122 28.3452C191.55 28.4433 191.629 28.5227 191.475 28.4312C191.317 28.3377 190.79 27.9861 190.282 27.2058C189.733 26.3618 189.41 25.317 189.41 24.2656H199.41L209.41 24.2656C209.41 18.0305 205.689 13.6073 201.674 11.227C197.872 8.97307 193.398 8.16406 189.227 8.16406V18.1641ZM199.41 24.2656H189.41C189.41 23.4251 189.614 22.5343 190.031 21.7206C190.435 20.9346 190.925 20.4336 191.262 20.1606C191.85 19.6837 191.975 19.8693 191.027 20.0224L192.621 29.8945L194.215 39.7667C197.392 39.2538 200.912 38.0858 203.863 35.6915C207.039 33.1151 209.41 29.1598 209.41 24.2656L199.41 24.2656ZM192.621 29.8945H182.621V31.3555H192.621H202.621V29.8945H192.621ZM192.621 31.3555L193.147 41.3416C196.144 41.1839 199.215 40.9539 202.191 40.5967L201 30.668L199.809 20.7392C197.414 21.0266 194.813 21.2263 192.096 21.3693L192.621 31.3555ZM201 30.668L191.053 31.7002L191.526 36.2548L201.473 35.2227L211.419 34.1905L210.947 29.6358L201 30.668ZM201.473 35.2227L199.738 25.3743C192.372 26.6719 184.017 26.8555 177.195 26.8555V36.8555V46.8555C184.124 46.8555 193.988 46.6953 203.208 45.071L201.473 35.2227ZM177.195 36.8555L187.07 35.2788L186.254 30.1655L176.379 31.7422L166.504 33.3189L167.32 38.4321L177.195 36.8555ZM176.379 31.7422V41.7422C179.282 41.7422 182.583 41.7205 186.069 41.6081L185.746 31.6133L185.424 21.6185C182.249 21.7209 179.191 21.7422 176.379 21.7422V31.7422ZM185.746 31.6133H195.746V29.8945H185.746H175.746V31.6133H185.746ZM185.746 29.8945L187.365 20.0265C186.343 19.8588 186.483 19.6652 187.096 20.165C187.449 20.4525 187.948 20.9689 188.351 21.7659C188.767 22.5874 188.957 23.4645 188.957 24.2656H178.957H168.957C168.957 29.0909 171.252 33.0538 174.465 35.671C177.425 38.0828 180.959 39.2428 184.127 39.7625L185.746 29.8945ZM178.957 24.2656H188.957C188.957 25.2739 188.653 26.3064 188.102 27.1632C187.589 27.9597 187.048 28.3264 186.871 28.4312C186.701 28.5317 186.773 28.4519 187.217 28.3515C187.647 28.2542 188.313 28.1641 189.227 28.1641V18.1641V8.16406C185.014 8.16406 180.502 8.95649 176.672 11.227C172.583 13.651 168.957 18.1006 168.957 24.2656H178.957ZM189.227 22.6758V12.6758C187.792 12.6758 185.273 12.7621 182.785 13.7789C181.419 14.3369 179.551 15.3809 178.009 17.3347C176.349 19.4394 175.617 21.9094 175.617 24.2656H185.617H195.617C195.617 26.0418 195.052 28.023 193.712 29.7209C192.492 31.2678 191.099 31.9869 190.351 32.2924C189.099 32.8043 188.383 32.6758 189.227 32.6758V22.6758ZM185.617 24.2656H175.617C175.617 26.903 176.553 29.4943 178.373 31.5504C180.004 33.3932 181.891 34.2993 183.137 34.7545C185.47 35.6065 187.831 35.6836 189.227 35.6836V25.6836V15.6836C188.345 15.6836 188.901 15.5673 189.998 15.9682C190.627 16.1977 192.038 16.8138 193.349 18.2941C194.848 19.9876 195.617 22.1439 195.617 24.2656H185.617ZM189.227 25.6836V35.6836C190.634 35.6836 192.896 35.5876 195.158 34.7824C197.387 33.9888 202.555 31.2196 202.827 24.6819L192.836 24.2656L182.845 23.8493C182.942 21.523 183.931 19.4442 185.373 17.9583C186.627 16.6663 187.905 16.1347 188.451 15.9403C189.446 15.5862 189.925 15.6836 189.227 15.6836V25.6836ZM192.836 24.2656L202.829 23.8955C202.607 17.912 198.252 14.8398 195.505 13.7455C193.094 12.7852 190.682 12.6758 189.227 12.6758V22.6758V32.6758C189.877 32.6758 189.248 32.7812 188.104 32.3258C187.45 32.0653 186.171 31.4398 184.986 30.0685C183.663 28.5395 182.916 26.6034 182.843 24.6357L192.836 24.2656ZM209.938 10.3437H199.938V37.3711H209.938H219.938V10.3437H209.938ZM209.938 37.3711V27.3711L202.934 27.3711V37.3711V47.3711H209.938V37.3711ZM202.934 37.3711H212.934V10.3437H202.934H192.934V37.3711H202.934ZM202.934 10.3437V20.3437L209.938 20.3437V10.3437V0.34375H202.934V10.3437ZM209.938 38.7461H199.938V49.9609H209.938H219.938V38.7461H209.938ZM209.938 49.9609V39.9609H202.934V49.9609V59.9609H209.938V49.9609ZM202.934 49.9609H212.934V43.9453H202.934H192.934V49.9609H202.934ZM202.934 43.9453V33.9453H181.793V43.9453V53.9453H202.934V43.9453ZM181.793 43.9453H191.793V38.7461H181.793H171.793V43.9453H181.793ZM181.793 38.7461V48.7461H209.938V38.7461V28.7461H181.793V38.7461ZM247.02 17.4336L257.019 17.5316C257.02 17.466 257.02 17.4003 257.019 17.3346L247.02 17.4336ZM217.586 17.4336L227.585 17.5316C227.586 17.466 227.586 17.4003 227.585 17.3346L217.586 17.4336ZM232.324 19.1953L232.244 29.195C232.297 29.1954 232.35 29.1954 232.404 29.195L232.324 19.1953ZM250.457 25.5117H260.457C260.457 19.9889 255.98 15.5117 250.457 15.5117V25.5117ZM250.457 30.9687V40.9687C255.98 40.9687 260.457 36.4916 260.457 30.9687H250.457ZM214.191 30.9687H204.191C204.191 36.4916 208.669 40.9687 214.191 40.9687V30.9687ZM214.191 25.5117V15.5117C208.669 15.5117 204.191 19.9889 204.191 25.5117L214.191 25.5117ZM246.16 32.4727H256.16C256.16 26.9498 251.683 22.4727 246.16 22.4727V32.4727ZM246.16 43.4297V53.4297C251.683 53.4297 256.16 48.9525 256.16 43.4297H246.16ZM224.977 43.4297V33.4297C219.454 33.4297 214.977 37.9068 214.977 43.4297H224.977ZM224.977 44.7187H214.977C214.977 50.2416 219.454 54.7187 224.977 54.7187V44.7187ZM247.105 44.7187H257.105C257.105 39.1959 252.628 34.7187 247.105 34.7187V44.7187ZM247.105 49.7891V59.7891C252.628 59.7891 257.105 55.3119 257.105 49.7891H247.105ZM218.23 49.7891H208.23C208.23 55.3119 212.708 59.7891 218.23 59.7891V49.7891ZM218.23 38.7031V28.7031C212.708 28.7031 208.23 33.1803 208.23 38.7031H218.23ZM239.371 38.7031V48.7031C244.894 48.7031 249.371 44.226 249.371 38.7031H239.371ZM239.371 37.5H249.371C249.371 31.9772 244.894 27.5 239.371 27.5V37.5ZM218.273 37.5H208.273C208.273 43.0228 212.751 47.5 218.273 47.5V37.5ZM218.273 32.4727V22.4727C212.751 22.4727 208.273 26.9498 208.273 32.4727H218.273ZM232.324 10.7305V20.7305C234.253 20.7305 235.792 20.854 236.97 21.0423C238.176 21.2349 238.806 21.4639 239.028 21.5643C239.258 21.6686 238.75 21.4953 238.143 20.7198C237.434 19.8151 237.031 18.6436 237.02 17.5326L247.02 17.4336L257.019 17.3346C256.946 10.001 251.996 5.4816 247.277 3.34491C242.89 1.3584 237.578 0.730469 232.324 0.730469V10.7305ZM247.02 17.4336L237.02 17.3356C237.031 16.2589 237.419 15.1035 238.121 14.1999C238.725 13.4232 239.234 13.2464 239.011 13.3479C238.795 13.4464 238.17 13.6751 236.967 13.8677C235.791 14.0561 234.253 14.1797 232.324 14.1797V24.1797V34.1797C237.575 34.1797 242.897 33.5527 247.293 31.5525C252.047 29.3898 256.947 24.8447 257.019 17.5316L247.02 17.4336ZM232.324 24.1797V14.1797C230.383 14.1797 228.828 14.0559 227.634 13.866C226.412 13.6717 225.771 13.4401 225.545 13.3379C225.307 13.2303 225.839 13.4109 226.464 14.2197C227.199 15.1692 227.597 16.3917 227.585 17.5316L217.586 17.4336L207.586 17.3356C207.513 24.8231 212.569 29.4207 217.307 31.5625C221.713 33.554 227.059 34.1797 232.324 34.1797V24.1797ZM217.586 17.4336L227.585 17.3346C227.597 18.51 227.183 19.7493 226.443 20.7001C225.814 21.5075 225.284 21.6846 225.529 21.5742C225.761 21.4701 226.406 21.2383 227.63 21.044C228.827 20.8543 230.383 20.7305 232.324 20.7305V10.7305V0.730469C227.056 0.730469 221.72 1.35713 217.323 3.33501C212.622 5.45016 207.512 10.0224 207.586 17.5326L217.586 17.4336ZM232.324 15.7148V5.71484C229.576 5.71484 226.706 5.82356 224.299 6.37987C223.143 6.64699 221.1 7.22748 219.162 8.70487C216.787 10.5151 214.805 13.551 214.805 17.4336H224.805H234.805C234.805 18.8391 234.473 20.3346 233.722 21.7365C232.995 23.0949 232.059 24.0218 231.287 24.6101C230.54 25.1793 229.882 25.4844 229.512 25.6336C229.13 25.7877 228.869 25.8509 228.802 25.8662C228.698 25.8903 228.897 25.8378 229.583 25.7897C230.231 25.7443 231.123 25.7148 232.324 25.7148V15.7148ZM224.805 17.4336H214.805C214.805 20.7388 216.243 23.9208 218.944 26.101C221.067 27.8141 223.35 28.3935 224.506 28.6349C226.861 29.1269 229.769 29.1752 232.244 29.195L232.324 19.1953L232.404 9.19563C231.108 9.18527 230.154 9.16247 229.437 9.12269C228.669 9.0801 228.475 9.03238 228.595 9.05747C228.676 9.07445 228.995 9.14408 229.448 9.32355C229.896 9.50075 230.664 9.85892 231.505 10.5373C232.393 11.2542 233.304 12.2853 233.954 13.6648C234.6 15.0364 234.805 16.3624 234.805 17.4336H224.805ZM232.324 19.1953L232.404 29.195C234.9 29.1752 237.815 29.1268 240.172 28.6367C241.327 28.3966 243.612 27.8195 245.738 26.1082C248.447 23.9273 249.887 20.7412 249.887 17.4336H239.887H229.887C229.887 16.3624 230.091 15.0346 230.74 13.6606C231.392 12.2786 232.305 11.2466 233.195 10.5301C234.037 9.85229 234.806 9.4953 235.252 9.31926C235.704 9.14087 236.021 9.07207 236.1 9.05567C236.215 9.03167 236.016 9.07977 235.24 9.1225C234.515 9.16243 233.552 9.18525 232.245 9.19563L232.324 19.1953ZM239.887 17.4336H249.887C249.887 13.5477 247.901 10.5088 245.52 8.69801C243.579 7.22202 241.534 6.64363 240.378 6.37768C237.969 5.82347 235.091 5.71484 232.324 5.71484V15.7148V25.7148C233.537 25.7148 234.439 25.7443 235.094 25.79C235.788 25.8384 235.993 25.8913 235.893 25.8684C235.829 25.8536 235.569 25.7912 235.188 25.638C234.82 25.4897 234.16 25.1856 233.413 24.6169C232.64 24.0291 231.701 23.1016 230.971 21.741C230.218 20.3367 229.887 18.8393 229.887 17.4336H239.887ZM250.457 25.5117H240.457V30.9687H250.457H260.457V25.5117H250.457ZM250.457 30.9687V20.9687H214.191V30.9687V40.9687H250.457V30.9687ZM214.191 30.9687H224.191V25.5117H214.191L204.191 25.5117V30.9687H214.191ZM214.191 25.5117V35.5117H250.457V25.5117V15.5117H214.191V25.5117ZM246.16 32.4727H236.16V43.4297H246.16H256.16V32.4727H246.16ZM246.16 43.4297V33.4297H224.977V43.4297V53.4297H246.16V43.4297ZM224.977 43.4297H214.977V44.7187H224.977H234.977V43.4297H224.977ZM224.977 44.7187V54.7187H247.105V44.7187V34.7187H224.977V44.7187ZM247.105 44.7187H237.105V49.7891H247.105H257.105V44.7187H247.105ZM247.105 49.7891V39.7891H218.23V49.7891V59.7891H247.105V49.7891ZM218.23 49.7891H228.23V38.7031H218.23H208.23V49.7891H218.23ZM218.23 38.7031V48.7031H239.371V38.7031V28.7031H218.23V38.7031ZM239.371 38.7031H249.371V37.5H239.371H229.371V38.7031H239.371ZM239.371 37.5V27.5H218.273V37.5V47.5H239.371V37.5ZM218.273 37.5H228.273V32.4727H218.273H208.273V37.5H218.273ZM218.273 32.4727V42.4727H246.16V32.4727V22.4727H218.273V32.4727ZM295.316 10.2148L305.316 10.2148C305.316 4.692 300.839 0.214844 295.316 0.214844V10.2148ZM295.316 36.5547V46.5547C300.839 46.5547 305.316 42.0775 305.316 36.5547H295.316ZM288.398 36.5547H278.398C278.398 42.0775 282.876 46.5547 288.398 46.5547V36.5547ZM288.398 10.2148V0.214844C282.876 0.214844 278.398 4.692 278.398 10.2148H288.398ZM297.164 44.4609L306.123 48.9044C307.56 46.0074 307.507 42.5944 305.981 39.7432C304.456 36.8919 301.645 34.9544 298.438 34.5424L297.164 44.4609ZM294.5 49.832L293.099 59.7335C297.368 60.3372 301.543 58.1375 303.459 54.2755L294.5 49.832ZM281.395 42.8711L289.699 37.3003C287.853 34.5489 284.765 32.8902 281.452 32.8713C278.139 32.8523 275.031 34.4756 273.154 37.2058L281.395 42.8711ZM268.375 49.832L259.416 54.2755C261.335 58.1436 265.52 60.3435 269.794 59.7309L268.375 49.832ZM265.711 44.4609L264.482 34.5368C261.265 34.9352 258.44 36.8684 256.904 39.7233C255.369 42.5781 255.312 46.0003 256.752 48.9044L265.711 44.4609ZM277.828 34.75V24.75C272.305 24.75 267.828 29.2272 267.828 34.75H277.828ZM285.004 34.75H295.004C295.004 29.2272 290.527 24.75 285.004 24.75V34.75ZM262.23 22.418L272.23 22.492C272.231 22.4423 272.231 22.3925 272.23 22.3428L262.23 22.418ZM295.316 10.2148H285.316V36.5547H295.316H305.316V10.2148L295.316 10.2148ZM295.316 36.5547V26.5547H288.398V36.5547V46.5547H295.316V36.5547ZM288.398 36.5547H298.398V10.2148H288.398H278.398V36.5547H288.398ZM288.398 10.2148V20.2148H295.316V10.2148V0.214844L288.398 0.214844V10.2148ZM285.004 35.2656H275.004C275.004 39.8014 276.828 44.5176 280.849 48.1689C284.704 51.6697 289.913 53.6118 295.89 54.3795L297.164 44.4609L298.438 34.5424C295.048 34.107 294.177 33.256 294.294 33.3624C294.368 33.4302 294.578 33.6569 294.755 34.0629C294.926 34.4548 295.004 34.8718 295.004 35.2656H285.004ZM297.164 44.4609L288.206 40.0175L285.541 45.3886L294.5 49.832L303.459 54.2755L306.123 48.9044L297.164 44.4609ZM294.5 49.832L295.901 39.9306C291.293 39.2788 289.998 37.7462 289.699 37.3003L281.395 42.8711L273.09 48.4419C277.431 54.9139 284.645 58.5376 293.099 59.7335L294.5 49.832ZM281.395 42.8711L273.154 37.2058C272.754 37.7879 271.379 39.2992 266.956 39.9332L268.375 49.832L269.794 59.7309C278.261 58.5172 285.309 54.8293 289.635 48.5364L281.395 42.8711ZM268.375 49.832L277.334 45.3886L274.669 40.0175L265.711 44.4609L256.752 48.9044L259.416 54.2755L268.375 49.832ZM265.711 44.4609L266.94 54.3851C272.945 53.6414 278.176 51.6933 282.038 48.155C286.056 44.4733 287.828 39.7461 287.828 35.2656H277.828H267.828C267.828 34.8939 267.901 34.4951 268.064 34.1141C268.235 33.717 268.442 33.4866 268.527 33.4084C268.672 33.2754 267.844 34.1203 264.482 34.5368L265.711 44.4609ZM277.828 35.2656H287.828V34.75H277.828H267.828V35.2656H277.828ZM277.828 34.75V44.75H285.004V34.75V24.75H277.828V34.75ZM285.004 34.75H275.004V35.2656H285.004H295.004V34.75H285.004ZM273.359 12.5781V22.5781C273.833 22.5781 274.175 22.6558 274.392 22.733C274.61 22.8108 274.696 22.885 274.697 22.8858C274.698 22.8862 274.68 22.8704 274.652 22.8344C274.625 22.7978 274.592 22.7473 274.563 22.6841C274.533 22.6204 274.513 22.5572 274.501 22.5013C274.488 22.4453 274.488 22.4146 274.488 22.418H284.488H294.488C294.488 9.95438 283.844 2.57812 273.359 2.57812V12.5781ZM284.488 22.418H274.488C274.488 22.4506 274.487 22.3749 274.542 22.2547C274.565 22.203 274.592 22.1605 274.615 22.1293C274.638 22.0985 274.653 22.0855 274.651 22.0869C274.649 22.0892 274.567 22.1608 274.358 22.2358C274.151 22.3103 273.821 22.3867 273.359 22.3867V32.3867V42.3867C283.966 42.3867 294.488 34.8607 294.488 22.418H284.488ZM273.359 32.3867V22.3867C272.381 22.3867 272.019 22.0727 272.035 22.0869C272.044 22.0949 272.11 22.1597 272.168 22.2882C272.23 22.4247 272.23 22.515 272.23 22.492L262.23 22.418L252.231 22.3439C252.138 34.8854 262.76 42.3867 273.359 42.3867V32.3867ZM262.23 22.418L272.23 22.3428C272.23 22.3422 272.23 22.3517 272.228 22.3702C272.227 22.3887 272.223 22.4138 272.216 22.4443C272.203 22.5077 272.18 22.5788 272.147 22.6504C272.077 22.8019 272 22.8763 271.989 22.8858C271.973 22.8999 272.353 22.5781 273.359 22.5781V12.5781V2.57812C262.883 2.57812 252.136 9.92931 252.231 22.4932L262.23 22.418ZM273.359 18.4219V8.42187C270.555 8.42187 266.851 9.1012 263.695 11.7789C260.279 14.676 258.934 18.6904 258.934 22.418H268.934H278.934C278.934 23.4385 278.49 25.4549 276.632 27.0307C275.033 28.3871 273.543 28.4219 273.359 28.4219V18.4219ZM268.934 22.418H258.934C258.934 26.0931 260.221 30.0502 263.488 32.9789C266.592 35.7615 270.334 36.5859 273.359 36.5859V26.5859V16.5859C273.763 16.5859 275.293 16.7014 276.839 18.0875C278.548 19.6197 278.934 21.4928 278.934 22.418H268.934ZM273.359 26.5859V36.5859C276.436 36.5859 280.148 35.6983 283.195 32.9091C286.376 29.9969 287.656 26.0872 287.656 22.418H277.656H267.656C267.656 21.4988 268.034 19.673 269.69 18.1574C271.211 16.7646 272.775 16.5859 273.359 16.5859V26.5859ZM277.656 22.418H287.656C287.656 18.6979 286.319 14.7303 282.99 11.8461C279.883 9.15477 276.208 8.42187 273.359 8.42187V18.4219V28.4219C273.003 28.4219 271.477 28.3335 269.895 26.9634C268.091 25.4006 267.656 23.431 267.656 22.418H277.656ZM332.184 20.3125L342.184 20.3125C342.184 14.7897 337.706 10.3125 332.184 10.3125V20.3125ZM332.184 25.6406V35.6406C337.706 35.6406 342.184 31.1635 342.184 25.6406L332.184 25.6406ZM304.082 25.6406H294.082C294.082 31.1635 298.559 35.6406 304.082 35.6406V25.6406ZM304.082 11.6328V1.63281C298.559 1.63281 294.082 6.10997 294.082 11.6328L304.082 11.6328ZM310.957 11.6328H320.957C320.957 6.10997 316.48 1.63281 310.957 1.63281V11.6328ZM310.957 20.3125H300.957C300.957 25.8353 305.434 30.3125 310.957 30.3125V20.3125ZM336.094 29.1641H346.094C346.094 23.6412 341.617 19.1641 336.094 19.1641V29.1641ZM336.094 34.4922V44.4922C341.617 44.4922 346.094 40.015 346.094 34.4922H336.094ZM299.828 34.4922H289.828C289.828 40.015 294.305 44.4922 299.828 44.4922V34.4922ZM299.828 29.1641V19.1641C294.305 19.1641 289.828 23.6412 289.828 29.1641H299.828ZM332.441 43.6875H342.441C342.441 38.1647 337.964 33.6875 332.441 33.6875V43.6875ZM332.441 49.1875V59.1875C337.964 59.1875 342.441 54.7103 342.441 49.1875H332.441ZM303.609 49.1875H293.609C293.609 54.7103 298.087 59.1875 303.609 59.1875V49.1875ZM303.609 37.2422V27.2422C298.087 27.2422 293.609 31.7193 293.609 37.2422H303.609ZM310.57 37.2422H320.57C320.57 31.7193 316.093 27.2422 310.57 27.2422V37.2422ZM310.57 43.6875H300.57C300.57 49.2103 305.047 53.6875 310.57 53.6875V43.6875ZM332.184 20.3125H322.184V25.6406H332.184L342.184 25.6406V20.3125L332.184 20.3125ZM332.184 25.6406V15.6406H304.082V25.6406V35.6406H332.184V25.6406ZM304.082 25.6406H314.082V11.6328H304.082L294.082 11.6328V25.6406H304.082ZM304.082 11.6328V21.6328H310.957V11.6328V1.63281H304.082V11.6328ZM310.957 11.6328L300.957 11.6328V20.3125H310.957H320.957V11.6328H310.957ZM310.957 20.3125V30.3125H332.184V20.3125V10.3125H310.957V20.3125ZM336.094 29.1641H326.094V34.4922H336.094H346.094V29.1641H336.094ZM336.094 34.4922V24.4922L299.828 24.4922V34.4922V44.4922H336.094V34.4922ZM299.828 34.4922H309.828V29.1641H299.828H289.828V34.4922H299.828ZM299.828 29.1641V39.1641H336.094V29.1641V19.1641L299.828 19.1641V29.1641ZM332.441 43.6875H322.441V49.1875H332.441H342.441V43.6875H332.441ZM332.441 49.1875V39.1875H303.609V49.1875V59.1875H332.441V49.1875ZM303.609 49.1875H313.609V37.2422H303.609H293.609V49.1875H303.609ZM303.609 37.2422V47.2422H310.57V37.2422V27.2422H303.609V37.2422ZM310.57 37.2422H300.57V43.6875H310.57H320.57V37.2422H310.57ZM310.57 43.6875V53.6875H332.441V43.6875V33.6875H310.57V43.6875Z" fill="white" mask="url(#path-1-outside-1_6524_1852)"/>
</g>
<defs>
<filter id="filter0_d_6524_1852" x="0" y="0" width="350.094" height="67.9609" filterUnits="userSpaceOnUse" color-interpolation-filters="sRGB">
<feFlood flood-opacity="0" result="BackgroundImageFix"/>
<feColorMatrix in="SourceAlpha" type="matrix" values="0 0 0 0 0 0 0 0 0 0 0 0 0 0 0 0 0 0 127 0" result="hardAlpha"/>
<feOffset dy="4"/>
<feGaussianBlur stdDeviation="2"/>
<feComposite in2="hardAlpha" operator="out"/>
<feColorMatrix type="matrix" values="0 0 0 0 0 0 0 0 0 0 0 0 0 0 0 0 0 0 0.07 0"/>
<feBlend mode="normal" in2="BackgroundImageFix" result="effect1_dropShadow_6524_1852"/>
<feBlend mode="normal" in="SourceGraphic" in2="effect1_dropShadow_6524_1852" result="shape"/>
</filter>
</defs>
</svg>
