<svg width="379" height="68" viewBox="0 0 379 68" fill="none" xmlns="http://www.w3.org/2000/svg">
<g filter="url(#filter0_d_6524_1793)">
<mask id="path-1-outside-1_6524_1793" maskUnits="userSpaceOnUse" x="3.57031" y="-0.507813" width="371" height="61" fill="black">
<rect fill="white" x="3.57031" y="-0.507813" width="371" height="61"/>
<path d="M47.9453 10V29.8086H41.0703V10L47.9453 10ZM47.9883 31.3984V42.9141H27.6641V44.2461H48.8477V49.5742H20.918V37.9297H41.1133V36.6406H20.832V31.3984H47.9883ZM30.4141 13.7812C30.3711 18.1211 32.3906 22.5039 39.2656 24.3516L35.957 29.6367C31.5312 28.4551 28.6094 26.0488 26.8477 22.9336C25.043 26.3496 21.9922 29.0352 17.3516 30.2812L14 24.9102C21.0469 22.9766 23.1953 18.1641 23.2383 13.7812V10.7305H30.4141V13.7812ZM74.2852 12.75C74.2852 16.875 77.4648 22.2461 87.7773 23.4922L85.1133 28.9922C77.916 28.0469 73.1895 25.0391 70.6328 21.0859C68.0547 25.0176 63.3926 28.0469 56.2812 28.9922L53.6172 23.4922C63.8438 22.2461 67.0234 16.7891 67.0234 12.75V11.0312H74.2852V12.75ZM88.7656 31.1406V36.7266H73.8984V49.7461H67.0664V36.7266H52.5V31.1406H88.7656ZM126.836 40.0781V45.6641H90.5273V40.0781H105.223V35.0078H94.4805V20.957H116.094V17.8633H94.4375V12.3633L122.926 12.3633V26.2852H101.398V29.4648H123.828V35.0078H112.055V40.0781H126.836ZM164.82 32.5156V37.8437H149.953V49.7461H143.121V37.8437L128.555 37.8438V32.5156L164.82 32.5156ZM139.297 11.5039V15.5H153.863V11.5039H160.781V29.3359L132.508 29.3359V11.5039H139.297ZM139.297 23.8359H153.863V20.8281H139.297V23.8359ZM200.484 10V49.875H193.652V28.9062H187.594V23.4492H193.652V10H200.484ZM186.992 13.1797V18.6797H175.262V24.1797H185.746V29.5078H175.262V35.6523C179.838 35.6094 183.941 35.3945 188.453 34.75L189.098 40.25C183.297 41.0664 177.883 41.2383 171.609 41.2383H168.387V13.1797H186.992ZM230.047 14.8984C230.047 20.0117 231.938 24.8672 238.684 26.8437L235.074 32.2148C230.971 30.8613 228.307 28.4336 226.695 25.2539C224.934 29.0137 221.883 31.9785 217.242 33.4609L213.59 27.9609C220.895 25.7695 223.043 20.3984 223.086 15.2422V11.9766H230.047V14.8984ZM248.008 10V33.1602H241.133V22.1172H234.602V16.5312H241.133V10H248.008ZM234.172 34.1055C242.809 34.1055 248.094 37.0273 248.094 41.9687C248.094 46.9531 242.809 49.832 234.172 49.832C225.621 49.832 220.336 46.9531 220.336 41.9687C220.336 37.0273 225.621 34.1055 234.172 34.1055ZM234.172 39.3906C229.445 39.3906 227.168 40.1211 227.211 41.9687C227.168 43.7305 229.445 44.5039 234.172 44.5039C238.941 44.5039 241.262 43.7305 241.262 41.9687C241.262 40.1211 238.941 39.3906 234.172 39.3906ZM274.906 12.5352V17.9492H267.688C268.053 21.8594 270.373 25.6621 276.41 27.3594L273.188 32.7305C268.934 31.5273 266.076 29.1641 264.336 26.1562C262.553 29.8086 259.523 32.709 254.84 34.1484L251.359 28.7773C257.783 26.7793 260.168 22.2891 260.598 17.9492H253.164V12.5352H274.906ZM284.016 10V18.6797H288.957V24.2227H284.016V33.332H277.098V10H284.016ZM270.824 33.9336C279.16 33.8906 284.402 36.8555 284.402 41.8398C284.402 46.8242 279.16 49.832 270.824 49.832C262.273 49.832 256.902 46.8242 256.945 41.8398C256.902 36.8555 262.273 33.8906 270.824 33.9336ZM270.824 39.2187C266.141 39.2187 263.82 39.9492 263.82 41.8398C263.82 43.7305 266.141 44.5039 270.824 44.5039C275.422 44.5039 277.57 43.7305 277.57 41.8398C277.57 39.9492 275.422 39.2187 270.824 39.2187ZM321.957 10V25.082H327.328V30.7109H321.957V49.7461H315.125V10H321.957ZM313.191 15.6719V21.1289H290.031V15.6719H298.238V10.7305L305.113 10.7305V15.6719H313.191ZM301.676 22.6758C307.562 22.6758 312.074 26.7148 312.074 32.3437C312.074 38.0156 307.562 42.0547 301.676 42.0547C295.66 42.0547 291.234 38.0156 291.234 32.3437C291.234 26.7148 295.66 22.6758 301.676 22.6758ZM301.676 28.2187C299.441 28.2187 297.809 29.6797 297.852 32.3437C297.809 35.1367 299.441 36.4687 301.676 36.4687C303.867 36.4687 305.457 35.1367 305.457 32.3437C305.457 29.6797 303.867 28.2187 301.676 28.2187ZM360.629 20.0977V25.4258L332.527 25.4258V11.418H339.402V20.0977H360.629ZM364.539 28.9492V34.2773H328.273V28.9492H364.539ZM360.887 43.4727V48.9727H332.055V37.0273H339.016V43.4727H360.887Z"/>
</mask>
<path d="M47.9453 10V29.8086H41.0703V10L47.9453 10ZM47.9883 31.3984V42.9141H27.6641V44.2461H48.8477V49.5742H20.918V37.9297H41.1133V36.6406H20.832V31.3984H47.9883ZM30.4141 13.7812C30.3711 18.1211 32.3906 22.5039 39.2656 24.3516L35.957 29.6367C31.5312 28.4551 28.6094 26.0488 26.8477 22.9336C25.043 26.3496 21.9922 29.0352 17.3516 30.2812L14 24.9102C21.0469 22.9766 23.1953 18.1641 23.2383 13.7812V10.7305H30.4141V13.7812ZM74.2852 12.75C74.2852 16.875 77.4648 22.2461 87.7773 23.4922L85.1133 28.9922C77.916 28.0469 73.1895 25.0391 70.6328 21.0859C68.0547 25.0176 63.3926 28.0469 56.2812 28.9922L53.6172 23.4922C63.8438 22.2461 67.0234 16.7891 67.0234 12.75V11.0312H74.2852V12.75ZM88.7656 31.1406V36.7266H73.8984V49.7461H67.0664V36.7266H52.5V31.1406H88.7656ZM126.836 40.0781V45.6641H90.5273V40.0781H105.223V35.0078H94.4805V20.957H116.094V17.8633H94.4375V12.3633L122.926 12.3633V26.2852H101.398V29.4648H123.828V35.0078H112.055V40.0781H126.836ZM164.82 32.5156V37.8437H149.953V49.7461H143.121V37.8437L128.555 37.8438V32.5156L164.82 32.5156ZM139.297 11.5039V15.5H153.863V11.5039H160.781V29.3359L132.508 29.3359V11.5039H139.297ZM139.297 23.8359H153.863V20.8281H139.297V23.8359ZM200.484 10V49.875H193.652V28.9062H187.594V23.4492H193.652V10H200.484ZM186.992 13.1797V18.6797H175.262V24.1797H185.746V29.5078H175.262V35.6523C179.838 35.6094 183.941 35.3945 188.453 34.75L189.098 40.25C183.297 41.0664 177.883 41.2383 171.609 41.2383H168.387V13.1797H186.992ZM230.047 14.8984C230.047 20.0117 231.938 24.8672 238.684 26.8437L235.074 32.2148C230.971 30.8613 228.307 28.4336 226.695 25.2539C224.934 29.0137 221.883 31.9785 217.242 33.4609L213.59 27.9609C220.895 25.7695 223.043 20.3984 223.086 15.2422V11.9766H230.047V14.8984ZM248.008 10V33.1602H241.133V22.1172H234.602V16.5312H241.133V10H248.008ZM234.172 34.1055C242.809 34.1055 248.094 37.0273 248.094 41.9687C248.094 46.9531 242.809 49.832 234.172 49.832C225.621 49.832 220.336 46.9531 220.336 41.9687C220.336 37.0273 225.621 34.1055 234.172 34.1055ZM234.172 39.3906C229.445 39.3906 227.168 40.1211 227.211 41.9687C227.168 43.7305 229.445 44.5039 234.172 44.5039C238.941 44.5039 241.262 43.7305 241.262 41.9687C241.262 40.1211 238.941 39.3906 234.172 39.3906ZM274.906 12.5352V17.9492H267.688C268.053 21.8594 270.373 25.6621 276.41 27.3594L273.188 32.7305C268.934 31.5273 266.076 29.1641 264.336 26.1562C262.553 29.8086 259.523 32.709 254.84 34.1484L251.359 28.7773C257.783 26.7793 260.168 22.2891 260.598 17.9492H253.164V12.5352H274.906ZM284.016 10V18.6797H288.957V24.2227H284.016V33.332H277.098V10H284.016ZM270.824 33.9336C279.16 33.8906 284.402 36.8555 284.402 41.8398C284.402 46.8242 279.16 49.832 270.824 49.832C262.273 49.832 256.902 46.8242 256.945 41.8398C256.902 36.8555 262.273 33.8906 270.824 33.9336ZM270.824 39.2187C266.141 39.2187 263.82 39.9492 263.82 41.8398C263.82 43.7305 266.141 44.5039 270.824 44.5039C275.422 44.5039 277.57 43.7305 277.57 41.8398C277.57 39.9492 275.422 39.2187 270.824 39.2187ZM321.957 10V25.082H327.328V30.7109H321.957V49.7461H315.125V10H321.957ZM313.191 15.6719V21.1289H290.031V15.6719H298.238V10.7305L305.113 10.7305V15.6719H313.191ZM301.676 22.6758C307.562 22.6758 312.074 26.7148 312.074 32.3437C312.074 38.0156 307.562 42.0547 301.676 42.0547C295.66 42.0547 291.234 38.0156 291.234 32.3437C291.234 26.7148 295.66 22.6758 301.676 22.6758ZM301.676 28.2187C299.441 28.2187 297.809 29.6797 297.852 32.3437C297.809 35.1367 299.441 36.4687 301.676 36.4687C303.867 36.4687 305.457 35.1367 305.457 32.3437C305.457 29.6797 303.867 28.2187 301.676 28.2187ZM360.629 20.0977V25.4258L332.527 25.4258V11.418H339.402V20.0977H360.629ZM364.539 28.9492V34.2773H328.273V28.9492H364.539ZM360.887 43.4727V48.9727H332.055V37.0273H339.016V43.4727H360.887Z" fill="#11DCA9"/>
<path d="M47.9453 10H57.9453C57.9453 4.47715 53.4682 0 47.9453 0V10ZM47.9453 29.8086V39.8086C53.4682 39.8086 57.9453 35.3314 57.9453 29.8086H47.9453ZM41.0703 29.8086H31.0703C31.0703 35.3314 35.5475 39.8086 41.0703 39.8086V29.8086ZM41.0703 10V0C35.5475 0 31.0703 4.47715 31.0703 10H41.0703ZM47.9883 31.3984H57.9883C57.9883 25.8756 53.5111 21.3984 47.9883 21.3984V31.3984ZM47.9883 42.9141V52.9141C53.5111 52.9141 57.9883 48.4369 57.9883 42.9141H47.9883ZM27.6641 42.9141V32.9141C22.1412 32.9141 17.6641 37.3912 17.6641 42.9141H27.6641ZM27.6641 44.2461H17.6641C17.6641 49.7689 22.1412 54.2461 27.6641 54.2461V44.2461ZM48.8477 44.2461H58.8477C58.8477 38.7232 54.3705 34.2461 48.8477 34.2461V44.2461ZM48.8477 49.5742V59.5742C54.3705 59.5742 58.8477 55.0971 58.8477 49.5742H48.8477ZM20.918 49.5742H10.918C10.918 55.0971 15.3951 59.5742 20.918 59.5742V49.5742ZM20.918 37.9297V27.9297C15.3951 27.9297 10.918 32.4068 10.918 37.9297H20.918ZM41.1133 37.9297V47.9297C46.6361 47.9297 51.1133 43.4525 51.1133 37.9297H41.1133ZM41.1133 36.6406H51.1133C51.1133 31.1178 46.6361 26.6406 41.1133 26.6406V36.6406ZM20.832 36.6406H10.832C10.832 42.1635 15.3092 46.6406 20.832 46.6406V36.6406ZM20.832 31.3984V21.3984C15.3092 21.3984 10.832 25.8756 10.832 31.3984H20.832ZM30.4141 13.7812L40.4136 13.8803C40.4139 13.8473 40.4141 13.8143 40.4141 13.7812H30.4141ZM39.2656 24.3516L47.7417 29.6577C49.424 26.9704 49.7323 23.6446 48.5727 20.6939C47.413 17.7431 44.9228 15.5171 41.861 14.6942L39.2656 24.3516ZM35.957 29.6367L33.3775 39.2983C37.6192 40.4308 42.1036 38.6642 44.4331 34.9429L35.957 29.6367ZM26.8477 22.9336L35.5522 18.011C33.7526 14.8288 30.3599 12.8823 26.7044 12.9346C23.049 12.987 19.7134 15.0299 18.0057 18.2624L26.8477 22.9336ZM17.3516 30.2812L8.86777 35.5751C11.1976 39.3088 15.6945 41.0804 19.9449 39.9391L17.3516 30.2812ZM14 24.9102L11.3539 15.2666C8.30785 16.1024 5.83575 18.3282 4.68601 21.2702C3.53627 24.2121 3.84406 27.5243 5.51621 30.204L14 24.9102ZM23.2383 13.7812L33.2378 13.8793C33.2381 13.8466 33.2383 13.8139 33.2383 13.7812H23.2383ZM23.2383 10.7305V0.730469C17.7154 0.730469 13.2383 5.20762 13.2383 10.7305H23.2383ZM30.4141 10.7305H40.4141C40.4141 5.20762 35.9369 0.730469 30.4141 0.730469V10.7305ZM47.9453 10L37.9453 10V29.8086H47.9453H57.9453V10H47.9453ZM47.9453 29.8086V19.8086H41.0703V29.8086V39.8086H47.9453V29.8086ZM41.0703 29.8086H51.0703V10L41.0703 10H31.0703V29.8086H41.0703ZM41.0703 10V20H47.9453V10V0H41.0703V10ZM47.9883 31.3984H37.9883V42.9141H47.9883H57.9883V31.3984H47.9883ZM47.9883 42.9141V32.9141H27.6641V42.9141V52.9141H47.9883V42.9141ZM27.6641 42.9141H17.6641V44.2461H27.6641H37.6641V42.9141H27.6641ZM27.6641 44.2461V54.2461H48.8477V44.2461V34.2461H27.6641V44.2461ZM48.8477 44.2461H38.8477V49.5742H48.8477H58.8477V44.2461H48.8477ZM48.8477 49.5742V39.5742H20.918V49.5742V59.5742H48.8477V49.5742ZM20.918 49.5742H30.918V37.9297H20.918H10.918V49.5742H20.918ZM20.918 37.9297V47.9297H41.1133V37.9297V27.9297H20.918V37.9297ZM41.1133 37.9297H51.1133V36.6406H41.1133H31.1133V37.9297H41.1133ZM41.1133 36.6406V26.6406H20.832V36.6406V46.6406H41.1133V36.6406ZM20.832 36.6406H30.832V31.3984H20.832H10.832L10.832 36.6406H20.832ZM20.832 31.3984V41.3984H47.9883V31.3984V21.3984H20.832V31.3984ZM30.4141 13.7812L20.4146 13.6822C20.3776 17.4146 21.2311 21.8564 24.1572 25.8813C27.1276 29.967 31.5048 32.6207 36.6702 34.0089L39.2656 24.3516L41.861 14.6942C40.9773 14.4567 40.5318 14.2136 40.3617 14.1048C40.2095 14.0076 40.246 13.9997 40.334 14.1206C40.5424 14.4073 40.4076 14.4877 40.4136 13.8803L30.4141 13.7812ZM39.2656 24.3516L30.7895 19.0454L27.4809 24.3305L35.957 29.6367L44.4331 34.9429L47.7417 29.6577L39.2656 24.3516ZM35.957 29.6367L38.5366 19.9751C37.4452 19.6838 36.81 19.318 36.4397 19.0377C36.0768 18.7629 35.7945 18.4395 35.5522 18.011L26.8477 22.9336L18.1431 27.8561C21.3007 33.4395 26.5043 37.4632 33.3775 39.2983L35.957 29.6367ZM26.8477 22.9336L18.0057 18.2624C17.6956 18.8495 17.3357 19.277 16.9178 19.6112C16.5025 19.9432 15.8444 20.3317 14.7582 20.6234L17.3516 30.2812L19.9449 39.9391C27.2849 37.9682 32.5927 33.4669 35.6896 27.6048L26.8477 22.9336ZM17.3516 30.2812L25.8354 24.9874L22.4838 19.6163L14 24.9102L5.51621 30.204L8.86777 35.5751L17.3516 30.2812ZM14 24.9102L16.6461 34.5537C22.0563 33.0692 26.4379 30.1997 29.3829 26.0765C32.2553 22.0552 33.201 17.6295 33.2378 13.8793L23.2383 13.7812L13.2388 13.6832C13.2358 13.9891 13.1962 14.1983 13.1615 14.3182C13.1449 14.3756 13.1303 14.4099 13.1224 14.4265C13.1149 14.4422 13.1104 14.4488 13.1083 14.4518C13.1066 14.4542 13.0971 14.4675 13.0709 14.4927C13.0446 14.5181 12.987 14.5693 12.8817 14.6391C12.6759 14.7757 12.2165 15.0299 11.3539 15.2666L14 24.9102ZM23.2383 13.7812H33.2383V10.7305H23.2383H13.2383V13.7812H23.2383ZM23.2383 10.7305V20.7305H30.4141V10.7305V0.730469L23.2383 0.730469V10.7305ZM30.4141 10.7305H20.4141V13.7812H30.4141H40.4141V10.7305H30.4141ZM87.7773 23.4922L96.7772 27.8515C98.1854 24.9441 98.1024 21.5356 96.5544 18.7002C95.0064 15.8649 92.1841 13.9519 88.977 13.5644L87.7773 23.4922ZM85.1133 28.9922L83.811 38.907C88.0833 39.4682 92.2347 37.2295 94.1131 33.3515L85.1133 28.9922ZM70.6328 21.0859L79.0297 15.6553C77.1933 12.8157 74.0461 11.0967 70.6644 11.086C67.2827 11.0753 64.1247 12.7744 62.2704 15.6024L70.6328 21.0859ZM56.2812 28.9922L47.2814 33.3515C49.1624 37.2347 53.3218 39.4735 57.599 38.905L56.2812 28.9922ZM53.6172 23.4922L52.4076 13.5656C49.2027 13.9561 46.3835 15.87 44.8377 18.7046C43.292 21.5392 43.2099 24.9457 44.6174 27.8515L53.6172 23.4922ZM67.0234 11.0312V1.03125C61.5006 1.03125 57.0234 5.5084 57.0234 11.0312H67.0234ZM74.2852 11.0312H84.2852C84.2852 5.5084 79.808 1.03125 74.2852 1.03125V11.0312ZM88.7656 31.1406H98.7656C98.7656 25.6178 94.2885 21.1406 88.7656 21.1406V31.1406ZM88.7656 36.7266V46.7266C94.2885 46.7266 98.7656 42.2494 98.7656 36.7266H88.7656ZM73.8984 36.7266V26.7266C68.3756 26.7266 63.8984 31.2037 63.8984 36.7266H73.8984ZM73.8984 49.7461V59.7461C79.4213 59.7461 83.8984 55.2689 83.8984 49.7461H73.8984ZM67.0664 49.7461H57.0664C57.0664 55.2689 61.5436 59.7461 67.0664 59.7461V49.7461ZM67.0664 36.7266H77.0664C77.0664 31.2037 72.5893 26.7266 67.0664 26.7266V36.7266ZM52.5 36.7266H42.5C42.5 42.2494 46.9772 46.7266 52.5 46.7266V36.7266ZM52.5 31.1406V21.1406C46.9772 21.1406 42.5 25.6178 42.5 31.1406H52.5ZM74.2852 12.75H64.2852C64.2852 17.4255 66.1115 22.4256 70.2145 26.3912C74.2667 30.3076 79.886 32.6114 86.5777 33.42L87.7773 23.4922L88.977 13.5644C85.3562 13.1269 84.2294 12.1221 84.1136 12.0102C84.0487 11.9474 84.2852 12.1995 84.2852 12.75L74.2852 12.75ZM87.7773 23.4922L78.7775 19.1329L76.1135 24.6329L85.1133 28.9922L94.1131 33.3515L96.7772 27.8515L87.7773 23.4922ZM85.1133 28.9922L86.4155 19.0773C81.4085 18.4197 79.6384 16.5964 79.0297 15.6553L70.6328 21.0859L62.2359 26.5166C66.7405 33.4817 74.4235 37.674 83.811 38.907L85.1133 28.9922ZM70.6328 21.0859L62.2704 15.6024C61.5881 16.6428 59.7908 18.4377 54.9635 19.0794L56.2812 28.9922L57.599 38.905C66.9943 37.6561 74.5213 33.3924 78.9953 26.5695L70.6328 21.0859ZM56.2812 28.9922L65.2811 24.6329L62.617 19.1329L53.6172 23.4922L44.6174 27.8515L47.2814 33.3515L56.2812 28.9922ZM53.6172 23.4922L54.8267 33.4188C61.5309 32.6019 67.1235 30.2477 71.1424 26.3224C75.182 22.3771 77.0234 17.4067 77.0234 12.75H67.0234H57.0234C57.0234 12.1324 57.2751 11.91 57.1681 12.0145C57.0406 12.139 55.93 13.1364 52.4076 13.5656L53.6172 23.4922ZM67.0234 12.75H77.0234V11.0312H67.0234H57.0234V12.75H67.0234ZM67.0234 11.0312V21.0312H74.2852V11.0312V1.03125H67.0234V11.0312ZM74.2852 11.0312H64.2852V12.75H74.2852L84.2852 12.75V11.0312H74.2852ZM88.7656 31.1406H78.7656V36.7266H88.7656H98.7656V31.1406H88.7656ZM88.7656 36.7266V26.7266L73.8984 26.7266V36.7266V46.7266H88.7656V36.7266ZM73.8984 36.7266H63.8984V49.7461H73.8984H83.8984V36.7266H73.8984ZM73.8984 49.7461V39.7461H67.0664V49.7461V59.7461H73.8984V49.7461ZM67.0664 49.7461H77.0664V36.7266H67.0664H57.0664V49.7461H67.0664ZM67.0664 36.7266V26.7266H52.5V36.7266V46.7266H67.0664V36.7266ZM52.5 36.7266H62.5V31.1406H52.5H42.5V36.7266H52.5ZM52.5 31.1406V41.1406H88.7656V31.1406V21.1406L52.5 21.1406V31.1406ZM126.836 40.0781H136.836C136.836 34.5553 132.359 30.0781 126.836 30.0781V40.0781ZM126.836 45.6641V55.6641C132.359 55.6641 136.836 51.1869 136.836 45.6641H126.836ZM90.5273 45.6641H80.5273C80.5273 51.1869 85.0045 55.6641 90.5273 55.6641V45.6641ZM90.5273 40.0781V30.0781C85.0045 30.0781 80.5273 34.5553 80.5273 40.0781H90.5273ZM105.223 40.0781V50.0781C110.746 50.0781 115.223 45.601 115.223 40.0781H105.223ZM105.223 35.0078H115.223C115.223 29.485 110.746 25.0078 105.223 25.0078V35.0078ZM94.4805 35.0078H84.4805C84.4805 40.5307 88.9576 45.0078 94.4805 45.0078V35.0078ZM94.4805 20.957V10.957C88.9576 10.957 84.4805 15.4342 84.4805 20.957H94.4805ZM116.094 20.957V30.957C121.617 30.957 126.094 26.4799 126.094 20.957H116.094ZM116.094 17.8633H126.094C126.094 12.3404 121.617 7.86328 116.094 7.86328V17.8633ZM94.4375 17.8633H84.4375C84.4375 23.3861 88.9146 27.8633 94.4375 27.8633V17.8633ZM94.4375 12.3633V2.36328C88.9146 2.36328 84.4375 6.84043 84.4375 12.3633H94.4375ZM122.926 12.3633H132.926C132.926 6.84043 128.449 2.36328 122.926 2.36328V12.3633ZM122.926 26.2852V36.2852C128.449 36.2852 132.926 31.808 132.926 26.2852H122.926ZM101.398 26.2852V16.2852C95.8756 16.2852 91.3984 20.7623 91.3984 26.2852H101.398ZM101.398 29.4648H91.3984C91.3984 34.9877 95.8756 39.4648 101.398 39.4648V29.4648ZM123.828 29.4648H133.828C133.828 23.942 129.351 19.4648 123.828 19.4648V29.4648ZM123.828 35.0078V45.0078C129.351 45.0078 133.828 40.5307 133.828 35.0078H123.828ZM112.055 35.0078V25.0078C106.532 25.0078 102.055 29.485 102.055 35.0078H112.055ZM112.055 40.0781H102.055C102.055 45.601 106.532 50.0781 112.055 50.0781V40.0781ZM126.836 40.0781H116.836V45.6641H126.836H136.836V40.0781H126.836ZM126.836 45.6641V35.6641H90.5273V45.6641V55.6641H126.836V45.6641ZM90.5273 45.6641H100.527V40.0781H90.5273H80.5273V45.6641H90.5273ZM90.5273 40.0781V50.0781H105.223V40.0781V30.0781H90.5273V40.0781ZM105.223 40.0781H115.223V35.0078H105.223H95.2227V40.0781H105.223ZM105.223 35.0078V25.0078H94.4805V35.0078V45.0078H105.223V35.0078ZM94.4805 35.0078H104.48V20.957H94.4805H84.4805V35.0078H94.4805ZM94.4805 20.957V30.957H116.094V20.957V10.957L94.4805 10.957V20.957ZM116.094 20.957H126.094V17.8633H116.094H106.094V20.957H116.094ZM116.094 17.8633V7.86328L94.4375 7.86328V17.8633V27.8633H116.094V17.8633ZM94.4375 17.8633H104.438V12.3633H94.4375H84.4375V17.8633H94.4375ZM94.4375 12.3633V22.3633H122.926V12.3633V2.36328H94.4375V12.3633ZM122.926 12.3633H112.926V26.2852H122.926H132.926V12.3633H122.926ZM122.926 26.2852V16.2852H101.398V26.2852V36.2852H122.926V26.2852ZM101.398 26.2852H91.3984V29.4648H101.398H111.398V26.2852H101.398ZM101.398 29.4648V39.4648H123.828V29.4648V19.4648H101.398V29.4648ZM123.828 29.4648H113.828V35.0078H123.828H133.828V29.4648H123.828ZM123.828 35.0078V25.0078H112.055V35.0078V45.0078H123.828V35.0078ZM112.055 35.0078H102.055V40.0781H112.055H122.055V35.0078H112.055ZM112.055 40.0781V50.0781H126.836V40.0781V30.0781H112.055V40.0781ZM164.82 32.5156H174.82C174.82 26.9928 170.343 22.5156 164.82 22.5156V32.5156ZM164.82 37.8437V47.8437C170.343 47.8437 174.82 43.3666 174.82 37.8437H164.82ZM149.953 37.8437V27.8437C144.43 27.8437 139.953 32.3209 139.953 37.8438L149.953 37.8437ZM149.953 49.7461V59.7461C155.476 59.7461 159.953 55.2689 159.953 49.7461H149.953ZM143.121 49.7461L133.121 49.7461C133.121 55.2689 137.598 59.7461 143.121 59.7461V49.7461ZM143.121 37.8437H153.121C153.121 32.3209 148.644 27.8437 143.121 27.8437V37.8437ZM128.555 37.8438H118.555C118.555 43.3666 123.032 47.8438 128.555 47.8438V37.8438ZM128.555 32.5156V22.5156C123.032 22.5156 118.555 26.9928 118.555 32.5156H128.555ZM139.297 11.5039H149.297C149.297 5.98106 144.82 1.50391 139.297 1.50391V11.5039ZM139.297 15.5H129.297C129.297 21.0228 133.774 25.5 139.297 25.5V15.5ZM153.863 15.5V25.5C159.386 25.5 163.863 21.0228 163.863 15.5H153.863ZM153.863 11.5039V1.50391C148.34 1.50391 143.863 5.98106 143.863 11.5039H153.863ZM160.781 11.5039H170.781C170.781 5.98106 166.304 1.50391 160.781 1.50391V11.5039ZM160.781 29.3359V39.3359C166.304 39.3359 170.781 34.8588 170.781 29.3359H160.781ZM132.508 29.3359H122.508C122.508 34.8588 126.985 39.3359 132.508 39.3359V29.3359ZM132.508 11.5039V1.50391C126.985 1.50391 122.508 5.98106 122.508 11.5039H132.508ZM139.297 23.8359H129.297C129.297 29.3588 133.774 33.8359 139.297 33.8359V23.8359ZM153.863 23.8359V33.8359C159.386 33.8359 163.863 29.3588 163.863 23.8359H153.863ZM153.863 20.8281H163.863C163.863 15.3053 159.386 10.8281 153.863 10.8281V20.8281ZM139.297 20.8281V10.8281C133.774 10.8281 129.297 15.3053 129.297 20.8281H139.297ZM164.82 32.5156H154.82V37.8437H164.82H174.82V32.5156H164.82ZM164.82 37.8437V27.8437H149.953V37.8437V47.8437H164.82V37.8437ZM149.953 37.8437L139.953 37.8438V49.7461L149.953 49.7461H159.953V37.8437H149.953ZM149.953 49.7461V39.7461H143.121V49.7461V59.7461H149.953V49.7461ZM143.121 49.7461H153.121V37.8437H143.121L133.121 37.8438V49.7461L143.121 49.7461ZM143.121 37.8437V27.8437H128.555V37.8438V47.8438L143.121 47.8437V37.8437ZM128.555 37.8438H138.555V32.5156H128.555H118.555V37.8438H128.555ZM128.555 32.5156V42.5156L164.82 42.5156V32.5156V22.5156H128.555V32.5156ZM139.297 11.5039H129.297V15.5H139.297H149.297V11.5039H139.297ZM139.297 15.5V25.5H153.863V15.5V5.5H139.297V15.5ZM153.863 15.5H163.863V11.5039H153.863H143.863V15.5H153.863ZM153.863 11.5039V21.5039H160.781V11.5039V1.50391L153.863 1.50391V11.5039ZM160.781 11.5039H150.781V29.3359H160.781H170.781V11.5039H160.781ZM160.781 29.3359V19.3359H132.508V29.3359V39.3359L160.781 39.3359V29.3359ZM132.508 29.3359L142.508 29.3359V11.5039H132.508H122.508V29.3359H132.508ZM132.508 11.5039V21.5039H139.297V11.5039V1.50391H132.508V11.5039ZM139.297 23.8359V33.8359L153.863 33.8359V23.8359V13.8359H139.297V23.8359ZM153.863 23.8359H163.863V20.8281H153.863H143.863V23.8359H153.863ZM153.863 20.8281V10.8281H139.297V20.8281V30.8281L153.863 30.8281V20.8281ZM139.297 20.8281H129.297V23.8359H139.297H149.297V20.8281H139.297ZM200.484 10H210.484C210.484 4.47715 206.007 0 200.484 0V10ZM200.484 49.875V59.875C206.007 59.875 210.484 55.3978 210.484 49.875H200.484ZM193.652 49.875H183.652C183.652 55.3978 188.13 59.875 193.652 59.875V49.875ZM193.652 28.9062H203.652C203.652 23.3834 199.175 18.9062 193.652 18.9062V28.9062ZM187.594 28.9062H177.594C177.594 34.4291 182.071 38.9062 187.594 38.9062V28.9062ZM187.594 23.4492V13.4492C182.071 13.4492 177.594 17.9264 177.594 23.4492H187.594ZM193.652 23.4492V33.4492C199.175 33.4492 203.652 28.9721 203.652 23.4492H193.652ZM193.652 10V0C188.13 0 183.652 4.47715 183.652 10H193.652ZM186.992 13.1797H196.992C196.992 7.65684 192.515 3.17969 186.992 3.17969V13.1797ZM186.992 18.6797V28.6797C192.515 28.6797 196.992 24.2025 196.992 18.6797H186.992ZM175.262 18.6797V8.67969C169.739 8.67969 165.262 13.1568 165.262 18.6797H175.262ZM175.262 24.1797H165.262C165.262 29.7025 169.739 34.1797 175.262 34.1797V24.1797ZM185.746 24.1797H195.746C195.746 18.6568 191.269 14.1797 185.746 14.1797V24.1797ZM185.746 29.5078V39.5078C191.269 39.5078 195.746 35.0307 195.746 29.5078H185.746ZM175.262 29.5078V19.5078C169.739 19.5078 165.262 23.985 165.262 29.5078H175.262ZM175.262 35.6523H165.262C165.262 38.3208 166.328 40.8785 168.224 42.7565C170.12 44.6345 172.687 45.677 175.356 45.6519L175.262 35.6523ZM188.453 34.75L198.385 33.5861C198.071 30.9085 196.69 28.471 194.554 26.8264C192.417 25.1817 189.708 24.4692 187.039 24.8505L188.453 34.75ZM189.098 40.25L190.491 50.1524C195.871 49.3953 199.662 44.4818 199.03 39.0861L189.098 40.25ZM168.387 41.2383H158.387C158.387 46.7611 162.864 51.2383 168.387 51.2383V41.2383ZM168.387 13.1797V3.17969C162.864 3.17969 158.387 7.65684 158.387 13.1797H168.387ZM200.484 10H190.484V49.875H200.484H210.484V10H200.484ZM200.484 49.875V39.875H193.652V49.875V59.875H200.484V49.875ZM193.652 49.875H203.652V28.9062H193.652H183.652V49.875H193.652ZM193.652 28.9062V18.9062H187.594V28.9062V38.9062H193.652V28.9062ZM187.594 28.9062H197.594V23.4492H187.594H177.594V28.9062H187.594ZM187.594 23.4492V33.4492H193.652V23.4492V13.4492H187.594V23.4492ZM193.652 23.4492H203.652V10H193.652H183.652V23.4492H193.652ZM193.652 10V20H200.484V10V0L193.652 0V10ZM186.992 13.1797H176.992V18.6797H186.992H196.992V13.1797H186.992ZM186.992 18.6797V8.67969H175.262V18.6797V28.6797H186.992V18.6797ZM175.262 18.6797H165.262V24.1797H175.262H185.262V18.6797H175.262ZM175.262 24.1797V34.1797H185.746V24.1797V14.1797H175.262V24.1797ZM185.746 24.1797H175.746V29.5078H185.746H195.746V24.1797H185.746ZM185.746 29.5078V19.5078H175.262V29.5078V39.5078H185.746V29.5078ZM175.262 29.5078H165.262V35.6523H175.262H185.262V29.5078H175.262ZM175.262 35.6523L175.356 45.6519C180.212 45.6063 184.783 45.3758 189.867 44.6495L188.453 34.75L187.039 24.8505C183.1 25.4133 179.463 25.6124 175.168 25.6528L175.262 35.6523ZM188.453 34.75L178.521 35.9139L179.166 41.4139L189.098 40.25L199.03 39.0861L198.385 33.5861L188.453 34.75ZM189.098 40.25L187.704 30.3476C182.585 31.068 177.71 31.2383 171.609 31.2383V41.2383V51.2383C178.056 51.2383 184.009 51.0648 190.491 50.1524L189.098 40.25ZM171.609 41.2383V31.2383H168.387V41.2383V51.2383H171.609V41.2383ZM168.387 41.2383H178.387V13.1797H168.387H158.387V41.2383H168.387ZM168.387 13.1797V23.1797H186.992V13.1797V3.17969H168.387V13.1797ZM238.684 26.8437L246.984 32.4214C248.762 29.7754 249.172 26.4403 248.087 23.4425C247.003 20.4447 244.555 18.1435 241.495 17.2472L238.684 26.8437ZM235.074 32.2148L231.942 41.7116C236.2 43.1162 240.873 41.5143 243.374 37.7925L235.074 32.2148ZM226.695 25.2539L235.615 20.7336C233.887 17.3227 230.365 15.1961 226.541 15.2551C222.718 15.3141 219.263 17.5483 217.64 21.0109L226.695 25.2539ZM217.242 33.4609L208.912 38.9929C211.384 42.7163 216.027 44.3468 220.285 42.9867L217.242 33.4609ZM213.59 27.9609L210.716 18.3827C207.683 19.2927 205.26 21.5856 204.184 24.5642C203.109 27.5427 203.507 30.8548 205.259 33.4929L213.59 27.9609ZM223.086 15.2422L233.086 15.3255C233.086 15.2977 233.086 15.27 233.086 15.2422H223.086ZM223.086 11.9766V1.97656C217.563 1.97656 213.086 6.45372 213.086 11.9766H223.086ZM230.047 11.9766L240.047 11.9766C240.047 6.45372 235.57 1.97656 230.047 1.97656V11.9766ZM248.008 10H258.008C258.008 4.47715 253.531 0 248.008 0V10ZM248.008 33.1602V43.1602C253.531 43.1602 258.008 38.683 258.008 33.1602H248.008ZM241.133 33.1602H231.133C231.133 38.683 235.61 43.1602 241.133 43.1602V33.1602ZM241.133 22.1172H251.133C251.133 16.5943 246.656 12.1172 241.133 12.1172V22.1172ZM234.602 22.1172H224.602C224.602 27.64 229.079 32.1172 234.602 32.1172V22.1172ZM234.602 16.5312V6.53125C229.079 6.53125 224.602 11.0084 224.602 16.5312H234.602ZM241.133 16.5312V26.5312C246.656 26.5312 251.133 22.0541 251.133 16.5312H241.133ZM241.133 10V0C235.61 0 231.133 4.47715 231.133 10L241.133 10ZM227.211 41.9687L237.208 42.2126C237.212 42.0538 237.212 41.895 237.208 41.7363L227.211 41.9687ZM230.047 14.8984H220.047C220.047 18.5877 220.715 23.134 223.362 27.3571C226.143 31.7959 230.469 34.8574 235.872 36.4403L238.684 26.8437L241.495 17.2472C240.753 17.0298 240.43 16.8184 240.342 16.7553C240.271 16.704 240.289 16.705 240.309 16.7376C240.324 16.7606 240.047 16.3225 240.047 14.8984H230.047ZM238.684 26.8437L230.384 21.2661L226.774 26.6372L235.074 32.2148L243.374 37.7925L246.984 32.4214L238.684 26.8437ZM235.074 32.2148L238.207 22.7181C237.253 22.4036 236.727 22.0553 236.428 21.8005C236.133 21.5502 235.866 21.2285 235.615 20.7336L226.695 25.2539L217.775 29.7742C220.618 35.3839 225.404 39.5551 231.942 41.7116L235.074 32.2148ZM226.695 25.2539L217.64 21.0109C217.008 22.3599 216.074 23.3363 214.199 23.9352L217.242 33.4609L220.285 42.9867C227.692 40.6207 232.859 35.6675 235.751 29.4969L226.695 25.2539ZM217.242 33.4609L225.573 27.929L221.92 22.429L213.59 27.9609L205.259 33.4929L208.912 38.9929L217.242 33.4609ZM213.59 27.9609L216.463 37.5392C222.157 35.8311 226.594 32.5928 229.47 28.126C232.234 23.8322 233.053 19.189 233.086 15.3255L223.086 15.2422L213.086 15.1589C213.076 16.4516 212.8 17.0721 212.652 17.3008C212.587 17.4022 212.488 17.5271 212.275 17.6813C212.052 17.8432 211.587 18.1216 210.716 18.3827L213.59 27.9609ZM223.086 15.2422H233.086V11.9766H223.086H213.086V15.2422H223.086ZM223.086 11.9766V21.9766H230.047V11.9766V1.97656H223.086V11.9766ZM230.047 11.9766H220.047V14.8984H230.047H240.047V11.9766L230.047 11.9766ZM248.008 10H238.008V33.1602H248.008H258.008V10H248.008ZM248.008 33.1602V23.1602H241.133V33.1602V43.1602H248.008V33.1602ZM241.133 33.1602H251.133V22.1172H241.133H231.133V33.1602H241.133ZM241.133 22.1172V12.1172L234.602 12.1172V22.1172V32.1172H241.133V22.1172ZM234.602 22.1172H244.602V16.5312H234.602H224.602V22.1172H234.602ZM234.602 16.5312V26.5312H241.133V16.5312V6.53125L234.602 6.53125V16.5312ZM241.133 16.5312H251.133V10H241.133L231.133 10V16.5312H241.133ZM241.133 10V20H248.008V10V0L241.133 0V10ZM234.172 34.1055V44.1055C235.786 44.1055 237.048 44.2436 237.979 44.4348C238.928 44.6296 239.374 44.8463 239.475 44.9035C239.561 44.9514 239.169 44.7512 238.751 44.1096C238.293 43.4045 238.094 42.6082 238.094 41.9687H248.094H258.094C258.094 35.1815 254.158 30.2108 249.268 27.4647C244.797 24.9541 239.396 24.1055 234.172 24.1055V34.1055ZM248.094 41.9687H238.094C238.094 41.3567 238.284 40.5662 238.746 39.854C239.168 39.2044 239.568 38.9981 239.49 39.0418C239.394 39.0959 238.951 39.3111 237.998 39.5049C237.062 39.6952 235.795 39.832 234.172 39.832V49.832V59.832C239.373 59.832 244.775 59.0014 249.253 56.4973C254.177 53.7433 258.094 48.7584 258.094 41.9687H248.094ZM234.172 49.832V39.832C232.576 39.832 231.329 39.6961 230.409 39.5077C229.472 39.3158 229.038 39.1031 228.945 39.0512C228.871 39.0094 229.269 39.2162 229.687 39.8621C230.146 40.5703 230.336 41.357 230.336 41.9687H220.336H210.336C210.336 48.7508 214.244 53.7322 219.149 56.4879C223.616 58.9972 229 59.832 234.172 59.832V49.832ZM220.336 41.9687H230.336C230.336 42.6078 230.137 43.4005 229.682 44.1015C229.268 44.7394 228.879 44.9401 228.96 44.8941C229.058 44.839 229.495 44.6249 230.428 44.432C231.344 44.2426 232.585 44.1055 234.172 44.1055V34.1055V24.1055C228.977 24.1055 223.594 24.9585 219.135 27.4741C214.263 30.2219 210.336 35.1891 210.336 41.9687H220.336ZM234.172 39.3906V29.3906C231.638 29.3906 228.412 29.5407 225.531 30.5724C223.995 31.1224 221.825 32.1758 220.022 34.2798C218.02 36.6165 217.15 39.4575 217.214 42.2012L227.211 41.9687L237.208 41.7363C237.251 43.5562 236.649 45.613 235.209 47.2931C233.969 48.7404 232.656 49.2648 232.275 49.4013C231.857 49.5509 231.747 49.5215 232.187 49.4727C232.584 49.4286 233.222 49.3906 234.172 49.3906V39.3906ZM227.211 41.9687L217.214 41.7249C217.144 44.5775 218.098 47.4255 220.103 49.7076C221.895 51.7475 224.027 52.7729 225.531 53.3114C228.387 54.3341 231.583 54.5039 234.172 54.5039V44.5039V34.5039C233.239 34.5039 232.608 34.4645 232.217 34.4199C231.785 34.3706 231.878 34.3406 232.275 34.4825C232.623 34.6075 233.9 35.1092 235.129 36.5086C236.571 38.1502 237.256 40.2408 237.208 42.2126L227.211 41.9687ZM234.172 44.5039V54.5039C236.789 54.5039 239.976 54.3317 242.822 53.3308C244.317 52.8055 246.42 51.8135 248.214 49.8464C250.219 47.647 251.262 44.8516 251.262 41.9687H241.262H231.262C231.262 39.9667 232.014 37.9287 233.436 36.3698C234.646 35.0432 235.87 34.5749 236.188 34.4631C236.555 34.3344 236.62 34.3679 236.173 34.4184C235.764 34.4644 235.117 34.5039 234.172 34.5039V44.5039ZM241.262 41.9687H251.262C251.262 39.1918 250.305 36.3978 248.296 34.14C246.489 32.1085 244.348 31.0893 242.822 30.5529C239.951 29.5433 236.735 29.3906 234.172 29.3906V39.3906V49.3906C235.134 49.3906 235.788 49.4287 236.202 49.4741C236.658 49.524 236.576 49.5569 236.188 49.4207C235.839 49.2979 234.576 48.8077 233.353 47.4329C231.929 45.8317 231.262 43.8219 231.262 41.9687H241.262ZM274.906 12.5352H284.906C284.906 7.01231 280.429 2.53516 274.906 2.53516V12.5352ZM274.906 17.9492V27.9492C280.429 27.9492 284.906 23.4721 284.906 17.9492H274.906ZM267.688 17.9492V7.94922C264.874 7.94922 262.19 9.13478 260.295 11.215C258.4 13.2952 257.469 16.0775 257.731 18.8792L267.688 17.9492ZM276.41 27.3594L284.985 32.5043C286.589 29.8316 286.854 26.564 285.704 23.6673C284.553 20.7706 282.117 18.5762 279.117 17.7326L276.41 27.3594ZM273.188 32.7305L270.466 42.353C274.81 43.5818 279.44 41.747 281.762 37.8754L273.188 32.7305ZM264.336 26.1562L272.992 21.1483C271.141 17.9498 267.677 16.0325 263.984 16.1624C260.291 16.2923 256.971 18.4482 255.35 21.7689L264.336 26.1562ZM254.84 34.1484L246.448 39.5865C248.879 43.3381 253.504 45.0205 257.778 43.7072L254.84 34.1484ZM251.359 28.7773L248.389 19.2286C245.401 20.158 243.02 22.4326 241.956 25.3753C240.891 28.3179 241.266 31.5893 242.967 34.2154L251.359 28.7773ZM260.598 17.9492L270.549 18.9345C270.827 16.1247 269.905 13.3282 268.009 11.2355C266.113 9.14291 263.421 7.94922 260.598 7.94922V17.9492ZM253.164 17.9492H243.164C243.164 23.4721 247.641 27.9492 253.164 27.9492V17.9492ZM253.164 12.5352V2.53516C247.641 2.53516 243.164 7.01231 243.164 12.5352H253.164ZM284.016 10H294.016C294.016 4.47715 289.538 0 284.016 0V10ZM284.016 18.6797H274.016C274.016 24.2025 278.493 28.6797 284.016 28.6797V18.6797ZM288.957 18.6797H298.957C298.957 13.1568 294.48 8.67969 288.957 8.67969V18.6797ZM288.957 24.2227V34.2227C294.48 34.2227 298.957 29.7455 298.957 24.2227H288.957ZM284.016 24.2227V14.2227C278.493 14.2227 274.016 18.6998 274.016 24.2227H284.016ZM284.016 33.332V43.332C289.538 43.332 294.016 38.8549 294.016 33.332H284.016ZM277.098 33.332H267.098C267.098 38.8549 271.575 43.332 277.098 43.332V33.332ZM277.098 10V0C271.575 0 267.098 4.47715 267.098 10H277.098ZM270.824 33.9336L270.774 43.9335C270.808 43.9336 270.842 43.9336 270.876 43.9335L270.824 33.9336ZM256.945 41.8398L266.945 41.926C266.945 41.8686 266.945 41.8111 266.945 41.7536L256.945 41.8398ZM274.906 12.5352H264.906V17.9492H274.906H284.906V12.5352H274.906ZM274.906 17.9492V7.94922H267.688V17.9492V27.9492H274.906V17.9492ZM267.688 17.9492L257.731 18.8792C258.07 22.514 259.368 26.4503 262.249 29.897C265.138 33.354 269.094 35.6902 273.704 36.9862L276.41 27.3594L279.117 17.7326C278.383 17.5263 277.97 17.3147 277.772 17.1938C277.584 17.0786 277.556 17.0253 277.595 17.0712C277.633 17.1163 277.662 17.1711 277.674 17.2023C277.682 17.2233 277.658 17.1717 277.644 17.0192L267.688 17.9492ZM276.41 27.3594L267.835 22.2144L264.613 27.5855L273.188 32.7305L281.762 37.8754L284.985 32.5043L276.41 27.3594ZM273.188 32.7305L275.909 23.1079C274.884 22.818 274.264 22.4593 273.887 22.1712C273.514 21.8867 273.229 21.5583 272.992 21.1483L264.336 26.1562L255.68 31.1642C258.787 36.5342 263.835 40.4776 270.466 42.353L273.188 32.7305ZM264.336 26.1562L255.35 21.7689C254.726 23.0456 253.825 23.9986 251.902 24.5897L254.84 34.1484L257.778 43.7072C265.221 41.4194 270.379 36.5716 273.322 30.5436L264.336 26.1562ZM254.84 34.1484L263.232 28.7104L259.751 23.3393L251.359 28.7773L242.967 34.2154L246.448 39.5865L254.84 34.1484ZM251.359 28.7773L254.329 38.3261C259.324 36.7726 263.355 34.0258 266.193 30.2861C268.975 26.619 270.19 22.5553 270.549 18.9345L260.598 17.9492L250.646 16.9639C250.575 17.683 250.383 18.0343 250.26 18.1969C250.192 18.2867 249.818 18.7841 248.389 19.2286L251.359 28.7773ZM260.598 17.9492V7.94922H253.164V17.9492V27.9492H260.598V17.9492ZM253.164 17.9492H263.164V12.5352H253.164H243.164V17.9492H253.164ZM253.164 12.5352V22.5352H274.906V12.5352V2.53516L253.164 2.53516V12.5352ZM284.016 10H274.016V18.6797H284.016H294.016V10H284.016ZM284.016 18.6797V28.6797H288.957V18.6797V8.67969H284.016V18.6797ZM288.957 18.6797H278.957V24.2227H288.957H298.957V18.6797H288.957ZM288.957 24.2227V14.2227H284.016V24.2227V34.2227H288.957V24.2227ZM284.016 24.2227H274.016V33.332H284.016H294.016V24.2227H284.016ZM284.016 33.332V23.332H277.098V33.332V43.332H284.016V33.332ZM277.098 33.332H287.098V10H277.098H267.098V33.332H277.098ZM277.098 10V20H284.016V10V0L277.098 0V10ZM270.824 33.9336L270.876 43.9335C272.38 43.9257 273.55 44.0562 274.405 44.2359C275.275 44.4189 275.668 44.6208 275.737 44.6607C275.789 44.6903 275.408 44.4811 275.013 43.8595C274.583 43.1825 274.402 42.4312 274.402 41.8398H284.402H294.402C294.402 35.1435 290.597 30.1472 285.741 27.3422C281.29 24.7711 275.926 23.9072 270.773 23.9337L270.824 33.9336ZM284.402 41.8398H274.402C274.402 41.2489 274.582 40.5086 275.002 39.8458C275.386 39.2381 275.753 39.0365 275.693 39.0716C275.616 39.1165 275.218 39.3221 274.348 39.5102C273.493 39.6952 272.324 39.832 270.824 39.832V49.832V59.832C275.988 59.832 281.347 58.9328 285.785 56.3386C290.613 53.5167 294.402 48.5224 294.402 41.8398H284.402ZM270.824 49.832V39.832C269.255 39.832 268.021 39.6925 267.107 39.4997C266.177 39.3033 265.732 39.0846 265.624 39.0226C265.529 38.9687 265.905 39.1607 266.308 39.7885C266.753 40.4811 266.951 41.2739 266.945 41.926L256.945 41.8398L246.946 41.7536C246.887 48.5942 250.841 53.6103 255.701 56.3875C260.176 58.9446 265.589 59.832 270.824 59.832V49.832ZM256.945 41.8398L266.945 41.7536C266.951 42.4062 266.752 43.21 266.296 43.9169C265.882 44.5584 265.493 44.7576 265.579 44.7089C265.681 44.6518 266.121 44.4369 267.052 44.2459C267.965 44.0585 269.201 43.9256 270.774 43.9335L270.824 33.9336L270.874 23.9337C265.65 23.9075 260.232 24.7602 255.745 27.294C250.858 30.054 246.887 35.071 246.946 41.926L256.945 41.8398ZM270.824 39.2187V29.2187C268.301 29.2187 265.075 29.3702 262.183 30.4098C260.638 30.9652 258.5 32.0126 256.71 34.0713C254.734 36.3431 253.82 39.1164 253.82 41.8398H263.82H273.82C273.82 43.6179 273.196 45.591 271.802 47.1941C270.594 48.5841 269.328 49.0943 268.949 49.2308C268.539 49.3781 268.433 49.3489 268.866 49.3004C269.258 49.2566 269.887 49.2187 270.824 49.2187V39.2187ZM263.82 41.8398H253.82C253.82 44.5591 254.73 47.3117 256.671 49.5703C258.436 51.625 260.552 52.6904 262.107 53.2636C265.019 54.3372 268.262 54.5039 270.824 54.5039V44.5039V34.5039C269.903 34.5039 269.288 34.4646 268.911 34.4207C268.494 34.3722 268.609 34.3449 269.025 34.4982C269.414 34.6416 270.657 35.1592 271.841 36.5371C273.2 38.119 273.82 40.0659 273.82 41.8398H263.82ZM270.824 44.5039V54.5039C273.328 54.5039 276.589 54.3436 279.526 53.2085C281.123 52.5913 283.228 51.4597 284.943 49.3364C286.794 47.044 287.57 44.3632 287.57 41.8398H277.57H267.57C267.57 40.2618 268.078 38.3866 269.383 36.7711C270.551 35.3245 271.831 34.7407 272.316 34.5532C272.805 34.3644 272.993 34.3807 272.623 34.4252C272.294 34.4647 271.721 34.5039 270.824 34.5039V44.5039ZM277.57 41.8398H287.57C287.57 39.3139 286.791 36.6116 284.906 34.3045C283.165 32.1746 281.036 31.0612 279.447 30.4626C276.531 29.3637 273.288 29.2187 270.824 29.2187V39.2187V49.2187C271.737 49.2187 272.325 49.2565 272.67 49.2963C273.056 49.341 272.878 49.3599 272.395 49.178C271.919 48.9984 270.614 48.4221 269.42 46.9608C268.081 45.3225 267.57 43.4205 267.57 41.8398H277.57ZM321.957 10H331.957C331.957 4.47715 327.48 0 321.957 0V10ZM321.957 25.082H311.957C311.957 30.6049 316.434 35.082 321.957 35.082V25.082ZM327.328 25.082L337.328 25.082C337.328 19.5592 332.851 15.082 327.328 15.082V25.082ZM327.328 30.7109V40.7109C332.851 40.7109 337.328 36.2338 337.328 30.7109H327.328ZM321.957 30.7109V20.7109C316.434 20.7109 311.957 25.1881 311.957 30.7109H321.957ZM321.957 49.7461V59.7461C327.48 59.7461 331.957 55.2689 331.957 49.7461H321.957ZM315.125 49.7461H305.125C305.125 55.2689 309.602 59.7461 315.125 59.7461V49.7461ZM315.125 10V0C309.602 0 305.125 4.47715 305.125 10H315.125ZM313.191 15.6719H323.191C323.191 10.149 318.714 5.67187 313.191 5.67187V15.6719ZM313.191 21.1289V31.1289C318.714 31.1289 323.191 26.6518 323.191 21.1289H313.191ZM290.031 21.1289H280.031C280.031 26.6518 284.508 31.1289 290.031 31.1289V21.1289ZM290.031 15.6719V5.67187C284.508 5.67187 280.031 10.149 280.031 15.6719H290.031ZM298.238 15.6719V25.6719C303.761 25.6719 308.238 21.1947 308.238 15.6719H298.238ZM298.238 10.7305V0.730469C292.715 0.730469 288.238 5.20762 288.238 10.7305H298.238ZM305.113 10.7305H315.113C315.113 5.20762 310.636 0.730469 305.113 0.730469V10.7305ZM305.113 15.6719H295.113C295.113 21.1947 299.59 25.6719 305.113 25.6719V15.6719ZM297.852 32.3437L307.85 32.4976C307.852 32.3926 307.852 32.2875 307.85 32.1825L297.852 32.3437ZM321.957 10H311.957V25.082H321.957H331.957V10H321.957ZM321.957 25.082V35.082H327.328V25.082V15.082H321.957V25.082ZM327.328 25.082H317.328V30.7109H327.328H337.328V25.082L327.328 25.082ZM327.328 30.7109V20.7109H321.957V30.7109V40.7109H327.328V30.7109ZM321.957 30.7109H311.957V49.7461H321.957H331.957V30.7109H321.957ZM321.957 49.7461V39.7461H315.125V49.7461V59.7461H321.957V49.7461ZM315.125 49.7461H325.125V10H315.125H305.125V49.7461H315.125ZM315.125 10V20H321.957V10V0H315.125V10ZM313.191 15.6719H303.191V21.1289H313.191H323.191V15.6719H313.191ZM313.191 21.1289V11.1289L290.031 11.1289V21.1289V31.1289H313.191V21.1289ZM290.031 21.1289H300.031V15.6719H290.031H280.031V21.1289H290.031ZM290.031 15.6719V25.6719H298.238V15.6719V5.67187H290.031V15.6719ZM298.238 15.6719H308.238V10.7305L298.238 10.7305H288.238V15.6719H298.238ZM298.238 10.7305V20.7305H305.113V10.7305V0.730469H298.238V10.7305ZM305.113 10.7305L295.113 10.7305V15.6719H305.113H315.113V10.7305H305.113ZM305.113 15.6719V25.6719H313.191V15.6719V5.67187H305.113V15.6719ZM301.676 22.6758V32.6758C302.002 32.6758 302.2 32.7311 302.289 32.7641C302.378 32.7974 302.371 32.8128 302.315 32.7608C302.255 32.7055 302.179 32.6106 302.124 32.4862C302.067 32.3569 302.074 32.29 302.074 32.3437H312.074H322.074C322.074 20.4166 312.277 12.6758 301.676 12.6758V22.6758ZM312.074 32.3437H302.074C302.074 32.4188 302.063 32.3657 302.117 32.2435C302.168 32.1256 302.242 32.0317 302.303 31.9749C302.361 31.9214 302.371 31.9351 302.284 31.9673C302.199 31.9994 302.002 32.0547 301.676 32.0547V42.0547V52.0547C312.307 52.0547 322.074 44.2857 322.074 32.3437H312.074ZM301.676 42.0547V32.0547C301.292 32.0547 301.07 31.9911 300.982 31.9582C300.894 31.9257 300.916 31.9166 300.989 31.9846C301.066 32.056 301.146 32.1625 301.198 32.2831C301.251 32.4057 301.234 32.4461 301.234 32.3437H291.234H281.234C281.234 44.2597 290.887 52.0547 301.676 52.0547V42.0547ZM291.234 32.3437H301.234C301.234 32.2625 301.247 32.3167 301.19 32.4465C301.135 32.5737 301.053 32.6813 300.978 32.751C300.905 32.8175 300.886 32.8068 300.977 32.7732C301.069 32.7394 301.293 32.6758 301.676 32.6758V22.6758V12.6758C290.918 12.6758 281.234 20.4426 281.234 32.3437H291.234ZM301.676 28.2187V18.2187C298.362 18.2187 294.641 19.3418 291.757 22.2942C288.852 25.2668 287.797 29.0654 287.853 32.505L297.852 32.3437L307.85 32.1825C307.863 32.958 307.603 34.6941 306.063 36.2703C304.543 37.8262 302.755 38.2187 301.676 38.2187V28.2187ZM297.852 32.3437L287.853 32.1899C287.801 35.5736 288.789 39.4751 291.839 42.5247C294.84 45.5265 298.609 46.4687 301.676 46.4687V36.4687V26.4687C302.508 26.4687 304.343 26.745 305.981 28.3825C307.666 30.0678 307.859 31.9069 307.85 32.4976L297.852 32.3437ZM301.676 36.4687V46.4687C304.789 46.4687 308.546 45.4854 311.515 42.4683C314.488 39.448 315.457 35.6263 315.457 32.3437H305.457H295.457C295.457 31.8542 295.631 30.095 297.261 28.4389C298.888 26.7861 300.754 26.4687 301.676 26.4687V36.4687ZM305.457 32.3437H315.457C315.457 29.0131 314.428 25.2955 311.597 22.3511C308.748 19.3886 305.04 18.2187 301.676 18.2187V28.2187V38.2187C300.503 38.2187 298.686 37.7793 297.18 36.2133C295.692 34.6654 295.457 33.0104 295.457 32.3437H305.457ZM360.629 20.0977H370.629C370.629 14.5748 366.152 10.0977 360.629 10.0977V20.0977ZM360.629 25.4258V35.4258C366.152 35.4258 370.629 30.9486 370.629 25.4258H360.629ZM332.527 25.4258H322.527C322.527 30.9486 327.004 35.4258 332.527 35.4258V25.4258ZM332.527 11.418V1.41797C327.004 1.41797 322.527 5.89512 322.527 11.418H332.527ZM339.402 11.418H349.402C349.402 5.89512 344.925 1.41797 339.402 1.41797V11.418ZM339.402 20.0977L329.402 20.0977C329.402 25.6205 333.879 30.0977 339.402 30.0977V20.0977ZM364.539 28.9492H374.539C374.539 23.4264 370.062 18.9492 364.539 18.9492V28.9492ZM364.539 34.2773V44.2773C370.062 44.2773 374.539 39.8002 374.539 34.2773H364.539ZM328.273 34.2773H318.273C318.273 39.8002 322.751 44.2773 328.273 44.2773V34.2773ZM328.273 28.9492V18.9492C322.751 18.9492 318.273 23.4264 318.273 28.9492H328.273ZM360.887 43.4727H370.887C370.887 37.9498 366.41 33.4727 360.887 33.4727V43.4727ZM360.887 48.9727V58.9727C366.41 58.9727 370.887 54.4955 370.887 48.9727H360.887ZM332.055 48.9727H322.055C322.055 54.4955 326.532 58.9727 332.055 58.9727V48.9727ZM332.055 37.0273V27.0273C326.532 27.0273 322.055 31.5045 322.055 37.0273H332.055ZM339.016 37.0273H349.016C349.016 31.5045 344.538 27.0273 339.016 27.0273V37.0273ZM339.016 43.4727H329.016C329.016 48.9955 333.493 53.4727 339.016 53.4727V43.4727ZM360.629 20.0977H350.629V25.4258H360.629H370.629V20.0977H360.629ZM360.629 25.4258V15.4258L332.527 15.4258V25.4258V35.4258H360.629V25.4258ZM332.527 25.4258L342.527 25.4258V11.418H332.527H322.527V25.4258H332.527ZM332.527 11.418V21.418L339.402 21.418V11.418V1.41797H332.527V11.418ZM339.402 11.418H329.402V20.0977L339.402 20.0977H349.402V11.418H339.402ZM339.402 20.0977V30.0977H360.629V20.0977V10.0977H339.402V20.0977ZM364.539 28.9492H354.539V34.2773H364.539H374.539V28.9492H364.539ZM364.539 34.2773V24.2773L328.273 24.2773V34.2773V44.2773H364.539V34.2773ZM328.273 34.2773H338.273V28.9492H328.273H318.273V34.2773H328.273ZM328.273 28.9492V38.9492H364.539V28.9492V18.9492L328.273 18.9492V28.9492ZM360.887 43.4727H350.887V48.9727H360.887H370.887V43.4727H360.887ZM360.887 48.9727V38.9727H332.055V48.9727V58.9727H360.887V48.9727ZM332.055 48.9727H342.055V37.0273H332.055H322.055V48.9727H332.055ZM332.055 37.0273V47.0273H339.016V37.0273V27.0273L332.055 27.0273V37.0273ZM339.016 37.0273H329.016V43.4727H339.016H349.016V37.0273H339.016ZM339.016 43.4727V53.4727H360.887V43.4727V33.4727H339.016V43.4727Z" fill="white" mask="url(#path-1-outside-1_6524_1793)"/>
</g>
<defs>
<filter id="filter0_d_6524_1793" x="0" y="0" width="378.539" height="67.875" filterUnits="userSpaceOnUse" color-interpolation-filters="sRGB">
<feFlood flood-opacity="0" result="BackgroundImageFix"/>
<feColorMatrix in="SourceAlpha" type="matrix" values="0 0 0 0 0 0 0 0 0 0 0 0 0 0 0 0 0 0 127 0" result="hardAlpha"/>
<feOffset dy="4"/>
<feGaussianBlur stdDeviation="2"/>
<feComposite in2="hardAlpha" operator="out"/>
<feColorMatrix type="matrix" values="0 0 0 0 0 0 0 0 0 0 0 0 0 0 0 0 0 0 0.07 0"/>
<feBlend mode="normal" in2="BackgroundImageFix" result="effect1_dropShadow_6524_1793"/>
<feBlend mode="normal" in="SourceGraphic" in2="effect1_dropShadow_6524_1793" result="shape"/>
</filter>
</defs>
</svg>
