<svg width="263" height="68" viewBox="0 0 263 68" fill="none" xmlns="http://www.w3.org/2000/svg">
<g filter="url(#filter0_d_6524_1903)">
<mask id="path-1-outside-1_6524_1903" maskUnits="userSpaceOnUse" x="3.57031" y="-0.507813" width="255" height="61" fill="black">
<rect fill="white" x="3.57031" y="-0.507813" width="255" height="61"/>
<path d="M47.9453 10V29.8086H41.0703V10L47.9453 10ZM47.9883 31.3984V42.9141H27.6641V44.2461H48.8477V49.5742H20.918V37.9297H41.1133V36.6406H20.832V31.3984H47.9883ZM30.4141 13.7812C30.3711 18.1211 32.3906 22.5039 39.2656 24.3516L35.957 29.6367C31.5312 28.4551 28.6094 26.0488 26.8477 22.9336C25.043 26.3496 21.9922 29.0352 17.3516 30.2812L14 24.9102C21.0469 22.9766 23.1953 18.1641 23.2383 13.7812V10.7305H30.4141V13.7812ZM86.875 10V34.793H80.3438V24.8242H78.5391V33.5469H72.0938V10.7305H78.5391V19.2383H80.3438V10H86.875ZM71.2344 13.6953V18.9805H52.2852V13.6953H58.3438V10.4297H65.1758V13.6953H71.2344ZM61.8242 19.7969C66.8945 19.7969 70.5898 22.6758 70.6328 26.8438C70.5898 30.9688 66.8945 33.8047 61.8242 33.8047C56.8828 33.8047 53.1875 30.9688 53.1875 26.8438C53.1875 22.6758 56.8828 19.7969 61.8242 19.7969ZM61.8242 24.6953C60.3203 24.6953 59.2891 25.3828 59.2891 26.8438C59.2891 28.2617 60.3203 28.9922 61.8242 28.9922C63.3711 28.9922 64.3594 28.2617 64.4023 26.8438C64.3594 25.3828 63.3711 24.6953 61.8242 24.6953ZM72.9961 34.9648C81.7617 34.9648 87.0469 37.6719 87.0898 42.3984C87.0469 47.125 81.7617 49.832 72.9961 49.832C64.3594 49.832 58.9883 47.125 59.0312 42.3984C58.9883 37.6719 64.3594 34.9648 72.9961 34.9648ZM72.9961 40.0781C68.1406 40.0781 65.9062 40.6797 65.9062 42.3984C65.9062 44.0312 68.1406 44.6758 72.9961 44.6758C77.9375 44.6758 80.0859 44.0312 80.1289 42.3984C80.0859 40.6797 77.9375 40.0781 72.9961 40.0781ZM108.66 11.7187C117.082 11.7187 123.871 16.4023 123.871 23.4492C123.871 30.625 117.082 35.2656 108.66 35.2656C100.195 35.2656 93.4492 30.625 93.4922 23.4492C93.4492 16.4023 100.195 11.7187 108.66 11.7187ZM108.66 17.2617C103.676 17.2617 100.195 19.5391 100.195 23.4492C100.195 27.4883 103.676 29.5938 108.66 29.6367C113.559 29.5938 116.996 27.4883 117.039 23.4492C116.996 19.5391 113.559 17.2617 108.66 17.2617ZM126.836 39.6914V45.2344H90.5273V39.6914H126.836ZM164.863 40.0781V45.6641L128.555 45.6641V40.0781L143.25 40.0781V35.0078L132.508 35.0078V20.957H154.121V17.8633H132.465V12.3633H160.953V26.2852H139.426V29.4648L161.855 29.4648V35.0078H150.082V40.0781H164.863ZM193.051 32.8594V43.3437H186.262V44.6758C189.613 44.6758 191.396 44.6113 193.523 44.2891L193.91 49.0586C191.074 49.5742 188.582 49.6172 182.352 49.5742H179.859V38.875H186.605V37.543H179.73V32.8594H193.051ZM208.434 32.8594V49.5742H194.898V32.8594H208.434ZM200.57 37.6719V44.6758H202.633V37.6719H200.57ZM212.43 25.8555V31.1836H176.164V25.8555H190.73V24.1797C183.619 23.5996 179.516 21.1934 179.559 17.3047C179.516 12.8359 185.016 10.3437 194.297 10.3008C203.492 10.3437 208.949 12.8359 208.992 17.3047C208.949 21.2578 204.76 23.6641 197.562 24.2227V25.8555L212.43 25.8555ZM194.297 15.3281C188.926 15.3281 186.777 15.9297 186.777 17.3047C186.777 18.7656 188.926 19.2383 194.297 19.2383C199.582 19.2383 201.859 18.7656 201.859 17.3047C201.859 15.9297 199.582 15.3281 194.297 15.3281ZM247.621 10.0859V38.918H240.703V10.0859H247.621ZM236.02 12.9219C235.977 24.0078 229.574 31.5273 217.328 34.9648L214.707 29.5078C223.021 27.209 227.426 23.2773 228.5 18.5078H217.07V12.9219H236.02ZM248.309 43.6875V49.1875H220.637V36.2969H227.512V43.6875H248.309Z"/>
</mask>
<path d="M47.9453 10V29.8086H41.0703V10L47.9453 10ZM47.9883 31.3984V42.9141H27.6641V44.2461H48.8477V49.5742H20.918V37.9297H41.1133V36.6406H20.832V31.3984H47.9883ZM30.4141 13.7812C30.3711 18.1211 32.3906 22.5039 39.2656 24.3516L35.957 29.6367C31.5312 28.4551 28.6094 26.0488 26.8477 22.9336C25.043 26.3496 21.9922 29.0352 17.3516 30.2812L14 24.9102C21.0469 22.9766 23.1953 18.1641 23.2383 13.7812V10.7305H30.4141V13.7812ZM86.875 10V34.793H80.3438V24.8242H78.5391V33.5469H72.0938V10.7305H78.5391V19.2383H80.3438V10H86.875ZM71.2344 13.6953V18.9805H52.2852V13.6953H58.3438V10.4297H65.1758V13.6953H71.2344ZM61.8242 19.7969C66.8945 19.7969 70.5898 22.6758 70.6328 26.8438C70.5898 30.9688 66.8945 33.8047 61.8242 33.8047C56.8828 33.8047 53.1875 30.9688 53.1875 26.8438C53.1875 22.6758 56.8828 19.7969 61.8242 19.7969ZM61.8242 24.6953C60.3203 24.6953 59.2891 25.3828 59.2891 26.8438C59.2891 28.2617 60.3203 28.9922 61.8242 28.9922C63.3711 28.9922 64.3594 28.2617 64.4023 26.8438C64.3594 25.3828 63.3711 24.6953 61.8242 24.6953ZM72.9961 34.9648C81.7617 34.9648 87.0469 37.6719 87.0898 42.3984C87.0469 47.125 81.7617 49.832 72.9961 49.832C64.3594 49.832 58.9883 47.125 59.0312 42.3984C58.9883 37.6719 64.3594 34.9648 72.9961 34.9648ZM72.9961 40.0781C68.1406 40.0781 65.9062 40.6797 65.9062 42.3984C65.9062 44.0312 68.1406 44.6758 72.9961 44.6758C77.9375 44.6758 80.0859 44.0312 80.1289 42.3984C80.0859 40.6797 77.9375 40.0781 72.9961 40.0781ZM108.66 11.7187C117.082 11.7187 123.871 16.4023 123.871 23.4492C123.871 30.625 117.082 35.2656 108.66 35.2656C100.195 35.2656 93.4492 30.625 93.4922 23.4492C93.4492 16.4023 100.195 11.7187 108.66 11.7187ZM108.66 17.2617C103.676 17.2617 100.195 19.5391 100.195 23.4492C100.195 27.4883 103.676 29.5938 108.66 29.6367C113.559 29.5938 116.996 27.4883 117.039 23.4492C116.996 19.5391 113.559 17.2617 108.66 17.2617ZM126.836 39.6914V45.2344H90.5273V39.6914H126.836ZM164.863 40.0781V45.6641L128.555 45.6641V40.0781L143.25 40.0781V35.0078L132.508 35.0078V20.957H154.121V17.8633H132.465V12.3633H160.953V26.2852H139.426V29.4648L161.855 29.4648V35.0078H150.082V40.0781H164.863ZM193.051 32.8594V43.3437H186.262V44.6758C189.613 44.6758 191.396 44.6113 193.523 44.2891L193.91 49.0586C191.074 49.5742 188.582 49.6172 182.352 49.5742H179.859V38.875H186.605V37.543H179.73V32.8594H193.051ZM208.434 32.8594V49.5742H194.898V32.8594H208.434ZM200.57 37.6719V44.6758H202.633V37.6719H200.57ZM212.43 25.8555V31.1836H176.164V25.8555H190.73V24.1797C183.619 23.5996 179.516 21.1934 179.559 17.3047C179.516 12.8359 185.016 10.3437 194.297 10.3008C203.492 10.3437 208.949 12.8359 208.992 17.3047C208.949 21.2578 204.76 23.6641 197.562 24.2227V25.8555L212.43 25.8555ZM194.297 15.3281C188.926 15.3281 186.777 15.9297 186.777 17.3047C186.777 18.7656 188.926 19.2383 194.297 19.2383C199.582 19.2383 201.859 18.7656 201.859 17.3047C201.859 15.9297 199.582 15.3281 194.297 15.3281ZM247.621 10.0859V38.918H240.703V10.0859H247.621ZM236.02 12.9219C235.977 24.0078 229.574 31.5273 217.328 34.9648L214.707 29.5078C223.021 27.209 227.426 23.2773 228.5 18.5078H217.07V12.9219H236.02ZM248.309 43.6875V49.1875H220.637V36.2969H227.512V43.6875H248.309Z" fill="#11DCA9"/>
<path d="M47.9453 10H57.9453C57.9453 4.47715 53.4682 0 47.9453 0V10ZM47.9453 29.8086V39.8086C53.4682 39.8086 57.9453 35.3314 57.9453 29.8086H47.9453ZM41.0703 29.8086H31.0703C31.0703 35.3314 35.5475 39.8086 41.0703 39.8086V29.8086ZM41.0703 10V0C35.5475 0 31.0703 4.47715 31.0703 10H41.0703ZM47.9883 31.3984H57.9883C57.9883 25.8756 53.5111 21.3984 47.9883 21.3984V31.3984ZM47.9883 42.9141V52.9141C53.5111 52.9141 57.9883 48.4369 57.9883 42.9141H47.9883ZM27.6641 42.9141V32.9141C22.1412 32.9141 17.6641 37.3912 17.6641 42.9141H27.6641ZM27.6641 44.2461H17.6641C17.6641 49.7689 22.1412 54.2461 27.6641 54.2461V44.2461ZM48.8477 44.2461H58.8477C58.8477 38.7232 54.3705 34.2461 48.8477 34.2461V44.2461ZM48.8477 49.5742V59.5742C54.3705 59.5742 58.8477 55.0971 58.8477 49.5742H48.8477ZM20.918 49.5742H10.918C10.918 55.0971 15.3951 59.5742 20.918 59.5742V49.5742ZM20.918 37.9297V27.9297C15.3951 27.9297 10.918 32.4068 10.918 37.9297H20.918ZM41.1133 37.9297V47.9297C46.6361 47.9297 51.1133 43.4525 51.1133 37.9297H41.1133ZM41.1133 36.6406H51.1133C51.1133 31.1178 46.6361 26.6406 41.1133 26.6406V36.6406ZM20.832 36.6406H10.832C10.832 42.1635 15.3092 46.6406 20.832 46.6406V36.6406ZM20.832 31.3984V21.3984C15.3092 21.3984 10.832 25.8756 10.832 31.3984H20.832ZM30.4141 13.7812L40.4136 13.8803C40.4139 13.8473 40.4141 13.8143 40.4141 13.7812H30.4141ZM39.2656 24.3516L47.7417 29.6577C49.424 26.9704 49.7323 23.6446 48.5727 20.6939C47.413 17.7431 44.9228 15.5171 41.861 14.6942L39.2656 24.3516ZM35.957 29.6367L33.3775 39.2983C37.6192 40.4308 42.1036 38.6642 44.4331 34.9429L35.957 29.6367ZM26.8477 22.9336L35.5522 18.011C33.7526 14.8288 30.3599 12.8823 26.7044 12.9346C23.049 12.987 19.7134 15.0299 18.0057 18.2624L26.8477 22.9336ZM17.3516 30.2812L8.86777 35.5751C11.1976 39.3088 15.6945 41.0804 19.9449 39.9391L17.3516 30.2812ZM14 24.9102L11.3539 15.2666C8.30785 16.1024 5.83575 18.3282 4.68601 21.2702C3.53627 24.2121 3.84406 27.5243 5.51621 30.204L14 24.9102ZM23.2383 13.7812L33.2378 13.8793C33.2381 13.8466 33.2383 13.8139 33.2383 13.7812H23.2383ZM23.2383 10.7305V0.730469C17.7154 0.730469 13.2383 5.20762 13.2383 10.7305H23.2383ZM30.4141 10.7305H40.4141C40.4141 5.20762 35.9369 0.730469 30.4141 0.730469V10.7305ZM47.9453 10L37.9453 10V29.8086H47.9453H57.9453V10H47.9453ZM47.9453 29.8086V19.8086H41.0703V29.8086V39.8086H47.9453V29.8086ZM41.0703 29.8086H51.0703V10L41.0703 10H31.0703V29.8086H41.0703ZM41.0703 10V20H47.9453V10V0H41.0703V10ZM47.9883 31.3984H37.9883V42.9141H47.9883H57.9883V31.3984H47.9883ZM47.9883 42.9141V32.9141H27.6641V42.9141V52.9141H47.9883V42.9141ZM27.6641 42.9141H17.6641V44.2461H27.6641H37.6641V42.9141H27.6641ZM27.6641 44.2461V54.2461H48.8477V44.2461V34.2461H27.6641V44.2461ZM48.8477 44.2461H38.8477V49.5742H48.8477H58.8477V44.2461H48.8477ZM48.8477 49.5742V39.5742H20.918V49.5742V59.5742H48.8477V49.5742ZM20.918 49.5742H30.918V37.9297H20.918H10.918V49.5742H20.918ZM20.918 37.9297V47.9297H41.1133V37.9297V27.9297H20.918V37.9297ZM41.1133 37.9297H51.1133V36.6406H41.1133H31.1133V37.9297H41.1133ZM41.1133 36.6406V26.6406H20.832V36.6406V46.6406H41.1133V36.6406ZM20.832 36.6406H30.832V31.3984H20.832H10.832L10.832 36.6406H20.832ZM20.832 31.3984V41.3984H47.9883V31.3984V21.3984H20.832V31.3984ZM30.4141 13.7812L20.4146 13.6822C20.3776 17.4146 21.2311 21.8564 24.1572 25.8813C27.1276 29.967 31.5048 32.6207 36.6702 34.0089L39.2656 24.3516L41.861 14.6942C40.9773 14.4567 40.5318 14.2136 40.3617 14.1048C40.2095 14.0076 40.246 13.9997 40.334 14.1206C40.5424 14.4073 40.4076 14.4877 40.4136 13.8803L30.4141 13.7812ZM39.2656 24.3516L30.7895 19.0454L27.4809 24.3305L35.957 29.6367L44.4331 34.9429L47.7417 29.6577L39.2656 24.3516ZM35.957 29.6367L38.5366 19.9751C37.4452 19.6838 36.81 19.318 36.4397 19.0377C36.0768 18.7629 35.7945 18.4395 35.5522 18.011L26.8477 22.9336L18.1431 27.8561C21.3007 33.4395 26.5043 37.4632 33.3775 39.2983L35.957 29.6367ZM26.8477 22.9336L18.0057 18.2624C17.6956 18.8495 17.3357 19.277 16.9178 19.6112C16.5025 19.9432 15.8444 20.3317 14.7582 20.6234L17.3516 30.2812L19.9449 39.9391C27.2849 37.9682 32.5927 33.4669 35.6896 27.6048L26.8477 22.9336ZM17.3516 30.2812L25.8354 24.9874L22.4838 19.6163L14 24.9102L5.51621 30.204L8.86777 35.5751L17.3516 30.2812ZM14 24.9102L16.6461 34.5537C22.0563 33.0692 26.4379 30.1997 29.3829 26.0765C32.2553 22.0552 33.201 17.6295 33.2378 13.8793L23.2383 13.7812L13.2388 13.6832C13.2358 13.9891 13.1962 14.1983 13.1615 14.3182C13.1449 14.3756 13.1303 14.4099 13.1224 14.4265C13.1149 14.4422 13.1104 14.4488 13.1083 14.4518C13.1066 14.4542 13.0971 14.4675 13.0709 14.4927C13.0446 14.5181 12.987 14.5693 12.8817 14.6391C12.6759 14.7757 12.2165 15.0299 11.3539 15.2666L14 24.9102ZM23.2383 13.7812H33.2383V10.7305H23.2383H13.2383V13.7812H23.2383ZM23.2383 10.7305V20.7305H30.4141V10.7305V0.730469L23.2383 0.730469V10.7305ZM30.4141 10.7305H20.4141V13.7812H30.4141H40.4141V10.7305H30.4141ZM86.875 10H96.875C96.875 4.47715 92.3979 0 86.875 0V10ZM86.875 34.793V44.793C92.3979 44.793 96.875 40.3158 96.875 34.793H86.875ZM80.3438 34.793H70.3438C70.3438 40.3158 74.8209 44.793 80.3438 44.793V34.793ZM80.3438 24.8242H90.3438C90.3438 19.3014 85.8666 14.8242 80.3438 14.8242V24.8242ZM78.5391 24.8242V14.8242C73.0162 14.8242 68.5391 19.3014 68.5391 24.8242L78.5391 24.8242ZM78.5391 33.5469V43.5469C84.0619 43.5469 88.5391 39.0697 88.5391 33.5469H78.5391ZM72.0938 33.5469H62.0938C62.0938 39.0697 66.5709 43.5469 72.0938 43.5469V33.5469ZM72.0938 10.7305V0.730469C66.5709 0.730469 62.0938 5.20762 62.0938 10.7305H72.0938ZM78.5391 10.7305H88.5391C88.5391 5.20762 84.0619 0.730469 78.5391 0.730469V10.7305ZM78.5391 19.2383L68.5391 19.2383C68.5391 24.7611 73.0162 29.2383 78.5391 29.2383V19.2383ZM80.3438 19.2383V29.2383C85.8666 29.2383 90.3438 24.7611 90.3438 19.2383H80.3438ZM80.3438 10V0C74.8209 0 70.3438 4.47715 70.3438 10H80.3438ZM71.2344 13.6953L81.2344 13.6953C81.2344 8.17247 76.7572 3.69531 71.2344 3.69531V13.6953ZM71.2344 18.9805V28.9805C76.7572 28.9805 81.2344 24.5033 81.2344 18.9805L71.2344 18.9805ZM52.2852 18.9805H42.2852C42.2852 24.5033 46.7623 28.9805 52.2852 28.9805V18.9805ZM52.2852 13.6953V3.69531C46.7623 3.69531 42.2852 8.17247 42.2852 13.6953H52.2852ZM58.3438 13.6953V23.6953C63.8666 23.6953 68.3438 19.2182 68.3438 13.6953H58.3438ZM58.3438 10.4297V0.429687C52.8209 0.429687 48.3438 4.90684 48.3438 10.4297H58.3438ZM65.1758 10.4297H75.1758C75.1758 4.90684 70.6986 0.429687 65.1758 0.429687V10.4297ZM65.1758 13.6953H55.1758C55.1758 19.2182 59.6529 23.6953 65.1758 23.6953V13.6953ZM70.6328 26.8438L80.6323 26.9479C80.633 26.8788 80.633 26.8097 80.6323 26.7407L70.6328 26.8438ZM64.4023 26.8438L74.3978 27.1466C74.4038 26.9477 74.4039 26.7487 74.398 26.5498L64.4023 26.8438ZM87.0898 42.3984L97.0894 42.4893C97.09 42.4287 97.09 42.3681 97.0894 42.3075L87.0898 42.3984ZM59.0312 42.3984L69.0308 42.4893C69.0314 42.4287 69.0314 42.3681 69.0308 42.3075L59.0312 42.3984ZM80.1289 42.3984L90.1254 42.6615C90.1299 42.4905 90.1301 42.3195 90.1258 42.1485L80.1289 42.3984ZM86.875 10H76.875V34.793H86.875H96.875V10H86.875ZM86.875 34.793V24.793H80.3438V34.793V44.793H86.875V34.793ZM80.3438 34.793H90.3438V24.8242H80.3438L70.3438 24.8242V34.793H80.3438ZM80.3438 24.8242V14.8242H78.5391V24.8242V34.8242H80.3438V24.8242ZM78.5391 24.8242L68.5391 24.8242V33.5469H78.5391H88.5391V24.8242H78.5391ZM78.5391 33.5469V23.5469L72.0938 23.5469V33.5469V43.5469H78.5391V33.5469ZM72.0938 33.5469H82.0938V10.7305H72.0938H62.0938V33.5469H72.0938ZM72.0938 10.7305V20.7305L78.5391 20.7305V10.7305V0.730469H72.0938V10.7305ZM78.5391 10.7305H68.5391V19.2383L78.5391 19.2383H88.5391V10.7305H78.5391ZM78.5391 19.2383V29.2383H80.3438V19.2383V9.23828H78.5391V19.2383ZM80.3438 19.2383H90.3438V10H80.3438H70.3438V19.2383L80.3438 19.2383ZM80.3438 10V20H86.875V10V0L80.3438 0V10ZM71.2344 13.6953H61.2344V18.9805H71.2344L81.2344 18.9805V13.6953L71.2344 13.6953ZM71.2344 18.9805V8.98047H52.2852V18.9805V28.9805H71.2344V18.9805ZM52.2852 18.9805H62.2852V13.6953H52.2852H42.2852V18.9805H52.2852ZM52.2852 13.6953V23.6953H58.3438V13.6953V3.69531H52.2852V13.6953ZM58.3438 13.6953H68.3438V10.4297H58.3438H48.3438V13.6953H58.3438ZM58.3438 10.4297V20.4297H65.1758V10.4297V0.429687H58.3438V10.4297ZM65.1758 10.4297H55.1758V13.6953H65.1758H75.1758V10.4297H65.1758ZM65.1758 13.6953V23.6953H71.2344V13.6953V3.69531H65.1758V13.6953ZM61.8242 19.7969V29.7969C62.534 29.7969 62.413 29.9997 61.8964 29.5896C61.6244 29.3737 61.2878 29.0132 61.0225 28.4872C60.7515 27.9498 60.638 27.4024 60.6333 26.9468L70.6328 26.8438L80.6323 26.7407C80.5129 15.1574 70.218 9.79687 61.8242 9.79687V19.7969ZM70.6328 26.8438L60.6334 26.7396C60.6384 26.2561 60.76 25.683 61.0441 25.1261C61.3218 24.582 61.6712 24.2151 61.9463 23.9995C62.4644 23.5935 62.5687 23.8047 61.8242 23.8047V33.8047V43.8047C70.0868 43.8047 80.511 38.5917 80.6323 26.9479L70.6328 26.8438ZM61.8242 33.8047V23.8047C61.1938 23.8047 61.3437 23.6206 61.8731 24.0412C62.1542 24.2644 62.5062 24.6401 62.7835 25.1938C63.0678 25.7615 63.1875 26.347 63.1875 26.8438H53.1875H43.1875C43.1875 38.5152 53.6287 43.8047 61.8242 43.8047V33.8047ZM53.1875 26.8438H63.1875C63.1875 27.3125 63.0757 27.872 62.8046 28.4199C62.5397 28.955 62.2006 29.324 61.9229 29.5474C61.3957 29.9718 61.2292 29.7969 61.8242 29.7969V19.7969V9.79687C53.4959 9.79687 43.1875 15.2355 43.1875 26.8438H53.1875ZM61.8242 24.6953V14.6953C59.7297 14.6953 56.5889 15.1521 53.7688 17.3946C50.594 19.9191 49.2891 23.5322 49.2891 26.8438H59.2891H69.2891C69.2891 28.6944 68.4997 31.2332 66.2166 33.0487C64.288 34.5823 62.4149 34.6953 61.8242 34.6953V24.6953ZM59.2891 26.8438H49.2891C49.2891 30.2097 50.6435 33.7543 53.7115 36.2309C56.4799 38.4656 59.6002 38.9922 61.8242 38.9922V28.9922V18.9922C62.5444 18.9922 64.3971 19.1535 66.2739 20.6685C68.4503 22.4254 69.2891 24.8958 69.2891 26.8438H59.2891ZM61.8242 28.9922V38.9922C64.0316 38.9922 67.1683 38.4831 69.9584 36.2309C73.0151 33.7635 74.3022 30.3015 74.3978 27.1466L64.4023 26.8438L54.4069 26.5409C54.4596 24.804 55.231 22.4162 57.3961 20.6685C59.2946 19.136 61.1637 18.9922 61.8242 18.9922V28.9922ZM64.4023 26.8438L74.398 26.5498C74.3066 23.4408 73.061 19.9073 69.9012 17.3946C67.0604 15.1357 63.9027 14.6953 61.8242 14.6953V24.6953V34.6953C61.2926 34.6953 59.4025 34.5987 57.4533 33.0487C55.1851 31.2451 54.4551 28.7858 54.4067 27.1377L64.4023 26.8438ZM72.9961 34.9648V44.9648C74.692 44.9648 76.0283 45.0973 77.0282 45.2868C78.0482 45.4801 78.5445 45.6998 78.6776 45.7694C78.7999 45.8334 78.3691 45.6381 77.8913 44.9509C77.3572 44.1825 77.0974 43.2721 77.0903 42.4893L87.0898 42.3984L97.0894 42.3075C97.0265 35.3901 92.7952 30.5841 87.9504 28.0489C83.5151 25.728 78.1753 24.9648 72.9961 24.9648V34.9648ZM87.0898 42.3984L77.0903 42.3075C77.0974 41.5248 77.3572 40.6143 77.8913 39.8459C78.3691 39.1587 78.7999 38.9635 78.6776 39.0275C78.5445 39.0971 78.0482 39.3168 77.0282 39.5101C76.0283 39.6996 74.692 39.832 72.9961 39.832V49.832V59.832C78.1753 59.832 83.5151 59.0688 87.9504 56.7479C92.7952 54.2127 97.0265 49.4067 97.0894 42.4893L87.0898 42.3984ZM72.9961 49.832V39.832C71.3405 39.832 70.0262 39.7008 69.0384 39.5124C68.0294 39.3199 67.5356 39.1011 67.4033 39.0317C67.2779 38.966 67.7251 39.1685 68.2168 39.8825C68.7707 40.6869 69.0385 41.6501 69.0308 42.4893L59.0312 42.3984L49.0317 42.3075C48.9675 49.3639 53.3022 54.22 58.1143 56.7437C62.539 59.0642 67.8655 59.832 72.9961 59.832V49.832ZM59.0312 42.3984L69.0308 42.3075C69.0385 43.1467 68.7707 44.11 68.2168 44.9143C67.7251 45.6284 67.2779 45.8309 67.4033 45.7652C67.5356 45.6958 68.0294 45.477 69.0384 45.2845C70.0262 45.0961 71.3405 44.9648 72.9961 44.9648V34.9648V24.9648C67.8655 24.9648 62.539 25.7327 58.1143 28.0532C53.3022 30.5769 48.9675 35.433 49.0317 42.4893L59.0312 42.3984ZM72.9961 40.0781V30.0781C70.4992 30.0781 67.3845 30.1913 64.6401 31.0513C63.1963 31.5038 61.0031 32.4155 59.1073 34.396C56.9437 36.6563 55.9062 39.5355 55.9062 42.3984H65.9062H75.9062C75.9062 44.402 75.1481 46.5615 73.5552 48.2256C72.2301 49.6099 70.899 50.049 70.6206 50.1362C70.2774 50.2437 70.2471 50.2044 70.7689 50.1557C71.2458 50.1112 71.9628 50.0781 72.9961 50.0781V40.0781ZM65.9062 42.3984H55.9062C55.9062 45.3865 57.0465 48.2646 59.2027 50.4562C61.0799 52.3643 63.2274 53.2492 64.6401 53.6919C67.3605 54.5443 70.444 54.6758 72.9961 54.6758V44.6758V34.6758C71.9797 34.6758 71.2699 34.641 70.7986 34.5956C70.285 34.5462 70.2992 34.5062 70.6206 34.607C70.8678 34.6844 72.1533 35.102 73.4598 36.43C74.1612 37.143 74.8172 38.0699 75.2776 39.2042C75.7368 40.3355 75.9062 41.4383 75.9062 42.3984H65.9062ZM72.9961 44.6758V54.6758C75.5747 54.6758 78.6736 54.5469 81.4023 53.6879C82.8356 53.2367 84.9655 52.3454 86.828 50.4478C88.9449 48.2909 90.0505 45.5094 90.1254 42.6615L80.1289 42.3984L70.1324 42.1354C70.1858 40.1039 71.0067 38.0152 72.5543 36.4384C73.8475 35.1209 75.1234 34.6969 75.3966 34.6109C75.7302 34.5059 75.7534 34.5455 75.2355 34.5951C74.7599 34.6407 74.0387 34.6758 72.9961 34.6758V44.6758ZM80.1289 42.3984L90.1258 42.1485C90.0575 39.4155 89.0466 36.628 86.9232 34.4045C85.0423 32.4348 82.8671 31.5164 81.4023 31.0553C78.65 30.1888 75.5196 30.0781 72.9961 30.0781V40.0781V50.0781C74.0554 50.0781 74.7838 50.1115 75.265 50.1562C75.7914 50.205 75.7519 50.2441 75.3966 50.1322C75.0919 50.0363 73.7707 49.5906 72.4591 48.2171C70.9051 46.5898 70.1789 44.522 70.132 42.6484L80.1289 42.3984ZM93.4922 23.4492L103.492 23.5091C103.492 23.4688 103.492 23.4285 103.492 23.3882L93.4922 23.4492ZM108.66 29.6367L108.574 39.6363C108.632 39.6368 108.69 39.6368 108.748 39.6363L108.66 29.6367ZM117.039 23.4492L127.038 23.5556C127.039 23.4835 127.039 23.4114 127.038 23.3393L117.039 23.4492ZM126.836 39.6914H136.836C136.836 34.1686 132.359 29.6914 126.836 29.6914V39.6914ZM126.836 45.2344V55.2344C132.359 55.2344 136.836 50.7572 136.836 45.2344H126.836ZM90.5273 45.2344H80.5273C80.5273 50.7572 85.0045 55.2344 90.5273 55.2344V45.2344ZM90.5273 39.6914V29.6914C85.0045 29.6914 80.5273 34.1686 80.5273 39.6914H90.5273ZM108.66 11.7187V21.7187C111.119 21.7187 112.719 22.4153 113.444 22.9564C113.779 23.2061 113.867 23.3705 113.869 23.3751C113.872 23.3803 113.868 23.3736 113.866 23.364C113.863 23.354 113.871 23.3771 113.871 23.4492H123.871H133.871C133.871 16.3638 130.34 10.6092 125.404 6.9264C120.629 3.36404 114.623 1.71875 108.66 1.71875V11.7187ZM123.871 23.4492H113.871C113.871 23.5522 113.86 23.5994 113.858 23.6067C113.856 23.6141 113.855 23.6175 113.85 23.6272C113.844 23.6383 113.758 23.7985 113.434 24.0408C112.727 24.5696 111.14 25.2656 108.66 25.2656V35.2656V45.2656C114.602 45.2656 120.621 43.6414 125.414 40.0558C130.388 36.3351 133.871 30.5458 133.871 23.4492H123.871ZM108.66 35.2656V25.2656C106.148 25.2656 104.573 24.5643 103.891 24.0521C103.733 23.9338 103.636 23.8368 103.582 23.7737C103.528 23.7121 103.509 23.6774 103.506 23.6721C103.505 23.6686 103.505 23.6699 103.504 23.6653C103.503 23.6607 103.491 23.614 103.492 23.5091L93.4922 23.4492L83.4924 23.3893C83.4499 30.4843 86.8949 36.3003 91.8807 40.0446C96.6773 43.6467 102.708 45.2656 108.66 45.2656V35.2656ZM93.4922 23.4492L103.492 23.3882C103.492 23.3143 103.5 23.2918 103.496 23.3047C103.495 23.3089 103.494 23.3151 103.491 23.3217C103.488 23.3282 103.487 23.3312 103.488 23.3299C103.488 23.3291 103.506 23.295 103.562 23.2312C103.619 23.1662 103.719 23.0665 103.881 22.9452C104.581 22.4206 106.169 21.7187 108.66 21.7187V11.7187V1.71875C102.687 1.71875 96.6689 3.35873 91.8908 6.93764C86.9427 10.6438 83.4492 16.4254 83.4924 23.5102L93.4922 23.4492ZM108.66 17.2617V7.26172C104.803 7.26172 100.457 8.12202 96.7768 10.7301C92.7589 13.5773 90.1953 18.1058 90.1953 23.4492H100.195H110.195C110.195 23.9968 110.062 24.7429 109.655 25.5121C109.254 26.2683 108.738 26.7662 108.34 27.0483C107.646 27.5401 107.533 27.2617 108.66 27.2617V17.2617ZM100.195 23.4492H90.1953C90.1953 28.7983 92.7145 33.3809 96.8557 36.256C100.562 38.8293 104.889 39.6046 108.574 39.6363L108.66 29.6367L108.746 19.6371C108.175 19.6322 107.853 19.5681 107.746 19.5403C107.634 19.5113 107.864 19.5509 108.261 19.827C108.691 20.1255 109.242 20.6529 109.661 21.4475C110.084 22.2486 110.195 22.9847 110.195 23.4492H100.195ZM108.66 29.6367L108.748 39.6363C112.424 39.6041 116.728 38.8145 120.415 36.2268C124.511 33.352 126.983 28.8176 127.038 23.5556L117.039 23.4492L107.04 23.3428C107.044 22.9086 107.154 22.2092 107.559 21.4415C107.963 20.6776 108.495 20.1585 108.926 19.8562C109.659 19.3417 109.795 19.6264 108.572 19.6371L108.66 29.6367ZM117.039 23.4492L127.038 23.3393C126.981 18.0866 124.469 13.6071 120.494 10.7598C116.835 8.13848 112.511 7.26172 108.66 7.26172V17.2617V27.2617C109.707 27.2617 109.552 27.5236 108.847 27.0185C108.448 26.733 107.951 26.2439 107.566 25.5181C107.176 24.7822 107.045 24.074 107.04 23.5591L117.039 23.4492ZM126.836 39.6914H116.836V45.2344H126.836H136.836V39.6914H126.836ZM126.836 45.2344V35.2344H90.5273V45.2344V55.2344H126.836V45.2344ZM90.5273 45.2344H100.527V39.6914H90.5273H80.5273V45.2344H90.5273ZM90.5273 39.6914V49.6914H126.836V39.6914V29.6914H90.5273V39.6914ZM164.863 40.0781H174.863C174.863 34.5553 170.386 30.0781 164.863 30.0781V40.0781ZM164.863 45.6641V55.6641C170.386 55.6641 174.863 51.1869 174.863 45.6641H164.863ZM128.555 45.6641H118.555C118.555 51.1869 123.032 55.6641 128.555 55.6641V45.6641ZM128.555 40.0781V30.0781C123.032 30.0781 118.555 34.5553 118.555 40.0781H128.555ZM143.25 40.0781V50.0781C148.773 50.0781 153.25 45.601 153.25 40.0781H143.25ZM143.25 35.0078H153.25C153.25 29.485 148.773 25.0078 143.25 25.0078V35.0078ZM132.508 35.0078H122.508C122.508 40.5307 126.985 45.0078 132.508 45.0078V35.0078ZM132.508 20.957V10.957C126.985 10.957 122.508 15.4342 122.508 20.957H132.508ZM154.121 20.957V30.957C159.644 30.957 164.121 26.4799 164.121 20.957H154.121ZM154.121 17.8633H164.121C164.121 12.3404 159.644 7.86328 154.121 7.86328V17.8633ZM132.465 17.8633H122.465C122.465 23.3861 126.942 27.8633 132.465 27.8633V17.8633ZM132.465 12.3633V2.36328C126.942 2.36328 122.465 6.84043 122.465 12.3633H132.465ZM160.953 12.3633H170.953C170.953 6.84043 166.476 2.36328 160.953 2.36328V12.3633ZM160.953 26.2852V36.2852C166.476 36.2852 170.953 31.808 170.953 26.2852H160.953ZM139.426 26.2852V16.2852C133.903 16.2852 129.426 20.7623 129.426 26.2852H139.426ZM139.426 29.4648H129.426C129.426 34.9877 133.903 39.4648 139.426 39.4648V29.4648ZM161.855 29.4648H171.855C171.855 23.942 167.378 19.4648 161.855 19.4648V29.4648ZM161.855 35.0078V45.0078C167.378 45.0078 171.855 40.5307 171.855 35.0078H161.855ZM150.082 35.0078V25.0078C144.559 25.0078 140.082 29.485 140.082 35.0078L150.082 35.0078ZM150.082 40.0781L140.082 40.0781C140.082 45.601 144.559 50.0781 150.082 50.0781V40.0781ZM164.863 40.0781H154.863V45.6641H164.863H174.863V40.0781H164.863ZM164.863 45.6641V35.6641L128.555 35.6641V45.6641V55.6641L164.863 55.6641V45.6641ZM128.555 45.6641H138.555V40.0781H128.555H118.555V45.6641H128.555ZM128.555 40.0781V50.0781L143.25 50.0781V40.0781V30.0781L128.555 30.0781V40.0781ZM143.25 40.0781H153.25V35.0078H143.25L133.25 35.0078V40.0781L143.25 40.0781ZM143.25 35.0078V25.0078H132.508V35.0078V45.0078L143.25 45.0078V35.0078ZM132.508 35.0078L142.508 35.0078V20.957H132.508H122.508V35.0078H132.508ZM132.508 20.957V30.957L154.121 30.957V20.957V10.957H132.508V20.957ZM154.121 20.957H164.121V17.8633H154.121H144.121V20.957H154.121ZM154.121 17.8633V7.86328H132.465V17.8633V27.8633H154.121V17.8633ZM132.465 17.8633H142.465V12.3633H132.465H122.465V17.8633H132.465ZM132.465 12.3633V22.3633H160.953V12.3633V2.36328L132.465 2.36328V12.3633ZM160.953 12.3633H150.953V26.2852H160.953H170.953V12.3633H160.953ZM160.953 26.2852V16.2852H139.426V26.2852V36.2852L160.953 36.2852V26.2852ZM139.426 26.2852H129.426V29.4648H139.426L149.426 29.4648V26.2852H139.426ZM139.426 29.4648V39.4648L161.855 39.4648V29.4648V19.4648H139.426V29.4648ZM161.855 29.4648H151.855V35.0078H161.855H171.855V29.4648H161.855ZM161.855 35.0078V25.0078H150.082V35.0078V45.0078H161.855V35.0078ZM150.082 35.0078L140.082 35.0078V40.0781L150.082 40.0781H160.082V35.0078H150.082ZM150.082 40.0781V50.0781H164.863V40.0781V30.0781H150.082V40.0781ZM193.051 32.8594H203.051C203.051 27.3365 198.574 22.8594 193.051 22.8594V32.8594ZM193.051 43.3437V53.3437C198.574 53.3437 203.051 48.8666 203.051 43.3437H193.051ZM186.262 43.3437V33.3437C180.739 33.3437 176.262 37.8209 176.262 43.3437H186.262ZM186.262 44.6758H176.262C176.262 50.1986 180.739 54.6758 186.262 54.6758V44.6758ZM193.523 44.2891L203.491 43.4809C203.267 40.7172 201.905 38.1707 199.731 36.4494C197.558 34.7281 194.767 33.9865 192.025 34.4019L193.523 44.2891ZM193.91 49.0586L195.699 58.8973C200.756 57.9778 204.293 53.3739 203.877 48.2504L193.91 49.0586ZM182.352 49.5742L182.421 39.5745C182.398 39.5743 182.375 39.5742 182.352 39.5742V49.5742ZM179.859 49.5742H169.859C169.859 55.0971 174.337 59.5742 179.859 59.5742V49.5742ZM179.859 38.875V28.875C174.337 28.875 169.859 33.3522 169.859 38.875H179.859ZM186.605 38.875V48.875C192.128 48.875 196.605 44.3978 196.605 38.875H186.605ZM186.605 37.543H196.605C196.605 32.0201 192.128 27.543 186.605 27.543V37.543ZM179.73 37.543H169.73C169.73 43.0658 174.208 47.543 179.73 47.543V37.543ZM179.73 32.8594V22.8594C174.208 22.8594 169.73 27.3365 169.73 32.8594H179.73ZM208.434 32.8594H218.434C218.434 27.3365 213.956 22.8594 208.434 22.8594V32.8594ZM208.434 49.5742V59.5742C213.956 59.5742 218.434 55.0971 218.434 49.5742H208.434ZM194.898 49.5742H184.898C184.898 55.0971 189.376 59.5742 194.898 59.5742V49.5742ZM194.898 32.8594V22.8594C189.376 22.8594 184.898 27.3365 184.898 32.8594H194.898ZM200.57 37.6719V27.6719C195.047 27.6719 190.57 32.149 190.57 37.6719H200.57ZM200.57 44.6758H190.57C190.57 50.1986 195.047 54.6758 200.57 54.6758V44.6758ZM202.633 44.6758V54.6758C208.156 54.6758 212.633 50.1986 212.633 44.6758H202.633ZM202.633 37.6719H212.633C212.633 32.149 208.156 27.6719 202.633 27.6719V37.6719ZM212.43 25.8555H222.43C222.43 20.3326 217.953 15.8555 212.43 15.8555V25.8555ZM212.43 31.1836V41.1836C217.953 41.1836 222.43 36.7064 222.43 31.1836H212.43ZM176.164 31.1836H166.164C166.164 36.7064 170.641 41.1836 176.164 41.1836V31.1836ZM176.164 25.8555V15.8555C170.641 15.8555 166.164 20.3326 166.164 25.8555H176.164ZM190.73 25.8555V35.8555C196.253 35.8555 200.73 31.3783 200.73 25.8555H190.73ZM190.73 24.1797H200.73C200.73 18.9721 196.734 14.6362 191.543 14.2128L190.73 24.1797ZM179.559 17.3047L189.558 17.4152C189.559 17.3463 189.559 17.2774 189.558 17.2085L179.559 17.3047ZM194.297 10.3008L194.344 0.30089C194.313 0.300745 194.282 0.300745 194.251 0.300888L194.297 10.3008ZM208.992 17.3047L218.992 17.4134C218.992 17.3451 218.992 17.2768 218.992 17.2085L208.992 17.3047ZM197.562 24.2227L196.789 14.2526C191.582 14.6568 187.562 18.9999 187.562 24.2227H197.562ZM197.562 25.8555H187.562C187.562 31.3783 192.04 35.8555 197.562 35.8555V25.8555ZM193.051 32.8594H183.051V43.3437H193.051H203.051V32.8594H193.051ZM193.051 43.3437V33.3437H186.262V43.3437V53.3437H193.051V43.3437ZM186.262 43.3437H176.262V44.6758H186.262H196.262V43.3437H186.262ZM186.262 44.6758V54.6758C189.719 54.6758 192.12 54.6158 195.021 54.1762L193.523 44.2891L192.025 34.4019C190.673 34.6068 189.508 34.6758 186.262 34.6758V44.6758ZM193.523 44.2891L183.556 45.0972L183.943 49.8668L193.91 49.0586L203.877 48.2504L203.491 43.4809L193.523 44.2891ZM193.91 49.0586L192.121 39.2199C190.36 39.5401 188.81 39.6185 182.421 39.5745L182.352 49.5742L182.283 59.574C188.354 59.6159 191.788 59.6084 195.699 58.8973L193.91 49.0586ZM182.352 49.5742V39.5742H179.859V49.5742V59.5742H182.352V49.5742ZM179.859 49.5742H189.859V38.875H179.859H169.859V49.5742H179.859ZM179.859 38.875V48.875H186.605V38.875V28.875H179.859V38.875ZM186.605 38.875H196.605V37.543H186.605H176.605V38.875H186.605ZM186.605 37.543V27.543H179.73V37.543V47.543H186.605V37.543ZM179.73 37.543H189.73V32.8594H179.73H169.73V37.543H179.73ZM179.73 32.8594V42.8594H193.051V32.8594V22.8594H179.73V32.8594ZM208.434 32.8594H198.434V49.5742H208.434H218.434V32.8594H208.434ZM208.434 49.5742V39.5742H194.898V49.5742V59.5742H208.434V49.5742ZM194.898 49.5742H204.898V32.8594H194.898H184.898V49.5742H194.898ZM194.898 32.8594V42.8594H208.434V32.8594V22.8594L194.898 22.8594V32.8594ZM200.57 37.6719H190.57V44.6758H200.57H210.57V37.6719H200.57ZM200.57 44.6758V54.6758H202.633V44.6758V34.6758H200.57V44.6758ZM202.633 44.6758H212.633V37.6719H202.633H192.633V44.6758H202.633ZM202.633 37.6719V27.6719H200.57V37.6719V47.6719H202.633V37.6719ZM212.43 25.8555L202.43 25.8555V31.1836H212.43H222.43V25.8555H212.43ZM212.43 31.1836V21.1836L176.164 21.1836V31.1836V41.1836H212.43V31.1836ZM176.164 31.1836H186.164V25.8555H176.164H166.164V31.1836H176.164ZM176.164 25.8555V35.8555H190.73V25.8555V15.8555H176.164V25.8555ZM190.73 25.8555H200.73V24.1797H190.73H180.73V25.8555H190.73ZM190.73 24.1797L191.543 14.2128C190.227 14.1054 189.241 13.9276 188.548 13.7432C187.836 13.5541 187.597 13.4018 187.654 13.4367C187.726 13.4803 188.252 13.8179 188.759 14.6274C189.312 15.5094 189.568 16.5192 189.558 17.4152L179.559 17.3047L169.559 17.1942C169.49 23.4449 173.067 27.9762 177.269 30.5291C181.067 32.8365 185.63 33.7969 189.917 34.1466L190.73 24.1797ZM179.559 17.3047L189.558 17.2085C189.569 18.3125 189.186 19.4777 188.505 20.3757C187.923 21.1425 187.435 21.3104 187.679 21.196C187.913 21.0864 188.55 20.8472 189.749 20.6433C190.922 20.4439 192.446 20.3095 194.343 20.3007L194.297 10.3008L194.251 0.300888C188.972 0.325328 183.607 1.01467 179.183 3.09009C174.456 5.30808 169.488 9.95914 169.559 17.4008L179.559 17.3047ZM194.297 10.3008L194.25 20.3007C196.121 20.3094 197.623 20.4433 198.777 20.6411C199.955 20.8431 200.583 21.08 200.814 21.1891C201.053 21.3015 200.593 21.1434 200.034 20.4148C199.384 19.5665 199.003 18.4611 198.993 17.4008L208.992 17.3047L218.992 17.2085C218.922 9.90547 214.055 5.31919 209.339 3.09707C204.928 1.01831 199.594 0.325424 194.344 0.30089L194.297 10.3008ZM208.992 17.3047L198.993 17.196C199.002 16.3335 199.267 15.3726 199.804 14.5427C200.296 13.782 200.791 13.4763 200.834 13.4503C200.864 13.4325 200.596 13.5929 199.859 13.7845C199.14 13.9717 198.13 14.1486 196.789 14.2526L197.562 24.2227L198.336 34.1927C202.665 33.8567 207.255 32.9099 211.086 30.623C215.307 28.1033 218.924 23.6363 218.992 17.4134L208.992 17.3047ZM197.562 24.2227H187.562V25.8555H197.562L207.562 25.8555V24.2227L197.562 24.2227ZM197.562 25.8555V35.8555H212.43V25.8555V15.8555L197.562 15.8555V25.8555ZM194.297 15.3281V5.32812C191.525 5.32812 188.513 5.45388 185.946 6.13843C184.668 6.47935 182.548 7.19508 180.611 8.8911C178.285 10.9268 176.777 13.9107 176.777 17.3047H186.777H196.777C196.777 18.4768 196.538 19.7786 195.938 21.0614C195.345 22.3299 194.541 23.2772 193.783 23.9404C192.416 25.1369 191.17 25.4445 191.1 25.4631C190.906 25.5148 191.027 25.4628 191.667 25.4106C192.267 25.3618 193.12 25.3281 194.297 25.3281V15.3281ZM186.777 17.3047H176.777C176.777 20.5485 178.153 23.5962 180.611 25.7478C182.628 27.5134 184.84 28.2078 186.108 28.5233C188.639 29.1534 191.642 29.2383 194.297 29.2383V19.2383V9.23828C193.077 9.23828 192.191 9.21067 191.556 9.16613C190.875 9.11831 190.746 9.06763 190.938 9.11538C190.997 9.13004 192.337 9.43244 193.783 10.6985C194.59 11.4045 195.404 12.3905 195.988 13.6786C196.572 14.9667 196.777 16.2302 196.777 17.3047H186.777ZM194.297 19.2383V29.2383C196.932 29.2383 199.912 29.1501 202.435 28.5331C203.685 28.2275 205.862 27.5592 207.869 25.8669C210.319 23.7997 211.859 20.7426 211.859 17.3047L201.859 17.3047H191.859C191.859 16.1475 192.095 14.8283 192.719 13.5146C193.338 12.2123 194.181 11.2477 194.973 10.5794C196.387 9.38659 197.665 9.11044 197.685 9.10556C197.844 9.06669 197.689 9.11834 197.008 9.16613C196.371 9.21084 195.492 9.23828 194.297 9.23828V19.2383ZM201.859 17.3047L211.859 17.3047C211.859 13.7141 210.177 10.7195 207.869 8.77206C205.941 7.14634 203.855 6.45754 202.595 6.12731C200.039 5.45759 197.05 5.32812 194.297 5.32812V15.3281V25.3281C196.829 25.3281 197.622 25.4994 197.526 25.4743C197.495 25.4663 196.308 25.1857 194.973 24.0595C194.231 23.4331 193.4 22.5073 192.773 21.2278C192.133 19.9227 191.859 18.5643 191.859 17.3047H201.859ZM247.621 10.0859H257.621C257.621 4.56309 253.144 0.0859375 247.621 0.0859375V10.0859ZM247.621 38.918V48.918C253.144 48.918 257.621 44.4408 257.621 38.918H247.621ZM240.703 38.918H230.703C230.703 44.4408 235.18 48.918 240.703 48.918V38.918ZM240.703 10.0859V0.0859375C235.18 0.0859375 230.703 4.56309 230.703 10.0859L240.703 10.0859ZM236.02 12.9219L246.019 12.9606C246.03 10.3018 244.981 7.74828 243.104 5.86452C241.228 3.98077 238.678 2.92187 236.02 2.92187V12.9219ZM217.328 34.9648L208.314 39.2945C210.416 43.6704 215.357 45.9047 220.031 44.5927L217.328 34.9648ZM214.707 29.5078L212.042 19.8694C209.187 20.6588 206.829 22.6732 205.603 25.3697C204.378 28.0662 204.41 31.1674 205.693 33.8374L214.707 29.5078ZM228.5 18.5078L238.256 20.705C238.923 17.7411 238.207 14.6343 236.309 12.2617C234.412 9.88905 231.538 8.50781 228.5 8.50781V18.5078ZM217.07 18.5078H207.07C207.07 24.0307 211.547 28.5078 217.07 28.5078V18.5078ZM217.07 12.9219V2.92187C211.547 2.92187 207.07 7.39903 207.07 12.9219H217.07ZM248.309 43.6875H258.309C258.309 38.1647 253.831 33.6875 248.309 33.6875V43.6875ZM248.309 49.1875V59.1875C253.831 59.1875 258.309 54.7103 258.309 49.1875H248.309ZM220.637 49.1875H210.637C210.637 54.7103 215.114 59.1875 220.637 59.1875V49.1875ZM220.637 36.2969V26.2969C215.114 26.2969 210.637 30.774 210.637 36.2969H220.637ZM227.512 36.2969H237.512C237.512 30.774 233.035 26.2969 227.512 26.2969V36.2969ZM227.512 43.6875H217.512C217.512 49.2103 221.989 53.6875 227.512 53.6875V43.6875ZM247.621 10.0859H237.621V38.918H247.621H257.621V10.0859H247.621ZM247.621 38.918V28.918H240.703V38.918V48.918H247.621V38.918ZM240.703 38.918H250.703V10.0859H240.703L230.703 10.0859V38.918H240.703ZM240.703 10.0859V20.0859H247.621V10.0859V0.0859375L240.703 0.0859375V10.0859ZM236.02 12.9219L226.02 12.8831C226.006 16.3964 225.038 18.6769 223.626 20.3402C222.117 22.1178 219.405 23.9954 214.626 25.337L217.328 34.9648L220.031 44.5927C227.498 42.4968 234.109 38.8958 238.874 33.2829C243.735 27.5556 245.99 20.5332 246.019 12.9606L236.02 12.9219ZM217.328 34.9648L226.342 30.6352L223.721 25.1782L214.707 29.5078L205.693 33.8374L208.314 39.2945L217.328 34.9648ZM214.707 29.5078L217.372 39.1462C227.226 36.4217 235.997 30.7344 238.256 20.705L228.5 18.5078L218.744 16.3106C218.738 16.3383 218.726 16.3891 218.659 16.4932C218.585 16.607 218.398 16.8571 217.975 17.2037C217.087 17.9325 215.298 18.9693 212.042 19.8694L214.707 29.5078ZM228.5 18.5078V8.50781H217.07V18.5078V28.5078H228.5V18.5078ZM217.07 18.5078H227.07V12.9219H217.07H207.07V18.5078H217.07ZM217.07 12.9219V22.9219H236.02V12.9219V2.92187L217.07 2.92187V12.9219ZM248.309 43.6875H238.309V49.1875H248.309H258.309V43.6875H248.309ZM248.309 49.1875V39.1875H220.637V49.1875V59.1875H248.309V49.1875ZM220.637 49.1875H230.637V36.2969H220.637H210.637V49.1875H220.637ZM220.637 36.2969V46.2969H227.512V36.2969V26.2969H220.637V36.2969ZM227.512 36.2969H217.512V43.6875H227.512H237.512V36.2969H227.512ZM227.512 43.6875V53.6875H248.309V43.6875V33.6875H227.512V43.6875Z" fill="white" mask="url(#path-1-outside-1_6524_1903)"/>
</g>
<defs>
<filter id="filter0_d_6524_1903" x="0" y="0" width="262.309" height="67.832" filterUnits="userSpaceOnUse" color-interpolation-filters="sRGB">
<feFlood flood-opacity="0" result="BackgroundImageFix"/>
<feColorMatrix in="SourceAlpha" type="matrix" values="0 0 0 0 0 0 0 0 0 0 0 0 0 0 0 0 0 0 127 0" result="hardAlpha"/>
<feOffset dy="4"/>
<feGaussianBlur stdDeviation="2"/>
<feComposite in2="hardAlpha" operator="out"/>
<feColorMatrix type="matrix" values="0 0 0 0 0 0 0 0 0 0 0 0 0 0 0 0 0 0 0.07 0"/>
<feBlend mode="normal" in2="BackgroundImageFix" result="effect1_dropShadow_6524_1903"/>
<feBlend mode="normal" in="SourceGraphic" in2="effect1_dropShadow_6524_1903" result="shape"/>
</filter>
</defs>
</svg>
