<svg width="303" height="68" viewBox="0 0 303 68" fill="none" xmlns="http://www.w3.org/2000/svg">
<g filter="url(#filter0_d_6526_5755)">
<mask id="path-1-outside-1_6526_5755" maskUnits="userSpaceOnUse" x="3.57031" y="-0.507813" width="295" height="61" fill="black">
<rect fill="white" x="3.57031" y="-0.507813" width="295" height="61"/>
<path d="M47.9453 10V29.8086H41.0703V10L47.9453 10ZM47.9883 31.3984V42.9141H27.6641V44.2461H48.8477V49.5742H20.918V37.9297H41.1133V36.6406H20.832V31.3984H47.9883ZM30.4141 13.7812C30.3711 18.1211 32.3906 22.5039 39.2656 24.3516L35.957 29.6367C31.5312 28.4551 28.6094 26.0488 26.8477 22.9336C25.043 26.3496 21.9922 29.0352 17.3516 30.2812L14 24.9102C21.0469 22.9766 23.1953 18.1641 23.2383 13.7812V10.7305H30.4141V13.7812ZM86.875 10V34.793H80.3438V24.8242H78.5391V33.5469H72.0938V10.7305H78.5391V19.2383H80.3438V10H86.875ZM71.2344 13.6953V18.9805H52.2852V13.6953H58.3438V10.4297H65.1758V13.6953H71.2344ZM61.8242 19.7969C66.8945 19.7969 70.5898 22.6758 70.6328 26.8438C70.5898 30.9688 66.8945 33.8047 61.8242 33.8047C56.8828 33.8047 53.1875 30.9688 53.1875 26.8438C53.1875 22.6758 56.8828 19.7969 61.8242 19.7969ZM61.8242 24.6953C60.3203 24.6953 59.2891 25.3828 59.2891 26.8438C59.2891 28.2617 60.3203 28.9922 61.8242 28.9922C63.3711 28.9922 64.3594 28.2617 64.4023 26.8438C64.3594 25.3828 63.3711 24.6953 61.8242 24.6953ZM72.9961 34.9648C81.7617 34.9648 87.0469 37.6719 87.0898 42.3984C87.0469 47.125 81.7617 49.832 72.9961 49.832C64.3594 49.832 58.9883 47.125 59.0312 42.3984C58.9883 37.6719 64.3594 34.9648 72.9961 34.9648ZM72.9961 40.0781C68.1406 40.0781 65.9062 40.6797 65.9062 42.3984C65.9062 44.0312 68.1406 44.6758 72.9961 44.6758C77.9375 44.6758 80.0859 44.0312 80.1289 42.3984C80.0859 40.6797 77.9375 40.0781 72.9961 40.0781ZM124.086 10V49.875H117.125V10H124.086ZM102.258 12.6641C108.316 12.6211 112.871 18.207 112.871 26.9727C112.871 35.8672 108.316 41.4102 102.258 41.4102C96.0703 41.4102 91.4727 35.8672 91.4727 26.9727C91.4727 18.207 96.0703 12.6211 102.258 12.6641ZM102.258 18.8945C99.7227 18.8516 98.1328 21.4727 98.1328 26.9727C98.1328 32.5586 99.7227 35.0938 102.258 35.0938C104.621 35.0938 106.254 32.5586 106.254 26.9727C106.254 21.4727 104.621 18.8516 102.258 18.8945ZM170.492 19.4102V24.8672H142.691V11.1172H149.652V19.4102H170.492ZM174.488 26.8008V32.2578L138.137 32.2578V26.8008H174.488ZM170.406 34.3633V39.6914H160.652C161.984 41.7754 165.293 43.752 172.039 44.375L169.504 49.5312C162.844 48.8652 158.547 46.7383 156.184 43.7734C153.82 46.7383 149.523 48.8652 142.906 49.5312L140.414 44.375C147.117 43.752 150.426 41.7754 151.801 39.6914H142.133V34.3633H170.406ZM187.293 12.6641C192.6 12.6211 196.639 16.8965 197.605 23.8359H203.234V10H210.066V49.875H203.234V29.3359H197.691C196.961 36.834 192.793 41.4102 187.293 41.4102C181.148 41.4102 176.723 35.8672 176.723 26.9727C176.723 18.207 181.148 12.6211 187.293 12.6641ZM187.293 18.8945C184.93 18.8516 183.297 21.4727 183.34 26.9727C183.297 32.5586 184.93 35.0937 187.293 35.0937C189.699 35.0937 191.246 32.5586 191.246 26.9727C191.246 21.4727 189.699 18.8516 187.293 18.8945ZM230.305 19.9687C230.305 26.1992 232.625 33.0742 239.801 35.9961L236.148 41.3672C231.594 39.498 228.65 36.0176 226.953 31.7422C225.213 36.4902 222.227 40.3574 217.586 42.3984L213.719 36.9844C220.852 33.8906 223.258 26.6289 223.258 19.9687V19.2812H215.438V13.6953H237.91V19.2812H230.305V19.9687ZM247.75 10V49.7461H240.789V10H247.75ZM284.574 20.0977V25.4258H256.473V11.418H263.348V20.0977H284.574ZM288.484 28.9492V34.2773H252.219V28.9492H288.484ZM284.832 43.4727V48.9727H256V37.0273H262.961V43.4727H284.832Z"/>
</mask>
<path d="M47.9453 10V29.8086H41.0703V10L47.9453 10ZM47.9883 31.3984V42.9141H27.6641V44.2461H48.8477V49.5742H20.918V37.9297H41.1133V36.6406H20.832V31.3984H47.9883ZM30.4141 13.7812C30.3711 18.1211 32.3906 22.5039 39.2656 24.3516L35.957 29.6367C31.5312 28.4551 28.6094 26.0488 26.8477 22.9336C25.043 26.3496 21.9922 29.0352 17.3516 30.2812L14 24.9102C21.0469 22.9766 23.1953 18.1641 23.2383 13.7812V10.7305H30.4141V13.7812ZM86.875 10V34.793H80.3438V24.8242H78.5391V33.5469H72.0938V10.7305H78.5391V19.2383H80.3438V10H86.875ZM71.2344 13.6953V18.9805H52.2852V13.6953H58.3438V10.4297H65.1758V13.6953H71.2344ZM61.8242 19.7969C66.8945 19.7969 70.5898 22.6758 70.6328 26.8438C70.5898 30.9688 66.8945 33.8047 61.8242 33.8047C56.8828 33.8047 53.1875 30.9688 53.1875 26.8438C53.1875 22.6758 56.8828 19.7969 61.8242 19.7969ZM61.8242 24.6953C60.3203 24.6953 59.2891 25.3828 59.2891 26.8438C59.2891 28.2617 60.3203 28.9922 61.8242 28.9922C63.3711 28.9922 64.3594 28.2617 64.4023 26.8438C64.3594 25.3828 63.3711 24.6953 61.8242 24.6953ZM72.9961 34.9648C81.7617 34.9648 87.0469 37.6719 87.0898 42.3984C87.0469 47.125 81.7617 49.832 72.9961 49.832C64.3594 49.832 58.9883 47.125 59.0312 42.3984C58.9883 37.6719 64.3594 34.9648 72.9961 34.9648ZM72.9961 40.0781C68.1406 40.0781 65.9062 40.6797 65.9062 42.3984C65.9062 44.0312 68.1406 44.6758 72.9961 44.6758C77.9375 44.6758 80.0859 44.0312 80.1289 42.3984C80.0859 40.6797 77.9375 40.0781 72.9961 40.0781ZM124.086 10V49.875H117.125V10H124.086ZM102.258 12.6641C108.316 12.6211 112.871 18.207 112.871 26.9727C112.871 35.8672 108.316 41.4102 102.258 41.4102C96.0703 41.4102 91.4727 35.8672 91.4727 26.9727C91.4727 18.207 96.0703 12.6211 102.258 12.6641ZM102.258 18.8945C99.7227 18.8516 98.1328 21.4727 98.1328 26.9727C98.1328 32.5586 99.7227 35.0938 102.258 35.0938C104.621 35.0938 106.254 32.5586 106.254 26.9727C106.254 21.4727 104.621 18.8516 102.258 18.8945ZM170.492 19.4102V24.8672H142.691V11.1172H149.652V19.4102H170.492ZM174.488 26.8008V32.2578L138.137 32.2578V26.8008H174.488ZM170.406 34.3633V39.6914H160.652C161.984 41.7754 165.293 43.752 172.039 44.375L169.504 49.5312C162.844 48.8652 158.547 46.7383 156.184 43.7734C153.82 46.7383 149.523 48.8652 142.906 49.5312L140.414 44.375C147.117 43.752 150.426 41.7754 151.801 39.6914H142.133V34.3633H170.406ZM187.293 12.6641C192.6 12.6211 196.639 16.8965 197.605 23.8359H203.234V10H210.066V49.875H203.234V29.3359H197.691C196.961 36.834 192.793 41.4102 187.293 41.4102C181.148 41.4102 176.723 35.8672 176.723 26.9727C176.723 18.207 181.148 12.6211 187.293 12.6641ZM187.293 18.8945C184.93 18.8516 183.297 21.4727 183.34 26.9727C183.297 32.5586 184.93 35.0937 187.293 35.0937C189.699 35.0937 191.246 32.5586 191.246 26.9727C191.246 21.4727 189.699 18.8516 187.293 18.8945ZM230.305 19.9687C230.305 26.1992 232.625 33.0742 239.801 35.9961L236.148 41.3672C231.594 39.498 228.65 36.0176 226.953 31.7422C225.213 36.4902 222.227 40.3574 217.586 42.3984L213.719 36.9844C220.852 33.8906 223.258 26.6289 223.258 19.9687V19.2812H215.438V13.6953H237.91V19.2812H230.305V19.9687ZM247.75 10V49.7461H240.789V10H247.75ZM284.574 20.0977V25.4258H256.473V11.418H263.348V20.0977H284.574ZM288.484 28.9492V34.2773H252.219V28.9492H288.484ZM284.832 43.4727V48.9727H256V37.0273H262.961V43.4727H284.832Z" fill="#11DCA9"/>
<path d="M47.9453 10H57.9453C57.9453 4.47715 53.4682 0 47.9453 0V10ZM47.9453 29.8086V39.8086C53.4682 39.8086 57.9453 35.3314 57.9453 29.8086H47.9453ZM41.0703 29.8086H31.0703C31.0703 35.3314 35.5475 39.8086 41.0703 39.8086V29.8086ZM41.0703 10V0C35.5475 0 31.0703 4.47715 31.0703 10H41.0703ZM47.9883 31.3984H57.9883C57.9883 25.8756 53.5111 21.3984 47.9883 21.3984V31.3984ZM47.9883 42.9141V52.9141C53.5111 52.9141 57.9883 48.4369 57.9883 42.9141H47.9883ZM27.6641 42.9141V32.9141C22.1412 32.9141 17.6641 37.3912 17.6641 42.9141H27.6641ZM27.6641 44.2461H17.6641C17.6641 49.7689 22.1412 54.2461 27.6641 54.2461V44.2461ZM48.8477 44.2461H58.8477C58.8477 38.7232 54.3705 34.2461 48.8477 34.2461V44.2461ZM48.8477 49.5742V59.5742C54.3705 59.5742 58.8477 55.0971 58.8477 49.5742H48.8477ZM20.918 49.5742H10.918C10.918 55.0971 15.3951 59.5742 20.918 59.5742V49.5742ZM20.918 37.9297V27.9297C15.3951 27.9297 10.918 32.4068 10.918 37.9297H20.918ZM41.1133 37.9297V47.9297C46.6361 47.9297 51.1133 43.4525 51.1133 37.9297H41.1133ZM41.1133 36.6406H51.1133C51.1133 31.1178 46.6361 26.6406 41.1133 26.6406V36.6406ZM20.832 36.6406H10.832C10.832 42.1635 15.3092 46.6406 20.832 46.6406V36.6406ZM20.832 31.3984V21.3984C15.3092 21.3984 10.832 25.8756 10.832 31.3984H20.832ZM30.4141 13.7812L40.4136 13.8803C40.4139 13.8473 40.4141 13.8143 40.4141 13.7812H30.4141ZM39.2656 24.3516L47.7417 29.6577C49.424 26.9704 49.7323 23.6446 48.5727 20.6939C47.413 17.7431 44.9228 15.5171 41.861 14.6942L39.2656 24.3516ZM35.957 29.6367L33.3775 39.2983C37.6192 40.4308 42.1036 38.6642 44.4331 34.9429L35.957 29.6367ZM26.8477 22.9336L35.5522 18.011C33.7526 14.8288 30.3599 12.8823 26.7044 12.9346C23.049 12.987 19.7134 15.0299 18.0057 18.2624L26.8477 22.9336ZM17.3516 30.2812L8.86777 35.5751C11.1976 39.3088 15.6945 41.0804 19.9449 39.9391L17.3516 30.2812ZM14 24.9102L11.3539 15.2666C8.30785 16.1024 5.83575 18.3282 4.68601 21.2702C3.53627 24.2121 3.84406 27.5243 5.51621 30.204L14 24.9102ZM23.2383 13.7812L33.2378 13.8793C33.2381 13.8466 33.2383 13.8139 33.2383 13.7812H23.2383ZM23.2383 10.7305V0.730469C17.7154 0.730469 13.2383 5.20762 13.2383 10.7305H23.2383ZM30.4141 10.7305H40.4141C40.4141 5.20762 35.9369 0.730469 30.4141 0.730469V10.7305ZM47.9453 10L37.9453 10V29.8086H47.9453H57.9453V10H47.9453ZM47.9453 29.8086V19.8086H41.0703V29.8086V39.8086H47.9453V29.8086ZM41.0703 29.8086H51.0703V10L41.0703 10H31.0703V29.8086H41.0703ZM41.0703 10V20H47.9453V10V0H41.0703V10ZM47.9883 31.3984H37.9883V42.9141H47.9883H57.9883V31.3984H47.9883ZM47.9883 42.9141V32.9141H27.6641V42.9141V52.9141H47.9883V42.9141ZM27.6641 42.9141H17.6641V44.2461H27.6641H37.6641V42.9141H27.6641ZM27.6641 44.2461V54.2461H48.8477V44.2461V34.2461H27.6641V44.2461ZM48.8477 44.2461H38.8477V49.5742H48.8477H58.8477V44.2461H48.8477ZM48.8477 49.5742V39.5742H20.918V49.5742V59.5742H48.8477V49.5742ZM20.918 49.5742H30.918V37.9297H20.918H10.918V49.5742H20.918ZM20.918 37.9297V47.9297H41.1133V37.9297V27.9297H20.918V37.9297ZM41.1133 37.9297H51.1133V36.6406H41.1133H31.1133V37.9297H41.1133ZM41.1133 36.6406V26.6406H20.832V36.6406V46.6406H41.1133V36.6406ZM20.832 36.6406H30.832V31.3984H20.832H10.832L10.832 36.6406H20.832ZM20.832 31.3984V41.3984H47.9883V31.3984V21.3984H20.832V31.3984ZM30.4141 13.7812L20.4146 13.6822C20.3776 17.4146 21.2311 21.8564 24.1572 25.8813C27.1276 29.967 31.5048 32.6207 36.6702 34.0089L39.2656 24.3516L41.861 14.6942C40.9773 14.4567 40.5318 14.2136 40.3617 14.1048C40.2095 14.0076 40.246 13.9997 40.334 14.1206C40.5424 14.4073 40.4076 14.4877 40.4136 13.8803L30.4141 13.7812ZM39.2656 24.3516L30.7895 19.0454L27.4809 24.3305L35.957 29.6367L44.4331 34.9429L47.7417 29.6577L39.2656 24.3516ZM35.957 29.6367L38.5366 19.9751C37.4452 19.6838 36.81 19.318 36.4397 19.0377C36.0768 18.7629 35.7945 18.4395 35.5522 18.011L26.8477 22.9336L18.1431 27.8561C21.3007 33.4395 26.5043 37.4632 33.3775 39.2983L35.957 29.6367ZM26.8477 22.9336L18.0057 18.2624C17.6956 18.8495 17.3357 19.277 16.9178 19.6112C16.5025 19.9432 15.8444 20.3317 14.7582 20.6234L17.3516 30.2812L19.9449 39.9391C27.2849 37.9682 32.5927 33.4669 35.6896 27.6048L26.8477 22.9336ZM17.3516 30.2812L25.8354 24.9874L22.4838 19.6163L14 24.9102L5.51621 30.204L8.86777 35.5751L17.3516 30.2812ZM14 24.9102L16.6461 34.5537C22.0563 33.0692 26.4379 30.1997 29.3829 26.0765C32.2553 22.0552 33.201 17.6295 33.2378 13.8793L23.2383 13.7812L13.2388 13.6832C13.2358 13.9891 13.1962 14.1983 13.1615 14.3182C13.1449 14.3756 13.1303 14.4099 13.1224 14.4265C13.1149 14.4422 13.1104 14.4488 13.1083 14.4518C13.1066 14.4542 13.0971 14.4675 13.0709 14.4927C13.0446 14.5181 12.987 14.5693 12.8817 14.6391C12.6759 14.7757 12.2165 15.0299 11.3539 15.2666L14 24.9102ZM23.2383 13.7812H33.2383V10.7305H23.2383H13.2383V13.7812H23.2383ZM23.2383 10.7305V20.7305H30.4141V10.7305V0.730469L23.2383 0.730469V10.7305ZM30.4141 10.7305H20.4141V13.7812H30.4141H40.4141V10.7305H30.4141ZM86.875 10H96.875C96.875 4.47715 92.3979 0 86.875 0V10ZM86.875 34.793V44.793C92.3979 44.793 96.875 40.3158 96.875 34.793H86.875ZM80.3438 34.793H70.3438C70.3438 40.3158 74.8209 44.793 80.3438 44.793V34.793ZM80.3438 24.8242H90.3438C90.3438 19.3014 85.8666 14.8242 80.3438 14.8242V24.8242ZM78.5391 24.8242V14.8242C73.0162 14.8242 68.5391 19.3014 68.5391 24.8242L78.5391 24.8242ZM78.5391 33.5469V43.5469C84.0619 43.5469 88.5391 39.0697 88.5391 33.5469H78.5391ZM72.0938 33.5469H62.0938C62.0938 39.0697 66.5709 43.5469 72.0938 43.5469V33.5469ZM72.0938 10.7305V0.730469C66.5709 0.730469 62.0938 5.20762 62.0938 10.7305H72.0938ZM78.5391 10.7305H88.5391C88.5391 5.20762 84.0619 0.730469 78.5391 0.730469V10.7305ZM78.5391 19.2383L68.5391 19.2383C68.5391 24.7611 73.0162 29.2383 78.5391 29.2383V19.2383ZM80.3438 19.2383V29.2383C85.8666 29.2383 90.3438 24.7611 90.3438 19.2383H80.3438ZM80.3438 10V0C74.8209 0 70.3438 4.47715 70.3438 10H80.3438ZM71.2344 13.6953L81.2344 13.6953C81.2344 8.17247 76.7572 3.69531 71.2344 3.69531V13.6953ZM71.2344 18.9805V28.9805C76.7572 28.9805 81.2344 24.5033 81.2344 18.9805L71.2344 18.9805ZM52.2852 18.9805H42.2852C42.2852 24.5033 46.7623 28.9805 52.2852 28.9805V18.9805ZM52.2852 13.6953V3.69531C46.7623 3.69531 42.2852 8.17247 42.2852 13.6953H52.2852ZM58.3438 13.6953V23.6953C63.8666 23.6953 68.3438 19.2182 68.3438 13.6953H58.3438ZM58.3438 10.4297V0.429687C52.8209 0.429687 48.3438 4.90684 48.3438 10.4297H58.3438ZM65.1758 10.4297H75.1758C75.1758 4.90684 70.6986 0.429687 65.1758 0.429687V10.4297ZM65.1758 13.6953H55.1758C55.1758 19.2182 59.6529 23.6953 65.1758 23.6953V13.6953ZM70.6328 26.8438L80.6323 26.9479C80.633 26.8788 80.633 26.8097 80.6323 26.7407L70.6328 26.8438ZM64.4023 26.8438L74.3978 27.1466C74.4038 26.9477 74.4039 26.7487 74.398 26.5498L64.4023 26.8438ZM87.0898 42.3984L97.0894 42.4893C97.09 42.4287 97.09 42.3681 97.0894 42.3075L87.0898 42.3984ZM59.0312 42.3984L69.0308 42.4893C69.0314 42.4287 69.0314 42.3681 69.0308 42.3075L59.0312 42.3984ZM80.1289 42.3984L90.1254 42.6615C90.1299 42.4905 90.1301 42.3195 90.1258 42.1485L80.1289 42.3984ZM86.875 10H76.875V34.793H86.875H96.875V10H86.875ZM86.875 34.793V24.793H80.3438V34.793V44.793H86.875V34.793ZM80.3438 34.793H90.3438V24.8242H80.3438L70.3438 24.8242V34.793H80.3438ZM80.3438 24.8242V14.8242H78.5391V24.8242V34.8242H80.3438V24.8242ZM78.5391 24.8242L68.5391 24.8242V33.5469H78.5391H88.5391V24.8242H78.5391ZM78.5391 33.5469V23.5469L72.0938 23.5469V33.5469V43.5469H78.5391V33.5469ZM72.0938 33.5469H82.0938V10.7305H72.0938H62.0938V33.5469H72.0938ZM72.0938 10.7305V20.7305L78.5391 20.7305V10.7305V0.730469H72.0938V10.7305ZM78.5391 10.7305H68.5391V19.2383L78.5391 19.2383H88.5391V10.7305H78.5391ZM78.5391 19.2383V29.2383H80.3438V19.2383V9.23828H78.5391V19.2383ZM80.3438 19.2383H90.3438V10H80.3438H70.3438V19.2383L80.3438 19.2383ZM80.3438 10V20H86.875V10V0L80.3438 0V10ZM71.2344 13.6953H61.2344V18.9805H71.2344L81.2344 18.9805V13.6953L71.2344 13.6953ZM71.2344 18.9805V8.98047H52.2852V18.9805V28.9805H71.2344V18.9805ZM52.2852 18.9805H62.2852V13.6953H52.2852H42.2852V18.9805H52.2852ZM52.2852 13.6953V23.6953H58.3438V13.6953V3.69531H52.2852V13.6953ZM58.3438 13.6953H68.3438V10.4297H58.3438H48.3438V13.6953H58.3438ZM58.3438 10.4297V20.4297H65.1758V10.4297V0.429687H58.3438V10.4297ZM65.1758 10.4297H55.1758V13.6953H65.1758H75.1758V10.4297H65.1758ZM65.1758 13.6953V23.6953H71.2344V13.6953V3.69531H65.1758V13.6953ZM61.8242 19.7969V29.7969C62.534 29.7969 62.413 29.9997 61.8964 29.5896C61.6244 29.3737 61.2878 29.0132 61.0225 28.4872C60.7515 27.9498 60.638 27.4024 60.6333 26.9468L70.6328 26.8438L80.6323 26.7407C80.5129 15.1574 70.218 9.79687 61.8242 9.79687V19.7969ZM70.6328 26.8438L60.6334 26.7396C60.6384 26.2561 60.76 25.683 61.0441 25.1261C61.3218 24.582 61.6712 24.2151 61.9463 23.9995C62.4644 23.5935 62.5687 23.8047 61.8242 23.8047V33.8047V43.8047C70.0868 43.8047 80.511 38.5917 80.6323 26.9479L70.6328 26.8438ZM61.8242 33.8047V23.8047C61.1938 23.8047 61.3437 23.6206 61.8731 24.0412C62.1542 24.2644 62.5062 24.6401 62.7835 25.1938C63.0678 25.7615 63.1875 26.347 63.1875 26.8438H53.1875H43.1875C43.1875 38.5152 53.6287 43.8047 61.8242 43.8047V33.8047ZM53.1875 26.8438H63.1875C63.1875 27.3125 63.0757 27.872 62.8046 28.4199C62.5397 28.955 62.2006 29.324 61.9229 29.5474C61.3957 29.9718 61.2292 29.7969 61.8242 29.7969V19.7969V9.79687C53.4959 9.79687 43.1875 15.2355 43.1875 26.8438H53.1875ZM61.8242 24.6953V14.6953C59.7297 14.6953 56.5889 15.1521 53.7688 17.3946C50.594 19.9191 49.2891 23.5322 49.2891 26.8438H59.2891H69.2891C69.2891 28.6944 68.4997 31.2332 66.2166 33.0487C64.288 34.5823 62.4149 34.6953 61.8242 34.6953V24.6953ZM59.2891 26.8438H49.2891C49.2891 30.2097 50.6435 33.7543 53.7115 36.2309C56.4799 38.4656 59.6002 38.9922 61.8242 38.9922V28.9922V18.9922C62.5444 18.9922 64.3971 19.1535 66.2739 20.6685C68.4503 22.4254 69.2891 24.8958 69.2891 26.8438H59.2891ZM61.8242 28.9922V38.9922C64.0316 38.9922 67.1683 38.4831 69.9584 36.2309C73.0151 33.7635 74.3022 30.3015 74.3978 27.1466L64.4023 26.8438L54.4069 26.5409C54.4596 24.804 55.231 22.4162 57.3961 20.6685C59.2946 19.136 61.1637 18.9922 61.8242 18.9922V28.9922ZM64.4023 26.8438L74.398 26.5498C74.3066 23.4408 73.061 19.9073 69.9012 17.3946C67.0604 15.1357 63.9027 14.6953 61.8242 14.6953V24.6953V34.6953C61.2926 34.6953 59.4025 34.5987 57.4533 33.0487C55.1851 31.2451 54.4551 28.7858 54.4067 27.1377L64.4023 26.8438ZM72.9961 34.9648V44.9648C74.692 44.9648 76.0283 45.0973 77.0282 45.2868C78.0482 45.4801 78.5445 45.6998 78.6776 45.7694C78.7999 45.8334 78.3691 45.6381 77.8913 44.9509C77.3572 44.1825 77.0974 43.2721 77.0903 42.4893L87.0898 42.3984L97.0894 42.3075C97.0265 35.3901 92.7952 30.5841 87.9504 28.0489C83.5151 25.728 78.1753 24.9648 72.9961 24.9648V34.9648ZM87.0898 42.3984L77.0903 42.3075C77.0974 41.5248 77.3572 40.6143 77.8913 39.8459C78.3691 39.1587 78.7999 38.9635 78.6776 39.0275C78.5445 39.0971 78.0482 39.3168 77.0282 39.5101C76.0283 39.6996 74.692 39.832 72.9961 39.832V49.832V59.832C78.1753 59.832 83.5151 59.0688 87.9504 56.7479C92.7952 54.2127 97.0265 49.4067 97.0894 42.4893L87.0898 42.3984ZM72.9961 49.832V39.832C71.3405 39.832 70.0262 39.7008 69.0384 39.5124C68.0294 39.3199 67.5356 39.1011 67.4033 39.0317C67.2779 38.966 67.7251 39.1685 68.2168 39.8825C68.7707 40.6869 69.0385 41.6501 69.0308 42.4893L59.0312 42.3984L49.0317 42.3075C48.9675 49.3639 53.3022 54.22 58.1143 56.7437C62.539 59.0642 67.8655 59.832 72.9961 59.832V49.832ZM59.0312 42.3984L69.0308 42.3075C69.0385 43.1467 68.7707 44.11 68.2168 44.9143C67.7251 45.6284 67.2779 45.8309 67.4033 45.7652C67.5356 45.6958 68.0294 45.477 69.0384 45.2845C70.0262 45.0961 71.3405 44.9648 72.9961 44.9648V34.9648V24.9648C67.8655 24.9648 62.539 25.7327 58.1143 28.0532C53.3022 30.5769 48.9675 35.433 49.0317 42.4893L59.0312 42.3984ZM72.9961 40.0781V30.0781C70.4992 30.0781 67.3845 30.1913 64.6401 31.0513C63.1963 31.5038 61.0031 32.4155 59.1073 34.396C56.9437 36.6563 55.9062 39.5355 55.9062 42.3984H65.9062H75.9062C75.9062 44.402 75.1481 46.5615 73.5552 48.2256C72.2301 49.6099 70.899 50.049 70.6206 50.1362C70.2774 50.2437 70.2471 50.2044 70.7689 50.1557C71.2458 50.1112 71.9628 50.0781 72.9961 50.0781V40.0781ZM65.9062 42.3984H55.9062C55.9062 45.3865 57.0465 48.2646 59.2027 50.4562C61.0799 52.3643 63.2274 53.2492 64.6401 53.6919C67.3605 54.5443 70.444 54.6758 72.9961 54.6758V44.6758V34.6758C71.9797 34.6758 71.2699 34.641 70.7986 34.5956C70.285 34.5462 70.2992 34.5062 70.6206 34.607C70.8678 34.6844 72.1533 35.102 73.4598 36.43C74.1612 37.143 74.8172 38.0699 75.2776 39.2042C75.7368 40.3355 75.9062 41.4383 75.9062 42.3984H65.9062ZM72.9961 44.6758V54.6758C75.5747 54.6758 78.6736 54.5469 81.4023 53.6879C82.8356 53.2367 84.9655 52.3454 86.828 50.4478C88.9449 48.2909 90.0505 45.5094 90.1254 42.6615L80.1289 42.3984L70.1324 42.1354C70.1858 40.1039 71.0067 38.0152 72.5543 36.4384C73.8475 35.1209 75.1234 34.6969 75.3966 34.6109C75.7302 34.5059 75.7534 34.5455 75.2355 34.5951C74.7599 34.6407 74.0387 34.6758 72.9961 34.6758V44.6758ZM80.1289 42.3984L90.1258 42.1485C90.0575 39.4155 89.0466 36.628 86.9232 34.4045C85.0423 32.4348 82.8671 31.5164 81.4023 31.0553C78.65 30.1888 75.5196 30.0781 72.9961 30.0781V40.0781V50.0781C74.0554 50.0781 74.7838 50.1115 75.265 50.1562C75.7914 50.205 75.7519 50.2441 75.3966 50.1322C75.0919 50.0363 73.7707 49.5906 72.4591 48.2171C70.9051 46.5898 70.1789 44.522 70.132 42.6484L80.1289 42.3984ZM124.086 10H134.086C134.086 4.47715 129.609 0 124.086 0V10ZM124.086 49.875V59.875C129.609 59.875 134.086 55.3978 134.086 49.875H124.086ZM117.125 49.875H107.125C107.125 55.3978 111.602 59.875 117.125 59.875V49.875ZM117.125 10V0C111.602 0 107.125 4.47715 107.125 10L117.125 10ZM102.258 12.6641L102.188 22.6638C102.235 22.6641 102.282 22.6641 102.329 22.6638L102.258 12.6641ZM102.258 18.8945L102.088 28.8931C102.205 28.8951 102.323 28.895 102.44 28.8929L102.258 18.8945ZM124.086 10H114.086V49.875H124.086H134.086V10H124.086ZM124.086 49.875V39.875H117.125V49.875V59.875H124.086V49.875ZM117.125 49.875H127.125V10H117.125L107.125 10V49.875H117.125ZM117.125 10V20H124.086V10V0L117.125 0V10ZM102.258 12.6641L102.329 22.6638C102.261 22.6643 102.091 22.6406 101.916 22.5508C101.754 22.4681 101.763 22.4198 101.884 22.5782C102.154 22.9327 102.871 24.2334 102.871 26.9727H112.871H122.871C122.871 20.9463 121.31 15.0712 117.789 10.4521C114.141 5.66819 108.608 2.61877 102.187 2.66431L102.258 12.6641ZM112.871 26.9727H102.871C102.871 29.8028 102.141 31.1249 101.872 31.4804C101.751 31.6391 101.74 31.594 101.894 31.5147C102.06 31.4293 102.213 31.4102 102.258 31.4102V41.4102V51.4102C108.631 51.4102 114.15 48.3834 117.801 43.5733C121.323 38.9337 122.871 33.0371 122.871 26.9727H112.871ZM102.258 41.4102V31.4102C102.236 31.4102 102.341 31.4135 102.479 31.483C102.607 31.5479 102.588 31.5815 102.469 31.4265C102.203 31.0816 101.473 29.7839 101.473 26.9727H91.4727H81.4727C81.4727 33.056 83.041 38.977 86.6212 43.6273C90.334 48.4498 95.8956 51.4102 102.258 51.4102V41.4102ZM91.4727 26.9727H101.473C101.473 24.2526 102.19 22.9762 102.456 22.632C102.575 22.4774 102.592 22.5139 102.457 22.5822C102.396 22.6127 102.33 22.6363 102.268 22.6507C102.206 22.6649 102.175 22.6637 102.188 22.6638L102.258 12.6641L102.327 2.6643C95.9182 2.6198 90.3429 5.60151 86.6339 10.3982C83.0544 15.0277 81.4727 20.9271 81.4727 26.9727H91.4727ZM102.258 18.8945L102.427 8.89597C96.7957 8.80052 92.5974 12.0746 90.424 16.1436C88.5832 19.59 88.1328 23.5385 88.1328 26.9727H98.1328H108.133C108.133 26.0559 108.201 25.4897 108.254 25.2055C108.31 24.8993 108.316 25.0966 108.065 25.5664C107.799 26.0649 107.173 26.9904 105.959 27.7722C104.68 28.5955 103.284 28.9134 102.088 28.8931L102.258 18.8945ZM98.1328 26.9727H88.1328C88.1328 30.4271 88.5766 34.3944 90.4319 37.8541C92.6466 41.9836 96.8215 45.0938 102.258 45.0938V35.0938V25.0937C103.368 25.0937 104.704 25.3965 105.951 26.1982C107.147 26.9673 107.779 27.8831 108.057 28.4018C108.316 28.8846 108.312 29.0928 108.255 28.7849C108.202 28.4977 108.133 27.9194 108.133 26.9727H98.1328ZM102.258 35.0938V45.0938C107.857 45.0938 111.908 41.7294 113.984 37.7986C115.783 34.3926 116.254 30.4806 116.254 26.9727H106.254H96.2539C96.2539 27.9039 96.1841 28.4806 96.1299 28.7724C96.072 29.0842 96.0627 28.9062 96.2999 28.4572C96.5485 27.9865 97.1442 27.0851 98.3163 26.3005C99.5564 25.4703 100.966 25.0937 102.258 25.0937V35.0938ZM106.254 26.9727H116.254C116.254 23.4853 115.777 19.5914 113.992 16.199C111.961 12.3393 107.883 8.79061 102.076 8.89618L102.258 18.8945L102.44 28.8929C101.054 28.9181 99.5785 28.5217 98.3084 27.6697C97.1196 26.8723 96.5291 25.9614 96.2921 25.511C96.0628 25.075 96.0736 24.9078 96.1314 25.218C96.1854 25.507 96.2539 26.0715 96.2539 26.9727H106.254ZM170.492 19.4102H180.492C180.492 13.8873 176.015 9.41016 170.492 9.41016V19.4102ZM170.492 24.8672V34.8672C176.015 34.8672 180.492 30.39 180.492 24.8672H170.492ZM142.691 24.8672H132.691C132.691 30.39 137.169 34.8672 142.691 34.8672V24.8672ZM142.691 11.1172V1.11719C137.169 1.11719 132.691 5.59434 132.691 11.1172H142.691ZM149.652 11.1172H159.652C159.652 5.59434 155.175 1.11719 149.652 1.11719V11.1172ZM149.652 19.4102H139.652C139.652 24.933 144.13 29.4102 149.652 29.4102V19.4102ZM174.488 26.8008H184.488C184.488 21.2779 180.011 16.8008 174.488 16.8008V26.8008ZM174.488 32.2578V42.2578C180.011 42.2578 184.488 37.7807 184.488 32.2578H174.488ZM138.137 32.2578H128.137C128.137 37.7807 132.614 42.2578 138.137 42.2578V32.2578ZM138.137 26.8008V16.8008C132.614 16.8008 128.137 21.2779 128.137 26.8008H138.137ZM170.406 34.3633H180.406C180.406 28.8404 175.929 24.3633 170.406 24.3633V34.3633ZM170.406 39.6914V49.6914C175.929 49.6914 180.406 45.2143 180.406 39.6914H170.406ZM160.652 39.6914V29.6914C156.999 29.6914 153.636 31.6837 151.881 34.8881C150.127 38.0924 150.259 41.9987 152.226 45.077L160.652 39.6914ZM172.039 44.375L181.013 48.7872C182.465 45.8343 182.371 42.356 180.762 39.4856C179.153 36.6152 176.235 34.72 172.959 34.4174L172.039 44.375ZM169.504 49.5312L168.509 59.4816C172.662 59.8969 176.636 57.6891 178.478 53.9435L169.504 49.5312ZM156.184 43.7734L164.003 37.5403C162.106 35.16 159.228 33.7734 156.184 33.7734C153.14 33.7734 150.261 35.16 148.364 37.5403L156.184 43.7734ZM142.906 49.5312L133.903 53.8829C135.731 57.6652 139.728 59.9017 143.908 59.481L142.906 49.5312ZM140.414 44.375L139.489 34.4179C136.225 34.7213 133.317 36.6046 131.706 39.4588C130.095 42.313 129.984 45.7757 131.411 48.7267L140.414 44.375ZM151.801 39.6914L160.148 45.1986C162.174 42.1275 162.35 38.1917 160.606 34.9518C158.862 31.7119 155.48 29.6914 151.801 29.6914V39.6914ZM142.133 39.6914L132.133 39.6914C132.133 45.2143 136.61 49.6914 142.133 49.6914V39.6914ZM142.133 34.3633V24.3633C136.61 24.3633 132.133 28.8404 132.133 34.3633L142.133 34.3633ZM170.492 19.4102H160.492V24.8672H170.492H180.492V19.4102H170.492ZM170.492 24.8672V14.8672H142.691V24.8672V34.8672H170.492V24.8672ZM142.691 24.8672H152.691V11.1172H142.691H132.691V24.8672H142.691ZM142.691 11.1172V21.1172H149.652V11.1172V1.11719H142.691V11.1172ZM149.652 11.1172H139.652V19.4102H149.652H159.652V11.1172H149.652ZM149.652 19.4102V29.4102H170.492V19.4102V9.41016H149.652V19.4102ZM174.488 26.8008H164.488V32.2578H174.488H184.488V26.8008H174.488ZM174.488 32.2578V22.2578H138.137V32.2578V42.2578L174.488 42.2578V32.2578ZM138.137 32.2578L148.137 32.2578V26.8008H138.137H128.137V32.2578H138.137ZM138.137 26.8008V36.8008L174.488 36.8008V26.8008V16.8008H138.137V26.8008ZM170.406 34.3633H160.406V39.6914H170.406H180.406V34.3633H170.406ZM170.406 39.6914V29.6914H160.652V39.6914V49.6914H170.406V39.6914ZM160.652 39.6914L152.226 45.077C156.07 51.0897 163.315 53.6118 171.119 54.3326L172.039 44.375L172.959 34.4174C170.341 34.1757 168.986 33.7188 168.443 33.4728C167.925 33.2377 168.467 33.3495 169.078 34.3058L160.652 39.6914ZM172.039 44.375L163.065 39.9628L160.53 45.119L169.504 49.5312L178.478 53.9435L181.013 48.7872L172.039 44.375ZM169.504 49.5312L170.499 39.5809C165.297 39.0607 164.049 37.5972 164.003 37.5403L156.184 43.7734L148.364 50.0066C153.045 55.8793 160.39 58.6698 168.509 59.4816L169.504 49.5312ZM156.184 43.7734L148.364 37.5403C148.313 37.6046 147.056 39.0631 141.905 39.5815L142.906 49.5312L143.908 59.481C151.991 58.6674 159.328 55.872 164.003 50.0066L156.184 43.7734ZM142.906 49.5312L151.91 45.1796L149.418 40.0233L140.414 44.375L131.411 48.7267L133.903 53.8829L142.906 49.5312ZM140.414 44.375L141.34 54.3321C149.178 53.6035 156.282 51.0577 160.148 45.1986L151.801 39.6914L143.454 34.1842C144.025 33.3193 144.5 33.236 143.977 33.4728C143.426 33.7228 142.076 34.1774 139.489 34.4179L140.414 44.375ZM151.801 39.6914V29.6914H142.133V39.6914V49.6914H151.801V39.6914ZM142.133 39.6914H152.133V34.3633H142.133L132.133 34.3633V39.6914L142.133 39.6914ZM142.133 34.3633V44.3633H170.406V34.3633V24.3633H142.133V34.3633ZM187.293 12.6641L187.223 22.6638C187.273 22.6642 187.324 22.6641 187.374 22.6637L187.293 12.6641ZM197.605 23.8359L187.701 25.2158C188.39 30.1578 192.616 33.8359 197.605 33.8359V23.8359ZM203.234 23.8359V33.8359C208.757 33.8359 213.234 29.3588 213.234 23.8359L203.234 23.8359ZM203.234 10V0C197.712 0 193.234 4.47715 193.234 10H203.234ZM210.066 10H220.066C220.066 4.47715 215.589 0 210.066 0V10ZM210.066 49.875V59.875C215.589 59.875 220.066 55.3978 220.066 49.875H210.066ZM203.234 49.875H193.234C193.234 55.3978 197.712 59.875 203.234 59.875V49.875ZM203.234 29.3359H213.234C213.234 23.8131 208.757 19.3359 203.234 19.3359V29.3359ZM197.691 29.3359V19.3359C192.544 19.3359 188.238 23.2433 187.739 28.3663L197.691 29.3359ZM187.293 18.8945L187.111 28.8929C187.231 28.8951 187.351 28.8951 187.472 28.8929L187.293 18.8945ZM183.34 26.9727L193.34 27.0496C193.34 26.9979 193.34 26.9462 193.34 26.8945L183.34 26.9727ZM187.293 12.6641L187.374 22.6637C187.321 22.6642 187.161 22.6489 186.969 22.5641C186.784 22.4823 186.716 22.4013 186.751 22.4381C186.844 22.5391 187.432 23.2826 187.701 25.2158L197.605 23.8359L207.51 22.4561C206.136 12.5942 199.364 2.56599 187.212 2.66439L187.293 12.6641ZM197.605 23.8359V33.8359H203.234V23.8359V13.8359H197.605V23.8359ZM203.234 23.8359L213.234 23.8359V10H203.234H193.234V23.8359H203.234ZM203.234 10V20L210.066 20V10V0H203.234V10ZM210.066 10H200.066V49.875H210.066H220.066V10H210.066ZM210.066 49.875V39.875H203.234V49.875V59.875H210.066V49.875ZM203.234 49.875H213.234V29.3359H203.234H193.234V49.875H203.234ZM203.234 29.3359V19.3359H197.691V29.3359V39.3359H203.234V29.3359ZM197.691 29.3359L187.739 28.3663C187.525 30.5593 186.89 31.4454 186.754 31.6005C186.699 31.6632 186.747 31.59 186.922 31.5089C187.103 31.4247 187.254 31.4102 187.293 31.4102V41.4102V51.4102C199.878 51.4102 206.628 40.7357 207.644 30.3056L197.691 29.3359ZM187.293 41.4102V31.4102C187.28 31.4102 187.318 31.4092 187.392 31.4269C187.467 31.4447 187.549 31.4744 187.627 31.5147C187.801 31.6038 187.808 31.666 187.702 31.5241C187.451 31.1902 186.723 29.8661 186.723 26.9727H176.723H166.723C166.723 32.9737 168.207 38.8684 171.706 43.5296C175.36 48.398 180.897 51.4102 187.293 51.4102V41.4102ZM176.723 26.9727H186.723C186.723 24.1696 187.438 22.867 187.689 22.5344C187.796 22.3929 187.786 22.4583 187.605 22.5508C187.523 22.593 187.434 22.625 187.351 22.6445C187.268 22.6639 187.221 22.6638 187.223 22.6638L187.293 12.6641L187.363 2.66431C180.919 2.61925 175.368 5.65315 171.718 10.4958C168.22 15.1369 166.723 21.0101 166.723 26.9727H176.723ZM187.293 18.8945L187.475 8.89618C181.669 8.79063 177.579 12.3395 175.549 16.2269C173.767 19.6402 173.313 23.5516 173.34 27.0508L183.34 26.9727L193.34 26.8945C193.324 24.8937 193.664 24.7445 193.279 25.4831C193.038 25.9446 192.443 26.8637 191.248 27.6662C189.974 28.5223 188.496 28.9181 187.111 28.8929L187.293 18.8945ZM183.34 26.9727L173.34 26.8957C173.313 30.4145 173.761 34.3438 175.557 37.7707C177.632 41.7292 181.695 45.0937 187.293 45.0937V35.0937V25.0937C188.584 25.0937 189.996 25.4698 191.24 26.304C192.418 27.0937 193.018 28.0033 193.271 28.4852C193.512 28.9445 193.504 29.1323 193.449 28.8286C193.398 28.545 193.332 27.9752 193.34 27.0496L183.34 26.9727ZM187.293 35.0937V45.0937C192.909 45.0937 196.986 41.7289 199.058 37.7144C200.816 34.3088 201.246 30.4093 201.246 26.9727H191.246H181.246C181.246 27.9311 181.178 28.5297 181.122 28.8411C181.063 29.175 181.05 28.9983 181.286 28.5415C181.535 28.0586 182.141 27.1219 183.347 26.3112C184.623 25.4534 186.044 25.0937 187.293 25.0937V35.0937ZM191.246 26.9727H201.246C201.246 23.557 200.81 19.6757 199.066 16.2831C197.038 12.3383 192.936 8.79217 187.114 8.89612L187.293 18.8945L187.472 28.8929C186.132 28.9169 184.646 28.5393 183.339 27.659C182.116 26.8354 181.516 25.8892 181.278 25.4268C181.05 24.9829 181.064 24.817 181.124 25.149C181.179 25.4574 181.246 26.044 181.246 26.9727H191.246ZM239.801 35.9961L248.07 41.6192C249.768 39.1228 250.247 35.9932 249.373 33.1034C248.5 30.2136 246.368 27.8729 243.572 26.7345L239.801 35.9961ZM236.148 41.3672L232.352 50.6185C236.726 52.4134 241.759 50.8999 244.418 46.9903L236.148 41.3672ZM226.953 31.7422L236.248 28.0525C234.717 24.198 230.967 21.6879 226.82 21.7431C222.673 21.7982 218.991 24.4071 217.564 28.3009L226.953 31.7422ZM217.586 42.3984L209.449 48.2108C212.201 52.0637 217.278 53.4585 221.612 51.5522L217.586 42.3984ZM213.719 36.9844L209.74 27.8102C206.969 29.0118 204.89 31.401 204.083 34.3108C203.275 37.2206 203.826 40.3395 205.581 42.7968L213.719 36.9844ZM223.258 19.2812H233.258C233.258 13.7584 228.781 9.28125 223.258 9.28125V19.2812ZM215.438 19.2812L205.438 19.2812C205.438 24.8041 209.915 29.2812 215.438 29.2812V19.2812ZM215.438 13.6953V3.69531C209.915 3.69531 205.438 8.17247 205.438 13.6953L215.438 13.6953ZM237.91 13.6953H247.91C247.91 8.17247 243.433 3.69531 237.91 3.69531V13.6953ZM237.91 19.2812V29.2812C243.433 29.2812 247.91 24.8041 247.91 19.2812H237.91ZM230.305 19.2812V9.28125C224.782 9.28125 220.305 13.7584 220.305 19.2812H230.305ZM247.75 10H257.75C257.75 4.47715 253.273 0 247.75 0V10ZM247.75 49.7461V59.7461C253.273 59.7461 257.75 55.2689 257.75 49.7461H247.75ZM240.789 49.7461H230.789C230.789 55.2689 235.266 59.7461 240.789 59.7461V49.7461ZM240.789 10V0C235.266 0 230.789 4.47715 230.789 10L240.789 10ZM230.305 19.9687H220.305C220.305 28.2505 223.517 40.1628 236.03 45.2577L239.801 35.9961L243.572 26.7345C242.37 26.2452 241.724 25.5594 241.249 24.638C240.684 23.5438 240.305 21.937 240.305 19.9687H230.305ZM239.801 35.9961L231.532 30.373L227.879 35.7441L236.148 41.3672L244.418 46.9903L248.07 41.6192L239.801 35.9961ZM236.148 41.3672L239.945 32.1159C238.321 31.4494 237.124 30.2591 236.248 28.0525L226.953 31.7422L217.659 35.4319C220.177 41.776 224.867 47.5467 232.352 50.6185L236.148 41.3672ZM226.953 31.7422L217.564 28.3009C216.501 31.1999 215.097 32.5685 213.56 33.2447L217.586 42.3984L221.612 51.5522C229.356 48.1464 233.924 41.7805 236.342 35.1835L226.953 31.7422ZM217.586 42.3984L225.723 36.5861L221.856 31.172L213.719 36.9844L205.581 42.7968L209.449 48.2108L217.586 42.3984ZM213.719 36.9844L217.698 46.1586C230.119 40.7711 233.258 28.4633 233.258 19.9687H223.258H213.258C213.258 22.1894 212.843 24.0718 212.19 25.3991C211.613 26.573 210.871 27.3196 209.74 27.8102L213.719 36.9844ZM223.258 19.9687H233.258V19.2812H223.258H213.258V19.9687H223.258ZM223.258 19.2812V9.28125H215.438V19.2812V29.2812H223.258V19.2812ZM215.438 19.2812H225.438V13.6953H215.438L205.438 13.6953V19.2812L215.438 19.2812ZM215.438 13.6953V23.6953H237.91V13.6953V3.69531L215.438 3.69531V13.6953ZM237.91 13.6953H227.91V19.2812H237.91H247.91V13.6953H237.91ZM237.91 19.2812V9.28125L230.305 9.28125V19.2812V29.2812H237.91V19.2812ZM230.305 19.2812H220.305V19.9687H230.305H240.305V19.2812H230.305ZM247.75 10H237.75V49.7461H247.75H257.75V10H247.75ZM247.75 49.7461V39.7461H240.789V49.7461V59.7461H247.75V49.7461ZM240.789 49.7461H250.789V10H240.789L230.789 10V49.7461H240.789ZM240.789 10V20H247.75V10V0L240.789 0V10ZM284.574 20.0977H294.574C294.574 14.5748 290.097 10.0977 284.574 10.0977V20.0977ZM284.574 25.4258V35.4258C290.097 35.4258 294.574 30.9486 294.574 25.4258H284.574ZM256.473 25.4258H246.473C246.473 30.9486 250.95 35.4258 256.473 35.4258V25.4258ZM256.473 11.418V1.41797C250.95 1.41797 246.473 5.89512 246.473 11.418H256.473ZM263.348 11.418H273.348C273.348 5.89512 268.87 1.41797 263.348 1.41797V11.418ZM263.348 20.0977H253.348C253.348 25.6205 257.825 30.0977 263.348 30.0977V20.0977ZM288.484 28.9492H298.484C298.484 23.4264 294.007 18.9492 288.484 18.9492V28.9492ZM288.484 34.2773V44.2773C294.007 44.2773 298.484 39.8002 298.484 34.2773H288.484ZM252.219 34.2773H242.219C242.219 39.8002 246.696 44.2773 252.219 44.2773V34.2773ZM252.219 28.9492V18.9492C246.696 18.9492 242.219 23.4264 242.219 28.9492H252.219ZM284.832 43.4727H294.832C294.832 37.9498 290.355 33.4727 284.832 33.4727V43.4727ZM284.832 48.9727V58.9727C290.355 58.9727 294.832 54.4955 294.832 48.9727H284.832ZM256 48.9727H246C246 54.4955 250.477 58.9727 256 58.9727V48.9727ZM256 37.0273V27.0273C250.477 27.0273 246 31.5045 246 37.0273H256ZM262.961 37.0273H272.961C272.961 31.5045 268.484 27.0273 262.961 27.0273V37.0273ZM262.961 43.4727H252.961C252.961 48.9955 257.438 53.4727 262.961 53.4727V43.4727ZM284.574 20.0977H274.574V25.4258H284.574H294.574V20.0977H284.574ZM284.574 25.4258V15.4258H256.473V25.4258V35.4258H284.574V25.4258ZM256.473 25.4258H266.473V11.418H256.473H246.473V25.4258H256.473ZM256.473 11.418V21.418H263.348V11.418V1.41797H256.473V11.418ZM263.348 11.418H253.348V20.0977H263.348H273.348V11.418H263.348ZM263.348 20.0977V30.0977H284.574V20.0977V10.0977H263.348V20.0977ZM288.484 28.9492H278.484V34.2773H288.484H298.484V28.9492H288.484ZM288.484 34.2773V24.2773H252.219V34.2773V44.2773H288.484V34.2773ZM252.219 34.2773H262.219V28.9492H252.219H242.219V34.2773H252.219ZM252.219 28.9492V38.9492H288.484V28.9492V18.9492H252.219V28.9492ZM284.832 43.4727H274.832V48.9727H284.832H294.832V43.4727H284.832ZM284.832 48.9727V38.9727H256V48.9727V58.9727H284.832V48.9727ZM256 48.9727H266V37.0273H256H246V48.9727H256ZM256 37.0273V47.0273H262.961V37.0273V27.0273H256V37.0273ZM262.961 37.0273H252.961V43.4727H262.961H272.961V37.0273H262.961ZM262.961 43.4727V53.4727H284.832V43.4727V33.4727H262.961V43.4727Z" fill="white" mask="url(#path-1-outside-1_6526_5755)"/>
</g>
<defs>
<filter id="filter0_d_6526_5755" x="0" y="0" width="302.484" height="67.875" filterUnits="userSpaceOnUse" color-interpolation-filters="sRGB">
<feFlood flood-opacity="0" result="BackgroundImageFix"/>
<feColorMatrix in="SourceAlpha" type="matrix" values="0 0 0 0 0 0 0 0 0 0 0 0 0 0 0 0 0 0 127 0" result="hardAlpha"/>
<feOffset dy="4"/>
<feGaussianBlur stdDeviation="2"/>
<feComposite in2="hardAlpha" operator="out"/>
<feColorMatrix type="matrix" values="0 0 0 0 0 0 0 0 0 0 0 0 0 0 0 0 0 0 0.07 0"/>
<feBlend mode="normal" in2="BackgroundImageFix" result="effect1_dropShadow_6526_5755"/>
<feBlend mode="normal" in="SourceGraphic" in2="effect1_dropShadow_6526_5755" result="shape"/>
</filter>
</defs>
</svg>
