<svg width="341" height="68" viewBox="0 0 341 68" fill="none" xmlns="http://www.w3.org/2000/svg">
<g filter="url(#filter0_d_6524_1741)">
<mask id="path-1-outside-1_6524_1741" maskUnits="userSpaceOnUse" x="3.14062" y="-0.507813" width="334" height="61" fill="black">
<rect fill="white" x="3.14062" y="-0.507813" width="334" height="61"/>
<path d="M24.7852 12.6641C30.9727 12.6211 35.5273 18.207 35.5273 26.9727C35.5273 35.8672 30.9727 41.4102 24.7852 41.4102C18.5547 41.4102 13.957 35.8672 14 26.9727C13.957 18.207 18.5547 12.6211 24.7852 12.6641ZM24.7852 18.8945C22.293 18.8516 20.6602 21.4727 20.7031 26.9727C20.6602 32.5586 22.293 35.0938 24.7852 35.0938C27.3203 35.0938 28.9102 32.5586 28.9531 26.9727C28.9102 21.4727 27.3203 18.8516 24.7852 18.8945ZM45.7539 10V24.4375H51.125V30.1523H45.7539V49.7461H38.8359V10L45.7539 10ZM85.6289 10V49.875H78.668V10H85.6289ZM63.8008 12.6641C69.8594 12.6211 74.4141 18.207 74.4141 26.9727C74.4141 35.8672 69.8594 41.4102 63.8008 41.4102C57.6133 41.4102 53.0156 35.8672 53.0156 26.9727C53.0156 18.207 57.6133 12.6211 63.8008 12.6641ZM63.8008 18.8945C61.2656 18.8516 59.6758 21.4727 59.6758 26.9727C59.6758 32.5586 61.2656 35.0938 63.8008 35.0938C66.1641 35.0938 67.7969 32.5586 67.7969 26.9727C67.7969 21.4727 66.1641 18.8516 63.8008 18.8945ZM123.656 10V49.875H116.695V10H123.656ZM111.969 13.3516V18.8945H99.293V34.8789C105.932 34.8574 109.906 34.707 114.332 33.8906L114.891 39.4766C109.906 40.5078 104.922 40.6797 95.9844 40.6367H92.418V13.3516H111.969ZM139.254 12.6641C144.561 12.6211 148.6 16.8965 149.566 23.8359H155.195V10H162.027V49.875H155.195V29.3359H149.652C148.922 36.834 144.754 41.4102 139.254 41.4102C133.109 41.4102 128.684 35.8672 128.684 26.9727C128.684 18.207 133.109 12.6211 139.254 12.6641ZM139.254 18.8945C136.891 18.8516 135.258 21.4727 135.301 26.9727C135.258 32.5586 136.891 35.0938 139.254 35.0938C141.66 35.0937 143.207 32.5586 143.207 26.9727C143.207 21.4727 141.66 18.8516 139.254 18.8945ZM197.863 10V24.6523H202.934V30.2812H197.863V49.6602H190.945V10H197.863ZM187.035 13.9531C186.992 26.2422 182.781 36.5547 169.203 43.2148L165.293 37.9727C174.145 33.5039 178.828 27.9395 180.031 19.5391H167.785V13.9531H187.035ZM250.027 28.4766V33.8906H235.289V35.7383C241.906 36.3828 245.773 38.832 245.773 42.7422C245.773 47.2969 240.531 49.832 231.809 49.832C223.043 49.832 217.801 47.2969 217.844 42.7422C217.801 38.8105 221.689 36.3613 228.371 35.7383V33.8906H213.762V28.4766H250.027ZM246.891 11.2031V16.6602H242.336V21.3008H246.547V26.7148H217.199V21.3008H221.367V16.6602H216.812V11.2031L246.891 11.2031ZM231.809 40.7227C226.867 40.7656 224.676 41.3242 224.719 42.7422C224.676 44.2461 226.867 44.8047 231.809 44.8047C236.621 44.8047 238.77 44.2461 238.77 42.7422C238.77 41.3242 236.621 40.7656 231.809 40.7227ZM228.242 21.3008H235.375V16.6602H228.242V21.3008ZM288.055 32.5156V37.8437H273.188V49.7461H266.355V37.8437H251.789V32.5156H288.055ZM262.531 11.5039V15.5H277.098V11.5039H284.016V29.3359H255.742V11.5039H262.531ZM262.531 23.8359H277.098V20.8281H262.531V23.8359ZM321.613 10.0859V21.6875H326.555V27.2734H321.613V39.6914H314.695V10.0859H321.613ZM313.277 13.8242V19.1523H289.773V13.8242H298.066V10L304.984 10V13.8242H313.277ZM301.504 20.0547C307.305 20.0547 311.43 23.2773 311.43 27.918C311.43 32.5586 307.305 35.6953 301.504 35.6523C295.66 35.6953 291.492 32.5586 291.492 27.918C291.492 23.2773 295.66 20.0547 301.504 20.0547ZM301.504 25.2539C299.527 25.2969 298.238 26.1133 298.238 27.918C298.238 29.7227 299.527 30.4961 301.504 30.4961C303.523 30.4961 304.898 29.7227 304.898 27.918C304.898 26.1133 303.523 25.2969 301.504 25.2539ZM322.773 43.6875V49.1875H295.273V37.457H302.191V43.6875H322.773Z"/>
</mask>
<path d="M24.7852 12.6641C30.9727 12.6211 35.5273 18.207 35.5273 26.9727C35.5273 35.8672 30.9727 41.4102 24.7852 41.4102C18.5547 41.4102 13.957 35.8672 14 26.9727C13.957 18.207 18.5547 12.6211 24.7852 12.6641ZM24.7852 18.8945C22.293 18.8516 20.6602 21.4727 20.7031 26.9727C20.6602 32.5586 22.293 35.0938 24.7852 35.0938C27.3203 35.0938 28.9102 32.5586 28.9531 26.9727C28.9102 21.4727 27.3203 18.8516 24.7852 18.8945ZM45.7539 10V24.4375H51.125V30.1523H45.7539V49.7461H38.8359V10L45.7539 10ZM85.6289 10V49.875H78.668V10H85.6289ZM63.8008 12.6641C69.8594 12.6211 74.4141 18.207 74.4141 26.9727C74.4141 35.8672 69.8594 41.4102 63.8008 41.4102C57.6133 41.4102 53.0156 35.8672 53.0156 26.9727C53.0156 18.207 57.6133 12.6211 63.8008 12.6641ZM63.8008 18.8945C61.2656 18.8516 59.6758 21.4727 59.6758 26.9727C59.6758 32.5586 61.2656 35.0938 63.8008 35.0938C66.1641 35.0938 67.7969 32.5586 67.7969 26.9727C67.7969 21.4727 66.1641 18.8516 63.8008 18.8945ZM123.656 10V49.875H116.695V10H123.656ZM111.969 13.3516V18.8945H99.293V34.8789C105.932 34.8574 109.906 34.707 114.332 33.8906L114.891 39.4766C109.906 40.5078 104.922 40.6797 95.9844 40.6367H92.418V13.3516H111.969ZM139.254 12.6641C144.561 12.6211 148.6 16.8965 149.566 23.8359H155.195V10H162.027V49.875H155.195V29.3359H149.652C148.922 36.834 144.754 41.4102 139.254 41.4102C133.109 41.4102 128.684 35.8672 128.684 26.9727C128.684 18.207 133.109 12.6211 139.254 12.6641ZM139.254 18.8945C136.891 18.8516 135.258 21.4727 135.301 26.9727C135.258 32.5586 136.891 35.0938 139.254 35.0938C141.66 35.0937 143.207 32.5586 143.207 26.9727C143.207 21.4727 141.66 18.8516 139.254 18.8945ZM197.863 10V24.6523H202.934V30.2812H197.863V49.6602H190.945V10H197.863ZM187.035 13.9531C186.992 26.2422 182.781 36.5547 169.203 43.2148L165.293 37.9727C174.145 33.5039 178.828 27.9395 180.031 19.5391H167.785V13.9531H187.035ZM250.027 28.4766V33.8906H235.289V35.7383C241.906 36.3828 245.773 38.832 245.773 42.7422C245.773 47.2969 240.531 49.832 231.809 49.832C223.043 49.832 217.801 47.2969 217.844 42.7422C217.801 38.8105 221.689 36.3613 228.371 35.7383V33.8906H213.762V28.4766H250.027ZM246.891 11.2031V16.6602H242.336V21.3008H246.547V26.7148H217.199V21.3008H221.367V16.6602H216.812V11.2031L246.891 11.2031ZM231.809 40.7227C226.867 40.7656 224.676 41.3242 224.719 42.7422C224.676 44.2461 226.867 44.8047 231.809 44.8047C236.621 44.8047 238.77 44.2461 238.77 42.7422C238.77 41.3242 236.621 40.7656 231.809 40.7227ZM228.242 21.3008H235.375V16.6602H228.242V21.3008ZM288.055 32.5156V37.8437H273.188V49.7461H266.355V37.8437H251.789V32.5156H288.055ZM262.531 11.5039V15.5H277.098V11.5039H284.016V29.3359H255.742V11.5039H262.531ZM262.531 23.8359H277.098V20.8281H262.531V23.8359ZM321.613 10.0859V21.6875H326.555V27.2734H321.613V39.6914H314.695V10.0859H321.613ZM313.277 13.8242V19.1523H289.773V13.8242H298.066V10L304.984 10V13.8242H313.277ZM301.504 20.0547C307.305 20.0547 311.43 23.2773 311.43 27.918C311.43 32.5586 307.305 35.6953 301.504 35.6523C295.66 35.6953 291.492 32.5586 291.492 27.918C291.492 23.2773 295.66 20.0547 301.504 20.0547ZM301.504 25.2539C299.527 25.2969 298.238 26.1133 298.238 27.918C298.238 29.7227 299.527 30.4961 301.504 30.4961C303.523 30.4961 304.898 29.7227 304.898 27.918C304.898 26.1133 303.523 25.2969 301.504 25.2539ZM322.773 43.6875V49.1875H295.273V37.457H302.191V43.6875H322.773Z" fill="#11DCA9"/>
<path d="M24.7852 12.6641L24.7162 22.6638C24.7623 22.6641 24.8085 22.6641 24.8546 22.6638L24.7852 12.6641ZM14 26.9727L23.9999 27.021C24 26.9885 24 26.9561 23.9999 26.9236L14 26.9727ZM24.7852 18.8945L24.6128 28.893C24.7267 28.895 24.8407 28.895 24.9546 28.8931L24.7852 18.8945ZM20.7031 26.9727L30.7028 27.0496C30.7032 26.9979 30.7032 26.9462 30.7028 26.8945L20.7031 26.9727ZM28.9531 26.9727L38.9528 27.0496C38.9532 26.9979 38.9532 26.9462 38.9528 26.8945L28.9531 26.9727ZM45.7539 10H55.7539C55.7539 4.47715 51.2768 0 45.7539 0V10ZM45.7539 24.4375H35.7539C35.7539 29.9603 40.2311 34.4375 45.7539 34.4375V24.4375ZM51.125 24.4375H61.125C61.125 18.9147 56.6478 14.4375 51.125 14.4375V24.4375ZM51.125 30.1523V40.1523C56.6478 40.1523 61.125 35.6752 61.125 30.1523H51.125ZM45.7539 30.1523V20.1523C40.2311 20.1523 35.7539 24.6295 35.7539 30.1523H45.7539ZM45.7539 49.7461V59.7461C51.2768 59.7461 55.7539 55.2689 55.7539 49.7461H45.7539ZM38.8359 49.7461H28.8359C28.8359 55.2689 33.3131 59.7461 38.8359 59.7461V49.7461ZM38.8359 10V0C33.3131 0 28.8359 4.47715 28.8359 10H38.8359ZM24.7852 12.6641L24.8546 22.6638C24.8677 22.6637 24.8352 22.665 24.77 22.6499C24.7044 22.6347 24.6339 22.6095 24.5686 22.5766C24.4231 22.5031 24.4332 22.4599 24.549 22.6106C24.8104 22.9505 25.5273 24.2317 25.5273 26.9727H35.5273H45.5273C45.5273 20.9479 43.9669 15.0534 40.4041 10.4197C36.7054 5.60936 31.1329 2.61974 24.7157 2.6643L24.7852 12.6641ZM35.5273 26.9727H25.5273C25.5273 29.8046 24.7973 31.1072 24.5364 31.4479C24.4207 31.599 24.4085 31.5588 24.5465 31.4887C24.6939 31.4138 24.806 31.4102 24.7852 31.4102V41.4102V51.4102C31.1555 51.4102 36.7143 48.4419 40.4167 43.6058C43.9801 38.9514 45.5273 33.0353 45.5273 26.9727H35.5273ZM24.7852 41.4102V31.4102C24.7416 31.4102 24.8337 31.4084 24.9669 31.4756C25.0921 31.5387 25.0769 31.5734 24.9637 31.4265C24.7116 31.0989 23.9864 29.8217 23.9999 27.021L14 26.9727L4.00012 26.9243C3.97068 33.0181 5.52282 38.9597 9.11633 43.6273C12.8445 48.4697 18.4256 51.4102 24.7852 51.4102V41.4102ZM14 26.9727L23.9999 26.9236C23.9866 24.2146 24.6983 22.9589 24.951 22.632C25.0643 22.4855 25.0775 22.5231 24.9449 22.5896C24.8024 22.661 24.6943 22.6637 24.7162 22.6638L24.7852 12.6641L24.8541 2.6643C18.448 2.62012 12.8535 5.58142 9.12907 10.3982C5.5361 15.045 3.97043 20.9651 4.00012 27.0217L14 26.9727ZM24.7852 18.8945L24.9575 8.89602C19.309 8.79863 15.1265 12.1116 12.9729 16.1436C11.125 19.6031 10.6762 23.5663 10.7034 27.0508L20.7031 26.9727L30.7028 26.8945C30.6958 25.9979 30.7607 25.4486 30.8097 25.1804C30.8625 24.8914 30.866 25.0946 30.614 25.5664C30.3484 26.0636 29.7274 26.9806 28.5252 27.7591C27.2579 28.5797 25.8519 28.9144 24.6128 28.893L24.7852 18.8945ZM20.7031 26.9727L10.7034 26.8957C10.6765 30.3994 11.1183 34.3811 12.9808 37.8541C15.1766 41.9486 19.3348 45.0938 24.7852 45.0938V35.0938V25.0938C25.9367 25.0938 27.2807 25.4122 28.5173 26.2113C29.7022 26.977 30.3287 27.8844 30.6061 28.4018C30.8662 28.8866 30.864 29.1007 30.8112 28.8099C30.7619 28.5386 30.6957 27.9768 30.7028 27.0496L20.7031 26.9727ZM24.7852 35.0938V45.0938C30.2238 45.0938 34.3854 41.9832 36.6016 37.8816C38.4595 34.4431 38.9263 30.4931 38.9528 27.0496L28.9531 26.9727L18.9534 26.8957C18.9461 27.8483 18.8727 28.4335 18.8165 28.7288C18.7564 29.0449 18.7507 28.8465 19.0058 28.3742C19.2799 27.867 19.9072 26.9593 21.0979 26.1949C22.3409 25.3971 23.6738 25.0938 24.7852 25.0938V35.0938ZM28.9531 26.9727L38.9528 26.8945C38.9261 23.4723 38.4528 19.5413 36.6096 16.1161C34.4349 12.0751 30.2493 8.80048 24.6157 8.89597L24.7852 18.8945L24.9546 28.8931C23.7579 28.9134 22.364 28.5949 21.09 27.7755C19.882 26.9985 19.2601 26.0811 18.9979 25.5939C18.7507 25.1346 18.758 24.9472 18.8181 25.2618C18.8741 25.5544 18.9462 26.1278 18.9534 27.0508L28.9531 26.9727ZM45.7539 10L35.7539 10V24.4375H45.7539H55.7539V10H45.7539ZM45.7539 24.4375V34.4375H51.125V24.4375V14.4375H45.7539V24.4375ZM51.125 24.4375H41.125V30.1523H51.125H61.125V24.4375H51.125ZM51.125 30.1523V20.1523H45.7539V30.1523V40.1523H51.125V30.1523ZM45.7539 30.1523H35.7539V49.7461H45.7539H55.7539V30.1523H45.7539ZM45.7539 49.7461V39.7461H38.8359V49.7461V59.7461H45.7539V49.7461ZM38.8359 49.7461H48.8359V10L38.8359 10H28.8359V49.7461H38.8359ZM38.8359 10V20H45.7539V10V0H38.8359V10ZM85.6289 10H95.6289C95.6289 4.47715 91.1518 0 85.6289 0V10ZM85.6289 49.875V59.875C91.1518 59.875 95.6289 55.3978 95.6289 49.875H85.6289ZM78.668 49.875H68.668C68.668 55.3978 73.1451 59.875 78.668 59.875V49.875ZM78.668 10V0C73.1451 0 68.668 4.47715 68.668 10H78.668ZM63.8008 12.6641L63.7313 22.6638C63.7781 22.6641 63.8249 22.6641 63.8717 22.6638L63.8008 12.6641ZM63.8008 18.8945L63.6313 28.8931C63.7484 28.8951 63.8655 28.895 63.9826 28.8929L63.8008 18.8945ZM85.6289 10H75.6289V49.875H85.6289H95.6289V10H85.6289ZM85.6289 49.875V39.875H78.668V49.875V59.875H85.6289V49.875ZM78.668 49.875H88.668V10H78.668H68.668V49.875H78.668ZM78.668 10V20H85.6289V10V0L78.668 0V10ZM63.8008 12.6641L63.8717 22.6638C63.8039 22.6643 63.6344 22.6406 63.459 22.5508C63.2973 22.4681 63.3063 22.4198 63.427 22.5782C63.6974 22.9327 64.4141 24.2334 64.4141 26.9727H74.4141L84.4141 26.9727C84.4141 20.9463 82.8534 15.0712 79.3317 10.4521C75.6844 5.66819 70.1514 2.61877 63.7299 2.66431L63.8008 12.6641ZM74.4141 26.9727H64.4141C64.4141 29.8028 63.6843 31.1249 63.4145 31.4804C63.294 31.6391 63.2828 31.594 63.4369 31.5147C63.6026 31.4293 63.7555 31.4102 63.8008 31.4102V41.4102V51.4102C70.1743 51.4102 75.6928 48.3834 79.3443 43.5733C82.8665 38.9337 84.4141 33.0371 84.4141 26.9727L74.4141 26.9727ZM63.8008 41.4102V31.4102C63.7793 31.4102 63.8841 31.4135 64.0215 31.483C64.1497 31.5479 64.1309 31.5815 64.0116 31.4265C63.7461 31.0816 63.0156 29.7839 63.0156 26.9727H53.0156H43.0156C43.0156 33.056 44.584 38.977 48.1642 43.6273C51.877 48.4498 57.4386 51.4102 63.8008 51.4102V41.4102ZM53.0156 26.9727H63.0156C63.0156 24.2526 63.7327 22.9762 63.9989 22.632C64.1185 22.4774 64.1351 22.5139 63.9995 22.5822C63.9389 22.6127 63.8727 22.6363 63.8105 22.6507C63.7488 22.6649 63.7183 22.6637 63.7313 22.6638L63.8008 12.6641L63.8702 2.6643C57.4611 2.6198 51.8858 5.60151 48.1769 10.3982C44.5974 15.0277 43.0156 20.9271 43.0156 26.9727H53.0156ZM63.8008 18.8945L63.9702 8.89597C58.3387 8.80052 54.1404 12.0746 51.967 16.1436C50.1261 19.59 49.6758 23.5385 49.6758 26.9727H59.6758H69.6758C69.6758 26.0559 69.7439 25.4897 69.7965 25.2055C69.8533 24.8993 69.8591 25.0966 69.6082 25.5664C69.3419 26.0649 68.7156 26.9904 67.5016 27.7722C66.2234 28.5955 64.8268 28.9134 63.6313 28.8931L63.8008 18.8945ZM59.6758 26.9727H49.6758C49.6758 30.4271 50.1195 34.3944 51.9749 37.8541C54.1895 41.9836 58.3645 45.0938 63.8008 45.0938V35.0938V25.0938C64.9109 25.0938 66.2465 25.3965 67.4937 26.1982C68.6904 26.9673 69.3221 27.8831 69.6003 28.4018C69.8592 28.8846 69.8548 29.0928 69.798 28.7849C69.7451 28.4977 69.6758 27.9194 69.6758 26.9727H59.6758ZM63.8008 35.0938V45.0938C69.4 45.0938 73.4509 41.7294 75.5273 37.7986C77.3264 34.3926 77.7969 30.4806 77.7969 26.9727L67.7969 26.9727H57.7969C57.7969 27.9039 57.7271 28.4806 57.6729 28.7724C57.615 29.0842 57.6057 28.9062 57.8428 28.4572C58.0915 27.9865 58.6872 27.0851 59.8593 26.3005C61.0993 25.4703 62.5087 25.0938 63.8008 25.0938V35.0938ZM67.7969 26.9727L77.7969 26.9727C77.7969 23.4853 77.3198 19.5914 75.535 16.199C73.5044 12.3393 69.4256 8.79061 63.619 8.89618L63.8008 18.8945L63.9826 28.8929C62.5967 28.9181 61.1214 28.5217 59.8513 27.6697C58.6626 26.8723 58.0721 25.9614 57.8351 25.511C57.6057 25.075 57.6166 24.9078 57.6744 25.218C57.7283 25.507 57.7969 26.0715 57.7969 26.9727H67.7969ZM123.656 10H133.656C133.656 4.47715 129.179 0 123.656 0V10ZM123.656 49.875V59.875C129.179 59.875 133.656 55.3978 133.656 49.875H123.656ZM116.695 49.875H106.695C106.695 55.3978 111.172 59.875 116.695 59.875V49.875ZM116.695 10V0C111.172 0 106.695 4.47715 106.695 10L116.695 10ZM111.969 13.3516H121.969C121.969 7.82872 117.492 3.35156 111.969 3.35156V13.3516ZM111.969 18.8945V28.8945C117.492 28.8945 121.969 24.4174 121.969 18.8945H111.969ZM99.293 18.8945V8.89453C93.7701 8.89453 89.293 13.3717 89.293 18.8945H99.293ZM99.293 34.8789H89.293C89.293 37.5367 90.351 40.0851 92.2334 41.9614C94.1157 43.8377 96.6676 44.8875 99.3253 44.8789L99.293 34.8789ZM114.332 33.8906L124.282 32.8956C124.004 30.1136 122.574 27.5752 120.339 25.8958C118.104 24.2163 115.267 23.5494 112.518 24.0565L114.332 33.8906ZM114.891 39.4766L116.917 49.2692C121.93 48.2319 125.35 43.5757 124.841 38.4815L114.891 39.4766ZM95.9844 40.6367L96.0324 30.6368C96.0164 30.6368 96.0004 30.6367 95.9844 30.6367V40.6367ZM92.418 40.6367H82.418C82.418 46.1596 86.8951 50.6367 92.418 50.6367V40.6367ZM92.418 13.3516V3.35156C86.8951 3.35156 82.418 7.82872 82.418 13.3516H92.418ZM123.656 10H113.656V49.875H123.656H133.656V10H123.656ZM123.656 49.875V39.875H116.695V49.875V59.875H123.656V49.875ZM116.695 49.875H126.695V10H116.695L106.695 10V49.875H116.695ZM116.695 10V20H123.656V10V0L116.695 0V10ZM111.969 13.3516H101.969V18.8945H111.969H121.969V13.3516H111.969ZM111.969 18.8945V8.89453L99.293 8.89453V18.8945V28.8945H111.969V18.8945ZM99.293 18.8945H89.293V34.8789H99.293H109.293V18.8945H99.293ZM99.293 34.8789L99.3253 44.8789C106.039 44.8571 110.778 44.715 116.146 43.7247L114.332 33.8906L112.518 24.0565C109.035 24.6991 105.825 24.8577 99.2606 24.879L99.293 34.8789ZM114.332 33.8906L104.382 34.8857L104.94 40.4716L114.891 39.4766L124.841 38.4815L124.282 32.8956L114.332 33.8906ZM114.891 39.4766L112.865 29.684C109.018 30.4798 104.985 30.6799 96.0324 30.6368L95.9844 40.6367L95.9363 50.6366C104.859 50.6795 110.795 50.5358 116.917 49.2692L114.891 39.4766ZM95.9844 40.6367V30.6367H92.418V40.6367V50.6367H95.9844V40.6367ZM92.418 40.6367H102.418V13.3516H92.418H82.418V40.6367H92.418ZM92.418 13.3516V23.3516H111.969V13.3516V3.35156L92.418 3.35156V13.3516ZM139.254 12.6641L139.184 22.6638C139.234 22.6642 139.285 22.6641 139.335 22.6637L139.254 12.6641ZM149.566 23.8359L139.662 25.2158C140.351 30.1578 144.577 33.8359 149.566 33.8359V23.8359ZM155.195 23.8359V33.8359C160.718 33.8359 165.195 29.3588 165.195 23.8359H155.195ZM155.195 10V0C149.672 0 145.195 4.47715 145.195 10H155.195ZM162.027 10H172.027C172.027 4.47715 167.55 0 162.027 0V10ZM162.027 49.875V59.875C167.55 59.875 172.027 55.3978 172.027 49.875H162.027ZM155.195 49.875H145.195C145.195 55.3978 149.672 59.875 155.195 59.875V49.875ZM155.195 29.3359H165.195C165.195 23.8131 160.718 19.3359 155.195 19.3359V29.3359ZM149.652 29.3359V19.3359C144.505 19.3359 140.199 23.2433 139.699 28.3663L149.652 29.3359ZM139.254 18.8945L139.072 28.8929C139.192 28.8951 139.312 28.8951 139.432 28.8929L139.254 18.8945ZM135.301 26.9727L145.3 27.0496C145.301 26.9979 145.301 26.9462 145.3 26.8945L135.301 26.9727ZM139.254 12.6641L139.335 22.6637C139.282 22.6642 139.122 22.6489 138.93 22.5641C138.745 22.4823 138.677 22.4013 138.711 22.4381C138.805 22.5391 139.393 23.2826 139.662 25.2158L149.566 23.8359L159.471 22.4561C158.097 12.5942 151.325 2.56599 139.173 2.66439L139.254 12.6641ZM149.566 23.8359V33.8359H155.195V23.8359V13.8359H149.566V23.8359ZM155.195 23.8359H165.195V10H155.195H145.195V23.8359H155.195ZM155.195 10V20H162.027V10V0H155.195V10ZM162.027 10H152.027V49.875H162.027H172.027V10H162.027ZM162.027 49.875V39.875H155.195V49.875V59.875H162.027V49.875ZM155.195 49.875H165.195V29.3359H155.195H145.195V49.875H155.195ZM155.195 29.3359V19.3359H149.652V29.3359V39.3359H155.195V29.3359ZM149.652 29.3359L139.699 28.3663C139.486 30.5593 138.851 31.4454 138.715 31.6005C138.66 31.6632 138.708 31.59 138.883 31.5089C139.064 31.4247 139.215 31.4102 139.254 31.4102V41.4102V51.4102C151.839 51.4102 158.589 40.7357 159.605 30.3056L149.652 29.3359ZM139.254 41.4102V31.4102C139.241 31.4102 139.279 31.4092 139.353 31.4269C139.428 31.4447 139.51 31.4744 139.588 31.5147C139.761 31.6038 139.769 31.666 139.662 31.5241C139.412 31.1902 138.684 29.8661 138.684 26.9727H128.684H118.684C118.684 32.9737 120.168 38.8684 123.667 43.5296C127.321 48.398 132.858 51.4102 139.254 51.4102V41.4102ZM128.684 26.9727H138.684C138.684 24.1696 139.399 22.867 139.65 22.5344C139.757 22.3929 139.747 22.4583 139.566 22.5508C139.484 22.593 139.395 22.625 139.312 22.6445C139.229 22.6639 139.182 22.6638 139.184 22.6638L139.254 12.6641L139.324 2.66431C132.88 2.61925 127.329 5.65315 123.679 10.4958C120.181 15.1369 118.684 21.0101 118.684 26.9727H128.684ZM139.254 18.8945L139.436 8.89618C133.63 8.79063 129.54 12.3395 127.51 16.2269C125.728 19.6402 125.274 23.5516 125.301 27.0508L135.301 26.9727L145.3 26.8945C145.285 24.8937 145.625 24.7445 145.24 25.4831C144.999 25.9446 144.404 26.8637 143.209 27.6662C141.935 28.5223 140.457 28.9181 139.072 28.8929L139.254 18.8945ZM135.301 26.9727L125.301 26.8957C125.274 30.4145 125.722 34.3438 127.518 37.7707C129.593 41.7292 133.656 45.0938 139.254 45.0938V35.0938V25.0937C140.545 25.0937 141.957 25.4698 143.201 26.304C144.379 27.0937 144.979 28.0033 145.232 28.4852C145.473 28.9445 145.465 29.1323 145.41 28.8286C145.359 28.545 145.293 27.9752 145.3 27.0496L135.301 26.9727ZM139.254 35.0938V45.0938C144.87 45.0937 148.947 41.7289 151.019 37.7144C152.777 34.3088 153.207 30.4093 153.207 26.9727H143.207H133.207C133.207 27.9311 133.139 28.5297 133.083 28.8411C133.024 29.175 133.011 28.9983 133.247 28.5415C133.496 28.0586 134.102 27.1219 135.308 26.3112C136.584 25.4534 138.005 25.0937 139.254 25.0937V35.0938ZM143.207 26.9727H153.207C153.207 23.557 152.77 19.6757 151.027 16.2831C148.999 12.3383 144.897 8.79217 139.075 8.89612L139.254 18.8945L139.432 28.8929C138.092 28.9169 136.607 28.5393 135.3 27.659C134.077 26.8354 133.477 25.8892 133.239 25.4268C133.011 24.9829 133.025 24.817 133.085 25.149C133.14 25.4574 133.207 26.044 133.207 26.9727H143.207ZM197.863 10H207.863C207.863 4.47715 203.386 0 197.863 0V10ZM197.863 24.6523H187.863C187.863 30.1752 192.34 34.6523 197.863 34.6523V24.6523ZM202.934 24.6523L212.934 24.6523C212.934 19.1295 208.456 14.6523 202.934 14.6523V24.6523ZM202.934 30.2812V40.2812C208.456 40.2812 212.934 35.8041 212.934 30.2812H202.934ZM197.863 30.2812V20.2812C192.34 20.2812 187.863 24.7584 187.863 30.2812H197.863ZM197.863 49.6602V59.6602C203.386 59.6602 207.863 55.183 207.863 49.6602H197.863ZM190.945 49.6602H180.945C180.945 55.183 185.422 59.6602 190.945 59.6602V49.6602ZM190.945 10V0C185.422 0 180.945 4.47715 180.945 10H190.945ZM187.035 13.9531L197.035 13.9881C197.044 11.3299 195.995 8.77736 194.119 6.89443C192.242 5.0115 189.693 3.95312 187.035 3.95312V13.9531ZM169.203 43.2148L161.187 49.1938C164.066 53.0526 169.285 54.313 173.607 52.193L169.203 43.2148ZM165.293 37.9727L160.786 29.0458C158.149 30.377 156.236 32.8059 155.559 35.6812C154.882 38.5565 155.511 41.5839 157.277 43.9516L165.293 37.9727ZM180.031 19.5391L189.93 20.9568C190.341 18.0866 189.486 15.1792 187.587 12.9884C185.688 10.7976 182.931 9.53906 180.031 9.53906V19.5391ZM167.785 19.5391H157.785C157.785 25.0619 162.262 29.5391 167.785 29.5391V19.5391ZM167.785 13.9531V3.95312C162.262 3.95312 157.785 8.43028 157.785 13.9531H167.785ZM197.863 10H187.863V24.6523H197.863L207.863 24.6523V10H197.863ZM197.863 24.6523V34.6523H202.934V24.6523V14.6523H197.863V24.6523ZM202.934 24.6523H192.934V30.2812H202.934H212.934V24.6523L202.934 24.6523ZM202.934 30.2812V20.2812H197.863V30.2812V40.2812H202.934V30.2812ZM197.863 30.2812H187.863V49.6602H197.863H207.863V30.2812H197.863ZM197.863 49.6602V39.6602H190.945V49.6602V59.6602H197.863V49.6602ZM190.945 49.6602H200.945V10H190.945H180.945V49.6602H190.945ZM190.945 10V20H197.863V10V0L190.945 0V10ZM187.035 13.9531L177.035 13.9182C177.018 18.9688 176.142 22.8059 174.459 25.8287C172.836 28.7423 170.038 31.6673 164.799 34.2367L169.203 43.2148L173.607 52.193C181.947 48.1022 188.043 42.5409 191.931 35.5609C195.758 28.6902 197.01 21.2265 197.035 13.9881L187.035 13.9531ZM169.203 43.2148L177.219 37.2359L173.309 31.9937L165.293 37.9727L157.277 43.9516L161.187 49.1938L169.203 43.2148ZM165.293 37.9727L169.8 46.8995C175.044 44.2517 179.718 40.951 183.304 36.5212C186.975 31.9849 189.098 26.7651 189.93 20.9568L180.031 19.5391L170.132 18.1213C169.761 20.7134 168.941 22.4761 167.757 23.9392C166.487 25.5089 164.393 27.2248 160.786 29.0458L165.293 37.9727ZM180.031 19.5391V9.53906L167.785 9.53906V19.5391V29.5391H180.031V19.5391ZM167.785 19.5391H177.785V13.9531H167.785H157.785V19.5391H167.785ZM167.785 13.9531V23.9531H187.035V13.9531V3.95312H167.785V13.9531ZM250.027 28.4766H260.027C260.027 22.9537 255.55 18.4766 250.027 18.4766V28.4766ZM250.027 33.8906V43.8906C255.55 43.8906 260.027 39.4135 260.027 33.8906H250.027ZM235.289 33.8906V23.8906C229.766 23.8906 225.289 28.3678 225.289 33.8906H235.289ZM235.289 35.7383H225.289C225.289 40.8856 229.197 45.1922 234.32 45.6912L235.289 35.7383ZM217.844 42.7422L227.843 42.8365C227.844 42.7687 227.844 42.7008 227.843 42.6329L217.844 42.7422ZM228.371 35.7383L229.3 45.6951C234.44 45.2157 238.371 40.9014 238.371 35.7383H228.371ZM228.371 33.8906H238.371C238.371 28.3678 233.894 23.8906 228.371 23.8906V33.8906ZM213.762 33.8906H203.762C203.762 39.4135 208.239 43.8906 213.762 43.8906V33.8906ZM213.762 28.4766V18.4766C208.239 18.4766 203.762 22.9537 203.762 28.4766L213.762 28.4766ZM246.891 11.2031H256.891C256.891 5.68028 252.413 1.20312 246.891 1.20312V11.2031ZM246.891 16.6602V26.6602C252.413 26.6602 256.891 22.183 256.891 16.6602H246.891ZM242.336 16.6602V6.66016C236.813 6.66016 232.336 11.1373 232.336 16.6602H242.336ZM242.336 21.3008H232.336C232.336 26.8236 236.813 31.3008 242.336 31.3008V21.3008ZM246.547 21.3008H256.547C256.547 15.7779 252.07 11.3008 246.547 11.3008V21.3008ZM246.547 26.7148V36.7148C252.07 36.7148 256.547 32.2377 256.547 26.7148H246.547ZM217.199 26.7148H207.199C207.199 32.2377 211.676 36.7148 217.199 36.7148V26.7148ZM217.199 21.3008V11.3008C211.676 11.3008 207.199 15.7779 207.199 21.3008H217.199ZM221.367 21.3008V31.3008C226.89 31.3008 231.367 26.8236 231.367 21.3008H221.367ZM221.367 16.6602H231.367C231.367 11.1373 226.89 6.66016 221.367 6.66016V16.6602ZM216.812 16.6602H206.812C206.812 22.183 211.29 26.6602 216.812 26.6602V16.6602ZM216.812 11.2031V1.20312C211.29 1.20312 206.812 5.68028 206.812 11.2031H216.812ZM231.809 40.7227L231.898 30.7231C231.839 30.7225 231.78 30.7225 231.722 30.723L231.809 40.7227ZM224.719 42.7422L234.715 43.0278C234.72 42.8317 234.72 42.6354 234.714 42.4393L224.719 42.7422ZM228.242 21.3008H218.242C218.242 26.8236 222.719 31.3008 228.242 31.3008V21.3008ZM235.375 21.3008V31.3008C240.898 31.3008 245.375 26.8236 245.375 21.3008H235.375ZM235.375 16.6602H245.375C245.375 11.1373 240.898 6.66016 235.375 6.66016V16.6602ZM228.242 16.6602V6.66016C222.719 6.66016 218.242 11.1373 218.242 16.6602H228.242ZM250.027 28.4766H240.027V33.8906H250.027H260.027V28.4766H250.027ZM250.027 33.8906V23.8906H235.289V33.8906V43.8906H250.027V33.8906ZM235.289 33.8906H225.289V35.7383H235.289H245.289V33.8906H235.289ZM235.289 35.7383L234.32 45.6912C235.478 45.804 236.321 45.9783 236.89 46.1463C237.473 46.3181 237.623 46.4399 237.512 46.3668C237.381 46.2806 236.899 45.9252 236.454 45.1712C235.979 44.3677 235.773 43.4893 235.773 42.7422H245.773H255.773C255.773 36.8553 252.606 32.3599 248.513 29.6645C244.819 27.2311 240.384 26.1872 236.258 25.7854L235.289 35.7383ZM245.773 42.7422H235.773C235.773 41.8365 236.074 40.8077 236.683 39.9562C237.221 39.2033 237.708 38.9915 237.582 39.0548C237.45 39.1209 236.944 39.335 235.901 39.5225C234.881 39.7059 233.525 39.832 231.809 39.832V49.832V59.832C236.895 59.832 242.161 59.1308 246.542 56.9354C251.33 54.536 255.773 49.8029 255.773 42.7422H245.773ZM231.809 49.832V39.832C230.079 39.832 228.713 39.7055 227.686 39.5215C226.636 39.3333 226.131 39.1188 226.003 39.0548C225.881 38.9935 226.384 39.2142 226.934 39.9892C227.556 40.8666 227.852 41.9199 227.843 42.8365L217.844 42.7422L207.844 42.6479C207.777 49.7551 212.237 54.5271 217.043 56.9354C221.429 59.1334 226.71 59.832 231.809 59.832V49.832ZM217.844 42.7422L227.843 42.6329C227.851 43.3876 227.651 44.2899 227.165 45.1219C226.709 45.9024 226.208 46.2709 226.069 46.362C225.951 46.4394 226.099 46.3175 226.691 46.1456C227.268 45.9779 228.124 45.8047 229.3 45.6951L228.371 35.7383L227.443 25.7815C223.294 26.1683 218.822 27.1977 215.102 29.6371C210.963 32.351 207.779 36.9041 207.844 42.8515L217.844 42.7422ZM228.371 35.7383H238.371V33.8906H228.371H218.371V35.7383H228.371ZM228.371 33.8906V23.8906H213.762V33.8906V43.8906H228.371V33.8906ZM213.762 33.8906H223.762V28.4766H213.762L203.762 28.4766V33.8906H213.762ZM213.762 28.4766V38.4766H250.027V28.4766V18.4766H213.762V28.4766ZM246.891 11.2031L236.891 11.2031V16.6602H246.891H256.891V11.2031H246.891ZM246.891 16.6602V6.66016H242.336V16.6602V26.6602H246.891V16.6602ZM242.336 16.6602H232.336V21.3008H242.336H252.336V16.6602H242.336ZM242.336 21.3008V31.3008H246.547V21.3008V11.3008H242.336V21.3008ZM246.547 21.3008H236.547V26.7148H246.547H256.547V21.3008H246.547ZM246.547 26.7148V16.7148H217.199V26.7148V36.7148H246.547V26.7148ZM217.199 26.7148H227.199V21.3008H217.199H207.199V26.7148H217.199ZM217.199 21.3008V31.3008H221.367V21.3008V11.3008H217.199V21.3008ZM221.367 21.3008H231.367V16.6602H221.367H211.367V21.3008H221.367ZM221.367 16.6602V6.66016H216.812V16.6602V26.6602H221.367V16.6602ZM216.812 16.6602H226.812V11.2031H216.812H206.812V16.6602H216.812ZM216.812 11.2031V21.2031H246.891V11.2031V1.20312L216.812 1.20312V11.2031ZM231.809 40.7227L231.722 30.723C229.185 30.7451 226.251 30.8781 223.718 31.5816C222.456 31.9322 220.311 32.6788 218.373 34.4481C216.035 36.5813 214.621 39.6516 214.723 43.0451L224.719 42.7422L234.714 42.4393C234.749 43.5975 234.554 44.9109 233.984 46.2261C233.419 47.5307 232.623 48.5197 231.855 49.2209C230.469 50.4853 229.173 50.8237 229.071 50.852C228.842 50.9156 228.917 50.8695 229.502 50.8171C230.044 50.7685 230.821 50.7316 231.896 50.7223L231.809 40.7227ZM224.719 42.7422L214.723 42.4566C214.631 45.6632 215.883 48.7142 218.211 50.9349C220.164 52.7978 222.359 53.5888 223.677 53.961C226.28 54.6962 229.278 54.8047 231.809 54.8047V44.8047V34.8047C230.738 34.8047 229.975 34.7736 229.45 34.7293C228.88 34.6812 228.841 34.6372 229.112 34.7138C229.27 34.7584 230.616 35.1277 232.016 36.463C232.785 37.1965 233.536 38.1929 234.057 39.4598C234.578 40.7266 234.745 41.964 234.715 43.0278L224.719 42.7422ZM231.809 44.8047V54.8047C234.286 54.8047 237.257 54.696 239.859 53.9475C241.191 53.5643 243.341 52.7662 245.261 50.9349C247.516 48.7834 248.77 45.8514 248.77 42.7422H238.77H228.77C228.77 41.7112 228.96 40.5293 229.475 39.3275C229.989 38.1258 230.712 37.173 231.456 36.463C232.823 35.1593 234.135 34.7829 234.329 34.7273C234.619 34.6438 234.604 34.6845 234.066 34.731C233.571 34.7738 232.842 34.8047 231.809 34.8047V44.8047ZM238.77 42.7422H248.77C248.77 39.4578 247.363 36.5134 245.1 34.4481C243.194 32.7088 241.092 31.9557 239.817 31.5947C237.288 30.8789 234.381 30.7452 231.898 30.7231L231.809 40.7227L231.719 50.7223C232.757 50.7315 233.5 50.7681 234.013 50.8151C234.567 50.866 234.618 50.9089 234.371 50.8389C234.234 50.8002 232.97 50.4553 231.618 49.2209C230.874 48.5421 230.11 47.5975 229.552 46.3621C228.991 45.1172 228.77 43.8647 228.77 42.7422H238.77ZM228.242 21.3008V31.3008H235.375V21.3008V11.3008H228.242V21.3008ZM235.375 21.3008H245.375V16.6602H235.375H225.375V21.3008H235.375ZM235.375 16.6602V6.66016H228.242V16.6602V26.6602H235.375V16.6602ZM228.242 16.6602H218.242V21.3008H228.242H238.242V16.6602H228.242ZM288.055 32.5156H298.055C298.055 26.9928 293.578 22.5156 288.055 22.5156V32.5156ZM288.055 37.8437V47.8437C293.578 47.8437 298.055 43.3666 298.055 37.8437H288.055ZM273.188 37.8437V27.8437C267.665 27.8437 263.188 32.3209 263.188 37.8437H273.188ZM273.188 49.7461V59.7461C278.71 59.7461 283.188 55.2689 283.188 49.7461H273.188ZM266.355 49.7461H256.355C256.355 55.2689 260.833 59.7461 266.355 59.7461V49.7461ZM266.355 37.8437H276.355C276.355 32.3209 271.878 27.8437 266.355 27.8437V37.8437ZM251.789 37.8437H241.789C241.789 43.3666 246.266 47.8437 251.789 47.8437V37.8437ZM251.789 32.5156V22.5156C246.266 22.5156 241.789 26.9928 241.789 32.5156H251.789ZM262.531 11.5039H272.531C272.531 5.98106 268.054 1.50391 262.531 1.50391V11.5039ZM262.531 15.5H252.531C252.531 21.0228 257.008 25.5 262.531 25.5V15.5ZM277.098 15.5V25.5C282.621 25.5 287.098 21.0228 287.098 15.5H277.098ZM277.098 11.5039V1.50391C271.575 1.50391 267.098 5.98106 267.098 11.5039H277.098ZM284.016 11.5039H294.016C294.016 5.98106 289.538 1.50391 284.016 1.50391V11.5039ZM284.016 29.3359V39.3359C289.538 39.3359 294.016 34.8588 294.016 29.3359H284.016ZM255.742 29.3359H245.742C245.742 34.8588 250.219 39.3359 255.742 39.3359V29.3359ZM255.742 11.5039V1.50391C250.219 1.50391 245.742 5.98106 245.742 11.5039H255.742ZM262.531 23.8359H252.531C252.531 29.3588 257.008 33.8359 262.531 33.8359V23.8359ZM277.098 23.8359V33.8359C282.621 33.8359 287.098 29.3588 287.098 23.8359H277.098ZM277.098 20.8281H287.098C287.098 15.3053 282.621 10.8281 277.098 10.8281V20.8281ZM262.531 20.8281V10.8281C257.008 10.8281 252.531 15.3053 252.531 20.8281H262.531ZM288.055 32.5156H278.055V37.8437H288.055H298.055V32.5156H288.055ZM288.055 37.8437V27.8437H273.188V37.8437V47.8437H288.055V37.8437ZM273.188 37.8437H263.188V49.7461H273.188H283.188V37.8437H273.188ZM273.188 49.7461V39.7461H266.355V49.7461V59.7461H273.188V49.7461ZM266.355 49.7461H276.355V37.8437H266.355H256.355V49.7461H266.355ZM266.355 37.8437V27.8437H251.789V37.8437V47.8437H266.355V37.8437ZM251.789 37.8437H261.789V32.5156H251.789H241.789V37.8437H251.789ZM251.789 32.5156V42.5156H288.055V32.5156V22.5156H251.789V32.5156ZM262.531 11.5039H252.531V15.5H262.531H272.531V11.5039H262.531ZM262.531 15.5V25.5H277.098V15.5V5.5H262.531V15.5ZM277.098 15.5H287.098V11.5039H277.098H267.098V15.5H277.098ZM277.098 11.5039V21.5039H284.016V11.5039V1.50391H277.098V11.5039ZM284.016 11.5039H274.016V29.3359H284.016H294.016V11.5039H284.016ZM284.016 29.3359V19.3359H255.742V29.3359V39.3359H284.016V29.3359ZM255.742 29.3359H265.742V11.5039H255.742H245.742V29.3359H255.742ZM255.742 11.5039V21.5039H262.531V11.5039V1.50391H255.742V11.5039ZM262.531 23.8359V33.8359H277.098V23.8359V13.8359H262.531V23.8359ZM277.098 23.8359H287.098V20.8281H277.098H267.098V23.8359H277.098ZM277.098 20.8281V10.8281H262.531V20.8281V30.8281H277.098V20.8281ZM262.531 20.8281H252.531V23.8359H262.531H272.531V20.8281H262.531ZM321.613 10.0859H331.613C331.613 4.56309 327.136 0.0859375 321.613 0.0859375V10.0859ZM321.613 21.6875H311.613C311.613 27.2103 316.09 31.6875 321.613 31.6875V21.6875ZM326.555 21.6875L336.555 21.6875C336.555 16.1647 332.078 11.6875 326.555 11.6875V21.6875ZM326.555 27.2734V37.2734C332.078 37.2734 336.555 32.7963 336.555 27.2734L326.555 27.2734ZM321.613 27.2734V17.2734C316.09 17.2734 311.613 21.7506 311.613 27.2734H321.613ZM321.613 39.6914V49.6914C327.136 49.6914 331.613 45.2143 331.613 39.6914H321.613ZM314.695 39.6914H304.695C304.695 45.2143 309.172 49.6914 314.695 49.6914V39.6914ZM314.695 10.0859V0.0859375C309.172 0.0859375 304.695 4.56309 304.695 10.0859H314.695ZM313.277 13.8242H323.277C323.277 8.30137 318.8 3.82422 313.277 3.82422V13.8242ZM313.277 19.1523V29.1523C318.8 29.1523 323.277 24.6752 323.277 19.1523H313.277ZM289.773 19.1523H279.773C279.773 24.6752 284.251 29.1523 289.773 29.1523V19.1523ZM289.773 13.8242V3.82422C284.251 3.82422 279.773 8.30137 279.773 13.8242H289.773ZM298.066 13.8242V23.8242C303.589 23.8242 308.066 19.3471 308.066 13.8242H298.066ZM298.066 10V0C292.544 0 288.066 4.47715 288.066 10H298.066ZM304.984 10H314.984C314.984 4.47715 310.507 0 304.984 0V10ZM304.984 13.8242H294.984C294.984 19.3471 299.462 23.8242 304.984 23.8242V13.8242ZM301.504 35.6523L301.578 25.6526C301.529 25.6523 301.48 25.6523 301.43 25.6526L301.504 35.6523ZM301.504 25.2539L301.717 15.2562C301.573 15.2531 301.43 15.2532 301.287 15.2563L301.504 25.2539ZM322.773 43.6875H332.773C332.773 38.1647 328.296 33.6875 322.773 33.6875V43.6875ZM322.773 49.1875V59.1875C328.296 59.1875 332.773 54.7103 332.773 49.1875H322.773ZM295.273 49.1875H285.273C285.273 54.7103 289.751 59.1875 295.273 59.1875V49.1875ZM295.273 37.457V27.457C289.751 27.457 285.273 31.9342 285.273 37.457H295.273ZM302.191 37.457H312.191C312.191 31.9342 307.714 27.457 302.191 27.457V37.457ZM302.191 43.6875H292.191C292.191 49.2103 296.669 53.6875 302.191 53.6875V43.6875ZM321.613 10.0859H311.613V21.6875H321.613H331.613V10.0859H321.613ZM321.613 21.6875V31.6875H326.555V21.6875V11.6875H321.613V21.6875ZM326.555 21.6875H316.555V27.2734H326.555L336.555 27.2734V21.6875L326.555 21.6875ZM326.555 27.2734V17.2734H321.613V27.2734V37.2734H326.555V27.2734ZM321.613 27.2734H311.613V39.6914H321.613H331.613V27.2734H321.613ZM321.613 39.6914V29.6914H314.695V39.6914V49.6914H321.613V39.6914ZM314.695 39.6914H324.695V10.0859H314.695H304.695V39.6914H314.695ZM314.695 10.0859V20.0859H321.613V10.0859V0.0859375H314.695V10.0859ZM313.277 13.8242H303.277V19.1523H313.277H323.277V13.8242H313.277ZM313.277 19.1523V9.15234L289.773 9.15234V19.1523V29.1523H313.277V19.1523ZM289.773 19.1523H299.773V13.8242H289.773H279.773V19.1523H289.773ZM289.773 13.8242V23.8242H298.066V13.8242V3.82422H289.773V13.8242ZM298.066 13.8242H308.066V10L298.066 10H288.066V13.8242H298.066ZM298.066 10V20H304.984V10V0H298.066V10ZM304.984 10L294.984 10V13.8242H304.984H314.984V10H304.984ZM304.984 13.8242V23.8242H313.277V13.8242V3.82422H304.984V13.8242ZM301.504 20.0547V30.0547C302.629 30.0547 302.794 30.3697 302.448 30.0968C302.259 29.9475 301.978 29.6587 301.75 29.2037C301.517 28.7368 301.43 28.2729 301.43 27.918H311.43H321.43C321.43 22.357 318.852 17.5637 314.836 14.3954C310.978 11.351 306.18 10.0547 301.504 10.0547V20.0547ZM311.43 27.918H301.43C301.43 27.5621 301.517 27.0793 301.767 26.5852C302.01 26.1028 302.314 25.7942 302.523 25.6324C302.902 25.3394 302.745 25.6613 301.578 25.6526L301.504 35.6523L301.43 45.6521C306.064 45.6864 310.87 44.4614 314.761 41.4506C318.833 38.3007 321.43 33.4973 321.43 27.918H311.43ZM301.504 35.6523L301.43 25.6526C300.225 25.6615 300.033 25.3307 300.391 25.6054C300.591 25.7591 300.897 26.0633 301.145 26.55C301.399 27.0498 301.492 27.5449 301.492 27.918H291.492H281.492C281.492 33.5383 284.136 38.3447 288.222 41.4776C292.126 44.4701 296.939 45.6862 301.577 45.6521L301.504 35.6523ZM291.492 27.918H301.492C301.492 28.29 301.4 28.7662 301.161 29.2388C300.929 29.6982 300.647 29.9827 300.466 30.1242C300.14 30.3793 300.341 30.0547 301.504 30.0547V20.0547V10.0547C292.569 10.0547 281.492 15.6025 281.492 27.918H291.492ZM301.504 25.2539L301.287 15.2563C299.2 15.3016 295.974 15.7513 293.058 17.9796C289.677 20.5634 288.238 24.3486 288.238 27.918H298.238H308.238C308.238 28.6625 308.102 29.7332 307.561 30.9136C307.004 32.1283 306.165 33.1346 305.202 33.871C303.424 35.2292 301.831 35.2491 301.721 35.2515L301.504 25.2539ZM298.238 27.918H288.238C288.238 31.492 289.689 35.3526 293.203 37.9382C296.195 40.1396 299.467 40.4961 301.504 40.4961V30.4961V20.4961C301.565 20.4961 303.204 20.4658 305.057 21.8294C306.071 22.5757 306.954 23.6099 307.538 24.8656C308.103 26.0805 308.238 27.1768 308.238 27.918H298.238ZM301.504 30.4961V40.4961C303.535 40.4961 306.743 40.1493 309.708 38.0657C313.235 35.5876 314.898 31.7381 314.898 27.918H304.898H294.898C294.898 27.0865 295.062 25.922 295.678 24.6692C296.308 23.3883 297.227 22.3918 298.209 21.7019C299.982 20.4562 301.492 20.4961 301.504 20.4961V30.4961ZM304.898 27.918H314.898C314.898 24.1082 313.252 20.3277 309.853 17.8474C306.958 15.7347 303.792 15.3003 301.717 15.2562L301.504 25.2539L301.291 35.2516C301.235 35.2505 299.767 35.2458 298.064 34.0032C297.129 33.321 296.255 32.3492 295.654 31.1087C295.063 29.8906 294.898 28.7524 294.898 27.918H304.898ZM322.773 43.6875H312.773V49.1875H322.773H332.773V43.6875H322.773ZM322.773 49.1875V39.1875H295.273V49.1875V59.1875H322.773V49.1875ZM295.273 49.1875H305.273V37.457H295.273H285.273V49.1875H295.273ZM295.273 37.457V47.457H302.191V37.457V27.457H295.273V37.457ZM302.191 37.457H292.191V43.6875H302.191H312.191V37.457H302.191ZM302.191 43.6875V53.6875H322.773V43.6875V33.6875H302.191V43.6875Z" fill="white" mask="url(#path-1-outside-1_6524_1741)"/>
</g>
<defs>
<filter id="filter0_d_6524_1741" x="0" y="0" width="340.555" height="67.875" filterUnits="userSpaceOnUse" color-interpolation-filters="sRGB">
<feFlood flood-opacity="0" result="BackgroundImageFix"/>
<feColorMatrix in="SourceAlpha" type="matrix" values="0 0 0 0 0 0 0 0 0 0 0 0 0 0 0 0 0 0 127 0" result="hardAlpha"/>
<feOffset dy="4"/>
<feGaussianBlur stdDeviation="2"/>
<feComposite in2="hardAlpha" operator="out"/>
<feColorMatrix type="matrix" values="0 0 0 0 0 0 0 0 0 0 0 0 0 0 0 0 0 0 0.07 0"/>
<feBlend mode="normal" in2="BackgroundImageFix" result="effect1_dropShadow_6524_1741"/>
<feBlend mode="normal" in="SourceGraphic" in2="effect1_dropShadow_6524_1741" result="shape"/>
</filter>
</defs>
</svg>
