<svg width="388" height="68" viewBox="0 0 388 68" fill="none" xmlns="http://www.w3.org/2000/svg">
<g filter="url(#filter0_d_6524_1843)">
<mask id="path-1-outside-1_6524_1843" maskUnits="userSpaceOnUse" x="3.14062" y="-0.507813" width="381" height="61" fill="black">
<rect fill="white" x="3.14062" y="-0.507813" width="381" height="61"/>
<path d="M45.8398 10.0859V21.043H50.7812V26.6719H45.8398V38.7461H38.9219V10.0859L45.8398 10.0859ZM47 43.6875V49.1875H19.5V35.6953H26.418V43.6875H47ZM25.1719 12.4492C31.3594 12.4492 36.3008 16.7461 36.3008 22.7617C36.3008 28.6055 31.3594 33.0312 25.1719 33.0312C18.9844 33.0312 14 28.6055 14 22.7617C14 16.7461 18.9844 12.4492 25.1719 12.4492ZM25.1719 18.4219C22.7656 18.4219 20.7461 19.8398 20.7461 22.7617C20.7461 25.5547 22.7656 27.0156 25.1719 27.0156C27.6641 27.0156 29.5547 25.5547 29.5977 22.7617C29.5547 19.8398 27.6641 18.4219 25.1719 18.4219ZM85.8867 10V33.5898H79.0117V24.8242L74.0273 24.8242V19.2812L79.0117 19.2812V10H85.8867ZM72.0508 34.2344C80.6875 34.2344 85.9727 37.1133 85.9727 42.0547C85.9727 46.9531 80.6875 49.875 72.0508 49.875C63.5 49.875 58.2148 46.9531 58.2148 42.0547C58.2148 37.1133 63.5 34.2344 72.0508 34.2344ZM72.0508 39.4336C67.3242 39.4336 65.0469 40.1641 65.0898 42.0547C65.0469 43.9023 67.3242 44.6758 72.0508 44.6758C76.8203 44.6758 79.1406 43.9023 79.1406 42.0547C79.1406 40.1641 76.8203 39.4336 72.0508 39.4336ZM75.1016 12.1055V17.6055H67.9258C68.334 21.5801 70.6543 25.5762 76.5195 27.4883L73.2109 32.8594C68.957 31.5488 66.1426 28.9707 64.4023 25.7695C62.6836 29.4219 59.6973 32.3652 55.1211 33.8477L51.5547 28.3906C57.8926 26.3711 60.2773 21.8594 60.707 17.6055H53.4883V12.1055H75.1016ZM113.129 11.9336V17.3477H105.91C106.254 21.3652 108.553 25.4902 114.547 27.4453L111.238 32.7305C106.963 31.4629 104.127 28.9062 102.43 25.6836C100.668 29.25 97.7031 32.1074 93.1484 33.4609L89.625 28.0469C96.0273 26.1348 98.3691 21.5801 98.7773 17.3477H91.5156V11.9336L113.129 11.9336ZM123.914 35.1367V49.7461H117.039V40.5938H96.2852V35.1367H123.914ZM123.914 10V33.6328H117.039V24.6094H112.098V19.0234H117.039V10H123.914ZM161.641 10.0859V38.3164H154.723V10.0859H161.641ZM162.586 43.6875V49.1875L134.441 49.1875V35.4805L141.402 35.4805V43.6875H162.586ZM139.684 12.4492C145.871 12.4492 150.812 16.7461 150.812 22.6328C150.812 28.6484 145.871 32.9023 139.684 32.9023C133.496 32.9023 128.512 28.6484 128.555 22.6328C128.512 16.7461 133.496 12.4492 139.684 12.4492ZM139.684 18.4219C137.148 18.4219 135.258 19.8398 135.258 22.6328C135.258 25.5547 137.148 26.9297 139.684 26.9297C142.09 26.9297 143.98 25.5547 143.98 22.6328C143.98 19.8398 142.09 18.4219 139.684 18.4219ZM191.418 16.4023C191.418 21.3008 193.352 26.3281 200.055 28.4766L196.316 33.8047C192.32 32.3867 189.678 29.8301 188.066 26.543C186.369 30.3027 183.469 33.2246 179 34.75L175.305 29.3789C182.352 27.2305 184.414 21.8594 184.414 16.4453V12.4922H191.418V16.4023ZM209.551 10.0859V39.1758H202.676V23.4492H196.145V17.9492H202.676V10.0859H209.551ZM210.367 43.6875V49.1875H182.609V36.2969H189.613V43.6875H210.367ZM230.777 12.5352V17.9922H221.496V20.1836H230.434V25.3398H221.496V27.6172C225.105 27.5312 228.07 27.3594 231.379 26.8437L232.023 32.3437C227.383 33.1172 223.43 33.2031 217.758 33.2031H214.922V12.5352H230.777ZM248.137 10.0859V34.3633H241.605V24.8242H239.543V34.1055H233.141V10.7305L239.543 10.7305V19.3672H241.605V10.0859H248.137ZM248.137 35.7812V49.7461H241.262V41.2383H220.25V35.7812H248.137ZM269.922 10.5156C279.246 10.5156 284.574 12.8789 284.617 17.2187C284.574 21.6016 279.246 23.9648 269.922 23.9648C260.555 23.9648 255.141 21.6016 255.184 17.2187C255.141 12.8789 260.555 10.5156 269.922 10.5156ZM269.922 15.5C264.551 15.5 262.402 16.0156 262.402 17.2187C262.402 18.6797 264.551 18.9375 269.922 18.9805C275.336 18.9375 277.484 18.6797 277.484 17.2187C277.484 16.0156 275.336 15.5 269.922 15.5ZM288.055 25.2969V30.7539H251.789V25.2969H288.055ZM283.758 32.2578V43.2148H262.574V44.5039H284.703V49.5742H255.828V38.4883H276.969V37.2852H255.871V32.2578H283.758ZM331.109 10V25.082L336.48 25.082V30.7109H331.109V49.7461H324.277V10H331.109ZM322.344 15.6719V21.1289H299.184V15.6719H307.391V10.7305H314.266V15.6719H322.344ZM310.828 22.6758C316.715 22.6758 321.227 26.7148 321.227 32.3437C321.227 38.0156 316.715 42.0547 310.828 42.0547C304.812 42.0547 300.387 38.0156 300.387 32.3437C300.387 26.7148 304.812 22.6758 310.828 22.6758ZM310.828 28.2187C308.594 28.2187 306.961 29.6797 307.004 32.3437C306.961 35.1367 308.594 36.4687 310.828 36.4687C313.02 36.4687 314.609 35.1367 314.609 32.3437C314.609 29.6797 313.02 28.2187 310.828 28.2187ZM369.781 20.0977V25.4258H341.68V11.418H348.555V20.0977H369.781ZM373.691 28.9492V34.2773H337.426V28.9492H373.691ZM370.039 43.4727V48.9727H341.207V37.0273H348.168V43.4727H370.039Z"/>
</mask>
<path d="M45.8398 10.0859V21.043H50.7812V26.6719H45.8398V38.7461H38.9219V10.0859L45.8398 10.0859ZM47 43.6875V49.1875H19.5V35.6953H26.418V43.6875H47ZM25.1719 12.4492C31.3594 12.4492 36.3008 16.7461 36.3008 22.7617C36.3008 28.6055 31.3594 33.0312 25.1719 33.0312C18.9844 33.0312 14 28.6055 14 22.7617C14 16.7461 18.9844 12.4492 25.1719 12.4492ZM25.1719 18.4219C22.7656 18.4219 20.7461 19.8398 20.7461 22.7617C20.7461 25.5547 22.7656 27.0156 25.1719 27.0156C27.6641 27.0156 29.5547 25.5547 29.5977 22.7617C29.5547 19.8398 27.6641 18.4219 25.1719 18.4219ZM85.8867 10V33.5898H79.0117V24.8242L74.0273 24.8242V19.2812L79.0117 19.2812V10H85.8867ZM72.0508 34.2344C80.6875 34.2344 85.9727 37.1133 85.9727 42.0547C85.9727 46.9531 80.6875 49.875 72.0508 49.875C63.5 49.875 58.2148 46.9531 58.2148 42.0547C58.2148 37.1133 63.5 34.2344 72.0508 34.2344ZM72.0508 39.4336C67.3242 39.4336 65.0469 40.1641 65.0898 42.0547C65.0469 43.9023 67.3242 44.6758 72.0508 44.6758C76.8203 44.6758 79.1406 43.9023 79.1406 42.0547C79.1406 40.1641 76.8203 39.4336 72.0508 39.4336ZM75.1016 12.1055V17.6055H67.9258C68.334 21.5801 70.6543 25.5762 76.5195 27.4883L73.2109 32.8594C68.957 31.5488 66.1426 28.9707 64.4023 25.7695C62.6836 29.4219 59.6973 32.3652 55.1211 33.8477L51.5547 28.3906C57.8926 26.3711 60.2773 21.8594 60.707 17.6055H53.4883V12.1055H75.1016ZM113.129 11.9336V17.3477H105.91C106.254 21.3652 108.553 25.4902 114.547 27.4453L111.238 32.7305C106.963 31.4629 104.127 28.9062 102.43 25.6836C100.668 29.25 97.7031 32.1074 93.1484 33.4609L89.625 28.0469C96.0273 26.1348 98.3691 21.5801 98.7773 17.3477H91.5156V11.9336L113.129 11.9336ZM123.914 35.1367V49.7461H117.039V40.5938H96.2852V35.1367H123.914ZM123.914 10V33.6328H117.039V24.6094H112.098V19.0234H117.039V10H123.914ZM161.641 10.0859V38.3164H154.723V10.0859H161.641ZM162.586 43.6875V49.1875L134.441 49.1875V35.4805L141.402 35.4805V43.6875H162.586ZM139.684 12.4492C145.871 12.4492 150.812 16.7461 150.812 22.6328C150.812 28.6484 145.871 32.9023 139.684 32.9023C133.496 32.9023 128.512 28.6484 128.555 22.6328C128.512 16.7461 133.496 12.4492 139.684 12.4492ZM139.684 18.4219C137.148 18.4219 135.258 19.8398 135.258 22.6328C135.258 25.5547 137.148 26.9297 139.684 26.9297C142.09 26.9297 143.98 25.5547 143.98 22.6328C143.98 19.8398 142.09 18.4219 139.684 18.4219ZM191.418 16.4023C191.418 21.3008 193.352 26.3281 200.055 28.4766L196.316 33.8047C192.32 32.3867 189.678 29.8301 188.066 26.543C186.369 30.3027 183.469 33.2246 179 34.75L175.305 29.3789C182.352 27.2305 184.414 21.8594 184.414 16.4453V12.4922H191.418V16.4023ZM209.551 10.0859V39.1758H202.676V23.4492H196.145V17.9492H202.676V10.0859H209.551ZM210.367 43.6875V49.1875H182.609V36.2969H189.613V43.6875H210.367ZM230.777 12.5352V17.9922H221.496V20.1836H230.434V25.3398H221.496V27.6172C225.105 27.5312 228.07 27.3594 231.379 26.8437L232.023 32.3437C227.383 33.1172 223.43 33.2031 217.758 33.2031H214.922V12.5352H230.777ZM248.137 10.0859V34.3633H241.605V24.8242H239.543V34.1055H233.141V10.7305L239.543 10.7305V19.3672H241.605V10.0859H248.137ZM248.137 35.7812V49.7461H241.262V41.2383H220.25V35.7812H248.137ZM269.922 10.5156C279.246 10.5156 284.574 12.8789 284.617 17.2187C284.574 21.6016 279.246 23.9648 269.922 23.9648C260.555 23.9648 255.141 21.6016 255.184 17.2187C255.141 12.8789 260.555 10.5156 269.922 10.5156ZM269.922 15.5C264.551 15.5 262.402 16.0156 262.402 17.2187C262.402 18.6797 264.551 18.9375 269.922 18.9805C275.336 18.9375 277.484 18.6797 277.484 17.2187C277.484 16.0156 275.336 15.5 269.922 15.5ZM288.055 25.2969V30.7539H251.789V25.2969H288.055ZM283.758 32.2578V43.2148H262.574V44.5039H284.703V49.5742H255.828V38.4883H276.969V37.2852H255.871V32.2578H283.758ZM331.109 10V25.082L336.48 25.082V30.7109H331.109V49.7461H324.277V10H331.109ZM322.344 15.6719V21.1289H299.184V15.6719H307.391V10.7305H314.266V15.6719H322.344ZM310.828 22.6758C316.715 22.6758 321.227 26.7148 321.227 32.3437C321.227 38.0156 316.715 42.0547 310.828 42.0547C304.812 42.0547 300.387 38.0156 300.387 32.3437C300.387 26.7148 304.812 22.6758 310.828 22.6758ZM310.828 28.2187C308.594 28.2187 306.961 29.6797 307.004 32.3437C306.961 35.1367 308.594 36.4687 310.828 36.4687C313.02 36.4687 314.609 35.1367 314.609 32.3437C314.609 29.6797 313.02 28.2187 310.828 28.2187ZM369.781 20.0977V25.4258H341.68V11.418H348.555V20.0977H369.781ZM373.691 28.9492V34.2773H337.426V28.9492H373.691ZM370.039 43.4727V48.9727H341.207V37.0273H348.168V43.4727H370.039Z" fill="#11DCA9"/>
<path d="M45.8398 10.0859H55.8398C55.8398 4.56309 51.3627 0.0859375 45.8398 0.0859375V10.0859ZM45.8398 21.043H35.8398C35.8398 26.5658 40.317 31.043 45.8398 31.043V21.043ZM50.7812 21.043H60.7812C60.7812 15.5201 56.3041 11.043 50.7812 11.043V21.043ZM50.7812 26.6719V36.6719C56.3041 36.6719 60.7812 32.1947 60.7812 26.6719H50.7812ZM45.8398 26.6719V16.6719C40.317 16.6719 35.8398 21.149 35.8398 26.6719H45.8398ZM45.8398 38.7461V48.7461C51.3627 48.7461 55.8398 44.2689 55.8398 38.7461H45.8398ZM38.9219 38.7461H28.9219C28.9219 44.2689 33.399 48.7461 38.9219 48.7461V38.7461ZM38.9219 10.0859V0.0859375C33.399 0.0859375 28.9219 4.56309 28.9219 10.0859H38.9219ZM47 43.6875H57C57 38.1647 52.5228 33.6875 47 33.6875V43.6875ZM47 49.1875V59.1875C52.5228 59.1875 57 54.7103 57 49.1875H47ZM19.5 49.1875H9.5C9.5 54.7103 13.9772 59.1875 19.5 59.1875V49.1875ZM19.5 35.6953V25.6953C13.9772 25.6953 9.5 30.1725 9.5 35.6953H19.5ZM26.418 35.6953H36.418C36.418 30.1725 31.9408 25.6953 26.418 25.6953V35.6953ZM26.418 43.6875H16.418C16.418 49.2103 20.8951 53.6875 26.418 53.6875V43.6875ZM29.5977 22.7617L39.5965 22.9155C39.598 22.8153 39.598 22.715 39.5966 22.6147L29.5977 22.7617ZM45.8398 10.0859L35.8398 10.0859V21.043H45.8398H55.8398V10.0859H45.8398ZM45.8398 21.043V31.043H50.7812V21.043V11.043H45.8398V21.043ZM50.7812 21.043H40.7812V26.6719H50.7812H60.7812V21.043H50.7812ZM50.7812 26.6719V16.6719H45.8398V26.6719V36.6719H50.7812V26.6719ZM45.8398 26.6719H35.8398V38.7461H45.8398H55.8398V26.6719H45.8398ZM45.8398 38.7461V28.7461H38.9219V38.7461V48.7461H45.8398V38.7461ZM38.9219 38.7461H48.9219V10.0859L38.9219 10.0859H28.9219V38.7461H38.9219ZM38.9219 10.0859V20.0859H45.8398V10.0859V0.0859375H38.9219V10.0859ZM47 43.6875H37V49.1875H47H57V43.6875H47ZM47 49.1875V39.1875H19.5V49.1875V59.1875H47V49.1875ZM19.5 49.1875H29.5V35.6953H19.5H9.5L9.5 49.1875H19.5ZM19.5 35.6953V45.6953H26.418V35.6953V25.6953H19.5V35.6953ZM26.418 35.6953H16.418V43.6875H26.418H36.418V35.6953H26.418ZM26.418 43.6875V53.6875H47V43.6875V33.6875H26.418V43.6875ZM25.1719 12.4492V22.4492C25.9556 22.4492 26.2892 22.712 26.3299 22.749C26.3507 22.7679 26.3295 22.7534 26.3073 22.704C26.2818 22.6471 26.3008 22.6473 26.3008 22.7617H36.3008H46.3008C46.3008 10.3477 35.964 2.44922 25.1719 2.44922V12.4492ZM36.3008 22.7617H26.3008C26.3008 22.793 26.2984 22.7598 26.3223 22.7071C26.3421 22.6633 26.3518 22.6684 26.3083 22.7082C26.2214 22.7877 25.8765 23.0312 25.1719 23.0312V33.0312V43.0312C36.0215 43.0312 46.3008 34.9514 46.3008 22.7617H36.3008ZM25.1719 33.0312V23.0312C24.4629 23.0312 24.0975 22.7842 23.9943 22.6903C23.9443 22.6448 23.9531 22.6364 23.9741 22.6825C23.9995 22.7382 24 22.7798 24 22.7617H14H4C4 34.9991 14.3745 43.0312 25.1719 43.0312V33.0312ZM14 22.7617H24C24 22.6602 24.0163 22.6684 23.9892 22.7284C23.9658 22.7803 23.9454 22.7915 23.9727 22.7668C24.0298 22.7152 24.3841 22.4492 25.1719 22.4492V12.4492V2.44922C14.4322 2.44922 4 10.3002 4 22.7617H14ZM25.1719 18.4219V8.42188C22.0839 8.42188 18.4195 9.33618 15.3945 12.0385C12.195 14.8967 10.7461 18.8364 10.7461 22.7617H20.7461H30.7461C30.7461 23.7651 30.3069 25.535 28.7188 26.9537C27.3051 28.2166 25.8536 28.4219 25.1719 28.4219V18.4219ZM20.7461 22.7617H10.7461C10.7461 26.7511 12.2836 30.6354 15.4223 33.4184C18.3936 36.0529 22.0142 37.0156 25.1719 37.0156V27.0156V17.0156C25.9233 17.0156 27.331 17.2478 28.691 18.4537C30.2183 19.8079 30.7461 21.5653 30.7461 22.7617H20.7461ZM25.1719 27.0156V37.0156C28.3221 37.0156 31.998 36.0786 35.0124 33.3514C38.1512 30.5115 39.5388 26.6615 39.5965 22.9155L29.5977 22.7617L19.5988 22.6079C19.6135 21.6549 20.0343 19.9319 21.5941 18.5207C23.0293 17.2221 24.5138 17.0156 25.1719 17.0156V27.0156ZM29.5977 22.7617L39.5966 22.6147C39.5423 18.925 38.2332 15.0167 35.04 12.1058C31.9734 9.31044 28.2513 8.42188 25.1719 8.42188V18.4219V28.4219C24.5847 28.4219 23.0539 28.2423 21.5665 26.8864C19.9523 25.415 19.61 23.6766 19.5987 22.9088L29.5977 22.7617ZM85.8867 10H95.8867C95.8867 4.47715 91.4096 0 85.8867 0V10ZM85.8867 33.5898V43.5898C91.4096 43.5898 95.8867 39.1127 95.8867 33.5898H85.8867ZM79.0117 33.5898H69.0117C69.0117 39.1127 73.4889 43.5898 79.0117 43.5898V33.5898ZM79.0117 24.8242H89.0117C89.0117 19.3014 84.5346 14.8242 79.0117 14.8242V24.8242ZM74.0273 24.8242H64.0273C64.0273 30.3471 68.5045 34.8242 74.0273 34.8242V24.8242ZM74.0273 19.2812V9.28125C68.5045 9.28125 64.0273 13.7584 64.0273 19.2812H74.0273ZM79.0117 19.2812V29.2812C84.5346 29.2812 89.0117 24.8041 89.0117 19.2812H79.0117ZM79.0117 10V0C73.4889 0 69.0117 4.47715 69.0117 10H79.0117ZM65.0898 42.0547L75.0871 42.2872C75.0907 42.134 75.0907 41.9807 75.0873 41.8275L65.0898 42.0547ZM75.1016 12.1055H85.1016C85.1016 6.58262 80.6244 2.10547 75.1016 2.10547V12.1055ZM75.1016 17.6055V27.6055C80.6244 27.6055 85.1016 23.1283 85.1016 17.6055L75.1016 17.6055ZM67.9258 17.6055V7.60547C65.0958 7.60547 62.3984 8.80453 60.5023 10.9053C58.6062 13.0062 57.689 15.812 57.9781 18.6271L67.9258 17.6055ZM76.5195 27.4883L85.0338 32.7331C86.6414 30.1232 86.9633 26.9202 85.9072 24.0426C84.851 21.1651 82.5334 18.9308 79.6191 17.9808L76.5195 27.4883ZM73.2109 32.8594L70.2667 42.4161C74.6225 43.7581 79.3347 41.9848 81.7252 38.1041L73.2109 32.8594ZM64.4023 25.7695L73.188 20.9934C71.388 17.6822 67.8792 15.6643 64.1119 15.7738C60.3447 15.8832 56.9589 18.1014 55.3542 21.5116L64.4023 25.7695ZM55.1211 33.8477L46.7502 39.3184C49.2186 43.0953 53.9105 44.7514 58.2029 43.3609L55.1211 33.8477ZM51.5547 28.3906L48.5187 18.8626C45.5421 19.8111 43.1798 22.0961 42.1329 25.0394C41.086 27.9828 41.4748 31.2463 43.1838 33.8613L51.5547 28.3906ZM60.707 17.6055L70.6564 18.6105C70.9405 15.7977 70.0208 12.9962 68.1249 10.8991C66.229 8.80207 63.5341 7.60547 60.707 7.60547V17.6055ZM53.4883 17.6055H43.4883C43.4883 23.1283 47.9654 27.6055 53.4883 27.6055V17.6055ZM53.4883 12.1055V2.10547C47.9654 2.10547 43.4883 6.58262 43.4883 12.1055L53.4883 12.1055ZM85.8867 10H75.8867V33.5898H85.8867H95.8867V10H85.8867ZM85.8867 33.5898V23.5898H79.0117V33.5898V43.5898H85.8867V33.5898ZM79.0117 33.5898H89.0117V24.8242H79.0117L69.0117 24.8242V33.5898H79.0117ZM79.0117 24.8242V14.8242L74.0273 14.8242V24.8242V34.8242H79.0117V24.8242ZM74.0273 24.8242L84.0273 24.8242V19.2812L74.0273 19.2812H64.0273V24.8242H74.0273ZM74.0273 19.2812V29.2812H79.0117V19.2812V9.28125H74.0273V19.2812ZM79.0117 19.2812H89.0117V10H79.0117H69.0117V19.2812L79.0117 19.2812ZM79.0117 10V20H85.8867V10V0L79.0117 0V10ZM72.0508 34.2344V44.2344C73.6734 44.2344 74.9426 44.3712 75.8804 44.5616C76.8358 44.7555 77.2833 44.9714 77.3841 45.0275C77.468 45.0742 77.0667 44.8702 76.6407 44.2182C76.1722 43.5014 75.9727 42.6952 75.9727 42.0547H85.9727H95.9727C95.9727 35.2516 92.0192 30.2863 87.1169 27.5555C82.6473 25.0657 77.254 24.2344 72.0508 24.2344V34.2344ZM85.9727 42.0547H75.9727C75.9727 41.3866 76.1813 40.5745 76.6459 39.865C77.0675 39.2211 77.4602 39.0231 77.3692 39.074C77.2632 39.1333 76.8131 39.3506 75.862 39.5455C74.928 39.737 73.6645 39.875 72.0508 39.875V49.875V59.875C77.277 59.875 82.6687 59.0256 87.1318 56.5295C92.0003 53.8066 95.9727 48.8554 95.9727 42.0547H85.9727ZM72.0508 49.875V39.875C70.4644 39.875 69.2214 39.7379 68.303 39.5484C67.3676 39.3553 66.9261 39.1406 66.8242 39.0834C66.7371 39.0344 67.1272 39.2329 67.5456 39.8732C68.0065 40.5786 68.2148 41.387 68.2148 42.0547H58.2148H48.2148C48.2148 48.8478 52.1785 53.7955 57.0283 56.5201C61.4803 59.0212 66.8537 59.875 72.0508 59.875V49.875ZM58.2148 42.0547H68.2148C68.2148 42.6948 68.0156 43.4973 67.5508 44.2101C67.1281 44.8584 66.7293 45.063 66.8093 45.0182C66.9059 44.9642 67.3448 44.7509 68.2844 44.5588C69.2067 44.3702 70.4555 44.2344 72.0508 44.2344V34.2344V24.2344C66.8768 24.2344 61.5017 25.07 57.0432 27.5648C52.1596 30.2974 48.2148 35.2592 48.2148 42.0547H58.2148ZM72.0508 39.4336V29.4336C69.5253 29.4336 66.2751 29.5812 63.3713 30.6347C61.8139 31.1997 59.6373 32.2766 57.8428 34.4095C55.862 36.7637 55.0312 39.5902 55.0924 42.2819L65.0898 42.0547L75.0873 41.8275C75.127 43.5739 74.5648 45.6 73.1466 47.2856C71.9147 48.7498 70.5948 49.2896 70.1921 49.4356C69.7603 49.5923 69.6378 49.5641 70.0732 49.5155C70.465 49.4717 71.0999 49.4336 72.0508 49.4336V39.4336ZM65.0898 42.0547L55.0925 41.8222C55.0288 44.5629 55.8961 47.3821 57.862 49.7045C59.6394 51.8043 61.7867 52.8764 63.3328 53.4445C66.2345 54.5107 69.4786 54.6758 72.0508 54.6758V44.6758V34.6758C71.1164 34.6758 70.4924 34.6362 70.1108 34.5921C69.6874 34.5432 69.8064 34.5158 70.2307 34.6717C70.6219 34.8155 71.9126 35.3478 73.1274 36.7829C74.5306 38.4407 75.1294 40.4703 75.0871 42.2872L65.0898 42.0547ZM72.0508 44.6758V54.6758C74.6513 54.6758 77.8851 54.5082 80.7776 53.4648C82.3129 52.9109 84.4327 51.8732 86.2152 49.8449C88.1881 47.5998 89.1406 44.8269 89.1406 42.0547H79.1406H69.1406C69.1406 40.2063 69.8031 38.2229 71.1919 36.6426C72.3903 35.2789 73.6319 34.781 73.991 34.6514C74.385 34.5093 74.4757 34.5405 74.0367 34.5906C73.6376 34.6361 72.9976 34.6758 72.0508 34.6758V44.6758ZM79.1406 42.0547H89.1406C89.1406 39.3294 88.2249 36.547 86.2349 34.2689C84.4346 32.2078 82.2858 31.1656 80.7395 30.6148C77.8449 29.5839 74.6053 29.4336 72.0508 29.4336V39.4336V49.4336C73.014 49.4336 73.6647 49.4718 74.0738 49.5169C74.5246 49.5667 74.4305 49.5985 74.0291 49.4555C73.6591 49.3237 72.3884 48.8186 71.1722 47.4262C69.7663 45.8167 69.1406 43.8347 69.1406 42.0547H79.1406ZM75.1016 12.1055H65.1016V17.6055H75.1016L85.1016 17.6055V12.1055H75.1016ZM75.1016 17.6055V7.60547H67.9258V17.6055V27.6055H75.1016V17.6055ZM67.9258 17.6055L57.9781 18.6271C58.7696 26.334 63.606 33.7964 73.42 36.9958L76.5195 27.4883L79.6191 17.9808C78.9472 17.7617 78.5523 17.541 78.3423 17.3996C78.1383 17.2624 78.0596 17.1678 78.0369 17.1389C78.0146 17.1105 77.9147 16.9857 77.8735 16.5838L67.9258 17.6055ZM76.5195 27.4883L68.0053 22.2435L64.6967 27.6146L73.2109 32.8594L81.7252 38.1041L85.0338 32.7331L76.5195 27.4883ZM73.2109 32.8594L76.1552 23.3026C75.2267 23.0166 74.6461 22.6575 74.2589 22.3354C73.865 22.0078 73.5079 21.5818 73.188 20.9934L64.4023 25.7695L55.6166 30.5457C58.5494 35.9405 63.4073 40.3029 70.2667 42.4161L73.2109 32.8594ZM64.4023 25.7695L55.3542 21.5116C54.7509 22.7935 53.8515 23.7473 52.0393 24.3344L55.1211 33.8477L58.2029 43.3609C65.543 40.9831 70.6163 36.0503 73.4505 30.0275L64.4023 25.7695ZM55.1211 33.8477L63.492 28.3769L59.9255 22.9199L51.5547 28.3906L43.1838 33.8613L46.7502 39.3184L55.1211 33.8477ZM51.5547 28.3906L54.5907 37.9186C65.2473 34.523 69.8843 26.2539 70.6564 18.6105L60.707 17.6055L50.7577 16.6005C50.6912 17.2589 50.5078 17.6219 50.3626 17.8144C50.2728 17.9335 49.8895 18.4258 48.5187 18.8626L51.5547 28.3906ZM60.707 17.6055V7.60547H53.4883V17.6055V27.6055H60.707V17.6055ZM53.4883 17.6055H63.4883V12.1055H53.4883L43.4883 12.1055V17.6055H53.4883ZM53.4883 12.1055V22.1055H75.1016V12.1055V2.10547L53.4883 2.10547V12.1055ZM113.129 11.9336H123.129C123.129 6.41075 118.652 1.93359 113.129 1.93359V11.9336ZM113.129 17.3477V27.3477C118.652 27.3477 123.129 22.8705 123.129 17.3477H113.129ZM105.91 17.3477V7.34766C103.11 7.34766 100.438 8.52187 98.5438 10.5847C96.65 12.6475 95.7078 15.41 95.9466 18.2002L105.91 17.3477ZM114.547 27.4453L123.023 32.7515C124.656 30.1428 124.997 26.9274 123.947 24.0343C122.897 21.1411 120.574 18.8926 117.648 17.9382L114.547 27.4453ZM111.238 32.7305L108.396 42.318C112.702 43.5947 117.331 41.8437 119.714 38.0367L111.238 32.7305ZM102.43 25.6836L111.278 21.0237C109.526 17.6983 106.058 15.6357 102.3 15.6844C98.5419 15.7332 95.1285 17.885 93.4639 21.2547L102.43 25.6836ZM93.1484 33.4609L84.767 38.9155C87.1826 42.6273 91.7519 44.3082 95.997 43.0466L93.1484 33.4609ZM89.625 28.0469L86.7633 18.4651C83.7425 19.3673 81.324 21.6412 80.2375 24.6008C79.1511 27.5604 79.5239 30.859 81.2436 33.5014L89.625 28.0469ZM98.7773 17.3477L108.731 18.3077C109.002 15.5015 108.075 12.7115 106.18 10.6246C104.285 8.53762 101.597 7.34766 98.7773 7.34766V17.3477ZM91.5156 17.3477H81.5156C81.5156 22.8705 85.9928 27.3477 91.5156 27.3477V17.3477ZM91.5156 11.9336V1.93359C85.9928 1.93359 81.5156 6.41075 81.5156 11.9336H91.5156ZM123.914 35.1367H133.914C133.914 29.6139 129.437 25.1367 123.914 25.1367V35.1367ZM123.914 49.7461V59.7461C129.437 59.7461 133.914 55.2689 133.914 49.7461H123.914ZM117.039 49.7461H107.039C107.039 55.2689 111.516 59.7461 117.039 59.7461V49.7461ZM117.039 40.5938H127.039C127.039 35.0709 122.562 30.5938 117.039 30.5938V40.5938ZM96.2852 40.5938H86.2852C86.2852 46.1166 90.7623 50.5938 96.2852 50.5938V40.5938ZM96.2852 35.1367V25.1367C90.7623 25.1367 86.2852 29.6139 86.2852 35.1367H96.2852ZM123.914 10H133.914C133.914 4.47715 129.437 0 123.914 0V10ZM123.914 33.6328V43.6328C129.437 43.6328 133.914 39.1557 133.914 33.6328H123.914ZM117.039 33.6328H107.039C107.039 39.1557 111.516 43.6328 117.039 43.6328V33.6328ZM117.039 24.6094H127.039C127.039 19.0865 122.562 14.6094 117.039 14.6094V24.6094ZM112.098 24.6094H102.098C102.098 30.1322 106.575 34.6094 112.098 34.6094V24.6094ZM112.098 19.0234V9.02344C106.575 9.02344 102.098 13.5006 102.098 19.0234H112.098ZM117.039 19.0234V29.0234C122.562 29.0234 127.039 24.5463 127.039 19.0234H117.039ZM117.039 10V0C111.516 0 107.039 4.47715 107.039 10L117.039 10ZM113.129 11.9336L103.129 11.9336V17.3477H113.129H123.129V11.9336H113.129ZM113.129 17.3477V7.34766L105.91 7.34766V17.3477V27.3477H113.129V17.3477ZM105.91 17.3477L95.9466 18.2002C96.2554 21.8092 97.4747 25.7441 100.182 29.2653C102.922 32.8285 106.771 35.4276 111.446 36.9524L114.547 27.4453L117.648 17.9382C116.959 17.7137 116.558 17.4865 116.346 17.3422C116.14 17.2021 116.061 17.1052 116.037 17.0746C116.011 17.0401 115.909 16.9037 115.874 16.4952L105.91 17.3477ZM114.547 27.4453L106.071 22.1391L102.762 27.4243L111.238 32.7305L119.714 38.0367L123.023 32.7515L114.547 27.4453ZM111.238 32.7305L114.081 23.143C113.148 22.8663 112.585 22.5185 112.23 22.2254C111.871 21.9295 111.555 21.55 111.278 21.0237L102.43 25.6836L93.5818 30.3435C96.5181 35.9188 101.502 40.274 108.396 42.318L111.238 32.7305ZM102.43 25.6836L93.4639 21.2547C92.8387 22.5204 91.9855 23.3743 90.2999 23.8752L93.1484 33.4609L95.997 43.0466C103.421 40.8405 108.497 35.9796 111.395 30.1125L102.43 25.6836ZM93.1484 33.4609L101.53 28.0064L98.0064 22.5923L89.625 28.0469L81.2436 33.5014L84.767 38.9155L93.1484 33.4609ZM89.625 28.0469L92.4867 37.6287C97.5573 36.1143 101.609 33.3369 104.435 29.5854C107.195 25.9231 108.388 21.8708 108.731 18.3077L98.7773 17.3477L88.8235 16.3876C88.759 17.057 88.5764 17.3982 88.4625 17.5494C88.405 17.6258 88.3032 17.7403 88.0948 17.8813C87.881 18.026 87.4733 18.253 86.7633 18.4651L89.625 28.0469ZM98.7773 17.3477V7.34766H91.5156V17.3477V27.3477H98.7773V17.3477ZM91.5156 17.3477H101.516V11.9336H91.5156H81.5156V17.3477H91.5156ZM91.5156 11.9336V21.9336H113.129V11.9336V1.93359L91.5156 1.93359V11.9336ZM123.914 35.1367H113.914V49.7461H123.914H133.914V35.1367H123.914ZM123.914 49.7461V39.7461H117.039V49.7461V59.7461H123.914V49.7461ZM117.039 49.7461H127.039V40.5938H117.039H107.039V49.7461H117.039ZM117.039 40.5938V30.5938H96.2852V40.5938V50.5938H117.039V40.5938ZM96.2852 40.5938H106.285V35.1367H96.2852H86.2852V40.5938H96.2852ZM96.2852 35.1367V45.1367H123.914V35.1367V25.1367H96.2852V35.1367ZM123.914 10H113.914V33.6328H123.914H133.914V10H123.914ZM123.914 33.6328V23.6328H117.039V33.6328V43.6328H123.914V33.6328ZM117.039 33.6328H127.039V24.6094H117.039H107.039V33.6328H117.039ZM117.039 24.6094V14.6094H112.098V24.6094V34.6094H117.039V24.6094ZM112.098 24.6094H122.098V19.0234H112.098H102.098V24.6094H112.098ZM112.098 19.0234V29.0234H117.039V19.0234V9.02344H112.098V19.0234ZM117.039 19.0234H127.039V10H117.039L107.039 10V19.0234H117.039ZM117.039 10V20H123.914V10V0L117.039 0V10ZM161.641 10.0859H171.641C171.641 4.56309 167.163 0.0859375 161.641 0.0859375V10.0859ZM161.641 38.3164V48.3164C167.163 48.3164 171.641 43.8393 171.641 38.3164H161.641ZM154.723 38.3164H144.723C144.723 43.8393 149.2 48.3164 154.723 48.3164V38.3164ZM154.723 10.0859V0.0859375C149.2 0.0859375 144.723 4.56309 144.723 10.0859H154.723ZM162.586 43.6875H172.586C172.586 38.1647 168.109 33.6875 162.586 33.6875V43.6875ZM162.586 49.1875V59.1875C168.109 59.1875 172.586 54.7103 172.586 49.1875H162.586ZM134.441 49.1875H124.441C124.441 54.7103 128.919 59.1875 134.441 59.1875V49.1875ZM134.441 35.4805V25.4805C128.919 25.4805 124.441 29.9576 124.441 35.4805H134.441ZM141.402 35.4805H151.402C151.402 29.9576 146.925 25.4805 141.402 25.4805V35.4805ZM141.402 43.6875L131.402 43.6875C131.402 49.2103 135.879 53.6875 141.402 53.6875V43.6875ZM128.555 22.6328L138.554 22.7042C138.555 22.6561 138.555 22.608 138.554 22.5598L128.555 22.6328ZM161.641 10.0859H151.641V38.3164H161.641H171.641V10.0859H161.641ZM161.641 38.3164V28.3164H154.723V38.3164V48.3164H161.641V38.3164ZM154.723 38.3164H164.723V10.0859H154.723H144.723V38.3164H154.723ZM154.723 10.0859V20.0859H161.641V10.0859V0.0859375H154.723V10.0859ZM162.586 43.6875H152.586V49.1875H162.586H172.586V43.6875H162.586ZM162.586 49.1875V39.1875L134.441 39.1875V49.1875V59.1875L162.586 59.1875V49.1875ZM134.441 49.1875L144.441 49.1875V35.4805L134.441 35.4805H124.441V49.1875H134.441ZM134.441 35.4805V45.4805L141.402 45.4805V35.4805V25.4805H134.441V35.4805ZM141.402 35.4805L131.402 35.4805V43.6875L141.402 43.6875H151.402V35.4805H141.402ZM141.402 43.6875V53.6875H162.586V43.6875V33.6875H141.402V43.6875ZM139.684 12.4492V22.4492C140.47 22.4492 140.821 22.7145 140.874 22.7625C140.9 22.7856 140.873 22.7678 140.842 22.6996C140.807 22.6226 140.812 22.582 140.812 22.6328H150.812H160.812C160.812 10.2688 150.389 2.44922 139.684 2.44922V12.4492ZM150.812 22.6328H140.812C140.812 22.7467 140.794 22.7399 140.824 22.6728C140.851 22.6131 140.879 22.5906 140.863 22.6043C140.833 22.6322 140.495 22.9023 139.684 22.9023V32.9023V42.9023C150.418 42.9023 160.812 35.0994 160.812 22.6328H150.812ZM139.684 32.9023V22.9023C138.865 22.9023 138.514 22.6277 138.478 22.5954C138.463 22.5816 138.497 22.6101 138.531 22.6851C138.568 22.7686 138.554 22.7961 138.554 22.7042L128.555 22.6328L118.555 22.5614C118.465 35.147 129.022 42.9023 139.684 42.9023V32.9023ZM128.555 22.6328L138.554 22.5598C138.554 22.5318 138.555 22.5937 138.513 22.6872C138.475 22.7708 138.441 22.7945 138.467 22.7714C138.525 22.7191 138.891 22.4492 139.684 22.4492V12.4492V2.44922C129.053 2.44922 118.464 10.2208 118.555 22.7058L128.555 22.6328ZM139.684 18.4219V8.42187C136.634 8.42187 132.934 9.281 129.867 12.0143C126.63 14.899 125.258 18.8404 125.258 22.6328H135.258H145.258C145.258 23.6323 144.831 25.4682 143.173 26.9457C141.685 28.2717 140.198 28.4219 139.684 28.4219V18.4219ZM135.258 22.6328H125.258C125.258 26.3614 126.546 30.361 129.839 33.3174C132.958 36.1181 136.706 36.9297 139.684 36.9297V26.9297V16.9297C140.126 16.9297 141.661 17.0538 143.201 18.4365C144.915 19.9749 145.258 21.8261 145.258 22.6328H135.258ZM139.684 26.9297V36.9297C142.715 36.9297 146.431 36.0539 149.492 33.2485C152.698 30.3089 153.98 26.3568 153.98 22.6328H143.98H133.98C133.98 21.8307 134.317 20.027 135.977 18.5054C137.491 17.118 139.058 16.9297 139.684 16.9297V26.9297ZM143.98 22.6328H153.98C153.98 18.8465 152.616 14.9508 149.464 12.0829C146.456 9.347 142.788 8.42187 139.684 8.42187V18.4219V28.4219C138.986 28.4219 137.466 28.2057 136.005 26.8771C134.399 25.4164 133.98 23.6261 133.98 22.6328H143.98ZM200.055 28.4766L208.241 34.22C210.067 31.6177 210.546 28.3022 209.533 25.2891C208.52 22.2759 206.134 19.924 203.107 18.9537L200.055 28.4766ZM196.316 33.8047L192.972 43.229C197.206 44.7313 201.922 43.2258 204.503 39.5482L196.316 33.8047ZM188.066 26.543L197.046 22.1414C195.341 18.6634 191.781 16.4828 187.908 16.5442C184.035 16.6057 180.546 18.8982 178.952 22.4285L188.066 26.543ZM179 34.75L170.762 40.4181C173.302 44.1105 177.989 45.6617 182.23 44.2138L179 34.75ZM175.305 29.3789L172.388 19.8136C169.339 20.7433 166.916 23.0711 165.864 26.0806C164.813 29.0901 165.259 32.4206 167.066 35.047L175.305 29.3789ZM184.414 12.4922V2.49219C178.891 2.49219 174.414 6.96934 174.414 12.4922H184.414ZM191.418 12.4922H201.418C201.418 6.96934 196.941 2.49219 191.418 2.49219V12.4922ZM209.551 10.0859H219.551C219.551 4.56309 215.074 0.0859375 209.551 0.0859375V10.0859ZM209.551 39.1758V49.1758C215.074 49.1758 219.551 44.6986 219.551 39.1758H209.551ZM202.676 39.1758H192.676C192.676 44.6986 197.153 49.1758 202.676 49.1758V39.1758ZM202.676 23.4492L212.676 23.4492C212.676 17.9264 208.199 13.4492 202.676 13.4492V23.4492ZM196.145 23.4492H186.145C186.145 28.9721 190.622 33.4492 196.145 33.4492V23.4492ZM196.145 17.9492V7.94922C190.622 7.94922 186.145 12.4264 186.145 17.9492H196.145ZM202.676 17.9492V27.9492C208.199 27.9492 212.676 23.4721 212.676 17.9492L202.676 17.9492ZM202.676 10.0859V0.0859375C197.153 0.0859375 192.676 4.56309 192.676 10.0859H202.676ZM210.367 43.6875H220.367C220.367 38.1647 215.89 33.6875 210.367 33.6875V43.6875ZM210.367 49.1875V59.1875C215.89 59.1875 220.367 54.7103 220.367 49.1875H210.367ZM182.609 49.1875H172.609C172.609 54.7103 177.087 59.1875 182.609 59.1875V49.1875ZM182.609 36.2969V26.2969C177.087 26.2969 172.609 30.774 172.609 36.2969H182.609ZM189.613 36.2969H199.613C199.613 30.774 195.136 26.2969 189.613 26.2969V36.2969ZM189.613 43.6875H179.613C179.613 49.2103 184.09 53.6875 189.613 53.6875V43.6875ZM191.418 16.4023H181.418C181.418 20.0894 182.137 24.5559 184.716 28.7284C187.408 33.0831 191.607 36.27 197.003 37.9994L200.055 28.4766L203.107 18.9537C202.386 18.7228 202.04 18.4957 201.909 18.3965C201.788 18.3049 201.751 18.2491 201.729 18.213C201.665 18.1101 201.418 17.6137 201.418 16.4023H191.418ZM200.055 28.4766L191.869 22.7331L188.13 28.0612L196.316 33.8047L204.503 39.5482L208.241 34.22L200.055 28.4766ZM196.316 33.8047L199.661 24.3804C198.202 23.8629 197.542 23.155 197.046 22.1414L188.066 26.543L179.087 30.9445C181.813 36.5052 186.439 40.9106 192.972 43.229L196.316 33.8047ZM188.066 26.543L178.952 22.4285C178.324 23.8199 177.469 24.7062 175.77 25.2862L179 34.75L182.23 44.2138C189.469 41.7431 194.414 36.7856 197.181 30.6574L188.066 26.543ZM179 34.75L187.238 29.0819L183.543 23.7108L175.305 29.3789L167.066 35.047L170.762 40.4181L179 34.75ZM175.305 29.3789L178.221 38.9442C183.882 37.2182 188.257 33.9022 191.038 29.3464C193.687 25.006 194.414 20.3272 194.414 16.4453H184.414H174.414C174.414 17.9775 174.11 18.6912 173.966 18.9271C173.909 19.0213 173.838 19.1096 173.692 19.2195C173.536 19.3369 173.158 19.5791 172.388 19.8136L175.305 29.3789ZM184.414 16.4453H194.414V12.4922H184.414H174.414V16.4453H184.414ZM184.414 12.4922V22.4922H191.418V12.4922V2.49219L184.414 2.49219V12.4922ZM191.418 12.4922H181.418V16.4023H191.418H201.418V12.4922H191.418ZM209.551 10.0859H199.551V39.1758H209.551H219.551V10.0859H209.551ZM209.551 39.1758V29.1758H202.676V39.1758V49.1758H209.551V39.1758ZM202.676 39.1758H212.676V23.4492L202.676 23.4492H192.676V39.1758H202.676ZM202.676 23.4492V13.4492H196.145V23.4492V33.4492H202.676V23.4492ZM196.145 23.4492L206.145 23.4492V17.9492L196.145 17.9492H186.145V23.4492H196.145ZM196.145 17.9492V27.9492H202.676V17.9492V7.94922H196.145V17.9492ZM202.676 17.9492L212.676 17.9492V10.0859H202.676H192.676V17.9492H202.676ZM202.676 10.0859V20.0859L209.551 20.0859V10.0859V0.0859375H202.676V10.0859ZM210.367 43.6875H200.367V49.1875H210.367H220.367V43.6875H210.367ZM210.367 49.1875V39.1875H182.609V49.1875V59.1875H210.367V49.1875ZM182.609 49.1875H192.609V36.2969H182.609H172.609V49.1875H182.609ZM182.609 36.2969V46.2969H189.613V36.2969V26.2969H182.609V36.2969ZM189.613 36.2969H179.613V43.6875H189.613H199.613V36.2969H189.613ZM189.613 43.6875V53.6875H210.367V43.6875V33.6875H189.613V43.6875ZM230.777 12.5352H240.777C240.777 7.01231 236.3 2.53516 230.777 2.53516V12.5352ZM230.777 17.9922V27.9922C236.3 27.9922 240.777 23.515 240.777 17.9922H230.777ZM221.496 17.9922V7.99219C215.973 7.99219 211.496 12.4693 211.496 17.9922H221.496ZM221.496 20.1836H211.496C211.496 25.7064 215.973 30.1836 221.496 30.1836V20.1836ZM230.434 20.1836H240.434C240.434 14.6607 235.956 10.1836 230.434 10.1836V20.1836ZM230.434 25.3398V35.3398C235.956 35.3398 240.434 30.8627 240.434 25.3398H230.434ZM221.496 25.3398V15.3398C215.973 15.3398 211.496 19.817 211.496 25.3398H221.496ZM221.496 27.6172H211.496C211.496 30.3106 212.583 32.8902 214.51 34.7719C216.437 36.6537 219.041 37.6785 221.734 37.6144L221.496 27.6172ZM231.379 26.8437L241.311 25.6798C240.995 22.9803 239.593 20.5259 237.429 18.8815C235.265 17.2371 232.525 16.5445 229.839 16.963L231.379 26.8437ZM232.023 32.3437L233.667 42.2077C238.929 41.3307 242.576 36.478 241.955 31.1798L232.023 32.3437ZM214.922 33.2031H204.922C204.922 38.726 209.399 43.2031 214.922 43.2031V33.2031ZM214.922 12.5352V2.53516C209.399 2.53516 204.922 7.01231 204.922 12.5352L214.922 12.5352ZM248.137 10.0859H258.137C258.137 4.56309 253.66 0.0859375 248.137 0.0859375V10.0859ZM248.137 34.3633V44.3633C253.66 44.3633 258.137 39.8861 258.137 34.3633H248.137ZM241.605 34.3633H231.605C231.605 39.8861 236.083 44.3633 241.605 44.3633V34.3633ZM241.605 24.8242H251.605C251.605 19.3014 247.128 14.8242 241.605 14.8242V24.8242ZM239.543 24.8242V14.8242C234.02 14.8242 229.543 19.3014 229.543 24.8242H239.543ZM239.543 34.1055V44.1055C245.066 44.1055 249.543 39.6283 249.543 34.1055H239.543ZM233.141 34.1055H223.141C223.141 39.6283 227.618 44.1055 233.141 44.1055V34.1055ZM233.141 10.7305V0.730469C227.618 0.730469 223.141 5.20762 223.141 10.7305H233.141ZM239.543 10.7305H249.543C249.543 5.20762 245.066 0.730469 239.543 0.730469V10.7305ZM239.543 19.3672H229.543C229.543 24.89 234.02 29.3672 239.543 29.3672V19.3672ZM241.605 19.3672V29.3672C247.128 29.3672 251.605 24.89 251.605 19.3672H241.605ZM241.605 10.0859V0.0859375C236.083 0.0859375 231.605 4.56309 231.605 10.0859L241.605 10.0859ZM248.137 35.7812H258.137C258.137 30.2584 253.66 25.7812 248.137 25.7812V35.7812ZM248.137 49.7461V59.7461C253.66 59.7461 258.137 55.2689 258.137 49.7461H248.137ZM241.262 49.7461H231.262C231.262 55.2689 235.739 59.7461 241.262 59.7461V49.7461ZM241.262 41.2383H251.262C251.262 35.7154 246.785 31.2383 241.262 31.2383V41.2383ZM220.25 41.2383H210.25C210.25 46.7611 214.727 51.2383 220.25 51.2383V41.2383ZM220.25 35.7812V25.7812C214.727 25.7812 210.25 30.2584 210.25 35.7812H220.25ZM230.777 12.5352H220.777V17.9922H230.777H240.777V12.5352H230.777ZM230.777 17.9922V7.99219H221.496V17.9922V27.9922H230.777V17.9922ZM221.496 17.9922H211.496V20.1836H221.496H231.496V17.9922H221.496ZM221.496 20.1836V30.1836H230.434V20.1836V10.1836H221.496V20.1836ZM230.434 20.1836H220.434V25.3398H230.434H240.434V20.1836H230.434ZM230.434 25.3398V15.3398H221.496V25.3398V35.3398H230.434V25.3398ZM221.496 25.3398H211.496V27.6172H221.496H231.496V25.3398H221.496ZM221.496 27.6172L221.734 37.6144C225.544 37.5237 228.996 37.3358 232.919 36.7245L231.379 26.8437L229.839 16.963C227.144 17.383 224.667 17.5389 221.258 17.62L221.496 27.6172ZM231.379 26.8437L221.447 28.0077L222.091 33.5077L232.023 32.3437L241.955 31.1798L241.311 25.6798L231.379 26.8437ZM232.023 32.3437L230.379 22.4798C226.612 23.1077 223.366 23.2031 217.758 23.2031V33.2031V43.2031C223.493 43.2031 228.153 43.1267 233.667 42.2077L232.023 32.3437ZM217.758 33.2031V23.2031H214.922V33.2031V43.2031H217.758V33.2031ZM214.922 33.2031H224.922V12.5352H214.922L204.922 12.5352V33.2031H214.922ZM214.922 12.5352V22.5352H230.777V12.5352V2.53516L214.922 2.53516V12.5352ZM248.137 10.0859H238.137V34.3633H248.137H258.137V10.0859H248.137ZM248.137 34.3633V24.3633H241.605V34.3633V44.3633H248.137V34.3633ZM241.605 34.3633H251.605V24.8242H241.605H231.605V34.3633H241.605ZM241.605 24.8242V14.8242H239.543V24.8242V34.8242H241.605V24.8242ZM239.543 24.8242H229.543V34.1055H239.543H249.543V24.8242H239.543ZM239.543 34.1055V24.1055H233.141V34.1055V44.1055H239.543V34.1055ZM233.141 34.1055H243.141V10.7305L233.141 10.7305H223.141V34.1055H233.141ZM233.141 10.7305V20.7305H239.543V10.7305V0.730469H233.141V10.7305ZM239.543 10.7305L229.543 10.7305V19.3672H239.543H249.543V10.7305H239.543ZM239.543 19.3672V29.3672H241.605V19.3672V9.36719H239.543V19.3672ZM241.605 19.3672H251.605V10.0859H241.605L231.605 10.0859V19.3672H241.605ZM241.605 10.0859V20.0859H248.137V10.0859V0.0859375L241.605 0.0859375V10.0859ZM248.137 35.7812H238.137V49.7461H248.137H258.137V35.7812H248.137ZM248.137 49.7461V39.7461H241.262V49.7461V59.7461H248.137V49.7461ZM241.262 49.7461H251.262V41.2383H241.262H231.262V49.7461H241.262ZM241.262 41.2383V31.2383H220.25V41.2383V51.2383H241.262V41.2383ZM220.25 41.2383H230.25V35.7812H220.25H210.25V41.2383H220.25ZM220.25 35.7812V45.7812H248.137V35.7812V25.7812H220.25V35.7812ZM284.617 17.2187L294.617 17.3168C294.617 17.2511 294.617 17.1854 294.617 17.1197L284.617 17.2187ZM255.184 17.2187L265.183 17.3168C265.184 17.2511 265.184 17.1854 265.183 17.1197L255.184 17.2187ZM269.922 18.9805L269.842 28.9801C269.895 28.9806 269.948 28.9806 270.001 28.9802L269.922 18.9805ZM288.055 25.2969H298.055C298.055 19.774 293.578 15.2969 288.055 15.2969V25.2969ZM288.055 30.7539V40.7539C293.578 40.7539 298.055 36.2768 298.055 30.7539H288.055ZM251.789 30.7539H241.789C241.789 36.2768 246.266 40.7539 251.789 40.7539V30.7539ZM251.789 25.2969V15.2969C246.266 15.2969 241.789 19.774 241.789 25.2969H251.789ZM283.758 32.2578H293.758C293.758 26.735 289.281 22.2578 283.758 22.2578V32.2578ZM283.758 43.2148V53.2148C289.281 53.2148 293.758 48.7377 293.758 43.2148H283.758ZM262.574 43.2148V33.2148C257.051 33.2148 252.574 37.692 252.574 43.2148H262.574ZM262.574 44.5039H252.574C252.574 50.0268 257.051 54.5039 262.574 54.5039V44.5039ZM284.703 44.5039H294.703C294.703 38.9811 290.226 34.5039 284.703 34.5039V44.5039ZM284.703 49.5742V59.5742C290.226 59.5742 294.703 55.0971 294.703 49.5742H284.703ZM255.828 49.5742H245.828C245.828 55.0971 250.305 59.5742 255.828 59.5742V49.5742ZM255.828 38.4883V28.4883C250.305 28.4883 245.828 32.9654 245.828 38.4883H255.828ZM276.969 38.4883V48.4883C282.492 48.4883 286.969 44.0111 286.969 38.4883H276.969ZM276.969 37.2852H286.969C286.969 31.7623 282.492 27.2852 276.969 27.2852V37.2852ZM255.871 37.2852H245.871C245.871 42.808 250.348 47.2852 255.871 47.2852V37.2852ZM255.871 32.2578V22.2578C250.348 22.2578 245.871 26.735 245.871 32.2578H255.871ZM269.922 10.5156V20.5156C271.85 20.5156 273.389 20.6392 274.568 20.8275C275.773 21.02 276.403 21.249 276.625 21.3494C276.856 21.4538 276.347 21.2804 275.74 20.505C275.032 19.6003 274.629 18.4288 274.618 17.3178L284.617 17.2187L294.617 17.1197C294.544 9.78613 289.594 5.26676 284.875 3.13007C280.487 1.14355 275.175 0.515625 269.922 0.515625V10.5156ZM284.617 17.2187L274.618 17.1207C274.628 16.0441 275.016 14.8886 275.719 13.985C276.322 13.2084 276.832 13.0316 276.609 13.133C276.393 13.2315 275.768 13.4603 274.565 13.6529C273.388 13.8412 271.851 13.9648 269.922 13.9648V23.9648V33.9648C275.172 33.9648 280.494 33.3378 284.891 31.3377C289.645 29.1749 294.545 24.6299 294.617 17.3168L284.617 17.2187ZM269.922 23.9648V13.9648C267.98 13.9648 266.426 13.841 265.231 13.6512C264.009 13.4568 263.369 13.2253 263.143 13.1231C262.905 13.0155 263.437 13.1961 264.062 14.0048C264.796 14.9544 265.194 16.1768 265.183 17.3168L255.184 17.2187L245.184 17.1207C245.111 24.6082 250.167 29.2059 254.905 31.3476C259.311 33.3391 264.656 33.9648 269.922 33.9648V23.9648ZM255.184 17.2187L265.183 17.1197C265.195 18.2952 264.781 19.5344 264.04 20.4852C263.412 21.2927 262.881 21.4698 263.127 21.3593C263.358 21.2552 264.003 21.0234 265.228 20.8292C266.424 20.6394 267.981 20.5156 269.922 20.5156V10.5156V0.515625C264.654 0.515625 259.317 1.14229 254.921 3.12017C250.22 5.23532 245.11 9.80756 245.184 17.3178L255.184 17.2187ZM269.922 15.5V5.5C267.173 5.5 264.303 5.60872 261.896 6.16502C260.74 6.43215 258.697 7.01263 256.759 8.49003C254.385 10.3003 252.402 13.3361 252.402 17.2187H262.402H272.402C272.402 18.6243 272.071 20.1198 271.32 21.5217C270.592 22.8801 269.656 23.807 268.885 24.3952C268.138 24.9644 267.479 25.2695 267.11 25.4187C266.728 25.5729 266.466 25.636 266.4 25.6514C266.296 25.6754 266.495 25.623 267.181 25.5748C267.828 25.5294 268.721 25.5 269.922 25.5V15.5ZM262.402 17.2187H252.402C252.402 20.5239 253.84 23.706 256.542 25.8861C258.664 27.5992 260.948 28.1787 262.103 28.4201C264.459 28.9121 267.366 28.9603 269.842 28.9801L269.922 18.9805L270.002 8.98079C268.706 8.97042 267.752 8.94762 267.035 8.90785C266.266 8.86526 266.073 8.81754 266.193 8.84263C266.274 8.85961 266.592 8.92924 267.046 9.10871C267.493 9.2859 268.262 9.64408 269.102 10.3225C269.991 11.0393 270.901 12.0705 271.551 13.4499C272.198 14.8216 272.402 16.1475 272.402 17.2187H262.402ZM269.922 18.9805L270.001 28.9802C272.497 28.9603 275.413 28.912 277.769 28.4219C278.924 28.1817 281.21 27.6047 283.336 25.8933C286.044 23.7125 287.484 20.5264 287.484 17.2187H277.484H267.484C267.484 16.1476 267.689 14.8198 268.337 13.4457C268.989 12.0637 269.903 11.0318 270.793 10.3153C271.634 9.63745 272.403 9.28046 272.85 9.10441C273.302 8.92603 273.618 8.85723 273.697 8.84082C273.813 8.81682 273.613 8.86492 272.837 8.90766C272.113 8.94759 271.15 8.97041 269.842 8.98078L269.922 18.9805ZM277.484 17.2187H287.484C287.484 13.3329 285.499 10.294 283.118 8.48317C281.177 7.00718 279.132 6.42878 277.976 6.16284C275.567 5.60863 272.689 5.5 269.922 5.5V15.5V25.5C271.135 25.5 272.037 25.5295 272.692 25.5751C273.386 25.6235 273.591 25.6765 273.491 25.6536C273.427 25.6388 273.166 25.5764 272.786 25.4232C272.417 25.2749 271.758 24.9708 271.01 24.4021C270.237 23.8142 269.299 22.8868 268.569 21.5261C267.816 20.1218 267.484 18.6244 267.484 17.2187H277.484ZM288.055 25.2969H278.055V30.7539H288.055H298.055V25.2969H288.055ZM288.055 30.7539V20.7539H251.789V30.7539V40.7539H288.055V30.7539ZM251.789 30.7539H261.789V25.2969H251.789H241.789V30.7539H251.789ZM251.789 25.2969V35.2969H288.055V25.2969V15.2969H251.789V25.2969ZM283.758 32.2578H273.758V43.2148H283.758H293.758V32.2578H283.758ZM283.758 43.2148V33.2148H262.574V43.2148V53.2148H283.758V43.2148ZM262.574 43.2148H252.574V44.5039H262.574H272.574V43.2148H262.574ZM262.574 44.5039V54.5039H284.703V44.5039V34.5039H262.574V44.5039ZM284.703 44.5039H274.703V49.5742H284.703H294.703V44.5039H284.703ZM284.703 49.5742V39.5742H255.828V49.5742V59.5742H284.703V49.5742ZM255.828 49.5742H265.828V38.4883H255.828H245.828V49.5742H255.828ZM255.828 38.4883V48.4883H276.969V38.4883V28.4883H255.828V38.4883ZM276.969 38.4883H286.969V37.2852H276.969H266.969V38.4883H276.969ZM276.969 37.2852V27.2852H255.871V37.2852V47.2852H276.969V37.2852ZM255.871 37.2852H265.871V32.2578H255.871H245.871V37.2852H255.871ZM255.871 32.2578V42.2578H283.758V32.2578V22.2578H255.871V32.2578ZM331.109 10H341.109C341.109 4.47715 336.632 0 331.109 0V10ZM331.109 25.082H321.109C321.109 30.6049 325.587 35.082 331.109 35.082V25.082ZM336.48 25.082H346.48C346.48 19.5592 342.003 15.082 336.48 15.082V25.082ZM336.48 30.7109V40.7109C342.003 40.7109 346.48 36.2338 346.48 30.7109H336.48ZM331.109 30.7109V20.7109C325.587 20.7109 321.109 25.1881 321.109 30.7109H331.109ZM331.109 49.7461V59.7461C336.632 59.7461 341.109 55.2689 341.109 49.7461H331.109ZM324.277 49.7461H314.277C314.277 55.2689 318.754 59.7461 324.277 59.7461V49.7461ZM324.277 10V0C318.754 0 314.277 4.47715 314.277 10H324.277ZM322.344 15.6719H332.344C332.344 10.149 327.867 5.67187 322.344 5.67187V15.6719ZM322.344 21.1289V31.1289C327.867 31.1289 332.344 26.6518 332.344 21.1289H322.344ZM299.184 21.1289H289.184C289.184 26.6518 293.661 31.1289 299.184 31.1289V21.1289ZM299.184 15.6719V5.67187C293.661 5.67187 289.184 10.149 289.184 15.6719H299.184ZM307.391 15.6719V25.6719C312.913 25.6719 317.391 21.1947 317.391 15.6719H307.391ZM307.391 10.7305V0.730469C301.868 0.730469 297.391 5.20762 297.391 10.7305L307.391 10.7305ZM314.266 10.7305H324.266C324.266 5.20762 319.788 0.730469 314.266 0.730469V10.7305ZM314.266 15.6719H304.266C304.266 21.1947 308.743 25.6719 314.266 25.6719V15.6719ZM307.004 32.3437L317.003 32.4976C317.004 32.3926 317.004 32.2875 317.003 32.1825L307.004 32.3437ZM331.109 10H321.109V25.082H331.109L341.109 25.082V10H331.109ZM331.109 25.082V35.082H336.48V25.082V15.082L331.109 15.082V25.082ZM336.48 25.082L326.48 25.082V30.7109H336.48H346.48V25.082H336.48ZM336.48 30.7109V20.7109L331.109 20.7109V30.7109V40.7109H336.48V30.7109ZM331.109 30.7109H321.109V49.7461H331.109H341.109V30.7109H331.109ZM331.109 49.7461V39.7461H324.277V49.7461V59.7461H331.109V49.7461ZM324.277 49.7461H334.277V10H324.277H314.277V49.7461H324.277ZM324.277 10V20H331.109V10V0L324.277 0V10ZM322.344 15.6719H312.344V21.1289H322.344H332.344V15.6719H322.344ZM322.344 21.1289V11.1289L299.184 11.1289V21.1289V31.1289H322.344V21.1289ZM299.184 21.1289H309.184V15.6719H299.184H289.184V21.1289H299.184ZM299.184 15.6719V25.6719H307.391V15.6719V5.67187L299.184 5.67187V15.6719ZM307.391 15.6719H317.391V10.7305H307.391L297.391 10.7305V15.6719H307.391ZM307.391 10.7305V20.7305H314.266V10.7305V0.730469H307.391V10.7305ZM314.266 10.7305H304.266V15.6719H314.266H324.266V10.7305H314.266ZM314.266 15.6719V25.6719H322.344V15.6719V5.67187H314.266V15.6719ZM310.828 22.6758V32.6758C311.154 32.6758 311.353 32.7311 311.441 32.7641C311.53 32.7974 311.524 32.8128 311.467 32.7608C311.407 32.7055 311.331 32.6106 311.277 32.4862C311.22 32.3569 311.227 32.29 311.227 32.3437H321.227H331.227C331.227 20.4166 321.429 12.6758 310.828 12.6758V22.6758ZM321.227 32.3437H311.227C311.227 32.4188 311.216 32.3657 311.269 32.2435C311.321 32.1256 311.394 32.0317 311.456 31.9749C311.514 31.9214 311.523 31.9351 311.437 31.9673C311.351 31.9994 311.154 32.0547 310.828 32.0547V42.0547V52.0547C321.46 52.0547 331.227 44.2857 331.227 32.3437H321.227ZM310.828 42.0547V32.0547C310.445 32.0547 310.223 31.9911 310.134 31.9582C310.046 31.9257 310.068 31.9166 310.141 31.9846C310.219 32.056 310.298 32.1625 310.35 32.2831C310.403 32.4057 310.387 32.4461 310.387 32.3437H300.387H290.387C290.387 44.2597 300.04 52.0547 310.828 52.0547V42.0547ZM300.387 32.3437H310.387C310.387 32.2625 310.399 32.3167 310.343 32.4465C310.287 32.5737 310.206 32.6813 310.13 32.751C310.058 32.8175 310.039 32.8068 310.13 32.7732C310.221 32.7394 310.445 32.6758 310.828 32.6758V22.6758V12.6758C300.07 12.6758 290.387 20.4426 290.387 32.3437H300.387ZM310.828 28.2187V18.2187C307.514 18.2187 303.793 19.3418 300.909 22.2942C298.005 25.2668 296.95 29.0654 297.005 32.505L307.004 32.3437L317.003 32.1825C317.015 32.958 316.755 34.6941 315.215 36.2703C313.695 37.8262 311.908 38.2187 310.828 38.2187V28.2187ZM307.004 32.3437L297.005 32.1899C296.953 35.5736 297.941 39.4751 300.991 42.5247C303.993 45.5265 307.761 46.4687 310.828 46.4687V36.4687V26.4687C311.661 26.4687 313.496 26.745 315.133 28.3825C316.818 30.0678 317.012 31.9069 317.003 32.4976L307.004 32.3437ZM310.828 36.4687V46.4687C313.942 46.4687 317.698 45.4854 320.667 42.4683C323.64 39.448 324.609 35.6263 324.609 32.3437H314.609H304.609C304.609 31.8542 304.784 30.095 306.414 28.4389C308.04 26.7861 309.906 26.4687 310.828 26.4687V36.4687ZM314.609 32.3437H324.609C324.609 29.0131 323.58 25.2955 320.749 22.3511C317.9 19.3886 314.192 18.2187 310.828 18.2187V28.2187V38.2187C309.656 38.2187 307.838 37.7793 306.332 36.2133C304.844 34.6654 304.609 33.0104 304.609 32.3437H314.609ZM369.781 20.0977H379.781C379.781 14.5748 375.304 10.0977 369.781 10.0977V20.0977ZM369.781 25.4258V35.4258C375.304 35.4258 379.781 30.9486 379.781 25.4258H369.781ZM341.68 25.4258L331.68 25.4258C331.68 30.9486 336.157 35.4258 341.68 35.4258V25.4258ZM341.68 11.418V1.41797C336.157 1.41797 331.68 5.89512 331.68 11.418H341.68ZM348.555 11.418H358.555C358.555 5.89512 354.078 1.41797 348.555 1.41797V11.418ZM348.555 20.0977H338.555C338.555 25.6205 343.032 30.0977 348.555 30.0977V20.0977ZM373.691 28.9492H383.691C383.691 23.4264 379.214 18.9492 373.691 18.9492V28.9492ZM373.691 34.2773V44.2773C379.214 44.2773 383.691 39.8002 383.691 34.2773H373.691ZM337.426 34.2773H327.426C327.426 39.8002 331.903 44.2773 337.426 44.2773V34.2773ZM337.426 28.9492V18.9492C331.903 18.9492 327.426 23.4264 327.426 28.9492H337.426ZM370.039 43.4727H380.039C380.039 37.9498 375.562 33.4727 370.039 33.4727V43.4727ZM370.039 48.9727V58.9727C375.562 58.9727 380.039 54.4955 380.039 48.9727H370.039ZM341.207 48.9727H331.207C331.207 54.4955 335.684 58.9727 341.207 58.9727V48.9727ZM341.207 37.0273V27.0273C335.684 27.0273 331.207 31.5045 331.207 37.0273H341.207ZM348.168 37.0273H358.168C358.168 31.5045 353.691 27.0273 348.168 27.0273V37.0273ZM348.168 43.4727H338.168C338.168 48.9955 342.645 53.4727 348.168 53.4727V43.4727ZM369.781 20.0977H359.781V25.4258H369.781H379.781V20.0977H369.781ZM369.781 25.4258V15.4258H341.68V25.4258V35.4258H369.781V25.4258ZM341.68 25.4258H351.68V11.418H341.68H331.68V25.4258L341.68 25.4258ZM341.68 11.418V21.418H348.555V11.418V1.41797H341.68V11.418ZM348.555 11.418H338.555V20.0977H348.555H358.555V11.418H348.555ZM348.555 20.0977V30.0977H369.781V20.0977V10.0977L348.555 10.0977V20.0977ZM373.691 28.9492H363.691V34.2773H373.691H383.691V28.9492H373.691ZM373.691 34.2773V24.2773H337.426V34.2773V44.2773H373.691V34.2773ZM337.426 34.2773H347.426V28.9492H337.426H327.426V34.2773H337.426ZM337.426 28.9492V38.9492H373.691V28.9492V18.9492H337.426V28.9492ZM370.039 43.4727H360.039V48.9727H370.039H380.039V43.4727H370.039ZM370.039 48.9727V38.9727H341.207V48.9727V58.9727H370.039V48.9727ZM341.207 48.9727H351.207V37.0273H341.207H331.207V48.9727H341.207ZM341.207 37.0273V47.0273H348.168V37.0273V27.0273H341.207V37.0273ZM348.168 37.0273H338.168V43.4727H348.168H358.168V37.0273H348.168ZM348.168 43.4727V53.4727H370.039V43.4727V33.4727H348.168V43.4727Z" fill="white" mask="url(#path-1-outside-1_6524_1843)"/>
</g>
<defs>
<filter id="filter0_d_6524_1843" x="0" y="0" width="387.691" height="67.875" filterUnits="userSpaceOnUse" color-interpolation-filters="sRGB">
<feFlood flood-opacity="0" result="BackgroundImageFix"/>
<feColorMatrix in="SourceAlpha" type="matrix" values="0 0 0 0 0 0 0 0 0 0 0 0 0 0 0 0 0 0 127 0" result="hardAlpha"/>
<feOffset dy="4"/>
<feGaussianBlur stdDeviation="2"/>
<feComposite in2="hardAlpha" operator="out"/>
<feColorMatrix type="matrix" values="0 0 0 0 0 0 0 0 0 0 0 0 0 0 0 0 0 0 0.07 0"/>
<feBlend mode="normal" in2="BackgroundImageFix" result="effect1_dropShadow_6524_1843"/>
<feBlend mode="normal" in="SourceGraphic" in2="effect1_dropShadow_6524_1843" result="shape"/>
</filter>
</defs>
</svg>
