<svg width="302" height="68" viewBox="0 0 302 68" fill="none" xmlns="http://www.w3.org/2000/svg">
<g filter="url(#filter0_d_6526_5719)">
<mask id="path-1-outside-1_6526_5719" maskUnits="userSpaceOnUse" x="3.05469" y="-0.507813" width="295" height="61" fill="black">
<rect fill="white" x="3.05469" y="-0.507813" width="295" height="61"/>
<path d="M25.0859 11.7188C31.3164 11.7188 36.0859 15.7148 36.0859 21.2578C36.0859 26.9727 31.3164 30.9258 25.0859 30.9258C18.8125 30.9258 14 26.9727 14 21.2578C14 15.7148 18.8125 11.7188 25.0859 11.7188ZM25.0859 17.3477C22.5938 17.3477 20.7461 18.7227 20.7891 21.2578C20.7461 23.9219 22.5938 25.168 25.0859 25.2109C27.5352 25.168 29.3398 23.9219 29.3398 21.2578C29.3398 18.7227 27.5352 17.3477 25.0859 17.3477ZM45.7539 10V17.9492H50.6953V23.5352H45.7539V31.6133H38.8359V10L45.7539 10ZM25.9453 33.0742V36.082H38.8359V33.0742H45.7539V49.4023H19.0703V33.0742H25.9453ZM25.9453 43.9023H38.8359V41.2812H25.9453V43.9023ZM83.7812 10V19.3672H88.7227V24.9102H83.7812V33.8047H76.8633V10H83.7812ZM83.7812 35.3086V49.7461H76.8633V40.7656H56.582V35.3086H83.7812ZM59.6758 12.5781V17.2188H65.6484V12.5781H72.5234V32.1719H52.8438V12.5781H59.6758ZM59.6758 26.7578H65.6484V22.5039H59.6758V26.7578ZM124.688 10V49.7461H118.113V10H124.688ZM116.223 10.4727V48.0273H109.734V29.6367H107.801C107.221 37.457 103.891 42.0977 98.9922 42.0977C93.6641 42.0977 90.2266 36.5117 90.2695 27.2734C90.2266 18.1211 93.6641 12.5352 98.9922 12.5352C103.74 12.5352 107.006 16.8965 107.758 24.2227H109.734V10.4727H116.223ZM98.9922 19.0664C97.3594 19.0664 96.543 21.4297 96.5859 27.2734C96.543 33.1602 97.3594 35.4805 98.9922 35.4805C100.668 35.4805 101.57 33.1602 101.57 27.2734C101.57 21.4297 100.668 19.0664 98.9922 19.0664ZM169.418 10V18.7656H174.359V24.3086H169.418V32.6016H162.5V10H169.418ZM158.203 12.4492C158.203 23.3633 151.887 30.7539 139.855 33.9766L137.148 28.4336C145.312 26.3926 149.652 22.5254 150.641 17.9062H139.125V12.4492H158.203ZM156.141 33.0742C164.348 33.0742 169.805 36.3828 169.848 41.4531C169.805 46.6523 164.348 49.875 156.141 49.875C148.02 49.875 142.391 46.6523 142.434 41.4531C142.391 36.3828 148.02 33.0742 156.141 33.0742ZM156.141 38.4023C151.715 38.3594 149.266 39.3906 149.266 41.4531C149.266 43.5156 151.715 44.5898 156.141 44.5469C160.566 44.5898 163.016 43.5156 163.016 41.4531C163.016 39.3906 160.566 38.3594 156.141 38.4023ZM194.383 15.5859V21H175.605V15.5859H181.707V11.0742H188.453V15.5859H194.383ZM185.102 22.2031C190.258 22.2461 193.91 26.2422 193.91 31.8711C193.91 37.5859 190.258 41.625 185.102 41.625C179.988 41.625 176.207 37.5859 176.207 31.8711C176.207 26.2422 179.988 22.2461 185.102 22.2031ZM185.102 27.918C183.383 27.875 182.266 29.207 182.266 31.8711C182.266 34.5781 183.383 35.8242 185.102 35.8242C186.777 35.8242 187.895 34.5781 187.895 31.8711C187.895 29.207 186.777 27.875 185.102 27.918ZM210.324 10V49.7461H203.793V31.2695H201.902V48.1992H195.457V10.6875H201.902V25.8555H203.793V10H210.324ZM229.789 19.9687C229.789 26.1992 232.109 33.0742 239.285 35.9961L235.633 41.3672C231.078 39.498 228.135 36.0176 226.438 31.7422C224.697 36.4902 221.711 40.3574 217.07 42.3984L213.203 36.9844C220.336 33.8906 222.742 26.6289 222.742 19.9687V19.2812H214.922V13.6953H237.395V19.2812H229.789V19.9687ZM247.234 10V49.7461H240.273V10H247.234ZM284.059 20.0977V25.4258H255.957V11.418H262.832V20.0977H284.059ZM287.969 28.9492V34.2773H251.703V28.9492H287.969ZM284.316 43.4727V48.9727H255.484V37.0273H262.445V43.4727H284.316Z"/>
</mask>
<path d="M25.0859 11.7188C31.3164 11.7188 36.0859 15.7148 36.0859 21.2578C36.0859 26.9727 31.3164 30.9258 25.0859 30.9258C18.8125 30.9258 14 26.9727 14 21.2578C14 15.7148 18.8125 11.7188 25.0859 11.7188ZM25.0859 17.3477C22.5938 17.3477 20.7461 18.7227 20.7891 21.2578C20.7461 23.9219 22.5938 25.168 25.0859 25.2109C27.5352 25.168 29.3398 23.9219 29.3398 21.2578C29.3398 18.7227 27.5352 17.3477 25.0859 17.3477ZM45.7539 10V17.9492H50.6953V23.5352H45.7539V31.6133H38.8359V10L45.7539 10ZM25.9453 33.0742V36.082H38.8359V33.0742H45.7539V49.4023H19.0703V33.0742H25.9453ZM25.9453 43.9023H38.8359V41.2812H25.9453V43.9023ZM83.7812 10V19.3672H88.7227V24.9102H83.7812V33.8047H76.8633V10H83.7812ZM83.7812 35.3086V49.7461H76.8633V40.7656H56.582V35.3086H83.7812ZM59.6758 12.5781V17.2188H65.6484V12.5781H72.5234V32.1719H52.8438V12.5781H59.6758ZM59.6758 26.7578H65.6484V22.5039H59.6758V26.7578ZM124.688 10V49.7461H118.113V10H124.688ZM116.223 10.4727V48.0273H109.734V29.6367H107.801C107.221 37.457 103.891 42.0977 98.9922 42.0977C93.6641 42.0977 90.2266 36.5117 90.2695 27.2734C90.2266 18.1211 93.6641 12.5352 98.9922 12.5352C103.74 12.5352 107.006 16.8965 107.758 24.2227H109.734V10.4727H116.223ZM98.9922 19.0664C97.3594 19.0664 96.543 21.4297 96.5859 27.2734C96.543 33.1602 97.3594 35.4805 98.9922 35.4805C100.668 35.4805 101.57 33.1602 101.57 27.2734C101.57 21.4297 100.668 19.0664 98.9922 19.0664ZM169.418 10V18.7656H174.359V24.3086H169.418V32.6016H162.5V10H169.418ZM158.203 12.4492C158.203 23.3633 151.887 30.7539 139.855 33.9766L137.148 28.4336C145.312 26.3926 149.652 22.5254 150.641 17.9062H139.125V12.4492H158.203ZM156.141 33.0742C164.348 33.0742 169.805 36.3828 169.848 41.4531C169.805 46.6523 164.348 49.875 156.141 49.875C148.02 49.875 142.391 46.6523 142.434 41.4531C142.391 36.3828 148.02 33.0742 156.141 33.0742ZM156.141 38.4023C151.715 38.3594 149.266 39.3906 149.266 41.4531C149.266 43.5156 151.715 44.5898 156.141 44.5469C160.566 44.5898 163.016 43.5156 163.016 41.4531C163.016 39.3906 160.566 38.3594 156.141 38.4023ZM194.383 15.5859V21H175.605V15.5859H181.707V11.0742H188.453V15.5859H194.383ZM185.102 22.2031C190.258 22.2461 193.91 26.2422 193.91 31.8711C193.91 37.5859 190.258 41.625 185.102 41.625C179.988 41.625 176.207 37.5859 176.207 31.8711C176.207 26.2422 179.988 22.2461 185.102 22.2031ZM185.102 27.918C183.383 27.875 182.266 29.207 182.266 31.8711C182.266 34.5781 183.383 35.8242 185.102 35.8242C186.777 35.8242 187.895 34.5781 187.895 31.8711C187.895 29.207 186.777 27.875 185.102 27.918ZM210.324 10V49.7461H203.793V31.2695H201.902V48.1992H195.457V10.6875H201.902V25.8555H203.793V10H210.324ZM229.789 19.9687C229.789 26.1992 232.109 33.0742 239.285 35.9961L235.633 41.3672C231.078 39.498 228.135 36.0176 226.438 31.7422C224.697 36.4902 221.711 40.3574 217.07 42.3984L213.203 36.9844C220.336 33.8906 222.742 26.6289 222.742 19.9687V19.2812H214.922V13.6953H237.395V19.2812H229.789V19.9687ZM247.234 10V49.7461H240.273V10H247.234ZM284.059 20.0977V25.4258H255.957V11.418H262.832V20.0977H284.059ZM287.969 28.9492V34.2773H251.703V28.9492H287.969ZM284.316 43.4727V48.9727H255.484V37.0273H262.445V43.4727H284.316Z" fill="#11DCA9"/>
<path d="M20.7891 21.2578L30.7878 21.4191C30.7895 21.3088 30.7895 21.1986 30.7876 21.0883L20.7891 21.2578ZM25.0859 25.2109L24.9135 35.2094C25.0295 35.2114 25.1454 35.2114 25.2613 35.2094L25.0859 25.2109ZM45.7539 10H55.7539C55.7539 4.47715 51.2768 0 45.7539 0V10ZM45.7539 17.9492H35.7539C35.7539 23.4721 40.2311 27.9492 45.7539 27.9492V17.9492ZM50.6953 17.9492H60.6953C60.6953 12.4264 56.2182 7.94922 50.6953 7.94922V17.9492ZM50.6953 23.5352V33.5352C56.2182 33.5352 60.6953 29.058 60.6953 23.5352H50.6953ZM45.7539 23.5352V13.5352C40.2311 13.5352 35.7539 18.0123 35.7539 23.5352H45.7539ZM45.7539 31.6133V41.6133C51.2768 41.6133 55.7539 37.1361 55.7539 31.6133H45.7539ZM38.8359 31.6133H28.8359C28.8359 37.1361 33.3131 41.6133 38.8359 41.6133V31.6133ZM38.8359 10V0C33.3131 0 28.8359 4.47715 28.8359 10H38.8359ZM25.9453 33.0742H35.9453C35.9453 27.5514 31.4682 23.0742 25.9453 23.0742V33.0742ZM25.9453 36.082H15.9453C15.9453 41.6049 20.4225 46.082 25.9453 46.082V36.082ZM38.8359 36.082V46.082C44.3588 46.082 48.8359 41.6049 48.8359 36.082H38.8359ZM38.8359 33.0742V23.0742C33.3131 23.0742 28.8359 27.5514 28.8359 33.0742H38.8359ZM45.7539 33.0742H55.7539C55.7539 27.5514 51.2768 23.0742 45.7539 23.0742V33.0742ZM45.7539 49.4023V59.4023C51.2768 59.4023 55.7539 54.9252 55.7539 49.4023H45.7539ZM19.0703 49.4023H9.07031C9.07031 54.9252 13.5475 59.4023 19.0703 59.4023V49.4023ZM19.0703 33.0742V23.0742C13.5475 23.0742 9.07031 27.5514 9.07031 33.0742H19.0703ZM25.9453 43.9023H15.9453C15.9453 49.4252 20.4225 53.9023 25.9453 53.9023V43.9023ZM38.8359 43.9023V53.9023C44.3588 53.9023 48.8359 49.4252 48.8359 43.9023H38.8359ZM38.8359 41.2812H48.8359C48.8359 35.7584 44.3588 31.2812 38.8359 31.2812V41.2812ZM25.9453 41.2812V31.2812C20.4225 31.2812 15.9453 35.7584 15.9453 41.2812H25.9453ZM25.0859 11.7188V21.7188C26.0927 21.7188 26.4537 22.0359 26.4093 21.9979C26.3833 21.9755 26.2863 21.88 26.1993 21.6957C26.1078 21.5017 26.0859 21.3322 26.0859 21.2578H36.0859H46.0859C46.0859 8.81301 35.3511 1.71875 25.0859 1.71875V11.7188ZM36.0859 21.2578H26.0859C26.0859 21.2714 26.0888 21.1505 26.1712 20.9727C26.2503 20.8021 26.346 20.7014 26.3856 20.6671C26.458 20.6046 26.1192 20.9258 25.0859 20.9258V30.9258V40.9258C35.4144 40.9258 46.0859 33.82 46.0859 21.2578H36.0859ZM25.0859 30.9258V20.9258C24.0126 20.9258 23.6407 20.5929 23.6967 20.6408C23.7296 20.6691 23.8262 20.7674 23.9082 20.9429C23.9468 21.0253 23.9719 21.1036 23.9863 21.1691C24.0007 21.2346 24 21.2675 24 21.2578H14H4C4 33.89 14.7959 40.9258 25.0859 40.9258V30.9258ZM14 21.2578H24C24 21.3463 23.9746 21.5264 23.8797 21.7258C23.7899 21.9146 23.6921 22.0076 23.6729 22.024C23.6449 22.0478 24.0389 21.7188 25.0859 21.7188V11.7188V1.71875C14.8593 1.71875 4 8.74334 4 21.2578H14ZM25.0859 17.3477V7.34766C22.101 7.34766 18.4892 8.17019 15.4658 10.7707C12.2235 13.5595 10.7238 17.4915 10.7905 21.4273L20.7891 21.2578L30.7876 21.0883C30.8114 22.489 30.214 24.4659 28.5078 25.9334C27.0206 27.2126 25.5787 27.3477 25.0859 27.3477V17.3477ZM20.7891 21.2578L10.7904 21.0965C10.7278 24.9763 12.1481 28.9917 15.5274 31.8511C18.6044 34.4547 22.2005 35.1627 24.9135 35.2094L25.0859 25.2109L25.2583 15.2124C25.4792 15.2162 26.9054 15.2796 28.4462 16.5834C29.2508 17.2642 29.9022 18.1433 30.3155 19.1302C30.7176 20.0901 30.7959 20.912 30.7878 21.4191L20.7891 21.2578ZM25.0859 25.2109L25.2613 35.2094C28.0014 35.1613 31.5873 34.429 34.6437 31.806C37.9571 28.9626 39.3398 25.0237 39.3398 21.2578H29.3398H19.3398C19.3398 20.156 19.8203 18.1721 21.619 16.6285C23.1608 15.3054 24.6197 15.2176 24.9105 15.2125L25.0859 25.2109ZM29.3398 21.2578H39.3398C39.3398 17.4444 37.8852 13.5905 34.705 10.8164C31.7046 8.19895 28.1022 7.34766 25.0859 7.34766V17.3477V27.3477C24.5189 27.3477 23.0435 27.1839 21.5577 25.8877C19.8922 24.4349 19.3398 22.5361 19.3398 21.2578H29.3398ZM45.7539 10L35.7539 10V17.9492H45.7539H55.7539V10H45.7539ZM45.7539 17.9492V27.9492H50.6953V17.9492V7.94922H45.7539V17.9492ZM50.6953 17.9492H40.6953V23.5352H50.6953H60.6953V17.9492H50.6953ZM50.6953 23.5352V13.5352H45.7539V23.5352V33.5352H50.6953V23.5352ZM45.7539 23.5352H35.7539V31.6133H45.7539H55.7539V23.5352H45.7539ZM45.7539 31.6133V21.6133H38.8359V31.6133V41.6133H45.7539V31.6133ZM38.8359 31.6133H48.8359V10L38.8359 10H28.8359V31.6133H38.8359ZM38.8359 10V20H45.7539V10V0H38.8359V10ZM25.9453 33.0742H15.9453V36.082H25.9453H35.9453V33.0742H25.9453ZM25.9453 36.082V46.082H38.8359V36.082V26.082H25.9453V36.082ZM38.8359 36.082H48.8359V33.0742H38.8359H28.8359V36.082H38.8359ZM38.8359 33.0742V43.0742H45.7539V33.0742V23.0742H38.8359V33.0742ZM45.7539 33.0742H35.7539V49.4023H45.7539H55.7539V33.0742H45.7539ZM45.7539 49.4023V39.4023H19.0703V49.4023V59.4023H45.7539V49.4023ZM19.0703 49.4023H29.0703V33.0742H19.0703H9.07031L9.07031 49.4023H19.0703ZM19.0703 33.0742V43.0742H25.9453V33.0742V23.0742H19.0703V33.0742ZM25.9453 43.9023V53.9023H38.8359V43.9023V33.9023H25.9453V43.9023ZM38.8359 43.9023H48.8359V41.2812H38.8359H28.8359V43.9023H38.8359ZM38.8359 41.2812V31.2812H25.9453V41.2812V51.2812H38.8359V41.2812ZM25.9453 41.2812H15.9453V43.9023H25.9453H35.9453V41.2812H25.9453ZM83.7812 10H93.7812C93.7812 4.47715 89.3041 0 83.7812 0V10ZM83.7812 19.3672L73.7812 19.3672C73.7812 24.89 78.2584 29.3672 83.7812 29.3672V19.3672ZM88.7227 19.3672H98.7227C98.7227 13.8443 94.2455 9.36719 88.7227 9.36719V19.3672ZM88.7227 24.9102V34.9102C94.2455 34.9102 98.7227 30.433 98.7227 24.9102H88.7227ZM83.7812 24.9102V14.9102C78.2584 14.9102 73.7812 19.3873 73.7812 24.9102L83.7812 24.9102ZM83.7812 33.8047V43.8047C89.3041 43.8047 93.7812 39.3275 93.7812 33.8047H83.7812ZM76.8633 33.8047H66.8633C66.8633 39.3275 71.3404 43.8047 76.8633 43.8047V33.8047ZM76.8633 10V0C71.3404 0 66.8633 4.47715 66.8633 10H76.8633ZM83.7812 35.3086H93.7812C93.7812 29.7857 89.3041 25.3086 83.7812 25.3086V35.3086ZM83.7812 49.7461V59.7461C89.3041 59.7461 93.7812 55.2689 93.7812 49.7461H83.7812ZM76.8633 49.7461H66.8633C66.8633 55.2689 71.3404 59.7461 76.8633 59.7461V49.7461ZM76.8633 40.7656H86.8633C86.8633 35.2428 82.3861 30.7656 76.8633 30.7656V40.7656ZM56.582 40.7656H46.582C46.582 46.2885 51.0592 50.7656 56.582 50.7656V40.7656ZM56.582 35.3086V25.3086C51.0592 25.3086 46.582 29.7857 46.582 35.3086H56.582ZM59.6758 12.5781H69.6758C69.6758 7.05528 65.1986 2.57812 59.6758 2.57812V12.5781ZM59.6758 17.2188H49.6758C49.6758 22.7416 54.1529 27.2188 59.6758 27.2188V17.2188ZM65.6484 17.2188V27.2188C71.1713 27.2188 75.6484 22.7416 75.6484 17.2188H65.6484ZM65.6484 12.5781V2.57812C60.1256 2.57812 55.6484 7.05528 55.6484 12.5781H65.6484ZM72.5234 12.5781L82.5234 12.5781C82.5234 7.05528 78.0463 2.57812 72.5234 2.57812V12.5781ZM72.5234 32.1719V42.1719C78.0463 42.1719 82.5234 37.6947 82.5234 32.1719H72.5234ZM52.8438 32.1719H42.8438C42.8438 37.6947 47.3209 42.1719 52.8438 42.1719V32.1719ZM52.8438 12.5781V2.57812C47.3209 2.57812 42.8438 7.05528 42.8438 12.5781H52.8438ZM59.6758 26.7578H49.6758C49.6758 32.2807 54.1529 36.7578 59.6758 36.7578V26.7578ZM65.6484 26.7578V36.7578C71.1713 36.7578 75.6484 32.2807 75.6484 26.7578H65.6484ZM65.6484 22.5039H75.6484C75.6484 16.9811 71.1713 12.5039 65.6484 12.5039V22.5039ZM59.6758 22.5039V12.5039C54.1529 12.5039 49.6758 16.9811 49.6758 22.5039H59.6758ZM83.7812 10H73.7812V19.3672L83.7812 19.3672H93.7812V10H83.7812ZM83.7812 19.3672V29.3672H88.7227V19.3672V9.36719H83.7812V19.3672ZM88.7227 19.3672H78.7227V24.9102H88.7227H98.7227V19.3672H88.7227ZM88.7227 24.9102V14.9102H83.7812V24.9102V34.9102H88.7227V24.9102ZM83.7812 24.9102L73.7812 24.9102V33.8047H83.7812H93.7812V24.9102H83.7812ZM83.7812 33.8047V23.8047L76.8633 23.8047V33.8047V43.8047H83.7812V33.8047ZM76.8633 33.8047H86.8633V10H76.8633H66.8633V33.8047H76.8633ZM76.8633 10V20L83.7812 20V10V0H76.8633V10ZM83.7812 35.3086H73.7812V49.7461H83.7812H93.7812V35.3086H83.7812ZM83.7812 49.7461V39.7461H76.8633V49.7461V59.7461H83.7812V49.7461ZM76.8633 49.7461H86.8633V40.7656H76.8633H66.8633V49.7461H76.8633ZM76.8633 40.7656V30.7656H56.582V40.7656V50.7656H76.8633V40.7656ZM56.582 40.7656H66.582V35.3086H56.582H46.582V40.7656H56.582ZM56.582 35.3086V45.3086H83.7812V35.3086V25.3086L56.582 25.3086V35.3086ZM59.6758 12.5781H49.6758V17.2188H59.6758H69.6758V12.5781H59.6758ZM59.6758 17.2188V27.2188H65.6484V17.2188V7.21875H59.6758V17.2188ZM65.6484 17.2188H75.6484V12.5781H65.6484H55.6484V17.2188H65.6484ZM65.6484 12.5781V22.5781H72.5234V12.5781V2.57812H65.6484V12.5781ZM72.5234 12.5781H62.5234V32.1719H72.5234H82.5234V12.5781L72.5234 12.5781ZM72.5234 32.1719V22.1719H52.8438V32.1719V42.1719H72.5234V32.1719ZM52.8438 32.1719H62.8438V12.5781H52.8438H42.8438V32.1719H52.8438ZM52.8438 12.5781V22.5781H59.6758V12.5781V2.57812H52.8438V12.5781ZM59.6758 26.7578V36.7578H65.6484V26.7578V16.7578H59.6758V26.7578ZM65.6484 26.7578H75.6484V22.5039H65.6484H55.6484V26.7578H65.6484ZM65.6484 22.5039V12.5039H59.6758V22.5039V32.5039H65.6484V22.5039ZM59.6758 22.5039H49.6758V26.7578H59.6758H69.6758V22.5039H59.6758ZM124.688 10H134.688C134.688 4.47715 130.21 0 124.688 0V10ZM124.688 49.7461V59.7461C130.21 59.7461 134.688 55.2689 134.688 49.7461H124.688ZM118.113 49.7461H108.113C108.113 55.2689 112.59 59.7461 118.113 59.7461V49.7461ZM118.113 10V0C112.59 0 108.113 4.47715 108.113 10L118.113 10ZM116.223 10.4727H126.223C126.223 4.94981 121.746 0.472656 116.223 0.472656V10.4727ZM116.223 48.0273V58.0273C121.746 58.0273 126.223 53.5502 126.223 48.0273H116.223ZM109.734 48.0273H99.7344C99.7344 53.5502 104.212 58.0273 109.734 58.0273V48.0273ZM109.734 29.6367H119.734C119.734 24.1139 115.257 19.6367 109.734 19.6367V29.6367ZM107.801 29.6367V19.6367C102.565 19.6367 98.2155 23.6755 97.8282 28.897L107.801 29.6367ZM90.2695 27.2734L100.269 27.3199C100.27 27.2888 100.27 27.2576 100.269 27.2265L90.2695 27.2734ZM107.758 24.2227L97.8101 25.2437C98.3336 30.3444 102.63 34.2227 107.758 34.2227V24.2227ZM109.734 24.2227V34.2227C115.257 34.2227 119.734 29.7455 119.734 24.2227H109.734ZM109.734 10.4727V0.472656C104.212 0.472656 99.7344 4.94981 99.7344 10.4727L109.734 10.4727ZM96.5859 27.2734L106.586 27.3464C106.586 27.2976 106.586 27.2487 106.586 27.1999L96.5859 27.2734ZM124.688 10H114.688V49.7461H124.688H134.688V10H124.688ZM124.688 49.7461V39.7461H118.113V49.7461V59.7461H124.688V49.7461ZM118.113 49.7461H128.113V10H118.113L108.113 10V49.7461H118.113ZM118.113 10V20H124.688V10V0H118.113V10ZM116.223 10.4727L106.223 10.4727V48.0273H116.223H126.223V10.4727H116.223ZM116.223 48.0273V38.0273H109.734V48.0273V58.0273H116.223V48.0273ZM109.734 48.0273H119.734V29.6367H109.734H99.7344V48.0273H109.734ZM109.734 29.6367V19.6367H107.801V29.6367V39.6367H109.734V29.6367ZM107.801 29.6367L97.8282 28.897C97.7288 30.2367 97.5248 31.2436 97.3074 31.9531C97.0877 32.6701 96.8889 32.9727 96.8613 33.0117C96.8468 33.0321 97.0371 32.7625 97.523 32.4944C98.0384 32.2101 98.5811 32.0977 98.9922 32.0977V42.0977V52.0977C105.081 52.0977 110.022 49.024 113.17 44.5879C116.096 40.4667 117.402 35.3792 117.773 30.3764L107.801 29.6367ZM98.9922 42.0977V32.0977C99.4863 32.0977 100.113 32.25 100.668 32.596C101.174 32.9115 101.299 33.1857 101.208 33.0316C100.943 32.5883 100.253 30.8849 100.269 27.3199L90.2695 27.2734L80.2696 27.2269C80.2433 32.9002 81.2499 38.609 84.0259 43.2682C87.016 48.287 92.1983 52.0977 98.9922 52.0977V42.0977ZM90.2695 27.2734L100.269 27.2265C100.253 23.7189 100.939 22.0402 101.198 21.6064C101.288 21.4557 101.163 21.7276 100.661 22.0402C100.11 22.3831 99.4859 22.5352 98.9922 22.5352V12.5352V2.53516C92.205 2.53516 87.0266 6.33843 84.0354 11.3379C81.2548 15.9852 80.2431 21.6756 80.2696 27.3204L90.2695 27.2734ZM98.9922 12.5352V22.5352C98.5966 22.5352 98.0738 22.431 97.5694 22.1632C97.0902 21.9087 96.8822 21.6431 96.8723 21.6299C96.8707 21.6279 96.916 21.6882 96.9901 21.834C97.0643 21.98 97.161 22.1994 97.2645 22.5058C97.4746 23.128 97.6853 24.0281 97.8101 25.2437L107.758 24.2227L117.706 23.2016C117.216 18.4359 115.824 13.5677 112.875 9.63331C109.706 5.40601 104.869 2.53516 98.9922 2.53516V12.5352ZM107.758 24.2227V34.2227H109.734V24.2227V14.2227H107.758V24.2227ZM109.734 24.2227H119.734V10.4727H109.734L99.7344 10.4727V24.2227H109.734ZM109.734 10.4727V20.4727H116.223V10.4727V0.472656H109.734V10.4727ZM98.9922 19.0664V9.06641C95.8327 9.06641 92.9129 10.3424 90.7663 12.5409C88.9086 14.4435 88.0394 16.6056 87.5953 18.0623C86.7261 20.9133 86.5634 24.2421 86.5862 27.347L96.5859 27.2734L106.586 27.1999C106.577 25.9553 106.615 25.0595 106.672 24.4421C106.733 23.7845 106.794 23.6728 106.726 23.8948C106.685 24.0301 106.323 25.2362 105.076 26.5131C104.401 27.2048 103.491 27.8881 102.337 28.3795C101.179 28.8728 100.025 29.0664 98.9922 29.0664V19.0664ZM96.5859 27.2734L86.5862 27.2004C86.5635 30.3168 86.7245 33.656 87.5986 36.5116C88.0468 37.9756 88.9252 40.1469 90.8041 42.0505C92.9731 44.2482 95.8872 45.4805 98.9922 45.4805V35.4805V25.4805C100.001 25.4805 101.139 25.6659 102.289 26.1489C103.438 26.6311 104.353 27.3067 105.039 28.0013C106.306 29.286 106.677 30.5093 106.723 30.6573C106.794 30.8893 106.733 30.7848 106.672 30.1247C106.615 29.5055 106.576 28.6041 106.586 27.3464L96.5859 27.2734ZM98.9922 35.4805V45.4805C102.013 45.4805 104.873 44.3219 107.051 42.2166C108.967 40.3657 109.908 38.2247 110.404 36.7235C111.365 33.8183 111.57 30.4309 111.57 27.2734H101.57H91.5703C91.5703 28.5116 91.5218 29.3909 91.4588 29.9854C91.3916 30.6193 91.3312 30.6994 91.4151 30.4455C91.4764 30.2602 91.878 29.0671 93.1525 27.8353C93.8351 27.1757 94.7285 26.5468 95.8304 26.1005C96.9331 25.654 98.0219 25.4805 98.9922 25.4805V35.4805ZM101.57 27.2734H111.57C111.57 24.1273 111.363 20.751 110.408 17.851C109.916 16.3577 108.985 14.2248 107.09 12.3739C104.933 10.2661 102.066 9.06641 98.9922 9.06641V19.0664V29.0664C97.9985 29.0664 96.894 28.8853 95.7836 28.429C94.6762 27.974 93.7869 27.3375 93.1139 26.68C91.8598 25.4548 91.468 24.278 91.4113 24.106C91.3311 23.8624 91.392 23.9499 91.459 24.5816C91.522 25.1746 91.5703 26.0484 91.5703 27.2734H101.57ZM169.418 10L179.418 10C179.418 4.47715 174.941 0 169.418 0V10ZM169.418 18.7656H159.418C159.418 24.2885 163.895 28.7656 169.418 28.7656V18.7656ZM174.359 18.7656H184.359C184.359 13.2428 179.882 8.76562 174.359 8.76562V18.7656ZM174.359 24.3086V34.3086C179.882 34.3086 184.359 29.8314 184.359 24.3086H174.359ZM169.418 24.3086V14.3086C163.895 14.3086 159.418 18.7857 159.418 24.3086H169.418ZM169.418 32.6016V42.6016C174.941 42.6016 179.418 38.1244 179.418 32.6016H169.418ZM162.5 32.6016H152.5C152.5 38.1244 156.977 42.6016 162.5 42.6016V32.6016ZM162.5 10V0C156.977 0 152.5 4.47715 152.5 10H162.5ZM158.203 12.4492H168.203C168.203 6.92637 163.726 2.44922 158.203 2.44922V12.4492ZM139.855 33.9766L130.87 38.3649C132.97 42.6645 137.821 44.8741 142.443 43.636L139.855 33.9766ZM137.148 28.4336L134.723 18.7322C131.796 19.4639 129.356 21.4777 128.083 24.2126C126.81 26.9475 126.839 30.1111 128.163 32.8219L137.148 28.4336ZM150.641 17.9062L160.419 19.9984C161.051 17.0459 160.315 13.966 158.416 11.6182C156.518 9.27048 153.66 7.90625 150.641 7.90625V17.9062ZM139.125 17.9062H129.125C129.125 23.4291 133.602 27.9062 139.125 27.9062V17.9062ZM139.125 12.4492V2.44922C133.602 2.44922 129.125 6.92637 129.125 12.4492H139.125ZM169.848 41.4531L179.847 41.5358C179.848 41.48 179.848 41.4242 179.847 41.3684L169.848 41.4531ZM142.434 41.4531L152.433 41.5358C152.434 41.48 152.434 41.4242 152.433 41.3684L142.434 41.4531ZM156.141 38.4023L156.044 48.4019C156.108 48.4025 156.173 48.4025 156.238 48.4019L156.141 38.4023ZM156.141 44.5469L156.238 34.5473C156.173 34.5467 156.108 34.5467 156.044 34.5473L156.141 44.5469ZM169.418 10H159.418V18.7656H169.418H179.418V10L169.418 10ZM169.418 18.7656V28.7656H174.359V18.7656V8.76562L169.418 8.76562V18.7656ZM174.359 18.7656H164.359V24.3086H174.359H184.359V18.7656H174.359ZM174.359 24.3086V14.3086H169.418V24.3086V34.3086H174.359V24.3086ZM169.418 24.3086H159.418V32.6016H169.418H179.418V24.3086H169.418ZM169.418 32.6016V22.6016H162.5V32.6016V42.6016H169.418V32.6016ZM162.5 32.6016H172.5V10H162.5H152.5V32.6016H162.5ZM162.5 10V20H169.418V10V0L162.5 0V10ZM158.203 12.4492H148.203C148.203 15.8666 147.265 18.0452 145.933 19.6079C144.505 21.2819 141.906 23.0749 137.268 24.3171L139.855 33.9766L142.443 43.636C149.837 41.6556 156.411 38.1419 161.15 32.5864C165.983 26.9196 168.203 19.9459 168.203 12.4492H158.203ZM139.855 33.9766L148.841 29.5882L146.134 24.0452L137.148 28.4336L128.163 32.8219L130.87 38.3649L139.855 33.9766ZM137.148 28.4336L139.574 38.135C149.378 35.6838 158.268 30.0527 160.419 19.9984L150.641 17.9062L140.862 15.8141C140.909 15.5923 140.995 15.7976 140.304 16.3555C139.514 16.9933 137.839 17.9532 134.723 18.7322L137.148 28.4336ZM150.641 17.9062V7.90625H139.125V17.9062V27.9062H150.641V17.9062ZM139.125 17.9062H149.125V12.4492H139.125H129.125V17.9062H139.125ZM139.125 12.4492V22.4492H158.203V12.4492V2.44922L139.125 2.44922V12.4492ZM156.141 33.0742V43.0742C157.535 43.0742 158.641 43.216 159.463 43.4081C160.297 43.6029 160.72 43.8212 160.849 43.8999C160.969 43.9728 160.698 43.8382 160.386 43.3427C160.041 42.7964 159.853 42.1353 159.848 41.5379L169.848 41.4531L179.847 41.3684C179.791 34.6867 175.968 29.6944 171.262 26.8248C166.817 24.1135 161.42 23.0742 156.141 23.0742V33.0742ZM169.848 41.4531L159.848 41.3705C159.852 40.8516 160.015 40.2176 160.362 39.662C160.679 39.1551 160.964 39.0065 160.863 39.0677C160.748 39.1372 160.335 39.3519 159.497 39.5448C158.67 39.7349 157.553 39.875 156.141 39.875V49.875V59.875C161.372 59.875 166.78 58.8751 171.248 56.1598C176.034 53.2523 179.792 48.2171 179.847 41.5358L169.848 41.4531ZM156.141 49.875V39.875C154.757 39.875 153.643 39.7363 152.805 39.544C151.954 39.3485 151.519 39.1281 151.385 39.0472C151.26 38.972 151.553 39.1166 151.885 39.6462C152.255 40.2353 152.438 40.9335 152.433 41.5358L142.434 41.4531L132.434 41.3705C132.377 48.2438 136.31 53.316 141.067 56.1803C145.534 58.8704 150.939 59.875 156.141 59.875V49.875ZM142.434 41.4531L152.433 41.3684C152.439 42.0524 152.229 42.7792 151.861 43.3586C151.533 43.8766 151.255 44.0074 151.398 43.9204C151.547 43.8304 151.992 43.6064 152.839 43.4089C153.672 43.2146 154.775 43.0742 156.141 43.0742V33.0742V23.0742C150.892 23.0742 145.497 24.1181 141.053 26.8042C136.379 29.629 132.376 34.6602 132.434 41.5379L142.434 41.4531ZM156.141 38.4023L156.238 28.4028C153.513 28.3764 150.122 28.6255 147.033 29.9776C145.393 30.6957 143.409 31.9127 141.809 33.9799C140.105 36.1819 139.266 38.8041 139.266 41.4531L149.266 41.4531H159.266C159.266 43.0709 158.732 44.7907 157.626 46.2206C156.623 47.5158 155.529 48.0909 155.054 48.2988C154.576 48.5078 154.367 48.5059 154.627 48.4685C154.856 48.4354 155.312 48.3948 156.044 48.4019L156.141 38.4023ZM149.266 41.4531L139.266 41.4531C139.266 47.5977 143.401 51.327 146.963 52.919C150.063 54.3051 153.473 54.5732 156.238 54.5464L156.141 44.5469L156.044 34.5473C154.383 34.5635 154.355 34.316 155.124 34.6601C155.602 34.8738 156.676 35.4519 157.656 36.7321C158.735 38.1409 159.266 39.839 159.266 41.4531H149.266ZM156.141 44.5469L156.044 54.5464C158.808 54.5732 162.218 54.3051 165.319 52.919C168.88 51.327 173.016 47.5977 173.016 41.4531H163.016H153.016C153.016 39.839 153.546 38.1409 154.625 36.7321C155.605 35.4519 156.679 34.8738 157.157 34.6601C157.927 34.316 157.899 34.5635 156.238 34.5473L156.141 44.5469ZM163.016 41.4531H173.016C173.016 38.8041 172.176 36.1819 170.472 33.9799C168.872 31.9127 166.888 30.6957 165.248 29.9776C162.16 28.6255 158.768 28.3764 156.044 28.4028L156.141 38.4023L156.238 48.4019C156.969 48.3948 157.425 48.4354 157.655 48.4685C157.914 48.5059 157.705 48.5078 157.227 48.2988C156.753 48.0909 155.658 47.5158 154.655 46.2206C153.549 44.7907 153.016 43.0709 153.016 41.4531H163.016ZM194.383 15.5859H204.383C204.383 10.0631 199.906 5.58594 194.383 5.58594V15.5859ZM194.383 21V31C199.906 31 204.383 26.5228 204.383 21H194.383ZM175.605 21H165.605C165.605 26.5228 170.083 31 175.605 31V21ZM175.605 15.5859V5.58594C170.083 5.58594 165.605 10.0631 165.605 15.5859H175.605ZM181.707 15.5859V25.5859C187.23 25.5859 191.707 21.1088 191.707 15.5859H181.707ZM181.707 11.0742V1.07422C176.184 1.07422 171.707 5.55137 171.707 11.0742L181.707 11.0742ZM188.453 11.0742H198.453C198.453 5.55137 193.976 1.07422 188.453 1.07422V11.0742ZM188.453 15.5859H178.453C178.453 21.1088 182.93 25.5859 188.453 25.5859V15.5859ZM185.102 22.2031L185.185 12.2035C185.129 12.203 185.073 12.203 185.018 12.2035L185.102 22.2031ZM185.102 27.918L184.852 37.9148C185.02 37.9191 185.189 37.919 185.358 37.9147L185.102 27.918ZM210.324 10H220.324C220.324 4.47715 215.847 0 210.324 0V10ZM210.324 49.7461V59.7461C215.847 59.7461 220.324 55.2689 220.324 49.7461H210.324ZM203.793 49.7461H193.793C193.793 55.2689 198.27 59.7461 203.793 59.7461V49.7461ZM203.793 31.2695H213.793C213.793 25.7467 209.316 21.2695 203.793 21.2695V31.2695ZM201.902 31.2695V21.2695C196.38 21.2695 191.902 25.7467 191.902 31.2695H201.902ZM201.902 48.1992V58.1992C207.425 58.1992 211.902 53.7221 211.902 48.1992H201.902ZM195.457 48.1992H185.457C185.457 53.7221 189.934 58.1992 195.457 58.1992V48.1992ZM195.457 10.6875V0.6875C189.934 0.6875 185.457 5.16465 185.457 10.6875H195.457ZM201.902 10.6875H211.902C211.902 5.16465 207.425 0.6875 201.902 0.6875V10.6875ZM201.902 25.8555H191.902C191.902 31.3783 196.38 35.8555 201.902 35.8555V25.8555ZM203.793 25.8555V35.8555C209.316 35.8555 213.793 31.3783 213.793 25.8555L203.793 25.8555ZM203.793 10V0C198.27 0 193.793 4.47715 193.793 10H203.793ZM194.383 15.5859H184.383V21H194.383H204.383V15.5859H194.383ZM194.383 21V11H175.605V21V31H194.383V21ZM175.605 21H185.605V15.5859H175.605H165.605V21H175.605ZM175.605 15.5859V25.5859H181.707V15.5859V5.58594H175.605V15.5859ZM181.707 15.5859H191.707V11.0742H181.707L171.707 11.0742V15.5859H181.707ZM181.707 11.0742V21.0742H188.453V11.0742V1.07422H181.707V11.0742ZM188.453 11.0742H178.453V15.5859H188.453H198.453V11.0742H188.453ZM188.453 15.5859V25.5859H194.383V15.5859V5.58594H188.453V15.5859ZM185.102 22.2031L185.018 32.2028C185.02 32.2028 184.981 32.2025 184.909 32.1873C184.836 32.172 184.741 32.1442 184.634 32.0969C184.406 31.9969 184.202 31.8468 184.051 31.6807C183.723 31.3214 183.91 31.2272 183.91 31.8711H193.91H203.91C203.91 21.5541 196.6 12.2986 185.185 12.2035L185.102 22.2031ZM193.91 31.8711H183.91C183.91 32.6019 183.696 32.5456 184.019 32.1874C184.172 32.0187 184.386 31.8565 184.638 31.7459C184.891 31.6351 185.069 31.625 185.102 31.625V41.625V51.625C196.712 51.625 203.91 42.1291 203.91 31.8711H193.91ZM185.102 41.625V31.625C185.155 31.625 185.324 31.6389 185.55 31.7376C185.775 31.8355 185.965 31.9774 186.1 32.1245C186.395 32.4462 186.207 32.5084 186.207 31.8711H176.207H166.207C166.207 42.2968 173.687 51.625 185.102 51.625V41.625ZM176.207 31.8711H186.207C186.207 31.5865 186.254 31.4688 186.249 31.4806C186.245 31.4933 186.2 31.6011 186.068 31.7434C185.934 31.8877 185.756 32.0177 185.555 32.1052C185.354 32.1932 185.212 32.2025 185.186 32.2028L185.102 22.2031L185.018 12.2035C173.8 12.2977 166.207 21.3878 166.207 31.8711H176.207ZM185.102 27.918L185.351 17.9211C181.528 17.8255 177.626 19.4214 175.031 22.8898C172.763 25.9225 172.266 29.3513 172.266 31.8711H182.266H192.266C192.266 31.8812 192.267 32.179 192.136 32.6742C192.005 33.1732 191.708 33.9856 191.047 34.869C190.358 35.7906 189.378 36.6418 188.136 37.2168C186.916 37.782 185.755 37.9374 184.852 37.9148L185.102 27.918ZM182.266 31.8711H172.266C172.266 34.3843 172.752 37.8547 175.079 40.9153C177.724 44.3947 181.574 45.8242 185.102 45.8242V35.8242V25.8242C185.884 25.8242 186.951 25.9691 188.107 26.4999C189.297 27.0463 190.282 27.8671 190.999 28.8103C191.686 29.7138 191.997 30.5534 192.135 31.0737C192.204 31.337 192.236 31.5411 192.251 31.6692C192.266 31.7978 192.266 31.8684 192.266 31.8711H182.266ZM185.102 35.8242V45.8242C188.689 45.8242 192.516 44.3334 195.119 40.8734C197.407 37.8311 197.895 34.3894 197.895 31.8711H187.895H177.895C177.895 31.8683 177.895 31.7987 177.909 31.672C177.924 31.5457 177.955 31.345 178.023 31.0859C178.158 30.5749 178.461 29.7474 179.134 28.8522C179.837 27.9184 180.812 27.0881 182.01 26.5281C183.179 25.9819 184.274 25.8242 185.102 25.8242V35.8242ZM187.895 31.8711H197.895C197.895 29.3464 197.395 25.9458 195.166 22.9318C192.617 19.4876 188.736 17.8215 184.845 17.9213L185.102 27.918L185.358 37.9147C184.406 37.9391 183.214 37.7696 181.981 37.1882C180.732 36.5993 179.762 35.7385 179.087 34.827C178.44 33.9521 178.15 33.1518 178.021 32.662C177.893 32.1747 177.895 31.882 177.895 31.8711H187.895ZM210.324 10H200.324V49.7461H210.324H220.324V10H210.324ZM210.324 49.7461V39.7461H203.793V49.7461V59.7461H210.324V49.7461ZM203.793 49.7461H213.793V31.2695H203.793H193.793V49.7461H203.793ZM203.793 31.2695V21.2695H201.902V31.2695V41.2695H203.793V31.2695ZM201.902 31.2695H191.902V48.1992H201.902H211.902V31.2695H201.902ZM201.902 48.1992V38.1992H195.457V48.1992V58.1992H201.902V48.1992ZM195.457 48.1992H205.457V10.6875H195.457H185.457V48.1992H195.457ZM195.457 10.6875V20.6875H201.902V10.6875V0.6875H195.457V10.6875ZM201.902 10.6875H191.902V25.8555H201.902L211.902 25.8555V10.6875H201.902ZM201.902 25.8555V35.8555H203.793V25.8555V15.8555H201.902V25.8555ZM203.793 25.8555L213.793 25.8555V10H203.793H193.793V25.8555H203.793ZM203.793 10V20L210.324 20V10V0H203.793V10ZM239.285 35.9961L247.554 41.6192C249.252 39.1228 249.731 35.9932 248.858 33.1034C247.984 30.2136 245.852 27.8729 243.056 26.7345L239.285 35.9961ZM235.633 41.3672L231.836 50.6185C236.21 52.4134 241.244 50.8999 243.902 46.9903L235.633 41.3672ZM226.438 31.7422L235.732 28.0525C234.202 24.198 230.451 21.6879 226.305 21.7431C222.158 21.7982 218.475 24.4071 217.048 28.3009L226.438 31.7422ZM217.07 42.3984L208.933 48.2108C211.685 52.0637 216.762 53.4585 221.096 51.5522L217.07 42.3984ZM213.203 36.9844L209.224 27.8102C206.454 29.0118 204.375 31.401 203.567 34.3108C202.76 37.2206 203.311 40.3395 205.066 42.7968L213.203 36.9844ZM222.742 19.2812H232.742C232.742 13.7584 228.265 9.28125 222.742 9.28125V19.2812ZM214.922 19.2812L204.922 19.2812C204.922 24.8041 209.399 29.2812 214.922 29.2812V19.2812ZM214.922 13.6953V3.69531C209.399 3.69531 204.922 8.17247 204.922 13.6953L214.922 13.6953ZM237.395 13.6953H247.395C247.395 8.17247 242.917 3.69531 237.395 3.69531V13.6953ZM237.395 19.2812V29.2812C242.917 29.2812 247.395 24.8041 247.395 19.2812H237.395ZM229.789 19.2812V9.28125C224.266 9.28125 219.789 13.7584 219.789 19.2812H229.789ZM247.234 10H257.234C257.234 4.47715 252.757 0 247.234 0V10ZM247.234 49.7461V59.7461C252.757 59.7461 257.234 55.2689 257.234 49.7461H247.234ZM240.273 49.7461H230.273C230.273 55.2689 234.751 59.7461 240.273 59.7461V49.7461ZM240.273 10V0C234.751 0 230.273 4.47715 230.273 10L240.273 10ZM229.789 19.9687H219.789C219.789 28.2505 223.001 40.1628 235.514 45.2577L239.285 35.9961L243.056 26.7345C241.855 26.2452 241.208 25.5594 240.733 24.638C240.169 23.5438 239.789 21.937 239.789 19.9687H229.789ZM239.285 35.9961L231.016 30.373L227.364 35.7441L235.633 41.3672L243.902 46.9903L247.554 41.6192L239.285 35.9961ZM235.633 41.3672L239.429 32.1159C237.805 31.4494 236.608 30.2591 235.732 28.0525L226.438 31.7422L217.143 35.4319C219.662 41.776 224.351 47.5467 231.836 50.6185L235.633 41.3672ZM226.438 31.7422L217.048 28.3009C215.986 31.1999 214.582 32.5685 213.044 33.2447L217.07 42.3984L221.096 51.5522C228.84 48.1464 233.409 41.7805 235.827 35.1835L226.438 31.7422ZM217.07 42.3984L225.208 36.5861L221.34 31.172L213.203 36.9844L205.066 42.7968L208.933 48.2108L217.07 42.3984ZM213.203 36.9844L217.182 46.1586C229.603 40.7711 232.742 28.4633 232.742 19.9687H222.742H212.742C212.742 22.1894 212.328 24.0718 211.675 25.3991C211.097 26.573 210.355 27.3196 209.224 27.8102L213.203 36.9844ZM222.742 19.9687H232.742V19.2812H222.742H212.742V19.9687H222.742ZM222.742 19.2812V9.28125H214.922V19.2812V29.2812H222.742V19.2812ZM214.922 19.2812H224.922V13.6953H214.922L204.922 13.6953V19.2812L214.922 19.2812ZM214.922 13.6953V23.6953H237.395V13.6953V3.69531L214.922 3.69531V13.6953ZM237.395 13.6953H227.395V19.2812H237.395H247.395V13.6953H237.395ZM237.395 19.2812V9.28125L229.789 9.28125V19.2812V29.2812H237.395V19.2812ZM229.789 19.2812H219.789V19.9687H229.789H239.789V19.2812H229.789ZM247.234 10H237.234V49.7461H247.234H257.234V10H247.234ZM247.234 49.7461V39.7461H240.273V49.7461V59.7461H247.234V49.7461ZM240.273 49.7461H250.273V10H240.273L230.273 10V49.7461H240.273ZM240.273 10V20H247.234V10V0L240.273 0V10ZM284.059 20.0977H294.059C294.059 14.5748 289.581 10.0977 284.059 10.0977V20.0977ZM284.059 25.4258V35.4258C289.581 35.4258 294.059 30.9486 294.059 25.4258H284.059ZM255.957 25.4258H245.957C245.957 30.9486 250.434 35.4258 255.957 35.4258V25.4258ZM255.957 11.418V1.41797C250.434 1.41797 245.957 5.89512 245.957 11.418H255.957ZM262.832 11.418H272.832C272.832 5.89512 268.355 1.41797 262.832 1.41797V11.418ZM262.832 20.0977H252.832C252.832 25.6205 257.309 30.0977 262.832 30.0977V20.0977ZM287.969 28.9492H297.969C297.969 23.4264 293.492 18.9492 287.969 18.9492V28.9492ZM287.969 34.2773V44.2773C293.492 44.2773 297.969 39.8002 297.969 34.2773H287.969ZM251.703 34.2773H241.703C241.703 39.8002 246.18 44.2773 251.703 44.2773V34.2773ZM251.703 28.9492V18.9492C246.18 18.9492 241.703 23.4264 241.703 28.9492H251.703ZM284.316 43.4727H294.316C294.316 37.9498 289.839 33.4727 284.316 33.4727V43.4727ZM284.316 48.9727V58.9727C289.839 58.9727 294.316 54.4955 294.316 48.9727H284.316ZM255.484 48.9727H245.484C245.484 54.4955 249.962 58.9727 255.484 58.9727V48.9727ZM255.484 37.0273V27.0273C249.962 27.0273 245.484 31.5045 245.484 37.0273H255.484ZM262.445 37.0273H272.445C272.445 31.5045 267.968 27.0273 262.445 27.0273V37.0273ZM262.445 43.4727H252.445C252.445 48.9955 256.922 53.4727 262.445 53.4727V43.4727ZM284.059 20.0977H274.059V25.4258H284.059H294.059V20.0977H284.059ZM284.059 25.4258V15.4258H255.957V25.4258V35.4258H284.059V25.4258ZM255.957 25.4258H265.957V11.418H255.957H245.957V25.4258H255.957ZM255.957 11.418V21.418H262.832V11.418V1.41797H255.957V11.418ZM262.832 11.418H252.832V20.0977H262.832H272.832V11.418H262.832ZM262.832 20.0977V30.0977H284.059V20.0977V10.0977H262.832V20.0977ZM287.969 28.9492H277.969V34.2773H287.969H297.969V28.9492H287.969ZM287.969 34.2773V24.2773H251.703V34.2773V44.2773H287.969V34.2773ZM251.703 34.2773H261.703V28.9492H251.703H241.703V34.2773H251.703ZM251.703 28.9492V38.9492H287.969V28.9492V18.9492H251.703V28.9492ZM284.316 43.4727H274.316V48.9727H284.316H294.316V43.4727H284.316ZM284.316 48.9727V38.9727H255.484V48.9727V58.9727H284.316V48.9727ZM255.484 48.9727H265.484V37.0273H255.484H245.484V48.9727H255.484ZM255.484 37.0273V47.0273H262.445V37.0273V27.0273H255.484V37.0273ZM262.445 37.0273H252.445V43.4727H262.445H272.445V37.0273H262.445ZM262.445 43.4727V53.4727H284.316V43.4727V33.4727H262.445V43.4727Z" fill="white" mask="url(#path-1-outside-1_6526_5719)"/>
</g>
<defs>
<filter id="filter0_d_6526_5719" x="0" y="0" width="301.969" height="67.875" filterUnits="userSpaceOnUse" color-interpolation-filters="sRGB">
<feFlood flood-opacity="0" result="BackgroundImageFix"/>
<feColorMatrix in="SourceAlpha" type="matrix" values="0 0 0 0 0 0 0 0 0 0 0 0 0 0 0 0 0 0 127 0" result="hardAlpha"/>
<feOffset dy="4"/>
<feGaussianBlur stdDeviation="2"/>
<feComposite in2="hardAlpha" operator="out"/>
<feColorMatrix type="matrix" values="0 0 0 0 0 0 0 0 0 0 0 0 0 0 0 0 0 0 0.07 0"/>
<feBlend mode="normal" in2="BackgroundImageFix" result="effect1_dropShadow_6526_5719"/>
<feBlend mode="normal" in="SourceGraphic" in2="effect1_dropShadow_6526_5719" result="shape"/>
</filter>
</defs>
</svg>
