<svg width="264" height="68" viewBox="0 0 264 68" fill="none" xmlns="http://www.w3.org/2000/svg">
<g filter="url(#filter0_d_6524_1759)">
<mask id="path-1-outside-1_6524_1759" maskUnits="userSpaceOnUse" x="3.83984" y="-0.507813" width="256" height="61" fill="black">
<rect fill="white" x="3.83984" y="-0.507813" width="256" height="61"/>
<path d="M48.418 10V49.7461H41.8438V10L48.418 10ZM39.9531 10.4727V48.0273H33.4648V29.6367H31.5312C30.9512 37.457 27.6211 42.0977 22.7227 42.0977C17.3945 42.0977 13.957 36.5117 14 27.2734C13.957 18.1211 17.3945 12.5352 22.7227 12.5352C27.4707 12.5352 30.7363 16.8965 31.4883 24.2227H33.4648V10.4727H39.9531ZM22.7227 19.0664C21.0898 19.0664 20.2734 21.4297 20.3164 27.2734C20.2734 33.1602 21.0898 35.4805 22.7227 35.4805C24.3984 35.4805 25.3008 33.1602 25.3008 27.2734C25.3008 21.4297 24.3984 19.0664 22.7227 19.0664ZM85.7148 10V49.875H78.8398V27.3164L68.957 27.3164V21.8164L78.8398 21.8164V10H85.7148ZM60.6211 14.168V34.9648C65.1758 34.8574 70.1172 34.3848 75.1016 33.418L75.7891 39.0469C69.3438 40.4219 62.8984 40.7227 57.2695 40.6797H53.7461V14.168H60.6211ZM105.91 19.9687C105.91 26.1992 108.23 33.0742 115.406 35.9961L111.754 41.3672C107.199 39.498 104.256 36.0176 102.559 31.7422C100.818 36.4902 97.832 40.3574 93.1914 42.3984L89.3242 36.9844C96.457 33.8906 98.8633 26.6289 98.8633 19.9687V19.2812H91.043V13.6953H113.516V19.2812H105.91V19.9687ZM123.355 10V49.7461H116.395V10H123.355ZM171.223 34.1055V49.4023H144.152V34.1055H171.223ZM150.984 39.5195V43.9023H164.52V39.5195H150.984ZM146.344 11.9336V26.0273C150.727 25.8984 155.582 25.4902 160.523 24.5664L161.211 30.2812C154.809 31.5273 148.535 31.8281 143.035 31.7852L139.555 31.7852V11.9336H146.344ZM171.223 10V32.6016H164.348V21.6875H155.539V16.1875H164.348V10H171.223ZM208.906 10V49.7461H202.031V10H208.906ZM191.547 22.2031C191.547 27.3594 193.867 33.8477 200.914 36.7266L197.262 41.9687C192.857 40.25 189.893 36.8125 188.152 32.6875C186.412 37.0703 183.404 40.7441 178.871 42.5273L175.262 37.2852C182.223 34.2773 184.629 27.6172 184.629 22.2031V21.6875H176.766V16.2305H184.586V11.0312H191.461V16.2305H199.152V21.6875H191.547V22.2031ZM245.816 20.0977V25.4258H217.715V11.418H224.59V20.0977H245.816ZM249.727 28.9492V34.2773H213.461V28.9492H249.727ZM246.074 43.4727V48.9727H217.242V37.0273H224.203V43.4727H246.074Z"/>
</mask>
<path d="M48.418 10V49.7461H41.8438V10L48.418 10ZM39.9531 10.4727V48.0273H33.4648V29.6367H31.5312C30.9512 37.457 27.6211 42.0977 22.7227 42.0977C17.3945 42.0977 13.957 36.5117 14 27.2734C13.957 18.1211 17.3945 12.5352 22.7227 12.5352C27.4707 12.5352 30.7363 16.8965 31.4883 24.2227H33.4648V10.4727H39.9531ZM22.7227 19.0664C21.0898 19.0664 20.2734 21.4297 20.3164 27.2734C20.2734 33.1602 21.0898 35.4805 22.7227 35.4805C24.3984 35.4805 25.3008 33.1602 25.3008 27.2734C25.3008 21.4297 24.3984 19.0664 22.7227 19.0664ZM85.7148 10V49.875H78.8398V27.3164L68.957 27.3164V21.8164L78.8398 21.8164V10H85.7148ZM60.6211 14.168V34.9648C65.1758 34.8574 70.1172 34.3848 75.1016 33.418L75.7891 39.0469C69.3438 40.4219 62.8984 40.7227 57.2695 40.6797H53.7461V14.168H60.6211ZM105.91 19.9687C105.91 26.1992 108.23 33.0742 115.406 35.9961L111.754 41.3672C107.199 39.498 104.256 36.0176 102.559 31.7422C100.818 36.4902 97.832 40.3574 93.1914 42.3984L89.3242 36.9844C96.457 33.8906 98.8633 26.6289 98.8633 19.9687V19.2812H91.043V13.6953H113.516V19.2812H105.91V19.9687ZM123.355 10V49.7461H116.395V10H123.355ZM171.223 34.1055V49.4023H144.152V34.1055H171.223ZM150.984 39.5195V43.9023H164.52V39.5195H150.984ZM146.344 11.9336V26.0273C150.727 25.8984 155.582 25.4902 160.523 24.5664L161.211 30.2812C154.809 31.5273 148.535 31.8281 143.035 31.7852L139.555 31.7852V11.9336H146.344ZM171.223 10V32.6016H164.348V21.6875H155.539V16.1875H164.348V10H171.223ZM208.906 10V49.7461H202.031V10H208.906ZM191.547 22.2031C191.547 27.3594 193.867 33.8477 200.914 36.7266L197.262 41.9687C192.857 40.25 189.893 36.8125 188.152 32.6875C186.412 37.0703 183.404 40.7441 178.871 42.5273L175.262 37.2852C182.223 34.2773 184.629 27.6172 184.629 22.2031V21.6875H176.766V16.2305H184.586V11.0312H191.461V16.2305H199.152V21.6875H191.547V22.2031ZM245.816 20.0977V25.4258H217.715V11.418H224.59V20.0977H245.816ZM249.727 28.9492V34.2773H213.461V28.9492H249.727ZM246.074 43.4727V48.9727H217.242V37.0273H224.203V43.4727H246.074Z" fill="#11DCA9"/>
<path d="M48.418 10H58.418C58.418 4.47715 53.9408 0 48.418 0V10ZM48.418 49.7461V59.7461C53.9408 59.7461 58.418 55.2689 58.418 49.7461H48.418ZM41.8438 49.7461H31.8438C31.8438 55.2689 36.3209 59.7461 41.8438 59.7461V49.7461ZM41.8438 10V0C36.3209 0 31.8438 4.47715 31.8438 10H41.8438ZM39.9531 10.4727L49.9531 10.4727C49.9531 4.94981 45.476 0.472656 39.9531 0.472656V10.4727ZM39.9531 48.0273V58.0273C45.476 58.0273 49.9531 53.5502 49.9531 48.0273H39.9531ZM33.4648 48.0273H23.4648C23.4648 53.5502 27.942 58.0273 33.4648 58.0273V48.0273ZM33.4648 29.6367H43.4648C43.4648 24.1139 38.9877 19.6367 33.4648 19.6367V29.6367ZM31.5312 29.6367V19.6367C26.2954 19.6367 21.946 23.6755 21.5586 28.897L31.5312 29.6367ZM14 27.2734L23.9999 27.3199C24 27.2888 24 27.2576 23.9999 27.2265L14 27.2734ZM31.4883 24.2227L21.5405 25.2437C22.0641 30.3444 26.3608 34.2227 31.4883 34.2227V24.2227ZM33.4648 24.2227V34.2227C38.9877 34.2227 43.4648 29.7455 43.4648 24.2227H33.4648ZM33.4648 10.4727V0.472656C27.942 0.472656 23.4648 4.94981 23.4648 10.4727H33.4648ZM20.3164 27.2734L30.3161 27.3464C30.3165 27.2976 30.3165 27.2487 30.3161 27.1999L20.3164 27.2734ZM48.418 10L38.418 10V49.7461H48.418H58.418V10H48.418ZM48.418 49.7461V39.7461H41.8438V49.7461V59.7461H48.418V49.7461ZM41.8438 49.7461H51.8438V10L41.8438 10H31.8438V49.7461H41.8438ZM41.8438 10V20H48.418V10V0H41.8438V10ZM39.9531 10.4727H29.9531V48.0273H39.9531H49.9531V10.4727L39.9531 10.4727ZM39.9531 48.0273V38.0273H33.4648V48.0273V58.0273H39.9531V48.0273ZM33.4648 48.0273H43.4648V29.6367H33.4648H23.4648V48.0273H33.4648ZM33.4648 29.6367V19.6367H31.5312V29.6367V39.6367H33.4648V29.6367ZM31.5312 29.6367L21.5586 28.897C21.4593 30.2367 21.2553 31.2436 21.0379 31.9531C20.8182 32.6701 20.6194 32.9727 20.5917 33.0117C20.5772 33.0321 20.7675 32.7625 21.2535 32.4944C21.7689 32.2101 22.3115 32.0977 22.7227 32.0977V42.0977V52.0977C28.8117 52.0977 33.7522 49.024 36.9009 44.5879C39.8262 40.4667 41.1328 35.3792 41.5039 30.3764L31.5312 29.6367ZM22.7227 42.0977V32.0977C23.2167 32.0977 23.8439 32.25 24.3987 32.596C24.9044 32.9115 25.0299 33.1857 24.938 33.0316C24.6739 32.5883 23.9833 30.8849 23.9999 27.3199L14 27.2734L4.00011 27.2269C3.97372 32.9002 4.98038 38.609 7.75632 43.2682C10.7464 48.287 15.9288 52.0977 22.7227 52.0977V42.0977ZM14 27.2734L23.9999 27.2265C23.9834 23.7189 24.669 22.0402 24.9285 21.6064C25.0187 21.4557 24.8931 21.7276 24.391 22.0402C23.8402 22.3831 23.2164 22.5352 22.7227 22.5352V12.5352V2.53516C15.9354 2.53516 10.7571 6.33843 7.76584 11.3379C4.98531 15.9852 3.97361 21.6756 4.00011 27.3204L14 27.2734ZM22.7227 12.5352V22.5352C22.3271 22.5352 21.8043 22.431 21.2998 22.1632C20.8206 21.9087 20.6126 21.6431 20.6027 21.6299C20.6012 21.6279 20.6465 21.6882 20.7206 21.834C20.7947 21.98 20.8914 22.1994 20.995 22.5058C21.2051 23.128 21.4158 24.0281 21.5405 25.2437L31.4883 24.2227L41.436 23.2016C40.9469 18.4359 39.5548 13.5677 36.6053 9.63331C33.4362 5.40601 28.5996 2.53516 22.7227 2.53516V12.5352ZM31.4883 24.2227V34.2227H33.4648V24.2227V14.2227H31.4883V24.2227ZM33.4648 24.2227H43.4648V10.4727H33.4648H23.4648V24.2227H33.4648ZM33.4648 10.4727V20.4727H39.9531V10.4727V0.472656L33.4648 0.472656V10.4727ZM22.7227 19.0664V9.06641C19.5632 9.06641 16.6433 10.3424 14.4968 12.5409C12.6391 14.4435 11.7699 16.6056 11.3258 18.0623C10.4566 20.9133 10.2938 24.2421 10.3167 27.347L20.3164 27.2734L30.3161 27.1999C30.307 25.9553 30.3458 25.0595 30.4026 24.4421C30.4631 23.7845 30.5241 23.6728 30.4564 23.8948C30.4152 24.0301 30.0536 25.2362 28.8068 26.5131C28.1314 27.2048 27.2211 27.8881 26.0675 28.3795C24.9096 28.8728 23.7553 29.0664 22.7227 29.0664V19.0664ZM20.3164 27.2734L10.3167 27.2004C10.2939 30.3168 10.455 33.656 11.3291 36.5116C11.7773 37.9756 12.6557 40.1469 14.5346 42.0505C16.7036 44.2482 19.6177 45.4805 22.7227 45.4805V35.4805V25.4805C23.7312 25.4805 24.8694 25.6659 26.0198 26.1489C27.1684 26.6311 28.0835 27.3067 28.769 28.0013C30.037 29.286 30.4078 30.5093 30.4531 30.6573C30.5241 30.8893 30.4634 30.7848 30.4027 30.1247C30.3459 29.5055 30.307 28.6041 30.3161 27.3464L20.3164 27.2734ZM22.7227 35.4805V45.4805C25.7437 45.4805 28.6035 44.3219 30.7819 42.2166C32.697 40.3657 33.6384 38.2247 34.1347 36.7235C35.0952 33.8183 35.3008 30.4309 35.3008 27.2734H25.3008H15.3008C15.3008 28.5116 15.2523 29.3909 15.1893 29.9854C15.1221 30.6193 15.0616 30.6994 15.1456 30.4455C15.2068 30.2602 15.6084 29.0671 16.883 27.8353C17.5655 27.1757 18.4589 26.5468 19.5608 26.1005C20.6635 25.654 21.7523 25.4805 22.7227 25.4805V35.4805ZM25.3008 27.2734H35.3008C35.3008 24.1273 35.0934 20.751 34.1385 17.851C33.6468 16.3577 32.7152 14.2248 30.8206 12.3739C28.663 10.2661 25.7962 9.06641 22.7227 9.06641V19.0664V29.0664C21.729 29.0664 20.6244 28.8853 19.514 28.429C18.4067 27.974 17.5173 27.3375 16.8443 26.68C15.5902 25.4548 15.1984 24.278 15.1418 24.106C15.0616 23.8624 15.1224 23.9499 15.1895 24.5816C15.2525 25.1746 15.3008 26.0484 15.3008 27.2734H25.3008ZM85.7148 10H95.7148C95.7148 4.47715 91.2377 0 85.7148 0V10ZM85.7148 49.875V59.875C91.2377 59.875 95.7148 55.3978 95.7148 49.875H85.7148ZM78.8398 49.875H68.8398C68.8398 55.3978 73.317 59.875 78.8398 59.875V49.875ZM78.8398 27.3164H88.8398C88.8398 21.7936 84.3627 17.3164 78.8398 17.3164V27.3164ZM68.957 27.3164H58.957C58.957 32.8393 63.4342 37.3164 68.957 37.3164V27.3164ZM68.957 21.8164V11.8164C63.4342 11.8164 58.957 16.2936 58.957 21.8164H68.957ZM78.8398 21.8164V31.8164C84.3627 31.8164 88.8398 27.3393 88.8398 21.8164H78.8398ZM78.8398 10V0C73.317 0 68.8398 4.47715 68.8398 10H78.8398ZM60.6211 14.168H70.6211C70.6211 8.64512 66.1439 4.16797 60.6211 4.16797V14.168ZM60.6211 34.9648H50.6211C50.6211 37.6579 51.7073 40.2371 53.6339 42.1188C55.5605 44.0005 58.1646 45.0256 60.8569 44.9621L60.6211 34.9648ZM75.1016 33.418L85.0278 32.2056C84.6915 29.4523 83.2268 26.9624 80.9836 25.3308C78.7404 23.6993 75.9204 23.0728 73.1974 23.6009L75.1016 33.418ZM75.7891 39.0469L77.8755 48.8268C82.9412 47.7461 86.3433 42.9761 85.7153 37.8345L75.7891 39.0469ZM57.2695 40.6797L57.3459 30.68C57.3204 30.6798 57.295 30.6797 57.2695 30.6797V40.6797ZM53.7461 40.6797H43.7461C43.7461 46.2025 48.2232 50.6797 53.7461 50.6797V40.6797ZM53.7461 14.168V4.16797C48.2232 4.16797 43.7461 8.64512 43.7461 14.168H53.7461ZM85.7148 10H75.7148V49.875H85.7148H95.7148V10H85.7148ZM85.7148 49.875V39.875H78.8398V49.875V59.875H85.7148V49.875ZM78.8398 49.875H88.8398V27.3164H78.8398L68.8398 27.3164V49.875H78.8398ZM78.8398 27.3164V17.3164L68.957 17.3164V27.3164V37.3164H78.8398V27.3164ZM68.957 27.3164L78.957 27.3164V21.8164L68.957 21.8164H58.957V27.3164H68.957ZM68.957 21.8164V31.8164H78.8398V21.8164V11.8164H68.957V21.8164ZM78.8398 21.8164H88.8398V10H78.8398H68.8398V21.8164L78.8398 21.8164ZM78.8398 10V20H85.7148V10V0L78.8398 0V10ZM60.6211 14.168H50.6211V34.9648H60.6211H70.6211V14.168H60.6211ZM60.6211 34.9648L60.8569 44.9621C65.9174 44.8427 71.4203 44.3184 77.0057 43.235L75.1016 33.418L73.1974 23.6009C68.8141 24.4511 64.4342 24.8721 60.3853 24.9676L60.6211 34.9648ZM75.1016 33.418L65.1753 34.6303L65.8628 40.2592L75.7891 39.0469L85.7153 37.8345L85.0278 32.2056L75.1016 33.418ZM75.7891 39.0469L73.7027 29.2669C68.2481 30.4306 62.6048 30.7201 57.3459 30.68L57.2695 40.6797L57.1932 50.6794C63.1921 50.7252 70.4394 50.4132 77.8755 48.8268L75.7891 39.0469ZM57.2695 40.6797V30.6797H53.7461V40.6797V50.6797H57.2695V40.6797ZM53.7461 40.6797H63.7461V14.168H53.7461H43.7461V40.6797H53.7461ZM53.7461 14.168V24.168H60.6211V14.168V4.16797H53.7461V14.168ZM115.406 35.9961L123.676 41.6192C125.373 39.1228 125.852 35.9932 124.979 33.1034C124.105 30.2136 121.973 27.8729 119.177 26.7345L115.406 35.9961ZM111.754 41.3672L107.957 50.6185C112.331 52.4134 117.365 50.8999 120.023 46.9903L111.754 41.3672ZM102.559 31.7422L111.853 28.0525C110.323 24.198 106.572 21.6879 102.426 21.7431C98.2789 21.7982 94.5965 24.4071 93.1694 28.3009L102.559 31.7422ZM93.1914 42.3984L85.0541 48.2108C87.8062 52.0637 92.8832 53.4585 97.2174 51.5522L93.1914 42.3984ZM89.3242 36.9844L85.345 27.8102C82.5746 29.0118 80.4956 31.401 79.6882 34.3108C78.8809 37.2206 79.4317 40.3395 81.1869 42.7968L89.3242 36.9844ZM98.8633 19.2812H108.863C108.863 13.7584 104.386 9.28125 98.8633 9.28125V19.2812ZM91.043 19.2812H81.043C81.043 24.8041 85.5201 29.2812 91.043 29.2812V19.2812ZM91.043 13.6953V3.69531C85.5201 3.69531 81.043 8.17247 81.043 13.6953H91.043ZM113.516 13.6953H123.516C123.516 8.17247 119.038 3.69531 113.516 3.69531V13.6953ZM113.516 19.2812V29.2812C119.038 29.2812 123.516 24.8041 123.516 19.2812H113.516ZM105.91 19.2812V9.28125C100.387 9.28125 95.9102 13.7584 95.9102 19.2812H105.91ZM123.355 10H133.355C133.355 4.47715 128.878 0 123.355 0V10ZM123.355 49.7461V59.7461C128.878 59.7461 133.355 55.2689 133.355 49.7461H123.355ZM116.395 49.7461H106.395C106.395 55.2689 110.872 59.7461 116.395 59.7461V49.7461ZM116.395 10V0C110.872 0 106.395 4.47715 106.395 10L116.395 10ZM105.91 19.9687H95.9102C95.9102 28.2505 99.1226 40.1628 111.635 45.2577L115.406 35.9961L119.177 26.7345C117.976 26.2452 117.33 25.5594 116.854 24.638C116.29 23.5438 115.91 21.937 115.91 19.9687H105.91ZM115.406 35.9961L107.137 30.373L103.485 35.7441L111.754 41.3672L120.023 46.9903L123.676 41.6192L115.406 35.9961ZM111.754 41.3672L115.55 32.1159C113.926 31.4494 112.729 30.2591 111.853 28.0525L102.559 31.7422L93.2642 35.4319C95.7827 41.776 100.472 47.5467 107.957 50.6185L111.754 41.3672ZM102.559 31.7422L93.1694 28.3009C92.1068 31.1999 90.7028 32.5685 89.1654 33.2447L93.1914 42.3984L97.2174 51.5522C104.961 48.1464 109.53 41.7805 111.948 35.1835L102.559 31.7422ZM93.1914 42.3984L101.329 36.5861L97.4616 31.172L89.3242 36.9844L81.1869 42.7968L85.0541 48.2108L93.1914 42.3984ZM89.3242 36.9844L93.3034 46.1586C105.724 40.7711 108.863 28.4633 108.863 19.9687H98.8633H88.8633C88.8633 22.1894 88.4489 24.0718 87.7959 25.3991C87.2183 26.573 86.4762 27.3196 85.345 27.8102L89.3242 36.9844ZM98.8633 19.9687H108.863V19.2812H98.8633H88.8633V19.9687H98.8633ZM98.8633 19.2812V9.28125H91.043V19.2812V29.2812H98.8633V19.2812ZM91.043 19.2812H101.043V13.6953H91.043H81.043V19.2812H91.043ZM91.043 13.6953V23.6953H113.516V13.6953V3.69531L91.043 3.69531V13.6953ZM113.516 13.6953H103.516V19.2812H113.516H123.516V13.6953H113.516ZM113.516 19.2812V9.28125L105.91 9.28125V19.2812V29.2812H113.516V19.2812ZM105.91 19.2812H95.9102V19.9687H105.91H115.91V19.2812H105.91ZM123.355 10H113.355V49.7461H123.355H133.355V10H123.355ZM123.355 49.7461V39.7461H116.395V49.7461V59.7461H123.355V49.7461ZM116.395 49.7461H126.395V10H116.395L106.395 10V49.7461H116.395ZM116.395 10V20H123.355V10V0L116.395 0V10ZM171.223 34.1055H181.223C181.223 28.5826 176.745 24.1055 171.223 24.1055V34.1055ZM171.223 49.4023V59.4023C176.745 59.4023 181.223 54.9252 181.223 49.4023H171.223ZM144.152 49.4023L134.152 49.4023C134.152 54.9252 138.629 59.4023 144.152 59.4023V49.4023ZM144.152 34.1055V24.1055C138.629 24.1055 134.152 28.5826 134.152 34.1055L144.152 34.1055ZM150.984 39.5195V29.5195C145.462 29.5195 140.984 33.9967 140.984 39.5195H150.984ZM150.984 43.9023H140.984C140.984 49.4252 145.462 53.9023 150.984 53.9023V43.9023ZM164.52 43.9023V53.9023C170.042 53.9023 174.52 49.4252 174.52 43.9023H164.52ZM164.52 39.5195H174.52C174.52 33.9967 170.042 29.5195 164.52 29.5195V39.5195ZM146.344 11.9336H156.344C156.344 6.41075 151.867 1.93359 146.344 1.93359V11.9336ZM146.344 26.0273H136.344C136.344 28.7305 137.438 31.3185 139.377 33.2016C141.317 35.0847 143.936 36.1025 146.638 36.023L146.344 26.0273ZM160.523 24.5664L170.452 23.372C170.122 20.6267 168.669 18.1406 166.44 16.5046C164.211 14.8685 161.404 14.2286 158.686 14.7367L160.523 24.5664ZM161.211 30.2812L163.121 40.0971C168.267 39.0956 171.765 34.2911 171.139 29.0869L161.211 30.2812ZM143.035 31.7852L143.113 21.7855C143.087 21.7853 143.061 21.7852 143.035 21.7852V31.7852ZM139.555 31.7852H129.555C129.555 37.308 134.032 41.7852 139.555 41.7852V31.7852ZM139.555 11.9336V1.93359C134.032 1.93359 129.555 6.41075 129.555 11.9336H139.555ZM171.223 10L181.223 10C181.223 4.47715 176.745 0 171.223 0V10ZM171.223 32.6016V42.6016C176.745 42.6016 181.223 38.1244 181.223 32.6016H171.223ZM164.348 32.6016H154.348C154.348 38.1244 158.825 42.6016 164.348 42.6016V32.6016ZM164.348 21.6875H174.348C174.348 16.1647 169.87 11.6875 164.348 11.6875V21.6875ZM155.539 21.6875H145.539C145.539 27.2103 150.016 31.6875 155.539 31.6875V21.6875ZM155.539 16.1875V6.1875C150.016 6.1875 145.539 10.6647 145.539 16.1875H155.539ZM164.348 16.1875V26.1875C169.87 26.1875 174.348 21.7103 174.348 16.1875H164.348ZM164.348 10V0C158.825 0 154.348 4.47715 154.348 10H164.348ZM171.223 34.1055H161.223V49.4023H171.223H181.223V34.1055H171.223ZM171.223 49.4023V39.4023H144.152V49.4023V59.4023H171.223V49.4023ZM144.152 49.4023H154.152V34.1055H144.152L134.152 34.1055V49.4023L144.152 49.4023ZM144.152 34.1055V44.1055H171.223V34.1055V24.1055H144.152V34.1055ZM150.984 39.5195H140.984V43.9023H150.984H160.984V39.5195H150.984ZM150.984 43.9023V53.9023H164.52V43.9023V33.9023H150.984V43.9023ZM164.52 43.9023H174.52V39.5195H164.52H154.52V43.9023H164.52ZM164.52 39.5195V29.5195H150.984V39.5195V49.5195H164.52V39.5195ZM146.344 11.9336H136.344V26.0273H146.344H156.344V11.9336H146.344ZM146.344 26.0273L146.638 36.023C151.408 35.8827 156.796 35.4365 162.361 34.3961L160.523 24.5664L158.686 14.7367C154.368 15.5439 150.045 15.9142 146.05 16.0317L146.344 26.0273ZM160.523 24.5664L150.595 25.7608L151.283 31.4756L161.211 30.2812L171.139 29.0869L170.452 23.372L160.523 24.5664ZM161.211 30.2812L159.3 20.4654C153.774 21.541 148.217 21.8253 143.113 21.7855L143.035 31.7852L142.957 41.7849C148.853 41.8309 155.843 41.5137 163.121 40.0971L161.211 30.2812ZM143.035 31.7852V21.7852H139.555V31.7852V41.7852L143.035 41.7852V31.7852ZM139.555 31.7852L149.555 31.7852V11.9336H139.555H129.555V31.7852H139.555ZM139.555 11.9336V21.9336H146.344V11.9336V1.93359H139.555V11.9336ZM171.223 10H161.223V32.6016H171.223H181.223V10L171.223 10ZM171.223 32.6016V22.6016H164.348V32.6016V42.6016H171.223V32.6016ZM164.348 32.6016H174.348V21.6875H164.348H154.348V32.6016H164.348ZM164.348 21.6875V11.6875H155.539V21.6875V31.6875H164.348V21.6875ZM155.539 21.6875H165.539V16.1875H155.539H145.539V21.6875H155.539ZM155.539 16.1875V26.1875H164.348V16.1875V6.1875H155.539V16.1875ZM164.348 16.1875H174.348V10L164.348 10H154.348V16.1875H164.348ZM164.348 10V20H171.223V10V0L164.348 0V10ZM208.906 10H218.906C218.906 4.47715 214.429 0 208.906 0V10ZM208.906 49.7461V59.7461C214.429 59.7461 218.906 55.2689 218.906 49.7461H208.906ZM202.031 49.7461H192.031C192.031 55.2689 196.508 59.7461 202.031 59.7461V49.7461ZM202.031 10V0C196.508 0 192.031 4.47715 192.031 10H202.031ZM200.914 36.7266L209.119 42.4431C210.855 39.9515 211.365 36.8061 210.504 33.8937C209.644 30.9814 207.507 28.6178 204.696 27.4693L200.914 36.7266ZM197.262 41.9687L193.626 51.2845C197.931 52.9643 202.825 51.4764 205.467 47.6853L197.262 41.9687ZM188.152 32.6875L197.366 28.8005C195.788 25.0602 192.105 22.6449 188.046 22.6881C183.987 22.7312 180.356 25.2241 178.858 28.9972L188.152 32.6875ZM178.871 42.5273L170.635 48.1984C173.272 52.0294 178.203 53.5359 182.532 51.8332L178.871 42.5273ZM175.262 37.2852L171.295 28.1055C168.549 29.2922 166.478 31.6464 165.651 34.5219C164.824 37.3973 165.329 40.4919 167.025 42.9562L175.262 37.2852ZM184.629 21.6875H194.629C194.629 16.1647 190.152 11.6875 184.629 11.6875V21.6875ZM176.766 21.6875H166.766C166.766 27.2103 171.243 31.6875 176.766 31.6875V21.6875ZM176.766 16.2305V6.23047C171.243 6.23047 166.766 10.7076 166.766 16.2305H176.766ZM184.586 16.2305V26.2305C190.109 26.2305 194.586 21.7533 194.586 16.2305H184.586ZM184.586 11.0312V1.03125C179.063 1.03125 174.586 5.5084 174.586 11.0312H184.586ZM191.461 11.0312H201.461C201.461 5.5084 196.984 1.03125 191.461 1.03125V11.0312ZM191.461 16.2305H181.461C181.461 21.7533 185.938 26.2305 191.461 26.2305V16.2305ZM199.152 16.2305L209.152 16.2305C209.152 10.7076 204.675 6.23047 199.152 6.23047V16.2305ZM199.152 21.6875V31.6875C204.675 31.6875 209.152 27.2103 209.152 21.6875L199.152 21.6875ZM191.547 21.6875V11.6875C186.024 11.6875 181.547 16.1647 181.547 21.6875H191.547ZM208.906 10H198.906V49.7461H208.906H218.906V10H208.906ZM208.906 49.7461V39.7461H202.031V49.7461V59.7461H208.906V49.7461ZM202.031 49.7461H212.031V10H202.031H192.031V49.7461H202.031ZM202.031 10V20L208.906 20V10V0H202.031V10ZM191.547 22.2031H181.547C181.547 29.9923 185.157 41.0916 197.132 45.9838L200.914 36.7266L204.696 27.4693C203.406 26.9424 202.753 26.2242 202.327 25.4579C201.824 24.5544 201.547 23.3727 201.547 22.2031H191.547ZM200.914 36.7266L192.709 31.01L189.057 36.2522L197.262 41.9687L205.467 47.6853L209.119 42.4431L200.914 36.7266ZM197.262 41.9687L200.897 32.653C199.518 32.1146 198.289 30.9891 197.366 28.8005L188.152 32.6875L178.939 36.5745C181.496 42.6359 186.197 48.3854 193.626 51.2845L197.262 41.9687ZM188.152 32.6875L178.858 28.9972C177.861 31.5089 176.545 32.6965 175.21 33.2214L178.871 42.5273L182.532 51.8332C190.264 48.7918 194.963 42.6317 197.447 36.3778L188.152 32.6875ZM178.871 42.5273L187.108 36.8563L183.498 31.6141L175.262 37.2852L167.025 42.9562L170.635 48.1984L178.871 42.5273ZM175.262 37.2852L179.228 46.4648C191.017 41.3711 194.629 30.1614 194.629 22.2031H184.629H174.629C174.629 23.5167 174.323 24.8491 173.762 25.8848C173.268 26.797 172.549 27.5636 171.295 28.1055L175.262 37.2852ZM184.629 22.2031H194.629V21.6875H184.629H174.629V22.2031H184.629ZM184.629 21.6875V11.6875H176.766V21.6875V31.6875H184.629V21.6875ZM176.766 21.6875H186.766V16.2305H176.766H166.766V21.6875H176.766ZM176.766 16.2305V26.2305H184.586V16.2305V6.23047H176.766V16.2305ZM184.586 16.2305H194.586V11.0312H184.586H174.586V16.2305H184.586ZM184.586 11.0312V21.0312H191.461V11.0312V1.03125L184.586 1.03125V11.0312ZM191.461 11.0312H181.461V16.2305H191.461H201.461V11.0312H191.461ZM191.461 16.2305V26.2305H199.152V16.2305V6.23047H191.461V16.2305ZM199.152 16.2305H189.152V21.6875H199.152L209.152 21.6875V16.2305L199.152 16.2305ZM199.152 21.6875V11.6875H191.547V21.6875V31.6875H199.152V21.6875ZM191.547 21.6875H181.547V22.2031H191.547H201.547V21.6875H191.547ZM245.816 20.0977H255.816C255.816 14.5748 251.339 10.0977 245.816 10.0977V20.0977ZM245.816 25.4258V35.4258C251.339 35.4258 255.816 30.9486 255.816 25.4258H245.816ZM217.715 25.4258H207.715C207.715 30.9486 212.192 35.4258 217.715 35.4258V25.4258ZM217.715 11.418V1.41797C212.192 1.41797 207.715 5.89512 207.715 11.418H217.715ZM224.59 11.418H234.59C234.59 5.89512 230.113 1.41797 224.59 1.41797V11.418ZM224.59 20.0977H214.59C214.59 25.6205 219.067 30.0977 224.59 30.0977V20.0977ZM249.727 28.9492H259.727C259.727 23.4264 255.249 18.9492 249.727 18.9492V28.9492ZM249.727 34.2773V44.2773C255.249 44.2773 259.727 39.8002 259.727 34.2773H249.727ZM213.461 34.2773H203.461C203.461 39.8002 207.938 44.2773 213.461 44.2773V34.2773ZM213.461 28.9492V18.9492C207.938 18.9492 203.461 23.4264 203.461 28.9492H213.461ZM246.074 43.4727H256.074C256.074 37.9498 251.597 33.4727 246.074 33.4727V43.4727ZM246.074 48.9727V58.9727C251.597 58.9727 256.074 54.4955 256.074 48.9727H246.074ZM217.242 48.9727H207.242C207.242 54.4955 211.719 58.9727 217.242 58.9727V48.9727ZM217.242 37.0273V27.0273C211.719 27.0273 207.242 31.5045 207.242 37.0273H217.242ZM224.203 37.0273H234.203C234.203 31.5045 229.726 27.0273 224.203 27.0273V37.0273ZM224.203 43.4727H214.203C214.203 48.9955 218.68 53.4727 224.203 53.4727V43.4727ZM245.816 20.0977H235.816V25.4258H245.816H255.816V20.0977H245.816ZM245.816 25.4258V15.4258H217.715V25.4258V35.4258H245.816V25.4258ZM217.715 25.4258H227.715V11.418H217.715H207.715V25.4258H217.715ZM217.715 11.418V21.418H224.59V11.418V1.41797L217.715 1.41797V11.418ZM224.59 11.418H214.59V20.0977H224.59H234.59V11.418H224.59ZM224.59 20.0977V30.0977H245.816V20.0977V10.0977L224.59 10.0977V20.0977ZM249.727 28.9492H239.727V34.2773H249.727H259.727V28.9492H249.727ZM249.727 34.2773V24.2773H213.461V34.2773V44.2773H249.727V34.2773ZM213.461 34.2773H223.461V28.9492H213.461H203.461V34.2773H213.461ZM213.461 28.9492V38.9492H249.727V28.9492V18.9492H213.461V28.9492ZM246.074 43.4727H236.074V48.9727H246.074H256.074V43.4727H246.074ZM246.074 48.9727V38.9727H217.242V48.9727V58.9727H246.074V48.9727ZM217.242 48.9727H227.242V37.0273H217.242H207.242V48.9727H217.242ZM217.242 37.0273V47.0273H224.203V37.0273V27.0273H217.242V37.0273ZM224.203 37.0273H214.203V43.4727H224.203H234.203V37.0273H224.203ZM224.203 43.4727V53.4727H246.074V43.4727V33.4727H224.203V43.4727Z" fill="white" mask="url(#path-1-outside-1_6524_1759)"/>
</g>
<defs>
<filter id="filter0_d_6524_1759" x="0" y="0" width="263.727" height="67.875" filterUnits="userSpaceOnUse" color-interpolation-filters="sRGB">
<feFlood flood-opacity="0" result="BackgroundImageFix"/>
<feColorMatrix in="SourceAlpha" type="matrix" values="0 0 0 0 0 0 0 0 0 0 0 0 0 0 0 0 0 0 127 0" result="hardAlpha"/>
<feOffset dy="4"/>
<feGaussianBlur stdDeviation="2"/>
<feComposite in2="hardAlpha" operator="out"/>
<feColorMatrix type="matrix" values="0 0 0 0 0 0 0 0 0 0 0 0 0 0 0 0 0 0 0.07 0"/>
<feBlend mode="normal" in2="BackgroundImageFix" result="effect1_dropShadow_6524_1759"/>
<feBlend mode="normal" in="SourceGraphic" in2="effect1_dropShadow_6524_1759" result="shape"/>
</filter>
</defs>
</svg>
