<svg width="435" height="69" viewBox="0 0 435 69" fill="none" xmlns="http://www.w3.org/2000/svg">
<g filter="url(#filter0_d_6524_1847)">
<mask id="path-1-outside-1_6524_1847" maskUnits="userSpaceOnUse" x="3.66797" y="-0.25" width="428" height="61" fill="black">
<rect fill="white" x="3.66797" y="-0.25" width="428" height="61"/>
<path d="M47.3867 35.3516V50.0039H40.5117V40.7656H19.7578V35.3516H47.3867ZM47.3867 10.2578V33.8477H40.5117V29.25H32.5195C30.5645 31.1621 27.8359 32.3008 24.7422 32.3008C18.6836 32.3008 13.957 28.0469 14 22.2031C13.957 16.4883 18.6836 12.3203 24.7422 12.3203C27.8145 12.3203 30.543 13.4375 32.4766 15.2852H40.5117V10.2578L47.3867 10.2578ZM24.7422 18.1211C22.25 18.1211 20.4883 19.4961 20.5312 22.2031C20.4883 25.0391 22.25 26.457 24.7422 26.457C27.0195 26.457 28.8242 25.0391 28.8672 22.2031C28.8242 19.4961 27.0195 18.1211 24.7422 18.1211ZM35.2695 23.793H40.5117V20.8281H35.3125C35.3555 21.2793 35.3984 21.7305 35.3984 22.2031C35.3984 22.7402 35.3555 23.2773 35.2695 23.793ZM83.3945 10.3008V18.207H88.3789V23.6641H83.3945V31.4844H76.4766V10.3008H83.3945ZM83.3945 32.8164V43.6016H63.2422V44.8477H84.3398V49.832H56.4102V39.0469H76.5195V37.6719H56.4102V32.8164H83.3945ZM75.0586 12.8359V17.9922H51.5547V12.8359H59.8477V10.1289H66.7656V12.8359H75.0586ZM63.2852 18.4219C69.3438 18.4648 73.2109 21 73.2109 24.9102C73.2109 28.9922 69.3438 31.3984 63.2852 31.3984C57.2695 31.3984 53.2734 28.9922 53.2734 24.9102C53.2734 21 57.2695 18.4648 63.2852 18.4219ZM63.2852 23.1914C61.2227 23.1914 60.0195 23.707 60.0195 24.9102C60.0195 26.1992 61.2227 26.543 63.2852 26.5859C65.4336 26.543 66.6797 26.1992 66.6797 24.9102C66.6797 23.707 65.4336 23.1914 63.2852 23.1914ZM135.473 30.2383V35.6094H121.336V41.1094H114.504V35.6094H99.207V30.2383H135.473ZM131.52 43.9453V49.4453H103.16V38.3594H109.992V43.9453H131.52ZM110.465 11.5469V15.1133H124.043V11.5469H130.875V28.1758H103.719V11.5469L110.465 11.5469ZM110.465 22.8047H124.043V20.1406H110.465V22.8047ZM169.031 10.2578V18.7656H173.973V24.3945H169.031V32.4297H162.113V10.2578H169.031ZM156.355 12.6641V18.0781H145.441V26.0273C152.102 26.0059 155.689 25.7266 159.578 24.9531L160.266 30.2812C155.668 31.3984 151.156 31.5273 142.047 31.4844L138.566 31.4844V12.6641H156.355ZM169.031 33.8477V49.5742H142.52V33.8477H169.031ZM149.309 39.2617V44.2461H162.242V39.2617H149.309ZM193.395 10.7734C202.719 10.7734 208.047 13.1367 208.09 17.4766C208.047 21.8594 202.719 24.2227 193.395 24.2227C184.027 24.2227 178.613 21.8594 178.656 17.4766C178.613 13.1367 184.027 10.7734 193.395 10.7734ZM193.395 15.7578C188.023 15.7578 185.875 16.2734 185.875 17.4766C185.875 18.9375 188.023 19.1953 193.395 19.2383C198.809 19.1953 200.957 18.9375 200.957 17.4766C200.957 16.2734 198.809 15.7578 193.395 15.7578ZM211.527 25.5547V31.0117H175.262V25.5547L211.527 25.5547ZM207.23 32.5156V43.4727H186.047V44.7617H208.176V49.832H179.301V38.7461H200.441V37.543H179.344V32.5156H207.23ZM256.688 10.2578V33.418H249.812V29.1211H243.668V31.6562H224.375V13.1367H243.668V15.7148H249.812V10.2578H256.688ZM231.25 18.5508V26.2852H236.922V18.5508H231.25ZM242.852 34.3633C251.488 34.3633 256.773 37.2852 256.773 42.2266C256.773 47.2109 251.488 50.0898 242.852 50.0898C234.301 50.0898 229.016 47.2109 229.016 42.2266C229.016 37.2852 234.301 34.3633 242.852 34.3633ZM242.852 39.5625C238.125 39.5625 235.848 40.293 235.891 42.2266C235.848 44.0742 238.125 44.8906 242.852 44.8906C247.621 44.8906 249.941 44.0742 249.941 42.2266C249.941 40.293 247.621 39.5625 242.852 39.5625ZM243.668 23.5781H249.812V21.043H243.668V23.5781ZM293.125 10.3437V21.2578H297.68V26.8867H293.125V37.5859H286.25V10.3437H293.125ZM260.297 31.7852C263.025 31.7852 266.076 31.7637 269.234 31.6992V29.8516C265.131 29.1641 262.617 27.1016 262.617 24.1797C262.617 20.4844 266.57 18.207 272.629 18.207C278.602 18.207 282.598 20.4844 282.598 24.1797C282.598 27.0586 280.105 29.1211 276.109 29.8516V31.4844C279.074 31.334 282.018 31.1191 284.789 30.7969L285.262 35.4375C277.012 36.8984 267.988 36.9844 260.984 37.0273L260.297 31.7852ZM293.125 38.875V50.0039H286.25V44.1602H265.453V38.875H293.125ZM283.93 12.793V17.6914H261.371V12.793H269.234V10H276.109V12.793H283.93ZM272.629 22.7187C270.352 22.7187 269.191 23.0195 269.191 24.1797C269.191 25.2539 270.352 25.7266 272.629 25.7266C274.863 25.7266 275.98 25.2539 276.023 24.1797C275.98 23.0195 274.863 22.7187 272.629 22.7187ZM332.484 10.2578V50.0039H325.523V10.2578H332.484ZM323.246 15.9727V21.4297H299.742V15.9727H307.992V10.9023H315.039V15.9727H323.246ZM311.559 22.9336C317.531 22.9336 322.043 26.9727 322.043 32.6016C322.043 38.2734 317.531 42.3125 311.559 42.3125C305.586 42.3125 301.074 38.2734 301.074 32.6016C301.074 26.9727 305.586 22.9336 311.559 22.9336ZM311.559 28.4766C309.238 28.4766 307.648 29.9375 307.648 32.6016C307.648 35.3945 309.238 36.7266 311.559 36.7266C313.879 36.7266 315.426 35.3945 315.426 32.6016C315.426 29.9375 313.879 28.4766 311.559 28.4766ZM378.246 10.2578V25.3398H383.617V30.9687H378.246V50.0039H371.414V10.2578H378.246ZM369.48 15.9297V21.3867H346.32V15.9297H354.527V10.9883H361.402V15.9297H369.48ZM357.965 22.9336C363.852 22.9336 368.363 26.9727 368.363 32.6016C368.363 38.2734 363.852 42.3125 357.965 42.3125C351.949 42.3125 347.523 38.2734 347.523 32.6016C347.523 26.9727 351.949 22.9336 357.965 22.9336ZM357.965 28.4766C355.73 28.4766 354.098 29.9375 354.141 32.6016C354.098 35.3945 355.73 36.7266 357.965 36.7266C360.156 36.7266 361.746 35.3945 361.746 32.6016C361.746 29.9375 360.156 28.4766 357.965 28.4766ZM416.918 20.3555V25.6836H388.816V11.6758H395.691V20.3555H416.918ZM420.828 29.207V34.5352L384.562 34.5352V29.207L420.828 29.207ZM417.176 43.7305V49.2305L388.344 49.2305V37.2852H395.305V43.7305L417.176 43.7305Z"/>
</mask>
<path d="M47.3867 35.3516V50.0039H40.5117V40.7656H19.7578V35.3516H47.3867ZM47.3867 10.2578V33.8477H40.5117V29.25H32.5195C30.5645 31.1621 27.8359 32.3008 24.7422 32.3008C18.6836 32.3008 13.957 28.0469 14 22.2031C13.957 16.4883 18.6836 12.3203 24.7422 12.3203C27.8145 12.3203 30.543 13.4375 32.4766 15.2852H40.5117V10.2578L47.3867 10.2578ZM24.7422 18.1211C22.25 18.1211 20.4883 19.4961 20.5312 22.2031C20.4883 25.0391 22.25 26.457 24.7422 26.457C27.0195 26.457 28.8242 25.0391 28.8672 22.2031C28.8242 19.4961 27.0195 18.1211 24.7422 18.1211ZM35.2695 23.793H40.5117V20.8281H35.3125C35.3555 21.2793 35.3984 21.7305 35.3984 22.2031C35.3984 22.7402 35.3555 23.2773 35.2695 23.793ZM83.3945 10.3008V18.207H88.3789V23.6641H83.3945V31.4844H76.4766V10.3008H83.3945ZM83.3945 32.8164V43.6016H63.2422V44.8477H84.3398V49.832H56.4102V39.0469H76.5195V37.6719H56.4102V32.8164H83.3945ZM75.0586 12.8359V17.9922H51.5547V12.8359H59.8477V10.1289H66.7656V12.8359H75.0586ZM63.2852 18.4219C69.3438 18.4648 73.2109 21 73.2109 24.9102C73.2109 28.9922 69.3438 31.3984 63.2852 31.3984C57.2695 31.3984 53.2734 28.9922 53.2734 24.9102C53.2734 21 57.2695 18.4648 63.2852 18.4219ZM63.2852 23.1914C61.2227 23.1914 60.0195 23.707 60.0195 24.9102C60.0195 26.1992 61.2227 26.543 63.2852 26.5859C65.4336 26.543 66.6797 26.1992 66.6797 24.9102C66.6797 23.707 65.4336 23.1914 63.2852 23.1914ZM135.473 30.2383V35.6094H121.336V41.1094H114.504V35.6094H99.207V30.2383H135.473ZM131.52 43.9453V49.4453H103.16V38.3594H109.992V43.9453H131.52ZM110.465 11.5469V15.1133H124.043V11.5469H130.875V28.1758H103.719V11.5469L110.465 11.5469ZM110.465 22.8047H124.043V20.1406H110.465V22.8047ZM169.031 10.2578V18.7656H173.973V24.3945H169.031V32.4297H162.113V10.2578H169.031ZM156.355 12.6641V18.0781H145.441V26.0273C152.102 26.0059 155.689 25.7266 159.578 24.9531L160.266 30.2812C155.668 31.3984 151.156 31.5273 142.047 31.4844L138.566 31.4844V12.6641H156.355ZM169.031 33.8477V49.5742H142.52V33.8477H169.031ZM149.309 39.2617V44.2461H162.242V39.2617H149.309ZM193.395 10.7734C202.719 10.7734 208.047 13.1367 208.09 17.4766C208.047 21.8594 202.719 24.2227 193.395 24.2227C184.027 24.2227 178.613 21.8594 178.656 17.4766C178.613 13.1367 184.027 10.7734 193.395 10.7734ZM193.395 15.7578C188.023 15.7578 185.875 16.2734 185.875 17.4766C185.875 18.9375 188.023 19.1953 193.395 19.2383C198.809 19.1953 200.957 18.9375 200.957 17.4766C200.957 16.2734 198.809 15.7578 193.395 15.7578ZM211.527 25.5547V31.0117H175.262V25.5547L211.527 25.5547ZM207.23 32.5156V43.4727H186.047V44.7617H208.176V49.832H179.301V38.7461H200.441V37.543H179.344V32.5156H207.23ZM256.688 10.2578V33.418H249.812V29.1211H243.668V31.6562H224.375V13.1367H243.668V15.7148H249.812V10.2578H256.688ZM231.25 18.5508V26.2852H236.922V18.5508H231.25ZM242.852 34.3633C251.488 34.3633 256.773 37.2852 256.773 42.2266C256.773 47.2109 251.488 50.0898 242.852 50.0898C234.301 50.0898 229.016 47.2109 229.016 42.2266C229.016 37.2852 234.301 34.3633 242.852 34.3633ZM242.852 39.5625C238.125 39.5625 235.848 40.293 235.891 42.2266C235.848 44.0742 238.125 44.8906 242.852 44.8906C247.621 44.8906 249.941 44.0742 249.941 42.2266C249.941 40.293 247.621 39.5625 242.852 39.5625ZM243.668 23.5781H249.812V21.043H243.668V23.5781ZM293.125 10.3437V21.2578H297.68V26.8867H293.125V37.5859H286.25V10.3437H293.125ZM260.297 31.7852C263.025 31.7852 266.076 31.7637 269.234 31.6992V29.8516C265.131 29.1641 262.617 27.1016 262.617 24.1797C262.617 20.4844 266.57 18.207 272.629 18.207C278.602 18.207 282.598 20.4844 282.598 24.1797C282.598 27.0586 280.105 29.1211 276.109 29.8516V31.4844C279.074 31.334 282.018 31.1191 284.789 30.7969L285.262 35.4375C277.012 36.8984 267.988 36.9844 260.984 37.0273L260.297 31.7852ZM293.125 38.875V50.0039H286.25V44.1602H265.453V38.875H293.125ZM283.93 12.793V17.6914H261.371V12.793H269.234V10H276.109V12.793H283.93ZM272.629 22.7187C270.352 22.7187 269.191 23.0195 269.191 24.1797C269.191 25.2539 270.352 25.7266 272.629 25.7266C274.863 25.7266 275.98 25.2539 276.023 24.1797C275.98 23.0195 274.863 22.7187 272.629 22.7187ZM332.484 10.2578V50.0039H325.523V10.2578H332.484ZM323.246 15.9727V21.4297H299.742V15.9727H307.992V10.9023H315.039V15.9727H323.246ZM311.559 22.9336C317.531 22.9336 322.043 26.9727 322.043 32.6016C322.043 38.2734 317.531 42.3125 311.559 42.3125C305.586 42.3125 301.074 38.2734 301.074 32.6016C301.074 26.9727 305.586 22.9336 311.559 22.9336ZM311.559 28.4766C309.238 28.4766 307.648 29.9375 307.648 32.6016C307.648 35.3945 309.238 36.7266 311.559 36.7266C313.879 36.7266 315.426 35.3945 315.426 32.6016C315.426 29.9375 313.879 28.4766 311.559 28.4766ZM378.246 10.2578V25.3398H383.617V30.9687H378.246V50.0039H371.414V10.2578H378.246ZM369.48 15.9297V21.3867H346.32V15.9297H354.527V10.9883H361.402V15.9297H369.48ZM357.965 22.9336C363.852 22.9336 368.363 26.9727 368.363 32.6016C368.363 38.2734 363.852 42.3125 357.965 42.3125C351.949 42.3125 347.523 38.2734 347.523 32.6016C347.523 26.9727 351.949 22.9336 357.965 22.9336ZM357.965 28.4766C355.73 28.4766 354.098 29.9375 354.141 32.6016C354.098 35.3945 355.73 36.7266 357.965 36.7266C360.156 36.7266 361.746 35.3945 361.746 32.6016C361.746 29.9375 360.156 28.4766 357.965 28.4766ZM416.918 20.3555V25.6836H388.816V11.6758H395.691V20.3555H416.918ZM420.828 29.207V34.5352L384.562 34.5352V29.207L420.828 29.207ZM417.176 43.7305V49.2305L388.344 49.2305V37.2852H395.305V43.7305L417.176 43.7305Z" fill="#11DCA9"/>
<path d="M47.3867 35.3516H57.3867C57.3867 29.8287 52.9096 25.3516 47.3867 25.3516V35.3516ZM47.3867 50.0039V60.0039C52.9096 60.0039 57.3867 55.5268 57.3867 50.0039H47.3867ZM40.5117 50.0039H30.5117C30.5117 55.5268 34.9889 60.0039 40.5117 60.0039V50.0039ZM40.5117 40.7656H50.5117C50.5117 35.2428 46.0346 30.7656 40.5117 30.7656V40.7656ZM19.7578 40.7656H9.75781C9.75781 46.2885 14.235 50.7656 19.7578 50.7656V40.7656ZM19.7578 35.3516V25.3516C14.235 25.3516 9.75781 29.8287 9.75781 35.3516H19.7578ZM47.3867 10.2578H57.3867C57.3867 4.73496 52.9096 0.257812 47.3867 0.257812V10.2578ZM47.3867 33.8477V43.8477C52.9096 43.8477 57.3867 39.3705 57.3867 33.8477H47.3867ZM40.5117 33.8477H30.5117C30.5117 39.3705 34.9889 43.8477 40.5117 43.8477V33.8477ZM40.5117 29.25H50.5117C50.5117 23.7272 46.0346 19.25 40.5117 19.25V29.25ZM32.5195 29.25V19.25C29.9058 19.25 27.396 20.2733 25.5275 22.1008L32.5195 29.25ZM14 22.2031L23.9997 22.2767C24.0001 22.2271 24.0001 22.1775 23.9997 22.1279L14 22.2031ZM32.4766 15.2852L25.568 22.5151C27.4286 24.293 29.9031 25.2852 32.4766 25.2852V15.2852ZM40.5117 15.2852V25.2852C46.0346 25.2852 50.5117 20.808 50.5117 15.2852H40.5117ZM40.5117 10.2578V0.257812C34.9889 0.257812 30.5117 4.73496 30.5117 10.2578H40.5117ZM20.5312 22.2031L30.5301 22.3546C30.5317 22.2512 30.5316 22.1478 30.53 22.0444L20.5312 22.2031ZM28.8672 22.2031L38.866 22.3546C38.8676 22.2512 38.8676 22.1478 38.8659 22.0444L28.8672 22.2031ZM35.2695 23.793L25.4056 22.149C24.9223 25.0485 25.7393 28.0138 27.6393 30.2567C29.5394 32.4996 32.33 33.793 35.2695 33.793V23.793ZM40.5117 23.793V33.793C46.0346 33.793 50.5117 29.3158 50.5117 23.793H40.5117ZM40.5117 20.8281H50.5117C50.5117 15.3053 46.0346 10.8281 40.5117 10.8281V20.8281ZM35.3125 20.8281V10.8281C32.4954 10.8281 29.809 12.0163 27.9138 14.1006C26.0186 16.1849 25.0905 18.9718 25.3575 21.7762L35.3125 20.8281ZM47.3867 35.3516H37.3867V50.0039H47.3867H57.3867V35.3516H47.3867ZM47.3867 50.0039V40.0039H40.5117V50.0039V60.0039H47.3867V50.0039ZM40.5117 50.0039H50.5117V40.7656H40.5117H30.5117V50.0039H40.5117ZM40.5117 40.7656V30.7656H19.7578V40.7656V50.7656H40.5117V40.7656ZM19.7578 40.7656H29.7578V35.3516H19.7578H9.75781L9.75781 40.7656H19.7578ZM19.7578 35.3516V45.3516H47.3867V35.3516V25.3516H19.7578V35.3516ZM47.3867 10.2578L37.3867 10.2578V33.8477H47.3867H57.3867V10.2578H47.3867ZM47.3867 33.8477V23.8477H40.5117V33.8477V43.8477H47.3867V33.8477ZM40.5117 33.8477H50.5117V29.25H40.5117H30.5117V33.8477H40.5117ZM40.5117 29.25V19.25H32.5195V29.25V39.25H40.5117V29.25ZM32.5195 29.25L25.5275 22.1008C25.5076 22.1203 25.4584 22.162 25.3538 22.2037C25.2509 22.2448 25.0553 22.3008 24.7422 22.3008V32.3008V42.3008C30.3378 42.3008 35.6095 40.2156 39.5116 36.3992L32.5195 29.25ZM24.7422 32.3008V22.3008C24.0606 22.3008 23.8443 22.0754 23.8844 22.1125C23.9 22.127 23.9425 22.1749 23.9762 22.2523C24.0126 22.3359 23.9991 22.3622 23.9997 22.2767L14 22.2031L4.00027 22.1296C3.91088 34.2869 13.926 42.3008 24.7422 42.3008V32.3008ZM14 22.2031L23.9997 22.1279C23.9996 22.1078 23.9997 22.1898 23.9439 22.3151C23.8915 22.4328 23.8291 22.5004 23.8067 22.5208C23.7588 22.5643 24.0017 22.3203 24.7422 22.3203V12.3203V2.32031C14.1357 2.32031 3.9084 10.0574 4.00028 22.2783L14 22.2031ZM24.7422 12.3203V22.3203C25.3769 22.3203 25.5911 22.5371 25.568 22.5151L32.4766 15.2852L39.3851 8.05525C35.4949 4.33789 30.252 2.32031 24.7422 2.32031V12.3203ZM32.4766 15.2852V25.2852H40.5117V15.2852V5.28516H32.4766V15.2852ZM40.5117 15.2852H50.5117V10.2578L40.5117 10.2578H30.5117V15.2852H40.5117ZM40.5117 10.2578V20.2578H47.3867V10.2578V0.257812H40.5117V10.2578ZM24.7422 18.1211V8.12109C21.7476 8.12109 18.0166 8.95422 14.9408 11.7644C11.7008 14.7247 10.4744 18.7015 10.5325 22.3618L20.5312 22.2031L30.53 22.0444C30.5451 22.9978 30.1781 24.9335 28.4312 26.5295C26.8487 27.9755 25.2446 28.1211 24.7422 28.1211V18.1211ZM20.5312 22.2031L10.5324 22.0516C10.4782 25.6315 11.6099 29.6155 14.7999 32.6449C17.877 35.5669 21.6682 36.457 24.7422 36.457V26.457V16.457C25.324 16.457 26.9883 16.6381 28.5722 18.1423C30.269 19.7536 30.5414 21.6107 30.5301 22.3546L20.5312 22.2031ZM24.7422 26.457V36.457C27.938 36.457 31.6091 35.4376 34.5548 32.62C37.5702 29.7357 38.8117 25.9388 38.866 22.3546L28.8672 22.2031L18.8683 22.0516C18.8797 21.3033 19.1974 19.6335 20.7304 18.1671C22.1936 16.7675 23.8237 16.457 24.7422 16.457V26.457ZM28.8672 22.2031L38.8659 22.0444C38.8079 18.3869 37.4727 14.6033 34.4143 11.7887C31.4666 9.076 27.8524 8.12109 24.7422 8.12109V18.1211V28.1211C23.9094 28.1211 22.3361 27.8537 20.8709 26.5052C19.2949 25.0549 18.8835 23.3123 18.8684 22.3618L28.8672 22.2031ZM35.2695 23.793V33.793H40.5117V23.793V13.793H35.2695V23.793ZM40.5117 23.793H50.5117V20.8281H40.5117H30.5117V23.793H40.5117ZM40.5117 20.8281V10.8281H35.3125V20.8281V30.8281H40.5117V20.8281ZM35.3125 20.8281L25.3575 21.7762C25.3688 21.8941 25.3766 21.9762 25.3834 22.0535C25.39 22.1273 25.3939 22.1767 25.3964 22.2117C25.4014 22.2818 25.3984 22.2674 25.3984 22.2031H35.3984H45.3984C45.3984 21.1813 45.3043 20.2669 45.2675 19.88L35.3125 20.8281ZM35.3984 22.2031H25.3984C25.3984 22.206 25.3983 22.2059 25.3987 22.2006C25.3991 22.1956 25.4006 22.1787 25.4056 22.149L35.2695 23.793L45.1335 25.437C45.3142 24.3527 45.3984 23.2648 45.3984 22.2031H35.3984ZM83.3945 10.3008H93.3945C93.3945 4.77793 88.9174 0.300781 83.3945 0.300781V10.3008ZM83.3945 18.207L73.3945 18.207C73.3945 23.7299 77.8717 28.207 83.3945 28.207V18.207ZM88.3789 18.207H98.3789C98.3789 12.6842 93.9018 8.20703 88.3789 8.20703V18.207ZM88.3789 23.6641V33.6641C93.9018 33.6641 98.3789 29.1869 98.3789 23.6641H88.3789ZM83.3945 23.6641V13.6641C77.8717 13.6641 73.3945 18.1412 73.3945 23.6641L83.3945 23.6641ZM83.3945 31.4844V41.4844C88.9174 41.4844 93.3945 37.0072 93.3945 31.4844H83.3945ZM76.4766 31.4844H66.4766C66.4766 37.0072 70.9537 41.4844 76.4766 41.4844V31.4844ZM76.4766 10.3008V0.300781C70.9537 0.300781 66.4766 4.77793 66.4766 10.3008H76.4766ZM83.3945 32.8164H93.3945C93.3945 27.2936 88.9174 22.8164 83.3945 22.8164V32.8164ZM83.3945 43.6016V53.6016C88.9174 53.6016 93.3945 49.1244 93.3945 43.6016H83.3945ZM63.2422 43.6016V33.6016C57.7193 33.6016 53.2422 38.0787 53.2422 43.6016H63.2422ZM63.2422 44.8477H53.2422C53.2422 50.3705 57.7193 54.8477 63.2422 54.8477V44.8477ZM84.3398 44.8477H94.3398C94.3398 39.3248 89.8627 34.8477 84.3398 34.8477V44.8477ZM84.3398 49.832V59.832C89.8627 59.832 94.3398 55.3549 94.3398 49.832H84.3398ZM56.4102 49.832H46.4102C46.4102 55.3549 50.8873 59.832 56.4102 59.832V49.832ZM56.4102 39.0469V29.0469C50.8873 29.0469 46.4102 33.524 46.4102 39.0469H56.4102ZM76.5195 39.0469V49.0469C82.0424 49.0469 86.5195 44.5697 86.5195 39.0469H76.5195ZM76.5195 37.6719H86.5195C86.5195 32.149 82.0424 27.6719 76.5195 27.6719V37.6719ZM56.4102 37.6719H46.4102C46.4102 43.1947 50.8873 47.6719 56.4102 47.6719V37.6719ZM56.4102 32.8164V22.8164C50.8873 22.8164 46.4102 27.2936 46.4102 32.8164H56.4102ZM75.0586 12.8359L85.0586 12.8359C85.0586 7.31309 80.5814 2.83594 75.0586 2.83594V12.8359ZM75.0586 17.9922V27.9922C80.5814 27.9922 85.0586 23.515 85.0586 17.9922L75.0586 17.9922ZM51.5547 17.9922H41.5547C41.5547 23.515 46.0318 27.9922 51.5547 27.9922V17.9922ZM51.5547 12.8359V2.83594C46.0318 2.83594 41.5547 7.31309 41.5547 12.8359H51.5547ZM59.8477 12.8359V22.8359C65.3705 22.8359 69.8477 18.3588 69.8477 12.8359H59.8477ZM59.8477 10.1289V0.128906C54.3248 0.128906 49.8477 4.60606 49.8477 10.1289H59.8477ZM66.7656 10.1289H76.7656C76.7656 4.60606 72.2885 0.128906 66.7656 0.128906V10.1289ZM66.7656 12.8359H56.7656C56.7656 18.3588 61.2428 22.8359 66.7656 22.8359V12.8359ZM63.2852 18.4219L63.3561 8.42213C63.3086 8.42179 63.2612 8.42179 63.2137 8.42213L63.2852 18.4219ZM63.2852 26.5859L63.0769 36.5838C63.2129 36.5866 63.349 36.5867 63.4851 36.5839L63.2852 26.5859ZM83.3945 10.3008H73.3945V18.207L83.3945 18.207H93.3945V10.3008H83.3945ZM83.3945 18.207V28.207H88.3789V18.207V8.20703H83.3945V18.207ZM88.3789 18.207H78.3789V23.6641H88.3789H98.3789V18.207H88.3789ZM88.3789 23.6641V13.6641H83.3945V23.6641V33.6641H88.3789V23.6641ZM83.3945 23.6641L73.3945 23.6641V31.4844H83.3945H93.3945V23.6641H83.3945ZM83.3945 31.4844V21.4844L76.4766 21.4844V31.4844V41.4844H83.3945V31.4844ZM76.4766 31.4844H86.4766V10.3008H76.4766H66.4766V31.4844H76.4766ZM76.4766 10.3008V20.3008L83.3945 20.3008V10.3008V0.300781H76.4766V10.3008ZM83.3945 32.8164H73.3945V43.6016H83.3945H93.3945V32.8164H83.3945ZM83.3945 43.6016V33.6016H63.2422V43.6016V53.6016H83.3945V43.6016ZM63.2422 43.6016H53.2422V44.8477H63.2422H73.2422V43.6016H63.2422ZM63.2422 44.8477V54.8477H84.3398V44.8477V34.8477H63.2422V44.8477ZM84.3398 44.8477H74.3398V49.832H84.3398H94.3398V44.8477H84.3398ZM84.3398 49.832V39.832H56.4102V49.832V59.832H84.3398V49.832ZM56.4102 49.832H66.4102V39.0469H56.4102H46.4102V49.832H56.4102ZM56.4102 39.0469V49.0469H76.5195V39.0469V29.0469H56.4102V39.0469ZM76.5195 39.0469H86.5195V37.6719H76.5195H66.5195V39.0469H76.5195ZM76.5195 37.6719V27.6719H56.4102V37.6719V47.6719H76.5195V37.6719ZM56.4102 37.6719H66.4102V32.8164H56.4102H46.4102V37.6719H56.4102ZM56.4102 32.8164V42.8164H83.3945V32.8164V22.8164L56.4102 22.8164V32.8164ZM75.0586 12.8359H65.0586V17.9922H75.0586L85.0586 17.9922V12.8359L75.0586 12.8359ZM75.0586 17.9922V7.99219H51.5547V17.9922V27.9922H75.0586V17.9922ZM51.5547 17.9922H61.5547V12.8359H51.5547H41.5547V17.9922H51.5547ZM51.5547 12.8359V22.8359H59.8477V12.8359V2.83594H51.5547V12.8359ZM59.8477 12.8359H69.8477V10.1289H59.8477H49.8477V12.8359H59.8477ZM59.8477 10.1289V20.1289H66.7656V10.1289V0.128906H59.8477V10.1289ZM66.7656 10.1289H56.7656V12.8359H66.7656L76.7656 12.8359V10.1289H66.7656ZM66.7656 12.8359V22.8359H75.0586V12.8359V2.83594H66.7656V12.8359ZM63.2852 18.4219L63.2142 28.4216C64.0543 28.4276 64.6265 28.52 64.9578 28.6031C65.298 28.6885 65.2783 28.7365 65.0454 28.5841C64.7949 28.4202 64.2953 28.0175 63.862 27.2704C63.4092 26.49 63.2109 25.643 63.2109 24.9102H73.2109L83.2109 24.9102C83.2109 19.1402 80.1528 14.5678 75.9946 11.8475C72.1574 9.33718 67.5956 8.45219 63.3561 8.42213L63.2852 18.4219ZM73.2109 24.9102H63.2109C63.2109 24.2959 63.3725 23.484 63.8309 22.6823C64.2746 21.9065 64.8053 21.4713 65.1005 21.2809C65.3696 21.1074 65.4165 21.1494 65.0744 21.231C64.7412 21.3103 64.1557 21.3984 63.2852 21.3984V31.3984V41.3984C67.4426 41.3984 72.0417 40.6027 75.9395 38.0892C80.2539 35.307 83.2109 30.6527 83.2109 24.9102L73.2109 24.9102ZM63.2852 31.3984V21.3984C62.431 21.3984 61.8402 21.3115 61.4898 21.2284C61.129 21.1428 61.1447 21.0913 61.3838 21.2431C61.6449 21.4089 62.1687 21.8208 62.6193 22.5898C63.0902 23.3932 63.2734 24.2355 63.2734 24.9102H53.2734H43.2734C43.2734 30.7827 46.3859 35.4111 50.6631 38.127C54.553 40.597 59.134 41.3984 63.2852 41.3984V31.3984ZM53.2734 24.9102H63.2734C63.2734 25.7053 63.0513 26.583 62.5874 27.3633C62.1477 28.1028 61.6559 28.4828 61.4388 28.6226C61.2356 28.7535 61.2466 28.6957 61.6058 28.606C61.9549 28.5188 62.5327 28.4275 63.3566 28.4216L63.2852 18.4219L63.2137 8.42213C58.9823 8.45235 54.4375 9.34225 50.608 11.8091C46.4895 14.4621 43.2734 19.0111 43.2734 24.9102H53.2734ZM63.2852 23.1914V13.1914C61.7432 13.1914 59.055 13.3312 56.4068 14.6553C54.9412 15.3881 53.2358 16.6122 51.9192 18.587C50.5609 20.6245 50.0195 22.8595 50.0195 24.9102H60.0195H70.0195C70.0195 26.3592 69.6285 28.0786 68.5602 29.681C67.5337 31.2209 66.258 32.0904 65.351 32.5439C63.82 33.3094 62.7646 33.1914 63.2852 33.1914V23.1914ZM60.0195 24.9102H50.0195C50.0195 26.8458 50.4955 29.1546 51.9594 31.3165C53.391 33.4308 55.2553 34.6477 56.7607 35.328C59.3365 36.492 61.9705 36.5607 63.0769 36.5838L63.2852 26.5859L63.4934 16.5881C63.1978 16.5819 63.1833 16.568 63.3398 16.5907C63.4576 16.6078 64.1162 16.7046 64.9971 17.1027C65.9439 17.5306 67.3785 18.4171 68.5201 20.103C69.6939 21.8366 70.0195 23.619 70.0195 24.9102H60.0195ZM63.2852 26.5859L63.4851 36.5839C64.6215 36.5612 67.2314 36.4931 69.7785 35.3847C71.2583 34.7407 73.1554 33.5639 74.6353 31.4564C76.1652 29.2777 76.6797 26.9163 76.6797 24.9102L66.6797 24.9102H56.6797C56.6797 23.5486 57.0384 21.7135 58.2675 19.9631C59.4466 18.284 60.898 17.4375 61.7977 17.046C62.6434 16.678 63.261 16.5942 63.341 16.583C63.4613 16.5663 63.4114 16.5814 63.0852 16.5879L63.2852 26.5859ZM66.6797 24.9102L76.6797 24.9102C76.6797 22.7858 76.0959 20.4996 74.677 18.4472C73.3138 16.4755 71.5743 15.2868 70.1262 14.5896C67.5025 13.3263 64.8385 13.1914 63.2852 13.1914V23.1914V33.1914C63.8802 33.1914 62.9136 33.3143 61.4499 32.6096C60.5819 32.1917 59.2882 31.3575 58.2258 29.8209C57.1077 28.2036 56.6797 26.4329 56.6797 24.9102H66.6797ZM135.473 30.2383L145.473 30.2383C145.473 24.7154 140.995 20.2383 135.473 20.2383V30.2383ZM135.473 35.6094V45.6094C140.995 45.6094 145.473 41.1322 145.473 35.6094L135.473 35.6094ZM121.336 35.6094V25.6094C115.813 25.6094 111.336 30.0865 111.336 35.6094H121.336ZM121.336 41.1094V51.1094C126.859 51.1094 131.336 46.6322 131.336 41.1094H121.336ZM114.504 41.1094H104.504C104.504 46.6322 108.981 51.1094 114.504 51.1094V41.1094ZM114.504 35.6094H124.504C124.504 30.0865 120.027 25.6094 114.504 25.6094V35.6094ZM99.207 35.6094H89.207C89.207 41.1322 93.6842 45.6094 99.207 45.6094V35.6094ZM99.207 30.2383V20.2383C93.6842 20.2383 89.207 24.7154 89.207 30.2383H99.207ZM131.52 43.9453L141.52 43.9453C141.52 38.4225 137.042 33.9453 131.52 33.9453V43.9453ZM131.52 49.4453V59.4453C137.042 59.4453 141.52 54.9682 141.52 49.4453L131.52 49.4453ZM103.16 49.4453H93.1602C93.1602 54.9682 97.6373 59.4453 103.16 59.4453V49.4453ZM103.16 38.3594V28.3594C97.6373 28.3594 93.1602 32.8365 93.1602 38.3594H103.16ZM109.992 38.3594H119.992C119.992 32.8365 115.515 28.3594 109.992 28.3594V38.3594ZM109.992 43.9453H99.9922C99.9922 49.4682 104.469 53.9453 109.992 53.9453V43.9453ZM110.465 11.5469H120.465C120.465 6.02403 115.988 1.54687 110.465 1.54687V11.5469ZM110.465 15.1133H100.465C100.465 20.6361 104.942 25.1133 110.465 25.1133V15.1133ZM124.043 15.1133V25.1133C129.566 25.1133 134.043 20.6361 134.043 15.1133H124.043ZM124.043 11.5469V1.54687C118.52 1.54687 114.043 6.02403 114.043 11.5469H124.043ZM130.875 11.5469H140.875C140.875 6.02403 136.398 1.54687 130.875 1.54687V11.5469ZM130.875 28.1758V38.1758C136.398 38.1758 140.875 33.6986 140.875 28.1758H130.875ZM103.719 28.1758H93.7188C93.7188 33.6986 98.1959 38.1758 103.719 38.1758V28.1758ZM103.719 11.5469V1.54687C98.1959 1.54687 93.7188 6.02403 93.7188 11.5469H103.719ZM110.465 22.8047H100.465C100.465 28.3275 104.942 32.8047 110.465 32.8047V22.8047ZM124.043 22.8047V32.8047C129.566 32.8047 134.043 28.3275 134.043 22.8047H124.043ZM124.043 20.1406H134.043C134.043 14.6178 129.566 10.1406 124.043 10.1406V20.1406ZM110.465 20.1406V10.1406C104.942 10.1406 100.465 14.6178 100.465 20.1406H110.465ZM135.473 30.2383H125.473V35.6094H135.473L145.473 35.6094V30.2383L135.473 30.2383ZM135.473 35.6094V25.6094H121.336V35.6094V45.6094H135.473V35.6094ZM121.336 35.6094H111.336V41.1094H121.336H131.336V35.6094H121.336ZM121.336 41.1094V31.1094H114.504V41.1094V51.1094H121.336V41.1094ZM114.504 41.1094H124.504V35.6094H114.504H104.504V41.1094H114.504ZM114.504 35.6094V25.6094H99.207V35.6094V45.6094H114.504V35.6094ZM99.207 35.6094H109.207V30.2383H99.207H89.207V35.6094H99.207ZM99.207 30.2383V40.2383H135.473V30.2383V20.2383H99.207V30.2383ZM131.52 43.9453H121.52V49.4453H131.52L141.52 49.4453V43.9453L131.52 43.9453ZM131.52 49.4453V39.4453H103.16V49.4453V59.4453H131.52V49.4453ZM103.16 49.4453H113.16V38.3594H103.16H93.1602V49.4453H103.16ZM103.16 38.3594V48.3594H109.992V38.3594V28.3594H103.16V38.3594ZM109.992 38.3594H99.9922V43.9453H109.992H119.992V38.3594H109.992ZM109.992 43.9453V53.9453H131.52V43.9453V33.9453H109.992V43.9453ZM110.465 11.5469L100.465 11.5469V15.1133H110.465H120.465V11.5469H110.465ZM110.465 15.1133V25.1133H124.043V15.1133V5.11328H110.465V15.1133ZM124.043 15.1133H134.043V11.5469H124.043H114.043V15.1133H124.043ZM124.043 11.5469V21.5469H130.875V11.5469V1.54687L124.043 1.54687V11.5469ZM130.875 11.5469H120.875V28.1758H130.875H140.875V11.5469H130.875ZM130.875 28.1758V18.1758H103.719V28.1758V38.1758H130.875V28.1758ZM103.719 28.1758H113.719V11.5469L103.719 11.5469H93.7188V28.1758H103.719ZM103.719 11.5469V21.5469H110.465V11.5469V1.54687H103.719V11.5469ZM110.465 22.8047V32.8047H124.043V22.8047V12.8047H110.465V22.8047ZM124.043 22.8047H134.043V20.1406H124.043H114.043V22.8047H124.043ZM124.043 20.1406V10.1406H110.465V20.1406V30.1406H124.043V20.1406ZM110.465 20.1406H100.465V22.8047H110.465H120.465V20.1406H110.465ZM169.031 10.2578L179.031 10.2578C179.031 4.73496 174.554 0.257812 169.031 0.257812V10.2578ZM169.031 18.7656H159.031C159.031 24.2885 163.508 28.7656 169.031 28.7656V18.7656ZM173.973 18.7656H183.973C183.973 13.2428 179.495 8.76562 173.973 8.76562V18.7656ZM173.973 24.3945V34.3945C179.495 34.3945 183.973 29.9174 183.973 24.3945H173.973ZM169.031 24.3945V14.3945C163.508 14.3945 159.031 18.8717 159.031 24.3945H169.031ZM169.031 32.4297V42.4297C174.554 42.4297 179.031 37.9525 179.031 32.4297H169.031ZM162.113 32.4297H152.113C152.113 37.9525 156.59 42.4297 162.113 42.4297V32.4297ZM162.113 10.2578V0.257812C156.59 0.257812 152.113 4.73496 152.113 10.2578H162.113ZM156.355 12.6641H166.355C166.355 7.14122 161.878 2.66406 156.355 2.66406V12.6641ZM156.355 18.0781V28.0781C161.878 28.0781 166.355 23.601 166.355 18.0781H156.355ZM145.441 18.0781V8.07812C139.919 8.07812 135.441 12.5553 135.441 18.0781H145.441ZM145.441 26.0273H135.441C135.441 28.6851 136.499 31.2335 138.382 33.1098C140.264 34.9861 142.816 36.0359 145.474 36.0273L145.441 26.0273ZM159.578 24.9531L169.496 23.6734C169.141 20.926 167.663 18.4487 165.413 16.8322C163.164 15.2157 160.344 14.6048 157.627 15.1452L159.578 24.9531ZM160.266 30.2812L162.627 39.9985C167.581 38.7948 170.836 34.0574 170.183 29.0015L160.266 30.2812ZM142.047 31.4844L142.094 21.4845C142.078 21.4844 142.063 21.4844 142.047 21.4844V31.4844ZM138.566 31.4844H128.566C128.566 37.0072 133.044 41.4844 138.566 41.4844V31.4844ZM138.566 12.6641V2.66406C133.044 2.66406 128.566 7.14122 128.566 12.6641H138.566ZM169.031 33.8477H179.031C179.031 28.3248 174.554 23.8477 169.031 23.8477V33.8477ZM169.031 49.5742V59.5742C174.554 59.5742 179.031 55.0971 179.031 49.5742H169.031ZM142.52 49.5742L132.52 49.5742C132.52 55.0971 136.997 59.5742 142.52 59.5742V49.5742ZM142.52 33.8477V23.8477C136.997 23.8477 132.52 28.3248 132.52 33.8477L142.52 33.8477ZM149.309 39.2617V29.2617C143.786 29.2617 139.309 33.7389 139.309 39.2617L149.309 39.2617ZM149.309 44.2461L139.309 44.2461C139.309 49.7689 143.786 54.2461 149.309 54.2461V44.2461ZM162.242 44.2461V54.2461C167.765 54.2461 172.242 49.7689 172.242 44.2461H162.242ZM162.242 39.2617H172.242C172.242 33.7389 167.765 29.2617 162.242 29.2617V39.2617ZM169.031 10.2578H159.031V18.7656H169.031H179.031V10.2578L169.031 10.2578ZM169.031 18.7656V28.7656H173.973V18.7656V8.76562L169.031 8.76562V18.7656ZM173.973 18.7656H163.973V24.3945H173.973H183.973V18.7656H173.973ZM173.973 24.3945V14.3945H169.031V24.3945V34.3945H173.973V24.3945ZM169.031 24.3945H159.031V32.4297H169.031H179.031V24.3945H169.031ZM169.031 32.4297V22.4297H162.113V32.4297V42.4297H169.031V32.4297ZM162.113 32.4297H172.113V10.2578H162.113H152.113V32.4297H162.113ZM162.113 10.2578V20.2578H169.031V10.2578V0.257812L162.113 0.257812V10.2578ZM156.355 12.6641H146.355V18.0781H156.355H166.355V12.6641H156.355ZM156.355 18.0781V8.07812H145.441V18.0781V28.0781H156.355V18.0781ZM145.441 18.0781H135.441V26.0273H145.441H155.441V18.0781H145.441ZM145.441 26.0273L145.474 36.0273C152.424 36.0049 156.736 35.7142 161.529 34.761L159.578 24.9531L157.627 15.1452C154.642 15.7389 151.779 16.0068 145.409 16.0274L145.441 26.0273ZM159.578 24.9531L149.66 26.2328L150.348 31.561L160.266 30.2812L170.183 29.0015L169.496 23.6734L159.578 24.9531ZM160.266 30.2812L157.904 20.564C154.674 21.349 151.361 21.5282 142.094 21.4845L142.047 31.4844L142 41.4843C150.951 41.5265 156.662 41.4479 162.627 39.9985L160.266 30.2812ZM142.047 31.4844V21.4844H138.566V31.4844V41.4844L142.047 41.4844V31.4844ZM138.566 31.4844L148.566 31.4844V12.6641H138.566H128.566V31.4844H138.566ZM138.566 12.6641V22.6641H156.355V12.6641V2.66406H138.566V12.6641ZM169.031 33.8477H159.031V49.5742H169.031H179.031V33.8477H169.031ZM169.031 49.5742V39.5742H142.52V49.5742V59.5742H169.031V49.5742ZM142.52 49.5742H152.52V33.8477H142.52L132.52 33.8477V49.5742L142.52 49.5742ZM142.52 33.8477V43.8477H169.031V33.8477V23.8477H142.52V33.8477ZM149.309 39.2617L139.309 39.2617V44.2461L149.309 44.2461H159.309V39.2617H149.309ZM149.309 44.2461V54.2461H162.242V44.2461V34.2461H149.309V44.2461ZM162.242 44.2461H172.242V39.2617H162.242H152.242V44.2461H162.242ZM162.242 39.2617V29.2617H149.309V39.2617V49.2617H162.242V39.2617ZM208.09 17.4766L218.089 17.5746C218.09 17.5089 218.09 17.4432 218.089 17.3776L208.09 17.4766ZM178.656 17.4766L188.656 17.5746C188.656 17.5089 188.656 17.4432 188.656 17.3776L178.656 17.4766ZM193.395 19.2383L193.315 29.238C193.368 29.2384 193.421 29.2384 193.474 29.238L193.395 19.2383ZM211.527 25.5547H221.527C221.527 20.0318 217.05 15.5547 211.527 15.5547V25.5547ZM211.527 31.0117V41.0117C217.05 41.0117 221.527 36.5346 221.527 31.0117H211.527ZM175.262 31.0117H165.262C165.262 36.5346 169.739 41.0117 175.262 41.0117V31.0117ZM175.262 25.5547V15.5547C169.739 15.5547 165.262 20.0318 165.262 25.5547H175.262ZM207.23 32.5156H217.23C217.23 26.9928 212.753 22.5156 207.23 22.5156V32.5156ZM207.23 43.4727V53.4727C212.753 53.4727 217.23 48.9955 217.23 43.4727H207.23ZM186.047 43.4727V33.4727C180.524 33.4727 176.047 37.9498 176.047 43.4727H186.047ZM186.047 44.7617H176.047C176.047 50.2846 180.524 54.7617 186.047 54.7617V44.7617ZM208.176 44.7617H218.176C218.176 39.2389 213.699 34.7617 208.176 34.7617V44.7617ZM208.176 49.832V59.832C213.699 59.832 218.176 55.3549 218.176 49.832H208.176ZM179.301 49.832H169.301C169.301 55.3549 173.778 59.832 179.301 59.832V49.832ZM179.301 38.7461V28.7461C173.778 28.7461 169.301 33.2232 169.301 38.7461H179.301ZM200.441 38.7461V48.7461C205.964 48.7461 210.441 44.2689 210.441 38.7461H200.441ZM200.441 37.543H210.441C210.441 32.0201 205.964 27.543 200.441 27.543V37.543ZM179.344 37.543H169.344C169.344 43.0658 173.821 47.543 179.344 47.543V37.543ZM179.344 32.5156V22.5156C173.821 22.5156 169.344 26.9928 169.344 32.5156H179.344ZM193.395 10.7734V20.7734C195.323 20.7734 196.862 20.897 198.041 21.0853C199.246 21.2778 199.876 21.5068 200.098 21.6072C200.328 21.7116 199.82 21.5382 199.213 20.7628C198.505 19.8581 198.101 18.6866 198.09 17.5756L208.09 17.4766L218.089 17.3776C218.017 10.0439 213.066 5.52457 208.347 3.38788C203.96 1.40137 198.648 0.773437 193.395 0.773437V10.7734ZM208.09 17.4766L198.09 17.3785C198.101 16.3019 198.489 15.1464 199.191 14.2429C199.795 13.4662 200.305 13.2894 200.082 13.3908C199.865 13.4893 199.24 13.7181 198.037 13.9107C196.861 14.099 195.323 14.2227 193.395 14.2227V24.2227V34.2227C198.645 34.2227 203.967 33.5957 208.364 31.5955C213.118 29.4327 218.018 24.8877 218.089 17.5746L208.09 17.4766ZM193.395 24.2227V14.2227C191.453 14.2227 189.898 14.0988 188.704 13.909C187.482 13.7146 186.842 13.4831 186.616 13.3809C186.378 13.2733 186.909 13.4539 187.535 14.2626C188.269 15.2122 188.667 16.4346 188.656 17.5746L178.656 17.4766L168.657 17.3785C168.583 24.866 173.639 29.4637 178.378 31.6055C182.783 33.5969 188.129 34.2227 193.395 34.2227V24.2227ZM178.656 17.4766L188.656 17.3776C188.667 18.553 188.254 19.7923 187.513 20.743C186.884 21.5505 186.354 21.7276 186.599 21.6171C186.831 21.513 187.476 21.2813 188.701 21.087C189.897 20.8972 191.453 20.7734 193.395 20.7734V10.7734V0.773437C188.126 0.773437 182.79 1.4001 178.394 3.37798C173.692 5.49313 168.582 10.0654 168.657 17.5756L178.656 17.4766ZM193.395 15.7578V5.75781C190.646 5.75781 187.776 5.86653 185.369 6.42283C184.213 6.68996 182.17 7.27045 180.232 8.74784C177.857 10.5581 175.875 13.594 175.875 17.4766H185.875H195.875C195.875 18.8821 195.544 20.3776 194.793 21.7795C194.065 23.1379 193.129 24.0648 192.357 24.653C191.611 25.2222 190.952 25.5273 190.582 25.6766C190.201 25.8307 189.939 25.8938 189.872 25.9092C189.768 25.9332 189.968 25.8808 190.654 25.8326C191.301 25.7872 192.193 25.7578 193.395 25.7578V15.7578ZM185.875 17.4766H175.875C175.875 20.7818 177.313 23.9638 180.014 26.1439C182.137 27.857 184.42 28.4365 185.576 28.6779C187.931 29.1699 190.839 29.2182 193.315 29.238L193.395 19.2383L193.475 9.2386C192.179 9.22823 191.225 9.20544 190.507 9.16566C189.739 9.12307 189.545 9.07535 189.665 9.10044C189.747 9.11742 190.065 9.18705 190.518 9.36652C190.966 9.54372 191.734 9.90189 192.575 10.5803C193.463 11.2972 194.374 12.3283 195.024 13.7077C195.67 15.0794 195.875 16.4054 195.875 17.4766H185.875ZM193.395 19.2383L193.474 29.238C195.97 29.2182 198.885 29.1698 201.242 28.6797C202.397 28.4395 204.683 27.8625 206.808 26.1511C209.517 23.9703 210.957 20.7842 210.957 17.4766L200.957 17.4766H190.957C190.957 16.4054 191.162 15.0776 191.81 13.7035C192.462 12.3215 193.375 11.2896 194.265 10.5731C195.107 9.89526 195.876 9.53827 196.322 9.36222C196.775 9.18384 197.091 9.11504 197.17 9.09864C197.285 9.07464 197.086 9.12274 196.31 9.16547C195.585 9.2054 194.622 9.22822 193.315 9.2386L193.395 19.2383ZM200.957 17.4766L210.957 17.4766C210.957 13.5907 208.971 10.5518 206.59 8.74098C204.65 7.26499 202.604 6.68659 201.448 6.42065C199.04 5.86644 196.162 5.75781 193.395 5.75781V15.7578V25.7578C194.608 25.7578 195.51 25.7873 196.165 25.833C196.858 25.8813 197.063 25.9343 196.964 25.9114C196.899 25.8966 196.639 25.8342 196.258 25.681C195.89 25.5327 195.231 25.2286 194.483 24.6599C193.71 24.072 192.772 23.1446 192.042 21.7839C191.288 20.3796 190.957 18.8823 190.957 17.4766H200.957ZM211.527 25.5547L201.527 25.5547V31.0117H211.527H221.527V25.5547H211.527ZM211.527 31.0117V21.0117L175.262 21.0117V31.0117V41.0117H211.527V31.0117ZM175.262 31.0117H185.262V25.5547H175.262H165.262V31.0117H175.262ZM175.262 25.5547V35.5547H211.527V25.5547V15.5547L175.262 15.5547V25.5547ZM207.23 32.5156H197.23V43.4727H207.23H217.23V32.5156H207.23ZM207.23 43.4727V33.4727H186.047V43.4727V53.4727H207.23V43.4727ZM186.047 43.4727H176.047V44.7617H186.047H196.047V43.4727H186.047ZM186.047 44.7617V54.7617H208.176V44.7617V34.7617H186.047V44.7617ZM208.176 44.7617H198.176V49.832H208.176H218.176V44.7617H208.176ZM208.176 49.832V39.832H179.301V49.832V59.832H208.176V49.832ZM179.301 49.832H189.301V38.7461H179.301H169.301V49.832H179.301ZM179.301 38.7461V48.7461H200.441V38.7461V28.7461H179.301V38.7461ZM200.441 38.7461H210.441V37.543H200.441H190.441V38.7461H200.441ZM200.441 37.543V27.543H179.344V37.543V47.543H200.441V37.543ZM179.344 37.543H189.344V32.5156H179.344H169.344V37.543H179.344ZM179.344 32.5156V42.5156H207.23V32.5156V22.5156L179.344 22.5156V32.5156ZM256.688 10.2578H266.688C266.688 4.73496 262.21 0.257812 256.688 0.257812V10.2578ZM256.688 33.418V43.418C262.21 43.418 266.688 38.9408 266.688 33.418H256.688ZM249.812 33.418H239.812C239.812 38.9408 244.29 43.418 249.812 43.418V33.418ZM249.812 29.1211H259.812C259.812 23.5982 255.335 19.1211 249.812 19.1211V29.1211ZM243.668 29.1211V19.1211C238.145 19.1211 233.668 23.5982 233.668 29.1211H243.668ZM243.668 31.6562V41.6562C249.191 41.6562 253.668 37.1791 253.668 31.6562H243.668ZM224.375 31.6562H214.375C214.375 37.1791 218.852 41.6562 224.375 41.6562V31.6562ZM224.375 13.1367V3.13672C218.852 3.13672 214.375 7.61387 214.375 13.1367H224.375ZM243.668 13.1367H253.668C253.668 7.61387 249.191 3.13672 243.668 3.13672V13.1367ZM243.668 15.7148H233.668C233.668 21.2377 238.145 25.7148 243.668 25.7148V15.7148ZM249.812 15.7148V25.7148C255.335 25.7148 259.812 21.2377 259.812 15.7148H249.812ZM249.812 10.2578V0.257812C244.29 0.257812 239.812 4.73496 239.812 10.2578H249.812ZM231.25 18.5508V8.55078C225.727 8.55078 221.25 13.0279 221.25 18.5508H231.25ZM231.25 26.2852H221.25C221.25 31.808 225.727 36.2852 231.25 36.2852V26.2852ZM236.922 26.2852V36.2852C242.445 36.2852 246.922 31.808 246.922 26.2852H236.922ZM236.922 18.5508H246.922C246.922 13.0279 242.445 8.55078 236.922 8.55078V18.5508ZM235.891 42.2266L245.888 42.4591C245.891 42.3075 245.892 42.1559 245.888 42.0044L235.891 42.2266ZM243.668 23.5781H233.668C233.668 29.101 238.145 33.5781 243.668 33.5781V23.5781ZM249.812 23.5781V33.5781C255.335 33.5781 259.812 29.101 259.812 23.5781H249.812ZM249.812 21.043H259.812C259.812 15.5201 255.335 11.043 249.812 11.043V21.043ZM243.668 21.043V11.043C238.145 11.043 233.668 15.5201 233.668 21.043H243.668ZM256.688 10.2578H246.688V33.418H256.688H266.688V10.2578H256.688ZM256.688 33.418V23.418H249.812V33.418V43.418H256.688V33.418ZM249.812 33.418H259.812V29.1211H249.812H239.812V33.418H249.812ZM249.812 29.1211V19.1211H243.668V29.1211V39.1211H249.812V29.1211ZM243.668 29.1211H233.668V31.6562H243.668H253.668V29.1211H243.668ZM243.668 31.6562V21.6562H224.375V31.6562V41.6562H243.668V31.6562ZM224.375 31.6562H234.375V13.1367H224.375H214.375V31.6562H224.375ZM224.375 13.1367V23.1367H243.668V13.1367V3.13672H224.375V13.1367ZM243.668 13.1367H233.668V15.7148H243.668H253.668V13.1367H243.668ZM243.668 15.7148V25.7148H249.812V15.7148V5.71484H243.668V15.7148ZM249.812 15.7148H259.812V10.2578H249.812H239.812V15.7148H249.812ZM249.812 10.2578V20.2578H256.688V10.2578V0.257812H249.812V10.2578ZM231.25 18.5508H221.25V26.2852H231.25H241.25V18.5508H231.25ZM231.25 26.2852V36.2852H236.922V26.2852V16.2852H231.25V26.2852ZM236.922 26.2852H246.922V18.5508H236.922H226.922V26.2852H236.922ZM236.922 18.5508V8.55078L231.25 8.55078V18.5508V28.5508H236.922V18.5508ZM242.852 34.3633V44.3633C244.466 44.3633 245.727 44.5014 246.659 44.6927C247.608 44.8874 248.053 45.1041 248.155 45.1613C248.241 45.2092 247.849 45.009 247.431 44.3674C246.972 43.6623 246.773 42.866 246.773 42.2266H256.773H266.773C266.773 35.4393 262.838 30.4686 257.947 27.7225C253.476 25.2119 248.076 24.3633 242.852 24.3633V34.3633ZM256.773 42.2266H246.773C246.773 41.6145 246.963 40.8241 247.426 40.1118C247.848 39.4622 248.248 39.2559 248.17 39.2996C248.073 39.3537 247.63 39.569 246.678 39.7627C245.742 39.953 244.474 40.0898 242.852 40.0898V50.0898V60.0898C248.053 60.0898 253.455 59.2593 257.933 56.7551C262.857 54.0011 266.773 49.0162 266.773 42.2266H256.773ZM242.852 50.0898V40.0898C241.256 40.0898 240.009 39.9539 239.089 39.7655C238.152 39.5736 237.717 39.3609 237.625 39.309C237.551 39.2672 237.949 39.474 238.367 40.1199C238.826 40.8281 239.016 41.6149 239.016 42.2266H229.016H219.016C219.016 49.0087 222.924 53.99 227.829 56.7457C232.296 59.255 237.68 60.0898 242.852 60.0898V50.0898ZM229.016 42.2266H239.016C239.016 42.8656 238.817 43.6583 238.362 44.3593C237.948 44.9972 237.558 45.1979 237.64 45.1519C237.738 45.0968 238.175 44.8827 239.107 44.6898C240.024 44.5004 241.265 44.3633 242.852 44.3633V34.3633V24.3633C237.656 24.3633 232.274 25.2163 227.814 27.7319C222.943 30.4797 219.016 35.4469 219.016 42.2266H229.016ZM242.852 39.5625V29.5625C240.335 29.5625 237.06 29.7077 234.134 30.783C232.555 31.3632 230.373 32.4635 228.587 34.6242C226.628 36.9944 225.834 39.8063 225.893 42.4487L235.891 42.2266L245.888 42.0044C245.925 43.6801 245.4 45.6756 244.004 47.365C242.781 48.8449 241.456 49.4 241.031 49.5558C240.586 49.7197 240.451 49.6927 240.882 49.6442C241.268 49.6007 241.9 49.5625 242.852 49.5625V39.5625ZM235.891 42.2266L225.893 41.9941C225.83 44.7316 226.694 47.5295 228.625 49.8377C230.377 51.9329 232.501 53.0233 234.057 53.6094C236.979 54.7102 240.241 54.8906 242.852 54.8906V44.8906V34.8906C241.933 34.8906 241.323 34.8496 240.957 34.8056C240.55 34.7567 240.678 34.7314 241.108 34.8936C241.509 35.0445 242.777 35.5844 243.966 37.0069C245.334 38.6424 245.93 40.6454 245.888 42.4591L235.891 42.2266ZM242.852 44.8906V54.8906C245.49 54.8906 248.742 54.7077 251.654 53.6305C253.199 53.0592 255.297 52.0035 257.055 49.9785C258.993 47.7463 259.941 44.9939 259.941 42.2266H249.941H239.941C239.941 40.383 240.599 38.4255 241.953 36.8661C243.128 35.5139 244.348 35.0087 244.716 34.8724C245.116 34.7244 245.216 34.7537 244.793 34.8039C244.409 34.8495 243.783 34.8906 242.852 34.8906V44.8906ZM249.941 42.2266H259.941C259.941 39.5503 259.064 36.7796 257.094 34.483C255.301 32.3932 253.145 31.3281 251.578 30.7628C248.661 29.7104 245.398 29.5625 242.852 29.5625V39.5625V49.5625C243.816 49.5625 244.463 49.6008 244.867 49.6457C245.314 49.6953 245.207 49.7259 244.792 49.5761C244.401 49.4351 243.124 48.9151 241.915 47.5062C240.529 45.8903 239.941 43.9361 239.941 42.2266H249.941ZM243.668 23.5781V33.5781H249.812V23.5781V13.5781H243.668V23.5781ZM249.812 23.5781H259.812V21.043H249.812H239.812V23.5781H249.812ZM249.812 21.043V11.043H243.668V21.043V31.043H249.812V21.043ZM243.668 21.043H233.668V23.5781H243.668H253.668V21.043H243.668ZM293.125 10.3437L303.125 10.3437C303.125 4.8209 298.648 0.34375 293.125 0.34375V10.3437ZM293.125 21.2578H283.125C283.125 26.7807 287.602 31.2578 293.125 31.2578V21.2578ZM297.68 21.2578H307.68C307.68 15.735 303.203 11.2578 297.68 11.2578V21.2578ZM297.68 26.8867V36.8867C303.203 36.8867 307.68 32.4096 307.68 26.8867H297.68ZM293.125 26.8867V16.8867C287.602 16.8867 283.125 21.3639 283.125 26.8867H293.125ZM293.125 37.5859V47.5859C298.648 47.5859 303.125 43.1088 303.125 37.5859H293.125ZM286.25 37.5859H276.25C276.25 43.1088 280.727 47.5859 286.25 47.5859V37.5859ZM286.25 10.3437V0.34375C280.727 0.34375 276.25 4.8209 276.25 10.3437H286.25ZM260.297 31.7852V21.7852C257.418 21.7852 254.679 23.0259 252.78 25.1898C250.881 27.3538 250.007 30.2311 250.382 33.0855L260.297 31.7852ZM269.234 31.6992L269.438 41.6971C274.881 41.5861 279.234 37.1425 279.234 31.6992H269.234ZM269.234 29.8516H279.234C279.234 24.9664 275.705 20.7962 270.887 19.989L269.234 29.8516ZM276.109 29.8516L274.311 20.0146C269.561 20.8829 266.109 25.0223 266.109 29.8516H276.109ZM276.109 31.4844H266.109C266.109 34.2245 267.234 36.8445 269.22 38.7323C271.206 40.6202 273.879 41.6103 276.616 41.4715L276.109 31.4844ZM284.789 30.7969L294.738 29.7836C294.466 27.1205 293.139 24.6773 291.052 23.0009C288.965 21.3244 286.293 20.5546 283.634 20.8638L284.789 30.7969ZM285.262 35.4375L287.005 45.2843C292.162 44.3711 295.741 39.6342 295.21 34.4242L285.262 35.4375ZM260.984 37.0273L251.069 38.3277C251.725 43.3284 256.002 47.0581 261.046 47.0272L260.984 37.0273ZM293.125 38.875H303.125C303.125 33.3522 298.648 28.875 293.125 28.875V38.875ZM293.125 50.0039V60.0039C298.648 60.0039 303.125 55.5268 303.125 50.0039H293.125ZM286.25 50.0039H276.25C276.25 55.5268 280.727 60.0039 286.25 60.0039V50.0039ZM286.25 44.1602H296.25C296.25 38.6373 291.773 34.1602 286.25 34.1602V44.1602ZM265.453 44.1602H255.453C255.453 49.683 259.93 54.1602 265.453 54.1602V44.1602ZM265.453 38.875V28.875C259.93 28.875 255.453 33.3522 255.453 38.875H265.453ZM283.93 12.793H293.93C293.93 7.27012 289.453 2.79297 283.93 2.79297V12.793ZM283.93 17.6914V27.6914C289.453 27.6914 293.93 23.2143 293.93 17.6914H283.93ZM261.371 17.6914H251.371C251.371 23.2143 255.848 27.6914 261.371 27.6914V17.6914ZM261.371 12.793V2.79297C255.848 2.79297 251.371 7.27012 251.371 12.793H261.371ZM269.234 12.793V22.793C274.757 22.793 279.234 18.3158 279.234 12.793H269.234ZM269.234 10V0C263.712 0 259.234 4.47715 259.234 10H269.234ZM276.109 10H286.109C286.109 4.47715 281.632 0 276.109 0V10ZM276.109 12.793H266.109C266.109 18.3158 270.587 22.793 276.109 22.793V12.793ZM276.023 24.1797L286.015 24.5794C286.026 24.3229 286.026 24.0661 286.017 23.8096L276.023 24.1797ZM293.125 10.3437H283.125V21.2578H293.125H303.125V10.3437L293.125 10.3437ZM293.125 21.2578V31.2578H297.68V21.2578V11.2578H293.125V21.2578ZM297.68 21.2578H287.68V26.8867H297.68H307.68V21.2578H297.68ZM297.68 26.8867V16.8867H293.125V26.8867V36.8867H297.68V26.8867ZM293.125 26.8867H283.125V37.5859H293.125H303.125V26.8867H293.125ZM293.125 37.5859V27.5859H286.25V37.5859V47.5859H293.125V37.5859ZM286.25 37.5859H296.25V10.3437H286.25H276.25V37.5859H286.25ZM286.25 10.3437V20.3437H293.125V10.3437V0.34375L286.25 0.34375V10.3437ZM260.297 31.7852V41.7852C263.076 41.7852 266.197 41.7633 269.438 41.6971L269.234 31.6992L269.03 21.7013C265.956 21.764 262.975 21.7852 260.297 21.7852V31.7852ZM269.234 31.6992H279.234V29.8516H269.234H259.234V31.6992H269.234ZM269.234 29.8516L270.887 19.989C269.983 19.8376 270.203 19.6746 270.85 20.2231C271.214 20.5309 271.688 21.0509 272.063 21.8203C272.447 22.608 272.617 23.4344 272.617 24.1797H262.617H252.617C252.617 28.8615 254.763 32.8067 257.924 35.484C260.854 37.966 264.382 39.178 267.582 39.7141L269.234 29.8516ZM262.617 24.1797H272.617C272.617 25.1253 272.339 26.1531 271.773 27.0457C271.242 27.8814 270.663 28.2842 270.437 28.4174C270.225 28.543 270.256 28.4762 270.674 28.3832C271.079 28.2935 271.724 28.207 272.629 28.207V18.207V8.20703C268.54 8.20703 264.076 8.94596 260.265 11.1978C256.119 13.6471 252.617 18.1051 252.617 24.1797H262.617ZM272.629 18.207V28.207C273.502 28.207 274.13 28.2917 274.527 28.3802C274.937 28.4719 274.971 28.5384 274.767 28.4174C274.551 28.2901 273.979 27.8951 273.451 27.0677C272.885 26.1812 272.598 25.1472 272.598 24.1797H282.598H292.598C292.598 18.0685 289.048 13.625 284.939 11.1978C281.141 8.95408 276.698 8.20703 272.629 8.20703V18.207ZM282.598 24.1797H272.598C272.598 23.414 272.773 22.5858 273.151 21.8089C273.518 21.052 273.979 20.5432 274.326 20.2441C274.946 19.7099 275.158 19.8598 274.311 20.0146L276.109 29.8516L277.908 39.6886C283.575 38.6526 292.598 34.4539 292.598 24.1797H282.598ZM276.109 29.8516H266.109V31.4844H276.109H286.109V29.8516H276.109ZM276.109 31.4844L276.616 41.4715C279.714 41.3144 282.888 41.0853 285.944 40.7299L284.789 30.7969L283.634 20.8638C281.147 21.1529 278.434 21.3536 275.603 21.4972L276.109 31.4844ZM284.789 30.7969L274.841 31.8102L275.313 36.4508L285.262 35.4375L295.21 34.4242L294.738 29.7836L284.789 30.7969ZM285.262 35.4375L283.518 25.5907C276.229 26.8815 268.032 26.9839 260.923 27.0275L260.984 37.0273L261.046 47.0272C267.944 46.9848 277.794 46.9154 287.005 45.2843L285.262 35.4375ZM260.984 37.0273L270.899 35.727L270.212 30.4848L260.297 31.7852L250.382 33.0855L251.069 38.3277L260.984 37.0273ZM293.125 38.875H283.125V50.0039H293.125H303.125V38.875H293.125ZM293.125 50.0039V40.0039H286.25V50.0039V60.0039H293.125V50.0039ZM286.25 50.0039H296.25V44.1602H286.25H276.25V50.0039H286.25ZM286.25 44.1602V34.1602H265.453V44.1602V54.1602H286.25V44.1602ZM265.453 44.1602H275.453V38.875H265.453H255.453V44.1602H265.453ZM265.453 38.875V48.875H293.125V38.875V28.875H265.453V38.875ZM283.93 12.793H273.93V17.6914H283.93H293.93V12.793H283.93ZM283.93 17.6914V7.69141H261.371V17.6914V27.6914H283.93V17.6914ZM261.371 17.6914H271.371V12.793H261.371H251.371V17.6914H261.371ZM261.371 12.793V22.793H269.234V12.793V2.79297H261.371V12.793ZM269.234 12.793H279.234V10H269.234H259.234V12.793H269.234ZM269.234 10V20H276.109V10V0H269.234V10ZM276.109 10H266.109V12.793H276.109H286.109V10H276.109ZM276.109 12.793V22.793H283.93V12.793V2.79297H276.109V12.793ZM272.629 22.7187V12.7187C271.497 12.7187 268.954 12.7274 266.478 13.6762C265.037 14.2286 263.029 15.3135 261.425 17.4396C259.74 19.6738 259.191 22.1366 259.191 24.1797H269.191H279.191C279.191 25.6427 278.788 27.6328 277.391 29.4844C276.076 31.2278 274.501 32.02 273.634 32.3521C272.806 32.6695 272.224 32.724 272.205 32.7261C272.138 32.7333 272.244 32.7187 272.629 32.7187V22.7187ZM269.191 24.1797H259.191C259.191 26.3686 259.826 28.7331 261.365 30.8169C262.82 32.7864 264.632 33.8955 266.035 34.5116C268.566 35.6235 271.136 35.7266 272.629 35.7266V25.7266V15.7266C271.844 15.7266 272.696 15.5933 274.078 16.2003C274.906 16.564 276.285 17.3535 277.451 18.9322C278.702 20.6253 279.191 22.5279 279.191 24.1797H269.191ZM272.629 25.7266V35.7266C274.119 35.7266 276.692 35.621 279.234 34.4833C280.648 33.85 282.394 32.7459 283.806 30.8525C285.281 28.8744 285.933 26.6478 286.015 24.5794L276.023 24.1797L266.031 23.78C266.093 22.2487 266.589 20.484 267.773 18.8966C268.893 17.394 270.212 16.6095 271.062 16.2286C272.476 15.5958 273.374 15.7266 272.629 15.7266V25.7266ZM276.023 24.1797L286.017 23.8096C285.944 21.862 285.364 19.5301 283.745 17.4041C282.185 15.3544 280.246 14.2695 278.785 13.6991C276.295 12.7267 273.749 12.7187 272.629 12.7187V22.7187V32.7187C273 32.7187 273.086 32.7332 272.999 32.7235C272.955 32.7187 272.354 32.6583 271.511 32.3292C270.614 31.979 269.102 31.1869 267.833 29.5199C266.505 27.7765 266.081 25.9173 266.03 24.5498L276.023 24.1797ZM332.484 10.2578H342.484C342.484 4.73496 338.007 0.257812 332.484 0.257812V10.2578ZM332.484 50.0039V60.0039C338.007 60.0039 342.484 55.5268 342.484 50.0039H332.484ZM325.523 50.0039H315.523C315.523 55.5268 320.001 60.0039 325.523 60.0039V50.0039ZM325.523 10.2578V0.257812C320.001 0.257812 315.523 4.73496 315.523 10.2578H325.523ZM323.246 15.9727L333.246 15.9727C333.246 10.4498 328.769 5.97266 323.246 5.97266V15.9727ZM323.246 21.4297V31.4297C328.769 31.4297 333.246 26.9525 333.246 21.4297L323.246 21.4297ZM299.742 21.4297H289.742C289.742 26.9525 294.219 31.4297 299.742 31.4297V21.4297ZM299.742 15.9727V5.97266C294.219 5.97266 289.742 10.4498 289.742 15.9727H299.742ZM307.992 15.9727V25.9727C313.515 25.9727 317.992 21.4955 317.992 15.9727H307.992ZM307.992 10.9023V0.902344C302.469 0.902344 297.992 5.3795 297.992 10.9023L307.992 10.9023ZM315.039 10.9023H325.039C325.039 5.3795 320.562 0.902344 315.039 0.902344V10.9023ZM315.039 15.9727H305.039C305.039 21.4955 309.516 25.9727 315.039 25.9727V15.9727ZM332.484 10.2578H322.484V50.0039H332.484H342.484V10.2578H332.484ZM332.484 50.0039V40.0039H325.523V50.0039V60.0039H332.484V50.0039ZM325.523 50.0039H335.523V10.2578H325.523H315.523V50.0039H325.523ZM325.523 10.2578V20.2578H332.484V10.2578V0.257812H325.523V10.2578ZM323.246 15.9727H313.246V21.4297H323.246L333.246 21.4297V15.9727L323.246 15.9727ZM323.246 21.4297V11.4297L299.742 11.4297V21.4297V31.4297H323.246V21.4297ZM299.742 21.4297H309.742V15.9727H299.742H289.742V21.4297H299.742ZM299.742 15.9727V25.9727H307.992V15.9727V5.97266L299.742 5.97266V15.9727ZM307.992 15.9727H317.992V10.9023H307.992L297.992 10.9023V15.9727H307.992ZM307.992 10.9023V20.9023H315.039V10.9023V0.902344H307.992V10.9023ZM315.039 10.9023H305.039V15.9727H315.039H325.039V10.9023H315.039ZM315.039 15.9727V25.9727H323.246V15.9727V5.97266H315.039V15.9727ZM311.559 22.9336V32.9336C312.286 32.9336 312.431 33.1635 312.294 33.0379C312.232 32.9815 312.153 32.8829 312.096 32.7528C312.036 32.6183 312.043 32.5479 312.043 32.6016H322.043H332.043C332.043 20.6228 322.189 12.9336 311.559 12.9336V22.9336ZM322.043 32.6016H312.043C312.043 32.6766 312.032 32.62 312.088 32.4926C312.142 32.369 312.219 32.2714 312.282 32.2133C312.342 32.1588 312.347 32.1769 312.246 32.2142C312.146 32.2515 311.923 32.3125 311.559 32.3125V42.3125V52.3125C322.22 52.3125 332.043 44.5952 332.043 32.6016H322.043ZM311.559 42.3125V32.3125C311.194 32.3125 310.972 32.2515 310.871 32.2142C310.77 32.1769 310.775 32.1588 310.835 32.2133C310.898 32.2714 310.975 32.369 311.029 32.4926C311.085 32.62 311.074 32.6766 311.074 32.6016H301.074H291.074C291.074 44.5952 300.897 52.3125 311.559 52.3125V42.3125ZM301.074 32.6016H311.074C311.074 32.5479 311.081 32.6183 311.022 32.7528C310.964 32.8829 310.885 32.9815 310.823 33.0379C310.686 33.1635 310.831 32.9336 311.559 32.9336V22.9336V12.9336C300.928 12.9336 291.074 20.6228 291.074 32.6016H301.074ZM311.559 28.4766V18.4766C308.281 18.4766 304.535 19.5508 301.608 22.524C298.682 25.4957 297.648 29.2694 297.648 32.6016H307.648H317.648C317.648 33.2697 317.41 34.9809 315.859 36.5561C314.307 38.1328 312.516 38.4766 311.559 38.4766V28.4766ZM307.648 32.6016H297.648C297.648 35.8841 298.621 39.7645 301.69 42.8102C304.732 45.8279 308.525 46.7266 311.559 46.7266V36.7266V26.7266C312.272 26.7266 314.11 26.9592 315.777 28.6127C317.471 30.294 317.648 32.112 317.648 32.6016H307.648ZM311.559 36.7266V46.7266C314.599 46.7266 318.418 45.8224 321.461 42.7545C324.507 39.6841 325.426 35.8092 325.426 32.6016H315.426H305.426C305.426 32.1869 305.571 30.3745 307.263 28.6684C308.954 26.9647 310.839 26.7266 311.559 26.7266V36.7266ZM315.426 32.6016H325.426C325.426 29.3443 324.448 25.5771 321.543 22.5803C318.614 19.5585 314.845 18.4766 311.559 18.4766V28.4766V38.4766C310.592 38.4766 308.757 38.1251 307.182 36.4998C305.631 34.8994 305.426 33.1947 305.426 32.6016H315.426ZM378.246 10.2578H388.246C388.246 4.73496 383.769 0.257812 378.246 0.257812V10.2578ZM378.246 25.3398H368.246C368.246 30.8627 372.723 35.3398 378.246 35.3398V25.3398ZM383.617 25.3398H393.617C393.617 19.817 389.14 15.3398 383.617 15.3398V25.3398ZM383.617 30.9687V40.9687C389.14 40.9687 393.617 36.4916 393.617 30.9687H383.617ZM378.246 30.9687V20.9687C372.723 20.9687 368.246 25.4459 368.246 30.9687H378.246ZM378.246 50.0039V60.0039C383.769 60.0039 388.246 55.5268 388.246 50.0039H378.246ZM371.414 50.0039H361.414C361.414 55.5268 365.891 60.0039 371.414 60.0039V50.0039ZM371.414 10.2578V0.257812C365.891 0.257812 361.414 4.73496 361.414 10.2578L371.414 10.2578ZM369.48 15.9297H379.48C379.48 10.4068 375.003 5.92969 369.48 5.92969V15.9297ZM369.48 21.3867V31.3867C375.003 31.3867 379.48 26.9096 379.48 21.3867H369.48ZM346.32 21.3867H336.32C336.32 26.9096 340.797 31.3867 346.32 31.3867V21.3867ZM346.32 15.9297V5.92969C340.797 5.92969 336.32 10.4068 336.32 15.9297H346.32ZM354.527 15.9297V25.9297C360.05 25.9297 364.527 21.4525 364.527 15.9297H354.527ZM354.527 10.9883V0.988281C349.004 0.988281 344.527 5.46543 344.527 10.9883H354.527ZM361.402 10.9883L371.402 10.9883C371.402 5.46543 366.925 0.988281 361.402 0.988281V10.9883ZM361.402 15.9297H351.402C351.402 21.4525 355.879 25.9297 361.402 25.9297V15.9297ZM354.141 32.6016L364.139 32.7554C364.141 32.6504 364.141 32.5453 364.139 32.4403L354.141 32.6016ZM378.246 10.2578H368.246V25.3398H378.246H388.246V10.2578H378.246ZM378.246 25.3398V35.3398H383.617V25.3398V15.3398H378.246V25.3398ZM383.617 25.3398H373.617V30.9687H383.617H393.617V25.3398H383.617ZM383.617 30.9687V20.9687H378.246V30.9687V40.9687H383.617V30.9687ZM378.246 30.9687H368.246V50.0039H378.246H388.246V30.9687H378.246ZM378.246 50.0039V40.0039H371.414V50.0039V60.0039H378.246V50.0039ZM371.414 50.0039H381.414V10.2578H371.414L361.414 10.2578V50.0039H371.414ZM371.414 10.2578V20.2578H378.246V10.2578V0.257812L371.414 0.257812V10.2578ZM369.48 15.9297H359.48V21.3867H369.48H379.48V15.9297H369.48ZM369.48 21.3867V11.3867L346.32 11.3867V21.3867V31.3867H369.48V21.3867ZM346.32 21.3867H356.32V15.9297H346.32H336.32V21.3867H346.32ZM346.32 15.9297V25.9297H354.527V15.9297V5.92969H346.32V15.9297ZM354.527 15.9297H364.527V10.9883H354.527H344.527V15.9297H354.527ZM354.527 10.9883V20.9883H361.402V10.9883V0.988281H354.527V10.9883ZM361.402 10.9883H351.402V15.9297H361.402H371.402V10.9883L361.402 10.9883ZM361.402 15.9297V25.9297H369.48V15.9297V5.92969L361.402 5.92969V15.9297ZM357.965 22.9336V32.9336C358.291 32.9336 358.489 32.9889 358.578 33.0219C358.667 33.0552 358.66 33.0706 358.604 33.0186C358.544 32.9633 358.468 32.8684 358.413 32.744C358.356 32.6148 358.363 32.5478 358.363 32.6016H368.363H378.363C378.363 20.6744 368.566 12.9336 357.965 12.9336V22.9336ZM368.363 32.6016H358.363C358.363 32.6766 358.352 32.6235 358.406 32.5013C358.457 32.3835 358.531 32.2895 358.592 32.2327C358.65 32.1792 358.66 32.193 358.573 32.2252C358.488 32.2572 358.291 32.3125 357.965 32.3125V42.3125V52.3125C368.596 52.3125 378.363 44.5435 378.363 32.6016H368.363ZM357.965 42.3125V32.3125C357.582 32.3125 357.359 32.2489 357.271 32.216C357.183 32.1835 357.205 32.1744 357.278 32.2425C357.355 32.3138 357.435 32.4203 357.487 32.5409C357.54 32.6635 357.523 32.7039 357.523 32.6016H347.523H337.523C337.523 44.5175 347.176 52.3125 357.965 52.3125V42.3125ZM347.523 32.6016H357.523C357.523 32.5204 357.536 32.5745 357.479 32.7043C357.424 32.8315 357.342 32.9391 357.267 33.0088C357.195 33.0753 357.175 33.0646 357.266 33.031C357.358 32.9972 357.582 32.9336 357.965 32.9336V22.9336V12.9336C347.207 12.9336 337.523 20.7004 337.523 32.6016H347.523ZM357.965 28.4766V18.4766C354.651 18.4766 350.93 19.5996 348.046 22.552C345.142 25.5247 344.086 29.3232 344.142 32.7628L354.141 32.6016L364.139 32.4403C364.152 33.2159 363.892 34.9519 362.352 36.5281C360.832 38.084 359.044 38.4766 357.965 38.4766V28.4766ZM354.141 32.6016L344.142 32.4477C344.09 35.8314 345.078 39.7329 348.128 42.7825C351.129 45.7843 354.898 46.7266 357.965 46.7266V36.7266V26.7266C358.797 26.7266 360.632 27.0028 362.27 28.6404C363.955 30.3256 364.149 32.1647 364.139 32.7554L354.141 32.6016ZM357.965 36.7266V46.7266C361.078 46.7266 364.835 45.7432 367.804 42.7262C370.777 39.7058 371.746 35.8841 371.746 32.6016H361.746H351.746C351.746 32.112 351.92 30.3528 353.55 28.6967C355.177 27.0439 357.043 26.7266 357.965 26.7266V36.7266ZM361.746 32.6016H371.746C371.746 29.2709 370.717 25.5533 367.886 22.609C365.037 19.6464 361.329 18.4766 357.965 18.4766V28.4766V38.4766C356.792 38.4766 354.975 38.0372 353.469 36.4711C351.981 34.9233 351.746 33.2682 351.746 32.6016H361.746ZM416.918 20.3555H426.918C426.918 14.8326 422.441 10.3555 416.918 10.3555V20.3555ZM416.918 25.6836V35.6836C422.441 35.6836 426.918 31.2064 426.918 25.6836H416.918ZM388.816 25.6836H378.816C378.816 31.2064 383.294 35.6836 388.816 35.6836V25.6836ZM388.816 11.6758V1.67578C383.294 1.67578 378.816 6.15293 378.816 11.6758H388.816ZM395.691 11.6758H405.691C405.691 6.15293 401.214 1.67578 395.691 1.67578V11.6758ZM395.691 20.3555H385.691C385.691 25.8783 390.169 30.3555 395.691 30.3555V20.3555ZM420.828 29.207H430.828C430.828 23.6842 426.351 19.207 420.828 19.207V29.207ZM420.828 34.5352V44.5352C426.351 44.5352 430.828 40.058 430.828 34.5352H420.828ZM384.562 34.5352H374.562C374.562 40.058 379.04 44.5352 384.562 44.5352V34.5352ZM384.562 29.207V19.207C379.04 19.207 374.562 23.6842 374.562 29.207H384.562ZM417.176 43.7305H427.176C427.176 38.2076 422.699 33.7305 417.176 33.7305V43.7305ZM417.176 49.2305V59.2305C422.699 59.2305 427.176 54.7533 427.176 49.2305H417.176ZM388.344 49.2305H378.344C378.344 54.7533 382.821 59.2305 388.344 59.2305V49.2305ZM388.344 37.2852V27.2852C382.821 27.2852 378.344 31.7623 378.344 37.2852H388.344ZM395.305 37.2852L405.305 37.2852C405.305 31.7623 400.828 27.2852 395.305 27.2852V37.2852ZM395.305 43.7305H385.305C385.305 49.2533 389.782 53.7305 395.305 53.7305V43.7305ZM416.918 20.3555H406.918V25.6836H416.918H426.918V20.3555H416.918ZM416.918 25.6836V15.6836H388.816V25.6836V35.6836L416.918 35.6836V25.6836ZM388.816 25.6836H398.816V11.6758H388.816H378.816V25.6836H388.816ZM388.816 11.6758V21.6758H395.691V11.6758V1.67578H388.816V11.6758ZM395.691 11.6758H385.691V20.3555H395.691H405.691V11.6758H395.691ZM395.691 20.3555V30.3555L416.918 30.3555V20.3555V10.3555H395.691V20.3555ZM420.828 29.207H410.828V34.5352H420.828H430.828V29.207H420.828ZM420.828 34.5352V24.5352H384.562V34.5352V44.5352L420.828 44.5352V34.5352ZM384.562 34.5352H394.562V29.207H384.562H374.562V34.5352H384.562ZM384.562 29.207V39.207L420.828 39.207V29.207V19.207H384.562V29.207ZM417.176 43.7305H407.176V49.2305H417.176H427.176V43.7305H417.176ZM417.176 49.2305V39.2305L388.344 39.2305V49.2305V59.2305L417.176 59.2305V49.2305ZM388.344 49.2305L398.344 49.2305V37.2852L388.344 37.2852H378.344V49.2305H388.344ZM388.344 37.2852V47.2852H395.305V37.2852V27.2852H388.344V37.2852ZM395.305 37.2852H385.305V43.7305H395.305L405.305 43.7305V37.2852L395.305 37.2852ZM395.305 43.7305V53.7305L417.176 53.7305V43.7305V33.7305L395.305 33.7305V43.7305Z" fill="white" mask="url(#path-1-outside-1_6524_1847)"/>
</g>
<defs>
<filter id="filter0_d_6524_1847" x="0" y="0" width="434.828" height="68.0898" filterUnits="userSpaceOnUse" color-interpolation-filters="sRGB">
<feFlood flood-opacity="0" result="BackgroundImageFix"/>
<feColorMatrix in="SourceAlpha" type="matrix" values="0 0 0 0 0 0 0 0 0 0 0 0 0 0 0 0 0 0 127 0" result="hardAlpha"/>
<feOffset dy="4"/>
<feGaussianBlur stdDeviation="2"/>
<feComposite in2="hardAlpha" operator="out"/>
<feColorMatrix type="matrix" values="0 0 0 0 0 0 0 0 0 0 0 0 0 0 0 0 0 0 0.07 0"/>
<feBlend mode="normal" in2="BackgroundImageFix" result="effect1_dropShadow_6524_1847"/>
<feBlend mode="normal" in="SourceGraphic" in2="effect1_dropShadow_6524_1847" result="shape"/>
</filter>
</defs>
</svg>
