<svg width="141" height="68" viewBox="0 0 141 68" fill="none" xmlns="http://www.w3.org/2000/svg">
<g filter="url(#filter0_d_6526_5717)">
<mask id="path-1-outside-1_6526_5717" maskUnits="userSpaceOnUse" x="3.83984" y="-0.507813" width="133" height="61" fill="black">
<rect fill="white" x="3.83984" y="-0.507813" width="133" height="61"/>
<path d="M48.418 10V49.7461H41.8438V10L48.418 10ZM40.168 10.4727V48.0273H33.6797V36.2539H30.1133C28.5879 39.9922 26.0098 42.0977 22.7227 42.0977C17.3945 42.0977 13.957 36.5117 14 27.2734C13.957 18.1211 17.3945 12.5352 22.7227 12.5352C25.9883 12.5352 28.5664 14.5977 30.1133 18.293H33.6797V10.4727H40.168ZM22.7227 19.0664C20.9609 19.0664 20.1875 21.4297 20.1875 27.2734C20.1875 33.1602 20.9609 35.4805 22.7227 35.4805C24.3984 35.4805 25.3438 33.1602 25.3867 27.2734C25.3438 21.4297 24.3984 19.0664 22.7227 19.0664ZM31.4453 23.75C31.5527 24.8457 31.6172 26.0273 31.6172 27.2734C31.6172 28.4766 31.5527 29.6367 31.4453 30.7109H33.6797V23.75H31.4453ZM73.5977 13.0508V32.6445H53.7461V13.0508H73.5977ZM60.5352 18.4648V27.2305H66.7656V18.4648H60.5352ZM85.2852 10.0859V38.1445H78.3672V10.0859H85.2852ZM86.2305 43.7305V49.1875H58.0859V35.6094H65.0469V43.7305H86.2305ZM121.594 10.0859V21.6875H126.535V27.2734H121.594V39.6914H114.676V10.0859H121.594ZM113.258 13.8242V19.1523H89.7539V13.8242H98.0469V10H104.965V13.8242H113.258ZM101.484 20.0547C107.285 20.0547 111.41 23.2773 111.41 27.918C111.41 32.5586 107.285 35.6953 101.484 35.6523C95.6406 35.6953 91.4727 32.5586 91.4727 27.918C91.4727 23.2773 95.6406 20.0547 101.484 20.0547ZM101.484 25.2539C99.5078 25.2969 98.2188 26.1133 98.2188 27.918C98.2188 29.7227 99.5078 30.4961 101.484 30.4961C103.504 30.4961 104.879 29.7227 104.879 27.918C104.879 26.1133 103.504 25.2969 101.484 25.2539ZM122.754 43.6875V49.1875H95.2539V37.457H102.172V43.6875H122.754Z"/>
</mask>
<path d="M48.418 10V49.7461H41.8438V10L48.418 10ZM40.168 10.4727V48.0273H33.6797V36.2539H30.1133C28.5879 39.9922 26.0098 42.0977 22.7227 42.0977C17.3945 42.0977 13.957 36.5117 14 27.2734C13.957 18.1211 17.3945 12.5352 22.7227 12.5352C25.9883 12.5352 28.5664 14.5977 30.1133 18.293H33.6797V10.4727H40.168ZM22.7227 19.0664C20.9609 19.0664 20.1875 21.4297 20.1875 27.2734C20.1875 33.1602 20.9609 35.4805 22.7227 35.4805C24.3984 35.4805 25.3438 33.1602 25.3867 27.2734C25.3438 21.4297 24.3984 19.0664 22.7227 19.0664ZM31.4453 23.75C31.5527 24.8457 31.6172 26.0273 31.6172 27.2734C31.6172 28.4766 31.5527 29.6367 31.4453 30.7109H33.6797V23.75H31.4453ZM73.5977 13.0508V32.6445H53.7461V13.0508H73.5977ZM60.5352 18.4648V27.2305H66.7656V18.4648H60.5352ZM85.2852 10.0859V38.1445H78.3672V10.0859H85.2852ZM86.2305 43.7305V49.1875H58.0859V35.6094H65.0469V43.7305H86.2305ZM121.594 10.0859V21.6875H126.535V27.2734H121.594V39.6914H114.676V10.0859H121.594ZM113.258 13.8242V19.1523H89.7539V13.8242H98.0469V10H104.965V13.8242H113.258ZM101.484 20.0547C107.285 20.0547 111.41 23.2773 111.41 27.918C111.41 32.5586 107.285 35.6953 101.484 35.6523C95.6406 35.6953 91.4727 32.5586 91.4727 27.918C91.4727 23.2773 95.6406 20.0547 101.484 20.0547ZM101.484 25.2539C99.5078 25.2969 98.2188 26.1133 98.2188 27.918C98.2188 29.7227 99.5078 30.4961 101.484 30.4961C103.504 30.4961 104.879 29.7227 104.879 27.918C104.879 26.1133 103.504 25.2969 101.484 25.2539ZM122.754 43.6875V49.1875H95.2539V37.457H102.172V43.6875H122.754Z" fill="#11DCA9"/>
<path d="M48.418 10H58.418C58.418 4.47715 53.9408 0 48.418 0V10ZM48.418 49.7461V59.7461C53.9408 59.7461 58.418 55.2689 58.418 49.7461H48.418ZM41.8438 49.7461H31.8438C31.8438 55.2689 36.3209 59.7461 41.8438 59.7461V49.7461ZM41.8438 10V0C36.3209 0 31.8438 4.47715 31.8438 10H41.8438ZM40.168 10.4727L50.168 10.4727C50.168 4.94981 45.6908 0.472656 40.168 0.472656V10.4727ZM40.168 48.0273V58.0273C45.6908 58.0273 50.168 53.5502 50.168 48.0273H40.168ZM33.6797 48.0273H23.6797C23.6797 53.5502 28.1568 58.0273 33.6797 58.0273V48.0273ZM33.6797 36.2539H43.6797C43.6797 30.7311 39.2025 26.2539 33.6797 26.2539V36.2539ZM30.1133 36.2539V26.2539C26.0494 26.2539 22.3898 28.7132 20.8544 32.4759L30.1133 36.2539ZM14 27.2734L23.9999 27.3199C24 27.2888 24 27.2576 23.9999 27.2265L14 27.2734ZM30.1133 18.293L20.8889 22.1544C22.4454 25.8727 26.0823 28.293 30.1133 28.293V18.293ZM33.6797 18.293V28.293C39.2025 28.293 43.6797 23.8158 43.6797 18.293H33.6797ZM33.6797 10.4727V0.472656C28.1568 0.472656 23.6797 4.94981 23.6797 10.4727H33.6797ZM25.3867 27.2734L35.3865 27.3464C35.3868 27.2976 35.3868 27.2487 35.3864 27.1999L25.3867 27.2734ZM31.4453 23.75V13.75C28.6234 13.75 25.9329 14.9423 24.0373 17.0328C22.1418 19.1232 21.2177 21.9173 21.493 24.7257L31.4453 23.75ZM31.4453 30.7109L21.4949 29.7159C21.2138 32.5272 22.135 35.3262 24.0308 37.421C25.9266 39.5158 28.62 40.7109 31.4453 40.7109V30.7109ZM33.6797 30.7109V40.7109C39.2025 40.7109 43.6797 36.2338 43.6797 30.7109H33.6797ZM33.6797 23.75H43.6797C43.6797 18.2272 39.2025 13.75 33.6797 13.75V23.75ZM48.418 10L38.418 10V49.7461H48.418H58.418V10H48.418ZM48.418 49.7461V39.7461H41.8438V49.7461V59.7461H48.418V49.7461ZM41.8438 49.7461H51.8438V10L41.8438 10H31.8438V49.7461H41.8438ZM41.8438 10V20H48.418V10V0H41.8438V10ZM40.168 10.4727H30.168V48.0273H40.168H50.168V10.4727L40.168 10.4727ZM40.168 48.0273V38.0273H33.6797V48.0273V58.0273H40.168V48.0273ZM33.6797 48.0273H43.6797V36.2539H33.6797H23.6797V48.0273H33.6797ZM33.6797 36.2539V26.2539H30.1133V36.2539V46.2539H33.6797V36.2539ZM30.1133 36.2539L20.8544 32.4759C20.5698 33.1735 20.4439 33.0782 20.844 32.7591C21.0539 32.5917 21.3548 32.4092 21.7338 32.276C22.1138 32.1425 22.4609 32.0977 22.7227 32.0977V42.0977V52.0977C31.3017 52.0977 36.8353 46.249 39.3721 40.0319L30.1133 36.2539ZM22.7227 42.0977V32.0977C23.2167 32.0977 23.8439 32.25 24.3987 32.596C24.9044 32.9115 25.0299 33.1857 24.938 33.0316C24.6739 32.5883 23.9833 30.8849 23.9999 27.3199L14 27.2734L4.00011 27.2269C3.97372 32.9002 4.98038 38.609 7.75632 43.2682C10.7464 48.287 15.9288 52.0977 22.7227 52.0977V42.0977ZM14 27.2734L23.9999 27.2265C23.9834 23.7189 24.669 22.0402 24.9285 21.6064C25.0187 21.4557 24.8931 21.7276 24.391 22.0402C23.8402 22.3831 23.2164 22.5352 22.7227 22.5352V12.5352V2.53516C15.9354 2.53516 10.7571 6.33843 7.76584 11.3379C4.98531 15.9852 3.97361 21.6756 4.00011 27.3204L14 27.2734ZM22.7227 12.5352V22.5352C22.4713 22.5352 22.1353 22.4927 21.7653 22.3646C21.3959 22.2367 21.0997 22.0605 20.8903 21.8962C20.4886 21.5811 20.6063 21.4793 20.8889 22.1544L30.1133 18.293L39.3377 14.4316C36.7446 8.23708 31.1945 2.53516 22.7227 2.53516V12.5352ZM30.1133 18.293V28.293H33.6797V18.293V8.29297H30.1133V18.293ZM33.6797 18.293H43.6797V10.4727H33.6797H23.6797V18.293H33.6797ZM33.6797 10.4727V20.4727H40.168V10.4727V0.472656L33.6797 0.472656V10.4727ZM22.7227 19.0664V9.06641C19.7538 9.06641 16.8425 10.1785 14.5952 12.3739C12.6367 14.2873 11.7185 16.4977 11.251 17.9913C10.3504 20.8686 10.1875 24.2333 10.1875 27.2734H20.1875H30.1875C30.1875 26.0092 30.2304 25.1045 30.2902 24.4802C30.3543 23.8124 30.4149 23.7194 30.3379 23.9657C30.2839 24.1381 29.8895 25.3924 28.5714 26.68C27.863 27.3721 26.9449 28.0141 25.8275 28.4619C24.7157 28.9074 23.6422 29.0664 22.7227 29.0664V19.0664ZM20.1875 27.2734H10.1875C10.1875 30.3253 10.3488 33.7009 11.2545 36.5827C11.7264 38.0843 12.6542 40.3033 14.6339 42.2166C16.9008 44.4075 19.8056 45.4805 22.7227 45.4805V35.4805V25.4805C23.6199 25.4805 24.6779 25.6326 25.7814 26.0684C26.8927 26.5073 27.8147 27.1414 28.5328 27.8353C29.8719 29.1295 30.276 30.4006 30.3344 30.5862C30.4149 30.8426 30.3545 30.7569 30.2904 30.0866C30.2305 29.4607 30.1875 28.5505 30.1875 27.2734H20.1875ZM22.7227 35.4805V45.4805C25.737 45.4805 28.5723 44.3286 30.7368 42.267C32.6486 40.446 33.6107 38.3321 34.1265 36.8277C35.124 33.9183 35.3633 30.5241 35.3865 27.3464L25.3867 27.2734L15.387 27.2004C15.378 28.431 15.3221 29.3033 15.2542 29.8908C15.1818 30.5165 15.1207 30.5944 15.2075 30.3412C15.2722 30.1528 15.681 28.9868 16.9429 27.7849C17.6172 27.1427 18.4983 26.5287 19.5846 26.0917C20.6728 25.654 21.752 25.4805 22.7227 25.4805V35.4805ZM25.3867 27.2734L35.3864 27.1999C35.3632 24.0338 35.122 20.6509 34.1305 17.7471C33.6195 16.2507 32.6674 14.1446 30.7757 12.3232C28.6317 10.2589 25.789 9.06641 22.7227 9.06641V19.0664V29.0664C21.7287 29.0664 20.6338 28.8852 19.538 28.438C18.4462 27.9925 17.5689 27.3709 16.904 26.7307C15.6622 25.5351 15.2633 24.385 15.2035 24.21C15.1206 23.9672 15.1822 24.0527 15.2544 24.6764C15.3223 25.2626 15.378 26.1295 15.387 27.347L25.3867 27.2734ZM31.4453 23.75L21.493 24.7257C21.5704 25.515 21.6172 26.3706 21.6172 27.2734H31.6172H41.6172C41.6172 25.6841 41.5351 24.1764 41.3976 22.7743L31.4453 23.75ZM31.6172 27.2734H21.6172C21.6172 28.1243 21.5714 28.9518 21.4949 29.7159L31.4453 30.7109L41.3957 31.706C41.5341 30.3216 41.6172 28.8289 41.6172 27.2734H31.6172ZM31.4453 30.7109V40.7109H33.6797V30.7109V20.7109H31.4453V30.7109ZM33.6797 30.7109H43.6797V23.75H33.6797H23.6797V30.7109H33.6797ZM33.6797 23.75V13.75H31.4453V23.75V33.75H33.6797V23.75ZM73.5977 13.0508L83.5977 13.0508C83.5977 7.52793 79.1205 3.05078 73.5977 3.05078V13.0508ZM73.5977 32.6445V42.6445C79.1205 42.6445 83.5977 38.1674 83.5977 32.6445H73.5977ZM53.7461 32.6445H43.7461C43.7461 38.1674 48.2232 42.6445 53.7461 42.6445V32.6445ZM53.7461 13.0508V3.05078C48.2232 3.05078 43.7461 7.52793 43.7461 13.0508H53.7461ZM60.5352 18.4648V8.46484C55.0123 8.46484 50.5352 12.942 50.5352 18.4648H60.5352ZM60.5352 27.2305H50.5352C50.5352 32.7533 55.0123 37.2305 60.5352 37.2305V27.2305ZM66.7656 27.2305V37.2305C72.2885 37.2305 76.7656 32.7533 76.7656 27.2305H66.7656ZM66.7656 18.4648H76.7656C76.7656 12.942 72.2885 8.46484 66.7656 8.46484V18.4648ZM85.2852 10.0859H95.2852C95.2852 4.56309 90.808 0.0859375 85.2852 0.0859375V10.0859ZM85.2852 38.1445V48.1445C90.808 48.1445 95.2852 43.6674 95.2852 38.1445H85.2852ZM78.3672 38.1445H68.3672C68.3672 43.6674 72.8443 48.1445 78.3672 48.1445V38.1445ZM78.3672 10.0859V0.0859375C72.8443 0.0859375 68.3672 4.56309 68.3672 10.0859H78.3672ZM86.2305 43.7305H96.2305C96.2305 38.2076 91.7533 33.7305 86.2305 33.7305V43.7305ZM86.2305 49.1875V59.1875C91.7533 59.1875 96.2305 54.7103 96.2305 49.1875H86.2305ZM58.0859 49.1875H48.0859C48.0859 54.7103 52.5631 59.1875 58.0859 59.1875V49.1875ZM58.0859 35.6094V25.6094C52.5631 25.6094 48.0859 30.0865 48.0859 35.6094H58.0859ZM65.0469 35.6094H75.0469C75.0469 30.0865 70.5697 25.6094 65.0469 25.6094V35.6094ZM65.0469 43.7305H55.0469C55.0469 49.2533 59.524 53.7305 65.0469 53.7305V43.7305ZM73.5977 13.0508H63.5977V32.6445H73.5977H83.5977V13.0508L73.5977 13.0508ZM73.5977 32.6445V22.6445H53.7461V32.6445V42.6445H73.5977V32.6445ZM53.7461 32.6445H63.7461V13.0508H53.7461H43.7461V32.6445H53.7461ZM53.7461 13.0508V23.0508H73.5977V13.0508V3.05078L53.7461 3.05078V13.0508ZM60.5352 18.4648H50.5352V27.2305H60.5352H70.5352V18.4648H60.5352ZM60.5352 27.2305V37.2305H66.7656V27.2305V17.2305H60.5352V27.2305ZM66.7656 27.2305H76.7656V18.4648H66.7656H56.7656V27.2305H66.7656ZM66.7656 18.4648V8.46484H60.5352V18.4648V28.4648H66.7656V18.4648ZM85.2852 10.0859H75.2852V38.1445H85.2852H95.2852V10.0859H85.2852ZM85.2852 38.1445V28.1445H78.3672V38.1445V48.1445H85.2852V38.1445ZM78.3672 38.1445H88.3672V10.0859H78.3672H68.3672V38.1445H78.3672ZM78.3672 10.0859V20.0859H85.2852V10.0859V0.0859375L78.3672 0.0859375V10.0859ZM86.2305 43.7305H76.2305V49.1875H86.2305H96.2305V43.7305H86.2305ZM86.2305 49.1875V39.1875H58.0859V49.1875V59.1875H86.2305V49.1875ZM58.0859 49.1875H68.0859V35.6094H58.0859H48.0859V49.1875H58.0859ZM58.0859 35.6094V45.6094H65.0469V35.6094V25.6094H58.0859V35.6094ZM65.0469 35.6094H55.0469V43.7305H65.0469H75.0469V35.6094H65.0469ZM65.0469 43.7305V53.7305H86.2305V43.7305V33.7305H65.0469V43.7305ZM121.594 10.0859H131.594C131.594 4.56309 127.117 0.0859375 121.594 0.0859375V10.0859ZM121.594 21.6875H111.594C111.594 27.2103 116.071 31.6875 121.594 31.6875V21.6875ZM126.535 21.6875H136.535C136.535 16.1647 132.058 11.6875 126.535 11.6875V21.6875ZM126.535 27.2734V37.2734C132.058 37.2734 136.535 32.7963 136.535 27.2734H126.535ZM121.594 27.2734V17.2734C116.071 17.2734 111.594 21.7506 111.594 27.2734H121.594ZM121.594 39.6914V49.6914C127.117 49.6914 131.594 45.2143 131.594 39.6914H121.594ZM114.676 39.6914H104.676C104.676 45.2143 109.153 49.6914 114.676 49.6914V39.6914ZM114.676 10.0859V0.0859375C109.153 0.0859375 104.676 4.56309 104.676 10.0859L114.676 10.0859ZM113.258 13.8242H123.258C123.258 8.30137 118.781 3.82422 113.258 3.82422V13.8242ZM113.258 19.1523V29.1523C118.781 29.1523 123.258 24.6752 123.258 19.1523H113.258ZM89.7539 19.1523H79.7539C79.7539 24.6752 84.2311 29.1523 89.7539 29.1523V19.1523ZM89.7539 13.8242V3.82422C84.2311 3.82422 79.7539 8.30137 79.7539 13.8242H89.7539ZM98.0469 13.8242V23.8242C103.57 23.8242 108.047 19.3471 108.047 13.8242H98.0469ZM98.0469 10V0C92.524 0 88.0469 4.47715 88.0469 10H98.0469ZM104.965 10L114.965 10C114.965 4.47715 110.488 0 104.965 0V10ZM104.965 13.8242H94.9648C94.9648 19.3471 99.442 23.8242 104.965 23.8242V13.8242ZM101.484 35.6523L101.558 25.6526C101.509 25.6523 101.46 25.6523 101.411 25.6526L101.484 35.6523ZM101.484 25.2539L101.697 15.2562C101.554 15.2531 101.41 15.2532 101.267 15.2563L101.484 25.2539ZM122.754 43.6875H132.754C132.754 38.1647 128.277 33.6875 122.754 33.6875V43.6875ZM122.754 49.1875V59.1875C128.277 59.1875 132.754 54.7103 132.754 49.1875H122.754ZM95.2539 49.1875H85.2539C85.2539 54.7103 89.7311 59.1875 95.2539 59.1875V49.1875ZM95.2539 37.457V27.457C89.7311 27.457 85.2539 31.9342 85.2539 37.457H95.2539ZM102.172 37.457H112.172C112.172 31.9342 107.695 27.457 102.172 27.457V37.457ZM102.172 43.6875H92.1719C92.1719 49.2103 96.649 53.6875 102.172 53.6875V43.6875ZM121.594 10.0859H111.594V21.6875H121.594H131.594V10.0859H121.594ZM121.594 21.6875V31.6875H126.535V21.6875V11.6875H121.594V21.6875ZM126.535 21.6875H116.535V27.2734H126.535H136.535V21.6875H126.535ZM126.535 27.2734V17.2734H121.594V27.2734V37.2734H126.535V27.2734ZM121.594 27.2734H111.594V39.6914H121.594H131.594V27.2734H121.594ZM121.594 39.6914V29.6914H114.676V39.6914V49.6914H121.594V39.6914ZM114.676 39.6914H124.676V10.0859H114.676L104.676 10.0859V39.6914H114.676ZM114.676 10.0859V20.0859H121.594V10.0859V0.0859375L114.676 0.0859375V10.0859ZM113.258 13.8242H103.258V19.1523H113.258H123.258V13.8242H113.258ZM113.258 19.1523V9.15234L89.7539 9.15234V19.1523V29.1523H113.258V19.1523ZM89.7539 19.1523H99.7539V13.8242H89.7539H79.7539V19.1523H89.7539ZM89.7539 13.8242V23.8242H98.0469V13.8242V3.82422L89.7539 3.82422V13.8242ZM98.0469 13.8242H108.047V10H98.0469H88.0469V13.8242H98.0469ZM98.0469 10V20H104.965V10V0L98.0469 0V10ZM104.965 10H94.9648V13.8242H104.965H114.965V10L104.965 10ZM104.965 13.8242V23.8242H113.258V13.8242V3.82422H104.965V13.8242ZM101.484 20.0547V30.0547C102.609 30.0547 102.774 30.3697 102.428 30.0968C102.239 29.9475 101.958 29.6587 101.731 29.2037C101.497 28.7368 101.41 28.2729 101.41 27.918H111.41H121.41C121.41 22.357 118.832 17.5637 114.817 14.3954C110.958 11.351 106.16 10.0547 101.484 10.0547V20.0547ZM111.41 27.918H101.41C101.41 27.5621 101.498 27.0793 101.747 26.5852C101.991 26.1028 102.294 25.7942 102.503 25.6324C102.882 25.3394 102.725 25.6613 101.558 25.6526L101.484 35.6523L101.41 45.6521C106.044 45.6864 110.85 44.4614 114.742 41.4506C118.813 38.3007 121.41 33.4973 121.41 27.918H111.41ZM101.484 35.6523L101.411 25.6526C100.206 25.6615 100.013 25.3307 100.371 25.6054C100.572 25.7591 100.877 26.0633 101.125 26.55C101.38 27.0498 101.473 27.5449 101.473 27.918H91.4727H81.4727C81.4727 33.5383 84.1164 38.3447 88.2028 41.4776C92.1061 44.4701 96.9193 45.6862 101.558 45.6521L101.484 35.6523ZM91.4727 27.918H101.473C101.473 28.29 101.38 28.7662 101.142 29.2388C100.91 29.6982 100.627 29.9827 100.446 30.1242C100.12 30.3793 100.321 30.0547 101.484 30.0547V20.0547V10.0547C92.5494 10.0547 81.4727 15.6025 81.4727 27.918H91.4727ZM101.484 25.2539L101.267 15.2563C99.1803 15.3016 95.9547 15.7513 93.0386 17.9796C89.6573 20.5634 88.2188 24.3486 88.2188 27.918H98.2188H108.219C108.219 28.6625 108.083 29.7332 107.541 30.9136C106.985 32.1283 106.146 33.1346 105.182 33.871C103.405 35.2292 101.812 35.2491 101.702 35.2515L101.484 25.2539ZM98.2188 27.918H88.2188C88.2188 31.492 89.6698 35.3526 93.1835 37.9382C96.1753 40.1396 99.447 40.4961 101.484 40.4961V30.4961V20.4961C101.545 20.4961 103.184 20.4658 105.037 21.8294C106.051 22.5757 106.935 23.6099 107.519 24.8656C108.084 26.0805 108.219 27.1768 108.219 27.918H98.2188ZM101.484 30.4961V40.4961C103.516 40.4961 106.723 40.1493 109.688 38.0657C113.215 35.5876 114.879 31.7381 114.879 27.918H104.879H94.8789C94.8789 27.0865 95.0428 25.922 95.6589 24.6692C96.2888 23.3883 97.2076 22.3918 98.1895 21.7019C99.9622 20.4562 101.472 20.4961 101.484 20.4961V30.4961ZM104.879 27.918H114.879C114.879 24.1082 113.233 20.3277 109.834 17.8474C106.938 15.7347 103.773 15.3003 101.697 15.2562L101.484 25.2539L101.272 35.2516C101.216 35.2505 99.747 35.2458 98.0443 34.0032C97.1094 33.321 96.2355 32.3492 95.6341 31.1087C95.0437 29.8906 94.8789 28.7524 94.8789 27.918H104.879ZM122.754 43.6875H112.754V49.1875H122.754H132.754V43.6875H122.754ZM122.754 49.1875V39.1875H95.2539V49.1875V59.1875H122.754V49.1875ZM95.2539 49.1875H105.254V37.457H95.2539H85.2539V49.1875H95.2539ZM95.2539 37.457V47.457H102.172V37.457V27.457H95.2539V37.457ZM102.172 37.457H92.1719V43.6875H102.172H112.172V37.457H102.172ZM102.172 43.6875V53.6875H122.754V43.6875V33.6875H102.172V43.6875Z" fill="white" mask="url(#path-1-outside-1_6526_5717)"/>
</g>
<defs>
<filter id="filter0_d_6526_5717" x="0" y="0" width="140.535" height="67.7461" filterUnits="userSpaceOnUse" color-interpolation-filters="sRGB">
<feFlood flood-opacity="0" result="BackgroundImageFix"/>
<feColorMatrix in="SourceAlpha" type="matrix" values="0 0 0 0 0 0 0 0 0 0 0 0 0 0 0 0 0 0 127 0" result="hardAlpha"/>
<feOffset dy="4"/>
<feGaussianBlur stdDeviation="2"/>
<feComposite in2="hardAlpha" operator="out"/>
<feColorMatrix type="matrix" values="0 0 0 0 0 0 0 0 0 0 0 0 0 0 0 0 0 0 0.07 0"/>
<feBlend mode="normal" in2="BackgroundImageFix" result="effect1_dropShadow_6526_5717"/>
<feBlend mode="normal" in="SourceGraphic" in2="effect1_dropShadow_6526_5717" result="shape"/>
</filter>
</defs>
</svg>
