<svg width="264" height="68" viewBox="0 0 264 68" fill="none" xmlns="http://www.w3.org/2000/svg">
<g filter="url(#filter0_d_6524_1818)">
<mask id="path-1-outside-1_6524_1818" maskUnits="userSpaceOnUse" x="3.09766" y="-0.507813" width="257" height="61" fill="black">
<rect fill="white" x="3.09766" y="-0.507813" width="257" height="61"/>
<path d="M32.1328 11.7188C40.7266 11.7188 47.3438 16.1875 47.3438 22.8906C47.3438 28.9492 42.4023 33.0312 35.5273 34.0195V39.8203H50.3086V45.4062H14V39.8203H28.6953V33.9766C21.8203 33.0312 16.9219 28.9277 16.9648 22.8906C16.9219 16.1875 23.4961 11.7188 32.1328 11.7188ZM32.1328 17.1758C27.1055 17.1758 23.7969 19.2812 23.7969 22.8906C23.7969 26.8438 27.1055 28.7773 32.1328 28.7773C37.1602 28.7773 40.4688 26.8438 40.5117 22.8906C40.4688 19.2812 37.1602 17.1758 32.1328 17.1758ZM70.7617 15.5859V21H51.9844V15.5859H58.0859V11.0742H64.832V15.5859H70.7617ZM61.4805 22.2031C66.6367 22.2461 70.2891 26.2422 70.2891 31.8711C70.2891 37.5859 66.6367 41.625 61.4805 41.625C56.3672 41.625 52.5859 37.5859 52.5859 31.8711C52.5859 26.2422 56.3672 22.2461 61.4805 22.2031ZM61.4805 27.918C59.7617 27.875 58.6445 29.207 58.6445 31.8711C58.6445 34.5781 59.7617 35.8242 61.4805 35.8242C63.1562 35.8242 64.2734 34.5781 64.2734 31.8711C64.2734 29.207 63.1562 27.875 61.4805 27.918ZM86.7031 10V49.7461H80.1719V31.2695H78.2812V48.1992H71.8359V10.6875H78.2812V25.8555H80.1719V10H86.7031ZM126.32 27.4023V32.4297H90.0547V27.4023H126.32ZM122.109 33.6328V43.6445H100.883V44.9336H123.184V49.4883H94.0508V39.3906H115.277V38.2734H94.0508V33.6328H122.109ZM122.109 10.4727V20.4844H101.27V21.7734H122.797V26.2852H94.4375V16.2305H115.234V15.0273H94.3945V10.4727L122.109 10.4727ZM173.93 25.3398V30.668H159.191V32.3437H169.633V43.1719H148.449V44.5039H170.578V49.5742H141.703V38.4883H162.844V37.3711H141.746V32.3437H152.359V30.668L137.664 30.668V25.3398H173.93ZM170.621 10.9883V16.1875H160.953C162.436 17.7773 165.83 19.2812 172.555 19.668L170.406 24.7812C162.736 24.3086 158.053 22.1816 155.754 19.1953C153.391 22.1602 148.771 24.3086 141.188 24.7812L139.082 19.668C145.742 19.2598 149.072 17.7773 150.555 16.1875H140.973V10.9883H170.621ZM209.25 10V49.875H202.289V10H209.25ZM187.422 12.6641C193.48 12.6211 198.035 18.207 198.035 26.9727C198.035 35.8672 193.48 41.4102 187.422 41.4102C181.234 41.4102 176.637 35.8672 176.637 26.9727C176.637 18.207 181.234 12.6211 187.422 12.6641ZM187.422 18.8945C184.887 18.8516 183.297 21.4727 183.297 26.9727C183.297 32.5586 184.887 35.0937 187.422 35.0937C189.785 35.0937 191.418 32.5586 191.418 26.9727C191.418 21.4727 189.785 18.8516 187.422 18.8945ZM246.074 20.0977V25.4258H217.973V11.418H224.848V20.0977H246.074ZM249.984 28.9492V34.2773H213.719V28.9492H249.984ZM246.332 43.4727V48.9727H217.5V37.0273H224.461V43.4727H246.332Z"/>
</mask>
<path d="M32.1328 11.7188C40.7266 11.7188 47.3438 16.1875 47.3438 22.8906C47.3438 28.9492 42.4023 33.0312 35.5273 34.0195V39.8203H50.3086V45.4062H14V39.8203H28.6953V33.9766C21.8203 33.0312 16.9219 28.9277 16.9648 22.8906C16.9219 16.1875 23.4961 11.7188 32.1328 11.7188ZM32.1328 17.1758C27.1055 17.1758 23.7969 19.2812 23.7969 22.8906C23.7969 26.8438 27.1055 28.7773 32.1328 28.7773C37.1602 28.7773 40.4688 26.8438 40.5117 22.8906C40.4688 19.2812 37.1602 17.1758 32.1328 17.1758ZM70.7617 15.5859V21H51.9844V15.5859H58.0859V11.0742H64.832V15.5859H70.7617ZM61.4805 22.2031C66.6367 22.2461 70.2891 26.2422 70.2891 31.8711C70.2891 37.5859 66.6367 41.625 61.4805 41.625C56.3672 41.625 52.5859 37.5859 52.5859 31.8711C52.5859 26.2422 56.3672 22.2461 61.4805 22.2031ZM61.4805 27.918C59.7617 27.875 58.6445 29.207 58.6445 31.8711C58.6445 34.5781 59.7617 35.8242 61.4805 35.8242C63.1562 35.8242 64.2734 34.5781 64.2734 31.8711C64.2734 29.207 63.1562 27.875 61.4805 27.918ZM86.7031 10V49.7461H80.1719V31.2695H78.2812V48.1992H71.8359V10.6875H78.2812V25.8555H80.1719V10H86.7031ZM126.32 27.4023V32.4297H90.0547V27.4023H126.32ZM122.109 33.6328V43.6445H100.883V44.9336H123.184V49.4883H94.0508V39.3906H115.277V38.2734H94.0508V33.6328H122.109ZM122.109 10.4727V20.4844H101.27V21.7734H122.797V26.2852H94.4375V16.2305H115.234V15.0273H94.3945V10.4727L122.109 10.4727ZM173.93 25.3398V30.668H159.191V32.3437H169.633V43.1719H148.449V44.5039H170.578V49.5742H141.703V38.4883H162.844V37.3711H141.746V32.3437H152.359V30.668L137.664 30.668V25.3398H173.93ZM170.621 10.9883V16.1875H160.953C162.436 17.7773 165.83 19.2812 172.555 19.668L170.406 24.7812C162.736 24.3086 158.053 22.1816 155.754 19.1953C153.391 22.1602 148.771 24.3086 141.188 24.7812L139.082 19.668C145.742 19.2598 149.072 17.7773 150.555 16.1875H140.973V10.9883H170.621ZM209.25 10V49.875H202.289V10H209.25ZM187.422 12.6641C193.48 12.6211 198.035 18.207 198.035 26.9727C198.035 35.8672 193.48 41.4102 187.422 41.4102C181.234 41.4102 176.637 35.8672 176.637 26.9727C176.637 18.207 181.234 12.6211 187.422 12.6641ZM187.422 18.8945C184.887 18.8516 183.297 21.4727 183.297 26.9727C183.297 32.5586 184.887 35.0937 187.422 35.0937C189.785 35.0937 191.418 32.5586 191.418 26.9727C191.418 21.4727 189.785 18.8516 187.422 18.8945ZM246.074 20.0977V25.4258H217.973V11.418H224.848V20.0977H246.074ZM249.984 28.9492V34.2773H213.719V28.9492H249.984ZM246.332 43.4727V48.9727H217.5V37.0273H224.461V43.4727H246.332Z" fill="#11DCA9"/>
<path d="M35.5273 34.0195L34.1045 24.1213C29.1819 24.8289 25.5273 29.0463 25.5273 34.0195H35.5273ZM35.5273 39.8203H25.5273C25.5273 45.3432 30.0045 49.8203 35.5273 49.8203V39.8203ZM50.3086 39.8203H60.3086C60.3086 34.2975 55.8314 29.8203 50.3086 29.8203V39.8203ZM50.3086 45.4062V55.4062C55.8314 55.4062 60.3086 50.9291 60.3086 45.4062H50.3086ZM14 45.4062H4C4 50.9291 8.47715 55.4062 14 55.4062V45.4062ZM14 39.8203L14 29.8203C8.47715 29.8203 4 34.2975 4 39.8203H14ZM28.6953 39.8203V49.8203C34.2182 49.8203 38.6953 45.3432 38.6953 39.8203H28.6953ZM28.6953 33.9766H38.6953C38.6953 28.9801 35.0074 24.7504 30.0575 24.0698L28.6953 33.9766ZM16.9648 22.8906L26.9646 22.9618C26.9649 22.9167 26.9649 22.8716 26.9646 22.8265L16.9648 22.8906ZM40.5117 22.8906L50.5111 22.9993C50.512 22.9234 50.5119 22.8475 50.511 22.7716L40.5117 22.8906ZM32.1328 11.7188V21.7188C34.8106 21.7188 36.4522 22.4294 37.1365 22.9197C37.4466 23.1419 37.4781 23.2532 37.4291 23.1648C37.4062 23.1234 37.38 23.0627 37.3618 22.9924C37.3435 22.9217 37.3438 22.8819 37.3438 22.8906H47.3438H57.3438C57.3438 15.8563 53.7385 10.2114 48.7854 6.66234C44.0126 3.24246 38.0488 1.71875 32.1328 1.71875V11.7188ZM47.3438 22.8906H37.3438C37.3438 23.0146 37.3256 22.9851 37.3673 22.8938C37.404 22.8133 37.4175 22.8385 37.2926 22.9519C36.9977 23.2196 36.0463 23.8421 34.1045 24.1213L35.5273 34.0195L36.9502 43.9178C46.5175 42.5425 57.3438 35.884 57.3438 22.8906H47.3438ZM35.5273 34.0195H25.5273V39.8203H35.5273H45.5273V34.0195H35.5273ZM35.5273 39.8203V49.8203H50.3086V39.8203V29.8203H35.5273V39.8203ZM50.3086 39.8203H40.3086V45.4062H50.3086H60.3086V39.8203H50.3086ZM50.3086 45.4062V35.4062H14V45.4062V55.4062H50.3086V45.4062ZM14 45.4062H24V39.8203H14H4V45.4062H14ZM14 39.8203V49.8203H28.6953V39.8203V29.8203H14L14 39.8203ZM28.6953 39.8203H38.6953V33.9766H28.6953H18.6953V39.8203H28.6953ZM28.6953 33.9766L30.0575 24.0698C28.1497 23.8074 27.241 23.1979 26.9801 22.9596C26.871 22.8599 26.8939 22.8483 26.9353 22.9404C26.9812 23.0426 26.9637 23.0802 26.9646 22.9618L16.9648 22.8906L6.9651 22.8195C6.87261 35.8146 17.6722 42.555 27.3331 43.8834L28.6953 33.9766ZM16.9648 22.8906L26.9646 22.8265C26.9646 22.8158 26.9653 22.8565 26.9467 22.9305C26.9281 23.0041 26.9005 23.0703 26.8742 23.1184C26.8178 23.2213 26.8368 23.1223 27.1336 22.9088C27.793 22.4345 29.4225 21.7188 32.1328 21.7188V11.7188V1.71875C26.2064 1.71875 20.2305 3.2374 15.4543 6.67324C10.4874 10.2463 6.91996 15.9201 6.96505 22.9547L16.9648 22.8906ZM32.1328 17.1758V7.17578C28.4064 7.17578 24.1508 7.9292 20.5043 10.3781C16.4641 13.0914 13.7969 17.5421 13.7969 22.8906H23.7969H33.7969C33.7969 23.5642 33.6288 24.4341 33.1493 25.3038C32.6798 26.1552 32.0863 26.6915 31.6548 26.9813C30.9196 27.4751 30.8319 27.1758 32.1328 27.1758V17.1758ZM23.7969 22.8906H13.7969C13.7969 28.1314 16.2277 32.7459 20.5043 35.618C24.2446 38.1299 28.5707 38.7773 32.1328 38.7773V28.7773V18.7773C31.4944 18.7773 31.1445 18.7138 31.0334 18.6873C30.917 18.6594 31.193 18.7046 31.6548 19.0148C32.1592 19.3535 32.7783 19.9421 33.2379 20.8137C33.6952 21.681 33.7969 22.4528 33.7969 22.8906H23.7969ZM32.1328 28.7773V38.7773C35.7008 38.7773 40.0159 38.1277 43.7525 35.6275C48.0093 32.7792 50.4545 28.2093 50.5111 22.9993L40.5117 22.8906L30.5123 22.7819C30.517 22.3535 30.624 21.6011 31.0758 20.7573C31.5299 19.9093 32.1361 19.336 32.6303 19.0053C33.0832 18.7023 33.3519 18.6588 33.2343 18.6869C33.1214 18.7139 32.7709 18.7773 32.1328 18.7773V28.7773ZM40.5117 22.8906L50.511 22.7716C50.4478 17.4638 47.7748 13.06 43.7525 10.3686C40.11 7.93137 35.8648 7.17578 32.1328 7.17578V17.1758V27.1758C33.4282 27.1758 33.3509 27.4729 32.6303 26.9908C32.2086 26.7086 31.6292 26.1875 31.1663 25.361C30.6938 24.5172 30.5203 23.6701 30.5124 23.0097L40.5117 22.8906ZM70.7617 15.5859L80.7617 15.5859C80.7617 10.0631 76.2846 5.58594 70.7617 5.58594V15.5859ZM70.7617 21V31C76.2846 31 80.7617 26.5228 80.7617 21L70.7617 21ZM51.9844 21H41.9844C41.9844 26.5228 46.4615 31 51.9844 31V21ZM51.9844 15.5859V5.58594C46.4615 5.58594 41.9844 10.0631 41.9844 15.5859H51.9844ZM58.0859 15.5859V25.5859C63.6088 25.5859 68.0859 21.1088 68.0859 15.5859H58.0859ZM58.0859 11.0742V1.07422C52.5631 1.07422 48.0859 5.55137 48.0859 11.0742H58.0859ZM64.832 11.0742H74.832C74.832 5.55137 70.3549 1.07422 64.832 1.07422V11.0742ZM64.832 15.5859H54.832C54.832 21.1088 59.3092 25.5859 64.832 25.5859V15.5859ZM61.4805 22.2031L61.5638 12.2035C61.508 12.203 61.4522 12.203 61.3964 12.2035L61.4805 22.2031ZM61.4805 27.918L61.2305 37.9148C61.3993 37.9191 61.5681 37.919 61.7368 37.9147L61.4805 27.918ZM86.7031 10H96.7031C96.7031 4.47715 92.226 0 86.7031 0V10ZM86.7031 49.7461V59.7461C92.226 59.7461 96.7031 55.2689 96.7031 49.7461H86.7031ZM80.1719 49.7461H70.1719C70.1719 55.2689 74.649 59.7461 80.1719 59.7461V49.7461ZM80.1719 31.2695H90.1719C90.1719 25.7467 85.6947 21.2695 80.1719 21.2695V31.2695ZM78.2812 31.2695V21.2695C72.7584 21.2695 68.2812 25.7467 68.2812 31.2695H78.2812ZM78.2812 48.1992V58.1992C83.8041 58.1992 88.2812 53.7221 88.2812 48.1992H78.2812ZM71.8359 48.1992H61.8359C61.8359 53.7221 66.3131 58.1992 71.8359 58.1992V48.1992ZM71.8359 10.6875V0.6875C66.3131 0.6875 61.8359 5.16465 61.8359 10.6875H71.8359ZM78.2812 10.6875H88.2812C88.2812 5.16465 83.8041 0.6875 78.2812 0.6875V10.6875ZM78.2812 25.8555L68.2812 25.8555C68.2812 31.3783 72.7584 35.8555 78.2812 35.8555V25.8555ZM80.1719 25.8555V35.8555C85.6947 35.8555 90.1719 31.3783 90.1719 25.8555H80.1719ZM80.1719 10V0C74.649 0 70.1719 4.47715 70.1719 10H80.1719ZM70.7617 15.5859H60.7617V21H70.7617L80.7617 21V15.5859L70.7617 15.5859ZM70.7617 21V11H51.9844V21V31H70.7617V21ZM51.9844 21H61.9844V15.5859H51.9844H41.9844V21H51.9844ZM51.9844 15.5859V25.5859H58.0859V15.5859V5.58594H51.9844V15.5859ZM58.0859 15.5859H68.0859V11.0742H58.0859H48.0859V15.5859H58.0859ZM58.0859 11.0742V21.0742H64.832V11.0742V1.07422L58.0859 1.07422V11.0742ZM64.832 11.0742H54.832V15.5859H64.832H74.832V11.0742H64.832ZM64.832 15.5859V25.5859H70.7617V15.5859V5.58594H64.832V15.5859ZM61.4805 22.2031L61.3971 32.2028C61.3993 32.2028 61.3603 32.2025 61.2878 32.1873C61.215 32.172 61.1204 32.1442 61.0124 32.0969C60.7847 31.9969 60.581 31.8468 60.4295 31.6807C60.1019 31.3214 60.2891 31.2272 60.2891 31.8711H70.2891H80.2891C80.2891 21.5541 72.9793 12.2986 61.5638 12.2035L61.4805 22.2031ZM70.2891 31.8711H60.2891C60.2891 32.6019 60.0745 32.5456 60.3981 32.1874C60.5505 32.0187 60.7651 31.8565 61.0173 31.7459C61.2701 31.6351 61.4483 31.625 61.4805 31.625V41.625V51.625C73.0908 51.625 80.2891 42.1291 80.2891 31.8711H70.2891ZM61.4805 41.625V31.625C61.5335 31.625 61.7029 31.6389 61.9294 31.7376C62.1539 31.8355 62.3435 31.9774 62.4787 32.1245C62.7743 32.4462 62.5859 32.5084 62.5859 31.8711H52.5859H42.5859C42.5859 42.2968 50.0659 51.625 61.4805 51.625V41.625ZM52.5859 31.8711H62.5859C62.5859 31.5865 62.6327 31.4688 62.6283 31.4806C62.6236 31.4933 62.5789 31.6011 62.4469 31.7434C62.313 31.8877 62.1345 32.0177 61.9342 32.1052C61.7326 32.1932 61.5912 32.2025 61.5645 32.2028L61.4805 22.2031L61.3964 12.2035C50.1786 12.2977 42.5859 21.3878 42.5859 31.8711H52.5859ZM61.4805 27.918L61.7304 17.9211C57.9072 17.8255 54.0044 19.4214 51.4102 22.8898C49.1418 25.9225 48.6445 29.3513 48.6445 31.8711H58.6445H68.6445C68.6445 31.8812 68.6458 32.179 68.5152 32.6742C68.3835 33.1732 68.0865 33.9856 67.4258 34.869C66.7364 35.7906 65.7565 36.6418 64.5151 37.2168C63.2949 37.782 62.1337 37.9374 61.2305 37.9148L61.4805 27.918ZM58.6445 31.8711H48.6445C48.6445 34.3843 49.1305 37.8547 51.4576 40.9153C54.1031 44.3947 57.9534 45.8242 61.4805 45.8242V35.8242V25.8242C62.263 25.8242 63.3303 25.9691 64.4861 26.4999C65.6757 27.0463 66.6612 27.8671 67.3783 28.8103C68.0653 29.7138 68.3759 30.5534 68.5135 31.0737C68.5831 31.337 68.6148 31.5411 68.6297 31.6692C68.6445 31.7978 68.6445 31.8684 68.6445 31.8711H58.6445ZM61.4805 35.8242V45.8242C65.0683 45.8242 68.8952 44.3334 71.4974 40.8734C73.7854 37.8311 74.2734 34.3894 74.2734 31.8711H64.2734H54.2734C54.2734 31.8683 54.2734 31.7987 54.2881 31.672C54.3026 31.5457 54.3338 31.345 54.4019 31.0859C54.5364 30.5749 54.84 29.7474 55.5133 28.8522C56.2156 27.9184 57.1912 27.0881 58.3891 26.5281C59.5576 25.9819 60.6526 25.8242 61.4805 25.8242V35.8242ZM64.2734 31.8711H74.2734C74.2734 29.3464 73.7743 25.9458 71.5444 22.9318C68.9962 19.4876 65.1151 17.8215 61.2241 17.9213L61.4805 27.918L61.7368 37.9147C60.7845 37.9391 59.593 37.7696 58.3599 37.1882C57.1105 36.5993 56.1407 35.7385 55.4663 34.827C54.8191 33.9521 54.5288 33.1518 54.4003 32.662C54.2724 32.1747 54.2734 31.882 54.2734 31.8711H64.2734ZM86.7031 10H76.7031V49.7461H86.7031H96.7031V10H86.7031ZM86.7031 49.7461V39.7461H80.1719V49.7461V59.7461H86.7031V49.7461ZM80.1719 49.7461H90.1719V31.2695H80.1719H70.1719V49.7461H80.1719ZM80.1719 31.2695V21.2695H78.2812V31.2695V41.2695H80.1719V31.2695ZM78.2812 31.2695H68.2812V48.1992H78.2812H88.2812V31.2695H78.2812ZM78.2812 48.1992V38.1992H71.8359V48.1992V58.1992H78.2812V48.1992ZM71.8359 48.1992H81.8359V10.6875H71.8359H61.8359V48.1992H71.8359ZM71.8359 10.6875V20.6875L78.2812 20.6875V10.6875V0.6875H71.8359V10.6875ZM78.2812 10.6875H68.2812V25.8555L78.2812 25.8555H88.2812V10.6875H78.2812ZM78.2812 25.8555V35.8555H80.1719V25.8555V15.8555H78.2812V25.8555ZM80.1719 25.8555H90.1719V10H80.1719H70.1719V25.8555L80.1719 25.8555ZM80.1719 10V20H86.7031V10V0L80.1719 0V10ZM126.32 27.4023H136.32C136.32 21.8795 131.843 17.4023 126.32 17.4023V27.4023ZM126.32 32.4297V42.4297C131.843 42.4297 136.32 37.9525 136.32 32.4297H126.32ZM90.0547 32.4297H80.0547C80.0547 37.9525 84.5318 42.4297 90.0547 42.4297V32.4297ZM90.0547 27.4023V17.4023C84.5318 17.4023 80.0547 21.8795 80.0547 27.4023H90.0547ZM122.109 33.6328H132.109C132.109 28.11 127.632 23.6328 122.109 23.6328V33.6328ZM122.109 43.6445V53.6445C127.632 53.6445 132.109 49.1674 132.109 43.6445H122.109ZM100.883 43.6445V33.6445C95.36 33.6445 90.8828 38.1217 90.8828 43.6445H100.883ZM100.883 44.9336H90.8828C90.8828 50.4564 95.36 54.9336 100.883 54.9336V44.9336ZM123.184 44.9336H133.184C133.184 39.4107 128.706 34.9336 123.184 34.9336V44.9336ZM123.184 49.4883V59.4883C128.706 59.4883 133.184 55.0111 133.184 49.4883H123.184ZM94.0508 49.4883H84.0508C84.0508 55.0111 88.5279 59.4883 94.0508 59.4883V49.4883ZM94.0508 39.3906V29.3906C88.5279 29.3906 84.0508 33.8678 84.0508 39.3906H94.0508ZM115.277 39.3906V49.3906C120.8 49.3906 125.277 44.9135 125.277 39.3906H115.277ZM115.277 38.2734H125.277C125.277 32.7506 120.8 28.2734 115.277 28.2734V38.2734ZM94.0508 38.2734H84.0508C84.0508 43.7963 88.5279 48.2734 94.0508 48.2734V38.2734ZM94.0508 33.6328V23.6328C88.5279 23.6328 84.0508 28.11 84.0508 33.6328H94.0508ZM122.109 10.4727H132.109C132.109 4.94981 127.632 0.472656 122.109 0.472656V10.4727ZM122.109 20.4844V30.4844C127.632 30.4844 132.109 26.0072 132.109 20.4844H122.109ZM101.27 20.4844V10.4844C95.7467 10.4844 91.2695 14.9615 91.2695 20.4844H101.27ZM101.27 21.7734H91.2695C91.2695 27.2963 95.7467 31.7734 101.27 31.7734V21.7734ZM122.797 21.7734H132.797C132.797 16.2506 128.32 11.7734 122.797 11.7734V21.7734ZM122.797 26.2852V36.2852C128.32 36.2852 132.797 31.808 132.797 26.2852H122.797ZM94.4375 26.2852H84.4375C84.4375 31.808 88.9146 36.2852 94.4375 36.2852V26.2852ZM94.4375 16.2305V6.23047C88.9146 6.23047 84.4375 10.7076 84.4375 16.2305H94.4375ZM115.234 16.2305V26.2305C120.757 26.2305 125.234 21.7533 125.234 16.2305H115.234ZM115.234 15.0273H125.234C125.234 9.5045 120.757 5.02734 115.234 5.02734V15.0273ZM94.3945 15.0273H84.3945C84.3945 20.5502 88.8717 25.0273 94.3945 25.0273V15.0273ZM94.3945 10.4727V0.472656C88.8717 0.472656 84.3945 4.94981 84.3945 10.4727H94.3945ZM126.32 27.4023H116.32V32.4297H126.32H136.32V27.4023H126.32ZM126.32 32.4297V22.4297H90.0547V32.4297V42.4297H126.32V32.4297ZM90.0547 32.4297H100.055V27.4023H90.0547H80.0547V32.4297H90.0547ZM90.0547 27.4023V37.4023H126.32V27.4023V17.4023H90.0547V27.4023ZM122.109 33.6328H112.109V43.6445H122.109H132.109V33.6328H122.109ZM122.109 43.6445V33.6445H100.883V43.6445V53.6445H122.109V43.6445ZM100.883 43.6445H90.8828V44.9336H100.883H110.883V43.6445H100.883ZM100.883 44.9336V54.9336H123.184V44.9336V34.9336H100.883V44.9336ZM123.184 44.9336H113.184V49.4883H123.184H133.184V44.9336H123.184ZM123.184 49.4883V39.4883H94.0508V49.4883V59.4883H123.184V49.4883ZM94.0508 49.4883H104.051V39.3906H94.0508H84.0508V49.4883H94.0508ZM94.0508 39.3906V49.3906H115.277V39.3906V29.3906H94.0508V39.3906ZM115.277 39.3906H125.277V38.2734H115.277H105.277V39.3906H115.277ZM115.277 38.2734V28.2734H94.0508V38.2734V48.2734H115.277V38.2734ZM94.0508 38.2734H104.051V33.6328H94.0508H84.0508V38.2734H94.0508ZM94.0508 33.6328V43.6328H122.109V33.6328V23.6328H94.0508V33.6328ZM122.109 10.4727H112.109V20.4844H122.109H132.109V10.4727H122.109ZM122.109 20.4844V10.4844L101.27 10.4844V20.4844V30.4844H122.109V20.4844ZM101.27 20.4844H91.2695V21.7734H101.27H111.27V20.4844H101.27ZM101.27 21.7734V31.7734H122.797V21.7734V11.7734L101.27 11.7734V21.7734ZM122.797 21.7734H112.797V26.2852H122.797H132.797V21.7734H122.797ZM122.797 26.2852V16.2852H94.4375V26.2852V36.2852H122.797V26.2852ZM94.4375 26.2852H104.438V16.2305H94.4375H84.4375V26.2852H94.4375ZM94.4375 16.2305V26.2305H115.234V16.2305V6.23047L94.4375 6.23047V16.2305ZM115.234 16.2305H125.234V15.0273H115.234H105.234V16.2305H115.234ZM115.234 15.0273V5.02734L94.3945 5.02734V15.0273V25.0273H115.234V15.0273ZM94.3945 15.0273H104.395V10.4727H94.3945H84.3945V15.0273H94.3945ZM94.3945 10.4727V20.4727H122.109V10.4727V0.472656L94.3945 0.472656V10.4727ZM173.93 25.3398H183.93C183.93 19.817 179.453 15.3398 173.93 15.3398V25.3398ZM173.93 30.668V40.668C179.453 40.668 183.93 36.1908 183.93 30.668H173.93ZM159.191 30.668V20.668C153.669 20.668 149.191 25.1451 149.191 30.668H159.191ZM159.191 32.3437H149.191C149.191 37.8666 153.669 42.3437 159.191 42.3437V32.3437ZM169.633 32.3437H179.633C179.633 26.8209 175.156 22.3437 169.633 22.3437V32.3437ZM169.633 43.1719V53.1719C175.156 53.1719 179.633 48.6947 179.633 43.1719H169.633ZM148.449 43.1719V33.1719C142.926 33.1719 138.449 37.649 138.449 43.1719L148.449 43.1719ZM148.449 44.5039L138.449 44.5039C138.449 50.0268 142.926 54.5039 148.449 54.5039V44.5039ZM170.578 44.5039H180.578C180.578 38.9811 176.101 34.5039 170.578 34.5039V44.5039ZM170.578 49.5742V59.5742C176.101 59.5742 180.578 55.0971 180.578 49.5742H170.578ZM141.703 49.5742L131.703 49.5742C131.703 55.0971 136.18 59.5742 141.703 59.5742V49.5742ZM141.703 38.4883V28.4883C136.18 28.4883 131.703 32.9654 131.703 38.4883L141.703 38.4883ZM162.844 38.4883V48.4883C168.367 48.4883 172.844 44.0111 172.844 38.4883H162.844ZM162.844 37.3711H172.844C172.844 31.8482 168.367 27.3711 162.844 27.3711V37.3711ZM141.746 37.3711L131.746 37.3711C131.746 42.8939 136.223 47.3711 141.746 47.3711V37.3711ZM141.746 32.3437V22.3437C136.223 22.3437 131.746 26.8209 131.746 32.3438L141.746 32.3437ZM152.359 32.3437V42.3437C157.882 42.3437 162.359 37.8666 162.359 32.3437H152.359ZM152.359 30.668H162.359C162.359 25.1451 157.882 20.668 152.359 20.668V30.668ZM137.664 30.668H127.664C127.664 36.1908 132.141 40.668 137.664 40.668V30.668ZM137.664 25.3398V15.3398C132.141 15.3398 127.664 19.817 127.664 25.3398H137.664ZM170.621 10.9883L180.621 10.9883C180.621 5.46543 176.144 0.988281 170.621 0.988281V10.9883ZM170.621 16.1875V26.1875C176.144 26.1875 180.621 21.7103 180.621 16.1875H170.621ZM160.953 16.1875V6.1875C156.972 6.1875 153.37 8.54894 151.783 12.1998C150.195 15.8507 150.924 20.0955 153.639 23.0072L160.953 16.1875ZM172.555 19.668L181.774 23.5416C183.032 20.5479 182.758 17.1299 181.039 14.3748C179.32 11.6198 176.371 9.8709 173.129 9.68446L172.555 19.668ZM170.406 24.7812L169.791 34.7623C174.034 35.0238 177.979 32.5741 179.626 28.6549L170.406 24.7812ZM155.754 19.1953L163.678 13.0954C161.803 10.6598 158.912 9.22169 155.839 9.19567C152.765 9.16965 149.85 10.5586 147.934 12.9622L155.754 19.1953ZM141.188 24.7812L131.941 28.5887C133.57 32.5463 137.538 35.0281 141.81 34.7619L141.188 24.7812ZM139.082 19.668L138.47 9.6867C135.248 9.88417 132.32 11.6247 130.607 14.3604C128.894 17.0962 128.606 20.4907 129.835 23.4755L139.082 19.668ZM150.555 16.1875L157.869 23.0072C160.583 20.0955 161.313 15.8507 159.725 12.1998C158.138 8.54894 154.536 6.1875 150.555 6.1875V16.1875ZM140.973 16.1875H130.973C130.973 21.7103 135.45 26.1875 140.973 26.1875V16.1875ZM140.973 10.9883V0.988281C135.45 0.988281 130.973 5.46543 130.973 10.9883H140.973ZM173.93 25.3398H163.93V30.668H173.93H183.93V25.3398H173.93ZM173.93 30.668V20.668H159.191V30.668V40.668H173.93V30.668ZM159.191 30.668H149.191V32.3437H159.191H169.191V30.668H159.191ZM159.191 32.3437V42.3437H169.633V32.3437V22.3437H159.191V32.3437ZM169.633 32.3437H159.633V43.1719H169.633H179.633V32.3437H169.633ZM169.633 43.1719V33.1719H148.449V43.1719V53.1719H169.633V43.1719ZM148.449 43.1719L138.449 43.1719V44.5039L148.449 44.5039H158.449V43.1719H148.449ZM148.449 44.5039V54.5039H170.578V44.5039V34.5039H148.449V44.5039ZM170.578 44.5039H160.578V49.5742H170.578H180.578V44.5039H170.578ZM170.578 49.5742V39.5742H141.703V49.5742V59.5742H170.578V49.5742ZM141.703 49.5742H151.703V38.4883H141.703L131.703 38.4883V49.5742L141.703 49.5742ZM141.703 38.4883V48.4883H162.844V38.4883V28.4883H141.703V38.4883ZM162.844 38.4883H172.844V37.3711H162.844H152.844V38.4883H162.844ZM162.844 37.3711V27.3711H141.746V37.3711V47.3711H162.844V37.3711ZM141.746 37.3711H151.746V32.3437H141.746L131.746 32.3438V37.3711L141.746 37.3711ZM141.746 32.3437V42.3437H152.359V32.3437V22.3437H141.746V32.3437ZM152.359 32.3437H162.359V30.668H152.359H142.359V32.3437H152.359ZM152.359 30.668V20.668H137.664V30.668V40.668L152.359 40.668V30.668ZM137.664 30.668L147.664 30.668V25.3398H137.664H127.664V30.668H137.664ZM137.664 25.3398V35.3398L173.93 35.3398V25.3398V15.3398H137.664V25.3398ZM170.621 10.9883H160.621V16.1875H170.621H180.621V10.9883L170.621 10.9883ZM170.621 16.1875V6.1875H160.953V16.1875V26.1875H170.621V16.1875ZM160.953 16.1875L153.639 23.0072C157.861 27.5346 164.623 29.2284 171.981 29.6515L172.555 19.668L173.129 9.68446C170.36 9.52525 168.749 9.15764 167.942 8.88936C167.091 8.60648 167.52 8.56697 168.267 9.36784L160.953 16.1875ZM172.555 19.668L163.335 15.7943L161.187 20.9076L170.406 24.7812L179.626 28.6549L181.774 23.5416L172.555 19.668ZM170.406 24.7812L171.021 14.8002C167.929 14.6096 165.944 14.1105 164.771 13.6426C163.622 13.1844 163.498 12.8611 163.678 13.0954L155.754 19.1953L147.83 25.2952C152.743 31.6774 161.013 34.2213 169.791 34.7623L170.406 24.7812ZM155.754 19.1953L147.934 12.9622C148.116 12.7343 146.89 14.4065 140.565 14.8006L141.188 24.7812L141.81 34.7619C150.653 34.2107 158.665 31.586 163.574 25.4284L155.754 19.1953ZM141.188 24.7812L150.434 20.9738L148.329 15.8605L139.082 19.668L129.835 23.4755L131.941 28.5887L141.188 24.7812ZM139.082 19.668L139.694 29.6492C146.987 29.2022 153.662 27.5181 157.869 23.0072L150.555 16.1875L143.241 9.36784C143.968 8.58747 144.393 8.61737 143.581 8.88953C142.798 9.15203 141.218 9.51831 138.47 9.6867L139.082 19.668ZM150.555 16.1875V6.1875H140.973V16.1875V26.1875H150.555V16.1875ZM140.973 16.1875H150.973V10.9883H140.973H130.973V16.1875H140.973ZM140.973 10.9883V20.9883H170.621V10.9883V0.988281L140.973 0.988281V10.9883ZM209.25 10H219.25C219.25 4.47715 214.773 0 209.25 0V10ZM209.25 49.875V59.875C214.773 59.875 219.25 55.3978 219.25 49.875H209.25ZM202.289 49.875H192.289C192.289 55.3978 196.766 59.875 202.289 59.875V49.875ZM202.289 10V0C196.766 0 192.289 4.47715 192.289 10H202.289ZM187.422 12.6641L187.352 22.6638C187.399 22.6641 187.446 22.6641 187.493 22.6638L187.422 12.6641ZM187.422 18.8945L187.252 28.8931C187.369 28.8951 187.487 28.895 187.604 28.8929L187.422 18.8945ZM209.25 10H199.25V49.875H209.25H219.25V10H209.25ZM209.25 49.875V39.875H202.289V49.875V59.875H209.25V49.875ZM202.289 49.875H212.289V10H202.289H192.289V49.875H202.289ZM202.289 10V20L209.25 20V10V0H202.289V10ZM187.422 12.6641L187.493 22.6638C187.425 22.6643 187.255 22.6406 187.08 22.5508C186.918 22.4681 186.927 22.4198 187.048 22.5782C187.318 22.9327 188.035 24.2334 188.035 26.9727H198.035L208.035 26.9727C208.035 20.9463 206.474 15.0712 202.953 10.4521C199.305 5.66819 193.773 2.61877 187.351 2.66431L187.422 12.6641ZM198.035 26.9727H188.035C188.035 29.8028 187.305 31.1249 187.036 31.4804C186.915 31.6391 186.904 31.594 187.058 31.5147C187.224 31.4293 187.377 31.4102 187.422 31.4102V41.4102V51.4102C193.795 51.4102 199.314 48.3834 202.965 43.5733C206.488 38.9337 208.035 33.0371 208.035 26.9727L198.035 26.9727ZM187.422 41.4102V31.4102C187.4 31.4102 187.505 31.4135 187.643 31.483C187.771 31.5479 187.752 31.5815 187.633 31.4265C187.367 31.0816 186.637 29.7839 186.637 26.9727H176.637H166.637C166.637 33.056 168.205 38.977 171.785 43.6273C175.498 48.4498 181.06 51.4102 187.422 51.4102V41.4102ZM176.637 26.9727H186.637C186.637 24.2526 187.354 22.9762 187.62 22.632C187.74 22.4774 187.756 22.5139 187.621 22.5822C187.56 22.6127 187.494 22.6363 187.432 22.6507C187.37 22.6649 187.339 22.6637 187.352 22.6638L187.422 12.6641L187.491 2.6643C181.082 2.6198 175.507 5.60151 171.798 10.3982C168.218 15.0277 166.637 20.9271 166.637 26.9727H176.637ZM187.422 18.8945L187.591 8.89597C181.96 8.80052 177.762 12.0746 175.588 16.1436C173.747 19.59 173.297 23.5385 173.297 26.9727H183.297H193.297C193.297 26.0559 193.365 25.4897 193.418 25.2055C193.474 24.8993 193.48 25.0966 193.229 25.5664C192.963 26.0649 192.337 26.9904 191.123 27.7722C189.845 28.5955 188.448 28.9134 187.252 28.8931L187.422 18.8945ZM183.297 26.9727H173.297C173.297 30.4271 173.741 34.3944 175.596 37.8541C177.811 41.9836 181.986 45.0937 187.422 45.0937V35.0937V25.0937C188.532 25.0937 189.868 25.3965 191.115 26.1982C192.311 26.9673 192.943 27.8831 193.221 28.4018C193.48 28.8846 193.476 29.0928 193.419 28.7849C193.366 28.4977 193.297 27.9194 193.297 26.9727H183.297ZM187.422 35.0937V45.0937C193.021 45.0937 197.072 41.7294 199.148 37.7986C200.947 34.3926 201.418 30.4806 201.418 26.9727H191.418H181.418C181.418 27.9039 181.348 28.4806 181.294 28.7724C181.236 29.0842 181.227 28.9062 181.464 28.4572C181.713 27.9865 182.308 27.0851 183.48 26.3005C184.72 25.4703 186.13 25.0937 187.422 25.0937V35.0937ZM191.418 26.9727H201.418C201.418 23.4853 200.941 19.5914 199.156 16.199C197.126 12.3393 193.047 8.79061 187.24 8.89618L187.422 18.8945L187.604 28.8929C186.218 28.9181 184.743 28.5217 183.472 27.6697C182.284 26.8723 181.693 25.9614 181.456 25.511C181.227 25.075 181.238 24.9078 181.296 25.218C181.349 25.507 181.418 26.0715 181.418 26.9727H191.418ZM246.074 20.0977H256.074C256.074 14.5748 251.597 10.0977 246.074 10.0977V20.0977ZM246.074 25.4258V35.4258C251.597 35.4258 256.074 30.9486 256.074 25.4258H246.074ZM217.973 25.4258H207.973C207.973 30.9486 212.45 35.4258 217.973 35.4258V25.4258ZM217.973 11.418V1.41797C212.45 1.41797 207.973 5.89512 207.973 11.418H217.973ZM224.848 11.418H234.848C234.848 5.89512 230.37 1.41797 224.848 1.41797V11.418ZM224.848 20.0977H214.848C214.848 25.6205 219.325 30.0977 224.848 30.0977V20.0977ZM249.984 28.9492H259.984C259.984 23.4264 255.507 18.9492 249.984 18.9492V28.9492ZM249.984 34.2773V44.2773C255.507 44.2773 259.984 39.8002 259.984 34.2773H249.984ZM213.719 34.2773H203.719C203.719 39.8002 208.196 44.2773 213.719 44.2773V34.2773ZM213.719 28.9492V18.9492C208.196 18.9492 203.719 23.4264 203.719 28.9492H213.719ZM246.332 43.4727H256.332C256.332 37.9498 251.855 33.4727 246.332 33.4727V43.4727ZM246.332 48.9727V58.9727C251.855 58.9727 256.332 54.4955 256.332 48.9727H246.332ZM217.5 48.9727H207.5C207.5 54.4955 211.977 58.9727 217.5 58.9727V48.9727ZM217.5 37.0273V27.0273C211.977 27.0273 207.5 31.5045 207.5 37.0273H217.5ZM224.461 37.0273H234.461C234.461 31.5045 229.984 27.0273 224.461 27.0273V37.0273ZM224.461 43.4727H214.461C214.461 48.9955 218.938 53.4727 224.461 53.4727V43.4727ZM246.074 20.0977H236.074V25.4258H246.074H256.074V20.0977H246.074ZM246.074 25.4258V15.4258H217.973V25.4258V35.4258H246.074V25.4258ZM217.973 25.4258H227.973V11.418H217.973H207.973V25.4258H217.973ZM217.973 11.418V21.418H224.848V11.418V1.41797L217.973 1.41797V11.418ZM224.848 11.418H214.848V20.0977H224.848H234.848V11.418H224.848ZM224.848 20.0977V30.0977H246.074V20.0977V10.0977L224.848 10.0977V20.0977ZM249.984 28.9492H239.984V34.2773H249.984H259.984V28.9492H249.984ZM249.984 34.2773V24.2773H213.719V34.2773V44.2773H249.984V34.2773ZM213.719 34.2773H223.719V28.9492H213.719H203.719V34.2773H213.719ZM213.719 28.9492V38.9492H249.984V28.9492V18.9492H213.719V28.9492ZM246.332 43.4727H236.332V48.9727H246.332H256.332V43.4727H246.332ZM246.332 48.9727V38.9727H217.5V48.9727V58.9727H246.332V48.9727ZM217.5 48.9727H227.5V37.0273H217.5H207.5V48.9727H217.5ZM217.5 37.0273V47.0273H224.461V37.0273V27.0273H217.5V37.0273ZM224.461 37.0273H214.461V43.4727H224.461H234.461V37.0273H224.461ZM224.461 43.4727V53.4727H246.332V43.4727V33.4727H224.461V43.4727Z" fill="white" mask="url(#path-1-outside-1_6524_1818)"/>
</g>
<defs>
<filter id="filter0_d_6524_1818" x="0" y="0" width="263.984" height="67.875" filterUnits="userSpaceOnUse" color-interpolation-filters="sRGB">
<feFlood flood-opacity="0" result="BackgroundImageFix"/>
<feColorMatrix in="SourceAlpha" type="matrix" values="0 0 0 0 0 0 0 0 0 0 0 0 0 0 0 0 0 0 127 0" result="hardAlpha"/>
<feOffset dy="4"/>
<feGaussianBlur stdDeviation="2"/>
<feComposite in2="hardAlpha" operator="out"/>
<feColorMatrix type="matrix" values="0 0 0 0 0 0 0 0 0 0 0 0 0 0 0 0 0 0 0.07 0"/>
<feBlend mode="normal" in2="BackgroundImageFix" result="effect1_dropShadow_6524_1818"/>
<feBlend mode="normal" in="SourceGraphic" in2="effect1_dropShadow_6524_1818" result="shape"/>
</filter>
</defs>
</svg>
