<svg width="274" height="68" viewBox="0 0 274 68" fill="none" xmlns="http://www.w3.org/2000/svg">
<g filter="url(#filter0_d_6526_5742)">
<mask id="path-1-outside-1_6526_5742" maskUnits="userSpaceOnUse" x="3.26953" y="-0.507813" width="267" height="61" fill="black">
<rect fill="white" x="3.26953" y="-0.507813" width="267" height="61"/>
<path d="M26.0312 11.5039C31.832 11.5039 36.0859 14.8555 36.1289 19.7539C36.0859 23.4492 33.4863 26.3926 29.5547 27.4883V29.8086C32.2617 29.6367 34.9688 29.3789 37.5039 29.0352L38.0195 33.9766C30.0273 35.3945 21.1758 35.6094 14.6875 35.6094L14 30.2383C16.5566 30.2383 19.5 30.2168 22.5938 30.1094V27.5312C18.5977 26.457 15.9336 23.4922 15.9336 19.7539C15.9336 14.8555 20.1875 11.5039 26.0312 11.5039ZM26.0312 16.6602C23.8828 16.7031 22.293 17.6055 22.3359 19.7539C22.293 21.7305 23.8828 22.7617 26.0312 22.7617C28.2227 22.7617 29.6406 21.7305 29.6406 19.7539C29.6406 17.6055 28.2227 16.7031 26.0312 16.6602ZM46.3984 10.0859V21.9453H50.9531V27.6602H46.3984V40.3359H39.5234V10.0859L46.3984 10.0859ZM47.7305 43.6875V49.1445H18.8984V37.6289H25.8594V43.6875H47.7305ZM68.0547 14.8984C68.0547 20.0117 69.9453 24.8672 76.6914 26.8438L73.082 32.2148C68.9785 30.8613 66.3145 28.4336 64.7031 25.2539C62.9414 29.0137 59.8906 31.9785 55.25 33.4609L51.5977 27.9609C58.9023 25.7695 61.0508 20.3984 61.0938 15.2422V11.9766H68.0547V14.8984ZM86.0156 10V33.1602H79.1406V22.1172L72.6094 22.1172V16.5312L79.1406 16.5312V10H86.0156ZM72.1797 34.1055C80.8164 34.1055 86.1016 37.0273 86.1016 41.9688C86.1016 46.9531 80.8164 49.832 72.1797 49.832C63.6289 49.832 58.3438 46.9531 58.3438 41.9688C58.3438 37.0273 63.6289 34.1055 72.1797 34.1055ZM72.1797 39.3906C67.4531 39.3906 65.1758 40.1211 65.2188 41.9688C65.1758 43.7305 67.4531 44.5039 72.1797 44.5039C76.9492 44.5039 79.2695 43.7305 79.2695 41.9688C79.2695 40.1211 76.9492 39.3906 72.1797 39.3906ZM117.941 10.5586C126.879 10.6016 132.594 13.6953 132.637 18.5508C132.615 21.1289 130.982 23.2129 128.125 24.6094V29.1641H136.074V34.4922H99.8086V29.1641H107.457V24.4375C104.729 23.084 103.182 21.043 103.203 18.5508C103.16 13.6953 109.047 10.6016 117.941 10.5586ZM117.941 15.9297C112.914 15.8867 110.336 16.6172 110.379 18.5508C110.336 20.3984 112.914 21.2148 117.941 21.2148C122.84 21.2148 125.504 20.3984 125.504 18.5508C125.504 16.6172 122.84 15.8867 117.941 15.9297ZM131.691 36.6406V49.7461H124.816V42.0117H103.848V36.6406H131.691ZM114.418 29.1641H121.25V26.3281C120.197 26.457 119.102 26.5 117.941 26.5C116.717 26.5 115.535 26.4355 114.418 26.3281V29.1641ZM170.191 12.1914V15.8008C170.148 19.4961 170.148 23.5137 169.203 28.9922H174.102V34.4922H159.191V49.7891H152.23V34.4922L137.836 34.4922V28.9922L162.285 28.9922C163.145 24.3945 163.295 20.7852 163.316 17.6055H141.746V12.1914H170.191ZM207.574 10V24.6523H212.645V30.2812H207.574V49.6602H200.656V10H207.574ZM196.746 13.9531C196.703 26.2422 192.492 36.5547 178.914 43.2148L175.004 37.9727C183.855 33.5039 188.539 27.9395 189.742 19.5391H177.496V13.9531H196.746ZM255.785 11.6328V15.543C255.785 19.4746 255.785 23.3848 254.84 28.6055H259.652V34.1055H223.473V28.6055H247.836C248.094 27.2734 248.287 26.0273 248.438 24.8242L227.383 25.5117L226.652 20.0547L248.867 19.7109L248.91 17.0898H227.812V11.6328L255.785 11.6328ZM256.258 43.6875V49.1875H227.426V36.3398H234.301V43.6875H256.258Z"/>
</mask>
<path d="M26.0312 11.5039C31.832 11.5039 36.0859 14.8555 36.1289 19.7539C36.0859 23.4492 33.4863 26.3926 29.5547 27.4883V29.8086C32.2617 29.6367 34.9688 29.3789 37.5039 29.0352L38.0195 33.9766C30.0273 35.3945 21.1758 35.6094 14.6875 35.6094L14 30.2383C16.5566 30.2383 19.5 30.2168 22.5938 30.1094V27.5312C18.5977 26.457 15.9336 23.4922 15.9336 19.7539C15.9336 14.8555 20.1875 11.5039 26.0312 11.5039ZM26.0312 16.6602C23.8828 16.7031 22.293 17.6055 22.3359 19.7539C22.293 21.7305 23.8828 22.7617 26.0312 22.7617C28.2227 22.7617 29.6406 21.7305 29.6406 19.7539C29.6406 17.6055 28.2227 16.7031 26.0312 16.6602ZM46.3984 10.0859V21.9453H50.9531V27.6602H46.3984V40.3359H39.5234V10.0859L46.3984 10.0859ZM47.7305 43.6875V49.1445H18.8984V37.6289H25.8594V43.6875H47.7305ZM68.0547 14.8984C68.0547 20.0117 69.9453 24.8672 76.6914 26.8438L73.082 32.2148C68.9785 30.8613 66.3145 28.4336 64.7031 25.2539C62.9414 29.0137 59.8906 31.9785 55.25 33.4609L51.5977 27.9609C58.9023 25.7695 61.0508 20.3984 61.0938 15.2422V11.9766H68.0547V14.8984ZM86.0156 10V33.1602H79.1406V22.1172L72.6094 22.1172V16.5312L79.1406 16.5312V10H86.0156ZM72.1797 34.1055C80.8164 34.1055 86.1016 37.0273 86.1016 41.9688C86.1016 46.9531 80.8164 49.832 72.1797 49.832C63.6289 49.832 58.3438 46.9531 58.3438 41.9688C58.3438 37.0273 63.6289 34.1055 72.1797 34.1055ZM72.1797 39.3906C67.4531 39.3906 65.1758 40.1211 65.2188 41.9688C65.1758 43.7305 67.4531 44.5039 72.1797 44.5039C76.9492 44.5039 79.2695 43.7305 79.2695 41.9688C79.2695 40.1211 76.9492 39.3906 72.1797 39.3906ZM117.941 10.5586C126.879 10.6016 132.594 13.6953 132.637 18.5508C132.615 21.1289 130.982 23.2129 128.125 24.6094V29.1641H136.074V34.4922H99.8086V29.1641H107.457V24.4375C104.729 23.084 103.182 21.043 103.203 18.5508C103.16 13.6953 109.047 10.6016 117.941 10.5586ZM117.941 15.9297C112.914 15.8867 110.336 16.6172 110.379 18.5508C110.336 20.3984 112.914 21.2148 117.941 21.2148C122.84 21.2148 125.504 20.3984 125.504 18.5508C125.504 16.6172 122.84 15.8867 117.941 15.9297ZM131.691 36.6406V49.7461H124.816V42.0117H103.848V36.6406H131.691ZM114.418 29.1641H121.25V26.3281C120.197 26.457 119.102 26.5 117.941 26.5C116.717 26.5 115.535 26.4355 114.418 26.3281V29.1641ZM170.191 12.1914V15.8008C170.148 19.4961 170.148 23.5137 169.203 28.9922H174.102V34.4922H159.191V49.7891H152.23V34.4922L137.836 34.4922V28.9922L162.285 28.9922C163.145 24.3945 163.295 20.7852 163.316 17.6055H141.746V12.1914H170.191ZM207.574 10V24.6523H212.645V30.2812H207.574V49.6602H200.656V10H207.574ZM196.746 13.9531C196.703 26.2422 192.492 36.5547 178.914 43.2148L175.004 37.9727C183.855 33.5039 188.539 27.9395 189.742 19.5391H177.496V13.9531H196.746ZM255.785 11.6328V15.543C255.785 19.4746 255.785 23.3848 254.84 28.6055H259.652V34.1055H223.473V28.6055H247.836C248.094 27.2734 248.287 26.0273 248.438 24.8242L227.383 25.5117L226.652 20.0547L248.867 19.7109L248.91 17.0898H227.812V11.6328L255.785 11.6328ZM256.258 43.6875V49.1875H227.426V36.3398H234.301V43.6875H256.258Z" fill="#11DCA9"/>
<path d="M36.1289 19.7539L46.1282 19.8702C46.129 19.8022 46.1291 19.7342 46.1285 19.6662L36.1289 19.7539ZM29.5547 27.4883L26.8701 17.8554C22.5459 19.0605 19.5547 22.9993 19.5547 27.4883H29.5547ZM29.5547 29.8086H19.5547C19.5547 32.5708 20.6972 35.21 22.7113 37.1002C24.7254 38.9905 27.4317 39.9635 30.1883 39.7885L29.5547 29.8086ZM37.5039 29.0352L47.4499 27.9973C47.1691 25.3064 45.8099 22.844 43.6826 21.1723C41.5552 19.5006 38.8413 18.7623 36.1603 19.1258L37.5039 29.0352ZM38.0195 33.9766L39.7664 43.8228C44.931 42.9065 48.5099 38.1556 47.9655 32.9387L38.0195 33.9766ZM14.6875 35.6094L4.76843 36.879C5.40731 41.8703 9.65551 45.6094 14.6875 45.6094V35.6094ZM14 30.2383V20.2383C11.1265 20.2383 8.39194 21.4744 6.49346 23.6313C4.59498 25.7883 3.7161 28.6577 4.08093 31.5079L14 30.2383ZM22.5938 30.1094L22.9408 40.1034C28.3253 39.9164 32.5938 35.4972 32.5938 30.1094H22.5938ZM22.5938 27.5312H32.5938C32.5938 23.0082 29.5577 19.0483 25.1898 17.8741L22.5938 27.5312ZM26.0312 16.6602L26.2273 6.66208C26.0953 6.65949 25.9633 6.65952 25.8313 6.66216L26.0312 16.6602ZM22.3359 19.7539L32.3336 19.9712C32.3366 19.8322 32.3367 19.693 32.3339 19.5539L22.3359 19.7539ZM46.3984 10.0859H56.3984C56.3984 4.56309 51.9213 0.0859375 46.3984 0.0859375V10.0859ZM46.3984 21.9453H36.3984C36.3984 27.4682 40.8756 31.9453 46.3984 31.9453V21.9453ZM50.9531 21.9453H60.9531C60.9531 16.4225 56.476 11.9453 50.9531 11.9453V21.9453ZM50.9531 27.6602V37.6602C56.476 37.6602 60.9531 33.183 60.9531 27.6602H50.9531ZM46.3984 27.6602V17.6602C40.8756 17.6602 36.3984 22.1373 36.3984 27.6602H46.3984ZM46.3984 40.3359V50.3359C51.9213 50.3359 56.3984 45.8588 56.3984 40.3359H46.3984ZM39.5234 40.3359H29.5234C29.5234 45.8588 34.0006 50.3359 39.5234 50.3359V40.3359ZM39.5234 10.0859V0.0859375C34.0006 0.0859375 29.5234 4.56309 29.5234 10.0859H39.5234ZM47.7305 43.6875H57.7305C57.7305 38.1647 53.2533 33.6875 47.7305 33.6875V43.6875ZM47.7305 49.1445V59.1445C53.2533 59.1445 57.7305 54.6674 57.7305 49.1445H47.7305ZM18.8984 49.1445H8.89844C8.89844 54.6674 13.3756 59.1445 18.8984 59.1445V49.1445ZM18.8984 37.6289V27.6289C13.3756 27.6289 8.89844 32.1061 8.89844 37.6289H18.8984ZM25.8594 37.6289H35.8594C35.8594 32.1061 31.3822 27.6289 25.8594 27.6289V37.6289ZM25.8594 43.6875H15.8594C15.8594 49.2103 20.3365 53.6875 25.8594 53.6875V43.6875ZM26.0312 11.5039V21.5039C27.0675 21.5039 27.2421 21.8028 26.9526 21.5688C26.7964 21.4425 26.5674 21.2006 26.383 20.8272C26.1939 20.4444 26.1314 20.0837 26.1293 19.8416L36.1289 19.7539L46.1285 19.6662C46.0216 7.47995 35.3275 1.50391 26.0312 1.50391V11.5039ZM36.1289 19.7539L26.1296 19.6376C26.1325 19.3909 26.1812 19.0955 26.2976 18.7915C26.4127 18.4909 26.5671 18.2514 26.715 18.0792C27.0107 17.7351 27.1698 17.7718 26.8701 17.8554L29.5547 27.4883L32.2393 37.1212C39.5476 35.0844 46.0234 28.8855 46.1282 19.8702L36.1289 19.7539ZM29.5547 27.4883H19.5547V29.8086H29.5547H39.5547V27.4883H29.5547ZM29.5547 29.8086L30.1883 39.7885C33.0967 39.6038 36.0433 39.3247 38.8475 38.9445L37.5039 29.0352L36.1603 19.1258C33.8942 19.4331 31.4267 19.6696 28.921 19.8287L29.5547 29.8086ZM37.5039 29.0352L27.5579 30.073L28.0735 35.0144L38.0195 33.9766L47.9655 32.9387L47.4499 27.9973L37.5039 29.0352ZM38.0195 33.9766L36.2726 24.1303C29.1889 25.3871 21.0681 25.6094 14.6875 25.6094L14.6875 35.6094V45.6094C21.2835 45.6094 30.8658 45.402 39.7664 43.8228L38.0195 33.9766ZM14.6875 35.6094L24.6066 34.3397L23.9191 28.9686L14 30.2383L4.08093 31.5079L4.76843 36.879L14.6875 35.6094ZM14 30.2383L14 40.2383C16.6076 40.2383 19.681 40.2165 22.9408 40.1034L22.5938 30.1094L22.2467 20.1154C19.319 20.2171 16.5057 20.2383 14 20.2383V30.2383ZM22.5938 30.1094H32.5938V27.5312H22.5938H12.5938V30.1094H22.5938ZM22.5938 27.5312L25.1898 17.8741C24.8593 17.7853 25.0126 17.7359 25.317 18.0865C25.471 18.2639 25.6358 18.5162 25.7585 18.8387C25.8828 19.1655 25.9336 19.4853 25.9336 19.7539H15.9336H5.93359C5.93359 28.995 12.6579 35.2153 19.9977 37.1884L22.5938 27.5312ZM15.9336 19.7539H25.9336C25.9336 20.0072 25.8711 20.3858 25.6744 20.7885C25.4824 21.1814 25.2419 21.436 25.0776 21.5688C24.7753 21.8132 24.9539 21.5039 26.0312 21.5039V11.5039V1.50391C16.7565 1.50391 5.93359 7.45071 5.93359 19.7539H15.9336ZM26.0312 16.6602L25.8313 6.66216C23.6449 6.70588 20.3239 7.17777 17.3307 9.44089C13.834 12.0848 12.2597 16.0441 12.3379 19.9539L22.3359 19.7539L32.3339 19.5539C32.3483 20.2744 32.23 21.3383 31.6924 22.5177C31.1416 23.7261 30.3114 24.6996 29.3929 25.3941C27.721 26.6582 26.2692 26.6574 26.2312 26.6582L26.0312 16.6602ZM22.3359 19.7539L12.3383 19.5366C12.25 23.5987 14.0006 27.4308 17.2897 29.9444C20.215 32.18 23.5233 32.7617 26.0312 32.7617V22.7617V12.7617C26.3908 12.7617 27.83 12.8278 29.4339 14.0536C30.2867 14.7053 31.0871 15.6239 31.6387 16.7943C32.1879 17.9595 32.3529 19.0809 32.3336 19.9712L22.3359 19.7539ZM26.0312 22.7617V32.7617C28.536 32.7617 31.9408 32.189 34.9209 29.7947C38.2172 27.1464 39.6406 23.3581 39.6406 19.7539H29.6406H19.6406C19.6406 18.1262 20.3551 15.8419 22.3945 14.2034C24.1178 12.8188 25.7179 12.7617 26.0312 12.7617V22.7617ZM29.6406 19.7539H39.6406C39.6406 16.2827 38.3628 12.3575 34.8802 9.58925C31.8345 7.16837 28.41 6.70488 26.2273 6.66208L26.0312 16.6602L25.8352 26.6582C25.7472 26.6565 25.3708 26.6433 24.8093 26.4852C24.2346 26.3234 23.355 25.9768 22.4353 25.2457C21.4709 24.4792 20.6946 23.4709 20.2033 22.3324C19.733 21.2427 19.6406 20.3098 19.6406 19.7539H29.6406ZM46.3984 10.0859L36.3984 10.0859V21.9453H46.3984H56.3984V10.0859H46.3984ZM46.3984 21.9453V31.9453H50.9531V21.9453V11.9453H46.3984V21.9453ZM50.9531 21.9453H40.9531V27.6602H50.9531H60.9531V21.9453H50.9531ZM50.9531 27.6602V17.6602H46.3984V27.6602V37.6602H50.9531V27.6602ZM46.3984 27.6602H36.3984V40.3359H46.3984H56.3984V27.6602H46.3984ZM46.3984 40.3359V30.3359H39.5234V40.3359V50.3359H46.3984V40.3359ZM39.5234 40.3359H49.5234V10.0859L39.5234 10.0859H29.5234V40.3359H39.5234ZM39.5234 10.0859V20.0859H46.3984V10.0859V0.0859375H39.5234V10.0859ZM47.7305 43.6875H37.7305V49.1445H47.7305H57.7305V43.6875H47.7305ZM47.7305 49.1445V39.1445H18.8984V49.1445V59.1445H47.7305V49.1445ZM18.8984 49.1445H28.8984V37.6289H18.8984H8.89844L8.89844 49.1445H18.8984ZM18.8984 37.6289V47.6289H25.8594V37.6289V27.6289H18.8984V37.6289ZM25.8594 37.6289H15.8594V43.6875H25.8594H35.8594V37.6289H25.8594ZM25.8594 43.6875V53.6875H47.7305V43.6875V33.6875H25.8594V43.6875ZM76.6914 26.8438L84.9914 32.4214C86.7695 29.7754 87.1795 26.4403 86.0952 23.4425C85.011 20.4447 82.5624 18.1435 79.5031 17.2472L76.6914 26.8438ZM73.082 32.2148L69.9496 41.7116C74.2081 43.1162 78.881 41.5143 81.382 37.7925L73.082 32.2148ZM64.7031 25.2539L73.6232 20.7336C71.8946 17.3227 68.3723 15.1961 64.5489 15.2551C60.7255 15.3141 57.2704 17.5483 55.6479 21.0109L64.7031 25.2539ZM55.25 33.4609L46.9195 38.9929C49.3921 42.7163 54.0353 44.3468 58.293 42.9867L55.25 33.4609ZM51.5977 27.9609L48.7242 18.3827C45.6909 19.2927 43.2679 21.5856 42.1922 24.5642C41.1165 27.5427 41.5153 30.8548 43.2672 33.4929L51.5977 27.9609ZM61.0938 15.2422L71.0934 15.3255C71.0936 15.2977 71.0938 15.27 71.0938 15.2422H61.0938ZM61.0938 11.9766V1.97656C55.5709 1.97656 51.0938 6.45372 51.0938 11.9766H61.0938ZM68.0547 11.9766H78.0547C78.0547 6.45372 73.5775 1.97656 68.0547 1.97656V11.9766ZM86.0156 10H96.0156C96.0156 4.47715 91.5385 0 86.0156 0V10ZM86.0156 33.1602V43.1602C91.5385 43.1602 96.0156 38.683 96.0156 33.1602H86.0156ZM79.1406 33.1602H69.1406C69.1406 38.683 73.6178 43.1602 79.1406 43.1602V33.1602ZM79.1406 22.1172H89.1406C89.1406 16.5943 84.6635 12.1172 79.1406 12.1172V22.1172ZM72.6094 22.1172H62.6094C62.6094 27.64 67.0865 32.1172 72.6094 32.1172V22.1172ZM72.6094 16.5312V6.53125C67.0865 6.53125 62.6094 11.0084 62.6094 16.5312H72.6094ZM79.1406 16.5312V26.5312C84.6635 26.5312 89.1406 22.0541 89.1406 16.5312H79.1406ZM79.1406 10V0C73.6178 0 69.1406 4.47715 69.1406 10H79.1406ZM65.2188 41.9688L75.2158 42.2126C75.2197 42.0538 75.2197 41.895 75.216 41.7363L65.2188 41.9688ZM68.0547 14.8984H58.0547C58.0547 18.5877 58.7232 23.134 61.3694 27.3571C64.1507 31.7959 68.477 34.8574 73.8797 36.4403L76.6914 26.8438L79.5031 17.2472C78.7613 17.0298 78.4377 16.8184 78.3503 16.7553C78.2792 16.704 78.2967 16.705 78.3172 16.7376C78.3315 16.7606 78.0547 16.3225 78.0547 14.8984L68.0547 14.8984ZM76.6914 26.8438L68.3914 21.2661L64.782 26.6372L73.082 32.2148L81.382 37.7925L84.9914 32.4214L76.6914 26.8438ZM73.082 32.2148L76.2145 22.7181C75.261 22.4036 74.7351 22.0553 74.4354 21.8005C74.1409 21.5502 73.874 21.2285 73.6232 20.7336L64.7031 25.2539L55.7831 29.7742C58.6259 35.3839 63.4117 39.5551 69.9496 41.7116L73.082 32.2148ZM64.7031 25.2539L55.6479 21.0109C55.0158 22.3599 54.0817 23.3363 52.207 23.9352L55.25 33.4609L58.293 42.9867C65.6995 40.6207 70.867 35.6675 73.7583 29.4969L64.7031 25.2539ZM55.25 33.4609L63.5805 27.929L59.9282 22.429L51.5977 27.9609L43.2672 33.4929L46.9195 38.9929L55.25 33.4609ZM51.5977 27.9609L54.4711 37.5392C60.1648 35.8311 64.6021 32.5928 67.4774 28.126C70.2413 23.8322 71.0612 19.189 71.0934 15.3255L61.0938 15.2422L51.0941 15.1589C51.0833 16.4516 50.8075 17.0721 50.6603 17.3008C50.595 17.4022 50.4954 17.5271 50.283 17.6813C50.0599 17.8432 49.5944 18.1216 48.7242 18.3827L51.5977 27.9609ZM61.0938 15.2422H71.0938V11.9766H61.0938H51.0938V15.2422H61.0938ZM61.0938 11.9766V21.9766H68.0547V11.9766V1.97656L61.0938 1.97656V11.9766ZM68.0547 11.9766H58.0547V14.8984H68.0547L78.0547 14.8984V11.9766H68.0547ZM86.0156 10H76.0156V33.1602H86.0156H96.0156V10H86.0156ZM86.0156 33.1602V23.1602H79.1406V33.1602V43.1602H86.0156V33.1602ZM79.1406 33.1602H89.1406V22.1172H79.1406L69.1406 22.1172V33.1602H79.1406ZM79.1406 22.1172V12.1172H72.6094V22.1172V32.1172H79.1406V22.1172ZM72.6094 22.1172L82.6094 22.1172V16.5312L72.6094 16.5312H62.6094V22.1172H72.6094ZM72.6094 16.5312V26.5312L79.1406 26.5312V16.5312V6.53125H72.6094V16.5312ZM79.1406 16.5312H89.1406V10H79.1406H69.1406V16.5312L79.1406 16.5312ZM79.1406 10V20H86.0156V10V0L79.1406 0V10ZM72.1797 34.1055V44.1055C73.7937 44.1055 75.0556 44.2436 75.9872 44.4348C76.9358 44.6296 77.3814 44.8463 77.4833 44.9035C77.5686 44.9514 77.1767 44.7512 76.7592 44.1096C76.3003 43.4045 76.1016 42.6082 76.1016 41.9688H86.1016H96.1016C96.1016 35.1815 92.166 30.2108 87.2755 27.4647C82.8045 24.9541 77.4039 24.1055 72.1797 24.1055V34.1055ZM86.1016 41.9688H76.1016C76.1016 41.3567 76.2915 40.5662 76.754 39.854C77.1758 39.2044 77.5763 38.9981 77.4981 39.0418C77.4015 39.0959 76.9585 39.3111 76.0056 39.5049C75.0702 39.6952 73.8025 39.832 72.1797 39.832V49.832V59.832C77.3809 59.832 82.7832 59.0014 87.2607 56.4973C92.1847 53.7433 96.1016 48.7584 96.1016 41.9688H86.1016ZM72.1797 49.832V39.832C70.5841 39.832 69.3369 39.6961 68.417 39.5077C67.48 39.3158 67.0456 39.1031 66.9531 39.0512C66.8788 39.0094 67.2767 39.2162 67.6953 39.8621C68.1542 40.5703 68.3438 41.357 68.3438 41.9688H58.3438H48.3438C48.3438 48.7508 52.252 53.7322 57.1572 56.4879C61.6237 58.9972 67.0077 59.832 72.1797 59.832V49.832ZM58.3438 41.9688H68.3438C68.3438 42.6078 68.1453 43.4005 67.6901 44.1015C67.2759 44.7394 66.8864 44.9401 66.968 44.8941C67.0657 44.839 67.5028 44.6249 68.4356 44.432C69.3516 44.2426 70.5931 44.1055 72.1797 44.1055V34.1055V24.1055C66.9846 24.1055 61.6022 24.9585 57.1423 27.4741C52.2708 30.2219 48.3438 35.1891 48.3438 41.9688H58.3438ZM72.1797 39.3906V29.3906C69.6456 29.3906 66.4197 29.5407 63.539 30.5724C62.0031 31.1224 59.8327 32.1758 58.0299 34.2798C56.0278 36.6165 55.1576 39.4575 55.2215 42.2012L65.2188 41.9688L75.216 41.7363C75.2584 43.5562 74.6568 45.613 73.2173 47.2931C71.9771 48.7404 70.6635 49.2648 70.2823 49.4013C69.8645 49.5509 69.7548 49.5215 70.1946 49.4727C70.5913 49.4286 71.2296 49.3906 72.1797 49.3906V39.3906ZM65.2188 41.9688L55.2217 41.7249C55.1521 44.5775 56.1059 47.4255 58.1105 49.7076C59.9024 51.7475 62.0353 52.7729 63.539 53.3114C66.3946 54.3341 69.5907 54.5039 72.1797 54.5039V44.5039V34.5039C71.2468 34.5039 70.6161 34.4645 70.2247 34.4199C69.7925 34.3706 69.8861 34.3406 70.2823 34.4825C70.6312 34.6075 71.9074 35.1092 73.1367 36.5086C74.5786 38.1502 75.2639 40.2408 75.2158 42.2126L65.2188 41.9688ZM72.1797 44.5039V54.5039C74.7967 54.5039 77.9834 54.3317 80.8301 53.3308C82.3244 52.8055 84.4274 51.8135 86.2213 49.8464C88.2271 47.647 89.2695 44.8516 89.2695 41.9688H79.2695H69.2695C69.2695 39.9667 70.0219 37.9287 71.4436 36.3698C72.6534 35.0432 73.8782 34.5749 74.1963 34.4631C74.5624 34.3344 74.6282 34.3679 74.1805 34.4184C73.7716 34.4644 73.1251 34.5039 72.1797 34.5039V44.5039ZM79.2695 41.9688H89.2695C89.2695 39.1918 88.3126 36.3978 86.304 34.14C84.4969 32.1085 82.3555 31.0893 80.8301 30.5529C77.9584 29.5433 74.7425 29.3906 72.1797 29.3906V39.3906V49.3906C73.1421 49.3906 73.7961 49.4287 74.2102 49.4741C74.6653 49.524 74.5838 49.5569 74.1963 49.4207C73.8471 49.2979 72.5839 48.8077 71.3609 47.4329C69.9365 45.8317 69.2695 43.8219 69.2695 41.9688H79.2695ZM117.941 10.5586L117.989 0.558709C117.957 0.558555 117.925 0.558555 117.893 0.558711L117.941 10.5586ZM132.637 18.5508L142.636 18.6341C142.637 18.5768 142.637 18.5196 142.636 18.4623L132.637 18.5508ZM128.125 24.6094L123.734 15.6249C120.302 17.3024 118.125 20.789 118.125 24.6094H128.125ZM128.125 29.1641H118.125C118.125 34.6869 122.602 39.1641 128.125 39.1641V29.1641ZM136.074 29.1641L146.074 29.1641C146.074 23.6412 141.597 19.1641 136.074 19.1641V29.1641ZM136.074 34.4922V44.4922C141.597 44.4922 146.074 40.015 146.074 34.4922L136.074 34.4922ZM99.8086 34.4922H89.8086C89.8086 40.015 94.2857 44.4922 99.8086 44.4922V34.4922ZM99.8086 29.1641V19.1641C94.2857 19.1641 89.8086 23.6412 89.8086 29.1641H99.8086ZM107.457 29.1641V39.1641C112.98 39.1641 117.457 34.6869 117.457 29.1641H107.457ZM107.457 24.4375H117.457C117.457 20.6384 115.304 17.1674 111.901 15.4792L107.457 24.4375ZM103.203 18.5508L113.203 18.637C113.203 18.5788 113.203 18.5205 113.203 18.4623L103.203 18.5508ZM117.941 15.9297L117.856 25.9293C117.914 25.9298 117.971 25.9298 118.029 25.9293L117.941 15.9297ZM110.379 18.5508L120.376 18.7833C120.38 18.6317 120.38 18.4802 120.376 18.3286L110.379 18.5508ZM131.691 36.6406L141.691 36.6406C141.691 31.1178 137.214 26.6406 131.691 26.6406V36.6406ZM131.691 49.7461V59.7461C137.214 59.7461 141.691 55.2689 141.691 49.7461L131.691 49.7461ZM124.816 49.7461H114.816C114.816 55.2689 119.294 59.7461 124.816 59.7461V49.7461ZM124.816 42.0117H134.816C134.816 36.4889 130.339 32.0117 124.816 32.0117V42.0117ZM103.848 42.0117H93.8477C93.8477 47.5346 98.3248 52.0117 103.848 52.0117V42.0117ZM103.848 36.6406V26.6406C98.3248 26.6406 93.8477 31.1178 93.8477 36.6406H103.848ZM114.418 29.1641H104.418C104.418 34.6869 108.895 39.1641 114.418 39.1641V29.1641ZM121.25 29.1641V39.1641C126.773 39.1641 131.25 34.6869 131.25 29.1641H121.25ZM121.25 26.3281H131.25C131.25 23.4642 130.022 20.7377 127.877 18.8397C125.733 16.9416 122.877 16.0542 120.035 16.4023L121.25 26.3281ZM114.418 26.3281L115.375 16.374C112.569 16.1043 109.78 17.0311 107.694 18.9264C105.608 20.8217 104.418 23.5095 104.418 26.3281H114.418ZM117.941 10.5586L117.893 20.5585C121.412 20.5754 123.262 21.2174 123.852 21.5374C124.087 21.6655 123.782 21.5581 123.387 20.9943C122.936 20.3493 122.645 19.4924 122.637 18.6393L132.637 18.5508L142.636 18.4623C142.574 11.387 138.139 6.53813 133.397 3.96257C128.884 1.51108 123.408 0.58476 117.989 0.558709L117.941 10.5586ZM132.637 18.5508L122.637 18.4675C122.641 18.0514 122.712 17.5864 122.875 17.1167C123.036 16.6503 123.254 16.2752 123.462 15.9996C123.861 15.4712 124.117 15.4376 123.734 15.6249L128.125 24.6094L132.516 33.5938C137.514 31.1512 142.573 26.2308 142.636 18.6341L132.637 18.5508ZM128.125 24.6094H118.125V29.1641H128.125H138.125V24.6094H128.125ZM128.125 29.1641V39.1641H136.074V29.1641V19.1641H128.125V29.1641ZM136.074 29.1641H126.074V34.4922H136.074L146.074 34.4922V29.1641L136.074 29.1641ZM136.074 34.4922V24.4922H99.8086V34.4922V44.4922H136.074V34.4922ZM99.8086 34.4922H109.809V29.1641H99.8086H89.8086V34.4922H99.8086ZM99.8086 29.1641V39.1641H107.457V29.1641V19.1641H99.8086V29.1641ZM107.457 29.1641H117.457V24.4375H107.457H97.457V29.1641H107.457ZM107.457 24.4375L111.901 15.4792C111.616 15.3379 111.938 15.4263 112.369 16.016C112.87 16.701 113.211 17.6554 113.203 18.637L103.203 18.5508L93.2035 18.4646C93.1387 25.9752 98.0651 30.9413 103.013 33.3958L107.457 24.4375ZM103.203 18.5508L113.203 18.4623C113.211 19.4078 112.893 20.3353 112.416 21.0132C112.005 21.5977 111.691 21.7001 111.955 21.5582C112.592 21.2157 114.497 20.5753 117.99 20.5585L117.941 10.5586L117.893 0.558711C112.491 0.584806 107.005 1.51277 102.486 3.94176C97.7857 6.4683 93.139 11.3543 93.2035 18.6393L103.203 18.5508ZM117.941 15.9297L118.027 5.93005C115.337 5.90707 112.04 6.03916 109.121 7.00417C107.596 7.50807 105.38 8.4906 103.494 10.5294C101.359 12.8376 100.315 15.7846 100.381 18.7729L110.379 18.5508L120.376 18.3286C120.421 20.3502 119.683 22.4808 118.177 24.1095C116.92 25.4689 115.654 25.9089 115.397 25.9939C115.078 26.0994 115.075 26.0537 115.606 26.0018C116.094 25.954 116.824 25.9205 117.856 25.9293L117.941 15.9297ZM110.379 18.5508L100.382 18.3183C100.31 21.4144 101.442 24.3404 103.528 26.5728C105.368 28.5428 107.516 29.5206 109.012 30.0341C111.908 31.0279 115.181 31.2148 117.941 31.2148V21.2148V11.2148C116.933 11.2148 116.216 11.1728 115.738 11.1197C115.221 11.0622 115.209 11.0158 115.505 11.1173C115.734 11.1957 116.931 11.6229 118.143 12.9202C119.6 14.4799 120.427 16.611 120.376 18.7833L110.379 18.5508ZM117.941 21.2148V31.2148C120.67 31.2148 123.904 31.0219 126.781 30.0424C128.261 29.539 130.362 28.593 132.189 26.7093C134.252 24.5828 135.504 21.7158 135.504 18.5508H125.504H115.504C115.504 16.3096 116.423 14.2375 117.833 12.7837C119.008 11.5728 120.137 11.1773 120.338 11.1089C120.607 11.0174 120.578 11.0642 120.074 11.1209C119.605 11.1735 118.909 11.2148 117.941 11.2148V21.2148ZM125.504 18.5508H135.504C135.504 15.489 134.341 12.5974 132.223 10.3924C130.349 8.44136 128.182 7.49049 126.674 6.99634C123.77 6.04461 120.513 5.90675 117.854 5.93007L117.941 15.9297L118.029 25.9293C119.02 25.9206 119.729 25.9536 120.207 26.0008C120.725 26.0519 120.738 26.0977 120.445 26.0017C120.216 25.9265 119.02 25.5181 117.799 24.2466C116.334 22.7209 115.504 20.6458 115.504 18.5508H125.504ZM131.691 36.6406H121.691V49.7461H131.691L141.691 49.7461V36.6406L131.691 36.6406ZM131.691 49.7461V39.7461H124.816V49.7461V59.7461H131.691V49.7461ZM124.816 49.7461H134.816V42.0117H124.816H114.816V49.7461H124.816ZM124.816 42.0117V32.0117H103.848V42.0117V52.0117H124.816V42.0117ZM103.848 42.0117H113.848V36.6406H103.848H93.8477V42.0117H103.848ZM103.848 36.6406V46.6406H131.691V36.6406V26.6406H103.848V36.6406ZM114.418 29.1641V39.1641H121.25V29.1641V19.1641H114.418V29.1641ZM121.25 29.1641H131.25V26.3281H121.25H111.25V29.1641H121.25ZM121.25 26.3281L120.035 16.4023C119.53 16.464 118.874 16.5 117.941 16.5V26.5V36.5C119.329 36.5 120.864 36.4501 122.465 36.254L121.25 26.3281ZM117.941 26.5V16.5C117.066 16.5 116.205 16.4538 115.375 16.374L114.418 26.3281L113.461 36.2822C114.865 36.4173 116.368 36.5 117.941 36.5V26.5ZM114.418 26.3281H104.418V29.1641H114.418H124.418V26.3281H114.418ZM170.191 12.1914L180.191 12.1914C180.191 6.66856 175.714 2.19141 170.191 2.19141V12.1914ZM170.191 15.8008L180.191 15.9171C180.191 15.8783 180.191 15.8395 180.191 15.8008H170.191ZM169.203 28.9922L159.349 27.2918C158.847 30.1984 159.654 33.1781 161.554 35.4341C163.455 37.6901 166.254 38.9922 169.203 38.9922V28.9922ZM174.102 28.9922H184.102C184.102 23.4693 179.624 18.9922 174.102 18.9922V28.9922ZM174.102 34.4922V44.4922C179.624 44.4922 184.102 40.015 184.102 34.4922H174.102ZM159.191 34.4922V24.4922C153.669 24.4922 149.191 28.9693 149.191 34.4922H159.191ZM159.191 49.7891V59.7891C164.714 59.7891 169.191 55.3119 169.191 49.7891H159.191ZM152.23 49.7891H142.23C142.23 55.3119 146.708 59.7891 152.23 59.7891V49.7891ZM152.23 34.4922H162.23C162.23 28.9693 157.753 24.4922 152.23 24.4922V34.4922ZM137.836 34.4922H127.836C127.836 40.015 132.313 44.4922 137.836 44.4922V34.4922ZM137.836 28.9922V18.9922C132.313 18.9922 127.836 23.4693 127.836 28.9922H137.836ZM162.285 28.9922V38.9922C167.099 38.9922 171.23 35.5618 172.115 30.8295L162.285 28.9922ZM163.316 17.6055L173.316 17.673C173.334 15.0092 172.289 12.4483 170.411 10.5583C168.534 8.66833 165.98 7.60547 163.316 7.60547V17.6055ZM141.746 17.6055H131.746C131.746 23.1283 136.223 27.6055 141.746 27.6055V17.6055ZM141.746 12.1914V2.19141C136.223 2.19141 131.746 6.66856 131.746 12.1914H141.746ZM170.191 12.1914H160.191V15.8008H170.191H180.191V12.1914L170.191 12.1914ZM170.191 15.8008L160.192 15.6845C160.149 19.3981 160.143 22.6883 159.349 27.2918L169.203 28.9922L179.058 30.6926C180.154 24.339 180.148 19.5941 180.191 15.9171L170.191 15.8008ZM169.203 28.9922V38.9922H174.102V28.9922V18.9922H169.203V28.9922ZM174.102 28.9922H164.102V34.4922H174.102H184.102V28.9922H174.102ZM174.102 34.4922V24.4922H159.191V34.4922V44.4922H174.102V34.4922ZM159.191 34.4922H149.191V49.7891H159.191H169.191V34.4922H159.191ZM159.191 49.7891V39.7891H152.23V49.7891V59.7891H159.191V49.7891ZM152.23 49.7891H162.23V34.4922H152.23H142.23V49.7891H152.23ZM152.23 34.4922V24.4922H137.836V34.4922V44.4922L152.23 44.4922V34.4922ZM137.836 34.4922L147.836 34.4922V28.9922L137.836 28.9922H127.836V34.4922H137.836ZM137.836 28.9922V38.9922L162.285 38.9922V28.9922V18.9922H137.836V28.9922ZM162.285 28.9922L172.115 30.8295C173.121 25.4443 173.292 21.1951 173.316 17.673L163.316 17.6055L153.317 17.5379C153.297 20.3752 153.168 23.3447 152.455 27.1549L162.285 28.9922ZM163.316 17.6055V7.60547H141.746V17.6055V27.6055H163.316V17.6055ZM141.746 17.6055H151.746V12.1914H141.746H131.746V17.6055H141.746ZM141.746 12.1914V22.1914H170.191V12.1914V2.19141L141.746 2.19141V12.1914ZM207.574 10H217.574C217.574 4.47715 213.097 0 207.574 0V10ZM207.574 24.6523L197.574 24.6523C197.574 30.1752 202.051 34.6523 207.574 34.6523V24.6523ZM212.645 24.6523H222.645C222.645 19.1295 218.167 14.6523 212.645 14.6523V24.6523ZM212.645 30.2812V40.2812C218.167 40.2812 222.645 35.8041 222.645 30.2812H212.645ZM207.574 30.2812V20.2812C202.051 20.2812 197.574 24.7584 197.574 30.2812H207.574ZM207.574 49.6602V59.6602C213.097 59.6602 217.574 55.183 217.574 49.6602H207.574ZM200.656 49.6602H190.656C190.656 55.183 195.133 59.6602 200.656 59.6602V49.6602ZM200.656 10V0C195.133 0 190.656 4.47715 190.656 10H200.656ZM196.746 13.9531L206.746 13.9881C206.755 11.3299 205.706 8.77736 203.83 6.89443C201.953 5.0115 199.404 3.95312 196.746 3.95312V13.9531ZM178.914 43.2148L170.898 49.1938C173.777 53.0526 178.996 54.313 183.318 52.193L178.914 43.2148ZM175.004 37.9727L170.497 29.0458C167.86 30.377 165.947 32.8059 165.27 35.6812C164.593 38.5565 165.222 41.5839 166.988 43.9516L175.004 37.9727ZM189.742 19.5391L199.641 20.9568C200.052 18.0866 199.197 15.1792 197.298 12.9884C195.399 10.7976 192.642 9.53906 189.742 9.53906V19.5391ZM177.496 19.5391H167.496C167.496 25.0619 171.973 29.5391 177.496 29.5391V19.5391ZM177.496 13.9531V3.95312C171.973 3.95312 167.496 8.43028 167.496 13.9531H177.496ZM207.574 10H197.574V24.6523L207.574 24.6523H217.574V10H207.574ZM207.574 24.6523V34.6523H212.645V24.6523V14.6523H207.574V24.6523ZM212.645 24.6523L202.645 24.6523V30.2812H212.645H222.645V24.6523H212.645ZM212.645 30.2812V20.2812H207.574V30.2812V40.2812H212.645V30.2812ZM207.574 30.2812H197.574V49.6602H207.574H217.574V30.2812H207.574ZM207.574 49.6602V39.6602H200.656V49.6602V59.6602H207.574V49.6602ZM200.656 49.6602H210.656V10H200.656H190.656V49.6602H200.656ZM200.656 10V20L207.574 20V10V0H200.656V10ZM196.746 13.9531L186.746 13.9182C186.729 18.9688 185.853 22.8059 184.17 25.8287C182.547 28.7423 179.749 31.6673 174.51 34.2367L178.914 43.2148L183.318 52.193C191.658 48.1022 197.754 42.5409 201.642 35.5609C205.469 28.6902 206.721 21.2265 206.746 13.9881L196.746 13.9531ZM178.914 43.2148L186.93 37.2359L183.02 31.9937L175.004 37.9727L166.988 43.9516L170.898 49.1938L178.914 43.2148ZM175.004 37.9727L179.511 46.8995C184.755 44.2517 189.429 40.951 193.014 36.5212C196.686 31.9849 198.809 26.7651 199.641 20.9568L189.742 19.5391L179.843 18.1213C179.472 20.7134 178.652 22.4761 177.468 23.9392C176.198 25.5089 174.104 27.2248 170.497 29.0458L175.004 37.9727ZM189.742 19.5391V9.53906H177.496V19.5391V29.5391H189.742V19.5391ZM177.496 19.5391H187.496V13.9531H177.496H167.496V19.5391H177.496ZM177.496 13.9531V23.9531H196.746V13.9531V3.95312L177.496 3.95312V13.9531ZM255.785 11.6328H265.785C265.785 6.10997 261.308 1.63281 255.785 1.63281V11.6328ZM254.84 28.6055L245 26.8237C244.472 29.7403 245.265 32.7408 247.165 35.0157C249.065 37.2906 251.876 38.6055 254.84 38.6055V28.6055ZM259.652 28.6055H269.652C269.652 23.0826 265.175 18.6055 259.652 18.6055V28.6055ZM259.652 34.1055V44.1055C265.175 44.1055 269.652 39.6283 269.652 34.1055H259.652ZM223.473 34.1055H213.473C213.473 39.6283 217.95 44.1055 223.473 44.1055V34.1055ZM223.473 28.6055V18.6055C217.95 18.6055 213.473 23.0826 213.473 28.6055H223.473ZM247.836 28.6055V38.6055C252.626 38.6055 256.743 35.2086 257.654 30.5057L247.836 28.6055ZM248.438 24.8242L258.36 26.0646C258.723 23.1619 257.797 20.2459 255.825 18.0847C253.854 15.9236 251.035 14.7341 248.111 14.8295L248.438 24.8242ZM227.383 25.5117L217.471 26.8385C218.152 31.9277 222.577 35.674 227.709 35.5064L227.383 25.5117ZM226.652 20.0547L226.498 10.0559C223.641 10.1001 220.941 11.3636 219.076 13.5278C217.212 15.692 216.362 18.5502 216.741 21.3814L226.652 20.0547ZM248.867 19.7109L249.022 29.7097C254.42 29.6262 258.777 25.2729 258.866 19.8748L248.867 19.7109ZM248.91 17.0898L258.909 17.2538C258.953 14.5735 257.919 11.9879 256.039 10.077C254.159 8.16604 251.591 7.08984 248.91 7.08984V17.0898ZM227.812 17.0898H217.812C217.812 22.6127 222.29 27.0898 227.812 27.0898V17.0898ZM227.812 11.6328V1.63281C222.29 1.63281 217.812 6.10997 217.812 11.6328H227.812ZM256.258 43.6875H266.258C266.258 38.1647 261.781 33.6875 256.258 33.6875V43.6875ZM256.258 49.1875V59.1875C261.781 59.1875 266.258 54.7103 266.258 49.1875H256.258ZM227.426 49.1875H217.426C217.426 54.7103 221.903 59.1875 227.426 59.1875V49.1875ZM227.426 36.3398V26.3398C221.903 26.3398 217.426 30.817 217.426 36.3398H227.426ZM234.301 36.3398H244.301C244.301 30.817 239.824 26.3398 234.301 26.3398V36.3398ZM234.301 43.6875H224.301C224.301 49.2103 228.778 53.6875 234.301 53.6875V43.6875ZM255.785 11.6328H245.785V15.543H255.785H265.785V11.6328H255.785ZM255.785 15.543H245.785C245.785 19.417 245.773 22.5534 245 26.8237L254.84 28.6055L264.68 30.3872C265.797 24.2161 265.785 19.5323 265.785 15.543H255.785ZM254.84 28.6055V38.6055H259.652V28.6055V18.6055H254.84V28.6055ZM259.652 28.6055H249.652V34.1055H259.652H269.652V28.6055H259.652ZM259.652 34.1055V24.1055H223.473V34.1055V44.1055H259.652V34.1055ZM223.473 34.1055H233.473V28.6055H223.473H213.473V34.1055H223.473ZM223.473 28.6055V38.6055H247.836V28.6055V18.6055H223.473V28.6055ZM247.836 28.6055L257.654 30.5057C257.956 28.9427 258.184 27.476 258.36 26.0646L248.438 24.8242L238.515 23.5839C238.39 24.5787 238.231 25.6042 238.018 26.7052L247.836 28.6055ZM248.438 24.8242L248.111 14.8295L227.056 15.517L227.383 25.5117L227.709 35.5064L248.764 34.8189L248.438 24.8242ZM227.383 25.5117L237.294 24.185L236.564 18.7279L226.652 20.0547L216.741 21.3814L217.471 26.8385L227.383 25.5117ZM226.652 20.0547L226.807 30.0535L249.022 29.7097L248.867 19.7109L248.712 9.71213L226.498 10.0559L226.652 20.0547ZM248.867 19.7109L258.866 19.8748L258.909 17.2538L248.91 17.0898L238.911 16.9259L238.869 19.547L248.867 19.7109ZM248.91 17.0898V7.08984L227.812 7.08984V17.0898V27.0898H248.91V17.0898ZM227.812 17.0898H237.812V11.6328L227.812 11.6328H217.812V17.0898H227.812ZM227.812 11.6328V21.6328H255.785V11.6328V1.63281L227.812 1.63281V11.6328ZM256.258 43.6875H246.258V49.1875H256.258H266.258V43.6875H256.258ZM256.258 49.1875V39.1875H227.426V49.1875V59.1875H256.258V49.1875ZM227.426 49.1875H237.426V36.3398H227.426H217.426V49.1875H227.426ZM227.426 36.3398V46.3398H234.301V36.3398V26.3398H227.426V36.3398ZM234.301 36.3398H224.301V43.6875H234.301H244.301V36.3398H234.301ZM234.301 43.6875V53.6875H256.258V43.6875V33.6875H234.301V43.6875Z" fill="white" mask="url(#path-1-outside-1_6526_5742)"/>
</g>
<defs>
<filter id="filter0_d_6526_5742" x="0" y="0" width="273.652" height="67.832" filterUnits="userSpaceOnUse" color-interpolation-filters="sRGB">
<feFlood flood-opacity="0" result="BackgroundImageFix"/>
<feColorMatrix in="SourceAlpha" type="matrix" values="0 0 0 0 0 0 0 0 0 0 0 0 0 0 0 0 0 0 127 0" result="hardAlpha"/>
<feOffset dy="4"/>
<feGaussianBlur stdDeviation="2"/>
<feComposite in2="hardAlpha" operator="out"/>
<feColorMatrix type="matrix" values="0 0 0 0 0 0 0 0 0 0 0 0 0 0 0 0 0 0 0.07 0"/>
<feBlend mode="normal" in2="BackgroundImageFix" result="effect1_dropShadow_6526_5742"/>
<feBlend mode="normal" in="SourceGraphic" in2="effect1_dropShadow_6526_5742" result="shape"/>
</filter>
</defs>
</svg>
