<svg width="350" height="68" viewBox="0 0 350 68" fill="none" xmlns="http://www.w3.org/2000/svg">
<g filter="url(#filter0_d_6526_5725)">
<mask id="path-1-outside-1_6526_5725" maskUnits="userSpaceOnUse" x="3.96875" y="-0.507813" width="342" height="61" fill="black">
<rect fill="white" x="3.96875" y="-0.507813" width="342" height="61"/>
<path d="M26.6328 12.2344C32.9922 12.2344 37.8477 16.4453 37.8477 22.2461C37.8477 26.9727 34.668 30.625 30.0703 31.8281V36.2969C33.0566 36.125 36.043 35.8672 38.8789 35.4805L39.3945 40.4219C30.8008 42.0977 21.5625 42.1836 14.7734 42.2266L14 36.7266C16.7285 36.7051 19.8652 36.6836 23.1953 36.5977V31.7852C18.6621 30.582 15.418 26.9727 15.418 22.2461C15.418 16.4453 20.4023 12.2344 26.6328 12.2344ZM26.6328 18.1211C24.2266 18.1211 22.293 19.4531 22.293 22.2461C22.293 24.9531 24.2266 26.4141 26.6328 26.4141C29.168 26.4141 31.1445 24.9531 31.1445 22.2461C31.1445 19.4531 29.168 18.1211 26.6328 18.1211ZM47.7305 10V49.875H40.8984V10L47.7305 10ZM88.1641 32.5156V37.8438H73.2969V49.7461H66.4648V37.8438H51.8984V32.5156H88.1641ZM62.6406 11.5039V15.5L77.207 15.5V11.5039H84.125V29.3359H55.8516V11.5039H62.6406ZM62.6406 23.8359L77.207 23.8359V20.8281L62.6406 20.8281V23.8359ZM114.977 19.9687C114.934 25.8555 117.254 32.8164 124.301 35.9961L120.52 41.3672C116.201 39.4766 113.322 35.8887 111.625 31.5703C109.885 36.3828 106.92 40.3574 102.387 42.3984L98.4336 36.9844C105.609 33.6758 107.973 26.4141 107.973 19.9687V19.2812H100.109V13.6953H122.367V19.2812H114.977V19.9687ZM131.219 10V24.6094H136.59V30.3242H131.219V49.7461H124.301V10H131.219ZM169.848 11.6328V14.5117C169.848 17.3262 169.848 21.043 169.16 25.8555H173.844V31.2695L137.535 31.2695V25.8555H162.242C162.736 22.332 162.887 19.4746 162.93 17.0898H141.875V11.6328H169.848ZM169.848 35.0937V49.7031H162.93V40.5078H141.359V35.0937H169.848ZM210.238 10V49.7461H203.664V10H210.238ZM201.773 10.4727V48.0273H195.285V29.6367H193.352C192.771 37.457 189.441 42.0977 184.543 42.0977C179.215 42.0977 175.777 36.5117 175.82 27.2734C175.777 18.1211 179.215 12.5352 184.543 12.5352C189.291 12.5352 192.557 16.8965 193.309 24.2227H195.285V10.4727H201.773ZM184.543 19.0664C182.91 19.0664 182.094 21.4297 182.137 27.2734C182.094 33.1602 182.91 35.4805 184.543 35.4805C186.219 35.4805 187.121 33.1602 187.121 27.2734C187.121 21.4297 186.219 19.0664 184.543 19.0664ZM245 13.0508V32.6445H225.148V13.0508H245ZM231.938 18.4648V27.2305H238.168V18.4648H231.938ZM256.688 10.0859V38.1445H249.77V10.0859H256.688ZM257.633 43.7305V49.1875H229.488V35.6094H236.449V43.7305H257.633ZM292.996 10V18.0781H297.938V23.707H292.996V32H286.078V10H292.996ZM281.695 12.1914C281.695 23.0195 275.25 30.1094 263.219 33.2461L260.512 27.7461C268.805 25.834 273.145 22.0098 274.09 17.6055H262.574V12.1914H281.695ZM292.996 33.2891V49.3164H266.484V33.2891H292.996ZM273.316 38.7891V43.9883H286.207V38.7891H273.316ZM331.023 10.0859V21.6875L335.965 21.6875V27.2734L331.023 27.2734V39.6914H324.105V10.0859H331.023ZM322.688 13.8242V19.1523H299.184V13.8242H307.477V10H314.395V13.8242H322.688ZM310.914 20.0547C316.715 20.0547 320.84 23.2773 320.84 27.918C320.84 32.5586 316.715 35.6953 310.914 35.6523C305.07 35.6953 300.902 32.5586 300.902 27.918C300.902 23.2773 305.07 20.0547 310.914 20.0547ZM310.914 25.2539C308.938 25.2969 307.648 26.1133 307.648 27.918C307.648 29.7227 308.938 30.4961 310.914 30.4961C312.934 30.4961 314.309 29.7227 314.309 27.918C314.309 26.1133 312.934 25.2969 310.914 25.2539ZM332.184 43.6875V49.1875H304.684V37.457H311.602V43.6875H332.184Z"/>
</mask>
<path d="M26.6328 12.2344C32.9922 12.2344 37.8477 16.4453 37.8477 22.2461C37.8477 26.9727 34.668 30.625 30.0703 31.8281V36.2969C33.0566 36.125 36.043 35.8672 38.8789 35.4805L39.3945 40.4219C30.8008 42.0977 21.5625 42.1836 14.7734 42.2266L14 36.7266C16.7285 36.7051 19.8652 36.6836 23.1953 36.5977V31.7852C18.6621 30.582 15.418 26.9727 15.418 22.2461C15.418 16.4453 20.4023 12.2344 26.6328 12.2344ZM26.6328 18.1211C24.2266 18.1211 22.293 19.4531 22.293 22.2461C22.293 24.9531 24.2266 26.4141 26.6328 26.4141C29.168 26.4141 31.1445 24.9531 31.1445 22.2461C31.1445 19.4531 29.168 18.1211 26.6328 18.1211ZM47.7305 10V49.875H40.8984V10L47.7305 10ZM88.1641 32.5156V37.8438H73.2969V49.7461H66.4648V37.8438H51.8984V32.5156H88.1641ZM62.6406 11.5039V15.5L77.207 15.5V11.5039H84.125V29.3359H55.8516V11.5039H62.6406ZM62.6406 23.8359L77.207 23.8359V20.8281L62.6406 20.8281V23.8359ZM114.977 19.9687C114.934 25.8555 117.254 32.8164 124.301 35.9961L120.52 41.3672C116.201 39.4766 113.322 35.8887 111.625 31.5703C109.885 36.3828 106.92 40.3574 102.387 42.3984L98.4336 36.9844C105.609 33.6758 107.973 26.4141 107.973 19.9687V19.2812H100.109V13.6953H122.367V19.2812H114.977V19.9687ZM131.219 10V24.6094H136.59V30.3242H131.219V49.7461H124.301V10H131.219ZM169.848 11.6328V14.5117C169.848 17.3262 169.848 21.043 169.16 25.8555H173.844V31.2695L137.535 31.2695V25.8555H162.242C162.736 22.332 162.887 19.4746 162.93 17.0898H141.875V11.6328H169.848ZM169.848 35.0937V49.7031H162.93V40.5078H141.359V35.0937H169.848ZM210.238 10V49.7461H203.664V10H210.238ZM201.773 10.4727V48.0273H195.285V29.6367H193.352C192.771 37.457 189.441 42.0977 184.543 42.0977C179.215 42.0977 175.777 36.5117 175.82 27.2734C175.777 18.1211 179.215 12.5352 184.543 12.5352C189.291 12.5352 192.557 16.8965 193.309 24.2227H195.285V10.4727H201.773ZM184.543 19.0664C182.91 19.0664 182.094 21.4297 182.137 27.2734C182.094 33.1602 182.91 35.4805 184.543 35.4805C186.219 35.4805 187.121 33.1602 187.121 27.2734C187.121 21.4297 186.219 19.0664 184.543 19.0664ZM245 13.0508V32.6445H225.148V13.0508H245ZM231.938 18.4648V27.2305H238.168V18.4648H231.938ZM256.688 10.0859V38.1445H249.77V10.0859H256.688ZM257.633 43.7305V49.1875H229.488V35.6094H236.449V43.7305H257.633ZM292.996 10V18.0781H297.938V23.707H292.996V32H286.078V10H292.996ZM281.695 12.1914C281.695 23.0195 275.25 30.1094 263.219 33.2461L260.512 27.7461C268.805 25.834 273.145 22.0098 274.09 17.6055H262.574V12.1914H281.695ZM292.996 33.2891V49.3164H266.484V33.2891H292.996ZM273.316 38.7891V43.9883H286.207V38.7891H273.316ZM331.023 10.0859V21.6875L335.965 21.6875V27.2734L331.023 27.2734V39.6914H324.105V10.0859H331.023ZM322.688 13.8242V19.1523H299.184V13.8242H307.477V10H314.395V13.8242H322.688ZM310.914 20.0547C316.715 20.0547 320.84 23.2773 320.84 27.918C320.84 32.5586 316.715 35.6953 310.914 35.6523C305.07 35.6953 300.902 32.5586 300.902 27.918C300.902 23.2773 305.07 20.0547 310.914 20.0547ZM310.914 25.2539C308.938 25.2969 307.648 26.1133 307.648 27.918C307.648 29.7227 308.938 30.4961 310.914 30.4961C312.934 30.4961 314.309 29.7227 314.309 27.918C314.309 26.1133 312.934 25.2969 310.914 25.2539ZM332.184 43.6875V49.1875H304.684V37.457H311.602V43.6875H332.184Z" fill="#11DCA9"/>
<path d="M30.0703 31.8281L27.5387 22.1539C23.139 23.3052 20.0703 27.2803 20.0703 31.8281H30.0703ZM30.0703 36.2969H20.0703C20.0703 39.0488 21.2044 41.6791 23.2054 43.5683C25.2064 45.4574 27.8975 46.4385 30.6449 46.2804L30.0703 36.2969ZM38.8789 35.4805L48.8249 34.4426C48.544 31.7504 47.1836 29.287 45.0546 27.6153C42.9256 25.9436 40.2098 25.2064 37.5278 25.5722L38.8789 35.4805ZM39.3945 40.4219L41.3085 50.237C46.3926 49.2456 49.8781 44.5359 49.3405 39.384L39.3945 40.4219ZM14.7734 42.2266L4.87087 43.6191C5.56838 48.5792 9.82795 52.2581 14.8367 52.2264L14.7734 42.2266ZM14 36.7266L13.9213 26.7269C11.04 26.7496 8.30854 28.014 6.42686 30.196C4.54519 32.3781 3.69619 35.2658 4.09743 38.1191L14 36.7266ZM23.1953 36.5977L23.4533 46.5943C28.8738 46.4544 33.1953 42.02 33.1953 36.5977H23.1953ZM23.1953 31.7852H33.1953C33.1953 27.2503 30.1437 23.2831 25.7605 22.1198L23.1953 31.7852ZM47.7305 10H57.7305C57.7305 4.47715 53.2533 0 47.7305 0V10ZM47.7305 49.875V59.875C53.2533 59.875 57.7305 55.3978 57.7305 49.875H47.7305ZM40.8984 49.875H30.8984C30.8984 55.3978 35.3756 59.875 40.8984 59.875V49.875ZM40.8984 10V0C35.3756 0 30.8984 4.47715 30.8984 10H40.8984ZM26.6328 12.2344V22.2344C27.6179 22.2344 27.9941 22.5503 27.9975 22.5534C28.0002 22.5557 27.9474 22.5068 27.8983 22.3995C27.8457 22.2848 27.8477 22.213 27.8477 22.2461H37.8477H47.8477C47.8477 9.80948 37.3321 2.23437 26.6328 2.23438V12.2344ZM37.8477 22.2461H27.8477C27.8477 22.2953 27.8415 22.2604 27.8719 22.1759C27.9016 22.0937 27.9443 22.0249 27.9804 21.9812C28.0585 21.8868 27.9877 22.0364 27.5387 22.1539L30.0703 31.8281L32.6019 41.5024C41.0312 39.2966 47.8477 32.0822 47.8477 22.2461H37.8477ZM30.0703 31.8281H20.0703V36.2969H30.0703H40.0703V31.8281H30.0703ZM30.0703 36.2969L30.6449 46.2804C33.8097 46.0982 37.0666 45.8201 40.23 45.3888L38.8789 35.4805L37.5278 25.5722C35.0193 25.9142 32.3036 26.1518 29.4957 26.3134L30.0703 36.2969ZM38.8789 35.4805L28.9329 36.5183L29.4485 41.4597L39.3945 40.4219L49.3405 39.384L48.8249 34.4426L38.8789 35.4805ZM39.3945 40.4219L37.4806 30.6067C29.9363 32.0779 21.5994 32.1832 14.7101 32.2268L14.7734 42.2266L14.8367 52.2264C21.5256 52.184 31.6652 52.1174 41.3085 50.237L39.3945 40.4219ZM14.7734 42.2266L24.676 40.834L23.9026 35.334L14 36.7266L4.09743 38.1191L4.87087 43.6191L14.7734 42.2266ZM14 36.7266L14.0787 46.7263C16.7891 46.7049 20.0176 46.683 23.4533 46.5943L23.1953 36.5977L22.9373 26.601C19.7129 26.6842 16.668 26.7052 13.9213 26.7269L14 36.7266ZM23.1953 36.5977H33.1953V31.7852H23.1953H13.1953V36.5977H23.1953ZM23.1953 31.7852L25.7605 22.1198C25.3058 21.9991 25.2079 21.8384 25.2704 21.9129C25.3021 21.9508 25.3487 22.0214 25.3836 22.1165C25.4198 22.2151 25.418 22.2707 25.418 22.2461H15.418H5.41797C5.41797 32.1936 12.414 39.27 20.6301 41.4505L23.1953 31.7852ZM15.418 22.2461H25.418C25.418 22.2402 25.4182 22.2653 25.4077 22.3129C25.3972 22.3601 25.3801 22.4118 25.3567 22.4618C25.3074 22.5676 25.2621 22.6012 25.2867 22.5796C25.3447 22.5287 25.7493 22.2344 26.6328 22.2344V12.2344V2.23438C16.1417 2.23438 5.41797 9.7396 5.41797 22.2461H15.418ZM26.6328 18.1211V8.12109C23.6863 8.12109 20.0498 8.93621 16.9975 11.5913C13.7361 14.4283 12.293 18.3695 12.293 22.2461H22.293H32.293C32.293 23.3297 31.8167 25.2084 30.1236 26.6812C28.6397 27.972 27.173 28.1211 26.6328 28.1211V18.1211ZM22.293 22.2461H12.293C12.293 26.1455 13.7745 29.9999 16.8822 32.7883C19.8413 35.4434 23.4632 36.4141 26.6328 36.4141V26.4141V16.4141C27.3962 16.4141 28.8482 16.6543 30.2389 17.9021C31.7782 19.2833 32.293 21.0537 32.293 22.2461H22.293ZM26.6328 26.4141V36.4141C29.7433 36.4141 33.3773 35.5146 36.3925 32.8988C39.5904 30.1244 41.1445 26.2258 41.1445 22.2461H31.1445H21.1445C21.1445 20.9734 21.7104 19.1588 23.2862 17.7916C24.6793 16.583 26.0575 16.4141 26.6328 16.4141V26.4141ZM31.1445 22.2461H41.1445C41.1445 18.2887 39.6292 14.3034 36.276 11.4832C33.175 8.87501 29.528 8.12109 26.6328 8.12109V18.1211V28.1211C26.2728 28.1211 24.8817 28.0332 23.4027 26.7893C21.6716 25.3333 21.1445 23.4105 21.1445 22.2461H31.1445ZM47.7305 10L37.7305 10V49.875H47.7305H57.7305V10H47.7305ZM47.7305 49.875V39.875H40.8984V49.875V59.875H47.7305V49.875ZM40.8984 49.875H50.8984V10L40.8984 10H30.8984V49.875H40.8984ZM40.8984 10V20H47.7305V10V0H40.8984V10ZM88.1641 32.5156H98.1641C98.1641 26.9928 93.6869 22.5156 88.1641 22.5156V32.5156ZM88.1641 37.8438V47.8438C93.6869 47.8438 98.1641 43.3666 98.1641 37.8438H88.1641ZM73.2969 37.8438V27.8438C67.774 27.8438 63.2969 32.3209 63.2969 37.8438H73.2969ZM73.2969 49.7461V59.7461C78.8197 59.7461 83.2969 55.2689 83.2969 49.7461H73.2969ZM66.4648 49.7461H56.4648C56.4648 55.2689 60.942 59.7461 66.4648 59.7461V49.7461ZM66.4648 37.8438H76.4648C76.4648 32.3209 71.9877 27.8438 66.4648 27.8438V37.8438ZM51.8984 37.8438H41.8984C41.8984 43.3666 46.3756 47.8438 51.8984 47.8438V37.8438ZM51.8984 32.5156V22.5156C46.3756 22.5156 41.8984 26.9928 41.8984 32.5156H51.8984ZM62.6406 11.5039H72.6406C72.6406 5.98106 68.1635 1.50391 62.6406 1.50391V11.5039ZM62.6406 15.5H52.6406C52.6406 21.0228 57.1178 25.5 62.6406 25.5V15.5ZM77.207 15.5V25.5C82.7299 25.5 87.207 21.0228 87.207 15.5H77.207ZM77.207 11.5039V1.50391C71.6842 1.50391 67.207 5.98106 67.207 11.5039H77.207ZM84.125 11.5039H94.125C94.125 5.98106 89.6479 1.50391 84.125 1.50391V11.5039ZM84.125 29.3359V39.3359C89.6479 39.3359 94.125 34.8588 94.125 29.3359H84.125ZM55.8516 29.3359H45.8516C45.8516 34.8588 50.3287 39.3359 55.8516 39.3359V29.3359ZM55.8516 11.5039V1.50391C50.3287 1.50391 45.8516 5.98106 45.8516 11.5039H55.8516ZM62.6406 23.8359H52.6406C52.6406 29.3588 57.1178 33.8359 62.6406 33.8359V23.8359ZM77.207 23.8359V33.8359C82.7299 33.8359 87.207 29.3588 87.207 23.8359H77.207ZM77.207 20.8281H87.207C87.207 15.3053 82.7299 10.8281 77.207 10.8281V20.8281ZM62.6406 20.8281V10.8281C57.1178 10.8281 52.6406 15.3053 52.6406 20.8281H62.6406ZM88.1641 32.5156H78.1641V37.8438H88.1641H98.1641V32.5156H88.1641ZM88.1641 37.8438V27.8437L73.2969 27.8438V37.8438V47.8438H88.1641V37.8438ZM73.2969 37.8438H63.2969V49.7461H73.2969H83.2969V37.8438H73.2969ZM73.2969 49.7461V39.7461H66.4648V49.7461V59.7461H73.2969V49.7461ZM66.4648 49.7461H76.4648V37.8438H66.4648H56.4648V49.7461H66.4648ZM66.4648 37.8438V27.8438H51.8984V37.8438V47.8438H66.4648V37.8438ZM51.8984 37.8438H61.8984V32.5156H51.8984H41.8984V37.8438H51.8984ZM51.8984 32.5156V42.5156H88.1641V32.5156V22.5156L51.8984 22.5156V32.5156ZM62.6406 11.5039H52.6406V15.5H62.6406H72.6406V11.5039H62.6406ZM62.6406 15.5V25.5L77.207 25.5V15.5V5.5H62.6406V15.5ZM77.207 15.5H87.207V11.5039H77.207H67.207V15.5L77.207 15.5ZM77.207 11.5039V21.5039H84.125V11.5039V1.50391H77.207V11.5039ZM84.125 11.5039H74.125V29.3359H84.125H94.125V11.5039H84.125ZM84.125 29.3359V19.3359L55.8516 19.3359V29.3359V39.3359H84.125V29.3359ZM55.8516 29.3359H65.8516V11.5039H55.8516H45.8516V29.3359H55.8516ZM55.8516 11.5039V21.5039H62.6406V11.5039V1.50391L55.8516 1.50391V11.5039ZM62.6406 23.8359V33.8359H77.207V23.8359V13.8359L62.6406 13.8359V23.8359ZM77.207 23.8359H87.207V20.8281H77.207L67.207 20.8281V23.8359L77.207 23.8359ZM77.207 20.8281V10.8281H62.6406V20.8281V30.8281H77.207V20.8281ZM62.6406 20.8281H52.6406V23.8359H62.6406H72.6406V20.8281H62.6406ZM114.977 19.9687L124.976 20.0417C124.976 20.0174 124.977 19.9931 124.977 19.9687H114.977ZM124.301 35.9961L132.478 41.7526C134.194 39.3141 134.733 36.2367 133.947 33.36C133.161 30.4833 131.132 28.1076 128.414 26.881L124.301 35.9961ZM120.52 41.3672L116.509 50.5277C120.864 52.4344 125.96 51.0113 128.696 47.1237L120.52 41.3672ZM111.625 31.5703L120.932 27.9124C119.41 24.0395 115.648 21.514 111.487 21.5713C107.327 21.6285 103.636 24.2565 102.221 28.1697L111.625 31.5703ZM102.387 42.3984L94.3105 48.2954C97.0988 52.1141 102.181 53.458 106.492 51.5168L102.387 42.3984ZM98.4336 36.9844L94.2465 27.9032C91.5238 29.1586 89.508 31.5693 88.7546 34.4712C88.0011 37.3731 88.5893 40.46 90.3573 42.8813L98.4336 36.9844ZM107.973 19.2812H117.973C117.973 13.7584 113.496 9.28125 107.973 9.28125V19.2812ZM100.109 19.2812H90.1094C90.1094 24.8041 94.5865 29.2812 100.109 29.2812V19.2812ZM100.109 13.6953V3.69531C94.5865 3.69531 90.1094 8.17247 90.1094 13.6953H100.109ZM122.367 13.6953H132.367C132.367 8.17247 127.89 3.69531 122.367 3.69531V13.6953ZM122.367 19.2812V29.2812C127.89 29.2812 132.367 24.8041 132.367 19.2812H122.367ZM114.977 19.2812V9.28125C109.454 9.28125 104.977 13.7584 104.977 19.2812H114.977ZM131.219 10H141.219C141.219 4.47715 136.742 0 131.219 0V10ZM131.219 24.6094H121.219C121.219 30.1322 125.696 34.6094 131.219 34.6094V24.6094ZM136.59 24.6094H146.59C146.59 19.0865 142.113 14.6094 136.59 14.6094V24.6094ZM136.59 30.3242V40.3242C142.113 40.3242 146.59 35.8471 146.59 30.3242L136.59 30.3242ZM131.219 30.3242V20.3242C125.696 20.3242 121.219 24.8014 121.219 30.3242H131.219ZM131.219 49.7461V59.7461C136.742 59.7461 141.219 55.2689 141.219 49.7461L131.219 49.7461ZM124.301 49.7461H114.301C114.301 55.2689 118.778 59.7461 124.301 59.7461V49.7461ZM124.301 10V0C118.778 0 114.301 4.47715 114.301 10H124.301ZM114.977 19.9687L104.977 19.8958C104.918 28.0125 108.185 39.6953 120.188 45.1111L124.301 35.9961L128.414 26.881C127.169 26.3195 126.428 25.52 125.901 24.4788C125.305 23.3029 124.964 21.7302 124.976 20.0417L114.977 19.9687ZM124.301 35.9961L116.124 30.2395L112.343 35.6106L120.52 41.3672L128.696 47.1237L132.478 41.7526L124.301 35.9961ZM120.52 41.3672L124.53 32.2067C123.196 31.6227 121.911 30.403 120.932 27.9124L111.625 31.5703L102.318 35.2283C104.734 41.3744 109.206 47.3304 116.509 50.5277L120.52 41.3672ZM111.625 31.5703L102.221 28.1697C101.096 31.2803 99.6355 32.6703 98.2813 33.28L102.387 42.3984L106.492 51.5168C114.204 48.0445 118.673 41.4854 121.029 34.9709L111.625 31.5703ZM102.387 42.3984L110.463 36.5015L106.51 31.0874L98.4336 36.9844L90.3573 42.8813L94.3105 48.2954L102.387 42.3984ZM98.4336 36.9844L102.621 46.0656C114.824 40.4388 117.973 28.3629 117.973 19.9687H107.973H97.9727C97.9727 22.0572 97.5776 23.8994 96.9151 25.2508C96.3216 26.4612 95.5164 27.3177 94.2465 27.9032L98.4336 36.9844ZM107.973 19.9687H117.973V19.2812H107.973H97.9727V19.9687H107.973ZM107.973 19.2812V9.28125H100.109V19.2812V29.2812H107.973V19.2812ZM100.109 19.2812H110.109V13.6953H100.109H90.1094V19.2812H100.109ZM100.109 13.6953V23.6953H122.367V13.6953V3.69531H100.109V13.6953ZM122.367 13.6953H112.367V19.2812H122.367H132.367V13.6953H122.367ZM122.367 19.2812V9.28125H114.977V19.2812V29.2812H122.367V19.2812ZM114.977 19.2812H104.977V19.9687H114.977H124.977V19.2812H114.977ZM131.219 10H121.219V24.6094H131.219H141.219V10H131.219ZM131.219 24.6094V34.6094H136.59V24.6094V14.6094H131.219V24.6094ZM136.59 24.6094H126.59V30.3242H136.59L146.59 30.3242V24.6094H136.59ZM136.59 30.3242V20.3242H131.219V30.3242V40.3242H136.59V30.3242ZM131.219 30.3242H121.219V49.7461H131.219L141.219 49.7461V30.3242L131.219 30.3242ZM131.219 49.7461V39.7461H124.301V49.7461V59.7461H131.219V49.7461ZM124.301 49.7461H134.301V10H124.301H114.301V49.7461H124.301ZM124.301 10V20H131.219V10V0H124.301V10ZM169.848 11.6328L179.848 11.6328C179.848 6.10997 175.37 1.63281 169.848 1.63281V11.6328ZM169.16 25.8555L159.261 24.4413C158.851 27.311 159.706 30.2175 161.606 32.4075C163.505 34.5975 166.261 35.8555 169.16 35.8555V25.8555ZM173.844 25.8555H183.844C183.844 20.3326 179.367 15.8555 173.844 15.8555V25.8555ZM173.844 31.2695V41.2695C179.367 41.2695 183.844 36.7924 183.844 31.2695H173.844ZM137.535 31.2695H127.535C127.535 36.7924 132.012 41.2695 137.535 41.2695V31.2695ZM137.535 25.8555V15.8555C132.012 15.8555 127.535 20.3326 127.535 25.8555H137.535ZM162.242 25.8555V35.8555C167.228 35.8555 171.453 32.1822 172.145 27.2443L162.242 25.8555ZM162.93 17.0898L172.928 17.27C172.976 14.587 171.944 11.9972 170.064 10.0828C168.184 8.1683 165.613 7.08984 162.93 7.08984V17.0898ZM141.875 17.0898H131.875C131.875 22.6127 136.352 27.0898 141.875 27.0898V17.0898ZM141.875 11.6328V1.63281C136.352 1.63281 131.875 6.10997 131.875 11.6328H141.875ZM169.848 35.0937H179.848C179.848 29.5709 175.37 25.0937 169.848 25.0937V35.0937ZM169.848 49.7031V59.7031C175.37 59.7031 179.848 55.226 179.848 49.7031H169.848ZM162.93 49.7031H152.93C152.93 55.226 157.407 59.7031 162.93 59.7031V49.7031ZM162.93 40.5078H172.93C172.93 34.985 168.453 30.5078 162.93 30.5078V40.5078ZM141.359 40.5078L131.359 40.5078C131.359 46.0307 135.837 50.5078 141.359 50.5078V40.5078ZM141.359 35.0937V25.0937C135.837 25.0937 131.359 29.5709 131.359 35.0938L141.359 35.0937ZM169.848 11.6328H159.848V14.5117H169.848H179.848V11.6328L169.848 11.6328ZM169.848 14.5117H159.848C159.848 17.2519 159.842 20.3726 159.261 24.4413L169.16 25.8555L179.06 27.2697C179.853 21.7133 179.848 17.4005 179.848 14.5117H169.848ZM169.16 25.8555V35.8555H173.844V25.8555V15.8555H169.16V25.8555ZM173.844 25.8555H163.844V31.2695H173.844H183.844V25.8555H173.844ZM173.844 31.2695V21.2695H137.535V31.2695V41.2695L173.844 41.2695V31.2695ZM137.535 31.2695L147.535 31.2695V25.8555H137.535H127.535V31.2695H137.535ZM137.535 25.8555V35.8555L162.242 35.8555V25.8555V15.8555H137.535V25.8555ZM162.242 25.8555L172.145 27.2443C172.707 23.2364 172.88 19.9646 172.928 17.27L162.93 17.0898L152.931 16.9097C152.894 18.9846 152.765 21.4277 152.339 24.4666L162.242 25.8555ZM162.93 17.0898V7.08984H141.875V17.0898V27.0898H162.93V17.0898ZM141.875 17.0898H151.875V11.6328H141.875H131.875V17.0898H141.875ZM141.875 11.6328V21.6328H169.848V11.6328V1.63281L141.875 1.63281V11.6328ZM169.848 35.0937H159.848V49.7031H169.848H179.848V35.0937H169.848ZM169.848 49.7031V39.7031H162.93V49.7031V59.7031H169.848V49.7031ZM162.93 49.7031H172.93V40.5078H162.93H152.93V49.7031H162.93ZM162.93 40.5078V30.5078H141.359V40.5078V50.5078H162.93V40.5078ZM141.359 40.5078H151.359V35.0937H141.359L131.359 35.0938V40.5078L141.359 40.5078ZM141.359 35.0937V45.0937H169.848V35.0937V25.0937H141.359V35.0937ZM210.238 10H220.238C220.238 4.47715 215.761 0 210.238 0V10ZM210.238 49.7461V59.7461C215.761 59.7461 220.238 55.2689 220.238 49.7461H210.238ZM203.664 49.7461H193.664C193.664 55.2689 198.141 59.7461 203.664 59.7461V49.7461ZM203.664 10V0C198.141 0 193.664 4.47715 193.664 10H203.664ZM201.773 10.4727H211.773C211.773 4.94981 207.296 0.472656 201.773 0.472656V10.4727ZM201.773 48.0273V58.0273C207.296 58.0273 211.773 53.5502 211.773 48.0273H201.773ZM195.285 48.0273H185.285C185.285 53.5502 189.762 58.0273 195.285 58.0273V48.0273ZM195.285 29.6367H205.285C205.285 24.1139 200.808 19.6367 195.285 19.6367V29.6367ZM193.352 29.6367V19.6367C188.116 19.6367 183.766 23.6755 183.379 28.897L193.352 29.6367ZM175.82 27.2734L185.82 27.3199C185.82 27.2888 185.82 27.2576 185.82 27.2265L175.82 27.2734ZM193.309 24.2227L183.361 25.2437C183.884 30.3444 188.181 34.2227 193.309 34.2227V24.2227ZM195.285 24.2227V34.2227C200.808 34.2227 205.285 29.7455 205.285 24.2227L195.285 24.2227ZM195.285 10.4727V0.472656C189.762 0.472656 185.285 4.94981 185.285 10.4727H195.285ZM182.137 27.2734L192.136 27.3464C192.137 27.2976 192.137 27.2487 192.136 27.1999L182.137 27.2734ZM210.238 10H200.238V49.7461H210.238H220.238V10H210.238ZM210.238 49.7461V39.7461H203.664V49.7461V59.7461H210.238V49.7461ZM203.664 49.7461H213.664V10H203.664H193.664V49.7461H203.664ZM203.664 10V20L210.238 20V10V0H203.664V10ZM201.773 10.4727H191.773V48.0273H201.773H211.773V10.4727H201.773ZM201.773 48.0273V38.0273H195.285V48.0273V58.0273H201.773V48.0273ZM195.285 48.0273H205.285V29.6367H195.285H185.285V48.0273H195.285ZM195.285 29.6367V19.6367H193.352V29.6367V39.6367H195.285V29.6367ZM193.352 29.6367L183.379 28.897C183.28 30.2367 183.076 31.2436 182.858 31.9531C182.638 32.6701 182.44 32.9727 182.412 33.0117C182.398 33.0321 182.588 32.7625 183.074 32.4944C183.589 32.2101 184.132 32.0977 184.543 32.0977V42.0977V52.0977C190.632 52.0977 195.573 49.024 198.721 44.5879C201.646 40.4667 202.953 35.3792 203.324 30.3764L193.352 29.6367ZM184.543 42.0977V32.0977C185.037 32.0977 185.664 32.25 186.219 32.596C186.725 32.9115 186.85 33.1857 186.758 33.0316C186.494 32.5883 185.804 30.8849 185.82 27.3199L175.82 27.2734L165.82 27.2269C165.794 32.9002 166.801 38.609 169.577 43.2682C172.567 48.287 177.749 52.0977 184.543 52.0977V42.0977ZM175.82 27.2734L185.82 27.2265C185.804 23.7189 186.489 22.0402 186.749 21.6064C186.839 21.4557 186.713 21.7276 186.211 22.0402C185.661 22.3831 185.037 22.5352 184.543 22.5352V12.5352V2.53516C177.756 2.53516 172.577 6.33843 169.586 11.3379C166.806 15.9852 165.794 21.6756 165.82 27.3204L175.82 27.2734ZM184.543 12.5352V22.5352C184.147 22.5352 183.625 22.431 183.12 22.1632C182.641 21.9087 182.433 21.6431 182.423 21.6299C182.422 21.6279 182.467 21.6882 182.541 21.834C182.615 21.98 182.712 22.1994 182.815 22.5058C183.025 23.128 183.236 24.0281 183.361 25.2437L193.309 24.2227L203.256 23.2016C202.767 18.4359 201.375 13.5677 198.426 9.63331C195.257 5.40601 190.42 2.53516 184.543 2.53516V12.5352ZM193.309 24.2227V34.2227H195.285V24.2227V14.2227H193.309V24.2227ZM195.285 24.2227L205.285 24.2227V10.4727H195.285H185.285V24.2227H195.285ZM195.285 10.4727V20.4727H201.773V10.4727V0.472656L195.285 0.472656V10.4727ZM184.543 19.0664V9.06641C181.383 9.06641 178.464 10.3424 176.317 12.5409C174.459 14.4435 173.59 16.6056 173.146 18.0623C172.277 20.9133 172.114 24.2421 172.137 27.347L182.137 27.2734L192.136 27.1999C192.127 25.9553 192.166 25.0595 192.223 24.4421C192.283 23.7845 192.344 23.6728 192.277 23.8948C192.235 24.0301 191.874 25.2362 190.627 26.5131C189.952 27.2048 189.041 27.8881 187.888 28.3795C186.73 28.8728 185.576 29.0664 184.543 29.0664V19.0664ZM182.137 27.2734L172.137 27.2004C172.114 30.3168 172.275 33.656 173.149 36.5116C173.598 37.9756 174.476 40.1469 176.355 42.0505C178.524 44.2482 181.438 45.4805 184.543 45.4805V35.4805V25.4805C185.552 25.4805 186.69 25.6659 187.84 26.1489C188.989 26.6311 189.904 27.3067 190.589 28.0013C191.857 29.286 192.228 30.5093 192.273 30.6573C192.344 30.8893 192.284 30.7848 192.223 30.1247C192.166 29.5055 192.127 28.6041 192.136 27.3464L182.137 27.2734ZM184.543 35.4805V45.4805C187.564 45.4805 190.424 44.3219 192.602 42.2166C194.517 40.3657 195.459 38.2247 195.955 36.7235C196.915 33.8183 197.121 30.4309 197.121 27.2734H187.121H177.121C177.121 28.5116 177.073 29.3909 177.01 29.9854C176.942 30.6193 176.882 30.6994 176.966 30.4455C177.027 30.2602 177.429 29.0671 178.703 27.8353C179.386 27.1757 180.279 26.5468 181.381 26.1005C182.484 25.654 183.573 25.4805 184.543 25.4805V35.4805ZM187.121 27.2734H197.121C197.121 24.1273 196.914 20.751 195.959 17.851C195.467 16.3577 194.535 14.2248 192.641 12.3739C190.483 10.2661 187.617 9.06641 184.543 9.06641V19.0664V29.0664C183.549 29.0664 182.445 28.8853 181.334 28.429C180.227 27.974 179.338 27.3375 178.665 26.68C177.411 25.4548 177.019 24.278 176.962 24.106C176.882 23.8624 176.943 23.9499 177.01 24.5816C177.073 25.1746 177.121 26.0484 177.121 27.2734H187.121ZM245 13.0508H255C255 7.52793 250.523 3.05078 245 3.05078V13.0508ZM245 32.6445V42.6445C250.523 42.6445 255 38.1674 255 32.6445H245ZM225.148 32.6445H215.148C215.148 38.1674 219.626 42.6445 225.148 42.6445V32.6445ZM225.148 13.0508V3.05078C219.626 3.05078 215.148 7.52793 215.148 13.0508H225.148ZM231.938 18.4648V8.46484C226.415 8.46484 221.938 12.942 221.938 18.4648H231.938ZM231.938 27.2305H221.938C221.938 32.7533 226.415 37.2305 231.938 37.2305V27.2305ZM238.168 27.2305V37.2305C243.691 37.2305 248.168 32.7533 248.168 27.2305H238.168ZM238.168 18.4648H248.168C248.168 12.942 243.691 8.46484 238.168 8.46484V18.4648ZM256.688 10.0859H266.688C266.688 4.56309 262.21 0.0859375 256.688 0.0859375V10.0859ZM256.688 38.1445V48.1445C262.21 48.1445 266.688 43.6674 266.688 38.1445H256.688ZM249.77 38.1445H239.77C239.77 43.6674 244.247 48.1445 249.77 48.1445V38.1445ZM249.77 10.0859V0.0859375C244.247 0.0859375 239.77 4.56309 239.77 10.0859H249.77ZM257.633 43.7305H267.633C267.633 38.2076 263.156 33.7305 257.633 33.7305V43.7305ZM257.633 49.1875V59.1875C263.156 59.1875 267.633 54.7103 267.633 49.1875H257.633ZM229.488 49.1875H219.488C219.488 54.7103 223.965 59.1875 229.488 59.1875V49.1875ZM229.488 35.6094V25.6094C223.965 25.6094 219.488 30.0865 219.488 35.6094H229.488ZM236.449 35.6094H246.449C246.449 30.0865 241.972 25.6094 236.449 25.6094V35.6094ZM236.449 43.7305H226.449C226.449 49.2533 230.926 53.7305 236.449 53.7305V43.7305ZM245 13.0508H235V32.6445H245H255V13.0508H245ZM245 32.6445V22.6445H225.148V32.6445V42.6445H245V32.6445ZM225.148 32.6445H235.148V13.0508H225.148H215.148V32.6445H225.148ZM225.148 13.0508V23.0508H245V13.0508V3.05078H225.148V13.0508ZM231.938 18.4648H221.938V27.2305H231.938H241.938V18.4648H231.938ZM231.938 27.2305V37.2305H238.168V27.2305V17.2305H231.938V27.2305ZM238.168 27.2305H248.168V18.4648H238.168H228.168V27.2305H238.168ZM238.168 18.4648V8.46484L231.938 8.46484V18.4648V28.4648H238.168V18.4648ZM256.688 10.0859H246.688V38.1445H256.688H266.688V10.0859H256.688ZM256.688 38.1445V28.1445H249.77V38.1445V48.1445H256.688V38.1445ZM249.77 38.1445H259.77V10.0859H249.77H239.77V38.1445H249.77ZM249.77 10.0859V20.0859H256.688V10.0859V0.0859375H249.77V10.0859ZM257.633 43.7305H247.633V49.1875H257.633H267.633V43.7305H257.633ZM257.633 49.1875V39.1875H229.488V49.1875V59.1875H257.633V49.1875ZM229.488 49.1875H239.488V35.6094H229.488H219.488V49.1875H229.488ZM229.488 35.6094V45.6094H236.449V35.6094V25.6094H229.488V35.6094ZM236.449 35.6094H226.449V43.7305H236.449H246.449V35.6094H236.449ZM236.449 43.7305V53.7305H257.633V43.7305V33.7305H236.449V43.7305ZM292.996 10L302.996 10C302.996 4.47715 298.519 0 292.996 0V10ZM292.996 18.0781H282.996C282.996 23.601 287.473 28.0781 292.996 28.0781V18.0781ZM297.938 18.0781H307.938C307.938 12.5553 303.46 8.07812 297.938 8.07812V18.0781ZM297.938 23.707V33.707C303.46 33.707 307.938 29.2299 307.938 23.707H297.938ZM292.996 23.707V13.707C287.473 13.707 282.996 18.1842 282.996 23.707H292.996ZM292.996 32V42C298.519 42 302.996 37.5228 302.996 32H292.996ZM286.078 32H276.078C276.078 37.5228 280.555 42 286.078 42V32ZM286.078 10V0C280.555 0 276.078 4.47715 276.078 10H286.078ZM281.695 12.1914H291.695C291.695 6.66856 287.218 2.19141 281.695 2.19141V12.1914ZM263.219 33.2461L254.247 37.6621C256.343 41.9222 261.147 44.1205 265.742 42.9226L263.219 33.2461ZM260.512 27.7461L258.265 18.0018C255.289 18.688 252.789 20.6969 251.479 23.4559C250.168 26.215 250.191 29.4216 251.54 32.1621L260.512 27.7461ZM274.09 17.6055L283.867 19.704C284.501 16.7508 283.766 13.6693 281.868 11.32C279.969 8.97073 277.11 7.60547 274.09 7.60547V17.6055ZM262.574 17.6055H252.574C252.574 23.1283 257.051 27.6055 262.574 27.6055V17.6055ZM262.574 12.1914V2.19141C257.051 2.19141 252.574 6.66856 252.574 12.1914H262.574ZM292.996 33.2891H302.996C302.996 27.7662 298.519 23.2891 292.996 23.2891V33.2891ZM292.996 49.3164V59.3164C298.519 59.3164 302.996 54.8393 302.996 49.3164H292.996ZM266.484 49.3164H256.484C256.484 54.8393 260.962 59.3164 266.484 59.3164V49.3164ZM266.484 33.2891V23.2891C260.962 23.2891 256.484 27.7662 256.484 33.2891H266.484ZM273.316 38.7891V28.7891C267.794 28.7891 263.316 33.2662 263.316 38.7891H273.316ZM273.316 43.9883H263.316C263.316 49.5111 267.794 53.9883 273.316 53.9883V43.9883ZM286.207 43.9883V53.9883C291.73 53.9883 296.207 49.5111 296.207 43.9883H286.207ZM286.207 38.7891H296.207C296.207 33.2662 291.73 28.7891 286.207 28.7891V38.7891ZM292.996 10H282.996V18.0781H292.996H302.996V10L292.996 10ZM292.996 18.0781V28.0781H297.938V18.0781V8.07812H292.996V18.0781ZM297.938 18.0781H287.938V23.707H297.938H307.938V18.0781H297.938ZM297.938 23.707V13.707H292.996V23.707V33.707H297.938V23.707ZM292.996 23.707H282.996V32H292.996H302.996V23.707H292.996ZM292.996 32V22H286.078V32V42H292.996V32ZM286.078 32H296.078V10H286.078H276.078V32H286.078ZM286.078 10V20H292.996V10V0L286.078 0V10ZM281.695 12.1914H271.695C271.695 15.4844 270.777 17.5114 269.482 18.9736C268.057 20.5831 265.422 22.3373 260.696 23.5696L263.219 33.2461L265.742 42.9226C273.047 41.0181 279.65 37.6591 284.455 32.2325C289.391 26.6585 291.695 19.7265 291.695 12.1914H281.695ZM263.219 33.2461L272.191 28.8301L269.484 23.3301L260.512 27.7461L251.54 32.1621L254.247 37.6621L263.219 33.2461ZM260.512 27.7461L262.758 37.4904C272.615 35.2179 281.719 29.7113 283.867 19.704L274.09 17.6055L264.313 15.5069C264.408 15.0626 264.6 15.184 263.909 15.7229C263.13 16.3301 261.434 17.271 258.265 18.0018L260.512 27.7461ZM274.09 17.6055V7.60547H262.574V17.6055V27.6055H274.09V17.6055ZM262.574 17.6055H272.574V12.1914H262.574H252.574V17.6055H262.574ZM262.574 12.1914V22.1914H281.695V12.1914V2.19141H262.574V12.1914ZM292.996 33.2891H282.996V49.3164H292.996H302.996V33.2891H292.996ZM292.996 49.3164V39.3164H266.484V49.3164V59.3164H292.996V49.3164ZM266.484 49.3164H276.484V33.2891H266.484H256.484V49.3164H266.484ZM266.484 33.2891V43.2891H292.996V33.2891V23.2891H266.484V33.2891ZM273.316 38.7891H263.316V43.9883H273.316H283.316V38.7891H273.316ZM273.316 43.9883V53.9883H286.207V43.9883V33.9883H273.316V43.9883ZM286.207 43.9883H296.207V38.7891H286.207H276.207V43.9883H286.207ZM286.207 38.7891V28.7891H273.316V38.7891V48.7891H286.207V38.7891ZM331.023 10.0859H341.023C341.023 4.56309 336.546 0.0859375 331.023 0.0859375V10.0859ZM331.023 21.6875H321.023C321.023 27.2103 325.501 31.6875 331.023 31.6875V21.6875ZM335.965 21.6875H345.965C345.965 16.1647 341.488 11.6875 335.965 11.6875V21.6875ZM335.965 27.2734V37.2734C341.488 37.2734 345.965 32.7963 345.965 27.2734H335.965ZM331.023 27.2734V17.2734C325.501 17.2734 321.023 21.7506 321.023 27.2734H331.023ZM331.023 39.6914V49.6914C336.546 49.6914 341.023 45.2143 341.023 39.6914H331.023ZM324.105 39.6914H314.105C314.105 45.2143 318.583 49.6914 324.105 49.6914V39.6914ZM324.105 10.0859V0.0859375C318.583 0.0859375 314.105 4.56309 314.105 10.0859H324.105ZM322.688 13.8242H332.688C332.688 8.30137 328.21 3.82422 322.688 3.82422V13.8242ZM322.688 19.1523V29.1523C328.21 29.1523 332.688 24.6752 332.688 19.1523H322.688ZM299.184 19.1523H289.184C289.184 24.6752 293.661 29.1523 299.184 29.1523V19.1523ZM299.184 13.8242V3.82422C293.661 3.82422 289.184 8.30137 289.184 13.8242H299.184ZM307.477 13.8242V23.8242C312.999 23.8242 317.477 19.3471 317.477 13.8242H307.477ZM307.477 10V0C301.954 0 297.477 4.47715 297.477 10L307.477 10ZM314.395 10H324.395C324.395 4.47715 319.917 0 314.395 0V10ZM314.395 13.8242H304.395C304.395 19.3471 308.872 23.8242 314.395 23.8242V13.8242ZM310.914 35.6523L310.988 25.6526C310.939 25.6523 310.89 25.6523 310.841 25.6526L310.914 35.6523ZM310.914 25.2539L311.127 15.2562C310.983 15.2531 310.84 15.2532 310.697 15.2563L310.914 25.2539ZM332.184 43.6875H342.184C342.184 38.1647 337.706 33.6875 332.184 33.6875V43.6875ZM332.184 49.1875V59.1875C337.706 59.1875 342.184 54.7103 342.184 49.1875H332.184ZM304.684 49.1875H294.684C294.684 54.7103 299.161 59.1875 304.684 59.1875V49.1875ZM304.684 37.457V27.457C299.161 27.457 294.684 31.9342 294.684 37.457H304.684ZM311.602 37.457H321.602C321.602 31.9342 317.124 27.457 311.602 27.457V37.457ZM311.602 43.6875H301.602C301.602 49.2103 306.079 53.6875 311.602 53.6875V43.6875ZM331.023 10.0859H321.023V21.6875H331.023L341.023 21.6875V10.0859H331.023ZM331.023 21.6875V31.6875H335.965V21.6875V11.6875H331.023V21.6875ZM335.965 21.6875L325.965 21.6875V27.2734L335.965 27.2734H345.965V21.6875H335.965ZM335.965 27.2734V17.2734L331.023 17.2734V27.2734V37.2734H335.965V27.2734ZM331.023 27.2734H321.023V39.6914H331.023H341.023V27.2734L331.023 27.2734ZM331.023 39.6914V29.6914H324.105V39.6914V49.6914H331.023V39.6914ZM324.105 39.6914H334.105V10.0859H324.105H314.105V39.6914H324.105ZM324.105 10.0859V20.0859H331.023V10.0859V0.0859375L324.105 0.0859375V10.0859ZM322.688 13.8242H312.688V19.1523H322.688H332.688V13.8242H322.688ZM322.688 19.1523V9.15234L299.184 9.15234V19.1523V29.1523H322.688V19.1523ZM299.184 19.1523H309.184V13.8242H299.184H289.184V19.1523H299.184ZM299.184 13.8242V23.8242H307.477V13.8242V3.82422H299.184V13.8242ZM307.477 13.8242H317.477V10H307.477L297.477 10V13.8242H307.477ZM307.477 10V20H314.395V10V0L307.477 0V10ZM314.395 10H304.395V13.8242H314.395H324.395V10H314.395ZM314.395 13.8242V23.8242H322.688V13.8242V3.82422L314.395 3.82422V13.8242ZM310.914 20.0547V30.0547C312.039 30.0547 312.204 30.3697 311.858 30.0968C311.669 29.9475 311.388 29.6587 311.16 29.2037C310.927 28.7368 310.84 28.2729 310.84 27.918H320.84H330.84C330.84 22.357 328.262 17.5637 324.246 14.3954C320.388 11.351 315.59 10.0547 310.914 10.0547V20.0547ZM320.84 27.918H310.84C310.84 27.5621 310.928 27.0793 311.177 26.5852C311.42 26.1028 311.724 25.7942 311.933 25.6324C312.312 25.3394 312.155 25.6613 310.988 25.6526L310.914 35.6523L310.84 45.6521C315.474 45.6864 320.28 44.4614 324.172 41.4506C328.243 38.3007 330.84 33.4973 330.84 27.918H320.84ZM310.914 35.6523L310.841 25.6526C309.635 25.6615 309.443 25.3307 309.801 25.6054C310.002 25.7591 310.307 26.0633 310.555 26.55C310.809 27.0498 310.902 27.5449 310.902 27.918H300.902H290.902C290.902 33.5383 293.546 38.3447 297.632 41.4776C301.536 44.4701 306.349 45.6862 310.988 45.6521L310.914 35.6523ZM300.902 27.918H310.902C310.902 28.29 310.81 28.7662 310.572 29.2388C310.34 29.6982 310.057 29.9827 309.876 30.1242C309.55 30.3793 309.751 30.0547 310.914 30.0547V20.0547V10.0547C301.979 10.0547 290.902 15.6025 290.902 27.918H300.902ZM310.914 25.2539L310.697 15.2563C308.61 15.3016 305.384 15.7513 302.468 17.9796C299.087 20.5634 297.648 24.3486 297.648 27.918H307.648H317.648C317.648 28.6625 317.512 29.7332 316.971 30.9136C316.414 32.1283 315.575 33.1346 314.612 33.871C312.834 35.2292 311.242 35.2491 311.131 35.2515L310.914 25.2539ZM307.648 27.918H297.648C297.648 31.492 299.1 35.3526 302.613 37.9382C305.605 40.1396 308.877 40.4961 310.914 40.4961V30.4961V20.4961C310.975 20.4961 312.614 20.4658 314.467 21.8294C315.481 22.5757 316.364 23.6099 316.948 24.8656C317.513 26.0805 317.648 27.1768 317.648 27.918H307.648ZM310.914 30.4961V40.4961C312.946 40.4961 316.153 40.1493 319.118 38.0657C322.645 35.5876 324.309 31.7381 324.309 27.918H314.309H304.309C304.309 27.0865 304.472 25.922 305.089 24.6692C305.718 23.3883 306.637 22.3918 307.619 21.7019C309.392 20.4562 310.902 20.4961 310.914 20.4961V30.4961ZM314.309 27.918H324.309C324.309 24.1082 322.662 20.3277 319.263 17.8474C316.368 15.7347 313.202 15.3003 311.127 15.2562L310.914 25.2539L310.701 35.2516C310.645 35.2505 309.177 35.2458 307.474 34.0032C306.539 33.321 305.665 32.3492 305.064 31.1087C304.473 29.8906 304.309 28.7524 304.309 27.918H314.309ZM332.184 43.6875H322.184V49.1875H332.184H342.184V43.6875H332.184ZM332.184 49.1875V39.1875H304.684V49.1875V59.1875H332.184V49.1875ZM304.684 49.1875H314.684V37.457H304.684H294.684V49.1875H304.684ZM304.684 37.457V47.457H311.602V37.457V27.457H304.684V37.457ZM311.602 37.457H301.602V43.6875H311.602H321.602V37.457H311.602ZM311.602 43.6875V53.6875H332.184V43.6875V33.6875H311.602V43.6875Z" fill="white" mask="url(#path-1-outside-1_6526_5725)"/>
</g>
<defs>
<filter id="filter0_d_6526_5725" x="0" y="0" width="349.965" height="67.875" filterUnits="userSpaceOnUse" color-interpolation-filters="sRGB">
<feFlood flood-opacity="0" result="BackgroundImageFix"/>
<feColorMatrix in="SourceAlpha" type="matrix" values="0 0 0 0 0 0 0 0 0 0 0 0 0 0 0 0 0 0 127 0" result="hardAlpha"/>
<feOffset dy="4"/>
<feGaussianBlur stdDeviation="2"/>
<feComposite in2="hardAlpha" operator="out"/>
<feColorMatrix type="matrix" values="0 0 0 0 0 0 0 0 0 0 0 0 0 0 0 0 0 0 0.07 0"/>
<feBlend mode="normal" in2="BackgroundImageFix" result="effect1_dropShadow_6526_5725"/>
<feBlend mode="normal" in="SourceGraphic" in2="effect1_dropShadow_6526_5725" result="shape"/>
</filter>
</defs>
</svg>
