<svg width="341" height="68" viewBox="0 0 341 68" fill="none" xmlns="http://www.w3.org/2000/svg">
<g filter="url(#filter0_d_6526_5702)">
<mask id="path-1-outside-1_6526_5702" maskUnits="userSpaceOnUse" x="3.09766" y="-0.507813" width="333" height="61" fill="black">
<rect fill="white" x="3.09766" y="-0.507813" width="333" height="61"/>
<path d="M50.2656 31.9141V37.457H35.3984V49.832H28.5664V37.457H14V31.9141H50.2656ZM32.0039 11.2031C40.6406 11.1602 46.8281 14.7695 46.8281 20.3984C46.8281 25.8555 40.6406 29.3789 32.0039 29.3789C23.3672 29.3789 17.2656 25.8555 17.3086 20.3984C17.2656 14.7695 23.3672 11.1602 32.0039 11.2031ZM32.0039 16.6602C27.2344 16.6602 24.3984 17.8633 24.3984 20.3984C24.3984 22.7617 27.2344 23.9648 32.0039 23.9648C36.8594 23.9648 39.6523 22.7617 39.6523 20.3984C39.6523 17.8633 36.8594 16.6602 32.0039 16.6602ZM67.7109 16.4023C67.7109 21.3008 69.6445 26.3281 76.3477 28.4766L72.6094 33.8047C68.6133 32.3867 65.9707 29.8301 64.3594 26.543C62.6621 30.3027 59.7617 33.2246 55.293 34.75L51.5977 29.3789C58.6445 27.2305 60.707 21.8594 60.707 16.4453V12.4922H67.7109V16.4023ZM85.8438 10.0859V39.1758H78.9688V23.4492L72.4375 23.4492V17.9492L78.9688 17.9492V10.0859H85.8438ZM86.6602 43.6875V49.1875H58.9023V36.2969H65.9062V43.6875H86.6602ZM111.754 11.9336C111.711 15.8437 114.762 20.8711 124.688 22.1602L122.109 27.5742C115.213 26.6074 110.658 23.7715 108.188 20.0547C105.652 23.8359 101.098 26.7363 94.1797 27.7031L91.7305 22.332C101.527 20.957 104.621 15.9727 104.621 11.9336V11.0312L111.754 11.0312V11.9336ZM126.32 29.0781V34.5352H112.184V40.5508H105.352V34.5352H90.0547V29.0781H126.32ZM122.367 43.6875V49.1875H94.0078V37.4141H100.883V43.6875H122.367ZM140.93 11.5039C147.074 11.5039 151.629 15.0703 151.629 20.1836C151.629 25.168 147.074 28.8203 140.93 28.7773C134.828 28.8203 130.316 25.168 130.359 20.1836C130.316 15.0703 134.828 11.5039 140.93 11.5039ZM140.93 17.0039C138.609 17.0039 136.977 17.9922 136.977 20.1836C136.977 22.2461 138.609 23.2344 140.93 23.1914C143.422 23.2344 145.098 22.2461 145.098 20.1836C145.098 17.9922 143.422 17.0039 140.93 17.0039ZM162.027 10.0859V49.7031H155.152V10.0859H162.027ZM128.297 30.582C135.043 30.5391 144.883 30.4102 153.09 29.1641L153.562 34.1484C150.641 34.793 147.633 35.2012 144.668 35.4805V48.5859L137.75 48.5859V35.9102C134.613 36.0391 131.691 36.082 129.113 36.125L128.297 30.582ZM197.82 10V24.6523H202.891V30.2812H197.82V49.6602H190.902V10H197.82ZM186.992 13.9531C186.949 26.2422 182.738 36.5547 169.16 43.2148L165.25 37.9727C174.102 33.5039 178.785 27.9395 179.988 19.5391H167.742V13.9531H186.992ZM247.535 10.0859V39.3047H240.66V30.2383H234.688V33.375H215.223V12.6641H222.141V18.1211H227.898V12.6641H234.688V16.2734H240.66V10.0859H247.535ZM248.352 43.6875V49.1875H220.594V36.3828H227.598V43.6875H248.352ZM222.141 28.0469H227.898V23.3203H222.141V28.0469ZM234.688 24.7812H240.66V21.7734H234.688V24.7812ZM283.457 10V25.082H288.828V30.7109H283.457V49.7461H276.625V10H283.457ZM274.691 15.6719V21.1289H251.531V15.6719H259.738V10.7305H266.613V15.6719H274.691ZM263.176 22.6758C269.062 22.6758 273.574 26.7148 273.574 32.3437C273.574 38.0156 269.062 42.0547 263.176 42.0547C257.16 42.0547 252.734 38.0156 252.734 32.3437C252.734 26.7148 257.16 22.6758 263.176 22.6758ZM263.176 28.2187C260.941 28.2187 259.309 29.6797 259.352 32.3437C259.309 35.1367 260.941 36.4687 263.176 36.4687C265.367 36.4687 266.957 35.1367 266.957 32.3437C266.957 29.6797 265.367 28.2187 263.176 28.2187ZM322.129 20.0977V25.4258H294.027V11.418H300.902V20.0977H322.129ZM326.039 28.9492V34.2773H289.773V28.9492H326.039ZM322.387 43.4727V48.9727H293.555V37.0273H300.516V43.4727H322.387Z"/>
</mask>
<path d="M50.2656 31.9141V37.457H35.3984V49.832H28.5664V37.457H14V31.9141H50.2656ZM32.0039 11.2031C40.6406 11.1602 46.8281 14.7695 46.8281 20.3984C46.8281 25.8555 40.6406 29.3789 32.0039 29.3789C23.3672 29.3789 17.2656 25.8555 17.3086 20.3984C17.2656 14.7695 23.3672 11.1602 32.0039 11.2031ZM32.0039 16.6602C27.2344 16.6602 24.3984 17.8633 24.3984 20.3984C24.3984 22.7617 27.2344 23.9648 32.0039 23.9648C36.8594 23.9648 39.6523 22.7617 39.6523 20.3984C39.6523 17.8633 36.8594 16.6602 32.0039 16.6602ZM67.7109 16.4023C67.7109 21.3008 69.6445 26.3281 76.3477 28.4766L72.6094 33.8047C68.6133 32.3867 65.9707 29.8301 64.3594 26.543C62.6621 30.3027 59.7617 33.2246 55.293 34.75L51.5977 29.3789C58.6445 27.2305 60.707 21.8594 60.707 16.4453V12.4922H67.7109V16.4023ZM85.8438 10.0859V39.1758H78.9688V23.4492L72.4375 23.4492V17.9492L78.9688 17.9492V10.0859H85.8438ZM86.6602 43.6875V49.1875H58.9023V36.2969H65.9062V43.6875H86.6602ZM111.754 11.9336C111.711 15.8437 114.762 20.8711 124.688 22.1602L122.109 27.5742C115.213 26.6074 110.658 23.7715 108.188 20.0547C105.652 23.8359 101.098 26.7363 94.1797 27.7031L91.7305 22.332C101.527 20.957 104.621 15.9727 104.621 11.9336V11.0312L111.754 11.0312V11.9336ZM126.32 29.0781V34.5352H112.184V40.5508H105.352V34.5352H90.0547V29.0781H126.32ZM122.367 43.6875V49.1875H94.0078V37.4141H100.883V43.6875H122.367ZM140.93 11.5039C147.074 11.5039 151.629 15.0703 151.629 20.1836C151.629 25.168 147.074 28.8203 140.93 28.7773C134.828 28.8203 130.316 25.168 130.359 20.1836C130.316 15.0703 134.828 11.5039 140.93 11.5039ZM140.93 17.0039C138.609 17.0039 136.977 17.9922 136.977 20.1836C136.977 22.2461 138.609 23.2344 140.93 23.1914C143.422 23.2344 145.098 22.2461 145.098 20.1836C145.098 17.9922 143.422 17.0039 140.93 17.0039ZM162.027 10.0859V49.7031H155.152V10.0859H162.027ZM128.297 30.582C135.043 30.5391 144.883 30.4102 153.09 29.1641L153.562 34.1484C150.641 34.793 147.633 35.2012 144.668 35.4805V48.5859L137.75 48.5859V35.9102C134.613 36.0391 131.691 36.082 129.113 36.125L128.297 30.582ZM197.82 10V24.6523H202.891V30.2812H197.82V49.6602H190.902V10H197.82ZM186.992 13.9531C186.949 26.2422 182.738 36.5547 169.16 43.2148L165.25 37.9727C174.102 33.5039 178.785 27.9395 179.988 19.5391H167.742V13.9531H186.992ZM247.535 10.0859V39.3047H240.66V30.2383H234.688V33.375H215.223V12.6641H222.141V18.1211H227.898V12.6641H234.688V16.2734H240.66V10.0859H247.535ZM248.352 43.6875V49.1875H220.594V36.3828H227.598V43.6875H248.352ZM222.141 28.0469H227.898V23.3203H222.141V28.0469ZM234.688 24.7812H240.66V21.7734H234.688V24.7812ZM283.457 10V25.082H288.828V30.7109H283.457V49.7461H276.625V10H283.457ZM274.691 15.6719V21.1289H251.531V15.6719H259.738V10.7305H266.613V15.6719H274.691ZM263.176 22.6758C269.062 22.6758 273.574 26.7148 273.574 32.3437C273.574 38.0156 269.062 42.0547 263.176 42.0547C257.16 42.0547 252.734 38.0156 252.734 32.3437C252.734 26.7148 257.16 22.6758 263.176 22.6758ZM263.176 28.2187C260.941 28.2187 259.309 29.6797 259.352 32.3437C259.309 35.1367 260.941 36.4687 263.176 36.4687C265.367 36.4687 266.957 35.1367 266.957 32.3437C266.957 29.6797 265.367 28.2187 263.176 28.2187ZM322.129 20.0977V25.4258H294.027V11.418H300.902V20.0977H322.129ZM326.039 28.9492V34.2773H289.773V28.9492H326.039ZM322.387 43.4727V48.9727H293.555V37.0273H300.516V43.4727H322.387Z" fill="#11DCA9"/>
<path d="M50.2656 31.9141H60.2656C60.2656 26.3912 55.7885 21.9141 50.2656 21.9141V31.9141ZM50.2656 37.457V47.457C55.7885 47.457 60.2656 42.9799 60.2656 37.457H50.2656ZM35.3984 37.457V27.457C29.8756 27.457 25.3984 31.9342 25.3984 37.457H35.3984ZM35.3984 49.832V59.832C40.9213 59.832 45.3984 55.3549 45.3984 49.832H35.3984ZM28.5664 49.832H18.5664C18.5664 55.3549 23.0436 59.832 28.5664 59.832V49.832ZM28.5664 37.457H38.5664C38.5664 31.9342 34.0893 27.457 28.5664 27.457V37.457ZM14 37.457H4C4 42.9799 8.47715 47.457 14 47.457V37.457ZM14 31.9141L14 21.9141C8.47715 21.9141 4 26.3912 4 31.9141H14ZM32.0039 11.2031L31.9542 21.203C31.9873 21.2032 32.0205 21.2032 32.0537 21.203L32.0039 11.2031ZM17.3086 20.3984L27.3083 20.4772C27.3087 20.4255 27.3087 20.3738 27.3083 20.3221L17.3086 20.3984ZM50.2656 31.9141H40.2656V37.457H50.2656H60.2656V31.9141H50.2656ZM50.2656 37.457V27.457H35.3984V37.457V47.457H50.2656V37.457ZM35.3984 37.457H25.3984V49.832H35.3984H45.3984V37.457H35.3984ZM35.3984 49.832V39.832H28.5664V49.832V59.832H35.3984V49.832ZM28.5664 49.832H38.5664V37.457H28.5664H18.5664V49.832H28.5664ZM28.5664 37.457V27.457H14L14 37.457V47.457H28.5664V37.457ZM14 37.457H24V31.9141H14H4V37.457H14ZM14 31.9141V41.9141H50.2656V31.9141V21.9141H14L14 31.9141ZM32.0039 11.2031L32.0537 21.203C35.1303 21.1877 36.8577 21.8516 37.4509 22.2131C37.6982 22.3638 37.5263 22.3233 37.2776 21.9305C36.9929 21.4809 36.8281 20.9105 36.8281 20.3984H46.8281H56.8281C56.8281 13.328 52.7434 8.11132 47.8587 5.13454C43.199 2.29487 37.5142 1.17559 31.9542 1.20325L32.0039 11.2031ZM46.8281 20.3984H36.8281C36.8281 19.7764 37.0312 19.131 37.3472 18.6458C37.6211 18.2253 37.8075 18.1829 37.5409 18.3416C36.9105 18.7167 35.1286 19.3789 32.0039 19.3789V29.3789V39.3789C37.5159 39.3789 43.1461 38.2794 47.7687 35.5285C52.5877 32.6608 56.8281 27.5284 56.8281 20.3984H46.8281ZM32.0039 29.3789V19.3789C28.8757 19.3789 27.1373 18.7154 26.5541 18.3648C26.3134 18.2201 26.5189 18.2811 26.8004 18.7221C27.1225 19.2265 27.313 19.8749 27.3083 20.4772L17.3086 20.3984L7.3089 20.3197C7.25297 27.423 11.4112 32.5968 16.2486 35.5053C20.8647 38.2807 26.4954 39.3789 32.0039 39.3789V29.3789ZM17.3086 20.3984L27.3083 20.3221C27.3121 20.8148 27.1586 21.3872 26.8685 21.8546C26.6127 22.2666 26.4226 22.3257 26.6443 22.1892C27.1904 21.853 28.8739 21.1877 31.9542 21.203L32.0039 11.2031L32.0537 1.20325C26.4972 1.1756 20.8116 2.29349 16.1584 5.15845C11.2576 8.17594 7.25513 13.4325 7.30889 20.4748L17.3086 20.3984ZM32.0039 16.6602V6.66016C29.0634 6.66016 25.4164 6.98676 22.1349 8.53972C20.3874 9.36676 18.3904 10.7101 16.8212 12.8734C15.1746 15.1436 14.3984 17.7743 14.3984 20.3984H24.3984H34.3984C34.3984 21.755 33.9768 23.2846 33.0109 24.6162C32.1226 25.841 31.1327 26.4081 30.6903 26.6175C30.2596 26.8213 30.0989 26.8085 30.4095 26.7579C30.6925 26.7119 31.2091 26.6602 32.0039 26.6602V16.6602ZM24.3984 20.3984H14.3984C14.3984 26.7058 18.6429 30.5126 22.2577 32.1638C25.4697 33.6311 29.0427 33.9648 32.0039 33.9648V23.9648V13.9648C31.2112 13.9648 30.6829 13.9134 30.3819 13.8653C30.0532 13.8128 30.1758 13.793 30.5675 13.9719C30.9545 14.1487 31.9405 14.6762 32.8597 15.8782C33.8779 17.2098 34.3984 18.8349 34.3984 20.3984H24.3984ZM32.0039 23.9648V33.9648C34.9852 33.9648 38.5796 33.6367 41.8039 32.1638C45.4804 30.4844 49.6523 26.653 49.6523 20.3984H39.6523H29.6523C29.6523 18.8706 30.1537 17.2525 31.1734 15.9086C32.0968 14.6914 33.0949 14.1542 33.494 13.9719C33.8943 13.789 34.0206 13.8095 33.682 13.8632C33.3715 13.9124 32.8263 13.9648 32.0039 13.9648V23.9648ZM39.6523 20.3984H49.6523C49.6523 17.808 48.8981 15.1845 47.257 12.9039C45.6897 10.726 43.6867 9.37271 41.9266 8.53972C38.6329 6.981 34.9639 6.66016 32.0039 6.66016V16.6602V26.6602C32.8285 26.6602 33.362 26.7129 33.6546 26.7601C33.9753 26.8118 33.8107 26.8255 33.3713 26.6175C32.9163 26.4022 31.915 25.825 31.0232 24.5857C30.0575 23.2437 29.6523 21.7213 29.6523 20.3984H39.6523ZM76.3477 28.4766L84.5338 34.22C86.3596 31.6177 86.8393 28.3022 85.826 25.2891C84.8127 22.2759 82.4271 19.924 79.3998 18.9537L76.3477 28.4766ZM72.6094 33.8047L69.2653 43.229C73.4991 44.7313 78.2152 43.2258 80.7955 39.5482L72.6094 33.8047ZM64.3594 26.543L73.3386 22.1414C71.6337 18.6634 68.0736 16.4828 64.2007 16.5442C60.3278 16.6057 56.8387 18.8982 55.245 22.4285L64.3594 26.543ZM55.293 34.75L47.0545 40.4181C49.5949 44.1105 54.2818 45.6617 58.5234 44.2138L55.293 34.75ZM51.5977 29.3789L48.6814 19.8136C45.6321 20.7433 43.2087 23.0711 42.1572 26.0806C41.1058 29.0901 41.5522 32.4206 43.3592 35.047L51.5977 29.3789ZM60.707 12.4922V2.49219C55.1842 2.49219 50.707 6.96934 50.707 12.4922H60.707ZM67.7109 12.4922H77.7109C77.7109 6.96934 73.2338 2.49219 67.7109 2.49219V12.4922ZM85.8438 10.0859H95.8438C95.8438 4.56309 91.3666 0.0859375 85.8438 0.0859375V10.0859ZM85.8438 39.1758V49.1758C91.3666 49.1758 95.8438 44.6986 95.8438 39.1758H85.8438ZM78.9688 39.1758H68.9688C68.9688 44.6986 73.4459 49.1758 78.9688 49.1758V39.1758ZM78.9688 23.4492H88.9688C88.9688 17.9264 84.4916 13.4492 78.9688 13.4492V23.4492ZM72.4375 23.4492H62.4375C62.4375 28.9721 66.9147 33.4492 72.4375 33.4492V23.4492ZM72.4375 17.9492V7.94922C66.9147 7.94922 62.4375 12.4264 62.4375 17.9492H72.4375ZM78.9688 17.9492V27.9492C84.4916 27.9492 88.9688 23.4721 88.9688 17.9492H78.9688ZM78.9688 10.0859V0.0859375C73.4459 0.0859375 68.9688 4.56309 68.9688 10.0859H78.9688ZM86.6602 43.6875H96.6602C96.6602 38.1647 92.183 33.6875 86.6602 33.6875V43.6875ZM86.6602 49.1875V59.1875C92.183 59.1875 96.6602 54.7103 96.6602 49.1875H86.6602ZM58.9023 49.1875H48.9023C48.9023 54.7103 53.3795 59.1875 58.9023 59.1875V49.1875ZM58.9023 36.2969V26.2969C53.3795 26.2969 48.9023 30.774 48.9023 36.2969H58.9023ZM65.9062 36.2969H75.9062C75.9062 30.774 71.4291 26.2969 65.9062 26.2969V36.2969ZM65.9062 43.6875H55.9062C55.9062 49.2103 60.3834 53.6875 65.9062 53.6875V43.6875ZM67.7109 16.4023H57.7109C57.7109 20.0894 58.4304 24.5559 61.0093 28.7284C63.7009 33.0831 67.8996 36.27 73.2955 37.9994L76.3477 28.4766L79.3998 18.9537C78.6795 18.7228 78.3334 18.4957 78.2023 18.3965C78.0811 18.3049 78.0442 18.2491 78.0219 18.213C77.9583 18.1101 77.7109 17.6137 77.7109 16.4023L67.7109 16.4023ZM76.3477 28.4766L68.1615 22.7331L64.4233 28.0612L72.6094 33.8047L80.7955 39.5482L84.5338 34.22L76.3477 28.4766ZM72.6094 33.8047L75.9535 24.3804C74.4949 23.8629 73.8354 23.155 73.3386 22.1414L64.3594 26.543L55.3802 30.9445C58.106 36.5052 62.7316 40.9106 69.2653 43.229L72.6094 33.8047ZM64.3594 26.543L55.245 22.4285C54.6169 23.8199 53.7617 24.7062 52.0625 25.2862L55.293 34.75L58.5234 44.2138C65.7618 41.7431 70.7073 36.7856 73.4737 30.6574L64.3594 26.543ZM55.293 34.75L63.5315 29.0819L59.8362 23.7108L51.5977 29.3789L43.3592 35.047L47.0545 40.4181L55.293 34.75ZM51.5977 29.3789L54.5139 38.9442C60.1752 37.2182 64.5501 33.9022 67.3307 29.3464C69.9797 25.006 70.707 20.3272 70.707 16.4453H60.707H50.707C50.707 17.9775 50.4031 18.6912 50.2591 18.9271C50.2016 19.0213 50.1314 19.1096 49.9852 19.2195C49.8291 19.3369 49.4507 19.5791 48.6814 19.8136L51.5977 29.3789ZM60.707 16.4453H70.707V12.4922H60.707H50.707V16.4453H60.707ZM60.707 12.4922V22.4922H67.7109V12.4922V2.49219L60.707 2.49219V12.4922ZM67.7109 12.4922H57.7109V16.4023H67.7109L77.7109 16.4023V12.4922H67.7109ZM85.8438 10.0859H75.8438V39.1758H85.8438H95.8438V10.0859H85.8438ZM85.8438 39.1758V29.1758H78.9688V39.1758V49.1758H85.8438V39.1758ZM78.9688 39.1758H88.9688V23.4492H78.9688L68.9688 23.4492V39.1758H78.9688ZM78.9688 23.4492V13.4492L72.4375 13.4492V23.4492V33.4492H78.9688V23.4492ZM72.4375 23.4492L82.4375 23.4492V17.9492L72.4375 17.9492H62.4375V23.4492H72.4375ZM72.4375 17.9492V27.9492L78.9688 27.9492V17.9492V7.94922H72.4375V17.9492ZM78.9688 17.9492H88.9688V10.0859H78.9688H68.9688V17.9492L78.9688 17.9492ZM78.9688 10.0859V20.0859H85.8438V10.0859V0.0859375L78.9688 0.0859375V10.0859ZM86.6602 43.6875H76.6602V49.1875H86.6602H96.6602V43.6875H86.6602ZM86.6602 49.1875V39.1875H58.9023V49.1875V59.1875H86.6602V49.1875ZM58.9023 49.1875H68.9023V36.2969H58.9023H48.9023V49.1875H58.9023ZM58.9023 36.2969V46.2969H65.9062V36.2969V26.2969H58.9023V36.2969ZM65.9062 36.2969H55.9062V43.6875H65.9062H75.9062V36.2969H65.9062ZM65.9062 43.6875V53.6875H86.6602V43.6875V33.6875H65.9062V43.6875ZM111.754 11.9336L121.753 12.0435C121.754 12.0069 121.754 11.9702 121.754 11.9336H111.754ZM124.688 22.1602L133.716 26.4595C135.093 23.5676 135.002 20.1911 133.47 17.3781C131.938 14.565 129.152 12.6559 125.975 12.2434L124.688 22.1602ZM122.109 27.5742L120.721 37.4774C125.044 38.0834 129.261 35.815 131.138 31.8736L122.109 27.5742ZM108.188 20.0547L116.515 14.5188C114.666 11.7362 111.549 10.0613 108.207 10.0547C104.866 10.0481 101.742 11.7107 99.8815 14.4859L108.188 20.0547ZM94.1797 27.7031L85.081 31.8521C86.917 35.8785 91.1811 38.2194 95.5638 37.6069L94.1797 27.7031ZM91.7305 22.332L90.3406 12.4291C87.2155 12.8677 84.4809 14.7556 82.9631 17.5223C81.4453 20.289 81.3225 23.6098 82.6318 26.481L91.7305 22.332ZM104.621 11.0312V1.03125C99.0982 1.03125 94.6211 5.5084 94.6211 11.0312H104.621ZM111.754 11.0312H121.754C121.754 5.5084 117.277 1.03125 111.754 1.03125V11.0312ZM126.32 29.0781H136.32C136.32 23.5553 131.843 19.0781 126.32 19.0781V29.0781ZM126.32 34.5352V44.5352C131.843 44.5352 136.32 40.058 136.32 34.5352H126.32ZM112.184 34.5352V24.5352C106.661 24.5352 102.184 29.0123 102.184 34.5352H112.184ZM112.184 40.5508V50.5508C117.706 50.5508 122.184 46.0736 122.184 40.5508H112.184ZM105.352 40.5508H95.3516C95.3516 46.0736 99.8287 50.5508 105.352 50.5508V40.5508ZM105.352 34.5352H115.352C115.352 29.0123 110.874 24.5352 105.352 24.5352V34.5352ZM90.0547 34.5352H80.0547C80.0547 40.058 84.5318 44.5352 90.0547 44.5352V34.5352ZM90.0547 29.0781V19.0781C84.5318 19.0781 80.0547 23.5553 80.0547 29.0781H90.0547ZM122.367 43.6875H132.367C132.367 38.1647 127.89 33.6875 122.367 33.6875V43.6875ZM122.367 49.1875V59.1875C127.89 59.1875 132.367 54.7103 132.367 49.1875H122.367ZM94.0078 49.1875H84.0078C84.0078 54.7103 88.485 59.1875 94.0078 59.1875V49.1875ZM94.0078 37.4141V27.4141C88.485 27.4141 84.0078 31.8912 84.0078 37.4141H94.0078ZM100.883 37.4141H110.883C110.883 31.8912 106.406 27.4141 100.883 27.4141V37.4141ZM100.883 43.6875H90.8828C90.8828 49.2103 95.36 53.6875 100.883 53.6875V43.6875ZM111.754 11.9336L101.755 11.8237C101.703 16.5042 103.543 21.4127 107.579 25.2642C111.533 29.0381 116.982 31.2434 123.4 32.0769L124.688 22.1602L125.975 12.2434C122.467 11.7878 121.428 10.835 121.386 10.7953C121.363 10.7732 121.478 10.8813 121.588 11.1448C121.692 11.3931 121.757 11.6983 121.753 12.0435L111.754 11.9336ZM124.688 22.1602L115.659 17.8608L113.081 23.2749L122.109 27.5742L131.138 31.8736L133.716 26.4595L124.688 22.1602ZM122.109 27.5742L123.498 17.6711C118.655 16.9921 117.015 15.2709 116.515 14.5188L108.188 20.0547L99.8596 25.5906C104.301 32.2721 111.771 36.2227 120.721 37.4774L122.109 27.5742ZM108.188 20.0547L99.8815 14.4859C99.2625 15.4093 97.5421 17.136 92.7956 17.7994L94.1797 27.7031L95.5638 37.6069C104.653 36.3366 112.042 32.2626 116.493 25.6235L108.188 20.0547ZM94.1797 27.7031L103.278 23.5541L100.829 18.183L91.7305 22.332L82.6318 26.481L85.081 31.8521L94.1797 27.7031ZM91.7305 22.332L93.1204 32.235C99.4627 31.3448 104.859 29.114 108.784 25.3372C112.795 21.4768 114.621 16.5954 114.621 11.9336L104.621 11.9336H94.6211C94.6211 11.6656 94.6732 11.4151 94.7625 11.202C94.8577 10.9751 94.9533 10.8901 94.9154 10.9265C94.8439 10.9953 93.7952 11.9442 90.3406 12.4291L91.7305 22.332ZM104.621 11.9336L114.621 11.9336V11.0312L104.621 11.0312H94.6211V11.9336H104.621ZM104.621 11.0312V21.0312H111.754V11.0312V1.03125H104.621V11.0312ZM111.754 11.0312L101.754 11.0312V11.9336L111.754 11.9336H121.754V11.0312H111.754ZM126.32 29.0781H116.32V34.5352H126.32H136.32V29.0781H126.32ZM126.32 34.5352V24.5352H112.184V34.5352V44.5352H126.32V34.5352ZM112.184 34.5352H102.184V40.5508H112.184H122.184V34.5352H112.184ZM112.184 40.5508V30.5508H105.352V40.5508V50.5508H112.184V40.5508ZM105.352 40.5508H115.352V34.5352H105.352H95.3516V40.5508H105.352ZM105.352 34.5352V24.5352H90.0547V34.5352V44.5352H105.352V34.5352ZM90.0547 34.5352H100.055V29.0781H90.0547H80.0547V34.5352H90.0547ZM90.0547 29.0781V39.0781H126.32V29.0781V19.0781H90.0547V29.0781ZM122.367 43.6875H112.367V49.1875H122.367H132.367V43.6875H122.367ZM122.367 49.1875V39.1875H94.0078V49.1875V59.1875H122.367V49.1875ZM94.0078 49.1875H104.008V37.4141H94.0078H84.0078V49.1875H94.0078ZM94.0078 37.4141V47.4141H100.883V37.4141V27.4141H94.0078V37.4141ZM100.883 37.4141H90.8828V43.6875H100.883H110.883V37.4141H100.883ZM100.883 43.6875V53.6875H122.367V43.6875V33.6875H100.883V43.6875ZM140.93 28.7773L141 18.7776C140.953 18.7773 140.906 18.7773 140.859 18.7776L140.93 28.7773ZM130.359 20.1836L140.359 20.2698C140.359 20.2131 140.359 20.1563 140.359 20.0996L130.359 20.1836ZM140.93 23.1914L141.102 13.1929C140.983 13.1908 140.864 13.1909 140.745 13.1931L140.93 23.1914ZM162.027 10.0859H172.027C172.027 4.56309 167.55 0.0859375 162.027 0.0859375V10.0859ZM162.027 49.7031V59.7031C167.55 59.7031 172.027 55.226 172.027 49.7031H162.027ZM155.152 49.7031H145.152C145.152 55.226 149.63 59.7031 155.152 59.7031V49.7031ZM155.152 10.0859V0.0859375C149.63 0.0859375 145.152 4.56309 145.152 10.0859H155.152ZM128.297 30.582L128.233 20.5822C125.338 20.6007 122.593 21.8731 120.707 24.0706C118.822 26.268 117.982 29.1747 118.404 32.0392L128.297 30.582ZM153.09 29.1641L163.045 28.22C162.786 25.4827 161.41 22.9731 159.243 21.2812C157.076 19.5894 154.307 18.8646 151.589 19.2774L153.09 29.1641ZM153.562 34.1484L155.717 43.9137C160.648 42.8258 163.995 38.2319 163.518 33.2044L153.562 34.1484ZM144.668 35.4805L143.73 25.5245C138.593 26.0084 134.668 30.321 134.668 35.4805L144.668 35.4805ZM144.668 48.5859V58.5859C150.191 58.5859 154.668 54.1088 154.668 48.5859H144.668ZM137.75 48.5859H127.75C127.75 54.1088 132.227 58.5859 137.75 58.5859V48.5859ZM137.75 35.9102L147.75 35.9102C147.75 33.1868 146.639 30.5812 144.674 28.6954C142.71 26.8096 140.06 25.8068 137.339 25.9186L137.75 35.9102ZM129.113 36.125L119.22 37.5821C119.952 42.5519 124.257 46.2073 129.28 46.1236L129.113 36.125ZM140.93 11.5039V21.5039C142.133 21.5039 142.485 21.8545 142.323 21.7242C142.228 21.6481 142.032 21.4552 141.864 21.1172C141.69 20.7663 141.629 20.4231 141.629 20.1836H151.629H161.629C161.629 7.60908 150.435 1.50391 140.93 1.50391V11.5039ZM151.629 20.1836H141.629C141.629 19.8732 141.708 19.5007 141.883 19.1516C142.051 18.8168 142.24 18.6343 142.323 18.5678C142.469 18.4507 142.126 18.7855 141 18.7776L140.93 28.7773L140.86 38.7771C150.458 38.8442 161.629 32.6054 161.629 20.1836H151.629ZM140.93 28.7773L140.859 18.7776C139.768 18.7853 139.467 18.4593 139.644 18.6026C139.742 18.6821 139.94 18.8788 140.11 19.2256C140.287 19.5864 140.362 19.9637 140.359 20.2698L130.359 20.1836L120.36 20.0974C120.252 32.5408 131.393 38.8448 141 38.7771L140.93 28.7773ZM130.359 20.1836L140.359 20.0996C140.361 20.3343 140.304 20.6816 140.128 21.0435C139.958 21.3931 139.754 21.6001 139.644 21.6894C139.451 21.8462 139.762 21.5039 140.93 21.5039V11.5039V1.50391C131.415 1.50391 120.254 7.67385 120.36 20.2676L130.359 20.1836ZM140.93 17.0039V7.00391C138.562 7.00391 135.159 7.47709 132.103 9.7572C128.6 12.3712 126.977 16.2917 126.977 20.1836H136.977H146.977C146.977 20.8888 146.841 21.91 146.31 23.0334C145.767 24.1827 144.962 25.1164 144.063 25.7867C142.404 27.0249 140.977 27.0039 140.93 27.0039V17.0039ZM136.977 20.1836H126.977C126.977 24.217 128.764 28.106 132.265 30.6102C135.318 32.7943 138.694 33.2345 141.115 33.1897L140.93 23.1914L140.745 13.1931C140.845 13.1913 142.245 13.1588 143.901 14.3439C144.797 14.985 145.642 15.9062 146.228 17.0891C146.807 18.2569 146.977 19.3597 146.977 20.1836H136.977ZM140.93 23.1914L140.757 33.1899C143.137 33.2309 146.512 32.8387 149.593 30.7316C153.189 28.2726 155.098 24.3434 155.098 20.1836H145.098H135.098C135.098 19.3211 135.281 18.1702 135.9 16.964C136.525 15.7452 137.41 14.8335 138.304 14.2225C139.154 13.6408 139.911 13.3963 140.353 13.2929C140.797 13.1889 141.068 13.1923 141.102 13.1929L140.93 23.1914ZM145.098 20.1836H155.098C155.098 16.1729 153.365 12.2051 149.755 9.6306C146.666 7.42764 143.259 7.00391 140.93 7.00391V17.0039V27.0039C140.917 27.0039 140.651 27.005 140.207 26.894C139.762 26.7827 138.995 26.522 138.142 25.9134C137.242 25.2715 136.395 24.3441 135.814 23.156C135.245 21.9929 135.098 20.9244 135.098 20.1836H145.098ZM162.027 10.0859H152.027V49.7031H162.027H172.027V10.0859H162.027ZM162.027 49.7031V39.7031H155.152V49.7031V59.7031H162.027V49.7031ZM155.152 49.7031H165.152V10.0859H155.152H145.152V49.7031H155.152ZM155.152 10.0859V20.0859H162.027V10.0859V0.0859375H155.152V10.0859ZM128.297 30.582L128.361 40.5818C135.029 40.5394 145.565 40.4211 154.591 39.0508L153.09 29.1641L151.589 19.2774C144.2 20.3992 135.057 20.5388 128.233 20.5822L128.297 30.582ZM153.09 29.1641L143.135 30.1081L143.607 35.0925L153.562 34.1484L163.518 33.2044L163.045 28.22L153.09 29.1641ZM153.562 34.1484L151.408 24.3832C149.011 24.912 146.435 25.2697 143.73 25.5245L144.668 35.4805L145.606 45.4364C148.831 45.1326 152.27 44.6739 155.717 43.9137L153.562 34.1484ZM144.668 35.4805L134.668 35.4805V48.5859L144.668 48.5859H154.668V35.4805H144.668ZM144.668 48.5859V38.5859L137.75 38.5859V48.5859V58.5859L144.668 58.5859V48.5859ZM137.75 48.5859L147.75 48.5859V35.9102L137.75 35.9102H127.75V48.5859H137.75ZM137.75 35.9102L137.339 25.9186C134.348 26.0415 131.555 26.0829 128.947 26.1264L129.113 36.125L129.28 46.1236C131.828 46.0811 134.879 46.0366 138.161 45.9017L137.75 35.9102ZM129.113 36.125L139.007 34.6679L138.19 29.1249L128.297 30.582L118.404 32.0392L119.22 37.5821L129.113 36.125ZM197.82 10H207.82C207.82 4.47715 203.343 0 197.82 0V10ZM197.82 24.6523H187.82C187.82 30.1752 192.297 34.6523 197.82 34.6523V24.6523ZM202.891 24.6523L212.891 24.6523C212.891 19.1295 208.413 14.6523 202.891 14.6523V24.6523ZM202.891 30.2812V40.2812C208.413 40.2812 212.891 35.8041 212.891 30.2812H202.891ZM197.82 30.2812V20.2812C192.297 20.2812 187.82 24.7584 187.82 30.2812H197.82ZM197.82 49.6602V59.6602C203.343 59.6602 207.82 55.183 207.82 49.6602H197.82ZM190.902 49.6602H180.902C180.902 55.183 185.38 59.6602 190.902 59.6602V49.6602ZM190.902 10V0C185.38 0 180.902 4.47715 180.902 10H190.902ZM186.992 13.9531L196.992 13.9881C197.001 11.3299 195.952 8.77736 194.076 6.89443C192.199 5.0115 189.65 3.95312 186.992 3.95312V13.9531ZM169.16 43.2148L161.144 49.1938C164.023 53.0526 169.242 54.313 173.564 52.193L169.16 43.2148ZM165.25 37.9727L160.743 29.0458C158.106 30.377 156.193 32.8059 155.516 35.6812C154.839 38.5565 155.468 41.5839 157.234 43.9516L165.25 37.9727ZM179.988 19.5391L189.887 20.9568C190.298 18.0866 189.443 15.1792 187.544 12.9884C185.645 10.7976 182.888 9.53906 179.988 9.53906V19.5391ZM167.742 19.5391H157.742C157.742 25.0619 162.219 29.5391 167.742 29.5391V19.5391ZM167.742 13.9531V3.95312C162.219 3.95312 157.742 8.43028 157.742 13.9531H167.742ZM197.82 10H187.82V24.6523H197.82L207.82 24.6523V10H197.82ZM197.82 24.6523V34.6523H202.891V24.6523V14.6523H197.82V24.6523ZM202.891 24.6523H192.891V30.2812H202.891H212.891V24.6523L202.891 24.6523ZM202.891 30.2812V20.2812H197.82V30.2812V40.2812H202.891V30.2812ZM197.82 30.2812H187.82V49.6602H197.82H207.82V30.2812H197.82ZM197.82 49.6602V39.6602H190.902V49.6602V59.6602H197.82V49.6602ZM190.902 49.6602H200.902V10H190.902H180.902V49.6602H190.902ZM190.902 10V20H197.82V10V0L190.902 0V10ZM186.992 13.9531L176.992 13.9182C176.975 18.9688 176.099 22.8059 174.416 25.8287C172.793 28.7423 169.995 31.6673 164.756 34.2367L169.16 43.2148L173.564 52.193C181.904 48.1022 188 42.5409 191.888 35.5609C195.715 28.6902 196.967 21.2265 196.992 13.9881L186.992 13.9531ZM169.16 43.2148L177.176 37.2359L173.266 31.9937L165.25 37.9727L157.234 43.9516L161.144 49.1938L169.16 43.2148ZM165.25 37.9727L169.757 46.8995C175.001 44.2517 179.675 40.951 183.261 36.5212C186.932 31.9849 189.055 26.7651 189.887 20.9568L179.988 19.5391L170.089 18.1213C169.718 20.7134 168.898 22.4761 167.714 23.9392C166.444 25.5089 164.35 27.2248 160.743 29.0458L165.25 37.9727ZM179.988 19.5391V9.53906L167.742 9.53906V19.5391V29.5391H179.988V19.5391ZM167.742 19.5391H177.742V13.9531H167.742H157.742V19.5391H167.742ZM167.742 13.9531V23.9531H186.992V13.9531V3.95312H167.742V13.9531ZM247.535 10.0859H257.535C257.535 4.56309 253.058 0.0859375 247.535 0.0859375V10.0859ZM247.535 39.3047V49.3047C253.058 49.3047 257.535 44.8275 257.535 39.3047H247.535ZM240.66 39.3047H230.66C230.66 44.8275 235.137 49.3047 240.66 49.3047V39.3047ZM240.66 30.2383H250.66C250.66 24.7154 246.183 20.2383 240.66 20.2383V30.2383ZM234.688 30.2383V20.2383C229.165 20.2383 224.688 24.7154 224.688 30.2383H234.688ZM234.688 33.375V43.375C240.21 43.375 244.688 38.8978 244.688 33.375H234.688ZM215.223 33.375H205.223C205.223 38.8978 209.7 43.375 215.223 43.375V33.375ZM215.223 12.6641V2.66406C209.7 2.66406 205.223 7.14122 205.223 12.6641H215.223ZM222.141 12.6641H232.141C232.141 7.14122 227.663 2.66406 222.141 2.66406V12.6641ZM222.141 18.1211H212.141C212.141 23.6439 216.618 28.1211 222.141 28.1211V18.1211ZM227.898 18.1211V28.1211C233.421 28.1211 237.898 23.6439 237.898 18.1211H227.898ZM227.898 12.6641V2.66406C222.376 2.66406 217.898 7.14122 217.898 12.6641H227.898ZM234.688 12.6641H244.688C244.688 7.14122 240.21 2.66406 234.688 2.66406V12.6641ZM234.688 16.2734H224.688C224.688 21.7963 229.165 26.2734 234.688 26.2734V16.2734ZM240.66 16.2734V26.2734C246.183 26.2734 250.66 21.7963 250.66 16.2734H240.66ZM240.66 10.0859V0.0859375C235.137 0.0859375 230.66 4.56309 230.66 10.0859L240.66 10.0859ZM248.352 43.6875H258.352C258.352 38.1647 253.874 33.6875 248.352 33.6875V43.6875ZM248.352 49.1875V59.1875C253.874 59.1875 258.352 54.7103 258.352 49.1875H248.352ZM220.594 49.1875H210.594C210.594 54.7103 215.071 59.1875 220.594 59.1875V49.1875ZM220.594 36.3828V26.3828C215.071 26.3828 210.594 30.86 210.594 36.3828H220.594ZM227.598 36.3828H237.598C237.598 30.86 233.12 26.3828 227.598 26.3828V36.3828ZM227.598 43.6875H217.598C217.598 49.2103 222.075 53.6875 227.598 53.6875V43.6875ZM222.141 28.0469H212.141C212.141 33.5697 216.618 38.0469 222.141 38.0469V28.0469ZM227.898 28.0469V38.0469C233.421 38.0469 237.898 33.5697 237.898 28.0469H227.898ZM227.898 23.3203H237.898C237.898 17.7975 233.421 13.3203 227.898 13.3203V23.3203ZM222.141 23.3203V13.3203C216.618 13.3203 212.141 17.7975 212.141 23.3203H222.141ZM234.688 24.7812H224.688C224.688 30.3041 229.165 34.7812 234.688 34.7812V24.7812ZM240.66 24.7812V34.7812C246.183 34.7812 250.66 30.3041 250.66 24.7812H240.66ZM240.66 21.7734H250.66C250.66 16.2506 246.183 11.7734 240.66 11.7734V21.7734ZM234.688 21.7734V11.7734C229.165 11.7734 224.688 16.2506 224.688 21.7734H234.688ZM247.535 10.0859H237.535V39.3047H247.535H257.535V10.0859H247.535ZM247.535 39.3047V29.3047H240.66V39.3047V49.3047H247.535V39.3047ZM240.66 39.3047H250.66V30.2383H240.66H230.66V39.3047H240.66ZM240.66 30.2383V20.2383H234.688V30.2383V40.2383H240.66V30.2383ZM234.688 30.2383H224.688V33.375H234.688H244.688V30.2383H234.688ZM234.688 33.375V23.375H215.223V33.375V43.375H234.688V33.375ZM215.223 33.375H225.223V12.6641H215.223H205.223V33.375H215.223ZM215.223 12.6641V22.6641H222.141V12.6641V2.66406L215.223 2.66406V12.6641ZM222.141 12.6641H212.141V18.1211H222.141H232.141V12.6641H222.141ZM222.141 18.1211V28.1211H227.898V18.1211V8.12109H222.141V18.1211ZM227.898 18.1211H237.898V12.6641H227.898H217.898V18.1211H227.898ZM227.898 12.6641V22.6641H234.688V12.6641V2.66406H227.898V12.6641ZM234.688 12.6641H224.688V16.2734H234.688H244.688V12.6641H234.688ZM234.688 16.2734V26.2734H240.66V16.2734V6.27344L234.688 6.27344V16.2734ZM240.66 16.2734H250.66V10.0859H240.66L230.66 10.0859V16.2734H240.66ZM240.66 10.0859V20.0859H247.535V10.0859V0.0859375L240.66 0.0859375V10.0859ZM248.352 43.6875H238.352V49.1875H248.352H258.352V43.6875H248.352ZM248.352 49.1875V39.1875H220.594V49.1875V59.1875H248.352V49.1875ZM220.594 49.1875H230.594V36.3828H220.594H210.594V49.1875H220.594ZM220.594 36.3828V46.3828H227.598V36.3828V26.3828H220.594V36.3828ZM227.598 36.3828H217.598V43.6875H227.598H237.598V36.3828H227.598ZM227.598 43.6875V53.6875H248.352V43.6875V33.6875H227.598V43.6875ZM222.141 28.0469V38.0469H227.898V28.0469V18.0469H222.141V28.0469ZM227.898 28.0469H237.898V23.3203H227.898H217.898V28.0469H227.898ZM227.898 23.3203V13.3203H222.141V23.3203V33.3203H227.898V23.3203ZM222.141 23.3203H212.141V28.0469H222.141H232.141V23.3203H222.141ZM234.688 24.7812V34.7812H240.66V24.7812V14.7812H234.688V24.7812ZM240.66 24.7812H250.66V21.7734H240.66H230.66V24.7812H240.66ZM240.66 21.7734V11.7734L234.688 11.7734V21.7734V31.7734H240.66V21.7734ZM234.688 21.7734H224.688V24.7812H234.688H244.688V21.7734H234.688ZM283.457 10H293.457C293.457 4.47715 288.98 0 283.457 0V10ZM283.457 25.082H273.457C273.457 30.6049 277.934 35.082 283.457 35.082V25.082ZM288.828 25.082H298.828C298.828 19.5592 294.351 15.082 288.828 15.082V25.082ZM288.828 30.7109V40.7109C294.351 40.7109 298.828 36.2338 298.828 30.7109H288.828ZM283.457 30.7109V20.7109C277.934 20.7109 273.457 25.1881 273.457 30.7109H283.457ZM283.457 49.7461V59.7461C288.98 59.7461 293.457 55.2689 293.457 49.7461H283.457ZM276.625 49.7461H266.625C266.625 55.2689 271.102 59.7461 276.625 59.7461V49.7461ZM276.625 10V0C271.102 0 266.625 4.47715 266.625 10H276.625ZM274.691 15.6719H284.691C284.691 10.149 280.214 5.67187 274.691 5.67187V15.6719ZM274.691 21.1289V31.1289C280.214 31.1289 284.691 26.6518 284.691 21.1289H274.691ZM251.531 21.1289H241.531C241.531 26.6518 246.008 31.1289 251.531 31.1289V21.1289ZM251.531 15.6719V5.67187C246.008 5.67187 241.531 10.149 241.531 15.6719H251.531ZM259.738 15.6719V25.6719C265.261 25.6719 269.738 21.1947 269.738 15.6719H259.738ZM259.738 10.7305V0.730469C254.215 0.730469 249.738 5.20762 249.738 10.7305H259.738ZM266.613 10.7305H276.613C276.613 5.20762 272.136 0.730469 266.613 0.730469V10.7305ZM266.613 15.6719H256.613C256.613 21.1947 261.09 25.6719 266.613 25.6719V15.6719ZM259.352 32.3437L269.35 32.4976C269.352 32.3926 269.352 32.2875 269.35 32.1825L259.352 32.3437ZM283.457 10H273.457V25.082H283.457H293.457V10H283.457ZM283.457 25.082V35.082H288.828V25.082V15.082H283.457V25.082ZM288.828 25.082H278.828V30.7109H288.828H298.828V25.082H288.828ZM288.828 30.7109V20.7109H283.457V30.7109V40.7109H288.828V30.7109ZM283.457 30.7109H273.457V49.7461H283.457H293.457V30.7109H283.457ZM283.457 49.7461V39.7461H276.625V49.7461V59.7461H283.457V49.7461ZM276.625 49.7461H286.625V10H276.625H266.625V49.7461H276.625ZM276.625 10V20H283.457V10V0L276.625 0V10ZM274.691 15.6719H264.691V21.1289H274.691H284.691V15.6719H274.691ZM274.691 21.1289V11.1289H251.531V21.1289V31.1289H274.691V21.1289ZM251.531 21.1289H261.531V15.6719H251.531H241.531V21.1289H251.531ZM251.531 15.6719V25.6719H259.738V15.6719V5.67187H251.531V15.6719ZM259.738 15.6719H269.738V10.7305H259.738H249.738V15.6719H259.738ZM259.738 10.7305V20.7305H266.613V10.7305V0.730469H259.738V10.7305ZM266.613 10.7305H256.613V15.6719H266.613H276.613V10.7305H266.613ZM266.613 15.6719V25.6719H274.691V15.6719V5.67187H266.613V15.6719ZM263.176 22.6758V32.6758C263.502 32.6758 263.7 32.7311 263.789 32.7641C263.878 32.7974 263.871 32.8128 263.815 32.7608C263.755 32.7055 263.679 32.6106 263.624 32.4862C263.567 32.3569 263.574 32.29 263.574 32.3437H273.574H283.574C283.574 20.4166 273.777 12.6758 263.176 12.6758V22.6758ZM273.574 32.3437H263.574C263.574 32.4188 263.563 32.3657 263.617 32.2435C263.668 32.1256 263.742 32.0317 263.803 31.9749C263.861 31.9214 263.871 31.9351 263.784 31.9673C263.699 31.9994 263.502 32.0547 263.176 32.0547V42.0547V52.0547C273.807 52.0547 283.574 44.2857 283.574 32.3437H273.574ZM263.176 42.0547V32.0547C262.792 32.0547 262.57 31.9911 262.482 31.9582C262.394 31.9257 262.416 31.9166 262.489 31.9846C262.566 32.056 262.646 32.1625 262.698 32.2831C262.751 32.4057 262.734 32.4461 262.734 32.3437H252.734H242.734C242.734 44.2597 252.387 52.0547 263.176 52.0547V42.0547ZM252.734 32.3437H262.734C262.734 32.2625 262.747 32.3167 262.69 32.4465C262.635 32.5737 262.553 32.6813 262.478 32.751C262.405 32.8175 262.386 32.8068 262.477 32.7732C262.569 32.7394 262.793 32.6758 263.176 32.6758V22.6758V12.6758C252.418 12.6758 242.734 20.4426 242.734 32.3437H252.734ZM263.176 28.2187V18.2187C259.862 18.2187 256.141 19.3418 253.257 22.2942C250.352 25.2668 249.297 29.0654 249.353 32.505L259.352 32.3437L269.35 32.1825C269.363 32.958 269.103 34.6941 267.563 36.2703C266.043 37.8262 264.255 38.2187 263.176 38.2187V28.2187ZM259.352 32.3437L249.353 32.1899C249.301 35.5736 250.289 39.4751 253.339 42.5247C256.34 45.5265 260.109 46.4687 263.176 46.4687V36.4687V26.4687C264.008 26.4687 265.843 26.745 267.481 28.3825C269.166 30.0678 269.359 31.9069 269.35 32.4976L259.352 32.3437ZM263.176 36.4687V46.4687C266.289 46.4687 270.046 45.4854 273.015 42.4683C275.988 39.448 276.957 35.6263 276.957 32.3437H266.957H256.957C256.957 31.8542 257.131 30.095 258.761 28.4389C260.388 26.7861 262.254 26.4687 263.176 26.4687V36.4687ZM266.957 32.3437H276.957C276.957 29.0131 275.928 25.2955 273.097 22.3511C270.248 19.3886 266.54 18.2187 263.176 18.2187V28.2187V38.2187C262.003 38.2187 260.186 37.7793 258.68 36.2133C257.192 34.6654 256.957 33.0104 256.957 32.3437H266.957ZM322.129 20.0977H332.129C332.129 14.5748 327.652 10.0977 322.129 10.0977V20.0977ZM322.129 25.4258V35.4258C327.652 35.4258 332.129 30.9486 332.129 25.4258H322.129ZM294.027 25.4258H284.027C284.027 30.9486 288.504 35.4258 294.027 35.4258V25.4258ZM294.027 11.418V1.41797C288.504 1.41797 284.027 5.89512 284.027 11.418H294.027ZM300.902 11.418L310.902 11.418C310.902 5.89512 306.425 1.41797 300.902 1.41797V11.418ZM300.902 20.0977H290.902C290.902 25.6205 295.379 30.0977 300.902 30.0977V20.0977ZM326.039 28.9492H336.039C336.039 23.4264 331.562 18.9492 326.039 18.9492V28.9492ZM326.039 34.2773V44.2773C331.562 44.2773 336.039 39.8002 336.039 34.2773H326.039ZM289.773 34.2773H279.773C279.773 39.8002 284.251 44.2773 289.773 44.2773V34.2773ZM289.773 28.9492V18.9492C284.251 18.9492 279.773 23.4264 279.773 28.9492H289.773ZM322.387 43.4727H332.387C332.387 37.9498 327.91 33.4727 322.387 33.4727V43.4727ZM322.387 48.9727V58.9727C327.91 58.9727 332.387 54.4955 332.387 48.9727H322.387ZM293.555 48.9727H283.555C283.555 54.4955 288.032 58.9727 293.555 58.9727V48.9727ZM293.555 37.0273V27.0273C288.032 27.0273 283.555 31.5045 283.555 37.0273H293.555ZM300.516 37.0273H310.516C310.516 31.5045 306.038 27.0273 300.516 27.0273V37.0273ZM300.516 43.4727H290.516C290.516 48.9955 294.993 53.4727 300.516 53.4727V43.4727ZM322.129 20.0977H312.129V25.4258H322.129H332.129V20.0977H322.129ZM322.129 25.4258V15.4258H294.027V25.4258V35.4258H322.129V25.4258ZM294.027 25.4258H304.027V11.418L294.027 11.418H284.027V25.4258H294.027ZM294.027 11.418V21.418H300.902V11.418V1.41797H294.027V11.418ZM300.902 11.418H290.902V20.0977H300.902H310.902V11.418L300.902 11.418ZM300.902 20.0977V30.0977H322.129V20.0977V10.0977L300.902 10.0977V20.0977ZM326.039 28.9492H316.039V34.2773H326.039H336.039V28.9492H326.039ZM326.039 34.2773V24.2773H289.773V34.2773V44.2773H326.039V34.2773ZM289.773 34.2773H299.773V28.9492H289.773H279.773V34.2773H289.773ZM289.773 28.9492V38.9492H326.039V28.9492V18.9492H289.773V28.9492ZM322.387 43.4727H312.387V48.9727H322.387H332.387V43.4727H322.387ZM322.387 48.9727V38.9727H293.555V48.9727V58.9727H322.387V48.9727ZM293.555 48.9727H303.555V37.0273H293.555H283.555V48.9727H293.555ZM293.555 37.0273V47.0273H300.516V37.0273V27.0273H293.555V37.0273ZM300.516 37.0273H290.516V43.4727H300.516H310.516V37.0273H300.516ZM300.516 43.4727V53.4727H322.387V43.4727V33.4727H300.516V43.4727Z" fill="white" mask="url(#path-1-outside-1_6526_5702)"/>
</g>
<defs>
<filter id="filter0_d_6526_5702" x="0" y="0" width="340.039" height="67.832" filterUnits="userSpaceOnUse" color-interpolation-filters="sRGB">
<feFlood flood-opacity="0" result="BackgroundImageFix"/>
<feColorMatrix in="SourceAlpha" type="matrix" values="0 0 0 0 0 0 0 0 0 0 0 0 0 0 0 0 0 0 127 0" result="hardAlpha"/>
<feOffset dy="4"/>
<feGaussianBlur stdDeviation="2"/>
<feComposite in2="hardAlpha" operator="out"/>
<feColorMatrix type="matrix" values="0 0 0 0 0 0 0 0 0 0 0 0 0 0 0 0 0 0 0.07 0"/>
<feBlend mode="normal" in2="BackgroundImageFix" result="effect1_dropShadow_6526_5702"/>
<feBlend mode="normal" in="SourceGraphic" in2="effect1_dropShadow_6526_5702" result="shape"/>
</filter>
</defs>
</svg>
