<svg width="312" height="68" viewBox="0 0 312 68" fill="none" xmlns="http://www.w3.org/2000/svg">
<g filter="url(#filter0_d_6524_1725)">
<mask id="path-1-outside-1_6524_1725" maskUnits="userSpaceOnUse" x="3.88281" y="-0.507813" width="304" height="61" fill="black">
<rect fill="white" x="3.88281" y="-0.507813" width="304" height="61"/>
<path d="M26.6328 11.5039C32.7773 11.5039 37.332 15.0703 37.332 20.1836C37.332 25.168 32.7773 28.8203 26.6328 28.7773C20.5312 28.8203 16.0195 25.168 16.0625 20.1836C16.0195 15.0703 20.5312 11.5039 26.6328 11.5039ZM26.6328 17.0039C24.3125 17.0039 22.6797 17.9922 22.6797 20.1836C22.6797 22.2461 24.3125 23.2344 26.6328 23.1914C29.125 23.2344 30.8008 22.2461 30.8008 20.1836C30.8008 17.9922 29.125 17.0039 26.6328 17.0039ZM47.7305 10.0859V49.7031H40.8555V10.0859L47.7305 10.0859ZM14 30.582C20.7461 30.5391 30.5859 30.4102 38.793 29.1641L39.2656 34.1484C36.3438 34.793 33.3359 35.2012 30.3711 35.4805V48.5859H23.4531V35.9102C20.3164 36.0391 17.3945 36.082 14.8164 36.125L14 30.582ZM85.543 10V49.7461H78.5391V10H85.543ZM73.5117 14.082C73.5117 26.543 69.9883 36.4688 55.25 43.3438L51.7266 37.9297C61.6523 33.2031 65.627 27.7461 66.5078 19.4531H54.0039V14.082H73.5117ZM134.012 10V49.7461H127.523V30.4102H124.945V47.9414H118.672V10.6016H124.945V24.9531H127.523V10H134.012ZM115.105 14.4687V19.9687H107.242V35.5664C110.293 35.4805 113.344 35.2871 116.695 34.707L117.168 40.25C112.27 41.1523 107.93 41.2812 103.246 41.2812H100.324V14.4687H115.105ZM171.438 10V49.875H164.477V30.3242H158.332V24.8672H164.477V10H171.438ZM153.047 22.2031C153.047 27.3594 155.367 33.7617 162.242 36.7266L158.633 41.9258C154.25 40.1855 151.371 36.8125 149.652 32.7734C147.977 37.0918 145.098 40.7227 140.629 42.5273L137.062 37.2852C143.852 34.3203 146.129 27.5742 146.172 22.2031V21.6875H138.523V16.2305H146.215V11.0312H153.09V16.2305H160.566V21.6875H153.047V22.2031ZM210.152 10V49.7461H203.578V10H210.152ZM201.688 10.4727V48.0273H195.199V29.6367H193.266C192.686 37.457 189.355 42.0977 184.457 42.0977C179.129 42.0977 175.691 36.5117 175.734 27.2734C175.691 18.1211 179.129 12.5352 184.457 12.5352C189.205 12.5352 192.471 16.8965 193.223 24.2227H195.199V10.4727H201.688ZM184.457 19.0664C182.824 19.0664 182.008 21.4297 182.051 27.2734C182.008 33.1602 182.824 35.4805 184.457 35.4805C186.133 35.4805 187.035 33.1602 187.035 27.2734C187.035 21.4297 186.133 19.0664 184.457 19.0664ZM254.883 10V18.7656H259.824V24.3086H254.883V32.6016H247.965V10H254.883ZM243.668 12.4492C243.668 23.3633 237.352 30.7539 225.32 33.9766L222.613 28.4336C230.777 26.3926 235.117 22.5254 236.105 17.9062H224.59V12.4492L243.668 12.4492ZM241.605 33.0742C249.812 33.0742 255.27 36.3828 255.312 41.4531C255.27 46.6523 249.812 49.875 241.605 49.875C233.484 49.875 227.855 46.6523 227.898 41.4531C227.855 36.3828 233.484 33.0742 241.605 33.0742ZM241.605 38.4023C237.18 38.3594 234.73 39.3906 234.73 41.4531C234.73 43.5156 237.18 44.5898 241.605 44.5469C246.031 44.5898 248.48 43.5156 248.48 41.4531C248.48 39.3906 246.031 38.3594 241.605 38.4023ZM292.91 10.0859V21.6875H297.852V27.2734H292.91V39.6914H285.992V10.0859H292.91ZM284.574 13.8242V19.1523H261.07V13.8242H269.363V10H276.281V13.8242H284.574ZM272.801 20.0547C278.602 20.0547 282.727 23.2773 282.727 27.918C282.727 32.5586 278.602 35.6953 272.801 35.6523C266.957 35.6953 262.789 32.5586 262.789 27.918C262.789 23.2773 266.957 20.0547 272.801 20.0547ZM272.801 25.2539C270.824 25.2969 269.535 26.1133 269.535 27.918C269.535 29.7227 270.824 30.4961 272.801 30.4961C274.82 30.4961 276.195 29.7227 276.195 27.918C276.195 26.1133 274.82 25.2969 272.801 25.2539ZM294.07 43.6875V49.1875H266.57V37.457H273.488V43.6875H294.07Z"/>
</mask>
<path d="M26.6328 11.5039C32.7773 11.5039 37.332 15.0703 37.332 20.1836C37.332 25.168 32.7773 28.8203 26.6328 28.7773C20.5312 28.8203 16.0195 25.168 16.0625 20.1836C16.0195 15.0703 20.5312 11.5039 26.6328 11.5039ZM26.6328 17.0039C24.3125 17.0039 22.6797 17.9922 22.6797 20.1836C22.6797 22.2461 24.3125 23.2344 26.6328 23.1914C29.125 23.2344 30.8008 22.2461 30.8008 20.1836C30.8008 17.9922 29.125 17.0039 26.6328 17.0039ZM47.7305 10.0859V49.7031H40.8555V10.0859L47.7305 10.0859ZM14 30.582C20.7461 30.5391 30.5859 30.4102 38.793 29.1641L39.2656 34.1484C36.3438 34.793 33.3359 35.2012 30.3711 35.4805V48.5859H23.4531V35.9102C20.3164 36.0391 17.3945 36.082 14.8164 36.125L14 30.582ZM85.543 10V49.7461H78.5391V10H85.543ZM73.5117 14.082C73.5117 26.543 69.9883 36.4688 55.25 43.3438L51.7266 37.9297C61.6523 33.2031 65.627 27.7461 66.5078 19.4531H54.0039V14.082H73.5117ZM134.012 10V49.7461H127.523V30.4102H124.945V47.9414H118.672V10.6016H124.945V24.9531H127.523V10H134.012ZM115.105 14.4687V19.9687H107.242V35.5664C110.293 35.4805 113.344 35.2871 116.695 34.707L117.168 40.25C112.27 41.1523 107.93 41.2812 103.246 41.2812H100.324V14.4687H115.105ZM171.438 10V49.875H164.477V30.3242H158.332V24.8672H164.477V10H171.438ZM153.047 22.2031C153.047 27.3594 155.367 33.7617 162.242 36.7266L158.633 41.9258C154.25 40.1855 151.371 36.8125 149.652 32.7734C147.977 37.0918 145.098 40.7227 140.629 42.5273L137.062 37.2852C143.852 34.3203 146.129 27.5742 146.172 22.2031V21.6875H138.523V16.2305H146.215V11.0312H153.09V16.2305H160.566V21.6875H153.047V22.2031ZM210.152 10V49.7461H203.578V10H210.152ZM201.688 10.4727V48.0273H195.199V29.6367H193.266C192.686 37.457 189.355 42.0977 184.457 42.0977C179.129 42.0977 175.691 36.5117 175.734 27.2734C175.691 18.1211 179.129 12.5352 184.457 12.5352C189.205 12.5352 192.471 16.8965 193.223 24.2227H195.199V10.4727H201.688ZM184.457 19.0664C182.824 19.0664 182.008 21.4297 182.051 27.2734C182.008 33.1602 182.824 35.4805 184.457 35.4805C186.133 35.4805 187.035 33.1602 187.035 27.2734C187.035 21.4297 186.133 19.0664 184.457 19.0664ZM254.883 10V18.7656H259.824V24.3086H254.883V32.6016H247.965V10H254.883ZM243.668 12.4492C243.668 23.3633 237.352 30.7539 225.32 33.9766L222.613 28.4336C230.777 26.3926 235.117 22.5254 236.105 17.9062H224.59V12.4492L243.668 12.4492ZM241.605 33.0742C249.812 33.0742 255.27 36.3828 255.312 41.4531C255.27 46.6523 249.812 49.875 241.605 49.875C233.484 49.875 227.855 46.6523 227.898 41.4531C227.855 36.3828 233.484 33.0742 241.605 33.0742ZM241.605 38.4023C237.18 38.3594 234.73 39.3906 234.73 41.4531C234.73 43.5156 237.18 44.5898 241.605 44.5469C246.031 44.5898 248.48 43.5156 248.48 41.4531C248.48 39.3906 246.031 38.3594 241.605 38.4023ZM292.91 10.0859V21.6875H297.852V27.2734H292.91V39.6914H285.992V10.0859H292.91ZM284.574 13.8242V19.1523H261.07V13.8242H269.363V10H276.281V13.8242H284.574ZM272.801 20.0547C278.602 20.0547 282.727 23.2773 282.727 27.918C282.727 32.5586 278.602 35.6953 272.801 35.6523C266.957 35.6953 262.789 32.5586 262.789 27.918C262.789 23.2773 266.957 20.0547 272.801 20.0547ZM272.801 25.2539C270.824 25.2969 269.535 26.1133 269.535 27.918C269.535 29.7227 270.824 30.4961 272.801 30.4961C274.82 30.4961 276.195 29.7227 276.195 27.918C276.195 26.1133 274.82 25.2969 272.801 25.2539ZM294.07 43.6875V49.1875H266.57V37.457H273.488V43.6875H294.07Z" fill="#11DCA9"/>
<path d="M26.6328 28.7773L26.7027 18.7776C26.656 18.7773 26.6092 18.7773 26.5624 18.7776L26.6328 28.7773ZM16.0625 20.1836L26.0621 20.2698C26.0626 20.2131 26.0626 20.1563 26.0621 20.0996L16.0625 20.1836ZM26.6328 23.1914L26.8052 13.1929C26.686 13.1908 26.5668 13.1909 26.4477 13.1931L26.6328 23.1914ZM47.7305 10.0859H57.7305C57.7305 4.56309 53.2533 0.0859375 47.7305 0.0859375V10.0859ZM47.7305 49.7031V59.7031C53.2533 59.7031 57.7305 55.226 57.7305 49.7031H47.7305ZM40.8555 49.7031H30.8555C30.8555 55.226 35.3326 59.7031 40.8555 59.7031V49.7031ZM40.8555 10.0859V0.0859375C35.3326 0.0859375 30.8555 4.56309 30.8555 10.0859H40.8555ZM14 30.582L13.9363 20.5822C11.041 20.6007 8.2958 21.8731 6.41049 24.0706C4.52518 26.268 3.68484 29.1747 4.10673 32.0392L14 30.582ZM38.793 29.1641L48.7483 28.22C48.4887 25.4827 47.1135 22.9731 44.9461 21.2812C42.7787 19.5894 40.0103 18.8646 37.2918 19.2774L38.793 29.1641ZM39.2656 34.1484L41.4197 43.9137C46.3512 42.8258 49.6977 38.2319 49.221 33.2044L39.2656 34.1484ZM30.3711 35.4805L29.4332 25.5245C24.2964 26.0084 20.3711 30.321 20.3711 35.4805H30.3711ZM30.3711 48.5859V58.5859C35.8939 58.5859 40.3711 54.1088 40.3711 48.5859H30.3711ZM23.4531 48.5859H13.4531C13.4531 54.1088 17.9303 58.5859 23.4531 58.5859V48.5859ZM23.4531 35.9102H33.4531C33.4531 33.1868 32.3424 30.5812 30.3775 28.6954C28.4126 26.8096 25.7636 25.8068 23.0425 25.9186L23.4531 35.9102ZM14.8164 36.125L4.92314 37.5821C5.65512 42.5519 9.96038 46.2073 14.983 46.1236L14.8164 36.125ZM26.6328 11.5039V21.5039C27.8361 21.5039 28.1886 21.8545 28.0263 21.7242C27.9314 21.6481 27.7354 21.4552 27.5676 21.1172C27.3933 20.7663 27.332 20.4231 27.332 20.1836H37.332H47.332C47.332 7.60908 36.1382 1.50391 26.6328 1.50391V11.5039ZM37.332 20.1836H27.332C27.332 19.8732 27.4107 19.5007 27.5858 19.1516C27.7538 18.8168 27.9434 18.6343 28.0263 18.5678C28.1721 18.4507 27.8294 18.7855 26.7027 18.7776L26.6328 28.7773L26.5629 38.7771C36.1615 38.8442 47.332 32.6054 47.332 20.1836H37.332ZM26.6328 28.7773L26.5624 18.7776C25.4715 18.7853 25.1704 18.4593 25.3469 18.6026C25.4449 18.6821 25.6428 18.8788 25.8132 19.2256C25.9905 19.5864 26.0648 19.9637 26.0621 20.2698L16.0625 20.1836L6.06287 20.0974C5.9556 32.5408 17.0958 38.8448 26.7032 38.7771L26.6328 28.7773ZM16.0625 20.1836L26.0621 20.0996C26.0641 20.3343 26.007 20.6816 25.831 21.0435C25.661 21.3931 25.4569 21.6001 25.3469 21.6894C25.1538 21.8462 25.4647 21.5039 26.6328 21.5039V11.5039V1.50391C17.1178 1.50391 5.95702 7.67385 6.06285 20.2676L16.0625 20.1836ZM26.6328 17.0039V7.00391C24.265 7.00391 20.8617 7.47709 17.8059 9.7572C14.3026 12.3712 12.6797 16.2917 12.6797 20.1836H22.6797H32.6797C32.6797 20.8888 32.5437 21.91 32.0131 23.0334C31.4702 24.1827 30.6648 25.1164 29.7664 25.7867C28.1071 27.0249 26.6804 27.0039 26.6328 27.0039V17.0039ZM22.6797 20.1836H12.6797C12.6797 24.217 14.4674 28.106 17.9678 30.6102C21.021 32.7943 24.3973 33.2345 26.818 33.1897L26.6328 23.1914L26.4477 13.1931C26.548 13.1913 27.9477 13.1588 29.6044 14.3439C30.5005 14.985 31.3448 15.9062 31.931 17.0891C32.5098 18.2569 32.6797 19.3597 32.6797 20.1836H22.6797ZM26.6328 23.1914L26.4604 33.1899C28.84 33.2309 32.2147 32.8387 35.296 30.7316C38.8919 28.2726 40.8008 24.3434 40.8008 20.1836H30.8008H20.8008C20.8008 19.3211 20.9841 18.1702 21.6031 16.964C22.2286 15.7452 23.1132 14.8335 24.0067 14.2225C24.8574 13.6408 25.6141 13.3963 26.0558 13.2929C26.5 13.1889 26.7709 13.1923 26.8052 13.1929L26.6328 23.1914ZM30.8008 20.1836H40.8008C40.8008 16.1729 39.0677 12.2051 35.4581 9.6306C32.3694 7.42764 28.9624 7.00391 26.6328 7.00391V17.0039V27.0039C26.6197 27.0039 26.3543 27.005 25.9101 26.894C25.4651 26.7827 24.6981 26.522 23.8446 25.9134C22.9448 25.2715 22.0981 24.3441 21.5169 23.156C20.9481 21.9929 20.8008 20.9244 20.8008 20.1836H30.8008ZM47.7305 10.0859L37.7305 10.0859V49.7031H47.7305H57.7305V10.0859H47.7305ZM47.7305 49.7031V39.7031H40.8555V49.7031V59.7031H47.7305V49.7031ZM40.8555 49.7031H50.8555V10.0859L40.8555 10.0859H30.8555V49.7031H40.8555ZM40.8555 10.0859V20.0859H47.7305V10.0859V0.0859375H40.8555V10.0859ZM14 30.582L14.0637 40.5818C20.7319 40.5394 31.2684 40.4211 40.2941 39.0508L38.793 29.1641L37.2918 19.2774C29.9034 20.3992 20.7603 20.5388 13.9363 20.5822L14 30.582ZM38.793 29.1641L28.8376 30.1081L29.3103 35.0925L39.2656 34.1484L49.221 33.2044L48.7483 28.22L38.793 29.1641ZM39.2656 34.1484L37.1115 24.3832C34.7143 24.912 32.1381 25.2697 29.4332 25.5245L30.3711 35.4805L31.309 45.4364C34.5337 45.1326 37.9732 44.6739 41.4197 43.9137L39.2656 34.1484ZM30.3711 35.4805H20.3711V48.5859H30.3711H40.3711V35.4805H30.3711ZM30.3711 48.5859V38.5859H23.4531V48.5859V58.5859H30.3711V48.5859ZM23.4531 48.5859H33.4531V35.9102H23.4531H13.4531V48.5859H23.4531ZM23.4531 35.9102L23.0425 25.9186C20.051 26.0415 17.2577 26.0829 14.6498 26.1264L14.8164 36.125L14.983 46.1236C17.5314 46.0811 20.5818 46.0366 23.8637 45.9017L23.4531 35.9102ZM14.8164 36.125L24.7097 34.6679L23.8933 29.1249L14 30.582L4.10673 32.0392L4.92314 37.5821L14.8164 36.125ZM85.543 10H95.543C95.543 4.47715 91.0658 0 85.543 0V10ZM85.543 49.7461V59.7461C91.0658 59.7461 95.543 55.2689 95.543 49.7461H85.543ZM78.5391 49.7461H68.5391C68.5391 55.2689 73.0162 59.7461 78.5391 59.7461V49.7461ZM78.5391 10V0C73.0162 0 68.5391 4.47715 68.5391 10H78.5391ZM73.5117 14.082L83.5117 14.082C83.5117 8.55918 79.0346 4.08203 73.5117 4.08203V14.082ZM55.25 43.3438L46.8686 48.7983C49.586 52.9739 54.9625 54.5123 59.4774 52.4063L55.25 43.3438ZM51.7266 37.9297L47.4272 28.9011C44.8247 30.1404 42.8835 32.4424 42.1016 35.2169C41.3196 37.9913 41.7729 40.9683 43.3452 43.3842L51.7266 37.9297ZM66.5078 19.4531L76.4519 20.5094C76.7514 17.6892 75.8394 14.8745 73.9429 12.7659C72.0464 10.6573 69.3438 9.45312 66.5078 9.45312V19.4531ZM54.0039 19.4531H44.0039C44.0039 24.976 48.4811 29.4531 54.0039 29.4531V19.4531ZM54.0039 14.082V4.08203C48.4811 4.08203 44.0039 8.55918 44.0039 14.082H54.0039ZM85.543 10H75.543V49.7461H85.543H95.543V10H85.543ZM85.543 49.7461V39.7461H78.5391V49.7461V59.7461H85.543V49.7461ZM78.5391 49.7461H88.5391V10H78.5391H68.5391V49.7461H78.5391ZM78.5391 10V20H85.543V10V0L78.5391 0V10ZM73.5117 14.082H63.5117C63.5117 19.4566 62.7334 23.132 61.1675 25.9487C59.6851 28.6154 56.9309 31.5252 51.0226 34.2812L55.25 43.3438L59.4774 52.4063C68.3074 48.2873 74.6841 42.7967 78.6479 35.6665C82.5283 28.6864 83.5117 21.1684 83.5117 14.082L73.5117 14.082ZM55.25 43.3438L63.6314 37.8892L60.108 32.4751L51.7266 37.9297L43.3452 43.3842L46.8686 48.7983L55.25 43.3438ZM51.7266 37.9297L56.0259 46.9583C61.8055 44.2061 66.7528 40.8257 70.3801 36.197C74.1178 31.4275 75.8582 26.0982 76.4519 20.5094L66.5078 19.4531L56.5638 18.3969C56.2765 21.101 55.5892 22.6468 54.638 23.8606C53.5763 25.2154 51.5734 26.9267 47.4272 28.9011L51.7266 37.9297ZM66.5078 19.4531V9.45312H54.0039V19.4531V29.4531H66.5078V19.4531ZM54.0039 19.4531H64.0039V14.082H54.0039H44.0039V19.4531H54.0039ZM54.0039 14.082V24.082H73.5117V14.082V4.08203L54.0039 4.08203V14.082ZM134.012 10H144.012C144.012 4.47715 139.535 0 134.012 0V10ZM134.012 49.7461V59.7461C139.535 59.7461 144.012 55.2689 144.012 49.7461L134.012 49.7461ZM127.523 49.7461H117.523C117.523 55.2689 122.001 59.7461 127.523 59.7461V49.7461ZM127.523 30.4102H137.523C137.523 24.8873 133.046 20.4102 127.523 20.4102V30.4102ZM124.945 30.4102V20.4102C119.422 20.4102 114.945 24.8873 114.945 30.4102H124.945ZM124.945 47.9414V57.9414C130.468 57.9414 134.945 53.4643 134.945 47.9414H124.945ZM118.672 47.9414H108.672C108.672 53.4643 113.149 57.9414 118.672 57.9414V47.9414ZM118.672 10.6016V0.601562C113.149 0.601562 108.672 5.07872 108.672 10.6016L118.672 10.6016ZM124.945 10.6016H134.945C134.945 5.07872 130.468 0.601562 124.945 0.601562V10.6016ZM124.945 24.9531H114.945C114.945 30.476 119.422 34.9531 124.945 34.9531V24.9531ZM127.523 24.9531V34.9531C133.046 34.9531 137.523 30.476 137.523 24.9531H127.523ZM127.523 10V0C122.001 0 117.523 4.47715 117.523 10H127.523ZM115.105 14.4687H125.105C125.105 8.9459 120.628 4.46875 115.105 4.46875V14.4687ZM115.105 19.9687V29.9688C120.628 29.9688 125.105 25.4916 125.105 19.9687H115.105ZM107.242 19.9687V9.96875C101.719 9.96875 97.2422 14.4459 97.2422 19.9687H107.242ZM107.242 35.5664H97.2422C97.2422 38.2674 98.3348 40.8535 100.271 42.7363C102.208 44.6191 104.824 45.6385 107.524 45.5624L107.242 35.5664ZM116.695 34.707L126.659 33.8574C126.421 31.0655 125.023 28.5015 122.804 26.7898C120.586 25.0781 117.751 24.3757 114.99 24.8535L116.695 34.707ZM117.168 40.25L118.98 50.0845C124.042 49.152 127.569 44.5291 127.132 39.4004L117.168 40.25ZM100.324 41.2812H90.3242C90.3242 46.8041 94.8014 51.2812 100.324 51.2812V41.2812ZM100.324 14.4687V4.46875C94.8014 4.46875 90.3242 8.9459 90.3242 14.4687H100.324ZM134.012 10H124.012V49.7461H134.012L144.012 49.7461V10H134.012ZM134.012 49.7461V39.7461H127.523V49.7461V59.7461H134.012V49.7461ZM127.523 49.7461H137.523V30.4102H127.523H117.523V49.7461H127.523ZM127.523 30.4102V20.4102H124.945V30.4102V40.4102H127.523V30.4102ZM124.945 30.4102H114.945V47.9414H124.945H134.945V30.4102H124.945ZM124.945 47.9414V37.9414H118.672V47.9414V57.9414H124.945V47.9414ZM118.672 47.9414H128.672V10.6016H118.672L108.672 10.6016V47.9414H118.672ZM118.672 10.6016V20.6016H124.945V10.6016V0.601562L118.672 0.601562V10.6016ZM124.945 10.6016H114.945V24.9531H124.945H134.945V10.6016H124.945ZM124.945 24.9531V34.9531H127.523V24.9531V14.9531H124.945V24.9531ZM127.523 24.9531H137.523V10H127.523H117.523V24.9531H127.523ZM127.523 10V20H134.012V10V0L127.523 0V10ZM115.105 14.4687H105.105V19.9687H115.105H125.105V14.4687H115.105ZM115.105 19.9687V9.96875L107.242 9.96875V19.9687V29.9688H115.105V19.9687ZM107.242 19.9687H97.2422V35.5664H107.242H117.242V19.9687H107.242ZM107.242 35.5664L107.524 45.5624C110.818 45.4696 114.394 45.2541 118.401 44.5605L116.695 34.707L114.99 24.8535C112.294 25.3201 109.768 25.4913 106.961 25.5704L107.242 35.5664ZM116.695 34.707L106.731 35.5567L107.204 41.0996L117.168 40.25L127.132 39.4004L126.659 33.8574L116.695 34.707ZM117.168 40.25L115.356 30.4155C111.364 31.1508 107.748 31.2812 103.246 31.2812V41.2812V51.2812C108.111 51.2812 113.175 51.1539 118.98 50.0845L117.168 40.25ZM103.246 41.2812V31.2812H100.324V41.2812V51.2812H103.246V41.2812ZM100.324 41.2812H110.324V14.4687H100.324H90.3242V41.2812H100.324ZM100.324 14.4687V24.4687H115.105V14.4687V4.46875H100.324V14.4687ZM171.438 10L181.438 10C181.438 4.47715 176.96 0 171.438 0V10ZM171.438 49.875V59.875C176.96 59.875 181.438 55.3978 181.438 49.875H171.438ZM164.477 49.875H154.477C154.477 55.3978 158.954 59.875 164.477 59.875V49.875ZM164.477 30.3242H174.477C174.477 24.8014 169.999 20.3242 164.477 20.3242V30.3242ZM158.332 30.3242H148.332C148.332 35.8471 152.809 40.3242 158.332 40.3242V30.3242ZM158.332 24.8672V14.8672C152.809 14.8672 148.332 19.3443 148.332 24.8672H158.332ZM164.477 24.8672V34.8672C169.999 34.8672 174.477 30.39 174.477 24.8672H164.477ZM164.477 10V0C158.954 0 154.477 4.47715 154.477 10H164.477ZM162.242 36.7266L170.457 42.4292C172.168 39.9649 172.682 36.8628 171.857 33.9783C171.033 31.0939 168.957 28.732 166.202 27.544L162.242 36.7266ZM158.633 41.9258L154.942 51.2199C159.263 52.9355 164.196 51.4473 166.847 47.6285L158.633 41.9258ZM149.652 32.7734L158.854 28.8579C157.261 25.1146 153.559 22.7093 149.492 22.7747C145.424 22.8401 141.801 25.3631 140.33 29.1557L149.652 32.7734ZM140.629 42.5273L132.361 48.1523C135.008 52.0433 140.01 53.562 144.374 51.7998L140.629 42.5273ZM137.062 37.2852L133.06 28.1209C130.334 29.3117 128.279 31.6548 127.454 34.5137C126.63 37.3725 127.121 40.4501 128.794 42.9101L137.062 37.2852ZM146.172 22.2031L156.172 22.2831C156.172 22.2565 156.172 22.2298 156.172 22.2031H146.172ZM146.172 21.6875H156.172C156.172 16.1647 151.695 11.6875 146.172 11.6875V21.6875ZM138.523 21.6875H128.523C128.523 27.2103 133.001 31.6875 138.523 31.6875V21.6875ZM138.523 16.2305V6.23047C133.001 6.23047 128.523 10.7076 128.523 16.2305H138.523ZM146.215 16.2305V26.2305C151.738 26.2305 156.215 21.7533 156.215 16.2305H146.215ZM146.215 11.0312V1.03125C140.692 1.03125 136.215 5.5084 136.215 11.0312H146.215ZM153.09 11.0312H163.09C163.09 5.5084 158.613 1.03125 153.09 1.03125V11.0312ZM153.09 16.2305H143.09C143.09 21.7533 147.567 26.2305 153.09 26.2305V16.2305ZM160.566 16.2305H170.566C170.566 10.7076 166.089 6.23047 160.566 6.23047V16.2305ZM160.566 21.6875V31.6875C166.089 31.6875 170.566 27.2103 170.566 21.6875H160.566ZM153.047 21.6875V11.6875C147.524 11.6875 143.047 16.1647 143.047 21.6875H153.047ZM171.438 10H161.438V49.875H171.438H181.438V10L171.438 10ZM171.438 49.875V39.875H164.477V49.875V59.875H171.438V49.875ZM164.477 49.875H174.477V30.3242H164.477H154.477V49.875H164.477ZM164.477 30.3242V20.3242H158.332V30.3242V40.3242H164.477V30.3242ZM158.332 30.3242H168.332V24.8672H158.332H148.332V30.3242H158.332ZM158.332 24.8672V34.8672H164.477V24.8672V14.8672H158.332V24.8672ZM164.477 24.8672H174.477V10L164.477 10H154.477V24.8672H164.477ZM164.477 10V20H171.438V10V0L164.477 0V10ZM153.047 22.2031H143.047C143.047 30.0209 146.658 40.896 158.282 45.9091L162.242 36.7266L166.202 27.544C164.933 26.9967 164.265 26.2599 163.827 25.4654C163.322 24.5464 163.047 23.3655 163.047 22.2031H153.047ZM162.242 36.7266L154.028 31.0239L150.418 36.2231L158.633 41.9258L166.847 47.6285L170.457 42.4292L162.242 36.7266ZM158.633 41.9258L162.323 32.6316C160.927 32.0771 159.761 30.9898 158.854 28.8579L149.652 32.7734L140.451 36.689C142.981 42.6352 147.573 48.294 154.942 51.2199L158.633 41.9258ZM149.652 32.7734L140.33 29.1557C139.365 31.6421 138.138 32.7487 136.884 33.2549L140.629 42.5273L144.374 51.7998C152.058 48.6966 156.588 42.5415 158.975 36.3912L149.652 32.7734ZM140.629 42.5273L148.897 36.9024L145.331 31.6602L137.062 37.2852L128.794 42.9101L132.361 48.1523L140.629 42.5273ZM137.062 37.2852L141.065 46.4494C152.845 41.3047 156.111 29.8419 156.172 22.2831L146.172 22.2031L136.172 22.1231C136.161 23.5278 135.844 24.9425 135.281 26.0214C134.785 26.9717 134.122 27.6571 133.06 28.1209L137.062 37.2852ZM146.172 22.2031H156.172V21.6875H146.172H136.172V22.2031H146.172ZM146.172 21.6875V11.6875H138.523V21.6875V31.6875L146.172 31.6875V21.6875ZM138.523 21.6875H148.523V16.2305H138.523H128.523V21.6875H138.523ZM138.523 16.2305V26.2305H146.215V16.2305V6.23047H138.523V16.2305ZM146.215 16.2305H156.215V11.0312H146.215H136.215V16.2305H146.215ZM146.215 11.0312V21.0312H153.09V11.0312V1.03125H146.215V11.0312ZM153.09 11.0312H143.09V16.2305H153.09H163.09V11.0312H153.09ZM153.09 16.2305V26.2305H160.566V16.2305V6.23047H153.09V16.2305ZM160.566 16.2305H150.566V21.6875H160.566H170.566V16.2305H160.566ZM160.566 21.6875V11.6875H153.047V21.6875V31.6875H160.566V21.6875ZM153.047 21.6875H143.047V22.2031H153.047H163.047V21.6875H153.047ZM210.152 10H220.152C220.152 4.47715 215.675 0 210.152 0V10ZM210.152 49.7461V59.7461C215.675 59.7461 220.152 55.2689 220.152 49.7461H210.152ZM203.578 49.7461H193.578C193.578 55.2689 198.055 59.7461 203.578 59.7461V49.7461ZM203.578 10V0C198.055 0 193.578 4.47715 193.578 10H203.578ZM201.688 10.4727H211.688C211.688 4.94981 207.21 0.472656 201.688 0.472656V10.4727ZM201.688 48.0273V58.0273C207.21 58.0273 211.688 53.5502 211.688 48.0273H201.688ZM195.199 48.0273H185.199C185.199 53.5502 189.676 58.0273 195.199 58.0273V48.0273ZM195.199 29.6367H205.199C205.199 24.1139 200.722 19.6367 195.199 19.6367V29.6367ZM193.266 29.6367V19.6367C188.03 19.6367 183.68 23.6755 183.293 28.897L193.266 29.6367ZM175.734 27.2734L185.734 27.3199C185.734 27.2888 185.734 27.2576 185.734 27.2265L175.734 27.2734ZM193.223 24.2227L183.275 25.2437C183.798 30.3444 188.095 34.2227 193.223 34.2227V24.2227ZM195.199 24.2227V34.2227C200.722 34.2227 205.199 29.7455 205.199 24.2227L195.199 24.2227ZM195.199 10.4727V0.472656C189.676 0.472656 185.199 4.94981 185.199 10.4727H195.199ZM182.051 27.2734L192.051 27.3464C192.051 27.2976 192.051 27.2487 192.051 27.1999L182.051 27.2734ZM210.152 10H200.152V49.7461H210.152H220.152V10H210.152ZM210.152 49.7461V39.7461H203.578V49.7461V59.7461H210.152V49.7461ZM203.578 49.7461H213.578V10H203.578H193.578V49.7461H203.578ZM203.578 10V20L210.152 20V10V0H203.578V10ZM201.688 10.4727H191.688V48.0273H201.688H211.688V10.4727H201.688ZM201.688 48.0273V38.0273H195.199V48.0273V58.0273H201.688V48.0273ZM195.199 48.0273H205.199V29.6367H195.199H185.199V48.0273H195.199ZM195.199 29.6367V19.6367H193.266V29.6367V39.6367H195.199V29.6367ZM193.266 29.6367L183.293 28.897C183.194 30.2367 182.99 31.2436 182.772 31.9531C182.553 32.6701 182.354 32.9727 182.326 33.0117C182.312 33.0321 182.502 32.7625 182.988 32.4944C183.503 32.2101 184.046 32.0977 184.457 32.0977V42.0977V52.0977C190.546 52.0977 195.487 49.024 198.635 44.5879C201.561 40.4667 202.867 35.3792 203.238 30.3764L193.266 29.6367ZM184.457 42.0977V32.0977C184.951 32.0977 185.578 32.25 186.133 32.596C186.639 32.9115 186.764 33.1857 186.672 33.0316C186.408 32.5883 185.718 30.8849 185.734 27.3199L175.734 27.2734L165.734 27.2269C165.708 32.9002 166.715 38.609 169.491 43.2682C172.481 48.287 177.663 52.0977 184.457 52.0977V42.0977ZM175.734 27.2734L185.734 27.2265C185.718 23.7189 186.403 22.0402 186.663 21.6064C186.753 21.4557 186.627 21.7276 186.125 22.0402C185.575 22.3831 184.951 22.5352 184.457 22.5352V12.5352V2.53516C177.67 2.53516 172.491 6.33843 169.5 11.3379C166.72 15.9852 165.708 21.6756 165.734 27.3204L175.734 27.2734ZM184.457 12.5352V22.5352C184.061 22.5352 183.539 22.431 183.034 22.1632C182.555 21.9087 182.347 21.6431 182.337 21.6299C182.336 21.6279 182.381 21.6882 182.455 21.834C182.529 21.98 182.626 22.1994 182.729 22.5058C182.939 23.128 183.15 24.0281 183.275 25.2437L193.223 24.2227L203.17 23.2016C202.681 18.4359 201.289 13.5677 198.34 9.63331C195.171 5.40601 190.334 2.53516 184.457 2.53516V12.5352ZM193.223 24.2227V34.2227H195.199V24.2227V14.2227H193.223V24.2227ZM195.199 24.2227L205.199 24.2227V10.4727H195.199H185.199V24.2227H195.199ZM195.199 10.4727V20.4727H201.688V10.4727V0.472656L195.199 0.472656V10.4727ZM184.457 19.0664V9.06641C181.298 9.06641 178.378 10.3424 176.231 12.5409C174.373 14.4435 173.504 16.6056 173.06 18.0623C172.191 20.9133 172.028 24.2421 172.051 27.347L182.051 27.2734L192.051 27.1999C192.041 25.9553 192.08 25.0595 192.137 24.4421C192.197 23.7845 192.258 23.6728 192.191 23.8948C192.15 24.0301 191.788 25.2362 190.541 26.5131C189.866 27.2048 188.956 27.8881 187.802 28.3795C186.644 28.8728 185.49 29.0664 184.457 29.0664V19.0664ZM182.051 27.2734L172.051 27.2004C172.028 30.3168 172.189 33.656 173.063 36.5116C173.512 37.9756 174.39 40.1469 176.269 42.0505C178.438 44.2482 181.352 45.4805 184.457 45.4805V35.4805V25.4805C185.466 25.4805 186.604 25.6659 187.754 26.1489C188.903 26.6311 189.818 27.3067 190.503 28.0013C191.771 29.286 192.142 30.5093 192.187 30.6573C192.258 30.8893 192.198 30.7848 192.137 30.1247C192.08 29.5055 192.041 28.6041 192.051 27.3464L182.051 27.2734ZM184.457 35.4805V45.4805C187.478 45.4805 190.338 44.3219 192.516 42.2166C194.431 40.3657 195.373 38.2247 195.869 36.7235C196.83 33.8183 197.035 30.4309 197.035 27.2734H187.035H177.035C177.035 28.5116 176.987 29.3909 176.924 29.9854C176.856 30.6193 176.796 30.6994 176.88 30.4455C176.941 30.2602 177.343 29.0671 178.617 27.8353C179.3 27.1757 180.193 26.5468 181.295 26.1005C182.398 25.654 183.487 25.4805 184.457 25.4805V35.4805ZM187.035 27.2734H197.035C197.035 24.1273 196.828 20.751 195.873 17.851C195.381 16.3577 194.45 14.2248 192.555 12.3739C190.397 10.2661 187.531 9.06641 184.457 9.06641V19.0664V29.0664C183.463 29.0664 182.359 28.8853 181.248 28.429C180.141 27.974 179.252 27.3375 178.579 26.68C177.325 25.4548 176.933 24.278 176.876 24.106C176.796 23.8624 176.857 23.9499 176.924 24.5816C176.987 25.1746 177.035 26.0484 177.035 27.2734H187.035ZM254.883 10H264.883C264.883 4.47715 260.406 0 254.883 0V10ZM254.883 18.7656H244.883C244.883 24.2885 249.36 28.7656 254.883 28.7656V18.7656ZM259.824 18.7656H269.824C269.824 13.2428 265.347 8.76562 259.824 8.76562V18.7656ZM259.824 24.3086V34.3086C265.347 34.3086 269.824 29.8314 269.824 24.3086H259.824ZM254.883 24.3086V14.3086C249.36 14.3086 244.883 18.7857 244.883 24.3086H254.883ZM254.883 32.6016V42.6016C260.406 42.6016 264.883 38.1244 264.883 32.6016H254.883ZM247.965 32.6016H237.965C237.965 38.1244 242.442 42.6016 247.965 42.6016V32.6016ZM247.965 10V0C242.442 0 237.965 4.47715 237.965 10H247.965ZM243.668 12.4492H253.668C253.668 6.92637 249.191 2.44922 243.668 2.44922V12.4492ZM225.32 33.9766L216.335 38.3649C218.434 42.6645 223.286 44.8741 227.908 43.636L225.32 33.9766ZM222.613 28.4336L220.188 18.7322C217.261 19.4639 214.821 21.4777 213.548 24.2126C212.274 26.9475 212.304 30.1111 213.628 32.8219L222.613 28.4336ZM236.105 17.9062L245.884 19.9984C246.516 17.0459 245.78 13.966 243.881 11.6182C241.983 9.27048 239.125 7.90625 236.105 7.90625V17.9062ZM224.59 17.9062H214.59C214.59 23.4291 219.067 27.9062 224.59 27.9062V17.9062ZM224.59 12.4492V2.44922C219.067 2.44922 214.59 6.92637 214.59 12.4492H224.59ZM255.312 41.4531L265.312 41.5358C265.313 41.48 265.313 41.4242 265.312 41.3684L255.312 41.4531ZM227.898 41.4531L237.898 41.5358C237.899 41.48 237.899 41.4242 237.898 41.3684L227.898 41.4531ZM241.605 38.4023L241.508 48.4019C241.573 48.4025 241.638 48.4025 241.703 48.4019L241.605 38.4023ZM241.605 44.5469L241.703 34.5473C241.638 34.5467 241.573 34.5467 241.508 34.5473L241.605 44.5469ZM254.883 10H244.883V18.7656H254.883H264.883V10H254.883ZM254.883 18.7656V28.7656H259.824V18.7656V8.76562H254.883V18.7656ZM259.824 18.7656H249.824V24.3086H259.824H269.824V18.7656H259.824ZM259.824 24.3086V14.3086H254.883V24.3086V34.3086H259.824V24.3086ZM254.883 24.3086H244.883V32.6016H254.883H264.883V24.3086H254.883ZM254.883 32.6016V22.6016H247.965V32.6016V42.6016H254.883V32.6016ZM247.965 32.6016H257.965V10H247.965H237.965V32.6016H247.965ZM247.965 10V20H254.883V10V0H247.965V10ZM243.668 12.4492L233.668 12.4492C233.668 15.8666 232.73 18.0452 231.397 19.6079C229.97 21.2819 227.371 23.0749 222.733 24.3171L225.32 33.9766L227.908 43.636C235.301 41.6556 241.876 38.1419 246.614 32.5864C251.448 26.9196 253.668 19.9459 253.668 12.4492H243.668ZM225.32 33.9766L234.306 29.5882L231.599 24.0452L222.613 28.4336L213.628 32.8219L216.335 38.3649L225.32 33.9766ZM222.613 28.4336L225.039 38.135C234.843 35.6838 243.733 30.0527 245.884 19.9984L236.105 17.9062L226.327 15.8141C226.374 15.5923 226.46 15.7976 225.769 16.3555C224.979 16.9933 223.304 17.9532 220.188 18.7322L222.613 28.4336ZM236.105 17.9062V7.90625H224.59V17.9062V27.9062H236.105V17.9062ZM224.59 17.9062H234.59V12.4492H224.59H214.59V17.9062H224.59ZM224.59 12.4492V22.4492H243.668V12.4492V2.44922H224.59V12.4492ZM241.605 33.0742V43.0742C243 43.0742 244.106 43.216 244.928 43.4081C245.762 43.6029 246.185 43.8212 246.314 43.8999C246.433 43.9728 246.163 43.8382 245.851 43.3427C245.506 42.7964 245.318 42.1353 245.313 41.5379L255.312 41.4531L265.312 41.3684C265.256 34.6867 261.433 29.6944 256.727 26.8248C252.282 24.1135 246.885 23.0742 241.605 23.0742V33.0742ZM255.312 41.4531L245.313 41.3705C245.317 40.8516 245.48 40.2176 245.827 39.662C246.144 39.1551 246.428 39.0065 246.328 39.0677C246.213 39.1372 245.8 39.3519 244.961 39.5448C244.135 39.7349 243.018 39.875 241.605 39.875V49.875V59.875C246.837 59.875 252.245 58.8751 256.713 56.1598C261.498 53.2523 265.257 48.2171 265.312 41.5358L255.312 41.4531ZM241.605 49.875V39.875C240.221 39.875 239.107 39.7363 238.27 39.544C237.419 39.3485 236.984 39.1281 236.849 39.0472C236.724 38.972 237.017 39.1166 237.35 39.6462C237.72 40.2353 237.903 40.9335 237.898 41.5358L227.898 41.4531L217.899 41.3705C217.842 48.2438 221.775 53.316 226.531 56.1803C230.998 58.8704 236.404 59.875 241.605 59.875V49.875ZM227.898 41.4531L237.898 41.3684C237.904 42.0524 237.693 42.7792 237.326 43.3586C236.998 43.8766 236.719 44.0074 236.863 43.9204C237.012 43.8304 237.457 43.6064 238.304 43.4089C239.137 43.2146 240.24 43.0742 241.605 43.0742V33.0742V23.0742C236.356 23.0742 230.961 24.1181 226.518 26.8042C221.844 29.629 217.841 34.6602 217.899 41.5379L227.898 41.4531ZM241.605 38.4023L241.703 28.4028C238.978 28.3764 235.586 28.6255 232.498 29.9776C230.858 30.6957 228.874 31.9127 227.274 33.9799C225.57 36.1819 224.73 38.8041 224.73 41.4531H234.73H244.73C244.73 43.0709 244.197 44.7907 243.091 46.2206C242.088 47.5158 240.993 48.0909 240.519 48.2988C240.041 48.5078 239.832 48.5059 240.091 48.4685C240.321 48.4354 240.777 48.3948 241.508 48.4019L241.605 38.4023ZM234.73 41.4531H224.73C224.73 47.5977 228.866 51.327 232.427 52.919C235.528 54.3051 238.938 54.5732 241.703 54.5464L241.605 44.5469L241.508 34.5473C239.847 34.5635 239.819 34.316 240.589 34.6601C241.067 34.8738 242.141 35.4519 243.121 36.7321C244.2 38.1409 244.73 39.839 244.73 41.4531H234.73ZM241.605 44.5469L241.508 54.5464C244.273 54.5732 247.683 54.3051 250.784 52.919C254.345 51.327 258.48 47.5977 258.48 41.4531H248.48H238.48C238.48 39.839 239.011 38.1409 240.09 36.7321C241.07 35.4519 242.144 34.8738 242.622 34.6601C243.392 34.316 243.364 34.5635 241.703 34.5473L241.605 44.5469ZM248.48 41.4531H258.48C258.48 38.8041 257.641 36.1819 255.937 33.9799C254.337 31.9127 252.353 30.6957 250.713 29.9776C247.625 28.6255 244.233 28.3764 241.508 28.4028L241.605 38.4023L241.703 48.4019C242.434 48.3948 242.89 48.4354 243.119 48.4685C243.379 48.5059 243.17 48.5078 242.692 48.2988C242.217 48.0909 241.123 47.5158 240.12 46.2206C239.014 44.7907 238.48 43.0709 238.48 41.4531H248.48ZM292.91 10.0859L302.91 10.0859C302.91 4.56309 298.433 0.0859375 292.91 0.0859375V10.0859ZM292.91 21.6875H282.91C282.91 27.2103 287.387 31.6875 292.91 31.6875V21.6875ZM297.852 21.6875H307.852C307.852 16.1647 303.374 11.6875 297.852 11.6875V21.6875ZM297.852 27.2734V37.2734C303.374 37.2734 307.852 32.7963 307.852 27.2734H297.852ZM292.91 27.2734V17.2734C287.387 17.2734 282.91 21.7506 282.91 27.2734H292.91ZM292.91 39.6914V49.6914C298.433 49.6914 302.91 45.2143 302.91 39.6914H292.91ZM285.992 39.6914H275.992C275.992 45.2143 280.469 49.6914 285.992 49.6914V39.6914ZM285.992 10.0859V0.0859375C280.469 0.0859375 275.992 4.56309 275.992 10.0859H285.992ZM284.574 13.8242H294.574C294.574 8.30137 290.097 3.82422 284.574 3.82422V13.8242ZM284.574 19.1523V29.1523C290.097 29.1523 294.574 24.6752 294.574 19.1523H284.574ZM261.07 19.1523H251.07C251.07 24.6752 255.547 29.1523 261.07 29.1523V19.1523ZM261.07 13.8242V3.82422C255.547 3.82422 251.07 8.30137 251.07 13.8242H261.07ZM269.363 13.8242V23.8242C274.886 23.8242 279.363 19.3471 279.363 13.8242H269.363ZM269.363 10V0C263.84 0 259.363 4.47715 259.363 10H269.363ZM276.281 10H286.281C286.281 4.47715 281.804 0 276.281 0V10ZM276.281 13.8242H266.281C266.281 19.3471 270.758 23.8242 276.281 23.8242V13.8242ZM272.801 35.6523L272.875 25.6526C272.826 25.6523 272.776 25.6523 272.727 25.6526L272.801 35.6523ZM272.801 25.2539L273.013 15.2562C272.87 15.2531 272.727 15.2532 272.583 15.2563L272.801 25.2539ZM294.07 43.6875H304.07C304.07 38.1647 299.593 33.6875 294.07 33.6875V43.6875ZM294.07 49.1875V59.1875C299.593 59.1875 304.07 54.7103 304.07 49.1875H294.07ZM266.57 49.1875H256.57C256.57 54.7103 261.047 59.1875 266.57 59.1875V49.1875ZM266.57 37.457V27.457C261.047 27.457 256.57 31.9342 256.57 37.457H266.57ZM273.488 37.457H283.488C283.488 31.9342 279.011 27.457 273.488 27.457V37.457ZM273.488 43.6875H263.488C263.488 49.2103 267.965 53.6875 273.488 53.6875V43.6875ZM292.91 10.0859H282.91V21.6875H292.91H302.91V10.0859L292.91 10.0859ZM292.91 21.6875V31.6875H297.852V21.6875V11.6875H292.91V21.6875ZM297.852 21.6875H287.852V27.2734H297.852H307.852V21.6875H297.852ZM297.852 27.2734V17.2734H292.91V27.2734V37.2734H297.852V27.2734ZM292.91 27.2734H282.91V39.6914H292.91H302.91V27.2734H292.91ZM292.91 39.6914V29.6914H285.992V39.6914V49.6914H292.91V39.6914ZM285.992 39.6914H295.992V10.0859H285.992H275.992V39.6914H285.992ZM285.992 10.0859V20.0859H292.91V10.0859V0.0859375L285.992 0.0859375V10.0859ZM284.574 13.8242H274.574V19.1523H284.574H294.574V13.8242H284.574ZM284.574 19.1523V9.15234H261.07V19.1523V29.1523H284.574V19.1523ZM261.07 19.1523H271.07V13.8242H261.07H251.07V19.1523H261.07ZM261.07 13.8242V23.8242H269.363V13.8242V3.82422H261.07V13.8242ZM269.363 13.8242H279.363V10H269.363H259.363V13.8242H269.363ZM269.363 10V20H276.281V10V0H269.363V10ZM276.281 10H266.281V13.8242H276.281H286.281V10H276.281ZM276.281 13.8242V23.8242H284.574V13.8242V3.82422H276.281V13.8242ZM272.801 20.0547V30.0547C273.926 30.0547 274.091 30.3697 273.745 30.0968C273.556 29.9475 273.275 29.6587 273.047 29.2037C272.814 28.7368 272.727 28.2729 272.727 27.918H282.727H292.727C292.727 22.357 290.149 17.5637 286.133 14.3954C282.274 11.351 277.477 10.0547 272.801 10.0547V20.0547ZM282.727 27.918H272.727C272.727 27.5621 272.814 27.0793 273.064 26.5852C273.307 26.1028 273.611 25.7942 273.82 25.6324C274.198 25.3394 274.042 25.6613 272.875 25.6526L272.801 35.6523L272.727 45.6521C277.361 45.6864 282.167 44.4614 286.058 41.4506C290.13 38.3007 292.727 33.4973 292.727 27.918H282.727ZM272.801 35.6523L272.727 25.6526C271.522 25.6615 271.329 25.3307 271.688 25.6054C271.888 25.7591 272.193 26.0633 272.441 26.55C272.696 27.0498 272.789 27.5449 272.789 27.918H262.789H252.789C252.789 33.5383 255.433 38.3447 259.519 41.4776C263.423 44.4701 268.236 45.6862 272.874 45.6521L272.801 35.6523ZM262.789 27.918H272.789C272.789 28.29 272.697 28.7662 272.458 29.2388C272.226 29.6982 271.944 29.9827 271.763 30.1242C271.436 30.3793 271.637 30.0547 272.801 30.0547V20.0547V10.0547C263.866 10.0547 252.789 15.6025 252.789 27.918H262.789ZM272.801 25.2539L272.583 15.2563C270.497 15.3016 267.271 15.7513 264.355 17.9796C260.974 20.5634 259.535 24.3486 259.535 27.918H269.535H279.535C279.535 28.6625 279.399 29.7332 278.858 30.9136C278.301 32.1283 277.462 33.1346 276.498 33.871C274.721 35.2292 273.128 35.2491 273.018 35.2515L272.801 25.2539ZM269.535 27.918H259.535C259.535 31.492 260.986 35.3526 264.5 37.9382C267.492 40.1396 270.763 40.4961 272.801 40.4961V30.4961V20.4961C272.862 20.4961 274.5 20.4658 276.354 21.8294C277.368 22.5757 278.251 23.6099 278.835 24.8656C279.4 26.0805 279.535 27.1768 279.535 27.918H269.535ZM272.801 30.4961V40.4961C274.832 40.4961 278.04 40.1493 281.005 38.0657C284.531 35.5876 286.195 31.7381 286.195 27.918H276.195H266.195C266.195 27.0865 266.359 25.922 266.975 24.6692C267.605 23.3883 268.524 22.3918 269.506 21.7019C271.279 20.4562 272.789 20.4961 272.801 20.4961V30.4961ZM276.195 27.918H286.195C286.195 24.1082 284.549 20.3277 281.15 17.8474C278.255 15.7347 275.089 15.3003 273.013 15.2562L272.801 25.2539L272.588 35.2516C272.532 35.2505 271.063 35.2458 269.361 34.0032C268.426 33.321 267.552 32.3492 266.951 31.1087C266.36 29.8906 266.195 28.7524 266.195 27.918H276.195ZM294.07 43.6875H284.07V49.1875H294.07H304.07V43.6875H294.07ZM294.07 49.1875V39.1875H266.57V49.1875V59.1875H294.07V49.1875ZM266.57 49.1875H276.57V37.457H266.57H256.57V49.1875H266.57ZM266.57 37.457V47.457H273.488V37.457V27.457H266.57V37.457ZM273.488 37.457H263.488V43.6875H273.488H283.488V37.457H273.488ZM273.488 43.6875V53.6875H294.07V43.6875V33.6875H273.488V43.6875Z" fill="white" mask="url(#path-1-outside-1_6524_1725)"/>
</g>
<defs>
<filter id="filter0_d_6524_1725" x="0" y="0" width="311.852" height="67.875" filterUnits="userSpaceOnUse" color-interpolation-filters="sRGB">
<feFlood flood-opacity="0" result="BackgroundImageFix"/>
<feColorMatrix in="SourceAlpha" type="matrix" values="0 0 0 0 0 0 0 0 0 0 0 0 0 0 0 0 0 0 127 0" result="hardAlpha"/>
<feOffset dy="4"/>
<feGaussianBlur stdDeviation="2"/>
<feComposite in2="hardAlpha" operator="out"/>
<feColorMatrix type="matrix" values="0 0 0 0 0 0 0 0 0 0 0 0 0 0 0 0 0 0 0.07 0"/>
<feBlend mode="normal" in2="BackgroundImageFix" result="effect1_dropShadow_6524_1725"/>
<feBlend mode="normal" in="SourceGraphic" in2="effect1_dropShadow_6524_1725" result="shape"/>
</filter>
</defs>
</svg>
