<svg width="217" height="68" viewBox="0 0 217 68" fill="none" xmlns="http://www.w3.org/2000/svg">
<g filter="url(#filter0_d_6524_1745)">
<mask id="path-1-outside-1_6524_1745" maskUnits="userSpaceOnUse" x="3.09766" y="-0.507813" width="210" height="61" fill="black">
<rect fill="white" x="3.09766" y="-0.507813" width="210" height="61"/>
<path d="M50.2656 31.7852V37.2852H42.4453V49.7461H35.4414V37.2852H28.6094V49.7461H21.5625V37.2852H14V31.7852H50.2656ZM32.0039 11.2031C40.6406 11.1602 46.8281 14.7695 46.8281 20.3555C46.8281 25.7695 40.6406 29.207 32.0039 29.207C23.3672 29.207 17.2656 25.7695 17.3086 20.3555C17.2656 14.7695 23.3672 11.1602 32.0039 11.2031ZM32.0039 16.6602C27.2344 16.6602 24.3984 17.8203 24.3984 20.3555C24.3984 22.6758 27.2344 23.793 32.0039 23.8359C36.8594 23.793 39.6523 22.6758 39.6523 20.3555C39.6523 17.8203 36.8594 16.6602 32.0039 16.6602ZM72.9961 13.3086V23.2773L79.0977 23.2773V10H85.9297V49.875H79.0977V28.7773H72.9961V40.293H53.4023V13.3086H72.9961ZM60.2773 18.5938V35.0078H66.25V18.5938H60.2773ZM123.871 10V49.875H116.996V29.3359H111.496V23.75H116.996V10H123.871ZM109.391 13.1367V28.6484H98.2617V35.1367C102.967 35.1152 107.285 34.9004 111.926 34.1484L112.484 39.6914C106.641 40.6367 101.098 40.8086 94.7812 40.8086H91.3867V23.2773H102.645V18.6367H91.3008V13.1367H109.391ZM149.695 14.8555C149.652 20.0977 153.133 26.4141 163.445 28.0898L160.48 33.8047C153.197 32.4727 148.492 28.8633 146 24.2227C143.422 28.8203 138.695 32.4297 131.52 33.8047L128.598 28.0898C138.695 26.3711 142.262 19.9687 142.262 14.8555V12.1484H149.695V14.8555ZM164.391 39.6055V45.2344L128.082 45.2344V39.6055L164.391 39.6055ZM197.906 10.0859V21.6875H202.848V27.2734H197.906V39.6914H190.988V10.0859H197.906ZM189.57 13.8242V19.1523H166.066V13.8242H174.359V10H181.277V13.8242H189.57ZM177.797 20.0547C183.598 20.0547 187.723 23.2773 187.723 27.918C187.723 32.5586 183.598 35.6953 177.797 35.6523C171.953 35.6953 167.785 32.5586 167.785 27.918C167.785 23.2773 171.953 20.0547 177.797 20.0547ZM177.797 25.2539C175.82 25.2969 174.531 26.1133 174.531 27.918C174.531 29.7227 175.82 30.4961 177.797 30.4961C179.816 30.4961 181.191 29.7227 181.191 27.918C181.191 26.1133 179.816 25.2969 177.797 25.2539ZM199.066 43.6875V49.1875H171.566V37.457H178.484V43.6875H199.066Z"/>
</mask>
<path d="M50.2656 31.7852V37.2852H42.4453V49.7461H35.4414V37.2852H28.6094V49.7461H21.5625V37.2852H14V31.7852H50.2656ZM32.0039 11.2031C40.6406 11.1602 46.8281 14.7695 46.8281 20.3555C46.8281 25.7695 40.6406 29.207 32.0039 29.207C23.3672 29.207 17.2656 25.7695 17.3086 20.3555C17.2656 14.7695 23.3672 11.1602 32.0039 11.2031ZM32.0039 16.6602C27.2344 16.6602 24.3984 17.8203 24.3984 20.3555C24.3984 22.6758 27.2344 23.793 32.0039 23.8359C36.8594 23.793 39.6523 22.6758 39.6523 20.3555C39.6523 17.8203 36.8594 16.6602 32.0039 16.6602ZM72.9961 13.3086V23.2773L79.0977 23.2773V10H85.9297V49.875H79.0977V28.7773H72.9961V40.293H53.4023V13.3086H72.9961ZM60.2773 18.5938V35.0078H66.25V18.5938H60.2773ZM123.871 10V49.875H116.996V29.3359H111.496V23.75H116.996V10H123.871ZM109.391 13.1367V28.6484H98.2617V35.1367C102.967 35.1152 107.285 34.9004 111.926 34.1484L112.484 39.6914C106.641 40.6367 101.098 40.8086 94.7812 40.8086H91.3867V23.2773H102.645V18.6367H91.3008V13.1367H109.391ZM149.695 14.8555C149.652 20.0977 153.133 26.4141 163.445 28.0898L160.48 33.8047C153.197 32.4727 148.492 28.8633 146 24.2227C143.422 28.8203 138.695 32.4297 131.52 33.8047L128.598 28.0898C138.695 26.3711 142.262 19.9687 142.262 14.8555V12.1484H149.695V14.8555ZM164.391 39.6055V45.2344L128.082 45.2344V39.6055L164.391 39.6055ZM197.906 10.0859V21.6875H202.848V27.2734H197.906V39.6914H190.988V10.0859H197.906ZM189.57 13.8242V19.1523H166.066V13.8242H174.359V10H181.277V13.8242H189.57ZM177.797 20.0547C183.598 20.0547 187.723 23.2773 187.723 27.918C187.723 32.5586 183.598 35.6953 177.797 35.6523C171.953 35.6953 167.785 32.5586 167.785 27.918C167.785 23.2773 171.953 20.0547 177.797 20.0547ZM177.797 25.2539C175.82 25.2969 174.531 26.1133 174.531 27.918C174.531 29.7227 175.82 30.4961 177.797 30.4961C179.816 30.4961 181.191 29.7227 181.191 27.918C181.191 26.1133 179.816 25.2969 177.797 25.2539ZM199.066 43.6875V49.1875H171.566V37.457H178.484V43.6875H199.066Z" fill="#11DCA9"/>
<path d="M50.2656 31.7852H60.2656C60.2656 26.2623 55.7885 21.7852 50.2656 21.7852V31.7852ZM50.2656 37.2852V47.2852C55.7885 47.2852 60.2656 42.808 60.2656 37.2852H50.2656ZM42.4453 37.2852V27.2852C36.9225 27.2852 32.4453 31.7623 32.4453 37.2852H42.4453ZM42.4453 49.7461V59.7461C47.9682 59.7461 52.4453 55.2689 52.4453 49.7461H42.4453ZM35.4414 49.7461H25.4414C25.4414 55.2689 29.9186 59.7461 35.4414 59.7461V49.7461ZM35.4414 37.2852H45.4414C45.4414 31.7623 40.9643 27.2852 35.4414 27.2852V37.2852ZM28.6094 37.2852V27.2852C23.0865 27.2852 18.6094 31.7623 18.6094 37.2852H28.6094ZM28.6094 49.7461V59.7461C34.1322 59.7461 38.6094 55.2689 38.6094 49.7461H28.6094ZM21.5625 49.7461H11.5625C11.5625 55.2689 16.0397 59.7461 21.5625 59.7461V49.7461ZM21.5625 37.2852H31.5625C31.5625 31.7623 27.0853 27.2852 21.5625 27.2852V37.2852ZM14 37.2852H4C4 42.808 8.47715 47.2852 14 47.2852V37.2852ZM14 31.7852L14 21.7852C8.47715 21.7852 4 26.2623 4 31.7852H14ZM32.0039 11.2031L31.9542 21.203C31.9873 21.2032 32.0205 21.2032 32.0537 21.203L32.0039 11.2031ZM17.3086 20.3555L27.3083 20.4348C27.3087 20.3827 27.3087 20.3306 27.3083 20.2785L17.3086 20.3555ZM32.0039 23.8359L31.9138 33.8355C31.9733 33.8361 32.0329 33.8361 32.0924 33.8355L32.0039 23.8359ZM50.2656 31.7852H40.2656V37.2852H50.2656H60.2656V31.7852H50.2656ZM50.2656 37.2852V27.2852H42.4453V37.2852V47.2852H50.2656V37.2852ZM42.4453 37.2852H32.4453V49.7461H42.4453H52.4453V37.2852H42.4453ZM42.4453 49.7461V39.7461H35.4414V49.7461V59.7461H42.4453V49.7461ZM35.4414 49.7461H45.4414V37.2852H35.4414H25.4414V49.7461H35.4414ZM35.4414 37.2852V27.2852H28.6094V37.2852V47.2852H35.4414V37.2852ZM28.6094 37.2852H18.6094V49.7461H28.6094H38.6094V37.2852H28.6094ZM28.6094 49.7461V39.7461H21.5625V49.7461V59.7461H28.6094V49.7461ZM21.5625 49.7461H31.5625V37.2852H21.5625H11.5625V49.7461H21.5625ZM21.5625 37.2852V27.2852H14L14 37.2852V47.2852H21.5625V37.2852ZM14 37.2852H24V31.7852H14H4V37.2852H14ZM14 31.7852V41.7852H50.2656V31.7852V21.7852H14L14 31.7852ZM32.0039 11.2031L32.0537 21.203C35.1292 21.1877 36.8638 21.8512 37.4636 22.2155C37.7152 22.3683 37.5426 22.3288 37.2906 21.9329C37.0016 21.479 36.8281 20.8939 36.8281 20.3555H46.8281H56.8281C56.8281 13.2776 52.713 8.07746 47.8459 5.12141C43.1929 2.29531 37.5154 1.17558 31.9542 1.20325L32.0039 11.2031ZM46.8281 20.3555H36.8281C36.8281 19.7032 37.0428 19.0256 37.3797 18.515C37.6713 18.0731 37.8738 18.023 37.6062 18.1795C36.9699 18.5516 35.1675 19.207 32.0039 19.207V29.207V39.207C37.477 39.207 43.0867 38.1437 47.7034 35.4435C52.5228 32.6248 56.8281 27.5226 56.8281 20.3555H46.8281ZM32.0039 29.207V19.207C28.8366 19.207 27.0776 18.5503 26.4887 18.2023C26.2471 18.0595 26.4692 18.1285 26.7686 18.5914C27.1117 19.1218 27.3133 19.8027 27.3083 20.4348L17.3086 20.3555L7.30891 20.2761C7.25224 27.4166 11.4749 32.5612 16.3141 35.4208C20.9243 38.145 26.5345 39.207 32.0039 39.207V29.207ZM17.3086 20.3555L27.3083 20.2785C27.3123 20.7976 27.1503 21.3849 26.8558 21.8569C26.5966 22.2722 26.4056 22.3303 26.6315 22.1917C27.1842 21.8525 28.8751 21.1877 31.9542 21.203L32.0039 11.2031L32.0537 1.20325C26.496 1.1756 20.8177 2.29394 16.1712 5.14523C11.2877 8.14194 7.25466 13.3822 7.30889 20.4324L17.3086 20.3555ZM32.0039 16.6602V6.66016C29.1014 6.66016 25.4684 6.96784 22.196 8.48959C20.4493 9.30184 18.4332 10.6337 16.8454 12.804C15.1764 15.0853 14.3984 17.7293 14.3984 20.3555H24.3984H34.3984C34.3984 21.7141 33.975 23.2624 32.9868 24.6131C32.0797 25.8529 31.0707 26.4193 30.6292 26.6247C30.1993 26.8246 30.0438 26.8092 30.3681 26.7579C30.6636 26.7111 31.1935 26.6602 32.0039 26.6602V16.6602ZM24.3984 20.3555H14.3984C14.3984 26.8076 18.8439 30.5435 22.3827 32.1017C25.534 33.4894 29.0405 33.8096 31.9138 33.8355L32.0039 23.8359L32.094 13.8363C31.2616 13.8288 30.6948 13.7747 30.3543 13.7213C29.9839 13.6631 30.075 13.6359 30.4425 13.7977C30.7985 13.9544 31.8104 14.4652 32.7687 15.6804C33.8432 17.0432 34.3984 18.7281 34.3984 20.3555H24.3984ZM32.0039 23.8359L32.0924 33.8355C34.9879 33.8099 38.516 33.4945 41.6788 32.1017C43.3518 31.3651 45.378 30.128 47.0164 28.0336C48.7682 25.7943 49.6523 23.1064 49.6523 20.3555H39.6523H29.6523C29.6523 18.7647 30.1874 17.0866 31.2637 15.7107C32.2267 14.4797 33.2512 13.9596 33.619 13.7977C33.9948 13.6322 34.0896 13.6601 33.7094 13.7193C33.3596 13.7737 32.7764 13.8287 31.9154 13.8363L32.0039 23.8359ZM39.6523 20.3555H49.6523C49.6523 17.7631 48.8964 15.1263 47.233 12.8345C45.647 10.6494 43.6247 9.30765 41.8655 8.48959C38.5813 6.96237 34.9264 6.66016 32.0039 6.66016V16.6602V26.6602C32.8438 26.6602 33.3905 26.712 33.6957 26.7599C34.0302 26.8125 33.8708 26.8286 33.4323 26.6247C32.9783 26.4135 31.9577 25.8372 31.0472 24.5826C30.0591 23.2214 29.6523 21.6803 29.6523 20.3555H39.6523ZM72.9961 13.3086L82.9961 13.3086C82.9961 7.78575 78.5189 3.30859 72.9961 3.30859V13.3086ZM72.9961 23.2773H62.9961C62.9961 28.8002 67.4732 33.2773 72.9961 33.2773V23.2773ZM79.0977 23.2773V33.2773C84.6205 33.2773 89.0977 28.8002 89.0977 23.2773H79.0977ZM79.0977 10V0C73.5748 0 69.0977 4.47715 69.0977 10H79.0977ZM85.9297 10H95.9297C95.9297 4.47715 91.4525 0 85.9297 0V10ZM85.9297 49.875V59.875C91.4525 59.875 95.9297 55.3978 95.9297 49.875H85.9297ZM79.0977 49.875H69.0977C69.0977 55.3978 73.5748 59.875 79.0977 59.875V49.875ZM79.0977 28.7773H89.0977C89.0977 23.2545 84.6205 18.7773 79.0977 18.7773V28.7773ZM72.9961 28.7773V18.7773C67.4732 18.7773 62.9961 23.2545 62.9961 28.7773H72.9961ZM72.9961 40.293V50.293C78.5189 50.293 82.9961 45.8158 82.9961 40.293H72.9961ZM53.4023 40.293H43.4023C43.4023 45.8158 47.8795 50.293 53.4023 50.293V40.293ZM53.4023 13.3086V3.30859C47.8795 3.30859 43.4023 7.78575 43.4023 13.3086H53.4023ZM60.2773 18.5938V8.59375C54.7545 8.59375 50.2773 13.0709 50.2773 18.5938H60.2773ZM60.2773 35.0078H50.2773C50.2773 40.5307 54.7545 45.0078 60.2773 45.0078V35.0078ZM66.25 35.0078V45.0078C71.7728 45.0078 76.25 40.5307 76.25 35.0078H66.25ZM66.25 18.5938H76.25C76.25 13.0709 71.7728 8.59375 66.25 8.59375V18.5938ZM72.9961 13.3086H62.9961V23.2773H72.9961L82.9961 23.2773V13.3086L72.9961 13.3086ZM72.9961 23.2773V33.2773H79.0977V23.2773V13.2773L72.9961 13.2773V23.2773ZM79.0977 23.2773H89.0977V10H79.0977H69.0977V23.2773L79.0977 23.2773ZM79.0977 10V20H85.9297V10V0L79.0977 0V10ZM85.9297 10H75.9297V49.875H85.9297H95.9297V10H85.9297ZM85.9297 49.875V39.875H79.0977V49.875V59.875H85.9297V49.875ZM79.0977 49.875H89.0977V28.7773H79.0977H69.0977V49.875H79.0977ZM79.0977 28.7773V18.7773L72.9961 18.7773V28.7773V38.7773H79.0977V28.7773ZM72.9961 28.7773H62.9961V40.293H72.9961H82.9961V28.7773H72.9961ZM72.9961 40.293V30.293H53.4023V40.293V50.293H72.9961V40.293ZM53.4023 40.293H63.4023V13.3086H53.4023H43.4023V40.293H53.4023ZM53.4023 13.3086V23.3086H72.9961V13.3086V3.30859L53.4023 3.30859V13.3086ZM60.2773 18.5938H50.2773V35.0078H60.2773H70.2773V18.5938H60.2773ZM60.2773 35.0078V45.0078H66.25V35.0078V25.0078H60.2773V35.0078ZM66.25 35.0078H76.25V18.5938H66.25H56.25V35.0078H66.25ZM66.25 18.5938V8.59375H60.2773V18.5938V28.5938H66.25V18.5938ZM123.871 10H133.871C133.871 4.47715 129.394 0 123.871 0V10ZM123.871 49.875V59.875C129.394 59.875 133.871 55.3978 133.871 49.875H123.871ZM116.996 49.875H106.996C106.996 55.3978 111.473 59.875 116.996 59.875V49.875ZM116.996 29.3359H126.996C126.996 23.8131 122.519 19.3359 116.996 19.3359V29.3359ZM111.496 29.3359H101.496C101.496 34.8588 105.973 39.3359 111.496 39.3359V29.3359ZM111.496 23.75V13.75C105.973 13.75 101.496 18.2272 101.496 23.75H111.496ZM116.996 23.75V33.75C122.519 33.75 126.996 29.2728 126.996 23.75H116.996ZM116.996 10V0C111.473 0 106.996 4.47715 106.996 10L116.996 10ZM109.391 13.1367H119.391C119.391 7.61387 114.913 3.13672 109.391 3.13672V13.1367ZM109.391 28.6484V38.6484C114.913 38.6484 119.391 34.1713 119.391 28.6484H109.391ZM98.2617 28.6484V18.6484C92.7389 18.6484 88.2617 23.1256 88.2617 28.6484H98.2617ZM98.2617 35.1367H88.2617C88.2617 37.7968 89.3216 40.3473 91.2068 42.2239C93.0921 44.1006 95.6473 45.1488 98.3074 45.1366L98.2617 35.1367ZM111.926 34.1484L121.875 33.1458C121.599 30.403 120.203 27.896 118.016 26.2171C115.83 24.5382 113.047 23.8363 110.326 24.2772L111.926 34.1484ZM112.484 39.6914L114.081 49.5631C119.304 48.7183 122.964 43.9523 122.434 38.6887L112.484 39.6914ZM91.3867 40.8086H81.3867C81.3867 46.3314 85.8639 50.8086 91.3867 50.8086V40.8086ZM91.3867 23.2773V13.2773C85.8639 13.2773 81.3867 17.7545 81.3867 23.2773H91.3867ZM102.645 23.2773V33.2773C108.167 33.2773 112.645 28.8002 112.645 23.2773H102.645ZM102.645 18.6367H112.645C112.645 13.1139 108.167 8.63672 102.645 8.63672V18.6367ZM91.3008 18.6367H81.3008C81.3008 24.1596 85.7779 28.6367 91.3008 28.6367V18.6367ZM91.3008 13.1367V3.13672C85.7779 3.13672 81.3008 7.61387 81.3008 13.1367H91.3008ZM123.871 10H113.871V49.875H123.871H133.871V10H123.871ZM123.871 49.875V39.875H116.996V49.875V59.875H123.871V49.875ZM116.996 49.875H126.996V29.3359H116.996H106.996V49.875H116.996ZM116.996 29.3359V19.3359H111.496V29.3359V39.3359H116.996V29.3359ZM111.496 29.3359H121.496V23.75H111.496H101.496V29.3359H111.496ZM111.496 23.75V33.75H116.996V23.75V13.75H111.496V23.75ZM116.996 23.75H126.996V10H116.996L106.996 10V23.75H116.996ZM116.996 10V20H123.871V10V0L116.996 0V10ZM109.391 13.1367H99.3906V28.6484H109.391H119.391V13.1367H109.391ZM109.391 28.6484V18.6484H98.2617V28.6484V38.6484H109.391V28.6484ZM98.2617 28.6484H88.2617V35.1367H98.2617H108.262V28.6484H98.2617ZM98.2617 35.1367L98.3074 45.1366C103.3 45.1138 108.183 44.8853 113.525 44.0197L111.926 34.1484L110.326 24.2772C106.387 24.9155 102.633 25.1167 98.2161 25.1368L98.2617 35.1367ZM111.926 34.1484L101.976 35.1511L102.535 40.6941L112.484 39.6914L122.434 38.6887L121.875 33.1458L111.926 34.1484ZM112.484 39.6914L110.887 29.8197C105.849 30.6348 100.946 30.8086 94.7812 30.8086V40.8086V50.8086C101.25 50.8086 107.433 50.6386 114.081 49.5631L112.484 39.6914ZM94.7812 40.8086V30.8086H91.3867V40.8086V50.8086H94.7812V40.8086ZM91.3867 40.8086H101.387V23.2773H91.3867H81.3867V40.8086H91.3867ZM91.3867 23.2773V33.2773H102.645V23.2773V13.2773H91.3867V23.2773ZM102.645 23.2773H112.645V18.6367H102.645H92.6445V23.2773H102.645ZM102.645 18.6367V8.63672H91.3008V18.6367V28.6367H102.645V18.6367ZM91.3008 18.6367H101.301V13.1367H91.3008H81.3008V18.6367H91.3008ZM91.3008 13.1367V23.1367H109.391V13.1367V3.13672L91.3008 3.13672V13.1367ZM149.695 14.8555L159.695 14.9374C159.695 14.9101 159.695 14.8828 159.695 14.8555H149.695ZM163.445 28.0898L172.322 32.695C173.799 29.8483 173.821 26.4661 172.381 23.6006C170.941 20.735 168.215 18.7337 165.049 18.2193L163.445 28.0898ZM160.48 33.8047L158.681 43.6415C163.003 44.4319 167.334 42.3093 169.357 38.4098L160.48 33.8047ZM146 24.2227L154.81 19.4914C153.083 16.2757 149.741 14.2563 146.091 14.2231C142.441 14.1898 139.063 16.1479 137.278 19.3317L146 24.2227ZM131.52 33.8047L122.616 38.357C124.64 42.3158 129.035 44.4628 133.401 43.626L131.52 33.8047ZM128.598 28.0898L126.92 18.2316C123.782 18.7658 121.085 20.762 119.658 23.6075C118.232 26.4531 118.245 29.8079 119.694 32.6421L128.598 28.0898ZM142.262 12.1484V2.14844C136.739 2.14844 132.262 6.62559 132.262 12.1484H142.262ZM149.695 12.1484H159.695C159.695 6.62559 155.218 2.14844 149.695 2.14844V12.1484ZM164.391 39.6055H174.391C174.391 34.0826 169.913 29.6055 164.391 29.6055V39.6055ZM164.391 45.2344V55.2344C169.913 55.2344 174.391 50.7572 174.391 45.2344H164.391ZM128.082 45.2344H118.082C118.082 50.7572 122.559 55.2344 128.082 55.2344V45.2344ZM128.082 39.6055V29.6055C122.559 29.6055 118.082 34.0826 118.082 39.6055H128.082ZM149.695 14.8555L139.696 14.7735C139.656 19.6261 141.256 24.9641 145.185 29.4219C149.149 33.9198 154.858 36.8256 161.841 37.9604L163.445 28.0898L165.049 18.2193C161.72 17.6783 160.533 16.5881 160.189 16.1982C159.81 15.7684 159.692 15.327 159.695 14.9374L149.695 14.8555ZM163.445 28.0898L154.569 23.4847L151.604 29.1996L160.48 33.8047L169.357 38.4098L172.322 32.695L163.445 28.0898ZM160.48 33.8047L162.28 23.9679C157.583 23.1088 155.679 21.1094 154.81 19.4914L146 24.2227L137.19 28.9539C141.305 36.6172 148.812 41.8365 158.681 43.6415L160.48 33.8047ZM146 24.2227L137.278 19.3317C136.301 21.0737 134.254 23.0988 129.638 23.9834L131.52 33.8047L133.401 43.626C143.137 41.7606 150.543 36.5669 154.722 29.1137L146 24.2227ZM131.52 33.8047L140.423 29.2524L137.501 23.5376L128.598 28.0898L119.694 32.6421L122.616 38.357L131.52 33.8047ZM128.598 28.0898L130.276 37.9481C137.215 36.7669 142.833 33.7854 146.733 29.3411C150.577 24.9605 152.262 19.7003 152.262 14.8555H142.262H132.262C132.262 15.1239 132.164 15.6215 131.7 16.1501C131.292 16.615 130.078 17.694 126.92 18.2316L128.598 28.0898ZM142.262 14.8555H152.262V12.1484H142.262H132.262V14.8555H142.262ZM142.262 12.1484V22.1484H149.695V12.1484V2.14844H142.262V12.1484ZM149.695 12.1484H139.695V14.8555H149.695H159.695V12.1484H149.695ZM164.391 39.6055H154.391V45.2344H164.391H174.391V39.6055H164.391ZM164.391 45.2344V35.2344L128.082 35.2344V45.2344V55.2344L164.391 55.2344V45.2344ZM128.082 45.2344H138.082V39.6055H128.082H118.082V45.2344H128.082ZM128.082 39.6055V49.6055L164.391 49.6055V39.6055V29.6055L128.082 29.6055V39.6055ZM197.906 10.0859H207.906C207.906 4.56309 203.429 0.0859375 197.906 0.0859375V10.0859ZM197.906 21.6875H187.906C187.906 27.2103 192.383 31.6875 197.906 31.6875V21.6875ZM202.848 21.6875L212.848 21.6875C212.848 16.1647 208.37 11.6875 202.848 11.6875V21.6875ZM202.848 27.2734V37.2734C208.37 37.2734 212.848 32.7963 212.848 27.2734L202.848 27.2734ZM197.906 27.2734V17.2734C192.383 17.2734 187.906 21.7506 187.906 27.2734H197.906ZM197.906 39.6914V49.6914C203.429 49.6914 207.906 45.2143 207.906 39.6914H197.906ZM190.988 39.6914H180.988C180.988 45.2143 185.465 49.6914 190.988 49.6914V39.6914ZM190.988 10.0859V0.0859375C185.465 0.0859375 180.988 4.56309 180.988 10.0859H190.988ZM189.57 13.8242H199.57C199.57 8.30137 195.093 3.82422 189.57 3.82422V13.8242ZM189.57 19.1523V29.1523C195.093 29.1523 199.57 24.6752 199.57 19.1523H189.57ZM166.066 19.1523H156.066C156.066 24.6752 160.544 29.1523 166.066 29.1523V19.1523ZM166.066 13.8242V3.82422C160.544 3.82422 156.066 8.30137 156.066 13.8242H166.066ZM174.359 13.8242V23.8242C179.882 23.8242 184.359 19.3471 184.359 13.8242H174.359ZM174.359 10V0C168.837 0 164.359 4.47715 164.359 10L174.359 10ZM181.277 10H191.277C191.277 4.47715 186.8 0 181.277 0V10ZM181.277 13.8242H171.277C171.277 19.3471 175.755 23.8242 181.277 23.8242V13.8242ZM177.797 35.6523L177.871 25.6526C177.822 25.6523 177.773 25.6523 177.723 25.6526L177.797 35.6523ZM177.797 25.2539L178.01 15.2562C177.866 15.2531 177.723 15.2532 177.58 15.2563L177.797 25.2539ZM199.066 43.6875H209.066C209.066 38.1647 204.589 33.6875 199.066 33.6875V43.6875ZM199.066 49.1875V59.1875C204.589 59.1875 209.066 54.7103 209.066 49.1875H199.066ZM171.566 49.1875H161.566C161.566 54.7103 166.044 59.1875 171.566 59.1875V49.1875ZM171.566 37.457V27.457C166.044 27.457 161.566 31.9342 161.566 37.457H171.566ZM178.484 37.457H188.484C188.484 31.9342 184.007 27.457 178.484 27.457V37.457ZM178.484 43.6875H168.484C168.484 49.2103 172.962 53.6875 178.484 53.6875V43.6875ZM197.906 10.0859H187.906V21.6875H197.906L207.906 21.6875V10.0859H197.906ZM197.906 21.6875V31.6875H202.848V21.6875V11.6875H197.906V21.6875ZM202.848 21.6875H192.848V27.2734H202.848L212.848 27.2734V21.6875L202.848 21.6875ZM202.848 27.2734V17.2734H197.906V27.2734V37.2734H202.848V27.2734ZM197.906 27.2734H187.906V39.6914H197.906H207.906V27.2734L197.906 27.2734ZM197.906 39.6914V29.6914H190.988V39.6914V49.6914H197.906V39.6914ZM190.988 39.6914H200.988V10.0859H190.988H180.988V39.6914H190.988ZM190.988 10.0859V20.0859H197.906V10.0859V0.0859375L190.988 0.0859375V10.0859ZM189.57 13.8242H179.57V19.1523H189.57H199.57V13.8242H189.57ZM189.57 19.1523V9.15234L166.066 9.15234V19.1523V29.1523H189.57V19.1523ZM166.066 19.1523H176.066V13.8242H166.066H156.066V19.1523H166.066ZM166.066 13.8242V23.8242H174.359V13.8242V3.82422H166.066V13.8242ZM174.359 13.8242H184.359V10H174.359L164.359 10V13.8242H174.359ZM174.359 10V20H181.277V10V0L174.359 0V10ZM181.277 10L171.277 10V13.8242H181.277H191.277V10H181.277ZM181.277 13.8242V23.8242H189.57V13.8242V3.82422L181.277 3.82422V13.8242ZM177.797 20.0547V30.0547C178.922 30.0547 179.087 30.3697 178.741 30.0968C178.552 29.9475 178.271 29.6587 178.043 29.2037C177.81 28.7368 177.723 28.2729 177.723 27.918H187.723H197.723C197.723 22.357 195.145 17.5637 191.129 14.3954C187.27 11.351 182.473 10.0547 177.797 10.0547V20.0547ZM187.723 27.918H177.723C177.723 27.5621 177.81 27.0793 178.06 26.5852C178.303 26.1028 178.607 25.7942 178.816 25.6324C179.194 25.3394 179.038 25.6613 177.871 25.6526L177.797 35.6523L177.723 45.6521C182.357 45.6864 187.163 44.4614 191.054 41.4506C195.126 38.3007 197.723 33.4973 197.723 27.918H187.723ZM177.797 35.6523L177.723 25.6526C176.518 25.6615 176.326 25.3307 176.684 25.6054C176.884 25.7591 177.19 26.0633 177.438 26.55C177.692 27.0498 177.785 27.5449 177.785 27.918H167.785H157.785C157.785 33.5383 160.429 38.3447 164.515 41.4776C168.419 44.4701 173.232 45.6862 177.87 45.6521L177.797 35.6523ZM167.785 27.918H177.785C177.785 28.29 177.693 28.7662 177.454 29.2388C177.222 29.6982 176.94 29.9827 176.759 30.1242C176.433 30.3793 176.633 30.0547 177.797 30.0547V20.0547V10.0547C168.862 10.0547 157.785 15.6025 157.785 27.918H167.785ZM177.797 25.2539L177.58 15.2563C175.493 15.3016 172.267 15.7513 169.351 17.9796C165.97 20.5634 164.531 24.3486 164.531 27.918H174.531H184.531C184.531 28.6625 184.395 29.7332 183.854 30.9136C183.297 32.1283 182.458 33.1346 181.495 33.871C179.717 35.2292 178.124 35.2491 178.014 35.2515L177.797 25.2539ZM174.531 27.918H164.531C164.531 31.492 165.982 35.3526 169.496 37.9382C172.488 40.1396 175.76 40.4961 177.797 40.4961V30.4961V20.4961C177.858 20.4961 179.497 20.4658 181.35 21.8294C182.364 22.5757 183.247 23.6099 183.831 24.8656C184.396 26.0805 184.531 27.1768 184.531 27.918H174.531ZM177.797 30.4961V40.4961C179.828 40.4961 183.036 40.1493 186.001 38.0657C189.527 35.5876 191.191 31.7381 191.191 27.918H181.191H171.191C171.191 27.0865 171.355 25.922 171.971 24.6692C172.601 23.3883 173.52 22.3918 174.502 21.7019C176.275 20.4562 177.785 20.4961 177.797 20.4961V30.4961ZM181.191 27.918H191.191C191.191 24.1082 189.545 20.3277 186.146 17.8474C183.251 15.7347 180.085 15.3003 178.01 15.2562L177.797 25.2539L177.584 35.2516C177.528 35.2505 176.06 35.2458 174.357 34.0032C173.422 33.321 172.548 32.3492 171.947 31.1087C171.356 29.8906 171.191 28.7524 171.191 27.918H181.191ZM199.066 43.6875H189.066V49.1875H199.066H209.066V43.6875H199.066ZM199.066 49.1875V39.1875H171.566V49.1875V59.1875H199.066V49.1875ZM171.566 49.1875H181.566V37.457H171.566H161.566V49.1875H171.566ZM171.566 37.457V47.457H178.484V37.457V27.457H171.566V37.457ZM178.484 37.457H168.484V43.6875H178.484H188.484V37.457H178.484ZM178.484 43.6875V53.6875H199.066V43.6875V33.6875H178.484V43.6875Z" fill="white" mask="url(#path-1-outside-1_6524_1745)"/>
</g>
<defs>
<filter id="filter0_d_6524_1745" x="0" y="0" width="216.848" height="67.875" filterUnits="userSpaceOnUse" color-interpolation-filters="sRGB">
<feFlood flood-opacity="0" result="BackgroundImageFix"/>
<feColorMatrix in="SourceAlpha" type="matrix" values="0 0 0 0 0 0 0 0 0 0 0 0 0 0 0 0 0 0 127 0" result="hardAlpha"/>
<feOffset dy="4"/>
<feGaussianBlur stdDeviation="2"/>
<feComposite in2="hardAlpha" operator="out"/>
<feColorMatrix type="matrix" values="0 0 0 0 0 0 0 0 0 0 0 0 0 0 0 0 0 0 0.07 0"/>
<feBlend mode="normal" in2="BackgroundImageFix" result="effect1_dropShadow_6524_1745"/>
<feBlend mode="normal" in="SourceGraphic" in2="effect1_dropShadow_6524_1745" result="shape"/>
</filter>
</defs>
</svg>
