<svg width="177" height="68" viewBox="0 0 177 68" fill="none" xmlns="http://www.w3.org/2000/svg">
<g filter="url(#filter0_d_6526_5691)">
<mask id="path-1-outside-1_6526_5691" maskUnits="userSpaceOnUse" x="3.09766" y="-0.507813" width="170" height="61" fill="black">
<rect fill="white" x="3.09766" y="-0.507813" width="170" height="61"/>
<path d="M50.2656 31.7852V37.2852H42.4453V49.7461H35.4414V37.2852H28.6094V49.7461H21.5625V37.2852H14V31.7852H50.2656ZM32.0039 11.2031C40.6406 11.1602 46.8281 14.7695 46.8281 20.3555C46.8281 25.7695 40.6406 29.207 32.0039 29.207C23.3672 29.207 17.2656 25.7695 17.3086 20.3555C17.2656 14.7695 23.3672 11.1602 32.0039 11.2031ZM32.0039 16.6602C27.2344 16.6602 24.3984 17.8203 24.3984 20.3555C24.3984 22.6758 27.2344 23.793 32.0039 23.8359C36.8594 23.793 39.6523 22.6758 39.6523 20.3555C39.6523 17.8203 36.8594 16.6602 32.0039 16.6602ZM88.3359 39.9062V45.4492H52.0273V39.9062H66.7227V33.332H55.5938V12.3633H62.5117V17.9062L77.6797 17.9062V12.3633H84.5547V33.332H73.5547V39.9062H88.3359ZM62.5117 27.875L77.6797 27.875V23.3203L62.5117 23.3203V27.875ZM113.086 11.9336V17.3477H105.867C106.211 21.3652 108.51 25.4902 114.504 27.4453L111.195 32.7305C106.92 31.4629 104.084 28.9062 102.387 25.6836C100.625 29.25 97.6602 32.1074 93.1055 33.4609L89.582 28.0469C95.9844 26.1348 98.3262 21.5801 98.7344 17.3477H91.4727V11.9336L113.086 11.9336ZM123.871 35.1367V49.7461H116.996V40.5938H96.2422V35.1367H123.871ZM123.871 10V33.6328H116.996V24.6094H112.055V19.0234H116.996V10H123.871ZM161.598 10.0859V38.3164H154.68V10.0859H161.598ZM162.543 43.6875V49.1875L134.398 49.1875V35.4805L141.359 35.4805V43.6875H162.543ZM139.641 12.4492C145.828 12.4492 150.77 16.7461 150.77 22.6328C150.77 28.6484 145.828 32.9023 139.641 32.9023C133.453 32.9023 128.469 28.6484 128.512 22.6328C128.469 16.7461 133.453 12.4492 139.641 12.4492ZM139.641 18.4219C137.105 18.4219 135.215 19.8398 135.215 22.6328C135.215 25.5547 137.105 26.9297 139.641 26.9297C142.047 26.9297 143.938 25.5547 143.938 22.6328C143.938 19.8398 142.047 18.4219 139.641 18.4219Z"/>
</mask>
<path d="M50.2656 31.7852V37.2852H42.4453V49.7461H35.4414V37.2852H28.6094V49.7461H21.5625V37.2852H14V31.7852H50.2656ZM32.0039 11.2031C40.6406 11.1602 46.8281 14.7695 46.8281 20.3555C46.8281 25.7695 40.6406 29.207 32.0039 29.207C23.3672 29.207 17.2656 25.7695 17.3086 20.3555C17.2656 14.7695 23.3672 11.1602 32.0039 11.2031ZM32.0039 16.6602C27.2344 16.6602 24.3984 17.8203 24.3984 20.3555C24.3984 22.6758 27.2344 23.793 32.0039 23.8359C36.8594 23.793 39.6523 22.6758 39.6523 20.3555C39.6523 17.8203 36.8594 16.6602 32.0039 16.6602ZM88.3359 39.9062V45.4492H52.0273V39.9062H66.7227V33.332H55.5938V12.3633H62.5117V17.9062L77.6797 17.9062V12.3633H84.5547V33.332H73.5547V39.9062H88.3359ZM62.5117 27.875L77.6797 27.875V23.3203L62.5117 23.3203V27.875ZM113.086 11.9336V17.3477H105.867C106.211 21.3652 108.51 25.4902 114.504 27.4453L111.195 32.7305C106.92 31.4629 104.084 28.9062 102.387 25.6836C100.625 29.25 97.6602 32.1074 93.1055 33.4609L89.582 28.0469C95.9844 26.1348 98.3262 21.5801 98.7344 17.3477H91.4727V11.9336L113.086 11.9336ZM123.871 35.1367V49.7461H116.996V40.5938H96.2422V35.1367H123.871ZM123.871 10V33.6328H116.996V24.6094H112.055V19.0234H116.996V10H123.871ZM161.598 10.0859V38.3164H154.68V10.0859H161.598ZM162.543 43.6875V49.1875L134.398 49.1875V35.4805L141.359 35.4805V43.6875H162.543ZM139.641 12.4492C145.828 12.4492 150.77 16.7461 150.77 22.6328C150.77 28.6484 145.828 32.9023 139.641 32.9023C133.453 32.9023 128.469 28.6484 128.512 22.6328C128.469 16.7461 133.453 12.4492 139.641 12.4492ZM139.641 18.4219C137.105 18.4219 135.215 19.8398 135.215 22.6328C135.215 25.5547 137.105 26.9297 139.641 26.9297C142.047 26.9297 143.938 25.5547 143.938 22.6328C143.938 19.8398 142.047 18.4219 139.641 18.4219Z" fill="#11DCA9"/>
<path d="M50.2656 31.7852H60.2656C60.2656 26.2623 55.7885 21.7852 50.2656 21.7852V31.7852ZM50.2656 37.2852V47.2852C55.7885 47.2852 60.2656 42.808 60.2656 37.2852H50.2656ZM42.4453 37.2852V27.2852C36.9225 27.2852 32.4453 31.7623 32.4453 37.2852H42.4453ZM42.4453 49.7461V59.7461C47.9682 59.7461 52.4453 55.2689 52.4453 49.7461H42.4453ZM35.4414 49.7461H25.4414C25.4414 55.2689 29.9186 59.7461 35.4414 59.7461V49.7461ZM35.4414 37.2852H45.4414C45.4414 31.7623 40.9643 27.2852 35.4414 27.2852V37.2852ZM28.6094 37.2852V27.2852C23.0865 27.2852 18.6094 31.7623 18.6094 37.2852H28.6094ZM28.6094 49.7461V59.7461C34.1322 59.7461 38.6094 55.2689 38.6094 49.7461H28.6094ZM21.5625 49.7461H11.5625C11.5625 55.2689 16.0397 59.7461 21.5625 59.7461V49.7461ZM21.5625 37.2852H31.5625C31.5625 31.7623 27.0853 27.2852 21.5625 27.2852V37.2852ZM14 37.2852H4C4 42.808 8.47715 47.2852 14 47.2852V37.2852ZM14 31.7852L14 21.7852C8.47715 21.7852 4 26.2623 4 31.7852H14ZM32.0039 11.2031L31.9542 21.203C31.9873 21.2032 32.0205 21.2032 32.0537 21.203L32.0039 11.2031ZM17.3086 20.3555L27.3083 20.4348C27.3087 20.3827 27.3087 20.3306 27.3083 20.2785L17.3086 20.3555ZM32.0039 23.8359L31.9138 33.8355C31.9733 33.8361 32.0329 33.8361 32.0924 33.8355L32.0039 23.8359ZM50.2656 31.7852H40.2656V37.2852H50.2656H60.2656V31.7852H50.2656ZM50.2656 37.2852V27.2852H42.4453V37.2852V47.2852H50.2656V37.2852ZM42.4453 37.2852H32.4453V49.7461H42.4453H52.4453V37.2852H42.4453ZM42.4453 49.7461V39.7461H35.4414V49.7461V59.7461H42.4453V49.7461ZM35.4414 49.7461H45.4414V37.2852H35.4414H25.4414V49.7461H35.4414ZM35.4414 37.2852V27.2852H28.6094V37.2852V47.2852H35.4414V37.2852ZM28.6094 37.2852H18.6094V49.7461H28.6094H38.6094V37.2852H28.6094ZM28.6094 49.7461V39.7461H21.5625V49.7461V59.7461H28.6094V49.7461ZM21.5625 49.7461H31.5625V37.2852H21.5625H11.5625V49.7461H21.5625ZM21.5625 37.2852V27.2852H14L14 37.2852V47.2852H21.5625V37.2852ZM14 37.2852H24V31.7852H14H4V37.2852H14ZM14 31.7852V41.7852H50.2656V31.7852V21.7852H14L14 31.7852ZM32.0039 11.2031L32.0537 21.203C35.1292 21.1877 36.8638 21.8512 37.4636 22.2155C37.7152 22.3683 37.5426 22.3288 37.2906 21.9329C37.0016 21.479 36.8281 20.8939 36.8281 20.3555H46.8281H56.8281C56.8281 13.2776 52.713 8.07746 47.8459 5.12141C43.1929 2.29531 37.5154 1.17558 31.9542 1.20325L32.0039 11.2031ZM46.8281 20.3555H36.8281C36.8281 19.7032 37.0428 19.0256 37.3797 18.515C37.6713 18.0731 37.8738 18.023 37.6062 18.1795C36.9699 18.5516 35.1675 19.207 32.0039 19.207V29.207V39.207C37.477 39.207 43.0867 38.1437 47.7034 35.4435C52.5228 32.6248 56.8281 27.5226 56.8281 20.3555H46.8281ZM32.0039 29.207V19.207C28.8366 19.207 27.0776 18.5503 26.4887 18.2023C26.2471 18.0595 26.4692 18.1285 26.7686 18.5914C27.1117 19.1218 27.3133 19.8027 27.3083 20.4348L17.3086 20.3555L7.30891 20.2761C7.25224 27.4166 11.4749 32.5612 16.3141 35.4208C20.9243 38.145 26.5345 39.207 32.0039 39.207V29.207ZM17.3086 20.3555L27.3083 20.2785C27.3123 20.7976 27.1503 21.3849 26.8558 21.8569C26.5966 22.2722 26.4056 22.3303 26.6315 22.1917C27.1842 21.8525 28.8751 21.1877 31.9542 21.203L32.0039 11.2031L32.0537 1.20325C26.496 1.1756 20.8177 2.29394 16.1712 5.14523C11.2877 8.14194 7.25466 13.3822 7.30889 20.4324L17.3086 20.3555ZM32.0039 16.6602V6.66016C29.1014 6.66016 25.4684 6.96784 22.196 8.48959C20.4493 9.30184 18.4332 10.6337 16.8454 12.804C15.1764 15.0853 14.3984 17.7293 14.3984 20.3555H24.3984H34.3984C34.3984 21.7141 33.975 23.2624 32.9868 24.6131C32.0797 25.8529 31.0707 26.4193 30.6292 26.6247C30.1993 26.8246 30.0438 26.8092 30.3681 26.7579C30.6636 26.7111 31.1935 26.6602 32.0039 26.6602V16.6602ZM24.3984 20.3555H14.3984C14.3984 26.8076 18.8439 30.5435 22.3827 32.1017C25.534 33.4894 29.0405 33.8096 31.9138 33.8355L32.0039 23.8359L32.094 13.8363C31.2616 13.8288 30.6948 13.7747 30.3543 13.7213C29.9839 13.6631 30.075 13.6359 30.4425 13.7977C30.7985 13.9544 31.8104 14.4652 32.7687 15.6804C33.8432 17.0432 34.3984 18.7281 34.3984 20.3555H24.3984ZM32.0039 23.8359L32.0924 33.8355C34.9879 33.8099 38.516 33.4945 41.6788 32.1017C43.3518 31.3651 45.378 30.128 47.0164 28.0336C48.7682 25.7943 49.6523 23.1064 49.6523 20.3555H39.6523H29.6523C29.6523 18.7647 30.1874 17.0866 31.2637 15.7107C32.2267 14.4797 33.2512 13.9596 33.619 13.7977C33.9948 13.6322 34.0896 13.6601 33.7094 13.7193C33.3596 13.7737 32.7764 13.8287 31.9154 13.8363L32.0039 23.8359ZM39.6523 20.3555H49.6523C49.6523 17.7631 48.8964 15.1263 47.233 12.8345C45.647 10.6494 43.6247 9.30765 41.8655 8.48959C38.5813 6.96237 34.9264 6.66016 32.0039 6.66016V16.6602V26.6602C32.8438 26.6602 33.3905 26.712 33.6957 26.7599C34.0302 26.8125 33.8708 26.8286 33.4323 26.6247C32.9783 26.4135 31.9577 25.8372 31.0472 24.5826C30.0591 23.2214 29.6523 21.6803 29.6523 20.3555H39.6523ZM88.3359 39.9062H98.3359C98.3359 34.3834 93.8588 29.9062 88.3359 29.9062V39.9062ZM88.3359 45.4492V55.4492C93.8588 55.4492 98.3359 50.9721 98.3359 45.4492H88.3359ZM52.0273 45.4492H42.0273C42.0273 50.9721 46.5045 55.4492 52.0273 55.4492V45.4492ZM52.0273 39.9062V29.9062C46.5045 29.9062 42.0273 34.3834 42.0273 39.9062H52.0273ZM66.7227 39.9062V49.9062C72.2455 49.9062 76.7227 45.4291 76.7227 39.9062H66.7227ZM66.7227 33.332H76.7227C76.7227 27.8092 72.2455 23.332 66.7227 23.332V33.332ZM55.5938 33.332H45.5938C45.5938 38.8549 50.0709 43.332 55.5938 43.332V33.332ZM55.5938 12.3633V2.36328C50.0709 2.36328 45.5938 6.84043 45.5938 12.3633H55.5938ZM62.5117 12.3633H72.5117C72.5117 6.84043 68.0346 2.36328 62.5117 2.36328V12.3633ZM62.5117 17.9062H52.5117C52.5117 23.4291 56.9889 27.9062 62.5117 27.9062V17.9062ZM77.6797 17.9062V27.9062C83.2025 27.9062 87.6797 23.4291 87.6797 17.9062H77.6797ZM77.6797 12.3633V2.36328C72.1568 2.36328 67.6797 6.84043 67.6797 12.3633H77.6797ZM84.5547 12.3633H94.5547C94.5547 6.84043 90.0775 2.36328 84.5547 2.36328V12.3633ZM84.5547 33.332V43.332C90.0775 43.332 94.5547 38.8549 94.5547 33.332H84.5547ZM73.5547 33.332V23.332C68.0318 23.332 63.5547 27.8092 63.5547 33.332H73.5547ZM73.5547 39.9062H63.5547C63.5547 45.4291 68.0318 49.9062 73.5547 49.9062V39.9062ZM62.5117 27.875H52.5117C52.5117 33.3978 56.9889 37.875 62.5117 37.875V27.875ZM77.6797 27.875V37.875C83.2025 37.875 87.6797 33.3978 87.6797 27.875H77.6797ZM77.6797 23.3203H87.6797C87.6797 17.7975 83.2025 13.3203 77.6797 13.3203V23.3203ZM62.5117 23.3203V13.3203C56.9889 13.3203 52.5117 17.7975 52.5117 23.3203H62.5117ZM88.3359 39.9062H78.3359V45.4492H88.3359H98.3359V39.9062H88.3359ZM88.3359 45.4492V35.4492H52.0273V45.4492V55.4492H88.3359V45.4492ZM52.0273 45.4492H62.0273V39.9062H52.0273H42.0273V45.4492H52.0273ZM52.0273 39.9062V49.9062H66.7227V39.9062V29.9062H52.0273V39.9062ZM66.7227 39.9062H76.7227V33.332H66.7227H56.7227V39.9062H66.7227ZM66.7227 33.332V23.332H55.5938V33.332V43.332H66.7227V33.332ZM55.5938 33.332H65.5938V12.3633H55.5938H45.5938V33.332H55.5938ZM55.5938 12.3633V22.3633H62.5117V12.3633V2.36328L55.5938 2.36328V12.3633ZM62.5117 12.3633H52.5117V17.9062H62.5117H72.5117V12.3633H62.5117ZM62.5117 17.9062V27.9062L77.6797 27.9062V17.9062V7.90625H62.5117V17.9062ZM77.6797 17.9062H87.6797V12.3633H77.6797H67.6797V17.9062L77.6797 17.9062ZM77.6797 12.3633V22.3633H84.5547V12.3633V2.36328H77.6797V12.3633ZM84.5547 12.3633H74.5547V33.332H84.5547H94.5547V12.3633H84.5547ZM84.5547 33.332V23.332L73.5547 23.332V33.332V43.332H84.5547V33.332ZM73.5547 33.332H63.5547V39.9062H73.5547H83.5547V33.332H73.5547ZM73.5547 39.9062V49.9062H88.3359V39.9062V29.9062H73.5547V39.9062ZM62.5117 27.875V37.875H77.6797V27.875V17.875L62.5117 17.875V27.875ZM77.6797 27.875H87.6797V23.3203H77.6797L67.6797 23.3203V27.875L77.6797 27.875ZM77.6797 23.3203V13.3203L62.5117 13.3203V23.3203V33.3203H77.6797V23.3203ZM62.5117 23.3203H52.5117V27.875H62.5117H72.5117V23.3203H62.5117ZM113.086 11.9336H123.086C123.086 6.41075 118.609 1.93359 113.086 1.93359V11.9336ZM113.086 17.3477V27.3477C118.609 27.3477 123.086 22.8705 123.086 17.3477H113.086ZM105.867 17.3477V7.34766C103.067 7.34766 100.395 8.52187 98.5009 10.5847C96.607 12.6475 95.6649 15.41 95.9036 18.2002L105.867 17.3477ZM114.504 27.4453L122.98 32.7515C124.613 30.1428 124.954 26.9274 123.904 24.0343C122.854 21.1411 120.531 18.8926 117.605 17.9382L114.504 27.4453ZM111.195 32.7305L108.353 42.318C112.659 43.5947 117.288 41.8437 119.671 38.0367L111.195 32.7305ZM102.387 25.6836L111.235 21.0237C109.483 17.6983 106.015 15.6357 102.257 15.6844C98.4989 15.7332 95.0855 17.885 93.4209 21.2547L102.387 25.6836ZM93.1055 33.4609L84.7241 38.9155C87.1397 42.6273 91.7089 44.3082 95.954 43.0466L93.1055 33.4609ZM89.582 28.0469L86.7204 18.4651C83.6995 19.3673 81.281 21.6412 80.1946 24.6008C79.1081 27.5604 79.481 30.859 81.2006 33.5014L89.582 28.0469ZM98.7344 17.3477L108.688 18.3077C108.959 15.5015 108.032 12.7115 106.137 10.6246C104.242 8.53762 101.554 7.34766 98.7344 7.34766V17.3477ZM91.4727 17.3477H81.4727C81.4727 22.8705 85.9498 27.3477 91.4727 27.3477V17.3477ZM91.4727 11.9336V1.93359C85.9498 1.93359 81.4727 6.41075 81.4727 11.9336H91.4727ZM123.871 35.1367H133.871C133.871 29.6139 129.394 25.1367 123.871 25.1367V35.1367ZM123.871 49.7461V59.7461C129.394 59.7461 133.871 55.2689 133.871 49.7461H123.871ZM116.996 49.7461H106.996C106.996 55.2689 111.473 59.7461 116.996 59.7461V49.7461ZM116.996 40.5938H126.996C126.996 35.0709 122.519 30.5938 116.996 30.5938V40.5938ZM96.2422 40.5938H86.2422C86.2422 46.1166 90.7193 50.5938 96.2422 50.5938V40.5938ZM96.2422 35.1367V25.1367C90.7193 25.1367 86.2422 29.6139 86.2422 35.1367H96.2422ZM123.871 10H133.871C133.871 4.47715 129.394 0 123.871 0V10ZM123.871 33.6328V43.6328C129.394 43.6328 133.871 39.1557 133.871 33.6328H123.871ZM116.996 33.6328H106.996C106.996 39.1557 111.473 43.6328 116.996 43.6328V33.6328ZM116.996 24.6094H126.996C126.996 19.0865 122.519 14.6094 116.996 14.6094V24.6094ZM112.055 24.6094H102.055C102.055 30.1322 106.532 34.6094 112.055 34.6094V24.6094ZM112.055 19.0234V9.02344C106.532 9.02344 102.055 13.5006 102.055 19.0234H112.055ZM116.996 19.0234V29.0234C122.519 29.0234 126.996 24.5463 126.996 19.0234H116.996ZM116.996 10V0C111.473 0 106.996 4.47715 106.996 10L116.996 10ZM113.086 11.9336L103.086 11.9336V17.3477H113.086H123.086V11.9336H113.086ZM113.086 17.3477V7.34766L105.867 7.34766V17.3477V27.3477H113.086V17.3477ZM105.867 17.3477L95.9036 18.2002C96.2124 21.8092 97.4317 25.7441 100.139 29.2653C102.879 32.8285 106.728 35.4276 111.403 36.9524L114.504 27.4453L117.605 17.9382C116.916 17.7137 116.515 17.4865 116.303 17.3422C116.097 17.2021 116.018 17.1052 115.994 17.0746C115.968 17.0401 115.866 16.9037 115.831 16.4952L105.867 17.3477ZM114.504 27.4453L106.028 22.1391L102.719 27.4243L111.195 32.7305L119.671 38.0367L122.98 32.7515L114.504 27.4453ZM111.195 32.7305L114.038 23.143C113.105 22.8663 112.542 22.5185 112.187 22.2254C111.828 21.9295 111.512 21.55 111.235 21.0237L102.387 25.6836L93.5388 30.3435C96.4751 35.9188 101.459 40.274 108.353 42.318L111.195 32.7305ZM102.387 25.6836L93.4209 21.2547C92.7957 22.5204 91.9426 23.3743 90.2569 23.8752L93.1055 33.4609L95.954 43.0466C103.378 40.8405 108.454 35.9796 111.352 30.1125L102.387 25.6836ZM93.1055 33.4609L101.487 28.0064L97.9634 22.5923L89.582 28.0469L81.2006 33.5014L84.7241 38.9155L93.1055 33.4609ZM89.582 28.0469L92.4437 37.6287C97.5144 36.1143 101.566 33.3369 104.392 29.5854C107.152 25.9231 108.345 21.8708 108.688 18.3077L98.7344 17.3477L88.7806 16.3876C88.716 17.057 88.5335 17.3982 88.4195 17.5494C88.362 17.6258 88.2602 17.7403 88.0518 17.8813C87.838 18.026 87.4303 18.253 86.7204 18.4651L89.582 28.0469ZM98.7344 17.3477V7.34766H91.4727V17.3477V27.3477H98.7344V17.3477ZM91.4727 17.3477H101.473V11.9336H91.4727H81.4727V17.3477H91.4727ZM91.4727 11.9336V21.9336H113.086V11.9336V1.93359L91.4727 1.93359V11.9336ZM123.871 35.1367H113.871V49.7461H123.871H133.871V35.1367H123.871ZM123.871 49.7461V39.7461H116.996V49.7461V59.7461H123.871V49.7461ZM116.996 49.7461H126.996V40.5938H116.996H106.996V49.7461H116.996ZM116.996 40.5938V30.5938H96.2422V40.5938V50.5938H116.996V40.5938ZM96.2422 40.5938H106.242V35.1367H96.2422H86.2422V40.5938H96.2422ZM96.2422 35.1367V45.1367H123.871V35.1367V25.1367H96.2422V35.1367ZM123.871 10H113.871V33.6328H123.871H133.871V10H123.871ZM123.871 33.6328V23.6328H116.996V33.6328V43.6328H123.871V33.6328ZM116.996 33.6328H126.996V24.6094H116.996H106.996V33.6328H116.996ZM116.996 24.6094V14.6094H112.055V24.6094V34.6094H116.996V24.6094ZM112.055 24.6094H122.055V19.0234H112.055H102.055V24.6094H112.055ZM112.055 19.0234V29.0234H116.996V19.0234V9.02344H112.055V19.0234ZM116.996 19.0234H126.996V10H116.996L106.996 10V19.0234H116.996ZM116.996 10V20H123.871V10V0L116.996 0V10ZM161.598 10.0859H171.598C171.598 4.56309 167.12 0.0859375 161.598 0.0859375V10.0859ZM161.598 38.3164V48.3164C167.12 48.3164 171.598 43.8393 171.598 38.3164H161.598ZM154.68 38.3164H144.68C144.68 43.8393 149.157 48.3164 154.68 48.3164V38.3164ZM154.68 10.0859V0.0859375C149.157 0.0859375 144.68 4.56309 144.68 10.0859H154.68ZM162.543 43.6875H172.543C172.543 38.1647 168.066 33.6875 162.543 33.6875V43.6875ZM162.543 49.1875V59.1875C168.066 59.1875 172.543 54.7103 172.543 49.1875H162.543ZM134.398 49.1875H124.398C124.398 54.7103 128.876 59.1875 134.398 59.1875V49.1875ZM134.398 35.4805V25.4805C128.876 25.4805 124.398 29.9576 124.398 35.4805H134.398ZM141.359 35.4805H151.359C151.359 29.9576 146.882 25.4805 141.359 25.4805V35.4805ZM141.359 43.6875L131.359 43.6875C131.359 49.2103 135.837 53.6875 141.359 53.6875V43.6875ZM128.512 22.6328L138.511 22.7042C138.512 22.6561 138.512 22.608 138.511 22.5598L128.512 22.6328ZM161.598 10.0859H151.598V38.3164H161.598H171.598V10.0859H161.598ZM161.598 38.3164V28.3164H154.68V38.3164V48.3164H161.598V38.3164ZM154.68 38.3164H164.68V10.0859H154.68H144.68V38.3164H154.68ZM154.68 10.0859V20.0859H161.598V10.0859V0.0859375H154.68V10.0859ZM162.543 43.6875H152.543V49.1875H162.543H172.543V43.6875H162.543ZM162.543 49.1875V39.1875L134.398 39.1875V49.1875V59.1875L162.543 59.1875V49.1875ZM134.398 49.1875L144.398 49.1875V35.4805L134.398 35.4805H124.398V49.1875H134.398ZM134.398 35.4805V45.4805L141.359 45.4805V35.4805V25.4805H134.398V35.4805ZM141.359 35.4805L131.359 35.4805V43.6875L141.359 43.6875H151.359V35.4805H141.359ZM141.359 43.6875V53.6875H162.543V43.6875V33.6875H141.359V43.6875ZM139.641 12.4492V22.4492C140.427 22.4492 140.778 22.7145 140.831 22.7625C140.857 22.7856 140.83 22.7678 140.799 22.6996C140.764 22.6226 140.77 22.582 140.77 22.6328H150.77H160.77C160.77 10.2688 150.346 2.44922 139.641 2.44922V12.4492ZM150.77 22.6328H140.77C140.77 22.7467 140.751 22.7399 140.781 22.6728C140.808 22.6131 140.836 22.5906 140.82 22.6043C140.79 22.6322 140.452 22.9023 139.641 22.9023V32.9023V42.9023C150.375 42.9023 160.77 35.0994 160.77 22.6328H150.77ZM139.641 32.9023V22.9023C138.823 22.9023 138.471 22.6277 138.435 22.5954C138.42 22.5816 138.454 22.6101 138.488 22.6851C138.525 22.7686 138.511 22.7961 138.511 22.7042L128.512 22.6328L118.512 22.5614C118.422 35.147 128.979 42.9023 139.641 42.9023V32.9023ZM128.512 22.6328L138.511 22.5598C138.511 22.5318 138.513 22.5937 138.47 22.6872C138.432 22.7708 138.398 22.7945 138.424 22.7714C138.482 22.7191 138.848 22.4492 139.641 22.4492V12.4492V2.44922C129.01 2.44922 118.421 10.2208 118.512 22.7058L128.512 22.6328ZM139.641 18.4219V8.42187C136.591 8.42187 132.891 9.281 129.824 12.0143C126.587 14.899 125.215 18.8404 125.215 22.6328H135.215H145.215C145.215 23.6323 144.788 25.4682 143.13 26.9457C141.642 28.2717 140.155 28.4219 139.641 28.4219V18.4219ZM135.215 22.6328H125.215C125.215 26.3614 126.503 30.361 129.796 33.3174C132.915 36.1181 136.663 36.9297 139.641 36.9297V26.9297V16.9297C140.083 16.9297 141.619 17.0538 143.158 18.4365C144.872 19.9749 145.215 21.8261 145.215 22.6328H135.215ZM139.641 26.9297V36.9297C142.672 36.9297 146.388 36.0539 149.449 33.2485C152.655 30.3089 153.938 26.3568 153.938 22.6328H143.938H133.938C133.938 21.8307 134.274 20.027 135.934 18.5054C137.448 17.118 139.015 16.9297 139.641 16.9297V26.9297ZM143.938 22.6328H153.938C153.938 18.8465 152.573 14.9508 149.421 12.0829C146.413 9.347 142.745 8.42187 139.641 8.42187V18.4219V28.4219C138.943 28.4219 137.423 28.2057 135.962 26.8771C134.357 25.4164 133.938 23.6261 133.938 22.6328H143.938Z" fill="white" mask="url(#path-1-outside-1_6526_5691)"/>
</g>
<defs>
<filter id="filter0_d_6526_5691" x="0" y="0" width="176.543" height="67.7461" filterUnits="userSpaceOnUse" color-interpolation-filters="sRGB">
<feFlood flood-opacity="0" result="BackgroundImageFix"/>
<feColorMatrix in="SourceAlpha" type="matrix" values="0 0 0 0 0 0 0 0 0 0 0 0 0 0 0 0 0 0 127 0" result="hardAlpha"/>
<feOffset dy="4"/>
<feGaussianBlur stdDeviation="2"/>
<feComposite in2="hardAlpha" operator="out"/>
<feColorMatrix type="matrix" values="0 0 0 0 0 0 0 0 0 0 0 0 0 0 0 0 0 0 0.07 0"/>
<feBlend mode="normal" in2="BackgroundImageFix" result="effect1_dropShadow_6526_5691"/>
<feBlend mode="normal" in="SourceGraphic" in2="effect1_dropShadow_6526_5691" result="shape"/>
</filter>
</defs>
</svg>
