<svg width="303" height="68" viewBox="0 0 303 68" fill="none" xmlns="http://www.w3.org/2000/svg">
<g filter="url(#filter0_d_6526_5669)">
<mask id="path-1-outside-1_6526_5669" maskUnits="userSpaceOnUse" x="3.09766" y="-0.507813" width="295" height="61" fill="black">
<rect fill="white" x="3.09766" y="-0.507813" width="295" height="61"/>
<path d="M50.2656 31.7852V37.2852H42.4453V49.7461H35.4414V37.2852H28.6094V49.7461H21.5625V37.2852H14V31.7852H50.2656ZM32.0039 11.2031C40.6406 11.1602 46.8281 14.7695 46.8281 20.3555C46.8281 25.7695 40.6406 29.207 32.0039 29.207C23.3672 29.207 17.2656 25.7695 17.3086 20.3555C17.2656 14.7695 23.3672 11.1602 32.0039 11.2031ZM32.0039 16.6602C27.2344 16.6602 24.3984 17.8203 24.3984 20.3555C24.3984 22.6758 27.2344 23.793 32.0039 23.8359C36.8594 23.793 39.6523 22.6758 39.6523 20.3555C39.6523 17.8203 36.8594 16.6602 32.0039 16.6602ZM85.8438 10.0859V38.918H78.9688V30.3672H70.6328C68.6992 32.1934 66.0781 33.2891 63.1992 33.2891C57.1406 33.2891 52.4141 28.7773 52.457 22.8047C52.4141 16.7031 57.1406 12.2344 63.1992 12.2344C66.0996 12.2344 68.7422 13.3301 70.6758 15.1992L78.9688 15.1992V10.0859H85.8438ZM86.7031 43.6875V49.1875H58.9453V36.082H65.8203V43.6875H86.7031ZM63.1992 18.3789C60.707 18.3359 58.9453 19.8398 58.9883 22.8047C58.9453 25.6836 60.707 27.1445 63.1992 27.1875C65.4766 27.1445 67.2812 25.6836 67.3242 22.8047C67.2812 19.8398 65.4766 18.3359 63.1992 18.3789ZM73.6406 24.9102L78.9688 24.9102V20.6562L73.6406 20.6562C73.7695 21.3438 73.8555 22.0527 73.8555 22.8047C73.8555 23.5352 73.7695 24.2441 73.6406 24.9102ZM105.91 14.8984C105.91 20.0117 107.801 24.8672 114.547 26.8437L110.938 32.2148C106.834 30.8613 104.17 28.4336 102.559 25.2539C100.797 29.0137 97.7461 31.9785 93.1055 33.4609L89.4531 27.9609C96.7578 25.7695 98.9062 20.3984 98.9492 15.2422V11.9766H105.91V14.8984ZM123.871 10V33.1602H116.996V22.1172H110.465V16.5312H116.996V10H123.871ZM110.035 34.1055C118.672 34.1055 123.957 37.0273 123.957 41.9688C123.957 46.9531 118.672 49.832 110.035 49.832C101.484 49.832 96.1992 46.9531 96.1992 41.9688C96.1992 37.0273 101.484 34.1055 110.035 34.1055ZM110.035 39.3906C105.309 39.3906 103.031 40.1211 103.074 41.9688C103.031 43.7305 105.309 44.5039 110.035 44.5039C114.805 44.5039 117.125 43.7305 117.125 41.9688C117.125 40.1211 114.805 39.3906 110.035 39.3906ZM161.641 10V49.875H154.68V10H161.641ZM139.812 12.6641C145.871 12.6211 150.426 18.207 150.426 26.9727C150.426 35.8672 145.871 41.4102 139.812 41.4102C133.625 41.4102 129.027 35.8672 129.027 26.9727C129.027 18.207 133.625 12.6211 139.812 12.6641ZM139.812 18.8945C137.277 18.8516 135.688 21.4727 135.688 26.9727C135.688 32.5586 137.277 35.0938 139.812 35.0938C142.176 35.0937 143.809 32.5586 143.809 26.9727C143.809 21.4727 142.176 18.8516 139.812 18.8945ZM186.434 12.6641C192.621 12.6211 197.176 18.207 197.176 26.9727C197.176 35.8672 192.621 41.4102 186.434 41.4102C180.203 41.4102 175.605 35.8672 175.648 26.9727C175.605 18.207 180.203 12.6211 186.434 12.6641ZM186.434 18.8945C183.941 18.8516 182.309 21.4727 182.352 26.9727C182.309 32.5586 183.941 35.0937 186.434 35.0937C188.969 35.0937 190.559 32.5586 190.602 26.9727C190.559 21.4727 188.969 18.8516 186.434 18.8945ZM207.402 10V24.4375H212.773V30.1523H207.402V49.7461H200.484V10H207.402ZM230.434 13.4375C230.391 17.3477 232.496 21.0859 239.5 22.5469L236.449 27.918C231.744 26.8652 228.672 24.6523 226.867 21.6875C225.041 24.9316 221.904 27.4238 217.07 28.5625L213.891 23.2344C221.023 21.6875 223.215 17.4766 223.215 13.4375V11.5898H230.434V13.4375ZM247.664 10.0859V49.7031H240.789V10.0859H247.664ZM213.934 30.3672C220.809 30.4102 230.52 30.3242 238.727 29.1211L239.199 34.0195C236.277 34.6211 233.27 35.0508 230.305 35.3086V48.5859H223.387V35.7812C220.271 35.8887 217.328 35.9102 214.75 35.9102L213.934 30.3672ZM288.012 28.8633V34.2344H273.703V40.3789H266.699V34.2344H251.746V28.8633H288.012ZM284.059 43.6875V49.1875H255.785V37.1133H262.746V43.6875H284.059ZM269.879 10.6445C278.559 10.6445 284.445 13.9102 284.445 19.0664C284.445 24.1797 278.559 27.4023 269.879 27.4023C261.113 27.4023 255.227 24.1797 255.227 19.0664C255.227 13.9102 261.113 10.6445 269.879 10.6445ZM269.879 16.0156C265.41 16.0156 262.66 16.918 262.703 19.0664C262.66 21.043 265.41 21.9023 269.879 21.9453C274.305 21.9023 277.012 21.043 277.012 19.0664C277.012 16.918 274.305 16.0156 269.879 16.0156Z"/>
</mask>
<path d="M50.2656 31.7852V37.2852H42.4453V49.7461H35.4414V37.2852H28.6094V49.7461H21.5625V37.2852H14V31.7852H50.2656ZM32.0039 11.2031C40.6406 11.1602 46.8281 14.7695 46.8281 20.3555C46.8281 25.7695 40.6406 29.207 32.0039 29.207C23.3672 29.207 17.2656 25.7695 17.3086 20.3555C17.2656 14.7695 23.3672 11.1602 32.0039 11.2031ZM32.0039 16.6602C27.2344 16.6602 24.3984 17.8203 24.3984 20.3555C24.3984 22.6758 27.2344 23.793 32.0039 23.8359C36.8594 23.793 39.6523 22.6758 39.6523 20.3555C39.6523 17.8203 36.8594 16.6602 32.0039 16.6602ZM85.8438 10.0859V38.918H78.9688V30.3672H70.6328C68.6992 32.1934 66.0781 33.2891 63.1992 33.2891C57.1406 33.2891 52.4141 28.7773 52.457 22.8047C52.4141 16.7031 57.1406 12.2344 63.1992 12.2344C66.0996 12.2344 68.7422 13.3301 70.6758 15.1992L78.9688 15.1992V10.0859H85.8438ZM86.7031 43.6875V49.1875H58.9453V36.082H65.8203V43.6875H86.7031ZM63.1992 18.3789C60.707 18.3359 58.9453 19.8398 58.9883 22.8047C58.9453 25.6836 60.707 27.1445 63.1992 27.1875C65.4766 27.1445 67.2812 25.6836 67.3242 22.8047C67.2812 19.8398 65.4766 18.3359 63.1992 18.3789ZM73.6406 24.9102L78.9688 24.9102V20.6562L73.6406 20.6562C73.7695 21.3438 73.8555 22.0527 73.8555 22.8047C73.8555 23.5352 73.7695 24.2441 73.6406 24.9102ZM105.91 14.8984C105.91 20.0117 107.801 24.8672 114.547 26.8437L110.938 32.2148C106.834 30.8613 104.17 28.4336 102.559 25.2539C100.797 29.0137 97.7461 31.9785 93.1055 33.4609L89.4531 27.9609C96.7578 25.7695 98.9062 20.3984 98.9492 15.2422V11.9766H105.91V14.8984ZM123.871 10V33.1602H116.996V22.1172H110.465V16.5312H116.996V10H123.871ZM110.035 34.1055C118.672 34.1055 123.957 37.0273 123.957 41.9688C123.957 46.9531 118.672 49.832 110.035 49.832C101.484 49.832 96.1992 46.9531 96.1992 41.9688C96.1992 37.0273 101.484 34.1055 110.035 34.1055ZM110.035 39.3906C105.309 39.3906 103.031 40.1211 103.074 41.9688C103.031 43.7305 105.309 44.5039 110.035 44.5039C114.805 44.5039 117.125 43.7305 117.125 41.9688C117.125 40.1211 114.805 39.3906 110.035 39.3906ZM161.641 10V49.875H154.68V10H161.641ZM139.812 12.6641C145.871 12.6211 150.426 18.207 150.426 26.9727C150.426 35.8672 145.871 41.4102 139.812 41.4102C133.625 41.4102 129.027 35.8672 129.027 26.9727C129.027 18.207 133.625 12.6211 139.812 12.6641ZM139.812 18.8945C137.277 18.8516 135.688 21.4727 135.688 26.9727C135.688 32.5586 137.277 35.0938 139.812 35.0938C142.176 35.0937 143.809 32.5586 143.809 26.9727C143.809 21.4727 142.176 18.8516 139.812 18.8945ZM186.434 12.6641C192.621 12.6211 197.176 18.207 197.176 26.9727C197.176 35.8672 192.621 41.4102 186.434 41.4102C180.203 41.4102 175.605 35.8672 175.648 26.9727C175.605 18.207 180.203 12.6211 186.434 12.6641ZM186.434 18.8945C183.941 18.8516 182.309 21.4727 182.352 26.9727C182.309 32.5586 183.941 35.0937 186.434 35.0937C188.969 35.0937 190.559 32.5586 190.602 26.9727C190.559 21.4727 188.969 18.8516 186.434 18.8945ZM207.402 10V24.4375H212.773V30.1523H207.402V49.7461H200.484V10H207.402ZM230.434 13.4375C230.391 17.3477 232.496 21.0859 239.5 22.5469L236.449 27.918C231.744 26.8652 228.672 24.6523 226.867 21.6875C225.041 24.9316 221.904 27.4238 217.07 28.5625L213.891 23.2344C221.023 21.6875 223.215 17.4766 223.215 13.4375V11.5898H230.434V13.4375ZM247.664 10.0859V49.7031H240.789V10.0859H247.664ZM213.934 30.3672C220.809 30.4102 230.52 30.3242 238.727 29.1211L239.199 34.0195C236.277 34.6211 233.27 35.0508 230.305 35.3086V48.5859H223.387V35.7812C220.271 35.8887 217.328 35.9102 214.75 35.9102L213.934 30.3672ZM288.012 28.8633V34.2344H273.703V40.3789H266.699V34.2344H251.746V28.8633H288.012ZM284.059 43.6875V49.1875H255.785V37.1133H262.746V43.6875H284.059ZM269.879 10.6445C278.559 10.6445 284.445 13.9102 284.445 19.0664C284.445 24.1797 278.559 27.4023 269.879 27.4023C261.113 27.4023 255.227 24.1797 255.227 19.0664C255.227 13.9102 261.113 10.6445 269.879 10.6445ZM269.879 16.0156C265.41 16.0156 262.66 16.918 262.703 19.0664C262.66 21.043 265.41 21.9023 269.879 21.9453C274.305 21.9023 277.012 21.043 277.012 19.0664C277.012 16.918 274.305 16.0156 269.879 16.0156Z" fill="#11DCA9"/>
<path d="M50.2656 31.7852H60.2656C60.2656 26.2623 55.7885 21.7852 50.2656 21.7852V31.7852ZM50.2656 37.2852V47.2852C55.7885 47.2852 60.2656 42.808 60.2656 37.2852H50.2656ZM42.4453 37.2852V27.2852C36.9225 27.2852 32.4453 31.7623 32.4453 37.2852H42.4453ZM42.4453 49.7461V59.7461C47.9682 59.7461 52.4453 55.2689 52.4453 49.7461H42.4453ZM35.4414 49.7461H25.4414C25.4414 55.2689 29.9186 59.7461 35.4414 59.7461V49.7461ZM35.4414 37.2852H45.4414C45.4414 31.7623 40.9643 27.2852 35.4414 27.2852V37.2852ZM28.6094 37.2852V27.2852C23.0865 27.2852 18.6094 31.7623 18.6094 37.2852H28.6094ZM28.6094 49.7461V59.7461C34.1322 59.7461 38.6094 55.2689 38.6094 49.7461H28.6094ZM21.5625 49.7461H11.5625C11.5625 55.2689 16.0397 59.7461 21.5625 59.7461V49.7461ZM21.5625 37.2852H31.5625C31.5625 31.7623 27.0853 27.2852 21.5625 27.2852V37.2852ZM14 37.2852H4C4 42.808 8.47715 47.2852 14 47.2852V37.2852ZM14 31.7852L14 21.7852C8.47715 21.7852 4 26.2623 4 31.7852H14ZM32.0039 11.2031L31.9542 21.203C31.9873 21.2032 32.0205 21.2032 32.0537 21.203L32.0039 11.2031ZM17.3086 20.3555L27.3083 20.4348C27.3087 20.3827 27.3087 20.3306 27.3083 20.2785L17.3086 20.3555ZM32.0039 23.8359L31.9138 33.8355C31.9733 33.8361 32.0329 33.8361 32.0924 33.8355L32.0039 23.8359ZM50.2656 31.7852H40.2656V37.2852H50.2656H60.2656V31.7852H50.2656ZM50.2656 37.2852V27.2852H42.4453V37.2852V47.2852H50.2656V37.2852ZM42.4453 37.2852H32.4453V49.7461H42.4453H52.4453V37.2852H42.4453ZM42.4453 49.7461V39.7461H35.4414V49.7461V59.7461H42.4453V49.7461ZM35.4414 49.7461H45.4414V37.2852H35.4414H25.4414V49.7461H35.4414ZM35.4414 37.2852V27.2852H28.6094V37.2852V47.2852H35.4414V37.2852ZM28.6094 37.2852H18.6094V49.7461H28.6094H38.6094V37.2852H28.6094ZM28.6094 49.7461V39.7461H21.5625V49.7461V59.7461H28.6094V49.7461ZM21.5625 49.7461H31.5625V37.2852H21.5625H11.5625V49.7461H21.5625ZM21.5625 37.2852V27.2852H14L14 37.2852V47.2852H21.5625V37.2852ZM14 37.2852H24V31.7852H14H4V37.2852H14ZM14 31.7852V41.7852H50.2656V31.7852V21.7852H14L14 31.7852ZM32.0039 11.2031L32.0537 21.203C35.1292 21.1877 36.8638 21.8512 37.4636 22.2155C37.7152 22.3683 37.5426 22.3288 37.2906 21.9329C37.0016 21.479 36.8281 20.8939 36.8281 20.3555H46.8281H56.8281C56.8281 13.2776 52.713 8.07746 47.8459 5.12141C43.1929 2.29531 37.5154 1.17558 31.9542 1.20325L32.0039 11.2031ZM46.8281 20.3555H36.8281C36.8281 19.7032 37.0428 19.0256 37.3797 18.515C37.6713 18.0731 37.8738 18.023 37.6062 18.1795C36.9699 18.5516 35.1675 19.207 32.0039 19.207V29.207V39.207C37.477 39.207 43.0867 38.1437 47.7034 35.4435C52.5228 32.6248 56.8281 27.5226 56.8281 20.3555H46.8281ZM32.0039 29.207V19.207C28.8366 19.207 27.0776 18.5503 26.4887 18.2023C26.2471 18.0595 26.4692 18.1285 26.7686 18.5914C27.1117 19.1218 27.3133 19.8027 27.3083 20.4348L17.3086 20.3555L7.30891 20.2761C7.25224 27.4166 11.4749 32.5612 16.3141 35.4208C20.9243 38.145 26.5345 39.207 32.0039 39.207V29.207ZM17.3086 20.3555L27.3083 20.2785C27.3123 20.7976 27.1503 21.3849 26.8558 21.8569C26.5966 22.2722 26.4056 22.3303 26.6315 22.1917C27.1842 21.8525 28.8751 21.1877 31.9542 21.203L32.0039 11.2031L32.0537 1.20325C26.496 1.1756 20.8177 2.29394 16.1712 5.14523C11.2877 8.14194 7.25466 13.3822 7.30889 20.4324L17.3086 20.3555ZM32.0039 16.6602V6.66016C29.1014 6.66016 25.4684 6.96784 22.196 8.48959C20.4493 9.30184 18.4332 10.6337 16.8454 12.804C15.1764 15.0853 14.3984 17.7293 14.3984 20.3555H24.3984H34.3984C34.3984 21.7141 33.975 23.2624 32.9868 24.6131C32.0797 25.8529 31.0707 26.4193 30.6292 26.6247C30.1993 26.8246 30.0438 26.8092 30.3681 26.7579C30.6636 26.7111 31.1935 26.6602 32.0039 26.6602V16.6602ZM24.3984 20.3555H14.3984C14.3984 26.8076 18.8439 30.5435 22.3827 32.1017C25.534 33.4894 29.0405 33.8096 31.9138 33.8355L32.0039 23.8359L32.094 13.8363C31.2616 13.8288 30.6948 13.7747 30.3543 13.7213C29.9839 13.6631 30.075 13.6359 30.4425 13.7977C30.7985 13.9544 31.8104 14.4652 32.7687 15.6804C33.8432 17.0432 34.3984 18.7281 34.3984 20.3555H24.3984ZM32.0039 23.8359L32.0924 33.8355C34.9879 33.8099 38.516 33.4945 41.6788 32.1017C43.3518 31.3651 45.378 30.128 47.0164 28.0336C48.7682 25.7943 49.6523 23.1064 49.6523 20.3555H39.6523H29.6523C29.6523 18.7647 30.1874 17.0866 31.2637 15.7107C32.2267 14.4797 33.2512 13.9596 33.619 13.7977C33.9948 13.6322 34.0896 13.6601 33.7094 13.7193C33.3596 13.7737 32.7764 13.8287 31.9154 13.8363L32.0039 23.8359ZM39.6523 20.3555H49.6523C49.6523 17.7631 48.8964 15.1263 47.233 12.8345C45.647 10.6494 43.6247 9.30765 41.8655 8.48959C38.5813 6.96237 34.9264 6.66016 32.0039 6.66016V16.6602V26.6602C32.8438 26.6602 33.3905 26.712 33.6957 26.7599C34.0302 26.8125 33.8708 26.8286 33.4323 26.6247C32.9783 26.4135 31.9577 25.8372 31.0472 24.5826C30.0591 23.2214 29.6523 21.6803 29.6523 20.3555H39.6523ZM85.8438 10.0859H95.8438C95.8438 4.56309 91.3666 0.0859375 85.8438 0.0859375V10.0859ZM85.8438 38.918V48.918C91.3666 48.918 95.8438 44.4408 95.8438 38.918H85.8438ZM78.9688 38.918H68.9688C68.9688 44.4408 73.4459 48.918 78.9688 48.918V38.918ZM78.9688 30.3672H88.9688C88.9688 24.8443 84.4916 20.3672 78.9688 20.3672V30.3672ZM70.6328 30.3672V20.3672C68.0795 20.3672 65.6229 21.3439 63.7666 23.0971L70.6328 30.3672ZM52.457 22.8047L62.4568 22.8766C62.4571 22.8292 62.4571 22.7817 62.4568 22.7343L52.457 22.8047ZM70.6758 15.1992L63.7256 22.3891C65.5902 24.1916 68.0823 25.1992 70.6758 25.1992V15.1992ZM78.9688 15.1992V25.1992C84.4916 25.1992 88.9688 20.7221 88.9688 15.1992H78.9688ZM78.9688 10.0859V0.0859375C73.4459 0.0859375 68.9688 4.56309 68.9688 10.0859H78.9688ZM86.7031 43.6875H96.7031C96.7031 38.1647 92.226 33.6875 86.7031 33.6875V43.6875ZM86.7031 49.1875V59.1875C92.226 59.1875 96.7031 54.7103 96.7031 49.1875H86.7031ZM58.9453 49.1875H48.9453C48.9453 54.7103 53.4225 59.1875 58.9453 59.1875V49.1875ZM58.9453 36.082V26.082C53.4225 26.082 48.9453 30.5592 48.9453 36.082H58.9453ZM65.8203 36.082H75.8203C75.8203 30.5592 71.3432 26.082 65.8203 26.082V36.082ZM65.8203 43.6875H55.8203C55.8203 49.2103 60.2975 53.6875 65.8203 53.6875V43.6875ZM63.1992 18.3789L63.0268 28.3774C63.1472 28.3795 63.2675 28.3794 63.3879 28.3771L63.1992 18.3789ZM58.9883 22.8047L68.9872 22.9539C68.9886 22.8559 68.9887 22.7578 68.9872 22.6598L58.9883 22.8047ZM63.1992 27.1875L63.0268 37.186C63.1472 37.1881 63.2675 37.188 63.3879 37.1857L63.1992 27.1875ZM67.3242 22.8047L77.3231 22.9539C77.3246 22.8559 77.3246 22.7578 77.3232 22.6598L67.3242 22.8047ZM73.6406 24.9102L63.8228 23.0099C63.2556 25.9406 64.0273 28.9714 65.9269 31.274C67.8266 33.5766 70.6556 34.9102 73.6406 34.9102V24.9102ZM78.9688 24.9102V34.9102C84.4916 34.9102 88.9688 30.433 88.9688 24.9102H78.9688ZM78.9688 20.6562H88.9688C88.9688 15.1334 84.4916 10.6562 78.9688 10.6562V20.6562ZM73.6406 20.6562V10.6562C70.6658 10.6562 67.8454 11.9807 65.9455 14.2699C64.0457 16.5591 63.2637 19.5752 63.8119 22.4991L73.6406 20.6562ZM85.8438 10.0859H75.8438V38.918H85.8438H95.8438V10.0859H85.8438ZM85.8438 38.918V28.918H78.9688V38.918V48.918H85.8438V38.918ZM78.9688 38.918H88.9688V30.3672H78.9688H68.9688V38.918H78.9688ZM78.9688 30.3672V20.3672L70.6328 20.3672V30.3672V40.3672H78.9688V30.3672ZM70.6328 30.3672L63.7666 23.0971C63.7141 23.1467 63.6457 23.1926 63.56 23.2268C63.4784 23.2594 63.3624 23.2891 63.1992 23.2891V33.2891V43.2891C68.6561 43.2891 73.7271 41.1997 77.499 37.6373L70.6328 30.3672ZM63.1992 33.2891V23.2891C62.9322 23.2891 62.7598 23.2408 62.6635 23.2024C62.5642 23.1628 62.5168 23.1225 62.5006 23.1067C62.4856 23.0922 62.4835 23.0861 62.4817 23.082C62.48 23.0778 62.4745 23.064 62.4691 23.0364C62.4637 23.009 62.4562 22.9574 62.4568 22.8766L52.457 22.8047L42.4573 22.7327C42.3718 34.6144 51.9547 43.2891 63.1992 43.2891V33.2891ZM52.457 22.8047L62.4568 22.7343C62.4553 22.5223 62.493 22.4328 62.497 22.4231C62.5028 22.4091 62.5052 22.4069 62.5108 22.4014C62.5183 22.3941 62.5566 22.3589 62.651 22.3213C62.7436 22.2846 62.9197 22.2344 63.1992 22.2344V12.2344V2.23437C51.9263 2.23437 42.3729 10.8931 42.4573 22.8751L52.457 22.8047ZM63.1992 12.2344V22.2344C63.3839 22.2344 63.5047 22.268 63.576 22.2966C63.6495 22.3261 63.6958 22.3604 63.7256 22.3891L70.6758 15.1992L77.626 8.00933C73.8007 4.31155 68.6553 2.23437 63.1992 2.23437V12.2344ZM70.6758 15.1992V25.1992L78.9688 25.1992V15.1992V5.19922H70.6758V15.1992ZM78.9688 15.1992H88.9688V10.0859H78.9688H68.9688V15.1992L78.9688 15.1992ZM78.9688 10.0859V20.0859H85.8438V10.0859V0.0859375L78.9688 0.0859375V10.0859ZM86.7031 43.6875H76.7031V49.1875H86.7031H96.7031V43.6875H86.7031ZM86.7031 49.1875V39.1875H58.9453V49.1875V59.1875H86.7031V49.1875ZM58.9453 49.1875H68.9453V36.082H58.9453H48.9453V49.1875H58.9453ZM58.9453 36.082V46.082H65.8203V36.082V26.082H58.9453V36.082ZM65.8203 36.082H55.8203V43.6875H65.8203H75.8203V36.082H65.8203ZM65.8203 43.6875V53.6875H86.7031V43.6875V33.6875H65.8203V43.6875ZM63.1992 18.3789L63.3716 8.38039C60.093 8.32386 56.1862 9.3009 53.0976 12.3673C49.9794 15.4631 48.9386 19.4508 48.9893 22.9496L58.9883 22.8047L68.9872 22.6598C68.995 23.1937 68.8136 24.9471 67.1886 26.5604C65.5931 28.1444 63.8133 28.391 63.0268 28.3774L63.1992 18.3789ZM58.9883 22.8047L48.9894 22.6555C48.9362 26.2192 50.0418 30.1667 53.1496 33.2074C56.1651 36.1578 59.9217 37.1325 63.0268 37.186L63.1992 27.1875L63.3716 17.189C63.9846 17.1996 65.6142 17.4222 67.1366 18.9118C68.7511 20.4915 68.9974 22.2691 68.9872 22.9539L58.9883 22.8047ZM63.1992 27.1875L63.3879 37.1857C66.6066 37.125 70.237 36.0222 73.1189 33.1821C76.0568 30.2868 77.2699 26.5219 77.3231 22.9539L67.3242 22.8047L57.3253 22.6555C57.3356 21.9664 57.6249 20.3714 59.0803 18.9371C60.4798 17.5579 62.0692 17.207 63.0106 17.1893L63.1992 27.1875ZM67.3242 22.8047L77.3232 22.6598C77.2723 19.1521 76.1227 15.3448 73.1707 12.3928C70.2208 9.44294 66.4319 8.31613 63.0106 8.38069L63.1992 18.3789L63.3879 28.3771C62.2439 28.3987 60.496 28.0024 59.0285 26.5349C57.5589 25.0653 57.3331 23.4924 57.3253 22.9496L67.3242 22.8047ZM73.6406 24.9102V34.9102H78.9688V24.9102V14.9102L73.6406 14.9102V24.9102ZM78.9688 24.9102H88.9688V20.6562H78.9688L68.9688 20.6562V24.9102L78.9688 24.9102ZM78.9688 20.6562V10.6562H73.6406V20.6562V30.6562H78.9688V20.6562ZM73.6406 20.6562L63.8119 22.4991C63.859 22.7501 63.8555 22.8237 63.8555 22.8047H73.8555L83.8555 22.8047C83.8555 21.2818 83.6801 19.9374 83.4693 18.8134L73.6406 20.6562ZM73.8555 22.8047H63.8555C63.8555 22.7788 63.8569 22.7822 63.853 22.8189C63.8491 22.8559 63.8405 22.9184 63.8228 23.0099L73.6406 24.9102L83.4584 26.8104C83.6793 25.6693 83.8555 24.3103 83.8555 22.8047L73.8555 22.8047ZM114.547 26.8437L122.847 32.4214C124.625 29.7754 125.035 26.4403 123.951 23.4425C122.866 20.4447 120.418 18.1435 117.359 17.2472L114.547 26.8437ZM110.938 32.2148L107.805 41.7116C112.064 43.1162 116.736 41.5143 119.238 37.7925L110.938 32.2148ZM102.559 25.2539L111.479 20.7336C109.75 17.3227 106.228 15.1961 102.404 15.2551C98.5809 15.3141 95.1259 17.5483 93.5034 21.0109L102.559 25.2539ZM93.1055 33.4609L84.775 38.9929C87.2476 42.7163 91.8908 44.3468 96.1484 42.9867L93.1055 33.4609ZM89.4531 27.9609L86.5796 18.3827C83.5464 19.2927 81.1234 21.5856 80.0477 24.5642C78.972 27.5427 79.3707 30.8548 81.1226 33.4929L89.4531 27.9609ZM98.9492 15.2422L108.949 15.3255C108.949 15.2977 108.949 15.27 108.949 15.2422H98.9492ZM98.9492 11.9766V1.97656C93.4264 1.97656 88.9492 6.45372 88.9492 11.9766H98.9492ZM105.91 11.9766L115.91 11.9766C115.91 6.45372 111.433 1.97656 105.91 1.97656V11.9766ZM123.871 10H133.871C133.871 4.47715 129.394 0 123.871 0V10ZM123.871 33.1602V43.1602C129.394 43.1602 133.871 38.683 133.871 33.1602H123.871ZM116.996 33.1602H106.996C106.996 38.683 111.473 43.1602 116.996 43.1602V33.1602ZM116.996 22.1172H126.996C126.996 16.5943 122.519 12.1172 116.996 12.1172V22.1172ZM110.465 22.1172H100.465C100.465 27.64 104.942 32.1172 110.465 32.1172V22.1172ZM110.465 16.5312V6.53125C104.942 6.53125 100.465 11.0084 100.465 16.5312H110.465ZM116.996 16.5312V26.5312C122.519 26.5312 126.996 22.0541 126.996 16.5312H116.996ZM116.996 10V0C111.473 0 106.996 4.47715 106.996 10L116.996 10ZM103.074 41.9688L113.071 42.2126C113.075 42.0538 113.075 41.895 113.072 41.7363L103.074 41.9688ZM105.91 14.8984H95.9102C95.9102 18.5877 96.5786 23.134 99.2248 27.3571C102.006 31.7959 106.332 34.8574 111.735 36.4403L114.547 26.8437L117.359 17.2472C116.617 17.0298 116.293 16.8184 116.206 16.7553C116.135 16.704 116.152 16.705 116.173 16.7376C116.187 16.7606 115.91 16.3225 115.91 14.8984H105.91ZM114.547 26.8437L106.247 21.2661L102.637 26.6372L110.938 32.2148L119.238 37.7925L122.847 32.4214L114.547 26.8437ZM110.938 32.2148L114.07 22.7181C113.116 22.4036 112.591 22.0553 112.291 21.8005C111.996 21.5502 111.729 21.2285 111.479 20.7336L102.559 25.2539L93.6386 29.7742C96.4813 35.3839 101.267 39.5551 107.805 41.7116L110.938 32.2148ZM102.559 25.2539L93.5034 21.0109C92.8713 22.3599 91.9372 23.3363 90.0625 23.9352L93.1055 33.4609L96.1484 42.9867C103.555 40.6207 108.722 35.6675 111.614 29.4969L102.559 25.2539ZM93.1055 33.4609L101.436 27.929L97.7836 22.429L89.4531 27.9609L81.1226 33.4929L84.775 38.9929L93.1055 33.4609ZM89.4531 27.9609L92.3266 37.5392C98.0203 35.8311 102.458 32.5928 105.333 28.126C108.097 23.8322 108.917 19.189 108.949 15.3255L98.9492 15.2422L88.9496 15.1589C88.9388 16.4516 88.663 17.0721 88.5158 17.3008C88.4505 17.4022 88.3509 17.5271 88.1384 17.6813C87.9153 17.8432 87.4499 18.1216 86.5796 18.3827L89.4531 27.9609ZM98.9492 15.2422H108.949V11.9766H98.9492H88.9492V15.2422H98.9492ZM98.9492 11.9766V21.9766H105.91V11.9766V1.97656H98.9492V11.9766ZM105.91 11.9766H95.9102V14.8984H105.91H115.91V11.9766L105.91 11.9766ZM123.871 10H113.871V33.1602H123.871H133.871V10H123.871ZM123.871 33.1602V23.1602H116.996V33.1602V43.1602H123.871V33.1602ZM116.996 33.1602H126.996V22.1172H116.996H106.996V33.1602H116.996ZM116.996 22.1172V12.1172H110.465V22.1172V32.1172H116.996V22.1172ZM110.465 22.1172H120.465V16.5312H110.465H100.465V22.1172H110.465ZM110.465 16.5312V26.5312H116.996V16.5312V6.53125H110.465V16.5312ZM116.996 16.5312H126.996V10H116.996L106.996 10V16.5312H116.996ZM116.996 10V20H123.871V10V0L116.996 0V10ZM110.035 34.1055V44.1055C111.649 44.1055 112.911 44.2436 113.843 44.4348C114.791 44.6296 115.237 44.8463 115.339 44.9035C115.424 44.9514 115.032 44.7512 114.615 44.1096C114.156 43.4045 113.957 42.6082 113.957 41.9688H123.957H133.957C133.957 35.1815 130.021 30.2108 125.131 27.4647C120.66 24.9541 115.259 24.1055 110.035 24.1055V34.1055ZM123.957 41.9688H113.957C113.957 41.3567 114.147 40.5662 114.609 39.854C115.031 39.2044 115.432 38.9981 115.354 39.0418C115.257 39.0959 114.814 39.3111 113.861 39.5049C112.926 39.6952 111.658 39.832 110.035 39.832V49.832V59.832C115.236 59.832 120.639 59.0014 125.116 56.4973C130.04 53.7433 133.957 48.7584 133.957 41.9688H123.957ZM110.035 49.832V39.832C108.44 39.832 107.192 39.6961 106.273 39.5077C105.335 39.3158 104.901 39.1031 104.809 39.0512C104.734 39.0094 105.132 39.2162 105.551 39.8621C106.01 40.5703 106.199 41.357 106.199 41.9688H96.1992H86.1992C86.1992 48.7508 90.1075 53.7322 95.0127 56.4879C99.4791 58.9972 104.863 59.832 110.035 59.832V49.832ZM96.1992 41.9688H106.199C106.199 42.6078 106.001 43.4005 105.546 44.1015C105.131 44.7394 104.742 44.9401 104.823 44.8941C104.921 44.839 105.358 44.6249 106.291 44.432C107.207 44.2426 108.449 44.1055 110.035 44.1055V34.1055V24.1055C104.84 24.1055 99.4577 24.9585 94.9978 27.4741C90.1262 30.2219 86.1992 35.1891 86.1992 41.9688H96.1992ZM110.035 39.3906V29.3906C107.501 29.3906 104.275 29.5407 101.394 30.5724C99.8585 31.1224 97.6882 32.1758 95.8854 34.2798C93.8832 36.6165 93.0131 39.4575 93.0769 42.2012L103.074 41.9688L113.072 41.7363C113.114 43.5562 112.512 45.613 111.073 47.2931C109.833 48.7404 108.519 49.2648 108.138 49.4013C107.72 49.5509 107.61 49.5215 108.05 49.4727C108.447 49.4286 109.085 49.3906 110.035 49.3906V39.3906ZM103.074 41.9688L93.0772 41.7249C93.0076 44.5775 93.9614 47.4255 95.966 49.7076C97.7579 51.7475 99.8908 52.7729 101.394 53.3114C104.25 54.3341 107.446 54.5039 110.035 54.5039V44.5039V34.5039C109.102 34.5039 108.472 34.4645 108.08 34.4199C107.648 34.3706 107.742 34.3406 108.138 34.4825C108.487 34.6075 109.763 35.1092 110.992 36.5086C112.434 38.1502 113.119 40.2408 113.071 42.2126L103.074 41.9688ZM110.035 44.5039V54.5039C112.652 54.5039 115.839 54.3317 118.686 53.3308C120.18 52.8055 122.283 51.8135 124.077 49.8464C126.083 47.647 127.125 44.8516 127.125 41.9688H117.125H107.125C107.125 39.9667 107.877 37.9287 109.299 36.3698C110.509 35.0432 111.734 34.5749 112.052 34.4631C112.418 34.3344 112.484 34.3679 112.036 34.4184C111.627 34.4644 110.981 34.5039 110.035 34.5039V44.5039ZM117.125 41.9688H127.125C127.125 39.1918 126.168 36.3978 124.159 34.14C122.352 32.1085 120.211 31.0893 118.686 30.5529C115.814 29.5433 112.598 29.3906 110.035 29.3906V39.3906V49.3906C110.998 49.3906 111.652 49.4287 112.066 49.4741C112.521 49.524 112.439 49.5569 112.052 49.4207C111.703 49.2979 110.439 48.8077 109.216 47.4329C107.792 45.8317 107.125 43.8219 107.125 41.9688H117.125ZM161.641 10H171.641C171.641 4.47715 167.163 0 161.641 0V10ZM161.641 49.875V59.875C167.163 59.875 171.641 55.3978 171.641 49.875H161.641ZM154.68 49.875H144.68C144.68 55.3978 149.157 59.875 154.68 59.875V49.875ZM154.68 10V0C149.157 0 144.68 4.47715 144.68 10H154.68ZM139.812 12.6641L139.743 22.6638C139.79 22.6641 139.837 22.6641 139.883 22.6638L139.812 12.6641ZM139.812 18.8945L139.643 28.8931C139.76 28.8951 139.877 28.895 139.994 28.8929L139.812 18.8945ZM161.641 10H151.641V49.875H161.641H171.641V10H161.641ZM161.641 49.875V39.875H154.68V49.875V59.875H161.641V49.875ZM154.68 49.875H164.68V10H154.68H144.68V49.875H154.68ZM154.68 10V20H161.641V10V0H154.68V10ZM139.812 12.6641L139.883 22.6638C139.816 22.6643 139.646 22.6406 139.471 22.5508C139.309 22.4681 139.318 22.4198 139.439 22.5782C139.709 22.9327 140.426 24.2334 140.426 26.9727H150.426H160.426C160.426 20.9463 158.865 15.0712 155.343 10.4521C151.696 5.66819 146.163 2.61877 139.742 2.66431L139.812 12.6641ZM150.426 26.9727H140.426C140.426 29.8028 139.696 31.1249 139.426 31.4804C139.306 31.6391 139.294 31.594 139.449 31.5147C139.614 31.4293 139.767 31.4102 139.812 31.4102V41.4102V51.4102C146.186 51.4102 151.705 48.3834 155.356 43.5733C158.878 38.9337 160.426 33.0371 160.426 26.9727H150.426ZM139.812 41.4102V31.4102C139.791 31.4102 139.896 31.4135 140.033 31.483C140.161 31.5479 140.143 31.5815 140.023 31.4265C139.758 31.0816 139.027 29.7839 139.027 26.9727H129.027H119.027C119.027 33.056 120.596 38.977 124.176 43.6273C127.889 48.4498 133.45 51.4102 139.812 51.4102V41.4102ZM129.027 26.9727H139.027C139.027 24.2526 139.744 22.9762 140.011 22.632C140.13 22.4774 140.147 22.5139 140.011 22.5822C139.951 22.6127 139.884 22.6363 139.822 22.6507C139.76 22.6649 139.73 22.6637 139.743 22.6638L139.812 12.6641L139.882 2.6643C133.473 2.6198 127.898 5.60151 124.189 10.3982C120.609 15.0277 119.027 20.9271 119.027 26.9727H129.027ZM139.812 18.8945L139.982 8.89597C134.35 8.80052 130.152 12.0746 127.979 16.1436C126.138 19.59 125.688 23.5385 125.688 26.9727H135.688H145.688C145.688 26.0559 145.756 25.4897 145.808 25.2055C145.865 24.8993 145.871 25.0966 145.62 25.5664C145.354 26.0649 144.727 26.9904 143.513 27.7722C142.235 28.5955 140.839 28.9134 139.643 28.8931L139.812 18.8945ZM135.688 26.9727H125.688C125.688 30.4271 126.131 34.3944 127.987 37.8541C130.201 41.9836 134.376 45.0938 139.812 45.0938V35.0938V25.0937C140.923 25.0937 142.258 25.3965 143.505 26.1982C144.702 26.9673 145.334 27.8831 145.612 28.4018C145.871 28.8846 145.867 29.0928 145.81 28.7849C145.757 28.4977 145.688 27.9194 145.688 26.9727H135.688ZM139.812 35.0938V45.0938C145.412 45.0937 149.463 41.7294 151.539 37.7986C153.338 34.3926 153.809 30.4806 153.809 26.9727H143.809H133.809C133.809 27.9039 133.739 28.4806 133.685 28.7724C133.627 29.0842 133.617 28.9062 133.855 28.4572C134.103 27.9865 134.699 27.0851 135.871 26.3005C137.111 25.4703 138.52 25.0937 139.812 25.0937V35.0938ZM143.809 26.9727H153.809C153.809 23.4853 153.331 19.5914 151.547 16.199C149.516 12.3393 145.437 8.79061 139.631 8.89618L139.812 18.8945L139.994 28.8929C138.608 28.9181 137.133 28.5217 135.863 27.6697C134.674 26.8723 134.084 25.9614 133.847 25.511C133.617 25.075 133.628 24.9078 133.686 25.218C133.74 25.507 133.809 26.0715 133.809 26.9727H143.809ZM186.434 12.6641L186.365 22.6638C186.411 22.6641 186.457 22.6641 186.503 22.6638L186.434 12.6641ZM175.648 26.9727L185.648 27.021C185.648 26.9885 185.648 26.9561 185.648 26.9236L175.648 26.9727ZM186.434 18.8945L186.261 28.893C186.375 28.895 186.489 28.895 186.603 28.8931L186.434 18.8945ZM182.352 26.9727L192.351 27.0496C192.352 26.9979 192.352 26.9462 192.351 26.8945L182.352 26.9727ZM190.602 26.9727L200.601 27.0496C200.602 26.9979 200.602 26.9462 200.601 26.8945L190.602 26.9727ZM207.402 10H217.402C217.402 4.47715 212.925 0 207.402 0V10ZM207.402 24.4375L197.402 24.4375C197.402 29.9603 201.88 34.4375 207.402 34.4375V24.4375ZM212.773 24.4375H222.773C222.773 18.9147 218.296 14.4375 212.773 14.4375V24.4375ZM212.773 30.1523V40.1523C218.296 40.1523 222.773 35.6752 222.773 30.1523H212.773ZM207.402 30.1523V20.1523C201.88 20.1523 197.402 24.6295 197.402 30.1523H207.402ZM207.402 49.7461V59.7461C212.925 59.7461 217.402 55.2689 217.402 49.7461H207.402ZM200.484 49.7461H190.484C190.484 55.2689 194.962 59.7461 200.484 59.7461V49.7461ZM200.484 10V0C194.962 0 190.484 4.47715 190.484 10H200.484ZM186.434 12.6641L186.503 22.6638C186.516 22.6637 186.484 22.665 186.418 22.6499C186.353 22.6347 186.282 22.6095 186.217 22.5766C186.072 22.5031 186.082 22.4599 186.197 22.6106C186.459 22.9505 187.176 24.2317 187.176 26.9727H197.176L207.176 26.9727C207.176 20.9479 205.615 15.0534 202.053 10.4197C198.354 5.60936 192.781 2.61974 186.364 2.6643L186.434 12.6641ZM197.176 26.9727H187.176C187.176 29.8046 186.446 31.1072 186.185 31.4479C186.069 31.599 186.057 31.5588 186.195 31.4887C186.342 31.4138 186.454 31.4102 186.434 31.4102V41.4102V51.4102C192.804 51.4102 198.363 48.4419 202.065 43.6058C205.629 38.9514 207.176 33.0353 207.176 26.9727L197.176 26.9727ZM186.434 41.4102V31.4102C186.39 31.4102 186.482 31.4084 186.615 31.4756C186.741 31.5387 186.725 31.5734 186.612 31.4265C186.36 31.0989 185.635 29.8217 185.648 27.021L175.648 26.9727L165.649 26.9243C165.619 33.0181 167.171 38.9597 170.765 43.6273C174.493 48.4697 180.074 51.4102 186.434 51.4102V41.4102ZM175.648 26.9727L185.648 26.9236C185.635 24.2146 186.347 22.9589 186.599 22.632C186.713 22.4855 186.726 22.5231 186.593 22.5896C186.451 22.661 186.343 22.6637 186.365 22.6638L186.434 12.6641L186.503 2.6643C180.096 2.62012 174.502 5.58142 170.778 10.3982C167.185 15.045 165.619 20.9651 165.649 27.0217L175.648 26.9727ZM186.434 18.8945L186.606 8.89602C180.957 8.79863 176.775 12.1116 174.621 16.1436C172.773 19.6031 172.325 23.5663 172.352 27.0508L182.352 26.9727L192.351 26.8945C192.344 25.9979 192.409 25.4486 192.458 25.1804C192.511 24.8914 192.514 25.0946 192.262 25.5664C191.997 26.0636 191.376 26.9806 190.174 27.7591C188.906 28.5797 187.5 28.9144 186.261 28.893L186.434 18.8945ZM182.352 26.9727L172.352 26.8957C172.325 30.3994 172.767 34.3811 174.629 37.8541C176.825 41.9486 180.983 45.0937 186.434 45.0937V35.0937V25.0937C187.585 25.0937 188.929 25.4122 190.166 26.2113C191.351 26.977 191.977 27.8844 192.255 28.4018C192.515 28.8866 192.512 29.1007 192.46 28.8099C192.41 28.5386 192.344 27.9768 192.351 27.0496L182.352 26.9727ZM186.434 35.0937V45.0937C191.872 45.0937 196.034 41.9832 198.25 37.8816C200.108 34.4431 200.575 30.4931 200.601 27.0496L190.602 26.9727L180.602 26.8957C180.595 27.8483 180.521 28.4335 180.465 28.7288C180.405 29.0449 180.399 28.8465 180.654 28.3742C180.928 27.867 181.556 26.9593 182.746 26.1949C183.989 25.3971 185.322 25.0937 186.434 25.0937V35.0937ZM190.602 26.9727L200.601 26.8945C200.575 23.4723 200.101 19.5413 198.258 16.1161C196.083 12.0751 191.898 8.80048 186.264 8.89597L186.434 18.8945L186.603 28.8931C185.406 28.9134 184.012 28.5949 182.738 27.7755C181.53 26.9985 180.909 26.0811 180.646 25.5939C180.399 25.1346 180.406 24.9472 180.467 25.2618C180.523 25.5544 180.595 26.1278 180.602 27.0508L190.602 26.9727ZM207.402 10H197.402V24.4375L207.402 24.4375H217.402V10H207.402ZM207.402 24.4375V34.4375H212.773V24.4375V14.4375H207.402V24.4375ZM212.773 24.4375L202.773 24.4375V30.1523H212.773H222.773V24.4375H212.773ZM212.773 30.1523V20.1523H207.402V30.1523V40.1523H212.773V30.1523ZM207.402 30.1523H197.402V49.7461H207.402H217.402V30.1523H207.402ZM207.402 49.7461V39.7461H200.484V49.7461V59.7461H207.402V49.7461ZM200.484 49.7461H210.484V10H200.484H190.484V49.7461H200.484ZM200.484 10V20L207.402 20V10V0H200.484V10ZM230.434 13.4375L240.433 13.5474C240.433 13.5108 240.434 13.4741 240.434 13.4375H230.434ZM239.5 22.5469L248.195 27.4858C249.773 24.7074 249.929 21.3421 248.613 18.4301C247.298 15.5181 244.67 13.41 241.542 12.7576L239.5 22.5469ZM236.449 27.918L234.266 37.6767C238.557 38.6369 242.973 36.6807 245.144 32.8569L236.449 27.918ZM226.867 21.6875L235.409 16.488C233.563 13.455 230.247 11.6284 226.697 11.689C223.147 11.7495 219.895 13.688 218.153 16.7821L226.867 21.6875ZM217.07 28.5625L208.483 33.6871C210.717 37.4308 215.12 39.2957 219.363 38.2961L217.07 28.5625ZM213.891 23.2344L211.771 13.4615C208.625 14.1438 206 16.299 204.718 19.252C203.436 22.205 203.654 25.5945 205.303 28.3589L213.891 23.2344ZM223.215 11.5898V1.58984C217.692 1.58984 213.215 6.067 213.215 11.5898H223.215ZM230.434 11.5898L240.434 11.5898C240.434 6.067 235.956 1.58984 230.434 1.58984V11.5898ZM247.664 10.0859H257.664C257.664 4.56309 253.187 0.0859375 247.664 0.0859375V10.0859ZM247.664 49.7031V59.7031C253.187 59.7031 257.664 55.226 257.664 49.7031H247.664ZM240.789 49.7031H230.789C230.789 55.226 235.266 59.7031 240.789 59.7031V49.7031ZM240.789 10.0859V0.0859375C235.266 0.0859375 230.789 4.56309 230.789 10.0859L240.789 10.0859ZM213.934 30.3672L213.996 20.3674C211.079 20.3491 208.299 21.6058 206.385 23.808C204.472 26.0101 203.615 28.9381 204.04 31.8243L213.934 30.3672ZM238.727 29.1211L248.68 28.1606C248.417 25.4355 247.049 22.9373 244.893 21.249C242.738 19.5606 239.985 18.8297 237.276 19.2268L238.727 29.1211ZM239.199 34.0195L241.216 43.8141C246.221 42.7836 249.644 38.1455 249.153 33.0591L239.199 34.0195ZM230.305 35.3086L229.438 25.3462C224.271 25.7955 220.305 30.1215 220.305 35.3086H230.305ZM230.305 48.5859V58.5859C235.828 58.5859 240.305 54.1088 240.305 48.5859H230.305ZM223.387 48.5859H213.387C213.387 54.1088 217.864 58.5859 223.387 58.5859V48.5859ZM223.387 35.7812H233.387C233.387 33.0693 232.285 30.4737 230.335 28.5894C228.384 26.7051 225.752 25.6937 223.042 25.7872L223.387 35.7812ZM214.75 35.9102L204.857 37.3673C205.579 42.2744 209.79 45.9102 214.75 45.9102V35.9102ZM230.434 13.4375L220.434 13.3276C220.392 17.1723 221.442 21.6354 224.778 25.4724C228.028 29.2097 232.544 31.3111 237.458 32.3362L239.5 22.5469L241.542 12.7576C239.452 12.3217 239.413 11.8235 239.87 12.3489C240.088 12.5993 240.258 12.9098 240.355 13.2071C240.443 13.4776 240.432 13.616 240.433 13.5474L230.434 13.4375ZM239.5 22.5469L230.805 17.608L227.754 22.9791L236.449 27.918L245.144 32.8569L248.195 27.4858L239.5 22.5469ZM236.449 27.918L238.633 18.1593C237.284 17.8575 236.523 17.4696 236.121 17.2014C235.746 16.9514 235.55 16.7194 235.409 16.488L226.867 21.6875L218.325 26.887C221.786 32.5722 227.405 36.1416 234.266 37.6767L236.449 27.918ZM226.867 21.6875L218.153 16.7821C217.922 17.1918 217.638 17.5211 217.231 17.8156C216.811 18.1199 216.067 18.5252 214.778 18.8289L217.07 28.5625L219.363 38.2961C226.66 36.5774 232.259 32.4957 235.581 26.5929L226.867 21.6875ZM217.07 28.5625L225.657 23.4379L222.478 18.1098L213.891 23.2344L205.303 28.3589L208.483 33.6871L217.07 28.5625ZM213.891 23.2344L216.01 33.0072C221.216 31.8781 225.757 29.5078 228.952 25.6209C232.149 21.7328 233.215 17.2794 233.215 13.4375H223.215H213.215C213.215 13.5495 213.199 13.5237 213.24 13.3976C213.286 13.2525 213.376 13.0739 213.503 12.9201C213.629 12.7663 213.675 12.7799 213.478 12.8898C213.264 13.0097 212.747 13.25 211.771 13.4615L213.891 23.2344ZM223.215 13.4375H233.215V11.5898H223.215H213.215V13.4375H223.215ZM223.215 11.5898V21.5898H230.434V11.5898V1.58984H223.215V11.5898ZM230.434 11.5898H220.434V13.4375H230.434H240.434V11.5898L230.434 11.5898ZM247.664 10.0859H237.664V49.7031H247.664H257.664V10.0859H247.664ZM247.664 49.7031V39.7031H240.789V49.7031V59.7031H247.664V49.7031ZM240.789 49.7031H250.789V10.0859H240.789L230.789 10.0859V49.7031H240.789ZM240.789 10.0859V20.0859H247.664V10.0859V0.0859375L240.789 0.0859375V10.0859ZM213.934 30.3672L213.871 40.367C220.752 40.41 231.142 40.3398 240.177 39.0153L238.727 29.1211L237.276 19.2268C229.897 20.3086 220.865 20.4103 213.996 20.3674L213.934 30.3672ZM238.727 29.1211L228.773 30.0815L229.245 34.98L239.199 34.0195L249.153 33.0591L248.68 28.1606L238.727 29.1211ZM239.199 34.0195L237.183 24.225C234.66 24.7444 232.037 25.1202 229.438 25.3462L230.305 35.3086L231.171 45.271C234.502 44.9813 237.895 44.4978 241.216 43.8141L239.199 34.0195ZM230.305 35.3086H220.305V48.5859H230.305H240.305V35.3086H230.305ZM230.305 48.5859V38.5859H223.387V48.5859V58.5859H230.305V48.5859ZM223.387 48.5859H233.387V35.7812H223.387H213.387V48.5859H223.387ZM223.387 35.7812L223.042 25.7872C220.091 25.8889 217.277 25.9102 214.75 25.9102V35.9102V45.9102C217.379 45.9102 220.452 45.8884 223.731 45.7753L223.387 35.7812ZM214.75 35.9102L224.643 34.453L223.827 28.91L213.934 30.3672L204.04 31.8243L204.857 37.3673L214.75 35.9102ZM288.012 28.8633H298.012C298.012 23.3404 293.535 18.8633 288.012 18.8633V28.8633ZM288.012 34.2344V44.2344C293.535 44.2344 298.012 39.7572 298.012 34.2344H288.012ZM273.703 34.2344V24.2344C268.18 24.2344 263.703 28.7115 263.703 34.2344H273.703ZM273.703 40.3789V50.3789C279.226 50.3789 283.703 45.9018 283.703 40.3789H273.703ZM266.699 40.3789H256.699C256.699 45.9018 261.176 50.3789 266.699 50.3789V40.3789ZM266.699 34.2344H276.699C276.699 28.7115 272.222 24.2344 266.699 24.2344V34.2344ZM251.746 34.2344H241.746C241.746 39.7572 246.223 44.2344 251.746 44.2344V34.2344ZM251.746 28.8633V18.8633C246.223 18.8633 241.746 23.3404 241.746 28.8633H251.746ZM284.059 43.6875H294.059C294.059 38.1647 289.581 33.6875 284.059 33.6875V43.6875ZM284.059 49.1875V59.1875C289.581 59.1875 294.059 54.7103 294.059 49.1875H284.059ZM255.785 49.1875H245.785C245.785 54.7103 250.262 59.1875 255.785 59.1875V49.1875ZM255.785 37.1133V27.1133C250.262 27.1133 245.785 31.5904 245.785 37.1133H255.785ZM262.746 37.1133H272.746C272.746 31.5904 268.269 27.1133 262.746 27.1133V37.1133ZM262.746 43.6875H252.746C252.746 49.2103 257.223 53.6875 262.746 53.6875V43.6875ZM262.703 19.0664L272.701 19.2837C272.704 19.1447 272.704 19.0055 272.701 18.8664L262.703 19.0664ZM269.879 21.9453L269.783 31.9449C269.847 31.9455 269.912 31.9455 269.976 31.9448L269.879 21.9453ZM288.012 28.8633H278.012V34.2344H288.012H298.012V28.8633H288.012ZM288.012 34.2344V24.2344H273.703V34.2344V44.2344H288.012V34.2344ZM273.703 34.2344H263.703V40.3789H273.703H283.703V34.2344H273.703ZM273.703 40.3789V30.3789H266.699V40.3789V50.3789H273.703V40.3789ZM266.699 40.3789H276.699V34.2344H266.699H256.699V40.3789H266.699ZM266.699 34.2344V24.2344H251.746V34.2344V44.2344H266.699V34.2344ZM251.746 34.2344H261.746V28.8633H251.746H241.746V34.2344H251.746ZM251.746 28.8633V38.8633H288.012V28.8633V18.8633H251.746V28.8633ZM284.059 43.6875H274.059V49.1875H284.059H294.059V43.6875H284.059ZM284.059 49.1875V39.1875H255.785V49.1875V59.1875H284.059V49.1875ZM255.785 49.1875H265.785V37.1133H255.785H245.785V49.1875H255.785ZM255.785 37.1133V47.1133H262.746V37.1133V27.1133H255.785V37.1133ZM262.746 37.1133H252.746V43.6875H262.746H272.746V37.1133H262.746ZM262.746 43.6875V53.6875H284.059V43.6875V33.6875H262.746V43.6875ZM269.879 10.6445V20.6445C273.148 20.6445 274.901 21.2872 275.456 21.6043C275.677 21.7309 275.411 21.6354 275.069 21.1222C274.68 20.5377 274.445 19.7837 274.445 19.0664H284.445H294.445C294.445 11.9931 290.174 6.98009 285.378 4.23944C280.82 1.63466 275.29 0.644531 269.879 0.644531V10.6445ZM284.445 19.0664H274.445C274.445 18.319 274.691 17.5405 275.095 16.9414C275.448 16.4166 275.722 16.3186 275.497 16.4459C274.934 16.7639 273.166 17.4023 269.879 17.4023V27.4023V37.4023C275.271 37.4023 280.786 36.4294 285.337 33.8578C290.121 31.1543 294.445 26.1664 294.445 19.0664H284.445ZM269.879 27.4023V17.4023C266.534 17.4023 264.742 16.7591 264.17 16.4371C263.941 16.3083 264.217 16.4059 264.574 16.9339C264.98 17.5368 265.227 18.3185 265.227 19.0664H255.227H245.227C245.227 26.1735 249.559 31.1642 254.361 33.8666C258.924 36.4343 264.458 37.4023 269.879 37.4023V27.4023ZM255.227 19.0664H265.227C265.227 19.7841 264.992 20.5414 264.599 21.1297C264.254 21.6461 263.986 21.7414 264.211 21.6132C264.775 21.2922 266.553 20.6445 269.879 20.6445V10.6445V0.644531C264.439 0.644531 258.891 1.62965 254.32 4.23051C249.505 6.9701 245.227 11.9861 245.227 19.0664H255.227ZM269.879 16.0156V6.01562C267.263 6.01562 263.928 6.23892 260.899 7.44505C259.307 8.07916 257.215 9.21345 255.489 11.2894C253.601 13.5602 252.647 16.3714 252.705 19.2664L262.703 19.0664L272.701 18.8664C272.738 20.6872 272.112 22.5799 270.867 24.0773C269.783 25.3798 268.651 25.8857 268.299 26.0257C267.917 26.1777 267.818 26.1519 268.189 26.1023C268.525 26.0575 269.076 26.0156 269.879 26.0156V16.0156ZM262.703 19.0664L252.705 18.8491C252.638 21.9454 253.759 24.8155 255.728 27.0144C257.492 28.9853 259.571 30.0228 261.075 30.5892C263.983 31.6844 267.201 31.92 269.783 31.9449L269.879 21.9453L269.975 11.9458C269.148 11.9378 268.561 11.8925 268.182 11.8422C267.767 11.7872 267.805 11.7528 268.124 11.8727C268.387 11.9718 269.507 12.4212 270.628 13.6737C271.954 15.1542 272.747 17.1757 272.701 19.2837L262.703 19.0664ZM269.879 21.9453L269.976 31.9448C272.544 31.9199 275.751 31.683 278.656 30.5791C281.648 29.4425 287.012 26.0887 287.012 19.0664H277.012H267.012C267.012 17.0286 267.798 15.0872 269.083 13.6582C270.181 12.4371 271.274 11.989 271.554 11.8828C271.88 11.7589 271.93 11.7906 271.531 11.844C271.167 11.8929 270.595 11.9379 269.782 11.9458L269.879 21.9453ZM277.012 19.0664H287.012C287.012 16.2326 286.049 13.4938 284.195 11.2736C282.489 9.23035 280.429 8.09759 278.833 7.45618C275.806 6.24019 272.482 6.01562 269.879 6.01562V16.0156V26.0156C270.668 26.0156 271.203 26.0572 271.524 26.1005C271.879 26.1483 271.767 26.1711 271.377 26.0145C271.011 25.8673 269.904 25.3629 268.844 24.0931C267.636 22.6463 267.012 20.826 267.012 19.0664H277.012Z" fill="white" mask="url(#path-1-outside-1_6526_5669)"/>
</g>
<defs>
<filter id="filter0_d_6526_5669" x="0" y="0" width="302.012" height="67.875" filterUnits="userSpaceOnUse" color-interpolation-filters="sRGB">
<feFlood flood-opacity="0" result="BackgroundImageFix"/>
<feColorMatrix in="SourceAlpha" type="matrix" values="0 0 0 0 0 0 0 0 0 0 0 0 0 0 0 0 0 0 127 0" result="hardAlpha"/>
<feOffset dy="4"/>
<feGaussianBlur stdDeviation="2"/>
<feComposite in2="hardAlpha" operator="out"/>
<feColorMatrix type="matrix" values="0 0 0 0 0 0 0 0 0 0 0 0 0 0 0 0 0 0 0.07 0"/>
<feBlend mode="normal" in2="BackgroundImageFix" result="effect1_dropShadow_6526_5669"/>
<feBlend mode="normal" in="SourceGraphic" in2="effect1_dropShadow_6526_5669" result="shape"/>
</filter>
</defs>
</svg>
