<svg width="226" height="68" viewBox="0 0 226 68" fill="none" xmlns="http://www.w3.org/2000/svg">
<g filter="url(#filter0_d_6524_1755)">
<mask id="path-1-outside-1_6524_1755" maskUnits="userSpaceOnUse" x="3.09766" y="-0.507813" width="219" height="61" fill="black">
<rect fill="white" x="3.09766" y="-0.507813" width="219" height="61"/>
<path d="M50.2656 28.1758V33.5039H14L14 28.1758H50.2656ZM32.0469 34.9648C40.6836 34.9648 45.9258 37.6289 45.9688 42.4414C45.9258 47.168 40.6836 49.832 32.0469 49.832C23.2812 49.832 17.9961 47.168 17.9961 42.4414C17.9961 37.6289 23.2812 34.9648 32.0469 34.9648ZM32.0469 40.1641C27.1055 40.1641 25 40.7656 25.043 42.4414C25 44.0312 27.1055 44.6328 32.0469 44.6328C36.8594 44.6328 39.0508 44.0312 39.0508 42.4414C39.0508 40.7656 36.8594 40.1641 32.0469 40.1641ZM32.1328 10.7734C40.9414 10.8164 46.7852 13.8672 46.8281 18.7227C46.7852 23.6211 40.9414 26.6289 32.1328 26.6719C23.2383 26.6289 17.3516 23.6211 17.3945 18.7227C17.3516 13.8672 23.2383 10.8164 32.1328 10.7734ZM32.1328 16.0586C27.1055 16.1016 24.5273 16.7891 24.5703 18.7227C24.5273 20.6133 27.1055 21.3438 32.1328 21.3438C37.0312 21.3438 39.6953 20.6133 39.6953 18.7227C39.6953 16.7891 37.0312 16.1016 32.1328 16.0586ZM83.8242 10V18.1641H88.7656V23.75H83.8242V31.3555H76.9062V10H83.8242ZM71.1484 12.2773V17.7344H60.2344V25.168C66.8945 25.1465 70.4824 24.9102 74.3711 24.0508L75.0586 29.5078C70.4609 30.4961 65.9492 30.668 56.8398 30.7109H53.3594V12.2773H71.1484ZM64.0156 33.1172V35.9961H76.9062V33.1172H83.8242V49.3594H57.1406V33.1172H64.0156ZM64.0156 43.9453H76.9062V41.3672H64.0156V43.9453ZM123.613 10V49.875H116.652V10H123.613ZM101.785 12.6641C107.844 12.6211 112.398 18.207 112.398 26.9727C112.398 35.8672 107.844 41.4102 101.785 41.4102C95.5977 41.4102 91 35.8672 91 26.9727C91 18.207 95.5977 12.6211 101.785 12.6641ZM101.785 18.8945C99.25 18.8516 97.6602 21.4727 97.6602 26.9727C97.6602 32.5586 99.25 35.0938 101.785 35.0938C104.148 35.0938 105.781 32.5586 105.781 26.9727C105.781 21.4727 104.148 18.8516 101.785 18.8945ZM171.309 10V24.1797H174.445V29.8516H171.309V49.7461H164.52V10H171.309ZM143.207 13.5234V22.1172H144.152V13.5234H149.695V40.8516L137.621 40.8516V13.5234H143.207ZM143.207 35.3086H144.152V27.4883H143.207V35.3086ZM156.398 13.5234V22.1172H157.516V13.5234H163.102V40.8516H150.941V13.5234H156.398ZM156.398 35.3086H157.516V27.4883H156.398V35.3086ZM211.957 31.1406V36.6406H175.691V31.1406H211.957ZM208.648 43.6875V49.1875H180.117V38.2305H186.949V43.6875H208.648ZM207.746 10.6445V22.418L186.906 22.418V24.2227L208.391 24.2227V29.3359H180.074V17.5625H200.871V15.9297H180.031V10.6445H207.746Z"/>
</mask>
<path d="M50.2656 28.1758V33.5039H14L14 28.1758H50.2656ZM32.0469 34.9648C40.6836 34.9648 45.9258 37.6289 45.9688 42.4414C45.9258 47.168 40.6836 49.832 32.0469 49.832C23.2812 49.832 17.9961 47.168 17.9961 42.4414C17.9961 37.6289 23.2812 34.9648 32.0469 34.9648ZM32.0469 40.1641C27.1055 40.1641 25 40.7656 25.043 42.4414C25 44.0312 27.1055 44.6328 32.0469 44.6328C36.8594 44.6328 39.0508 44.0312 39.0508 42.4414C39.0508 40.7656 36.8594 40.1641 32.0469 40.1641ZM32.1328 10.7734C40.9414 10.8164 46.7852 13.8672 46.8281 18.7227C46.7852 23.6211 40.9414 26.6289 32.1328 26.6719C23.2383 26.6289 17.3516 23.6211 17.3945 18.7227C17.3516 13.8672 23.2383 10.8164 32.1328 10.7734ZM32.1328 16.0586C27.1055 16.1016 24.5273 16.7891 24.5703 18.7227C24.5273 20.6133 27.1055 21.3438 32.1328 21.3438C37.0312 21.3438 39.6953 20.6133 39.6953 18.7227C39.6953 16.7891 37.0312 16.1016 32.1328 16.0586ZM83.8242 10V18.1641H88.7656V23.75H83.8242V31.3555H76.9062V10H83.8242ZM71.1484 12.2773V17.7344H60.2344V25.168C66.8945 25.1465 70.4824 24.9102 74.3711 24.0508L75.0586 29.5078C70.4609 30.4961 65.9492 30.668 56.8398 30.7109H53.3594V12.2773H71.1484ZM64.0156 33.1172V35.9961H76.9062V33.1172H83.8242V49.3594H57.1406V33.1172H64.0156ZM64.0156 43.9453H76.9062V41.3672H64.0156V43.9453ZM123.613 10V49.875H116.652V10H123.613ZM101.785 12.6641C107.844 12.6211 112.398 18.207 112.398 26.9727C112.398 35.8672 107.844 41.4102 101.785 41.4102C95.5977 41.4102 91 35.8672 91 26.9727C91 18.207 95.5977 12.6211 101.785 12.6641ZM101.785 18.8945C99.25 18.8516 97.6602 21.4727 97.6602 26.9727C97.6602 32.5586 99.25 35.0938 101.785 35.0938C104.148 35.0938 105.781 32.5586 105.781 26.9727C105.781 21.4727 104.148 18.8516 101.785 18.8945ZM171.309 10V24.1797H174.445V29.8516H171.309V49.7461H164.52V10H171.309ZM143.207 13.5234V22.1172H144.152V13.5234H149.695V40.8516L137.621 40.8516V13.5234H143.207ZM143.207 35.3086H144.152V27.4883H143.207V35.3086ZM156.398 13.5234V22.1172H157.516V13.5234H163.102V40.8516H150.941V13.5234H156.398ZM156.398 35.3086H157.516V27.4883H156.398V35.3086ZM211.957 31.1406V36.6406H175.691V31.1406H211.957ZM208.648 43.6875V49.1875H180.117V38.2305H186.949V43.6875H208.648ZM207.746 10.6445V22.418L186.906 22.418V24.2227L208.391 24.2227V29.3359H180.074V17.5625H200.871V15.9297H180.031V10.6445H207.746Z" fill="#11DCA9"/>
<path d="M50.2656 28.1758H60.2656C60.2656 22.6529 55.7885 18.1758 50.2656 18.1758V28.1758ZM50.2656 33.5039V43.5039C55.7885 43.5039 60.2656 39.0268 60.2656 33.5039H50.2656ZM14 33.5039H4C4 39.0268 8.47715 43.5039 14 43.5039V33.5039ZM14 28.1758V18.1758C8.47715 18.1758 4 22.6529 4 28.1758H14ZM45.9688 42.4414L55.9683 42.5323C55.9689 42.4723 55.9689 42.4122 55.9684 42.3521L45.9688 42.4414ZM25.043 42.4414L35.0393 42.7116C35.0441 42.5361 35.0442 42.3606 35.0397 42.1851L25.043 42.4414ZM32.1328 10.7734L32.1816 0.773557C32.1492 0.773398 32.1169 0.773398 32.0845 0.773554L32.1328 10.7734ZM46.8281 18.7227L56.8277 18.8104C56.8283 18.7516 56.8283 18.6929 56.8277 18.6342L46.8281 18.7227ZM32.1328 26.6719L32.0845 36.6718C32.1169 36.6719 32.1492 36.6719 32.1816 36.6718L32.1328 26.6719ZM17.3945 18.7227L27.3941 18.8104C27.3947 18.7516 27.3947 18.6929 27.3941 18.6342L17.3945 18.7227ZM32.1328 16.0586L32.2205 6.05898C32.1628 6.05847 32.1051 6.05847 32.0473 6.05896L32.1328 16.0586ZM24.5703 18.7227L34.5677 18.9499C34.5711 18.8001 34.5712 18.6503 34.5678 18.5005L24.5703 18.7227ZM50.2656 28.1758H40.2656V33.5039H50.2656H60.2656V28.1758H50.2656ZM50.2656 33.5039V23.5039H14L14 33.5039V43.5039H50.2656V33.5039ZM14 33.5039H24V28.1758H14H4L4 33.5039H14ZM14 28.1758L14 38.1758H50.2656V28.1758V18.1758H14V28.1758ZM32.0469 34.9648V44.9648C33.7119 44.9648 35.0178 45.0948 35.9893 45.2798C36.9808 45.4686 37.4467 45.6808 37.5534 45.7373C37.6445 45.7855 37.2039 45.574 36.7306 44.8807C36.2063 44.1126 35.9755 43.2368 35.9691 42.5307L45.9688 42.4414L55.9684 42.3521C55.9071 35.4954 51.7985 30.6477 46.9075 28.0596C42.4755 25.7144 37.1534 24.9648 32.0469 24.9648V34.9648ZM45.9688 42.4414L35.9692 42.3505C35.9761 41.5849 36.2289 40.6776 36.7653 39.9019C37.2468 39.2057 37.688 38.9996 37.5845 39.054C37.4687 39.1147 36.9934 39.328 35.9968 39.517C35.0203 39.7021 33.7114 39.832 32.0469 39.832V49.832V59.832C37.1579 59.832 42.4615 59.0808 46.8765 56.7644C51.7177 54.2243 55.9057 49.4195 55.9683 42.5323L45.9688 42.4414ZM32.0469 49.832V39.832C30.3424 39.832 28.9991 39.701 27.994 39.5128C26.9677 39.3206 26.4738 39.1025 26.3479 39.037C26.2328 38.9772 26.6875 39.185 27.1834 39.9019C27.7385 40.7045 27.9961 41.6465 27.9961 42.4414H17.9961H7.99609C7.99609 49.4166 12.2565 54.2519 17.1208 56.7813C21.5536 59.0864 26.8915 59.832 32.0469 59.832V49.832ZM17.9961 42.4414H27.9961C27.9961 43.1759 27.7607 44.0858 27.2181 44.8807C26.7306 45.595 26.2764 45.8082 26.3789 45.7544C26.4956 45.6932 26.98 45.4761 28.0014 45.2841C29.0017 45.096 30.3419 44.9648 32.0469 44.9648V34.9648V24.9648C26.8961 24.9648 21.5396 25.7088 17.0899 28.0424C12.1743 30.6204 7.99609 35.4986 7.99609 42.4414H17.9961ZM32.0469 40.1641V30.1641C29.5332 30.1641 26.4026 30.2732 23.6623 31.1392C22.214 31.5969 19.9699 32.5365 18.0633 34.6099C15.8839 36.98 14.975 39.9202 15.0463 42.6977L25.043 42.4414L35.0397 42.1851C35.0894 44.1247 34.4277 46.3613 32.7853 48.1473C31.4159 49.6366 29.9989 50.1116 29.6892 50.2095C29.3135 50.3282 29.2584 50.2903 29.7841 50.2416C30.261 50.1974 30.9874 50.1641 32.0469 50.1641V40.1641ZM25.043 42.4414L15.0466 42.1712C14.9678 45.0861 15.9834 48.0582 18.2077 50.377C20.1245 52.3753 22.3444 53.2648 23.7444 53.694C26.4347 54.5188 29.5134 54.6328 32.0469 54.6328V44.6328V34.6328C30.9891 34.6328 30.2558 34.5996 29.7692 34.5552C29.2355 34.5066 29.2629 34.4671 29.6071 34.5726C29.8685 34.6527 31.2612 35.0937 32.641 36.5321C33.3836 37.3063 34.0494 38.2979 34.4943 39.4864C34.9349 40.6635 35.0645 41.7806 35.0393 42.7116L25.043 42.4414ZM32.0469 44.6328V54.6328C34.5482 54.6328 37.5855 54.514 40.2598 53.7017C41.6447 53.281 43.7999 52.4254 45.6958 50.5341C47.8897 48.3454 49.0508 45.4486 49.0508 42.4414H39.0508H29.0508C29.0508 41.4671 29.2241 40.343 29.6984 39.1894C30.1741 38.0325 30.851 37.0928 31.5706 36.375C32.9052 35.0436 34.2117 34.6365 34.4472 34.5649C34.764 34.4687 34.7741 34.5083 34.2545 34.5561C33.7782 34.6 33.0656 34.6328 32.0469 34.6328V44.6328ZM39.0508 42.4414H49.0508C49.0508 39.5719 48.004 36.698 45.8437 34.4498C43.9539 32.4831 41.7722 31.5791 40.3413 31.1311C37.6173 30.2783 34.5293 30.1641 32.0469 30.1641V40.1641V50.1641C33.0673 50.1641 33.773 50.197 34.2395 50.2407C34.7508 50.2886 34.7136 50.3265 34.3657 50.2175C34.0842 50.1294 32.7512 49.69 31.4226 48.3074C29.8236 46.6433 29.0508 44.473 29.0508 42.4414H39.0508ZM32.1328 10.7734L32.084 20.7733C35.5358 20.7902 37.4146 21.4204 38.0464 21.7587C38.3071 21.8983 38.0096 21.8034 37.6114 21.2453C37.1512 20.6001 36.8365 19.7164 36.8285 18.8111L46.8281 18.7227L56.8277 18.6342C56.7642 11.4552 52.1802 6.64057 47.4888 4.12801C42.9858 1.71637 37.5384 0.799687 32.1816 0.773557L32.1328 10.7734ZM46.8281 18.7227L36.8285 18.6349C36.8362 17.7581 37.1402 16.8801 37.6057 16.2261C38.0088 15.6599 38.3151 15.5594 38.0607 15.695C37.8091 15.8293 37.2073 16.0847 36.1404 16.3023C35.092 16.5162 33.7383 16.6639 32.084 16.672L32.1328 26.6719L32.1816 36.6718C37.5167 36.6457 42.9651 35.7467 47.4744 33.3411C52.1996 30.8203 56.7647 25.9939 56.8277 18.8104L46.8281 18.7227ZM32.1328 26.6719L32.1811 16.672C30.4996 16.6639 29.1221 16.5151 28.0545 16.2991C26.967 16.0791 26.356 15.821 26.1037 15.6869C25.8467 15.5504 26.1776 15.6618 26.6019 16.2637C27.094 16.9618 27.4022 17.8925 27.3941 18.8104L17.3945 18.7227L7.39492 18.6349C7.33083 25.9404 11.9774 30.8294 16.7206 33.3492C21.2441 35.7524 26.7238 36.6459 32.0845 36.6718L32.1328 26.6719ZM17.3945 18.7227L27.3941 18.6342C27.4025 19.5814 27.0831 20.5185 26.5963 21.2077C26.1769 21.8014 25.8547 21.9073 26.118 21.7669C26.7569 21.4262 28.6688 20.7903 32.1811 20.7733L32.1328 10.7734L32.0845 0.773554C26.7023 0.799555 21.2236 1.71056 16.7062 4.11983C11.9978 6.63101 7.3303 11.5086 7.39492 18.8111L17.3945 18.7227ZM32.1328 16.0586L32.0473 6.05896C29.4241 6.08138 26.1704 6.2421 23.3121 7.18679C21.8194 7.68014 19.6043 8.6484 17.7124 10.6777C15.5569 12.9898 14.5062 15.9482 14.5728 18.9448L24.5703 18.7227L34.5678 18.5005C34.5878 19.3963 34.4564 20.4517 34.0441 21.555C33.6294 22.6649 33.017 23.5909 32.3413 24.3157C31.0779 25.6709 29.8134 26.1021 29.5883 26.1765C29.2958 26.2732 29.3186 26.2248 29.8806 26.1651C30.3993 26.11 31.1571 26.0673 32.2183 26.0582L32.1328 16.0586ZM24.5703 18.7227L14.5729 18.4954C14.5036 21.5431 15.5966 24.4975 17.7397 26.778C19.6214 28.7803 21.8179 29.7432 23.3121 30.237C26.1896 31.1881 29.4506 31.3438 32.1328 31.3438V21.3438V11.3438C31.0946 11.3438 30.354 11.3049 29.8527 11.2531C29.3098 11.197 29.2925 11.1496 29.5883 11.2473C29.815 11.3222 31.0607 11.748 32.314 13.0816C32.9847 13.7953 33.6036 14.7161 34.0268 15.8318C34.4487 16.9442 34.5889 18.0202 34.5677 18.9499L24.5703 18.7227ZM32.1328 21.3438V31.3438C34.7826 31.3438 38.0038 31.1827 40.8653 30.2449C42.3434 29.7604 44.4908 28.8288 46.3593 26.9141C48.4816 24.7394 49.6953 21.8434 49.6953 18.7227H39.6953H29.6953C29.6953 17.7574 29.8712 16.6756 30.3194 15.583C30.7665 14.493 31.3937 13.6136 32.0457 12.9455C33.2617 11.6996 34.4368 11.305 34.6367 11.2395C34.9062 11.1512 34.8724 11.1988 34.3423 11.2542C33.8509 11.3055 33.1311 11.3438 32.1328 11.3438V21.3438ZM39.6953 18.7227H49.6953C49.6953 15.6511 48.5247 12.749 46.3871 10.5411C44.5078 8.5998 42.3418 7.66284 40.8653 7.17896C38.0228 6.24737 34.8095 6.08169 32.2205 6.05898L32.1328 16.0586L32.0451 26.0582C33.0674 26.0672 33.8049 26.1094 34.3141 26.164C34.8636 26.223 34.9029 26.2716 34.6367 26.1843C34.4385 26.1194 33.2447 25.7195 32.0179 24.4523C31.3602 23.773 30.7386 22.8876 30.2997 21.8016C29.8611 20.7162 29.6953 19.654 29.6953 18.7227H39.6953ZM83.8242 10H93.8242C93.8242 4.47715 89.3471 0 83.8242 0V10ZM83.8242 18.1641L73.8242 18.1641C73.8242 23.6869 78.3014 28.1641 83.8242 28.1641V18.1641ZM88.7656 18.1641H98.7656C98.7656 12.6412 94.2885 8.16406 88.7656 8.16406V18.1641ZM88.7656 23.75V33.75C94.2885 33.75 98.7656 29.2728 98.7656 23.75H88.7656ZM83.8242 23.75V13.75C78.3014 13.75 73.8242 18.2272 73.8242 23.75L83.8242 23.75ZM83.8242 31.3555V41.3555C89.3471 41.3555 93.8242 36.8783 93.8242 31.3555H83.8242ZM76.9062 31.3555H66.9062C66.9062 36.8783 71.3834 41.3555 76.9062 41.3555V31.3555ZM76.9062 10V0C71.3834 0 66.9062 4.47715 66.9062 10H76.9062ZM71.1484 12.2773H81.1484C81.1484 6.7545 76.6713 2.27734 71.1484 2.27734V12.2773ZM71.1484 17.7344V27.7344C76.6713 27.7344 81.1484 23.2572 81.1484 17.7344L71.1484 17.7344ZM60.2344 17.7344V7.73437C54.7115 7.73437 50.2344 12.2115 50.2344 17.7344H60.2344ZM60.2344 25.168H50.2344C50.2344 27.8257 51.2924 30.3741 53.1747 32.2504C55.0571 34.1267 57.6089 35.1765 60.2666 35.1679L60.2344 25.168ZM74.3711 24.0508L84.2927 22.8008C83.9411 20.0106 82.431 17.4974 80.1324 15.8772C77.8338 14.257 74.9592 13.6795 72.2132 14.2864L74.3711 24.0508ZM75.0586 29.5078L77.1601 39.2845C82.2326 38.1941 85.6287 33.4055 84.9802 28.2579L75.0586 29.5078ZM56.8398 30.7109V40.7109C56.8556 40.7109 56.8713 40.7109 56.887 40.7108L56.8398 30.7109ZM53.3594 30.7109H43.3594C43.3594 36.2338 47.8365 40.7109 53.3594 40.7109V30.7109ZM53.3594 12.2773V2.27734C47.8365 2.27734 43.3594 6.7545 43.3594 12.2773L53.3594 12.2773ZM64.0156 33.1172H74.0156C74.0156 27.5943 69.5385 23.1172 64.0156 23.1172V33.1172ZM64.0156 35.9961H54.0156C54.0156 41.5189 58.4928 45.9961 64.0156 45.9961V35.9961ZM76.9062 35.9961V45.9961C82.4291 45.9961 86.9062 41.5189 86.9062 35.9961H76.9062ZM76.9062 33.1172V23.1172C71.3834 23.1172 66.9062 27.5943 66.9062 33.1172H76.9062ZM83.8242 33.1172H93.8242C93.8242 27.5943 89.3471 23.1172 83.8242 23.1172V33.1172ZM83.8242 49.3594V59.3594C89.3471 59.3594 93.8242 54.8822 93.8242 49.3594H83.8242ZM57.1406 49.3594H47.1406C47.1406 54.8822 51.6178 59.3594 57.1406 59.3594V49.3594ZM57.1406 33.1172V23.1172C51.6178 23.1172 47.1406 27.5943 47.1406 33.1172H57.1406ZM64.0156 43.9453H54.0156C54.0156 49.4682 58.4928 53.9453 64.0156 53.9453V43.9453ZM76.9062 43.9453V53.9453C82.4291 53.9453 86.9062 49.4682 86.9062 43.9453H76.9062ZM76.9062 41.3672H86.9062C86.9062 35.8443 82.4291 31.3672 76.9062 31.3672V41.3672ZM64.0156 41.3672V31.3672C58.4928 31.3672 54.0156 35.8443 54.0156 41.3672H64.0156ZM83.8242 10H73.8242V18.1641L83.8242 18.1641H93.8242V10H83.8242ZM83.8242 18.1641V28.1641H88.7656V18.1641V8.16406H83.8242V18.1641ZM88.7656 18.1641H78.7656V23.75H88.7656H98.7656V18.1641H88.7656ZM88.7656 23.75V13.75H83.8242V23.75V33.75H88.7656V23.75ZM83.8242 23.75L73.8242 23.75V31.3555H83.8242H93.8242V23.75H83.8242ZM83.8242 31.3555V21.3555L76.9062 21.3555V31.3555V41.3555H83.8242V31.3555ZM76.9062 31.3555H86.9062V10H76.9062H66.9062V31.3555H76.9062ZM76.9062 10V20L83.8242 20V10V0H76.9062V10ZM71.1484 12.2773H61.1484V17.7344H71.1484L81.1484 17.7344V12.2773H71.1484ZM71.1484 17.7344V7.73437H60.2344V17.7344V27.7344H71.1484V17.7344ZM60.2344 17.7344H50.2344V25.168H60.2344H70.2344V17.7344H60.2344ZM60.2344 25.168L60.2666 35.1679C67.1112 35.1458 71.5662 34.9119 76.529 33.8152L74.3711 24.0508L72.2132 14.2864C69.3987 14.9084 66.6779 15.1471 60.2021 15.168L60.2344 25.168ZM74.3711 24.0508L64.4495 25.3007L65.137 30.7578L75.0586 29.5078L84.9802 28.2579L84.2927 22.8008L74.3711 24.0508ZM75.0586 29.5078L72.9571 19.7311C69.5168 20.4706 65.9994 20.6676 56.7927 20.711L56.8398 30.7109L56.887 40.7108C65.899 40.6683 71.4051 40.5216 77.1601 39.2845L75.0586 29.5078ZM56.8398 30.7109V20.7109H53.3594V30.7109V40.7109H56.8398V30.7109ZM53.3594 30.7109H63.3594V12.2773H53.3594L43.3594 12.2773V30.7109H53.3594ZM53.3594 12.2773V22.2773H71.1484V12.2773V2.27734L53.3594 2.27734V12.2773ZM64.0156 33.1172H54.0156V35.9961H64.0156H74.0156V33.1172H64.0156ZM64.0156 35.9961V45.9961H76.9062V35.9961V25.9961H64.0156V35.9961ZM76.9062 35.9961H86.9062V33.1172H76.9062H66.9062V35.9961H76.9062ZM76.9062 33.1172V43.1172H83.8242V33.1172V23.1172L76.9062 23.1172V33.1172ZM83.8242 33.1172H73.8242V49.3594H83.8242H93.8242V33.1172H83.8242ZM83.8242 49.3594V39.3594H57.1406V49.3594V59.3594H83.8242V49.3594ZM57.1406 49.3594H67.1406V33.1172H57.1406H47.1406V49.3594H57.1406ZM57.1406 33.1172V43.1172H64.0156V33.1172V23.1172H57.1406V33.1172ZM64.0156 43.9453V53.9453H76.9062V43.9453V33.9453H64.0156V43.9453ZM76.9062 43.9453H86.9062V41.3672H76.9062H66.9062V43.9453H76.9062ZM76.9062 41.3672V31.3672H64.0156V41.3672V51.3672H76.9062V41.3672ZM64.0156 41.3672H54.0156V43.9453H64.0156H74.0156V41.3672H64.0156ZM123.613 10H133.613C133.613 4.47715 129.136 0 123.613 0V10ZM123.613 49.875V59.875C129.136 59.875 133.613 55.3978 133.613 49.875H123.613ZM116.652 49.875H106.652C106.652 55.3978 111.129 59.875 116.652 59.875V49.875ZM116.652 10V0C111.129 0 106.652 4.47715 106.652 10L116.652 10ZM101.785 12.6641L101.716 22.6638C101.762 22.6641 101.809 22.6641 101.856 22.6638L101.785 12.6641ZM101.785 18.8945L101.616 28.8931C101.733 28.8951 101.85 28.895 101.967 28.8929L101.785 18.8945ZM123.613 10H113.613V49.875H123.613H133.613V10H123.613ZM123.613 49.875V39.875H116.652V49.875V59.875H123.613V49.875ZM116.652 49.875H126.652V10H116.652L106.652 10V49.875H116.652ZM116.652 10V20H123.613V10V0L116.652 0V10ZM101.785 12.6641L101.856 22.6638C101.788 22.6643 101.619 22.6406 101.443 22.5508C101.282 22.4681 101.291 22.4198 101.411 22.5782C101.682 22.9327 102.398 24.2334 102.398 26.9727H112.398H122.398C122.398 20.9463 120.838 15.0712 117.316 10.4521C113.669 5.66819 108.136 2.61877 101.714 2.66431L101.785 12.6641ZM112.398 26.9727H102.398C102.398 29.8028 101.669 31.1249 101.399 31.4804C101.278 31.6391 101.267 31.594 101.421 31.5147C101.587 31.4293 101.74 31.4102 101.785 31.4102V41.4102V51.4102C108.159 51.4102 113.677 48.3834 117.329 43.5733C120.851 38.9337 122.398 33.0371 122.398 26.9727H112.398ZM101.785 41.4102V31.4102C101.764 31.4102 101.869 31.4135 102.006 31.483C102.134 31.5479 102.115 31.5815 101.996 31.4265C101.73 31.0816 101 29.7839 101 26.9727H91H81C81 33.056 82.5684 38.977 86.1486 43.6273C89.8614 48.4498 95.423 51.4102 101.785 51.4102V41.4102ZM91 26.9727H101C101 24.2526 101.717 22.9762 101.983 22.632C102.103 22.4774 102.12 22.5139 101.984 22.5822C101.923 22.6127 101.857 22.6363 101.795 22.6507C101.733 22.6649 101.703 22.6637 101.716 22.6638L101.785 12.6641L101.855 2.6643C95.4455 2.6198 89.8702 5.60151 86.1613 10.3982C82.5817 15.0277 81 20.9271 81 26.9727H91ZM101.785 18.8945L101.955 8.89597C96.3231 8.80052 92.1248 12.0746 89.9514 16.1436C88.1105 19.59 87.6602 23.5385 87.6602 26.9727H97.6602H107.66C107.66 26.0559 107.728 25.4897 107.781 25.2055C107.838 24.8993 107.843 25.0966 107.593 25.5664C107.326 26.0649 106.7 26.9904 105.486 27.7722C104.208 28.5955 102.811 28.9134 101.616 28.8931L101.785 18.8945ZM97.6602 26.9727H87.6602C87.6602 30.4271 88.1039 34.3944 89.9593 37.8541C92.1739 41.9836 96.3488 45.0938 101.785 45.0938V35.0938V25.0937C102.895 25.0937 104.231 25.3965 105.478 26.1982C106.675 26.9673 107.307 27.8831 107.585 28.4018C107.844 28.8846 107.839 29.0928 107.782 28.7849C107.729 28.4977 107.66 27.9194 107.66 26.9727H97.6602ZM101.785 35.0938V45.0938C107.384 45.0938 111.435 41.7294 113.512 37.7986C115.311 34.3926 115.781 30.4806 115.781 26.9727H105.781H95.7812C95.7812 27.9039 95.7115 28.4806 95.6573 28.7724C95.5994 29.0842 95.5901 28.9062 95.8272 28.4572C96.0759 27.9865 96.6716 27.0851 97.8437 26.3005C99.0837 25.4703 100.493 25.0937 101.785 25.0937V35.0938ZM105.781 26.9727H115.781C115.781 23.4853 115.304 19.5914 113.519 16.199C111.489 12.3393 107.41 8.79061 101.603 8.89618L101.785 18.8945L101.967 28.8929C100.581 28.9181 99.1058 28.5217 97.8357 27.6697C96.6469 26.8723 96.0564 25.9614 95.8195 25.511C95.5901 25.075 95.6009 24.9078 95.6588 25.218C95.7127 25.507 95.7812 26.0715 95.7812 26.9727H105.781ZM171.309 10L181.309 10C181.309 4.47715 176.831 0 171.309 0V10ZM171.309 24.1797H161.309C161.309 29.7025 165.786 34.1797 171.309 34.1797V24.1797ZM174.445 24.1797H184.445C184.445 18.6568 179.968 14.1797 174.445 14.1797V24.1797ZM174.445 29.8516V39.8516C179.968 39.8516 184.445 35.3744 184.445 29.8516H174.445ZM171.309 29.8516V19.8516C165.786 19.8516 161.309 24.3287 161.309 29.8516H171.309ZM171.309 49.7461V59.7461C176.831 59.7461 181.309 55.2689 181.309 49.7461H171.309ZM164.52 49.7461H154.52C154.52 55.2689 158.997 59.7461 164.52 59.7461V49.7461ZM164.52 10V0C158.997 0 154.52 4.47715 154.52 10H164.52ZM143.207 13.5234H153.207C153.207 8.00059 148.73 3.52344 143.207 3.52344V13.5234ZM143.207 22.1172H133.207C133.207 27.64 137.684 32.1172 143.207 32.1172V22.1172ZM144.152 22.1172V32.1172C149.675 32.1172 154.152 27.64 154.152 22.1172H144.152ZM144.152 13.5234V3.52344C138.629 3.52344 134.152 8.00059 134.152 13.5234H144.152ZM149.695 13.5234H159.695C159.695 8.00059 155.218 3.52344 149.695 3.52344V13.5234ZM149.695 40.8516V50.8516C155.218 50.8516 159.695 46.3744 159.695 40.8516H149.695ZM137.621 40.8516H127.621C127.621 46.3744 132.098 50.8516 137.621 50.8516V40.8516ZM137.621 13.5234V3.52344C132.098 3.52344 127.621 8.00059 127.621 13.5234H137.621ZM143.207 35.3086L133.207 35.3086C133.207 40.8314 137.684 45.3086 143.207 45.3086V35.3086ZM144.152 35.3086V45.3086C149.675 45.3086 154.152 40.8314 154.152 35.3086H144.152ZM144.152 27.4883H154.152C154.152 21.9654 149.675 17.4883 144.152 17.4883V27.4883ZM143.207 27.4883V17.4883C137.684 17.4883 133.207 21.9654 133.207 27.4883H143.207ZM156.398 13.5234H166.398C166.398 8.00059 161.921 3.52344 156.398 3.52344V13.5234ZM156.398 22.1172H146.398C146.398 27.64 150.876 32.1172 156.398 32.1172V22.1172ZM157.516 22.1172V32.1172C163.038 32.1172 167.516 27.64 167.516 22.1172H157.516ZM157.516 13.5234V3.52344C151.993 3.52344 147.516 8.00059 147.516 13.5234H157.516ZM163.102 13.5234H173.102C173.102 8.00059 168.624 3.52344 163.102 3.52344V13.5234ZM163.102 40.8516V50.8516C168.624 50.8516 173.102 46.3744 173.102 40.8516H163.102ZM150.941 40.8516L140.941 40.8516C140.941 46.3744 145.419 50.8516 150.941 50.8516V40.8516ZM150.941 13.5234V3.52344C145.419 3.52344 140.941 8.00059 140.941 13.5234H150.941ZM156.398 35.3086H146.398C146.398 40.8314 150.876 45.3086 156.398 45.3086V35.3086ZM157.516 35.3086V45.3086C163.038 45.3086 167.516 40.8314 167.516 35.3086H157.516ZM157.516 27.4883H167.516C167.516 21.9654 163.038 17.4883 157.516 17.4883V27.4883ZM156.398 27.4883V17.4883C150.876 17.4883 146.398 21.9654 146.398 27.4883H156.398ZM171.309 10H161.309V24.1797H171.309H181.309V10L171.309 10ZM171.309 24.1797V34.1797H174.445V24.1797V14.1797H171.309V24.1797ZM174.445 24.1797H164.445V29.8516H174.445H184.445V24.1797H174.445ZM174.445 29.8516V19.8516H171.309V29.8516V39.8516H174.445V29.8516ZM171.309 29.8516H161.309V49.7461H171.309H181.309V29.8516H171.309ZM171.309 49.7461V39.7461H164.52V49.7461V59.7461H171.309V49.7461ZM164.52 49.7461H174.52V10L164.52 10H154.52V49.7461H164.52ZM164.52 10V20H171.309V10V0L164.52 0V10ZM143.207 13.5234H133.207V22.1172H143.207H153.207V13.5234H143.207ZM143.207 22.1172V32.1172H144.152V22.1172V12.1172H143.207V22.1172ZM144.152 22.1172H154.152V13.5234H144.152H134.152V22.1172H144.152ZM144.152 13.5234V23.5234H149.695V13.5234V3.52344H144.152V13.5234ZM149.695 13.5234H139.695V40.8516L149.695 40.8516H159.695V13.5234H149.695ZM149.695 40.8516V30.8516L137.621 30.8516V40.8516V50.8516L149.695 50.8516V40.8516ZM137.621 40.8516L147.621 40.8516V13.5234H137.621H127.621V40.8516H137.621ZM137.621 13.5234V23.5234H143.207V13.5234V3.52344H137.621V13.5234ZM143.207 35.3086V45.3086H144.152V35.3086V25.3086H143.207V35.3086ZM144.152 35.3086H154.152V27.4883H144.152H134.152V35.3086L144.152 35.3086ZM144.152 27.4883V17.4883H143.207V27.4883V37.4883H144.152V27.4883ZM143.207 27.4883H133.207V35.3086L143.207 35.3086H153.207V27.4883H143.207ZM156.398 13.5234H146.398V22.1172H156.398H166.398V13.5234H156.398ZM156.398 22.1172V32.1172H157.516V22.1172V12.1172H156.398V22.1172ZM157.516 22.1172H167.516V13.5234H157.516H147.516V22.1172H157.516ZM157.516 13.5234V23.5234H163.102V13.5234V3.52344H157.516V13.5234ZM163.102 13.5234H153.102V40.8516H163.102H173.102V13.5234H163.102ZM163.102 40.8516V30.8516H150.941V40.8516V50.8516H163.102V40.8516ZM150.941 40.8516H160.941V13.5234H150.941H140.941V40.8516L150.941 40.8516ZM150.941 13.5234V23.5234H156.398V13.5234V3.52344H150.941V13.5234ZM156.398 35.3086V45.3086H157.516V35.3086V25.3086H156.398V35.3086ZM157.516 35.3086H167.516V27.4883H157.516H147.516V35.3086H157.516ZM157.516 27.4883V17.4883H156.398V27.4883V37.4883H157.516V27.4883ZM156.398 27.4883H146.398V35.3086H156.398H166.398V27.4883H156.398ZM211.957 31.1406H221.957C221.957 25.6178 217.48 21.1406 211.957 21.1406V31.1406ZM211.957 36.6406V46.6406C217.48 46.6406 221.957 42.1635 221.957 36.6406H211.957ZM175.691 36.6406H165.691C165.691 42.1635 170.169 46.6406 175.691 46.6406V36.6406ZM175.691 31.1406V21.1406C170.169 21.1406 165.691 25.6178 165.691 31.1406H175.691ZM208.648 43.6875H218.648C218.648 38.1647 214.171 33.6875 208.648 33.6875V43.6875ZM208.648 49.1875V59.1875C214.171 59.1875 218.648 54.7103 218.648 49.1875H208.648ZM180.117 49.1875H170.117C170.117 54.7103 174.594 59.1875 180.117 59.1875V49.1875ZM180.117 38.2305V28.2305C174.594 28.2305 170.117 32.7076 170.117 38.2305H180.117ZM186.949 38.2305H196.949C196.949 32.7076 192.472 28.2305 186.949 28.2305V38.2305ZM186.949 43.6875H176.949C176.949 49.2103 181.426 53.6875 186.949 53.6875V43.6875ZM207.746 10.6445H217.746C217.746 5.12168 213.269 0.644531 207.746 0.644531V10.6445ZM207.746 22.418V32.418C213.269 32.418 217.746 27.9408 217.746 22.418H207.746ZM186.906 22.418V12.418C181.383 12.418 176.906 16.8951 176.906 22.418H186.906ZM186.906 24.2227H176.906C176.906 29.7455 181.383 34.2227 186.906 34.2227V24.2227ZM208.391 24.2227H218.391C218.391 18.6998 213.913 14.2227 208.391 14.2227V24.2227ZM208.391 29.3359V39.3359C213.913 39.3359 218.391 34.8588 218.391 29.3359H208.391ZM180.074 29.3359H170.074C170.074 34.8588 174.551 39.3359 180.074 39.3359V29.3359ZM180.074 17.5625V7.5625C174.551 7.5625 170.074 12.0397 170.074 17.5625H180.074ZM200.871 17.5625V27.5625C206.394 27.5625 210.871 23.0853 210.871 17.5625L200.871 17.5625ZM200.871 15.9297L210.871 15.9297C210.871 10.4068 206.394 5.92969 200.871 5.92969V15.9297ZM180.031 15.9297H170.031C170.031 21.4525 174.508 25.9297 180.031 25.9297V15.9297ZM180.031 10.6445V0.644531C174.508 0.644531 170.031 5.12168 170.031 10.6445L180.031 10.6445ZM211.957 31.1406H201.957V36.6406H211.957H221.957V31.1406H211.957ZM211.957 36.6406V26.6406L175.691 26.6406V36.6406V46.6406H211.957V36.6406ZM175.691 36.6406H185.691V31.1406H175.691H165.691V36.6406H175.691ZM175.691 31.1406V41.1406H211.957V31.1406V21.1406L175.691 21.1406V31.1406ZM208.648 43.6875H198.648V49.1875H208.648H218.648V43.6875H208.648ZM208.648 49.1875V39.1875H180.117V49.1875V59.1875H208.648V49.1875ZM180.117 49.1875H190.117V38.2305H180.117H170.117V49.1875H180.117ZM180.117 38.2305V48.2305H186.949V38.2305V28.2305H180.117V38.2305ZM186.949 38.2305H176.949V43.6875H186.949H196.949V38.2305H186.949ZM186.949 43.6875V53.6875H208.648V43.6875V33.6875H186.949V43.6875ZM207.746 10.6445H197.746V22.418L207.746 22.418H217.746V10.6445H207.746ZM207.746 22.418V12.418H186.906V22.418V32.418H207.746V22.418ZM186.906 22.418H176.906V24.2227H186.906H196.906V22.418H186.906ZM186.906 24.2227V34.2227H208.391V24.2227V14.2227L186.906 14.2227V24.2227ZM208.391 24.2227L198.391 24.2227V29.3359H208.391H218.391V24.2227H208.391ZM208.391 29.3359V19.3359L180.074 19.3359V29.3359V39.3359H208.391V29.3359ZM180.074 29.3359H190.074V17.5625H180.074H170.074V29.3359H180.074ZM180.074 17.5625V27.5625H200.871V17.5625V7.5625H180.074V17.5625ZM200.871 17.5625L210.871 17.5625V15.9297L200.871 15.9297H190.871V17.5625H200.871ZM200.871 15.9297V5.92969H180.031V15.9297V25.9297H200.871V15.9297ZM180.031 15.9297H190.031V10.6445H180.031L170.031 10.6445V15.9297H180.031ZM180.031 10.6445V20.6445L207.746 20.6445V10.6445V0.644531L180.031 0.644531V10.6445Z" fill="white" mask="url(#path-1-outside-1_6524_1755)"/>
</g>
<defs>
<filter id="filter0_d_6524_1755" x="0" y="0" width="225.957" height="67.875" filterUnits="userSpaceOnUse" color-interpolation-filters="sRGB">
<feFlood flood-opacity="0" result="BackgroundImageFix"/>
<feColorMatrix in="SourceAlpha" type="matrix" values="0 0 0 0 0 0 0 0 0 0 0 0 0 0 0 0 0 0 127 0" result="hardAlpha"/>
<feOffset dy="4"/>
<feGaussianBlur stdDeviation="2"/>
<feComposite in2="hardAlpha" operator="out"/>
<feColorMatrix type="matrix" values="0 0 0 0 0 0 0 0 0 0 0 0 0 0 0 0 0 0 0.07 0"/>
<feBlend mode="normal" in2="BackgroundImageFix" result="effect1_dropShadow_6524_1755"/>
<feBlend mode="normal" in="SourceGraphic" in2="effect1_dropShadow_6524_1755" result="shape"/>
</filter>
</defs>
</svg>
