<svg width="312" height="68" viewBox="0 0 312 68" fill="none" xmlns="http://www.w3.org/2000/svg">
<g filter="url(#filter0_d_6526_5663)">
<mask id="path-1-outside-1_6526_5663" maskUnits="userSpaceOnUse" x="3.96875" y="-0.464844" width="304" height="61" fill="black">
<rect fill="white" x="3.96875" y="-0.464844" width="304" height="61"/>
<path d="M26.6328 12.5781C32.9922 12.5352 37.8477 16.7891 37.8477 22.5898C37.8477 28.4336 32.9922 32.6445 26.6328 32.6016C20.4023 32.6445 15.418 28.4336 15.418 22.5898C15.418 16.7891 20.4023 12.5352 26.6328 12.5781ZM26.6328 18.5078C24.2266 18.5078 22.293 19.8828 22.293 22.5898C22.293 25.3828 24.2266 26.6719 26.6328 26.6719C29.168 26.6719 31.1445 25.3828 31.1445 22.5898C31.1445 19.8828 29.168 18.5078 26.6328 18.5078ZM47.7305 10.043V49.918H40.8984V10.043L47.7305 10.043ZM14 36.6836C20.918 36.6836 30.5859 36.5547 38.8789 35.4375L39.3945 40.3789C30.8008 42.0977 21.5625 42.1836 14.7734 42.1836L14 36.6836ZM85.6719 10.1289V39.1758H78.8398V31.7422H70.8047V26.2852L78.8398 26.2852V22.8906L71.4062 22.8906C68.5703 28.7773 63.0273 33.0742 55.1641 35.3516L52.3711 30.0234C60.2559 27.5742 64.918 23.4707 66.0352 18.4648H54.5625V13.0078H73.5117C73.5117 14.5332 73.3828 16.0156 73.125 17.4336L78.8398 17.4336V10.1289H85.6719ZM86.7461 43.7305V49.2305H58.9453V36.2969H65.9492V43.7305H86.7461ZM135.816 40.25V45.707H99.5078V40.25H107.801V33.9336H102.344V28.4336H107.113V18.3789H102.129V12.9219H133.066V18.3789H127.953V28.4336H132.852V33.9336H127.395V40.25H135.816ZM113.988 28.4336H121.121V18.3789H113.988V28.4336ZM114.719 40.25H120.477V33.9336H114.719V40.25ZM171.352 10.1289V40.3359H164.477V33.5469H160.094V28.1328H164.477V25.0391H160.094V19.5391H164.477V10.1289H171.352ZM159.449 13.8672V19.1953H137.664V13.8672H145.484V10H152.359V13.8672H159.449ZM148.836 20.0977C154.379 20.0977 158.461 23.4492 158.461 28.0469C158.461 32.6875 154.379 35.9531 148.836 35.9531C143.422 35.9531 139.297 32.6875 139.34 28.0469C139.297 23.4492 143.422 20.0977 148.836 20.0977ZM148.836 25.3828C147.031 25.4258 145.742 26.2422 145.742 28.0469C145.742 29.9805 147.031 30.7539 148.836 30.7539C150.598 30.7539 152.016 29.9805 152.016 28.0469C152.016 26.2422 150.598 25.4258 148.836 25.3828ZM172.168 43.7305V49.2305H144.41V37.8437H151.414V43.7305H172.168ZM209.121 10.043V49.918H202.16V10.043H209.121ZM187.293 12.707C193.352 12.6641 197.906 18.25 197.906 27.0156C197.906 35.9102 193.352 41.4531 187.293 41.4531C181.105 41.4531 176.508 35.9102 176.508 27.0156C176.508 18.25 181.105 12.6641 187.293 12.707ZM187.293 18.9375C184.758 18.8945 183.168 21.5156 183.168 27.0156C183.168 32.6016 184.758 35.1367 187.293 35.1367C189.656 35.1367 191.289 32.6016 191.289 27.0156C191.289 21.5156 189.656 18.8945 187.293 18.9375ZM246.203 11.9766V17.3906H238.984C239.328 21.4082 241.627 25.5332 247.621 27.4883L244.312 32.7734C240.037 31.5059 237.201 28.9492 235.504 25.7266C233.742 29.293 230.777 32.1504 226.223 33.5039L222.699 28.0898C229.102 26.1777 231.443 21.623 231.852 17.3906H224.59V11.9766L246.203 11.9766ZM256.988 35.1797V49.7891H250.113V40.6367H229.359V35.1797H256.988ZM256.988 10.043V33.6758H250.113V24.6523H245.172V19.0664H250.113V10.043H256.988ZM297.465 29.9805V35.3945H261.199V29.9805H297.465ZM293.254 43.7305V49.2305H265.367V37.543H272.285V43.7305H293.254ZM279.332 11.1602C288.098 11.1602 293.984 14.3398 294.027 19.4531C293.984 24.6523 288.098 27.875 279.332 27.875C270.48 27.875 264.551 24.6523 264.594 19.4531C264.551 14.3398 270.48 11.1602 279.332 11.1602ZM279.332 16.5742C274.348 16.6172 271.727 17.5195 271.77 19.4531C271.727 21.5156 274.348 22.332 279.332 22.2891C284.23 22.332 286.895 21.5156 286.895 19.4531C286.895 17.5195 284.23 16.6172 279.332 16.5742Z"/>
</mask>
<path d="M26.6328 12.5781C32.9922 12.5352 37.8477 16.7891 37.8477 22.5898C37.8477 28.4336 32.9922 32.6445 26.6328 32.6016C20.4023 32.6445 15.418 28.4336 15.418 22.5898C15.418 16.7891 20.4023 12.5352 26.6328 12.5781ZM26.6328 18.5078C24.2266 18.5078 22.293 19.8828 22.293 22.5898C22.293 25.3828 24.2266 26.6719 26.6328 26.6719C29.168 26.6719 31.1445 25.3828 31.1445 22.5898C31.1445 19.8828 29.168 18.5078 26.6328 18.5078ZM47.7305 10.043V49.918H40.8984V10.043L47.7305 10.043ZM14 36.6836C20.918 36.6836 30.5859 36.5547 38.8789 35.4375L39.3945 40.3789C30.8008 42.0977 21.5625 42.1836 14.7734 42.1836L14 36.6836ZM85.6719 10.1289V39.1758H78.8398V31.7422H70.8047V26.2852L78.8398 26.2852V22.8906L71.4062 22.8906C68.5703 28.7773 63.0273 33.0742 55.1641 35.3516L52.3711 30.0234C60.2559 27.5742 64.918 23.4707 66.0352 18.4648H54.5625V13.0078H73.5117C73.5117 14.5332 73.3828 16.0156 73.125 17.4336L78.8398 17.4336V10.1289H85.6719ZM86.7461 43.7305V49.2305H58.9453V36.2969H65.9492V43.7305H86.7461ZM135.816 40.25V45.707H99.5078V40.25H107.801V33.9336H102.344V28.4336H107.113V18.3789H102.129V12.9219H133.066V18.3789H127.953V28.4336H132.852V33.9336H127.395V40.25H135.816ZM113.988 28.4336H121.121V18.3789H113.988V28.4336ZM114.719 40.25H120.477V33.9336H114.719V40.25ZM171.352 10.1289V40.3359H164.477V33.5469H160.094V28.1328H164.477V25.0391H160.094V19.5391H164.477V10.1289H171.352ZM159.449 13.8672V19.1953H137.664V13.8672H145.484V10H152.359V13.8672H159.449ZM148.836 20.0977C154.379 20.0977 158.461 23.4492 158.461 28.0469C158.461 32.6875 154.379 35.9531 148.836 35.9531C143.422 35.9531 139.297 32.6875 139.34 28.0469C139.297 23.4492 143.422 20.0977 148.836 20.0977ZM148.836 25.3828C147.031 25.4258 145.742 26.2422 145.742 28.0469C145.742 29.9805 147.031 30.7539 148.836 30.7539C150.598 30.7539 152.016 29.9805 152.016 28.0469C152.016 26.2422 150.598 25.4258 148.836 25.3828ZM172.168 43.7305V49.2305H144.41V37.8437H151.414V43.7305H172.168ZM209.121 10.043V49.918H202.16V10.043H209.121ZM187.293 12.707C193.352 12.6641 197.906 18.25 197.906 27.0156C197.906 35.9102 193.352 41.4531 187.293 41.4531C181.105 41.4531 176.508 35.9102 176.508 27.0156C176.508 18.25 181.105 12.6641 187.293 12.707ZM187.293 18.9375C184.758 18.8945 183.168 21.5156 183.168 27.0156C183.168 32.6016 184.758 35.1367 187.293 35.1367C189.656 35.1367 191.289 32.6016 191.289 27.0156C191.289 21.5156 189.656 18.8945 187.293 18.9375ZM246.203 11.9766V17.3906H238.984C239.328 21.4082 241.627 25.5332 247.621 27.4883L244.312 32.7734C240.037 31.5059 237.201 28.9492 235.504 25.7266C233.742 29.293 230.777 32.1504 226.223 33.5039L222.699 28.0898C229.102 26.1777 231.443 21.623 231.852 17.3906H224.59V11.9766L246.203 11.9766ZM256.988 35.1797V49.7891H250.113V40.6367H229.359V35.1797H256.988ZM256.988 10.043V33.6758H250.113V24.6523H245.172V19.0664H250.113V10.043H256.988ZM297.465 29.9805V35.3945H261.199V29.9805H297.465ZM293.254 43.7305V49.2305H265.367V37.543H272.285V43.7305H293.254ZM279.332 11.1602C288.098 11.1602 293.984 14.3398 294.027 19.4531C293.984 24.6523 288.098 27.875 279.332 27.875C270.48 27.875 264.551 24.6523 264.594 19.4531C264.551 14.3398 270.48 11.1602 279.332 11.1602ZM279.332 16.5742C274.348 16.6172 271.727 17.5195 271.77 19.4531C271.727 21.5156 274.348 22.332 279.332 22.2891C284.23 22.332 286.895 21.5156 286.895 19.4531C286.895 17.5195 284.23 16.6172 279.332 16.5742Z" fill="#11DCA9"/>
<path d="M26.6328 12.5781L26.5638 22.5779C26.6094 22.5782 26.6549 22.5782 26.7004 22.5779L26.6328 12.5781ZM26.6328 32.6016L26.7004 22.6018C26.6549 22.6015 26.6094 22.6015 26.5638 22.6018L26.6328 32.6016ZM47.7305 10.043H57.7305C57.7305 4.52012 53.2533 0.0429687 47.7305 0.0429687V10.043ZM47.7305 49.918V59.918C53.2533 59.918 57.7305 55.4408 57.7305 49.918H47.7305ZM40.8984 49.918H30.8984C30.8984 55.4408 35.3756 59.918 40.8984 59.918V49.918ZM40.8984 10.043V0.0429687C35.3756 0.0429687 30.8984 4.52012 30.8984 10.043H40.8984ZM14 36.6836L14 26.6836C11.1049 26.6836 8.3519 27.9383 6.45263 30.1233C4.55337 32.3083 3.69428 35.2093 4.09743 38.0761L14 36.6836ZM38.8789 35.4375L48.8249 34.3997C48.5443 31.7102 47.1864 29.249 45.061 27.5773C42.9355 25.9057 40.2237 25.166 37.5438 25.527L38.8789 35.4375ZM39.3945 40.3789L41.3557 50.1847C46.4169 49.1725 49.8762 44.4746 49.3405 39.3411L39.3945 40.3789ZM14.7734 42.1836L4.87087 43.5761C5.56503 48.5124 9.78862 52.1836 14.7734 52.1836V42.1836ZM26.6328 12.5781L26.7004 22.5779C27.1659 22.5748 27.4938 22.6505 27.6957 22.7228C27.8992 22.7957 27.9809 22.8663 27.9863 22.8711C27.9882 22.8727 27.9393 22.827 27.8939 22.7277C27.8452 22.6212 27.8477 22.5558 27.8477 22.5898H37.8477H47.8477C47.8477 10.2095 37.3845 2.50525 26.5652 2.57835L26.6328 12.5781ZM37.8477 22.5898H27.8477C27.8477 22.6448 27.841 22.586 27.8913 22.4758C27.9128 22.4287 27.9373 22.3888 27.9601 22.3583C27.9825 22.3282 27.9976 22.3147 27.9975 22.3148C27.9972 22.3151 27.9785 22.3316 27.9343 22.3574C27.89 22.3833 27.8191 22.419 27.7165 22.4555C27.5126 22.528 27.1779 22.605 26.7004 22.6018L26.6328 32.6016L26.5652 42.6013C37.3546 42.6742 47.8477 35.0398 47.8477 22.5898H37.8477ZM26.6328 32.6016L26.5638 22.6018C25.7025 22.6077 25.3257 22.3228 25.2867 22.2886C25.2703 22.2742 25.3164 22.3115 25.3639 22.4137C25.4159 22.5257 25.418 22.6051 25.418 22.5898H15.418H5.41797C5.41797 35.1096 16.1187 42.6743 26.7018 42.6013L26.6328 32.6016ZM15.418 22.5898H25.418C25.418 22.5839 25.4183 22.6071 25.4084 22.6515C25.3987 22.6955 25.3828 22.7435 25.3612 22.7899C25.3156 22.8878 25.2743 22.9182 25.2979 22.8973C25.3508 22.8508 25.7292 22.5721 26.5638 22.5779L26.6328 12.5781L26.7018 2.57836C16.0888 2.50517 5.41797 10.1396 5.41797 22.5898H15.418ZM26.6328 18.5078V8.50781C23.6125 8.50781 20.0053 9.37236 16.9975 11.9887C13.7952 14.7743 12.293 18.6689 12.293 22.5898H22.293H32.293C32.293 23.8038 31.7575 25.6574 30.1236 27.0786C28.6842 28.3308 27.2469 28.5078 26.6328 28.5078V18.5078ZM22.293 22.5898H12.293C12.293 26.4759 13.7455 30.4394 17.0569 33.2745C20.1324 35.9076 23.7624 36.6719 26.6328 36.6719V26.6719V16.6719C27.097 16.6719 28.557 16.7916 30.0642 18.082C31.8072 19.5743 32.293 21.4968 32.293 22.5898H22.293ZM26.6328 26.6719V36.6719C29.4552 36.6719 33.0947 35.9652 36.2161 33.3813C39.6187 30.5646 41.1445 26.5578 41.1445 22.5898H31.1445H21.1445C21.1445 21.4149 21.6821 19.4491 23.4626 17.9751C24.962 16.734 26.3456 16.6719 26.6328 16.6719V26.6719ZM31.1445 22.5898H41.1445C41.1445 18.5865 39.5676 14.649 36.276 11.8806C33.2178 9.30847 29.6001 8.50781 26.6328 8.50781V18.5078V28.5078C26.2007 28.5078 24.8389 28.3947 23.4027 27.1867C21.7332 25.7826 21.1445 23.8862 21.1445 22.5898H31.1445ZM47.7305 10.043L37.7305 10.043V49.918H47.7305H57.7305V10.043H47.7305ZM47.7305 49.918V39.918H40.8984V49.918V59.918H47.7305V49.918ZM40.8984 49.918H50.8984V10.043L40.8984 10.043H30.8984V49.918H40.8984ZM40.8984 10.043V20.043H47.7305V10.043V0.0429687H40.8984V10.043ZM14 36.6836V46.6836C20.9278 46.6836 31.1916 46.5634 40.214 45.348L38.8789 35.4375L37.5438 25.527C29.9803 26.5459 20.9081 26.6836 14 26.6836L14 36.6836ZM38.8789 35.4375L28.9329 36.4753L29.4485 41.4167L39.3945 40.3789L49.3405 39.3411L48.8249 34.3997L38.8789 35.4375ZM39.3945 40.3789L37.4334 30.5731C29.9269 32.0744 21.6034 32.1836 14.7734 32.1836L14.7734 42.1836V52.1836C21.5216 52.1836 31.6747 52.1209 41.3557 50.1847L39.3945 40.3789ZM14.7734 42.1836L24.676 40.791L23.9026 35.291L14 36.6836L4.09743 38.0761L4.87087 43.5761L14.7734 42.1836ZM85.6719 10.1289H95.6719C95.6719 4.60606 91.1947 0.128906 85.6719 0.128906V10.1289ZM85.6719 39.1758V49.1758C91.1947 49.1758 95.6719 44.6986 95.6719 39.1758H85.6719ZM78.8398 39.1758H68.8398C68.8398 44.6986 73.317 49.1758 78.8398 49.1758V39.1758ZM78.8398 31.7422H88.8398C88.8398 26.2193 84.3627 21.7422 78.8398 21.7422V31.7422ZM70.8047 31.7422H60.8047C60.8047 37.265 65.2818 41.7422 70.8047 41.7422V31.7422ZM70.8047 26.2852V16.2852C65.2818 16.2852 60.8047 20.7623 60.8047 26.2852H70.8047ZM78.8398 26.2852V36.2852C84.3627 36.2852 88.8398 31.808 88.8398 26.2852H78.8398ZM78.8398 22.8906H88.8398C88.8398 17.3678 84.3627 12.8906 78.8398 12.8906V22.8906ZM71.4062 22.8906V12.8906C67.5655 12.8906 64.0641 15.0903 62.3972 18.5505L71.4062 22.8906ZM55.1641 35.3516L46.3071 39.9943C48.5141 44.2045 53.38 46.2792 57.9459 44.9568L55.1641 35.3516ZM52.3711 30.0234L49.4046 20.4736C46.5699 21.3541 44.2729 23.4485 43.135 26.1901C41.9971 28.9317 42.136 32.0371 43.5142 34.6662L52.3711 30.0234ZM66.0352 18.4648L75.7951 20.643C76.4561 17.6811 75.7363 14.5792 73.8384 12.2111C71.9405 9.84299 69.07 8.46484 66.0352 8.46484V18.4648ZM54.5625 18.4648H44.5625C44.5625 23.9877 49.0397 28.4648 54.5625 28.4648V18.4648ZM54.5625 13.0078V3.00781C49.0397 3.00781 44.5625 7.48497 44.5625 13.0078H54.5625ZM73.5117 13.0078L83.5117 13.0078C83.5117 7.48497 79.0346 3.00781 73.5117 3.00781V13.0078ZM73.125 17.4336L63.2863 15.6447C62.7559 18.5621 63.5475 21.5645 65.4475 23.8411C67.3475 26.1176 70.1598 27.4336 73.125 27.4336V17.4336ZM78.8398 17.4336V27.4336C84.3627 27.4336 88.8398 22.9564 88.8398 17.4336H78.8398ZM78.8398 10.1289V0.128906C73.317 0.128906 68.8398 4.60606 68.8398 10.1289H78.8398ZM86.7461 43.7305H96.7461C96.7461 38.2076 92.2689 33.7305 86.7461 33.7305V43.7305ZM86.7461 49.2305V59.2305C92.2689 59.2305 96.7461 54.7533 96.7461 49.2305H86.7461ZM58.9453 49.2305H48.9453C48.9453 54.7533 53.4225 59.2305 58.9453 59.2305V49.2305ZM58.9453 36.2969V26.2969C53.4225 26.2969 48.9453 30.774 48.9453 36.2969H58.9453ZM65.9492 36.2969H75.9492C75.9492 30.774 71.4721 26.2969 65.9492 26.2969V36.2969ZM65.9492 43.7305H55.9492C55.9492 49.2533 60.4264 53.7305 65.9492 53.7305V43.7305ZM85.6719 10.1289H75.6719V39.1758H85.6719H95.6719V10.1289H85.6719ZM85.6719 39.1758V29.1758H78.8398V39.1758V49.1758H85.6719V39.1758ZM78.8398 39.1758H88.8398V31.7422H78.8398H68.8398V39.1758H78.8398ZM78.8398 31.7422V21.7422L70.8047 21.7422V31.7422V41.7422H78.8398V31.7422ZM70.8047 31.7422H80.8047V26.2852L70.8047 26.2852H60.8047V31.7422H70.8047ZM70.8047 26.2852V36.2852H78.8398V26.2852V16.2852L70.8047 16.2852V26.2852ZM78.8398 26.2852H88.8398V22.8906H78.8398L68.8398 22.8906V26.2852L78.8398 26.2852ZM78.8398 22.8906V12.8906L71.4062 12.8906V22.8906V32.8906H78.8398V22.8906ZM71.4062 22.8906L62.3972 18.5505C61.072 21.3012 58.197 24.0622 52.3822 25.7463L55.1641 35.3516L57.9459 44.9568C67.8577 42.0862 76.0686 36.2535 80.4153 27.2308L71.4062 22.8906ZM55.1641 35.3516L64.021 30.7088L61.228 25.3807L52.3711 30.0234L43.5142 34.6662L46.3071 39.9943L55.1641 35.3516ZM52.3711 30.0234L55.3375 39.5733C64.7168 36.6599 73.5399 30.7477 75.7951 20.643L66.0352 18.4648L56.2753 16.2867C56.2628 16.3424 56.169 16.8104 55.2441 17.6009C54.251 18.4496 52.4311 19.5335 49.4046 20.4736L52.3711 30.0234ZM66.0352 18.4648V8.46484H54.5625V18.4648V28.4648H66.0352V18.4648ZM54.5625 18.4648H64.5625V13.0078H54.5625H44.5625V18.4648H54.5625ZM54.5625 13.0078V23.0078H73.5117V13.0078V3.00781L54.5625 3.00781V13.0078ZM73.5117 13.0078H63.5117C63.5117 13.9724 63.43 14.8543 63.2863 15.6447L73.125 17.4336L82.9637 19.2224C83.3356 17.177 83.5117 15.094 83.5117 13.0078L73.5117 13.0078ZM73.125 17.4336V27.4336L78.8398 27.4336V17.4336V7.43359H73.125V17.4336ZM78.8398 17.4336H88.8398V10.1289H78.8398H68.8398V17.4336L78.8398 17.4336ZM78.8398 10.1289V20.1289H85.6719V10.1289V0.128906L78.8398 0.128906V10.1289ZM86.7461 43.7305H76.7461V49.2305H86.7461H96.7461V43.7305H86.7461ZM86.7461 49.2305V39.2305H58.9453V49.2305V59.2305H86.7461V49.2305ZM58.9453 49.2305H68.9453V36.2969H58.9453H48.9453V49.2305H58.9453ZM58.9453 36.2969V46.2969H65.9492V36.2969V26.2969H58.9453V36.2969ZM65.9492 36.2969H55.9492V43.7305H65.9492H75.9492V36.2969H65.9492ZM65.9492 43.7305V53.7305H86.7461V43.7305V33.7305H65.9492V43.7305ZM135.816 40.25L145.816 40.25C145.816 34.7272 141.339 30.25 135.816 30.25V40.25ZM135.816 45.707V55.707C141.339 55.707 145.816 51.2299 145.816 45.707L135.816 45.707ZM99.5078 45.707H89.5078C89.5078 51.2299 93.985 55.707 99.5078 55.707V45.707ZM99.5078 40.25V30.25C93.985 30.25 89.5078 34.7272 89.5078 40.25H99.5078ZM107.801 40.25V50.25C113.324 50.25 117.801 45.7728 117.801 40.25H107.801ZM107.801 33.9336H117.801C117.801 28.4107 113.324 23.9336 107.801 23.9336V33.9336ZM102.344 33.9336H92.3438C92.3438 39.4564 96.8209 43.9336 102.344 43.9336V33.9336ZM102.344 28.4336V18.4336C96.8209 18.4336 92.3438 22.9107 92.3438 28.4336H102.344ZM107.113 28.4336V38.4336C112.636 38.4336 117.113 33.9564 117.113 28.4336H107.113ZM107.113 18.3789H117.113C117.113 12.8561 112.636 8.37891 107.113 8.37891V18.3789ZM102.129 18.3789H92.1289C92.1289 23.9018 96.6061 28.3789 102.129 28.3789V18.3789ZM102.129 12.9219V2.92187C96.6061 2.92187 92.1289 7.39903 92.1289 12.9219H102.129ZM133.066 12.9219H143.066C143.066 7.39903 138.589 2.92187 133.066 2.92187V12.9219ZM133.066 18.3789V28.3789C138.589 28.3789 143.066 23.9018 143.066 18.3789H133.066ZM127.953 18.3789V8.37891C122.43 8.37891 117.953 12.8561 117.953 18.3789H127.953ZM127.953 28.4336H117.953C117.953 33.9564 122.43 38.4336 127.953 38.4336V28.4336ZM132.852 28.4336H142.852C142.852 22.9107 138.374 18.4336 132.852 18.4336V28.4336ZM132.852 33.9336V43.9336C138.374 43.9336 142.852 39.4564 142.852 33.9336L132.852 33.9336ZM127.395 33.9336V23.9336C121.872 23.9336 117.395 28.4107 117.395 33.9336H127.395ZM127.395 40.25H117.395C117.395 45.7728 121.872 50.25 127.395 50.25V40.25ZM113.988 28.4336H103.988C103.988 33.9564 108.465 38.4336 113.988 38.4336V28.4336ZM121.121 28.4336V38.4336C126.644 38.4336 131.121 33.9564 131.121 28.4336H121.121ZM121.121 18.3789H131.121C131.121 12.8561 126.644 8.37891 121.121 8.37891V18.3789ZM113.988 18.3789V8.37891C108.465 8.37891 103.988 12.8561 103.988 18.3789H113.988ZM114.719 40.25H104.719C104.719 45.7728 109.196 50.25 114.719 50.25V40.25ZM120.477 40.25V50.25C125.999 50.25 130.477 45.7728 130.477 40.25H120.477ZM120.477 33.9336H130.477C130.477 28.4107 125.999 23.9336 120.477 23.9336V33.9336ZM114.719 33.9336V23.9336C109.196 23.9336 104.719 28.4107 104.719 33.9336H114.719ZM135.816 40.25H125.816V45.707H135.816L145.816 45.707V40.25L135.816 40.25ZM135.816 45.707V35.707H99.5078V45.707V55.707H135.816V45.707ZM99.5078 45.707H109.508V40.25H99.5078H89.5078V45.707H99.5078ZM99.5078 40.25V50.25H107.801V40.25V30.25H99.5078V40.25ZM107.801 40.25H117.801V33.9336H107.801H97.8008V40.25H107.801ZM107.801 33.9336V23.9336H102.344V33.9336V43.9336H107.801V33.9336ZM102.344 33.9336H112.344V28.4336H102.344H92.3438V33.9336H102.344ZM102.344 28.4336V38.4336H107.113V28.4336V18.4336H102.344V28.4336ZM107.113 28.4336H117.113V18.3789H107.113H97.1133V28.4336H107.113ZM107.113 18.3789V8.37891H102.129V18.3789V28.3789H107.113V18.3789ZM102.129 18.3789H112.129V12.9219H102.129H92.1289V18.3789H102.129ZM102.129 12.9219V22.9219H133.066V12.9219V2.92187L102.129 2.92187V12.9219ZM133.066 12.9219H123.066V18.3789H133.066H143.066V12.9219H133.066ZM133.066 18.3789V8.37891H127.953V18.3789V28.3789H133.066V18.3789ZM127.953 18.3789H117.953V28.4336H127.953H137.953V18.3789H127.953ZM127.953 28.4336V38.4336H132.852V28.4336V18.4336H127.953V28.4336ZM132.852 28.4336H122.852V33.9336H132.852L142.852 33.9336V28.4336H132.852ZM132.852 33.9336V23.9336H127.395V33.9336V43.9336H132.852V33.9336ZM127.395 33.9336H117.395V40.25H127.395H137.395V33.9336H127.395ZM127.395 40.25V50.25H135.816V40.25V30.25H127.395V40.25ZM113.988 28.4336V38.4336H121.121V28.4336V18.4336H113.988V28.4336ZM121.121 28.4336H131.121V18.3789H121.121H111.121V28.4336H121.121ZM121.121 18.3789V8.37891H113.988V18.3789V28.3789H121.121V18.3789ZM113.988 18.3789H103.988V28.4336H113.988H123.988V18.3789H113.988ZM114.719 40.25V50.25H120.477V40.25V30.25H114.719V40.25ZM120.477 40.25H130.477V33.9336H120.477H110.477V40.25H120.477ZM120.477 33.9336V23.9336H114.719V33.9336V43.9336H120.477V33.9336ZM114.719 33.9336H104.719V40.25H114.719H124.719V33.9336H114.719ZM171.352 10.1289L181.352 10.1289C181.352 4.60606 176.874 0.128906 171.352 0.128906V10.1289ZM171.352 40.3359V50.3359C176.874 50.3359 181.352 45.8588 181.352 40.3359H171.352ZM164.477 40.3359H154.477C154.477 45.8588 158.954 50.3359 164.477 50.3359V40.3359ZM164.477 33.5469H174.477C174.477 28.024 169.999 23.5469 164.477 23.5469V33.5469ZM160.094 33.5469H150.094C150.094 39.0697 154.571 43.5469 160.094 43.5469V33.5469ZM160.094 28.1328V18.1328C154.571 18.1328 150.094 22.61 150.094 28.1328H160.094ZM164.477 28.1328V38.1328C169.999 38.1328 174.477 33.6557 174.477 28.1328H164.477ZM164.477 25.0391H174.477C174.477 19.5162 169.999 15.0391 164.477 15.0391V25.0391ZM160.094 25.0391H150.094C150.094 30.5619 154.571 35.0391 160.094 35.0391V25.0391ZM160.094 19.5391V9.53906C154.571 9.53906 150.094 14.0162 150.094 19.5391H160.094ZM164.477 19.5391V29.5391C169.999 29.5391 174.477 25.0619 174.477 19.5391H164.477ZM164.477 10.1289V0.128906C158.954 0.128906 154.477 4.60606 154.477 10.1289H164.477ZM159.449 13.8672H169.449C169.449 8.34434 164.972 3.86719 159.449 3.86719V13.8672ZM159.449 19.1953V29.1953C164.972 29.1953 169.449 24.7182 169.449 19.1953H159.449ZM137.664 19.1953H127.664C127.664 24.7182 132.141 29.1953 137.664 29.1953V19.1953ZM137.664 13.8672V3.86719C132.141 3.86719 127.664 8.34434 127.664 13.8672H137.664ZM145.484 13.8672V23.8672C151.007 23.8672 155.484 19.39 155.484 13.8672H145.484ZM145.484 10V0C139.962 0 135.484 4.47715 135.484 10H145.484ZM152.359 10H162.359C162.359 4.47715 157.882 0 152.359 0V10ZM152.359 13.8672H142.359C142.359 19.39 146.837 23.8672 152.359 23.8672V13.8672ZM139.34 28.0469L149.339 28.1395C149.34 28.0775 149.34 28.0154 149.339 27.9534L139.34 28.0469ZM148.836 25.3828L149.08 15.3858C148.919 15.3819 148.758 15.3818 148.598 15.3856L148.836 25.3828ZM172.168 43.7305H182.168C182.168 38.2076 177.691 33.7305 172.168 33.7305V43.7305ZM172.168 49.2305V59.2305C177.691 59.2305 182.168 54.7533 182.168 49.2305H172.168ZM144.41 49.2305L134.41 49.2305C134.41 54.7533 138.887 59.2305 144.41 59.2305V49.2305ZM144.41 37.8437V27.8437C138.887 27.8437 134.41 32.3209 134.41 37.8438L144.41 37.8437ZM151.414 37.8437H161.414C161.414 32.3209 156.937 27.8437 151.414 27.8437V37.8437ZM151.414 43.7305H141.414C141.414 49.2533 145.891 53.7305 151.414 53.7305V43.7305ZM171.352 10.1289H161.352V40.3359H171.352H181.352V10.1289L171.352 10.1289ZM171.352 40.3359V30.3359H164.477V40.3359V50.3359H171.352V40.3359ZM164.477 40.3359H174.477V33.5469H164.477H154.477V40.3359H164.477ZM164.477 33.5469V23.5469H160.094V33.5469V43.5469H164.477V33.5469ZM160.094 33.5469H170.094V28.1328H160.094H150.094V33.5469H160.094ZM160.094 28.1328V38.1328H164.477V28.1328V18.1328H160.094V28.1328ZM164.477 28.1328H174.477V25.0391H164.477H154.477V28.1328H164.477ZM164.477 25.0391V15.0391H160.094V25.0391V35.0391H164.477V25.0391ZM160.094 25.0391H170.094V19.5391H160.094H150.094V25.0391H160.094ZM160.094 19.5391V29.5391H164.477V19.5391V9.53906H160.094V19.5391ZM164.477 19.5391H174.477V10.1289L164.477 10.1289H154.477V19.5391H164.477ZM164.477 10.1289V20.1289H171.352V10.1289V0.128906L164.477 0.128906V10.1289ZM159.449 13.8672H149.449V19.1953H159.449H169.449V13.8672H159.449ZM159.449 19.1953V9.19531H137.664V19.1953V29.1953L159.449 29.1953V19.1953ZM137.664 19.1953H147.664V13.8672H137.664H127.664V19.1953H137.664ZM137.664 13.8672V23.8672H145.484V13.8672V3.86719H137.664V13.8672ZM145.484 13.8672H155.484V10H145.484H135.484V13.8672H145.484ZM145.484 10V20H152.359V10V0L145.484 0V10ZM152.359 10H142.359V13.8672H152.359H162.359V10H152.359ZM152.359 13.8672V23.8672H159.449V13.8672V3.86719L152.359 3.86719V13.8672ZM148.836 20.0977V30.0977C149.638 30.0977 149.697 30.3373 149.366 30.064C149.193 29.9211 148.949 29.6588 148.751 29.2542C148.548 28.838 148.461 28.4072 148.461 28.0469H158.461H168.461C168.461 16.2071 158.009 10.0977 148.836 10.0977V20.0977ZM158.461 28.0469H148.461C148.461 27.7101 148.542 27.2776 148.755 26.8435C148.962 26.4206 149.221 26.1423 149.409 25.9888C149.765 25.6991 149.701 25.9531 148.836 25.9531V35.9531V45.9531C157.893 45.9531 168.461 40.0247 168.461 28.0469H158.461ZM148.836 35.9531V25.9531C148.08 25.9531 148.037 25.7241 148.383 26.0083C148.569 26.1608 148.831 26.4413 149.041 26.874C149.257 27.3204 149.343 27.7741 149.339 28.1395L139.34 28.0469L129.34 27.9543C129.229 40.0036 139.912 45.9531 148.836 45.9531V35.9531ZM139.34 28.0469L149.339 27.9534C149.343 28.3429 149.252 28.7953 149.044 29.2237C148.844 29.6381 148.597 29.9027 148.427 30.0443C148.105 30.3113 148.144 30.0977 148.836 30.0977V20.0977V10.0977C139.796 10.0977 129.229 16.2284 129.34 28.1403L139.34 28.0469ZM148.836 25.3828L148.598 15.3856C146.437 15.4371 143.247 15.957 140.393 18.2231C137.156 20.7944 135.742 24.5006 135.742 28.0469H145.742H155.742C155.742 29.7885 154.973 32.1842 152.831 33.8853C151.073 35.2813 149.43 35.3715 149.074 35.38L148.836 25.3828ZM145.742 28.0469H135.742C135.742 31.4249 136.997 35.2597 140.393 37.9566C143.388 40.3343 146.728 40.7539 148.836 40.7539V30.7539V20.7539C149.14 20.7539 150.933 20.7868 152.831 22.2944C155.132 24.1212 155.742 26.6025 155.742 28.0469H145.742ZM148.836 30.7539V40.7539C150.97 40.7539 154.194 40.3153 157.122 38.0986C160.488 35.5506 162.016 31.7573 162.016 28.0469H152.016H142.016C142.016 27.2985 142.157 26.2323 142.702 25.0625C143.26 23.8652 144.095 22.8761 145.051 22.1524C146.83 20.8058 148.464 20.7539 148.836 20.7539V30.7539ZM152.016 28.0469H162.016C162.016 24.1632 160.312 20.4955 157.122 18.0811C154.334 15.9701 151.253 15.4388 149.08 15.3858L148.836 25.3828L148.592 35.3798C148.181 35.3698 146.69 35.2681 145.051 34.0273C144.17 33.3607 143.344 32.4263 142.768 31.2376C142.196 30.0575 142.016 28.9291 142.016 28.0469H152.016ZM172.168 43.7305H162.168V49.2305H172.168H182.168V43.7305H172.168ZM172.168 49.2305V39.2305H144.41V49.2305V59.2305H172.168V49.2305ZM144.41 49.2305H154.41V37.8437H144.41L134.41 37.8438V49.2305L144.41 49.2305ZM144.41 37.8437V47.8437H151.414V37.8437V27.8437H144.41V37.8437ZM151.414 37.8437H141.414V43.7305H151.414H161.414V37.8437H151.414ZM151.414 43.7305V53.7305H172.168V43.7305V33.7305H151.414V43.7305ZM209.121 10.043H219.121C219.121 4.52012 214.644 0.0429687 209.121 0.0429687V10.043ZM209.121 49.918V59.918C214.644 59.918 219.121 55.4408 219.121 49.918H209.121ZM202.16 49.918H192.16C192.16 55.4408 196.637 59.918 202.16 59.918V49.918ZM202.16 10.043V0.0429687C196.637 0.0429687 192.16 4.52012 192.16 10.043H202.16ZM187.293 12.707L187.224 22.7068C187.27 22.7071 187.317 22.7071 187.364 22.7068L187.293 12.707ZM187.293 18.9375L187.124 28.9361C187.241 28.938 187.358 28.938 187.475 28.9358L187.293 18.9375ZM209.121 10.043H199.121V49.918H209.121H219.121V10.043H209.121ZM209.121 49.918V39.918H202.16V49.918V59.918H209.121V49.918ZM202.16 49.918H212.16V10.043H202.16H192.16V49.918H202.16ZM202.16 10.043V20.043L209.121 20.043V10.043V0.0429687H202.16V10.043ZM187.293 12.707L187.364 22.7068C187.296 22.7073 187.127 22.6835 186.951 22.5938C186.79 22.511 186.798 22.4628 186.919 22.6211C187.19 22.9757 187.906 24.2764 187.906 27.0156H197.906L207.906 27.0156C207.906 20.9893 206.346 15.1141 202.824 10.4951C199.177 5.71116 193.644 2.66174 187.222 2.70728L187.293 12.707ZM197.906 27.0156H187.906C187.906 29.8458 187.177 31.1679 186.907 31.5233C186.786 31.6821 186.775 31.637 186.929 31.5576C187.095 31.4722 187.248 31.4531 187.293 31.4531V41.4531V51.4531C193.666 51.4531 199.185 48.4264 202.837 43.6163C206.359 38.9767 207.906 33.08 207.906 27.0156L197.906 27.0156ZM187.293 41.4531V31.4531C187.271 31.4531 187.376 31.4565 187.514 31.526C187.642 31.5909 187.623 31.6244 187.504 31.4694C187.238 31.1245 186.508 29.8268 186.508 27.0156H176.508H166.508C166.508 33.0989 168.076 39.02 171.656 43.6702C175.369 48.4928 180.931 51.4531 187.293 51.4531V41.4531ZM176.508 27.0156H186.508C186.508 24.2956 187.225 23.0192 187.491 22.675C187.611 22.5203 187.627 22.5569 187.492 22.6251C187.431 22.6556 187.365 22.6793 187.303 22.6937C187.241 22.7079 187.21 22.7067 187.224 22.7068L187.293 12.707L187.362 2.70727C180.953 2.66276 175.378 5.64447 171.669 10.4412C168.09 15.0706 166.508 20.97 166.508 27.0156H176.508ZM187.293 18.9375L187.462 8.93894C181.831 8.84349 177.633 12.1176 175.459 16.1866C173.618 19.633 173.168 23.5815 173.168 27.0156H183.168H193.168C193.168 26.0989 193.236 25.5327 193.289 25.2484C193.345 24.9423 193.351 25.1395 193.1 25.6093C192.834 26.1079 192.208 27.0333 190.994 27.8152C189.716 28.6385 188.319 28.9563 187.124 28.9361L187.293 18.9375ZM183.168 27.0156H173.168C173.168 30.4701 173.612 34.4374 175.467 37.8971C177.682 42.0266 181.857 45.1367 187.293 45.1367V35.1367V25.1367C188.403 25.1367 189.739 25.4395 190.986 26.2412C192.183 27.0103 192.814 27.9261 193.092 28.4447C193.351 28.9275 193.347 29.1358 193.29 28.8278C193.237 28.5407 193.168 27.9624 193.168 27.0156H183.168ZM187.293 35.1367V45.1367C192.892 45.1367 196.943 41.7724 199.019 37.8416C200.819 34.4356 201.289 30.5236 201.289 27.0156H191.289H181.289C181.289 27.9469 181.219 28.5236 181.165 28.8154C181.107 29.1272 181.098 28.9492 181.335 28.5002C181.584 28.0295 182.179 27.1281 183.351 26.3434C184.592 25.5133 186.001 25.1367 187.293 25.1367V35.1367ZM191.289 27.0156H201.289C201.289 23.5283 200.812 19.6343 199.027 16.2419C196.997 12.3823 192.918 8.83358 187.111 8.93915L187.293 18.9375L187.475 28.9358C186.089 28.961 184.614 28.5647 183.344 27.7127C182.155 26.9153 181.564 26.0044 181.327 25.5539C181.098 25.118 181.109 24.9508 181.167 25.2609C181.221 25.55 181.289 26.1145 181.289 27.0156H191.289ZM246.203 11.9766H256.203C256.203 6.45372 251.726 1.97656 246.203 1.97656V11.9766ZM246.203 17.3906V27.3906C251.726 27.3906 256.203 22.9135 256.203 17.3906H246.203ZM238.984 17.3906V7.39062C236.184 7.39062 233.512 8.56484 231.618 10.6277C229.724 12.6905 228.782 15.4529 229.021 18.2431L238.984 17.3906ZM247.621 27.4883L256.097 32.7945C257.73 30.1858 258.071 26.9704 257.021 24.0772C255.972 21.1841 253.648 18.9356 250.722 17.9812L247.621 27.4883ZM244.312 32.7734L241.47 42.3609C245.776 43.6376 250.405 41.8867 252.789 38.0796L244.312 32.7734ZM235.504 25.7266L244.352 21.0667C242.6 17.7412 239.132 15.6787 235.374 15.7274C231.616 15.7761 228.203 17.928 226.538 21.2977L235.504 25.7266ZM226.223 33.5039L217.841 38.9585C220.257 42.6702 224.826 44.3511 229.071 43.0896L226.223 33.5039ZM222.699 28.0898L219.838 18.508C216.817 19.4102 214.398 21.6842 213.312 24.6438C212.225 27.6034 212.598 30.902 214.318 33.5444L222.699 28.0898ZM231.852 17.3906L241.805 18.3506C242.076 15.5445 241.15 12.7545 239.254 10.6675C237.359 8.58059 234.671 7.39062 231.852 7.39062V17.3906ZM224.59 17.3906H214.59C214.59 22.9135 219.067 27.3906 224.59 27.3906V17.3906ZM224.59 11.9766V1.97656C219.067 1.97656 214.59 6.45372 214.59 11.9766H224.59ZM256.988 35.1797H266.988C266.988 29.6568 262.511 25.1797 256.988 25.1797V35.1797ZM256.988 49.7891V59.7891C262.511 59.7891 266.988 55.3119 266.988 49.7891H256.988ZM250.113 49.7891H240.113C240.113 55.3119 244.59 59.7891 250.113 59.7891V49.7891ZM250.113 40.6367H260.113C260.113 35.1139 255.636 30.6367 250.113 30.6367V40.6367ZM229.359 40.6367H219.359C219.359 46.1596 223.837 50.6367 229.359 50.6367V40.6367ZM229.359 35.1797V25.1797C223.837 25.1797 219.359 29.6568 219.359 35.1797H229.359ZM256.988 10.043H266.988C266.988 4.52012 262.511 0.0429687 256.988 0.0429687V10.043ZM256.988 33.6758V43.6758C262.511 43.6758 266.988 39.1986 266.988 33.6758H256.988ZM250.113 33.6758H240.113C240.113 39.1986 244.59 43.6758 250.113 43.6758V33.6758ZM250.113 24.6523H260.113C260.113 19.1295 255.636 14.6523 250.113 14.6523V24.6523ZM245.172 24.6523H235.172C235.172 30.1752 239.649 34.6523 245.172 34.6523V24.6523ZM245.172 19.0664V9.06641C239.649 9.06641 235.172 13.5436 235.172 19.0664H245.172ZM250.113 19.0664V29.0664C255.636 29.0664 260.113 24.5893 260.113 19.0664H250.113ZM250.113 10.043V0.0429687C244.59 0.0429687 240.113 4.52012 240.113 10.043H250.113ZM246.203 11.9766L236.203 11.9766V17.3906H246.203H256.203V11.9766H246.203ZM246.203 17.3906V7.39062H238.984V17.3906V27.3906H246.203V17.3906ZM238.984 17.3906L229.021 18.2431C229.33 21.8521 230.549 25.7871 233.256 29.3083C235.996 32.8714 239.845 35.4706 244.52 36.9954L247.621 27.4883L250.722 17.9812C250.034 17.7567 249.632 17.5295 249.42 17.3852C249.214 17.245 249.135 17.1481 249.111 17.1175C249.085 17.083 248.983 16.9467 248.948 16.5381L238.984 17.3906ZM247.621 27.4883L239.145 22.1821L235.836 27.4673L244.312 32.7734L252.789 38.0796L256.097 32.7945L247.621 27.4883ZM244.312 32.7734L247.155 23.1859C246.222 22.9093 245.659 22.5615 245.304 22.2684C244.945 21.9725 244.629 21.593 244.352 21.0667L235.504 25.7266L226.656 30.3865C229.592 35.9617 234.576 40.317 241.47 42.3609L244.312 32.7734ZM235.504 25.7266L226.538 21.2977C225.913 22.5634 225.06 23.4173 223.374 23.9182L226.223 33.5039L229.071 43.0896C236.495 40.8835 241.571 36.0225 244.47 30.1554L235.504 25.7266ZM226.223 33.5039L234.604 28.0493L231.081 22.6353L222.699 28.0898L214.318 33.5444L217.841 38.9585L226.223 33.5039ZM222.699 28.0898L225.561 37.6716C230.632 36.1572 234.683 33.3799 237.51 29.6283C240.269 25.9661 241.462 21.9137 241.805 18.3506L231.852 17.3906L221.898 16.4306C221.833 17.0999 221.651 17.4412 221.537 17.5924C221.479 17.6687 221.377 17.7833 221.169 17.9243C220.955 18.0689 220.547 18.296 219.838 18.508L222.699 28.0898ZM231.852 17.3906V7.39062H224.59V17.3906V27.3906H231.852V17.3906ZM224.59 17.3906H234.59V11.9766H224.59H214.59V17.3906H224.59ZM224.59 11.9766V21.9766H246.203V11.9766V1.97656H224.59V11.9766ZM256.988 35.1797H246.988V49.7891H256.988H266.988V35.1797H256.988ZM256.988 49.7891V39.7891H250.113V49.7891V59.7891H256.988V49.7891ZM250.113 49.7891H260.113V40.6367H250.113H240.113V49.7891H250.113ZM250.113 40.6367V30.6367H229.359V40.6367V50.6367H250.113V40.6367ZM229.359 40.6367H239.359V35.1797H229.359H219.359V40.6367H229.359ZM229.359 35.1797V45.1797H256.988V35.1797V25.1797H229.359V35.1797ZM256.988 10.043H246.988V33.6758H256.988H266.988V10.043H256.988ZM256.988 33.6758V23.6758H250.113V33.6758V43.6758H256.988V33.6758ZM250.113 33.6758H260.113V24.6523H250.113H240.113V33.6758H250.113ZM250.113 24.6523V14.6523H245.172V24.6523V34.6523H250.113V24.6523ZM245.172 24.6523H255.172V19.0664H245.172H235.172V24.6523H245.172ZM245.172 19.0664V29.0664H250.113V19.0664V9.06641H245.172V19.0664ZM250.113 19.0664H260.113V10.043H250.113H240.113V19.0664H250.113ZM250.113 10.043V20.043H256.988V10.043V0.0429687H250.113V10.043ZM297.465 29.9805H307.465C307.465 24.4576 302.988 19.9805 297.465 19.9805V29.9805ZM297.465 35.3945V45.3945C302.988 45.3945 307.465 40.9174 307.465 35.3945H297.465ZM261.199 35.3945H251.199C251.199 40.9174 255.676 45.3945 261.199 45.3945V35.3945ZM261.199 29.9805V19.9805C255.676 19.9805 251.199 24.4576 251.199 29.9805H261.199ZM293.254 43.7305H303.254C303.254 38.2076 298.777 33.7305 293.254 33.7305V43.7305ZM293.254 49.2305V59.2305C298.777 59.2305 303.254 54.7533 303.254 49.2305H293.254ZM265.367 49.2305H255.367C255.367 54.7533 259.844 59.2305 265.367 59.2305V49.2305ZM265.367 37.543V27.543C259.844 27.543 255.367 32.0201 255.367 37.543H265.367ZM272.285 37.543H282.285C282.285 32.0201 277.808 27.543 272.285 27.543V37.543ZM272.285 43.7305H262.285C262.285 49.2533 266.762 53.7305 272.285 53.7305V43.7305ZM294.027 19.4531L304.027 19.5358C304.027 19.4802 304.027 19.4247 304.027 19.3691L294.027 19.4531ZM264.594 19.4531L274.593 19.5358C274.594 19.4802 274.594 19.4247 274.593 19.3691L264.594 19.4531ZM279.332 16.5742L279.42 6.5746C279.362 6.57409 279.304 6.57409 279.246 6.57459L279.332 16.5742ZM271.77 19.4531L281.767 19.6614C281.77 19.5179 281.77 19.3744 281.767 19.231L271.77 19.4531ZM279.332 22.2891L279.42 12.2894C279.362 12.2889 279.304 12.2889 279.246 12.2894L279.332 22.2891ZM297.465 29.9805H287.465V35.3945H297.465H307.465V29.9805H297.465ZM297.465 35.3945V25.3945H261.199V35.3945V45.3945H297.465V35.3945ZM261.199 35.3945H271.199V29.9805H261.199H251.199V35.3945H261.199ZM261.199 29.9805V39.9805H297.465V29.9805V19.9805H261.199V29.9805ZM293.254 43.7305H283.254V49.2305H293.254H303.254V43.7305H293.254ZM293.254 49.2305V39.2305H265.367V49.2305V59.2305H293.254V49.2305ZM265.367 49.2305H275.367V37.543H265.367H255.367V49.2305H265.367ZM265.367 37.543V47.543H272.285V37.543V27.543H265.367V37.543ZM272.285 37.543H262.285V43.7305H272.285H282.285V37.543H272.285ZM272.285 43.7305V53.7305H293.254V43.7305V33.7305H272.285V43.7305ZM279.332 11.1602V21.1602C282.694 21.1602 284.498 21.7985 285.082 22.1238C285.316 22.2542 285.044 22.1613 284.689 21.6412C284.283 21.0469 284.034 20.2754 284.028 19.5372L294.027 19.4531L304.027 19.3691C303.967 12.2838 299.625 7.33288 294.819 4.65448C290.258 2.11168 284.736 1.16016 279.332 1.16016V11.1602ZM294.027 19.4531L284.028 19.3705C284.033 18.6906 284.26 17.9583 284.648 17.3819C284.988 16.8753 285.251 16.7829 285.027 16.9102C284.458 17.2316 282.677 17.875 279.332 17.875V27.875V37.875C284.753 37.875 290.297 36.9071 294.875 34.3174C299.714 31.5795 303.969 26.5841 304.027 19.5358L294.027 19.4531ZM279.332 27.875V17.875C275.925 17.875 274.111 17.2251 273.536 16.9014C273.31 16.7739 273.596 16.8777 273.957 17.4192C274.368 18.0374 274.599 18.8181 274.593 19.5358L264.594 19.4531L254.594 19.3705C254.535 26.53 258.856 31.5864 263.719 34.3261C268.311 36.9136 273.887 37.875 279.332 37.875V27.875ZM264.594 19.4531L274.593 19.3691C274.6 20.1461 274.347 20.9672 273.916 21.6038C273.541 22.1589 273.245 22.2632 273.481 22.1324C274.071 21.8048 275.909 21.1602 279.332 21.1602V11.1602V1.16016C273.904 1.16016 268.351 2.10539 263.774 4.64587C258.947 7.32534 254.534 12.3377 254.594 19.5372L264.594 19.4531ZM279.332 16.5742L279.246 6.57459C276.456 6.59864 273.133 6.83548 270.185 7.93007C268.652 8.49923 266.54 9.54537 264.759 11.5491C262.769 13.7866 261.705 16.6563 261.772 19.6753L271.77 19.4531L281.767 19.231C281.813 21.2832 281.06 23.3149 279.705 24.8381C278.559 26.1275 277.406 26.5828 277.146 26.6793C276.834 26.7953 276.823 26.7517 277.309 26.6896C277.758 26.6323 278.445 26.5822 279.418 26.5738L279.332 16.5742ZM271.77 19.4531L261.772 19.2448C261.712 22.116 262.657 24.9964 264.68 27.327C266.504 29.4293 268.696 30.5022 270.29 31.0736C273.306 32.1555 276.69 32.3122 279.418 32.2887L279.332 22.2891L279.246 12.2894C278.256 12.298 277.567 12.261 277.121 12.2126C276.635 12.1597 276.682 12.1187 277.041 12.2477C277.362 12.3626 278.595 12.8474 279.784 14.2178C281.172 15.8166 281.806 17.8215 281.767 19.6614L271.77 19.4531ZM279.332 22.2891L279.244 32.2887C281.954 32.3124 285.308 32.1513 288.314 31.0781C289.896 30.5129 292.05 29.4636 293.865 27.4279C295.874 25.1757 296.895 22.3496 296.895 19.4531H286.895H276.895C276.895 17.5879 277.582 15.6373 278.938 14.1169C280.101 12.813 281.283 12.3518 281.587 12.2432C281.93 12.1207 281.967 12.1615 281.492 12.2135C281.055 12.2613 280.382 12.2979 279.42 12.2894L279.332 22.2891ZM286.895 19.4531H296.895C296.895 16.4145 295.754 13.6048 293.785 11.4489C292.014 9.51086 289.941 8.48825 288.418 7.9253C285.483 6.84016 282.19 6.5989 279.42 6.5746L279.332 16.5742L279.244 26.5738C280.191 26.5821 280.862 26.6316 281.303 26.6884C281.779 26.7497 281.778 26.7933 281.482 26.6841C281.238 26.5938 280.137 26.162 279.019 24.9383C277.702 23.4968 276.895 21.525 276.895 19.4531H286.895Z" fill="white" mask="url(#path-1-outside-1_6526_5663)"/>
</g>
<defs>
<filter id="filter0_d_6526_5663" x="0" y="0" width="311.465" height="67.918" filterUnits="userSpaceOnUse" color-interpolation-filters="sRGB">
<feFlood flood-opacity="0" result="BackgroundImageFix"/>
<feColorMatrix in="SourceAlpha" type="matrix" values="0 0 0 0 0 0 0 0 0 0 0 0 0 0 0 0 0 0 127 0" result="hardAlpha"/>
<feOffset dy="4"/>
<feGaussianBlur stdDeviation="2"/>
<feComposite in2="hardAlpha" operator="out"/>
<feColorMatrix type="matrix" values="0 0 0 0 0 0 0 0 0 0 0 0 0 0 0 0 0 0 0.07 0"/>
<feBlend mode="normal" in2="BackgroundImageFix" result="effect1_dropShadow_6526_5663"/>
<feBlend mode="normal" in="SourceGraphic" in2="effect1_dropShadow_6526_5663" result="shape"/>
</filter>
</defs>
</svg>
