<svg width="359" height="68" viewBox="0 0 359 68" fill="none" xmlns="http://www.w3.org/2000/svg">
<g filter="url(#filter0_d_6526_5743)">
<mask id="path-1-outside-1_6526_5743" maskUnits="userSpaceOnUse" x="3.15234" y="-0.507813" width="352" height="61" fill="black">
<rect fill="white" x="3.15234" y="-0.507813" width="352" height="61"/>
<path d="M46.6133 10V49.875H39.6523V10L46.6133 10ZM24.7852 12.6641C30.8438 12.6211 35.3984 18.207 35.3984 26.9727C35.3984 35.8672 30.8438 41.4102 24.7852 41.4102C18.5977 41.4102 14 35.8672 14 26.9727C14 18.207 18.5977 12.6211 24.7852 12.6641ZM24.7852 18.8945C22.25 18.8516 20.6602 21.4727 20.6602 26.9727C20.6602 32.5586 22.25 35.0938 24.7852 35.0938C27.1484 35.0938 28.7812 32.5586 28.7812 26.9727C28.7812 21.4727 27.1484 18.8516 24.7852 18.8945ZM87.3477 31.7852V37.2852H79.5273V49.7461H72.5234V37.2852H65.6914V49.7461H58.6445V37.2852H51.082V31.7852H87.3477ZM69.0859 11.2031C77.7227 11.1602 83.9102 14.7695 83.9102 20.3555C83.9102 25.7695 77.7227 29.207 69.0859 29.207C60.4492 29.207 54.3477 25.7695 54.3906 20.3555C54.3477 14.7695 60.4492 11.1602 69.0859 11.2031ZM69.0859 16.6602C64.3164 16.6602 61.4805 17.8203 61.4805 20.3555C61.4805 22.6758 64.3164 23.793 69.0859 23.8359C73.9414 23.793 76.7344 22.6758 76.7344 20.3555C76.7344 17.8203 73.9414 16.6602 69.0859 16.6602ZM109.305 33.2461V36.5117H111.668V33.2461H118.027V44.1172C121.895 42.2051 123.312 38.9609 123.312 35.6953V32.8594H130.273V35.6953C130.23 39.6914 131.82 43.1719 136.805 44.6328L133.324 49.7031C130.059 48.7148 127.932 46.7598 126.664 44.2031C125.332 46.6523 123.27 48.6074 120.262 49.7031L118.027 46.3086V49.4023H102.988V33.2461H109.305ZM109.305 44.2461H111.668V41.4961H109.305V44.2461ZM109.863 11.375C114.719 11.375 118.758 14.0605 120.09 18.0352H125.633V10H132.508V31.0547H125.633V23.6211H120.09C118.801 27.7246 114.762 30.4102 109.863 30.4102C103.719 30.4102 99.0781 26.457 99.1211 20.8281C99.0781 15.3711 103.719 11.375 109.863 11.375ZM109.863 17.0039C107.371 17.0039 105.609 18.3359 105.652 20.8281C105.609 23.4062 107.371 24.8242 109.863 24.8242C112.27 24.8242 113.945 23.4062 113.988 20.8281C113.945 18.3359 112.27 17.0039 109.863 17.0039ZM169.074 20.0977V25.4258H140.973V11.418H147.848V20.0977H169.074ZM172.984 28.9492V34.2773L136.719 34.2773V28.9492L172.984 28.9492ZM169.332 43.4727V48.9727H140.5V37.0273H147.461V43.4727H169.332ZM195.629 11.0312C201.773 10.9883 206.457 14.8984 206.457 20.2695C206.457 25.5977 201.773 29.4648 195.629 29.4648C189.441 29.4648 184.715 25.5977 184.758 20.2695C184.715 14.8984 189.441 10.9883 195.629 11.0312ZM195.629 16.5742C193.18 16.6172 191.375 17.7773 191.418 20.2695C191.375 22.7187 193.18 23.9648 195.629 23.9648C198.078 23.9648 199.797 22.7187 199.797 20.2695C199.797 17.7773 198.078 16.6172 195.629 16.5742ZM217.844 10V29.6367H210.926V10H217.844ZM217.844 31.0977V42.6562H197.52V44.0312H218.703V49.4023H190.773V37.7148H210.969V36.3398H190.688V31.0977H217.844ZM257.031 10V49.7461H250.457V10H257.031ZM248.566 10.4727V48.0273H242.078V29.6367H240.145C239.564 37.457 236.234 42.0977 231.336 42.0977C226.008 42.0977 222.57 36.5117 222.613 27.2734C222.57 18.1211 226.008 12.5352 231.336 12.5352C236.084 12.5352 239.35 16.8965 240.102 24.2227H242.078V10.4727H248.566ZM231.336 19.0664C229.703 19.0664 228.887 21.4297 228.93 27.2734C228.887 33.1602 229.703 35.4805 231.336 35.4805C233.012 35.4805 233.914 33.1602 233.914 27.2734C233.914 21.4297 233.012 19.0664 231.336 19.0664ZM306.445 14.7266V20.2695H301.762V23.3203H306.445V28.9922H301.762V33.332H294.844V10L301.762 10V14.7266H306.445ZM301.762 34.75V49.7461H294.844V40.293H274.562V34.75H301.762ZM281.094 12.0625C287.324 12.0625 292.223 16.2734 292.223 21.9453C292.223 27.7461 287.324 31.9141 281.094 31.9141C274.82 31.9141 269.922 27.7461 269.922 21.9453C269.922 16.2734 274.82 12.0625 281.094 12.0625ZM281.094 17.9492C278.602 17.9492 276.668 19.2383 276.668 21.9453C276.668 24.7383 278.602 26.0703 281.094 26.0703C283.543 26.0703 285.477 24.7383 285.52 21.9453C285.477 19.2383 283.543 17.9492 281.094 17.9492ZM339.789 10.0859V21.6875H344.73V27.2734H339.789V39.6914H332.871V10.0859H339.789ZM331.453 13.8242V19.1523H307.949V13.8242H316.242V10H323.16V13.8242H331.453ZM319.68 20.0547C325.48 20.0547 329.605 23.2773 329.605 27.918C329.605 32.5586 325.48 35.6953 319.68 35.6523C313.836 35.6953 309.668 32.5586 309.668 27.918C309.668 23.2773 313.836 20.0547 319.68 20.0547ZM319.68 25.2539C317.703 25.2969 316.414 26.1133 316.414 27.918C316.414 29.7227 317.703 30.4961 319.68 30.4961C321.699 30.4961 323.074 29.7227 323.074 27.918C323.074 26.1133 321.699 25.2969 319.68 25.2539ZM340.949 43.6875V49.1875H313.449V37.457H320.367V43.6875H340.949Z"/>
</mask>
<path d="M46.6133 10V49.875H39.6523V10L46.6133 10ZM24.7852 12.6641C30.8438 12.6211 35.3984 18.207 35.3984 26.9727C35.3984 35.8672 30.8438 41.4102 24.7852 41.4102C18.5977 41.4102 14 35.8672 14 26.9727C14 18.207 18.5977 12.6211 24.7852 12.6641ZM24.7852 18.8945C22.25 18.8516 20.6602 21.4727 20.6602 26.9727C20.6602 32.5586 22.25 35.0938 24.7852 35.0938C27.1484 35.0938 28.7812 32.5586 28.7812 26.9727C28.7812 21.4727 27.1484 18.8516 24.7852 18.8945ZM87.3477 31.7852V37.2852H79.5273V49.7461H72.5234V37.2852H65.6914V49.7461H58.6445V37.2852H51.082V31.7852H87.3477ZM69.0859 11.2031C77.7227 11.1602 83.9102 14.7695 83.9102 20.3555C83.9102 25.7695 77.7227 29.207 69.0859 29.207C60.4492 29.207 54.3477 25.7695 54.3906 20.3555C54.3477 14.7695 60.4492 11.1602 69.0859 11.2031ZM69.0859 16.6602C64.3164 16.6602 61.4805 17.8203 61.4805 20.3555C61.4805 22.6758 64.3164 23.793 69.0859 23.8359C73.9414 23.793 76.7344 22.6758 76.7344 20.3555C76.7344 17.8203 73.9414 16.6602 69.0859 16.6602ZM109.305 33.2461V36.5117H111.668V33.2461H118.027V44.1172C121.895 42.2051 123.312 38.9609 123.312 35.6953V32.8594H130.273V35.6953C130.23 39.6914 131.82 43.1719 136.805 44.6328L133.324 49.7031C130.059 48.7148 127.932 46.7598 126.664 44.2031C125.332 46.6523 123.27 48.6074 120.262 49.7031L118.027 46.3086V49.4023H102.988V33.2461H109.305ZM109.305 44.2461H111.668V41.4961H109.305V44.2461ZM109.863 11.375C114.719 11.375 118.758 14.0605 120.09 18.0352H125.633V10H132.508V31.0547H125.633V23.6211H120.09C118.801 27.7246 114.762 30.4102 109.863 30.4102C103.719 30.4102 99.0781 26.457 99.1211 20.8281C99.0781 15.3711 103.719 11.375 109.863 11.375ZM109.863 17.0039C107.371 17.0039 105.609 18.3359 105.652 20.8281C105.609 23.4062 107.371 24.8242 109.863 24.8242C112.27 24.8242 113.945 23.4062 113.988 20.8281C113.945 18.3359 112.27 17.0039 109.863 17.0039ZM169.074 20.0977V25.4258H140.973V11.418H147.848V20.0977H169.074ZM172.984 28.9492V34.2773L136.719 34.2773V28.9492L172.984 28.9492ZM169.332 43.4727V48.9727H140.5V37.0273H147.461V43.4727H169.332ZM195.629 11.0312C201.773 10.9883 206.457 14.8984 206.457 20.2695C206.457 25.5977 201.773 29.4648 195.629 29.4648C189.441 29.4648 184.715 25.5977 184.758 20.2695C184.715 14.8984 189.441 10.9883 195.629 11.0312ZM195.629 16.5742C193.18 16.6172 191.375 17.7773 191.418 20.2695C191.375 22.7187 193.18 23.9648 195.629 23.9648C198.078 23.9648 199.797 22.7187 199.797 20.2695C199.797 17.7773 198.078 16.6172 195.629 16.5742ZM217.844 10V29.6367H210.926V10H217.844ZM217.844 31.0977V42.6562H197.52V44.0312H218.703V49.4023H190.773V37.7148H210.969V36.3398H190.688V31.0977H217.844ZM257.031 10V49.7461H250.457V10H257.031ZM248.566 10.4727V48.0273H242.078V29.6367H240.145C239.564 37.457 236.234 42.0977 231.336 42.0977C226.008 42.0977 222.57 36.5117 222.613 27.2734C222.57 18.1211 226.008 12.5352 231.336 12.5352C236.084 12.5352 239.35 16.8965 240.102 24.2227H242.078V10.4727H248.566ZM231.336 19.0664C229.703 19.0664 228.887 21.4297 228.93 27.2734C228.887 33.1602 229.703 35.4805 231.336 35.4805C233.012 35.4805 233.914 33.1602 233.914 27.2734C233.914 21.4297 233.012 19.0664 231.336 19.0664ZM306.445 14.7266V20.2695H301.762V23.3203H306.445V28.9922H301.762V33.332H294.844V10L301.762 10V14.7266H306.445ZM301.762 34.75V49.7461H294.844V40.293H274.562V34.75H301.762ZM281.094 12.0625C287.324 12.0625 292.223 16.2734 292.223 21.9453C292.223 27.7461 287.324 31.9141 281.094 31.9141C274.82 31.9141 269.922 27.7461 269.922 21.9453C269.922 16.2734 274.82 12.0625 281.094 12.0625ZM281.094 17.9492C278.602 17.9492 276.668 19.2383 276.668 21.9453C276.668 24.7383 278.602 26.0703 281.094 26.0703C283.543 26.0703 285.477 24.7383 285.52 21.9453C285.477 19.2383 283.543 17.9492 281.094 17.9492ZM339.789 10.0859V21.6875H344.73V27.2734H339.789V39.6914H332.871V10.0859H339.789ZM331.453 13.8242V19.1523H307.949V13.8242H316.242V10H323.16V13.8242H331.453ZM319.68 20.0547C325.48 20.0547 329.605 23.2773 329.605 27.918C329.605 32.5586 325.48 35.6953 319.68 35.6523C313.836 35.6953 309.668 32.5586 309.668 27.918C309.668 23.2773 313.836 20.0547 319.68 20.0547ZM319.68 25.2539C317.703 25.2969 316.414 26.1133 316.414 27.918C316.414 29.7227 317.703 30.4961 319.68 30.4961C321.699 30.4961 323.074 29.7227 323.074 27.918C323.074 26.1133 321.699 25.2969 319.68 25.2539ZM340.949 43.6875V49.1875H313.449V37.457H320.367V43.6875H340.949Z" fill="#11DCA9"/>
<path d="M46.6133 10H56.6133C56.6133 4.47715 52.1361 0 46.6133 0V10ZM46.6133 49.875V59.875C52.1361 59.875 56.6133 55.3978 56.6133 49.875H46.6133ZM39.6523 49.875H29.6523C29.6523 55.3978 34.1295 59.875 39.6523 59.875V49.875ZM39.6523 10V0C34.1295 0 29.6523 4.47715 29.6523 10H39.6523ZM24.7852 12.6641L24.7157 22.6638C24.7625 22.6641 24.8093 22.6641 24.8561 22.6638L24.7852 12.6641ZM24.7852 18.8945L24.6157 28.8931C24.7328 28.8951 24.8499 28.895 24.9669 28.8929L24.7852 18.8945ZM46.6133 10L36.6133 10V49.875H46.6133H56.6133V10H46.6133ZM46.6133 49.875V39.875H39.6523V49.875V59.875H46.6133V49.875ZM39.6523 49.875H49.6523V10L39.6523 10H29.6523V49.875H39.6523ZM39.6523 10V20H46.6133V10V0H39.6523V10ZM24.7852 12.6641L24.8561 22.6638C24.7883 22.6643 24.6188 22.6406 24.4434 22.5508C24.2817 22.4681 24.2907 22.4198 24.4114 22.5782C24.6818 22.9327 25.3984 24.2334 25.3984 26.9727H35.3984H45.3984C45.3984 20.9463 43.8378 15.0712 40.3161 10.4521C36.6688 5.66819 31.1358 2.61877 24.7142 2.66431L24.7852 12.6641ZM35.3984 26.9727H25.3984C25.3984 29.8028 24.6687 31.1249 24.3988 31.4804C24.2783 31.6391 24.2672 31.594 24.4212 31.5147C24.587 31.4293 24.7399 31.4102 24.7852 31.4102V41.4102V51.4102C31.1587 51.4102 36.6772 48.3834 40.3287 43.5733C43.8508 38.9337 45.3984 33.0371 45.3984 26.9727H35.3984ZM24.7852 41.4102V31.4102C24.7637 31.4102 24.8685 31.4135 25.0059 31.483C25.1341 31.5479 25.1153 31.5815 24.996 31.4265C24.7304 31.0816 24 29.7839 24 26.9727H14H4C4 33.056 5.56839 38.977 9.14856 43.6273C12.8614 48.4498 18.423 51.4102 24.7852 51.4102V41.4102ZM14 26.9727H24C24 24.2526 24.7171 22.9762 24.9832 22.632C25.1028 22.4774 25.1195 22.5139 24.9839 22.5822C24.9232 22.6127 24.857 22.6363 24.7949 22.6507C24.7332 22.6649 24.7027 22.6637 24.7157 22.6638L24.7852 12.6641L24.8546 2.6643C18.4455 2.6198 12.8702 5.60151 9.16129 10.3982C5.58174 15.0277 4 20.9271 4 26.9727H14ZM24.7852 18.8945L24.9546 8.89597C19.3231 8.80052 15.1248 12.0746 12.9514 16.1436C11.1105 19.59 10.6602 23.5385 10.6602 26.9727H20.6602H30.6602C30.6602 26.0559 30.7283 25.4897 30.7809 25.2055C30.8376 24.8993 30.8435 25.0966 30.5926 25.5664C30.3263 26.0649 29.7 26.9904 28.486 27.7722C27.2078 28.5955 25.8112 28.9134 24.6157 28.8931L24.7852 18.8945ZM20.6602 26.9727H10.6602C10.6602 30.4271 11.1039 34.3944 12.9593 37.8541C15.1739 41.9836 19.3488 45.0938 24.7852 45.0938V35.0938V25.0938C25.8953 25.0938 27.2309 25.3965 28.4781 26.1982C29.6747 26.9673 30.3065 27.8831 30.5847 28.4018C30.8436 28.8846 30.8392 29.0928 30.7824 28.7849C30.7295 28.4977 30.6602 27.9194 30.6602 26.9727H20.6602ZM24.7852 35.0938V45.0938C30.3843 45.0938 34.4353 41.7294 36.5116 37.7986C38.3108 34.3926 38.7812 30.4806 38.7812 26.9727H28.7812H18.7812C18.7812 27.9039 18.7115 28.4806 18.6573 28.7724C18.5994 29.0842 18.5901 28.9062 18.8272 28.4572C19.0759 27.9865 19.6716 27.0851 20.8436 26.3005C22.0837 25.4703 23.4931 25.0938 24.7852 25.0938V35.0938ZM28.7812 26.9727H38.7812C38.7812 23.4853 38.3041 19.5914 36.5194 16.199C34.4888 12.3393 30.41 8.79061 24.6034 8.89618L24.7852 18.8945L24.9669 28.8929C23.5811 28.9181 22.1058 28.5217 20.8357 27.6697C19.6469 26.8723 19.0564 25.9614 18.8195 25.511C18.5901 25.075 18.6009 24.9078 18.6588 25.218C18.7127 25.507 18.7812 26.0715 18.7812 26.9727H28.7812ZM87.3477 31.7852H97.3477C97.3477 26.2623 92.8705 21.7852 87.3477 21.7852V31.7852ZM87.3477 37.2852V47.2852C92.8705 47.2852 97.3477 42.808 97.3477 37.2852H87.3477ZM79.5273 37.2852V27.2852C74.0045 27.2852 69.5273 31.7623 69.5273 37.2852H79.5273ZM79.5273 49.7461V59.7461C85.0502 59.7461 89.5273 55.2689 89.5273 49.7461H79.5273ZM72.5234 49.7461H62.5234C62.5234 55.2689 67.0006 59.7461 72.5234 59.7461V49.7461ZM72.5234 37.2852H82.5234C82.5234 31.7623 78.0463 27.2852 72.5234 27.2852V37.2852ZM65.6914 37.2852V27.2852C60.1686 27.2852 55.6914 31.7623 55.6914 37.2852H65.6914ZM65.6914 49.7461V59.7461C71.2143 59.7461 75.6914 55.2689 75.6914 49.7461H65.6914ZM58.6445 49.7461H48.6445C48.6445 55.2689 53.1217 59.7461 58.6445 59.7461V49.7461ZM58.6445 37.2852H68.6445C68.6445 31.7623 64.1674 27.2852 58.6445 27.2852V37.2852ZM51.082 37.2852H41.082C41.082 42.808 45.5592 47.2852 51.082 47.2852V37.2852ZM51.082 31.7852V21.7852C45.5592 21.7852 41.082 26.2623 41.082 31.7852H51.082ZM69.0859 11.2031L69.0362 21.203C69.0694 21.2032 69.1025 21.2032 69.1357 21.203L69.0859 11.2031ZM54.3906 20.3555L64.3903 20.4348C64.3907 20.3827 64.3907 20.3306 64.3903 20.2785L54.3906 20.3555ZM69.0859 23.8359L68.9958 33.8355C69.0554 33.8361 69.1149 33.8361 69.1744 33.8355L69.0859 23.8359ZM87.3477 31.7852H77.3477V37.2852H87.3477H97.3477V31.7852H87.3477ZM87.3477 37.2852V27.2852H79.5273V37.2852V47.2852H87.3477V37.2852ZM79.5273 37.2852H69.5273V49.7461H79.5273H89.5273V37.2852H79.5273ZM79.5273 49.7461V39.7461H72.5234V49.7461V59.7461H79.5273V49.7461ZM72.5234 49.7461H82.5234V37.2852H72.5234H62.5234V49.7461H72.5234ZM72.5234 37.2852V27.2852H65.6914V37.2852V47.2852H72.5234V37.2852ZM65.6914 37.2852H55.6914V49.7461H65.6914H75.6914V37.2852H65.6914ZM65.6914 49.7461V39.7461H58.6445V49.7461V59.7461H65.6914V49.7461ZM58.6445 49.7461H68.6445V37.2852H58.6445H48.6445V49.7461H58.6445ZM58.6445 37.2852V27.2852H51.082V37.2852V47.2852H58.6445V37.2852ZM51.082 37.2852H61.082V31.7852H51.082H41.082V37.2852H51.082ZM51.082 31.7852V41.7852H87.3477V31.7852V21.7852L51.082 21.7852V31.7852ZM69.0859 11.2031L69.1357 21.203C72.2112 21.1877 73.9458 21.8512 74.5457 22.2155C74.7973 22.3683 74.6247 22.3288 74.3726 21.9329C74.0837 21.479 73.9102 20.8939 73.9102 20.3555L83.9102 20.3555H93.9102C93.9102 13.2776 89.795 8.07746 84.928 5.12141C80.2749 2.29531 74.5974 1.17558 69.0362 1.20325L69.0859 11.2031ZM83.9102 20.3555L73.9102 20.3555C73.9102 19.7032 74.1249 19.0256 74.4617 18.515C74.7533 18.0731 74.9558 18.023 74.6882 18.1795C74.052 18.5516 72.2495 19.207 69.0859 19.207V29.207V39.207C74.5591 39.207 80.1687 38.1437 84.7854 35.4435C89.6049 32.6248 93.9102 27.5226 93.9102 20.3555H83.9102ZM69.0859 29.207V19.207C65.9186 19.207 64.1596 18.5503 63.5707 18.2023C63.3292 18.0595 63.5512 18.1285 63.8506 18.5914C64.1938 19.1218 64.3953 19.8027 64.3903 20.4348L54.3906 20.3555L44.3909 20.2761C44.3343 27.4166 48.5569 32.5612 53.3961 35.4208C58.0064 38.145 63.6166 39.207 69.0859 39.207V29.207ZM54.3906 20.3555L64.3903 20.2785C64.3943 20.7976 64.2323 21.3849 63.9378 21.8569C63.6786 22.2722 63.4876 22.3303 63.7136 22.1917C64.2662 21.8525 65.9571 21.1877 69.0362 21.203L69.0859 11.2031L69.1357 1.20325C63.5781 1.1756 57.8998 2.29394 53.2532 5.14523C48.3697 8.14194 44.3367 13.3822 44.3909 20.4324L54.3906 20.3555ZM69.0859 16.6602V6.66016C66.1835 6.66016 62.5505 6.96784 59.278 8.48959C57.5313 9.30184 55.5152 10.6337 53.9274 12.804C52.2584 15.0853 51.4805 17.7293 51.4805 20.3555H61.4805H71.4805C71.4805 21.7141 71.057 23.2624 70.0688 24.6131C69.1618 25.8529 68.1528 26.4193 67.7112 26.6247C67.2813 26.8246 67.1258 26.8092 67.4502 26.7579C67.7456 26.7111 68.2755 26.6602 69.0859 26.6602V16.6602ZM61.4805 20.3555H51.4805C51.4805 26.8076 55.9259 30.5435 59.4647 32.1017C62.616 33.4894 66.1226 33.8096 68.9958 33.8355L69.0859 23.8359L69.176 13.8363C68.3437 13.8288 67.7768 13.7747 67.4363 13.7213C67.0659 13.6631 67.1571 13.6359 67.5245 13.7977C67.8806 13.9544 68.8924 14.4652 69.8507 15.6804C70.9252 17.0432 71.4805 18.7281 71.4805 20.3555H61.4805ZM69.0859 23.8359L69.1744 33.8355C72.07 33.8099 75.598 33.4945 78.7609 32.1017C80.4339 31.3651 82.46 30.128 84.0984 28.0336C85.8502 25.7943 86.7344 23.1064 86.7344 20.3555H76.7344L66.7344 20.3555C66.7344 18.7647 67.2694 17.0866 68.3458 15.7107C69.3088 14.4797 70.3332 13.9596 70.701 13.7977C71.0769 13.6322 71.1716 13.6601 70.7914 13.7193C70.4417 13.7737 69.8585 13.8287 68.9974 13.8363L69.0859 23.8359ZM76.7344 20.3555H86.7344C86.7344 17.7631 85.9785 15.1263 84.315 12.8345C82.729 10.6494 80.7067 9.30765 78.9475 8.48959C75.6634 6.96237 72.0084 6.66016 69.0859 6.66016V16.6602V26.6602C69.9258 26.6602 70.4725 26.712 70.7777 26.7599C71.1122 26.8125 70.9529 26.8286 70.5144 26.6247C70.0603 26.4135 69.0398 25.8372 68.1292 24.5826C67.1412 23.2214 66.7344 21.6803 66.7344 20.3555L76.7344 20.3555ZM109.305 33.2461H119.305C119.305 27.7232 114.828 23.2461 109.305 23.2461V33.2461ZM109.305 36.5117H99.3047C99.3047 42.0346 103.782 46.5117 109.305 46.5117V36.5117ZM111.668 36.5117V46.5117C117.191 46.5117 121.668 42.0346 121.668 36.5117H111.668ZM111.668 33.2461V23.2461C106.145 23.2461 101.668 27.7232 101.668 33.2461H111.668ZM118.027 33.2461H128.027C128.027 27.7232 123.55 23.2461 118.027 23.2461V33.2461ZM118.027 44.1172H108.027C108.027 47.575 109.814 50.7875 112.751 52.612C115.688 54.4364 119.36 54.6139 122.46 53.0813L118.027 44.1172ZM123.312 32.8594V22.8594C117.79 22.8594 113.312 27.3365 113.312 32.8594H123.312ZM130.273 32.8594L140.273 32.8594C140.273 27.3365 135.796 22.8594 130.273 22.8594V32.8594ZM130.273 35.6953L140.273 35.8028C140.273 35.767 140.273 35.7312 140.273 35.6953L130.273 35.6953ZM136.805 44.6328L145.049 50.2922C146.863 47.6497 147.3 44.298 146.225 41.2786C145.15 38.2592 142.693 35.938 139.617 35.0365L136.805 44.6328ZM133.324 49.7031L130.428 59.2744C134.597 60.5362 139.103 58.9539 141.569 55.3625L133.324 49.7031ZM126.664 44.2031L135.623 39.7611C133.966 36.4177 130.584 34.2755 126.853 34.2049C123.122 34.1343 119.662 36.1471 117.879 39.4254L126.664 44.2031ZM120.262 49.7031L111.909 55.2012C114.457 59.0721 119.33 60.6853 123.685 59.0991L120.262 49.7031ZM118.027 46.3086L126.38 40.8105C123.951 37.1206 119.389 35.4615 115.158 36.7292C110.926 37.9969 108.027 41.8911 108.027 46.3086H118.027ZM118.027 49.4023V59.4023C123.55 59.4023 128.027 54.9252 128.027 49.4023H118.027ZM102.988 49.4023H92.9883C92.9883 54.9252 97.4654 59.4023 102.988 59.4023V49.4023ZM102.988 33.2461V23.2461C97.4654 23.2461 92.9883 27.7232 92.9883 33.2461H102.988ZM109.305 44.2461H99.3047C99.3047 49.7689 103.782 54.2461 109.305 54.2461V44.2461ZM111.668 44.2461V54.2461C117.191 54.2461 121.668 49.7689 121.668 44.2461H111.668ZM111.668 41.4961H121.668C121.668 35.9732 117.191 31.4961 111.668 31.4961V41.4961ZM109.305 41.4961V31.4961C103.782 31.4961 99.3047 35.9732 99.3047 41.4961H109.305ZM120.09 18.0352L110.608 21.2128C111.974 25.2884 115.792 28.0352 120.09 28.0352V18.0352ZM125.633 18.0352V28.0352C131.156 28.0352 135.633 23.558 135.633 18.0352H125.633ZM125.633 10V0C120.11 0 115.633 4.47715 115.633 10H125.633ZM132.508 10H142.508C142.508 4.47715 138.031 0 132.508 0V10ZM132.508 31.0547V41.0547C138.031 41.0547 142.508 36.5775 142.508 31.0547L132.508 31.0547ZM125.633 31.0547H115.633C115.633 36.5775 120.11 41.0547 125.633 41.0547V31.0547ZM125.633 23.6211H135.633C135.633 18.0982 131.156 13.6211 125.633 13.6211V23.6211ZM120.09 23.6211V13.6211C115.721 13.6211 111.859 16.4566 110.549 20.6241L120.09 23.6211ZM99.1211 20.8281L109.121 20.9045C109.121 20.8528 109.121 20.8011 109.121 20.7494L99.1211 20.8281ZM105.652 20.8281L115.651 20.9948C115.653 20.8818 115.653 20.7687 115.651 20.6557L105.652 20.8281ZM113.988 20.8281L123.987 20.9948C123.989 20.8818 123.989 20.7687 123.987 20.6557L113.988 20.8281ZM109.305 33.2461H99.3047V36.5117H109.305H119.305V33.2461H109.305ZM109.305 36.5117V46.5117H111.668V36.5117V26.5117H109.305V36.5117ZM111.668 36.5117H121.668V33.2461H111.668H101.668V36.5117H111.668ZM111.668 33.2461V43.2461H118.027V33.2461V23.2461H111.668V33.2461ZM118.027 33.2461H108.027V44.1172H118.027H128.027V33.2461H118.027ZM118.027 44.1172L122.46 53.0813C130.205 49.2514 133.312 42.2119 133.312 35.6953H123.312H113.312C113.312 35.8909 113.273 35.7382 113.45 35.4318C113.535 35.2836 113.632 35.1705 113.706 35.1023C113.777 35.0366 113.766 35.0688 113.595 35.1531L118.027 44.1172ZM123.312 35.6953H133.312V32.8594H123.312H113.312V35.6953H123.312ZM123.312 32.8594V42.8594H130.273V32.8594V22.8594H123.312V32.8594ZM130.273 32.8594H120.273V35.6953H130.273L140.273 35.6953V32.8594L130.273 32.8594ZM130.273 35.6953L120.274 35.5878C120.239 38.8716 120.859 42.8789 123.285 46.588C125.811 50.4514 129.611 52.945 133.992 54.2291L136.805 44.6328L139.617 35.0365C139.263 34.9327 139.246 34.875 139.408 34.9881C139.588 35.1139 139.823 35.3356 140.023 35.6415C140.418 36.2461 140.265 36.5151 140.273 35.8028L130.273 35.6953ZM136.805 44.6328L128.56 38.9735L125.08 44.0438L133.324 49.7031L141.569 55.3625L145.049 50.2922L136.805 44.6328ZM133.324 49.7031L136.221 40.1318C135.993 40.063 135.86 40 135.794 39.9649C135.76 39.9468 135.739 39.9335 135.729 39.9262C135.723 39.9225 135.719 39.9198 135.717 39.9182C135.716 39.9174 135.715 39.9168 135.715 39.9165C135.715 39.9161 135.714 39.9159 135.714 39.9159C135.714 39.9159 135.714 39.916 135.715 39.9162C135.715 39.9164 135.715 39.9167 135.716 39.917C135.716 39.9177 135.717 39.9184 135.717 39.9188C135.719 39.9201 135.717 39.9183 135.712 39.9117C135.703 39.9 135.67 39.8558 135.623 39.7611L126.664 44.2031L117.705 48.6451C120.19 53.6571 124.501 57.4807 130.428 59.2744L133.324 49.7031ZM126.664 44.2031L117.879 39.4254C117.721 39.717 117.582 39.8681 117.482 39.9562C117.389 40.038 117.21 40.1718 116.839 40.3072L120.262 49.7031L123.685 59.0991C129.129 57.1159 133.028 53.4313 135.449 48.9808L126.664 44.2031ZM120.262 49.7031L128.615 44.205L126.38 40.8105L118.027 46.3086L109.674 51.8067L111.909 55.2012L120.262 49.7031ZM118.027 46.3086H108.027V49.4023H118.027H128.027V46.3086H118.027ZM118.027 49.4023V39.4023H102.988V49.4023V59.4023H118.027V49.4023ZM102.988 49.4023H112.988V33.2461H102.988H92.9883V49.4023H102.988ZM102.988 33.2461V43.2461H109.305V33.2461V23.2461H102.988V33.2461ZM109.305 44.2461V54.2461H111.668V44.2461V34.2461H109.305V44.2461ZM111.668 44.2461H121.668V41.4961H111.668H101.668V44.2461H111.668ZM111.668 41.4961V31.4961H109.305V41.4961V51.4961H111.668V41.4961ZM109.305 41.4961H99.3047V44.2461H109.305H119.305V41.4961H109.305ZM109.863 11.375V21.375C110.453 21.375 110.752 21.5361 110.818 21.5794C110.85 21.6007 110.824 21.5906 110.773 21.525C110.718 21.4563 110.654 21.3496 110.608 21.2128L120.09 18.0352L129.572 14.8575C126.652 6.14694 118.277 1.375 109.863 1.375V11.375ZM120.09 18.0352V28.0352H125.633V18.0352V8.03516H120.09V18.0352ZM125.633 18.0352H135.633V10H125.633H115.633V18.0352H125.633ZM125.633 10V20H132.508V10V0L125.633 0V10ZM132.508 10H122.508V31.0547H132.508L142.508 31.0547V10H132.508ZM132.508 31.0547V21.0547H125.633V31.0547V41.0547H132.508V31.0547ZM125.633 31.0547H135.633V23.6211H125.633H115.633V31.0547H125.633ZM125.633 23.6211V13.6211H120.09V23.6211V33.6211H125.633V23.6211ZM120.09 23.6211L110.549 20.6241C110.585 20.5126 110.642 20.406 110.706 20.3225C110.767 20.2425 110.81 20.2164 110.798 20.2243C110.773 20.2403 110.493 20.4102 109.863 20.4102V30.4102V40.4102C118.329 40.4102 126.807 35.606 129.63 26.6181L120.09 23.6211ZM109.863 30.4102V20.4102C108.91 20.4102 108.653 20.113 108.778 20.2224C108.841 20.2777 108.947 20.3984 109.031 20.583C109.117 20.774 109.121 20.9061 109.121 20.9045L99.1211 20.8281L89.1214 20.7518C89.0266 33.1693 99.488 40.4102 109.863 40.4102V30.4102ZM99.1211 20.8281L109.121 20.7494C109.121 20.8364 109.099 21.0182 109.003 21.2259C108.912 21.4249 108.803 21.5404 108.754 21.5835C108.658 21.6678 108.937 21.375 109.863 21.375V11.375V1.375C99.5534 1.375 89.0245 8.60252 89.1214 20.9069L99.1211 20.8281ZM109.863 17.0039V7.00391C106.946 7.00391 103.319 7.78161 100.272 10.412C96.9992 13.2378 95.588 17.1795 95.6538 21.0005L105.652 20.8281L115.651 20.6557C115.674 21.9845 115.122 24.0142 113.342 25.5509C111.788 26.8922 110.288 27.0039 109.863 27.0039V17.0039ZM105.652 20.8281L95.6537 20.6615C95.5914 24.3989 96.9098 28.3184 100.091 31.202C103.113 33.9418 106.794 34.8242 109.863 34.8242V24.8242V14.8242C110.44 14.8242 111.994 14.9977 113.523 16.3839C115.211 17.9141 115.67 19.8355 115.651 20.9948L105.652 20.8281ZM109.863 24.8242V34.8242C113.004 34.8242 116.665 33.876 119.635 31.1035C122.683 28.2586 123.929 24.4958 123.987 20.9948L113.988 20.8281L103.99 20.6615C104.005 19.7386 104.391 17.9738 105.989 16.4824C107.509 15.0635 109.129 14.8242 109.863 14.8242V24.8242ZM113.988 20.8281L123.987 20.6557C123.925 17.0825 122.597 13.2998 119.456 10.5074C116.454 7.83951 112.845 7.00391 109.863 7.00391V17.0039V27.0039C109.288 27.0039 107.72 26.8343 106.168 25.4555C104.477 23.9521 104.008 22.0816 103.99 21.0005L113.988 20.8281ZM169.074 20.0977H179.074C179.074 14.5748 174.597 10.0977 169.074 10.0977V20.0977ZM169.074 25.4258V35.4258C174.597 35.4258 179.074 30.9486 179.074 25.4258H169.074ZM140.973 25.4258H130.973C130.973 30.9486 135.45 35.4258 140.973 35.4258V25.4258ZM140.973 11.418V1.41797C135.45 1.41797 130.973 5.89512 130.973 11.418H140.973ZM147.848 11.418H157.848C157.848 5.89512 153.37 1.41797 147.848 1.41797V11.418ZM147.848 20.0977H137.848C137.848 25.6205 142.325 30.0977 147.848 30.0977V20.0977ZM172.984 28.9492H182.984C182.984 23.4264 178.507 18.9492 172.984 18.9492V28.9492ZM172.984 34.2773V44.2773C178.507 44.2773 182.984 39.8002 182.984 34.2773H172.984ZM136.719 34.2773H126.719C126.719 39.8002 131.196 44.2773 136.719 44.2773V34.2773ZM136.719 28.9492V18.9492C131.196 18.9492 126.719 23.4264 126.719 28.9492H136.719ZM169.332 43.4727H179.332C179.332 37.9498 174.855 33.4727 169.332 33.4727V43.4727ZM169.332 48.9727V58.9727C174.855 58.9727 179.332 54.4955 179.332 48.9727H169.332ZM140.5 48.9727L130.5 48.9727C130.5 54.4955 134.977 58.9727 140.5 58.9727V48.9727ZM140.5 37.0273V27.0273C134.977 27.0273 130.5 31.5045 130.5 37.0273L140.5 37.0273ZM147.461 37.0273H157.461C157.461 31.5045 152.984 27.0273 147.461 27.0273V37.0273ZM147.461 43.4727L137.461 43.4727C137.461 48.9955 141.938 53.4727 147.461 53.4727V43.4727ZM169.074 20.0977H159.074V25.4258H169.074H179.074V20.0977H169.074ZM169.074 25.4258V15.4258H140.973V25.4258V35.4258H169.074V25.4258ZM140.973 25.4258H150.973V11.418H140.973H130.973V25.4258H140.973ZM140.973 11.418V21.418H147.848V11.418V1.41797H140.973V11.418ZM147.848 11.418H137.848V20.0977H147.848H157.848V11.418H147.848ZM147.848 20.0977V30.0977H169.074V20.0977V10.0977H147.848V20.0977ZM172.984 28.9492H162.984V34.2773H172.984H182.984V28.9492H172.984ZM172.984 34.2773V24.2773H136.719V34.2773V44.2773L172.984 44.2773V34.2773ZM136.719 34.2773L146.719 34.2773V28.9492L136.719 28.9492H126.719V34.2773H136.719ZM136.719 28.9492V38.9492L172.984 38.9492V28.9492V18.9492H136.719V28.9492ZM169.332 43.4727H159.332V48.9727H169.332H179.332V43.4727H169.332ZM169.332 48.9727V38.9727H140.5V48.9727V58.9727H169.332V48.9727ZM140.5 48.9727H150.5V37.0273H140.5L130.5 37.0273V48.9727L140.5 48.9727ZM140.5 37.0273V47.0273H147.461V37.0273V27.0273H140.5V37.0273ZM147.461 37.0273L137.461 37.0273V43.4727L147.461 43.4727H157.461V37.0273H147.461ZM147.461 43.4727V53.4727H169.332V43.4727V33.4727H147.461V43.4727ZM195.629 11.0312L195.559 21.031C195.606 21.0313 195.652 21.0313 195.699 21.031L195.629 11.0312ZM184.758 20.2695L194.757 20.3502C194.758 20.2966 194.758 20.2431 194.757 20.1895L184.758 20.2695ZM195.629 16.5742L195.804 6.57576C195.687 6.57371 195.57 6.57371 195.453 6.57576L195.629 16.5742ZM191.418 20.2695L201.416 20.4449C201.418 20.329 201.418 20.2131 201.416 20.0971L191.418 20.2695ZM217.844 10H227.844C227.844 4.47715 223.367 0 217.844 0V10ZM217.844 29.6367V39.6367C223.367 39.6367 227.844 35.1596 227.844 29.6367H217.844ZM210.926 29.6367H200.926C200.926 35.1596 205.403 39.6367 210.926 39.6367V29.6367ZM210.926 10V0C205.403 0 200.926 4.47715 200.926 10H210.926ZM217.844 31.0977H227.844C227.844 25.5748 223.367 21.0977 217.844 21.0977V31.0977ZM217.844 42.6562V52.6562C223.367 52.6562 227.844 48.1791 227.844 42.6562H217.844ZM197.52 42.6562V32.6562C191.997 32.6562 187.52 37.1334 187.52 42.6562H197.52ZM197.52 44.0312H187.52C187.52 49.5541 191.997 54.0312 197.52 54.0312V44.0312ZM218.703 44.0312H228.703C228.703 38.5084 224.226 34.0312 218.703 34.0312V44.0312ZM218.703 49.4023V59.4023C224.226 59.4023 228.703 54.9252 228.703 49.4023H218.703ZM190.773 49.4023H180.773C180.773 54.9252 185.251 59.4023 190.773 59.4023V49.4023ZM190.773 37.7148V27.7148C185.251 27.7148 180.773 32.192 180.773 37.7148H190.773ZM210.969 37.7148V47.7148C216.492 47.7148 220.969 43.2377 220.969 37.7148H210.969ZM210.969 36.3398H220.969C220.969 30.817 216.492 26.3398 210.969 26.3398V36.3398ZM190.688 36.3398H180.688C180.688 41.8627 185.165 46.3398 190.688 46.3398V36.3398ZM190.688 31.0977V21.0977C185.165 21.0977 180.688 25.5748 180.688 31.0977H190.688ZM195.629 11.0312L195.699 21.031C196.662 21.0243 196.972 21.3252 196.881 21.2484C196.832 21.2068 196.711 21.0839 196.604 20.8612C196.493 20.628 196.457 20.4069 196.457 20.2695L206.457 20.2695H216.457C216.457 7.91744 205.706 0.960535 195.559 1.03149L195.629 11.0312ZM206.457 20.2695L196.457 20.2695C196.457 20.108 196.499 19.8657 196.618 19.6174C196.732 19.3806 196.86 19.2545 196.906 19.2161C196.984 19.1499 196.641 19.4648 195.629 19.4648V29.4648V39.4648C205.617 39.4648 216.457 32.662 216.457 20.2695H206.457ZM195.629 29.4648V19.4648C194.574 19.4648 194.204 19.1369 194.277 19.1986C194.323 19.2366 194.46 19.3701 194.583 19.6263C194.712 19.8954 194.759 20.1632 194.757 20.3502L184.758 20.2695L174.758 20.1889C174.657 32.7355 185.711 39.4648 195.629 39.4648V29.4648ZM184.758 20.2695L194.757 20.1895C194.759 20.352 194.718 20.5985 194.597 20.8524C194.482 21.0944 194.351 21.2247 194.302 21.266C194.216 21.3383 194.553 21.024 195.559 21.031L195.629 11.0312L195.698 1.03149C185.621 0.961509 174.658 7.84291 174.758 20.3495L184.758 20.2695ZM195.629 16.5742L195.453 6.57576C192.875 6.62099 189.366 7.25397 186.308 9.72192C182.882 12.4874 181.351 16.4849 181.419 20.4419L191.418 20.2695L201.416 20.0971C201.427 20.7039 201.328 21.6214 200.873 22.6585C200.409 23.7198 199.697 24.6171 198.87 25.2849C197.316 26.539 195.934 26.5704 195.804 26.5727L195.629 16.5742ZM191.418 20.2695L181.42 20.0941C181.35 24.0535 182.894 28.013 186.241 30.7629C189.293 33.2697 192.85 33.9648 195.629 33.9648V23.9648V13.9648C195.959 13.9648 197.388 14.037 198.936 15.3084C200.78 16.8229 201.443 18.9348 201.416 20.4449L191.418 20.2695ZM195.629 23.9648V33.9648C198.423 33.9648 202.004 33.2609 205.061 30.6949C208.368 27.9187 209.797 24.0222 209.797 20.2695L199.797 20.2695H189.797C189.797 18.966 190.366 16.9173 192.202 15.3764C193.787 14.0457 195.284 13.9648 195.629 13.9648V23.9648ZM199.797 20.2695L209.797 20.2695C209.797 16.5168 208.379 12.5806 204.994 9.78899C201.931 7.26229 198.397 6.62125 195.804 6.57576L195.629 16.5742L195.453 26.5727C195.31 26.5702 193.86 26.5307 192.268 25.2178C191.433 24.5292 190.753 23.6346 190.315 22.6247C189.891 21.6451 189.797 20.799 189.797 20.2695H199.797ZM217.844 10H207.844V29.6367H217.844H227.844V10H217.844ZM217.844 29.6367V19.6367H210.926V29.6367V39.6367H217.844V29.6367ZM210.926 29.6367H220.926V10H210.926H200.926V29.6367H210.926ZM210.926 10V20H217.844V10V0L210.926 0V10ZM217.844 31.0977H207.844V42.6562H217.844H227.844V31.0977H217.844ZM217.844 42.6562V32.6562H197.52V42.6562V52.6562H217.844V42.6562ZM197.52 42.6562H187.52V44.0312H197.52H207.52V42.6562H197.52ZM197.52 44.0312V54.0312H218.703V44.0312V34.0312H197.52V44.0312ZM218.703 44.0312H208.703V49.4023H218.703H228.703V44.0312H218.703ZM218.703 49.4023V39.4023H190.773V49.4023V59.4023H218.703V49.4023ZM190.773 49.4023H200.773V37.7148H190.773H180.773V49.4023H190.773ZM190.773 37.7148V47.7148H210.969V37.7148V27.7148L190.773 27.7148V37.7148ZM210.969 37.7148H220.969V36.3398H210.969H200.969V37.7148H210.969ZM210.969 36.3398V26.3398L190.688 26.3398V36.3398V46.3398H210.969V36.3398ZM190.688 36.3398H200.688V31.0977H190.688H180.688V36.3398H190.688ZM190.688 31.0977V41.0977H217.844V31.0977V21.0977L190.688 21.0977V31.0977ZM257.031 10H267.031C267.031 4.47715 262.554 0 257.031 0V10ZM257.031 49.7461V59.7461C262.554 59.7461 267.031 55.2689 267.031 49.7461H257.031ZM250.457 49.7461H240.457C240.457 55.2689 244.934 59.7461 250.457 59.7461V49.7461ZM250.457 10V0C244.934 0 240.457 4.47715 240.457 10H250.457ZM248.566 10.4727H258.566C258.566 4.94981 254.089 0.472656 248.566 0.472656V10.4727ZM248.566 48.0273V58.0273C254.089 58.0273 258.566 53.5502 258.566 48.0273H248.566ZM242.078 48.0273H232.078C232.078 53.5502 236.555 58.0273 242.078 58.0273V48.0273ZM242.078 29.6367H252.078C252.078 24.1139 247.601 19.6367 242.078 19.6367V29.6367ZM240.145 29.6367V19.6367C234.909 19.6367 230.559 23.6755 230.172 28.897L240.145 29.6367ZM222.613 27.2734L232.613 27.3199C232.613 27.2888 232.613 27.2576 232.613 27.2265L222.613 27.2734ZM240.102 24.2227L230.154 25.2437C230.677 30.3444 234.974 34.2227 240.102 34.2227V24.2227ZM242.078 24.2227V34.2227C247.601 34.2227 252.078 29.7455 252.078 24.2227H242.078ZM242.078 10.4727V0.472656C236.555 0.472656 232.078 4.94981 232.078 10.4727L242.078 10.4727ZM228.93 27.2734L238.929 27.3464C238.93 27.2976 238.93 27.2487 238.929 27.1999L228.93 27.2734ZM257.031 10H247.031V49.7461H257.031H267.031V10H257.031ZM257.031 49.7461V39.7461H250.457V49.7461V59.7461H257.031V49.7461ZM250.457 49.7461H260.457V10H250.457H240.457V49.7461H250.457ZM250.457 10V20H257.031V10V0H250.457V10ZM248.566 10.4727H238.566V48.0273H248.566H258.566V10.4727H248.566ZM248.566 48.0273V38.0273H242.078V48.0273V58.0273H248.566V48.0273ZM242.078 48.0273H252.078V29.6367H242.078H232.078V48.0273H242.078ZM242.078 29.6367V19.6367H240.145V29.6367V39.6367H242.078V29.6367ZM240.145 29.6367L230.172 28.897C230.073 30.2367 229.869 31.2436 229.651 31.9531C229.431 32.6701 229.233 32.9727 229.205 33.0117C229.191 33.0321 229.381 32.7625 229.867 32.4944C230.382 32.2101 230.925 32.0977 231.336 32.0977V42.0977V52.0977C237.425 52.0977 242.366 49.024 245.514 44.5879C248.439 40.4667 249.746 35.3792 250.117 30.3764L240.145 29.6367ZM231.336 42.0977V32.0977C231.83 32.0977 232.457 32.25 233.012 32.596C233.518 32.9115 233.643 33.1857 233.551 33.0316C233.287 32.5883 232.597 30.8849 232.613 27.3199L222.613 27.2734L212.613 27.2269C212.587 32.9002 213.594 38.609 216.37 43.2682C219.36 48.287 224.542 52.0977 231.336 52.0977V42.0977ZM222.613 27.2734L232.613 27.2265C232.597 23.7189 233.282 22.0402 233.542 21.6064C233.632 21.4557 233.506 21.7276 233.004 22.0402C232.454 22.3831 231.83 22.5352 231.336 22.5352V12.5352V2.53516C224.549 2.53516 219.37 6.33843 216.379 11.3379C213.599 15.9852 212.587 21.6756 212.613 27.3204L222.613 27.2734ZM231.336 12.5352V22.5352C230.94 22.5352 230.418 22.431 229.913 22.1632C229.434 21.9087 229.226 21.6431 229.216 21.6299C229.214 21.6279 229.26 21.6882 229.334 21.834C229.408 21.98 229.505 22.1994 229.608 22.5058C229.818 23.128 230.029 24.0281 230.154 25.2437L240.102 24.2227L250.049 23.2016C249.56 18.4359 248.168 13.5677 245.219 9.63331C242.05 5.40601 237.213 2.53516 231.336 2.53516V12.5352ZM240.102 24.2227V34.2227H242.078V24.2227V14.2227H240.102V24.2227ZM242.078 24.2227H252.078V10.4727H242.078L232.078 10.4727V24.2227H242.078ZM242.078 10.4727V20.4727H248.566V10.4727V0.472656L242.078 0.472656V10.4727ZM231.336 19.0664V9.06641C228.176 9.06641 225.257 10.3424 223.11 12.5409C221.252 14.4435 220.383 16.6056 219.939 18.0623C219.07 20.9133 218.907 24.2421 218.93 27.347L228.93 27.2734L238.929 27.1999C238.92 25.9553 238.959 25.0595 239.016 24.4421C239.076 23.7845 239.137 23.6728 239.07 23.8948C239.028 24.0301 238.667 25.2362 237.42 26.5131C236.745 27.2048 235.834 27.8881 234.681 28.3795C233.523 28.8728 232.369 29.0664 231.336 29.0664V19.0664ZM228.93 27.2734L218.93 27.2004C218.907 30.3168 219.068 33.656 219.942 36.5116C220.391 37.9756 221.269 40.1469 223.148 42.0505C225.317 44.2482 228.231 45.4805 231.336 45.4805V35.4805V25.4805C232.344 25.4805 233.483 25.6659 234.633 26.1489C235.782 26.6311 236.697 27.3067 237.382 28.0013C238.65 29.286 239.021 30.5093 239.066 30.6573C239.137 30.8893 239.077 30.7848 239.016 30.1247C238.959 29.5055 238.92 28.6041 238.929 27.3464L228.93 27.2734ZM231.336 35.4805V45.4805C234.357 45.4805 237.217 44.3219 239.395 42.2166C241.31 40.3657 242.252 38.2247 242.748 36.7235C243.708 33.8183 243.914 30.4309 243.914 27.2734H233.914H223.914C223.914 28.5116 223.866 29.3909 223.803 29.9854C223.735 30.6193 223.675 30.6994 223.759 30.4455C223.82 30.2602 224.222 29.0671 225.496 27.8353C226.179 27.1757 227.072 26.5468 228.174 26.1005C229.277 25.654 230.366 25.4805 231.336 25.4805V35.4805ZM233.914 27.2734H243.914C243.914 24.1273 243.707 20.751 242.752 17.851C242.26 16.3577 241.328 14.2248 239.434 12.3739C237.276 10.2661 234.41 9.06641 231.336 9.06641V19.0664V29.0664C230.342 29.0664 229.238 28.8853 228.127 28.429C227.02 27.974 226.131 27.3375 225.458 26.68C224.204 25.4548 223.812 24.278 223.755 24.106C223.675 23.8624 223.736 23.9499 223.803 24.5816C223.866 25.1746 223.914 26.0484 223.914 27.2734H233.914ZM306.445 14.7266H316.445C316.445 9.20372 311.968 4.72656 306.445 4.72656V14.7266ZM306.445 20.2695V30.2695C311.968 30.2695 316.445 25.7924 316.445 20.2695H306.445ZM301.762 20.2695V10.2695C296.239 10.2695 291.762 14.7467 291.762 20.2695H301.762ZM301.762 23.3203H291.762C291.762 28.8432 296.239 33.3203 301.762 33.3203V23.3203ZM306.445 23.3203H316.445C316.445 17.7975 311.968 13.3203 306.445 13.3203V23.3203ZM306.445 28.9922V38.9922C311.968 38.9922 316.445 34.515 316.445 28.9922H306.445ZM301.762 28.9922V18.9922C296.239 18.9922 291.762 23.4693 291.762 28.9922H301.762ZM301.762 33.332V43.332C307.285 43.332 311.762 38.8549 311.762 33.332H301.762ZM294.844 33.332H284.844C284.844 38.8549 289.321 43.332 294.844 43.332V33.332ZM294.844 10V0C289.321 0 284.844 4.47715 284.844 10H294.844ZM301.762 10H311.762C311.762 4.47715 307.285 0 301.762 0V10ZM301.762 14.7266H291.762C291.762 20.2494 296.239 24.7266 301.762 24.7266V14.7266ZM301.762 34.75H311.762C311.762 29.2272 307.285 24.75 301.762 24.75V34.75ZM301.762 49.7461V59.7461C307.285 59.7461 311.762 55.2689 311.762 49.7461H301.762ZM294.844 49.7461H284.844C284.844 55.2689 289.321 59.7461 294.844 59.7461V49.7461ZM294.844 40.293H304.844C304.844 34.7701 300.367 30.293 294.844 30.293V40.293ZM274.562 40.293H264.562C264.562 45.8158 269.04 50.293 274.562 50.293V40.293ZM274.562 34.75V24.75C269.04 24.75 264.562 29.2272 264.562 34.75H274.562ZM285.52 21.9453L295.518 22.0991C295.52 21.995 295.52 21.8908 295.518 21.7866L285.52 21.9453ZM306.445 14.7266H296.445V20.2695H306.445H316.445V14.7266H306.445ZM306.445 20.2695V10.2695H301.762V20.2695V30.2695H306.445V20.2695ZM301.762 20.2695H291.762V23.3203H301.762H311.762V20.2695H301.762ZM301.762 23.3203V33.3203H306.445V23.3203V13.3203H301.762V23.3203ZM306.445 23.3203H296.445V28.9922H306.445H316.445V23.3203H306.445ZM306.445 28.9922V18.9922H301.762V28.9922V38.9922H306.445V28.9922ZM301.762 28.9922H291.762V33.332H301.762H311.762V28.9922H301.762ZM301.762 33.332V23.332H294.844V33.332V43.332H301.762V33.332ZM294.844 33.332H304.844V10L294.844 10H284.844V33.332H294.844ZM294.844 10V20H301.762V10V0H294.844V10ZM301.762 10L291.762 10V14.7266H301.762H311.762V10H301.762ZM301.762 14.7266V24.7266H306.445V14.7266V4.72656H301.762V14.7266ZM301.762 34.75H291.762V49.7461H301.762H311.762V34.75H301.762ZM301.762 49.7461V39.7461H294.844V49.7461V59.7461H301.762V49.7461ZM294.844 49.7461H304.844V40.293H294.844H284.844V49.7461H294.844ZM294.844 40.293V30.293H274.562V40.293V50.293H294.844V40.293ZM274.562 40.293H284.562V34.75H274.562H264.562V40.293H274.562ZM274.562 34.75V44.75H301.762V34.75V24.75H274.562V34.75ZM281.094 12.0625V22.0625C281.972 22.0625 282.353 22.3531 282.391 22.3865C282.407 22.4009 282.354 22.3577 282.298 22.238C282.238 22.108 282.223 21.9911 282.223 21.9453H292.223H302.223C302.223 9.58136 291.6 2.0625 281.094 2.0625V12.0625ZM292.223 21.9453H282.223C282.223 21.9645 282.224 21.882 282.28 21.7612C282.331 21.6492 282.385 21.6006 282.38 21.6054C282.365 21.6188 281.997 21.9141 281.094 21.9141V31.9141V41.9141C291.631 41.9141 302.223 34.4116 302.223 21.9453H292.223ZM281.094 31.9141V21.9141C280.153 21.9141 279.774 21.6087 279.76 21.5967C279.755 21.5923 279.811 21.6424 279.864 21.757C279.921 21.8803 279.922 21.9645 279.922 21.9453H269.922H259.922C259.922 34.435 270.541 41.9141 281.094 41.9141V31.9141ZM269.922 21.9453H279.922C279.922 21.9911 279.907 22.1097 279.845 22.2422C279.788 22.3645 279.733 22.4092 279.749 22.3952C279.785 22.3633 280.178 22.0625 281.094 22.0625V12.0625V2.0625C270.571 2.0625 259.922 9.558 259.922 21.9453H269.922ZM281.094 17.9492V7.94922C278.254 7.94922 274.643 8.6747 271.555 11.2414C268.199 14.0305 266.668 17.9965 266.668 21.9453H276.668H286.668C286.668 23.187 286.104 25.155 284.338 26.6229C282.839 27.8683 281.441 27.9492 281.094 27.9492V17.9492ZM276.668 21.9453H266.668C266.668 25.8267 268.117 29.7976 271.434 32.6441C274.523 35.2949 278.18 36.0703 281.094 36.0703V26.0703V16.0703C281.515 16.0703 282.959 16.1797 284.458 17.4662C286.186 18.9485 286.668 20.8568 286.668 21.9453H276.668ZM281.094 26.0703V36.0703C284.033 36.0703 287.66 35.2712 290.721 32.6441C293.985 29.8432 295.459 25.9443 295.518 22.0991L285.52 21.9453L275.521 21.7915C275.537 20.7393 276.023 18.9029 277.697 17.4662C279.168 16.2034 280.604 16.0703 281.094 16.0703V26.0703ZM285.52 21.9453L295.518 21.7866C295.456 17.8769 293.902 13.9852 290.601 11.2414C287.539 8.69716 283.957 7.94922 281.094 7.94922V17.9492V27.9492C280.679 27.9492 279.289 27.8458 277.817 26.6229C276.106 25.2004 275.54 23.3067 275.521 22.104L285.52 21.9453ZM339.789 10.0859H349.789C349.789 4.56309 345.312 0.0859375 339.789 0.0859375V10.0859ZM339.789 21.6875L329.789 21.6875C329.789 27.2103 334.266 31.6875 339.789 31.6875V21.6875ZM344.73 21.6875H354.73C354.73 16.1647 350.253 11.6875 344.73 11.6875V21.6875ZM344.73 27.2734V37.2734C350.253 37.2734 354.73 32.7963 354.73 27.2734H344.73ZM339.789 27.2734V17.2734C334.266 17.2734 329.789 21.7506 329.789 27.2734L339.789 27.2734ZM339.789 39.6914V49.6914C345.312 49.6914 349.789 45.2143 349.789 39.6914H339.789ZM332.871 39.6914H322.871C322.871 45.2143 327.348 49.6914 332.871 49.6914V39.6914ZM332.871 10.0859V0.0859375C327.348 0.0859375 322.871 4.56309 322.871 10.0859H332.871ZM331.453 13.8242L341.453 13.8242C341.453 8.30137 336.976 3.82422 331.453 3.82422V13.8242ZM331.453 19.1523V29.1523C336.976 29.1523 341.453 24.6752 341.453 19.1523L331.453 19.1523ZM307.949 19.1523H297.949C297.949 24.6752 302.426 29.1523 307.949 29.1523V19.1523ZM307.949 13.8242V3.82422C302.426 3.82422 297.949 8.30137 297.949 13.8242H307.949ZM316.242 13.8242V23.8242C321.765 23.8242 326.242 19.3471 326.242 13.8242H316.242ZM316.242 10V0C310.719 0 306.242 4.47715 306.242 10H316.242ZM323.16 10H333.16C333.16 4.47715 328.683 0 323.16 0V10ZM323.16 13.8242H313.16C313.16 19.3471 317.637 23.8242 323.16 23.8242V13.8242ZM319.68 35.6523L319.754 25.6526C319.705 25.6523 319.655 25.6523 319.606 25.6526L319.68 35.6523ZM319.68 25.2539L319.892 15.2562C319.749 15.2531 319.606 15.2532 319.462 15.2563L319.68 25.2539ZM340.949 43.6875H350.949C350.949 38.1647 346.472 33.6875 340.949 33.6875V43.6875ZM340.949 49.1875V59.1875C346.472 59.1875 350.949 54.7103 350.949 49.1875H340.949ZM313.449 49.1875H303.449C303.449 54.7103 307.926 59.1875 313.449 59.1875V49.1875ZM313.449 37.457V27.457C307.926 27.457 303.449 31.9342 303.449 37.457H313.449ZM320.367 37.457H330.367C330.367 31.9342 325.89 27.457 320.367 27.457V37.457ZM320.367 43.6875H310.367C310.367 49.2103 314.844 53.6875 320.367 53.6875V43.6875ZM339.789 10.0859H329.789V21.6875L339.789 21.6875H349.789V10.0859H339.789ZM339.789 21.6875V31.6875H344.73V21.6875V11.6875H339.789V21.6875ZM344.73 21.6875H334.73V27.2734H344.73H354.73V21.6875H344.73ZM344.73 27.2734V17.2734H339.789V27.2734V37.2734H344.73V27.2734ZM339.789 27.2734L329.789 27.2734V39.6914H339.789H349.789V27.2734H339.789ZM339.789 39.6914V29.6914H332.871V39.6914V49.6914H339.789V39.6914ZM332.871 39.6914H342.871V10.0859H332.871H322.871V39.6914H332.871ZM332.871 10.0859V20.0859H339.789V10.0859V0.0859375H332.871V10.0859ZM331.453 13.8242H321.453V19.1523H331.453L341.453 19.1523V13.8242L331.453 13.8242ZM331.453 19.1523V9.15234H307.949V19.1523V29.1523H331.453V19.1523ZM307.949 19.1523H317.949V13.8242H307.949H297.949V19.1523H307.949ZM307.949 13.8242V23.8242H316.242V13.8242V3.82422L307.949 3.82422V13.8242ZM316.242 13.8242H326.242V10H316.242H306.242V13.8242H316.242ZM316.242 10V20H323.16V10V0H316.242V10ZM323.16 10H313.16V13.8242H323.16L333.16 13.8242V10H323.16ZM323.16 13.8242V23.8242H331.453V13.8242V3.82422H323.16V13.8242ZM319.68 20.0547V30.0547C320.804 30.0547 320.97 30.3697 320.624 30.0968C320.435 29.9475 320.154 29.6587 319.926 29.2037C319.693 28.7368 319.605 28.2729 319.605 27.918H329.605L339.605 27.918C339.605 22.357 337.028 17.5637 333.012 14.3954C329.153 11.351 324.356 10.0547 319.68 10.0547V20.0547ZM329.605 27.918H319.605C319.605 27.5621 319.693 27.0793 319.943 26.5852C320.186 26.1028 320.49 25.7942 320.699 25.6324C321.077 25.3394 320.921 25.6613 319.754 25.6526L319.68 35.6523L319.606 45.6521C324.239 45.6864 329.046 44.4614 332.937 41.4506C337.008 38.3007 339.605 33.4973 339.605 27.918L329.605 27.918ZM319.68 35.6523L319.606 25.6526C318.401 25.6615 318.208 25.3307 318.567 25.6054C318.767 25.7591 319.072 26.0633 319.32 26.55C319.575 27.0498 319.668 27.5449 319.668 27.918H309.668H299.668C299.668 33.5383 302.312 38.3447 306.398 41.4776C310.301 44.4701 315.115 45.6862 319.753 45.6521L319.68 35.6523ZM309.668 27.918H319.668C319.668 28.29 319.576 28.7662 319.337 29.2388C319.105 29.6982 318.823 29.9827 318.642 30.1242C318.315 30.3793 318.516 30.0547 319.68 30.0547V20.0547V10.0547C310.745 10.0547 299.668 15.6025 299.668 27.918H309.668ZM319.68 25.2539L319.462 15.2563C317.376 15.3016 314.15 15.7513 311.234 17.9796C307.853 20.5634 306.414 24.3486 306.414 27.918H316.414H326.414C326.414 28.6625 326.278 29.7332 325.737 30.9136C325.18 32.1283 324.341 33.1346 323.377 33.871C321.6 35.2292 320.007 35.2491 319.897 35.2515L319.68 25.2539ZM316.414 27.918H306.414C306.414 31.492 307.865 35.3526 311.379 37.9382C314.371 40.1396 317.642 40.4961 319.68 40.4961V30.4961V20.4961C319.74 20.4961 321.379 20.4658 323.232 21.8294C324.247 22.5757 325.13 23.6099 325.714 24.8656C326.279 26.0805 326.414 27.1768 326.414 27.918H316.414ZM319.68 30.4961V40.4961C321.711 40.4961 324.919 40.1493 327.884 38.0657C331.41 35.5876 333.074 31.7381 333.074 27.918L323.074 27.918H313.074C313.074 27.0865 313.238 25.922 313.854 24.6692C314.484 23.3883 315.403 22.3918 316.385 21.7019C318.158 20.4562 319.668 20.4961 319.68 20.4961V30.4961ZM323.074 27.918L333.074 27.918C333.074 24.1082 331.428 20.3277 328.029 17.8474C325.134 15.7347 321.968 15.3003 319.892 15.2562L319.68 25.2539L319.467 35.2516C319.411 35.2505 317.942 35.2458 316.24 34.0032C315.305 33.321 314.431 32.3492 313.829 31.1087C313.239 29.8906 313.074 28.7524 313.074 27.918H323.074ZM340.949 43.6875H330.949V49.1875H340.949H350.949V43.6875H340.949ZM340.949 49.1875V39.1875H313.449V49.1875V59.1875H340.949V49.1875ZM313.449 49.1875H323.449V37.457H313.449H303.449V49.1875H313.449ZM313.449 37.457V47.457H320.367V37.457V27.457H313.449V37.457ZM320.367 37.457H310.367V43.6875H320.367H330.367V37.457H320.367ZM320.367 43.6875V53.6875H340.949V43.6875V33.6875H320.367V43.6875Z" fill="white" mask="url(#path-1-outside-1_6526_5743)"/>
</g>
<defs>
<filter id="filter0_d_6526_5743" x="0" y="0" width="358.73" height="67.875" filterUnits="userSpaceOnUse" color-interpolation-filters="sRGB">
<feFlood flood-opacity="0" result="BackgroundImageFix"/>
<feColorMatrix in="SourceAlpha" type="matrix" values="0 0 0 0 0 0 0 0 0 0 0 0 0 0 0 0 0 0 127 0" result="hardAlpha"/>
<feOffset dy="4"/>
<feGaussianBlur stdDeviation="2"/>
<feComposite in2="hardAlpha" operator="out"/>
<feColorMatrix type="matrix" values="0 0 0 0 0 0 0 0 0 0 0 0 0 0 0 0 0 0 0.07 0"/>
<feBlend mode="normal" in2="BackgroundImageFix" result="effect1_dropShadow_6526_5743"/>
<feBlend mode="normal" in="SourceGraphic" in2="effect1_dropShadow_6526_5743" result="shape"/>
</filter>
</defs>
</svg>
