<svg width="302" height="68" viewBox="0 0 302 68" fill="none" xmlns="http://www.w3.org/2000/svg">
<g filter="url(#filter0_d_6526_5746)">
<mask id="path-1-outside-1_6526_5746" maskUnits="userSpaceOnUse" x="3.66797" y="-0.507813" width="294" height="61" fill="black">
<rect fill="white" x="3.66797" y="-0.507813" width="294" height="61"/>
<path d="M24.8711 11.0312C31.0156 10.9883 35.6992 14.8984 35.6992 20.2695C35.6992 25.5977 31.0156 29.4648 24.8711 29.4648C18.6836 29.4648 13.957 25.5977 14 20.2695C13.957 14.8984 18.6836 10.9883 24.8711 11.0312ZM24.8711 16.5742C22.4219 16.6172 20.6172 17.7773 20.6602 20.2695C20.6172 22.7188 22.4219 23.9648 24.8711 23.9648C27.3203 23.9648 29.0391 22.7188 29.0391 20.2695C29.0391 17.7773 27.3203 16.6172 24.8711 16.5742ZM47.0859 10V29.6367H40.168V10L47.0859 10ZM47.0859 31.0977V42.6562H26.7617V44.0312H47.9453V49.4023H20.0156V37.7148H40.2109V36.3398H19.9297V31.0977H47.0859ZM85.4141 10V33.5898H78.5391V24.8242L73.5547 24.8242V19.2812L78.5391 19.2812V10H85.4141ZM71.5781 34.2344C80.2148 34.2344 85.5 37.1133 85.5 42.0547C85.5 46.9531 80.2148 49.875 71.5781 49.875C63.0273 49.875 57.7422 46.9531 57.7422 42.0547C57.7422 37.1133 63.0273 34.2344 71.5781 34.2344ZM71.5781 39.4336C66.8516 39.4336 64.5742 40.1641 64.6172 42.0547C64.5742 43.9023 66.8516 44.6758 71.5781 44.6758C76.3477 44.6758 78.668 43.9023 78.668 42.0547C78.668 40.1641 76.3477 39.4336 71.5781 39.4336ZM74.6289 12.1055V17.6055H67.4531C67.8613 21.5801 70.1816 25.5762 76.0469 27.4883L72.7383 32.8594C68.4844 31.5488 65.6699 28.9707 63.9297 25.7695C62.2109 29.4219 59.2246 32.3652 54.6484 33.8477L51.082 28.3906C57.4199 26.3711 59.8047 21.8594 60.2344 17.6055H53.0156V12.1055H74.6289ZM125.934 39.9062V45.4492H89.625V39.9062H104.32V33.332H93.1914V12.3633H100.109V17.9062H115.277V12.3633H122.152V33.332H111.152V39.9062H125.934ZM100.109 27.875H115.277V23.3203H100.109V27.875ZM159.363 10V24.1797H164.734V29.7656H159.363V49.875H152.445V10H159.363ZM147.805 13.5664V19.1094H135.988V34.75C140.951 34.6855 145.441 34.4062 150.211 33.6328L150.941 39.3047C144.84 40.3359 139.297 40.4648 132.594 40.4219H129.156V13.5664H147.805ZM209.164 10V49.875H202.289V35.2656H197.219C198.057 35.8672 199.002 36.4043 200.055 36.8555L196.359 42.0977C192.02 40.3359 189.141 36.8984 187.465 32.8164C185.789 37.1133 182.889 40.7227 178.441 42.5273L174.875 37.2852C181.664 34.3203 183.941 27.5742 183.984 22.2031V21.6875H176.336V16.2305H184.027V11.0312H190.902V16.2305H198.379V21.5586H202.289V10H209.164ZM190.859 22.2031C190.859 26.2852 192.32 31.2266 196.316 34.5781V29.7656H202.289V27.1445H196.316V21.6875H190.859V22.2031ZM229.402 19.9687C229.402 26.1992 231.723 33.0742 238.898 35.9961L235.246 41.3672C230.691 39.498 227.748 36.0176 226.051 31.7422C224.311 36.4902 221.324 40.3574 216.684 42.3984L212.816 36.9844C219.949 33.8906 222.355 26.6289 222.355 19.9687V19.2812H214.535V13.6953H237.008V19.2812H229.402V19.9687ZM246.848 10V49.7461H239.887V10H246.848ZM283.672 20.0977V25.4258H255.57V11.418H262.445V20.0977H283.672ZM287.582 28.9492V34.2773H251.316V28.9492H287.582ZM283.93 43.4727V48.9727H255.098V37.0273H262.059V43.4727H283.93Z"/>
</mask>
<path d="M24.8711 11.0312C31.0156 10.9883 35.6992 14.8984 35.6992 20.2695C35.6992 25.5977 31.0156 29.4648 24.8711 29.4648C18.6836 29.4648 13.957 25.5977 14 20.2695C13.957 14.8984 18.6836 10.9883 24.8711 11.0312ZM24.8711 16.5742C22.4219 16.6172 20.6172 17.7773 20.6602 20.2695C20.6172 22.7188 22.4219 23.9648 24.8711 23.9648C27.3203 23.9648 29.0391 22.7188 29.0391 20.2695C29.0391 17.7773 27.3203 16.6172 24.8711 16.5742ZM47.0859 10V29.6367H40.168V10L47.0859 10ZM47.0859 31.0977V42.6562H26.7617V44.0312H47.9453V49.4023H20.0156V37.7148H40.2109V36.3398H19.9297V31.0977H47.0859ZM85.4141 10V33.5898H78.5391V24.8242L73.5547 24.8242V19.2812L78.5391 19.2812V10H85.4141ZM71.5781 34.2344C80.2148 34.2344 85.5 37.1133 85.5 42.0547C85.5 46.9531 80.2148 49.875 71.5781 49.875C63.0273 49.875 57.7422 46.9531 57.7422 42.0547C57.7422 37.1133 63.0273 34.2344 71.5781 34.2344ZM71.5781 39.4336C66.8516 39.4336 64.5742 40.1641 64.6172 42.0547C64.5742 43.9023 66.8516 44.6758 71.5781 44.6758C76.3477 44.6758 78.668 43.9023 78.668 42.0547C78.668 40.1641 76.3477 39.4336 71.5781 39.4336ZM74.6289 12.1055V17.6055H67.4531C67.8613 21.5801 70.1816 25.5762 76.0469 27.4883L72.7383 32.8594C68.4844 31.5488 65.6699 28.9707 63.9297 25.7695C62.2109 29.4219 59.2246 32.3652 54.6484 33.8477L51.082 28.3906C57.4199 26.3711 59.8047 21.8594 60.2344 17.6055H53.0156V12.1055H74.6289ZM125.934 39.9062V45.4492H89.625V39.9062H104.32V33.332H93.1914V12.3633H100.109V17.9062H115.277V12.3633H122.152V33.332H111.152V39.9062H125.934ZM100.109 27.875H115.277V23.3203H100.109V27.875ZM159.363 10V24.1797H164.734V29.7656H159.363V49.875H152.445V10H159.363ZM147.805 13.5664V19.1094H135.988V34.75C140.951 34.6855 145.441 34.4062 150.211 33.6328L150.941 39.3047C144.84 40.3359 139.297 40.4648 132.594 40.4219H129.156V13.5664H147.805ZM209.164 10V49.875H202.289V35.2656H197.219C198.057 35.8672 199.002 36.4043 200.055 36.8555L196.359 42.0977C192.02 40.3359 189.141 36.8984 187.465 32.8164C185.789 37.1133 182.889 40.7227 178.441 42.5273L174.875 37.2852C181.664 34.3203 183.941 27.5742 183.984 22.2031V21.6875H176.336V16.2305H184.027V11.0312H190.902V16.2305H198.379V21.5586H202.289V10H209.164ZM190.859 22.2031C190.859 26.2852 192.32 31.2266 196.316 34.5781V29.7656H202.289V27.1445H196.316V21.6875H190.859V22.2031ZM229.402 19.9687C229.402 26.1992 231.723 33.0742 238.898 35.9961L235.246 41.3672C230.691 39.498 227.748 36.0176 226.051 31.7422C224.311 36.4902 221.324 40.3574 216.684 42.3984L212.816 36.9844C219.949 33.8906 222.355 26.6289 222.355 19.9687V19.2812H214.535V13.6953H237.008V19.2812H229.402V19.9687ZM246.848 10V49.7461H239.887V10H246.848ZM283.672 20.0977V25.4258H255.57V11.418H262.445V20.0977H283.672ZM287.582 28.9492V34.2773H251.316V28.9492H287.582ZM283.93 43.4727V48.9727H255.098V37.0273H262.059V43.4727H283.93Z" fill="#11DCA9"/>
<path d="M24.8711 11.0312L24.8017 21.031C24.8481 21.0313 24.8946 21.0313 24.941 21.031L24.8711 11.0312ZM14 20.2695L23.9997 20.3502C24.0001 20.2966 24.0001 20.2431 23.9997 20.1895L14 20.2695ZM24.8711 16.5742L25.0465 6.57576C24.9296 6.57371 24.8126 6.57371 24.6957 6.57576L24.8711 16.5742ZM20.6602 20.2695L30.6586 20.4449C30.6607 20.329 30.6607 20.2131 30.6587 20.0971L20.6602 20.2695ZM47.0859 10H57.0859C57.0859 4.47715 52.6088 0 47.0859 0V10ZM47.0859 29.6367V39.6367C52.6088 39.6367 57.0859 35.1596 57.0859 29.6367H47.0859ZM40.168 29.6367H30.168C30.168 35.1596 34.6451 39.6367 40.168 39.6367V29.6367ZM40.168 10V0C34.6451 0 30.168 4.47715 30.168 10H40.168ZM47.0859 31.0977H57.0859C57.0859 25.5748 52.6088 21.0977 47.0859 21.0977V31.0977ZM47.0859 42.6562V52.6562C52.6088 52.6562 57.0859 48.1791 57.0859 42.6562H47.0859ZM26.7617 42.6562V32.6562C21.2389 32.6562 16.7617 37.1334 16.7617 42.6562H26.7617ZM26.7617 44.0312H16.7617C16.7617 49.5541 21.2389 54.0312 26.7617 54.0312V44.0312ZM47.9453 44.0312H57.9453C57.9453 38.5084 53.4682 34.0312 47.9453 34.0312V44.0312ZM47.9453 49.4023V59.4023C53.4682 59.4023 57.9453 54.9252 57.9453 49.4023H47.9453ZM20.0156 49.4023H10.0156C10.0156 54.9252 14.4928 59.4023 20.0156 59.4023V49.4023ZM20.0156 37.7148V27.7148C14.4928 27.7148 10.0156 32.192 10.0156 37.7148H20.0156ZM40.2109 37.7148V47.7148C45.7338 47.7148 50.2109 43.2377 50.2109 37.7148H40.2109ZM40.2109 36.3398H50.2109C50.2109 30.817 45.7338 26.3398 40.2109 26.3398V36.3398ZM19.9297 36.3398H9.92969C9.92969 41.8627 14.4068 46.3398 19.9297 46.3398V36.3398ZM19.9297 31.0977V21.0977C14.4068 21.0977 9.92969 25.5748 9.92969 31.0977H19.9297ZM24.8711 11.0312L24.941 21.031C25.9038 21.0243 26.2139 21.3252 26.1233 21.2484C26.0742 21.2068 25.9528 21.0839 25.8465 20.8612C25.7352 20.628 25.6992 20.4069 25.6992 20.2695H35.6992H45.6992C45.6992 7.91744 34.9484 0.960535 24.8012 1.03149L24.8711 11.0312ZM35.6992 20.2695H25.6992C25.6992 20.108 25.7412 19.8657 25.8607 19.6174C25.9746 19.3806 26.1025 19.2545 26.148 19.2161C26.2266 19.1499 25.8829 19.4648 24.8711 19.4648V29.4648V39.4648C34.8592 39.4648 45.6992 32.662 45.6992 20.2695H35.6992ZM24.8711 29.4648V19.4648C23.816 19.4648 23.4459 19.1369 23.5196 19.1986C23.565 19.2366 23.7024 19.3701 23.8253 19.6263C23.9545 19.8954 24.0012 20.1632 23.9997 20.3502L14 20.2695L4.00033 20.1889C3.89914 32.7355 14.9533 39.4648 24.8711 39.4648V29.4648ZM14 20.2695L23.9997 20.1895C24.001 20.352 23.9603 20.5985 23.8395 20.8524C23.7242 21.0944 23.5934 21.2247 23.5444 21.266C23.4585 21.3383 23.7952 21.024 24.8017 21.031L24.8711 11.0312L24.9405 1.03149C14.8631 0.961509 3.90027 7.84291 4.00032 20.3495L14 20.2695ZM24.8711 16.5742L24.6957 6.57576C22.1172 6.62099 18.6079 7.25397 15.5503 9.72192C12.124 12.4874 10.5934 16.4849 10.6616 20.4419L20.6602 20.2695L30.6587 20.0971C30.6691 20.7039 30.5698 21.6214 30.1156 22.6585C29.6508 23.7198 28.9392 24.6171 28.1118 25.2849C26.5581 26.539 25.1758 26.5704 25.0465 26.5727L24.8711 16.5742ZM20.6602 20.2695L10.6617 20.0941C10.5922 24.0535 12.136 28.013 15.4837 30.7629C18.5354 33.2697 22.0922 33.9648 24.8711 33.9648V23.9648V13.9648C25.2008 13.9648 26.6307 14.037 28.1784 15.3084C30.0222 16.8229 30.6851 18.9348 30.6586 20.4449L20.6602 20.2695ZM24.8711 23.9648V33.9648C27.6653 33.9648 31.2459 33.2609 34.3028 30.6949C37.6102 27.9187 39.0391 24.0222 39.0391 20.2695H29.0391H19.0391C19.0391 18.966 19.6086 16.9173 21.4442 15.3764C23.0295 14.0457 24.5261 13.9648 24.8711 13.9648V23.9648ZM29.0391 20.2695H39.0391C39.0391 16.5168 37.621 12.5806 34.2365 9.78899C31.1732 7.26229 27.6397 6.62125 25.0465 6.57576L24.8711 16.5742L24.6957 26.5727C24.5517 26.5702 23.1022 26.5307 21.5105 25.2178C20.6756 24.5292 19.9953 23.6346 19.5575 22.6247C19.1327 21.6451 19.0391 20.799 19.0391 20.2695H29.0391ZM47.0859 10L37.0859 10V29.6367H47.0859H57.0859V10H47.0859ZM47.0859 29.6367V19.6367H40.168V29.6367V39.6367H47.0859V29.6367ZM40.168 29.6367H50.168V10L40.168 10H30.168V29.6367H40.168ZM40.168 10V20H47.0859V10V0H40.168V10ZM47.0859 31.0977H37.0859V42.6562H47.0859H57.0859V31.0977H47.0859ZM47.0859 42.6562V32.6562H26.7617V42.6562V52.6562H47.0859V42.6562ZM26.7617 42.6562H16.7617V44.0312H26.7617H36.7617V42.6562H26.7617ZM26.7617 44.0312V54.0312H47.9453V44.0312V34.0312H26.7617V44.0312ZM47.9453 44.0312H37.9453V49.4023H47.9453H57.9453V44.0312H47.9453ZM47.9453 49.4023V39.4023H20.0156V49.4023V59.4023H47.9453V49.4023ZM20.0156 49.4023H30.0156V37.7148H20.0156H10.0156V49.4023H20.0156ZM20.0156 37.7148V47.7148H40.2109V37.7148V27.7148H20.0156V37.7148ZM40.2109 37.7148H50.2109V36.3398H40.2109H30.2109V37.7148H40.2109ZM40.2109 36.3398V26.3398H19.9297V36.3398V46.3398H40.2109V36.3398ZM19.9297 36.3398H29.9297V31.0977H19.9297H9.92969V36.3398H19.9297ZM19.9297 31.0977V41.0977H47.0859V31.0977V21.0977H19.9297V31.0977ZM85.4141 10H95.4141C95.4141 4.47715 90.9369 0 85.4141 0V10ZM85.4141 33.5898V43.5898C90.9369 43.5898 95.4141 39.1127 95.4141 33.5898H85.4141ZM78.5391 33.5898H68.5391C68.5391 39.1127 73.0162 43.5898 78.5391 43.5898V33.5898ZM78.5391 24.8242H88.5391C88.5391 19.3014 84.0619 14.8242 78.5391 14.8242V24.8242ZM73.5547 24.8242H63.5547C63.5547 30.3471 68.0318 34.8242 73.5547 34.8242V24.8242ZM73.5547 19.2812V9.28125C68.0318 9.28125 63.5547 13.7584 63.5547 19.2812H73.5547ZM78.5391 19.2812V29.2812C84.0619 29.2812 88.5391 24.8041 88.5391 19.2812H78.5391ZM78.5391 10V0C73.0162 0 68.5391 4.47715 68.5391 10H78.5391ZM64.6172 42.0547L74.6145 42.2872C74.618 42.134 74.6181 41.9807 74.6146 41.8275L64.6172 42.0547ZM74.6289 12.1055H84.6289C84.6289 6.58262 80.1518 2.10547 74.6289 2.10547V12.1055ZM74.6289 17.6055V27.6055C80.1518 27.6055 84.6289 23.1283 84.6289 17.6055L74.6289 17.6055ZM67.4531 17.6055V7.60547C64.6232 7.60547 61.9257 8.80453 60.0296 10.9053C58.1335 13.0062 57.2163 15.812 57.5055 18.6271L67.4531 17.6055ZM76.0469 27.4883L84.5611 32.7331C86.1688 30.1232 86.4907 26.9202 85.4345 24.0426C84.3783 21.1651 82.0607 18.9308 79.1464 17.9808L76.0469 27.4883ZM72.7383 32.8594L69.794 42.4161C74.1499 43.7581 78.862 41.9848 81.2525 38.1041L72.7383 32.8594ZM63.9297 25.7695L72.7154 20.9934C70.9153 17.6822 67.4065 15.6643 63.6393 15.7738C59.872 15.8832 56.4863 18.1014 54.8815 21.5116L63.9297 25.7695ZM54.6484 33.8477L46.2776 39.3184C48.746 43.0953 53.4378 44.7514 57.7302 43.3609L54.6484 33.8477ZM51.082 28.3906L48.046 18.8626C45.0695 19.8111 42.7072 22.0961 41.6603 25.0394C40.6134 27.9828 41.0021 31.2463 42.7112 33.8613L51.082 28.3906ZM60.2344 17.6055L70.1837 18.6105C70.4679 15.7977 69.5482 12.9962 67.6523 10.8991C65.7564 8.80207 63.0614 7.60547 60.2344 7.60547V17.6055ZM53.0156 17.6055H43.0156C43.0156 23.1283 47.4928 27.6055 53.0156 27.6055V17.6055ZM53.0156 12.1055V2.10547C47.4928 2.10547 43.0156 6.58262 43.0156 12.1055L53.0156 12.1055ZM85.4141 10H75.4141V33.5898H85.4141H95.4141V10H85.4141ZM85.4141 33.5898V23.5898H78.5391V33.5898V43.5898H85.4141V33.5898ZM78.5391 33.5898H88.5391V24.8242H78.5391L68.5391 24.8242V33.5898H78.5391ZM78.5391 24.8242V14.8242L73.5547 14.8242V24.8242V34.8242H78.5391V24.8242ZM73.5547 24.8242L83.5547 24.8242V19.2812L73.5547 19.2812H63.5547V24.8242H73.5547ZM73.5547 19.2812V29.2812H78.5391V19.2812V9.28125H73.5547V19.2812ZM78.5391 19.2812H88.5391V10H78.5391H68.5391V19.2812L78.5391 19.2812ZM78.5391 10V20H85.4141V10V0L78.5391 0V10ZM71.5781 34.2344V44.2344C73.2007 44.2344 74.4699 44.3712 75.4078 44.5616C76.3632 44.7555 76.8106 44.9714 76.9115 45.0275C76.9953 45.0742 76.594 44.8702 76.168 44.2182C75.6996 43.5014 75.5 42.6952 75.5 42.0547H85.5H95.5C95.5 35.2516 91.5465 30.2863 86.6442 27.5555C82.1747 25.0657 76.7813 24.2344 71.5781 24.2344V34.2344ZM85.5 42.0547H75.5C75.5 41.3866 75.7087 40.5745 76.1733 39.865C76.5949 39.2211 76.9876 39.0231 76.8966 39.074C76.7905 39.1333 76.3404 39.3506 75.3893 39.5455C74.4553 39.737 73.1919 39.875 71.5781 39.875V49.875V59.875C76.8043 59.875 82.196 59.0256 86.6591 56.5295C91.5276 53.8066 95.5 48.8554 95.5 42.0547H85.5ZM71.5781 49.875V39.875C69.9917 39.875 68.7488 39.7379 67.8303 39.5484C66.895 39.3553 66.4534 39.1406 66.3516 39.0834C66.2644 39.0344 66.6546 39.2329 67.0729 39.8732C67.5339 40.5786 67.7422 41.387 67.7422 42.0547H57.7422H47.7422C47.7422 48.8478 51.7059 53.7955 56.5557 56.5201C61.0076 59.0212 66.381 59.875 71.5781 59.875V49.875ZM57.7422 42.0547H67.7422C67.7422 42.6948 67.5429 43.4973 67.0782 44.2101C66.6554 44.8584 66.2567 45.063 66.3367 45.0182C66.4333 44.9642 66.8721 44.7509 67.8118 44.5588C68.7341 44.3702 69.9828 44.2344 71.5781 44.2344V34.2344V24.2344C66.4041 24.2344 61.0291 25.07 56.5706 27.5648C51.687 30.2974 47.7422 35.2592 47.7422 42.0547H57.7422ZM71.5781 39.4336V29.4336C69.0526 29.4336 65.8024 29.5812 62.8987 30.6347C61.3412 31.1997 59.1647 32.2766 57.3701 34.4095C55.3893 36.7637 54.5586 39.5902 54.6198 42.2819L64.6172 42.0547L74.6146 41.8275C74.6543 43.5739 74.0921 45.6 72.6739 47.2856C71.442 48.7498 70.1222 49.2896 69.7195 49.4356C69.2876 49.5923 69.1651 49.5641 69.6006 49.5155C69.9924 49.4717 70.6272 49.4336 71.5781 49.4336V39.4336ZM64.6172 42.0547L54.6199 41.8222C54.5562 44.5629 55.4235 47.3821 57.3893 49.7045C59.1667 51.8043 61.3141 52.8764 62.8601 53.4445C65.7619 54.5107 69.006 54.6758 71.5781 54.6758V44.6758V34.6758C70.6437 34.6758 70.0197 34.6362 69.6381 34.5921C69.2147 34.5432 69.3337 34.5158 69.758 34.6717C70.1493 34.8155 71.44 35.3478 72.6547 36.7829C74.058 38.4407 74.6567 40.4703 74.6145 42.2872L64.6172 42.0547ZM71.5781 44.6758V54.6758C74.1787 54.6758 77.4124 54.5082 80.3049 53.4648C81.8403 52.9109 83.9601 51.8732 85.7425 49.8449C87.7155 47.5998 88.668 44.8269 88.668 42.0547H78.668H68.668C68.668 40.2063 69.3304 38.2229 70.7192 36.6426C71.9176 35.2789 73.1592 34.781 73.5183 34.6514C73.9123 34.5093 74.003 34.5405 73.5641 34.5906C73.1649 34.6361 72.525 34.6758 71.5781 34.6758V44.6758ZM78.668 42.0547H88.668C88.668 39.3294 87.7522 36.547 85.7623 34.2689C83.9619 32.2078 81.8131 31.1656 80.2668 30.6148C77.3723 29.5839 74.1326 29.4336 71.5781 29.4336V39.4336V49.4336C72.5413 49.4336 73.192 49.4718 73.6012 49.5169C74.052 49.5667 73.9579 49.5985 73.5564 49.4555C73.1864 49.3237 71.9158 48.8186 70.6995 47.4262C69.2937 45.8167 68.668 43.8347 68.668 42.0547H78.668ZM74.6289 12.1055H64.6289V17.6055H74.6289L84.6289 17.6055V12.1055H74.6289ZM74.6289 17.6055V7.60547H67.4531V17.6055V27.6055H74.6289V17.6055ZM67.4531 17.6055L57.5055 18.6271C58.297 26.334 63.1333 33.7964 72.9474 36.9958L76.0469 27.4883L79.1464 17.9808C78.4745 17.7617 78.0797 17.541 77.8696 17.3996C77.6656 17.2624 77.587 17.1678 77.5643 17.1389C77.5419 17.1105 77.4421 16.9857 77.4008 16.5838L67.4531 17.6055ZM76.0469 27.4883L67.5326 22.2435L64.224 27.6146L72.7383 32.8594L81.2525 38.1041L84.5611 32.7331L76.0469 27.4883ZM72.7383 32.8594L75.6825 23.3026C74.754 23.0166 74.1734 22.6575 73.7862 22.3354C73.3924 22.0078 73.0353 21.5818 72.7154 20.9934L63.9297 25.7695L55.144 30.5457C58.0767 35.9405 62.9346 40.3029 69.794 42.4161L72.7383 32.8594ZM63.9297 25.7695L54.8815 21.5116C54.2782 22.7935 53.3788 23.7473 51.5667 24.3344L54.6484 33.8477L57.7302 43.3609C65.0704 40.9831 70.1436 36.0503 72.9779 30.0275L63.9297 25.7695ZM54.6484 33.8477L63.0193 28.3769L59.4529 22.9199L51.082 28.3906L42.7112 33.8613L46.2776 39.3184L54.6484 33.8477ZM51.082 28.3906L54.1181 37.9186C64.7747 34.523 69.4117 26.2539 70.1837 18.6105L60.2344 17.6055L50.285 16.6005C50.2185 17.2589 50.0352 17.6219 49.89 17.8144C49.8002 17.9335 49.4168 18.4258 48.046 18.8626L51.082 28.3906ZM60.2344 17.6055V7.60547H53.0156V17.6055V27.6055H60.2344V17.6055ZM53.0156 17.6055H63.0156V12.1055H53.0156L43.0156 12.1055V17.6055H53.0156ZM53.0156 12.1055V22.1055H74.6289V12.1055V2.10547L53.0156 2.10547V12.1055ZM125.934 39.9062H135.934C135.934 34.3834 131.456 29.9062 125.934 29.9062V39.9062ZM125.934 45.4492V55.4492C131.456 55.4492 135.934 50.9721 135.934 45.4492H125.934ZM89.625 45.4492H79.625C79.625 50.9721 84.1021 55.4492 89.625 55.4492V45.4492ZM89.625 39.9062V29.9062C84.1021 29.9062 79.625 34.3834 79.625 39.9062H89.625ZM104.32 39.9062V49.9062C109.843 49.9062 114.32 45.4291 114.32 39.9062H104.32ZM104.32 33.332H114.32C114.32 27.8092 109.843 23.332 104.32 23.332V33.332ZM93.1914 33.332H83.1914C83.1914 38.8549 87.6686 43.332 93.1914 43.332V33.332ZM93.1914 12.3633V2.36328C87.6686 2.36328 83.1914 6.84043 83.1914 12.3633H93.1914ZM100.109 12.3633L110.109 12.3633C110.109 6.84043 105.632 2.36328 100.109 2.36328V12.3633ZM100.109 17.9062H90.1094C90.1094 23.4291 94.5865 27.9062 100.109 27.9062V17.9062ZM115.277 17.9062V27.9062C120.8 27.9062 125.277 23.4291 125.277 17.9062H115.277ZM115.277 12.3633V2.36328C109.754 2.36328 105.277 6.84043 105.277 12.3633L115.277 12.3633ZM122.152 12.3633H132.152C132.152 6.84043 127.675 2.36328 122.152 2.36328V12.3633ZM122.152 33.332V43.332C127.675 43.332 132.152 38.8549 132.152 33.332H122.152ZM111.152 33.332V23.332C105.629 23.332 101.152 27.8092 101.152 33.332H111.152ZM111.152 39.9062H101.152C101.152 45.4291 105.629 49.9062 111.152 49.9062V39.9062ZM100.109 27.875H90.1094C90.1094 33.3978 94.5865 37.875 100.109 37.875V27.875ZM115.277 27.875V37.875C120.8 37.875 125.277 33.3978 125.277 27.875H115.277ZM115.277 23.3203H125.277C125.277 17.7975 120.8 13.3203 115.277 13.3203V23.3203ZM100.109 23.3203V13.3203C94.5865 13.3203 90.1094 17.7975 90.1094 23.3203H100.109ZM125.934 39.9062H115.934V45.4492H125.934H135.934V39.9062H125.934ZM125.934 45.4492V35.4492H89.625V45.4492V55.4492H125.934V45.4492ZM89.625 45.4492H99.625V39.9062H89.625H79.625V45.4492H89.625ZM89.625 39.9062V49.9062H104.32V39.9062V29.9062H89.625V39.9062ZM104.32 39.9062H114.32V33.332H104.32H94.3203V39.9062H104.32ZM104.32 33.332V23.332H93.1914V33.332V43.332H104.32V33.332ZM93.1914 33.332H103.191V12.3633H93.1914H83.1914V33.332H93.1914ZM93.1914 12.3633V22.3633H100.109V12.3633V2.36328H93.1914V12.3633ZM100.109 12.3633H90.1094V17.9062H100.109H110.109V12.3633L100.109 12.3633ZM100.109 17.9062V27.9062H115.277V17.9062V7.90625L100.109 7.90625V17.9062ZM115.277 17.9062H125.277V12.3633H115.277L105.277 12.3633V17.9062H115.277ZM115.277 12.3633V22.3633H122.152V12.3633V2.36328H115.277V12.3633ZM122.152 12.3633H112.152V33.332H122.152H132.152V12.3633H122.152ZM122.152 33.332V23.332H111.152V33.332V43.332H122.152V33.332ZM111.152 33.332H101.152V39.9062H111.152H121.152V33.332H111.152ZM111.152 39.9062V49.9062H125.934V39.9062V29.9062H111.152V39.9062ZM100.109 27.875V37.875H115.277V27.875V17.875H100.109V27.875ZM115.277 27.875H125.277V23.3203H115.277H105.277V27.875H115.277ZM115.277 23.3203V13.3203H100.109V23.3203V33.3203H115.277V23.3203ZM100.109 23.3203H90.1094V27.875H100.109H110.109V23.3203H100.109ZM159.363 10H169.363C169.363 4.47715 164.886 0 159.363 0V10ZM159.363 24.1797H149.363C149.363 29.7025 153.84 34.1797 159.363 34.1797V24.1797ZM164.734 24.1797H174.734C174.734 18.6568 170.257 14.1797 164.734 14.1797V24.1797ZM164.734 29.7656V39.7656C170.257 39.7656 174.734 35.2885 174.734 29.7656H164.734ZM159.363 29.7656V19.7656C153.84 19.7656 149.363 24.2428 149.363 29.7656H159.363ZM159.363 49.875V59.875C164.886 59.875 169.363 55.3978 169.363 49.875H159.363ZM152.445 49.875H142.445C142.445 55.3978 146.922 59.875 152.445 59.875V49.875ZM152.445 10V0C146.922 0 142.445 4.47715 142.445 10H152.445ZM147.805 13.5664H157.805C157.805 8.04356 153.328 3.56641 147.805 3.56641V13.5664ZM147.805 19.1094V29.1094C153.328 29.1094 157.805 24.6322 157.805 19.1094H147.805ZM135.988 19.1094V9.10937C130.465 9.10937 125.988 13.5865 125.988 19.1094H135.988ZM135.988 34.75H125.988C125.988 37.4247 127.06 39.9879 128.963 41.8668C130.867 43.7458 133.444 44.7839 136.118 44.7492L135.988 34.75ZM150.211 33.6328L160.129 32.3555C159.783 29.6688 158.362 27.2375 156.191 25.6177C154.02 23.9979 151.284 23.3282 148.61 23.7618L150.211 33.6328ZM150.941 39.3047L152.608 49.1648C157.903 48.27 161.545 43.3532 160.859 38.0274L150.941 39.3047ZM132.594 40.4219L132.658 30.4221C132.636 30.4219 132.615 30.4219 132.594 30.4219V40.4219ZM129.156 40.4219H119.156C119.156 45.9447 123.633 50.4219 129.156 50.4219V40.4219ZM129.156 13.5664V3.56641C123.633 3.56641 119.156 8.04356 119.156 13.5664H129.156ZM159.363 10H149.363V24.1797H159.363H169.363V10H159.363ZM159.363 24.1797V34.1797H164.734V24.1797V14.1797H159.363V24.1797ZM164.734 24.1797H154.734V29.7656H164.734H174.734V24.1797H164.734ZM164.734 29.7656V19.7656H159.363V29.7656V39.7656H164.734V29.7656ZM159.363 29.7656H149.363V49.875H159.363H169.363V29.7656H159.363ZM159.363 49.875V39.875H152.445V49.875V59.875H159.363V49.875ZM152.445 49.875H162.445V10H152.445H142.445V49.875H152.445ZM152.445 10V20H159.363V10V0H152.445V10ZM147.805 13.5664H137.805V19.1094H147.805H157.805V13.5664H147.805ZM147.805 19.1094V9.10937H135.988V19.1094V29.1094L147.805 29.1094V19.1094ZM135.988 19.1094H125.988V34.75H135.988L145.988 34.75V19.1094H135.988ZM135.988 34.75L136.118 44.7492C141.394 44.6806 146.406 44.3805 151.812 43.5039L150.211 33.6328L148.61 23.7618C144.477 24.432 140.508 24.6905 135.858 24.7508L135.988 34.75ZM150.211 33.6328L140.293 34.9101L141.023 40.582L150.941 39.3047L160.859 38.0274L160.129 32.3555L150.211 33.6328ZM150.941 39.3047L149.275 29.4445C144.059 30.3261 139.223 30.4642 132.658 30.4221L132.594 40.4219L132.53 50.4217C139.371 50.4655 145.621 50.3457 152.608 49.1648L150.941 39.3047ZM132.594 40.4219V30.4219H129.156V40.4219V50.4219H132.594V40.4219ZM129.156 40.4219H139.156V13.5664H129.156H119.156V40.4219H129.156ZM129.156 13.5664V23.5664H147.805V13.5664V3.56641H129.156V13.5664ZM209.164 10H219.164C219.164 4.47715 214.687 0 209.164 0V10ZM209.164 49.875V59.875C214.687 59.875 219.164 55.3978 219.164 49.875H209.164ZM202.289 49.875H192.289C192.289 55.3978 196.766 59.875 202.289 59.875V49.875ZM202.289 35.2656H212.289C212.289 29.7428 207.812 25.2656 202.289 25.2656V35.2656ZM197.219 35.2656V25.2656C192.876 25.2656 189.03 28.0684 187.699 32.2023C186.369 36.3362 187.859 40.8562 191.387 43.3889L197.219 35.2656ZM200.055 36.8555L208.228 42.617C209.966 40.1516 210.498 37.0333 209.676 34.1309C208.855 31.2286 206.766 28.8523 203.994 27.664L200.055 36.8555ZM196.359 42.0977L192.598 51.3633C196.907 53.1125 201.853 51.6603 204.533 47.8592L196.359 42.0977ZM187.465 32.8164L196.716 29.0187C195.163 25.2367 191.465 22.7806 187.376 22.8168C183.288 22.853 179.634 25.374 178.148 29.183L187.465 32.8164ZM178.441 42.5273L170.173 48.1523C172.824 52.0485 177.835 53.5654 182.202 51.7935L178.441 42.5273ZM174.875 37.2852L170.873 28.1209C168.146 29.3117 166.091 31.6548 165.267 34.5137C164.442 37.3725 164.933 40.4501 166.607 42.9101L174.875 37.2852ZM183.984 22.2031L193.984 22.2831C193.984 22.2565 193.984 22.2298 193.984 22.2031H183.984ZM183.984 21.6875H193.984C193.984 16.1647 189.507 11.6875 183.984 11.6875V21.6875ZM176.336 21.6875H166.336C166.336 27.2103 170.813 31.6875 176.336 31.6875V21.6875ZM176.336 16.2305V6.23047C170.813 6.23047 166.336 10.7076 166.336 16.2305H176.336ZM184.027 16.2305V26.2305C189.55 26.2305 194.027 21.7533 194.027 16.2305H184.027ZM184.027 11.0312V1.03125C178.505 1.03125 174.027 5.5084 174.027 11.0312H184.027ZM190.902 11.0312H200.902C200.902 5.5084 196.425 1.03125 190.902 1.03125V11.0312ZM190.902 16.2305H180.902C180.902 21.7533 185.38 26.2305 190.902 26.2305V16.2305ZM198.379 16.2305L208.379 16.2305C208.379 10.7076 203.902 6.23047 198.379 6.23047V16.2305ZM198.379 21.5586H188.379C188.379 27.0814 192.856 31.5586 198.379 31.5586V21.5586ZM202.289 21.5586V31.5586C207.812 31.5586 212.289 27.0814 212.289 21.5586L202.289 21.5586ZM202.289 10V0C196.766 0 192.289 4.47715 192.289 10H202.289ZM196.316 34.5781L189.89 42.24C192.868 44.7372 197.022 45.2834 200.544 43.6407C204.065 41.9981 206.316 38.464 206.316 34.5781H196.316ZM196.316 29.7656V19.7656C190.794 19.7656 186.316 24.2428 186.316 29.7656H196.316ZM202.289 29.7656V39.7656C207.812 39.7656 212.289 35.2885 212.289 29.7656H202.289ZM202.289 27.1445L212.289 27.1445C212.289 21.6217 207.812 17.1445 202.289 17.1445V27.1445ZM196.316 27.1445H186.316C186.316 32.6674 190.794 37.1445 196.316 37.1445V27.1445ZM196.316 21.6875L206.316 21.6875C206.316 16.1647 201.839 11.6875 196.316 11.6875V21.6875ZM190.859 21.6875V11.6875C185.337 11.6875 180.859 16.1647 180.859 21.6875H190.859ZM209.164 10H199.164V49.875H209.164H219.164V10H209.164ZM209.164 49.875V39.875H202.289V49.875V59.875H209.164V49.875ZM202.289 49.875H212.289V35.2656H202.289H192.289V49.875H202.289ZM202.289 35.2656V25.2656H197.219V35.2656V45.2656H202.289V35.2656ZM197.219 35.2656L191.387 43.3889C192.83 44.425 194.412 45.3169 196.115 46.0469L200.055 36.8555L203.994 27.664C203.592 27.4917 203.283 27.3093 203.051 27.1424L197.219 35.2656ZM200.055 36.8555L191.881 31.0939L188.186 36.3361L196.359 42.0977L204.533 47.8592L208.228 42.617L200.055 36.8555ZM196.359 42.0977L200.121 32.832C198.788 32.291 197.604 31.1829 196.716 29.0187L187.465 32.8164L178.214 36.6141C180.677 42.614 185.251 48.3808 192.598 51.3633L196.359 42.0977ZM187.465 32.8164L178.148 29.183C177.202 31.6101 175.966 32.7399 174.681 33.2612L178.441 42.5273L182.202 51.7935C189.811 48.7054 194.376 42.6165 196.781 36.4499L187.465 32.8164ZM178.441 42.5273L186.709 36.9024L183.143 31.6602L174.875 37.2852L166.607 42.9101L170.173 48.1523L178.441 42.5273ZM174.875 37.2852L178.877 46.4494C190.658 41.3047 193.924 29.8419 193.984 22.2831L183.984 22.2031L173.985 22.1231C173.973 23.5278 173.656 24.9425 173.093 26.0214C172.598 26.9717 171.935 27.6571 170.873 28.1209L174.875 37.2852ZM183.984 22.2031H193.984V21.6875H183.984H173.984V22.2031H183.984ZM183.984 21.6875V11.6875H176.336V21.6875V31.6875H183.984V21.6875ZM176.336 21.6875H186.336V16.2305H176.336H166.336V21.6875H176.336ZM176.336 16.2305V26.2305H184.027V16.2305V6.23047H176.336V16.2305ZM184.027 16.2305H194.027V11.0312H184.027H174.027V16.2305H184.027ZM184.027 11.0312V21.0312H190.902V11.0312V1.03125L184.027 1.03125V11.0312ZM190.902 11.0312H180.902V16.2305H190.902H200.902V11.0312H190.902ZM190.902 16.2305V26.2305H198.379V16.2305V6.23047H190.902V16.2305ZM198.379 16.2305H188.379V21.5586H198.379L208.379 21.5586V16.2305L198.379 16.2305ZM198.379 21.5586V31.5586H202.289V21.5586V11.5586H198.379V21.5586ZM202.289 21.5586L212.289 21.5586V10H202.289H192.289V21.5586H202.289ZM202.289 10V20L209.164 20V10V0H202.289V10ZM190.859 22.2031H180.859C180.859 28.3629 183.032 36.488 189.89 42.24L196.316 34.5781L202.743 26.9162C201.609 25.9651 200.859 24.2074 200.859 22.2031H190.859ZM196.316 34.5781H206.316V29.7656H196.316H186.316V34.5781H196.316ZM196.316 29.7656V39.7656H202.289V29.7656V19.7656H196.316V29.7656ZM202.289 29.7656H212.289V27.1445L202.289 27.1445H192.289V29.7656H202.289ZM202.289 27.1445V17.1445H196.316V27.1445V37.1445H202.289V27.1445ZM196.316 27.1445L206.316 27.1445V21.6875L196.316 21.6875H186.316V27.1445H196.316ZM196.316 21.6875V11.6875H190.859V21.6875V31.6875H196.316V21.6875ZM190.859 21.6875H180.859V22.2031H190.859H200.859V21.6875H190.859ZM238.898 35.9961L247.168 41.6192C248.865 39.1228 249.344 35.9932 248.471 33.1034C247.598 30.2136 245.466 27.8729 242.67 26.7345L238.898 35.9961ZM235.246 41.3672L231.45 50.6185C235.823 52.4134 240.857 50.8999 243.515 46.9903L235.246 41.3672ZM226.051 31.7422L235.345 28.0525C233.815 24.198 230.065 21.6879 225.918 21.7431C221.771 21.7982 218.089 24.4071 216.662 28.3009L226.051 31.7422ZM216.684 42.3984L208.546 48.2108C211.298 52.0637 216.375 53.4585 220.71 51.5522L216.684 42.3984ZM212.816 36.9844L208.837 27.8102C206.067 29.0118 203.988 31.401 203.18 34.3108C202.373 37.2206 202.924 40.3395 204.679 42.7968L212.816 36.9844ZM222.355 19.2812H232.355C232.355 13.7584 227.878 9.28125 222.355 9.28125V19.2812ZM214.535 19.2812L204.535 19.2812C204.535 24.8041 209.012 29.2812 214.535 29.2812V19.2812ZM214.535 13.6953V3.69531C209.012 3.69531 204.535 8.17247 204.535 13.6953L214.535 13.6953ZM237.008 13.6953H247.008C247.008 8.17247 242.531 3.69531 237.008 3.69531V13.6953ZM237.008 19.2812V29.2812C242.531 29.2812 247.008 24.8041 247.008 19.2812H237.008ZM229.402 19.2812V9.28125C223.88 9.28125 219.402 13.7584 219.402 19.2812H229.402ZM246.848 10H256.848C256.848 4.47715 252.37 0 246.848 0V10ZM246.848 49.7461V59.7461C252.37 59.7461 256.848 55.2689 256.848 49.7461H246.848ZM239.887 49.7461H229.887C229.887 55.2689 234.364 59.7461 239.887 59.7461V49.7461ZM239.887 10V0C234.364 0 229.887 4.47715 229.887 10L239.887 10ZM229.402 19.9687H219.402C219.402 28.2505 222.615 40.1628 235.127 45.2577L238.898 35.9961L242.67 26.7345C241.468 26.2452 240.822 25.5594 240.346 24.638C239.782 23.5438 239.402 21.937 239.402 19.9687H229.402ZM238.898 35.9961L230.629 30.373L226.977 35.7441L235.246 41.3672L243.515 46.9903L247.168 41.6192L238.898 35.9961ZM235.246 41.3672L239.043 32.1159C237.419 31.4494 236.221 30.2591 235.345 28.0525L226.051 31.7422L216.756 35.4319C219.275 41.776 223.964 47.5467 231.45 50.6185L235.246 41.3672ZM226.051 31.7422L216.662 28.3009C215.599 31.1999 214.195 32.5685 212.658 33.2447L216.684 42.3984L220.71 51.5522C228.453 48.1464 233.022 41.7805 235.44 35.1835L226.051 31.7422ZM216.684 42.3984L224.821 36.5861L220.954 31.172L212.816 36.9844L204.679 42.7968L208.546 48.2108L216.684 42.3984ZM212.816 36.9844L216.796 46.1586C229.217 40.7711 232.355 28.4633 232.355 19.9687H222.355H212.355C212.355 22.1894 211.941 24.0718 211.288 25.3991C210.71 26.573 209.968 27.3196 208.837 27.8102L212.816 36.9844ZM222.355 19.9687H232.355V19.2812H222.355H212.355V19.9687H222.355ZM222.355 19.2812V9.28125H214.535V19.2812V29.2812H222.355V19.2812ZM214.535 19.2812H224.535V13.6953H214.535L204.535 13.6953V19.2812L214.535 19.2812ZM214.535 13.6953V23.6953H237.008V13.6953V3.69531L214.535 3.69531V13.6953ZM237.008 13.6953H227.008V19.2812H237.008H247.008V13.6953H237.008ZM237.008 19.2812V9.28125L229.402 9.28125V19.2812V29.2812H237.008V19.2812ZM229.402 19.2812H219.402V19.9687H229.402H239.402V19.2812H229.402ZM246.848 10H236.848V49.7461H246.848H256.848V10H246.848ZM246.848 49.7461V39.7461H239.887V49.7461V59.7461H246.848V49.7461ZM239.887 49.7461H249.887V10H239.887L229.887 10V49.7461H239.887ZM239.887 10V20H246.848V10V0L239.887 0V10ZM283.672 20.0977H293.672C293.672 14.5748 289.195 10.0977 283.672 10.0977V20.0977ZM283.672 25.4258V35.4258C289.195 35.4258 293.672 30.9486 293.672 25.4258H283.672ZM255.57 25.4258H245.57C245.57 30.9486 250.047 35.4258 255.57 35.4258V25.4258ZM255.57 11.418V1.41797C250.047 1.41797 245.57 5.89512 245.57 11.418H255.57ZM262.445 11.418H272.445C272.445 5.89512 267.968 1.41797 262.445 1.41797V11.418ZM262.445 20.0977H252.445C252.445 25.6205 256.922 30.0977 262.445 30.0977V20.0977ZM287.582 28.9492H297.582C297.582 23.4264 293.105 18.9492 287.582 18.9492V28.9492ZM287.582 34.2773V44.2773C293.105 44.2773 297.582 39.8002 297.582 34.2773H287.582ZM251.316 34.2773H241.316C241.316 39.8002 245.794 44.2773 251.316 44.2773V34.2773ZM251.316 28.9492V18.9492C245.794 18.9492 241.316 23.4264 241.316 28.9492H251.316ZM283.93 43.4727H293.93C293.93 37.9498 289.453 33.4727 283.93 33.4727V43.4727ZM283.93 48.9727V58.9727C289.453 58.9727 293.93 54.4955 293.93 48.9727H283.93ZM255.098 48.9727H245.098C245.098 54.4955 249.575 58.9727 255.098 58.9727V48.9727ZM255.098 37.0273V27.0273C249.575 27.0273 245.098 31.5045 245.098 37.0273H255.098ZM262.059 37.0273H272.059C272.059 31.5045 267.581 27.0273 262.059 27.0273V37.0273ZM262.059 43.4727H252.059C252.059 48.9955 256.536 53.4727 262.059 53.4727V43.4727ZM283.672 20.0977H273.672V25.4258H283.672H293.672V20.0977H283.672ZM283.672 25.4258V15.4258H255.57V25.4258V35.4258H283.672V25.4258ZM255.57 25.4258H265.57V11.418H255.57H245.57V25.4258H255.57ZM255.57 11.418V21.418H262.445V11.418V1.41797H255.57V11.418ZM262.445 11.418H252.445V20.0977H262.445H272.445V11.418H262.445ZM262.445 20.0977V30.0977H283.672V20.0977V10.0977H262.445V20.0977ZM287.582 28.9492H277.582V34.2773H287.582H297.582V28.9492H287.582ZM287.582 34.2773V24.2773H251.316V34.2773V44.2773H287.582V34.2773ZM251.316 34.2773H261.316V28.9492H251.316H241.316V34.2773H251.316ZM251.316 28.9492V38.9492H287.582V28.9492V18.9492H251.316V28.9492ZM283.93 43.4727H273.93V48.9727H283.93H293.93V43.4727H283.93ZM283.93 48.9727V38.9727H255.098V48.9727V58.9727H283.93V48.9727ZM255.098 48.9727H265.098V37.0273H255.098H245.098V48.9727H255.098ZM255.098 37.0273V47.0273H262.059V37.0273V27.0273H255.098V37.0273ZM262.059 37.0273H252.059V43.4727H262.059H272.059V37.0273H262.059ZM262.059 43.4727V53.4727H283.93V43.4727V33.4727H262.059V43.4727Z" fill="white" mask="url(#path-1-outside-1_6526_5746)"/>
</g>
<defs>
<filter id="filter0_d_6526_5746" x="0" y="0" width="301.582" height="67.875" filterUnits="userSpaceOnUse" color-interpolation-filters="sRGB">
<feFlood flood-opacity="0" result="BackgroundImageFix"/>
<feColorMatrix in="SourceAlpha" type="matrix" values="0 0 0 0 0 0 0 0 0 0 0 0 0 0 0 0 0 0 127 0" result="hardAlpha"/>
<feOffset dy="4"/>
<feGaussianBlur stdDeviation="2"/>
<feComposite in2="hardAlpha" operator="out"/>
<feColorMatrix type="matrix" values="0 0 0 0 0 0 0 0 0 0 0 0 0 0 0 0 0 0 0.07 0"/>
<feBlend mode="normal" in2="BackgroundImageFix" result="effect1_dropShadow_6526_5746"/>
<feBlend mode="normal" in="SourceGraphic" in2="effect1_dropShadow_6526_5746" result="shape"/>
</filter>
</defs>
</svg>
