<svg width="264" height="68" viewBox="0 0 264 68" fill="none" xmlns="http://www.w3.org/2000/svg">
<g filter="url(#filter0_d_6524_1721)">
<mask id="path-1-outside-1_6524_1721" maskUnits="userSpaceOnUse" x="3.66797" y="-0.507813" width="256" height="61" fill="black">
<rect fill="white" x="3.66797" y="-0.507813" width="256" height="61"/>
<path d="M24.8711 11.0312C31.0156 10.9883 35.6992 14.8984 35.6992 20.2695C35.6992 25.5977 31.0156 29.4648 24.8711 29.4648C18.6836 29.4648 13.957 25.5977 14 20.2695C13.957 14.8984 18.6836 10.9883 24.8711 11.0312ZM24.8711 16.5742C22.4219 16.6172 20.6172 17.7773 20.6602 20.2695C20.6172 22.7188 22.4219 23.9648 24.8711 23.9648C27.3203 23.9648 29.0391 22.7188 29.0391 20.2695C29.0391 17.7773 27.3203 16.6172 24.8711 16.5742ZM47.0859 10V29.6367H40.168V10L47.0859 10ZM47.0859 31.0977V42.6562H26.7617V44.0312H47.9453V49.4023H20.0156V37.7148H40.2109V36.3398H19.9297V31.0977H47.0859ZM85.5859 10V49.875H78.625V30.3242H72.4805V24.8672L78.625 24.8672V10H85.5859ZM67.1953 22.2031C67.1953 27.3594 69.5156 33.7617 76.3906 36.7266L72.7812 41.9258C68.3984 40.1855 65.5195 36.8125 63.8008 32.7734C62.125 37.0918 59.2461 40.7227 54.7773 42.5273L51.2109 37.2852C58 34.3203 60.2773 27.5742 60.3203 22.2031V21.6875H52.6719V16.2305H60.3633V11.0312H67.2383V16.2305H74.7148V21.6875H67.1953V22.2031ZM123.227 10V49.875H116.352V10H123.227ZM110.766 13.1367V29.207H98.7773V35.1367C104.449 35.0723 109.111 34.75 114.16 33.8906L114.719 39.4336C108.703 40.5508 102.902 40.7656 95.3828 40.7656H91.6445V23.8359H103.719V18.6367H91.6445V13.1367H110.766ZM159.363 10V24.6523H164.434V30.2812H159.363V49.6602H152.445V10H159.363ZM148.535 13.9531C148.492 26.2422 144.281 36.5547 130.703 43.2148L126.793 37.9727C135.645 33.5039 140.328 27.9395 141.531 19.5391H129.285V13.9531H148.535ZM208.906 10V24.1797H212.043V29.8516H208.906V49.7461H202.117V10H208.906ZM180.805 13.5234V22.1172H181.75V13.5234H187.293V40.8516H175.219V13.5234H180.805ZM180.805 35.3086H181.75V27.4883H180.805V35.3086ZM193.996 13.5234V22.1172H195.113V13.5234H200.699V40.8516H188.539V13.5234H193.996ZM193.996 35.3086H195.113V27.4883H193.996V35.3086ZM249.555 31.1406V36.6406H213.289V31.1406H249.555ZM246.246 43.6875V49.1875H217.715V38.2305H224.547V43.6875H246.246ZM245.344 10.6445V22.418H224.504V24.2227H245.988V29.3359H217.672V17.5625H238.469V15.9297H217.629V10.6445L245.344 10.6445Z"/>
</mask>
<path d="M24.8711 11.0312C31.0156 10.9883 35.6992 14.8984 35.6992 20.2695C35.6992 25.5977 31.0156 29.4648 24.8711 29.4648C18.6836 29.4648 13.957 25.5977 14 20.2695C13.957 14.8984 18.6836 10.9883 24.8711 11.0312ZM24.8711 16.5742C22.4219 16.6172 20.6172 17.7773 20.6602 20.2695C20.6172 22.7188 22.4219 23.9648 24.8711 23.9648C27.3203 23.9648 29.0391 22.7188 29.0391 20.2695C29.0391 17.7773 27.3203 16.6172 24.8711 16.5742ZM47.0859 10V29.6367H40.168V10L47.0859 10ZM47.0859 31.0977V42.6562H26.7617V44.0312H47.9453V49.4023H20.0156V37.7148H40.2109V36.3398H19.9297V31.0977H47.0859ZM85.5859 10V49.875H78.625V30.3242H72.4805V24.8672L78.625 24.8672V10H85.5859ZM67.1953 22.2031C67.1953 27.3594 69.5156 33.7617 76.3906 36.7266L72.7812 41.9258C68.3984 40.1855 65.5195 36.8125 63.8008 32.7734C62.125 37.0918 59.2461 40.7227 54.7773 42.5273L51.2109 37.2852C58 34.3203 60.2773 27.5742 60.3203 22.2031V21.6875H52.6719V16.2305H60.3633V11.0312H67.2383V16.2305H74.7148V21.6875H67.1953V22.2031ZM123.227 10V49.875H116.352V10H123.227ZM110.766 13.1367V29.207H98.7773V35.1367C104.449 35.0723 109.111 34.75 114.16 33.8906L114.719 39.4336C108.703 40.5508 102.902 40.7656 95.3828 40.7656H91.6445V23.8359H103.719V18.6367H91.6445V13.1367H110.766ZM159.363 10V24.6523H164.434V30.2812H159.363V49.6602H152.445V10H159.363ZM148.535 13.9531C148.492 26.2422 144.281 36.5547 130.703 43.2148L126.793 37.9727C135.645 33.5039 140.328 27.9395 141.531 19.5391H129.285V13.9531H148.535ZM208.906 10V24.1797H212.043V29.8516H208.906V49.7461H202.117V10H208.906ZM180.805 13.5234V22.1172H181.75V13.5234H187.293V40.8516H175.219V13.5234H180.805ZM180.805 35.3086H181.75V27.4883H180.805V35.3086ZM193.996 13.5234V22.1172H195.113V13.5234H200.699V40.8516H188.539V13.5234H193.996ZM193.996 35.3086H195.113V27.4883H193.996V35.3086ZM249.555 31.1406V36.6406H213.289V31.1406H249.555ZM246.246 43.6875V49.1875H217.715V38.2305H224.547V43.6875H246.246ZM245.344 10.6445V22.418H224.504V24.2227H245.988V29.3359H217.672V17.5625H238.469V15.9297H217.629V10.6445L245.344 10.6445Z" fill="#11DCA9"/>
<path d="M24.8711 11.0312L24.8017 21.031C24.8481 21.0313 24.8946 21.0313 24.941 21.031L24.8711 11.0312ZM14 20.2695L23.9997 20.3502C24.0001 20.2966 24.0001 20.2431 23.9997 20.1895L14 20.2695ZM24.8711 16.5742L25.0465 6.57576C24.9296 6.57371 24.8126 6.57371 24.6957 6.57576L24.8711 16.5742ZM20.6602 20.2695L30.6586 20.4449C30.6607 20.329 30.6607 20.2131 30.6587 20.0971L20.6602 20.2695ZM47.0859 10H57.0859C57.0859 4.47715 52.6088 0 47.0859 0V10ZM47.0859 29.6367V39.6367C52.6088 39.6367 57.0859 35.1596 57.0859 29.6367H47.0859ZM40.168 29.6367H30.168C30.168 35.1596 34.6451 39.6367 40.168 39.6367V29.6367ZM40.168 10V0C34.6451 0 30.168 4.47715 30.168 10H40.168ZM47.0859 31.0977H57.0859C57.0859 25.5748 52.6088 21.0977 47.0859 21.0977V31.0977ZM47.0859 42.6562V52.6562C52.6088 52.6562 57.0859 48.1791 57.0859 42.6562H47.0859ZM26.7617 42.6562V32.6562C21.2389 32.6562 16.7617 37.1334 16.7617 42.6562H26.7617ZM26.7617 44.0312H16.7617C16.7617 49.5541 21.2389 54.0312 26.7617 54.0312V44.0312ZM47.9453 44.0312H57.9453C57.9453 38.5084 53.4682 34.0312 47.9453 34.0312V44.0312ZM47.9453 49.4023V59.4023C53.4682 59.4023 57.9453 54.9252 57.9453 49.4023H47.9453ZM20.0156 49.4023H10.0156C10.0156 54.9252 14.4928 59.4023 20.0156 59.4023V49.4023ZM20.0156 37.7148V27.7148C14.4928 27.7148 10.0156 32.192 10.0156 37.7148H20.0156ZM40.2109 37.7148V47.7148C45.7338 47.7148 50.2109 43.2377 50.2109 37.7148H40.2109ZM40.2109 36.3398H50.2109C50.2109 30.817 45.7338 26.3398 40.2109 26.3398V36.3398ZM19.9297 36.3398H9.92969C9.92969 41.8627 14.4068 46.3398 19.9297 46.3398V36.3398ZM19.9297 31.0977V21.0977C14.4068 21.0977 9.92969 25.5748 9.92969 31.0977H19.9297ZM24.8711 11.0312L24.941 21.031C25.9038 21.0243 26.2139 21.3252 26.1233 21.2484C26.0742 21.2068 25.9528 21.0839 25.8465 20.8612C25.7352 20.628 25.6992 20.4069 25.6992 20.2695H35.6992H45.6992C45.6992 7.91744 34.9484 0.960535 24.8012 1.03149L24.8711 11.0312ZM35.6992 20.2695H25.6992C25.6992 20.108 25.7412 19.8657 25.8607 19.6174C25.9746 19.3806 26.1025 19.2545 26.148 19.2161C26.2266 19.1499 25.8829 19.4648 24.8711 19.4648V29.4648V39.4648C34.8592 39.4648 45.6992 32.662 45.6992 20.2695H35.6992ZM24.8711 29.4648V19.4648C23.816 19.4648 23.4459 19.1369 23.5196 19.1986C23.565 19.2366 23.7024 19.3701 23.8253 19.6263C23.9545 19.8954 24.0012 20.1632 23.9997 20.3502L14 20.2695L4.00033 20.1889C3.89914 32.7355 14.9533 39.4648 24.8711 39.4648V29.4648ZM14 20.2695L23.9997 20.1895C24.001 20.352 23.9603 20.5985 23.8395 20.8524C23.7242 21.0944 23.5934 21.2247 23.5444 21.266C23.4585 21.3383 23.7952 21.024 24.8017 21.031L24.8711 11.0312L24.9405 1.03149C14.8631 0.961509 3.90027 7.84291 4.00032 20.3495L14 20.2695ZM24.8711 16.5742L24.6957 6.57576C22.1172 6.62099 18.6079 7.25397 15.5503 9.72192C12.124 12.4874 10.5934 16.4849 10.6616 20.4419L20.6602 20.2695L30.6587 20.0971C30.6691 20.7039 30.5698 21.6214 30.1156 22.6585C29.6508 23.7198 28.9392 24.6171 28.1118 25.2849C26.5581 26.539 25.1758 26.5704 25.0465 26.5727L24.8711 16.5742ZM20.6602 20.2695L10.6617 20.0941C10.5922 24.0535 12.136 28.013 15.4837 30.7629C18.5354 33.2697 22.0922 33.9648 24.8711 33.9648V23.9648V13.9648C25.2008 13.9648 26.6307 14.037 28.1784 15.3084C30.0222 16.8229 30.6851 18.9348 30.6586 20.4449L20.6602 20.2695ZM24.8711 23.9648V33.9648C27.6653 33.9648 31.2459 33.2609 34.3028 30.6949C37.6102 27.9187 39.0391 24.0222 39.0391 20.2695H29.0391H19.0391C19.0391 18.966 19.6086 16.9173 21.4442 15.3764C23.0295 14.0457 24.5261 13.9648 24.8711 13.9648V23.9648ZM29.0391 20.2695H39.0391C39.0391 16.5168 37.621 12.5806 34.2365 9.78899C31.1732 7.26229 27.6397 6.62125 25.0465 6.57576L24.8711 16.5742L24.6957 26.5727C24.5517 26.5702 23.1022 26.5307 21.5105 25.2178C20.6756 24.5292 19.9953 23.6346 19.5575 22.6247C19.1327 21.6451 19.0391 20.799 19.0391 20.2695H29.0391ZM47.0859 10L37.0859 10V29.6367H47.0859H57.0859V10H47.0859ZM47.0859 29.6367V19.6367H40.168V29.6367V39.6367H47.0859V29.6367ZM40.168 29.6367H50.168V10L40.168 10H30.168V29.6367H40.168ZM40.168 10V20H47.0859V10V0H40.168V10ZM47.0859 31.0977H37.0859V42.6562H47.0859H57.0859V31.0977H47.0859ZM47.0859 42.6562V32.6562H26.7617V42.6562V52.6562H47.0859V42.6562ZM26.7617 42.6562H16.7617V44.0312H26.7617H36.7617V42.6562H26.7617ZM26.7617 44.0312V54.0312H47.9453V44.0312V34.0312H26.7617V44.0312ZM47.9453 44.0312H37.9453V49.4023H47.9453H57.9453V44.0312H47.9453ZM47.9453 49.4023V39.4023H20.0156V49.4023V59.4023H47.9453V49.4023ZM20.0156 49.4023H30.0156V37.7148H20.0156H10.0156V49.4023H20.0156ZM20.0156 37.7148V47.7148H40.2109V37.7148V27.7148H20.0156V37.7148ZM40.2109 37.7148H50.2109V36.3398H40.2109H30.2109V37.7148H40.2109ZM40.2109 36.3398V26.3398H19.9297V36.3398V46.3398H40.2109V36.3398ZM19.9297 36.3398H29.9297V31.0977H19.9297H9.92969V36.3398H19.9297ZM19.9297 31.0977V41.0977H47.0859V31.0977V21.0977H19.9297V31.0977ZM85.5859 10H95.5859C95.5859 4.47715 91.1088 0 85.5859 0V10ZM85.5859 49.875V59.875C91.1088 59.875 95.5859 55.3978 95.5859 49.875H85.5859ZM78.625 49.875H68.625C68.625 55.3978 73.1022 59.875 78.625 59.875V49.875ZM78.625 30.3242H88.625C88.625 24.8014 84.1479 20.3242 78.625 20.3242V30.3242ZM72.4805 30.3242H62.4805C62.4805 35.8471 66.9576 40.3242 72.4805 40.3242V30.3242ZM72.4805 24.8672V14.8672C66.9576 14.8672 62.4805 19.3443 62.4805 24.8672H72.4805ZM78.625 24.8672V34.8672C84.1479 34.8672 88.625 30.39 88.625 24.8672H78.625ZM78.625 10V0C73.1022 0 68.625 4.47715 68.625 10H78.625ZM76.3906 36.7266L84.6052 42.4292C86.316 39.9649 86.83 36.8628 86.0056 33.9783C85.1811 31.0939 83.1053 28.732 80.3506 27.544L76.3906 36.7266ZM72.7812 41.9258L69.0909 51.2199C73.4116 52.9355 78.3447 51.4473 80.9958 47.6285L72.7812 41.9258ZM63.8008 32.7734L73.0023 28.8579C71.4094 25.1146 67.7076 22.7093 63.64 22.7747C59.5724 22.8401 55.9499 25.3631 54.4781 29.1557L63.8008 32.7734ZM54.7773 42.5273L46.5093 48.1523C49.1565 52.0433 54.1583 53.562 58.522 51.7998L54.7773 42.5273ZM51.2109 37.2852L47.2088 28.1209C44.4821 29.3117 42.4273 31.6548 41.6027 34.5137C40.778 37.3725 41.2693 40.4501 42.9429 42.9101L51.2109 37.2852ZM60.3203 22.2031L70.32 22.2831C70.3202 22.2565 70.3203 22.2298 70.3203 22.2031H60.3203ZM60.3203 21.6875H70.3203C70.3203 16.1647 65.8432 11.6875 60.3203 11.6875V21.6875ZM52.6719 21.6875H42.6719C42.6719 27.2103 47.149 31.6875 52.6719 31.6875V21.6875ZM52.6719 16.2305V6.23047C47.149 6.23047 42.6719 10.7076 42.6719 16.2305H52.6719ZM60.3633 16.2305V26.2305C65.8861 26.2305 70.3633 21.7533 70.3633 16.2305H60.3633ZM60.3633 11.0312V1.03125C54.8404 1.03125 50.3633 5.5084 50.3633 11.0312H60.3633ZM67.2383 11.0312H77.2383C77.2383 5.5084 72.7611 1.03125 67.2383 1.03125V11.0312ZM67.2383 16.2305H57.2383C57.2383 21.7533 61.7154 26.2305 67.2383 26.2305V16.2305ZM74.7148 16.2305L84.7148 16.2305C84.7148 10.7076 80.2377 6.23047 74.7148 6.23047V16.2305ZM74.7148 21.6875V31.6875C80.2377 31.6875 84.7148 27.2103 84.7148 21.6875L74.7148 21.6875ZM67.1953 21.6875V11.6875C61.6725 11.6875 57.1953 16.1647 57.1953 21.6875H67.1953ZM85.5859 10H75.5859V49.875H85.5859H95.5859V10H85.5859ZM85.5859 49.875V39.875H78.625V49.875V59.875H85.5859V49.875ZM78.625 49.875H88.625V30.3242H78.625H68.625V49.875H78.625ZM78.625 30.3242V20.3242L72.4805 20.3242V30.3242V40.3242H78.625V30.3242ZM72.4805 30.3242H82.4805V24.8672L72.4805 24.8672H62.4805V30.3242H72.4805ZM72.4805 24.8672V34.8672H78.625V24.8672V14.8672L72.4805 14.8672V24.8672ZM78.625 24.8672H88.625V10H78.625H68.625V24.8672L78.625 24.8672ZM78.625 10V20H85.5859V10V0L78.625 0V10ZM67.1953 22.2031H57.1953C57.1953 30.0209 60.8062 40.896 72.4307 45.9091L76.3906 36.7266L80.3506 27.544C79.0815 26.9967 78.4131 26.2599 77.9759 25.4654C77.4702 24.5464 77.1953 23.3655 77.1953 22.2031L67.1953 22.2031ZM76.3906 36.7266L68.176 31.0239L64.5667 36.2231L72.7812 41.9258L80.9958 47.6285L84.6052 42.4292L76.3906 36.7266ZM72.7812 41.9258L76.4716 32.6316C75.0751 32.0771 73.9095 30.9898 73.0023 28.8579L63.8008 32.7734L54.5992 36.689C57.1295 42.6352 61.7218 48.294 69.0909 51.2199L72.7812 41.9258ZM63.8008 32.7734L54.4781 29.1557C53.5132 31.6421 52.2862 32.7487 51.0327 33.2549L54.7773 42.5273L58.522 51.7998C66.206 48.6966 70.7368 42.5415 73.1234 36.3912L63.8008 32.7734ZM54.7773 42.5273L63.0453 36.9024L59.4789 31.6602L51.2109 37.2852L42.9429 42.9101L46.5093 48.1523L54.7773 42.5273ZM51.2109 37.2852L55.213 46.4494C66.9937 41.3047 70.2595 29.8419 70.32 22.2831L60.3203 22.2031L50.3206 22.1231C50.3094 23.5278 49.9921 24.9425 49.4292 26.0214C48.9335 26.9717 48.2709 27.6571 47.2088 28.1209L51.2109 37.2852ZM60.3203 22.2031H70.3203V21.6875H60.3203H50.3203V22.2031H60.3203ZM60.3203 21.6875V11.6875H52.6719V21.6875V31.6875H60.3203V21.6875ZM52.6719 21.6875H62.6719V16.2305H52.6719H42.6719V21.6875H52.6719ZM52.6719 16.2305V26.2305H60.3633V16.2305V6.23047H52.6719V16.2305ZM60.3633 16.2305H70.3633V11.0312H60.3633H50.3633V16.2305H60.3633ZM60.3633 11.0312V21.0312H67.2383V11.0312V1.03125L60.3633 1.03125V11.0312ZM67.2383 11.0312H57.2383V16.2305H67.2383L77.2383 16.2305V11.0312H67.2383ZM67.2383 16.2305V26.2305H74.7148V16.2305V6.23047H67.2383V16.2305ZM74.7148 16.2305H64.7148V21.6875H74.7148L84.7148 21.6875V16.2305L74.7148 16.2305ZM74.7148 21.6875V11.6875H67.1953V21.6875V31.6875H74.7148V21.6875ZM67.1953 21.6875H57.1953V22.2031H67.1953L77.1953 22.2031V21.6875L67.1953 21.6875ZM123.227 10H133.227C133.227 4.47715 128.749 0 123.227 0V10ZM123.227 49.875V59.875C128.749 59.875 133.227 55.3978 133.227 49.875H123.227ZM116.352 49.875H106.352C106.352 55.3978 110.829 59.875 116.352 59.875V49.875ZM116.352 10V0C110.829 0 106.352 4.47715 106.352 10L116.352 10ZM110.766 13.1367H120.766C120.766 7.61387 116.288 3.13672 110.766 3.13672V13.1367ZM110.766 29.207V39.207C116.288 39.207 120.766 34.7299 120.766 29.207H110.766ZM98.7773 29.207V19.207C93.2545 19.207 88.7773 23.6842 88.7773 29.207H98.7773ZM98.7773 35.1367H88.7773C88.7773 37.8086 89.8466 40.3693 91.7466 42.2478C93.6466 44.1264 96.2193 45.1664 98.891 45.1361L98.7773 35.1367ZM114.16 33.8906L124.11 32.888C123.832 30.1315 122.423 27.6137 120.219 25.9351C118.015 24.2565 115.213 23.5675 112.482 24.0324L114.16 33.8906ZM114.719 39.4336L116.545 49.2655C121.658 48.3159 125.19 43.6054 124.668 38.4309L114.719 39.4336ZM91.6445 40.7656H81.6445C81.6445 46.2885 86.1217 50.7656 91.6445 50.7656V40.7656ZM91.6445 23.8359V13.8359C86.1217 13.8359 81.6445 18.3131 81.6445 23.8359H91.6445ZM103.719 23.8359V33.8359C109.242 33.8359 113.719 29.3588 113.719 23.8359H103.719ZM103.719 18.6367H113.719C113.719 13.1139 109.242 8.63672 103.719 8.63672V18.6367ZM91.6445 18.6367H81.6445C81.6445 24.1596 86.1217 28.6367 91.6445 28.6367V18.6367ZM91.6445 13.1367V3.13672C86.1217 3.13672 81.6445 7.61387 81.6445 13.1367H91.6445ZM123.227 10H113.227V49.875H123.227H133.227V10H123.227ZM123.227 49.875V39.875H116.352V49.875V59.875H123.227V49.875ZM116.352 49.875H126.352V10H116.352L106.352 10V49.875H116.352ZM116.352 10V20H123.227V10V0L116.352 0V10ZM110.766 13.1367H100.766V29.207H110.766H120.766V13.1367H110.766ZM110.766 29.207V19.207H98.7773V29.207V39.207H110.766V29.207ZM98.7773 29.207H88.7773V35.1367H98.7773H108.777V29.207H98.7773ZM98.7773 35.1367L98.891 45.1361C104.916 45.0676 110.127 44.7209 115.838 43.7488L114.16 33.8906L112.482 24.0324C108.095 24.7791 103.982 25.0769 98.6637 25.1374L98.7773 35.1367ZM114.16 33.8906L104.211 34.8933L104.769 40.4363L114.719 39.4336L124.668 38.4309L124.11 32.888L114.16 33.8906ZM114.719 39.4336L112.893 29.6017C107.813 30.5451 102.763 30.7656 95.3828 30.7656V40.7656V50.7656C103.042 50.7656 109.593 50.5565 116.545 49.2655L114.719 39.4336ZM95.3828 40.7656V30.7656H91.6445V40.7656V50.7656H95.3828V40.7656ZM91.6445 40.7656H101.645V23.8359H91.6445H81.6445V40.7656H91.6445ZM91.6445 23.8359V33.8359H103.719V23.8359V13.8359H91.6445V23.8359ZM103.719 23.8359H113.719V18.6367H103.719H93.7188V23.8359H103.719ZM103.719 18.6367V8.63672H91.6445V18.6367V28.6367H103.719V18.6367ZM91.6445 18.6367H101.645V13.1367H91.6445H81.6445V18.6367H91.6445ZM91.6445 13.1367V23.1367H110.766V13.1367V3.13672L91.6445 3.13672V13.1367ZM159.363 10H169.363C169.363 4.47715 164.886 0 159.363 0V10ZM159.363 24.6523H149.363C149.363 30.1752 153.84 34.6523 159.363 34.6523V24.6523ZM164.434 24.6523H174.434C174.434 19.1295 169.956 14.6523 164.434 14.6523V24.6523ZM164.434 30.2812V40.2812C169.956 40.2812 174.434 35.8041 174.434 30.2812H164.434ZM159.363 30.2812V20.2812C153.84 20.2812 149.363 24.7584 149.363 30.2812H159.363ZM159.363 49.6602V59.6602C164.886 59.6602 169.363 55.183 169.363 49.6602H159.363ZM152.445 49.6602H142.445C142.445 55.183 146.922 59.6602 152.445 59.6602V49.6602ZM152.445 10V0C146.922 0 142.445 4.47715 142.445 10H152.445ZM148.535 13.9531L158.535 13.9881C158.544 11.3299 157.495 8.77736 155.619 6.89443C153.742 5.0115 151.193 3.95312 148.535 3.95312V13.9531ZM130.703 43.2148L122.687 49.1938C125.566 53.0526 130.785 54.313 135.107 52.193L130.703 43.2148ZM126.793 37.9727L122.286 29.0458C119.649 30.377 117.736 32.8059 117.059 35.6812C116.382 38.5565 117.011 41.5839 118.777 43.9516L126.793 37.9727ZM141.531 19.5391L151.43 20.9568C151.841 18.0866 150.986 15.1792 149.087 12.9884C147.188 10.7976 144.431 9.53906 141.531 9.53906V19.5391ZM129.285 19.5391H119.285C119.285 25.0619 123.762 29.5391 129.285 29.5391V19.5391ZM129.285 13.9531V3.95312C123.762 3.95312 119.285 8.43028 119.285 13.9531H129.285ZM159.363 10H149.363V24.6523H159.363H169.363V10H159.363ZM159.363 24.6523V34.6523H164.434V24.6523V14.6523H159.363V24.6523ZM164.434 24.6523H154.434V30.2812H164.434H174.434V24.6523H164.434ZM164.434 30.2812V20.2812H159.363V30.2812V40.2812H164.434V30.2812ZM159.363 30.2812H149.363V49.6602H159.363H169.363V30.2812H159.363ZM159.363 49.6602V39.6602H152.445V49.6602V59.6602H159.363V49.6602ZM152.445 49.6602H162.445V10H152.445H142.445V49.6602H152.445ZM152.445 10V20H159.363V10V0H152.445V10ZM148.535 13.9531L138.535 13.9182C138.518 18.9688 137.642 22.8059 135.959 25.8287C134.336 28.7423 131.538 31.6673 126.299 34.2367L130.703 43.2148L135.107 52.193C143.447 48.1022 149.543 42.5409 153.431 35.5609C157.258 28.6902 158.51 21.2265 158.535 13.9881L148.535 13.9531ZM130.703 43.2148L138.719 37.2359L134.809 31.9937L126.793 37.9727L118.777 43.9516L122.687 49.1938L130.703 43.2148ZM126.793 37.9727L131.3 46.8995C136.544 44.2517 141.218 40.951 144.804 36.5212C148.475 31.9849 150.598 26.7651 151.43 20.9568L141.531 19.5391L131.632 18.1213C131.261 20.7134 130.441 22.4761 129.257 23.9392C127.987 25.5089 125.893 27.2248 122.286 29.0458L126.793 37.9727ZM141.531 19.5391V9.53906H129.285V19.5391V29.5391L141.531 29.5391V19.5391ZM129.285 19.5391H139.285V13.9531H129.285H119.285V19.5391H129.285ZM129.285 13.9531V23.9531H148.535V13.9531V3.95312H129.285V13.9531ZM208.906 10H218.906C218.906 4.47715 214.429 0 208.906 0V10ZM208.906 24.1797L198.906 24.1797C198.906 29.7025 203.383 34.1797 208.906 34.1797V24.1797ZM212.043 24.1797H222.043C222.043 18.6568 217.566 14.1797 212.043 14.1797V24.1797ZM212.043 29.8516V39.8516C217.566 39.8516 222.043 35.3744 222.043 29.8516H212.043ZM208.906 29.8516V19.8516C203.383 19.8516 198.906 24.3287 198.906 29.8516H208.906ZM208.906 49.7461V59.7461C214.429 59.7461 218.906 55.2689 218.906 49.7461H208.906ZM202.117 49.7461H192.117C192.117 55.2689 196.594 59.7461 202.117 59.7461V49.7461ZM202.117 10V0C196.594 0 192.117 4.47715 192.117 10H202.117ZM180.805 13.5234H190.805C190.805 8.00059 186.328 3.52344 180.805 3.52344V13.5234ZM180.805 22.1172H170.805C170.805 27.64 175.282 32.1172 180.805 32.1172V22.1172ZM181.75 22.1172V32.1172C187.273 32.1172 191.75 27.64 191.75 22.1172H181.75ZM181.75 13.5234V3.52344C176.227 3.52344 171.75 8.00059 171.75 13.5234H181.75ZM187.293 13.5234H197.293C197.293 8.00059 192.816 3.52344 187.293 3.52344V13.5234ZM187.293 40.8516V50.8516C192.816 50.8516 197.293 46.3744 197.293 40.8516H187.293ZM175.219 40.8516H165.219C165.219 46.3744 169.696 50.8516 175.219 50.8516V40.8516ZM175.219 13.5234V3.52344C169.696 3.52344 165.219 8.00059 165.219 13.5234H175.219ZM180.805 35.3086H170.805C170.805 40.8314 175.282 45.3086 180.805 45.3086V35.3086ZM181.75 35.3086V45.3086C187.273 45.3086 191.75 40.8314 191.75 35.3086H181.75ZM181.75 27.4883H191.75C191.75 21.9654 187.273 17.4883 181.75 17.4883V27.4883ZM180.805 27.4883V17.4883C175.282 17.4883 170.805 21.9654 170.805 27.4883H180.805ZM193.996 13.5234H203.996C203.996 8.00059 199.519 3.52344 193.996 3.52344V13.5234ZM193.996 22.1172H183.996C183.996 27.64 188.473 32.1172 193.996 32.1172V22.1172ZM195.113 22.1172V32.1172C200.636 32.1172 205.113 27.64 205.113 22.1172L195.113 22.1172ZM195.113 13.5234V3.52344C189.59 3.52344 185.113 8.00059 185.113 13.5234H195.113ZM200.699 13.5234L210.699 13.5234C210.699 8.00059 206.222 3.52344 200.699 3.52344V13.5234ZM200.699 40.8516V50.8516C206.222 50.8516 210.699 46.3744 210.699 40.8516H200.699ZM188.539 40.8516H178.539C178.539 46.3744 183.016 50.8516 188.539 50.8516V40.8516ZM188.539 13.5234V3.52344C183.016 3.52344 178.539 8.00059 178.539 13.5234H188.539ZM193.996 35.3086H183.996C183.996 40.8314 188.473 45.3086 193.996 45.3086V35.3086ZM195.113 35.3086V45.3086C200.636 45.3086 205.113 40.8314 205.113 35.3086H195.113ZM195.113 27.4883L205.113 27.4883C205.113 21.9654 200.636 17.4883 195.113 17.4883V27.4883ZM193.996 27.4883V17.4883C188.473 17.4883 183.996 21.9654 183.996 27.4883H193.996ZM208.906 10H198.906V24.1797L208.906 24.1797H218.906V10H208.906ZM208.906 24.1797V34.1797H212.043V24.1797V14.1797H208.906V24.1797ZM212.043 24.1797L202.043 24.1797V29.8516H212.043H222.043V24.1797H212.043ZM212.043 29.8516V19.8516H208.906V29.8516V39.8516H212.043V29.8516ZM208.906 29.8516H198.906V49.7461H208.906H218.906V29.8516H208.906ZM208.906 49.7461V39.7461H202.117V49.7461V59.7461H208.906V49.7461ZM202.117 49.7461H212.117V10H202.117H192.117V49.7461H202.117ZM202.117 10V20L208.906 20V10V0H202.117V10ZM180.805 13.5234H170.805V22.1172H180.805H190.805V13.5234H180.805ZM180.805 22.1172V32.1172H181.75V22.1172V12.1172H180.805V22.1172ZM181.75 22.1172H191.75V13.5234H181.75H171.75V22.1172H181.75ZM181.75 13.5234V23.5234H187.293V13.5234V3.52344H181.75V13.5234ZM187.293 13.5234H177.293V40.8516H187.293H197.293V13.5234H187.293ZM187.293 40.8516V30.8516H175.219V40.8516V50.8516H187.293V40.8516ZM175.219 40.8516H185.219V13.5234H175.219H165.219V40.8516H175.219ZM175.219 13.5234V23.5234H180.805V13.5234V3.52344H175.219V13.5234ZM180.805 35.3086V45.3086H181.75V35.3086V25.3086H180.805V35.3086ZM181.75 35.3086H191.75V27.4883H181.75H171.75V35.3086H181.75ZM181.75 27.4883V17.4883H180.805V27.4883V37.4883H181.75V27.4883ZM180.805 27.4883H170.805V35.3086H180.805H190.805V27.4883H180.805ZM193.996 13.5234H183.996V22.1172H193.996H203.996V13.5234H193.996ZM193.996 22.1172V32.1172H195.113V22.1172V12.1172H193.996V22.1172ZM195.113 22.1172L205.113 22.1172V13.5234L195.113 13.5234H185.113V22.1172H195.113ZM195.113 13.5234V23.5234H200.699V13.5234V3.52344H195.113V13.5234ZM200.699 13.5234H190.699V40.8516H200.699H210.699V13.5234L200.699 13.5234ZM200.699 40.8516V30.8516H188.539V40.8516V50.8516H200.699V40.8516ZM188.539 40.8516H198.539V13.5234H188.539H178.539V40.8516H188.539ZM188.539 13.5234V23.5234H193.996V13.5234V3.52344L188.539 3.52344V13.5234ZM193.996 35.3086V45.3086H195.113V35.3086V25.3086H193.996V35.3086ZM195.113 35.3086H205.113V27.4883L195.113 27.4883H185.113V35.3086H195.113ZM195.113 27.4883V17.4883H193.996V27.4883V37.4883H195.113V27.4883ZM193.996 27.4883H183.996V35.3086H193.996H203.996V27.4883H193.996ZM249.555 31.1406H259.555C259.555 25.6178 255.078 21.1406 249.555 21.1406V31.1406ZM249.555 36.6406V46.6406C255.078 46.6406 259.555 42.1635 259.555 36.6406H249.555ZM213.289 36.6406H203.289C203.289 42.1635 207.766 46.6406 213.289 46.6406V36.6406ZM213.289 31.1406V21.1406C207.766 21.1406 203.289 25.6178 203.289 31.1406H213.289ZM246.246 43.6875H256.246C256.246 38.1647 251.769 33.6875 246.246 33.6875V43.6875ZM246.246 49.1875V59.1875C251.769 59.1875 256.246 54.7103 256.246 49.1875H246.246ZM217.715 49.1875H207.715C207.715 54.7103 212.192 59.1875 217.715 59.1875V49.1875ZM217.715 38.2305V28.2305C212.192 28.2305 207.715 32.7076 207.715 38.2305H217.715ZM224.547 38.2305H234.547C234.547 32.7076 230.07 28.2305 224.547 28.2305V38.2305ZM224.547 43.6875H214.547C214.547 49.2103 219.024 53.6875 224.547 53.6875V43.6875ZM245.344 10.6445H255.344C255.344 5.12168 250.867 0.644531 245.344 0.644531V10.6445ZM245.344 22.418V32.418C250.867 32.418 255.344 27.9408 255.344 22.418H245.344ZM224.504 22.418V12.418C218.981 12.418 214.504 16.8951 214.504 22.418H224.504ZM224.504 24.2227H214.504C214.504 29.7455 218.981 34.2227 224.504 34.2227V24.2227ZM245.988 24.2227H255.988C255.988 18.6998 251.511 14.2227 245.988 14.2227V24.2227ZM245.988 29.3359V39.3359C251.511 39.3359 255.988 34.8588 255.988 29.3359H245.988ZM217.672 29.3359H207.672C207.672 34.8588 212.149 39.3359 217.672 39.3359V29.3359ZM217.672 17.5625V7.5625C212.149 7.5625 207.672 12.0397 207.672 17.5625H217.672ZM238.469 17.5625V27.5625C243.992 27.5625 248.469 23.0853 248.469 17.5625H238.469ZM238.469 15.9297H248.469C248.469 10.4068 243.992 5.92969 238.469 5.92969V15.9297ZM217.629 15.9297H207.629C207.629 21.4525 212.106 25.9297 217.629 25.9297V15.9297ZM217.629 10.6445V0.644531C212.106 0.644531 207.629 5.12168 207.629 10.6445H217.629ZM249.555 31.1406H239.555V36.6406H249.555H259.555V31.1406H249.555ZM249.555 36.6406V26.6406H213.289V36.6406V46.6406H249.555V36.6406ZM213.289 36.6406H223.289V31.1406H213.289H203.289V36.6406H213.289ZM213.289 31.1406V41.1406H249.555V31.1406V21.1406H213.289V31.1406ZM246.246 43.6875H236.246V49.1875H246.246H256.246V43.6875H246.246ZM246.246 49.1875V39.1875H217.715V49.1875V59.1875H246.246V49.1875ZM217.715 49.1875H227.715V38.2305H217.715H207.715V49.1875H217.715ZM217.715 38.2305V48.2305H224.547V38.2305V28.2305H217.715V38.2305ZM224.547 38.2305H214.547V43.6875H224.547H234.547V38.2305H224.547ZM224.547 43.6875V53.6875H246.246V43.6875V33.6875H224.547V43.6875ZM245.344 10.6445L235.344 10.6445V22.418H245.344H255.344V10.6445H245.344ZM245.344 22.418V12.418L224.504 12.418V22.418V32.418H245.344V22.418ZM224.504 22.418H214.504V24.2227H224.504H234.504V22.418H224.504ZM224.504 24.2227V34.2227H245.988V24.2227V14.2227H224.504V24.2227ZM245.988 24.2227H235.988V29.3359H245.988H255.988V24.2227H245.988ZM245.988 29.3359V19.3359H217.672V29.3359V39.3359H245.988V29.3359ZM217.672 29.3359H227.672V17.5625H217.672H207.672V29.3359H217.672ZM217.672 17.5625V27.5625H238.469V17.5625V7.5625L217.672 7.5625V17.5625ZM238.469 17.5625H248.469V15.9297H238.469H228.469V17.5625H238.469ZM238.469 15.9297V5.92969L217.629 5.92969V15.9297V25.9297H238.469V15.9297ZM217.629 15.9297H227.629V10.6445H217.629H207.629V15.9297H217.629ZM217.629 10.6445V20.6445H245.344V10.6445V0.644531L217.629 0.644531V10.6445Z" fill="white" mask="url(#path-1-outside-1_6524_1721)"/>
</g>
<defs>
<filter id="filter0_d_6524_1721" x="0" y="0" width="263.555" height="67.875" filterUnits="userSpaceOnUse" color-interpolation-filters="sRGB">
<feFlood flood-opacity="0" result="BackgroundImageFix"/>
<feColorMatrix in="SourceAlpha" type="matrix" values="0 0 0 0 0 0 0 0 0 0 0 0 0 0 0 0 0 0 127 0" result="hardAlpha"/>
<feOffset dy="4"/>
<feGaussianBlur stdDeviation="2"/>
<feComposite in2="hardAlpha" operator="out"/>
<feColorMatrix type="matrix" values="0 0 0 0 0 0 0 0 0 0 0 0 0 0 0 0 0 0 0.07 0"/>
<feBlend mode="normal" in2="BackgroundImageFix" result="effect1_dropShadow_6524_1721"/>
<feBlend mode="normal" in="SourceGraphic" in2="effect1_dropShadow_6524_1721" result="shape"/>
</filter>
</defs>
</svg>
