<svg width="350" height="68" viewBox="0 0 350 68" fill="none" xmlns="http://www.w3.org/2000/svg">
<g filter="url(#filter0_d_6526_5700)">
<mask id="path-1-outside-1_6526_5700" maskUnits="userSpaceOnUse" x="3.66797" y="-0.507813" width="342" height="61" fill="black">
<rect fill="white" x="3.66797" y="-0.507813" width="342" height="61"/>
<path d="M24.8711 11.0312C31.0156 10.9883 35.6992 14.8984 35.6992 20.2695C35.6992 25.5977 31.0156 29.4648 24.8711 29.4648C18.6836 29.4648 13.957 25.5977 14 20.2695C13.957 14.8984 18.6836 10.9883 24.8711 11.0312ZM24.8711 16.5742C22.4219 16.6172 20.6172 17.7773 20.6602 20.2695C20.6172 22.7188 22.4219 23.9648 24.8711 23.9648C27.3203 23.9648 29.0391 22.7188 29.0391 20.2695C29.0391 17.7773 27.3203 16.6172 24.8711 16.5742ZM47.0859 10V29.6367H40.168V10L47.0859 10ZM47.0859 31.0977V42.6562H26.7617V44.0312H47.9453V49.4023H20.0156V37.7148H40.2109V36.3398H19.9297V31.0977H47.0859ZM85.4141 10V33.5898H78.5391V24.8242L73.5547 24.8242V19.2812L78.5391 19.2812V10H85.4141ZM71.5781 34.2344C80.2148 34.2344 85.5 37.1133 85.5 42.0547C85.5 46.9531 80.2148 49.875 71.5781 49.875C63.0273 49.875 57.7422 46.9531 57.7422 42.0547C57.7422 37.1133 63.0273 34.2344 71.5781 34.2344ZM71.5781 39.4336C66.8516 39.4336 64.5742 40.1641 64.6172 42.0547C64.5742 43.9023 66.8516 44.6758 71.5781 44.6758C76.3477 44.6758 78.668 43.9023 78.668 42.0547C78.668 40.1641 76.3477 39.4336 71.5781 39.4336ZM74.6289 12.1055V17.6055H67.4531C67.8613 21.5801 70.1816 25.5762 76.0469 27.4883L72.7383 32.8594C68.4844 31.5488 65.6699 28.9707 63.9297 25.7695C62.2109 29.4219 59.2246 32.3652 54.6484 33.8477L51.082 28.3906C57.4199 26.3711 59.8047 21.8594 60.2344 17.6055H53.0156V12.1055H74.6289ZM121.637 12.793V15.5C121.637 18.3789 121.637 22.332 120.82 27.1016L114.074 26.457C114.633 23.2129 114.805 20.6133 114.891 18.3789H100.797V12.793H121.637ZM111.969 22.2031V29.25C115.643 29.0781 119.402 28.7773 122.883 28.2617L123.227 33.1602C114.977 34.75 105.867 34.8789 99.0781 34.8789L98.4766 29.5078C100.496 29.4863 102.752 29.4863 105.137 29.4219V22.2031H111.969ZM131.734 10V21.6016H135.902V27.3164H131.734V39.6484H124.645V10H131.734ZM132.938 43.6875V49.1875H104.148V37.0273H111.066V43.6875H132.938ZM170.836 10V49.875H163.961V10H170.836ZM158.375 13.1367V29.207H146.387V35.1367C152.059 35.0723 156.721 34.75 161.77 33.8906L162.328 39.4336C156.312 40.5508 150.512 40.7656 142.992 40.7656L139.254 40.7656V23.8359H151.328V18.6367H139.254V13.1367H158.375ZM206.973 10V24.6523H212.043V30.2812H206.973V49.6602H200.055V10H206.973ZM196.145 13.9531C196.102 26.2422 191.891 36.5547 178.312 43.2148L174.402 37.9727C183.254 33.5039 187.938 27.9395 189.141 19.5391H176.895V13.9531H196.145ZM233.613 12.6641C239.801 12.6211 244.355 18.207 244.355 26.9727C244.355 35.8672 239.801 41.4102 233.613 41.4102C227.383 41.4102 222.785 35.8672 222.828 26.9727C222.785 18.207 227.383 12.6211 233.613 12.6641ZM233.613 18.8945C231.121 18.8516 229.488 21.4727 229.531 26.9727C229.488 32.5586 231.121 35.0937 233.613 35.0937C236.148 35.0937 237.738 32.5586 237.781 26.9727C237.738 21.4727 236.148 18.8516 233.613 18.8945ZM254.582 10V24.4375H259.953V30.1523H254.582V49.7461H247.664V10H254.582ZM277.613 13.4375C277.57 17.3477 279.676 21.0859 286.68 22.5469L283.629 27.918C278.924 26.8652 275.852 24.6523 274.047 21.6875C272.221 24.9316 269.084 27.4238 264.25 28.5625L261.07 23.2344C268.203 21.6875 270.395 17.4766 270.395 13.4375V11.5898H277.613V13.4375ZM294.844 10.0859V49.7031H287.969V10.0859H294.844ZM261.113 30.3672C267.988 30.4102 277.699 30.3242 285.906 29.1211L286.379 34.0195C283.457 34.6211 280.449 35.0508 277.484 35.3086V48.5859H270.566V35.7812C267.451 35.8887 264.508 35.9102 261.93 35.9102L261.113 30.3672ZM335.191 28.8633V34.2344H320.883V40.3789H313.879V34.2344H298.926V28.8633H335.191ZM331.238 43.6875V49.1875H302.965V37.1133H309.926V43.6875H331.238ZM317.059 10.6445C325.738 10.6445 331.625 13.9102 331.625 19.0664C331.625 24.1797 325.738 27.4023 317.059 27.4023C308.293 27.4023 302.406 24.1797 302.406 19.0664C302.406 13.9102 308.293 10.6445 317.059 10.6445ZM317.059 16.0156C312.59 16.0156 309.84 16.918 309.883 19.0664C309.84 21.043 312.59 21.9023 317.059 21.9453C321.484 21.9023 324.191 21.043 324.191 19.0664C324.191 16.918 321.484 16.0156 317.059 16.0156Z"/>
</mask>
<path d="M24.8711 11.0312C31.0156 10.9883 35.6992 14.8984 35.6992 20.2695C35.6992 25.5977 31.0156 29.4648 24.8711 29.4648C18.6836 29.4648 13.957 25.5977 14 20.2695C13.957 14.8984 18.6836 10.9883 24.8711 11.0312ZM24.8711 16.5742C22.4219 16.6172 20.6172 17.7773 20.6602 20.2695C20.6172 22.7188 22.4219 23.9648 24.8711 23.9648C27.3203 23.9648 29.0391 22.7188 29.0391 20.2695C29.0391 17.7773 27.3203 16.6172 24.8711 16.5742ZM47.0859 10V29.6367H40.168V10L47.0859 10ZM47.0859 31.0977V42.6562H26.7617V44.0312H47.9453V49.4023H20.0156V37.7148H40.2109V36.3398H19.9297V31.0977H47.0859ZM85.4141 10V33.5898H78.5391V24.8242L73.5547 24.8242V19.2812L78.5391 19.2812V10H85.4141ZM71.5781 34.2344C80.2148 34.2344 85.5 37.1133 85.5 42.0547C85.5 46.9531 80.2148 49.875 71.5781 49.875C63.0273 49.875 57.7422 46.9531 57.7422 42.0547C57.7422 37.1133 63.0273 34.2344 71.5781 34.2344ZM71.5781 39.4336C66.8516 39.4336 64.5742 40.1641 64.6172 42.0547C64.5742 43.9023 66.8516 44.6758 71.5781 44.6758C76.3477 44.6758 78.668 43.9023 78.668 42.0547C78.668 40.1641 76.3477 39.4336 71.5781 39.4336ZM74.6289 12.1055V17.6055H67.4531C67.8613 21.5801 70.1816 25.5762 76.0469 27.4883L72.7383 32.8594C68.4844 31.5488 65.6699 28.9707 63.9297 25.7695C62.2109 29.4219 59.2246 32.3652 54.6484 33.8477L51.082 28.3906C57.4199 26.3711 59.8047 21.8594 60.2344 17.6055H53.0156V12.1055H74.6289ZM121.637 12.793V15.5C121.637 18.3789 121.637 22.332 120.82 27.1016L114.074 26.457C114.633 23.2129 114.805 20.6133 114.891 18.3789H100.797V12.793H121.637ZM111.969 22.2031V29.25C115.643 29.0781 119.402 28.7773 122.883 28.2617L123.227 33.1602C114.977 34.75 105.867 34.8789 99.0781 34.8789L98.4766 29.5078C100.496 29.4863 102.752 29.4863 105.137 29.4219V22.2031H111.969ZM131.734 10V21.6016H135.902V27.3164H131.734V39.6484H124.645V10H131.734ZM132.938 43.6875V49.1875H104.148V37.0273H111.066V43.6875H132.938ZM170.836 10V49.875H163.961V10H170.836ZM158.375 13.1367V29.207H146.387V35.1367C152.059 35.0723 156.721 34.75 161.77 33.8906L162.328 39.4336C156.312 40.5508 150.512 40.7656 142.992 40.7656L139.254 40.7656V23.8359H151.328V18.6367H139.254V13.1367H158.375ZM206.973 10V24.6523H212.043V30.2812H206.973V49.6602H200.055V10H206.973ZM196.145 13.9531C196.102 26.2422 191.891 36.5547 178.312 43.2148L174.402 37.9727C183.254 33.5039 187.938 27.9395 189.141 19.5391H176.895V13.9531H196.145ZM233.613 12.6641C239.801 12.6211 244.355 18.207 244.355 26.9727C244.355 35.8672 239.801 41.4102 233.613 41.4102C227.383 41.4102 222.785 35.8672 222.828 26.9727C222.785 18.207 227.383 12.6211 233.613 12.6641ZM233.613 18.8945C231.121 18.8516 229.488 21.4727 229.531 26.9727C229.488 32.5586 231.121 35.0937 233.613 35.0937C236.148 35.0937 237.738 32.5586 237.781 26.9727C237.738 21.4727 236.148 18.8516 233.613 18.8945ZM254.582 10V24.4375H259.953V30.1523H254.582V49.7461H247.664V10H254.582ZM277.613 13.4375C277.57 17.3477 279.676 21.0859 286.68 22.5469L283.629 27.918C278.924 26.8652 275.852 24.6523 274.047 21.6875C272.221 24.9316 269.084 27.4238 264.25 28.5625L261.07 23.2344C268.203 21.6875 270.395 17.4766 270.395 13.4375V11.5898H277.613V13.4375ZM294.844 10.0859V49.7031H287.969V10.0859H294.844ZM261.113 30.3672C267.988 30.4102 277.699 30.3242 285.906 29.1211L286.379 34.0195C283.457 34.6211 280.449 35.0508 277.484 35.3086V48.5859H270.566V35.7812C267.451 35.8887 264.508 35.9102 261.93 35.9102L261.113 30.3672ZM335.191 28.8633V34.2344H320.883V40.3789H313.879V34.2344H298.926V28.8633H335.191ZM331.238 43.6875V49.1875H302.965V37.1133H309.926V43.6875H331.238ZM317.059 10.6445C325.738 10.6445 331.625 13.9102 331.625 19.0664C331.625 24.1797 325.738 27.4023 317.059 27.4023C308.293 27.4023 302.406 24.1797 302.406 19.0664C302.406 13.9102 308.293 10.6445 317.059 10.6445ZM317.059 16.0156C312.59 16.0156 309.84 16.918 309.883 19.0664C309.84 21.043 312.59 21.9023 317.059 21.9453C321.484 21.9023 324.191 21.043 324.191 19.0664C324.191 16.918 321.484 16.0156 317.059 16.0156Z" fill="#11DCA9"/>
<path d="M24.8711 11.0312L24.8017 21.031C24.8481 21.0313 24.8946 21.0313 24.941 21.031L24.8711 11.0312ZM14 20.2695L23.9997 20.3502C24.0001 20.2966 24.0001 20.2431 23.9997 20.1895L14 20.2695ZM24.8711 16.5742L25.0465 6.57576C24.9296 6.57371 24.8126 6.57371 24.6957 6.57576L24.8711 16.5742ZM20.6602 20.2695L30.6586 20.4449C30.6607 20.329 30.6607 20.2131 30.6587 20.0971L20.6602 20.2695ZM47.0859 10H57.0859C57.0859 4.47715 52.6088 0 47.0859 0V10ZM47.0859 29.6367V39.6367C52.6088 39.6367 57.0859 35.1596 57.0859 29.6367H47.0859ZM40.168 29.6367H30.168C30.168 35.1596 34.6451 39.6367 40.168 39.6367V29.6367ZM40.168 10V0C34.6451 0 30.168 4.47715 30.168 10H40.168ZM47.0859 31.0977H57.0859C57.0859 25.5748 52.6088 21.0977 47.0859 21.0977V31.0977ZM47.0859 42.6562V52.6562C52.6088 52.6562 57.0859 48.1791 57.0859 42.6562H47.0859ZM26.7617 42.6562V32.6562C21.2389 32.6562 16.7617 37.1334 16.7617 42.6562H26.7617ZM26.7617 44.0312H16.7617C16.7617 49.5541 21.2389 54.0312 26.7617 54.0312V44.0312ZM47.9453 44.0312H57.9453C57.9453 38.5084 53.4682 34.0312 47.9453 34.0312V44.0312ZM47.9453 49.4023V59.4023C53.4682 59.4023 57.9453 54.9252 57.9453 49.4023H47.9453ZM20.0156 49.4023H10.0156C10.0156 54.9252 14.4928 59.4023 20.0156 59.4023V49.4023ZM20.0156 37.7148V27.7148C14.4928 27.7148 10.0156 32.192 10.0156 37.7148H20.0156ZM40.2109 37.7148V47.7148C45.7338 47.7148 50.2109 43.2377 50.2109 37.7148H40.2109ZM40.2109 36.3398H50.2109C50.2109 30.817 45.7338 26.3398 40.2109 26.3398V36.3398ZM19.9297 36.3398H9.92969C9.92969 41.8627 14.4068 46.3398 19.9297 46.3398V36.3398ZM19.9297 31.0977V21.0977C14.4068 21.0977 9.92969 25.5748 9.92969 31.0977H19.9297ZM24.8711 11.0312L24.941 21.031C25.9038 21.0243 26.2139 21.3252 26.1233 21.2484C26.0742 21.2068 25.9528 21.0839 25.8465 20.8612C25.7352 20.628 25.6992 20.4069 25.6992 20.2695H35.6992H45.6992C45.6992 7.91744 34.9484 0.960535 24.8012 1.03149L24.8711 11.0312ZM35.6992 20.2695H25.6992C25.6992 20.108 25.7412 19.8657 25.8607 19.6174C25.9746 19.3806 26.1025 19.2545 26.148 19.2161C26.2266 19.1499 25.8829 19.4648 24.8711 19.4648V29.4648V39.4648C34.8592 39.4648 45.6992 32.662 45.6992 20.2695H35.6992ZM24.8711 29.4648V19.4648C23.816 19.4648 23.4459 19.1369 23.5196 19.1986C23.565 19.2366 23.7024 19.3701 23.8253 19.6263C23.9545 19.8954 24.0012 20.1632 23.9997 20.3502L14 20.2695L4.00033 20.1889C3.89914 32.7355 14.9533 39.4648 24.8711 39.4648V29.4648ZM14 20.2695L23.9997 20.1895C24.001 20.352 23.9603 20.5985 23.8395 20.8524C23.7242 21.0944 23.5934 21.2247 23.5444 21.266C23.4585 21.3383 23.7952 21.024 24.8017 21.031L24.8711 11.0312L24.9405 1.03149C14.8631 0.961509 3.90027 7.84291 4.00032 20.3495L14 20.2695ZM24.8711 16.5742L24.6957 6.57576C22.1172 6.62099 18.6079 7.25397 15.5503 9.72192C12.124 12.4874 10.5934 16.4849 10.6616 20.4419L20.6602 20.2695L30.6587 20.0971C30.6691 20.7039 30.5698 21.6214 30.1156 22.6585C29.6508 23.7198 28.9392 24.6171 28.1118 25.2849C26.5581 26.539 25.1758 26.5704 25.0465 26.5727L24.8711 16.5742ZM20.6602 20.2695L10.6617 20.0941C10.5922 24.0535 12.136 28.013 15.4837 30.7629C18.5354 33.2697 22.0922 33.9648 24.8711 33.9648V23.9648V13.9648C25.2008 13.9648 26.6307 14.037 28.1784 15.3084C30.0222 16.8229 30.6851 18.9348 30.6586 20.4449L20.6602 20.2695ZM24.8711 23.9648V33.9648C27.6653 33.9648 31.2459 33.2609 34.3028 30.6949C37.6102 27.9187 39.0391 24.0222 39.0391 20.2695H29.0391H19.0391C19.0391 18.966 19.6086 16.9173 21.4442 15.3764C23.0295 14.0457 24.5261 13.9648 24.8711 13.9648V23.9648ZM29.0391 20.2695H39.0391C39.0391 16.5168 37.621 12.5806 34.2365 9.78899C31.1732 7.26229 27.6397 6.62125 25.0465 6.57576L24.8711 16.5742L24.6957 26.5727C24.5517 26.5702 23.1022 26.5307 21.5105 25.2178C20.6756 24.5292 19.9953 23.6346 19.5575 22.6247C19.1327 21.6451 19.0391 20.799 19.0391 20.2695H29.0391ZM47.0859 10L37.0859 10V29.6367H47.0859H57.0859V10H47.0859ZM47.0859 29.6367V19.6367H40.168V29.6367V39.6367H47.0859V29.6367ZM40.168 29.6367H50.168V10L40.168 10H30.168V29.6367H40.168ZM40.168 10V20H47.0859V10V0H40.168V10ZM47.0859 31.0977H37.0859V42.6562H47.0859H57.0859V31.0977H47.0859ZM47.0859 42.6562V32.6562H26.7617V42.6562V52.6562H47.0859V42.6562ZM26.7617 42.6562H16.7617V44.0312H26.7617H36.7617V42.6562H26.7617ZM26.7617 44.0312V54.0312H47.9453V44.0312V34.0312H26.7617V44.0312ZM47.9453 44.0312H37.9453V49.4023H47.9453H57.9453V44.0312H47.9453ZM47.9453 49.4023V39.4023H20.0156V49.4023V59.4023H47.9453V49.4023ZM20.0156 49.4023H30.0156V37.7148H20.0156H10.0156V49.4023H20.0156ZM20.0156 37.7148V47.7148H40.2109V37.7148V27.7148H20.0156V37.7148ZM40.2109 37.7148H50.2109V36.3398H40.2109H30.2109V37.7148H40.2109ZM40.2109 36.3398V26.3398H19.9297V36.3398V46.3398H40.2109V36.3398ZM19.9297 36.3398H29.9297V31.0977H19.9297H9.92969V36.3398H19.9297ZM19.9297 31.0977V41.0977H47.0859V31.0977V21.0977H19.9297V31.0977ZM85.4141 10H95.4141C95.4141 4.47715 90.9369 0 85.4141 0V10ZM85.4141 33.5898V43.5898C90.9369 43.5898 95.4141 39.1127 95.4141 33.5898H85.4141ZM78.5391 33.5898H68.5391C68.5391 39.1127 73.0162 43.5898 78.5391 43.5898V33.5898ZM78.5391 24.8242H88.5391C88.5391 19.3014 84.0619 14.8242 78.5391 14.8242V24.8242ZM73.5547 24.8242H63.5547C63.5547 30.3471 68.0318 34.8242 73.5547 34.8242V24.8242ZM73.5547 19.2812V9.28125C68.0318 9.28125 63.5547 13.7584 63.5547 19.2812H73.5547ZM78.5391 19.2812V29.2812C84.0619 29.2812 88.5391 24.8041 88.5391 19.2812H78.5391ZM78.5391 10V0C73.0162 0 68.5391 4.47715 68.5391 10H78.5391ZM64.6172 42.0547L74.6145 42.2872C74.618 42.134 74.6181 41.9807 74.6146 41.8275L64.6172 42.0547ZM74.6289 12.1055H84.6289C84.6289 6.58262 80.1518 2.10547 74.6289 2.10547V12.1055ZM74.6289 17.6055V27.6055C80.1518 27.6055 84.6289 23.1283 84.6289 17.6055L74.6289 17.6055ZM67.4531 17.6055V7.60547C64.6232 7.60547 61.9257 8.80453 60.0296 10.9053C58.1335 13.0062 57.2163 15.812 57.5055 18.6271L67.4531 17.6055ZM76.0469 27.4883L84.5611 32.7331C86.1688 30.1232 86.4907 26.9202 85.4345 24.0426C84.3783 21.1651 82.0607 18.9308 79.1464 17.9808L76.0469 27.4883ZM72.7383 32.8594L69.794 42.4161C74.1499 43.7581 78.862 41.9848 81.2525 38.1041L72.7383 32.8594ZM63.9297 25.7695L72.7154 20.9934C70.9153 17.6822 67.4065 15.6643 63.6393 15.7738C59.872 15.8832 56.4863 18.1014 54.8815 21.5116L63.9297 25.7695ZM54.6484 33.8477L46.2776 39.3184C48.746 43.0953 53.4378 44.7514 57.7302 43.3609L54.6484 33.8477ZM51.082 28.3906L48.046 18.8626C45.0695 19.8111 42.7072 22.0961 41.6603 25.0394C40.6134 27.9828 41.0021 31.2463 42.7112 33.8613L51.082 28.3906ZM60.2344 17.6055L70.1837 18.6105C70.4679 15.7977 69.5482 12.9962 67.6523 10.8991C65.7564 8.80207 63.0614 7.60547 60.2344 7.60547V17.6055ZM53.0156 17.6055H43.0156C43.0156 23.1283 47.4928 27.6055 53.0156 27.6055V17.6055ZM53.0156 12.1055V2.10547C47.4928 2.10547 43.0156 6.58262 43.0156 12.1055L53.0156 12.1055ZM85.4141 10H75.4141V33.5898H85.4141H95.4141V10H85.4141ZM85.4141 33.5898V23.5898H78.5391V33.5898V43.5898H85.4141V33.5898ZM78.5391 33.5898H88.5391V24.8242H78.5391L68.5391 24.8242V33.5898H78.5391ZM78.5391 24.8242V14.8242L73.5547 14.8242V24.8242V34.8242H78.5391V24.8242ZM73.5547 24.8242L83.5547 24.8242V19.2812L73.5547 19.2812H63.5547V24.8242H73.5547ZM73.5547 19.2812V29.2812H78.5391V19.2812V9.28125H73.5547V19.2812ZM78.5391 19.2812H88.5391V10H78.5391H68.5391V19.2812L78.5391 19.2812ZM78.5391 10V20H85.4141V10V0L78.5391 0V10ZM71.5781 34.2344V44.2344C73.2007 44.2344 74.4699 44.3712 75.4078 44.5616C76.3632 44.7555 76.8106 44.9714 76.9115 45.0275C76.9953 45.0742 76.594 44.8702 76.168 44.2182C75.6996 43.5014 75.5 42.6952 75.5 42.0547H85.5H95.5C95.5 35.2516 91.5465 30.2863 86.6442 27.5555C82.1747 25.0657 76.7813 24.2344 71.5781 24.2344V34.2344ZM85.5 42.0547H75.5C75.5 41.3866 75.7087 40.5745 76.1733 39.865C76.5949 39.2211 76.9876 39.0231 76.8966 39.074C76.7905 39.1333 76.3404 39.3506 75.3893 39.5455C74.4553 39.737 73.1919 39.875 71.5781 39.875V49.875V59.875C76.8043 59.875 82.196 59.0256 86.6591 56.5295C91.5276 53.8066 95.5 48.8554 95.5 42.0547H85.5ZM71.5781 49.875V39.875C69.9917 39.875 68.7488 39.7379 67.8303 39.5484C66.895 39.3553 66.4534 39.1406 66.3516 39.0834C66.2644 39.0344 66.6546 39.2329 67.0729 39.8732C67.5339 40.5786 67.7422 41.387 67.7422 42.0547H57.7422H47.7422C47.7422 48.8478 51.7059 53.7955 56.5557 56.5201C61.0076 59.0212 66.381 59.875 71.5781 59.875V49.875ZM57.7422 42.0547H67.7422C67.7422 42.6948 67.5429 43.4973 67.0782 44.2101C66.6554 44.8584 66.2567 45.063 66.3367 45.0182C66.4333 44.9642 66.8721 44.7509 67.8118 44.5588C68.7341 44.3702 69.9828 44.2344 71.5781 44.2344V34.2344V24.2344C66.4041 24.2344 61.0291 25.07 56.5706 27.5648C51.687 30.2974 47.7422 35.2592 47.7422 42.0547H57.7422ZM71.5781 39.4336V29.4336C69.0526 29.4336 65.8024 29.5812 62.8987 30.6347C61.3412 31.1997 59.1647 32.2766 57.3701 34.4095C55.3893 36.7637 54.5586 39.5902 54.6198 42.2819L64.6172 42.0547L74.6146 41.8275C74.6543 43.5739 74.0921 45.6 72.6739 47.2856C71.442 48.7498 70.1222 49.2896 69.7195 49.4356C69.2876 49.5923 69.1651 49.5641 69.6006 49.5155C69.9924 49.4717 70.6272 49.4336 71.5781 49.4336V39.4336ZM64.6172 42.0547L54.6199 41.8222C54.5562 44.5629 55.4235 47.3821 57.3893 49.7045C59.1667 51.8043 61.3141 52.8764 62.8601 53.4445C65.7619 54.5107 69.006 54.6758 71.5781 54.6758V44.6758V34.6758C70.6437 34.6758 70.0197 34.6362 69.6381 34.5921C69.2147 34.5432 69.3337 34.5158 69.758 34.6717C70.1493 34.8155 71.44 35.3478 72.6547 36.7829C74.058 38.4407 74.6567 40.4703 74.6145 42.2872L64.6172 42.0547ZM71.5781 44.6758V54.6758C74.1787 54.6758 77.4124 54.5082 80.3049 53.4648C81.8403 52.9109 83.9601 51.8732 85.7425 49.8449C87.7155 47.5998 88.668 44.8269 88.668 42.0547H78.668H68.668C68.668 40.2063 69.3304 38.2229 70.7192 36.6426C71.9176 35.2789 73.1592 34.781 73.5183 34.6514C73.9123 34.5093 74.003 34.5405 73.5641 34.5906C73.1649 34.6361 72.525 34.6758 71.5781 34.6758V44.6758ZM78.668 42.0547H88.668C88.668 39.3294 87.7522 36.547 85.7623 34.2689C83.9619 32.2078 81.8131 31.1656 80.2668 30.6148C77.3723 29.5839 74.1326 29.4336 71.5781 29.4336V39.4336V49.4336C72.5413 49.4336 73.192 49.4718 73.6012 49.5169C74.052 49.5667 73.9579 49.5985 73.5564 49.4555C73.1864 49.3237 71.9158 48.8186 70.6995 47.4262C69.2937 45.8167 68.668 43.8347 68.668 42.0547H78.668ZM74.6289 12.1055H64.6289V17.6055H74.6289L84.6289 17.6055V12.1055H74.6289ZM74.6289 17.6055V7.60547H67.4531V17.6055V27.6055H74.6289V17.6055ZM67.4531 17.6055L57.5055 18.6271C58.297 26.334 63.1333 33.7964 72.9474 36.9958L76.0469 27.4883L79.1464 17.9808C78.4745 17.7617 78.0797 17.541 77.8696 17.3996C77.6656 17.2624 77.587 17.1678 77.5643 17.1389C77.5419 17.1105 77.4421 16.9857 77.4008 16.5838L67.4531 17.6055ZM76.0469 27.4883L67.5326 22.2435L64.224 27.6146L72.7383 32.8594L81.2525 38.1041L84.5611 32.7331L76.0469 27.4883ZM72.7383 32.8594L75.6825 23.3026C74.754 23.0166 74.1734 22.6575 73.7862 22.3354C73.3924 22.0078 73.0353 21.5818 72.7154 20.9934L63.9297 25.7695L55.144 30.5457C58.0767 35.9405 62.9346 40.3029 69.794 42.4161L72.7383 32.8594ZM63.9297 25.7695L54.8815 21.5116C54.2782 22.7935 53.3788 23.7473 51.5667 24.3344L54.6484 33.8477L57.7302 43.3609C65.0704 40.9831 70.1436 36.0503 72.9779 30.0275L63.9297 25.7695ZM54.6484 33.8477L63.0193 28.3769L59.4529 22.9199L51.082 28.3906L42.7112 33.8613L46.2776 39.3184L54.6484 33.8477ZM51.082 28.3906L54.1181 37.9186C64.7747 34.523 69.4117 26.2539 70.1837 18.6105L60.2344 17.6055L50.285 16.6005C50.2185 17.2589 50.0352 17.6219 49.89 17.8144C49.8002 17.9335 49.4168 18.4258 48.046 18.8626L51.082 28.3906ZM60.2344 17.6055V7.60547H53.0156V17.6055V27.6055H60.2344V17.6055ZM53.0156 17.6055H63.0156V12.1055H53.0156L43.0156 12.1055V17.6055H53.0156ZM53.0156 12.1055V22.1055H74.6289V12.1055V2.10547L53.0156 2.10547V12.1055ZM121.637 12.793H131.637C131.637 7.27012 127.16 2.79297 121.637 2.79297V12.793ZM120.82 27.1016L119.869 37.0562C125.08 37.5541 129.794 33.9487 130.677 28.7887L120.82 27.1016ZM114.074 26.457L104.219 24.7601C103.747 27.5026 104.439 30.3178 106.129 32.5289C107.818 34.74 110.353 36.147 113.123 36.4117L114.074 26.457ZM114.891 18.3789L124.883 18.7632C124.988 16.0464 123.981 13.4042 122.096 11.4451C120.211 9.48595 117.609 8.37891 114.891 8.37891V18.3789ZM100.797 18.3789H90.7969C90.7969 23.9018 95.274 28.3789 100.797 28.3789V18.3789ZM100.797 12.793V2.79297C95.274 2.79297 90.7969 7.27012 90.7969 12.793H100.797ZM111.969 22.2031H121.969C121.969 16.6803 117.492 12.2031 111.969 12.2031V22.2031ZM111.969 29.25H101.969C101.969 31.9833 103.088 34.5974 105.065 36.4844C107.042 38.3714 109.706 39.3668 112.436 39.2391L111.969 29.25ZM122.883 28.2617L132.858 27.5617C132.663 24.7827 131.318 22.2109 129.146 20.4661C126.974 18.7212 124.173 17.9614 121.417 18.3697L122.883 28.2617ZM123.227 33.1602L125.119 42.9795C130.086 42.0223 133.556 37.5063 133.202 32.4601L123.227 33.1602ZM99.0781 34.8789L89.1403 35.9919C89.707 41.0524 93.986 44.8789 99.0781 44.8789V34.8789ZM98.4766 29.5078L98.3702 19.5084C95.5429 19.5385 92.8605 20.764 90.987 22.8816C89.1135 24.9992 88.224 27.811 88.5387 30.6209L98.4766 29.5078ZM105.137 29.4219L105.407 39.4182C110.823 39.2719 115.137 34.8395 115.137 29.4219H105.137ZM105.137 22.2031V12.2031C99.6139 12.2031 95.1367 16.6803 95.1367 22.2031H105.137ZM131.734 10H141.734C141.734 4.47715 137.257 0 131.734 0V10ZM131.734 21.6016H121.734C121.734 27.1244 126.212 31.6016 131.734 31.6016V21.6016ZM135.902 21.6016H145.902C145.902 16.0787 141.425 11.6016 135.902 11.6016V21.6016ZM135.902 27.3164V37.3164C141.425 37.3164 145.902 32.8393 145.902 27.3164H135.902ZM131.734 27.3164V17.3164C126.212 17.3164 121.734 21.7936 121.734 27.3164H131.734ZM131.734 39.6484V49.6484C137.257 49.6484 141.734 45.1713 141.734 39.6484L131.734 39.6484ZM124.645 39.6484H114.645C114.645 45.1713 119.122 49.6484 124.645 49.6484V39.6484ZM124.645 10V0C119.122 0 114.645 4.47715 114.645 10H124.645ZM132.938 43.6875L142.938 43.6875C142.938 38.1647 138.46 33.6875 132.938 33.6875V43.6875ZM132.938 49.1875V59.1875C138.46 59.1875 142.938 54.7103 142.938 49.1875L132.938 49.1875ZM104.148 49.1875H94.1484C94.1484 54.7103 98.6256 59.1875 104.148 59.1875V49.1875ZM104.148 37.0273V27.0273C98.6256 27.0273 94.1484 31.5045 94.1484 37.0273H104.148ZM111.066 37.0273H121.066C121.066 31.5045 116.589 27.0273 111.066 27.0273V37.0273ZM111.066 43.6875H101.066C101.066 49.2103 105.544 53.6875 111.066 53.6875V43.6875ZM121.637 12.793H111.637V15.5H121.637H131.637V12.793H121.637ZM121.637 15.5H111.637C111.637 18.3282 111.626 21.5474 110.964 25.4144L120.82 27.1016L130.677 28.7887C131.648 23.1167 131.637 18.4296 131.637 15.5H121.637ZM120.82 27.1016L121.771 17.1469L115.025 16.5024L114.074 26.457L113.123 36.4117L119.869 37.0562L120.82 27.1016ZM114.074 26.457L123.929 28.1539C124.588 24.3301 124.787 21.26 124.883 18.7632L114.891 18.3789L104.898 17.9946C104.822 19.9666 104.678 22.0957 104.219 24.7601L114.074 26.457ZM114.891 18.3789V8.37891L100.797 8.37891V18.3789V28.3789H114.891V18.3789ZM100.797 18.3789H110.797V12.793H100.797H90.7969V18.3789H100.797ZM100.797 12.793V22.793H121.637V12.793V2.79297H100.797V12.793ZM111.969 22.2031H101.969V29.25H111.969H121.969V22.2031H111.969ZM111.969 29.25L112.436 39.2391C116.309 39.0579 120.426 38.7349 124.348 38.1538L122.883 28.2617L121.417 18.3697C118.379 18.8198 114.976 19.0984 111.501 19.2609L111.969 29.25ZM122.883 28.2617L112.907 28.9618L113.251 33.8602L123.227 33.1602L133.202 32.4601L132.858 27.5617L122.883 28.2617ZM123.227 33.1602L121.334 23.3408C114.121 24.7308 105.874 24.8789 99.0781 24.8789V34.8789V44.8789C105.86 44.8789 115.832 44.7692 125.119 42.9795L123.227 33.1602ZM99.0781 34.8789L109.016 33.7659L108.414 28.3948L98.4766 29.5078L88.5387 30.6209L89.1403 35.9919L99.0781 34.8789ZM98.4766 29.5078L98.5829 39.5072C100.466 39.4872 102.914 39.4856 105.407 39.4182L105.137 29.4219L104.867 19.4255C102.59 19.487 100.526 19.4854 98.3702 19.5084L98.4766 29.5078ZM105.137 29.4219H115.137V22.2031H105.137H95.1367V29.4219H105.137ZM105.137 22.2031V32.2031H111.969V22.2031V12.2031L105.137 12.2031V22.2031ZM131.734 10H121.734V21.6016H131.734H141.734V10H131.734ZM131.734 21.6016V31.6016H135.902V21.6016V11.6016H131.734V21.6016ZM135.902 21.6016H125.902V27.3164H135.902H145.902V21.6016H135.902ZM135.902 27.3164V17.3164H131.734V27.3164V37.3164H135.902V27.3164ZM131.734 27.3164H121.734V39.6484H131.734L141.734 39.6484V27.3164H131.734ZM131.734 39.6484V29.6484H124.645V39.6484V49.6484H131.734V39.6484ZM124.645 39.6484H134.645V10H124.645H114.645V39.6484H124.645ZM124.645 10V20H131.734V10V0H124.645V10ZM132.938 43.6875H122.938V49.1875H132.938L142.938 49.1875V43.6875L132.938 43.6875ZM132.938 49.1875V39.1875H104.148V49.1875V59.1875H132.938V49.1875ZM104.148 49.1875H114.148V37.0273H104.148H94.1484V49.1875H104.148ZM104.148 37.0273V47.0273H111.066V37.0273V27.0273H104.148V37.0273ZM111.066 37.0273H101.066V43.6875H111.066H121.066V37.0273H111.066ZM111.066 43.6875V53.6875H132.938V43.6875V33.6875H111.066V43.6875ZM170.836 10L180.836 10C180.836 4.47715 176.359 0 170.836 0V10ZM170.836 49.875V59.875C176.359 59.875 180.836 55.3978 180.836 49.875H170.836ZM163.961 49.875H153.961C153.961 55.3978 158.438 59.875 163.961 59.875V49.875ZM163.961 10V0C158.438 0 153.961 4.47715 153.961 10H163.961ZM158.375 13.1367H168.375C168.375 7.61387 163.898 3.13672 158.375 3.13672V13.1367ZM158.375 29.207V39.207C163.898 39.207 168.375 34.7299 168.375 29.207H158.375ZM146.387 29.207V19.207C140.864 19.207 136.387 23.6842 136.387 29.207L146.387 29.207ZM146.387 35.1367L136.387 35.1367C136.387 37.8086 137.456 40.3693 139.356 42.2478C141.256 44.1264 143.829 45.1664 146.5 45.1361L146.387 35.1367ZM161.77 33.8906L171.719 32.888C171.441 30.1315 170.032 27.6137 167.828 25.9351C165.624 24.2565 162.823 23.5675 160.092 24.0324L161.77 33.8906ZM162.328 39.4336L164.154 49.2655C169.267 48.3159 172.799 43.6054 172.278 38.4309L162.328 39.4336ZM139.254 40.7656H129.254C129.254 46.2885 133.731 50.7656 139.254 50.7656V40.7656ZM139.254 23.8359V13.8359C133.731 13.8359 129.254 18.3131 129.254 23.8359H139.254ZM151.328 23.8359V33.8359C156.851 33.8359 161.328 29.3588 161.328 23.8359H151.328ZM151.328 18.6367H161.328C161.328 13.1139 156.851 8.63672 151.328 8.63672V18.6367ZM139.254 18.6367H129.254C129.254 24.1596 133.731 28.6367 139.254 28.6367V18.6367ZM139.254 13.1367V3.13672C133.731 3.13672 129.254 7.61387 129.254 13.1367H139.254ZM170.836 10H160.836V49.875H170.836H180.836V10L170.836 10ZM170.836 49.875V39.875H163.961V49.875V59.875H170.836V49.875ZM163.961 49.875H173.961V10L163.961 10H153.961V49.875H163.961ZM163.961 10V20H170.836V10V0L163.961 0V10ZM158.375 13.1367H148.375V29.207H158.375H168.375V13.1367H158.375ZM158.375 29.207V19.207H146.387V29.207V39.207H158.375V29.207ZM146.387 29.207L136.387 29.207V35.1367L146.387 35.1367H156.387V29.207H146.387ZM146.387 35.1367L146.5 45.1361C152.525 45.0676 157.737 44.7209 163.448 43.7488L161.77 33.8906L160.092 24.0324C155.705 24.7791 151.592 25.0769 146.273 25.1374L146.387 35.1367ZM161.77 33.8906L151.82 34.8933L152.379 40.4363L162.328 39.4336L172.278 38.4309L171.719 32.888L161.77 33.8906ZM162.328 39.4336L160.502 29.6017C155.422 30.5451 150.373 30.7656 142.992 30.7656V40.7656V50.7656C150.651 50.7656 157.203 50.5565 164.154 49.2655L162.328 39.4336ZM142.992 40.7656V30.7656L139.254 30.7656V40.7656V50.7656L142.992 50.7656V40.7656ZM139.254 40.7656L149.254 40.7656V23.8359H139.254H129.254V40.7656H139.254ZM139.254 23.8359V33.8359L151.328 33.8359V23.8359V13.8359H139.254V23.8359ZM151.328 23.8359H161.328V18.6367H151.328H141.328V23.8359H151.328ZM151.328 18.6367V8.63672H139.254V18.6367V28.6367L151.328 28.6367V18.6367ZM139.254 18.6367H149.254V13.1367H139.254H129.254V18.6367H139.254ZM139.254 13.1367V23.1367H158.375V13.1367V3.13672L139.254 3.13672V13.1367ZM206.973 10H216.973C216.973 4.47715 212.495 0 206.973 0V10ZM206.973 24.6523L196.973 24.6523C196.973 30.1752 201.45 34.6523 206.973 34.6523V24.6523ZM212.043 24.6523H222.043C222.043 19.1295 217.566 14.6523 212.043 14.6523V24.6523ZM212.043 30.2812V40.2812C217.566 40.2812 222.043 35.8041 222.043 30.2812H212.043ZM206.973 30.2812V20.2812C201.45 20.2812 196.973 24.7584 196.973 30.2812H206.973ZM206.973 49.6602V59.6602C212.495 59.6602 216.973 55.183 216.973 49.6602H206.973ZM200.055 49.6602H190.055C190.055 55.183 194.532 59.6602 200.055 59.6602V49.6602ZM200.055 10V0C194.532 0 190.055 4.47715 190.055 10H200.055ZM196.145 13.9531L206.144 13.9881C206.154 11.3299 205.104 8.77736 203.228 6.89443C201.352 5.0115 198.803 3.95312 196.145 3.95312V13.9531ZM178.312 43.2148L170.297 49.1938C173.175 53.0526 178.394 54.313 182.716 52.193L178.312 43.2148ZM174.402 37.9727L169.896 29.0458C167.259 30.377 165.345 32.8059 164.668 35.6812C163.992 38.5565 164.62 41.5839 166.387 43.9516L174.402 37.9727ZM189.141 19.5391L199.04 20.9568C199.451 18.0866 198.596 15.1792 196.696 12.9884C194.797 10.7976 192.04 9.53906 189.141 9.53906V19.5391ZM176.895 19.5391H166.895C166.895 25.0619 171.372 29.5391 176.895 29.5391V19.5391ZM176.895 13.9531V3.95312C171.372 3.95312 166.895 8.43028 166.895 13.9531H176.895ZM206.973 10H196.973V24.6523L206.973 24.6523H216.973V10H206.973ZM206.973 24.6523V34.6523H212.043V24.6523V14.6523H206.973V24.6523ZM212.043 24.6523L202.043 24.6523V30.2812H212.043H222.043V24.6523H212.043ZM212.043 30.2812V20.2812H206.973V30.2812V40.2812H212.043V30.2812ZM206.973 30.2812H196.973V49.6602H206.973H216.973V30.2812H206.973ZM206.973 49.6602V39.6602H200.055V49.6602V59.6602H206.973V49.6602ZM200.055 49.6602H210.055V10H200.055H190.055V49.6602H200.055ZM200.055 10V20L206.973 20V10V0H200.055V10ZM196.145 13.9531L186.145 13.9182C186.127 18.9688 185.252 22.8059 183.568 25.8287C181.945 28.7423 179.147 31.6673 173.909 34.2367L178.312 43.2148L182.716 52.193C191.056 48.1022 197.153 42.5409 201.04 35.5609C204.867 28.6902 206.119 21.2265 206.144 13.9881L196.145 13.9531ZM178.312 43.2148L186.328 37.2359L182.418 31.9937L174.402 37.9727L166.387 43.9516L170.297 49.1938L178.312 43.2148ZM174.402 37.9727L178.909 46.8995C184.154 44.2517 188.828 40.951 192.413 36.5212C196.084 31.9849 198.208 26.7651 199.04 20.9568L189.141 19.5391L179.242 18.1213C178.87 20.7134 178.051 22.4761 176.866 23.9392C175.596 25.5089 173.502 27.2248 169.896 29.0458L174.402 37.9727ZM189.141 19.5391V9.53906H176.895V19.5391V29.5391H189.141V19.5391ZM176.895 19.5391H186.895V13.9531H176.895H166.895V19.5391H176.895ZM176.895 13.9531V23.9531H196.145V13.9531V3.95312L176.895 3.95312V13.9531ZM233.613 12.6641L233.544 22.6638C233.59 22.6641 233.637 22.6641 233.683 22.6638L233.613 12.6641ZM222.828 26.9727L232.828 27.021C232.828 26.9885 232.828 26.9561 232.828 26.9236L222.828 26.9727ZM233.613 18.8945L233.441 28.893C233.555 28.895 233.669 28.895 233.783 28.8931L233.613 18.8945ZM229.531 26.9727L239.531 27.0496C239.531 26.9979 239.531 26.9462 239.531 26.8945L229.531 26.9727ZM237.781 26.9727L247.781 27.0496C247.781 26.9979 247.781 26.9462 247.781 26.8945L237.781 26.9727ZM254.582 10H264.582C264.582 4.47715 260.105 0 254.582 0V10ZM254.582 24.4375H244.582C244.582 29.9603 249.059 34.4375 254.582 34.4375V24.4375ZM259.953 24.4375H269.953C269.953 18.9147 265.476 14.4375 259.953 14.4375V24.4375ZM259.953 30.1523V40.1523C265.476 40.1523 269.953 35.6752 269.953 30.1523H259.953ZM254.582 30.1523V20.1523C249.059 20.1523 244.582 24.6295 244.582 30.1523H254.582ZM254.582 49.7461V59.7461C260.105 59.7461 264.582 55.2689 264.582 49.7461H254.582ZM247.664 49.7461H237.664C237.664 55.2689 242.141 59.7461 247.664 59.7461V49.7461ZM247.664 10V0C242.141 0 237.664 4.47715 237.664 10H247.664ZM233.613 12.6641L233.683 22.6638C233.696 22.6637 233.663 22.665 233.598 22.6499C233.533 22.6347 233.462 22.6095 233.397 22.5766C233.251 22.5031 233.261 22.4599 233.377 22.6106C233.639 22.9505 234.355 24.2317 234.355 26.9727H244.355H254.355C254.355 20.9479 252.795 15.0534 249.232 10.4197C245.534 5.60936 239.961 2.61974 233.544 2.6643L233.613 12.6641ZM244.355 26.9727H234.355C234.355 29.8046 233.625 31.1072 233.365 31.4479C233.249 31.599 233.237 31.5588 233.375 31.4887C233.522 31.4138 233.634 31.4102 233.613 31.4102V41.4102V51.4102C239.984 51.4102 245.542 48.4419 249.245 43.6058C252.808 38.9514 254.355 33.0353 254.355 26.9727H244.355ZM233.613 41.4102V31.4102C233.57 31.4102 233.662 31.4084 233.795 31.4756C233.92 31.5387 233.905 31.5734 233.792 31.4265C233.54 31.0989 232.814 29.8217 232.828 27.021L222.828 26.9727L212.828 26.9243C212.799 33.0181 214.351 38.9597 217.944 43.6273C221.673 48.4697 227.254 51.4102 233.613 51.4102V41.4102ZM222.828 26.9727L232.828 26.9236C232.815 24.2146 233.526 22.9589 233.779 22.632C233.892 22.4855 233.906 22.5231 233.773 22.5896C233.631 22.661 233.522 22.6637 233.544 22.6638L233.613 12.6641L233.682 2.6643C227.276 2.62012 221.682 5.58142 217.957 10.3982C214.364 15.045 212.799 20.9651 212.828 27.0217L222.828 26.9727ZM233.613 18.8945L233.786 8.89602C228.137 8.79863 223.955 12.1116 221.801 16.1436C219.953 19.6031 219.504 23.5663 219.532 27.0508L229.531 26.9727L239.531 26.8945C239.524 25.9979 239.589 25.4486 239.638 25.1804C239.691 24.8914 239.694 25.0946 239.442 25.5664C239.177 26.0636 238.556 26.9806 237.353 27.7591C236.086 28.5797 234.68 28.9144 233.441 28.893L233.613 18.8945ZM229.531 26.9727L219.532 26.8957C219.505 30.3994 219.946 34.3811 221.809 37.8541C224.005 41.9486 228.163 45.0937 233.613 45.0937V35.0937V25.0937C234.765 25.0937 236.109 25.4122 237.345 26.2113C238.53 26.977 239.157 27.8844 239.434 28.4018C239.694 28.8866 239.692 29.1007 239.639 28.8099C239.59 28.5386 239.524 27.9768 239.531 27.0496L229.531 26.9727ZM233.613 35.0937V45.0937C239.052 45.0937 243.214 41.9832 245.43 37.8816C247.288 34.4431 247.754 30.4931 247.781 27.0496L237.781 26.9727L227.782 26.8957C227.774 27.8483 227.701 28.4335 227.645 28.7288C227.585 29.0449 227.579 28.8465 227.834 28.3742C228.108 27.867 228.735 26.9593 229.926 26.1949C231.169 25.3971 232.502 25.0937 233.613 25.0937V35.0937ZM237.781 26.9727L247.781 26.8945C247.754 23.4723 247.281 19.5413 245.438 16.1161C243.263 12.0751 239.077 8.80048 233.444 8.89597L233.613 18.8945L233.783 28.8931C232.586 28.9134 231.192 28.5949 229.918 27.7755C228.71 26.9985 228.088 26.0811 227.826 25.5939C227.579 25.1346 227.586 24.9472 227.646 25.2618C227.702 25.5544 227.774 26.1278 227.782 27.0508L237.781 26.9727ZM254.582 10H244.582V24.4375H254.582H264.582V10H254.582ZM254.582 24.4375V34.4375H259.953V24.4375V14.4375H254.582V24.4375ZM259.953 24.4375H249.953V30.1523H259.953H269.953V24.4375H259.953ZM259.953 30.1523V20.1523H254.582V30.1523V40.1523H259.953V30.1523ZM254.582 30.1523H244.582V49.7461H254.582H264.582V30.1523H254.582ZM254.582 49.7461V39.7461H247.664V49.7461V59.7461H254.582V49.7461ZM247.664 49.7461H257.664V10H247.664H237.664V49.7461H247.664ZM247.664 10V20H254.582V10V0H247.664V10ZM277.613 13.4375L287.613 13.5474C287.613 13.5108 287.613 13.4741 287.613 13.4375H277.613ZM286.68 22.5469L295.375 27.4858C296.953 24.7074 297.108 21.3421 295.793 18.4301C294.478 15.5181 291.85 13.41 288.722 12.7576L286.68 22.5469ZM283.629 27.918L281.445 37.6767C285.737 38.6369 290.152 36.6807 292.324 32.8569L283.629 27.918ZM274.047 21.6875L282.589 16.488C280.743 13.455 277.427 11.6284 273.876 11.689C270.326 11.7495 267.074 13.688 265.333 16.7821L274.047 21.6875ZM264.25 28.5625L255.663 33.6871C257.897 37.4308 262.299 39.2957 266.543 38.2961L264.25 28.5625ZM261.07 23.2344L258.951 13.4615C255.805 14.1438 253.18 16.299 251.897 19.252C250.615 22.205 250.833 25.5945 252.483 28.3589L261.07 23.2344ZM270.395 11.5898V1.58984C264.872 1.58984 260.395 6.067 260.395 11.5898H270.395ZM277.613 11.5898H287.613C287.613 6.067 283.136 1.58984 277.613 1.58984V11.5898ZM294.844 10.0859L304.844 10.0859C304.844 4.56309 300.367 0.0859375 294.844 0.0859375V10.0859ZM294.844 49.7031V59.7031C300.367 59.7031 304.844 55.226 304.844 49.7031H294.844ZM287.969 49.7031H277.969C277.969 55.226 282.446 59.7031 287.969 59.7031V49.7031ZM287.969 10.0859V0.0859375C282.446 0.0859375 277.969 4.56309 277.969 10.0859H287.969ZM261.113 30.3672L261.176 20.3674C258.258 20.3491 255.479 21.6058 253.565 23.808C251.651 26.0101 250.795 28.9381 251.22 31.8243L261.113 30.3672ZM285.906 29.1211L295.86 28.1606C295.597 25.4355 294.228 22.9373 292.073 21.249C289.918 19.5606 287.165 18.8297 284.456 19.2268L285.906 29.1211ZM286.379 34.0195L288.395 43.8141C293.4 42.7836 296.823 38.1455 296.333 33.0591L286.379 34.0195ZM277.484 35.3086L276.618 25.3462C271.451 25.7955 267.484 30.1215 267.484 35.3086H277.484ZM277.484 48.5859V58.5859C283.007 58.5859 287.484 54.1088 287.484 48.5859H277.484ZM270.566 48.5859H260.566C260.566 54.1088 265.044 58.5859 270.566 58.5859V48.5859ZM270.566 35.7812H280.566C280.566 33.0693 279.465 30.4737 277.515 28.5894C275.564 26.7051 272.932 25.6937 270.222 25.7872L270.566 35.7812ZM261.93 35.9102L252.036 37.3673C252.759 42.2744 256.97 45.9102 261.93 45.9102V35.9102ZM277.613 13.4375L267.614 13.3276C267.572 17.1723 268.621 21.6354 271.958 25.4724C275.208 29.2097 279.724 31.3111 284.638 32.3362L286.68 22.5469L288.722 12.7576C286.632 12.3217 286.593 11.8235 287.05 12.3489C287.268 12.5993 287.438 12.9098 287.535 13.2071C287.623 13.4776 287.612 13.616 287.613 13.5474L277.613 13.4375ZM286.68 22.5469L277.984 17.608L274.934 22.9791L283.629 27.918L292.324 32.8569L295.375 27.4858L286.68 22.5469ZM283.629 27.918L285.812 18.1593C284.464 17.8575 283.702 17.4696 283.301 17.2014C282.926 16.9514 282.73 16.7194 282.589 16.488L274.047 21.6875L265.505 26.887C268.965 32.5722 274.584 36.1416 281.445 37.6767L283.629 27.918ZM274.047 21.6875L265.333 16.7821C265.102 17.1918 264.817 17.5211 264.411 17.8156C263.99 18.1199 263.247 18.5252 261.957 18.8289L264.25 28.5625L266.543 38.2961C273.839 36.5774 279.438 32.4957 282.761 26.5929L274.047 21.6875ZM264.25 28.5625L272.837 23.4379L269.657 18.1098L261.07 23.2344L252.483 28.3589L255.663 33.6871L264.25 28.5625ZM261.07 23.2344L263.19 33.0072C268.396 31.8781 272.937 29.5078 276.132 25.6209C279.328 21.7328 280.395 17.2794 280.395 13.4375H270.395H260.395C260.395 13.5495 260.379 13.5237 260.419 13.3976C260.466 13.2525 260.556 13.0739 260.682 12.9201C260.809 12.7663 260.854 12.7799 260.658 12.8898C260.443 13.0097 259.926 13.25 258.951 13.4615L261.07 23.2344ZM270.395 13.4375H280.395V11.5898H270.395H260.395V13.4375H270.395ZM270.395 11.5898V21.5898H277.613V11.5898V1.58984H270.395V11.5898ZM277.613 11.5898H267.613V13.4375H277.613H287.613V11.5898H277.613ZM294.844 10.0859H284.844V49.7031H294.844H304.844V10.0859L294.844 10.0859ZM294.844 49.7031V39.7031H287.969V49.7031V59.7031H294.844V49.7031ZM287.969 49.7031H297.969V10.0859H287.969H277.969V49.7031H287.969ZM287.969 10.0859V20.0859H294.844V10.0859V0.0859375L287.969 0.0859375V10.0859ZM261.113 30.3672L261.051 40.367C267.932 40.41 278.322 40.3398 287.357 39.0153L285.906 29.1211L284.456 19.2268C277.077 20.3086 268.045 20.4103 261.176 20.3674L261.113 30.3672ZM285.906 29.1211L275.952 30.0815L276.425 34.98L286.379 34.0195L296.333 33.0591L295.86 28.1606L285.906 29.1211ZM286.379 34.0195L284.362 24.225C281.839 24.7444 279.217 25.1202 276.618 25.3462L277.484 35.3086L278.351 45.271C281.682 44.9813 285.075 44.4978 288.395 43.8141L286.379 34.0195ZM277.484 35.3086H267.484V48.5859H277.484H287.484V35.3086H277.484ZM277.484 48.5859V38.5859H270.566V48.5859V58.5859H277.484V48.5859ZM270.566 48.5859H280.566V35.7812H270.566H260.566V48.5859H270.566ZM270.566 35.7812L270.222 25.7872C267.271 25.8889 264.457 25.9102 261.93 25.9102V35.9102V45.9102C264.559 45.9102 267.631 45.8884 270.911 45.7753L270.566 35.7812ZM261.93 35.9102L271.823 34.453L271.007 28.91L261.113 30.3672L251.22 31.8243L252.036 37.3673L261.93 35.9102ZM335.191 28.8633H345.191C345.191 23.3404 340.714 18.8633 335.191 18.8633V28.8633ZM335.191 34.2344V44.2344C340.714 44.2344 345.191 39.7572 345.191 34.2344H335.191ZM320.883 34.2344V24.2344C315.36 24.2344 310.883 28.7115 310.883 34.2344H320.883ZM320.883 40.3789V50.3789C326.406 50.3789 330.883 45.9018 330.883 40.3789H320.883ZM313.879 40.3789H303.879C303.879 45.9018 308.356 50.3789 313.879 50.3789V40.3789ZM313.879 34.2344H323.879C323.879 28.7115 319.402 24.2344 313.879 24.2344V34.2344ZM298.926 34.2344H288.926C288.926 39.7572 293.403 44.2344 298.926 44.2344V34.2344ZM298.926 28.8633V18.8633C293.403 18.8633 288.926 23.3404 288.926 28.8633H298.926ZM331.238 43.6875H341.238C341.238 38.1647 336.761 33.6875 331.238 33.6875V43.6875ZM331.238 49.1875V59.1875C336.761 59.1875 341.238 54.7103 341.238 49.1875H331.238ZM302.965 49.1875H292.965C292.965 54.7103 297.442 59.1875 302.965 59.1875V49.1875ZM302.965 37.1133V27.1133C297.442 27.1133 292.965 31.5904 292.965 37.1133H302.965ZM309.926 37.1133H319.926C319.926 31.5904 315.449 27.1133 309.926 27.1133V37.1133ZM309.926 43.6875H299.926C299.926 49.2103 304.403 53.6875 309.926 53.6875V43.6875ZM309.883 19.0664L319.88 19.2837C319.883 19.1447 319.884 19.0055 319.881 18.8664L309.883 19.0664ZM317.059 21.9453L316.962 31.9449C317.027 31.9455 317.091 31.9455 317.156 31.9448L317.059 21.9453ZM335.191 28.8633H325.191V34.2344H335.191H345.191V28.8633H335.191ZM335.191 34.2344V24.2344L320.883 24.2344V34.2344V44.2344H335.191V34.2344ZM320.883 34.2344H310.883V40.3789H320.883H330.883V34.2344H320.883ZM320.883 40.3789V30.3789H313.879V40.3789V50.3789H320.883V40.3789ZM313.879 40.3789H323.879V34.2344H313.879H303.879V40.3789H313.879ZM313.879 34.2344V24.2344H298.926V34.2344V44.2344H313.879V34.2344ZM298.926 34.2344H308.926V28.8633H298.926H288.926V34.2344H298.926ZM298.926 28.8633V38.8633H335.191V28.8633V18.8633L298.926 18.8633V28.8633ZM331.238 43.6875H321.238V49.1875H331.238H341.238V43.6875H331.238ZM331.238 49.1875V39.1875H302.965V49.1875V59.1875H331.238V49.1875ZM302.965 49.1875H312.965V37.1133H302.965H292.965V49.1875H302.965ZM302.965 37.1133V47.1133H309.926V37.1133V27.1133H302.965V37.1133ZM309.926 37.1133H299.926V43.6875H309.926H319.926V37.1133H309.926ZM309.926 43.6875V53.6875H331.238V43.6875V33.6875H309.926V43.6875ZM317.059 10.6445V20.6445C320.327 20.6445 322.08 21.2872 322.635 21.6043C322.857 21.7309 322.591 21.6354 322.249 21.1222C321.859 20.5377 321.625 19.7837 321.625 19.0664H331.625L341.625 19.0664C341.625 11.9931 337.354 6.98009 332.558 4.23944C328 1.63466 322.469 0.644531 317.059 0.644531V10.6445ZM331.625 19.0664H321.625C321.625 18.319 321.871 17.5405 322.274 16.9414C322.628 16.4166 322.902 16.3186 322.677 16.4459C322.114 16.7639 320.346 17.4023 317.059 17.4023V27.4023V37.4023C322.451 37.4023 327.966 36.4294 332.517 33.8578C337.301 31.1543 341.625 26.1664 341.625 19.0664L331.625 19.0664ZM317.059 27.4023V17.4023C313.714 17.4023 311.922 16.7591 311.35 16.4371C311.121 16.3083 311.397 16.4059 311.753 16.9339C312.16 17.5368 312.406 18.3185 312.406 19.0664H302.406H292.406C292.406 26.1735 296.739 31.1642 301.541 33.8666C306.104 36.4343 311.638 37.4023 317.059 37.4023V27.4023ZM302.406 19.0664H312.406C312.406 19.7841 312.171 20.5414 311.779 21.1297C311.434 21.6461 311.166 21.7414 311.391 21.6132C311.955 21.2922 313.732 20.6445 317.059 20.6445V10.6445V0.644531C311.619 0.644531 306.07 1.62965 301.5 4.23051C296.685 6.9701 292.406 11.9861 292.406 19.0664H302.406ZM317.059 16.0156V6.01562C314.443 6.01562 311.107 6.23892 308.079 7.44505C306.487 8.07916 304.395 9.21345 302.669 11.2894C300.78 13.5602 299.827 16.3714 299.885 19.2664L309.883 19.0664L319.881 18.8664C319.917 20.6872 319.292 22.5799 318.046 24.0773C316.963 25.3798 315.83 25.8857 315.479 26.0257C315.097 26.1777 314.997 26.1519 315.369 26.1023C315.705 26.0575 316.256 26.0156 317.059 26.0156V16.0156ZM309.883 19.0664L299.885 18.8491C299.818 21.9454 300.938 24.8155 302.907 27.0144C304.672 28.9853 306.75 30.0228 308.254 30.5892C311.162 31.6844 314.381 31.92 316.962 31.9449L317.059 21.9453L317.155 11.9458C316.328 11.9378 315.741 11.8925 315.361 11.8422C314.947 11.7872 314.985 11.7528 315.303 11.8727C315.567 11.9718 316.686 12.4212 317.808 13.6737C319.133 15.1542 319.926 17.1757 319.88 19.2837L309.883 19.0664ZM317.059 21.9453L317.156 31.9448C319.724 31.9199 322.93 31.683 325.836 30.5791C328.828 29.4425 334.191 26.0887 334.191 19.0664L324.191 19.0664H314.191C314.191 17.0286 314.978 15.0872 316.263 13.6582C317.361 12.4371 318.454 11.989 318.733 11.8828C319.06 11.7589 319.11 11.7906 318.711 11.844C318.346 11.8929 317.775 11.9379 316.962 11.9458L317.059 21.9453ZM324.191 19.0664L334.191 19.0664C334.191 16.2326 333.229 13.4938 331.375 11.2736C329.669 9.23035 327.609 8.09759 326.013 7.45618C322.986 6.24019 319.662 6.01562 317.059 6.01562V16.0156V26.0156C317.847 26.0156 318.383 26.0572 318.704 26.1005C319.058 26.1483 318.946 26.1711 318.557 26.0145C318.19 25.8673 317.084 25.3629 316.024 24.0931C314.815 22.6463 314.191 20.826 314.191 19.0664H324.191Z" fill="white" mask="url(#path-1-outside-1_6526_5700)"/>
</g>
<defs>
<filter id="filter0_d_6526_5700" x="0" y="0" width="349.191" height="67.875" filterUnits="userSpaceOnUse" color-interpolation-filters="sRGB">
<feFlood flood-opacity="0" result="BackgroundImageFix"/>
<feColorMatrix in="SourceAlpha" type="matrix" values="0 0 0 0 0 0 0 0 0 0 0 0 0 0 0 0 0 0 127 0" result="hardAlpha"/>
<feOffset dy="4"/>
<feGaussianBlur stdDeviation="2"/>
<feComposite in2="hardAlpha" operator="out"/>
<feColorMatrix type="matrix" values="0 0 0 0 0 0 0 0 0 0 0 0 0 0 0 0 0 0 0.07 0"/>
<feBlend mode="normal" in2="BackgroundImageFix" result="effect1_dropShadow_6526_5700"/>
<feBlend mode="normal" in="SourceGraphic" in2="effect1_dropShadow_6526_5700" result="shape"/>
</filter>
</defs>
</svg>
