<svg width="312" height="68" viewBox="0 0 312 68" fill="none" xmlns="http://www.w3.org/2000/svg">
<g filter="url(#filter0_d_6524_1804)">
<mask id="path-1-outside-1_6524_1804" maskUnits="userSpaceOnUse" x="3.66797" y="-0.507813" width="304" height="61" fill="black">
<rect fill="white" x="3.66797" y="-0.507813" width="304" height="61"/>
<path d="M24.8711 11.0312C31.0156 10.9883 35.6992 14.8984 35.6992 20.2695C35.6992 25.5977 31.0156 29.4648 24.8711 29.4648C18.6836 29.4648 13.957 25.5977 14 20.2695C13.957 14.8984 18.6836 10.9883 24.8711 11.0312ZM24.8711 16.5742C22.4219 16.6172 20.6172 17.7773 20.6602 20.2695C20.6172 22.7188 22.4219 23.9648 24.8711 23.9648C27.3203 23.9648 29.0391 22.7188 29.0391 20.2695C29.0391 17.7773 27.3203 16.6172 24.8711 16.5742ZM47.0859 10V29.6367H40.168V10L47.0859 10ZM47.0859 31.0977V42.6562H26.7617V44.0312H47.9453V49.4023H20.0156V37.7148H40.2109V36.3398H19.9297V31.0977H47.0859ZM64.3594 12.5352C70.7188 12.4922 75.5742 16.7461 75.5742 22.5469C75.5742 28.3906 70.7188 32.6016 64.3594 32.5586C58.1289 32.6016 53.1445 28.3906 53.1445 22.5469C53.1445 16.7461 58.1289 12.4922 64.3594 12.5352ZM64.3594 18.4648C61.9531 18.4648 60.0195 19.8398 60.0195 22.5469C60.0195 25.3398 61.9531 26.6289 64.3594 26.6289C66.8945 26.6289 68.8711 25.3398 68.8711 22.5469C68.8711 19.8398 66.8945 18.4648 64.3594 18.4648ZM85.457 10V49.875H78.625V10H85.457ZM51.7266 36.6406C58.6445 36.6406 68.3125 36.5117 76.6055 35.3945L77.1211 40.3359C68.5273 42.0547 59.2891 42.1406 52.5 42.1406L51.7266 36.6406ZM110.465 11.375V14.6406H124.043V11.375H130.875V27.832H120.734V30.625H135.473V36.082H99.207V30.625H113.773V27.832H103.719V11.375L110.465 11.375ZM110.465 22.375H124.043V19.8828H110.465V22.375ZM131.262 43.6875V49.1875H103.375V37.8008H110.293V43.6875H131.262ZM170.707 10V30.2812H163.832V10H170.707ZM170.75 31.6133V42.957H150.426V44.375H171.609V49.5742H143.68V38.1016H163.875V36.7695H143.594V31.6133H170.75ZM160.695 11.5898V17.0039H153.605C154.229 20.2051 156.678 23.4277 162.543 24.8672L159.32 30.1523C154.83 29.0137 151.865 26.6289 150.125 23.6211C148.277 27.0371 145.119 29.7227 140.285 30.9688L137.148 25.5117C143.164 24.0078 145.678 20.4844 146.301 17.0039H138.953V11.5898H160.695ZM193.395 10.5156C202.719 10.5156 208.047 12.8789 208.09 17.2187C208.047 21.6016 202.719 23.9648 193.395 23.9648C184.027 23.9648 178.613 21.6016 178.656 17.2187C178.613 12.8789 184.027 10.5156 193.395 10.5156ZM193.395 15.5C188.023 15.5 185.875 16.0156 185.875 17.2187C185.875 18.6797 188.023 18.9375 193.395 18.9805C198.809 18.9375 200.957 18.6797 200.957 17.2187C200.957 16.0156 198.809 15.5 193.395 15.5ZM211.527 25.2969V30.7539H175.262V25.2969L211.527 25.2969ZM207.23 32.2578V43.2148H186.047V44.5039H208.176V49.5742H179.301V38.4883H200.441V37.2852H179.344V32.2578H207.23ZM256.344 10.0859V31.8711H249.469V10.0859H256.344ZM256.602 33.2031V38.7031H252.348V43.9023H256.902V49.4023H228.672V43.9023H233.27V38.7031H229.016V33.2031H256.602ZM246.332 12.0625V17.3906H239.199C239.672 21.0645 242.078 24.7383 248.137 26.3281L244.785 31.6133C240.424 30.4102 237.48 27.9824 235.719 24.9102C233.893 28.3047 230.82 31.0117 226.18 32.3008L222.785 26.9727C228.973 25.1895 231.465 21.3008 232.023 17.3906H224.59V12.0625L246.332 12.0625ZM240.102 43.9023H245.516V38.7031H240.102V43.9023ZM293.254 20.0977V25.4258H265.152V11.418H272.027V20.0977H293.254ZM297.164 28.9492V34.2773H260.898V28.9492H297.164ZM293.512 43.4727V48.9727H264.68V37.0273H271.641V43.4727H293.512Z"/>
</mask>
<path d="M24.8711 11.0312C31.0156 10.9883 35.6992 14.8984 35.6992 20.2695C35.6992 25.5977 31.0156 29.4648 24.8711 29.4648C18.6836 29.4648 13.957 25.5977 14 20.2695C13.957 14.8984 18.6836 10.9883 24.8711 11.0312ZM24.8711 16.5742C22.4219 16.6172 20.6172 17.7773 20.6602 20.2695C20.6172 22.7188 22.4219 23.9648 24.8711 23.9648C27.3203 23.9648 29.0391 22.7188 29.0391 20.2695C29.0391 17.7773 27.3203 16.6172 24.8711 16.5742ZM47.0859 10V29.6367H40.168V10L47.0859 10ZM47.0859 31.0977V42.6562H26.7617V44.0312H47.9453V49.4023H20.0156V37.7148H40.2109V36.3398H19.9297V31.0977H47.0859ZM64.3594 12.5352C70.7188 12.4922 75.5742 16.7461 75.5742 22.5469C75.5742 28.3906 70.7188 32.6016 64.3594 32.5586C58.1289 32.6016 53.1445 28.3906 53.1445 22.5469C53.1445 16.7461 58.1289 12.4922 64.3594 12.5352ZM64.3594 18.4648C61.9531 18.4648 60.0195 19.8398 60.0195 22.5469C60.0195 25.3398 61.9531 26.6289 64.3594 26.6289C66.8945 26.6289 68.8711 25.3398 68.8711 22.5469C68.8711 19.8398 66.8945 18.4648 64.3594 18.4648ZM85.457 10V49.875H78.625V10H85.457ZM51.7266 36.6406C58.6445 36.6406 68.3125 36.5117 76.6055 35.3945L77.1211 40.3359C68.5273 42.0547 59.2891 42.1406 52.5 42.1406L51.7266 36.6406ZM110.465 11.375V14.6406H124.043V11.375H130.875V27.832H120.734V30.625H135.473V36.082H99.207V30.625H113.773V27.832H103.719V11.375L110.465 11.375ZM110.465 22.375H124.043V19.8828H110.465V22.375ZM131.262 43.6875V49.1875H103.375V37.8008H110.293V43.6875H131.262ZM170.707 10V30.2812H163.832V10H170.707ZM170.75 31.6133V42.957H150.426V44.375H171.609V49.5742H143.68V38.1016H163.875V36.7695H143.594V31.6133H170.75ZM160.695 11.5898V17.0039H153.605C154.229 20.2051 156.678 23.4277 162.543 24.8672L159.32 30.1523C154.83 29.0137 151.865 26.6289 150.125 23.6211C148.277 27.0371 145.119 29.7227 140.285 30.9688L137.148 25.5117C143.164 24.0078 145.678 20.4844 146.301 17.0039H138.953V11.5898H160.695ZM193.395 10.5156C202.719 10.5156 208.047 12.8789 208.09 17.2187C208.047 21.6016 202.719 23.9648 193.395 23.9648C184.027 23.9648 178.613 21.6016 178.656 17.2187C178.613 12.8789 184.027 10.5156 193.395 10.5156ZM193.395 15.5C188.023 15.5 185.875 16.0156 185.875 17.2187C185.875 18.6797 188.023 18.9375 193.395 18.9805C198.809 18.9375 200.957 18.6797 200.957 17.2187C200.957 16.0156 198.809 15.5 193.395 15.5ZM211.527 25.2969V30.7539H175.262V25.2969L211.527 25.2969ZM207.23 32.2578V43.2148H186.047V44.5039H208.176V49.5742H179.301V38.4883H200.441V37.2852H179.344V32.2578H207.23ZM256.344 10.0859V31.8711H249.469V10.0859H256.344ZM256.602 33.2031V38.7031H252.348V43.9023H256.902V49.4023H228.672V43.9023H233.27V38.7031H229.016V33.2031H256.602ZM246.332 12.0625V17.3906H239.199C239.672 21.0645 242.078 24.7383 248.137 26.3281L244.785 31.6133C240.424 30.4102 237.48 27.9824 235.719 24.9102C233.893 28.3047 230.82 31.0117 226.18 32.3008L222.785 26.9727C228.973 25.1895 231.465 21.3008 232.023 17.3906H224.59V12.0625L246.332 12.0625ZM240.102 43.9023H245.516V38.7031H240.102V43.9023ZM293.254 20.0977V25.4258H265.152V11.418H272.027V20.0977H293.254ZM297.164 28.9492V34.2773H260.898V28.9492H297.164ZM293.512 43.4727V48.9727H264.68V37.0273H271.641V43.4727H293.512Z" fill="#11DCA9"/>
<path d="M24.8711 11.0312L24.8017 21.031C24.8481 21.0313 24.8946 21.0313 24.941 21.031L24.8711 11.0312ZM14 20.2695L23.9997 20.3502C24.0001 20.2966 24.0001 20.2431 23.9997 20.1895L14 20.2695ZM24.8711 16.5742L25.0465 6.57576C24.9296 6.57371 24.8126 6.57371 24.6957 6.57576L24.8711 16.5742ZM20.6602 20.2695L30.6586 20.4449C30.6607 20.329 30.6607 20.2131 30.6587 20.0971L20.6602 20.2695ZM47.0859 10H57.0859C57.0859 4.47715 52.6088 0 47.0859 0V10ZM47.0859 29.6367V39.6367C52.6088 39.6367 57.0859 35.1596 57.0859 29.6367H47.0859ZM40.168 29.6367H30.168C30.168 35.1596 34.6451 39.6367 40.168 39.6367V29.6367ZM40.168 10V0C34.6451 0 30.168 4.47715 30.168 10H40.168ZM47.0859 31.0977H57.0859C57.0859 25.5748 52.6088 21.0977 47.0859 21.0977V31.0977ZM47.0859 42.6562V52.6562C52.6088 52.6562 57.0859 48.1791 57.0859 42.6562H47.0859ZM26.7617 42.6562V32.6562C21.2389 32.6562 16.7617 37.1334 16.7617 42.6562H26.7617ZM26.7617 44.0312H16.7617C16.7617 49.5541 21.2389 54.0312 26.7617 54.0312V44.0312ZM47.9453 44.0312H57.9453C57.9453 38.5084 53.4682 34.0312 47.9453 34.0312V44.0312ZM47.9453 49.4023V59.4023C53.4682 59.4023 57.9453 54.9252 57.9453 49.4023H47.9453ZM20.0156 49.4023H10.0156C10.0156 54.9252 14.4928 59.4023 20.0156 59.4023V49.4023ZM20.0156 37.7148V27.7148C14.4928 27.7148 10.0156 32.192 10.0156 37.7148H20.0156ZM40.2109 37.7148V47.7148C45.7338 47.7148 50.2109 43.2377 50.2109 37.7148H40.2109ZM40.2109 36.3398H50.2109C50.2109 30.817 45.7338 26.3398 40.2109 26.3398V36.3398ZM19.9297 36.3398H9.92969C9.92969 41.8627 14.4068 46.3398 19.9297 46.3398V36.3398ZM19.9297 31.0977V21.0977C14.4068 21.0977 9.92969 25.5748 9.92969 31.0977H19.9297ZM24.8711 11.0312L24.941 21.031C25.9038 21.0243 26.2139 21.3252 26.1233 21.2484C26.0742 21.2068 25.9528 21.0839 25.8465 20.8612C25.7352 20.628 25.6992 20.4069 25.6992 20.2695H35.6992H45.6992C45.6992 7.91744 34.9484 0.960535 24.8012 1.03149L24.8711 11.0312ZM35.6992 20.2695H25.6992C25.6992 20.108 25.7412 19.8657 25.8607 19.6174C25.9746 19.3806 26.1025 19.2545 26.148 19.2161C26.2266 19.1499 25.8829 19.4648 24.8711 19.4648V29.4648V39.4648C34.8592 39.4648 45.6992 32.662 45.6992 20.2695H35.6992ZM24.8711 29.4648V19.4648C23.816 19.4648 23.4459 19.1369 23.5196 19.1986C23.565 19.2366 23.7024 19.3701 23.8253 19.6263C23.9545 19.8954 24.0012 20.1632 23.9997 20.3502L14 20.2695L4.00033 20.1889C3.89914 32.7355 14.9533 39.4648 24.8711 39.4648V29.4648ZM14 20.2695L23.9997 20.1895C24.001 20.352 23.9603 20.5985 23.8395 20.8524C23.7242 21.0944 23.5934 21.2247 23.5444 21.266C23.4585 21.3383 23.7952 21.024 24.8017 21.031L24.8711 11.0312L24.9405 1.03149C14.8631 0.961509 3.90027 7.84291 4.00032 20.3495L14 20.2695ZM24.8711 16.5742L24.6957 6.57576C22.1172 6.62099 18.6079 7.25397 15.5503 9.72192C12.124 12.4874 10.5934 16.4849 10.6616 20.4419L20.6602 20.2695L30.6587 20.0971C30.6691 20.7039 30.5698 21.6214 30.1156 22.6585C29.6508 23.7198 28.9392 24.6171 28.1118 25.2849C26.5581 26.539 25.1758 26.5704 25.0465 26.5727L24.8711 16.5742ZM20.6602 20.2695L10.6617 20.0941C10.5922 24.0535 12.136 28.013 15.4837 30.7629C18.5354 33.2697 22.0922 33.9648 24.8711 33.9648V23.9648V13.9648C25.2008 13.9648 26.6307 14.037 28.1784 15.3084C30.0222 16.8229 30.6851 18.9348 30.6586 20.4449L20.6602 20.2695ZM24.8711 23.9648V33.9648C27.6653 33.9648 31.2459 33.2609 34.3028 30.6949C37.6102 27.9187 39.0391 24.0222 39.0391 20.2695H29.0391H19.0391C19.0391 18.966 19.6086 16.9173 21.4442 15.3764C23.0295 14.0457 24.5261 13.9648 24.8711 13.9648V23.9648ZM29.0391 20.2695H39.0391C39.0391 16.5168 37.621 12.5806 34.2365 9.78899C31.1732 7.26229 27.6397 6.62125 25.0465 6.57576L24.8711 16.5742L24.6957 26.5727C24.5517 26.5702 23.1022 26.5307 21.5105 25.2178C20.6756 24.5292 19.9953 23.6346 19.5575 22.6247C19.1327 21.6451 19.0391 20.799 19.0391 20.2695H29.0391ZM47.0859 10L37.0859 10V29.6367H47.0859H57.0859V10H47.0859ZM47.0859 29.6367V19.6367H40.168V29.6367V39.6367H47.0859V29.6367ZM40.168 29.6367H50.168V10L40.168 10H30.168V29.6367H40.168ZM40.168 10V20H47.0859V10V0H40.168V10ZM47.0859 31.0977H37.0859V42.6562H47.0859H57.0859V31.0977H47.0859ZM47.0859 42.6562V32.6562H26.7617V42.6562V52.6562H47.0859V42.6562ZM26.7617 42.6562H16.7617V44.0312H26.7617H36.7617V42.6562H26.7617ZM26.7617 44.0312V54.0312H47.9453V44.0312V34.0312H26.7617V44.0312ZM47.9453 44.0312H37.9453V49.4023H47.9453H57.9453V44.0312H47.9453ZM47.9453 49.4023V39.4023H20.0156V49.4023V59.4023H47.9453V49.4023ZM20.0156 49.4023H30.0156V37.7148H20.0156H10.0156V49.4023H20.0156ZM20.0156 37.7148V47.7148H40.2109V37.7148V27.7148H20.0156V37.7148ZM40.2109 37.7148H50.2109V36.3398H40.2109H30.2109V37.7148H40.2109ZM40.2109 36.3398V26.3398H19.9297V36.3398V46.3398H40.2109V36.3398ZM19.9297 36.3398H29.9297V31.0977H19.9297H9.92969V36.3398H19.9297ZM19.9297 31.0977V41.0977H47.0859V31.0977V21.0977H19.9297V31.0977ZM64.3594 12.5352L64.2904 22.5349C64.3359 22.5352 64.3814 22.5352 64.4269 22.5349L64.3594 12.5352ZM64.3594 32.5586L64.4269 22.5588C64.3814 22.5585 64.3359 22.5585 64.2904 22.5588L64.3594 32.5586ZM85.457 10H95.457C95.457 4.47715 90.9799 0 85.457 0V10ZM85.457 49.875V59.875C90.9799 59.875 95.457 55.3978 95.457 49.875H85.457ZM78.625 49.875H68.625C68.625 55.3978 73.1022 59.875 78.625 59.875V49.875ZM78.625 10V0C73.1022 0 68.625 4.47715 68.625 10H78.625ZM51.7266 36.6406V26.6406C48.8315 26.6406 46.0785 27.8953 44.1792 30.0803C42.2799 32.2654 41.4208 35.1663 41.824 38.0332L51.7266 36.6406ZM76.6055 35.3945L86.5515 34.3567C86.2708 31.6672 84.913 29.206 82.7875 27.5344C80.6621 25.8627 77.9502 25.123 75.2704 25.4841L76.6055 35.3945ZM77.1211 40.3359L79.0823 50.1417C84.1435 49.1295 87.6028 44.4317 87.0671 39.2981L77.1211 40.3359ZM52.5 42.1406L42.5974 43.5332C43.2916 48.4694 47.5152 52.1406 52.5 52.1406V42.1406ZM64.3594 12.5352L64.4269 22.5349C64.8925 22.5318 65.2203 22.6075 65.4223 22.6799C65.6257 22.7527 65.7075 22.8233 65.7129 22.8281C65.7147 22.8297 65.6658 22.784 65.6205 22.6848C65.5718 22.5782 65.5742 22.5128 65.5742 22.5469H75.5742L85.5742 22.5469C85.5742 10.1666 75.1111 2.46228 64.2918 2.53538L64.3594 12.5352ZM75.5742 22.5469H65.5742C65.5742 22.6018 65.5676 22.543 65.6179 22.4328C65.6393 22.3858 65.6639 22.3458 65.6866 22.3153C65.709 22.2853 65.7241 22.2718 65.7241 22.2718C65.7238 22.2721 65.7051 22.2886 65.6609 22.3144C65.6166 22.3403 65.5456 22.376 65.4431 22.4125C65.2391 22.4851 64.9045 22.562 64.4269 22.5588L64.3594 32.5586L64.2918 42.5584C75.0812 42.6313 85.5742 34.9968 85.5742 22.5469L75.5742 22.5469ZM64.3594 32.5586L64.2904 22.5588C63.429 22.5648 63.0522 22.2798 63.0133 22.2456C62.9969 22.2312 63.043 22.2685 63.0904 22.3707C63.1424 22.4827 63.1445 22.5621 63.1445 22.5469H53.1445H43.1445C43.1445 35.0666 53.8453 42.6313 64.4283 42.5584L64.3594 32.5586ZM53.1445 22.5469H63.1445C63.1445 22.5409 63.1448 22.5641 63.135 22.6086C63.1253 22.6526 63.1093 22.7006 63.0878 22.7469C63.0422 22.8448 63.0009 22.8752 63.0245 22.8544C63.0773 22.8078 63.4558 22.5292 64.2904 22.5349L64.3594 12.5352L64.4283 2.53539C53.8153 2.4622 43.1445 10.0966 43.1445 22.5469H53.1445ZM64.3594 18.4648V8.46484C61.339 8.46484 57.7319 9.32939 54.724 11.9458C51.5218 14.7313 50.0195 18.6259 50.0195 22.5469H60.0195H70.0195C70.0195 23.7608 69.4841 25.6144 67.8502 27.0357C66.4107 28.2878 64.9735 28.4648 64.3594 28.4648V18.4648ZM60.0195 22.5469H50.0195C50.0195 26.4329 51.4721 30.3964 54.7835 33.2315C57.859 35.8646 61.489 36.6289 64.3594 36.6289V26.6289V16.6289C64.8235 16.6289 66.2836 16.7486 67.7907 18.039C69.5338 19.5313 70.0195 21.4538 70.0195 22.5469H60.0195ZM64.3594 26.6289V36.6289C67.1817 36.6289 70.8212 35.9223 73.9426 33.3383C77.3452 30.5216 78.8711 26.5148 78.8711 22.5469L68.8711 22.5469H58.8711C58.8711 21.3719 59.4087 19.4061 61.1892 17.9322C62.6885 16.691 64.0722 16.6289 64.3594 16.6289V26.6289ZM68.8711 22.5469L78.8711 22.5469C78.8711 18.5435 77.2941 14.606 74.0026 11.8377C70.9443 9.2655 67.3266 8.46484 64.3594 8.46484V18.4648V28.4648C63.9273 28.4648 62.5654 28.3517 61.1292 27.1438C59.4598 25.7397 58.8711 23.8432 58.8711 22.5469H68.8711ZM85.457 10H75.457V49.875H85.457H95.457V10H85.457ZM85.457 49.875V39.875H78.625V49.875V59.875H85.457V49.875ZM78.625 49.875H88.625V10H78.625H68.625V49.875H78.625ZM78.625 10V20H85.457V10V0L78.625 0V10ZM51.7266 36.6406V46.6406C58.6544 46.6406 68.9181 46.5205 77.9406 45.305L76.6055 35.3945L75.2704 25.4841C67.7069 26.503 58.6347 26.6406 51.7266 26.6406V36.6406ZM76.6055 35.3945L66.6595 36.4324L67.1751 41.3738L77.1211 40.3359L87.0671 39.2981L86.5515 34.3567L76.6055 35.3945ZM77.1211 40.3359L75.1599 30.5301C67.6534 32.0314 59.33 32.1406 52.5 32.1406V42.1406V52.1406C59.2481 52.1406 69.4013 52.0779 79.0823 50.1417L77.1211 40.3359ZM52.5 42.1406L62.4026 40.7481L61.6291 35.2481L51.7266 36.6406L41.824 38.0332L42.5974 43.5332L52.5 42.1406ZM110.465 11.375H120.465C120.465 5.85215 115.988 1.375 110.465 1.375V11.375ZM110.465 14.6406H100.465C100.465 20.1635 104.942 24.6406 110.465 24.6406V14.6406ZM124.043 14.6406V24.6406C129.566 24.6406 134.043 20.1635 134.043 14.6406H124.043ZM124.043 11.375V1.375C118.52 1.375 114.043 5.85215 114.043 11.375H124.043ZM130.875 11.375H140.875C140.875 5.85215 136.398 1.375 130.875 1.375V11.375ZM130.875 27.832V37.832C136.398 37.832 140.875 33.3549 140.875 27.832H130.875ZM120.734 27.832V17.832C115.212 17.832 110.734 22.3092 110.734 27.832H120.734ZM120.734 30.625H110.734C110.734 36.1478 115.212 40.625 120.734 40.625V30.625ZM135.473 30.625L145.473 30.625C145.473 25.1022 140.995 20.625 135.473 20.625V30.625ZM135.473 36.082V46.082C140.995 46.082 145.473 41.6049 145.473 36.082L135.473 36.082ZM99.207 36.082H89.207C89.207 41.6049 93.6842 46.082 99.207 46.082V36.082ZM99.207 30.625V20.625C93.6842 20.625 89.207 25.1022 89.207 30.625H99.207ZM113.773 30.625V40.625C119.296 40.625 123.773 36.1478 123.773 30.625H113.773ZM113.773 27.832H123.773C123.773 22.3092 119.296 17.832 113.773 17.832V27.832ZM103.719 27.832H93.7188C93.7188 33.3549 98.1959 37.832 103.719 37.832V27.832ZM103.719 11.375V1.375C98.1959 1.375 93.7188 5.85215 93.7188 11.375H103.719ZM110.465 22.375H100.465C100.465 27.8978 104.942 32.375 110.465 32.375V22.375ZM124.043 22.375V32.375C129.566 32.375 134.043 27.8978 134.043 22.375H124.043ZM124.043 19.8828H134.043C134.043 14.36 129.566 9.88281 124.043 9.88281V19.8828ZM110.465 19.8828V9.88281C104.942 9.88281 100.465 14.36 100.465 19.8828H110.465ZM131.262 43.6875L141.262 43.6875C141.262 38.1647 136.785 33.6875 131.262 33.6875V43.6875ZM131.262 49.1875V59.1875C136.785 59.1875 141.262 54.7103 141.262 49.1875L131.262 49.1875ZM103.375 49.1875H93.375C93.375 54.7103 97.8521 59.1875 103.375 59.1875V49.1875ZM103.375 37.8008V27.8008C97.8521 27.8008 93.375 32.2779 93.375 37.8008H103.375ZM110.293 37.8008H120.293C120.293 32.2779 115.816 27.8008 110.293 27.8008V37.8008ZM110.293 43.6875H100.293C100.293 49.2103 104.77 53.6875 110.293 53.6875V43.6875ZM110.465 11.375L100.465 11.375V14.6406H110.465H120.465V11.375H110.465ZM110.465 14.6406V24.6406H124.043V14.6406V4.64062H110.465V14.6406ZM124.043 14.6406H134.043V11.375H124.043H114.043V14.6406H124.043ZM124.043 11.375V21.375H130.875V11.375V1.375L124.043 1.375V11.375ZM130.875 11.375H120.875V27.832H130.875H140.875V11.375H130.875ZM130.875 27.832V17.832H120.734V27.832V37.832H130.875V27.832ZM120.734 27.832H110.734V30.625H120.734H130.734V27.832H120.734ZM120.734 30.625V40.625H135.473V30.625V20.625H120.734V30.625ZM135.473 30.625H125.473V36.082H135.473L145.473 36.082V30.625L135.473 30.625ZM135.473 36.082V26.082H99.207V36.082V46.082H135.473V36.082ZM99.207 36.082H109.207V30.625H99.207H89.207V36.082H99.207ZM99.207 30.625V40.625H113.773V30.625V20.625H99.207V30.625ZM113.773 30.625H123.773V27.832H113.773H103.773V30.625H113.773ZM113.773 27.832V17.832H103.719V27.832V37.832H113.773V27.832ZM103.719 27.832H113.719V11.375L103.719 11.375H93.7188V27.832H103.719ZM103.719 11.375V21.375H110.465V11.375V1.375H103.719V11.375ZM110.465 22.375V32.375H124.043V22.375V12.375H110.465V22.375ZM124.043 22.375H134.043V19.8828H124.043H114.043V22.375H124.043ZM124.043 19.8828V9.88281H110.465V19.8828V29.8828H124.043V19.8828ZM110.465 19.8828H100.465V22.375H110.465H120.465V19.8828H110.465ZM131.262 43.6875H121.262V49.1875H131.262L141.262 49.1875V43.6875L131.262 43.6875ZM131.262 49.1875V39.1875H103.375V49.1875V59.1875H131.262V49.1875ZM103.375 49.1875H113.375V37.8008H103.375H93.375V49.1875H103.375ZM103.375 37.8008V47.8008H110.293V37.8008V27.8008H103.375V37.8008ZM110.293 37.8008H100.293V43.6875H110.293H120.293V37.8008H110.293ZM110.293 43.6875V53.6875H131.262V43.6875V33.6875H110.293V43.6875ZM170.707 10L180.707 10C180.707 4.47715 176.23 0 170.707 0V10ZM170.707 30.2812V40.2812C176.23 40.2812 180.707 35.8041 180.707 30.2812H170.707ZM163.832 30.2812H153.832C153.832 35.8041 158.309 40.2812 163.832 40.2812V30.2812ZM163.832 10V0C158.309 0 153.832 4.47715 153.832 10H163.832ZM170.75 31.6133H180.75C180.75 26.0904 176.273 21.6133 170.75 21.6133V31.6133ZM170.75 42.957V52.957C176.273 52.957 180.75 48.4799 180.75 42.957H170.75ZM150.426 42.957V32.957C144.903 32.957 140.426 37.4342 140.426 42.957L150.426 42.957ZM150.426 44.375L140.426 44.375C140.426 49.8978 144.903 54.375 150.426 54.375V44.375ZM171.609 44.375H181.609C181.609 38.8522 177.132 34.375 171.609 34.375V44.375ZM171.609 49.5742V59.5742C177.132 59.5742 181.609 55.0971 181.609 49.5742H171.609ZM143.68 49.5742L133.68 49.5742C133.68 55.0971 138.157 59.5742 143.68 59.5742V49.5742ZM143.68 38.1016V28.1016C138.157 28.1016 133.68 32.5787 133.68 38.1016L143.68 38.1016ZM163.875 38.1016V48.1016C169.398 48.1016 173.875 43.6244 173.875 38.1016H163.875ZM163.875 36.7695H173.875C173.875 31.2467 169.398 26.7695 163.875 26.7695V36.7695ZM143.594 36.7695L133.594 36.7695C133.594 42.2924 138.071 46.7695 143.594 46.7695V36.7695ZM143.594 31.6133V21.6133C138.071 21.6133 133.594 26.0904 133.594 31.6133L143.594 31.6133ZM160.695 11.5898H170.695C170.695 6.067 166.218 1.58984 160.695 1.58984V11.5898ZM160.695 17.0039V27.0039C166.218 27.0039 170.695 22.5268 170.695 17.0039H160.695ZM153.605 17.0039V7.00391C150.619 7.00391 147.788 8.33907 145.888 10.6441C143.989 12.949 143.219 15.9825 143.79 18.9144L153.605 17.0039ZM162.543 24.8672L171.081 30.0733C172.741 27.3511 173.003 24.0007 171.787 21.0534C170.571 18.1061 168.023 15.9153 164.926 15.1554L162.543 24.8672ZM159.32 30.1523L156.862 39.8455C161.115 40.924 165.574 39.1044 167.858 35.3584L159.32 30.1523ZM150.125 23.6211L158.781 18.6132C156.967 15.4792 153.602 13.5702 149.982 13.6221C146.361 13.6741 143.052 15.6789 141.329 18.8636L150.125 23.6211ZM140.285 30.9688L131.615 35.9522C133.857 39.8517 138.426 41.7749 142.781 40.6522L140.285 30.9688ZM137.148 25.5117L134.723 15.8103C131.682 16.5707 129.173 18.7134 127.946 21.5985C126.719 24.4836 126.916 27.7771 128.479 30.4951L137.148 25.5117ZM146.301 17.0039L156.144 18.766C156.666 15.8519 155.87 12.8563 153.97 10.586C152.07 8.31567 149.261 7.00391 146.301 7.00391V17.0039ZM138.953 17.0039H128.953C128.953 22.5268 133.43 27.0039 138.953 27.0039V17.0039ZM138.953 11.5898V1.58984C133.43 1.58984 128.953 6.067 128.953 11.5898H138.953ZM170.707 10H160.707V30.2812H170.707H180.707V10L170.707 10ZM170.707 30.2812V20.2812H163.832V30.2812V40.2812H170.707V30.2812ZM163.832 30.2812H173.832V10L163.832 10H153.832V30.2812H163.832ZM163.832 10V20H170.707V10V0L163.832 0V10ZM170.75 31.6133H160.75V42.957H170.75H180.75V31.6133H170.75ZM170.75 42.957V32.957H150.426V42.957V52.957H170.75V42.957ZM150.426 42.957L140.426 42.957V44.375L150.426 44.375H160.426V42.957H150.426ZM150.426 44.375V54.375H171.609V44.375V34.375H150.426V44.375ZM171.609 44.375H161.609V49.5742H171.609H181.609V44.375H171.609ZM171.609 49.5742V39.5742H143.68V49.5742V59.5742H171.609V49.5742ZM143.68 49.5742H153.68V38.1016H143.68L133.68 38.1016V49.5742L143.68 49.5742ZM143.68 38.1016V48.1016H163.875V38.1016V28.1016H143.68V38.1016ZM163.875 38.1016H173.875V36.7695H163.875H153.875V38.1016H163.875ZM163.875 36.7695V26.7695H143.594V36.7695V46.7695H163.875V36.7695ZM143.594 36.7695H153.594V31.6133H143.594L133.594 31.6133V36.7695L143.594 36.7695ZM143.594 31.6133V41.6133H170.75V31.6133V21.6133H143.594V31.6133ZM160.695 11.5898H150.695V17.0039H160.695H170.695V11.5898H160.695ZM160.695 17.0039V7.00391H153.605V17.0039V27.0039H160.695V17.0039ZM153.605 17.0039L143.79 18.9144C145.268 26.5093 151.103 32.3563 160.159 34.579L162.543 24.8672L164.926 15.1554C163.36 14.7709 162.987 14.336 163.084 14.4311C163.123 14.4686 163.205 14.5637 163.284 14.7134C163.36 14.8575 163.402 14.9922 163.421 15.0934L153.605 17.0039ZM162.543 24.8672L154.005 19.6611L150.782 24.9463L159.32 30.1523L167.858 35.3584L171.081 30.0733L162.543 24.8672ZM159.32 30.1523L161.778 20.4592C160.651 20.1732 159.987 19.8034 159.604 19.5231C159.23 19.2487 158.977 18.9519 158.781 18.6132L150.125 23.6211L141.469 28.629C144.664 34.1503 149.968 38.0972 156.862 39.8455L159.32 30.1523ZM150.125 23.6211L141.329 18.8636C141.031 19.4144 140.671 19.8406 140.215 20.1926C139.756 20.5469 139.013 20.9698 137.789 21.2853L140.285 30.9688L142.781 40.6522C150.22 38.7347 155.707 34.3208 158.921 28.3786L150.125 23.6211ZM140.285 30.9688L148.955 25.9853L145.818 20.5283L137.148 25.5117L128.479 30.4951L131.615 35.9522L140.285 30.9688ZM137.148 25.5117L139.574 35.2131C149.12 32.8265 154.776 26.4079 156.144 18.766L146.301 17.0039L136.457 15.2418C136.456 15.2506 136.461 15.2155 136.491 15.1551C136.506 15.126 136.522 15.0982 136.539 15.0742C136.547 15.0626 136.554 15.0535 136.56 15.0469C136.565 15.0403 136.568 15.0373 136.568 15.0378C136.568 15.0378 136.548 15.0579 136.5 15.0943C136.451 15.131 136.367 15.1893 136.235 15.2615C135.971 15.4056 135.495 15.6173 134.723 15.8103L137.148 25.5117ZM146.301 17.0039V7.00391H138.953V17.0039V27.0039H146.301V17.0039ZM138.953 17.0039H148.953V11.5898H138.953H128.953V17.0039H138.953ZM138.953 11.5898V21.5898H160.695V11.5898V1.58984L138.953 1.58984V11.5898ZM208.09 17.2187L218.089 17.3168C218.09 17.2511 218.09 17.1854 218.089 17.1197L208.09 17.2187ZM178.656 17.2187L188.656 17.3168C188.656 17.2511 188.656 17.1854 188.656 17.1197L178.656 17.2187ZM193.395 18.9805L193.315 28.9801C193.368 28.9806 193.421 28.9806 193.474 28.9802L193.395 18.9805ZM211.527 25.2969H221.527C221.527 19.774 217.05 15.2969 211.527 15.2969V25.2969ZM211.527 30.7539V40.7539C217.05 40.7539 221.527 36.2768 221.527 30.7539H211.527ZM175.262 30.7539H165.262C165.262 36.2768 169.739 40.7539 175.262 40.7539V30.7539ZM175.262 25.2969V15.2969C169.739 15.2969 165.262 19.774 165.262 25.2969H175.262ZM207.23 32.2578H217.23C217.23 26.735 212.753 22.2578 207.23 22.2578V32.2578ZM207.23 43.2148V53.2148C212.753 53.2148 217.23 48.7377 217.23 43.2148H207.23ZM186.047 43.2148V33.2148C180.524 33.2148 176.047 37.692 176.047 43.2148H186.047ZM186.047 44.5039H176.047C176.047 50.0268 180.524 54.5039 186.047 54.5039V44.5039ZM208.176 44.5039H218.176C218.176 38.9811 213.699 34.5039 208.176 34.5039V44.5039ZM208.176 49.5742V59.5742C213.699 59.5742 218.176 55.0971 218.176 49.5742H208.176ZM179.301 49.5742H169.301C169.301 55.0971 173.778 59.5742 179.301 59.5742V49.5742ZM179.301 38.4883V28.4883C173.778 28.4883 169.301 32.9654 169.301 38.4883H179.301ZM200.441 38.4883V48.4883C205.964 48.4883 210.441 44.0111 210.441 38.4883H200.441ZM200.441 37.2852H210.441C210.441 31.7623 205.964 27.2852 200.441 27.2852V37.2852ZM179.344 37.2852H169.344C169.344 42.808 173.821 47.2852 179.344 47.2852V37.2852ZM179.344 32.2578V22.2578C173.821 22.2578 169.344 26.735 169.344 32.2578H179.344ZM193.395 10.5156V20.5156C195.323 20.5156 196.862 20.6392 198.041 20.8275C199.246 21.02 199.876 21.249 200.098 21.3494C200.328 21.4538 199.82 21.2804 199.213 20.505C198.505 19.6003 198.101 18.4288 198.09 17.3178L208.09 17.2187L218.089 17.1197C218.017 9.78613 213.066 5.26676 208.347 3.13007C203.96 1.14355 198.648 0.515625 193.395 0.515625V10.5156ZM208.09 17.2187L198.09 17.1207C198.101 16.0441 198.489 14.8886 199.191 13.985C199.795 13.2084 200.305 13.0316 200.082 13.133C199.865 13.2315 199.24 13.4603 198.037 13.6529C196.861 13.8412 195.323 13.9648 193.395 13.9648V23.9648V33.9648C198.645 33.9648 203.967 33.3378 208.364 31.3377C213.118 29.1749 218.018 24.6299 218.089 17.3168L208.09 17.2187ZM193.395 23.9648V13.9648C191.453 13.9648 189.898 13.841 188.704 13.6512C187.482 13.4568 186.842 13.2253 186.616 13.1231C186.378 13.0155 186.909 13.1961 187.535 14.0048C188.269 14.9544 188.667 16.1768 188.656 17.3168L178.656 17.2187L168.657 17.1207C168.583 24.6082 173.639 29.2059 178.378 31.3476C182.783 33.3391 188.129 33.9648 193.395 33.9648V23.9648ZM178.656 17.2187L188.656 17.1197C188.667 18.2952 188.254 19.5344 187.513 20.4852C186.884 21.2927 186.354 21.4698 186.599 21.3593C186.831 21.2552 187.476 21.0234 188.701 20.8292C189.897 20.6394 191.453 20.5156 193.395 20.5156V10.5156V0.515625C188.126 0.515625 182.79 1.14229 178.394 3.12017C173.692 5.23532 168.582 9.80756 168.657 17.3178L178.656 17.2187ZM193.395 15.5V5.5C190.646 5.5 187.776 5.60872 185.369 6.16502C184.213 6.43215 182.17 7.01263 180.232 8.49003C177.857 10.3003 175.875 13.3361 175.875 17.2187H185.875H195.875C195.875 18.6243 195.544 20.1198 194.793 21.5217C194.065 22.8801 193.129 23.807 192.357 24.3952C191.611 24.9644 190.952 25.2695 190.582 25.4187C190.201 25.5729 189.939 25.636 189.872 25.6514C189.768 25.6754 189.968 25.623 190.654 25.5748C191.301 25.5294 192.193 25.5 193.395 25.5V15.5ZM185.875 17.2187H175.875C175.875 20.5239 177.313 23.706 180.014 25.8861C182.137 27.5992 184.42 28.1787 185.576 28.4201C187.931 28.9121 190.839 28.9603 193.315 28.9801L193.395 18.9805L193.475 8.98079C192.179 8.97042 191.225 8.94762 190.507 8.90785C189.739 8.86526 189.545 8.81754 189.665 8.84263C189.747 8.85961 190.065 8.92924 190.518 9.10871C190.966 9.2859 191.734 9.64408 192.575 10.3225C193.463 11.0393 194.374 12.0705 195.024 13.4499C195.67 14.8216 195.875 16.1475 195.875 17.2187H185.875ZM193.395 18.9805L193.474 28.9802C195.97 28.9603 198.885 28.912 201.242 28.4219C202.397 28.1817 204.683 27.6047 206.808 25.8933C209.517 23.7125 210.957 20.5264 210.957 17.2187L200.957 17.2187H190.957C190.957 16.1476 191.162 14.8198 191.81 13.4457C192.462 12.0637 193.375 11.0318 194.265 10.3153C195.107 9.63745 195.876 9.28046 196.322 9.10441C196.775 8.92603 197.091 8.85723 197.17 8.84082C197.285 8.81682 197.086 8.86492 196.31 8.90766C195.585 8.94759 194.622 8.97041 193.315 8.98078L193.395 18.9805ZM200.957 17.2187L210.957 17.2187C210.957 13.3329 208.971 10.294 206.59 8.48317C204.65 7.00718 202.604 6.42878 201.448 6.16284C199.04 5.60863 196.162 5.5 193.395 5.5V15.5V25.5C194.608 25.5 195.51 25.5295 196.165 25.5751C196.858 25.6235 197.063 25.6765 196.964 25.6536C196.899 25.6388 196.639 25.5764 196.258 25.4232C195.89 25.2749 195.231 24.9708 194.483 24.4021C193.71 23.8142 192.772 22.8868 192.042 21.5261C191.288 20.1218 190.957 18.6244 190.957 17.2187H200.957ZM211.527 25.2969L201.527 25.2969V30.7539H211.527H221.527V25.2969H211.527ZM211.527 30.7539V20.7539L175.262 20.7539V30.7539V40.7539H211.527V30.7539ZM175.262 30.7539H185.262V25.2969H175.262H165.262V30.7539H175.262ZM175.262 25.2969V35.2969H211.527V25.2969V15.2969L175.262 15.2969V25.2969ZM207.23 32.2578H197.23V43.2148H207.23H217.23V32.2578H207.23ZM207.23 43.2148V33.2148H186.047V43.2148V53.2148H207.23V43.2148ZM186.047 43.2148H176.047V44.5039H186.047H196.047V43.2148H186.047ZM186.047 44.5039V54.5039H208.176V44.5039V34.5039H186.047V44.5039ZM208.176 44.5039H198.176V49.5742H208.176H218.176V44.5039H208.176ZM208.176 49.5742V39.5742H179.301V49.5742V59.5742H208.176V49.5742ZM179.301 49.5742H189.301V38.4883H179.301H169.301V49.5742H179.301ZM179.301 38.4883V48.4883H200.441V38.4883V28.4883H179.301V38.4883ZM200.441 38.4883H210.441V37.2852H200.441H190.441V38.4883H200.441ZM200.441 37.2852V27.2852H179.344V37.2852V47.2852H200.441V37.2852ZM179.344 37.2852H189.344V32.2578H179.344H169.344V37.2852H179.344ZM179.344 32.2578V42.2578H207.23V32.2578V22.2578L179.344 22.2578V32.2578ZM256.344 10.0859H266.344C266.344 4.56309 261.867 0.0859375 256.344 0.0859375V10.0859ZM256.344 31.8711V41.8711C261.867 41.8711 266.344 37.3939 266.344 31.8711H256.344ZM249.469 31.8711H239.469C239.469 37.3939 243.946 41.8711 249.469 41.8711V31.8711ZM249.469 10.0859V0.0859375C243.946 0.0859375 239.469 4.56309 239.469 10.0859H249.469ZM256.602 33.2031H266.602C266.602 27.6803 262.124 23.2031 256.602 23.2031V33.2031ZM256.602 38.7031V48.7031C262.124 48.7031 266.602 44.226 266.602 38.7031H256.602ZM252.348 38.7031V28.7031C246.825 28.7031 242.348 33.1803 242.348 38.7031H252.348ZM252.348 43.9023H242.348C242.348 49.4252 246.825 53.9023 252.348 53.9023V43.9023ZM256.902 43.9023H266.902C266.902 38.3795 262.425 33.9023 256.902 33.9023V43.9023ZM256.902 49.4023V59.4023C262.425 59.4023 266.902 54.9252 266.902 49.4023H256.902ZM228.672 49.4023H218.672C218.672 54.9252 223.149 59.4023 228.672 59.4023V49.4023ZM228.672 43.9023V33.9023C223.149 33.9023 218.672 38.3795 218.672 43.9023H228.672ZM233.27 43.9023V53.9023C238.792 53.9023 243.27 49.4252 243.27 43.9023H233.27ZM233.27 38.7031H243.27C243.27 33.1803 238.792 28.7031 233.27 28.7031V38.7031ZM229.016 38.7031H219.016C219.016 44.226 223.493 48.7031 229.016 48.7031V38.7031ZM229.016 33.2031V23.2031C223.493 23.2031 219.016 27.6803 219.016 33.2031H229.016ZM246.332 12.0625H256.332C256.332 6.53965 251.855 2.0625 246.332 2.0625V12.0625ZM246.332 17.3906V27.3906C251.855 27.3906 256.332 22.9135 256.332 17.3906H246.332ZM239.199 17.3906V7.39062C236.325 7.39062 233.589 8.62766 231.691 10.7861C229.792 12.9445 228.914 15.8156 229.281 18.6667L239.199 17.3906ZM248.137 26.3281L256.582 31.6835C258.291 28.9886 258.611 25.6399 257.444 22.67C256.276 19.7 253.762 17.4656 250.675 16.6556L248.137 26.3281ZM244.785 31.6133L242.126 41.2532C246.367 42.4231 250.874 40.684 253.23 36.9687L244.785 31.6133ZM235.719 24.9102L244.394 19.9357C242.587 16.7853 239.215 14.8619 235.583 14.9111C231.952 14.9603 228.633 16.9743 226.912 20.1725L235.719 24.9102ZM226.18 32.3008L217.746 37.6739C220.109 41.3833 224.618 43.1131 228.856 41.936L226.18 32.3008ZM222.785 26.9727L220.016 17.3637C216.987 18.2368 214.546 20.4872 213.431 23.4361C212.316 26.385 212.657 29.687 214.351 32.3458L222.785 26.9727ZM232.023 17.3906L241.923 18.8048C242.333 15.9351 241.477 13.0286 239.578 10.8386C237.679 8.64861 234.922 7.39062 232.023 7.39062V17.3906ZM224.59 17.3906H214.59C214.59 22.9135 219.067 27.3906 224.59 27.3906V17.3906ZM224.59 12.0625V2.0625C219.067 2.0625 214.59 6.53965 214.59 12.0625H224.59ZM240.102 43.9023H230.102C230.102 49.4252 234.579 53.9023 240.102 53.9023V43.9023ZM245.516 43.9023V53.9023C251.038 53.9023 255.516 49.4252 255.516 43.9023H245.516ZM245.516 38.7031H255.516C255.516 33.1803 251.038 28.7031 245.516 28.7031V38.7031ZM240.102 38.7031V28.7031C234.579 28.7031 230.102 33.1803 230.102 38.7031H240.102ZM256.344 10.0859H246.344V31.8711H256.344H266.344V10.0859H256.344ZM256.344 31.8711V21.8711H249.469V31.8711V41.8711H256.344V31.8711ZM249.469 31.8711H259.469V10.0859H249.469H239.469V31.8711H249.469ZM249.469 10.0859V20.0859H256.344V10.0859V0.0859375H249.469V10.0859ZM256.602 33.2031H246.602V38.7031H256.602H266.602V33.2031H256.602ZM256.602 38.7031V28.7031H252.348V38.7031V48.7031H256.602V38.7031ZM252.348 38.7031H242.348V43.9023H252.348H262.348V38.7031H252.348ZM252.348 43.9023V53.9023H256.902V43.9023V33.9023H252.348V43.9023ZM256.902 43.9023H246.902V49.4023H256.902H266.902V43.9023H256.902ZM256.902 49.4023V39.4023H228.672V49.4023V59.4023H256.902V49.4023ZM228.672 49.4023H238.672V43.9023H228.672H218.672V49.4023H228.672ZM228.672 43.9023V53.9023H233.27V43.9023V33.9023H228.672V43.9023ZM233.27 43.9023H243.27V38.7031H233.27H223.27V43.9023H233.27ZM233.27 38.7031V28.7031H229.016V38.7031V48.7031H233.27V38.7031ZM229.016 38.7031H239.016V33.2031H229.016H219.016V38.7031H229.016ZM229.016 33.2031V43.2031H256.602V33.2031V23.2031H229.016V33.2031ZM246.332 12.0625L236.332 12.0625V17.3906H246.332H256.332V12.0625H246.332ZM246.332 17.3906V7.39062H239.199V17.3906V27.3906H246.332V17.3906ZM239.199 17.3906L229.281 18.6667C229.742 22.2517 231.193 26.0543 234.138 29.3284C237.081 32.6 241.024 34.8004 245.599 36.0006L248.137 26.3281L250.675 16.6556C249.917 16.4567 249.472 16.245 249.245 16.1138C249.025 15.9874 248.977 15.919 249.008 15.9533C249.039 15.9878 249.08 16.0481 249.108 16.1127C249.132 16.1687 249.126 16.1772 249.117 16.1146L239.199 17.3906ZM248.137 26.3281L239.692 20.9727L236.34 26.2579L244.785 31.6133L253.23 36.9687L256.582 31.6835L248.137 26.3281ZM244.785 31.6133L247.444 21.9734C246.386 21.6813 245.733 21.3092 245.329 21.0021C244.93 20.6982 244.632 20.3512 244.394 19.9357L235.719 24.9102L227.044 29.8846C230.185 35.3631 235.358 39.3861 242.126 41.2532L244.785 31.6133ZM235.719 24.9102L226.912 20.1725C226.592 20.7678 226.211 21.2238 225.754 21.5889C225.301 21.9517 224.607 22.3589 223.503 22.6656L226.18 32.3008L228.856 41.936C236.137 39.9135 241.416 35.4282 244.525 29.6478L235.719 24.9102ZM226.18 32.3008L234.613 26.9276L231.219 21.5995L222.785 26.9727L214.351 32.3458L217.746 37.6739L226.18 32.3008ZM222.785 26.9727L225.554 36.5816C230.206 35.2411 234.139 32.8964 237.057 29.5464C239.964 26.2078 241.411 22.3877 241.923 18.8048L232.023 17.3906L222.124 15.9764C222.077 16.3037 221.999 16.383 221.974 16.4121C221.958 16.4297 221.552 16.921 220.016 17.3637L222.785 26.9727ZM232.023 17.3906V7.39062H224.59V17.3906V27.3906H232.023V17.3906ZM224.59 17.3906H234.59V12.0625H224.59H214.59V17.3906H224.59ZM224.59 12.0625V22.0625H246.332V12.0625V2.0625H224.59V12.0625ZM240.102 43.9023V53.9023H245.516V43.9023V33.9023H240.102V43.9023ZM245.516 43.9023H255.516V38.7031H245.516H235.516V43.9023H245.516ZM245.516 38.7031V28.7031H240.102V38.7031V48.7031H245.516V38.7031ZM240.102 38.7031H230.102V43.9023H240.102H250.102V38.7031H240.102ZM293.254 20.0977H303.254C303.254 14.5748 298.777 10.0977 293.254 10.0977V20.0977ZM293.254 25.4258V35.4258C298.777 35.4258 303.254 30.9486 303.254 25.4258H293.254ZM265.152 25.4258H255.152C255.152 30.9486 259.63 35.4258 265.152 35.4258V25.4258ZM265.152 11.418V1.41797C259.63 1.41797 255.152 5.89512 255.152 11.418H265.152ZM272.027 11.418H282.027C282.027 5.89512 277.55 1.41797 272.027 1.41797V11.418ZM272.027 20.0977H262.027C262.027 25.6205 266.505 30.0977 272.027 30.0977V20.0977ZM297.164 28.9492H307.164C307.164 23.4264 302.687 18.9492 297.164 18.9492V28.9492ZM297.164 34.2773V44.2773C302.687 44.2773 307.164 39.8002 307.164 34.2773H297.164ZM260.898 34.2773H250.898C250.898 39.8002 255.376 44.2773 260.898 44.2773V34.2773ZM260.898 28.9492V18.9492C255.376 18.9492 250.898 23.4264 250.898 28.9492H260.898ZM293.512 43.4727H303.512C303.512 37.9498 299.035 33.4727 293.512 33.4727V43.4727ZM293.512 48.9727V58.9727C299.035 58.9727 303.512 54.4955 303.512 48.9727H293.512ZM264.68 48.9727H254.68C254.68 54.4955 259.157 58.9727 264.68 58.9727V48.9727ZM264.68 37.0273V27.0273C259.157 27.0273 254.68 31.5045 254.68 37.0273H264.68ZM271.641 37.0273H281.641C281.641 31.5045 277.163 27.0273 271.641 27.0273V37.0273ZM271.641 43.4727H261.641C261.641 48.9955 266.118 53.4727 271.641 53.4727V43.4727ZM293.254 20.0977H283.254V25.4258H293.254H303.254V20.0977H293.254ZM293.254 25.4258V15.4258H265.152V25.4258V35.4258H293.254V25.4258ZM265.152 25.4258H275.152V11.418H265.152H255.152V25.4258H265.152ZM265.152 11.418V21.418H272.027V11.418V1.41797H265.152V11.418ZM272.027 11.418H262.027V20.0977H272.027H282.027V11.418H272.027ZM272.027 20.0977V30.0977H293.254V20.0977V10.0977H272.027V20.0977ZM297.164 28.9492H287.164V34.2773H297.164H307.164V28.9492H297.164ZM297.164 34.2773V24.2773H260.898V34.2773V44.2773H297.164V34.2773ZM260.898 34.2773H270.898V28.9492H260.898H250.898V34.2773H260.898ZM260.898 28.9492V38.9492H297.164V28.9492V18.9492H260.898V28.9492ZM293.512 43.4727H283.512V48.9727H293.512H303.512V43.4727H293.512ZM293.512 48.9727V38.9727H264.68V48.9727V58.9727H293.512V48.9727ZM264.68 48.9727H274.68V37.0273H264.68H254.68V48.9727H264.68ZM264.68 37.0273V47.0273H271.641V37.0273V27.0273H264.68V37.0273ZM271.641 37.0273H261.641V43.4727H271.641H281.641V37.0273H271.641ZM271.641 43.4727V53.4727H293.512V43.4727V33.4727H271.641V43.4727Z" fill="white" mask="url(#path-1-outside-1_6524_1804)"/>
</g>
<defs>
<filter id="filter0_d_6524_1804" x="0" y="0" width="311.164" height="67.875" filterUnits="userSpaceOnUse" color-interpolation-filters="sRGB">
<feFlood flood-opacity="0" result="BackgroundImageFix"/>
<feColorMatrix in="SourceAlpha" type="matrix" values="0 0 0 0 0 0 0 0 0 0 0 0 0 0 0 0 0 0 127 0" result="hardAlpha"/>
<feOffset dy="4"/>
<feGaussianBlur stdDeviation="2"/>
<feComposite in2="hardAlpha" operator="out"/>
<feColorMatrix type="matrix" values="0 0 0 0 0 0 0 0 0 0 0 0 0 0 0 0 0 0 0.07 0"/>
<feBlend mode="normal" in2="BackgroundImageFix" result="effect1_dropShadow_6524_1804"/>
<feBlend mode="normal" in="SourceGraphic" in2="effect1_dropShadow_6524_1804" result="shape"/>
</filter>
</defs>
</svg>
