<svg width="389" height="68" viewBox="0 0 389 68" fill="none" xmlns="http://www.w3.org/2000/svg">
<g filter="url(#filter0_d_6526_5747)">
<mask id="path-1-outside-1_6526_5747" maskUnits="userSpaceOnUse" x="3.17188" y="-0.378906" width="382" height="61" fill="black">
<rect fill="white" x="3.17188" y="-0.378906" width="382" height="61"/>
<path d="M30.543 20.0977C30.5 25.9844 32.8203 32.9453 39.8672 36.125L36.0859 41.4961C31.7676 39.6055 28.8887 36.0176 27.1914 31.6992C25.4512 36.5117 22.4863 40.4863 17.9531 42.5273L14 37.1133C21.1758 33.8047 23.5391 26.543 23.5391 20.0977V19.4102H15.6758V13.8242H37.9336V19.4102H30.543V20.0977ZM46.7852 10.1289V24.7383H52.1562V30.4531H46.7852V49.875H39.8672V10.1289L46.7852 10.1289ZM86.832 10.1289V49.875H79.8281V10.1289H86.832ZM74.8008 14.2109C74.8008 26.6719 71.2773 36.5977 56.5391 43.4727L53.0156 38.0586C62.9414 33.332 66.916 27.875 67.7969 19.582H55.293V14.2109H74.8008ZM116.566 15.0273C116.566 20.1406 118.457 24.9961 125.203 26.9727L121.594 32.3438C117.49 30.9902 114.826 28.5625 113.215 25.3828C111.453 29.1426 108.402 32.1074 103.762 33.5898L100.109 28.0898C107.414 25.8984 109.562 20.5273 109.605 15.3711V12.1055L116.566 12.1055V15.0273ZM134.527 10.1289V33.2891H127.652V22.2461H121.121V16.6602H127.652V10.1289H134.527ZM120.691 34.2344C129.328 34.2344 134.613 37.1562 134.613 42.0977C134.613 47.082 129.328 49.9609 120.691 49.9609C112.141 49.9609 106.855 47.082 106.855 42.0977C106.855 37.1562 112.141 34.2344 120.691 34.2344ZM120.691 39.5195C115.965 39.5195 113.688 40.25 113.73 42.0977C113.688 43.8594 115.965 44.6328 120.691 44.6328C125.461 44.6328 127.781 43.8594 127.781 42.0977C127.781 40.25 125.461 39.5195 120.691 39.5195ZM175.219 15.2422V20.7852H170.535V23.9219H175.219V29.4648H170.535V35.1367H163.617V10.1289H170.535V15.2422H175.219ZM157.258 35.5664C165.551 35.5664 170.922 38.2734 170.965 42.7852C170.922 47.2109 165.551 49.9609 157.258 49.9609C148.793 49.9609 143.508 47.2109 143.551 42.7852C143.508 38.2734 148.793 35.5664 157.258 35.5664ZM157.258 40.7656C152.574 40.7656 150.383 41.2383 150.383 42.7852C150.383 44.2031 152.574 44.8906 157.258 44.8906C161.812 44.8906 164.004 44.2031 164.004 42.7852C164.004 41.2383 161.812 40.7656 157.258 40.7656ZM162.199 13.4805V18.8086H138.695V13.4805H146.988V10H153.906V13.4805H162.199ZM150.426 19.7109C156.227 19.7109 160.352 22.7187 160.352 26.9297C160.352 31.2266 156.227 34.1055 150.426 34.1484C144.539 34.1055 140.414 31.2266 140.414 26.9297C140.414 22.7187 144.539 19.7109 150.426 19.7109ZM150.426 24.6953C148.449 24.6953 147.16 25.3398 147.16 26.9297C147.16 28.4766 148.449 29.1211 150.426 29.1211C152.445 29.1211 153.82 28.4766 153.82 26.9297C153.82 25.3398 152.445 24.6953 150.426 24.6953ZM211.441 10.1289V49.875H204.867V10.1289H211.441ZM202.977 10.6016V48.1562H196.488V29.7656H194.555C193.975 37.5859 190.645 42.2266 185.746 42.2266C180.418 42.2266 176.98 36.6406 177.023 27.4023C176.98 18.25 180.418 12.6641 185.746 12.6641C190.494 12.6641 193.76 17.0254 194.512 24.3516H196.488V10.6016H202.977ZM185.746 19.1953C184.113 19.1953 183.297 21.5586 183.34 27.4023C183.297 33.2891 184.113 35.6094 185.746 35.6094C187.422 35.6094 188.324 33.2891 188.324 27.4023C188.324 21.5586 187.422 19.1953 185.746 19.1953ZM245.344 13.4375V23.4062H251.445V10.1289H258.277V50.0039H251.445V28.9062H245.344V40.4219H225.75V13.4375H245.344ZM232.625 18.7227V35.1367H238.598V18.7227H232.625ZM298.668 31.8281V37.2852H283.801V49.832H276.969V37.2852H262.402V31.8281H298.668ZM294.586 11.9336V28.2617H266.398V11.9336H294.586ZM273.145 17.3477V22.8906H287.711V17.3477H273.145ZM336.738 40.1211V45.707H300.43V40.1211H336.738ZM332.828 12.6211V26.5859H311.301V29.8516H333.73V35.2227H304.383V21.1719H325.996V18.0781H304.34V12.6211H332.828ZM370.812 20.2266V25.5547H342.711V11.5469H349.586V20.2266H370.812ZM374.723 29.0781V34.4062H338.457V29.0781H374.723ZM371.07 43.6016V49.1016H342.238V37.1562H349.199V43.6016H371.07Z"/>
</mask>
<path d="M30.543 20.0977C30.5 25.9844 32.8203 32.9453 39.8672 36.125L36.0859 41.4961C31.7676 39.6055 28.8887 36.0176 27.1914 31.6992C25.4512 36.5117 22.4863 40.4863 17.9531 42.5273L14 37.1133C21.1758 33.8047 23.5391 26.543 23.5391 20.0977V19.4102H15.6758V13.8242H37.9336V19.4102H30.543V20.0977ZM46.7852 10.1289V24.7383H52.1562V30.4531H46.7852V49.875H39.8672V10.1289L46.7852 10.1289ZM86.832 10.1289V49.875H79.8281V10.1289H86.832ZM74.8008 14.2109C74.8008 26.6719 71.2773 36.5977 56.5391 43.4727L53.0156 38.0586C62.9414 33.332 66.916 27.875 67.7969 19.582H55.293V14.2109H74.8008ZM116.566 15.0273C116.566 20.1406 118.457 24.9961 125.203 26.9727L121.594 32.3438C117.49 30.9902 114.826 28.5625 113.215 25.3828C111.453 29.1426 108.402 32.1074 103.762 33.5898L100.109 28.0898C107.414 25.8984 109.562 20.5273 109.605 15.3711V12.1055L116.566 12.1055V15.0273ZM134.527 10.1289V33.2891H127.652V22.2461H121.121V16.6602H127.652V10.1289H134.527ZM120.691 34.2344C129.328 34.2344 134.613 37.1562 134.613 42.0977C134.613 47.082 129.328 49.9609 120.691 49.9609C112.141 49.9609 106.855 47.082 106.855 42.0977C106.855 37.1562 112.141 34.2344 120.691 34.2344ZM120.691 39.5195C115.965 39.5195 113.688 40.25 113.73 42.0977C113.688 43.8594 115.965 44.6328 120.691 44.6328C125.461 44.6328 127.781 43.8594 127.781 42.0977C127.781 40.25 125.461 39.5195 120.691 39.5195ZM175.219 15.2422V20.7852H170.535V23.9219H175.219V29.4648H170.535V35.1367H163.617V10.1289H170.535V15.2422H175.219ZM157.258 35.5664C165.551 35.5664 170.922 38.2734 170.965 42.7852C170.922 47.2109 165.551 49.9609 157.258 49.9609C148.793 49.9609 143.508 47.2109 143.551 42.7852C143.508 38.2734 148.793 35.5664 157.258 35.5664ZM157.258 40.7656C152.574 40.7656 150.383 41.2383 150.383 42.7852C150.383 44.2031 152.574 44.8906 157.258 44.8906C161.812 44.8906 164.004 44.2031 164.004 42.7852C164.004 41.2383 161.812 40.7656 157.258 40.7656ZM162.199 13.4805V18.8086H138.695V13.4805H146.988V10H153.906V13.4805H162.199ZM150.426 19.7109C156.227 19.7109 160.352 22.7187 160.352 26.9297C160.352 31.2266 156.227 34.1055 150.426 34.1484C144.539 34.1055 140.414 31.2266 140.414 26.9297C140.414 22.7187 144.539 19.7109 150.426 19.7109ZM150.426 24.6953C148.449 24.6953 147.16 25.3398 147.16 26.9297C147.16 28.4766 148.449 29.1211 150.426 29.1211C152.445 29.1211 153.82 28.4766 153.82 26.9297C153.82 25.3398 152.445 24.6953 150.426 24.6953ZM211.441 10.1289V49.875H204.867V10.1289H211.441ZM202.977 10.6016V48.1562H196.488V29.7656H194.555C193.975 37.5859 190.645 42.2266 185.746 42.2266C180.418 42.2266 176.98 36.6406 177.023 27.4023C176.98 18.25 180.418 12.6641 185.746 12.6641C190.494 12.6641 193.76 17.0254 194.512 24.3516H196.488V10.6016H202.977ZM185.746 19.1953C184.113 19.1953 183.297 21.5586 183.34 27.4023C183.297 33.2891 184.113 35.6094 185.746 35.6094C187.422 35.6094 188.324 33.2891 188.324 27.4023C188.324 21.5586 187.422 19.1953 185.746 19.1953ZM245.344 13.4375V23.4062H251.445V10.1289H258.277V50.0039H251.445V28.9062H245.344V40.4219H225.75V13.4375H245.344ZM232.625 18.7227V35.1367H238.598V18.7227H232.625ZM298.668 31.8281V37.2852H283.801V49.832H276.969V37.2852H262.402V31.8281H298.668ZM294.586 11.9336V28.2617H266.398V11.9336H294.586ZM273.145 17.3477V22.8906H287.711V17.3477H273.145ZM336.738 40.1211V45.707H300.43V40.1211H336.738ZM332.828 12.6211V26.5859H311.301V29.8516H333.73V35.2227H304.383V21.1719H325.996V18.0781H304.34V12.6211H332.828ZM370.812 20.2266V25.5547H342.711V11.5469H349.586V20.2266H370.812ZM374.723 29.0781V34.4062H338.457V29.0781H374.723ZM371.07 43.6016V49.1016H342.238V37.1562H349.199V43.6016H371.07Z" fill="#11DCA9"/>
<path d="M30.543 20.0977L40.5427 20.1706C40.5429 20.1463 40.543 20.122 40.543 20.0977H30.543ZM39.8672 36.125L48.0441 41.8816C49.7608 39.4431 50.2996 36.3656 49.5135 33.4889C48.7274 30.6122 46.6983 28.2365 43.9801 27.0099L39.8672 36.125ZM36.0859 41.4961L32.0754 50.6566C36.4305 52.5634 41.526 51.1402 44.2629 47.2526L36.0859 41.4961ZM27.1914 31.6992L36.4984 28.0413C34.9762 24.1684 31.2147 21.6429 27.0539 21.7002C22.893 21.7574 19.2024 24.3854 17.7874 28.2986L27.1914 31.6992ZM17.9531 42.5273L9.87687 48.4243C12.6652 52.243 17.747 53.587 22.0586 51.6457L17.9531 42.5273ZM14 37.1133L9.81287 28.0321C7.09021 29.2875 5.07445 31.6982 4.32096 34.6001C3.56747 37.502 4.15576 40.5889 5.92374 43.0102L14 37.1133ZM23.5391 19.4102H33.5391C33.5391 13.8873 29.0619 9.41016 23.5391 9.41016V19.4102ZM15.6758 19.4102H5.67578C5.67578 24.933 10.1529 29.4102 15.6758 29.4102V19.4102ZM15.6758 13.8242V3.82422C10.1529 3.82422 5.67578 8.30137 5.67578 13.8242H15.6758ZM37.9336 13.8242H47.9336C47.9336 8.30137 43.4564 3.82422 37.9336 3.82422V13.8242ZM37.9336 19.4102V29.4102C43.4564 29.4102 47.9336 24.933 47.9336 19.4102H37.9336ZM30.543 19.4102V9.41016C25.0201 9.41016 20.543 13.8873 20.543 19.4102H30.543ZM46.7852 10.1289H56.7852C56.7852 4.60606 52.308 0.128906 46.7852 0.128906V10.1289ZM46.7852 24.7383H36.7852C36.7852 30.2611 41.2623 34.7383 46.7852 34.7383V24.7383ZM52.1562 24.7383H62.1562C62.1562 19.2154 57.6791 14.7383 52.1562 14.7383V24.7383ZM52.1562 30.4531V40.4531C57.6791 40.4531 62.1562 35.976 62.1562 30.4531H52.1562ZM46.7852 30.4531V20.4531C41.2623 20.4531 36.7852 24.9303 36.7852 30.4531H46.7852ZM46.7852 49.875V59.875C52.308 59.875 56.7852 55.3978 56.7852 49.875H46.7852ZM39.8672 49.875H29.8672C29.8672 55.3978 34.3443 59.875 39.8672 59.875V49.875ZM39.8672 10.1289V0.128906C34.3443 0.128906 29.8672 4.60606 29.8672 10.1289H39.8672ZM30.543 20.0977L20.5432 20.0247C20.484 28.1415 23.7517 39.8242 35.7543 45.2401L39.8672 36.125L43.9801 27.0099C42.7356 26.4484 41.9946 25.6489 41.4672 24.6077C40.8716 23.4318 40.5304 21.8591 40.5427 20.1706L30.543 20.0977ZM39.8672 36.125L31.6903 30.3684L27.909 35.7395L36.0859 41.4961L44.2629 47.2526L48.0441 41.8816L39.8672 36.125ZM36.0859 41.4961L40.0965 32.3356C38.7627 31.7516 37.4773 30.5319 36.4984 28.0413L27.1914 31.6992L17.8845 35.3572C20.3001 41.5033 24.7725 47.4593 32.0754 50.6566L36.0859 41.4961ZM27.1914 31.6992L17.7874 28.2986C16.6626 31.4092 15.2019 32.7992 13.8477 33.4089L17.9531 42.5273L22.0586 51.6457C29.7707 48.1734 34.2398 41.6143 36.5955 35.0998L27.1914 31.6992ZM17.9531 42.5273L26.0294 36.6304L22.0763 31.2163L14 37.1133L5.92374 43.0102L9.87687 48.4243L17.9531 42.5273ZM14 37.1133L18.1871 46.1945C30.3906 40.5677 33.5391 28.4918 33.5391 20.0977H23.5391H13.5391C13.5391 22.1861 13.144 24.0283 12.4815 25.3797C11.8881 26.5901 11.0828 27.4466 9.81287 28.0321L14 37.1133ZM23.5391 20.0977H33.5391V19.4102H23.5391H13.5391V20.0977H23.5391ZM23.5391 19.4102V9.41016H15.6758V19.4102V29.4102H23.5391V19.4102ZM15.6758 19.4102H25.6758V13.8242H15.6758H5.67578V19.4102H15.6758ZM15.6758 13.8242V23.8242H37.9336V13.8242V3.82422L15.6758 3.82422V13.8242ZM37.9336 13.8242H27.9336V19.4102H37.9336H47.9336V13.8242H37.9336ZM37.9336 19.4102V9.41016H30.543V19.4102V29.4102H37.9336V19.4102ZM30.543 19.4102H20.543V20.0977H30.543H40.543V19.4102H30.543ZM46.7852 10.1289L36.7852 10.1289V24.7383H46.7852H56.7852V10.1289H46.7852ZM46.7852 24.7383V34.7383H52.1562V24.7383V14.7383H46.7852V24.7383ZM52.1562 24.7383H42.1562V30.4531H52.1562H62.1562V24.7383H52.1562ZM52.1562 30.4531V20.4531H46.7852V30.4531V40.4531H52.1562V30.4531ZM46.7852 30.4531H36.7852V49.875H46.7852H56.7852V30.4531H46.7852ZM46.7852 49.875V39.875H39.8672V49.875V59.875H46.7852V49.875ZM39.8672 49.875H49.8672V10.1289L39.8672 10.1289H29.8672V49.875H39.8672ZM39.8672 10.1289V20.1289H46.7852V10.1289V0.128906H39.8672V10.1289ZM86.832 10.1289H96.832C96.832 4.60606 92.3549 0.128906 86.832 0.128906V10.1289ZM86.832 49.875V59.875C92.3549 59.875 96.832 55.3978 96.832 49.875H86.832ZM79.8281 49.875H69.8281C69.8281 55.3978 74.3053 59.875 79.8281 59.875V49.875ZM79.8281 10.1289V0.128906C74.3053 0.128906 69.8281 4.60606 69.8281 10.1289H79.8281ZM74.8008 14.2109L84.8008 14.2109C84.8008 8.68809 80.3236 4.21094 74.8008 4.21094V14.2109ZM56.5391 43.4727L48.1577 48.9272C50.8751 53.1028 56.2516 54.6412 60.7665 52.5352L56.5391 43.4727ZM53.0156 38.0586L48.7163 29.03C46.1138 30.2693 44.1726 32.5714 43.3906 35.3458C42.6086 38.1202 43.0619 41.0972 44.6342 43.5132L53.0156 38.0586ZM67.7969 19.582L77.7409 20.6383C78.0405 17.8181 77.1285 15.0034 75.232 12.8948C73.3355 10.7862 70.6329 9.58203 67.7969 9.58203V19.582ZM55.293 19.582H45.293C45.293 25.1049 49.7701 29.582 55.293 29.582V19.582ZM55.293 14.2109V4.21094C49.7701 4.21094 45.293 8.68809 45.293 14.2109H55.293ZM86.832 10.1289H76.832V49.875H86.832H96.832V10.1289H86.832ZM86.832 49.875V39.875H79.8281V49.875V59.875H86.832V49.875ZM79.8281 49.875H89.8281V10.1289H79.8281H69.8281V49.875H79.8281ZM79.8281 10.1289V20.1289H86.832V10.1289V0.128906L79.8281 0.128906V10.1289ZM74.8008 14.2109H64.8008C64.8008 19.5855 64.0224 23.2609 62.4566 26.0777C60.9741 28.7443 58.2199 31.6541 52.3117 34.4101L56.5391 43.4727L60.7665 52.5352C69.5965 48.4162 75.9732 42.9256 79.937 35.7954C83.8174 28.8153 84.8008 21.2973 84.8008 14.2109L74.8008 14.2109ZM56.5391 43.4727L64.9205 38.0181L61.397 32.604L53.0156 38.0586L44.6342 43.5132L48.1577 48.9272L56.5391 43.4727ZM53.0156 38.0586L57.315 47.0872C63.0946 44.335 68.0418 40.9546 71.6691 36.3259C75.4069 31.5564 77.1473 26.2271 77.7409 20.6383L67.7969 19.582L57.8528 18.5258C57.5656 21.2299 56.8783 22.7757 55.9271 23.9895C54.8654 25.3443 52.8624 27.0556 48.7163 29.03L53.0156 38.0586ZM67.7969 19.582V9.58203H55.293V19.582V29.582H67.7969V19.582ZM55.293 19.582H65.293V14.2109H55.293H45.293V19.582H55.293ZM55.293 14.2109V24.2109H74.8008V14.2109V4.21094L55.293 4.21094V14.2109ZM125.203 26.9727L133.503 32.5503C135.281 29.9043 135.691 26.5692 134.607 23.5714C133.523 20.5736 131.074 18.2724 128.015 17.3761L125.203 26.9727ZM121.594 32.3438L118.461 41.8405C122.72 43.2451 127.393 41.6432 129.894 37.9214L121.594 32.3438ZM113.215 25.3828L122.135 20.8625C120.406 17.4516 116.884 15.325 113.061 15.384C109.237 15.443 105.782 17.6772 104.16 21.1398L113.215 25.3828ZM103.762 33.5898L95.4312 39.1218C97.9038 42.8452 102.547 44.4757 106.805 43.1156L103.762 33.5898ZM100.109 28.0898L97.2359 18.5116C94.2026 19.4216 91.7796 21.7145 90.7039 24.6931C89.6283 27.6716 90.027 30.9837 91.7789 33.6218L100.109 28.0898ZM109.605 15.3711L119.605 15.4544C119.605 15.4266 119.605 15.3989 119.605 15.3711H109.605ZM109.605 12.1055V2.10547C104.083 2.10547 99.6055 6.58262 99.6055 12.1055H109.605ZM116.566 12.1055H126.566C126.566 6.58262 122.089 2.10547 116.566 2.10547V12.1055ZM134.527 10.1289H144.527C144.527 4.60606 140.05 0.128906 134.527 0.128906V10.1289ZM134.527 33.2891V43.2891C140.05 43.2891 144.527 38.8119 144.527 33.2891L134.527 33.2891ZM127.652 33.2891H117.652C117.652 38.8119 122.129 43.2891 127.652 43.2891V33.2891ZM127.652 22.2461H137.652C137.652 16.7232 133.175 12.2461 127.652 12.2461V22.2461ZM121.121 22.2461H111.121C111.121 27.7689 115.598 32.2461 121.121 32.2461V22.2461ZM121.121 16.6602V6.66016C115.598 6.66016 111.121 11.1373 111.121 16.6602H121.121ZM127.652 16.6602V26.6602C133.175 26.6602 137.652 22.183 137.652 16.6602H127.652ZM127.652 10.1289V0.128906C122.129 0.128906 117.652 4.60606 117.652 10.1289H127.652ZM113.73 42.0977L123.727 42.3415C123.731 42.1827 123.731 42.0239 123.728 41.8652L113.73 42.0977ZM116.566 15.0273H106.566C106.566 18.7166 107.235 23.2629 109.881 27.486C112.662 31.9248 116.989 34.9863 122.391 36.5692L125.203 26.9727L128.015 17.3761C127.273 17.1587 126.949 16.9473 126.862 16.8842C126.791 16.8329 126.808 16.8339 126.829 16.8665C126.843 16.8895 126.566 16.4514 126.566 15.0273H116.566ZM125.203 26.9727L116.903 21.395L113.294 26.7661L121.594 32.3438L129.894 37.9214L133.503 32.5503L125.203 26.9727ZM121.594 32.3438L124.726 22.847C123.773 22.5325 123.247 22.1843 122.947 21.9294C122.653 21.6791 122.386 21.3574 122.135 20.8625L113.215 25.3828L104.295 29.9031C107.138 35.5128 111.923 39.684 118.461 41.8405L121.594 32.3438ZM113.215 25.3828L104.16 21.1398C103.528 22.4888 102.593 23.4652 100.719 24.0641L103.762 33.5898L106.805 43.1156C114.211 40.7496 119.379 35.7964 122.27 29.6258L113.215 25.3828ZM103.762 33.5898L112.092 28.0579L108.44 22.5579L100.109 28.0898L91.7789 33.6218L95.4312 39.1218L103.762 33.5898ZM100.109 28.0898L102.983 37.6681C108.677 35.96 113.114 32.7218 115.989 28.2549C118.753 23.9611 119.573 19.3179 119.605 15.4544L109.605 15.3711L99.6058 15.2878C99.595 16.5805 99.3192 17.201 99.172 17.4297C99.1067 17.5311 99.0072 17.656 98.7947 17.8102C98.5716 17.9722 98.1061 18.2505 97.2359 18.5116L100.109 28.0898ZM109.605 15.3711H119.605V12.1055L109.605 12.1055H99.6055V15.3711H109.605ZM109.605 12.1055V22.1055H116.566V12.1055V2.10547H109.605V12.1055ZM116.566 12.1055L106.566 12.1055V15.0273H116.566H126.566V12.1055H116.566ZM134.527 10.1289H124.527V33.2891H134.527L144.527 33.2891V10.1289H134.527ZM134.527 33.2891V23.2891H127.652V33.2891V43.2891H134.527V33.2891ZM127.652 33.2891H137.652V22.2461H127.652H117.652V33.2891H127.652ZM127.652 22.2461V12.2461H121.121V22.2461V32.2461H127.652V22.2461ZM121.121 22.2461H131.121V16.6602H121.121H111.121V22.2461H121.121ZM121.121 16.6602V26.6602H127.652V16.6602V6.66016H121.121V16.6602ZM127.652 16.6602H137.652V10.1289H127.652H117.652V16.6602H127.652ZM127.652 10.1289V20.1289H134.527V10.1289V0.128906L127.652 0.128906V10.1289ZM120.691 34.2344V44.2344C122.305 44.2344 123.567 44.3725 124.499 44.5637C125.447 44.7585 125.893 44.9752 125.995 45.0324C126.08 45.0803 125.688 44.8801 125.271 44.2385C124.812 43.5334 124.613 42.7371 124.613 42.0977H134.613L144.613 42.0977C144.613 35.3104 140.678 30.3397 135.787 27.5936C131.316 25.083 125.916 24.2344 120.691 24.2344V34.2344ZM134.613 42.0977H124.613C124.613 41.4856 124.803 40.6951 125.266 39.9829C125.688 39.3333 126.088 39.127 126.01 39.1707C125.913 39.2248 125.47 39.44 124.517 39.6338C123.582 39.8241 122.314 39.9609 120.691 39.9609V49.9609V59.9609C125.893 59.9609 131.295 59.1303 135.772 56.6262C140.696 53.8722 144.613 48.8873 144.613 42.0977L134.613 42.0977ZM120.691 49.9609V39.9609C119.096 39.9609 117.849 39.825 116.929 39.6366C115.992 39.4447 115.557 39.232 115.465 39.1801C115.391 39.1383 115.788 39.3451 116.207 39.991C116.666 40.6992 116.855 41.486 116.855 42.0977H106.855H96.8555C96.8555 48.8797 100.764 53.8611 105.669 56.6168C110.135 59.1261 115.519 59.9609 120.691 59.9609V49.9609ZM106.855 42.0977H116.855C116.855 42.7367 116.657 43.5294 116.202 44.2304C115.788 44.8683 115.398 45.069 115.48 45.023C115.577 44.9679 116.015 44.7538 116.947 44.5609C117.863 44.3715 119.105 44.2344 120.691 44.2344V34.2344V24.2344C115.496 24.2344 110.114 25.0874 105.654 27.603C100.782 30.3508 96.8555 35.318 96.8555 42.0977H106.855ZM120.691 39.5195V29.5195C118.157 29.5195 114.931 29.6696 112.051 30.7013C110.515 31.2514 108.344 32.3047 106.542 34.4087C104.539 36.7454 103.669 39.5864 103.733 42.3302L113.73 42.0977L123.728 41.8652C123.77 43.6851 123.169 45.7419 121.729 47.422C120.489 48.8693 119.175 49.3937 118.794 49.5302C118.376 49.6798 118.266 49.6504 118.706 49.6016C119.103 49.5575 119.741 49.5195 120.691 49.5195V39.5195ZM113.73 42.0977L103.733 41.8538C103.664 44.7064 104.618 47.5544 106.622 49.8365C108.414 51.8764 110.547 52.9018 112.051 53.4403C114.906 54.463 118.102 54.6328 120.691 54.6328V44.6328V34.6328C119.758 34.6328 119.128 34.5934 118.736 34.5488C118.304 34.4995 118.398 34.4695 118.794 34.6114C119.143 34.7364 120.419 35.2381 121.648 36.6375C123.09 38.2791 123.776 40.3697 123.727 42.3415L113.73 42.0977ZM120.691 44.6328V54.6328C123.308 54.6328 126.495 54.4606 129.342 53.4598C130.836 52.9344 132.939 51.9424 134.733 49.9753C136.739 47.7759 137.781 44.9805 137.781 42.0977H127.781H117.781C117.781 40.0956 118.534 38.0576 119.955 36.4987C121.165 35.1721 122.39 34.7038 122.708 34.592C123.074 34.4633 123.14 34.4968 122.692 34.5473C122.283 34.5933 121.637 34.6328 120.691 34.6328V44.6328ZM127.781 42.0977H137.781C137.781 39.3207 136.824 36.5267 134.816 34.2689C133.009 32.2374 130.867 31.2182 129.342 30.6819C126.47 29.6722 123.254 29.5195 120.691 29.5195V39.5195V49.5195C121.654 49.5195 122.308 49.5576 122.722 49.603C123.177 49.6529 123.095 49.6858 122.708 49.5496C122.359 49.4268 121.096 48.9366 119.873 47.5618C118.448 45.9606 117.781 43.9508 117.781 42.0977H127.781ZM175.219 15.2422H185.219C185.219 9.71934 180.742 5.24219 175.219 5.24219V15.2422ZM175.219 20.7852V30.7852C180.742 30.7852 185.219 26.308 185.219 20.7852H175.219ZM170.535 20.7852V10.7852C165.012 10.7852 160.535 15.2623 160.535 20.7852H170.535ZM170.535 23.9219H160.535C160.535 29.4447 165.012 33.9219 170.535 33.9219V23.9219ZM175.219 23.9219H185.219C185.219 18.399 180.742 13.9219 175.219 13.9219V23.9219ZM175.219 29.4648V39.4648C180.742 39.4648 185.219 34.9877 185.219 29.4648H175.219ZM170.535 29.4648V19.4648C165.012 19.4648 160.535 23.942 160.535 29.4648H170.535ZM170.535 35.1367V45.1367C176.058 45.1367 180.535 40.6596 180.535 35.1367H170.535ZM163.617 35.1367H153.617C153.617 40.6596 158.094 45.1367 163.617 45.1367V35.1367ZM163.617 10.1289V0.128906C158.094 0.128906 153.617 4.60606 153.617 10.1289H163.617ZM170.535 10.1289L180.535 10.1289C180.535 4.60606 176.058 0.128906 170.535 0.128906V10.1289ZM170.535 15.2422H160.535C160.535 20.765 165.012 25.2422 170.535 25.2422V15.2422ZM170.965 42.7852L180.964 42.8822C180.965 42.8181 180.965 42.754 180.964 42.6899L170.965 42.7852ZM143.551 42.7852L153.55 42.8822C153.551 42.8181 153.551 42.754 153.55 42.6899L143.551 42.7852ZM162.199 13.4805H172.199C172.199 7.95762 167.722 3.48047 162.199 3.48047V13.4805ZM162.199 18.8086V28.8086C167.722 28.8086 172.199 24.3314 172.199 18.8086H162.199ZM138.695 18.8086H128.695C128.695 24.3314 133.172 28.8086 138.695 28.8086V18.8086ZM138.695 13.4805V3.48047C133.172 3.48047 128.695 7.95762 128.695 13.4805H138.695ZM146.988 13.4805V23.4805C152.511 23.4805 156.988 19.0033 156.988 13.4805H146.988ZM146.988 10V0C141.465 0 136.988 4.47715 136.988 10H146.988ZM153.906 10H163.906C163.906 4.47715 159.429 0 153.906 0V10ZM153.906 13.4805H143.906C143.906 19.0033 148.383 23.4805 153.906 23.4805V13.4805ZM150.426 34.1484L150.353 44.1482C150.402 44.1485 150.451 44.1485 150.5 44.1482L150.426 34.1484ZM175.219 15.2422H165.219V20.7852H175.219H185.219V15.2422H175.219ZM175.219 20.7852V10.7852L170.535 10.7852V20.7852V30.7852H175.219V20.7852ZM170.535 20.7852H160.535V23.9219H170.535H180.535V20.7852H170.535ZM170.535 23.9219V33.9219H175.219V23.9219V13.9219H170.535V23.9219ZM175.219 23.9219H165.219V29.4648H175.219H185.219V23.9219H175.219ZM175.219 29.4648V19.4648H170.535V29.4648V39.4648H175.219V29.4648ZM170.535 29.4648H160.535V35.1367H170.535H180.535V29.4648H170.535ZM170.535 35.1367V25.1367H163.617V35.1367V45.1367H170.535V35.1367ZM163.617 35.1367H173.617V10.1289H163.617H153.617V35.1367H163.617ZM163.617 10.1289V20.1289H170.535V10.1289V0.128906L163.617 0.128906V10.1289ZM170.535 10.1289H160.535V15.2422H170.535H180.535V10.1289L170.535 10.1289ZM170.535 15.2422V25.2422H175.219V15.2422V5.24219L170.535 5.24219V15.2422ZM157.258 35.5664V45.5664C158.804 45.5664 160.045 45.6939 160.986 45.8766C161.947 46.0631 162.439 46.2767 162.59 46.3551C162.742 46.4344 162.334 46.2609 161.854 45.5946C161.309 44.8372 160.975 43.8519 160.965 42.8804L170.965 42.7852L180.964 42.6899C180.898 35.6672 176.409 31.0001 171.82 28.6127C167.482 26.3556 162.286 25.5664 157.258 25.5664V35.5664ZM170.965 42.7852L160.965 42.6881C160.975 41.6539 161.335 40.6471 161.88 39.8977C162.357 39.2402 162.755 39.0754 162.59 39.1615C162.429 39.245 161.93 39.4606 160.971 39.6483C160.031 39.8323 158.794 39.9609 157.258 39.9609V49.9609V59.9609C162.311 59.9609 167.497 59.1531 171.82 56.9039C176.343 54.5509 180.896 49.9186 180.964 42.8822L170.965 42.7852ZM157.258 49.9609V39.9609C155.666 39.9609 154.398 39.8303 153.444 39.6452C152.469 39.4561 151.982 39.2414 151.846 39.1701C151.707 39.0975 152.149 39.292 152.652 40.0042C153.223 40.8133 153.56 41.8584 153.55 42.8822L143.551 42.7852L133.551 42.6881C133.483 49.7614 137.982 54.4915 142.582 56.8953C146.924 59.1644 152.154 59.9609 157.258 59.9609V49.9609ZM143.551 42.7852L153.55 42.6899C153.559 43.6498 153.248 44.6721 152.677 45.4881C152.172 46.2089 151.72 46.4122 151.846 46.3465C151.972 46.2803 152.452 46.0676 153.429 45.8797C154.384 45.6958 155.657 45.5664 157.258 45.5664V35.5664V25.5664C152.18 25.5664 146.939 26.3445 142.582 28.6213C137.915 31.0602 133.484 35.8249 133.551 42.8804L143.551 42.7852ZM157.258 40.7656V30.7656C154.912 30.7656 151.978 30.8479 149.413 31.553C148.099 31.9143 145.911 32.6872 143.95 34.5299C141.63 36.7104 140.383 39.6806 140.383 42.7852L150.383 42.7852H160.383C160.383 43.799 160.197 44.983 159.676 46.1975C159.153 47.4153 158.414 48.383 157.647 49.1042C156.243 50.4232 154.896 50.7878 154.714 50.8377C154.43 50.9159 154.449 50.8759 154.998 50.8324C155.501 50.7925 156.23 50.7656 157.258 50.7656V40.7656ZM150.383 42.7852L140.383 42.7852C140.383 46.0873 141.8 48.9636 143.922 50.9732C145.755 52.709 147.795 53.5183 149.12 53.9264C151.74 54.7335 154.695 54.8906 157.258 54.8906V44.8906V34.8906C155.137 34.8906 154.655 34.704 155.008 34.8128C155.2 34.8719 156.399 35.2434 157.674 36.4514C158.367 37.1073 159.085 38.016 159.615 39.2016C160.152 40.4017 160.383 41.6354 160.383 42.7852H150.383ZM157.258 44.8906V54.8906C159.773 54.8906 162.706 54.7318 165.322 53.9144C166.646 53.5007 168.673 52.6841 170.493 50.9483C172.592 48.9453 174.004 46.0809 174.004 42.7852H164.004H154.004C154.004 41.6356 154.235 40.407 154.766 39.214C155.291 38.0358 156.002 37.1311 156.688 36.4764C157.955 35.2683 159.149 34.8895 159.356 34.8248C159.737 34.7057 159.298 34.8906 157.258 34.8906V44.8906ZM164.004 42.7852H174.004C174.004 39.6861 172.762 36.7291 170.465 34.5547C168.517 32.7107 166.341 31.9297 165.025 31.5628C162.462 30.8482 159.551 30.7656 157.258 30.7656V40.7656V50.7656C158.248 50.7656 158.947 50.7923 159.427 50.831C159.95 50.8735 159.951 50.9111 159.653 50.8278C159.454 50.7724 158.111 50.3996 156.716 49.0793C155.955 48.3591 155.223 47.3955 154.706 46.1853C154.19 44.9779 154.004 43.7991 154.004 42.7852H164.004ZM162.199 13.4805H152.199V18.8086H162.199H172.199V13.4805H162.199ZM162.199 18.8086V8.80859H138.695V18.8086V28.8086L162.199 28.8086V18.8086ZM138.695 18.8086H148.695V13.4805H138.695H128.695V18.8086H138.695ZM138.695 13.4805V23.4805H146.988V13.4805V3.48047H138.695V13.4805ZM146.988 13.4805H156.988V10H146.988H136.988V13.4805H146.988ZM146.988 10V20H153.906V10V0L146.988 0V10ZM153.906 10H143.906V13.4805H153.906H163.906V10H153.906ZM153.906 13.4805V23.4805H162.199V13.4805V3.48047L153.906 3.48047V13.4805ZM150.426 19.7109V29.7109C151.698 29.7109 151.988 30.0512 151.679 29.8264C151.499 29.6952 151.148 29.3827 150.84 28.818C150.518 28.2284 150.352 27.5588 150.352 26.9297H160.352H170.352C170.352 21.2045 167.43 16.5536 163.449 13.656C159.627 10.8745 154.954 9.71094 150.426 9.71094V19.7109ZM160.352 26.9297H150.352C150.352 26.3533 150.503 25.689 150.838 25.0744C151.16 24.4849 151.532 24.1545 151.728 24.0138C152.051 23.7817 151.736 24.1385 150.352 24.1487L150.426 34.1484L150.5 44.1482C154.916 44.1155 159.564 43.0112 163.4 40.2548C167.45 37.344 170.352 32.6725 170.352 26.9297H160.352ZM150.426 34.1484L150.499 24.1487C149.044 24.1381 148.705 23.7686 149.025 23.9969C149.22 24.1367 149.597 24.4687 149.923 25.064C150.263 25.6844 150.414 26.353 150.414 26.9297H140.414H130.414C130.414 32.6793 133.323 37.3593 137.4 40.2716C141.254 43.0244 145.921 44.1158 150.353 44.1482L150.426 34.1484ZM140.414 26.9297H150.414C150.414 27.5591 150.248 28.233 149.922 28.8284C149.609 29.3989 149.254 29.7131 149.074 29.8435C148.767 30.0652 149.082 29.7109 150.426 29.7109V19.7109V9.71094C145.883 9.71094 141.192 10.8606 137.351 13.639C133.343 16.5384 130.414 21.1977 130.414 26.9297H140.414ZM150.426 24.6953V14.6953C148.655 14.6953 145.609 14.9301 142.709 16.7633C139.077 19.0592 137.16 22.9031 137.16 26.9297H147.16H157.16C157.16 27.9059 156.954 29.2353 156.213 30.6222C155.461 32.0286 154.408 33.0287 153.395 33.6693C152.443 34.271 151.614 34.5055 151.172 34.5998C150.722 34.6962 150.446 34.6953 150.426 34.6953V24.6953ZM147.16 26.9297H137.16C137.16 31.0456 139.171 34.8562 142.766 37.0944C145.639 38.8832 148.648 39.1211 150.426 39.1211V29.1211V19.1211C150.447 19.1211 150.716 19.1204 151.157 19.2139C151.586 19.305 152.399 19.5321 153.337 20.1165C154.334 20.7371 155.399 21.7209 156.17 23.1332C156.935 24.5348 157.16 25.8987 157.16 26.9297H147.16ZM150.426 29.1211V39.1211C152.211 39.1211 155.158 38.8855 157.991 37.2008C161.534 35.0941 163.82 31.3272 163.82 26.9297H153.82H143.82C143.82 25.7899 144.089 24.3537 144.913 22.925C145.732 21.5072 146.823 20.5728 147.77 20.0101C148.665 19.4775 149.422 19.2774 149.801 19.1997C150.195 19.119 150.425 19.1211 150.426 19.1211V29.1211ZM153.82 26.9297H163.82C163.82 22.625 161.638 18.8218 158.048 16.655C155.187 14.9279 152.204 14.6953 150.426 14.6953V24.6953V34.6953C150.426 34.6953 150.19 34.6976 149.786 34.6142C149.396 34.5337 148.622 34.3267 147.713 33.7776C146.748 33.1954 145.667 32.244 144.868 30.8291C144.067 29.4128 143.82 28.0115 143.82 26.9297H153.82ZM211.441 10.1289H221.441C221.441 4.60606 216.964 0.128906 211.441 0.128906V10.1289ZM211.441 49.875V59.875C216.964 59.875 221.441 55.3978 221.441 49.875H211.441ZM204.867 49.875H194.867C194.867 55.3978 199.344 59.875 204.867 59.875V49.875ZM204.867 10.1289V0.128906C199.344 0.128906 194.867 4.60606 194.867 10.1289H204.867ZM202.977 10.6016H212.977C212.977 5.07872 208.499 0.601562 202.977 0.601562V10.6016ZM202.977 48.1562V58.1562C208.499 58.1562 212.977 53.6791 212.977 48.1562H202.977ZM196.488 48.1562H186.488C186.488 53.6791 190.965 58.1562 196.488 58.1562V48.1562ZM196.488 29.7656H206.488C206.488 24.2428 202.011 19.7656 196.488 19.7656V29.7656ZM194.555 29.7656V19.7656C189.319 19.7656 184.969 23.8044 184.582 29.0259L194.555 29.7656ZM177.023 27.4023L187.023 27.4489C187.023 27.4177 187.023 27.3865 187.023 27.3554L177.023 27.4023ZM194.512 24.3516L184.564 25.3726C185.088 30.4733 189.384 34.3516 194.512 34.3516V24.3516ZM196.488 24.3516V34.3516C202.011 34.3516 206.488 29.8744 206.488 24.3516L196.488 24.3516ZM196.488 10.6016V0.601562C190.965 0.601562 186.488 5.07872 186.488 10.6016H196.488ZM183.34 27.4023L193.34 27.4753C193.34 27.4265 193.34 27.3777 193.34 27.3288L183.34 27.4023ZM211.441 10.1289H201.441V49.875H211.441H221.441V10.1289H211.441ZM211.441 49.875V39.875H204.867V49.875V59.875H211.441V49.875ZM204.867 49.875H214.867V10.1289H204.867H194.867V49.875H204.867ZM204.867 10.1289V20.1289L211.441 20.1289V10.1289V0.128906H204.867V10.1289ZM202.977 10.6016H192.977V48.1562H202.977H212.977V10.6016H202.977ZM202.977 48.1562V38.1562H196.488V48.1562V58.1562H202.977V48.1562ZM196.488 48.1562H206.488V29.7656H196.488H186.488V48.1562H196.488ZM196.488 29.7656V19.7656H194.555V29.7656V39.7656H196.488V29.7656ZM194.555 29.7656L184.582 29.0259C184.483 30.3656 184.279 31.3725 184.061 32.082C183.842 32.799 183.643 33.1017 183.615 33.1406C183.601 33.161 183.791 32.8914 184.277 32.6233C184.792 32.339 185.335 32.2266 185.746 32.2266V42.2266V52.2266C191.835 52.2266 196.776 49.1529 199.924 44.7168C202.85 40.5956 204.156 35.5081 204.527 30.5054L194.555 29.7656ZM185.746 42.2266V32.2266C186.24 32.2266 186.867 32.3789 187.422 32.7249C187.928 33.0404 188.053 33.3146 187.961 33.1605C187.697 32.7172 187.007 31.0138 187.023 27.4489L177.023 27.4023L167.024 27.3558C166.997 33.0291 168.004 38.7379 170.78 43.3971C173.77 48.4159 178.952 52.2266 185.746 52.2266V42.2266ZM177.023 27.4023L187.023 27.3554C187.007 23.8478 187.692 22.1691 187.952 21.7354C188.042 21.5846 187.917 21.8565 187.414 22.1691C186.864 22.512 186.24 22.6641 185.746 22.6641V12.6641V2.66406C178.959 2.66406 173.781 6.46734 170.789 11.4668C168.009 16.1141 166.997 21.8045 167.024 27.4493L177.023 27.4023ZM185.746 12.6641V22.6641C185.351 22.6641 184.828 22.56 184.323 22.2921C183.844 22.0376 183.636 21.772 183.626 21.7588C183.625 21.7568 183.67 21.8171 183.744 21.963C183.818 22.1089 183.915 22.3283 184.018 22.6347C184.229 23.2569 184.439 24.157 184.564 25.3726L194.512 24.3516L204.459 23.3305C203.97 18.5648 202.578 13.6966 199.629 9.76221C196.46 5.53491 191.623 2.66406 185.746 2.66406V12.6641ZM194.512 24.3516V34.3516H196.488V24.3516V14.3516H194.512V24.3516ZM196.488 24.3516L206.488 24.3516V10.6016H196.488H186.488V24.3516H196.488ZM196.488 10.6016V20.6016H202.977V10.6016V0.601562L196.488 0.601562V10.6016ZM185.746 19.1953V9.19531C182.587 9.19531 179.667 10.4713 177.52 12.6698C175.662 14.5724 174.793 16.7345 174.349 18.1912C173.48 21.0422 173.317 24.371 173.34 27.4759L183.34 27.4023L193.34 27.3288C193.33 26.0842 193.369 25.1884 193.426 24.571C193.487 23.9134 193.548 23.8017 193.48 24.0237C193.439 24.1591 193.077 25.3651 191.83 26.642C191.155 27.3337 190.245 28.017 189.091 28.5084C187.933 29.0017 186.779 29.1953 185.746 29.1953V19.1953ZM183.34 27.4023L173.34 27.3294C173.317 30.4457 173.478 33.7849 174.353 36.6405C174.801 38.1045 175.679 40.2758 177.558 42.1794C179.727 44.3771 182.641 45.6094 185.746 45.6094V35.6094V25.6094C186.755 25.6094 187.893 25.7948 189.043 26.2778C190.192 26.7601 191.107 27.4356 191.792 28.1302C193.06 29.4149 193.431 30.6382 193.477 30.7862C193.548 31.0182 193.487 30.9137 193.426 30.2536C193.369 29.6344 193.33 28.733 193.34 27.4753L183.34 27.4023ZM185.746 35.6094V45.6094C188.767 45.6094 191.627 44.4508 193.805 42.3455C195.72 40.4946 196.662 38.3536 197.158 36.8524C198.119 33.9472 198.324 30.5598 198.324 27.4023H188.324H178.324C178.324 28.6405 178.276 29.5198 178.213 30.1143C178.146 30.7482 178.085 30.8283 178.169 30.5744C178.23 30.3891 178.632 29.196 179.906 27.9642C180.589 27.3046 181.482 26.6757 182.584 26.2294C183.687 25.7829 184.776 25.6094 185.746 25.6094V35.6094ZM188.324 27.4023H198.324C198.324 24.2562 198.117 20.8799 197.162 17.9799C196.67 16.4866 195.739 14.3537 193.844 12.5028C191.686 10.395 188.82 9.19531 185.746 9.19531V19.1953V29.1953C184.752 29.1953 183.648 29.0142 182.537 28.5579C181.43 28.1029 180.541 27.4664 179.868 26.8089C178.614 25.5838 178.222 24.4069 178.165 24.2349C178.085 23.9913 178.146 24.0788 178.213 24.7105C178.276 25.3035 178.324 26.1773 178.324 27.4023H188.324ZM245.344 13.4375H255.344C255.344 7.91465 250.867 3.4375 245.344 3.4375V13.4375ZM245.344 23.4062H235.344C235.344 28.9291 239.821 33.4062 245.344 33.4062V23.4062ZM251.445 23.4062V33.4062C256.968 33.4062 261.445 28.9291 261.445 23.4062H251.445ZM251.445 10.1289V0.128906C245.922 0.128906 241.445 4.60606 241.445 10.1289H251.445ZM258.277 10.1289H268.277C268.277 4.60606 263.8 0.128906 258.277 0.128906V10.1289ZM258.277 50.0039V60.0039C263.8 60.0039 268.277 55.5268 268.277 50.0039H258.277ZM251.445 50.0039H241.445C241.445 55.5268 245.922 60.0039 251.445 60.0039V50.0039ZM251.445 28.9062H261.445C261.445 23.3834 256.968 18.9062 251.445 18.9062V28.9062ZM245.344 28.9062V18.9062C239.821 18.9062 235.344 23.3834 235.344 28.9062H245.344ZM245.344 40.4219V50.4219C250.867 50.4219 255.344 45.9447 255.344 40.4219H245.344ZM225.75 40.4219H215.75C215.75 45.9447 220.227 50.4219 225.75 50.4219V40.4219ZM225.75 13.4375V3.4375C220.227 3.4375 215.75 7.91465 215.75 13.4375H225.75ZM232.625 18.7227V8.72266C227.102 8.72266 222.625 13.1998 222.625 18.7227H232.625ZM232.625 35.1367H222.625C222.625 40.6596 227.102 45.1367 232.625 45.1367V35.1367ZM238.598 35.1367V45.1367C244.12 45.1367 248.598 40.6596 248.598 35.1367H238.598ZM238.598 18.7227H248.598C248.598 13.1998 244.12 8.72266 238.598 8.72266V18.7227ZM245.344 13.4375H235.344V23.4062H245.344H255.344V13.4375H245.344ZM245.344 23.4062V33.4062H251.445V23.4062V13.4062H245.344V23.4062ZM251.445 23.4062H261.445V10.1289H251.445H241.445V23.4062H251.445ZM251.445 10.1289V20.1289H258.277V10.1289V0.128906H251.445V10.1289ZM258.277 10.1289H248.277V50.0039H258.277H268.277V10.1289H258.277ZM258.277 50.0039V40.0039H251.445V50.0039V60.0039H258.277V50.0039ZM251.445 50.0039H261.445V28.9062H251.445H241.445V50.0039H251.445ZM251.445 28.9062V18.9062H245.344V28.9062V38.9062H251.445V28.9062ZM245.344 28.9062H235.344V40.4219H245.344H255.344V28.9062H245.344ZM245.344 40.4219V30.4219H225.75V40.4219V50.4219H245.344V40.4219ZM225.75 40.4219H235.75V13.4375H225.75H215.75V40.4219H225.75ZM225.75 13.4375V23.4375H245.344V13.4375V3.4375H225.75V13.4375ZM232.625 18.7227H222.625V35.1367H232.625H242.625V18.7227H232.625ZM232.625 35.1367V45.1367H238.598V35.1367V25.1367H232.625V35.1367ZM238.598 35.1367H248.598V18.7227H238.598H228.598V35.1367H238.598ZM238.598 18.7227V8.72266L232.625 8.72266V18.7227V28.7227H238.598V18.7227ZM298.668 31.8281H308.668C308.668 26.3053 304.191 21.8281 298.668 21.8281V31.8281ZM298.668 37.2852V47.2852C304.191 47.2852 308.668 42.808 308.668 37.2852H298.668ZM283.801 37.2852V27.2852C278.278 27.2852 273.801 31.7623 273.801 37.2852H283.801ZM283.801 49.832V59.832C289.324 59.832 293.801 55.3549 293.801 49.832H283.801ZM276.969 49.832H266.969C266.969 55.3549 271.446 59.832 276.969 59.832V49.832ZM276.969 37.2852H286.969C286.969 31.7623 282.492 27.2852 276.969 27.2852V37.2852ZM262.402 37.2852H252.402C252.402 42.808 256.88 47.2852 262.402 47.2852V37.2852ZM262.402 31.8281V21.8281C256.88 21.8281 252.402 26.3053 252.402 31.8281H262.402ZM294.586 11.9336L304.586 11.9336C304.586 6.41075 300.109 1.93359 294.586 1.93359V11.9336ZM294.586 28.2617V38.2617C300.109 38.2617 304.586 33.7846 304.586 28.2617H294.586ZM266.398 28.2617H256.398C256.398 33.7846 260.876 38.2617 266.398 38.2617V28.2617ZM266.398 11.9336V1.93359C260.876 1.93359 256.398 6.41075 256.398 11.9336H266.398ZM273.145 17.3477V7.34766C267.622 7.34766 263.145 11.8248 263.145 17.3477H273.145ZM273.145 22.8906H263.145C263.145 28.4135 267.622 32.8906 273.145 32.8906V22.8906ZM287.711 22.8906V32.8906C293.234 32.8906 297.711 28.4135 297.711 22.8906H287.711ZM287.711 17.3477H297.711C297.711 11.8248 293.234 7.34766 287.711 7.34766V17.3477ZM298.668 31.8281H288.668V37.2852H298.668H308.668V31.8281H298.668ZM298.668 37.2852V27.2852H283.801V37.2852V47.2852H298.668V37.2852ZM283.801 37.2852H273.801V49.832H283.801H293.801V37.2852H283.801ZM283.801 49.832V39.832H276.969V49.832V59.832H283.801V49.832ZM276.969 49.832H286.969V37.2852H276.969H266.969V49.832H276.969ZM276.969 37.2852V27.2852H262.402V37.2852V47.2852H276.969V37.2852ZM262.402 37.2852H272.402V31.8281H262.402H252.402V37.2852H262.402ZM262.402 31.8281V41.8281H298.668V31.8281V21.8281H262.402V31.8281ZM294.586 11.9336H284.586V28.2617H294.586H304.586V11.9336L294.586 11.9336ZM294.586 28.2617V18.2617H266.398V28.2617V38.2617H294.586V28.2617ZM266.398 28.2617H276.398V11.9336H266.398H256.398V28.2617H266.398ZM266.398 11.9336V21.9336H294.586V11.9336V1.93359L266.398 1.93359V11.9336ZM273.145 17.3477H263.145V22.8906H273.145H283.145V17.3477H273.145ZM273.145 22.8906V32.8906H287.711V22.8906V12.8906H273.145V22.8906ZM287.711 22.8906H297.711V17.3477H287.711H277.711V22.8906H287.711ZM287.711 17.3477V7.34766H273.145V17.3477V27.3477H287.711V17.3477ZM336.738 40.1211H346.738C346.738 34.5982 342.261 30.1211 336.738 30.1211V40.1211ZM336.738 45.707V55.707C342.261 55.707 346.738 51.2299 346.738 45.707H336.738ZM300.43 45.707H290.43C290.43 51.2299 294.907 55.707 300.43 55.707V45.707ZM300.43 40.1211V30.1211C294.907 30.1211 290.43 34.5982 290.43 40.1211H300.43ZM332.828 12.6211H342.828C342.828 7.09825 338.351 2.62109 332.828 2.62109V12.6211ZM332.828 26.5859V36.5859C338.351 36.5859 342.828 32.1088 342.828 26.5859L332.828 26.5859ZM311.301 26.5859V16.5859C305.778 16.5859 301.301 21.0631 301.301 26.5859H311.301ZM311.301 29.8516H301.301C301.301 35.3744 305.778 39.8516 311.301 39.8516V29.8516ZM333.73 29.8516H343.73C343.73 24.3287 339.253 19.8516 333.73 19.8516V29.8516ZM333.73 35.2227V45.2227C339.253 45.2227 343.73 40.7455 343.73 35.2227H333.73ZM304.383 35.2227H294.383C294.383 40.7455 298.86 45.2227 304.383 45.2227V35.2227ZM304.383 21.1719V11.1719C298.86 11.1719 294.383 15.649 294.383 21.1719H304.383ZM325.996 21.1719V31.1719C331.519 31.1719 335.996 26.6947 335.996 21.1719L325.996 21.1719ZM325.996 18.0781L335.996 18.0781C335.996 12.5553 331.519 8.07812 325.996 8.07812V18.0781ZM304.34 18.0781H294.34C294.34 23.601 298.817 28.0781 304.34 28.0781V18.0781ZM304.34 12.6211V2.62109C298.817 2.62109 294.34 7.09825 294.34 12.6211L304.34 12.6211ZM336.738 40.1211H326.738V45.707H336.738H346.738V40.1211H336.738ZM336.738 45.707V35.707H300.43V45.707V55.707H336.738V45.707ZM300.43 45.707H310.43V40.1211H300.43H290.43V45.707H300.43ZM300.43 40.1211V50.1211H336.738V40.1211V30.1211H300.43V40.1211ZM332.828 12.6211H322.828V26.5859H332.828L342.828 26.5859V12.6211H332.828ZM332.828 26.5859V16.5859H311.301V26.5859V36.5859H332.828V26.5859ZM311.301 26.5859H301.301V29.8516H311.301H321.301V26.5859H311.301ZM311.301 29.8516V39.8516H333.73V29.8516V19.8516H311.301V29.8516ZM333.73 29.8516H323.73V35.2227H333.73H343.73V29.8516H333.73ZM333.73 35.2227V25.2227H304.383V35.2227V45.2227H333.73V35.2227ZM304.383 35.2227H314.383V21.1719H304.383H294.383V35.2227H304.383ZM304.383 21.1719V31.1719H325.996V21.1719V11.1719H304.383V21.1719ZM325.996 21.1719L335.996 21.1719V18.0781L325.996 18.0781H315.996V21.1719H325.996ZM325.996 18.0781V8.07812H304.34V18.0781V28.0781H325.996V18.0781ZM304.34 18.0781H314.34V12.6211H304.34L294.34 12.6211V18.0781H304.34ZM304.34 12.6211V22.6211H332.828V12.6211V2.62109L304.34 2.62109V12.6211ZM370.812 20.2266H380.812C380.812 14.7037 376.335 10.2266 370.812 10.2266V20.2266ZM370.812 25.5547V35.5547C376.335 35.5547 380.812 31.0775 380.812 25.5547H370.812ZM342.711 25.5547L332.711 25.5547C332.711 31.0775 337.188 35.5547 342.711 35.5547V25.5547ZM342.711 11.5469V1.54687C337.188 1.54687 332.711 6.02403 332.711 11.5469H342.711ZM349.586 11.5469H359.586C359.586 6.02403 355.109 1.54687 349.586 1.54687V11.5469ZM349.586 20.2266H339.586C339.586 25.7494 344.063 30.2266 349.586 30.2266V20.2266ZM374.723 29.0781H384.723C384.723 23.5553 380.246 19.0781 374.723 19.0781V29.0781ZM374.723 34.4062V44.4062C380.246 44.4062 384.723 39.9291 384.723 34.4062H374.723ZM338.457 34.4062H328.457C328.457 39.9291 332.934 44.4062 338.457 44.4062V34.4062ZM338.457 29.0781V19.0781C332.934 19.0781 328.457 23.5553 328.457 29.0781H338.457ZM371.07 43.6016H381.07C381.07 38.0787 376.593 33.6016 371.07 33.6016V43.6016ZM371.07 49.1016V59.1016C376.593 59.1016 381.07 54.6244 381.07 49.1016H371.07ZM342.238 49.1016H332.238C332.238 54.6244 336.715 59.1016 342.238 59.1016V49.1016ZM342.238 37.1562V27.1562C336.715 27.1562 332.238 31.6334 332.238 37.1562H342.238ZM349.199 37.1562H359.199C359.199 31.6334 354.722 27.1562 349.199 27.1562V37.1562ZM349.199 43.6016H339.199C339.199 49.1244 343.676 53.6016 349.199 53.6016V43.6016ZM370.812 20.2266H360.812V25.5547H370.812H380.812V20.2266H370.812ZM370.812 25.5547V15.5547H342.711V25.5547V35.5547H370.812V25.5547ZM342.711 25.5547H352.711V11.5469H342.711H332.711V25.5547L342.711 25.5547ZM342.711 11.5469V21.5469H349.586V11.5469V1.54687H342.711V11.5469ZM349.586 11.5469H339.586V20.2266H349.586H359.586V11.5469H349.586ZM349.586 20.2266V30.2266H370.812V20.2266V10.2266L349.586 10.2266V20.2266ZM374.723 29.0781H364.723V34.4062H374.723H384.723V29.0781H374.723ZM374.723 34.4062V24.4062H338.457V34.4062V44.4062H374.723V34.4062ZM338.457 34.4062H348.457V29.0781H338.457H328.457V34.4062H338.457ZM338.457 29.0781V39.0781H374.723V29.0781V19.0781H338.457V29.0781ZM371.07 43.6016H361.07V49.1016H371.07H381.07V43.6016H371.07ZM371.07 49.1016V39.1016H342.238V49.1016V59.1016H371.07V49.1016ZM342.238 49.1016H352.238V37.1562H342.238H332.238V49.1016H342.238ZM342.238 37.1562V47.1562H349.199V37.1562V27.1562H342.238V37.1562ZM349.199 37.1562H339.199V43.6016H349.199H359.199V37.1562H349.199ZM349.199 43.6016V53.6016H371.07V43.6016V33.6016H349.199V43.6016Z" fill="white" mask="url(#path-1-outside-1_6526_5747)"/>
</g>
<defs>
<filter id="filter0_d_6526_5747" x="0" y="0" width="388.723" height="68.0039" filterUnits="userSpaceOnUse" color-interpolation-filters="sRGB">
<feFlood flood-opacity="0" result="BackgroundImageFix"/>
<feColorMatrix in="SourceAlpha" type="matrix" values="0 0 0 0 0 0 0 0 0 0 0 0 0 0 0 0 0 0 127 0" result="hardAlpha"/>
<feOffset dy="4"/>
<feGaussianBlur stdDeviation="2"/>
<feComposite in2="hardAlpha" operator="out"/>
<feColorMatrix type="matrix" values="0 0 0 0 0 0 0 0 0 0 0 0 0 0 0 0 0 0 0.07 0"/>
<feBlend mode="normal" in2="BackgroundImageFix" result="effect1_dropShadow_6526_5747"/>
<feBlend mode="normal" in="SourceGraphic" in2="effect1_dropShadow_6526_5747" result="shape"/>
</filter>
</defs>
</svg>
