<svg width="302" height="69" viewBox="0 0 302 69" fill="none" xmlns="http://www.w3.org/2000/svg">
<g filter="url(#filter0_d_6526_5683)">
<mask id="path-1-outside-1_6526_5683" maskUnits="userSpaceOnUse" x="3.17188" y="-0.207031" width="295" height="61" fill="black">
<rect fill="white" x="3.17188" y="-0.207031" width="295" height="61"/>
<path d="M30.543 20.2695C30.5 26.1562 32.8203 33.1172 39.8672 36.2969L36.0859 41.668C31.7676 39.7773 28.8887 36.1895 27.1914 31.8711C25.4512 36.6836 22.4863 40.6582 17.9531 42.6992L14 37.2852C21.1758 33.9766 23.5391 26.7148 23.5391 20.2695V19.582H15.6758V13.9961H37.9336V19.582H30.543V20.2695ZM46.7852 10.3008V24.9102H52.1562V30.625H46.7852V50.0469H39.8672V10.3008L46.7852 10.3008ZM86.832 10.3008V50.0469H79.8281V10.3008H86.832ZM74.8008 14.3828C74.8008 26.8438 71.2773 36.7695 56.5391 43.6445L53.0156 38.2305C62.9414 33.5039 66.916 28.0469 67.7969 19.7539H55.293V14.3828H74.8008ZM135.773 10.3008V50.0469H129.199V10.3008H135.773ZM127.609 10.9883V48.3281H121.121V30.5391H118.328V24.3945H121.121V10.9883H127.609ZM119.102 14.5117V19.9687H117.082V35.2656C117.963 35.1797 118.801 35.0938 119.617 34.9648L120.047 39.8633C113.816 41.3242 105.867 41.4531 101.012 41.4531L100.281 35.9102H102.988V19.9687H100.969V14.5117H119.102ZM109.09 35.7812L110.852 35.6953V19.9687H109.09V35.7812ZM172.297 10.3008V50.1758H165.336V10.3008H172.297ZM150.469 12.9648C156.527 12.9219 161.082 18.5078 161.082 27.2734C161.082 36.168 156.527 41.7109 150.469 41.7109C144.281 41.7109 139.684 36.168 139.684 27.2734C139.684 18.5078 144.281 12.9219 150.469 12.9648ZM150.469 19.1953C147.934 19.1523 146.344 21.7734 146.344 27.2734C146.344 32.8594 147.934 35.3945 150.469 35.3945C152.832 35.3945 154.465 32.8594 154.465 27.2734C154.465 21.7734 152.832 19.1523 150.469 19.1953ZM198.379 15.1562C198.336 20.3984 201.816 26.7148 212.129 28.3906L209.164 34.1055C201.881 32.7734 197.176 29.1641 194.684 24.5234C192.105 29.1211 187.379 32.7305 180.203 34.1055L177.281 28.3906C187.379 26.6719 190.945 20.2695 190.945 15.1562V12.4492H198.379V15.1562ZM213.074 39.9062V45.5352H176.766V39.9062H213.074ZM236.707 13.5234V18.8945H214.922V13.5234H222.742V10H229.617V13.5234H236.707ZM226.094 19.7539C231.637 19.7969 235.719 22.8906 235.719 27.2734C235.719 31.7422 231.637 34.707 226.094 34.707C220.551 34.707 216.555 31.7422 216.598 27.2734C216.555 22.8906 220.551 19.7969 226.094 19.7539ZM226.094 24.8672C224.203 24.8672 223 25.5977 223 27.2734C223 28.9922 224.203 29.6797 226.094 29.6367C227.984 29.6797 229.359 28.9922 229.359 27.2734C229.359 25.5977 227.984 24.8672 226.094 24.8672ZM248.609 10.3008V35.4375H241.734V32.043H237.352V26.5859H241.734V23.9648H237.438V18.5078H241.734V10.3008H248.609ZM234.859 35.9102C243.41 35.9102 248.781 38.6172 248.824 43.043C248.781 47.4258 243.41 50.1328 234.859 50.1328C226.309 50.1328 220.938 47.4258 220.938 43.043C220.938 38.6172 226.309 35.9102 234.859 35.9102ZM234.859 41.1094C230.391 41.1094 228.199 41.625 228.242 43.043C228.199 44.418 230.391 44.9766 234.859 44.9766C239.242 44.9766 241.391 44.418 241.391 43.043C241.391 41.625 239.242 41.1094 234.859 41.1094ZM286.336 10.3867V38.6172H279.418V10.3867H286.336ZM287.281 43.9883V49.4883H259.137V35.7812H266.098V43.9883H287.281ZM264.379 12.75C270.566 12.75 275.508 17.0469 275.508 22.9336C275.508 28.9492 270.566 33.2031 264.379 33.2031C258.191 33.2031 253.207 28.9492 253.25 22.9336C253.207 17.0469 258.191 12.75 264.379 12.75ZM264.379 18.7227C261.844 18.7227 259.953 20.1406 259.953 22.9336C259.953 25.8555 261.844 27.2305 264.379 27.2305C266.785 27.2305 268.676 25.8555 268.676 22.9336C268.676 20.1406 266.785 18.7227 264.379 18.7227Z"/>
</mask>
<path d="M30.543 20.2695C30.5 26.1562 32.8203 33.1172 39.8672 36.2969L36.0859 41.668C31.7676 39.7773 28.8887 36.1895 27.1914 31.8711C25.4512 36.6836 22.4863 40.6582 17.9531 42.6992L14 37.2852C21.1758 33.9766 23.5391 26.7148 23.5391 20.2695V19.582H15.6758V13.9961H37.9336V19.582H30.543V20.2695ZM46.7852 10.3008V24.9102H52.1562V30.625H46.7852V50.0469H39.8672V10.3008L46.7852 10.3008ZM86.832 10.3008V50.0469H79.8281V10.3008H86.832ZM74.8008 14.3828C74.8008 26.8438 71.2773 36.7695 56.5391 43.6445L53.0156 38.2305C62.9414 33.5039 66.916 28.0469 67.7969 19.7539H55.293V14.3828H74.8008ZM135.773 10.3008V50.0469H129.199V10.3008H135.773ZM127.609 10.9883V48.3281H121.121V30.5391H118.328V24.3945H121.121V10.9883H127.609ZM119.102 14.5117V19.9687H117.082V35.2656C117.963 35.1797 118.801 35.0938 119.617 34.9648L120.047 39.8633C113.816 41.3242 105.867 41.4531 101.012 41.4531L100.281 35.9102H102.988V19.9687H100.969V14.5117H119.102ZM109.09 35.7812L110.852 35.6953V19.9687H109.09V35.7812ZM172.297 10.3008V50.1758H165.336V10.3008H172.297ZM150.469 12.9648C156.527 12.9219 161.082 18.5078 161.082 27.2734C161.082 36.168 156.527 41.7109 150.469 41.7109C144.281 41.7109 139.684 36.168 139.684 27.2734C139.684 18.5078 144.281 12.9219 150.469 12.9648ZM150.469 19.1953C147.934 19.1523 146.344 21.7734 146.344 27.2734C146.344 32.8594 147.934 35.3945 150.469 35.3945C152.832 35.3945 154.465 32.8594 154.465 27.2734C154.465 21.7734 152.832 19.1523 150.469 19.1953ZM198.379 15.1562C198.336 20.3984 201.816 26.7148 212.129 28.3906L209.164 34.1055C201.881 32.7734 197.176 29.1641 194.684 24.5234C192.105 29.1211 187.379 32.7305 180.203 34.1055L177.281 28.3906C187.379 26.6719 190.945 20.2695 190.945 15.1562V12.4492H198.379V15.1562ZM213.074 39.9062V45.5352H176.766V39.9062H213.074ZM236.707 13.5234V18.8945H214.922V13.5234H222.742V10H229.617V13.5234H236.707ZM226.094 19.7539C231.637 19.7969 235.719 22.8906 235.719 27.2734C235.719 31.7422 231.637 34.707 226.094 34.707C220.551 34.707 216.555 31.7422 216.598 27.2734C216.555 22.8906 220.551 19.7969 226.094 19.7539ZM226.094 24.8672C224.203 24.8672 223 25.5977 223 27.2734C223 28.9922 224.203 29.6797 226.094 29.6367C227.984 29.6797 229.359 28.9922 229.359 27.2734C229.359 25.5977 227.984 24.8672 226.094 24.8672ZM248.609 10.3008V35.4375H241.734V32.043H237.352V26.5859H241.734V23.9648H237.438V18.5078H241.734V10.3008H248.609ZM234.859 35.9102C243.41 35.9102 248.781 38.6172 248.824 43.043C248.781 47.4258 243.41 50.1328 234.859 50.1328C226.309 50.1328 220.938 47.4258 220.938 43.043C220.938 38.6172 226.309 35.9102 234.859 35.9102ZM234.859 41.1094C230.391 41.1094 228.199 41.625 228.242 43.043C228.199 44.418 230.391 44.9766 234.859 44.9766C239.242 44.9766 241.391 44.418 241.391 43.043C241.391 41.625 239.242 41.1094 234.859 41.1094ZM286.336 10.3867V38.6172H279.418V10.3867H286.336ZM287.281 43.9883V49.4883H259.137V35.7812H266.098V43.9883H287.281ZM264.379 12.75C270.566 12.75 275.508 17.0469 275.508 22.9336C275.508 28.9492 270.566 33.2031 264.379 33.2031C258.191 33.2031 253.207 28.9492 253.25 22.9336C253.207 17.0469 258.191 12.75 264.379 12.75ZM264.379 18.7227C261.844 18.7227 259.953 20.1406 259.953 22.9336C259.953 25.8555 261.844 27.2305 264.379 27.2305C266.785 27.2305 268.676 25.8555 268.676 22.9336C268.676 20.1406 266.785 18.7227 264.379 18.7227Z" fill="#11DCA9"/>
<path d="M30.543 20.2695L40.5427 20.3425C40.5429 20.3182 40.543 20.2939 40.543 20.2695H30.543ZM39.8672 36.2969L48.0441 42.0534C49.7608 39.6149 50.2996 36.5375 49.5135 33.6608C48.7274 30.7841 46.6983 28.4084 43.9801 27.1818L39.8672 36.2969ZM36.0859 41.668L32.0754 50.8285C36.4305 52.7352 41.526 51.312 44.2629 47.4245L36.0859 41.668ZM27.1914 31.8711L36.4984 28.2131C34.9762 24.3403 31.2147 21.8148 27.0539 21.872C22.893 21.9293 19.2024 24.5572 17.7874 28.4705L27.1914 31.8711ZM17.9531 42.6992L9.87687 48.5962C12.6652 52.4149 17.747 53.7588 22.0586 51.8176L17.9531 42.6992ZM14 37.2852L9.81287 28.204C7.09021 29.4593 5.07445 31.8701 4.32096 34.772C3.56747 37.6739 4.15576 40.7607 5.92374 43.1821L14 37.2852ZM23.5391 19.582H33.5391C33.5391 14.0592 29.0619 9.58203 23.5391 9.58203V19.582ZM15.6758 19.582H5.67578C5.67578 25.1049 10.1529 29.582 15.6758 29.582V19.582ZM15.6758 13.9961V3.99609C10.1529 3.99609 5.67578 8.47325 5.67578 13.9961H15.6758ZM37.9336 13.9961H47.9336C47.9336 8.47325 43.4564 3.99609 37.9336 3.99609V13.9961ZM37.9336 19.582V29.582C43.4564 29.582 47.9336 25.1049 47.9336 19.582H37.9336ZM30.543 19.582V9.58203C25.0201 9.58203 20.543 14.0592 20.543 19.582H30.543ZM46.7852 10.3008H56.7852C56.7852 4.77793 52.308 0.300781 46.7852 0.300781V10.3008ZM46.7852 24.9102H36.7852C36.7852 30.433 41.2623 34.9102 46.7852 34.9102V24.9102ZM52.1562 24.9102H62.1562C62.1562 19.3873 57.6791 14.9102 52.1562 14.9102V24.9102ZM52.1562 30.625V40.625C57.6791 40.625 62.1562 36.1478 62.1562 30.625H52.1562ZM46.7852 30.625V20.625C41.2623 20.625 36.7852 25.1022 36.7852 30.625H46.7852ZM46.7852 50.0469V60.0469C52.308 60.0469 56.7852 55.5697 56.7852 50.0469H46.7852ZM39.8672 50.0469H29.8672C29.8672 55.5697 34.3443 60.0469 39.8672 60.0469V50.0469ZM39.8672 10.3008V0.300781C34.3443 0.300781 29.8672 4.77793 29.8672 10.3008H39.8672ZM30.543 20.2695L20.5432 20.1965C20.484 28.3133 23.7517 39.9961 35.7543 45.4119L39.8672 36.2969L43.9801 27.1818C42.7356 26.6203 41.9946 25.8208 41.4672 24.7796C40.8716 23.6037 40.5304 22.031 40.5427 20.3425L30.543 20.2695ZM39.8672 36.2969L31.6903 30.5403L27.909 35.9114L36.0859 41.668L44.2629 47.4245L48.0441 42.0534L39.8672 36.2969ZM36.0859 41.668L40.0965 32.5074C38.7627 31.9235 37.4773 30.7038 36.4984 28.2131L27.1914 31.8711L17.8845 35.529C20.3001 41.6751 24.7725 47.6312 32.0754 50.8285L36.0859 41.668ZM27.1914 31.8711L17.7874 28.4705C16.6626 31.581 15.2019 32.9711 13.8477 33.5808L17.9531 42.6992L22.0586 51.8176C29.7707 48.3453 34.2398 41.7861 36.5955 35.2717L27.1914 31.8711ZM17.9531 42.6992L26.0294 36.8023L22.0763 31.3882L14 37.2852L5.92374 43.1821L9.87687 48.5962L17.9531 42.6992ZM14 37.2852L18.1871 46.3663C30.3906 40.7396 33.5391 28.6636 33.5391 20.2695H23.5391H13.5391C13.5391 22.358 13.144 24.2002 12.4815 25.5515C11.8881 26.762 11.0828 27.6184 9.81287 28.204L14 37.2852ZM23.5391 20.2695H33.5391V19.582H23.5391H13.5391V20.2695H23.5391ZM23.5391 19.582V9.58203H15.6758V19.582V29.582H23.5391V19.582ZM15.6758 19.582H25.6758V13.9961H15.6758H5.67578V19.582H15.6758ZM15.6758 13.9961V23.9961H37.9336V13.9961V3.99609L15.6758 3.99609V13.9961ZM37.9336 13.9961H27.9336V19.582H37.9336H47.9336V13.9961H37.9336ZM37.9336 19.582V9.58203H30.543V19.582V29.582H37.9336V19.582ZM30.543 19.582H20.543V20.2695H30.543H40.543V19.582H30.543ZM46.7852 10.3008L36.7852 10.3008V24.9102H46.7852H56.7852V10.3008H46.7852ZM46.7852 24.9102V34.9102H52.1562V24.9102V14.9102H46.7852V24.9102ZM52.1562 24.9102H42.1562V30.625H52.1562H62.1562V24.9102H52.1562ZM52.1562 30.625V20.625H46.7852V30.625V40.625H52.1562V30.625ZM46.7852 30.625H36.7852V50.0469H46.7852H56.7852V30.625H46.7852ZM46.7852 50.0469V40.0469H39.8672V50.0469V60.0469H46.7852V50.0469ZM39.8672 50.0469H49.8672V10.3008L39.8672 10.3008H29.8672V50.0469H39.8672ZM39.8672 10.3008V20.3008H46.7852V10.3008V0.300781H39.8672V10.3008ZM86.832 10.3008H96.832C96.832 4.77793 92.3549 0.300781 86.832 0.300781V10.3008ZM86.832 50.0469V60.0469C92.3549 60.0469 96.832 55.5697 96.832 50.0469H86.832ZM79.8281 50.0469H69.8281C69.8281 55.5697 74.3053 60.0469 79.8281 60.0469V50.0469ZM79.8281 10.3008V0.300781C74.3053 0.300781 69.8281 4.77793 69.8281 10.3008H79.8281ZM74.8008 14.3828L84.8008 14.3828C84.8008 8.85997 80.3236 4.38281 74.8008 4.38281V14.3828ZM56.5391 43.6445L48.1577 49.0991C50.8751 53.2747 56.2516 54.8131 60.7665 52.707L56.5391 43.6445ZM53.0156 38.2305L48.7163 29.2019C46.1138 30.4412 44.1726 32.7432 43.3906 35.5177C42.6086 38.2921 43.0619 41.2691 44.6342 43.685L53.0156 38.2305ZM67.7969 19.7539L77.7409 20.8101C78.0405 17.99 77.1285 15.1753 75.232 13.0667C73.3355 10.9581 70.6329 9.75391 67.7969 9.75391V19.7539ZM55.293 19.7539H45.293C45.293 25.2768 49.7701 29.7539 55.293 29.7539V19.7539ZM55.293 14.3828V4.38281C49.7701 4.38281 45.293 8.85997 45.293 14.3828H55.293ZM86.832 10.3008H76.832V50.0469H86.832H96.832V10.3008H86.832ZM86.832 50.0469V40.0469H79.8281V50.0469V60.0469H86.832V50.0469ZM79.8281 50.0469H89.8281V10.3008H79.8281H69.8281V50.0469H79.8281ZM79.8281 10.3008V20.3008H86.832V10.3008V0.300781L79.8281 0.300781V10.3008ZM74.8008 14.3828H64.8008C64.8008 19.7573 64.0224 23.4328 62.4566 26.2495C60.9741 28.9162 58.2199 31.826 52.3117 34.582L56.5391 43.6445L60.7665 52.707C69.5965 48.5881 75.9732 43.0975 79.937 35.9673C83.8174 28.9871 84.8008 21.4692 84.8008 14.3828L74.8008 14.3828ZM56.5391 43.6445L64.9205 38.19L61.397 32.7759L53.0156 38.2305L44.6342 43.685L48.1577 49.0991L56.5391 43.6445ZM53.0156 38.2305L57.315 47.2591C63.0946 44.5069 68.0418 41.1264 71.6691 36.4978C75.4069 31.7282 77.1473 26.399 77.7409 20.8101L67.7969 19.7539L57.8528 18.6977C57.5656 21.4018 56.8783 22.9475 55.9271 24.1614C54.8654 25.5161 52.8624 27.2275 48.7163 29.2019L53.0156 38.2305ZM67.7969 19.7539V9.75391H55.293V19.7539V29.7539H67.7969V19.7539ZM55.293 19.7539H65.293V14.3828H55.293H45.293V19.7539H55.293ZM55.293 14.3828V24.3828H74.8008V14.3828V4.38281L55.293 4.38281V14.3828ZM135.773 10.3008H145.773C145.773 4.77793 141.296 0.300781 135.773 0.300781V10.3008ZM135.773 50.0469V60.0469C141.296 60.0469 145.773 55.5697 145.773 50.0469L135.773 50.0469ZM129.199 50.0469H119.199C119.199 55.5697 123.676 60.0469 129.199 60.0469V50.0469ZM129.199 10.3008V0.300781C123.676 0.300781 119.199 4.77793 119.199 10.3008H129.199ZM127.609 10.9883H137.609C137.609 5.46543 133.132 0.988281 127.609 0.988281V10.9883ZM127.609 48.3281V58.3281C133.132 58.3281 137.609 53.851 137.609 48.3281H127.609ZM121.121 48.3281H111.121C111.121 53.851 115.598 58.3281 121.121 58.3281V48.3281ZM121.121 30.5391H131.121C131.121 25.0162 126.644 20.5391 121.121 20.5391V30.5391ZM118.328 30.5391H108.328C108.328 36.0619 112.805 40.5391 118.328 40.5391V30.5391ZM118.328 24.3945V14.3945C112.805 14.3945 108.328 18.8717 108.328 24.3945H118.328ZM121.121 24.3945V34.3945C126.644 34.3945 131.121 29.9174 131.121 24.3945H121.121ZM121.121 10.9883V0.988281C115.598 0.988281 111.121 5.46543 111.121 10.9883H121.121ZM119.102 14.5117H129.102C129.102 8.98887 124.624 4.51172 119.102 4.51172V14.5117ZM119.102 19.9687V29.9688C124.624 29.9688 129.102 25.4916 129.102 19.9687H119.102ZM117.082 19.9687V9.96875C111.559 9.96875 107.082 14.4459 107.082 19.9687H117.082ZM117.082 35.2656H107.082C107.082 38.0867 108.274 40.7766 110.363 42.672C112.452 44.5675 115.245 45.4923 118.053 45.2184L117.082 35.2656ZM119.617 34.9648L129.579 34.091C129.337 31.3295 127.959 28.7925 125.775 27.0855C123.591 25.3785 120.796 24.6549 118.058 25.0872L119.617 34.9648ZM120.047 39.8633L122.33 49.5992C127.171 48.4639 130.443 43.9434 130.009 38.9894L120.047 39.8633ZM101.012 41.4531L91.0974 42.7597C91.753 47.7345 95.9939 51.4531 101.012 51.4531V41.4531ZM100.281 35.9102V25.9102C97.4013 25.9102 94.6612 27.1518 92.7624 29.3172C90.8637 31.4826 89.9907 34.3614 90.367 37.2167L100.281 35.9102ZM102.988 35.9102V45.9102C108.511 45.9102 112.988 41.433 112.988 35.9102H102.988ZM102.988 19.9687H112.988C112.988 14.4459 108.511 9.96875 102.988 9.96875V19.9687ZM100.969 19.9687H90.9688C90.9688 25.4916 95.4459 29.9688 100.969 29.9688V19.9687ZM100.969 14.5117V4.51172C95.4459 4.51172 90.9688 8.98887 90.9688 14.5117H100.969ZM109.09 35.7812H99.0898C99.0898 38.518 100.211 41.1351 102.193 43.0225C104.175 44.91 106.844 45.9027 109.577 45.7694L109.09 35.7812ZM110.852 35.6953L111.339 45.6834C116.666 45.4236 120.852 41.0288 120.852 35.6953H110.852ZM110.852 19.9687H120.852C120.852 14.4459 116.374 9.96875 110.852 9.96875V19.9687ZM109.09 19.9687V9.96875C103.567 9.96875 99.0898 14.4459 99.0898 19.9687H109.09ZM135.773 10.3008H125.773V50.0469H135.773L145.773 50.0469V10.3008H135.773ZM135.773 50.0469V40.0469H129.199V50.0469V60.0469H135.773V50.0469ZM129.199 50.0469H139.199V10.3008H129.199H119.199V50.0469H129.199ZM129.199 10.3008V20.3008H135.773V10.3008V0.300781L129.199 0.300781V10.3008ZM127.609 10.9883H117.609V48.3281H127.609H137.609V10.9883H127.609ZM127.609 48.3281V38.3281H121.121V48.3281V58.3281H127.609V48.3281ZM121.121 48.3281H131.121V30.5391H121.121H111.121V48.3281H121.121ZM121.121 30.5391V20.5391H118.328V30.5391V40.5391H121.121V30.5391ZM118.328 30.5391H128.328V24.3945H118.328H108.328V30.5391H118.328ZM118.328 24.3945V34.3945H121.121V24.3945V14.3945H118.328V24.3945ZM121.121 24.3945H131.121V10.9883H121.121H111.121V24.3945H121.121ZM121.121 10.9883V20.9883H127.609V10.9883V0.988281L121.121 0.988281V10.9883ZM119.102 14.5117H109.102V19.9687H119.102H129.102V14.5117H119.102ZM119.102 19.9687V9.96875H117.082V19.9687V29.9688H119.102V19.9687ZM117.082 19.9687H107.082V35.2656H117.082H127.082V19.9687H117.082ZM117.082 35.2656L118.053 45.2184C118.925 45.1333 120.033 45.0231 121.177 44.8425L119.617 34.9648L118.058 25.0872C117.569 25.1644 117.001 25.226 116.111 25.3129L117.082 35.2656ZM119.617 34.9648L109.655 35.8387L110.085 40.7371L120.047 39.8633L130.009 38.9894L129.579 34.091L119.617 34.9648ZM120.047 39.8633L117.764 30.1273C112.805 31.2901 105.944 31.4531 101.012 31.4531V41.4531V51.4531C105.79 51.4531 114.828 51.3583 122.33 49.5992L120.047 39.8633ZM101.012 41.4531L110.926 40.1466L110.196 34.6036L100.281 35.9102L90.367 37.2167L91.0974 42.7597L101.012 41.4531ZM100.281 35.9102V45.9102H102.988V35.9102V25.9102H100.281V35.9102ZM102.988 35.9102H112.988V19.9687H102.988H92.9883V35.9102H102.988ZM102.988 19.9687V9.96875H100.969V19.9687V29.9688H102.988V19.9687ZM100.969 19.9687H110.969V14.5117H100.969H90.9688V19.9687H100.969ZM100.969 14.5117V24.5117H119.102V14.5117V4.51172H100.969V14.5117ZM109.09 35.7812L109.577 45.7694L111.339 45.6834L110.852 35.6953L110.364 25.7072L108.603 25.7931L109.09 35.7812ZM110.852 35.6953H120.852V19.9687H110.852H100.852V35.6953H110.852ZM110.852 19.9687V9.96875L109.09 9.96875V19.9687V29.9688H110.852V19.9687ZM109.09 19.9687H99.0898V35.7812H109.09H119.09V19.9687H109.09ZM172.297 10.3008L182.297 10.3008C182.297 4.77793 177.82 0.300781 172.297 0.300781V10.3008ZM172.297 50.1758V60.1758C177.82 60.1758 182.297 55.6986 182.297 50.1758H172.297ZM165.336 50.1758H155.336C155.336 55.6986 159.813 60.1758 165.336 60.1758V50.1758ZM165.336 10.3008V0.300781C159.813 0.300781 155.336 4.77793 155.336 10.3008H165.336ZM150.469 12.9648L150.399 22.9646C150.446 22.9649 150.493 22.9649 150.54 22.9646L150.469 12.9648ZM150.469 19.1953L150.299 29.1939C150.416 29.1959 150.533 29.1958 150.651 29.1937L150.469 19.1953ZM172.297 10.3008H162.297V50.1758H172.297H182.297V10.3008L172.297 10.3008ZM172.297 50.1758V40.1758H165.336V50.1758V60.1758H172.297V50.1758ZM165.336 50.1758H175.336V10.3008L165.336 10.3008H155.336V50.1758H165.336ZM165.336 10.3008V20.3008H172.297V10.3008V0.300781L165.336 0.300781V10.3008ZM150.469 12.9648L150.54 22.9646C150.472 22.9651 150.302 22.9413 150.127 22.8516C149.965 22.7688 149.974 22.7206 150.095 22.8789C150.365 23.2335 151.082 24.5342 151.082 27.2734H161.082H171.082C171.082 21.2471 169.521 15.372 166 10.7529C162.352 5.96898 156.819 2.91955 150.398 2.9651L150.469 12.9648ZM161.082 27.2734H151.082C151.082 30.1036 150.352 31.4257 150.082 31.7811C149.962 31.9399 149.951 31.8948 150.105 31.8154C150.271 31.7301 150.423 31.7109 150.469 31.7109V41.7109V51.7109C156.842 51.7109 162.361 48.6842 166.012 43.8741C169.534 39.2345 171.082 33.3378 171.082 27.2734H161.082ZM150.469 41.7109V31.7109C150.447 31.7109 150.552 31.7143 150.689 31.7838C150.818 31.8487 150.799 31.8823 150.68 31.7272C150.414 31.3823 149.684 30.0846 149.684 27.2734H139.684H129.684C129.684 33.3568 131.252 39.2778 134.832 43.928C138.545 48.7506 144.107 51.7109 150.469 51.7109V41.7109ZM139.684 27.2734H149.684C149.684 24.5534 150.401 23.277 150.667 22.9328C150.786 22.7782 150.803 22.8147 150.667 22.8829C150.607 22.9135 150.541 22.9371 150.479 22.9515C150.417 22.9657 150.386 22.9645 150.399 22.9646L150.469 12.9648L150.538 2.96509C144.129 2.92058 138.554 5.90229 134.845 10.699C131.265 15.3284 129.684 21.2278 129.684 27.2734H139.684ZM150.469 19.1953L150.638 9.19675C145.007 9.1013 140.808 12.3754 138.635 16.4444C136.794 19.8908 136.344 23.8393 136.344 27.2734H146.344H156.344C156.344 26.3567 156.412 25.7905 156.465 25.5062C156.521 25.2001 156.527 25.3974 156.276 25.8672C156.01 26.3657 155.384 27.2911 154.17 28.073C152.891 28.8963 151.495 29.2141 150.299 29.1939L150.469 19.1953ZM146.344 27.2734H136.344C136.344 30.7279 136.787 34.6952 138.643 38.1549C140.858 42.2844 145.032 45.3945 150.469 45.3945V35.3945V25.3945C151.579 25.3945 152.914 25.6973 154.162 26.499C155.358 27.2681 155.99 28.1839 156.268 28.7026C156.527 29.1854 156.523 29.3936 156.466 29.0857C156.413 28.7985 156.344 28.2202 156.344 27.2734H146.344ZM150.469 35.3945V45.3945C156.068 45.3945 160.119 42.0302 162.195 38.0994C163.994 34.6934 164.465 30.7814 164.465 27.2734H154.465H144.465C144.465 28.2047 144.395 28.7814 144.341 29.0732C144.283 29.385 144.274 29.207 144.511 28.758C144.759 28.2873 145.355 27.3859 146.527 26.6013C147.767 25.7711 149.177 25.3945 150.469 25.3945V35.3945ZM154.465 27.2734H164.465C164.465 23.7861 163.988 19.8922 162.203 16.4998C160.172 12.6401 156.094 9.09139 150.287 9.19697L150.469 19.1953L150.651 29.1937C149.265 29.2189 147.789 28.8225 146.519 27.9705C145.331 27.1731 144.74 26.2622 144.503 25.8118C144.274 25.3758 144.285 25.2086 144.342 25.5188C144.396 25.8078 144.465 26.3723 144.465 27.2734H154.465ZM198.379 15.1562L208.379 15.2382C208.379 15.2109 208.379 15.1836 208.379 15.1562L198.379 15.1562ZM212.129 28.3906L221.005 32.9957C222.482 30.1491 222.504 26.7669 221.065 23.9013C219.625 21.0358 216.898 19.0345 213.733 18.5201L212.129 28.3906ZM209.164 34.1055L207.365 43.9423C211.686 44.7327 216.018 42.6101 218.041 38.7106L209.164 34.1055ZM194.684 24.5234L203.494 19.7922C201.767 16.5764 198.425 14.5571 194.775 14.5239C191.125 14.4906 187.747 16.4487 185.961 19.6324L194.684 24.5234ZM180.203 34.1055L171.299 38.6578C173.323 42.6166 177.718 44.7635 182.085 43.9268L180.203 34.1055ZM177.281 28.3906L175.603 18.5324C172.465 19.0666 169.769 21.0628 168.342 23.9083C166.915 26.7538 166.928 30.1087 168.378 32.9429L177.281 28.3906ZM190.945 12.4492V2.44922C185.422 2.44922 180.945 6.92637 180.945 12.4492H190.945ZM198.379 12.4492H208.379C208.379 6.92637 203.902 2.44922 198.379 2.44922V12.4492ZM213.074 39.9062H223.074C223.074 34.3834 218.597 29.9062 213.074 29.9062V39.9062ZM213.074 45.5352V55.5352C218.597 55.5352 223.074 51.058 223.074 45.5352H213.074ZM176.766 45.5352H166.766C166.766 51.058 171.243 55.5352 176.766 55.5352V45.5352ZM176.766 39.9062V29.9062C171.243 29.9062 166.766 34.3834 166.766 39.9062H176.766ZM198.379 15.1562L188.379 15.0743C188.339 19.9269 189.94 25.2648 193.868 29.7227C197.832 34.2205 203.542 37.1264 210.525 38.2612L212.129 28.3906L213.733 18.5201C210.404 17.9791 209.216 16.8888 208.873 16.499C208.494 16.0691 208.375 15.6278 208.379 15.2382L198.379 15.1562ZM212.129 28.3906L203.252 23.7855L200.288 29.5004L209.164 34.1055L218.041 38.7106L221.005 32.9957L212.129 28.3906ZM209.164 34.1055L210.963 24.2686C206.266 23.4096 204.362 21.4102 203.494 19.7922L194.684 24.5234L185.874 29.2547C189.989 36.918 197.495 42.1372 207.365 43.9423L209.164 34.1055ZM194.684 24.5234L185.961 19.6324C184.984 21.3745 182.938 23.3996 178.321 24.2841L180.203 34.1055L182.085 43.9268C191.82 42.0614 199.226 36.8677 203.406 29.4144L194.684 24.5234ZM180.203 34.1055L189.107 29.5532L186.185 23.8383L177.281 28.3906L168.378 32.9429L171.299 38.6578L180.203 34.1055ZM177.281 28.3906L178.959 38.2488C185.898 37.0677 191.517 34.0862 195.416 29.6419C199.26 25.2613 200.945 20.0011 200.945 15.1562H190.945H180.945C180.945 15.4247 180.847 15.9223 180.383 16.4509C179.975 16.9158 178.762 17.9948 175.603 18.5324L177.281 28.3906ZM190.945 15.1562H200.945V12.4492H190.945H180.945V15.1562H190.945ZM190.945 12.4492V22.4492H198.379V12.4492V2.44922H190.945V12.4492ZM198.379 12.4492H188.379V15.1562H198.379L208.379 15.1562V12.4492H198.379ZM213.074 39.9062H203.074V45.5352H213.074H223.074V39.9062H213.074ZM213.074 45.5352V35.5352H176.766V45.5352V55.5352H213.074V45.5352ZM176.766 45.5352H186.766V39.9062H176.766H166.766V45.5352H176.766ZM176.766 39.9062V49.9062H213.074V39.9062V29.9062H176.766V39.9062ZM236.707 13.5234H246.707C246.707 8.00059 242.23 3.52344 236.707 3.52344V13.5234ZM236.707 18.8945V28.8945C242.23 28.8945 246.707 24.4174 246.707 18.8945H236.707ZM214.922 18.8945L204.922 18.8945C204.922 24.4174 209.399 28.8945 214.922 28.8945V18.8945ZM214.922 13.5234V3.52344C209.399 3.52344 204.922 8.00059 204.922 13.5234L214.922 13.5234ZM222.742 13.5234V23.5234C228.265 23.5234 232.742 19.0463 232.742 13.5234H222.742ZM222.742 10V0C217.219 0 212.742 4.47715 212.742 10H222.742ZM229.617 10L239.617 10C239.617 4.47715 235.14 0 229.617 0V10ZM229.617 13.5234H219.617C219.617 19.0463 224.094 23.5234 229.617 23.5234V13.5234ZM226.094 19.7539L226.171 9.75421C226.12 9.75381 226.068 9.75381 226.016 9.75421L226.094 19.7539ZM216.598 27.2734L226.597 27.3696C226.598 27.3049 226.598 27.2401 226.597 27.1754L216.598 27.2734ZM226.094 29.6367L226.321 19.6393C226.17 19.6359 226.018 19.6359 225.867 19.6393L226.094 29.6367ZM248.609 10.3008H258.609C258.609 4.77793 254.132 0.300781 248.609 0.300781V10.3008ZM248.609 35.4375V45.4375C254.132 45.4375 258.609 40.9603 258.609 35.4375H248.609ZM241.734 35.4375H231.734C231.734 40.9603 236.212 45.4375 241.734 45.4375V35.4375ZM241.734 32.043H251.734C251.734 26.5201 247.257 22.043 241.734 22.043V32.043ZM237.352 32.043H227.352C227.352 37.5658 231.829 42.043 237.352 42.043V32.043ZM237.352 26.5859V16.5859C231.829 16.5859 227.352 21.0631 227.352 26.5859H237.352ZM241.734 26.5859V36.5859C247.257 36.5859 251.734 32.1088 251.734 26.5859H241.734ZM241.734 23.9648H251.734C251.734 18.442 247.257 13.9648 241.734 13.9648V23.9648ZM237.438 23.9648H227.438C227.438 29.4877 231.915 33.9648 237.438 33.9648V23.9648ZM237.438 18.5078V8.50781C231.915 8.50781 227.438 12.985 227.438 18.5078H237.438ZM241.734 18.5078V28.5078C247.257 28.5078 251.734 24.0307 251.734 18.5078H241.734ZM241.734 10.3008V0.300781C236.212 0.300781 231.734 4.77793 231.734 10.3008L241.734 10.3008ZM248.824 43.043L258.824 43.141C258.824 43.076 258.824 43.0109 258.824 42.9459L248.824 43.043ZM228.242 43.043L238.237 43.3553C238.244 43.1503 238.244 42.9451 238.238 42.7401L228.242 43.043ZM236.707 13.5234H226.707V18.8945H236.707H246.707V13.5234H236.707ZM236.707 18.8945V8.89453H214.922V18.8945V28.8945H236.707V18.8945ZM214.922 18.8945H224.922V13.5234H214.922L204.922 13.5234V18.8945L214.922 18.8945ZM214.922 13.5234V23.5234H222.742V13.5234V3.52344L214.922 3.52344V13.5234ZM222.742 13.5234H232.742V10H222.742H212.742V13.5234H222.742ZM222.742 10V20H229.617V10V0H222.742V10ZM229.617 10H219.617V13.5234H229.617H239.617V10L229.617 10ZM229.617 13.5234V23.5234H236.707V13.5234V3.52344H229.617V13.5234ZM226.094 19.7539L226.016 29.7536C227.029 29.7615 227.193 30.0488 226.863 29.7931C226.678 29.6498 226.372 29.3511 226.113 28.8509C225.844 28.3319 225.719 27.7705 225.719 27.2734H235.719H245.719C245.719 15.1162 234.604 9.81957 226.171 9.75421L226.094 19.7539ZM235.719 27.2734H225.719C225.719 26.8277 225.831 26.2695 226.114 25.7222C226.389 25.1919 226.723 24.8643 226.941 24.6991C227.325 24.4075 227.181 24.707 226.094 24.707V34.707V44.707C230.55 44.707 235.218 43.5242 239.029 40.6329C243.031 37.5968 245.719 32.8829 245.719 27.2734H235.719ZM226.094 34.707V24.707C225.005 24.707 224.918 24.408 225.355 24.7454C225.6 24.9336 225.945 25.2853 226.22 25.8322C226.502 26.3932 226.601 26.9478 226.597 27.3696L216.598 27.2734L206.598 27.1773C206.545 32.7399 209.134 37.494 213.147 40.5866C216.957 43.5237 221.639 44.707 226.094 44.707V34.707ZM216.598 27.2734L226.597 27.1754C226.602 27.6491 226.489 28.2076 226.221 28.7409C225.962 29.2578 225.644 29.5802 225.434 29.7459C225.051 30.0472 225.159 29.7615 226.171 29.7536L226.094 19.7539L226.016 9.75421C217.499 9.82024 206.479 15.2086 206.598 27.3715L216.598 27.2734ZM226.094 24.8672V14.8672C224.12 14.8672 220.901 15.205 217.942 17.365C214.447 19.9163 213 23.7423 213 27.2734H223H233C233 28.0534 232.857 29.1851 232.275 30.4292C231.673 31.7141 230.767 32.7644 229.734 33.5188C227.849 34.8946 226.176 34.8672 226.094 34.8672V24.8672ZM223 27.2734H213C213 30.7382 214.392 34.6735 218.049 37.2696C221.109 39.4426 224.41 39.6776 226.321 39.6341L226.094 29.6367L225.867 19.6393C225.887 19.6388 227.641 19.5516 229.627 20.9619C230.726 21.7423 231.668 22.8331 232.282 24.1504C232.871 25.4139 233 26.5425 233 27.2734H223ZM226.094 29.6367L225.867 39.6341C227.811 39.6783 230.958 39.4247 233.929 37.4718C237.523 35.1089 239.359 31.2511 239.359 27.2734H229.359H219.359C219.359 26.3503 219.552 25.0929 220.238 23.7695C220.935 22.4251 221.93 21.4252 222.942 20.7597C224.753 19.5694 226.267 19.6381 226.321 19.6393L226.094 29.6367ZM229.359 27.2734H239.359C239.359 23.2351 237.465 19.4752 234.036 17.157C231.16 15.2133 228.086 14.8672 226.094 14.8672V24.8672V34.8672C225.992 34.8672 224.551 34.8864 222.836 33.7268C221.885 33.084 220.928 32.12 220.246 30.8108C219.569 29.5104 219.359 28.2498 219.359 27.2734H229.359ZM248.609 10.3008H238.609V35.4375H248.609H258.609V10.3008H248.609ZM248.609 35.4375V25.4375H241.734V35.4375V45.4375H248.609V35.4375ZM241.734 35.4375H251.734V32.043H241.734H231.734V35.4375H241.734ZM241.734 32.043V22.043H237.352V32.043V42.043H241.734V32.043ZM237.352 32.043H247.352V26.5859H237.352H227.352V32.043H237.352ZM237.352 26.5859V36.5859H241.734V26.5859V16.5859H237.352V26.5859ZM241.734 26.5859H251.734V23.9648H241.734H231.734V26.5859H241.734ZM241.734 23.9648V13.9648H237.438V23.9648V33.9648H241.734V23.9648ZM237.438 23.9648H247.438V18.5078H237.438H227.438V23.9648H237.438ZM237.438 18.5078V28.5078H241.734V18.5078V8.50781L237.438 8.50781V18.5078ZM241.734 18.5078H251.734V10.3008H241.734L231.734 10.3008V18.5078H241.734ZM241.734 10.3008V20.3008H248.609V10.3008V0.300781L241.734 0.300781V10.3008ZM234.859 35.9102V45.9102C236.486 45.9102 237.791 46.0402 238.783 46.2279C239.796 46.4195 240.323 46.6409 240.497 46.7293C240.675 46.82 240.261 46.6546 239.765 45.979C239.198 45.2064 238.835 44.1785 238.825 43.1401L248.824 43.043L258.824 42.9459C258.755 35.8641 254.148 31.2356 249.568 28.9045C245.215 26.6893 239.982 25.9102 234.859 25.9102V35.9102ZM248.824 43.043L238.825 42.9449C238.835 41.8734 239.213 40.8296 239.785 40.0555C240.284 39.3799 240.697 39.2174 240.513 39.3111C240.334 39.4015 239.802 39.6234 238.787 39.815C237.793 40.0028 236.486 40.1328 234.859 40.1328V50.1328V60.1328C239.984 60.1328 245.208 59.3529 249.552 57.1518C254.102 54.8464 258.754 50.2401 258.824 43.141L248.824 43.043ZM234.859 50.1328V40.1328C233.233 40.1328 231.926 40.0028 230.933 39.8151C229.919 39.6236 229.391 39.4023 229.22 39.3151C229.041 39.2244 229.469 39.396 229.979 40.0918C230.563 40.8897 230.938 41.9578 230.938 43.043H220.938H210.938C210.938 50.1898 215.608 54.8339 220.164 57.1477C224.509 59.3539 229.738 60.1328 234.859 60.1328V50.1328ZM220.938 43.043H230.938C230.938 44.0947 230.577 45.1464 229.998 45.9427C229.492 46.6384 229.063 46.813 229.235 46.7252C229.402 46.64 229.925 46.4193 230.937 46.2278C231.927 46.0402 233.233 45.9102 234.859 45.9102V35.9102V25.9102C229.74 25.9102 224.502 26.6883 220.148 28.9086C215.561 31.2483 210.938 35.9145 210.938 43.043H220.938ZM234.859 41.1094V31.1094C232.537 31.1094 229.692 31.2114 227.18 31.9099C225.923 32.2594 223.788 33.0081 221.858 34.7841C219.546 36.912 218.144 39.9678 218.247 43.3459L228.242 43.043L238.238 42.7401C238.273 43.8968 238.078 45.2028 237.515 46.5093C236.956 47.8056 236.169 48.7947 235.401 49.5012C234.009 50.7817 232.693 51.1356 232.538 51.1789C232.228 51.2652 232.713 51.1094 234.859 51.1094V41.1094ZM228.242 43.043L218.247 42.7306C218.139 46.1968 219.618 49.2395 221.888 51.3112C223.79 53.0471 225.886 53.7939 227.136 54.1477C229.649 54.8587 232.489 54.9766 234.859 54.9766V44.9766V34.9766C232.761 34.9766 232.27 34.8152 232.581 34.9031C232.731 34.9453 234.007 35.2947 235.371 36.5391C236.123 37.2255 236.916 38.2008 237.486 39.4978C238.063 40.8119 238.275 42.1466 238.237 43.3553L228.242 43.043ZM234.859 44.9766V54.9766C237.197 54.9766 240.016 54.8583 242.528 54.137C243.792 53.7743 245.847 53.0237 247.719 51.3196C249.921 49.3144 251.391 46.3968 251.391 43.043H241.391H231.391C231.391 41.8718 231.629 40.5986 232.199 39.3546C232.762 38.1258 233.525 37.1946 234.254 36.5308C235.586 35.3181 236.83 34.965 237.009 34.9137C237.351 34.8156 236.905 34.9766 234.859 34.9766V44.9766ZM241.391 43.043H251.391C251.391 39.7697 249.993 36.836 247.749 34.7757C245.849 33.0317 243.755 32.2787 242.484 31.9203C239.973 31.2115 237.147 31.1094 234.859 31.1094V41.1094V51.1094C236.955 51.1094 237.394 51.265 237.053 51.1686C236.867 51.1163 235.584 50.7581 234.224 49.5096C233.48 48.826 232.721 47.8807 232.168 46.6511C231.612 45.4123 231.391 44.1648 231.391 43.043H241.391ZM286.336 10.3867H296.336C296.336 4.86387 291.859 0.386719 286.336 0.386719V10.3867ZM286.336 38.6172V48.6172C291.859 48.6172 296.336 44.14 296.336 38.6172H286.336ZM279.418 38.6172H269.418C269.418 44.14 273.895 48.6172 279.418 48.6172V38.6172ZM279.418 10.3867V0.386719C273.895 0.386719 269.418 4.86387 269.418 10.3867H279.418ZM287.281 43.9883H297.281C297.281 38.4654 292.804 33.9883 287.281 33.9883V43.9883ZM287.281 49.4883V59.4883C292.804 59.4883 297.281 55.0111 297.281 49.4883H287.281ZM259.137 49.4883H249.137C249.137 55.0111 253.614 59.4883 259.137 59.4883V49.4883ZM259.137 35.7812V25.7812C253.614 25.7812 249.137 30.2584 249.137 35.7812H259.137ZM266.098 35.7812H276.098C276.098 30.2584 271.621 25.7812 266.098 25.7812V35.7812ZM266.098 43.9883H256.098C256.098 49.5111 260.575 53.9883 266.098 53.9883V43.9883ZM253.25 22.9336L263.25 23.005C263.25 22.9569 263.25 22.9087 263.25 22.8606L253.25 22.9336ZM286.336 10.3867H276.336V38.6172H286.336H296.336V10.3867H286.336ZM286.336 38.6172V28.6172H279.418V38.6172V48.6172H286.336V38.6172ZM279.418 38.6172H289.418V10.3867H279.418H269.418V38.6172H279.418ZM279.418 10.3867V20.3867H286.336V10.3867V0.386719H279.418V10.3867ZM287.281 43.9883H277.281V49.4883H287.281H297.281V43.9883H287.281ZM287.281 49.4883V39.4883H259.137V49.4883V59.4883H287.281V49.4883ZM259.137 49.4883H269.137V35.7812H259.137H249.137V49.4883H259.137ZM259.137 35.7812V45.7812H266.098V35.7812V25.7812H259.137V35.7812ZM266.098 35.7812H256.098V43.9883H266.098H276.098V35.7812H266.098ZM266.098 43.9883V53.9883H287.281V43.9883V33.9883H266.098V43.9883ZM264.379 12.75V22.75C265.165 22.75 265.516 23.0153 265.57 23.0633C265.595 23.0864 265.568 23.0686 265.537 23.0003C265.502 22.9233 265.508 22.8828 265.508 22.9336H275.508H285.508C285.508 10.5696 275.084 2.75 264.379 2.75V12.75ZM275.508 22.9336H265.508C265.508 23.0475 265.489 23.0407 265.519 22.9736C265.546 22.9139 265.574 22.8913 265.559 22.9051C265.528 22.933 265.19 23.2031 264.379 23.2031V33.2031V43.2031C275.113 43.2031 285.508 35.4002 285.508 22.9336H275.508ZM264.379 33.2031V23.2031C263.561 23.2031 263.209 22.9284 263.173 22.8962C263.158 22.8824 263.192 22.9109 263.226 22.9859C263.263 23.0694 263.249 23.0969 263.25 23.005L253.25 22.9336L243.25 22.8622C243.16 35.4477 253.718 43.2031 264.379 43.2031V33.2031ZM253.25 22.9336L263.25 22.8606C263.25 22.8325 263.251 22.8944 263.208 22.988C263.17 23.0716 263.136 23.0953 263.162 23.0721C263.22 23.0199 263.586 22.75 264.379 22.75V12.75V2.75C253.748 2.75 243.159 10.5216 243.25 23.0066L253.25 22.9336ZM264.379 18.7227V8.72266C261.329 8.72266 257.629 9.58178 254.562 12.3151C251.325 15.1997 249.953 19.1411 249.953 22.9336H259.953H269.953C269.953 23.9331 269.526 25.769 267.868 27.2464C266.38 28.5725 264.894 28.7227 264.379 28.7227V18.7227ZM259.953 22.9336H249.953C249.953 26.6622 251.242 30.6618 254.534 33.6182C257.653 36.4189 261.401 37.2305 264.379 37.2305V27.2305V17.2305C264.821 17.2305 266.357 17.3546 267.897 18.7372C269.61 20.2757 269.953 22.1269 269.953 22.9336H259.953ZM264.379 27.2305V37.2305C267.41 37.2305 271.126 36.3547 274.187 33.5493C277.394 30.6097 278.676 26.6576 278.676 22.9336H268.676H258.676C258.676 22.1315 259.013 20.3278 260.672 18.8062C262.186 17.4188 263.754 17.2305 264.379 17.2305V27.2305ZM268.676 22.9336H278.676C278.676 19.1473 277.311 15.2516 274.159 12.3837C271.152 9.64778 267.483 8.72266 264.379 8.72266V18.7227V28.7227C263.681 28.7227 262.161 28.5065 260.7 27.1778C259.095 25.7172 258.676 23.9269 258.676 22.9336H268.676Z" fill="white" mask="url(#path-1-outside-1_6526_5683)"/>
</g>
<defs>
<filter id="filter0_d_6526_5683" x="0" y="0" width="301.281" height="68.1758" filterUnits="userSpaceOnUse" color-interpolation-filters="sRGB">
<feFlood flood-opacity="0" result="BackgroundImageFix"/>
<feColorMatrix in="SourceAlpha" type="matrix" values="0 0 0 0 0 0 0 0 0 0 0 0 0 0 0 0 0 0 127 0" result="hardAlpha"/>
<feOffset dy="4"/>
<feGaussianBlur stdDeviation="2"/>
<feComposite in2="hardAlpha" operator="out"/>
<feColorMatrix type="matrix" values="0 0 0 0 0 0 0 0 0 0 0 0 0 0 0 0 0 0 0.07 0"/>
<feBlend mode="normal" in2="BackgroundImageFix" result="effect1_dropShadow_6526_5683"/>
<feBlend mode="normal" in="SourceGraphic" in2="effect1_dropShadow_6526_5683" result="shape"/>
</filter>
</defs>
</svg>
