<svg width="313" height="68" viewBox="0 0 313 68" fill="none" xmlns="http://www.w3.org/2000/svg">
<g filter="url(#filter0_d_6524_1884)">
<mask id="path-1-outside-1_6524_1884" maskUnits="userSpaceOnUse" x="3.17188" y="-0.507813" width="306" height="61" fill="black">
<rect fill="white" x="3.17188" y="-0.507813" width="306" height="61"/>
<path d="M30.543 19.9688C30.5 25.8555 32.8203 32.8164 39.8672 35.9961L36.0859 41.3672C31.7676 39.4766 28.8887 35.8887 27.1914 31.5703C25.4512 36.3828 22.4863 40.3574 17.9531 42.3984L14 36.9844C21.1758 33.6758 23.5391 26.4141 23.5391 19.9688V19.2812H15.6758V13.6953H37.9336V19.2812H30.543V19.9688ZM46.7852 10V24.6094H52.1562V30.3242H46.7852V49.7461H39.8672V10L46.7852 10ZM86.832 10V49.7461H79.8281V10H86.832ZM74.8008 14.082C74.8008 26.543 71.2773 36.4688 56.5391 43.3438L53.0156 37.9297C62.9414 33.2031 66.916 27.7461 67.7969 19.4531H55.293V14.082H74.8008ZM123.141 12.793V15.5C123.141 18.3789 123.141 22.332 122.324 27.1016L115.578 26.457C116.137 23.2129 116.309 20.6133 116.395 18.3789H102.301V12.793H123.141ZM113.473 22.2031V29.25C117.146 29.0781 120.906 28.7773 124.387 28.2617L124.73 33.1602C116.48 34.75 107.371 34.8789 100.582 34.8789L99.9805 29.5078C102 29.4863 104.256 29.4863 106.641 29.4219V22.2031H113.473ZM133.238 10V21.6016H137.406V27.3164H133.238V39.6484H126.148V10H133.238ZM134.441 43.6875V49.1875H105.652V37.0273H112.57V43.6875H134.441ZM172.34 10V49.875H165.465V10H172.34ZM159.879 13.1367V29.207H147.891V35.1367C153.562 35.0723 158.225 34.75 163.273 33.8906L163.832 39.4336C157.816 40.5508 152.016 40.7656 144.496 40.7656L140.758 40.7656V23.8359H152.832V18.6367H140.758V13.1367H159.879ZM208.477 10V24.6523H213.547V30.2812H208.477V49.6602H201.559V10H208.477ZM197.648 13.9531C197.605 26.2422 193.395 36.5547 179.816 43.2148L175.906 37.9727C184.758 33.5039 189.441 27.9395 190.645 19.5391H178.398V13.9531H197.648ZM247.965 25.5117V31.0117H240.918V36.6836C243.797 36.5977 246.654 36.4043 249.383 36.125L249.898 41.1094C241.305 42.4414 232.668 42.4414 225.277 42.4844L224.504 36.8984C227.469 36.9414 230.691 36.9414 234 36.8984V31.0117H226.867V13.3945H247.793V18.8086H233.742V25.5117H247.965ZM258.234 10V49.875H251.402V10H258.234ZM294.758 20.0977V25.4258H266.656V11.418H273.531V20.0977H294.758ZM298.668 28.9492V34.2773H262.402V28.9492H298.668ZM295.016 43.4727V48.9727H266.184V37.0273H273.145V43.4727H295.016Z"/>
</mask>
<path d="M30.543 19.9688C30.5 25.8555 32.8203 32.8164 39.8672 35.9961L36.0859 41.3672C31.7676 39.4766 28.8887 35.8887 27.1914 31.5703C25.4512 36.3828 22.4863 40.3574 17.9531 42.3984L14 36.9844C21.1758 33.6758 23.5391 26.4141 23.5391 19.9688V19.2812H15.6758V13.6953H37.9336V19.2812H30.543V19.9688ZM46.7852 10V24.6094H52.1562V30.3242H46.7852V49.7461H39.8672V10L46.7852 10ZM86.832 10V49.7461H79.8281V10H86.832ZM74.8008 14.082C74.8008 26.543 71.2773 36.4688 56.5391 43.3438L53.0156 37.9297C62.9414 33.2031 66.916 27.7461 67.7969 19.4531H55.293V14.082H74.8008ZM123.141 12.793V15.5C123.141 18.3789 123.141 22.332 122.324 27.1016L115.578 26.457C116.137 23.2129 116.309 20.6133 116.395 18.3789H102.301V12.793H123.141ZM113.473 22.2031V29.25C117.146 29.0781 120.906 28.7773 124.387 28.2617L124.73 33.1602C116.48 34.75 107.371 34.8789 100.582 34.8789L99.9805 29.5078C102 29.4863 104.256 29.4863 106.641 29.4219V22.2031H113.473ZM133.238 10V21.6016H137.406V27.3164H133.238V39.6484H126.148V10H133.238ZM134.441 43.6875V49.1875H105.652V37.0273H112.57V43.6875H134.441ZM172.34 10V49.875H165.465V10H172.34ZM159.879 13.1367V29.207H147.891V35.1367C153.562 35.0723 158.225 34.75 163.273 33.8906L163.832 39.4336C157.816 40.5508 152.016 40.7656 144.496 40.7656L140.758 40.7656V23.8359H152.832V18.6367H140.758V13.1367H159.879ZM208.477 10V24.6523H213.547V30.2812H208.477V49.6602H201.559V10H208.477ZM197.648 13.9531C197.605 26.2422 193.395 36.5547 179.816 43.2148L175.906 37.9727C184.758 33.5039 189.441 27.9395 190.645 19.5391H178.398V13.9531H197.648ZM247.965 25.5117V31.0117H240.918V36.6836C243.797 36.5977 246.654 36.4043 249.383 36.125L249.898 41.1094C241.305 42.4414 232.668 42.4414 225.277 42.4844L224.504 36.8984C227.469 36.9414 230.691 36.9414 234 36.8984V31.0117H226.867V13.3945H247.793V18.8086H233.742V25.5117H247.965ZM258.234 10V49.875H251.402V10H258.234ZM294.758 20.0977V25.4258H266.656V11.418H273.531V20.0977H294.758ZM298.668 28.9492V34.2773H262.402V28.9492H298.668ZM295.016 43.4727V48.9727H266.184V37.0273H273.145V43.4727H295.016Z" fill="#11DCA9"/>
<path d="M30.543 19.9688L40.5427 20.0417C40.5429 20.0174 40.543 19.9931 40.543 19.9688H30.543ZM39.8672 35.9961L48.0441 41.7526C49.7608 39.3141 50.2996 36.2367 49.5135 33.36C48.7274 30.4833 46.6983 28.1076 43.9801 26.881L39.8672 35.9961ZM36.0859 41.3672L32.0754 50.5277C36.4305 52.4344 41.526 51.0113 44.2629 47.1237L36.0859 41.3672ZM27.1914 31.5703L36.4984 27.9124C34.9762 24.0395 31.2147 21.514 27.0539 21.5713C22.893 21.6285 19.2024 24.2565 17.7874 28.1697L27.1914 31.5703ZM17.9531 42.3984L9.87687 48.2954C12.6652 52.1141 17.747 53.458 22.0586 51.5168L17.9531 42.3984ZM14 36.9844L9.81287 27.9032C7.09021 29.1586 5.07445 31.5693 4.32096 34.4712C3.56747 37.3731 4.15576 40.46 5.92374 42.8813L14 36.9844ZM23.5391 19.2812H33.5391C33.5391 13.7584 29.0619 9.28125 23.5391 9.28125V19.2812ZM15.6758 19.2812H5.67578C5.67578 24.8041 10.1529 29.2812 15.6758 29.2812V19.2812ZM15.6758 13.6953V3.69531C10.1529 3.69531 5.67578 8.17247 5.67578 13.6953H15.6758ZM37.9336 13.6953H47.9336C47.9336 8.17247 43.4564 3.69531 37.9336 3.69531V13.6953ZM37.9336 19.2812V29.2812C43.4564 29.2812 47.9336 24.8041 47.9336 19.2812H37.9336ZM30.543 19.2812V9.28125C25.0201 9.28125 20.543 13.7584 20.543 19.2812H30.543ZM46.7852 10H56.7852C56.7852 4.47715 52.308 0 46.7852 0V10ZM46.7852 24.6094H36.7852C36.7852 30.1322 41.2623 34.6094 46.7852 34.6094V24.6094ZM52.1562 24.6094H62.1562C62.1562 19.0865 57.6791 14.6094 52.1562 14.6094V24.6094ZM52.1562 30.3242V40.3242C57.6791 40.3242 62.1562 35.8471 62.1562 30.3242H52.1562ZM46.7852 30.3242V20.3242C41.2623 20.3242 36.7852 24.8014 36.7852 30.3242H46.7852ZM46.7852 49.7461V59.7461C52.308 59.7461 56.7852 55.2689 56.7852 49.7461H46.7852ZM39.8672 49.7461H29.8672C29.8672 55.2689 34.3443 59.7461 39.8672 59.7461V49.7461ZM39.8672 10V0C34.3443 0 29.8672 4.47715 29.8672 10H39.8672ZM30.543 19.9688L20.5432 19.8958C20.484 28.0125 23.7517 39.6953 35.7543 45.1111L39.8672 35.9961L43.9801 26.881C42.7356 26.3195 41.9946 25.52 41.4672 24.4788C40.8716 23.3029 40.5304 21.7302 40.5427 20.0417L30.543 19.9688ZM39.8672 35.9961L31.6903 30.2395L27.909 35.6106L36.0859 41.3672L44.2629 47.1237L48.0441 41.7526L39.8672 35.9961ZM36.0859 41.3672L40.0965 32.2067C38.7627 31.6227 37.4773 30.403 36.4984 27.9124L27.1914 31.5703L17.8845 35.2283C20.3001 41.3744 24.7725 47.3304 32.0754 50.5277L36.0859 41.3672ZM27.1914 31.5703L17.7874 28.1697C16.6626 31.2803 15.2019 32.6703 13.8477 33.28L17.9531 42.3984L22.0586 51.5168C29.7707 48.0445 34.2398 41.4854 36.5955 34.9709L27.1914 31.5703ZM17.9531 42.3984L26.0294 36.5015L22.0763 31.0874L14 36.9844L5.92374 42.8813L9.87687 48.2954L17.9531 42.3984ZM14 36.9844L18.1871 46.0656C30.3906 40.4388 33.5391 28.3629 33.5391 19.9688H23.5391H13.5391C13.5391 22.0572 13.144 23.8994 12.4815 25.2508C11.8881 26.4612 11.0828 27.3177 9.81287 27.9032L14 36.9844ZM23.5391 19.9688H33.5391V19.2812H23.5391H13.5391V19.9688H23.5391ZM23.5391 19.2812V9.28125H15.6758V19.2812V29.2812H23.5391V19.2812ZM15.6758 19.2812H25.6758V13.6953H15.6758H5.67578V19.2812H15.6758ZM15.6758 13.6953V23.6953H37.9336V13.6953V3.69531L15.6758 3.69531V13.6953ZM37.9336 13.6953H27.9336V19.2812H37.9336H47.9336V13.6953H37.9336ZM37.9336 19.2812V9.28125H30.543V19.2812V29.2812H37.9336V19.2812ZM30.543 19.2812H20.543V19.9688H30.543H40.543V19.2812H30.543ZM46.7852 10L36.7852 10V24.6094H46.7852H56.7852V10H46.7852ZM46.7852 24.6094V34.6094H52.1562V24.6094V14.6094H46.7852V24.6094ZM52.1562 24.6094H42.1562V30.3242H52.1562H62.1562V24.6094H52.1562ZM52.1562 30.3242V20.3242H46.7852V30.3242V40.3242H52.1562V30.3242ZM46.7852 30.3242H36.7852V49.7461H46.7852H56.7852V30.3242H46.7852ZM46.7852 49.7461V39.7461H39.8672V49.7461V59.7461H46.7852V49.7461ZM39.8672 49.7461H49.8672V10L39.8672 10H29.8672V49.7461H39.8672ZM39.8672 10V20H46.7852V10V0H39.8672V10ZM86.832 10H96.832C96.832 4.47715 92.3549 0 86.832 0V10ZM86.832 49.7461V59.7461C92.3549 59.7461 96.832 55.2689 96.832 49.7461H86.832ZM79.8281 49.7461H69.8281C69.8281 55.2689 74.3053 59.7461 79.8281 59.7461V49.7461ZM79.8281 10V0C74.3053 0 69.8281 4.47715 69.8281 10H79.8281ZM74.8008 14.082L84.8008 14.082C84.8008 8.55918 80.3236 4.08203 74.8008 4.08203V14.082ZM56.5391 43.3438L48.1577 48.7983C50.8751 52.9739 56.2516 54.5123 60.7665 52.4063L56.5391 43.3438ZM53.0156 37.9297L48.7163 28.9011C46.1138 30.1404 44.1726 32.4424 43.3906 35.2169C42.6086 37.9913 43.0619 40.9683 44.6342 43.3842L53.0156 37.9297ZM67.7969 19.4531L77.7409 20.5094C78.0405 17.6892 77.1285 14.8745 75.232 12.7659C73.3355 10.6573 70.6329 9.45312 67.7969 9.45312V19.4531ZM55.293 19.4531H45.293C45.293 24.976 49.7701 29.4531 55.293 29.4531V19.4531ZM55.293 14.082V4.08203C49.7701 4.08203 45.293 8.55918 45.293 14.082H55.293ZM86.832 10H76.832V49.7461H86.832H96.832V10H86.832ZM86.832 49.7461V39.7461H79.8281V49.7461V59.7461H86.832V49.7461ZM79.8281 49.7461H89.8281V10H79.8281H69.8281V49.7461H79.8281ZM79.8281 10V20H86.832V10V0L79.8281 0V10ZM74.8008 14.082H64.8008C64.8008 19.4566 64.0224 23.132 62.4566 25.9487C60.9741 28.6154 58.2199 31.5252 52.3117 34.2812L56.5391 43.3438L60.7665 52.4063C69.5965 48.2873 75.9732 42.7967 79.937 35.6665C83.8174 28.6864 84.8008 21.1684 84.8008 14.082L74.8008 14.082ZM56.5391 43.3438L64.9205 37.8892L61.397 32.4751L53.0156 37.9297L44.6342 43.3842L48.1577 48.7983L56.5391 43.3438ZM53.0156 37.9297L57.315 46.9583C63.0946 44.2061 68.0418 40.8257 71.6691 36.197C75.4069 31.4275 77.1473 26.0982 77.7409 20.5094L67.7969 19.4531L57.8528 18.3969C57.5656 21.101 56.8783 22.6468 55.9271 23.8606C54.8654 25.2154 52.8624 26.9267 48.7163 28.9011L53.0156 37.9297ZM67.7969 19.4531V9.45312H55.293V19.4531V29.4531H67.7969V19.4531ZM55.293 19.4531H65.293V14.082H55.293H45.293V19.4531H55.293ZM55.293 14.082V24.082H74.8008V14.082V4.08203L55.293 4.08203V14.082ZM123.141 12.793H133.141C133.141 7.27012 128.663 2.79297 123.141 2.79297V12.793ZM122.324 27.1016L121.373 37.0562C126.584 37.5541 131.298 33.9487 132.181 28.7887L122.324 27.1016ZM115.578 26.457L105.723 24.7601C105.251 27.5026 105.943 30.3178 107.633 32.5289C109.322 34.74 111.857 36.147 114.627 36.4117L115.578 26.457ZM116.395 18.3789L126.387 18.7632C126.492 16.0464 125.485 13.4042 123.6 11.4451C121.715 9.48595 119.113 8.37891 116.395 8.37891V18.3789ZM102.301 18.3789H92.3008C92.3008 23.9018 96.7779 28.3789 102.301 28.3789V18.3789ZM102.301 12.793V2.79297C96.7779 2.79297 92.3008 7.27012 92.3008 12.793H102.301ZM113.473 22.2031H123.473C123.473 16.6803 118.996 12.2031 113.473 12.2031V22.2031ZM113.473 29.25H103.473C103.473 31.9833 104.591 34.5974 106.569 36.4844C108.546 38.3714 111.21 39.3668 113.94 39.2391L113.473 29.25ZM124.387 28.2617L134.362 27.5617C134.167 24.7827 132.822 22.2109 130.65 20.4661C128.478 18.7212 125.677 17.9614 122.921 18.3697L124.387 28.2617ZM124.73 33.1602L126.623 42.9795C131.59 42.0223 135.06 37.5063 134.706 32.4601L124.73 33.1602ZM100.582 34.8789L90.6442 35.9919C91.2109 41.0524 95.4899 44.8789 100.582 44.8789V34.8789ZM99.9805 29.5078L99.8741 19.5084C97.0468 19.5385 94.3644 20.764 92.4909 22.8816C90.6174 24.9992 89.7279 27.811 90.0426 30.6209L99.9805 29.5078ZM106.641 29.4219L106.911 39.4182C112.326 39.2719 116.641 34.8395 116.641 29.4219H106.641ZM106.641 22.2031V12.2031C101.118 12.2031 96.6406 16.6803 96.6406 22.2031H106.641ZM133.238 10H143.238C143.238 4.47715 138.761 0 133.238 0V10ZM133.238 21.6016H123.238C123.238 27.1244 127.715 31.6016 133.238 31.6016V21.6016ZM137.406 21.6016H147.406C147.406 16.0787 142.929 11.6016 137.406 11.6016V21.6016ZM137.406 27.3164V37.3164C142.929 37.3164 147.406 32.8393 147.406 27.3164H137.406ZM133.238 27.3164V17.3164C127.715 17.3164 123.238 21.7936 123.238 27.3164H133.238ZM133.238 39.6484V49.6484C138.761 49.6484 143.238 45.1713 143.238 39.6484L133.238 39.6484ZM126.148 39.6484H116.148C116.148 45.1713 120.626 49.6484 126.148 49.6484V39.6484ZM126.148 10V0C120.626 0 116.148 4.47715 116.148 10H126.148ZM134.441 43.6875L144.441 43.6875C144.441 38.1647 139.964 33.6875 134.441 33.6875V43.6875ZM134.441 49.1875V59.1875C139.964 59.1875 144.441 54.7103 144.441 49.1875L134.441 49.1875ZM105.652 49.1875H95.6523C95.6523 54.7103 100.129 59.1875 105.652 59.1875V49.1875ZM105.652 37.0273V27.0273C100.129 27.0273 95.6523 31.5045 95.6523 37.0273H105.652ZM112.57 37.0273H122.57C122.57 31.5045 118.093 27.0273 112.57 27.0273V37.0273ZM112.57 43.6875H102.57C102.57 49.2103 107.047 53.6875 112.57 53.6875V43.6875ZM123.141 12.793H113.141V15.5H123.141H133.141V12.793H123.141ZM123.141 15.5H113.141C113.141 18.3282 113.129 21.5474 112.468 25.4144L122.324 27.1016L132.181 28.7887C133.152 23.1167 133.141 18.4296 133.141 15.5H123.141ZM122.324 27.1016L123.275 17.1469L116.529 16.5024L115.578 26.457L114.627 36.4117L121.373 37.0562L122.324 27.1016ZM115.578 26.457L125.433 28.1539C126.092 24.3301 126.291 21.26 126.387 18.7632L116.395 18.3789L106.402 17.9946C106.326 19.9666 106.182 22.0957 105.723 24.7601L115.578 26.457ZM116.395 18.3789V8.37891L102.301 8.37891V18.3789V28.3789H116.395V18.3789ZM102.301 18.3789H112.301V12.793H102.301H92.3008V18.3789H102.301ZM102.301 12.793V22.793H123.141V12.793V2.79297H102.301V12.793ZM113.473 22.2031H103.473V29.25H113.473H123.473V22.2031H113.473ZM113.473 29.25L113.94 39.2391C117.813 39.0579 121.93 38.7349 125.852 38.1538L124.387 28.2617L122.921 18.3697C119.883 18.8198 116.48 19.0984 113.005 19.2609L113.473 29.25ZM124.387 28.2617L114.411 28.9618L114.755 33.8602L124.73 33.1602L134.706 32.4601L134.362 27.5617L124.387 28.2617ZM124.73 33.1602L122.838 23.3408C115.625 24.7308 107.378 24.8789 100.582 24.8789V34.8789V44.8789C107.364 44.8789 117.336 44.7692 126.623 42.9795L124.73 33.1602ZM100.582 34.8789L110.52 33.7659L109.918 28.3948L99.9805 29.5078L90.0426 30.6209L90.6442 35.9919L100.582 34.8789ZM99.9805 29.5078L100.087 39.5072C101.97 39.4872 104.418 39.4856 106.911 39.4182L106.641 29.4219L106.37 19.4255C104.094 19.487 102.03 19.4854 99.8741 19.5084L99.9805 29.5078ZM106.641 29.4219H116.641V22.2031H106.641H96.6406V29.4219H106.641ZM106.641 22.2031V32.2031H113.473V22.2031V12.2031L106.641 12.2031V22.2031ZM133.238 10H123.238V21.6016H133.238H143.238V10H133.238ZM133.238 21.6016V31.6016H137.406V21.6016V11.6016H133.238V21.6016ZM137.406 21.6016H127.406V27.3164H137.406H147.406V21.6016H137.406ZM137.406 27.3164V17.3164H133.238V27.3164V37.3164H137.406V27.3164ZM133.238 27.3164H123.238V39.6484H133.238L143.238 39.6484V27.3164H133.238ZM133.238 39.6484V29.6484H126.148V39.6484V49.6484H133.238V39.6484ZM126.148 39.6484H136.148V10H126.148H116.148V39.6484H126.148ZM126.148 10V20H133.238V10V0H126.148V10ZM134.441 43.6875H124.441V49.1875H134.441L144.441 49.1875V43.6875L134.441 43.6875ZM134.441 49.1875V39.1875H105.652V49.1875V59.1875H134.441V49.1875ZM105.652 49.1875H115.652V37.0273H105.652H95.6523V49.1875H105.652ZM105.652 37.0273V47.0273H112.57V37.0273V27.0273H105.652V37.0273ZM112.57 37.0273H102.57V43.6875H112.57H122.57V37.0273H112.57ZM112.57 43.6875V53.6875H134.441V43.6875V33.6875H112.57V43.6875ZM172.34 10L182.34 10C182.34 4.47715 177.863 0 172.34 0V10ZM172.34 49.875V59.875C177.863 59.875 182.34 55.3978 182.34 49.875H172.34ZM165.465 49.875H155.465C155.465 55.3978 159.942 59.875 165.465 59.875V49.875ZM165.465 10V0C159.942 0 155.465 4.47715 155.465 10H165.465ZM159.879 13.1367H169.879C169.879 7.61387 165.402 3.13672 159.879 3.13672V13.1367ZM159.879 29.207V39.207C165.402 39.207 169.879 34.7299 169.879 29.207H159.879ZM147.891 29.207V19.207C142.368 19.207 137.891 23.6842 137.891 29.207L147.891 29.207ZM147.891 35.1367L137.891 35.1367C137.891 37.8086 138.96 40.3693 140.86 42.2478C142.76 44.1264 145.333 45.1664 148.004 45.1361L147.891 35.1367ZM163.273 33.8906L173.223 32.888C172.945 30.1315 171.536 27.6137 169.332 25.9351C167.128 24.2565 164.327 23.5675 161.595 24.0324L163.273 33.8906ZM163.832 39.4336L165.658 49.2655C170.771 48.3159 174.303 43.6054 173.782 38.4309L163.832 39.4336ZM140.758 40.7656H130.758C130.758 46.2885 135.235 50.7656 140.758 50.7656V40.7656ZM140.758 23.8359V13.8359C135.235 13.8359 130.758 18.3131 130.758 23.8359H140.758ZM152.832 23.8359V33.8359C158.355 33.8359 162.832 29.3588 162.832 23.8359H152.832ZM152.832 18.6367H162.832C162.832 13.1139 158.355 8.63672 152.832 8.63672V18.6367ZM140.758 18.6367H130.758C130.758 24.1596 135.235 28.6367 140.758 28.6367V18.6367ZM140.758 13.1367V3.13672C135.235 3.13672 130.758 7.61387 130.758 13.1367H140.758ZM172.34 10H162.34V49.875H172.34H182.34V10L172.34 10ZM172.34 49.875V39.875H165.465V49.875V59.875H172.34V49.875ZM165.465 49.875H175.465V10L165.465 10H155.465V49.875H165.465ZM165.465 10V20H172.34V10V0L165.465 0V10ZM159.879 13.1367H149.879V29.207H159.879H169.879V13.1367H159.879ZM159.879 29.207V19.207H147.891V29.207V39.207H159.879V29.207ZM147.891 29.207L137.891 29.207V35.1367L147.891 35.1367H157.891V29.207H147.891ZM147.891 35.1367L148.004 45.1361C154.029 45.0676 159.241 44.7209 164.951 43.7488L163.273 33.8906L161.595 24.0324C157.209 24.7791 153.096 25.0769 147.777 25.1374L147.891 35.1367ZM163.273 33.8906L153.324 34.8933L153.882 40.4363L163.832 39.4336L173.782 38.4309L173.223 32.888L163.273 33.8906ZM163.832 39.4336L162.006 29.6017C156.926 30.5451 151.876 30.7656 144.496 30.7656V40.7656V50.7656C152.155 50.7656 158.706 50.5565 165.658 49.2655L163.832 39.4336ZM144.496 40.7656V30.7656L140.758 30.7656V40.7656V50.7656L144.496 50.7656V40.7656ZM140.758 40.7656L150.758 40.7656V23.8359H140.758H130.758V40.7656H140.758ZM140.758 23.8359V33.8359L152.832 33.8359V23.8359V13.8359H140.758V23.8359ZM152.832 23.8359H162.832V18.6367H152.832H142.832V23.8359H152.832ZM152.832 18.6367V8.63672H140.758V18.6367V28.6367L152.832 28.6367V18.6367ZM140.758 18.6367H150.758V13.1367H140.758H130.758V18.6367H140.758ZM140.758 13.1367V23.1367H159.879V13.1367V3.13672L140.758 3.13672V13.1367ZM208.477 10H218.477C218.477 4.47715 213.999 0 208.477 0V10ZM208.477 24.6523L198.477 24.6523C198.477 30.1752 202.954 34.6523 208.477 34.6523V24.6523ZM213.547 24.6523H223.547C223.547 19.1295 219.07 14.6523 213.547 14.6523V24.6523ZM213.547 30.2812V40.2812C219.07 40.2812 223.547 35.8041 223.547 30.2812H213.547ZM208.477 30.2812V20.2812C202.954 20.2812 198.477 24.7584 198.477 30.2812H208.477ZM208.477 49.6602V59.6602C213.999 59.6602 218.477 55.183 218.477 49.6602H208.477ZM201.559 49.6602H191.559C191.559 55.183 196.036 59.6602 201.559 59.6602V49.6602ZM201.559 10V0C196.036 0 191.559 4.47715 191.559 10H201.559ZM197.648 13.9531L207.648 13.9881C207.658 11.3299 206.608 8.77736 204.732 6.89443C202.855 5.0115 200.307 3.95312 197.648 3.95312V13.9531ZM179.816 43.2148L171.801 49.1938C174.679 53.0526 179.898 54.313 184.22 52.193L179.816 43.2148ZM175.906 37.9727L171.399 29.0458C168.763 30.377 166.849 32.8059 166.172 35.6812C165.495 38.5565 166.124 41.5839 167.891 43.9516L175.906 37.9727ZM190.645 19.5391L200.544 20.9568C200.955 18.0866 200.1 15.1792 198.2 12.9884C196.301 10.7976 193.544 9.53906 190.645 9.53906V19.5391ZM178.398 19.5391H168.398C168.398 25.0619 172.876 29.5391 178.398 29.5391V19.5391ZM178.398 13.9531V3.95312C172.876 3.95312 168.398 8.43028 168.398 13.9531H178.398ZM208.477 10H198.477V24.6523L208.477 24.6523H218.477V10H208.477ZM208.477 24.6523V34.6523H213.547V24.6523V14.6523H208.477V24.6523ZM213.547 24.6523L203.547 24.6523V30.2812H213.547H223.547V24.6523H213.547ZM213.547 30.2812V20.2812H208.477V30.2812V40.2812H213.547V30.2812ZM208.477 30.2812H198.477V49.6602H208.477H218.477V30.2812H208.477ZM208.477 49.6602V39.6602H201.559V49.6602V59.6602H208.477V49.6602ZM201.559 49.6602H211.559V10H201.559H191.559V49.6602H201.559ZM201.559 10V20L208.477 20V10V0H201.559V10ZM197.648 13.9531L187.648 13.9182C187.631 18.9688 186.756 22.8059 185.072 25.8287C183.449 28.7423 180.651 31.6673 175.413 34.2367L179.816 43.2148L184.22 52.193C192.56 48.1022 198.656 42.5409 202.544 35.5609C206.371 28.6902 207.623 21.2265 207.648 13.9881L197.648 13.9531ZM179.816 43.2148L187.832 37.2359L183.922 31.9937L175.906 37.9727L167.891 43.9516L171.801 49.1938L179.816 43.2148ZM175.906 37.9727L180.413 46.8995C185.658 44.2517 190.332 40.951 193.917 36.5212C197.588 31.9849 199.712 26.7651 200.544 20.9568L190.645 19.5391L180.746 18.1213C180.374 20.7134 179.554 22.4761 178.37 23.9392C177.1 25.5089 175.006 27.2248 171.399 29.0458L175.906 37.9727ZM190.645 19.5391V9.53906H178.398V19.5391V29.5391H190.645V19.5391ZM178.398 19.5391H188.398V13.9531H178.398H168.398V19.5391H178.398ZM178.398 13.9531V23.9531H197.648V13.9531V3.95312L178.398 3.95312V13.9531ZM247.965 25.5117H257.965C257.965 19.9889 253.488 15.5117 247.965 15.5117V25.5117ZM247.965 31.0117V41.0117C253.488 41.0117 257.965 36.5346 257.965 31.0117H247.965ZM240.918 31.0117V21.0117C235.395 21.0117 230.918 25.4889 230.918 31.0117H240.918ZM240.918 36.6836H230.918C230.918 39.3875 232.013 41.9762 233.953 43.8594C235.893 45.7426 238.514 46.7598 241.216 46.6791L240.918 36.6836ZM249.383 36.125L259.33 35.096C258.762 29.6067 253.854 25.615 248.365 26.177L249.383 36.125ZM249.898 41.1094L251.43 50.9914C256.693 50.1756 260.393 45.378 259.845 40.0804L249.898 41.1094ZM225.277 42.4844L215.372 43.8559C216.06 48.8235 220.321 52.5134 225.335 52.4842L225.277 42.4844ZM224.504 36.8984L224.649 26.8995C221.732 26.8572 218.943 28.0903 217.011 30.2757C215.08 32.4611 214.198 35.3808 214.598 38.27L224.504 36.8984ZM234 36.8984L234.13 46.8976C239.602 46.8265 244 42.3706 244 36.8984H234ZM234 31.0117H244C244 25.4889 239.523 21.0117 234 21.0117V31.0117ZM226.867 31.0117H216.867C216.867 36.5346 221.344 41.0117 226.867 41.0117V31.0117ZM226.867 13.3945V3.39453C221.344 3.39453 216.867 7.87168 216.867 13.3945H226.867ZM247.793 13.3945H257.793C257.793 7.87168 253.316 3.39453 247.793 3.39453V13.3945ZM247.793 18.8086V28.8086C253.316 28.8086 257.793 24.3314 257.793 18.8086H247.793ZM233.742 18.8086V8.80859C228.219 8.80859 223.742 13.2857 223.742 18.8086H233.742ZM233.742 25.5117H223.742C223.742 31.0346 228.219 35.5117 233.742 35.5117V25.5117ZM258.234 10H268.234C268.234 4.47715 263.757 0 258.234 0V10ZM258.234 49.875V59.875C263.757 59.875 268.234 55.3978 268.234 49.875H258.234ZM251.402 49.875H241.402C241.402 55.3978 245.88 59.875 251.402 59.875V49.875ZM251.402 10V0C245.88 0 241.402 4.47715 241.402 10H251.402ZM247.965 25.5117H237.965V31.0117H247.965H257.965V25.5117H247.965ZM247.965 31.0117V21.0117H240.918V31.0117V41.0117H247.965V31.0117ZM240.918 31.0117H230.918V36.6836H240.918H250.918V31.0117H240.918ZM240.918 36.6836L241.216 46.6791C244.341 46.5859 247.439 46.3763 250.401 46.073L249.383 36.125L248.365 26.177C245.87 26.4323 243.253 26.6094 240.62 26.688L240.918 36.6836ZM249.383 36.125L239.436 37.154L239.952 42.1384L249.898 41.1094L259.845 40.0804L259.33 35.096L249.383 36.125ZM249.898 41.1094L248.367 31.2274C240.637 32.4255 232.764 32.4407 225.219 32.4845L225.277 42.4844L225.335 52.4842C232.572 52.4421 241.973 52.4573 251.43 50.9914L249.898 41.1094ZM225.277 42.4844L235.183 41.1128L234.409 35.5269L224.504 36.8984L214.598 38.27L215.372 43.8559L225.277 42.4844ZM224.504 36.8984L224.359 46.8974C227.425 46.9418 230.74 46.9416 234.13 46.8976L234 36.8984L233.87 26.8993C230.643 26.9412 227.512 26.941 224.649 26.8995L224.504 36.8984ZM234 36.8984H244V31.0117H234H224V36.8984H234ZM234 31.0117V21.0117H226.867V31.0117V41.0117H234V31.0117ZM226.867 31.0117H236.867V13.3945H226.867H216.867V31.0117H226.867ZM226.867 13.3945V23.3945H247.793V13.3945V3.39453H226.867V13.3945ZM247.793 13.3945H237.793V18.8086H247.793H257.793V13.3945H247.793ZM247.793 18.8086V8.80859L233.742 8.80859V18.8086V28.8086H247.793V18.8086ZM233.742 18.8086H223.742V25.5117H233.742H243.742V18.8086H233.742ZM233.742 25.5117V35.5117H247.965V25.5117V15.5117H233.742V25.5117ZM258.234 10H248.234V49.875H258.234H268.234V10H258.234ZM258.234 49.875V39.875H251.402V49.875V59.875H258.234V49.875ZM251.402 49.875H261.402V10H251.402H241.402V49.875H251.402ZM251.402 10V20H258.234V10V0H251.402V10ZM294.758 20.0977H304.758C304.758 14.5748 300.281 10.0977 294.758 10.0977V20.0977ZM294.758 25.4258V35.4258C300.281 35.4258 304.758 30.9486 304.758 25.4258H294.758ZM266.656 25.4258H256.656C256.656 30.9486 261.133 35.4258 266.656 35.4258V25.4258ZM266.656 11.418V1.41797C261.133 1.41797 256.656 5.89512 256.656 11.418H266.656ZM273.531 11.418H283.531C283.531 5.89512 279.054 1.41797 273.531 1.41797V11.418ZM273.531 20.0977H263.531C263.531 25.6205 268.008 30.0977 273.531 30.0977V20.0977ZM298.668 28.9492H308.668C308.668 23.4264 304.191 18.9492 298.668 18.9492V28.9492ZM298.668 34.2773V44.2773C304.191 44.2773 308.668 39.8002 308.668 34.2773H298.668ZM262.402 34.2773H252.402C252.402 39.8002 256.88 44.2773 262.402 44.2773V34.2773ZM262.402 28.9492V18.9492C256.88 18.9492 252.402 23.4264 252.402 28.9492H262.402ZM295.016 43.4727H305.016C305.016 37.9498 300.538 33.4727 295.016 33.4727V43.4727ZM295.016 48.9727V58.9727C300.538 58.9727 305.016 54.4955 305.016 48.9727H295.016ZM266.184 48.9727H256.184C256.184 54.4955 260.661 58.9727 266.184 58.9727V48.9727ZM266.184 37.0273V27.0273C260.661 27.0273 256.184 31.5045 256.184 37.0273H266.184ZM273.145 37.0273H283.145C283.145 31.5045 278.667 27.0273 273.145 27.0273V37.0273ZM273.145 43.4727H263.145C263.145 48.9955 267.622 53.4727 273.145 53.4727V43.4727ZM294.758 20.0977H284.758V25.4258H294.758H304.758V20.0977H294.758ZM294.758 25.4258V15.4258H266.656V25.4258V35.4258H294.758V25.4258ZM266.656 25.4258H276.656V11.418H266.656H256.656V25.4258H266.656ZM266.656 11.418V21.418H273.531V11.418V1.41797H266.656V11.418ZM273.531 11.418H263.531V20.0977H273.531H283.531V11.418H273.531ZM273.531 20.0977V30.0977H294.758V20.0977V10.0977H273.531V20.0977ZM298.668 28.9492H288.668V34.2773H298.668H308.668V28.9492H298.668ZM298.668 34.2773V24.2773H262.402V34.2773V44.2773H298.668V34.2773ZM262.402 34.2773H272.402V28.9492H262.402H252.402V34.2773H262.402ZM262.402 28.9492V38.9492H298.668V28.9492V18.9492H262.402V28.9492ZM295.016 43.4727H285.016V48.9727H295.016H305.016V43.4727H295.016ZM295.016 48.9727V38.9727H266.184V48.9727V58.9727H295.016V48.9727ZM266.184 48.9727H276.184V37.0273H266.184H256.184V48.9727H266.184ZM266.184 37.0273V47.0273H273.145V37.0273V27.0273H266.184V37.0273ZM273.145 37.0273H263.145V43.4727H273.145H283.145V37.0273H273.145ZM273.145 43.4727V53.4727H295.016V43.4727V33.4727H273.145V43.4727Z" fill="white" mask="url(#path-1-outside-1_6524_1884)"/>
</g>
<defs>
<filter id="filter0_d_6524_1884" x="0" y="0" width="312.668" height="67.875" filterUnits="userSpaceOnUse" color-interpolation-filters="sRGB">
<feFlood flood-opacity="0" result="BackgroundImageFix"/>
<feColorMatrix in="SourceAlpha" type="matrix" values="0 0 0 0 0 0 0 0 0 0 0 0 0 0 0 0 0 0 127 0" result="hardAlpha"/>
<feOffset dy="4"/>
<feGaussianBlur stdDeviation="2"/>
<feComposite in2="hardAlpha" operator="out"/>
<feColorMatrix type="matrix" values="0 0 0 0 0 0 0 0 0 0 0 0 0 0 0 0 0 0 0.07 0"/>
<feBlend mode="normal" in2="BackgroundImageFix" result="effect1_dropShadow_6524_1884"/>
<feBlend mode="normal" in="SourceGraphic" in2="effect1_dropShadow_6524_1884" result="shape"/>
</filter>
</defs>
</svg>
