<svg width="228" height="68" viewBox="0 0 228 68" fill="none" xmlns="http://www.w3.org/2000/svg">
<g filter="url(#filter0_d_6524_1790)">
<mask id="path-1-outside-1_6524_1790" maskUnits="userSpaceOnUse" x="3.17188" y="-0.507813" width="220" height="61" fill="black">
<rect fill="white" x="3.17188" y="-0.507813" width="220" height="61"/>
<path d="M30.543 19.9688C30.5 25.8555 32.8203 32.8164 39.8672 35.9961L36.0859 41.3672C31.7676 39.4766 28.8887 35.8887 27.1914 31.5703C25.4512 36.3828 22.4863 40.3574 17.9531 42.3984L14 36.9844C21.1758 33.6758 23.5391 26.4141 23.5391 19.9688V19.2812H15.6758V13.6953H37.9336V19.2812H30.543V19.9688ZM46.7852 10V24.6094H52.1562V30.3242H46.7852V49.7461H39.8672V10L46.7852 10ZM86.6172 10.0859V38.9609H79.6992V10.0859H86.6172ZM87.5625 43.6875V49.1875H59.418V36.082H66.3789V43.6875H87.5625ZM69.043 15.9727C69 20.7422 70.9766 25.6836 77.8945 27.7461L74.4141 33.1172C70.0742 31.8066 67.1953 29.207 65.4766 25.8555C63.6934 29.4648 60.707 32.3652 56.1094 33.8047L52.5859 28.3477C59.7188 26.1562 61.8242 20.8281 61.8672 15.9727V12.2344H69.043V15.9727ZM122.926 10V18.0781H127.867V23.707H122.926V32H116.008V10H122.926ZM111.625 12.1914C111.625 23.0195 105.18 30.1094 93.1484 33.2461L90.4414 27.7461C98.7344 25.834 103.074 22.0098 104.02 17.6055H92.5039V12.1914L111.625 12.1914ZM122.926 33.2891V49.3164H96.4141V33.2891H122.926ZM103.246 38.7891V43.9883H116.137V38.7891H103.246ZM153.863 34.793C153.863 37.7578 154.895 40.7871 157.73 42.9141C160.588 40.7012 161.727 37.6504 161.77 34.793V33.9336H168.516V34.793C168.516 38.9609 170.191 42.6133 175.605 44.2031L172.297 49.1445C168.623 47.9629 166.281 45.7715 164.906 42.9141C163.574 45.8145 161.318 48.2422 157.859 49.5312C154.229 48.2637 151.951 45.9004 150.641 43.043C149.223 45.793 146.924 47.9629 143.422 49.1445L140.07 44.2031C145.398 42.4414 147.117 38.6602 147.117 34.793V33.9336H153.863V34.793ZM172.254 10.0859V32.3437H165.336V10.0859H172.254ZM150.297 11.8906C156.57 11.8906 161.426 15.9297 161.426 21.6445C161.426 27.1875 156.57 31.2695 150.297 31.2695C143.98 31.2695 139.125 27.1875 139.168 21.6445C139.125 15.9297 143.98 11.8906 150.297 11.8906ZM150.297 17.6484C147.676 17.6484 145.871 18.9805 145.871 21.6445C145.871 24.1797 147.676 25.5977 150.297 25.5547C152.789 25.5977 154.594 24.1797 154.594 21.6445C154.594 18.9805 152.789 17.6484 150.297 17.6484ZM209.121 20.0977V25.4258L181.02 25.4258V11.418H187.895V20.0977L209.121 20.0977ZM213.031 28.9492V34.2773H176.766V28.9492H213.031ZM209.379 43.4727V48.9727H180.547V37.0273H187.508V43.4727H209.379Z"/>
</mask>
<path d="M30.543 19.9688C30.5 25.8555 32.8203 32.8164 39.8672 35.9961L36.0859 41.3672C31.7676 39.4766 28.8887 35.8887 27.1914 31.5703C25.4512 36.3828 22.4863 40.3574 17.9531 42.3984L14 36.9844C21.1758 33.6758 23.5391 26.4141 23.5391 19.9688V19.2812H15.6758V13.6953H37.9336V19.2812H30.543V19.9688ZM46.7852 10V24.6094H52.1562V30.3242H46.7852V49.7461H39.8672V10L46.7852 10ZM86.6172 10.0859V38.9609H79.6992V10.0859H86.6172ZM87.5625 43.6875V49.1875H59.418V36.082H66.3789V43.6875H87.5625ZM69.043 15.9727C69 20.7422 70.9766 25.6836 77.8945 27.7461L74.4141 33.1172C70.0742 31.8066 67.1953 29.207 65.4766 25.8555C63.6934 29.4648 60.707 32.3652 56.1094 33.8047L52.5859 28.3477C59.7188 26.1562 61.8242 20.8281 61.8672 15.9727V12.2344H69.043V15.9727ZM122.926 10V18.0781H127.867V23.707H122.926V32H116.008V10H122.926ZM111.625 12.1914C111.625 23.0195 105.18 30.1094 93.1484 33.2461L90.4414 27.7461C98.7344 25.834 103.074 22.0098 104.02 17.6055H92.5039V12.1914L111.625 12.1914ZM122.926 33.2891V49.3164H96.4141V33.2891H122.926ZM103.246 38.7891V43.9883H116.137V38.7891H103.246ZM153.863 34.793C153.863 37.7578 154.895 40.7871 157.73 42.9141C160.588 40.7012 161.727 37.6504 161.77 34.793V33.9336H168.516V34.793C168.516 38.9609 170.191 42.6133 175.605 44.2031L172.297 49.1445C168.623 47.9629 166.281 45.7715 164.906 42.9141C163.574 45.8145 161.318 48.2422 157.859 49.5312C154.229 48.2637 151.951 45.9004 150.641 43.043C149.223 45.793 146.924 47.9629 143.422 49.1445L140.07 44.2031C145.398 42.4414 147.117 38.6602 147.117 34.793V33.9336H153.863V34.793ZM172.254 10.0859V32.3437H165.336V10.0859H172.254ZM150.297 11.8906C156.57 11.8906 161.426 15.9297 161.426 21.6445C161.426 27.1875 156.57 31.2695 150.297 31.2695C143.98 31.2695 139.125 27.1875 139.168 21.6445C139.125 15.9297 143.98 11.8906 150.297 11.8906ZM150.297 17.6484C147.676 17.6484 145.871 18.9805 145.871 21.6445C145.871 24.1797 147.676 25.5977 150.297 25.5547C152.789 25.5977 154.594 24.1797 154.594 21.6445C154.594 18.9805 152.789 17.6484 150.297 17.6484ZM209.121 20.0977V25.4258L181.02 25.4258V11.418H187.895V20.0977L209.121 20.0977ZM213.031 28.9492V34.2773H176.766V28.9492H213.031ZM209.379 43.4727V48.9727H180.547V37.0273H187.508V43.4727H209.379Z" fill="#11DCA9"/>
<path d="M30.543 19.9688L40.5427 20.0417C40.5429 20.0174 40.543 19.9931 40.543 19.9688H30.543ZM39.8672 35.9961L48.0441 41.7526C49.7608 39.3141 50.2996 36.2367 49.5135 33.36C48.7274 30.4833 46.6983 28.1076 43.9801 26.881L39.8672 35.9961ZM36.0859 41.3672L32.0754 50.5277C36.4305 52.4344 41.526 51.0113 44.2629 47.1237L36.0859 41.3672ZM27.1914 31.5703L36.4984 27.9124C34.9762 24.0395 31.2147 21.514 27.0539 21.5713C22.893 21.6285 19.2024 24.2565 17.7874 28.1697L27.1914 31.5703ZM17.9531 42.3984L9.87687 48.2954C12.6652 52.1141 17.747 53.458 22.0586 51.5168L17.9531 42.3984ZM14 36.9844L9.81287 27.9032C7.09021 29.1586 5.07445 31.5693 4.32096 34.4712C3.56747 37.3731 4.15576 40.46 5.92374 42.8813L14 36.9844ZM23.5391 19.2812H33.5391C33.5391 13.7584 29.0619 9.28125 23.5391 9.28125V19.2812ZM15.6758 19.2812H5.67578C5.67578 24.8041 10.1529 29.2812 15.6758 29.2812V19.2812ZM15.6758 13.6953V3.69531C10.1529 3.69531 5.67578 8.17247 5.67578 13.6953H15.6758ZM37.9336 13.6953H47.9336C47.9336 8.17247 43.4564 3.69531 37.9336 3.69531V13.6953ZM37.9336 19.2812V29.2812C43.4564 29.2812 47.9336 24.8041 47.9336 19.2812H37.9336ZM30.543 19.2812V9.28125C25.0201 9.28125 20.543 13.7584 20.543 19.2812H30.543ZM46.7852 10H56.7852C56.7852 4.47715 52.308 0 46.7852 0V10ZM46.7852 24.6094H36.7852C36.7852 30.1322 41.2623 34.6094 46.7852 34.6094V24.6094ZM52.1562 24.6094H62.1562C62.1562 19.0865 57.6791 14.6094 52.1562 14.6094V24.6094ZM52.1562 30.3242V40.3242C57.6791 40.3242 62.1562 35.8471 62.1562 30.3242H52.1562ZM46.7852 30.3242V20.3242C41.2623 20.3242 36.7852 24.8014 36.7852 30.3242H46.7852ZM46.7852 49.7461V59.7461C52.308 59.7461 56.7852 55.2689 56.7852 49.7461H46.7852ZM39.8672 49.7461H29.8672C29.8672 55.2689 34.3443 59.7461 39.8672 59.7461V49.7461ZM39.8672 10V0C34.3443 0 29.8672 4.47715 29.8672 10H39.8672ZM30.543 19.9688L20.5432 19.8958C20.484 28.0125 23.7517 39.6953 35.7543 45.1111L39.8672 35.9961L43.9801 26.881C42.7356 26.3195 41.9946 25.52 41.4672 24.4788C40.8716 23.3029 40.5304 21.7302 40.5427 20.0417L30.543 19.9688ZM39.8672 35.9961L31.6903 30.2395L27.909 35.6106L36.0859 41.3672L44.2629 47.1237L48.0441 41.7526L39.8672 35.9961ZM36.0859 41.3672L40.0965 32.2067C38.7627 31.6227 37.4773 30.403 36.4984 27.9124L27.1914 31.5703L17.8845 35.2283C20.3001 41.3744 24.7725 47.3304 32.0754 50.5277L36.0859 41.3672ZM27.1914 31.5703L17.7874 28.1697C16.6626 31.2803 15.2019 32.6703 13.8477 33.28L17.9531 42.3984L22.0586 51.5168C29.7707 48.0445 34.2398 41.4854 36.5955 34.9709L27.1914 31.5703ZM17.9531 42.3984L26.0294 36.5015L22.0763 31.0874L14 36.9844L5.92374 42.8813L9.87687 48.2954L17.9531 42.3984ZM14 36.9844L18.1871 46.0656C30.3906 40.4388 33.5391 28.3629 33.5391 19.9688H23.5391H13.5391C13.5391 22.0572 13.144 23.8994 12.4815 25.2508C11.8881 26.4612 11.0828 27.3177 9.81287 27.9032L14 36.9844ZM23.5391 19.9688H33.5391V19.2812H23.5391H13.5391V19.9688H23.5391ZM23.5391 19.2812V9.28125H15.6758V19.2812V29.2812H23.5391V19.2812ZM15.6758 19.2812H25.6758V13.6953H15.6758H5.67578V19.2812H15.6758ZM15.6758 13.6953V23.6953H37.9336V13.6953V3.69531L15.6758 3.69531V13.6953ZM37.9336 13.6953H27.9336V19.2812H37.9336H47.9336V13.6953H37.9336ZM37.9336 19.2812V9.28125H30.543V19.2812V29.2812H37.9336V19.2812ZM30.543 19.2812H20.543V19.9688H30.543H40.543V19.2812H30.543ZM46.7852 10L36.7852 10V24.6094H46.7852H56.7852V10H46.7852ZM46.7852 24.6094V34.6094H52.1562V24.6094V14.6094H46.7852V24.6094ZM52.1562 24.6094H42.1562V30.3242H52.1562H62.1562V24.6094H52.1562ZM52.1562 30.3242V20.3242H46.7852V30.3242V40.3242H52.1562V30.3242ZM46.7852 30.3242H36.7852V49.7461H46.7852H56.7852V30.3242H46.7852ZM46.7852 49.7461V39.7461H39.8672V49.7461V59.7461H46.7852V49.7461ZM39.8672 49.7461H49.8672V10L39.8672 10H29.8672V49.7461H39.8672ZM39.8672 10V20H46.7852V10V0H39.8672V10ZM86.6172 10.0859H96.6172C96.6172 4.56309 92.14 0.0859375 86.6172 0.0859375V10.0859ZM86.6172 38.9609V48.9609C92.14 48.9609 96.6172 44.4838 96.6172 38.9609H86.6172ZM79.6992 38.9609H69.6992C69.6992 44.4838 74.1764 48.9609 79.6992 48.9609V38.9609ZM79.6992 10.0859V0.0859375C74.1764 0.0859375 69.6992 4.56309 69.6992 10.0859H79.6992ZM87.5625 43.6875H97.5625C97.5625 38.1647 93.0854 33.6875 87.5625 33.6875V43.6875ZM87.5625 49.1875V59.1875C93.0854 59.1875 97.5625 54.7103 97.5625 49.1875H87.5625ZM59.418 49.1875H49.418C49.418 54.7103 53.8951 59.1875 59.418 59.1875V49.1875ZM59.418 36.082V26.082C53.8951 26.082 49.418 30.5592 49.418 36.082H59.418ZM66.3789 36.082H76.3789C76.3789 30.5592 71.9018 26.082 66.3789 26.082V36.082ZM66.3789 43.6875H56.3789C56.3789 49.2103 60.8561 53.6875 66.3789 53.6875V43.6875ZM69.043 15.9727L79.0426 16.0627C79.0428 16.0327 79.043 16.0027 79.043 15.9727L69.043 15.9727ZM77.8945 27.7461L86.2866 33.1842C87.9997 30.5406 88.3669 27.2444 87.2778 24.2886C86.1886 21.3328 83.7704 19.0629 80.7516 18.1629L77.8945 27.7461ZM74.4141 33.1172L71.5232 42.6902C75.7853 43.9773 80.385 42.2916 82.8062 38.5553L74.4141 33.1172ZM65.4766 25.8555L74.3747 21.2923C72.6508 17.9306 69.1795 15.8275 65.4017 15.8557C61.6238 15.884 58.1844 18.039 56.511 21.4261L65.4766 25.8555ZM56.1094 33.8047L47.7084 39.229C50.1471 43.006 54.8066 44.6912 59.0972 43.3479L56.1094 33.8047ZM52.5859 28.3477L49.6491 18.7886C46.6547 19.7086 44.2644 21.9786 43.1912 24.9215C42.1179 27.8645 42.4857 31.1403 44.1849 33.7719L52.5859 28.3477ZM61.8672 15.9727L71.8668 16.0611C71.8671 16.0317 71.8672 16.0022 71.8672 15.9727H61.8672ZM61.8672 12.2344V2.23437C56.3443 2.23437 51.8672 6.71153 51.8672 12.2344H61.8672ZM69.043 12.2344H79.043C79.043 6.71153 74.5658 2.23437 69.043 2.23437V12.2344ZM86.6172 10.0859H76.6172V38.9609H86.6172H96.6172V10.0859H86.6172ZM86.6172 38.9609V28.9609H79.6992V38.9609V48.9609H86.6172V38.9609ZM79.6992 38.9609H89.6992V10.0859H79.6992H69.6992V38.9609H79.6992ZM79.6992 10.0859V20.0859H86.6172V10.0859V0.0859375L79.6992 0.0859375V10.0859ZM87.5625 43.6875H77.5625V49.1875H87.5625H97.5625V43.6875H87.5625ZM87.5625 49.1875V39.1875H59.418V49.1875V59.1875H87.5625V49.1875ZM59.418 49.1875H69.418V36.082H59.418H49.418V49.1875H59.418ZM59.418 36.082V46.082H66.3789V36.082V26.082H59.418V36.082ZM66.3789 36.082H56.3789V43.6875H66.3789H76.3789V36.082H66.3789ZM66.3789 43.6875V53.6875H87.5625V43.6875V33.6875H66.3789V43.6875ZM69.043 15.9727L59.0434 15.8826C59.0098 19.6126 59.7552 24.1275 62.4656 28.3115C65.2773 32.6519 69.6073 35.7103 75.0374 37.3293L77.8945 27.7461L80.7516 18.1629C79.95 17.9239 79.5561 17.6819 79.4042 17.5733C79.3251 17.5167 79.287 17.4789 79.2735 17.4648C79.2601 17.4508 79.2548 17.4431 79.2512 17.4375C79.2481 17.4327 79.1974 17.3561 79.1446 17.1419C79.0888 16.9151 79.0381 16.5609 79.0426 16.0627L69.043 15.9727ZM77.8945 27.7461L69.5024 22.308L66.022 27.6791L74.4141 33.1172L82.8062 38.5553L86.2866 33.1842L77.8945 27.7461ZM74.4141 33.1172L77.3049 23.5442C75.5695 23.0201 74.8566 22.232 74.3747 21.2923L65.4766 25.8555L56.5784 30.4186C59.534 36.1821 64.579 40.5932 71.5232 42.6902L74.4141 33.1172ZM65.4766 25.8555L56.511 21.4261C55.8533 22.7574 54.9344 23.6939 53.1215 24.2615L56.1094 33.8047L59.0972 43.3479C66.4796 41.0366 71.5334 36.1723 74.4421 30.2849L65.4766 25.8555ZM56.1094 33.8047L64.5104 28.3804L60.987 22.9234L52.5859 28.3477L44.1849 33.7719L47.7084 39.229L56.1094 33.8047ZM52.5859 28.3477L55.5228 37.9067C61.1469 36.1788 65.4864 32.9365 68.2957 28.5688C71.0001 24.3642 71.8334 19.8317 71.8668 16.0611L61.8672 15.9727L51.8676 15.8842C51.858 16.9691 51.6171 17.5283 51.4748 17.7495C51.4116 17.8479 51.315 17.969 51.1137 18.1171C50.9044 18.271 50.4671 18.5373 49.6491 18.7886L52.5859 28.3477ZM61.8672 15.9727H71.8672V12.2344H61.8672H51.8672V15.9727H61.8672ZM61.8672 12.2344V22.2344H69.043V12.2344V2.23437L61.8672 2.23437V12.2344ZM69.043 12.2344H59.043V15.9727H69.043L79.043 15.9727V12.2344H69.043ZM122.926 10H132.926C132.926 4.47715 128.449 0 122.926 0V10ZM122.926 18.0781H112.926C112.926 23.601 117.403 28.0781 122.926 28.0781V18.0781ZM127.867 18.0781H137.867C137.867 12.5553 133.39 8.07812 127.867 8.07812V18.0781ZM127.867 23.707V33.707C133.39 33.707 137.867 29.2299 137.867 23.707H127.867ZM122.926 23.707V13.707C117.403 13.707 112.926 18.1842 112.926 23.707H122.926ZM122.926 32V42C128.449 42 132.926 37.5228 132.926 32H122.926ZM116.008 32H106.008C106.008 37.5228 110.485 42 116.008 42V32ZM116.008 10V0C110.485 0 106.008 4.47715 106.008 10L116.008 10ZM111.625 12.1914H121.625C121.625 6.66856 117.148 2.19141 111.625 2.19141V12.1914ZM93.1484 33.2461L84.1763 37.6621C86.2731 41.9222 91.0766 44.1205 95.6712 42.9226L93.1484 33.2461ZM90.4414 27.7461L88.1947 18.0018C85.2183 18.688 82.7188 20.6969 81.4084 23.4559C80.098 26.215 80.1205 29.4216 81.4693 32.1621L90.4414 27.7461ZM104.02 17.6055L113.797 19.704C114.431 16.7508 113.696 13.6693 111.797 11.32C109.899 8.97073 107.04 7.60547 104.02 7.60547V17.6055ZM92.5039 17.6055H82.5039C82.5039 23.1283 86.9811 27.6055 92.5039 27.6055V17.6055ZM92.5039 12.1914V2.19141C86.9811 2.19141 82.5039 6.66856 82.5039 12.1914H92.5039ZM122.926 33.2891H132.926C132.926 27.7662 128.449 23.2891 122.926 23.2891V33.2891ZM122.926 49.3164V59.3164C128.449 59.3164 132.926 54.8393 132.926 49.3164H122.926ZM96.4141 49.3164H86.4141C86.4141 54.8393 90.8912 59.3164 96.4141 59.3164V49.3164ZM96.4141 33.2891V23.2891C90.8912 23.2891 86.4141 27.7662 86.4141 33.2891H96.4141ZM103.246 38.7891V28.7891C97.7232 28.7891 93.2461 33.2662 93.2461 38.7891H103.246ZM103.246 43.9883H93.2461C93.2461 49.5111 97.7232 53.9883 103.246 53.9883V43.9883ZM116.137 43.9883V53.9883C121.66 53.9883 126.137 49.5111 126.137 43.9883H116.137ZM116.137 38.7891H126.137C126.137 33.2662 121.66 28.7891 116.137 28.7891V38.7891ZM122.926 10H112.926V18.0781H122.926H132.926V10H122.926ZM122.926 18.0781V28.0781H127.867V18.0781V8.07812H122.926V18.0781ZM127.867 18.0781H117.867V23.707H127.867H137.867V18.0781H127.867ZM127.867 23.707V13.707H122.926V23.707V33.707H127.867V23.707ZM122.926 23.707H112.926V32H122.926H132.926V23.707H122.926ZM122.926 32V22H116.008V32V42H122.926V32ZM116.008 32H126.008V10H116.008L106.008 10V32H116.008ZM116.008 10V20H122.926V10V0L116.008 0V10ZM111.625 12.1914L101.625 12.1914C101.625 15.4844 100.706 17.5114 99.4117 18.9736C97.9866 20.5831 95.3519 22.3373 90.6256 23.5696L93.1484 33.2461L95.6712 42.9226C102.976 41.0181 109.58 37.6591 114.385 32.2325C119.321 26.6585 121.625 19.7265 121.625 12.1914H111.625ZM93.1484 33.2461L102.121 28.8301L99.4135 23.3301L90.4414 27.7461L81.4693 32.1621L84.1763 37.6621L93.1484 33.2461ZM90.4414 27.7461L92.6882 37.4904C102.544 35.2179 111.649 29.7113 113.797 19.704L104.02 17.6055L94.2422 15.5069C94.3376 15.0626 94.5301 15.184 93.8386 15.7229C93.0595 16.3301 91.364 17.271 88.1947 18.0018L90.4414 27.7461ZM104.02 17.6055V7.60547H92.5039V17.6055V27.6055H104.02V17.6055ZM92.5039 17.6055H102.504V12.1914H92.5039H82.5039V17.6055H92.5039ZM92.5039 12.1914V22.1914H111.625V12.1914V2.19141L92.5039 2.19141V12.1914ZM122.926 33.2891H112.926V49.3164H122.926H132.926V33.2891H122.926ZM122.926 49.3164V39.3164H96.4141V49.3164V59.3164H122.926V49.3164ZM96.4141 49.3164H106.414V33.2891H96.4141H86.4141V49.3164H96.4141ZM96.4141 33.2891V43.2891H122.926V33.2891V23.2891H96.4141V33.2891ZM103.246 38.7891H93.2461V43.9883H103.246H113.246V38.7891H103.246ZM103.246 43.9883V53.9883H116.137V43.9883V33.9883H103.246V43.9883ZM116.137 43.9883H126.137V38.7891H116.137H106.137V43.9883H116.137ZM116.137 38.7891V28.7891H103.246V38.7891V48.7891H116.137V38.7891ZM157.73 42.9141L151.73 50.9141C155.332 53.6151 160.294 53.5768 163.853 50.8204L157.73 42.9141ZM161.77 34.793L171.768 34.9433C171.769 34.8932 171.77 34.8431 171.77 34.793H161.77ZM161.77 33.9336V23.9336C156.247 23.9336 151.77 28.4107 151.77 33.9336H161.77ZM168.516 33.9336H178.516C178.516 28.4107 174.038 23.9336 168.516 23.9336V33.9336ZM175.605 44.2031L183.915 49.7668C185.686 47.1212 186.092 43.7903 185.007 40.7969C183.923 37.8034 181.478 35.5053 178.423 34.6083L175.605 44.2031ZM172.297 49.1445L169.235 58.6642C173.484 60.0307 178.123 58.4166 180.606 54.7082L172.297 49.1445ZM164.906 42.9141L173.917 38.5779C172.237 35.0863 168.691 32.8797 164.816 32.9145C160.942 32.9493 157.436 35.2193 155.819 38.7406L164.906 42.9141ZM157.859 49.5312L154.563 58.9724C156.765 59.7411 159.166 59.7161 161.351 58.9017L157.859 49.5312ZM150.641 43.043L159.73 38.8741C158.135 35.3965 154.696 33.1337 150.871 33.0456C147.046 32.9575 143.506 35.0596 141.753 38.4601L150.641 43.043ZM143.422 49.1445L135.146 54.7578C137.668 58.4766 142.361 60.0563 146.619 58.6197L143.422 49.1445ZM140.07 44.2031L136.931 34.7087C133.954 35.6928 131.612 38.0159 130.603 40.9841C129.593 43.9522 130.035 47.2219 131.794 49.8164L140.07 44.2031ZM147.117 33.9336V23.9336C141.594 23.9336 137.117 28.4107 137.117 33.9336L147.117 33.9336ZM153.863 33.9336H163.863C163.863 28.4107 159.386 23.9336 153.863 23.9336V33.9336ZM172.254 10.0859L182.254 10.0859C182.254 4.56309 177.777 0.0859375 172.254 0.0859375V10.0859ZM172.254 32.3437V42.3437C177.777 42.3437 182.254 37.8666 182.254 32.3437H172.254ZM165.336 32.3437H155.336C155.336 37.8666 159.813 42.3437 165.336 42.3437V32.3437ZM165.336 10.0859V0.0859375C159.813 0.0859375 155.336 4.56309 155.336 10.0859H165.336ZM139.168 21.6445L149.168 21.722C149.168 21.6711 149.168 21.6202 149.168 21.5693L139.168 21.6445ZM150.297 25.5547L150.469 15.5562C150.357 15.5542 150.245 15.5542 150.133 15.556L150.297 25.5547ZM153.863 34.793H143.863C143.863 40.1276 145.813 46.4761 151.73 50.9141L157.73 42.9141L163.73 34.9141C163.716 34.9034 163.718 34.9037 163.732 34.9168C163.745 34.9299 163.765 34.9509 163.787 34.9793C163.835 35.0405 163.87 35.1019 163.889 35.1457C163.906 35.1857 163.9 35.185 163.889 35.1276C163.878 35.068 163.863 34.9576 163.863 34.793H153.863ZM157.73 42.9141L163.853 50.8204C169.449 46.4873 171.686 40.392 171.768 34.9433L161.77 34.793L151.771 34.6426C151.768 34.8084 151.735 34.8854 151.732 34.8903C151.732 34.8911 151.732 34.8915 151.727 34.898C151.723 34.9034 151.692 34.9426 151.608 35.0078L157.73 42.9141ZM161.77 34.793H171.77V33.9336H161.77H151.77V34.793H161.77ZM161.77 33.9336V43.9336H168.516V33.9336V23.9336H161.77V33.9336ZM168.516 33.9336H158.516V34.793H168.516H178.516V33.9336H168.516ZM168.516 34.793H158.516C158.516 38.1525 159.187 42.2523 161.727 46.037C164.357 49.9562 168.273 52.4721 172.788 53.798L175.605 44.2031L178.423 34.6083C177.928 34.4628 177.8 34.3534 177.877 34.4064C177.915 34.4323 177.987 34.4876 178.077 34.5778C178.167 34.6685 178.255 34.7752 178.334 34.8927C178.412 35.0092 178.468 35.1161 178.504 35.2011C178.541 35.2846 178.554 35.3352 178.555 35.3406C178.556 35.3449 178.546 35.305 178.536 35.212C178.525 35.1186 178.516 34.9808 178.516 34.793H168.516ZM175.605 44.2031L167.296 38.6395L163.988 43.5809L172.297 49.1445L180.606 54.7082L183.915 49.7668L175.605 44.2031ZM172.297 49.1445L175.359 39.6248C174.671 39.4037 174.383 39.1827 174.283 39.0959C174.186 39.012 174.062 38.8797 173.917 38.5779L164.906 42.9141L155.895 47.2502C158.48 52.6223 162.999 56.6584 169.235 58.6642L172.297 49.1445ZM164.906 42.9141L155.819 38.7406C155.606 39.2032 155.389 39.4828 155.209 39.6572C155.045 39.8166 154.803 39.9985 154.367 40.1608L157.859 49.5312L161.351 58.9017C167.59 56.5768 171.699 52.0844 173.994 47.0876L164.906 42.9141ZM157.859 49.5312L161.155 40.0901C160.585 39.8908 160.323 39.6844 160.198 39.5683C160.064 39.4432 159.9 39.2435 159.73 38.8741L150.641 43.043L141.551 47.2119C143.922 52.3818 148.203 56.7521 154.563 58.9724L157.859 49.5312ZM150.641 43.043L141.753 38.4601C141.571 38.8127 141.401 39.0058 141.253 39.134C141.11 39.2587 140.82 39.4686 140.225 39.6694L143.422 49.1445L146.619 58.6197C152.654 56.5833 156.957 52.6142 159.529 47.6259L150.641 43.043ZM143.422 49.1445L151.698 43.5313L148.346 38.5899L140.07 44.2031L131.794 49.8164L135.146 54.7578L143.422 49.1445ZM140.07 44.2031L143.21 53.6976C147.685 52.2179 151.416 49.5914 153.921 45.8221C156.361 42.1489 157.117 38.1773 157.117 34.793H147.117L137.117 34.793C137.117 35.0272 137.09 35.1179 137.097 35.0949C137.1 35.0809 137.113 35.0384 137.141 34.975C137.169 34.9106 137.209 34.8341 137.263 34.7531C137.317 34.6716 137.375 34.6003 137.431 34.5425C137.486 34.4849 137.525 34.4549 137.534 34.4483C137.556 34.4322 137.4 34.5537 136.931 34.7087L140.07 44.2031ZM147.117 34.793H157.117V33.9336H147.117L137.117 33.9336V34.793L147.117 34.793ZM147.117 33.9336V43.9336H153.863V33.9336V23.9336H147.117V33.9336ZM153.863 33.9336H143.863V34.793H153.863H163.863V33.9336H153.863ZM172.254 10.0859H162.254V32.3437H172.254H182.254V10.0859L172.254 10.0859ZM172.254 32.3437V22.3437H165.336V32.3437V42.3437H172.254V32.3437ZM165.336 32.3437H175.336V10.0859L165.336 10.0859H155.336V32.3437H165.336ZM165.336 10.0859V20.0859H172.254V10.0859V0.0859375L165.336 0.0859375V10.0859ZM150.297 11.8906V21.8906C151.318 21.8906 151.702 22.2137 151.681 22.1955C151.666 22.1828 151.585 22.1039 151.512 21.9477C151.477 21.874 151.454 21.8019 151.44 21.7389C151.426 21.6758 151.426 21.6412 151.426 21.6445H161.426H171.426C171.426 9.07375 160.658 1.89062 150.297 1.89062V11.8906ZM161.426 21.6445H151.426C151.426 21.5434 151.454 21.3695 151.54 21.1888C151.578 21.1079 151.619 21.0461 151.652 21.0035C151.684 20.9614 151.705 20.9436 151.704 20.9445C151.698 20.9503 151.292 21.2695 150.297 21.2695V31.2695V41.2695C160.596 41.2695 171.426 34.0972 171.426 21.6445H161.426ZM150.297 31.2695V21.2695C149.262 21.2695 148.851 20.9393 148.857 20.9445C148.866 20.9516 148.958 21.0366 149.046 21.2229C149.139 21.4208 149.169 21.6105 149.168 21.722L139.168 21.6445L129.168 21.567C129.071 34.123 140.009 41.2695 150.297 41.2695V31.2695ZM139.168 21.6445L149.168 21.5693C149.168 21.5687 149.168 21.5792 149.166 21.5995C149.164 21.6199 149.16 21.6477 149.152 21.6817C149.137 21.7522 149.112 21.8323 149.074 21.9138C148.994 22.0865 148.903 22.1766 148.881 22.1955C148.847 22.2247 149.236 21.8906 150.297 21.8906V11.8906V1.89062C139.944 1.89062 129.073 9.04869 129.168 21.7197L139.168 21.6445ZM150.297 17.6484V7.64844C147.418 7.64844 143.728 8.37445 140.602 11.0475C137.242 13.9207 135.871 17.8978 135.871 21.6445H145.871H155.871C155.871 22.7272 155.403 24.7062 153.6 26.2474C152.032 27.5884 150.555 27.6484 150.297 27.6484V17.6484ZM145.871 21.6445H135.871C135.871 25.4491 137.324 29.363 140.602 32.1664C143.696 34.8124 147.395 35.6036 150.461 35.5533L150.297 25.5547L150.133 15.556C150.578 15.5487 152.064 15.6524 153.6 16.9664C155.321 18.4378 155.871 20.3751 155.871 21.6445H145.871ZM150.297 25.5547L150.124 35.5532C153.244 35.607 156.918 34.7529 159.957 32.0987C163.152 29.3094 164.594 25.4398 164.594 21.6445H154.594H144.594C144.594 20.3844 145.134 18.4913 146.802 17.0341C148.316 15.7119 149.842 15.5454 150.469 15.5562L150.297 25.5547ZM154.594 21.6445H164.594C164.594 17.9056 163.232 13.9747 159.957 11.1151C156.883 8.43063 153.221 7.64844 150.297 7.64844V17.6484V27.6484C149.865 27.6484 148.351 27.5323 146.802 26.1798C145.053 24.6522 144.594 22.7194 144.594 21.6445H154.594ZM209.121 20.0977H219.121C219.121 14.5748 214.644 10.0977 209.121 10.0977V20.0977ZM209.121 25.4258V35.4258C214.644 35.4258 219.121 30.9486 219.121 25.4258H209.121ZM181.02 25.4258H171.02C171.02 30.9486 175.497 35.4258 181.02 35.4258V25.4258ZM181.02 11.418V1.41797C175.497 1.41797 171.02 5.89512 171.02 11.418L181.02 11.418ZM187.895 11.418H197.895C197.895 5.89512 193.417 1.41797 187.895 1.41797V11.418ZM187.895 20.0977H177.895C177.895 25.6205 182.372 30.0977 187.895 30.0977V20.0977ZM213.031 28.9492H223.031C223.031 23.4264 218.554 18.9492 213.031 18.9492V28.9492ZM213.031 34.2773V44.2773C218.554 44.2773 223.031 39.8002 223.031 34.2773H213.031ZM176.766 34.2773H166.766C166.766 39.8002 171.243 44.2773 176.766 44.2773V34.2773ZM176.766 28.9492V18.9492C171.243 18.9492 166.766 23.4264 166.766 28.9492H176.766ZM209.379 43.4727H219.379C219.379 37.9498 214.902 33.4727 209.379 33.4727V43.4727ZM209.379 48.9727V58.9727C214.902 58.9727 219.379 54.4955 219.379 48.9727H209.379ZM180.547 48.9727H170.547C170.547 54.4955 175.024 58.9727 180.547 58.9727V48.9727ZM180.547 37.0273V27.0273C175.024 27.0273 170.547 31.5045 170.547 37.0273H180.547ZM187.508 37.0273H197.508C197.508 31.5045 193.031 27.0273 187.508 27.0273V37.0273ZM187.508 43.4727H177.508C177.508 48.9955 181.985 53.4727 187.508 53.4727V43.4727ZM209.121 20.0977L199.121 20.0977V25.4258L209.121 25.4258H219.121V20.0977H209.121ZM209.121 25.4258V15.4258L181.02 15.4258V25.4258V35.4258H209.121V25.4258ZM181.02 25.4258H191.02V11.418H181.02L171.02 11.418V25.4258H181.02ZM181.02 11.418V21.418H187.895V11.418V1.41797H181.02V11.418ZM187.895 11.418H177.895V20.0977H187.895H197.895V11.418H187.895ZM187.895 20.0977V30.0977H209.121V20.0977V10.0977H187.895V20.0977ZM213.031 28.9492H203.031V34.2773H213.031H223.031V28.9492H213.031ZM213.031 34.2773V24.2773L176.766 24.2773V34.2773V44.2773H213.031V34.2773ZM176.766 34.2773H186.766V28.9492H176.766H166.766V34.2773H176.766ZM176.766 28.9492V38.9492H213.031V28.9492V18.9492L176.766 18.9492V28.9492ZM209.379 43.4727H199.379V48.9727H209.379H219.379V43.4727H209.379ZM209.379 48.9727V38.9727H180.547V48.9727V58.9727H209.379V48.9727ZM180.547 48.9727H190.547V37.0273H180.547H170.547V48.9727H180.547ZM180.547 37.0273V47.0273H187.508V37.0273V27.0273H180.547V37.0273ZM187.508 37.0273H177.508V43.4727H187.508H197.508V37.0273H187.508ZM187.508 43.4727V53.4727H209.379V43.4727V33.4727H187.508V43.4727Z" fill="white" mask="url(#path-1-outside-1_6524_1790)"/>
</g>
<defs>
<filter id="filter0_d_6524_1790" x="0" y="0" width="227.031" height="67.7461" filterUnits="userSpaceOnUse" color-interpolation-filters="sRGB">
<feFlood flood-opacity="0" result="BackgroundImageFix"/>
<feColorMatrix in="SourceAlpha" type="matrix" values="0 0 0 0 0 0 0 0 0 0 0 0 0 0 0 0 0 0 127 0" result="hardAlpha"/>
<feOffset dy="4"/>
<feGaussianBlur stdDeviation="2"/>
<feComposite in2="hardAlpha" operator="out"/>
<feColorMatrix type="matrix" values="0 0 0 0 0 0 0 0 0 0 0 0 0 0 0 0 0 0 0.07 0"/>
<feBlend mode="normal" in2="BackgroundImageFix" result="effect1_dropShadow_6524_1790"/>
<feBlend mode="normal" in="SourceGraphic" in2="effect1_dropShadow_6524_1790" result="shape"/>
</filter>
</defs>
</svg>
