<svg width="342" height="68" viewBox="0 0 342 68" fill="none" xmlns="http://www.w3.org/2000/svg">
<g filter="url(#filter0_d_6526_5756)">
<mask id="path-1-outside-1_6526_5756" maskUnits="userSpaceOnUse" x="3.17188" y="-0.507813" width="334" height="61" fill="black">
<rect fill="white" x="3.17188" y="-0.507813" width="334" height="61"/>
<path d="M30.543 19.9688C30.5 25.8555 32.8203 32.8164 39.8672 35.9961L36.0859 41.3672C31.7676 39.4766 28.8887 35.8887 27.1914 31.5703C25.4512 36.3828 22.4863 40.3574 17.9531 42.3984L14 36.9844C21.1758 33.6758 23.5391 26.4141 23.5391 19.9688V19.2812H15.6758V13.6953H37.9336V19.2812H30.543V19.9688ZM46.7852 10V24.6094H52.1562V30.3242H46.7852V49.7461H39.8672V10L46.7852 10ZM86.6172 10.0859V38.9609H79.6992V10.0859H86.6172ZM87.5625 43.6875V49.1875H59.418V36.082H66.3789V43.6875H87.5625ZM69.043 15.9727C69 20.7422 70.9766 25.6836 77.8945 27.7461L74.4141 33.1172C70.0742 31.8066 67.1953 29.207 65.4766 25.8555C63.6934 29.4648 60.707 32.3652 56.1094 33.8047L52.5859 28.3477C59.7188 26.1562 61.8242 20.8281 61.8672 15.9727V12.2344H69.043V15.9727ZM122.926 10V18.0781H127.867V23.707H122.926V32H116.008V10H122.926ZM111.625 12.1914C111.625 23.0195 105.18 30.1094 93.1484 33.2461L90.4414 27.7461C98.7344 25.834 103.074 22.0098 104.02 17.6055H92.5039V12.1914L111.625 12.1914ZM122.926 33.2891V49.3164H96.4141V33.2891H122.926ZM103.246 38.7891V43.9883H116.137V38.7891H103.246ZM162.715 10V49.875H155.754V10H162.715ZM140.887 12.6641C146.945 12.6211 151.5 18.207 151.5 26.9727C151.5 35.8672 146.945 41.4102 140.887 41.4102C134.699 41.4102 130.102 35.8672 130.102 26.9727C130.102 18.207 134.699 12.6211 140.887 12.6641ZM140.887 18.8945C138.352 18.8516 136.762 21.4727 136.762 26.9727C136.762 32.5586 138.352 35.0938 140.887 35.0938C143.25 35.0937 144.883 32.5586 144.883 26.9727C144.883 21.4727 143.25 18.8516 140.887 18.8945ZM213.031 32.3867V37.6719H176.766V32.3867H213.031ZM208.82 43.8164V49.1875H180.934V39.3047H187.852V43.8164H208.82ZM211.27 13.0937V18.1641L178.398 18.1641V13.0937H191.375V10H198.336V13.0937L211.27 13.0937ZM194.898 19.0234C203.578 19.0234 208.52 21.043 208.52 25.125C208.52 29.0781 203.578 31.2266 194.898 31.2266C186.176 31.2266 181.191 29.0781 181.234 25.125C181.191 21.043 186.176 19.0234 194.898 19.0234ZM194.898 23.75C190.043 23.75 188.238 24.1367 188.281 25.125C188.238 26.1562 190.043 26.4141 194.898 26.4141C199.668 26.4141 201.473 26.1562 201.473 25.125C201.473 24.1367 199.668 23.75 194.898 23.75ZM251.145 24.7812V30.1523H214.793V24.7812H251.145ZM246.805 17.9492V23.2773H219.133V10.4727L246.547 10.4727V15.9297H225.965V17.9492H246.805ZM246.762 31.6992V42.8281H225.578V44.2461H247.707V49.4883H218.832V38.0156H239.973V36.8125H218.875V31.6992H246.762ZM286.422 10V49.875H279.547V10H286.422ZM273.961 13.1367V29.207H261.973V35.1367C267.645 35.0723 272.307 34.75 277.355 33.8906L277.914 39.4336C271.898 40.5508 266.098 40.7656 258.578 40.7656H254.84V23.8359H266.914V18.6367H254.84V13.1367H273.961ZM323.203 20.0977V25.4258H295.102V11.418H301.977V20.0977H323.203ZM327.113 28.9492V34.2773H290.848V28.9492H327.113ZM323.461 43.4727V48.9727H294.629V37.0273H301.59V43.4727H323.461Z"/>
</mask>
<path d="M30.543 19.9688C30.5 25.8555 32.8203 32.8164 39.8672 35.9961L36.0859 41.3672C31.7676 39.4766 28.8887 35.8887 27.1914 31.5703C25.4512 36.3828 22.4863 40.3574 17.9531 42.3984L14 36.9844C21.1758 33.6758 23.5391 26.4141 23.5391 19.9688V19.2812H15.6758V13.6953H37.9336V19.2812H30.543V19.9688ZM46.7852 10V24.6094H52.1562V30.3242H46.7852V49.7461H39.8672V10L46.7852 10ZM86.6172 10.0859V38.9609H79.6992V10.0859H86.6172ZM87.5625 43.6875V49.1875H59.418V36.082H66.3789V43.6875H87.5625ZM69.043 15.9727C69 20.7422 70.9766 25.6836 77.8945 27.7461L74.4141 33.1172C70.0742 31.8066 67.1953 29.207 65.4766 25.8555C63.6934 29.4648 60.707 32.3652 56.1094 33.8047L52.5859 28.3477C59.7188 26.1562 61.8242 20.8281 61.8672 15.9727V12.2344H69.043V15.9727ZM122.926 10V18.0781H127.867V23.707H122.926V32H116.008V10H122.926ZM111.625 12.1914C111.625 23.0195 105.18 30.1094 93.1484 33.2461L90.4414 27.7461C98.7344 25.834 103.074 22.0098 104.02 17.6055H92.5039V12.1914L111.625 12.1914ZM122.926 33.2891V49.3164H96.4141V33.2891H122.926ZM103.246 38.7891V43.9883H116.137V38.7891H103.246ZM162.715 10V49.875H155.754V10H162.715ZM140.887 12.6641C146.945 12.6211 151.5 18.207 151.5 26.9727C151.5 35.8672 146.945 41.4102 140.887 41.4102C134.699 41.4102 130.102 35.8672 130.102 26.9727C130.102 18.207 134.699 12.6211 140.887 12.6641ZM140.887 18.8945C138.352 18.8516 136.762 21.4727 136.762 26.9727C136.762 32.5586 138.352 35.0938 140.887 35.0938C143.25 35.0937 144.883 32.5586 144.883 26.9727C144.883 21.4727 143.25 18.8516 140.887 18.8945ZM213.031 32.3867V37.6719H176.766V32.3867H213.031ZM208.82 43.8164V49.1875H180.934V39.3047H187.852V43.8164H208.82ZM211.27 13.0937V18.1641L178.398 18.1641V13.0937H191.375V10H198.336V13.0937L211.27 13.0937ZM194.898 19.0234C203.578 19.0234 208.52 21.043 208.52 25.125C208.52 29.0781 203.578 31.2266 194.898 31.2266C186.176 31.2266 181.191 29.0781 181.234 25.125C181.191 21.043 186.176 19.0234 194.898 19.0234ZM194.898 23.75C190.043 23.75 188.238 24.1367 188.281 25.125C188.238 26.1562 190.043 26.4141 194.898 26.4141C199.668 26.4141 201.473 26.1562 201.473 25.125C201.473 24.1367 199.668 23.75 194.898 23.75ZM251.145 24.7812V30.1523H214.793V24.7812H251.145ZM246.805 17.9492V23.2773H219.133V10.4727L246.547 10.4727V15.9297H225.965V17.9492H246.805ZM246.762 31.6992V42.8281H225.578V44.2461H247.707V49.4883H218.832V38.0156H239.973V36.8125H218.875V31.6992H246.762ZM286.422 10V49.875H279.547V10H286.422ZM273.961 13.1367V29.207H261.973V35.1367C267.645 35.0723 272.307 34.75 277.355 33.8906L277.914 39.4336C271.898 40.5508 266.098 40.7656 258.578 40.7656H254.84V23.8359H266.914V18.6367H254.84V13.1367H273.961ZM323.203 20.0977V25.4258H295.102V11.418H301.977V20.0977H323.203ZM327.113 28.9492V34.2773H290.848V28.9492H327.113ZM323.461 43.4727V48.9727H294.629V37.0273H301.59V43.4727H323.461Z" fill="#11DCA9"/>
<path d="M30.543 19.9688L40.5427 20.0417C40.5429 20.0174 40.543 19.9931 40.543 19.9688H30.543ZM39.8672 35.9961L48.0441 41.7526C49.7608 39.3141 50.2996 36.2367 49.5135 33.36C48.7274 30.4833 46.6983 28.1076 43.9801 26.881L39.8672 35.9961ZM36.0859 41.3672L32.0754 50.5277C36.4305 52.4344 41.526 51.0113 44.2629 47.1237L36.0859 41.3672ZM27.1914 31.5703L36.4984 27.9124C34.9762 24.0395 31.2147 21.514 27.0539 21.5713C22.893 21.6285 19.2024 24.2565 17.7874 28.1697L27.1914 31.5703ZM17.9531 42.3984L9.87687 48.2954C12.6652 52.1141 17.747 53.458 22.0586 51.5168L17.9531 42.3984ZM14 36.9844L9.81287 27.9032C7.09021 29.1586 5.07445 31.5693 4.32096 34.4712C3.56747 37.3731 4.15576 40.46 5.92374 42.8813L14 36.9844ZM23.5391 19.2812H33.5391C33.5391 13.7584 29.0619 9.28125 23.5391 9.28125V19.2812ZM15.6758 19.2812H5.67578C5.67578 24.8041 10.1529 29.2812 15.6758 29.2812V19.2812ZM15.6758 13.6953V3.69531C10.1529 3.69531 5.67578 8.17247 5.67578 13.6953H15.6758ZM37.9336 13.6953H47.9336C47.9336 8.17247 43.4564 3.69531 37.9336 3.69531V13.6953ZM37.9336 19.2812V29.2812C43.4564 29.2812 47.9336 24.8041 47.9336 19.2812H37.9336ZM30.543 19.2812V9.28125C25.0201 9.28125 20.543 13.7584 20.543 19.2812H30.543ZM46.7852 10H56.7852C56.7852 4.47715 52.308 0 46.7852 0V10ZM46.7852 24.6094H36.7852C36.7852 30.1322 41.2623 34.6094 46.7852 34.6094V24.6094ZM52.1562 24.6094H62.1562C62.1562 19.0865 57.6791 14.6094 52.1562 14.6094V24.6094ZM52.1562 30.3242V40.3242C57.6791 40.3242 62.1562 35.8471 62.1562 30.3242H52.1562ZM46.7852 30.3242V20.3242C41.2623 20.3242 36.7852 24.8014 36.7852 30.3242H46.7852ZM46.7852 49.7461V59.7461C52.308 59.7461 56.7852 55.2689 56.7852 49.7461H46.7852ZM39.8672 49.7461H29.8672C29.8672 55.2689 34.3443 59.7461 39.8672 59.7461V49.7461ZM39.8672 10V0C34.3443 0 29.8672 4.47715 29.8672 10H39.8672ZM30.543 19.9688L20.5432 19.8958C20.484 28.0125 23.7517 39.6953 35.7543 45.1111L39.8672 35.9961L43.9801 26.881C42.7356 26.3195 41.9946 25.52 41.4672 24.4788C40.8716 23.3029 40.5304 21.7302 40.5427 20.0417L30.543 19.9688ZM39.8672 35.9961L31.6903 30.2395L27.909 35.6106L36.0859 41.3672L44.2629 47.1237L48.0441 41.7526L39.8672 35.9961ZM36.0859 41.3672L40.0965 32.2067C38.7627 31.6227 37.4773 30.403 36.4984 27.9124L27.1914 31.5703L17.8845 35.2283C20.3001 41.3744 24.7725 47.3304 32.0754 50.5277L36.0859 41.3672ZM27.1914 31.5703L17.7874 28.1697C16.6626 31.2803 15.2019 32.6703 13.8477 33.28L17.9531 42.3984L22.0586 51.5168C29.7707 48.0445 34.2398 41.4854 36.5955 34.9709L27.1914 31.5703ZM17.9531 42.3984L26.0294 36.5015L22.0763 31.0874L14 36.9844L5.92374 42.8813L9.87687 48.2954L17.9531 42.3984ZM14 36.9844L18.1871 46.0656C30.3906 40.4388 33.5391 28.3629 33.5391 19.9688H23.5391H13.5391C13.5391 22.0572 13.144 23.8994 12.4815 25.2508C11.8881 26.4612 11.0828 27.3177 9.81287 27.9032L14 36.9844ZM23.5391 19.9688H33.5391V19.2812H23.5391H13.5391V19.9688H23.5391ZM23.5391 19.2812V9.28125H15.6758V19.2812V29.2812H23.5391V19.2812ZM15.6758 19.2812H25.6758V13.6953H15.6758H5.67578V19.2812H15.6758ZM15.6758 13.6953V23.6953H37.9336V13.6953V3.69531L15.6758 3.69531V13.6953ZM37.9336 13.6953H27.9336V19.2812H37.9336H47.9336V13.6953H37.9336ZM37.9336 19.2812V9.28125H30.543V19.2812V29.2812H37.9336V19.2812ZM30.543 19.2812H20.543V19.9688H30.543H40.543V19.2812H30.543ZM46.7852 10L36.7852 10V24.6094H46.7852H56.7852V10H46.7852ZM46.7852 24.6094V34.6094H52.1562V24.6094V14.6094H46.7852V24.6094ZM52.1562 24.6094H42.1562V30.3242H52.1562H62.1562V24.6094H52.1562ZM52.1562 30.3242V20.3242H46.7852V30.3242V40.3242H52.1562V30.3242ZM46.7852 30.3242H36.7852V49.7461H46.7852H56.7852V30.3242H46.7852ZM46.7852 49.7461V39.7461H39.8672V49.7461V59.7461H46.7852V49.7461ZM39.8672 49.7461H49.8672V10L39.8672 10H29.8672V49.7461H39.8672ZM39.8672 10V20H46.7852V10V0H39.8672V10ZM86.6172 10.0859H96.6172C96.6172 4.56309 92.14 0.0859375 86.6172 0.0859375V10.0859ZM86.6172 38.9609V48.9609C92.14 48.9609 96.6172 44.4838 96.6172 38.9609H86.6172ZM79.6992 38.9609H69.6992C69.6992 44.4838 74.1764 48.9609 79.6992 48.9609V38.9609ZM79.6992 10.0859V0.0859375C74.1764 0.0859375 69.6992 4.56309 69.6992 10.0859H79.6992ZM87.5625 43.6875H97.5625C97.5625 38.1647 93.0854 33.6875 87.5625 33.6875V43.6875ZM87.5625 49.1875V59.1875C93.0854 59.1875 97.5625 54.7103 97.5625 49.1875H87.5625ZM59.418 49.1875H49.418C49.418 54.7103 53.8951 59.1875 59.418 59.1875V49.1875ZM59.418 36.082V26.082C53.8951 26.082 49.418 30.5592 49.418 36.082H59.418ZM66.3789 36.082H76.3789C76.3789 30.5592 71.9018 26.082 66.3789 26.082V36.082ZM66.3789 43.6875H56.3789C56.3789 49.2103 60.8561 53.6875 66.3789 53.6875V43.6875ZM69.043 15.9727L79.0426 16.0627C79.0428 16.0327 79.043 16.0027 79.043 15.9727L69.043 15.9727ZM77.8945 27.7461L86.2866 33.1842C87.9997 30.5406 88.3669 27.2444 87.2778 24.2886C86.1886 21.3328 83.7704 19.0629 80.7516 18.1629L77.8945 27.7461ZM74.4141 33.1172L71.5232 42.6902C75.7853 43.9773 80.385 42.2916 82.8062 38.5553L74.4141 33.1172ZM65.4766 25.8555L74.3747 21.2923C72.6508 17.9306 69.1795 15.8275 65.4017 15.8557C61.6238 15.884 58.1844 18.039 56.511 21.4261L65.4766 25.8555ZM56.1094 33.8047L47.7084 39.229C50.1471 43.006 54.8066 44.6912 59.0972 43.3479L56.1094 33.8047ZM52.5859 28.3477L49.6491 18.7886C46.6547 19.7086 44.2644 21.9786 43.1912 24.9215C42.1179 27.8645 42.4857 31.1403 44.1849 33.7719L52.5859 28.3477ZM61.8672 15.9727L71.8668 16.0611C71.8671 16.0317 71.8672 16.0022 71.8672 15.9727H61.8672ZM61.8672 12.2344V2.23437C56.3443 2.23437 51.8672 6.71153 51.8672 12.2344H61.8672ZM69.043 12.2344H79.043C79.043 6.71153 74.5658 2.23437 69.043 2.23437V12.2344ZM86.6172 10.0859H76.6172V38.9609H86.6172H96.6172V10.0859H86.6172ZM86.6172 38.9609V28.9609H79.6992V38.9609V48.9609H86.6172V38.9609ZM79.6992 38.9609H89.6992V10.0859H79.6992H69.6992V38.9609H79.6992ZM79.6992 10.0859V20.0859H86.6172V10.0859V0.0859375L79.6992 0.0859375V10.0859ZM87.5625 43.6875H77.5625V49.1875H87.5625H97.5625V43.6875H87.5625ZM87.5625 49.1875V39.1875H59.418V49.1875V59.1875H87.5625V49.1875ZM59.418 49.1875H69.418V36.082H59.418H49.418V49.1875H59.418ZM59.418 36.082V46.082H66.3789V36.082V26.082H59.418V36.082ZM66.3789 36.082H56.3789V43.6875H66.3789H76.3789V36.082H66.3789ZM66.3789 43.6875V53.6875H87.5625V43.6875V33.6875H66.3789V43.6875ZM69.043 15.9727L59.0434 15.8826C59.0098 19.6126 59.7552 24.1275 62.4656 28.3115C65.2773 32.6519 69.6073 35.7103 75.0374 37.3293L77.8945 27.7461L80.7516 18.1629C79.95 17.9239 79.5561 17.6819 79.4042 17.5733C79.3251 17.5167 79.287 17.4789 79.2735 17.4648C79.2601 17.4508 79.2548 17.4431 79.2512 17.4375C79.2481 17.4327 79.1974 17.3561 79.1446 17.1419C79.0888 16.9151 79.0381 16.5609 79.0426 16.0627L69.043 15.9727ZM77.8945 27.7461L69.5024 22.308L66.022 27.6791L74.4141 33.1172L82.8062 38.5553L86.2866 33.1842L77.8945 27.7461ZM74.4141 33.1172L77.3049 23.5442C75.5695 23.0201 74.8566 22.232 74.3747 21.2923L65.4766 25.8555L56.5784 30.4186C59.534 36.1821 64.579 40.5932 71.5232 42.6902L74.4141 33.1172ZM65.4766 25.8555L56.511 21.4261C55.8533 22.7574 54.9344 23.6939 53.1215 24.2615L56.1094 33.8047L59.0972 43.3479C66.4796 41.0366 71.5334 36.1723 74.4421 30.2849L65.4766 25.8555ZM56.1094 33.8047L64.5104 28.3804L60.987 22.9234L52.5859 28.3477L44.1849 33.7719L47.7084 39.229L56.1094 33.8047ZM52.5859 28.3477L55.5228 37.9067C61.1469 36.1788 65.4864 32.9365 68.2957 28.5688C71.0001 24.3642 71.8334 19.8317 71.8668 16.0611L61.8672 15.9727L51.8676 15.8842C51.858 16.9691 51.6171 17.5283 51.4748 17.7495C51.4116 17.8479 51.315 17.969 51.1137 18.1171C50.9044 18.271 50.4671 18.5373 49.6491 18.7886L52.5859 28.3477ZM61.8672 15.9727H71.8672V12.2344H61.8672H51.8672V15.9727H61.8672ZM61.8672 12.2344V22.2344H69.043V12.2344V2.23437L61.8672 2.23437V12.2344ZM69.043 12.2344H59.043V15.9727H69.043L79.043 15.9727V12.2344H69.043ZM122.926 10H132.926C132.926 4.47715 128.449 0 122.926 0V10ZM122.926 18.0781H112.926C112.926 23.601 117.403 28.0781 122.926 28.0781V18.0781ZM127.867 18.0781H137.867C137.867 12.5553 133.39 8.07812 127.867 8.07812V18.0781ZM127.867 23.707V33.707C133.39 33.707 137.867 29.2299 137.867 23.707H127.867ZM122.926 23.707V13.707C117.403 13.707 112.926 18.1842 112.926 23.707H122.926ZM122.926 32V42C128.449 42 132.926 37.5228 132.926 32H122.926ZM116.008 32H106.008C106.008 37.5228 110.485 42 116.008 42V32ZM116.008 10V0C110.485 0 106.008 4.47715 106.008 10L116.008 10ZM111.625 12.1914H121.625C121.625 6.66856 117.148 2.19141 111.625 2.19141V12.1914ZM93.1484 33.2461L84.1763 37.6621C86.2731 41.9222 91.0766 44.1205 95.6712 42.9226L93.1484 33.2461ZM90.4414 27.7461L88.1947 18.0018C85.2183 18.688 82.7188 20.6969 81.4084 23.4559C80.098 26.215 80.1205 29.4216 81.4693 32.1621L90.4414 27.7461ZM104.02 17.6055L113.797 19.704C114.431 16.7508 113.696 13.6693 111.797 11.32C109.899 8.97073 107.04 7.60547 104.02 7.60547V17.6055ZM92.5039 17.6055H82.5039C82.5039 23.1283 86.9811 27.6055 92.5039 27.6055V17.6055ZM92.5039 12.1914V2.19141C86.9811 2.19141 82.5039 6.66856 82.5039 12.1914H92.5039ZM122.926 33.2891H132.926C132.926 27.7662 128.449 23.2891 122.926 23.2891V33.2891ZM122.926 49.3164V59.3164C128.449 59.3164 132.926 54.8393 132.926 49.3164H122.926ZM96.4141 49.3164H86.4141C86.4141 54.8393 90.8912 59.3164 96.4141 59.3164V49.3164ZM96.4141 33.2891V23.2891C90.8912 23.2891 86.4141 27.7662 86.4141 33.2891H96.4141ZM103.246 38.7891V28.7891C97.7232 28.7891 93.2461 33.2662 93.2461 38.7891H103.246ZM103.246 43.9883H93.2461C93.2461 49.5111 97.7232 53.9883 103.246 53.9883V43.9883ZM116.137 43.9883V53.9883C121.66 53.9883 126.137 49.5111 126.137 43.9883H116.137ZM116.137 38.7891H126.137C126.137 33.2662 121.66 28.7891 116.137 28.7891V38.7891ZM122.926 10H112.926V18.0781H122.926H132.926V10H122.926ZM122.926 18.0781V28.0781H127.867V18.0781V8.07812H122.926V18.0781ZM127.867 18.0781H117.867V23.707H127.867H137.867V18.0781H127.867ZM127.867 23.707V13.707H122.926V23.707V33.707H127.867V23.707ZM122.926 23.707H112.926V32H122.926H132.926V23.707H122.926ZM122.926 32V22H116.008V32V42H122.926V32ZM116.008 32H126.008V10H116.008L106.008 10V32H116.008ZM116.008 10V20H122.926V10V0L116.008 0V10ZM111.625 12.1914L101.625 12.1914C101.625 15.4844 100.706 17.5114 99.4117 18.9736C97.9866 20.5831 95.3519 22.3373 90.6256 23.5696L93.1484 33.2461L95.6712 42.9226C102.976 41.0181 109.58 37.6591 114.385 32.2325C119.321 26.6585 121.625 19.7265 121.625 12.1914H111.625ZM93.1484 33.2461L102.121 28.8301L99.4135 23.3301L90.4414 27.7461L81.4693 32.1621L84.1763 37.6621L93.1484 33.2461ZM90.4414 27.7461L92.6882 37.4904C102.544 35.2179 111.649 29.7113 113.797 19.704L104.02 17.6055L94.2422 15.5069C94.3376 15.0626 94.5301 15.184 93.8386 15.7229C93.0595 16.3301 91.364 17.271 88.1947 18.0018L90.4414 27.7461ZM104.02 17.6055V7.60547H92.5039V17.6055V27.6055H104.02V17.6055ZM92.5039 17.6055H102.504V12.1914H92.5039H82.5039V17.6055H92.5039ZM92.5039 12.1914V22.1914H111.625V12.1914V2.19141L92.5039 2.19141V12.1914ZM122.926 33.2891H112.926V49.3164H122.926H132.926V33.2891H122.926ZM122.926 49.3164V39.3164H96.4141V49.3164V59.3164H122.926V49.3164ZM96.4141 49.3164H106.414V33.2891H96.4141H86.4141V49.3164H96.4141ZM96.4141 33.2891V43.2891H122.926V33.2891V23.2891H96.4141V33.2891ZM103.246 38.7891H93.2461V43.9883H103.246H113.246V38.7891H103.246ZM103.246 43.9883V53.9883H116.137V43.9883V33.9883H103.246V43.9883ZM116.137 43.9883H126.137V38.7891H116.137H106.137V43.9883H116.137ZM116.137 38.7891V28.7891H103.246V38.7891V48.7891H116.137V38.7891ZM162.715 10H172.715C172.715 4.47715 168.238 0 162.715 0V10ZM162.715 49.875V59.875C168.238 59.875 172.715 55.3978 172.715 49.875H162.715ZM155.754 49.875H145.754C145.754 55.3978 150.231 59.875 155.754 59.875V49.875ZM155.754 10V0C150.231 0 145.754 4.47715 145.754 10H155.754ZM140.887 12.6641L140.817 22.6638C140.864 22.6641 140.911 22.6641 140.958 22.6638L140.887 12.6641ZM140.887 18.8945L140.717 28.8931C140.834 28.8951 140.951 28.895 141.069 28.8929L140.887 18.8945ZM162.715 10H152.715V49.875H162.715H172.715V10H162.715ZM162.715 49.875V39.875H155.754V49.875V59.875H162.715V49.875ZM155.754 49.875H165.754V10H155.754H145.754V49.875H155.754ZM155.754 10V20H162.715V10V0H155.754V10ZM140.887 12.6641L140.958 22.6638C140.89 22.6643 140.72 22.6406 140.545 22.5508C140.383 22.4681 140.392 22.4198 140.513 22.5782C140.783 22.9327 141.5 24.2334 141.5 26.9727H151.5H161.5C161.5 20.9463 159.939 15.0712 156.418 10.4521C152.77 5.66819 147.237 2.61877 140.816 2.66431L140.887 12.6641ZM151.5 26.9727H141.5C141.5 29.8028 140.77 31.1249 140.5 31.4804C140.38 31.6391 140.369 31.594 140.523 31.5147C140.689 31.4293 140.841 31.4102 140.887 31.4102V41.4102V51.4102C147.26 51.4102 152.779 48.3834 156.43 43.5733C159.952 38.9337 161.5 33.0371 161.5 26.9727H151.5ZM140.887 41.4102V31.4102C140.865 31.4102 140.97 31.4135 141.107 31.483C141.236 31.5479 141.217 31.5815 141.098 31.4265C140.832 31.0816 140.102 29.7839 140.102 26.9727H130.102H120.102C120.102 33.056 121.67 38.977 125.25 43.6273C128.963 48.4498 134.525 51.4102 140.887 51.4102V41.4102ZM130.102 26.9727H140.102C140.102 24.2526 140.819 22.9762 141.085 22.632C141.204 22.4774 141.221 22.5139 141.085 22.5822C141.025 22.6127 140.959 22.6363 140.896 22.6507C140.835 22.6649 140.804 22.6637 140.817 22.6638L140.887 12.6641L140.956 2.6643C134.547 2.6198 128.972 5.60151 125.263 10.3982C121.683 15.0277 120.102 20.9271 120.102 26.9727H130.102ZM140.887 18.8945L141.056 8.89597C135.425 8.80052 131.226 12.0746 129.053 16.1436C127.212 19.59 126.762 23.5385 126.762 26.9727H136.762H146.762C146.762 26.0559 146.83 25.4897 146.882 25.2055C146.939 24.8993 146.945 25.0966 146.694 25.5664C146.428 26.0649 145.802 26.9904 144.588 27.7722C143.309 28.5955 141.913 28.9134 140.717 28.8931L140.887 18.8945ZM136.762 26.9727H126.762C126.762 30.4271 127.205 34.3944 129.061 37.8541C131.275 41.9836 135.45 45.0938 140.887 45.0938V35.0938V25.0937C141.997 25.0937 143.332 25.3965 144.58 26.1982C145.776 26.9673 146.408 27.8831 146.686 28.4018C146.945 28.8846 146.941 29.0928 146.884 28.7849C146.831 28.4977 146.762 27.9194 146.762 26.9727H136.762ZM140.887 35.0938V45.0938C146.486 45.0937 150.537 41.7294 152.613 37.7986C154.412 34.3926 154.883 30.4806 154.883 26.9727H144.883H134.883C134.883 27.9039 134.813 28.4806 134.759 28.7724C134.701 29.0842 134.692 28.9062 134.929 28.4572C135.177 27.9865 135.773 27.0851 136.945 26.3005C138.185 25.4703 139.595 25.0937 140.887 25.0937V35.0938ZM144.883 26.9727H154.883C154.883 23.4853 154.406 19.5914 152.621 16.199C150.59 12.3393 146.512 8.79061 140.705 8.89618L140.887 18.8945L141.069 28.8929C139.683 28.9181 138.207 28.5217 136.937 27.6697C135.749 26.8723 135.158 25.9614 134.921 25.511C134.692 25.075 134.702 24.9078 134.76 25.218C134.814 25.507 134.883 26.0715 134.883 26.9727H144.883ZM213.031 32.3867H223.031C223.031 26.8639 218.554 22.3867 213.031 22.3867V32.3867ZM213.031 37.6719V47.6719C218.554 47.6719 223.031 43.1947 223.031 37.6719H213.031ZM176.766 37.6719H166.766C166.766 43.1947 171.243 47.6719 176.766 47.6719V37.6719ZM176.766 32.3867V22.3867C171.243 22.3867 166.766 26.8639 166.766 32.3867H176.766ZM208.82 43.8164H218.82C218.82 38.2936 214.343 33.8164 208.82 33.8164V43.8164ZM208.82 49.1875V59.1875C214.343 59.1875 218.82 54.7103 218.82 49.1875H208.82ZM180.934 49.1875H170.934C170.934 54.7103 175.411 59.1875 180.934 59.1875V49.1875ZM180.934 39.3047V29.3047C175.411 29.3047 170.934 33.7818 170.934 39.3047H180.934ZM187.852 39.3047H197.852C197.852 33.7818 193.374 29.3047 187.852 29.3047V39.3047ZM187.852 43.8164H177.852C177.852 49.3393 182.329 53.8164 187.852 53.8164V43.8164ZM211.27 13.0937H221.27C221.27 7.5709 216.792 3.09375 211.27 3.09375V13.0937ZM211.27 18.1641V28.1641C216.792 28.1641 221.27 23.6869 221.27 18.1641H211.27ZM178.398 18.1641H168.398C168.398 23.6869 172.876 28.1641 178.398 28.1641V18.1641ZM178.398 13.0937V3.09375C172.876 3.09375 168.398 7.5709 168.398 13.0937H178.398ZM191.375 13.0937V23.0937C196.898 23.0937 201.375 18.6166 201.375 13.0937H191.375ZM191.375 10V0C185.852 0 181.375 4.47715 181.375 10H191.375ZM198.336 10H208.336C208.336 4.47715 203.859 0 198.336 0V10ZM198.336 13.0937H188.336C188.336 18.6166 192.813 23.0937 198.336 23.0937V13.0937ZM181.234 25.125L191.234 25.2337C191.235 25.1624 191.235 25.0911 191.234 25.0197L181.234 25.125ZM188.281 25.125L198.273 25.5413C198.284 25.2579 198.284 24.974 198.272 24.6906L188.281 25.125ZM213.031 32.3867H203.031V37.6719H213.031H223.031V32.3867H213.031ZM213.031 37.6719V27.6719L176.766 27.6719V37.6719V47.6719H213.031V37.6719ZM176.766 37.6719H186.766V32.3867H176.766H166.766V37.6719H176.766ZM176.766 32.3867V42.3867H213.031V32.3867V22.3867L176.766 22.3867V32.3867ZM208.82 43.8164H198.82V49.1875H208.82H218.82V43.8164H208.82ZM208.82 49.1875V39.1875H180.934V49.1875V59.1875H208.82V49.1875ZM180.934 49.1875H190.934V39.3047H180.934H170.934V49.1875H180.934ZM180.934 39.3047V49.3047H187.852V39.3047V29.3047H180.934V39.3047ZM187.852 39.3047H177.852V43.8164H187.852H197.852V39.3047H187.852ZM187.852 43.8164V53.8164H208.82V43.8164V33.8164H187.852V43.8164ZM211.27 13.0937L201.27 13.0937V18.1641L211.27 18.1641H221.27V13.0937H211.27ZM211.27 18.1641V8.16406H178.398V18.1641V28.1641L211.27 28.1641V18.1641ZM178.398 18.1641H188.398V13.0937H178.398H168.398V18.1641H178.398ZM178.398 13.0937V23.0937H191.375V13.0937V3.09375L178.398 3.09375V13.0937ZM191.375 13.0937H201.375V10H191.375H181.375V13.0937H191.375ZM191.375 10V20H198.336V10V0L191.375 0V10ZM198.336 10H188.336V13.0937H198.336L208.336 13.0937V10H198.336ZM198.336 13.0937V23.0937L211.27 23.0937V13.0937V3.09375H198.336V13.0937ZM194.898 19.0234V29.0234C196.702 29.0234 198.125 29.1298 199.202 29.2917C200.309 29.4581 200.832 29.6511 200.956 29.705C201.087 29.7626 200.448 29.5196 199.744 28.6219C198.927 27.581 198.52 26.2868 198.52 25.125L208.52 25.125H218.52C218.52 17.8321 213.595 13.4046 208.972 11.3819C204.774 9.54511 199.736 9.02344 194.898 9.02344V19.0234ZM208.52 25.125L198.52 25.125C198.52 23.858 198.973 22.5488 199.768 21.5433C200.451 20.6796 201.054 20.4528 200.902 20.5201C200.765 20.5811 200.235 20.7785 199.144 20.9491C198.081 21.1152 196.676 21.2266 194.898 21.2266V31.2266V41.2266C199.807 41.2266 204.839 40.6569 209.025 38.7963C213.514 36.8013 218.52 32.4218 218.52 25.125H208.52ZM194.898 31.2266V21.2266C193.108 21.2266 191.689 21.115 190.613 20.9478C189.509 20.776 188.969 20.5767 188.825 20.5131C188.664 20.4419 189.28 20.6703 189.975 21.5519C190.789 22.5836 191.248 23.9312 191.234 25.2337L181.234 25.125L171.235 25.0163C171.155 32.413 176.253 36.8212 180.734 38.8033C184.926 40.658 189.974 41.2266 194.898 41.2266V31.2266ZM181.234 25.125L191.234 25.0197C191.246 26.2146 190.835 27.546 189.999 28.6134C189.282 29.529 188.631 29.7734 188.772 29.7118C188.902 29.6553 189.435 29.4604 190.556 29.2929C191.646 29.13 193.082 29.0234 194.898 29.0234V19.0234V9.02344C190.045 9.02344 184.991 9.54414 180.787 11.3751C178.597 12.3287 176.162 13.8433 174.25 16.2857C172.22 18.8798 171.201 21.9944 171.235 25.2303L181.234 25.125ZM194.898 23.75V13.75C192.468 13.75 189.874 13.8251 187.705 14.2788C186.702 14.4887 184.663 14.9903 182.702 16.4285C180.177 18.2795 178.114 21.5011 178.291 25.5594L188.281 25.125L198.272 24.6906C198.336 26.1737 198.045 27.8226 197.225 29.3982C196.433 30.921 195.377 31.9345 194.527 32.558C193.707 33.1588 192.984 33.4702 192.589 33.6182C192.177 33.7729 191.887 33.837 191.8 33.855C191.737 33.8683 192.473 33.75 194.898 33.75V23.75ZM188.281 25.125L178.29 24.7087C178.125 28.6669 180.093 31.9817 182.837 33.9235C184.882 35.3716 186.998 35.8175 187.946 35.9917C190.031 36.3746 192.587 36.4141 194.898 36.4141V26.4141V16.4141C193.752 16.4141 192.907 16.3984 192.283 16.3688C191.613 16.3372 191.444 16.2996 191.559 16.3208C191.633 16.3342 191.926 16.3904 192.349 16.5368C192.752 16.6766 193.52 16.9822 194.392 17.5994C195.307 18.2474 196.417 19.2995 197.235 20.8807C198.073 22.4996 198.331 24.1445 198.273 25.5413L188.281 25.125ZM194.898 26.4141V36.4141C197.174 36.4141 199.708 36.3744 201.79 35.9901C202.755 35.8119 204.813 35.3686 206.819 33.9761C209.444 32.1534 211.473 29.0198 211.473 25.125L201.473 25.125H191.473C191.473 23.7302 191.796 22.1487 192.641 20.6253C193.464 19.1422 194.535 18.1569 195.413 17.5469C196.254 16.9632 196.991 16.6702 197.386 16.5337C197.798 16.3914 198.084 16.3361 198.159 16.3224C198.276 16.3008 198.113 16.3378 197.459 16.3691C196.849 16.3984 196.022 16.4141 194.898 16.4141V26.4141ZM201.473 25.125L211.473 25.125C211.473 21.151 209.369 18.1103 206.954 16.3741C205.032 14.9921 203.049 14.4948 202.032 14.2809C199.867 13.8257 197.295 13.75 194.898 13.75V23.75V33.75C197.271 33.75 197.986 33.8676 197.917 33.8529C197.83 33.8347 197.547 33.7717 197.147 33.6218C196.761 33.4776 196.068 33.1798 195.278 32.6124C194.463 32.0259 193.447 31.0785 192.653 29.654C191.829 28.1778 191.473 26.5983 191.473 25.125H201.473ZM251.145 24.7812H261.145C261.145 19.2584 256.667 14.7812 251.145 14.7812V24.7812ZM251.145 30.1523V40.1523C256.667 40.1523 261.145 35.6752 261.145 30.1523H251.145ZM214.793 30.1523H204.793C204.793 35.6752 209.27 40.1523 214.793 40.1523V30.1523ZM214.793 24.7812V14.7812C209.27 14.7812 204.793 19.2584 204.793 24.7812L214.793 24.7812ZM246.805 17.9492H256.805C256.805 12.4264 252.328 7.94922 246.805 7.94922V17.9492ZM246.805 23.2773V33.2773C252.328 33.2773 256.805 28.8002 256.805 23.2773H246.805ZM219.133 23.2773H209.133C209.133 28.8002 213.61 33.2773 219.133 33.2773V23.2773ZM219.133 10.4727V0.472656C213.61 0.472656 209.133 4.94981 209.133 10.4727H219.133ZM246.547 10.4727H256.547C256.547 4.94981 252.07 0.472656 246.547 0.472656V10.4727ZM246.547 15.9297V25.9297C252.07 25.9297 256.547 21.4525 256.547 15.9297H246.547ZM225.965 15.9297V5.92969C220.442 5.92969 215.965 10.4068 215.965 15.9297H225.965ZM225.965 17.9492H215.965C215.965 23.4721 220.442 27.9492 225.965 27.9492V17.9492ZM246.762 31.6992H256.762C256.762 26.1764 252.285 21.6992 246.762 21.6992V31.6992ZM246.762 42.8281V52.8281C252.285 52.8281 256.762 48.351 256.762 42.8281H246.762ZM225.578 42.8281V32.8281C220.055 32.8281 215.578 37.3053 215.578 42.8281H225.578ZM225.578 44.2461H215.578C215.578 49.7689 220.055 54.2461 225.578 54.2461V44.2461ZM247.707 44.2461H257.707C257.707 38.7232 253.23 34.2461 247.707 34.2461V44.2461ZM247.707 49.4883V59.4883C253.23 59.4883 257.707 55.0111 257.707 49.4883H247.707ZM218.832 49.4883H208.832C208.832 55.0111 213.309 59.4883 218.832 59.4883V49.4883ZM218.832 38.0156V28.0156C213.309 28.0156 208.832 32.4928 208.832 38.0156H218.832ZM239.973 38.0156V48.0156C245.495 48.0156 249.973 43.5385 249.973 38.0156H239.973ZM239.973 36.8125H249.973C249.973 31.2897 245.495 26.8125 239.973 26.8125V36.8125ZM218.875 36.8125H208.875C208.875 42.3353 213.352 46.8125 218.875 46.8125V36.8125ZM218.875 31.6992V21.6992C213.352 21.6992 208.875 26.1764 208.875 31.6992H218.875ZM251.145 24.7812H241.145V30.1523H251.145H261.145V24.7812H251.145ZM251.145 30.1523V20.1523H214.793V30.1523V40.1523H251.145V30.1523ZM214.793 30.1523H224.793V24.7812H214.793L204.793 24.7812V30.1523H214.793ZM214.793 24.7812V34.7812H251.145V24.7812V14.7812H214.793V24.7812ZM246.805 17.9492H236.805V23.2773H246.805H256.805V17.9492H246.805ZM246.805 23.2773V13.2773H219.133V23.2773V33.2773H246.805V23.2773ZM219.133 23.2773H229.133V10.4727H219.133H209.133V23.2773H219.133ZM219.133 10.4727V20.4727H246.547V10.4727V0.472656L219.133 0.472656V10.4727ZM246.547 10.4727L236.547 10.4727V15.9297H246.547H256.547V10.4727H246.547ZM246.547 15.9297V5.92969L225.965 5.92969V15.9297V25.9297H246.547V15.9297ZM225.965 15.9297H215.965V17.9492H225.965H235.965V15.9297H225.965ZM225.965 17.9492V27.9492H246.805V17.9492V7.94922L225.965 7.94922V17.9492ZM246.762 31.6992H236.762V42.8281H246.762H256.762V31.6992H246.762ZM246.762 42.8281V32.8281H225.578V42.8281V52.8281H246.762V42.8281ZM225.578 42.8281H215.578V44.2461H225.578H235.578V42.8281H225.578ZM225.578 44.2461V54.2461H247.707V44.2461V34.2461H225.578V44.2461ZM247.707 44.2461H237.707V49.4883H247.707H257.707V44.2461H247.707ZM247.707 49.4883V39.4883H218.832V49.4883V59.4883H247.707V49.4883ZM218.832 49.4883H228.832V38.0156H218.832H208.832V49.4883H218.832ZM218.832 38.0156V48.0156H239.973V38.0156V28.0156H218.832V38.0156ZM239.973 38.0156H249.973V36.8125H239.973H229.973V38.0156H239.973ZM239.973 36.8125V26.8125H218.875V36.8125V46.8125H239.973V36.8125ZM218.875 36.8125H228.875V31.6992H218.875H208.875V36.8125H218.875ZM218.875 31.6992V41.6992H246.762V31.6992V21.6992H218.875V31.6992ZM286.422 10H296.422C296.422 4.47715 291.945 0 286.422 0V10ZM286.422 49.875V59.875C291.945 59.875 296.422 55.3978 296.422 49.875H286.422ZM279.547 49.875H269.547C269.547 55.3978 274.024 59.875 279.547 59.875V49.875ZM279.547 10V0C274.024 0 269.547 4.47715 269.547 10H279.547ZM273.961 13.1367H283.961C283.961 7.61387 279.484 3.13672 273.961 3.13672V13.1367ZM273.961 29.207V39.207C279.484 39.207 283.961 34.7299 283.961 29.207H273.961ZM261.973 29.207V19.207C256.45 19.207 251.973 23.6842 251.973 29.207H261.973ZM261.973 35.1367H251.973C251.973 37.8086 253.042 40.3693 254.942 42.2478C256.842 44.1264 259.415 45.1664 262.086 45.1361L261.973 35.1367ZM277.355 33.8906L287.305 32.888C287.027 30.1315 285.618 27.6137 283.414 25.9351C281.21 24.2565 278.409 23.5675 275.677 24.0324L277.355 33.8906ZM277.914 39.4336L279.74 49.2655C284.853 48.3159 288.385 43.6054 287.864 38.4309L277.914 39.4336ZM254.84 40.7656H244.84C244.84 46.2885 249.317 50.7656 254.84 50.7656V40.7656ZM254.84 23.8359V13.8359C249.317 13.8359 244.84 18.3131 244.84 23.8359H254.84ZM266.914 23.8359V33.8359C272.437 33.8359 276.914 29.3588 276.914 23.8359H266.914ZM266.914 18.6367H276.914C276.914 13.1139 272.437 8.63672 266.914 8.63672V18.6367ZM254.84 18.6367H244.84C244.84 24.1596 249.317 28.6367 254.84 28.6367V18.6367ZM254.84 13.1367V3.13672C249.317 3.13672 244.84 7.61387 244.84 13.1367H254.84ZM286.422 10H276.422V49.875H286.422H296.422V10H286.422ZM286.422 49.875V39.875H279.547V49.875V59.875H286.422V49.875ZM279.547 49.875H289.547V10H279.547H269.547V49.875H279.547ZM279.547 10V20H286.422V10V0H279.547V10ZM273.961 13.1367H263.961V29.207H273.961H283.961V13.1367H273.961ZM273.961 29.207V19.207H261.973V29.207V39.207H273.961V29.207ZM261.973 29.207H251.973V35.1367H261.973H271.973V29.207H261.973ZM261.973 35.1367L262.086 45.1361C268.111 45.0676 273.323 44.7209 279.033 43.7488L277.355 33.8906L275.677 24.0324C271.291 24.7791 267.178 25.0769 261.859 25.1374L261.973 35.1367ZM277.355 33.8906L267.406 34.8933L267.964 40.4363L277.914 39.4336L287.864 38.4309L287.305 32.888L277.355 33.8906ZM277.914 39.4336L276.088 29.6017C271.008 30.5451 265.958 30.7656 258.578 30.7656V40.7656V50.7656C266.237 50.7656 272.789 50.5565 279.74 49.2655L277.914 39.4336ZM258.578 40.7656V30.7656H254.84V40.7656V50.7656H258.578V40.7656ZM254.84 40.7656H264.84V23.8359H254.84H244.84V40.7656H254.84ZM254.84 23.8359V33.8359H266.914V23.8359V13.8359H254.84V23.8359ZM266.914 23.8359H276.914V18.6367H266.914H256.914V23.8359H266.914ZM266.914 18.6367V8.63672H254.84V18.6367V28.6367H266.914V18.6367ZM254.84 18.6367H264.84V13.1367H254.84H244.84V18.6367H254.84ZM254.84 13.1367V23.1367H273.961V13.1367V3.13672H254.84V13.1367ZM323.203 20.0977H333.203C333.203 14.5748 328.726 10.0977 323.203 10.0977V20.0977ZM323.203 25.4258V35.4258C328.726 35.4258 333.203 30.9486 333.203 25.4258H323.203ZM295.102 25.4258H285.102C285.102 30.9486 289.579 35.4258 295.102 35.4258V25.4258ZM295.102 11.418V1.41797C289.579 1.41797 285.102 5.89512 285.102 11.418H295.102ZM301.977 11.418L311.977 11.418C311.977 5.89512 307.499 1.41797 301.977 1.41797V11.418ZM301.977 20.0977H291.977C291.977 25.6205 296.454 30.0977 301.977 30.0977V20.0977ZM327.113 28.9492H337.113C337.113 23.4264 332.636 18.9492 327.113 18.9492V28.9492ZM327.113 34.2773V44.2773C332.636 44.2773 337.113 39.8002 337.113 34.2773H327.113ZM290.848 34.2773H280.848C280.848 39.8002 285.325 44.2773 290.848 44.2773V34.2773ZM290.848 28.9492V18.9492C285.325 18.9492 280.848 23.4264 280.848 28.9492H290.848ZM323.461 43.4727H333.461C333.461 37.9498 328.984 33.4727 323.461 33.4727V43.4727ZM323.461 48.9727V58.9727C328.984 58.9727 333.461 54.4955 333.461 48.9727H323.461ZM294.629 48.9727H284.629C284.629 54.4955 289.106 58.9727 294.629 58.9727V48.9727ZM294.629 37.0273V27.0273C289.106 27.0273 284.629 31.5045 284.629 37.0273H294.629ZM301.59 37.0273H311.59C311.59 31.5045 307.113 27.0273 301.59 27.0273V37.0273ZM301.59 43.4727H291.59C291.59 48.9955 296.067 53.4727 301.59 53.4727V43.4727ZM323.203 20.0977H313.203V25.4258H323.203H333.203V20.0977H323.203ZM323.203 25.4258V15.4258H295.102V25.4258V35.4258H323.203V25.4258ZM295.102 25.4258H305.102V11.418L295.102 11.418H285.102V25.4258H295.102ZM295.102 11.418V21.418H301.977V11.418V1.41797H295.102V11.418ZM301.977 11.418H291.977V20.0977H301.977H311.977V11.418L301.977 11.418ZM301.977 20.0977V30.0977H323.203V20.0977V10.0977L301.977 10.0977V20.0977ZM327.113 28.9492H317.113V34.2773H327.113H337.113V28.9492H327.113ZM327.113 34.2773V24.2773H290.848V34.2773V44.2773H327.113V34.2773ZM290.848 34.2773H300.848V28.9492H290.848H280.848V34.2773H290.848ZM290.848 28.9492V38.9492H327.113V28.9492V18.9492H290.848V28.9492ZM323.461 43.4727H313.461V48.9727H323.461H333.461V43.4727H323.461ZM323.461 48.9727V38.9727H294.629V48.9727V58.9727H323.461V48.9727ZM294.629 48.9727H304.629V37.0273H294.629H284.629V48.9727H294.629ZM294.629 37.0273V47.0273H301.59V37.0273V27.0273H294.629V37.0273ZM301.59 37.0273H291.59V43.4727H301.59H311.59V37.0273H301.59ZM301.59 43.4727V53.4727H323.461V43.4727V33.4727H301.59V43.4727Z" fill="white" mask="url(#path-1-outside-1_6526_5756)"/>
</g>
<defs>
<filter id="filter0_d_6526_5756" x="0" y="0" width="341.113" height="67.875" filterUnits="userSpaceOnUse" color-interpolation-filters="sRGB">
<feFlood flood-opacity="0" result="BackgroundImageFix"/>
<feColorMatrix in="SourceAlpha" type="matrix" values="0 0 0 0 0 0 0 0 0 0 0 0 0 0 0 0 0 0 127 0" result="hardAlpha"/>
<feOffset dy="4"/>
<feGaussianBlur stdDeviation="2"/>
<feComposite in2="hardAlpha" operator="out"/>
<feColorMatrix type="matrix" values="0 0 0 0 0 0 0 0 0 0 0 0 0 0 0 0 0 0 0.07 0"/>
<feBlend mode="normal" in2="BackgroundImageFix" result="effect1_dropShadow_6526_5756"/>
<feBlend mode="normal" in="SourceGraphic" in2="effect1_dropShadow_6526_5756" result="shape"/>
</filter>
</defs>
</svg>
