<svg width="275" height="68" viewBox="0 0 275 68" fill="none" xmlns="http://www.w3.org/2000/svg">
<g filter="url(#filter0_d_6526_5715)">
<mask id="path-1-outside-1_6526_5715" maskUnits="userSpaceOnUse" x="3.61328" y="-0.507813" width="267" height="61" fill="black">
<rect fill="white" x="3.61328" y="-0.507813" width="267" height="61"/>
<path d="M48.332 10V33.5898H41.457V24.8242H36.4727V19.2812H41.457V10L48.332 10ZM34.4961 34.2344C43.1328 34.2344 48.418 37.1133 48.418 42.0547C48.418 46.9531 43.1328 49.875 34.4961 49.875C25.9453 49.875 20.6602 46.9531 20.6602 42.0547C20.6602 37.1133 25.9453 34.2344 34.4961 34.2344ZM34.4961 39.4336C29.7695 39.4336 27.4922 40.1641 27.5352 42.0547C27.4922 43.9023 29.7695 44.6758 34.4961 44.6758C39.2656 44.6758 41.5859 43.9023 41.5859 42.0547C41.5859 40.1641 39.2656 39.4336 34.4961 39.4336ZM37.5469 12.1055V17.6055H30.3711C30.7793 21.5801 33.0996 25.5762 38.9648 27.4883L35.6562 32.8594C31.4023 31.5488 28.5879 28.9707 26.8477 25.7695C25.1289 29.4219 22.1426 32.3652 17.5664 33.8477L14 28.3906C20.3379 26.3711 22.7227 21.8594 23.1523 17.6055H15.9336V12.1055H37.5469ZM86.1445 10V49.875H79.2695V10H86.1445ZM73.6836 13.1367V29.207H61.6953V35.1367C67.3672 35.0723 72.0293 34.75 77.0781 33.8906L77.6367 39.4336C71.6211 40.5508 65.8203 40.7656 58.3008 40.7656H54.5625V23.8359H66.6367V18.6367H54.5625V13.1367H73.6836ZM134.656 13.8672V19.3242H101.785V13.8672H114.848V10.0859H121.68V13.8672H134.656ZM136.461 35.6523V41.1953H121.68V49.7891H114.848V41.1953H100.152V35.6523H136.461ZM118.285 20.4414C127.094 20.4414 132.422 22.8477 132.465 27.3594C132.422 31.8281 127.094 34.2773 118.285 34.2773C109.391 34.2773 104.062 31.8281 104.105 27.3594C104.062 22.8477 109.391 20.4414 118.285 20.4414ZM118.285 25.4687C113.344 25.4687 111.238 25.9414 111.238 27.3594C111.238 28.7344 113.344 29.207 118.285 29.207C123.141 29.207 125.246 28.7344 125.289 27.3594C125.246 25.9414 123.141 25.4687 118.285 25.4687ZM179.559 10V17.0898H184.5V22.7617H179.559V29.6367H172.641V10L179.559 10ZM168.129 11.6328V28.5625H148.621V11.6328H168.129ZM155.453 17.0469V23.1484H161.297V17.0469H155.453ZM179.559 31.0117V42.6133H159.406V44.0312H180.504V49.4023H152.574V37.6719H172.684V36.2539H152.574V31.0117H179.559ZM217.5 10V25.082H222.871V30.7109H217.5V49.7461H210.668V10H217.5ZM208.734 15.6719V21.1289L185.574 21.1289V15.6719H193.781V10.7305H200.656V15.6719L208.734 15.6719ZM197.219 22.6758C203.105 22.6758 207.617 26.7148 207.617 32.3437C207.617 38.0156 203.105 42.0547 197.219 42.0547C191.203 42.0547 186.777 38.0156 186.777 32.3437C186.777 26.7148 191.203 22.6758 197.219 22.6758ZM197.219 28.2187C194.984 28.2187 193.352 29.6797 193.395 32.3437C193.352 35.1367 194.984 36.4687 197.219 36.4687C199.41 36.4687 201 35.1367 201 32.3437C201 29.6797 199.41 28.2187 197.219 28.2187ZM256.172 20.0977V25.4258H228.07V11.418H234.945V20.0977H256.172ZM260.082 28.9492V34.2773H223.816V28.9492H260.082ZM256.43 43.4727V48.9727H227.598V37.0273H234.559V43.4727H256.43Z"/>
</mask>
<path d="M48.332 10V33.5898H41.457V24.8242H36.4727V19.2812H41.457V10L48.332 10ZM34.4961 34.2344C43.1328 34.2344 48.418 37.1133 48.418 42.0547C48.418 46.9531 43.1328 49.875 34.4961 49.875C25.9453 49.875 20.6602 46.9531 20.6602 42.0547C20.6602 37.1133 25.9453 34.2344 34.4961 34.2344ZM34.4961 39.4336C29.7695 39.4336 27.4922 40.1641 27.5352 42.0547C27.4922 43.9023 29.7695 44.6758 34.4961 44.6758C39.2656 44.6758 41.5859 43.9023 41.5859 42.0547C41.5859 40.1641 39.2656 39.4336 34.4961 39.4336ZM37.5469 12.1055V17.6055H30.3711C30.7793 21.5801 33.0996 25.5762 38.9648 27.4883L35.6562 32.8594C31.4023 31.5488 28.5879 28.9707 26.8477 25.7695C25.1289 29.4219 22.1426 32.3652 17.5664 33.8477L14 28.3906C20.3379 26.3711 22.7227 21.8594 23.1523 17.6055H15.9336V12.1055H37.5469ZM86.1445 10V49.875H79.2695V10H86.1445ZM73.6836 13.1367V29.207H61.6953V35.1367C67.3672 35.0723 72.0293 34.75 77.0781 33.8906L77.6367 39.4336C71.6211 40.5508 65.8203 40.7656 58.3008 40.7656H54.5625V23.8359H66.6367V18.6367H54.5625V13.1367H73.6836ZM134.656 13.8672V19.3242H101.785V13.8672H114.848V10.0859H121.68V13.8672H134.656ZM136.461 35.6523V41.1953H121.68V49.7891H114.848V41.1953H100.152V35.6523H136.461ZM118.285 20.4414C127.094 20.4414 132.422 22.8477 132.465 27.3594C132.422 31.8281 127.094 34.2773 118.285 34.2773C109.391 34.2773 104.062 31.8281 104.105 27.3594C104.062 22.8477 109.391 20.4414 118.285 20.4414ZM118.285 25.4687C113.344 25.4687 111.238 25.9414 111.238 27.3594C111.238 28.7344 113.344 29.207 118.285 29.207C123.141 29.207 125.246 28.7344 125.289 27.3594C125.246 25.9414 123.141 25.4687 118.285 25.4687ZM179.559 10V17.0898H184.5V22.7617H179.559V29.6367H172.641V10L179.559 10ZM168.129 11.6328V28.5625H148.621V11.6328H168.129ZM155.453 17.0469V23.1484H161.297V17.0469H155.453ZM179.559 31.0117V42.6133H159.406V44.0312H180.504V49.4023H152.574V37.6719H172.684V36.2539H152.574V31.0117H179.559ZM217.5 10V25.082H222.871V30.7109H217.5V49.7461H210.668V10H217.5ZM208.734 15.6719V21.1289L185.574 21.1289V15.6719H193.781V10.7305H200.656V15.6719L208.734 15.6719ZM197.219 22.6758C203.105 22.6758 207.617 26.7148 207.617 32.3437C207.617 38.0156 203.105 42.0547 197.219 42.0547C191.203 42.0547 186.777 38.0156 186.777 32.3437C186.777 26.7148 191.203 22.6758 197.219 22.6758ZM197.219 28.2187C194.984 28.2187 193.352 29.6797 193.395 32.3437C193.352 35.1367 194.984 36.4687 197.219 36.4687C199.41 36.4687 201 35.1367 201 32.3437C201 29.6797 199.41 28.2187 197.219 28.2187ZM256.172 20.0977V25.4258H228.07V11.418H234.945V20.0977H256.172ZM260.082 28.9492V34.2773H223.816V28.9492H260.082ZM256.43 43.4727V48.9727H227.598V37.0273H234.559V43.4727H256.43Z" fill="#11DCA9"/>
<path d="M48.332 10H58.332C58.332 4.47715 53.8549 0 48.332 0V10ZM48.332 33.5898V43.5898C53.8549 43.5898 58.332 39.1127 58.332 33.5898H48.332ZM41.457 33.5898H31.457C31.457 39.1127 35.9342 43.5898 41.457 43.5898V33.5898ZM41.457 24.8242H51.457C51.457 19.3014 46.9799 14.8242 41.457 14.8242V24.8242ZM36.4727 24.8242H26.4727C26.4727 30.3471 30.9498 34.8242 36.4727 34.8242V24.8242ZM36.4727 19.2812V9.28125C30.9498 9.28125 26.4727 13.7584 26.4727 19.2812H36.4727ZM41.457 19.2812V29.2812C46.9799 29.2812 51.457 24.8041 51.457 19.2812H41.457ZM41.457 10V0C35.9342 0 31.457 4.47715 31.457 10H41.457ZM27.5352 42.0547L37.5325 42.2872C37.536 42.134 37.5361 41.9807 37.5326 41.8275L27.5352 42.0547ZM37.5469 12.1055L47.5469 12.1055C47.5469 6.58262 43.0697 2.10547 37.5469 2.10547V12.1055ZM37.5469 17.6055V27.6055C43.0697 27.6055 47.5469 23.1283 47.5469 17.6055H37.5469ZM30.3711 17.6055V7.60547C27.5411 7.60547 24.8437 8.80453 22.9476 10.9053C21.0515 13.0062 20.1343 15.812 20.4234 18.6271L30.3711 17.6055ZM38.9648 27.4883L47.4791 32.7331C49.0868 30.1232 49.4087 26.9202 48.3525 24.0426C47.2963 21.1651 44.9787 18.9308 42.0644 17.9808L38.9648 27.4883ZM35.6562 32.8594L32.712 42.4161C37.0678 43.7581 41.78 41.9848 44.1705 38.1041L35.6562 32.8594ZM26.8477 25.7695L35.6334 20.9934C33.8333 17.6822 30.3245 15.6643 26.5572 15.7738C22.79 15.8832 19.4042 18.1014 17.7995 21.5116L26.8477 25.7695ZM17.5664 33.8477L9.19555 39.3184C11.6639 43.0953 16.3558 44.7514 20.6482 43.3609L17.5664 33.8477ZM14 28.3906L10.964 18.8626C7.98743 19.8111 5.62515 22.0961 4.57824 25.0394C3.53133 27.9828 3.92009 31.2463 5.62914 33.8613L14 28.3906ZM23.1523 17.6055L33.1017 18.6105C33.3858 15.7977 32.4661 12.9962 30.5702 10.8991C28.6743 8.80207 25.9794 7.60547 23.1523 7.60547V17.6055ZM15.9336 17.6055H5.93359C5.93359 23.1283 10.4107 27.6055 15.9336 27.6055V17.6055ZM15.9336 12.1055V2.10547C10.4107 2.10547 5.93359 6.58262 5.93359 12.1055H15.9336ZM48.332 10L38.332 10V33.5898H48.332H58.332V10H48.332ZM48.332 33.5898V23.5898H41.457V33.5898V43.5898H48.332V33.5898ZM41.457 33.5898H51.457V24.8242H41.457H31.457V33.5898H41.457ZM41.457 24.8242V14.8242H36.4727V24.8242V34.8242H41.457V24.8242ZM36.4727 24.8242H46.4727V19.2812H36.4727H26.4727V24.8242H36.4727ZM36.4727 19.2812V29.2812H41.457V19.2812V9.28125H36.4727V19.2812ZM41.457 19.2812H51.457V10L41.457 10H31.457V19.2812H41.457ZM41.457 10V20H48.332V10V0H41.457V10ZM34.4961 34.2344V44.2344C36.1187 44.2344 37.3879 44.3712 38.3257 44.5616C39.2812 44.7555 39.7286 44.9714 39.8294 45.0275C39.9133 45.0742 39.512 44.8702 39.086 44.2182C38.6175 43.5014 38.418 42.6952 38.418 42.0547H48.418H58.418C58.418 35.2516 54.4645 30.2863 49.5622 27.5555C45.0927 25.0657 39.6993 24.2344 34.4961 24.2344V34.2344ZM48.418 42.0547H38.418C38.418 41.3866 38.6266 40.5745 39.0912 39.865C39.5128 39.2211 39.9055 39.0231 39.8145 39.074C39.7085 39.1333 39.2584 39.3506 38.3073 39.5455C37.3733 39.737 36.1099 39.875 34.4961 39.875V49.875V59.875C39.7223 59.875 45.114 59.0256 49.5771 56.5295C54.4456 53.8066 58.418 48.8554 58.418 42.0547H48.418ZM34.4961 49.875V39.875C32.9097 39.875 31.6668 39.7379 30.7483 39.5484C29.8129 39.3553 29.3714 39.1406 29.2695 39.0834C29.1824 39.0344 29.5725 39.2329 29.9909 39.8732C30.4518 40.5786 30.6602 41.387 30.6602 42.0547H20.6602H10.6602C10.6602 48.8478 14.6239 53.7955 19.4736 56.5201C23.9256 59.0212 29.299 59.875 34.4961 59.875V49.875ZM20.6602 42.0547H30.6602C30.6602 42.6948 30.4609 43.4973 29.9961 44.2101C29.5734 44.8584 29.1747 45.063 29.2546 45.0182C29.3512 44.9642 29.7901 44.7509 30.7297 44.5588C31.6521 44.3702 32.9008 44.2344 34.4961 44.2344V34.2344V24.2344C29.3221 24.2344 23.947 25.07 19.4885 27.5648C14.6049 30.2974 10.6602 35.2592 10.6602 42.0547H20.6602ZM34.4961 39.4336V29.4336C31.9706 29.4336 28.7204 29.5812 25.8166 30.6347C24.2592 31.1997 22.0827 32.2766 20.2881 34.4095C18.3073 36.7637 17.4766 39.5902 17.5377 42.2819L27.5352 42.0547L37.5326 41.8275C37.5723 43.5739 37.0101 45.6 35.5919 47.2856C34.36 48.7498 33.0401 49.2896 32.6375 49.4356C32.2056 49.5923 32.0831 49.5641 32.5185 49.5155C32.9104 49.4717 33.5452 49.4336 34.4961 49.4336V39.4336ZM27.5352 42.0547L17.5379 41.8222C17.4741 44.5629 18.3414 47.3821 20.3073 49.7045C22.0847 51.8043 24.2321 52.8764 25.7781 53.4445C28.6799 54.5107 31.924 54.6758 34.4961 54.6758V44.6758V34.6758C33.5617 34.6758 32.9377 34.6362 32.5561 34.5921C32.1327 34.5432 32.2517 34.5158 32.676 34.6717C33.0673 34.8155 34.3579 35.3478 35.5727 36.7829C36.9759 38.4407 37.5747 40.4703 37.5325 42.2872L27.5352 42.0547ZM34.4961 44.6758V54.6758C37.0966 54.6758 40.3304 54.5082 43.2229 53.4648C44.7583 52.9109 46.878 51.8732 48.6605 49.8449C50.6334 47.5998 51.5859 44.8269 51.5859 42.0547H41.5859H31.5859C31.5859 40.2063 32.2484 38.2229 33.6372 36.6426C34.8356 35.2789 36.0772 34.781 36.4363 34.6514C36.8303 34.5093 36.921 34.5405 36.482 34.5906C36.0829 34.6361 35.443 34.6758 34.4961 34.6758V44.6758ZM41.5859 42.0547H51.5859C51.5859 39.3294 50.6702 36.547 48.6802 34.2689C46.8799 32.2078 44.7311 31.1656 43.1848 30.6148C40.2903 29.5839 37.0506 29.4336 34.4961 29.4336V39.4336V49.4336C35.4593 49.4336 36.11 49.4718 36.5191 49.5169C36.97 49.5667 36.8758 49.5985 36.4744 49.4555C36.1044 49.3237 34.8337 48.8186 33.6175 47.4262C32.2117 45.8167 31.5859 43.8347 31.5859 42.0547H41.5859ZM37.5469 12.1055H27.5469V17.6055H37.5469H47.5469V12.1055L37.5469 12.1055ZM37.5469 17.6055V7.60547H30.3711V17.6055V27.6055H37.5469V17.6055ZM30.3711 17.6055L20.4234 18.6271C21.2149 26.334 26.0513 33.7964 35.8653 36.9958L38.9648 27.4883L42.0644 17.9808C41.3925 17.7617 40.9976 17.541 40.7876 17.3996C40.5836 17.2624 40.505 17.1678 40.4822 17.1389C40.4599 17.1105 40.36 16.9857 40.3188 16.5838L30.3711 17.6055ZM38.9648 27.4883L30.4506 22.2435L27.142 27.6146L35.6562 32.8594L44.1705 38.1041L47.4791 32.7331L38.9648 27.4883ZM35.6562 32.8594L38.6005 23.3026C37.672 23.0166 37.0914 22.6575 36.7042 22.3354C36.3103 22.0078 35.9532 21.5818 35.6334 20.9934L26.8477 25.7695L18.0619 30.5457C20.9947 35.9405 25.8526 40.3029 32.712 42.4161L35.6562 32.8594ZM26.8477 25.7695L17.7995 21.5116C17.1962 22.7935 16.2968 23.7473 14.4846 24.3344L17.5664 33.8477L20.6482 43.3609C27.9883 40.9831 33.0616 36.0503 35.8958 30.0275L26.8477 25.7695ZM17.5664 33.8477L25.9373 28.3769L22.3709 22.9199L14 28.3906L5.62914 33.8613L9.19555 39.3184L17.5664 33.8477ZM14 28.3906L17.036 37.9186C27.6926 34.523 32.3297 26.2539 33.1017 18.6105L23.1523 17.6055L13.203 16.6005C13.1365 17.2589 12.9531 17.6219 12.8079 17.8144C12.7181 17.9335 12.3348 18.4258 10.964 18.8626L14 28.3906ZM23.1523 17.6055V7.60547H15.9336V17.6055V27.6055H23.1523V17.6055ZM15.9336 17.6055H25.9336V12.1055H15.9336H5.93359L5.93359 17.6055H15.9336ZM15.9336 12.1055V22.1055H37.5469V12.1055V2.10547L15.9336 2.10547V12.1055ZM86.1445 10H96.1445C96.1445 4.47715 91.6674 0 86.1445 0V10ZM86.1445 49.875V59.875C91.6674 59.875 96.1445 55.3978 96.1445 49.875H86.1445ZM79.2695 49.875H69.2695C69.2695 55.3978 73.7467 59.875 79.2695 59.875V49.875ZM79.2695 10V0C73.7467 0 69.2695 4.47715 69.2695 10H79.2695ZM73.6836 13.1367L83.6836 13.1367C83.6836 7.61387 79.2064 3.13672 73.6836 3.13672V13.1367ZM73.6836 29.207V39.207C79.2064 39.207 83.6836 34.7299 83.6836 29.207H73.6836ZM61.6953 29.207V19.207C56.1725 19.207 51.6953 23.6842 51.6953 29.207H61.6953ZM61.6953 35.1367H51.6953C51.6953 37.8086 52.7645 40.3693 54.6645 42.2478C56.5645 44.1264 59.1373 45.1664 61.8089 45.1361L61.6953 35.1367ZM77.0781 33.8906L87.0277 32.888C86.7499 30.1315 85.341 27.6137 83.137 25.9351C80.933 24.2565 78.1313 23.5675 75.4001 24.0324L77.0781 33.8906ZM77.6367 39.4336L79.4626 49.2655C84.5759 48.3159 88.1078 43.6054 87.5863 38.4309L77.6367 39.4336ZM54.5625 40.7656H44.5625C44.5625 46.2885 49.0397 50.7656 54.5625 50.7656V40.7656ZM54.5625 23.8359V13.8359C49.0397 13.8359 44.5625 18.3131 44.5625 23.8359H54.5625ZM66.6367 23.8359V33.8359C72.1596 33.8359 76.6367 29.3588 76.6367 23.8359H66.6367ZM66.6367 18.6367H76.6367C76.6367 13.1139 72.1596 8.63672 66.6367 8.63672V18.6367ZM54.5625 18.6367H44.5625C44.5625 24.1596 49.0397 28.6367 54.5625 28.6367V18.6367ZM54.5625 13.1367V3.13672C49.0397 3.13672 44.5625 7.61387 44.5625 13.1367H54.5625ZM86.1445 10H76.1445V49.875H86.1445H96.1445V10H86.1445ZM86.1445 49.875V39.875H79.2695V49.875V59.875H86.1445V49.875ZM79.2695 49.875H89.2695V10H79.2695H69.2695V49.875H79.2695ZM79.2695 10V20H86.1445V10V0L79.2695 0V10ZM73.6836 13.1367H63.6836V29.207H73.6836H83.6836V13.1367L73.6836 13.1367ZM73.6836 29.207V19.207H61.6953V29.207V39.207H73.6836V29.207ZM61.6953 29.207H51.6953V35.1367H61.6953H71.6953V29.207H61.6953ZM61.6953 35.1367L61.8089 45.1361C67.834 45.0676 73.0453 44.7209 78.7561 43.7488L77.0781 33.8906L75.4001 24.0324C71.0133 24.7791 66.9003 25.0769 61.5817 25.1374L61.6953 35.1367ZM77.0781 33.8906L67.1285 34.8933L67.6871 40.4363L77.6367 39.4336L87.5863 38.4309L87.0277 32.888L77.0781 33.8906ZM77.6367 39.4336L75.8108 29.6017C70.731 30.5451 65.6811 30.7656 58.3008 30.7656V40.7656V50.7656C65.9595 50.7656 72.5112 50.5565 79.4626 49.2655L77.6367 39.4336ZM58.3008 40.7656V30.7656H54.5625V40.7656V50.7656H58.3008V40.7656ZM54.5625 40.7656H64.5625V23.8359H54.5625H44.5625V40.7656H54.5625ZM54.5625 23.8359V33.8359H66.6367V23.8359V13.8359H54.5625V23.8359ZM66.6367 23.8359H76.6367V18.6367H66.6367H56.6367V23.8359H66.6367ZM66.6367 18.6367V8.63672H54.5625V18.6367V28.6367H66.6367V18.6367ZM54.5625 18.6367H64.5625V13.1367H54.5625H44.5625V18.6367H54.5625ZM54.5625 13.1367V23.1367H73.6836V13.1367V3.13672L54.5625 3.13672V13.1367ZM134.656 13.8672H144.656C144.656 8.34434 140.179 3.86719 134.656 3.86719V13.8672ZM134.656 19.3242V29.3242C140.179 29.3242 144.656 24.8471 144.656 19.3242H134.656ZM101.785 19.3242H91.7852C91.7852 24.8471 96.2623 29.3242 101.785 29.3242V19.3242ZM101.785 13.8672V3.86719C96.2623 3.86719 91.7852 8.34434 91.7852 13.8672H101.785ZM114.848 13.8672V23.8672C120.371 23.8672 124.848 19.39 124.848 13.8672H114.848ZM114.848 10.0859V0.0859375C109.325 0.0859375 104.848 4.56309 104.848 10.0859L114.848 10.0859ZM121.68 10.0859H131.68C131.68 4.56309 127.203 0.0859375 121.68 0.0859375V10.0859ZM121.68 13.8672H111.68C111.68 19.39 116.157 23.8672 121.68 23.8672V13.8672ZM136.461 35.6523L146.461 35.6523C146.461 30.1295 141.984 25.6523 136.461 25.6523V35.6523ZM136.461 41.1953V51.1953C141.984 51.1953 146.461 46.7182 146.461 41.1953L136.461 41.1953ZM121.68 41.1953V31.1953C116.157 31.1953 111.68 35.6725 111.68 41.1953H121.68ZM121.68 49.7891V59.7891C127.203 59.7891 131.68 55.3119 131.68 49.7891H121.68ZM114.848 49.7891H104.848C104.848 55.3119 109.325 59.7891 114.848 59.7891V49.7891ZM114.848 41.1953H124.848C124.848 35.6725 120.371 31.1953 114.848 31.1953V41.1953ZM100.152 41.1953H90.1523C90.1523 46.7182 94.6295 51.1953 100.152 51.1953V41.1953ZM100.152 35.6523V25.6523C94.6295 25.6523 90.1523 30.1295 90.1523 35.6523H100.152ZM132.465 27.3594L142.464 27.4555C142.465 27.3917 142.465 27.3279 142.464 27.2641L132.465 27.3594ZM104.105 27.3594L114.105 27.4555C114.106 27.3917 114.106 27.3279 114.105 27.2641L104.105 27.3594ZM125.289 27.3594L135.284 27.6717C135.291 27.4667 135.291 27.2615 135.284 27.0565L125.289 27.3594ZM134.656 13.8672H124.656V19.3242H134.656H144.656V13.8672H134.656ZM134.656 19.3242V9.32422L101.785 9.32422V19.3242V29.3242H134.656V19.3242ZM101.785 19.3242H111.785V13.8672H101.785H91.7852V19.3242H101.785ZM101.785 13.8672V23.8672H114.848V13.8672V3.86719H101.785V13.8672ZM114.848 13.8672H124.848V10.0859H114.848L104.848 10.0859V13.8672H114.848ZM114.848 10.0859V20.0859H121.68V10.0859V0.0859375L114.848 0.0859375V10.0859ZM121.68 10.0859H111.68V13.8672H121.68H131.68V10.0859H121.68ZM121.68 13.8672V23.8672H134.656V13.8672V3.86719L121.68 3.86719V13.8672ZM136.461 35.6523H126.461V41.1953H136.461L146.461 41.1953V35.6523L136.461 35.6523ZM136.461 41.1953V31.1953H121.68V41.1953V51.1953H136.461V41.1953ZM121.68 41.1953H111.68V49.7891H121.68H131.68V41.1953H121.68ZM121.68 49.7891V39.7891H114.848V49.7891V59.7891H121.68V49.7891ZM114.848 49.7891H124.848V41.1953H114.848H104.848V49.7891H114.848ZM114.848 41.1953V31.1953H100.152V41.1953V51.1953H114.848V41.1953ZM100.152 41.1953H110.152V35.6523H100.152H90.1523V41.1953H100.152ZM100.152 35.6523V45.6523H136.461V35.6523V25.6523H100.152V35.6523ZM118.285 20.4414V30.4414C120.052 30.4414 121.46 30.5635 122.532 30.746C123.629 30.9327 124.181 31.1502 124.35 31.2308C124.518 31.3114 124.026 31.1186 123.462 30.3641C122.815 29.4988 122.475 28.4249 122.465 27.4546L132.465 27.3594L142.464 27.2641C142.396 20.0857 137.733 15.4604 132.975 13.1861C128.6 11.0954 123.351 10.4414 118.285 10.4414V20.4414ZM132.465 27.3594L122.465 27.2632C122.475 26.2621 122.827 25.183 123.468 24.3276C124.027 23.5827 124.509 23.3954 124.334 23.4795C124.16 23.5628 123.605 23.7819 122.514 23.9699C121.446 24.1537 120.043 24.2773 118.285 24.2773V34.2773V44.2773C123.374 44.2773 128.622 43.6067 132.991 41.5088C137.71 39.2427 142.395 34.632 142.464 27.4555L132.465 27.3594ZM118.285 34.2773V24.2773C116.501 24.2773 115.079 24.1531 113.998 23.9681C112.892 23.7788 112.338 23.5589 112.172 23.4795C112.004 23.3988 112.52 23.603 113.102 24.3923C113.771 25.3006 114.115 26.4309 114.105 27.4555L104.105 27.3594L94.1059 27.2632C94.036 34.539 98.7637 39.2272 103.515 41.5088C107.894 43.6113 113.171 44.2773 118.285 44.2773V34.2773ZM104.105 27.3594L114.105 27.2641C114.114 28.2568 113.783 29.3814 113.108 30.2993C112.521 31.0983 111.995 31.308 112.156 31.2308C112.317 31.1541 112.869 30.9357 113.98 30.7477C115.064 30.5641 116.492 30.4414 118.285 30.4414V20.4414V10.4414C113.193 10.4414 107.915 11.0909 103.531 13.1861C98.74 15.4763 94.0366 20.1789 94.1059 27.4546L104.105 27.3594ZM118.285 25.4687V15.4687C115.812 15.4687 112.907 15.5547 110.409 16.1999C109.152 16.5243 106.984 17.2318 105.007 18.9866C102.619 21.1058 101.238 24.1124 101.238 27.3594H111.238H121.238C121.238 28.4528 121.027 29.7152 120.45 30.992C119.874 32.2657 119.074 33.2426 118.282 33.9449C116.854 35.2122 115.521 35.5358 115.409 35.5647C115.173 35.6258 115.243 35.5818 115.842 35.5371C116.397 35.4958 117.186 35.4688 118.285 35.4688V25.4687ZM111.238 27.3594H101.238C101.238 30.7032 102.706 33.717 105.1 35.7893C107.072 37.4963 109.219 38.1797 110.451 38.4922C112.923 39.1189 115.802 39.207 118.285 39.207V29.207V19.207C117.187 19.207 116.394 19.18 115.835 19.1388C115.232 19.0943 115.147 19.0499 115.366 19.1055C115.455 19.1279 116.766 19.4353 118.189 20.667C118.981 21.3524 119.805 22.3242 120.405 23.6159C121.01 24.9163 121.238 26.2171 121.238 27.3594H111.238ZM118.285 29.207V39.207C120.737 39.207 123.593 39.1179 126.06 38.4894C127.3 38.1736 129.398 37.4966 131.34 35.8439C133.667 33.8638 135.181 30.9681 135.284 27.6717L125.289 27.3594L115.294 27.047C115.329 25.915 115.593 24.6561 116.204 23.4157C116.809 22.1861 117.613 21.2637 118.379 20.6124C119.762 19.435 121.022 19.134 121.123 19.1083C121.343 19.0524 121.263 19.0957 120.677 19.1395C120.133 19.1801 119.359 19.207 118.285 19.207V29.207ZM125.289 27.3594L135.284 27.0565C135.187 23.8517 133.758 20.9587 131.434 18.931C129.486 17.2314 127.366 16.5305 126.103 16.2028C123.609 15.5557 120.727 15.4687 118.285 15.4687V25.4687V35.4688C119.36 35.4688 120.13 35.4957 120.669 35.5364C121.252 35.5804 121.317 35.6232 121.081 35.5619C120.956 35.5296 119.674 35.2127 118.285 34.0005C117.519 33.3325 116.737 32.4042 116.156 31.1897C115.571 29.9696 115.326 28.7464 115.294 27.6623L125.289 27.3594ZM179.559 10H189.559C189.559 4.47715 185.081 0 179.559 0V10ZM179.559 17.0898H169.559C169.559 22.6127 174.036 27.0898 179.559 27.0898V17.0898ZM184.5 17.0898H194.5C194.5 11.567 190.023 7.08984 184.5 7.08984V17.0898ZM184.5 22.7617V32.7617C190.023 32.7617 194.5 28.2846 194.5 22.7617H184.5ZM179.559 22.7617V12.7617C174.036 12.7617 169.559 17.2389 169.559 22.7617H179.559ZM179.559 29.6367V39.6367C185.081 39.6367 189.559 35.1596 189.559 29.6367H179.559ZM172.641 29.6367H162.641C162.641 35.1596 167.118 39.6367 172.641 39.6367V29.6367ZM172.641 10V0C167.118 0 162.641 4.47715 162.641 10H172.641ZM168.129 11.6328L178.129 11.6328C178.129 6.10997 173.652 1.63281 168.129 1.63281V11.6328ZM168.129 28.5625V38.5625C173.652 38.5625 178.129 34.0853 178.129 28.5625H168.129ZM148.621 28.5625L138.621 28.5625C138.621 34.0853 143.098 38.5625 148.621 38.5625V28.5625ZM148.621 11.6328V1.63281C143.098 1.63281 138.621 6.10997 138.621 11.6328H148.621ZM155.453 17.0469V7.04687C149.93 7.04687 145.453 11.524 145.453 17.0469H155.453ZM155.453 23.1484H145.453C145.453 28.6713 149.93 33.1484 155.453 33.1484V23.1484ZM161.297 23.1484V33.1484C166.82 33.1484 171.297 28.6713 171.297 23.1484H161.297ZM161.297 17.0469H171.297C171.297 11.524 166.82 7.04687 161.297 7.04687V17.0469ZM179.559 31.0117H189.559C189.559 25.4889 185.081 21.0117 179.559 21.0117V31.0117ZM179.559 42.6133V52.6133C185.081 52.6133 189.559 48.1361 189.559 42.6133H179.559ZM159.406 42.6133V32.6133C153.883 32.6133 149.406 37.0904 149.406 42.6133H159.406ZM159.406 44.0312H149.406C149.406 49.5541 153.883 54.0312 159.406 54.0312V44.0312ZM180.504 44.0312H190.504C190.504 38.5084 186.027 34.0312 180.504 34.0312V44.0312ZM180.504 49.4023V59.4023C186.027 59.4023 190.504 54.9252 190.504 49.4023H180.504ZM152.574 49.4023H142.574C142.574 54.9252 147.051 59.4023 152.574 59.4023V49.4023ZM152.574 37.6719V27.6719C147.051 27.6719 142.574 32.149 142.574 37.6719H152.574ZM172.684 37.6719V47.6719C178.206 47.6719 182.684 43.1947 182.684 37.6719H172.684ZM172.684 36.2539H182.684C182.684 30.7311 178.206 26.2539 172.684 26.2539V36.2539ZM152.574 36.2539H142.574C142.574 41.7768 147.051 46.2539 152.574 46.2539V36.2539ZM152.574 31.0117V21.0117C147.051 21.0117 142.574 25.4889 142.574 31.0117H152.574ZM179.559 10L169.559 10V17.0898H179.559H189.559V10H179.559ZM179.559 17.0898V27.0898H184.5V17.0898V7.08984H179.559V17.0898ZM184.5 17.0898H174.5V22.7617H184.5H194.5V17.0898H184.5ZM184.5 22.7617V12.7617H179.559V22.7617V32.7617H184.5V22.7617ZM179.559 22.7617H169.559V29.6367H179.559H189.559V22.7617H179.559ZM179.559 29.6367V19.6367H172.641V29.6367V39.6367H179.559V29.6367ZM172.641 29.6367H182.641V10L172.641 10H162.641V29.6367H172.641ZM172.641 10V20H179.559V10V0H172.641V10ZM168.129 11.6328H158.129V28.5625H168.129H178.129V11.6328L168.129 11.6328ZM168.129 28.5625V18.5625H148.621V28.5625V38.5625H168.129V28.5625ZM148.621 28.5625H158.621V11.6328H148.621H138.621V28.5625L148.621 28.5625ZM148.621 11.6328V21.6328H168.129V11.6328V1.63281L148.621 1.63281V11.6328ZM155.453 17.0469H145.453V23.1484H155.453H165.453V17.0469H155.453ZM155.453 23.1484V33.1484H161.297V23.1484V13.1484H155.453V23.1484ZM161.297 23.1484H171.297V17.0469H161.297H151.297V23.1484H161.297ZM161.297 17.0469V7.04687H155.453V17.0469V27.0469H161.297V17.0469ZM179.559 31.0117H169.559V42.6133H179.559H189.559V31.0117H179.559ZM179.559 42.6133V32.6133H159.406V42.6133V52.6133H179.559V42.6133ZM159.406 42.6133H149.406V44.0312H159.406H169.406V42.6133H159.406ZM159.406 44.0312V54.0312H180.504V44.0312V34.0312H159.406V44.0312ZM180.504 44.0312H170.504V49.4023H180.504H190.504V44.0312H180.504ZM180.504 49.4023V39.4023H152.574V49.4023V59.4023H180.504V49.4023ZM152.574 49.4023H162.574V37.6719H152.574H142.574V49.4023H152.574ZM152.574 37.6719V47.6719H172.684V37.6719V27.6719H152.574V37.6719ZM172.684 37.6719H182.684V36.2539H172.684H162.684V37.6719H172.684ZM172.684 36.2539V26.2539H152.574V36.2539V46.2539H172.684V36.2539ZM152.574 36.2539H162.574V31.0117H152.574H142.574V36.2539H152.574ZM152.574 31.0117V41.0117H179.559V31.0117V21.0117H152.574V31.0117ZM217.5 10H227.5C227.5 4.47715 223.023 0 217.5 0V10ZM217.5 25.082H207.5C207.5 30.6049 211.977 35.082 217.5 35.082V25.082ZM222.871 25.082H232.871C232.871 19.5592 228.394 15.082 222.871 15.082V25.082ZM222.871 30.7109V40.7109C228.394 40.7109 232.871 36.2338 232.871 30.7109H222.871ZM217.5 30.7109V20.7109C211.977 20.7109 207.5 25.1881 207.5 30.7109H217.5ZM217.5 49.7461V59.7461C223.023 59.7461 227.5 55.2689 227.5 49.7461H217.5ZM210.668 49.7461H200.668C200.668 55.2689 205.145 59.7461 210.668 59.7461V49.7461ZM210.668 10V0C205.145 0 200.668 4.47715 200.668 10H210.668ZM208.734 15.6719H218.734C218.734 10.149 214.257 5.67187 208.734 5.67187V15.6719ZM208.734 21.1289V31.1289C214.257 31.1289 218.734 26.6518 218.734 21.1289H208.734ZM185.574 21.1289H175.574C175.574 26.6518 180.051 31.1289 185.574 31.1289V21.1289ZM185.574 15.6719V5.67187C180.051 5.67187 175.574 10.149 175.574 15.6719H185.574ZM193.781 15.6719V25.6719C199.304 25.6719 203.781 21.1947 203.781 15.6719H193.781ZM193.781 10.7305V0.730469C188.258 0.730469 183.781 5.20762 183.781 10.7305H193.781ZM200.656 10.7305H210.656C210.656 5.20762 206.179 0.730469 200.656 0.730469V10.7305ZM200.656 15.6719H190.656C190.656 21.1947 195.133 25.6719 200.656 25.6719V15.6719ZM193.395 32.3437L203.393 32.4976C203.395 32.3926 203.395 32.2875 203.393 32.1825L193.395 32.3437ZM217.5 10H207.5V25.082H217.5H227.5V10H217.5ZM217.5 25.082V35.082H222.871V25.082V15.082H217.5V25.082ZM222.871 25.082H212.871V30.7109H222.871H232.871V25.082H222.871ZM222.871 30.7109V20.7109H217.5V30.7109V40.7109H222.871V30.7109ZM217.5 30.7109H207.5V49.7461H217.5H227.5V30.7109H217.5ZM217.5 49.7461V39.7461H210.668V49.7461V59.7461H217.5V49.7461ZM210.668 49.7461H220.668V10H210.668H200.668V49.7461H210.668ZM210.668 10V20H217.5V10V0L210.668 0V10ZM208.734 15.6719L198.734 15.6719V21.1289L208.734 21.1289H218.734V15.6719H208.734ZM208.734 21.1289V11.1289H185.574V21.1289V31.1289H208.734V21.1289ZM185.574 21.1289H195.574V15.6719H185.574H175.574V21.1289H185.574ZM185.574 15.6719V25.6719H193.781V15.6719V5.67187H185.574V15.6719ZM193.781 15.6719H203.781V10.7305H193.781H183.781V15.6719H193.781ZM193.781 10.7305V20.7305H200.656V10.7305V0.730469H193.781V10.7305ZM200.656 10.7305H190.656V15.6719H200.656L210.656 15.6719V10.7305H200.656ZM200.656 15.6719V25.6719L208.734 25.6719V15.6719V5.67187H200.656V15.6719ZM197.219 22.6758V32.6758C197.545 32.6758 197.743 32.7311 197.832 32.7641C197.921 32.7974 197.914 32.8128 197.858 32.7608C197.798 32.7055 197.722 32.6106 197.667 32.4862C197.61 32.3569 197.617 32.29 197.617 32.3437H207.617H217.617C217.617 20.4166 207.82 12.6758 197.219 12.6758V22.6758ZM207.617 32.3437H197.617C197.617 32.4188 197.606 32.3657 197.66 32.2435C197.711 32.1256 197.785 32.0317 197.846 31.9749C197.904 31.9214 197.913 31.9351 197.827 31.9673C197.742 31.9994 197.545 32.0547 197.219 32.0547V42.0547V52.0547C207.85 52.0547 217.617 44.2857 217.617 32.3437H207.617ZM197.219 42.0547V32.0547C196.835 32.0547 196.613 31.9911 196.525 31.9582C196.437 31.9257 196.458 31.9166 196.532 31.9846C196.609 32.056 196.689 32.1625 196.741 32.2831C196.794 32.4057 196.777 32.4461 196.777 32.3437H186.777H176.777C176.777 44.2597 186.43 52.0547 197.219 52.0547V42.0547ZM186.777 32.3437H196.777C196.777 32.2625 196.79 32.3167 196.733 32.4465C196.678 32.5737 196.596 32.6813 196.521 32.751C196.448 32.8175 196.429 32.8068 196.52 32.7732C196.612 32.7394 196.835 32.6758 197.219 32.6758V22.6758V12.6758C186.461 12.6758 176.777 20.4426 176.777 32.3437H186.777ZM197.219 28.2187V18.2187C193.905 18.2187 190.184 19.3418 187.3 22.2942C184.395 25.2668 183.34 29.0654 183.396 32.505L193.395 32.3437L203.393 32.1825C203.406 32.958 203.146 34.6941 201.606 36.2703C200.086 37.8262 198.298 38.2187 197.219 38.2187V28.2187ZM193.395 32.3437L183.396 32.1899C183.344 35.5736 184.332 39.4751 187.382 42.5247C190.383 45.5265 194.152 46.4687 197.219 46.4687V36.4687V26.4687C198.051 26.4687 199.886 26.745 201.524 28.3825C203.209 30.0678 203.402 31.9069 203.393 32.4976L193.395 32.3437ZM197.219 36.4687V46.4687C200.332 46.4687 204.089 45.4854 207.058 42.4683C210.031 39.448 211 35.6263 211 32.3437H201H191C191 31.8542 191.174 30.095 192.804 28.4389C194.431 26.7861 196.297 26.4687 197.219 26.4687V36.4687ZM201 32.3437H211C211 29.0131 209.971 25.2955 207.139 22.3511C204.291 19.3886 200.583 18.2187 197.219 18.2187V28.2187V38.2187C196.046 38.2187 194.229 37.7793 192.723 36.2133C191.234 34.6654 191 33.0104 191 32.3437H201ZM256.172 20.0977H266.172C266.172 14.5748 261.695 10.0977 256.172 10.0977V20.0977ZM256.172 25.4258V35.4258C261.695 35.4258 266.172 30.9486 266.172 25.4258H256.172ZM228.07 25.4258H218.07C218.07 30.9486 222.547 35.4258 228.07 35.4258V25.4258ZM228.07 11.418V1.41797C222.547 1.41797 218.07 5.89512 218.07 11.418H228.07ZM234.945 11.418L244.945 11.418C244.945 5.89512 240.468 1.41797 234.945 1.41797V11.418ZM234.945 20.0977H224.945C224.945 25.6205 229.422 30.0977 234.945 30.0977V20.0977ZM260.082 28.9492H270.082C270.082 23.4264 265.605 18.9492 260.082 18.9492V28.9492ZM260.082 34.2773V44.2773C265.605 44.2773 270.082 39.8002 270.082 34.2773H260.082ZM223.816 34.2773H213.816C213.816 39.8002 218.294 44.2773 223.816 44.2773V34.2773ZM223.816 28.9492V18.9492C218.294 18.9492 213.816 23.4264 213.816 28.9492H223.816ZM256.43 43.4727H266.43C266.43 37.9498 261.953 33.4727 256.43 33.4727V43.4727ZM256.43 48.9727V58.9727C261.953 58.9727 266.43 54.4955 266.43 48.9727H256.43ZM227.598 48.9727H217.598C217.598 54.4955 222.075 58.9727 227.598 58.9727V48.9727ZM227.598 37.0273V27.0273C222.075 27.0273 217.598 31.5045 217.598 37.0273H227.598ZM234.559 37.0273H244.559C244.559 31.5045 240.081 27.0273 234.559 27.0273V37.0273ZM234.559 43.4727H224.559C224.559 48.9955 229.036 53.4727 234.559 53.4727V43.4727ZM256.172 20.0977H246.172V25.4258H256.172H266.172V20.0977H256.172ZM256.172 25.4258V15.4258H228.07V25.4258V35.4258H256.172V25.4258ZM228.07 25.4258H238.07V11.418L228.07 11.418H218.07V25.4258H228.07ZM228.07 11.418V21.418H234.945V11.418V1.41797H228.07V11.418ZM234.945 11.418H224.945V20.0977H234.945H244.945V11.418L234.945 11.418ZM234.945 20.0977V30.0977H256.172V20.0977V10.0977L234.945 10.0977V20.0977ZM260.082 28.9492H250.082V34.2773H260.082H270.082V28.9492H260.082ZM260.082 34.2773V24.2773H223.816V34.2773V44.2773H260.082V34.2773ZM223.816 34.2773H233.816V28.9492H223.816H213.816V34.2773H223.816ZM223.816 28.9492V38.9492H260.082V28.9492V18.9492H223.816V28.9492ZM256.43 43.4727H246.43V48.9727H256.43H266.43V43.4727H256.43ZM256.43 48.9727V38.9727H227.598V48.9727V58.9727H256.43V48.9727ZM227.598 48.9727H237.598V37.0273H227.598H217.598V48.9727H227.598ZM227.598 37.0273V47.0273H234.559V37.0273V27.0273H227.598V37.0273ZM234.559 37.0273H224.559V43.4727H234.559H244.559V37.0273H234.559ZM234.559 43.4727V53.4727H256.43V43.4727V33.4727H234.559V43.4727Z" fill="white" mask="url(#path-1-outside-1_6526_5715)"/>
</g>
<defs>
<filter id="filter0_d_6526_5715" x="0" y="0" width="274.082" height="67.875" filterUnits="userSpaceOnUse" color-interpolation-filters="sRGB">
<feFlood flood-opacity="0" result="BackgroundImageFix"/>
<feColorMatrix in="SourceAlpha" type="matrix" values="0 0 0 0 0 0 0 0 0 0 0 0 0 0 0 0 0 0 127 0" result="hardAlpha"/>
<feOffset dy="4"/>
<feGaussianBlur stdDeviation="2"/>
<feComposite in2="hardAlpha" operator="out"/>
<feColorMatrix type="matrix" values="0 0 0 0 0 0 0 0 0 0 0 0 0 0 0 0 0 0 0.07 0"/>
<feBlend mode="normal" in2="BackgroundImageFix" result="effect1_dropShadow_6526_5715"/>
<feBlend mode="normal" in="SourceGraphic" in2="effect1_dropShadow_6526_5715" result="shape"/>
</filter>
</defs>
</svg>
