<svg width="313" height="68" viewBox="0 0 313 68" fill="none" xmlns="http://www.w3.org/2000/svg">
<g filter="url(#filter0_d_6524_1760)">
<mask id="path-1-outside-1_6524_1760" maskUnits="userSpaceOnUse" x="3.61328" y="-0.507813" width="305" height="61" fill="black">
<rect fill="white" x="3.61328" y="-0.507813" width="305" height="61"/>
<path d="M48.332 10V33.5898H41.457V24.8242H36.4727V19.2812H41.457V10L48.332 10ZM34.4961 34.2344C43.1328 34.2344 48.418 37.1133 48.418 42.0547C48.418 46.9531 43.1328 49.875 34.4961 49.875C25.9453 49.875 20.6602 46.9531 20.6602 42.0547C20.6602 37.1133 25.9453 34.2344 34.4961 34.2344ZM34.4961 39.4336C29.7695 39.4336 27.4922 40.1641 27.5352 42.0547C27.4922 43.9023 29.7695 44.6758 34.4961 44.6758C39.2656 44.6758 41.5859 43.9023 41.5859 42.0547C41.5859 40.1641 39.2656 39.4336 34.4961 39.4336ZM37.5469 12.1055V17.6055H30.3711C30.7793 21.5801 33.0996 25.5762 38.9648 27.4883L35.6562 32.8594C31.4023 31.5488 28.5879 28.9707 26.8477 25.7695C25.1289 29.4219 22.1426 32.3652 17.5664 33.8477L14 28.3906C20.3379 26.3711 22.7227 21.8594 23.1523 17.6055H15.9336V12.1055H37.5469ZM88.8516 39.9062V45.4492H52.543V39.9062H67.2383V33.332H56.1094V12.3633H63.0273V17.9062L78.1953 17.9062V12.3633H85.0703V33.332H74.0703V39.9062H88.8516ZM63.0273 27.875L78.1953 27.875V23.3203L63.0273 23.3203V27.875ZM121.938 12.75C121.938 16.875 125.117 22.2461 135.43 23.4922L132.766 28.9922C125.568 28.0469 120.842 25.0391 118.285 21.0859C115.707 25.0176 111.045 28.0469 103.934 28.9922L101.27 23.4922C111.496 22.2461 114.676 16.7891 114.676 12.75V11.0312H121.938V12.75ZM136.418 31.1406V36.7266H121.551V49.7461H114.719V36.7266H100.152V31.1406H136.418ZM161.641 11.9336V17.3906H154.551C155.131 20.8496 157.58 24.3516 163.488 25.8125L160.051 31.1836C155.668 30.002 152.725 27.5742 150.984 24.4805C149.18 27.8535 146.129 30.5391 141.531 31.8711L138.051 26.5C144.174 24.8242 146.666 21.1074 147.289 17.3906H139.898V11.9336H161.641ZM171.695 10V31.6133H164.777V10H171.695ZM151.414 33.0742V36.125H164.82V33.0742H171.695V49.4023H144.625V33.0742H151.414ZM151.414 43.9023H164.82V41.3672H151.414V43.9023ZM209.766 10V49.875H202.805V10H209.766ZM187.938 12.6641C193.996 12.6211 198.551 18.207 198.551 26.9727C198.551 35.8672 193.996 41.4102 187.938 41.4102C181.75 41.4102 177.152 35.8672 177.152 26.9727C177.152 18.207 181.75 12.6211 187.938 12.6641ZM187.938 18.8945C185.402 18.8516 183.812 21.4727 183.812 26.9727C183.812 32.5586 185.402 35.0937 187.938 35.0937C190.301 35.0937 191.934 32.5586 191.934 26.9727C191.934 21.4727 190.301 18.8516 187.938 18.8945ZM257.461 10V24.1797H260.598V29.8516H257.461V49.7461H250.672V10H257.461ZM229.359 13.5234V22.1172H230.305V13.5234H235.848V40.8516H223.773V13.5234H229.359ZM229.359 35.3086H230.305V27.4883H229.359V35.3086ZM242.551 13.5234V22.1172H243.668V13.5234H249.254V40.8516H237.094V13.5234H242.551ZM242.551 35.3086H243.668V27.4883H242.551V35.3086ZM298.109 31.1406V36.6406H261.844V31.1406H298.109ZM294.801 43.6875V49.1875H266.27V38.2305H273.102V43.6875H294.801ZM293.898 10.6445V22.418H273.059V24.2227H294.543V29.3359H266.227V17.5625H287.023V15.9297H266.184V10.6445H293.898Z"/>
</mask>
<path d="M48.332 10V33.5898H41.457V24.8242H36.4727V19.2812H41.457V10L48.332 10ZM34.4961 34.2344C43.1328 34.2344 48.418 37.1133 48.418 42.0547C48.418 46.9531 43.1328 49.875 34.4961 49.875C25.9453 49.875 20.6602 46.9531 20.6602 42.0547C20.6602 37.1133 25.9453 34.2344 34.4961 34.2344ZM34.4961 39.4336C29.7695 39.4336 27.4922 40.1641 27.5352 42.0547C27.4922 43.9023 29.7695 44.6758 34.4961 44.6758C39.2656 44.6758 41.5859 43.9023 41.5859 42.0547C41.5859 40.1641 39.2656 39.4336 34.4961 39.4336ZM37.5469 12.1055V17.6055H30.3711C30.7793 21.5801 33.0996 25.5762 38.9648 27.4883L35.6562 32.8594C31.4023 31.5488 28.5879 28.9707 26.8477 25.7695C25.1289 29.4219 22.1426 32.3652 17.5664 33.8477L14 28.3906C20.3379 26.3711 22.7227 21.8594 23.1523 17.6055H15.9336V12.1055H37.5469ZM88.8516 39.9062V45.4492H52.543V39.9062H67.2383V33.332H56.1094V12.3633H63.0273V17.9062L78.1953 17.9062V12.3633H85.0703V33.332H74.0703V39.9062H88.8516ZM63.0273 27.875L78.1953 27.875V23.3203L63.0273 23.3203V27.875ZM121.938 12.75C121.938 16.875 125.117 22.2461 135.43 23.4922L132.766 28.9922C125.568 28.0469 120.842 25.0391 118.285 21.0859C115.707 25.0176 111.045 28.0469 103.934 28.9922L101.27 23.4922C111.496 22.2461 114.676 16.7891 114.676 12.75V11.0312H121.938V12.75ZM136.418 31.1406V36.7266H121.551V49.7461H114.719V36.7266H100.152V31.1406H136.418ZM161.641 11.9336V17.3906H154.551C155.131 20.8496 157.58 24.3516 163.488 25.8125L160.051 31.1836C155.668 30.002 152.725 27.5742 150.984 24.4805C149.18 27.8535 146.129 30.5391 141.531 31.8711L138.051 26.5C144.174 24.8242 146.666 21.1074 147.289 17.3906H139.898V11.9336H161.641ZM171.695 10V31.6133H164.777V10H171.695ZM151.414 33.0742V36.125H164.82V33.0742H171.695V49.4023H144.625V33.0742H151.414ZM151.414 43.9023H164.82V41.3672H151.414V43.9023ZM209.766 10V49.875H202.805V10H209.766ZM187.938 12.6641C193.996 12.6211 198.551 18.207 198.551 26.9727C198.551 35.8672 193.996 41.4102 187.938 41.4102C181.75 41.4102 177.152 35.8672 177.152 26.9727C177.152 18.207 181.75 12.6211 187.938 12.6641ZM187.938 18.8945C185.402 18.8516 183.812 21.4727 183.812 26.9727C183.812 32.5586 185.402 35.0937 187.938 35.0937C190.301 35.0937 191.934 32.5586 191.934 26.9727C191.934 21.4727 190.301 18.8516 187.938 18.8945ZM257.461 10V24.1797H260.598V29.8516H257.461V49.7461H250.672V10H257.461ZM229.359 13.5234V22.1172H230.305V13.5234H235.848V40.8516H223.773V13.5234H229.359ZM229.359 35.3086H230.305V27.4883H229.359V35.3086ZM242.551 13.5234V22.1172H243.668V13.5234H249.254V40.8516H237.094V13.5234H242.551ZM242.551 35.3086H243.668V27.4883H242.551V35.3086ZM298.109 31.1406V36.6406H261.844V31.1406H298.109ZM294.801 43.6875V49.1875H266.27V38.2305H273.102V43.6875H294.801ZM293.898 10.6445V22.418H273.059V24.2227H294.543V29.3359H266.227V17.5625H287.023V15.9297H266.184V10.6445H293.898Z" fill="#11DCA9"/>
<path d="M48.332 10H58.332C58.332 4.47715 53.8549 0 48.332 0V10ZM48.332 33.5898V43.5898C53.8549 43.5898 58.332 39.1127 58.332 33.5898H48.332ZM41.457 33.5898H31.457C31.457 39.1127 35.9342 43.5898 41.457 43.5898V33.5898ZM41.457 24.8242H51.457C51.457 19.3014 46.9799 14.8242 41.457 14.8242V24.8242ZM36.4727 24.8242H26.4727C26.4727 30.3471 30.9498 34.8242 36.4727 34.8242V24.8242ZM36.4727 19.2812V9.28125C30.9498 9.28125 26.4727 13.7584 26.4727 19.2812H36.4727ZM41.457 19.2812V29.2812C46.9799 29.2812 51.457 24.8041 51.457 19.2812H41.457ZM41.457 10V0C35.9342 0 31.457 4.47715 31.457 10H41.457ZM27.5352 42.0547L37.5325 42.2872C37.536 42.134 37.5361 41.9807 37.5326 41.8275L27.5352 42.0547ZM37.5469 12.1055L47.5469 12.1055C47.5469 6.58262 43.0697 2.10547 37.5469 2.10547V12.1055ZM37.5469 17.6055V27.6055C43.0697 27.6055 47.5469 23.1283 47.5469 17.6055H37.5469ZM30.3711 17.6055V7.60547C27.5411 7.60547 24.8437 8.80453 22.9476 10.9053C21.0515 13.0062 20.1343 15.812 20.4234 18.6271L30.3711 17.6055ZM38.9648 27.4883L47.4791 32.7331C49.0868 30.1232 49.4087 26.9202 48.3525 24.0426C47.2963 21.1651 44.9787 18.9308 42.0644 17.9808L38.9648 27.4883ZM35.6562 32.8594L32.712 42.4161C37.0678 43.7581 41.78 41.9848 44.1705 38.1041L35.6562 32.8594ZM26.8477 25.7695L35.6334 20.9934C33.8333 17.6822 30.3245 15.6643 26.5572 15.7738C22.79 15.8832 19.4042 18.1014 17.7995 21.5116L26.8477 25.7695ZM17.5664 33.8477L9.19555 39.3184C11.6639 43.0953 16.3558 44.7514 20.6482 43.3609L17.5664 33.8477ZM14 28.3906L10.964 18.8626C7.98743 19.8111 5.62515 22.0961 4.57824 25.0394C3.53133 27.9828 3.92009 31.2463 5.62914 33.8613L14 28.3906ZM23.1523 17.6055L33.1017 18.6105C33.3858 15.7977 32.4661 12.9962 30.5702 10.8991C28.6743 8.80207 25.9794 7.60547 23.1523 7.60547V17.6055ZM15.9336 17.6055H5.93359C5.93359 23.1283 10.4107 27.6055 15.9336 27.6055V17.6055ZM15.9336 12.1055V2.10547C10.4107 2.10547 5.93359 6.58262 5.93359 12.1055H15.9336ZM48.332 10L38.332 10V33.5898H48.332H58.332V10H48.332ZM48.332 33.5898V23.5898H41.457V33.5898V43.5898H48.332V33.5898ZM41.457 33.5898H51.457V24.8242H41.457H31.457V33.5898H41.457ZM41.457 24.8242V14.8242H36.4727V24.8242V34.8242H41.457V24.8242ZM36.4727 24.8242H46.4727V19.2812H36.4727H26.4727V24.8242H36.4727ZM36.4727 19.2812V29.2812H41.457V19.2812V9.28125H36.4727V19.2812ZM41.457 19.2812H51.457V10L41.457 10H31.457V19.2812H41.457ZM41.457 10V20H48.332V10V0H41.457V10ZM34.4961 34.2344V44.2344C36.1187 44.2344 37.3879 44.3712 38.3257 44.5616C39.2812 44.7555 39.7286 44.9714 39.8294 45.0275C39.9133 45.0742 39.512 44.8702 39.086 44.2182C38.6175 43.5014 38.418 42.6952 38.418 42.0547H48.418H58.418C58.418 35.2516 54.4645 30.2863 49.5622 27.5555C45.0927 25.0657 39.6993 24.2344 34.4961 24.2344V34.2344ZM48.418 42.0547H38.418C38.418 41.3866 38.6266 40.5745 39.0912 39.865C39.5128 39.2211 39.9055 39.0231 39.8145 39.074C39.7085 39.1333 39.2584 39.3506 38.3073 39.5455C37.3733 39.737 36.1099 39.875 34.4961 39.875V49.875V59.875C39.7223 59.875 45.114 59.0256 49.5771 56.5295C54.4456 53.8066 58.418 48.8554 58.418 42.0547H48.418ZM34.4961 49.875V39.875C32.9097 39.875 31.6668 39.7379 30.7483 39.5484C29.8129 39.3553 29.3714 39.1406 29.2695 39.0834C29.1824 39.0344 29.5725 39.2329 29.9909 39.8732C30.4518 40.5786 30.6602 41.387 30.6602 42.0547H20.6602H10.6602C10.6602 48.8478 14.6239 53.7955 19.4736 56.5201C23.9256 59.0212 29.299 59.875 34.4961 59.875V49.875ZM20.6602 42.0547H30.6602C30.6602 42.6948 30.4609 43.4973 29.9961 44.2101C29.5734 44.8584 29.1747 45.063 29.2546 45.0182C29.3512 44.9642 29.7901 44.7509 30.7297 44.5588C31.6521 44.3702 32.9008 44.2344 34.4961 44.2344V34.2344V24.2344C29.3221 24.2344 23.947 25.07 19.4885 27.5648C14.6049 30.2974 10.6602 35.2592 10.6602 42.0547H20.6602ZM34.4961 39.4336V29.4336C31.9706 29.4336 28.7204 29.5812 25.8166 30.6347C24.2592 31.1997 22.0827 32.2766 20.2881 34.4095C18.3073 36.7637 17.4766 39.5902 17.5377 42.2819L27.5352 42.0547L37.5326 41.8275C37.5723 43.5739 37.0101 45.6 35.5919 47.2856C34.36 48.7498 33.0401 49.2896 32.6375 49.4356C32.2056 49.5923 32.0831 49.5641 32.5185 49.5155C32.9104 49.4717 33.5452 49.4336 34.4961 49.4336V39.4336ZM27.5352 42.0547L17.5379 41.8222C17.4741 44.5629 18.3414 47.3821 20.3073 49.7045C22.0847 51.8043 24.2321 52.8764 25.7781 53.4445C28.6799 54.5107 31.924 54.6758 34.4961 54.6758V44.6758V34.6758C33.5617 34.6758 32.9377 34.6362 32.5561 34.5921C32.1327 34.5432 32.2517 34.5158 32.676 34.6717C33.0673 34.8155 34.3579 35.3478 35.5727 36.7829C36.9759 38.4407 37.5747 40.4703 37.5325 42.2872L27.5352 42.0547ZM34.4961 44.6758V54.6758C37.0966 54.6758 40.3304 54.5082 43.2229 53.4648C44.7583 52.9109 46.878 51.8732 48.6605 49.8449C50.6334 47.5998 51.5859 44.8269 51.5859 42.0547H41.5859H31.5859C31.5859 40.2063 32.2484 38.2229 33.6372 36.6426C34.8356 35.2789 36.0772 34.781 36.4363 34.6514C36.8303 34.5093 36.921 34.5405 36.482 34.5906C36.0829 34.6361 35.443 34.6758 34.4961 34.6758V44.6758ZM41.5859 42.0547H51.5859C51.5859 39.3294 50.6702 36.547 48.6802 34.2689C46.8799 32.2078 44.7311 31.1656 43.1848 30.6148C40.2903 29.5839 37.0506 29.4336 34.4961 29.4336V39.4336V49.4336C35.4593 49.4336 36.11 49.4718 36.5191 49.5169C36.97 49.5667 36.8758 49.5985 36.4744 49.4555C36.1044 49.3237 34.8337 48.8186 33.6175 47.4262C32.2117 45.8167 31.5859 43.8347 31.5859 42.0547H41.5859ZM37.5469 12.1055H27.5469V17.6055H37.5469H47.5469V12.1055L37.5469 12.1055ZM37.5469 17.6055V7.60547H30.3711V17.6055V27.6055H37.5469V17.6055ZM30.3711 17.6055L20.4234 18.6271C21.2149 26.334 26.0513 33.7964 35.8653 36.9958L38.9648 27.4883L42.0644 17.9808C41.3925 17.7617 40.9976 17.541 40.7876 17.3996C40.5836 17.2624 40.505 17.1678 40.4822 17.1389C40.4599 17.1105 40.36 16.9857 40.3188 16.5838L30.3711 17.6055ZM38.9648 27.4883L30.4506 22.2435L27.142 27.6146L35.6562 32.8594L44.1705 38.1041L47.4791 32.7331L38.9648 27.4883ZM35.6562 32.8594L38.6005 23.3026C37.672 23.0166 37.0914 22.6575 36.7042 22.3354C36.3103 22.0078 35.9532 21.5818 35.6334 20.9934L26.8477 25.7695L18.0619 30.5457C20.9947 35.9405 25.8526 40.3029 32.712 42.4161L35.6562 32.8594ZM26.8477 25.7695L17.7995 21.5116C17.1962 22.7935 16.2968 23.7473 14.4846 24.3344L17.5664 33.8477L20.6482 43.3609C27.9883 40.9831 33.0616 36.0503 35.8958 30.0275L26.8477 25.7695ZM17.5664 33.8477L25.9373 28.3769L22.3709 22.9199L14 28.3906L5.62914 33.8613L9.19555 39.3184L17.5664 33.8477ZM14 28.3906L17.036 37.9186C27.6926 34.523 32.3297 26.2539 33.1017 18.6105L23.1523 17.6055L13.203 16.6005C13.1365 17.2589 12.9531 17.6219 12.8079 17.8144C12.7181 17.9335 12.3348 18.4258 10.964 18.8626L14 28.3906ZM23.1523 17.6055V7.60547H15.9336V17.6055V27.6055H23.1523V17.6055ZM15.9336 17.6055H25.9336V12.1055H15.9336H5.93359L5.93359 17.6055H15.9336ZM15.9336 12.1055V22.1055H37.5469V12.1055V2.10547L15.9336 2.10547V12.1055ZM88.8516 39.9062H98.8516C98.8516 34.3834 94.3744 29.9062 88.8516 29.9062V39.9062ZM88.8516 45.4492V55.4492C94.3744 55.4492 98.8516 50.9721 98.8516 45.4492H88.8516ZM52.543 45.4492H42.543C42.543 50.9721 47.0201 55.4492 52.543 55.4492V45.4492ZM52.543 39.9062V29.9062C47.0201 29.9062 42.543 34.3834 42.543 39.9062H52.543ZM67.2383 39.9062V49.9062C72.7611 49.9062 77.2383 45.4291 77.2383 39.9062H67.2383ZM67.2383 33.332H77.2383C77.2383 27.8092 72.7611 23.332 67.2383 23.332V33.332ZM56.1094 33.332H46.1094C46.1094 38.8549 50.5865 43.332 56.1094 43.332V33.332ZM56.1094 12.3633V2.36328C50.5865 2.36328 46.1094 6.84043 46.1094 12.3633H56.1094ZM63.0273 12.3633H73.0273C73.0273 6.84043 68.5502 2.36328 63.0273 2.36328V12.3633ZM63.0273 17.9062H53.0273C53.0273 23.4291 57.5045 27.9062 63.0273 27.9062V17.9062ZM78.1953 17.9062V27.9062C83.7182 27.9062 88.1953 23.4291 88.1953 17.9062H78.1953ZM78.1953 12.3633V2.36328C72.6725 2.36328 68.1953 6.84043 68.1953 12.3633H78.1953ZM85.0703 12.3633H95.0703C95.0703 6.84043 90.5932 2.36328 85.0703 2.36328V12.3633ZM85.0703 33.332V43.332C90.5932 43.332 95.0703 38.8549 95.0703 33.332H85.0703ZM74.0703 33.332V23.332C68.5475 23.332 64.0703 27.8092 64.0703 33.332H74.0703ZM74.0703 39.9062H64.0703C64.0703 45.4291 68.5475 49.9062 74.0703 49.9062V39.9062ZM63.0273 27.875H53.0273C53.0273 33.3978 57.5045 37.875 63.0273 37.875V27.875ZM78.1953 27.875V37.875C83.7182 37.875 88.1953 33.3978 88.1953 27.875H78.1953ZM78.1953 23.3203H88.1953C88.1953 17.7975 83.7182 13.3203 78.1953 13.3203V23.3203ZM63.0273 23.3203V13.3203C57.5045 13.3203 53.0273 17.7975 53.0273 23.3203H63.0273ZM88.8516 39.9062H78.8516V45.4492H88.8516H98.8516V39.9062H88.8516ZM88.8516 45.4492V35.4492H52.543V45.4492V55.4492H88.8516V45.4492ZM52.543 45.4492H62.543V39.9062H52.543H42.543V45.4492H52.543ZM52.543 39.9062V49.9062H67.2383V39.9062V29.9062H52.543V39.9062ZM67.2383 39.9062H77.2383V33.332H67.2383H57.2383V39.9062H67.2383ZM67.2383 33.332V23.332H56.1094V33.332V43.332H67.2383V33.332ZM56.1094 33.332H66.1094V12.3633H56.1094H46.1094V33.332H56.1094ZM56.1094 12.3633V22.3633H63.0273V12.3633V2.36328L56.1094 2.36328V12.3633ZM63.0273 12.3633H53.0273V17.9062H63.0273H73.0273V12.3633H63.0273ZM63.0273 17.9062V27.9062L78.1953 27.9062V17.9062V7.90625H63.0273V17.9062ZM78.1953 17.9062H88.1953V12.3633H78.1953H68.1953V17.9062L78.1953 17.9062ZM78.1953 12.3633V22.3633H85.0703V12.3633V2.36328H78.1953V12.3633ZM85.0703 12.3633H75.0703V33.332H85.0703H95.0703V12.3633H85.0703ZM85.0703 33.332V23.332L74.0703 23.332V33.332V43.332H85.0703V33.332ZM74.0703 33.332H64.0703V39.9062H74.0703H84.0703V33.332H74.0703ZM74.0703 39.9062V49.9062H88.8516V39.9062V29.9062H74.0703V39.9062ZM63.0273 27.875V37.875H78.1953V27.875V17.875L63.0273 17.875V27.875ZM78.1953 27.875H88.1953V23.3203H78.1953L68.1953 23.3203V27.875L78.1953 27.875ZM78.1953 23.3203V13.3203L63.0273 13.3203V23.3203V33.3203H78.1953V23.3203ZM63.0273 23.3203H53.0273V27.875H63.0273H73.0273V23.3203H63.0273ZM135.43 23.4922L144.43 27.8515C145.838 24.9441 145.755 21.5356 144.207 18.7002C142.659 15.8649 139.836 13.9519 136.629 13.5644L135.43 23.4922ZM132.766 28.9922L131.463 38.907C135.736 39.4682 139.887 37.2295 141.765 33.3515L132.766 28.9922ZM118.285 21.0859L126.682 15.6553C124.846 12.8157 121.698 11.0967 118.317 11.086C114.935 11.0753 111.777 12.7744 109.923 15.6024L118.285 21.0859ZM103.934 28.9922L94.9338 33.3515C96.8147 37.2347 100.974 39.4735 105.251 38.905L103.934 28.9922ZM101.27 23.4922L100.06 13.5656C96.855 13.9561 94.0358 15.87 92.4901 18.7046C90.9443 21.5392 90.8623 24.9457 92.2697 27.8515L101.27 23.4922ZM114.676 11.0312V1.03125C109.153 1.03125 104.676 5.5084 104.676 11.0312L114.676 11.0312ZM121.938 11.0312H131.938C131.938 5.5084 127.46 1.03125 121.938 1.03125V11.0312ZM136.418 31.1406L146.418 31.1406C146.418 25.6178 141.941 21.1406 136.418 21.1406V31.1406ZM136.418 36.7266V46.7266C141.941 46.7266 146.418 42.2494 146.418 36.7266L136.418 36.7266ZM121.551 36.7266V26.7266C116.028 26.7266 111.551 31.2037 111.551 36.7266H121.551ZM121.551 49.7461V59.7461C127.074 59.7461 131.551 55.2689 131.551 49.7461H121.551ZM114.719 49.7461H104.719C104.719 55.2689 109.196 59.7461 114.719 59.7461V49.7461ZM114.719 36.7266H124.719C124.719 31.2037 120.242 26.7266 114.719 26.7266V36.7266ZM100.152 36.7266H90.1523C90.1523 42.2494 94.6295 46.7266 100.152 46.7266V36.7266ZM100.152 31.1406V21.1406C94.6295 21.1406 90.1523 25.6178 90.1523 31.1406H100.152ZM121.938 12.75H111.938C111.938 17.4255 113.764 22.4256 117.867 26.3912C121.919 30.3076 127.538 32.6114 134.23 33.42L135.43 23.4922L136.629 13.5644C133.009 13.1269 131.882 12.1221 131.766 12.0102C131.701 11.9474 131.938 12.1995 131.938 12.75H121.938ZM135.43 23.4922L126.43 19.1329L123.766 24.6329L132.766 28.9922L141.765 33.3515L144.43 27.8515L135.43 23.4922ZM132.766 28.9922L134.068 19.0773C129.061 18.4197 127.291 16.5964 126.682 15.6553L118.285 21.0859L109.888 26.5166C114.393 33.4817 122.076 37.674 131.463 38.907L132.766 28.9922ZM118.285 21.0859L109.923 15.6024C109.24 16.6428 107.443 18.4377 102.616 19.0794L103.934 28.9922L105.251 38.905C114.647 37.6561 122.174 33.3924 126.648 26.5695L118.285 21.0859ZM103.934 28.9922L112.933 24.6329L110.269 19.1329L101.27 23.4922L92.2697 27.8515L94.9338 33.3515L103.934 28.9922ZM101.27 23.4922L102.479 33.4188C109.183 32.6019 114.776 30.2477 118.795 26.3224C122.834 22.3771 124.676 17.4067 124.676 12.75H114.676H104.676C104.676 12.1324 104.927 11.91 104.82 12.0145C104.693 12.139 103.582 13.1364 100.06 13.5656L101.27 23.4922ZM114.676 12.75H124.676V11.0312H114.676L104.676 11.0312V12.75H114.676ZM114.676 11.0312V21.0312H121.938V11.0312V1.03125H114.676V11.0312ZM121.938 11.0312H111.938V12.75H121.938H131.938V11.0312H121.938ZM136.418 31.1406H126.418V36.7266H136.418L146.418 36.7266V31.1406L136.418 31.1406ZM136.418 36.7266V26.7266H121.551V36.7266V46.7266H136.418V36.7266ZM121.551 36.7266H111.551V49.7461H121.551H131.551V36.7266H121.551ZM121.551 49.7461V39.7461H114.719V49.7461V59.7461H121.551V49.7461ZM114.719 49.7461H124.719V36.7266H114.719H104.719V49.7461H114.719ZM114.719 36.7266V26.7266H100.152V36.7266V46.7266H114.719V36.7266ZM100.152 36.7266H110.152V31.1406H100.152H90.1523V36.7266H100.152ZM100.152 31.1406V41.1406H136.418V31.1406V21.1406H100.152V31.1406ZM161.641 11.9336H171.641C171.641 6.41075 167.163 1.93359 161.641 1.93359V11.9336ZM161.641 17.3906V27.3906C167.163 27.3906 171.641 22.9135 171.641 17.3906H161.641ZM154.551 17.3906V7.39062C151.609 7.39062 148.817 8.6855 146.917 10.9307C145.017 13.1759 144.202 16.1438 144.689 19.0445L154.551 17.3906ZM163.488 25.8125L171.911 31.203C173.649 28.488 173.971 25.1017 172.777 22.1076C171.582 19.1135 169.018 16.8787 165.889 16.1049L163.488 25.8125ZM160.051 31.1836L157.448 40.8388C161.66 41.9744 166.122 40.2485 168.473 36.5741L160.051 31.1836ZM150.984 24.4805L159.7 19.5779C157.91 16.3961 154.529 14.4425 150.879 14.481C147.229 14.5196 143.889 16.5441 142.167 19.7629L150.984 24.4805ZM141.531 31.8711L133.139 37.3092C135.538 41.0105 140.078 42.7034 144.314 41.4761L141.531 31.8711ZM138.051 26.5L135.411 16.8547C132.334 17.6968 129.844 19.9561 128.707 22.9366C127.571 25.9171 127.924 29.2611 129.659 31.9381L138.051 26.5ZM147.289 17.3906L157.151 19.0439C157.638 16.1432 156.822 13.1755 154.922 10.9305C153.022 8.6854 150.23 7.39062 147.289 7.39062V17.3906ZM139.898 17.3906H129.898C129.898 22.9135 134.376 27.3906 139.898 27.3906V17.3906ZM139.898 11.9336V1.93359C134.376 1.93359 129.898 6.41075 129.898 11.9336H139.898ZM171.695 10L181.695 10C181.695 4.47715 177.218 0 171.695 0V10ZM171.695 31.6133V41.6133C177.218 41.6133 181.695 37.1361 181.695 31.6133H171.695ZM164.777 31.6133H154.777C154.777 37.1361 159.255 41.6133 164.777 41.6133V31.6133ZM164.777 10V0C159.255 0 154.777 4.47715 154.777 10H164.777ZM151.414 33.0742H161.414C161.414 27.5514 156.937 23.0742 151.414 23.0742V33.0742ZM151.414 36.125L141.414 36.125C141.414 41.6478 145.891 46.125 151.414 46.125V36.125ZM164.82 36.125V46.125C170.343 46.125 174.82 41.6478 174.82 36.125H164.82ZM164.82 33.0742V23.0742C159.297 23.0742 154.82 27.5514 154.82 33.0742H164.82ZM171.695 33.0742H181.695C181.695 27.5514 177.218 23.0742 171.695 23.0742V33.0742ZM171.695 49.4023V59.4023C177.218 59.4023 181.695 54.9252 181.695 49.4023H171.695ZM144.625 49.4023L134.625 49.4023C134.625 54.9252 139.102 59.4023 144.625 59.4023V49.4023ZM144.625 33.0742V23.0742C139.102 23.0742 134.625 27.5514 134.625 33.0742L144.625 33.0742ZM151.414 43.9023L141.414 43.9023C141.414 49.4252 145.891 53.9023 151.414 53.9023V43.9023ZM164.82 43.9023V53.9023C170.343 53.9023 174.82 49.4252 174.82 43.9023H164.82ZM164.82 41.3672H174.82C174.82 35.8443 170.343 31.3672 164.82 31.3672V41.3672ZM151.414 41.3672V31.3672C145.891 31.3672 141.414 35.8443 141.414 41.3672L151.414 41.3672ZM161.641 11.9336H151.641V17.3906H161.641H171.641V11.9336H161.641ZM161.641 17.3906V7.39062H154.551V17.3906V27.3906H161.641V17.3906ZM154.551 17.3906L144.689 19.0445C145.967 26.6702 151.546 33.1606 161.088 35.5201L163.488 25.8125L165.889 16.1049C165.159 15.9244 164.724 15.7276 164.497 15.603C164.278 15.4823 164.225 15.4142 164.254 15.4445C164.283 15.4751 164.331 15.5382 164.37 15.6201C164.406 15.6949 164.414 15.7402 164.413 15.7367L154.551 17.3906ZM163.488 25.8125L155.066 20.422L151.628 25.7931L160.051 31.1836L168.473 36.5741L171.911 31.203L163.488 25.8125ZM160.051 31.1836L162.654 21.5284C161.597 21.2434 160.961 20.8789 160.579 20.5885C160.202 20.3021 159.924 19.9755 159.7 19.5779L150.984 24.4805L142.269 29.3831C145.401 34.9523 150.625 38.9994 157.448 40.8388L160.051 31.1836ZM150.984 24.4805L142.167 19.7629C141.65 20.7291 140.793 21.6738 138.748 22.2661L141.531 31.8711L144.314 41.4761C151.465 39.4043 156.709 34.978 159.802 29.198L150.984 24.4805ZM141.531 31.8711L149.923 26.433L146.443 21.0619L138.051 26.5L129.659 31.9381L133.139 37.3092L141.531 31.8711ZM138.051 26.5L140.691 36.1453C145.27 34.8921 149.173 32.6722 152.112 29.4595C155.048 26.2491 156.565 22.5434 157.151 19.0439L147.289 17.3906L137.427 15.7374C137.406 15.8625 137.38 15.9207 137.375 15.9325C137.373 15.9367 137.373 15.9405 137.353 15.9618C137.334 15.983 137.231 16.0915 136.963 16.2475C136.688 16.4078 136.2 16.6387 135.411 16.8547L138.051 26.5ZM147.289 17.3906V7.39062H139.898V17.3906V27.3906H147.289V17.3906ZM139.898 17.3906H149.898V11.9336H139.898H129.898V17.3906H139.898ZM139.898 11.9336V21.9336H161.641V11.9336V1.93359L139.898 1.93359V11.9336ZM171.695 10H161.695V31.6133H171.695H181.695V10L171.695 10ZM171.695 31.6133V21.6133H164.777V31.6133V41.6133H171.695V31.6133ZM164.777 31.6133H174.777V10L164.777 10H154.777V31.6133H164.777ZM164.777 10V20H171.695V10V0L164.777 0V10ZM151.414 33.0742L141.414 33.0742V36.125L151.414 36.125H161.414V33.0742H151.414ZM151.414 36.125V46.125H164.82V36.125V26.125H151.414V36.125ZM164.82 36.125H174.82V33.0742H164.82H154.82V36.125H164.82ZM164.82 33.0742V43.0742H171.695V33.0742V23.0742H164.82V33.0742ZM171.695 33.0742H161.695V49.4023H171.695H181.695V33.0742H171.695ZM171.695 49.4023V39.4023H144.625V49.4023V59.4023H171.695V49.4023ZM144.625 49.4023H154.625V33.0742H144.625L134.625 33.0742V49.4023L144.625 49.4023ZM144.625 33.0742V43.0742H151.414V33.0742V23.0742H144.625V33.0742ZM151.414 43.9023V53.9023H164.82V43.9023V33.9023H151.414V43.9023ZM164.82 43.9023H174.82V41.3672H164.82H154.82V43.9023H164.82ZM164.82 41.3672V31.3672H151.414V41.3672V51.3672H164.82V41.3672ZM151.414 41.3672L141.414 41.3672V43.9023L151.414 43.9023H161.414V41.3672H151.414ZM209.766 10H219.766C219.766 4.47715 215.288 0 209.766 0V10ZM209.766 49.875V59.875C215.288 59.875 219.766 55.3978 219.766 49.875H209.766ZM202.805 49.875H192.805C192.805 55.3978 197.282 59.875 202.805 59.875V49.875ZM202.805 10V0C197.282 0 192.805 4.47715 192.805 10H202.805ZM187.938 12.6641L187.868 22.6638C187.915 22.6641 187.962 22.6641 188.008 22.6638L187.938 12.6641ZM187.938 18.8945L187.768 28.8931C187.885 28.8951 188.002 28.895 188.119 28.8929L187.938 18.8945ZM209.766 10H199.766V49.875H209.766H219.766V10H209.766ZM209.766 49.875V39.875H202.805V49.875V59.875H209.766V49.875ZM202.805 49.875H212.805V10H202.805H192.805V49.875H202.805ZM202.805 10V20L209.766 20V10V0H202.805V10ZM187.938 12.6641L188.008 22.6638C187.941 22.6643 187.771 22.6406 187.596 22.5508C187.434 22.4681 187.443 22.4198 187.564 22.5782C187.834 22.9327 188.551 24.2334 188.551 26.9727H198.551L208.551 26.9727C208.551 20.9463 206.99 15.0712 203.468 10.4521C199.821 5.66819 194.288 2.61877 187.867 2.66431L187.938 12.6641ZM198.551 26.9727H188.551C188.551 29.8028 187.821 31.1249 187.551 31.4804C187.431 31.6391 187.419 31.594 187.574 31.5147C187.739 31.4293 187.892 31.4102 187.938 31.4102V41.4102V51.4102C194.311 51.4102 199.83 48.3834 203.481 43.5733C207.003 38.9337 208.551 33.0371 208.551 26.9727L198.551 26.9727ZM187.938 41.4102V31.4102C187.916 31.4102 188.021 31.4135 188.158 31.483C188.286 31.5479 188.268 31.5815 188.148 31.4265C187.883 31.0816 187.152 29.7839 187.152 26.9727H177.152H167.152C167.152 33.056 168.721 38.977 172.301 43.6273C176.014 48.4498 181.575 51.4102 187.938 51.4102V41.4102ZM177.152 26.9727H187.152C187.152 24.2526 187.869 22.9762 188.136 22.632C188.255 22.4774 188.272 22.5139 188.136 22.5822C188.076 22.6127 188.009 22.6363 187.947 22.6507C187.885 22.6649 187.855 22.6637 187.868 22.6638L187.938 12.6641L188.007 2.6643C181.598 2.6198 176.023 5.60151 172.314 10.3982C168.734 15.0277 167.152 20.9271 167.152 26.9727H177.152ZM187.938 18.8945L188.107 8.89597C182.475 8.80052 178.277 12.0746 176.104 16.1436C174.263 19.59 173.812 23.5385 173.812 26.9727H183.812H193.812C193.812 26.0559 193.881 25.4897 193.933 25.2055C193.99 24.8993 193.996 25.0966 193.745 25.5664C193.479 26.0649 192.852 26.9904 191.638 27.7722C190.36 28.5955 188.964 28.9134 187.768 28.8931L187.938 18.8945ZM183.812 26.9727H173.812C173.812 30.4271 174.256 34.3944 176.112 37.8541C178.326 41.9836 182.501 45.0937 187.938 45.0937V35.0937V25.0937C189.048 25.0937 190.383 25.3965 191.63 26.1982C192.827 26.9673 193.459 27.8831 193.737 28.4018C193.996 28.8846 193.992 29.0928 193.935 28.7849C193.882 28.4977 193.812 27.9194 193.812 26.9727H183.812ZM187.938 35.0937V45.0937C193.537 45.0937 197.588 41.7294 199.664 37.7986C201.463 34.3926 201.934 30.4806 201.934 26.9727H191.934H181.934C181.934 27.9039 181.864 28.4806 181.81 28.7724C181.752 29.0842 181.742 28.9062 181.98 28.4572C182.228 27.9865 182.824 27.0851 183.996 26.3005C185.236 25.4703 186.645 25.0937 187.938 25.0937V35.0937ZM191.934 26.9727H201.934C201.934 23.4853 201.456 19.5914 199.672 16.199C197.641 12.3393 193.562 8.79061 187.756 8.89618L187.938 18.8945L188.119 28.8929C186.733 28.9181 185.258 28.5217 183.988 27.6697C182.799 26.8723 182.209 25.9614 181.972 25.511C181.742 25.075 181.753 24.9078 181.811 25.218C181.865 25.507 181.934 26.0715 181.934 26.9727H191.934ZM257.461 10H267.461C267.461 4.47715 262.984 0 257.461 0V10ZM257.461 24.1797H247.461C247.461 29.7025 251.938 34.1797 257.461 34.1797V24.1797ZM260.598 24.1797H270.598C270.598 18.6568 266.12 14.1797 260.598 14.1797V24.1797ZM260.598 29.8516V39.8516C266.12 39.8516 270.598 35.3744 270.598 29.8516H260.598ZM257.461 29.8516V19.8516C251.938 19.8516 247.461 24.3287 247.461 29.8516H257.461ZM257.461 49.7461V59.7461C262.984 59.7461 267.461 55.2689 267.461 49.7461H257.461ZM250.672 49.7461H240.672C240.672 55.2689 245.149 59.7461 250.672 59.7461V49.7461ZM250.672 10V0C245.149 0 240.672 4.47715 240.672 10H250.672ZM229.359 13.5234H239.359C239.359 8.00059 234.882 3.52344 229.359 3.52344V13.5234ZM229.359 22.1172H219.359C219.359 27.64 223.837 32.1172 229.359 32.1172V22.1172ZM230.305 22.1172V32.1172C235.828 32.1172 240.305 27.64 240.305 22.1172H230.305ZM230.305 13.5234V3.52344C224.782 3.52344 220.305 8.00059 220.305 13.5234H230.305ZM235.848 13.5234H245.848C245.848 8.00059 241.37 3.52344 235.848 3.52344V13.5234ZM235.848 40.8516V50.8516C241.37 50.8516 245.848 46.3744 245.848 40.8516H235.848ZM223.773 40.8516H213.773C213.773 46.3744 218.251 50.8516 223.773 50.8516V40.8516ZM223.773 13.5234V3.52344C218.251 3.52344 213.773 8.00059 213.773 13.5234H223.773ZM229.359 35.3086H219.359C219.359 40.8314 223.837 45.3086 229.359 45.3086V35.3086ZM230.305 35.3086V45.3086C235.828 45.3086 240.305 40.8314 240.305 35.3086H230.305ZM230.305 27.4883H240.305C240.305 21.9654 235.828 17.4883 230.305 17.4883V27.4883ZM229.359 27.4883V17.4883C223.837 17.4883 219.359 21.9654 219.359 27.4883H229.359ZM242.551 13.5234H252.551C252.551 8.00059 248.074 3.52344 242.551 3.52344V13.5234ZM242.551 22.1172H232.551C232.551 27.64 237.028 32.1172 242.551 32.1172V22.1172ZM243.668 22.1172V32.1172C249.191 32.1172 253.668 27.64 253.668 22.1172H243.668ZM243.668 13.5234V3.52344C238.145 3.52344 233.668 8.00059 233.668 13.5234H243.668ZM249.254 13.5234H259.254C259.254 8.00059 254.777 3.52344 249.254 3.52344V13.5234ZM249.254 40.8516V50.8516C254.777 50.8516 259.254 46.3744 259.254 40.8516H249.254ZM237.094 40.8516H227.094C227.094 46.3744 231.571 50.8516 237.094 50.8516V40.8516ZM237.094 13.5234V3.52344C231.571 3.52344 227.094 8.00059 227.094 13.5234H237.094ZM242.551 35.3086H232.551C232.551 40.8314 237.028 45.3086 242.551 45.3086V35.3086ZM243.668 35.3086V45.3086C249.191 45.3086 253.668 40.8314 253.668 35.3086H243.668ZM243.668 27.4883H253.668C253.668 21.9654 249.191 17.4883 243.668 17.4883V27.4883ZM242.551 27.4883V17.4883C237.028 17.4883 232.551 21.9654 232.551 27.4883H242.551ZM257.461 10H247.461V24.1797H257.461H267.461V10H257.461ZM257.461 24.1797V34.1797H260.598V24.1797V14.1797H257.461V24.1797ZM260.598 24.1797H250.598V29.8516H260.598H270.598V24.1797H260.598ZM260.598 29.8516V19.8516H257.461V29.8516V39.8516H260.598V29.8516ZM257.461 29.8516H247.461V49.7461H257.461H267.461V29.8516H257.461ZM257.461 49.7461V39.7461H250.672V49.7461V59.7461H257.461V49.7461ZM250.672 49.7461H260.672V10H250.672H240.672V49.7461H250.672ZM250.672 10V20H257.461V10V0H250.672V10ZM229.359 13.5234H219.359V22.1172H229.359H239.359V13.5234H229.359ZM229.359 22.1172V32.1172H230.305V22.1172V12.1172H229.359V22.1172ZM230.305 22.1172H240.305V13.5234H230.305H220.305V22.1172H230.305ZM230.305 13.5234V23.5234H235.848V13.5234V3.52344H230.305V13.5234ZM235.848 13.5234H225.848V40.8516H235.848H245.848V13.5234H235.848ZM235.848 40.8516V30.8516H223.773V40.8516V50.8516H235.848V40.8516ZM223.773 40.8516H233.773V13.5234H223.773H213.773V40.8516H223.773ZM223.773 13.5234V23.5234H229.359V13.5234V3.52344H223.773V13.5234ZM229.359 35.3086V45.3086H230.305V35.3086V25.3086H229.359V35.3086ZM230.305 35.3086H240.305V27.4883H230.305H220.305V35.3086H230.305ZM230.305 27.4883V17.4883H229.359V27.4883V37.4883H230.305V27.4883ZM229.359 27.4883H219.359V35.3086H229.359H239.359V27.4883H229.359ZM242.551 13.5234H232.551V22.1172H242.551H252.551V13.5234H242.551ZM242.551 22.1172V32.1172H243.668V22.1172V12.1172H242.551V22.1172ZM243.668 22.1172H253.668V13.5234H243.668H233.668V22.1172H243.668ZM243.668 13.5234V23.5234H249.254V13.5234V3.52344H243.668V13.5234ZM249.254 13.5234H239.254V40.8516H249.254H259.254V13.5234H249.254ZM249.254 40.8516V30.8516H237.094V40.8516V50.8516H249.254V40.8516ZM237.094 40.8516H247.094V13.5234H237.094H227.094V40.8516H237.094ZM237.094 13.5234V23.5234H242.551V13.5234V3.52344H237.094V13.5234ZM242.551 35.3086V45.3086H243.668V35.3086V25.3086H242.551V35.3086ZM243.668 35.3086H253.668V27.4883H243.668H233.668V35.3086H243.668ZM243.668 27.4883V17.4883H242.551V27.4883V37.4883H243.668V27.4883ZM242.551 27.4883H232.551V35.3086H242.551H252.551V27.4883H242.551ZM298.109 31.1406H308.109C308.109 25.6178 303.632 21.1406 298.109 21.1406V31.1406ZM298.109 36.6406V46.6406C303.632 46.6406 308.109 42.1635 308.109 36.6406H298.109ZM261.844 36.6406H251.844C251.844 42.1635 256.321 46.6406 261.844 46.6406V36.6406ZM261.844 31.1406V21.1406C256.321 21.1406 251.844 25.6178 251.844 31.1406H261.844ZM294.801 43.6875H304.801C304.801 38.1647 300.324 33.6875 294.801 33.6875V43.6875ZM294.801 49.1875V59.1875C300.324 59.1875 304.801 54.7103 304.801 49.1875H294.801ZM266.27 49.1875H256.27C256.27 54.7103 260.747 59.1875 266.27 59.1875V49.1875ZM266.27 38.2305V28.2305C260.747 28.2305 256.27 32.7076 256.27 38.2305H266.27ZM273.102 38.2305H283.102C283.102 32.7076 278.624 28.2305 273.102 28.2305V38.2305ZM273.102 43.6875H263.102C263.102 49.2103 267.579 53.6875 273.102 53.6875V43.6875ZM293.898 10.6445L303.898 10.6445C303.898 5.12168 299.421 0.644531 293.898 0.644531V10.6445ZM293.898 22.418V32.418C299.421 32.418 303.898 27.9408 303.898 22.418H293.898ZM273.059 22.418V12.418C267.536 12.418 263.059 16.8951 263.059 22.418H273.059ZM273.059 24.2227H263.059C263.059 29.7455 267.536 34.2227 273.059 34.2227V24.2227ZM294.543 24.2227H304.543C304.543 18.6998 300.066 14.2227 294.543 14.2227V24.2227ZM294.543 29.3359V39.3359C300.066 39.3359 304.543 34.8588 304.543 29.3359H294.543ZM266.227 29.3359H256.227C256.227 34.8588 260.704 39.3359 266.227 39.3359V29.3359ZM266.227 17.5625V7.5625C260.704 7.5625 256.227 12.0397 256.227 17.5625H266.227ZM287.023 17.5625V27.5625C292.546 27.5625 297.023 23.0853 297.023 17.5625H287.023ZM287.023 15.9297H297.023C297.023 10.4068 292.546 5.92969 287.023 5.92969V15.9297ZM266.184 15.9297H256.184C256.184 21.4525 260.661 25.9297 266.184 25.9297V15.9297ZM266.184 10.6445V0.644531C260.661 0.644531 256.184 5.12168 256.184 10.6445H266.184ZM298.109 31.1406H288.109V36.6406H298.109H308.109V31.1406H298.109ZM298.109 36.6406V26.6406H261.844V36.6406V46.6406H298.109V36.6406ZM261.844 36.6406H271.844V31.1406H261.844H251.844V36.6406H261.844ZM261.844 31.1406V41.1406H298.109V31.1406V21.1406H261.844V31.1406ZM294.801 43.6875H284.801V49.1875H294.801H304.801V43.6875H294.801ZM294.801 49.1875V39.1875H266.27V49.1875V59.1875H294.801V49.1875ZM266.27 49.1875H276.27V38.2305H266.27H256.27V49.1875H266.27ZM266.27 38.2305V48.2305H273.102V38.2305V28.2305H266.27V38.2305ZM273.102 38.2305H263.102V43.6875H273.102H283.102V38.2305H273.102ZM273.102 43.6875V53.6875H294.801V43.6875V33.6875H273.102V43.6875ZM293.898 10.6445H283.898V22.418H293.898H303.898V10.6445L293.898 10.6445ZM293.898 22.418V12.418H273.059V22.418V32.418H293.898V22.418ZM273.059 22.418H263.059V24.2227H273.059H283.059V22.418H273.059ZM273.059 24.2227V34.2227H294.543V24.2227V14.2227H273.059V24.2227ZM294.543 24.2227H284.543V29.3359H294.543H304.543V24.2227H294.543ZM294.543 29.3359V19.3359H266.227V29.3359V39.3359H294.543V29.3359ZM266.227 29.3359H276.227V17.5625H266.227H256.227V29.3359H266.227ZM266.227 17.5625V27.5625H287.023V17.5625V7.5625H266.227V17.5625ZM287.023 17.5625H297.023V15.9297H287.023H277.023V17.5625H287.023ZM287.023 15.9297V5.92969H266.184V15.9297V25.9297H287.023V15.9297ZM266.184 15.9297H276.184V10.6445H266.184H256.184V15.9297H266.184ZM266.184 10.6445V20.6445H293.898V10.6445V0.644531L266.184 0.644531V10.6445Z" fill="white" mask="url(#path-1-outside-1_6524_1760)"/>
</g>
<defs>
<filter id="filter0_d_6524_1760" x="0" y="0" width="312.109" height="67.875" filterUnits="userSpaceOnUse" color-interpolation-filters="sRGB">
<feFlood flood-opacity="0" result="BackgroundImageFix"/>
<feColorMatrix in="SourceAlpha" type="matrix" values="0 0 0 0 0 0 0 0 0 0 0 0 0 0 0 0 0 0 127 0" result="hardAlpha"/>
<feOffset dy="4"/>
<feGaussianBlur stdDeviation="2"/>
<feComposite in2="hardAlpha" operator="out"/>
<feColorMatrix type="matrix" values="0 0 0 0 0 0 0 0 0 0 0 0 0 0 0 0 0 0 0.07 0"/>
<feBlend mode="normal" in2="BackgroundImageFix" result="effect1_dropShadow_6524_1760"/>
<feBlend mode="normal" in="SourceGraphic" in2="effect1_dropShadow_6524_1760" result="shape"/>
</filter>
</defs>
</svg>
