<svg width="265" height="68" viewBox="0 0 265 68" fill="none" xmlns="http://www.w3.org/2000/svg">
<g filter="url(#filter0_d_6526_5754)">
<mask id="path-1-outside-1_6526_5754" maskUnits="userSpaceOnUse" x="3.09766" y="-0.507813" width="258" height="61" fill="black">
<rect fill="white" x="3.09766" y="-0.507813" width="258" height="61"/>
<path d="M46.957 11.5469V16.918H37.2031C38.041 19.3242 41.1562 21.9883 48.9766 22.7617L46.4844 28.1758C38.5996 27.4023 34.0664 24.459 32.0469 20.6992C30.0059 24.4375 25.5371 27.4023 17.6953 28.1758L15.2461 22.7617C23.0449 21.9883 26.1172 19.3027 27.0195 16.918H17.3086V11.5469L46.957 11.5469ZM50.2656 29.3789V34.8359H36.1289V40.8516H29.2969V34.8359H14L14 29.3789H50.2656ZM46.3125 43.6875V49.1875H17.9531V37.5859H24.8281V43.6875H46.3125ZM85.5859 10V49.875H78.625V10H85.5859ZM60.707 13.0508V22.1602H67.1523V13.0508H73.9414V40.7656H53.7891V13.0508H60.707ZM60.707 35.2227H67.1523V27.4883H60.707V35.2227ZM121.766 10V24.6523H126.836V30.2812H121.766V49.6602H114.848V10H121.766ZM110.938 13.9531C110.895 26.2422 106.684 36.5547 93.1055 43.2148L89.1953 37.9727C98.0469 33.5039 102.73 27.9395 103.934 19.5391H91.6875V13.9531H110.938ZM160.18 13.7383V17.6055C160.18 21.7734 160.18 26.4141 159.148 32.5156L152.402 32C153.197 26.7793 153.283 22.8691 153.348 19.1953H139.34V13.7383H160.18ZM150.598 25.168V36.3398C154.186 36.168 157.816 35.9102 161.168 35.4805L161.598 40.5508C153.562 41.9687 144.797 42.0977 137.922 42.0547L137.363 36.6406C139.361 36.6191 141.553 36.5977 143.852 36.5547V25.168H150.598ZM169.633 10V25.5547H174.359V31.2695H169.633V49.7461H162.629V10H169.633ZM208.262 27.2734V32.6875H197.219V39.9922H212V45.5781H175.691V39.9922H190.387V32.6875H179.73V12.5781L208.004 12.5781V17.9922L186.648 17.9922V27.2734L208.262 27.2734ZM245.516 10.0859V21.6875H250.457V27.2734H245.516V39.6914H238.598V10.0859H245.516ZM237.18 13.8242V19.1523H213.676V13.8242H221.969V10H228.887V13.8242H237.18ZM225.406 20.0547C231.207 20.0547 235.332 23.2773 235.332 27.918C235.332 32.5586 231.207 35.6953 225.406 35.6523C219.562 35.6953 215.395 32.5586 215.395 27.918C215.395 23.2773 219.562 20.0547 225.406 20.0547ZM225.406 25.2539C223.43 25.2969 222.141 26.1133 222.141 27.918C222.141 29.7227 223.43 30.4961 225.406 30.4961C227.426 30.4961 228.801 29.7227 228.801 27.918C228.801 26.1133 227.426 25.2969 225.406 25.2539ZM246.676 43.6875V49.1875H219.176V37.457H226.094V43.6875H246.676Z"/>
</mask>
<path d="M46.957 11.5469V16.918H37.2031C38.041 19.3242 41.1562 21.9883 48.9766 22.7617L46.4844 28.1758C38.5996 27.4023 34.0664 24.459 32.0469 20.6992C30.0059 24.4375 25.5371 27.4023 17.6953 28.1758L15.2461 22.7617C23.0449 21.9883 26.1172 19.3027 27.0195 16.918H17.3086V11.5469L46.957 11.5469ZM50.2656 29.3789V34.8359H36.1289V40.8516H29.2969V34.8359H14L14 29.3789H50.2656ZM46.3125 43.6875V49.1875H17.9531V37.5859H24.8281V43.6875H46.3125ZM85.5859 10V49.875H78.625V10H85.5859ZM60.707 13.0508V22.1602H67.1523V13.0508H73.9414V40.7656H53.7891V13.0508H60.707ZM60.707 35.2227H67.1523V27.4883H60.707V35.2227ZM121.766 10V24.6523H126.836V30.2812H121.766V49.6602H114.848V10H121.766ZM110.938 13.9531C110.895 26.2422 106.684 36.5547 93.1055 43.2148L89.1953 37.9727C98.0469 33.5039 102.73 27.9395 103.934 19.5391H91.6875V13.9531H110.938ZM160.18 13.7383V17.6055C160.18 21.7734 160.18 26.4141 159.148 32.5156L152.402 32C153.197 26.7793 153.283 22.8691 153.348 19.1953H139.34V13.7383H160.18ZM150.598 25.168V36.3398C154.186 36.168 157.816 35.9102 161.168 35.4805L161.598 40.5508C153.562 41.9687 144.797 42.0977 137.922 42.0547L137.363 36.6406C139.361 36.6191 141.553 36.5977 143.852 36.5547V25.168H150.598ZM169.633 10V25.5547H174.359V31.2695H169.633V49.7461H162.629V10H169.633ZM208.262 27.2734V32.6875H197.219V39.9922H212V45.5781H175.691V39.9922H190.387V32.6875H179.73V12.5781L208.004 12.5781V17.9922L186.648 17.9922V27.2734L208.262 27.2734ZM245.516 10.0859V21.6875H250.457V27.2734H245.516V39.6914H238.598V10.0859H245.516ZM237.18 13.8242V19.1523H213.676V13.8242H221.969V10H228.887V13.8242H237.18ZM225.406 20.0547C231.207 20.0547 235.332 23.2773 235.332 27.918C235.332 32.5586 231.207 35.6953 225.406 35.6523C219.562 35.6953 215.395 32.5586 215.395 27.918C215.395 23.2773 219.562 20.0547 225.406 20.0547ZM225.406 25.2539C223.43 25.2969 222.141 26.1133 222.141 27.918C222.141 29.7227 223.43 30.4961 225.406 30.4961C227.426 30.4961 228.801 29.7227 228.801 27.918C228.801 26.1133 227.426 25.2969 225.406 25.2539ZM246.676 43.6875V49.1875H219.176V37.457H226.094V43.6875H246.676Z" fill="#11DCA9"/>
<path d="M46.957 11.5469H56.957C56.957 6.02403 52.4799 1.54687 46.957 1.54687V11.5469ZM46.957 16.918V26.918C52.4799 26.918 56.957 22.4408 56.957 16.918H46.957ZM37.2031 16.918V6.91797C33.9652 6.91797 30.9276 8.48575 29.0519 11.1251C27.1762 13.7644 26.6945 17.1486 27.7593 20.2064L37.2031 16.918ZM48.9766 22.7617L58.0604 26.9432C59.4126 24.0055 59.2608 20.5952 57.6527 17.7894C56.0447 14.9835 53.179 13.1286 49.9608 12.8103L48.9766 22.7617ZM46.4844 28.1758L45.5081 38.128C49.7484 38.544 53.7866 36.2275 55.5682 32.3572L46.4844 28.1758ZM32.0469 20.6992L40.8564 15.9672C39.1197 12.7339 35.7513 10.7118 32.081 10.6993C28.4108 10.6867 25.0286 12.6858 23.2698 15.9072L32.0469 20.6992ZM17.6953 28.1758L8.58423 32.2975C10.3511 36.2032 14.4108 38.5483 18.6769 38.1275L17.6953 28.1758ZM15.2461 22.7617L14.2592 12.8105C11.053 13.1285 8.19646 14.9718 6.58563 17.7621C4.9748 20.5524 4.80705 23.9479 6.13501 26.8834L15.2461 22.7617ZM27.0195 16.918L36.3724 20.4569C37.5349 17.3845 37.1143 13.937 35.2472 11.2342C33.3801 8.53137 30.3046 6.91797 27.0195 6.91797V16.918ZM17.3086 16.918H7.30859C7.30859 22.4408 11.7857 26.918 17.3086 26.918V16.918ZM17.3086 11.5469V1.54688C11.7857 1.54688 7.30859 6.02403 7.30859 11.5469H17.3086ZM50.2656 29.3789H60.2656C60.2656 23.8561 55.7885 19.3789 50.2656 19.3789V29.3789ZM50.2656 34.8359V44.8359C55.7885 44.8359 60.2656 40.3588 60.2656 34.8359H50.2656ZM36.1289 34.8359V24.8359C30.6061 24.8359 26.1289 29.3131 26.1289 34.8359H36.1289ZM36.1289 40.8516V50.8516C41.6518 50.8516 46.1289 46.3744 46.1289 40.8516H36.1289ZM29.2969 40.8516H19.2969C19.2969 46.3744 23.774 50.8516 29.2969 50.8516V40.8516ZM29.2969 34.8359H39.2969C39.2969 29.3131 34.8197 24.8359 29.2969 24.8359V34.8359ZM14 34.8359H4C4 40.3588 8.47715 44.8359 14 44.8359V34.8359ZM14 29.3789V19.3789C8.47715 19.3789 4 23.8561 4 29.3789H14ZM46.3125 43.6875H56.3125C56.3125 38.1647 51.8353 33.6875 46.3125 33.6875V43.6875ZM46.3125 49.1875V59.1875C51.8353 59.1875 56.3125 54.7103 56.3125 49.1875H46.3125ZM17.9531 49.1875H7.95313C7.95313 54.7103 12.4303 59.1875 17.9531 59.1875V49.1875ZM17.9531 37.5859V27.5859C12.4303 27.5859 7.95313 32.0631 7.95313 37.5859H17.9531ZM24.8281 37.5859H34.8281C34.8281 32.0631 30.351 27.5859 24.8281 27.5859V37.5859ZM24.8281 43.6875H14.8281C14.8281 49.2103 19.3053 53.6875 24.8281 53.6875V43.6875ZM46.957 11.5469L36.957 11.5469V16.918H46.957H56.957V11.5469H46.957ZM46.957 16.918V6.91797L37.2031 6.91797V16.918V26.918H46.957V16.918ZM37.2031 16.918L27.7593 20.2064C30.5566 28.2398 38.8863 31.8126 47.9924 32.7132L48.9766 22.7617L49.9608 12.8103C46.9523 12.5127 45.7015 11.9232 45.4328 11.7697C45.2567 11.6691 46.1289 12.1416 46.647 13.6295L37.2031 16.918ZM48.9766 22.7617L39.8928 18.5803L37.4006 23.9943L46.4844 28.1758L55.5682 32.3572L58.0604 26.9432L48.9766 22.7617ZM46.4844 28.1758L47.4606 18.2235C44.5211 17.9352 42.7967 17.2958 41.8804 16.7925C41.0272 16.3239 40.8618 15.9771 40.8564 15.9672L32.0469 20.6992L23.2373 25.4312C27.3965 33.1743 35.6935 37.1653 45.5081 38.128L46.4844 28.1758ZM32.0469 20.6992L23.2698 15.9072C23.2298 15.9805 23.0289 16.3423 22.195 16.8049C21.299 17.302 19.6104 17.9384 16.7138 18.2241L17.6953 28.1758L18.6769 38.1275C28.5519 37.1535 36.6751 33.0901 40.8239 25.4913L32.0469 20.6992ZM17.6953 28.1758L26.8064 24.0541L24.3572 18.64L15.2461 22.7617L6.13501 26.8834L8.58423 32.2975L17.6953 28.1758ZM15.2461 22.7617L16.233 32.7129C25.5292 31.791 33.4707 28.1255 36.3724 20.4569L27.0195 16.918L17.6667 13.379C18.1554 12.0873 18.9032 11.678 18.7373 11.7733C18.4689 11.9275 17.2353 12.5154 14.2592 12.8105L15.2461 22.7617ZM27.0195 16.918V6.91797H17.3086V16.918V26.918H27.0195V16.918ZM17.3086 16.918H27.3086V11.5469H17.3086H7.30859L7.30859 16.918H17.3086ZM17.3086 11.5469V21.5469H46.957V11.5469V1.54687L17.3086 1.54688V11.5469ZM50.2656 29.3789H40.2656V34.8359H50.2656H60.2656V29.3789H50.2656ZM50.2656 34.8359V24.8359H36.1289V34.8359V44.8359H50.2656V34.8359ZM36.1289 34.8359H26.1289V40.8516H36.1289H46.1289V34.8359H36.1289ZM36.1289 40.8516V30.8516H29.2969V40.8516V50.8516H36.1289V40.8516ZM29.2969 40.8516H39.2969V34.8359H29.2969H19.2969V40.8516H29.2969ZM29.2969 34.8359V24.8359H14L14 34.8359V44.8359H29.2969V34.8359ZM14 34.8359H24V29.3789H14H4V34.8359H14ZM14 29.3789L14 39.3789H50.2656V29.3789V19.3789H14V29.3789ZM46.3125 43.6875H36.3125V49.1875H46.3125H56.3125V43.6875H46.3125ZM46.3125 49.1875V39.1875H17.9531V49.1875V59.1875H46.3125V49.1875ZM17.9531 49.1875H27.9531V37.5859H17.9531H7.95313L7.95313 49.1875H17.9531ZM17.9531 37.5859V47.5859H24.8281V37.5859V27.5859H17.9531V37.5859ZM24.8281 37.5859H14.8281V43.6875H24.8281H34.8281V37.5859H24.8281ZM24.8281 43.6875V53.6875H46.3125V43.6875V33.6875H24.8281V43.6875ZM85.5859 10H95.5859C95.5859 4.47715 91.1088 0 85.5859 0V10ZM85.5859 49.875V59.875C91.1088 59.875 95.5859 55.3978 95.5859 49.875H85.5859ZM78.625 49.875H68.625C68.625 55.3978 73.1022 59.875 78.625 59.875V49.875ZM78.625 10V0C73.1022 0 68.625 4.47715 68.625 10H78.625ZM60.707 13.0508H70.707C70.707 7.52793 66.2299 3.05078 60.707 3.05078V13.0508ZM60.707 22.1602H50.707C50.707 27.683 55.1842 32.1602 60.707 32.1602V22.1602ZM67.1523 22.1602V32.1602C72.6752 32.1602 77.1523 27.683 77.1523 22.1602L67.1523 22.1602ZM67.1523 13.0508V3.05078C61.6295 3.05078 57.1523 7.52793 57.1523 13.0508H67.1523ZM73.9414 13.0508L83.9414 13.0508C83.9414 7.52793 79.4643 3.05078 73.9414 3.05078V13.0508ZM73.9414 40.7656V50.7656C79.4643 50.7656 83.9414 46.2885 83.9414 40.7656H73.9414ZM53.7891 40.7656H43.7891C43.7891 46.2885 48.2662 50.7656 53.7891 50.7656V40.7656ZM53.7891 13.0508V3.05078C48.2662 3.05078 43.7891 7.52793 43.7891 13.0508H53.7891ZM60.707 35.2227H50.707C50.707 40.7455 55.1842 45.2227 60.707 45.2227V35.2227ZM67.1523 35.2227V45.2227C72.6752 45.2227 77.1523 40.7455 77.1523 35.2227H67.1523ZM67.1523 27.4883L77.1523 27.4883C77.1523 21.9654 72.6752 17.4883 67.1523 17.4883V27.4883ZM60.707 27.4883V17.4883C55.1842 17.4883 50.707 21.9654 50.707 27.4883H60.707ZM85.5859 10H75.5859V49.875H85.5859H95.5859V10H85.5859ZM85.5859 49.875V39.875H78.625V49.875V59.875H85.5859V49.875ZM78.625 49.875H88.625V10H78.625H68.625V49.875H78.625ZM78.625 10V20H85.5859V10V0L78.625 0V10ZM60.707 13.0508H50.707V22.1602H60.707H70.707V13.0508H60.707ZM60.707 22.1602V32.1602H67.1523V22.1602V12.1602H60.707V22.1602ZM67.1523 22.1602L77.1523 22.1602V13.0508L67.1523 13.0508H57.1523V22.1602H67.1523ZM67.1523 13.0508V23.0508H73.9414V13.0508V3.05078H67.1523V13.0508ZM73.9414 13.0508H63.9414V40.7656H73.9414H83.9414V13.0508L73.9414 13.0508ZM73.9414 40.7656V30.7656H53.7891V40.7656V50.7656H73.9414V40.7656ZM53.7891 40.7656H63.7891V13.0508H53.7891H43.7891V40.7656H53.7891ZM53.7891 13.0508V23.0508H60.707V13.0508V3.05078H53.7891V13.0508ZM60.707 35.2227V45.2227H67.1523V35.2227V25.2227H60.707V35.2227ZM67.1523 35.2227H77.1523V27.4883L67.1523 27.4883H57.1523V35.2227H67.1523ZM67.1523 27.4883V17.4883H60.707V27.4883V37.4883H67.1523V27.4883ZM60.707 27.4883H50.707V35.2227H60.707H70.707V27.4883H60.707ZM121.766 10H131.766C131.766 4.47715 127.288 0 121.766 0V10ZM121.766 24.6523H111.766C111.766 30.1752 116.243 34.6523 121.766 34.6523V24.6523ZM126.836 24.6523H136.836C136.836 19.1295 132.359 14.6523 126.836 14.6523V24.6523ZM126.836 30.2812V40.2812C132.359 40.2812 136.836 35.8041 136.836 30.2812H126.836ZM121.766 30.2812V20.2812C116.243 20.2812 111.766 24.7584 111.766 30.2812H121.766ZM121.766 49.6602V59.6602C127.288 59.6602 131.766 55.183 131.766 49.6602H121.766ZM114.848 49.6602H104.848C104.848 55.183 109.325 59.6602 114.848 59.6602V49.6602ZM114.848 10V0C109.325 0 104.848 4.47715 104.848 10L114.848 10ZM110.938 13.9531L120.937 13.9881C120.947 11.3299 119.897 8.77736 118.021 6.89443C116.145 5.0115 113.596 3.95312 110.938 3.95312V13.9531ZM93.1055 43.2148L85.0897 49.1938C87.968 53.0526 93.1872 54.313 97.5093 52.193L93.1055 43.2148ZM89.1953 37.9727L84.6885 29.0458C82.0517 30.377 80.1383 32.8059 79.4614 35.6812C78.7845 38.5565 79.4135 41.5839 81.1796 43.9516L89.1953 37.9727ZM103.934 19.5391L113.833 20.9568C114.244 18.0866 113.389 15.1792 111.489 12.9884C109.59 10.7976 106.833 9.53906 103.934 9.53906V19.5391ZM91.6875 19.5391H81.6875C81.6875 25.0619 86.1646 29.5391 91.6875 29.5391V19.5391ZM91.6875 13.9531V3.95312C86.1646 3.95312 81.6875 8.43028 81.6875 13.9531H91.6875ZM121.766 10H111.766V24.6523H121.766H131.766V10H121.766ZM121.766 24.6523V34.6523H126.836V24.6523V14.6523H121.766V24.6523ZM126.836 24.6523H116.836V30.2812H126.836H136.836V24.6523H126.836ZM126.836 30.2812V20.2812H121.766V30.2812V40.2812H126.836V30.2812ZM121.766 30.2812H111.766V49.6602H121.766H131.766V30.2812H121.766ZM121.766 49.6602V39.6602H114.848V49.6602V59.6602H121.766V49.6602ZM114.848 49.6602H124.848V10H114.848L104.848 10V49.6602H114.848ZM114.848 10V20H121.766V10V0L114.848 0V10ZM110.938 13.9531L100.938 13.9182C100.92 18.9688 100.045 22.8059 98.361 25.8287C96.7381 28.7423 93.94 31.6673 88.7017 34.2367L93.1055 43.2148L97.5093 52.193C105.849 48.1022 111.946 42.5409 115.833 35.5609C119.66 28.6902 120.912 21.2265 120.937 13.9881L110.938 13.9531ZM93.1055 43.2148L101.121 37.2359L97.2111 31.9937L89.1953 37.9727L81.1796 43.9516L85.0897 49.1938L93.1055 43.2148ZM89.1953 37.9727L93.7021 46.8995C98.9468 44.2517 103.621 40.951 107.206 36.5212C110.877 31.9849 113.001 26.7651 113.833 20.9568L103.934 19.5391L94.0346 18.1213C93.6634 20.7134 92.8435 22.4761 91.6594 23.9392C90.389 25.5089 88.2954 27.2248 84.6885 29.0458L89.1953 37.9727ZM103.934 19.5391V9.53906H91.6875V19.5391V29.5391H103.934V19.5391ZM91.6875 19.5391H101.688V13.9531H91.6875H81.6875V19.5391H91.6875ZM91.6875 13.9531V23.9531H110.938V13.9531V3.95312L91.6875 3.95312V13.9531ZM160.18 13.7383H170.18C170.18 8.21543 165.703 3.73828 160.18 3.73828V13.7383ZM159.148 32.5156L158.386 42.4865C163.541 42.8806 168.147 39.28 169.009 34.1821L159.148 32.5156ZM152.402 32L142.516 30.4947C142.098 33.2451 142.843 36.0455 144.575 38.2232C146.306 40.4009 148.866 41.7589 151.64 41.9709L152.402 32ZM153.348 19.1953L163.346 19.3707C163.393 16.6886 162.361 14.1 160.48 12.1865C158.6 10.2731 156.03 9.19531 153.348 9.19531V19.1953ZM139.34 19.1953H129.34C129.34 24.7182 133.817 29.1953 139.34 29.1953V19.1953ZM139.34 13.7383V3.73828C133.817 3.73828 129.34 8.21543 129.34 13.7383H139.34ZM150.598 25.168H160.598C160.598 19.6451 156.12 15.168 150.598 15.168V25.168ZM150.598 36.3398L140.598 36.3398C140.598 39.075 141.718 41.6909 143.698 43.5781C145.678 45.4653 148.344 46.4593 151.076 46.3284L150.598 36.3398ZM161.168 35.4805L171.132 34.636C170.902 31.9191 169.572 29.414 167.451 27.7008C165.33 25.9876 162.601 25.2149 159.896 25.5617L161.168 35.4805ZM161.598 40.5508L163.336 50.3986C168.431 49.4994 171.999 44.8619 171.562 39.7064L161.598 40.5508ZM137.922 42.0547L127.975 43.081C128.498 48.1556 132.758 52.0226 137.859 52.0545L137.922 42.0547ZM137.363 36.6406L137.256 26.6412C134.444 26.6714 131.775 27.8842 129.902 29.9822C128.03 32.0803 127.127 34.8697 127.416 37.6669L137.363 36.6406ZM143.852 36.5547L144.038 46.5529C149.487 46.4511 153.852 42.0047 153.852 36.5547H143.852ZM143.852 25.168V15.168C138.329 15.168 133.852 19.6451 133.852 25.168H143.852ZM169.633 10L179.633 10C179.633 4.47715 175.156 0 169.633 0V10ZM169.633 25.5547H159.633C159.633 31.0775 164.11 35.5547 169.633 35.5547V25.5547ZM174.359 25.5547H184.359C184.359 20.0318 179.882 15.5547 174.359 15.5547V25.5547ZM174.359 31.2695V41.2695C179.882 41.2695 184.359 36.7924 184.359 31.2695H174.359ZM169.633 31.2695V21.2695C164.11 21.2695 159.633 25.7467 159.633 31.2695H169.633ZM169.633 49.7461V59.7461C175.156 59.7461 179.633 55.2689 179.633 49.7461H169.633ZM162.629 49.7461H152.629C152.629 55.2689 157.106 59.7461 162.629 59.7461V49.7461ZM162.629 10V0C157.106 0 152.629 4.47715 152.629 10H162.629ZM160.18 13.7383H150.18V17.6055H160.18H170.18V13.7383H160.18ZM160.18 17.6055H150.18C150.18 21.7067 150.17 25.6317 149.288 30.8491L159.148 32.5156L169.009 34.1821C170.189 27.1964 170.18 21.8402 170.18 17.6055H160.18ZM159.148 32.5156L159.911 22.5447L153.164 22.0291L152.402 32L151.64 41.9709L158.386 42.4865L159.148 32.5156ZM152.402 32L162.288 33.5053C163.188 27.5953 163.28 23.135 163.346 19.3707L153.348 19.1953L143.349 19.0199C143.286 22.6032 143.206 25.9633 142.516 30.4947L152.402 32ZM153.348 19.1953V9.19531H139.34V19.1953V29.1953L153.348 29.1953V19.1953ZM139.34 19.1953H149.34V13.7383H139.34H129.34V19.1953H139.34ZM139.34 13.7383V23.7383H160.18V13.7383V3.73828L139.34 3.73828V13.7383ZM150.598 25.168H140.598V36.3398L150.598 36.3398H160.598V25.168H150.598ZM150.598 36.3398L151.076 46.3284C154.793 46.1503 158.717 45.8765 162.44 45.3993L161.168 35.4805L159.896 25.5617C156.916 25.9438 153.578 26.1856 150.119 26.3513L150.598 36.3398ZM161.168 35.4805L151.204 36.3249L151.633 41.3952L161.598 40.5508L171.562 39.7064L171.132 34.636L161.168 35.4805ZM161.598 40.5508L159.86 30.7029C152.782 31.9519 144.795 32.0975 137.984 32.0549L137.922 42.0547L137.859 52.0545C144.799 52.0979 154.343 51.9856 163.336 50.3986L161.598 40.5508ZM137.922 42.0547L147.869 41.0284L147.31 35.6143L137.363 36.6406L127.416 37.6669L127.975 43.081L137.922 42.0547ZM137.363 36.6406L137.471 46.64C139.455 46.6187 141.691 46.5968 144.038 46.5529L143.852 36.5547L143.665 26.5564C141.414 26.5985 139.268 26.6196 137.256 26.6412L137.363 36.6406ZM143.852 36.5547H153.852V25.168H143.852H133.852V36.5547L143.852 36.5547ZM143.852 25.168V35.168H150.598V25.168V15.168H143.852V25.168ZM169.633 10H159.633V25.5547H169.633H179.633V10L169.633 10ZM169.633 25.5547V35.5547H174.359V25.5547V15.5547H169.633V25.5547ZM174.359 25.5547H164.359V31.2695H174.359H184.359V25.5547H174.359ZM174.359 31.2695V21.2695H169.633V31.2695V41.2695H174.359V31.2695ZM169.633 31.2695H159.633V49.7461H169.633H179.633V31.2695H169.633ZM169.633 49.7461V39.7461H162.629V49.7461V59.7461H169.633V49.7461ZM162.629 49.7461H172.629V10H162.629H152.629V49.7461H162.629ZM162.629 10V20H169.633V10V0L162.629 0V10ZM208.262 27.2734H218.262C218.262 21.7506 213.785 17.2734 208.262 17.2734V27.2734ZM208.262 32.6875V42.6875C213.785 42.6875 218.262 38.2103 218.262 32.6875H208.262ZM197.219 32.6875V22.6875C191.696 22.6875 187.219 27.1647 187.219 32.6875H197.219ZM197.219 39.9922H187.219C187.219 45.515 191.696 49.9922 197.219 49.9922V39.9922ZM212 39.9922H222C222 34.4693 217.523 29.9922 212 29.9922V39.9922ZM212 45.5781V55.5781C217.523 55.5781 222 51.101 222 45.5781H212ZM175.691 45.5781H165.691C165.691 51.101 170.169 55.5781 175.691 55.5781V45.5781ZM175.691 39.9922V29.9922C170.169 29.9922 165.691 34.4693 165.691 39.9922H175.691ZM190.387 39.9922V49.9922C195.91 49.9922 200.387 45.515 200.387 39.9922H190.387ZM190.387 32.6875H200.387C200.387 27.1647 195.91 22.6875 190.387 22.6875V32.6875ZM179.73 32.6875H169.73C169.73 38.2103 174.208 42.6875 179.73 42.6875V32.6875ZM179.73 12.5781V2.57812C174.208 2.57812 169.73 7.05528 169.73 12.5781H179.73ZM208.004 12.5781H218.004C218.004 7.05528 213.527 2.57812 208.004 2.57812V12.5781ZM208.004 17.9922V27.9922C213.527 27.9922 218.004 23.515 218.004 17.9922H208.004ZM186.648 17.9922V7.99219C181.126 7.99219 176.648 12.4693 176.648 17.9922H186.648ZM186.648 27.2734H176.648C176.648 32.7963 181.126 37.2734 186.648 37.2734V27.2734ZM208.262 27.2734L198.262 27.2734V32.6875H208.262H218.262V27.2734H208.262ZM208.262 32.6875V22.6875L197.219 22.6875V32.6875V42.6875H208.262V32.6875ZM197.219 32.6875H187.219V39.9922H197.219H207.219V32.6875H197.219ZM197.219 39.9922V49.9922H212V39.9922V29.9922H197.219V39.9922ZM212 39.9922H202V45.5781H212H222V39.9922H212ZM212 45.5781V35.5781H175.691V45.5781V55.5781H212V45.5781ZM175.691 45.5781H185.691V39.9922H175.691H165.691V45.5781H175.691ZM175.691 39.9922V49.9922H190.387V39.9922V29.9922H175.691V39.9922ZM190.387 39.9922H200.387V32.6875H190.387H180.387V39.9922H190.387ZM190.387 32.6875V22.6875H179.73V32.6875V42.6875H190.387V32.6875ZM179.73 32.6875H189.73V12.5781H179.73H169.73V32.6875H179.73ZM179.73 12.5781V22.5781L208.004 22.5781V12.5781V2.57812L179.73 2.57812V12.5781ZM208.004 12.5781L198.004 12.5781V17.9922L208.004 17.9922H218.004V12.5781H208.004ZM208.004 17.9922V7.99219H186.648V17.9922V27.9922L208.004 27.9922V17.9922ZM186.648 17.9922H176.648V27.2734H186.648H196.648V17.9922H186.648ZM186.648 27.2734V37.2734H208.262V27.2734V17.2734L186.648 17.2734V27.2734ZM245.516 10.0859H255.516C255.516 4.56309 251.038 0.0859375 245.516 0.0859375V10.0859ZM245.516 21.6875H235.516C235.516 27.2103 239.993 31.6875 245.516 31.6875V21.6875ZM250.457 21.6875H260.457C260.457 16.1647 255.98 11.6875 250.457 11.6875V21.6875ZM250.457 27.2734V37.2734C255.98 37.2734 260.457 32.7963 260.457 27.2734H250.457ZM245.516 27.2734V17.2734C239.993 17.2734 235.516 21.7506 235.516 27.2734H245.516ZM245.516 39.6914V49.6914C251.038 49.6914 255.516 45.2143 255.516 39.6914H245.516ZM238.598 39.6914H228.598C228.598 45.2143 233.075 49.6914 238.598 49.6914V39.6914ZM238.598 10.0859V0.0859375C233.075 0.0859375 228.598 4.56309 228.598 10.0859L238.598 10.0859ZM237.18 13.8242H247.18C247.18 8.30137 242.703 3.82422 237.18 3.82422V13.8242ZM237.18 19.1523V29.1523C242.703 29.1523 247.18 24.6752 247.18 19.1523H237.18ZM213.676 19.1523L203.676 19.1523C203.676 24.6752 208.153 29.1523 213.676 29.1523V19.1523ZM213.676 13.8242V3.82422C208.153 3.82422 203.676 8.30137 203.676 13.8242L213.676 13.8242ZM221.969 13.8242V23.8242C227.492 23.8242 231.969 19.3471 231.969 13.8242H221.969ZM221.969 10V0C216.446 0 211.969 4.47715 211.969 10H221.969ZM228.887 10L238.887 10C238.887 4.47715 234.41 0 228.887 0V10ZM228.887 13.8242H218.887C218.887 19.3471 223.364 23.8242 228.887 23.8242V13.8242ZM225.406 35.6523L225.48 25.6526C225.431 25.6523 225.382 25.6523 225.333 25.6526L225.406 35.6523ZM225.406 25.2539L225.619 15.2562C225.476 15.2531 225.332 15.2532 225.189 15.2563L225.406 25.2539ZM246.676 43.6875H256.676C256.676 38.1647 252.199 33.6875 246.676 33.6875V43.6875ZM246.676 49.1875V59.1875C252.199 59.1875 256.676 54.7103 256.676 49.1875H246.676ZM219.176 49.1875H209.176C209.176 54.7103 213.653 59.1875 219.176 59.1875V49.1875ZM219.176 37.457V27.457C213.653 27.457 209.176 31.9342 209.176 37.457H219.176ZM226.094 37.457H236.094C236.094 31.9342 231.617 27.457 226.094 27.457V37.457ZM226.094 43.6875H216.094C216.094 49.2103 220.571 53.6875 226.094 53.6875V43.6875ZM245.516 10.0859L235.516 10.0859V21.6875H245.516H255.516V10.0859H245.516ZM245.516 21.6875V31.6875H250.457V21.6875V11.6875H245.516V21.6875ZM250.457 21.6875H240.457V27.2734H250.457H260.457V21.6875H250.457ZM250.457 27.2734V17.2734H245.516V27.2734V37.2734H250.457V27.2734ZM245.516 27.2734H235.516V39.6914H245.516H255.516V27.2734H245.516ZM245.516 39.6914V29.6914H238.598V39.6914V49.6914H245.516V39.6914ZM238.598 39.6914H248.598V10.0859H238.598L228.598 10.0859V39.6914H238.598ZM238.598 10.0859V20.0859H245.516V10.0859V0.0859375L238.598 0.0859375V10.0859ZM237.18 13.8242H227.18V19.1523H237.18H247.18V13.8242H237.18ZM237.18 19.1523V9.15234L213.676 9.15234V19.1523V29.1523H237.18V19.1523ZM213.676 19.1523H223.676V13.8242H213.676L203.676 13.8242V19.1523L213.676 19.1523ZM213.676 13.8242V23.8242H221.969V13.8242V3.82422L213.676 3.82422V13.8242ZM221.969 13.8242H231.969V10H221.969H211.969V13.8242H221.969ZM221.969 10V20H228.887V10V0H221.969V10ZM228.887 10H218.887V13.8242H228.887H238.887V10L228.887 10ZM228.887 13.8242V23.8242H237.18V13.8242V3.82422H228.887V13.8242ZM225.406 20.0547V30.0547C226.531 30.0547 226.696 30.3697 226.35 30.0968C226.161 29.9475 225.88 29.6587 225.653 29.2037C225.419 28.7368 225.332 28.2729 225.332 27.918H235.332H245.332C245.332 22.357 242.754 17.5637 238.739 14.3954C234.88 11.351 230.082 10.0547 225.406 10.0547V20.0547ZM235.332 27.918H225.332C225.332 27.5621 225.42 27.0793 225.669 26.5852C225.913 26.1028 226.216 25.7942 226.425 25.6324C226.804 25.3394 226.647 25.6613 225.48 25.6526L225.406 35.6523L225.332 45.6521C229.966 45.6864 234.772 44.4614 238.664 41.4506C242.735 38.3007 245.332 33.4973 245.332 27.918H235.332ZM225.406 35.6523L225.333 25.6526C224.128 25.6615 223.935 25.3307 224.293 25.6054C224.494 25.7591 224.799 26.0633 225.047 26.55C225.302 27.0498 225.395 27.5449 225.395 27.918H215.395H205.395C205.395 33.5383 208.038 38.3447 212.125 41.4776C216.028 44.4701 220.841 45.6862 225.48 45.6521L225.406 35.6523ZM215.395 27.918H225.395C225.395 28.29 225.302 28.7662 225.064 29.2388C224.832 29.6982 224.549 29.9827 224.368 30.1242C224.042 30.3793 224.243 30.0547 225.406 30.0547V20.0547V10.0547C216.471 10.0547 205.395 15.6025 205.395 27.918H215.395ZM225.406 25.2539L225.189 15.2563C223.102 15.3016 219.877 15.7513 216.961 17.9796C213.579 20.5634 212.141 24.3486 212.141 27.918H222.141H232.141C232.141 28.6625 232.004 29.7332 231.463 30.9136C230.906 32.1283 230.068 33.1346 229.104 33.871C227.327 35.2292 225.734 35.2491 225.624 35.2515L225.406 25.2539ZM222.141 27.918H212.141C212.141 31.492 213.592 35.3526 217.105 37.9382C220.097 40.1396 223.369 40.4961 225.406 40.4961V30.4961V20.4961C225.467 20.4961 227.106 20.4658 228.959 21.8294C229.973 22.5757 230.857 23.6099 231.44 24.8656C232.005 26.0805 232.141 27.1768 232.141 27.918H222.141ZM225.406 30.4961V40.4961C227.438 40.4961 230.645 40.1493 233.61 38.0657C237.137 35.5876 238.801 31.7381 238.801 27.918H228.801H218.801C218.801 27.0865 218.965 25.922 219.581 24.6692C220.211 23.3883 221.13 22.3918 222.111 21.7019C223.884 20.4562 225.394 20.4961 225.406 20.4961V30.4961ZM228.801 27.918H238.801C238.801 24.1082 237.154 20.3277 233.756 17.8474C230.86 15.7347 227.695 15.3003 225.619 15.2562L225.406 25.2539L225.194 35.2516C225.137 35.2505 223.669 35.2458 221.966 34.0032C221.031 33.321 220.157 32.3492 219.556 31.1087C218.966 29.8906 218.801 28.7524 218.801 27.918H228.801ZM246.676 43.6875H236.676V49.1875H246.676H256.676V43.6875H246.676ZM246.676 49.1875V39.1875H219.176V49.1875V59.1875H246.676V49.1875ZM219.176 49.1875H229.176V37.457H219.176H209.176V49.1875H219.176ZM219.176 37.457V47.457H226.094V37.457V27.457H219.176V37.457ZM226.094 37.457H216.094V43.6875H226.094H236.094V37.457H226.094ZM226.094 43.6875V53.6875H246.676V43.6875V33.6875H226.094V43.6875Z" fill="white" mask="url(#path-1-outside-1_6526_5754)"/>
</g>
<defs>
<filter id="filter0_d_6526_5754" x="0" y="0" width="264.457" height="67.875" filterUnits="userSpaceOnUse" color-interpolation-filters="sRGB">
<feFlood flood-opacity="0" result="BackgroundImageFix"/>
<feColorMatrix in="SourceAlpha" type="matrix" values="0 0 0 0 0 0 0 0 0 0 0 0 0 0 0 0 0 0 127 0" result="hardAlpha"/>
<feOffset dy="4"/>
<feGaussianBlur stdDeviation="2"/>
<feComposite in2="hardAlpha" operator="out"/>
<feColorMatrix type="matrix" values="0 0 0 0 0 0 0 0 0 0 0 0 0 0 0 0 0 0 0.07 0"/>
<feBlend mode="normal" in2="BackgroundImageFix" result="effect1_dropShadow_6526_5754"/>
<feBlend mode="normal" in="SourceGraphic" in2="effect1_dropShadow_6526_5754" result="shape"/>
</filter>
</defs>
</svg>
