<svg width="310" height="68" viewBox="0 0 310 68" fill="none" xmlns="http://www.w3.org/2000/svg">
<g filter="url(#filter0_d_6526_5768)">
<mask id="path-1-outside-1_6526_5768" maskUnits="userSpaceOnUse" x="3.09766" y="-0.507813" width="303" height="61" fill="black">
<rect fill="white" x="3.09766" y="-0.507813" width="303" height="61"/>
<path d="M46.957 11.5469V16.9609H37.332C38.3418 19.1309 41.5215 21.4082 49.0195 22.0312L46.5273 27.2734C38.6641 26.6504 34.0879 23.9219 32.0469 20.2695C30.0059 23.9004 25.5371 26.6504 17.6953 27.2734L15.2891 22.0312C22.6367 21.3008 25.752 19.0664 26.8477 16.9609H17.3086V11.5469L46.957 11.5469ZM50.1797 28.3906V33.7617H14L14 28.3906H50.1797ZM45.8828 35.7812V49.7461H39.0078V41.2383H18.0391V35.7812H45.8828ZM83.8242 10V18.8086H88.7656V24.4805H83.8242V32.9453H76.9062V10H83.8242ZM72.4805 12.0625C72.4805 23.0195 66.0352 30.1953 54.0039 33.1172L51.168 27.918C59.6758 25.8984 64.0371 21.9453 64.9609 17.4766H53.4023V12.0625H72.4805ZM83.8242 34.4492V49.7461H76.9062V39.8633H56.625V34.4492H83.8242ZM134.227 10V49.7461H127.738V30.4102H125.16V47.9414H118.887V10.6016H125.16V24.9531H127.738V10H134.227ZM115.32 14.4687V19.9687H107.457V35.5664C110.508 35.4805 113.559 35.2871 116.91 34.707L117.383 40.25C112.484 41.1523 108.145 41.2812 103.461 41.2812H100.539V14.4687H115.32ZM173.93 28.1758V33.5039L137.664 33.5039V28.1758H173.93ZM155.711 34.9648C164.348 34.9648 169.59 37.6289 169.633 42.4414C169.59 47.168 164.348 49.832 155.711 49.832C146.945 49.832 141.66 47.168 141.66 42.4414C141.66 37.6289 146.945 34.9648 155.711 34.9648ZM155.711 40.1641C150.77 40.1641 148.664 40.7656 148.707 42.4414C148.664 44.0312 150.77 44.6328 155.711 44.6328C160.523 44.6328 162.715 44.0312 162.715 42.4414C162.715 40.7656 160.523 40.1641 155.711 40.1641ZM155.797 10.7734C164.605 10.8164 170.449 13.8672 170.492 18.7227C170.449 23.6211 164.605 26.6289 155.797 26.6719C146.902 26.6289 141.016 23.6211 141.059 18.7227C141.016 13.8672 146.902 10.8164 155.797 10.7734ZM155.797 16.0586C150.77 16.1016 148.191 16.7891 148.234 18.7227C148.191 20.6133 150.77 21.3437 155.797 21.3437C160.695 21.3437 163.359 20.6133 163.359 18.7227C163.359 16.7891 160.695 16.1016 155.797 16.0586ZM209.25 10V49.875H202.289V10H209.25ZM187.422 12.6641C193.48 12.6211 198.035 18.207 198.035 26.9727C198.035 35.8672 193.48 41.4102 187.422 41.4102C181.234 41.4102 176.637 35.8672 176.637 26.9727C176.637 18.207 181.234 12.6211 187.422 12.6641ZM187.422 18.8945C184.887 18.8516 183.297 21.4727 183.297 26.9727C183.297 32.5586 184.887 35.0937 187.422 35.0937C189.785 35.0937 191.418 32.5586 191.418 26.9727C191.418 21.4727 189.785 18.8516 187.422 18.8945ZM255.828 27.3164V32.9023H227.125V13.4805H234V27.3164H255.828ZM259.609 39.8203V45.5781H223.301V39.8203H259.609ZM294.801 10.0859V39.3477H287.926V10.0859H294.801ZM295.789 43.6875V49.1875H267.688V36.8125H274.562V43.6875H295.789ZM281.953 12.5352V25.9414H270.223V29.1211C277.033 29.0781 281.094 28.8633 285.562 27.918L286.336 33.375C281.051 34.4922 276.023 34.6641 267.086 34.6211H263.434V20.957H275.164V17.9492H263.391V12.5352H281.953Z"/>
</mask>
<path d="M46.957 11.5469V16.9609H37.332C38.3418 19.1309 41.5215 21.4082 49.0195 22.0312L46.5273 27.2734C38.6641 26.6504 34.0879 23.9219 32.0469 20.2695C30.0059 23.9004 25.5371 26.6504 17.6953 27.2734L15.2891 22.0312C22.6367 21.3008 25.752 19.0664 26.8477 16.9609H17.3086V11.5469L46.957 11.5469ZM50.1797 28.3906V33.7617H14L14 28.3906H50.1797ZM45.8828 35.7812V49.7461H39.0078V41.2383H18.0391V35.7812H45.8828ZM83.8242 10V18.8086H88.7656V24.4805H83.8242V32.9453H76.9062V10H83.8242ZM72.4805 12.0625C72.4805 23.0195 66.0352 30.1953 54.0039 33.1172L51.168 27.918C59.6758 25.8984 64.0371 21.9453 64.9609 17.4766H53.4023V12.0625H72.4805ZM83.8242 34.4492V49.7461H76.9062V39.8633H56.625V34.4492H83.8242ZM134.227 10V49.7461H127.738V30.4102H125.16V47.9414H118.887V10.6016H125.16V24.9531H127.738V10H134.227ZM115.32 14.4687V19.9687H107.457V35.5664C110.508 35.4805 113.559 35.2871 116.91 34.707L117.383 40.25C112.484 41.1523 108.145 41.2812 103.461 41.2812H100.539V14.4687H115.32ZM173.93 28.1758V33.5039L137.664 33.5039V28.1758H173.93ZM155.711 34.9648C164.348 34.9648 169.59 37.6289 169.633 42.4414C169.59 47.168 164.348 49.832 155.711 49.832C146.945 49.832 141.66 47.168 141.66 42.4414C141.66 37.6289 146.945 34.9648 155.711 34.9648ZM155.711 40.1641C150.77 40.1641 148.664 40.7656 148.707 42.4414C148.664 44.0312 150.77 44.6328 155.711 44.6328C160.523 44.6328 162.715 44.0312 162.715 42.4414C162.715 40.7656 160.523 40.1641 155.711 40.1641ZM155.797 10.7734C164.605 10.8164 170.449 13.8672 170.492 18.7227C170.449 23.6211 164.605 26.6289 155.797 26.6719C146.902 26.6289 141.016 23.6211 141.059 18.7227C141.016 13.8672 146.902 10.8164 155.797 10.7734ZM155.797 16.0586C150.77 16.1016 148.191 16.7891 148.234 18.7227C148.191 20.6133 150.77 21.3437 155.797 21.3437C160.695 21.3437 163.359 20.6133 163.359 18.7227C163.359 16.7891 160.695 16.1016 155.797 16.0586ZM209.25 10V49.875H202.289V10H209.25ZM187.422 12.6641C193.48 12.6211 198.035 18.207 198.035 26.9727C198.035 35.8672 193.48 41.4102 187.422 41.4102C181.234 41.4102 176.637 35.8672 176.637 26.9727C176.637 18.207 181.234 12.6211 187.422 12.6641ZM187.422 18.8945C184.887 18.8516 183.297 21.4727 183.297 26.9727C183.297 32.5586 184.887 35.0937 187.422 35.0937C189.785 35.0937 191.418 32.5586 191.418 26.9727C191.418 21.4727 189.785 18.8516 187.422 18.8945ZM255.828 27.3164V32.9023H227.125V13.4805H234V27.3164H255.828ZM259.609 39.8203V45.5781H223.301V39.8203H259.609ZM294.801 10.0859V39.3477H287.926V10.0859H294.801ZM295.789 43.6875V49.1875H267.688V36.8125H274.562V43.6875H295.789ZM281.953 12.5352V25.9414H270.223V29.1211C277.033 29.0781 281.094 28.8633 285.562 27.918L286.336 33.375C281.051 34.4922 276.023 34.6641 267.086 34.6211H263.434V20.957H275.164V17.9492H263.391V12.5352H281.953Z" fill="#11DCA9"/>
<path d="M46.957 11.5469H56.957C56.957 6.02403 52.4799 1.54687 46.957 1.54687V11.5469ZM46.957 16.9609V26.9609C52.4799 26.9609 56.957 22.4838 56.957 16.9609H46.957ZM37.332 16.9609V6.96094C33.9162 6.96094 30.7367 8.70447 28.9002 11.5846C27.0638 14.4648 26.8245 18.083 28.2656 21.18L37.332 16.9609ZM49.0195 22.0312L58.0509 26.3248C59.4607 23.3594 59.3249 19.8908 57.6875 17.0446C56.0501 14.1985 53.1199 12.3375 49.8476 12.0656L49.0195 22.0312ZM46.5273 27.2734L45.7375 37.2422C49.8712 37.5697 53.7783 35.3121 55.5587 31.567L46.5273 27.2734ZM32.0469 20.2695L40.7763 15.3913C39.0113 12.2328 35.6777 10.2741 32.0595 10.2695C28.4412 10.265 25.1027 12.2153 23.3297 15.3694L32.0469 20.2695ZM17.6953 27.2734L8.60702 31.4451C10.3578 35.2592 14.3038 37.5744 18.4873 37.242L17.6953 27.2734ZM15.2891 22.0312L14.2998 12.0803C11.0845 12.4 8.22174 14.2535 6.6143 17.0565C5.00686 19.8594 4.85283 23.2663 6.20077 26.2029L15.2891 22.0312ZM26.8477 16.9609L35.7183 21.5773C37.3316 18.4774 37.2095 14.7601 35.3965 11.7727C33.5834 8.78521 30.3423 6.96094 26.8477 6.96094V16.9609ZM17.3086 16.9609H7.30859C7.30859 22.4838 11.7857 26.9609 17.3086 26.9609V16.9609ZM17.3086 11.5469V1.54688C11.7857 1.54688 7.30859 6.02403 7.30859 11.5469H17.3086ZM50.1797 28.3906H60.1797C60.1797 22.8678 55.7025 18.3906 50.1797 18.3906V28.3906ZM50.1797 33.7617V43.7617C55.7025 43.7617 60.1797 39.2846 60.1797 33.7617H50.1797ZM14 33.7617H4C4 39.2846 8.47715 43.7617 14 43.7617V33.7617ZM14 28.3906V18.3906C8.47715 18.3906 4 22.8678 4 28.3906H14ZM45.8828 35.7812H55.8828C55.8828 30.2584 51.4057 25.7812 45.8828 25.7812V35.7812ZM45.8828 49.7461V59.7461C51.4057 59.7461 55.8828 55.2689 55.8828 49.7461H45.8828ZM39.0078 49.7461H29.0078C29.0078 55.2689 33.485 59.7461 39.0078 59.7461V49.7461ZM39.0078 41.2383H49.0078C49.0078 35.7154 44.5307 31.2383 39.0078 31.2383V41.2383ZM18.0391 41.2383H8.03906C8.03906 46.7611 12.5162 51.2383 18.0391 51.2383V41.2383ZM18.0391 35.7812V25.7812C12.5162 25.7812 8.03906 30.2584 8.03906 35.7812H18.0391ZM46.957 11.5469L36.957 11.5469V16.9609H46.957H56.957V11.5469H46.957ZM46.957 16.9609V6.96094L37.332 6.96094V16.9609V26.9609H46.957V16.9609ZM37.332 16.9609L28.2656 21.18C31.6371 28.4252 39.7093 31.2921 48.1914 31.9969L49.0195 22.0312L49.8476 12.0656C46.9009 11.8207 45.5597 11.3022 45.1733 11.1113C44.8433 10.9482 45.7271 11.2993 46.3984 12.7419L37.332 16.9609ZM49.0195 22.0312L39.9882 17.7377L37.496 22.9798L46.5273 27.2734L55.5587 31.567L58.0509 26.3248L49.0195 22.0312ZM46.5273 27.2734L47.3172 17.3047C41.1754 16.818 40.5322 14.9544 40.7763 15.3913L32.0469 20.2695L23.3174 25.1477C27.6436 32.8893 36.1527 36.4827 45.7375 37.2422L46.5273 27.2734ZM32.0469 20.2695L23.3297 15.3694C23.3261 15.3759 23.2991 15.4259 23.2001 15.5189C23.0969 15.6158 22.8718 15.7998 22.445 16.0209C21.5645 16.4773 19.8607 17.0699 16.9033 17.3049L17.6953 27.2734L18.4873 37.242C28.1675 36.4729 36.4762 32.7975 40.764 25.1697L32.0469 20.2695ZM17.6953 27.2734L26.7836 23.1018L24.3774 17.8596L15.2891 22.0312L6.20077 26.2029L8.60702 31.4451L17.6953 27.2734ZM15.2891 22.0312L16.2783 31.9822C24.736 31.1414 32.2498 28.2424 35.7183 21.5773L26.8477 16.9609L17.977 12.3446C18.6009 11.1456 19.3165 10.8804 18.9564 11.0596C18.5306 11.2716 17.187 11.7933 14.2998 12.0803L15.2891 22.0312ZM26.8477 16.9609V6.96094H17.3086V16.9609V26.9609H26.8477V16.9609ZM17.3086 16.9609H27.3086V11.5469H17.3086H7.30859L7.30859 16.9609H17.3086ZM17.3086 11.5469V21.5469H46.957V11.5469V1.54687L17.3086 1.54688V11.5469ZM50.1797 28.3906H40.1797V33.7617H50.1797H60.1797V28.3906H50.1797ZM50.1797 33.7617V23.7617H14L14 33.7617V43.7617H50.1797V33.7617ZM14 33.7617H24V28.3906H14H4L4 33.7617H14ZM14 28.3906L14 38.3906H50.1797V28.3906V18.3906H14V28.3906ZM45.8828 35.7812H35.8828V49.7461H45.8828H55.8828V35.7812H45.8828ZM45.8828 49.7461V39.7461H39.0078V49.7461V59.7461H45.8828V49.7461ZM39.0078 49.7461H49.0078V41.2383H39.0078H29.0078V49.7461H39.0078ZM39.0078 41.2383V31.2383H18.0391V41.2383V51.2383H39.0078V41.2383ZM18.0391 41.2383H28.0391V35.7812H18.0391H8.03906V41.2383H18.0391ZM18.0391 35.7812V45.7812H45.8828V35.7812V25.7812H18.0391V35.7812ZM83.8242 10H93.8242C93.8242 4.47715 89.3471 0 83.8242 0V10ZM83.8242 18.8086L73.8242 18.8086C73.8242 24.3314 78.3014 28.8086 83.8242 28.8086V18.8086ZM88.7656 18.8086H98.7656C98.7656 13.2857 94.2885 8.80859 88.7656 8.80859V18.8086ZM88.7656 24.4805V34.4805C94.2885 34.4805 98.7656 30.0033 98.7656 24.4805H88.7656ZM83.8242 24.4805V14.4805C78.3014 14.4805 73.8242 18.9576 73.8242 24.4805L83.8242 24.4805ZM83.8242 32.9453V42.9453C89.3471 42.9453 93.8242 38.4682 93.8242 32.9453H83.8242ZM76.9062 32.9453H66.9062C66.9062 38.4682 71.3834 42.9453 76.9062 42.9453V32.9453ZM76.9062 10V0C71.3834 0 66.9062 4.47715 66.9062 10H76.9062ZM72.4805 12.0625H82.4805C82.4805 6.53965 78.0033 2.0625 72.4805 2.0625V12.0625ZM54.0039 33.1172L45.2249 37.9057C47.3935 41.8814 51.9631 43.9035 56.3639 42.8347L54.0039 33.1172ZM51.168 27.918L48.8584 18.1883C45.8259 18.9082 43.3024 21.0008 42.0338 23.8477C40.7652 26.6946 40.8965 29.9703 42.389 32.7065L51.168 27.918ZM64.9609 17.4766L74.7539 19.5011C75.3627 16.5561 74.6138 13.4935 72.7148 11.1617C70.8158 8.82992 67.9682 7.47656 64.9609 7.47656V17.4766ZM53.4023 17.4766H43.4023C43.4023 22.9994 47.8795 27.4766 53.4023 27.4766V17.4766ZM53.4023 12.0625V2.0625C47.8795 2.0625 43.4023 6.53965 43.4023 12.0625L53.4023 12.0625ZM83.8242 34.4492H93.8242C93.8242 28.9264 89.3471 24.4492 83.8242 24.4492V34.4492ZM83.8242 49.7461V59.7461C89.3471 59.7461 93.8242 55.2689 93.8242 49.7461H83.8242ZM76.9062 49.7461H66.9062C66.9062 55.2689 71.3834 59.7461 76.9062 59.7461V49.7461ZM76.9062 39.8633H86.9062C86.9062 34.3404 82.4291 29.8633 76.9062 29.8633V39.8633ZM56.625 39.8633H46.625C46.625 45.3861 51.1022 49.8633 56.625 49.8633V39.8633ZM56.625 34.4492V24.4492C51.1022 24.4492 46.625 28.9264 46.625 34.4492H56.625ZM83.8242 10H73.8242V18.8086L83.8242 18.8086H93.8242V10H83.8242ZM83.8242 18.8086V28.8086H88.7656V18.8086V8.80859H83.8242V18.8086ZM88.7656 18.8086H78.7656V24.4805H88.7656H98.7656V18.8086H88.7656ZM88.7656 24.4805V14.4805H83.8242V24.4805V34.4805H88.7656V24.4805ZM83.8242 24.4805L73.8242 24.4805V32.9453H83.8242H93.8242V24.4805H83.8242ZM83.8242 32.9453V22.9453L76.9062 22.9453V32.9453V42.9453H83.8242V32.9453ZM76.9062 32.9453H86.9062V10H76.9062H66.9062V32.9453H76.9062ZM76.9062 10V20L83.8242 20V10V0H76.9062V10ZM72.4805 12.0625H62.4805C62.4805 15.4618 61.5371 17.5351 60.2572 18.9849C58.8652 20.5618 56.2905 22.2712 51.6439 23.3997L54.0039 33.1172L56.3639 42.8347C63.7485 41.0413 70.4122 37.7019 75.2506 32.2211C80.2012 26.6133 82.4805 19.6202 82.4805 12.0625H72.4805ZM54.0039 33.1172L62.7829 28.3287L59.9469 23.1294L51.168 27.918L42.389 32.7065L45.2249 37.9057L54.0039 33.1172ZM51.168 27.918L53.4775 37.6476C63.5744 35.2509 72.6723 29.5702 74.7539 19.5011L64.9609 17.4766L55.168 15.4521C55.2516 15.0476 55.4202 15.2053 54.6955 15.78C53.8831 16.4241 52.1313 17.4114 48.8584 18.1883L51.168 27.918ZM64.9609 17.4766V7.47656H53.4023V17.4766V27.4766H64.9609V17.4766ZM53.4023 17.4766H63.4023V12.0625H53.4023L43.4023 12.0625V17.4766H53.4023ZM53.4023 12.0625V22.0625H72.4805V12.0625V2.0625L53.4023 2.0625V12.0625ZM83.8242 34.4492H73.8242V49.7461H83.8242H93.8242V34.4492H83.8242ZM83.8242 49.7461V39.7461H76.9062V49.7461V59.7461H83.8242V49.7461ZM76.9062 49.7461H86.9062V39.8633H76.9062H66.9062V49.7461H76.9062ZM76.9062 39.8633V29.8633H56.625V39.8633V49.8633H76.9062V39.8633ZM56.625 39.8633H66.625V34.4492H56.625H46.625V39.8633H56.625ZM56.625 34.4492V44.4492H83.8242V34.4492V24.4492L56.625 24.4492V34.4492ZM134.227 10H144.227C144.227 4.47715 139.749 0 134.227 0V10ZM134.227 49.7461V59.7461C139.749 59.7461 144.227 55.2689 144.227 49.7461L134.227 49.7461ZM127.738 49.7461H117.738C117.738 55.2689 122.215 59.7461 127.738 59.7461V49.7461ZM127.738 30.4102H137.738C137.738 24.8873 133.261 20.4102 127.738 20.4102V30.4102ZM125.16 30.4102V20.4102C119.637 20.4102 115.16 24.8873 115.16 30.4102H125.16ZM125.16 47.9414V57.9414C130.683 57.9414 135.16 53.4643 135.16 47.9414H125.16ZM118.887 47.9414H108.887C108.887 53.4643 113.364 57.9414 118.887 57.9414V47.9414ZM118.887 10.6016V0.601562C113.364 0.601562 108.887 5.07872 108.887 10.6016L118.887 10.6016ZM125.16 10.6016H135.16C135.16 5.07872 130.683 0.601562 125.16 0.601562V10.6016ZM125.16 24.9531H115.16C115.16 30.476 119.637 34.9531 125.16 34.9531V24.9531ZM127.738 24.9531V34.9531C133.261 34.9531 137.738 30.476 137.738 24.9531H127.738ZM127.738 10V0C122.215 0 117.738 4.47715 117.738 10H127.738ZM115.32 14.4687H125.32C125.32 8.9459 120.843 4.46875 115.32 4.46875V14.4687ZM115.32 19.9687V29.9688C120.843 29.9688 125.32 25.4916 125.32 19.9687H115.32ZM107.457 19.9687V9.96875C101.934 9.96875 97.457 14.4459 97.457 19.9687H107.457ZM107.457 35.5664H97.457C97.457 38.2674 98.5496 40.8535 100.486 42.7363C102.423 44.6191 105.039 45.6385 107.739 45.5624L107.457 35.5664ZM116.91 34.707L126.874 33.8574C126.636 31.0655 125.237 28.5015 123.019 26.7898C120.801 25.0781 117.966 24.3757 115.205 24.8535L116.91 34.707ZM117.383 40.25L119.194 50.0845C124.257 49.152 127.784 44.5291 127.347 39.4004L117.383 40.25ZM100.539 41.2812H90.5391C90.5391 46.8041 95.0162 51.2812 100.539 51.2812V41.2812ZM100.539 14.4687V4.46875C95.0162 4.46875 90.5391 8.9459 90.5391 14.4687H100.539ZM134.227 10H124.227V49.7461H134.227L144.227 49.7461V10H134.227ZM134.227 49.7461V39.7461H127.738V49.7461V59.7461H134.227V49.7461ZM127.738 49.7461H137.738V30.4102H127.738H117.738V49.7461H127.738ZM127.738 30.4102V20.4102H125.16V30.4102V40.4102H127.738V30.4102ZM125.16 30.4102H115.16V47.9414H125.16H135.16V30.4102H125.16ZM125.16 47.9414V37.9414H118.887V47.9414V57.9414H125.16V47.9414ZM118.887 47.9414H128.887V10.6016H118.887L108.887 10.6016V47.9414H118.887ZM118.887 10.6016V20.6016H125.16V10.6016V0.601562L118.887 0.601562V10.6016ZM125.16 10.6016H115.16V24.9531H125.16H135.16V10.6016H125.16ZM125.16 24.9531V34.9531H127.738V24.9531V14.9531H125.16V24.9531ZM127.738 24.9531H137.738V10H127.738H117.738V24.9531H127.738ZM127.738 10V20H134.227V10V0L127.738 0V10ZM115.32 14.4687H105.32V19.9687H115.32H125.32V14.4687H115.32ZM115.32 19.9687V9.96875L107.457 9.96875V19.9687V29.9688H115.32V19.9687ZM107.457 19.9687H97.457V35.5664H107.457H117.457V19.9687H107.457ZM107.457 35.5664L107.739 45.5624C111.033 45.4696 114.608 45.2541 118.616 44.5605L116.91 34.707L115.205 24.8535C112.509 25.3201 109.983 25.4913 107.175 25.5704L107.457 35.5664ZM116.91 34.707L106.946 35.5567L107.419 41.0996L117.383 40.25L127.347 39.4004L126.874 33.8574L116.91 34.707ZM117.383 40.25L115.571 30.4155C111.579 31.1508 107.963 31.2812 103.461 31.2812V41.2812V51.2812C108.326 51.2812 113.39 51.1539 119.194 50.0845L117.383 40.25ZM103.461 41.2812V31.2812H100.539V41.2812V51.2812H103.461V41.2812ZM100.539 41.2812H110.539V14.4687H100.539H90.5391V41.2812H100.539ZM100.539 14.4687V24.4687H115.32V14.4687V4.46875H100.539V14.4687ZM173.93 28.1758H183.93C183.93 22.6529 179.453 18.1758 173.93 18.1758V28.1758ZM173.93 33.5039V43.5039C179.453 43.5039 183.93 39.0268 183.93 33.5039H173.93ZM137.664 33.5039H127.664C127.664 39.0268 132.141 43.5039 137.664 43.5039V33.5039ZM137.664 28.1758V18.1758C132.141 18.1758 127.664 22.6529 127.664 28.1758H137.664ZM169.633 42.4414L179.632 42.5323C179.633 42.4723 179.633 42.4122 179.632 42.3521L169.633 42.4414ZM148.707 42.4414L158.703 42.7116C158.708 42.5361 158.708 42.3606 158.704 42.1851L148.707 42.4414ZM155.797 10.7734L155.846 0.773557C155.813 0.773398 155.781 0.773398 155.749 0.773554L155.797 10.7734ZM170.492 18.7227L180.492 18.8104C180.492 18.7516 180.492 18.6929 180.492 18.6342L170.492 18.7227ZM155.797 26.6719L155.749 36.6718C155.781 36.6719 155.813 36.6719 155.846 36.6718L155.797 26.6719ZM141.059 18.7227L151.058 18.8104C151.059 18.7516 151.059 18.6929 151.058 18.6342L141.059 18.7227ZM155.797 16.0586L155.885 6.05898C155.827 6.05847 155.769 6.05847 155.711 6.05896L155.797 16.0586ZM148.234 18.7227L158.232 18.9499C158.235 18.8001 158.235 18.6503 158.232 18.5005L148.234 18.7227ZM173.93 28.1758H163.93V33.5039H173.93H183.93V28.1758H173.93ZM173.93 33.5039V23.5039H137.664V33.5039V43.5039L173.93 43.5039V33.5039ZM137.664 33.5039L147.664 33.5039V28.1758H137.664H127.664V33.5039H137.664ZM137.664 28.1758V38.1758L173.93 38.1758V28.1758V18.1758H137.664V28.1758ZM155.711 34.9648V44.9648C157.376 44.9648 158.682 45.0948 159.653 45.2798C160.645 45.4686 161.111 45.6808 161.217 45.7373C161.309 45.7855 160.868 45.574 160.395 44.8807C159.87 44.1126 159.64 43.2368 159.633 42.5307L169.633 42.4414L179.632 42.3521C179.571 35.4954 175.463 30.6477 170.572 28.0596C166.14 25.7144 160.817 24.9648 155.711 24.9648V34.9648ZM169.633 42.4414L159.633 42.3505C159.64 41.5849 159.893 40.6776 160.429 39.9019C160.911 39.2057 161.352 38.9996 161.249 39.054C161.133 39.1147 160.657 39.328 159.661 39.517C158.684 39.7021 157.375 39.832 155.711 39.832V49.832V59.832C160.822 59.832 166.126 59.0808 170.541 56.7644C175.382 54.2243 179.57 49.4195 179.632 42.5323L169.633 42.4414ZM155.711 49.832V39.832C154.006 39.832 152.663 39.701 151.658 39.5128C150.632 39.3206 150.138 39.1025 150.012 39.037C149.897 38.9772 150.352 39.185 150.847 39.9019C151.403 40.7045 151.66 41.6465 151.66 42.4414H141.66L131.66 42.4414C131.66 49.4166 135.921 54.2519 140.785 56.7813C145.218 59.0864 150.556 59.832 155.711 59.832V49.832ZM141.66 42.4414H151.66C151.66 43.1759 151.425 44.0858 150.882 44.8807C150.395 45.595 149.94 45.8082 150.043 45.7544C150.16 45.6932 150.644 45.4761 151.665 45.2841C152.666 45.096 154.006 44.9648 155.711 44.9648V34.9648V24.9648C150.56 24.9648 145.204 25.7088 140.754 28.0424C135.838 30.6204 131.66 35.4986 131.66 42.4414L141.66 42.4414ZM155.711 40.1641V30.1641C153.197 30.1641 150.067 30.2732 147.326 31.1392C145.878 31.5969 143.634 32.5365 141.727 34.6099C139.548 36.98 138.639 39.9202 138.71 42.6977L148.707 42.4414L158.704 42.1851C158.753 44.1247 158.092 46.3613 156.449 48.1473C155.08 49.6366 153.663 50.1116 153.353 50.2095C152.978 50.3282 152.923 50.2903 153.448 50.2416C153.925 50.1974 154.651 50.1641 155.711 50.1641V40.1641ZM148.707 42.4414L138.711 42.1712C138.632 45.0861 139.647 48.0582 141.872 50.377C143.789 52.3753 146.008 53.2648 147.408 53.694C150.099 54.5188 153.177 54.6328 155.711 54.6328V44.6328V34.6328C154.653 34.6328 153.92 34.5996 153.433 34.5552C152.9 34.5066 152.927 34.4671 153.271 34.5726C153.533 34.6527 154.925 35.0937 156.305 36.5321C157.048 37.3063 157.713 38.2979 158.158 39.4864C158.599 40.6635 158.729 41.7806 158.703 42.7116L148.707 42.4414ZM155.711 44.6328V54.6328C158.212 54.6328 161.25 54.514 163.924 53.7017C165.309 53.281 167.464 52.4254 169.36 50.5341C171.554 48.3454 172.715 45.4486 172.715 42.4414H162.715H152.715C152.715 41.4671 152.888 40.343 153.363 39.1894C153.838 38.0325 154.515 37.0928 155.235 36.375C156.569 35.0436 157.876 34.6365 158.111 34.5649C158.428 34.4687 158.438 34.5083 157.919 34.5561C157.442 34.6 156.73 34.6328 155.711 34.6328V44.6328ZM162.715 42.4414H172.715C172.715 39.5719 171.668 36.698 169.508 34.4498C167.618 32.4831 165.436 31.5791 164.005 31.1311C161.281 30.2783 158.193 30.1641 155.711 30.1641V40.1641V50.1641C156.731 50.1641 157.437 50.197 157.904 50.2407C158.415 50.2886 158.378 50.3265 158.03 50.2175C157.748 50.1294 156.415 49.69 155.087 48.3074C153.488 46.6433 152.715 44.473 152.715 42.4414H162.715ZM155.797 10.7734L155.748 20.7733C159.2 20.7902 161.079 21.4204 161.71 21.7587C161.971 21.8983 161.674 21.8034 161.275 21.2453C160.815 20.6001 160.501 19.7164 160.493 18.8111L170.492 18.7227L180.492 18.6342C180.428 11.4552 175.844 6.64057 171.153 4.12801C166.65 1.71637 161.202 0.799687 155.846 0.773557L155.797 10.7734ZM170.492 18.7227L160.493 18.6349C160.5 17.7581 160.804 16.8801 161.27 16.2261C161.673 15.6599 161.979 15.5594 161.725 15.695C161.473 15.8293 160.871 16.0847 159.804 16.3023C158.756 16.5162 157.402 16.6639 155.748 16.672L155.797 26.6719L155.846 36.6718C161.181 36.6457 166.629 35.7467 171.138 33.3411C175.864 30.8203 180.429 25.9939 180.492 18.8104L170.492 18.7227ZM155.797 26.6719L155.845 16.672C154.164 16.6639 152.786 16.5151 151.719 16.2991C150.631 16.0791 150.02 15.821 149.768 15.6869C149.511 15.5504 149.842 15.6618 150.266 16.2637C150.758 16.9618 151.066 17.8925 151.058 18.8104L141.059 18.7227L131.059 18.6349C130.995 25.9404 135.641 30.8294 140.385 33.3492C144.908 35.7524 150.388 36.6459 155.749 36.6718L155.797 26.6719ZM141.059 18.7227L151.058 18.6342C151.067 19.5814 150.747 20.5185 150.26 21.2077C149.841 21.8014 149.519 21.9073 149.782 21.7669C150.421 21.4262 152.333 20.7903 155.845 20.7733L155.797 10.7734L155.749 0.773554C150.366 0.799555 144.888 1.71056 140.37 4.11983C135.662 6.63101 130.994 11.5086 131.059 18.8111L141.059 18.7227ZM155.797 16.0586L155.711 6.05896C153.088 6.08138 149.834 6.2421 146.976 7.18679C145.483 7.68014 143.268 8.6484 141.376 10.6777C139.221 12.9898 138.17 15.9482 138.237 18.9448L148.234 18.7227L158.232 18.5005C158.252 19.3963 158.12 20.4517 157.708 21.555C157.293 22.6649 156.681 23.5909 156.005 24.3157C154.742 25.6709 153.478 26.1021 153.252 26.1765C152.96 26.2732 152.983 26.2248 153.545 26.1651C154.063 26.11 154.821 26.0673 155.882 26.0582L155.797 16.0586ZM148.234 18.7227L138.237 18.4954C138.168 21.5431 139.261 24.4975 141.404 26.778C143.285 28.7803 145.482 29.7432 146.976 30.237C149.854 31.1881 153.115 31.3437 155.797 31.3437V21.3437V11.3437C154.759 11.3437 154.018 11.3049 153.517 11.2531C152.974 11.197 152.957 11.1496 153.252 11.2473C153.479 11.3222 154.725 11.748 155.978 13.0816C156.649 13.7953 157.268 14.7161 157.691 15.8318C158.113 16.9442 158.253 18.0202 158.232 18.9499L148.234 18.7227ZM155.797 21.3437V31.3437C158.447 31.3437 161.668 31.1827 164.529 30.2449C166.008 29.7604 168.155 28.8288 170.023 26.9141C172.146 24.7394 173.359 21.8434 173.359 18.7227H163.359H153.359C153.359 17.7574 153.535 16.6756 153.983 15.583C154.431 14.493 155.058 13.6136 155.71 12.9455C156.926 11.6996 158.101 11.305 158.301 11.2395C158.57 11.1512 158.536 11.1988 158.006 11.2542C157.515 11.3055 156.795 11.3437 155.797 11.3437V21.3437ZM163.359 18.7227H173.359C173.359 15.6511 172.189 12.749 170.051 10.5411C168.172 8.5998 166.006 7.66284 164.529 7.17896C161.687 6.24737 158.474 6.08169 155.885 6.05898L155.797 16.0586L155.709 26.0582C156.731 26.0672 157.469 26.1094 157.978 26.164C158.528 26.223 158.567 26.2716 158.301 26.1843C158.103 26.1194 156.909 25.7195 155.682 24.4523C155.024 23.773 154.403 22.8876 153.964 21.8016C153.525 20.7162 153.359 19.654 153.359 18.7227H163.359ZM209.25 10H219.25C219.25 4.47715 214.773 0 209.25 0V10ZM209.25 49.875V59.875C214.773 59.875 219.25 55.3978 219.25 49.875H209.25ZM202.289 49.875H192.289C192.289 55.3978 196.766 59.875 202.289 59.875V49.875ZM202.289 10V0C196.766 0 192.289 4.47715 192.289 10H202.289ZM187.422 12.6641L187.352 22.6638C187.399 22.6641 187.446 22.6641 187.493 22.6638L187.422 12.6641ZM187.422 18.8945L187.252 28.8931C187.369 28.8951 187.487 28.895 187.604 28.8929L187.422 18.8945ZM209.25 10H199.25V49.875H209.25H219.25V10H209.25ZM209.25 49.875V39.875H202.289V49.875V59.875H209.25V49.875ZM202.289 49.875H212.289V10H202.289H192.289V49.875H202.289ZM202.289 10V20L209.25 20V10V0H202.289V10ZM187.422 12.6641L187.493 22.6638C187.425 22.6643 187.255 22.6406 187.08 22.5508C186.918 22.4681 186.927 22.4198 187.048 22.5782C187.318 22.9327 188.035 24.2334 188.035 26.9727H198.035L208.035 26.9727C208.035 20.9463 206.474 15.0712 202.953 10.4521C199.305 5.66819 193.773 2.61877 187.351 2.66431L187.422 12.6641ZM198.035 26.9727H188.035C188.035 29.8028 187.305 31.1249 187.036 31.4804C186.915 31.6391 186.904 31.594 187.058 31.5147C187.224 31.4293 187.377 31.4102 187.422 31.4102V41.4102V51.4102C193.795 51.4102 199.314 48.3834 202.965 43.5733C206.488 38.9337 208.035 33.0371 208.035 26.9727L198.035 26.9727ZM187.422 41.4102V31.4102C187.4 31.4102 187.505 31.4135 187.643 31.483C187.771 31.5479 187.752 31.5815 187.633 31.4265C187.367 31.0816 186.637 29.7839 186.637 26.9727H176.637H166.637C166.637 33.056 168.205 38.977 171.785 43.6273C175.498 48.4498 181.06 51.4102 187.422 51.4102V41.4102ZM176.637 26.9727H186.637C186.637 24.2526 187.354 22.9762 187.62 22.632C187.74 22.4774 187.756 22.5139 187.621 22.5822C187.56 22.6127 187.494 22.6363 187.432 22.6507C187.37 22.6649 187.339 22.6637 187.352 22.6638L187.422 12.6641L187.491 2.6643C181.082 2.6198 175.507 5.60151 171.798 10.3982C168.218 15.0277 166.637 20.9271 166.637 26.9727H176.637ZM187.422 18.8945L187.591 8.89597C181.96 8.80052 177.762 12.0746 175.588 16.1436C173.747 19.59 173.297 23.5385 173.297 26.9727H183.297H193.297C193.297 26.0559 193.365 25.4897 193.418 25.2055C193.474 24.8993 193.48 25.0966 193.229 25.5664C192.963 26.0649 192.337 26.9904 191.123 27.7722C189.845 28.5955 188.448 28.9134 187.252 28.8931L187.422 18.8945ZM183.297 26.9727H173.297C173.297 30.4271 173.741 34.3944 175.596 37.8541C177.811 41.9836 181.986 45.0937 187.422 45.0937V35.0937V25.0937C188.532 25.0937 189.868 25.3965 191.115 26.1982C192.311 26.9673 192.943 27.8831 193.221 28.4018C193.48 28.8846 193.476 29.0928 193.419 28.7849C193.366 28.4977 193.297 27.9194 193.297 26.9727H183.297ZM187.422 35.0937V45.0937C193.021 45.0937 197.072 41.7294 199.148 37.7986C200.947 34.3926 201.418 30.4806 201.418 26.9727H191.418H181.418C181.418 27.9039 181.348 28.4806 181.294 28.7724C181.236 29.0842 181.227 28.9062 181.464 28.4572C181.713 27.9865 182.308 27.0851 183.48 26.3005C184.72 25.4703 186.13 25.0937 187.422 25.0937V35.0937ZM191.418 26.9727H201.418C201.418 23.4853 200.941 19.5914 199.156 16.199C197.126 12.3393 193.047 8.79061 187.24 8.89618L187.422 18.8945L187.604 28.8929C186.218 28.9181 184.743 28.5217 183.472 27.6697C182.284 26.8723 181.693 25.9614 181.456 25.511C181.227 25.075 181.238 24.9078 181.296 25.218C181.349 25.507 181.418 26.0715 181.418 26.9727H191.418ZM255.828 27.3164H265.828C265.828 21.7936 261.351 17.3164 255.828 17.3164V27.3164ZM255.828 32.9023V42.9023C261.351 42.9023 265.828 38.4252 265.828 32.9023H255.828ZM227.125 32.9023H217.125C217.125 38.4252 221.602 42.9023 227.125 42.9023V32.9023ZM227.125 13.4805V3.48047C221.602 3.48047 217.125 7.95762 217.125 13.4805H227.125ZM234 13.4805H244C244 7.95762 239.523 3.48047 234 3.48047V13.4805ZM234 27.3164H224C224 32.8393 228.477 37.3164 234 37.3164V27.3164ZM259.609 39.8203H269.609C269.609 34.2975 265.132 29.8203 259.609 29.8203V39.8203ZM259.609 45.5781V55.5781C265.132 55.5781 269.609 51.101 269.609 45.5781H259.609ZM223.301 45.5781H213.301C213.301 51.101 217.778 55.5781 223.301 55.5781V45.5781ZM223.301 39.8203V29.8203C217.778 29.8203 213.301 34.2975 213.301 39.8203H223.301ZM255.828 27.3164H245.828V32.9023H255.828H265.828V27.3164H255.828ZM255.828 32.9023V22.9023H227.125V32.9023V42.9023H255.828V32.9023ZM227.125 32.9023H237.125V13.4805H227.125H217.125V32.9023H227.125ZM227.125 13.4805V23.4805H234V13.4805V3.48047H227.125V13.4805ZM234 13.4805H224V27.3164H234H244V13.4805H234ZM234 27.3164V37.3164H255.828V27.3164V17.3164H234V27.3164ZM259.609 39.8203H249.609V45.5781H259.609H269.609V39.8203H259.609ZM259.609 45.5781V35.5781H223.301V45.5781V55.5781H259.609V45.5781ZM223.301 45.5781H233.301V39.8203H223.301H213.301V45.5781H223.301ZM223.301 39.8203V49.8203H259.609V39.8203V29.8203H223.301V39.8203ZM294.801 10.0859L304.801 10.0859C304.801 4.56309 300.324 0.0859375 294.801 0.0859375V10.0859ZM294.801 39.3477V49.3477C300.324 49.3477 304.801 44.8705 304.801 39.3477H294.801ZM287.926 39.3477H277.926C277.926 44.8705 282.403 49.3477 287.926 49.3477V39.3477ZM287.926 10.0859V0.0859375C282.403 0.0859375 277.926 4.56309 277.926 10.0859H287.926ZM295.789 43.6875H305.789C305.789 38.1647 301.312 33.6875 295.789 33.6875V43.6875ZM295.789 49.1875V59.1875C301.312 59.1875 305.789 54.7103 305.789 49.1875H295.789ZM267.688 49.1875H257.688C257.688 54.7103 262.165 59.1875 267.688 59.1875V49.1875ZM267.688 36.8125V26.8125C262.165 26.8125 257.688 31.2897 257.688 36.8125H267.688ZM274.562 36.8125H284.562C284.562 31.2897 280.085 26.8125 274.562 26.8125V36.8125ZM274.562 43.6875H264.562C264.562 49.2103 269.04 53.6875 274.562 53.6875V43.6875ZM281.953 12.5352H291.953C291.953 7.01231 287.476 2.53516 281.953 2.53516V12.5352ZM281.953 25.9414V35.9414C287.476 35.9414 291.953 31.4643 291.953 25.9414H281.953ZM270.223 25.9414V15.9414C264.7 15.9414 260.223 20.4186 260.223 25.9414H270.223ZM270.223 29.1211H260.223C260.223 31.7842 261.285 34.3373 263.174 36.2144C265.063 38.0916 267.623 39.1377 270.286 39.1209L270.223 29.1211ZM285.562 27.918L295.464 26.5147C295.075 23.7725 293.566 21.3143 291.297 19.7259C289.029 18.1375 286.203 17.5613 283.493 18.1345L285.562 27.918ZM286.336 33.375L288.404 43.1588C293.551 42.0708 296.975 37.1806 296.237 31.9717L286.336 33.375ZM267.086 34.6211L267.134 24.6212C267.118 24.6211 267.102 24.6211 267.086 24.6211V34.6211ZM263.434 34.6211H253.434C253.434 40.1439 257.911 44.6211 263.434 44.6211V34.6211ZM263.434 20.957V10.957C257.911 10.957 253.434 15.4342 253.434 20.957H263.434ZM275.164 20.957V30.957C280.687 30.957 285.164 26.4799 285.164 20.957H275.164ZM275.164 17.9492H285.164C285.164 12.4264 280.687 7.94922 275.164 7.94922V17.9492ZM263.391 17.9492H253.391C253.391 23.4721 257.868 27.9492 263.391 27.9492V17.9492ZM263.391 12.5352V2.53516C257.868 2.53516 253.391 7.01231 253.391 12.5352H263.391ZM294.801 10.0859H284.801V39.3477H294.801H304.801V10.0859L294.801 10.0859ZM294.801 39.3477V29.3477H287.926V39.3477V49.3477H294.801V39.3477ZM287.926 39.3477H297.926V10.0859H287.926H277.926V39.3477H287.926ZM287.926 10.0859V20.0859H294.801V10.0859V0.0859375L287.926 0.0859375V10.0859ZM295.789 43.6875H285.789V49.1875H295.789H305.789V43.6875H295.789ZM295.789 49.1875V39.1875H267.688V49.1875V59.1875H295.789V49.1875ZM267.688 49.1875H277.688V36.8125H267.688H257.688V49.1875H267.688ZM267.688 36.8125V46.8125H274.562V36.8125V26.8125H267.688V36.8125ZM274.562 36.8125H264.562V43.6875H274.562H284.562V36.8125H274.562ZM274.562 43.6875V53.6875H295.789V43.6875V33.6875H274.562V43.6875ZM281.953 12.5352H271.953V25.9414H281.953H291.953V12.5352H281.953ZM281.953 25.9414V15.9414H270.223V25.9414V35.9414H281.953V25.9414ZM270.223 25.9414H260.223V29.1211H270.223H280.223V25.9414H270.223ZM270.223 29.1211L270.286 39.1209C277.231 39.0771 282.129 38.8656 287.632 37.7015L285.562 27.918L283.493 18.1345C280.059 18.8609 276.835 19.0792 270.16 19.1213L270.223 29.1211ZM285.562 27.918L275.661 29.3213L276.435 34.7783L286.336 33.375L296.237 31.9717L295.464 26.5147L285.562 27.918ZM286.336 33.375L284.268 23.5912C280.132 24.4654 276.061 24.6641 267.134 24.6212L267.086 34.6211L267.038 44.621C275.986 44.664 281.969 44.519 288.404 43.1588L286.336 33.375ZM267.086 34.6211V24.6211H263.434V34.6211V44.6211H267.086V34.6211ZM263.434 34.6211H273.434V20.957H263.434H253.434V34.6211H263.434ZM263.434 20.957V30.957H275.164V20.957V10.957H263.434V20.957ZM275.164 20.957H285.164V17.9492H275.164H265.164V20.957H275.164ZM275.164 17.9492V7.94922H263.391V17.9492V27.9492H275.164V17.9492ZM263.391 17.9492H273.391V12.5352H263.391H253.391V17.9492H263.391ZM263.391 12.5352V22.5352H281.953V12.5352V2.53516H263.391V12.5352Z" fill="white" mask="url(#path-1-outside-1_6526_5768)"/>
</g>
<defs>
<filter id="filter0_d_6526_5768" x="0" y="0" width="309.789" height="67.875" filterUnits="userSpaceOnUse" color-interpolation-filters="sRGB">
<feFlood flood-opacity="0" result="BackgroundImageFix"/>
<feColorMatrix in="SourceAlpha" type="matrix" values="0 0 0 0 0 0 0 0 0 0 0 0 0 0 0 0 0 0 127 0" result="hardAlpha"/>
<feOffset dy="4"/>
<feGaussianBlur stdDeviation="2"/>
<feComposite in2="hardAlpha" operator="out"/>
<feColorMatrix type="matrix" values="0 0 0 0 0 0 0 0 0 0 0 0 0 0 0 0 0 0 0.07 0"/>
<feBlend mode="normal" in2="BackgroundImageFix" result="effect1_dropShadow_6526_5768"/>
<feBlend mode="normal" in="SourceGraphic" in2="effect1_dropShadow_6526_5768" result="shape"/>
</filter>
</defs>
</svg>
