<svg width="177" height="68" viewBox="0 0 177 68" fill="none" xmlns="http://www.w3.org/2000/svg">
<g filter="url(#filter0_d_6524_1752)">
<mask id="path-1-outside-1_6524_1752" maskUnits="userSpaceOnUse" x="3.18359" y="-0.507813" width="170" height="61" fill="black">
<rect fill="white" x="3.18359" y="-0.507813" width="170" height="61"/>
<path d="M47.6016 10V33.9336H40.6836V10L47.6016 10ZM47.6016 35.3945V49.7461H40.6836V40.8516H19.9727V35.3945H47.6016ZM37.5469 12.0625V17.5195H30.3711C30.7363 21.4512 33.0996 25.6621 39.3516 27.4883L35.8281 32.8164C31.5527 31.5273 28.6738 28.9707 26.9336 25.7266C25.1074 29.2715 22.0781 32.1074 17.5234 33.5039L14 28.2188C20.3809 26.2207 22.8301 21.752 23.2812 17.5195H15.8047V12.0625H37.5469ZM74.543 12.793V15.5C74.543 18.3789 74.543 22.332 73.7266 27.1016L66.9805 26.457C67.5391 23.2129 67.7109 20.6133 67.7969 18.3789H53.7031V12.793H74.543ZM64.875 22.2031V29.25C68.5488 29.0781 72.3086 28.7773 75.7891 28.2617L76.1328 33.1602C67.8828 34.75 58.7734 34.8789 51.9844 34.8789L51.3828 29.5078C53.4023 29.4863 55.6582 29.4863 58.043 29.4219V22.2031H64.875ZM84.6406 10V21.6016H88.8086V27.3164H84.6406V39.6484H77.5508V10H84.6406ZM85.8438 43.6875V49.1875H57.0547V37.0273H63.9727V43.6875H85.8438ZM113.172 11.9336V17.3477H105.953C106.297 21.3652 108.596 25.4902 114.59 27.4453L111.281 32.7305C107.006 31.4629 104.17 28.9062 102.473 25.6836C100.711 29.25 97.7461 32.1074 93.1914 33.4609L89.668 28.0469C96.0703 26.1348 98.4121 21.5801 98.8203 17.3477H91.5586V11.9336L113.172 11.9336ZM123.957 35.1367V49.7461H117.082V40.5938H96.3281V35.1367H123.957ZM123.957 10V33.6328H117.082V24.6094H112.141V19.0234H117.082V10H123.957ZM161.684 10.0859V38.3164H154.766V10.0859H161.684ZM162.629 43.6875V49.1875L134.484 49.1875V35.4805L141.445 35.4805V43.6875H162.629ZM139.727 12.4492C145.914 12.4492 150.855 16.7461 150.855 22.6328C150.855 28.6484 145.914 32.9023 139.727 32.9023C133.539 32.9023 128.555 28.6484 128.598 22.6328C128.555 16.7461 133.539 12.4492 139.727 12.4492ZM139.727 18.4219C137.191 18.4219 135.301 19.8398 135.301 22.6328C135.301 25.5547 137.191 26.9297 139.727 26.9297C142.133 26.9297 144.023 25.5547 144.023 22.6328C144.023 19.8398 142.133 18.4219 139.727 18.4219Z"/>
</mask>
<path d="M47.6016 10V33.9336H40.6836V10L47.6016 10ZM47.6016 35.3945V49.7461H40.6836V40.8516H19.9727V35.3945H47.6016ZM37.5469 12.0625V17.5195H30.3711C30.7363 21.4512 33.0996 25.6621 39.3516 27.4883L35.8281 32.8164C31.5527 31.5273 28.6738 28.9707 26.9336 25.7266C25.1074 29.2715 22.0781 32.1074 17.5234 33.5039L14 28.2188C20.3809 26.2207 22.8301 21.752 23.2812 17.5195H15.8047V12.0625H37.5469ZM74.543 12.793V15.5C74.543 18.3789 74.543 22.332 73.7266 27.1016L66.9805 26.457C67.5391 23.2129 67.7109 20.6133 67.7969 18.3789H53.7031V12.793H74.543ZM64.875 22.2031V29.25C68.5488 29.0781 72.3086 28.7773 75.7891 28.2617L76.1328 33.1602C67.8828 34.75 58.7734 34.8789 51.9844 34.8789L51.3828 29.5078C53.4023 29.4863 55.6582 29.4863 58.043 29.4219V22.2031H64.875ZM84.6406 10V21.6016H88.8086V27.3164H84.6406V39.6484H77.5508V10H84.6406ZM85.8438 43.6875V49.1875H57.0547V37.0273H63.9727V43.6875H85.8438ZM113.172 11.9336V17.3477H105.953C106.297 21.3652 108.596 25.4902 114.59 27.4453L111.281 32.7305C107.006 31.4629 104.17 28.9062 102.473 25.6836C100.711 29.25 97.7461 32.1074 93.1914 33.4609L89.668 28.0469C96.0703 26.1348 98.4121 21.5801 98.8203 17.3477H91.5586V11.9336L113.172 11.9336ZM123.957 35.1367V49.7461H117.082V40.5938H96.3281V35.1367H123.957ZM123.957 10V33.6328H117.082V24.6094H112.141V19.0234H117.082V10H123.957ZM161.684 10.0859V38.3164H154.766V10.0859H161.684ZM162.629 43.6875V49.1875L134.484 49.1875V35.4805L141.445 35.4805V43.6875H162.629ZM139.727 12.4492C145.914 12.4492 150.855 16.7461 150.855 22.6328C150.855 28.6484 145.914 32.9023 139.727 32.9023C133.539 32.9023 128.555 28.6484 128.598 22.6328C128.555 16.7461 133.539 12.4492 139.727 12.4492ZM139.727 18.4219C137.191 18.4219 135.301 19.8398 135.301 22.6328C135.301 25.5547 137.191 26.9297 139.727 26.9297C142.133 26.9297 144.023 25.5547 144.023 22.6328C144.023 19.8398 142.133 18.4219 139.727 18.4219Z" fill="#11DCA9"/>
<path d="M47.6016 10H57.6016C57.6016 4.47715 53.1244 0 47.6016 0V10ZM47.6016 33.9336V43.9336C53.1244 43.9336 57.6016 39.4564 57.6016 33.9336H47.6016ZM40.6836 33.9336H30.6836C30.6836 39.4564 35.1607 43.9336 40.6836 43.9336V33.9336ZM40.6836 10V0C35.1607 0 30.6836 4.47715 30.6836 10H40.6836ZM47.6016 35.3945H57.6016C57.6016 29.8717 53.1244 25.3945 47.6016 25.3945V35.3945ZM47.6016 49.7461V59.7461C53.1244 59.7461 57.6016 55.2689 57.6016 49.7461H47.6016ZM40.6836 49.7461H30.6836C30.6836 55.2689 35.1607 59.7461 40.6836 59.7461V49.7461ZM40.6836 40.8516H50.6836C50.6836 35.3287 46.2064 30.8516 40.6836 30.8516V40.8516ZM19.9727 40.8516H9.97266C9.97266 46.3744 14.4498 50.8516 19.9727 50.8516V40.8516ZM19.9727 35.3945V25.3945C14.4498 25.3945 9.97266 29.8717 9.97266 35.3945H19.9727ZM37.5469 12.0625L47.5469 12.0625C47.5469 6.53965 43.0697 2.0625 37.5469 2.0625V12.0625ZM37.5469 17.5195V27.5195C43.0697 27.5195 47.5469 23.0424 47.5469 17.5195H37.5469ZM30.3711 17.5195V7.51953C27.5581 7.51953 24.8751 8.70435 22.9802 10.7834C21.0853 12.8625 20.1538 15.6435 20.414 18.4445L30.3711 17.5195ZM39.3516 27.4883L47.6927 33.0042C49.4447 30.3548 49.8339 27.0307 48.7413 24.0483C47.6487 21.0659 45.2042 18.7799 42.1554 17.8894L39.3516 27.4883ZM35.8281 32.8164L32.9414 42.3907C37.1696 43.6655 41.7333 42.0159 44.1693 38.3323L35.8281 32.8164ZM26.9336 25.7266L35.7458 20.9995C33.99 17.7263 30.5646 15.696 26.8503 15.7269C23.136 15.7579 19.7449 17.845 18.0438 21.147L26.9336 25.7266ZM17.5234 33.5039L9.20293 39.0509C11.6545 42.7283 16.2293 44.3602 20.4548 43.0646L17.5234 33.5039ZM14 28.2188L11.0118 18.6757C8.00675 19.6166 5.62047 21.918 4.57134 24.887C3.52222 27.856 3.93281 31.1457 5.6795 33.7658L14 28.2188ZM23.2812 17.5195L33.2249 18.5795C33.5256 15.7588 32.6142 12.9432 30.7176 10.8337C28.8211 8.72427 26.1179 7.51953 23.2812 7.51953V17.5195ZM15.8047 17.5195H5.80469C5.80469 23.0424 10.2818 27.5195 15.8047 27.5195V17.5195ZM15.8047 12.0625V2.0625C10.2818 2.0625 5.80469 6.53965 5.80469 12.0625H15.8047ZM47.6016 10L37.6016 10V33.9336H47.6016H57.6016V10H47.6016ZM47.6016 33.9336V23.9336H40.6836V33.9336V43.9336H47.6016V33.9336ZM40.6836 33.9336H50.6836V10L40.6836 10H30.6836V33.9336H40.6836ZM40.6836 10V20H47.6016V10V0H40.6836V10ZM47.6016 35.3945H37.6016V49.7461H47.6016H57.6016V35.3945H47.6016ZM47.6016 49.7461V39.7461H40.6836V49.7461V59.7461H47.6016V49.7461ZM40.6836 49.7461H50.6836V40.8516H40.6836H30.6836V49.7461H40.6836ZM40.6836 40.8516V30.8516H19.9727V40.8516V50.8516H40.6836V40.8516ZM19.9727 40.8516H29.9727V35.3945H19.9727H9.97266L9.97266 40.8516H19.9727ZM19.9727 35.3945V45.3945H47.6016V35.3945V25.3945H19.9727V35.3945ZM37.5469 12.0625H27.5469V17.5195H37.5469H47.5469V12.0625L37.5469 12.0625ZM37.5469 17.5195V7.51953H30.3711V17.5195V27.5195H37.5469V17.5195ZM30.3711 17.5195L20.414 18.4445C20.7496 22.0571 22.0314 26.0233 24.8451 29.5404C27.6973 33.1057 31.6926 35.669 36.5478 37.0872L39.3516 27.4883L42.1554 17.8894C41.4264 17.6765 41.0014 17.4506 40.779 17.3073C40.5631 17.1682 40.4827 17.0718 40.4625 17.0465C40.4403 17.0187 40.3579 16.9136 40.3282 16.5946L30.3711 17.5195ZM39.3516 27.4883L31.0104 21.9724L27.487 27.3005L35.8281 32.8164L44.1693 38.3323L47.6927 33.0042L39.3516 27.4883ZM35.8281 32.8164L38.7148 23.2421C36.9902 22.7221 36.2374 21.9159 35.7458 20.9995L26.9336 25.7266L18.1214 30.4536C21.1103 36.0255 26.1152 40.3325 32.9414 42.3907L35.8281 32.8164ZM26.9336 25.7266L18.0438 21.147C17.3843 22.4273 16.4334 23.3786 14.5921 23.9432L17.5234 33.5039L20.4548 43.0646C27.7228 40.8362 32.8306 36.1156 35.8233 30.3061L26.9336 25.7266ZM17.5234 33.5039L25.8439 27.9569L22.3205 22.6717L14 28.2188L5.6795 33.7658L9.20293 39.0509L17.5234 33.5039ZM14 28.2188L16.9882 37.7618C27.5939 34.4409 32.4007 26.3112 33.2249 18.5795L23.2812 17.5195L13.3376 16.4595C13.2734 17.0615 13.1013 17.3987 12.9539 17.5894C12.8551 17.7171 12.4386 18.2289 11.0118 18.6757L14 28.2188ZM23.2812 17.5195V7.51953H15.8047V17.5195V27.5195H23.2812V17.5195ZM15.8047 17.5195H25.8047V12.0625H15.8047H5.80469L5.80469 17.5195H15.8047ZM15.8047 12.0625V22.0625H37.5469V12.0625V2.0625L15.8047 2.0625V12.0625ZM74.543 12.793L84.543 12.793C84.543 7.27012 80.0658 2.79297 74.543 2.79297V12.793ZM73.7266 27.1016L72.7755 37.0562C77.9867 37.5541 82.7 33.9487 83.5832 28.7887L73.7266 27.1016ZM66.9805 26.457L57.1255 24.7601C56.6533 27.5026 57.3452 30.3178 59.0349 32.5289C60.7246 34.74 63.2592 36.147 66.0294 36.4117L66.9805 26.457ZM67.7969 18.3789L77.7895 18.7632C77.894 16.0464 76.8877 13.4042 75.0025 11.4451C73.1173 9.48595 70.5157 8.37891 67.7969 8.37891V18.3789ZM53.7031 18.3789H43.7031C43.7031 23.9018 48.1803 28.3789 53.7031 28.3789V18.3789ZM53.7031 12.793V2.79297C48.1803 2.79297 43.7031 7.27012 43.7031 12.793H53.7031ZM64.875 22.2031H74.875C74.875 16.6803 70.3978 12.2031 64.875 12.2031V22.2031ZM64.875 29.25H54.875C54.875 31.9833 55.9938 34.5974 57.9711 36.4844C59.9485 38.3714 62.6121 39.3668 65.3423 39.2391L64.875 29.25ZM75.7891 28.2617L85.7645 27.5617C85.5695 24.7827 84.2241 22.2109 82.0523 20.4661C79.8805 18.7212 77.0794 17.9614 74.3236 18.3697L75.7891 28.2617ZM76.1328 33.1602L78.0251 42.9795C82.9923 42.0223 86.4624 37.5063 86.1083 32.4601L76.1328 33.1602ZM51.9844 34.8789L42.0465 35.9919C42.6133 41.0524 46.8922 44.8789 51.9844 44.8789V34.8789ZM51.3828 29.5078L51.2764 19.5084C48.4492 19.5385 45.7668 20.764 43.8933 22.8816C42.0197 24.9992 41.1302 27.811 41.4449 30.6209L51.3828 29.5078ZM58.043 29.4219L58.3131 39.4182C63.7288 39.2719 68.043 34.8395 68.043 29.4219H58.043ZM58.043 22.2031V12.2031C52.5201 12.2031 48.043 16.6803 48.043 22.2031H58.043ZM84.6406 10H94.6406C94.6406 4.47715 90.1635 0 84.6406 0V10ZM84.6406 21.6016L74.6406 21.6016C74.6406 27.1244 79.1178 31.6016 84.6406 31.6016V21.6016ZM88.8086 21.6016H98.8086C98.8086 16.0787 94.3314 11.6016 88.8086 11.6016V21.6016ZM88.8086 27.3164V37.3164C94.3314 37.3164 98.8086 32.8393 98.8086 27.3164H88.8086ZM84.6406 27.3164V17.3164C79.1178 17.3164 74.6406 21.7936 74.6406 27.3164L84.6406 27.3164ZM84.6406 39.6484V49.6484C90.1635 49.6484 94.6406 45.1713 94.6406 39.6484H84.6406ZM77.5508 39.6484H67.5508C67.5508 45.1713 72.0279 49.6484 77.5508 49.6484V39.6484ZM77.5508 10V0C72.0279 0 67.5508 4.47715 67.5508 10H77.5508ZM85.8438 43.6875H95.8438C95.8438 38.1647 91.3666 33.6875 85.8438 33.6875V43.6875ZM85.8438 49.1875V59.1875C91.3666 59.1875 95.8438 54.7103 95.8438 49.1875H85.8438ZM57.0547 49.1875H47.0547C47.0547 54.7103 51.5318 59.1875 57.0547 59.1875V49.1875ZM57.0547 37.0273V27.0273C51.5318 27.0273 47.0547 31.5045 47.0547 37.0273H57.0547ZM63.9727 37.0273H73.9727C73.9727 31.5045 69.4955 27.0273 63.9727 27.0273V37.0273ZM63.9727 43.6875H53.9727C53.9727 49.2103 58.4498 53.6875 63.9727 53.6875V43.6875ZM74.543 12.793H64.543V15.5H74.543L84.543 15.5V12.793L74.543 12.793ZM74.543 15.5H64.543C64.543 18.3282 64.5318 21.5474 63.8699 25.4144L73.7266 27.1016L83.5832 28.7887C84.5541 23.1167 84.543 18.4296 84.543 15.5L74.543 15.5ZM73.7266 27.1016L74.6776 17.1469L67.9316 16.5024L66.9805 26.457L66.0294 36.4117L72.7755 37.0562L73.7266 27.1016ZM66.9805 26.457L76.8354 28.1539C77.4939 24.3301 77.6935 21.26 77.7895 18.7632L67.7969 18.3789L57.8043 17.9946C57.7284 19.9666 57.5843 22.0957 57.1255 24.7601L66.9805 26.457ZM67.7969 18.3789V8.37891H53.7031V18.3789V28.3789H67.7969V18.3789ZM53.7031 18.3789H63.7031V12.793H53.7031H43.7031V18.3789H53.7031ZM53.7031 12.793V22.793H74.543V12.793V2.79297L53.7031 2.79297V12.793ZM64.875 22.2031H54.875V29.25H64.875H74.875V22.2031H64.875ZM64.875 29.25L65.3423 39.2391C69.2149 39.0579 73.3318 38.7349 77.2545 38.1538L75.7891 28.2617L74.3236 18.3697C71.2853 18.8198 67.8827 19.0984 64.4077 19.2609L64.875 29.25ZM75.7891 28.2617L65.8136 28.9618L66.1573 33.8602L76.1328 33.1602L86.1083 32.4601L85.7645 27.5617L75.7891 28.2617ZM76.1328 33.1602L74.2405 23.3408C67.0275 24.7308 58.7803 24.8789 51.9844 24.8789V34.8789V44.8789C58.7666 44.8789 68.7381 44.7692 78.0251 42.9795L76.1328 33.1602ZM51.9844 34.8789L61.9222 33.7659L61.3207 28.3948L51.3828 29.5078L41.4449 30.6209L42.0465 35.9919L51.9844 34.8789ZM51.3828 29.5078L51.4892 39.5072C53.372 39.4872 55.82 39.4856 58.3131 39.4182L58.043 29.4219L57.7728 19.4255C55.4964 19.487 53.4326 19.4854 51.2764 19.5084L51.3828 29.5078ZM58.043 29.4219H68.043V22.2031H58.043H48.043V29.4219H58.043ZM58.043 22.2031V32.2031H64.875V22.2031V12.2031H58.043V22.2031ZM84.6406 10H74.6406V21.6016L84.6406 21.6016H94.6406V10H84.6406ZM84.6406 21.6016V31.6016H88.8086V21.6016V11.6016H84.6406V21.6016ZM88.8086 21.6016H78.8086V27.3164H88.8086H98.8086V21.6016H88.8086ZM88.8086 27.3164V17.3164H84.6406V27.3164V37.3164H88.8086V27.3164ZM84.6406 27.3164L74.6406 27.3164V39.6484H84.6406H94.6406V27.3164H84.6406ZM84.6406 39.6484V29.6484H77.5508V39.6484V49.6484H84.6406V39.6484ZM77.5508 39.6484H87.5508V10H77.5508H67.5508V39.6484H77.5508ZM77.5508 10V20H84.6406V10V0H77.5508V10ZM85.8438 43.6875H75.8438V49.1875H85.8438H95.8438V43.6875H85.8438ZM85.8438 49.1875V39.1875H57.0547V49.1875V59.1875H85.8438V49.1875ZM57.0547 49.1875H67.0547V37.0273H57.0547H47.0547V49.1875H57.0547ZM57.0547 37.0273V47.0273H63.9727V37.0273V27.0273H57.0547V37.0273ZM63.9727 37.0273H53.9727V43.6875H63.9727H73.9727V37.0273H63.9727ZM63.9727 43.6875V53.6875H85.8438V43.6875V33.6875H63.9727V43.6875ZM113.172 11.9336H123.172C123.172 6.41075 118.695 1.93359 113.172 1.93359V11.9336ZM113.172 17.3477V27.3477C118.695 27.3477 123.172 22.8705 123.172 17.3477H113.172ZM105.953 17.3477V7.34766C103.153 7.34766 100.481 8.52187 98.5868 10.5847C96.6929 12.6475 95.7508 15.41 95.9895 18.2002L105.953 17.3477ZM114.59 27.4453L123.066 32.7515C124.699 30.1428 125.04 26.9274 123.99 24.0343C122.94 21.1411 120.617 18.8926 117.691 17.9382L114.59 27.4453ZM111.281 32.7305L108.439 42.318C112.745 43.5947 117.374 41.8437 119.757 38.0367L111.281 32.7305ZM102.473 25.6836L111.321 21.0237C109.569 17.6983 106.101 15.6357 102.343 15.6844C98.5849 15.7332 95.1714 17.885 93.5069 21.2547L102.473 25.6836ZM93.1914 33.4609L84.81 38.9155C87.2256 42.6273 91.7949 44.3082 96.04 43.0466L93.1914 33.4609ZM89.668 28.0469L86.8063 18.4651C83.7854 19.3673 81.3669 21.6412 80.2805 24.6008C79.1941 27.5604 79.5669 30.859 81.2866 33.5014L89.668 28.0469ZM98.8203 17.3477L108.774 18.3077C109.045 15.5015 108.118 12.7115 106.223 10.6246C104.328 8.53762 101.639 7.34766 98.8203 7.34766V17.3477ZM91.5586 17.3477H81.5586C81.5586 22.8705 86.0357 27.3477 91.5586 27.3477V17.3477ZM91.5586 11.9336V1.93359C86.0357 1.93359 81.5586 6.41075 81.5586 11.9336H91.5586ZM123.957 35.1367H133.957C133.957 29.6139 129.48 25.1367 123.957 25.1367V35.1367ZM123.957 49.7461V59.7461C129.48 59.7461 133.957 55.2689 133.957 49.7461H123.957ZM117.082 49.7461H107.082C107.082 55.2689 111.559 59.7461 117.082 59.7461V49.7461ZM117.082 40.5938H127.082C127.082 35.0709 122.605 30.5938 117.082 30.5938V40.5938ZM96.3281 40.5938H86.3281C86.3281 46.1166 90.8053 50.5938 96.3281 50.5938V40.5938ZM96.3281 35.1367V25.1367C90.8053 25.1367 86.3281 29.6139 86.3281 35.1367H96.3281ZM123.957 10H133.957C133.957 4.47715 129.48 0 123.957 0V10ZM123.957 33.6328V43.6328C129.48 43.6328 133.957 39.1557 133.957 33.6328H123.957ZM117.082 33.6328H107.082C107.082 39.1557 111.559 43.6328 117.082 43.6328V33.6328ZM117.082 24.6094H127.082C127.082 19.0865 122.605 14.6094 117.082 14.6094V24.6094ZM112.141 24.6094H102.141C102.141 30.1322 106.618 34.6094 112.141 34.6094V24.6094ZM112.141 19.0234V9.02344C106.618 9.02344 102.141 13.5006 102.141 19.0234H112.141ZM117.082 19.0234V29.0234C122.605 29.0234 127.082 24.5463 127.082 19.0234H117.082ZM117.082 10V0C111.559 0 107.082 4.47715 107.082 10L117.082 10ZM113.172 11.9336L103.172 11.9336V17.3477H113.172H123.172V11.9336H113.172ZM113.172 17.3477V7.34766L105.953 7.34766V17.3477V27.3477H113.172V17.3477ZM105.953 17.3477L95.9895 18.2002C96.2983 21.8092 97.5176 25.7441 100.225 29.2653C102.965 32.8285 106.814 35.4276 111.489 36.9524L114.59 27.4453L117.691 17.9382C117.002 17.7137 116.6 17.4865 116.389 17.3422C116.183 17.2021 116.104 17.1052 116.08 17.0746C116.054 17.0401 115.952 16.9037 115.917 16.4952L105.953 17.3477ZM114.59 27.4453L106.114 22.1391L102.805 27.4243L111.281 32.7305L119.757 38.0367L123.066 32.7515L114.59 27.4453ZM111.281 32.7305L114.124 23.143C113.191 22.8663 112.628 22.5185 112.273 22.2254C111.914 21.9295 111.598 21.55 111.321 21.0237L102.473 25.6836L93.6248 30.3435C96.5611 35.9188 101.545 40.274 108.439 42.318L111.281 32.7305ZM102.473 25.6836L93.5069 21.2547C92.8817 22.5204 92.0285 23.3743 90.3428 23.8752L93.1914 33.4609L96.04 43.0466C103.464 40.8405 108.54 35.9796 111.438 30.1125L102.473 25.6836ZM93.1914 33.4609L101.573 28.0064L98.0494 22.5923L89.668 28.0469L81.2866 33.5014L84.81 38.9155L93.1914 33.4609ZM89.668 28.0469L92.5296 37.6287C97.6003 36.1143 101.652 33.3369 104.478 29.5854C107.238 25.9231 108.43 21.8708 108.774 18.3077L98.8203 17.3477L88.8665 16.3876C88.8019 17.057 88.6194 17.3982 88.5055 17.5494C88.4479 17.6258 88.3462 17.7403 88.1378 17.8813C87.924 18.026 87.5162 18.253 86.8063 18.4651L89.668 28.0469ZM98.8203 17.3477V7.34766H91.5586V17.3477V27.3477H98.8203V17.3477ZM91.5586 17.3477H101.559V11.9336H91.5586H81.5586V17.3477H91.5586ZM91.5586 11.9336V21.9336H113.172V11.9336V1.93359L91.5586 1.93359V11.9336ZM123.957 35.1367H113.957V49.7461H123.957H133.957V35.1367H123.957ZM123.957 49.7461V39.7461H117.082V49.7461V59.7461H123.957V49.7461ZM117.082 49.7461H127.082V40.5938H117.082H107.082V49.7461H117.082ZM117.082 40.5938V30.5938H96.3281V40.5938V50.5938H117.082V40.5938ZM96.3281 40.5938H106.328V35.1367H96.3281H86.3281V40.5938H96.3281ZM96.3281 35.1367V45.1367H123.957V35.1367V25.1367H96.3281V35.1367ZM123.957 10H113.957V33.6328H123.957H133.957V10H123.957ZM123.957 33.6328V23.6328H117.082V33.6328V43.6328H123.957V33.6328ZM117.082 33.6328H127.082V24.6094H117.082H107.082V33.6328H117.082ZM117.082 24.6094V14.6094H112.141V24.6094V34.6094H117.082V24.6094ZM112.141 24.6094H122.141V19.0234H112.141H102.141V24.6094H112.141ZM112.141 19.0234V29.0234H117.082V19.0234V9.02344H112.141V19.0234ZM117.082 19.0234H127.082V10H117.082L107.082 10V19.0234H117.082ZM117.082 10V20H123.957V10V0L117.082 0V10ZM161.684 10.0859H171.684C171.684 4.56309 167.206 0.0859375 161.684 0.0859375V10.0859ZM161.684 38.3164V48.3164C167.206 48.3164 171.684 43.8393 171.684 38.3164H161.684ZM154.766 38.3164H144.766C144.766 43.8393 149.243 48.3164 154.766 48.3164V38.3164ZM154.766 10.0859V0.0859375C149.243 0.0859375 144.766 4.56309 144.766 10.0859H154.766ZM162.629 43.6875H172.629C172.629 38.1647 168.152 33.6875 162.629 33.6875V43.6875ZM162.629 49.1875V59.1875C168.152 59.1875 172.629 54.7103 172.629 49.1875H162.629ZM134.484 49.1875H124.484C124.484 54.7103 128.962 59.1875 134.484 59.1875V49.1875ZM134.484 35.4805V25.4805C128.962 25.4805 124.484 29.9576 124.484 35.4805H134.484ZM141.445 35.4805H151.445C151.445 29.9576 146.968 25.4805 141.445 25.4805V35.4805ZM141.445 43.6875L131.445 43.6875C131.445 49.2103 135.922 53.6875 141.445 53.6875V43.6875ZM128.598 22.6328L138.597 22.7042C138.598 22.6561 138.598 22.608 138.597 22.5598L128.598 22.6328ZM161.684 10.0859H151.684V38.3164H161.684H171.684V10.0859H161.684ZM161.684 38.3164V28.3164H154.766V38.3164V48.3164H161.684V38.3164ZM154.766 38.3164H164.766V10.0859H154.766H144.766V38.3164H154.766ZM154.766 10.0859V20.0859H161.684V10.0859V0.0859375H154.766V10.0859ZM162.629 43.6875H152.629V49.1875H162.629H172.629V43.6875H162.629ZM162.629 49.1875V39.1875L134.484 39.1875V49.1875V59.1875L162.629 59.1875V49.1875ZM134.484 49.1875L144.484 49.1875V35.4805L134.484 35.4805H124.484V49.1875H134.484ZM134.484 35.4805V45.4805L141.445 45.4805V35.4805V25.4805H134.484V35.4805ZM141.445 35.4805L131.445 35.4805V43.6875L141.445 43.6875H151.445V35.4805H141.445ZM141.445 43.6875V53.6875H162.629V43.6875V33.6875H141.445V43.6875ZM139.727 12.4492V22.4492C140.512 22.4492 140.864 22.7145 140.917 22.7625C140.943 22.7856 140.916 22.7678 140.885 22.6996C140.85 22.6226 140.855 22.582 140.855 22.6328H150.855H160.855C160.855 10.2688 150.431 2.44922 139.727 2.44922V12.4492ZM150.855 22.6328H140.855C140.855 22.7467 140.837 22.7399 140.867 22.6728C140.894 22.6131 140.922 22.5906 140.906 22.6043C140.875 22.6322 140.538 22.9023 139.727 22.9023V32.9023V42.9023C150.461 42.9023 160.855 35.0994 160.855 22.6328H150.855ZM139.727 32.9023V22.9023C138.908 22.9023 138.557 22.6277 138.521 22.5954C138.505 22.5816 138.54 22.6101 138.574 22.6851C138.611 22.7686 138.597 22.7961 138.597 22.7042L128.598 22.6328L118.598 22.5614C118.508 35.147 129.065 42.9023 139.727 42.9023V32.9023ZM128.598 22.6328L138.597 22.5598C138.597 22.5318 138.598 22.5937 138.556 22.6872C138.518 22.7708 138.484 22.7945 138.51 22.7714C138.568 22.7191 138.934 22.4492 139.727 22.4492V12.4492V2.44922C129.096 2.44922 118.507 10.2208 118.598 22.7058L128.598 22.6328ZM139.727 18.4219V8.42187C136.677 8.42187 132.977 9.281 129.91 12.0143C126.673 14.899 125.301 18.8404 125.301 22.6328H135.301H145.301C145.301 23.6323 144.874 25.4682 143.216 26.9457C141.728 28.2717 140.241 28.4219 139.727 28.4219V18.4219ZM135.301 22.6328H125.301C125.301 26.3614 126.589 30.361 129.882 33.3174C133.001 36.1181 136.749 36.9297 139.727 36.9297V26.9297V16.9297C140.169 16.9297 141.704 17.0538 143.244 18.4365C144.958 19.9749 145.301 21.8261 145.301 22.6328H135.301ZM139.727 26.9297V36.9297C142.758 36.9297 146.474 36.0539 149.535 33.2485C152.741 30.3089 154.023 26.3568 154.023 22.6328H144.023H134.023C134.023 21.8307 134.36 20.027 136.02 18.5054C137.534 17.118 139.101 16.9297 139.727 16.9297V26.9297ZM144.023 22.6328H154.023C154.023 18.8465 152.659 14.9508 149.507 12.0829C146.499 9.347 142.831 8.42187 139.727 8.42187V18.4219V28.4219C139.029 28.4219 137.509 28.2057 136.048 26.8771C134.442 25.4164 134.023 23.6261 134.023 22.6328H144.023Z" fill="white" mask="url(#path-1-outside-1_6524_1752)"/>
</g>
<defs>
<filter id="filter0_d_6524_1752" x="0" y="0" width="176.629" height="67.7461" filterUnits="userSpaceOnUse" color-interpolation-filters="sRGB">
<feFlood flood-opacity="0" result="BackgroundImageFix"/>
<feColorMatrix in="SourceAlpha" type="matrix" values="0 0 0 0 0 0 0 0 0 0 0 0 0 0 0 0 0 0 127 0" result="hardAlpha"/>
<feOffset dy="4"/>
<feGaussianBlur stdDeviation="2"/>
<feComposite in2="hardAlpha" operator="out"/>
<feColorMatrix type="matrix" values="0 0 0 0 0 0 0 0 0 0 0 0 0 0 0 0 0 0 0.07 0"/>
<feBlend mode="normal" in2="BackgroundImageFix" result="effect1_dropShadow_6524_1752"/>
<feBlend mode="normal" in="SourceGraphic" in2="effect1_dropShadow_6524_1752" result="shape"/>
</filter>
</defs>
</svg>
