<svg width="303" height="68" viewBox="0 0 303 68" fill="none" xmlns="http://www.w3.org/2000/svg">
<g filter="url(#filter0_d_6526_5686)">
<mask id="path-1-outside-1_6526_5686" maskUnits="userSpaceOnUse" x="3.18359" y="-0.507813" width="295" height="61" fill="black">
<rect fill="white" x="3.18359" y="-0.507813" width="295" height="61"/>
<path d="M47.6016 10V33.9336H40.6836V10L47.6016 10ZM47.6016 35.3945V49.7461H40.6836V40.8516H19.9727V35.3945H47.6016ZM37.5469 12.0625V17.5195H30.3711C30.7363 21.4512 33.0996 25.6621 39.3516 27.4883L35.8281 32.8164C31.5527 31.5273 28.6738 28.9707 26.9336 25.7266C25.1074 29.2715 22.0781 32.1074 17.5234 33.5039L14 28.2188C20.3809 26.2207 22.8301 21.752 23.2812 17.5195H15.8047V12.0625H37.5469ZM74.543 12.793V15.5C74.543 18.3789 74.543 22.332 73.7266 27.1016L66.9805 26.457C67.5391 23.2129 67.7109 20.6133 67.7969 18.3789H53.7031V12.793H74.543ZM64.875 22.2031V29.25C68.5488 29.0781 72.3086 28.7773 75.7891 28.2617L76.1328 33.1602C67.8828 34.75 58.7734 34.8789 51.9844 34.8789L51.3828 29.5078C53.4023 29.4863 55.6582 29.4863 58.043 29.4219V22.2031H64.875ZM84.6406 10V21.6016H88.8086V27.3164H84.6406V39.6484H77.5508V10H84.6406ZM85.8438 43.6875V49.1875H57.0547V37.0273H63.9727V43.6875H85.8438ZM124.816 10V49.7461H118.242V10H124.816ZM116.352 10.4727V48.0273H109.863V29.6367H107.93C107.35 37.457 104.02 42.0977 99.1211 42.0977C93.793 42.0977 90.3555 36.5117 90.3984 27.2734C90.3555 18.1211 93.793 12.5352 99.1211 12.5352C103.869 12.5352 107.135 16.8965 107.887 24.2227H109.863V10.4727H116.352ZM99.1211 19.0664C97.4883 19.0664 96.6719 21.4297 96.7148 27.2734C96.6719 33.1602 97.4883 35.4805 99.1211 35.4805C100.797 35.4805 101.699 33.1602 101.699 27.2734C101.699 21.4297 100.797 19.0664 99.1211 19.0664ZM150.512 12.5352C156.871 12.4922 161.727 16.7461 161.727 22.5469C161.727 28.3906 156.871 32.6016 150.512 32.5586C144.281 32.6016 139.297 28.3906 139.297 22.5469C139.297 16.7461 144.281 12.4922 150.512 12.5352ZM150.512 18.4648C148.105 18.4648 146.172 19.8398 146.172 22.5469C146.172 25.3398 148.105 26.6289 150.512 26.6289C153.047 26.6289 155.023 25.3398 155.023 22.5469C155.023 19.8398 153.047 18.4648 150.512 18.4648ZM171.609 10V49.875H164.777V10H171.609ZM137.879 36.6406C144.797 36.6406 154.465 36.5117 162.758 35.3945L163.273 40.3359C154.68 42.0547 145.441 42.1406 138.652 42.1406L137.879 36.6406ZM208.734 11.5469V16.9609L198.938 16.9609C199.797 19.4531 202.912 22.1602 210.754 22.8906L208.262 28.3477C200.377 27.5527 195.865 24.5879 193.824 20.7852C191.783 24.5664 187.314 27.5527 179.473 28.3477L177.023 22.8906C184.844 22.1602 187.916 19.4316 188.797 16.9609H179.086V11.5469H208.734ZM207.832 43.6875V49.1875H179.945V37.6719H186.863V43.6875H207.832ZM211.957 30.2812V35.7812H175.777V30.2812H190.387V25.4687H197.262V30.2812H211.957ZM245.516 10V25.082H250.887V30.7109H245.516V49.7461H238.684V10H245.516ZM236.75 15.6719V21.1289H213.59V15.6719H221.797V10.7305H228.672V15.6719H236.75ZM225.234 22.6758C231.121 22.6758 235.633 26.7148 235.633 32.3437C235.633 38.0156 231.121 42.0547 225.234 42.0547C219.219 42.0547 214.793 38.0156 214.793 32.3437C214.793 26.7148 219.219 22.6758 225.234 22.6758ZM225.234 28.2187C223 28.2187 221.367 29.6797 221.41 32.3437C221.367 35.1367 223 36.4687 225.234 36.4687C227.426 36.4687 229.016 35.1367 229.016 32.3437C229.016 29.6797 227.426 28.2187 225.234 28.2187ZM284.188 20.0977V25.4258H256.086V11.418H262.961V20.0977H284.188ZM288.098 28.9492V34.2773H251.832V28.9492H288.098ZM284.445 43.4727V48.9727H255.613V37.0273H262.574V43.4727H284.445Z"/>
</mask>
<path d="M47.6016 10V33.9336H40.6836V10L47.6016 10ZM47.6016 35.3945V49.7461H40.6836V40.8516H19.9727V35.3945H47.6016ZM37.5469 12.0625V17.5195H30.3711C30.7363 21.4512 33.0996 25.6621 39.3516 27.4883L35.8281 32.8164C31.5527 31.5273 28.6738 28.9707 26.9336 25.7266C25.1074 29.2715 22.0781 32.1074 17.5234 33.5039L14 28.2188C20.3809 26.2207 22.8301 21.752 23.2812 17.5195H15.8047V12.0625H37.5469ZM74.543 12.793V15.5C74.543 18.3789 74.543 22.332 73.7266 27.1016L66.9805 26.457C67.5391 23.2129 67.7109 20.6133 67.7969 18.3789H53.7031V12.793H74.543ZM64.875 22.2031V29.25C68.5488 29.0781 72.3086 28.7773 75.7891 28.2617L76.1328 33.1602C67.8828 34.75 58.7734 34.8789 51.9844 34.8789L51.3828 29.5078C53.4023 29.4863 55.6582 29.4863 58.043 29.4219V22.2031H64.875ZM84.6406 10V21.6016H88.8086V27.3164H84.6406V39.6484H77.5508V10H84.6406ZM85.8438 43.6875V49.1875H57.0547V37.0273H63.9727V43.6875H85.8438ZM124.816 10V49.7461H118.242V10H124.816ZM116.352 10.4727V48.0273H109.863V29.6367H107.93C107.35 37.457 104.02 42.0977 99.1211 42.0977C93.793 42.0977 90.3555 36.5117 90.3984 27.2734C90.3555 18.1211 93.793 12.5352 99.1211 12.5352C103.869 12.5352 107.135 16.8965 107.887 24.2227H109.863V10.4727H116.352ZM99.1211 19.0664C97.4883 19.0664 96.6719 21.4297 96.7148 27.2734C96.6719 33.1602 97.4883 35.4805 99.1211 35.4805C100.797 35.4805 101.699 33.1602 101.699 27.2734C101.699 21.4297 100.797 19.0664 99.1211 19.0664ZM150.512 12.5352C156.871 12.4922 161.727 16.7461 161.727 22.5469C161.727 28.3906 156.871 32.6016 150.512 32.5586C144.281 32.6016 139.297 28.3906 139.297 22.5469C139.297 16.7461 144.281 12.4922 150.512 12.5352ZM150.512 18.4648C148.105 18.4648 146.172 19.8398 146.172 22.5469C146.172 25.3398 148.105 26.6289 150.512 26.6289C153.047 26.6289 155.023 25.3398 155.023 22.5469C155.023 19.8398 153.047 18.4648 150.512 18.4648ZM171.609 10V49.875H164.777V10H171.609ZM137.879 36.6406C144.797 36.6406 154.465 36.5117 162.758 35.3945L163.273 40.3359C154.68 42.0547 145.441 42.1406 138.652 42.1406L137.879 36.6406ZM208.734 11.5469V16.9609L198.938 16.9609C199.797 19.4531 202.912 22.1602 210.754 22.8906L208.262 28.3477C200.377 27.5527 195.865 24.5879 193.824 20.7852C191.783 24.5664 187.314 27.5527 179.473 28.3477L177.023 22.8906C184.844 22.1602 187.916 19.4316 188.797 16.9609H179.086V11.5469H208.734ZM207.832 43.6875V49.1875H179.945V37.6719H186.863V43.6875H207.832ZM211.957 30.2812V35.7812H175.777V30.2812H190.387V25.4687H197.262V30.2812H211.957ZM245.516 10V25.082H250.887V30.7109H245.516V49.7461H238.684V10H245.516ZM236.75 15.6719V21.1289H213.59V15.6719H221.797V10.7305H228.672V15.6719H236.75ZM225.234 22.6758C231.121 22.6758 235.633 26.7148 235.633 32.3437C235.633 38.0156 231.121 42.0547 225.234 42.0547C219.219 42.0547 214.793 38.0156 214.793 32.3437C214.793 26.7148 219.219 22.6758 225.234 22.6758ZM225.234 28.2187C223 28.2187 221.367 29.6797 221.41 32.3437C221.367 35.1367 223 36.4687 225.234 36.4687C227.426 36.4687 229.016 35.1367 229.016 32.3437C229.016 29.6797 227.426 28.2187 225.234 28.2187ZM284.188 20.0977V25.4258H256.086V11.418H262.961V20.0977H284.188ZM288.098 28.9492V34.2773H251.832V28.9492H288.098ZM284.445 43.4727V48.9727H255.613V37.0273H262.574V43.4727H284.445Z" fill="#11DCA9"/>
<path d="M47.6016 10H57.6016C57.6016 4.47715 53.1244 0 47.6016 0V10ZM47.6016 33.9336V43.9336C53.1244 43.9336 57.6016 39.4564 57.6016 33.9336H47.6016ZM40.6836 33.9336H30.6836C30.6836 39.4564 35.1607 43.9336 40.6836 43.9336V33.9336ZM40.6836 10V0C35.1607 0 30.6836 4.47715 30.6836 10H40.6836ZM47.6016 35.3945H57.6016C57.6016 29.8717 53.1244 25.3945 47.6016 25.3945V35.3945ZM47.6016 49.7461V59.7461C53.1244 59.7461 57.6016 55.2689 57.6016 49.7461H47.6016ZM40.6836 49.7461H30.6836C30.6836 55.2689 35.1607 59.7461 40.6836 59.7461V49.7461ZM40.6836 40.8516H50.6836C50.6836 35.3287 46.2064 30.8516 40.6836 30.8516V40.8516ZM19.9727 40.8516H9.97266C9.97266 46.3744 14.4498 50.8516 19.9727 50.8516V40.8516ZM19.9727 35.3945V25.3945C14.4498 25.3945 9.97266 29.8717 9.97266 35.3945H19.9727ZM37.5469 12.0625L47.5469 12.0625C47.5469 6.53965 43.0697 2.0625 37.5469 2.0625V12.0625ZM37.5469 17.5195V27.5195C43.0697 27.5195 47.5469 23.0424 47.5469 17.5195H37.5469ZM30.3711 17.5195V7.51953C27.5581 7.51953 24.8751 8.70435 22.9802 10.7834C21.0853 12.8625 20.1538 15.6435 20.414 18.4445L30.3711 17.5195ZM39.3516 27.4883L47.6927 33.0042C49.4447 30.3548 49.8339 27.0307 48.7413 24.0483C47.6487 21.0659 45.2042 18.7799 42.1554 17.8894L39.3516 27.4883ZM35.8281 32.8164L32.9414 42.3907C37.1696 43.6655 41.7333 42.0159 44.1693 38.3323L35.8281 32.8164ZM26.9336 25.7266L35.7458 20.9995C33.99 17.7263 30.5646 15.696 26.8503 15.7269C23.136 15.7579 19.7449 17.845 18.0438 21.147L26.9336 25.7266ZM17.5234 33.5039L9.20293 39.0509C11.6545 42.7283 16.2293 44.3602 20.4548 43.0646L17.5234 33.5039ZM14 28.2188L11.0118 18.6757C8.00675 19.6166 5.62047 21.918 4.57134 24.887C3.52222 27.856 3.93281 31.1457 5.6795 33.7658L14 28.2188ZM23.2812 17.5195L33.2249 18.5795C33.5256 15.7588 32.6142 12.9432 30.7176 10.8337C28.8211 8.72427 26.1179 7.51953 23.2812 7.51953V17.5195ZM15.8047 17.5195H5.80469C5.80469 23.0424 10.2818 27.5195 15.8047 27.5195V17.5195ZM15.8047 12.0625V2.0625C10.2818 2.0625 5.80469 6.53965 5.80469 12.0625H15.8047ZM47.6016 10L37.6016 10V33.9336H47.6016H57.6016V10H47.6016ZM47.6016 33.9336V23.9336H40.6836V33.9336V43.9336H47.6016V33.9336ZM40.6836 33.9336H50.6836V10L40.6836 10H30.6836V33.9336H40.6836ZM40.6836 10V20H47.6016V10V0H40.6836V10ZM47.6016 35.3945H37.6016V49.7461H47.6016H57.6016V35.3945H47.6016ZM47.6016 49.7461V39.7461H40.6836V49.7461V59.7461H47.6016V49.7461ZM40.6836 49.7461H50.6836V40.8516H40.6836H30.6836V49.7461H40.6836ZM40.6836 40.8516V30.8516H19.9727V40.8516V50.8516H40.6836V40.8516ZM19.9727 40.8516H29.9727V35.3945H19.9727H9.97266L9.97266 40.8516H19.9727ZM19.9727 35.3945V45.3945H47.6016V35.3945V25.3945H19.9727V35.3945ZM37.5469 12.0625H27.5469V17.5195H37.5469H47.5469V12.0625L37.5469 12.0625ZM37.5469 17.5195V7.51953H30.3711V17.5195V27.5195H37.5469V17.5195ZM30.3711 17.5195L20.414 18.4445C20.7496 22.0571 22.0314 26.0233 24.8451 29.5404C27.6973 33.1057 31.6926 35.669 36.5478 37.0872L39.3516 27.4883L42.1554 17.8894C41.4264 17.6765 41.0014 17.4506 40.779 17.3073C40.5631 17.1682 40.4827 17.0718 40.4625 17.0465C40.4403 17.0187 40.3579 16.9136 40.3282 16.5946L30.3711 17.5195ZM39.3516 27.4883L31.0104 21.9724L27.487 27.3005L35.8281 32.8164L44.1693 38.3323L47.6927 33.0042L39.3516 27.4883ZM35.8281 32.8164L38.7148 23.2421C36.9902 22.7221 36.2374 21.9159 35.7458 20.9995L26.9336 25.7266L18.1214 30.4536C21.1103 36.0255 26.1152 40.3325 32.9414 42.3907L35.8281 32.8164ZM26.9336 25.7266L18.0438 21.147C17.3843 22.4273 16.4334 23.3786 14.5921 23.9432L17.5234 33.5039L20.4548 43.0646C27.7228 40.8362 32.8306 36.1156 35.8233 30.3061L26.9336 25.7266ZM17.5234 33.5039L25.8439 27.9569L22.3205 22.6717L14 28.2188L5.6795 33.7658L9.20293 39.0509L17.5234 33.5039ZM14 28.2188L16.9882 37.7618C27.5939 34.4409 32.4007 26.3112 33.2249 18.5795L23.2812 17.5195L13.3376 16.4595C13.2734 17.0615 13.1013 17.3987 12.9539 17.5894C12.8551 17.7171 12.4386 18.2289 11.0118 18.6757L14 28.2188ZM23.2812 17.5195V7.51953H15.8047V17.5195V27.5195H23.2812V17.5195ZM15.8047 17.5195H25.8047V12.0625H15.8047H5.80469L5.80469 17.5195H15.8047ZM15.8047 12.0625V22.0625H37.5469V12.0625V2.0625L15.8047 2.0625V12.0625ZM74.543 12.793L84.543 12.793C84.543 7.27012 80.0658 2.79297 74.543 2.79297V12.793ZM73.7266 27.1016L72.7755 37.0562C77.9867 37.5541 82.7 33.9487 83.5832 28.7887L73.7266 27.1016ZM66.9805 26.457L57.1255 24.7601C56.6533 27.5026 57.3452 30.3178 59.0349 32.5289C60.7246 34.74 63.2592 36.147 66.0294 36.4117L66.9805 26.457ZM67.7969 18.3789L77.7895 18.7632C77.894 16.0464 76.8877 13.4042 75.0025 11.4451C73.1173 9.48595 70.5157 8.37891 67.7969 8.37891V18.3789ZM53.7031 18.3789H43.7031C43.7031 23.9018 48.1803 28.3789 53.7031 28.3789V18.3789ZM53.7031 12.793V2.79297C48.1803 2.79297 43.7031 7.27012 43.7031 12.793H53.7031ZM64.875 22.2031H74.875C74.875 16.6803 70.3978 12.2031 64.875 12.2031V22.2031ZM64.875 29.25H54.875C54.875 31.9833 55.9938 34.5974 57.9711 36.4844C59.9485 38.3714 62.6121 39.3668 65.3423 39.2391L64.875 29.25ZM75.7891 28.2617L85.7645 27.5617C85.5695 24.7827 84.2241 22.2109 82.0523 20.4661C79.8805 18.7212 77.0794 17.9614 74.3236 18.3697L75.7891 28.2617ZM76.1328 33.1602L78.0251 42.9795C82.9923 42.0223 86.4624 37.5063 86.1083 32.4601L76.1328 33.1602ZM51.9844 34.8789L42.0465 35.9919C42.6133 41.0524 46.8922 44.8789 51.9844 44.8789V34.8789ZM51.3828 29.5078L51.2764 19.5084C48.4492 19.5385 45.7668 20.764 43.8933 22.8816C42.0197 24.9992 41.1302 27.811 41.4449 30.6209L51.3828 29.5078ZM58.043 29.4219L58.3131 39.4182C63.7288 39.2719 68.043 34.8395 68.043 29.4219H58.043ZM58.043 22.2031V12.2031C52.5201 12.2031 48.043 16.6803 48.043 22.2031H58.043ZM84.6406 10H94.6406C94.6406 4.47715 90.1635 0 84.6406 0V10ZM84.6406 21.6016L74.6406 21.6016C74.6406 27.1244 79.1178 31.6016 84.6406 31.6016V21.6016ZM88.8086 21.6016H98.8086C98.8086 16.0787 94.3314 11.6016 88.8086 11.6016V21.6016ZM88.8086 27.3164V37.3164C94.3314 37.3164 98.8086 32.8393 98.8086 27.3164H88.8086ZM84.6406 27.3164V17.3164C79.1178 17.3164 74.6406 21.7936 74.6406 27.3164L84.6406 27.3164ZM84.6406 39.6484V49.6484C90.1635 49.6484 94.6406 45.1713 94.6406 39.6484H84.6406ZM77.5508 39.6484H67.5508C67.5508 45.1713 72.0279 49.6484 77.5508 49.6484V39.6484ZM77.5508 10V0C72.0279 0 67.5508 4.47715 67.5508 10H77.5508ZM85.8438 43.6875H95.8438C95.8438 38.1647 91.3666 33.6875 85.8438 33.6875V43.6875ZM85.8438 49.1875V59.1875C91.3666 59.1875 95.8438 54.7103 95.8438 49.1875H85.8438ZM57.0547 49.1875H47.0547C47.0547 54.7103 51.5318 59.1875 57.0547 59.1875V49.1875ZM57.0547 37.0273V27.0273C51.5318 27.0273 47.0547 31.5045 47.0547 37.0273H57.0547ZM63.9727 37.0273H73.9727C73.9727 31.5045 69.4955 27.0273 63.9727 27.0273V37.0273ZM63.9727 43.6875H53.9727C53.9727 49.2103 58.4498 53.6875 63.9727 53.6875V43.6875ZM74.543 12.793H64.543V15.5H74.543L84.543 15.5V12.793L74.543 12.793ZM74.543 15.5H64.543C64.543 18.3282 64.5318 21.5474 63.8699 25.4144L73.7266 27.1016L83.5832 28.7887C84.5541 23.1167 84.543 18.4296 84.543 15.5L74.543 15.5ZM73.7266 27.1016L74.6776 17.1469L67.9316 16.5024L66.9805 26.457L66.0294 36.4117L72.7755 37.0562L73.7266 27.1016ZM66.9805 26.457L76.8354 28.1539C77.4939 24.3301 77.6935 21.26 77.7895 18.7632L67.7969 18.3789L57.8043 17.9946C57.7284 19.9666 57.5843 22.0957 57.1255 24.7601L66.9805 26.457ZM67.7969 18.3789V8.37891H53.7031V18.3789V28.3789H67.7969V18.3789ZM53.7031 18.3789H63.7031V12.793H53.7031H43.7031V18.3789H53.7031ZM53.7031 12.793V22.793H74.543V12.793V2.79297L53.7031 2.79297V12.793ZM64.875 22.2031H54.875V29.25H64.875H74.875V22.2031H64.875ZM64.875 29.25L65.3423 39.2391C69.2149 39.0579 73.3318 38.7349 77.2545 38.1538L75.7891 28.2617L74.3236 18.3697C71.2853 18.8198 67.8827 19.0984 64.4077 19.2609L64.875 29.25ZM75.7891 28.2617L65.8136 28.9618L66.1573 33.8602L76.1328 33.1602L86.1083 32.4601L85.7645 27.5617L75.7891 28.2617ZM76.1328 33.1602L74.2405 23.3408C67.0275 24.7308 58.7803 24.8789 51.9844 24.8789V34.8789V44.8789C58.7666 44.8789 68.7381 44.7692 78.0251 42.9795L76.1328 33.1602ZM51.9844 34.8789L61.9222 33.7659L61.3207 28.3948L51.3828 29.5078L41.4449 30.6209L42.0465 35.9919L51.9844 34.8789ZM51.3828 29.5078L51.4892 39.5072C53.372 39.4872 55.82 39.4856 58.3131 39.4182L58.043 29.4219L57.7728 19.4255C55.4964 19.487 53.4326 19.4854 51.2764 19.5084L51.3828 29.5078ZM58.043 29.4219H68.043V22.2031H58.043H48.043V29.4219H58.043ZM58.043 22.2031V32.2031H64.875V22.2031V12.2031H58.043V22.2031ZM84.6406 10H74.6406V21.6016L84.6406 21.6016H94.6406V10H84.6406ZM84.6406 21.6016V31.6016H88.8086V21.6016V11.6016H84.6406V21.6016ZM88.8086 21.6016H78.8086V27.3164H88.8086H98.8086V21.6016H88.8086ZM88.8086 27.3164V17.3164H84.6406V27.3164V37.3164H88.8086V27.3164ZM84.6406 27.3164L74.6406 27.3164V39.6484H84.6406H94.6406V27.3164H84.6406ZM84.6406 39.6484V29.6484H77.5508V39.6484V49.6484H84.6406V39.6484ZM77.5508 39.6484H87.5508V10H77.5508H67.5508V39.6484H77.5508ZM77.5508 10V20H84.6406V10V0H77.5508V10ZM85.8438 43.6875H75.8438V49.1875H85.8438H95.8438V43.6875H85.8438ZM85.8438 49.1875V39.1875H57.0547V49.1875V59.1875H85.8438V49.1875ZM57.0547 49.1875H67.0547V37.0273H57.0547H47.0547V49.1875H57.0547ZM57.0547 37.0273V47.0273H63.9727V37.0273V27.0273H57.0547V37.0273ZM63.9727 37.0273H53.9727V43.6875H63.9727H73.9727V37.0273H63.9727ZM63.9727 43.6875V53.6875H85.8438V43.6875V33.6875H63.9727V43.6875ZM124.816 10H134.816C134.816 4.47715 130.339 0 124.816 0V10ZM124.816 49.7461V59.7461C130.339 59.7461 134.816 55.2689 134.816 49.7461H124.816ZM118.242 49.7461H108.242C108.242 55.2689 112.719 59.7461 118.242 59.7461V49.7461ZM118.242 10V0C112.719 0 108.242 4.47715 108.242 10L118.242 10ZM116.352 10.4727H126.352C126.352 4.94981 121.874 0.472656 116.352 0.472656V10.4727ZM116.352 48.0273V58.0273C121.874 58.0273 126.352 53.5502 126.352 48.0273H116.352ZM109.863 48.0273H99.8633C99.8633 53.5502 104.34 58.0273 109.863 58.0273V48.0273ZM109.863 29.6367H119.863C119.863 24.1139 115.386 19.6367 109.863 19.6367V29.6367ZM107.93 29.6367V19.6367C102.694 19.6367 98.3444 23.6755 97.9571 28.897L107.93 29.6367ZM90.3984 27.2734L100.398 27.3199C100.398 27.2888 100.398 27.2576 100.398 27.2265L90.3984 27.2734ZM107.887 24.2227L97.939 25.2437C98.4625 30.3444 102.759 34.2227 107.887 34.2227V24.2227ZM109.863 24.2227V34.2227C115.386 34.2227 119.863 29.7455 119.863 24.2227H109.863ZM109.863 10.4727V0.472656C104.34 0.472656 99.8633 4.94981 99.8633 10.4727L109.863 10.4727ZM96.7148 27.2734L106.715 27.3464C106.715 27.2976 106.715 27.2487 106.715 27.1999L96.7148 27.2734ZM124.816 10H114.816V49.7461H124.816H134.816V10H124.816ZM124.816 49.7461V39.7461H118.242V49.7461V59.7461H124.816V49.7461ZM118.242 49.7461H128.242V10H118.242L108.242 10V49.7461H118.242ZM118.242 10V20H124.816V10V0H118.242V10ZM116.352 10.4727L106.352 10.4727V48.0273H116.352H126.352V10.4727H116.352ZM116.352 48.0273V38.0273H109.863V48.0273V58.0273H116.352V48.0273ZM109.863 48.0273H119.863V29.6367H109.863H99.8633V48.0273H109.863ZM109.863 29.6367V19.6367H107.93V29.6367V39.6367H109.863V29.6367ZM107.93 29.6367L97.9571 28.897C97.8577 30.2367 97.6537 31.2436 97.4363 31.9531C97.2166 32.6701 97.0178 32.9727 96.9902 33.0117C96.9757 33.0321 97.166 32.7625 97.6519 32.4944C98.1673 32.2101 98.71 32.0977 99.1211 32.0977V42.0977V52.0977C105.21 52.0977 110.151 49.024 113.299 44.5879C116.225 40.4667 117.531 35.3792 117.902 30.3764L107.93 29.6367ZM99.1211 42.0977V32.0977C99.6152 32.0977 100.242 32.25 100.797 32.596C101.303 32.9115 101.428 33.1857 101.336 33.0316C101.072 32.5883 100.382 30.8849 100.398 27.3199L90.3984 27.2734L80.3985 27.2269C80.3722 32.9002 81.3788 38.609 84.1548 43.2682C87.1449 48.287 92.3272 52.0977 99.1211 52.0977V42.0977ZM90.3984 27.2734L100.398 27.2265C100.382 23.7189 101.067 22.0402 101.327 21.6064C101.417 21.4557 101.292 21.7276 100.789 22.0402C100.239 22.3831 99.6148 22.5352 99.1211 22.5352V12.5352V2.53516C92.3339 2.53516 87.1555 6.33843 84.1643 11.3379C81.3837 15.9852 80.372 21.6756 80.3985 27.3204L90.3984 27.2734ZM99.1211 12.5352V22.5352C98.7255 22.5352 98.2027 22.431 97.6983 22.1632C97.2191 21.9087 97.0111 21.6431 97.0012 21.6299C96.9996 21.6279 97.0449 21.6882 97.119 21.834C97.1932 21.98 97.2899 22.1994 97.3934 22.5058C97.6035 23.128 97.8142 24.0281 97.939 25.2437L107.887 24.2227L117.834 23.2016C117.345 18.4359 115.953 13.5677 113.004 9.63331C109.835 5.40601 104.998 2.53516 99.1211 2.53516V12.5352ZM107.887 24.2227V34.2227H109.863V24.2227V14.2227H107.887V24.2227ZM109.863 24.2227H119.863V10.4727H109.863L99.8633 10.4727V24.2227H109.863ZM109.863 10.4727V20.4727H116.352V10.4727V0.472656H109.863V10.4727ZM99.1211 19.0664V9.06641C95.9616 9.06641 93.0418 10.3424 90.8952 12.5409C89.0375 14.4435 88.1683 16.6056 87.7242 18.0623C86.855 20.9133 86.6923 24.2421 86.7151 27.347L96.7148 27.2734L106.715 27.1999C106.705 25.9553 106.744 25.0595 106.801 24.4421C106.862 23.7845 106.923 23.6728 106.855 23.8948C106.814 24.0301 106.452 25.2362 105.205 26.5131C104.53 27.2048 103.62 27.8881 102.466 28.3795C101.308 28.8728 100.154 29.0664 99.1211 29.0664V19.0664ZM96.7148 27.2734L86.7151 27.2004C86.6924 30.3168 86.8534 33.656 87.7276 36.5116C88.1757 37.9756 89.0541 40.1469 90.933 42.0505C93.102 44.2482 96.0161 45.4805 99.1211 45.4805V35.4805V25.4805C100.13 25.4805 101.268 25.6659 102.418 26.1489C103.567 26.6311 104.482 27.3067 105.167 28.0013C106.435 29.286 106.806 30.5093 106.852 30.6573C106.923 30.8893 106.862 30.7848 106.801 30.1247C106.744 29.5055 106.705 28.6041 106.715 27.3464L96.7148 27.2734ZM99.1211 35.4805V45.4805C102.142 45.4805 105.002 44.3219 107.18 42.2166C109.095 40.3657 110.037 38.2247 110.533 36.7235C111.494 33.8183 111.699 30.4309 111.699 27.2734H101.699H91.6992C91.6992 28.5116 91.6507 29.3909 91.5877 29.9854C91.5206 30.6193 91.4601 30.6994 91.544 30.4455C91.6053 30.2602 92.0069 29.0671 93.2815 27.8353C93.964 27.1757 94.8574 26.5468 95.9593 26.1005C97.062 25.654 98.1508 25.4805 99.1211 25.4805V35.4805ZM101.699 27.2734H111.699C111.699 24.1273 111.492 20.751 110.537 17.851C110.045 16.3577 109.114 14.2248 107.219 12.3739C105.061 10.2661 102.195 9.06641 99.1211 9.06641V19.0664V29.0664C98.1274 29.0664 97.0229 28.8853 95.9125 28.429C94.8051 27.974 93.9158 27.3375 93.2428 26.68C91.9887 25.4548 91.5969 24.278 91.5402 24.106C91.46 23.8624 91.5209 23.9499 91.5879 24.5816C91.6509 25.1746 91.6992 26.0484 91.6992 27.2734H101.699ZM150.512 12.5352L150.443 22.5349C150.488 22.5352 150.534 22.5352 150.579 22.5349L150.512 12.5352ZM150.512 32.5586L150.579 22.5588C150.534 22.5585 150.488 22.5585 150.443 22.5588L150.512 32.5586ZM171.609 10L181.609 10C181.609 4.47715 177.132 0 171.609 0V10ZM171.609 49.875V59.875C177.132 59.875 181.609 55.3978 181.609 49.875H171.609ZM164.777 49.875H154.777C154.777 55.3978 159.255 59.875 164.777 59.875V49.875ZM164.777 10V0C159.255 0 154.777 4.47715 154.777 10H164.777ZM137.879 36.6406V26.6406C134.984 26.6406 132.231 27.8953 130.332 30.0803C128.432 32.2654 127.573 35.1663 127.976 38.0332L137.879 36.6406ZM162.758 35.3945L172.704 34.3567C172.423 31.6672 171.065 29.206 168.94 27.5344C166.814 25.8627 164.103 25.123 161.423 25.4841L162.758 35.3945ZM163.273 40.3359L165.235 50.1417C170.296 49.1295 173.755 44.4317 173.219 39.2981L163.273 40.3359ZM138.652 42.1406L128.75 43.5332C129.444 48.4694 133.668 52.1406 138.652 52.1406V42.1406ZM150.512 12.5352L150.579 22.5349C151.045 22.5318 151.373 22.6075 151.575 22.6799C151.778 22.7527 151.86 22.8233 151.865 22.8281C151.867 22.8297 151.818 22.784 151.773 22.6848C151.724 22.5782 151.727 22.5128 151.727 22.5469H161.727H171.727C171.727 10.1666 161.263 2.46228 150.444 2.53538L150.512 12.5352ZM161.727 22.5469H151.727C151.727 22.6018 151.72 22.543 151.77 22.4328C151.792 22.3858 151.816 22.3458 151.839 22.3153C151.861 22.2853 151.876 22.2718 151.876 22.2718C151.876 22.2721 151.857 22.2886 151.813 22.3144C151.769 22.3403 151.698 22.376 151.595 22.4125C151.391 22.4851 151.057 22.562 150.579 22.5588L150.512 32.5586L150.444 42.5584C161.234 42.6313 171.727 34.9968 171.727 22.5469H161.727ZM150.512 32.5586L150.443 22.5588C149.581 22.5648 149.205 22.2798 149.166 22.2456C149.149 22.2312 149.195 22.2685 149.243 22.3707C149.295 22.4827 149.297 22.5621 149.297 22.5469H139.297H129.297C129.297 35.0666 139.998 42.6313 150.581 42.5584L150.512 32.5586ZM139.297 22.5469H149.297C149.297 22.5409 149.297 22.5641 149.287 22.6086C149.278 22.6526 149.262 22.7006 149.24 22.7469C149.195 22.8448 149.153 22.8752 149.177 22.8544C149.23 22.8078 149.608 22.5292 150.443 22.5349L150.512 12.5352L150.581 2.53539C139.968 2.4622 129.297 10.0966 129.297 22.5469H139.297ZM150.512 18.4648V8.46484C147.491 8.46484 143.884 9.32939 140.876 11.9458C137.674 14.7313 136.172 18.6259 136.172 22.5469H146.172H156.172C156.172 23.7608 155.636 25.6144 154.003 27.0357C152.563 28.2878 151.126 28.4648 150.512 28.4648V18.4648ZM146.172 22.5469H136.172C136.172 26.4329 137.624 30.3964 140.936 33.2315C144.011 35.8646 147.641 36.6289 150.512 36.6289V26.6289V16.6289C150.976 16.6289 152.436 16.7486 153.943 18.039C155.686 19.5313 156.172 21.4538 156.172 22.5469H146.172ZM150.512 26.6289V36.6289C153.334 36.6289 156.974 35.9223 160.095 33.3383C163.498 30.5216 165.023 26.5148 165.023 22.5469H155.023H145.023C145.023 21.3719 145.561 19.4061 147.342 17.9322C148.841 16.691 150.225 16.6289 150.512 16.6289V26.6289ZM155.023 22.5469H165.023C165.023 18.5435 163.446 14.606 160.155 11.8377C157.097 9.2655 153.479 8.46484 150.512 8.46484V18.4648V28.4648C150.08 28.4648 148.718 28.3517 147.282 27.1438C145.612 25.7397 145.023 23.8432 145.023 22.5469H155.023ZM171.609 10H161.609V49.875H171.609H181.609V10L171.609 10ZM171.609 49.875V39.875H164.777V49.875V59.875H171.609V49.875ZM164.777 49.875H174.777V10L164.777 10H154.777V49.875H164.777ZM164.777 10V20H171.609V10V0L164.777 0V10ZM137.879 36.6406V46.6406C144.807 46.6406 155.07 46.5205 164.093 45.305L162.758 35.3945L161.423 25.4841C153.859 26.503 144.787 26.6406 137.879 26.6406V36.6406ZM162.758 35.3945L152.812 36.4324L153.327 41.3738L163.273 40.3359L173.219 39.2981L172.704 34.3567L162.758 35.3945ZM163.273 40.3359L161.312 30.5301C153.806 32.0314 145.482 32.1406 138.652 32.1406V42.1406V52.1406C145.4 52.1406 155.554 52.0779 165.235 50.1417L163.273 40.3359ZM138.652 42.1406L148.555 40.7481L147.781 35.2481L137.879 36.6406L127.976 38.0332L128.75 43.5332L138.652 42.1406ZM208.734 11.5469H218.734C218.734 6.02403 214.257 1.54687 208.734 1.54687V11.5469ZM208.734 16.9609V26.9609C214.257 26.9609 218.734 22.4838 218.734 16.9609H208.734ZM198.938 16.9609V6.96094C195.705 6.96094 192.672 8.52358 190.795 11.1557C188.918 13.7879 188.43 17.1648 189.484 20.2208L198.938 16.9609ZM210.754 22.8906L219.85 27.0448C221.196 24.0988 221.031 20.6836 219.408 17.8806C217.786 15.0777 214.906 13.2341 211.681 12.9337L210.754 22.8906ZM208.262 28.3477L207.259 38.2972C211.519 38.7267 215.579 36.3965 217.358 32.5019L208.262 28.3477ZM193.824 20.7852L202.635 16.056C200.895 12.8141 197.515 10.7895 193.836 10.7852C190.157 10.7808 186.772 12.7974 185.024 16.0352L193.824 20.7852ZM179.473 28.3477L170.349 32.4423C172.113 36.3723 176.196 38.7311 180.481 38.2967L179.473 28.3477ZM177.023 22.8906L176.093 12.934C172.881 13.2341 170.01 15.066 168.385 17.8535C166.759 20.641 166.579 24.0415 167.9 26.9853L177.023 22.8906ZM188.797 16.9609L198.216 20.3191C199.308 17.2569 198.843 13.8551 196.969 11.1982C195.096 8.5413 192.048 6.96094 188.797 6.96094V16.9609ZM179.086 16.9609H169.086C169.086 22.4838 173.563 26.9609 179.086 26.9609V16.9609ZM179.086 11.5469V1.54687C173.563 1.54687 169.086 6.02403 169.086 11.5469L179.086 11.5469ZM207.832 43.6875H217.832C217.832 38.1647 213.355 33.6875 207.832 33.6875V43.6875ZM207.832 49.1875V59.1875C213.355 59.1875 217.832 54.7103 217.832 49.1875H207.832ZM179.945 49.1875H169.945C169.945 54.7103 174.422 59.1875 179.945 59.1875V49.1875ZM179.945 37.6719V27.6719C174.422 27.6719 169.945 32.149 169.945 37.6719H179.945ZM186.863 37.6719H196.863C196.863 32.149 192.386 27.6719 186.863 27.6719V37.6719ZM186.863 43.6875H176.863C176.863 49.2103 181.34 53.6875 186.863 53.6875V43.6875ZM211.957 30.2812H221.957C221.957 24.7584 217.48 20.2812 211.957 20.2812V30.2812ZM211.957 35.7812V45.7812C217.48 45.7812 221.957 41.3041 221.957 35.7812H211.957ZM175.777 35.7812H165.777C165.777 41.3041 170.255 45.7812 175.777 45.7812V35.7812ZM175.777 30.2812V20.2812C170.255 20.2812 165.777 24.7584 165.777 30.2812H175.777ZM190.387 30.2812V40.2812C195.91 40.2812 200.387 35.8041 200.387 30.2812H190.387ZM190.387 25.4687V15.4687C184.864 15.4687 180.387 19.9459 180.387 25.4687H190.387ZM197.262 25.4687L207.262 25.4687C207.262 19.9459 202.785 15.4687 197.262 15.4687V25.4687ZM197.262 30.2812H187.262C187.262 35.8041 191.739 40.2812 197.262 40.2812V30.2812ZM208.734 11.5469H198.734V16.9609L208.734 16.9609H218.734V11.5469H208.734ZM208.734 16.9609V6.96094H198.938V16.9609V26.9609L208.734 26.9609V16.9609ZM198.938 16.9609L189.484 20.2208C192.272 28.3081 200.545 31.983 209.826 32.8475L210.754 22.8906L211.681 12.9337C208.687 12.6548 207.471 12.0674 207.234 11.9302C207.112 11.8595 207.917 12.327 208.391 13.701L198.938 16.9609ZM210.754 22.8906L201.658 18.7364L199.165 24.1934L208.262 28.3477L217.358 32.5019L219.85 27.0448L210.754 22.8906ZM208.262 28.3477L209.265 18.3981C206.331 18.1023 204.618 17.4583 203.708 16.9528C202.865 16.4843 202.671 16.1233 202.635 16.056L193.824 20.7852L185.013 25.5143C189.168 33.2558 197.395 37.3028 207.259 38.2972L208.262 28.3477ZM193.824 20.7852L185.024 16.0352C184.973 16.1304 184.764 16.4982 183.934 16.9631C183.041 17.4637 181.358 18.1053 178.464 18.3986L179.473 28.3477L180.481 38.2967C190.373 37.2939 198.494 33.1874 202.624 25.5351L193.824 20.7852ZM179.473 28.3477L188.596 24.253L186.147 18.7959L177.023 22.8906L167.9 26.9853L170.349 32.4423L179.473 28.3477ZM177.023 22.8906L177.953 32.8473C187.345 31.9701 195.4 28.2188 198.216 20.3191L188.797 16.9609L179.378 13.6028C179.834 12.322 180.58 11.8785 180.475 11.9401C180.25 12.0708 179.059 12.6569 176.093 12.934L177.023 22.8906ZM188.797 16.9609V6.96094H179.086V16.9609V26.9609H188.797V16.9609ZM179.086 16.9609H189.086V11.5469H179.086L169.086 11.5469V16.9609H179.086ZM179.086 11.5469V21.5469L208.734 21.5469V11.5469V1.54687L179.086 1.54687V11.5469ZM207.832 43.6875H197.832V49.1875H207.832H217.832V43.6875H207.832ZM207.832 49.1875V39.1875H179.945V49.1875V59.1875H207.832V49.1875ZM179.945 49.1875H189.945V37.6719H179.945H169.945V49.1875H179.945ZM179.945 37.6719V47.6719H186.863V37.6719V27.6719H179.945V37.6719ZM186.863 37.6719H176.863V43.6875H186.863H196.863V37.6719H186.863ZM186.863 43.6875V53.6875H207.832V43.6875V33.6875H186.863V43.6875ZM211.957 30.2812H201.957V35.7812H211.957H221.957V30.2812H211.957ZM211.957 35.7812V25.7812L175.777 25.7812V35.7812V45.7812H211.957V35.7812ZM175.777 35.7812H185.777V30.2812H175.777H165.777V35.7812H175.777ZM175.777 30.2812V40.2812H190.387V30.2812V20.2812H175.777V30.2812ZM190.387 30.2812H200.387V25.4687H190.387H180.387V30.2812H190.387ZM190.387 25.4687V35.4687H197.262V25.4687V15.4687H190.387V25.4687ZM197.262 25.4687H187.262V30.2812H197.262H207.262V25.4687L197.262 25.4687ZM197.262 30.2812V40.2812H211.957V30.2812V20.2812L197.262 20.2812V30.2812ZM245.516 10H255.516C255.516 4.47715 251.038 0 245.516 0V10ZM245.516 25.082H235.516C235.516 30.6049 239.993 35.082 245.516 35.082V25.082ZM250.887 25.082H260.887C260.887 19.5592 256.41 15.082 250.887 15.082V25.082ZM250.887 30.7109V40.7109C256.41 40.7109 260.887 36.2338 260.887 30.7109H250.887ZM245.516 30.7109V20.7109C239.993 20.7109 235.516 25.1881 235.516 30.7109H245.516ZM245.516 49.7461V59.7461C251.038 59.7461 255.516 55.2689 255.516 49.7461H245.516ZM238.684 49.7461H228.684C228.684 55.2689 233.161 59.7461 238.684 59.7461V49.7461ZM238.684 10V0C233.161 0 228.684 4.47715 228.684 10L238.684 10ZM236.75 15.6719H246.75C246.75 10.149 242.273 5.67187 236.75 5.67187V15.6719ZM236.75 21.1289V31.1289C242.273 31.1289 246.75 26.6518 246.75 21.1289H236.75ZM213.59 21.1289L203.59 21.1289C203.59 26.6518 208.067 31.1289 213.59 31.1289V21.1289ZM213.59 15.6719V5.67187C208.067 5.67187 203.59 10.149 203.59 15.6719L213.59 15.6719ZM221.797 15.6719V25.6719C227.32 25.6719 231.797 21.1947 231.797 15.6719H221.797ZM221.797 10.7305V0.730469C216.274 0.730469 211.797 5.20762 211.797 10.7305H221.797ZM228.672 10.7305L238.672 10.7305C238.672 5.20762 234.195 0.730469 228.672 0.730469V10.7305ZM228.672 15.6719H218.672C218.672 21.1947 223.149 25.6719 228.672 25.6719V15.6719ZM221.41 32.3437L231.409 32.4976C231.411 32.3926 231.411 32.2875 231.409 32.1825L221.41 32.3437ZM245.516 10L235.516 10V25.082H245.516H255.516V10H245.516ZM245.516 25.082V35.082H250.887V25.082V15.082H245.516V25.082ZM250.887 25.082H240.887V30.7109H250.887H260.887V25.082H250.887ZM250.887 30.7109V20.7109H245.516V30.7109V40.7109H250.887V30.7109ZM245.516 30.7109H235.516V49.7461H245.516H255.516V30.7109H245.516ZM245.516 49.7461V39.7461H238.684V49.7461V59.7461H245.516V49.7461ZM238.684 49.7461H248.684V10H238.684L228.684 10V49.7461H238.684ZM238.684 10V20H245.516V10V0L238.684 0V10ZM236.75 15.6719H226.75V21.1289H236.75H246.75V15.6719H236.75ZM236.75 21.1289V11.1289H213.59V21.1289V31.1289H236.75V21.1289ZM213.59 21.1289H223.59V15.6719H213.59L203.59 15.6719V21.1289L213.59 21.1289ZM213.59 15.6719V25.6719H221.797V15.6719V5.67187H213.59V15.6719ZM221.797 15.6719H231.797V10.7305H221.797H211.797V15.6719H221.797ZM221.797 10.7305V20.7305H228.672V10.7305V0.730469H221.797V10.7305ZM228.672 10.7305H218.672V15.6719H228.672H238.672V10.7305L228.672 10.7305ZM228.672 15.6719V25.6719H236.75V15.6719V5.67187H228.672V15.6719ZM225.234 22.6758V32.6758C225.561 32.6758 225.759 32.7311 225.847 32.7641C225.937 32.7974 225.93 32.8128 225.873 32.7608C225.813 32.7055 225.738 32.6106 225.683 32.4862C225.626 32.3569 225.633 32.29 225.633 32.3437H235.633H245.633C245.633 20.4166 235.835 12.6758 225.234 12.6758V22.6758ZM235.633 32.3437H225.633C225.633 32.4188 225.622 32.3657 225.675 32.2435C225.727 32.1256 225.8 32.0317 225.862 31.9749C225.92 31.9214 225.929 31.9351 225.843 31.9673C225.757 31.9994 225.561 32.0547 225.234 32.0547V42.0547V52.0547C235.866 52.0547 245.633 44.2857 245.633 32.3437H235.633ZM225.234 42.0547V32.0547C224.851 32.0547 224.629 31.9911 224.54 31.9582C224.452 31.9257 224.474 31.9166 224.548 31.9846C224.625 32.056 224.704 32.1625 224.756 32.2831C224.809 32.4057 224.793 32.4461 224.793 32.3437H214.793H204.793C204.793 44.2597 214.446 52.0547 225.234 52.0547V42.0547ZM214.793 32.3437H224.793C224.793 32.2625 224.805 32.3167 224.749 32.4465C224.694 32.5737 224.612 32.6813 224.536 32.751C224.464 32.8175 224.445 32.8068 224.536 32.7732C224.627 32.7394 224.851 32.6758 225.234 32.6758V22.6758V12.6758C214.476 12.6758 204.793 20.4426 204.793 32.3437H214.793ZM225.234 28.2187V18.2187C221.921 18.2187 218.199 19.3418 215.315 22.2942C212.411 25.2668 211.356 29.0654 211.411 32.505L221.41 32.3437L231.409 32.1825C231.421 32.958 231.161 34.6941 229.621 36.2703C228.101 37.8262 226.314 38.2187 225.234 38.2187V28.2187ZM221.41 32.3437L211.411 32.1899C211.359 35.5736 212.348 39.4751 215.397 42.5247C218.399 45.5265 222.168 46.4687 225.234 46.4687V36.4687V26.4687C226.067 26.4687 227.902 26.745 229.539 28.3825C231.225 30.0678 231.418 31.9069 231.409 32.4976L221.41 32.3437ZM225.234 36.4687V46.4687C228.348 46.4687 232.104 45.4854 235.074 42.4683C238.047 39.448 239.016 35.6263 239.016 32.3437H229.016H219.016C219.016 31.8542 219.19 30.095 220.82 28.4389C222.447 26.7861 224.312 26.4687 225.234 26.4687V36.4687ZM229.016 32.3437H239.016C239.016 29.0131 237.986 25.2955 235.155 22.3511C232.307 19.3886 228.598 18.2187 225.234 18.2187V28.2187V38.2187C224.062 38.2187 222.244 37.7793 220.738 36.2133C219.25 34.6654 219.016 33.0104 219.016 32.3437H229.016ZM284.188 20.0977H294.188C294.188 14.5748 289.71 10.0977 284.188 10.0977V20.0977ZM284.188 25.4258V35.4258C289.71 35.4258 294.188 30.9486 294.188 25.4258H284.188ZM256.086 25.4258H246.086C246.086 30.9486 250.563 35.4258 256.086 35.4258V25.4258ZM256.086 11.418V1.41797C250.563 1.41797 246.086 5.89512 246.086 11.418H256.086ZM262.961 11.418H272.961C272.961 5.89512 268.484 1.41797 262.961 1.41797V11.418ZM262.961 20.0977H252.961C252.961 25.6205 257.438 30.0977 262.961 30.0977V20.0977ZM288.098 28.9492H298.098C298.098 23.4264 293.621 18.9492 288.098 18.9492V28.9492ZM288.098 34.2773V44.2773C293.621 44.2773 298.098 39.8002 298.098 34.2773H288.098ZM251.832 34.2773H241.832C241.832 39.8002 246.309 44.2773 251.832 44.2773V34.2773ZM251.832 28.9492V18.9492C246.309 18.9492 241.832 23.4264 241.832 28.9492H251.832ZM284.445 43.4727H294.445C294.445 37.9498 289.968 33.4727 284.445 33.4727V43.4727ZM284.445 48.9727V58.9727C289.968 58.9727 294.445 54.4955 294.445 48.9727H284.445ZM255.613 48.9727H245.613C245.613 54.4955 250.09 58.9727 255.613 58.9727V48.9727ZM255.613 37.0273V27.0273C250.09 27.0273 245.613 31.5045 245.613 37.0273H255.613ZM262.574 37.0273H272.574C272.574 31.5045 268.097 27.0273 262.574 27.0273V37.0273ZM262.574 43.4727H252.574C252.574 48.9955 257.051 53.4727 262.574 53.4727V43.4727ZM284.188 20.0977H274.188V25.4258H284.188H294.188V20.0977H284.188ZM284.188 25.4258V15.4258H256.086V25.4258V35.4258H284.188V25.4258ZM256.086 25.4258H266.086V11.418H256.086H246.086V25.4258H256.086ZM256.086 11.418V21.418H262.961V11.418V1.41797H256.086V11.418ZM262.961 11.418H252.961V20.0977H262.961H272.961V11.418H262.961ZM262.961 20.0977V30.0977H284.188V20.0977V10.0977H262.961V20.0977ZM288.098 28.9492H278.098V34.2773H288.098H298.098V28.9492H288.098ZM288.098 34.2773V24.2773H251.832V34.2773V44.2773H288.098V34.2773ZM251.832 34.2773H261.832V28.9492H251.832H241.832V34.2773H251.832ZM251.832 28.9492V38.9492H288.098V28.9492V18.9492H251.832V28.9492ZM284.445 43.4727H274.445V48.9727H284.445H294.445V43.4727H284.445ZM284.445 48.9727V38.9727H255.613V48.9727V58.9727H284.445V48.9727ZM255.613 48.9727H265.613V37.0273H255.613H245.613V48.9727H255.613ZM255.613 37.0273V47.0273H262.574V37.0273V27.0273H255.613V37.0273ZM262.574 37.0273H252.574V43.4727H262.574H272.574V37.0273H262.574ZM262.574 43.4727V53.4727H284.445V43.4727V33.4727H262.574V43.4727Z" fill="white" mask="url(#path-1-outside-1_6526_5686)"/>
</g>
<defs>
<filter id="filter0_d_6526_5686" x="0" y="0" width="302.098" height="67.875" filterUnits="userSpaceOnUse" color-interpolation-filters="sRGB">
<feFlood flood-opacity="0" result="BackgroundImageFix"/>
<feColorMatrix in="SourceAlpha" type="matrix" values="0 0 0 0 0 0 0 0 0 0 0 0 0 0 0 0 0 0 127 0" result="hardAlpha"/>
<feOffset dy="4"/>
<feGaussianBlur stdDeviation="2"/>
<feComposite in2="hardAlpha" operator="out"/>
<feColorMatrix type="matrix" values="0 0 0 0 0 0 0 0 0 0 0 0 0 0 0 0 0 0 0.07 0"/>
<feBlend mode="normal" in2="BackgroundImageFix" result="effect1_dropShadow_6526_5686"/>
<feBlend mode="normal" in="SourceGraphic" in2="effect1_dropShadow_6526_5686" result="shape"/>
</filter>
</defs>
</svg>
