<svg width="388" height="69" viewBox="0 0 388 69" fill="none" xmlns="http://www.w3.org/2000/svg">
<g filter="url(#filter0_d_6524_1857)">
<mask id="path-1-outside-1_6524_1857" maskUnits="userSpaceOnUse" x="3.18359" y="-0.25" width="381" height="61" fill="black">
<rect fill="white" x="3.18359" y="-0.25" width="381" height="61"/>
<path d="M37.5469 12.8359V18.293H30.3281C30.4785 22.4824 32.7344 27.0156 39.3516 28.9492L35.8281 34.3203C31.5527 33.0312 28.6738 30.4746 26.9336 27.2305C25.1074 30.7754 22.0781 33.6113 17.5234 35.0078L14 29.6367C20.7246 27.6172 23.0879 22.7832 23.3242 18.293H15.8047V12.8359H37.5469ZM47.6016 10.3437V38.7891H40.6836V10.3438L47.6016 10.3437ZM48.5469 43.9453V49.4453H20.4023V36.2969H27.3633V43.9453H48.5469ZM86.4883 10.2578V35.0508H79.957V25.082H78.1523V33.8047H71.707V10.9883H78.1523V19.4961H79.957V10.2578H86.4883ZM70.8477 13.9531V19.2383H51.8984V13.9531H57.957V10.6875H64.7891V13.9531H70.8477ZM61.4375 20.0547C66.5078 20.0547 70.2031 22.9336 70.2461 27.1016C70.2031 31.2266 66.5078 34.0625 61.4375 34.0625C56.4961 34.0625 52.8008 31.2266 52.8008 27.1016C52.8008 22.9336 56.4961 20.0547 61.4375 20.0547ZM61.4375 24.9531C59.9336 24.9531 58.9023 25.6406 58.9023 27.1016C58.9023 28.5195 59.9336 29.25 61.4375 29.25C62.9844 29.25 63.9727 28.5195 64.0156 27.1016C63.9727 25.6406 62.9844 24.9531 61.4375 24.9531ZM72.6094 35.2227C81.375 35.2227 86.6602 37.9297 86.7031 42.6562C86.6602 47.3828 81.375 50.0898 72.6094 50.0898C63.9727 50.0898 58.6016 47.3828 58.6445 42.6562C58.6016 37.9297 63.9727 35.2227 72.6094 35.2227ZM72.6094 40.3359C67.7539 40.3359 65.5195 40.9375 65.5195 42.6562C65.5195 44.2891 67.7539 44.9336 72.6094 44.9336C77.5508 44.9336 79.6992 44.2891 79.7422 42.6562C79.6992 40.9375 77.5508 40.3359 72.6094 40.3359ZM114.977 16.4453C114.934 20.8711 116.91 25.2969 123.57 27.1875L119.918 32.5156C115.9 31.2695 113.193 28.9062 111.539 25.8984C109.82 29.4648 106.941 32.2578 102.559 33.6328L98.8633 28.2617C105.91 26.0273 107.973 20.7852 108.016 15.7148V12.4492L114.977 12.4492V16.4453ZM131.52 10.2578V18.8945H136.461V24.5664H131.52V33.4609H124.602V10.2578H131.52ZM118.328 34.1484C126.578 34.1055 131.906 37.1133 131.906 42.0977C131.906 47.168 126.578 50.0898 118.328 50.0898C109.82 50.0898 104.406 47.168 104.449 42.0977C104.406 37.1133 109.82 34.1055 118.328 34.1484ZM118.328 39.4766C113.645 39.4766 111.324 40.293 111.324 42.0977C111.324 43.9883 113.645 44.7188 118.328 44.7188C122.926 44.7188 125.074 43.9883 125.074 42.0977C125.074 40.293 122.926 39.4766 118.328 39.4766ZM169.977 10.3437V21.1719H174.531V26.7578H169.977V37.0703H163.102V10.3437H169.977ZM156.227 37.2852C165.035 37.2852 170.062 39.6055 170.062 43.7305C170.062 47.8984 165.035 50.1328 156.227 50.1328C147.332 50.1328 142.348 47.8984 142.348 43.7305C142.348 39.6055 147.332 37.2852 156.227 37.2852ZM156.227 42.2266C151.113 42.2266 149.223 42.6133 149.266 43.7305C149.223 44.8047 151.113 45.1914 156.227 45.1484C161.254 45.1914 163.145 44.8047 163.145 43.7305C163.145 42.6133 161.254 42.2266 156.227 42.2266ZM137.148 31.3555C139.877 31.334 142.906 31.334 146.086 31.2695V29.4648C141.961 28.7773 139.469 26.7793 139.469 23.9648C139.469 20.4414 143.379 18.25 149.48 18.25C155.539 18.25 159.449 20.4414 159.449 23.9648C159.449 26.7578 157 28.7344 152.961 29.4219V31.0117C155.904 30.8613 158.848 30.6465 161.641 30.2812L162.113 34.9219C153.734 36.3398 144.84 36.4258 137.836 36.4258L137.148 31.3555ZM160.781 12.75V17.7344H138.223V12.75H146.086V10H152.961V12.75H160.781ZM149.48 22.6328C147.203 22.6758 146.043 23.0625 146.043 23.9648C146.043 24.9531 147.203 25.2969 149.48 25.2969C151.715 25.2969 152.832 24.9531 152.875 23.9648C152.832 23.0625 151.715 22.6758 149.48 22.6328ZM193.91 10.7734C203.234 10.7734 208.562 13.1367 208.605 17.4766C208.562 21.8594 203.234 24.2227 193.91 24.2227C184.543 24.2227 179.129 21.8594 179.172 17.4766C179.129 13.1367 184.543 10.7734 193.91 10.7734ZM193.91 15.7578C188.539 15.7578 186.391 16.2734 186.391 17.4766C186.391 18.9375 188.539 19.1953 193.91 19.2383C199.324 19.1953 201.473 18.9375 201.473 17.4766C201.473 16.2734 199.324 15.7578 193.91 15.7578ZM212.043 25.5547V31.0117H175.777V25.5547L212.043 25.5547ZM207.746 32.5156V43.4727H186.562V44.7617H208.691V49.832H179.816V38.7461H200.957V37.543H179.859V32.5156H207.746ZM241.219 34.793C250.027 34.8359 255.527 37.5859 255.57 42.4414C255.527 47.2109 250.027 50.0898 241.219 50.0898C232.582 50.0898 226.91 47.2109 226.91 42.4414C226.91 37.5859 232.582 34.8359 241.219 34.793ZM241.219 39.8633C236.32 39.8633 233.785 40.6797 233.828 42.4414C233.785 44.2031 236.32 44.8906 241.219 44.8906C246.16 44.8906 248.738 44.2031 248.738 42.4414C248.738 40.6797 246.16 39.8633 241.219 39.8633ZM255.441 11.9336V15.1133C255.441 18.207 255.441 21.7305 254.281 25.7695L247.535 25.168C248.287 22.0312 248.459 19.625 248.523 17.2617H227.426V11.9336L255.441 11.9336ZM259.523 27.5312V33.0742H223.516V27.5312H236.105V21H242.938V27.5312H259.523ZM297.68 32.043V37.543H289.859V50.0039H282.855V37.543H276.023V50.0039H268.977V37.543H261.414V32.043H297.68ZM279.418 11.4609C288.055 11.418 294.242 15.0273 294.242 20.6133C294.242 26.0273 288.055 29.4648 279.418 29.4648C270.781 29.4648 264.68 26.0273 264.723 20.6133C264.68 15.0273 270.781 11.418 279.418 11.4609ZM279.418 16.918C274.648 16.918 271.812 18.0781 271.812 20.6133C271.812 22.9336 274.648 24.0508 279.418 24.0937C284.273 24.0508 287.066 22.9336 287.066 20.6133C287.066 18.0781 284.273 16.918 279.418 16.918ZM331.152 10.2578V25.3398L336.523 25.3398V30.9687H331.152V50.0039H324.32V10.2578H331.152ZM322.387 15.9297V21.3867H299.227V15.9297H307.434V10.9883H314.309V15.9297H322.387ZM310.871 22.9336C316.758 22.9336 321.27 26.9727 321.27 32.6016C321.27 38.2734 316.758 42.3125 310.871 42.3125C304.855 42.3125 300.43 38.2734 300.43 32.6016C300.43 26.9727 304.855 22.9336 310.871 22.9336ZM310.871 28.4766C308.637 28.4766 307.004 29.9375 307.047 32.6016C307.004 35.3945 308.637 36.7266 310.871 36.7266C313.062 36.7266 314.652 35.3945 314.652 32.6016C314.652 29.9375 313.062 28.4766 310.871 28.4766ZM369.824 20.3555V25.6836H341.723V11.6758H348.598V20.3555H369.824ZM373.734 29.207V34.5352H337.469V29.207H373.734ZM370.082 43.7305V49.2305H341.25V37.2852H348.211V43.7305H370.082Z"/>
</mask>
<path d="M37.5469 12.8359V18.293H30.3281C30.4785 22.4824 32.7344 27.0156 39.3516 28.9492L35.8281 34.3203C31.5527 33.0312 28.6738 30.4746 26.9336 27.2305C25.1074 30.7754 22.0781 33.6113 17.5234 35.0078L14 29.6367C20.7246 27.6172 23.0879 22.7832 23.3242 18.293H15.8047V12.8359H37.5469ZM47.6016 10.3437V38.7891H40.6836V10.3438L47.6016 10.3437ZM48.5469 43.9453V49.4453H20.4023V36.2969H27.3633V43.9453H48.5469ZM86.4883 10.2578V35.0508H79.957V25.082H78.1523V33.8047H71.707V10.9883H78.1523V19.4961H79.957V10.2578H86.4883ZM70.8477 13.9531V19.2383H51.8984V13.9531H57.957V10.6875H64.7891V13.9531H70.8477ZM61.4375 20.0547C66.5078 20.0547 70.2031 22.9336 70.2461 27.1016C70.2031 31.2266 66.5078 34.0625 61.4375 34.0625C56.4961 34.0625 52.8008 31.2266 52.8008 27.1016C52.8008 22.9336 56.4961 20.0547 61.4375 20.0547ZM61.4375 24.9531C59.9336 24.9531 58.9023 25.6406 58.9023 27.1016C58.9023 28.5195 59.9336 29.25 61.4375 29.25C62.9844 29.25 63.9727 28.5195 64.0156 27.1016C63.9727 25.6406 62.9844 24.9531 61.4375 24.9531ZM72.6094 35.2227C81.375 35.2227 86.6602 37.9297 86.7031 42.6562C86.6602 47.3828 81.375 50.0898 72.6094 50.0898C63.9727 50.0898 58.6016 47.3828 58.6445 42.6562C58.6016 37.9297 63.9727 35.2227 72.6094 35.2227ZM72.6094 40.3359C67.7539 40.3359 65.5195 40.9375 65.5195 42.6562C65.5195 44.2891 67.7539 44.9336 72.6094 44.9336C77.5508 44.9336 79.6992 44.2891 79.7422 42.6562C79.6992 40.9375 77.5508 40.3359 72.6094 40.3359ZM114.977 16.4453C114.934 20.8711 116.91 25.2969 123.57 27.1875L119.918 32.5156C115.9 31.2695 113.193 28.9062 111.539 25.8984C109.82 29.4648 106.941 32.2578 102.559 33.6328L98.8633 28.2617C105.91 26.0273 107.973 20.7852 108.016 15.7148V12.4492L114.977 12.4492V16.4453ZM131.52 10.2578V18.8945H136.461V24.5664H131.52V33.4609H124.602V10.2578H131.52ZM118.328 34.1484C126.578 34.1055 131.906 37.1133 131.906 42.0977C131.906 47.168 126.578 50.0898 118.328 50.0898C109.82 50.0898 104.406 47.168 104.449 42.0977C104.406 37.1133 109.82 34.1055 118.328 34.1484ZM118.328 39.4766C113.645 39.4766 111.324 40.293 111.324 42.0977C111.324 43.9883 113.645 44.7188 118.328 44.7188C122.926 44.7188 125.074 43.9883 125.074 42.0977C125.074 40.293 122.926 39.4766 118.328 39.4766ZM169.977 10.3437V21.1719H174.531V26.7578H169.977V37.0703H163.102V10.3437H169.977ZM156.227 37.2852C165.035 37.2852 170.062 39.6055 170.062 43.7305C170.062 47.8984 165.035 50.1328 156.227 50.1328C147.332 50.1328 142.348 47.8984 142.348 43.7305C142.348 39.6055 147.332 37.2852 156.227 37.2852ZM156.227 42.2266C151.113 42.2266 149.223 42.6133 149.266 43.7305C149.223 44.8047 151.113 45.1914 156.227 45.1484C161.254 45.1914 163.145 44.8047 163.145 43.7305C163.145 42.6133 161.254 42.2266 156.227 42.2266ZM137.148 31.3555C139.877 31.334 142.906 31.334 146.086 31.2695V29.4648C141.961 28.7773 139.469 26.7793 139.469 23.9648C139.469 20.4414 143.379 18.25 149.48 18.25C155.539 18.25 159.449 20.4414 159.449 23.9648C159.449 26.7578 157 28.7344 152.961 29.4219V31.0117C155.904 30.8613 158.848 30.6465 161.641 30.2812L162.113 34.9219C153.734 36.3398 144.84 36.4258 137.836 36.4258L137.148 31.3555ZM160.781 12.75V17.7344H138.223V12.75H146.086V10H152.961V12.75H160.781ZM149.48 22.6328C147.203 22.6758 146.043 23.0625 146.043 23.9648C146.043 24.9531 147.203 25.2969 149.48 25.2969C151.715 25.2969 152.832 24.9531 152.875 23.9648C152.832 23.0625 151.715 22.6758 149.48 22.6328ZM193.91 10.7734C203.234 10.7734 208.562 13.1367 208.605 17.4766C208.562 21.8594 203.234 24.2227 193.91 24.2227C184.543 24.2227 179.129 21.8594 179.172 17.4766C179.129 13.1367 184.543 10.7734 193.91 10.7734ZM193.91 15.7578C188.539 15.7578 186.391 16.2734 186.391 17.4766C186.391 18.9375 188.539 19.1953 193.91 19.2383C199.324 19.1953 201.473 18.9375 201.473 17.4766C201.473 16.2734 199.324 15.7578 193.91 15.7578ZM212.043 25.5547V31.0117H175.777V25.5547L212.043 25.5547ZM207.746 32.5156V43.4727H186.562V44.7617H208.691V49.832H179.816V38.7461H200.957V37.543H179.859V32.5156H207.746ZM241.219 34.793C250.027 34.8359 255.527 37.5859 255.57 42.4414C255.527 47.2109 250.027 50.0898 241.219 50.0898C232.582 50.0898 226.91 47.2109 226.91 42.4414C226.91 37.5859 232.582 34.8359 241.219 34.793ZM241.219 39.8633C236.32 39.8633 233.785 40.6797 233.828 42.4414C233.785 44.2031 236.32 44.8906 241.219 44.8906C246.16 44.8906 248.738 44.2031 248.738 42.4414C248.738 40.6797 246.16 39.8633 241.219 39.8633ZM255.441 11.9336V15.1133C255.441 18.207 255.441 21.7305 254.281 25.7695L247.535 25.168C248.287 22.0312 248.459 19.625 248.523 17.2617H227.426V11.9336L255.441 11.9336ZM259.523 27.5312V33.0742H223.516V27.5312H236.105V21H242.938V27.5312H259.523ZM297.68 32.043V37.543H289.859V50.0039H282.855V37.543H276.023V50.0039H268.977V37.543H261.414V32.043H297.68ZM279.418 11.4609C288.055 11.418 294.242 15.0273 294.242 20.6133C294.242 26.0273 288.055 29.4648 279.418 29.4648C270.781 29.4648 264.68 26.0273 264.723 20.6133C264.68 15.0273 270.781 11.418 279.418 11.4609ZM279.418 16.918C274.648 16.918 271.812 18.0781 271.812 20.6133C271.812 22.9336 274.648 24.0508 279.418 24.0937C284.273 24.0508 287.066 22.9336 287.066 20.6133C287.066 18.0781 284.273 16.918 279.418 16.918ZM331.152 10.2578V25.3398L336.523 25.3398V30.9687H331.152V50.0039H324.32V10.2578H331.152ZM322.387 15.9297V21.3867H299.227V15.9297H307.434V10.9883H314.309V15.9297H322.387ZM310.871 22.9336C316.758 22.9336 321.27 26.9727 321.27 32.6016C321.27 38.2734 316.758 42.3125 310.871 42.3125C304.855 42.3125 300.43 38.2734 300.43 32.6016C300.43 26.9727 304.855 22.9336 310.871 22.9336ZM310.871 28.4766C308.637 28.4766 307.004 29.9375 307.047 32.6016C307.004 35.3945 308.637 36.7266 310.871 36.7266C313.062 36.7266 314.652 35.3945 314.652 32.6016C314.652 29.9375 313.062 28.4766 310.871 28.4766ZM369.824 20.3555V25.6836H341.723V11.6758H348.598V20.3555H369.824ZM373.734 29.207V34.5352H337.469V29.207H373.734ZM370.082 43.7305V49.2305H341.25V37.2852H348.211V43.7305H370.082Z" fill="#11DCA9"/>
<path d="M37.5469 12.8359H47.5469C47.5469 7.31309 43.0697 2.83594 37.5469 2.83594V12.8359ZM37.5469 18.293V28.293C43.0697 28.293 47.5469 23.8158 47.5469 18.293H37.5469ZM30.3281 18.293V8.29297C27.6137 8.29297 25.016 9.39641 23.1313 11.3499C21.2467 13.3034 20.2372 15.9391 20.3346 18.6517L30.3281 18.293ZM39.3516 28.9492L47.713 34.4343C49.4515 31.7841 49.8307 28.4666 48.7351 25.4924C47.6394 22.5183 45.1987 20.2396 42.1563 19.3506L39.3516 28.9492ZM35.8281 34.3203L32.9414 43.8946C37.1826 45.1734 41.7598 43.5094 44.1896 39.8054L35.8281 34.3203ZM26.9336 27.2305L35.7458 22.5034C33.99 19.2302 30.5646 17.1999 26.8503 17.2308C23.136 17.2618 19.7449 19.3489 18.0438 22.6509L26.9336 27.2305ZM17.5234 35.0078L9.162 40.4929C11.6013 44.2113 16.203 45.8721 20.4548 44.5685L17.5234 35.0078ZM14 29.6367L11.1237 20.0593C8.10066 20.9672 5.6837 23.2491 4.60364 26.215C3.52358 29.1809 3.90722 32.4826 5.63856 35.1218L14 29.6367ZM23.3242 18.293L33.3104 18.8186C33.4546 16.079 32.4669 13.4004 30.5787 11.4102C28.6905 9.42004 26.0676 8.29297 23.3242 8.29297V18.293ZM15.8047 18.293H5.80469C5.80469 23.8158 10.2818 28.293 15.8047 28.293V18.293ZM15.8047 12.8359V2.83594C10.2818 2.83594 5.80469 7.31309 5.80469 12.8359H15.8047ZM47.6016 10.3437H57.6016C57.6016 4.8209 53.1244 0.34375 47.6016 0.34375V10.3437ZM47.6016 38.7891V48.7891C53.1244 48.7891 57.6016 44.3119 57.6016 38.7891H47.6016ZM40.6836 38.7891H30.6836C30.6836 44.3119 35.1607 48.7891 40.6836 48.7891V38.7891ZM40.6836 10.3438V0.34375C35.1607 0.34375 30.6836 4.8209 30.6836 10.3438H40.6836ZM48.5469 43.9453H58.5469C58.5469 38.4225 54.0697 33.9453 48.5469 33.9453V43.9453ZM48.5469 49.4453V59.4453C54.0697 59.4453 58.5469 54.9682 58.5469 49.4453H48.5469ZM20.4023 49.4453H10.4023C10.4023 54.9682 14.8795 59.4453 20.4023 59.4453V49.4453ZM20.4023 36.2969V26.2969C14.8795 26.2969 10.4023 30.774 10.4023 36.2969H20.4023ZM27.3633 36.2969H37.3633C37.3633 30.774 32.8861 26.2969 27.3633 26.2969V36.2969ZM27.3633 43.9453H17.3633C17.3633 49.4682 21.8404 53.9453 27.3633 53.9453V43.9453ZM37.5469 12.8359H27.5469V18.293H37.5469H47.5469V12.8359H37.5469ZM37.5469 18.293V8.29297H30.3281V18.293V28.293H37.5469V18.293ZM30.3281 18.293L20.3346 18.6517C20.4688 22.392 21.5618 26.6252 24.3863 30.4288C27.2616 34.3009 31.4327 37.0534 36.5468 38.5478L39.3516 28.9492L42.1563 19.3506C41.3687 19.1205 40.9294 18.8778 40.7154 18.7352C40.5099 18.5984 40.4488 18.5127 40.4433 18.5053C40.4335 18.4921 40.4141 18.4646 40.3903 18.3906C40.3633 18.3066 40.3297 18.1565 40.3217 17.9342L30.3281 18.293ZM39.3516 28.9492L30.9901 23.4641L27.4667 28.8352L35.8281 34.3203L44.1896 39.8054L47.713 34.4343L39.3516 28.9492ZM35.8281 34.3203L38.7148 24.746C36.9902 24.226 36.2374 23.4198 35.7458 22.5034L26.9336 27.2305L18.1214 31.9575C21.1103 37.5294 26.1152 41.8365 32.9414 43.8946L35.8281 34.3203ZM26.9336 27.2305L18.0438 22.6509C17.3843 23.9312 16.4334 24.8825 14.5921 25.4471L17.5234 35.0078L20.4548 44.5685C27.7228 42.3401 32.8306 37.6195 35.8233 31.81L26.9336 27.2305ZM17.5234 35.0078L25.8849 29.5227L22.3614 24.1516L14 29.6367L5.63856 35.1218L9.162 40.4929L17.5234 35.0078ZM14 29.6367L16.8763 39.2141C22.1393 37.6335 26.3338 34.7163 29.2012 30.7474C31.9997 26.8737 33.1119 22.5891 33.3104 18.8186L23.3242 18.293L13.338 17.7674C13.3002 18.4871 13.1126 18.8646 12.9893 19.0353C12.9267 19.1219 12.815 19.2518 12.5841 19.411C12.3469 19.5746 11.8996 19.8263 11.1237 20.0593L14 29.6367ZM23.3242 18.293V8.29297H15.8047V18.293V28.293H23.3242V18.293ZM15.8047 18.293H25.8047V12.8359H15.8047H5.80469V18.293H15.8047ZM15.8047 12.8359V22.8359H37.5469V12.8359V2.83594L15.8047 2.83594V12.8359ZM47.6016 10.3437L37.6016 10.3438V38.7891H47.6016H57.6016V10.3437H47.6016ZM47.6016 38.7891V28.7891H40.6836V38.7891V48.7891H47.6016V38.7891ZM40.6836 38.7891H50.6836V10.3437L40.6836 10.3438H30.6836V38.7891H40.6836ZM40.6836 10.3438V20.3438H47.6016V10.3437V0.34375H40.6836V10.3438ZM48.5469 43.9453H38.5469V49.4453H48.5469H58.5469V43.9453H48.5469ZM48.5469 49.4453V39.4453H20.4023V49.4453V59.4453H48.5469V49.4453ZM20.4023 49.4453H30.4023V36.2969H20.4023H10.4023L10.4023 49.4453H20.4023ZM20.4023 36.2969V46.2969H27.3633V36.2969V26.2969H20.4023V36.2969ZM27.3633 36.2969H17.3633V43.9453H27.3633H37.3633V36.2969H27.3633ZM27.3633 43.9453V53.9453H48.5469V43.9453V33.9453H27.3633V43.9453ZM86.4883 10.2578H96.4883C96.4883 4.73496 92.0111 0.257812 86.4883 0.257812V10.2578ZM86.4883 35.0508V45.0508C92.0111 45.0508 96.4883 40.5736 96.4883 35.0508H86.4883ZM79.957 35.0508H69.957C69.957 40.5736 74.4342 45.0508 79.957 45.0508V35.0508ZM79.957 25.082H89.957C89.957 19.5592 85.4799 15.082 79.957 15.082V25.082ZM78.1523 25.082V15.082C72.6295 15.082 68.1523 19.5592 68.1523 25.082L78.1523 25.082ZM78.1523 33.8047V43.8047C83.6752 43.8047 88.1523 39.3275 88.1523 33.8047H78.1523ZM71.707 33.8047H61.707C61.707 39.3275 66.1842 43.8047 71.707 43.8047V33.8047ZM71.707 10.9883V0.988281C66.1842 0.988281 61.707 5.46543 61.707 10.9883H71.707ZM78.1523 10.9883H88.1523C88.1523 5.46543 83.6752 0.988281 78.1523 0.988281V10.9883ZM78.1523 19.4961L68.1523 19.4961C68.1523 25.0189 72.6295 29.4961 78.1523 29.4961V19.4961ZM79.957 19.4961V29.4961C85.4799 29.4961 89.957 25.0189 89.957 19.4961H79.957ZM79.957 10.2578V0.257812C74.4342 0.257812 69.957 4.73496 69.957 10.2578H79.957ZM70.8477 13.9531L80.8477 13.9531C80.8477 8.43028 76.3705 3.95312 70.8477 3.95312V13.9531ZM70.8477 19.2383V29.2383C76.3705 29.2383 80.8477 24.7611 80.8477 19.2383L70.8477 19.2383ZM51.8984 19.2383H41.8984C41.8984 24.7611 46.3756 29.2383 51.8984 29.2383V19.2383ZM51.8984 13.9531V3.95312C46.3756 3.95312 41.8984 8.43028 41.8984 13.9531H51.8984ZM57.957 13.9531V23.9531C63.4799 23.9531 67.957 19.476 67.957 13.9531H57.957ZM57.957 10.6875V0.6875C52.4342 0.6875 47.957 5.16465 47.957 10.6875H57.957ZM64.7891 10.6875H74.7891C74.7891 5.16465 70.3119 0.6875 64.7891 0.6875V10.6875ZM64.7891 13.9531H54.7891C54.7891 19.476 59.2662 23.9531 64.7891 23.9531V13.9531ZM70.2461 27.1016L80.2456 27.2057C80.2463 27.1366 80.2463 27.0676 80.2456 26.9985L70.2461 27.1016ZM64.0156 27.1016L74.011 27.4045C74.0171 27.2055 74.0172 27.0065 74.0113 26.8076L64.0156 27.1016ZM86.7031 42.6562L96.7027 42.7472C96.7033 42.6866 96.7033 42.6259 96.7027 42.5653L86.7031 42.6562ZM58.6445 42.6562L68.6441 42.7472C68.6447 42.6866 68.6447 42.6259 68.6441 42.5653L58.6445 42.6562ZM79.7422 42.6562L89.7387 42.9193C89.7432 42.7484 89.7433 42.5773 89.7391 42.4063L79.7422 42.6562ZM86.4883 10.2578H76.4883V35.0508H86.4883H96.4883V10.2578H86.4883ZM86.4883 35.0508V25.0508H79.957V35.0508V45.0508H86.4883V35.0508ZM79.957 35.0508H89.957V25.082H79.957L69.957 25.082V35.0508H79.957ZM79.957 25.082V15.082H78.1523V25.082V35.082H79.957V25.082ZM78.1523 25.082L68.1523 25.082V33.8047H78.1523H88.1523V25.082H78.1523ZM78.1523 33.8047V23.8047L71.707 23.8047V33.8047V43.8047H78.1523V33.8047ZM71.707 33.8047H81.707V10.9883H71.707H61.707V33.8047H71.707ZM71.707 10.9883V20.9883L78.1523 20.9883V10.9883V0.988281H71.707V10.9883ZM78.1523 10.9883H68.1523V19.4961L78.1523 19.4961H88.1523V10.9883H78.1523ZM78.1523 19.4961V29.4961H79.957V19.4961V9.49609H78.1523V19.4961ZM79.957 19.4961H89.957V10.2578H79.957H69.957V19.4961L79.957 19.4961ZM79.957 10.2578V20.2578H86.4883V10.2578V0.257812L79.957 0.257812V10.2578ZM70.8477 13.9531H60.8477V19.2383H70.8477L80.8477 19.2383V13.9531L70.8477 13.9531ZM70.8477 19.2383V9.23828H51.8984V19.2383V29.2383H70.8477V19.2383ZM51.8984 19.2383H61.8984V13.9531H51.8984H41.8984V19.2383H51.8984ZM51.8984 13.9531V23.9531H57.957V13.9531V3.95312H51.8984V13.9531ZM57.957 13.9531H67.957V10.6875H57.957H47.957V13.9531H57.957ZM57.957 10.6875V20.6875H64.7891V10.6875V0.6875H57.957V10.6875ZM64.7891 10.6875H54.7891V13.9531H64.7891H74.7891V10.6875H64.7891ZM64.7891 13.9531V23.9531H70.8477V13.9531V3.95312H64.7891V13.9531ZM61.4375 20.0547V30.0547C62.1473 30.0547 62.0263 30.2575 61.5097 29.8474C61.2377 29.6315 60.9011 29.271 60.6358 28.745C60.3648 28.2077 60.2513 27.6602 60.2466 27.2046L70.2461 27.1016L80.2456 26.9985C80.1261 15.4152 69.8313 10.0547 61.4375 10.0547V20.0547ZM70.2461 27.1016L60.2466 26.9974C60.2517 26.5139 60.3732 25.9408 60.6574 25.3839C60.9351 24.8398 61.2844 24.4729 61.5596 24.2573C62.0777 23.8513 62.1819 24.0625 61.4375 24.0625V34.0625V44.0625C69.7001 44.0625 80.1243 38.8495 80.2456 27.2057L70.2461 27.1016ZM61.4375 34.0625V24.0625C60.8071 24.0625 60.957 23.8784 61.4864 24.299C61.7674 24.5222 62.1195 24.8979 62.3968 25.4516C62.6811 26.0193 62.8008 26.6048 62.8008 27.1016H52.8008H42.8008C42.8008 38.7731 53.242 44.0625 61.4375 44.0625V34.0625ZM52.8008 27.1016H62.8008C62.8008 27.5703 62.689 28.1299 62.4179 28.6777C62.153 29.2128 61.8138 29.5818 61.5362 29.8053C61.009 30.2296 60.8425 30.0547 61.4375 30.0547V20.0547V10.0547C53.1092 10.0547 42.8008 15.4933 42.8008 27.1016H52.8008ZM61.4375 24.9531V14.9531C59.3429 14.9531 56.2022 15.4099 53.382 17.6524C50.2073 20.1769 48.9023 23.79 48.9023 27.1016H58.9023H68.9023C68.9023 28.9522 68.113 31.4911 65.8299 33.3065C63.9013 34.8401 62.0281 34.9531 61.4375 34.9531V24.9531ZM58.9023 27.1016H48.9023C48.9023 30.4675 50.2568 34.0121 53.3248 36.4887C56.0931 38.7234 59.2135 39.25 61.4375 39.25V29.25V19.25C62.1576 19.25 64.0104 19.4114 65.8871 20.9263C68.0635 22.6832 68.9023 25.1536 68.9023 27.1016H58.9023ZM61.4375 29.25V39.25C63.6449 39.25 66.7816 38.7409 69.5717 36.4887C72.6284 34.0213 73.9154 30.5593 74.011 27.4045L64.0156 27.1016L54.0202 26.7987C54.0728 25.0618 54.8443 22.674 57.0093 20.9263C58.9078 19.3938 60.777 19.25 61.4375 19.25V29.25ZM64.0156 27.1016L74.0113 26.8076C73.9199 23.6986 72.6743 20.1651 69.5145 17.6524C66.6737 15.3935 63.516 14.9531 61.4375 14.9531V24.9531V34.9531C60.9059 34.9531 59.0158 34.8565 57.0666 33.3065C54.7984 31.5029 54.0684 29.0436 54.0199 27.3956L64.0156 27.1016ZM72.6094 35.2227V45.2227C74.3052 45.2227 75.6416 45.3551 76.6415 45.5446C77.6615 45.7379 78.1578 45.9576 78.2908 46.0272C78.4131 46.0912 77.9824 45.896 77.5046 45.2087C76.9705 44.4404 76.7107 43.5299 76.7035 42.7472L86.7031 42.6562L96.7027 42.5653C96.6398 35.6479 92.4085 30.842 87.5636 28.3068C83.1283 25.9858 77.7886 25.2227 72.6094 25.2227V35.2227ZM86.7031 42.6562L76.7035 42.5653C76.7107 41.7826 76.9705 40.8721 77.5046 40.1038C77.9824 39.4165 78.4131 39.2213 78.2908 39.2853C78.1578 39.3549 77.6615 39.5746 76.6415 39.7679C75.6416 39.9574 74.3052 40.0898 72.6094 40.0898V50.0898V60.0898C77.7886 60.0898 83.1283 59.3267 87.5636 57.0057C92.4085 54.4705 96.6398 49.6646 96.7027 42.7472L86.7031 42.6562ZM72.6094 50.0898V40.0898C70.9538 40.0898 69.6394 39.9586 68.6517 39.7702C67.6426 39.5777 67.1488 39.3589 67.0166 39.2895C66.8912 39.2238 67.3384 39.4263 67.8301 40.1404C68.3839 40.9447 68.6517 41.9079 68.6441 42.7472L58.6445 42.6562L48.6449 42.5653C48.5808 49.6217 52.9155 54.4778 57.7276 57.0015C62.1523 59.322 67.4788 60.0898 72.6094 60.0898V50.0898ZM58.6445 42.6562L68.6441 42.5653C68.6517 43.4046 68.3839 44.3678 67.8301 45.1721C67.3384 45.8862 66.8912 46.0887 67.0166 46.023C67.1488 45.9536 67.6426 45.7348 68.6517 45.5423C69.6394 45.3539 70.9538 45.2227 72.6094 45.2227V35.2227V25.2227C67.4788 25.2227 62.1523 25.9905 57.7276 28.311C52.9155 30.8347 48.5808 35.6908 48.6449 42.7472L58.6445 42.6562ZM72.6094 40.3359V30.3359C70.1125 30.3359 66.9977 30.4491 64.2534 31.3091C62.8095 31.7616 60.6163 32.6733 58.7206 34.6538C56.557 36.9141 55.5195 39.7933 55.5195 42.6562H65.5195H75.5195C75.5195 44.6598 74.7614 46.8193 73.1685 48.4834C71.8434 49.8677 70.5122 50.3068 70.2339 50.394C69.8907 50.5016 69.8603 50.4622 70.3822 50.4135C70.859 50.369 71.5761 50.3359 72.6094 50.3359V40.3359ZM65.5195 42.6562H55.5195C55.5195 45.6443 56.6598 48.5224 58.8159 50.714C60.6932 52.6222 62.8407 53.507 64.2534 53.9497C66.9738 54.8022 70.0573 54.9336 72.6094 54.9336V44.9336V34.9336C71.593 34.9336 70.8832 34.8988 70.4119 34.8534C69.8983 34.804 69.9124 34.764 70.2339 34.8648C70.4811 34.9422 71.7666 35.3598 73.0731 36.6879C73.7745 37.4008 74.4304 38.3277 74.8909 39.462C75.35 40.5933 75.5195 41.6961 75.5195 42.6562H65.5195ZM72.6094 44.9336V54.9336C75.188 54.9336 78.2869 54.8047 81.0156 53.9457C82.4489 53.4945 84.5788 52.6033 86.4413 50.7056C88.5582 48.5487 89.6638 45.7672 89.7387 42.9193L79.7422 42.6562L69.7456 42.3932C69.7991 40.3617 70.62 38.273 72.1676 36.6963C73.4608 35.3787 74.7367 34.9547 75.0098 34.8687C75.3435 34.7637 75.3667 34.8033 74.8488 34.853C74.3732 34.8985 73.652 34.9336 72.6094 34.9336V44.9336ZM79.7422 42.6562L89.7391 42.4063C89.6707 39.6733 88.6599 36.8858 86.5365 34.6623C84.6556 32.6926 82.4803 31.7742 81.0156 31.3131C78.2633 30.4466 75.1328 30.3359 72.6094 30.3359V40.3359V50.3359C73.6687 50.3359 74.397 50.3693 74.8783 50.414C75.4047 50.4628 75.3652 50.5019 75.0098 50.3901C74.7052 50.2942 73.384 49.8484 72.0724 48.4749C70.5183 46.8476 69.7922 44.7798 69.7453 42.9062L79.7422 42.6562ZM114.977 16.4453L124.976 16.5424C124.976 16.51 124.977 16.4777 124.977 16.4453H114.977ZM123.57 27.1875L131.818 32.8415C133.638 30.1864 134.069 26.8176 132.976 23.7901C131.882 20.7626 129.398 18.4466 126.301 17.5676L123.57 27.1875ZM119.918 32.5156L116.956 42.0668C121.143 43.3654 125.687 41.7855 128.166 38.1696L119.918 32.5156ZM111.539 25.8984L120.301 21.0793C118.497 17.7992 115.012 15.8014 111.27 15.9021C107.528 16.0027 104.156 18.1848 102.531 21.557L111.539 25.8984ZM102.559 33.6328L94.3201 39.3009C96.8082 42.9173 101.364 44.4883 105.552 43.1743L102.559 33.6328ZM98.8633 28.2617L95.8408 18.7294C92.8207 19.687 90.433 22.0192 89.4047 25.016C88.3763 28.0128 88.829 31.3196 90.6248 33.9298L98.8633 28.2617ZM108.016 15.7148L118.015 15.7996C118.016 15.7713 118.016 15.7431 118.016 15.7148H108.016ZM108.016 12.4492V2.44922C102.493 2.44922 98.0156 6.92637 98.0156 12.4492H108.016ZM114.977 12.4492H124.977C124.977 6.92637 120.499 2.44922 114.977 2.44922V12.4492ZM131.52 10.2578H141.52C141.52 4.73496 137.042 0.257812 131.52 0.257812V10.2578ZM131.52 18.8945H121.52C121.52 24.4174 125.997 28.8945 131.52 28.8945V18.8945ZM136.461 18.8945H146.461C146.461 13.3717 141.984 8.89453 136.461 8.89453V18.8945ZM136.461 24.5664V34.5664C141.984 34.5664 146.461 30.0893 146.461 24.5664H136.461ZM131.52 24.5664V14.5664C125.997 14.5664 121.52 19.0436 121.52 24.5664H131.52ZM131.52 33.4609V43.4609C137.042 43.4609 141.52 38.9838 141.52 33.4609L131.52 33.4609ZM124.602 33.4609H114.602C114.602 38.9838 119.079 43.4609 124.602 43.4609V33.4609ZM124.602 10.2578V0.257812C119.079 0.257812 114.602 4.73496 114.602 10.2578H124.602ZM118.328 34.1484L118.278 44.1483C118.312 44.1485 118.346 44.1485 118.38 44.1483L118.328 34.1484ZM104.449 42.0977L114.449 42.1824C114.449 42.1254 114.449 42.0684 114.449 42.0115L104.449 42.0977ZM114.977 16.4453L104.977 16.3482C104.941 20.0459 105.747 24.4547 108.555 28.4845C111.428 32.6062 115.713 35.3521 120.84 36.8074L123.57 27.1875L126.301 17.5676C125.496 17.3391 125.107 17.1122 124.971 17.0217C124.853 16.9424 124.89 16.9436 124.964 17.0496C125.13 17.2875 124.969 17.2705 124.976 16.5424L114.977 16.4453ZM123.57 27.1875L115.322 21.5335L111.67 26.8616L119.918 32.5156L128.166 38.1696L131.818 32.8415L123.57 27.1875ZM119.918 32.5156L122.88 22.9645C121.993 22.6892 121.462 22.3611 121.137 22.0973C120.813 21.8346 120.54 21.5135 120.301 21.0793L111.539 25.8984L102.777 30.7176C105.703 36.038 110.513 40.0686 116.956 42.0668L119.918 32.5156ZM111.539 25.8984L102.531 21.557C101.928 22.8074 101.131 23.6 99.5652 24.0913L102.559 33.6328L105.552 43.1743C112.751 40.9156 117.713 36.1223 120.548 30.2399L111.539 25.8984ZM102.559 33.6328L110.797 27.9647L107.102 22.5936L98.8633 28.2617L90.6248 33.9298L94.3201 39.3009L102.559 33.6328ZM98.8633 28.2617L101.886 37.794C107.436 36.0343 111.743 32.7972 114.525 28.3848C117.198 24.1453 117.983 19.588 118.015 15.7996L108.016 15.7148L98.016 15.6301C98.0051 16.912 97.7376 17.511 97.6067 17.7187C97.5496 17.8092 97.4641 17.9193 97.2769 18.0591C97.0798 18.2063 96.6539 18.4716 95.8408 18.7294L98.8633 28.2617ZM108.016 15.7148H118.016V12.4492L108.016 12.4492H98.0156V15.7148H108.016ZM108.016 12.4492V22.4492H114.977V12.4492V2.44922H108.016V12.4492ZM114.977 12.4492L104.977 12.4492V16.4453H114.977H124.977V12.4492H114.977ZM131.52 10.2578H121.52V18.8945H131.52H141.52V10.2578H131.52ZM131.52 18.8945V28.8945H136.461V18.8945V8.89453H131.52V18.8945ZM136.461 18.8945H126.461V24.5664H136.461H146.461V18.8945H136.461ZM136.461 24.5664V14.5664H131.52V24.5664V34.5664H136.461V24.5664ZM131.52 24.5664H121.52V33.4609H131.52L141.52 33.4609V24.5664H131.52ZM131.52 33.4609V23.4609H124.602V33.4609V43.4609H131.52V33.4609ZM124.602 33.4609H134.602V10.2578H124.602H114.602V33.4609H124.602ZM124.602 10.2578V20.2578H131.52V10.2578V0.257812H124.602V10.2578ZM118.328 34.1484L118.38 44.1483C119.846 44.1407 120.998 44.271 121.845 44.4517C122.707 44.6355 123.111 44.8401 123.197 44.8898C123.268 44.9312 122.907 44.7383 122.521 44.136C122.099 43.4753 121.906 42.721 121.906 42.0977H131.906L141.906 42.0977C141.906 35.3539 138.032 30.3717 133.225 27.5858C128.781 25.0101 123.426 24.1217 118.276 24.1486L118.328 34.1484ZM131.906 42.0977H121.906C121.906 41.5276 122.082 40.7866 122.51 40.1145C122.901 39.5 123.275 39.298 123.211 39.3346C123.13 39.3814 122.726 39.5864 121.849 39.7731C120.988 39.9563 119.818 40.0898 118.328 40.0898V50.0898V60.0898C123.419 60.0898 128.765 59.2219 133.21 56.6557C138.068 53.8514 141.906 48.8481 141.906 42.0977L131.906 42.0977ZM118.328 50.0898V40.0898C116.755 40.0898 115.515 39.9532 114.594 39.7623C113.656 39.5678 113.211 39.3509 113.106 39.2913C113.017 39.2409 113.404 39.4391 113.815 40.0779C114.268 40.7821 114.454 41.5688 114.449 42.1824L104.449 42.0977L94.4496 42.0129C94.3913 48.8886 98.35 53.9223 103.258 56.6989C107.743 59.2361 113.152 60.0898 118.328 60.0898V50.0898ZM104.449 42.0977L114.449 42.0115C114.455 42.6796 114.251 43.48 113.803 44.1726C113.399 44.7991 113.024 44.9884 113.121 44.9333C113.23 44.8709 113.675 44.6543 114.598 44.4624C115.505 44.274 116.728 44.1405 118.278 44.1483L118.328 34.1484L118.379 24.1486C113.146 24.1221 107.728 24.9955 103.244 27.5423C98.3872 30.3004 94.3904 35.3133 94.4496 42.1839L104.449 42.0977ZM118.328 39.4766V29.4766C115.712 29.4766 112.498 29.6634 109.611 30.7277C108.088 31.2892 106.007 32.327 104.253 34.3201C102.313 36.5244 101.324 39.2794 101.324 42.0977H111.324H121.324C121.324 44.0136 120.625 45.9897 119.267 47.5334C118.094 48.8659 116.886 49.3612 116.529 49.493C116.135 49.6384 116.036 49.6106 116.445 49.5616C116.817 49.5172 117.424 49.4766 118.328 49.4766V39.4766ZM111.324 42.0977H101.324C101.324 44.8211 102.238 47.5944 104.214 49.8662C106.004 51.9249 108.142 52.9723 109.687 53.5277C112.579 54.5673 115.805 54.7188 118.328 54.7188V44.7188V34.7188C117.391 34.7188 116.761 34.6809 116.37 34.6371C115.937 34.5886 116.043 34.5594 116.452 34.7067C116.832 34.8432 118.098 35.3534 119.306 36.7434C120.7 38.3465 121.324 40.3196 121.324 42.0977H111.324ZM118.328 44.7188V54.7188C120.792 54.7188 124.035 54.5738 126.951 53.4749C128.54 52.8763 130.669 51.7629 132.41 49.633C134.295 47.3259 135.074 44.6236 135.074 42.0977H125.074H115.074C115.074 40.517 115.585 38.615 116.924 36.9767C118.118 35.5154 119.423 34.9391 119.899 34.7595C120.382 34.5776 120.56 34.5965 120.174 34.6412C119.829 34.681 119.241 34.7188 118.328 34.7188V44.7188ZM125.074 42.0977H135.074C135.074 39.4828 134.229 36.7979 132.372 34.5527C130.665 32.4892 128.594 31.3869 127.03 30.7827C124.119 29.6577 120.889 29.4766 118.328 29.4766V39.4766V49.4766C119.207 49.4766 119.773 49.517 120.096 49.5569C120.458 49.6016 120.287 49.6183 119.82 49.438C119.369 49.2635 118.122 48.7037 116.961 47.3008C115.651 45.7162 115.074 43.8102 115.074 42.0977H125.074ZM169.977 10.3437L179.977 10.3437C179.977 4.8209 175.499 0.34375 169.977 0.34375V10.3437ZM169.977 21.1719H159.977C159.977 26.6947 164.454 31.1719 169.977 31.1719V21.1719ZM174.531 21.1719H184.531C184.531 15.649 180.054 11.1719 174.531 11.1719V21.1719ZM174.531 26.7578V36.7578C180.054 36.7578 184.531 32.2807 184.531 26.7578H174.531ZM169.977 26.7578V16.7578C164.454 16.7578 159.977 21.235 159.977 26.7578H169.977ZM169.977 37.0703V47.0703C175.499 47.0703 179.977 42.5932 179.977 37.0703H169.977ZM163.102 37.0703H153.102C153.102 42.5932 157.579 47.0703 163.102 47.0703V37.0703ZM163.102 10.3437V0.34375C157.579 0.34375 153.102 4.8209 153.102 10.3437H163.102ZM149.266 43.7305L159.258 44.1301C159.268 43.8689 159.268 43.6074 159.258 43.3461L149.266 43.7305ZM156.227 45.1484L156.312 35.1488C156.256 35.1483 156.199 35.1483 156.143 35.1488L156.227 45.1484ZM137.148 31.3555L137.07 21.3558C134.197 21.3784 131.473 22.6353 129.591 24.8063C127.71 26.9772 126.853 29.8524 127.239 32.6991L137.148 31.3555ZM146.086 31.2695L146.289 41.2675C151.731 41.1572 156.086 36.7134 156.086 31.2695H146.086ZM146.086 29.4648H156.086C156.086 24.5765 152.552 20.4046 147.73 19.6009L146.086 29.4648ZM152.961 29.4219L151.283 19.5637C146.477 20.3817 142.961 24.5465 142.961 29.4219H152.961ZM152.961 31.0117H142.961C142.961 33.7524 144.086 36.3731 146.073 38.261C148.059 40.1488 150.734 41.1385 153.471 40.9987L152.961 31.0117ZM161.641 30.2812L171.589 29.268C171.315 26.5802 169.966 24.1176 167.848 22.4407C165.729 20.7639 163.023 20.0154 160.344 20.3657L161.641 30.2812ZM162.113 34.9219L163.782 44.7817C168.974 43.903 172.595 39.1478 172.062 33.9086L162.113 34.9219ZM137.836 36.4258L127.927 37.7694C128.599 42.7276 132.832 46.4258 137.836 46.4258V36.4258ZM160.781 12.75H170.781C170.781 7.22715 166.304 2.75 160.781 2.75V12.75ZM160.781 17.7344V27.7344C166.304 27.7344 170.781 23.2572 170.781 17.7344H160.781ZM138.223 17.7344H128.223C128.223 23.2572 132.7 27.7344 138.223 27.7344V17.7344ZM138.223 12.75V2.75C132.7 2.75 128.223 7.22715 128.223 12.75H138.223ZM146.086 12.75V22.75C151.609 22.75 156.086 18.2728 156.086 12.75H146.086ZM146.086 10V0C140.563 0 136.086 4.47715 136.086 10H146.086ZM152.961 10H162.961C162.961 4.47715 158.484 0 152.961 0V10ZM152.961 12.75H142.961C142.961 18.2728 147.438 22.75 152.961 22.75V12.75ZM149.48 22.6328L149.673 12.6347C149.546 12.6322 149.419 12.6322 149.292 12.6346L149.48 22.6328ZM152.875 23.9648L162.866 24.3992C162.879 24.096 162.878 23.7923 162.864 23.4892L152.875 23.9648ZM169.977 10.3437H159.977V21.1719H169.977H179.977V10.3437L169.977 10.3437ZM169.977 21.1719V31.1719H174.531V21.1719V11.1719L169.977 11.1719V21.1719ZM174.531 21.1719H164.531V26.7578H174.531H184.531V21.1719H174.531ZM174.531 26.7578V16.7578H169.977V26.7578V36.7578H174.531V26.7578ZM169.977 26.7578H159.977V37.0703H169.977H179.977V26.7578H169.977ZM169.977 37.0703V27.0703H163.102V37.0703V47.0703H169.977V37.0703ZM163.102 37.0703H173.102V10.3437H163.102H153.102V37.0703H163.102ZM163.102 10.3437V20.3437H169.977V10.3437V0.34375L163.102 0.34375V10.3437ZM156.227 37.2852V47.2852C158.009 47.2852 159.417 47.404 160.478 47.5789C161.564 47.7582 162.094 47.9646 162.234 48.0296C162.38 48.0978 161.821 47.877 161.191 47.0514C160.465 46.1004 160.062 44.8853 160.062 43.7305H170.062H180.062C180.062 36.535 175.263 32.0304 170.662 29.8923C166.396 27.9101 161.258 27.2852 156.227 27.2852V37.2852ZM170.062 43.7305H160.062C160.062 42.6073 160.453 41.3856 161.198 40.4112C161.846 39.5656 162.426 39.3376 162.285 39.4023C162.149 39.4646 161.619 39.6685 160.519 39.8451C159.447 40.0172 158.027 40.1328 156.227 40.1328V50.1328V60.1328C161.215 60.1328 166.346 59.5395 170.611 57.5869C175.26 55.458 180.062 50.9487 180.062 43.7305H170.062ZM156.227 50.1328V40.1328C154.401 40.1328 152.965 40.0167 151.884 39.8439C150.775 39.6667 150.246 39.4624 150.115 39.4023C149.98 39.3407 150.568 39.574 151.219 40.4282C151.967 41.4097 152.348 42.6274 152.348 43.7305H142.348L132.348 43.7305C132.348 50.9193 137.104 55.4422 141.789 57.5869C146.06 59.5426 151.208 60.1328 156.227 60.1328V50.1328ZM142.348 43.7305H152.348C152.348 44.8651 151.955 46.0763 151.227 47.0345C150.593 47.8685 150.026 48.0947 150.166 48.0296C150.301 47.9669 150.829 47.76 151.925 47.5801C152.995 47.4046 154.418 47.2852 156.227 47.2852V37.2852V27.2852C151.165 27.2852 146.01 27.9069 141.738 29.8923C137.102 32.0464 132.348 36.5642 132.348 43.7305L142.348 43.7305ZM156.227 42.2266V32.2266C153.706 32.2266 150.983 32.2975 148.724 32.7802C147.661 33.0071 145.531 33.5484 143.515 35.1011C140.91 37.1068 139.128 40.3411 139.273 44.1148L149.266 43.7305L159.258 43.3461C159.31 44.6808 159.069 46.2227 158.323 47.7452C157.59 49.2393 156.587 50.2776 155.717 50.9473C154.887 51.5869 154.142 51.9218 153.725 52.0839C153.294 52.2513 152.99 52.32 152.901 52.339C152.855 52.3489 153.634 52.2266 156.227 52.2266V42.2266ZM149.266 43.7305L139.274 43.3308C139.117 47.2587 141.049 50.5033 143.65 52.4369C145.662 53.932 147.767 54.4433 148.815 54.6568C151.063 55.1151 153.767 55.1695 156.311 55.1481L156.227 45.1484L156.143 35.1488C153.573 35.1704 152.775 35.0528 152.81 35.06C152.893 35.0768 153.187 35.1401 153.608 35.2976C154.013 35.4491 154.75 35.7677 155.582 36.3856C156.449 37.0303 157.488 38.0569 158.258 39.5714C159.048 41.1258 159.314 42.7244 159.258 44.1301L149.266 43.7305ZM156.227 45.1484L156.141 55.1481C158.651 55.1695 161.333 55.1147 163.578 54.6549C164.639 54.4375 166.691 53.93 168.665 52.4894C171.163 50.6664 173.145 47.5888 173.145 43.7305H163.145H153.145C153.145 42.3322 153.47 40.7949 154.265 39.3299C155.039 37.9057 156.042 36.9416 156.876 36.3331C157.679 35.7476 158.387 35.4421 158.783 35.2942C159.193 35.1412 159.48 35.079 159.564 35.0619C159.606 35.0532 158.829 35.1703 156.312 35.1488L156.227 45.1484ZM163.145 43.7305H173.145C173.145 40.017 171.307 36.9417 168.801 35.0468C166.821 33.5501 164.745 33.0132 163.669 32.7822C161.414 32.2981 158.714 32.2266 156.227 32.2266V42.2266V52.2266C158.767 52.2266 159.526 52.3484 159.472 52.3369C159.383 52.3177 159.086 52.2502 158.666 52.0875C158.259 51.9294 157.543 51.608 156.74 51.0015C155.904 50.369 154.932 49.3921 154.194 47.9835C153.441 46.5443 153.145 45.0586 153.145 43.7305H163.145ZM137.148 31.3555L137.227 41.3552C139.854 41.3345 143.027 41.3336 146.289 41.2675L146.086 31.2695L145.883 21.2716C142.786 21.3344 139.9 21.3335 137.07 21.3558L137.148 31.3555ZM146.086 31.2695H156.086V29.4648H146.086L136.086 29.4648V31.2695L146.086 31.2695ZM146.086 29.4648L147.73 19.6009C146.754 19.4383 146.941 19.2609 147.586 19.7916C147.952 20.0932 148.455 20.6225 148.86 21.4286C149.276 22.2578 149.469 23.1455 149.469 23.9648H139.469H129.469C129.469 28.7083 131.711 32.6288 134.875 35.2333C137.797 37.6385 141.293 38.8039 144.442 39.3288L146.086 29.4648ZM139.469 23.9648H149.469C149.469 25.032 149.144 26.1489 148.525 27.0881C147.951 27.9593 147.337 28.3609 147.125 28.4817C146.921 28.5976 146.972 28.5245 147.423 28.4286C147.858 28.3361 148.537 28.25 149.48 28.25V18.25V8.25C145.431 8.25 141.023 8.94665 137.248 11.0905C133.159 13.4127 129.469 17.7897 129.469 23.9648H139.469ZM149.48 18.25V28.25C150.409 28.25 151.077 28.3353 151.504 28.4265C151.946 28.5211 151.993 28.5924 151.787 28.4752C151.573 28.3532 150.962 27.9512 150.39 27.0825C149.774 26.1461 149.449 25.0317 149.449 23.9648H159.449H169.449C169.449 17.7949 165.765 13.4202 161.687 11.0971C157.918 8.95007 153.519 8.25 149.48 8.25V18.25ZM159.449 23.9648H149.449C149.449 23.1559 149.637 22.2751 150.049 21.4474C150.45 20.6415 150.951 20.1057 151.325 19.7946C151.987 19.2443 152.208 19.4062 151.283 19.5637L152.961 29.4219L154.639 39.2801C157.753 38.75 161.218 37.5799 164.114 35.1712C167.251 32.5626 169.449 28.6609 169.449 23.9648H159.449ZM152.961 29.4219H142.961V31.0117H152.961H162.961V29.4219H152.961ZM152.961 31.0117L153.471 40.9987C156.538 40.842 159.774 40.6105 162.937 40.1968L161.641 30.2812L160.344 20.3657C157.922 20.6825 155.271 20.8806 152.451 21.0247L152.961 31.0117ZM161.641 30.2812L151.692 31.2945L152.165 35.9352L162.113 34.9219L172.062 33.9086L171.589 29.268L161.641 30.2812ZM162.113 34.9219L160.445 25.0621C152.99 26.3237 144.864 26.4258 137.836 26.4258V36.4258V46.4258C144.816 46.4258 154.479 46.356 163.782 44.7817L162.113 34.9219ZM137.836 36.4258L147.745 35.0821L147.058 30.0118L137.148 31.3555L127.239 32.6991L127.927 37.7694L137.836 36.4258ZM160.781 12.75H150.781V17.7344H160.781H170.781V12.75H160.781ZM160.781 17.7344V7.73437H138.223V17.7344V27.7344H160.781V17.7344ZM138.223 17.7344H148.223V12.75H138.223H128.223V17.7344H138.223ZM138.223 12.75V22.75H146.086V12.75V2.75H138.223V12.75ZM146.086 12.75H156.086V10H146.086H136.086V12.75H146.086ZM146.086 10V20H152.961V10V0L146.086 0V10ZM152.961 10H142.961V12.75H152.961H162.961V10H152.961ZM152.961 12.75V22.75H160.781V12.75V2.75L152.961 2.75V12.75ZM149.48 22.6328L149.292 12.6346C147.931 12.6603 145.648 12.7716 143.406 13.6097C142.206 14.0584 140.358 14.9536 138.757 16.771C136.963 18.8066 136.043 21.3664 136.043 23.9648H146.043H156.043C156.043 26.1121 155.268 28.2852 153.763 29.9932C152.45 31.4829 151.035 32.1096 150.409 32.3434C149.317 32.7519 148.753 32.6483 149.669 32.631L149.48 22.6328ZM146.043 23.9648H136.043C136.043 26.3467 136.811 28.8966 138.615 31.0359C140.254 32.9797 142.194 33.927 143.483 34.3968C145.822 35.2494 148.199 35.2969 149.48 35.2969V25.2969V15.2969C148.485 15.2969 149.143 15.1725 150.332 15.6061C151.047 15.8665 152.555 16.5425 153.905 18.1439C155.42 19.9408 156.043 22.0771 156.043 23.9648H146.043ZM149.48 25.2969V35.2969C150.753 35.2969 153.13 35.2491 155.481 34.3757C156.792 33.889 158.664 32.9421 160.256 31.0707C161.98 29.0447 162.768 26.6508 162.866 24.3992L152.875 23.9648L142.884 23.5305C142.961 21.7731 143.592 19.7927 145.025 18.1091C146.326 16.5801 147.771 15.9044 148.518 15.6272C149.741 15.1728 150.443 15.2969 149.48 15.2969V25.2969ZM152.875 23.9648L162.864 23.4892C162.747 21.048 161.823 18.6592 160.113 16.7365C158.559 14.9896 156.779 14.0964 155.559 13.6317C153.308 12.774 151.027 12.6607 149.673 12.6347L149.48 22.6328L149.288 32.631C150.169 32.6479 149.563 32.7495 148.44 32.3214C147.784 32.0715 146.431 31.4469 145.168 30.0276C143.75 28.4326 142.981 26.4305 142.886 24.4405L152.875 23.9648ZM208.605 17.4766L218.605 17.5746C218.606 17.5089 218.606 17.4432 218.605 17.3776L208.605 17.4766ZM179.172 17.4766L189.171 17.5746C189.172 17.5089 189.172 17.4432 189.171 17.3776L179.172 17.4766ZM193.91 19.2383L193.83 29.238C193.883 29.2384 193.936 29.2384 193.99 29.238L193.91 19.2383ZM212.043 25.5547H222.043C222.043 20.0318 217.566 15.5547 212.043 15.5547V25.5547ZM212.043 31.0117V41.0117C217.566 41.0117 222.043 36.5346 222.043 31.0117H212.043ZM175.777 31.0117H165.777C165.777 36.5346 170.255 41.0117 175.777 41.0117V31.0117ZM175.777 25.5547V15.5547C170.255 15.5547 165.777 20.0318 165.777 25.5547H175.777ZM207.746 32.5156H217.746C217.746 26.9928 213.269 22.5156 207.746 22.5156V32.5156ZM207.746 43.4727V53.4727C213.269 53.4727 217.746 48.9955 217.746 43.4727H207.746ZM186.562 43.4727V33.4727C181.04 33.4727 176.562 37.9498 176.562 43.4727H186.562ZM186.562 44.7617H176.562C176.562 50.2846 181.04 54.7617 186.562 54.7617V44.7617ZM208.691 44.7617H218.691C218.691 39.2389 214.214 34.7617 208.691 34.7617V44.7617ZM208.691 49.832V59.832C214.214 59.832 218.691 55.3549 218.691 49.832H208.691ZM179.816 49.832H169.816C169.816 55.3549 174.294 59.832 179.816 59.832V49.832ZM179.816 38.7461V28.7461C174.294 28.7461 169.816 33.2232 169.816 38.7461H179.816ZM200.957 38.7461V48.7461C206.48 48.7461 210.957 44.2689 210.957 38.7461H200.957ZM200.957 37.543H210.957C210.957 32.0201 206.48 27.543 200.957 27.543V37.543ZM179.859 37.543H169.859C169.859 43.0658 174.337 47.543 179.859 47.543V37.543ZM179.859 32.5156V22.5156C174.337 22.5156 169.859 26.9928 169.859 32.5156H179.859ZM193.91 10.7734V20.7734C195.839 20.7734 197.378 20.897 198.556 21.0853C199.762 21.2778 200.392 21.5068 200.614 21.6072C200.844 21.7116 200.336 21.5382 199.728 20.7628C199.02 19.8581 198.617 18.6866 198.606 17.5756L208.605 17.4766L218.605 17.3776C218.532 10.0439 213.582 5.52457 208.863 3.38788C204.476 1.40137 199.164 0.773437 193.91 0.773437V10.7734ZM208.605 17.4766L198.606 17.3785C198.617 16.3019 199.005 15.1464 199.707 14.2429C200.311 13.4662 200.82 13.2894 200.597 13.3908C200.381 13.4893 199.756 13.7181 198.553 13.9107C197.377 14.099 195.839 14.2227 193.91 14.2227V24.2227V34.2227C199.161 34.2227 204.483 33.5957 208.879 31.5955C213.633 29.4327 218.533 24.8877 218.605 17.5746L208.605 17.4766ZM193.91 24.2227V14.2227C191.969 14.2227 190.414 14.0988 189.22 13.909C187.998 13.7146 187.357 13.4831 187.131 13.3809C186.893 13.2733 187.425 13.4539 188.05 14.2626C188.784 15.2122 189.183 16.4346 189.171 17.5746L179.172 17.4766L169.172 17.3785C169.099 24.866 174.155 29.4637 178.893 31.6055C183.299 33.5969 188.645 34.2227 193.91 34.2227V24.2227ZM179.172 17.4766L189.171 17.3776C189.183 18.553 188.769 19.7923 188.029 20.743C187.4 21.5505 186.87 21.7276 187.115 21.6171C187.346 21.513 187.992 21.2813 189.216 21.087C190.413 20.8972 191.969 20.7734 193.91 20.7734V10.7734V0.773437C188.642 0.773437 183.306 1.4001 178.909 3.37798C174.208 5.49313 169.098 10.0654 169.172 17.5756L179.172 17.4766ZM193.91 15.7578V5.75781C191.162 5.75781 188.292 5.86653 185.884 6.42283C184.729 6.68996 182.686 7.27045 180.748 8.74784C178.373 10.5581 176.391 13.594 176.391 17.4766H186.391H196.391C196.391 18.8821 196.059 20.3776 195.308 21.7795C194.581 23.1379 193.645 24.0648 192.873 24.653C192.126 25.2222 191.468 25.5273 191.098 25.6766C190.716 25.8307 190.454 25.8938 190.388 25.9092C190.284 25.9332 190.483 25.8808 191.169 25.8326C191.817 25.7872 192.709 25.7578 193.91 25.7578V15.7578ZM186.391 17.4766H176.391C176.391 20.7818 177.829 23.9638 180.53 26.1439C182.652 27.857 184.936 28.4365 186.091 28.6779C188.447 29.1699 191.355 29.2182 193.83 29.238L193.91 19.2383L193.99 9.2386C192.694 9.22823 191.74 9.20544 191.023 9.16566C190.255 9.12307 190.061 9.07535 190.181 9.10044C190.262 9.11742 190.581 9.18705 191.034 9.36652C191.482 9.54372 192.25 9.90189 193.091 10.5803C193.979 11.2972 194.89 12.3283 195.54 13.7077C196.186 15.0794 196.391 16.4054 196.391 17.4766H186.391ZM193.91 19.2383L193.99 29.238C196.486 29.2182 199.401 29.1698 201.758 28.6797C202.913 28.4395 205.198 27.8625 207.324 26.1511C210.032 23.9703 211.473 20.7842 211.473 17.4766L201.473 17.4766H191.473C191.473 16.4054 191.677 15.0776 192.326 13.7035C192.977 12.3215 193.891 11.2896 194.781 10.5731C195.623 9.89526 196.392 9.53827 196.838 9.36222C197.29 9.18384 197.607 9.11504 197.686 9.09864C197.801 9.07464 197.602 9.12274 196.826 9.16547C196.101 9.2054 195.138 9.22822 193.831 9.2386L193.91 19.2383ZM201.473 17.4766L211.473 17.4766C211.473 13.5907 209.487 10.5518 207.106 8.74098C205.165 7.26499 203.12 6.68659 201.964 6.42065C199.555 5.86644 196.677 5.75781 193.91 5.75781V15.7578V25.7578C195.123 25.7578 196.025 25.7873 196.68 25.833C197.374 25.8813 197.579 25.9343 197.479 25.9114C197.415 25.8966 197.155 25.8342 196.774 25.681C196.406 25.5327 195.746 25.2286 194.999 24.6599C194.226 24.072 193.287 23.1446 192.557 21.7839C191.804 20.3796 191.473 18.8823 191.473 17.4766H201.473ZM212.043 25.5547L202.043 25.5547V31.0117H212.043H222.043V25.5547H212.043ZM212.043 31.0117V21.0117L175.777 21.0117V31.0117V41.0117H212.043V31.0117ZM175.777 31.0117H185.777V25.5547H175.777H165.777V31.0117H175.777ZM175.777 25.5547V35.5547H212.043V25.5547V15.5547L175.777 15.5547V25.5547ZM207.746 32.5156H197.746V43.4727H207.746H217.746V32.5156H207.746ZM207.746 43.4727V33.4727H186.562V43.4727V53.4727H207.746V43.4727ZM186.562 43.4727H176.562V44.7617H186.562H196.562V43.4727H186.562ZM186.562 44.7617V54.7617H208.691V44.7617V34.7617H186.562V44.7617ZM208.691 44.7617H198.691V49.832H208.691H218.691V44.7617H208.691ZM208.691 49.832V39.832H179.816V49.832V59.832H208.691V49.832ZM179.816 49.832H189.816V38.7461H179.816H169.816V49.832H179.816ZM179.816 38.7461V48.7461H200.957V38.7461V28.7461H179.816V38.7461ZM200.957 38.7461H210.957V37.543H200.957H190.957V38.7461H200.957ZM200.957 37.543V27.543H179.859V37.543V47.543H200.957V37.543ZM179.859 37.543H189.859V32.5156H179.859H169.859V37.543H179.859ZM179.859 32.5156V42.5156H207.746V32.5156V22.5156L179.859 22.5156V32.5156ZM241.219 34.793L241.268 24.7931C241.235 24.7929 241.202 24.7929 241.169 24.7931L241.219 34.793ZM255.57 42.4414L265.57 42.5315C265.57 42.472 265.57 42.4124 265.57 42.3529L255.57 42.4414ZM233.828 42.4414L243.825 42.6852C243.829 42.5227 243.829 42.3601 243.825 42.1976L233.828 42.4414ZM255.441 11.9336H265.441C265.441 6.41075 260.964 1.93359 255.441 1.93359V11.9336ZM254.281 25.7695L253.393 35.73C258.166 36.1556 262.57 33.1358 263.893 28.5302L254.281 25.7695ZM247.535 25.168L237.811 22.8368C237.133 25.6634 237.719 28.6449 239.416 31.005C241.112 33.3652 243.752 34.8703 246.647 35.1284L247.535 25.168ZM248.523 17.2617L258.52 17.5343C258.593 14.8359 257.573 12.2223 255.69 10.2877C253.808 8.35307 251.223 7.26172 248.523 7.26172V17.2617ZM227.426 17.2617H217.426C217.426 22.7846 221.903 27.2617 227.426 27.2617V17.2617ZM227.426 11.9336V1.93359C221.903 1.93359 217.426 6.41075 217.426 11.9336H227.426ZM259.523 27.5312H269.523C269.523 22.0084 265.046 17.5312 259.523 17.5312V27.5312ZM259.523 33.0742V43.0742C265.046 43.0742 269.523 38.5971 269.523 33.0742H259.523ZM223.516 33.0742H213.516C213.516 38.5971 217.993 43.0742 223.516 43.0742V33.0742ZM223.516 27.5312V17.5312C217.993 17.5312 213.516 22.0084 213.516 27.5312H223.516ZM236.105 27.5312V37.5312C241.628 37.5312 246.105 33.0541 246.105 27.5312H236.105ZM236.105 21V11C230.583 11 226.105 15.4772 226.105 21H236.105ZM242.938 21H252.938C252.938 15.4772 248.46 11 242.938 11V21ZM242.938 27.5312H232.938C232.938 33.0541 237.415 37.5312 242.938 37.5312V27.5312ZM241.219 34.793L241.17 44.7929C242.876 44.8012 244.238 44.9411 245.271 45.1411C246.324 45.3451 246.865 45.5782 247.042 45.6708C247.211 45.7594 246.815 45.5941 246.358 44.941C245.84 44.2024 245.578 43.3098 245.571 42.5299L255.57 42.4414L265.57 42.3529C265.508 35.3179 261.166 30.4917 256.322 27.9542C251.854 25.6141 246.474 24.8185 241.268 24.7931L241.219 34.793ZM255.57 42.4414L245.571 42.3513C245.578 41.5167 245.86 40.6217 246.36 39.9089C246.801 39.2791 247.174 39.1256 246.997 39.2196C246.815 39.3158 246.278 39.55 245.245 39.7527C244.232 39.9516 242.893 40.0898 241.219 40.0898V50.0898V60.0898C246.501 60.0898 251.896 59.2594 256.367 56.8888C261.147 54.3538 265.507 49.5417 265.57 42.5315L255.57 42.4414ZM241.219 50.0898V40.0898C239.599 40.0898 238.283 39.9535 237.274 39.7545C236.246 39.5516 235.691 39.3146 235.487 39.2071C235.281 39.0985 235.645 39.2384 236.09 39.866C236.6 40.5859 236.91 41.5259 236.91 42.4414H226.91H216.91C216.91 49.6134 221.459 54.4223 226.164 56.9013C230.623 59.2504 235.995 60.0898 241.219 60.0898V50.0898ZM226.91 42.4414H236.91C236.91 43.3007 236.62 44.2375 236.092 44.9838C235.631 45.6347 235.244 45.7864 235.442 45.6831C235.642 45.5793 236.2 45.3435 237.249 45.1393C238.278 44.9393 239.617 44.8011 241.268 44.7928L241.219 34.793L241.169 24.7931C236.021 24.8187 230.666 25.6227 226.209 27.9419C221.439 30.4244 216.91 35.2455 216.91 42.4414H226.91ZM241.219 39.8633V29.8633C238.496 29.8633 235.285 30.0549 232.434 31.0297C230.971 31.5301 228.855 32.4836 227.027 34.4067C224.95 36.5927 223.754 39.5182 223.831 42.6852L233.828 42.4414L243.825 42.1976C243.881 44.4838 242.986 46.6466 241.525 48.184C240.314 49.4585 239.129 49.8776 238.906 49.9537C238.611 50.0547 238.616 50.0112 239.108 49.9558C239.563 49.9046 240.251 49.8633 241.219 49.8633V39.8633ZM233.828 42.4414L223.831 42.1976C223.753 45.386 224.969 48.3732 227.159 50.5923C229.055 52.5132 231.228 53.4104 232.657 53.8619C235.446 54.743 238.603 54.8906 241.219 54.8906V44.8906V34.8906C240.206 34.8906 239.477 34.8541 238.98 34.8047C238.442 34.7512 238.41 34.7048 238.684 34.7915C238.872 34.8509 240.113 35.2459 241.393 36.5423C242.085 37.2437 242.754 38.178 243.22 39.3464C243.688 40.5174 243.85 41.6701 243.825 42.6852L233.828 42.4414ZM241.219 44.8906V54.8906C243.862 54.8906 247.015 54.7411 249.798 53.8765C251.222 53.4341 253.363 52.5643 255.254 50.7132C257.43 48.5822 258.738 45.6587 258.738 42.4414H248.738H238.738C238.738 41.4103 238.934 40.2648 239.423 39.1202C239.91 37.9819 240.584 37.0855 241.263 36.4214C242.516 35.1947 243.703 34.8271 243.865 34.7768C244.111 34.7003 244.054 34.7493 243.501 34.8036C242.987 34.854 242.244 34.8906 241.219 34.8906V44.8906ZM248.738 42.4414H258.738C258.738 39.2507 257.455 36.3856 255.388 34.2836C253.563 32.4279 251.476 31.503 250.018 31.013C247.174 30.0567 243.968 29.8633 241.219 29.8633V39.8633V49.8633C242.199 49.8633 242.902 49.9048 243.374 49.9572C243.882 50.0136 243.912 50.0603 243.645 49.9704C243.45 49.9047 242.316 49.5143 241.128 48.3071C239.699 46.8537 238.738 44.7513 238.738 42.4414H248.738ZM255.441 11.9336H245.441V15.1133H255.441H265.441V11.9336H255.441ZM255.441 15.1133H245.441C245.441 18.2186 245.401 20.4646 244.67 23.0088L254.281 25.7695L263.893 28.5302C265.482 22.9964 265.441 18.1954 265.441 15.1133H255.441ZM254.281 25.7695L255.169 15.8091L248.423 15.2075L247.535 25.168L246.647 35.1284L253.393 35.73L254.281 25.7695ZM247.535 25.168L257.26 27.4992C258.228 23.4598 258.444 20.3097 258.52 17.5343L248.523 17.2617L238.527 16.9891C238.474 18.9403 238.346 20.6027 237.811 22.8368L247.535 25.168ZM248.523 17.2617V7.26172L227.426 7.26172V17.2617V27.2617H248.523V17.2617ZM227.426 17.2617H237.426V11.9336L227.426 11.9336H217.426V17.2617H227.426ZM227.426 11.9336V21.9336H255.441V11.9336V1.93359L227.426 1.93359V11.9336ZM259.523 27.5312H249.523V33.0742H259.523H269.523V27.5312H259.523ZM259.523 33.0742V23.0742H223.516V33.0742V43.0742H259.523V33.0742ZM223.516 33.0742H233.516V27.5312H223.516H213.516V33.0742H223.516ZM223.516 27.5312V37.5312H236.105V27.5312V17.5312H223.516V27.5312ZM236.105 27.5312H246.105V21H236.105H226.105V27.5312H236.105ZM236.105 21V31H242.938V21V11L236.105 11V21ZM242.938 21H232.938V27.5312H242.938H252.938V21H242.938ZM242.938 27.5312V37.5312H259.523V27.5312V17.5312H242.938V27.5312ZM297.68 32.043H307.68C307.68 26.5201 303.203 22.043 297.68 22.043V32.043ZM297.68 37.543V47.543C303.203 47.543 307.68 43.0658 307.68 37.543H297.68ZM289.859 37.543V27.543C284.337 27.543 279.859 32.0201 279.859 37.543H289.859ZM289.859 50.0039V60.0039C295.382 60.0039 299.859 55.5268 299.859 50.0039H289.859ZM282.855 50.0039H272.855C272.855 55.5268 277.333 60.0039 282.855 60.0039V50.0039ZM282.855 37.543H292.855C292.855 32.0201 288.378 27.543 282.855 27.543V37.543ZM276.023 37.543V27.543C270.501 27.543 266.023 32.0201 266.023 37.543H276.023ZM276.023 50.0039V60.0039C281.546 60.0039 286.023 55.5268 286.023 50.0039H276.023ZM268.977 50.0039H258.977C258.977 55.5268 263.454 60.0039 268.977 60.0039V50.0039ZM268.977 37.543H278.977C278.977 32.0201 274.499 27.543 268.977 27.543V37.543ZM261.414 37.543H251.414C251.414 43.0658 255.891 47.543 261.414 47.543V37.543ZM261.414 32.043V22.043C255.891 22.043 251.414 26.5201 251.414 32.043H261.414ZM279.418 11.4609L279.368 21.4608C279.401 21.461 279.435 21.461 279.468 21.4608L279.418 11.4609ZM264.723 20.6133L274.722 20.6926C274.723 20.6406 274.723 20.5885 274.722 20.5364L264.723 20.6133ZM279.418 24.0937L279.328 34.0933C279.387 34.0939 279.447 34.0939 279.506 34.0934L279.418 24.0937ZM297.68 32.043H287.68V37.543H297.68H307.68V32.043H297.68ZM297.68 37.543V27.543H289.859V37.543V47.543H297.68V37.543ZM289.859 37.543H279.859V50.0039H289.859H299.859V37.543H289.859ZM289.859 50.0039V40.0039H282.855V50.0039V60.0039H289.859V50.0039ZM282.855 50.0039H292.855V37.543H282.855H272.855V50.0039H282.855ZM282.855 37.543V27.543H276.023V37.543V47.543H282.855V37.543ZM276.023 37.543H266.023V50.0039H276.023H286.023V37.543H276.023ZM276.023 50.0039V40.0039H268.977V50.0039V60.0039H276.023V50.0039ZM268.977 50.0039H278.977V37.543H268.977H258.977V50.0039H268.977ZM268.977 37.543V27.543H261.414V37.543V47.543H268.977V37.543ZM261.414 37.543H271.414V32.043H261.414H251.414V37.543H261.414ZM261.414 32.043V42.043H297.68V32.043V22.043H261.414V32.043ZM279.418 11.4609L279.468 21.4608C282.543 21.4455 284.278 22.109 284.878 22.4733C285.129 22.6261 284.957 22.5866 284.705 22.1907C284.416 21.7368 284.242 21.1517 284.242 20.6133H294.242H304.242C304.242 13.5354 300.127 8.33527 295.26 5.37922C290.607 2.55312 284.929 1.43339 279.368 1.46106L279.418 11.4609ZM294.242 20.6133H284.242C284.242 19.961 284.457 19.2834 284.794 18.7728C285.085 18.3309 285.288 18.2808 285.02 18.4373C284.384 18.8095 282.582 19.4648 279.418 19.4648V29.4648V39.4648C284.891 39.4648 290.501 38.4015 295.117 35.7014C299.937 32.8826 304.242 27.7804 304.242 20.6133H294.242ZM279.418 29.4648V19.4648C276.251 19.4648 274.492 18.8081 273.903 18.4601C273.661 18.3173 273.883 18.3863 274.183 18.8492C274.526 19.3796 274.727 20.0606 274.722 20.6926L264.723 20.6133L254.723 20.5339C254.666 27.6744 258.889 32.8191 263.728 35.6786C268.338 38.4028 273.949 39.4648 279.418 39.4648V29.4648ZM264.723 20.6133L274.722 20.5364C274.726 21.0554 274.564 21.6427 274.27 22.1147C274.011 22.53 273.82 22.5882 274.046 22.4495C274.598 22.1104 276.289 21.4455 279.368 21.4608L279.418 11.4609L279.468 1.46106C273.91 1.43341 268.232 2.55175 263.585 5.40304C258.702 8.39975 254.669 13.64 254.723 20.6902L264.723 20.6133ZM279.418 16.918V6.91797C276.516 6.91797 272.882 7.22566 269.61 8.7474C267.863 9.55965 265.847 10.8915 264.259 13.0618C262.59 15.3431 261.812 17.9871 261.812 20.6133H271.812H281.812C281.812 21.9719 281.389 23.5202 280.401 24.8709C279.494 26.1107 278.485 26.6772 278.043 26.8825C277.613 27.0824 277.458 27.0671 277.782 27.0157C278.078 26.9689 278.608 26.918 279.418 26.918V16.918ZM271.812 20.6133H261.812C261.812 27.0654 266.258 30.8013 269.797 32.3596C272.948 33.7472 276.455 34.0675 279.328 34.0933L279.418 24.0937L279.508 14.0942C278.676 14.0867 278.109 14.0325 277.768 13.9791C277.398 13.9209 277.489 13.8937 277.857 14.0555C278.213 14.2122 279.224 14.723 280.183 15.9383C281.257 17.3011 281.812 18.9859 281.812 20.6133H271.812ZM279.418 24.0937L279.506 34.0934C282.402 34.0677 285.93 33.7523 289.093 32.3596C290.766 31.6229 292.792 30.3858 294.43 28.2914C296.182 26.0521 297.066 23.3642 297.066 20.6133H287.066H277.066C277.066 19.0225 277.601 17.3444 278.678 15.9685C279.641 14.7375 280.665 14.2174 281.033 14.0555C281.409 13.89 281.504 13.9179 281.123 13.9771C280.774 14.0315 280.19 14.0865 279.329 14.0941L279.418 24.0937ZM287.066 20.6133H297.066C297.066 18.0209 296.31 15.3841 294.647 13.0923C293.061 10.9072 291.039 9.56546 289.28 8.7474C285.995 7.22018 282.34 6.91797 279.418 6.91797V16.918V26.918C280.258 26.918 280.805 26.9698 281.11 27.0177C281.444 27.0703 281.285 27.0864 280.846 26.8825C280.392 26.6714 279.372 26.095 278.461 24.8404C277.473 23.4792 277.066 21.9381 277.066 20.6133H287.066ZM331.152 10.2578H341.152C341.152 4.73496 336.675 0.257812 331.152 0.257812V10.2578ZM331.152 25.3398H321.152C321.152 30.8627 325.629 35.3398 331.152 35.3398V25.3398ZM336.523 25.3398H346.523C346.523 19.817 342.046 15.3398 336.523 15.3398V25.3398ZM336.523 30.9687V40.9687C342.046 40.9687 346.523 36.4916 346.523 30.9687H336.523ZM331.152 30.9687V20.9687C325.629 20.9687 321.152 25.4459 321.152 30.9687H331.152ZM331.152 50.0039V60.0039C336.675 60.0039 341.152 55.5268 341.152 50.0039H331.152ZM324.32 50.0039H314.32C314.32 55.5268 318.797 60.0039 324.32 60.0039V50.0039ZM324.32 10.2578V0.257812C318.797 0.257812 314.32 4.73496 314.32 10.2578H324.32ZM322.387 15.9297H332.387C332.387 10.4068 327.91 5.92969 322.387 5.92969V15.9297ZM322.387 21.3867V31.3867C327.91 31.3867 332.387 26.9096 332.387 21.3867H322.387ZM299.227 21.3867H289.227C289.227 26.9096 293.704 31.3867 299.227 31.3867V21.3867ZM299.227 15.9297V5.92969C293.704 5.92969 289.227 10.4068 289.227 15.9297H299.227ZM307.434 15.9297V25.9297C312.956 25.9297 317.434 21.4525 317.434 15.9297H307.434ZM307.434 10.9883V0.988281C301.911 0.988281 297.434 5.46543 297.434 10.9883L307.434 10.9883ZM314.309 10.9883H324.309C324.309 5.46543 319.831 0.988281 314.309 0.988281V10.9883ZM314.309 15.9297H304.309C304.309 21.4525 308.786 25.9297 314.309 25.9297V15.9297ZM307.047 32.6016L317.046 32.7554C317.047 32.6504 317.047 32.5453 317.046 32.4403L307.047 32.6016ZM331.152 10.2578H321.152V25.3398H331.152L341.152 25.3398V10.2578H331.152ZM331.152 25.3398V35.3398H336.523V25.3398V15.3398L331.152 15.3398V25.3398ZM336.523 25.3398L326.523 25.3398V30.9687H336.523H346.523V25.3398H336.523ZM336.523 30.9687V20.9687L331.152 20.9687V30.9687V40.9687H336.523V30.9687ZM331.152 30.9687H321.152V50.0039H331.152H341.152V30.9687H331.152ZM331.152 50.0039V40.0039H324.32V50.0039V60.0039H331.152V50.0039ZM324.32 50.0039H334.32V10.2578H324.32H314.32V50.0039H324.32ZM324.32 10.2578V20.2578H331.152V10.2578V0.257812L324.32 0.257812V10.2578ZM322.387 15.9297H312.387V21.3867H322.387H332.387V15.9297H322.387ZM322.387 21.3867V11.3867L299.227 11.3867V21.3867V31.3867H322.387V21.3867ZM299.227 21.3867H309.227V15.9297H299.227H289.227V21.3867H299.227ZM299.227 15.9297V25.9297H307.434V15.9297V5.92969L299.227 5.92969V15.9297ZM307.434 15.9297H317.434V10.9883H307.434L297.434 10.9883V15.9297H307.434ZM307.434 10.9883V20.9883H314.309V10.9883V0.988281H307.434V10.9883ZM314.309 10.9883H304.309V15.9297H314.309H324.309V10.9883H314.309ZM314.309 15.9297V25.9297H322.387V15.9297V5.92969H314.309V15.9297ZM310.871 22.9336V32.9336C311.197 32.9336 311.396 32.9889 311.484 33.0219C311.573 33.0552 311.567 33.0706 311.51 33.0186C311.45 32.9633 311.374 32.8684 311.32 32.744C311.263 32.6148 311.27 32.5478 311.27 32.6016H321.27H331.27C331.27 20.6744 321.472 12.9336 310.871 12.9336V22.9336ZM321.27 32.6016H311.27C311.27 32.6766 311.258 32.6235 311.312 32.5013C311.364 32.3835 311.437 32.2895 311.499 32.2327C311.557 32.1792 311.566 32.193 311.48 32.2252C311.394 32.2572 311.197 32.3125 310.871 32.3125V42.3125V52.3125C321.503 52.3125 331.27 44.5435 331.27 32.6016H321.27ZM310.871 42.3125V32.3125C310.488 32.3125 310.266 32.2489 310.177 32.216C310.089 32.1835 310.111 32.1744 310.184 32.2425C310.262 32.3138 310.341 32.4203 310.393 32.5409C310.446 32.6635 310.43 32.7039 310.43 32.6016H300.43H290.43C290.43 44.5175 300.083 52.3125 310.871 52.3125V42.3125ZM300.43 32.6016H310.43C310.43 32.5204 310.442 32.5745 310.386 32.7043C310.33 32.8315 310.249 32.9391 310.173 33.0088C310.101 33.0753 310.082 33.0646 310.172 33.031C310.264 32.9972 310.488 32.9336 310.871 32.9336V22.9336V12.9336C300.113 12.9336 290.43 20.7004 290.43 32.6016H300.43ZM310.871 28.4766V18.4766C307.557 18.4766 303.836 19.5996 300.952 22.552C298.048 25.5247 296.993 29.3232 297.048 32.7628L307.047 32.6016L317.046 32.4403C317.058 33.2159 316.798 34.9519 315.258 36.5281C313.738 38.084 311.95 38.4766 310.871 38.4766V28.4766ZM307.047 32.6016L297.048 32.4477C296.996 35.8314 297.984 39.7329 301.034 42.7825C304.036 45.7843 307.804 46.7266 310.871 46.7266V36.7266V26.7266C311.704 26.7266 313.538 27.0028 315.176 28.6404C316.861 30.3256 317.055 32.1647 317.046 32.7554L307.047 32.6016ZM310.871 36.7266V46.7266C313.985 46.7266 317.741 45.7432 320.71 42.7262C323.683 39.7058 324.652 35.8841 324.652 32.6016H314.652H304.652C304.652 32.112 304.827 30.3528 306.457 28.6967C308.083 27.0439 309.949 26.7266 310.871 26.7266V36.7266ZM314.652 32.6016H324.652C324.652 29.2709 323.623 25.5533 320.792 22.609C317.943 19.6464 314.235 18.4766 310.871 18.4766V28.4766V38.4766C309.699 38.4766 307.881 38.0372 306.375 36.4711C304.887 34.9233 304.652 33.2682 304.652 32.6016H314.652ZM369.824 20.3555H379.824C379.824 14.8326 375.347 10.3555 369.824 10.3555V20.3555ZM369.824 25.6836V35.6836C375.347 35.6836 379.824 31.2064 379.824 25.6836H369.824ZM341.723 25.6836L331.723 25.6836C331.723 31.2064 336.2 35.6836 341.723 35.6836V25.6836ZM341.723 11.6758V1.67578C336.2 1.67578 331.723 6.15293 331.723 11.6758H341.723ZM348.598 11.6758H358.598C358.598 6.15293 354.121 1.67578 348.598 1.67578V11.6758ZM348.598 20.3555H338.598C338.598 25.8783 343.075 30.3555 348.598 30.3555V20.3555ZM373.734 29.207H383.734C383.734 23.6842 379.257 19.207 373.734 19.207V29.207ZM373.734 34.5352V44.5352C379.257 44.5352 383.734 40.058 383.734 34.5352H373.734ZM337.469 34.5352H327.469C327.469 40.058 331.946 44.5352 337.469 44.5352V34.5352ZM337.469 29.207V19.207C331.946 19.207 327.469 23.6842 327.469 29.207H337.469ZM370.082 43.7305H380.082C380.082 38.2076 375.605 33.7305 370.082 33.7305V43.7305ZM370.082 49.2305V59.2305C375.605 59.2305 380.082 54.7533 380.082 49.2305H370.082ZM341.25 49.2305H331.25C331.25 54.7533 335.727 59.2305 341.25 59.2305V49.2305ZM341.25 37.2852V27.2852C335.727 27.2852 331.25 31.7623 331.25 37.2852H341.25ZM348.211 37.2852H358.211C358.211 31.7623 353.734 27.2852 348.211 27.2852V37.2852ZM348.211 43.7305H338.211C338.211 49.2533 342.688 53.7305 348.211 53.7305V43.7305ZM369.824 20.3555H359.824V25.6836H369.824H379.824V20.3555H369.824ZM369.824 25.6836V15.6836H341.723V25.6836V35.6836H369.824V25.6836ZM341.723 25.6836H351.723V11.6758H341.723H331.723V25.6836L341.723 25.6836ZM341.723 11.6758V21.6758H348.598V11.6758V1.67578H341.723V11.6758ZM348.598 11.6758H338.598V20.3555H348.598H358.598V11.6758H348.598ZM348.598 20.3555V30.3555H369.824V20.3555V10.3555L348.598 10.3555V20.3555ZM373.734 29.207H363.734V34.5352H373.734H383.734V29.207H373.734ZM373.734 34.5352V24.5352H337.469V34.5352V44.5352H373.734V34.5352ZM337.469 34.5352H347.469V29.207H337.469H327.469V34.5352H337.469ZM337.469 29.207V39.207H373.734V29.207V19.207H337.469V29.207ZM370.082 43.7305H360.082V49.2305H370.082H380.082V43.7305H370.082ZM370.082 49.2305V39.2305H341.25V49.2305V59.2305H370.082V49.2305ZM341.25 49.2305H351.25V37.2852H341.25H331.25V49.2305H341.25ZM341.25 37.2852V47.2852H348.211V37.2852V27.2852H341.25V37.2852ZM348.211 37.2852H338.211V43.7305H348.211H358.211V37.2852H348.211ZM348.211 43.7305V53.7305H370.082V43.7305V33.7305H348.211V43.7305Z" fill="white" mask="url(#path-1-outside-1_6524_1857)"/>
</g>
<defs>
<filter id="filter0_d_6524_1857" x="0" y="0" width="387.734" height="68.1328" filterUnits="userSpaceOnUse" color-interpolation-filters="sRGB">
<feFlood flood-opacity="0" result="BackgroundImageFix"/>
<feColorMatrix in="SourceAlpha" type="matrix" values="0 0 0 0 0 0 0 0 0 0 0 0 0 0 0 0 0 0 127 0" result="hardAlpha"/>
<feOffset dy="4"/>
<feGaussianBlur stdDeviation="2"/>
<feComposite in2="hardAlpha" operator="out"/>
<feColorMatrix type="matrix" values="0 0 0 0 0 0 0 0 0 0 0 0 0 0 0 0 0 0 0.07 0"/>
<feBlend mode="normal" in2="BackgroundImageFix" result="effect1_dropShadow_6524_1857"/>
<feBlend mode="normal" in="SourceGraphic" in2="effect1_dropShadow_6524_1857" result="shape"/>
</filter>
</defs>
</svg>
