<svg width="227" height="68" viewBox="0 0 227 68" fill="none" xmlns="http://www.w3.org/2000/svg">
<g filter="url(#filter0_d_6524_1784)">
<mask id="path-1-outside-1_6524_1784" maskUnits="userSpaceOnUse" x="3.22656" y="-0.507813" width="219" height="61" fill="black">
<rect fill="white" x="3.22656" y="-0.507813" width="219" height="61"/>
<path d="M37.5898 11.9336V17.3906H30.5C31.0801 20.8496 33.5293 24.3516 39.4375 25.8125L36 31.1836C31.6172 30.002 28.6738 27.5742 26.9336 24.4805C25.1289 27.8535 22.0781 30.5391 17.4805 31.8711L14 26.5C20.123 24.8242 22.6152 21.1074 23.2383 17.3906H15.8477V11.9336H37.5898ZM47.6445 10V31.6133H40.7266V10L47.6445 10ZM27.3633 33.0742V36.125H40.7695V33.0742H47.6445V49.4023H20.5742V33.0742H27.3633ZM27.3633 43.9023H40.7695V41.3672H27.3633V43.9023ZM88.4219 27.7461V33.2031H73.6836V35.3086C80.2363 35.9746 84.082 38.4668 84.125 42.4844C84.082 47.2109 78.8398 49.832 70.2031 49.832C61.4375 49.832 56.1523 47.2109 56.1523 42.4844C56.1523 38.4238 60.1055 35.9316 66.8516 35.3086V33.2031H52.1562V27.7461L88.4219 27.7461ZM70.2031 40.3359C65.2617 40.3789 63.1562 40.9805 63.1992 42.4844C63.1562 43.9883 65.2617 44.6758 70.2031 44.6758C75.0156 44.6758 77.207 43.9883 77.207 42.4844C77.207 40.9805 75.0156 40.3789 70.2031 40.3359ZM85.1133 11.5898V17.0039L75.6602 17.0039C76.8418 18.9375 80 20.8926 87.1758 21.4297L84.8125 26.8008C76.8418 26.1777 72.2656 23.4707 70.2031 19.9688C68.1621 23.4492 63.6504 26.1777 55.7227 26.8008L53.4453 21.4297C60.3848 20.8926 63.5645 18.916 64.7891 17.0039H55.4648V11.5898H85.1133ZM123.742 10V49.875H116.781V10H123.742ZM101.914 12.6641C107.973 12.6211 112.527 18.207 112.527 26.9727C112.527 35.8672 107.973 41.4102 101.914 41.4102C95.7266 41.4102 91.1289 35.8672 91.1289 26.9727C91.1289 18.207 95.7266 12.6211 101.914 12.6641ZM101.914 18.8945C99.3789 18.8516 97.7891 21.4727 97.7891 26.9727C97.7891 32.5586 99.3789 35.0938 101.914 35.0938C104.277 35.0938 105.91 32.5586 105.91 26.9727C105.91 21.4727 104.277 18.8516 101.914 18.8945ZM171.438 10V24.1797H174.574V29.8516H171.438V49.7461H164.648V10H171.438ZM143.336 13.5234V22.1172H144.281V13.5234H149.824V40.8516L137.75 40.8516V13.5234H143.336ZM143.336 35.3086H144.281V27.4883H143.336V35.3086ZM156.527 13.5234V22.1172H157.645V13.5234H163.23V40.8516H151.07V13.5234H156.527ZM156.527 35.3086H157.645V27.4883H156.527V35.3086ZM212.086 31.1406V36.6406H175.82V31.1406H212.086ZM208.777 43.6875V49.1875H180.246V38.2305H187.078V43.6875H208.777ZM207.875 10.6445V22.418L187.035 22.418V24.2227L208.52 24.2227V29.3359H180.203V17.5625H201V15.9297H180.16V10.6445H207.875Z"/>
</mask>
<path d="M37.5898 11.9336V17.3906H30.5C31.0801 20.8496 33.5293 24.3516 39.4375 25.8125L36 31.1836C31.6172 30.002 28.6738 27.5742 26.9336 24.4805C25.1289 27.8535 22.0781 30.5391 17.4805 31.8711L14 26.5C20.123 24.8242 22.6152 21.1074 23.2383 17.3906H15.8477V11.9336H37.5898ZM47.6445 10V31.6133H40.7266V10L47.6445 10ZM27.3633 33.0742V36.125H40.7695V33.0742H47.6445V49.4023H20.5742V33.0742H27.3633ZM27.3633 43.9023H40.7695V41.3672H27.3633V43.9023ZM88.4219 27.7461V33.2031H73.6836V35.3086C80.2363 35.9746 84.082 38.4668 84.125 42.4844C84.082 47.2109 78.8398 49.832 70.2031 49.832C61.4375 49.832 56.1523 47.2109 56.1523 42.4844C56.1523 38.4238 60.1055 35.9316 66.8516 35.3086V33.2031H52.1562V27.7461L88.4219 27.7461ZM70.2031 40.3359C65.2617 40.3789 63.1562 40.9805 63.1992 42.4844C63.1562 43.9883 65.2617 44.6758 70.2031 44.6758C75.0156 44.6758 77.207 43.9883 77.207 42.4844C77.207 40.9805 75.0156 40.3789 70.2031 40.3359ZM85.1133 11.5898V17.0039L75.6602 17.0039C76.8418 18.9375 80 20.8926 87.1758 21.4297L84.8125 26.8008C76.8418 26.1777 72.2656 23.4707 70.2031 19.9688C68.1621 23.4492 63.6504 26.1777 55.7227 26.8008L53.4453 21.4297C60.3848 20.8926 63.5645 18.916 64.7891 17.0039H55.4648V11.5898H85.1133ZM123.742 10V49.875H116.781V10H123.742ZM101.914 12.6641C107.973 12.6211 112.527 18.207 112.527 26.9727C112.527 35.8672 107.973 41.4102 101.914 41.4102C95.7266 41.4102 91.1289 35.8672 91.1289 26.9727C91.1289 18.207 95.7266 12.6211 101.914 12.6641ZM101.914 18.8945C99.3789 18.8516 97.7891 21.4727 97.7891 26.9727C97.7891 32.5586 99.3789 35.0938 101.914 35.0938C104.277 35.0938 105.91 32.5586 105.91 26.9727C105.91 21.4727 104.277 18.8516 101.914 18.8945ZM171.438 10V24.1797H174.574V29.8516H171.438V49.7461H164.648V10H171.438ZM143.336 13.5234V22.1172H144.281V13.5234H149.824V40.8516L137.75 40.8516V13.5234H143.336ZM143.336 35.3086H144.281V27.4883H143.336V35.3086ZM156.527 13.5234V22.1172H157.645V13.5234H163.23V40.8516H151.07V13.5234H156.527ZM156.527 35.3086H157.645V27.4883H156.527V35.3086ZM212.086 31.1406V36.6406H175.82V31.1406H212.086ZM208.777 43.6875V49.1875H180.246V38.2305H187.078V43.6875H208.777ZM207.875 10.6445V22.418L187.035 22.418V24.2227L208.52 24.2227V29.3359H180.203V17.5625H201V15.9297H180.16V10.6445H207.875Z" fill="#11DCA9"/>
<path d="M37.5898 11.9336L47.5898 11.9336C47.5898 6.41075 43.1127 1.93359 37.5898 1.93359V11.9336ZM37.5898 17.3906V27.3906C43.1127 27.3906 47.5898 22.9135 47.5898 17.3906H37.5898ZM30.5 17.3906V7.39062C27.5587 7.39062 24.7666 8.6855 22.8665 10.9307C20.9665 13.1759 20.1513 16.1438 20.6377 19.0445L30.5 17.3906ZM39.4375 25.8125L47.8602 31.203C49.5979 28.488 49.9201 25.1017 48.7259 22.1076C47.5316 19.1135 44.9672 16.8787 41.8379 16.1049L39.4375 25.8125ZM36 31.1836L33.3969 40.8388C37.6089 41.9744 42.0711 40.2485 44.4227 36.5741L36 31.1836ZM26.9336 24.4805L35.6493 19.5779C33.8596 16.3961 30.4784 14.4425 26.828 14.481C23.1777 14.5196 19.8384 16.5441 18.1163 19.7629L26.9336 24.4805ZM17.4805 31.8711L9.08837 37.3092C11.4868 41.0105 16.0269 42.7034 20.2632 41.4761L17.4805 31.8711ZM14 26.5L11.3602 16.8547C8.2835 17.6968 5.79309 19.9561 4.65642 22.9366C3.51975 25.9171 3.87322 29.2611 5.6079 31.9381L14 26.5ZM23.2383 17.3906L33.1007 19.0439C33.5869 16.1432 32.7716 13.1755 30.8715 10.9305C28.9715 8.6854 26.1794 7.39062 23.2383 7.39062V17.3906ZM15.8477 17.3906H5.84766C5.84766 22.9135 10.3248 27.3906 15.8477 27.3906V17.3906ZM15.8477 11.9336V1.93359C10.3248 1.93359 5.84766 6.41075 5.84766 11.9336H15.8477ZM47.6445 10H57.6445C57.6445 4.47715 53.1674 0 47.6445 0V10ZM47.6445 31.6133V41.6133C53.1674 41.6133 57.6445 37.1361 57.6445 31.6133H47.6445ZM40.7266 31.6133H30.7266C30.7266 37.1361 35.2037 41.6133 40.7266 41.6133V31.6133ZM40.7266 10V0C35.2037 0 30.7266 4.47715 30.7266 10H40.7266ZM27.3633 33.0742H37.3633C37.3633 27.5514 32.8861 23.0742 27.3633 23.0742V33.0742ZM27.3633 36.125H17.3633C17.3633 41.6478 21.8404 46.125 27.3633 46.125V36.125ZM40.7695 36.125V46.125C46.2924 46.125 50.7695 41.6478 50.7695 36.125H40.7695ZM40.7695 33.0742V23.0742C35.2467 23.0742 30.7695 27.5514 30.7695 33.0742H40.7695ZM47.6445 33.0742H57.6445C57.6445 27.5514 53.1674 23.0742 47.6445 23.0742V33.0742ZM47.6445 49.4023V59.4023C53.1674 59.4023 57.6445 54.9252 57.6445 49.4023H47.6445ZM20.5742 49.4023H10.5742C10.5742 54.9252 15.0514 59.4023 20.5742 59.4023V49.4023ZM20.5742 33.0742V23.0742C15.0514 23.0742 10.5742 27.5514 10.5742 33.0742H20.5742ZM27.3633 43.9023H17.3633C17.3633 49.4252 21.8404 53.9023 27.3633 53.9023V43.9023ZM40.7695 43.9023V53.9023C46.2924 53.9023 50.7695 49.4252 50.7695 43.9023H40.7695ZM40.7695 41.3672H50.7695C50.7695 35.8443 46.2924 31.3672 40.7695 31.3672V41.3672ZM27.3633 41.3672V31.3672C21.8404 31.3672 17.3633 35.8443 17.3633 41.3672H27.3633ZM37.5898 11.9336H27.5898V17.3906H37.5898H47.5898V11.9336L37.5898 11.9336ZM37.5898 17.3906V7.39062H30.5V17.3906V27.3906H37.5898V17.3906ZM30.5 17.3906L20.6377 19.0445C21.9166 26.6702 27.4948 33.1606 37.0371 35.5201L39.4375 25.8125L41.8379 16.1049C41.108 15.9244 40.6732 15.7276 40.4465 15.603C40.2268 15.4823 40.1739 15.4142 40.2028 15.4445C40.232 15.4751 40.2799 15.5382 40.3194 15.6201C40.3554 15.6949 40.3629 15.7402 40.3623 15.7367L30.5 17.3906ZM39.4375 25.8125L31.0148 20.422L27.5773 25.7931L36 31.1836L44.4227 36.5741L47.8602 31.203L39.4375 25.8125ZM36 31.1836L38.6031 21.5284C37.5462 21.2434 36.91 20.8789 36.5281 20.5885C36.1514 20.3021 35.873 19.9755 35.6493 19.5779L26.9336 24.4805L18.2178 29.3831C21.3505 34.9523 26.5741 38.9994 33.3969 40.8388L36 31.1836ZM26.9336 24.4805L18.1163 19.7629C17.5994 20.7291 16.742 21.6738 14.6977 22.2661L17.4805 31.8711L20.2632 41.4761C27.4143 39.4043 32.6584 34.978 35.7509 29.198L26.9336 24.4805ZM17.4805 31.8711L25.8726 26.433L22.3921 21.0619L14 26.5L5.6079 31.9381L9.08837 37.3092L17.4805 31.8711ZM14 26.5L16.6398 36.1453C21.2188 34.8921 25.1227 32.6722 28.0609 29.4595C30.997 26.2491 32.514 22.5434 33.1007 19.0439L23.2383 17.3906L13.3759 15.7374C13.3549 15.8625 13.3297 15.9207 13.3242 15.9325C13.3222 15.9367 13.3219 15.9405 13.3024 15.9618C13.2831 15.983 13.1807 16.0915 12.9124 16.2475C12.6368 16.4078 12.1495 16.6387 11.3602 16.8547L14 26.5ZM23.2383 17.3906V7.39062H15.8477V17.3906V27.3906H23.2383V17.3906ZM15.8477 17.3906H25.8477V11.9336H15.8477H5.84766L5.84766 17.3906H15.8477ZM15.8477 11.9336V21.9336H37.5898V11.9336V1.93359L15.8477 1.93359V11.9336ZM47.6445 10L37.6445 10V31.6133H47.6445H57.6445V10H47.6445ZM47.6445 31.6133V21.6133H40.7266V31.6133V41.6133H47.6445V31.6133ZM40.7266 31.6133H50.7266V10L40.7266 10H30.7266V31.6133H40.7266ZM40.7266 10V20H47.6445V10V0H40.7266V10ZM27.3633 33.0742H17.3633V36.125H27.3633H37.3633V33.0742H27.3633ZM27.3633 36.125V46.125H40.7695V36.125V26.125H27.3633V36.125ZM40.7695 36.125H50.7695V33.0742H40.7695H30.7695V36.125H40.7695ZM40.7695 33.0742V43.0742H47.6445V33.0742V23.0742H40.7695V33.0742ZM47.6445 33.0742H37.6445V49.4023H47.6445H57.6445V33.0742H47.6445ZM47.6445 49.4023V39.4023H20.5742V49.4023V59.4023H47.6445V49.4023ZM20.5742 49.4023H30.5742V33.0742H20.5742H10.5742L10.5742 49.4023H20.5742ZM20.5742 33.0742V43.0742H27.3633V33.0742V23.0742H20.5742V33.0742ZM27.3633 43.9023V53.9023H40.7695V43.9023V33.9023H27.3633V43.9023ZM40.7695 43.9023H50.7695V41.3672H40.7695H30.7695V43.9023H40.7695ZM40.7695 41.3672V31.3672H27.3633V41.3672V51.3672H40.7695V41.3672ZM27.3633 41.3672H17.3633V43.9023H27.3633H37.3633V41.3672H27.3633ZM88.4219 27.7461H98.4219C98.4219 22.2232 93.9447 17.7461 88.4219 17.7461V27.7461ZM88.4219 33.2031V43.2031C93.9447 43.2031 98.4219 38.726 98.4219 33.2031H88.4219ZM73.6836 33.2031V23.2031C68.1607 23.2031 63.6836 27.6803 63.6836 33.2031H73.6836ZM73.6836 35.3086H63.6836C63.6836 40.4399 67.5674 44.7385 72.6724 45.2573L73.6836 35.3086ZM84.125 42.4844L94.1246 42.5753C94.1252 42.5093 94.1251 42.4434 94.1244 42.3774L84.125 42.4844ZM66.8516 35.3086L67.7712 45.2662C72.9158 44.7911 76.8516 40.4751 76.8516 35.3086H66.8516ZM66.8516 33.2031H76.8516C76.8516 27.6803 72.3744 23.2031 66.8516 23.2031V33.2031ZM52.1562 33.2031H42.1562C42.1562 38.726 46.6334 43.2031 52.1562 43.2031V33.2031ZM52.1562 27.7461V17.7461C46.6334 17.7461 42.1562 22.2232 42.1562 27.7461H52.1562ZM70.2031 40.3359L70.2924 30.3363C70.2337 30.3358 70.1749 30.3358 70.1162 30.3363L70.2031 40.3359ZM63.1992 42.4844L73.1951 42.77C73.2006 42.5796 73.2006 42.3891 73.1951 42.1988L63.1992 42.4844ZM85.1133 11.5898H95.1133C95.1133 6.067 90.6361 1.58984 85.1133 1.58984V11.5898ZM85.1133 17.0039V27.0039C90.6361 27.0039 95.1133 22.5268 95.1133 17.0039H85.1133ZM75.6602 17.0039V7.00391C72.0429 7.00391 68.7076 8.95737 66.9382 12.1123C65.1688 15.2673 65.2411 19.1319 67.1273 22.2184L75.6602 17.0039ZM87.1758 21.4297L96.3289 25.4571C97.6363 22.4857 97.42 19.0646 95.7488 16.2816C94.0776 13.4985 91.1594 11.6999 87.9222 11.4576L87.1758 21.4297ZM84.8125 26.8008L84.0332 36.7704C88.2704 37.1016 92.254 34.7183 93.9657 30.8282L84.8125 26.8008ZM70.2031 19.9688L78.8197 14.8939C77.0207 11.8393 73.7388 9.96541 70.1937 9.96875C66.6486 9.9721 63.3703 11.8521 61.5769 14.9102L70.2031 19.9688ZM55.7227 26.8008L46.516 30.7044C48.1951 34.6643 52.2182 37.107 56.5061 36.77L55.7227 26.8008ZM53.4453 21.4297L52.6736 11.4595C49.4652 11.7078 46.5723 13.485 44.9006 16.2347C43.2288 18.9844 42.9825 22.3706 44.2387 25.3333L53.4453 21.4297ZM64.7891 17.0039L73.2101 22.3971C75.1813 19.3192 75.3163 15.4111 73.5621 12.2045C71.8079 8.99799 68.4441 7.00391 64.7891 7.00391V17.0039ZM55.4648 17.0039H45.4648C45.4648 22.5268 49.942 27.0039 55.4648 27.0039V17.0039ZM55.4648 11.5898V1.58984C49.942 1.58984 45.4648 6.067 45.4648 11.5898H55.4648ZM88.4219 27.7461H78.4219V33.2031H88.4219H98.4219V27.7461H88.4219ZM88.4219 33.2031V23.2031L73.6836 23.2031V33.2031V43.2031H88.4219V33.2031ZM73.6836 33.2031H63.6836V35.3086H73.6836H83.6836V33.2031H73.6836ZM73.6836 35.3086L72.6724 45.2573C73.8031 45.3723 74.6186 45.5474 75.1639 45.7132C75.7204 45.8824 75.856 45.9994 75.7411 45.9216C75.604 45.8289 75.155 45.4837 74.7453 44.7769C74.3127 44.0307 74.1325 43.2377 74.1256 42.5913L84.125 42.4844L94.1244 42.3774C94.0629 36.6201 91.0416 32.1265 86.9498 29.3577C83.2555 26.8578 78.8176 25.7789 74.6948 25.3598L73.6836 35.3086ZM84.125 42.4844L74.1254 42.3935C74.1324 41.6264 74.3863 40.7087 74.9334 39.9211C75.424 39.2149 75.8748 39.0057 75.7719 39.0591C75.6566 39.1191 75.1791 39.3315 74.1754 39.5195C73.1925 39.7035 71.8762 39.832 70.2031 39.832V49.832V59.832C75.2933 59.832 80.5892 59.0973 85.0015 56.8022C89.8531 54.2785 94.0618 49.4805 94.1246 42.5753L84.125 42.4844ZM70.2031 49.832V39.832C68.4901 39.832 67.1397 39.7024 66.1281 39.5154C65.0947 39.3243 64.5986 39.1071 64.473 39.0424C64.3585 38.9833 64.8228 39.1942 65.3279 39.9211C65.8937 40.7357 66.1523 41.6881 66.1523 42.4844H56.1523H46.1523C46.1523 49.4778 50.4338 54.3059 55.3082 56.8189C59.738 59.1027 65.0683 59.832 70.2031 59.832V49.832ZM56.1523 42.4844H66.1523C66.1523 43.1644 65.9665 44.0009 65.5088 44.784C65.0777 45.5216 64.6068 45.8702 64.4796 45.9542C64.3746 46.0235 64.5341 45.8965 65.1332 45.7218C65.7195 45.5509 66.5842 45.3758 67.7712 45.2662L66.8516 35.3086L65.9319 25.351C61.7377 25.7383 57.2217 26.7817 53.4648 29.2607C49.2874 32.017 46.1523 36.5787 46.1523 42.4844H56.1523ZM66.8516 35.3086H76.8516V33.2031H66.8516H56.8516V35.3086H66.8516ZM66.8516 33.2031V23.2031H52.1562V33.2031V43.2031H66.8516V33.2031ZM52.1562 33.2031H62.1562V27.7461H52.1562H42.1562V33.2031H52.1562ZM52.1562 27.7461V37.7461H88.4219V27.7461V17.7461L52.1562 17.7461V27.7461ZM70.2031 40.3359L70.1162 30.3363C67.5755 30.3584 64.5616 30.4982 61.942 31.289C60.6001 31.6941 58.4216 32.5371 56.5095 34.4492C54.2577 36.701 53.1155 39.6977 53.2033 42.77L63.1992 42.4844L73.1951 42.1988C73.2241 43.2113 73.0732 44.3967 72.5913 45.6222C72.1077 46.8517 71.4003 47.8427 70.6516 48.5913C69.2767 49.9663 67.9253 50.3742 67.7221 50.4356C67.42 50.5268 67.4286 50.485 67.9775 50.4321C68.4812 50.3836 69.2277 50.3448 70.2901 50.3356L70.2031 40.3359ZM63.1992 42.4844L53.2033 42.1988C53.116 45.2537 54.2429 48.2047 56.4142 50.4358C58.285 52.3579 60.4342 53.2417 61.8186 53.6792C64.5108 54.5301 67.5789 54.6758 70.2031 54.6758V44.6758V34.6758C69.1769 34.6758 68.4652 34.6391 67.9997 34.5932C67.4916 34.543 67.5137 34.504 67.8455 34.6089C68.0912 34.6865 69.4133 35.1164 70.7469 36.4867C71.4666 37.2262 72.1442 38.1971 72.6085 39.3944C73.0723 40.5901 73.2241 41.7556 73.1951 42.77L63.1992 42.4844ZM70.2031 44.6758V54.6758C72.7962 54.6758 75.823 54.5246 78.4976 53.6873C79.8669 53.2585 81.9525 52.4089 83.8005 50.5918C85.9331 48.4949 87.207 45.6249 87.207 42.4844H77.207H67.207C67.207 41.4266 67.4067 40.2574 67.9035 39.0912C68.3977 37.9309 69.0835 37.0139 69.7783 36.3307C71.0651 35.0655 72.302 34.6697 72.5219 34.6008C72.8258 34.5057 72.8303 34.5449 72.3357 34.5942C71.8803 34.6396 71.1895 34.6758 70.2031 34.6758V44.6758ZM77.207 42.4844H87.207C87.207 39.3209 85.9121 36.4091 83.7032 34.2953C81.8162 32.4896 79.704 31.679 78.375 31.2816C75.7717 30.503 72.7987 30.3587 70.2924 30.3363L70.2031 40.3359L70.1138 50.3355C71.1379 50.3447 71.8642 50.383 72.3582 50.4312C72.8938 50.4833 72.9195 50.5253 72.6445 50.443C72.465 50.3893 71.2013 50.0138 69.8756 48.7452C69.1537 48.0543 68.4381 47.119 67.9235 45.9279C67.4069 44.7322 67.207 43.5424 67.207 42.4844H77.207ZM85.1133 11.5898H75.1133V17.0039L85.1133 17.0039H95.1133V11.5898H85.1133ZM85.1133 17.0039V7.00391H75.6602V17.0039V27.0039L85.1133 27.0039V17.0039ZM75.6602 17.0039L67.1273 22.2184C70.9191 28.4231 78.3818 30.7994 86.4294 31.4018L87.1758 21.4297L87.9222 11.4576C85.0518 11.2427 83.6514 10.7846 83.1579 10.57C82.7053 10.3732 83.4567 10.5846 84.193 11.7894L75.6602 17.0039ZM87.1758 21.4297L78.0226 17.4023L75.6594 22.7734L84.8125 26.8008L93.9657 30.8282L96.3289 25.4571L87.1758 21.4297ZM84.8125 26.8008L85.5918 16.8312C79.2914 16.3387 78.5562 14.4465 78.8197 14.8939L70.2031 19.9688L61.5865 25.0436C65.975 32.4949 74.3922 36.0168 84.0332 36.7704L84.8125 26.8008ZM70.2031 19.9688L61.5769 14.9102C61.834 14.4719 61.1247 16.3454 54.9392 16.8315L55.7227 26.8008L56.5061 36.77C66.176 36.0101 74.4902 32.4266 78.8293 25.0273L70.2031 19.9688ZM55.7227 26.8008L64.9293 22.8972L62.6519 17.5261L53.4453 21.4297L44.2387 25.3333L46.516 30.7044L55.7227 26.8008ZM53.4453 21.4297L54.217 31.3999C62.217 30.7807 69.4246 28.3077 73.2101 22.3971L64.7891 17.0039L56.3681 11.6107C57.0568 10.5353 57.6975 10.3744 57.2265 10.5821C56.7319 10.8001 55.3806 11.25 52.6736 11.4595L53.4453 21.4297ZM64.7891 17.0039V7.00391H55.4648V17.0039V27.0039H64.7891V17.0039ZM55.4648 17.0039H65.4648V11.5898H55.4648H45.4648V17.0039H55.4648ZM55.4648 11.5898V21.5898L85.1133 21.5898V11.5898V1.58984L55.4648 1.58984V11.5898ZM123.742 10H133.742C133.742 4.47715 129.265 0 123.742 0V10ZM123.742 49.875V59.875C129.265 59.875 133.742 55.3978 133.742 49.875H123.742ZM116.781 49.875H106.781C106.781 55.3978 111.258 59.875 116.781 59.875V49.875ZM116.781 10V0C111.258 0 106.781 4.47715 106.781 10L116.781 10ZM101.914 12.6641L101.845 22.6638C101.891 22.6641 101.938 22.6641 101.985 22.6638L101.914 12.6641ZM101.914 18.8945L101.745 28.8931C101.862 28.8951 101.979 28.895 102.096 28.8929L101.914 18.8945ZM123.742 10H113.742V49.875H123.742H133.742V10H123.742ZM123.742 49.875V39.875H116.781V49.875V59.875H123.742V49.875ZM116.781 49.875H126.781V10H116.781L106.781 10V49.875H116.781ZM116.781 10V20H123.742V10V0L116.781 0V10ZM101.914 12.6641L101.985 22.6638C101.917 22.6643 101.748 22.6406 101.572 22.5508C101.411 22.4681 101.42 22.4198 101.54 22.5782C101.811 22.9327 102.527 24.2334 102.527 26.9727H112.527H122.527C122.527 20.9463 120.967 15.0712 117.445 10.4521C113.798 5.66819 108.265 2.61877 101.843 2.66431L101.914 12.6641ZM112.527 26.9727H102.527C102.527 29.8028 101.798 31.1249 101.528 31.4804C101.407 31.6391 101.396 31.594 101.55 31.5147C101.716 31.4293 101.869 31.4102 101.914 31.4102V41.4102V51.4102C108.288 51.4102 113.806 48.3834 117.458 43.5733C120.98 38.9337 122.527 33.0371 122.527 26.9727H112.527ZM101.914 41.4102V31.4102C101.893 31.4102 101.997 31.4135 102.135 31.483C102.263 31.5479 102.244 31.5815 102.125 31.4265C101.859 31.0816 101.129 29.7839 101.129 26.9727H91.1289H81.1289C81.1289 33.056 82.6973 38.977 86.2775 43.6273C89.9903 48.4498 95.5519 51.4102 101.914 51.4102V41.4102ZM91.1289 26.9727H101.129C101.129 24.2526 101.846 22.9762 102.112 22.632C102.232 22.4774 102.248 22.5139 102.113 22.5822C102.052 22.6127 101.986 22.6363 101.924 22.6507C101.862 22.6649 101.832 22.6637 101.845 22.6638L101.914 12.6641L101.984 2.6643C95.5744 2.6198 89.9991 5.60151 86.2902 10.3982C82.7106 15.0277 81.1289 20.9271 81.1289 26.9727H91.1289ZM101.914 18.8945L102.084 8.89597C96.452 8.80052 92.2537 12.0746 90.0803 16.1436C88.2394 19.59 87.7891 23.5385 87.7891 26.9727H97.7891H107.789C107.789 26.0559 107.857 25.4897 107.91 25.2055C107.967 24.8993 107.972 25.0966 107.721 25.5664C107.455 26.0649 106.829 26.9904 105.615 27.7722C104.337 28.5955 102.94 28.9134 101.745 28.8931L101.914 18.8945ZM97.7891 26.9727H87.7891C87.7891 30.4271 88.2328 34.3944 90.0882 37.8541C92.3028 41.9836 96.4778 45.0938 101.914 45.0938V35.0938V25.0937C103.024 25.0937 104.36 25.3965 105.607 26.1982C106.804 26.9673 107.435 27.8831 107.714 28.4018C107.972 28.8846 107.968 29.0928 107.911 28.7849C107.858 28.4977 107.789 27.9194 107.789 26.9727H97.7891ZM101.914 35.0938V45.0938C107.513 45.0938 111.564 41.7294 113.641 37.7986C115.44 34.3926 115.91 30.4806 115.91 26.9727H105.91H95.9102C95.9102 27.9039 95.8404 28.4806 95.7862 28.7724C95.7283 29.0842 95.719 28.9062 95.9561 28.4572C96.2048 27.9865 96.8005 27.0851 97.9726 26.3005C99.2126 25.4703 100.622 25.0937 101.914 25.0937V35.0938ZM105.91 26.9727H115.91C115.91 23.4853 115.433 19.5914 113.648 16.199C111.618 12.3393 107.539 8.79061 101.732 8.89618L101.914 18.8945L102.096 28.8929C100.71 28.9181 99.2347 28.5217 97.9646 27.6697C96.7759 26.8723 96.1854 25.9614 95.9484 25.511C95.719 25.075 95.7298 24.9078 95.7877 25.218C95.8416 25.507 95.9102 26.0715 95.9102 26.9727H105.91ZM171.438 10L181.438 10C181.438 4.47715 176.96 0 171.438 0V10ZM171.438 24.1797H161.438C161.438 29.7025 165.915 34.1797 171.438 34.1797V24.1797ZM174.574 24.1797H184.574C184.574 18.6568 180.097 14.1797 174.574 14.1797V24.1797ZM174.574 29.8516V39.8516C180.097 39.8516 184.574 35.3744 184.574 29.8516H174.574ZM171.438 29.8516V19.8516C165.915 19.8516 161.438 24.3287 161.438 29.8516H171.438ZM171.438 49.7461V59.7461C176.96 59.7461 181.438 55.2689 181.438 49.7461H171.438ZM164.648 49.7461H154.648C154.648 55.2689 159.126 59.7461 164.648 59.7461V49.7461ZM164.648 10V0C159.126 0 154.648 4.47715 154.648 10H164.648ZM143.336 13.5234H153.336C153.336 8.00059 148.859 3.52344 143.336 3.52344V13.5234ZM143.336 22.1172H133.336C133.336 27.64 137.813 32.1172 143.336 32.1172V22.1172ZM144.281 22.1172V32.1172C149.804 32.1172 154.281 27.64 154.281 22.1172H144.281ZM144.281 13.5234V3.52344C138.758 3.52344 134.281 8.00059 134.281 13.5234H144.281ZM149.824 13.5234H159.824C159.824 8.00059 155.347 3.52344 149.824 3.52344V13.5234ZM149.824 40.8516V50.8516C155.347 50.8516 159.824 46.3744 159.824 40.8516H149.824ZM137.75 40.8516H127.75C127.75 46.3744 132.227 50.8516 137.75 50.8516V40.8516ZM137.75 13.5234V3.52344C132.227 3.52344 127.75 8.00059 127.75 13.5234H137.75ZM143.336 35.3086L133.336 35.3086C133.336 40.8314 137.813 45.3086 143.336 45.3086V35.3086ZM144.281 35.3086V45.3086C149.804 45.3086 154.281 40.8314 154.281 35.3086H144.281ZM144.281 27.4883H154.281C154.281 21.9654 149.804 17.4883 144.281 17.4883V27.4883ZM143.336 27.4883V17.4883C137.813 17.4883 133.336 21.9654 133.336 27.4883H143.336ZM156.527 13.5234H166.527C166.527 8.00059 162.05 3.52344 156.527 3.52344V13.5234ZM156.527 22.1172H146.527C146.527 27.64 151.005 32.1172 156.527 32.1172V22.1172ZM157.645 22.1172V32.1172C163.167 32.1172 167.645 27.64 167.645 22.1172H157.645ZM157.645 13.5234V3.52344C152.122 3.52344 147.645 8.00059 147.645 13.5234H157.645ZM163.23 13.5234H173.23C173.23 8.00059 168.753 3.52344 163.23 3.52344V13.5234ZM163.23 40.8516V50.8516C168.753 50.8516 173.23 46.3744 173.23 40.8516H163.23ZM151.07 40.8516L141.07 40.8516C141.07 46.3744 145.547 50.8516 151.07 50.8516V40.8516ZM151.07 13.5234V3.52344C145.547 3.52344 141.07 8.00059 141.07 13.5234H151.07ZM156.527 35.3086H146.527C146.527 40.8314 151.005 45.3086 156.527 45.3086V35.3086ZM157.645 35.3086V45.3086C163.167 45.3086 167.645 40.8314 167.645 35.3086H157.645ZM157.645 27.4883H167.645C167.645 21.9654 163.167 17.4883 157.645 17.4883V27.4883ZM156.527 27.4883V17.4883C151.005 17.4883 146.527 21.9654 146.527 27.4883H156.527ZM171.438 10H161.438V24.1797H171.438H181.438V10L171.438 10ZM171.438 24.1797V34.1797H174.574V24.1797V14.1797H171.438V24.1797ZM174.574 24.1797H164.574V29.8516H174.574H184.574V24.1797H174.574ZM174.574 29.8516V19.8516H171.438V29.8516V39.8516H174.574V29.8516ZM171.438 29.8516H161.438V49.7461H171.438H181.438V29.8516H171.438ZM171.438 49.7461V39.7461H164.648V49.7461V59.7461H171.438V49.7461ZM164.648 49.7461H174.648V10L164.648 10H154.648V49.7461H164.648ZM164.648 10V20H171.438V10V0L164.648 0V10ZM143.336 13.5234H133.336V22.1172H143.336H153.336V13.5234H143.336ZM143.336 22.1172V32.1172H144.281V22.1172V12.1172H143.336V22.1172ZM144.281 22.1172H154.281V13.5234H144.281H134.281V22.1172H144.281ZM144.281 13.5234V23.5234H149.824V13.5234V3.52344H144.281V13.5234ZM149.824 13.5234H139.824V40.8516L149.824 40.8516H159.824V13.5234H149.824ZM149.824 40.8516V30.8516L137.75 30.8516V40.8516V50.8516L149.824 50.8516V40.8516ZM137.75 40.8516L147.75 40.8516V13.5234H137.75H127.75V40.8516H137.75ZM137.75 13.5234V23.5234H143.336V13.5234V3.52344H137.75V13.5234ZM143.336 35.3086V45.3086H144.281V35.3086V25.3086H143.336V35.3086ZM144.281 35.3086H154.281V27.4883H144.281H134.281V35.3086L144.281 35.3086ZM144.281 27.4883V17.4883H143.336V27.4883V37.4883H144.281V27.4883ZM143.336 27.4883H133.336V35.3086L143.336 35.3086H153.336V27.4883H143.336ZM156.527 13.5234H146.527V22.1172H156.527H166.527V13.5234H156.527ZM156.527 22.1172V32.1172H157.645V22.1172V12.1172H156.527V22.1172ZM157.645 22.1172H167.645V13.5234H157.645H147.645V22.1172H157.645ZM157.645 13.5234V23.5234H163.23V13.5234V3.52344H157.645V13.5234ZM163.23 13.5234H153.23V40.8516H163.23H173.23V13.5234H163.23ZM163.23 40.8516V30.8516H151.07V40.8516V50.8516H163.23V40.8516ZM151.07 40.8516H161.07V13.5234H151.07H141.07V40.8516L151.07 40.8516ZM151.07 13.5234V23.5234H156.527V13.5234V3.52344H151.07V13.5234ZM156.527 35.3086V45.3086H157.645V35.3086V25.3086H156.527V35.3086ZM157.645 35.3086H167.645V27.4883H157.645H147.645V35.3086H157.645ZM157.645 27.4883V17.4883H156.527V27.4883V37.4883H157.645V27.4883ZM156.527 27.4883H146.527V35.3086H156.527H166.527V27.4883H156.527ZM212.086 31.1406H222.086C222.086 25.6178 217.609 21.1406 212.086 21.1406V31.1406ZM212.086 36.6406V46.6406C217.609 46.6406 222.086 42.1635 222.086 36.6406H212.086ZM175.82 36.6406H165.82C165.82 42.1635 170.297 46.6406 175.82 46.6406V36.6406ZM175.82 31.1406V21.1406C170.297 21.1406 165.82 25.6178 165.82 31.1406H175.82ZM208.777 43.6875H218.777C218.777 38.1647 214.3 33.6875 208.777 33.6875V43.6875ZM208.777 49.1875V59.1875C214.3 59.1875 218.777 54.7103 218.777 49.1875H208.777ZM180.246 49.1875H170.246C170.246 54.7103 174.723 59.1875 180.246 59.1875V49.1875ZM180.246 38.2305V28.2305C174.723 28.2305 170.246 32.7076 170.246 38.2305H180.246ZM187.078 38.2305H197.078C197.078 32.7076 192.601 28.2305 187.078 28.2305V38.2305ZM187.078 43.6875H177.078C177.078 49.2103 181.555 53.6875 187.078 53.6875V43.6875ZM207.875 10.6445H217.875C217.875 5.12168 213.398 0.644531 207.875 0.644531V10.6445ZM207.875 22.418V32.418C213.398 32.418 217.875 27.9408 217.875 22.418H207.875ZM187.035 22.418V12.418C181.512 12.418 177.035 16.8951 177.035 22.418H187.035ZM187.035 24.2227H177.035C177.035 29.7455 181.512 34.2227 187.035 34.2227V24.2227ZM208.52 24.2227H218.52C218.52 18.6998 214.042 14.2227 208.52 14.2227V24.2227ZM208.52 29.3359V39.3359C214.042 39.3359 218.52 34.8588 218.52 29.3359H208.52ZM180.203 29.3359H170.203C170.203 34.8588 174.68 39.3359 180.203 39.3359V29.3359ZM180.203 17.5625V7.5625C174.68 7.5625 170.203 12.0397 170.203 17.5625H180.203ZM201 17.5625V27.5625C206.523 27.5625 211 23.0853 211 17.5625L201 17.5625ZM201 15.9297L211 15.9297C211 10.4068 206.523 5.92969 201 5.92969V15.9297ZM180.16 15.9297H170.16C170.16 21.4525 174.637 25.9297 180.16 25.9297V15.9297ZM180.16 10.6445V0.644531C174.637 0.644531 170.16 5.12168 170.16 10.6445L180.16 10.6445ZM212.086 31.1406H202.086V36.6406H212.086H222.086V31.1406H212.086ZM212.086 36.6406V26.6406L175.82 26.6406V36.6406V46.6406H212.086V36.6406ZM175.82 36.6406H185.82V31.1406H175.82H165.82V36.6406H175.82ZM175.82 31.1406V41.1406H212.086V31.1406V21.1406L175.82 21.1406V31.1406ZM208.777 43.6875H198.777V49.1875H208.777H218.777V43.6875H208.777ZM208.777 49.1875V39.1875H180.246V49.1875V59.1875H208.777V49.1875ZM180.246 49.1875H190.246V38.2305H180.246H170.246V49.1875H180.246ZM180.246 38.2305V48.2305H187.078V38.2305V28.2305H180.246V38.2305ZM187.078 38.2305H177.078V43.6875H187.078H197.078V38.2305H187.078ZM187.078 43.6875V53.6875H208.777V43.6875V33.6875H187.078V43.6875ZM207.875 10.6445H197.875V22.418L207.875 22.418H217.875V10.6445H207.875ZM207.875 22.418V12.418H187.035V22.418V32.418H207.875V22.418ZM187.035 22.418H177.035V24.2227H187.035H197.035V22.418H187.035ZM187.035 24.2227V34.2227H208.52V24.2227V14.2227L187.035 14.2227V24.2227ZM208.52 24.2227L198.52 24.2227V29.3359H208.52H218.52V24.2227H208.52ZM208.52 29.3359V19.3359L180.203 19.3359V29.3359V39.3359H208.52V29.3359ZM180.203 29.3359H190.203V17.5625H180.203H170.203V29.3359H180.203ZM180.203 17.5625V27.5625H201V17.5625V7.5625H180.203V17.5625ZM201 17.5625L211 17.5625V15.9297L201 15.9297H191V17.5625H201ZM201 15.9297V5.92969H180.16V15.9297V25.9297H201V15.9297ZM180.16 15.9297H190.16V10.6445H180.16L170.16 10.6445V15.9297H180.16ZM180.16 10.6445V20.6445L207.875 20.6445V10.6445V0.644531L180.16 0.644531V10.6445Z" fill="white" mask="url(#path-1-outside-1_6524_1784)"/>
</g>
<defs>
<filter id="filter0_d_6524_1784" x="0" y="0" width="226.086" height="67.875" filterUnits="userSpaceOnUse" color-interpolation-filters="sRGB">
<feFlood flood-opacity="0" result="BackgroundImageFix"/>
<feColorMatrix in="SourceAlpha" type="matrix" values="0 0 0 0 0 0 0 0 0 0 0 0 0 0 0 0 0 0 127 0" result="hardAlpha"/>
<feOffset dy="4"/>
<feGaussianBlur stdDeviation="2"/>
<feComposite in2="hardAlpha" operator="out"/>
<feColorMatrix type="matrix" values="0 0 0 0 0 0 0 0 0 0 0 0 0 0 0 0 0 0 0.07 0"/>
<feBlend mode="normal" in2="BackgroundImageFix" result="effect1_dropShadow_6524_1784"/>
<feBlend mode="normal" in="SourceGraphic" in2="effect1_dropShadow_6524_1784" result="shape"/>
</filter>
</defs>
</svg>
