<svg width="312" height="68" viewBox="0 0 312 68" fill="none" xmlns="http://www.w3.org/2000/svg">
<g filter="url(#filter0_d_6526_5730)">
<mask id="path-1-outside-1_6526_5730" maskUnits="userSpaceOnUse" x="3.75391" y="-0.378906" width="304" height="61" fill="black">
<rect fill="white" x="3.75391" y="-0.378906" width="304" height="61"/>
<path d="M34.8398 13.0508C34.8398 24.6953 30.4141 32.1289 16.6641 36.4258L14 31.1406C18.8125 29.6582 21.9922 27.918 24.0977 25.8555L15.1172 26.6289L14.1719 21.2578L27.0625 20.957C27.2773 20.1836 27.4277 19.3887 27.5352 18.5508H16.1914V13.0508H34.8398ZM47.4727 10.2148V39.3906H40.5977V27.3164H34.4961V21.7734H40.5977V10.2148L47.4727 10.2148ZM48.418 43.8164V49.3164H20.7031V36.5977H27.6211V43.8164H48.418ZM85.2422 10.1289V50.0039H78.2812V10.1289H85.2422ZM73.5547 13.4805V19.0234H60.8789V35.0078C67.5176 34.9863 71.4922 34.8359 75.918 34.0195L76.4766 39.6055C71.4922 40.6367 66.5078 40.8086 57.5703 40.7656H54.0039V13.4805H73.5547ZM105.395 16.7031C105.395 21.9883 107.328 27.4023 113.945 29.7656L110.121 35.0938C106.125 33.5684 103.504 30.7754 101.957 27.2734C100.238 30.9902 97.4023 33.9121 93.0625 35.4805L89.3242 30.1094C96.2852 27.7461 98.3906 22.2461 98.3906 16.7031V12.4492H105.395V16.7031ZM123.527 10.2148V39.5195H116.652V27.7891H110.766V22.2891H116.652V20.3984H110.766V14.8984H116.652V10.2148H123.527ZM124.344 43.8164V49.3164H96.5859V36.8984H103.59V43.8164H124.344ZM148.492 12.1484C151.543 12.1484 154.25 13.2441 156.184 15.0703H164.262V10.1289H171.137V33.2891H164.262V29.1211H156.098C154.164 30.9043 151.5 31.9785 148.492 31.957C142.434 32 137.707 27.7461 137.75 22.0742C137.707 16.3164 142.434 12.1484 148.492 12.1484ZM148.492 17.9922C146 17.9922 144.238 19.2812 144.281 22.0742C144.238 24.6953 146 26.1562 148.492 26.1562C150.898 26.1562 152.574 24.6953 152.617 22.0742C152.574 19.2812 150.898 17.9922 148.492 17.9922ZM157.301 34.0195C165.852 33.9766 171.223 36.9414 171.223 41.9687C171.223 46.9961 165.852 49.9609 157.301 49.9609C148.836 49.9609 143.465 46.9961 143.465 41.9687C143.465 36.9414 148.836 33.9766 157.301 34.0195ZM157.301 39.2187C152.574 39.2187 150.168 40.0352 150.211 41.9687C150.168 43.8594 152.574 44.6328 157.301 44.6328C162.199 44.6328 164.477 43.8594 164.477 41.9687C164.477 40.0352 162.199 39.2187 157.301 39.2187ZM159.02 23.707H164.262V20.4844H159.02C159.105 21 159.148 21.5371 159.148 22.0742C159.148 22.6328 159.105 23.1699 159.02 23.707ZM211.828 15.2422V20.7852H207.145V23.9219H211.828V29.4648H207.145V35.1367H200.227V10.1289H207.145V15.2422H211.828ZM193.867 35.5664C202.16 35.5664 207.531 38.2734 207.574 42.7852C207.531 47.2109 202.16 49.9609 193.867 49.9609C185.402 49.9609 180.117 47.2109 180.16 42.7852C180.117 38.2734 185.402 35.5664 193.867 35.5664ZM193.867 40.7656C189.184 40.7656 186.992 41.2383 186.992 42.7852C186.992 44.2031 189.184 44.8906 193.867 44.8906C198.422 44.8906 200.613 44.2031 200.613 42.7852C200.613 41.2383 198.422 40.7656 193.867 40.7656ZM198.809 13.4805V18.8086H175.305V13.4805H183.598V10H190.516V13.4805H198.809ZM187.035 19.7109C192.836 19.7109 196.961 22.7187 196.961 26.9297C196.961 31.2266 192.836 34.1055 187.035 34.1484C181.148 34.1055 177.023 31.2266 177.023 26.9297C177.023 22.7187 181.148 19.7109 187.035 19.7109ZM187.035 24.6953C185.059 24.6953 183.77 25.3398 183.77 26.9297C183.77 28.4766 185.059 29.1211 187.035 29.1211C189.055 29.1211 190.43 28.4766 190.43 26.9297C190.43 25.3398 189.055 24.6953 187.035 24.6953ZM246.934 10.1289V50.0039H239.973V10.1289H246.934ZM225.105 12.793C231.164 12.75 235.719 18.3359 235.719 27.1016C235.719 35.9961 231.164 41.5391 225.105 41.5391C218.918 41.5391 214.32 35.9961 214.32 27.1016C214.32 18.3359 218.918 12.75 225.105 12.793ZM225.105 19.0234C222.57 18.9805 220.98 21.6016 220.98 27.1016C220.98 32.6875 222.57 35.2227 225.105 35.2227C227.469 35.2227 229.102 32.6875 229.102 27.1016C229.102 21.6016 227.469 18.9805 225.105 19.0234ZM293.297 11.7617V15.6719C293.297 19.6035 293.297 23.5137 292.352 28.7344H297.164V34.2344H260.984V28.7344H285.348C285.605 27.4023 285.799 26.1562 285.949 24.9531L264.895 25.6406L264.164 20.1836L286.379 19.8398L286.422 17.2187H265.324V11.7617H293.297ZM293.77 43.8164V49.3164H264.938V36.4687H271.812V43.8164H293.77Z"/>
</mask>
<path d="M34.8398 13.0508C34.8398 24.6953 30.4141 32.1289 16.6641 36.4258L14 31.1406C18.8125 29.6582 21.9922 27.918 24.0977 25.8555L15.1172 26.6289L14.1719 21.2578L27.0625 20.957C27.2773 20.1836 27.4277 19.3887 27.5352 18.5508H16.1914V13.0508H34.8398ZM47.4727 10.2148V39.3906H40.5977V27.3164H34.4961V21.7734H40.5977V10.2148L47.4727 10.2148ZM48.418 43.8164V49.3164H20.7031V36.5977H27.6211V43.8164H48.418ZM85.2422 10.1289V50.0039H78.2812V10.1289H85.2422ZM73.5547 13.4805V19.0234H60.8789V35.0078C67.5176 34.9863 71.4922 34.8359 75.918 34.0195L76.4766 39.6055C71.4922 40.6367 66.5078 40.8086 57.5703 40.7656H54.0039V13.4805H73.5547ZM105.395 16.7031C105.395 21.9883 107.328 27.4023 113.945 29.7656L110.121 35.0938C106.125 33.5684 103.504 30.7754 101.957 27.2734C100.238 30.9902 97.4023 33.9121 93.0625 35.4805L89.3242 30.1094C96.2852 27.7461 98.3906 22.2461 98.3906 16.7031V12.4492H105.395V16.7031ZM123.527 10.2148V39.5195H116.652V27.7891H110.766V22.2891H116.652V20.3984H110.766V14.8984H116.652V10.2148H123.527ZM124.344 43.8164V49.3164H96.5859V36.8984H103.59V43.8164H124.344ZM148.492 12.1484C151.543 12.1484 154.25 13.2441 156.184 15.0703H164.262V10.1289H171.137V33.2891H164.262V29.1211H156.098C154.164 30.9043 151.5 31.9785 148.492 31.957C142.434 32 137.707 27.7461 137.75 22.0742C137.707 16.3164 142.434 12.1484 148.492 12.1484ZM148.492 17.9922C146 17.9922 144.238 19.2812 144.281 22.0742C144.238 24.6953 146 26.1562 148.492 26.1562C150.898 26.1562 152.574 24.6953 152.617 22.0742C152.574 19.2812 150.898 17.9922 148.492 17.9922ZM157.301 34.0195C165.852 33.9766 171.223 36.9414 171.223 41.9687C171.223 46.9961 165.852 49.9609 157.301 49.9609C148.836 49.9609 143.465 46.9961 143.465 41.9687C143.465 36.9414 148.836 33.9766 157.301 34.0195ZM157.301 39.2187C152.574 39.2187 150.168 40.0352 150.211 41.9687C150.168 43.8594 152.574 44.6328 157.301 44.6328C162.199 44.6328 164.477 43.8594 164.477 41.9687C164.477 40.0352 162.199 39.2187 157.301 39.2187ZM159.02 23.707H164.262V20.4844H159.02C159.105 21 159.148 21.5371 159.148 22.0742C159.148 22.6328 159.105 23.1699 159.02 23.707ZM211.828 15.2422V20.7852H207.145V23.9219H211.828V29.4648H207.145V35.1367H200.227V10.1289H207.145V15.2422H211.828ZM193.867 35.5664C202.16 35.5664 207.531 38.2734 207.574 42.7852C207.531 47.2109 202.16 49.9609 193.867 49.9609C185.402 49.9609 180.117 47.2109 180.16 42.7852C180.117 38.2734 185.402 35.5664 193.867 35.5664ZM193.867 40.7656C189.184 40.7656 186.992 41.2383 186.992 42.7852C186.992 44.2031 189.184 44.8906 193.867 44.8906C198.422 44.8906 200.613 44.2031 200.613 42.7852C200.613 41.2383 198.422 40.7656 193.867 40.7656ZM198.809 13.4805V18.8086H175.305V13.4805H183.598V10H190.516V13.4805H198.809ZM187.035 19.7109C192.836 19.7109 196.961 22.7187 196.961 26.9297C196.961 31.2266 192.836 34.1055 187.035 34.1484C181.148 34.1055 177.023 31.2266 177.023 26.9297C177.023 22.7187 181.148 19.7109 187.035 19.7109ZM187.035 24.6953C185.059 24.6953 183.77 25.3398 183.77 26.9297C183.77 28.4766 185.059 29.1211 187.035 29.1211C189.055 29.1211 190.43 28.4766 190.43 26.9297C190.43 25.3398 189.055 24.6953 187.035 24.6953ZM246.934 10.1289V50.0039H239.973V10.1289H246.934ZM225.105 12.793C231.164 12.75 235.719 18.3359 235.719 27.1016C235.719 35.9961 231.164 41.5391 225.105 41.5391C218.918 41.5391 214.32 35.9961 214.32 27.1016C214.32 18.3359 218.918 12.75 225.105 12.793ZM225.105 19.0234C222.57 18.9805 220.98 21.6016 220.98 27.1016C220.98 32.6875 222.57 35.2227 225.105 35.2227C227.469 35.2227 229.102 32.6875 229.102 27.1016C229.102 21.6016 227.469 18.9805 225.105 19.0234ZM293.297 11.7617V15.6719C293.297 19.6035 293.297 23.5137 292.352 28.7344H297.164V34.2344H260.984V28.7344H285.348C285.605 27.4023 285.799 26.1562 285.949 24.9531L264.895 25.6406L264.164 20.1836L286.379 19.8398L286.422 17.2187H265.324V11.7617H293.297ZM293.77 43.8164V49.3164H264.938V36.4687H271.812V43.8164H293.77Z" fill="#11DCA9"/>
<path d="M34.8398 13.0508H44.8398C44.8398 7.52793 40.3627 3.05078 34.8398 3.05078V13.0508ZM16.6641 36.4258L7.73436 40.9269C9.93664 45.296 14.9768 47.43 19.6468 45.9706L16.6641 36.4258ZM14 31.1406L11.0561 21.5838C8.24198 22.4506 5.95293 24.5137 4.79933 27.223C3.64573 29.9323 3.74486 33.0123 5.07029 35.6418L14 31.1406ZM24.0977 25.8555L31.0955 32.9991C34.1103 30.0457 34.9465 25.5175 33.1852 21.6822C31.4239 17.8469 27.4444 15.5302 23.2396 15.8924L24.0977 25.8555ZM15.1172 26.6289L5.26856 28.3623C6.16663 33.4649 10.8133 37.0366 15.9753 36.592L15.1172 26.6289ZM14.1719 21.2578L13.9386 11.2605C11.0248 11.3285 8.28564 12.6644 6.43798 14.9185C4.59032 17.1726 3.81804 20.1207 4.32325 22.9912L14.1719 21.2578ZM27.0625 20.957L27.2958 30.9543C31.7002 30.8515 35.5185 27.8784 36.6977 23.6335L27.0625 20.957ZM27.5352 18.5508L37.454 19.8224C37.8194 16.9719 36.9409 14.102 35.0424 11.9446C33.1439 9.78716 30.409 8.55078 27.5352 8.55078V18.5508ZM16.1914 18.5508H6.19141C6.19141 24.0736 10.6686 28.5508 16.1914 28.5508V18.5508ZM16.1914 13.0508V3.05078C10.6686 3.05078 6.19141 7.52793 6.19141 13.0508H16.1914ZM47.4727 10.2148H57.4727C57.4727 4.692 52.9955 0.214844 47.4727 0.214844V10.2148ZM47.4727 39.3906V49.3906C52.9955 49.3906 57.4727 44.9135 57.4727 39.3906H47.4727ZM40.5977 39.3906H30.5977C30.5977 44.9135 35.0748 49.3906 40.5977 49.3906V39.3906ZM40.5977 27.3164H50.5977C50.5977 21.7936 46.1205 17.3164 40.5977 17.3164V27.3164ZM34.4961 27.3164H24.4961C24.4961 32.8393 28.9732 37.3164 34.4961 37.3164V27.3164ZM34.4961 21.7734V11.7734C28.9732 11.7734 24.4961 16.2506 24.4961 21.7734H34.4961ZM40.5977 21.7734V31.7734C46.1205 31.7734 50.5977 27.2963 50.5977 21.7734H40.5977ZM40.5977 10.2148V0.214844C35.0748 0.214844 30.5977 4.692 30.5977 10.2148H40.5977ZM48.418 43.8164H58.418C58.418 38.2936 53.9408 33.8164 48.418 33.8164V43.8164ZM48.418 49.3164V59.3164C53.9408 59.3164 58.418 54.8393 58.418 49.3164H48.418ZM20.7031 49.3164H10.7031C10.7031 54.8393 15.1803 59.3164 20.7031 59.3164V49.3164ZM20.7031 36.5977V26.5977C15.1803 26.5977 10.7031 31.0748 10.7031 36.5977H20.7031ZM27.6211 36.5977H37.6211C37.6211 31.0748 33.1439 26.5977 27.6211 26.5977V36.5977ZM27.6211 43.8164H17.6211C17.6211 49.3393 22.0982 53.8164 27.6211 53.8164V43.8164ZM34.8398 13.0508H24.8398C24.8398 17.664 23.9599 20.0592 22.8452 21.5786C21.7153 23.1187 19.35 25.1095 13.6813 26.881L16.6641 36.4258L19.6468 45.9706C27.7281 43.4452 34.4507 39.5707 38.9712 33.4088C43.5069 27.226 44.8398 20.0821 44.8398 13.0508H34.8398ZM16.6641 36.4258L25.5938 31.9246L22.9297 26.6395L14 31.1406L5.07029 35.6418L7.73436 40.9269L16.6641 36.4258ZM14 31.1406L16.9439 40.6975C22.5536 38.9695 27.409 36.6103 31.0955 32.9991L24.0977 25.8555L17.0999 18.7119C16.5754 19.2256 15.0714 20.3469 11.0561 21.5838L14 31.1406ZM24.0977 25.8555L23.2396 15.8924L14.2591 16.6658L15.1172 26.6289L15.9753 36.592L24.9557 35.8186L24.0977 25.8555ZM15.1172 26.6289L24.9658 24.8955L24.0205 19.5245L14.1719 21.2578L4.32325 22.9912L5.26856 28.3623L15.1172 26.6289ZM14.1719 21.2578L14.4051 31.2551L27.2958 30.9543L27.0625 20.957L26.8292 10.9598L13.9386 11.2605L14.1719 21.2578ZM27.0625 20.957L36.6977 23.6335C37.0644 22.3134 37.2982 21.0374 37.454 19.8224L27.5352 18.5508L17.6163 17.2791C17.5573 17.7399 17.4903 18.0538 17.4273 18.2806L27.0625 20.957ZM27.5352 18.5508V8.55078H16.1914V18.5508V28.5508H27.5352V18.5508ZM16.1914 18.5508H26.1914V13.0508H16.1914H6.19141V18.5508H16.1914ZM16.1914 13.0508V23.0508H34.8398V13.0508V3.05078L16.1914 3.05078V13.0508ZM47.4727 10.2148L37.4727 10.2148V39.3906H47.4727H57.4727V10.2148H47.4727ZM47.4727 39.3906V29.3906H40.5977V39.3906V49.3906H47.4727V39.3906ZM40.5977 39.3906H50.5977V27.3164H40.5977H30.5977V39.3906H40.5977ZM40.5977 27.3164V17.3164H34.4961V27.3164V37.3164H40.5977V27.3164ZM34.4961 27.3164H44.4961V21.7734H34.4961H24.4961V27.3164H34.4961ZM34.4961 21.7734V31.7734H40.5977V21.7734V11.7734H34.4961V21.7734ZM40.5977 21.7734H50.5977V10.2148L40.5977 10.2148H30.5977V21.7734H40.5977ZM40.5977 10.2148V20.2148H47.4727V10.2148V0.214844H40.5977V10.2148ZM48.418 43.8164H38.418V49.3164H48.418H58.418V43.8164H48.418ZM48.418 49.3164V39.3164H20.7031V49.3164V59.3164H48.418V49.3164ZM20.7031 49.3164H30.7031V36.5977H20.7031H10.7031L10.7031 49.3164H20.7031ZM20.7031 36.5977V46.5977H27.6211V36.5977V26.5977H20.7031V36.5977ZM27.6211 36.5977H17.6211V43.8164H27.6211H37.6211V36.5977H27.6211ZM27.6211 43.8164V53.8164H48.418V43.8164V33.8164H27.6211V43.8164ZM85.2422 10.1289H95.2422C95.2422 4.60606 90.765 0.128906 85.2422 0.128906V10.1289ZM85.2422 50.0039V60.0039C90.765 60.0039 95.2422 55.5268 95.2422 50.0039H85.2422ZM78.2812 50.0039H68.2812C68.2812 55.5268 72.7584 60.0039 78.2812 60.0039V50.0039ZM78.2812 10.1289V0.128906C72.7584 0.128906 68.2812 4.60606 68.2812 10.1289H78.2812ZM73.5547 13.4805L83.5547 13.4805C83.5547 7.95762 79.0775 3.48047 73.5547 3.48047V13.4805ZM73.5547 19.0234V29.0234C79.0775 29.0234 83.5547 24.5463 83.5547 19.0234L73.5547 19.0234ZM60.8789 19.0234V9.02344C55.3561 9.02344 50.8789 13.5006 50.8789 19.0234H60.8789ZM60.8789 35.0078H50.8789C50.8789 37.6656 51.9369 40.214 53.8193 42.0903C55.7017 43.9666 58.2535 45.0164 60.9113 45.0078L60.8789 35.0078ZM75.918 34.0195L85.8683 33.0245C85.5901 30.2425 84.16 27.7041 81.9248 26.0247C79.6896 24.3453 76.8534 23.6783 74.1039 24.1854L75.918 34.0195ZM76.4766 39.6055L78.5026 49.3981C83.516 48.3608 86.9364 43.7046 86.4269 38.6104L76.4766 39.6055ZM57.5703 40.7656L57.6184 30.7657C57.6024 30.7657 57.5863 30.7656 57.5703 30.7656V40.7656ZM54.0039 40.7656H44.0039C44.0039 46.2885 48.4811 50.7656 54.0039 50.7656V40.7656ZM54.0039 13.4805V3.48047C48.4811 3.48047 44.0039 7.95762 44.0039 13.4805H54.0039ZM85.2422 10.1289H75.2422V50.0039H85.2422H95.2422V10.1289H85.2422ZM85.2422 50.0039V40.0039H78.2812V50.0039V60.0039H85.2422V50.0039ZM78.2812 50.0039H88.2812V10.1289H78.2812H68.2812V50.0039H78.2812ZM78.2812 10.1289V20.1289H85.2422V10.1289V0.128906L78.2812 0.128906V10.1289ZM73.5547 13.4805H63.5547V19.0234H73.5547L83.5547 19.0234V13.4805L73.5547 13.4805ZM73.5547 19.0234V9.02344H60.8789V19.0234V29.0234H73.5547V19.0234ZM60.8789 19.0234H50.8789V35.0078H60.8789H70.8789V19.0234H60.8789ZM60.8789 35.0078L60.9113 45.0078C67.6246 44.986 72.3638 44.8439 77.732 43.8536L75.918 34.0195L74.1039 24.1854C70.6205 24.828 67.4106 24.9866 60.8465 25.0079L60.8789 35.0078ZM75.918 34.0195L65.9676 35.0146L66.5262 40.6005L76.4766 39.6055L86.4269 38.6104L85.8683 33.0245L75.918 34.0195ZM76.4766 39.6055L74.4505 29.8129C70.6039 30.6087 66.5709 30.8088 57.6184 30.7657L57.5703 40.7656L57.5222 50.7655C66.4447 50.8084 72.3805 50.6647 78.5026 49.3981L76.4766 39.6055ZM57.5703 40.7656V30.7656H54.0039V40.7656V50.7656H57.5703V40.7656ZM54.0039 40.7656H64.0039V13.4805H54.0039H44.0039V40.7656H54.0039ZM54.0039 13.4805V23.4805H73.5547V13.4805V3.48047L54.0039 3.48047V13.4805ZM113.945 29.7656L122.069 35.5966C123.9 33.0456 124.427 29.7828 123.491 26.7854C122.555 23.7881 120.266 21.4043 117.309 20.3482L113.945 29.7656ZM110.121 35.0938L106.555 44.4362C110.797 46.0555 115.598 44.6135 118.245 40.9247L110.121 35.0938ZM101.957 27.2734L111.104 23.2329C109.517 19.6389 105.972 17.3076 102.043 17.2738C98.1142 17.24 94.5296 19.5101 92.8805 23.0762L101.957 27.2734ZM93.0625 35.4805L84.8548 41.193C87.4415 44.9096 92.2027 46.4242 96.4612 44.8852L93.0625 35.4805ZM89.3242 30.1094L86.1094 20.6402C83.134 21.6504 80.8064 24.0003 79.8248 26.9852C78.8431 29.9702 79.3215 33.2429 81.1165 35.8219L89.3242 30.1094ZM98.3906 12.4492V2.44922C92.8678 2.44922 88.3906 6.92637 88.3906 12.4492H98.3906ZM105.395 12.4492L115.395 12.4492C115.395 6.92637 110.917 2.44922 105.395 2.44922V12.4492ZM123.527 10.2148H133.527C133.527 4.692 129.05 0.214844 123.527 0.214844V10.2148ZM123.527 39.5195V49.5195C129.05 49.5195 133.527 45.0424 133.527 39.5195H123.527ZM116.652 39.5195H106.652C106.652 45.0424 111.129 49.5195 116.652 49.5195V39.5195ZM116.652 27.7891H126.652C126.652 22.2662 122.175 17.7891 116.652 17.7891V27.7891ZM110.766 27.7891H100.766C100.766 33.3119 105.243 37.7891 110.766 37.7891V27.7891ZM110.766 22.2891V12.2891C105.243 12.2891 100.766 16.7662 100.766 22.2891H110.766ZM116.652 22.2891V32.2891C122.175 32.2891 126.652 27.8119 126.652 22.2891H116.652ZM116.652 20.3984H126.652C126.652 14.8756 122.175 10.3984 116.652 10.3984V20.3984ZM110.766 20.3984H100.766C100.766 25.9213 105.243 30.3984 110.766 30.3984V20.3984ZM110.766 14.8984V4.89844C105.243 4.89844 100.766 9.37559 100.766 14.8984H110.766ZM116.652 14.8984V24.8984C122.175 24.8984 126.652 20.4213 126.652 14.8984H116.652ZM116.652 10.2148V0.214844C111.129 0.214844 106.652 4.692 106.652 10.2148L116.652 10.2148ZM124.344 43.8164H134.344C134.344 38.2936 129.867 33.8164 124.344 33.8164V43.8164ZM124.344 49.3164V59.3164C129.867 59.3164 134.344 54.8393 134.344 49.3164H124.344ZM96.5859 49.3164H86.5859C86.5859 54.8393 91.0631 59.3164 96.5859 59.3164V49.3164ZM96.5859 36.8984V26.8984C91.0631 26.8984 86.5859 31.3756 86.5859 36.8984H96.5859ZM103.59 36.8984H113.59C113.59 31.3756 109.113 26.8984 103.59 26.8984V36.8984ZM103.59 43.8164H93.5898C93.5898 49.3393 98.067 53.8164 103.59 53.8164V43.8164ZM105.395 16.7031H95.3945C95.3945 20.4745 96.0723 25.0027 98.4911 29.2653C101.028 33.7367 105.1 37.2252 110.582 39.183L113.945 29.7656L117.309 20.3482C116.663 20.1178 116.344 19.8921 116.203 19.7749C116.065 19.6608 115.972 19.5467 115.886 19.3948C115.684 19.0384 115.395 18.2169 115.395 16.7031H105.395ZM113.945 29.7656L105.821 23.9347L101.997 29.2628L110.121 35.0938L118.245 40.9247L122.069 35.5966L113.945 29.7656ZM110.121 35.0938L113.687 25.7513C112.417 25.2665 111.678 24.5313 111.104 23.2329L101.957 27.2734L92.8097 31.314C95.3299 37.0195 99.8327 41.8703 106.555 44.4362L110.121 35.0938ZM101.957 27.2734L92.8805 23.0762C92.1785 24.5942 91.2669 25.4964 89.6638 26.0758L93.0625 35.4805L96.4612 44.8852C103.538 42.3278 108.298 37.3862 111.034 31.4707L101.957 27.2734ZM93.0625 35.4805L101.27 29.7679L97.5319 24.3968L89.3242 30.1094L81.1165 35.8219L84.8548 41.193L93.0625 35.4805ZM89.3242 30.1094L92.5391 39.5785C98.1362 37.6783 102.387 34.2381 105.077 29.6859C107.65 25.3313 108.391 20.6562 108.391 16.7031H98.3906H88.3906C88.3906 18.293 88.0783 19.1394 87.8585 19.5113C87.7613 19.6758 87.6444 19.8184 87.4567 19.9675C87.2625 20.1219 86.8643 20.3839 86.1094 20.6402L89.3242 30.1094ZM98.3906 16.7031H108.391V12.4492H98.3906H88.3906V16.7031H98.3906ZM98.3906 12.4492V22.4492H105.395V12.4492V2.44922H98.3906V12.4492ZM105.395 12.4492H95.3945V16.7031H105.395H115.395V12.4492L105.395 12.4492ZM123.527 10.2148H113.527V39.5195H123.527H133.527V10.2148H123.527ZM123.527 39.5195V29.5195H116.652V39.5195V49.5195H123.527V39.5195ZM116.652 39.5195H126.652V27.7891H116.652H106.652V39.5195H116.652ZM116.652 27.7891V17.7891H110.766V27.7891V37.7891H116.652V27.7891ZM110.766 27.7891H120.766V22.2891H110.766H100.766V27.7891H110.766ZM110.766 22.2891V32.2891H116.652V22.2891V12.2891H110.766V22.2891ZM116.652 22.2891H126.652V20.3984H116.652H106.652V22.2891H116.652ZM116.652 20.3984V10.3984H110.766V20.3984V30.3984H116.652V20.3984ZM110.766 20.3984H120.766V14.8984H110.766H100.766V20.3984H110.766ZM110.766 14.8984V24.8984H116.652V14.8984V4.89844H110.766V14.8984ZM116.652 14.8984H126.652V10.2148H116.652L106.652 10.2148V14.8984H116.652ZM116.652 10.2148V20.2148H123.527V10.2148V0.214844L116.652 0.214844V10.2148ZM124.344 43.8164H114.344V49.3164H124.344H134.344V43.8164H124.344ZM124.344 49.3164V39.3164H96.5859V49.3164V59.3164H124.344V49.3164ZM96.5859 49.3164H106.586V36.8984H96.5859H86.5859V49.3164H96.5859ZM96.5859 36.8984V46.8984H103.59V36.8984V26.8984H96.5859V36.8984ZM103.59 36.8984H93.5898V43.8164H103.59H113.59V36.8984H103.59ZM103.59 43.8164V53.8164H124.344V43.8164V33.8164H103.59V43.8164ZM156.184 15.0703L149.317 22.3404C151.174 24.0936 153.63 25.0703 156.184 25.0703V15.0703ZM164.262 15.0703V25.0703C169.785 25.0703 174.262 20.5932 174.262 15.0703H164.262ZM164.262 10.1289V0.128906C158.739 0.128906 154.262 4.60606 154.262 10.1289H164.262ZM171.137 10.1289L181.137 10.1289C181.137 4.60606 176.66 0.128906 171.137 0.128906V10.1289ZM171.137 33.2891V43.2891C176.66 43.2891 181.137 38.8119 181.137 33.2891H171.137ZM164.262 33.2891H154.262C154.262 38.8119 158.739 43.2891 164.262 43.2891V33.2891ZM164.262 29.1211H174.262C174.262 23.5982 169.785 19.1211 164.262 19.1211V29.1211ZM156.098 29.1211V19.1211C153.585 19.1211 151.165 20.0667 149.318 21.7699L156.098 29.1211ZM148.492 31.957L148.564 21.9573C148.516 21.9569 148.469 21.9569 148.421 21.9573L148.492 31.957ZM137.75 22.0742L147.75 22.15C147.75 22.0998 147.75 22.0497 147.75 21.9996L137.75 22.0742ZM144.281 22.0742L154.28 22.2381C154.282 22.1322 154.282 22.0263 154.28 21.9204L144.281 22.0742ZM152.617 22.0742L162.616 22.2381C162.618 22.1322 162.618 22.0263 162.616 21.9204L152.617 22.0742ZM157.301 34.0195L157.25 44.0194C157.284 44.0196 157.317 44.0196 157.351 44.0194L157.301 34.0195ZM150.211 41.9687L160.208 42.196C160.212 42.0462 160.212 41.8964 160.208 41.7466L150.211 41.9687ZM159.02 23.707L149.145 22.1271C148.682 25.0185 149.51 27.9674 151.41 30.1955C153.31 32.4236 156.091 33.707 159.02 33.707V23.707ZM164.262 23.707V33.707C169.785 33.707 174.262 29.2299 174.262 23.707H164.262ZM164.262 20.4844H174.262C174.262 14.9615 169.785 10.4844 164.262 10.4844V20.4844ZM159.02 20.4844V10.4844C156.08 10.4844 153.289 11.7777 151.389 14.0206C149.489 16.2635 148.672 19.2288 149.156 22.1284L159.02 20.4844ZM148.492 12.1484V22.1484C149.131 22.1484 149.34 22.362 149.317 22.3404L156.184 15.0703L163.05 7.80018C159.16 4.12623 153.955 2.14844 148.492 2.14844V12.1484ZM156.184 15.0703V25.0703H164.262V15.0703V5.07031H156.184V15.0703ZM164.262 15.0703H174.262V10.1289L164.262 10.1289H154.262V15.0703H164.262ZM164.262 10.1289V20.1289H171.137V10.1289V0.128906L164.262 0.128906V10.1289ZM171.137 10.1289H161.137V33.2891H171.137H181.137V10.1289L171.137 10.1289ZM171.137 33.2891V23.2891H164.262V33.2891V43.2891H171.137V33.2891ZM164.262 33.2891H174.262V29.1211H164.262H154.262V33.2891H164.262ZM164.262 29.1211V19.1211H156.098V29.1211V39.1211H164.262V29.1211ZM156.098 29.1211L149.318 21.7699C149.3 21.7865 149.248 21.8291 149.139 21.8703C149.035 21.9102 148.849 21.9593 148.564 21.9573L148.492 31.957L148.421 41.9568C153.892 41.9959 159.025 40.0246 162.877 36.4723L156.098 29.1211ZM148.492 31.957L148.421 21.9573C147.759 21.962 147.541 21.7419 147.579 21.7769C147.595 21.7914 147.649 21.8485 147.696 21.954C147.718 22.0041 147.733 22.0526 147.742 22.0944C147.75 22.1365 147.75 22.1573 147.75 22.15L137.75 22.0742L127.75 21.9985C127.659 34.0897 137.802 42.0331 148.563 41.9568L148.492 31.957ZM137.75 22.0742L147.75 21.9996C147.749 21.9578 147.754 22.0258 147.702 22.1442C147.652 22.2556 147.592 22.3222 147.568 22.3441C147.516 22.3916 147.752 22.1484 148.492 22.1484V12.1484V2.14844C137.855 2.14844 127.659 9.91296 127.75 22.1488L137.75 22.0742ZM148.492 17.9922V7.99219C145.651 7.99219 141.892 8.72412 138.749 11.5502C135.403 14.5591 134.227 18.6085 134.282 22.228L144.281 22.0742L154.28 21.9204C154.293 22.7469 153.975 24.7553 152.123 26.4214C150.473 27.9048 148.841 27.9922 148.492 27.9922V17.9922ZM144.281 22.0742L134.283 21.9103C134.222 25.6103 135.498 29.5184 138.634 32.428C141.641 35.2191 145.347 36.1562 148.492 36.1562V26.1562V16.1562C149.145 16.1562 150.724 16.3629 152.239 17.7683C153.88 19.2922 154.298 21.1592 154.28 22.2381L144.281 22.0742ZM148.492 26.1562V36.1562C151.712 36.1562 155.397 35.1493 158.35 32.3281C161.351 29.4597 162.559 25.707 162.616 22.2381L152.617 22.0742L142.619 21.9103C142.632 21.0625 142.981 19.3509 144.532 17.8682C146.035 16.4327 147.678 16.1562 148.492 16.1562V26.1562ZM152.617 22.0742L162.616 21.9204C162.564 18.5111 161.438 14.6135 158.235 11.6482C155.139 8.78177 151.399 7.99219 148.492 7.99219V17.9922V27.9922C147.992 27.9922 146.292 27.8471 144.647 26.3234C142.895 24.7009 142.628 22.8444 142.618 22.228L152.617 22.0742ZM157.301 34.0195L157.351 44.0194C158.924 44.0115 160.158 44.1444 161.071 44.3319C162 44.5228 162.441 44.7379 162.544 44.7966C162.632 44.8462 162.257 44.6543 161.855 44.0339C161.414 43.3521 161.223 42.583 161.223 41.9687H171.223H181.223C181.223 35.162 177.291 30.1603 172.392 27.389C167.898 24.8466 162.477 23.9934 157.251 24.0197L157.301 34.0195ZM171.223 41.9687H161.223C161.223 41.354 161.414 40.5862 161.854 39.9069C162.253 39.2897 162.624 39.1012 162.53 39.1546C162.42 39.217 161.973 39.4351 161.038 39.6306C160.119 39.8226 158.879 39.9609 157.301 39.9609V49.9609V59.9609C162.516 59.9609 167.925 59.0907 172.407 56.5456C177.291 53.7719 181.223 48.7766 181.223 41.9687H171.223ZM157.301 49.9609V39.9609C155.75 39.9609 154.531 39.8236 153.627 39.6335C152.708 39.44 152.269 39.2245 152.164 39.1641C152.073 39.1125 152.442 39.3014 152.838 39.915C153.274 40.5902 153.465 41.3543 153.465 41.9687H143.465L133.465 41.9688C133.465 48.7693 137.389 53.7609 142.253 56.5361C146.723 59.086 152.114 59.9609 157.301 59.9609V49.9609ZM143.465 41.9687H153.465C153.465 42.5826 153.274 43.3481 152.836 44.0258C152.438 44.6426 152.065 44.8348 152.149 44.7871C152.249 44.7305 152.681 44.5181 153.594 44.3291C154.491 44.1435 155.705 44.0116 157.25 44.0194L157.301 34.0195L157.352 24.0197C152.154 23.9933 146.751 24.8511 142.268 27.3984C137.388 30.1713 133.465 35.1693 133.465 41.9688L143.465 41.9687ZM157.301 39.2187V29.2187C154.687 29.2187 151.399 29.4 148.451 30.5071C146.886 31.0951 144.751 32.1868 142.986 34.2824C141.041 36.5925 140.152 39.409 140.213 42.1909L150.211 41.9687L160.208 41.7466C160.249 43.5617 159.644 45.5511 158.285 47.1642C157.108 48.563 155.862 49.0881 155.483 49.2302C155.073 49.3842 154.965 49.3556 155.384 49.3053C155.764 49.2597 156.382 49.2187 157.301 49.2187V39.2187ZM150.211 41.9687L140.214 41.7415C140.149 44.5785 141.082 47.429 143.081 49.7336C144.877 51.8051 147.027 52.8565 148.564 53.4127C151.47 54.4647 154.717 54.6328 157.301 54.6328V44.6328V34.6328C156.367 34.6328 155.732 34.5934 155.333 34.5476C154.893 34.4971 154.98 34.4654 155.371 34.6069C155.72 34.7333 156.982 35.2369 158.191 36.6316C159.603 38.2595 160.251 40.3043 160.208 42.196L150.211 41.9687ZM157.301 44.6328V54.6328C159.933 54.6328 163.218 54.4712 166.143 53.4077C167.711 52.8376 169.854 51.7702 171.637 49.6905C173.596 47.4043 174.477 44.6439 174.477 41.9687H164.477H154.477C154.477 40.2389 155.072 38.2841 156.452 36.6747C157.654 35.2718 158.922 34.7522 159.308 34.6118C159.719 34.4623 159.819 34.4944 159.365 34.5458C158.952 34.5925 158.288 34.6328 157.301 34.6328V44.6328ZM164.477 41.9687H174.477C174.477 39.3445 173.637 36.6163 171.73 34.3259C169.98 32.2231 167.853 31.115 166.255 30.5124C163.288 29.393 159.962 29.2187 157.301 29.2187V39.2187V49.2187C158.274 49.2187 158.92 49.2607 159.314 49.3073C159.748 49.3586 159.626 49.3875 159.196 49.2249C158.78 49.0681 157.529 48.5266 156.358 47.1208C155.032 45.5273 154.477 43.6263 154.477 41.9687H164.477ZM159.02 23.707V33.707H164.262V23.707V13.707H159.02V23.707ZM164.262 23.707H174.262V20.4844H164.262H154.262V23.707H164.262ZM164.262 20.4844V10.4844H159.02V20.4844V30.4844H164.262V20.4844ZM159.02 20.4844L149.156 22.1284C149.151 22.0986 149.149 22.0817 149.149 22.0767C149.148 22.0715 149.148 22.0713 149.148 22.0742H159.148H169.148C169.148 21.0126 169.064 19.9246 168.883 18.8404L159.02 20.4844ZM159.148 22.0742H149.148C149.148 22.0957 149.148 22.1061 149.147 22.1091C149.147 22.112 149.147 22.1169 149.145 22.1271L159.02 23.707L168.894 25.2869C169.064 24.2236 169.148 23.1581 169.148 22.0742H159.148ZM211.828 15.2422H221.828C221.828 9.71934 217.351 5.24219 211.828 5.24219V15.2422ZM211.828 20.7852V30.7852C217.351 30.7852 221.828 26.308 221.828 20.7852H211.828ZM207.145 20.7852V10.7852C201.622 10.7852 197.145 15.2623 197.145 20.7852L207.145 20.7852ZM207.145 23.9219L197.145 23.9219C197.145 29.4447 201.622 33.9219 207.145 33.9219V23.9219ZM211.828 23.9219H221.828C221.828 18.399 217.351 13.9219 211.828 13.9219V23.9219ZM211.828 29.4648V39.4648C217.351 39.4648 221.828 34.9877 221.828 29.4648H211.828ZM207.145 29.4648V19.4648C201.622 19.4648 197.145 23.942 197.145 29.4648H207.145ZM207.145 35.1367V45.1367C212.667 45.1367 217.145 40.6596 217.145 35.1367H207.145ZM200.227 35.1367H190.227C190.227 40.6596 194.704 45.1367 200.227 45.1367V35.1367ZM200.227 10.1289V0.128906C194.704 0.128906 190.227 4.60606 190.227 10.1289H200.227ZM207.145 10.1289H217.145C217.145 4.60606 212.667 0.128906 207.145 0.128906V10.1289ZM207.145 15.2422L197.145 15.2422C197.145 20.765 201.622 25.2422 207.145 25.2422V15.2422ZM207.574 42.7852L217.574 42.8822C217.574 42.8181 217.574 42.754 217.574 42.6899L207.574 42.7852ZM180.16 42.7852L190.16 42.8822C190.16 42.8181 190.16 42.754 190.16 42.6899L180.16 42.7852ZM198.809 13.4805L208.809 13.4805C208.809 7.95762 204.331 3.48047 198.809 3.48047V13.4805ZM198.809 18.8086V28.8086C204.331 28.8086 208.809 24.3314 208.809 18.8086L198.809 18.8086ZM175.305 18.8086H165.305C165.305 24.3314 169.782 28.8086 175.305 28.8086V18.8086ZM175.305 13.4805V3.48047C169.782 3.48047 165.305 7.95762 165.305 13.4805H175.305ZM183.598 13.4805V23.4805C189.12 23.4805 193.598 19.0033 193.598 13.4805H183.598ZM183.598 10V0C178.075 0 173.598 4.47715 173.598 10H183.598ZM190.516 10H200.516C200.516 4.47715 196.038 0 190.516 0V10ZM190.516 13.4805H180.516C180.516 19.0033 184.993 23.4805 190.516 23.4805V13.4805ZM187.035 34.1484L186.962 44.1482C187.011 44.1485 187.06 44.1485 187.109 44.1482L187.035 34.1484ZM211.828 15.2422L201.828 15.2422V20.7852L211.828 20.7852H221.828V15.2422H211.828ZM211.828 20.7852V10.7852H207.145V20.7852V30.7852H211.828V20.7852ZM207.145 20.7852L197.145 20.7852V23.9219L207.145 23.9219H217.145V20.7852H207.145ZM207.145 23.9219V33.9219H211.828V23.9219V13.9219H207.145V23.9219ZM211.828 23.9219L201.828 23.9219V29.4648H211.828H221.828V23.9219H211.828ZM211.828 29.4648V19.4648H207.145V29.4648V39.4648H211.828V29.4648ZM207.145 29.4648H197.145V35.1367H207.145H217.145V29.4648H207.145ZM207.145 35.1367V25.1367L200.227 25.1367V35.1367V45.1367H207.145V35.1367ZM200.227 35.1367H210.227V10.1289H200.227H190.227V35.1367H200.227ZM200.227 10.1289V20.1289L207.145 20.1289V10.1289V0.128906H200.227V10.1289ZM207.145 10.1289H197.145V15.2422L207.145 15.2422H217.145V10.1289H207.145ZM207.145 15.2422V25.2422H211.828V15.2422V5.24219H207.145V15.2422ZM193.867 35.5664V45.5664C195.413 45.5664 196.655 45.6939 197.596 45.8766C198.557 46.0631 199.048 46.2767 199.199 46.3551C199.351 46.4344 198.943 46.2609 198.464 45.5946C197.919 44.8372 197.584 43.8519 197.575 42.8804L207.574 42.7852L217.574 42.6899C217.507 35.6672 213.019 31.0001 208.43 28.6127C204.092 26.3556 198.895 25.5664 193.867 25.5664V35.5664ZM207.574 42.7852L197.575 42.6881C197.585 41.6539 197.945 40.6471 198.489 39.8977C198.966 39.2402 199.365 39.0754 199.199 39.1615C199.039 39.245 198.539 39.4606 197.581 39.6483C196.641 39.8323 195.404 39.9609 193.867 39.9609V49.9609V59.9609C198.921 59.9609 204.107 59.1531 208.43 56.9039C212.953 54.5509 217.505 49.9186 217.574 42.8822L207.574 42.7852ZM193.867 49.9609V39.9609C192.276 39.9609 191.007 39.8303 190.053 39.6452C189.078 39.4561 188.591 39.2414 188.455 39.1701C188.316 39.0975 188.758 39.292 189.261 40.0042C189.833 40.8133 190.17 41.8584 190.16 42.8822L180.16 42.7852L170.161 42.6881C170.092 49.7614 174.592 54.4915 179.191 56.8953C183.533 59.1644 188.764 59.9609 193.867 59.9609V49.9609ZM180.16 42.7852L190.16 42.6899C190.169 43.6498 189.857 44.6721 189.286 45.4881C188.781 46.2089 188.329 46.4122 188.455 46.3465C188.582 46.2803 189.061 46.0676 190.038 45.8797C190.994 45.6958 192.266 45.5664 193.867 45.5664V35.5664V25.5664C188.789 25.5664 183.548 26.3445 179.191 28.6213C174.525 31.0602 170.093 35.8249 170.161 42.8804L180.16 42.7852ZM193.867 40.7656V30.7656C191.521 30.7656 188.588 30.8479 186.023 31.553C184.708 31.9143 182.52 32.6872 180.56 34.5299C178.239 36.7104 176.992 39.6806 176.992 42.7852H186.992H196.992C196.992 43.799 196.806 44.983 196.285 46.1975C195.763 47.4153 195.023 48.383 194.256 49.1042C192.852 50.4232 191.505 50.7878 191.324 50.8377C191.039 50.9159 191.058 50.8759 191.607 50.8324C192.111 50.7925 192.84 50.7656 193.867 50.7656V40.7656ZM186.992 42.7852H176.992C176.992 46.0873 178.41 48.9636 180.532 50.9732C182.365 52.709 184.404 53.5183 185.729 53.9264C188.349 54.7335 191.305 54.8906 193.867 54.8906V44.8906V34.8906C191.746 34.8906 191.264 34.704 191.617 34.8128C191.809 34.8719 193.008 35.2434 194.284 36.4514C194.976 37.1073 195.695 38.016 196.225 39.2016C196.761 40.4017 196.992 41.6354 196.992 42.7852H186.992ZM193.867 44.8906V54.8906C196.382 54.8906 199.315 54.7318 201.931 53.9144C203.255 53.5007 205.282 52.6841 207.102 50.9483C209.202 48.9453 210.613 46.0809 210.613 42.7852H200.613H190.613C190.613 41.6356 190.844 40.407 191.375 39.214C191.9 38.0358 192.611 37.1311 193.297 36.4764C194.564 35.2683 195.759 34.8895 195.965 34.8248C196.347 34.7057 195.907 34.8906 193.867 34.8906V44.8906ZM200.613 42.7852H210.613C210.613 39.6861 209.371 36.7291 207.074 34.5547C205.126 32.7107 202.95 31.9297 201.634 31.5628C199.072 30.8482 196.16 30.7656 193.867 30.7656V40.7656V50.7656C194.858 50.7656 195.557 50.7923 196.036 50.831C196.56 50.8735 196.561 50.9111 196.262 50.8278C196.064 50.7724 194.72 50.3996 193.325 49.0793C192.564 48.3591 191.833 47.3955 191.315 46.1853C190.799 44.9779 190.613 43.7991 190.613 42.7852H200.613ZM198.809 13.4805H188.809V18.8086H198.809L208.809 18.8086V13.4805L198.809 13.4805ZM198.809 18.8086V8.80859H175.305V18.8086V28.8086H198.809V18.8086ZM175.305 18.8086H185.305V13.4805H175.305H165.305V18.8086H175.305ZM175.305 13.4805V23.4805H183.598V13.4805V3.48047H175.305V13.4805ZM183.598 13.4805H193.598V10H183.598H173.598V13.4805H183.598ZM183.598 10V20H190.516V10V0H183.598V10ZM190.516 10H180.516V13.4805H190.516H200.516V10H190.516ZM190.516 13.4805V23.4805H198.809V13.4805V3.48047H190.516V13.4805ZM187.035 19.7109V29.7109C188.308 29.7109 188.598 30.0512 188.289 29.8264C188.108 29.6952 187.757 29.3827 187.449 28.818C187.127 28.2284 186.961 27.5588 186.961 26.9297H196.961L206.961 26.9297C206.961 21.2045 204.039 16.5536 200.058 13.656C196.236 10.8745 191.564 9.71094 187.035 9.71094V19.7109ZM196.961 26.9297H186.961C186.961 26.3533 187.112 25.689 187.448 25.0744C187.769 24.4849 188.142 24.1545 188.337 24.0138C188.66 23.7817 188.346 24.1385 186.961 24.1487L187.035 34.1484L187.109 44.1482C191.525 44.1155 196.174 43.0112 200.009 40.2548C204.06 37.344 206.961 32.6725 206.961 26.9297L196.961 26.9297ZM187.035 34.1484L187.108 24.1487C185.653 24.1381 185.314 23.7686 185.634 23.9969C185.83 24.1367 186.207 24.4687 186.532 25.064C186.872 25.6844 187.023 26.353 187.023 26.9297H177.023H167.023C167.023 32.6793 169.932 37.3593 174.009 40.2716C177.863 43.0244 182.53 44.1158 186.962 44.1482L187.035 34.1484ZM177.023 26.9297H187.023C187.023 27.5591 186.857 28.233 186.531 28.8284C186.219 29.3989 185.863 29.7131 185.683 29.8435C185.376 30.0652 185.691 29.7109 187.035 29.7109V19.7109V9.71094C182.492 9.71094 177.801 10.8606 173.961 13.639C169.953 16.5384 167.023 21.1977 167.023 26.9297H177.023ZM187.035 24.6953V14.6953C185.264 14.6953 182.218 14.9301 179.318 16.7633C175.686 19.0592 173.77 22.9031 173.77 26.9297H183.77H193.77C193.77 27.9059 193.563 29.2353 192.822 30.6222C192.07 32.0286 191.018 33.0287 190.004 33.6693C189.052 34.271 188.223 34.5055 187.782 34.5998C187.331 34.6962 187.056 34.6953 187.035 34.6953V24.6953ZM183.77 26.9297H173.77C173.77 31.0456 175.781 34.8562 179.376 37.0944C182.248 38.8832 185.257 39.1211 187.035 39.1211V29.1211V19.1211C187.057 19.1211 187.325 19.1204 187.766 19.2139C188.196 19.305 189.008 19.5321 189.947 20.1165C190.943 20.7371 192.008 21.7209 192.779 23.1332C193.544 24.5348 193.77 25.8987 193.77 26.9297H183.77ZM187.035 29.1211V39.1211C188.82 39.1211 191.767 38.8855 194.6 37.2008C198.144 35.0941 200.43 31.3272 200.43 26.9297H190.43H180.43C180.43 25.7899 180.698 24.3537 181.523 22.925C182.341 21.5072 183.433 20.5728 184.379 20.0101C185.275 19.4775 186.031 19.2774 186.41 19.1997C186.805 19.119 187.034 19.1211 187.035 19.1211V29.1211ZM190.43 26.9297H200.43C200.43 22.625 198.247 18.8218 194.657 16.655C191.796 14.9279 188.813 14.6953 187.035 14.6953V24.6953V34.6953C187.035 34.6953 186.799 34.6976 186.395 34.6142C186.005 34.5337 185.232 34.3267 184.322 33.7776C183.358 33.1954 182.276 32.244 181.477 30.8291C180.677 29.4128 180.43 28.0115 180.43 26.9297H190.43ZM246.934 10.1289H256.934C256.934 4.60606 252.456 0.128906 246.934 0.128906V10.1289ZM246.934 50.0039V60.0039C252.456 60.0039 256.934 55.5268 256.934 50.0039H246.934ZM239.973 50.0039H229.973C229.973 55.5268 234.45 60.0039 239.973 60.0039V50.0039ZM239.973 10.1289V0.128906C234.45 0.128906 229.973 4.60606 229.973 10.1289L239.973 10.1289ZM225.105 12.793L225.036 22.7927C225.083 22.7931 225.13 22.793 225.176 22.7927L225.105 12.793ZM225.105 19.0234L224.936 29.022C225.053 29.024 225.17 29.0239 225.287 29.0218L225.105 19.0234ZM246.934 10.1289H236.934V50.0039H246.934H256.934V10.1289H246.934ZM246.934 50.0039V40.0039H239.973V50.0039V60.0039H246.934V50.0039ZM239.973 50.0039H249.973V10.1289H239.973L229.973 10.1289V50.0039H239.973ZM239.973 10.1289V20.1289H246.934V10.1289V0.128906L239.973 0.128906V10.1289ZM225.105 12.793L225.176 22.7927C225.109 22.7932 224.939 22.7695 224.764 22.6797C224.602 22.597 224.611 22.5487 224.732 22.7071C225.002 23.0616 225.719 24.3623 225.719 27.1016H235.719H245.719C245.719 21.0752 244.158 15.2001 240.636 10.581C236.989 5.7971 231.456 2.74768 225.035 2.79322L225.105 12.793ZM235.719 27.1016H225.719C225.719 29.9317 224.989 31.2538 224.719 31.6093C224.599 31.768 224.587 31.7229 224.742 31.6436C224.907 31.5582 225.06 31.5391 225.105 31.5391V41.5391V51.5391C231.479 51.5391 236.997 48.5123 240.649 43.7023C244.171 39.0626 245.719 33.166 245.719 27.1016H235.719ZM225.105 41.5391V31.5391C225.084 31.5391 225.189 31.5424 225.326 31.6119C225.454 31.6768 225.436 31.7104 225.316 31.5554C225.051 31.2105 224.32 29.9128 224.32 27.1016H214.32L204.32 27.1016C204.32 33.1849 205.889 39.1059 209.469 43.7562C213.182 48.5787 218.743 51.5391 225.105 51.5391V41.5391ZM214.32 27.1016H224.32C224.32 24.3815 225.037 23.1052 225.304 22.7609C225.423 22.6063 225.44 22.6428 225.304 22.7111C225.244 22.7416 225.177 22.7652 225.115 22.7796C225.053 22.7938 225.023 22.7926 225.036 22.7927L225.105 12.793L225.175 2.79321C218.766 2.7487 213.191 5.73041 209.482 10.5271C205.902 15.1566 204.32 21.056 204.32 27.1016L214.32 27.1016ZM225.105 19.0234L225.275 9.02487C219.643 8.92942 215.445 12.2035 213.272 16.2725C211.431 19.7189 210.98 23.6674 210.98 27.1016H220.98H230.98C230.98 26.1848 231.049 25.6186 231.101 25.3344C231.158 25.0282 231.164 25.2255 230.913 25.6953C230.647 26.1938 230.02 27.1193 228.806 27.9011C227.528 28.7244 226.132 29.0423 224.936 29.022L225.105 19.0234ZM220.98 27.1016H210.98C210.98 30.556 211.424 34.5233 213.28 37.983C215.494 42.1125 219.669 45.2227 225.105 45.2227V35.2227V25.2227C226.216 25.2227 227.551 25.5254 228.798 26.3271C229.995 27.0963 230.627 28.012 230.905 28.5307C231.164 29.0135 231.16 29.2217 231.103 28.9138C231.05 28.6266 230.98 28.0483 230.98 27.1016H220.98ZM225.105 35.2227V45.2227C230.705 45.2227 234.756 41.8583 236.832 37.9275C238.631 34.5216 239.102 30.6095 239.102 27.1016H229.102H219.102C219.102 28.0329 219.032 28.6095 218.978 28.9013C218.92 29.2131 218.91 29.0351 219.148 28.5862C219.396 28.1154 219.992 27.214 221.164 26.4294C222.404 25.5992 223.813 25.2227 225.105 25.2227V35.2227ZM229.102 27.1016H239.102C239.102 23.6142 238.624 19.7203 236.84 16.3279C234.809 12.4682 230.73 8.91951 224.924 9.02509L225.105 19.0234L225.287 29.0218C223.901 29.047 222.426 28.6506 221.156 27.7986C219.967 27.0012 219.377 26.0903 219.14 25.6399C218.91 25.2039 218.921 25.0367 218.979 25.3469C219.033 25.6359 219.102 26.2004 219.102 27.1016H229.102ZM293.297 11.7617L303.297 11.7617C303.297 6.23887 298.82 1.76172 293.297 1.76172V11.7617ZM292.352 28.7344L282.512 26.9526C281.983 29.8692 282.776 32.8697 284.676 35.1446C286.576 37.4195 289.388 38.7344 292.352 38.7344V28.7344ZM297.164 28.7344H307.164C307.164 23.2115 302.687 18.7344 297.164 18.7344V28.7344ZM297.164 34.2344V44.2344C302.687 44.2344 307.164 39.7572 307.164 34.2344H297.164ZM260.984 34.2344H250.984C250.984 39.7572 255.462 44.2344 260.984 44.2344V34.2344ZM260.984 28.7344V18.7344C255.462 18.7344 250.984 23.2115 250.984 28.7344H260.984ZM285.348 28.7344V38.7344C290.138 38.7344 294.255 35.3375 295.165 30.6346L285.348 28.7344ZM285.949 24.9531L295.872 26.1935C296.235 23.2908 295.308 20.3748 293.337 18.2136C291.366 16.0525 288.547 14.863 285.623 14.9585L285.949 24.9531ZM264.895 25.6406L254.983 26.9674C255.664 32.0566 260.089 35.8029 265.221 35.6353L264.895 25.6406ZM264.164 20.1836L264.009 10.1848C261.153 10.229 258.452 11.4925 256.588 13.6567C254.723 15.8209 253.873 18.6791 254.252 21.5103L264.164 20.1836ZM286.379 19.8398L286.534 29.8386C291.932 29.7551 296.289 25.4018 296.378 20.0038L286.379 19.8398ZM286.422 17.2187L296.421 17.3827C296.464 14.7024 295.431 12.1168 293.551 10.2059C291.671 8.29495 289.102 7.21875 286.422 7.21875V17.2187ZM265.324 17.2187H255.324C255.324 22.7416 259.801 27.2187 265.324 27.2187V17.2187ZM265.324 11.7617V1.76172C259.801 1.76172 255.324 6.23887 255.324 11.7617H265.324ZM293.77 43.8164H303.77C303.77 38.2936 299.292 33.8164 293.77 33.8164V43.8164ZM293.77 49.3164V59.3164C299.292 59.3164 303.77 54.8393 303.77 49.3164H293.77ZM264.938 49.3164H254.938C254.938 54.8393 259.415 59.3164 264.938 59.3164V49.3164ZM264.938 36.4687V26.4687C259.415 26.4687 254.938 30.9459 254.938 36.4687H264.938ZM271.812 36.4687H281.812C281.812 30.9459 277.335 26.4687 271.812 26.4687V36.4687ZM271.812 43.8164H261.812C261.812 49.3393 266.29 53.8164 271.812 53.8164V43.8164ZM293.297 11.7617H283.297V15.6719H293.297H303.297V11.7617L293.297 11.7617ZM293.297 15.6719H283.297C283.297 19.5459 283.285 22.6823 282.512 26.9526L292.352 28.7344L302.192 30.5161C303.309 24.3451 303.297 19.6612 303.297 15.6719H293.297ZM292.352 28.7344V38.7344H297.164V28.7344V18.7344H292.352V28.7344ZM297.164 28.7344H287.164V34.2344H297.164H307.164V28.7344H297.164ZM297.164 34.2344V24.2344H260.984V34.2344V44.2344H297.164V34.2344ZM260.984 34.2344H270.984V28.7344H260.984H250.984V34.2344H260.984ZM260.984 28.7344V38.7344H285.348V28.7344V18.7344H260.984V28.7344ZM285.348 28.7344L295.165 30.6346C295.468 29.0716 295.696 27.6049 295.872 26.1935L285.949 24.9531L276.026 23.7128C275.902 24.7076 275.743 25.7331 275.53 26.8342L285.348 28.7344ZM285.949 24.9531L285.623 14.9585L264.568 15.646L264.895 25.6406L265.221 35.6353L286.276 34.9478L285.949 24.9531ZM264.895 25.6406L274.806 24.3139L274.076 18.8568L264.164 20.1836L254.252 21.5103L254.983 26.9674L264.895 25.6406ZM264.164 20.1836L264.319 30.1824L286.534 29.8386L286.379 19.8398L286.224 9.84104L264.009 10.1848L264.164 20.1836ZM286.379 19.8398L296.378 20.0038L296.421 17.3827L286.422 17.2187L276.423 17.0548L276.38 19.6759L286.379 19.8398ZM286.422 17.2187V7.21875H265.324V17.2187V27.2187H286.422V17.2187ZM265.324 17.2187H275.324V11.7617H265.324H255.324V17.2187H265.324ZM265.324 11.7617V21.7617H293.297V11.7617V1.76172L265.324 1.76172V11.7617ZM293.77 43.8164H283.77V49.3164H293.77H303.77V43.8164H293.77ZM293.77 49.3164V39.3164H264.938V49.3164V59.3164H293.77V49.3164ZM264.938 49.3164H274.938V36.4687H264.938H254.938V49.3164H264.938ZM264.938 36.4687V46.4687H271.812V36.4687V26.4687H264.938V36.4687ZM271.812 36.4687H261.812V43.8164H271.812H281.812V36.4687H271.812ZM271.812 43.8164V53.8164H293.77V43.8164V33.8164H271.812V43.8164Z" fill="white" mask="url(#path-1-outside-1_6526_5730)"/>
</g>
<defs>
<filter id="filter0_d_6526_5730" x="0" y="0" width="311.164" height="68.0039" filterUnits="userSpaceOnUse" color-interpolation-filters="sRGB">
<feFlood flood-opacity="0" result="BackgroundImageFix"/>
<feColorMatrix in="SourceAlpha" type="matrix" values="0 0 0 0 0 0 0 0 0 0 0 0 0 0 0 0 0 0 127 0" result="hardAlpha"/>
<feOffset dy="4"/>
<feGaussianBlur stdDeviation="2"/>
<feComposite in2="hardAlpha" operator="out"/>
<feColorMatrix type="matrix" values="0 0 0 0 0 0 0 0 0 0 0 0 0 0 0 0 0 0 0.07 0"/>
<feBlend mode="normal" in2="BackgroundImageFix" result="effect1_dropShadow_6526_5730"/>
<feBlend mode="normal" in="SourceGraphic" in2="effect1_dropShadow_6526_5730" result="shape"/>
</filter>
</defs>
</svg>
