<svg width="263" height="69" viewBox="0 0 263 69" fill="none" xmlns="http://www.w3.org/2000/svg">
<g filter="url(#filter0_d_6526_5761)">
<mask id="path-1-outside-1_6526_5761" maskUnits="userSpaceOnUse" x="3.59375" y="-0.25" width="255" height="61" fill="black">
<rect fill="white" x="3.59375" y="-0.25" width="255" height="61"/>
<path d="M32.9062 13.3945V18.9375H20.9609V24.3945H32.4766V29.7656H20.9609V35.8672C25.8164 35.8242 30.1348 35.5664 34.9688 34.8359L35.5273 40.3359C29.5977 41.1953 24.0117 41.3242 17.4375 41.3672H14L14 13.3945H32.9062ZM44.207 10.2578V24.7812H49.5781V30.4961H44.207V50.0039H37.2891V10.2578L44.207 10.2578ZM72.4375 13.3516V18.7227H50.6523V13.3516H58.4727V10H65.3477V13.3516H72.4375ZM61.8242 19.3242C67.3672 19.3242 71.4492 22.332 71.4492 26.5859C71.4492 30.8828 67.3672 33.8477 61.8242 33.8477C56.2812 33.8477 52.2852 30.8828 52.3281 26.5859C52.2852 22.332 56.2812 19.3242 61.8242 19.3242ZM61.8242 24.3945C59.9336 24.3945 58.7305 25.082 58.7305 26.5859C58.7305 28.1758 59.9336 28.9492 61.8242 28.9492C63.7148 28.9492 65.0898 28.1758 65.0898 26.5859C65.0898 25.082 63.7148 24.3945 61.8242 24.3945ZM84.3398 10.2578V34.0625H77.4648V31.6133H73.082V26.1562L77.4648 26.1562V23.707L73.168 23.707V18.25L77.4648 18.25V10.2578H84.3398ZM63.8867 35.4375V37.5859H77.5078V35.4375H84.3398V49.6602H56.9688V35.4375H63.8867ZM63.8867 44.375H77.5078V42.6133H63.8867V44.375ZM122.109 10.2578V50.1328H115.148V10.2578H122.109ZM100.281 12.9219C106.34 12.8789 110.895 18.4648 110.895 27.2305C110.895 36.125 106.34 41.668 100.281 41.668C94.0938 41.668 89.4961 36.125 89.4961 27.2305C89.4961 18.4648 94.0938 12.8789 100.281 12.9219ZM100.281 19.1523C97.7461 19.1094 96.1562 21.7305 96.1562 27.2305C96.1562 32.8164 97.7461 35.3516 100.281 35.3516C102.645 35.3516 104.277 32.8164 104.277 27.2305C104.277 21.7305 102.645 19.1094 100.281 19.1523ZM147.289 12.9219C152.596 12.8789 156.635 17.1543 157.602 24.0937H163.23V10.2578H170.062V50.1328H163.23V29.5937H157.688C156.957 37.0918 152.789 41.668 147.289 41.668C141.145 41.668 136.719 36.125 136.719 27.2305C136.719 18.4648 141.145 12.8789 147.289 12.9219ZM147.289 19.1523C144.926 19.1094 143.293 21.7305 143.336 27.2305C143.293 32.8164 144.926 35.3516 147.289 35.3516C149.695 35.3516 151.242 32.8164 151.242 27.2305C151.242 21.7305 149.695 19.1094 147.289 19.1523ZM208.004 10.2578V50.1328H201.129V34.6641H195.328V29.0781H201.129V23.8359H195.328V18.3359H201.129V10.2578H208.004ZM193.523 13.4375V29.4219H182.395V35.8672C186.648 35.8027 190.559 35.5664 194.941 34.9648L195.457 40.5508C189.742 41.4531 184.715 41.4961 178.785 41.4961H175.52V24.1367H186.777V18.8086H175.434V13.4375H193.523ZM248.48 29.1211V34.4922H234.172V40.6367H227.168V34.4922H212.215V29.1211H248.48ZM244.527 43.9453V49.4453H216.254V37.3711H223.215V43.9453H244.527ZM230.348 10.9023C239.027 10.9023 244.914 14.168 244.914 19.3242C244.914 24.4375 239.027 27.6602 230.348 27.6602C221.582 27.6602 215.695 24.4375 215.695 19.3242C215.695 14.168 221.582 10.9023 230.348 10.9023ZM230.348 16.2734C225.879 16.2734 223.129 17.1758 223.172 19.3242C223.129 21.3008 225.879 22.1602 230.348 22.2031C234.773 22.1602 237.48 21.3008 237.48 19.3242C237.48 17.1758 234.773 16.2734 230.348 16.2734Z"/>
</mask>
<path d="M32.9062 13.3945V18.9375H20.9609V24.3945H32.4766V29.7656H20.9609V35.8672C25.8164 35.8242 30.1348 35.5664 34.9688 34.8359L35.5273 40.3359C29.5977 41.1953 24.0117 41.3242 17.4375 41.3672H14L14 13.3945H32.9062ZM44.207 10.2578V24.7812H49.5781V30.4961H44.207V50.0039H37.2891V10.2578L44.207 10.2578ZM72.4375 13.3516V18.7227H50.6523V13.3516H58.4727V10H65.3477V13.3516H72.4375ZM61.8242 19.3242C67.3672 19.3242 71.4492 22.332 71.4492 26.5859C71.4492 30.8828 67.3672 33.8477 61.8242 33.8477C56.2812 33.8477 52.2852 30.8828 52.3281 26.5859C52.2852 22.332 56.2812 19.3242 61.8242 19.3242ZM61.8242 24.3945C59.9336 24.3945 58.7305 25.082 58.7305 26.5859C58.7305 28.1758 59.9336 28.9492 61.8242 28.9492C63.7148 28.9492 65.0898 28.1758 65.0898 26.5859C65.0898 25.082 63.7148 24.3945 61.8242 24.3945ZM84.3398 10.2578V34.0625H77.4648V31.6133H73.082V26.1562L77.4648 26.1562V23.707L73.168 23.707V18.25L77.4648 18.25V10.2578H84.3398ZM63.8867 35.4375V37.5859H77.5078V35.4375H84.3398V49.6602H56.9688V35.4375H63.8867ZM63.8867 44.375H77.5078V42.6133H63.8867V44.375ZM122.109 10.2578V50.1328H115.148V10.2578H122.109ZM100.281 12.9219C106.34 12.8789 110.895 18.4648 110.895 27.2305C110.895 36.125 106.34 41.668 100.281 41.668C94.0938 41.668 89.4961 36.125 89.4961 27.2305C89.4961 18.4648 94.0938 12.8789 100.281 12.9219ZM100.281 19.1523C97.7461 19.1094 96.1562 21.7305 96.1562 27.2305C96.1562 32.8164 97.7461 35.3516 100.281 35.3516C102.645 35.3516 104.277 32.8164 104.277 27.2305C104.277 21.7305 102.645 19.1094 100.281 19.1523ZM147.289 12.9219C152.596 12.8789 156.635 17.1543 157.602 24.0937H163.23V10.2578H170.062V50.1328H163.23V29.5937H157.688C156.957 37.0918 152.789 41.668 147.289 41.668C141.145 41.668 136.719 36.125 136.719 27.2305C136.719 18.4648 141.145 12.8789 147.289 12.9219ZM147.289 19.1523C144.926 19.1094 143.293 21.7305 143.336 27.2305C143.293 32.8164 144.926 35.3516 147.289 35.3516C149.695 35.3516 151.242 32.8164 151.242 27.2305C151.242 21.7305 149.695 19.1094 147.289 19.1523ZM208.004 10.2578V50.1328H201.129V34.6641H195.328V29.0781H201.129V23.8359H195.328V18.3359H201.129V10.2578H208.004ZM193.523 13.4375V29.4219H182.395V35.8672C186.648 35.8027 190.559 35.5664 194.941 34.9648L195.457 40.5508C189.742 41.4531 184.715 41.4961 178.785 41.4961H175.52V24.1367H186.777V18.8086H175.434V13.4375H193.523ZM248.48 29.1211V34.4922H234.172V40.6367H227.168V34.4922H212.215V29.1211H248.48ZM244.527 43.9453V49.4453H216.254V37.3711H223.215V43.9453H244.527ZM230.348 10.9023C239.027 10.9023 244.914 14.168 244.914 19.3242C244.914 24.4375 239.027 27.6602 230.348 27.6602C221.582 27.6602 215.695 24.4375 215.695 19.3242C215.695 14.168 221.582 10.9023 230.348 10.9023ZM230.348 16.2734C225.879 16.2734 223.129 17.1758 223.172 19.3242C223.129 21.3008 225.879 22.1602 230.348 22.2031C234.773 22.1602 237.48 21.3008 237.48 19.3242C237.48 17.1758 234.773 16.2734 230.348 16.2734Z" fill="#11DCA9"/>
<path d="M32.9062 13.3945H42.9062C42.9062 7.87168 38.4291 3.39453 32.9062 3.39453V13.3945ZM32.9062 18.9375V28.9375C38.4291 28.9375 42.9062 24.4603 42.9062 18.9375H32.9062ZM20.9609 18.9375V8.9375C15.4381 8.9375 10.9609 13.4147 10.9609 18.9375H20.9609ZM20.9609 24.3945H10.9609C10.9609 29.9174 15.4381 34.3945 20.9609 34.3945V24.3945ZM32.4766 24.3945H42.4766C42.4766 18.8717 37.9994 14.3945 32.4766 14.3945V24.3945ZM32.4766 29.7656V39.7656C37.9994 39.7656 42.4766 35.2885 42.4766 29.7656H32.4766ZM20.9609 29.7656V19.7656C15.4381 19.7656 10.9609 24.2428 10.9609 29.7656H20.9609ZM20.9609 35.8672H10.9609C10.9609 38.5347 12.0267 41.0916 13.9212 42.9695C15.8158 44.8473 18.382 45.8904 21.0494 45.8668L20.9609 35.8672ZM34.9688 34.8359L44.9176 33.8255C44.641 31.1028 43.2607 28.6123 41.0984 26.9348C38.936 25.2573 36.1806 24.5393 33.4746 24.9482L34.9688 34.8359ZM35.5273 40.3359L36.9616 50.2325C42.263 49.4642 46.0174 44.6549 45.4762 39.3255L35.5273 40.3359ZM17.4375 41.3672V51.3672C17.4593 51.3672 17.4811 51.3671 17.5029 51.367L17.4375 41.3672ZM14 41.3672H4C4 46.89 8.47715 51.3672 14 51.3672V41.3672ZM14 13.3945V3.39453C8.47715 3.39453 4 7.87168 4 13.3945H14ZM44.207 10.2578H54.207C54.207 4.73496 49.7299 0.257812 44.207 0.257812V10.2578ZM44.207 24.7812H34.207C34.207 30.3041 38.6842 34.7812 44.207 34.7812V24.7812ZM49.5781 24.7812H59.5781C59.5781 19.2584 55.101 14.7812 49.5781 14.7812V24.7812ZM49.5781 30.4961V40.4961C55.101 40.4961 59.5781 36.0189 59.5781 30.4961H49.5781ZM44.207 30.4961V20.4961C38.6842 20.4961 34.207 24.9732 34.207 30.4961H44.207ZM44.207 50.0039V60.0039C49.7299 60.0039 54.207 55.5268 54.207 50.0039H44.207ZM37.2891 50.0039H27.2891C27.2891 55.5268 31.7662 60.0039 37.2891 60.0039V50.0039ZM37.2891 10.2578V0.257812C31.7662 0.257812 27.2891 4.73496 27.2891 10.2578H37.2891ZM32.9062 13.3945H22.9062V18.9375H32.9062H42.9062V13.3945H32.9062ZM32.9062 18.9375V8.9375H20.9609V18.9375V28.9375H32.9062V18.9375ZM20.9609 18.9375H10.9609V24.3945H20.9609H30.9609V18.9375H20.9609ZM20.9609 24.3945V34.3945H32.4766V24.3945V14.3945H20.9609V24.3945ZM32.4766 24.3945H22.4766V29.7656H32.4766H42.4766V24.3945H32.4766ZM32.4766 29.7656V19.7656H20.9609V29.7656V39.7656H32.4766V29.7656ZM20.9609 29.7656H10.9609L10.9609 35.8672H20.9609H30.9609V29.7656H20.9609ZM20.9609 35.8672L21.0494 45.8668C26.2447 45.8208 31.05 45.5416 36.4629 44.7237L34.9688 34.8359L33.4746 24.9482C29.2195 25.5912 25.3881 25.8276 20.8724 25.8676L20.9609 35.8672ZM34.9688 34.8359L25.0199 35.8464L25.5785 41.3464L35.5273 40.3359L45.4762 39.3255L44.9176 33.8255L34.9688 34.8359ZM35.5273 40.3359L34.0931 30.4393C28.8979 31.1923 23.9063 31.3247 17.3721 31.3674L17.4375 41.3672L17.5029 51.367C24.1172 51.3237 30.2975 51.1984 36.9616 50.2325L35.5273 40.3359ZM17.4375 41.3672V31.3672H14L14 41.3672V51.3672H17.4375V41.3672ZM14 41.3672H24V13.3945H14H4V41.3672H14ZM14 13.3945V23.3945H32.9062V13.3945V3.39453L14 3.39453V13.3945ZM44.207 10.2578L34.207 10.2578V24.7812H44.207H54.207V10.2578H44.207ZM44.207 24.7812V34.7812H49.5781V24.7812V14.7812H44.207V24.7812ZM49.5781 24.7812H39.5781V30.4961H49.5781H59.5781V24.7812H49.5781ZM49.5781 30.4961V20.4961H44.207V30.4961V40.4961H49.5781V30.4961ZM44.207 30.4961H34.207V50.0039H44.207H54.207V30.4961H44.207ZM44.207 50.0039V40.0039H37.2891V50.0039V60.0039H44.207V50.0039ZM37.2891 50.0039H47.2891V10.2578L37.2891 10.2578H27.2891V50.0039H37.2891ZM37.2891 10.2578V20.2578H44.207V10.2578V0.257812H37.2891V10.2578ZM72.4375 13.3516L82.4375 13.3516C82.4375 7.82872 77.9604 3.35156 72.4375 3.35156V13.3516ZM72.4375 18.7227V28.7227C77.9604 28.7227 82.4375 24.2455 82.4375 18.7227L72.4375 18.7227ZM50.6523 18.7227H40.6523C40.6523 24.2455 45.1295 28.7227 50.6523 28.7227V18.7227ZM50.6523 13.3516V3.35156C45.1295 3.35156 40.6523 7.82872 40.6523 13.3516H50.6523ZM58.4727 13.3516V23.3516C63.9955 23.3516 68.4727 18.8744 68.4727 13.3516H58.4727ZM58.4727 10V0C52.9498 0 48.4727 4.47715 48.4727 10H58.4727ZM65.3477 10H75.3477C75.3477 4.47715 70.8705 0 65.3477 0V10ZM65.3477 13.3516H55.3477C55.3477 18.8744 59.8248 23.3516 65.3477 23.3516V13.3516ZM52.3281 26.5859L62.3276 26.6859C62.3283 26.6189 62.3283 26.5519 62.3276 26.4849L52.3281 26.5859ZM84.3398 10.2578H94.3398C94.3398 4.73496 89.8627 0.257812 84.3398 0.257812V10.2578ZM84.3398 34.0625V44.0625C89.8627 44.0625 94.3398 39.5853 94.3398 34.0625H84.3398ZM77.4648 34.0625H67.4648C67.4648 39.5853 71.942 44.0625 77.4648 44.0625V34.0625ZM77.4648 31.6133H87.4648C87.4648 26.0904 82.9877 21.6133 77.4648 21.6133V31.6133ZM73.082 31.6133H63.082C63.082 37.1361 67.5592 41.6133 73.082 41.6133V31.6133ZM73.082 26.1562V16.1562C67.5592 16.1562 63.082 20.6334 63.082 26.1562H73.082ZM77.4648 26.1562V36.1562C82.9877 36.1562 87.4648 31.6791 87.4648 26.1562H77.4648ZM77.4648 23.707H87.4648C87.4648 18.1842 82.9877 13.707 77.4648 13.707V23.707ZM73.168 23.707H63.168C63.168 29.2299 67.6451 33.707 73.168 33.707V23.707ZM73.168 18.25V8.25C67.6451 8.25 63.168 12.7272 63.168 18.25H73.168ZM77.4648 18.25V28.25C82.9877 28.25 87.4648 23.7728 87.4648 18.25H77.4648ZM77.4648 10.2578V0.257812C71.942 0.257812 67.4648 4.73496 67.4648 10.2578H77.4648ZM63.8867 35.4375H73.8867C73.8867 29.9147 69.4096 25.4375 63.8867 25.4375V35.4375ZM63.8867 37.5859H53.8867C53.8867 43.1088 58.3639 47.5859 63.8867 47.5859V37.5859ZM77.5078 37.5859V47.5859C83.0307 47.5859 87.5078 43.1088 87.5078 37.5859H77.5078ZM77.5078 35.4375V25.4375C71.985 25.4375 67.5078 29.9147 67.5078 35.4375H77.5078ZM84.3398 35.4375H94.3398C94.3398 29.9147 89.8627 25.4375 84.3398 25.4375V35.4375ZM84.3398 49.6602V59.6602C89.8627 59.6602 94.3398 55.183 94.3398 49.6602H84.3398ZM56.9688 49.6602H46.9688C46.9688 55.183 51.4459 59.6602 56.9688 59.6602V49.6602ZM56.9688 35.4375V25.4375C51.4459 25.4375 46.9688 29.9147 46.9688 35.4375H56.9688ZM63.8867 44.375H53.8867C53.8867 49.8978 58.3639 54.375 63.8867 54.375V44.375ZM77.5078 44.375V54.375C83.0307 54.375 87.5078 49.8978 87.5078 44.375H77.5078ZM77.5078 42.6133H87.5078C87.5078 37.0904 83.0307 32.6133 77.5078 32.6133V42.6133ZM63.8867 42.6133V32.6133C58.3639 32.6133 53.8867 37.0904 53.8867 42.6133H63.8867ZM72.4375 13.3516H62.4375V18.7227H72.4375L82.4375 18.7227V13.3516L72.4375 13.3516ZM72.4375 18.7227V8.72266H50.6523V18.7227V28.7227H72.4375V18.7227ZM50.6523 18.7227H60.6523V13.3516H50.6523H40.6523V18.7227H50.6523ZM50.6523 13.3516V23.3516H58.4727V13.3516V3.35156H50.6523V13.3516ZM58.4727 13.3516H68.4727V10H58.4727H48.4727V13.3516H58.4727ZM58.4727 10V20H65.3477V10V0H58.4727V10ZM65.3477 10H55.3477V13.3516H65.3477H75.3477V10H65.3477ZM65.3477 13.3516V23.3516H72.4375V13.3516V3.35156H65.3477V13.3516ZM61.8242 19.3242V29.3242C62.8773 29.3242 63.0604 29.6184 62.7193 29.3629C62.5261 29.2181 62.1899 28.9038 61.9007 28.3615C61.5996 27.7968 61.4492 27.1671 61.4492 26.5859H71.4492L81.4492 26.5859C81.4492 14.324 70.0231 9.32422 61.8242 9.32422V19.3242ZM71.4492 26.5859H61.4492C61.4492 26.0316 61.592 25.4087 61.8962 24.8369C62.1888 24.2868 62.5327 23.9643 62.7355 23.8131C63.0908 23.548 62.9094 23.8477 61.8242 23.8477V33.8477V43.8477C66.282 43.8477 70.9131 42.6649 74.6952 39.8432C78.6449 36.8964 81.4492 32.24 81.4492 26.5859L71.4492 26.5859ZM61.8242 33.8477V23.8477C60.738 23.8477 60.6127 23.5485 61.022 23.8587C61.2515 24.0327 61.6078 24.3797 61.901 24.9479C62.2042 25.5355 62.3329 26.1558 62.3276 26.6859L52.3281 26.5859L42.3286 26.4859C42.2725 32.0951 44.9777 36.7936 48.9409 39.7976C52.7232 42.6644 57.3675 43.8477 61.8242 43.8477V33.8477ZM52.3281 26.5859L62.3276 26.4849C62.3332 27.042 62.1971 27.6696 61.8967 28.2504C61.6068 28.811 61.258 29.1497 61.0381 29.3171C60.6431 29.6177 60.7704 29.3242 61.8242 29.3242V19.3242V9.32422C57.3351 9.32422 52.6928 10.5346 48.9248 13.4026C44.9951 16.3938 42.272 21.0777 42.3286 26.6869L52.3281 26.5859ZM61.8242 24.3945V14.3945C59.9315 14.3945 56.875 14.6938 54.0022 16.6186C50.5204 18.9514 48.7305 22.7134 48.7305 26.5859H58.7305H68.7305C68.7305 27.5645 68.5269 28.8525 67.8353 30.1933C67.1342 31.5527 66.1396 32.5606 65.1345 33.234C63.3359 34.439 61.8263 34.3945 61.8242 34.3945V24.3945ZM58.7305 26.5859H48.7305C48.7305 30.2378 50.2961 33.9761 53.6722 36.4406C56.5714 38.557 59.7385 38.9492 61.8242 38.9492V28.9492V18.9492C62.0193 18.9492 63.6395 18.9547 65.4645 20.2869C66.4527 21.0083 67.3496 22.0221 67.9607 23.2933C68.5595 24.539 68.7305 25.7095 68.7305 26.5859H58.7305ZM61.8242 28.9492V38.9492C63.9232 38.9492 66.9503 38.5519 69.766 36.6487C73.0578 34.4237 75.0898 30.7494 75.0898 26.5859H65.0898H55.0898C55.0898 25.5031 55.3356 24.2024 56.0286 22.9076C56.7181 21.6191 57.6604 20.691 58.566 20.0788C60.2216 18.9598 61.6158 18.9492 61.8242 18.9492V28.9492ZM65.0898 26.5859H75.0898C75.0898 22.1711 72.7809 18.5027 69.4377 16.4287C66.6572 14.7038 63.7399 14.3945 61.8242 14.3945V24.3945V34.3945C61.7992 34.3945 60.5146 34.4291 58.8943 33.4239C57.9872 32.8611 56.9546 31.949 56.1734 30.5886C55.3803 29.2074 55.0898 27.7862 55.0898 26.5859H65.0898ZM84.3398 10.2578H74.3398V34.0625H84.3398H94.3398V10.2578H84.3398ZM84.3398 34.0625V24.0625H77.4648V34.0625V44.0625H84.3398V34.0625ZM77.4648 34.0625H87.4648V31.6133H77.4648H67.4648V34.0625H77.4648ZM77.4648 31.6133V21.6133L73.082 21.6133V31.6133V41.6133H77.4648V31.6133ZM73.082 31.6133H83.082V26.1562L73.082 26.1562H63.082V31.6133H73.082ZM73.082 26.1562V36.1562H77.4648V26.1562V16.1562L73.082 16.1562V26.1562ZM77.4648 26.1562H87.4648V23.707H77.4648L67.4648 23.707V26.1562L77.4648 26.1562ZM77.4648 23.707V13.707L73.168 13.707V23.707V33.707H77.4648V23.707ZM73.168 23.707L83.168 23.707V18.25L73.168 18.25H63.168V23.707H73.168ZM73.168 18.25V28.25L77.4648 28.25V18.25V8.25H73.168V18.25ZM77.4648 18.25H87.4648V10.2578H77.4648H67.4648V18.25L77.4648 18.25ZM77.4648 10.2578V20.2578H84.3398V10.2578V0.257812L77.4648 0.257812V10.2578ZM63.8867 35.4375H53.8867V37.5859H63.8867H73.8867V35.4375H63.8867ZM63.8867 37.5859V47.5859H77.5078V37.5859V27.5859L63.8867 27.5859V37.5859ZM77.5078 37.5859H87.5078V35.4375H77.5078H67.5078V37.5859H77.5078ZM77.5078 35.4375V45.4375H84.3398V35.4375V25.4375H77.5078V35.4375ZM84.3398 35.4375H74.3398V49.6602H84.3398H94.3398V35.4375H84.3398ZM84.3398 49.6602V39.6602H56.9688V49.6602V59.6602H84.3398V49.6602ZM56.9688 49.6602H66.9688V35.4375H56.9688H46.9688V49.6602H56.9688ZM56.9688 35.4375V45.4375H63.8867V35.4375V25.4375H56.9688V35.4375ZM63.8867 44.375V54.375H77.5078V44.375V34.375H63.8867V44.375ZM77.5078 44.375H87.5078V42.6133H77.5078H67.5078V44.375H77.5078ZM77.5078 42.6133V32.6133H63.8867V42.6133V52.6133H77.5078V42.6133ZM63.8867 42.6133H53.8867V44.375H63.8867H73.8867V42.6133H63.8867ZM122.109 10.2578H132.109C132.109 4.73496 127.632 0.257812 122.109 0.257812V10.2578ZM122.109 50.1328V60.1328C127.632 60.1328 132.109 55.6557 132.109 50.1328H122.109ZM115.148 50.1328H105.148C105.148 55.6557 109.626 60.1328 115.148 60.1328V50.1328ZM115.148 10.2578V0.257812C109.626 0.257812 105.148 4.73496 105.148 10.2578L115.148 10.2578ZM100.281 12.9219L100.212 22.9216C100.259 22.922 100.305 22.922 100.352 22.9216L100.281 12.9219ZM100.281 19.1523L100.112 29.1509C100.229 29.1529 100.346 29.1528 100.463 29.1507L100.281 19.1523ZM122.109 10.2578H112.109V50.1328H122.109H132.109V10.2578H122.109ZM122.109 50.1328V40.1328H115.148V50.1328V60.1328H122.109V50.1328ZM115.148 50.1328H125.148V10.2578H115.148L105.148 10.2578V50.1328H115.148ZM115.148 10.2578V20.2578H122.109V10.2578V0.257812L115.148 0.257812V10.2578ZM100.281 12.9219L100.352 22.9216C100.284 22.9221 100.115 22.8984 99.9395 22.8086C99.7778 22.7259 99.7868 22.6776 99.9075 22.836C100.178 23.1905 100.895 24.4912 100.895 27.2305H110.895H120.895C120.895 21.2041 119.334 15.329 115.812 10.7099C112.165 5.92601 106.632 2.87658 100.21 2.92213L100.281 12.9219ZM110.895 27.2305H100.895C100.895 30.0606 100.165 31.3827 99.8949 31.7382C99.7744 31.8969 99.7632 31.8518 99.9173 31.7725C100.083 31.6871 100.236 31.668 100.281 31.668V41.668V51.668C106.655 51.668 112.173 48.6412 115.825 43.8312C119.347 39.1915 120.895 33.2949 120.895 27.2305H110.895ZM100.281 41.668V31.668C100.26 31.668 100.365 31.6713 100.502 31.7408C100.63 31.8057 100.611 31.8393 100.492 31.6843C100.227 31.3394 99.4961 30.0417 99.4961 27.2305H89.4961H79.4961C79.4961 33.3138 81.0645 39.2348 84.6447 43.8851C88.3575 48.7076 93.9191 51.668 100.281 51.668V41.668ZM89.4961 27.2305H99.4961C99.4961 24.5104 100.213 23.2341 100.479 22.8899C100.599 22.7352 100.616 22.7717 100.48 22.84C100.419 22.8705 100.353 22.8942 100.291 22.9085C100.229 22.9228 100.199 22.9215 100.212 22.9216L100.281 12.9219L100.351 2.92212C93.9416 2.87761 88.3663 5.85932 84.6574 10.656C81.0778 15.2855 79.4961 21.1849 79.4961 27.2305H89.4961ZM100.281 19.1523L100.451 9.15378C94.8192 9.05833 90.6209 12.3324 88.4475 16.4014C86.6066 19.8478 86.1562 23.7964 86.1562 27.2305H96.1562H106.156C106.156 26.3137 106.224 25.7475 106.277 25.4633C106.334 25.1571 106.34 25.3544 106.089 25.8242C105.822 26.3227 105.196 27.2482 103.982 28.0301C102.704 28.8533 101.307 29.1712 100.112 29.1509L100.281 19.1523ZM96.1562 27.2305H86.1562C86.1562 30.6849 86.6 34.6522 88.4554 38.1119C90.67 42.2414 94.8449 45.3516 100.281 45.3516V35.3516V25.3516C101.391 25.3516 102.727 25.6544 103.974 26.456C105.171 27.2252 105.803 28.1409 106.081 28.6596C106.34 29.1424 106.335 29.3506 106.279 29.0427C106.226 28.7555 106.156 28.1772 106.156 27.2305H96.1562ZM100.281 35.3516V45.3516C105.88 45.3516 109.931 41.9872 112.008 38.0564C113.807 34.6505 114.277 30.7384 114.277 27.2305H104.277H94.2773C94.2773 28.1618 94.2076 28.7385 94.1534 29.0302C94.0955 29.3421 94.0862 29.164 94.3233 28.7151C94.572 28.2444 95.1677 27.3429 96.3397 26.5583C97.5798 25.7281 98.9892 25.3516 100.281 25.3516V35.3516ZM104.277 27.2305H114.277C114.277 23.7431 113.8 19.8492 112.015 16.4568C109.985 12.5971 105.906 9.04842 100.099 9.154L100.281 19.1523L100.463 29.1507C99.0772 29.1759 97.6019 28.7795 96.3318 27.9276C95.143 27.1301 94.5525 26.2192 94.3156 25.7688C94.0862 25.3328 94.097 25.1656 94.1549 25.4758C94.2088 25.7648 94.2773 26.3293 94.2773 27.2305H104.277ZM147.289 12.9219L147.219 22.9216C147.269 22.922 147.32 22.922 147.37 22.9215L147.289 12.9219ZM157.602 24.0937L147.697 25.4736C148.386 30.4156 152.612 34.0937 157.602 34.0937V24.0937ZM163.23 24.0937V34.0937C168.753 34.0937 173.23 29.6166 173.23 24.0937H163.23ZM163.23 10.2578V0.257812C157.708 0.257812 153.23 4.73496 153.23 10.2578H163.23ZM170.062 10.2578L180.062 10.2578C180.062 4.73496 175.585 0.257812 170.062 0.257812V10.2578ZM170.062 50.1328V60.1328C175.585 60.1328 180.062 55.6557 180.062 50.1328H170.062ZM163.23 50.1328H153.23C153.23 55.6557 157.708 60.1328 163.23 60.1328V50.1328ZM163.23 29.5937H173.23C173.23 24.0709 168.753 19.5937 163.23 19.5937V29.5937ZM157.688 29.5937V19.5937C152.54 19.5937 148.234 23.5011 147.735 28.6241L157.688 29.5937ZM147.289 19.1523L147.107 29.1507C147.227 29.1529 147.348 29.1529 147.468 29.1507L147.289 19.1523ZM143.336 27.2305L153.336 27.3074C153.336 27.2557 153.336 27.204 153.336 27.1523L143.336 27.2305ZM147.289 12.9219L147.37 22.9215C147.318 22.922 147.157 22.9067 146.965 22.8219C146.78 22.7401 146.712 22.6591 146.747 22.6959C146.841 22.7969 147.428 23.5404 147.697 25.4736L157.602 24.0937L167.506 22.7139C166.132 12.852 159.36 2.8238 147.208 2.9222L147.289 12.9219ZM157.602 24.0937V34.0937H163.23V24.0937V14.0937H157.602V24.0937ZM163.23 24.0937H173.23V10.2578L163.23 10.2578H153.23V24.0937H163.23ZM163.23 10.2578V20.2578H170.062V10.2578V0.257812L163.23 0.257812V10.2578ZM170.062 10.2578H160.062V50.1328H170.062H180.062V10.2578L170.062 10.2578ZM170.062 50.1328V40.1328H163.23V50.1328V60.1328H170.062V50.1328ZM163.23 50.1328H173.23V29.5937H163.23H153.23V50.1328H163.23ZM163.23 29.5937V19.5937H157.688V29.5937V39.5937H163.23V29.5937ZM157.688 29.5937L147.735 28.6241C147.521 30.8171 146.886 31.7032 146.75 31.8583C146.696 31.9211 146.744 31.8478 146.918 31.7668C147.099 31.6825 147.25 31.668 147.289 31.668V41.668V51.668C159.875 51.668 166.624 40.9935 167.64 30.5634L157.688 29.5937ZM147.289 41.668V31.668C147.277 31.668 147.314 31.667 147.388 31.6847C147.463 31.7025 147.545 31.7323 147.623 31.7725C147.797 31.8616 147.804 31.9239 147.698 31.7819C147.447 31.448 146.719 30.1239 146.719 27.2305H136.719H126.719C126.719 33.2316 128.203 39.1263 131.702 43.7874C135.356 48.6558 140.893 51.668 147.289 51.668V41.668ZM136.719 27.2305H146.719C146.719 24.4274 147.435 23.1248 147.685 22.7922C147.792 22.6507 147.782 22.7161 147.601 22.8086C147.519 22.8508 147.43 22.8829 147.347 22.9023C147.264 22.9217 147.217 22.9216 147.219 22.9216L147.289 12.9219L147.359 2.92212C140.916 2.87706 135.365 5.91096 131.714 10.7536C128.216 15.3947 126.719 21.2679 126.719 27.2305H136.719ZM147.289 19.1523L147.471 9.154C141.665 9.04844 137.575 12.5973 135.546 16.4847C133.764 19.8981 133.309 23.8094 133.336 27.3086L143.336 27.2305L153.336 27.1523C153.32 25.1515 153.66 25.0023 153.275 25.7409C153.034 26.2024 152.439 27.1215 151.244 27.924C149.97 28.7801 148.492 29.1759 147.107 29.1507L147.289 19.1523ZM143.336 27.2305L133.336 27.1535C133.309 30.6723 133.757 34.6016 135.553 38.0285C137.628 41.987 141.691 45.3516 147.289 45.3516V35.3516V25.3516C148.58 25.3516 149.992 25.7276 151.237 26.5618C152.415 27.3515 153.014 28.2612 153.267 28.743C153.508 29.2023 153.5 29.3901 153.445 29.0864C153.394 28.8028 153.329 28.233 153.336 27.3074L143.336 27.2305ZM147.289 35.3516V45.3516C152.905 45.3516 156.982 41.9867 159.054 37.9722C160.812 34.5666 161.242 30.6671 161.242 27.2305H151.242H141.242C141.242 28.1889 141.174 28.7875 141.118 29.0989C141.059 29.4328 141.046 29.2562 141.282 28.7993C141.531 28.3164 142.137 27.3797 143.343 26.569C144.619 25.7113 146.04 25.3516 147.289 25.3516V35.3516ZM151.242 27.2305H161.242C161.242 23.8148 160.806 19.9335 159.062 16.5409C157.034 12.5962 152.932 9.04998 147.111 9.15394L147.289 19.1523L147.468 29.1507C146.128 29.1747 144.642 28.7971 143.335 27.9168C142.112 27.0932 141.512 26.147 141.274 25.6847C141.046 25.2407 141.06 25.0748 141.12 25.4068C141.175 25.7152 141.242 26.3018 141.242 27.2305H151.242ZM208.004 10.2578H218.004C218.004 4.73496 213.527 0.257812 208.004 0.257812V10.2578ZM208.004 50.1328V60.1328C213.527 60.1328 218.004 55.6557 218.004 50.1328H208.004ZM201.129 50.1328H191.129C191.129 55.6557 195.606 60.1328 201.129 60.1328V50.1328ZM201.129 34.6641H211.129C211.129 29.1412 206.652 24.6641 201.129 24.6641V34.6641ZM195.328 34.6641H185.328C185.328 40.1869 189.805 44.6641 195.328 44.6641V34.6641ZM195.328 29.0781V19.0781C189.805 19.0781 185.328 23.5553 185.328 29.0781H195.328ZM201.129 29.0781V39.0781C206.652 39.0781 211.129 34.601 211.129 29.0781H201.129ZM201.129 23.8359L211.129 23.8359C211.129 18.3131 206.652 13.8359 201.129 13.8359V23.8359ZM195.328 23.8359H185.328C185.328 29.3588 189.805 33.8359 195.328 33.8359V23.8359ZM195.328 18.3359V8.33594C189.805 8.33594 185.328 12.8131 185.328 18.3359H195.328ZM201.129 18.3359V28.3359C206.652 28.3359 211.129 23.8588 211.129 18.3359L201.129 18.3359ZM201.129 10.2578V0.257812C195.606 0.257812 191.129 4.73496 191.129 10.2578H201.129ZM193.523 13.4375H203.523C203.523 7.91465 199.046 3.4375 193.523 3.4375V13.4375ZM193.523 29.4219V39.4219C199.046 39.4219 203.523 34.9447 203.523 29.4219H193.523ZM182.395 29.4219V19.4219C176.872 19.4219 172.395 23.899 172.395 29.4219H182.395ZM182.395 35.8672H172.395C172.395 38.5456 173.469 41.1121 175.377 42.9916C177.285 44.8711 179.868 45.9066 182.546 45.866L182.395 35.8672ZM194.941 34.9648L204.899 34.0457C204.648 31.3281 203.298 28.8312 201.16 27.1339C199.023 25.4367 196.285 24.6866 193.582 25.0577L194.941 34.9648ZM195.457 40.5508L197.017 50.4284C202.225 49.6061 205.899 44.8817 205.415 39.6316L195.457 40.5508ZM175.52 41.4961H165.52C165.52 47.0189 169.997 51.4961 175.52 51.4961V41.4961ZM175.52 24.1367V14.1367C169.997 14.1367 165.52 18.6139 165.52 24.1367H175.52ZM186.777 24.1367V34.1367C192.3 34.1367 196.777 29.6596 196.777 24.1367H186.777ZM186.777 18.8086H196.777C196.777 13.2857 192.3 8.80859 186.777 8.80859V18.8086ZM175.434 18.8086H165.434C165.434 24.3314 169.911 28.8086 175.434 28.8086V18.8086ZM175.434 13.4375V3.4375C169.911 3.4375 165.434 7.91465 165.434 13.4375H175.434ZM208.004 10.2578H198.004V50.1328H208.004H218.004V10.2578H208.004ZM208.004 50.1328V40.1328H201.129V50.1328V60.1328H208.004V50.1328ZM201.129 50.1328H211.129V34.6641H201.129H191.129V50.1328H201.129ZM201.129 34.6641V24.6641H195.328V34.6641V44.6641H201.129V34.6641ZM195.328 34.6641H205.328V29.0781H195.328H185.328V34.6641H195.328ZM195.328 29.0781V39.0781H201.129V29.0781V19.0781H195.328V29.0781ZM201.129 29.0781H211.129V23.8359L201.129 23.8359H191.129V29.0781H201.129ZM201.129 23.8359V13.8359H195.328V23.8359V33.8359H201.129V23.8359ZM195.328 23.8359L205.328 23.8359V18.3359L195.328 18.3359H185.328V23.8359H195.328ZM195.328 18.3359V28.3359H201.129V18.3359V8.33594H195.328V18.3359ZM201.129 18.3359L211.129 18.3359V10.2578H201.129H191.129V18.3359H201.129ZM201.129 10.2578V20.2578L208.004 20.2578V10.2578V0.257812H201.129V10.2578ZM193.523 13.4375H183.523V29.4219H193.523H203.523V13.4375H193.523ZM193.523 29.4219V19.4219H182.395V29.4219V39.4219H193.523V29.4219ZM182.395 29.4219H172.395V35.8672H182.395H192.395V29.4219H182.395ZM182.395 35.8672L182.546 45.866C187.11 45.7969 191.434 45.54 196.301 44.872L194.941 34.9648L193.582 25.0577C189.683 25.5928 186.187 25.8086 182.243 25.8683L182.395 35.8672ZM194.941 34.9648L184.984 35.884L185.499 41.47L195.457 40.5508L205.415 39.6316L204.899 34.0457L194.941 34.9648ZM195.457 40.5508L193.897 30.6732C189.041 31.4399 184.723 31.4961 178.785 31.4961V41.4961V51.4961C184.707 51.4961 190.443 51.4663 197.017 50.4284L195.457 40.5508ZM178.785 41.4961V31.4961H175.52V41.4961V51.4961H178.785V41.4961ZM175.52 41.4961H185.52V24.1367H175.52H165.52V41.4961H175.52ZM175.52 24.1367V34.1367H186.777V24.1367V14.1367H175.52V24.1367ZM186.777 24.1367H196.777V18.8086H186.777H176.777V24.1367H186.777ZM186.777 18.8086V8.80859H175.434V18.8086V28.8086H186.777V18.8086ZM175.434 18.8086H185.434V13.4375H175.434H165.434V18.8086H175.434ZM175.434 13.4375V23.4375H193.523V13.4375V3.4375L175.434 3.4375V13.4375ZM248.48 29.1211H258.48C258.48 23.5982 254.003 19.1211 248.48 19.1211V29.1211ZM248.48 34.4922V44.4922C254.003 44.4922 258.48 40.015 258.48 34.4922H248.48ZM234.172 34.4922V24.4922C228.649 24.4922 224.172 28.9693 224.172 34.4922H234.172ZM234.172 40.6367V50.6367C239.695 50.6367 244.172 46.1596 244.172 40.6367H234.172ZM227.168 40.6367H217.168C217.168 46.1596 221.645 50.6367 227.168 50.6367V40.6367ZM227.168 34.4922H237.168C237.168 28.9693 232.691 24.4922 227.168 24.4922V34.4922ZM212.215 34.4922H202.215C202.215 40.015 206.692 44.4922 212.215 44.4922V34.4922ZM212.215 29.1211V19.1211C206.692 19.1211 202.215 23.5982 202.215 29.1211H212.215ZM244.527 43.9453H254.527C254.527 38.4225 250.05 33.9453 244.527 33.9453V43.9453ZM244.527 49.4453V59.4453C250.05 59.4453 254.527 54.9682 254.527 49.4453H244.527ZM216.254 49.4453H206.254C206.254 54.9682 210.731 59.4453 216.254 59.4453V49.4453ZM216.254 37.3711V27.3711C210.731 27.3711 206.254 31.8482 206.254 37.3711H216.254ZM223.215 37.3711H233.215C233.215 31.8482 228.738 27.3711 223.215 27.3711V37.3711ZM223.215 43.9453H213.215C213.215 49.4682 217.692 53.9453 223.215 53.9453V43.9453ZM223.172 19.3242L233.17 19.5416C233.173 19.4025 233.173 19.2633 233.17 19.1243L223.172 19.3242ZM230.348 22.2031L230.252 32.2027C230.316 32.2033 230.38 32.2033 230.445 32.2027L230.348 22.2031ZM248.48 29.1211H238.48V34.4922H248.48H258.48V29.1211H248.48ZM248.48 34.4922V24.4922H234.172V34.4922V44.4922H248.48V34.4922ZM234.172 34.4922H224.172V40.6367H234.172H244.172V34.4922H234.172ZM234.172 40.6367V30.6367H227.168V40.6367V50.6367H234.172V40.6367ZM227.168 40.6367H237.168V34.4922H227.168H217.168V40.6367H227.168ZM227.168 34.4922V24.4922H212.215V34.4922V44.4922H227.168V34.4922ZM212.215 34.4922H222.215V29.1211H212.215H202.215V34.4922H212.215ZM212.215 29.1211V39.1211H248.48V29.1211V19.1211H212.215V29.1211ZM244.527 43.9453H234.527V49.4453H244.527H254.527V43.9453H244.527ZM244.527 49.4453V39.4453H216.254V49.4453V59.4453H244.527V49.4453ZM216.254 49.4453H226.254V37.3711H216.254H206.254V49.4453H216.254ZM216.254 37.3711V47.3711H223.215V37.3711V27.3711H216.254V37.3711ZM223.215 37.3711H213.215V43.9453H223.215H233.215V37.3711H223.215ZM223.215 43.9453V53.9453H244.527V43.9453V33.9453H223.215V43.9453ZM230.348 10.9023V20.9023C233.617 20.9023 235.369 21.545 235.924 21.8621C236.146 21.9887 235.88 21.8932 235.538 21.38C235.148 20.7955 234.914 20.0415 234.914 19.3242H244.914H254.914C254.914 12.251 250.643 7.2379 245.847 4.49726C241.289 1.89247 235.758 0.902344 230.348 0.902344V10.9023ZM244.914 19.3242H234.914C234.914 18.5768 235.16 17.7984 235.563 17.1992C235.917 16.6744 236.191 16.5765 235.966 16.7037C235.403 17.0217 233.635 17.6602 230.348 17.6602V27.6602V37.6602C235.74 37.6602 241.255 36.6872 245.806 34.1156C250.59 31.4121 254.914 26.4242 254.914 19.3242H244.914ZM230.348 27.6602V17.6602C227.003 17.6602 225.211 17.0169 224.639 16.6949C224.41 16.5661 224.686 16.6637 225.042 17.1917C225.449 17.7946 225.695 18.5763 225.695 19.3242H215.695H205.695C205.695 26.4313 210.028 31.422 214.83 34.1245C219.393 36.6921 224.927 37.6602 230.348 37.6602V27.6602ZM215.695 19.3242H225.695C225.695 20.042 225.461 20.7992 225.068 21.3875C224.723 21.9039 224.455 21.9992 224.68 21.8711C225.244 21.55 227.021 20.9023 230.348 20.9023V10.9023V0.902344C224.908 0.902344 219.359 1.88746 214.789 4.48832C209.974 7.22791 205.695 12.2439 205.695 19.3242H215.695ZM230.348 16.2734V6.27344C227.732 6.27344 224.396 6.49673 221.368 7.70286C219.776 8.33697 217.684 9.47126 215.958 11.5472C214.069 13.818 213.116 16.6292 213.174 19.5242L223.172 19.3242L233.17 19.1243C233.206 20.945 232.581 22.8377 231.335 24.3351C230.252 25.6376 229.119 26.1435 228.768 26.2835C228.386 26.4355 228.286 26.4097 228.658 26.3601C228.994 26.3153 229.545 26.2734 230.348 26.2734V16.2734ZM223.172 19.3242L213.174 19.1069C213.107 22.2032 214.228 25.0733 216.196 27.2723C217.961 29.2432 220.039 30.2807 221.543 30.8471C224.451 31.9423 227.67 32.1778 230.252 32.2027L230.348 22.2031L230.444 12.2036C229.617 12.1956 229.03 12.1503 228.65 12.1C228.236 12.045 228.274 12.0106 228.592 12.1305C228.856 12.2296 229.975 12.679 231.097 13.9315C232.422 15.412 233.215 17.4335 233.17 19.5416L223.172 19.3242ZM230.348 22.2031L230.445 32.2027C233.013 32.1777 236.219 31.9408 239.125 30.8369C242.117 29.7003 247.48 26.3465 247.48 19.3242H237.48H227.48C227.48 17.2865 228.267 15.345 229.552 13.9161C230.65 12.6949 231.743 12.2468 232.022 12.1407C232.349 12.0167 232.399 12.0484 232 12.1018C231.635 12.1507 231.064 12.1957 230.251 12.2036L230.348 22.2031ZM237.48 19.3242H247.48C247.48 16.4904 246.518 13.7516 244.664 11.5315C242.958 9.48816 240.898 8.3554 239.302 7.714C236.275 6.498 232.951 6.27344 230.348 6.27344V16.2734V26.2734C231.137 26.2734 231.672 26.315 231.993 26.3583C232.347 26.4061 232.236 26.4289 231.846 26.2723C231.479 26.1251 230.373 25.6207 229.313 24.3509C228.105 22.9041 227.48 21.0838 227.48 19.3242H237.48Z" fill="white" mask="url(#path-1-outside-1_6526_5761)"/>
</g>
<defs>
<filter id="filter0_d_6526_5761" x="0" y="0" width="262.48" height="68.1328" filterUnits="userSpaceOnUse" color-interpolation-filters="sRGB">
<feFlood flood-opacity="0" result="BackgroundImageFix"/>
<feColorMatrix in="SourceAlpha" type="matrix" values="0 0 0 0 0 0 0 0 0 0 0 0 0 0 0 0 0 0 127 0" result="hardAlpha"/>
<feOffset dy="4"/>
<feGaussianBlur stdDeviation="2"/>
<feComposite in2="hardAlpha" operator="out"/>
<feColorMatrix type="matrix" values="0 0 0 0 0 0 0 0 0 0 0 0 0 0 0 0 0 0 0.07 0"/>
<feBlend mode="normal" in2="BackgroundImageFix" result="effect1_dropShadow_6526_5761"/>
<feBlend mode="normal" in="SourceGraphic" in2="effect1_dropShadow_6526_5761" result="shape"/>
</filter>
</defs>
</svg>
