<svg width="263" height="68" viewBox="0 0 263 68" fill="none" xmlns="http://www.w3.org/2000/svg">
<g filter="url(#filter0_d_6526_5737)">
<mask id="path-1-outside-1_6526_5737" maskUnits="userSpaceOnUse" x="3.59375" y="-0.25" width="255" height="61" fill="black">
<rect fill="white" x="3.59375" y="-0.25" width="255" height="61"/>
<path d="M32.9062 13.3945V18.9375H20.9609V24.3945H32.4766V29.7656H20.9609V35.8672C25.8164 35.8242 30.1348 35.5664 34.9688 34.8359L35.5273 40.3359C29.5977 41.1953 24.0117 41.3242 17.4375 41.3672H14L14 13.3945H32.9062ZM44.207 10.2578V24.7812H49.5781V30.4961H44.207V50.0039H37.2891V10.2578L44.207 10.2578ZM72.4375 13.3516V18.7227H50.6523V13.3516H58.4727V10H65.3477V13.3516H72.4375ZM61.8242 19.3242C67.3672 19.3242 71.4492 22.332 71.4492 26.5859C71.4492 30.8828 67.3672 33.8477 61.8242 33.8477C56.2812 33.8477 52.2852 30.8828 52.3281 26.5859C52.2852 22.332 56.2812 19.3242 61.8242 19.3242ZM61.8242 24.3945C59.9336 24.3945 58.7305 25.082 58.7305 26.5859C58.7305 28.1758 59.9336 28.9492 61.8242 28.9492C63.7148 28.9492 65.0898 28.1758 65.0898 26.5859C65.0898 25.082 63.7148 24.3945 61.8242 24.3945ZM84.3398 10.2578V34.0625H77.4648V31.6133H73.082V26.1562L77.4648 26.1562V23.707L73.168 23.707V18.25L77.4648 18.25V10.2578H84.3398ZM63.8867 35.4375V37.5859H77.5078V35.4375H84.3398V49.6602H56.9688V35.4375H63.8867ZM63.8867 44.375H77.5078V42.6133H63.8867V44.375ZM123.227 10.2578V50.0039H116.652V10.2578H123.227ZM114.762 10.7305V48.2852H108.273V29.8945H106.34C105.76 37.7148 102.43 42.3555 97.5312 42.3555C92.2031 42.3555 88.7656 36.7695 88.8086 27.5312C88.7656 18.3789 92.2031 12.793 97.5312 12.793C102.279 12.793 105.545 17.1543 106.297 24.4805H108.273V10.7305H114.762ZM97.5312 19.3242C95.8984 19.3242 95.082 21.6875 95.125 27.5312C95.082 33.418 95.8984 35.7383 97.5312 35.7383C99.207 35.7383 100.109 33.418 100.109 27.5312C100.109 21.6875 99.207 19.3242 97.5312 19.3242ZM146.902 12.9219C153.09 12.8789 157.645 18.4648 157.645 27.2305C157.645 36.125 153.09 41.668 146.902 41.668C140.672 41.668 136.074 36.125 136.117 27.2305C136.074 18.4648 140.672 12.8789 146.902 12.9219ZM146.902 19.1523C144.41 19.1094 142.777 21.7305 142.82 27.2305C142.777 32.8164 144.41 35.3516 146.902 35.3516C149.438 35.3516 151.027 32.8164 151.07 27.2305C151.027 21.7305 149.438 19.1094 146.902 19.1523ZM167.871 10.2578V24.6953H173.242V30.4102H167.871V50.0039H160.953V10.2578H167.871ZM190.902 13.6953C190.859 17.6055 192.965 21.3437 199.969 22.8047L196.918 28.1758C192.213 27.123 189.141 24.9102 187.336 21.9453C185.51 25.1895 182.373 27.6816 177.539 28.8203L174.359 23.4922C181.492 21.9453 183.684 17.7344 183.684 13.6953V11.8477H190.902V13.6953ZM208.133 10.3437V49.9609H201.258V10.3437H208.133ZM174.402 30.625C181.277 30.668 190.988 30.582 199.195 29.3789L199.668 34.2773C196.746 34.8789 193.738 35.3086 190.773 35.5664V48.8437H183.855V36.0391C180.74 36.1465 177.797 36.168 175.219 36.168L174.402 30.625ZM248.48 29.1211V34.4922H234.172V40.6367H227.168V34.4922H212.215V29.1211H248.48ZM244.527 43.9453V49.4453H216.254V37.3711H223.215V43.9453H244.527ZM230.348 10.9023C239.027 10.9023 244.914 14.168 244.914 19.3242C244.914 24.4375 239.027 27.6602 230.348 27.6602C221.582 27.6602 215.695 24.4375 215.695 19.3242C215.695 14.168 221.582 10.9023 230.348 10.9023ZM230.348 16.2734C225.879 16.2734 223.129 17.1758 223.172 19.3242C223.129 21.3008 225.879 22.1602 230.348 22.2031C234.773 22.1602 237.48 21.3008 237.48 19.3242C237.48 17.1758 234.773 16.2734 230.348 16.2734Z"/>
</mask>
<path d="M32.9062 13.3945V18.9375H20.9609V24.3945H32.4766V29.7656H20.9609V35.8672C25.8164 35.8242 30.1348 35.5664 34.9688 34.8359L35.5273 40.3359C29.5977 41.1953 24.0117 41.3242 17.4375 41.3672H14L14 13.3945H32.9062ZM44.207 10.2578V24.7812H49.5781V30.4961H44.207V50.0039H37.2891V10.2578L44.207 10.2578ZM72.4375 13.3516V18.7227H50.6523V13.3516H58.4727V10H65.3477V13.3516H72.4375ZM61.8242 19.3242C67.3672 19.3242 71.4492 22.332 71.4492 26.5859C71.4492 30.8828 67.3672 33.8477 61.8242 33.8477C56.2812 33.8477 52.2852 30.8828 52.3281 26.5859C52.2852 22.332 56.2812 19.3242 61.8242 19.3242ZM61.8242 24.3945C59.9336 24.3945 58.7305 25.082 58.7305 26.5859C58.7305 28.1758 59.9336 28.9492 61.8242 28.9492C63.7148 28.9492 65.0898 28.1758 65.0898 26.5859C65.0898 25.082 63.7148 24.3945 61.8242 24.3945ZM84.3398 10.2578V34.0625H77.4648V31.6133H73.082V26.1562L77.4648 26.1562V23.707L73.168 23.707V18.25L77.4648 18.25V10.2578H84.3398ZM63.8867 35.4375V37.5859H77.5078V35.4375H84.3398V49.6602H56.9688V35.4375H63.8867ZM63.8867 44.375H77.5078V42.6133H63.8867V44.375ZM123.227 10.2578V50.0039H116.652V10.2578H123.227ZM114.762 10.7305V48.2852H108.273V29.8945H106.34C105.76 37.7148 102.43 42.3555 97.5312 42.3555C92.2031 42.3555 88.7656 36.7695 88.8086 27.5312C88.7656 18.3789 92.2031 12.793 97.5312 12.793C102.279 12.793 105.545 17.1543 106.297 24.4805H108.273V10.7305H114.762ZM97.5312 19.3242C95.8984 19.3242 95.082 21.6875 95.125 27.5312C95.082 33.418 95.8984 35.7383 97.5312 35.7383C99.207 35.7383 100.109 33.418 100.109 27.5312C100.109 21.6875 99.207 19.3242 97.5312 19.3242ZM146.902 12.9219C153.09 12.8789 157.645 18.4648 157.645 27.2305C157.645 36.125 153.09 41.668 146.902 41.668C140.672 41.668 136.074 36.125 136.117 27.2305C136.074 18.4648 140.672 12.8789 146.902 12.9219ZM146.902 19.1523C144.41 19.1094 142.777 21.7305 142.82 27.2305C142.777 32.8164 144.41 35.3516 146.902 35.3516C149.438 35.3516 151.027 32.8164 151.07 27.2305C151.027 21.7305 149.438 19.1094 146.902 19.1523ZM167.871 10.2578V24.6953H173.242V30.4102H167.871V50.0039H160.953V10.2578H167.871ZM190.902 13.6953C190.859 17.6055 192.965 21.3437 199.969 22.8047L196.918 28.1758C192.213 27.123 189.141 24.9102 187.336 21.9453C185.51 25.1895 182.373 27.6816 177.539 28.8203L174.359 23.4922C181.492 21.9453 183.684 17.7344 183.684 13.6953V11.8477H190.902V13.6953ZM208.133 10.3437V49.9609H201.258V10.3437H208.133ZM174.402 30.625C181.277 30.668 190.988 30.582 199.195 29.3789L199.668 34.2773C196.746 34.8789 193.738 35.3086 190.773 35.5664V48.8437H183.855V36.0391C180.74 36.1465 177.797 36.168 175.219 36.168L174.402 30.625ZM248.48 29.1211V34.4922H234.172V40.6367H227.168V34.4922H212.215V29.1211H248.48ZM244.527 43.9453V49.4453H216.254V37.3711H223.215V43.9453H244.527ZM230.348 10.9023C239.027 10.9023 244.914 14.168 244.914 19.3242C244.914 24.4375 239.027 27.6602 230.348 27.6602C221.582 27.6602 215.695 24.4375 215.695 19.3242C215.695 14.168 221.582 10.9023 230.348 10.9023ZM230.348 16.2734C225.879 16.2734 223.129 17.1758 223.172 19.3242C223.129 21.3008 225.879 22.1602 230.348 22.2031C234.773 22.1602 237.48 21.3008 237.48 19.3242C237.48 17.1758 234.773 16.2734 230.348 16.2734Z" fill="#11DCA9"/>
<path d="M32.9062 13.3945H42.9062C42.9062 7.87168 38.4291 3.39453 32.9062 3.39453V13.3945ZM32.9062 18.9375V28.9375C38.4291 28.9375 42.9062 24.4603 42.9062 18.9375H32.9062ZM20.9609 18.9375V8.9375C15.4381 8.9375 10.9609 13.4147 10.9609 18.9375H20.9609ZM20.9609 24.3945H10.9609C10.9609 29.9174 15.4381 34.3945 20.9609 34.3945V24.3945ZM32.4766 24.3945H42.4766C42.4766 18.8717 37.9994 14.3945 32.4766 14.3945V24.3945ZM32.4766 29.7656V39.7656C37.9994 39.7656 42.4766 35.2885 42.4766 29.7656H32.4766ZM20.9609 29.7656V19.7656C15.4381 19.7656 10.9609 24.2428 10.9609 29.7656H20.9609ZM20.9609 35.8672H10.9609C10.9609 38.5347 12.0267 41.0916 13.9212 42.9695C15.8158 44.8473 18.382 45.8904 21.0494 45.8668L20.9609 35.8672ZM34.9688 34.8359L44.9176 33.8255C44.641 31.1028 43.2607 28.6123 41.0984 26.9348C38.936 25.2573 36.1806 24.5393 33.4746 24.9482L34.9688 34.8359ZM35.5273 40.3359L36.9616 50.2325C42.263 49.4642 46.0174 44.6549 45.4762 39.3255L35.5273 40.3359ZM17.4375 41.3672V51.3672C17.4593 51.3672 17.4811 51.3671 17.5029 51.367L17.4375 41.3672ZM14 41.3672H4C4 46.89 8.47715 51.3672 14 51.3672V41.3672ZM14 13.3945V3.39453C8.47715 3.39453 4 7.87168 4 13.3945H14ZM44.207 10.2578H54.207C54.207 4.73496 49.7299 0.257812 44.207 0.257812V10.2578ZM44.207 24.7812H34.207C34.207 30.3041 38.6842 34.7812 44.207 34.7812V24.7812ZM49.5781 24.7812H59.5781C59.5781 19.2584 55.101 14.7812 49.5781 14.7812V24.7812ZM49.5781 30.4961V40.4961C55.101 40.4961 59.5781 36.0189 59.5781 30.4961H49.5781ZM44.207 30.4961V20.4961C38.6842 20.4961 34.207 24.9732 34.207 30.4961H44.207ZM44.207 50.0039V60.0039C49.7299 60.0039 54.207 55.5268 54.207 50.0039H44.207ZM37.2891 50.0039H27.2891C27.2891 55.5268 31.7662 60.0039 37.2891 60.0039V50.0039ZM37.2891 10.2578V0.257812C31.7662 0.257812 27.2891 4.73496 27.2891 10.2578H37.2891ZM32.9062 13.3945H22.9062V18.9375H32.9062H42.9062V13.3945H32.9062ZM32.9062 18.9375V8.9375H20.9609V18.9375V28.9375H32.9062V18.9375ZM20.9609 18.9375H10.9609V24.3945H20.9609H30.9609V18.9375H20.9609ZM20.9609 24.3945V34.3945H32.4766V24.3945V14.3945H20.9609V24.3945ZM32.4766 24.3945H22.4766V29.7656H32.4766H42.4766V24.3945H32.4766ZM32.4766 29.7656V19.7656H20.9609V29.7656V39.7656H32.4766V29.7656ZM20.9609 29.7656H10.9609L10.9609 35.8672H20.9609H30.9609V29.7656H20.9609ZM20.9609 35.8672L21.0494 45.8668C26.2447 45.8208 31.05 45.5416 36.4629 44.7237L34.9688 34.8359L33.4746 24.9482C29.2195 25.5912 25.3881 25.8276 20.8724 25.8676L20.9609 35.8672ZM34.9688 34.8359L25.0199 35.8464L25.5785 41.3464L35.5273 40.3359L45.4762 39.3255L44.9176 33.8255L34.9688 34.8359ZM35.5273 40.3359L34.0931 30.4393C28.8979 31.1923 23.9063 31.3247 17.3721 31.3674L17.4375 41.3672L17.5029 51.367C24.1172 51.3237 30.2975 51.1984 36.9616 50.2325L35.5273 40.3359ZM17.4375 41.3672V31.3672H14L14 41.3672V51.3672H17.4375V41.3672ZM14 41.3672H24V13.3945H14H4V41.3672H14ZM14 13.3945V23.3945H32.9062V13.3945V3.39453L14 3.39453V13.3945ZM44.207 10.2578L34.207 10.2578V24.7812H44.207H54.207V10.2578H44.207ZM44.207 24.7812V34.7812H49.5781V24.7812V14.7812H44.207V24.7812ZM49.5781 24.7812H39.5781V30.4961H49.5781H59.5781V24.7812H49.5781ZM49.5781 30.4961V20.4961H44.207V30.4961V40.4961H49.5781V30.4961ZM44.207 30.4961H34.207V50.0039H44.207H54.207V30.4961H44.207ZM44.207 50.0039V40.0039H37.2891V50.0039V60.0039H44.207V50.0039ZM37.2891 50.0039H47.2891V10.2578L37.2891 10.2578H27.2891V50.0039H37.2891ZM37.2891 10.2578V20.2578H44.207V10.2578V0.257812H37.2891V10.2578ZM72.4375 13.3516L82.4375 13.3516C82.4375 7.82872 77.9604 3.35156 72.4375 3.35156V13.3516ZM72.4375 18.7227V28.7227C77.9604 28.7227 82.4375 24.2455 82.4375 18.7227L72.4375 18.7227ZM50.6523 18.7227H40.6523C40.6523 24.2455 45.1295 28.7227 50.6523 28.7227V18.7227ZM50.6523 13.3516V3.35156C45.1295 3.35156 40.6523 7.82872 40.6523 13.3516H50.6523ZM58.4727 13.3516V23.3516C63.9955 23.3516 68.4727 18.8744 68.4727 13.3516H58.4727ZM58.4727 10V0C52.9498 0 48.4727 4.47715 48.4727 10H58.4727ZM65.3477 10H75.3477C75.3477 4.47715 70.8705 0 65.3477 0V10ZM65.3477 13.3516H55.3477C55.3477 18.8744 59.8248 23.3516 65.3477 23.3516V13.3516ZM52.3281 26.5859L62.3276 26.6859C62.3283 26.6189 62.3283 26.5519 62.3276 26.4849L52.3281 26.5859ZM84.3398 10.2578H94.3398C94.3398 4.73496 89.8627 0.257812 84.3398 0.257812V10.2578ZM84.3398 34.0625V44.0625C89.8627 44.0625 94.3398 39.5853 94.3398 34.0625H84.3398ZM77.4648 34.0625H67.4648C67.4648 39.5853 71.942 44.0625 77.4648 44.0625V34.0625ZM77.4648 31.6133H87.4648C87.4648 26.0904 82.9877 21.6133 77.4648 21.6133V31.6133ZM73.082 31.6133H63.082C63.082 37.1361 67.5592 41.6133 73.082 41.6133V31.6133ZM73.082 26.1562V16.1562C67.5592 16.1562 63.082 20.6334 63.082 26.1562H73.082ZM77.4648 26.1562V36.1562C82.9877 36.1562 87.4648 31.6791 87.4648 26.1562H77.4648ZM77.4648 23.707H87.4648C87.4648 18.1842 82.9877 13.707 77.4648 13.707V23.707ZM73.168 23.707H63.168C63.168 29.2299 67.6451 33.707 73.168 33.707V23.707ZM73.168 18.25V8.25C67.6451 8.25 63.168 12.7272 63.168 18.25H73.168ZM77.4648 18.25V28.25C82.9877 28.25 87.4648 23.7728 87.4648 18.25H77.4648ZM77.4648 10.2578V0.257812C71.942 0.257812 67.4648 4.73496 67.4648 10.2578H77.4648ZM63.8867 35.4375H73.8867C73.8867 29.9147 69.4096 25.4375 63.8867 25.4375V35.4375ZM63.8867 37.5859H53.8867C53.8867 43.1088 58.3639 47.5859 63.8867 47.5859V37.5859ZM77.5078 37.5859V47.5859C83.0307 47.5859 87.5078 43.1088 87.5078 37.5859H77.5078ZM77.5078 35.4375V25.4375C71.985 25.4375 67.5078 29.9147 67.5078 35.4375H77.5078ZM84.3398 35.4375H94.3398C94.3398 29.9147 89.8627 25.4375 84.3398 25.4375V35.4375ZM84.3398 49.6602V59.6602C89.8627 59.6602 94.3398 55.183 94.3398 49.6602H84.3398ZM56.9688 49.6602H46.9688C46.9688 55.183 51.4459 59.6602 56.9688 59.6602V49.6602ZM56.9688 35.4375V25.4375C51.4459 25.4375 46.9688 29.9147 46.9688 35.4375H56.9688ZM63.8867 44.375H53.8867C53.8867 49.8978 58.3639 54.375 63.8867 54.375V44.375ZM77.5078 44.375V54.375C83.0307 54.375 87.5078 49.8978 87.5078 44.375H77.5078ZM77.5078 42.6133H87.5078C87.5078 37.0904 83.0307 32.6133 77.5078 32.6133V42.6133ZM63.8867 42.6133V32.6133C58.3639 32.6133 53.8867 37.0904 53.8867 42.6133H63.8867ZM72.4375 13.3516H62.4375V18.7227H72.4375L82.4375 18.7227V13.3516L72.4375 13.3516ZM72.4375 18.7227V8.72266H50.6523V18.7227V28.7227H72.4375V18.7227ZM50.6523 18.7227H60.6523V13.3516H50.6523H40.6523V18.7227H50.6523ZM50.6523 13.3516V23.3516H58.4727V13.3516V3.35156H50.6523V13.3516ZM58.4727 13.3516H68.4727V10H58.4727H48.4727V13.3516H58.4727ZM58.4727 10V20H65.3477V10V0H58.4727V10ZM65.3477 10H55.3477V13.3516H65.3477H75.3477V10H65.3477ZM65.3477 13.3516V23.3516H72.4375V13.3516V3.35156H65.3477V13.3516ZM61.8242 19.3242V29.3242C62.8773 29.3242 63.0604 29.6184 62.7193 29.3629C62.5261 29.2181 62.1899 28.9038 61.9007 28.3615C61.5996 27.7968 61.4492 27.1671 61.4492 26.5859H71.4492L81.4492 26.5859C81.4492 14.324 70.0231 9.32422 61.8242 9.32422V19.3242ZM71.4492 26.5859H61.4492C61.4492 26.0316 61.592 25.4087 61.8962 24.8369C62.1888 24.2868 62.5327 23.9643 62.7355 23.8131C63.0908 23.548 62.9094 23.8477 61.8242 23.8477V33.8477V43.8477C66.282 43.8477 70.9131 42.6649 74.6952 39.8432C78.6449 36.8964 81.4492 32.24 81.4492 26.5859L71.4492 26.5859ZM61.8242 33.8477V23.8477C60.738 23.8477 60.6127 23.5485 61.022 23.8587C61.2515 24.0327 61.6078 24.3797 61.901 24.9479C62.2042 25.5355 62.3329 26.1558 62.3276 26.6859L52.3281 26.5859L42.3286 26.4859C42.2725 32.0951 44.9777 36.7936 48.9409 39.7976C52.7232 42.6644 57.3675 43.8477 61.8242 43.8477V33.8477ZM52.3281 26.5859L62.3276 26.4849C62.3332 27.042 62.1971 27.6696 61.8967 28.2504C61.6068 28.811 61.258 29.1497 61.0381 29.3171C60.6431 29.6177 60.7704 29.3242 61.8242 29.3242V19.3242V9.32422C57.3351 9.32422 52.6928 10.5346 48.9248 13.4026C44.9951 16.3938 42.272 21.0777 42.3286 26.6869L52.3281 26.5859ZM61.8242 24.3945V14.3945C59.9315 14.3945 56.875 14.6938 54.0022 16.6186C50.5204 18.9514 48.7305 22.7134 48.7305 26.5859H58.7305H68.7305C68.7305 27.5645 68.5269 28.8525 67.8353 30.1933C67.1342 31.5527 66.1396 32.5606 65.1345 33.234C63.3359 34.439 61.8263 34.3945 61.8242 34.3945V24.3945ZM58.7305 26.5859H48.7305C48.7305 30.2378 50.2961 33.9761 53.6722 36.4406C56.5714 38.557 59.7385 38.9492 61.8242 38.9492V28.9492V18.9492C62.0193 18.9492 63.6395 18.9547 65.4645 20.2869C66.4527 21.0083 67.3496 22.0221 67.9607 23.2933C68.5595 24.539 68.7305 25.7095 68.7305 26.5859H58.7305ZM61.8242 28.9492V38.9492C63.9232 38.9492 66.9503 38.5519 69.766 36.6487C73.0578 34.4237 75.0898 30.7494 75.0898 26.5859H65.0898H55.0898C55.0898 25.5031 55.3356 24.2024 56.0286 22.9076C56.7181 21.6191 57.6604 20.691 58.566 20.0788C60.2216 18.9598 61.6158 18.9492 61.8242 18.9492V28.9492ZM65.0898 26.5859H75.0898C75.0898 22.1711 72.7809 18.5027 69.4377 16.4287C66.6572 14.7038 63.7399 14.3945 61.8242 14.3945V24.3945V34.3945C61.7992 34.3945 60.5146 34.4291 58.8943 33.4239C57.9872 32.8611 56.9546 31.949 56.1734 30.5886C55.3803 29.2074 55.0898 27.7862 55.0898 26.5859H65.0898ZM84.3398 10.2578H74.3398V34.0625H84.3398H94.3398V10.2578H84.3398ZM84.3398 34.0625V24.0625H77.4648V34.0625V44.0625H84.3398V34.0625ZM77.4648 34.0625H87.4648V31.6133H77.4648H67.4648V34.0625H77.4648ZM77.4648 31.6133V21.6133L73.082 21.6133V31.6133V41.6133H77.4648V31.6133ZM73.082 31.6133H83.082V26.1562L73.082 26.1562H63.082V31.6133H73.082ZM73.082 26.1562V36.1562H77.4648V26.1562V16.1562L73.082 16.1562V26.1562ZM77.4648 26.1562H87.4648V23.707H77.4648L67.4648 23.707V26.1562L77.4648 26.1562ZM77.4648 23.707V13.707L73.168 13.707V23.707V33.707H77.4648V23.707ZM73.168 23.707L83.168 23.707V18.25L73.168 18.25H63.168V23.707H73.168ZM73.168 18.25V28.25L77.4648 28.25V18.25V8.25H73.168V18.25ZM77.4648 18.25H87.4648V10.2578H77.4648H67.4648V18.25L77.4648 18.25ZM77.4648 10.2578V20.2578H84.3398V10.2578V0.257812L77.4648 0.257812V10.2578ZM63.8867 35.4375H53.8867V37.5859H63.8867H73.8867V35.4375H63.8867ZM63.8867 37.5859V47.5859H77.5078V37.5859V27.5859L63.8867 27.5859V37.5859ZM77.5078 37.5859H87.5078V35.4375H77.5078H67.5078V37.5859H77.5078ZM77.5078 35.4375V45.4375H84.3398V35.4375V25.4375H77.5078V35.4375ZM84.3398 35.4375H74.3398V49.6602H84.3398H94.3398V35.4375H84.3398ZM84.3398 49.6602V39.6602H56.9688V49.6602V59.6602H84.3398V49.6602ZM56.9688 49.6602H66.9688V35.4375H56.9688H46.9688V49.6602H56.9688ZM56.9688 35.4375V45.4375H63.8867V35.4375V25.4375H56.9688V35.4375ZM63.8867 44.375V54.375H77.5078V44.375V34.375H63.8867V44.375ZM77.5078 44.375H87.5078V42.6133H77.5078H67.5078V44.375H77.5078ZM77.5078 42.6133V32.6133H63.8867V42.6133V52.6133H77.5078V42.6133ZM63.8867 42.6133H53.8867V44.375H63.8867H73.8867V42.6133H63.8867ZM123.227 10.2578H133.227C133.227 4.73496 128.749 0.257812 123.227 0.257812V10.2578ZM123.227 50.0039V60.0039C128.749 60.0039 133.227 55.5268 133.227 50.0039H123.227ZM116.652 50.0039H106.652C106.652 55.5268 111.129 60.0039 116.652 60.0039V50.0039ZM116.652 10.2578V0.257812C111.129 0.257812 106.652 4.73496 106.652 10.2578L116.652 10.2578ZM114.762 10.7305H124.762C124.762 5.20762 120.285 0.730469 114.762 0.730469V10.7305ZM114.762 48.2852V58.2852C120.285 58.2852 124.762 53.808 124.762 48.2852H114.762ZM108.273 48.2852H98.2734C98.2734 53.808 102.751 58.2852 108.273 58.2852V48.2852ZM108.273 29.8945H118.273C118.273 24.3717 113.796 19.8945 108.273 19.8945V29.8945ZM106.34 29.8945V19.8945C101.104 19.8945 96.7546 23.9333 96.3672 29.1548L106.34 29.8945ZM88.8086 27.5312L98.8085 27.5778C98.8086 27.5466 98.8086 27.5155 98.8085 27.4843L88.8086 27.5312ZM106.297 24.4805L96.3491 25.5015C96.8727 30.6022 101.169 34.4805 106.297 34.4805V24.4805ZM108.273 24.4805V34.4805C113.796 34.4805 118.273 30.0033 118.273 24.4805H108.273ZM108.273 10.7305V0.730469C102.751 0.730469 98.2734 5.20762 98.2734 10.7305L108.273 10.7305ZM95.125 27.5312L105.125 27.6042C105.125 27.5554 105.125 27.5066 105.125 27.4577L95.125 27.5312ZM123.227 10.2578H113.227V50.0039H123.227H133.227V10.2578H123.227ZM123.227 50.0039V40.0039H116.652V50.0039V60.0039H123.227V50.0039ZM116.652 50.0039H126.652V10.2578H116.652L106.652 10.2578V50.0039H116.652ZM116.652 10.2578V20.2578H123.227V10.2578V0.257812H116.652V10.2578ZM114.762 10.7305L104.762 10.7305V48.2852H114.762H124.762V10.7305H114.762ZM114.762 48.2852V38.2852H108.273V48.2852V58.2852H114.762V48.2852ZM108.273 48.2852H118.273V29.8945H108.273H98.2734V48.2852H108.273ZM108.273 29.8945V19.8945H106.34V29.8945V39.8945H108.273V29.8945ZM106.34 29.8945L96.3672 29.1548C96.2679 30.4945 96.0639 31.5014 95.8465 32.2109C95.6267 32.9279 95.428 33.2306 95.4003 33.2695C95.3858 33.2899 95.5761 33.0203 96.0621 32.7522C96.5775 32.4679 97.1201 32.3555 97.5312 32.3555V42.3555V52.3555C103.62 52.3555 108.561 49.2818 111.71 44.8457C114.635 40.7245 115.941 35.637 116.312 30.6343L106.34 29.8945ZM97.5312 42.3555V32.3555C98.0253 32.3555 98.6525 32.5078 99.2073 32.8539C99.713 33.1693 99.8385 33.4436 99.7466 33.2894C99.4825 32.8461 98.7919 31.1427 98.8085 27.5778L88.8086 27.5312L78.8087 27.4847C78.7823 33.158 79.789 38.8668 82.5649 43.5261C85.555 48.5448 90.7374 52.3555 97.5312 52.3555V42.3555ZM88.8086 27.5312L98.8085 27.4843C98.792 23.9767 99.4776 22.298 99.7371 21.8643C99.8273 21.7135 99.7017 21.9855 99.1996 22.298C98.6488 22.6409 98.025 22.793 97.5312 22.793V12.793V2.79297C90.744 2.79297 85.5657 6.59624 82.5744 11.5957C79.7939 16.243 78.7822 21.9334 78.8087 27.5782L88.8086 27.5312ZM97.5312 12.793V22.793C97.1357 22.793 96.6129 22.6889 96.1084 22.421C95.6292 22.1665 95.4212 21.9009 95.4113 21.8877C95.4098 21.8857 95.4551 21.946 95.5292 22.0919C95.6033 22.2378 95.7 22.4572 95.8036 22.7636C96.0137 23.3858 96.2244 24.2859 96.3491 25.5015L106.297 24.4805L116.245 23.4594C115.755 18.6937 114.363 13.8255 111.414 9.89112C108.245 5.66382 103.408 2.79297 97.5312 2.79297V12.793ZM106.297 24.4805V34.4805H108.273V24.4805V14.4805H106.297V24.4805ZM108.273 24.4805H118.273V10.7305H108.273L98.2734 10.7305V24.4805H108.273ZM108.273 10.7305V20.7305H114.762V10.7305V0.730469H108.273V10.7305ZM97.5312 19.3242V9.32422C94.3718 9.32422 91.4519 10.6002 89.3054 12.7987C87.4476 14.7013 86.5785 16.8634 86.1344 18.3201C85.2652 21.1711 85.1024 24.4999 85.1253 27.6048L95.125 27.5312L105.125 27.4577C105.116 26.2131 105.154 25.3173 105.211 24.6999C105.272 24.0423 105.333 23.9306 105.265 24.1526C105.224 24.288 104.862 25.494 103.615 26.7709C102.94 27.4626 102.03 28.146 100.876 28.6373C99.7182 29.1306 98.5639 29.3242 97.5312 29.3242V19.3242ZM95.125 27.5312L85.1253 27.4583C85.1025 30.5746 85.2635 33.9138 86.1377 36.7694C86.5859 38.2334 87.4643 40.4047 89.3432 42.3084C91.5122 44.506 94.4263 45.7383 97.5312 45.7383V35.7383V25.7383C98.5398 25.7383 99.678 25.9238 100.828 26.4067C101.977 26.889 102.892 27.5645 103.578 28.2592C104.846 29.5438 105.216 30.7671 105.262 30.9151C105.333 31.1471 105.272 31.0426 105.211 30.3825C105.154 29.7634 105.116 28.8619 105.125 27.6042L95.125 27.5312ZM97.5312 35.7383V45.7383C100.552 45.7383 103.412 44.5797 105.59 42.4744C107.506 40.6236 108.447 38.4825 108.943 36.9813C109.904 34.0761 110.109 30.6888 110.109 27.5312H100.109H90.1094C90.1094 28.7694 90.0609 29.6487 89.9979 30.2432C89.9307 30.8771 89.8702 30.9572 89.9542 30.7033C90.0154 30.518 90.417 29.3249 91.6916 28.0931C92.3741 27.4335 93.2675 26.8046 94.3694 26.3583C95.4721 25.9118 96.5609 25.7383 97.5312 25.7383V35.7383ZM100.109 27.5312H110.109C110.109 24.3851 109.902 21.0088 108.947 18.1088C108.455 16.6155 107.524 14.4827 105.629 12.6317C103.472 10.5239 100.605 9.32422 97.5312 9.32422V19.3242V29.3242C96.5376 29.3242 95.433 29.1431 94.3226 28.6868C93.2153 28.2318 92.3259 27.5953 91.6529 26.9379C90.3988 25.7127 90.007 24.5359 89.9504 24.3638C89.8701 24.1202 89.931 24.2077 89.9981 24.8394C90.0611 25.4324 90.1094 26.3062 90.1094 27.5312H100.109ZM146.902 12.9219L146.833 22.9216C146.88 22.922 146.926 22.922 146.972 22.9216L146.902 12.9219ZM136.117 27.2305L146.117 27.2788C146.117 27.2463 146.117 27.2139 146.117 27.1814L136.117 27.2305ZM146.902 19.1523L146.73 29.1509C146.844 29.1528 146.958 29.1528 147.072 29.1509L146.902 19.1523ZM142.82 27.2305L152.82 27.3074C152.82 27.2557 152.82 27.204 152.82 27.1523L142.82 27.2305ZM151.07 27.2305L161.07 27.3074C161.07 27.2557 161.07 27.204 161.07 27.1523L151.07 27.2305ZM167.871 10.2578L177.871 10.2578C177.871 4.73496 173.394 0.257812 167.871 0.257812V10.2578ZM167.871 24.6953H157.871C157.871 30.2182 162.348 34.6953 167.871 34.6953V24.6953ZM173.242 24.6953H183.242C183.242 19.1725 178.765 14.6953 173.242 14.6953V24.6953ZM173.242 30.4102V40.4102C178.765 40.4102 183.242 35.933 183.242 30.4102H173.242ZM167.871 30.4102V20.4102C162.348 20.4102 157.871 24.8873 157.871 30.4102H167.871ZM167.871 50.0039V60.0039C173.394 60.0039 177.871 55.5268 177.871 50.0039H167.871ZM160.953 50.0039H150.953C150.953 55.5268 155.43 60.0039 160.953 60.0039V50.0039ZM160.953 10.2578V0.257812C155.43 0.257812 150.953 4.73496 150.953 10.2578H160.953ZM146.902 12.9219L146.972 22.9216C146.985 22.9215 146.952 22.9228 146.887 22.9077C146.822 22.8925 146.751 22.8673 146.686 22.8344C146.54 22.7609 146.55 22.7177 146.666 22.8684C146.928 23.2083 147.645 24.4896 147.645 27.2305H157.645H167.645C167.645 21.2058 166.084 15.3112 162.521 10.6775C158.823 5.86718 153.25 2.87755 146.833 2.92212L146.902 12.9219ZM157.645 27.2305H147.645C147.645 30.0624 146.914 31.365 146.654 31.7057C146.538 31.8568 146.526 31.8166 146.664 31.7465C146.811 31.6716 146.923 31.668 146.902 31.668V41.668V51.668C153.273 51.668 158.831 48.6997 162.534 43.8636C166.097 39.2093 167.645 33.2931 167.645 27.2305H157.645ZM146.902 41.668V31.668C146.859 31.668 146.951 31.6662 147.084 31.7334C147.209 31.7965 147.194 31.8312 147.081 31.6843C146.829 31.3567 146.104 30.0795 146.117 27.2788L136.117 27.2305L126.117 27.1822C126.088 33.2759 127.64 39.2175 131.234 43.8851C134.962 48.7275 140.543 51.668 146.902 51.668V41.668ZM136.117 27.2305L146.117 27.1814C146.104 24.4724 146.815 23.2167 147.068 22.8899C147.182 22.7433 147.195 22.781 147.062 22.8474C146.92 22.9188 146.811 22.9215 146.833 22.9216L146.902 12.9219L146.971 2.92211C140.565 2.87793 134.971 5.83923 131.246 10.656C127.653 15.3028 126.088 21.2229 126.117 27.2795L136.117 27.2305ZM146.902 19.1523L147.075 9.15383C141.426 9.05644 137.244 12.3694 135.09 16.4014C133.242 19.8609 132.793 23.8242 132.821 27.3086L142.82 27.2305L152.82 27.1523C152.813 26.2557 152.878 25.7064 152.927 25.4382C152.98 25.1492 152.983 25.3524 152.731 25.8242C152.466 26.3214 151.845 27.2384 150.642 28.0169C149.375 28.8375 147.969 29.1722 146.73 29.1509L146.902 19.1523ZM142.82 27.2305L132.821 27.1535C132.794 30.6572 133.235 34.639 135.098 38.1119C137.294 42.2064 141.452 45.3516 146.902 45.3516V35.3516V25.3516C148.054 25.3516 149.398 25.67 150.634 26.4692C151.819 27.2349 152.446 28.1423 152.723 28.6596C152.983 29.1444 152.981 29.3585 152.928 29.0677C152.879 28.7964 152.813 28.2346 152.82 27.3074L142.82 27.2305ZM146.902 35.3516V45.3516C152.341 45.3516 156.503 42.241 158.719 38.1394C160.577 34.7009 161.044 30.7509 161.07 27.3074L151.07 27.2305L141.071 27.1535C141.063 28.1061 140.99 28.6913 140.934 28.9866C140.874 29.3028 140.868 29.1043 141.123 28.6321C141.397 28.1248 142.024 27.2171 143.215 26.4528C144.458 25.6549 145.791 25.3516 146.902 25.3516V35.3516ZM151.07 27.2305L161.07 27.1523C161.043 23.7301 160.57 19.7991 158.727 16.3739C156.552 12.3329 152.366 9.0583 146.733 9.15378L146.902 19.1523L147.072 29.1509C145.875 29.1712 144.481 28.8528 143.207 28.0333C141.999 27.2563 141.377 26.3389 141.115 25.8517C140.868 25.3924 140.875 25.205 140.935 25.5196C140.991 25.8122 141.063 26.3857 141.071 27.3086L151.07 27.2305ZM167.871 10.2578H157.871V24.6953H167.871H177.871V10.2578L167.871 10.2578ZM167.871 24.6953V34.6953H173.242V24.6953V14.6953H167.871V24.6953ZM173.242 24.6953H163.242V30.4102H173.242H183.242V24.6953H173.242ZM173.242 30.4102V20.4102H167.871V30.4102V40.4102H173.242V30.4102ZM167.871 30.4102H157.871V50.0039H167.871H177.871V30.4102H167.871ZM167.871 50.0039V40.0039H160.953V50.0039V60.0039H167.871V50.0039ZM160.953 50.0039H170.953V10.2578H160.953H150.953V50.0039H160.953ZM160.953 10.2578V20.2578H167.871V10.2578V0.257812L160.953 0.257812V10.2578ZM190.902 13.6953L200.902 13.8052C200.902 13.7686 200.902 13.7319 200.902 13.6953H190.902ZM199.969 22.8047L208.664 27.7436C210.242 24.9652 210.397 21.5999 209.082 18.6879C207.767 15.7759 205.139 13.6679 202.011 13.0154L199.969 22.8047ZM196.918 28.1758L194.735 37.9345C199.026 38.8947 203.441 36.9386 205.613 33.1147L196.918 28.1758ZM187.336 21.9453L195.878 16.7458C194.032 13.7128 190.716 11.8863 187.166 11.9468C183.615 12.0073 180.363 13.9458 178.622 17.04L187.336 21.9453ZM177.539 28.8203L168.952 33.9449C171.186 37.6887 175.588 39.5535 179.832 38.5539L177.539 28.8203ZM174.359 23.4922L172.24 13.7194C169.094 14.4017 166.469 16.5568 165.187 19.5098C163.905 22.4628 164.123 25.8523 165.772 28.6168L174.359 23.4922ZM183.684 11.8477V1.84766C178.161 1.84766 173.684 6.32481 173.684 11.8477H183.684ZM190.902 11.8477H200.902C200.902 6.32481 196.425 1.84766 190.902 1.84766V11.8477ZM208.133 10.3437H218.133C218.133 4.8209 213.656 0.34375 208.133 0.34375V10.3437ZM208.133 49.9609V59.9609C213.656 59.9609 218.133 55.4838 218.133 49.9609H208.133ZM201.258 49.9609H191.258C191.258 55.4838 195.735 59.9609 201.258 59.9609V49.9609ZM201.258 10.3437V0.34375C195.735 0.34375 191.258 4.8209 191.258 10.3437H201.258ZM174.402 30.625L174.465 20.6252C171.548 20.607 168.768 21.8636 166.854 24.0658C164.94 26.2679 164.084 29.1959 164.509 32.0821L174.402 30.625ZM199.195 29.3789L209.149 28.4185C208.886 25.6933 207.517 23.1951 205.362 21.5068C203.207 19.8184 200.454 19.0875 197.745 19.4847L199.195 29.3789ZM199.668 34.2773L201.684 44.0719C206.69 43.0415 210.113 38.4033 209.622 33.3169L199.668 34.2773ZM190.773 35.5664L189.907 25.604C184.74 26.0534 180.773 30.3793 180.773 35.5664H190.773ZM190.773 48.8437V58.8437C196.296 58.8437 200.773 54.3666 200.773 48.8437H190.773ZM183.855 48.8437H173.855C173.855 54.3666 178.333 58.8437 183.855 58.8437V48.8437ZM183.855 36.0391H193.855C193.855 33.3271 192.754 30.7315 190.804 28.8472C188.853 26.9629 186.221 25.9515 183.511 26.045L183.855 36.0391ZM175.219 36.168L165.325 37.6251C166.048 42.5322 170.259 46.168 175.219 46.168V36.168ZM190.902 13.6953L180.903 13.5854C180.861 17.4301 181.91 21.8932 185.247 25.7302C188.497 29.4675 193.013 31.569 197.927 32.594L199.969 22.8047L202.011 13.0154C199.921 12.5795 199.882 12.0813 200.339 12.6067C200.557 12.8571 200.727 13.1676 200.824 13.4649C200.912 13.7354 200.901 13.8738 200.902 13.8052L190.902 13.6953ZM199.969 22.8047L191.273 17.8658L188.223 23.2369L196.918 28.1758L205.613 33.1147L208.664 27.7436L199.969 22.8047ZM196.918 28.1758L199.101 18.4171C197.753 18.1153 196.991 17.7274 196.59 17.4593C196.215 17.2092 196.019 16.9772 195.878 16.7458L187.336 21.9453L178.794 27.1448C182.255 32.83 187.873 36.3994 194.735 37.9345L196.918 28.1758ZM187.336 21.9453L178.622 17.04C178.391 17.4496 178.106 17.7789 177.7 18.0734C177.28 18.3777 176.536 18.783 175.246 19.0867L177.539 28.8203L179.832 38.5539C187.128 36.8352 192.727 32.7535 196.05 26.8507L187.336 21.9453ZM177.539 28.8203L186.126 23.6957L182.947 18.3676L174.359 23.4922L165.772 28.6168L168.952 33.9449L177.539 28.8203ZM174.359 23.4922L176.479 33.265C181.685 32.1359 186.226 29.7656 189.421 25.8787C192.617 21.9906 193.684 17.5372 193.684 13.6953H183.684H173.684C173.684 13.8074 173.668 13.7815 173.709 13.6554C173.755 13.5103 173.845 13.3317 173.972 13.1779C174.098 13.0241 174.143 13.0377 173.947 13.1476C173.732 13.2675 173.215 13.5078 172.24 13.7194L174.359 23.4922ZM183.684 13.6953H193.684V11.8477H183.684H173.684V13.6953H183.684ZM183.684 11.8477V21.8477H190.902V11.8477V1.84766L183.684 1.84766V11.8477ZM190.902 11.8477H180.902V13.6953H190.902H200.902V11.8477H190.902ZM208.133 10.3437H198.133V49.9609H208.133H218.133V10.3437H208.133ZM208.133 49.9609V39.9609H201.258V49.9609V59.9609H208.133V49.9609ZM201.258 49.9609H211.258V10.3437H201.258H191.258V49.9609H201.258ZM201.258 10.3437V20.3437L208.133 20.3437V10.3437V0.34375H201.258V10.3437ZM174.402 30.625L174.34 40.6248C181.221 40.6678 191.611 40.5977 200.646 39.2732L199.195 29.3789L197.745 19.4847C190.366 20.5664 181.334 20.6681 174.465 20.6252L174.402 30.625ZM199.195 29.3789L189.242 30.3394L189.714 35.2378L199.668 34.2773L209.622 33.3169L209.149 28.4185L199.195 29.3789ZM199.668 34.2773L197.651 24.4828C195.128 25.0022 192.506 25.378 189.907 25.604L190.773 35.5664L191.64 45.5288C194.971 45.2391 198.364 44.7556 201.684 44.0719L199.668 34.2773ZM190.773 35.5664H180.773V48.8437H190.773H200.773V35.5664H190.773ZM190.773 48.8437V38.8437H183.855V48.8437V58.8437H190.773V48.8437ZM183.855 48.8437H193.855V36.0391H183.855H173.855V48.8437H183.855ZM183.855 36.0391L183.511 26.045C180.56 26.1468 177.746 26.168 175.219 26.168V36.168V46.168C177.848 46.168 180.92 46.1462 184.2 46.0331L183.855 36.0391ZM175.219 36.168L185.112 34.7108L184.296 29.1679L174.402 30.625L164.509 32.0821L165.325 37.6251L175.219 36.168ZM248.48 29.1211H258.48C258.48 23.5982 254.003 19.1211 248.48 19.1211V29.1211ZM248.48 34.4922V44.4922C254.003 44.4922 258.48 40.015 258.48 34.4922H248.48ZM234.172 34.4922V24.4922C228.649 24.4922 224.172 28.9693 224.172 34.4922H234.172ZM234.172 40.6367V50.6367C239.695 50.6367 244.172 46.1596 244.172 40.6367H234.172ZM227.168 40.6367H217.168C217.168 46.1596 221.645 50.6367 227.168 50.6367V40.6367ZM227.168 34.4922H237.168C237.168 28.9693 232.691 24.4922 227.168 24.4922V34.4922ZM212.215 34.4922H202.215C202.215 40.015 206.692 44.4922 212.215 44.4922V34.4922ZM212.215 29.1211V19.1211C206.692 19.1211 202.215 23.5982 202.215 29.1211H212.215ZM244.527 43.9453H254.527C254.527 38.4225 250.05 33.9453 244.527 33.9453V43.9453ZM244.527 49.4453V59.4453C250.05 59.4453 254.527 54.9682 254.527 49.4453H244.527ZM216.254 49.4453H206.254C206.254 54.9682 210.731 59.4453 216.254 59.4453V49.4453ZM216.254 37.3711V27.3711C210.731 27.3711 206.254 31.8482 206.254 37.3711H216.254ZM223.215 37.3711H233.215C233.215 31.8482 228.738 27.3711 223.215 27.3711V37.3711ZM223.215 43.9453H213.215C213.215 49.4682 217.692 53.9453 223.215 53.9453V43.9453ZM223.172 19.3242L233.17 19.5416C233.173 19.4025 233.173 19.2633 233.17 19.1243L223.172 19.3242ZM230.348 22.2031L230.252 32.2027C230.316 32.2033 230.38 32.2033 230.445 32.2027L230.348 22.2031ZM248.48 29.1211H238.48V34.4922H248.48H258.48V29.1211H248.48ZM248.48 34.4922V24.4922H234.172V34.4922V44.4922H248.48V34.4922ZM234.172 34.4922H224.172V40.6367H234.172H244.172V34.4922H234.172ZM234.172 40.6367V30.6367H227.168V40.6367V50.6367H234.172V40.6367ZM227.168 40.6367H237.168V34.4922H227.168H217.168V40.6367H227.168ZM227.168 34.4922V24.4922H212.215V34.4922V44.4922H227.168V34.4922ZM212.215 34.4922H222.215V29.1211H212.215H202.215V34.4922H212.215ZM212.215 29.1211V39.1211H248.48V29.1211V19.1211H212.215V29.1211ZM244.527 43.9453H234.527V49.4453H244.527H254.527V43.9453H244.527ZM244.527 49.4453V39.4453H216.254V49.4453V59.4453H244.527V49.4453ZM216.254 49.4453H226.254V37.3711H216.254H206.254V49.4453H216.254ZM216.254 37.3711V47.3711H223.215V37.3711V27.3711H216.254V37.3711ZM223.215 37.3711H213.215V43.9453H223.215H233.215V37.3711H223.215ZM223.215 43.9453V53.9453H244.527V43.9453V33.9453H223.215V43.9453ZM230.348 10.9023V20.9023C233.617 20.9023 235.369 21.545 235.924 21.8621C236.146 21.9887 235.88 21.8932 235.538 21.38C235.148 20.7955 234.914 20.0415 234.914 19.3242H244.914H254.914C254.914 12.251 250.643 7.2379 245.847 4.49726C241.289 1.89247 235.758 0.902344 230.348 0.902344V10.9023ZM244.914 19.3242H234.914C234.914 18.5768 235.16 17.7984 235.563 17.1992C235.917 16.6744 236.191 16.5765 235.966 16.7037C235.403 17.0217 233.635 17.6602 230.348 17.6602V27.6602V37.6602C235.74 37.6602 241.255 36.6872 245.806 34.1156C250.59 31.4121 254.914 26.4242 254.914 19.3242H244.914ZM230.348 27.6602V17.6602C227.003 17.6602 225.211 17.0169 224.639 16.6949C224.41 16.5661 224.686 16.6637 225.042 17.1917C225.449 17.7946 225.695 18.5763 225.695 19.3242H215.695H205.695C205.695 26.4313 210.028 31.422 214.83 34.1245C219.393 36.6921 224.927 37.6602 230.348 37.6602V27.6602ZM215.695 19.3242H225.695C225.695 20.042 225.461 20.7992 225.068 21.3875C224.723 21.9039 224.455 21.9992 224.68 21.8711C225.244 21.55 227.021 20.9023 230.348 20.9023V10.9023V0.902344C224.908 0.902344 219.359 1.88746 214.789 4.48832C209.974 7.22791 205.695 12.2439 205.695 19.3242H215.695ZM230.348 16.2734V6.27344C227.732 6.27344 224.396 6.49673 221.368 7.70286C219.776 8.33697 217.684 9.47126 215.958 11.5472C214.069 13.818 213.116 16.6292 213.174 19.5242L223.172 19.3242L233.17 19.1243C233.206 20.945 232.581 22.8377 231.335 24.3351C230.252 25.6376 229.119 26.1435 228.768 26.2835C228.386 26.4355 228.286 26.4097 228.658 26.3601C228.994 26.3153 229.545 26.2734 230.348 26.2734V16.2734ZM223.172 19.3242L213.174 19.1069C213.107 22.2032 214.228 25.0733 216.196 27.2723C217.961 29.2432 220.039 30.2807 221.543 30.8471C224.451 31.9423 227.67 32.1778 230.252 32.2027L230.348 22.2031L230.444 12.2036C229.617 12.1956 229.03 12.1503 228.65 12.1C228.236 12.045 228.274 12.0106 228.592 12.1305C228.856 12.2296 229.975 12.679 231.097 13.9315C232.422 15.412 233.215 17.4335 233.17 19.5416L223.172 19.3242ZM230.348 22.2031L230.445 32.2027C233.013 32.1777 236.219 31.9408 239.125 30.8369C242.117 29.7003 247.48 26.3465 247.48 19.3242H237.48H227.48C227.48 17.2865 228.267 15.345 229.552 13.9161C230.65 12.6949 231.743 12.2468 232.022 12.1407C232.349 12.0167 232.399 12.0484 232 12.1018C231.635 12.1507 231.064 12.1957 230.251 12.2036L230.348 22.2031ZM237.48 19.3242H247.48C247.48 16.4904 246.518 13.7516 244.664 11.5315C242.958 9.48816 240.898 8.3554 239.302 7.714C236.275 6.498 232.951 6.27344 230.348 6.27344V16.2734V26.2734C231.137 26.2734 231.672 26.315 231.993 26.3583C232.347 26.4061 232.236 26.4289 231.846 26.2723C231.479 26.1251 230.373 25.6207 229.313 24.3509C228.105 22.9041 227.48 21.0838 227.48 19.3242H237.48Z" fill="white" mask="url(#path-1-outside-1_6526_5737)"/>
</g>
<defs>
<filter id="filter0_d_6526_5737" x="0" y="0" width="262.48" height="68.0039" filterUnits="userSpaceOnUse" color-interpolation-filters="sRGB">
<feFlood flood-opacity="0" result="BackgroundImageFix"/>
<feColorMatrix in="SourceAlpha" type="matrix" values="0 0 0 0 0 0 0 0 0 0 0 0 0 0 0 0 0 0 127 0" result="hardAlpha"/>
<feOffset dy="4"/>
<feGaussianBlur stdDeviation="2"/>
<feComposite in2="hardAlpha" operator="out"/>
<feColorMatrix type="matrix" values="0 0 0 0 0 0 0 0 0 0 0 0 0 0 0 0 0 0 0.07 0"/>
<feBlend mode="normal" in2="BackgroundImageFix" result="effect1_dropShadow_6526_5737"/>
<feBlend mode="normal" in="SourceGraphic" in2="effect1_dropShadow_6526_5737" result="shape"/>
</filter>
</defs>
</svg>
