<svg width="386" height="68" viewBox="0 0 386 68" fill="none" xmlns="http://www.w3.org/2000/svg">
<g filter="url(#filter0_d_6524_1831)">
<mask id="path-1-outside-1_6524_1831" maskUnits="userSpaceOnUse" x="3.99219" y="-0.507813" width="378" height="61" fill="black">
<rect fill="white" x="3.99219" y="-0.507813" width="378" height="61"/>
<path d="M33.3789 12.1914V17.6484H20.918V19.5391H32.1758V24.8242H20.918V26.7578C27.0195 26.7363 31.2305 26.6289 35.8711 25.8555L36.5156 31.1406C30.9727 32.1289 25.8164 32.1719 17.5234 32.1719H14V12.1914H33.3789ZM45.4102 10.0859V33.5898H38.4922V10.0859L45.4102 10.0859ZM45.4102 34.9648V49.4023H18.2969V34.9648H45.4102ZM25.0859 40.293V43.9023H38.6641V40.293H25.0859ZM95.7695 29.9805V35.3516H81.6328V40.8516H74.8008V35.3516H59.5039V29.9805H95.7695ZM91.8164 43.6875V49.1875H63.457V38.1016H70.2891V43.6875H91.8164ZM70.7617 11.2891V14.8555L84.3398 14.8555V11.2891H91.1719V27.918L64.0156 27.918V11.2891H70.7617ZM70.7617 22.5469L84.3398 22.5469V19.8828L70.7617 19.8828V22.5469ZM110.379 11.5039C116.523 11.5039 121.078 15.0703 121.078 20.1836C121.078 25.168 116.523 28.8203 110.379 28.7773C104.277 28.8203 99.7656 25.168 99.8086 20.1836C99.7656 15.0703 104.277 11.5039 110.379 11.5039ZM110.379 17.0039C108.059 17.0039 106.426 17.9922 106.426 20.1836C106.426 22.2461 108.059 23.2344 110.379 23.1914C112.871 23.2344 114.547 22.2461 114.547 20.1836C114.547 17.9922 112.871 17.0039 110.379 17.0039ZM131.477 10.0859V49.7031H124.602V10.0859H131.477ZM97.7461 30.582C104.492 30.5391 114.332 30.4102 122.539 29.1641L123.012 34.1484C120.09 34.793 117.082 35.2012 114.117 35.4805V48.5859H107.199V35.9102C104.062 36.0391 101.141 36.082 98.5625 36.125L97.7461 30.582ZM169.289 10V49.7461H162.285V10H169.289ZM157.258 14.082C157.258 26.543 153.734 36.4687 138.996 43.3437L135.473 37.9297C145.398 33.2031 149.373 27.7461 150.254 19.4531H137.75V14.082H157.258ZM209.852 27.4023V32.4297H173.586V27.4023L209.852 27.4023ZM205.641 33.6328V43.6445H184.414V44.9336H206.715V49.4883H177.582V39.3906H198.809V38.2734H177.582V33.6328H205.641ZM205.641 10.4727V20.4844L184.801 20.4844V21.7734L206.328 21.7734V26.2852L177.969 26.2852V16.2305H198.766V15.0273H177.926V10.4727H205.641ZM255.012 10V33.5898H248.137V24.8242H243.152V19.2812H248.137V10H255.012ZM241.176 34.2344C249.812 34.2344 255.098 37.1133 255.098 42.0547C255.098 46.9531 249.812 49.875 241.176 49.875C232.625 49.875 227.34 46.9531 227.34 42.0547C227.34 37.1133 232.625 34.2344 241.176 34.2344ZM241.176 39.4336C236.449 39.4336 234.172 40.1641 234.215 42.0547C234.172 43.9023 236.449 44.6758 241.176 44.6758C245.945 44.6758 248.266 43.9023 248.266 42.0547C248.266 40.1641 245.945 39.4336 241.176 39.4336ZM244.227 12.1055V17.6055H237.051C237.459 21.5801 239.779 25.5762 245.645 27.4883L242.336 32.8594C238.082 31.5488 235.268 28.9707 233.527 25.7695C231.809 29.4219 228.822 32.3652 224.246 33.8477L220.68 28.3906C227.018 26.3711 229.402 21.8594 229.832 17.6055H222.613V12.1055L244.227 12.1055ZM295.574 29.8945V35.2656H259.223V29.8945H273.918V26.8437H263.52V11.8906H291.32V17.3477H270.352V21.3867H291.707V26.8437H280.836V29.8945H295.574ZM291.836 43.6875V49.1875H263.391V37.4141H270.18V43.6875H291.836ZM328.961 10V25.082L334.332 25.082V30.7109H328.961V49.7461H322.129V10H328.961ZM320.195 15.6719V21.1289H297.035V15.6719H305.242V10.7305H312.117V15.6719H320.195ZM308.68 22.6758C314.566 22.6758 319.078 26.7148 319.078 32.3437C319.078 38.0156 314.566 42.0547 308.68 42.0547C302.664 42.0547 298.238 38.0156 298.238 32.3437C298.238 26.7148 302.664 22.6758 308.68 22.6758ZM308.68 28.2187C306.445 28.2187 304.812 29.6797 304.855 32.3437C304.812 35.1367 306.445 36.4687 308.68 36.4687C310.871 36.4687 312.461 35.1367 312.461 32.3437C312.461 29.6797 310.871 28.2187 308.68 28.2187ZM367.633 20.0977V25.4258H339.531V11.418H346.406V20.0977H367.633ZM371.543 28.9492V34.2773H335.277V28.9492H371.543ZM367.891 43.4727V48.9727H339.059V37.0273H346.02V43.4727H367.891Z"/>
</mask>
<path d="M33.3789 12.1914V17.6484H20.918V19.5391H32.1758V24.8242H20.918V26.7578C27.0195 26.7363 31.2305 26.6289 35.8711 25.8555L36.5156 31.1406C30.9727 32.1289 25.8164 32.1719 17.5234 32.1719H14V12.1914H33.3789ZM45.4102 10.0859V33.5898H38.4922V10.0859L45.4102 10.0859ZM45.4102 34.9648V49.4023H18.2969V34.9648H45.4102ZM25.0859 40.293V43.9023H38.6641V40.293H25.0859ZM95.7695 29.9805V35.3516H81.6328V40.8516H74.8008V35.3516H59.5039V29.9805H95.7695ZM91.8164 43.6875V49.1875H63.457V38.1016H70.2891V43.6875H91.8164ZM70.7617 11.2891V14.8555L84.3398 14.8555V11.2891H91.1719V27.918L64.0156 27.918V11.2891H70.7617ZM70.7617 22.5469L84.3398 22.5469V19.8828L70.7617 19.8828V22.5469ZM110.379 11.5039C116.523 11.5039 121.078 15.0703 121.078 20.1836C121.078 25.168 116.523 28.8203 110.379 28.7773C104.277 28.8203 99.7656 25.168 99.8086 20.1836C99.7656 15.0703 104.277 11.5039 110.379 11.5039ZM110.379 17.0039C108.059 17.0039 106.426 17.9922 106.426 20.1836C106.426 22.2461 108.059 23.2344 110.379 23.1914C112.871 23.2344 114.547 22.2461 114.547 20.1836C114.547 17.9922 112.871 17.0039 110.379 17.0039ZM131.477 10.0859V49.7031H124.602V10.0859H131.477ZM97.7461 30.582C104.492 30.5391 114.332 30.4102 122.539 29.1641L123.012 34.1484C120.09 34.793 117.082 35.2012 114.117 35.4805V48.5859H107.199V35.9102C104.062 36.0391 101.141 36.082 98.5625 36.125L97.7461 30.582ZM169.289 10V49.7461H162.285V10H169.289ZM157.258 14.082C157.258 26.543 153.734 36.4687 138.996 43.3437L135.473 37.9297C145.398 33.2031 149.373 27.7461 150.254 19.4531H137.75V14.082H157.258ZM209.852 27.4023V32.4297H173.586V27.4023L209.852 27.4023ZM205.641 33.6328V43.6445H184.414V44.9336H206.715V49.4883H177.582V39.3906H198.809V38.2734H177.582V33.6328H205.641ZM205.641 10.4727V20.4844L184.801 20.4844V21.7734L206.328 21.7734V26.2852L177.969 26.2852V16.2305H198.766V15.0273H177.926V10.4727H205.641ZM255.012 10V33.5898H248.137V24.8242H243.152V19.2812H248.137V10H255.012ZM241.176 34.2344C249.812 34.2344 255.098 37.1133 255.098 42.0547C255.098 46.9531 249.812 49.875 241.176 49.875C232.625 49.875 227.34 46.9531 227.34 42.0547C227.34 37.1133 232.625 34.2344 241.176 34.2344ZM241.176 39.4336C236.449 39.4336 234.172 40.1641 234.215 42.0547C234.172 43.9023 236.449 44.6758 241.176 44.6758C245.945 44.6758 248.266 43.9023 248.266 42.0547C248.266 40.1641 245.945 39.4336 241.176 39.4336ZM244.227 12.1055V17.6055H237.051C237.459 21.5801 239.779 25.5762 245.645 27.4883L242.336 32.8594C238.082 31.5488 235.268 28.9707 233.527 25.7695C231.809 29.4219 228.822 32.3652 224.246 33.8477L220.68 28.3906C227.018 26.3711 229.402 21.8594 229.832 17.6055H222.613V12.1055L244.227 12.1055ZM295.574 29.8945V35.2656H259.223V29.8945H273.918V26.8437H263.52V11.8906H291.32V17.3477H270.352V21.3867H291.707V26.8437H280.836V29.8945H295.574ZM291.836 43.6875V49.1875H263.391V37.4141H270.18V43.6875H291.836ZM328.961 10V25.082L334.332 25.082V30.7109H328.961V49.7461H322.129V10H328.961ZM320.195 15.6719V21.1289H297.035V15.6719H305.242V10.7305H312.117V15.6719H320.195ZM308.68 22.6758C314.566 22.6758 319.078 26.7148 319.078 32.3437C319.078 38.0156 314.566 42.0547 308.68 42.0547C302.664 42.0547 298.238 38.0156 298.238 32.3437C298.238 26.7148 302.664 22.6758 308.68 22.6758ZM308.68 28.2187C306.445 28.2187 304.812 29.6797 304.855 32.3437C304.812 35.1367 306.445 36.4687 308.68 36.4687C310.871 36.4687 312.461 35.1367 312.461 32.3437C312.461 29.6797 310.871 28.2187 308.68 28.2187ZM367.633 20.0977V25.4258H339.531V11.418H346.406V20.0977H367.633ZM371.543 28.9492V34.2773H335.277V28.9492H371.543ZM367.891 43.4727V48.9727H339.059V37.0273H346.02V43.4727H367.891Z" fill="#11DCA9"/>
<path d="M33.3789 12.1914L43.3789 12.1914C43.3789 6.66856 38.9018 2.19141 33.3789 2.19141V12.1914ZM33.3789 17.6484V27.6484C38.9018 27.6484 43.3789 23.1713 43.3789 17.6484H33.3789ZM20.918 17.6484V7.64844C15.3951 7.64844 10.918 12.1256 10.918 17.6484H20.918ZM20.918 19.5391H10.918C10.918 25.0619 15.3951 29.5391 20.918 29.5391V19.5391ZM32.1758 19.5391H42.1758C42.1758 14.0162 37.6986 9.53906 32.1758 9.53906V19.5391ZM32.1758 24.8242V34.8242C37.6986 34.8242 42.1758 30.3471 42.1758 24.8242H32.1758ZM20.918 24.8242V14.8242C15.3951 14.8242 10.918 19.3014 10.918 24.8242H20.918ZM20.918 26.7578H10.918C10.918 29.4161 11.9764 31.965 13.8594 33.8413C15.7423 35.7177 18.2949 36.7671 20.9532 36.7578L20.918 26.7578ZM35.8711 25.8555L45.7976 24.6449C45.4673 21.9369 44.045 19.4813 41.8603 17.8474C39.6755 16.2134 36.9181 15.543 34.2271 15.9915L35.8711 25.8555ZM36.5156 31.1406L38.2709 40.9854C43.4974 40.0535 47.0848 35.2 46.4421 29.9301L36.5156 31.1406ZM14 32.1719H4C4 37.6947 8.47715 42.1719 14 42.1719L14 32.1719ZM14 12.1914V2.19141C8.47715 2.19141 4 6.66856 4 12.1914H14ZM45.4102 10.0859H55.4102C55.4102 4.56309 50.933 0.0859375 45.4102 0.0859375V10.0859ZM45.4102 33.5898V43.5898C50.933 43.5898 55.4102 39.1127 55.4102 33.5898H45.4102ZM38.4922 33.5898H28.4922C28.4922 39.1127 32.9693 43.5898 38.4922 43.5898V33.5898ZM38.4922 10.0859V0.0859375C32.9693 0.0859375 28.4922 4.56309 28.4922 10.0859H38.4922ZM45.4102 34.9648H55.4102C55.4102 29.442 50.933 24.9648 45.4102 24.9648V34.9648ZM45.4102 49.4023V59.4023C50.933 59.4023 55.4102 54.9252 55.4102 49.4023H45.4102ZM18.2969 49.4023H8.29688C8.29688 54.9252 12.774 59.4023 18.2969 59.4023V49.4023ZM18.2969 34.9648V24.9648C12.774 24.9648 8.29688 29.442 8.29688 34.9648H18.2969ZM25.0859 40.293V30.293C19.5631 30.293 15.0859 34.7701 15.0859 40.293H25.0859ZM25.0859 43.9023H15.0859C15.0859 49.4252 19.5631 53.9023 25.0859 53.9023V43.9023ZM38.6641 43.9023V53.9023C44.1869 53.9023 48.6641 49.4252 48.6641 43.9023H38.6641ZM38.6641 40.293H48.6641C48.6641 34.7701 44.1869 30.293 38.6641 30.293V40.293ZM33.3789 12.1914H23.3789V17.6484H33.3789H43.3789V12.1914L33.3789 12.1914ZM33.3789 17.6484V7.64844H20.918V17.6484V27.6484H33.3789V17.6484ZM20.918 17.6484H10.918V19.5391H20.918H30.918V17.6484H20.918ZM20.918 19.5391V29.5391H32.1758V19.5391V9.53906H20.918V19.5391ZM32.1758 19.5391H22.1758V24.8242H32.1758H42.1758V19.5391H32.1758ZM32.1758 24.8242V14.8242H20.918V24.8242V34.8242H32.1758V24.8242ZM20.918 24.8242H10.918V26.7578H20.918H30.918V24.8242H20.918ZM20.918 26.7578L20.9532 36.7578C27.087 36.7362 32.0064 36.6375 37.5151 35.7194L35.8711 25.8555L34.2271 15.9915C30.4545 16.6203 26.9521 16.7365 20.8828 16.7579L20.918 26.7578ZM35.8711 25.8555L25.9446 27.066L26.5892 32.3512L36.5156 31.1406L46.4421 29.9301L45.7976 24.6449L35.8711 25.8555ZM36.5156 31.1406L34.7604 21.2959C30.2306 22.1035 25.9584 22.1719 17.5234 22.1719V32.1719V42.1719C25.6744 42.1719 31.7147 42.1543 38.2709 40.9854L36.5156 31.1406ZM17.5234 32.1719V22.1719H14V32.1719L14 42.1719H17.5234V32.1719ZM14 32.1719H24V12.1914H14H4L4 32.1719H14ZM14 12.1914V22.1914H33.3789V12.1914V2.19141L14 2.19141V12.1914ZM45.4102 10.0859L35.4102 10.0859V33.5898H45.4102H55.4102V10.0859H45.4102ZM45.4102 33.5898V23.5898H38.4922V33.5898V43.5898H45.4102V33.5898ZM38.4922 33.5898H48.4922V10.0859L38.4922 10.0859H28.4922V33.5898H38.4922ZM38.4922 10.0859V20.0859H45.4102V10.0859V0.0859375H38.4922V10.0859ZM45.4102 34.9648H35.4102V49.4023H45.4102H55.4102V34.9648H45.4102ZM45.4102 49.4023V39.4023H18.2969V49.4023V59.4023H45.4102V49.4023ZM18.2969 49.4023H28.2969V34.9648H18.2969H8.29688L8.29688 49.4023H18.2969ZM18.2969 34.9648V44.9648H45.4102V34.9648V24.9648H18.2969V34.9648ZM25.0859 40.293H15.0859V43.9023H25.0859H35.0859V40.293H25.0859ZM25.0859 43.9023V53.9023H38.6641V43.9023V33.9023H25.0859V43.9023ZM38.6641 43.9023H48.6641V40.293H38.6641H28.6641V43.9023H38.6641ZM38.6641 40.293V30.293H25.0859V40.293V50.293H38.6641V40.293ZM95.7695 29.9805H105.77C105.77 24.4576 101.292 19.9805 95.7695 19.9805V29.9805ZM95.7695 35.3516V45.3516C101.292 45.3516 105.77 40.8744 105.77 35.3516H95.7695ZM81.6328 35.3516V25.3516C76.11 25.3516 71.6328 29.8287 71.6328 35.3516H81.6328ZM81.6328 40.8516V50.8516C87.1557 50.8516 91.6328 46.3744 91.6328 40.8516H81.6328ZM74.8008 40.8516H64.8008C64.8008 46.3744 69.2779 50.8516 74.8008 50.8516V40.8516ZM74.8008 35.3516H84.8008C84.8008 29.8287 80.3236 25.3516 74.8008 25.3516V35.3516ZM59.5039 35.3516H49.5039C49.5039 40.8744 53.9811 45.3516 59.5039 45.3516V35.3516ZM59.5039 29.9805V19.9805C53.9811 19.9805 49.5039 24.4576 49.5039 29.9805H59.5039ZM91.8164 43.6875H101.816C101.816 38.1647 97.3393 33.6875 91.8164 33.6875V43.6875ZM91.8164 49.1875V59.1875C97.3393 59.1875 101.816 54.7103 101.816 49.1875H91.8164ZM63.457 49.1875H53.457C53.457 54.7103 57.9342 59.1875 63.457 59.1875V49.1875ZM63.457 38.1016V28.1016C57.9342 28.1016 53.457 32.5787 53.457 38.1016H63.457ZM70.2891 38.1016H80.2891C80.2891 32.5787 75.8119 28.1016 70.2891 28.1016V38.1016ZM70.2891 43.6875H60.2891C60.2891 49.2103 64.7662 53.6875 70.2891 53.6875V43.6875ZM70.7617 11.2891H80.7617C80.7617 5.76622 76.2846 1.28906 70.7617 1.28906V11.2891ZM70.7617 14.8555H60.7617C60.7617 20.3783 65.2389 24.8555 70.7617 24.8555V14.8555ZM84.3398 14.8555V24.8555C89.8627 24.8555 94.3398 20.3783 94.3398 14.8555H84.3398ZM84.3398 11.2891V1.28906C78.817 1.28906 74.3398 5.76622 74.3398 11.2891H84.3398ZM91.1719 11.2891H101.172C101.172 5.76622 96.6947 1.28906 91.1719 1.28906V11.2891ZM91.1719 27.918V37.918C96.6947 37.918 101.172 33.4408 101.172 27.918H91.1719ZM64.0156 27.918H54.0156C54.0156 33.4408 58.4928 37.918 64.0156 37.918V27.918ZM64.0156 11.2891V1.28906C58.4928 1.28906 54.0156 5.76622 54.0156 11.2891H64.0156ZM70.7617 22.5469H60.7617C60.7617 28.0697 65.2389 32.5469 70.7617 32.5469V22.5469ZM84.3398 22.5469V32.5469C89.8627 32.5469 94.3398 28.0697 94.3398 22.5469H84.3398ZM84.3398 19.8828H94.3398C94.3398 14.36 89.8627 9.88281 84.3398 9.88281V19.8828ZM70.7617 19.8828V9.88281C65.2389 9.88281 60.7617 14.36 60.7617 19.8828H70.7617ZM95.7695 29.9805H85.7695V35.3516H95.7695H105.77V29.9805H95.7695ZM95.7695 35.3516V25.3516H81.6328V35.3516V45.3516H95.7695V35.3516ZM81.6328 35.3516H71.6328V40.8516H81.6328H91.6328V35.3516H81.6328ZM81.6328 40.8516V30.8516H74.8008V40.8516V50.8516H81.6328V40.8516ZM74.8008 40.8516H84.8008V35.3516H74.8008H64.8008V40.8516H74.8008ZM74.8008 35.3516V25.3516H59.5039V35.3516V45.3516H74.8008V35.3516ZM59.5039 35.3516H69.5039V29.9805H59.5039H49.5039V35.3516H59.5039ZM59.5039 29.9805V39.9805H95.7695V29.9805V19.9805L59.5039 19.9805V29.9805ZM91.8164 43.6875H81.8164V49.1875H91.8164H101.816V43.6875H91.8164ZM91.8164 49.1875V39.1875H63.457V49.1875V59.1875H91.8164V49.1875ZM63.457 49.1875H73.457V38.1016H63.457H53.457V49.1875H63.457ZM63.457 38.1016V48.1016H70.2891V38.1016V28.1016H63.457V38.1016ZM70.2891 38.1016H60.2891V43.6875H70.2891H80.2891V38.1016H70.2891ZM70.2891 43.6875V53.6875H91.8164V43.6875V33.6875H70.2891V43.6875ZM70.7617 11.2891H60.7617V14.8555H70.7617L80.7617 14.8555V11.2891H70.7617ZM70.7617 14.8555V24.8555L84.3398 24.8555V14.8555V4.85547H70.7617V14.8555ZM84.3398 14.8555H94.3398V11.2891H84.3398H74.3398V14.8555L84.3398 14.8555ZM84.3398 11.2891V21.2891H91.1719V11.2891V1.28906L84.3398 1.28906V11.2891ZM91.1719 11.2891H81.1719V27.918H91.1719H101.172V11.2891H91.1719ZM91.1719 27.918V17.918L64.0156 17.918V27.918V37.918H91.1719V27.918ZM64.0156 27.918H74.0156V11.2891H64.0156H54.0156V27.918H64.0156ZM64.0156 11.2891V21.2891H70.7617V11.2891V1.28906H64.0156V11.2891ZM70.7617 22.5469V32.5469H84.3398V22.5469V12.5469L70.7617 12.5469V22.5469ZM84.3398 22.5469H94.3398V19.8828H84.3398L74.3398 19.8828V22.5469L84.3398 22.5469ZM84.3398 19.8828V9.88281H70.7617V19.8828V29.8828H84.3398V19.8828ZM70.7617 19.8828H60.7617V22.5469H70.7617L80.7617 22.5469V19.8828L70.7617 19.8828ZM110.379 28.7773L110.449 18.7776C110.402 18.7773 110.355 18.7773 110.308 18.7776L110.379 28.7773ZM99.8086 20.1836L109.808 20.2698C109.809 20.2131 109.809 20.1563 109.808 20.0996L99.8086 20.1836ZM110.379 23.1914L110.551 13.1929C110.432 13.1908 110.313 13.1909 110.194 13.1931L110.379 23.1914ZM131.477 10.0859H141.477C141.477 4.56309 136.999 0.0859375 131.477 0.0859375V10.0859ZM131.477 49.7031V59.7031C136.999 59.7031 141.477 55.226 141.477 49.7031L131.477 49.7031ZM124.602 49.7031H114.602C114.602 55.226 119.079 59.7031 124.602 59.7031V49.7031ZM124.602 10.0859V0.0859375C119.079 0.0859375 114.602 4.56309 114.602 10.0859H124.602ZM97.7461 30.582L97.6824 20.5822C94.7871 20.6007 92.0419 21.8731 90.1566 24.0706C88.2713 26.268 87.4309 29.1747 87.8528 32.0392L97.7461 30.582ZM122.539 29.1641L132.494 28.22C132.235 25.4827 130.86 22.9731 128.692 21.2812C126.525 19.5894 123.756 18.8646 121.038 19.2774L122.539 29.1641ZM123.012 34.1484L125.166 43.9137C130.097 42.8258 133.444 38.2319 132.967 33.2044L123.012 34.1484ZM114.117 35.4805L113.179 25.5245C108.043 26.0084 104.117 30.321 104.117 35.4805H114.117ZM114.117 48.5859V58.5859C119.64 58.5859 124.117 54.1088 124.117 48.5859H114.117ZM107.199 48.5859H97.1992C97.1992 54.1088 101.676 58.5859 107.199 58.5859V48.5859ZM107.199 35.9102H117.199C117.199 33.1868 116.088 30.5812 114.124 28.6954C112.159 26.8096 109.51 25.8068 106.789 25.9186L107.199 35.9102ZM98.5625 36.125L88.6692 37.5821C89.4012 42.5519 93.7065 46.2073 98.7291 46.1236L98.5625 36.125ZM110.379 11.5039V21.5039C111.582 21.5039 111.935 21.8545 111.772 21.7242C111.677 21.6481 111.481 21.4552 111.314 21.1172C111.139 20.7663 111.078 20.4231 111.078 20.1836H121.078H131.078C131.078 7.60908 119.884 1.50391 110.379 1.50391V11.5039ZM121.078 20.1836H111.078C111.078 19.8732 111.157 19.5007 111.332 19.1516C111.5 18.8168 111.689 18.6343 111.772 18.5678C111.918 18.4507 111.575 18.7855 110.449 18.7776L110.379 28.7773L110.309 38.7771C119.908 38.8442 131.078 32.6054 131.078 20.1836H121.078ZM110.379 28.7773L110.308 18.7776C109.218 18.7853 108.917 18.4593 109.093 18.6026C109.191 18.6821 109.389 18.8788 109.559 19.2256C109.737 19.5864 109.811 19.9637 109.808 20.2698L99.8086 20.1836L89.809 20.0974C89.7017 32.5408 100.842 38.8448 110.449 38.7771L110.379 28.7773ZM99.8086 20.1836L109.808 20.0996C109.81 20.3343 109.753 20.6816 109.577 21.0435C109.407 21.3931 109.203 21.6001 109.093 21.6894C108.9 21.8462 109.211 21.5039 110.379 21.5039V11.5039V1.50391C100.864 1.50391 89.7031 7.67385 89.8089 20.2676L99.8086 20.1836ZM110.379 17.0039V7.00391C108.011 7.00391 104.608 7.47709 101.552 9.7572C98.0487 12.3712 96.4258 16.2917 96.4258 20.1836H106.426H116.426C116.426 20.8888 116.29 21.91 115.759 23.0334C115.216 24.1827 114.411 25.1164 113.512 25.7867C111.853 27.0249 110.426 27.0039 110.379 27.0039V17.0039ZM106.426 20.1836H96.4258C96.4258 24.217 98.2135 28.106 101.714 30.6102C104.767 32.7943 108.143 33.2345 110.564 33.1897L110.379 23.1914L110.194 13.1931C110.294 13.1913 111.694 13.1588 113.351 14.3439C114.247 14.985 115.091 15.9062 115.677 17.0891C116.256 18.2569 116.426 19.3597 116.426 20.1836H106.426ZM110.379 23.1914L110.207 33.1899C112.586 33.2309 115.961 32.8387 119.042 30.7316C122.638 28.2726 124.547 24.3434 124.547 20.1836H114.547H104.547C104.547 19.3211 104.73 18.1702 105.349 16.964C105.975 15.7452 106.859 14.8335 107.753 14.2225C108.603 13.6408 109.36 13.3963 109.802 13.2929C110.246 13.1889 110.517 13.1923 110.551 13.1929L110.379 23.1914ZM114.547 20.1836H124.547C124.547 16.1729 122.814 12.2051 119.204 9.6306C116.115 7.42764 112.709 7.00391 110.379 7.00391V17.0039V27.0039C110.366 27.0039 110.1 27.005 109.656 26.894C109.211 26.7827 108.444 26.522 107.591 25.9134C106.691 25.2715 105.844 24.3441 105.263 23.156C104.694 21.9929 104.547 20.9244 104.547 20.1836H114.547ZM131.477 10.0859H121.477V49.7031H131.477L141.477 49.7031V10.0859H131.477ZM131.477 49.7031V39.7031H124.602V49.7031V59.7031H131.477V49.7031ZM124.602 49.7031H134.602V10.0859H124.602H114.602V49.7031H124.602ZM124.602 10.0859V20.0859H131.477V10.0859V0.0859375L124.602 0.0859375V10.0859ZM97.7461 30.582L97.8098 40.5818C104.478 40.5394 115.015 40.4211 124.04 39.0508L122.539 29.1641L121.038 19.2774C113.65 20.3992 104.506 20.5388 97.6824 20.5822L97.7461 30.582ZM122.539 29.1641L112.584 30.1081L113.056 35.0925L123.012 34.1484L132.967 33.2044L132.494 28.22L122.539 29.1641ZM123.012 34.1484L120.858 24.3832C118.46 24.912 115.884 25.2697 113.179 25.5245L114.117 35.4805L115.055 45.4364C118.28 45.1326 121.719 44.6739 125.166 43.9137L123.012 34.1484ZM114.117 35.4805H104.117V48.5859H114.117H124.117V35.4805H114.117ZM114.117 48.5859V38.5859H107.199V48.5859V58.5859H114.117V48.5859ZM107.199 48.5859H117.199V35.9102H107.199H97.1992V48.5859H107.199ZM107.199 35.9102L106.789 25.9186C103.797 26.0415 101.004 26.0829 98.3959 26.1264L98.5625 36.125L98.7291 46.1236C101.277 46.0811 104.328 46.0366 107.61 45.9017L107.199 35.9102ZM98.5625 36.125L108.456 34.6679L107.639 29.1249L97.7461 30.582L87.8528 32.0392L88.6692 37.5821L98.5625 36.125ZM169.289 10L179.289 10C179.289 4.47715 174.812 0 169.289 0V10ZM169.289 49.7461V59.7461C174.812 59.7461 179.289 55.2689 179.289 49.7461H169.289ZM162.285 49.7461H152.285C152.285 55.2689 156.762 59.7461 162.285 59.7461V49.7461ZM162.285 10V0C156.762 0 152.285 4.47715 152.285 10H162.285ZM157.258 14.082H167.258C167.258 8.55918 162.781 4.08203 157.258 4.08203V14.082ZM138.996 43.3437L130.615 48.7983C133.332 52.9739 138.709 54.5123 143.223 52.4063L138.996 43.3437ZM135.473 37.9297L131.173 28.9011C128.571 30.1404 126.63 32.4424 125.848 35.2169C125.066 37.9913 125.519 40.9683 127.091 43.3842L135.473 37.9297ZM150.254 19.4531L160.198 20.5094C160.498 17.6892 159.586 14.8745 157.689 12.7659C155.793 10.6573 153.09 9.45312 150.254 9.45312V19.4531ZM137.75 19.4531H127.75C127.75 24.976 132.227 29.4531 137.75 29.4531V19.4531ZM137.75 14.082V4.08203C132.227 4.08203 127.75 8.55918 127.75 14.082H137.75ZM169.289 10H159.289V49.7461H169.289H179.289V10L169.289 10ZM169.289 49.7461V39.7461H162.285V49.7461V59.7461H169.289V49.7461ZM162.285 49.7461H172.285V10L162.285 10H152.285V49.7461H162.285ZM162.285 10V20H169.289V10V0L162.285 0V10ZM157.258 14.082H147.258C147.258 19.4566 146.479 23.132 144.914 25.9487C143.431 28.6154 140.677 31.5252 134.769 34.2812L138.996 43.3437L143.223 52.4063C152.054 48.2873 158.43 42.7967 162.394 35.6665C166.274 28.6864 167.258 21.1684 167.258 14.082H157.258ZM138.996 43.3437L147.377 37.8892L143.854 32.4751L135.473 37.9297L127.091 43.3842L130.615 48.7983L138.996 43.3437ZM135.473 37.9297L139.772 46.9583C145.552 44.2061 150.499 40.8257 154.126 36.197C157.864 31.4275 159.604 26.0982 160.198 20.5094L150.254 19.4531L140.31 18.3969C140.023 21.101 139.335 22.6468 138.384 23.8606C137.322 25.2154 135.319 26.9267 131.173 28.9011L135.473 37.9297ZM150.254 19.4531V9.45312H137.75V19.4531V29.4531L150.254 29.4531V19.4531ZM137.75 19.4531H147.75V14.082H137.75H127.75V19.4531H137.75ZM137.75 14.082V24.082H157.258V14.082V4.08203L137.75 4.08203V14.082ZM209.852 27.4023H219.852C219.852 21.8795 215.374 17.4023 209.852 17.4023V27.4023ZM209.852 32.4297V42.4297C215.374 42.4297 219.852 37.9525 219.852 32.4297H209.852ZM173.586 32.4297H163.586C163.586 37.9525 168.063 42.4297 173.586 42.4297V32.4297ZM173.586 27.4023V17.4023C168.063 17.4023 163.586 21.8795 163.586 27.4023H173.586ZM205.641 33.6328H215.641C215.641 28.11 211.163 23.6328 205.641 23.6328V33.6328ZM205.641 43.6445V53.6445C211.163 53.6445 215.641 49.1674 215.641 43.6445H205.641ZM184.414 43.6445V33.6445C178.891 33.6445 174.414 38.1217 174.414 43.6445H184.414ZM184.414 44.9336H174.414C174.414 50.4564 178.891 54.9336 184.414 54.9336V44.9336ZM206.715 44.9336H216.715C216.715 39.4107 212.238 34.9336 206.715 34.9336V44.9336ZM206.715 49.4883V59.4883C212.238 59.4883 216.715 55.0111 216.715 49.4883H206.715ZM177.582 49.4883H167.582C167.582 55.0111 172.059 59.4883 177.582 59.4883V49.4883ZM177.582 39.3906V29.3906C172.059 29.3906 167.582 33.8678 167.582 39.3906H177.582ZM198.809 39.3906V49.3906C204.331 49.3906 208.809 44.9135 208.809 39.3906H198.809ZM198.809 38.2734H208.809C208.809 32.7506 204.331 28.2734 198.809 28.2734V38.2734ZM177.582 38.2734H167.582C167.582 43.7963 172.059 48.2734 177.582 48.2734V38.2734ZM177.582 33.6328V23.6328C172.059 23.6328 167.582 28.11 167.582 33.6328H177.582ZM205.641 10.4727H215.641C215.641 4.94981 211.163 0.472656 205.641 0.472656V10.4727ZM205.641 20.4844V30.4844C211.163 30.4844 215.641 26.0072 215.641 20.4844H205.641ZM184.801 20.4844V10.4844C179.278 10.4844 174.801 14.9615 174.801 20.4844H184.801ZM184.801 21.7734H174.801C174.801 27.2963 179.278 31.7734 184.801 31.7734V21.7734ZM206.328 21.7734H216.328C216.328 16.2506 211.851 11.7734 206.328 11.7734V21.7734ZM206.328 26.2852V36.2852C211.851 36.2852 216.328 31.808 216.328 26.2852H206.328ZM177.969 26.2852H167.969C167.969 31.808 172.446 36.2852 177.969 36.2852V26.2852ZM177.969 16.2305V6.23047C172.446 6.23047 167.969 10.7076 167.969 16.2305H177.969ZM198.766 16.2305V26.2305C204.288 26.2305 208.766 21.7533 208.766 16.2305L198.766 16.2305ZM198.766 15.0273L208.766 15.0273C208.766 9.5045 204.288 5.02734 198.766 5.02734V15.0273ZM177.926 15.0273H167.926C167.926 20.5502 172.403 25.0273 177.926 25.0273V15.0273ZM177.926 10.4727V0.472656C172.403 0.472656 167.926 4.94981 167.926 10.4727L177.926 10.4727ZM209.852 27.4023L199.852 27.4023V32.4297H209.852H219.852V27.4023H209.852ZM209.852 32.4297V22.4297L173.586 22.4297V32.4297V42.4297H209.852V32.4297ZM173.586 32.4297H183.586V27.4023H173.586H163.586V32.4297H173.586ZM173.586 27.4023V37.4023H209.852V27.4023V17.4023L173.586 17.4023V27.4023ZM205.641 33.6328H195.641V43.6445H205.641H215.641V33.6328H205.641ZM205.641 43.6445V33.6445H184.414V43.6445V53.6445H205.641V43.6445ZM184.414 43.6445H174.414V44.9336H184.414H194.414V43.6445H184.414ZM184.414 44.9336V54.9336H206.715V44.9336V34.9336H184.414V44.9336ZM206.715 44.9336H196.715V49.4883H206.715H216.715V44.9336H206.715ZM206.715 49.4883V39.4883H177.582V49.4883V59.4883H206.715V49.4883ZM177.582 49.4883H187.582V39.3906H177.582H167.582V49.4883H177.582ZM177.582 39.3906V49.3906H198.809V39.3906V29.3906H177.582V39.3906ZM198.809 39.3906H208.809V38.2734H198.809H188.809V39.3906H198.809ZM198.809 38.2734V28.2734H177.582V38.2734V48.2734H198.809V38.2734ZM177.582 38.2734H187.582V33.6328H177.582H167.582V38.2734H177.582ZM177.582 33.6328V43.6328H205.641V33.6328V23.6328L177.582 23.6328V33.6328ZM205.641 10.4727H195.641V20.4844L205.641 20.4844H215.641V10.4727H205.641ZM205.641 20.4844V10.4844H184.801V20.4844V30.4844H205.641V20.4844ZM184.801 20.4844H174.801V21.7734H184.801H194.801V20.4844H184.801ZM184.801 21.7734V31.7734H206.328V21.7734V11.7734H184.801V21.7734ZM206.328 21.7734L196.328 21.7734V26.2852L206.328 26.2852H216.328V21.7734H206.328ZM206.328 26.2852V16.2852L177.969 16.2852V26.2852V36.2852H206.328V26.2852ZM177.969 26.2852H187.969V16.2305H177.969H167.969V26.2852H177.969ZM177.969 16.2305V26.2305H198.766V16.2305V6.23047H177.969V16.2305ZM198.766 16.2305L208.766 16.2305V15.0273L198.766 15.0273H188.766V16.2305H198.766ZM198.766 15.0273V5.02734H177.926V15.0273V25.0273H198.766V15.0273ZM177.926 15.0273H187.926V10.4727H177.926L167.926 10.4727V15.0273H177.926ZM177.926 10.4727V20.4727L205.641 20.4727V10.4727V0.472656L177.926 0.472656V10.4727ZM255.012 10H265.012C265.012 4.47715 260.535 0 255.012 0V10ZM255.012 33.5898V43.5898C260.535 43.5898 265.012 39.1127 265.012 33.5898H255.012ZM248.137 33.5898H238.137C238.137 39.1127 242.614 43.5898 248.137 43.5898V33.5898ZM248.137 24.8242H258.137C258.137 19.3014 253.66 14.8242 248.137 14.8242V24.8242ZM243.152 24.8242H233.152C233.152 30.3471 237.63 34.8242 243.152 34.8242V24.8242ZM243.152 19.2812V9.28125C237.63 9.28125 233.152 13.7584 233.152 19.2812H243.152ZM248.137 19.2812V29.2812C253.66 29.2812 258.137 24.8041 258.137 19.2812H248.137ZM248.137 10V0C242.614 0 238.137 4.47715 238.137 10H248.137ZM234.215 42.0547L244.212 42.2872C244.216 42.134 244.216 41.9807 244.212 41.8275L234.215 42.0547ZM244.227 12.1055H254.227C254.227 6.58262 249.749 2.10547 244.227 2.10547V12.1055ZM244.227 17.6055V27.6055C249.749 27.6055 254.227 23.1283 254.227 17.6055H244.227ZM237.051 17.6055V7.60547C234.221 7.60547 231.523 8.80453 229.627 10.9053C227.731 13.0062 226.814 15.812 227.103 18.6271L237.051 17.6055ZM245.645 27.4883L254.159 32.7331C255.766 30.1232 256.088 26.9202 255.032 24.0426C253.976 21.1651 251.658 18.9308 248.744 17.9808L245.645 27.4883ZM242.336 32.8594L239.392 42.4161C243.748 43.7581 248.46 41.9848 250.85 38.1041L242.336 32.8594ZM233.527 25.7695L242.313 20.9934C240.513 17.6822 237.004 15.6643 233.237 15.7738C229.47 15.8832 226.084 18.1014 224.479 21.5116L233.527 25.7695ZM224.246 33.8477L215.875 39.3184C218.344 43.0953 223.035 44.7514 227.328 43.3609L224.246 33.8477ZM220.68 28.3906L217.644 18.8626C214.667 19.8111 212.305 22.0961 211.258 25.0394C210.211 27.9828 210.6 31.2463 212.309 33.8613L220.68 28.3906ZM229.832 17.6055L239.781 18.6105C240.066 15.7977 239.146 12.9962 237.25 10.8991C235.354 8.80207 232.659 7.60547 229.832 7.60547V17.6055ZM222.613 17.6055H212.613C212.613 23.1283 217.09 27.6055 222.613 27.6055V17.6055ZM222.613 12.1055V2.10547C217.09 2.10547 212.613 6.58262 212.613 12.1055H222.613ZM255.012 10H245.012V33.5898H255.012H265.012V10H255.012ZM255.012 33.5898V23.5898H248.137V33.5898V43.5898H255.012V33.5898ZM248.137 33.5898H258.137V24.8242H248.137H238.137V33.5898H248.137ZM248.137 24.8242V14.8242H243.152V24.8242V34.8242H248.137V24.8242ZM243.152 24.8242H253.152V19.2812H243.152H233.152V24.8242H243.152ZM243.152 19.2812V29.2812H248.137V19.2812V9.28125H243.152V19.2812ZM248.137 19.2812H258.137V10H248.137H238.137V19.2812H248.137ZM248.137 10V20H255.012V10V0H248.137V10ZM241.176 34.2344V44.2344C242.798 44.2344 244.068 44.3712 245.005 44.5616C245.961 44.7555 246.408 44.9714 246.509 45.0275C246.593 45.0742 246.192 44.8702 245.766 44.2182C245.297 43.5014 245.098 42.6952 245.098 42.0547H255.098H265.098C265.098 35.2516 261.144 30.2863 256.242 27.5555C251.772 25.0657 246.379 24.2344 241.176 24.2344V34.2344ZM255.098 42.0547H245.098C245.098 41.3866 245.306 40.5745 245.771 39.865C246.193 39.2211 246.585 39.0231 246.494 39.074C246.388 39.1333 245.938 39.3506 244.987 39.5455C244.053 39.737 242.79 39.875 241.176 39.875V49.875V59.875C246.402 59.875 251.794 59.0256 256.257 56.5295C261.125 53.8066 265.098 48.8554 265.098 42.0547H255.098ZM241.176 49.875V39.875C239.589 39.875 238.346 39.7379 237.428 39.5484C236.493 39.3553 236.051 39.1406 235.949 39.0834C235.862 39.0344 236.252 39.2329 236.671 39.8732C237.132 40.5786 237.34 41.387 237.34 42.0547H227.34H217.34C217.34 48.8478 221.304 53.7955 226.153 56.5201C230.605 59.0212 235.979 59.875 241.176 59.875V49.875ZM227.34 42.0547H237.34C237.34 42.6948 237.141 43.4973 236.676 44.2101C236.253 44.8584 235.854 45.063 235.934 45.0182C236.031 44.9642 236.47 44.7509 237.409 44.5588C238.332 44.3702 239.58 44.2344 241.176 44.2344V34.2344V24.2344C236.002 24.2344 230.627 25.07 226.168 27.5648C221.285 30.2974 217.34 35.2592 217.34 42.0547H227.34ZM241.176 39.4336V29.4336C238.65 29.4336 235.4 29.5812 232.496 30.6347C230.939 31.1997 228.762 32.2766 226.968 34.4095C224.987 36.7637 224.156 39.5902 224.217 42.2819L234.215 42.0547L244.212 41.8275C244.252 43.5739 243.69 45.6 242.272 47.2856C241.04 48.7498 239.72 49.2896 239.317 49.4356C238.885 49.5923 238.763 49.5641 239.198 49.5155C239.59 49.4717 240.225 49.4336 241.176 49.4336V39.4336ZM234.215 42.0547L224.218 41.8222C224.154 44.5629 225.021 47.3821 226.987 49.7045C228.764 51.8043 230.912 52.8764 232.458 53.4445C235.36 54.5107 238.604 54.6758 241.176 54.6758V44.6758V34.6758C240.241 34.6758 239.617 34.6362 239.236 34.5921C238.812 34.5432 238.931 34.5158 239.356 34.6717C239.747 34.8155 241.038 35.3478 242.252 36.7829C243.656 38.4407 244.254 40.4703 244.212 42.2872L234.215 42.0547ZM241.176 44.6758V54.6758C243.776 54.6758 247.01 54.5082 249.903 53.4648C251.438 52.9109 253.558 51.8732 255.34 49.8449C257.313 47.5998 258.266 44.8269 258.266 42.0547H248.266H238.266C238.266 40.2063 238.928 38.2229 240.317 36.6426C241.515 35.2789 242.757 34.781 243.116 34.6514C243.51 34.5093 243.601 34.5405 243.162 34.5906C242.763 34.6361 242.123 34.6758 241.176 34.6758V44.6758ZM248.266 42.0547H258.266C258.266 39.3294 257.35 36.547 255.36 34.2689C253.56 32.2078 251.411 31.1656 249.864 30.6148C246.97 29.5839 243.73 29.4336 241.176 29.4336V39.4336V49.4336C242.139 49.4336 242.79 49.4718 243.199 49.5169C243.65 49.5667 243.556 49.5985 243.154 49.4555C242.784 49.3237 241.513 48.8186 240.297 47.4262C238.891 45.8167 238.266 43.8347 238.266 42.0547H248.266ZM244.227 12.1055L234.227 12.1055V17.6055H244.227H254.227V12.1055H244.227ZM244.227 17.6055V7.60547H237.051V17.6055V27.6055H244.227V17.6055ZM237.051 17.6055L227.103 18.6271C227.895 26.334 232.731 33.7964 242.545 36.9958L245.645 27.4883L248.744 17.9808C248.072 17.7617 247.677 17.541 247.467 17.3996C247.263 17.2624 247.185 17.1678 247.162 17.1389C247.14 17.1105 247.04 16.9857 246.998 16.5838L237.051 17.6055ZM245.645 27.4883L237.13 22.2435L233.822 27.6146L242.336 32.8594L250.85 38.1041L254.159 32.7331L245.645 27.4883ZM242.336 32.8594L245.28 23.3026C244.352 23.0166 243.771 22.6575 243.384 22.3354C242.99 22.0078 242.633 21.5818 242.313 20.9934L233.527 25.7695L224.742 30.5457C227.674 35.9405 232.532 40.3029 239.392 42.4161L242.336 32.8594ZM233.527 25.7695L224.479 21.5116C223.876 22.7935 222.977 23.7473 221.164 24.3344L224.246 33.8477L227.328 43.3609C234.668 40.9831 239.741 36.0503 242.576 30.0275L233.527 25.7695ZM224.246 33.8477L232.617 28.3769L229.051 22.9199L220.68 28.3906L212.309 33.8613L215.875 39.3184L224.246 33.8477ZM220.68 28.3906L223.716 37.9186C234.372 34.523 239.009 26.2539 239.781 18.6105L229.832 17.6055L219.883 16.6005C219.816 17.2589 219.633 17.6219 219.488 17.8144C219.398 17.9335 219.014 18.4258 217.644 18.8626L220.68 28.3906ZM229.832 17.6055V7.60547H222.613V17.6055V27.6055H229.832V17.6055ZM222.613 17.6055H232.613V12.1055H222.613H212.613V17.6055H222.613ZM222.613 12.1055V22.1055H244.227V12.1055V2.10547H222.613V12.1055ZM295.574 29.8945H305.574C305.574 24.3717 301.097 19.8945 295.574 19.8945V29.8945ZM295.574 35.2656V45.2656C301.097 45.2656 305.574 40.7885 305.574 35.2656H295.574ZM259.223 35.2656H249.223C249.223 40.7885 253.7 45.2656 259.223 45.2656V35.2656ZM259.223 29.8945V19.8945C253.7 19.8945 249.223 24.3717 249.223 29.8945H259.223ZM273.918 29.8945V39.8945C279.441 39.8945 283.918 35.4174 283.918 29.8945H273.918ZM273.918 26.8437H283.918C283.918 21.3209 279.441 16.8437 273.918 16.8437V26.8437ZM263.52 26.8437H253.52C253.52 32.3666 257.997 36.8437 263.52 36.8437V26.8437ZM263.52 11.8906V1.89062C257.997 1.89062 253.52 6.36778 253.52 11.8906H263.52ZM291.32 11.8906L301.32 11.8906C301.32 6.36778 296.843 1.89062 291.32 1.89062V11.8906ZM291.32 17.3477V27.3477C296.843 27.3477 301.32 22.8705 301.32 17.3477H291.32ZM270.352 17.3477V7.34766C264.829 7.34766 260.352 11.8248 260.352 17.3477H270.352ZM270.352 21.3867H260.352C260.352 26.9096 264.829 31.3867 270.352 31.3867V21.3867ZM291.707 21.3867H301.707C301.707 15.8639 297.23 11.3867 291.707 11.3867V21.3867ZM291.707 26.8437V36.8437C297.23 36.8437 301.707 32.3666 301.707 26.8437H291.707ZM280.836 26.8437V16.8437C275.313 16.8437 270.836 21.3209 270.836 26.8437H280.836ZM280.836 29.8945H270.836C270.836 35.4174 275.313 39.8945 280.836 39.8945V29.8945ZM291.836 43.6875H301.836C301.836 38.1647 297.359 33.6875 291.836 33.6875V43.6875ZM291.836 49.1875V59.1875C297.359 59.1875 301.836 54.7103 301.836 49.1875H291.836ZM263.391 49.1875H253.391C253.391 54.7103 257.868 59.1875 263.391 59.1875V49.1875ZM263.391 37.4141V27.4141C257.868 27.4141 253.391 31.8912 253.391 37.4141H263.391ZM270.18 37.4141H280.18C280.18 31.8912 275.703 27.4141 270.18 27.4141V37.4141ZM270.18 43.6875H260.18C260.18 49.2103 264.657 53.6875 270.18 53.6875V43.6875ZM295.574 29.8945H285.574V35.2656H295.574H305.574V29.8945H295.574ZM295.574 35.2656V25.2656H259.223V35.2656V45.2656H295.574V35.2656ZM259.223 35.2656H269.223V29.8945H259.223H249.223V35.2656H259.223ZM259.223 29.8945V39.8945H273.918V29.8945V19.8945H259.223V29.8945ZM273.918 29.8945H283.918V26.8437H273.918H263.918V29.8945H273.918ZM273.918 26.8437V16.8437H263.52V26.8437V36.8437H273.918V26.8437ZM263.52 26.8437H273.52V11.8906H263.52H253.52V26.8437H263.52ZM263.52 11.8906V21.8906H291.32V11.8906V1.89062L263.52 1.89062V11.8906ZM291.32 11.8906H281.32V17.3477H291.32H301.32V11.8906L291.32 11.8906ZM291.32 17.3477V7.34766H270.352V17.3477V27.3477H291.32V17.3477ZM270.352 17.3477H260.352V21.3867H270.352H280.352V17.3477H270.352ZM270.352 21.3867V31.3867H291.707V21.3867V11.3867H270.352V21.3867ZM291.707 21.3867H281.707V26.8437H291.707H301.707V21.3867H291.707ZM291.707 26.8437V16.8437H280.836V26.8437V36.8437H291.707V26.8437ZM280.836 26.8437H270.836V29.8945H280.836H290.836V26.8437H280.836ZM280.836 29.8945V39.8945H295.574V29.8945V19.8945H280.836V29.8945ZM291.836 43.6875H281.836V49.1875H291.836H301.836V43.6875H291.836ZM291.836 49.1875V39.1875H263.391V49.1875V59.1875H291.836V49.1875ZM263.391 49.1875H273.391V37.4141H263.391H253.391V49.1875H263.391ZM263.391 37.4141V47.4141H270.18V37.4141V27.4141H263.391V37.4141ZM270.18 37.4141H260.18V43.6875H270.18H280.18V37.4141H270.18ZM270.18 43.6875V53.6875H291.836V43.6875V33.6875H270.18V43.6875ZM328.961 10H338.961C338.961 4.47715 334.484 0 328.961 0V10ZM328.961 25.082H318.961C318.961 30.6049 323.438 35.082 328.961 35.082V25.082ZM334.332 25.082H344.332C344.332 19.5592 339.855 15.082 334.332 15.082V25.082ZM334.332 30.7109V40.7109C339.855 40.7109 344.332 36.2338 344.332 30.7109H334.332ZM328.961 30.7109V20.7109C323.438 20.7109 318.961 25.1881 318.961 30.7109H328.961ZM328.961 49.7461V59.7461C334.484 59.7461 338.961 55.2689 338.961 49.7461H328.961ZM322.129 49.7461H312.129C312.129 55.2689 316.606 59.7461 322.129 59.7461V49.7461ZM322.129 10V0C316.606 0 312.129 4.47715 312.129 10H322.129ZM320.195 15.6719H330.195C330.195 10.149 325.718 5.67187 320.195 5.67187V15.6719ZM320.195 21.1289V31.1289C325.718 31.1289 330.195 26.6518 330.195 21.1289H320.195ZM297.035 21.1289H287.035C287.035 26.6518 291.512 31.1289 297.035 31.1289V21.1289ZM297.035 15.6719V5.67187C291.512 5.67187 287.035 10.149 287.035 15.6719H297.035ZM305.242 15.6719V25.6719C310.765 25.6719 315.242 21.1947 315.242 15.6719H305.242ZM305.242 10.7305V0.730469C299.719 0.730469 295.242 5.20762 295.242 10.7305L305.242 10.7305ZM312.117 10.7305H322.117C322.117 5.20762 317.64 0.730469 312.117 0.730469V10.7305ZM312.117 15.6719H302.117C302.117 21.1947 306.594 25.6719 312.117 25.6719V15.6719ZM304.855 32.3437L314.854 32.4976C314.856 32.3926 314.856 32.2875 314.854 32.1825L304.855 32.3437ZM328.961 10H318.961V25.082H328.961L338.961 25.082V10H328.961ZM328.961 25.082V35.082H334.332V25.082V15.082L328.961 15.082V25.082ZM334.332 25.082L324.332 25.082V30.7109H334.332H344.332V25.082H334.332ZM334.332 30.7109V20.7109L328.961 20.7109V30.7109V40.7109H334.332V30.7109ZM328.961 30.7109H318.961V49.7461H328.961H338.961V30.7109H328.961ZM328.961 49.7461V39.7461H322.129V49.7461V59.7461H328.961V49.7461ZM322.129 49.7461H332.129V10H322.129H312.129V49.7461H322.129ZM322.129 10V20H328.961V10V0L322.129 0V10ZM320.195 15.6719H310.195V21.1289H320.195H330.195V15.6719H320.195ZM320.195 21.1289V11.1289L297.035 11.1289V21.1289V31.1289H320.195V21.1289ZM297.035 21.1289H307.035V15.6719H297.035H287.035V21.1289H297.035ZM297.035 15.6719V25.6719H305.242V15.6719V5.67187L297.035 5.67187V15.6719ZM305.242 15.6719H315.242V10.7305H305.242L295.242 10.7305V15.6719H305.242ZM305.242 10.7305V20.7305H312.117V10.7305V0.730469H305.242V10.7305ZM312.117 10.7305H302.117V15.6719H312.117H322.117V10.7305H312.117ZM312.117 15.6719V25.6719H320.195V15.6719V5.67187H312.117V15.6719ZM308.68 22.6758V32.6758C309.006 32.6758 309.204 32.7311 309.293 32.7641C309.382 32.7974 309.375 32.8128 309.319 32.7608C309.259 32.7055 309.183 32.6106 309.128 32.4862C309.071 32.3569 309.078 32.29 309.078 32.3437H319.078H329.078C329.078 20.4166 319.281 12.6758 308.68 12.6758V22.6758ZM319.078 32.3437H309.078C309.078 32.4188 309.067 32.3657 309.121 32.2435C309.172 32.1256 309.246 32.0317 309.307 31.9749C309.365 31.9214 309.374 31.9351 309.288 31.9673C309.202 31.9994 309.006 32.0547 308.68 32.0547V42.0547V52.0547C319.311 52.0547 329.078 44.2857 329.078 32.3437H319.078ZM308.68 42.0547V32.0547C308.296 32.0547 308.074 31.9911 307.985 31.9582C307.898 31.9257 307.919 31.9166 307.993 31.9846C308.07 32.056 308.149 32.1625 308.202 32.2831C308.255 32.4057 308.238 32.4461 308.238 32.3437H298.238H288.238C288.238 44.2597 297.891 52.0547 308.68 52.0547V42.0547ZM298.238 32.3437H308.238C308.238 32.2625 308.251 32.3167 308.194 32.4465C308.139 32.5737 308.057 32.6813 307.982 32.751C307.909 32.8175 307.89 32.8068 307.981 32.7732C308.073 32.7394 308.296 32.6758 308.68 32.6758V22.6758V12.6758C297.922 12.6758 288.238 20.4426 288.238 32.3437H298.238ZM308.68 28.2187V18.2187C305.366 18.2187 301.645 19.3418 298.76 22.2942C295.856 25.2668 294.801 29.0654 294.857 32.505L304.855 32.3437L314.854 32.1825C314.867 32.958 314.607 34.6941 313.067 36.2703C311.547 37.8262 309.759 38.2187 308.68 38.2187V28.2187ZM304.855 32.3437L294.857 32.1899C294.805 35.5736 295.793 39.4751 298.842 42.5247C301.844 45.5265 305.613 46.4687 308.68 46.4687V36.4687V26.4687C309.512 26.4687 311.347 26.745 312.985 28.3825C314.67 30.0678 314.863 31.9069 314.854 32.4976L304.855 32.3437ZM308.68 36.4687V46.4687C311.793 46.4687 315.549 45.4854 318.519 42.4683C321.492 39.448 322.461 35.6263 322.461 32.3437H312.461H302.461C302.461 31.8542 302.635 30.095 304.265 28.4389C305.892 26.7861 307.758 26.4687 308.68 26.4687V36.4687ZM312.461 32.3437H322.461C322.461 29.0131 321.432 25.2955 318.6 22.3511C315.752 19.3886 312.044 18.2187 308.68 18.2187V28.2187V38.2187C307.507 38.2187 305.69 37.7793 304.184 36.2133C302.695 34.6654 302.461 33.0104 302.461 32.3437H312.461ZM367.633 20.0977H377.633C377.633 14.5748 373.156 10.0977 367.633 10.0977V20.0977ZM367.633 25.4258V35.4258C373.156 35.4258 377.633 30.9486 377.633 25.4258H367.633ZM339.531 25.4258L329.531 25.4258C329.531 30.9486 334.008 35.4258 339.531 35.4258V25.4258ZM339.531 11.418V1.41797C334.008 1.41797 329.531 5.89512 329.531 11.418H339.531ZM346.406 11.418H356.406C356.406 5.89512 351.929 1.41797 346.406 1.41797V11.418ZM346.406 20.0977H336.406C336.406 25.6205 340.883 30.0977 346.406 30.0977V20.0977ZM371.543 28.9492H381.543C381.543 23.4264 377.066 18.9492 371.543 18.9492V28.9492ZM371.543 34.2773V44.2773C377.066 44.2773 381.543 39.8002 381.543 34.2773H371.543ZM335.277 34.2773H325.277C325.277 39.8002 329.754 44.2773 335.277 44.2773V34.2773ZM335.277 28.9492V18.9492C329.754 18.9492 325.277 23.4264 325.277 28.9492H335.277ZM367.891 43.4727H377.891C377.891 37.9498 373.413 33.4727 367.891 33.4727V43.4727ZM367.891 48.9727V58.9727C373.413 58.9727 377.891 54.4955 377.891 48.9727H367.891ZM339.059 48.9727H329.059C329.059 54.4955 333.536 58.9727 339.059 58.9727V48.9727ZM339.059 37.0273V27.0273C333.536 27.0273 329.059 31.5045 329.059 37.0273H339.059ZM346.02 37.0273H356.02C356.02 31.5045 351.542 27.0273 346.02 27.0273V37.0273ZM346.02 43.4727H336.02C336.02 48.9955 340.497 53.4727 346.02 53.4727V43.4727ZM367.633 20.0977H357.633V25.4258H367.633H377.633V20.0977H367.633ZM367.633 25.4258V15.4258H339.531V25.4258V35.4258H367.633V25.4258ZM339.531 25.4258H349.531V11.418H339.531H329.531V25.4258L339.531 25.4258ZM339.531 11.418V21.418H346.406V11.418V1.41797H339.531V11.418ZM346.406 11.418H336.406V20.0977H346.406H356.406V11.418H346.406ZM346.406 20.0977V30.0977H367.633V20.0977V10.0977L346.406 10.0977V20.0977ZM371.543 28.9492H361.543V34.2773H371.543H381.543V28.9492H371.543ZM371.543 34.2773V24.2773H335.277V34.2773V44.2773H371.543V34.2773ZM335.277 34.2773H345.277V28.9492H335.277H325.277V34.2773H335.277ZM335.277 28.9492V38.9492H371.543V28.9492V18.9492H335.277V28.9492ZM367.891 43.4727H357.891V48.9727H367.891H377.891V43.4727H367.891ZM367.891 48.9727V38.9727H339.059V48.9727V58.9727H367.891V48.9727ZM339.059 48.9727H349.059V37.0273H339.059H329.059V48.9727H339.059ZM339.059 37.0273V47.0273H346.02V37.0273V27.0273H339.059V37.0273ZM346.02 37.0273H336.02V43.4727H346.02H356.02V37.0273H346.02ZM346.02 43.4727V53.4727H367.891V43.4727V33.4727H346.02V43.4727Z" fill="white" mask="url(#path-1-outside-1_6524_1831)"/>
</g>
<defs>
<filter id="filter0_d_6524_1831" x="0" y="0" width="385.543" height="67.875" filterUnits="userSpaceOnUse" color-interpolation-filters="sRGB">
<feFlood flood-opacity="0" result="BackgroundImageFix"/>
<feColorMatrix in="SourceAlpha" type="matrix" values="0 0 0 0 0 0 0 0 0 0 0 0 0 0 0 0 0 0 127 0" result="hardAlpha"/>
<feOffset dy="4"/>
<feGaussianBlur stdDeviation="2"/>
<feComposite in2="hardAlpha" operator="out"/>
<feColorMatrix type="matrix" values="0 0 0 0 0 0 0 0 0 0 0 0 0 0 0 0 0 0 0.07 0"/>
<feBlend mode="normal" in2="BackgroundImageFix" result="effect1_dropShadow_6524_1831"/>
<feBlend mode="normal" in="SourceGraphic" in2="effect1_dropShadow_6524_1831" result="shape"/>
</filter>
</defs>
</svg>
