<svg width="396" height="68" viewBox="0 0 396 68" fill="none" xmlns="http://www.w3.org/2000/svg">
<g filter="url(#filter0_d_6524_1873)">
<mask id="path-1-outside-1_6524_1873" maskUnits="userSpaceOnUse" x="3.99219" y="-0.507813" width="388" height="61" fill="black">
<rect fill="white" x="3.99219" y="-0.507813" width="388" height="61"/>
<path d="M33.3789 12.1914V17.6484H20.918V19.5391H32.1758V24.8242H20.918V26.7578C27.0195 26.7363 31.2305 26.6289 35.8711 25.8555L36.5156 31.1406C30.9727 32.1289 25.8164 32.1719 17.5234 32.1719H14V12.1914H33.3789ZM45.4102 10.0859V33.5898H38.4922V10.0859L45.4102 10.0859ZM45.4102 34.9648V49.4023H18.2969V34.9648H45.4102ZM25.0859 40.293V43.9023H38.6641V40.293H25.0859ZM62.6836 12.5352C69.043 12.4922 73.8984 16.7461 73.8984 22.5469C73.8984 28.3906 69.043 32.6016 62.6836 32.5586C56.4531 32.6016 51.4688 28.3906 51.4688 22.5469C51.4688 16.7461 56.4531 12.4922 62.6836 12.5352ZM62.6836 18.4648C60.2773 18.4648 58.3438 19.8398 58.3438 22.5469C58.3438 25.3398 60.2773 26.6289 62.6836 26.6289C65.2188 26.6289 67.1953 25.3398 67.1953 22.5469C67.1953 19.8398 65.2188 18.4648 62.6836 18.4648ZM83.7812 10V49.875H76.9492V10H83.7812ZM50.0508 36.6406C56.9688 36.6406 66.6367 36.5117 74.9297 35.3945L75.4453 40.3359C66.8516 42.0547 57.6133 42.1406 50.8242 42.1406L50.0508 36.6406ZM131.047 10.0859V38.9609H124.129V10.0859H131.047ZM131.992 43.6875V49.1875H103.848V36.082H110.809V43.6875H131.992ZM113.473 15.9727C113.43 20.7422 115.406 25.6836 122.324 27.7461L118.844 33.1172C114.504 31.8066 111.625 29.207 109.906 25.8555C108.123 29.4648 105.137 32.3652 100.539 33.8047L97.0156 28.3477C104.148 26.1562 106.254 20.8281 106.297 15.9727V12.2344L113.473 12.2344V15.9727ZM158.977 13.3086V25.9844H145.141V28.3906H159.75V33.6758H152.23V37.5C155.066 37.3711 157.881 37.1992 160.566 36.9414L161.082 41.9258C152.488 43.3867 143.852 43.3437 136.461 43.2148L135.688 37.6719C138.717 37.7148 141.982 37.7148 145.355 37.6719V33.6758L138.223 33.6758V21.043H152.145V18.6797H138.266V13.3086H158.977ZM169.418 10V49.875H162.586V10H169.418ZM198.637 19.9687C198.594 25.8555 200.914 32.8164 207.961 35.9961L204.18 41.3672C199.861 39.4766 196.982 35.8887 195.285 31.5703C193.545 36.3828 190.58 40.3574 186.047 42.3984L182.094 36.9844C189.27 33.6758 191.633 26.4141 191.633 19.9687V19.2812H183.77V13.6953L206.027 13.6953V19.2812L198.637 19.2812V19.9687ZM214.879 10V24.6094H220.25V30.3242H214.879V49.7461H207.961V10H214.879ZM236.664 16.4023C236.664 21.2578 238.727 26.1133 245.559 28.1758L241.906 33.5469C237.717 32.2363 234.945 29.7012 233.27 26.457C231.486 29.959 228.5 32.752 224.074 34.1484L220.25 28.7344C227.469 26.6289 229.66 21.3437 229.703 16.4453V12.4922L236.664 12.4922V16.4023ZM252.992 10.0859V21.1289H257.934V26.8867H252.992V39.0039H246.074V10.0859H252.992ZM254.238 43.6875V49.1875H226.609V36.125H233.613V43.6875H254.238ZM292.781 10V49.875H285.82V10H292.781ZM270.953 12.6641C277.012 12.6211 281.566 18.207 281.566 26.9727C281.566 35.8672 277.012 41.4102 270.953 41.4102C264.766 41.4102 260.168 35.8672 260.168 26.9727C260.168 18.207 264.766 12.6211 270.953 12.6641ZM270.953 18.8945C268.418 18.8516 266.828 21.4727 266.828 26.9727C266.828 32.5586 268.418 35.0937 270.953 35.0937C273.316 35.0937 274.949 32.5586 274.949 26.9727C274.949 21.4727 273.316 18.8516 270.953 18.8945ZM330.422 25.5117V31.0117H323.375V36.6836C326.254 36.5977 329.111 36.4043 331.84 36.125L332.355 41.1094C323.762 42.4414 315.125 42.4414 307.734 42.4844L306.961 36.8984C309.926 36.9414 313.148 36.9414 316.457 36.8984V31.0117H309.324V13.3945H330.25V18.8086H316.199V25.5117H330.422ZM340.691 10V49.875H333.859V10H340.691ZM377.215 20.0977V25.4258H349.113V11.418H355.988V20.0977H377.215ZM381.125 28.9492V34.2773H344.859V28.9492H381.125ZM377.473 43.4727V48.9727H348.641V37.0273H355.602V43.4727H377.473Z"/>
</mask>
<path d="M33.3789 12.1914V17.6484H20.918V19.5391H32.1758V24.8242H20.918V26.7578C27.0195 26.7363 31.2305 26.6289 35.8711 25.8555L36.5156 31.1406C30.9727 32.1289 25.8164 32.1719 17.5234 32.1719H14V12.1914H33.3789ZM45.4102 10.0859V33.5898H38.4922V10.0859L45.4102 10.0859ZM45.4102 34.9648V49.4023H18.2969V34.9648H45.4102ZM25.0859 40.293V43.9023H38.6641V40.293H25.0859ZM62.6836 12.5352C69.043 12.4922 73.8984 16.7461 73.8984 22.5469C73.8984 28.3906 69.043 32.6016 62.6836 32.5586C56.4531 32.6016 51.4688 28.3906 51.4688 22.5469C51.4688 16.7461 56.4531 12.4922 62.6836 12.5352ZM62.6836 18.4648C60.2773 18.4648 58.3438 19.8398 58.3438 22.5469C58.3438 25.3398 60.2773 26.6289 62.6836 26.6289C65.2188 26.6289 67.1953 25.3398 67.1953 22.5469C67.1953 19.8398 65.2188 18.4648 62.6836 18.4648ZM83.7812 10V49.875H76.9492V10H83.7812ZM50.0508 36.6406C56.9688 36.6406 66.6367 36.5117 74.9297 35.3945L75.4453 40.3359C66.8516 42.0547 57.6133 42.1406 50.8242 42.1406L50.0508 36.6406ZM131.047 10.0859V38.9609H124.129V10.0859H131.047ZM131.992 43.6875V49.1875H103.848V36.082H110.809V43.6875H131.992ZM113.473 15.9727C113.43 20.7422 115.406 25.6836 122.324 27.7461L118.844 33.1172C114.504 31.8066 111.625 29.207 109.906 25.8555C108.123 29.4648 105.137 32.3652 100.539 33.8047L97.0156 28.3477C104.148 26.1562 106.254 20.8281 106.297 15.9727V12.2344L113.473 12.2344V15.9727ZM158.977 13.3086V25.9844H145.141V28.3906H159.75V33.6758H152.23V37.5C155.066 37.3711 157.881 37.1992 160.566 36.9414L161.082 41.9258C152.488 43.3867 143.852 43.3437 136.461 43.2148L135.688 37.6719C138.717 37.7148 141.982 37.7148 145.355 37.6719V33.6758L138.223 33.6758V21.043H152.145V18.6797H138.266V13.3086H158.977ZM169.418 10V49.875H162.586V10H169.418ZM198.637 19.9687C198.594 25.8555 200.914 32.8164 207.961 35.9961L204.18 41.3672C199.861 39.4766 196.982 35.8887 195.285 31.5703C193.545 36.3828 190.58 40.3574 186.047 42.3984L182.094 36.9844C189.27 33.6758 191.633 26.4141 191.633 19.9687V19.2812H183.77V13.6953L206.027 13.6953V19.2812L198.637 19.2812V19.9687ZM214.879 10V24.6094H220.25V30.3242H214.879V49.7461H207.961V10H214.879ZM236.664 16.4023C236.664 21.2578 238.727 26.1133 245.559 28.1758L241.906 33.5469C237.717 32.2363 234.945 29.7012 233.27 26.457C231.486 29.959 228.5 32.752 224.074 34.1484L220.25 28.7344C227.469 26.6289 229.66 21.3437 229.703 16.4453V12.4922L236.664 12.4922V16.4023ZM252.992 10.0859V21.1289H257.934V26.8867H252.992V39.0039H246.074V10.0859H252.992ZM254.238 43.6875V49.1875H226.609V36.125H233.613V43.6875H254.238ZM292.781 10V49.875H285.82V10H292.781ZM270.953 12.6641C277.012 12.6211 281.566 18.207 281.566 26.9727C281.566 35.8672 277.012 41.4102 270.953 41.4102C264.766 41.4102 260.168 35.8672 260.168 26.9727C260.168 18.207 264.766 12.6211 270.953 12.6641ZM270.953 18.8945C268.418 18.8516 266.828 21.4727 266.828 26.9727C266.828 32.5586 268.418 35.0937 270.953 35.0937C273.316 35.0937 274.949 32.5586 274.949 26.9727C274.949 21.4727 273.316 18.8516 270.953 18.8945ZM330.422 25.5117V31.0117H323.375V36.6836C326.254 36.5977 329.111 36.4043 331.84 36.125L332.355 41.1094C323.762 42.4414 315.125 42.4414 307.734 42.4844L306.961 36.8984C309.926 36.9414 313.148 36.9414 316.457 36.8984V31.0117H309.324V13.3945H330.25V18.8086H316.199V25.5117H330.422ZM340.691 10V49.875H333.859V10H340.691ZM377.215 20.0977V25.4258H349.113V11.418H355.988V20.0977H377.215ZM381.125 28.9492V34.2773H344.859V28.9492H381.125ZM377.473 43.4727V48.9727H348.641V37.0273H355.602V43.4727H377.473Z" fill="#11DCA9"/>
<path d="M33.3789 12.1914L43.3789 12.1914C43.3789 6.66856 38.9018 2.19141 33.3789 2.19141V12.1914ZM33.3789 17.6484V27.6484C38.9018 27.6484 43.3789 23.1713 43.3789 17.6484H33.3789ZM20.918 17.6484V7.64844C15.3951 7.64844 10.918 12.1256 10.918 17.6484H20.918ZM20.918 19.5391H10.918C10.918 25.0619 15.3951 29.5391 20.918 29.5391V19.5391ZM32.1758 19.5391H42.1758C42.1758 14.0162 37.6986 9.53906 32.1758 9.53906V19.5391ZM32.1758 24.8242V34.8242C37.6986 34.8242 42.1758 30.3471 42.1758 24.8242H32.1758ZM20.918 24.8242V14.8242C15.3951 14.8242 10.918 19.3014 10.918 24.8242H20.918ZM20.918 26.7578H10.918C10.918 29.4161 11.9764 31.965 13.8594 33.8413C15.7423 35.7177 18.2949 36.7671 20.9532 36.7578L20.918 26.7578ZM35.8711 25.8555L45.7976 24.6449C45.4673 21.9369 44.045 19.4813 41.8603 17.8474C39.6755 16.2134 36.9181 15.543 34.2271 15.9915L35.8711 25.8555ZM36.5156 31.1406L38.2709 40.9854C43.4974 40.0535 47.0848 35.2 46.4421 29.9301L36.5156 31.1406ZM14 32.1719H4C4 37.6947 8.47715 42.1719 14 42.1719L14 32.1719ZM14 12.1914V2.19141C8.47715 2.19141 4 6.66856 4 12.1914H14ZM45.4102 10.0859H55.4102C55.4102 4.56309 50.933 0.0859375 45.4102 0.0859375V10.0859ZM45.4102 33.5898V43.5898C50.933 43.5898 55.4102 39.1127 55.4102 33.5898H45.4102ZM38.4922 33.5898H28.4922C28.4922 39.1127 32.9693 43.5898 38.4922 43.5898V33.5898ZM38.4922 10.0859V0.0859375C32.9693 0.0859375 28.4922 4.56309 28.4922 10.0859H38.4922ZM45.4102 34.9648H55.4102C55.4102 29.442 50.933 24.9648 45.4102 24.9648V34.9648ZM45.4102 49.4023V59.4023C50.933 59.4023 55.4102 54.9252 55.4102 49.4023H45.4102ZM18.2969 49.4023H8.29688C8.29688 54.9252 12.774 59.4023 18.2969 59.4023V49.4023ZM18.2969 34.9648V24.9648C12.774 24.9648 8.29688 29.442 8.29688 34.9648H18.2969ZM25.0859 40.293V30.293C19.5631 30.293 15.0859 34.7701 15.0859 40.293H25.0859ZM25.0859 43.9023H15.0859C15.0859 49.4252 19.5631 53.9023 25.0859 53.9023V43.9023ZM38.6641 43.9023V53.9023C44.1869 53.9023 48.6641 49.4252 48.6641 43.9023H38.6641ZM38.6641 40.293H48.6641C48.6641 34.7701 44.1869 30.293 38.6641 30.293V40.293ZM33.3789 12.1914H23.3789V17.6484H33.3789H43.3789V12.1914L33.3789 12.1914ZM33.3789 17.6484V7.64844H20.918V17.6484V27.6484H33.3789V17.6484ZM20.918 17.6484H10.918V19.5391H20.918H30.918V17.6484H20.918ZM20.918 19.5391V29.5391H32.1758V19.5391V9.53906H20.918V19.5391ZM32.1758 19.5391H22.1758V24.8242H32.1758H42.1758V19.5391H32.1758ZM32.1758 24.8242V14.8242H20.918V24.8242V34.8242H32.1758V24.8242ZM20.918 24.8242H10.918V26.7578H20.918H30.918V24.8242H20.918ZM20.918 26.7578L20.9532 36.7578C27.087 36.7362 32.0064 36.6375 37.5151 35.7194L35.8711 25.8555L34.2271 15.9915C30.4545 16.6203 26.9521 16.7365 20.8828 16.7579L20.918 26.7578ZM35.8711 25.8555L25.9446 27.066L26.5892 32.3512L36.5156 31.1406L46.4421 29.9301L45.7976 24.6449L35.8711 25.8555ZM36.5156 31.1406L34.7604 21.2959C30.2306 22.1035 25.9584 22.1719 17.5234 22.1719V32.1719V42.1719C25.6744 42.1719 31.7147 42.1543 38.2709 40.9854L36.5156 31.1406ZM17.5234 32.1719V22.1719H14V32.1719L14 42.1719H17.5234V32.1719ZM14 32.1719H24V12.1914H14H4L4 32.1719H14ZM14 12.1914V22.1914H33.3789V12.1914V2.19141L14 2.19141V12.1914ZM45.4102 10.0859L35.4102 10.0859V33.5898H45.4102H55.4102V10.0859H45.4102ZM45.4102 33.5898V23.5898H38.4922V33.5898V43.5898H45.4102V33.5898ZM38.4922 33.5898H48.4922V10.0859L38.4922 10.0859H28.4922V33.5898H38.4922ZM38.4922 10.0859V20.0859H45.4102V10.0859V0.0859375H38.4922V10.0859ZM45.4102 34.9648H35.4102V49.4023H45.4102H55.4102V34.9648H45.4102ZM45.4102 49.4023V39.4023H18.2969V49.4023V59.4023H45.4102V49.4023ZM18.2969 49.4023H28.2969V34.9648H18.2969H8.29688L8.29688 49.4023H18.2969ZM18.2969 34.9648V44.9648H45.4102V34.9648V24.9648H18.2969V34.9648ZM25.0859 40.293H15.0859V43.9023H25.0859H35.0859V40.293H25.0859ZM25.0859 43.9023V53.9023H38.6641V43.9023V33.9023H25.0859V43.9023ZM38.6641 43.9023H48.6641V40.293H38.6641H28.6641V43.9023H38.6641ZM38.6641 40.293V30.293H25.0859V40.293V50.293H38.6641V40.293ZM62.6836 12.5352L62.6146 22.5349C62.6601 22.5352 62.7057 22.5352 62.7512 22.5349L62.6836 12.5352ZM62.6836 32.5586L62.7512 22.5588C62.7057 22.5585 62.6601 22.5585 62.6146 22.5588L62.6836 32.5586ZM83.7812 10H93.7812C93.7812 4.47715 89.3041 0 83.7812 0V10ZM83.7812 49.875V59.875C89.3041 59.875 93.7812 55.3978 93.7812 49.875H83.7812ZM76.9492 49.875H66.9492C66.9492 55.3978 71.4264 59.875 76.9492 59.875V49.875ZM76.9492 10V0C71.4264 0 66.9492 4.47715 66.9492 10H76.9492ZM50.0508 36.6406V26.6406C47.1557 26.6406 44.4027 27.8953 42.5034 30.0803C40.6042 32.2654 39.7451 35.1663 40.1482 38.0332L50.0508 36.6406ZM74.9297 35.3945L84.8757 34.3567C84.595 31.6672 83.2372 29.206 81.1117 27.5344C78.9863 25.8627 76.2745 25.123 73.5946 25.4841L74.9297 35.3945ZM75.4453 40.3359L77.4065 50.1417C82.4677 49.1295 85.927 44.4317 85.3913 39.2981L75.4453 40.3359ZM50.8242 42.1406L40.9217 43.5332C41.6158 48.4694 45.8394 52.1406 50.8242 52.1406V42.1406ZM62.6836 12.5352L62.7512 22.5349C63.2167 22.5318 63.5446 22.6075 63.7465 22.6799C63.9499 22.7527 64.0317 22.8233 64.0371 22.8281C64.0389 22.8297 63.99 22.784 63.9447 22.6848C63.896 22.5782 63.8984 22.5128 63.8984 22.5469H73.8984L83.8984 22.5469C83.8984 10.1666 73.4353 2.46228 62.616 2.53538L62.6836 12.5352ZM73.8984 22.5469H63.8984C63.8984 22.6018 63.8918 22.543 63.9421 22.4328C63.9636 22.3858 63.9881 22.3458 64.0109 22.3153C64.0333 22.2853 64.0484 22.2718 64.0483 22.2718C64.048 22.2721 64.0293 22.2886 63.9851 22.3144C63.9408 22.3403 63.8698 22.376 63.7673 22.4125C63.5634 22.4851 63.2287 22.562 62.7512 22.5588L62.6836 32.5586L62.616 42.5584C73.4054 42.6313 83.8984 34.9968 83.8984 22.5469L73.8984 22.5469ZM62.6836 32.5586L62.6146 22.5588C61.7532 22.5648 61.3765 22.2798 61.3375 22.2456C61.3211 22.2312 61.3672 22.2685 61.4147 22.3707C61.4667 22.4827 61.4688 22.5621 61.4688 22.5469H51.4688H41.4688C41.4688 35.0666 52.1695 42.6313 62.7526 42.5584L62.6836 32.5586ZM51.4688 22.5469H61.4688C61.4688 22.5409 61.4691 22.5641 61.4592 22.6086C61.4495 22.6526 61.4335 22.7006 61.412 22.7469C61.3664 22.8448 61.3251 22.8752 61.3487 22.8544C61.4016 22.8078 61.78 22.5292 62.6146 22.5349L62.6836 12.5352L62.7526 2.53539C52.1395 2.4622 41.4688 10.0966 41.4688 22.5469H51.4688ZM62.6836 18.4648V8.46484C59.6632 8.46484 56.0561 9.32939 53.0483 11.9458C49.846 14.7313 48.3438 18.6259 48.3438 22.5469H58.3438H68.3438C68.3438 23.7608 67.8083 25.6144 66.1744 27.0357C64.7349 28.2878 63.2977 28.4648 62.6836 28.4648V18.4648ZM58.3438 22.5469H48.3438C48.3438 26.4329 49.7963 30.3964 53.1077 33.2315C56.1832 35.8646 59.8132 36.6289 62.6836 36.6289V26.6289V16.6289C63.1478 16.6289 64.6078 16.7486 66.115 18.039C67.858 19.5313 68.3438 21.4538 68.3438 22.5469H58.3438ZM62.6836 26.6289V36.6289C65.5059 36.6289 69.1455 35.9223 72.2669 33.3383C75.6695 30.5216 77.1953 26.5148 77.1953 22.5469L67.1953 22.5469H57.1953C57.1953 21.3719 57.7329 19.4061 59.5134 17.9322C61.0127 16.691 62.3964 16.6289 62.6836 16.6289V26.6289ZM67.1953 22.5469L77.1953 22.5469C77.1953 18.5435 75.6183 14.606 72.3268 11.8377C69.2686 9.2655 65.6508 8.46484 62.6836 8.46484V18.4648V28.4648C62.2515 28.4648 60.8896 28.3517 59.4535 27.1438C57.784 25.7397 57.1953 23.8432 57.1953 22.5469H67.1953ZM83.7812 10H73.7812V49.875H83.7812H93.7812V10H83.7812ZM83.7812 49.875V39.875H76.9492V49.875V59.875H83.7812V49.875ZM76.9492 49.875H86.9492V10H76.9492H66.9492V49.875H76.9492ZM76.9492 10V20H83.7812V10V0L76.9492 0V10ZM50.0508 36.6406V46.6406C56.9786 46.6406 67.2424 46.5205 76.2648 45.305L74.9297 35.3945L73.5946 25.4841C66.0311 26.503 56.9589 26.6406 50.0508 26.6406V36.6406ZM74.9297 35.3945L64.9837 36.4324L65.4993 41.3738L75.4453 40.3359L85.3913 39.2981L84.8757 34.3567L74.9297 35.3945ZM75.4453 40.3359L73.4841 30.5301C65.9777 32.0314 57.6542 32.1406 50.8242 32.1406V42.1406V52.1406C57.5723 52.1406 67.7255 52.0779 77.4065 50.1417L75.4453 40.3359ZM50.8242 42.1406L60.7268 40.7481L59.9533 35.2481L50.0508 36.6406L40.1482 38.0332L40.9217 43.5332L50.8242 42.1406ZM131.047 10.0859H141.047C141.047 4.56309 136.57 0.0859375 131.047 0.0859375V10.0859ZM131.047 38.9609V48.9609C136.57 48.9609 141.047 44.4838 141.047 38.9609L131.047 38.9609ZM124.129 38.9609H114.129C114.129 44.4838 118.606 48.9609 124.129 48.9609V38.9609ZM124.129 10.0859V0.0859375C118.606 0.0859375 114.129 4.56309 114.129 10.0859H124.129ZM131.992 43.6875L141.992 43.6875C141.992 38.1647 137.515 33.6875 131.992 33.6875V43.6875ZM131.992 49.1875V59.1875C137.515 59.1875 141.992 54.7103 141.992 49.1875L131.992 49.1875ZM103.848 49.1875H93.8477C93.8477 54.7103 98.3248 59.1875 103.848 59.1875V49.1875ZM103.848 36.082V26.082C98.3248 26.082 93.8477 30.5592 93.8477 36.082H103.848ZM110.809 36.082H120.809C120.809 30.5592 116.331 26.082 110.809 26.082V36.082ZM110.809 43.6875H100.809C100.809 49.2103 105.286 53.6875 110.809 53.6875V43.6875ZM113.473 15.9727L123.472 16.0627C123.473 16.0327 123.473 16.0027 123.473 15.9727H113.473ZM122.324 27.7461L130.716 33.1842C132.429 30.5406 132.797 27.2444 131.707 24.2886C130.618 21.3328 128.2 19.0629 125.181 18.1629L122.324 27.7461ZM118.844 33.1172L115.953 42.6902C120.215 43.9773 124.815 42.2916 127.236 38.5553L118.844 33.1172ZM109.906 25.8555L118.804 21.2923C117.08 17.9306 113.609 15.8275 109.831 15.8557C106.054 15.884 102.614 18.039 100.941 21.4261L109.906 25.8555ZM100.539 33.8047L92.138 39.229C94.5768 43.006 99.2363 44.6912 103.527 43.3479L100.539 33.8047ZM97.0156 28.3477L94.0788 18.7886C91.0844 19.7086 88.6941 21.9786 87.6209 24.9215C86.5476 27.8645 86.9154 31.1403 88.6146 33.7719L97.0156 28.3477ZM106.297 15.9727L116.296 16.0611C116.297 16.0317 116.297 16.0022 116.297 15.9727H106.297ZM106.297 12.2344V2.23437C100.774 2.23437 96.2969 6.71153 96.2969 12.2344H106.297ZM113.473 12.2344H123.473C123.473 6.71153 118.996 2.23437 113.473 2.23437V12.2344ZM131.047 10.0859H121.047V38.9609H131.047L141.047 38.9609V10.0859H131.047ZM131.047 38.9609V28.9609H124.129V38.9609V48.9609H131.047V38.9609ZM124.129 38.9609H134.129V10.0859H124.129H114.129V38.9609H124.129ZM124.129 10.0859V20.0859H131.047V10.0859V0.0859375L124.129 0.0859375V10.0859ZM131.992 43.6875H121.992V49.1875H131.992L141.992 49.1875V43.6875L131.992 43.6875ZM131.992 49.1875V39.1875H103.848V49.1875V59.1875H131.992V49.1875ZM103.848 49.1875H113.848V36.082H103.848H93.8477V49.1875H103.848ZM103.848 36.082V46.082H110.809V36.082V26.082H103.848V36.082ZM110.809 36.082H100.809V43.6875H110.809H120.809V36.082H110.809ZM110.809 43.6875V53.6875H131.992V43.6875V33.6875H110.809V43.6875ZM113.473 15.9727L103.473 15.8826C103.439 19.6126 104.185 24.1275 106.895 28.3115C109.707 32.6519 114.037 35.7103 119.467 37.3293L122.324 27.7461L125.181 18.1629C124.38 17.9239 123.986 17.6819 123.834 17.5733C123.755 17.5167 123.717 17.4789 123.703 17.4648C123.69 17.4508 123.685 17.4431 123.681 17.4375C123.678 17.4327 123.627 17.3561 123.574 17.1419C123.518 16.9151 123.468 16.5609 123.472 16.0627L113.473 15.9727ZM122.324 27.7461L113.932 22.308L110.452 27.6791L118.844 33.1172L127.236 38.5553L130.716 33.1842L122.324 27.7461ZM118.844 33.1172L121.735 23.5442C119.999 23.0201 119.286 22.232 118.804 21.2923L109.906 25.8555L101.008 30.4186C103.964 36.1821 109.009 40.5932 115.953 42.6902L118.844 33.1172ZM109.906 25.8555L100.941 21.4261C100.283 22.7574 99.3641 23.6939 97.5512 24.2615L100.539 33.8047L103.527 43.3479C110.909 41.0366 115.963 36.1723 118.872 30.2849L109.906 25.8555ZM100.539 33.8047L108.94 28.3804L105.417 22.9234L97.0156 28.3477L88.6146 33.7719L92.138 39.229L100.539 33.8047ZM97.0156 28.3477L99.9524 37.9067C105.577 36.1788 109.916 32.9365 112.725 28.5688C115.43 24.3642 116.263 19.8317 116.296 16.0611L106.297 15.9727L96.2973 15.8842C96.2877 16.9691 96.0468 17.5283 95.9045 17.7495C95.8412 17.8479 95.7447 17.969 95.5434 18.1171C95.3341 18.271 94.8968 18.5373 94.0788 18.7886L97.0156 28.3477ZM106.297 15.9727H116.297V12.2344L106.297 12.2344H96.2969V15.9727H106.297ZM106.297 12.2344V22.2344H113.473V12.2344V2.23437H106.297V12.2344ZM113.473 12.2344L103.473 12.2344V15.9727H113.473H123.473V12.2344H113.473ZM158.977 13.3086H168.977C168.977 7.78575 164.499 3.30859 158.977 3.30859V13.3086ZM158.977 25.9844V35.9844C164.499 35.9844 168.977 31.5072 168.977 25.9844H158.977ZM145.141 25.9844V15.9844C139.618 15.9844 135.141 20.4615 135.141 25.9844H145.141ZM145.141 28.3906H135.141C135.141 33.9135 139.618 38.3906 145.141 38.3906V28.3906ZM159.75 28.3906H169.75C169.75 22.8678 165.273 18.3906 159.75 18.3906V28.3906ZM159.75 33.6758V43.6758C165.273 43.6758 169.75 39.1986 169.75 33.6758H159.75ZM152.23 33.6758V23.6758C146.708 23.6758 142.23 28.1529 142.23 33.6758H152.23ZM152.23 37.5H142.23C142.23 40.231 143.347 42.8431 145.322 44.7298C147.296 46.6166 149.956 47.6137 152.685 47.4897L152.23 37.5ZM160.566 36.9414L170.513 35.9124C169.948 30.4475 165.08 26.4622 159.611 26.9872L160.566 36.9414ZM161.082 41.9258L162.758 51.7843C167.953 50.9012 171.571 46.1383 171.029 40.8968L161.082 41.9258ZM136.461 43.2148L126.557 44.5968C127.237 49.4723 131.365 53.1275 136.287 53.2133L136.461 43.2148ZM135.688 37.6719L135.829 27.6729C132.912 27.6315 130.121 28.8666 128.19 31.0542C126.259 33.2419 125.38 36.1638 125.783 39.0538L135.688 37.6719ZM145.355 37.6719L145.483 47.6711C150.956 47.6013 155.355 43.145 155.355 37.6719H145.355ZM145.355 33.6758H155.355C155.355 28.1529 150.878 23.6758 145.355 23.6758V33.6758ZM138.223 33.6758H128.223C128.223 39.1986 132.7 43.6758 138.223 43.6758V33.6758ZM138.223 21.043V11.043C132.7 11.043 128.223 15.5201 128.223 21.043H138.223ZM152.145 21.043V31.043C157.667 31.043 162.145 26.5658 162.145 21.043H152.145ZM152.145 18.6797H162.145C162.145 13.1568 157.667 8.67969 152.145 8.67969V18.6797ZM138.266 18.6797H128.266C128.266 24.2025 132.743 28.6797 138.266 28.6797V18.6797ZM138.266 13.3086V3.30859C132.743 3.30859 128.266 7.78575 128.266 13.3086H138.266ZM169.418 10L179.418 10C179.418 4.47715 174.941 0 169.418 0V10ZM169.418 49.875V59.875C174.941 59.875 179.418 55.3978 179.418 49.875H169.418ZM162.586 49.875H152.586C152.586 55.3978 157.063 59.875 162.586 59.875V49.875ZM162.586 10V0C157.063 0 152.586 4.47715 152.586 10H162.586ZM158.977 13.3086H148.977V25.9844H158.977H168.977V13.3086H158.977ZM158.977 25.9844V15.9844H145.141V25.9844V35.9844H158.977V25.9844ZM145.141 25.9844H135.141V28.3906H145.141H155.141V25.9844H145.141ZM145.141 28.3906V38.3906H159.75V28.3906V18.3906H145.141V28.3906ZM159.75 28.3906H149.75V33.6758H159.75H169.75V28.3906H159.75ZM159.75 33.6758V23.6758H152.23V33.6758V43.6758H159.75V33.6758ZM152.23 33.6758H142.23V37.5H152.23H162.23V33.6758H152.23ZM152.23 37.5L152.685 47.4897C155.612 47.3566 158.608 47.1754 161.522 46.8956L160.566 36.9414L159.611 26.9872C157.153 27.2231 154.52 27.3856 151.776 27.5103L152.23 37.5ZM160.566 36.9414L150.619 37.9704L151.135 42.9548L161.082 41.9258L171.029 40.8968L170.513 35.9124L160.566 36.9414ZM161.082 41.9258L159.406 32.0672C151.823 33.3564 144.019 33.3451 136.635 33.2164L136.461 43.2148L136.287 53.2133C143.684 53.3424 153.154 53.4171 162.758 51.7843L161.082 41.9258ZM136.461 43.2148L146.365 41.8329L145.592 36.2899L135.688 37.6719L125.783 39.0538L126.557 44.5968L136.461 43.2148ZM135.688 37.6719L135.546 47.6709C138.674 47.7152 142.03 47.715 145.483 47.6711L145.355 37.6719L145.228 27.6727C141.935 27.7146 138.76 27.7144 135.829 27.6729L135.688 37.6719ZM145.355 37.6719H155.355V33.6758H145.355L135.355 33.6758V37.6719L145.355 37.6719ZM145.355 33.6758V23.6758H138.223V33.6758V43.6758L145.355 43.6758V33.6758ZM138.223 33.6758L148.223 33.6758V21.043H138.223H128.223V33.6758H138.223ZM138.223 21.043V31.043L152.145 31.043V21.043V11.043H138.223V21.043ZM152.145 21.043H162.145V18.6797H152.145H142.145V21.043H152.145ZM152.145 18.6797V8.67969H138.266V18.6797V28.6797L152.145 28.6797V18.6797ZM138.266 18.6797H148.266V13.3086H138.266H128.266V18.6797H138.266ZM138.266 13.3086V23.3086H158.977V13.3086V3.30859L138.266 3.30859V13.3086ZM169.418 10H159.418V49.875H169.418H179.418V10L169.418 10ZM169.418 49.875V39.875H162.586V49.875V59.875H169.418V49.875ZM162.586 49.875H172.586V10L162.586 10H152.586V49.875H162.586ZM162.586 10V20H169.418V10V0L162.586 0V10ZM198.637 19.9687L208.636 20.0417C208.637 20.0174 208.637 19.9931 208.637 19.9687L198.637 19.9687ZM207.961 35.9961L216.138 41.7526C217.855 39.3141 218.393 36.2367 217.607 33.36C216.821 30.4833 214.792 28.1076 212.074 26.881L207.961 35.9961ZM204.18 41.3672L200.169 50.5277C204.524 52.4344 209.62 51.0113 212.357 47.1237L204.18 41.3672ZM195.285 31.5703L204.592 27.9124C203.07 24.0395 199.308 21.514 195.148 21.5713C190.987 21.6285 187.296 24.2565 185.881 28.1697L195.285 31.5703ZM186.047 42.3984L177.971 48.2954C180.759 52.1141 185.841 53.458 190.152 51.5168L186.047 42.3984ZM182.094 36.9844L177.907 27.9032C175.184 29.1586 173.168 31.5693 172.415 34.4712C171.661 37.3731 172.25 40.46 174.017 42.8813L182.094 36.9844ZM191.633 19.2812H201.633C201.633 13.7584 197.156 9.28125 191.633 9.28125V19.2812ZM183.77 19.2812H173.77C173.77 24.8041 178.247 29.2812 183.77 29.2812V19.2812ZM183.77 13.6953V3.69531C178.247 3.69531 173.77 8.17247 173.77 13.6953H183.77ZM206.027 13.6953H216.027C216.027 8.17247 211.55 3.69531 206.027 3.69531V13.6953ZM206.027 19.2812V29.2812C211.55 29.2812 216.027 24.8041 216.027 19.2812H206.027ZM198.637 19.2812V9.28125C193.114 9.28125 188.637 13.7584 188.637 19.2812H198.637ZM214.879 10H224.879C224.879 4.47715 220.402 0 214.879 0V10ZM214.879 24.6094H204.879C204.879 30.1322 209.356 34.6094 214.879 34.6094V24.6094ZM220.25 24.6094H230.25C230.25 19.0865 225.773 14.6094 220.25 14.6094V24.6094ZM220.25 30.3242V40.3242C225.773 40.3242 230.25 35.8471 230.25 30.3242H220.25ZM214.879 30.3242V20.3242C209.356 20.3242 204.879 24.8014 204.879 30.3242H214.879ZM214.879 49.7461V59.7461C220.402 59.7461 224.879 55.2689 224.879 49.7461H214.879ZM207.961 49.7461H197.961C197.961 55.2689 202.438 59.7461 207.961 59.7461V49.7461ZM207.961 10V0C202.438 0 197.961 4.47715 197.961 10H207.961ZM198.637 19.9687L188.637 19.8958C188.578 28.0125 191.845 39.6953 203.848 45.1111L207.961 35.9961L212.074 26.881C210.829 26.3195 210.088 25.52 209.561 24.4788C208.965 23.3029 208.624 21.7302 208.636 20.0417L198.637 19.9687ZM207.961 35.9961L199.784 30.2395L196.003 35.6106L204.18 41.3672L212.357 47.1237L216.138 41.7526L207.961 35.9961ZM204.18 41.3672L208.19 32.2067C206.856 31.6227 205.571 30.403 204.592 27.9124L195.285 31.5703L185.978 35.2283C188.394 41.3744 192.866 47.3304 200.169 50.5277L204.18 41.3672ZM195.285 31.5703L185.881 28.1697C184.756 31.2803 183.296 32.6703 181.941 33.28L186.047 42.3984L190.152 51.5168C197.865 48.0445 202.334 41.4854 204.689 34.9709L195.285 31.5703ZM186.047 42.3984L194.123 36.5015L190.17 31.0874L182.094 36.9844L174.017 42.8813L177.971 48.2954L186.047 42.3984ZM182.094 36.9844L186.281 46.0656C198.484 40.4388 201.633 28.3629 201.633 19.9687H191.633H181.633C181.633 22.0572 181.238 23.8994 180.575 25.2508C179.982 26.4612 179.177 27.3177 177.907 27.9032L182.094 36.9844ZM191.633 19.9687H201.633V19.2812H191.633H181.633V19.9687H191.633ZM191.633 19.2812V9.28125H183.77V19.2812V29.2812H191.633V19.2812ZM183.77 19.2812H193.77V13.6953H183.77H173.77V19.2812H183.77ZM183.77 13.6953V23.6953L206.027 23.6953V13.6953V3.69531L183.77 3.69531V13.6953ZM206.027 13.6953L196.027 13.6953V19.2812L206.027 19.2812H216.027V13.6953H206.027ZM206.027 19.2812V9.28125H198.637V19.2812V29.2812H206.027V19.2812ZM198.637 19.2812H188.637V19.9687H198.637L208.637 19.9687V19.2812L198.637 19.2812ZM214.879 10H204.879V24.6094H214.879H224.879V10H214.879ZM214.879 24.6094V34.6094H220.25V24.6094V14.6094H214.879V24.6094ZM220.25 24.6094H210.25V30.3242H220.25H230.25V24.6094H220.25ZM220.25 30.3242V20.3242H214.879V30.3242V40.3242H220.25V30.3242ZM214.879 30.3242H204.879V49.7461H214.879H224.879V30.3242H214.879ZM214.879 49.7461V39.7461H207.961V49.7461V59.7461H214.879V49.7461ZM207.961 49.7461H217.961V10H207.961H197.961V49.7461H207.961ZM207.961 10V20H214.879V10V0L207.961 0V10ZM245.559 28.1758L253.828 33.7989C255.618 31.1667 256.048 27.8396 254.985 24.8389C253.923 21.8382 251.496 19.5224 248.449 18.6025L245.559 28.1758ZM241.906 33.5469L238.921 43.0908C243.126 44.4064 247.698 42.814 250.176 39.17L241.906 33.5469ZM233.27 26.457L242.154 21.8676C240.433 18.5351 236.991 16.4462 233.24 16.4571C229.49 16.468 226.06 18.577 224.358 21.9194L233.27 26.457ZM224.074 34.1484L215.906 39.9178C218.416 43.4709 222.935 44.9939 227.083 43.685L224.074 34.1484ZM220.25 28.7344L217.45 19.1344C214.348 20.0391 211.875 22.3867 210.809 25.4371C209.744 28.4875 210.218 31.8647 212.082 34.5038L220.25 28.7344ZM229.703 16.4453L239.703 16.533C239.703 16.5038 239.703 16.4746 239.703 16.4453H229.703ZM229.703 12.4922V2.49219C224.18 2.49219 219.703 6.96934 219.703 12.4922H229.703ZM236.664 12.4922H246.664C246.664 6.96934 242.187 2.49219 236.664 2.49219V12.4922ZM252.992 10.0859H262.992C262.992 4.56309 258.515 0.0859375 252.992 0.0859375V10.0859ZM252.992 21.1289H242.992C242.992 26.6518 247.469 31.1289 252.992 31.1289V21.1289ZM257.934 21.1289H267.934C267.934 15.6061 263.456 11.1289 257.934 11.1289V21.1289ZM257.934 26.8867V36.8867C263.456 36.8867 267.934 32.4096 267.934 26.8867H257.934ZM252.992 26.8867V16.8867C247.469 16.8867 242.992 21.3639 242.992 26.8867H252.992ZM252.992 39.0039V49.0039C258.515 49.0039 262.992 44.5268 262.992 39.0039H252.992ZM246.074 39.0039H236.074C236.074 44.5268 240.551 49.0039 246.074 49.0039V39.0039ZM246.074 10.0859V0.0859375C240.551 0.0859375 236.074 4.56309 236.074 10.0859H246.074ZM254.238 43.6875H264.238C264.238 38.1647 259.761 33.6875 254.238 33.6875V43.6875ZM254.238 49.1875V59.1875C259.761 59.1875 264.238 54.7103 264.238 49.1875H254.238ZM226.609 49.1875H216.609C216.609 54.7103 221.087 59.1875 226.609 59.1875V49.1875ZM226.609 36.125V26.125C221.087 26.125 216.609 30.6022 216.609 36.125H226.609ZM233.613 36.125H243.613C243.613 30.6022 239.136 26.125 233.613 26.125V36.125ZM233.613 43.6875H223.613C223.613 49.2103 228.09 53.6875 233.613 53.6875V43.6875ZM236.664 16.4023H226.664C226.664 20.188 227.466 24.6902 230.199 28.8385C233.025 33.1273 237.324 36.1357 242.669 37.7491L245.559 28.1758L248.449 18.6025C247.651 18.3617 247.249 18.1181 247.084 18.0007C246.932 17.8926 246.901 17.8361 246.9 17.8343C246.894 17.8254 246.664 17.4721 246.664 16.4023H236.664ZM245.559 28.1758L237.289 22.5527L233.637 27.9238L241.906 33.5469L250.176 39.17L253.828 33.7989L245.559 28.1758ZM241.906 33.5469L244.892 24.0029C243.977 23.7166 243.434 23.3709 243.094 23.0839C242.751 22.7949 242.438 22.4165 242.154 21.8676L233.27 26.457L224.385 31.0465C227.272 36.6349 232.151 40.9732 238.921 43.0908L241.906 33.5469ZM233.27 26.457L224.358 21.9194C223.74 23.134 222.824 24.0568 221.065 24.6119L224.074 34.1484L227.083 43.685C234.176 41.4471 239.233 36.784 242.181 30.9947L233.27 26.457ZM224.074 34.1484L232.242 28.3791L228.418 22.965L220.25 28.7344L212.082 34.5038L215.906 39.9178L224.074 34.1484ZM220.25 28.7344L223.05 38.3344C228.695 36.6879 233.114 33.5216 236.004 29.1607C238.792 24.9529 239.669 20.3765 239.703 16.533L229.703 16.4453L219.704 16.3576C219.694 17.4126 219.454 17.928 219.331 18.1137C219.276 18.1978 219.182 18.3152 218.973 18.4642C218.754 18.6198 218.297 18.8872 217.45 19.1344L220.25 28.7344ZM229.703 16.4453H239.703V12.4922L229.703 12.4922H219.703V16.4453H229.703ZM229.703 12.4922V22.4922H236.664V12.4922V2.49219H229.703V12.4922ZM236.664 12.4922L226.664 12.4922V16.4023H236.664H246.664V12.4922H236.664ZM252.992 10.0859H242.992V21.1289H252.992H262.992V10.0859H252.992ZM252.992 21.1289V31.1289H257.934V21.1289V11.1289H252.992V21.1289ZM257.934 21.1289H247.934V26.8867H257.934H267.934V21.1289H257.934ZM257.934 26.8867V16.8867H252.992V26.8867V36.8867H257.934V26.8867ZM252.992 26.8867H242.992V39.0039H252.992H262.992V26.8867H252.992ZM252.992 39.0039V29.0039H246.074V39.0039V49.0039H252.992V39.0039ZM246.074 39.0039H256.074V10.0859H246.074H236.074V39.0039H246.074ZM246.074 10.0859V20.0859H252.992V10.0859V0.0859375H246.074V10.0859ZM254.238 43.6875H244.238V49.1875H254.238H264.238V43.6875H254.238ZM254.238 49.1875V39.1875H226.609V49.1875V59.1875H254.238V49.1875ZM226.609 49.1875H236.609V36.125H226.609H216.609V49.1875H226.609ZM226.609 36.125V46.125H233.613V36.125V26.125H226.609V36.125ZM233.613 36.125H223.613V43.6875H233.613H243.613V36.125H233.613ZM233.613 43.6875V53.6875H254.238V43.6875V33.6875H233.613V43.6875ZM292.781 10L302.781 10C302.781 4.47715 298.304 0 292.781 0V10ZM292.781 49.875V59.875C298.304 59.875 302.781 55.3978 302.781 49.875H292.781ZM285.82 49.875H275.82C275.82 55.3978 280.297 59.875 285.82 59.875V49.875ZM285.82 10V0C280.297 0 275.82 4.47715 275.82 10H285.82ZM270.953 12.6641L270.884 22.6638C270.93 22.6641 270.977 22.6641 271.024 22.6638L270.953 12.6641ZM270.953 18.8945L270.784 28.8931C270.901 28.8951 271.018 28.895 271.135 28.8929L270.953 18.8945ZM292.781 10H282.781V49.875H292.781H302.781V10L292.781 10ZM292.781 49.875V39.875H285.82V49.875V59.875H292.781V49.875ZM285.82 49.875H295.82V10H285.82H275.82V49.875H285.82ZM285.82 10V20H292.781V10V0L285.82 0V10ZM270.953 12.6641L271.024 22.6638C270.956 22.6643 270.787 22.6406 270.611 22.5508C270.45 22.4681 270.459 22.4198 270.579 22.5782C270.85 22.9327 271.566 24.2334 271.566 26.9727H281.566H291.566C291.566 20.9463 290.006 15.0712 286.484 10.4521C282.837 5.66819 277.304 2.61877 270.882 2.66431L270.953 12.6641ZM281.566 26.9727H271.566C271.566 29.8028 270.837 31.1249 270.567 31.4804C270.446 31.6391 270.435 31.594 270.589 31.5147C270.755 31.4293 270.908 31.4102 270.953 31.4102V41.4102V51.4102C277.327 51.4102 282.845 48.3834 286.497 43.5733C290.019 38.9337 291.566 33.0371 291.566 26.9727H281.566ZM270.953 41.4102V31.4102C270.932 31.4102 271.036 31.4135 271.174 31.483C271.302 31.5479 271.283 31.5815 271.164 31.4265C270.898 31.0816 270.168 29.7839 270.168 26.9727H260.168H250.168C250.168 33.056 251.736 38.977 255.317 43.6273C259.029 48.4498 264.591 51.4102 270.953 51.4102V41.4102ZM260.168 26.9727H270.168C270.168 24.2526 270.885 22.9762 271.151 22.632C271.271 22.4774 271.287 22.5139 271.152 22.5822C271.091 22.6127 271.025 22.6363 270.963 22.6507C270.901 22.6649 270.871 22.6637 270.884 22.6638L270.953 12.6641L271.023 2.6643C264.613 2.6198 259.038 5.60151 255.329 10.3982C251.75 15.0277 250.168 20.9271 250.168 26.9727H260.168ZM270.953 18.8945L271.123 8.89597C265.491 8.80052 261.293 12.0746 259.119 16.1436C257.278 19.59 256.828 23.5385 256.828 26.9727H266.828H276.828C276.828 26.0559 276.896 25.4897 276.949 25.2055C277.006 24.8993 277.011 25.0966 276.761 25.5664C276.494 26.0649 275.868 26.9904 274.654 27.7722C273.376 28.5955 271.979 28.9134 270.784 28.8931L270.953 18.8945ZM266.828 26.9727H256.828C256.828 30.4271 257.272 34.3944 259.127 37.8541C261.342 41.9836 265.517 45.0937 270.953 45.0937V35.0937V25.0937C272.063 25.0937 273.399 25.3965 274.646 26.1982C275.843 26.9673 276.474 27.8831 276.753 28.4018C277.012 28.8846 277.007 29.0928 276.95 28.7849C276.897 28.4977 276.828 27.9194 276.828 26.9727H266.828ZM270.953 35.0937V45.0937C276.552 45.0937 280.603 41.7294 282.68 37.7986C284.479 34.3926 284.949 30.4806 284.949 26.9727H274.949H264.949C264.949 27.9039 264.879 28.4806 264.825 28.7724C264.767 29.0842 264.758 28.9062 264.995 28.4572C265.244 27.9865 265.84 27.0851 267.012 26.3005C268.252 25.4703 269.661 25.0937 270.953 25.0937V35.0937ZM274.949 26.9727H284.949C284.949 23.4853 284.472 19.5914 282.687 16.199C280.657 12.3393 276.578 8.79061 270.771 8.89618L270.953 18.8945L271.135 28.8929C269.749 28.9181 268.274 28.5217 267.004 27.6697C265.815 26.8723 265.224 25.9614 264.987 25.511C264.758 25.075 264.769 24.9078 264.827 25.218C264.881 25.507 264.949 26.0715 264.949 26.9727H274.949ZM330.422 25.5117L340.422 25.5117C340.422 19.9889 335.945 15.5117 330.422 15.5117V25.5117ZM330.422 31.0117V41.0117C335.945 41.0117 340.422 36.5346 340.422 31.0117H330.422ZM323.375 31.0117V21.0117C317.852 21.0117 313.375 25.4889 313.375 31.0117H323.375ZM323.375 36.6836H313.375C313.375 39.3875 314.47 41.9762 316.41 43.8594C318.35 45.7426 320.971 46.7598 323.673 46.6791L323.375 36.6836ZM331.84 36.125L341.787 35.096C341.219 29.6067 336.311 25.615 330.822 26.177L331.84 36.125ZM332.355 41.1094L333.887 50.9914C339.15 50.1756 342.85 45.378 342.302 40.0804L332.355 41.1094ZM307.734 42.4844L297.829 43.8559C298.517 48.8235 302.778 52.5134 307.793 52.4842L307.734 42.4844ZM306.961 36.8984L307.106 26.8995C304.189 26.8572 301.4 28.0903 299.468 30.2757C297.537 32.4611 296.655 35.3808 297.055 38.27L306.961 36.8984ZM316.457 36.8984L316.587 46.8976C322.059 46.8265 326.457 42.3706 326.457 36.8984H316.457ZM316.457 31.0117H326.457C326.457 25.4889 321.98 21.0117 316.457 21.0117V31.0117ZM309.324 31.0117H299.324C299.324 36.5346 303.801 41.0117 309.324 41.0117V31.0117ZM309.324 13.3945V3.39453C303.801 3.39453 299.324 7.87168 299.324 13.3945H309.324ZM330.25 13.3945L340.25 13.3945C340.25 7.87168 335.773 3.39453 330.25 3.39453V13.3945ZM330.25 18.8086V28.8086C335.773 28.8086 340.25 24.3314 340.25 18.8086L330.25 18.8086ZM316.199 18.8086V8.80859C310.676 8.80859 306.199 13.2857 306.199 18.8086H316.199ZM316.199 25.5117H306.199C306.199 31.0346 310.676 35.5117 316.199 35.5117V25.5117ZM340.691 10H350.691C350.691 4.47715 346.214 0 340.691 0V10ZM340.691 49.875V59.875C346.214 59.875 350.691 55.3978 350.691 49.875H340.691ZM333.859 49.875H323.859C323.859 55.3978 328.337 59.875 333.859 59.875V49.875ZM333.859 10V0C328.337 0 323.859 4.47715 323.859 10H333.859ZM330.422 25.5117H320.422V31.0117H330.422H340.422V25.5117L330.422 25.5117ZM330.422 31.0117V21.0117H323.375V31.0117V41.0117H330.422V31.0117ZM323.375 31.0117H313.375V36.6836H323.375H333.375V31.0117H323.375ZM323.375 36.6836L323.673 46.6791C326.798 46.5859 329.896 46.3763 332.858 46.073L331.84 36.125L330.822 26.177C328.327 26.4323 325.71 26.6094 323.077 26.688L323.375 36.6836ZM331.84 36.125L321.893 37.154L322.409 42.1384L332.355 41.1094L342.302 40.0804L341.787 35.096L331.84 36.125ZM332.355 41.1094L330.824 31.2274C323.094 32.4255 315.221 32.4407 307.676 32.4845L307.734 42.4844L307.793 52.4842C315.029 52.4421 324.43 52.4573 333.887 50.9914L332.355 41.1094ZM307.734 42.4844L317.64 41.1128L316.866 35.5269L306.961 36.8984L297.055 38.27L297.829 43.8559L307.734 42.4844ZM306.961 36.8984L306.816 46.8974C309.882 46.9418 313.197 46.9416 316.587 46.8976L316.457 36.8984L316.327 26.8993C313.1 26.9412 309.969 26.941 307.106 26.8995L306.961 36.8984ZM316.457 36.8984H326.457V31.0117H316.457H306.457V36.8984H316.457ZM316.457 31.0117V21.0117H309.324V31.0117V41.0117H316.457V31.0117ZM309.324 31.0117H319.324V13.3945H309.324H299.324V31.0117H309.324ZM309.324 13.3945V23.3945H330.25V13.3945V3.39453L309.324 3.39453V13.3945ZM330.25 13.3945H320.25V18.8086H330.25L340.25 18.8086V13.3945L330.25 13.3945ZM330.25 18.8086V8.80859H316.199V18.8086V28.8086H330.25V18.8086ZM316.199 18.8086H306.199V25.5117H316.199H326.199V18.8086H316.199ZM316.199 25.5117V35.5117H330.422V25.5117V15.5117H316.199V25.5117ZM340.691 10H330.691V49.875H340.691H350.691V10H340.691ZM340.691 49.875V39.875H333.859V49.875V59.875H340.691V49.875ZM333.859 49.875H343.859V10H333.859H323.859V49.875H333.859ZM333.859 10V20H340.691V10V0L333.859 0V10ZM377.215 20.0977H387.215C387.215 14.5748 382.738 10.0977 377.215 10.0977V20.0977ZM377.215 25.4258V35.4258C382.738 35.4258 387.215 30.9486 387.215 25.4258H377.215ZM349.113 25.4258H339.113C339.113 30.9486 343.59 35.4258 349.113 35.4258V25.4258ZM349.113 11.418V1.41797C343.59 1.41797 339.113 5.89512 339.113 11.418H349.113ZM355.988 11.418L365.988 11.418C365.988 5.89512 361.511 1.41797 355.988 1.41797V11.418ZM355.988 20.0977H345.988C345.988 25.6205 350.465 30.0977 355.988 30.0977V20.0977ZM381.125 28.9492H391.125C391.125 23.4264 386.648 18.9492 381.125 18.9492V28.9492ZM381.125 34.2773V44.2773C386.648 44.2773 391.125 39.8002 391.125 34.2773H381.125ZM344.859 34.2773H334.859C334.859 39.8002 339.337 44.2773 344.859 44.2773V34.2773ZM344.859 28.9492V18.9492C339.337 18.9492 334.859 23.4264 334.859 28.9492H344.859ZM377.473 43.4727H387.473C387.473 37.9498 382.996 33.4727 377.473 33.4727V43.4727ZM377.473 48.9727V58.9727C382.996 58.9727 387.473 54.4955 387.473 48.9727H377.473ZM348.641 48.9727H338.641C338.641 54.4955 343.118 58.9727 348.641 58.9727V48.9727ZM348.641 37.0273V27.0273C343.118 27.0273 338.641 31.5045 338.641 37.0273H348.641ZM355.602 37.0273H365.602C365.602 31.5045 361.124 27.0273 355.602 27.0273V37.0273ZM355.602 43.4727H345.602C345.602 48.9955 350.079 53.4727 355.602 53.4727V43.4727ZM377.215 20.0977H367.215V25.4258H377.215H387.215V20.0977H377.215ZM377.215 25.4258V15.4258H349.113V25.4258V35.4258H377.215V25.4258ZM349.113 25.4258H359.113V11.418H349.113H339.113V25.4258H349.113ZM349.113 11.418V21.418H355.988V11.418V1.41797H349.113V11.418ZM355.988 11.418H345.988V20.0977H355.988H365.988V11.418L355.988 11.418ZM355.988 20.0977V30.0977H377.215V20.0977V10.0977L355.988 10.0977V20.0977ZM381.125 28.9492H371.125V34.2773H381.125H391.125V28.9492H381.125ZM381.125 34.2773V24.2773H344.859V34.2773V44.2773H381.125V34.2773ZM344.859 34.2773H354.859V28.9492H344.859H334.859V34.2773H344.859ZM344.859 28.9492V38.9492H381.125V28.9492V18.9492H344.859V28.9492ZM377.473 43.4727H367.473V48.9727H377.473H387.473V43.4727H377.473ZM377.473 48.9727V38.9727H348.641V48.9727V58.9727H377.473V48.9727ZM348.641 48.9727H358.641V37.0273H348.641H338.641V48.9727H348.641ZM348.641 37.0273V47.0273H355.602V37.0273V27.0273H348.641V37.0273ZM355.602 37.0273H345.602V43.4727H355.602H365.602V37.0273H355.602ZM355.602 43.4727V53.4727H377.473V43.4727V33.4727H355.602V43.4727Z" fill="white" mask="url(#path-1-outside-1_6524_1873)"/>
</g>
<defs>
<filter id="filter0_d_6524_1873" x="0" y="0" width="395.125" height="67.875" filterUnits="userSpaceOnUse" color-interpolation-filters="sRGB">
<feFlood flood-opacity="0" result="BackgroundImageFix"/>
<feColorMatrix in="SourceAlpha" type="matrix" values="0 0 0 0 0 0 0 0 0 0 0 0 0 0 0 0 0 0 127 0" result="hardAlpha"/>
<feOffset dy="4"/>
<feGaussianBlur stdDeviation="2"/>
<feComposite in2="hardAlpha" operator="out"/>
<feColorMatrix type="matrix" values="0 0 0 0 0 0 0 0 0 0 0 0 0 0 0 0 0 0 0.07 0"/>
<feBlend mode="normal" in2="BackgroundImageFix" result="effect1_dropShadow_6524_1873"/>
<feBlend mode="normal" in="SourceGraphic" in2="effect1_dropShadow_6524_1873" result="shape"/>
</filter>
</defs>
</svg>
