<svg width="348" height="68" viewBox="0 0 348 68" fill="none" xmlns="http://www.w3.org/2000/svg">
<g filter="url(#filter0_d_6524_1865)">
<mask id="path-1-outside-1_6524_1865" maskUnits="userSpaceOnUse" x="3.99219" y="-0.507813" width="340" height="61" fill="black">
<rect fill="white" x="3.99219" y="-0.507813" width="340" height="61"/>
<path d="M33.3789 12.1914V17.6484H20.918V19.5391H32.1758V24.8242H20.918V26.7578C27.0195 26.7363 31.2305 26.6289 35.8711 25.8555L36.5156 31.1406C30.9727 32.1289 25.8164 32.1719 17.5234 32.1719H14V12.1914H33.3789ZM45.4102 10.0859V33.5898H38.4922V10.0859L45.4102 10.0859ZM45.4102 34.9648V49.4023H18.2969V34.9648H45.4102ZM25.0859 40.293V43.9023H38.6641V40.293H25.0859ZM62.6836 12.5352C69.043 12.4922 73.8984 16.7461 73.8984 22.5469C73.8984 28.3906 69.043 32.6016 62.6836 32.5586C56.4531 32.6016 51.4688 28.3906 51.4688 22.5469C51.4688 16.7461 56.4531 12.4922 62.6836 12.5352ZM62.6836 18.4648C60.2773 18.4648 58.3438 19.8398 58.3438 22.5469C58.3438 25.3398 60.2773 26.6289 62.6836 26.6289C65.2188 26.6289 67.1953 25.3398 67.1953 22.5469C67.1953 19.8398 65.2188 18.4648 62.6836 18.4648ZM83.7812 10V49.875H76.9492V10H83.7812ZM50.0508 36.6406C56.9688 36.6406 66.6367 36.5117 74.9297 35.3945L75.4453 40.3359C66.8516 42.0547 57.6133 42.1406 50.8242 42.1406L50.0508 36.6406ZM133.711 28.9492V34.4062H97.5312V28.9492H112.141V24.2227H119.016V28.9492H133.711ZM119.102 11.7187C119.102 15.8867 121.809 20.2695 131.992 21.4297L129.414 26.7578C122.496 25.791 117.941 23.2344 115.492 19.625C112.979 23.1914 108.488 25.791 101.613 26.7578L99.207 21.4297C109.133 20.2695 112.055 15.6289 112.055 11.7187V10.7305H119.102V11.7187ZM129.414 36.5117V49.7461H122.539V41.7969H101.57V36.5117H129.414ZM168.129 27.2734V32.6875H157.086V39.9922H171.867V45.5781L135.559 45.5781V39.9922L150.254 39.9922V32.6875H139.598V12.5781H167.871V17.9922H146.516V27.2734H168.129ZM209.852 27.4023V32.4297H173.586V27.4023L209.852 27.4023ZM205.641 33.6328V43.6445H184.414V44.9336H206.715V49.4883H177.582V39.3906H198.809V38.2734H177.582V33.6328H205.641ZM205.641 10.4727V20.4844L184.801 20.4844V21.7734L206.328 21.7734V26.2852L177.969 26.2852V16.2305H198.766V15.0273H177.926V10.4727H205.641ZM241.562 12.5352V30.2383H222.055V12.5352H241.562ZM228.887 17.9492V24.8242H234.73V17.9492H228.887ZM252.992 10V18.0781H257.934V23.6641H252.992V32.043H246.074V10H252.992ZM253.336 33.5898V39.0039H244.012C245.064 41.3027 248.223 43.666 255.227 44.4609L252.777 49.7031C246.225 48.9512 242.035 46.6309 239.801 43.5586C237.523 46.6094 233.377 48.8652 226.867 49.5742L224.418 44.375C231.529 43.6445 234.645 41.3457 235.676 39.0039H226.223V33.5898H253.336ZM295.488 33.6758V39.2187H280.707V49.7891H273.832V39.2187H259.223V33.6758H295.488ZM292.266 14.3828V19.7109H281.051C281.889 22.4609 285.305 25.8984 293.812 26.8437L291.32 32.1719C284.424 31.4844 279.891 28.9922 277.312 25.7695C274.756 29.0137 270.201 31.4844 263.262 32.1719L260.77 26.8437C269.299 25.8984 272.736 22.5039 273.617 19.7109H262.359V14.3828H273.832V10.1289H280.707V14.3828H292.266ZM329.605 20.0977V25.4258H301.504V11.418H308.379V20.0977H329.605ZM333.516 28.9492V34.2773H297.25V28.9492H333.516ZM329.863 43.4727V48.9727H301.031V37.0273H307.992V43.4727H329.863Z"/>
</mask>
<path d="M33.3789 12.1914V17.6484H20.918V19.5391H32.1758V24.8242H20.918V26.7578C27.0195 26.7363 31.2305 26.6289 35.8711 25.8555L36.5156 31.1406C30.9727 32.1289 25.8164 32.1719 17.5234 32.1719H14V12.1914H33.3789ZM45.4102 10.0859V33.5898H38.4922V10.0859L45.4102 10.0859ZM45.4102 34.9648V49.4023H18.2969V34.9648H45.4102ZM25.0859 40.293V43.9023H38.6641V40.293H25.0859ZM62.6836 12.5352C69.043 12.4922 73.8984 16.7461 73.8984 22.5469C73.8984 28.3906 69.043 32.6016 62.6836 32.5586C56.4531 32.6016 51.4688 28.3906 51.4688 22.5469C51.4688 16.7461 56.4531 12.4922 62.6836 12.5352ZM62.6836 18.4648C60.2773 18.4648 58.3438 19.8398 58.3438 22.5469C58.3438 25.3398 60.2773 26.6289 62.6836 26.6289C65.2188 26.6289 67.1953 25.3398 67.1953 22.5469C67.1953 19.8398 65.2188 18.4648 62.6836 18.4648ZM83.7812 10V49.875H76.9492V10H83.7812ZM50.0508 36.6406C56.9688 36.6406 66.6367 36.5117 74.9297 35.3945L75.4453 40.3359C66.8516 42.0547 57.6133 42.1406 50.8242 42.1406L50.0508 36.6406ZM133.711 28.9492V34.4062H97.5312V28.9492H112.141V24.2227H119.016V28.9492H133.711ZM119.102 11.7187C119.102 15.8867 121.809 20.2695 131.992 21.4297L129.414 26.7578C122.496 25.791 117.941 23.2344 115.492 19.625C112.979 23.1914 108.488 25.791 101.613 26.7578L99.207 21.4297C109.133 20.2695 112.055 15.6289 112.055 11.7187V10.7305H119.102V11.7187ZM129.414 36.5117V49.7461H122.539V41.7969H101.57V36.5117H129.414ZM168.129 27.2734V32.6875H157.086V39.9922H171.867V45.5781L135.559 45.5781V39.9922L150.254 39.9922V32.6875H139.598V12.5781H167.871V17.9922H146.516V27.2734H168.129ZM209.852 27.4023V32.4297H173.586V27.4023L209.852 27.4023ZM205.641 33.6328V43.6445H184.414V44.9336H206.715V49.4883H177.582V39.3906H198.809V38.2734H177.582V33.6328H205.641ZM205.641 10.4727V20.4844L184.801 20.4844V21.7734L206.328 21.7734V26.2852L177.969 26.2852V16.2305H198.766V15.0273H177.926V10.4727H205.641ZM241.562 12.5352V30.2383H222.055V12.5352H241.562ZM228.887 17.9492V24.8242H234.73V17.9492H228.887ZM252.992 10V18.0781H257.934V23.6641H252.992V32.043H246.074V10H252.992ZM253.336 33.5898V39.0039H244.012C245.064 41.3027 248.223 43.666 255.227 44.4609L252.777 49.7031C246.225 48.9512 242.035 46.6309 239.801 43.5586C237.523 46.6094 233.377 48.8652 226.867 49.5742L224.418 44.375C231.529 43.6445 234.645 41.3457 235.676 39.0039H226.223V33.5898H253.336ZM295.488 33.6758V39.2187H280.707V49.7891H273.832V39.2187H259.223V33.6758H295.488ZM292.266 14.3828V19.7109H281.051C281.889 22.4609 285.305 25.8984 293.812 26.8437L291.32 32.1719C284.424 31.4844 279.891 28.9922 277.312 25.7695C274.756 29.0137 270.201 31.4844 263.262 32.1719L260.77 26.8437C269.299 25.8984 272.736 22.5039 273.617 19.7109H262.359V14.3828H273.832V10.1289H280.707V14.3828H292.266ZM329.605 20.0977V25.4258H301.504V11.418H308.379V20.0977H329.605ZM333.516 28.9492V34.2773H297.25V28.9492H333.516ZM329.863 43.4727V48.9727H301.031V37.0273H307.992V43.4727H329.863Z" fill="#11DCA9"/>
<path d="M33.3789 12.1914L43.3789 12.1914C43.3789 6.66856 38.9018 2.19141 33.3789 2.19141V12.1914ZM33.3789 17.6484V27.6484C38.9018 27.6484 43.3789 23.1713 43.3789 17.6484H33.3789ZM20.918 17.6484V7.64844C15.3951 7.64844 10.918 12.1256 10.918 17.6484H20.918ZM20.918 19.5391H10.918C10.918 25.0619 15.3951 29.5391 20.918 29.5391V19.5391ZM32.1758 19.5391H42.1758C42.1758 14.0162 37.6986 9.53906 32.1758 9.53906V19.5391ZM32.1758 24.8242V34.8242C37.6986 34.8242 42.1758 30.3471 42.1758 24.8242H32.1758ZM20.918 24.8242V14.8242C15.3951 14.8242 10.918 19.3014 10.918 24.8242H20.918ZM20.918 26.7578H10.918C10.918 29.4161 11.9764 31.965 13.8594 33.8413C15.7423 35.7177 18.2949 36.7671 20.9532 36.7578L20.918 26.7578ZM35.8711 25.8555L45.7976 24.6449C45.4673 21.9369 44.045 19.4813 41.8603 17.8474C39.6755 16.2134 36.9181 15.543 34.2271 15.9915L35.8711 25.8555ZM36.5156 31.1406L38.2709 40.9854C43.4974 40.0535 47.0848 35.2 46.4421 29.9301L36.5156 31.1406ZM14 32.1719H4C4 37.6947 8.47715 42.1719 14 42.1719L14 32.1719ZM14 12.1914V2.19141C8.47715 2.19141 4 6.66856 4 12.1914H14ZM45.4102 10.0859H55.4102C55.4102 4.56309 50.933 0.0859375 45.4102 0.0859375V10.0859ZM45.4102 33.5898V43.5898C50.933 43.5898 55.4102 39.1127 55.4102 33.5898H45.4102ZM38.4922 33.5898H28.4922C28.4922 39.1127 32.9693 43.5898 38.4922 43.5898V33.5898ZM38.4922 10.0859V0.0859375C32.9693 0.0859375 28.4922 4.56309 28.4922 10.0859H38.4922ZM45.4102 34.9648H55.4102C55.4102 29.442 50.933 24.9648 45.4102 24.9648V34.9648ZM45.4102 49.4023V59.4023C50.933 59.4023 55.4102 54.9252 55.4102 49.4023H45.4102ZM18.2969 49.4023H8.29688C8.29688 54.9252 12.774 59.4023 18.2969 59.4023V49.4023ZM18.2969 34.9648V24.9648C12.774 24.9648 8.29688 29.442 8.29688 34.9648H18.2969ZM25.0859 40.293V30.293C19.5631 30.293 15.0859 34.7701 15.0859 40.293H25.0859ZM25.0859 43.9023H15.0859C15.0859 49.4252 19.5631 53.9023 25.0859 53.9023V43.9023ZM38.6641 43.9023V53.9023C44.1869 53.9023 48.6641 49.4252 48.6641 43.9023H38.6641ZM38.6641 40.293H48.6641C48.6641 34.7701 44.1869 30.293 38.6641 30.293V40.293ZM33.3789 12.1914H23.3789V17.6484H33.3789H43.3789V12.1914L33.3789 12.1914ZM33.3789 17.6484V7.64844H20.918V17.6484V27.6484H33.3789V17.6484ZM20.918 17.6484H10.918V19.5391H20.918H30.918V17.6484H20.918ZM20.918 19.5391V29.5391H32.1758V19.5391V9.53906H20.918V19.5391ZM32.1758 19.5391H22.1758V24.8242H32.1758H42.1758V19.5391H32.1758ZM32.1758 24.8242V14.8242H20.918V24.8242V34.8242H32.1758V24.8242ZM20.918 24.8242H10.918V26.7578H20.918H30.918V24.8242H20.918ZM20.918 26.7578L20.9532 36.7578C27.087 36.7362 32.0064 36.6375 37.5151 35.7194L35.8711 25.8555L34.2271 15.9915C30.4545 16.6203 26.9521 16.7365 20.8828 16.7579L20.918 26.7578ZM35.8711 25.8555L25.9446 27.066L26.5892 32.3512L36.5156 31.1406L46.4421 29.9301L45.7976 24.6449L35.8711 25.8555ZM36.5156 31.1406L34.7604 21.2959C30.2306 22.1035 25.9584 22.1719 17.5234 22.1719V32.1719V42.1719C25.6744 42.1719 31.7147 42.1543 38.2709 40.9854L36.5156 31.1406ZM17.5234 32.1719V22.1719H14V32.1719L14 42.1719H17.5234V32.1719ZM14 32.1719H24V12.1914H14H4L4 32.1719H14ZM14 12.1914V22.1914H33.3789V12.1914V2.19141L14 2.19141V12.1914ZM45.4102 10.0859L35.4102 10.0859V33.5898H45.4102H55.4102V10.0859H45.4102ZM45.4102 33.5898V23.5898H38.4922V33.5898V43.5898H45.4102V33.5898ZM38.4922 33.5898H48.4922V10.0859L38.4922 10.0859H28.4922V33.5898H38.4922ZM38.4922 10.0859V20.0859H45.4102V10.0859V0.0859375H38.4922V10.0859ZM45.4102 34.9648H35.4102V49.4023H45.4102H55.4102V34.9648H45.4102ZM45.4102 49.4023V39.4023H18.2969V49.4023V59.4023H45.4102V49.4023ZM18.2969 49.4023H28.2969V34.9648H18.2969H8.29688L8.29688 49.4023H18.2969ZM18.2969 34.9648V44.9648H45.4102V34.9648V24.9648H18.2969V34.9648ZM25.0859 40.293H15.0859V43.9023H25.0859H35.0859V40.293H25.0859ZM25.0859 43.9023V53.9023H38.6641V43.9023V33.9023H25.0859V43.9023ZM38.6641 43.9023H48.6641V40.293H38.6641H28.6641V43.9023H38.6641ZM38.6641 40.293V30.293H25.0859V40.293V50.293H38.6641V40.293ZM62.6836 12.5352L62.6146 22.5349C62.6601 22.5352 62.7057 22.5352 62.7512 22.5349L62.6836 12.5352ZM62.6836 32.5586L62.7512 22.5588C62.7057 22.5585 62.6601 22.5585 62.6146 22.5588L62.6836 32.5586ZM83.7812 10H93.7812C93.7812 4.47715 89.3041 0 83.7812 0V10ZM83.7812 49.875V59.875C89.3041 59.875 93.7812 55.3978 93.7812 49.875H83.7812ZM76.9492 49.875H66.9492C66.9492 55.3978 71.4264 59.875 76.9492 59.875V49.875ZM76.9492 10V0C71.4264 0 66.9492 4.47715 66.9492 10H76.9492ZM50.0508 36.6406V26.6406C47.1557 26.6406 44.4027 27.8953 42.5034 30.0803C40.6042 32.2654 39.7451 35.1663 40.1482 38.0332L50.0508 36.6406ZM74.9297 35.3945L84.8757 34.3567C84.595 31.6672 83.2372 29.206 81.1117 27.5344C78.9863 25.8627 76.2745 25.123 73.5946 25.4841L74.9297 35.3945ZM75.4453 40.3359L77.4065 50.1417C82.4677 49.1295 85.927 44.4317 85.3913 39.2981L75.4453 40.3359ZM50.8242 42.1406L40.9217 43.5332C41.6158 48.4694 45.8394 52.1406 50.8242 52.1406V42.1406ZM62.6836 12.5352L62.7512 22.5349C63.2167 22.5318 63.5446 22.6075 63.7465 22.6799C63.9499 22.7527 64.0317 22.8233 64.0371 22.8281C64.0389 22.8297 63.99 22.784 63.9447 22.6848C63.896 22.5782 63.8984 22.5128 63.8984 22.5469H73.8984L83.8984 22.5469C83.8984 10.1666 73.4353 2.46228 62.616 2.53538L62.6836 12.5352ZM73.8984 22.5469H63.8984C63.8984 22.6018 63.8918 22.543 63.9421 22.4328C63.9636 22.3858 63.9881 22.3458 64.0109 22.3153C64.0333 22.2853 64.0484 22.2718 64.0483 22.2718C64.048 22.2721 64.0293 22.2886 63.9851 22.3144C63.9408 22.3403 63.8698 22.376 63.7673 22.4125C63.5634 22.4851 63.2287 22.562 62.7512 22.5588L62.6836 32.5586L62.616 42.5584C73.4054 42.6313 83.8984 34.9968 83.8984 22.5469L73.8984 22.5469ZM62.6836 32.5586L62.6146 22.5588C61.7532 22.5648 61.3765 22.2798 61.3375 22.2456C61.3211 22.2312 61.3672 22.2685 61.4147 22.3707C61.4667 22.4827 61.4688 22.5621 61.4688 22.5469H51.4688H41.4688C41.4688 35.0666 52.1695 42.6313 62.7526 42.5584L62.6836 32.5586ZM51.4688 22.5469H61.4688C61.4688 22.5409 61.4691 22.5641 61.4592 22.6086C61.4495 22.6526 61.4335 22.7006 61.412 22.7469C61.3664 22.8448 61.3251 22.8752 61.3487 22.8544C61.4016 22.8078 61.78 22.5292 62.6146 22.5349L62.6836 12.5352L62.7526 2.53539C52.1395 2.4622 41.4688 10.0966 41.4688 22.5469H51.4688ZM62.6836 18.4648V8.46484C59.6632 8.46484 56.0561 9.32939 53.0483 11.9458C49.846 14.7313 48.3438 18.6259 48.3438 22.5469H58.3438H68.3438C68.3438 23.7608 67.8083 25.6144 66.1744 27.0357C64.7349 28.2878 63.2977 28.4648 62.6836 28.4648V18.4648ZM58.3438 22.5469H48.3438C48.3438 26.4329 49.7963 30.3964 53.1077 33.2315C56.1832 35.8646 59.8132 36.6289 62.6836 36.6289V26.6289V16.6289C63.1478 16.6289 64.6078 16.7486 66.115 18.039C67.858 19.5313 68.3438 21.4538 68.3438 22.5469H58.3438ZM62.6836 26.6289V36.6289C65.5059 36.6289 69.1455 35.9223 72.2669 33.3383C75.6695 30.5216 77.1953 26.5148 77.1953 22.5469L67.1953 22.5469H57.1953C57.1953 21.3719 57.7329 19.4061 59.5134 17.9322C61.0127 16.691 62.3964 16.6289 62.6836 16.6289V26.6289ZM67.1953 22.5469L77.1953 22.5469C77.1953 18.5435 75.6183 14.606 72.3268 11.8377C69.2686 9.2655 65.6508 8.46484 62.6836 8.46484V18.4648V28.4648C62.2515 28.4648 60.8896 28.3517 59.4535 27.1438C57.784 25.7397 57.1953 23.8432 57.1953 22.5469H67.1953ZM83.7812 10H73.7812V49.875H83.7812H93.7812V10H83.7812ZM83.7812 49.875V39.875H76.9492V49.875V59.875H83.7812V49.875ZM76.9492 49.875H86.9492V10H76.9492H66.9492V49.875H76.9492ZM76.9492 10V20H83.7812V10V0L76.9492 0V10ZM50.0508 36.6406V46.6406C56.9786 46.6406 67.2424 46.5205 76.2648 45.305L74.9297 35.3945L73.5946 25.4841C66.0311 26.503 56.9589 26.6406 50.0508 26.6406V36.6406ZM74.9297 35.3945L64.9837 36.4324L65.4993 41.3738L75.4453 40.3359L85.3913 39.2981L84.8757 34.3567L74.9297 35.3945ZM75.4453 40.3359L73.4841 30.5301C65.9777 32.0314 57.6542 32.1406 50.8242 32.1406V42.1406V52.1406C57.5723 52.1406 67.7255 52.0779 77.4065 50.1417L75.4453 40.3359ZM50.8242 42.1406L60.7268 40.7481L59.9533 35.2481L50.0508 36.6406L40.1482 38.0332L40.9217 43.5332L50.8242 42.1406ZM133.711 28.9492L143.711 28.9492C143.711 23.4264 139.234 18.9492 133.711 18.9492V28.9492ZM133.711 34.4062V44.4062C139.234 44.4062 143.711 39.9291 143.711 34.4062L133.711 34.4062ZM97.5312 34.4062H87.5312C87.5312 39.9291 92.0084 44.4062 97.5312 44.4062V34.4062ZM97.5312 28.9492V18.9492C92.0084 18.9492 87.5312 23.4264 87.5312 28.9492H97.5312ZM112.141 28.9492V38.9492C117.663 38.9492 122.141 34.4721 122.141 28.9492H112.141ZM112.141 24.2227V14.2227C106.618 14.2227 102.141 18.6998 102.141 24.2227H112.141ZM119.016 24.2227H129.016C129.016 18.6998 124.538 14.2227 119.016 14.2227V24.2227ZM119.016 28.9492H109.016C109.016 34.4721 113.493 38.9492 119.016 38.9492V28.9492ZM131.992 21.4297L140.994 25.7853C142.406 22.8672 142.316 19.4457 140.752 16.6061C139.188 13.7664 136.345 11.8609 133.124 11.494L131.992 21.4297ZM129.414 26.7578L128.03 36.6616C132.329 37.2624 136.525 35.0209 138.416 31.1134L129.414 26.7578ZM115.492 19.625L123.767 14.01C121.923 11.2933 118.864 9.65454 115.581 9.62539C112.298 9.59625 109.21 11.1804 107.318 13.864L115.492 19.625ZM101.613 26.7578L92.4996 30.8737C94.3278 34.9219 98.6072 37.2789 103.006 36.6604L101.613 26.7578ZM99.207 21.4297L98.0461 11.4973C94.8778 11.8676 92.0762 13.7273 90.5047 16.5033C88.9332 19.2792 88.7804 22.6384 90.0933 25.5456L99.207 21.4297ZM112.055 10.7305V0.730469C106.532 0.730469 102.055 5.20762 102.055 10.7305L112.055 10.7305ZM119.102 10.7305H129.102C129.102 5.20762 124.624 0.730469 119.102 0.730469V10.7305ZM129.414 36.5117L139.414 36.5117C139.414 30.9889 134.937 26.5117 129.414 26.5117V36.5117ZM129.414 49.7461V59.7461C134.937 59.7461 139.414 55.2689 139.414 49.7461L129.414 49.7461ZM122.539 49.7461H112.539C112.539 55.2689 117.016 59.7461 122.539 59.7461V49.7461ZM122.539 41.7969H132.539C132.539 36.274 128.062 31.7969 122.539 31.7969V41.7969ZM101.57 41.7969H91.5703C91.5703 47.3197 96.0475 51.7969 101.57 51.7969V41.7969ZM101.57 36.5117V26.5117C96.0475 26.5117 91.5703 30.9889 91.5703 36.5117H101.57ZM133.711 28.9492H123.711V34.4062H133.711L143.711 34.4062V28.9492L133.711 28.9492ZM133.711 34.4062V24.4062H97.5312V34.4062V44.4062H133.711V34.4062ZM97.5312 34.4062H107.531V28.9492H97.5312H87.5312V34.4062H97.5312ZM97.5312 28.9492V38.9492H112.141V28.9492V18.9492H97.5312V28.9492ZM112.141 28.9492H122.141V24.2227H112.141H102.141V28.9492H112.141ZM112.141 24.2227V34.2227H119.016V24.2227V14.2227H112.141V24.2227ZM119.016 24.2227H109.016V28.9492H119.016H129.016V24.2227H119.016ZM119.016 28.9492V38.9492H133.711V28.9492V18.9492H119.016V28.9492ZM119.102 11.7187H109.102C109.102 16.1519 110.645 21.1653 115.024 25.1219C119.102 28.8069 124.635 30.6562 130.86 31.3654L131.992 21.4297L133.124 11.494C129.166 11.043 128.254 10.1208 128.432 10.2824C128.563 10.4003 128.787 10.6699 128.947 11.0636C129.093 11.4244 129.102 11.678 129.102 11.7187H119.102ZM131.992 21.4297L122.991 17.0741L120.412 22.4022L129.414 26.7578L138.416 31.1134L140.994 25.7853L131.992 21.4297ZM129.414 26.7578L130.798 16.8541C125.527 16.1174 124.075 14.4646 123.767 14.01L115.492 19.625L107.217 25.24C111.807 32.0041 119.465 35.4646 128.03 36.6616L129.414 26.7578ZM115.492 19.625L107.318 13.864C106.871 14.499 105.3 16.141 100.221 16.8552L101.613 26.7578L103.006 36.6604C111.676 35.4411 119.086 31.8838 123.666 25.386L115.492 19.625ZM101.613 26.7578L110.727 22.6419L108.321 17.3138L99.207 21.4297L90.0933 25.5456L92.4996 30.8737L101.613 26.7578ZM99.207 21.4297L100.368 31.3621C106.637 30.6293 112.078 28.6468 116.084 25.0012C120.265 21.1955 122.055 16.3113 122.055 11.7187H112.055L102.055 11.7187C102.055 11.4463 102.108 11.1202 102.249 10.79C102.397 10.4424 102.575 10.2528 102.622 10.2097C102.686 10.152 101.703 11.0699 98.0461 11.4973L99.207 21.4297ZM112.055 11.7187H122.055V10.7305H112.055L102.055 10.7305V11.7187L112.055 11.7187ZM112.055 10.7305V20.7305H119.102V10.7305V0.730469H112.055V10.7305ZM119.102 10.7305H109.102V11.7187H119.102H129.102V10.7305H119.102ZM129.414 36.5117H119.414V49.7461H129.414L139.414 49.7461V36.5117L129.414 36.5117ZM129.414 49.7461V39.7461H122.539V49.7461V59.7461H129.414V49.7461ZM122.539 49.7461H132.539V41.7969H122.539H112.539V49.7461H122.539ZM122.539 41.7969V31.7969H101.57V41.7969V51.7969H122.539V41.7969ZM101.57 41.7969H111.57V36.5117H101.57H91.5703V41.7969H101.57ZM101.57 36.5117V46.5117H129.414V36.5117V26.5117H101.57V36.5117ZM168.129 27.2734H178.129C178.129 21.7506 173.652 17.2734 168.129 17.2734V27.2734ZM168.129 32.6875V42.6875C173.652 42.6875 178.129 38.2103 178.129 32.6875H168.129ZM157.086 32.6875V22.6875C151.563 22.6875 147.086 27.1647 147.086 32.6875H157.086ZM157.086 39.9922H147.086C147.086 45.515 151.563 49.9922 157.086 49.9922V39.9922ZM171.867 39.9922H181.867C181.867 34.4693 177.39 29.9922 171.867 29.9922V39.9922ZM171.867 45.5781V55.5781C177.39 55.5781 181.867 51.101 181.867 45.5781H171.867ZM135.559 45.5781H125.559C125.559 51.101 130.036 55.5781 135.559 55.5781V45.5781ZM135.559 39.9922V29.9922C130.036 29.9922 125.559 34.4693 125.559 39.9922H135.559ZM150.254 39.9922V49.9922C155.777 49.9922 160.254 45.515 160.254 39.9922H150.254ZM150.254 32.6875H160.254C160.254 27.1647 155.777 22.6875 150.254 22.6875V32.6875ZM139.598 32.6875L129.598 32.6875C129.598 38.2103 134.075 42.6875 139.598 42.6875V32.6875ZM139.598 12.5781V2.57812C134.075 2.57812 129.598 7.05528 129.598 12.5781H139.598ZM167.871 12.5781H177.871C177.871 7.05528 173.394 2.57812 167.871 2.57812V12.5781ZM167.871 17.9922V27.9922C173.394 27.9922 177.871 23.515 177.871 17.9922H167.871ZM146.516 17.9922V7.99219C140.993 7.99219 136.516 12.4693 136.516 17.9922H146.516ZM146.516 27.2734H136.516C136.516 32.7963 140.993 37.2734 146.516 37.2734V27.2734ZM168.129 27.2734H158.129V32.6875H168.129H178.129V27.2734H168.129ZM168.129 32.6875V22.6875H157.086V32.6875V42.6875H168.129V32.6875ZM157.086 32.6875H147.086V39.9922H157.086H167.086V32.6875H157.086ZM157.086 39.9922V49.9922H171.867V39.9922V29.9922H157.086V39.9922ZM171.867 39.9922H161.867V45.5781H171.867H181.867V39.9922H171.867ZM171.867 45.5781V35.5781L135.559 35.5781V45.5781V55.5781L171.867 55.5781V45.5781ZM135.559 45.5781L145.559 45.5781V39.9922L135.559 39.9922H125.559V45.5781H135.559ZM135.559 39.9922V49.9922L150.254 49.9922V39.9922V29.9922L135.559 29.9922V39.9922ZM150.254 39.9922H160.254V32.6875H150.254H140.254V39.9922H150.254ZM150.254 32.6875V22.6875H139.598V32.6875V42.6875H150.254V32.6875ZM139.598 32.6875H149.598V12.5781H139.598H129.598V32.6875L139.598 32.6875ZM139.598 12.5781V22.5781H167.871V12.5781V2.57812L139.598 2.57812V12.5781ZM167.871 12.5781H157.871V17.9922H167.871H177.871V12.5781H167.871ZM167.871 17.9922V7.99219H146.516V17.9922V27.9922H167.871V17.9922ZM146.516 17.9922H136.516V27.2734H146.516H156.516V17.9922H146.516ZM146.516 27.2734V37.2734H168.129V27.2734V17.2734H146.516V27.2734ZM209.852 27.4023H219.852C219.852 21.8795 215.374 17.4023 209.852 17.4023V27.4023ZM209.852 32.4297V42.4297C215.374 42.4297 219.852 37.9525 219.852 32.4297H209.852ZM173.586 32.4297H163.586C163.586 37.9525 168.063 42.4297 173.586 42.4297V32.4297ZM173.586 27.4023V17.4023C168.063 17.4023 163.586 21.8795 163.586 27.4023H173.586ZM205.641 33.6328H215.641C215.641 28.11 211.163 23.6328 205.641 23.6328V33.6328ZM205.641 43.6445V53.6445C211.163 53.6445 215.641 49.1674 215.641 43.6445H205.641ZM184.414 43.6445V33.6445C178.891 33.6445 174.414 38.1217 174.414 43.6445H184.414ZM184.414 44.9336H174.414C174.414 50.4564 178.891 54.9336 184.414 54.9336V44.9336ZM206.715 44.9336H216.715C216.715 39.4107 212.238 34.9336 206.715 34.9336V44.9336ZM206.715 49.4883V59.4883C212.238 59.4883 216.715 55.0111 216.715 49.4883H206.715ZM177.582 49.4883H167.582C167.582 55.0111 172.059 59.4883 177.582 59.4883V49.4883ZM177.582 39.3906V29.3906C172.059 29.3906 167.582 33.8678 167.582 39.3906H177.582ZM198.809 39.3906V49.3906C204.331 49.3906 208.809 44.9135 208.809 39.3906H198.809ZM198.809 38.2734H208.809C208.809 32.7506 204.331 28.2734 198.809 28.2734V38.2734ZM177.582 38.2734H167.582C167.582 43.7963 172.059 48.2734 177.582 48.2734V38.2734ZM177.582 33.6328V23.6328C172.059 23.6328 167.582 28.11 167.582 33.6328H177.582ZM205.641 10.4727H215.641C215.641 4.94981 211.163 0.472656 205.641 0.472656V10.4727ZM205.641 20.4844V30.4844C211.163 30.4844 215.641 26.0072 215.641 20.4844H205.641ZM184.801 20.4844V10.4844C179.278 10.4844 174.801 14.9615 174.801 20.4844H184.801ZM184.801 21.7734H174.801C174.801 27.2963 179.278 31.7734 184.801 31.7734V21.7734ZM206.328 21.7734H216.328C216.328 16.2506 211.851 11.7734 206.328 11.7734V21.7734ZM206.328 26.2852V36.2852C211.851 36.2852 216.328 31.808 216.328 26.2852H206.328ZM177.969 26.2852H167.969C167.969 31.808 172.446 36.2852 177.969 36.2852V26.2852ZM177.969 16.2305V6.23047C172.446 6.23047 167.969 10.7076 167.969 16.2305H177.969ZM198.766 16.2305V26.2305C204.288 26.2305 208.766 21.7533 208.766 16.2305L198.766 16.2305ZM198.766 15.0273L208.766 15.0273C208.766 9.5045 204.288 5.02734 198.766 5.02734V15.0273ZM177.926 15.0273H167.926C167.926 20.5502 172.403 25.0273 177.926 25.0273V15.0273ZM177.926 10.4727V0.472656C172.403 0.472656 167.926 4.94981 167.926 10.4727L177.926 10.4727ZM209.852 27.4023L199.852 27.4023V32.4297H209.852H219.852V27.4023H209.852ZM209.852 32.4297V22.4297L173.586 22.4297V32.4297V42.4297H209.852V32.4297ZM173.586 32.4297H183.586V27.4023H173.586H163.586V32.4297H173.586ZM173.586 27.4023V37.4023H209.852V27.4023V17.4023L173.586 17.4023V27.4023ZM205.641 33.6328H195.641V43.6445H205.641H215.641V33.6328H205.641ZM205.641 43.6445V33.6445H184.414V43.6445V53.6445H205.641V43.6445ZM184.414 43.6445H174.414V44.9336H184.414H194.414V43.6445H184.414ZM184.414 44.9336V54.9336H206.715V44.9336V34.9336H184.414V44.9336ZM206.715 44.9336H196.715V49.4883H206.715H216.715V44.9336H206.715ZM206.715 49.4883V39.4883H177.582V49.4883V59.4883H206.715V49.4883ZM177.582 49.4883H187.582V39.3906H177.582H167.582V49.4883H177.582ZM177.582 39.3906V49.3906H198.809V39.3906V29.3906H177.582V39.3906ZM198.809 39.3906H208.809V38.2734H198.809H188.809V39.3906H198.809ZM198.809 38.2734V28.2734H177.582V38.2734V48.2734H198.809V38.2734ZM177.582 38.2734H187.582V33.6328H177.582H167.582V38.2734H177.582ZM177.582 33.6328V43.6328H205.641V33.6328V23.6328L177.582 23.6328V33.6328ZM205.641 10.4727H195.641V20.4844L205.641 20.4844H215.641V10.4727H205.641ZM205.641 20.4844V10.4844H184.801V20.4844V30.4844H205.641V20.4844ZM184.801 20.4844H174.801V21.7734H184.801H194.801V20.4844H184.801ZM184.801 21.7734V31.7734H206.328V21.7734V11.7734H184.801V21.7734ZM206.328 21.7734L196.328 21.7734V26.2852L206.328 26.2852H216.328V21.7734H206.328ZM206.328 26.2852V16.2852L177.969 16.2852V26.2852V36.2852H206.328V26.2852ZM177.969 26.2852H187.969V16.2305H177.969H167.969V26.2852H177.969ZM177.969 16.2305V26.2305H198.766V16.2305V6.23047H177.969V16.2305ZM198.766 16.2305L208.766 16.2305V15.0273L198.766 15.0273H188.766V16.2305H198.766ZM198.766 15.0273V5.02734H177.926V15.0273V25.0273H198.766V15.0273ZM177.926 15.0273H187.926V10.4727H177.926L167.926 10.4727V15.0273H177.926ZM177.926 10.4727V20.4727L205.641 20.4727V10.4727V0.472656L177.926 0.472656V10.4727ZM241.562 12.5352H251.562C251.562 7.01231 247.085 2.53516 241.562 2.53516V12.5352ZM241.562 30.2383V40.2383C247.085 40.2383 251.562 35.7611 251.562 30.2383H241.562ZM222.055 30.2383H212.055C212.055 35.7611 216.532 40.2383 222.055 40.2383V30.2383ZM222.055 12.5352V2.53516C216.532 2.53516 212.055 7.01231 212.055 12.5352H222.055ZM228.887 17.9492V7.94922C223.364 7.94922 218.887 12.4264 218.887 17.9492H228.887ZM228.887 24.8242H218.887C218.887 30.3471 223.364 34.8242 228.887 34.8242V24.8242ZM234.73 24.8242V34.8242C240.253 34.8242 244.73 30.3471 244.73 24.8242H234.73ZM234.73 17.9492H244.73C244.73 12.4264 240.253 7.94922 234.73 7.94922V17.9492ZM252.992 10H262.992C262.992 4.47715 258.515 0 252.992 0V10ZM252.992 18.0781H242.992C242.992 23.601 247.469 28.0781 252.992 28.0781V18.0781ZM257.934 18.0781H267.934C267.934 12.5553 263.456 8.07812 257.934 8.07812V18.0781ZM257.934 23.6641V33.6641C263.456 33.6641 267.934 29.1869 267.934 23.6641H257.934ZM252.992 23.6641V13.6641C247.469 13.6641 242.992 18.1412 242.992 23.6641H252.992ZM252.992 32.043V42.043C258.515 42.043 262.992 37.5658 262.992 32.043H252.992ZM246.074 32.043H236.074C236.074 37.5658 240.551 42.043 246.074 42.043V32.043ZM246.074 10V0C240.551 0 236.074 4.47715 236.074 10H246.074ZM253.336 33.5898H263.336C263.336 28.067 258.859 23.5898 253.336 23.5898V33.5898ZM253.336 39.0039V49.0039C258.859 49.0039 263.336 44.5268 263.336 39.0039H253.336ZM244.012 39.0039V29.0039C240.607 29.0039 237.436 30.7365 235.596 33.6019C233.757 36.4673 233.502 40.0717 234.92 43.1675L244.012 39.0039ZM255.227 44.4609L264.286 48.6939C265.649 45.7779 265.524 42.3845 263.952 39.5761C262.38 36.7677 259.552 34.8877 256.354 34.5247L255.227 44.4609ZM252.777 49.7031L251.637 59.6379C255.91 60.1282 260.017 57.8321 261.837 53.936L252.777 49.7031ZM239.801 43.5586L247.888 37.6769C246.019 35.1072 243.04 33.5786 239.863 33.5588C236.686 33.539 233.688 35.0304 231.787 37.5767L239.801 43.5586ZM226.867 49.5742L217.821 53.8358C219.639 57.6964 223.707 59.9775 227.95 59.5154L226.867 49.5742ZM224.418 44.375L223.396 34.4273C220.17 34.7587 217.305 36.6338 215.711 39.4575C214.116 42.2812 213.99 45.7029 215.371 48.6366L224.418 44.375ZM235.676 39.0039L244.828 43.0341C246.19 39.9417 245.898 36.3706 244.051 33.5405C242.205 30.7103 239.055 29.0039 235.676 29.0039V39.0039ZM226.223 39.0039H216.223C216.223 44.5268 220.7 49.0039 226.223 49.0039V39.0039ZM226.223 33.5898V23.5898C220.7 23.5898 216.223 28.067 216.223 33.5898H226.223ZM241.562 12.5352H231.562V30.2383H241.562H251.562V12.5352H241.562ZM241.562 30.2383V20.2383H222.055V30.2383V40.2383H241.562V30.2383ZM222.055 30.2383H232.055V12.5352H222.055H212.055V30.2383H222.055ZM222.055 12.5352V22.5352H241.562V12.5352V2.53516H222.055V12.5352ZM228.887 17.9492H218.887V24.8242H228.887H238.887V17.9492H228.887ZM228.887 24.8242V34.8242H234.73V24.8242V14.8242H228.887V24.8242ZM234.73 24.8242H244.73V17.9492H234.73H224.73V24.8242H234.73ZM234.73 17.9492V7.94922H228.887V17.9492V27.9492H234.73V17.9492ZM252.992 10H242.992V18.0781H252.992H262.992V10H252.992ZM252.992 18.0781V28.0781H257.934V18.0781V8.07812H252.992V18.0781ZM257.934 18.0781H247.934V23.6641H257.934H267.934V18.0781H257.934ZM257.934 23.6641V13.6641H252.992V23.6641V33.6641H257.934V23.6641ZM252.992 23.6641H242.992V32.043H252.992H262.992V23.6641H252.992ZM252.992 32.043V22.043H246.074V32.043V42.043H252.992V32.043ZM246.074 32.043H256.074V10H246.074H236.074V32.043H246.074ZM246.074 10V20H252.992V10V0H246.074V10ZM253.336 33.5898H243.336V39.0039H253.336H263.336V33.5898H253.336ZM253.336 39.0039V29.0039H244.012V39.0039V49.0039H253.336V39.0039ZM244.012 39.0039L234.92 43.1675C238.158 50.2385 245.791 53.4542 254.099 54.3971L255.227 44.4609L256.354 34.5247C253.721 34.2259 252.518 33.7034 252.167 33.5124C251.868 33.3496 252.556 33.645 253.104 34.8403L244.012 39.0039ZM255.227 44.4609L246.167 40.228L243.717 45.4702L252.777 49.7031L261.837 53.936L264.286 48.6939L255.227 44.4609ZM252.777 49.7031L253.917 39.7683C249.053 39.2101 247.925 37.7272 247.888 37.6769L239.801 43.5586L231.713 49.4403C236.146 55.5345 243.396 58.6922 251.637 59.6379L252.777 49.7031ZM239.801 43.5586L231.787 37.5767C231.716 37.6727 230.594 39.1092 225.784 39.633L226.867 49.5742L227.95 59.5154C236.16 58.6213 243.331 55.546 247.814 49.5405L239.801 43.5586ZM226.867 49.5742L235.914 45.3126L233.464 40.1134L224.418 44.375L215.371 48.6366L217.821 53.8358L226.867 49.5742ZM224.418 44.375L225.44 54.3227C233.748 53.4693 241.589 50.3882 244.828 43.0341L235.676 39.0039L226.524 34.9737C227.076 33.7194 227.834 33.3564 227.619 33.4713C227.313 33.6346 226.12 34.1475 223.396 34.4273L224.418 44.375ZM235.676 39.0039V29.0039H226.223V39.0039V49.0039H235.676V39.0039ZM226.223 39.0039H236.223V33.5898H226.223H216.223V39.0039H226.223ZM226.223 33.5898V43.5898H253.336V33.5898V23.5898H226.223V33.5898ZM295.488 33.6758H305.488C305.488 28.1529 301.011 23.6758 295.488 23.6758V33.6758ZM295.488 39.2187V49.2187C301.011 49.2187 305.488 44.7416 305.488 39.2187H295.488ZM280.707 39.2187V29.2187C275.184 29.2187 270.707 33.6959 270.707 39.2187H280.707ZM280.707 49.7891V59.7891C286.23 59.7891 290.707 55.3119 290.707 49.7891H280.707ZM273.832 49.7891H263.832C263.832 55.3119 268.309 59.7891 273.832 59.7891V49.7891ZM273.832 39.2187H283.832C283.832 33.6959 279.355 29.2187 273.832 29.2187V39.2187ZM259.223 39.2187H249.223C249.223 44.7416 253.7 49.2187 259.223 49.2187V39.2187ZM259.223 33.6758V23.6758C253.7 23.6758 249.223 28.1529 249.223 33.6758H259.223ZM292.266 14.3828H302.266C302.266 8.85997 297.788 4.38281 292.266 4.38281V14.3828ZM292.266 19.7109V29.7109C297.788 29.7109 302.266 25.2338 302.266 19.7109H292.266ZM281.051 19.7109V9.71094C277.882 9.71094 274.901 11.2127 273.015 13.7589C271.129 16.3051 270.561 19.5945 271.485 22.6255L281.051 19.7109ZM293.812 26.8437L302.871 31.0806C304.236 28.1608 304.111 24.7617 302.534 21.9505C300.956 19.1393 298.121 17.2609 294.917 16.9049L293.812 26.8437ZM291.32 32.1719L290.328 42.1226C294.551 42.5435 298.58 40.253 300.378 36.4087L291.32 32.1719ZM277.312 25.7695L285.121 19.5226C283.215 17.1404 280.327 15.7584 277.276 15.7696C274.225 15.7808 271.347 17.1838 269.458 19.5798L277.312 25.7695ZM263.262 32.1719L254.204 36.4087C256.001 40.251 260.026 42.5413 264.248 42.1232L263.262 32.1719ZM260.77 26.8437L259.668 16.9046C256.464 17.2597 253.627 19.1379 252.049 21.9493C250.471 24.7607 250.346 28.1603 251.711 31.0806L260.77 26.8437ZM273.617 19.7109L283.154 22.7187C284.112 19.6805 283.566 16.3674 281.682 13.7982C279.798 11.2289 276.803 9.71094 273.617 9.71094V19.7109ZM262.359 19.7109H252.359C252.359 25.2338 256.837 29.7109 262.359 29.7109V19.7109ZM262.359 14.3828V4.38281C256.837 4.38281 252.359 8.85997 252.359 14.3828H262.359ZM273.832 14.3828V24.3828C279.355 24.3828 283.832 19.9057 283.832 14.3828H273.832ZM273.832 10.1289V0.128906C268.309 0.128906 263.832 4.60606 263.832 10.1289H273.832ZM280.707 10.1289H290.707C290.707 4.60606 286.23 0.128906 280.707 0.128906V10.1289ZM280.707 14.3828H270.707C270.707 19.9057 275.184 24.3828 280.707 24.3828V14.3828ZM295.488 33.6758H285.488V39.2187H295.488H305.488V33.6758H295.488ZM295.488 39.2187V29.2187H280.707V39.2187V49.2187H295.488V39.2187ZM280.707 39.2187H270.707V49.7891H280.707H290.707V39.2187H280.707ZM280.707 49.7891V39.7891H273.832V49.7891V59.7891H280.707V49.7891ZM273.832 49.7891H283.832V39.2187H273.832H263.832V49.7891H273.832ZM273.832 39.2187V29.2187H259.223V39.2187V49.2187H273.832V39.2187ZM259.223 39.2187H269.223V33.6758H259.223H249.223V39.2187H259.223ZM259.223 33.6758V43.6758H295.488V33.6758V23.6758H259.223V33.6758ZM292.266 14.3828H282.266V19.7109H292.266H302.266V14.3828H292.266ZM292.266 19.7109V9.71094H281.051V19.7109V29.7109H292.266V19.7109ZM281.051 19.7109L271.485 22.6255C273.971 30.7845 282.193 35.6142 292.708 36.7826L293.812 26.8437L294.917 16.9049C291.788 16.5573 290.414 15.8366 290.025 15.5826C289.671 15.3509 290.256 15.6126 290.617 16.7963L281.051 19.7109ZM293.812 26.8437L284.754 22.6069L282.262 27.935L291.32 32.1719L300.378 36.4087L302.871 31.0806L293.812 26.8437ZM291.32 32.1719L292.312 22.2212C287.325 21.724 285.59 20.1085 285.121 19.5226L277.312 25.7695L269.504 32.0165C274.191 37.8759 281.523 41.2447 290.328 42.1226L291.32 32.1719ZM277.312 25.7695L269.458 19.5798C269.054 20.0929 267.371 21.7158 262.276 22.2206L263.262 32.1719L264.248 42.1232C273.032 41.2529 280.458 37.9344 285.167 31.9592L277.312 25.7695ZM263.262 32.1719L272.32 27.935L269.828 22.6069L260.77 26.8437L251.711 31.0806L254.204 36.4087L263.262 32.1719ZM260.77 26.8437L261.871 36.7829C272.38 35.6181 280.585 30.8634 283.154 22.7187L273.617 19.7109L264.08 16.7031C264.433 15.5848 264.989 15.3415 264.633 15.5721C264.227 15.8342 262.83 16.5541 259.668 16.9046L260.77 26.8437ZM273.617 19.7109V9.71094H262.359V19.7109V29.7109H273.617V19.7109ZM262.359 19.7109H272.359V14.3828H262.359H252.359V19.7109H262.359ZM262.359 14.3828V24.3828H273.832V14.3828V4.38281H262.359V14.3828ZM273.832 14.3828H283.832V10.1289H273.832H263.832V14.3828H273.832ZM273.832 10.1289V20.1289H280.707V10.1289V0.128906L273.832 0.128906V10.1289ZM280.707 10.1289H270.707V14.3828H280.707H290.707V10.1289H280.707ZM280.707 14.3828V24.3828H292.266V14.3828V4.38281L280.707 4.38281V14.3828ZM329.605 20.0977L339.605 20.0977C339.605 14.5748 335.128 10.0977 329.605 10.0977V20.0977ZM329.605 25.4258V35.4258C335.128 35.4258 339.605 30.9486 339.605 25.4258L329.605 25.4258ZM301.504 25.4258H291.504C291.504 30.9486 295.981 35.4258 301.504 35.4258V25.4258ZM301.504 11.418V1.41797C295.981 1.41797 291.504 5.89512 291.504 11.418L301.504 11.418ZM308.379 11.418H318.379C318.379 5.89512 313.902 1.41797 308.379 1.41797V11.418ZM308.379 20.0977H298.379C298.379 25.6205 302.856 30.0977 308.379 30.0977V20.0977ZM333.516 28.9492H343.516C343.516 23.4264 339.038 18.9492 333.516 18.9492V28.9492ZM333.516 34.2773V44.2773C339.038 44.2773 343.516 39.8002 343.516 34.2773H333.516ZM297.25 34.2773H287.25C287.25 39.8002 291.727 44.2773 297.25 44.2773V34.2773ZM297.25 28.9492V18.9492C291.727 18.9492 287.25 23.4264 287.25 28.9492H297.25ZM329.863 43.4727H339.863C339.863 37.9498 335.386 33.4727 329.863 33.4727V43.4727ZM329.863 48.9727V58.9727C335.386 58.9727 339.863 54.4955 339.863 48.9727H329.863ZM301.031 48.9727H291.031C291.031 54.4955 295.508 58.9727 301.031 58.9727V48.9727ZM301.031 37.0273V27.0273C295.508 27.0273 291.031 31.5045 291.031 37.0273H301.031ZM307.992 37.0273H317.992C317.992 31.5045 313.515 27.0273 307.992 27.0273V37.0273ZM307.992 43.4727H297.992C297.992 48.9955 302.469 53.4727 307.992 53.4727V43.4727ZM329.605 20.0977H319.605V25.4258H329.605L339.605 25.4258V20.0977L329.605 20.0977ZM329.605 25.4258V15.4258H301.504V25.4258V35.4258H329.605V25.4258ZM301.504 25.4258H311.504V11.418H301.504L291.504 11.418V25.4258H301.504ZM301.504 11.418V21.418H308.379V11.418V1.41797H301.504V11.418ZM308.379 11.418L298.379 11.418V20.0977H308.379H318.379V11.418H308.379ZM308.379 20.0977V30.0977H329.605V20.0977V10.0977H308.379V20.0977ZM333.516 28.9492H323.516V34.2773H333.516H343.516V28.9492H333.516ZM333.516 34.2773V24.2773L297.25 24.2773V34.2773V44.2773H333.516V34.2773ZM297.25 34.2773H307.25V28.9492H297.25H287.25V34.2773H297.25ZM297.25 28.9492V38.9492H333.516V28.9492V18.9492L297.25 18.9492V28.9492ZM329.863 43.4727H319.863V48.9727H329.863H339.863V43.4727H329.863ZM329.863 48.9727V38.9727H301.031V48.9727V58.9727H329.863V48.9727ZM301.031 48.9727H311.031V37.0273H301.031H291.031V48.9727H301.031ZM301.031 37.0273V47.0273H307.992V37.0273V27.0273H301.031V37.0273ZM307.992 37.0273H297.992V43.4727H307.992H317.992V37.0273H307.992ZM307.992 43.4727V53.4727H329.863V43.4727V33.4727H307.992V43.4727Z" fill="white" mask="url(#path-1-outside-1_6524_1865)"/>
</g>
<defs>
<filter id="filter0_d_6524_1865" x="0" y="0" width="347.516" height="67.875" filterUnits="userSpaceOnUse" color-interpolation-filters="sRGB">
<feFlood flood-opacity="0" result="BackgroundImageFix"/>
<feColorMatrix in="SourceAlpha" type="matrix" values="0 0 0 0 0 0 0 0 0 0 0 0 0 0 0 0 0 0 127 0" result="hardAlpha"/>
<feOffset dy="4"/>
<feGaussianBlur stdDeviation="2"/>
<feComposite in2="hardAlpha" operator="out"/>
<feColorMatrix type="matrix" values="0 0 0 0 0 0 0 0 0 0 0 0 0 0 0 0 0 0 0.07 0"/>
<feBlend mode="normal" in2="BackgroundImageFix" result="effect1_dropShadow_6524_1865"/>
<feBlend mode="normal" in="SourceGraphic" in2="effect1_dropShadow_6524_1865" result="shape"/>
</filter>
</defs>
</svg>
