<svg width="272" height="68" viewBox="0 0 272 68" fill="none" xmlns="http://www.w3.org/2000/svg">
<g filter="url(#filter0_d_6524_1859)">
<mask id="path-1-outside-1_6524_1859" maskUnits="userSpaceOnUse" x="3.99219" y="-0.507813" width="264" height="61" fill="black">
<rect fill="white" x="3.99219" y="-0.507813" width="264" height="61"/>
<path d="M33.3789 12.1914V17.6484H20.918V19.5391H32.1758V24.8242H20.918V26.7578C27.0195 26.7363 31.2305 26.6289 35.8711 25.8555L36.5156 31.1406C30.9727 32.1289 25.8164 32.1719 17.5234 32.1719H14V12.1914H33.3789ZM45.4102 10.0859V33.5898H38.4922V10.0859L45.4102 10.0859ZM45.4102 34.9648V49.4023H18.2969V34.9648H45.4102ZM25.0859 40.293V43.9023H38.6641V40.293H25.0859ZM68.0547 10.5156C77.3789 10.5156 82.707 12.8789 82.75 17.2187C82.707 21.6016 77.3789 23.9648 68.0547 23.9648C58.6875 23.9648 53.2734 21.6016 53.3164 17.2188C53.2734 12.8789 58.6875 10.5156 68.0547 10.5156ZM68.0547 15.5C62.6836 15.5 60.5352 16.0156 60.5352 17.2188C60.5352 18.6797 62.6836 18.9375 68.0547 18.9805C73.4688 18.9375 75.6172 18.6797 75.6172 17.2187C75.6172 16.0156 73.4688 15.5 68.0547 15.5ZM86.1875 25.2969V30.7539H49.9219V25.2969L86.1875 25.2969ZM81.8906 32.2578V43.2148H60.707V44.5039H82.8359V49.5742H53.9609V38.4883H75.1016V37.2852H54.0039V32.2578H81.8906ZM120.133 11.6328V16.9609H113.043C113.709 20.1836 116.137 23.3418 121.766 24.8672L118.586 30.1523C114.203 29.0352 111.238 26.6504 109.477 23.6211C107.693 27.0586 104.643 29.7441 99.8945 30.9688L96.543 25.5977C102.494 23.9863 104.986 20.4844 105.652 16.9609H98.3477V11.6328L120.133 11.6328ZM129.328 10V17.3477H134.27V22.8477H129.328V30.3242H122.41V10H129.328ZM129.328 31.6562V42.7852H109.176V44.2031H130.273V49.3594H102.344V38.0156H122.453V36.7695H102.344V31.6562H129.328ZM163.574 14.082V19.4102H158.16C158.182 22.9121 159.857 26.1777 164.648 27.7461V10.7305L171.137 10.7305V19.0234H172.984V10.0859H179.516V34.3633H172.984V24.5664H171.137V33.2031H164.648V28.1758L161.855 32.8594C158.611 31.8926 156.441 30.0664 155.066 27.7461C153.713 30.4531 151.479 32.5801 148.062 33.8047L144.883 28.7773C149.889 26.9512 151.543 23.2129 151.629 19.4102H146.215V14.082H151.629V10.6875H158.16V14.082H163.574ZM165.637 34.4922C174.188 34.5352 179.688 37.4141 179.73 42.2695C179.688 46.9961 174.188 49.832 165.637 49.832C157.086 49.832 151.629 46.9961 151.672 42.2695C151.629 37.4141 157.086 34.5352 165.637 34.4922ZM165.637 39.7344C161.039 39.6914 158.547 40.5078 158.547 42.2695C158.547 43.9453 161.039 44.6328 165.637 44.6328C170.277 44.6328 172.727 43.9453 172.77 42.2695C172.727 40.5078 170.277 39.6914 165.637 39.7344ZM216.898 10V49.7461H209.895V10H216.898ZM204.867 14.082C204.867 26.543 201.344 36.4687 186.605 43.3437L183.082 37.9297C193.008 33.2031 196.982 27.7461 197.863 19.4531H185.359V14.082L204.867 14.082ZM253.551 20.0977V25.4258H225.449V11.418H232.324V20.0977H253.551ZM257.461 28.9492V34.2773H221.195V28.9492H257.461ZM253.809 43.4727V48.9727H224.977V37.0273H231.938V43.4727H253.809Z"/>
</mask>
<path d="M33.3789 12.1914V17.6484H20.918V19.5391H32.1758V24.8242H20.918V26.7578C27.0195 26.7363 31.2305 26.6289 35.8711 25.8555L36.5156 31.1406C30.9727 32.1289 25.8164 32.1719 17.5234 32.1719H14V12.1914H33.3789ZM45.4102 10.0859V33.5898H38.4922V10.0859L45.4102 10.0859ZM45.4102 34.9648V49.4023H18.2969V34.9648H45.4102ZM25.0859 40.293V43.9023H38.6641V40.293H25.0859ZM68.0547 10.5156C77.3789 10.5156 82.707 12.8789 82.75 17.2187C82.707 21.6016 77.3789 23.9648 68.0547 23.9648C58.6875 23.9648 53.2734 21.6016 53.3164 17.2188C53.2734 12.8789 58.6875 10.5156 68.0547 10.5156ZM68.0547 15.5C62.6836 15.5 60.5352 16.0156 60.5352 17.2188C60.5352 18.6797 62.6836 18.9375 68.0547 18.9805C73.4688 18.9375 75.6172 18.6797 75.6172 17.2187C75.6172 16.0156 73.4688 15.5 68.0547 15.5ZM86.1875 25.2969V30.7539H49.9219V25.2969L86.1875 25.2969ZM81.8906 32.2578V43.2148H60.707V44.5039H82.8359V49.5742H53.9609V38.4883H75.1016V37.2852H54.0039V32.2578H81.8906ZM120.133 11.6328V16.9609H113.043C113.709 20.1836 116.137 23.3418 121.766 24.8672L118.586 30.1523C114.203 29.0352 111.238 26.6504 109.477 23.6211C107.693 27.0586 104.643 29.7441 99.8945 30.9688L96.543 25.5977C102.494 23.9863 104.986 20.4844 105.652 16.9609H98.3477V11.6328L120.133 11.6328ZM129.328 10V17.3477H134.27V22.8477H129.328V30.3242H122.41V10H129.328ZM129.328 31.6562V42.7852H109.176V44.2031H130.273V49.3594H102.344V38.0156H122.453V36.7695H102.344V31.6562H129.328ZM163.574 14.082V19.4102H158.16C158.182 22.9121 159.857 26.1777 164.648 27.7461V10.7305L171.137 10.7305V19.0234H172.984V10.0859H179.516V34.3633H172.984V24.5664H171.137V33.2031H164.648V28.1758L161.855 32.8594C158.611 31.8926 156.441 30.0664 155.066 27.7461C153.713 30.4531 151.479 32.5801 148.062 33.8047L144.883 28.7773C149.889 26.9512 151.543 23.2129 151.629 19.4102H146.215V14.082H151.629V10.6875H158.16V14.082H163.574ZM165.637 34.4922C174.188 34.5352 179.688 37.4141 179.73 42.2695C179.688 46.9961 174.188 49.832 165.637 49.832C157.086 49.832 151.629 46.9961 151.672 42.2695C151.629 37.4141 157.086 34.5352 165.637 34.4922ZM165.637 39.7344C161.039 39.6914 158.547 40.5078 158.547 42.2695C158.547 43.9453 161.039 44.6328 165.637 44.6328C170.277 44.6328 172.727 43.9453 172.77 42.2695C172.727 40.5078 170.277 39.6914 165.637 39.7344ZM216.898 10V49.7461H209.895V10H216.898ZM204.867 14.082C204.867 26.543 201.344 36.4687 186.605 43.3437L183.082 37.9297C193.008 33.2031 196.982 27.7461 197.863 19.4531H185.359V14.082L204.867 14.082ZM253.551 20.0977V25.4258H225.449V11.418H232.324V20.0977H253.551ZM257.461 28.9492V34.2773H221.195V28.9492H257.461ZM253.809 43.4727V48.9727H224.977V37.0273H231.938V43.4727H253.809Z" fill="#11DCA9"/>
<path d="M33.3789 12.1914L43.3789 12.1914C43.3789 6.66856 38.9018 2.19141 33.3789 2.19141V12.1914ZM33.3789 17.6484V27.6484C38.9018 27.6484 43.3789 23.1713 43.3789 17.6484H33.3789ZM20.918 17.6484V7.64844C15.3951 7.64844 10.918 12.1256 10.918 17.6484H20.918ZM20.918 19.5391H10.918C10.918 25.0619 15.3951 29.5391 20.918 29.5391V19.5391ZM32.1758 19.5391H42.1758C42.1758 14.0162 37.6986 9.53906 32.1758 9.53906V19.5391ZM32.1758 24.8242V34.8242C37.6986 34.8242 42.1758 30.3471 42.1758 24.8242H32.1758ZM20.918 24.8242V14.8242C15.3951 14.8242 10.918 19.3014 10.918 24.8242H20.918ZM20.918 26.7578H10.918C10.918 29.4161 11.9764 31.965 13.8594 33.8413C15.7423 35.7177 18.2949 36.7671 20.9532 36.7578L20.918 26.7578ZM35.8711 25.8555L45.7976 24.6449C45.4673 21.9369 44.045 19.4813 41.8603 17.8474C39.6755 16.2134 36.9181 15.543 34.2271 15.9915L35.8711 25.8555ZM36.5156 31.1406L38.2709 40.9854C43.4974 40.0535 47.0848 35.2 46.4421 29.9301L36.5156 31.1406ZM14 32.1719H4C4 37.6947 8.47715 42.1719 14 42.1719L14 32.1719ZM14 12.1914V2.19141C8.47715 2.19141 4 6.66856 4 12.1914H14ZM45.4102 10.0859H55.4102C55.4102 4.56309 50.933 0.0859375 45.4102 0.0859375V10.0859ZM45.4102 33.5898V43.5898C50.933 43.5898 55.4102 39.1127 55.4102 33.5898H45.4102ZM38.4922 33.5898H28.4922C28.4922 39.1127 32.9693 43.5898 38.4922 43.5898V33.5898ZM38.4922 10.0859V0.0859375C32.9693 0.0859375 28.4922 4.56309 28.4922 10.0859H38.4922ZM45.4102 34.9648H55.4102C55.4102 29.442 50.933 24.9648 45.4102 24.9648V34.9648ZM45.4102 49.4023V59.4023C50.933 59.4023 55.4102 54.9252 55.4102 49.4023H45.4102ZM18.2969 49.4023H8.29688C8.29688 54.9252 12.774 59.4023 18.2969 59.4023V49.4023ZM18.2969 34.9648V24.9648C12.774 24.9648 8.29688 29.442 8.29688 34.9648H18.2969ZM25.0859 40.293V30.293C19.5631 30.293 15.0859 34.7701 15.0859 40.293H25.0859ZM25.0859 43.9023H15.0859C15.0859 49.4252 19.5631 53.9023 25.0859 53.9023V43.9023ZM38.6641 43.9023V53.9023C44.1869 53.9023 48.6641 49.4252 48.6641 43.9023H38.6641ZM38.6641 40.293H48.6641C48.6641 34.7701 44.1869 30.293 38.6641 30.293V40.293ZM33.3789 12.1914H23.3789V17.6484H33.3789H43.3789V12.1914L33.3789 12.1914ZM33.3789 17.6484V7.64844H20.918V17.6484V27.6484H33.3789V17.6484ZM20.918 17.6484H10.918V19.5391H20.918H30.918V17.6484H20.918ZM20.918 19.5391V29.5391H32.1758V19.5391V9.53906H20.918V19.5391ZM32.1758 19.5391H22.1758V24.8242H32.1758H42.1758V19.5391H32.1758ZM32.1758 24.8242V14.8242H20.918V24.8242V34.8242H32.1758V24.8242ZM20.918 24.8242H10.918V26.7578H20.918H30.918V24.8242H20.918ZM20.918 26.7578L20.9532 36.7578C27.087 36.7362 32.0064 36.6375 37.5151 35.7194L35.8711 25.8555L34.2271 15.9915C30.4545 16.6203 26.9521 16.7365 20.8828 16.7579L20.918 26.7578ZM35.8711 25.8555L25.9446 27.066L26.5892 32.3512L36.5156 31.1406L46.4421 29.9301L45.7976 24.6449L35.8711 25.8555ZM36.5156 31.1406L34.7604 21.2959C30.2306 22.1035 25.9584 22.1719 17.5234 22.1719V32.1719V42.1719C25.6744 42.1719 31.7147 42.1543 38.2709 40.9854L36.5156 31.1406ZM17.5234 32.1719V22.1719H14V32.1719L14 42.1719H17.5234V32.1719ZM14 32.1719H24V12.1914H14H4L4 32.1719H14ZM14 12.1914V22.1914H33.3789V12.1914V2.19141L14 2.19141V12.1914ZM45.4102 10.0859L35.4102 10.0859V33.5898H45.4102H55.4102V10.0859H45.4102ZM45.4102 33.5898V23.5898H38.4922V33.5898V43.5898H45.4102V33.5898ZM38.4922 33.5898H48.4922V10.0859L38.4922 10.0859H28.4922V33.5898H38.4922ZM38.4922 10.0859V20.0859H45.4102V10.0859V0.0859375H38.4922V10.0859ZM45.4102 34.9648H35.4102V49.4023H45.4102H55.4102V34.9648H45.4102ZM45.4102 49.4023V39.4023H18.2969V49.4023V59.4023H45.4102V49.4023ZM18.2969 49.4023H28.2969V34.9648H18.2969H8.29688L8.29688 49.4023H18.2969ZM18.2969 34.9648V44.9648H45.4102V34.9648V24.9648H18.2969V34.9648ZM25.0859 40.293H15.0859V43.9023H25.0859H35.0859V40.293H25.0859ZM25.0859 43.9023V53.9023H38.6641V43.9023V33.9023H25.0859V43.9023ZM38.6641 43.9023H48.6641V40.293H38.6641H28.6641V43.9023H38.6641ZM38.6641 40.293V30.293H25.0859V40.293V50.293H38.6641V40.293ZM82.75 17.2187L92.7495 17.3168C92.7502 17.2511 92.7502 17.1854 92.7495 17.1197L82.75 17.2187ZM53.3164 17.2188L63.3159 17.3168C63.3166 17.2511 63.3166 17.1854 63.3159 17.1197L53.3164 17.2188ZM68.0547 18.9805L67.9747 28.9801C68.0278 28.9806 68.0809 28.9806 68.134 28.9802L68.0547 18.9805ZM86.1875 25.2969H96.1875C96.1875 19.774 91.7104 15.2969 86.1875 15.2969V25.2969ZM86.1875 30.7539V40.7539C91.7104 40.7539 96.1875 36.2768 96.1875 30.7539H86.1875ZM49.9219 30.7539H39.9219C39.9219 36.2768 44.399 40.7539 49.9219 40.7539V30.7539ZM49.9219 25.2969V15.2969C44.399 15.2969 39.9219 19.774 39.9219 25.2969H49.9219ZM81.8906 32.2578H91.8906C91.8906 26.735 87.4135 22.2578 81.8906 22.2578V32.2578ZM81.8906 43.2148V53.2148C87.4135 53.2148 91.8906 48.7377 91.8906 43.2148H81.8906ZM60.707 43.2148V33.2148C55.1842 33.2148 50.707 37.692 50.707 43.2148H60.707ZM60.707 44.5039H50.707C50.707 50.0268 55.1842 54.5039 60.707 54.5039V44.5039ZM82.8359 44.5039H92.8359C92.8359 38.9811 88.3588 34.5039 82.8359 34.5039V44.5039ZM82.8359 49.5742V59.5742C88.3588 59.5742 92.8359 55.0971 92.8359 49.5742H82.8359ZM53.9609 49.5742H43.9609C43.9609 55.0971 48.4381 59.5742 53.9609 59.5742V49.5742ZM53.9609 38.4883V28.4883C48.4381 28.4883 43.9609 32.9654 43.9609 38.4883H53.9609ZM75.1016 38.4883V48.4883C80.6244 48.4883 85.1016 44.0111 85.1016 38.4883H75.1016ZM75.1016 37.2852H85.1016C85.1016 31.7623 80.6244 27.2852 75.1016 27.2852V37.2852ZM54.0039 37.2852H44.0039C44.0039 42.808 48.4811 47.2852 54.0039 47.2852V37.2852ZM54.0039 32.2578V22.2578C48.4811 22.2578 44.0039 26.735 44.0039 32.2578H54.0039ZM68.0547 10.5156V20.5156C69.9833 20.5156 71.5223 20.6392 72.701 20.8275C73.9063 21.02 74.5363 21.249 74.758 21.3494C74.9885 21.4538 74.4801 21.2804 73.873 20.505C73.1647 19.6003 72.7615 18.4288 72.7505 17.3178L82.75 17.2187L92.7495 17.1197C92.6769 9.78613 87.7265 5.26676 83.0076 3.13007C78.6203 1.14355 73.3081 0.515625 68.0547 0.515625V10.5156ZM82.75 17.2187L72.7505 17.1207C72.761 16.0441 73.1491 14.8886 73.8514 13.985C74.4551 13.2084 74.9649 13.0316 74.7418 13.133C74.5253 13.2315 73.9004 13.4603 72.6974 13.6529C71.5211 13.8412 69.9835 13.9648 68.0547 13.9648V23.9648V33.9648C73.3053 33.9648 78.6272 33.3378 83.0238 31.3377C87.7778 29.1749 92.6778 24.6299 92.7495 17.3168L82.75 17.2187ZM68.0547 23.9648V13.9648C66.1132 13.9648 64.5583 13.841 63.3643 13.6512C62.1421 13.4568 61.5019 13.2253 61.2757 13.1231C61.0377 13.0155 61.5694 13.1961 62.1948 14.0048C62.929 14.9544 63.3271 16.1768 63.3159 17.3168L53.3164 17.2188L43.3169 17.1207C43.2435 24.6082 48.2996 29.2059 53.0377 31.3476C57.4434 33.3391 62.7891 33.9648 68.0547 33.9648V23.9648ZM53.3164 17.2188L63.3159 17.1197C63.3276 18.2952 62.9138 19.5344 62.1733 20.4852C61.5444 21.2927 61.014 21.4698 61.2596 21.3593C61.491 21.2552 62.1363 21.0234 63.3607 20.8292C64.5571 20.6394 66.1135 20.5156 68.0547 20.5156V10.5156V0.515625C62.7863 0.515625 57.4502 1.14229 53.0539 3.12017C48.3524 5.23532 43.2425 9.80756 43.3169 17.3178L53.3164 17.2188ZM68.0547 15.5V5.5C65.3062 5.5 62.4361 5.60872 60.029 6.16502C58.8732 6.43215 56.83 7.01263 54.8921 8.49003C52.5175 10.3003 50.5352 13.3361 50.5352 17.2188H60.5352H70.5352C70.5352 18.6243 70.2038 20.1198 69.4528 21.5217C68.7251 22.8801 67.7891 23.807 67.0175 24.3952C66.2708 24.9644 65.6121 25.2695 65.2425 25.4187C64.8609 25.5729 64.599 25.636 64.5325 25.6514C64.4285 25.6754 64.6278 25.623 65.3139 25.5748C65.9611 25.5294 66.8535 25.5 68.0547 25.5V15.5ZM60.5352 17.2188H50.5352C50.5352 20.5239 51.973 23.706 54.6744 25.8861C56.797 27.5992 59.0805 28.1787 60.236 28.4201C62.5914 28.9121 65.4992 28.9603 67.9747 28.9801L68.0547 18.9805L68.1347 8.98079C66.8388 8.97042 65.8848 8.94762 65.1674 8.90785C64.3991 8.86526 64.2054 8.81754 64.3255 8.84263C64.4068 8.85961 64.725 8.92924 65.1785 9.10871C65.6261 9.2859 66.3946 9.64408 67.2352 10.3225C68.1234 11.0393 69.0342 12.0705 69.6842 13.4499C70.3304 14.8216 70.5352 16.1475 70.5352 17.2188H60.5352ZM68.0547 18.9805L68.134 28.9802C70.6302 28.9603 73.5456 28.912 75.9023 28.4219C77.057 28.1817 79.3429 27.6047 81.4683 25.8933C84.177 23.7125 85.6172 20.5264 85.6172 17.2187H75.6172L65.6172 17.2188C65.6172 16.1476 65.8219 14.8198 66.4701 13.4457C67.122 12.0637 68.0356 11.0318 68.9255 10.3153C69.7673 9.63745 70.5362 9.28046 70.9825 9.10441C71.4347 8.92603 71.7513 8.85723 71.8301 8.84082C71.9455 8.81682 71.746 8.86492 70.9703 8.90766C70.2455 8.94759 69.2825 8.97041 67.9753 8.98078L68.0547 18.9805ZM75.6172 17.2187H85.6172C85.6172 13.3329 83.6315 10.294 81.2506 8.48317C79.3099 7.00718 77.2643 6.42878 76.1085 6.16284C73.6998 5.60863 70.8219 5.5 68.0547 5.5V15.5V25.5C69.2678 25.5 70.1698 25.5295 70.8247 25.5751C71.5185 25.6235 71.7235 25.6765 71.6239 25.6536C71.5596 25.6388 71.2992 25.5764 70.9186 25.4232C70.5501 25.2749 69.891 24.9708 69.1432 24.4021C68.3703 23.8142 67.4317 22.8868 66.7019 21.5261C65.9487 20.1218 65.6172 18.6244 65.6172 17.2188L75.6172 17.2187ZM86.1875 25.2969H76.1875V30.7539H86.1875H96.1875V25.2969H86.1875ZM86.1875 30.7539V20.7539L49.9219 20.7539V30.7539V40.7539H86.1875V30.7539ZM49.9219 30.7539H59.9219V25.2969H49.9219H39.9219V30.7539H49.9219ZM49.9219 25.2969V35.2969H86.1875V25.2969V15.2969L49.9219 15.2969V25.2969ZM81.8906 32.2578H71.8906V43.2148H81.8906H91.8906V32.2578H81.8906ZM81.8906 43.2148V33.2148H60.707V43.2148V53.2148H81.8906V43.2148ZM60.707 43.2148H50.707V44.5039H60.707H70.707V43.2148H60.707ZM60.707 44.5039V54.5039H82.8359V44.5039V34.5039H60.707V44.5039ZM82.8359 44.5039H72.8359V49.5742H82.8359H92.8359V44.5039H82.8359ZM82.8359 49.5742V39.5742H53.9609V49.5742V59.5742H82.8359V49.5742ZM53.9609 49.5742H63.9609V38.4883H53.9609H43.9609V49.5742H53.9609ZM53.9609 38.4883V48.4883H75.1016V38.4883V28.4883L53.9609 28.4883V38.4883ZM75.1016 38.4883H85.1016V37.2852H75.1016H65.1016V38.4883H75.1016ZM75.1016 37.2852V27.2852L54.0039 27.2852V37.2852V47.2852H75.1016V37.2852ZM54.0039 37.2852H64.0039V32.2578H54.0039H44.0039V37.2852H54.0039ZM54.0039 32.2578V42.2578H81.8906V32.2578V22.2578L54.0039 22.2578V32.2578ZM120.133 11.6328H130.133C130.133 6.10997 125.656 1.63281 120.133 1.63281V11.6328ZM120.133 16.9609V26.9609C125.656 26.9609 130.133 22.4838 130.133 16.9609H120.133ZM113.043 16.9609V6.96094C110.036 6.96094 107.188 8.31419 105.289 10.6458C103.39 12.9775 102.641 16.0399 103.25 18.9848L113.043 16.9609ZM121.766 24.8672L130.334 30.0224C131.951 27.3356 132.213 24.0461 131.044 21.1369C129.874 18.2276 127.408 16.0354 124.381 15.2153L121.766 24.8672ZM118.586 30.1523L116.116 39.8425C120.393 40.9328 124.879 39.0898 127.155 35.3075L118.586 30.1523ZM109.477 23.6211L118.121 18.5938C116.287 15.4406 112.882 13.5361 109.236 13.624C105.589 13.7119 102.28 15.7784 100.6 19.0163L109.477 23.6211ZM99.8945 30.9688L91.4107 36.2626C93.7212 39.9652 98.1659 41.7418 102.392 40.6519L99.8945 30.9688ZM96.543 25.5977L93.9295 15.9452C90.8749 16.7723 88.392 18.9964 87.2351 21.9419C86.0783 24.8875 86.3839 28.2068 88.0592 30.8915L96.543 25.5977ZM105.652 16.9609L115.478 18.8183C116.031 15.8927 115.252 12.8728 113.352 10.5802C111.452 8.28769 108.63 6.96094 105.652 6.96094V16.9609ZM98.3477 16.9609H88.3477C88.3477 22.4838 92.8248 26.9609 98.3477 26.9609V16.9609ZM98.3477 11.6328V1.63281C92.8248 1.63281 88.3477 6.10997 88.3477 11.6328H98.3477ZM129.328 10H139.328C139.328 4.47715 134.851 0 129.328 0V10ZM129.328 17.3477H119.328C119.328 22.8705 123.805 27.3477 129.328 27.3477V17.3477ZM134.27 17.3477H144.27C144.27 11.8248 139.792 7.34766 134.27 7.34766V17.3477ZM134.27 22.8477V32.8477C139.792 32.8477 144.27 28.3705 144.27 22.8477H134.27ZM129.328 22.8477V12.8477C123.805 12.8477 119.328 17.3248 119.328 22.8477H129.328ZM129.328 30.3242V40.3242C134.851 40.3242 139.328 35.8471 139.328 30.3242L129.328 30.3242ZM122.41 30.3242H112.41C112.41 35.8471 116.887 40.3242 122.41 40.3242V30.3242ZM122.41 10V0C116.887 0 112.41 4.47715 112.41 10H122.41ZM129.328 31.6562L139.328 31.6562C139.328 26.1334 134.851 21.6562 129.328 21.6562V31.6562ZM129.328 42.7852V52.7852C134.851 52.7852 139.328 48.308 139.328 42.7852L129.328 42.7852ZM109.176 42.7852V32.7852C103.653 32.7852 99.1758 37.2623 99.1758 42.7852H109.176ZM109.176 44.2031H99.1758C99.1758 49.726 103.653 54.2031 109.176 54.2031V44.2031ZM130.273 44.2031L140.273 44.2031C140.273 38.6803 135.796 34.2031 130.273 34.2031V44.2031ZM130.273 49.3594V59.3594C135.796 59.3594 140.273 54.8822 140.273 49.3594L130.273 49.3594ZM102.344 49.3594H92.3438C92.3438 54.8822 96.8209 59.3594 102.344 59.3594V49.3594ZM102.344 38.0156V28.0156C96.8209 28.0156 92.3438 32.4928 92.3438 38.0156H102.344ZM122.453 38.0156V48.0156C127.976 48.0156 132.453 43.5385 132.453 38.0156H122.453ZM122.453 36.7695H132.453C132.453 31.2467 127.976 26.7695 122.453 26.7695V36.7695ZM102.344 36.7695H92.3438C92.3438 42.2924 96.8209 46.7695 102.344 46.7695V36.7695ZM102.344 31.6562V21.6562C96.8209 21.6562 92.3438 26.1334 92.3438 31.6562H102.344ZM120.133 11.6328H110.133V16.9609H120.133H130.133V11.6328H120.133ZM120.133 16.9609V6.96094H113.043V16.9609V26.9609H120.133V16.9609ZM113.043 16.9609L103.25 18.9848C104.785 26.4107 110.414 32.1517 119.15 34.5191L121.766 24.8672L124.381 15.2153C122.902 14.8145 122.525 14.3904 122.587 14.4522C122.608 14.4732 122.671 14.5449 122.734 14.6632C122.794 14.7766 122.823 14.8759 122.836 14.937L113.043 16.9609ZM121.766 24.8672L113.197 19.712L110.017 24.9971L118.586 30.1523L127.155 35.3075L130.334 30.0224L121.766 24.8672ZM118.586 30.1523L121.056 20.4622C120.008 20.1949 119.371 19.8419 118.989 19.5593C118.61 19.2799 118.337 18.9648 118.121 18.5938L109.477 23.6211L100.832 28.6484C104.02 34.1302 109.285 38.1014 116.116 39.8425L118.586 30.1523ZM109.477 23.6211L100.6 19.0163C100.304 19.5866 99.9674 19.9848 99.5781 20.294C99.189 20.603 98.5342 20.9923 97.3971 21.2856L99.8945 30.9688L102.392 40.6519C109.875 38.7218 115.254 34.2003 118.353 28.2259L109.477 23.6211ZM99.8945 30.9688L108.378 25.6749L105.027 20.3038L96.543 25.5977L88.0592 30.8915L91.4107 36.2626L99.8945 30.9688ZM96.543 25.5977L99.1564 35.2501C108.558 32.7046 114.054 26.3544 115.478 18.8183L105.652 16.9609L95.8263 15.1036C95.8154 15.1614 95.8078 15.1643 95.823 15.1336C95.8414 15.0964 95.8601 15.0768 95.8504 15.087C95.8398 15.0981 95.7399 15.2018 95.4689 15.3548C95.1911 15.5115 94.7059 15.735 93.9295 15.9452L96.543 25.5977ZM105.652 16.9609V6.96094H98.3477V16.9609V26.9609H105.652V16.9609ZM98.3477 16.9609H108.348V11.6328L98.3477 11.6328H88.3477V16.9609H98.3477ZM98.3477 11.6328V21.6328H120.133V11.6328V1.63281H98.3477V11.6328ZM129.328 10H119.328V17.3477H129.328H139.328V10H129.328ZM129.328 17.3477V27.3477H134.27V17.3477V7.34766H129.328V17.3477ZM134.27 17.3477H124.27V22.8477H134.27H144.27V17.3477H134.27ZM134.27 22.8477V12.8477H129.328V22.8477V32.8477H134.27V22.8477ZM129.328 22.8477H119.328V30.3242H129.328L139.328 30.3242V22.8477H129.328ZM129.328 30.3242V20.3242H122.41V30.3242V40.3242H129.328V30.3242ZM122.41 30.3242H132.41V10H122.41H112.41V30.3242H122.41ZM122.41 10V20H129.328V10V0H122.41V10ZM129.328 31.6562H119.328V42.7852H129.328L139.328 42.7852V31.6562L129.328 31.6562ZM129.328 42.7852V32.7852H109.176V42.7852V52.7852H129.328V42.7852ZM109.176 42.7852H99.1758V44.2031H109.176H119.176V42.7852H109.176ZM109.176 44.2031V54.2031H130.273V44.2031V34.2031H109.176V44.2031ZM130.273 44.2031H120.273V49.3594H130.273L140.273 49.3594V44.2031L130.273 44.2031ZM130.273 49.3594V39.3594H102.344V49.3594V59.3594H130.273V49.3594ZM102.344 49.3594H112.344V38.0156H102.344H92.3438V49.3594H102.344ZM102.344 38.0156V48.0156H122.453V38.0156V28.0156H102.344V38.0156ZM122.453 38.0156H132.453V36.7695H122.453H112.453V38.0156H122.453ZM122.453 36.7695V26.7695H102.344V36.7695V46.7695H122.453V36.7695ZM102.344 36.7695H112.344V31.6562H102.344H92.3438V36.7695H102.344ZM102.344 31.6562V41.6562H129.328V31.6562V21.6562H102.344V31.6562ZM163.574 14.082H173.574C173.574 8.55918 169.097 4.08203 163.574 4.08203V14.082ZM163.574 19.4102V29.4102C169.097 29.4102 173.574 24.933 173.574 19.4102H163.574ZM158.16 19.4102V9.41016C155.497 9.41016 152.945 10.4722 151.067 12.3608C149.19 14.2495 148.144 16.8088 148.16 19.4715L158.16 19.4102ZM164.648 27.7461L161.537 37.2498C164.583 38.2469 167.922 37.7237 170.517 35.8427C173.112 33.9618 174.648 30.951 174.648 27.7461H164.648ZM164.648 10.7305V0.730469C159.126 0.730469 154.648 5.20762 154.648 10.7305H164.648ZM171.137 10.7305H181.137C181.137 5.20762 176.66 0.730469 171.137 0.730469V10.7305ZM171.137 19.0234H161.137C161.137 24.5463 165.614 29.0234 171.137 29.0234V19.0234ZM172.984 19.0234V29.0234C178.507 29.0234 182.984 24.5463 182.984 19.0234H172.984ZM172.984 10.0859V0.0859375C167.462 0.0859375 162.984 4.56309 162.984 10.0859L172.984 10.0859ZM179.516 10.0859H189.516C189.516 4.56309 185.038 0.0859375 179.516 0.0859375V10.0859ZM179.516 34.3633V44.3633C185.038 44.3633 189.516 39.8861 189.516 34.3633H179.516ZM172.984 34.3633H162.984C162.984 39.8861 167.462 44.3633 172.984 44.3633V34.3633ZM172.984 24.5664H182.984C182.984 19.0436 178.507 14.5664 172.984 14.5664V24.5664ZM171.137 24.5664V14.5664C165.614 14.5664 161.137 19.0436 161.137 24.5664H171.137ZM171.137 33.2031V43.2031C176.66 43.2031 181.137 38.726 181.137 33.2031H171.137ZM164.648 33.2031H154.648C154.648 38.726 159.126 43.2031 164.648 43.2031V33.2031ZM164.648 28.1758H174.648C174.648 23.676 171.643 19.7303 167.305 18.535C162.967 17.3397 158.364 19.1892 156.06 23.054L164.648 28.1758ZM161.855 32.8594L158.999 42.4429C163.386 43.7501 168.1 41.9123 170.444 37.9811L161.855 32.8594ZM155.066 27.7461L163.669 22.6481C161.804 19.4997 158.367 17.622 154.71 17.7524C151.053 17.8829 147.759 20.0007 146.122 23.274L155.066 27.7461ZM148.062 33.8047L139.611 39.1501C142.114 43.1078 147.029 44.7984 151.437 43.2181L148.062 33.8047ZM144.883 28.7773L141.456 19.3829C138.614 20.4198 136.394 22.6875 135.418 25.551C134.442 28.4145 134.814 31.5659 136.431 34.1227L144.883 28.7773ZM151.629 19.4102L161.626 19.6361C161.687 16.9454 160.661 14.3439 158.779 12.4194C156.898 10.495 154.32 9.41016 151.629 9.41016V19.4102ZM146.215 19.4102H136.215C136.215 24.933 140.692 29.4102 146.215 29.4102V19.4102ZM146.215 14.082V4.08203C140.692 4.08203 136.215 8.55918 136.215 14.082H146.215ZM151.629 14.082V24.082C157.152 24.082 161.629 19.6049 161.629 14.082H151.629ZM151.629 10.6875V0.6875C146.106 0.6875 141.629 5.16465 141.629 10.6875H151.629ZM158.16 10.6875H168.16C168.16 5.16465 163.683 0.6875 158.16 0.6875V10.6875ZM158.16 14.082H148.16C148.16 19.6049 152.637 24.082 158.16 24.082V14.082ZM165.637 34.4922L165.687 24.4923C165.653 24.4921 165.62 24.4921 165.586 24.4923L165.637 34.4922ZM179.73 42.2695L189.73 42.3604C189.731 42.3006 189.731 42.2408 189.73 42.181L179.73 42.2695ZM151.672 42.2695L161.671 42.3604C161.672 42.3006 161.672 42.2408 161.671 42.181L151.672 42.2695ZM165.637 39.7344L165.543 49.7339C165.605 49.7345 165.667 49.7345 165.729 49.7339L165.637 39.7344ZM172.77 42.2695L182.766 42.5259C182.771 42.3592 182.771 42.1924 182.767 42.0257L172.77 42.2695ZM163.574 14.082H153.574V19.4102H163.574H173.574V14.082H163.574ZM163.574 19.4102V9.41016H158.16V19.4102V29.4102H163.574V19.4102ZM158.16 19.4102L148.16 19.4715C148.181 22.7982 149.002 26.5976 151.438 30.0582C153.905 33.5646 157.462 35.9157 161.537 37.2498L164.648 27.7461L167.76 18.2424C167.373 18.1158 167.276 18.0298 167.348 18.0802C167.433 18.1391 167.612 18.2899 167.794 18.5483C167.973 18.8026 168.075 19.0484 168.125 19.2243C168.172 19.3871 168.161 19.4418 168.16 19.3488L158.16 19.4102ZM164.648 27.7461H174.648V10.7305L164.648 10.7305H154.648V27.7461H164.648ZM164.648 10.7305V20.7305H171.137V10.7305V0.730469H164.648V10.7305ZM171.137 10.7305L161.137 10.7305V19.0234H171.137H181.137V10.7305H171.137ZM171.137 19.0234V29.0234H172.984V19.0234V9.02344H171.137V19.0234ZM172.984 19.0234H182.984V10.0859H172.984L162.984 10.0859V19.0234H172.984ZM172.984 10.0859V20.0859H179.516V10.0859V0.0859375L172.984 0.0859375V10.0859ZM179.516 10.0859L169.516 10.0859V34.3633H179.516H189.516V10.0859H179.516ZM179.516 34.3633V24.3633H172.984V34.3633V44.3633H179.516V34.3633ZM172.984 34.3633H182.984V24.5664H172.984H162.984V34.3633H172.984ZM172.984 24.5664V14.5664H171.137V24.5664V34.5664H172.984V24.5664ZM171.137 24.5664H161.137V33.2031H171.137H181.137V24.5664H171.137ZM171.137 33.2031V23.2031H164.648V33.2031V43.2031H171.137V33.2031ZM164.648 33.2031H174.648V28.1758H164.648H154.648V33.2031H164.648ZM164.648 28.1758L156.06 23.054L153.267 27.7376L161.855 32.8594L170.444 37.9811L173.237 33.2975L164.648 28.1758ZM161.855 32.8594L164.711 23.2759C164.175 23.1162 163.95 22.9559 163.884 22.9045C163.82 22.855 163.755 22.7918 163.669 22.6481L155.066 27.7461L146.463 32.8441C149.148 37.3747 153.394 40.7725 158.999 42.4429L161.855 32.8594ZM155.066 27.7461L146.122 23.274C145.972 23.5736 145.833 23.7341 145.706 23.8467C145.579 23.9597 145.294 24.1739 144.688 24.3913L148.062 33.8047L151.437 43.2181C157.268 41.1278 161.502 37.236 164.011 32.2182L155.066 27.7461ZM148.062 33.8047L156.514 28.4593L153.334 23.432L144.883 28.7773L136.431 34.1227L139.611 39.1501L148.062 33.8047ZM144.883 28.7773L148.31 38.1717C152.652 36.5877 156.169 33.8985 158.52 30.2314C160.799 26.6756 161.553 22.875 161.626 19.6361L151.629 19.4102L141.631 19.1842C141.625 19.4553 141.594 19.5949 141.585 19.6276C141.579 19.6505 141.598 19.5688 141.682 19.4386C141.722 19.3763 141.767 19.3175 141.814 19.2664C141.861 19.2152 141.897 19.1849 141.912 19.1734C141.926 19.1624 141.907 19.1794 141.839 19.2159C141.771 19.2528 141.648 19.3127 141.456 19.3829L144.883 28.7773ZM151.629 19.4102V9.41016H146.215V19.4102V29.4102H151.629V19.4102ZM146.215 19.4102H156.215V14.082H146.215H136.215V19.4102H146.215ZM146.215 14.082V24.082H151.629V14.082V4.08203H146.215V14.082ZM151.629 14.082H161.629V10.6875H151.629H141.629V14.082H151.629ZM151.629 10.6875V20.6875H158.16V10.6875V0.6875L151.629 0.6875V10.6875ZM158.16 10.6875H148.16V14.082H158.16H168.16V10.6875H158.16ZM158.16 14.082V24.082H163.574V14.082V4.08203H158.16V14.082ZM165.637 34.4922L165.586 44.4921C167.186 44.5001 168.466 44.6413 169.435 44.8396C170.422 45.0417 170.931 45.2709 171.096 45.361C171.256 45.4476 170.894 45.2907 170.472 44.6763C169.996 43.9838 169.738 43.1317 169.731 42.358L179.73 42.2695L189.73 42.181C189.668 35.2215 185.414 30.3815 180.652 27.7913C176.211 25.3761 170.864 24.5183 165.687 24.4923L165.637 34.4922ZM179.73 42.2695L169.731 42.1786C169.739 41.3134 170.032 40.4034 170.536 39.6876C170.981 39.0564 171.356 38.9 171.186 38.9901C171.014 39.0813 170.496 39.3082 169.501 39.5049C168.525 39.6979 167.238 39.832 165.637 39.832V49.832V59.832C170.81 59.832 176.135 59.0059 180.562 56.6564C185.273 54.1559 189.666 49.3791 189.73 42.3604L179.73 42.2695ZM165.637 49.832V39.832C164.034 39.832 162.753 39.6978 161.786 39.506C160.799 39.3104 160.301 39.0871 160.152 39.0073C160.006 38.9292 160.414 39.1101 160.876 39.7834C161.399 40.545 161.679 41.49 161.671 42.3604L151.672 42.2695L141.672 42.1786C141.608 49.2444 145.972 54.1016 150.712 56.6392C155.137 59.0085 160.471 59.832 165.637 59.832V49.832ZM151.672 42.2695L161.671 42.181C161.678 42.9591 161.433 43.8442 160.939 44.5805C160.5 45.236 160.107 45.4175 160.242 45.3432C160.385 45.2649 160.874 45.0393 161.853 44.8384C162.812 44.6413 164.087 44.5001 165.687 44.4921L165.637 34.4922L165.586 24.4923C160.417 24.5183 155.061 25.3735 150.621 27.8091C145.831 30.4374 141.61 35.3559 141.672 42.358L151.672 42.2695ZM165.637 39.7344L165.73 29.7348C163.096 29.7102 159.926 29.8857 157.066 30.886C155.589 31.4026 153.523 32.3674 151.736 34.2597C149.736 36.3788 148.547 39.1944 148.547 42.2695H158.547H168.547C168.547 44.4638 167.669 46.5167 166.28 47.9886C165.105 49.2336 163.949 49.6668 163.669 49.7644C163.205 49.9268 163.58 49.7156 165.543 49.7339L165.637 39.7344ZM158.547 42.2695H148.547C148.547 45.5049 149.878 48.3946 152 50.4793C153.851 52.2973 155.94 53.1644 157.334 53.6083C160.065 54.4778 163.118 54.6328 165.637 54.6328V44.6328V34.6328C163.558 34.6328 163.066 34.4441 163.401 34.5509C163.598 34.6135 164.777 34.9945 166.016 36.2123C166.686 36.87 167.359 37.7611 167.848 38.8985C168.342 40.0452 168.547 41.2059 168.547 42.2695H158.547ZM165.637 44.6328V54.6328C168.171 54.6328 171.227 54.4786 173.961 53.6083C175.366 53.1611 177.43 52.2981 179.266 50.5099C181.355 48.4753 182.686 45.6739 182.766 42.5259L172.77 42.2695L162.773 42.0132C162.832 39.7031 163.84 37.616 165.313 36.1817C166.533 34.9936 167.687 34.6167 167.893 34.5509C168.174 34.4617 168.164 34.502 167.682 34.5515C167.236 34.5972 166.571 34.6328 165.637 34.6328V44.6328ZM172.77 42.2695L182.767 42.0257C182.597 35.0613 177.155 31.9094 174.229 30.886C171.366 29.8847 168.193 29.7103 165.544 29.7348L165.637 39.7344L165.729 49.7339C166.609 49.7258 167.217 49.761 167.599 49.8036C168.017 49.8499 167.965 49.883 167.626 49.7644C167.337 49.6635 166.205 49.2351 165.048 48.0203C163.692 46.5968 162.824 44.6255 162.773 42.5134L172.77 42.2695ZM216.898 10H226.898C226.898 4.47715 222.421 0 216.898 0V10ZM216.898 49.7461V59.7461C222.421 59.7461 226.898 55.2689 226.898 49.7461H216.898ZM209.895 49.7461H199.895C199.895 55.2689 204.372 59.7461 209.895 59.7461V49.7461ZM209.895 10V0C204.372 0 199.895 4.47715 199.895 10H209.895ZM204.867 14.082H214.867C214.867 8.55918 210.39 4.08203 204.867 4.08203V14.082ZM186.605 43.3437L178.224 48.7983C180.941 52.9739 186.318 54.5123 190.833 52.4063L186.605 43.3437ZM183.082 37.9297L178.783 28.9011C176.18 30.1404 174.239 32.4424 173.457 35.2169C172.675 37.9913 173.128 40.9683 174.701 43.3842L183.082 37.9297ZM197.863 19.4531L207.807 20.5094C208.107 17.6892 207.195 14.8745 205.298 12.7659C203.402 10.6573 200.699 9.45312 197.863 9.45312V19.4531ZM185.359 19.4531H175.359C175.359 24.976 179.837 29.4531 185.359 29.4531V19.4531ZM185.359 14.082V4.08203C179.837 4.08203 175.359 8.55918 175.359 14.082H185.359ZM216.898 10H206.898V49.7461H216.898H226.898V10H216.898ZM216.898 49.7461V39.7461H209.895V49.7461V59.7461H216.898V49.7461ZM209.895 49.7461H219.895V10H209.895H199.895V49.7461H209.895ZM209.895 10V20H216.898V10V0L209.895 0V10ZM204.867 14.082L194.867 14.082C194.867 19.4566 194.089 23.132 192.523 25.9487C191.041 28.6154 188.286 31.5252 182.378 34.2812L186.605 43.3437L190.833 52.4063C199.663 48.2873 206.04 42.7967 210.003 35.6665C213.884 28.6864 214.867 21.1684 214.867 14.082H204.867ZM186.605 43.3437L194.987 37.8892L191.463 32.4751L183.082 37.9297L174.701 43.3842L178.224 48.7983L186.605 43.3437ZM183.082 37.9297L187.381 46.9583C193.161 44.2061 198.108 40.8257 201.736 36.197C205.473 31.4275 207.214 26.0982 207.807 20.5094L197.863 19.4531L187.919 18.3969C187.632 21.101 186.945 22.6468 185.993 23.8606C184.932 25.2154 182.929 26.9267 178.783 28.9011L183.082 37.9297ZM197.863 19.4531V9.45312H185.359V19.4531V29.4531H197.863V19.4531ZM185.359 19.4531H195.359V14.082H185.359H175.359V19.4531H185.359ZM185.359 14.082V24.082L204.867 24.082V14.082V4.08203L185.359 4.08203V14.082ZM253.551 20.0977H263.551C263.551 14.5748 259.074 10.0977 253.551 10.0977V20.0977ZM253.551 25.4258V35.4258C259.074 35.4258 263.551 30.9486 263.551 25.4258H253.551ZM225.449 25.4258H215.449C215.449 30.9486 219.926 35.4258 225.449 35.4258V25.4258ZM225.449 11.418V1.41797C219.926 1.41797 215.449 5.89512 215.449 11.418H225.449ZM232.324 11.418L242.324 11.418C242.324 5.89512 237.847 1.41797 232.324 1.41797V11.418ZM232.324 20.0977H222.324C222.324 25.6205 226.801 30.0977 232.324 30.0977V20.0977ZM257.461 28.9492H267.461C267.461 23.4264 262.984 18.9492 257.461 18.9492V28.9492ZM257.461 34.2773V44.2773C262.984 44.2773 267.461 39.8002 267.461 34.2773H257.461ZM221.195 34.2773H211.195C211.195 39.8002 215.672 44.2773 221.195 44.2773V34.2773ZM221.195 28.9492V18.9492C215.672 18.9492 211.195 23.4264 211.195 28.9492H221.195ZM253.809 43.4727H263.809C263.809 37.9498 259.331 33.4727 253.809 33.4727V43.4727ZM253.809 48.9727V58.9727C259.331 58.9727 263.809 54.4955 263.809 48.9727H253.809ZM224.977 48.9727H214.977C214.977 54.4955 219.454 58.9727 224.977 58.9727V48.9727ZM224.977 37.0273V27.0273C219.454 27.0273 214.977 31.5045 214.977 37.0273H224.977ZM231.938 37.0273H241.938C241.938 31.5045 237.46 27.0273 231.938 27.0273V37.0273ZM231.938 43.4727H221.938C221.938 48.9955 226.415 53.4727 231.938 53.4727V43.4727ZM253.551 20.0977H243.551V25.4258H253.551H263.551V20.0977H253.551ZM253.551 25.4258V15.4258H225.449V25.4258V35.4258H253.551V25.4258ZM225.449 25.4258H235.449V11.418L225.449 11.418H215.449V25.4258H225.449ZM225.449 11.418V21.418H232.324V11.418V1.41797H225.449V11.418ZM232.324 11.418H222.324V20.0977H232.324H242.324V11.418L232.324 11.418ZM232.324 20.0977V30.0977H253.551V20.0977V10.0977L232.324 10.0977V20.0977ZM257.461 28.9492H247.461V34.2773H257.461H267.461V28.9492H257.461ZM257.461 34.2773V24.2773H221.195V34.2773V44.2773H257.461V34.2773ZM221.195 34.2773H231.195V28.9492H221.195H211.195V34.2773H221.195ZM221.195 28.9492V38.9492H257.461V28.9492V18.9492H221.195V28.9492ZM253.809 43.4727H243.809V48.9727H253.809H263.809V43.4727H253.809ZM253.809 48.9727V38.9727H224.977V48.9727V58.9727H253.809V48.9727ZM224.977 48.9727H234.977V37.0273H224.977H214.977V48.9727H224.977ZM224.977 37.0273V47.0273H231.938V37.0273V27.0273H224.977V37.0273ZM231.938 37.0273H221.938V43.4727H231.938H241.938V37.0273H231.938ZM231.938 43.4727V53.4727H253.809V43.4727V33.4727H231.938V43.4727Z" fill="white" mask="url(#path-1-outside-1_6524_1859)"/>
</g>
<defs>
<filter id="filter0_d_6524_1859" x="0" y="0" width="271.461" height="67.832" filterUnits="userSpaceOnUse" color-interpolation-filters="sRGB">
<feFlood flood-opacity="0" result="BackgroundImageFix"/>
<feColorMatrix in="SourceAlpha" type="matrix" values="0 0 0 0 0 0 0 0 0 0 0 0 0 0 0 0 0 0 127 0" result="hardAlpha"/>
<feOffset dy="4"/>
<feGaussianBlur stdDeviation="2"/>
<feComposite in2="hardAlpha" operator="out"/>
<feColorMatrix type="matrix" values="0 0 0 0 0 0 0 0 0 0 0 0 0 0 0 0 0 0 0.07 0"/>
<feBlend mode="normal" in2="BackgroundImageFix" result="effect1_dropShadow_6524_1859"/>
<feBlend mode="normal" in="SourceGraphic" in2="effect1_dropShadow_6524_1859" result="shape"/>
</filter>
</defs>
</svg>
