<svg width="310" height="69" viewBox="0 0 310 69" fill="none" xmlns="http://www.w3.org/2000/svg">
<g filter="url(#filter0_d_6524_1774)">
<mask id="path-1-outside-1_6524_1774" maskUnits="userSpaceOnUse" x="3.99219" y="-0.25" width="302" height="61" fill="black">
<rect fill="white" x="3.99219" y="-0.25" width="302" height="61"/>
<path d="M33.3789 12.4492V17.9062H20.918V19.7969H32.1758V25.082H20.918V27.0156C27.0195 26.9941 31.2305 26.8867 35.8711 26.1133L36.5156 31.3984C30.9727 32.3867 25.8164 32.4297 17.5234 32.4297H14V12.4492H33.3789ZM45.4102 10.3437V33.8477H38.4922V10.3438L45.4102 10.3437ZM45.4102 35.2227V49.6602H18.2969V35.2227H45.4102ZM25.0859 40.5508V44.1602H38.6641V40.5508H25.0859ZM84.5977 10.2578V50.0039H78.0234V10.2578H84.5977ZM76.1328 10.7305V48.2852H69.6445V29.8945H67.7109C67.1309 37.7148 63.8008 42.3555 58.9023 42.3555C53.5742 42.3555 50.1367 36.7695 50.1797 27.5312C50.1367 18.3789 53.5742 12.793 58.9023 12.793C63.6504 12.793 66.916 17.1543 67.668 24.4805H69.6445V10.7305H76.1328ZM58.9023 19.3242C57.2695 19.3242 56.4531 21.6875 56.4961 27.5312C56.4531 33.418 57.2695 35.7383 58.9023 35.7383C60.5781 35.7383 61.4805 33.418 61.4805 27.5312C61.4805 21.6875 60.5781 19.3242 58.9023 19.3242ZM129.758 10.2578V19.1523H134.312V24.8672H129.758V33.6328H122.883V10.2578H129.758ZM129.758 34.793V44.2891H109.133V45.4062H130.961V49.832H102.215V40.25H122.883V39.2617H102.215V34.793H129.758ZM96.9297 28.9492C99.6367 28.9707 102.688 28.9707 105.867 28.9062V27.5742C101.742 26.9727 99.25 25.2109 99.25 22.4609C99.25 19.2812 103.16 17.3906 109.262 17.3906C115.32 17.3906 119.23 19.2812 119.23 22.4609C119.23 25.1895 116.781 26.9297 112.742 27.5742V28.6484C115.686 28.498 118.629 28.2617 121.422 27.918L121.895 32.0859C113.516 33.5039 104.492 33.5469 97.6172 33.5469L96.9297 28.9492ZM120.562 12.4492V16.9609H98.0039V12.4492H105.867V10L112.742 10V12.4492H120.562ZM109.262 21.5586C106.984 21.5586 105.824 21.7305 105.824 22.4609C105.824 23.2773 106.984 23.5781 109.262 23.5781C111.496 23.5781 112.613 23.2773 112.656 22.4609C112.613 21.7305 111.496 21.5586 109.262 21.5586ZM154.766 12.5352V25.7266H143.809V28.7344C148.793 28.7129 152.059 28.498 155.668 27.7891L156.27 33.2891C151.801 34.0625 147.547 34.1914 140.113 34.1914L137.02 34.1914V20.6992H147.848V17.8633H136.977V12.5352H154.766ZM169.375 10.3437V34.8359H162.5V29.5508H156.828V24.1367H162.5V21H156.828V15.5859H162.5V10.3437H169.375ZM169.375 36.3398V50.0039H162.5V41.7969H141.617V36.3398H169.375ZM191.719 10.7734C201.043 10.7734 206.371 13.1367 206.414 17.4766C206.371 21.8594 201.043 24.2227 191.719 24.2227C182.352 24.2227 176.938 21.8594 176.98 17.4766C176.938 13.1367 182.352 10.7734 191.719 10.7734ZM191.719 15.7578C186.348 15.7578 184.199 16.2734 184.199 17.4766C184.199 18.9375 186.348 19.1953 191.719 19.2383C197.133 19.1953 199.281 18.9375 199.281 17.4766C199.281 16.2734 197.133 15.7578 191.719 15.7578ZM209.852 25.5547V31.0117H173.586V25.5547L209.852 25.5547ZM205.555 32.5156V43.4727H184.371V44.7617H206.5V49.832H177.625V38.7461H198.766V37.543H177.668V32.5156H205.555ZM257.461 31.7422V37.1992H242.594V50.0469H235.762V37.1992H221.195V31.7422H257.461ZM254.324 12.1484V17.4336H243.582C244.291 20.4844 247.514 23.8145 256 24.7383L253.508 30.1094C246.268 29.2715 241.691 26.5645 239.328 22.8906C236.986 26.5645 232.453 29.2715 225.234 30.1094L222.742 24.7383C231.121 23.8145 234.344 20.4844 235.16 17.4336H224.375V12.1484L254.324 12.1484ZM291.578 20.3555V25.6836H263.477V11.6758H270.352V20.3555H291.578ZM295.488 29.207V34.5352H259.223V29.207H295.488ZM291.836 43.7305V49.2305H263.004V37.2852H269.965V43.7305H291.836Z"/>
</mask>
<path d="M33.3789 12.4492V17.9062H20.918V19.7969H32.1758V25.082H20.918V27.0156C27.0195 26.9941 31.2305 26.8867 35.8711 26.1133L36.5156 31.3984C30.9727 32.3867 25.8164 32.4297 17.5234 32.4297H14V12.4492H33.3789ZM45.4102 10.3437V33.8477H38.4922V10.3438L45.4102 10.3437ZM45.4102 35.2227V49.6602H18.2969V35.2227H45.4102ZM25.0859 40.5508V44.1602H38.6641V40.5508H25.0859ZM84.5977 10.2578V50.0039H78.0234V10.2578H84.5977ZM76.1328 10.7305V48.2852H69.6445V29.8945H67.7109C67.1309 37.7148 63.8008 42.3555 58.9023 42.3555C53.5742 42.3555 50.1367 36.7695 50.1797 27.5312C50.1367 18.3789 53.5742 12.793 58.9023 12.793C63.6504 12.793 66.916 17.1543 67.668 24.4805H69.6445V10.7305H76.1328ZM58.9023 19.3242C57.2695 19.3242 56.4531 21.6875 56.4961 27.5312C56.4531 33.418 57.2695 35.7383 58.9023 35.7383C60.5781 35.7383 61.4805 33.418 61.4805 27.5312C61.4805 21.6875 60.5781 19.3242 58.9023 19.3242ZM129.758 10.2578V19.1523H134.312V24.8672H129.758V33.6328H122.883V10.2578H129.758ZM129.758 34.793V44.2891H109.133V45.4062H130.961V49.832H102.215V40.25H122.883V39.2617H102.215V34.793H129.758ZM96.9297 28.9492C99.6367 28.9707 102.688 28.9707 105.867 28.9062V27.5742C101.742 26.9727 99.25 25.2109 99.25 22.4609C99.25 19.2812 103.16 17.3906 109.262 17.3906C115.32 17.3906 119.23 19.2812 119.23 22.4609C119.23 25.1895 116.781 26.9297 112.742 27.5742V28.6484C115.686 28.498 118.629 28.2617 121.422 27.918L121.895 32.0859C113.516 33.5039 104.492 33.5469 97.6172 33.5469L96.9297 28.9492ZM120.562 12.4492V16.9609H98.0039V12.4492H105.867V10L112.742 10V12.4492H120.562ZM109.262 21.5586C106.984 21.5586 105.824 21.7305 105.824 22.4609C105.824 23.2773 106.984 23.5781 109.262 23.5781C111.496 23.5781 112.613 23.2773 112.656 22.4609C112.613 21.7305 111.496 21.5586 109.262 21.5586ZM154.766 12.5352V25.7266H143.809V28.7344C148.793 28.7129 152.059 28.498 155.668 27.7891L156.27 33.2891C151.801 34.0625 147.547 34.1914 140.113 34.1914L137.02 34.1914V20.6992H147.848V17.8633H136.977V12.5352H154.766ZM169.375 10.3437V34.8359H162.5V29.5508H156.828V24.1367H162.5V21H156.828V15.5859H162.5V10.3437H169.375ZM169.375 36.3398V50.0039H162.5V41.7969H141.617V36.3398H169.375ZM191.719 10.7734C201.043 10.7734 206.371 13.1367 206.414 17.4766C206.371 21.8594 201.043 24.2227 191.719 24.2227C182.352 24.2227 176.938 21.8594 176.98 17.4766C176.938 13.1367 182.352 10.7734 191.719 10.7734ZM191.719 15.7578C186.348 15.7578 184.199 16.2734 184.199 17.4766C184.199 18.9375 186.348 19.1953 191.719 19.2383C197.133 19.1953 199.281 18.9375 199.281 17.4766C199.281 16.2734 197.133 15.7578 191.719 15.7578ZM209.852 25.5547V31.0117H173.586V25.5547L209.852 25.5547ZM205.555 32.5156V43.4727H184.371V44.7617H206.5V49.832H177.625V38.7461H198.766V37.543H177.668V32.5156H205.555ZM257.461 31.7422V37.1992H242.594V50.0469H235.762V37.1992H221.195V31.7422H257.461ZM254.324 12.1484V17.4336H243.582C244.291 20.4844 247.514 23.8145 256 24.7383L253.508 30.1094C246.268 29.2715 241.691 26.5645 239.328 22.8906C236.986 26.5645 232.453 29.2715 225.234 30.1094L222.742 24.7383C231.121 23.8145 234.344 20.4844 235.16 17.4336H224.375V12.1484L254.324 12.1484ZM291.578 20.3555V25.6836H263.477V11.6758H270.352V20.3555H291.578ZM295.488 29.207V34.5352H259.223V29.207H295.488ZM291.836 43.7305V49.2305H263.004V37.2852H269.965V43.7305H291.836Z" fill="#11DCA9"/>
<path d="M33.3789 12.4492L43.3789 12.4492C43.3789 6.92637 38.9018 2.44922 33.3789 2.44922V12.4492ZM33.3789 17.9062V27.9062C38.9018 27.9062 43.3789 23.4291 43.3789 17.9062H33.3789ZM20.918 17.9062V7.90625C15.3951 7.90625 10.918 12.3834 10.918 17.9062H20.918ZM20.918 19.7969H10.918C10.918 25.3197 15.3951 29.7969 20.918 29.7969V19.7969ZM32.1758 19.7969H42.1758C42.1758 14.274 37.6986 9.79688 32.1758 9.79688V19.7969ZM32.1758 25.082V35.082C37.6986 35.082 42.1758 30.6049 42.1758 25.082H32.1758ZM20.918 25.082V15.082C15.3951 15.082 10.918 19.5592 10.918 25.082H20.918ZM20.918 27.0156H10.918C10.918 29.6739 11.9764 32.2228 13.8594 34.0991C15.7423 35.9755 18.2949 37.0249 20.9532 37.0156L20.918 27.0156ZM35.8711 26.1133L45.7976 24.9027C45.4673 22.1947 44.045 19.7391 41.8603 18.1052C39.6755 16.4712 36.9181 15.8008 34.2271 16.2493L35.8711 26.1133ZM36.5156 31.3984L38.2709 41.2432C43.4974 40.3113 47.0848 35.4578 46.4421 30.1879L36.5156 31.3984ZM14 32.4297H4C4 37.9525 8.47715 42.4297 14 42.4297L14 32.4297ZM14 12.4492V2.44922C8.47715 2.44922 4 6.92637 4 12.4492H14ZM45.4102 10.3437H55.4102C55.4102 4.8209 50.933 0.34375 45.4102 0.34375V10.3437ZM45.4102 33.8477V43.8477C50.933 43.8477 55.4102 39.3705 55.4102 33.8477H45.4102ZM38.4922 33.8477H28.4922C28.4922 39.3705 32.9693 43.8477 38.4922 43.8477V33.8477ZM38.4922 10.3438V0.34375C32.9693 0.34375 28.4922 4.8209 28.4922 10.3438H38.4922ZM45.4102 35.2227H55.4102C55.4102 29.6998 50.933 25.2227 45.4102 25.2227V35.2227ZM45.4102 49.6602V59.6602C50.933 59.6602 55.4102 55.183 55.4102 49.6602H45.4102ZM18.2969 49.6602H8.29688C8.29688 55.183 12.774 59.6602 18.2969 59.6602V49.6602ZM18.2969 35.2227V25.2227C12.774 25.2227 8.29688 29.6998 8.29688 35.2227H18.2969ZM25.0859 40.5508V30.5508C19.5631 30.5508 15.0859 35.0279 15.0859 40.5508H25.0859ZM25.0859 44.1602H15.0859C15.0859 49.683 19.5631 54.1602 25.0859 54.1602V44.1602ZM38.6641 44.1602V54.1602C44.1869 54.1602 48.6641 49.683 48.6641 44.1602H38.6641ZM38.6641 40.5508H48.6641C48.6641 35.0279 44.1869 30.5508 38.6641 30.5508V40.5508ZM33.3789 12.4492H23.3789V17.9062H33.3789H43.3789V12.4492L33.3789 12.4492ZM33.3789 17.9062V7.90625H20.918V17.9062V27.9062H33.3789V17.9062ZM20.918 17.9062H10.918V19.7969H20.918H30.918V17.9062H20.918ZM20.918 19.7969V29.7969H32.1758V19.7969V9.79688H20.918V19.7969ZM32.1758 19.7969H22.1758V25.082H32.1758H42.1758V19.7969H32.1758ZM32.1758 25.082V15.082H20.918V25.082V35.082H32.1758V25.082ZM20.918 25.082H10.918V27.0156H20.918H30.918V25.082H20.918ZM20.918 27.0156L20.9532 37.0156C27.087 36.994 32.0064 36.8953 37.5151 35.9772L35.8711 26.1133L34.2271 16.2493C30.4545 16.8781 26.9521 16.9943 20.8828 17.0157L20.918 27.0156ZM35.8711 26.1133L25.9446 27.3238L26.5892 32.609L36.5156 31.3984L46.4421 30.1879L45.7976 24.9027L35.8711 26.1133ZM36.5156 31.3984L34.7604 21.5537C30.2306 22.3613 25.9584 22.4297 17.5234 22.4297V32.4297V42.4297C25.6744 42.4297 31.7147 42.4121 38.2709 41.2432L36.5156 31.3984ZM17.5234 32.4297V22.4297H14V32.4297L14 42.4297H17.5234V32.4297ZM14 32.4297H24V12.4492H14H4L4 32.4297H14ZM14 12.4492V22.4492H33.3789V12.4492V2.44922L14 2.44922V12.4492ZM45.4102 10.3437L35.4102 10.3438V33.8477H45.4102H55.4102V10.3437H45.4102ZM45.4102 33.8477V23.8477H38.4922V33.8477V43.8477H45.4102V33.8477ZM38.4922 33.8477H48.4922V10.3437L38.4922 10.3438H28.4922V33.8477H38.4922ZM38.4922 10.3438V20.3438H45.4102V10.3437V0.34375H38.4922V10.3438ZM45.4102 35.2227H35.4102V49.6602H45.4102H55.4102V35.2227H45.4102ZM45.4102 49.6602V39.6602H18.2969V49.6602V59.6602H45.4102V49.6602ZM18.2969 49.6602H28.2969V35.2227H18.2969H8.29688L8.29688 49.6602H18.2969ZM18.2969 35.2227V45.2227H45.4102V35.2227V25.2227H18.2969V35.2227ZM25.0859 40.5508H15.0859V44.1602H25.0859H35.0859V40.5508H25.0859ZM25.0859 44.1602V54.1602H38.6641V44.1602V34.1602H25.0859V44.1602ZM38.6641 44.1602H48.6641V40.5508H38.6641H28.6641V44.1602H38.6641ZM38.6641 40.5508V30.5508H25.0859V40.5508V50.5508H38.6641V40.5508ZM84.5977 10.2578H94.5977C94.5977 4.73496 90.1205 0.257812 84.5977 0.257812V10.2578ZM84.5977 50.0039V60.0039C90.1205 60.0039 94.5977 55.5268 94.5977 50.0039H84.5977ZM78.0234 50.0039H68.0234C68.0234 55.5268 72.5006 60.0039 78.0234 60.0039V50.0039ZM78.0234 10.2578V0.257812C72.5006 0.257812 68.0234 4.73496 68.0234 10.2578H78.0234ZM76.1328 10.7305H86.1328C86.1328 5.20762 81.6557 0.730469 76.1328 0.730469V10.7305ZM76.1328 48.2852V58.2852C81.6557 58.2852 86.1328 53.808 86.1328 48.2852H76.1328ZM69.6445 48.2852H59.6445C59.6445 53.808 64.1217 58.2852 69.6445 58.2852V48.2852ZM69.6445 29.8945H79.6445C79.6445 24.3717 75.1674 19.8945 69.6445 19.8945V29.8945ZM67.7109 29.8945V19.8945C62.4751 19.8945 58.1256 23.9333 57.7383 29.1548L67.7109 29.8945ZM50.1797 27.5312L60.1796 27.5778C60.1797 27.5466 60.1797 27.5155 60.1796 27.4843L50.1797 27.5312ZM67.668 24.4805L57.7202 25.5015C58.2438 30.6022 62.5405 34.4805 67.668 34.4805V24.4805ZM69.6445 24.4805V34.4805C75.1674 34.4805 79.6445 30.0033 79.6445 24.4805L69.6445 24.4805ZM69.6445 10.7305V0.730469C64.1217 0.730469 59.6445 5.20762 59.6445 10.7305H69.6445ZM56.4961 27.5312L66.4958 27.6042C66.4962 27.5554 66.4962 27.5066 66.4958 27.4577L56.4961 27.5312ZM84.5977 10.2578H74.5977V50.0039H84.5977H94.5977V10.2578H84.5977ZM84.5977 50.0039V40.0039H78.0234V50.0039V60.0039H84.5977V50.0039ZM78.0234 50.0039H88.0234V10.2578H78.0234H68.0234V50.0039H78.0234ZM78.0234 10.2578V20.2578H84.5977V10.2578V0.257812L78.0234 0.257812V10.2578ZM76.1328 10.7305H66.1328V48.2852H76.1328H86.1328V10.7305H76.1328ZM76.1328 48.2852V38.2852H69.6445V48.2852V58.2852H76.1328V48.2852ZM69.6445 48.2852H79.6445V29.8945H69.6445H59.6445V48.2852H69.6445ZM69.6445 29.8945V19.8945H67.7109V29.8945V39.8945H69.6445V29.8945ZM67.7109 29.8945L57.7383 29.1548C57.639 30.4945 57.435 31.5014 57.2175 32.2109C56.9978 32.9279 56.7991 33.2306 56.7714 33.2695C56.7569 33.2899 56.9472 33.0203 57.4332 32.7522C57.9486 32.4679 58.4912 32.3555 58.9023 32.3555V42.3555V52.3555C64.9914 52.3555 69.9319 49.2818 73.0806 44.8457C76.0059 40.7245 77.3125 35.637 77.6835 30.6343L67.7109 29.8945ZM58.9023 42.3555V32.3555C59.3964 32.3555 60.0236 32.5078 60.5784 32.8539C61.0841 33.1693 61.2096 33.4436 61.1177 33.2894C60.8536 32.8461 60.163 31.1427 60.1796 27.5778L50.1797 27.5312L40.1798 27.4847C40.1534 33.158 41.1601 38.8668 43.936 43.5261C46.9261 48.5448 52.1085 52.3555 58.9023 52.3555V42.3555ZM50.1797 27.5312L60.1796 27.4843C60.1631 23.9767 60.8487 22.298 61.1082 21.8643C61.1984 21.7135 61.0728 21.9855 60.5707 22.298C60.0199 22.6409 59.3961 22.793 58.9023 22.793V12.793V2.79297C52.1151 2.79297 46.9367 6.59624 43.9455 11.5957C41.165 16.243 40.1533 21.9334 40.1798 27.5782L50.1797 27.5312ZM58.9023 12.793V22.793C58.5068 22.793 57.984 22.6889 57.4795 22.421C57.0003 22.1665 56.7923 21.9009 56.7824 21.8877C56.7809 21.8857 56.8262 21.946 56.9003 22.0919C56.9744 22.2378 57.0711 22.4572 57.1746 22.7636C57.3848 23.3858 57.5955 24.2859 57.7202 25.5015L67.668 24.4805L77.6157 23.4594C77.1266 18.6937 75.7345 13.8255 72.785 9.89112C69.6159 5.66382 64.7793 2.79297 58.9023 2.79297V12.793ZM67.668 24.4805V34.4805H69.6445V24.4805V14.4805H67.668V24.4805ZM69.6445 24.4805L79.6445 24.4805V10.7305H69.6445H59.6445V24.4805H69.6445ZM69.6445 10.7305V20.7305L76.1328 20.7305V10.7305V0.730469H69.6445V10.7305ZM58.9023 19.3242V9.32422C55.7429 9.32422 52.823 10.6002 50.6765 12.7987C48.8187 14.7013 47.9496 16.8634 47.5055 18.3201C46.6363 21.1711 46.4735 24.4999 46.4964 27.6048L56.4961 27.5312L66.4958 27.4577C66.4867 26.2131 66.5254 25.3173 66.5823 24.6999C66.6428 24.0423 66.7038 23.9306 66.6361 24.1526C66.5949 24.288 66.2333 25.494 64.9865 26.7709C64.3111 27.4626 63.4008 28.146 62.2472 28.6373C61.0893 29.1306 59.935 29.3242 58.9023 29.3242V19.3242ZM56.4961 27.5312L46.4964 27.4583C46.4736 30.5746 46.6346 33.9138 47.5088 36.7694C47.9569 38.2334 48.8353 40.4047 50.7142 42.3084C52.8833 44.506 55.7974 45.7383 58.9023 45.7383V35.7383V25.7383C59.9109 25.7383 61.0491 25.9238 62.1995 26.4067C63.3481 26.889 64.2632 27.5645 64.9487 28.2592C66.2167 29.5438 66.5875 30.7671 66.6328 30.9151C66.7038 31.1471 66.643 31.0426 66.5824 30.3825C66.5256 29.7634 66.4866 28.8619 66.4958 27.6042L56.4961 27.5312ZM58.9023 35.7383V45.7383C61.9234 45.7383 64.7832 44.5797 66.9616 42.4744C68.8767 40.6236 69.8181 38.4825 70.3144 36.9813C71.2749 34.0761 71.4805 30.6888 71.4805 27.5312H61.4805H51.4805C51.4805 28.7694 51.432 29.6487 51.369 30.2432C51.3018 30.8771 51.2413 30.9572 51.3253 30.7033C51.3865 30.518 51.7881 29.3249 53.0627 28.0931C53.7452 27.4335 54.6386 26.8046 55.7405 26.3583C56.8432 25.9118 57.932 25.7383 58.9023 25.7383V35.7383ZM61.4805 27.5312H71.4805C71.4805 24.3851 71.273 21.0088 70.3182 18.1088C69.8265 16.6155 68.8949 14.4827 67.0003 12.6317C64.8427 10.5239 61.9759 9.32422 58.9023 9.32422V19.3242V29.3242C57.9087 29.3242 56.8041 29.1431 55.6937 28.6868C54.5864 28.2318 53.697 27.5953 53.024 26.9379C51.7699 25.7127 51.3781 24.5359 51.3215 24.3638C51.2412 24.1202 51.3021 24.2077 51.3692 24.8394C51.4322 25.4324 51.4805 26.3062 51.4805 27.5312H61.4805ZM129.758 10.2578H139.758C139.758 4.73496 135.281 0.257812 129.758 0.257812V10.2578ZM129.758 19.1523H119.758C119.758 24.6752 124.235 29.1523 129.758 29.1523V19.1523ZM134.312 19.1523H144.312C144.312 13.6295 139.835 9.15234 134.312 9.15234V19.1523ZM134.312 24.8672V34.8672C139.835 34.8672 144.312 30.39 144.312 24.8672H134.312ZM129.758 24.8672V14.8672C124.235 14.8672 119.758 19.3443 119.758 24.8672H129.758ZM129.758 33.6328V43.6328C135.281 43.6328 139.758 39.1557 139.758 33.6328L129.758 33.6328ZM122.883 33.6328H112.883C112.883 39.1557 117.36 43.6328 122.883 43.6328V33.6328ZM122.883 10.2578V0.257812C117.36 0.257812 112.883 4.73496 112.883 10.2578H122.883ZM129.758 34.793L139.758 34.793C139.758 29.2701 135.281 24.793 129.758 24.793V34.793ZM129.758 44.2891V54.2891C135.281 54.2891 139.758 49.8119 139.758 44.2891L129.758 44.2891ZM109.133 44.2891V34.2891C103.61 34.2891 99.1328 38.7662 99.1328 44.2891H109.133ZM109.133 45.4062H99.1328C99.1328 50.9291 103.61 55.4062 109.133 55.4062V45.4062ZM130.961 45.4062L140.961 45.4062C140.961 39.8834 136.484 35.4062 130.961 35.4062V45.4062ZM130.961 49.832V59.832C136.484 59.832 140.961 55.3549 140.961 49.832L130.961 49.832ZM102.215 49.832H92.2148C92.2148 55.3549 96.692 59.832 102.215 59.832V49.832ZM102.215 40.25V30.25C96.692 30.25 92.2148 34.7272 92.2148 40.25H102.215ZM122.883 40.25V50.25C128.406 50.25 132.883 45.7728 132.883 40.25H122.883ZM122.883 39.2617H132.883C132.883 33.7389 128.406 29.2617 122.883 29.2617V39.2617ZM102.215 39.2617H92.2148C92.2148 44.7846 96.692 49.2617 102.215 49.2617V39.2617ZM102.215 34.793V24.793C96.692 24.793 92.2148 29.2701 92.2148 34.793H102.215ZM96.9297 28.9492L97.009 18.9495C94.085 18.9263 91.2972 20.1842 89.3797 22.3919C87.4623 24.5997 86.6072 27.5361 87.0396 30.4281L96.9297 28.9492ZM105.867 28.9062L106.07 38.9042C111.513 38.7939 115.867 34.3501 115.867 28.9062H105.867ZM105.867 27.5742H115.867C115.867 22.6088 112.224 18.3954 107.31 17.6789L105.867 27.5742ZM112.742 27.5742L111.166 17.6992C106.313 18.4736 102.742 22.6597 102.742 27.5742H112.742ZM112.742 28.6484H102.742C102.742 31.3892 103.867 34.0098 105.854 35.8977C107.841 37.7856 110.515 38.7753 113.252 38.6354L112.742 28.6484ZM121.422 27.918L131.358 26.7912C131.057 24.1395 129.709 21.718 127.614 20.0655C125.518 18.4131 122.849 17.6669 120.2 17.9929L121.422 27.918ZM121.895 32.0859L123.563 41.9457C128.799 41.0597 132.429 36.2357 131.831 30.9591L121.895 32.0859ZM97.6172 33.5469L87.7271 35.0258C88.4594 39.923 92.6655 43.5469 97.6172 43.5469V33.5469ZM120.562 12.4492H130.562C130.562 6.92637 126.085 2.44922 120.562 2.44922V12.4492ZM120.562 16.9609V26.9609C126.085 26.9609 130.562 22.4838 130.562 16.9609H120.562ZM98.0039 16.9609H88.0039C88.0039 22.4838 92.4811 26.9609 98.0039 26.9609V16.9609ZM98.0039 12.4492V2.44922C92.4811 2.44922 88.0039 6.92637 88.0039 12.4492H98.0039ZM105.867 12.4492V22.4492C111.39 22.4492 115.867 17.9721 115.867 12.4492L105.867 12.4492ZM105.867 10V0C100.344 0 95.8672 4.47715 95.8672 10H105.867ZM112.742 10H122.742C122.742 4.47715 118.265 0 112.742 0V10ZM112.742 12.4492L102.742 12.4492C102.742 17.9721 107.219 22.4492 112.742 22.4492V12.4492ZM112.656 22.4609L122.642 22.9865C122.662 22.6158 122.661 22.2443 122.639 21.8737L112.656 22.4609ZM129.758 10.2578H119.758V19.1523H129.758H139.758V10.2578H129.758ZM129.758 19.1523V29.1523H134.312V19.1523V9.15234H129.758V19.1523ZM134.312 19.1523H124.312V24.8672H134.312H144.312V19.1523H134.312ZM134.312 24.8672V14.8672H129.758V24.8672V34.8672H134.312V24.8672ZM129.758 24.8672H119.758V33.6328H129.758L139.758 33.6328V24.8672H129.758ZM129.758 33.6328V23.6328H122.883V33.6328V43.6328H129.758V33.6328ZM122.883 33.6328H132.883V10.2578H122.883H112.883V33.6328H122.883ZM122.883 10.2578V20.2578H129.758V10.2578V0.257812H122.883V10.2578ZM129.758 34.793H119.758V44.2891H129.758L139.758 44.2891V34.793L129.758 34.793ZM129.758 44.2891V34.2891H109.133V44.2891V54.2891H129.758V44.2891ZM109.133 44.2891H99.1328V45.4062H109.133H119.133V44.2891H109.133ZM109.133 45.4062V55.4062H130.961V45.4062V35.4062H109.133V45.4062ZM130.961 45.4062H120.961V49.832H130.961L140.961 49.832V45.4062L130.961 45.4062ZM130.961 49.832V39.832H102.215V49.832V59.832H130.961V49.832ZM102.215 49.832H112.215V40.25H102.215H92.2148V49.832H102.215ZM102.215 40.25V50.25H122.883V40.25V30.25H102.215V40.25ZM122.883 40.25H132.883V39.2617H122.883H112.883V40.25H122.883ZM122.883 39.2617V29.2617H102.215V39.2617V49.2617H122.883V39.2617ZM102.215 39.2617H112.215V34.793H102.215H92.2148V39.2617H102.215ZM102.215 34.793V44.793H129.758V34.793V24.793H102.215V34.793ZM96.9297 28.9492L96.8503 38.9489C99.6138 38.9708 102.765 38.9712 106.07 38.9042L105.867 28.9062L105.665 18.9083C102.61 18.9702 99.6596 18.9706 97.009 18.9495L96.9297 28.9492ZM105.867 28.9062H115.867V27.5742H105.867H95.8672V28.9062H105.867ZM105.867 27.5742L107.31 17.6789C106.159 17.5109 106.334 17.3117 107.036 17.8414C107.451 18.1551 108.051 18.7322 108.536 19.6449C109.036 20.5876 109.25 21.5816 109.25 22.4609H99.25H89.25C89.25 27.3511 91.6632 31.2961 94.9876 33.8051C97.9667 36.0535 101.451 37.0359 104.424 37.4695L105.867 27.5742ZM99.25 22.4609H109.25C109.25 23.859 108.776 25.2197 107.996 26.2746C107.295 27.2219 106.593 27.601 106.44 27.6777C106.279 27.7583 106.401 27.6693 106.945 27.5683C107.468 27.4714 108.236 27.3906 109.262 27.3906V17.3906V7.39062C105.392 7.39062 101.158 7.95776 97.4956 9.78913C93.6136 11.7301 89.25 15.8664 89.25 22.4609H99.25ZM109.262 17.3906V27.3906C110.273 27.3906 111.03 27.4708 111.545 27.5667C112.081 27.6666 112.198 27.7541 112.035 27.6721C111.879 27.5942 111.18 27.2144 110.481 26.269C109.704 25.2167 109.23 23.8585 109.23 22.4609H119.23H129.23C129.23 15.8725 124.874 11.7371 121.001 9.79467C117.344 7.96024 113.118 7.39062 109.262 7.39062V17.3906ZM119.23 22.4609H109.23C109.23 21.5914 109.44 20.6058 109.933 19.6677C110.411 18.759 111.003 18.1805 111.416 17.8636C112.112 17.3295 112.297 17.5187 111.166 17.6992L112.742 27.5742L114.318 37.4493C117.226 36.9852 120.655 35.982 123.586 33.7345C126.861 31.2232 129.23 27.3062 129.23 22.4609H119.23ZM112.742 27.5742H102.742V28.6484H112.742H122.742V27.5742H112.742ZM112.742 28.6484L113.252 38.6354C116.381 38.4756 119.567 38.2217 122.643 37.8431L121.422 27.918L120.2 17.9929C117.691 18.3017 114.99 18.5205 112.232 18.6615L112.742 28.6484ZM121.422 27.918L111.486 29.0448L111.958 33.2127L121.895 32.0859L131.831 30.9591L131.358 26.7912L121.422 27.918ZM121.895 32.0859L120.226 22.2261C112.791 23.4843 104.57 23.5469 97.6172 23.5469V33.5469V43.5469C104.415 43.5469 114.24 43.5235 123.563 41.9457L121.895 32.0859ZM97.6172 33.5469L107.507 32.068L106.82 27.4703L96.9297 28.9492L87.0396 30.4281L87.7271 35.0258L97.6172 33.5469ZM120.562 12.4492H110.562V16.9609H120.562H130.562V12.4492H120.562ZM120.562 16.9609V6.96094L98.0039 6.96094V16.9609V26.9609H120.562V16.9609ZM98.0039 16.9609H108.004V12.4492L98.0039 12.4492H88.0039V16.9609H98.0039ZM98.0039 12.4492V22.4492H105.867V12.4492V2.44922H98.0039V12.4492ZM105.867 12.4492L115.867 12.4492V10L105.867 10H95.8672V12.4492H105.867ZM105.867 10V20H112.742V10V0H105.867V10ZM112.742 10L102.742 10V12.4492L112.742 12.4492H122.742V10H112.742ZM112.742 12.4492V22.4492H120.562V12.4492V2.44922H112.742V12.4492ZM109.262 21.5586V11.5586C108.187 11.5586 106.251 11.5689 104.414 11.9981C103.508 12.2098 101.558 12.7498 99.6853 14.2914C97.3533 16.2112 95.8242 19.1378 95.8242 22.4609H105.824H115.824C115.824 23.7361 115.56 25.1652 114.877 26.5749C114.2 27.9711 113.277 29.0073 112.397 29.7321C110.813 31.0361 109.296 31.3961 108.964 31.4736C108.276 31.6343 108.059 31.5586 109.262 31.5586V21.5586ZM105.824 22.4609H95.8242C95.8242 25.3567 96.9798 28.0794 99.0031 30.084C100.738 31.8023 102.649 32.5444 103.742 32.8815C105.845 33.5303 107.99 33.5781 109.262 33.5781V23.5781V13.5781C108.256 13.5781 108.682 13.4756 109.636 13.7698C110.155 13.9297 111.633 14.4435 113.079 15.8759C114.814 17.5944 115.824 19.9734 115.824 22.4609H105.824ZM109.262 23.5781V33.5781C110.522 33.5781 112.665 33.5302 114.779 32.8656C115.898 32.5138 117.742 31.7701 119.427 30.1165C121.35 28.2283 122.5 25.7009 122.642 22.9865L112.656 22.4609L102.67 21.9353C102.791 19.6292 103.785 17.4455 105.417 15.8434C106.81 14.4757 108.227 13.9603 108.782 13.7857C109.769 13.4757 110.236 13.5781 109.262 13.5781V23.5781ZM112.656 22.4609L122.639 21.8737C122.456 18.7633 120.952 16.0648 118.743 14.2627C116.92 12.7759 115.035 12.2312 114.097 12.0078C112.25 11.5681 110.319 11.5586 109.262 11.5586V21.5586V31.5586C110.439 31.5586 110.183 31.635 109.465 31.4639C109.09 31.3748 107.633 31.01 106.101 29.7609C104.183 28.1964 102.835 25.7934 102.674 23.0482L112.656 22.4609ZM154.766 12.5352H164.766C164.766 7.01231 160.288 2.53516 154.766 2.53516V12.5352ZM154.766 25.7266V35.7266C160.288 35.7266 164.766 31.2494 164.766 25.7266H154.766ZM143.809 25.7266V15.7266C138.286 15.7266 133.809 20.2037 133.809 25.7266H143.809ZM143.809 28.7344H133.809C133.809 31.394 134.868 33.9441 136.753 35.8207C138.637 37.6973 141.192 38.7457 143.852 38.7343L143.809 28.7344ZM155.668 27.7891L165.609 26.7018C165.304 23.9186 163.847 21.3905 161.591 19.7321C159.335 18.0737 156.488 17.4369 153.741 17.9766L155.668 27.7891ZM156.27 33.2891L157.975 43.1426C163.178 42.242 166.784 37.4511 166.21 32.2018L156.27 33.2891ZM137.02 34.1914H127.02C127.02 39.7143 131.497 44.1914 137.02 44.1914V34.1914ZM137.02 20.6992V10.6992C131.497 10.6992 127.02 15.1764 127.02 20.6992H137.02ZM147.848 20.6992V30.6992C153.37 30.6992 157.848 26.2221 157.848 20.6992H147.848ZM147.848 17.8633H157.848C157.848 12.3404 153.37 7.86328 147.848 7.86328V17.8633ZM136.977 17.8633H126.977C126.977 23.3861 131.454 27.8633 136.977 27.8633V17.8633ZM136.977 12.5352V2.53516C131.454 2.53516 126.977 7.01231 126.977 12.5352H136.977ZM169.375 10.3437L179.375 10.3437C179.375 4.8209 174.898 0.34375 169.375 0.34375V10.3437ZM169.375 34.8359V44.8359C174.898 44.8359 179.375 40.3588 179.375 34.8359H169.375ZM162.5 34.8359H152.5C152.5 40.3588 156.977 44.8359 162.5 44.8359V34.8359ZM162.5 29.5508H172.5C172.5 24.0279 168.023 19.5508 162.5 19.5508V29.5508ZM156.828 29.5508H146.828C146.828 35.0736 151.305 39.5508 156.828 39.5508V29.5508ZM156.828 24.1367V14.1367C151.305 14.1367 146.828 18.6139 146.828 24.1367H156.828ZM162.5 24.1367V34.1367C168.023 34.1367 172.5 29.6596 172.5 24.1367H162.5ZM162.5 21H172.5C172.5 15.4772 168.023 11 162.5 11V21ZM156.828 21H146.828C146.828 26.5228 151.305 31 156.828 31V21ZM156.828 15.5859V5.58594C151.305 5.58594 146.828 10.0631 146.828 15.5859H156.828ZM162.5 15.5859V25.5859C168.023 25.5859 172.5 21.1088 172.5 15.5859H162.5ZM162.5 10.3437V0.34375C156.977 0.34375 152.5 4.8209 152.5 10.3437H162.5ZM169.375 36.3398H179.375C179.375 30.817 174.898 26.3398 169.375 26.3398V36.3398ZM169.375 50.0039V60.0039C174.898 60.0039 179.375 55.5268 179.375 50.0039H169.375ZM162.5 50.0039H152.5C152.5 55.5268 156.977 60.0039 162.5 60.0039V50.0039ZM162.5 41.7969H172.5C172.5 36.274 168.023 31.7969 162.5 31.7969V41.7969ZM141.617 41.7969L131.617 41.7969C131.617 47.3197 136.094 51.7969 141.617 51.7969V41.7969ZM141.617 36.3398V26.3398C136.094 26.3398 131.617 30.817 131.617 36.3398L141.617 36.3398ZM154.766 12.5352H144.766V25.7266H154.766H164.766V12.5352H154.766ZM154.766 25.7266V15.7266H143.809V25.7266V35.7266H154.766V25.7266ZM143.809 25.7266H133.809V28.7344H143.809H153.809V25.7266H143.809ZM143.809 28.7344L143.852 38.7343C149.13 38.7115 153.104 38.4838 157.595 37.6016L155.668 27.7891L153.741 17.9766C151.013 18.5123 148.456 18.7143 143.765 18.7345L143.809 28.7344ZM155.668 27.7891L145.727 28.8763L146.329 34.3763L156.27 33.2891L166.21 32.2018L165.609 26.7018L155.668 27.7891ZM156.27 33.2891L154.564 23.4356C151.028 24.0476 147.543 24.1914 140.113 24.1914V34.1914V44.1914C147.551 44.1914 152.574 44.0774 157.975 43.1426L156.27 33.2891ZM140.113 34.1914V24.1914H137.02V34.1914V44.1914L140.113 44.1914V34.1914ZM137.02 34.1914L147.02 34.1914V20.6992H137.02H127.02V34.1914H137.02ZM137.02 20.6992V30.6992L147.848 30.6992V20.6992V10.6992H137.02V20.6992ZM147.848 20.6992H157.848V17.8633H147.848H137.848V20.6992H147.848ZM147.848 17.8633V7.86328H136.977V17.8633V27.8633H147.848V17.8633ZM136.977 17.8633H146.977V12.5352H136.977H126.977V17.8633H136.977ZM136.977 12.5352V22.5352H154.766V12.5352V2.53516H136.977V12.5352ZM169.375 10.3437H159.375V34.8359H169.375H179.375V10.3437L169.375 10.3437ZM169.375 34.8359V24.8359H162.5V34.8359V44.8359H169.375V34.8359ZM162.5 34.8359H172.5V29.5508H162.5H152.5V34.8359H162.5ZM162.5 29.5508V19.5508H156.828V29.5508V39.5508H162.5V29.5508ZM156.828 29.5508H166.828V24.1367H156.828H146.828V29.5508H156.828ZM156.828 24.1367V34.1367H162.5V24.1367V14.1367H156.828V24.1367ZM162.5 24.1367H172.5V21H162.5H152.5V24.1367H162.5ZM162.5 21V11H156.828V21V31H162.5V21ZM156.828 21H166.828V15.5859H156.828H146.828V21H156.828ZM156.828 15.5859V25.5859H162.5V15.5859V5.58594H156.828V15.5859ZM162.5 15.5859H172.5V10.3437L162.5 10.3437H152.5V15.5859H162.5ZM162.5 10.3437V20.3437H169.375V10.3437V0.34375L162.5 0.34375V10.3437ZM169.375 36.3398H159.375V50.0039H169.375H179.375V36.3398H169.375ZM169.375 50.0039V40.0039H162.5V50.0039V60.0039H169.375V50.0039ZM162.5 50.0039H172.5V41.7969H162.5H152.5V50.0039H162.5ZM162.5 41.7969V31.7969H141.617V41.7969V51.7969H162.5V41.7969ZM141.617 41.7969H151.617V36.3398H141.617L131.617 36.3398V41.7969L141.617 41.7969ZM141.617 36.3398V46.3398H169.375V36.3398V26.3398H141.617V36.3398ZM206.414 17.4766L216.414 17.5746C216.414 17.5089 216.414 17.4432 216.414 17.3776L206.414 17.4766ZM176.98 17.4766L186.98 17.5746C186.981 17.5089 186.981 17.4432 186.98 17.3776L176.98 17.4766ZM191.719 19.2383L191.639 29.238C191.692 29.2384 191.745 29.2384 191.798 29.238L191.719 19.2383ZM209.852 25.5547H219.852C219.852 20.0318 215.374 15.5547 209.852 15.5547V25.5547ZM209.852 31.0117V41.0117C215.374 41.0117 219.852 36.5346 219.852 31.0117H209.852ZM173.586 31.0117H163.586C163.586 36.5346 168.063 41.0117 173.586 41.0117V31.0117ZM173.586 25.5547V15.5547C168.063 15.5547 163.586 20.0318 163.586 25.5547H173.586ZM205.555 32.5156H215.555C215.555 26.9928 211.078 22.5156 205.555 22.5156V32.5156ZM205.555 43.4727V53.4727C211.078 53.4727 215.555 48.9955 215.555 43.4727H205.555ZM184.371 43.4727V33.4727C178.848 33.4727 174.371 37.9498 174.371 43.4727H184.371ZM184.371 44.7617H174.371C174.371 50.2846 178.848 54.7617 184.371 54.7617V44.7617ZM206.5 44.7617H216.5C216.5 39.2389 212.023 34.7617 206.5 34.7617V44.7617ZM206.5 49.832V59.832C212.023 59.832 216.5 55.3549 216.5 49.832H206.5ZM177.625 49.832H167.625C167.625 55.3549 172.102 59.832 177.625 59.832V49.832ZM177.625 38.7461V28.7461C172.102 28.7461 167.625 33.2232 167.625 38.7461H177.625ZM198.766 38.7461V48.7461C204.288 48.7461 208.766 44.2689 208.766 38.7461H198.766ZM198.766 37.543H208.766C208.766 32.0201 204.288 27.543 198.766 27.543V37.543ZM177.668 37.543H167.668C167.668 43.0658 172.145 47.543 177.668 47.543V37.543ZM177.668 32.5156V22.5156C172.145 22.5156 167.668 26.9928 167.668 32.5156H177.668ZM191.719 10.7734V20.7734C193.647 20.7734 195.186 20.897 196.365 21.0853C197.57 21.2778 198.2 21.5068 198.422 21.6072C198.653 21.7116 198.144 21.5382 197.537 20.7628C196.829 19.8581 196.426 18.6866 196.415 17.5756L206.414 17.4766L216.414 17.3776C216.341 10.0439 211.391 5.52457 206.672 3.38788C202.284 1.40137 196.972 0.773437 191.719 0.773437V10.7734ZM206.414 17.4766L196.415 17.3785C196.425 16.3019 196.813 15.1464 197.515 14.2429C198.119 13.4662 198.629 13.2894 198.406 13.3908C198.189 13.4893 197.564 13.7181 196.361 13.9107C195.185 14.099 193.648 14.2227 191.719 14.2227V24.2227V34.2227C196.969 34.2227 202.291 33.5957 206.688 31.5955C211.442 29.4327 216.342 24.8877 216.414 17.5746L206.414 17.4766ZM191.719 24.2227V14.2227C189.777 14.2227 188.222 14.0988 187.028 13.909C185.806 13.7146 185.166 13.4831 184.94 13.3809C184.702 13.2733 185.233 13.4539 185.859 14.2626C186.593 15.2122 186.991 16.4346 186.98 17.5746L176.98 17.4766L166.981 17.3785C166.908 24.866 171.964 29.4637 176.702 31.6055C181.107 33.5969 186.453 34.2227 191.719 34.2227V24.2227ZM176.98 17.4766L186.98 17.3776C186.992 18.553 186.578 19.7923 185.837 20.743C185.208 21.5505 184.678 21.7276 184.924 21.6171C185.155 21.513 185.8 21.2813 187.025 21.087C188.221 20.8972 189.778 20.7734 191.719 20.7734V10.7734V0.773437C186.45 0.773437 181.114 1.4001 176.718 3.37798C172.017 5.49313 166.907 10.0654 166.981 17.5756L176.98 17.4766ZM191.719 15.7578V5.75781C188.97 5.75781 186.1 5.86653 183.693 6.42283C182.537 6.68996 180.494 7.27045 178.556 8.74784C176.182 10.5581 174.199 13.594 174.199 17.4766H184.199H194.199C194.199 18.8821 193.868 20.3776 193.117 21.7795C192.389 23.1379 191.453 24.0648 190.682 24.653C189.935 25.2222 189.276 25.5273 188.907 25.6766C188.525 25.8307 188.263 25.8938 188.197 25.9092C188.093 25.9332 188.292 25.8808 188.978 25.8326C189.625 25.7872 190.518 25.7578 191.719 25.7578V15.7578ZM184.199 17.4766H174.199C174.199 20.7818 175.637 23.9638 178.338 26.1439C180.461 27.857 182.745 28.4365 183.9 28.6779C186.255 29.1699 189.163 29.2182 191.639 29.238L191.719 19.2383L191.799 9.2386C190.503 9.22823 189.549 9.20544 188.831 9.16566C188.063 9.12307 187.869 9.07535 187.99 9.10044C188.071 9.11742 188.389 9.18705 188.843 9.36652C189.29 9.54372 190.059 9.90189 190.899 10.5803C191.787 11.2972 192.698 12.3283 193.348 13.7077C193.994 15.0794 194.199 16.4054 194.199 17.4766H184.199ZM191.719 19.2383L191.798 29.238C194.294 29.2182 197.21 29.1698 199.566 28.6797C200.721 28.4395 203.007 27.8625 205.132 26.1511C207.841 23.9703 209.281 20.7842 209.281 17.4766L199.281 17.4766H189.281C189.281 16.4054 189.486 15.0776 190.134 13.7035C190.786 12.3215 191.7 11.2896 192.59 10.5731C193.431 9.89526 194.2 9.53827 194.647 9.36222C195.099 9.18384 195.415 9.11504 195.494 9.09864C195.61 9.07464 195.41 9.12274 194.634 9.16547C193.91 9.2054 192.947 9.22822 191.639 9.2386L191.719 19.2383ZM199.281 17.4766L209.281 17.4766C209.281 13.5907 207.296 10.5518 204.915 8.74098C202.974 7.26499 200.928 6.68659 199.773 6.42065C197.364 5.86644 194.486 5.75781 191.719 5.75781V15.7578V25.7578C192.932 25.7578 193.834 25.7873 194.489 25.833C195.183 25.8813 195.388 25.9343 195.288 25.9114C195.224 25.8966 194.963 25.8342 194.583 25.681C194.214 25.5327 193.555 25.2286 192.807 24.6599C192.034 24.072 191.096 23.1446 190.366 21.7839C189.613 20.3796 189.281 18.8823 189.281 17.4766H199.281ZM209.852 25.5547L199.852 25.5547V31.0117H209.852H219.852V25.5547H209.852ZM209.852 31.0117V21.0117L173.586 21.0117V31.0117V41.0117H209.852V31.0117ZM173.586 31.0117H183.586V25.5547H173.586H163.586V31.0117H173.586ZM173.586 25.5547V35.5547H209.852V25.5547V15.5547L173.586 15.5547V25.5547ZM205.555 32.5156H195.555V43.4727H205.555H215.555V32.5156H205.555ZM205.555 43.4727V33.4727H184.371V43.4727V53.4727H205.555V43.4727ZM184.371 43.4727H174.371V44.7617H184.371H194.371V43.4727H184.371ZM184.371 44.7617V54.7617H206.5V44.7617V34.7617H184.371V44.7617ZM206.5 44.7617H196.5V49.832H206.5H216.5V44.7617H206.5ZM206.5 49.832V39.832H177.625V49.832V59.832H206.5V49.832ZM177.625 49.832H187.625V38.7461H177.625H167.625V49.832H177.625ZM177.625 38.7461V48.7461H198.766V38.7461V28.7461H177.625V38.7461ZM198.766 38.7461H208.766V37.543H198.766H188.766V38.7461H198.766ZM198.766 37.543V27.543H177.668V37.543V47.543H198.766V37.543ZM177.668 37.543H187.668V32.5156H177.668H167.668V37.543H177.668ZM177.668 32.5156V42.5156H205.555V32.5156V22.5156L177.668 22.5156V32.5156ZM257.461 31.7422H267.461C267.461 26.2193 262.984 21.7422 257.461 21.7422V31.7422ZM257.461 37.1992V47.1992C262.984 47.1992 267.461 42.7221 267.461 37.1992H257.461ZM242.594 37.1992V27.1992C237.071 27.1992 232.594 31.6764 232.594 37.1992H242.594ZM242.594 50.0469V60.0469C248.117 60.0469 252.594 55.5697 252.594 50.0469H242.594ZM235.762 50.0469H225.762C225.762 55.5697 230.239 60.0469 235.762 60.0469V50.0469ZM235.762 37.1992H245.762C245.762 31.6764 241.285 27.1992 235.762 27.1992V37.1992ZM221.195 37.1992H211.195C211.195 42.7221 215.672 47.1992 221.195 47.1992V37.1992ZM221.195 31.7422V21.7422C215.672 21.7422 211.195 26.2193 211.195 31.7422H221.195ZM254.324 12.1484H264.324C264.324 6.62559 259.847 2.14844 254.324 2.14844V12.1484ZM254.324 17.4336V27.4336C259.847 27.4336 264.324 22.9564 264.324 17.4336H254.324ZM243.582 17.4336V7.43359C240.532 7.43359 237.648 8.82566 235.751 11.2141C233.854 13.6026 233.151 16.7262 233.842 19.6972L243.582 17.4336ZM256 24.7383L265.071 28.9473C266.427 26.0246 266.292 22.6276 264.708 19.822C263.124 17.0163 260.285 15.1457 257.082 14.797L256 24.7383ZM253.508 30.1094L252.358 40.0431C256.643 40.539 260.763 38.2313 262.579 34.3184L253.508 30.1094ZM239.328 22.8906L247.738 17.4806C245.894 14.6136 242.716 12.8836 239.307 12.8906C235.898 12.8977 232.728 14.6409 230.896 17.5155L239.328 22.8906ZM225.234 30.1094L216.163 34.3184C217.979 38.2324 222.101 40.5402 226.387 40.0427L225.234 30.1094ZM222.742 24.7383L221.646 14.7985C218.446 15.1513 215.612 17.0233 214.031 19.828C212.45 22.6326 212.316 26.0268 213.671 28.9473L222.742 24.7383ZM235.16 17.4336L244.82 20.0187C245.624 17.016 244.985 13.8104 243.093 11.3447C241.2 8.879 238.268 7.43359 235.16 7.43359V17.4336ZM224.375 17.4336H214.375C214.375 22.9564 218.852 27.4336 224.375 27.4336V17.4336ZM224.375 12.1484V2.14844C218.852 2.14844 214.375 6.62559 214.375 12.1484H224.375ZM257.461 31.7422H247.461V37.1992H257.461H267.461V31.7422H257.461ZM257.461 37.1992V27.1992H242.594V37.1992V47.1992H257.461V37.1992ZM242.594 37.1992H232.594V50.0469H242.594H252.594V37.1992H242.594ZM242.594 50.0469V40.0469H235.762V50.0469V60.0469H242.594V50.0469ZM235.762 50.0469H245.762V37.1992H235.762H225.762V50.0469H235.762ZM235.762 37.1992V27.1992H221.195V37.1992V47.1992H235.762V37.1992ZM221.195 37.1992H231.195V31.7422H221.195H211.195V37.1992H221.195ZM221.195 31.7422V41.7422H257.461V31.7422V21.7422H221.195V31.7422ZM254.324 12.1484H244.324V17.4336H254.324H264.324V12.1484H254.324ZM254.324 17.4336V7.43359H243.582V17.4336V27.4336H254.324V17.4336ZM243.582 17.4336L233.842 19.6972C235.943 28.7397 244.475 33.5428 254.918 34.6796L256 24.7383L257.082 14.797C253.901 14.4507 252.695 13.7486 252.497 13.6141C252.423 13.5636 252.578 13.6545 252.792 13.9579C253.009 14.2644 253.208 14.6775 253.322 15.17L243.582 17.4336ZM256 24.7383L246.929 20.5293L244.437 25.9004L253.508 30.1094L262.579 34.3184L265.071 28.9473L256 24.7383ZM253.508 30.1094L254.657 20.1757C249.285 19.5539 247.961 17.827 247.738 17.4806L239.328 22.8906L230.918 28.3007C235.422 35.3019 243.251 38.9891 252.358 40.0431L253.508 30.1094ZM239.328 22.8906L230.896 17.5155C230.684 17.8473 229.41 19.5576 224.081 20.1761L225.234 30.1094L226.387 40.0427C235.496 38.9854 243.289 35.2816 247.761 28.2658L239.328 22.8906ZM225.234 30.1094L234.305 25.9004L231.813 20.5293L222.742 24.7383L213.671 28.9473L216.163 34.3184L225.234 30.1094ZM222.742 24.7383L223.838 34.678C234.365 33.5173 242.508 28.6585 244.82 20.0187L235.16 17.4336L225.5 14.8485C225.607 14.4473 225.777 14.1112 225.958 13.8624C226.137 13.6146 226.255 13.5524 226.164 13.6141C225.944 13.7641 224.748 14.4565 221.646 14.7985L222.742 24.7383ZM235.16 17.4336V7.43359L224.375 7.43359V17.4336V27.4336H235.16V17.4336ZM224.375 17.4336H234.375V12.1484H224.375H214.375V17.4336H224.375ZM224.375 12.1484V22.1484H254.324V12.1484V2.14844L224.375 2.14844V12.1484ZM291.578 20.3555H301.578C301.578 14.8326 297.101 10.3555 291.578 10.3555V20.3555ZM291.578 25.6836V35.6836C297.101 35.6836 301.578 31.2064 301.578 25.6836H291.578ZM263.477 25.6836H253.477C253.477 31.2064 257.954 35.6836 263.477 35.6836V25.6836ZM263.477 11.6758V1.67578C257.954 1.67578 253.477 6.15293 253.477 11.6758H263.477ZM270.352 11.6758H280.352C280.352 6.15293 275.874 1.67578 270.352 1.67578V11.6758ZM270.352 20.3555H260.352C260.352 25.8783 264.829 30.3555 270.352 30.3555V20.3555ZM295.488 29.207H305.488C305.488 23.6842 301.011 19.207 295.488 19.207V29.207ZM295.488 34.5352V44.5352C301.011 44.5352 305.488 40.058 305.488 34.5352H295.488ZM259.223 34.5352H249.223C249.223 40.058 253.7 44.5352 259.223 44.5352V34.5352ZM259.223 29.207V19.207C253.7 19.207 249.223 23.6842 249.223 29.207H259.223ZM291.836 43.7305H301.836C301.836 38.2076 297.359 33.7305 291.836 33.7305V43.7305ZM291.836 49.2305V59.2305C297.359 59.2305 301.836 54.7533 301.836 49.2305H291.836ZM263.004 49.2305H253.004C253.004 54.7533 257.481 59.2305 263.004 59.2305V49.2305ZM263.004 37.2852V27.2852C257.481 27.2852 253.004 31.7623 253.004 37.2852H263.004ZM269.965 37.2852H279.965C279.965 31.7623 275.488 27.2852 269.965 27.2852V37.2852ZM269.965 43.7305H259.965C259.965 49.2533 264.442 53.7305 269.965 53.7305V43.7305ZM291.578 20.3555H281.578V25.6836H291.578H301.578V20.3555H291.578ZM291.578 25.6836V15.6836H263.477V25.6836V35.6836H291.578V25.6836ZM263.477 25.6836H273.477V11.6758H263.477H253.477V25.6836H263.477ZM263.477 11.6758V21.6758H270.352V11.6758V1.67578H263.477V11.6758ZM270.352 11.6758H260.352V20.3555H270.352H280.352V11.6758H270.352ZM270.352 20.3555V30.3555H291.578V20.3555V10.3555H270.352V20.3555ZM295.488 29.207H285.488V34.5352H295.488H305.488V29.207H295.488ZM295.488 34.5352V24.5352H259.223V34.5352V44.5352H295.488V34.5352ZM259.223 34.5352H269.223V29.207H259.223H249.223V34.5352H259.223ZM259.223 29.207V39.207H295.488V29.207V19.207H259.223V29.207ZM291.836 43.7305H281.836V49.2305H291.836H301.836V43.7305H291.836ZM291.836 49.2305V39.2305H263.004V49.2305V59.2305H291.836V49.2305ZM263.004 49.2305H273.004V37.2852H263.004H253.004V49.2305H263.004ZM263.004 37.2852V47.2852H269.965V37.2852V27.2852H263.004V37.2852ZM269.965 37.2852H259.965V43.7305H269.965H279.965V37.2852H269.965ZM269.965 43.7305V53.7305H291.836V43.7305V33.7305H269.965V43.7305Z" fill="white" mask="url(#path-1-outside-1_6524_1774)"/>
</g>
<defs>
<filter id="filter0_d_6524_1774" x="0" y="0" width="309.488" height="68.0469" filterUnits="userSpaceOnUse" color-interpolation-filters="sRGB">
<feFlood flood-opacity="0" result="BackgroundImageFix"/>
<feColorMatrix in="SourceAlpha" type="matrix" values="0 0 0 0 0 0 0 0 0 0 0 0 0 0 0 0 0 0 127 0" result="hardAlpha"/>
<feOffset dy="4"/>
<feGaussianBlur stdDeviation="2"/>
<feComposite in2="hardAlpha" operator="out"/>
<feColorMatrix type="matrix" values="0 0 0 0 0 0 0 0 0 0 0 0 0 0 0 0 0 0 0.07 0"/>
<feBlend mode="normal" in2="BackgroundImageFix" result="effect1_dropShadow_6524_1774"/>
<feBlend mode="normal" in="SourceGraphic" in2="effect1_dropShadow_6524_1774" result="shape"/>
</filter>
</defs>
</svg>
