<svg width="348" height="68" viewBox="0 0 348 68" fill="none" xmlns="http://www.w3.org/2000/svg">
<g filter="url(#filter0_d_6524_1868)">
<mask id="path-1-outside-1_6524_1868" maskUnits="userSpaceOnUse" x="3.99219" y="-0.507813" width="340" height="61" fill="black">
<rect fill="white" x="3.99219" y="-0.507813" width="340" height="61"/>
<path d="M33.3789 12.1914V17.6484H20.918V19.5391H32.1758V24.8242H20.918V26.7578C27.0195 26.7363 31.2305 26.6289 35.8711 25.8555L36.5156 31.1406C30.9727 32.1289 25.8164 32.1719 17.5234 32.1719H14V12.1914H33.3789ZM45.4102 10.0859V33.5898H38.4922V10.0859L45.4102 10.0859ZM45.4102 34.9648V49.4023H18.2969V34.9648H45.4102ZM25.0859 40.293V43.9023H38.6641V40.293H25.0859ZM62.6836 12.5352C69.043 12.4922 73.8984 16.7461 73.8984 22.5469C73.8984 28.3906 69.043 32.6016 62.6836 32.5586C56.4531 32.6016 51.4688 28.3906 51.4688 22.5469C51.4688 16.7461 56.4531 12.4922 62.6836 12.5352ZM62.6836 18.4648C60.2773 18.4648 58.3438 19.8398 58.3438 22.5469C58.3438 25.3398 60.2773 26.6289 62.6836 26.6289C65.2188 26.6289 67.1953 25.3398 67.1953 22.5469C67.1953 19.8398 65.2188 18.4648 62.6836 18.4648ZM83.7812 10V49.875H76.9492V10H83.7812ZM50.0508 36.6406C56.9688 36.6406 66.6367 36.5117 74.9297 35.3945L75.4453 40.3359C66.8516 42.0547 57.6133 42.1406 50.8242 42.1406L50.0508 36.6406ZM133.797 32.5156V37.8438H118.93V49.7461H112.098V37.8438H97.5312V32.5156H133.797ZM108.273 11.5039V15.5H122.84V11.5039H129.758V29.3359H101.484V11.5039L108.273 11.5039ZM108.273 23.8359H122.84V20.8281H108.273V23.8359ZM167.355 10V18.5078H172.297V24.1367H167.355V32.1719H160.438V10H167.355ZM154.68 12.4062V17.8203H143.766V25.7695C150.426 25.748 154.014 25.4687 157.902 24.6953L158.59 30.0234C153.992 31.1406 149.48 31.2695 140.371 31.2266L136.891 31.2266V12.4062H154.68ZM167.355 33.5898V49.3164H140.844V33.5898H167.355ZM147.633 39.0039V43.9883H160.566V39.0039H147.633ZM191.719 10.5156C201.043 10.5156 206.371 12.8789 206.414 17.2187C206.371 21.6016 201.043 23.9648 191.719 23.9648C182.352 23.9648 176.938 21.6016 176.98 17.2187C176.938 12.8789 182.352 10.5156 191.719 10.5156ZM191.719 15.5C186.348 15.5 184.199 16.0156 184.199 17.2187C184.199 18.6797 186.348 18.9375 191.719 18.9805C197.133 18.9375 199.281 18.6797 199.281 17.2187C199.281 16.0156 197.133 15.5 191.719 15.5ZM209.852 25.2969V30.7539H173.586V25.2969L209.852 25.2969ZM205.555 32.2578V43.2148H184.371V44.5039H206.5V49.5742H177.625V38.4883H198.766V37.2852H177.668V32.2578H205.555ZM257.977 24.5664V30.1523H252.906V49.6602H245.988V10H252.906V24.5664H257.977ZM229.102 13.7383V34.4922C233.764 34.3848 238.855 33.8906 244.055 32.8594L244.742 38.5742C238.211 39.9062 231.594 40.207 225.836 40.1641H222.227V13.7383H229.102ZM292.008 21.8594V27.3164H263.605V11.6758H270.48V21.8594H292.008ZM295.531 30.8828V36.4687H280.621V49.7461H273.703V36.4687H259.223V30.8828H295.531ZM329.605 20.0977V25.4258H301.504V11.418H308.379V20.0977H329.605ZM333.516 28.9492V34.2773H297.25V28.9492H333.516ZM329.863 43.4727V48.9727H301.031V37.0273H307.992V43.4727H329.863Z"/>
</mask>
<path d="M33.3789 12.1914V17.6484H20.918V19.5391H32.1758V24.8242H20.918V26.7578C27.0195 26.7363 31.2305 26.6289 35.8711 25.8555L36.5156 31.1406C30.9727 32.1289 25.8164 32.1719 17.5234 32.1719H14V12.1914H33.3789ZM45.4102 10.0859V33.5898H38.4922V10.0859L45.4102 10.0859ZM45.4102 34.9648V49.4023H18.2969V34.9648H45.4102ZM25.0859 40.293V43.9023H38.6641V40.293H25.0859ZM62.6836 12.5352C69.043 12.4922 73.8984 16.7461 73.8984 22.5469C73.8984 28.3906 69.043 32.6016 62.6836 32.5586C56.4531 32.6016 51.4688 28.3906 51.4688 22.5469C51.4688 16.7461 56.4531 12.4922 62.6836 12.5352ZM62.6836 18.4648C60.2773 18.4648 58.3438 19.8398 58.3438 22.5469C58.3438 25.3398 60.2773 26.6289 62.6836 26.6289C65.2188 26.6289 67.1953 25.3398 67.1953 22.5469C67.1953 19.8398 65.2188 18.4648 62.6836 18.4648ZM83.7812 10V49.875H76.9492V10H83.7812ZM50.0508 36.6406C56.9688 36.6406 66.6367 36.5117 74.9297 35.3945L75.4453 40.3359C66.8516 42.0547 57.6133 42.1406 50.8242 42.1406L50.0508 36.6406ZM133.797 32.5156V37.8438H118.93V49.7461H112.098V37.8438H97.5312V32.5156H133.797ZM108.273 11.5039V15.5H122.84V11.5039H129.758V29.3359H101.484V11.5039L108.273 11.5039ZM108.273 23.8359H122.84V20.8281H108.273V23.8359ZM167.355 10V18.5078H172.297V24.1367H167.355V32.1719H160.438V10H167.355ZM154.68 12.4062V17.8203H143.766V25.7695C150.426 25.748 154.014 25.4687 157.902 24.6953L158.59 30.0234C153.992 31.1406 149.48 31.2695 140.371 31.2266L136.891 31.2266V12.4062H154.68ZM167.355 33.5898V49.3164H140.844V33.5898H167.355ZM147.633 39.0039V43.9883H160.566V39.0039H147.633ZM191.719 10.5156C201.043 10.5156 206.371 12.8789 206.414 17.2187C206.371 21.6016 201.043 23.9648 191.719 23.9648C182.352 23.9648 176.938 21.6016 176.98 17.2187C176.938 12.8789 182.352 10.5156 191.719 10.5156ZM191.719 15.5C186.348 15.5 184.199 16.0156 184.199 17.2187C184.199 18.6797 186.348 18.9375 191.719 18.9805C197.133 18.9375 199.281 18.6797 199.281 17.2187C199.281 16.0156 197.133 15.5 191.719 15.5ZM209.852 25.2969V30.7539H173.586V25.2969L209.852 25.2969ZM205.555 32.2578V43.2148H184.371V44.5039H206.5V49.5742H177.625V38.4883H198.766V37.2852H177.668V32.2578H205.555ZM257.977 24.5664V30.1523H252.906V49.6602H245.988V10H252.906V24.5664H257.977ZM229.102 13.7383V34.4922C233.764 34.3848 238.855 33.8906 244.055 32.8594L244.742 38.5742C238.211 39.9062 231.594 40.207 225.836 40.1641H222.227V13.7383H229.102ZM292.008 21.8594V27.3164H263.605V11.6758H270.48V21.8594H292.008ZM295.531 30.8828V36.4687H280.621V49.7461H273.703V36.4687H259.223V30.8828H295.531ZM329.605 20.0977V25.4258H301.504V11.418H308.379V20.0977H329.605ZM333.516 28.9492V34.2773H297.25V28.9492H333.516ZM329.863 43.4727V48.9727H301.031V37.0273H307.992V43.4727H329.863Z" fill="#11DCA9"/>
<path d="M33.3789 12.1914L43.3789 12.1914C43.3789 6.66856 38.9018 2.19141 33.3789 2.19141V12.1914ZM33.3789 17.6484V27.6484C38.9018 27.6484 43.3789 23.1713 43.3789 17.6484H33.3789ZM20.918 17.6484V7.64844C15.3951 7.64844 10.918 12.1256 10.918 17.6484H20.918ZM20.918 19.5391H10.918C10.918 25.0619 15.3951 29.5391 20.918 29.5391V19.5391ZM32.1758 19.5391H42.1758C42.1758 14.0162 37.6986 9.53906 32.1758 9.53906V19.5391ZM32.1758 24.8242V34.8242C37.6986 34.8242 42.1758 30.3471 42.1758 24.8242H32.1758ZM20.918 24.8242V14.8242C15.3951 14.8242 10.918 19.3014 10.918 24.8242H20.918ZM20.918 26.7578H10.918C10.918 29.4161 11.9764 31.965 13.8594 33.8413C15.7423 35.7177 18.2949 36.7671 20.9532 36.7578L20.918 26.7578ZM35.8711 25.8555L45.7976 24.6449C45.4673 21.9369 44.045 19.4813 41.8603 17.8474C39.6755 16.2134 36.9181 15.543 34.2271 15.9915L35.8711 25.8555ZM36.5156 31.1406L38.2709 40.9854C43.4974 40.0535 47.0848 35.2 46.4421 29.9301L36.5156 31.1406ZM14 32.1719H4C4 37.6947 8.47715 42.1719 14 42.1719L14 32.1719ZM14 12.1914V2.19141C8.47715 2.19141 4 6.66856 4 12.1914H14ZM45.4102 10.0859H55.4102C55.4102 4.56309 50.933 0.0859375 45.4102 0.0859375V10.0859ZM45.4102 33.5898V43.5898C50.933 43.5898 55.4102 39.1127 55.4102 33.5898H45.4102ZM38.4922 33.5898H28.4922C28.4922 39.1127 32.9693 43.5898 38.4922 43.5898V33.5898ZM38.4922 10.0859V0.0859375C32.9693 0.0859375 28.4922 4.56309 28.4922 10.0859H38.4922ZM45.4102 34.9648H55.4102C55.4102 29.442 50.933 24.9648 45.4102 24.9648V34.9648ZM45.4102 49.4023V59.4023C50.933 59.4023 55.4102 54.9252 55.4102 49.4023H45.4102ZM18.2969 49.4023H8.29688C8.29688 54.9252 12.774 59.4023 18.2969 59.4023V49.4023ZM18.2969 34.9648V24.9648C12.774 24.9648 8.29688 29.442 8.29688 34.9648H18.2969ZM25.0859 40.293V30.293C19.5631 30.293 15.0859 34.7701 15.0859 40.293H25.0859ZM25.0859 43.9023H15.0859C15.0859 49.4252 19.5631 53.9023 25.0859 53.9023V43.9023ZM38.6641 43.9023V53.9023C44.1869 53.9023 48.6641 49.4252 48.6641 43.9023H38.6641ZM38.6641 40.293H48.6641C48.6641 34.7701 44.1869 30.293 38.6641 30.293V40.293ZM33.3789 12.1914H23.3789V17.6484H33.3789H43.3789V12.1914L33.3789 12.1914ZM33.3789 17.6484V7.64844H20.918V17.6484V27.6484H33.3789V17.6484ZM20.918 17.6484H10.918V19.5391H20.918H30.918V17.6484H20.918ZM20.918 19.5391V29.5391H32.1758V19.5391V9.53906H20.918V19.5391ZM32.1758 19.5391H22.1758V24.8242H32.1758H42.1758V19.5391H32.1758ZM32.1758 24.8242V14.8242H20.918V24.8242V34.8242H32.1758V24.8242ZM20.918 24.8242H10.918V26.7578H20.918H30.918V24.8242H20.918ZM20.918 26.7578L20.9532 36.7578C27.087 36.7362 32.0064 36.6375 37.5151 35.7194L35.8711 25.8555L34.2271 15.9915C30.4545 16.6203 26.9521 16.7365 20.8828 16.7579L20.918 26.7578ZM35.8711 25.8555L25.9446 27.066L26.5892 32.3512L36.5156 31.1406L46.4421 29.9301L45.7976 24.6449L35.8711 25.8555ZM36.5156 31.1406L34.7604 21.2959C30.2306 22.1035 25.9584 22.1719 17.5234 22.1719V32.1719V42.1719C25.6744 42.1719 31.7147 42.1543 38.2709 40.9854L36.5156 31.1406ZM17.5234 32.1719V22.1719H14V32.1719L14 42.1719H17.5234V32.1719ZM14 32.1719H24V12.1914H14H4L4 32.1719H14ZM14 12.1914V22.1914H33.3789V12.1914V2.19141L14 2.19141V12.1914ZM45.4102 10.0859L35.4102 10.0859V33.5898H45.4102H55.4102V10.0859H45.4102ZM45.4102 33.5898V23.5898H38.4922V33.5898V43.5898H45.4102V33.5898ZM38.4922 33.5898H48.4922V10.0859L38.4922 10.0859H28.4922V33.5898H38.4922ZM38.4922 10.0859V20.0859H45.4102V10.0859V0.0859375H38.4922V10.0859ZM45.4102 34.9648H35.4102V49.4023H45.4102H55.4102V34.9648H45.4102ZM45.4102 49.4023V39.4023H18.2969V49.4023V59.4023H45.4102V49.4023ZM18.2969 49.4023H28.2969V34.9648H18.2969H8.29688L8.29688 49.4023H18.2969ZM18.2969 34.9648V44.9648H45.4102V34.9648V24.9648H18.2969V34.9648ZM25.0859 40.293H15.0859V43.9023H25.0859H35.0859V40.293H25.0859ZM25.0859 43.9023V53.9023H38.6641V43.9023V33.9023H25.0859V43.9023ZM38.6641 43.9023H48.6641V40.293H38.6641H28.6641V43.9023H38.6641ZM38.6641 40.293V30.293H25.0859V40.293V50.293H38.6641V40.293ZM62.6836 12.5352L62.6146 22.5349C62.6601 22.5352 62.7057 22.5352 62.7512 22.5349L62.6836 12.5352ZM62.6836 32.5586L62.7512 22.5588C62.7057 22.5585 62.6601 22.5585 62.6146 22.5588L62.6836 32.5586ZM83.7812 10H93.7812C93.7812 4.47715 89.3041 0 83.7812 0V10ZM83.7812 49.875V59.875C89.3041 59.875 93.7812 55.3978 93.7812 49.875H83.7812ZM76.9492 49.875H66.9492C66.9492 55.3978 71.4264 59.875 76.9492 59.875V49.875ZM76.9492 10V0C71.4264 0 66.9492 4.47715 66.9492 10H76.9492ZM50.0508 36.6406V26.6406C47.1557 26.6406 44.4027 27.8953 42.5034 30.0803C40.6042 32.2654 39.7451 35.1663 40.1482 38.0332L50.0508 36.6406ZM74.9297 35.3945L84.8757 34.3567C84.595 31.6672 83.2372 29.206 81.1117 27.5344C78.9863 25.8627 76.2745 25.123 73.5946 25.4841L74.9297 35.3945ZM75.4453 40.3359L77.4065 50.1417C82.4677 49.1295 85.927 44.4317 85.3913 39.2981L75.4453 40.3359ZM50.8242 42.1406L40.9217 43.5332C41.6158 48.4694 45.8394 52.1406 50.8242 52.1406V42.1406ZM62.6836 12.5352L62.7512 22.5349C63.2167 22.5318 63.5446 22.6075 63.7465 22.6799C63.9499 22.7527 64.0317 22.8233 64.0371 22.8281C64.0389 22.8297 63.99 22.784 63.9447 22.6848C63.896 22.5782 63.8984 22.5128 63.8984 22.5469H73.8984L83.8984 22.5469C83.8984 10.1666 73.4353 2.46228 62.616 2.53538L62.6836 12.5352ZM73.8984 22.5469H63.8984C63.8984 22.6018 63.8918 22.543 63.9421 22.4328C63.9636 22.3858 63.9881 22.3458 64.0109 22.3153C64.0333 22.2853 64.0484 22.2718 64.0483 22.2718C64.048 22.2721 64.0293 22.2886 63.9851 22.3144C63.9408 22.3403 63.8698 22.376 63.7673 22.4125C63.5634 22.4851 63.2287 22.562 62.7512 22.5588L62.6836 32.5586L62.616 42.5584C73.4054 42.6313 83.8984 34.9968 83.8984 22.5469L73.8984 22.5469ZM62.6836 32.5586L62.6146 22.5588C61.7532 22.5648 61.3765 22.2798 61.3375 22.2456C61.3211 22.2312 61.3672 22.2685 61.4147 22.3707C61.4667 22.4827 61.4688 22.5621 61.4688 22.5469H51.4688H41.4688C41.4688 35.0666 52.1695 42.6313 62.7526 42.5584L62.6836 32.5586ZM51.4688 22.5469H61.4688C61.4688 22.5409 61.4691 22.5641 61.4592 22.6086C61.4495 22.6526 61.4335 22.7006 61.412 22.7469C61.3664 22.8448 61.3251 22.8752 61.3487 22.8544C61.4016 22.8078 61.78 22.5292 62.6146 22.5349L62.6836 12.5352L62.7526 2.53539C52.1395 2.4622 41.4688 10.0966 41.4688 22.5469H51.4688ZM62.6836 18.4648V8.46484C59.6632 8.46484 56.0561 9.32939 53.0483 11.9458C49.846 14.7313 48.3438 18.6259 48.3438 22.5469H58.3438H68.3438C68.3438 23.7608 67.8083 25.6144 66.1744 27.0357C64.7349 28.2878 63.2977 28.4648 62.6836 28.4648V18.4648ZM58.3438 22.5469H48.3438C48.3438 26.4329 49.7963 30.3964 53.1077 33.2315C56.1832 35.8646 59.8132 36.6289 62.6836 36.6289V26.6289V16.6289C63.1478 16.6289 64.6078 16.7486 66.115 18.039C67.858 19.5313 68.3438 21.4538 68.3438 22.5469H58.3438ZM62.6836 26.6289V36.6289C65.5059 36.6289 69.1455 35.9223 72.2669 33.3383C75.6695 30.5216 77.1953 26.5148 77.1953 22.5469L67.1953 22.5469H57.1953C57.1953 21.3719 57.7329 19.4061 59.5134 17.9322C61.0127 16.691 62.3964 16.6289 62.6836 16.6289V26.6289ZM67.1953 22.5469L77.1953 22.5469C77.1953 18.5435 75.6183 14.606 72.3268 11.8377C69.2686 9.2655 65.6508 8.46484 62.6836 8.46484V18.4648V28.4648C62.2515 28.4648 60.8896 28.3517 59.4535 27.1438C57.784 25.7397 57.1953 23.8432 57.1953 22.5469H67.1953ZM83.7812 10H73.7812V49.875H83.7812H93.7812V10H83.7812ZM83.7812 49.875V39.875H76.9492V49.875V59.875H83.7812V49.875ZM76.9492 49.875H86.9492V10H76.9492H66.9492V49.875H76.9492ZM76.9492 10V20H83.7812V10V0L76.9492 0V10ZM50.0508 36.6406V46.6406C56.9786 46.6406 67.2424 46.5205 76.2648 45.305L74.9297 35.3945L73.5946 25.4841C66.0311 26.503 56.9589 26.6406 50.0508 26.6406V36.6406ZM74.9297 35.3945L64.9837 36.4324L65.4993 41.3738L75.4453 40.3359L85.3913 39.2981L84.8757 34.3567L74.9297 35.3945ZM75.4453 40.3359L73.4841 30.5301C65.9777 32.0314 57.6542 32.1406 50.8242 32.1406V42.1406V52.1406C57.5723 52.1406 67.7255 52.0779 77.4065 50.1417L75.4453 40.3359ZM50.8242 42.1406L60.7268 40.7481L59.9533 35.2481L50.0508 36.6406L40.1482 38.0332L40.9217 43.5332L50.8242 42.1406ZM133.797 32.5156L143.797 32.5156C143.797 26.9928 139.32 22.5156 133.797 22.5156V32.5156ZM133.797 37.8438V47.8438C139.32 47.8437 143.797 43.3666 143.797 37.8437L133.797 37.8438ZM118.93 37.8438V27.8437C113.407 27.8437 108.93 32.3209 108.93 37.8438H118.93ZM118.93 49.7461V59.7461C124.453 59.7461 128.93 55.2689 128.93 49.7461H118.93ZM112.098 49.7461H102.098C102.098 55.2689 106.575 59.7461 112.098 59.7461V49.7461ZM112.098 37.8438H122.098C122.098 32.3209 117.621 27.8437 112.098 27.8437V37.8438ZM97.5312 37.8438H87.5312C87.5312 43.3666 92.0084 47.8438 97.5312 47.8438V37.8438ZM97.5312 32.5156V22.5156C92.0084 22.5156 87.5312 26.9928 87.5312 32.5156H97.5312ZM108.273 11.5039H118.273C118.273 5.98106 113.796 1.50391 108.273 1.50391V11.5039ZM108.273 15.5H98.2734C98.2734 21.0228 102.751 25.5 108.273 25.5V15.5ZM122.84 15.5V25.5C128.363 25.5 132.84 21.0228 132.84 15.5H122.84ZM122.84 11.5039V1.50391C117.317 1.50391 112.84 5.98106 112.84 11.5039H122.84ZM129.758 11.5039H139.758C139.758 5.98106 135.281 1.50391 129.758 1.50391V11.5039ZM129.758 29.3359V39.3359C135.281 39.3359 139.758 34.8588 139.758 29.3359L129.758 29.3359ZM101.484 29.3359H91.4844C91.4844 34.8588 95.9615 39.3359 101.484 39.3359V29.3359ZM101.484 11.5039V1.50391C95.9615 1.50391 91.4844 5.98106 91.4844 11.5039H101.484ZM108.273 23.8359H98.2734C98.2734 29.3588 102.751 33.8359 108.273 33.8359V23.8359ZM122.84 23.8359V33.8359C128.363 33.8359 132.84 29.3588 132.84 23.8359H122.84ZM122.84 20.8281H132.84C132.84 15.3053 128.363 10.8281 122.84 10.8281V20.8281ZM108.273 20.8281V10.8281C102.751 10.8281 98.2734 15.3053 98.2734 20.8281H108.273ZM133.797 32.5156H123.797V37.8438H133.797L143.797 37.8437V32.5156L133.797 32.5156ZM133.797 37.8438V27.8437H118.93V37.8438V47.8438H133.797V37.8438ZM118.93 37.8438H108.93V49.7461H118.93H128.93V37.8438H118.93ZM118.93 49.7461V39.7461H112.098V49.7461V59.7461H118.93V49.7461ZM112.098 49.7461H122.098V37.8438H112.098H102.098V49.7461H112.098ZM112.098 37.8438V27.8437H97.5312V37.8438V47.8438H112.098V37.8438ZM97.5312 37.8438H107.531V32.5156H97.5312H87.5312V37.8438H97.5312ZM97.5312 32.5156V42.5156H133.797V32.5156V22.5156H97.5312V32.5156ZM108.273 11.5039L98.2734 11.5039V15.5H108.273H118.273V11.5039H108.273ZM108.273 15.5V25.5H122.84V15.5V5.5H108.273V15.5ZM122.84 15.5H132.84V11.5039H122.84H112.84V15.5H122.84ZM122.84 11.5039V21.5039H129.758V11.5039V1.50391L122.84 1.50391V11.5039ZM129.758 11.5039H119.758V29.3359H129.758L139.758 29.3359V11.5039H129.758ZM129.758 29.3359V19.3359H101.484V29.3359V39.3359H129.758V29.3359ZM101.484 29.3359H111.484V11.5039L101.484 11.5039H91.4844V29.3359H101.484ZM101.484 11.5039V21.5039H108.273V11.5039V1.50391H101.484V11.5039ZM108.273 23.8359V33.8359H122.84V23.8359V13.8359H108.273V23.8359ZM122.84 23.8359H132.84V20.8281H122.84H112.84V23.8359H122.84ZM122.84 20.8281V10.8281H108.273V20.8281V30.8281H122.84V20.8281ZM108.273 20.8281H98.2734V23.8359H108.273H118.273V20.8281H108.273ZM167.355 10L177.355 10C177.355 4.47715 172.878 0 167.355 0V10ZM167.355 18.5078H157.355C157.355 24.0307 161.833 28.5078 167.355 28.5078V18.5078ZM172.297 18.5078H182.297C182.297 12.985 177.82 8.50781 172.297 8.50781V18.5078ZM172.297 24.1367V34.1367C177.82 34.1367 182.297 29.6596 182.297 24.1367H172.297ZM167.355 24.1367V14.1367C161.833 14.1367 157.355 18.6139 157.355 24.1367H167.355ZM167.355 32.1719V42.1719C172.878 42.1719 177.355 37.6947 177.355 32.1719H167.355ZM160.438 32.1719H150.438C150.438 37.6947 154.915 42.1719 160.438 42.1719V32.1719ZM160.438 10V0C154.915 0 150.438 4.47715 150.438 10H160.438ZM154.68 12.4062H164.68C164.68 6.8834 160.203 2.40625 154.68 2.40625V12.4062ZM154.68 17.8203V27.8203C160.203 27.8203 164.68 23.3432 164.68 17.8203H154.68ZM143.766 17.8203V7.82031C138.243 7.82031 133.766 12.2975 133.766 17.8203H143.766ZM143.766 25.7695H133.766C133.766 28.4273 134.824 30.9757 136.706 32.852C138.588 34.7283 141.14 35.7781 143.798 35.7695L143.766 25.7695ZM157.902 24.6953L167.82 23.4156C167.466 20.6682 165.987 18.1909 163.738 16.5744C161.488 14.9579 158.669 14.347 155.952 14.8874L157.902 24.6953ZM158.59 30.0234L160.951 39.7407C165.905 38.537 169.16 33.7996 168.508 28.7437L158.59 30.0234ZM140.371 31.2266L140.418 21.2267C140.403 21.2266 140.387 21.2266 140.371 21.2266V31.2266ZM136.891 31.2266H126.891C126.891 36.7494 131.368 41.2266 136.891 41.2266V31.2266ZM136.891 12.4062V2.40625C131.368 2.40625 126.891 6.8834 126.891 12.4062H136.891ZM167.355 33.5898H177.355C177.355 28.067 172.878 23.5898 167.355 23.5898V33.5898ZM167.355 49.3164V59.3164C172.878 59.3164 177.355 54.8393 177.355 49.3164H167.355ZM140.844 49.3164L130.844 49.3164C130.844 54.8393 135.321 59.3164 140.844 59.3164V49.3164ZM140.844 33.5898V23.5898C135.321 23.5898 130.844 28.067 130.844 33.5898L140.844 33.5898ZM147.633 39.0039V29.0039C142.11 29.0039 137.633 33.4811 137.633 39.0039L147.633 39.0039ZM147.633 43.9883L137.633 43.9883C137.633 49.5111 142.11 53.9883 147.633 53.9883V43.9883ZM160.566 43.9883V53.9883C166.089 53.9883 170.566 49.5111 170.566 43.9883H160.566ZM160.566 39.0039H170.566C170.566 33.4811 166.089 29.0039 160.566 29.0039V39.0039ZM167.355 10H157.355V18.5078H167.355H177.355V10L167.355 10ZM167.355 18.5078V28.5078H172.297V18.5078V8.50781L167.355 8.50781V18.5078ZM172.297 18.5078H162.297V24.1367H172.297H182.297V18.5078H172.297ZM172.297 24.1367V14.1367H167.355V24.1367V34.1367H172.297V24.1367ZM167.355 24.1367H157.355V32.1719H167.355H177.355V24.1367H167.355ZM167.355 32.1719V22.1719H160.438V32.1719V42.1719H167.355V32.1719ZM160.438 32.1719H170.438V10H160.438H150.438V32.1719H160.438ZM160.438 10V20H167.355V10V0L160.438 0V10ZM154.68 12.4062H144.68V17.8203H154.68H164.68V12.4062H154.68ZM154.68 17.8203V7.82031H143.766V17.8203V27.8203H154.68V17.8203ZM143.766 17.8203H133.766V25.7695H143.766H153.766V17.8203H143.766ZM143.766 25.7695L143.798 35.7695C150.748 35.7471 155.061 35.4564 159.853 34.5032L157.902 24.6953L155.952 14.8874C152.967 15.4811 150.103 15.749 143.733 15.7696L143.766 25.7695ZM157.902 24.6953L147.985 25.975L148.672 31.3032L158.59 30.0234L168.508 28.7437L167.82 23.4156L157.902 24.6953ZM158.59 30.0234L156.229 20.3062C152.998 21.0911 149.686 21.2704 140.418 21.2267L140.371 31.2266L140.324 41.2265C149.275 41.2687 154.986 41.1901 160.951 39.7407L158.59 30.0234ZM140.371 31.2266V21.2266H136.891V31.2266V41.2266L140.371 41.2266V31.2266ZM136.891 31.2266L146.891 31.2266V12.4062H136.891H126.891V31.2266H136.891ZM136.891 12.4062V22.4062H154.68V12.4062V2.40625H136.891V12.4062ZM167.355 33.5898H157.355V49.3164H167.355H177.355V33.5898H167.355ZM167.355 49.3164V39.3164H140.844V49.3164V59.3164H167.355V49.3164ZM140.844 49.3164H150.844V33.5898H140.844L130.844 33.5898V49.3164L140.844 49.3164ZM140.844 33.5898V43.5898H167.355V33.5898V23.5898H140.844V33.5898ZM147.633 39.0039L137.633 39.0039V43.9883L147.633 43.9883H157.633V39.0039H147.633ZM147.633 43.9883V53.9883H160.566V43.9883V33.9883H147.633V43.9883ZM160.566 43.9883H170.566V39.0039H160.566H150.566V43.9883H160.566ZM160.566 39.0039V29.0039H147.633V39.0039V49.0039H160.566V39.0039ZM206.414 17.2187L216.414 17.3168C216.414 17.2511 216.414 17.1854 216.414 17.1197L206.414 17.2187ZM176.98 17.2187L186.98 17.3168C186.981 17.2511 186.981 17.1854 186.98 17.1197L176.98 17.2187ZM191.719 18.9805L191.639 28.9801C191.692 28.9806 191.745 28.9806 191.798 28.9802L191.719 18.9805ZM209.852 25.2969H219.852C219.852 19.774 215.374 15.2969 209.852 15.2969V25.2969ZM209.852 30.7539V40.7539C215.374 40.7539 219.852 36.2768 219.852 30.7539H209.852ZM173.586 30.7539H163.586C163.586 36.2768 168.063 40.7539 173.586 40.7539V30.7539ZM173.586 25.2969V15.2969C168.063 15.2969 163.586 19.774 163.586 25.2969H173.586ZM205.555 32.2578H215.555C215.555 26.735 211.078 22.2578 205.555 22.2578V32.2578ZM205.555 43.2148V53.2148C211.078 53.2148 215.555 48.7377 215.555 43.2148H205.555ZM184.371 43.2148V33.2148C178.848 33.2148 174.371 37.692 174.371 43.2148H184.371ZM184.371 44.5039H174.371C174.371 50.0268 178.848 54.5039 184.371 54.5039V44.5039ZM206.5 44.5039H216.5C216.5 38.9811 212.023 34.5039 206.5 34.5039V44.5039ZM206.5 49.5742V59.5742C212.023 59.5742 216.5 55.0971 216.5 49.5742H206.5ZM177.625 49.5742H167.625C167.625 55.0971 172.102 59.5742 177.625 59.5742V49.5742ZM177.625 38.4883V28.4883C172.102 28.4883 167.625 32.9654 167.625 38.4883H177.625ZM198.766 38.4883V48.4883C204.288 48.4883 208.766 44.0111 208.766 38.4883H198.766ZM198.766 37.2852H208.766C208.766 31.7623 204.288 27.2852 198.766 27.2852V37.2852ZM177.668 37.2852H167.668C167.668 42.808 172.145 47.2852 177.668 47.2852V37.2852ZM177.668 32.2578V22.2578C172.145 22.2578 167.668 26.735 167.668 32.2578H177.668ZM191.719 10.5156V20.5156C193.647 20.5156 195.186 20.6392 196.365 20.8275C197.57 21.02 198.2 21.249 198.422 21.3494C198.653 21.4538 198.144 21.2804 197.537 20.505C196.829 19.6003 196.426 18.4288 196.415 17.3178L206.414 17.2187L216.414 17.1197C216.341 9.78613 211.391 5.26676 206.672 3.13007C202.284 1.14355 196.972 0.515625 191.719 0.515625V10.5156ZM206.414 17.2187L196.415 17.1207C196.425 16.0441 196.813 14.8886 197.515 13.985C198.119 13.2084 198.629 13.0316 198.406 13.133C198.189 13.2315 197.564 13.4603 196.361 13.6529C195.185 13.8412 193.648 13.9648 191.719 13.9648V23.9648V33.9648C196.969 33.9648 202.291 33.3378 206.688 31.3377C211.442 29.1749 216.342 24.6299 216.414 17.3168L206.414 17.2187ZM191.719 23.9648V13.9648C189.777 13.9648 188.222 13.841 187.028 13.6512C185.806 13.4568 185.166 13.2253 184.94 13.1231C184.702 13.0155 185.233 13.1961 185.859 14.0048C186.593 14.9544 186.991 16.1768 186.98 17.3168L176.98 17.2187L166.981 17.1207C166.908 24.6082 171.964 29.2059 176.702 31.3476C181.107 33.3391 186.453 33.9648 191.719 33.9648V23.9648ZM176.98 17.2187L186.98 17.1197C186.992 18.2952 186.578 19.5344 185.837 20.4852C185.208 21.2927 184.678 21.4698 184.924 21.3593C185.155 21.2552 185.8 21.0234 187.025 20.8292C188.221 20.6394 189.778 20.5156 191.719 20.5156V10.5156V0.515625C186.45 0.515625 181.114 1.14229 176.718 3.12017C172.017 5.23532 166.907 9.80756 166.981 17.3178L176.98 17.2187ZM191.719 15.5V5.5C188.97 5.5 186.1 5.60872 183.693 6.16502C182.537 6.43215 180.494 7.01263 178.556 8.49003C176.182 10.3003 174.199 13.3361 174.199 17.2187H184.199H194.199C194.199 18.6243 193.868 20.1198 193.117 21.5217C192.389 22.8801 191.453 23.807 190.682 24.3952C189.935 24.9644 189.276 25.2695 188.907 25.4187C188.525 25.5729 188.263 25.636 188.197 25.6514C188.093 25.6754 188.292 25.623 188.978 25.5748C189.625 25.5294 190.518 25.5 191.719 25.5V15.5ZM184.199 17.2187H174.199C174.199 20.5239 175.637 23.706 178.338 25.8861C180.461 27.5992 182.745 28.1787 183.9 28.4201C186.255 28.9121 189.163 28.9603 191.639 28.9801L191.719 18.9805L191.799 8.98079C190.503 8.97042 189.549 8.94762 188.831 8.90785C188.063 8.86526 187.869 8.81754 187.99 8.84263C188.071 8.85961 188.389 8.92924 188.843 9.10871C189.29 9.2859 190.059 9.64408 190.899 10.3225C191.787 11.0393 192.698 12.0705 193.348 13.4499C193.994 14.8216 194.199 16.1475 194.199 17.2187H184.199ZM191.719 18.9805L191.798 28.9802C194.294 28.9603 197.21 28.912 199.566 28.4219C200.721 28.1817 203.007 27.6047 205.132 25.8933C207.841 23.7125 209.281 20.5264 209.281 17.2187L199.281 17.2187H189.281C189.281 16.1476 189.486 14.8198 190.134 13.4457C190.786 12.0637 191.7 11.0318 192.59 10.3153C193.431 9.63745 194.2 9.28046 194.647 9.10441C195.099 8.92603 195.415 8.85723 195.494 8.84082C195.61 8.81682 195.41 8.86492 194.634 8.90766C193.91 8.94759 192.947 8.97041 191.639 8.98078L191.719 18.9805ZM199.281 17.2187L209.281 17.2187C209.281 13.3329 207.296 10.294 204.915 8.48317C202.974 7.00718 200.928 6.42878 199.773 6.16284C197.364 5.60863 194.486 5.5 191.719 5.5V15.5V25.5C192.932 25.5 193.834 25.5295 194.489 25.5751C195.183 25.6235 195.388 25.6765 195.288 25.6536C195.224 25.6388 194.963 25.5764 194.583 25.4232C194.214 25.2749 193.555 24.9708 192.807 24.4021C192.034 23.8142 191.096 22.8868 190.366 21.5261C189.613 20.1218 189.281 18.6244 189.281 17.2187H199.281ZM209.852 25.2969L199.852 25.2969V30.7539H209.852H219.852V25.2969H209.852ZM209.852 30.7539V20.7539L173.586 20.7539V30.7539V40.7539H209.852V30.7539ZM173.586 30.7539H183.586V25.2969H173.586H163.586V30.7539H173.586ZM173.586 25.2969V35.2969H209.852V25.2969V15.2969L173.586 15.2969V25.2969ZM205.555 32.2578H195.555V43.2148H205.555H215.555V32.2578H205.555ZM205.555 43.2148V33.2148H184.371V43.2148V53.2148H205.555V43.2148ZM184.371 43.2148H174.371V44.5039H184.371H194.371V43.2148H184.371ZM184.371 44.5039V54.5039H206.5V44.5039V34.5039H184.371V44.5039ZM206.5 44.5039H196.5V49.5742H206.5H216.5V44.5039H206.5ZM206.5 49.5742V39.5742H177.625V49.5742V59.5742H206.5V49.5742ZM177.625 49.5742H187.625V38.4883H177.625H167.625V49.5742H177.625ZM177.625 38.4883V48.4883H198.766V38.4883V28.4883H177.625V38.4883ZM198.766 38.4883H208.766V37.2852H198.766H188.766V38.4883H198.766ZM198.766 37.2852V27.2852H177.668V37.2852V47.2852H198.766V37.2852ZM177.668 37.2852H187.668V32.2578H177.668H167.668V37.2852H177.668ZM177.668 32.2578V42.2578H205.555V32.2578V22.2578L177.668 22.2578V32.2578ZM257.977 24.5664H267.977C267.977 19.0436 263.499 14.5664 257.977 14.5664V24.5664ZM257.977 30.1523V40.1523C263.499 40.1523 267.977 35.6752 267.977 30.1523H257.977ZM252.906 30.1523V20.1523C247.383 20.1523 242.906 24.6295 242.906 30.1523H252.906ZM252.906 49.6602V59.6602C258.429 59.6602 262.906 55.183 262.906 49.6602H252.906ZM245.988 49.6602H235.988C235.988 55.183 240.465 59.6602 245.988 59.6602V49.6602ZM245.988 10V0C240.465 0 235.988 4.47715 235.988 10H245.988ZM252.906 10H262.906C262.906 4.47715 258.429 0 252.906 0V10ZM252.906 24.5664H242.906C242.906 30.0893 247.383 34.5664 252.906 34.5664V24.5664ZM229.102 13.7383H239.102C239.102 8.21543 234.624 3.73828 229.102 3.73828V13.7383ZM229.102 34.4922H219.102C219.102 37.1843 220.187 39.7627 222.112 41.6442C224.038 43.5258 226.641 44.5515 229.332 44.4895L229.102 34.4922ZM244.055 32.8594L253.983 31.665C253.651 28.9007 252.181 26.4002 249.927 24.7652C247.673 23.1302 244.84 22.5088 242.109 23.0505L244.055 32.8594ZM244.742 38.5742L246.741 48.3725C251.843 47.3319 255.293 42.5499 254.671 37.3798L244.742 38.5742ZM225.836 40.1641L225.911 30.1643C225.886 30.1642 225.861 30.1641 225.836 30.1641V40.1641ZM222.227 40.1641H212.227C212.227 45.6869 216.704 50.1641 222.227 50.1641V40.1641ZM222.227 13.7383V3.73828C216.704 3.73828 212.227 8.21543 212.227 13.7383H222.227ZM257.977 24.5664H247.977V30.1523H257.977H267.977V24.5664H257.977ZM257.977 30.1523V20.1523H252.906V30.1523V40.1523H257.977V30.1523ZM252.906 30.1523H242.906V49.6602H252.906H262.906V30.1523H252.906ZM252.906 49.6602V39.6602H245.988V49.6602V59.6602H252.906V49.6602ZM245.988 49.6602H255.988V10H245.988H235.988V49.6602H245.988ZM245.988 10V20H252.906V10V0H245.988V10ZM252.906 10H242.906V24.5664H252.906H262.906V10H252.906ZM252.906 24.5664V34.5664H257.977V24.5664V14.5664H252.906V24.5664ZM229.102 13.7383H219.102V34.4922H229.102H239.102V13.7383H229.102ZM229.102 34.4922L229.332 44.4895C234.519 44.37 240.188 43.8211 246 42.6683L244.055 32.8594L242.109 23.0505C237.523 23.9602 233.008 24.3995 228.871 24.4948L229.102 34.4922ZM244.055 32.8594L234.126 34.0538L234.814 39.7686L244.742 38.5742L254.671 37.3798L253.983 31.665L244.055 32.8594ZM244.742 38.5742L242.744 28.7759C237.163 29.9142 231.313 30.2047 225.911 30.1643L225.836 40.1641L225.761 50.1638C231.874 50.2094 239.259 49.8983 246.741 48.3725L244.742 38.5742ZM225.836 40.1641V30.1641H222.227V40.1641V50.1641H225.836V40.1641ZM222.227 40.1641H232.227V13.7383H222.227H212.227V40.1641H222.227ZM222.227 13.7383V23.7383H229.102V13.7383V3.73828H222.227V13.7383ZM292.008 21.8594H302.008C302.008 16.3365 297.531 11.8594 292.008 11.8594V21.8594ZM292.008 27.3164V37.3164C297.531 37.3164 302.008 32.8393 302.008 27.3164H292.008ZM263.605 27.3164H253.605C253.605 32.8393 258.083 37.3164 263.605 37.3164V27.3164ZM263.605 11.6758V1.67578C258.083 1.67578 253.605 6.15293 253.605 11.6758H263.605ZM270.48 11.6758H280.48C280.48 6.15293 276.003 1.67578 270.48 1.67578V11.6758ZM270.48 21.8594H260.48C260.48 27.3822 264.958 31.8594 270.48 31.8594V21.8594ZM295.531 30.8828H305.531C305.531 25.36 301.054 20.8828 295.531 20.8828V30.8828ZM295.531 36.4687V46.4687C301.054 46.4687 305.531 41.9916 305.531 36.4687H295.531ZM280.621 36.4687V26.4687C275.098 26.4687 270.621 30.9459 270.621 36.4687H280.621ZM280.621 49.7461V59.7461C286.144 59.7461 290.621 55.2689 290.621 49.7461H280.621ZM273.703 49.7461H263.703C263.703 55.2689 268.18 59.7461 273.703 59.7461V49.7461ZM273.703 36.4687H283.703C283.703 30.9459 279.226 26.4687 273.703 26.4687V36.4687ZM259.223 36.4687H249.223C249.223 41.9916 253.7 46.4687 259.223 46.4687V36.4687ZM259.223 30.8828V20.8828C253.7 20.8828 249.223 25.36 249.223 30.8828H259.223ZM292.008 21.8594H282.008V27.3164H292.008H302.008V21.8594H292.008ZM292.008 27.3164V17.3164H263.605V27.3164V37.3164H292.008V27.3164ZM263.605 27.3164H273.605V11.6758H263.605H253.605V27.3164H263.605ZM263.605 11.6758V21.6758H270.48V11.6758V1.67578H263.605V11.6758ZM270.48 11.6758H260.48V21.8594H270.48H280.48V11.6758H270.48ZM270.48 21.8594V31.8594H292.008V21.8594V11.8594H270.48V21.8594ZM295.531 30.8828H285.531V36.4687H295.531H305.531V30.8828H295.531ZM295.531 36.4687V26.4687H280.621V36.4687V46.4687H295.531V36.4687ZM280.621 36.4687H270.621V49.7461H280.621H290.621V36.4687H280.621ZM280.621 49.7461V39.7461H273.703V49.7461V59.7461H280.621V49.7461ZM273.703 49.7461H283.703V36.4687H273.703H263.703V49.7461H273.703ZM273.703 36.4687V26.4687H259.223V36.4687V46.4687H273.703V36.4687ZM259.223 36.4687H269.223V30.8828H259.223H249.223V36.4687H259.223ZM259.223 30.8828V40.8828H295.531V30.8828V20.8828H259.223V30.8828ZM329.605 20.0977L339.605 20.0977C339.605 14.5748 335.128 10.0977 329.605 10.0977V20.0977ZM329.605 25.4258V35.4258C335.128 35.4258 339.605 30.9486 339.605 25.4258L329.605 25.4258ZM301.504 25.4258H291.504C291.504 30.9486 295.981 35.4258 301.504 35.4258V25.4258ZM301.504 11.418V1.41797C295.981 1.41797 291.504 5.89512 291.504 11.418L301.504 11.418ZM308.379 11.418H318.379C318.379 5.89512 313.902 1.41797 308.379 1.41797V11.418ZM308.379 20.0977H298.379C298.379 25.6205 302.856 30.0977 308.379 30.0977V20.0977ZM333.516 28.9492H343.516C343.516 23.4264 339.038 18.9492 333.516 18.9492V28.9492ZM333.516 34.2773V44.2773C339.038 44.2773 343.516 39.8002 343.516 34.2773H333.516ZM297.25 34.2773H287.25C287.25 39.8002 291.727 44.2773 297.25 44.2773V34.2773ZM297.25 28.9492V18.9492C291.727 18.9492 287.25 23.4264 287.25 28.9492H297.25ZM329.863 43.4727H339.863C339.863 37.9498 335.386 33.4727 329.863 33.4727V43.4727ZM329.863 48.9727V58.9727C335.386 58.9727 339.863 54.4955 339.863 48.9727H329.863ZM301.031 48.9727H291.031C291.031 54.4955 295.508 58.9727 301.031 58.9727V48.9727ZM301.031 37.0273V27.0273C295.508 27.0273 291.031 31.5045 291.031 37.0273H301.031ZM307.992 37.0273H317.992C317.992 31.5045 313.515 27.0273 307.992 27.0273V37.0273ZM307.992 43.4727H297.992C297.992 48.9955 302.469 53.4727 307.992 53.4727V43.4727ZM329.605 20.0977H319.605V25.4258H329.605L339.605 25.4258V20.0977L329.605 20.0977ZM329.605 25.4258V15.4258H301.504V25.4258V35.4258H329.605V25.4258ZM301.504 25.4258H311.504V11.418H301.504L291.504 11.418V25.4258H301.504ZM301.504 11.418V21.418H308.379V11.418V1.41797H301.504V11.418ZM308.379 11.418L298.379 11.418V20.0977H308.379H318.379V11.418H308.379ZM308.379 20.0977V30.0977H329.605V20.0977V10.0977H308.379V20.0977ZM333.516 28.9492H323.516V34.2773H333.516H343.516V28.9492H333.516ZM333.516 34.2773V24.2773L297.25 24.2773V34.2773V44.2773H333.516V34.2773ZM297.25 34.2773H307.25V28.9492H297.25H287.25V34.2773H297.25ZM297.25 28.9492V38.9492H333.516V28.9492V18.9492L297.25 18.9492V28.9492ZM329.863 43.4727H319.863V48.9727H329.863H339.863V43.4727H329.863ZM329.863 48.9727V38.9727H301.031V48.9727V58.9727H329.863V48.9727ZM301.031 48.9727H311.031V37.0273H301.031H291.031V48.9727H301.031ZM301.031 37.0273V47.0273H307.992V37.0273V27.0273H301.031V37.0273ZM307.992 37.0273H297.992V43.4727H307.992H317.992V37.0273H307.992ZM307.992 43.4727V53.4727H329.863V43.4727V33.4727H307.992V43.4727Z" fill="white" mask="url(#path-1-outside-1_6524_1868)"/>
</g>
<defs>
<filter id="filter0_d_6524_1868" x="0" y="0" width="347.516" height="67.875" filterUnits="userSpaceOnUse" color-interpolation-filters="sRGB">
<feFlood flood-opacity="0" result="BackgroundImageFix"/>
<feColorMatrix in="SourceAlpha" type="matrix" values="0 0 0 0 0 0 0 0 0 0 0 0 0 0 0 0 0 0 127 0" result="hardAlpha"/>
<feOffset dy="4"/>
<feGaussianBlur stdDeviation="2"/>
<feComposite in2="hardAlpha" operator="out"/>
<feColorMatrix type="matrix" values="0 0 0 0 0 0 0 0 0 0 0 0 0 0 0 0 0 0 0.07 0"/>
<feBlend mode="normal" in2="BackgroundImageFix" result="effect1_dropShadow_6524_1868"/>
<feBlend mode="normal" in="SourceGraphic" in2="effect1_dropShadow_6524_1868" result="shape"/>
</filter>
</defs>
</svg>
