<svg width="179" height="68" viewBox="0 0 179 68" fill="none" xmlns="http://www.w3.org/2000/svg">
<g filter="url(#filter0_d_6526_5748)">
<mask id="path-1-outside-1_6526_5748" maskUnits="userSpaceOnUse" x="3.14062" y="-0.507813" width="172" height="61" fill="black">
<rect fill="white" x="3.14062" y="-0.507813" width="172" height="61"/>
<path d="M47.8594 10V39.0898H40.9844V30.4102H37.1172V24.7812H40.9844V22.1172H37.1172V16.6602H40.9844V10L47.8594 10ZM36.1289 12.6211V18.0781H33.3789V28.9492L36.2578 28.6914L36.5586 33.6758C29.2969 34.8789 20.832 35.0938 14.6445 35.0508L14 29.5078H17.6094V18.0781H14.9453V12.6211H36.1289ZM48.7188 43.6875V49.1875H20.918V37.0703H27.8789V43.6875H48.7188ZM24.2695 29.3789L26.8047 29.3359V18.0781H24.2695V29.3789ZM85.8438 10.0859V39.1328H79.0117V31.6992H70.9766V26.2422L79.0117 26.2422V22.8477L71.5781 22.8477C68.7422 28.7344 63.1992 33.0312 55.3359 35.3086L52.543 29.9805C60.4277 27.5312 65.0898 23.4277 66.207 18.4219H54.7344V12.9648H73.6836C73.6836 14.4902 73.5547 15.9727 73.2969 17.3906L79.0117 17.3906V10.0859H85.8438ZM86.918 43.6875V49.1875H59.1172V36.2539H66.1211V43.6875H86.918ZM105.223 34.793C105.223 37.7578 106.254 40.7871 109.09 42.9141C111.947 40.7012 113.086 37.6504 113.129 34.793V33.9336H119.875V34.793C119.875 38.9609 121.551 42.6133 126.965 44.2031L123.656 49.1445C119.982 47.9629 117.641 45.7715 116.266 42.9141C114.934 45.8145 112.678 48.2422 109.219 49.5312C105.588 48.2637 103.311 45.9004 102 43.043C100.582 45.793 98.2832 47.9629 94.7812 49.1445L91.4297 44.2031C96.7578 42.4414 98.4766 38.6602 98.4766 34.793V33.9336H105.223V34.793ZM123.613 10.0859V32.3438H116.695V10.0859H123.613ZM101.656 11.8906C107.93 11.8906 112.785 15.9297 112.785 21.6445C112.785 27.1875 107.93 31.2695 101.656 31.2695C95.3398 31.2695 90.4844 27.1875 90.5273 21.6445C90.4844 15.9297 95.3398 11.8906 101.656 11.8906ZM101.656 17.6484C99.0352 17.6484 97.2305 18.9805 97.2305 21.6445C97.2305 24.1797 99.0352 25.5977 101.656 25.5547C104.148 25.5977 105.953 24.1797 105.953 21.6445C105.953 18.9805 104.148 17.6484 101.656 17.6484ZM160.48 20.0977V25.4258H132.379V11.418H139.254V20.0977H160.48ZM164.391 28.9492V34.2773L128.125 34.2773V28.9492L164.391 28.9492ZM160.738 43.4727V48.9727L131.906 48.9727V37.0273H138.867V43.4727L160.738 43.4727Z"/>
</mask>
<path d="M47.8594 10V39.0898H40.9844V30.4102H37.1172V24.7812H40.9844V22.1172H37.1172V16.6602H40.9844V10L47.8594 10ZM36.1289 12.6211V18.0781H33.3789V28.9492L36.2578 28.6914L36.5586 33.6758C29.2969 34.8789 20.832 35.0938 14.6445 35.0508L14 29.5078H17.6094V18.0781H14.9453V12.6211H36.1289ZM48.7188 43.6875V49.1875H20.918V37.0703H27.8789V43.6875H48.7188ZM24.2695 29.3789L26.8047 29.3359V18.0781H24.2695V29.3789ZM85.8438 10.0859V39.1328H79.0117V31.6992H70.9766V26.2422L79.0117 26.2422V22.8477L71.5781 22.8477C68.7422 28.7344 63.1992 33.0312 55.3359 35.3086L52.543 29.9805C60.4277 27.5312 65.0898 23.4277 66.207 18.4219H54.7344V12.9648H73.6836C73.6836 14.4902 73.5547 15.9727 73.2969 17.3906L79.0117 17.3906V10.0859H85.8438ZM86.918 43.6875V49.1875H59.1172V36.2539H66.1211V43.6875H86.918ZM105.223 34.793C105.223 37.7578 106.254 40.7871 109.09 42.9141C111.947 40.7012 113.086 37.6504 113.129 34.793V33.9336H119.875V34.793C119.875 38.9609 121.551 42.6133 126.965 44.2031L123.656 49.1445C119.982 47.9629 117.641 45.7715 116.266 42.9141C114.934 45.8145 112.678 48.2422 109.219 49.5312C105.588 48.2637 103.311 45.9004 102 43.043C100.582 45.793 98.2832 47.9629 94.7812 49.1445L91.4297 44.2031C96.7578 42.4414 98.4766 38.6602 98.4766 34.793V33.9336H105.223V34.793ZM123.613 10.0859V32.3438H116.695V10.0859H123.613ZM101.656 11.8906C107.93 11.8906 112.785 15.9297 112.785 21.6445C112.785 27.1875 107.93 31.2695 101.656 31.2695C95.3398 31.2695 90.4844 27.1875 90.5273 21.6445C90.4844 15.9297 95.3398 11.8906 101.656 11.8906ZM101.656 17.6484C99.0352 17.6484 97.2305 18.9805 97.2305 21.6445C97.2305 24.1797 99.0352 25.5977 101.656 25.5547C104.148 25.5977 105.953 24.1797 105.953 21.6445C105.953 18.9805 104.148 17.6484 101.656 17.6484ZM160.48 20.0977V25.4258H132.379V11.418H139.254V20.0977H160.48ZM164.391 28.9492V34.2773L128.125 34.2773V28.9492L164.391 28.9492ZM160.738 43.4727V48.9727L131.906 48.9727V37.0273H138.867V43.4727L160.738 43.4727Z" fill="#11DCA9"/>
<path d="M47.8594 10H57.8594C57.8594 4.47715 53.3822 0 47.8594 0V10ZM47.8594 39.0898V49.0898C53.3822 49.0898 57.8594 44.6127 57.8594 39.0898H47.8594ZM40.9844 39.0898H30.9844C30.9844 44.6127 35.4615 49.0898 40.9844 49.0898V39.0898ZM40.9844 30.4102H50.9844C50.9844 24.8873 46.5072 20.4102 40.9844 20.4102V30.4102ZM37.1172 30.4102H27.1172C27.1172 35.933 31.5943 40.4102 37.1172 40.4102V30.4102ZM37.1172 24.7812V14.7812C31.5943 14.7812 27.1172 19.2584 27.1172 24.7812H37.1172ZM40.9844 24.7812V34.7812C46.5072 34.7812 50.9844 30.3041 50.9844 24.7812H40.9844ZM40.9844 22.1172H50.9844C50.9844 16.5943 46.5072 12.1172 40.9844 12.1172V22.1172ZM37.1172 22.1172H27.1172C27.1172 27.64 31.5943 32.1172 37.1172 32.1172V22.1172ZM37.1172 16.6602V6.66016C31.5943 6.66016 27.1172 11.1373 27.1172 16.6602H37.1172ZM40.9844 16.6602V26.6602C46.5072 26.6602 50.9844 22.183 50.9844 16.6602H40.9844ZM40.9844 10V0C35.4615 0 30.9844 4.47715 30.9844 10H40.9844ZM36.1289 12.6211H46.1289C46.1289 7.09825 41.6518 2.62109 36.1289 2.62109V12.6211ZM36.1289 18.0781V28.0781C41.6518 28.0781 46.1289 23.601 46.1289 18.0781H36.1289ZM33.3789 18.0781V8.07812C27.8561 8.07812 23.3789 12.5553 23.3789 18.0781H33.3789ZM33.3789 28.9492H23.3789C23.3789 31.7565 24.5589 34.4345 26.6306 36.3289C28.7022 38.2233 31.4748 39.1598 34.2709 38.9094L33.3789 28.9492ZM36.2578 28.6914L46.2397 28.0891C46.0769 25.3914 44.8292 22.8746 42.7807 21.1117C40.7323 19.3489 38.0576 18.4902 35.3659 18.7313L36.2578 28.6914ZM36.5586 33.6758L38.1931 43.5413C43.2455 42.7042 46.8489 38.1854 46.5404 33.0734L36.5586 33.6758ZM14.6445 35.0508L4.71146 36.2058C5.29468 41.2215 9.52568 45.0155 14.5751 45.0505L14.6445 35.0508ZM14 29.5078V19.5078C11.1467 19.5078 8.42924 20.7267 6.53173 22.8576C4.63422 24.9886 3.73736 27.8286 4.06693 30.6628L14 29.5078ZM17.6094 29.5078V39.5078C23.1322 39.5078 27.6094 35.0307 27.6094 29.5078H17.6094ZM17.6094 18.0781H27.6094C27.6094 12.5553 23.1322 8.07812 17.6094 8.07812V18.0781ZM14.9453 18.0781H4.94531C4.94531 23.601 9.42247 28.0781 14.9453 28.0781V18.0781ZM14.9453 12.6211V2.62109C9.42247 2.62109 4.94531 7.09825 4.94531 12.6211H14.9453ZM48.7188 43.6875H58.7188C58.7188 38.1647 54.2416 33.6875 48.7188 33.6875V43.6875ZM48.7188 49.1875V59.1875C54.2416 59.1875 58.7188 54.7103 58.7188 49.1875H48.7188ZM20.918 49.1875H10.918C10.918 54.7103 15.3951 59.1875 20.918 59.1875V49.1875ZM20.918 37.0703V27.0703C15.3951 27.0703 10.918 31.5475 10.918 37.0703H20.918ZM27.8789 37.0703H37.8789C37.8789 31.5475 33.4018 27.0703 27.8789 27.0703V37.0703ZM27.8789 43.6875H17.8789C17.8789 49.2103 22.3561 53.6875 27.8789 53.6875V43.6875ZM24.2695 29.3789H14.2695C14.2695 32.0604 15.3465 34.6296 17.2586 36.5096C19.1708 38.3896 21.7578 39.4229 24.439 39.3775L24.2695 29.3789ZM26.8047 29.3359L26.9742 39.3345C32.4301 39.242 36.8047 34.7927 36.8047 29.3359H26.8047ZM26.8047 18.0781H36.8047C36.8047 12.5553 32.3275 8.07812 26.8047 8.07812V18.0781ZM24.2695 18.0781V8.07812C18.7467 8.07812 14.2695 12.5553 14.2695 18.0781H24.2695ZM47.8594 10L37.8594 10V39.0898H47.8594H57.8594V10H47.8594ZM47.8594 39.0898V29.0898H40.9844V39.0898V49.0898H47.8594V39.0898ZM40.9844 39.0898H50.9844V30.4102H40.9844H30.9844V39.0898H40.9844ZM40.9844 30.4102V20.4102H37.1172V30.4102V40.4102H40.9844V30.4102ZM37.1172 30.4102H47.1172V24.7812H37.1172H27.1172V30.4102H37.1172ZM37.1172 24.7812V34.7812H40.9844V24.7812V14.7812H37.1172V24.7812ZM40.9844 24.7812H50.9844V22.1172H40.9844H30.9844V24.7812H40.9844ZM40.9844 22.1172V12.1172H37.1172V22.1172V32.1172H40.9844V22.1172ZM37.1172 22.1172H47.1172V16.6602H37.1172H27.1172V22.1172H37.1172ZM37.1172 16.6602V26.6602H40.9844V16.6602V6.66016H37.1172V16.6602ZM40.9844 16.6602H50.9844V10L40.9844 10H30.9844V16.6602H40.9844ZM40.9844 10V20H47.8594V10V0H40.9844V10ZM36.1289 12.6211H26.1289V18.0781H36.1289H46.1289V12.6211H36.1289ZM36.1289 18.0781V8.07812H33.3789V18.0781V28.0781H36.1289V18.0781ZM33.3789 18.0781H23.3789V28.9492H33.3789H43.3789V18.0781H33.3789ZM33.3789 28.9492L34.2709 38.9094L37.1498 38.6515L36.2578 28.6914L35.3659 18.7313L32.487 18.9891L33.3789 28.9492ZM36.2578 28.6914L26.276 29.2938L26.5768 34.2781L36.5586 33.6758L46.5404 33.0734L46.2397 28.0891L36.2578 28.6914ZM36.5586 33.6758L34.9241 23.8103C28.5198 24.8713 20.7372 25.0928 14.714 25.051L14.6445 35.0508L14.5751 45.0505C20.9269 45.0947 30.074 44.8865 38.1931 43.5413L36.5586 33.6758ZM14.6445 35.0508L24.5776 33.8958L23.9331 28.3528L14 29.5078L4.06693 30.6628L4.71146 36.2058L14.6445 35.0508ZM14 29.5078L14 39.5078H17.6094V29.5078V19.5078H14V29.5078ZM17.6094 29.5078H27.6094V18.0781H17.6094H7.60938V29.5078H17.6094ZM17.6094 18.0781V8.07812H14.9453V18.0781V28.0781H17.6094V18.0781ZM14.9453 18.0781H24.9453V12.6211H14.9453H4.94531V18.0781H14.9453ZM14.9453 12.6211V22.6211H36.1289V12.6211V2.62109L14.9453 2.62109V12.6211ZM48.7188 43.6875H38.7188V49.1875H48.7188H58.7188V43.6875H48.7188ZM48.7188 49.1875V39.1875H20.918V49.1875V59.1875H48.7188V49.1875ZM20.918 49.1875H30.918V37.0703H20.918H10.918V49.1875H20.918ZM20.918 37.0703V47.0703H27.8789V37.0703V27.0703H20.918V37.0703ZM27.8789 37.0703H17.8789V43.6875H27.8789H37.8789V37.0703H27.8789ZM27.8789 43.6875V53.6875H48.7188V43.6875V33.6875H27.8789V43.6875ZM24.2695 29.3789L24.439 39.3775L26.9742 39.3345L26.8047 29.3359L26.6352 19.3374L24.1001 19.3803L24.2695 29.3789ZM26.8047 29.3359H36.8047V18.0781H26.8047H16.8047V29.3359H26.8047ZM26.8047 18.0781V8.07812H24.2695V18.0781V28.0781H26.8047V18.0781ZM24.2695 18.0781H14.2695V29.3789H24.2695H34.2695V18.0781H24.2695ZM85.8438 10.0859H95.8438C95.8438 4.56309 91.3666 0.0859375 85.8438 0.0859375V10.0859ZM85.8438 39.1328V49.1328C91.3666 49.1328 95.8438 44.6557 95.8438 39.1328H85.8438ZM79.0117 39.1328H69.0117C69.0117 44.6557 73.4889 49.1328 79.0117 49.1328V39.1328ZM79.0117 31.6992H89.0117C89.0117 26.1764 84.5346 21.6992 79.0117 21.6992V31.6992ZM70.9766 31.6992H60.9766C60.9766 37.2221 65.4537 41.6992 70.9766 41.6992V31.6992ZM70.9766 26.2422V16.2422C65.4537 16.2422 60.9766 20.7193 60.9766 26.2422H70.9766ZM79.0117 26.2422V36.2422C84.5346 36.2422 89.0117 31.765 89.0117 26.2422H79.0117ZM79.0117 22.8477H89.0117C89.0117 17.3248 84.5346 12.8477 79.0117 12.8477V22.8477ZM71.5781 22.8477V12.8477C67.7374 12.8477 64.236 15.0474 62.5691 18.5075L71.5781 22.8477ZM55.3359 35.3086L46.479 39.9513C48.686 44.1616 53.5518 46.2363 58.1178 44.9139L55.3359 35.3086ZM52.543 29.9805L49.5765 20.4306C46.7418 21.3111 44.4447 23.4055 43.3069 26.1471C42.169 28.8887 42.3079 31.9942 43.6861 34.6232L52.543 29.9805ZM66.207 18.4219L75.9669 20.6C76.628 17.6381 75.9082 14.5363 74.0103 12.1681C72.1124 9.80002 69.2418 8.42187 66.207 8.42187V18.4219ZM54.7344 18.4219H44.7344C44.7344 23.9447 49.2115 28.4219 54.7344 28.4219V18.4219ZM54.7344 12.9648V2.96484C49.2115 2.96484 44.7344 7.442 44.7344 12.9648H54.7344ZM73.6836 12.9648L83.6836 12.9648C83.6836 7.442 79.2064 2.96484 73.6836 2.96484V12.9648ZM73.2969 17.3906L63.4582 15.6018C62.9277 18.5192 63.7194 21.5215 65.6194 23.7981C67.5193 26.0747 70.3316 27.3906 73.2969 27.3906V17.3906ZM79.0117 17.3906V27.3906C84.5346 27.3906 89.0117 22.9135 89.0117 17.3906H79.0117ZM79.0117 10.0859V0.0859375C73.4889 0.0859375 69.0117 4.56309 69.0117 10.0859H79.0117ZM86.918 43.6875H96.918C96.918 38.1647 92.4408 33.6875 86.918 33.6875V43.6875ZM86.918 49.1875V59.1875C92.4408 59.1875 96.918 54.7103 96.918 49.1875H86.918ZM59.1172 49.1875H49.1172C49.1172 54.7103 53.5943 59.1875 59.1172 59.1875V49.1875ZM59.1172 36.2539V26.2539C53.5943 26.2539 49.1172 30.7311 49.1172 36.2539H59.1172ZM66.1211 36.2539H76.1211C76.1211 30.7311 71.6439 26.2539 66.1211 26.2539V36.2539ZM66.1211 43.6875H56.1211C56.1211 49.2103 60.5982 53.6875 66.1211 53.6875V43.6875ZM85.8438 10.0859H75.8438V39.1328H85.8438H95.8438V10.0859H85.8438ZM85.8438 39.1328V29.1328H79.0117V39.1328V49.1328H85.8438V39.1328ZM79.0117 39.1328H89.0117V31.6992H79.0117H69.0117V39.1328H79.0117ZM79.0117 31.6992V21.6992L70.9766 21.6992V31.6992V41.6992H79.0117V31.6992ZM70.9766 31.6992H80.9766V26.2422L70.9766 26.2422H60.9766V31.6992H70.9766ZM70.9766 26.2422V36.2422H79.0117V26.2422V16.2422L70.9766 16.2422V26.2422ZM79.0117 26.2422H89.0117V22.8477H79.0117L69.0117 22.8477V26.2422L79.0117 26.2422ZM79.0117 22.8477V12.8477L71.5781 12.8477V22.8477V32.8477H79.0117V22.8477ZM71.5781 22.8477L62.5691 18.5075C61.2439 21.2582 58.3688 24.0193 52.5541 25.7033L55.3359 35.3086L58.1178 44.9139C68.0296 42.0432 76.2405 36.2106 80.5872 27.1878L71.5781 22.8477ZM55.3359 35.3086L64.1929 30.6659L61.3999 25.3377L52.543 29.9805L43.6861 34.6232L46.479 39.9513L55.3359 35.3086ZM52.543 29.9805L55.5094 39.5303C64.8887 36.6169 73.7118 30.7047 75.9669 20.6L66.207 18.4219L56.4471 16.2437C56.4347 16.2994 56.3408 16.7675 55.4159 17.5579C54.4228 18.4067 52.603 19.4905 49.5765 20.4306L52.543 29.9805ZM66.207 18.4219V8.42187H54.7344V18.4219V28.4219H66.207V18.4219ZM54.7344 18.4219H64.7344V12.9648H54.7344H44.7344V18.4219H54.7344ZM54.7344 12.9648V22.9648H73.6836V12.9648V2.96484L54.7344 2.96484V12.9648ZM73.6836 12.9648H63.6836C63.6836 13.9294 63.6019 14.8113 63.4582 15.6018L73.2969 17.3906L83.1356 19.1795C83.5075 17.134 83.6836 15.0511 83.6836 12.9648L73.6836 12.9648ZM73.2969 17.3906V27.3906L79.0117 27.3906V17.3906V7.39062H73.2969V17.3906ZM79.0117 17.3906H89.0117V10.0859H79.0117H69.0117V17.3906L79.0117 17.3906ZM79.0117 10.0859V20.0859H85.8438V10.0859V0.0859375L79.0117 0.0859375V10.0859ZM86.918 43.6875H76.918V49.1875H86.918H96.918V43.6875H86.918ZM86.918 49.1875V39.1875H59.1172V49.1875V59.1875H86.918V49.1875ZM59.1172 49.1875H69.1172V36.2539H59.1172H49.1172V49.1875H59.1172ZM59.1172 36.2539V46.2539H66.1211V36.2539V26.2539H59.1172V36.2539ZM66.1211 36.2539H56.1211V43.6875H66.1211H76.1211V36.2539H66.1211ZM66.1211 43.6875V53.6875H86.918V43.6875V33.6875H66.1211V43.6875ZM109.09 42.9141L103.09 50.9141C106.691 53.6151 111.654 53.5768 115.213 50.8204L109.09 42.9141ZM113.129 34.793L123.128 34.9433C123.129 34.8932 123.129 34.8431 123.129 34.793H113.129ZM113.129 33.9336V23.9336C107.606 23.9336 103.129 28.4107 103.129 33.9336H113.129ZM119.875 33.9336H129.875C129.875 28.4107 125.398 23.9336 119.875 23.9336V33.9336ZM126.965 44.2031L135.274 49.7668C137.046 47.1212 137.451 43.7903 136.367 40.7969C135.282 37.8034 132.837 35.5053 129.782 34.6083L126.965 44.2031ZM123.656 49.1445L120.594 58.6642C124.843 60.0307 129.483 58.4166 131.966 54.7082L123.656 49.1445ZM116.266 42.9141L125.277 38.5779C123.596 35.0863 120.05 32.8797 116.176 32.9145C112.301 32.9493 108.795 35.2193 107.178 38.7406L116.266 42.9141ZM109.219 49.5312L105.923 58.9724C108.124 59.7411 110.526 59.7161 112.711 58.9017L109.219 49.5312ZM102 43.043L111.09 38.8741C109.495 35.3965 106.055 33.1337 102.23 33.0456C98.4053 32.9575 94.8654 35.0596 93.112 38.4601L102 43.043ZM94.7812 49.1445L86.5053 54.7578C89.0276 58.4766 93.7207 60.0563 97.9784 58.6197L94.7812 49.1445ZM91.4297 44.2031L88.2904 34.7087C85.3139 35.6928 82.9711 38.0159 81.962 40.9841C80.9528 43.9522 81.394 47.2219 83.1537 49.8164L91.4297 44.2031ZM98.4766 33.9336V23.9336C92.9537 23.9336 88.4766 28.4107 88.4766 33.9336H98.4766ZM105.223 33.9336H115.223C115.223 28.4107 110.746 23.9336 105.223 23.9336V33.9336ZM123.613 10.0859H133.613C133.613 4.56309 129.136 0.0859375 123.613 0.0859375V10.0859ZM123.613 32.3438V42.3438C129.136 42.3438 133.613 37.8666 133.613 32.3438H123.613ZM116.695 32.3438H106.695C106.695 37.8666 111.172 42.3438 116.695 42.3438V32.3438ZM116.695 10.0859V0.0859375C111.172 0.0859375 106.695 4.56309 106.695 10.0859L116.695 10.0859ZM90.5273 21.6445L100.527 21.722C100.527 21.6711 100.527 21.6202 100.527 21.5693L90.5273 21.6445ZM101.656 25.5547L101.829 15.5562C101.717 15.5542 101.604 15.5542 101.492 15.556L101.656 25.5547ZM105.223 34.793H95.2227C95.2227 40.1276 97.1726 46.4761 103.09 50.9141L109.09 42.9141L115.09 34.9141C115.076 34.9034 115.078 34.9037 115.091 34.9168C115.105 34.9299 115.124 34.9509 115.147 34.9793C115.195 35.0405 115.229 35.1019 115.248 35.1457C115.266 35.1857 115.26 35.185 115.249 35.1276C115.237 35.068 115.223 34.9576 115.223 34.793H105.223ZM109.09 42.9141L115.213 50.8204C120.808 46.4873 123.046 40.392 123.128 34.9433L113.129 34.793L103.13 34.6426C103.128 34.8084 103.094 34.8854 103.092 34.8903C103.091 34.8911 103.092 34.8915 103.087 34.898C103.082 34.9034 103.051 34.9426 102.967 35.0078L109.09 42.9141ZM113.129 34.793H123.129V33.9336H113.129H103.129V34.793H113.129ZM113.129 33.9336V43.9336H119.875V33.9336V23.9336H113.129V33.9336ZM119.875 33.9336H109.875V34.793H119.875H129.875V33.9336H119.875ZM119.875 34.793H109.875C109.875 38.1525 110.546 42.2523 113.086 46.037C115.716 49.9562 119.632 52.4721 124.147 53.798L126.965 44.2031L129.782 34.6083C129.287 34.4628 129.159 34.3534 129.236 34.4064C129.274 34.4323 129.347 34.4876 129.436 34.5778C129.526 34.6685 129.614 34.7752 129.693 34.8927C129.772 35.0092 129.827 35.1161 129.864 35.2011C129.9 35.2846 129.913 35.3352 129.915 35.3406C129.916 35.3449 129.905 35.305 129.895 35.212C129.885 35.1186 129.875 34.9808 129.875 34.793H119.875ZM126.965 44.2031L118.655 38.6395L115.347 43.5809L123.656 49.1445L131.966 54.7082L135.274 49.7668L126.965 44.2031ZM123.656 49.1445L126.718 39.6248C126.031 39.4037 125.743 39.1827 125.642 39.0959C125.546 39.012 125.422 38.8797 125.277 38.5779L116.266 42.9141L107.255 47.2502C109.84 52.6223 114.358 56.6584 120.594 58.6642L123.656 49.1445ZM116.266 42.9141L107.178 38.7406C106.966 39.2032 106.748 39.4828 106.569 39.6572C106.405 39.8166 106.162 39.9985 105.727 40.1608L109.219 49.5312L112.711 58.9017C118.949 56.5768 123.058 52.0844 125.353 47.0876L116.266 42.9141ZM109.219 49.5312L112.515 40.0901C111.944 39.8908 111.682 39.6844 111.558 39.5683C111.423 39.4432 111.259 39.2435 111.09 38.8741L102 43.043L92.9104 47.2119C95.2816 52.3818 99.5628 56.7521 105.923 58.9724L109.219 49.5312ZM102 43.043L93.112 38.4601C92.9301 38.8127 92.76 39.0058 92.6124 39.134C92.4689 39.2587 92.1793 39.4686 91.5841 39.6694L94.7812 49.1445L97.9784 58.6197C104.013 56.5833 108.316 52.6142 110.888 47.6259L102 43.043ZM94.7812 49.1445L103.057 43.5313L99.7056 38.5899L91.4297 44.2031L83.1537 49.8164L86.5053 54.7578L94.7812 49.1445ZM91.4297 44.2031L94.569 53.6976C99.0443 52.2179 102.775 49.5914 105.28 45.8221C107.721 42.1489 108.477 38.1773 108.477 34.793H98.4766H88.4766C88.4766 35.0272 88.4498 35.1179 88.4559 35.0949C88.4596 35.0809 88.472 35.0384 88.4999 34.975C88.5283 34.9106 88.5685 34.8341 88.6223 34.7531C88.6765 34.6716 88.7346 34.6003 88.7902 34.5425C88.8456 34.4849 88.8847 34.4549 88.8937 34.4483C88.9159 34.4322 88.7591 34.5537 88.2904 34.7087L91.4297 44.2031ZM98.4766 34.793H108.477V33.9336H98.4766H88.4766V34.793H98.4766ZM98.4766 33.9336V43.9336H105.223V33.9336V23.9336H98.4766V33.9336ZM105.223 33.9336H95.2227V34.793H105.223H115.223V33.9336H105.223ZM123.613 10.0859H113.613V32.3438H123.613H133.613V10.0859H123.613ZM123.613 32.3438V22.3437H116.695V32.3438V42.3438H123.613V32.3438ZM116.695 32.3438H126.695V10.0859H116.695L106.695 10.0859V32.3438H116.695ZM116.695 10.0859V20.0859H123.613V10.0859V0.0859375L116.695 0.0859375V10.0859ZM101.656 11.8906V21.8906C102.677 21.8906 103.061 22.2137 103.04 22.1955C103.026 22.1828 102.944 22.1039 102.871 21.9477C102.837 21.874 102.813 21.8019 102.799 21.7389C102.785 21.6758 102.785 21.6412 102.785 21.6445H112.785H122.785C122.785 9.07375 112.018 1.89062 101.656 1.89062V11.8906ZM112.785 21.6445H102.785C102.785 21.5434 102.813 21.3695 102.899 21.1888C102.938 21.1079 102.978 21.0461 103.011 21.0035C103.044 20.9614 103.065 20.9436 103.064 20.9445C103.057 20.9503 102.651 21.2695 101.656 21.2695V31.2695V41.2695C111.955 41.2695 122.785 34.0972 122.785 21.6445H112.785ZM101.656 31.2695V21.2695C100.621 21.2695 100.21 20.9393 100.217 20.9445C100.225 20.9516 100.317 21.0366 100.405 21.2229C100.499 21.4208 100.528 21.6105 100.527 21.722L90.5273 21.6445L80.5276 21.567C80.4303 34.123 91.3682 41.2695 101.656 41.2695V31.2695ZM90.5273 21.6445L100.527 21.5693C100.527 21.5687 100.527 21.5792 100.525 21.5995C100.523 21.6199 100.519 21.6477 100.512 21.6817C100.497 21.7522 100.471 21.8323 100.433 21.9138C100.353 22.0865 100.262 22.1766 100.24 22.1955C100.206 22.2247 100.595 21.8906 101.656 21.8906V11.8906V1.89062C91.3037 1.89062 80.4324 9.04869 80.5276 21.7197L90.5273 21.6445ZM101.656 17.6484V7.64844C98.7775 7.64844 95.0869 8.37445 91.9612 11.0475C88.6013 13.9207 87.2305 17.8978 87.2305 21.6445H97.2305H107.23C107.23 22.7272 106.762 24.7062 104.96 26.2474C103.392 27.5884 101.914 27.6484 101.656 27.6484V17.6484ZM97.2305 21.6445H87.2305C87.2305 25.4491 88.6831 29.363 91.9612 32.1664C95.0554 34.8124 98.7544 35.6036 101.82 35.5533L101.656 25.5547L101.492 15.556C101.937 15.5487 103.423 15.6524 104.96 16.9664C106.68 18.4378 107.23 20.3751 107.23 21.6445H97.2305ZM101.656 25.5547L101.484 35.5532C104.603 35.607 108.277 34.7529 111.317 32.0987C114.511 29.3094 115.953 25.4398 115.953 21.6445H105.953H95.9531C95.9531 20.3844 96.4929 18.4913 98.1617 17.0341C99.6758 15.7119 101.201 15.5454 101.829 15.5562L101.656 25.5547ZM105.953 21.6445H115.953C115.953 17.9056 114.591 13.9747 111.317 11.1151C108.243 8.43063 104.581 7.64844 101.656 7.64844V17.6484V27.6484C101.224 27.6484 99.7105 27.5323 98.1617 26.1798C96.4124 24.6522 95.9531 22.7194 95.9531 21.6445H105.953ZM160.48 20.0977H170.48C170.48 14.5748 166.003 10.0977 160.48 10.0977V20.0977ZM160.48 25.4258V35.4258C166.003 35.4258 170.48 30.9486 170.48 25.4258H160.48ZM132.379 25.4258H122.379C122.379 30.9486 126.856 35.4258 132.379 35.4258V25.4258ZM132.379 11.418V1.41797C126.856 1.41797 122.379 5.89512 122.379 11.418H132.379ZM139.254 11.418H149.254C149.254 5.89512 144.777 1.41797 139.254 1.41797V11.418ZM139.254 20.0977H129.254C129.254 25.6205 133.731 30.0977 139.254 30.0977V20.0977ZM164.391 28.9492H174.391C174.391 23.4264 169.913 18.9492 164.391 18.9492V28.9492ZM164.391 34.2773V44.2773C169.913 44.2773 174.391 39.8002 174.391 34.2773H164.391ZM128.125 34.2773H118.125C118.125 39.8002 122.602 44.2773 128.125 44.2773V34.2773ZM128.125 28.9492V18.9492C122.602 18.9492 118.125 23.4264 118.125 28.9492H128.125ZM160.738 43.4727H170.738C170.738 37.9498 166.261 33.4727 160.738 33.4727V43.4727ZM160.738 48.9727V58.9727C166.261 58.9727 170.738 54.4955 170.738 48.9727H160.738ZM131.906 48.9727H121.906C121.906 54.4955 126.383 58.9727 131.906 58.9727V48.9727ZM131.906 37.0273V27.0273C126.383 27.0273 121.906 31.5045 121.906 37.0273H131.906ZM138.867 37.0273L148.867 37.0273C148.867 31.5045 144.39 27.0273 138.867 27.0273V37.0273ZM138.867 43.4727H128.867C128.867 48.9955 133.344 53.4727 138.867 53.4727V43.4727ZM160.48 20.0977H150.48V25.4258H160.48H170.48V20.0977H160.48ZM160.48 25.4258V15.4258H132.379V25.4258V35.4258L160.48 35.4258V25.4258ZM132.379 25.4258H142.379V11.418H132.379H122.379V25.4258H132.379ZM132.379 11.418V21.418H139.254V11.418V1.41797H132.379V11.418ZM139.254 11.418H129.254V20.0977H139.254H149.254V11.418H139.254ZM139.254 20.0977V30.0977L160.48 30.0977V20.0977V10.0977H139.254V20.0977ZM164.391 28.9492H154.391V34.2773H164.391H174.391V28.9492H164.391ZM164.391 34.2773V24.2773H128.125V34.2773V44.2773L164.391 44.2773V34.2773ZM128.125 34.2773H138.125V28.9492H128.125H118.125V34.2773H128.125ZM128.125 28.9492V38.9492L164.391 38.9492V28.9492V18.9492H128.125V28.9492ZM160.738 43.4727H150.738V48.9727H160.738H170.738V43.4727H160.738ZM160.738 48.9727V38.9727L131.906 38.9727V48.9727V58.9727L160.738 58.9727V48.9727ZM131.906 48.9727L141.906 48.9727V37.0273L131.906 37.0273H121.906V48.9727H131.906ZM131.906 37.0273V47.0273H138.867V37.0273V27.0273H131.906V37.0273ZM138.867 37.0273H128.867V43.4727H138.867L148.867 43.4727V37.0273L138.867 37.0273ZM138.867 43.4727V53.4727L160.738 53.4727V43.4727V33.4727L138.867 33.4727V43.4727Z" fill="white" mask="url(#path-1-outside-1_6526_5748)"/>
</g>
<defs>
<filter id="filter0_d_6526_5748" x="0" y="0" width="178.391" height="67.5312" filterUnits="userSpaceOnUse" color-interpolation-filters="sRGB">
<feFlood flood-opacity="0" result="BackgroundImageFix"/>
<feColorMatrix in="SourceAlpha" type="matrix" values="0 0 0 0 0 0 0 0 0 0 0 0 0 0 0 0 0 0 127 0" result="hardAlpha"/>
<feOffset dy="4"/>
<feGaussianBlur stdDeviation="2"/>
<feComposite in2="hardAlpha" operator="out"/>
<feColorMatrix type="matrix" values="0 0 0 0 0 0 0 0 0 0 0 0 0 0 0 0 0 0 0.07 0"/>
<feBlend mode="normal" in2="BackgroundImageFix" result="effect1_dropShadow_6526_5748"/>
<feBlend mode="normal" in="SourceGraphic" in2="effect1_dropShadow_6526_5748" result="shape"/>
</filter>
</defs>
</svg>
