<svg width="177" height="68" viewBox="0 0 177 68" fill="none" xmlns="http://www.w3.org/2000/svg">
<g filter="url(#filter0_d_6524_1749)">
<mask id="path-1-outside-1_6524_1749" maskUnits="userSpaceOnUse" x="3.09766" y="-0.507813" width="170" height="61" fill="black">
<rect fill="white" x="3.09766" y="-0.507813" width="170" height="61"/>
<path d="M50.3086 39.9492V45.6641H14V39.9492H28.6523V34.0195H16.8359V28.7344H21.6055V18.4648H16.6211V13.0508H47.5586V18.4648H42.4453V28.7344H47.3438V34.0195H35.4844V39.9492H50.3086ZM28.4805 28.7344H35.6133V18.4648H28.4805V28.7344ZM88.293 28.3477V33.8047H52.0273V28.3477H59.6758V24.0938C56.9473 22.7832 55.4004 20.8281 55.4219 18.3359C55.3789 13.4805 61.2227 10.5156 70.1602 10.4727C79.0117 10.5156 84.8125 13.4805 84.8555 18.3359C84.834 20.8926 83.2012 22.8691 80.3438 24.1797V28.3477H88.293ZM70.0742 35.2227C78.7109 35.2227 83.9531 37.8008 83.9961 42.4844C83.9531 47.2109 78.7109 49.7461 70.0742 49.7461C61.3086 49.7461 56.0234 47.2109 56.0234 42.4844C56.0234 37.8008 61.3086 35.2227 70.0742 35.2227ZM70.0742 40.3789C65.1328 40.4219 63.0273 40.9375 63.0703 42.4844C63.0273 44.0312 65.1328 44.6758 70.0742 44.6758C74.8867 44.6758 77.0781 44.0312 77.0781 42.4844C77.0781 40.9375 74.8867 40.4219 70.0742 40.3789ZM70.1602 15.7578C65.0898 15.7578 62.5547 16.5312 62.5977 18.3359C62.5547 20.0977 65.0898 20.8281 70.1602 20.8281C75.1016 20.8281 77.7227 20.0977 77.7227 18.3359C77.7227 16.5312 75.1016 15.7578 70.1602 15.7578ZM66.6367 28.3477H73.4688V25.8125C72.416 25.9414 71.3203 25.9844 70.1602 25.9844C68.9141 25.9844 67.7539 25.9199 66.6367 25.8125V28.3477ZM113.086 11.9336V17.3477H105.867C106.211 21.3652 108.51 25.4902 114.504 27.4453L111.195 32.7305C106.92 31.4629 104.084 28.9062 102.387 25.6836C100.625 29.25 97.6602 32.1074 93.1055 33.4609L89.582 28.0469C95.9844 26.1348 98.3262 21.5801 98.7344 17.3477H91.4727V11.9336L113.086 11.9336ZM123.871 35.1367V49.7461H116.996V40.5938H96.2422V35.1367H123.871ZM123.871 10V33.6328H116.996V24.6094H112.055V19.0234H116.996V10H123.871ZM161.598 10.0859V38.3164H154.68V10.0859H161.598ZM162.543 43.6875V49.1875L134.398 49.1875V35.4805L141.359 35.4805V43.6875H162.543ZM139.641 12.4492C145.828 12.4492 150.77 16.7461 150.77 22.6328C150.77 28.6484 145.828 32.9023 139.641 32.9023C133.453 32.9023 128.469 28.6484 128.512 22.6328C128.469 16.7461 133.453 12.4492 139.641 12.4492ZM139.641 18.4219C137.105 18.4219 135.215 19.8398 135.215 22.6328C135.215 25.5547 137.105 26.9297 139.641 26.9297C142.047 26.9297 143.938 25.5547 143.938 22.6328C143.938 19.8398 142.047 18.4219 139.641 18.4219Z"/>
</mask>
<path d="M50.3086 39.9492V45.6641H14V39.9492H28.6523V34.0195H16.8359V28.7344H21.6055V18.4648H16.6211V13.0508H47.5586V18.4648H42.4453V28.7344H47.3438V34.0195H35.4844V39.9492H50.3086ZM28.4805 28.7344H35.6133V18.4648H28.4805V28.7344ZM88.293 28.3477V33.8047H52.0273V28.3477H59.6758V24.0938C56.9473 22.7832 55.4004 20.8281 55.4219 18.3359C55.3789 13.4805 61.2227 10.5156 70.1602 10.4727C79.0117 10.5156 84.8125 13.4805 84.8555 18.3359C84.834 20.8926 83.2012 22.8691 80.3438 24.1797V28.3477H88.293ZM70.0742 35.2227C78.7109 35.2227 83.9531 37.8008 83.9961 42.4844C83.9531 47.2109 78.7109 49.7461 70.0742 49.7461C61.3086 49.7461 56.0234 47.2109 56.0234 42.4844C56.0234 37.8008 61.3086 35.2227 70.0742 35.2227ZM70.0742 40.3789C65.1328 40.4219 63.0273 40.9375 63.0703 42.4844C63.0273 44.0312 65.1328 44.6758 70.0742 44.6758C74.8867 44.6758 77.0781 44.0312 77.0781 42.4844C77.0781 40.9375 74.8867 40.4219 70.0742 40.3789ZM70.1602 15.7578C65.0898 15.7578 62.5547 16.5312 62.5977 18.3359C62.5547 20.0977 65.0898 20.8281 70.1602 20.8281C75.1016 20.8281 77.7227 20.0977 77.7227 18.3359C77.7227 16.5312 75.1016 15.7578 70.1602 15.7578ZM66.6367 28.3477H73.4688V25.8125C72.416 25.9414 71.3203 25.9844 70.1602 25.9844C68.9141 25.9844 67.7539 25.9199 66.6367 25.8125V28.3477ZM113.086 11.9336V17.3477H105.867C106.211 21.3652 108.51 25.4902 114.504 27.4453L111.195 32.7305C106.92 31.4629 104.084 28.9062 102.387 25.6836C100.625 29.25 97.6602 32.1074 93.1055 33.4609L89.582 28.0469C95.9844 26.1348 98.3262 21.5801 98.7344 17.3477H91.4727V11.9336L113.086 11.9336ZM123.871 35.1367V49.7461H116.996V40.5938H96.2422V35.1367H123.871ZM123.871 10V33.6328H116.996V24.6094H112.055V19.0234H116.996V10H123.871ZM161.598 10.0859V38.3164H154.68V10.0859H161.598ZM162.543 43.6875V49.1875L134.398 49.1875V35.4805L141.359 35.4805V43.6875H162.543ZM139.641 12.4492C145.828 12.4492 150.77 16.7461 150.77 22.6328C150.77 28.6484 145.828 32.9023 139.641 32.9023C133.453 32.9023 128.469 28.6484 128.512 22.6328C128.469 16.7461 133.453 12.4492 139.641 12.4492ZM139.641 18.4219C137.105 18.4219 135.215 19.8398 135.215 22.6328C135.215 25.5547 137.105 26.9297 139.641 26.9297C142.047 26.9297 143.938 25.5547 143.938 22.6328C143.938 19.8398 142.047 18.4219 139.641 18.4219Z" fill="#11DCA9"/>
<path d="M50.3086 39.9492H60.3086C60.3086 34.4264 55.8314 29.9492 50.3086 29.9492V39.9492ZM50.3086 45.6641V55.6641C55.8314 55.6641 60.3086 51.1869 60.3086 45.6641H50.3086ZM14 45.6641H4C4 51.1869 8.47715 55.6641 14 55.6641V45.6641ZM14 39.9492L14 29.9492C8.47715 29.9492 4 34.4264 4 39.9492H14ZM28.6523 39.9492V49.9492C34.1752 49.9492 38.6523 45.4721 38.6523 39.9492H28.6523ZM28.6523 34.0195H38.6523C38.6523 28.4967 34.1752 24.0195 28.6523 24.0195V34.0195ZM16.8359 34.0195H6.83594C6.83594 39.5424 11.3131 44.0195 16.8359 44.0195V34.0195ZM16.8359 28.7344V18.7344C11.3131 18.7344 6.83594 23.2115 6.83594 28.7344H16.8359ZM21.6055 28.7344V38.7344C27.1283 38.7344 31.6055 34.2572 31.6055 28.7344H21.6055ZM21.6055 18.4648H31.6055C31.6055 12.942 27.1283 8.46484 21.6055 8.46484V18.4648ZM16.6211 18.4648H6.62109C6.62109 23.9877 11.0982 28.4648 16.6211 28.4648V18.4648ZM16.6211 13.0508V3.05078C11.0982 3.05078 6.62109 7.52793 6.62109 13.0508H16.6211ZM47.5586 13.0508H57.5586C57.5586 7.52793 53.0814 3.05078 47.5586 3.05078V13.0508ZM47.5586 18.4648V28.4648C53.0814 28.4648 57.5586 23.9877 57.5586 18.4648H47.5586ZM42.4453 18.4648V8.46484C36.9225 8.46484 32.4453 12.942 32.4453 18.4648H42.4453ZM42.4453 28.7344H32.4453C32.4453 34.2572 36.9225 38.7344 42.4453 38.7344V28.7344ZM47.3438 28.7344H57.3438C57.3438 23.2115 52.8666 18.7344 47.3438 18.7344V28.7344ZM47.3438 34.0195V44.0195C52.8666 44.0195 57.3438 39.5424 57.3438 34.0195H47.3438ZM35.4844 34.0195V24.0195C29.9615 24.0195 25.4844 28.4967 25.4844 34.0195H35.4844ZM35.4844 39.9492H25.4844C25.4844 45.4721 29.9615 49.9492 35.4844 49.9492V39.9492ZM28.4805 28.7344H18.4805C18.4805 34.2572 22.9576 38.7344 28.4805 38.7344V28.7344ZM35.6133 28.7344V38.7344C41.1361 38.7344 45.6133 34.2572 45.6133 28.7344H35.6133ZM35.6133 18.4648H45.6133C45.6133 12.942 41.1361 8.46484 35.6133 8.46484V18.4648ZM28.4805 18.4648V8.46484C22.9576 8.46484 18.4805 12.942 18.4805 18.4648H28.4805ZM50.3086 39.9492H40.3086V45.6641H50.3086H60.3086V39.9492H50.3086ZM50.3086 45.6641V35.6641H14V45.6641V55.6641H50.3086V45.6641ZM14 45.6641H24V39.9492H14H4V45.6641H14ZM14 39.9492V49.9492H28.6523V39.9492V29.9492H14L14 39.9492ZM28.6523 39.9492H38.6523V34.0195H28.6523H18.6523V39.9492H28.6523ZM28.6523 34.0195V24.0195H16.8359V34.0195V44.0195H28.6523V34.0195ZM16.8359 34.0195H26.8359V28.7344H16.8359H6.83594V34.0195H16.8359ZM16.8359 28.7344V38.7344H21.6055V28.7344V18.7344H16.8359V28.7344ZM21.6055 28.7344H31.6055V18.4648H21.6055H11.6055V28.7344H21.6055ZM21.6055 18.4648V8.46484H16.6211V18.4648V28.4648H21.6055V18.4648ZM16.6211 18.4648H26.6211V13.0508H16.6211H6.62109V18.4648H16.6211ZM16.6211 13.0508V23.0508H47.5586V13.0508V3.05078L16.6211 3.05078V13.0508ZM47.5586 13.0508H37.5586V18.4648H47.5586H57.5586V13.0508H47.5586ZM47.5586 18.4648V8.46484L42.4453 8.46484V18.4648V28.4648H47.5586V18.4648ZM42.4453 18.4648H32.4453V28.7344H42.4453H52.4453V18.4648H42.4453ZM42.4453 28.7344V38.7344H47.3438V28.7344V18.7344H42.4453V28.7344ZM47.3438 28.7344H37.3438V34.0195H47.3438H57.3438V28.7344H47.3438ZM47.3438 34.0195V24.0195H35.4844V34.0195V44.0195H47.3438V34.0195ZM35.4844 34.0195H25.4844V39.9492H35.4844H45.4844V34.0195H35.4844ZM35.4844 39.9492V49.9492H50.3086V39.9492V29.9492H35.4844V39.9492ZM28.4805 28.7344V38.7344H35.6133V28.7344V18.7344H28.4805V28.7344ZM35.6133 28.7344H45.6133V18.4648H35.6133H25.6133V28.7344H35.6133ZM35.6133 18.4648V8.46484H28.4805V18.4648V28.4648H35.6133V18.4648ZM28.4805 18.4648H18.4805V28.7344H28.4805H38.4805V18.4648H28.4805ZM88.293 28.3477H98.293C98.293 22.8248 93.8158 18.3477 88.293 18.3477V28.3477ZM88.293 33.8047V43.8047C93.8158 43.8047 98.293 39.3275 98.293 33.8047H88.293ZM52.0273 33.8047H42.0273C42.0273 39.3275 46.5045 43.8047 52.0273 43.8047V33.8047ZM52.0273 28.3477V18.3477C46.5045 18.3477 42.0273 22.8248 42.0273 28.3477H52.0273ZM59.6758 28.3477V38.3477C65.1986 38.3477 69.6758 33.8705 69.6758 28.3477H59.6758ZM59.6758 24.0938H69.6758C69.6758 20.2488 67.4713 16.7443 64.0054 15.0796L59.6758 24.0938ZM55.4219 18.3359L65.4215 18.4221C65.422 18.3639 65.422 18.3057 65.4215 18.2474L55.4219 18.3359ZM70.1602 10.4727L70.2087 0.472774C70.1765 0.472618 70.1443 0.472617 70.1121 0.472772L70.1602 10.4727ZM84.8555 18.3359L94.8551 18.42C94.8556 18.3625 94.8556 18.305 94.8551 18.2474L84.8555 18.3359ZM80.3438 24.1797L76.1749 15.0901C72.6216 16.7198 70.3438 20.2705 70.3438 24.1797L80.3438 24.1797ZM80.3438 28.3477L70.3438 28.3477C70.3438 33.8705 74.8209 38.3477 80.3438 38.3477V28.3477ZM83.9961 42.4844L93.9957 42.5753C93.9962 42.5144 93.9962 42.4535 93.9957 42.3926L83.9961 42.4844ZM70.0742 40.3789L70.1635 30.3793C70.1048 30.3788 70.046 30.3788 69.9873 30.3793L70.0742 40.3789ZM63.0703 42.4844L73.0665 42.762C73.0716 42.577 73.0716 42.3918 73.0665 42.2067L63.0703 42.4844ZM62.5977 18.3359L72.5947 18.5798C72.5986 18.4192 72.5986 18.2585 72.5948 18.0979L62.5977 18.3359ZM66.6367 28.3477H56.6367C56.6367 33.8705 61.1139 38.3477 66.6367 38.3477V28.3477ZM73.4688 28.3477V38.3477C78.9916 38.3477 83.4688 33.8705 83.4688 28.3477L73.4688 28.3477ZM73.4688 25.8125L83.4688 25.8125C83.4688 22.9486 82.2408 20.2221 80.0962 18.324C77.9515 16.426 75.096 15.5386 72.2533 15.8866L73.4688 25.8125ZM66.6367 25.8125L67.5938 15.8584C64.7881 15.5886 61.9988 16.5155 59.9126 18.4108C57.8263 20.3061 56.6367 22.9938 56.6367 25.8125H66.6367ZM88.293 28.3477H78.293V33.8047H88.293H98.293V28.3477H88.293ZM88.293 33.8047V23.8047L52.0273 23.8047V33.8047V43.8047H88.293V33.8047ZM52.0273 33.8047H62.0273V28.3477H52.0273H42.0273V33.8047H52.0273ZM52.0273 28.3477V38.3477H59.6758V28.3477V18.3477H52.0273V28.3477ZM59.6758 28.3477H69.6758V24.0938H59.6758H49.6758V28.3477H59.6758ZM59.6758 24.0938L64.0054 15.0796C63.6759 14.9214 64.032 15.0123 64.5096 15.6473C64.7586 15.9785 65.0054 16.4143 65.1812 16.9421C65.3578 17.4722 65.4253 17.9826 65.4215 18.4221L55.4219 18.3359L45.4222 18.2497C45.3563 25.9048 50.4559 30.759 55.3462 33.1079L59.6758 24.0938ZM55.4219 18.3359L65.4215 18.2474C65.4297 19.1811 65.1156 20.1318 64.6082 20.8476C64.1706 21.465 63.8256 21.583 64.0793 21.4496C64.3282 21.3186 64.9401 21.0622 66.037 20.8434C67.1136 20.6287 68.5051 20.4807 70.2082 20.4725L70.1602 10.4727L70.1121 0.472772C64.755 0.498527 59.2838 1.37356 54.7674 3.74963C50.0227 6.24579 45.3576 11.1155 45.4223 18.4244L55.4219 18.3359ZM70.1602 10.4727L70.1116 20.4725C71.7876 20.4807 73.1553 20.6276 74.2127 20.8403C75.2891 21.0568 75.8918 21.3105 76.1398 21.4415C76.3907 21.5741 76.0706 21.4669 75.6544 20.8854C75.1739 20.2141 74.8638 19.3168 74.8559 18.4244L84.8555 18.3359L94.8551 18.2474C94.7915 11.0619 90.2095 6.25508 85.4822 3.75768C80.9798 1.37904 75.5399 0.498654 70.2087 0.472774L70.1602 10.4727ZM84.8555 18.3359L74.8558 18.2519C74.8595 17.8199 74.9351 17.3172 75.1198 16.797C75.3036 16.2794 75.5546 15.8591 75.7999 15.5469C76.2668 14.9527 76.5821 14.9033 76.1749 15.0901L80.3438 24.1797L84.5126 33.2693C89.491 30.986 94.7898 26.1931 94.8551 18.42L84.8555 18.3359ZM80.3438 24.1797L70.3438 24.1797V28.3477L80.3438 28.3477H90.3438V24.1797H80.3438ZM80.3438 28.3477V38.3477H88.293V28.3477V18.3477H80.3438V28.3477ZM70.0742 35.2227V45.2227C71.7557 45.2227 73.0808 45.3497 74.0727 45.5327C75.086 45.7197 75.5706 45.9317 75.6902 45.9931C75.7988 46.0488 75.3383 45.8393 74.8344 45.122C74.2703 44.319 74.0038 43.375 73.9965 42.5761L83.9961 42.4844L93.9957 42.3926C93.932 35.4531 89.6611 30.6842 84.8254 28.2013C80.4248 25.9418 75.1459 25.2227 70.0742 25.2227V35.2227ZM83.9961 42.4844L73.9965 42.3935C74.0035 41.6236 74.2597 40.6849 74.8283 39.8735C75.3374 39.1471 75.8076 38.9318 75.706 38.9837C75.5915 39.0422 75.1094 39.2529 74.0914 39.4387C73.0953 39.6205 71.7645 39.7461 70.0742 39.7461V49.7461V59.7461C75.1227 59.7461 80.4034 59.0442 84.8096 56.7917C89.6819 54.3009 93.9326 49.5169 93.9957 42.5753L83.9961 42.4844ZM70.0742 49.7461V39.7461C68.3443 39.7461 66.9794 39.6194 65.9548 39.4347C64.9072 39.2459 64.4063 39.0307 64.2814 38.9673C64.1677 38.9097 64.6515 39.1265 65.1751 39.8735C65.7628 40.712 66.0234 41.6855 66.0234 42.4844H56.0234H46.0234C46.0234 49.5145 50.3476 54.3282 55.2421 56.8081C59.6654 59.0492 64.9805 59.7461 70.0742 59.7461V49.7461ZM56.0234 42.4844H66.0234C66.0234 43.3128 65.7521 44.2919 65.1691 45.122C64.6506 45.86 64.1765 46.0709 64.2971 46.0095C64.4271 45.9434 64.9304 45.7267 65.9733 45.5367C66.9938 45.3508 68.353 45.2227 70.0742 45.2227V35.2227V25.2227C64.9575 25.2227 59.6443 25.9366 55.2263 28.1848C50.3689 30.6567 46.0234 35.4555 46.0234 42.4844H56.0234ZM70.0742 40.3789L69.9873 30.3793C67.5285 30.4007 64.5272 30.5126 61.938 31.2576C60.6064 31.6407 58.3702 32.463 56.4073 34.4112C54.0799 36.7211 52.9907 39.7569 53.0742 42.762L63.0703 42.4844L73.0665 42.2067C73.0934 43.1749 72.9549 44.3459 72.4758 45.5772C71.9924 46.8197 71.2747 47.8337 70.4961 48.6065C69.0702 50.0216 67.6612 50.4223 67.4683 50.4778C67.1709 50.5633 67.1881 50.5209 67.7668 50.4699C68.2969 50.4232 69.0678 50.388 70.1612 50.3785L70.0742 40.3789ZM63.0703 42.4844L53.0742 42.2067C52.9913 45.1904 54.061 48.1518 56.26 50.4278C58.154 52.388 60.3385 53.2748 61.7306 53.7082C64.4222 54.5461 67.4952 54.6758 70.0742 54.6758V44.6758V34.6758C69.0323 34.6758 68.3097 34.6408 67.8337 34.5956C67.3129 34.5462 67.3376 34.5069 67.6756 34.6122C67.9291 34.6911 69.2864 35.1266 70.6433 36.5309C71.3747 37.288 72.0465 38.2694 72.5011 39.4627C72.9532 40.6494 73.0934 41.7904 73.0665 42.762L63.0703 42.4844ZM70.0742 44.6758V54.6758C72.6217 54.6758 75.6532 54.5409 78.328 53.716C79.705 53.2913 81.8254 52.4386 83.6975 50.5844C85.862 48.4405 87.0781 45.5572 87.0781 42.4844H77.0781H67.0781C67.0781 41.4692 67.2641 40.3229 67.7496 39.1626C68.2346 38.0036 68.9161 37.075 69.6235 36.3744C70.9344 35.0761 72.2061 34.6745 72.4337 34.6043C72.7441 34.5086 72.7513 34.5479 72.2443 34.5966C71.7785 34.6412 71.0768 34.6758 70.0742 34.6758V44.6758ZM77.0781 42.4844H87.0781C87.0781 39.3815 85.834 36.43 83.5471 34.258C81.6098 32.418 79.442 31.627 78.1221 31.2507C75.5472 30.5168 72.5863 30.4009 70.1635 30.3793L70.0742 40.3789L69.9849 50.3785C71.0408 50.3879 71.7917 50.4228 72.312 50.4691C72.8768 50.5194 72.9107 50.5619 72.6396 50.4846C72.4691 50.436 71.1499 50.0666 69.7739 48.7597C69.022 48.0456 68.2945 47.0876 67.7789 45.881C67.2642 44.6763 67.0781 43.499 67.0781 42.4844H77.0781ZM70.1602 15.7578V5.75781C67.4165 5.75781 64.1711 5.93004 61.3113 6.87925C59.837 7.3686 57.6728 8.31646 55.8078 10.2741C53.6782 12.5096 52.5263 15.4591 52.6005 18.574L62.5977 18.3359L72.5948 18.0979C72.6181 19.0773 72.4655 20.1879 72.0269 21.3198C71.5887 22.4508 70.9559 23.3688 70.2885 24.0694C69.0452 25.3745 67.8237 25.7906 67.6116 25.861C67.3252 25.956 67.3497 25.9082 67.8876 25.8511C68.3855 25.7984 69.1246 25.7578 70.1602 25.7578V15.7578ZM62.5977 18.3359L52.6006 18.0921C52.5229 21.2795 53.737 24.2614 55.9168 26.4788C57.8071 28.4018 59.9783 29.3088 61.421 29.7693C64.2376 30.6682 67.4432 30.8281 70.1602 30.8281V20.8281V10.8281C69.1107 10.8281 68.3553 10.7893 67.8389 10.7371C67.282 10.6809 67.2365 10.6314 67.5018 10.7161C67.6823 10.7737 68.9109 11.1678 70.1795 12.4583C70.8654 13.156 71.5293 14.0856 71.9925 15.2485C72.4568 16.4143 72.6195 17.5639 72.5947 18.5798L62.5977 18.3359ZM70.1602 20.8281V30.8281C72.8437 30.8281 76.0107 30.663 78.8115 29.7767C80.2402 29.3246 82.3595 28.4474 84.2323 26.6135C86.3802 24.5103 87.7227 21.5965 87.7227 18.3359H77.7227L67.7227 18.3359C67.7227 17.2824 67.926 16.1294 68.4178 14.9889C68.9057 13.8577 69.5756 12.9737 70.2395 12.3236C71.4664 11.1222 72.6216 10.758 72.7773 10.7087C73.0168 10.6329 72.9552 10.6826 72.411 10.7382C71.9045 10.7899 71.1699 10.8281 70.1602 10.8281V20.8281ZM77.7227 18.3359H87.7227C87.7227 15.1494 86.4471 12.2628 84.3434 10.1373C82.4934 8.26809 80.3793 7.35141 78.9206 6.87133C76.0776 5.93564 72.8716 5.75781 70.1602 5.75781V15.7578V25.7578C71.1555 25.7578 71.8737 25.7978 72.3619 25.85C72.8872 25.9063 72.9281 25.9544 72.6683 25.8689C72.4825 25.8078 71.3325 25.4228 70.1284 24.2062C69.481 23.552 68.8412 22.6774 68.3788 21.5753C67.9137 20.4664 67.7227 19.3516 67.7227 18.3359L77.7227 18.3359ZM66.6367 28.3477V38.3477H73.4688V28.3477V18.3477H66.6367V28.3477ZM73.4688 28.3477L83.4688 28.3477V25.8125L73.4688 25.8125H63.4688V28.3477H73.4688ZM73.4688 25.8125L72.2533 15.8866C71.7492 15.9484 71.093 15.9844 70.1602 15.9844V25.9844V35.9844C71.5476 35.9844 73.0828 35.9344 74.6842 35.7384L73.4688 25.8125ZM70.1602 25.9844V15.9844C69.266 15.9844 68.4268 15.9385 67.5938 15.8584L66.6367 25.8125L65.6796 35.7666C67.081 35.9013 68.5621 35.9844 70.1602 35.9844V25.9844ZM66.6367 25.8125H56.6367V28.3477H66.6367H76.6367V25.8125H66.6367ZM113.086 11.9336H123.086C123.086 6.41075 118.609 1.93359 113.086 1.93359V11.9336ZM113.086 17.3477V27.3477C118.609 27.3477 123.086 22.8705 123.086 17.3477H113.086ZM105.867 17.3477V7.34766C103.067 7.34766 100.395 8.52187 98.5009 10.5847C96.607 12.6475 95.6649 15.41 95.9036 18.2002L105.867 17.3477ZM114.504 27.4453L122.98 32.7515C124.613 30.1428 124.954 26.9274 123.904 24.0343C122.854 21.1411 120.531 18.8926 117.605 17.9382L114.504 27.4453ZM111.195 32.7305L108.353 42.318C112.659 43.5947 117.288 41.8437 119.671 38.0367L111.195 32.7305ZM102.387 25.6836L111.235 21.0237C109.483 17.6983 106.015 15.6357 102.257 15.6844C98.4989 15.7332 95.0855 17.885 93.4209 21.2547L102.387 25.6836ZM93.1055 33.4609L84.7241 38.9155C87.1397 42.6273 91.7089 44.3082 95.954 43.0466L93.1055 33.4609ZM89.582 28.0469L86.7204 18.4651C83.6995 19.3673 81.281 21.6412 80.1946 24.6008C79.1081 27.5604 79.481 30.859 81.2006 33.5014L89.582 28.0469ZM98.7344 17.3477L108.688 18.3077C108.959 15.5015 108.032 12.7115 106.137 10.6246C104.242 8.53762 101.554 7.34766 98.7344 7.34766V17.3477ZM91.4727 17.3477H81.4727C81.4727 22.8705 85.9498 27.3477 91.4727 27.3477V17.3477ZM91.4727 11.9336V1.93359C85.9498 1.93359 81.4727 6.41075 81.4727 11.9336H91.4727ZM123.871 35.1367H133.871C133.871 29.6139 129.394 25.1367 123.871 25.1367V35.1367ZM123.871 49.7461V59.7461C129.394 59.7461 133.871 55.2689 133.871 49.7461H123.871ZM116.996 49.7461H106.996C106.996 55.2689 111.473 59.7461 116.996 59.7461V49.7461ZM116.996 40.5938H126.996C126.996 35.0709 122.519 30.5938 116.996 30.5938V40.5938ZM96.2422 40.5938H86.2422C86.2422 46.1166 90.7193 50.5938 96.2422 50.5938V40.5938ZM96.2422 35.1367V25.1367C90.7193 25.1367 86.2422 29.6139 86.2422 35.1367H96.2422ZM123.871 10H133.871C133.871 4.47715 129.394 0 123.871 0V10ZM123.871 33.6328V43.6328C129.394 43.6328 133.871 39.1557 133.871 33.6328H123.871ZM116.996 33.6328H106.996C106.996 39.1557 111.473 43.6328 116.996 43.6328V33.6328ZM116.996 24.6094H126.996C126.996 19.0865 122.519 14.6094 116.996 14.6094V24.6094ZM112.055 24.6094H102.055C102.055 30.1322 106.532 34.6094 112.055 34.6094V24.6094ZM112.055 19.0234V9.02344C106.532 9.02344 102.055 13.5006 102.055 19.0234H112.055ZM116.996 19.0234V29.0234C122.519 29.0234 126.996 24.5463 126.996 19.0234H116.996ZM116.996 10V0C111.473 0 106.996 4.47715 106.996 10L116.996 10ZM113.086 11.9336L103.086 11.9336V17.3477H113.086H123.086V11.9336H113.086ZM113.086 17.3477V7.34766L105.867 7.34766V17.3477V27.3477H113.086V17.3477ZM105.867 17.3477L95.9036 18.2002C96.2124 21.8092 97.4317 25.7441 100.139 29.2653C102.879 32.8285 106.728 35.4276 111.403 36.9524L114.504 27.4453L117.605 17.9382C116.916 17.7137 116.515 17.4865 116.303 17.3422C116.097 17.2021 116.018 17.1052 115.994 17.0746C115.968 17.0401 115.866 16.9037 115.831 16.4952L105.867 17.3477ZM114.504 27.4453L106.028 22.1391L102.719 27.4243L111.195 32.7305L119.671 38.0367L122.98 32.7515L114.504 27.4453ZM111.195 32.7305L114.038 23.143C113.105 22.8663 112.542 22.5185 112.187 22.2254C111.828 21.9295 111.512 21.55 111.235 21.0237L102.387 25.6836L93.5388 30.3435C96.4751 35.9188 101.459 40.274 108.353 42.318L111.195 32.7305ZM102.387 25.6836L93.4209 21.2547C92.7957 22.5204 91.9426 23.3743 90.2569 23.8752L93.1055 33.4609L95.954 43.0466C103.378 40.8405 108.454 35.9796 111.352 30.1125L102.387 25.6836ZM93.1055 33.4609L101.487 28.0064L97.9634 22.5923L89.582 28.0469L81.2006 33.5014L84.7241 38.9155L93.1055 33.4609ZM89.582 28.0469L92.4437 37.6287C97.5144 36.1143 101.566 33.3369 104.392 29.5854C107.152 25.9231 108.345 21.8708 108.688 18.3077L98.7344 17.3477L88.7806 16.3876C88.716 17.057 88.5335 17.3982 88.4195 17.5494C88.362 17.6258 88.2602 17.7403 88.0518 17.8813C87.838 18.026 87.4303 18.253 86.7204 18.4651L89.582 28.0469ZM98.7344 17.3477V7.34766H91.4727V17.3477V27.3477H98.7344V17.3477ZM91.4727 17.3477H101.473V11.9336H91.4727H81.4727V17.3477H91.4727ZM91.4727 11.9336V21.9336H113.086V11.9336V1.93359L91.4727 1.93359V11.9336ZM123.871 35.1367H113.871V49.7461H123.871H133.871V35.1367H123.871ZM123.871 49.7461V39.7461H116.996V49.7461V59.7461H123.871V49.7461ZM116.996 49.7461H126.996V40.5938H116.996H106.996V49.7461H116.996ZM116.996 40.5938V30.5938H96.2422V40.5938V50.5938H116.996V40.5938ZM96.2422 40.5938H106.242V35.1367H96.2422H86.2422V40.5938H96.2422ZM96.2422 35.1367V45.1367H123.871V35.1367V25.1367H96.2422V35.1367ZM123.871 10H113.871V33.6328H123.871H133.871V10H123.871ZM123.871 33.6328V23.6328H116.996V33.6328V43.6328H123.871V33.6328ZM116.996 33.6328H126.996V24.6094H116.996H106.996V33.6328H116.996ZM116.996 24.6094V14.6094H112.055V24.6094V34.6094H116.996V24.6094ZM112.055 24.6094H122.055V19.0234H112.055H102.055V24.6094H112.055ZM112.055 19.0234V29.0234H116.996V19.0234V9.02344H112.055V19.0234ZM116.996 19.0234H126.996V10H116.996L106.996 10V19.0234H116.996ZM116.996 10V20H123.871V10V0L116.996 0V10ZM161.598 10.0859H171.598C171.598 4.56309 167.12 0.0859375 161.598 0.0859375V10.0859ZM161.598 38.3164V48.3164C167.12 48.3164 171.598 43.8393 171.598 38.3164H161.598ZM154.68 38.3164H144.68C144.68 43.8393 149.157 48.3164 154.68 48.3164V38.3164ZM154.68 10.0859V0.0859375C149.157 0.0859375 144.68 4.56309 144.68 10.0859H154.68ZM162.543 43.6875H172.543C172.543 38.1647 168.066 33.6875 162.543 33.6875V43.6875ZM162.543 49.1875V59.1875C168.066 59.1875 172.543 54.7103 172.543 49.1875H162.543ZM134.398 49.1875H124.398C124.398 54.7103 128.876 59.1875 134.398 59.1875V49.1875ZM134.398 35.4805V25.4805C128.876 25.4805 124.398 29.9576 124.398 35.4805H134.398ZM141.359 35.4805H151.359C151.359 29.9576 146.882 25.4805 141.359 25.4805V35.4805ZM141.359 43.6875L131.359 43.6875C131.359 49.2103 135.837 53.6875 141.359 53.6875V43.6875ZM128.512 22.6328L138.511 22.7042C138.512 22.6561 138.512 22.608 138.511 22.5598L128.512 22.6328ZM161.598 10.0859H151.598V38.3164H161.598H171.598V10.0859H161.598ZM161.598 38.3164V28.3164H154.68V38.3164V48.3164H161.598V38.3164ZM154.68 38.3164H164.68V10.0859H154.68H144.68V38.3164H154.68ZM154.68 10.0859V20.0859H161.598V10.0859V0.0859375H154.68V10.0859ZM162.543 43.6875H152.543V49.1875H162.543H172.543V43.6875H162.543ZM162.543 49.1875V39.1875L134.398 39.1875V49.1875V59.1875L162.543 59.1875V49.1875ZM134.398 49.1875L144.398 49.1875V35.4805L134.398 35.4805H124.398V49.1875H134.398ZM134.398 35.4805V45.4805L141.359 45.4805V35.4805V25.4805H134.398V35.4805ZM141.359 35.4805L131.359 35.4805V43.6875L141.359 43.6875H151.359V35.4805H141.359ZM141.359 43.6875V53.6875H162.543V43.6875V33.6875H141.359V43.6875ZM139.641 12.4492V22.4492C140.427 22.4492 140.778 22.7145 140.831 22.7625C140.857 22.7856 140.83 22.7678 140.799 22.6996C140.764 22.6226 140.77 22.582 140.77 22.6328H150.77H160.77C160.77 10.2688 150.346 2.44922 139.641 2.44922V12.4492ZM150.77 22.6328H140.77C140.77 22.7467 140.751 22.7399 140.781 22.6728C140.808 22.6131 140.836 22.5906 140.82 22.6043C140.79 22.6322 140.452 22.9023 139.641 22.9023V32.9023V42.9023C150.375 42.9023 160.77 35.0994 160.77 22.6328H150.77ZM139.641 32.9023V22.9023C138.823 22.9023 138.471 22.6277 138.435 22.5954C138.42 22.5816 138.454 22.6101 138.488 22.6851C138.525 22.7686 138.511 22.7961 138.511 22.7042L128.512 22.6328L118.512 22.5614C118.422 35.147 128.979 42.9023 139.641 42.9023V32.9023ZM128.512 22.6328L138.511 22.5598C138.511 22.5318 138.513 22.5937 138.47 22.6872C138.432 22.7708 138.398 22.7945 138.424 22.7714C138.482 22.7191 138.848 22.4492 139.641 22.4492V12.4492V2.44922C129.01 2.44922 118.421 10.2208 118.512 22.7058L128.512 22.6328ZM139.641 18.4219V8.42187C136.591 8.42187 132.891 9.281 129.824 12.0143C126.587 14.899 125.215 18.8404 125.215 22.6328H135.215H145.215C145.215 23.6323 144.788 25.4682 143.13 26.9457C141.642 28.2717 140.155 28.4219 139.641 28.4219V18.4219ZM135.215 22.6328H125.215C125.215 26.3614 126.503 30.361 129.796 33.3174C132.915 36.1181 136.663 36.9297 139.641 36.9297V26.9297V16.9297C140.083 16.9297 141.619 17.0538 143.158 18.4365C144.872 19.9749 145.215 21.8261 145.215 22.6328H135.215ZM139.641 26.9297V36.9297C142.672 36.9297 146.388 36.0539 149.449 33.2485C152.655 30.3089 153.938 26.3568 153.938 22.6328H143.938H133.938C133.938 21.8307 134.274 20.027 135.934 18.5054C137.448 17.118 139.015 16.9297 139.641 16.9297V26.9297ZM143.938 22.6328H153.938C153.938 18.8465 152.573 14.9508 149.421 12.0829C146.413 9.347 142.745 8.42187 139.641 8.42187V18.4219V28.4219C138.943 28.4219 137.423 28.2057 135.962 26.8771C134.357 25.4164 133.938 23.6261 133.938 22.6328H143.938Z" fill="white" mask="url(#path-1-outside-1_6524_1749)"/>
</g>
<defs>
<filter id="filter0_d_6524_1749" x="0" y="0" width="176.543" height="67.7461" filterUnits="userSpaceOnUse" color-interpolation-filters="sRGB">
<feFlood flood-opacity="0" result="BackgroundImageFix"/>
<feColorMatrix in="SourceAlpha" type="matrix" values="0 0 0 0 0 0 0 0 0 0 0 0 0 0 0 0 0 0 127 0" result="hardAlpha"/>
<feOffset dy="4"/>
<feGaussianBlur stdDeviation="2"/>
<feComposite in2="hardAlpha" operator="out"/>
<feColorMatrix type="matrix" values="0 0 0 0 0 0 0 0 0 0 0 0 0 0 0 0 0 0 0.07 0"/>
<feBlend mode="normal" in2="BackgroundImageFix" result="effect1_dropShadow_6524_1749"/>
<feBlend mode="normal" in="SourceGraphic" in2="effect1_dropShadow_6524_1749" result="shape"/>
</filter>
</defs>
</svg>
