<svg width="265" height="68" viewBox="0 0 265 68" fill="none" xmlns="http://www.w3.org/2000/svg">
<g filter="url(#filter0_d_6524_1924)">
<mask id="path-1-outside-1_6524_1924" maskUnits="userSpaceOnUse" x="3.18359" y="-0.507813" width="257" height="61" fill="black">
<rect fill="white" x="3.18359" y="-0.507813" width="257" height="61"/>
<path d="M47.8164 10V49.7461H40.8125V10L47.8164 10ZM37.418 13.3086V18.7656H34.5391V34.793C35.957 34.6641 37.3535 34.5352 38.707 34.3633L39.0938 39.4766C30.7578 40.8945 21.8203 41.0664 14.6016 41.0664L14 35.5664L17.9961 35.5234V18.7656H15.0742V13.3086H37.418ZM24.6133 35.3516L27.8359 35.2227V18.7656H24.6133V35.3516ZM84.6836 27.9609V33.418H56.1523V13.0938L84.4258 13.0937V18.6367L62.9414 18.6367V27.9609L84.6836 27.9609ZM88.4219 39.6914V45.3203H52.1133V39.6914H88.4219ZM97.7891 12.5352V17.7344H100.969V12.5352H107.328V32.2148H91.2578V12.5352H97.7891ZM97.7891 26.8437H100.969V22.9336H97.7891V26.8437ZM124.516 10.0859V34.0625H117.984V24.9102H115.922V33.8477H109.562V10.7305H115.922V19.3672H117.984V10.0859H124.516ZM124.516 35.4805V49.7461H117.641V40.9375H96.6289V35.4805H124.516ZM161.727 10V49.875H154.766V10H161.727ZM139.898 12.6641C145.957 12.6211 150.512 18.207 150.512 26.9727C150.512 35.8672 145.957 41.4102 139.898 41.4102C133.711 41.4102 129.113 35.8672 129.113 26.9727C129.113 18.207 133.711 12.6211 139.898 12.6641ZM139.898 18.8945C137.363 18.8516 135.773 21.4727 135.773 26.9727C135.773 32.5586 137.363 35.0938 139.898 35.0938C142.262 35.0937 143.895 32.5586 143.895 26.9727C143.895 21.4727 142.262 18.8516 139.898 18.8945ZM209.422 10V24.1797H212.559V29.8516H209.422V49.7461H202.633V10H209.422ZM181.32 13.5234V22.1172H182.266V13.5234H187.809V40.8516H175.734V13.5234H181.32ZM181.32 35.3086H182.266V27.4883H181.32V35.3086ZM194.512 13.5234V22.1172H195.629V13.5234H201.215V40.8516H189.055V13.5234H194.512ZM194.512 35.3086H195.629V27.4883H194.512V35.3086ZM250.07 31.1406V36.6406H213.805V31.1406H250.07ZM246.762 43.6875V49.1875H218.23V38.2305H225.062V43.6875H246.762ZM245.859 10.6445V22.418H225.02V24.2227H246.504V29.3359H218.188V17.5625H238.984V15.9297H218.145V10.6445L245.859 10.6445Z"/>
</mask>
<path d="M47.8164 10V49.7461H40.8125V10L47.8164 10ZM37.418 13.3086V18.7656H34.5391V34.793C35.957 34.6641 37.3535 34.5352 38.707 34.3633L39.0938 39.4766C30.7578 40.8945 21.8203 41.0664 14.6016 41.0664L14 35.5664L17.9961 35.5234V18.7656H15.0742V13.3086H37.418ZM24.6133 35.3516L27.8359 35.2227V18.7656H24.6133V35.3516ZM84.6836 27.9609V33.418H56.1523V13.0938L84.4258 13.0937V18.6367L62.9414 18.6367V27.9609L84.6836 27.9609ZM88.4219 39.6914V45.3203H52.1133V39.6914H88.4219ZM97.7891 12.5352V17.7344H100.969V12.5352H107.328V32.2148H91.2578V12.5352H97.7891ZM97.7891 26.8437H100.969V22.9336H97.7891V26.8437ZM124.516 10.0859V34.0625H117.984V24.9102H115.922V33.8477H109.562V10.7305H115.922V19.3672H117.984V10.0859H124.516ZM124.516 35.4805V49.7461H117.641V40.9375H96.6289V35.4805H124.516ZM161.727 10V49.875H154.766V10H161.727ZM139.898 12.6641C145.957 12.6211 150.512 18.207 150.512 26.9727C150.512 35.8672 145.957 41.4102 139.898 41.4102C133.711 41.4102 129.113 35.8672 129.113 26.9727C129.113 18.207 133.711 12.6211 139.898 12.6641ZM139.898 18.8945C137.363 18.8516 135.773 21.4727 135.773 26.9727C135.773 32.5586 137.363 35.0938 139.898 35.0938C142.262 35.0937 143.895 32.5586 143.895 26.9727C143.895 21.4727 142.262 18.8516 139.898 18.8945ZM209.422 10V24.1797H212.559V29.8516H209.422V49.7461H202.633V10H209.422ZM181.32 13.5234V22.1172H182.266V13.5234H187.809V40.8516H175.734V13.5234H181.32ZM181.32 35.3086H182.266V27.4883H181.32V35.3086ZM194.512 13.5234V22.1172H195.629V13.5234H201.215V40.8516H189.055V13.5234H194.512ZM194.512 35.3086H195.629V27.4883H194.512V35.3086ZM250.07 31.1406V36.6406H213.805V31.1406H250.07ZM246.762 43.6875V49.1875H218.23V38.2305H225.062V43.6875H246.762ZM245.859 10.6445V22.418H225.02V24.2227H246.504V29.3359H218.188V17.5625H238.984V15.9297H218.145V10.6445L245.859 10.6445Z" fill="#11DCA9"/>
<path d="M47.8164 10H57.8164C57.8164 4.47715 53.3393 0 47.8164 0V10ZM47.8164 49.7461V59.7461C53.3393 59.7461 57.8164 55.2689 57.8164 49.7461H47.8164ZM40.8125 49.7461H30.8125C30.8125 55.2689 35.2897 59.7461 40.8125 59.7461V49.7461ZM40.8125 10V0C35.2897 0 30.8125 4.47715 30.8125 10H40.8125ZM37.418 13.3086H47.418C47.418 7.78575 42.9408 3.30859 37.418 3.30859V13.3086ZM37.418 18.7656V28.7656C42.9408 28.7656 47.418 24.2885 47.418 18.7656H37.418ZM34.5391 18.7656V8.76562C29.0162 8.76562 24.5391 13.2428 24.5391 18.7656H34.5391ZM34.5391 34.793H24.5391C24.5391 37.6026 25.721 40.2826 27.7957 42.1772C29.8704 44.0718 32.6464 45.0063 35.4444 44.7519L34.5391 34.793ZM38.707 34.3633L48.6786 33.6091C48.4719 30.8766 47.1529 28.3486 45.0299 26.6159C42.9069 24.8833 40.1658 24.0977 37.4473 24.4429L38.707 34.3633ZM39.0938 39.4766L40.7707 49.335C45.8606 48.4691 49.4546 43.8708 49.0653 38.7224L39.0938 39.4766ZM14.6016 41.0664L4.66085 42.1537C5.21557 47.2255 9.49952 51.0664 14.6016 51.0664V41.0664ZM14 35.5664L13.8925 25.567C11.0699 25.5973 8.39167 26.8192 6.51866 28.9309C4.64566 31.0427 3.75238 33.8477 4.05928 36.6537L14 35.5664ZM17.9961 35.5234L18.1036 45.5229C23.5842 45.4639 27.9961 41.0043 27.9961 35.5234H17.9961ZM17.9961 18.7656H27.9961C27.9961 13.2428 23.5189 8.76562 17.9961 8.76562V18.7656ZM15.0742 18.7656H5.07422C5.07422 24.2885 9.55137 28.7656 15.0742 28.7656V18.7656ZM15.0742 13.3086V3.30859C9.55137 3.30859 5.07422 7.78575 5.07422 13.3086H15.0742ZM24.6133 35.3516H14.6133C14.6133 38.0731 15.7225 40.677 17.685 42.5626C19.6474 44.4481 22.2936 45.4523 25.013 45.3436L24.6133 35.3516ZM27.8359 35.2227L28.2356 45.2147C33.5987 45.0001 37.8359 40.59 37.8359 35.2227H27.8359ZM27.8359 18.7656H37.8359C37.8359 13.2428 33.3588 8.76562 27.8359 8.76562V18.7656ZM24.6133 18.7656V8.76562C19.0904 8.76562 14.6133 13.2428 14.6133 18.7656H24.6133ZM47.8164 10L37.8164 10V49.7461H47.8164H57.8164V10H47.8164ZM47.8164 49.7461V39.7461H40.8125V49.7461V59.7461H47.8164V49.7461ZM40.8125 49.7461H50.8125V10L40.8125 10H30.8125V49.7461H40.8125ZM40.8125 10V20H47.8164V10V0H40.8125V10ZM37.418 13.3086H27.418V18.7656H37.418H47.418V13.3086H37.418ZM37.418 18.7656V8.76562H34.5391V18.7656V28.7656H37.418V18.7656ZM34.5391 18.7656H24.5391V34.793H34.5391H44.5391V18.7656H34.5391ZM34.5391 34.793L35.4444 44.7519C36.8422 44.6248 38.4102 44.4813 39.9668 44.2836L38.707 34.3633L37.4473 24.4429C36.2968 24.589 35.0718 24.7033 33.6337 24.834L34.5391 34.793ZM38.707 34.3633L28.7355 35.1174L29.1222 40.2307L39.0938 39.4766L49.0653 38.7224L48.6786 33.6091L38.707 34.3633ZM39.0938 39.4766L37.4168 29.6182C29.9736 30.8843 21.7601 31.0664 14.6016 31.0664L14.6016 41.0664V51.0664C21.8805 51.0664 31.542 50.9048 40.7707 49.335L39.0938 39.4766ZM14.6016 41.0664L24.5423 39.9791L23.9407 34.4791L14 35.5664L4.05928 36.6537L4.66085 42.1537L14.6016 41.0664ZM14 35.5664L14.1075 45.5658L18.1036 45.5229L17.9961 35.5234L17.8886 25.524L13.8925 25.567L14 35.5664ZM17.9961 35.5234H27.9961V18.7656H17.9961H7.99609V35.5234H17.9961ZM17.9961 18.7656V8.76562H15.0742V18.7656V28.7656H17.9961V18.7656ZM15.0742 18.7656H25.0742V13.3086H15.0742H5.07422V18.7656H15.0742ZM15.0742 13.3086V23.3086H37.418V13.3086V3.30859L15.0742 3.30859V13.3086ZM24.6133 35.3516L25.013 45.3436L28.2356 45.2147L27.8359 35.2227L27.4363 25.2306L24.2136 25.3596L24.6133 35.3516ZM27.8359 35.2227H37.8359V18.7656H27.8359H17.8359V35.2227H27.8359ZM27.8359 18.7656V8.76562H24.6133V18.7656V28.7656H27.8359V18.7656ZM24.6133 18.7656H14.6133L14.6133 35.3516H24.6133H34.6133V18.7656H24.6133ZM84.6836 27.9609H94.6836C94.6836 22.4381 90.2064 17.9609 84.6836 17.9609V27.9609ZM84.6836 33.418V43.418C90.2064 43.418 94.6836 38.9408 94.6836 33.418H84.6836ZM56.1523 33.418H46.1523C46.1523 38.9408 50.6295 43.418 56.1523 43.418V33.418ZM56.1523 13.0938V3.09375C50.6295 3.09375 46.1523 7.5709 46.1523 13.0938H56.1523ZM84.4258 13.0937H94.4258C94.4258 7.5709 89.9486 3.09375 84.4258 3.09375V13.0937ZM84.4258 18.6367V28.6367C89.9486 28.6367 94.4258 24.1596 94.4258 18.6367H84.4258ZM62.9414 18.6367V8.63672C57.4186 8.63672 52.9414 13.1139 52.9414 18.6367H62.9414ZM62.9414 27.9609H52.9414C52.9414 33.4838 57.4186 37.9609 62.9414 37.9609V27.9609ZM88.4219 39.6914H98.4219C98.4219 34.1686 93.9447 29.6914 88.4219 29.6914V39.6914ZM88.4219 45.3203V55.3203C93.9447 55.3203 98.4219 50.8432 98.4219 45.3203H88.4219ZM52.1133 45.3203H42.1133C42.1133 50.8432 46.5904 55.3203 52.1133 55.3203V45.3203ZM52.1133 39.6914V29.6914C46.5904 29.6914 42.1133 34.1686 42.1133 39.6914H52.1133ZM84.6836 27.9609L74.6836 27.9609V33.418H84.6836H94.6836V27.9609H84.6836ZM84.6836 33.418V23.418L56.1523 23.418V33.418V43.418H84.6836V33.418ZM56.1523 33.418H66.1523V13.0938H56.1523H46.1523V33.418H56.1523ZM56.1523 13.0938V23.0938L84.4258 23.0937V13.0937V3.09375L56.1523 3.09375V13.0938ZM84.4258 13.0937L74.4258 13.0938V18.6367L84.4258 18.6367H94.4258V13.0937H84.4258ZM84.4258 18.6367V8.63672H62.9414V18.6367V28.6367H84.4258V18.6367ZM62.9414 18.6367H52.9414V27.9609H62.9414H72.9414V18.6367H62.9414ZM62.9414 27.9609V37.9609H84.6836V27.9609V17.9609L62.9414 17.9609V27.9609ZM88.4219 39.6914H78.4219V45.3203H88.4219H98.4219V39.6914H88.4219ZM88.4219 45.3203V35.3203H52.1133V45.3203V55.3203H88.4219V45.3203ZM52.1133 45.3203H62.1133V39.6914H52.1133H42.1133V45.3203H52.1133ZM52.1133 39.6914V49.6914H88.4219V39.6914V29.6914H52.1133V39.6914ZM97.7891 12.5352H107.789C107.789 7.01231 103.312 2.53516 97.7891 2.53516V12.5352ZM97.7891 17.7344H87.7891C87.7891 23.2572 92.2662 27.7344 97.7891 27.7344V17.7344ZM100.969 17.7344V27.7344C106.492 27.7344 110.969 23.2572 110.969 17.7344H100.969ZM100.969 12.5352V2.53516C95.4459 2.53516 90.9688 7.01231 90.9688 12.5352H100.969ZM107.328 12.5352H117.328C117.328 7.01231 112.851 2.53516 107.328 2.53516V12.5352ZM107.328 32.2148V42.2148C112.851 42.2148 117.328 37.7377 117.328 32.2148H107.328ZM91.2578 32.2148H81.2578C81.2578 37.7377 85.735 42.2148 91.2578 42.2148V32.2148ZM91.2578 12.5352V2.53516C85.735 2.53516 81.2578 7.01231 81.2578 12.5352H91.2578ZM97.7891 26.8437H87.7891C87.7891 32.3666 92.2662 36.8438 97.7891 36.8438V26.8437ZM100.969 26.8437V36.8438C106.492 36.8438 110.969 32.3666 110.969 26.8437H100.969ZM100.969 22.9336H110.969C110.969 17.4107 106.492 12.9336 100.969 12.9336V22.9336ZM97.7891 22.9336V12.9336C92.2662 12.9336 87.7891 17.4107 87.7891 22.9336H97.7891ZM124.516 10.0859H134.516C134.516 4.56309 130.038 0.0859375 124.516 0.0859375V10.0859ZM124.516 34.0625V44.0625C130.038 44.0625 134.516 39.5853 134.516 34.0625H124.516ZM117.984 34.0625H107.984C107.984 39.5853 112.462 44.0625 117.984 44.0625V34.0625ZM117.984 24.9102H127.984C127.984 19.3873 123.507 14.9102 117.984 14.9102V24.9102ZM115.922 24.9102V14.9102C110.399 14.9102 105.922 19.3873 105.922 24.9102H115.922ZM115.922 33.8477V43.8477C121.445 43.8477 125.922 39.3705 125.922 33.8477H115.922ZM109.562 33.8477H99.5625C99.5625 39.3705 104.04 43.8477 109.562 43.8477V33.8477ZM109.562 10.7305V0.730469C104.04 0.730469 99.5625 5.20762 99.5625 10.7305L109.562 10.7305ZM115.922 10.7305H125.922C125.922 5.20762 121.445 0.730469 115.922 0.730469V10.7305ZM115.922 19.3672H105.922C105.922 24.89 110.399 29.3672 115.922 29.3672V19.3672ZM117.984 19.3672V29.3672C123.507 29.3672 127.984 24.89 127.984 19.3672H117.984ZM117.984 10.0859V0.0859375C112.462 0.0859375 107.984 4.56309 107.984 10.0859L117.984 10.0859ZM124.516 35.4805H134.516C134.516 29.9576 130.038 25.4805 124.516 25.4805V35.4805ZM124.516 49.7461V59.7461C130.038 59.7461 134.516 55.2689 134.516 49.7461H124.516ZM117.641 49.7461H107.641C107.641 55.2689 112.118 59.7461 117.641 59.7461V49.7461ZM117.641 40.9375H127.641C127.641 35.4147 123.163 30.9375 117.641 30.9375V40.9375ZM96.6289 40.9375H86.6289C86.6289 46.4603 91.1061 50.9375 96.6289 50.9375V40.9375ZM96.6289 35.4805V25.4805C91.1061 25.4805 86.6289 29.9576 86.6289 35.4805H96.6289ZM97.7891 12.5352H87.7891V17.7344H97.7891H107.789V12.5352H97.7891ZM97.7891 17.7344V27.7344H100.969V17.7344V7.73437H97.7891V17.7344ZM100.969 17.7344H110.969V12.5352H100.969H90.9688V17.7344H100.969ZM100.969 12.5352V22.5352H107.328V12.5352V2.53516H100.969V12.5352ZM107.328 12.5352H97.3281V32.2148H107.328H117.328V12.5352H107.328ZM107.328 32.2148V22.2148H91.2578V32.2148V42.2148H107.328V32.2148ZM91.2578 32.2148H101.258V12.5352H91.2578H81.2578V32.2148H91.2578ZM91.2578 12.5352V22.5352H97.7891V12.5352V2.53516L91.2578 2.53516V12.5352ZM97.7891 26.8437V36.8438H100.969V26.8437V16.8437H97.7891V26.8437ZM100.969 26.8437H110.969V22.9336H100.969H90.9688V26.8437H100.969ZM100.969 22.9336V12.9336H97.7891V22.9336V32.9336H100.969V22.9336ZM97.7891 22.9336H87.7891V26.8437H97.7891H107.789V22.9336H97.7891ZM124.516 10.0859H114.516V34.0625H124.516H134.516V10.0859H124.516ZM124.516 34.0625V24.0625H117.984V34.0625V44.0625H124.516V34.0625ZM117.984 34.0625H127.984V24.9102H117.984H107.984V34.0625H117.984ZM117.984 24.9102V14.9102H115.922V24.9102V34.9102H117.984V24.9102ZM115.922 24.9102H105.922V33.8477H115.922H125.922V24.9102H115.922ZM115.922 33.8477V23.8477H109.562V33.8477V43.8477H115.922V33.8477ZM109.562 33.8477H119.562V10.7305H109.562L99.5625 10.7305V33.8477H109.562ZM109.562 10.7305V20.7305H115.922V10.7305V0.730469H109.562V10.7305ZM115.922 10.7305L105.922 10.7305V19.3672H115.922H125.922V10.7305H115.922ZM115.922 19.3672V29.3672H117.984V19.3672V9.36719H115.922V19.3672ZM117.984 19.3672H127.984V10.0859H117.984L107.984 10.0859V19.3672H117.984ZM117.984 10.0859V20.0859H124.516V10.0859V0.0859375H117.984V10.0859ZM124.516 35.4805H114.516V49.7461H124.516H134.516V35.4805H124.516ZM124.516 49.7461V39.7461H117.641V49.7461V59.7461H124.516V49.7461ZM117.641 49.7461H127.641V40.9375H117.641H107.641V49.7461H117.641ZM117.641 40.9375V30.9375H96.6289V40.9375V50.9375H117.641V40.9375ZM96.6289 40.9375H106.629V35.4805H96.6289H86.6289V40.9375H96.6289ZM96.6289 35.4805V45.4805H124.516V35.4805V25.4805H96.6289V35.4805ZM161.727 10H171.727C171.727 4.47715 167.249 0 161.727 0V10ZM161.727 49.875V59.875C167.249 59.875 171.727 55.3978 171.727 49.875H161.727ZM154.766 49.875H144.766C144.766 55.3978 149.243 59.875 154.766 59.875V49.875ZM154.766 10V0C149.243 0 144.766 4.47715 144.766 10H154.766ZM139.898 12.6641L139.829 22.6638C139.876 22.6641 139.923 22.6641 139.969 22.6638L139.898 12.6641ZM139.898 18.8945L139.729 28.8931C139.846 28.8951 139.963 28.895 140.08 28.8929L139.898 18.8945ZM161.727 10H151.727V49.875H161.727H171.727V10H161.727ZM161.727 49.875V39.875H154.766V49.875V59.875H161.727V49.875ZM154.766 49.875H164.766V10H154.766H144.766V49.875H154.766ZM154.766 10V20H161.727V10V0H154.766V10ZM139.898 12.6641L139.969 22.6638C139.902 22.6643 139.732 22.6406 139.557 22.5508C139.395 22.4681 139.404 22.4198 139.525 22.5782C139.795 22.9327 140.512 24.2334 140.512 26.9727H150.512H160.512C160.512 20.9463 158.951 15.0712 155.429 10.4521C151.782 5.66819 146.249 2.61877 139.828 2.66431L139.898 12.6641ZM150.512 26.9727H140.512C140.512 29.8028 139.782 31.1249 139.512 31.4804C139.392 31.6391 139.38 31.594 139.535 31.5147C139.7 31.4293 139.853 31.4102 139.898 31.4102V41.4102V51.4102C146.272 51.4102 151.79 48.3834 155.442 43.5733C158.964 38.9337 160.512 33.0371 160.512 26.9727H150.512ZM139.898 41.4102V31.4102C139.877 31.4102 139.982 31.4135 140.119 31.483C140.247 31.5479 140.229 31.5815 140.109 31.4265C139.844 31.0816 139.113 29.7839 139.113 26.9727H129.113H119.113C119.113 33.056 120.682 38.977 124.262 43.6273C127.975 48.4498 133.536 51.4102 139.898 51.4102V41.4102ZM129.113 26.9727H139.113C139.113 24.2526 139.83 22.9762 140.097 22.632C140.216 22.4774 140.233 22.5139 140.097 22.5822C140.037 22.6127 139.97 22.6363 139.908 22.6507C139.846 22.6649 139.816 22.6637 139.829 22.6638L139.898 12.6641L139.968 2.6643C133.559 2.6198 127.983 5.60151 124.275 10.3982C120.695 15.0277 119.113 20.9271 119.113 26.9727H129.113ZM139.898 18.8945L140.068 8.89597C134.436 8.80052 130.238 12.0746 128.065 16.1436C126.224 19.59 125.773 23.5385 125.773 26.9727H135.773H145.773C145.773 26.0559 145.842 25.4897 145.894 25.2055C145.951 24.8993 145.957 25.0966 145.706 25.5664C145.44 26.0649 144.813 26.9904 143.599 27.7722C142.321 28.5955 140.924 28.9134 139.729 28.8931L139.898 18.8945ZM135.773 26.9727H125.773C125.773 30.4271 126.217 34.3944 128.073 37.8541C130.287 41.9836 134.462 45.0938 139.898 45.0938V35.0938V25.0937C141.009 25.0937 142.344 25.3965 143.591 26.1982C144.788 26.9673 145.42 27.8831 145.698 28.4018C145.957 28.8846 145.952 29.0928 145.896 28.7849C145.843 28.4977 145.773 27.9194 145.773 26.9727H135.773ZM139.898 35.0938V45.0938C145.498 45.0937 149.549 41.7294 151.625 37.7986C153.424 34.3926 153.895 30.4806 153.895 26.9727H143.895H133.895C133.895 27.9039 133.825 28.4806 133.771 28.7724C133.713 29.0842 133.703 28.9062 133.941 28.4572C134.189 27.9865 134.785 27.0851 135.957 26.3005C137.197 25.4703 138.606 25.0937 139.898 25.0937V35.0938ZM143.895 26.9727H153.895C153.895 23.4853 153.417 19.5914 151.633 16.199C149.602 12.3393 145.523 8.79061 139.717 8.89618L139.898 18.8945L140.08 28.8929C138.694 28.9181 137.219 28.5217 135.949 27.6697C134.76 26.8723 134.17 25.9614 133.933 25.511C133.703 25.075 133.714 24.9078 133.772 25.218C133.826 25.507 133.895 26.0715 133.895 26.9727H143.895ZM209.422 10H219.422C219.422 4.47715 214.945 0 209.422 0V10ZM209.422 24.1797L199.422 24.1797C199.422 29.7025 203.899 34.1797 209.422 34.1797V24.1797ZM212.559 24.1797H222.559C222.559 18.6568 218.081 14.1797 212.559 14.1797V24.1797ZM212.559 29.8516V39.8516C218.081 39.8516 222.559 35.3744 222.559 29.8516H212.559ZM209.422 29.8516V19.8516C203.899 19.8516 199.422 24.3287 199.422 29.8516H209.422ZM209.422 49.7461V59.7461C214.945 59.7461 219.422 55.2689 219.422 49.7461H209.422ZM202.633 49.7461H192.633C192.633 55.2689 197.11 59.7461 202.633 59.7461V49.7461ZM202.633 10V0C197.11 0 192.633 4.47715 192.633 10H202.633ZM181.32 13.5234H191.32C191.32 8.00059 186.843 3.52344 181.32 3.52344V13.5234ZM181.32 22.1172H171.32C171.32 27.64 175.797 32.1172 181.32 32.1172V22.1172ZM182.266 22.1172V32.1172C187.788 32.1172 192.266 27.64 192.266 22.1172H182.266ZM182.266 13.5234V3.52344C176.743 3.52344 172.266 8.00059 172.266 13.5234H182.266ZM187.809 13.5234H197.809C197.809 8.00059 193.331 3.52344 187.809 3.52344V13.5234ZM187.809 40.8516V50.8516C193.331 50.8516 197.809 46.3744 197.809 40.8516H187.809ZM175.734 40.8516H165.734C165.734 46.3744 170.212 50.8516 175.734 50.8516V40.8516ZM175.734 13.5234V3.52344C170.212 3.52344 165.734 8.00059 165.734 13.5234H175.734ZM181.32 35.3086H171.32C171.32 40.8314 175.797 45.3086 181.32 45.3086V35.3086ZM182.266 35.3086V45.3086C187.788 45.3086 192.266 40.8314 192.266 35.3086H182.266ZM182.266 27.4883H192.266C192.266 21.9654 187.788 17.4883 182.266 17.4883V27.4883ZM181.32 27.4883V17.4883C175.797 17.4883 171.32 21.9654 171.32 27.4883H181.32ZM194.512 13.5234H204.512C204.512 8.00059 200.035 3.52344 194.512 3.52344V13.5234ZM194.512 22.1172H184.512C184.512 27.64 188.989 32.1172 194.512 32.1172V22.1172ZM195.629 22.1172V32.1172C201.152 32.1172 205.629 27.64 205.629 22.1172L195.629 22.1172ZM195.629 13.5234V3.52344C190.106 3.52344 185.629 8.00059 185.629 13.5234H195.629ZM201.215 13.5234L211.215 13.5234C211.215 8.00059 206.738 3.52344 201.215 3.52344V13.5234ZM201.215 40.8516V50.8516C206.738 50.8516 211.215 46.3744 211.215 40.8516H201.215ZM189.055 40.8516H179.055C179.055 46.3744 183.532 50.8516 189.055 50.8516V40.8516ZM189.055 13.5234V3.52344C183.532 3.52344 179.055 8.00059 179.055 13.5234H189.055ZM194.512 35.3086H184.512C184.512 40.8314 188.989 45.3086 194.512 45.3086V35.3086ZM195.629 35.3086V45.3086C201.152 45.3086 205.629 40.8314 205.629 35.3086H195.629ZM195.629 27.4883L205.629 27.4883C205.629 21.9654 201.152 17.4883 195.629 17.4883V27.4883ZM194.512 27.4883V17.4883C188.989 17.4883 184.512 21.9654 184.512 27.4883H194.512ZM209.422 10H199.422V24.1797L209.422 24.1797H219.422V10H209.422ZM209.422 24.1797V34.1797H212.559V24.1797V14.1797H209.422V24.1797ZM212.559 24.1797L202.559 24.1797V29.8516H212.559H222.559V24.1797H212.559ZM212.559 29.8516V19.8516H209.422V29.8516V39.8516H212.559V29.8516ZM209.422 29.8516H199.422V49.7461H209.422H219.422V29.8516H209.422ZM209.422 49.7461V39.7461H202.633V49.7461V59.7461H209.422V49.7461ZM202.633 49.7461H212.633V10H202.633H192.633V49.7461H202.633ZM202.633 10V20L209.422 20V10V0H202.633V10ZM181.32 13.5234H171.32V22.1172H181.32H191.32V13.5234H181.32ZM181.32 22.1172V32.1172H182.266V22.1172V12.1172H181.32V22.1172ZM182.266 22.1172H192.266V13.5234H182.266H172.266V22.1172H182.266ZM182.266 13.5234V23.5234H187.809V13.5234V3.52344H182.266V13.5234ZM187.809 13.5234H177.809V40.8516H187.809H197.809V13.5234H187.809ZM187.809 40.8516V30.8516H175.734V40.8516V50.8516H187.809V40.8516ZM175.734 40.8516H185.734V13.5234H175.734H165.734V40.8516H175.734ZM175.734 13.5234V23.5234H181.32V13.5234V3.52344H175.734V13.5234ZM181.32 35.3086V45.3086H182.266V35.3086V25.3086H181.32V35.3086ZM182.266 35.3086H192.266V27.4883H182.266H172.266V35.3086H182.266ZM182.266 27.4883V17.4883H181.32V27.4883V37.4883H182.266V27.4883ZM181.32 27.4883H171.32V35.3086H181.32H191.32V27.4883H181.32ZM194.512 13.5234H184.512V22.1172H194.512H204.512V13.5234H194.512ZM194.512 22.1172V32.1172H195.629V22.1172V12.1172H194.512V22.1172ZM195.629 22.1172L205.629 22.1172V13.5234L195.629 13.5234H185.629V22.1172H195.629ZM195.629 13.5234V23.5234H201.215V13.5234V3.52344H195.629V13.5234ZM201.215 13.5234H191.215V40.8516H201.215H211.215V13.5234L201.215 13.5234ZM201.215 40.8516V30.8516H189.055V40.8516V50.8516H201.215V40.8516ZM189.055 40.8516H199.055V13.5234H189.055H179.055V40.8516H189.055ZM189.055 13.5234V23.5234H194.512V13.5234V3.52344L189.055 3.52344V13.5234ZM194.512 35.3086V45.3086H195.629V35.3086V25.3086H194.512V35.3086ZM195.629 35.3086H205.629V27.4883L195.629 27.4883H185.629V35.3086H195.629ZM195.629 27.4883V17.4883H194.512V27.4883V37.4883H195.629V27.4883ZM194.512 27.4883H184.512V35.3086H194.512H204.512V27.4883H194.512ZM250.07 31.1406H260.07C260.07 25.6178 255.593 21.1406 250.07 21.1406V31.1406ZM250.07 36.6406V46.6406C255.593 46.6406 260.07 42.1635 260.07 36.6406H250.07ZM213.805 36.6406H203.805C203.805 42.1635 208.282 46.6406 213.805 46.6406V36.6406ZM213.805 31.1406V21.1406C208.282 21.1406 203.805 25.6178 203.805 31.1406H213.805ZM246.762 43.6875H256.762C256.762 38.1647 252.285 33.6875 246.762 33.6875V43.6875ZM246.762 49.1875V59.1875C252.285 59.1875 256.762 54.7103 256.762 49.1875H246.762ZM218.23 49.1875H208.23C208.23 54.7103 212.708 59.1875 218.23 59.1875V49.1875ZM218.23 38.2305V28.2305C212.708 28.2305 208.23 32.7076 208.23 38.2305H218.23ZM225.062 38.2305H235.062C235.062 32.7076 230.585 28.2305 225.062 28.2305V38.2305ZM225.062 43.6875H215.062C215.062 49.2103 219.54 53.6875 225.062 53.6875V43.6875ZM245.859 10.6445H255.859C255.859 5.12168 251.382 0.644531 245.859 0.644531V10.6445ZM245.859 22.418V32.418C251.382 32.418 255.859 27.9408 255.859 22.418H245.859ZM225.02 22.418V12.418C219.497 12.418 215.02 16.8951 215.02 22.418H225.02ZM225.02 24.2227H215.02C215.02 29.7455 219.497 34.2227 225.02 34.2227V24.2227ZM246.504 24.2227H256.504C256.504 18.6998 252.027 14.2227 246.504 14.2227V24.2227ZM246.504 29.3359V39.3359C252.027 39.3359 256.504 34.8588 256.504 29.3359H246.504ZM218.188 29.3359H208.188C208.188 34.8588 212.665 39.3359 218.188 39.3359V29.3359ZM218.188 17.5625V7.5625C212.665 7.5625 208.188 12.0397 208.188 17.5625H218.188ZM238.984 17.5625V27.5625C244.507 27.5625 248.984 23.0853 248.984 17.5625H238.984ZM238.984 15.9297H248.984C248.984 10.4068 244.507 5.92969 238.984 5.92969V15.9297ZM218.145 15.9297H208.145C208.145 21.4525 212.622 25.9297 218.145 25.9297V15.9297ZM218.145 10.6445V0.644531C212.622 0.644531 208.145 5.12168 208.145 10.6445H218.145ZM250.07 31.1406H240.07V36.6406H250.07H260.07V31.1406H250.07ZM250.07 36.6406V26.6406H213.805V36.6406V46.6406H250.07V36.6406ZM213.805 36.6406H223.805V31.1406H213.805H203.805V36.6406H213.805ZM213.805 31.1406V41.1406H250.07V31.1406V21.1406H213.805V31.1406ZM246.762 43.6875H236.762V49.1875H246.762H256.762V43.6875H246.762ZM246.762 49.1875V39.1875H218.23V49.1875V59.1875H246.762V49.1875ZM218.23 49.1875H228.23V38.2305H218.23H208.23V49.1875H218.23ZM218.23 38.2305V48.2305H225.062V38.2305V28.2305H218.23V38.2305ZM225.062 38.2305H215.062V43.6875H225.062H235.062V38.2305H225.062ZM225.062 43.6875V53.6875H246.762V43.6875V33.6875H225.062V43.6875ZM245.859 10.6445L235.859 10.6445V22.418H245.859H255.859V10.6445H245.859ZM245.859 22.418V12.418L225.02 12.418V22.418V32.418H245.859V22.418ZM225.02 22.418H215.02V24.2227H225.02H235.02V22.418H225.02ZM225.02 24.2227V34.2227H246.504V24.2227V14.2227H225.02V24.2227ZM246.504 24.2227H236.504V29.3359H246.504H256.504V24.2227H246.504ZM246.504 29.3359V19.3359H218.188V29.3359V39.3359H246.504V29.3359ZM218.188 29.3359H228.188V17.5625H218.188H208.188V29.3359H218.188ZM218.188 17.5625V27.5625H238.984V17.5625V7.5625L218.188 7.5625V17.5625ZM238.984 17.5625H248.984V15.9297H238.984H228.984V17.5625H238.984ZM238.984 15.9297V5.92969L218.145 5.92969V15.9297V25.9297H238.984V15.9297ZM218.145 15.9297H228.145V10.6445H218.145H208.145V15.9297H218.145ZM218.145 10.6445V20.6445H245.859V10.6445V0.644531L218.145 0.644531V10.6445Z" fill="white" mask="url(#path-1-outside-1_6524_1924)"/>
</g>
<defs>
<filter id="filter0_d_6524_1924" x="0" y="0" width="264.07" height="67.875" filterUnits="userSpaceOnUse" color-interpolation-filters="sRGB">
<feFlood flood-opacity="0" result="BackgroundImageFix"/>
<feColorMatrix in="SourceAlpha" type="matrix" values="0 0 0 0 0 0 0 0 0 0 0 0 0 0 0 0 0 0 127 0" result="hardAlpha"/>
<feOffset dy="4"/>
<feGaussianBlur stdDeviation="2"/>
<feComposite in2="hardAlpha" operator="out"/>
<feColorMatrix type="matrix" values="0 0 0 0 0 0 0 0 0 0 0 0 0 0 0 0 0 0 0.07 0"/>
<feBlend mode="normal" in2="BackgroundImageFix" result="effect1_dropShadow_6524_1924"/>
<feBlend mode="normal" in="SourceGraphic" in2="effect1_dropShadow_6524_1924" result="shape"/>
</filter>
</defs>
</svg>
