<svg width="474" height="68" viewBox="0 0 474 68" fill="none" xmlns="http://www.w3.org/2000/svg">
<g filter="url(#filter0_d_6524_1879)">
<mask id="path-1-outside-1_6524_1879" maskUnits="userSpaceOnUse" x="3.18359" y="-0.507813" width="467" height="61" fill="black">
<rect fill="white" x="3.18359" y="-0.507813" width="467" height="61"/>
<path d="M47.8164 10V49.7461H40.8125V10L47.8164 10ZM37.418 13.3086V18.7656H34.5391V34.793C35.957 34.6641 37.3535 34.5352 38.707 34.3633L39.0938 39.4766C30.7578 40.8945 21.8203 41.0664 14.6016 41.0664L14 35.5664L17.9961 35.5234V18.7656H15.0742V13.3086H37.418ZM24.6133 35.3516L27.8359 35.2227V18.7656H24.6133V35.3516ZM84.6836 27.9609V33.418H56.1523V13.0938L84.4258 13.0937V18.6367L62.9414 18.6367V27.9609L84.6836 27.9609ZM88.4219 39.6914V45.3203H52.1133V39.6914H88.4219ZM97.7891 12.5352V17.7344H100.969V12.5352H107.328V32.2148H91.2578V12.5352H97.7891ZM97.7891 26.8437H100.969V22.9336H97.7891V26.8437ZM124.516 10.0859V34.0625H117.984V24.9102H115.922V33.8477H109.562V10.7305H115.922V19.3672H117.984V10.0859H124.516ZM124.516 35.4805V49.7461H117.641V40.9375H96.6289V35.4805H124.516ZM146.301 10.5156C155.625 10.5156 160.953 12.8789 160.996 17.2187C160.953 21.6016 155.625 23.9648 146.301 23.9648C136.934 23.9648 131.52 21.6016 131.562 17.2187C131.52 12.8789 136.934 10.5156 146.301 10.5156ZM146.301 15.5C140.93 15.5 138.781 16.0156 138.781 17.2187C138.781 18.6797 140.93 18.9375 146.301 18.9805C151.715 18.9375 153.863 18.6797 153.863 17.2187C153.863 16.0156 151.715 15.5 146.301 15.5ZM164.434 25.2969V30.7539L128.168 30.7539V25.2969H164.434ZM160.137 32.2578V43.2148L138.953 43.2148V44.5039L161.082 44.5039V49.5742L132.207 49.5742V38.4883L153.348 38.4883V37.2852L132.25 37.2852V32.2578L160.137 32.2578ZM186.949 10.9883C190 10.9883 192.686 11.9766 194.598 13.6523H202.719V10H209.594V29.6367H202.719V26.8867H194.555C192.643 28.541 189.979 29.5078 186.949 29.5078C180.848 29.5078 176.164 25.6836 176.207 20.2266C176.164 14.8125 180.848 10.9883 186.949 10.9883ZM186.949 16.4883C184.457 16.5312 182.695 17.7344 182.738 20.2266C182.695 22.7617 184.457 24.0078 186.949 24.0078C189.355 24.0078 191.031 22.7617 191.074 20.2266C191.031 17.7344 189.355 16.5312 186.949 16.4883ZM209.594 31.0977V42.6133H189.699V44.0312H210.539V49.4023H182.738V37.6289H202.719V36.3398H182.738V31.0977H209.594ZM197.52 21.5586H202.719V18.8945H197.52C197.562 19.3242 197.605 19.7754 197.605 20.2266C197.605 20.6777 197.562 21.1289 197.52 21.5586ZM247.277 10.0859V39.3477H240.402V10.0859H247.277ZM248.266 43.6875V49.1875H220.164V36.8125H227.039V43.6875H248.266ZM234.43 12.5352V25.9414H222.699V29.1211C229.51 29.0781 233.57 28.8633 238.039 27.918L238.812 33.375C233.527 34.4922 228.5 34.6641 219.562 34.6211H215.91V20.957H227.641V17.9492H215.867V12.5352H234.43ZM279.074 13.9531V19.2812H269.148V24.2227H278.172V29.4648H269.148V35.3945C272.844 35.373 275.809 35.2227 279.332 34.8359L279.805 40.4219C275.25 41.0234 271.254 41.1523 265.539 41.1523H262.617V13.9531H279.074ZM296.09 10V49.7461H289.516V30.5391H287.41V48.0273H280.922V10.4727H287.41V25.082H289.516V10H296.09ZM332.012 27.2734V32.6875H320.969V39.9922H335.75V45.5781H299.441V39.9922H314.137V32.6875H303.48V12.5781H331.754V17.9922H310.398V27.2734H332.012ZM373.777 40.0781V45.6641H337.469V40.0781H352.164V35.0078H341.422V20.957H363.035V17.8633H341.379V12.3633L369.867 12.3633V26.2852H348.34V29.4648H370.77V35.0078H358.996V40.0781H373.777ZM416.875 10V18.7656H421.816V24.3086H416.875V33.1602H409.957V10H416.875ZM392.77 12.4492V16.832H398.742V12.4492H405.617V31.5703L385.938 31.5703V12.4492H392.77ZM392.77 26.2422H398.742V22.0742H392.77V26.2422ZM417.004 34.6641V40.1211L397.152 40.1211V43.9023L417.734 43.9023V49.2734L390.234 49.2734V34.6641L417.004 34.6641ZM455.461 20.0977V25.4258H427.359V11.418L434.234 11.418V20.0977H455.461ZM459.371 28.9492V34.2773H423.105V28.9492H459.371ZM455.719 43.4727V48.9727H426.887V37.0273H433.848V43.4727H455.719Z"/>
</mask>
<path d="M47.8164 10V49.7461H40.8125V10L47.8164 10ZM37.418 13.3086V18.7656H34.5391V34.793C35.957 34.6641 37.3535 34.5352 38.707 34.3633L39.0938 39.4766C30.7578 40.8945 21.8203 41.0664 14.6016 41.0664L14 35.5664L17.9961 35.5234V18.7656H15.0742V13.3086H37.418ZM24.6133 35.3516L27.8359 35.2227V18.7656H24.6133V35.3516ZM84.6836 27.9609V33.418H56.1523V13.0938L84.4258 13.0937V18.6367L62.9414 18.6367V27.9609L84.6836 27.9609ZM88.4219 39.6914V45.3203H52.1133V39.6914H88.4219ZM97.7891 12.5352V17.7344H100.969V12.5352H107.328V32.2148H91.2578V12.5352H97.7891ZM97.7891 26.8437H100.969V22.9336H97.7891V26.8437ZM124.516 10.0859V34.0625H117.984V24.9102H115.922V33.8477H109.562V10.7305H115.922V19.3672H117.984V10.0859H124.516ZM124.516 35.4805V49.7461H117.641V40.9375H96.6289V35.4805H124.516ZM146.301 10.5156C155.625 10.5156 160.953 12.8789 160.996 17.2187C160.953 21.6016 155.625 23.9648 146.301 23.9648C136.934 23.9648 131.52 21.6016 131.562 17.2187C131.52 12.8789 136.934 10.5156 146.301 10.5156ZM146.301 15.5C140.93 15.5 138.781 16.0156 138.781 17.2187C138.781 18.6797 140.93 18.9375 146.301 18.9805C151.715 18.9375 153.863 18.6797 153.863 17.2187C153.863 16.0156 151.715 15.5 146.301 15.5ZM164.434 25.2969V30.7539L128.168 30.7539V25.2969H164.434ZM160.137 32.2578V43.2148L138.953 43.2148V44.5039L161.082 44.5039V49.5742L132.207 49.5742V38.4883L153.348 38.4883V37.2852L132.25 37.2852V32.2578L160.137 32.2578ZM186.949 10.9883C190 10.9883 192.686 11.9766 194.598 13.6523H202.719V10H209.594V29.6367H202.719V26.8867H194.555C192.643 28.541 189.979 29.5078 186.949 29.5078C180.848 29.5078 176.164 25.6836 176.207 20.2266C176.164 14.8125 180.848 10.9883 186.949 10.9883ZM186.949 16.4883C184.457 16.5312 182.695 17.7344 182.738 20.2266C182.695 22.7617 184.457 24.0078 186.949 24.0078C189.355 24.0078 191.031 22.7617 191.074 20.2266C191.031 17.7344 189.355 16.5312 186.949 16.4883ZM209.594 31.0977V42.6133H189.699V44.0312H210.539V49.4023H182.738V37.6289H202.719V36.3398H182.738V31.0977H209.594ZM197.52 21.5586H202.719V18.8945H197.52C197.562 19.3242 197.605 19.7754 197.605 20.2266C197.605 20.6777 197.562 21.1289 197.52 21.5586ZM247.277 10.0859V39.3477H240.402V10.0859H247.277ZM248.266 43.6875V49.1875H220.164V36.8125H227.039V43.6875H248.266ZM234.43 12.5352V25.9414H222.699V29.1211C229.51 29.0781 233.57 28.8633 238.039 27.918L238.812 33.375C233.527 34.4922 228.5 34.6641 219.562 34.6211H215.91V20.957H227.641V17.9492H215.867V12.5352H234.43ZM279.074 13.9531V19.2812H269.148V24.2227H278.172V29.4648H269.148V35.3945C272.844 35.373 275.809 35.2227 279.332 34.8359L279.805 40.4219C275.25 41.0234 271.254 41.1523 265.539 41.1523H262.617V13.9531H279.074ZM296.09 10V49.7461H289.516V30.5391H287.41V48.0273H280.922V10.4727H287.41V25.082H289.516V10H296.09ZM332.012 27.2734V32.6875H320.969V39.9922H335.75V45.5781H299.441V39.9922H314.137V32.6875H303.48V12.5781H331.754V17.9922H310.398V27.2734H332.012ZM373.777 40.0781V45.6641H337.469V40.0781H352.164V35.0078H341.422V20.957H363.035V17.8633H341.379V12.3633L369.867 12.3633V26.2852H348.34V29.4648H370.77V35.0078H358.996V40.0781H373.777ZM416.875 10V18.7656H421.816V24.3086H416.875V33.1602H409.957V10H416.875ZM392.77 12.4492V16.832H398.742V12.4492H405.617V31.5703L385.938 31.5703V12.4492H392.77ZM392.77 26.2422H398.742V22.0742H392.77V26.2422ZM417.004 34.6641V40.1211L397.152 40.1211V43.9023L417.734 43.9023V49.2734L390.234 49.2734V34.6641L417.004 34.6641ZM455.461 20.0977V25.4258H427.359V11.418L434.234 11.418V20.0977H455.461ZM459.371 28.9492V34.2773H423.105V28.9492H459.371ZM455.719 43.4727V48.9727H426.887V37.0273H433.848V43.4727H455.719Z" fill="#11DCA9"/>
<path d="M47.8164 10H57.8164C57.8164 4.47715 53.3393 0 47.8164 0V10ZM47.8164 49.7461V59.7461C53.3393 59.7461 57.8164 55.2689 57.8164 49.7461H47.8164ZM40.8125 49.7461H30.8125C30.8125 55.2689 35.2897 59.7461 40.8125 59.7461V49.7461ZM40.8125 10V0C35.2897 0 30.8125 4.47715 30.8125 10H40.8125ZM37.418 13.3086H47.418C47.418 7.78575 42.9408 3.30859 37.418 3.30859V13.3086ZM37.418 18.7656V28.7656C42.9408 28.7656 47.418 24.2885 47.418 18.7656H37.418ZM34.5391 18.7656V8.76562C29.0162 8.76562 24.5391 13.2428 24.5391 18.7656H34.5391ZM34.5391 34.793H24.5391C24.5391 37.6026 25.721 40.2826 27.7957 42.1772C29.8704 44.0718 32.6464 45.0063 35.4444 44.7519L34.5391 34.793ZM38.707 34.3633L48.6786 33.6091C48.4719 30.8766 47.1529 28.3486 45.0299 26.6159C42.9069 24.8833 40.1658 24.0977 37.4473 24.4429L38.707 34.3633ZM39.0938 39.4766L40.7707 49.335C45.8606 48.4691 49.4546 43.8708 49.0653 38.7224L39.0938 39.4766ZM14.6016 41.0664L4.66085 42.1537C5.21557 47.2255 9.49952 51.0664 14.6016 51.0664V41.0664ZM14 35.5664L13.8925 25.567C11.0699 25.5973 8.39167 26.8192 6.51866 28.9309C4.64566 31.0427 3.75238 33.8477 4.05928 36.6537L14 35.5664ZM17.9961 35.5234L18.1036 45.5229C23.5842 45.4639 27.9961 41.0043 27.9961 35.5234H17.9961ZM17.9961 18.7656H27.9961C27.9961 13.2428 23.5189 8.76562 17.9961 8.76562V18.7656ZM15.0742 18.7656H5.07422C5.07422 24.2885 9.55137 28.7656 15.0742 28.7656V18.7656ZM15.0742 13.3086V3.30859C9.55137 3.30859 5.07422 7.78575 5.07422 13.3086H15.0742ZM24.6133 35.3516H14.6133C14.6133 38.0731 15.7225 40.677 17.685 42.5626C19.6474 44.4481 22.2936 45.4523 25.013 45.3436L24.6133 35.3516ZM27.8359 35.2227L28.2356 45.2147C33.5987 45.0001 37.8359 40.59 37.8359 35.2227H27.8359ZM27.8359 18.7656H37.8359C37.8359 13.2428 33.3588 8.76562 27.8359 8.76562V18.7656ZM24.6133 18.7656V8.76562C19.0904 8.76562 14.6133 13.2428 14.6133 18.7656H24.6133ZM47.8164 10L37.8164 10V49.7461H47.8164H57.8164V10H47.8164ZM47.8164 49.7461V39.7461H40.8125V49.7461V59.7461H47.8164V49.7461ZM40.8125 49.7461H50.8125V10L40.8125 10H30.8125V49.7461H40.8125ZM40.8125 10V20H47.8164V10V0H40.8125V10ZM37.418 13.3086H27.418V18.7656H37.418H47.418V13.3086H37.418ZM37.418 18.7656V8.76562H34.5391V18.7656V28.7656H37.418V18.7656ZM34.5391 18.7656H24.5391V34.793H34.5391H44.5391V18.7656H34.5391ZM34.5391 34.793L35.4444 44.7519C36.8422 44.6248 38.4102 44.4813 39.9668 44.2836L38.707 34.3633L37.4473 24.4429C36.2968 24.589 35.0718 24.7033 33.6337 24.834L34.5391 34.793ZM38.707 34.3633L28.7355 35.1174L29.1222 40.2307L39.0938 39.4766L49.0653 38.7224L48.6786 33.6091L38.707 34.3633ZM39.0938 39.4766L37.4168 29.6182C29.9736 30.8843 21.7601 31.0664 14.6016 31.0664L14.6016 41.0664V51.0664C21.8805 51.0664 31.542 50.9048 40.7707 49.335L39.0938 39.4766ZM14.6016 41.0664L24.5423 39.9791L23.9407 34.4791L14 35.5664L4.05928 36.6537L4.66085 42.1537L14.6016 41.0664ZM14 35.5664L14.1075 45.5658L18.1036 45.5229L17.9961 35.5234L17.8886 25.524L13.8925 25.567L14 35.5664ZM17.9961 35.5234H27.9961V18.7656H17.9961H7.99609V35.5234H17.9961ZM17.9961 18.7656V8.76562H15.0742V18.7656V28.7656H17.9961V18.7656ZM15.0742 18.7656H25.0742V13.3086H15.0742H5.07422V18.7656H15.0742ZM15.0742 13.3086V23.3086H37.418V13.3086V3.30859L15.0742 3.30859V13.3086ZM24.6133 35.3516L25.013 45.3436L28.2356 45.2147L27.8359 35.2227L27.4363 25.2306L24.2136 25.3596L24.6133 35.3516ZM27.8359 35.2227H37.8359V18.7656H27.8359H17.8359V35.2227H27.8359ZM27.8359 18.7656V8.76562H24.6133V18.7656V28.7656H27.8359V18.7656ZM24.6133 18.7656H14.6133L14.6133 35.3516H24.6133H34.6133V18.7656H24.6133ZM84.6836 27.9609H94.6836C94.6836 22.4381 90.2064 17.9609 84.6836 17.9609V27.9609ZM84.6836 33.418V43.418C90.2064 43.418 94.6836 38.9408 94.6836 33.418H84.6836ZM56.1523 33.418H46.1523C46.1523 38.9408 50.6295 43.418 56.1523 43.418V33.418ZM56.1523 13.0938V3.09375C50.6295 3.09375 46.1523 7.5709 46.1523 13.0938H56.1523ZM84.4258 13.0937H94.4258C94.4258 7.5709 89.9486 3.09375 84.4258 3.09375V13.0937ZM84.4258 18.6367V28.6367C89.9486 28.6367 94.4258 24.1596 94.4258 18.6367H84.4258ZM62.9414 18.6367V8.63672C57.4186 8.63672 52.9414 13.1139 52.9414 18.6367H62.9414ZM62.9414 27.9609H52.9414C52.9414 33.4838 57.4186 37.9609 62.9414 37.9609V27.9609ZM88.4219 39.6914H98.4219C98.4219 34.1686 93.9447 29.6914 88.4219 29.6914V39.6914ZM88.4219 45.3203V55.3203C93.9447 55.3203 98.4219 50.8432 98.4219 45.3203H88.4219ZM52.1133 45.3203H42.1133C42.1133 50.8432 46.5904 55.3203 52.1133 55.3203V45.3203ZM52.1133 39.6914V29.6914C46.5904 29.6914 42.1133 34.1686 42.1133 39.6914H52.1133ZM84.6836 27.9609L74.6836 27.9609V33.418H84.6836H94.6836V27.9609H84.6836ZM84.6836 33.418V23.418L56.1523 23.418V33.418V43.418H84.6836V33.418ZM56.1523 33.418H66.1523V13.0938H56.1523H46.1523V33.418H56.1523ZM56.1523 13.0938V23.0938L84.4258 23.0937V13.0937V3.09375L56.1523 3.09375V13.0938ZM84.4258 13.0937L74.4258 13.0938V18.6367L84.4258 18.6367H94.4258V13.0937H84.4258ZM84.4258 18.6367V8.63672H62.9414V18.6367V28.6367H84.4258V18.6367ZM62.9414 18.6367H52.9414V27.9609H62.9414H72.9414V18.6367H62.9414ZM62.9414 27.9609V37.9609H84.6836V27.9609V17.9609L62.9414 17.9609V27.9609ZM88.4219 39.6914H78.4219V45.3203H88.4219H98.4219V39.6914H88.4219ZM88.4219 45.3203V35.3203H52.1133V45.3203V55.3203H88.4219V45.3203ZM52.1133 45.3203H62.1133V39.6914H52.1133H42.1133V45.3203H52.1133ZM52.1133 39.6914V49.6914H88.4219V39.6914V29.6914H52.1133V39.6914ZM97.7891 12.5352H107.789C107.789 7.01231 103.312 2.53516 97.7891 2.53516V12.5352ZM97.7891 17.7344H87.7891C87.7891 23.2572 92.2662 27.7344 97.7891 27.7344V17.7344ZM100.969 17.7344V27.7344C106.492 27.7344 110.969 23.2572 110.969 17.7344H100.969ZM100.969 12.5352V2.53516C95.4459 2.53516 90.9688 7.01231 90.9688 12.5352H100.969ZM107.328 12.5352H117.328C117.328 7.01231 112.851 2.53516 107.328 2.53516V12.5352ZM107.328 32.2148V42.2148C112.851 42.2148 117.328 37.7377 117.328 32.2148H107.328ZM91.2578 32.2148H81.2578C81.2578 37.7377 85.735 42.2148 91.2578 42.2148V32.2148ZM91.2578 12.5352V2.53516C85.735 2.53516 81.2578 7.01231 81.2578 12.5352H91.2578ZM97.7891 26.8437H87.7891C87.7891 32.3666 92.2662 36.8438 97.7891 36.8438V26.8437ZM100.969 26.8437V36.8438C106.492 36.8438 110.969 32.3666 110.969 26.8437H100.969ZM100.969 22.9336H110.969C110.969 17.4107 106.492 12.9336 100.969 12.9336V22.9336ZM97.7891 22.9336V12.9336C92.2662 12.9336 87.7891 17.4107 87.7891 22.9336H97.7891ZM124.516 10.0859H134.516C134.516 4.56309 130.038 0.0859375 124.516 0.0859375V10.0859ZM124.516 34.0625V44.0625C130.038 44.0625 134.516 39.5853 134.516 34.0625H124.516ZM117.984 34.0625H107.984C107.984 39.5853 112.462 44.0625 117.984 44.0625V34.0625ZM117.984 24.9102H127.984C127.984 19.3873 123.507 14.9102 117.984 14.9102V24.9102ZM115.922 24.9102V14.9102C110.399 14.9102 105.922 19.3873 105.922 24.9102H115.922ZM115.922 33.8477V43.8477C121.445 43.8477 125.922 39.3705 125.922 33.8477H115.922ZM109.562 33.8477H99.5625C99.5625 39.3705 104.04 43.8477 109.562 43.8477V33.8477ZM109.562 10.7305V0.730469C104.04 0.730469 99.5625 5.20762 99.5625 10.7305L109.562 10.7305ZM115.922 10.7305H125.922C125.922 5.20762 121.445 0.730469 115.922 0.730469V10.7305ZM115.922 19.3672H105.922C105.922 24.89 110.399 29.3672 115.922 29.3672V19.3672ZM117.984 19.3672V29.3672C123.507 29.3672 127.984 24.89 127.984 19.3672H117.984ZM117.984 10.0859V0.0859375C112.462 0.0859375 107.984 4.56309 107.984 10.0859L117.984 10.0859ZM124.516 35.4805H134.516C134.516 29.9576 130.038 25.4805 124.516 25.4805V35.4805ZM124.516 49.7461V59.7461C130.038 59.7461 134.516 55.2689 134.516 49.7461H124.516ZM117.641 49.7461H107.641C107.641 55.2689 112.118 59.7461 117.641 59.7461V49.7461ZM117.641 40.9375H127.641C127.641 35.4147 123.163 30.9375 117.641 30.9375V40.9375ZM96.6289 40.9375H86.6289C86.6289 46.4603 91.1061 50.9375 96.6289 50.9375V40.9375ZM96.6289 35.4805V25.4805C91.1061 25.4805 86.6289 29.9576 86.6289 35.4805H96.6289ZM97.7891 12.5352H87.7891V17.7344H97.7891H107.789V12.5352H97.7891ZM97.7891 17.7344V27.7344H100.969V17.7344V7.73437H97.7891V17.7344ZM100.969 17.7344H110.969V12.5352H100.969H90.9688V17.7344H100.969ZM100.969 12.5352V22.5352H107.328V12.5352V2.53516H100.969V12.5352ZM107.328 12.5352H97.3281V32.2148H107.328H117.328V12.5352H107.328ZM107.328 32.2148V22.2148H91.2578V32.2148V42.2148H107.328V32.2148ZM91.2578 32.2148H101.258V12.5352H91.2578H81.2578V32.2148H91.2578ZM91.2578 12.5352V22.5352H97.7891V12.5352V2.53516L91.2578 2.53516V12.5352ZM97.7891 26.8437V36.8438H100.969V26.8437V16.8437H97.7891V26.8437ZM100.969 26.8437H110.969V22.9336H100.969H90.9688V26.8437H100.969ZM100.969 22.9336V12.9336H97.7891V22.9336V32.9336H100.969V22.9336ZM97.7891 22.9336H87.7891V26.8437H97.7891H107.789V22.9336H97.7891ZM124.516 10.0859H114.516V34.0625H124.516H134.516V10.0859H124.516ZM124.516 34.0625V24.0625H117.984V34.0625V44.0625H124.516V34.0625ZM117.984 34.0625H127.984V24.9102H117.984H107.984V34.0625H117.984ZM117.984 24.9102V14.9102H115.922V24.9102V34.9102H117.984V24.9102ZM115.922 24.9102H105.922V33.8477H115.922H125.922V24.9102H115.922ZM115.922 33.8477V23.8477H109.562V33.8477V43.8477H115.922V33.8477ZM109.562 33.8477H119.562V10.7305H109.562L99.5625 10.7305V33.8477H109.562ZM109.562 10.7305V20.7305H115.922V10.7305V0.730469H109.562V10.7305ZM115.922 10.7305L105.922 10.7305V19.3672H115.922H125.922V10.7305H115.922ZM115.922 19.3672V29.3672H117.984V19.3672V9.36719H115.922V19.3672ZM117.984 19.3672H127.984V10.0859H117.984L107.984 10.0859V19.3672H117.984ZM117.984 10.0859V20.0859H124.516V10.0859V0.0859375H117.984V10.0859ZM124.516 35.4805H114.516V49.7461H124.516H134.516V35.4805H124.516ZM124.516 49.7461V39.7461H117.641V49.7461V59.7461H124.516V49.7461ZM117.641 49.7461H127.641V40.9375H117.641H107.641V49.7461H117.641ZM117.641 40.9375V30.9375H96.6289V40.9375V50.9375H117.641V40.9375ZM96.6289 40.9375H106.629V35.4805H96.6289H86.6289V40.9375H96.6289ZM96.6289 35.4805V45.4805H124.516V35.4805V25.4805H96.6289V35.4805ZM160.996 17.2187L170.996 17.3168C170.996 17.2511 170.996 17.1854 170.996 17.1197L160.996 17.2187ZM131.562 17.2187L141.562 17.3168C141.563 17.2511 141.563 17.1854 141.562 17.1197L131.562 17.2187ZM146.301 18.9805L146.221 28.9801C146.274 28.9806 146.327 28.9806 146.38 28.9802L146.301 18.9805ZM164.434 25.2969H174.434C174.434 19.774 169.956 15.2969 164.434 15.2969V25.2969ZM164.434 30.7539V40.7539C169.956 40.7539 174.434 36.2768 174.434 30.7539H164.434ZM128.168 30.7539H118.168C118.168 36.2768 122.645 40.7539 128.168 40.7539V30.7539ZM128.168 25.2969V15.2969C122.645 15.2969 118.168 19.774 118.168 25.2969H128.168ZM160.137 32.2578H170.137C170.137 26.735 165.66 22.2578 160.137 22.2578V32.2578ZM160.137 43.2148V53.2148C165.66 53.2148 170.137 48.7377 170.137 43.2148H160.137ZM138.953 43.2148V33.2148C133.43 33.2148 128.953 37.692 128.953 43.2148H138.953ZM138.953 44.5039H128.953C128.953 50.0268 133.43 54.5039 138.953 54.5039V44.5039ZM161.082 44.5039H171.082C171.082 38.9811 166.605 34.5039 161.082 34.5039V44.5039ZM161.082 49.5742V59.5742C166.605 59.5742 171.082 55.0971 171.082 49.5742H161.082ZM132.207 49.5742H122.207C122.207 55.0971 126.684 59.5742 132.207 59.5742V49.5742ZM132.207 38.4883V28.4883C126.684 28.4883 122.207 32.9654 122.207 38.4883H132.207ZM153.348 38.4883V48.4883C158.87 48.4883 163.348 44.0111 163.348 38.4883H153.348ZM153.348 37.2852H163.348C163.348 31.7623 158.87 27.2852 153.348 27.2852V37.2852ZM132.25 37.2852H122.25C122.25 42.808 126.727 47.2852 132.25 47.2852V37.2852ZM132.25 32.2578V22.2578C126.727 22.2578 122.25 26.735 122.25 32.2578H132.25ZM146.301 10.5156V20.5156C148.229 20.5156 149.768 20.6392 150.947 20.8275C152.152 21.02 152.782 21.249 153.004 21.3494C153.235 21.4538 152.726 21.2804 152.119 20.505C151.411 19.6003 151.008 18.4288 150.997 17.3178L160.996 17.2187L170.996 17.1197C170.923 9.78613 165.973 5.26676 161.254 3.13007C156.866 1.14355 151.554 0.515625 146.301 0.515625V10.5156ZM160.996 17.2187L150.997 17.1207C151.007 16.0441 151.395 14.8886 152.097 13.985C152.701 13.2084 153.211 13.0316 152.988 13.133C152.771 13.2315 152.146 13.4603 150.943 13.6529C149.767 13.8412 148.23 13.9648 146.301 13.9648V23.9648V33.9648C151.551 33.9648 156.873 33.3378 161.27 31.3377C166.024 29.1749 170.924 24.6299 170.996 17.3168L160.996 17.2187ZM146.301 23.9648V13.9648C144.359 13.9648 142.804 13.841 141.61 13.6512C140.388 13.4568 139.748 13.2253 139.522 13.1231C139.284 13.0155 139.816 13.1961 140.441 14.0048C141.175 14.9544 141.573 16.1768 141.562 17.3168L131.562 17.2187L121.563 17.1207C121.49 24.6082 126.546 29.2059 131.284 31.3476C135.689 33.3391 141.035 33.9648 146.301 33.9648V23.9648ZM131.562 17.2187L141.562 17.1197C141.574 18.2952 141.16 19.5344 140.419 20.4852C139.79 21.2927 139.26 21.4698 139.506 21.3593C139.737 21.2552 140.382 21.0234 141.607 20.8292C142.803 20.6394 144.36 20.5156 146.301 20.5156V10.5156V0.515625C141.032 0.515625 135.696 1.14229 131.3 3.12017C126.599 5.23532 121.489 9.80756 121.563 17.3178L131.562 17.2187ZM146.301 15.5V5.5C143.552 5.5 140.682 5.60872 138.275 6.16502C137.119 6.43215 135.076 7.01263 133.138 8.49003C130.764 10.3003 128.781 13.3361 128.781 17.2187H138.781H148.781C148.781 18.6243 148.45 20.1198 147.699 21.5217C146.971 22.8801 146.035 23.807 145.264 24.3952C144.517 24.9644 143.858 25.2695 143.489 25.4187C143.107 25.5729 142.845 25.636 142.779 25.6514C142.675 25.6754 142.874 25.623 143.56 25.5748C144.207 25.5294 145.1 25.5 146.301 25.5V15.5ZM138.781 17.2187H128.781C128.781 20.5239 130.219 23.706 132.92 25.8861C135.043 27.5992 137.327 28.1787 138.482 28.4201C140.837 28.9121 143.745 28.9603 146.221 28.9801L146.301 18.9805L146.381 8.98079C145.085 8.97042 144.131 8.94762 143.413 8.90785C142.645 8.86526 142.451 8.81754 142.572 8.84263C142.653 8.85961 142.971 8.92924 143.425 9.10871C143.872 9.2859 144.641 9.64408 145.481 10.3225C146.369 11.0393 147.28 12.0705 147.93 13.4499C148.577 14.8216 148.781 16.1475 148.781 17.2187H138.781ZM146.301 18.9805L146.38 28.9802C148.876 28.9603 151.792 28.912 154.148 28.4219C155.303 28.1817 157.589 27.6047 159.714 25.8933C162.423 23.7125 163.863 20.5264 163.863 17.2187H153.863H143.863C143.863 16.1476 144.068 14.8198 144.716 13.4457C145.368 12.0637 146.282 11.0318 147.172 10.3153C148.013 9.63745 148.782 9.28046 149.229 9.10441C149.681 8.92603 149.997 8.85723 150.076 8.84082C150.192 8.81682 149.992 8.86492 149.216 8.90766C148.492 8.94759 147.529 8.97041 146.221 8.98078L146.301 18.9805ZM153.863 17.2187H163.863C163.863 13.3329 161.878 10.294 159.497 8.48317C157.556 7.00718 155.51 6.42878 154.355 6.16284C151.946 5.60863 149.068 5.5 146.301 5.5V15.5V25.5C147.514 25.5 148.416 25.5295 149.071 25.5751C149.765 25.6235 149.97 25.6765 149.87 25.6536C149.806 25.6388 149.545 25.5764 149.165 25.4232C148.796 25.2749 148.137 24.9708 147.389 24.4021C146.616 23.8142 145.678 22.8868 144.948 21.5261C144.195 20.1218 143.863 18.6244 143.863 17.2187H153.863ZM164.434 25.2969H154.434V30.7539H164.434H174.434V25.2969H164.434ZM164.434 30.7539V20.7539H128.168V30.7539V40.7539L164.434 40.7539V30.7539ZM128.168 30.7539H138.168V25.2969H128.168H118.168V30.7539H128.168ZM128.168 25.2969V35.2969L164.434 35.2969V25.2969V15.2969H128.168V25.2969ZM160.137 32.2578H150.137V43.2148H160.137H170.137V32.2578H160.137ZM160.137 43.2148V33.2148L138.953 33.2148V43.2148V53.2148L160.137 53.2148V43.2148ZM138.953 43.2148H128.953V44.5039H138.953L148.953 44.5039V43.2148L138.953 43.2148ZM138.953 44.5039V54.5039L161.082 54.5039V44.5039V34.5039L138.953 34.5039V44.5039ZM161.082 44.5039H151.082V49.5742H161.082H171.082V44.5039H161.082ZM161.082 49.5742V39.5742L132.207 39.5742V49.5742V59.5742L161.082 59.5742V49.5742ZM132.207 49.5742L142.207 49.5742V38.4883L132.207 38.4883H122.207V49.5742H132.207ZM132.207 38.4883V48.4883L153.348 48.4883V38.4883V28.4883H132.207V38.4883ZM153.348 38.4883H163.348V37.2852H153.348H143.348V38.4883H153.348ZM153.348 37.2852V27.2852H132.25V37.2852V47.2852L153.348 47.2852V37.2852ZM132.25 37.2852L142.25 37.2852V32.2578L132.25 32.2578H122.25V37.2852H132.25ZM132.25 32.2578V42.2578L160.137 42.2578V32.2578V22.2578H132.25V32.2578ZM194.598 13.6523L188.007 21.1729C189.83 22.7712 192.173 23.6523 194.598 23.6523V13.6523ZM202.719 13.6523V23.6523C208.242 23.6523 212.719 19.1752 212.719 13.6523L202.719 13.6523ZM202.719 10V0C197.196 0 192.719 4.47715 192.719 10H202.719ZM209.594 10H219.594C219.594 4.47715 215.117 0 209.594 0V10ZM209.594 29.6367V39.6367C215.117 39.6367 219.594 35.1596 219.594 29.6367H209.594ZM202.719 29.6367H192.719C192.719 35.1596 197.196 39.6367 202.719 39.6367V29.6367ZM202.719 26.8867L212.719 26.8867C212.719 21.3639 208.242 16.8867 202.719 16.8867V26.8867ZM194.555 26.8867V16.8867C192.152 16.8867 189.829 17.752 188.012 19.3242L194.555 26.8867ZM176.207 20.2266L186.207 20.3053C186.207 20.2526 186.207 20.1999 186.207 20.1472L176.207 20.2266ZM186.949 16.4883L187.128 6.48987C187.011 6.48779 186.894 6.48775 186.777 6.48977L186.949 16.4883ZM182.738 20.2266L192.737 20.396C192.739 20.2821 192.739 20.1681 192.737 20.0542L182.738 20.2266ZM191.074 20.2266L201.073 20.396C201.075 20.2821 201.075 20.1681 201.073 20.0542L191.074 20.2266ZM209.594 31.0977H219.594C219.594 25.5748 215.117 21.0977 209.594 21.0977V31.0977ZM209.594 42.6133V52.6133C215.117 52.6133 219.594 48.1361 219.594 42.6133H209.594ZM189.699 42.6133V32.6133C184.176 32.6133 179.699 37.0904 179.699 42.6133H189.699ZM189.699 44.0312H179.699C179.699 49.5541 184.176 54.0312 189.699 54.0312V44.0312ZM210.539 44.0312H220.539C220.539 38.5084 216.062 34.0312 210.539 34.0312V44.0312ZM210.539 49.4023V59.4023C216.062 59.4023 220.539 54.9252 220.539 49.4023H210.539ZM182.738 49.4023H172.738C172.738 54.9252 177.215 59.4023 182.738 59.4023V49.4023ZM182.738 37.6289V27.6289C177.215 27.6289 172.738 32.1061 172.738 37.6289H182.738ZM202.719 37.6289V47.6289C208.242 47.6289 212.719 43.1518 212.719 37.6289H202.719ZM202.719 36.3398H212.719C212.719 30.817 208.242 26.3398 202.719 26.3398V36.3398ZM182.738 36.3398H172.738C172.738 41.8627 177.215 46.3398 182.738 46.3398V36.3398ZM182.738 31.0977V21.0977C177.215 21.0977 172.738 25.5748 172.738 31.0977H182.738ZM197.52 21.5586L187.569 20.5636C187.288 23.3748 188.209 26.1738 190.105 28.2686C192.001 30.3635 194.694 31.5586 197.52 31.5586V21.5586ZM202.719 21.5586V31.5586C208.242 31.5586 212.719 27.0814 212.719 21.5586L202.719 21.5586ZM202.719 18.8945L212.719 18.8945C212.719 13.3717 208.242 8.89453 202.719 8.89453V18.8945ZM197.52 18.8945V8.89453C194.694 8.89453 192.001 10.0897 190.105 12.1845C188.209 14.2793 187.288 17.0783 187.569 19.8896L197.52 18.8945ZM186.949 10.9883V20.9883C187.869 20.9883 188.128 21.2789 188.007 21.1729L194.598 13.6523L201.189 6.13181C197.243 2.67419 192.131 0.988281 186.949 0.988281V10.9883ZM194.598 13.6523V23.6523H202.719V13.6523V3.65234H194.598V13.6523ZM202.719 13.6523L212.719 13.6523V10H202.719H192.719V13.6523H202.719ZM202.719 10V20L209.594 20V10V0H202.719V10ZM209.594 10H199.594V29.6367H209.594H219.594V10H209.594ZM209.594 29.6367V19.6367L202.719 19.6367V29.6367V39.6367H209.594V29.6367ZM202.719 29.6367H212.719V26.8867L202.719 26.8867H192.719V29.6367H202.719ZM202.719 26.8867V16.8867H194.555V26.8867V36.8867H202.719V26.8867ZM194.555 26.8867L188.012 19.3242C188.132 19.2207 187.875 19.5078 186.949 19.5078V29.5078V39.5078C192.082 39.5078 197.154 37.8613 201.098 34.4492L194.555 26.8867ZM186.949 29.5078V19.5078C185.944 19.5078 185.635 19.196 185.749 19.2926C185.813 19.3473 185.949 19.4887 186.062 19.7306C186.18 19.9827 186.208 20.2019 186.207 20.3053L176.207 20.2266L166.207 20.1478C166.109 32.6991 176.971 39.5078 186.949 39.5078V29.5078ZM176.207 20.2266L186.207 20.1472C186.208 20.2735 186.175 20.5073 186.053 20.7661C185.936 21.0141 185.798 21.1559 185.736 21.2086C185.627 21.3006 185.944 20.9883 186.949 20.9883V10.9883V0.988281C177.004 0.988281 166.108 7.76886 166.207 20.3059L176.207 20.2266ZM186.949 16.4883L186.777 6.48977C184.132 6.53537 180.581 7.20005 177.519 9.73408C174.123 12.5436 172.673 16.5341 172.74 20.399L182.738 20.2266L192.737 20.0542C192.747 20.6295 192.656 21.5133 192.225 22.5234C191.782 23.5601 191.094 24.4601 190.268 25.1438C188.698 26.4425 187.274 26.4842 187.122 26.4868L186.949 16.4883ZM182.738 20.2266L172.74 20.0571C172.675 23.8649 174.068 27.8685 177.453 30.7184C180.554 33.3281 184.184 34.0078 186.949 34.0078V24.0078V14.0078C187.222 14.0078 188.725 14.0645 190.333 15.4173C192.225 17.0104 192.758 19.1233 192.737 20.396L182.738 20.2266ZM186.949 24.0078V34.0078C189.773 34.0078 193.388 33.2765 196.447 30.6248C199.697 27.8079 201.012 23.9622 201.073 20.396L191.074 20.2266L181.076 20.0571C181.093 19.0261 181.549 17.071 183.349 15.511C184.958 14.1161 186.532 14.0078 186.949 14.0078V24.0078ZM191.074 20.2266L201.073 20.0542C201.01 16.4367 199.645 12.6054 196.383 9.82653C193.359 7.25056 189.827 6.53807 187.128 6.48987L186.949 16.4883L186.771 26.4867C186.478 26.4815 184.987 26.392 183.413 25.0514C181.601 23.5079 181.095 21.5242 181.076 20.399L191.074 20.2266ZM209.594 31.0977H199.594V42.6133H209.594H219.594V31.0977H209.594ZM209.594 42.6133V32.6133H189.699V42.6133V52.6133H209.594V42.6133ZM189.699 42.6133H179.699V44.0312H189.699H199.699V42.6133H189.699ZM189.699 44.0312V54.0312H210.539V44.0312V34.0312H189.699V44.0312ZM210.539 44.0312H200.539V49.4023H210.539H220.539V44.0312H210.539ZM210.539 49.4023V39.4023H182.738V49.4023V59.4023H210.539V49.4023ZM182.738 49.4023H192.738V37.6289H182.738H172.738V49.4023H182.738ZM182.738 37.6289V47.6289H202.719V37.6289V27.6289H182.738V37.6289ZM202.719 37.6289H212.719V36.3398H202.719H192.719V37.6289H202.719ZM202.719 36.3398V26.3398H182.738V36.3398V46.3398H202.719V36.3398ZM182.738 36.3398H192.738V31.0977H182.738H172.738V36.3398H182.738ZM182.738 31.0977V41.0977H209.594V31.0977V21.0977L182.738 21.0977V31.0977ZM197.52 21.5586V31.5586H202.719V21.5586V11.5586H197.52V21.5586ZM202.719 21.5586L212.719 21.5586V18.8945L202.719 18.8945H192.719V21.5586H202.719ZM202.719 18.8945V8.89453H197.52V18.8945V28.8945H202.719V18.8945ZM197.52 18.8945L187.569 19.8896C187.579 19.9919 187.587 20.067 187.593 20.1341C187.599 20.1993 187.602 20.2433 187.605 20.2735C187.609 20.3381 187.605 20.3114 187.605 20.2266H197.605L207.605 20.2266C207.605 19.2118 207.51 18.2968 207.47 17.8995L197.52 18.8945ZM197.605 20.2266H187.605C187.605 20.1417 187.609 20.1151 187.605 20.1796C187.602 20.2098 187.599 20.2538 187.593 20.319C187.587 20.3861 187.579 20.4613 187.569 20.5636L197.52 21.5586L207.47 22.5536C207.51 22.1563 207.605 21.2414 207.605 20.2266L197.605 20.2266ZM247.277 10.0859H257.277C257.277 4.56309 252.8 0.0859375 247.277 0.0859375V10.0859ZM247.277 39.3477V49.3477C252.8 49.3477 257.277 44.8705 257.277 39.3477H247.277ZM240.402 39.3477H230.402C230.402 44.8705 234.88 49.3477 240.402 49.3477V39.3477ZM240.402 10.0859V0.0859375C234.88 0.0859375 230.402 4.56309 230.402 10.0859L240.402 10.0859ZM248.266 43.6875H258.266C258.266 38.1647 253.788 33.6875 248.266 33.6875V43.6875ZM248.266 49.1875V59.1875C253.788 59.1875 258.266 54.7103 258.266 49.1875H248.266ZM220.164 49.1875H210.164C210.164 54.7103 214.641 59.1875 220.164 59.1875V49.1875ZM220.164 36.8125V26.8125C214.641 26.8125 210.164 31.2897 210.164 36.8125H220.164ZM227.039 36.8125H237.039C237.039 31.2897 232.562 26.8125 227.039 26.8125V36.8125ZM227.039 43.6875H217.039C217.039 49.2103 221.516 53.6875 227.039 53.6875V43.6875ZM234.43 12.5352H244.43C244.43 7.01231 239.953 2.53516 234.43 2.53516V12.5352ZM234.43 25.9414V35.9414C239.953 35.9414 244.43 31.4643 244.43 25.9414H234.43ZM222.699 25.9414V15.9414C217.176 15.9414 212.699 20.4186 212.699 25.9414H222.699ZM222.699 29.1211H212.699C212.699 31.7842 213.761 34.3373 215.65 36.2144C217.54 38.0916 220.099 39.1377 222.762 39.1209L222.699 29.1211ZM238.039 27.918L247.94 26.5147C247.551 23.7725 246.043 21.3143 243.774 19.7259C241.505 18.1375 238.679 17.5613 235.969 18.1345L238.039 27.918ZM238.812 33.375L240.881 43.1588C246.028 42.0708 249.452 37.1806 248.714 31.9717L238.812 33.375ZM219.562 34.6211L219.611 24.6212C219.595 24.6211 219.579 24.6211 219.562 24.6211V34.6211ZM215.91 34.6211H205.91C205.91 40.1439 210.387 44.6211 215.91 44.6211V34.6211ZM215.91 20.957V10.957C210.387 10.957 205.91 15.4342 205.91 20.957H215.91ZM227.641 20.957V30.957C233.163 30.957 237.641 26.4799 237.641 20.957H227.641ZM227.641 17.9492H237.641C237.641 12.4264 233.163 7.94922 227.641 7.94922V17.9492ZM215.867 17.9492H205.867C205.867 23.4721 210.344 27.9492 215.867 27.9492V17.9492ZM215.867 12.5352V2.53516C210.344 2.53516 205.867 7.01231 205.867 12.5352H215.867ZM247.277 10.0859H237.277V39.3477H247.277H257.277V10.0859H247.277ZM247.277 39.3477V29.3477H240.402V39.3477V49.3477H247.277V39.3477ZM240.402 39.3477H250.402V10.0859H240.402L230.402 10.0859V39.3477H240.402ZM240.402 10.0859V20.0859H247.277V10.0859V0.0859375L240.402 0.0859375V10.0859ZM248.266 43.6875H238.266V49.1875H248.266H258.266V43.6875H248.266ZM248.266 49.1875V39.1875H220.164V49.1875V59.1875H248.266V49.1875ZM220.164 49.1875H230.164V36.8125H220.164H210.164V49.1875H220.164ZM220.164 36.8125V46.8125H227.039V36.8125V26.8125H220.164V36.8125ZM227.039 36.8125H217.039V43.6875H227.039H237.039V36.8125H227.039ZM227.039 43.6875V53.6875H248.266V43.6875V33.6875H227.039V43.6875ZM234.43 12.5352H224.43V25.9414H234.43H244.43V12.5352H234.43ZM234.43 25.9414V15.9414H222.699V25.9414V35.9414H234.43V25.9414ZM222.699 25.9414H212.699V29.1211H222.699H232.699V25.9414H222.699ZM222.699 29.1211L222.762 39.1209C229.708 39.0771 234.605 38.8656 240.109 37.7015L238.039 27.918L235.969 18.1345C232.535 18.8609 229.312 19.0792 222.636 19.1213L222.699 29.1211ZM238.039 27.918L228.138 29.3213L228.911 34.7783L238.812 33.375L248.714 31.9717L247.94 26.5147L238.039 27.918ZM238.812 33.375L236.744 23.5912C232.609 24.4654 228.537 24.6641 219.611 24.6212L219.562 34.6211L219.514 44.621C228.463 44.664 234.446 44.519 240.881 43.1588L238.812 33.375ZM219.562 34.6211V24.6211H215.91V34.6211V44.6211H219.562V34.6211ZM215.91 34.6211H225.91V20.957H215.91H205.91V34.6211H215.91ZM215.91 20.957V30.957H227.641V20.957V10.957H215.91V20.957ZM227.641 20.957H237.641V17.9492H227.641H217.641V20.957H227.641ZM227.641 17.9492V7.94922H215.867V17.9492V27.9492H227.641V17.9492ZM215.867 17.9492H225.867V12.5352H215.867H205.867V17.9492H215.867ZM215.867 12.5352V22.5352H234.43V12.5352V2.53516L215.867 2.53516V12.5352ZM279.074 13.9531H289.074C289.074 8.43028 284.597 3.95312 279.074 3.95312V13.9531ZM279.074 19.2812V29.2812C284.597 29.2812 289.074 24.8041 289.074 19.2812H279.074ZM269.148 19.2812V9.28125C263.626 9.28125 259.148 13.7584 259.148 19.2812H269.148ZM269.148 24.2227H259.148C259.148 29.7455 263.626 34.2227 269.148 34.2227V24.2227ZM278.172 24.2227H288.172C288.172 18.6998 283.695 14.2227 278.172 14.2227V24.2227ZM278.172 29.4648V39.4648C283.695 39.4648 288.172 34.9877 288.172 29.4648H278.172ZM269.148 29.4648V19.4648C263.626 19.4648 259.148 23.942 259.148 29.4648H269.148ZM269.148 35.3945H259.148C259.148 38.0568 260.21 40.6091 262.098 42.4861C263.986 44.3631 266.544 45.4098 269.207 45.3944L269.148 35.3945ZM279.332 34.8359L289.296 33.9928C289.069 31.3071 287.767 28.8268 285.686 27.1141C283.605 25.4015 280.92 24.6016 278.241 24.8956L279.332 34.8359ZM279.805 40.4219L281.114 50.3358C286.409 49.6365 290.219 44.9003 289.769 39.5787L279.805 40.4219ZM262.617 41.1523H252.617C252.617 46.6752 257.094 51.1523 262.617 51.1523V41.1523ZM262.617 13.9531V3.95312C257.094 3.95312 252.617 8.43028 252.617 13.9531H262.617ZM296.09 10L306.09 10C306.09 4.47715 301.613 0 296.09 0V10ZM296.09 49.7461V59.7461C301.613 59.7461 306.09 55.2689 306.09 49.7461H296.09ZM289.516 49.7461H279.516C279.516 55.2689 283.993 59.7461 289.516 59.7461V49.7461ZM289.516 30.5391H299.516C299.516 25.0162 295.038 20.5391 289.516 20.5391V30.5391ZM287.41 30.5391V20.5391C281.887 20.5391 277.41 25.0162 277.41 30.5391H287.41ZM287.41 48.0273V58.0273C292.933 58.0273 297.41 53.5502 297.41 48.0273H287.41ZM280.922 48.0273H270.922C270.922 53.5502 275.399 58.0273 280.922 58.0273V48.0273ZM280.922 10.4727V0.472656C275.399 0.472656 270.922 4.94981 270.922 10.4727H280.922ZM287.41 10.4727H297.41C297.41 4.94981 292.933 0.472656 287.41 0.472656V10.4727ZM287.41 25.082H277.41C277.41 30.6049 281.887 35.082 287.41 35.082V25.082ZM289.516 25.082V35.082C295.038 35.082 299.516 30.6049 299.516 25.082H289.516ZM289.516 10V0C283.993 0 279.516 4.47715 279.516 10H289.516ZM279.074 13.9531H269.074V19.2812H279.074H289.074V13.9531H279.074ZM279.074 19.2812V9.28125H269.148V19.2812V29.2812H279.074V19.2812ZM269.148 19.2812H259.148V24.2227H269.148H279.148V19.2812H269.148ZM269.148 24.2227V34.2227H278.172V24.2227V14.2227H269.148V24.2227ZM278.172 24.2227H268.172V29.4648H278.172H288.172V24.2227H278.172ZM278.172 29.4648V19.4648H269.148V29.4648V39.4648H278.172V29.4648ZM269.148 29.4648H259.148V35.3945H269.148H279.148V29.4648H269.148ZM269.148 35.3945L269.207 45.3944C273.196 45.3712 276.509 45.2058 280.423 44.7762L279.332 34.8359L278.241 24.8956C275.108 25.2395 272.492 25.3749 269.09 25.3947L269.148 35.3945ZM279.332 34.8359L269.368 35.6791L269.84 41.265L279.805 40.4219L289.769 39.5787L289.296 33.9928L279.332 34.8359ZM279.805 40.4219L278.495 30.508C274.587 31.0242 271.1 31.1523 265.539 31.1523V41.1523V51.1523C271.408 51.1523 275.913 51.0227 281.114 50.3358L279.805 40.4219ZM265.539 41.1523V31.1523H262.617V41.1523V51.1523H265.539V41.1523ZM262.617 41.1523H272.617V13.9531H262.617H252.617V41.1523H262.617ZM262.617 13.9531V23.9531H279.074V13.9531V3.95312H262.617V13.9531ZM296.09 10H286.09V49.7461H296.09H306.09V10L296.09 10ZM296.09 49.7461V39.7461H289.516V49.7461V59.7461H296.09V49.7461ZM289.516 49.7461H299.516V30.5391H289.516H279.516V49.7461H289.516ZM289.516 30.5391V20.5391H287.41V30.5391V40.5391H289.516V30.5391ZM287.41 30.5391H277.41V48.0273H287.41H297.41V30.5391H287.41ZM287.41 48.0273V38.0273H280.922V48.0273V58.0273H287.41V48.0273ZM280.922 48.0273H290.922V10.4727H280.922H270.922V48.0273H280.922ZM280.922 10.4727V20.4727H287.41V10.4727V0.472656H280.922V10.4727ZM287.41 10.4727H277.41V25.082H287.41H297.41V10.4727H287.41ZM287.41 25.082V35.082H289.516V25.082V15.082H287.41V25.082ZM289.516 25.082H299.516V10H289.516H279.516V25.082H289.516ZM289.516 10V20H296.09V10V0L289.516 0V10ZM332.012 27.2734L342.012 27.2734C342.012 21.7506 337.535 17.2734 332.012 17.2734V27.2734ZM332.012 32.6875V42.6875C337.535 42.6875 342.012 38.2103 342.012 32.6875H332.012ZM320.969 32.6875V22.6875C315.446 22.6875 310.969 27.1647 310.969 32.6875H320.969ZM320.969 39.9922H310.969C310.969 45.515 315.446 49.9922 320.969 49.9922V39.9922ZM335.75 39.9922H345.75C345.75 34.4693 341.273 29.9922 335.75 29.9922V39.9922ZM335.75 45.5781V55.5781C341.273 55.5781 345.75 51.101 345.75 45.5781H335.75ZM299.441 45.5781H289.441C289.441 51.101 293.919 55.5781 299.441 55.5781V45.5781ZM299.441 39.9922V29.9922C293.919 29.9922 289.441 34.4693 289.441 39.9922H299.441ZM314.137 39.9922V49.9922C319.66 49.9922 324.137 45.515 324.137 39.9922H314.137ZM314.137 32.6875H324.137C324.137 27.1647 319.66 22.6875 314.137 22.6875V32.6875ZM303.48 32.6875H293.48C293.48 38.2103 297.958 42.6875 303.48 42.6875V32.6875ZM303.48 12.5781V2.57812C297.958 2.57812 293.48 7.05528 293.48 12.5781H303.48ZM331.754 12.5781L341.754 12.5781C341.754 7.05528 337.277 2.57812 331.754 2.57812V12.5781ZM331.754 17.9922V27.9922C337.277 27.9922 341.754 23.515 341.754 17.9922L331.754 17.9922ZM310.398 17.9922V7.99219C304.876 7.99219 300.398 12.4693 300.398 17.9922H310.398ZM310.398 27.2734H300.398C300.398 32.7963 304.876 37.2734 310.398 37.2734V27.2734ZM332.012 27.2734H322.012V32.6875H332.012H342.012V27.2734L332.012 27.2734ZM332.012 32.6875V22.6875H320.969V32.6875V42.6875H332.012V32.6875ZM320.969 32.6875H310.969V39.9922H320.969H330.969V32.6875H320.969ZM320.969 39.9922V49.9922H335.75V39.9922V29.9922H320.969V39.9922ZM335.75 39.9922H325.75V45.5781H335.75H345.75V39.9922H335.75ZM335.75 45.5781V35.5781H299.441V45.5781V55.5781H335.75V45.5781ZM299.441 45.5781H309.441V39.9922H299.441H289.441V45.5781H299.441ZM299.441 39.9922V49.9922H314.137V39.9922V29.9922H299.441V39.9922ZM314.137 39.9922H324.137V32.6875H314.137H304.137V39.9922H314.137ZM314.137 32.6875V22.6875H303.48V32.6875V42.6875H314.137V32.6875ZM303.48 32.6875H313.48V12.5781H303.48H293.48V32.6875H303.48ZM303.48 12.5781V22.5781H331.754V12.5781V2.57812L303.48 2.57812V12.5781ZM331.754 12.5781H321.754V17.9922H331.754L341.754 17.9922V12.5781L331.754 12.5781ZM331.754 17.9922V7.99219H310.398V17.9922V27.9922H331.754V17.9922ZM310.398 17.9922H300.398V27.2734H310.398H320.398V17.9922H310.398ZM310.398 27.2734V37.2734H332.012V27.2734V17.2734H310.398V27.2734ZM373.777 40.0781H383.777C383.777 34.5553 379.3 30.0781 373.777 30.0781V40.0781ZM373.777 45.6641V55.6641C379.3 55.6641 383.777 51.1869 383.777 45.6641H373.777ZM337.469 45.6641H327.469C327.469 51.1869 331.946 55.6641 337.469 55.6641V45.6641ZM337.469 40.0781V30.0781C331.946 30.0781 327.469 34.5553 327.469 40.0781H337.469ZM352.164 40.0781V50.0781C357.687 50.0781 362.164 45.601 362.164 40.0781H352.164ZM352.164 35.0078H362.164C362.164 29.485 357.687 25.0078 352.164 25.0078V35.0078ZM341.422 35.0078H331.422C331.422 40.5307 335.899 45.0078 341.422 45.0078V35.0078ZM341.422 20.957V10.957C335.899 10.957 331.422 15.4342 331.422 20.957L341.422 20.957ZM363.035 20.957V30.957C368.558 30.957 373.035 26.4799 373.035 20.957H363.035ZM363.035 17.8633H373.035C373.035 12.3404 368.558 7.86328 363.035 7.86328V17.8633ZM341.379 17.8633L331.379 17.8633C331.379 23.3861 335.856 27.8633 341.379 27.8633V17.8633ZM341.379 12.3633V2.36328C335.856 2.36328 331.379 6.84043 331.379 12.3633H341.379ZM369.867 12.3633H379.867C379.867 6.84043 375.39 2.36328 369.867 2.36328V12.3633ZM369.867 26.2852V36.2852C375.39 36.2852 379.867 31.808 379.867 26.2852H369.867ZM348.34 26.2852V16.2852C342.817 16.2852 338.34 20.7623 338.34 26.2852H348.34ZM348.34 29.4648H338.34C338.34 34.9877 342.817 39.4648 348.34 39.4648V29.4648ZM370.77 29.4648H380.77C380.77 23.942 376.292 19.4648 370.77 19.4648V29.4648ZM370.77 35.0078V45.0078C376.292 45.0078 380.77 40.5307 380.77 35.0078H370.77ZM358.996 35.0078V25.0078C353.473 25.0078 348.996 29.485 348.996 35.0078H358.996ZM358.996 40.0781H348.996C348.996 45.601 353.473 50.0781 358.996 50.0781V40.0781ZM373.777 40.0781H363.777V45.6641H373.777H383.777V40.0781H373.777ZM373.777 45.6641V35.6641H337.469V45.6641V55.6641H373.777V45.6641ZM337.469 45.6641H347.469V40.0781H337.469H327.469V45.6641H337.469ZM337.469 40.0781V50.0781H352.164V40.0781V30.0781H337.469V40.0781ZM352.164 40.0781H362.164V35.0078H352.164H342.164V40.0781H352.164ZM352.164 35.0078V25.0078H341.422V35.0078V45.0078H352.164V35.0078ZM341.422 35.0078H351.422V20.957H341.422L331.422 20.957V35.0078H341.422ZM341.422 20.957V30.957H363.035V20.957V10.957H341.422V20.957ZM363.035 20.957H373.035V17.8633H363.035H353.035V20.957H363.035ZM363.035 17.8633V7.86328H341.379V17.8633V27.8633H363.035V17.8633ZM341.379 17.8633H351.379V12.3633H341.379H331.379V17.8633L341.379 17.8633ZM341.379 12.3633V22.3633H369.867V12.3633V2.36328L341.379 2.36328V12.3633ZM369.867 12.3633L359.867 12.3633V26.2852H369.867H379.867V12.3633H369.867ZM369.867 26.2852V16.2852H348.34V26.2852V36.2852H369.867V26.2852ZM348.34 26.2852H338.34V29.4648H348.34H358.34V26.2852H348.34ZM348.34 29.4648V39.4648H370.77V29.4648V19.4648H348.34V29.4648ZM370.77 29.4648H360.77V35.0078H370.77H380.77V29.4648H370.77ZM370.77 35.0078V25.0078H358.996V35.0078V45.0078H370.77V35.0078ZM358.996 35.0078H348.996V40.0781H358.996H368.996V35.0078H358.996ZM358.996 40.0781V50.0781H373.777V40.0781V30.0781H358.996V40.0781ZM416.875 10H426.875C426.875 4.47715 422.398 0 416.875 0V10ZM416.875 18.7656H406.875C406.875 24.2885 411.352 28.7656 416.875 28.7656V18.7656ZM421.816 18.7656H431.816C431.816 13.2428 427.339 8.76562 421.816 8.76562V18.7656ZM421.816 24.3086V34.3086C427.339 34.3086 431.816 29.8314 431.816 24.3086H421.816ZM416.875 24.3086V14.3086C411.352 14.3086 406.875 18.7857 406.875 24.3086H416.875ZM416.875 33.1602V43.1602C422.398 43.1602 426.875 38.683 426.875 33.1602H416.875ZM409.957 33.1602H399.957C399.957 38.683 404.434 43.1602 409.957 43.1602V33.1602ZM409.957 10V0C404.434 0 399.957 4.47715 399.957 10H409.957ZM392.77 12.4492H402.77C402.77 6.92637 398.292 2.44922 392.77 2.44922V12.4492ZM392.77 16.832H382.77C382.77 22.3549 387.247 26.832 392.77 26.832V16.832ZM398.742 16.832V26.832C404.265 26.832 408.742 22.3549 408.742 16.832H398.742ZM398.742 12.4492V2.44922C393.219 2.44922 388.742 6.92637 388.742 12.4492H398.742ZM405.617 12.4492H415.617C415.617 6.92637 411.14 2.44922 405.617 2.44922V12.4492ZM405.617 31.5703V41.5703C411.14 41.5703 415.617 37.0932 415.617 31.5703H405.617ZM385.938 31.5703H375.938C375.938 37.0932 380.415 41.5703 385.938 41.5703V31.5703ZM385.938 12.4492V2.44922C380.415 2.44922 375.938 6.92637 375.938 12.4492H385.938ZM392.77 26.2422H382.77C382.77 31.765 387.247 36.2422 392.77 36.2422V26.2422ZM398.742 26.2422V36.2422C404.265 36.2422 408.742 31.765 408.742 26.2422H398.742ZM398.742 22.0742H408.742C408.742 16.5514 404.265 12.0742 398.742 12.0742V22.0742ZM392.77 22.0742V12.0742C387.247 12.0742 382.77 16.5514 382.77 22.0742H392.77ZM417.004 34.6641H427.004C427.004 29.1412 422.527 24.6641 417.004 24.6641V34.6641ZM417.004 40.1211V50.1211C422.527 50.1211 427.004 45.6439 427.004 40.1211H417.004ZM397.152 40.1211V30.1211C391.629 30.1211 387.152 34.5982 387.152 40.1211H397.152ZM397.152 43.9023H387.152C387.152 49.4252 391.629 53.9023 397.152 53.9023V43.9023ZM417.734 43.9023H427.734C427.734 38.3795 423.257 33.9023 417.734 33.9023V43.9023ZM417.734 49.2734V59.2734C423.257 59.2734 427.734 54.7963 427.734 49.2734H417.734ZM390.234 49.2734H380.234C380.234 54.7963 384.712 59.2734 390.234 59.2734V49.2734ZM390.234 34.6641V24.6641C384.712 24.6641 380.234 29.1412 380.234 34.6641H390.234ZM416.875 10H406.875V18.7656H416.875H426.875V10H416.875ZM416.875 18.7656V28.7656H421.816V18.7656V8.76562H416.875V18.7656ZM421.816 18.7656H411.816V24.3086H421.816H431.816V18.7656H421.816ZM421.816 24.3086V14.3086H416.875V24.3086V34.3086H421.816V24.3086ZM416.875 24.3086H406.875V33.1602H416.875H426.875V24.3086H416.875ZM416.875 33.1602V23.1602H409.957V33.1602V43.1602H416.875V33.1602ZM409.957 33.1602H419.957V10H409.957H399.957V33.1602H409.957ZM409.957 10V20H416.875V10V0H409.957V10ZM392.77 12.4492H382.77V16.832H392.77H402.77V12.4492H392.77ZM392.77 16.832V26.832H398.742V16.832V6.83203H392.77V16.832ZM398.742 16.832H408.742V12.4492H398.742H388.742V16.832H398.742ZM398.742 12.4492V22.4492H405.617V12.4492V2.44922H398.742V12.4492ZM405.617 12.4492H395.617V31.5703L405.617 31.5703H415.617V12.4492H405.617ZM405.617 31.5703V21.5703H385.938V31.5703V41.5703L405.617 41.5703V31.5703ZM385.938 31.5703H395.938V12.4492H385.938H375.938V31.5703H385.938ZM385.938 12.4492V22.4492H392.77V12.4492V2.44922H385.938V12.4492ZM392.77 26.2422V36.2422L398.742 36.2422V26.2422V16.2422H392.77V26.2422ZM398.742 26.2422H408.742V22.0742H398.742H388.742V26.2422H398.742ZM398.742 22.0742V12.0742H392.77V22.0742V32.0742L398.742 32.0742V22.0742ZM392.77 22.0742H382.77V26.2422H392.77H402.77V22.0742H392.77ZM417.004 34.6641H407.004V40.1211H417.004H427.004V34.6641H417.004ZM417.004 40.1211V30.1211L397.152 30.1211V40.1211V50.1211L417.004 50.1211V40.1211ZM397.152 40.1211H387.152V43.9023H397.152L407.152 43.9023V40.1211L397.152 40.1211ZM397.152 43.9023V53.9023L417.734 53.9023V43.9023V33.9023L397.152 33.9023V43.9023ZM417.734 43.9023H407.734V49.2734H417.734H427.734V43.9023H417.734ZM417.734 49.2734V39.2734L390.234 39.2734V49.2734V59.2734L417.734 59.2734V49.2734ZM390.234 49.2734L400.234 49.2734V34.6641L390.234 34.6641H380.234V49.2734H390.234ZM390.234 34.6641V44.6641L417.004 44.6641V34.6641V24.6641H390.234V34.6641ZM455.461 20.0977L465.461 20.0977C465.461 14.5748 460.984 10.0977 455.461 10.0977V20.0977ZM455.461 25.4258V35.4258C460.984 35.4258 465.461 30.9486 465.461 25.4258L455.461 25.4258ZM427.359 25.4258H417.359C417.359 30.9486 421.837 35.4258 427.359 35.4258V25.4258ZM427.359 11.418V1.41797C421.837 1.41797 417.359 5.89512 417.359 11.418H427.359ZM434.234 11.418H444.234C444.234 5.89512 439.757 1.41797 434.234 1.41797V11.418ZM434.234 20.0977H424.234C424.234 25.6205 428.712 30.0977 434.234 30.0977V20.0977ZM459.371 28.9492H469.371C469.371 23.4264 464.894 18.9492 459.371 18.9492V28.9492ZM459.371 34.2773V44.2773C464.894 44.2773 469.371 39.8002 469.371 34.2773H459.371ZM423.105 34.2773H413.105C413.105 39.8002 417.583 44.2773 423.105 44.2773V34.2773ZM423.105 28.9492V18.9492C417.583 18.9492 413.105 23.4264 413.105 28.9492H423.105ZM455.719 43.4727H465.719C465.719 37.9498 461.242 33.4727 455.719 33.4727V43.4727ZM455.719 48.9727V58.9727C461.242 58.9727 465.719 54.4955 465.719 48.9727H455.719ZM426.887 48.9727H416.887C416.887 54.4955 421.364 58.9727 426.887 58.9727V48.9727ZM426.887 37.0273V27.0273C421.364 27.0273 416.887 31.5045 416.887 37.0273H426.887ZM433.848 37.0273H443.848C443.848 31.5045 439.371 27.0273 433.848 27.0273V37.0273ZM433.848 43.4727H423.848C423.848 48.9955 428.325 53.4727 433.848 53.4727V43.4727ZM455.461 20.0977H445.461V25.4258H455.461L465.461 25.4258V20.0977L455.461 20.0977ZM455.461 25.4258V15.4258H427.359V25.4258V35.4258H455.461V25.4258ZM427.359 25.4258H437.359V11.418L427.359 11.418H417.359V25.4258H427.359ZM427.359 11.418V21.418H434.234V11.418V1.41797H427.359V11.418ZM434.234 11.418L424.234 11.418V20.0977H434.234H444.234V11.418H434.234ZM434.234 20.0977V30.0977H455.461V20.0977V10.0977H434.234V20.0977ZM459.371 28.9492H449.371V34.2773H459.371H469.371V28.9492H459.371ZM459.371 34.2773V24.2773H423.105V34.2773V44.2773H459.371V34.2773ZM423.105 34.2773H433.105V28.9492H423.105H413.105V34.2773H423.105ZM423.105 28.9492V38.9492H459.371V28.9492V18.9492H423.105V28.9492ZM455.719 43.4727H445.719V48.9727H455.719H465.719V43.4727H455.719ZM455.719 48.9727V38.9727H426.887V48.9727V58.9727H455.719V48.9727ZM426.887 48.9727H436.887V37.0273H426.887H416.887V48.9727H426.887ZM426.887 37.0273V47.0273H433.848V37.0273V27.0273H426.887V37.0273ZM433.848 37.0273H423.848V43.4727H433.848H443.848V37.0273H433.848ZM433.848 43.4727V53.4727H455.719V43.4727V33.4727H433.848V43.4727Z" fill="white" mask="url(#path-1-outside-1_6524_1879)"/>
</g>
<defs>
<filter id="filter0_d_6524_1879" x="0" y="0" width="473.371" height="67.7461" filterUnits="userSpaceOnUse" color-interpolation-filters="sRGB">
<feFlood flood-opacity="0" result="BackgroundImageFix"/>
<feColorMatrix in="SourceAlpha" type="matrix" values="0 0 0 0 0 0 0 0 0 0 0 0 0 0 0 0 0 0 127 0" result="hardAlpha"/>
<feOffset dy="4"/>
<feGaussianBlur stdDeviation="2"/>
<feComposite in2="hardAlpha" operator="out"/>
<feColorMatrix type="matrix" values="0 0 0 0 0 0 0 0 0 0 0 0 0 0 0 0 0 0 0.07 0"/>
<feBlend mode="normal" in2="BackgroundImageFix" result="effect1_dropShadow_6524_1879"/>
<feBlend mode="normal" in="SourceGraphic" in2="effect1_dropShadow_6524_1879" result="shape"/>
</filter>
</defs>
</svg>
