<svg width="464" height="68" viewBox="0 0 464 68" fill="none" xmlns="http://www.w3.org/2000/svg">
<g filter="url(#filter0_d_6524_1796)">
<mask id="path-1-outside-1_6524_1796" maskUnits="userSpaceOnUse" x="3.18359" y="-0.507813" width="457" height="61" fill="black">
<rect fill="white" x="3.18359" y="-0.507813" width="457" height="61"/>
<path d="M47.8164 10V49.7461H40.8125V10L47.8164 10ZM37.418 13.3086V18.7656H34.5391V34.793C35.957 34.6641 37.3535 34.5352 38.707 34.3633L39.0938 39.4766C30.7578 40.8945 21.8203 41.0664 14.6016 41.0664L14 35.5664L17.9961 35.5234V18.7656H15.0742V13.3086H37.418ZM24.6133 35.3516L27.8359 35.2227V18.7656H24.6133V35.3516ZM84.6836 27.9609V33.418H56.1523V13.0938L84.4258 13.0937V18.6367L62.9414 18.6367V27.9609L84.6836 27.9609ZM88.4219 39.6914V45.3203H52.1133V39.6914H88.4219ZM97.7891 12.5352V17.7344H100.969V12.5352H107.328V32.2148H91.2578V12.5352H97.7891ZM97.7891 26.8437H100.969V22.9336H97.7891V26.8437ZM124.516 10.0859V34.0625H117.984V24.9102H115.922V33.8477H109.562V10.7305H115.922V19.3672H117.984V10.0859H124.516ZM124.516 35.4805V49.7461H117.641V40.9375H96.6289V35.4805H124.516ZM146.301 10.5156C155.625 10.5156 160.953 12.8789 160.996 17.2187C160.953 21.6016 155.625 23.9648 146.301 23.9648C136.934 23.9648 131.52 21.6016 131.562 17.2187C131.52 12.8789 136.934 10.5156 146.301 10.5156ZM146.301 15.5C140.93 15.5 138.781 16.0156 138.781 17.2187C138.781 18.6797 140.93 18.9375 146.301 18.9805C151.715 18.9375 153.863 18.6797 153.863 17.2187C153.863 16.0156 151.715 15.5 146.301 15.5ZM164.434 25.2969V30.7539L128.168 30.7539V25.2969H164.434ZM160.137 32.2578V43.2148L138.953 43.2148V44.5039L161.082 44.5039V49.5742L132.207 49.5742V38.4883L153.348 38.4883V37.2852L132.25 37.2852V32.2578L160.137 32.2578ZM209.594 10.0859V38.918H202.719V26.7148H196.703V21.1289H202.719V10.0859H209.594ZM197.219 12.9219C197.219 23.8789 190.816 31.8281 178.957 35.3945L176.207 29.8945C183.834 27.6602 188.518 23.5137 189.656 18.5078H178.312V12.9219H197.219ZM210.625 43.6875V49.1875H182.824V36.0391H189.828V43.6875H210.625ZM247.621 10V30.0664H240.746V20.4414H234.215V15.0703H240.746V10H247.621ZM247.621 31.4414V42.8281H227.641V44.0312H248.566V49.4023H220.852V37.8867H240.789V36.6836H220.809V31.4414H247.621ZM229.531 13.6523C229.531 18.1211 231.422 22.6328 238.125 24.4805L234.516 29.7656C230.455 28.5195 227.705 26.1777 226.051 23.1484C224.311 26.5215 221.367 29.1641 216.855 30.4961L213.289 25.0391C220.336 23.1484 222.484 18.3789 222.527 13.6523V11.375H229.531V13.6523ZM274.863 11.9336V17.3477H267.645C267.988 21.3652 270.287 25.4902 276.281 27.4453L272.973 32.7305C268.697 31.4629 265.861 28.9062 264.164 25.6836C262.402 29.25 259.438 32.1074 254.883 33.4609L251.359 28.0469C257.762 26.1348 260.104 21.5801 260.512 17.3477H253.25V11.9336H274.863ZM285.648 35.1367V49.7461H278.773V40.5937H258.02V35.1367H285.648ZM285.648 10V33.6328H278.773V24.6094H273.832V19.0234H278.773V10H285.648ZM307.992 11.7187C316.414 11.7187 323.203 16.4023 323.203 23.4492C323.203 30.625 316.414 35.2656 307.992 35.2656C299.527 35.2656 292.781 30.625 292.824 23.4492C292.781 16.4023 299.527 11.7187 307.992 11.7187ZM307.992 17.2617C303.008 17.2617 299.527 19.5391 299.527 23.4492C299.527 27.4883 303.008 29.5937 307.992 29.6367C312.891 29.5937 316.328 27.4883 316.371 23.4492C316.328 19.5391 312.891 17.2617 307.992 17.2617ZM326.168 39.6914V45.2344H289.859V39.6914H326.168ZM364.195 40.0781V45.6641H327.887V40.0781H342.582V35.0078H331.84V20.957L353.453 20.957V17.8633L331.797 17.8633V12.3633H360.285V26.2852H338.758V29.4648H361.188V35.0078H349.414V40.0781H364.195ZM411.762 31.4844V36.9414L396.895 36.9414V49.7891H390.062V36.9414H375.496V31.4844L411.762 31.4844ZM408.625 11.8906V17.1758H397.883C398.592 20.2266 401.814 23.5566 410.301 24.4805L407.809 29.8516C400.568 29.0137 395.992 26.3066 393.629 22.6328C391.287 26.3066 386.754 29.0137 379.535 29.8516L377.043 24.4805C385.422 23.5566 388.645 20.2266 389.461 17.1758H378.676V11.8906H408.625ZM445.879 20.0977V25.4258H417.777V11.418H424.652V20.0977H445.879ZM449.789 28.9492V34.2773H413.523V28.9492H449.789ZM446.137 43.4727V48.9727H417.305V37.0273H424.266V43.4727H446.137Z"/>
</mask>
<path d="M47.8164 10V49.7461H40.8125V10L47.8164 10ZM37.418 13.3086V18.7656H34.5391V34.793C35.957 34.6641 37.3535 34.5352 38.707 34.3633L39.0938 39.4766C30.7578 40.8945 21.8203 41.0664 14.6016 41.0664L14 35.5664L17.9961 35.5234V18.7656H15.0742V13.3086H37.418ZM24.6133 35.3516L27.8359 35.2227V18.7656H24.6133V35.3516ZM84.6836 27.9609V33.418H56.1523V13.0938L84.4258 13.0937V18.6367L62.9414 18.6367V27.9609L84.6836 27.9609ZM88.4219 39.6914V45.3203H52.1133V39.6914H88.4219ZM97.7891 12.5352V17.7344H100.969V12.5352H107.328V32.2148H91.2578V12.5352H97.7891ZM97.7891 26.8437H100.969V22.9336H97.7891V26.8437ZM124.516 10.0859V34.0625H117.984V24.9102H115.922V33.8477H109.562V10.7305H115.922V19.3672H117.984V10.0859H124.516ZM124.516 35.4805V49.7461H117.641V40.9375H96.6289V35.4805H124.516ZM146.301 10.5156C155.625 10.5156 160.953 12.8789 160.996 17.2187C160.953 21.6016 155.625 23.9648 146.301 23.9648C136.934 23.9648 131.52 21.6016 131.562 17.2187C131.52 12.8789 136.934 10.5156 146.301 10.5156ZM146.301 15.5C140.93 15.5 138.781 16.0156 138.781 17.2187C138.781 18.6797 140.93 18.9375 146.301 18.9805C151.715 18.9375 153.863 18.6797 153.863 17.2187C153.863 16.0156 151.715 15.5 146.301 15.5ZM164.434 25.2969V30.7539L128.168 30.7539V25.2969H164.434ZM160.137 32.2578V43.2148L138.953 43.2148V44.5039L161.082 44.5039V49.5742L132.207 49.5742V38.4883L153.348 38.4883V37.2852L132.25 37.2852V32.2578L160.137 32.2578ZM209.594 10.0859V38.918H202.719V26.7148H196.703V21.1289H202.719V10.0859H209.594ZM197.219 12.9219C197.219 23.8789 190.816 31.8281 178.957 35.3945L176.207 29.8945C183.834 27.6602 188.518 23.5137 189.656 18.5078H178.312V12.9219H197.219ZM210.625 43.6875V49.1875H182.824V36.0391H189.828V43.6875H210.625ZM247.621 10V30.0664H240.746V20.4414H234.215V15.0703H240.746V10H247.621ZM247.621 31.4414V42.8281H227.641V44.0312H248.566V49.4023H220.852V37.8867H240.789V36.6836H220.809V31.4414H247.621ZM229.531 13.6523C229.531 18.1211 231.422 22.6328 238.125 24.4805L234.516 29.7656C230.455 28.5195 227.705 26.1777 226.051 23.1484C224.311 26.5215 221.367 29.1641 216.855 30.4961L213.289 25.0391C220.336 23.1484 222.484 18.3789 222.527 13.6523V11.375H229.531V13.6523ZM274.863 11.9336V17.3477H267.645C267.988 21.3652 270.287 25.4902 276.281 27.4453L272.973 32.7305C268.697 31.4629 265.861 28.9062 264.164 25.6836C262.402 29.25 259.438 32.1074 254.883 33.4609L251.359 28.0469C257.762 26.1348 260.104 21.5801 260.512 17.3477H253.25V11.9336H274.863ZM285.648 35.1367V49.7461H278.773V40.5937H258.02V35.1367H285.648ZM285.648 10V33.6328H278.773V24.6094H273.832V19.0234H278.773V10H285.648ZM307.992 11.7187C316.414 11.7187 323.203 16.4023 323.203 23.4492C323.203 30.625 316.414 35.2656 307.992 35.2656C299.527 35.2656 292.781 30.625 292.824 23.4492C292.781 16.4023 299.527 11.7187 307.992 11.7187ZM307.992 17.2617C303.008 17.2617 299.527 19.5391 299.527 23.4492C299.527 27.4883 303.008 29.5937 307.992 29.6367C312.891 29.5937 316.328 27.4883 316.371 23.4492C316.328 19.5391 312.891 17.2617 307.992 17.2617ZM326.168 39.6914V45.2344H289.859V39.6914H326.168ZM364.195 40.0781V45.6641H327.887V40.0781H342.582V35.0078H331.84V20.957L353.453 20.957V17.8633L331.797 17.8633V12.3633H360.285V26.2852H338.758V29.4648H361.188V35.0078H349.414V40.0781H364.195ZM411.762 31.4844V36.9414L396.895 36.9414V49.7891H390.062V36.9414H375.496V31.4844L411.762 31.4844ZM408.625 11.8906V17.1758H397.883C398.592 20.2266 401.814 23.5566 410.301 24.4805L407.809 29.8516C400.568 29.0137 395.992 26.3066 393.629 22.6328C391.287 26.3066 386.754 29.0137 379.535 29.8516L377.043 24.4805C385.422 23.5566 388.645 20.2266 389.461 17.1758H378.676V11.8906H408.625ZM445.879 20.0977V25.4258H417.777V11.418H424.652V20.0977H445.879ZM449.789 28.9492V34.2773H413.523V28.9492H449.789ZM446.137 43.4727V48.9727H417.305V37.0273H424.266V43.4727H446.137Z" fill="#11DCA9"/>
<path d="M47.8164 10H57.8164C57.8164 4.47715 53.3393 0 47.8164 0V10ZM47.8164 49.7461V59.7461C53.3393 59.7461 57.8164 55.2689 57.8164 49.7461H47.8164ZM40.8125 49.7461H30.8125C30.8125 55.2689 35.2897 59.7461 40.8125 59.7461V49.7461ZM40.8125 10V0C35.2897 0 30.8125 4.47715 30.8125 10H40.8125ZM37.418 13.3086H47.418C47.418 7.78575 42.9408 3.30859 37.418 3.30859V13.3086ZM37.418 18.7656V28.7656C42.9408 28.7656 47.418 24.2885 47.418 18.7656H37.418ZM34.5391 18.7656V8.76562C29.0162 8.76562 24.5391 13.2428 24.5391 18.7656H34.5391ZM34.5391 34.793H24.5391C24.5391 37.6026 25.721 40.2826 27.7957 42.1772C29.8704 44.0718 32.6464 45.0063 35.4444 44.7519L34.5391 34.793ZM38.707 34.3633L48.6786 33.6091C48.4719 30.8766 47.1529 28.3486 45.0299 26.6159C42.9069 24.8833 40.1658 24.0977 37.4473 24.4429L38.707 34.3633ZM39.0938 39.4766L40.7707 49.335C45.8606 48.4691 49.4546 43.8708 49.0653 38.7224L39.0938 39.4766ZM14.6016 41.0664L4.66085 42.1537C5.21557 47.2255 9.49952 51.0664 14.6016 51.0664V41.0664ZM14 35.5664L13.8925 25.567C11.0699 25.5973 8.39167 26.8192 6.51866 28.9309C4.64566 31.0427 3.75238 33.8477 4.05928 36.6537L14 35.5664ZM17.9961 35.5234L18.1036 45.5229C23.5842 45.4639 27.9961 41.0043 27.9961 35.5234H17.9961ZM17.9961 18.7656H27.9961C27.9961 13.2428 23.5189 8.76562 17.9961 8.76562V18.7656ZM15.0742 18.7656H5.07422C5.07422 24.2885 9.55137 28.7656 15.0742 28.7656V18.7656ZM15.0742 13.3086V3.30859C9.55137 3.30859 5.07422 7.78575 5.07422 13.3086H15.0742ZM24.6133 35.3516H14.6133C14.6133 38.0731 15.7225 40.677 17.685 42.5626C19.6474 44.4481 22.2936 45.4523 25.013 45.3436L24.6133 35.3516ZM27.8359 35.2227L28.2356 45.2147C33.5987 45.0001 37.8359 40.59 37.8359 35.2227H27.8359ZM27.8359 18.7656H37.8359C37.8359 13.2428 33.3588 8.76562 27.8359 8.76562V18.7656ZM24.6133 18.7656V8.76562C19.0904 8.76562 14.6133 13.2428 14.6133 18.7656H24.6133ZM47.8164 10L37.8164 10V49.7461H47.8164H57.8164V10H47.8164ZM47.8164 49.7461V39.7461H40.8125V49.7461V59.7461H47.8164V49.7461ZM40.8125 49.7461H50.8125V10L40.8125 10H30.8125V49.7461H40.8125ZM40.8125 10V20H47.8164V10V0H40.8125V10ZM37.418 13.3086H27.418V18.7656H37.418H47.418V13.3086H37.418ZM37.418 18.7656V8.76562H34.5391V18.7656V28.7656H37.418V18.7656ZM34.5391 18.7656H24.5391V34.793H34.5391H44.5391V18.7656H34.5391ZM34.5391 34.793L35.4444 44.7519C36.8422 44.6248 38.4102 44.4813 39.9668 44.2836L38.707 34.3633L37.4473 24.4429C36.2968 24.589 35.0718 24.7033 33.6337 24.834L34.5391 34.793ZM38.707 34.3633L28.7355 35.1174L29.1222 40.2307L39.0938 39.4766L49.0653 38.7224L48.6786 33.6091L38.707 34.3633ZM39.0938 39.4766L37.4168 29.6182C29.9736 30.8843 21.7601 31.0664 14.6016 31.0664L14.6016 41.0664V51.0664C21.8805 51.0664 31.542 50.9048 40.7707 49.335L39.0938 39.4766ZM14.6016 41.0664L24.5423 39.9791L23.9407 34.4791L14 35.5664L4.05928 36.6537L4.66085 42.1537L14.6016 41.0664ZM14 35.5664L14.1075 45.5658L18.1036 45.5229L17.9961 35.5234L17.8886 25.524L13.8925 25.567L14 35.5664ZM17.9961 35.5234H27.9961V18.7656H17.9961H7.99609V35.5234H17.9961ZM17.9961 18.7656V8.76562H15.0742V18.7656V28.7656H17.9961V18.7656ZM15.0742 18.7656H25.0742V13.3086H15.0742H5.07422V18.7656H15.0742ZM15.0742 13.3086V23.3086H37.418V13.3086V3.30859L15.0742 3.30859V13.3086ZM24.6133 35.3516L25.013 45.3436L28.2356 45.2147L27.8359 35.2227L27.4363 25.2306L24.2136 25.3596L24.6133 35.3516ZM27.8359 35.2227H37.8359V18.7656H27.8359H17.8359V35.2227H27.8359ZM27.8359 18.7656V8.76562H24.6133V18.7656V28.7656H27.8359V18.7656ZM24.6133 18.7656H14.6133L14.6133 35.3516H24.6133H34.6133V18.7656H24.6133ZM84.6836 27.9609H94.6836C94.6836 22.4381 90.2064 17.9609 84.6836 17.9609V27.9609ZM84.6836 33.418V43.418C90.2064 43.418 94.6836 38.9408 94.6836 33.418H84.6836ZM56.1523 33.418H46.1523C46.1523 38.9408 50.6295 43.418 56.1523 43.418V33.418ZM56.1523 13.0938V3.09375C50.6295 3.09375 46.1523 7.5709 46.1523 13.0938H56.1523ZM84.4258 13.0937H94.4258C94.4258 7.5709 89.9486 3.09375 84.4258 3.09375V13.0937ZM84.4258 18.6367V28.6367C89.9486 28.6367 94.4258 24.1596 94.4258 18.6367H84.4258ZM62.9414 18.6367V8.63672C57.4186 8.63672 52.9414 13.1139 52.9414 18.6367H62.9414ZM62.9414 27.9609H52.9414C52.9414 33.4838 57.4186 37.9609 62.9414 37.9609V27.9609ZM88.4219 39.6914H98.4219C98.4219 34.1686 93.9447 29.6914 88.4219 29.6914V39.6914ZM88.4219 45.3203V55.3203C93.9447 55.3203 98.4219 50.8432 98.4219 45.3203H88.4219ZM52.1133 45.3203H42.1133C42.1133 50.8432 46.5904 55.3203 52.1133 55.3203V45.3203ZM52.1133 39.6914V29.6914C46.5904 29.6914 42.1133 34.1686 42.1133 39.6914H52.1133ZM84.6836 27.9609L74.6836 27.9609V33.418H84.6836H94.6836V27.9609H84.6836ZM84.6836 33.418V23.418L56.1523 23.418V33.418V43.418H84.6836V33.418ZM56.1523 33.418H66.1523V13.0938H56.1523H46.1523V33.418H56.1523ZM56.1523 13.0938V23.0938L84.4258 23.0937V13.0937V3.09375L56.1523 3.09375V13.0938ZM84.4258 13.0937L74.4258 13.0938V18.6367L84.4258 18.6367H94.4258V13.0937H84.4258ZM84.4258 18.6367V8.63672H62.9414V18.6367V28.6367H84.4258V18.6367ZM62.9414 18.6367H52.9414V27.9609H62.9414H72.9414V18.6367H62.9414ZM62.9414 27.9609V37.9609H84.6836V27.9609V17.9609L62.9414 17.9609V27.9609ZM88.4219 39.6914H78.4219V45.3203H88.4219H98.4219V39.6914H88.4219ZM88.4219 45.3203V35.3203H52.1133V45.3203V55.3203H88.4219V45.3203ZM52.1133 45.3203H62.1133V39.6914H52.1133H42.1133V45.3203H52.1133ZM52.1133 39.6914V49.6914H88.4219V39.6914V29.6914H52.1133V39.6914ZM97.7891 12.5352H107.789C107.789 7.01231 103.312 2.53516 97.7891 2.53516V12.5352ZM97.7891 17.7344H87.7891C87.7891 23.2572 92.2662 27.7344 97.7891 27.7344V17.7344ZM100.969 17.7344V27.7344C106.492 27.7344 110.969 23.2572 110.969 17.7344H100.969ZM100.969 12.5352V2.53516C95.4459 2.53516 90.9688 7.01231 90.9688 12.5352H100.969ZM107.328 12.5352H117.328C117.328 7.01231 112.851 2.53516 107.328 2.53516V12.5352ZM107.328 32.2148V42.2148C112.851 42.2148 117.328 37.7377 117.328 32.2148H107.328ZM91.2578 32.2148H81.2578C81.2578 37.7377 85.735 42.2148 91.2578 42.2148V32.2148ZM91.2578 12.5352V2.53516C85.735 2.53516 81.2578 7.01231 81.2578 12.5352H91.2578ZM97.7891 26.8437H87.7891C87.7891 32.3666 92.2662 36.8438 97.7891 36.8438V26.8437ZM100.969 26.8437V36.8438C106.492 36.8438 110.969 32.3666 110.969 26.8437H100.969ZM100.969 22.9336H110.969C110.969 17.4107 106.492 12.9336 100.969 12.9336V22.9336ZM97.7891 22.9336V12.9336C92.2662 12.9336 87.7891 17.4107 87.7891 22.9336H97.7891ZM124.516 10.0859H134.516C134.516 4.56309 130.038 0.0859375 124.516 0.0859375V10.0859ZM124.516 34.0625V44.0625C130.038 44.0625 134.516 39.5853 134.516 34.0625H124.516ZM117.984 34.0625H107.984C107.984 39.5853 112.462 44.0625 117.984 44.0625V34.0625ZM117.984 24.9102H127.984C127.984 19.3873 123.507 14.9102 117.984 14.9102V24.9102ZM115.922 24.9102V14.9102C110.399 14.9102 105.922 19.3873 105.922 24.9102H115.922ZM115.922 33.8477V43.8477C121.445 43.8477 125.922 39.3705 125.922 33.8477H115.922ZM109.562 33.8477H99.5625C99.5625 39.3705 104.04 43.8477 109.562 43.8477V33.8477ZM109.562 10.7305V0.730469C104.04 0.730469 99.5625 5.20762 99.5625 10.7305L109.562 10.7305ZM115.922 10.7305H125.922C125.922 5.20762 121.445 0.730469 115.922 0.730469V10.7305ZM115.922 19.3672H105.922C105.922 24.89 110.399 29.3672 115.922 29.3672V19.3672ZM117.984 19.3672V29.3672C123.507 29.3672 127.984 24.89 127.984 19.3672H117.984ZM117.984 10.0859V0.0859375C112.462 0.0859375 107.984 4.56309 107.984 10.0859L117.984 10.0859ZM124.516 35.4805H134.516C134.516 29.9576 130.038 25.4805 124.516 25.4805V35.4805ZM124.516 49.7461V59.7461C130.038 59.7461 134.516 55.2689 134.516 49.7461H124.516ZM117.641 49.7461H107.641C107.641 55.2689 112.118 59.7461 117.641 59.7461V49.7461ZM117.641 40.9375H127.641C127.641 35.4147 123.163 30.9375 117.641 30.9375V40.9375ZM96.6289 40.9375H86.6289C86.6289 46.4603 91.1061 50.9375 96.6289 50.9375V40.9375ZM96.6289 35.4805V25.4805C91.1061 25.4805 86.6289 29.9576 86.6289 35.4805H96.6289ZM97.7891 12.5352H87.7891V17.7344H97.7891H107.789V12.5352H97.7891ZM97.7891 17.7344V27.7344H100.969V17.7344V7.73437H97.7891V17.7344ZM100.969 17.7344H110.969V12.5352H100.969H90.9688V17.7344H100.969ZM100.969 12.5352V22.5352H107.328V12.5352V2.53516H100.969V12.5352ZM107.328 12.5352H97.3281V32.2148H107.328H117.328V12.5352H107.328ZM107.328 32.2148V22.2148H91.2578V32.2148V42.2148H107.328V32.2148ZM91.2578 32.2148H101.258V12.5352H91.2578H81.2578V32.2148H91.2578ZM91.2578 12.5352V22.5352H97.7891V12.5352V2.53516L91.2578 2.53516V12.5352ZM97.7891 26.8437V36.8438H100.969V26.8437V16.8437H97.7891V26.8437ZM100.969 26.8437H110.969V22.9336H100.969H90.9688V26.8437H100.969ZM100.969 22.9336V12.9336H97.7891V22.9336V32.9336H100.969V22.9336ZM97.7891 22.9336H87.7891V26.8437H97.7891H107.789V22.9336H97.7891ZM124.516 10.0859H114.516V34.0625H124.516H134.516V10.0859H124.516ZM124.516 34.0625V24.0625H117.984V34.0625V44.0625H124.516V34.0625ZM117.984 34.0625H127.984V24.9102H117.984H107.984V34.0625H117.984ZM117.984 24.9102V14.9102H115.922V24.9102V34.9102H117.984V24.9102ZM115.922 24.9102H105.922V33.8477H115.922H125.922V24.9102H115.922ZM115.922 33.8477V23.8477H109.562V33.8477V43.8477H115.922V33.8477ZM109.562 33.8477H119.562V10.7305H109.562L99.5625 10.7305V33.8477H109.562ZM109.562 10.7305V20.7305H115.922V10.7305V0.730469H109.562V10.7305ZM115.922 10.7305L105.922 10.7305V19.3672H115.922H125.922V10.7305H115.922ZM115.922 19.3672V29.3672H117.984V19.3672V9.36719H115.922V19.3672ZM117.984 19.3672H127.984V10.0859H117.984L107.984 10.0859V19.3672H117.984ZM117.984 10.0859V20.0859H124.516V10.0859V0.0859375H117.984V10.0859ZM124.516 35.4805H114.516V49.7461H124.516H134.516V35.4805H124.516ZM124.516 49.7461V39.7461H117.641V49.7461V59.7461H124.516V49.7461ZM117.641 49.7461H127.641V40.9375H117.641H107.641V49.7461H117.641ZM117.641 40.9375V30.9375H96.6289V40.9375V50.9375H117.641V40.9375ZM96.6289 40.9375H106.629V35.4805H96.6289H86.6289V40.9375H96.6289ZM96.6289 35.4805V45.4805H124.516V35.4805V25.4805H96.6289V35.4805ZM160.996 17.2187L170.996 17.3168C170.996 17.2511 170.996 17.1854 170.996 17.1197L160.996 17.2187ZM131.562 17.2187L141.562 17.3168C141.563 17.2511 141.563 17.1854 141.562 17.1197L131.562 17.2187ZM146.301 18.9805L146.221 28.9801C146.274 28.9806 146.327 28.9806 146.38 28.9802L146.301 18.9805ZM164.434 25.2969H174.434C174.434 19.774 169.956 15.2969 164.434 15.2969V25.2969ZM164.434 30.7539V40.7539C169.956 40.7539 174.434 36.2768 174.434 30.7539H164.434ZM128.168 30.7539H118.168C118.168 36.2768 122.645 40.7539 128.168 40.7539V30.7539ZM128.168 25.2969V15.2969C122.645 15.2969 118.168 19.774 118.168 25.2969H128.168ZM160.137 32.2578H170.137C170.137 26.735 165.66 22.2578 160.137 22.2578V32.2578ZM160.137 43.2148V53.2148C165.66 53.2148 170.137 48.7377 170.137 43.2148H160.137ZM138.953 43.2148V33.2148C133.43 33.2148 128.953 37.692 128.953 43.2148H138.953ZM138.953 44.5039H128.953C128.953 50.0268 133.43 54.5039 138.953 54.5039V44.5039ZM161.082 44.5039H171.082C171.082 38.9811 166.605 34.5039 161.082 34.5039V44.5039ZM161.082 49.5742V59.5742C166.605 59.5742 171.082 55.0971 171.082 49.5742H161.082ZM132.207 49.5742H122.207C122.207 55.0971 126.684 59.5742 132.207 59.5742V49.5742ZM132.207 38.4883V28.4883C126.684 28.4883 122.207 32.9654 122.207 38.4883H132.207ZM153.348 38.4883V48.4883C158.87 48.4883 163.348 44.0111 163.348 38.4883H153.348ZM153.348 37.2852H163.348C163.348 31.7623 158.87 27.2852 153.348 27.2852V37.2852ZM132.25 37.2852H122.25C122.25 42.808 126.727 47.2852 132.25 47.2852V37.2852ZM132.25 32.2578V22.2578C126.727 22.2578 122.25 26.735 122.25 32.2578H132.25ZM146.301 10.5156V20.5156C148.229 20.5156 149.768 20.6392 150.947 20.8275C152.152 21.02 152.782 21.249 153.004 21.3494C153.235 21.4538 152.726 21.2804 152.119 20.505C151.411 19.6003 151.008 18.4288 150.997 17.3178L160.996 17.2187L170.996 17.1197C170.923 9.78613 165.973 5.26676 161.254 3.13007C156.866 1.14355 151.554 0.515625 146.301 0.515625V10.5156ZM160.996 17.2187L150.997 17.1207C151.007 16.0441 151.395 14.8886 152.097 13.985C152.701 13.2084 153.211 13.0316 152.988 13.133C152.771 13.2315 152.146 13.4603 150.943 13.6529C149.767 13.8412 148.23 13.9648 146.301 13.9648V23.9648V33.9648C151.551 33.9648 156.873 33.3378 161.27 31.3377C166.024 29.1749 170.924 24.6299 170.996 17.3168L160.996 17.2187ZM146.301 23.9648V13.9648C144.359 13.9648 142.804 13.841 141.61 13.6512C140.388 13.4568 139.748 13.2253 139.522 13.1231C139.284 13.0155 139.816 13.1961 140.441 14.0048C141.175 14.9544 141.573 16.1768 141.562 17.3168L131.562 17.2187L121.563 17.1207C121.49 24.6082 126.546 29.2059 131.284 31.3476C135.689 33.3391 141.035 33.9648 146.301 33.9648V23.9648ZM131.562 17.2187L141.562 17.1197C141.574 18.2952 141.16 19.5344 140.419 20.4852C139.79 21.2927 139.26 21.4698 139.506 21.3593C139.737 21.2552 140.382 21.0234 141.607 20.8292C142.803 20.6394 144.36 20.5156 146.301 20.5156V10.5156V0.515625C141.032 0.515625 135.696 1.14229 131.3 3.12017C126.599 5.23532 121.489 9.80756 121.563 17.3178L131.562 17.2187ZM146.301 15.5V5.5C143.552 5.5 140.682 5.60872 138.275 6.16502C137.119 6.43215 135.076 7.01263 133.138 8.49003C130.764 10.3003 128.781 13.3361 128.781 17.2187H138.781H148.781C148.781 18.6243 148.45 20.1198 147.699 21.5217C146.971 22.8801 146.035 23.807 145.264 24.3952C144.517 24.9644 143.858 25.2695 143.489 25.4187C143.107 25.5729 142.845 25.636 142.779 25.6514C142.675 25.6754 142.874 25.623 143.56 25.5748C144.207 25.5294 145.1 25.5 146.301 25.5V15.5ZM138.781 17.2187H128.781C128.781 20.5239 130.219 23.706 132.92 25.8861C135.043 27.5992 137.327 28.1787 138.482 28.4201C140.837 28.9121 143.745 28.9603 146.221 28.9801L146.301 18.9805L146.381 8.98079C145.085 8.97042 144.131 8.94762 143.413 8.90785C142.645 8.86526 142.451 8.81754 142.572 8.84263C142.653 8.85961 142.971 8.92924 143.425 9.10871C143.872 9.2859 144.641 9.64408 145.481 10.3225C146.369 11.0393 147.28 12.0705 147.93 13.4499C148.577 14.8216 148.781 16.1475 148.781 17.2187H138.781ZM146.301 18.9805L146.38 28.9802C148.876 28.9603 151.792 28.912 154.148 28.4219C155.303 28.1817 157.589 27.6047 159.714 25.8933C162.423 23.7125 163.863 20.5264 163.863 17.2187H153.863H143.863C143.863 16.1476 144.068 14.8198 144.716 13.4457C145.368 12.0637 146.282 11.0318 147.172 10.3153C148.013 9.63745 148.782 9.28046 149.229 9.10441C149.681 8.92603 149.997 8.85723 150.076 8.84082C150.192 8.81682 149.992 8.86492 149.216 8.90766C148.492 8.94759 147.529 8.97041 146.221 8.98078L146.301 18.9805ZM153.863 17.2187H163.863C163.863 13.3329 161.878 10.294 159.497 8.48317C157.556 7.00718 155.51 6.42878 154.355 6.16284C151.946 5.60863 149.068 5.5 146.301 5.5V15.5V25.5C147.514 25.5 148.416 25.5295 149.071 25.5751C149.765 25.6235 149.97 25.6765 149.87 25.6536C149.806 25.6388 149.545 25.5764 149.165 25.4232C148.796 25.2749 148.137 24.9708 147.389 24.4021C146.616 23.8142 145.678 22.8868 144.948 21.5261C144.195 20.1218 143.863 18.6244 143.863 17.2187H153.863ZM164.434 25.2969H154.434V30.7539H164.434H174.434V25.2969H164.434ZM164.434 30.7539V20.7539H128.168V30.7539V40.7539L164.434 40.7539V30.7539ZM128.168 30.7539H138.168V25.2969H128.168H118.168V30.7539H128.168ZM128.168 25.2969V35.2969L164.434 35.2969V25.2969V15.2969H128.168V25.2969ZM160.137 32.2578H150.137V43.2148H160.137H170.137V32.2578H160.137ZM160.137 43.2148V33.2148L138.953 33.2148V43.2148V53.2148L160.137 53.2148V43.2148ZM138.953 43.2148H128.953V44.5039H138.953L148.953 44.5039V43.2148L138.953 43.2148ZM138.953 44.5039V54.5039L161.082 54.5039V44.5039V34.5039L138.953 34.5039V44.5039ZM161.082 44.5039H151.082V49.5742H161.082H171.082V44.5039H161.082ZM161.082 49.5742V39.5742L132.207 39.5742V49.5742V59.5742L161.082 59.5742V49.5742ZM132.207 49.5742L142.207 49.5742V38.4883L132.207 38.4883H122.207V49.5742H132.207ZM132.207 38.4883V48.4883L153.348 48.4883V38.4883V28.4883H132.207V38.4883ZM153.348 38.4883H163.348V37.2852H153.348H143.348V38.4883H153.348ZM153.348 37.2852V27.2852H132.25V37.2852V47.2852L153.348 47.2852V37.2852ZM132.25 37.2852L142.25 37.2852V32.2578L132.25 32.2578H122.25V37.2852H132.25ZM132.25 32.2578V42.2578L160.137 42.2578V32.2578V22.2578H132.25V32.2578ZM209.594 10.0859H219.594C219.594 4.56309 215.117 0.0859375 209.594 0.0859375V10.0859ZM209.594 38.918V48.918C215.117 48.918 219.594 44.4408 219.594 38.918H209.594ZM202.719 38.918H192.719C192.719 44.4408 197.196 48.918 202.719 48.918V38.918ZM202.719 26.7148L212.719 26.7148C212.719 21.192 208.242 16.7148 202.719 16.7148V26.7148ZM196.703 26.7148H186.703C186.703 32.2377 191.18 36.7148 196.703 36.7148V26.7148ZM196.703 21.1289V11.1289C191.18 11.1289 186.703 15.6061 186.703 21.1289H196.703ZM202.719 21.1289V31.1289C208.242 31.1289 212.719 26.6518 212.719 21.1289L202.719 21.1289ZM202.719 10.0859V0.0859375C197.196 0.0859375 192.719 4.56309 192.719 10.0859H202.719ZM197.219 12.9219L207.219 12.9219C207.219 7.39903 202.742 2.92187 197.219 2.92187V12.9219ZM178.957 35.3945L170.013 39.8667C172.188 44.2174 177.179 46.3717 181.837 44.9709L178.957 35.3945ZM176.207 29.8945L173.396 20.2979C170.552 21.1309 168.224 23.1822 167.04 25.8985C165.856 28.6148 165.938 31.7163 167.263 34.3667L176.207 29.8945ZM189.656 18.5078L199.407 20.7258C200.082 17.7596 199.37 14.6476 197.472 12.27C195.575 9.89244 192.698 8.50781 189.656 8.50781V18.5078ZM178.312 18.5078H168.312C168.312 24.0307 172.79 28.5078 178.312 28.5078V18.5078ZM178.312 12.9219V2.92187C172.79 2.92187 168.312 7.39903 168.312 12.9219H178.312ZM210.625 43.6875H220.625C220.625 38.1647 216.148 33.6875 210.625 33.6875V43.6875ZM210.625 49.1875V59.1875C216.148 59.1875 220.625 54.7103 220.625 49.1875H210.625ZM182.824 49.1875H172.824C172.824 54.7103 177.301 59.1875 182.824 59.1875V49.1875ZM182.824 36.0391V26.0391C177.301 26.0391 172.824 30.5162 172.824 36.0391H182.824ZM189.828 36.0391H199.828C199.828 30.5162 195.351 26.0391 189.828 26.0391V36.0391ZM189.828 43.6875H179.828C179.828 49.2103 184.305 53.6875 189.828 53.6875V43.6875ZM209.594 10.0859H199.594V38.918H209.594H219.594V10.0859H209.594ZM209.594 38.918V28.918H202.719V38.918V48.918H209.594V38.918ZM202.719 38.918H212.719V26.7148L202.719 26.7148H192.719V38.918H202.719ZM202.719 26.7148V16.7148H196.703V26.7148V36.7148H202.719V26.7148ZM196.703 26.7148L206.703 26.7148V21.1289L196.703 21.1289H186.703V26.7148H196.703ZM196.703 21.1289V31.1289H202.719V21.1289V11.1289H196.703V21.1289ZM202.719 21.1289L212.719 21.1289V10.0859H202.719H192.719V21.1289H202.719ZM202.719 10.0859V20.0859L209.594 20.0859V10.0859V0.0859375H202.719V10.0859ZM197.219 12.9219H187.219C187.219 16.3533 186.259 18.7927 184.767 20.632C183.215 22.5468 180.536 24.4772 176.077 25.8182L178.957 35.3945L181.837 44.9709C189.237 42.7454 195.689 38.918 200.303 33.2273C204.978 27.4613 207.219 20.4474 207.219 12.9219L197.219 12.9219ZM178.957 35.3945L187.901 30.9224L185.151 25.4224L176.207 29.8945L167.263 34.3667L170.013 39.8667L178.957 35.3945ZM176.207 29.8945L179.018 39.4912C188.383 36.7477 197.129 30.7398 199.407 20.7258L189.656 18.5078L179.905 16.2898C179.885 16.3795 179.762 16.8725 178.859 17.646C177.907 18.4616 176.188 19.4799 173.396 20.2979L176.207 29.8945ZM189.656 18.5078V8.50781H178.312V18.5078V28.5078H189.656V18.5078ZM178.312 18.5078H188.312V12.9219H178.312H168.312V18.5078H178.312ZM178.312 12.9219V22.9219H197.219V12.9219V2.92187L178.312 2.92187V12.9219ZM210.625 43.6875H200.625V49.1875H210.625H220.625V43.6875H210.625ZM210.625 49.1875V39.1875H182.824V49.1875V59.1875H210.625V49.1875ZM182.824 49.1875H192.824V36.0391H182.824H172.824V49.1875H182.824ZM182.824 36.0391V46.0391H189.828V36.0391V26.0391H182.824V36.0391ZM189.828 36.0391H179.828V43.6875H189.828H199.828V36.0391H189.828ZM189.828 43.6875V53.6875H210.625V43.6875V33.6875H189.828V43.6875ZM247.621 10H257.621C257.621 4.47715 253.144 0 247.621 0V10ZM247.621 30.0664V40.0664C253.144 40.0664 257.621 35.5893 257.621 30.0664H247.621ZM240.746 30.0664H230.746C230.746 35.5893 235.223 40.0664 240.746 40.0664V30.0664ZM240.746 20.4414H250.746C250.746 14.9186 246.269 10.4414 240.746 10.4414V20.4414ZM234.215 20.4414H224.215C224.215 25.9643 228.692 30.4414 234.215 30.4414V20.4414ZM234.215 15.0703V5.07031C228.692 5.07031 224.215 9.54747 224.215 15.0703H234.215ZM240.746 15.0703V25.0703C246.269 25.0703 250.746 20.5932 250.746 15.0703H240.746ZM240.746 10V0C235.223 0 230.746 4.47715 230.746 10L240.746 10ZM247.621 31.4414H257.621C257.621 25.9186 253.144 21.4414 247.621 21.4414V31.4414ZM247.621 42.8281V52.8281C253.144 52.8281 257.621 48.351 257.621 42.8281H247.621ZM227.641 42.8281V32.8281C222.118 32.8281 217.641 37.3053 217.641 42.8281H227.641ZM227.641 44.0312H217.641C217.641 49.5541 222.118 54.0312 227.641 54.0312V44.0312ZM248.566 44.0312H258.566C258.566 38.5084 254.089 34.0312 248.566 34.0312V44.0312ZM248.566 49.4023V59.4023C254.089 59.4023 258.566 54.9252 258.566 49.4023H248.566ZM220.852 49.4023H210.852C210.852 54.9252 215.329 59.4023 220.852 59.4023V49.4023ZM220.852 37.8867V27.8867C215.329 27.8867 210.852 32.3639 210.852 37.8867H220.852ZM240.789 37.8867V47.8867C246.312 47.8867 250.789 43.4096 250.789 37.8867H240.789ZM240.789 36.6836H250.789C250.789 31.1607 246.312 26.6836 240.789 26.6836V36.6836ZM220.809 36.6836H210.809C210.809 42.2064 215.286 46.6836 220.809 46.6836V36.6836ZM220.809 31.4414V21.4414C215.286 21.4414 210.809 25.9186 210.809 31.4414H220.809ZM238.125 24.4805L246.383 30.1201C248.204 27.4533 248.626 24.0711 247.514 21.039C246.403 18.0069 243.896 15.6981 240.782 14.84L238.125 24.4805ZM234.516 29.7656L231.582 39.3256C235.768 40.6104 240.304 39.0216 242.774 35.4052L234.516 29.7656ZM226.051 23.1484L234.827 18.3556C233.054 15.1083 229.633 13.1056 225.933 13.1491C222.233 13.1927 218.86 15.2754 217.164 18.5634L226.051 23.1484ZM216.855 30.4961L208.485 35.9668C210.9 39.6625 215.453 41.3369 219.687 40.0868L216.855 30.4961ZM213.289 25.0391L210.698 15.3806C207.602 16.2113 205.091 18.4759 203.947 21.4704C202.804 24.465 203.165 27.8264 204.918 30.5098L213.289 25.0391ZM222.527 13.6523L232.527 13.7432C232.527 13.7129 232.527 13.6826 232.527 13.6523H222.527ZM222.527 11.375V1.375C217.005 1.375 212.527 5.85215 212.527 11.375H222.527ZM229.531 11.375L239.531 11.375C239.531 5.85215 235.054 1.375 229.531 1.375V11.375ZM247.621 10H237.621V30.0664H247.621H257.621V10H247.621ZM247.621 30.0664V20.0664H240.746V30.0664V40.0664H247.621V30.0664ZM240.746 30.0664H250.746V20.4414H240.746H230.746V30.0664H240.746ZM240.746 20.4414V10.4414L234.215 10.4414V20.4414V30.4414H240.746V20.4414ZM234.215 20.4414H244.215V15.0703H234.215H224.215V20.4414H234.215ZM234.215 15.0703V25.0703H240.746V15.0703V5.07031L234.215 5.07031V15.0703ZM240.746 15.0703H250.746V10H240.746L230.746 10V15.0703H240.746ZM240.746 10V20H247.621V10V0L240.746 0V10ZM247.621 31.4414H237.621V42.8281H247.621H257.621V31.4414H247.621ZM247.621 42.8281V32.8281H227.641V42.8281V52.8281H247.621V42.8281ZM227.641 42.8281H217.641V44.0312H227.641H237.641V42.8281H227.641ZM227.641 44.0312V54.0312H248.566V44.0312V34.0312H227.641V44.0312ZM248.566 44.0312H238.566V49.4023H248.566H258.566V44.0312H248.566ZM248.566 49.4023V39.4023H220.852V49.4023V59.4023H248.566V49.4023ZM220.852 49.4023H230.852V37.8867H220.852H210.852V49.4023H220.852ZM220.852 37.8867V47.8867H240.789V37.8867V27.8867H220.852V37.8867ZM240.789 37.8867H250.789V36.6836H240.789H230.789V37.8867H240.789ZM240.789 36.6836V26.6836H220.809V36.6836V46.6836H240.789V36.6836ZM220.809 36.6836H230.809V31.4414H220.809H210.809V36.6836H220.809ZM220.809 31.4414V41.4414H247.621V31.4414V21.4414H220.809V31.4414ZM229.531 13.6523H219.531C219.531 17.2358 220.287 21.6371 223.059 25.692C225.922 29.882 230.239 32.6798 235.468 34.1209L238.125 24.4805L240.782 14.84C239.996 14.6233 239.637 14.408 239.532 14.3377C239.445 14.2794 239.496 14.298 239.57 14.4066C239.721 14.6266 239.531 14.5377 239.531 13.6523H229.531ZM238.125 24.4805L229.867 18.8409L226.258 24.126L234.516 29.7656L242.774 35.4052L246.383 30.1201L238.125 24.4805ZM234.516 29.7656L237.449 20.2057C236.509 19.917 235.953 19.5768 235.622 19.3127C235.298 19.0533 235.043 18.7511 234.827 18.3556L226.051 23.1484L217.274 27.9413C220.25 33.3899 225.17 37.3579 231.582 39.3256L234.516 29.7656ZM226.051 23.1484L217.164 18.5634C216.871 19.1308 216.534 19.5406 216.138 19.8664C215.741 20.1927 215.1 20.5876 214.024 20.9054L216.855 30.4961L219.687 40.0868C226.785 37.9911 231.932 33.5592 234.938 27.7334L226.051 23.1484ZM216.855 30.4961L225.226 25.0254L221.66 19.5683L213.289 25.0391L204.918 30.5098L208.485 35.9668L216.855 30.4961ZM213.289 25.0391L215.88 34.6975C221.288 33.2467 225.729 30.397 228.709 26.17C231.604 22.0612 232.492 17.5416 232.527 13.7432L222.527 13.6523L212.528 13.5614C212.519 14.4897 212.312 14.7181 212.361 14.6483C212.382 14.6179 212.363 14.6675 212.194 14.7791C212.009 14.9008 211.564 15.1482 210.698 15.3806L213.289 25.0391ZM222.527 13.6523H232.527V11.375H222.527H212.527V13.6523H222.527ZM222.527 11.375V21.375H229.531V11.375V1.375H222.527V11.375ZM229.531 11.375H219.531V13.6523H229.531H239.531V11.375L229.531 11.375ZM274.863 11.9336H284.863C284.863 6.41075 280.386 1.93359 274.863 1.93359V11.9336ZM274.863 17.3477V27.3477C280.386 27.3477 284.863 22.8705 284.863 17.3477H274.863ZM267.645 17.3477V7.34766C264.844 7.34766 262.172 8.52187 260.278 10.5847C258.384 12.6475 257.442 15.41 257.681 18.2002L267.645 17.3477ZM276.281 27.4453L284.757 32.7515C286.39 30.1428 286.731 26.9274 285.682 24.0343C284.632 21.1411 282.308 18.8926 279.382 17.9382L276.281 27.4453ZM272.973 32.7305L270.13 42.318C274.436 43.5947 279.065 41.8437 281.449 38.0367L272.973 32.7305ZM264.164 25.6836L273.012 21.0237C271.261 17.6983 267.792 15.6357 264.034 15.6844C260.276 15.7332 256.863 17.885 255.198 21.2547L264.164 25.6836ZM254.883 33.4609L246.501 38.9155C248.917 42.6273 253.486 44.3082 257.731 43.0466L254.883 33.4609ZM251.359 28.0469L248.498 18.4651C245.477 19.3673 243.058 21.6412 241.972 24.6008C240.885 27.5604 241.258 30.859 242.978 33.5014L251.359 28.0469ZM260.512 17.3477L270.466 18.3077C270.736 15.5015 269.81 12.7115 267.914 10.6246C266.019 8.53762 263.331 7.34766 260.512 7.34766V17.3477ZM253.25 17.3477H243.25C243.25 22.8705 247.727 27.3477 253.25 27.3477V17.3477ZM253.25 11.9336V1.93359C247.727 1.93359 243.25 6.41075 243.25 11.9336H253.25ZM285.648 35.1367H295.648C295.648 29.6139 291.171 25.1367 285.648 25.1367V35.1367ZM285.648 49.7461V59.7461C291.171 59.7461 295.648 55.2689 295.648 49.7461H285.648ZM278.773 49.7461H268.773C268.773 55.2689 273.251 59.7461 278.773 59.7461V49.7461ZM278.773 40.5937H288.773C288.773 35.0709 284.296 30.5937 278.773 30.5937V40.5937ZM258.02 40.5937H248.02C248.02 46.1166 252.497 50.5937 258.02 50.5937V40.5937ZM258.02 35.1367V25.1367C252.497 25.1367 248.02 29.6139 248.02 35.1367H258.02ZM285.648 10H295.648C295.648 4.47715 291.171 0 285.648 0V10ZM285.648 33.6328V43.6328C291.171 43.6328 295.648 39.1557 295.648 33.6328H285.648ZM278.773 33.6328H268.773C268.773 39.1557 273.251 43.6328 278.773 43.6328V33.6328ZM278.773 24.6094H288.773C288.773 19.0865 284.296 14.6094 278.773 14.6094V24.6094ZM273.832 24.6094H263.832C263.832 30.1322 268.309 34.6094 273.832 34.6094V24.6094ZM273.832 19.0234V9.02344C268.309 9.02344 263.832 13.5006 263.832 19.0234H273.832ZM278.773 19.0234V29.0234C284.296 29.0234 288.773 24.5463 288.773 19.0234H278.773ZM278.773 10V0C273.251 0 268.773 4.47715 268.773 10H278.773ZM274.863 11.9336H264.863V17.3477H274.863H284.863V11.9336H274.863ZM274.863 17.3477V7.34766H267.645V17.3477V27.3477H274.863V17.3477ZM267.645 17.3477L257.681 18.2002C257.99 21.8092 259.209 25.7441 261.916 29.2653C264.656 32.8285 268.506 35.4276 273.18 36.9524L276.281 27.4453L279.382 17.9382C278.694 17.7137 278.292 17.4865 278.08 17.3422C277.874 17.2021 277.795 17.1052 277.772 17.0746C277.745 17.0401 277.643 16.9037 277.608 16.4952L267.645 17.3477ZM276.281 27.4453L267.805 22.1391L264.497 27.4243L272.973 32.7305L281.449 38.0367L284.757 32.7515L276.281 27.4453ZM272.973 32.7305L275.815 23.143C274.882 22.8663 274.319 22.5185 273.964 22.2254C273.605 21.9295 273.289 21.55 273.012 21.0237L264.164 25.6836L255.316 30.3435C258.252 35.9188 263.236 40.274 270.13 42.318L272.973 32.7305ZM264.164 25.6836L255.198 21.2547C254.573 22.5204 253.72 23.3743 252.034 23.8752L254.883 33.4609L257.731 43.0466C265.155 40.8405 270.232 35.9796 273.13 30.1125L264.164 25.6836ZM254.883 33.4609L263.264 28.0064L259.741 22.5923L251.359 28.0469L242.978 33.5014L246.501 38.9155L254.883 33.4609ZM251.359 28.0469L254.221 37.6287C259.292 36.1143 263.343 33.3369 266.17 29.5854C268.929 25.9231 270.122 21.8708 270.466 18.3077L260.512 17.3477L250.558 16.3876C250.493 17.057 250.311 17.3982 250.197 17.5494C250.139 17.6258 250.038 17.7403 249.829 17.8813C249.615 18.026 249.208 18.253 248.498 18.4651L251.359 28.0469ZM260.512 17.3477V7.34766H253.25V17.3477V27.3477H260.512V17.3477ZM253.25 17.3477H263.25V11.9336H253.25H243.25V17.3477H253.25ZM253.25 11.9336V21.9336H274.863V11.9336V1.93359H253.25V11.9336ZM285.648 35.1367H275.648V49.7461H285.648H295.648V35.1367H285.648ZM285.648 49.7461V39.7461H278.773V49.7461V59.7461H285.648V49.7461ZM278.773 49.7461H288.773V40.5937H278.773H268.773V49.7461H278.773ZM278.773 40.5937V30.5937H258.02V40.5937V50.5937H278.773V40.5937ZM258.02 40.5937H268.02V35.1367H258.02H248.02V40.5937H258.02ZM258.02 35.1367V45.1367H285.648V35.1367V25.1367H258.02V35.1367ZM285.648 10H275.648V33.6328H285.648H295.648V10H285.648ZM285.648 33.6328V23.6328H278.773V33.6328V43.6328H285.648V33.6328ZM278.773 33.6328H288.773V24.6094H278.773H268.773V33.6328H278.773ZM278.773 24.6094V14.6094H273.832V24.6094V34.6094H278.773V24.6094ZM273.832 24.6094H283.832V19.0234H273.832H263.832V24.6094H273.832ZM273.832 19.0234V29.0234H278.773V19.0234V9.02344H273.832V19.0234ZM278.773 19.0234H288.773V10H278.773H268.773V19.0234H278.773ZM278.773 10V20H285.648V10V0H278.773V10ZM292.824 23.4492L302.824 23.5091C302.824 23.4688 302.824 23.4285 302.824 23.3882L292.824 23.4492ZM307.992 29.6367L307.906 39.6363C307.964 39.6368 308.022 39.6368 308.08 39.6363L307.992 29.6367ZM316.371 23.4492L326.371 23.5556C326.371 23.4835 326.371 23.4114 326.37 23.3393L316.371 23.4492ZM326.168 39.6914H336.168C336.168 34.1686 331.691 29.6914 326.168 29.6914V39.6914ZM326.168 45.2344V55.2344C331.691 55.2344 336.168 50.7572 336.168 45.2344H326.168ZM289.859 45.2344H279.859C279.859 50.7572 284.337 55.2344 289.859 55.2344V45.2344ZM289.859 39.6914V29.6914C284.337 29.6914 279.859 34.1686 279.859 39.6914H289.859ZM307.992 11.7187V21.7187C310.451 21.7187 312.051 22.4153 312.776 22.9564C313.111 23.2061 313.199 23.3705 313.201 23.3751C313.204 23.3803 313.2 23.3736 313.198 23.364C313.195 23.354 313.203 23.3771 313.203 23.4492H323.203L333.203 23.4492C333.203 16.3638 329.672 10.6092 324.736 6.9264C319.961 3.36404 313.955 1.71875 307.992 1.71875V11.7187ZM323.203 23.4492H313.203C313.203 23.5522 313.192 23.5994 313.19 23.6067C313.188 23.6141 313.187 23.6175 313.182 23.6272C313.176 23.6383 313.09 23.7985 312.766 24.0408C312.059 24.5696 310.472 25.2656 307.992 25.2656V35.2656V45.2656C313.934 45.2656 319.953 43.6414 324.746 40.0558C329.72 36.3351 333.203 30.5458 333.203 23.4492L323.203 23.4492ZM307.992 35.2656V25.2656C305.48 25.2656 303.905 24.5643 303.223 24.0521C303.065 23.9338 302.968 23.8368 302.914 23.7737C302.86 23.7121 302.841 23.6774 302.838 23.6721C302.837 23.6686 302.837 23.6699 302.836 23.6653C302.835 23.6607 302.823 23.614 302.824 23.5091L292.824 23.4492L282.824 23.3893C282.782 30.4843 286.227 36.3003 291.213 40.0446C296.009 43.6467 302.04 45.2656 307.992 45.2656V35.2656ZM292.824 23.4492L302.824 23.3882C302.824 23.3143 302.832 23.2918 302.828 23.3047C302.827 23.3089 302.826 23.3151 302.823 23.3217C302.821 23.3282 302.819 23.3312 302.82 23.3299C302.82 23.3291 302.838 23.295 302.894 23.2312C302.951 23.1662 303.051 23.0665 303.213 22.9452C303.913 22.4206 305.501 21.7187 307.992 21.7187V11.7187V1.71875C302.019 1.71875 296.001 3.35873 291.223 6.93764C286.275 10.6438 282.781 16.4254 282.824 23.5102L292.824 23.4492ZM307.992 17.2617V7.26172C304.135 7.26172 299.789 8.12202 296.109 10.7301C292.091 13.5773 289.527 18.1058 289.527 23.4492H299.527H309.527C309.527 23.9968 309.394 24.7429 308.987 25.5121C308.586 26.2683 308.07 26.7662 307.672 27.0483C306.978 27.5401 306.865 27.2617 307.992 27.2617V17.2617ZM299.527 23.4492H289.527C289.527 28.7983 292.046 33.3809 296.188 36.256C299.894 38.8293 304.221 39.6046 307.906 39.6363L307.992 29.6367L308.078 19.6371C307.507 19.6322 307.185 19.5681 307.078 19.5403C306.966 19.5113 307.196 19.5509 307.593 19.827C308.023 20.1255 308.574 20.6529 308.994 21.4475C309.416 22.2486 309.527 22.9847 309.527 23.4492H299.527ZM307.992 29.6367L308.08 39.6363C311.756 39.6041 316.06 38.8145 319.747 36.2268C323.843 33.352 326.315 28.8176 326.371 23.5556L316.371 23.4492L306.372 23.3428C306.376 22.9086 306.486 22.2092 306.891 21.4415C307.295 20.6776 307.827 20.1585 308.258 19.8562C308.991 19.3417 309.127 19.6264 307.904 19.6371L307.992 29.6367ZM316.371 23.4492L326.37 23.3393C326.313 18.0866 323.801 13.6071 319.826 10.7598C316.167 8.13848 311.844 7.26172 307.992 7.26172V17.2617V27.2617C309.039 27.2617 308.884 27.5236 308.179 27.0185C307.78 26.733 307.283 26.2439 306.898 25.5181C306.508 24.7822 306.377 24.074 306.372 23.5591L316.371 23.4492ZM326.168 39.6914H316.168V45.2344H326.168H336.168V39.6914H326.168ZM326.168 45.2344V35.2344H289.859V45.2344V55.2344H326.168V45.2344ZM289.859 45.2344H299.859V39.6914H289.859H279.859V45.2344H289.859ZM289.859 39.6914V49.6914H326.168V39.6914V29.6914H289.859V39.6914ZM364.195 40.0781H374.195C374.195 34.5553 369.718 30.0781 364.195 30.0781V40.0781ZM364.195 45.6641V55.6641C369.718 55.6641 374.195 51.1869 374.195 45.6641H364.195ZM327.887 45.6641H317.887C317.887 51.1869 322.364 55.6641 327.887 55.6641V45.6641ZM327.887 40.0781V30.0781C322.364 30.0781 317.887 34.5553 317.887 40.0781H327.887ZM342.582 40.0781V50.0781C348.105 50.0781 352.582 45.601 352.582 40.0781H342.582ZM342.582 35.0078H352.582C352.582 29.485 348.105 25.0078 342.582 25.0078V35.0078ZM331.84 35.0078H321.84C321.84 40.5307 326.317 45.0078 331.84 45.0078V35.0078ZM331.84 20.957V10.957C326.317 10.957 321.84 15.4342 321.84 20.957H331.84ZM353.453 20.957V30.957C358.976 30.957 363.453 26.4799 363.453 20.957H353.453ZM353.453 17.8633H363.453C363.453 12.3404 358.976 7.86328 353.453 7.86328V17.8633ZM331.797 17.8633H321.797C321.797 23.3861 326.274 27.8633 331.797 27.8633V17.8633ZM331.797 12.3633V2.36328C326.274 2.36328 321.797 6.84043 321.797 12.3633H331.797ZM360.285 12.3633L370.285 12.3633C370.285 6.84043 365.808 2.36328 360.285 2.36328V12.3633ZM360.285 26.2852V36.2852C365.808 36.2852 370.285 31.808 370.285 26.2852H360.285ZM338.758 26.2852V16.2852C333.235 16.2852 328.758 20.7623 328.758 26.2852L338.758 26.2852ZM338.758 29.4648H328.758C328.758 34.9877 333.235 39.4648 338.758 39.4648V29.4648ZM361.188 29.4648H371.188C371.188 23.942 366.71 19.4648 361.188 19.4648V29.4648ZM361.188 35.0078V45.0078C366.71 45.0078 371.188 40.5307 371.188 35.0078H361.188ZM349.414 35.0078V25.0078C343.891 25.0078 339.414 29.485 339.414 35.0078H349.414ZM349.414 40.0781H339.414C339.414 45.601 343.891 50.0781 349.414 50.0781V40.0781ZM364.195 40.0781H354.195V45.6641H364.195H374.195V40.0781H364.195ZM364.195 45.6641V35.6641H327.887V45.6641V55.6641H364.195V45.6641ZM327.887 45.6641H337.887V40.0781H327.887H317.887V45.6641H327.887ZM327.887 40.0781V50.0781H342.582V40.0781V30.0781H327.887V40.0781ZM342.582 40.0781H352.582V35.0078H342.582H332.582V40.0781H342.582ZM342.582 35.0078V25.0078L331.84 25.0078V35.0078V45.0078H342.582V35.0078ZM331.84 35.0078H341.84V20.957L331.84 20.957H321.84V35.0078H331.84ZM331.84 20.957V30.957H353.453V20.957V10.957H331.84V20.957ZM353.453 20.957H363.453V17.8633H353.453H343.453V20.957H353.453ZM353.453 17.8633V7.86328H331.797V17.8633V27.8633L353.453 27.8633V17.8633ZM331.797 17.8633L341.797 17.8633V12.3633H331.797H321.797V17.8633H331.797ZM331.797 12.3633V22.3633L360.285 22.3633V12.3633V2.36328L331.797 2.36328V12.3633ZM360.285 12.3633H350.285V26.2852H360.285H370.285V12.3633L360.285 12.3633ZM360.285 26.2852V16.2852H338.758V26.2852V36.2852H360.285V26.2852ZM338.758 26.2852L328.758 26.2852V29.4648H338.758H348.758V26.2852H338.758ZM338.758 29.4648V39.4648H361.188V29.4648V19.4648H338.758V29.4648ZM361.188 29.4648H351.188V35.0078H361.188H371.188V29.4648H361.188ZM361.188 35.0078V25.0078H349.414V35.0078V45.0078H361.188V35.0078ZM349.414 35.0078H339.414V40.0781H349.414H359.414V35.0078H349.414ZM349.414 40.0781V50.0781H364.195V40.0781V30.0781H349.414V40.0781ZM411.762 31.4844H421.762C421.762 25.9615 417.285 21.4844 411.762 21.4844V31.4844ZM411.762 36.9414V46.9414C417.285 46.9414 421.762 42.4643 421.762 36.9414H411.762ZM396.895 36.9414V26.9414C391.372 26.9414 386.895 31.4186 386.895 36.9414H396.895ZM396.895 49.7891V59.7891C402.417 59.7891 406.895 55.3119 406.895 49.7891L396.895 49.7891ZM390.062 49.7891H380.062C380.062 55.3119 384.54 59.7891 390.062 59.7891V49.7891ZM390.062 36.9414L400.062 36.9414C400.062 31.4186 395.585 26.9414 390.062 26.9414V36.9414ZM375.496 36.9414H365.496C365.496 42.4643 369.973 46.9414 375.496 46.9414V36.9414ZM375.496 31.4844V21.4844C369.973 21.4844 365.496 25.9615 365.496 31.4844H375.496ZM408.625 11.8906H418.625C418.625 6.36778 414.148 1.89062 408.625 1.89062V11.8906ZM408.625 17.1758V27.1758C414.148 27.1758 418.625 22.6986 418.625 17.1758H408.625ZM397.883 17.1758V7.17578C394.833 7.17578 391.949 8.56785 390.052 10.9563C388.155 13.3448 387.452 16.4684 388.142 19.4394L397.883 17.1758ZM410.301 24.4805L419.372 28.6894C420.728 25.7668 420.593 22.3698 419.009 19.5641C417.425 16.7585 414.586 14.8879 411.383 14.5392L410.301 24.4805ZM407.809 29.8516L406.659 39.7853C410.944 40.2812 415.064 37.9735 416.88 34.0605L407.809 29.8516ZM393.629 22.6328L402.039 17.2228C400.195 14.3558 397.017 12.6258 393.608 12.6328C390.199 12.6399 387.029 14.3831 385.196 17.2577L393.629 22.6328ZM379.535 29.8516L370.464 34.0605C372.28 37.9746 376.402 40.2824 380.688 39.7849L379.535 29.8516ZM377.043 24.4805L375.947 14.5407C372.747 14.8935 369.912 16.7655 368.332 19.5701C366.751 22.3748 366.617 25.769 367.972 28.6894L377.043 24.4805ZM389.461 17.1758L399.121 19.7609C399.925 16.7582 399.286 13.5526 397.393 11.0869C395.501 8.62119 392.569 7.17578 389.461 7.17578V17.1758ZM378.676 17.1758H368.676C368.676 22.6986 373.153 27.1758 378.676 27.1758V17.1758ZM378.676 11.8906V1.89062C373.153 1.89062 368.676 6.36778 368.676 11.8906H378.676ZM411.762 31.4844H401.762V36.9414H411.762H421.762V31.4844H411.762ZM411.762 36.9414V26.9414H396.895V36.9414V46.9414L411.762 46.9414V36.9414ZM396.895 36.9414H386.895V49.7891H396.895L406.895 49.7891V36.9414L396.895 36.9414ZM396.895 49.7891V39.7891H390.062V49.7891V59.7891H396.895V49.7891ZM390.062 49.7891L400.062 49.7891V36.9414L390.062 36.9414H380.062V49.7891H390.062ZM390.062 36.9414V26.9414H375.496V36.9414V46.9414H390.062V36.9414ZM375.496 36.9414H385.496V31.4844H375.496H365.496V36.9414H375.496ZM375.496 31.4844V41.4844L411.762 41.4844V31.4844V21.4844H375.496V31.4844ZM408.625 11.8906H398.625V17.1758H408.625H418.625V11.8906H408.625ZM408.625 17.1758V7.17578H397.883V17.1758V27.1758H408.625V17.1758ZM397.883 17.1758L388.142 19.4394C390.244 28.4819 398.776 33.2849 409.219 34.4217L410.301 24.4805L411.383 14.5392C408.201 14.1928 406.996 13.4908 406.798 13.3563C406.724 13.3057 406.879 13.3967 407.093 13.7C407.31 14.0066 407.509 14.4197 407.623 14.9122L397.883 17.1758ZM410.301 24.4805L401.23 20.2715L398.738 25.6426L407.809 29.8516L416.88 34.0605L419.372 28.6894L410.301 24.4805ZM407.809 29.8516L408.958 19.9179C403.585 19.2961 402.262 17.5692 402.039 17.2228L393.629 22.6328L385.219 28.0429C389.722 35.0441 397.551 38.7313 406.659 39.7853L407.809 29.8516ZM393.629 22.6328L385.196 17.2577C384.985 17.5895 383.711 19.2998 378.382 19.9183L379.535 29.8516L380.688 39.7849C389.797 38.7276 397.589 35.0238 402.061 28.0079L393.629 22.6328ZM379.535 29.8516L388.606 25.6426L386.114 20.2715L377.043 24.4805L367.972 28.6894L370.464 34.0605L379.535 29.8516ZM377.043 24.4805L378.139 34.4202C388.666 33.2595 396.809 28.4007 399.121 19.7609L389.461 17.1758L379.801 14.5907C379.908 14.1895 380.078 13.8534 380.258 13.6045C380.438 13.3568 380.556 13.2946 380.465 13.3563C380.244 13.5063 379.049 14.1987 375.947 14.5407L377.043 24.4805ZM389.461 17.1758V7.17578H378.676V17.1758V27.1758H389.461V17.1758ZM378.676 17.1758H388.676V11.8906H378.676H368.676V17.1758H378.676ZM378.676 11.8906V21.8906H408.625V11.8906V1.89062L378.676 1.89062V11.8906ZM445.879 20.0977H455.879C455.879 14.5748 451.402 10.0977 445.879 10.0977V20.0977ZM445.879 25.4258V35.4258C451.402 35.4258 455.879 30.9486 455.879 25.4258H445.879ZM417.777 25.4258H407.777C407.777 30.9486 412.254 35.4258 417.777 35.4258V25.4258ZM417.777 11.418V1.41797C412.254 1.41797 407.777 5.89512 407.777 11.418H417.777ZM424.652 11.418L434.652 11.418C434.652 5.89512 430.175 1.41797 424.652 1.41797V11.418ZM424.652 20.0977H414.652C414.652 25.6205 419.129 30.0977 424.652 30.0977V20.0977ZM449.789 28.9492H459.789C459.789 23.4264 455.312 18.9492 449.789 18.9492V28.9492ZM449.789 34.2773V44.2773C455.312 44.2773 459.789 39.8002 459.789 34.2773H449.789ZM413.523 34.2773H403.523C403.523 39.8002 408.001 44.2773 413.523 44.2773V34.2773ZM413.523 28.9492V18.9492C408.001 18.9492 403.523 23.4264 403.523 28.9492H413.523ZM446.137 43.4727H456.137C456.137 37.9498 451.66 33.4727 446.137 33.4727V43.4727ZM446.137 48.9727V58.9727C451.66 58.9727 456.137 54.4955 456.137 48.9727H446.137ZM417.305 48.9727H407.305C407.305 54.4955 411.782 58.9727 417.305 58.9727V48.9727ZM417.305 37.0273V27.0273C411.782 27.0273 407.305 31.5045 407.305 37.0273H417.305ZM424.266 37.0273H434.266C434.266 31.5045 429.788 27.0273 424.266 27.0273V37.0273ZM424.266 43.4727H414.266C414.266 48.9955 418.743 53.4727 424.266 53.4727V43.4727ZM445.879 20.0977H435.879V25.4258H445.879H455.879V20.0977H445.879ZM445.879 25.4258V15.4258H417.777V25.4258V35.4258H445.879V25.4258ZM417.777 25.4258H427.777V11.418H417.777H407.777V25.4258H417.777ZM417.777 11.418V21.418H424.652V11.418V1.41797H417.777V11.418ZM424.652 11.418H414.652V20.0977H424.652H434.652V11.418L424.652 11.418ZM424.652 20.0977V30.0977H445.879V20.0977V10.0977L424.652 10.0977V20.0977ZM449.789 28.9492H439.789V34.2773H449.789H459.789V28.9492H449.789ZM449.789 34.2773V24.2773H413.523V34.2773V44.2773H449.789V34.2773ZM413.523 34.2773H423.523V28.9492H413.523H403.523V34.2773H413.523ZM413.523 28.9492V38.9492H449.789V28.9492V18.9492H413.523V28.9492ZM446.137 43.4727H436.137V48.9727H446.137H456.137V43.4727H446.137ZM446.137 48.9727V38.9727H417.305V48.9727V58.9727H446.137V48.9727ZM417.305 48.9727H427.305V37.0273H417.305H407.305V48.9727H417.305ZM417.305 37.0273V47.0273H424.266V37.0273V27.0273H417.305V37.0273ZM424.266 37.0273H414.266V43.4727H424.266H434.266V37.0273H424.266ZM424.266 43.4727V53.4727H446.137V43.4727V33.4727H424.266V43.4727Z" fill="white" mask="url(#path-1-outside-1_6524_1796)"/>
</g>
<defs>
<filter id="filter0_d_6524_1796" x="0" y="0" width="463.789" height="67.7891" filterUnits="userSpaceOnUse" color-interpolation-filters="sRGB">
<feFlood flood-opacity="0" result="BackgroundImageFix"/>
<feColorMatrix in="SourceAlpha" type="matrix" values="0 0 0 0 0 0 0 0 0 0 0 0 0 0 0 0 0 0 127 0" result="hardAlpha"/>
<feOffset dy="4"/>
<feGaussianBlur stdDeviation="2"/>
<feComposite in2="hardAlpha" operator="out"/>
<feColorMatrix type="matrix" values="0 0 0 0 0 0 0 0 0 0 0 0 0 0 0 0 0 0 0.07 0"/>
<feBlend mode="normal" in2="BackgroundImageFix" result="effect1_dropShadow_6524_1796"/>
<feBlend mode="normal" in="SourceGraphic" in2="effect1_dropShadow_6524_1796" result="shape"/>
</filter>
</defs>
</svg>
