<svg width="303" height="68" viewBox="0 0 303 68" fill="none" xmlns="http://www.w3.org/2000/svg">
<g filter="url(#filter0_d_6526_5713)">
<mask id="path-1-outside-1_6526_5713" maskUnits="userSpaceOnUse" x="3.18359" y="-0.507813" width="295" height="61" fill="black">
<rect fill="white" x="3.18359" y="-0.507813" width="295" height="61"/>
<path d="M47.8164 10V49.7461H40.8125V10L47.8164 10ZM37.418 13.3086V18.7656H34.5391V34.793C35.957 34.6641 37.3535 34.5352 38.707 34.3633L39.0938 39.4766C30.7578 40.8945 21.8203 41.0664 14.6016 41.0664L14 35.5664L17.9961 35.5234V18.7656H15.0742V13.3086H37.418ZM24.6133 35.3516L27.8359 35.2227V18.7656H24.6133V35.3516ZM84.6836 27.9609V33.418H56.1523V13.0938L84.4258 13.0937V18.6367L62.9414 18.6367V27.9609L84.6836 27.9609ZM88.4219 39.6914V45.3203H52.1133V39.6914H88.4219ZM97.7891 12.5352V17.7344H100.969V12.5352H107.328V32.2148H91.2578V12.5352H97.7891ZM97.7891 26.8437H100.969V22.9336H97.7891V26.8437ZM124.516 10.0859V34.0625H117.984V24.9102H115.922V33.8477H109.562V10.7305H115.922V19.3672H117.984V10.0859H124.516ZM124.516 35.4805V49.7461H117.641V40.9375H96.6289V35.4805H124.516ZM146.301 10.5156C155.625 10.5156 160.953 12.8789 160.996 17.2187C160.953 21.6016 155.625 23.9648 146.301 23.9648C136.934 23.9648 131.52 21.6016 131.562 17.2187C131.52 12.8789 136.934 10.5156 146.301 10.5156ZM146.301 15.5C140.93 15.5 138.781 16.0156 138.781 17.2187C138.781 18.6797 140.93 18.9375 146.301 18.9805C151.715 18.9375 153.863 18.6797 153.863 17.2187C153.863 16.0156 151.715 15.5 146.301 15.5ZM164.434 25.2969V30.7539L128.168 30.7539V25.2969H164.434ZM160.137 32.2578V43.2148L138.953 43.2148V44.5039L161.082 44.5039V49.5742L132.207 49.5742V38.4883L153.348 38.4883V37.2852L132.25 37.2852V32.2578L160.137 32.2578ZM207.789 11.2891V13.5664C207.789 16.1875 207.789 19.8828 206.715 24.6953L199.969 24.0937C200.57 21.1719 200.785 18.7227 200.871 16.7031H179.816V11.2891H207.789ZM211.957 26.2422V31.6562H175.863V26.2422H188.496V20.0547H195.328V26.2422L211.957 26.2422ZM186.734 33.375V36.4258H200.914V33.375H207.789V49.4023H179.859V33.375H186.734ZM186.734 43.9023H200.914V41.582H186.734V43.9023ZM248.438 10V31.6133H241.52V10H248.438ZM226.996 33.1602V36.168H241.562V33.1602H248.438V49.4023H220.207V33.1602H226.996ZM226.996 43.9023H241.562V41.4102H226.996V43.9023ZM224.891 12.75C224.869 16.3379 225.17 19.9687 226.867 22.9766C228.586 19.9473 228.908 16.3164 228.93 12.75V11.7187H235.332V12.75C235.332 18.0781 236.277 23.1914 240.961 26.1992L237.223 31.0977C234.709 29.5293 233.098 27.209 232.109 24.3945C231.121 27.3379 229.531 29.8516 226.953 31.4844C224.311 29.8301 222.678 27.3164 221.711 24.3516C220.68 27.1875 219.09 29.5293 216.598 31.0977L212.859 26.1992C217.543 23.1914 218.402 18.1641 218.402 12.75V11.7187H224.891V12.75ZM284.188 20.0977V25.4258H256.086V11.418H262.961V20.0977H284.188ZM288.098 28.9492V34.2773H251.832V28.9492H288.098ZM284.445 43.4727V48.9727H255.613V37.0273H262.574V43.4727H284.445Z"/>
</mask>
<path d="M47.8164 10V49.7461H40.8125V10L47.8164 10ZM37.418 13.3086V18.7656H34.5391V34.793C35.957 34.6641 37.3535 34.5352 38.707 34.3633L39.0938 39.4766C30.7578 40.8945 21.8203 41.0664 14.6016 41.0664L14 35.5664L17.9961 35.5234V18.7656H15.0742V13.3086H37.418ZM24.6133 35.3516L27.8359 35.2227V18.7656H24.6133V35.3516ZM84.6836 27.9609V33.418H56.1523V13.0938L84.4258 13.0937V18.6367L62.9414 18.6367V27.9609L84.6836 27.9609ZM88.4219 39.6914V45.3203H52.1133V39.6914H88.4219ZM97.7891 12.5352V17.7344H100.969V12.5352H107.328V32.2148H91.2578V12.5352H97.7891ZM97.7891 26.8437H100.969V22.9336H97.7891V26.8437ZM124.516 10.0859V34.0625H117.984V24.9102H115.922V33.8477H109.562V10.7305H115.922V19.3672H117.984V10.0859H124.516ZM124.516 35.4805V49.7461H117.641V40.9375H96.6289V35.4805H124.516ZM146.301 10.5156C155.625 10.5156 160.953 12.8789 160.996 17.2187C160.953 21.6016 155.625 23.9648 146.301 23.9648C136.934 23.9648 131.52 21.6016 131.562 17.2187C131.52 12.8789 136.934 10.5156 146.301 10.5156ZM146.301 15.5C140.93 15.5 138.781 16.0156 138.781 17.2187C138.781 18.6797 140.93 18.9375 146.301 18.9805C151.715 18.9375 153.863 18.6797 153.863 17.2187C153.863 16.0156 151.715 15.5 146.301 15.5ZM164.434 25.2969V30.7539L128.168 30.7539V25.2969H164.434ZM160.137 32.2578V43.2148L138.953 43.2148V44.5039L161.082 44.5039V49.5742L132.207 49.5742V38.4883L153.348 38.4883V37.2852L132.25 37.2852V32.2578L160.137 32.2578ZM207.789 11.2891V13.5664C207.789 16.1875 207.789 19.8828 206.715 24.6953L199.969 24.0937C200.57 21.1719 200.785 18.7227 200.871 16.7031H179.816V11.2891H207.789ZM211.957 26.2422V31.6562H175.863V26.2422H188.496V20.0547H195.328V26.2422L211.957 26.2422ZM186.734 33.375V36.4258H200.914V33.375H207.789V49.4023H179.859V33.375H186.734ZM186.734 43.9023H200.914V41.582H186.734V43.9023ZM248.438 10V31.6133H241.52V10H248.438ZM226.996 33.1602V36.168H241.562V33.1602H248.438V49.4023H220.207V33.1602H226.996ZM226.996 43.9023H241.562V41.4102H226.996V43.9023ZM224.891 12.75C224.869 16.3379 225.17 19.9687 226.867 22.9766C228.586 19.9473 228.908 16.3164 228.93 12.75V11.7187H235.332V12.75C235.332 18.0781 236.277 23.1914 240.961 26.1992L237.223 31.0977C234.709 29.5293 233.098 27.209 232.109 24.3945C231.121 27.3379 229.531 29.8516 226.953 31.4844C224.311 29.8301 222.678 27.3164 221.711 24.3516C220.68 27.1875 219.09 29.5293 216.598 31.0977L212.859 26.1992C217.543 23.1914 218.402 18.1641 218.402 12.75V11.7187H224.891V12.75ZM284.188 20.0977V25.4258H256.086V11.418H262.961V20.0977H284.188ZM288.098 28.9492V34.2773H251.832V28.9492H288.098ZM284.445 43.4727V48.9727H255.613V37.0273H262.574V43.4727H284.445Z" fill="#11DCA9"/>
<path d="M47.8164 10H57.8164C57.8164 4.47715 53.3393 0 47.8164 0V10ZM47.8164 49.7461V59.7461C53.3393 59.7461 57.8164 55.2689 57.8164 49.7461H47.8164ZM40.8125 49.7461H30.8125C30.8125 55.2689 35.2897 59.7461 40.8125 59.7461V49.7461ZM40.8125 10V0C35.2897 0 30.8125 4.47715 30.8125 10H40.8125ZM37.418 13.3086H47.418C47.418 7.78575 42.9408 3.30859 37.418 3.30859V13.3086ZM37.418 18.7656V28.7656C42.9408 28.7656 47.418 24.2885 47.418 18.7656H37.418ZM34.5391 18.7656V8.76562C29.0162 8.76562 24.5391 13.2428 24.5391 18.7656H34.5391ZM34.5391 34.793H24.5391C24.5391 37.6026 25.721 40.2826 27.7957 42.1772C29.8704 44.0718 32.6464 45.0063 35.4444 44.7519L34.5391 34.793ZM38.707 34.3633L48.6786 33.6091C48.4719 30.8766 47.1529 28.3486 45.0299 26.6159C42.9069 24.8833 40.1658 24.0977 37.4473 24.4429L38.707 34.3633ZM39.0938 39.4766L40.7707 49.335C45.8606 48.4691 49.4546 43.8708 49.0653 38.7224L39.0938 39.4766ZM14.6016 41.0664L4.66085 42.1537C5.21557 47.2255 9.49952 51.0664 14.6016 51.0664V41.0664ZM14 35.5664L13.8925 25.567C11.0699 25.5973 8.39167 26.8192 6.51866 28.9309C4.64566 31.0427 3.75238 33.8477 4.05928 36.6537L14 35.5664ZM17.9961 35.5234L18.1036 45.5229C23.5842 45.4639 27.9961 41.0043 27.9961 35.5234H17.9961ZM17.9961 18.7656H27.9961C27.9961 13.2428 23.5189 8.76562 17.9961 8.76562V18.7656ZM15.0742 18.7656H5.07422C5.07422 24.2885 9.55137 28.7656 15.0742 28.7656V18.7656ZM15.0742 13.3086V3.30859C9.55137 3.30859 5.07422 7.78575 5.07422 13.3086H15.0742ZM24.6133 35.3516H14.6133C14.6133 38.0731 15.7225 40.677 17.685 42.5626C19.6474 44.4481 22.2936 45.4523 25.013 45.3436L24.6133 35.3516ZM27.8359 35.2227L28.2356 45.2147C33.5987 45.0001 37.8359 40.59 37.8359 35.2227H27.8359ZM27.8359 18.7656H37.8359C37.8359 13.2428 33.3588 8.76562 27.8359 8.76562V18.7656ZM24.6133 18.7656V8.76562C19.0904 8.76562 14.6133 13.2428 14.6133 18.7656H24.6133ZM47.8164 10L37.8164 10V49.7461H47.8164H57.8164V10H47.8164ZM47.8164 49.7461V39.7461H40.8125V49.7461V59.7461H47.8164V49.7461ZM40.8125 49.7461H50.8125V10L40.8125 10H30.8125V49.7461H40.8125ZM40.8125 10V20H47.8164V10V0H40.8125V10ZM37.418 13.3086H27.418V18.7656H37.418H47.418V13.3086H37.418ZM37.418 18.7656V8.76562H34.5391V18.7656V28.7656H37.418V18.7656ZM34.5391 18.7656H24.5391V34.793H34.5391H44.5391V18.7656H34.5391ZM34.5391 34.793L35.4444 44.7519C36.8422 44.6248 38.4102 44.4813 39.9668 44.2836L38.707 34.3633L37.4473 24.4429C36.2968 24.589 35.0718 24.7033 33.6337 24.834L34.5391 34.793ZM38.707 34.3633L28.7355 35.1174L29.1222 40.2307L39.0938 39.4766L49.0653 38.7224L48.6786 33.6091L38.707 34.3633ZM39.0938 39.4766L37.4168 29.6182C29.9736 30.8843 21.7601 31.0664 14.6016 31.0664L14.6016 41.0664V51.0664C21.8805 51.0664 31.542 50.9048 40.7707 49.335L39.0938 39.4766ZM14.6016 41.0664L24.5423 39.9791L23.9407 34.4791L14 35.5664L4.05928 36.6537L4.66085 42.1537L14.6016 41.0664ZM14 35.5664L14.1075 45.5658L18.1036 45.5229L17.9961 35.5234L17.8886 25.524L13.8925 25.567L14 35.5664ZM17.9961 35.5234H27.9961V18.7656H17.9961H7.99609V35.5234H17.9961ZM17.9961 18.7656V8.76562H15.0742V18.7656V28.7656H17.9961V18.7656ZM15.0742 18.7656H25.0742V13.3086H15.0742H5.07422V18.7656H15.0742ZM15.0742 13.3086V23.3086H37.418V13.3086V3.30859L15.0742 3.30859V13.3086ZM24.6133 35.3516L25.013 45.3436L28.2356 45.2147L27.8359 35.2227L27.4363 25.2306L24.2136 25.3596L24.6133 35.3516ZM27.8359 35.2227H37.8359V18.7656H27.8359H17.8359V35.2227H27.8359ZM27.8359 18.7656V8.76562H24.6133V18.7656V28.7656H27.8359V18.7656ZM24.6133 18.7656H14.6133L14.6133 35.3516H24.6133H34.6133V18.7656H24.6133ZM84.6836 27.9609H94.6836C94.6836 22.4381 90.2064 17.9609 84.6836 17.9609V27.9609ZM84.6836 33.418V43.418C90.2064 43.418 94.6836 38.9408 94.6836 33.418H84.6836ZM56.1523 33.418H46.1523C46.1523 38.9408 50.6295 43.418 56.1523 43.418V33.418ZM56.1523 13.0938V3.09375C50.6295 3.09375 46.1523 7.5709 46.1523 13.0938H56.1523ZM84.4258 13.0937H94.4258C94.4258 7.5709 89.9486 3.09375 84.4258 3.09375V13.0937ZM84.4258 18.6367V28.6367C89.9486 28.6367 94.4258 24.1596 94.4258 18.6367H84.4258ZM62.9414 18.6367V8.63672C57.4186 8.63672 52.9414 13.1139 52.9414 18.6367H62.9414ZM62.9414 27.9609H52.9414C52.9414 33.4838 57.4186 37.9609 62.9414 37.9609V27.9609ZM88.4219 39.6914H98.4219C98.4219 34.1686 93.9447 29.6914 88.4219 29.6914V39.6914ZM88.4219 45.3203V55.3203C93.9447 55.3203 98.4219 50.8432 98.4219 45.3203H88.4219ZM52.1133 45.3203H42.1133C42.1133 50.8432 46.5904 55.3203 52.1133 55.3203V45.3203ZM52.1133 39.6914V29.6914C46.5904 29.6914 42.1133 34.1686 42.1133 39.6914H52.1133ZM84.6836 27.9609L74.6836 27.9609V33.418H84.6836H94.6836V27.9609H84.6836ZM84.6836 33.418V23.418L56.1523 23.418V33.418V43.418H84.6836V33.418ZM56.1523 33.418H66.1523V13.0938H56.1523H46.1523V33.418H56.1523ZM56.1523 13.0938V23.0938L84.4258 23.0937V13.0937V3.09375L56.1523 3.09375V13.0938ZM84.4258 13.0937L74.4258 13.0938V18.6367L84.4258 18.6367H94.4258V13.0937H84.4258ZM84.4258 18.6367V8.63672H62.9414V18.6367V28.6367H84.4258V18.6367ZM62.9414 18.6367H52.9414V27.9609H62.9414H72.9414V18.6367H62.9414ZM62.9414 27.9609V37.9609H84.6836V27.9609V17.9609L62.9414 17.9609V27.9609ZM88.4219 39.6914H78.4219V45.3203H88.4219H98.4219V39.6914H88.4219ZM88.4219 45.3203V35.3203H52.1133V45.3203V55.3203H88.4219V45.3203ZM52.1133 45.3203H62.1133V39.6914H52.1133H42.1133V45.3203H52.1133ZM52.1133 39.6914V49.6914H88.4219V39.6914V29.6914H52.1133V39.6914ZM97.7891 12.5352H107.789C107.789 7.01231 103.312 2.53516 97.7891 2.53516V12.5352ZM97.7891 17.7344H87.7891C87.7891 23.2572 92.2662 27.7344 97.7891 27.7344V17.7344ZM100.969 17.7344V27.7344C106.492 27.7344 110.969 23.2572 110.969 17.7344H100.969ZM100.969 12.5352V2.53516C95.4459 2.53516 90.9688 7.01231 90.9688 12.5352H100.969ZM107.328 12.5352H117.328C117.328 7.01231 112.851 2.53516 107.328 2.53516V12.5352ZM107.328 32.2148V42.2148C112.851 42.2148 117.328 37.7377 117.328 32.2148H107.328ZM91.2578 32.2148H81.2578C81.2578 37.7377 85.735 42.2148 91.2578 42.2148V32.2148ZM91.2578 12.5352V2.53516C85.735 2.53516 81.2578 7.01231 81.2578 12.5352H91.2578ZM97.7891 26.8437H87.7891C87.7891 32.3666 92.2662 36.8438 97.7891 36.8438V26.8437ZM100.969 26.8437V36.8438C106.492 36.8438 110.969 32.3666 110.969 26.8437H100.969ZM100.969 22.9336H110.969C110.969 17.4107 106.492 12.9336 100.969 12.9336V22.9336ZM97.7891 22.9336V12.9336C92.2662 12.9336 87.7891 17.4107 87.7891 22.9336H97.7891ZM124.516 10.0859H134.516C134.516 4.56309 130.038 0.0859375 124.516 0.0859375V10.0859ZM124.516 34.0625V44.0625C130.038 44.0625 134.516 39.5853 134.516 34.0625H124.516ZM117.984 34.0625H107.984C107.984 39.5853 112.462 44.0625 117.984 44.0625V34.0625ZM117.984 24.9102H127.984C127.984 19.3873 123.507 14.9102 117.984 14.9102V24.9102ZM115.922 24.9102V14.9102C110.399 14.9102 105.922 19.3873 105.922 24.9102H115.922ZM115.922 33.8477V43.8477C121.445 43.8477 125.922 39.3705 125.922 33.8477H115.922ZM109.562 33.8477H99.5625C99.5625 39.3705 104.04 43.8477 109.562 43.8477V33.8477ZM109.562 10.7305V0.730469C104.04 0.730469 99.5625 5.20762 99.5625 10.7305L109.562 10.7305ZM115.922 10.7305H125.922C125.922 5.20762 121.445 0.730469 115.922 0.730469V10.7305ZM115.922 19.3672H105.922C105.922 24.89 110.399 29.3672 115.922 29.3672V19.3672ZM117.984 19.3672V29.3672C123.507 29.3672 127.984 24.89 127.984 19.3672H117.984ZM117.984 10.0859V0.0859375C112.462 0.0859375 107.984 4.56309 107.984 10.0859L117.984 10.0859ZM124.516 35.4805H134.516C134.516 29.9576 130.038 25.4805 124.516 25.4805V35.4805ZM124.516 49.7461V59.7461C130.038 59.7461 134.516 55.2689 134.516 49.7461H124.516ZM117.641 49.7461H107.641C107.641 55.2689 112.118 59.7461 117.641 59.7461V49.7461ZM117.641 40.9375H127.641C127.641 35.4147 123.163 30.9375 117.641 30.9375V40.9375ZM96.6289 40.9375H86.6289C86.6289 46.4603 91.1061 50.9375 96.6289 50.9375V40.9375ZM96.6289 35.4805V25.4805C91.1061 25.4805 86.6289 29.9576 86.6289 35.4805H96.6289ZM97.7891 12.5352H87.7891V17.7344H97.7891H107.789V12.5352H97.7891ZM97.7891 17.7344V27.7344H100.969V17.7344V7.73437H97.7891V17.7344ZM100.969 17.7344H110.969V12.5352H100.969H90.9688V17.7344H100.969ZM100.969 12.5352V22.5352H107.328V12.5352V2.53516H100.969V12.5352ZM107.328 12.5352H97.3281V32.2148H107.328H117.328V12.5352H107.328ZM107.328 32.2148V22.2148H91.2578V32.2148V42.2148H107.328V32.2148ZM91.2578 32.2148H101.258V12.5352H91.2578H81.2578V32.2148H91.2578ZM91.2578 12.5352V22.5352H97.7891V12.5352V2.53516L91.2578 2.53516V12.5352ZM97.7891 26.8437V36.8438H100.969V26.8437V16.8437H97.7891V26.8437ZM100.969 26.8437H110.969V22.9336H100.969H90.9688V26.8437H100.969ZM100.969 22.9336V12.9336H97.7891V22.9336V32.9336H100.969V22.9336ZM97.7891 22.9336H87.7891V26.8437H97.7891H107.789V22.9336H97.7891ZM124.516 10.0859H114.516V34.0625H124.516H134.516V10.0859H124.516ZM124.516 34.0625V24.0625H117.984V34.0625V44.0625H124.516V34.0625ZM117.984 34.0625H127.984V24.9102H117.984H107.984V34.0625H117.984ZM117.984 24.9102V14.9102H115.922V24.9102V34.9102H117.984V24.9102ZM115.922 24.9102H105.922V33.8477H115.922H125.922V24.9102H115.922ZM115.922 33.8477V23.8477H109.562V33.8477V43.8477H115.922V33.8477ZM109.562 33.8477H119.562V10.7305H109.562L99.5625 10.7305V33.8477H109.562ZM109.562 10.7305V20.7305H115.922V10.7305V0.730469H109.562V10.7305ZM115.922 10.7305L105.922 10.7305V19.3672H115.922H125.922V10.7305H115.922ZM115.922 19.3672V29.3672H117.984V19.3672V9.36719H115.922V19.3672ZM117.984 19.3672H127.984V10.0859H117.984L107.984 10.0859V19.3672H117.984ZM117.984 10.0859V20.0859H124.516V10.0859V0.0859375H117.984V10.0859ZM124.516 35.4805H114.516V49.7461H124.516H134.516V35.4805H124.516ZM124.516 49.7461V39.7461H117.641V49.7461V59.7461H124.516V49.7461ZM117.641 49.7461H127.641V40.9375H117.641H107.641V49.7461H117.641ZM117.641 40.9375V30.9375H96.6289V40.9375V50.9375H117.641V40.9375ZM96.6289 40.9375H106.629V35.4805H96.6289H86.6289V40.9375H96.6289ZM96.6289 35.4805V45.4805H124.516V35.4805V25.4805H96.6289V35.4805ZM160.996 17.2187L170.996 17.3168C170.996 17.2511 170.996 17.1854 170.996 17.1197L160.996 17.2187ZM131.562 17.2187L141.562 17.3168C141.563 17.2511 141.563 17.1854 141.562 17.1197L131.562 17.2187ZM146.301 18.9805L146.221 28.9801C146.274 28.9806 146.327 28.9806 146.38 28.9802L146.301 18.9805ZM164.434 25.2969H174.434C174.434 19.774 169.956 15.2969 164.434 15.2969V25.2969ZM164.434 30.7539V40.7539C169.956 40.7539 174.434 36.2768 174.434 30.7539H164.434ZM128.168 30.7539H118.168C118.168 36.2768 122.645 40.7539 128.168 40.7539V30.7539ZM128.168 25.2969V15.2969C122.645 15.2969 118.168 19.774 118.168 25.2969H128.168ZM160.137 32.2578H170.137C170.137 26.735 165.66 22.2578 160.137 22.2578V32.2578ZM160.137 43.2148V53.2148C165.66 53.2148 170.137 48.7377 170.137 43.2148H160.137ZM138.953 43.2148V33.2148C133.43 33.2148 128.953 37.692 128.953 43.2148H138.953ZM138.953 44.5039H128.953C128.953 50.0268 133.43 54.5039 138.953 54.5039V44.5039ZM161.082 44.5039H171.082C171.082 38.9811 166.605 34.5039 161.082 34.5039V44.5039ZM161.082 49.5742V59.5742C166.605 59.5742 171.082 55.0971 171.082 49.5742H161.082ZM132.207 49.5742H122.207C122.207 55.0971 126.684 59.5742 132.207 59.5742V49.5742ZM132.207 38.4883V28.4883C126.684 28.4883 122.207 32.9654 122.207 38.4883H132.207ZM153.348 38.4883V48.4883C158.87 48.4883 163.348 44.0111 163.348 38.4883H153.348ZM153.348 37.2852H163.348C163.348 31.7623 158.87 27.2852 153.348 27.2852V37.2852ZM132.25 37.2852H122.25C122.25 42.808 126.727 47.2852 132.25 47.2852V37.2852ZM132.25 32.2578V22.2578C126.727 22.2578 122.25 26.735 122.25 32.2578H132.25ZM146.301 10.5156V20.5156C148.229 20.5156 149.768 20.6392 150.947 20.8275C152.152 21.02 152.782 21.249 153.004 21.3494C153.235 21.4538 152.726 21.2804 152.119 20.505C151.411 19.6003 151.008 18.4288 150.997 17.3178L160.996 17.2187L170.996 17.1197C170.923 9.78613 165.973 5.26676 161.254 3.13007C156.866 1.14355 151.554 0.515625 146.301 0.515625V10.5156ZM160.996 17.2187L150.997 17.1207C151.007 16.0441 151.395 14.8886 152.097 13.985C152.701 13.2084 153.211 13.0316 152.988 13.133C152.771 13.2315 152.146 13.4603 150.943 13.6529C149.767 13.8412 148.23 13.9648 146.301 13.9648V23.9648V33.9648C151.551 33.9648 156.873 33.3378 161.27 31.3377C166.024 29.1749 170.924 24.6299 170.996 17.3168L160.996 17.2187ZM146.301 23.9648V13.9648C144.359 13.9648 142.804 13.841 141.61 13.6512C140.388 13.4568 139.748 13.2253 139.522 13.1231C139.284 13.0155 139.816 13.1961 140.441 14.0048C141.175 14.9544 141.573 16.1768 141.562 17.3168L131.562 17.2187L121.563 17.1207C121.49 24.6082 126.546 29.2059 131.284 31.3476C135.689 33.3391 141.035 33.9648 146.301 33.9648V23.9648ZM131.562 17.2187L141.562 17.1197C141.574 18.2952 141.16 19.5344 140.419 20.4852C139.79 21.2927 139.26 21.4698 139.506 21.3593C139.737 21.2552 140.382 21.0234 141.607 20.8292C142.803 20.6394 144.36 20.5156 146.301 20.5156V10.5156V0.515625C141.032 0.515625 135.696 1.14229 131.3 3.12017C126.599 5.23532 121.489 9.80756 121.563 17.3178L131.562 17.2187ZM146.301 15.5V5.5C143.552 5.5 140.682 5.60872 138.275 6.16502C137.119 6.43215 135.076 7.01263 133.138 8.49003C130.764 10.3003 128.781 13.3361 128.781 17.2187H138.781H148.781C148.781 18.6243 148.45 20.1198 147.699 21.5217C146.971 22.8801 146.035 23.807 145.264 24.3952C144.517 24.9644 143.858 25.2695 143.489 25.4187C143.107 25.5729 142.845 25.636 142.779 25.6514C142.675 25.6754 142.874 25.623 143.56 25.5748C144.207 25.5294 145.1 25.5 146.301 25.5V15.5ZM138.781 17.2187H128.781C128.781 20.5239 130.219 23.706 132.92 25.8861C135.043 27.5992 137.327 28.1787 138.482 28.4201C140.837 28.9121 143.745 28.9603 146.221 28.9801L146.301 18.9805L146.381 8.98079C145.085 8.97042 144.131 8.94762 143.413 8.90785C142.645 8.86526 142.451 8.81754 142.572 8.84263C142.653 8.85961 142.971 8.92924 143.425 9.10871C143.872 9.2859 144.641 9.64408 145.481 10.3225C146.369 11.0393 147.28 12.0705 147.93 13.4499C148.577 14.8216 148.781 16.1475 148.781 17.2187H138.781ZM146.301 18.9805L146.38 28.9802C148.876 28.9603 151.792 28.912 154.148 28.4219C155.303 28.1817 157.589 27.6047 159.714 25.8933C162.423 23.7125 163.863 20.5264 163.863 17.2187H153.863H143.863C143.863 16.1476 144.068 14.8198 144.716 13.4457C145.368 12.0637 146.282 11.0318 147.172 10.3153C148.013 9.63745 148.782 9.28046 149.229 9.10441C149.681 8.92603 149.997 8.85723 150.076 8.84082C150.192 8.81682 149.992 8.86492 149.216 8.90766C148.492 8.94759 147.529 8.97041 146.221 8.98078L146.301 18.9805ZM153.863 17.2187H163.863C163.863 13.3329 161.878 10.294 159.497 8.48317C157.556 7.00718 155.51 6.42878 154.355 6.16284C151.946 5.60863 149.068 5.5 146.301 5.5V15.5V25.5C147.514 25.5 148.416 25.5295 149.071 25.5751C149.765 25.6235 149.97 25.6765 149.87 25.6536C149.806 25.6388 149.545 25.5764 149.165 25.4232C148.796 25.2749 148.137 24.9708 147.389 24.4021C146.616 23.8142 145.678 22.8868 144.948 21.5261C144.195 20.1218 143.863 18.6244 143.863 17.2187H153.863ZM164.434 25.2969H154.434V30.7539H164.434H174.434V25.2969H164.434ZM164.434 30.7539V20.7539H128.168V30.7539V40.7539L164.434 40.7539V30.7539ZM128.168 30.7539H138.168V25.2969H128.168H118.168V30.7539H128.168ZM128.168 25.2969V35.2969L164.434 35.2969V25.2969V15.2969H128.168V25.2969ZM160.137 32.2578H150.137V43.2148H160.137H170.137V32.2578H160.137ZM160.137 43.2148V33.2148L138.953 33.2148V43.2148V53.2148L160.137 53.2148V43.2148ZM138.953 43.2148H128.953V44.5039H138.953L148.953 44.5039V43.2148L138.953 43.2148ZM138.953 44.5039V54.5039L161.082 54.5039V44.5039V34.5039L138.953 34.5039V44.5039ZM161.082 44.5039H151.082V49.5742H161.082H171.082V44.5039H161.082ZM161.082 49.5742V39.5742L132.207 39.5742V49.5742V59.5742L161.082 59.5742V49.5742ZM132.207 49.5742L142.207 49.5742V38.4883L132.207 38.4883H122.207V49.5742H132.207ZM132.207 38.4883V48.4883L153.348 48.4883V38.4883V28.4883H132.207V38.4883ZM153.348 38.4883H163.348V37.2852H153.348H143.348V38.4883H153.348ZM153.348 37.2852V27.2852H132.25V37.2852V47.2852L153.348 47.2852V37.2852ZM132.25 37.2852L142.25 37.2852V32.2578L132.25 32.2578H122.25V37.2852H132.25ZM132.25 32.2578V42.2578L160.137 42.2578V32.2578V22.2578H132.25V32.2578ZM207.789 11.2891H217.789C217.789 5.76622 213.312 1.28906 207.789 1.28906V11.2891ZM206.715 24.6953L205.827 34.6558C210.826 35.1016 215.381 31.7724 216.475 26.8738L206.715 24.6953ZM199.969 24.0937L190.174 22.0772C189.599 24.8691 190.243 27.7736 191.944 30.0609C193.645 32.3483 196.241 33.8011 199.081 34.0542L199.969 24.0937ZM200.871 16.7031L210.862 17.1283C210.978 14.4048 209.977 11.7521 208.091 9.784C206.205 7.81593 203.597 6.70312 200.871 6.70312V16.7031ZM179.816 16.7031H169.816C169.816 22.226 174.294 26.7031 179.816 26.7031V16.7031ZM179.816 11.2891V1.28906C174.294 1.28906 169.816 5.76622 169.816 11.2891L179.816 11.2891ZM211.957 26.2422H221.957C221.957 20.7193 217.48 16.2422 211.957 16.2422V26.2422ZM211.957 31.6562V41.6562C217.48 41.6562 221.957 37.1791 221.957 31.6562H211.957ZM175.863 31.6562H165.863C165.863 37.1791 170.34 41.6562 175.863 41.6562V31.6562ZM175.863 26.2422V16.2422C170.34 16.2422 165.863 20.7193 165.863 26.2422H175.863ZM188.496 26.2422V36.2422C194.019 36.2422 198.496 31.765 198.496 26.2422H188.496ZM188.496 20.0547V10.0547C182.973 10.0547 178.496 14.5318 178.496 20.0547H188.496ZM195.328 20.0547L205.328 20.0547C205.328 14.5318 200.851 10.0547 195.328 10.0547V20.0547ZM195.328 26.2422H185.328C185.328 31.765 189.805 36.2422 195.328 36.2422V26.2422ZM186.734 33.375H196.734C196.734 27.8522 192.257 23.375 186.734 23.375V33.375ZM186.734 36.4258H176.734C176.734 41.9486 181.212 46.4258 186.734 46.4258V36.4258ZM200.914 36.4258V46.4258C206.437 46.4258 210.914 41.9486 210.914 36.4258H200.914ZM200.914 33.375V23.375C195.391 23.375 190.914 27.8522 190.914 33.375H200.914ZM207.789 33.375H217.789C217.789 27.8522 213.312 23.375 207.789 23.375V33.375ZM207.789 49.4023V59.4023C213.312 59.4023 217.789 54.9252 217.789 49.4023H207.789ZM179.859 49.4023H169.859C169.859 54.9252 174.337 59.4023 179.859 59.4023V49.4023ZM179.859 33.375V23.375C174.337 23.375 169.859 27.8522 169.859 33.375H179.859ZM186.734 43.9023H176.734C176.734 49.4252 181.212 53.9023 186.734 53.9023V43.9023ZM200.914 43.9023V53.9023C206.437 53.9023 210.914 49.4252 210.914 43.9023H200.914ZM200.914 41.582H210.914C210.914 36.0592 206.437 31.582 200.914 31.582V41.582ZM186.734 41.582V31.582C181.212 31.582 176.734 36.0592 176.734 41.582H186.734ZM207.789 11.2891H197.789V13.5664L207.789 13.5664H217.789V11.2891H207.789ZM207.789 13.5664L197.789 13.5664C197.789 16.0426 197.779 18.8266 196.955 22.5168L206.715 24.6953L216.475 26.8738C217.799 20.9391 217.789 16.3324 217.789 13.5664H207.789ZM206.715 24.6953L207.603 14.7348L200.857 14.1333L199.969 24.0937L199.081 34.0542L205.827 34.6558L206.715 24.6953ZM199.969 24.0937L209.763 26.1103C210.497 22.5443 210.759 19.5447 210.862 17.1283L200.871 16.7031L190.88 16.278C190.811 17.9006 190.643 19.7995 190.174 22.0772L199.969 24.0937ZM200.871 16.7031V6.70312H179.816V16.7031V26.7031H200.871V16.7031ZM179.816 16.7031H189.816V11.2891H179.816L169.816 11.2891V16.7031H179.816ZM179.816 11.2891V21.2891L207.789 21.2891V11.2891V1.28906L179.816 1.28906V11.2891ZM211.957 26.2422L201.957 26.2422V31.6562H211.957H221.957V26.2422H211.957ZM211.957 31.6562V21.6562L175.863 21.6562V31.6562V41.6562H211.957V31.6562ZM175.863 31.6562H185.863V26.2422H175.863H165.863V31.6562H175.863ZM175.863 26.2422V36.2422H188.496V26.2422V16.2422H175.863V26.2422ZM188.496 26.2422H198.496V20.0547H188.496H178.496V26.2422H188.496ZM188.496 20.0547V30.0547H195.328V20.0547V10.0547H188.496V20.0547ZM195.328 20.0547H185.328V26.2422H195.328L205.328 26.2422V20.0547L195.328 20.0547ZM195.328 26.2422V36.2422H211.957V26.2422V16.2422L195.328 16.2422V26.2422ZM186.734 33.375H176.734V36.4258H186.734H196.734V33.375H186.734ZM186.734 36.4258V46.4258H200.914V36.4258V26.4258H186.734V36.4258ZM200.914 36.4258H210.914V33.375H200.914H190.914V36.4258H200.914ZM200.914 33.375V43.375H207.789V33.375V23.375L200.914 23.375V33.375ZM207.789 33.375H197.789V49.4023H207.789H217.789V33.375H207.789ZM207.789 49.4023V39.4023H179.859V49.4023V59.4023H207.789V49.4023ZM179.859 49.4023H189.859V33.375H179.859H169.859V49.4023H179.859ZM179.859 33.375V43.375H186.734V33.375V23.375H179.859V33.375ZM186.734 43.9023V53.9023H200.914V43.9023V33.9023H186.734V43.9023ZM200.914 43.9023H210.914V41.582H200.914H190.914V43.9023H200.914ZM200.914 41.582V31.582H186.734V41.582V51.582H200.914V41.582ZM186.734 41.582H176.734V43.9023H186.734H196.734V41.582H186.734ZM248.438 10H258.438C258.438 4.47715 253.96 0 248.438 0V10ZM248.438 31.6133V41.6133C253.96 41.6133 258.438 37.1361 258.438 31.6133H248.438ZM241.52 31.6133H231.52C231.52 37.1361 235.997 41.6133 241.52 41.6133V31.6133ZM241.52 10V0C235.997 0 231.52 4.47715 231.52 10L241.52 10ZM226.996 33.1602H236.996C236.996 27.6373 232.519 23.1602 226.996 23.1602V33.1602ZM226.996 36.168H216.996C216.996 41.6908 221.473 46.168 226.996 46.168V36.168ZM241.562 36.168V46.168C247.085 46.168 251.562 41.6908 251.562 36.168H241.562ZM241.562 33.1602V23.1602C236.04 23.1602 231.562 27.6373 231.562 33.1602H241.562ZM248.438 33.1602H258.438C258.438 27.6373 253.96 23.1602 248.438 23.1602V33.1602ZM248.438 49.4023V59.4023C253.96 59.4023 258.438 54.9252 258.438 49.4023H248.438ZM220.207 49.4023H210.207C210.207 54.9252 214.684 59.4023 220.207 59.4023V49.4023ZM220.207 33.1602V23.1602C214.684 23.1602 210.207 27.6373 210.207 33.1602H220.207ZM226.996 43.9023H216.996C216.996 49.4252 221.473 53.9023 226.996 53.9023V43.9023ZM241.562 43.9023V53.9023C247.085 53.9023 251.562 49.4252 251.562 43.9023H241.562ZM241.562 41.4102H251.562C251.562 35.8873 247.085 31.4102 241.562 31.4102V41.4102ZM226.996 41.4102V31.4102C221.473 31.4102 216.996 35.8873 216.996 41.4102H226.996ZM224.891 12.75L234.89 12.8099C234.891 12.7899 234.891 12.77 234.891 12.75H224.891ZM226.867 22.9766L218.158 27.891C219.929 31.0295 223.252 32.9723 226.855 32.9766C230.459 32.9808 233.786 31.0457 235.565 27.9114L226.867 22.9766ZM228.93 12.75L238.93 12.8102C238.93 12.7902 238.93 12.7701 238.93 12.75H228.93ZM228.93 11.7187V1.71875C223.407 1.71875 218.93 6.1959 218.93 11.7187H228.93ZM235.332 11.7187L245.332 11.7187C245.332 6.1959 240.855 1.71875 235.332 1.71875V11.7187ZM240.961 26.1992L248.91 32.266C250.605 30.0458 251.293 27.2183 250.81 24.4677C250.326 21.7171 248.715 19.2941 246.365 17.7849L240.961 26.1992ZM237.223 31.0977L231.929 39.5817C236.306 42.3127 242.042 41.2656 245.172 37.1644L237.223 31.0977ZM232.109 24.3945L241.545 21.0814C240.13 17.0517 236.311 14.3654 232.041 14.3948C227.77 14.4241 223.989 17.1627 222.629 21.2115L232.109 24.3945ZM226.953 31.4844L221.647 39.9605C224.909 42.0024 229.053 41.9915 232.304 39.9326L226.953 31.4844ZM221.711 24.3516L231.218 21.2514C229.895 17.1949 226.145 14.4246 221.879 14.353C217.613 14.2814 213.771 16.9244 212.313 20.9341L221.711 24.3516ZM216.598 31.0977L208.648 37.1644C211.787 41.2774 217.545 42.3169 221.924 39.5612L216.598 31.0977ZM212.859 26.1992L207.456 17.7849C205.106 19.2941 203.494 21.7171 203.01 24.4677C202.527 27.2183 203.216 30.0458 204.91 32.266L212.859 26.1992ZM218.402 11.7187V1.71875C212.88 1.71875 208.402 6.1959 208.402 11.7187H218.402ZM224.891 11.7187H234.891C234.891 6.1959 230.413 1.71875 224.891 1.71875V11.7187ZM248.438 10H238.438V31.6133H248.438H258.438V10H248.438ZM248.438 31.6133V21.6133H241.52V31.6133V41.6133H248.438V31.6133ZM241.52 31.6133H251.52V10H241.52L231.52 10V31.6133H241.52ZM241.52 10V20H248.438V10V0L241.52 0V10ZM226.996 33.1602H216.996V36.168H226.996H236.996V33.1602H226.996ZM226.996 36.168V46.168H241.562V36.168V26.168H226.996V36.168ZM241.562 36.168H251.562V33.1602H241.562H231.562V36.168H241.562ZM241.562 33.1602V43.1602H248.438V33.1602V23.1602H241.562V33.1602ZM248.438 33.1602H238.438V49.4023H248.438H258.438V33.1602H248.438ZM248.438 49.4023V39.4023H220.207V49.4023V59.4023H248.438V49.4023ZM220.207 49.4023H230.207V33.1602H220.207H210.207V49.4023H220.207ZM220.207 33.1602V43.1602H226.996V33.1602V23.1602H220.207V33.1602ZM226.996 43.9023V53.9023H241.562V43.9023V33.9023H226.996V43.9023ZM241.562 43.9023H251.562V41.4102H241.562H231.562V43.9023H241.562ZM241.562 41.4102V31.4102H226.996V41.4102V51.4102H241.562V41.4102ZM226.996 41.4102H216.996V43.9023H226.996H236.996V41.4102H226.996ZM224.891 12.75L214.891 12.6901C214.868 16.5519 215.094 22.461 218.158 27.891L226.867 22.9766L235.576 18.0621C235.246 17.4765 234.871 16.1239 234.89 12.8099L224.891 12.75ZM226.867 22.9766L235.565 27.9114C238.635 22.4992 238.907 16.6221 238.93 12.8102L228.93 12.75L218.93 12.6898C218.91 16.0107 218.536 17.3953 218.17 18.0418L226.867 22.9766ZM228.93 12.75H238.93V11.7187L228.93 11.7187H218.93V12.75H228.93ZM228.93 11.7187V21.7187H235.332V11.7187V1.71875H228.93V11.7187ZM235.332 11.7187H225.332V12.75H235.332H245.332V11.7187L235.332 11.7187ZM235.332 12.75H225.332C225.332 18.7148 226.275 28.6525 235.557 34.6135L240.961 26.1992L246.365 17.7849C246.175 17.6633 246.108 17.5811 246.074 17.5365C246.031 17.4792 245.932 17.3318 245.816 17.0063C245.548 16.2474 245.332 14.9484 245.332 12.75H235.332ZM240.961 26.1992L233.011 20.1325L229.273 25.0309L237.223 31.0977L245.172 37.1644L248.91 32.266L240.961 26.1992ZM237.223 31.0977L242.516 22.6136C242.355 22.5133 242.237 22.4053 242.112 22.2378C241.972 22.0498 241.762 21.6996 241.545 21.0814L232.109 24.3945L222.674 27.7077C224.244 32.1782 227.09 36.5625 231.929 39.5817L237.223 31.0977ZM232.109 24.3945L222.629 21.2115C222.372 21.9788 222.121 22.4323 221.945 22.6828C221.789 22.9045 221.681 22.9865 221.603 23.0362L226.953 31.4844L232.304 39.9326C237.405 36.7017 240.125 31.939 241.589 27.5776L232.109 24.3945ZM226.953 31.4844L232.259 23.0083C232.119 22.9202 231.994 22.8113 231.847 22.6056C231.682 22.3743 231.449 21.9577 231.218 21.2514L221.711 24.3516L212.204 27.4518C213.691 32.0143 216.519 36.7502 221.647 39.9605L226.953 31.4844ZM221.711 24.3516L212.313 20.9341C212.056 21.6407 211.816 22.0448 211.654 22.2641C211.511 22.4581 211.396 22.5557 211.271 22.6341L216.598 31.0977L221.924 39.5612C226.781 36.5045 229.541 32.081 231.109 27.769L221.711 24.3516ZM216.598 31.0977L224.547 25.0309L220.809 20.1325L212.859 26.1992L204.91 32.266L208.648 37.1644L216.598 31.0977ZM212.859 26.1992L218.263 34.6135C227.605 28.6139 228.402 18.6678 228.402 12.75H218.402H208.402C208.402 15.0701 208.194 16.3646 207.938 17.1028C207.832 17.4094 207.746 17.5307 207.721 17.564C207.705 17.5848 207.651 17.6596 207.456 17.7849L212.859 26.1992ZM218.402 12.75H228.402V11.7187H218.402H208.402V12.75H218.402ZM218.402 11.7187V21.7187H224.891V11.7187V1.71875L218.402 1.71875V11.7187ZM224.891 11.7187H214.891V12.75H224.891H234.891V11.7187H224.891ZM284.188 20.0977H294.188C294.188 14.5748 289.71 10.0977 284.188 10.0977V20.0977ZM284.188 25.4258V35.4258C289.71 35.4258 294.188 30.9486 294.188 25.4258H284.188ZM256.086 25.4258H246.086C246.086 30.9486 250.563 35.4258 256.086 35.4258V25.4258ZM256.086 11.418V1.41797C250.563 1.41797 246.086 5.89512 246.086 11.418H256.086ZM262.961 11.418H272.961C272.961 5.89512 268.484 1.41797 262.961 1.41797V11.418ZM262.961 20.0977H252.961C252.961 25.6205 257.438 30.0977 262.961 30.0977V20.0977ZM288.098 28.9492H298.098C298.098 23.4264 293.621 18.9492 288.098 18.9492V28.9492ZM288.098 34.2773V44.2773C293.621 44.2773 298.098 39.8002 298.098 34.2773H288.098ZM251.832 34.2773H241.832C241.832 39.8002 246.309 44.2773 251.832 44.2773V34.2773ZM251.832 28.9492V18.9492C246.309 18.9492 241.832 23.4264 241.832 28.9492H251.832ZM284.445 43.4727H294.445C294.445 37.9498 289.968 33.4727 284.445 33.4727V43.4727ZM284.445 48.9727V58.9727C289.968 58.9727 294.445 54.4955 294.445 48.9727H284.445ZM255.613 48.9727H245.613C245.613 54.4955 250.09 58.9727 255.613 58.9727V48.9727ZM255.613 37.0273V27.0273C250.09 27.0273 245.613 31.5045 245.613 37.0273H255.613ZM262.574 37.0273H272.574C272.574 31.5045 268.097 27.0273 262.574 27.0273V37.0273ZM262.574 43.4727H252.574C252.574 48.9955 257.051 53.4727 262.574 53.4727V43.4727ZM284.188 20.0977H274.188V25.4258H284.188H294.188V20.0977H284.188ZM284.188 25.4258V15.4258H256.086V25.4258V35.4258H284.188V25.4258ZM256.086 25.4258H266.086V11.418H256.086H246.086V25.4258H256.086ZM256.086 11.418V21.418H262.961V11.418V1.41797H256.086V11.418ZM262.961 11.418H252.961V20.0977H262.961H272.961V11.418H262.961ZM262.961 20.0977V30.0977H284.188V20.0977V10.0977H262.961V20.0977ZM288.098 28.9492H278.098V34.2773H288.098H298.098V28.9492H288.098ZM288.098 34.2773V24.2773H251.832V34.2773V44.2773H288.098V34.2773ZM251.832 34.2773H261.832V28.9492H251.832H241.832V34.2773H251.832ZM251.832 28.9492V38.9492H288.098V28.9492V18.9492H251.832V28.9492ZM284.445 43.4727H274.445V48.9727H284.445H294.445V43.4727H284.445ZM284.445 48.9727V38.9727H255.613V48.9727V58.9727H284.445V48.9727ZM255.613 48.9727H265.613V37.0273H255.613H245.613V48.9727H255.613ZM255.613 37.0273V47.0273H262.574V37.0273V27.0273H255.613V37.0273ZM262.574 37.0273H252.574V43.4727H262.574H272.574V37.0273H262.574ZM262.574 43.4727V53.4727H284.445V43.4727V33.4727H262.574V43.4727Z" fill="white" mask="url(#path-1-outside-1_6526_5713)"/>
</g>
<defs>
<filter id="filter0_d_6526_5713" x="0" y="0" width="302.098" height="67.7461" filterUnits="userSpaceOnUse" color-interpolation-filters="sRGB">
<feFlood flood-opacity="0" result="BackgroundImageFix"/>
<feColorMatrix in="SourceAlpha" type="matrix" values="0 0 0 0 0 0 0 0 0 0 0 0 0 0 0 0 0 0 127 0" result="hardAlpha"/>
<feOffset dy="4"/>
<feGaussianBlur stdDeviation="2"/>
<feComposite in2="hardAlpha" operator="out"/>
<feColorMatrix type="matrix" values="0 0 0 0 0 0 0 0 0 0 0 0 0 0 0 0 0 0 0.07 0"/>
<feBlend mode="normal" in2="BackgroundImageFix" result="effect1_dropShadow_6526_5713"/>
<feBlend mode="normal" in="SourceGraphic" in2="effect1_dropShadow_6526_5713" result="shape"/>
</filter>
</defs>
</svg>
