<svg width="313" height="68" viewBox="0 0 313 68" fill="none" xmlns="http://www.w3.org/2000/svg">
<g filter="url(#filter0_d_6524_1863)">
<mask id="path-1-outside-1_6524_1863" maskUnits="userSpaceOnUse" x="3.14062" y="-0.378906" width="305" height="61" fill="black">
<rect fill="white" x="3.14062" y="-0.378906" width="305" height="61"/>
<path d="M45.8398 10.1289V19.4531H50.7812V25.168H45.8398V34.1484H38.9219V10.1289L45.8398 10.1289ZM45.8398 35.5234V49.5312H19.3281V35.5234H45.8398ZM26.1172 40.8945V44.0312H39.0508V40.8945H26.1172ZM37.5039 13.3516V18.7227H14V13.3516H22.293V10H29.2109V13.3516H37.5039ZM25.7305 19.4531C31.5742 19.4531 35.6562 22.418 35.6562 26.6289C35.6562 30.8828 31.5312 33.8477 25.7305 33.8477C19.8438 33.8477 15.7188 30.8828 15.7188 26.6289C15.7188 22.418 19.8438 19.4531 25.7305 19.4531ZM25.7305 24.5664C23.7539 24.5664 22.4648 25.168 22.4648 26.6289C22.4648 28.1758 23.7539 28.8633 25.7305 28.8203C27.75 28.8633 29.125 28.1758 29.125 26.6289C29.125 25.168 27.75 24.5664 25.7305 24.5664ZM61.7812 14.5547C61.7383 25.4688 60.8789 34.0625 56.3242 42.0117L50.9961 39.2617C54.5625 33.1387 55.5938 27.8105 55.8516 20.0117H52.6289V14.5547H61.7812ZM70.7188 14.5547C70.7188 18.0996 70.6543 21.4512 70.4609 24.6094H72.6953V10.9453H79.0977V48.2852H72.6953V30.0664H69.8594C69.0645 34.9004 67.6895 39.3477 65.2188 43.6016L60.0195 40.8086C63.8652 34.1699 64.7031 28.3047 64.918 20.0117H62.8555V14.5547H70.7188ZM87.2188 10.1289V49.875H80.6016V10.1289H87.2188ZM110.98 11.1602C117.125 11.1172 121.809 15.0273 121.809 20.3984C121.809 25.7266 117.125 29.5938 110.98 29.5938C104.793 29.5938 100.066 25.7266 100.109 20.3984C100.066 15.0273 104.793 11.1172 110.98 11.1602ZM110.98 16.7031C108.531 16.7461 106.727 17.9062 106.77 20.3984C106.727 22.8477 108.531 24.0937 110.98 24.0937C113.43 24.0937 115.148 22.8477 115.148 20.3984C115.148 17.9062 113.43 16.7461 110.98 16.7031ZM133.195 10.1289V29.7656H126.277V10.1289H133.195ZM133.195 31.2266V42.7852H112.871V44.1602H134.055V49.5312H106.125V37.8438H126.32V36.4688H106.039V31.2266H133.195ZM169.418 10.1289V25.2109H174.789V30.8398H169.418V49.875H162.586V10.1289H169.418ZM160.652 15.8008V21.2578H137.492V15.8008H145.699V10.8594H152.574V15.8008H160.652ZM149.137 22.8047C155.023 22.8047 159.535 26.8437 159.535 32.4727C159.535 38.1445 155.023 42.1836 149.137 42.1836C143.121 42.1836 138.695 38.1445 138.695 32.4727C138.695 26.8437 143.121 22.8047 149.137 22.8047ZM149.137 28.3477C146.902 28.3477 145.27 29.8086 145.312 32.4727C145.27 35.2656 146.902 36.5977 149.137 36.5977C151.328 36.5977 152.918 35.2656 152.918 32.4727C152.918 29.8086 151.328 28.3477 149.137 28.3477ZM209.465 10.1289V49.875H202.461V10.1289H209.465ZM197.434 14.2109C197.434 26.6719 193.91 36.5977 179.172 43.4727L175.648 38.0586C185.574 33.332 189.549 27.875 190.43 19.582H177.926V14.2109H197.434ZM257.16 10.1289V39.2187H250.285V30.5391H246.418V24.9102H250.285V22.2461H246.418V16.7891H250.285V10.1289H257.16ZM245.43 12.75V18.207H242.68V29.0781L245.559 28.8203L245.859 33.8047C238.598 35.0078 230.133 35.2227 223.945 35.1797L223.301 29.6367H226.91V18.207H224.246V12.75H245.43ZM258.02 43.8164V49.3164H230.219V37.1992H237.18V43.8164H258.02ZM233.57 29.5078L236.105 29.4648V18.207H233.57V29.5078ZM293.168 10.2148V21.8164H298.109V27.4023H293.168V39.8203H286.25V10.2148H293.168ZM284.832 13.9531V19.2812H261.328V13.9531H269.621V10.1289H276.539V13.9531H284.832ZM273.059 20.1836C278.859 20.1836 282.984 23.4062 282.984 28.0469C282.984 32.6875 278.859 35.8242 273.059 35.7812C267.215 35.8242 263.047 32.6875 263.047 28.0469C263.047 23.4062 267.215 20.1836 273.059 20.1836ZM273.059 25.3828C271.082 25.4258 269.793 26.2422 269.793 28.0469C269.793 29.8516 271.082 30.625 273.059 30.625C275.078 30.625 276.453 29.8516 276.453 28.0469C276.453 26.2422 275.078 25.4258 273.059 25.3828ZM294.328 43.8164V49.3164H266.828V37.5859H273.746V43.8164H294.328Z"/>
</mask>
<path d="M45.8398 10.1289V19.4531H50.7812V25.168H45.8398V34.1484H38.9219V10.1289L45.8398 10.1289ZM45.8398 35.5234V49.5312H19.3281V35.5234H45.8398ZM26.1172 40.8945V44.0312H39.0508V40.8945H26.1172ZM37.5039 13.3516V18.7227H14V13.3516H22.293V10H29.2109V13.3516H37.5039ZM25.7305 19.4531C31.5742 19.4531 35.6562 22.418 35.6562 26.6289C35.6562 30.8828 31.5312 33.8477 25.7305 33.8477C19.8438 33.8477 15.7188 30.8828 15.7188 26.6289C15.7188 22.418 19.8438 19.4531 25.7305 19.4531ZM25.7305 24.5664C23.7539 24.5664 22.4648 25.168 22.4648 26.6289C22.4648 28.1758 23.7539 28.8633 25.7305 28.8203C27.75 28.8633 29.125 28.1758 29.125 26.6289C29.125 25.168 27.75 24.5664 25.7305 24.5664ZM61.7812 14.5547C61.7383 25.4688 60.8789 34.0625 56.3242 42.0117L50.9961 39.2617C54.5625 33.1387 55.5938 27.8105 55.8516 20.0117H52.6289V14.5547H61.7812ZM70.7188 14.5547C70.7188 18.0996 70.6543 21.4512 70.4609 24.6094H72.6953V10.9453H79.0977V48.2852H72.6953V30.0664H69.8594C69.0645 34.9004 67.6895 39.3477 65.2188 43.6016L60.0195 40.8086C63.8652 34.1699 64.7031 28.3047 64.918 20.0117H62.8555V14.5547H70.7188ZM87.2188 10.1289V49.875H80.6016V10.1289H87.2188ZM110.98 11.1602C117.125 11.1172 121.809 15.0273 121.809 20.3984C121.809 25.7266 117.125 29.5938 110.98 29.5938C104.793 29.5938 100.066 25.7266 100.109 20.3984C100.066 15.0273 104.793 11.1172 110.98 11.1602ZM110.98 16.7031C108.531 16.7461 106.727 17.9062 106.77 20.3984C106.727 22.8477 108.531 24.0937 110.98 24.0937C113.43 24.0937 115.148 22.8477 115.148 20.3984C115.148 17.9062 113.43 16.7461 110.98 16.7031ZM133.195 10.1289V29.7656H126.277V10.1289H133.195ZM133.195 31.2266V42.7852H112.871V44.1602H134.055V49.5312H106.125V37.8438H126.32V36.4688H106.039V31.2266H133.195ZM169.418 10.1289V25.2109H174.789V30.8398H169.418V49.875H162.586V10.1289H169.418ZM160.652 15.8008V21.2578H137.492V15.8008H145.699V10.8594H152.574V15.8008H160.652ZM149.137 22.8047C155.023 22.8047 159.535 26.8437 159.535 32.4727C159.535 38.1445 155.023 42.1836 149.137 42.1836C143.121 42.1836 138.695 38.1445 138.695 32.4727C138.695 26.8437 143.121 22.8047 149.137 22.8047ZM149.137 28.3477C146.902 28.3477 145.27 29.8086 145.312 32.4727C145.27 35.2656 146.902 36.5977 149.137 36.5977C151.328 36.5977 152.918 35.2656 152.918 32.4727C152.918 29.8086 151.328 28.3477 149.137 28.3477ZM209.465 10.1289V49.875H202.461V10.1289H209.465ZM197.434 14.2109C197.434 26.6719 193.91 36.5977 179.172 43.4727L175.648 38.0586C185.574 33.332 189.549 27.875 190.43 19.582H177.926V14.2109H197.434ZM257.16 10.1289V39.2187H250.285V30.5391H246.418V24.9102H250.285V22.2461H246.418V16.7891H250.285V10.1289H257.16ZM245.43 12.75V18.207H242.68V29.0781L245.559 28.8203L245.859 33.8047C238.598 35.0078 230.133 35.2227 223.945 35.1797L223.301 29.6367H226.91V18.207H224.246V12.75H245.43ZM258.02 43.8164V49.3164H230.219V37.1992H237.18V43.8164H258.02ZM233.57 29.5078L236.105 29.4648V18.207H233.57V29.5078ZM293.168 10.2148V21.8164H298.109V27.4023H293.168V39.8203H286.25V10.2148H293.168ZM284.832 13.9531V19.2812H261.328V13.9531H269.621V10.1289H276.539V13.9531H284.832ZM273.059 20.1836C278.859 20.1836 282.984 23.4062 282.984 28.0469C282.984 32.6875 278.859 35.8242 273.059 35.7812C267.215 35.8242 263.047 32.6875 263.047 28.0469C263.047 23.4062 267.215 20.1836 273.059 20.1836ZM273.059 25.3828C271.082 25.4258 269.793 26.2422 269.793 28.0469C269.793 29.8516 271.082 30.625 273.059 30.625C275.078 30.625 276.453 29.8516 276.453 28.0469C276.453 26.2422 275.078 25.4258 273.059 25.3828ZM294.328 43.8164V49.3164H266.828V37.5859H273.746V43.8164H294.328Z" fill="#11DCA9"/>
<path d="M45.8398 10.1289H55.8398C55.8398 4.60606 51.3627 0.128906 45.8398 0.128906V10.1289ZM45.8398 19.4531H35.8398C35.8398 24.976 40.317 29.4531 45.8398 29.4531V19.4531ZM50.7812 19.4531H60.7812C60.7812 13.9303 56.3041 9.45312 50.7812 9.45312V19.4531ZM50.7812 25.168V35.168C56.3041 35.168 60.7812 30.6908 60.7812 25.168H50.7812ZM45.8398 25.168V15.168C40.317 15.168 35.8398 19.6451 35.8398 25.168H45.8398ZM45.8398 34.1484V44.1484C51.3627 44.1484 55.8398 39.6713 55.8398 34.1484H45.8398ZM38.9219 34.1484H28.9219C28.9219 39.6713 33.399 44.1484 38.9219 44.1484V34.1484ZM38.9219 10.1289V0.128906C33.399 0.128906 28.9219 4.60606 28.9219 10.1289H38.9219ZM45.8398 35.5234H55.8398C55.8398 30.0006 51.3627 25.5234 45.8398 25.5234V35.5234ZM45.8398 49.5312V59.5312C51.3627 59.5312 55.8398 55.0541 55.8398 49.5312H45.8398ZM19.3281 49.5312H9.32813C9.32813 55.0541 13.8053 59.5312 19.3281 59.5312V49.5312ZM19.3281 35.5234V25.5234C13.8053 25.5234 9.32812 30.0006 9.32812 35.5234H19.3281ZM26.1172 40.8945V30.8945C20.5943 30.8945 16.1172 35.3717 16.1172 40.8945H26.1172ZM26.1172 44.0312H16.1172C16.1172 49.5541 20.5943 54.0312 26.1172 54.0312V44.0312ZM39.0508 44.0312V54.0312C44.5736 54.0312 49.0508 49.5541 49.0508 44.0312H39.0508ZM39.0508 40.8945H49.0508C49.0508 35.3717 44.5736 30.8945 39.0508 30.8945V40.8945ZM37.5039 13.3516H47.5039C47.5039 7.82872 43.0268 3.35156 37.5039 3.35156V13.3516ZM37.5039 18.7227V28.7227C43.0268 28.7227 47.5039 24.2455 47.5039 18.7227H37.5039ZM14 18.7227H4C4 24.2455 8.47715 28.7227 14 28.7227V18.7227ZM14 13.3516V3.35156C8.47715 3.35156 4 7.82872 4 13.3516H14ZM22.293 13.3516V23.3516C27.8158 23.3516 32.293 18.8744 32.293 13.3516H22.293ZM22.293 10V0C16.7701 0 12.293 4.47715 12.293 10H22.293ZM29.2109 10H39.2109C39.2109 4.47715 34.7338 0 29.2109 0V10ZM29.2109 13.3516H19.2109C19.2109 18.8744 23.6881 23.3516 29.2109 23.3516V13.3516ZM25.7305 28.8203L25.9432 18.8226C25.7998 18.8195 25.6565 18.8196 25.5131 18.8227L25.7305 28.8203ZM45.8398 10.1289L35.8398 10.1289V19.4531H45.8398H55.8398V10.1289H45.8398ZM45.8398 19.4531V29.4531H50.7812V19.4531V9.45312H45.8398V19.4531ZM50.7812 19.4531H40.7812V25.168H50.7812H60.7812V19.4531H50.7812ZM50.7812 25.168V15.168H45.8398V25.168V35.168H50.7812V25.168ZM45.8398 25.168H35.8398V34.1484H45.8398H55.8398V25.168H45.8398ZM45.8398 34.1484V24.1484H38.9219V34.1484V44.1484H45.8398V34.1484ZM38.9219 34.1484H48.9219V10.1289L38.9219 10.1289H28.9219V34.1484H38.9219ZM38.9219 10.1289V20.1289H45.8398V10.1289V0.128906H38.9219V10.1289ZM45.8398 35.5234H35.8398V49.5312H45.8398H55.8398V35.5234H45.8398ZM45.8398 49.5312V39.5312H19.3281V49.5312V59.5312H45.8398V49.5312ZM19.3281 49.5312H29.3281V35.5234H19.3281H9.32812L9.32813 49.5312H19.3281ZM19.3281 35.5234V45.5234H45.8398V35.5234V25.5234H19.3281V35.5234ZM26.1172 40.8945H16.1172V44.0312H26.1172H36.1172V40.8945H26.1172ZM26.1172 44.0312V54.0312H39.0508V44.0312V34.0312H26.1172V44.0312ZM39.0508 44.0312H49.0508V40.8945H39.0508H29.0508V44.0312H39.0508ZM39.0508 40.8945V30.8945H26.1172V40.8945V50.8945H39.0508V40.8945ZM37.5039 13.3516H27.5039V18.7227H37.5039H47.5039V13.3516H37.5039ZM37.5039 18.7227V8.72266H14V18.7227V28.7227H37.5039V18.7227ZM14 18.7227H24V13.3516H14H4V18.7227H14ZM14 13.3516V23.3516H22.293V13.3516V3.35156H14V13.3516ZM22.293 13.3516H32.293V10H22.293H12.293V13.3516H22.293ZM22.293 10V20H29.2109V10V0H22.293V10ZM29.2109 10H19.2109V13.3516H29.2109H39.2109V10H29.2109ZM29.2109 13.3516V23.3516H37.5039V13.3516V3.35156H29.2109V13.3516ZM25.7305 19.4531V29.4531C27.068 29.4531 27.3545 29.8037 27.0208 29.5621C26.8257 29.4209 26.4614 29.0948 26.1456 28.515C25.8167 27.9112 25.6562 27.2405 25.6562 26.6289H35.6562H45.6562C45.6562 20.927 42.7652 16.2693 38.7487 13.3617C34.9131 10.585 30.2367 9.45312 25.7305 9.45312V19.4531ZM35.6562 26.6289H25.6562C25.6562 26.0271 25.8145 25.3643 26.1398 24.7672C26.4518 24.1946 26.8106 23.8739 27.0002 23.7365C27.3224 23.503 27.034 23.8477 25.7305 23.8477V33.8477V43.8477C30.2277 43.8477 34.9022 42.7099 38.7371 39.9305C42.7522 37.0204 45.6562 32.355 45.6562 26.6289H35.6562ZM25.7305 33.8477V23.8477C24.3557 23.8477 24.0426 23.4894 24.3621 23.7196C24.5516 23.856 24.9148 24.1784 25.2309 24.7568C25.5603 25.3597 25.7188 26.0268 25.7188 26.6289H15.7188H5.71875C5.71875 32.3618 8.63003 37.0357 12.6721 39.9474C16.5258 42.7235 21.2185 43.8477 25.7305 43.8477V33.8477ZM15.7188 26.6289H25.7188C25.7188 27.2596 25.5516 27.943 25.2168 28.5514C24.8963 29.1341 24.531 29.4547 24.3458 29.5876C24.034 29.8112 24.3565 29.4531 25.7305 29.4531V19.4531V9.45312C21.2177 9.45312 16.5343 10.5775 12.6884 13.3363C8.66201 16.2245 5.71875 20.8831 5.71875 26.6289H15.7188ZM25.7305 24.5664V14.5664C24.0332 14.5664 21.1219 14.7719 18.3076 16.4179C14.7308 18.5101 12.4648 22.2782 12.4648 26.6289H22.4648H32.4648C32.4648 27.7769 32.1968 29.2418 31.3494 30.7042C30.5064 32.1589 29.3797 33.1117 28.4053 33.6817C27.4861 34.2193 26.7123 34.4166 26.3348 34.4916C26.1279 34.5327 25.9722 34.5504 25.8796 34.5583C25.7859 34.5664 25.7342 34.5664 25.7305 34.5664V24.5664ZM22.4648 26.6289H12.4648C12.4648 30.6955 14.4312 34.5095 18.0135 36.7738C20.9427 38.6252 24.0266 38.8597 25.9478 38.818L25.7305 28.8203L25.5131 18.8227C25.5961 18.8209 25.9197 18.8189 26.414 18.9213C26.9003 19.022 27.744 19.2639 28.6994 19.8678C29.708 20.5053 30.7501 21.4952 31.4985 22.8827C32.2405 24.2584 32.4648 25.5995 32.4648 26.6289H22.4648ZM25.7305 28.8203L25.5178 38.8181C27.4436 38.859 30.4637 38.6259 33.3527 36.8821C36.8887 34.7477 39.125 30.9743 39.125 26.6289H29.125H19.125C19.125 25.4913 19.392 24.0784 20.1923 22.6753C20.9881 21.2803 22.0574 20.339 23.0174 19.7595C23.9305 19.2084 24.718 18.9945 25.1517 18.9078C25.5977 18.8186 25.8811 18.8213 25.9432 18.8226L25.7305 28.8203ZM29.125 26.6289H39.125C39.125 21.9847 36.5593 18.2731 33.0615 16.3194C30.29 14.7713 27.4385 14.5664 25.7305 14.5664V24.5664V34.5664C26.0419 34.5664 24.8878 34.6623 23.3086 33.7802C22.3903 33.2673 21.2419 32.3672 20.3523 30.9154C19.443 29.4316 19.125 27.8937 19.125 26.6289H29.125ZM61.7812 14.5547L71.7812 14.5941C71.7916 11.9351 70.7427 9.38144 68.8662 7.49755C66.9897 5.61367 64.4402 4.55469 61.7812 4.55469V14.5547ZM56.3242 42.0117L51.7378 50.8979C56.494 53.3528 62.3399 51.6273 65.0009 46.9832L56.3242 42.0117ZM50.9961 39.2617L42.355 34.2287C40.9757 36.5968 40.6287 39.4273 41.3951 42.0585C42.1616 44.6897 43.9743 46.891 46.4097 48.1479L50.9961 39.2617ZM55.8516 20.0117L65.8461 20.3421C65.9356 17.6341 64.9225 15.0057 63.0385 13.0584C61.1545 11.1112 58.561 10.0117 55.8516 10.0117V20.0117ZM52.6289 20.0117H42.6289C42.6289 25.5346 47.1061 30.0117 52.6289 30.0117V20.0117ZM52.6289 14.5547V4.55469C47.1061 4.55469 42.6289 9.03184 42.6289 14.5547H52.6289ZM70.7188 14.5547L80.7188 14.5547C80.7188 9.03184 76.2416 4.55469 70.7188 4.55469V14.5547ZM70.4609 24.6094L60.4796 23.9983C60.3111 26.7514 61.2872 29.4519 63.177 31.461C65.0669 33.4701 67.7027 34.6094 70.4609 34.6094V24.6094ZM72.6953 24.6094V34.6094C78.2182 34.6094 82.6953 30.1322 82.6953 24.6094L72.6953 24.6094ZM72.6953 10.9453V0.945312C67.1725 0.945312 62.6953 5.42247 62.6953 10.9453H72.6953ZM79.0977 10.9453H89.0977C89.0977 5.42247 84.6205 0.945312 79.0977 0.945312V10.9453ZM79.0977 48.2852V58.2852C84.6205 58.2852 89.0977 53.808 89.0977 48.2852H79.0977ZM72.6953 48.2852H62.6953C62.6953 53.808 67.1725 58.2852 72.6953 58.2852V48.2852ZM72.6953 30.0664H82.6953C82.6953 24.5436 78.2182 20.0664 72.6953 20.0664V30.0664ZM69.8594 30.0664V20.0664C64.9628 20.0664 60.7864 23.6121 59.9919 28.4438L69.8594 30.0664ZM65.2188 43.6016L60.4864 52.4109C65.2378 54.9633 71.1572 53.2879 73.866 48.624L65.2188 43.6016ZM60.0195 40.8086L51.3665 35.796C50.0092 38.1391 49.6601 40.9324 50.3991 43.5375C51.138 46.1425 52.9018 48.3366 55.2872 49.618L60.0195 40.8086ZM64.918 20.0117L74.9146 20.2707C74.9845 17.5745 73.9623 14.9645 72.08 13.0328C70.1978 11.1012 67.615 10.0117 64.918 10.0117V20.0117ZM62.8555 20.0117H52.8555C52.8555 25.5346 57.3326 30.0117 62.8555 30.0117V20.0117ZM62.8555 14.5547V4.55469C57.3326 4.55469 52.8555 9.03184 52.8555 14.5547H62.8555ZM87.2188 10.1289H97.2188C97.2188 4.60606 92.7416 0.128906 87.2188 0.128906V10.1289ZM87.2188 49.875V59.875C92.7416 59.875 97.2188 55.3978 97.2188 49.875H87.2188ZM80.6016 49.875H70.6016C70.6016 55.3978 75.0787 59.875 80.6016 59.875V49.875ZM80.6016 10.1289V0.128906C75.0787 0.128906 70.6016 4.60606 70.6016 10.1289H80.6016ZM61.7812 14.5547L51.7813 14.5153C51.7396 25.125 50.8366 31.4744 47.6476 37.0402L56.3242 42.0117L65.0009 46.9832C70.9212 36.6506 71.737 25.8125 71.7812 14.5941L61.7812 14.5547ZM56.3242 42.0117L60.9106 33.1255L55.5825 30.3755L50.9961 39.2617L46.4097 48.1479L51.7378 50.8979L56.3242 42.0117ZM50.9961 39.2617L59.6372 44.2948C64.3217 36.2521 65.5559 29.1206 65.8461 20.3421L55.8516 20.0117L45.857 19.6813C45.6316 26.5005 44.8033 30.0252 42.355 34.2287L50.9961 39.2617ZM55.8516 20.0117V10.0117H52.6289V20.0117V30.0117H55.8516V20.0117ZM52.6289 20.0117H62.6289V14.5547H52.6289H42.6289V20.0117H52.6289ZM52.6289 14.5547V24.5547H61.7812V14.5547V4.55469L52.6289 4.55469V14.5547ZM70.7188 14.5547H60.7188C60.7188 17.9923 60.6558 21.1213 60.4796 23.9983L70.4609 24.6094L80.4422 25.2205C80.6528 21.781 80.7188 18.2069 80.7188 14.5547L70.7188 14.5547ZM70.4609 24.6094V34.6094H72.6953V24.6094V14.6094H70.4609V24.6094ZM72.6953 24.6094L82.6953 24.6094V10.9453H72.6953H62.6953V24.6094H72.6953ZM72.6953 10.9453V20.9453L79.0977 20.9453V10.9453V0.945312H72.6953V10.9453ZM79.0977 10.9453H69.0977V48.2852H79.0977H89.0977V10.9453H79.0977ZM79.0977 48.2852V38.2852H72.6953V48.2852V58.2852H79.0977V48.2852ZM72.6953 48.2852H82.6953V30.0664H72.6953H62.6953V48.2852H72.6953ZM72.6953 30.0664V20.0664H69.8594V30.0664V40.0664H72.6953V30.0664ZM69.8594 30.0664L59.9919 28.4438C59.3433 32.3881 58.2931 35.615 56.5715 38.5792L65.2188 43.6016L73.866 48.624C77.0858 43.0803 78.7856 37.4126 79.7268 31.6891L69.8594 30.0664ZM65.2188 43.6016L69.9511 34.7922L64.7518 31.9992L60.0195 40.8086L55.2872 49.618L60.4864 52.4109L65.2188 43.6016ZM60.0195 40.8086L68.6725 45.8212C73.74 37.0734 74.6819 29.253 74.9146 20.2707L64.918 20.0117L54.9213 19.7527C54.7243 27.3563 53.9905 31.2665 51.3665 35.796L60.0195 40.8086ZM64.918 20.0117V10.0117H62.8555V20.0117V30.0117H64.918V20.0117ZM62.8555 20.0117H72.8555V14.5547H62.8555H52.8555V20.0117H62.8555ZM62.8555 14.5547V24.5547H70.7188V14.5547V4.55469H62.8555V14.5547ZM87.2188 10.1289H77.2188V49.875H87.2188H97.2188V10.1289H87.2188ZM87.2188 49.875V39.875H80.6016V49.875V59.875H87.2188V49.875ZM80.6016 49.875H90.6016V10.1289H80.6016H70.6016V49.875H80.6016ZM80.6016 10.1289V20.1289H87.2188V10.1289V0.128906L80.6016 0.128906V10.1289ZM110.98 11.1602L110.911 21.1599C110.957 21.1602 111.004 21.1602 111.05 21.1599L110.98 11.1602ZM100.109 20.3984L110.109 20.4791C110.109 20.4255 110.109 20.372 110.109 20.3184L100.109 20.3984ZM110.98 16.7031L111.156 6.70466C111.039 6.70261 110.922 6.70261 110.805 6.70466L110.98 16.7031ZM106.77 20.3984L116.768 20.5738C116.77 20.4579 116.77 20.342 116.768 20.226L106.77 20.3984ZM133.195 10.1289H143.195C143.195 4.60606 138.718 0.128906 133.195 0.128906V10.1289ZM133.195 29.7656V39.7656C138.718 39.7656 143.195 35.2885 143.195 29.7656L133.195 29.7656ZM126.277 29.7656H116.277C116.277 35.2885 120.754 39.7656 126.277 39.7656V29.7656ZM126.277 10.1289V0.128906C120.754 0.128906 116.277 4.60606 116.277 10.1289H126.277ZM133.195 31.2266L143.195 31.2266C143.195 25.7037 138.718 21.2266 133.195 21.2266V31.2266ZM133.195 42.7852V52.7852C138.718 52.7852 143.195 48.308 143.195 42.7852L133.195 42.7852ZM112.871 42.7852V32.7852C107.348 32.7852 102.871 37.2623 102.871 42.7852H112.871ZM112.871 44.1602H102.871C102.871 49.683 107.348 54.1602 112.871 54.1602V44.1602ZM134.055 44.1602L144.055 44.1602C144.055 38.6373 139.578 34.1602 134.055 34.1602V44.1602ZM134.055 49.5312V59.5312C139.578 59.5312 144.055 55.0541 144.055 49.5312L134.055 49.5312ZM106.125 49.5312H96.125C96.125 55.0541 100.602 59.5312 106.125 59.5312V49.5312ZM106.125 37.8438V27.8437C100.602 27.8437 96.125 32.3209 96.125 37.8438H106.125ZM126.32 37.8438V47.8438C131.843 47.8438 136.32 43.3666 136.32 37.8438H126.32ZM126.32 36.4688H136.32C136.32 30.9459 131.843 26.4687 126.32 26.4687V36.4688ZM106.039 36.4688H96.0391C96.0391 41.9916 100.516 46.4688 106.039 46.4688V36.4688ZM106.039 31.2266V21.2266C100.516 21.2266 96.0391 25.7037 96.0391 31.2266H106.039ZM110.98 11.1602L111.05 21.1599C112.013 21.1532 112.323 21.4541 112.233 21.3773C112.184 21.3357 112.062 21.2128 111.956 20.9901C111.845 20.7569 111.809 20.5358 111.809 20.3984H121.809H131.809C131.809 8.04634 121.058 1.08944 110.911 1.1604L110.98 11.1602ZM121.809 20.3984H111.809C111.809 20.2369 111.851 19.9946 111.97 19.7463C112.084 19.5095 112.212 19.3834 112.257 19.345C112.336 19.2788 111.992 19.5937 110.98 19.5937V29.5938V39.5938C120.969 39.5938 131.809 32.7909 131.809 20.3984H121.809ZM110.98 29.5938V19.5937C109.925 19.5937 109.555 19.2658 109.629 19.3275C109.674 19.3655 109.812 19.499 109.935 19.7552C110.064 20.0243 110.111 20.2922 110.109 20.4791L100.109 20.3984L90.1097 20.3178C90.0085 32.8644 101.063 39.5938 110.98 39.5938V29.5938ZM100.109 20.3984L110.109 20.3184C110.11 20.481 110.07 20.7274 109.949 20.9813C109.834 21.2233 109.703 21.3536 109.654 21.3949C109.568 21.4672 109.905 21.1529 110.911 21.1599L110.98 11.1602L111.05 1.1604C100.972 1.09042 90.0096 7.97181 90.1097 20.4784L100.109 20.3984ZM110.98 16.7031L110.805 6.70466C108.227 6.7499 104.717 7.38288 101.66 9.85082C98.2334 12.6163 96.7028 16.6138 96.771 20.5708L106.77 20.3984L116.768 20.226C116.779 20.8328 116.679 21.7503 116.225 22.7874C115.76 23.8488 115.049 24.746 114.221 25.4138C112.667 26.6679 111.285 26.6993 111.156 26.7016L110.98 16.7031ZM106.77 20.3984L96.7711 20.223C96.7016 24.1824 98.2453 28.1419 101.593 30.8918C104.645 33.3986 108.202 34.0938 110.98 34.0938V24.0937V14.0937C111.31 14.0937 112.74 14.1659 114.288 15.4373C116.132 16.9518 116.794 19.0637 116.768 20.5738L106.77 20.3984ZM110.98 24.0937V34.0938C113.775 34.0938 117.355 33.3898 120.412 30.8238C123.72 28.0476 125.148 24.1511 125.148 20.3984H115.148H105.148C105.148 19.095 105.718 17.0462 107.554 15.5053C109.139 14.1746 110.636 14.0937 110.98 14.0937V24.0937ZM115.148 20.3984H125.148C125.148 16.6457 123.73 12.7095 120.346 9.9179C117.283 7.39119 113.749 6.75016 111.156 6.70466L110.98 16.7031L110.805 26.7016C110.661 26.6991 109.212 26.6596 107.62 25.3467C106.785 24.6581 106.105 23.7635 105.667 22.7536C105.242 21.774 105.148 20.9279 105.148 20.3984H115.148ZM133.195 10.1289H123.195V29.7656H133.195L143.195 29.7656V10.1289H133.195ZM133.195 29.7656V19.7656H126.277V29.7656V39.7656H133.195V29.7656ZM126.277 29.7656H136.277V10.1289H126.277H116.277V29.7656H126.277ZM126.277 10.1289V20.1289H133.195V10.1289V0.128906L126.277 0.128906V10.1289ZM133.195 31.2266H123.195V42.7852H133.195L143.195 42.7852V31.2266L133.195 31.2266ZM133.195 42.7852V32.7852H112.871V42.7852V52.7852H133.195V42.7852ZM112.871 42.7852H102.871V44.1602H112.871H122.871V42.7852H112.871ZM112.871 44.1602V54.1602H134.055V44.1602V34.1602H112.871V44.1602ZM134.055 44.1602H124.055V49.5312H134.055L144.055 49.5312V44.1602L134.055 44.1602ZM134.055 49.5312V39.5312H106.125V49.5312V59.5312H134.055V49.5312ZM106.125 49.5312H116.125V37.8438H106.125H96.125V49.5312H106.125ZM106.125 37.8438V47.8438H126.32V37.8438V27.8437H106.125V37.8438ZM126.32 37.8438H136.32V36.4688H126.32H116.32V37.8438H126.32ZM126.32 36.4688V26.4687H106.039V36.4688V46.4688H126.32V36.4688ZM106.039 36.4688H116.039V31.2266H106.039H96.0391V36.4688H106.039ZM106.039 31.2266V41.2266H133.195V31.2266V21.2266H106.039V31.2266ZM169.418 10.1289L179.418 10.1289C179.418 4.60606 174.941 0.128906 169.418 0.128906V10.1289ZM169.418 25.2109H159.418C159.418 30.7338 163.895 35.2109 169.418 35.2109V25.2109ZM174.789 25.2109H184.789C184.789 19.6881 180.312 15.2109 174.789 15.2109V25.2109ZM174.789 30.8398V40.8398C180.312 40.8398 184.789 36.3627 184.789 30.8398H174.789ZM169.418 30.8398V20.8398C163.895 20.8398 159.418 25.317 159.418 30.8398H169.418ZM169.418 49.875V59.875C174.941 59.875 179.418 55.3978 179.418 49.875H169.418ZM162.586 49.875H152.586C152.586 55.3978 157.063 59.875 162.586 59.875V49.875ZM162.586 10.1289V0.128906C157.063 0.128906 152.586 4.60606 152.586 10.1289H162.586ZM160.652 15.8008H170.652C170.652 10.2779 166.175 5.80078 160.652 5.80078V15.8008ZM160.652 21.2578V31.2578C166.175 31.2578 170.652 26.7807 170.652 21.2578H160.652ZM137.492 21.2578H127.492C127.492 26.7807 131.969 31.2578 137.492 31.2578V21.2578ZM137.492 15.8008V5.80078C131.969 5.80078 127.492 10.2779 127.492 15.8008H137.492ZM145.699 15.8008V25.8008C151.222 25.8008 155.699 21.3236 155.699 15.8008H145.699ZM145.699 10.8594V0.859375C140.176 0.859375 135.699 5.33653 135.699 10.8594H145.699ZM152.574 10.8594H162.574C162.574 5.33653 158.097 0.859375 152.574 0.859375V10.8594ZM152.574 15.8008H142.574C142.574 21.3236 147.051 25.8008 152.574 25.8008V15.8008ZM145.312 32.4727L155.311 32.6265C155.313 32.5215 155.313 32.4164 155.311 32.3114L145.312 32.4727ZM169.418 10.1289H159.418V25.2109H169.418H179.418V10.1289L169.418 10.1289ZM169.418 25.2109V35.2109H174.789V25.2109V15.2109H169.418V25.2109ZM174.789 25.2109H164.789V30.8398H174.789H184.789V25.2109H174.789ZM174.789 30.8398V20.8398H169.418V30.8398V40.8398H174.789V30.8398ZM169.418 30.8398H159.418V49.875H169.418H179.418V30.8398H169.418ZM169.418 49.875V39.875H162.586V49.875V59.875H169.418V49.875ZM162.586 49.875H172.586V10.1289H162.586H152.586V49.875H162.586ZM162.586 10.1289V20.1289H169.418V10.1289V0.128906L162.586 0.128906V10.1289ZM160.652 15.8008H150.652V21.2578H160.652H170.652V15.8008H160.652ZM160.652 21.2578V11.2578H137.492V21.2578V31.2578L160.652 31.2578V21.2578ZM137.492 21.2578H147.492V15.8008H137.492H127.492V21.2578H137.492ZM137.492 15.8008V25.8008H145.699V15.8008V5.80078H137.492V15.8008ZM145.699 15.8008H155.699V10.8594H145.699H135.699V15.8008H145.699ZM145.699 10.8594V20.8594H152.574V10.8594V0.859375H145.699V10.8594ZM152.574 10.8594H142.574V15.8008H152.574H162.574V10.8594H152.574ZM152.574 15.8008V25.8008H160.652V15.8008V5.80078H152.574V15.8008ZM149.137 22.8047V32.8047C149.463 32.8047 149.661 32.86 149.75 32.893C149.839 32.9263 149.832 32.9417 149.776 32.8897C149.716 32.8344 149.64 32.7395 149.585 32.6151C149.528 32.4859 149.535 32.4189 149.535 32.4727H159.535H169.535C169.535 20.5455 159.738 12.8047 149.137 12.8047V22.8047ZM159.535 32.4727H149.535C149.535 32.5477 149.524 32.4946 149.578 32.3724C149.629 32.2546 149.703 32.1606 149.764 32.1038C149.822 32.0503 149.831 32.064 149.745 32.0962C149.659 32.1283 149.463 32.1836 149.137 32.1836V42.1836V52.1836C159.768 52.1836 169.535 44.4146 169.535 32.4727H159.535ZM149.137 42.1836V32.1836C148.753 32.1836 148.531 32.12 148.443 32.0871C148.355 32.0546 148.376 32.0455 148.45 32.1136C148.527 32.1849 148.606 32.2914 148.659 32.412C148.712 32.5346 148.695 32.575 148.695 32.4727L138.695 32.4727H128.695C128.695 44.3886 138.348 52.1836 149.137 52.1836V42.1836ZM138.695 32.4727L148.695 32.4727C148.695 32.3914 148.708 32.4456 148.651 32.5754C148.596 32.7026 148.514 32.8102 148.439 32.8799C148.366 32.9464 148.347 32.9357 148.438 32.9021C148.53 32.8683 148.753 32.8047 149.137 32.8047V22.8047V12.8047C138.379 12.8047 128.695 20.5715 128.695 32.4727H138.695ZM149.137 28.3477V18.3477C145.823 18.3477 142.102 19.4707 139.217 22.4231C136.313 25.3958 135.258 29.1943 135.314 32.6339L145.312 32.4727L155.311 32.3114C155.324 33.087 155.064 34.823 153.524 36.3992C152.004 37.9551 150.216 38.3477 149.137 38.3477V28.3477ZM145.312 32.4727L135.314 32.3188C135.262 35.7025 136.25 39.604 139.3 42.6536C142.301 45.6554 146.07 46.5977 149.137 46.5977V36.5977V26.5977C149.969 26.5977 151.804 26.8739 153.442 28.5115C155.127 30.1967 155.32 32.0358 155.311 32.6265L145.312 32.4727ZM149.137 36.5977V46.5977C152.25 46.5977 156.007 45.6143 158.976 42.5972C161.949 39.5769 162.918 35.7552 162.918 32.4727H152.918H142.918C142.918 31.9831 143.092 30.2239 144.722 28.5678C146.349 26.915 148.215 26.5977 149.137 26.5977V36.5977ZM152.918 32.4727H162.918C162.918 29.142 161.889 25.4244 159.057 22.48C156.209 19.5175 152.501 18.3477 149.137 18.3477V28.3477V38.3477C147.964 38.3477 146.147 37.9082 144.641 36.3422C143.152 34.7944 142.918 33.1393 142.918 32.4727H152.918ZM209.465 10.1289H219.465C219.465 4.60606 214.988 0.128906 209.465 0.128906V10.1289ZM209.465 49.875V59.875C214.988 59.875 219.465 55.3978 219.465 49.875H209.465ZM202.461 49.875H192.461C192.461 55.3978 196.938 59.875 202.461 59.875V49.875ZM202.461 10.1289V0.128906C196.938 0.128906 192.461 4.60606 192.461 10.1289H202.461ZM197.434 14.2109L207.434 14.2109C207.434 8.68809 202.956 4.21094 197.434 4.21094V14.2109ZM179.172 43.4727L170.79 48.9272C173.508 53.1028 178.884 54.6412 183.399 52.5352L179.172 43.4727ZM175.648 38.0586L171.349 29.03C168.747 30.2693 166.805 32.5714 166.023 35.3458C165.241 38.1202 165.695 41.0972 167.267 43.5132L175.648 38.0586ZM190.43 19.582L200.374 20.6383C200.673 17.8181 199.761 15.0034 197.865 12.8948C195.968 10.7862 193.266 9.58203 190.43 9.58203V19.582ZM177.926 19.582H167.926C167.926 25.1049 172.403 29.582 177.926 29.582V19.582ZM177.926 14.2109V4.21094C172.403 4.21094 167.926 8.68809 167.926 14.2109H177.926ZM209.465 10.1289H199.465V49.875H209.465H219.465V10.1289H209.465ZM209.465 49.875V39.875H202.461V49.875V59.875H209.465V49.875ZM202.461 49.875H212.461V10.1289H202.461H192.461V49.875H202.461ZM202.461 10.1289V20.1289L209.465 20.1289V10.1289V0.128906H202.461V10.1289ZM197.434 14.2109H187.434C187.434 19.5855 186.655 23.2609 185.089 26.0777C183.607 28.7443 180.853 31.6541 174.944 34.4101L179.172 43.4727L183.399 52.5352C192.229 48.4162 198.606 42.9256 202.57 35.7954C206.45 28.8153 207.434 21.2973 207.434 14.2109L197.434 14.2109ZM179.172 43.4727L187.553 38.0181L184.03 32.604L175.648 38.0586L167.267 43.5132L170.79 48.9272L179.172 43.4727ZM175.648 38.0586L179.948 47.0872C185.727 44.335 190.675 40.9546 194.302 36.3259C198.04 31.5564 199.78 26.2271 200.374 20.6383L190.43 19.582L180.486 18.5258C180.198 21.2299 179.511 22.7757 178.56 23.9895C177.498 25.3443 175.495 27.0556 171.349 29.03L175.648 38.0586ZM190.43 19.582V9.58203H177.926V19.582V29.582H190.43V19.582ZM177.926 19.582H187.926V14.2109H177.926H167.926V19.582H177.926ZM177.926 14.2109V24.2109H197.434V14.2109V4.21094L177.926 4.21094V14.2109ZM257.16 10.1289H267.16C267.16 4.60606 262.683 0.128906 257.16 0.128906V10.1289ZM257.16 39.2187V49.2187C262.683 49.2187 267.16 44.7416 267.16 39.2187H257.16ZM250.285 39.2187H240.285C240.285 44.7416 244.762 49.2187 250.285 49.2187V39.2187ZM250.285 30.5391H260.285C260.285 25.0162 255.808 20.5391 250.285 20.5391V30.5391ZM246.418 30.5391H236.418C236.418 36.0619 240.895 40.5391 246.418 40.5391V30.5391ZM246.418 24.9102V14.9102C240.895 14.9102 236.418 19.3873 236.418 24.9102H246.418ZM250.285 24.9102V34.9102C255.808 34.9102 260.285 30.433 260.285 24.9102H250.285ZM250.285 22.2461H260.285C260.285 16.7232 255.808 12.2461 250.285 12.2461V22.2461ZM246.418 22.2461H236.418C236.418 27.7689 240.895 32.2461 246.418 32.2461V22.2461ZM246.418 16.7891V6.78906C240.895 6.78906 236.418 11.2662 236.418 16.7891H246.418ZM250.285 16.7891V26.7891C255.808 26.7891 260.285 22.3119 260.285 16.7891H250.285ZM250.285 10.1289V0.128906C244.762 0.128906 240.285 4.60606 240.285 10.1289H250.285ZM245.43 12.75H255.43C255.43 7.22715 250.953 2.75 245.43 2.75V12.75ZM245.43 18.207V28.207C250.953 28.207 255.43 23.7299 255.43 18.207H245.43ZM242.68 18.207V8.20703C237.157 8.20703 232.68 12.6842 232.68 18.207H242.68ZM242.68 29.0781H232.68C232.68 31.8854 233.86 34.5634 235.931 36.4578C238.003 38.3522 240.776 39.2887 243.572 39.0383L242.68 29.0781ZM245.559 28.8203L255.54 28.218C255.378 25.5203 254.13 23.0035 252.082 21.2406C250.033 19.4778 247.358 18.6191 244.667 18.8602L245.559 28.8203ZM245.859 33.8047L247.494 43.6702C252.546 42.8331 256.15 38.3143 255.841 33.2023L245.859 33.8047ZM223.945 35.1797L214.012 36.3347C214.595 41.3504 218.826 45.1444 223.876 45.1794L223.945 35.1797ZM223.301 29.6367V19.6367C220.447 19.6367 217.73 20.8556 215.833 22.9865C213.935 25.1175 213.038 27.9575 213.368 30.7917L223.301 29.6367ZM226.91 29.6367V39.6367C232.433 39.6367 236.91 35.1596 236.91 29.6367H226.91ZM226.91 18.207H236.91C236.91 12.6842 232.433 8.20703 226.91 8.20703V18.207ZM224.246 18.207H214.246C214.246 23.7299 218.723 28.207 224.246 28.207V18.207ZM224.246 12.75V2.75C218.723 2.75 214.246 7.22715 214.246 12.75H224.246ZM258.02 43.8164H268.02C268.02 38.2936 263.542 33.8164 258.02 33.8164V43.8164ZM258.02 49.3164V59.3164C263.542 59.3164 268.02 54.8393 268.02 49.3164H258.02ZM230.219 49.3164H220.219C220.219 54.8393 224.696 59.3164 230.219 59.3164V49.3164ZM230.219 37.1992V27.1992C224.696 27.1992 220.219 31.6764 220.219 37.1992H230.219ZM237.18 37.1992H247.18C247.18 31.6764 242.703 27.1992 237.18 27.1992V37.1992ZM237.18 43.8164H227.18C227.18 49.3393 231.657 53.8164 237.18 53.8164V43.8164ZM233.57 29.5078H223.57C223.57 32.1894 224.647 34.7585 226.559 36.6385C228.472 38.5185 231.059 39.5518 233.74 39.5064L233.57 29.5078ZM236.105 29.4648L236.275 39.4634C241.731 39.3709 246.105 34.9216 246.105 29.4648H236.105ZM236.105 18.207H246.105C246.105 12.6842 241.628 8.20703 236.105 8.20703V18.207ZM233.57 18.207V8.20703C228.047 8.20703 223.57 12.6842 223.57 18.207H233.57ZM257.16 10.1289H247.16V39.2187H257.16H267.16V10.1289H257.16ZM257.16 39.2187V29.2187H250.285V39.2187V49.2187H257.16V39.2187ZM250.285 39.2187H260.285V30.5391H250.285H240.285V39.2187H250.285ZM250.285 30.5391V20.5391H246.418V30.5391V40.5391H250.285V30.5391ZM246.418 30.5391H256.418V24.9102H246.418H236.418V30.5391H246.418ZM246.418 24.9102V34.9102H250.285V24.9102V14.9102H246.418V24.9102ZM250.285 24.9102H260.285V22.2461H250.285H240.285V24.9102H250.285ZM250.285 22.2461V12.2461H246.418V22.2461V32.2461H250.285V22.2461ZM246.418 22.2461H256.418V16.7891H246.418H236.418V22.2461H246.418ZM246.418 16.7891V26.7891H250.285V16.7891V6.78906H246.418V16.7891ZM250.285 16.7891H260.285V10.1289H250.285H240.285V16.7891H250.285ZM250.285 10.1289V20.1289H257.16V10.1289V0.128906H250.285V10.1289ZM245.43 12.75H235.43V18.207H245.43H255.43V12.75H245.43ZM245.43 18.207V8.20703H242.68V18.207V28.207H245.43V18.207ZM242.68 18.207H232.68V29.0781H242.68H252.68V18.207H242.68ZM242.68 29.0781L243.572 39.0383L246.451 38.7805L245.559 28.8203L244.667 18.8602L241.788 19.118L242.68 29.0781ZM245.559 28.8203L235.577 29.4227L235.878 34.407L245.859 33.8047L255.841 33.2023L255.54 28.218L245.559 28.8203ZM245.859 33.8047L244.225 23.9392C237.821 25.0002 230.038 25.2218 224.015 25.1799L223.945 35.1797L223.876 45.1794C230.228 45.2236 239.375 45.0154 247.494 43.6702L245.859 33.8047ZM223.945 35.1797L233.878 34.0247L233.234 28.4817L223.301 29.6367L213.368 30.7917L214.012 36.3347L223.945 35.1797ZM223.301 29.6367V39.6367H226.91V29.6367V19.6367H223.301V29.6367ZM226.91 29.6367H236.91V18.207H226.91H216.91V29.6367H226.91ZM226.91 18.207V8.20703H224.246V18.207V28.207H226.91V18.207ZM224.246 18.207H234.246V12.75H224.246H214.246V18.207H224.246ZM224.246 12.75V22.75H245.43V12.75V2.75H224.246V12.75ZM258.02 43.8164H248.02V49.3164H258.02H268.02V43.8164H258.02ZM258.02 49.3164V39.3164H230.219V49.3164V59.3164H258.02V49.3164ZM230.219 49.3164H240.219V37.1992H230.219H220.219V49.3164H230.219ZM230.219 37.1992V47.1992H237.18V37.1992V27.1992H230.219V37.1992ZM237.18 37.1992H227.18V43.8164H237.18H247.18V37.1992H237.18ZM237.18 43.8164V53.8164H258.02V43.8164V33.8164H237.18V43.8164ZM233.57 29.5078L233.74 39.5064L236.275 39.4634L236.105 29.4648L235.936 19.4663L233.401 19.5092L233.57 29.5078ZM236.105 29.4648H246.105V18.207H236.105H226.105V29.4648H236.105ZM236.105 18.207V8.20703H233.57V18.207V28.207H236.105V18.207ZM233.57 18.207H223.57V29.5078H233.57H243.57V18.207H233.57ZM293.168 10.2148L303.168 10.2148C303.168 4.692 298.691 0.214844 293.168 0.214844V10.2148ZM293.168 21.8164H283.168C283.168 27.3393 287.645 31.8164 293.168 31.8164V21.8164ZM298.109 21.8164H308.109C308.109 16.2936 303.632 11.8164 298.109 11.8164V21.8164ZM298.109 27.4023V37.4023C303.632 37.4023 308.109 32.9252 308.109 27.4023H298.109ZM293.168 27.4023V17.4023C287.645 17.4023 283.168 21.8795 283.168 27.4023H293.168ZM293.168 39.8203V49.8203C298.691 49.8203 303.168 45.3432 303.168 39.8203H293.168ZM286.25 39.8203H276.25C276.25 45.3432 280.727 49.8203 286.25 49.8203V39.8203ZM286.25 10.2148V0.214844C280.727 0.214844 276.25 4.692 276.25 10.2148H286.25ZM284.832 13.9531H294.832C294.832 8.43028 290.355 3.95312 284.832 3.95312V13.9531ZM284.832 19.2812V29.2812C290.355 29.2812 294.832 24.8041 294.832 19.2812H284.832ZM261.328 19.2812H251.328C251.328 24.8041 255.805 29.2812 261.328 29.2812V19.2812ZM261.328 13.9531V3.95312C255.805 3.95312 251.328 8.43028 251.328 13.9531H261.328ZM269.621 13.9531V23.9531C275.144 23.9531 279.621 19.476 279.621 13.9531H269.621ZM269.621 10.1289V0.128906C264.098 0.128906 259.621 4.60606 259.621 10.1289H269.621ZM276.539 10.1289H286.539C286.539 4.60606 282.062 0.128906 276.539 0.128906V10.1289ZM276.539 13.9531H266.539C266.539 19.476 271.016 23.9531 276.539 23.9531V13.9531ZM273.059 35.7812L273.133 25.7815C273.083 25.7812 273.034 25.7812 272.985 25.7815L273.059 35.7812ZM273.059 25.3828L273.271 15.3851C273.128 15.382 272.985 15.3821 272.841 15.3852L273.059 25.3828ZM294.328 43.8164H304.328C304.328 38.2936 299.851 33.8164 294.328 33.8164V43.8164ZM294.328 49.3164V59.3164C299.851 59.3164 304.328 54.8393 304.328 49.3164H294.328ZM266.828 49.3164H256.828C256.828 54.8393 261.305 59.3164 266.828 59.3164V49.3164ZM266.828 37.5859V27.5859C261.305 27.5859 256.828 32.0631 256.828 37.5859H266.828ZM273.746 37.5859H283.746C283.746 32.0631 279.269 27.5859 273.746 27.5859V37.5859ZM273.746 43.8164H263.746C263.746 49.3393 268.223 53.8164 273.746 53.8164V43.8164ZM293.168 10.2148H283.168V21.8164H293.168H303.168V10.2148L293.168 10.2148ZM293.168 21.8164V31.8164H298.109V21.8164V11.8164H293.168V21.8164ZM298.109 21.8164H288.109V27.4023H298.109H308.109V21.8164H298.109ZM298.109 27.4023V17.4023H293.168V27.4023V37.4023H298.109V27.4023ZM293.168 27.4023H283.168V39.8203H293.168H303.168V27.4023H293.168ZM293.168 39.8203V29.8203H286.25V39.8203V49.8203H293.168V39.8203ZM286.25 39.8203H296.25V10.2148H286.25H276.25V39.8203H286.25ZM286.25 10.2148V20.2148H293.168V10.2148V0.214844L286.25 0.214844V10.2148ZM284.832 13.9531H274.832V19.2812H284.832H294.832V13.9531H284.832ZM284.832 19.2812V9.28125H261.328V19.2812V29.2812H284.832V19.2812ZM261.328 19.2812H271.328V13.9531H261.328H251.328V19.2812H261.328ZM261.328 13.9531V23.9531H269.621V13.9531V3.95312H261.328V13.9531ZM269.621 13.9531H279.621V10.1289H269.621H259.621V13.9531H269.621ZM269.621 10.1289V20.1289H276.539V10.1289V0.128906H269.621V10.1289ZM276.539 10.1289H266.539V13.9531H276.539H286.539V10.1289H276.539ZM276.539 13.9531V23.9531H284.832V13.9531V3.95312H276.539V13.9531ZM273.059 20.1836V30.1836C274.183 30.1836 274.349 30.4987 274.003 30.2257C273.813 30.0764 273.532 29.7876 273.305 29.3326C273.072 28.8657 272.984 28.4018 272.984 28.0469H282.984H292.984C292.984 22.4859 290.406 17.6926 286.391 14.5243C282.532 11.4799 277.735 10.1836 273.059 10.1836V20.1836ZM282.984 28.0469H272.984C272.984 27.691 273.072 27.2082 273.321 26.7141C273.565 26.2317 273.868 25.9231 274.077 25.7613C274.456 25.4683 274.3 25.7902 273.133 25.7815L273.059 35.7812L272.985 45.781C277.618 45.8153 282.425 44.5903 286.316 41.5795C290.387 38.4296 292.984 33.6262 292.984 28.0469H282.984ZM273.059 35.7812L272.985 25.7815C271.78 25.7904 271.587 25.4596 271.946 25.7343C272.146 25.8881 272.451 26.1922 272.699 26.6789C272.954 27.1787 273.047 27.6738 273.047 28.0469H263.047H253.047C253.047 33.6672 255.691 38.4736 259.777 41.6065C263.68 44.599 268.494 45.8151 273.132 45.781L273.059 35.7812ZM263.047 28.0469H273.047C273.047 28.4189 272.955 28.8951 272.716 29.3677C272.484 29.8271 272.201 30.1117 272.021 30.2531C271.694 30.5082 271.895 30.1836 273.059 30.1836V20.1836V10.1836C264.124 10.1836 253.047 15.7314 253.047 28.0469H263.047ZM273.059 25.3828L272.841 15.3852C270.755 15.4305 267.529 15.8802 264.613 18.1085C261.232 20.6923 259.793 24.4775 259.793 28.0469H269.793H279.793C279.793 28.7914 279.657 29.8621 279.116 31.0425C278.559 32.2572 277.72 33.2635 276.756 33.9999C274.979 35.3581 273.386 35.3781 273.276 35.3805L273.059 25.3828ZM269.793 28.0469H259.793C259.793 31.6209 261.244 35.4815 264.758 38.0671C267.75 40.2685 271.021 40.625 273.059 40.625V30.625V20.625C273.119 20.625 274.758 20.5947 276.611 21.9583C277.626 22.7046 278.509 23.7388 279.093 24.9945C279.658 26.2094 279.793 27.3057 279.793 28.0469H269.793ZM273.059 30.625V40.625C275.09 40.625 278.298 40.2782 281.263 38.1946C284.789 35.7165 286.453 31.8671 286.453 28.0469H276.453H266.453C266.453 27.2154 266.617 26.051 267.233 24.7981C267.863 23.5172 268.782 22.5207 269.764 21.8308C271.536 20.5851 273.047 20.625 273.059 20.625V30.625ZM276.453 28.0469H286.453C286.453 24.2371 284.807 20.4566 281.408 17.9763C278.513 15.8636 275.347 15.4292 273.271 15.3851L273.059 25.3828L272.846 35.3806C272.79 35.3794 271.321 35.3747 269.618 34.1321C268.684 33.4499 267.81 32.4781 267.208 31.2376C266.618 30.0196 266.453 28.8813 266.453 28.0469H276.453ZM294.328 43.8164H284.328V49.3164H294.328H304.328V43.8164H294.328ZM294.328 49.3164V39.3164H266.828V49.3164V59.3164H294.328V49.3164ZM266.828 49.3164H276.828V37.5859H266.828H256.828V49.3164H266.828ZM266.828 37.5859V47.5859H273.746V37.5859V27.5859H266.828V37.5859ZM273.746 37.5859H263.746V43.8164H273.746H283.746V37.5859H273.746ZM273.746 43.8164V53.8164H294.328V43.8164V33.8164H273.746V43.8164Z" fill="white" mask="url(#path-1-outside-1_6524_1863)"/>
</g>
<defs>
<filter id="filter0_d_6524_1863" x="0" y="0" width="312.109" height="67.875" filterUnits="userSpaceOnUse" color-interpolation-filters="sRGB">
<feFlood flood-opacity="0" result="BackgroundImageFix"/>
<feColorMatrix in="SourceAlpha" type="matrix" values="0 0 0 0 0 0 0 0 0 0 0 0 0 0 0 0 0 0 127 0" result="hardAlpha"/>
<feOffset dy="4"/>
<feGaussianBlur stdDeviation="2"/>
<feComposite in2="hardAlpha" operator="out"/>
<feColorMatrix type="matrix" values="0 0 0 0 0 0 0 0 0 0 0 0 0 0 0 0 0 0 0.07 0"/>
<feBlend mode="normal" in2="BackgroundImageFix" result="effect1_dropShadow_6524_1863"/>
<feBlend mode="normal" in="SourceGraphic" in2="effect1_dropShadow_6524_1863" result="shape"/>
</filter>
</defs>
</svg>
