<svg width="350" height="68" viewBox="0 0 350 68" fill="none" xmlns="http://www.w3.org/2000/svg">
<g filter="url(#filter0_d_6524_1917)">
<mask id="path-1-outside-1_6524_1917" maskUnits="userSpaceOnUse" x="3.14062" y="-0.378906" width="343" height="61" fill="black">
<rect fill="white" x="3.14062" y="-0.378906" width="343" height="61"/>
<path d="M45.8398 10.1289V19.4531H50.7812V25.168H45.8398V34.1484H38.9219V10.1289L45.8398 10.1289ZM45.8398 35.5234V49.5312H19.3281V35.5234H45.8398ZM26.1172 40.8945V44.0312H39.0508V40.8945H26.1172ZM37.5039 13.3516V18.7227H14V13.3516H22.293V10H29.2109V13.3516H37.5039ZM25.7305 19.4531C31.5742 19.4531 35.6562 22.418 35.6562 26.6289C35.6562 30.8828 31.5312 33.8477 25.7305 33.8477C19.8438 33.8477 15.7188 30.8828 15.7188 26.6289C15.7188 22.418 19.8438 19.4531 25.7305 19.4531ZM25.7305 24.5664C23.7539 24.5664 22.4648 25.168 22.4648 26.6289C22.4648 28.1758 23.7539 28.8633 25.7305 28.8203C27.75 28.8633 29.125 28.1758 29.125 26.6289C29.125 25.168 27.75 24.5664 25.7305 24.5664ZM61.7812 14.5547C61.7383 25.4688 60.8789 34.0625 56.3242 42.0117L50.9961 39.2617C54.5625 33.1387 55.5938 27.8105 55.8516 20.0117H52.6289V14.5547H61.7812ZM70.7188 14.5547C70.7188 18.0996 70.6543 21.4512 70.4609 24.6094H72.6953V10.9453H79.0977V48.2852H72.6953V30.0664H69.8594C69.0645 34.9004 67.6895 39.3477 65.2188 43.6016L60.0195 40.8086C63.8652 34.1699 64.7031 28.3047 64.918 20.0117H62.8555V14.5547H70.7188ZM87.2188 10.1289V49.875H80.6016V10.1289H87.2188ZM115.535 15.0273C115.535 20.1406 117.426 24.9961 124.172 26.9727L120.562 32.3438C116.459 30.9902 113.795 28.5625 112.184 25.3828C110.422 29.1426 107.371 32.1074 102.73 33.5898L99.0781 28.0898C106.383 25.8984 108.531 20.5273 108.574 15.3711V12.1055L115.535 12.1055V15.0273ZM133.496 10.1289V33.2891H126.621V22.2461H120.09V16.6602H126.621V10.1289H133.496ZM119.66 34.2344C128.297 34.2344 133.582 37.1562 133.582 42.0977C133.582 47.082 128.297 49.9609 119.66 49.9609C111.109 49.9609 105.824 47.082 105.824 42.0977C105.824 37.1562 111.109 34.2344 119.66 34.2344ZM119.66 39.5195C114.934 39.5195 112.656 40.25 112.699 42.0977C112.656 43.8594 114.934 44.6328 119.66 44.6328C124.43 44.6328 126.75 43.8594 126.75 42.0977C126.75 40.25 124.43 39.5195 119.66 39.5195ZM160.395 12.6641V18.0781H153.176C153.541 21.9883 155.861 25.791 161.898 27.4883L158.676 32.8594C154.422 31.6562 151.564 29.293 149.824 26.2852C148.041 29.9375 145.012 32.8379 140.328 34.2773L136.848 28.9062C143.271 26.9082 145.656 22.418 146.086 18.0781H138.652V12.6641H160.395ZM169.504 10.1289V18.8086H174.445V24.3516H169.504V33.4609H162.586V10.1289H169.504ZM156.312 34.0625C164.648 34.0195 169.891 36.9844 169.891 41.9687C169.891 46.9531 164.648 49.9609 156.312 49.9609C147.762 49.9609 142.391 46.9531 142.434 41.9687C142.391 36.9844 147.762 34.0195 156.312 34.0625ZM156.312 39.3477C151.629 39.3477 149.309 40.0781 149.309 41.9687C149.309 43.8594 151.629 44.6328 156.312 44.6328C160.91 44.6328 163.059 43.8594 163.059 41.9687C163.059 40.0781 160.91 39.3477 156.312 39.3477ZM207.445 10.1289V25.2109H212.816V30.8398H207.445V49.875H200.613V10.1289H207.445ZM198.68 15.8008V21.2578H175.52V15.8008H183.727V10.8594H190.602V15.8008H198.68ZM187.164 22.8047C193.051 22.8047 197.562 26.8437 197.562 32.4727C197.562 38.1445 193.051 42.1836 187.164 42.1836C181.148 42.1836 176.723 38.1445 176.723 32.4727C176.723 26.8437 181.148 22.8047 187.164 22.8047ZM187.164 28.3477C184.93 28.3477 183.297 29.8086 183.34 32.4727C183.297 35.2656 184.93 36.5977 187.164 36.5977C189.355 36.5977 190.945 35.2656 190.945 32.4727C190.945 29.8086 189.355 28.3477 187.164 28.3477ZM248.438 10.1289V49.875H241.992V10.1289H248.438ZM239.93 10.9453V48.2852H233.527V30.2812H228.285C226.094 34.75 222.484 38.5957 216.77 41.8398L212.945 37.0273C220.572 32.5156 223.666 27.5312 224.461 20.1406H215.438V14.6836H231.25C231.25 18.3574 230.949 21.752 230.219 24.8672H233.527V10.9453L239.93 10.9453ZM293.082 10.1289V25.2109H298.453V30.8398H293.082V49.875H286.25V10.1289H293.082ZM284.316 15.8008V21.2578H261.156V15.8008H269.363V10.8594H276.238V15.8008H284.316ZM272.801 22.8047C278.688 22.8047 283.199 26.8437 283.199 32.4727C283.199 38.1445 278.688 42.1836 272.801 42.1836C266.785 42.1836 262.359 38.1445 262.359 32.4727C262.359 26.8437 266.785 22.8047 272.801 22.8047ZM272.801 28.3477C270.566 28.3477 268.934 29.8086 268.977 32.4727C268.934 35.2656 270.566 36.5977 272.801 36.5977C274.992 36.5977 276.582 35.2656 276.582 32.4727C276.582 29.8086 274.992 28.3477 272.801 28.3477ZM331.754 20.2266V25.5547H303.652V11.5469H310.527V20.2266H331.754ZM335.664 29.0781V34.4062H299.398V29.0781H335.664ZM332.012 43.6016V49.1016H303.18V37.1562H310.141V43.6016H332.012Z"/>
</mask>
<path d="M45.8398 10.1289V19.4531H50.7812V25.168H45.8398V34.1484H38.9219V10.1289L45.8398 10.1289ZM45.8398 35.5234V49.5312H19.3281V35.5234H45.8398ZM26.1172 40.8945V44.0312H39.0508V40.8945H26.1172ZM37.5039 13.3516V18.7227H14V13.3516H22.293V10H29.2109V13.3516H37.5039ZM25.7305 19.4531C31.5742 19.4531 35.6562 22.418 35.6562 26.6289C35.6562 30.8828 31.5312 33.8477 25.7305 33.8477C19.8438 33.8477 15.7188 30.8828 15.7188 26.6289C15.7188 22.418 19.8438 19.4531 25.7305 19.4531ZM25.7305 24.5664C23.7539 24.5664 22.4648 25.168 22.4648 26.6289C22.4648 28.1758 23.7539 28.8633 25.7305 28.8203C27.75 28.8633 29.125 28.1758 29.125 26.6289C29.125 25.168 27.75 24.5664 25.7305 24.5664ZM61.7812 14.5547C61.7383 25.4688 60.8789 34.0625 56.3242 42.0117L50.9961 39.2617C54.5625 33.1387 55.5938 27.8105 55.8516 20.0117H52.6289V14.5547H61.7812ZM70.7188 14.5547C70.7188 18.0996 70.6543 21.4512 70.4609 24.6094H72.6953V10.9453H79.0977V48.2852H72.6953V30.0664H69.8594C69.0645 34.9004 67.6895 39.3477 65.2188 43.6016L60.0195 40.8086C63.8652 34.1699 64.7031 28.3047 64.918 20.0117H62.8555V14.5547H70.7188ZM87.2188 10.1289V49.875H80.6016V10.1289H87.2188ZM115.535 15.0273C115.535 20.1406 117.426 24.9961 124.172 26.9727L120.562 32.3438C116.459 30.9902 113.795 28.5625 112.184 25.3828C110.422 29.1426 107.371 32.1074 102.73 33.5898L99.0781 28.0898C106.383 25.8984 108.531 20.5273 108.574 15.3711V12.1055L115.535 12.1055V15.0273ZM133.496 10.1289V33.2891H126.621V22.2461H120.09V16.6602H126.621V10.1289H133.496ZM119.66 34.2344C128.297 34.2344 133.582 37.1562 133.582 42.0977C133.582 47.082 128.297 49.9609 119.66 49.9609C111.109 49.9609 105.824 47.082 105.824 42.0977C105.824 37.1562 111.109 34.2344 119.66 34.2344ZM119.66 39.5195C114.934 39.5195 112.656 40.25 112.699 42.0977C112.656 43.8594 114.934 44.6328 119.66 44.6328C124.43 44.6328 126.75 43.8594 126.75 42.0977C126.75 40.25 124.43 39.5195 119.66 39.5195ZM160.395 12.6641V18.0781H153.176C153.541 21.9883 155.861 25.791 161.898 27.4883L158.676 32.8594C154.422 31.6562 151.564 29.293 149.824 26.2852C148.041 29.9375 145.012 32.8379 140.328 34.2773L136.848 28.9062C143.271 26.9082 145.656 22.418 146.086 18.0781H138.652V12.6641H160.395ZM169.504 10.1289V18.8086H174.445V24.3516H169.504V33.4609H162.586V10.1289H169.504ZM156.312 34.0625C164.648 34.0195 169.891 36.9844 169.891 41.9687C169.891 46.9531 164.648 49.9609 156.312 49.9609C147.762 49.9609 142.391 46.9531 142.434 41.9687C142.391 36.9844 147.762 34.0195 156.312 34.0625ZM156.312 39.3477C151.629 39.3477 149.309 40.0781 149.309 41.9687C149.309 43.8594 151.629 44.6328 156.312 44.6328C160.91 44.6328 163.059 43.8594 163.059 41.9687C163.059 40.0781 160.91 39.3477 156.312 39.3477ZM207.445 10.1289V25.2109H212.816V30.8398H207.445V49.875H200.613V10.1289H207.445ZM198.68 15.8008V21.2578H175.52V15.8008H183.727V10.8594H190.602V15.8008H198.68ZM187.164 22.8047C193.051 22.8047 197.562 26.8437 197.562 32.4727C197.562 38.1445 193.051 42.1836 187.164 42.1836C181.148 42.1836 176.723 38.1445 176.723 32.4727C176.723 26.8437 181.148 22.8047 187.164 22.8047ZM187.164 28.3477C184.93 28.3477 183.297 29.8086 183.34 32.4727C183.297 35.2656 184.93 36.5977 187.164 36.5977C189.355 36.5977 190.945 35.2656 190.945 32.4727C190.945 29.8086 189.355 28.3477 187.164 28.3477ZM248.438 10.1289V49.875H241.992V10.1289H248.438ZM239.93 10.9453V48.2852H233.527V30.2812H228.285C226.094 34.75 222.484 38.5957 216.77 41.8398L212.945 37.0273C220.572 32.5156 223.666 27.5312 224.461 20.1406H215.438V14.6836H231.25C231.25 18.3574 230.949 21.752 230.219 24.8672H233.527V10.9453L239.93 10.9453ZM293.082 10.1289V25.2109H298.453V30.8398H293.082V49.875H286.25V10.1289H293.082ZM284.316 15.8008V21.2578H261.156V15.8008H269.363V10.8594H276.238V15.8008H284.316ZM272.801 22.8047C278.688 22.8047 283.199 26.8437 283.199 32.4727C283.199 38.1445 278.688 42.1836 272.801 42.1836C266.785 42.1836 262.359 38.1445 262.359 32.4727C262.359 26.8437 266.785 22.8047 272.801 22.8047ZM272.801 28.3477C270.566 28.3477 268.934 29.8086 268.977 32.4727C268.934 35.2656 270.566 36.5977 272.801 36.5977C274.992 36.5977 276.582 35.2656 276.582 32.4727C276.582 29.8086 274.992 28.3477 272.801 28.3477ZM331.754 20.2266V25.5547H303.652V11.5469H310.527V20.2266H331.754ZM335.664 29.0781V34.4062H299.398V29.0781H335.664ZM332.012 43.6016V49.1016H303.18V37.1562H310.141V43.6016H332.012Z" fill="#11DCA9"/>
<path d="M45.8398 10.1289H55.8398C55.8398 4.60606 51.3627 0.128906 45.8398 0.128906V10.1289ZM45.8398 19.4531H35.8398C35.8398 24.976 40.317 29.4531 45.8398 29.4531V19.4531ZM50.7812 19.4531H60.7812C60.7812 13.9303 56.3041 9.45312 50.7812 9.45312V19.4531ZM50.7812 25.168V35.168C56.3041 35.168 60.7812 30.6908 60.7812 25.168H50.7812ZM45.8398 25.168V15.168C40.317 15.168 35.8398 19.6451 35.8398 25.168H45.8398ZM45.8398 34.1484V44.1484C51.3627 44.1484 55.8398 39.6713 55.8398 34.1484H45.8398ZM38.9219 34.1484H28.9219C28.9219 39.6713 33.399 44.1484 38.9219 44.1484V34.1484ZM38.9219 10.1289V0.128906C33.399 0.128906 28.9219 4.60606 28.9219 10.1289H38.9219ZM45.8398 35.5234H55.8398C55.8398 30.0006 51.3627 25.5234 45.8398 25.5234V35.5234ZM45.8398 49.5312V59.5312C51.3627 59.5312 55.8398 55.0541 55.8398 49.5312H45.8398ZM19.3281 49.5312H9.32813C9.32813 55.0541 13.8053 59.5312 19.3281 59.5312V49.5312ZM19.3281 35.5234V25.5234C13.8053 25.5234 9.32812 30.0006 9.32812 35.5234H19.3281ZM26.1172 40.8945V30.8945C20.5943 30.8945 16.1172 35.3717 16.1172 40.8945H26.1172ZM26.1172 44.0312H16.1172C16.1172 49.5541 20.5943 54.0312 26.1172 54.0312V44.0312ZM39.0508 44.0312V54.0312C44.5736 54.0312 49.0508 49.5541 49.0508 44.0312H39.0508ZM39.0508 40.8945H49.0508C49.0508 35.3717 44.5736 30.8945 39.0508 30.8945V40.8945ZM37.5039 13.3516H47.5039C47.5039 7.82872 43.0268 3.35156 37.5039 3.35156V13.3516ZM37.5039 18.7227V28.7227C43.0268 28.7227 47.5039 24.2455 47.5039 18.7227H37.5039ZM14 18.7227H4C4 24.2455 8.47715 28.7227 14 28.7227V18.7227ZM14 13.3516V3.35156C8.47715 3.35156 4 7.82872 4 13.3516H14ZM22.293 13.3516V23.3516C27.8158 23.3516 32.293 18.8744 32.293 13.3516H22.293ZM22.293 10V0C16.7701 0 12.293 4.47715 12.293 10H22.293ZM29.2109 10H39.2109C39.2109 4.47715 34.7338 0 29.2109 0V10ZM29.2109 13.3516H19.2109C19.2109 18.8744 23.6881 23.3516 29.2109 23.3516V13.3516ZM25.7305 28.8203L25.9432 18.8226C25.7998 18.8195 25.6565 18.8196 25.5131 18.8227L25.7305 28.8203ZM45.8398 10.1289L35.8398 10.1289V19.4531H45.8398H55.8398V10.1289H45.8398ZM45.8398 19.4531V29.4531H50.7812V19.4531V9.45312H45.8398V19.4531ZM50.7812 19.4531H40.7812V25.168H50.7812H60.7812V19.4531H50.7812ZM50.7812 25.168V15.168H45.8398V25.168V35.168H50.7812V25.168ZM45.8398 25.168H35.8398V34.1484H45.8398H55.8398V25.168H45.8398ZM45.8398 34.1484V24.1484H38.9219V34.1484V44.1484H45.8398V34.1484ZM38.9219 34.1484H48.9219V10.1289L38.9219 10.1289H28.9219V34.1484H38.9219ZM38.9219 10.1289V20.1289H45.8398V10.1289V0.128906H38.9219V10.1289ZM45.8398 35.5234H35.8398V49.5312H45.8398H55.8398V35.5234H45.8398ZM45.8398 49.5312V39.5312H19.3281V49.5312V59.5312H45.8398V49.5312ZM19.3281 49.5312H29.3281V35.5234H19.3281H9.32812L9.32813 49.5312H19.3281ZM19.3281 35.5234V45.5234H45.8398V35.5234V25.5234H19.3281V35.5234ZM26.1172 40.8945H16.1172V44.0312H26.1172H36.1172V40.8945H26.1172ZM26.1172 44.0312V54.0312H39.0508V44.0312V34.0312H26.1172V44.0312ZM39.0508 44.0312H49.0508V40.8945H39.0508H29.0508V44.0312H39.0508ZM39.0508 40.8945V30.8945H26.1172V40.8945V50.8945H39.0508V40.8945ZM37.5039 13.3516H27.5039V18.7227H37.5039H47.5039V13.3516H37.5039ZM37.5039 18.7227V8.72266H14V18.7227V28.7227H37.5039V18.7227ZM14 18.7227H24V13.3516H14H4V18.7227H14ZM14 13.3516V23.3516H22.293V13.3516V3.35156H14V13.3516ZM22.293 13.3516H32.293V10H22.293H12.293V13.3516H22.293ZM22.293 10V20H29.2109V10V0H22.293V10ZM29.2109 10H19.2109V13.3516H29.2109H39.2109V10H29.2109ZM29.2109 13.3516V23.3516H37.5039V13.3516V3.35156H29.2109V13.3516ZM25.7305 19.4531V29.4531C27.068 29.4531 27.3545 29.8037 27.0208 29.5621C26.8257 29.4209 26.4614 29.0948 26.1456 28.515C25.8167 27.9112 25.6562 27.2405 25.6562 26.6289H35.6562H45.6562C45.6562 20.927 42.7652 16.2693 38.7487 13.3617C34.9131 10.585 30.2367 9.45312 25.7305 9.45312V19.4531ZM35.6562 26.6289H25.6562C25.6562 26.0271 25.8145 25.3643 26.1398 24.7672C26.4518 24.1946 26.8106 23.8739 27.0002 23.7365C27.3224 23.503 27.034 23.8477 25.7305 23.8477V33.8477V43.8477C30.2277 43.8477 34.9022 42.7099 38.7371 39.9305C42.7522 37.0204 45.6562 32.355 45.6562 26.6289H35.6562ZM25.7305 33.8477V23.8477C24.3557 23.8477 24.0426 23.4894 24.3621 23.7196C24.5516 23.856 24.9148 24.1784 25.2309 24.7568C25.5603 25.3597 25.7188 26.0268 25.7188 26.6289H15.7188H5.71875C5.71875 32.3618 8.63003 37.0357 12.6721 39.9474C16.5258 42.7235 21.2185 43.8477 25.7305 43.8477V33.8477ZM15.7188 26.6289H25.7188C25.7188 27.2596 25.5516 27.943 25.2168 28.5514C24.8963 29.1341 24.531 29.4547 24.3458 29.5876C24.034 29.8112 24.3565 29.4531 25.7305 29.4531V19.4531V9.45312C21.2177 9.45312 16.5343 10.5775 12.6884 13.3363C8.66201 16.2245 5.71875 20.8831 5.71875 26.6289H15.7188ZM25.7305 24.5664V14.5664C24.0332 14.5664 21.1219 14.7719 18.3076 16.4179C14.7308 18.5101 12.4648 22.2782 12.4648 26.6289H22.4648H32.4648C32.4648 27.7769 32.1968 29.2418 31.3494 30.7042C30.5064 32.1589 29.3797 33.1117 28.4053 33.6817C27.4861 34.2193 26.7123 34.4166 26.3348 34.4916C26.1279 34.5327 25.9722 34.5504 25.8796 34.5583C25.7859 34.5664 25.7342 34.5664 25.7305 34.5664V24.5664ZM22.4648 26.6289H12.4648C12.4648 30.6955 14.4312 34.5095 18.0135 36.7738C20.9427 38.6252 24.0266 38.8597 25.9478 38.818L25.7305 28.8203L25.5131 18.8227C25.5961 18.8209 25.9197 18.8189 26.414 18.9213C26.9003 19.022 27.744 19.2639 28.6994 19.8678C29.708 20.5053 30.7501 21.4952 31.4985 22.8827C32.2405 24.2584 32.4648 25.5995 32.4648 26.6289H22.4648ZM25.7305 28.8203L25.5178 38.8181C27.4436 38.859 30.4637 38.6259 33.3527 36.8821C36.8887 34.7477 39.125 30.9743 39.125 26.6289H29.125H19.125C19.125 25.4913 19.392 24.0784 20.1923 22.6753C20.9881 21.2803 22.0574 20.339 23.0174 19.7595C23.9305 19.2084 24.718 18.9945 25.1517 18.9078C25.5977 18.8186 25.8811 18.8213 25.9432 18.8226L25.7305 28.8203ZM29.125 26.6289H39.125C39.125 21.9847 36.5593 18.2731 33.0615 16.3194C30.29 14.7713 27.4385 14.5664 25.7305 14.5664V24.5664V34.5664C26.0419 34.5664 24.8878 34.6623 23.3086 33.7802C22.3903 33.2673 21.2419 32.3672 20.3523 30.9154C19.443 29.4316 19.125 27.8937 19.125 26.6289H29.125ZM61.7812 14.5547L71.7812 14.5941C71.7916 11.9351 70.7427 9.38144 68.8662 7.49755C66.9897 5.61367 64.4402 4.55469 61.7812 4.55469V14.5547ZM56.3242 42.0117L51.7378 50.8979C56.494 53.3528 62.3399 51.6273 65.0009 46.9832L56.3242 42.0117ZM50.9961 39.2617L42.355 34.2287C40.9757 36.5968 40.6287 39.4273 41.3951 42.0585C42.1616 44.6897 43.9743 46.891 46.4097 48.1479L50.9961 39.2617ZM55.8516 20.0117L65.8461 20.3421C65.9356 17.6341 64.9225 15.0057 63.0385 13.0584C61.1545 11.1112 58.561 10.0117 55.8516 10.0117V20.0117ZM52.6289 20.0117H42.6289C42.6289 25.5346 47.1061 30.0117 52.6289 30.0117V20.0117ZM52.6289 14.5547V4.55469C47.1061 4.55469 42.6289 9.03184 42.6289 14.5547H52.6289ZM70.7188 14.5547L80.7188 14.5547C80.7188 9.03184 76.2416 4.55469 70.7188 4.55469V14.5547ZM70.4609 24.6094L60.4796 23.9983C60.3111 26.7514 61.2872 29.4519 63.177 31.461C65.0669 33.4701 67.7027 34.6094 70.4609 34.6094V24.6094ZM72.6953 24.6094V34.6094C78.2182 34.6094 82.6953 30.1322 82.6953 24.6094L72.6953 24.6094ZM72.6953 10.9453V0.945312C67.1725 0.945312 62.6953 5.42247 62.6953 10.9453H72.6953ZM79.0977 10.9453H89.0977C89.0977 5.42247 84.6205 0.945312 79.0977 0.945312V10.9453ZM79.0977 48.2852V58.2852C84.6205 58.2852 89.0977 53.808 89.0977 48.2852H79.0977ZM72.6953 48.2852H62.6953C62.6953 53.808 67.1725 58.2852 72.6953 58.2852V48.2852ZM72.6953 30.0664H82.6953C82.6953 24.5436 78.2182 20.0664 72.6953 20.0664V30.0664ZM69.8594 30.0664V20.0664C64.9628 20.0664 60.7864 23.6121 59.9919 28.4438L69.8594 30.0664ZM65.2188 43.6016L60.4864 52.4109C65.2378 54.9633 71.1572 53.2879 73.866 48.624L65.2188 43.6016ZM60.0195 40.8086L51.3665 35.796C50.0092 38.1391 49.6601 40.9324 50.3991 43.5375C51.138 46.1425 52.9018 48.3366 55.2872 49.618L60.0195 40.8086ZM64.918 20.0117L74.9146 20.2707C74.9845 17.5745 73.9623 14.9645 72.08 13.0328C70.1978 11.1012 67.615 10.0117 64.918 10.0117V20.0117ZM62.8555 20.0117H52.8555C52.8555 25.5346 57.3326 30.0117 62.8555 30.0117V20.0117ZM62.8555 14.5547V4.55469C57.3326 4.55469 52.8555 9.03184 52.8555 14.5547H62.8555ZM87.2188 10.1289H97.2188C97.2188 4.60606 92.7416 0.128906 87.2188 0.128906V10.1289ZM87.2188 49.875V59.875C92.7416 59.875 97.2188 55.3978 97.2188 49.875H87.2188ZM80.6016 49.875H70.6016C70.6016 55.3978 75.0787 59.875 80.6016 59.875V49.875ZM80.6016 10.1289V0.128906C75.0787 0.128906 70.6016 4.60606 70.6016 10.1289H80.6016ZM61.7812 14.5547L51.7813 14.5153C51.7396 25.125 50.8366 31.4744 47.6476 37.0402L56.3242 42.0117L65.0009 46.9832C70.9212 36.6506 71.737 25.8125 71.7812 14.5941L61.7812 14.5547ZM56.3242 42.0117L60.9106 33.1255L55.5825 30.3755L50.9961 39.2617L46.4097 48.1479L51.7378 50.8979L56.3242 42.0117ZM50.9961 39.2617L59.6372 44.2948C64.3217 36.2521 65.5559 29.1206 65.8461 20.3421L55.8516 20.0117L45.857 19.6813C45.6316 26.5005 44.8033 30.0252 42.355 34.2287L50.9961 39.2617ZM55.8516 20.0117V10.0117H52.6289V20.0117V30.0117H55.8516V20.0117ZM52.6289 20.0117H62.6289V14.5547H52.6289H42.6289V20.0117H52.6289ZM52.6289 14.5547V24.5547H61.7812V14.5547V4.55469L52.6289 4.55469V14.5547ZM70.7188 14.5547H60.7188C60.7188 17.9923 60.6558 21.1213 60.4796 23.9983L70.4609 24.6094L80.4422 25.2205C80.6528 21.781 80.7188 18.2069 80.7188 14.5547L70.7188 14.5547ZM70.4609 24.6094V34.6094H72.6953V24.6094V14.6094H70.4609V24.6094ZM72.6953 24.6094L82.6953 24.6094V10.9453H72.6953H62.6953V24.6094H72.6953ZM72.6953 10.9453V20.9453L79.0977 20.9453V10.9453V0.945312H72.6953V10.9453ZM79.0977 10.9453H69.0977V48.2852H79.0977H89.0977V10.9453H79.0977ZM79.0977 48.2852V38.2852H72.6953V48.2852V58.2852H79.0977V48.2852ZM72.6953 48.2852H82.6953V30.0664H72.6953H62.6953V48.2852H72.6953ZM72.6953 30.0664V20.0664H69.8594V30.0664V40.0664H72.6953V30.0664ZM69.8594 30.0664L59.9919 28.4438C59.3433 32.3881 58.2931 35.615 56.5715 38.5792L65.2188 43.6016L73.866 48.624C77.0858 43.0803 78.7856 37.4126 79.7268 31.6891L69.8594 30.0664ZM65.2188 43.6016L69.9511 34.7922L64.7518 31.9992L60.0195 40.8086L55.2872 49.618L60.4864 52.4109L65.2188 43.6016ZM60.0195 40.8086L68.6725 45.8212C73.74 37.0734 74.6819 29.253 74.9146 20.2707L64.918 20.0117L54.9213 19.7527C54.7243 27.3563 53.9905 31.2665 51.3665 35.796L60.0195 40.8086ZM64.918 20.0117V10.0117H62.8555V20.0117V30.0117H64.918V20.0117ZM62.8555 20.0117H72.8555V14.5547H62.8555H52.8555V20.0117H62.8555ZM62.8555 14.5547V24.5547H70.7188V14.5547V4.55469H62.8555V14.5547ZM87.2188 10.1289H77.2188V49.875H87.2188H97.2188V10.1289H87.2188ZM87.2188 49.875V39.875H80.6016V49.875V59.875H87.2188V49.875ZM80.6016 49.875H90.6016V10.1289H80.6016H70.6016V49.875H80.6016ZM80.6016 10.1289V20.1289H87.2188V10.1289V0.128906L80.6016 0.128906V10.1289ZM124.172 26.9727L132.472 32.5503C134.25 29.9043 134.66 26.5692 133.576 23.5714C132.491 20.5736 130.043 18.2724 126.984 17.3761L124.172 26.9727ZM120.562 32.3438L117.43 41.8405C121.689 43.2451 126.361 41.6432 128.863 37.9214L120.562 32.3438ZM112.184 25.3828L121.104 20.8625C119.375 17.4516 115.853 15.325 112.029 15.384C108.206 15.443 104.751 17.6772 103.128 21.1398L112.184 25.3828ZM102.73 33.5898L94.4 39.1218C96.8726 42.8452 101.516 44.4757 105.773 43.1156L102.73 33.5898ZM99.0781 28.0898L96.2046 18.5116C93.1714 19.4216 90.7484 21.7145 89.6727 24.6931C88.597 27.6716 88.9957 30.9837 90.7476 33.6218L99.0781 28.0898ZM108.574 15.3711L118.574 15.4544C118.574 15.4266 118.574 15.3989 118.574 15.3711H108.574ZM108.574 12.1055V2.10547C103.051 2.10547 98.5742 6.58262 98.5742 12.1055H108.574ZM115.535 12.1055H125.535C125.535 6.58262 121.058 2.10547 115.535 2.10547V12.1055ZM133.496 10.1289H143.496C143.496 4.60606 139.019 0.128906 133.496 0.128906V10.1289ZM133.496 33.2891V43.2891C139.019 43.2891 143.496 38.8119 143.496 33.2891L133.496 33.2891ZM126.621 33.2891H116.621C116.621 38.8119 121.098 43.2891 126.621 43.2891V33.2891ZM126.621 22.2461H136.621C136.621 16.7232 132.144 12.2461 126.621 12.2461V22.2461ZM120.09 22.2461H110.09C110.09 27.7689 114.567 32.2461 120.09 32.2461V22.2461ZM120.09 16.6602V6.66016C114.567 6.66016 110.09 11.1373 110.09 16.6602H120.09ZM126.621 16.6602V26.6602C132.144 26.6602 136.621 22.183 136.621 16.6602H126.621ZM126.621 10.1289V0.128906C121.098 0.128906 116.621 4.60606 116.621 10.1289H126.621ZM112.699 42.0977L122.696 42.3415C122.7 42.1827 122.7 42.0239 122.697 41.8652L112.699 42.0977ZM115.535 15.0273H105.535C105.535 18.7166 106.204 23.2629 108.85 27.486C111.631 31.9248 115.957 34.9863 121.36 36.5692L124.172 26.9727L126.984 17.3761C126.242 17.1587 125.918 16.9473 125.831 16.8842C125.76 16.8329 125.777 16.8339 125.798 16.8665C125.812 16.8895 125.535 16.4514 125.535 15.0273H115.535ZM124.172 26.9727L115.872 21.395L112.262 26.7661L120.562 32.3438L128.863 37.9214L132.472 32.5503L124.172 26.9727ZM120.562 32.3438L123.695 22.847C122.741 22.5325 122.216 22.1843 121.916 21.9294C121.621 21.6791 121.354 21.3574 121.104 20.8625L112.184 25.3828L103.264 29.9031C106.106 35.5128 110.892 39.684 117.43 41.8405L120.562 32.3438ZM112.184 25.3828L103.128 21.1398C102.496 22.4888 101.562 23.4652 99.6875 24.0641L102.73 33.5898L105.773 43.1156C113.18 40.7496 118.347 35.7964 121.239 29.6258L112.184 25.3828ZM102.73 33.5898L111.061 28.0579L107.409 22.5579L99.0781 28.0898L90.7476 33.6218L94.4 39.1218L102.73 33.5898ZM99.0781 28.0898L101.952 37.6681C107.645 35.96 112.083 32.7218 114.958 28.2549C117.722 23.9611 118.542 19.3179 118.574 15.4544L108.574 15.3711L98.5746 15.2878C98.5638 16.5805 98.288 17.201 98.1408 17.4297C98.0755 17.5311 97.9759 17.656 97.7634 17.8102C97.5403 17.9722 97.0749 18.2505 96.2046 18.5116L99.0781 28.0898ZM108.574 15.3711H118.574V12.1055L108.574 12.1055H98.5742V15.3711H108.574ZM108.574 12.1055V22.1055H115.535V12.1055V2.10547H108.574V12.1055ZM115.535 12.1055L105.535 12.1055V15.0273H115.535H125.535V12.1055H115.535ZM133.496 10.1289H123.496V33.2891H133.496L143.496 33.2891V10.1289H133.496ZM133.496 33.2891V23.2891H126.621V33.2891V43.2891H133.496V33.2891ZM126.621 33.2891H136.621V22.2461H126.621H116.621V33.2891H126.621ZM126.621 22.2461V12.2461H120.09V22.2461V32.2461H126.621V22.2461ZM120.09 22.2461H130.09V16.6602H120.09H110.09V22.2461H120.09ZM120.09 16.6602V26.6602H126.621V16.6602V6.66016H120.09V16.6602ZM126.621 16.6602H136.621V10.1289H126.621H116.621V16.6602H126.621ZM126.621 10.1289V20.1289H133.496V10.1289V0.128906L126.621 0.128906V10.1289ZM119.66 34.2344V44.2344C121.274 44.2344 122.536 44.3725 123.468 44.5637C124.416 44.7585 124.862 44.9752 124.964 45.0324C125.049 45.0803 124.657 44.8801 124.24 44.2385C123.781 43.5334 123.582 42.7371 123.582 42.0977H133.582L143.582 42.0977C143.582 35.3104 139.646 30.3397 134.756 27.5936C130.285 25.083 124.884 24.2344 119.66 24.2344V34.2344ZM133.582 42.0977H123.582C123.582 41.4856 123.772 40.6951 124.234 39.9829C124.656 39.3333 125.057 39.127 124.979 39.1707C124.882 39.2248 124.439 39.44 123.486 39.6338C122.551 39.8241 121.283 39.9609 119.66 39.9609V49.9609V59.9609C124.861 59.9609 130.264 59.1303 134.741 56.6262C139.665 53.8722 143.582 48.8873 143.582 42.0977L133.582 42.0977ZM119.66 49.9609V39.9609C118.065 39.9609 116.817 39.825 115.898 39.6366C114.96 39.4447 114.526 39.232 114.434 39.1801C114.359 39.1383 114.757 39.3451 115.176 39.991C115.635 40.6992 115.824 41.486 115.824 42.0977H105.824H95.8242C95.8242 48.8797 99.7325 53.8611 104.638 56.6168C109.104 59.1261 114.488 59.9609 119.66 59.9609V49.9609ZM105.824 42.0977H115.824C115.824 42.7367 115.626 43.5294 115.171 44.2304C114.756 44.8683 114.367 45.069 114.448 45.023C114.546 44.9679 114.983 44.7538 115.916 44.5609C116.832 44.3715 118.074 44.2344 119.66 44.2344V34.2344V24.2344C114.465 24.2344 109.083 25.0874 104.623 27.603C99.7512 30.3508 95.8242 35.318 95.8242 42.0977H105.824ZM119.66 39.5195V29.5195C117.126 29.5195 113.9 29.6696 111.019 30.7013C109.484 31.2514 107.313 32.3047 105.51 34.4087C103.508 36.7454 102.638 39.5864 102.702 42.3302L112.699 42.0977L122.697 41.8652C122.739 43.6851 122.137 45.7419 120.698 47.422C119.458 48.8693 118.144 49.3937 117.763 49.5302C117.345 49.6798 117.235 49.6504 117.675 49.6016C118.072 49.5575 118.71 49.5195 119.66 49.5195V39.5195ZM112.699 42.0977L102.702 41.8538C102.633 44.7064 103.586 47.5544 105.591 49.8365C107.383 51.8764 109.516 52.9018 111.019 53.4403C113.875 54.463 117.071 54.6328 119.66 54.6328V44.6328V34.6328C118.727 34.6328 118.097 34.5934 117.705 34.5488C117.273 34.4995 117.367 34.4695 117.763 34.6114C118.112 34.7364 119.388 35.2381 120.617 36.6375C122.059 38.2791 122.744 40.3697 122.696 42.3415L112.699 42.0977ZM119.66 44.6328V54.6328C122.277 54.6328 125.464 54.4606 128.311 53.4598C129.805 52.9344 131.908 51.9424 133.702 49.9753C135.708 47.7759 136.75 44.9805 136.75 42.0977H126.75H116.75C116.75 40.0956 117.502 38.0576 118.924 36.4987C120.134 35.1721 121.359 34.7038 121.677 34.592C122.043 34.4633 122.109 34.4968 121.661 34.5473C121.252 34.5933 120.606 34.6328 119.66 34.6328V44.6328ZM126.75 42.0977H136.75C136.75 39.3207 135.793 36.5267 133.784 34.2689C131.977 32.2374 129.836 31.2182 128.311 30.6819C125.439 29.6722 122.223 29.5195 119.66 29.5195V39.5195V49.5195C120.623 49.5195 121.277 49.5576 121.691 49.603C122.146 49.6529 122.064 49.6858 121.677 49.5496C121.328 49.4268 120.064 48.9366 118.841 47.5618C117.417 45.9606 116.75 43.9508 116.75 42.0977H126.75ZM160.395 12.6641H170.395C170.395 7.14122 165.917 2.66406 160.395 2.66406V12.6641ZM160.395 18.0781V28.0781C165.917 28.0781 170.395 23.601 170.395 18.0781H160.395ZM153.176 18.0781V8.07812C150.362 8.07812 147.678 9.26368 145.783 11.3439C143.888 13.4241 142.957 16.2064 143.219 19.0081L153.176 18.0781ZM161.898 27.4883L170.473 32.6332C172.077 29.9605 172.343 26.6929 171.192 23.7962C170.041 20.8995 167.605 18.7051 164.605 17.8615L161.898 27.4883ZM158.676 32.8594L155.954 42.4819C160.299 43.7107 164.928 41.8759 167.251 38.0043L158.676 32.8594ZM149.824 26.2852L158.48 21.2772C156.629 18.0787 153.166 16.1614 149.473 16.2913C145.78 16.4212 142.459 18.5772 140.838 21.8978L149.824 26.2852ZM140.328 34.2773L131.936 39.7154C134.367 43.467 138.993 45.1494 143.266 43.8361L140.328 34.2773ZM136.848 28.9062L133.878 19.3575C130.89 20.2869 128.509 22.5615 127.444 25.5042C126.38 28.4468 126.754 31.7182 128.456 34.3443L136.848 28.9062ZM146.086 18.0781L156.037 19.0634C156.315 16.2536 155.393 13.4571 153.497 11.3644C151.602 9.27181 148.91 8.07812 146.086 8.07812V18.0781ZM138.652 18.0781H128.652C128.652 23.601 133.129 28.0781 138.652 28.0781V18.0781ZM138.652 12.6641V2.66406C133.129 2.66406 128.652 7.14122 128.652 12.6641H138.652ZM169.504 10.1289L179.504 10.1289C179.504 4.60606 175.027 0.128906 169.504 0.128906V10.1289ZM169.504 18.8086H159.504C159.504 24.3314 163.981 28.8086 169.504 28.8086V18.8086ZM174.445 18.8086H184.445C184.445 13.2857 179.968 8.80859 174.445 8.80859V18.8086ZM174.445 24.3516V34.3516C179.968 34.3516 184.445 29.8744 184.445 24.3516H174.445ZM169.504 24.3516V14.3516C163.981 14.3516 159.504 18.8287 159.504 24.3516H169.504ZM169.504 33.4609V43.4609C175.027 43.4609 179.504 38.9838 179.504 33.4609H169.504ZM162.586 33.4609H152.586C152.586 38.9838 157.063 43.4609 162.586 43.4609V33.4609ZM162.586 10.1289V0.128906C157.063 0.128906 152.586 4.60606 152.586 10.1289H162.586ZM156.312 34.0625L156.262 44.0624C156.296 44.0625 156.33 44.0625 156.364 44.0624L156.312 34.0625ZM142.434 41.9687L152.433 42.055C152.434 41.9975 152.434 41.94 152.433 41.8825L142.434 41.9687ZM160.395 12.6641H150.395V18.0781H160.395H170.395V12.6641H160.395ZM160.395 18.0781V8.07812H153.176V18.0781V28.0781H160.395V18.0781ZM153.176 18.0781L143.219 19.0081C143.559 22.6429 144.857 26.5792 147.737 30.0259C150.626 33.4829 154.582 35.8191 159.192 37.1151L161.898 27.4883L164.605 17.8615C163.871 17.6552 163.458 17.4436 163.261 17.3227C163.072 17.2075 163.045 17.1542 163.083 17.2002C163.121 17.2452 163.15 17.3 163.162 17.3312C163.171 17.3522 163.147 17.3006 163.132 17.1481L153.176 18.0781ZM161.898 27.4883L153.324 22.3433L150.101 27.7144L158.676 32.8594L167.251 38.0043L170.473 32.6332L161.898 27.4883ZM158.676 32.8594L161.397 23.2368C160.372 22.9469 159.752 22.5882 159.375 22.3001C159.002 22.0156 158.717 21.6872 158.48 21.2772L149.824 26.2852L141.169 31.2931C144.275 36.6631 149.323 40.6065 155.954 42.4819L158.676 32.8594ZM149.824 26.2852L140.838 21.8978C140.215 23.1745 139.314 24.1275 137.39 24.7186L140.328 34.2773L143.266 43.8361C150.71 41.5483 155.867 36.7005 158.81 30.6725L149.824 26.2852ZM140.328 34.2773L148.72 28.8393L145.24 23.4682L136.848 28.9062L128.456 34.3443L131.936 39.7154L140.328 34.2773ZM136.848 28.9062L139.818 38.455C144.812 36.9015 148.843 34.1547 151.681 30.415C154.463 26.7479 155.679 22.6842 156.037 19.0634L146.086 18.0781L136.135 17.0928C136.063 17.8119 135.872 18.1632 135.748 18.3258C135.68 18.4156 135.307 18.913 133.878 19.3575L136.848 28.9062ZM146.086 18.0781V8.07812H138.652V18.0781V28.0781H146.086V18.0781ZM138.652 18.0781H148.652V12.6641H138.652H128.652V18.0781H138.652ZM138.652 12.6641V22.6641H160.395V12.6641V2.66406L138.652 2.66406V12.6641ZM169.504 10.1289H159.504V18.8086H169.504H179.504V10.1289L169.504 10.1289ZM169.504 18.8086V28.8086H174.445V18.8086V8.80859L169.504 8.80859V18.8086ZM174.445 18.8086H164.445V24.3516H174.445H184.445V18.8086H174.445ZM174.445 24.3516V14.3516H169.504V24.3516V34.3516H174.445V24.3516ZM169.504 24.3516H159.504V33.4609H169.504H179.504V24.3516H169.504ZM169.504 33.4609V23.4609H162.586V33.4609V43.4609H169.504V33.4609ZM162.586 33.4609H172.586V10.1289H162.586H152.586V33.4609H162.586ZM162.586 10.1289V20.1289H169.504V10.1289V0.128906L162.586 0.128906V10.1289ZM156.312 34.0625L156.364 44.0624C157.868 44.0546 159.038 44.1851 159.893 44.3648C160.763 44.5478 161.157 44.7497 161.226 44.7896C161.277 44.8192 160.897 44.6101 160.502 43.9885C160.071 43.3114 159.891 42.5602 159.891 41.9687H169.891H179.891C179.891 35.2724 176.085 30.2761 171.229 27.4711C166.778 24.9 161.414 24.0361 156.261 24.0626L156.312 34.0625ZM169.891 41.9687H159.891C159.891 41.3778 160.071 40.6375 160.49 39.9747C160.874 39.367 161.241 39.1655 161.181 39.2005C161.105 39.2454 160.706 39.451 159.837 39.6391C158.982 39.8241 157.813 39.9609 156.312 39.9609V49.9609V59.9609C161.476 59.9609 166.835 59.0617 171.274 56.4675C176.102 53.6456 179.891 48.6513 179.891 41.9687H169.891ZM156.312 49.9609V39.9609C154.743 39.9609 153.509 39.8214 152.595 39.6286C151.665 39.4322 151.22 39.2135 151.112 39.1516C151.017 39.0976 151.393 39.2896 151.796 39.9174C152.241 40.61 152.439 41.4028 152.433 42.055L142.434 41.9687L132.434 41.8825C132.375 48.7231 136.329 53.7392 141.189 56.5164C145.664 59.0736 151.078 59.9609 156.312 59.9609V49.9609ZM142.434 41.9687L152.433 41.8825C152.439 42.5351 152.241 43.3389 151.785 44.0458C151.371 44.6873 150.981 44.8866 151.068 44.8378C151.169 44.7807 151.609 44.5658 152.54 44.3748C153.454 44.1874 154.69 44.0545 156.262 44.0624L156.312 34.0625L156.363 24.0626C151.138 24.0364 145.72 24.8891 141.233 27.4229C136.346 30.1829 132.375 35.1999 132.434 42.055L142.434 41.9687ZM156.312 39.3477V29.3477C153.789 29.3477 150.564 29.4991 147.672 30.5387C146.126 31.0941 143.988 32.1415 142.198 34.2002C140.223 36.472 139.309 39.2454 139.309 41.9688L149.309 41.9687H159.309C159.309 43.7468 158.685 45.7199 157.291 47.323C156.082 48.713 154.817 49.2232 154.437 49.3597C154.027 49.507 153.921 49.4778 154.354 49.4293C154.746 49.3855 155.376 49.3477 156.312 49.3477V39.3477ZM149.309 41.9687L139.309 41.9688C139.309 44.688 140.219 47.4406 142.159 49.6992C143.924 51.7539 146.041 52.8194 147.595 53.3925C150.508 54.4662 153.751 54.6328 156.312 54.6328V44.6328V34.6328C155.391 34.6328 154.776 34.5935 154.399 34.5496C153.983 34.5011 154.097 34.4738 154.513 34.6271C154.902 34.7705 156.146 35.2881 157.329 36.666C158.688 38.2479 159.309 40.1948 159.309 41.9687H149.309ZM156.312 44.6328V54.6328C158.816 54.6328 162.077 54.4725 165.015 53.3374C166.612 52.7202 168.716 51.5886 170.431 49.4653C172.282 47.173 173.059 44.4922 173.059 41.9687H163.059H153.059C153.059 40.3907 153.566 38.5155 154.871 36.9C156.039 35.4534 157.32 34.8697 157.805 34.6821C158.293 34.4933 158.481 34.5096 158.111 34.5541C157.783 34.5936 157.209 34.6328 156.312 34.6328V44.6328ZM163.059 41.9687H173.059C173.059 39.4428 172.28 36.7405 170.394 34.4335C168.653 32.3035 166.524 31.1901 164.936 30.5915C162.019 29.4926 158.777 29.3477 156.312 29.3477V39.3477V49.3477C157.225 49.3477 157.814 49.3854 158.158 49.4252C158.545 49.4699 158.366 49.4888 157.884 49.3069C157.407 49.1273 156.102 48.551 154.908 47.0897C153.569 45.4514 153.059 43.5494 153.059 41.9687H163.059ZM207.445 10.1289H217.445C217.445 4.60606 212.968 0.128906 207.445 0.128906V10.1289ZM207.445 25.2109L197.445 25.2109C197.445 30.7338 201.922 35.2109 207.445 35.2109V25.2109ZM212.816 25.2109H222.816C222.816 19.6881 218.339 15.2109 212.816 15.2109V25.2109ZM212.816 30.8398V40.8398C218.339 40.8398 222.816 36.3627 222.816 30.8398H212.816ZM207.445 30.8398V20.8398C201.922 20.8398 197.445 25.317 197.445 30.8398H207.445ZM207.445 49.875V59.875C212.968 59.875 217.445 55.3978 217.445 49.875H207.445ZM200.613 49.875H190.613C190.613 55.3978 195.09 59.875 200.613 59.875V49.875ZM200.613 10.1289V0.128906C195.09 0.128906 190.613 4.60606 190.613 10.1289H200.613ZM198.68 15.8008L208.68 15.8008C208.68 10.2779 204.203 5.80078 198.68 5.80078V15.8008ZM198.68 21.2578V31.2578C204.203 31.2578 208.68 26.7807 208.68 21.2578L198.68 21.2578ZM175.52 21.2578H165.52C165.52 26.7807 169.997 31.2578 175.52 31.2578V21.2578ZM175.52 15.8008V5.80078C169.997 5.80078 165.52 10.2779 165.52 15.8008H175.52ZM183.727 15.8008V25.8008C189.249 25.8008 193.727 21.3236 193.727 15.8008H183.727ZM183.727 10.8594V0.859375C178.204 0.859375 173.727 5.33653 173.727 10.8594H183.727ZM190.602 10.8594H200.602C200.602 5.33653 196.124 0.859375 190.602 0.859375V10.8594ZM190.602 15.8008H180.602C180.602 21.3236 185.079 25.8008 190.602 25.8008V15.8008ZM183.34 32.4727L193.339 32.6265C193.34 32.5215 193.34 32.4164 193.339 32.3114L183.34 32.4727ZM207.445 10.1289H197.445V25.2109L207.445 25.2109H217.445V10.1289H207.445ZM207.445 25.2109V35.2109H212.816V25.2109V15.2109H207.445V25.2109ZM212.816 25.2109L202.816 25.2109V30.8398H212.816H222.816V25.2109H212.816ZM212.816 30.8398V20.8398H207.445V30.8398V40.8398H212.816V30.8398ZM207.445 30.8398H197.445V49.875H207.445H217.445V30.8398H207.445ZM207.445 49.875V39.875H200.613V49.875V59.875H207.445V49.875ZM200.613 49.875H210.613V10.1289H200.613H190.613V49.875H200.613ZM200.613 10.1289V20.1289L207.445 20.1289V10.1289V0.128906H200.613V10.1289ZM198.68 15.8008H188.68V21.2578H198.68L208.68 21.2578V15.8008L198.68 15.8008ZM198.68 21.2578V11.2578H175.52V21.2578V31.2578H198.68V21.2578ZM175.52 21.2578H185.52V15.8008H175.52H165.52V21.2578H175.52ZM175.52 15.8008V25.8008H183.727V15.8008V5.80078H175.52V15.8008ZM183.727 15.8008H193.727V10.8594H183.727H173.727V15.8008H183.727ZM183.727 10.8594V20.8594H190.602V10.8594V0.859375L183.727 0.859375V10.8594ZM190.602 10.8594H180.602V15.8008H190.602H200.602V10.8594H190.602ZM190.602 15.8008V25.8008H198.68V15.8008V5.80078H190.602V15.8008ZM187.164 22.8047V32.8047C187.49 32.8047 187.688 32.86 187.777 32.893C187.866 32.9263 187.86 32.9417 187.803 32.8897C187.743 32.8344 187.667 32.7395 187.613 32.6151C187.556 32.4859 187.562 32.4189 187.562 32.4727H197.562H207.562C207.562 20.5455 197.765 12.8047 187.164 12.8047V22.8047ZM197.562 32.4727H187.562C187.562 32.5477 187.551 32.4946 187.605 32.3724C187.657 32.2546 187.73 32.1606 187.792 32.1038C187.85 32.0503 187.859 32.064 187.773 32.0962C187.687 32.1283 187.49 32.1836 187.164 32.1836V42.1836V52.1836C197.796 52.1836 207.562 44.4146 207.562 32.4727H197.562ZM187.164 42.1836V32.1836C186.781 32.1836 186.559 32.12 186.47 32.0871C186.382 32.0546 186.404 32.0455 186.477 32.1136C186.554 32.1849 186.634 32.2914 186.686 32.412C186.739 32.5346 186.723 32.575 186.723 32.4727H176.723H166.723C166.723 44.3886 176.376 52.1836 187.164 52.1836V42.1836ZM176.723 32.4727H186.723C186.723 32.3914 186.735 32.4456 186.679 32.5754C186.623 32.7026 186.542 32.8102 186.466 32.8799C186.394 32.9464 186.375 32.9357 186.465 32.9021C186.557 32.8683 186.781 32.8047 187.164 32.8047V22.8047V12.8047C176.406 12.8047 166.723 20.5715 166.723 32.4727H176.723ZM187.164 28.3477V18.3477C183.85 18.3477 180.129 19.4707 177.245 22.4231C174.341 25.3958 173.286 29.1943 173.341 32.6339L183.34 32.4727L193.339 32.3114C193.351 33.087 193.091 34.823 191.551 36.3992C190.031 37.9551 188.243 38.3477 187.164 38.3477V28.3477ZM183.34 32.4727L173.341 32.3188C173.289 35.7025 174.277 39.604 177.327 42.6536C180.329 45.6554 184.097 46.5977 187.164 46.5977V36.5977V26.5977C187.997 26.5977 189.831 26.8739 191.469 28.5115C193.154 30.1967 193.348 32.0358 193.339 32.6265L183.34 32.4727ZM187.164 36.5977V46.5977C190.278 46.5977 194.034 45.6143 197.003 42.5972C199.976 39.5769 200.945 35.7552 200.945 32.4727H190.945H180.945C180.945 31.9831 181.119 30.2239 182.749 28.5678C184.376 26.915 186.242 26.5977 187.164 26.5977V36.5977ZM190.945 32.4727H200.945C200.945 29.142 199.916 25.4244 197.085 22.48C194.236 19.5175 190.528 18.3477 187.164 18.3477V28.3477V38.3477C185.992 38.3477 184.174 37.9082 182.668 36.3422C181.18 34.7944 180.945 33.1393 180.945 32.4727H190.945ZM248.438 10.1289H258.438C258.438 4.60606 253.96 0.128906 248.438 0.128906V10.1289ZM248.438 49.875V59.875C253.96 59.875 258.438 55.3978 258.438 49.875H248.438ZM241.992 49.875H231.992C231.992 55.3978 236.469 59.875 241.992 59.875V49.875ZM241.992 10.1289V0.128906C236.469 0.128906 231.992 4.60606 231.992 10.1289L241.992 10.1289ZM239.93 10.9453H249.93C249.93 5.42247 245.453 0.945312 239.93 0.945312V10.9453ZM239.93 48.2852V58.2852C245.453 58.2852 249.93 53.808 249.93 48.2852H239.93ZM233.527 48.2852H223.527C223.527 53.808 228.005 58.2852 233.527 58.2852V48.2852ZM233.527 30.2812H243.527C243.527 24.7584 239.05 20.2812 233.527 20.2812V30.2812ZM228.285 30.2812V20.2812C224.47 20.2812 220.987 22.4525 219.307 25.8783L228.285 30.2812ZM216.77 41.8398L208.94 48.0612C212.005 51.918 217.422 52.9683 221.706 50.5363L216.77 41.8398ZM212.945 37.0273L207.854 28.4205C205.366 29.8923 203.636 32.3689 203.112 35.2117C202.587 38.0545 203.318 40.9854 205.116 43.2487L212.945 37.0273ZM224.461 20.1406L234.404 21.21C234.707 18.388 233.797 15.5699 231.9 13.4583C230.004 11.3468 227.299 10.1406 224.461 10.1406V20.1406ZM215.438 20.1406H205.438C205.438 25.6635 209.915 30.1406 215.438 30.1406V20.1406ZM215.438 14.6836V4.68359C209.915 4.68359 205.438 9.16075 205.438 14.6836H215.438ZM231.25 14.6836H241.25C241.25 9.16075 236.773 4.68359 231.25 4.68359V14.6836ZM230.219 24.8672L220.483 22.5843C219.786 25.5573 220.485 28.6859 222.382 31.0789C224.279 33.472 227.165 34.8672 230.219 34.8672V24.8672ZM233.527 24.8672V34.8672C239.05 34.8672 243.527 30.39 243.527 24.8672H233.527ZM233.527 10.9453V0.945312C228.005 0.945312 223.527 5.42247 223.527 10.9453H233.527ZM248.438 10.1289H238.438V49.875H248.438H258.438V10.1289H248.438ZM248.438 49.875V39.875H241.992V49.875V59.875H248.438V49.875ZM241.992 49.875H251.992V10.1289H241.992L231.992 10.1289V49.875H241.992ZM241.992 10.1289V20.1289H248.438V10.1289V0.128906L241.992 0.128906V10.1289ZM239.93 10.9453L229.93 10.9453V48.2852H239.93H249.93V10.9453H239.93ZM239.93 48.2852V38.2852H233.527V48.2852V58.2852H239.93V48.2852ZM233.527 48.2852H243.527V30.2812H233.527H223.527V48.2852H233.527ZM233.527 30.2812V20.2812H228.285V30.2812V40.2812H233.527V30.2812ZM228.285 30.2812L219.307 25.8783C218.125 28.2875 216.063 30.7417 211.833 33.1434L216.77 41.8398L221.706 50.5363C228.905 46.4497 234.062 41.2125 237.264 34.6842L228.285 30.2812ZM216.77 41.8398L224.599 35.6185L220.774 30.806L212.945 37.0273L205.116 43.2487L208.94 48.0612L216.77 41.8398ZM212.945 37.0273L218.037 45.6342C222.718 42.8651 226.687 39.5503 229.581 35.2181C232.511 30.8313 233.879 26.0912 234.404 21.21L224.461 20.1406L214.518 19.0712C214.248 21.5807 213.672 23.0281 212.95 24.109C212.191 25.2446 210.8 26.6779 207.854 28.4205L212.945 37.0273ZM224.461 20.1406V10.1406H215.438V20.1406V30.1406H224.461V20.1406ZM215.438 20.1406H225.438V14.6836H215.438H205.438V20.1406H215.438ZM215.438 14.6836V24.6836H231.25V14.6836V4.68359H215.438V14.6836ZM231.25 14.6836H221.25C221.25 17.8395 220.989 20.4273 220.483 22.5843L230.219 24.8672L239.955 27.1501C240.91 23.0766 241.25 18.8753 241.25 14.6836H231.25ZM230.219 24.8672V34.8672H233.527V24.8672V14.8672H230.219V24.8672ZM233.527 24.8672H243.527V10.9453L233.527 10.9453H223.527V24.8672H233.527ZM233.527 10.9453V20.9453H239.93V10.9453V0.945312H233.527V10.9453ZM293.082 10.1289L303.082 10.1289C303.082 4.60606 298.605 0.128906 293.082 0.128906V10.1289ZM293.082 25.2109H283.082C283.082 30.7338 287.559 35.2109 293.082 35.2109V25.2109ZM298.453 25.2109H308.453C308.453 19.6881 303.976 15.2109 298.453 15.2109V25.2109ZM298.453 30.8398V40.8398C303.976 40.8398 308.453 36.3627 308.453 30.8398H298.453ZM293.082 30.8398V20.8398C287.559 20.8398 283.082 25.317 283.082 30.8398H293.082ZM293.082 49.875V59.875C298.605 59.875 303.082 55.3978 303.082 49.875H293.082ZM286.25 49.875H276.25C276.25 55.3978 280.727 59.875 286.25 59.875V49.875ZM286.25 10.1289V0.128906C280.727 0.128906 276.25 4.60606 276.25 10.1289H286.25ZM284.316 15.8008H294.316C294.316 10.2779 289.839 5.80078 284.316 5.80078V15.8008ZM284.316 21.2578V31.2578C289.839 31.2578 294.316 26.7807 294.316 21.2578H284.316ZM261.156 21.2578H251.156C251.156 26.7807 255.633 31.2578 261.156 31.2578V21.2578ZM261.156 15.8008V5.80078C255.633 5.80078 251.156 10.2779 251.156 15.8008H261.156ZM269.363 15.8008V25.8008C274.886 25.8008 279.363 21.3236 279.363 15.8008H269.363ZM269.363 10.8594V0.859375C263.84 0.859375 259.363 5.33653 259.363 10.8594H269.363ZM276.238 10.8594H286.238C286.238 5.33653 281.761 0.859375 276.238 0.859375V10.8594ZM276.238 15.8008H266.238C266.238 21.3236 270.715 25.8008 276.238 25.8008V15.8008ZM268.977 32.4727L278.975 32.6265C278.977 32.5215 278.977 32.4164 278.975 32.3114L268.977 32.4727ZM293.082 10.1289H283.082V25.2109H293.082H303.082V10.1289L293.082 10.1289ZM293.082 25.2109V35.2109H298.453V25.2109V15.2109H293.082V25.2109ZM298.453 25.2109H288.453V30.8398H298.453H308.453V25.2109H298.453ZM298.453 30.8398V20.8398H293.082V30.8398V40.8398H298.453V30.8398ZM293.082 30.8398H283.082V49.875H293.082H303.082V30.8398H293.082ZM293.082 49.875V39.875H286.25V49.875V59.875H293.082V49.875ZM286.25 49.875H296.25V10.1289H286.25H276.25V49.875H286.25ZM286.25 10.1289V20.1289H293.082V10.1289V0.128906H286.25V10.1289ZM284.316 15.8008H274.316V21.2578H284.316H294.316V15.8008H284.316ZM284.316 21.2578V11.2578H261.156V21.2578V31.2578H284.316V21.2578ZM261.156 21.2578H271.156V15.8008H261.156H251.156V21.2578H261.156ZM261.156 15.8008V25.8008H269.363V15.8008V5.80078H261.156V15.8008ZM269.363 15.8008H279.363V10.8594H269.363H259.363V15.8008H269.363ZM269.363 10.8594V20.8594H276.238V10.8594V0.859375H269.363V10.8594ZM276.238 10.8594H266.238V15.8008H276.238H286.238V10.8594H276.238ZM276.238 15.8008V25.8008H284.316V15.8008V5.80078H276.238V15.8008ZM272.801 22.8047V32.8047C273.127 32.8047 273.325 32.86 273.414 32.893C273.503 32.9263 273.496 32.9417 273.44 32.8897C273.38 32.8344 273.304 32.7395 273.249 32.6151C273.192 32.4859 273.199 32.4189 273.199 32.4727H283.199H293.199C293.199 20.5455 283.402 12.8047 272.801 12.8047V22.8047ZM283.199 32.4727H273.199C273.199 32.5477 273.188 32.4946 273.242 32.3724C273.293 32.2546 273.367 32.1606 273.428 32.1038C273.486 32.0503 273.496 32.064 273.409 32.0962C273.324 32.1283 273.127 32.1836 272.801 32.1836V42.1836V52.1836C283.432 52.1836 293.199 44.4146 293.199 32.4727H283.199ZM272.801 42.1836V32.1836C272.417 32.1836 272.195 32.12 272.107 32.0871C272.019 32.0546 272.041 32.0455 272.114 32.1136C272.191 32.1849 272.271 32.2914 272.323 32.412C272.376 32.5346 272.359 32.575 272.359 32.4727H262.359H252.359C252.359 44.3886 262.012 52.1836 272.801 52.1836V42.1836ZM262.359 32.4727H272.359C272.359 32.3914 272.372 32.4456 272.315 32.5754C272.26 32.7026 272.178 32.8102 272.103 32.8799C272.03 32.9464 272.011 32.9357 272.102 32.9021C272.194 32.8683 272.418 32.8047 272.801 32.8047V22.8047V12.8047C262.043 12.8047 252.359 20.5715 252.359 32.4727H262.359ZM272.801 28.3477V18.3477C269.487 18.3477 265.766 19.4707 262.882 22.4231C259.977 25.3958 258.922 29.1943 258.978 32.6339L268.977 32.4727L278.975 32.3114C278.988 33.087 278.728 34.823 277.188 36.3992C275.668 37.9551 273.88 38.3477 272.801 38.3477V28.3477ZM268.977 32.4727L258.978 32.3188C258.926 35.7025 259.914 39.604 262.964 42.6536C265.965 45.6554 269.734 46.5977 272.801 46.5977V36.5977V26.5977C273.633 26.5977 275.468 26.8739 277.106 28.5115C278.791 30.1967 278.984 32.0358 278.975 32.6265L268.977 32.4727ZM272.801 36.5977V46.5977C275.914 46.5977 279.671 45.6143 282.64 42.5972C285.613 39.5769 286.582 35.7552 286.582 32.4727H276.582H266.582C266.582 31.9831 266.756 30.2239 268.386 28.5678C270.013 26.915 271.879 26.5977 272.801 26.5977V36.5977ZM276.582 32.4727H286.582C286.582 29.142 285.553 25.4244 282.722 22.48C279.873 19.5175 276.165 18.3477 272.801 18.3477V28.3477V38.3477C271.628 38.3477 269.811 37.9082 268.305 36.3422C266.817 34.7944 266.582 33.1393 266.582 32.4727H276.582ZM331.754 20.2266L341.754 20.2266C341.754 14.7037 337.277 10.2266 331.754 10.2266V20.2266ZM331.754 25.5547V35.5547C337.277 35.5547 341.754 31.0775 341.754 25.5547L331.754 25.5547ZM303.652 25.5547H293.652C293.652 31.0775 298.129 35.5547 303.652 35.5547V25.5547ZM303.652 11.5469V1.54687C298.129 1.54687 293.652 6.02403 293.652 11.5469L303.652 11.5469ZM310.527 11.5469H320.527C320.527 6.02403 316.05 1.54687 310.527 1.54687V11.5469ZM310.527 20.2266H300.527C300.527 25.7494 305.004 30.2266 310.527 30.2266V20.2266ZM335.664 29.0781H345.664C345.664 23.5553 341.187 19.0781 335.664 19.0781V29.0781ZM335.664 34.4062V44.4062C341.187 44.4062 345.664 39.9291 345.664 34.4062H335.664ZM299.398 34.4062H289.398C289.398 39.9291 293.876 44.4062 299.398 44.4062V34.4062ZM299.398 29.0781V19.0781C293.876 19.0781 289.398 23.5553 289.398 29.0781H299.398ZM332.012 43.6016H342.012C342.012 38.0787 337.535 33.6016 332.012 33.6016V43.6016ZM332.012 49.1016V59.1016C337.535 59.1016 342.012 54.6244 342.012 49.1016H332.012ZM303.18 49.1016H293.18C293.18 54.6244 297.657 59.1016 303.18 59.1016V49.1016ZM303.18 37.1562V27.1562C297.657 27.1562 293.18 31.6334 293.18 37.1562H303.18ZM310.141 37.1562H320.141C320.141 31.6334 315.663 27.1562 310.141 27.1562V37.1562ZM310.141 43.6016H300.141C300.141 49.1244 304.618 53.6016 310.141 53.6016V43.6016ZM331.754 20.2266H321.754V25.5547H331.754L341.754 25.5547V20.2266L331.754 20.2266ZM331.754 25.5547V15.5547H303.652V25.5547V35.5547H331.754V25.5547ZM303.652 25.5547H313.652V11.5469H303.652L293.652 11.5469V25.5547H303.652ZM303.652 11.5469V21.5469H310.527V11.5469V1.54687H303.652V11.5469ZM310.527 11.5469L300.527 11.5469V20.2266H310.527H320.527V11.5469H310.527ZM310.527 20.2266V30.2266H331.754V20.2266V10.2266H310.527V20.2266ZM335.664 29.0781H325.664V34.4062H335.664H345.664V29.0781H335.664ZM335.664 34.4062V24.4062L299.398 24.4062V34.4062V44.4062H335.664V34.4062ZM299.398 34.4062H309.398V29.0781H299.398H289.398V34.4062H299.398ZM299.398 29.0781V39.0781H335.664V29.0781V19.0781L299.398 19.0781V29.0781ZM332.012 43.6016H322.012V49.1016H332.012H342.012V43.6016H332.012ZM332.012 49.1016V39.1016H303.18V49.1016V59.1016H332.012V49.1016ZM303.18 49.1016H313.18V37.1562H303.18H293.18V49.1016H303.18ZM303.18 37.1562V47.1562H310.141V37.1562V27.1562H303.18V37.1562ZM310.141 37.1562H300.141V43.6016H310.141H320.141V37.1562H310.141ZM310.141 43.6016V53.6016H332.012V43.6016V33.6016H310.141V43.6016Z" fill="white" mask="url(#path-1-outside-1_6524_1917)"/>
</g>
<defs>
<filter id="filter0_d_6524_1917" x="0" y="0" width="349.664" height="67.9609" filterUnits="userSpaceOnUse" color-interpolation-filters="sRGB">
<feFlood flood-opacity="0" result="BackgroundImageFix"/>
<feColorMatrix in="SourceAlpha" type="matrix" values="0 0 0 0 0 0 0 0 0 0 0 0 0 0 0 0 0 0 127 0" result="hardAlpha"/>
<feOffset dy="4"/>
<feGaussianBlur stdDeviation="2"/>
<feComposite in2="hardAlpha" operator="out"/>
<feColorMatrix type="matrix" values="0 0 0 0 0 0 0 0 0 0 0 0 0 0 0 0 0 0 0.07 0"/>
<feBlend mode="normal" in2="BackgroundImageFix" result="effect1_dropShadow_6524_1917"/>
<feBlend mode="normal" in="SourceGraphic" in2="effect1_dropShadow_6524_1917" result="shape"/>
</filter>
</defs>
</svg>
