<svg width="177" height="68" viewBox="0 0 177 68" fill="none" xmlns="http://www.w3.org/2000/svg">
<g filter="url(#filter0_d_6524_1845)">
<mask id="path-1-outside-1_6524_1845" maskUnits="userSpaceOnUse" x="3.96875" y="-0.464844" width="169" height="61" fill="black">
<rect fill="white" x="3.96875" y="-0.464844" width="169" height="61"/>
<path d="M47.6875 10.1289V40.3359H40.8125V33.5469H36.4297V28.1328H40.8125V25.0391H36.4297V19.5391H40.8125V10.1289L47.6875 10.1289ZM35.7852 13.8672V19.1953H14V13.8672H21.8203V10H28.6953V13.8672H35.7852ZM25.1719 20.0977C30.7148 20.0977 34.7969 23.4492 34.7969 28.0469C34.7969 32.6875 30.7148 35.9531 25.1719 35.9531C19.7578 35.9531 15.6328 32.6875 15.6758 28.0469C15.6328 23.4492 19.7578 20.0977 25.1719 20.0977ZM25.1719 25.3828C23.3672 25.4258 22.0781 26.2422 22.0781 28.0469C22.0781 29.9805 23.3672 30.7539 25.1719 30.7539C26.9336 30.7539 28.3516 29.9805 28.3516 28.0469C28.3516 26.2422 26.9336 25.4258 25.1719 25.3828ZM48.5039 43.7305V49.2305H20.7461V37.8438H27.75V43.7305H48.5039ZM85.3711 10.043V29.8516H78.4961V10.043H85.3711ZM85.4141 31.4414V42.957H65.0898V44.2891H86.2734V49.6172H58.3438V37.9727H78.5391V36.6836H58.2578V31.4414H85.4141ZM67.8398 13.8242C67.7969 18.1641 69.8164 22.5469 76.6914 24.3945L73.3828 29.6797C68.957 28.498 66.0352 26.0918 64.2734 22.9766C62.4688 26.3926 59.418 29.0781 54.7773 30.3242L51.4258 24.9531C58.4727 23.0195 60.6211 18.207 60.6641 13.8242V10.7734H67.8398V13.8242ZM112.957 11.9766V17.3906H105.738C106.082 21.4082 108.381 25.5332 114.375 27.4883L111.066 32.7734C106.791 31.5059 103.955 28.9492 102.258 25.7266C100.496 29.293 97.5312 32.1504 92.9766 33.5039L89.4531 28.0898C95.8555 26.1777 98.1973 21.623 98.6055 17.3906H91.3438V11.9766L112.957 11.9766ZM123.742 35.1797V49.7891H116.867V40.6367H96.1133V35.1797H123.742ZM123.742 10.043V33.6758H116.867V24.6523H111.926V19.0664H116.867V10.043H123.742ZM161.469 10.1289V38.3594H154.551V10.1289H161.469ZM162.414 43.7305V49.2305L134.27 49.2305V35.5234L141.23 35.5234V43.7305H162.414ZM139.512 12.4922C145.699 12.4922 150.641 16.7891 150.641 22.6758C150.641 28.6914 145.699 32.9453 139.512 32.9453C133.324 32.9453 128.34 28.6914 128.383 22.6758C128.34 16.7891 133.324 12.4922 139.512 12.4922ZM139.512 18.4648C136.977 18.4648 135.086 19.8828 135.086 22.6758C135.086 25.5977 136.977 26.9727 139.512 26.9727C141.918 26.9727 143.809 25.5977 143.809 22.6758C143.809 19.8828 141.918 18.4648 139.512 18.4648Z"/>
</mask>
<path d="M47.6875 10.1289V40.3359H40.8125V33.5469H36.4297V28.1328H40.8125V25.0391H36.4297V19.5391H40.8125V10.1289L47.6875 10.1289ZM35.7852 13.8672V19.1953H14V13.8672H21.8203V10H28.6953V13.8672H35.7852ZM25.1719 20.0977C30.7148 20.0977 34.7969 23.4492 34.7969 28.0469C34.7969 32.6875 30.7148 35.9531 25.1719 35.9531C19.7578 35.9531 15.6328 32.6875 15.6758 28.0469C15.6328 23.4492 19.7578 20.0977 25.1719 20.0977ZM25.1719 25.3828C23.3672 25.4258 22.0781 26.2422 22.0781 28.0469C22.0781 29.9805 23.3672 30.7539 25.1719 30.7539C26.9336 30.7539 28.3516 29.9805 28.3516 28.0469C28.3516 26.2422 26.9336 25.4258 25.1719 25.3828ZM48.5039 43.7305V49.2305H20.7461V37.8438H27.75V43.7305H48.5039ZM85.3711 10.043V29.8516H78.4961V10.043H85.3711ZM85.4141 31.4414V42.957H65.0898V44.2891H86.2734V49.6172H58.3438V37.9727H78.5391V36.6836H58.2578V31.4414H85.4141ZM67.8398 13.8242C67.7969 18.1641 69.8164 22.5469 76.6914 24.3945L73.3828 29.6797C68.957 28.498 66.0352 26.0918 64.2734 22.9766C62.4688 26.3926 59.418 29.0781 54.7773 30.3242L51.4258 24.9531C58.4727 23.0195 60.6211 18.207 60.6641 13.8242V10.7734H67.8398V13.8242ZM112.957 11.9766V17.3906H105.738C106.082 21.4082 108.381 25.5332 114.375 27.4883L111.066 32.7734C106.791 31.5059 103.955 28.9492 102.258 25.7266C100.496 29.293 97.5312 32.1504 92.9766 33.5039L89.4531 28.0898C95.8555 26.1777 98.1973 21.623 98.6055 17.3906H91.3438V11.9766L112.957 11.9766ZM123.742 35.1797V49.7891H116.867V40.6367H96.1133V35.1797H123.742ZM123.742 10.043V33.6758H116.867V24.6523H111.926V19.0664H116.867V10.043H123.742ZM161.469 10.1289V38.3594H154.551V10.1289H161.469ZM162.414 43.7305V49.2305L134.27 49.2305V35.5234L141.23 35.5234V43.7305H162.414ZM139.512 12.4922C145.699 12.4922 150.641 16.7891 150.641 22.6758C150.641 28.6914 145.699 32.9453 139.512 32.9453C133.324 32.9453 128.34 28.6914 128.383 22.6758C128.34 16.7891 133.324 12.4922 139.512 12.4922ZM139.512 18.4648C136.977 18.4648 135.086 19.8828 135.086 22.6758C135.086 25.5977 136.977 26.9727 139.512 26.9727C141.918 26.9727 143.809 25.5977 143.809 22.6758C143.809 19.8828 141.918 18.4648 139.512 18.4648Z" fill="#11DCA9"/>
<path d="M47.6875 10.1289H57.6875C57.6875 4.60606 53.2103 0.128906 47.6875 0.128906V10.1289ZM47.6875 40.3359V50.3359C53.2103 50.3359 57.6875 45.8588 57.6875 40.3359H47.6875ZM40.8125 40.3359H30.8125C30.8125 45.8588 35.2897 50.3359 40.8125 50.3359V40.3359ZM40.8125 33.5469H50.8125C50.8125 28.024 46.3353 23.5469 40.8125 23.5469V33.5469ZM36.4297 33.5469H26.4297C26.4297 39.0697 30.9068 43.5469 36.4297 43.5469V33.5469ZM36.4297 28.1328V18.1328C30.9068 18.1328 26.4297 22.61 26.4297 28.1328H36.4297ZM40.8125 28.1328V38.1328C46.3353 38.1328 50.8125 33.6557 50.8125 28.1328H40.8125ZM40.8125 25.0391H50.8125C50.8125 19.5162 46.3353 15.0391 40.8125 15.0391V25.0391ZM36.4297 25.0391H26.4297C26.4297 30.5619 30.9068 35.0391 36.4297 35.0391V25.0391ZM36.4297 19.5391V9.53906C30.9068 9.53906 26.4297 14.0162 26.4297 19.5391H36.4297ZM40.8125 19.5391V29.5391C46.3353 29.5391 50.8125 25.0619 50.8125 19.5391H40.8125ZM40.8125 10.1289V0.128906C35.2897 0.128906 30.8125 4.60606 30.8125 10.1289H40.8125ZM35.7852 13.8672H45.7852C45.7852 8.34434 41.308 3.86719 35.7852 3.86719V13.8672ZM35.7852 19.1953V29.1953C41.308 29.1953 45.7852 24.7182 45.7852 19.1953H35.7852ZM14 19.1953H4C4 24.7182 8.47715 29.1953 14 29.1953V19.1953ZM14 13.8672V3.86719C8.47715 3.86719 4 8.34434 4 13.8672H14ZM21.8203 13.8672V23.8672C27.3432 23.8672 31.8203 19.39 31.8203 13.8672H21.8203ZM21.8203 10V0C16.2975 0 11.8203 4.47715 11.8203 10H21.8203ZM28.6953 10H38.6953C38.6953 4.47715 34.2182 0 28.6953 0V10ZM28.6953 13.8672H18.6953C18.6953 19.39 23.1725 23.8672 28.6953 23.8672V13.8672ZM15.6758 28.0469L25.6754 28.1395C25.6759 28.0775 25.6759 28.0154 25.6753 27.9534L15.6758 28.0469ZM25.1719 25.3828L25.4157 15.3858C25.2551 15.3819 25.0944 15.3818 24.9338 15.3856L25.1719 25.3828ZM48.5039 43.7305H58.5039C58.5039 38.2076 54.0268 33.7305 48.5039 33.7305V43.7305ZM48.5039 49.2305V59.2305C54.0268 59.2305 58.5039 54.7533 58.5039 49.2305H48.5039ZM20.7461 49.2305H10.7461C10.7461 54.7533 15.2232 59.2305 20.7461 59.2305V49.2305ZM20.7461 37.8438V27.8438C15.2232 27.8438 10.7461 32.3209 10.7461 37.8438H20.7461ZM27.75 37.8438H37.75C37.75 32.3209 33.2728 27.8438 27.75 27.8438V37.8438ZM27.75 43.7305H17.75C17.75 49.2533 22.2272 53.7305 27.75 53.7305V43.7305ZM47.6875 10.1289L37.6875 10.1289V40.3359H47.6875H57.6875V10.1289H47.6875ZM47.6875 40.3359V30.3359H40.8125V40.3359V50.3359H47.6875V40.3359ZM40.8125 40.3359H50.8125V33.5469H40.8125H30.8125V40.3359H40.8125ZM40.8125 33.5469V23.5469H36.4297V33.5469V43.5469H40.8125V33.5469ZM36.4297 33.5469H46.4297V28.1328H36.4297H26.4297V33.5469H36.4297ZM36.4297 28.1328V38.1328H40.8125V28.1328V18.1328H36.4297V28.1328ZM40.8125 28.1328H50.8125V25.0391H40.8125H30.8125V28.1328H40.8125ZM40.8125 25.0391V15.0391H36.4297V25.0391V35.0391H40.8125V25.0391ZM36.4297 25.0391H46.4297V19.5391H36.4297H26.4297V25.0391H36.4297ZM36.4297 19.5391V29.5391H40.8125V19.5391V9.53906H36.4297V19.5391ZM40.8125 19.5391H50.8125V10.1289L40.8125 10.1289H30.8125V19.5391H40.8125ZM40.8125 10.1289V20.1289H47.6875V10.1289V0.128906H40.8125V10.1289ZM35.7852 13.8672H25.7852V19.1953H35.7852H45.7852V13.8672H35.7852ZM35.7852 19.1953V9.19531H14V19.1953V29.1953H35.7852V19.1953ZM14 19.1953H24V13.8672H14H4V19.1953H14ZM14 13.8672V23.8672H21.8203V13.8672V3.86719H14V13.8672ZM21.8203 13.8672H31.8203V10H21.8203H11.8203V13.8672H21.8203ZM21.8203 10V20H28.6953V10V0H21.8203V10ZM28.6953 10H18.6953V13.8672H28.6953H38.6953V10H28.6953ZM28.6953 13.8672V23.8672H35.7852V13.8672V3.86719L28.6953 3.86719V13.8672ZM25.1719 20.0977V30.0977C25.9738 30.0977 26.0332 30.3373 25.7017 30.064C25.5285 29.9211 25.2847 29.6588 25.0871 29.2542C24.8838 28.838 24.7969 28.4072 24.7969 28.0469H34.7969H44.7969C44.7969 16.2071 34.345 10.0977 25.1719 10.0977V20.0977ZM34.7969 28.0469H24.7969C24.7969 27.7101 24.8783 27.2776 25.0908 26.8435C25.2977 26.4206 25.5568 26.1423 25.7452 25.9888C26.1006 25.6991 26.0372 25.9531 25.1719 25.9531V35.9531V45.9531C34.229 45.9531 44.7969 40.0247 44.7969 28.0469H34.7969ZM25.1719 35.9531V25.9531C24.4156 25.9531 24.3726 25.7241 24.7191 26.0083C24.905 26.1608 25.1667 26.4413 25.3766 26.874C25.5933 27.3204 25.6787 27.7741 25.6754 28.1395L15.6758 28.0469L5.67621 27.9543C5.56464 40.0036 16.2481 45.9531 25.1719 45.9531V35.9531ZM15.6758 28.0469L25.6753 27.9534C25.679 28.3429 25.5877 28.7953 25.3802 29.2237C25.1796 29.6381 24.9332 29.9027 24.7626 30.0443C24.4407 30.3113 24.4795 30.0977 25.1719 30.0977V20.0977V10.0977C16.132 10.0977 5.56489 16.2284 5.67622 28.1403L15.6758 28.0469ZM25.1719 25.3828L24.9338 15.3856C22.7732 15.4371 19.583 15.957 16.7294 18.2231C13.4915 20.7944 12.0781 24.5006 12.0781 28.0469H22.0781H32.0781C32.0781 29.7885 31.3093 32.1842 29.1671 33.8853C27.4092 35.2813 25.7658 35.3715 25.4099 35.38L25.1719 25.3828ZM22.0781 28.0469H12.0781C12.0781 31.4249 13.3333 35.2597 16.7294 37.9566C19.7235 40.3343 23.0635 40.7539 25.1719 40.7539V30.7539V20.7539C25.4756 20.7539 27.2686 20.7868 29.1671 22.2944C31.4675 24.1212 32.0781 26.6025 32.0781 28.0469H22.0781ZM25.1719 30.7539V40.7539C27.306 40.7539 30.5298 40.3153 33.4581 38.0986C36.8239 35.5506 38.3516 31.7573 38.3516 28.0469H28.3516H18.3516C18.3516 27.2985 18.493 26.2323 19.0379 25.0625C19.5957 23.8652 20.4307 22.8761 21.3867 22.1524C23.1655 20.8058 24.7995 20.7539 25.1719 20.7539V30.7539ZM28.3516 28.0469H38.3516C38.3516 24.1632 36.6475 20.4955 33.4581 18.0811C30.6695 15.9701 27.5888 15.4388 25.4157 15.3858L25.1719 25.3828L24.928 35.3798C24.5167 35.3698 23.0258 35.2681 21.3867 34.0273C20.5061 33.3607 19.6804 32.4263 19.1041 31.2376C18.532 30.0575 18.3516 28.9291 18.3516 28.0469H28.3516ZM48.5039 43.7305H38.5039V49.2305H48.5039H58.5039V43.7305H48.5039ZM48.5039 49.2305V39.2305H20.7461V49.2305V59.2305H48.5039V49.2305ZM20.7461 49.2305H30.7461V37.8438H20.7461H10.7461V49.2305H20.7461ZM20.7461 37.8438V47.8438H27.75V37.8438V27.8438H20.7461V37.8438ZM27.75 37.8438H17.75V43.7305H27.75H37.75V37.8438H27.75ZM27.75 43.7305V53.7305H48.5039V43.7305V33.7305H27.75V43.7305ZM85.3711 10.043H95.3711C95.3711 4.52012 90.8939 0.0429687 85.3711 0.0429687V10.043ZM85.3711 29.8516V39.8516C90.8939 39.8516 95.3711 35.3744 95.3711 29.8516H85.3711ZM78.4961 29.8516H68.4961C68.4961 35.3744 72.9732 39.8516 78.4961 39.8516V29.8516ZM78.4961 10.043V0.0429687C72.9732 0.0429687 68.4961 4.52012 68.4961 10.043H78.4961ZM85.4141 31.4414H95.4141C95.4141 25.9186 90.9369 21.4414 85.4141 21.4414V31.4414ZM85.4141 42.957V52.957C90.9369 52.957 95.4141 48.4799 95.4141 42.957H85.4141ZM65.0898 42.957V32.957C59.567 32.957 55.0898 37.4342 55.0898 42.957H65.0898ZM65.0898 44.2891H55.0898C55.0898 49.8119 59.567 54.2891 65.0898 54.2891V44.2891ZM86.2734 44.2891H96.2734C96.2734 38.7662 91.7963 34.2891 86.2734 34.2891V44.2891ZM86.2734 49.6172V59.6172C91.7963 59.6172 96.2734 55.14 96.2734 49.6172H86.2734ZM58.3438 49.6172H48.3438C48.3438 55.14 52.8209 59.6172 58.3438 59.6172V49.6172ZM58.3438 37.9727V27.9727C52.8209 27.9727 48.3438 32.4498 48.3438 37.9727H58.3438ZM78.5391 37.9727V47.9727C84.0619 47.9727 88.5391 43.4955 88.5391 37.9727H78.5391ZM78.5391 36.6836H88.5391C88.5391 31.1607 84.0619 26.6836 78.5391 26.6836V36.6836ZM58.2578 36.6836H48.2578C48.2578 42.2064 52.735 46.6836 58.2578 46.6836V36.6836ZM58.2578 31.4414V21.4414C52.735 21.4414 48.2578 25.9186 48.2578 31.4414H58.2578ZM67.8398 13.8242L77.8394 13.9232C77.8397 13.8902 77.8398 13.8572 77.8398 13.8242L67.8398 13.8242ZM76.6914 24.3945L85.1675 29.7007C86.8498 27.0134 87.1581 23.6876 85.9985 20.7368C84.8388 17.7861 82.3486 15.5601 79.2868 14.7372L76.6914 24.3945ZM73.3828 29.6797L70.8033 39.3413C75.045 40.4738 79.5293 38.7072 81.8589 34.9859L73.3828 29.6797ZM64.2734 22.9766L72.9779 18.054C71.1783 14.8718 67.7857 12.9252 64.1302 12.9776C60.4748 13.0299 57.1392 15.0729 55.4315 18.3054L64.2734 22.9766ZM54.7773 30.3242L46.2935 35.6181C48.6234 39.3518 53.1203 41.1234 57.3707 39.9821L54.7773 30.3242ZM51.4258 24.9531L48.7797 15.3096C45.7336 16.1454 43.2615 18.3712 42.1118 21.3131C40.962 24.2551 41.2698 27.5673 42.942 30.247L51.4258 24.9531ZM60.6641 13.8242L70.6636 13.9223C70.6639 13.8896 70.6641 13.8569 70.6641 13.8242H60.6641ZM60.6641 10.7734V0.773437C55.1412 0.773437 50.6641 5.25059 50.6641 10.7734H60.6641ZM67.8398 10.7734H77.8398C77.8398 5.25059 73.3627 0.773437 67.8398 0.773437V10.7734ZM85.3711 10.043H75.3711V29.8516H85.3711H95.3711V10.043H85.3711ZM85.3711 29.8516V19.8516H78.4961V29.8516V39.8516H85.3711V29.8516ZM78.4961 29.8516H88.4961V10.043H78.4961H68.4961V29.8516H78.4961ZM78.4961 10.043V20.043H85.3711V10.043V0.0429687L78.4961 0.0429687V10.043ZM85.4141 31.4414H75.4141V42.957H85.4141H95.4141V31.4414H85.4141ZM85.4141 42.957V32.957H65.0898V42.957V52.957H85.4141V42.957ZM65.0898 42.957H55.0898V44.2891H65.0898H75.0898V42.957H65.0898ZM65.0898 44.2891V54.2891H86.2734V44.2891V34.2891H65.0898V44.2891ZM86.2734 44.2891H76.2734V49.6172H86.2734H96.2734V44.2891H86.2734ZM86.2734 49.6172V39.6172H58.3438V49.6172V59.6172H86.2734V49.6172ZM58.3438 49.6172H68.3438V37.9727H58.3438H48.3438V49.6172H58.3438ZM58.3438 37.9727V47.9727H78.5391V37.9727V27.9727L58.3438 27.9727V37.9727ZM78.5391 37.9727H88.5391V36.6836H78.5391H68.5391V37.9727H78.5391ZM78.5391 36.6836V26.6836L58.2578 26.6836V36.6836V46.6836H78.5391V36.6836ZM58.2578 36.6836H68.2578V31.4414H58.2578H48.2578V36.6836H58.2578ZM58.2578 31.4414V41.4414H85.4141V31.4414V21.4414L58.2578 21.4414V31.4414ZM67.8398 13.8242L57.8403 13.7252C57.8034 17.4576 58.6568 21.8993 61.583 25.9243C64.5534 30.01 68.9306 32.6637 74.096 34.0519L76.6914 24.3945L79.2868 14.7372C78.403 14.4997 77.9576 14.2566 77.7875 14.1478C77.6352 14.0505 77.6718 14.0427 77.7598 14.1636C77.9681 14.4503 77.8333 14.5307 77.8394 13.9232L67.8398 13.8242ZM76.6914 24.3945L68.2153 19.0883L64.9067 24.3735L73.3828 29.6797L81.8589 34.9859L85.1675 29.7007L76.6914 24.3945ZM73.3828 29.6797L75.9624 20.0181C74.871 19.7267 74.2357 19.361 73.8655 19.0806C73.5025 18.8058 73.2203 18.4825 72.9779 18.054L64.2734 22.9766L55.5689 27.8991C58.7264 33.4825 63.9301 37.5062 70.8033 39.3413L73.3828 29.6797ZM64.2734 22.9766L55.4315 18.3054C55.1213 18.8924 54.7615 19.3199 54.3435 19.6541C53.9283 19.9862 53.2702 20.3747 52.184 20.6663L54.7773 30.3242L57.3707 39.9821C64.7107 38.0112 70.0184 33.5098 73.1154 27.6478L64.2734 22.9766ZM54.7773 30.3242L63.2611 25.0303L59.9096 19.6592L51.4258 24.9531L42.942 30.247L46.2935 35.6181L54.7773 30.3242ZM51.4258 24.9531L54.0719 34.5967C59.4821 33.1122 63.8636 30.2426 66.8087 26.1195C69.6811 22.0981 70.6268 17.6725 70.6636 13.9223L60.6641 13.8242L50.6645 13.7262C50.6615 14.032 50.622 14.2413 50.5873 14.3612C50.5707 14.4185 50.5561 14.4528 50.5482 14.4695C50.5407 14.4852 50.5362 14.4918 50.5341 14.4947C50.5324 14.4971 50.5229 14.5105 50.4967 14.5357C50.4704 14.561 50.4128 14.6123 50.3075 14.6821C50.1017 14.8187 49.6423 15.0729 48.7797 15.3096L51.4258 24.9531ZM60.6641 13.8242H70.6641V10.7734H60.6641H50.6641V13.8242H60.6641ZM60.6641 10.7734V20.7734H67.8398V10.7734V0.773437L60.6641 0.773437V10.7734ZM67.8398 10.7734H57.8398V13.8242H67.8398L77.8398 13.8242V10.7734H67.8398ZM112.957 11.9766H122.957C122.957 6.45372 118.48 1.97656 112.957 1.97656V11.9766ZM112.957 17.3906V27.3906C118.48 27.3906 122.957 22.9135 122.957 17.3906H112.957ZM105.738 17.3906V7.39062C102.938 7.39062 100.266 8.56484 98.372 10.6277C96.4781 12.6905 95.536 15.4529 95.7747 18.2431L105.738 17.3906ZM114.375 27.4883L122.851 32.7945C124.484 30.1858 124.825 26.9704 123.775 24.0772C122.725 21.1841 120.402 18.9356 117.476 17.9812L114.375 27.4883ZM111.066 32.7734L108.224 42.3609C112.53 43.6376 117.159 41.8867 119.543 38.0796L111.066 32.7734ZM102.258 25.7266L111.106 21.0667C109.354 17.7412 105.886 15.6787 102.128 15.7274C98.37 15.7761 94.9566 17.928 93.292 21.2977L102.258 25.7266ZM92.9766 33.5039L84.5952 38.9585C87.0108 42.6702 91.58 44.3511 95.8251 43.0896L92.9766 33.5039ZM89.4531 28.0898L86.5914 18.508C83.5706 19.4102 81.1521 21.6842 80.0657 24.6438C78.9792 27.6034 79.3521 30.902 81.0717 33.5444L89.4531 28.0898ZM98.6055 17.3906L108.559 18.3506C108.83 15.5445 107.904 12.7545 106.008 10.6675C104.113 8.58059 101.425 7.39062 98.6055 7.39062V17.3906ZM91.3438 17.3906H81.3438C81.3438 22.9135 85.8209 27.3906 91.3438 27.3906V17.3906ZM91.3438 11.9766V1.97656C85.8209 1.97656 81.3438 6.45372 81.3438 11.9766H91.3438ZM123.742 35.1797H133.742C133.742 29.6568 129.265 25.1797 123.742 25.1797V35.1797ZM123.742 49.7891V59.7891C129.265 59.7891 133.742 55.3119 133.742 49.7891H123.742ZM116.867 49.7891H106.867C106.867 55.3119 111.344 59.7891 116.867 59.7891V49.7891ZM116.867 40.6367H126.867C126.867 35.1139 122.39 30.6367 116.867 30.6367V40.6367ZM96.1133 40.6367H86.1133C86.1133 46.1596 90.5904 50.6367 96.1133 50.6367V40.6367ZM96.1133 35.1797V25.1797C90.5904 25.1797 86.1133 29.6568 86.1133 35.1797H96.1133ZM123.742 10.043H133.742C133.742 4.52012 129.265 0.0429687 123.742 0.0429687V10.043ZM123.742 33.6758V43.6758C129.265 43.6758 133.742 39.1986 133.742 33.6758H123.742ZM116.867 33.6758H106.867C106.867 39.1986 111.344 43.6758 116.867 43.6758V33.6758ZM116.867 24.6523H126.867C126.867 19.1295 122.39 14.6523 116.867 14.6523V24.6523ZM111.926 24.6523H101.926C101.926 30.1752 106.403 34.6523 111.926 34.6523V24.6523ZM111.926 19.0664V9.06641C106.403 9.06641 101.926 13.5436 101.926 19.0664H111.926ZM116.867 19.0664V29.0664C122.39 29.0664 126.867 24.5893 126.867 19.0664H116.867ZM116.867 10.043V0.0429687C111.344 0.0429687 106.867 4.52012 106.867 10.043L116.867 10.043ZM112.957 11.9766L102.957 11.9766V17.3906H112.957H122.957V11.9766H112.957ZM112.957 17.3906V7.39062L105.738 7.39062V17.3906V27.3906H112.957V17.3906ZM105.738 17.3906L95.7747 18.2431C96.0835 21.8521 97.3028 25.7871 100.01 29.3083C102.75 32.8714 106.599 35.4706 111.274 36.9954L114.375 27.4883L117.476 17.9812C116.787 17.7567 116.386 17.5295 116.174 17.3852C115.968 17.245 115.889 17.1481 115.865 17.1175C115.839 17.083 115.737 16.9467 115.702 16.5381L105.738 17.3906ZM114.375 27.4883L105.899 22.1821L102.59 27.4673L111.066 32.7734L119.543 38.0796L122.851 32.7945L114.375 27.4883ZM111.066 32.7734L113.909 23.1859C112.976 22.9093 112.413 22.5615 112.058 22.2684C111.699 21.9725 111.383 21.593 111.106 21.0667L102.258 25.7266L93.4099 30.3865C96.3462 35.9617 101.33 40.317 108.224 42.3609L111.066 32.7734ZM102.258 25.7266L93.292 21.2977C92.6668 22.5634 91.8137 23.4173 90.128 23.9182L92.9766 33.5039L95.8251 43.0896C103.249 40.8835 108.325 36.0225 111.224 30.1554L102.258 25.7266ZM92.9766 33.5039L101.358 28.0493L97.8345 22.6353L89.4531 28.0898L81.0717 33.5444L84.5952 38.9585L92.9766 33.5039ZM89.4531 28.0898L92.3148 37.6716C97.3855 36.1572 101.437 33.3799 104.264 29.6283C107.023 25.9661 108.216 21.9137 108.559 18.3506L98.6055 17.3906L88.6517 16.4306C88.5871 17.0999 88.4045 17.4412 88.2906 17.5924C88.2331 17.6687 88.1313 17.7833 87.9229 17.9243C87.7091 18.0689 87.3014 18.296 86.5914 18.508L89.4531 28.0898ZM98.6055 17.3906V7.39062H91.3438V17.3906V27.3906H98.6055V17.3906ZM91.3438 17.3906H101.344V11.9766H91.3438H81.3438V17.3906H91.3438ZM91.3438 11.9766V21.9766H112.957V11.9766V1.97656L91.3438 1.97656V11.9766ZM123.742 35.1797H113.742V49.7891H123.742H133.742V35.1797H123.742ZM123.742 49.7891V39.7891H116.867V49.7891V59.7891H123.742V49.7891ZM116.867 49.7891H126.867V40.6367H116.867H106.867V49.7891H116.867ZM116.867 40.6367V30.6367H96.1133V40.6367V50.6367H116.867V40.6367ZM96.1133 40.6367H106.113V35.1797H96.1133H86.1133V40.6367H96.1133ZM96.1133 35.1797V45.1797H123.742V35.1797V25.1797H96.1133V35.1797ZM123.742 10.043H113.742V33.6758H123.742H133.742V10.043H123.742ZM123.742 33.6758V23.6758H116.867V33.6758V43.6758H123.742V33.6758ZM116.867 33.6758H126.867V24.6523H116.867H106.867V33.6758H116.867ZM116.867 24.6523V14.6523H111.926V24.6523V34.6523H116.867V24.6523ZM111.926 24.6523H121.926V19.0664H111.926H101.926V24.6523H111.926ZM111.926 19.0664V29.0664H116.867V19.0664V9.06641H111.926V19.0664ZM116.867 19.0664H126.867V10.043H116.867L106.867 10.043V19.0664H116.867ZM116.867 10.043V20.043H123.742V10.043V0.0429687L116.867 0.0429687V10.043ZM161.469 10.1289H171.469C171.469 4.60606 166.992 0.128906 161.469 0.128906V10.1289ZM161.469 38.3594V48.3594C166.992 48.3594 171.469 43.8822 171.469 38.3594H161.469ZM154.551 38.3594H144.551C144.551 43.8822 149.028 48.3594 154.551 48.3594V38.3594ZM154.551 10.1289V0.128906C149.028 0.128906 144.551 4.60606 144.551 10.1289H154.551ZM162.414 43.7305H172.414C172.414 38.2076 167.937 33.7305 162.414 33.7305V43.7305ZM162.414 49.2305V59.2305C167.937 59.2305 172.414 54.7533 172.414 49.2305H162.414ZM134.27 49.2305H124.27C124.27 54.7533 128.747 59.2305 134.27 59.2305V49.2305ZM134.27 35.5234V25.5234C128.747 25.5234 124.27 30.0006 124.27 35.5234H134.27ZM141.23 35.5234H151.23C151.23 30.0006 146.753 25.5234 141.23 25.5234V35.5234ZM141.23 43.7305L131.23 43.7305C131.23 49.2533 135.708 53.7305 141.23 53.7305V43.7305ZM128.383 22.6758L138.383 22.7472C138.383 22.6991 138.383 22.6509 138.383 22.6028L128.383 22.6758ZM161.469 10.1289H151.469V38.3594H161.469H171.469V10.1289H161.469ZM161.469 38.3594V28.3594H154.551V38.3594V48.3594H161.469V38.3594ZM154.551 38.3594H164.551V10.1289H154.551H144.551V38.3594H154.551ZM154.551 10.1289V20.1289H161.469V10.1289V0.128906H154.551V10.1289ZM162.414 43.7305H152.414V49.2305H162.414H172.414V43.7305H162.414ZM162.414 49.2305V39.2305L134.27 39.2305V49.2305V59.2305L162.414 59.2305V49.2305ZM134.27 49.2305L144.27 49.2305V35.5234L134.27 35.5234H124.27V49.2305H134.27ZM134.27 35.5234V45.5234L141.23 45.5234V35.5234V25.5234H134.27V35.5234ZM141.23 35.5234L131.23 35.5234V43.7305L141.23 43.7305H151.23V35.5234H141.23ZM141.23 43.7305V53.7305H162.414V43.7305V33.7305H141.23V43.7305ZM139.512 12.4922V22.4922C140.298 22.4922 140.649 22.7575 140.702 22.8055C140.728 22.8285 140.701 22.8108 140.67 22.7425C140.635 22.6655 140.641 22.6249 140.641 22.6758H150.641H160.641C160.641 10.3118 150.217 2.49219 139.512 2.49219V12.4922ZM150.641 22.6758H140.641C140.641 22.7896 140.622 22.7829 140.652 22.7158C140.679 22.6561 140.707 22.6335 140.692 22.6473C140.661 22.6752 140.323 22.9453 139.512 22.9453V32.9453V42.9453C150.246 42.9453 160.641 35.1424 160.641 22.6758H150.641ZM139.512 32.9453V22.9453C138.694 22.9453 138.342 22.6706 138.306 22.6384C138.291 22.6246 138.325 22.6531 138.359 22.7281C138.396 22.8116 138.382 22.8391 138.383 22.7472L128.383 22.6758L118.383 22.6044C118.293 35.1899 128.85 42.9453 139.512 42.9453V32.9453ZM128.383 22.6758L138.383 22.6028C138.382 22.5747 138.384 22.6366 138.341 22.7302C138.303 22.8138 138.269 22.8375 138.295 22.8143C138.353 22.7621 138.719 22.4922 139.512 22.4922V12.4922V2.49219C128.881 2.49219 118.292 10.2637 118.383 22.7488L128.383 22.6758ZM139.512 18.4648V8.46484C136.462 8.46484 132.762 9.32397 129.695 12.0573C126.458 14.9419 125.086 18.8833 125.086 22.6758H135.086H145.086C145.086 23.6753 144.659 25.5112 143.001 26.9886C141.513 28.3147 140.026 28.4648 139.512 28.4648V18.4648ZM135.086 22.6758H125.086C125.086 26.4044 126.375 30.404 129.667 33.3604C132.786 36.161 136.534 36.9727 139.512 36.9727V26.9727V16.9727C139.954 16.9727 141.49 17.0968 143.029 18.4794C144.743 20.0179 145.086 21.8691 145.086 22.6758H135.086ZM139.512 26.9727V36.9727C142.543 36.9727 146.259 36.0969 149.32 33.2915C152.527 30.3519 153.809 26.3998 153.809 22.6758H143.809H133.809C133.809 21.8736 134.145 20.07 135.805 18.5484C137.319 17.1609 138.886 16.9727 139.512 16.9727V26.9727ZM143.809 22.6758H153.809C153.809 18.8895 152.444 14.9938 149.292 12.1259C146.284 9.38997 142.616 8.46484 139.512 8.46484V18.4648V28.4648C138.814 28.4648 137.294 28.2487 135.833 26.92C134.228 25.4594 133.809 23.6691 133.809 22.6758H143.809Z" fill="white" mask="url(#path-1-outside-1_6524_1845)"/>
</g>
<defs>
<filter id="filter0_d_6524_1845" x="0" y="0" width="176.414" height="67.7891" filterUnits="userSpaceOnUse" color-interpolation-filters="sRGB">
<feFlood flood-opacity="0" result="BackgroundImageFix"/>
<feColorMatrix in="SourceAlpha" type="matrix" values="0 0 0 0 0 0 0 0 0 0 0 0 0 0 0 0 0 0 127 0" result="hardAlpha"/>
<feOffset dy="4"/>
<feGaussianBlur stdDeviation="2"/>
<feComposite in2="hardAlpha" operator="out"/>
<feColorMatrix type="matrix" values="0 0 0 0 0 0 0 0 0 0 0 0 0 0 0 0 0 0 0.07 0"/>
<feBlend mode="normal" in2="BackgroundImageFix" result="effect1_dropShadow_6524_1845"/>
<feBlend mode="normal" in="SourceGraphic" in2="effect1_dropShadow_6524_1845" result="shape"/>
</filter>
</defs>
</svg>
