<svg width="350" height="68" viewBox="0 0 350 68" fill="none" xmlns="http://www.w3.org/2000/svg">
<g filter="url(#filter0_d_6524_1777)">
<mask id="path-1-outside-1_6524_1777" maskUnits="userSpaceOnUse" x="3.96875" y="-0.464844" width="342" height="61" fill="black">
<rect fill="white" x="3.96875" y="-0.464844" width="342" height="61"/>
<path d="M47.6875 10.1289V40.3359H40.8125V33.5469H36.4297V28.1328H40.8125V25.0391H36.4297V19.5391H40.8125V10.1289L47.6875 10.1289ZM35.7852 13.8672V19.1953H14V13.8672H21.8203V10H28.6953V13.8672H35.7852ZM25.1719 20.0977C30.7148 20.0977 34.7969 23.4492 34.7969 28.0469C34.7969 32.6875 30.7148 35.9531 25.1719 35.9531C19.7578 35.9531 15.6328 32.6875 15.6758 28.0469C15.6328 23.4492 19.7578 20.0977 25.1719 20.0977ZM25.1719 25.3828C23.3672 25.4258 22.0781 26.2422 22.0781 28.0469C22.0781 29.9805 23.3672 30.7539 25.1719 30.7539C26.9336 30.7539 28.3516 29.9805 28.3516 28.0469C28.3516 26.2422 26.9336 25.4258 25.1719 25.3828ZM48.5039 43.7305V49.2305H20.7461V37.8438H27.75V43.7305H48.5039ZM85.3711 10.043V29.8516H78.4961V10.043H85.3711ZM85.4141 31.4414V42.957H65.0898V44.2891H86.2734V49.6172H58.3438V37.9727H78.5391V36.6836H58.2578V31.4414H85.4141ZM67.8398 13.8242C67.7969 18.1641 69.8164 22.5469 76.6914 24.3945L73.3828 29.6797C68.957 28.498 66.0352 26.0918 64.2734 22.9766C62.4688 26.3926 59.418 29.0781 54.7773 30.3242L51.4258 24.9531C58.4727 23.0195 60.6211 18.207 60.6641 13.8242V10.7734H67.8398V13.8242ZM131.305 10.043V18.1211H136.246V23.75H131.305V32.043H124.387V10.043H131.305ZM120.004 12.2344C120.004 23.0625 113.559 30.1523 101.527 33.2891L98.8203 27.7891C107.113 25.877 111.453 22.0527 112.398 17.6484H100.883V12.2344L120.004 12.2344ZM131.305 33.332V49.3594H104.793V33.332H131.305ZM111.625 38.832V44.0312H124.516V38.832H111.625ZM169.332 10.043V18.8516H174.273V24.5234H169.332V32.9883H162.414V10.043H169.332ZM157.988 12.1055C157.988 23.0625 151.543 30.2383 139.512 33.1602L136.676 27.9609C145.184 25.9414 149.545 21.9883 150.469 17.5195H138.91V12.1055H157.988ZM169.332 34.4922V49.7891H162.414V39.9062H142.133V34.4922H169.332ZM209.121 10.043V49.918H202.16V10.043H209.121ZM187.293 12.707C193.352 12.6641 197.906 18.25 197.906 27.0156C197.906 35.9102 193.352 41.4531 187.293 41.4531C181.105 41.4531 176.508 35.9102 176.508 27.0156C176.508 18.25 181.105 12.6641 187.293 12.707ZM187.293 18.9375C184.758 18.8945 183.168 21.5156 183.168 27.0156C183.168 32.6016 184.758 35.1367 187.293 35.1367C189.656 35.1367 191.289 32.6016 191.289 27.0156C191.289 21.5156 189.656 18.8945 187.293 18.9375ZM257.375 10.1289V49.7461H250.414V10.1289H257.375ZM223.129 30.582C230.734 30.582 240.316 30.7109 248.91 29.5937L249.254 34.5781C246.031 35.1582 242.809 35.502 239.672 35.7383V48.5859H232.711V36.0391C229.639 36.125 226.652 36.125 223.859 36.125L223.129 30.582ZM248.18 22.2891V27.7461H237.137V12.5781H248.008V18.0352H243.883V22.2891H248.18ZM235.418 12.5781V18.0352H231.68V22.2891C232.99 22.2031 234.258 22.0312 235.719 21.7305L236.062 27.1016C233.055 27.7031 230.691 27.7461 226.996 27.7461H224.848V12.5781H235.418ZM272.328 12.707C277.635 12.6641 281.674 16.9395 282.641 23.8789H288.27V10.043H295.102V49.918H288.27V29.3789H282.727C281.996 36.877 277.828 41.4531 272.328 41.4531C266.184 41.4531 261.758 35.9102 261.758 27.0156C261.758 18.25 266.184 12.6641 272.328 12.707ZM272.328 18.9375C269.965 18.8945 268.332 21.5156 268.375 27.0156C268.332 32.6016 269.965 35.1367 272.328 35.1367C274.734 35.1367 276.281 32.6016 276.281 27.0156C276.281 21.5156 274.734 18.8945 272.328 18.9375ZM307.52 12.5781V26.7578C311.902 26.6719 316.672 26.3281 321.57 25.2969L322.344 30.8828C315.984 32.1719 309.711 32.4727 304.168 32.4727H300.602V12.5781H307.52ZM331.023 10.1289V20.8711L335.965 20.8711V26.5859L331.023 26.5859V38.5312H324.105V10.1289H331.023ZM332.227 43.7305V49.2305H304.641V35.9961H311.602V43.7305H332.227Z"/>
</mask>
<path d="M47.6875 10.1289V40.3359H40.8125V33.5469H36.4297V28.1328H40.8125V25.0391H36.4297V19.5391H40.8125V10.1289L47.6875 10.1289ZM35.7852 13.8672V19.1953H14V13.8672H21.8203V10H28.6953V13.8672H35.7852ZM25.1719 20.0977C30.7148 20.0977 34.7969 23.4492 34.7969 28.0469C34.7969 32.6875 30.7148 35.9531 25.1719 35.9531C19.7578 35.9531 15.6328 32.6875 15.6758 28.0469C15.6328 23.4492 19.7578 20.0977 25.1719 20.0977ZM25.1719 25.3828C23.3672 25.4258 22.0781 26.2422 22.0781 28.0469C22.0781 29.9805 23.3672 30.7539 25.1719 30.7539C26.9336 30.7539 28.3516 29.9805 28.3516 28.0469C28.3516 26.2422 26.9336 25.4258 25.1719 25.3828ZM48.5039 43.7305V49.2305H20.7461V37.8438H27.75V43.7305H48.5039ZM85.3711 10.043V29.8516H78.4961V10.043H85.3711ZM85.4141 31.4414V42.957H65.0898V44.2891H86.2734V49.6172H58.3438V37.9727H78.5391V36.6836H58.2578V31.4414H85.4141ZM67.8398 13.8242C67.7969 18.1641 69.8164 22.5469 76.6914 24.3945L73.3828 29.6797C68.957 28.498 66.0352 26.0918 64.2734 22.9766C62.4688 26.3926 59.418 29.0781 54.7773 30.3242L51.4258 24.9531C58.4727 23.0195 60.6211 18.207 60.6641 13.8242V10.7734H67.8398V13.8242ZM131.305 10.043V18.1211H136.246V23.75H131.305V32.043H124.387V10.043H131.305ZM120.004 12.2344C120.004 23.0625 113.559 30.1523 101.527 33.2891L98.8203 27.7891C107.113 25.877 111.453 22.0527 112.398 17.6484H100.883V12.2344L120.004 12.2344ZM131.305 33.332V49.3594H104.793V33.332H131.305ZM111.625 38.832V44.0312H124.516V38.832H111.625ZM169.332 10.043V18.8516H174.273V24.5234H169.332V32.9883H162.414V10.043H169.332ZM157.988 12.1055C157.988 23.0625 151.543 30.2383 139.512 33.1602L136.676 27.9609C145.184 25.9414 149.545 21.9883 150.469 17.5195H138.91V12.1055H157.988ZM169.332 34.4922V49.7891H162.414V39.9062H142.133V34.4922H169.332ZM209.121 10.043V49.918H202.16V10.043H209.121ZM187.293 12.707C193.352 12.6641 197.906 18.25 197.906 27.0156C197.906 35.9102 193.352 41.4531 187.293 41.4531C181.105 41.4531 176.508 35.9102 176.508 27.0156C176.508 18.25 181.105 12.6641 187.293 12.707ZM187.293 18.9375C184.758 18.8945 183.168 21.5156 183.168 27.0156C183.168 32.6016 184.758 35.1367 187.293 35.1367C189.656 35.1367 191.289 32.6016 191.289 27.0156C191.289 21.5156 189.656 18.8945 187.293 18.9375ZM257.375 10.1289V49.7461H250.414V10.1289H257.375ZM223.129 30.582C230.734 30.582 240.316 30.7109 248.91 29.5937L249.254 34.5781C246.031 35.1582 242.809 35.502 239.672 35.7383V48.5859H232.711V36.0391C229.639 36.125 226.652 36.125 223.859 36.125L223.129 30.582ZM248.18 22.2891V27.7461H237.137V12.5781H248.008V18.0352H243.883V22.2891H248.18ZM235.418 12.5781V18.0352H231.68V22.2891C232.99 22.2031 234.258 22.0312 235.719 21.7305L236.062 27.1016C233.055 27.7031 230.691 27.7461 226.996 27.7461H224.848V12.5781H235.418ZM272.328 12.707C277.635 12.6641 281.674 16.9395 282.641 23.8789H288.27V10.043H295.102V49.918H288.27V29.3789H282.727C281.996 36.877 277.828 41.4531 272.328 41.4531C266.184 41.4531 261.758 35.9102 261.758 27.0156C261.758 18.25 266.184 12.6641 272.328 12.707ZM272.328 18.9375C269.965 18.8945 268.332 21.5156 268.375 27.0156C268.332 32.6016 269.965 35.1367 272.328 35.1367C274.734 35.1367 276.281 32.6016 276.281 27.0156C276.281 21.5156 274.734 18.8945 272.328 18.9375ZM307.52 12.5781V26.7578C311.902 26.6719 316.672 26.3281 321.57 25.2969L322.344 30.8828C315.984 32.1719 309.711 32.4727 304.168 32.4727H300.602V12.5781H307.52ZM331.023 10.1289V20.8711L335.965 20.8711V26.5859L331.023 26.5859V38.5312H324.105V10.1289H331.023ZM332.227 43.7305V49.2305H304.641V35.9961H311.602V43.7305H332.227Z" fill="#11DCA9"/>
<path d="M47.6875 10.1289H57.6875C57.6875 4.60606 53.2103 0.128906 47.6875 0.128906V10.1289ZM47.6875 40.3359V50.3359C53.2103 50.3359 57.6875 45.8588 57.6875 40.3359H47.6875ZM40.8125 40.3359H30.8125C30.8125 45.8588 35.2897 50.3359 40.8125 50.3359V40.3359ZM40.8125 33.5469H50.8125C50.8125 28.024 46.3353 23.5469 40.8125 23.5469V33.5469ZM36.4297 33.5469H26.4297C26.4297 39.0697 30.9068 43.5469 36.4297 43.5469V33.5469ZM36.4297 28.1328V18.1328C30.9068 18.1328 26.4297 22.61 26.4297 28.1328H36.4297ZM40.8125 28.1328V38.1328C46.3353 38.1328 50.8125 33.6557 50.8125 28.1328H40.8125ZM40.8125 25.0391H50.8125C50.8125 19.5162 46.3353 15.0391 40.8125 15.0391V25.0391ZM36.4297 25.0391H26.4297C26.4297 30.5619 30.9068 35.0391 36.4297 35.0391V25.0391ZM36.4297 19.5391V9.53906C30.9068 9.53906 26.4297 14.0162 26.4297 19.5391H36.4297ZM40.8125 19.5391V29.5391C46.3353 29.5391 50.8125 25.0619 50.8125 19.5391H40.8125ZM40.8125 10.1289V0.128906C35.2897 0.128906 30.8125 4.60606 30.8125 10.1289H40.8125ZM35.7852 13.8672H45.7852C45.7852 8.34434 41.308 3.86719 35.7852 3.86719V13.8672ZM35.7852 19.1953V29.1953C41.308 29.1953 45.7852 24.7182 45.7852 19.1953H35.7852ZM14 19.1953H4C4 24.7182 8.47715 29.1953 14 29.1953V19.1953ZM14 13.8672V3.86719C8.47715 3.86719 4 8.34434 4 13.8672H14ZM21.8203 13.8672V23.8672C27.3432 23.8672 31.8203 19.39 31.8203 13.8672H21.8203ZM21.8203 10V0C16.2975 0 11.8203 4.47715 11.8203 10H21.8203ZM28.6953 10H38.6953C38.6953 4.47715 34.2182 0 28.6953 0V10ZM28.6953 13.8672H18.6953C18.6953 19.39 23.1725 23.8672 28.6953 23.8672V13.8672ZM15.6758 28.0469L25.6754 28.1395C25.6759 28.0775 25.6759 28.0154 25.6753 27.9534L15.6758 28.0469ZM25.1719 25.3828L25.4157 15.3858C25.2551 15.3819 25.0944 15.3818 24.9338 15.3856L25.1719 25.3828ZM48.5039 43.7305H58.5039C58.5039 38.2076 54.0268 33.7305 48.5039 33.7305V43.7305ZM48.5039 49.2305V59.2305C54.0268 59.2305 58.5039 54.7533 58.5039 49.2305H48.5039ZM20.7461 49.2305H10.7461C10.7461 54.7533 15.2232 59.2305 20.7461 59.2305V49.2305ZM20.7461 37.8438V27.8438C15.2232 27.8438 10.7461 32.3209 10.7461 37.8438H20.7461ZM27.75 37.8438H37.75C37.75 32.3209 33.2728 27.8438 27.75 27.8438V37.8438ZM27.75 43.7305H17.75C17.75 49.2533 22.2272 53.7305 27.75 53.7305V43.7305ZM47.6875 10.1289L37.6875 10.1289V40.3359H47.6875H57.6875V10.1289H47.6875ZM47.6875 40.3359V30.3359H40.8125V40.3359V50.3359H47.6875V40.3359ZM40.8125 40.3359H50.8125V33.5469H40.8125H30.8125V40.3359H40.8125ZM40.8125 33.5469V23.5469H36.4297V33.5469V43.5469H40.8125V33.5469ZM36.4297 33.5469H46.4297V28.1328H36.4297H26.4297V33.5469H36.4297ZM36.4297 28.1328V38.1328H40.8125V28.1328V18.1328H36.4297V28.1328ZM40.8125 28.1328H50.8125V25.0391H40.8125H30.8125V28.1328H40.8125ZM40.8125 25.0391V15.0391H36.4297V25.0391V35.0391H40.8125V25.0391ZM36.4297 25.0391H46.4297V19.5391H36.4297H26.4297V25.0391H36.4297ZM36.4297 19.5391V29.5391H40.8125V19.5391V9.53906H36.4297V19.5391ZM40.8125 19.5391H50.8125V10.1289L40.8125 10.1289H30.8125V19.5391H40.8125ZM40.8125 10.1289V20.1289H47.6875V10.1289V0.128906H40.8125V10.1289ZM35.7852 13.8672H25.7852V19.1953H35.7852H45.7852V13.8672H35.7852ZM35.7852 19.1953V9.19531H14V19.1953V29.1953H35.7852V19.1953ZM14 19.1953H24V13.8672H14H4V19.1953H14ZM14 13.8672V23.8672H21.8203V13.8672V3.86719H14V13.8672ZM21.8203 13.8672H31.8203V10H21.8203H11.8203V13.8672H21.8203ZM21.8203 10V20H28.6953V10V0H21.8203V10ZM28.6953 10H18.6953V13.8672H28.6953H38.6953V10H28.6953ZM28.6953 13.8672V23.8672H35.7852V13.8672V3.86719L28.6953 3.86719V13.8672ZM25.1719 20.0977V30.0977C25.9738 30.0977 26.0332 30.3373 25.7017 30.064C25.5285 29.9211 25.2847 29.6588 25.0871 29.2542C24.8838 28.838 24.7969 28.4072 24.7969 28.0469H34.7969H44.7969C44.7969 16.2071 34.345 10.0977 25.1719 10.0977V20.0977ZM34.7969 28.0469H24.7969C24.7969 27.7101 24.8783 27.2776 25.0908 26.8435C25.2977 26.4206 25.5568 26.1423 25.7452 25.9888C26.1006 25.6991 26.0372 25.9531 25.1719 25.9531V35.9531V45.9531C34.229 45.9531 44.7969 40.0247 44.7969 28.0469H34.7969ZM25.1719 35.9531V25.9531C24.4156 25.9531 24.3726 25.7241 24.7191 26.0083C24.905 26.1608 25.1667 26.4413 25.3766 26.874C25.5933 27.3204 25.6787 27.7741 25.6754 28.1395L15.6758 28.0469L5.67621 27.9543C5.56464 40.0036 16.2481 45.9531 25.1719 45.9531V35.9531ZM15.6758 28.0469L25.6753 27.9534C25.679 28.3429 25.5877 28.7953 25.3802 29.2237C25.1796 29.6381 24.9332 29.9027 24.7626 30.0443C24.4407 30.3113 24.4795 30.0977 25.1719 30.0977V20.0977V10.0977C16.132 10.0977 5.56489 16.2284 5.67622 28.1403L15.6758 28.0469ZM25.1719 25.3828L24.9338 15.3856C22.7732 15.4371 19.583 15.957 16.7294 18.2231C13.4915 20.7944 12.0781 24.5006 12.0781 28.0469H22.0781H32.0781C32.0781 29.7885 31.3093 32.1842 29.1671 33.8853C27.4092 35.2813 25.7658 35.3715 25.4099 35.38L25.1719 25.3828ZM22.0781 28.0469H12.0781C12.0781 31.4249 13.3333 35.2597 16.7294 37.9566C19.7235 40.3343 23.0635 40.7539 25.1719 40.7539V30.7539V20.7539C25.4756 20.7539 27.2686 20.7868 29.1671 22.2944C31.4675 24.1212 32.0781 26.6025 32.0781 28.0469H22.0781ZM25.1719 30.7539V40.7539C27.306 40.7539 30.5298 40.3153 33.4581 38.0986C36.8239 35.5506 38.3516 31.7573 38.3516 28.0469H28.3516H18.3516C18.3516 27.2985 18.493 26.2323 19.0379 25.0625C19.5957 23.8652 20.4307 22.8761 21.3867 22.1524C23.1655 20.8058 24.7995 20.7539 25.1719 20.7539V30.7539ZM28.3516 28.0469H38.3516C38.3516 24.1632 36.6475 20.4955 33.4581 18.0811C30.6695 15.9701 27.5888 15.4388 25.4157 15.3858L25.1719 25.3828L24.928 35.3798C24.5167 35.3698 23.0258 35.2681 21.3867 34.0273C20.5061 33.3607 19.6804 32.4263 19.1041 31.2376C18.532 30.0575 18.3516 28.9291 18.3516 28.0469H28.3516ZM48.5039 43.7305H38.5039V49.2305H48.5039H58.5039V43.7305H48.5039ZM48.5039 49.2305V39.2305H20.7461V49.2305V59.2305H48.5039V49.2305ZM20.7461 49.2305H30.7461V37.8438H20.7461H10.7461V49.2305H20.7461ZM20.7461 37.8438V47.8438H27.75V37.8438V27.8438H20.7461V37.8438ZM27.75 37.8438H17.75V43.7305H27.75H37.75V37.8438H27.75ZM27.75 43.7305V53.7305H48.5039V43.7305V33.7305H27.75V43.7305ZM85.3711 10.043H95.3711C95.3711 4.52012 90.8939 0.0429687 85.3711 0.0429687V10.043ZM85.3711 29.8516V39.8516C90.8939 39.8516 95.3711 35.3744 95.3711 29.8516H85.3711ZM78.4961 29.8516H68.4961C68.4961 35.3744 72.9732 39.8516 78.4961 39.8516V29.8516ZM78.4961 10.043V0.0429687C72.9732 0.0429687 68.4961 4.52012 68.4961 10.043H78.4961ZM85.4141 31.4414H95.4141C95.4141 25.9186 90.9369 21.4414 85.4141 21.4414V31.4414ZM85.4141 42.957V52.957C90.9369 52.957 95.4141 48.4799 95.4141 42.957H85.4141ZM65.0898 42.957V32.957C59.567 32.957 55.0898 37.4342 55.0898 42.957H65.0898ZM65.0898 44.2891H55.0898C55.0898 49.8119 59.567 54.2891 65.0898 54.2891V44.2891ZM86.2734 44.2891H96.2734C96.2734 38.7662 91.7963 34.2891 86.2734 34.2891V44.2891ZM86.2734 49.6172V59.6172C91.7963 59.6172 96.2734 55.14 96.2734 49.6172H86.2734ZM58.3438 49.6172H48.3438C48.3438 55.14 52.8209 59.6172 58.3438 59.6172V49.6172ZM58.3438 37.9727V27.9727C52.8209 27.9727 48.3438 32.4498 48.3438 37.9727H58.3438ZM78.5391 37.9727V47.9727C84.0619 47.9727 88.5391 43.4955 88.5391 37.9727H78.5391ZM78.5391 36.6836H88.5391C88.5391 31.1607 84.0619 26.6836 78.5391 26.6836V36.6836ZM58.2578 36.6836H48.2578C48.2578 42.2064 52.735 46.6836 58.2578 46.6836V36.6836ZM58.2578 31.4414V21.4414C52.735 21.4414 48.2578 25.9186 48.2578 31.4414H58.2578ZM67.8398 13.8242L77.8394 13.9232C77.8397 13.8902 77.8398 13.8572 77.8398 13.8242L67.8398 13.8242ZM76.6914 24.3945L85.1675 29.7007C86.8498 27.0134 87.1581 23.6876 85.9985 20.7368C84.8388 17.7861 82.3486 15.5601 79.2868 14.7372L76.6914 24.3945ZM73.3828 29.6797L70.8033 39.3413C75.045 40.4738 79.5293 38.7072 81.8589 34.9859L73.3828 29.6797ZM64.2734 22.9766L72.9779 18.054C71.1783 14.8718 67.7857 12.9252 64.1302 12.9776C60.4748 13.0299 57.1392 15.0729 55.4315 18.3054L64.2734 22.9766ZM54.7773 30.3242L46.2935 35.6181C48.6234 39.3518 53.1203 41.1234 57.3707 39.9821L54.7773 30.3242ZM51.4258 24.9531L48.7797 15.3096C45.7336 16.1454 43.2615 18.3712 42.1118 21.3131C40.962 24.2551 41.2698 27.5673 42.942 30.247L51.4258 24.9531ZM60.6641 13.8242L70.6636 13.9223C70.6639 13.8896 70.6641 13.8569 70.6641 13.8242H60.6641ZM60.6641 10.7734V0.773437C55.1412 0.773437 50.6641 5.25059 50.6641 10.7734H60.6641ZM67.8398 10.7734H77.8398C77.8398 5.25059 73.3627 0.773437 67.8398 0.773437V10.7734ZM85.3711 10.043H75.3711V29.8516H85.3711H95.3711V10.043H85.3711ZM85.3711 29.8516V19.8516H78.4961V29.8516V39.8516H85.3711V29.8516ZM78.4961 29.8516H88.4961V10.043H78.4961H68.4961V29.8516H78.4961ZM78.4961 10.043V20.043H85.3711V10.043V0.0429687L78.4961 0.0429687V10.043ZM85.4141 31.4414H75.4141V42.957H85.4141H95.4141V31.4414H85.4141ZM85.4141 42.957V32.957H65.0898V42.957V52.957H85.4141V42.957ZM65.0898 42.957H55.0898V44.2891H65.0898H75.0898V42.957H65.0898ZM65.0898 44.2891V54.2891H86.2734V44.2891V34.2891H65.0898V44.2891ZM86.2734 44.2891H76.2734V49.6172H86.2734H96.2734V44.2891H86.2734ZM86.2734 49.6172V39.6172H58.3438V49.6172V59.6172H86.2734V49.6172ZM58.3438 49.6172H68.3438V37.9727H58.3438H48.3438V49.6172H58.3438ZM58.3438 37.9727V47.9727H78.5391V37.9727V27.9727L58.3438 27.9727V37.9727ZM78.5391 37.9727H88.5391V36.6836H78.5391H68.5391V37.9727H78.5391ZM78.5391 36.6836V26.6836L58.2578 26.6836V36.6836V46.6836H78.5391V36.6836ZM58.2578 36.6836H68.2578V31.4414H58.2578H48.2578V36.6836H58.2578ZM58.2578 31.4414V41.4414H85.4141V31.4414V21.4414L58.2578 21.4414V31.4414ZM67.8398 13.8242L57.8403 13.7252C57.8034 17.4576 58.6568 21.8993 61.583 25.9243C64.5534 30.01 68.9306 32.6637 74.096 34.0519L76.6914 24.3945L79.2868 14.7372C78.403 14.4997 77.9576 14.2566 77.7875 14.1478C77.6352 14.0505 77.6718 14.0427 77.7598 14.1636C77.9681 14.4503 77.8333 14.5307 77.8394 13.9232L67.8398 13.8242ZM76.6914 24.3945L68.2153 19.0883L64.9067 24.3735L73.3828 29.6797L81.8589 34.9859L85.1675 29.7007L76.6914 24.3945ZM73.3828 29.6797L75.9624 20.0181C74.871 19.7267 74.2357 19.361 73.8655 19.0806C73.5025 18.8058 73.2203 18.4825 72.9779 18.054L64.2734 22.9766L55.5689 27.8991C58.7264 33.4825 63.9301 37.5062 70.8033 39.3413L73.3828 29.6797ZM64.2734 22.9766L55.4315 18.3054C55.1213 18.8924 54.7615 19.3199 54.3435 19.6541C53.9283 19.9862 53.2702 20.3747 52.184 20.6663L54.7773 30.3242L57.3707 39.9821C64.7107 38.0112 70.0184 33.5098 73.1154 27.6478L64.2734 22.9766ZM54.7773 30.3242L63.2611 25.0303L59.9096 19.6592L51.4258 24.9531L42.942 30.247L46.2935 35.6181L54.7773 30.3242ZM51.4258 24.9531L54.0719 34.5967C59.4821 33.1122 63.8636 30.2426 66.8087 26.1195C69.6811 22.0981 70.6268 17.6725 70.6636 13.9223L60.6641 13.8242L50.6645 13.7262C50.6615 14.032 50.622 14.2413 50.5873 14.3612C50.5707 14.4185 50.5561 14.4528 50.5482 14.4695C50.5407 14.4852 50.5362 14.4918 50.5341 14.4947C50.5324 14.4971 50.5229 14.5105 50.4967 14.5357C50.4704 14.561 50.4128 14.6123 50.3075 14.6821C50.1017 14.8187 49.6423 15.0729 48.7797 15.3096L51.4258 24.9531ZM60.6641 13.8242H70.6641V10.7734H60.6641H50.6641V13.8242H60.6641ZM60.6641 10.7734V20.7734H67.8398V10.7734V0.773437L60.6641 0.773437V10.7734ZM67.8398 10.7734H57.8398V13.8242H67.8398L77.8398 13.8242V10.7734H67.8398ZM131.305 10.043H141.305C141.305 4.52012 136.828 0.0429687 131.305 0.0429687V10.043ZM131.305 18.1211H121.305C121.305 23.6439 125.782 28.1211 131.305 28.1211V18.1211ZM136.246 18.1211H146.246C146.246 12.5982 141.769 8.12109 136.246 8.12109V18.1211ZM136.246 23.75V33.75C141.769 33.75 146.246 29.2728 146.246 23.75H136.246ZM131.305 23.75V13.75C125.782 13.75 121.305 18.2272 121.305 23.75H131.305ZM131.305 32.043V42.043C136.828 42.043 141.305 37.5658 141.305 32.043L131.305 32.043ZM124.387 32.043H114.387C114.387 37.5658 118.864 42.043 124.387 42.043V32.043ZM124.387 10.043V0.0429687C118.864 0.0429687 114.387 4.52012 114.387 10.043H124.387ZM120.004 12.2344H130.004C130.004 6.71153 125.527 2.23437 120.004 2.23437V12.2344ZM101.527 33.2891L92.5552 37.705C94.652 41.9652 99.4555 44.1635 104.05 42.9656L101.527 33.2891ZM98.8203 27.7891L96.5736 18.0447C93.5972 18.731 91.0977 20.7398 89.7873 23.4989C88.477 26.2579 88.4994 29.4646 89.8482 32.205L98.8203 27.7891ZM112.398 17.6484L122.176 19.747C122.81 16.7937 122.075 13.7122 120.176 11.363C118.278 9.0137 115.419 7.64844 112.398 7.64844V17.6484ZM100.883 17.6484H90.8828C90.8828 23.1713 95.36 27.6484 100.883 27.6484V17.6484ZM100.883 12.2344V2.23437C95.36 2.23437 90.8828 6.71153 90.8828 12.2344H100.883ZM131.305 33.332L141.305 33.332C141.305 27.8092 136.828 23.332 131.305 23.332V33.332ZM131.305 49.3594V59.3594C136.828 59.3594 141.305 54.8822 141.305 49.3594L131.305 49.3594ZM104.793 49.3594H94.793C94.793 54.8822 99.2701 59.3594 104.793 59.3594V49.3594ZM104.793 33.332V23.332C99.2701 23.332 94.793 27.8092 94.793 33.332H104.793ZM111.625 38.832V28.832C106.102 28.832 101.625 33.3092 101.625 38.832H111.625ZM111.625 44.0312H101.625C101.625 49.5541 106.102 54.0312 111.625 54.0312V44.0312ZM124.516 44.0312V54.0312C130.038 54.0312 134.516 49.5541 134.516 44.0312H124.516ZM124.516 38.832H134.516C134.516 33.3092 130.038 28.832 124.516 28.832V38.832ZM131.305 10.043H121.305V18.1211H131.305H141.305V10.043H131.305ZM131.305 18.1211V28.1211H136.246V18.1211V8.12109H131.305V18.1211ZM136.246 18.1211H126.246V23.75H136.246H146.246V18.1211H136.246ZM136.246 23.75V13.75H131.305V23.75V33.75H136.246V23.75ZM131.305 23.75H121.305V32.043H131.305L141.305 32.043V23.75H131.305ZM131.305 32.043V22.043H124.387V32.043V42.043H131.305V32.043ZM124.387 32.043H134.387V10.043H124.387H114.387V32.043H124.387ZM124.387 10.043V20.043H131.305V10.043V0.0429687H124.387V10.043ZM120.004 12.2344H110.004C110.004 15.5274 109.085 17.5544 107.791 19.0166C106.365 20.626 103.731 22.3803 99.0045 23.6125L101.527 33.2891L104.05 42.9656C111.355 41.0611 117.959 37.7021 122.764 32.2754C127.7 26.7015 130.004 19.7695 130.004 12.2344H120.004ZM101.527 33.2891L110.499 28.8731L107.792 23.3731L98.8203 27.7891L89.8482 32.205L92.5552 37.705L101.527 33.2891ZM98.8203 27.7891L101.067 37.5334C110.923 35.2609 120.028 29.7543 122.176 19.747L112.398 17.6484L102.621 15.5499C102.716 15.1055 102.909 15.227 102.217 15.7659C101.438 16.3731 99.7429 17.314 96.5736 18.0447L98.8203 27.7891ZM112.398 17.6484V7.64844L100.883 7.64844V17.6484V27.6484H112.398V17.6484ZM100.883 17.6484H110.883V12.2344L100.883 12.2344H90.8828V17.6484H100.883ZM100.883 12.2344V22.2344H120.004V12.2344V2.23437H100.883V12.2344ZM131.305 33.332H121.305V49.3594H131.305L141.305 49.3594V33.332L131.305 33.332ZM131.305 49.3594V39.3594H104.793V49.3594V59.3594H131.305V49.3594ZM104.793 49.3594H114.793V33.332H104.793H94.793V49.3594H104.793ZM104.793 33.332V43.332H131.305V33.332V23.332H104.793V33.332ZM111.625 38.832H101.625V44.0312H111.625H121.625V38.832H111.625ZM111.625 44.0312V54.0312H124.516V44.0312V34.0312H111.625V44.0312ZM124.516 44.0312H134.516V38.832H124.516H114.516V44.0312H124.516ZM124.516 38.832V28.832H111.625V38.832V48.832H124.516V38.832ZM169.332 10.043L179.332 10.043C179.332 4.52012 174.855 0.0429687 169.332 0.0429687V10.043ZM169.332 18.8516H159.332C159.332 24.3744 163.809 28.8516 169.332 28.8516V18.8516ZM174.273 18.8516H184.273C184.273 13.3287 179.796 8.85156 174.273 8.85156V18.8516ZM174.273 24.5234V34.5234C179.796 34.5234 184.273 30.0463 184.273 24.5234H174.273ZM169.332 24.5234V14.5234C163.809 14.5234 159.332 19.0006 159.332 24.5234H169.332ZM169.332 32.9883V42.9883C174.855 42.9883 179.332 38.5111 179.332 32.9883H169.332ZM162.414 32.9883H152.414C152.414 38.5111 156.891 42.9883 162.414 42.9883V32.9883ZM162.414 10.043V0.0429687C156.891 0.0429687 152.414 4.52012 152.414 10.043H162.414ZM157.988 12.1055H167.988C167.988 6.58262 163.511 2.10547 157.988 2.10547V12.1055ZM139.512 33.1602L130.733 37.9487C132.901 41.9244 137.471 43.9464 141.872 42.8777L139.512 33.1602ZM136.676 27.9609L134.366 18.2313C131.334 18.9511 128.81 21.0438 127.542 23.8907C126.273 26.7376 126.404 30.0132 127.897 32.7495L136.676 27.9609ZM150.469 17.5195L160.262 19.544C160.87 16.5991 160.122 13.5364 158.223 11.2047C156.324 8.87288 153.476 7.51953 150.469 7.51953V17.5195ZM138.91 17.5195H128.91C128.91 23.0424 133.387 27.5195 138.91 27.5195V17.5195ZM138.91 12.1055V2.10547C133.387 2.10547 128.91 6.58262 128.91 12.1055H138.91ZM169.332 34.4922H179.332C179.332 28.9693 174.855 24.4922 169.332 24.4922V34.4922ZM169.332 49.7891V59.7891C174.855 59.7891 179.332 55.3119 179.332 49.7891H169.332ZM162.414 49.7891H152.414C152.414 55.3119 156.891 59.7891 162.414 59.7891V49.7891ZM162.414 39.9062H172.414C172.414 34.3834 167.937 29.9062 162.414 29.9062V39.9062ZM142.133 39.9062L132.133 39.9062C132.133 45.4291 136.61 49.9062 142.133 49.9062V39.9062ZM142.133 34.4922V24.4922C136.61 24.4922 132.133 28.9693 132.133 34.4922L142.133 34.4922ZM169.332 10.043H159.332V18.8516H169.332H179.332V10.043L169.332 10.043ZM169.332 18.8516V28.8516H174.273V18.8516V8.85156L169.332 8.85156V18.8516ZM174.273 18.8516H164.273V24.5234H174.273H184.273V18.8516H174.273ZM174.273 24.5234V14.5234H169.332V24.5234V34.5234H174.273V24.5234ZM169.332 24.5234H159.332V32.9883H169.332H179.332V24.5234H169.332ZM169.332 32.9883V22.9883H162.414V32.9883V42.9883H169.332V32.9883ZM162.414 32.9883H172.414V10.043H162.414H152.414V32.9883H162.414ZM162.414 10.043V20.043H169.332V10.043V0.0429687L162.414 0.0429687V10.043ZM157.988 12.1055H147.988C147.988 15.5048 147.045 17.5781 145.765 19.0279C144.373 20.6047 141.798 22.3142 137.152 23.4426L139.512 33.1602L141.872 42.8777C149.256 41.0843 155.92 37.7449 160.758 32.2641C165.709 26.6563 167.988 19.6632 167.988 12.1055H157.988ZM139.512 33.1602L148.291 28.3716L145.455 23.1724L136.676 27.9609L127.897 32.7495L130.733 37.9487L139.512 33.1602ZM136.676 27.9609L138.985 37.6906C149.082 35.2939 158.18 29.6131 160.262 19.544L150.469 17.5195L140.676 15.495C140.759 15.0906 140.928 15.2483 140.203 15.8229C139.391 16.4671 137.639 17.4544 134.366 18.2313L136.676 27.9609ZM150.469 17.5195V7.51953H138.91V17.5195V27.5195H150.469V17.5195ZM138.91 17.5195H148.91V12.1055H138.91H128.91V17.5195H138.91ZM138.91 12.1055V22.1055H157.988V12.1055V2.10547L138.91 2.10547V12.1055ZM169.332 34.4922H159.332V49.7891H169.332H179.332V34.4922H169.332ZM169.332 49.7891V39.7891H162.414V49.7891V59.7891H169.332V49.7891ZM162.414 49.7891H172.414V39.9062H162.414H152.414V49.7891H162.414ZM162.414 39.9062V29.9062H142.133V39.9062V49.9062H162.414V39.9062ZM142.133 39.9062H152.133V34.4922H142.133L132.133 34.4922V39.9062L142.133 39.9062ZM142.133 34.4922V44.4922H169.332V34.4922V24.4922H142.133V34.4922ZM209.121 10.043H219.121C219.121 4.52012 214.644 0.0429687 209.121 0.0429687V10.043ZM209.121 49.918V59.918C214.644 59.918 219.121 55.4408 219.121 49.918H209.121ZM202.16 49.918H192.16C192.16 55.4408 196.637 59.918 202.16 59.918V49.918ZM202.16 10.043V0.0429687C196.637 0.0429687 192.16 4.52012 192.16 10.043H202.16ZM187.293 12.707L187.224 22.7068C187.27 22.7071 187.317 22.7071 187.364 22.7068L187.293 12.707ZM187.293 18.9375L187.124 28.9361C187.241 28.938 187.358 28.938 187.475 28.9358L187.293 18.9375ZM209.121 10.043H199.121V49.918H209.121H219.121V10.043H209.121ZM209.121 49.918V39.918H202.16V49.918V59.918H209.121V49.918ZM202.16 49.918H212.16V10.043H202.16H192.16V49.918H202.16ZM202.16 10.043V20.043L209.121 20.043V10.043V0.0429687H202.16V10.043ZM187.293 12.707L187.364 22.7068C187.296 22.7073 187.127 22.6835 186.951 22.5938C186.79 22.511 186.798 22.4628 186.919 22.6211C187.19 22.9757 187.906 24.2764 187.906 27.0156H197.906L207.906 27.0156C207.906 20.9893 206.346 15.1141 202.824 10.4951C199.177 5.71116 193.644 2.66174 187.222 2.70728L187.293 12.707ZM197.906 27.0156H187.906C187.906 29.8458 187.177 31.1679 186.907 31.5233C186.786 31.6821 186.775 31.637 186.929 31.5576C187.095 31.4722 187.248 31.4531 187.293 31.4531V41.4531V51.4531C193.666 51.4531 199.185 48.4264 202.837 43.6163C206.359 38.9767 207.906 33.08 207.906 27.0156L197.906 27.0156ZM187.293 41.4531V31.4531C187.271 31.4531 187.376 31.4565 187.514 31.526C187.642 31.5909 187.623 31.6244 187.504 31.4694C187.238 31.1245 186.508 29.8268 186.508 27.0156H176.508H166.508C166.508 33.0989 168.076 39.02 171.656 43.6702C175.369 48.4928 180.931 51.4531 187.293 51.4531V41.4531ZM176.508 27.0156H186.508C186.508 24.2956 187.225 23.0192 187.491 22.675C187.611 22.5203 187.627 22.5569 187.492 22.6251C187.431 22.6556 187.365 22.6793 187.303 22.6937C187.241 22.7079 187.21 22.7067 187.224 22.7068L187.293 12.707L187.362 2.70727C180.953 2.66276 175.378 5.64447 171.669 10.4412C168.09 15.0706 166.508 20.97 166.508 27.0156H176.508ZM187.293 18.9375L187.462 8.93894C181.831 8.84349 177.633 12.1176 175.459 16.1866C173.618 19.633 173.168 23.5815 173.168 27.0156H183.168H193.168C193.168 26.0989 193.236 25.5327 193.289 25.2484C193.345 24.9423 193.351 25.1395 193.1 25.6093C192.834 26.1079 192.208 27.0333 190.994 27.8152C189.716 28.6385 188.319 28.9563 187.124 28.9361L187.293 18.9375ZM183.168 27.0156H173.168C173.168 30.4701 173.612 34.4374 175.467 37.8971C177.682 42.0266 181.857 45.1367 187.293 45.1367V35.1367V25.1367C188.403 25.1367 189.739 25.4395 190.986 26.2412C192.183 27.0103 192.814 27.9261 193.092 28.4447C193.351 28.9275 193.347 29.1358 193.29 28.8278C193.237 28.5407 193.168 27.9624 193.168 27.0156H183.168ZM187.293 35.1367V45.1367C192.892 45.1367 196.943 41.7724 199.019 37.8416C200.819 34.4356 201.289 30.5236 201.289 27.0156H191.289H181.289C181.289 27.9469 181.219 28.5236 181.165 28.8154C181.107 29.1272 181.098 28.9492 181.335 28.5002C181.584 28.0295 182.179 27.1281 183.351 26.3434C184.592 25.5133 186.001 25.1367 187.293 25.1367V35.1367ZM191.289 27.0156H201.289C201.289 23.5283 200.812 19.6343 199.027 16.2419C196.997 12.3823 192.918 8.83358 187.111 8.93915L187.293 18.9375L187.475 28.9358C186.089 28.961 184.614 28.5647 183.344 27.7127C182.155 26.9153 181.564 26.0044 181.327 25.5539C181.098 25.118 181.109 24.9508 181.167 25.2609C181.221 25.55 181.289 26.1145 181.289 27.0156H191.289ZM257.375 10.1289H267.375C267.375 4.60606 262.898 0.128906 257.375 0.128906V10.1289ZM257.375 49.7461V59.7461C262.898 59.7461 267.375 55.2689 267.375 49.7461H257.375ZM250.414 49.7461H240.414C240.414 55.2689 244.891 59.7461 250.414 59.7461V49.7461ZM250.414 10.1289V0.128906C244.891 0.128906 240.414 4.60606 240.414 10.1289H250.414ZM223.129 30.582V20.582C220.249 20.582 217.509 21.8237 215.61 23.9891C213.711 26.1544 212.838 29.0333 213.215 31.8886L223.129 30.582ZM248.91 29.5937L258.886 28.9057C258.697 26.1553 257.38 23.6051 255.247 21.858C253.114 20.1109 250.355 19.3218 247.621 19.6772L248.91 29.5937ZM249.254 34.5781L251.025 44.42C256.046 43.5163 259.581 38.9789 259.23 33.8901L249.254 34.5781ZM239.672 35.7383L238.921 25.7665C233.704 26.1596 229.672 30.5069 229.672 35.7383H239.672ZM239.672 48.5859V58.5859C245.195 58.5859 249.672 54.1088 249.672 48.5859H239.672ZM232.711 48.5859H222.711C222.711 54.1088 227.188 58.5859 232.711 58.5859V48.5859ZM232.711 36.0391H242.711C242.711 33.3384 241.619 30.7526 239.682 28.8698C237.746 26.9871 235.131 25.9675 232.431 26.043L232.711 36.0391ZM223.859 36.125L213.945 37.4315C214.601 42.4063 218.842 46.125 223.859 46.125V36.125ZM248.18 22.2891H258.18C258.18 16.7662 253.703 12.2891 248.18 12.2891V22.2891ZM248.18 27.7461V37.7461C253.703 37.7461 258.18 33.2689 258.18 27.7461H248.18ZM237.137 27.7461H227.137C227.137 33.2689 231.614 37.7461 237.137 37.7461V27.7461ZM237.137 12.5781V2.57812C231.614 2.57812 227.137 7.05528 227.137 12.5781H237.137ZM248.008 12.5781H258.008C258.008 7.05528 253.531 2.57812 248.008 2.57812V12.5781ZM248.008 18.0352V28.0352C253.531 28.0352 258.008 23.558 258.008 18.0352H248.008ZM243.883 18.0352V8.03516C238.36 8.03516 233.883 12.5123 233.883 18.0352H243.883ZM243.883 22.2891H233.883C233.883 27.8119 238.36 32.2891 243.883 32.2891V22.2891ZM235.418 12.5781H245.418C245.418 7.05528 240.941 2.57812 235.418 2.57812V12.5781ZM235.418 18.0352V28.0352C240.941 28.0352 245.418 23.558 245.418 18.0352H235.418ZM231.68 18.0352V8.03516C226.157 8.03516 221.68 12.5123 221.68 18.0352H231.68ZM231.68 22.2891H221.68C221.68 25.0549 222.825 27.6972 224.844 29.5878C226.863 31.4785 229.574 32.4486 232.334 32.2676L231.68 22.2891ZM235.719 21.7305L245.698 21.0918C245.513 18.2036 244.086 15.5371 241.786 13.7813C239.485 12.0254 236.537 11.3523 233.702 11.9359L235.719 21.7305ZM236.062 27.1016L238.024 36.9074C242.935 35.9251 246.362 31.4611 246.042 26.4629L236.062 27.1016ZM224.848 27.7461H214.848C214.848 33.2689 219.325 37.7461 224.848 37.7461V27.7461ZM224.848 12.5781V2.57812C219.325 2.57812 214.848 7.05528 214.848 12.5781H224.848ZM257.375 10.1289H247.375V49.7461H257.375H267.375V10.1289H257.375ZM257.375 49.7461V39.7461H250.414V49.7461V59.7461H257.375V49.7461ZM250.414 49.7461H260.414V10.1289H250.414H240.414V49.7461H250.414ZM250.414 10.1289V20.1289H257.375V10.1289V0.128906H250.414V10.1289ZM223.129 30.582V40.582C230.459 40.582 240.81 40.7309 250.199 39.5103L248.91 29.5937L247.621 19.6772C239.823 20.691 231.01 20.582 223.129 20.582V30.582ZM248.91 29.5937L238.934 30.2818L239.278 35.2661L249.254 34.5781L259.23 33.8901L258.886 28.9057L248.91 29.5937ZM249.254 34.5781L247.482 24.7363C244.713 25.2348 241.857 25.5453 238.921 25.7665L239.672 35.7383L240.423 45.71C243.76 45.4586 247.349 45.0817 251.025 44.42L249.254 34.5781ZM239.672 35.7383H229.672V48.5859H239.672H249.672V35.7383H239.672ZM239.672 48.5859V38.5859H232.711V48.5859V58.5859H239.672V48.5859ZM232.711 48.5859H242.711V36.0391H232.711H222.711V48.5859H232.711ZM232.711 36.0391L232.431 26.043C229.52 26.1244 226.67 26.125 223.859 26.125V36.125V46.125C226.634 46.125 229.757 46.1256 232.991 46.0352L232.711 36.0391ZM223.859 36.125L233.774 34.8185L233.043 29.2755L223.129 30.582L213.215 31.8886L213.945 37.4315L223.859 36.125ZM248.18 22.2891H238.18V27.7461H248.18H258.18V22.2891H248.18ZM248.18 27.7461V17.7461H237.137V27.7461V37.7461H248.18V27.7461ZM237.137 27.7461H247.137V12.5781H237.137H227.137V27.7461H237.137ZM237.137 12.5781V22.5781H248.008V12.5781V2.57812H237.137V12.5781ZM248.008 12.5781H238.008V18.0352H248.008H258.008V12.5781H248.008ZM248.008 18.0352V8.03516H243.883V18.0352V28.0352H248.008V18.0352ZM243.883 18.0352H233.883V22.2891H243.883H253.883V18.0352H243.883ZM243.883 22.2891V32.2891H248.18V22.2891V12.2891H243.883V22.2891ZM235.418 12.5781H225.418V18.0352H235.418H245.418V12.5781H235.418ZM235.418 18.0352V8.03516H231.68V18.0352V28.0352H235.418V18.0352ZM231.68 18.0352H221.68V22.2891H231.68H241.68V18.0352H231.68ZM231.68 22.2891L232.334 32.2676C234.135 32.1495 235.859 31.9114 237.735 31.525L235.719 21.7305L233.702 11.9359C232.657 12.1511 231.845 12.2567 231.025 12.3105L231.68 22.2891ZM235.719 21.7305L225.739 22.3692L226.083 27.7403L236.062 27.1016L246.042 26.4629L245.698 21.0918L235.719 21.7305ZM236.062 27.1016L234.101 17.2958C232.148 17.6865 230.651 17.7461 226.996 17.7461V27.7461V37.7461C230.732 37.7461 233.962 37.7197 238.024 36.9074L236.062 27.1016ZM226.996 27.7461V17.7461H224.848V27.7461V37.7461H226.996V27.7461ZM224.848 27.7461H234.848V12.5781H224.848H214.848V27.7461H224.848ZM224.848 12.5781V22.5781H235.418V12.5781V2.57812H224.848V12.5781ZM272.328 12.707L272.258 22.7068C272.309 22.7071 272.359 22.7071 272.409 22.7067L272.328 12.707ZM282.641 23.8789L272.736 25.2588C273.425 30.2007 277.651 33.8789 282.641 33.8789V23.8789ZM288.27 23.8789V33.8789C293.792 33.8789 298.27 29.4018 298.27 23.8789H288.27ZM288.27 10.043V0.0429687C282.747 0.0429687 278.27 4.52012 278.27 10.043H288.27ZM295.102 10.043L305.102 10.043C305.102 4.52012 300.624 0.0429687 295.102 0.0429687V10.043ZM295.102 49.918V59.918C300.624 59.918 305.102 55.4408 305.102 49.918H295.102ZM288.27 49.918H278.27C278.27 55.4408 282.747 59.918 288.27 59.918V49.918ZM288.27 29.3789H298.27C298.27 23.8561 293.792 19.3789 288.27 19.3789V29.3789ZM282.727 29.3789V19.3789C277.579 19.3789 273.273 23.2862 272.774 28.4093L282.727 29.3789ZM272.328 18.9375L272.146 28.9358C272.266 28.938 272.387 28.938 272.507 28.9359L272.328 18.9375ZM268.375 27.0156L278.375 27.0925C278.375 27.0409 278.375 26.9892 278.375 26.9375L268.375 27.0156ZM272.328 12.707L272.409 22.7067C272.357 22.7071 272.196 22.6919 272.004 22.6071C271.819 22.5253 271.752 22.4443 271.786 22.481C271.88 22.5821 272.467 23.3256 272.736 25.2588L282.641 23.8789L292.545 22.499C291.171 12.6372 284.399 2.60896 272.247 2.70736L272.328 12.707ZM282.641 23.8789V33.8789H288.27V23.8789V13.8789H282.641V23.8789ZM288.27 23.8789H298.27V10.043H288.27H278.27V23.8789H288.27ZM288.27 10.043V20.043H295.102V10.043V0.0429687L288.27 0.0429687V10.043ZM295.102 10.043H285.102V49.918H295.102H305.102V10.043L295.102 10.043ZM295.102 49.918V39.918H288.27V49.918V59.918H295.102V49.918ZM288.27 49.918H298.27V29.3789H288.27H278.27V49.918H288.27ZM288.27 29.3789V19.3789H282.727V29.3789V39.3789H288.27V29.3789ZM282.727 29.3789L272.774 28.4093C272.56 30.6022 271.925 31.4883 271.79 31.6434C271.735 31.7062 271.783 31.633 271.957 31.5519C272.138 31.4676 272.289 31.4531 272.328 31.4531V41.4531V51.4531C284.914 51.4531 291.663 40.7787 292.679 30.3485L282.727 29.3789ZM272.328 41.4531V31.4531C272.316 31.4531 272.353 31.4522 272.427 31.4699C272.502 31.4877 272.584 31.5174 272.663 31.5576C272.836 31.6468 272.843 31.709 272.737 31.5671C272.486 31.2331 271.758 29.9091 271.758 27.0156H261.758H251.758C251.758 33.0167 253.242 38.9114 256.741 43.5726C260.395 48.441 265.932 51.4531 272.328 51.4531V41.4531ZM261.758 27.0156H271.758C271.758 24.2126 272.474 22.91 272.724 22.5774C272.831 22.4359 272.821 22.5013 272.64 22.5938C272.558 22.636 272.469 22.668 272.386 22.6875C272.303 22.7068 272.256 22.7068 272.258 22.7068L272.328 12.707L272.398 2.70728C265.955 2.66222 260.404 5.69612 256.753 10.5388C253.255 15.1799 251.758 21.053 251.758 27.0156H261.758ZM272.328 18.9375L272.51 8.93915C266.704 8.8336 262.614 12.3825 260.585 16.2699C258.803 19.6832 258.348 23.5946 258.375 27.0937L268.375 27.0156L278.375 26.9375C278.359 24.9367 278.699 24.7875 278.314 25.526C278.073 25.9875 277.478 26.9066 276.284 27.7091C275.009 28.5653 273.531 28.961 272.146 28.9358L272.328 18.9375ZM268.375 27.0156L258.375 26.9387C258.348 30.4575 258.796 34.3868 260.592 37.8136C262.667 41.7722 266.73 45.1367 272.328 45.1367V35.1367V25.1367C273.619 25.1367 275.031 25.5127 276.276 26.347C277.454 27.1367 278.054 28.0463 278.306 28.5282C278.547 28.9875 278.539 29.1752 278.484 28.8716C278.433 28.5879 278.368 28.0181 278.375 27.0925L268.375 27.0156ZM272.328 35.1367V45.1367C277.945 45.1367 282.021 41.7719 284.093 37.7573C285.851 34.3517 286.281 30.4523 286.281 27.0156H276.281H266.281C266.281 27.974 266.213 28.5727 266.158 28.8841C266.098 29.218 266.085 29.0413 266.321 28.5845C266.57 28.1016 267.176 27.1649 268.382 26.3542C269.658 25.4964 271.079 25.1367 272.328 25.1367V35.1367ZM276.281 27.0156H286.281C286.281 23.6 285.845 19.7186 284.101 16.3261C282.073 12.3813 277.971 8.83514 272.15 8.93909L272.328 18.9375L272.507 28.9359C271.167 28.9598 269.681 28.5822 268.374 27.702C267.151 26.8784 266.551 25.9321 266.313 25.4698C266.085 25.0259 266.099 24.86 266.159 25.1919C266.214 25.5004 266.281 26.087 266.281 27.0156H276.281ZM307.52 12.5781H317.52C317.52 7.05528 313.042 2.57812 307.52 2.57812V12.5781ZM307.52 26.7578H297.52C297.52 29.444 298.6 32.0172 300.518 33.8979C302.436 35.7785 305.03 36.8086 307.716 36.7559L307.52 26.7578ZM321.57 25.2969L331.476 23.9253C331.095 21.178 329.591 18.7121 327.322 17.1168C325.054 15.5215 322.224 14.94 319.51 15.5114L321.57 25.2969ZM322.344 30.8828L324.33 40.6835C329.506 39.6344 332.974 34.7421 332.249 29.5113L322.344 30.8828ZM300.602 32.4727H290.602C290.602 37.9955 295.079 42.4727 300.602 42.4727V32.4727ZM300.602 12.5781V2.57812C295.079 2.57812 290.602 7.05528 290.602 12.5781H300.602ZM331.023 10.1289H341.023C341.023 4.60606 336.546 0.128906 331.023 0.128906V10.1289ZM331.023 20.8711H321.023C321.023 26.3939 325.501 30.8711 331.023 30.8711V20.8711ZM335.965 20.8711H345.965C345.965 15.3482 341.488 10.8711 335.965 10.8711V20.8711ZM335.965 26.5859V36.5859C341.488 36.5859 345.965 32.1088 345.965 26.5859H335.965ZM331.023 26.5859V16.5859C325.501 16.5859 321.023 21.0631 321.023 26.5859H331.023ZM331.023 38.5312V48.5312C336.546 48.5312 341.023 44.0541 341.023 38.5312H331.023ZM324.105 38.5312H314.105C314.105 44.0541 318.583 48.5312 324.105 48.5312V38.5312ZM324.105 10.1289V0.128906C318.583 0.128906 314.105 4.60606 314.105 10.1289H324.105ZM332.227 43.7305H342.227C342.227 38.2076 337.749 33.7305 332.227 33.7305V43.7305ZM332.227 49.2305V59.2305C337.749 59.2305 342.227 54.7533 342.227 49.2305H332.227ZM304.641 49.2305H294.641C294.641 54.7533 299.118 59.2305 304.641 59.2305V49.2305ZM304.641 35.9961V25.9961C299.118 25.9961 294.641 30.4732 294.641 35.9961H304.641ZM311.602 35.9961H321.602C321.602 30.4732 317.124 25.9961 311.602 25.9961V35.9961ZM311.602 43.7305H301.602C301.602 49.2533 306.079 53.7305 311.602 53.7305V43.7305ZM307.52 12.5781H297.52V26.7578H307.52H317.52V12.5781H307.52ZM307.52 26.7578L307.716 36.7559C312.462 36.6628 317.906 36.2876 323.63 35.0824L321.57 25.2969L319.51 15.5114C315.438 16.3687 311.343 16.6809 307.323 16.7597L307.52 26.7578ZM321.57 25.2969L311.665 26.6684L312.438 32.2543L322.344 30.8828L332.249 29.5113L331.476 23.9253L321.57 25.2969ZM322.344 30.8828L320.357 21.0821C314.917 22.1848 309.384 22.4727 304.168 22.4727V32.4727V42.4727C310.038 42.4727 317.051 42.1589 324.33 40.6835L322.344 30.8828ZM304.168 32.4727V22.4727H300.602V32.4727V42.4727H304.168V32.4727ZM300.602 32.4727H310.602V12.5781H300.602H290.602V32.4727H300.602ZM300.602 12.5781V22.5781H307.52V12.5781V2.57812H300.602V12.5781ZM331.023 10.1289H321.023V20.8711H331.023L341.023 20.8711V10.1289H331.023ZM331.023 20.8711V30.8711H335.965V20.8711V10.8711H331.023V20.8711ZM335.965 20.8711L325.965 20.8711V26.5859L335.965 26.5859H345.965V20.8711H335.965ZM335.965 26.5859V16.5859L331.023 16.5859V26.5859V36.5859H335.965V26.5859ZM331.023 26.5859H321.023V38.5312H331.023H341.023V26.5859L331.023 26.5859ZM331.023 38.5312V28.5312H324.105V38.5312V48.5312H331.023V38.5312ZM324.105 38.5312H334.105V10.1289H324.105H314.105V38.5312H324.105ZM324.105 10.1289V20.1289H331.023V10.1289V0.128906L324.105 0.128906V10.1289ZM332.227 43.7305H322.227V49.2305H332.227H342.227V43.7305H332.227ZM332.227 49.2305V39.2305H304.641V49.2305V59.2305H332.227V49.2305ZM304.641 49.2305H314.641V35.9961H304.641H294.641V49.2305H304.641ZM304.641 35.9961V45.9961H311.602V35.9961V25.9961H304.641V35.9961ZM311.602 35.9961H301.602V43.7305H311.602H321.602V35.9961H311.602ZM311.602 43.7305V53.7305H332.227V43.7305V33.7305H311.602V43.7305Z" fill="white" mask="url(#path-1-outside-1_6524_1777)"/>
</g>
<defs>
<filter id="filter0_d_6524_1777" x="0" y="0" width="349.965" height="67.918" filterUnits="userSpaceOnUse" color-interpolation-filters="sRGB">
<feFlood flood-opacity="0" result="BackgroundImageFix"/>
<feColorMatrix in="SourceAlpha" type="matrix" values="0 0 0 0 0 0 0 0 0 0 0 0 0 0 0 0 0 0 127 0" result="hardAlpha"/>
<feOffset dy="4"/>
<feGaussianBlur stdDeviation="2"/>
<feComposite in2="hardAlpha" operator="out"/>
<feColorMatrix type="matrix" values="0 0 0 0 0 0 0 0 0 0 0 0 0 0 0 0 0 0 0.07 0"/>
<feBlend mode="normal" in2="BackgroundImageFix" result="effect1_dropShadow_6524_1777"/>
<feBlend mode="normal" in="SourceGraphic" in2="effect1_dropShadow_6524_1777" result="shape"/>
</filter>
</defs>
</svg>
