<svg width="350" height="69" viewBox="0 0 350 69" fill="none" xmlns="http://www.w3.org/2000/svg">
<g filter="url(#filter0_d_6526_5758)">
<mask id="path-1-outside-1_6526_5758" maskUnits="userSpaceOnUse" x="3.96875" y="-0.25" width="342" height="61" fill="black">
<rect fill="white" x="3.96875" y="-0.25" width="342" height="61"/>
<path d="M35.7852 13.3516V18.7227H14V13.3516H21.8203V10H28.6953V13.3516H35.7852ZM25.1719 19.3242C30.7148 19.3242 34.7969 22.332 34.7969 26.5859C34.7969 30.8828 30.7148 33.8477 25.1719 33.8477C19.6289 33.8477 15.6328 30.8828 15.6758 26.5859C15.6328 22.332 19.6289 19.3242 25.1719 19.3242ZM25.1719 24.3945C23.2812 24.3945 22.0781 25.082 22.0781 26.5859C22.0781 28.1758 23.2812 28.9492 25.1719 28.9492C27.0625 28.9492 28.4375 28.1758 28.4375 26.5859C28.4375 25.082 27.0625 24.3945 25.1719 24.3945ZM47.6875 10.2578V34.0625H40.8125V31.6133H36.4297V26.1562H40.8125V23.707H36.5156V18.25H40.8125V10.2578L47.6875 10.2578ZM27.2344 35.4375V37.5859H40.8555V35.4375H47.6875V49.6602H20.3164V35.4375H27.2344ZM27.2344 44.375H40.8555V42.6133H27.2344V44.375ZM63.0703 11.8477C67.9688 11.8477 72.0293 14.6406 73.2969 18.7227L78.8398 18.7227V10.2578H85.7148V31.6562H78.8398V24.0937L73.3398 24.0938C72.0938 28.3047 68.0117 31.1406 63.0703 31.1406C56.9258 31.1406 52.2852 27.0156 52.3281 21.4297C52.2852 15.9727 56.9258 11.8477 63.0703 11.8477ZM63.0703 17.5625C60.5781 17.5625 58.8164 18.8945 58.8594 21.4297C58.8164 23.9648 60.5781 25.3828 63.0703 25.3828C65.4766 25.3828 67.1523 23.9648 67.1953 21.4297C67.1523 18.8945 65.4766 17.5625 63.0703 17.5625ZM65.3906 33.2461V36.2969H78.8398V33.2461H85.7148V49.6602H58.6445V33.2461H65.3906ZM65.3906 44.1172H78.8398V41.5391H65.3906V44.1172ZM135.773 32.043V37.543H127.953V50.0039H120.949V37.543H114.117V50.0039H107.07V37.543H99.5078V32.043H135.773ZM117.512 11.4609C126.148 11.418 132.336 15.0273 132.336 20.6133C132.336 26.0273 126.148 29.4648 117.512 29.4648C108.875 29.4648 102.773 26.0273 102.816 20.6133C102.773 15.0273 108.875 11.418 117.512 11.4609ZM117.512 16.918C112.742 16.918 109.906 18.0781 109.906 20.6133C109.906 22.9336 112.742 24.0508 117.512 24.0937C122.367 24.0508 125.16 22.9336 125.16 20.6133C125.16 18.0781 122.367 16.918 117.512 16.918ZM171.352 10.3437V39.1758H164.477V30.625H156.141C154.207 32.4512 151.586 33.5469 148.707 33.5469C142.648 33.5469 137.922 29.0352 137.965 23.0625C137.922 16.9609 142.648 12.4922 148.707 12.4922C151.607 12.4922 154.25 13.5879 156.184 15.457H164.477V10.3437H171.352ZM172.211 43.9453V49.4453H144.453V36.3398H151.328V43.9453H172.211ZM148.707 18.6367C146.215 18.5937 144.453 20.0977 144.496 23.0625C144.453 25.9414 146.215 27.4023 148.707 27.4453C150.984 27.4023 152.789 25.9414 152.832 23.0625C152.789 20.0977 150.984 18.5937 148.707 18.6367ZM159.148 25.168H164.477V20.9141H159.148C159.277 21.6016 159.363 22.3105 159.363 23.0625C159.363 23.793 159.277 24.502 159.148 25.168ZM191.418 15.1562C191.418 20.2695 193.309 25.125 200.055 27.1016L196.445 32.4727C192.342 31.1191 189.678 28.6914 188.066 25.5117C186.305 29.2715 183.254 32.2363 178.613 33.7187L174.961 28.2187C182.266 26.0273 184.414 20.6562 184.457 15.5V12.2344H191.418V15.1562ZM209.379 10.2578V33.418H202.504V22.375H195.973V16.7891H202.504V10.2578H209.379ZM195.543 34.3633C204.18 34.3633 209.465 37.2852 209.465 42.2266C209.465 47.2109 204.18 50.0898 195.543 50.0898C186.992 50.0898 181.707 47.2109 181.707 42.2266C181.707 37.2852 186.992 34.3633 195.543 34.3633ZM195.543 39.6484C190.816 39.6484 188.539 40.3789 188.582 42.2266C188.539 43.9883 190.816 44.7617 195.543 44.7617C200.312 44.7617 202.633 43.9883 202.633 42.2266C202.633 40.3789 200.312 39.6484 195.543 39.6484ZM247.148 10.2578V50.1328H240.188V10.2578H247.148ZM225.32 12.9219C231.379 12.8789 235.934 18.4648 235.934 27.2305C235.934 36.125 231.379 41.668 225.32 41.668C219.133 41.668 214.535 36.125 214.535 27.2305C214.535 18.4648 219.133 12.8789 225.32 12.9219ZM225.32 19.1523C222.785 19.1094 221.195 21.7305 221.195 27.2305C221.195 32.8164 222.785 35.3516 225.32 35.3516C227.684 35.3516 229.316 32.8164 229.316 27.2305C229.316 21.7305 227.684 19.1094 225.32 19.1523ZM292.996 10.3008V18.3359H297.938V23.9648H292.996V31.5703H286.078V10.3008H292.996ZM269.492 12.0195V24.7812C273.832 24.6309 278.516 24.2227 283.414 23.1914L284.23 28.7773C277.828 30.1094 271.555 30.4531 266.141 30.4531H262.574V12.0195H269.492ZM293.34 33.0312V38.4023H283.672C284.445 40.8301 287.539 43.666 295.23 44.5039L292.652 49.7031C286.186 48.9727 282.061 46.6094 279.848 43.5586C277.613 46.6094 273.467 48.8437 267 49.5742L264.422 44.375C272.156 43.6445 275.186 40.8945 275.938 38.4023H266.227V33.0312H293.34ZM335.492 30.1953V35.6094H299.227V30.1953H335.492ZM331.281 43.9453V49.4453H303.395V37.7578H310.312V43.9453H331.281ZM317.359 11.375C326.125 11.375 332.012 14.5547 332.055 19.668C332.012 24.8672 326.125 28.0898 317.359 28.0898C308.508 28.0898 302.578 24.8672 302.621 19.668C302.578 14.5547 308.508 11.375 317.359 11.375ZM317.359 16.7891C312.375 16.832 309.754 17.7344 309.797 19.668C309.754 21.7305 312.375 22.5469 317.359 22.5039C322.258 22.5469 324.922 21.7305 324.922 19.668C324.922 17.7344 322.258 16.832 317.359 16.7891Z"/>
</mask>
<path d="M35.7852 13.3516V18.7227H14V13.3516H21.8203V10H28.6953V13.3516H35.7852ZM25.1719 19.3242C30.7148 19.3242 34.7969 22.332 34.7969 26.5859C34.7969 30.8828 30.7148 33.8477 25.1719 33.8477C19.6289 33.8477 15.6328 30.8828 15.6758 26.5859C15.6328 22.332 19.6289 19.3242 25.1719 19.3242ZM25.1719 24.3945C23.2812 24.3945 22.0781 25.082 22.0781 26.5859C22.0781 28.1758 23.2812 28.9492 25.1719 28.9492C27.0625 28.9492 28.4375 28.1758 28.4375 26.5859C28.4375 25.082 27.0625 24.3945 25.1719 24.3945ZM47.6875 10.2578V34.0625H40.8125V31.6133H36.4297V26.1562H40.8125V23.707H36.5156V18.25H40.8125V10.2578L47.6875 10.2578ZM27.2344 35.4375V37.5859H40.8555V35.4375H47.6875V49.6602H20.3164V35.4375H27.2344ZM27.2344 44.375H40.8555V42.6133H27.2344V44.375ZM63.0703 11.8477C67.9688 11.8477 72.0293 14.6406 73.2969 18.7227L78.8398 18.7227V10.2578H85.7148V31.6562H78.8398V24.0937L73.3398 24.0938C72.0938 28.3047 68.0117 31.1406 63.0703 31.1406C56.9258 31.1406 52.2852 27.0156 52.3281 21.4297C52.2852 15.9727 56.9258 11.8477 63.0703 11.8477ZM63.0703 17.5625C60.5781 17.5625 58.8164 18.8945 58.8594 21.4297C58.8164 23.9648 60.5781 25.3828 63.0703 25.3828C65.4766 25.3828 67.1523 23.9648 67.1953 21.4297C67.1523 18.8945 65.4766 17.5625 63.0703 17.5625ZM65.3906 33.2461V36.2969H78.8398V33.2461H85.7148V49.6602H58.6445V33.2461H65.3906ZM65.3906 44.1172H78.8398V41.5391H65.3906V44.1172ZM135.773 32.043V37.543H127.953V50.0039H120.949V37.543H114.117V50.0039H107.07V37.543H99.5078V32.043H135.773ZM117.512 11.4609C126.148 11.418 132.336 15.0273 132.336 20.6133C132.336 26.0273 126.148 29.4648 117.512 29.4648C108.875 29.4648 102.773 26.0273 102.816 20.6133C102.773 15.0273 108.875 11.418 117.512 11.4609ZM117.512 16.918C112.742 16.918 109.906 18.0781 109.906 20.6133C109.906 22.9336 112.742 24.0508 117.512 24.0937C122.367 24.0508 125.16 22.9336 125.16 20.6133C125.16 18.0781 122.367 16.918 117.512 16.918ZM171.352 10.3437V39.1758H164.477V30.625H156.141C154.207 32.4512 151.586 33.5469 148.707 33.5469C142.648 33.5469 137.922 29.0352 137.965 23.0625C137.922 16.9609 142.648 12.4922 148.707 12.4922C151.607 12.4922 154.25 13.5879 156.184 15.457H164.477V10.3437H171.352ZM172.211 43.9453V49.4453H144.453V36.3398H151.328V43.9453H172.211ZM148.707 18.6367C146.215 18.5937 144.453 20.0977 144.496 23.0625C144.453 25.9414 146.215 27.4023 148.707 27.4453C150.984 27.4023 152.789 25.9414 152.832 23.0625C152.789 20.0977 150.984 18.5937 148.707 18.6367ZM159.148 25.168H164.477V20.9141H159.148C159.277 21.6016 159.363 22.3105 159.363 23.0625C159.363 23.793 159.277 24.502 159.148 25.168ZM191.418 15.1562C191.418 20.2695 193.309 25.125 200.055 27.1016L196.445 32.4727C192.342 31.1191 189.678 28.6914 188.066 25.5117C186.305 29.2715 183.254 32.2363 178.613 33.7187L174.961 28.2187C182.266 26.0273 184.414 20.6562 184.457 15.5V12.2344H191.418V15.1562ZM209.379 10.2578V33.418H202.504V22.375H195.973V16.7891H202.504V10.2578H209.379ZM195.543 34.3633C204.18 34.3633 209.465 37.2852 209.465 42.2266C209.465 47.2109 204.18 50.0898 195.543 50.0898C186.992 50.0898 181.707 47.2109 181.707 42.2266C181.707 37.2852 186.992 34.3633 195.543 34.3633ZM195.543 39.6484C190.816 39.6484 188.539 40.3789 188.582 42.2266C188.539 43.9883 190.816 44.7617 195.543 44.7617C200.312 44.7617 202.633 43.9883 202.633 42.2266C202.633 40.3789 200.312 39.6484 195.543 39.6484ZM247.148 10.2578V50.1328H240.188V10.2578H247.148ZM225.32 12.9219C231.379 12.8789 235.934 18.4648 235.934 27.2305C235.934 36.125 231.379 41.668 225.32 41.668C219.133 41.668 214.535 36.125 214.535 27.2305C214.535 18.4648 219.133 12.8789 225.32 12.9219ZM225.32 19.1523C222.785 19.1094 221.195 21.7305 221.195 27.2305C221.195 32.8164 222.785 35.3516 225.32 35.3516C227.684 35.3516 229.316 32.8164 229.316 27.2305C229.316 21.7305 227.684 19.1094 225.32 19.1523ZM292.996 10.3008V18.3359H297.938V23.9648H292.996V31.5703H286.078V10.3008H292.996ZM269.492 12.0195V24.7812C273.832 24.6309 278.516 24.2227 283.414 23.1914L284.23 28.7773C277.828 30.1094 271.555 30.4531 266.141 30.4531H262.574V12.0195H269.492ZM293.34 33.0312V38.4023H283.672C284.445 40.8301 287.539 43.666 295.23 44.5039L292.652 49.7031C286.186 48.9727 282.061 46.6094 279.848 43.5586C277.613 46.6094 273.467 48.8437 267 49.5742L264.422 44.375C272.156 43.6445 275.186 40.8945 275.938 38.4023H266.227V33.0312H293.34ZM335.492 30.1953V35.6094H299.227V30.1953H335.492ZM331.281 43.9453V49.4453H303.395V37.7578H310.312V43.9453H331.281ZM317.359 11.375C326.125 11.375 332.012 14.5547 332.055 19.668C332.012 24.8672 326.125 28.0898 317.359 28.0898C308.508 28.0898 302.578 24.8672 302.621 19.668C302.578 14.5547 308.508 11.375 317.359 11.375ZM317.359 16.7891C312.375 16.832 309.754 17.7344 309.797 19.668C309.754 21.7305 312.375 22.5469 317.359 22.5039C322.258 22.5469 324.922 21.7305 324.922 19.668C324.922 17.7344 322.258 16.832 317.359 16.7891Z" fill="#11DCA9"/>
<path d="M35.7852 13.3516H45.7852C45.7852 7.82872 41.308 3.35156 35.7852 3.35156V13.3516ZM35.7852 18.7227V28.7227C41.308 28.7227 45.7852 24.2455 45.7852 18.7227H35.7852ZM14 18.7227H4C4 24.2455 8.47715 28.7227 14 28.7227V18.7227ZM14 13.3516V3.35156C8.47715 3.35156 4 7.82872 4 13.3516H14ZM21.8203 13.3516V23.3516C27.3432 23.3516 31.8203 18.8744 31.8203 13.3516H21.8203ZM21.8203 10V0C16.2975 0 11.8203 4.47715 11.8203 10H21.8203ZM28.6953 10H38.6953C38.6953 4.47715 34.2182 0 28.6953 0V10ZM28.6953 13.3516H18.6953C18.6953 18.8744 23.1725 23.3516 28.6953 23.3516V13.3516ZM15.6758 26.5859L25.6753 26.6859C25.676 26.6189 25.6759 26.5519 25.6753 26.4849L15.6758 26.5859ZM47.6875 10.2578H57.6875C57.6875 4.73496 53.2103 0.257812 47.6875 0.257812V10.2578ZM47.6875 34.0625V44.0625C53.2103 44.0625 57.6875 39.5853 57.6875 34.0625H47.6875ZM40.8125 34.0625H30.8125C30.8125 39.5853 35.2897 44.0625 40.8125 44.0625V34.0625ZM40.8125 31.6133H50.8125C50.8125 26.0904 46.3353 21.6133 40.8125 21.6133V31.6133ZM36.4297 31.6133H26.4297C26.4297 37.1361 30.9068 41.6133 36.4297 41.6133V31.6133ZM36.4297 26.1562V16.1562C30.9068 16.1562 26.4297 20.6334 26.4297 26.1562H36.4297ZM40.8125 26.1562V36.1562C46.3353 36.1562 50.8125 31.6791 50.8125 26.1562H40.8125ZM40.8125 23.707H50.8125C50.8125 18.1842 46.3353 13.707 40.8125 13.707V23.707ZM36.5156 23.707H26.5156C26.5156 29.2299 30.9928 33.707 36.5156 33.707V23.707ZM36.5156 18.25V8.25C30.9928 8.25 26.5156 12.7272 26.5156 18.25H36.5156ZM40.8125 18.25V28.25C46.3353 28.25 50.8125 23.7728 50.8125 18.25H40.8125ZM40.8125 10.2578V0.257812C35.2897 0.257812 30.8125 4.73496 30.8125 10.2578H40.8125ZM27.2344 35.4375H37.2344C37.2344 29.9147 32.7572 25.4375 27.2344 25.4375V35.4375ZM27.2344 37.5859H17.2344C17.2344 43.1088 21.7115 47.5859 27.2344 47.5859V37.5859ZM40.8555 37.5859V47.5859C46.3783 47.5859 50.8555 43.1088 50.8555 37.5859H40.8555ZM40.8555 35.4375V25.4375C35.3326 25.4375 30.8555 29.9147 30.8555 35.4375H40.8555ZM47.6875 35.4375H57.6875C57.6875 29.9147 53.2103 25.4375 47.6875 25.4375V35.4375ZM47.6875 49.6602V59.6602C53.2103 59.6602 57.6875 55.183 57.6875 49.6602H47.6875ZM20.3164 49.6602H10.3164C10.3164 55.183 14.7936 59.6602 20.3164 59.6602V49.6602ZM20.3164 35.4375V25.4375C14.7936 25.4375 10.3164 29.9147 10.3164 35.4375H20.3164ZM27.2344 44.375H17.2344C17.2344 49.8978 21.7115 54.375 27.2344 54.375V44.375ZM40.8555 44.375V54.375C46.3783 54.375 50.8555 49.8978 50.8555 44.375H40.8555ZM40.8555 42.6133H50.8555C50.8555 37.0904 46.3783 32.6133 40.8555 32.6133V42.6133ZM27.2344 42.6133V32.6133C21.7115 32.6133 17.2344 37.0904 17.2344 42.6133H27.2344ZM35.7852 13.3516H25.7852V18.7227H35.7852H45.7852V13.3516H35.7852ZM35.7852 18.7227V8.72266H14V18.7227V28.7227H35.7852V18.7227ZM14 18.7227H24V13.3516H14H4V18.7227H14ZM14 13.3516V23.3516H21.8203V13.3516V3.35156H14V13.3516ZM21.8203 13.3516H31.8203V10H21.8203H11.8203V13.3516H21.8203ZM21.8203 10V20H28.6953V10V0H21.8203V10ZM28.6953 10H18.6953V13.3516H28.6953H38.6953V10H28.6953ZM28.6953 13.3516V23.3516H35.7852V13.3516V3.35156L28.6953 3.35156V13.3516ZM25.1719 19.3242V29.3242C26.225 29.3242 26.4081 29.6184 26.067 29.3629C25.8737 29.2181 25.5375 28.9038 25.2484 28.3615C24.9473 27.7968 24.7969 27.1671 24.7969 26.5859H34.7969H44.7969C44.7969 14.324 33.3708 9.32422 25.1719 9.32422V19.3242ZM34.7969 26.5859H24.7969C24.7969 26.0316 24.9397 25.4087 25.2439 24.8369C25.5365 24.2868 25.8804 23.9643 26.0831 23.8131C26.4384 23.548 26.2571 23.8477 25.1719 23.8477V33.8477V43.8477C29.6296 43.8477 34.2608 42.6649 38.0429 39.8432C41.9925 36.8964 44.7969 32.24 44.7969 26.5859H34.7969ZM25.1719 33.8477V23.8477C24.0856 23.8477 23.9604 23.5485 24.3696 23.8587C24.5992 24.0327 24.9555 24.3797 25.2487 24.9479C25.5518 25.5355 25.6806 26.1558 25.6753 26.6859L15.6758 26.5859L5.67628 26.4859C5.62019 32.0951 8.32539 36.7936 12.2886 39.7976C16.0708 42.6644 20.7152 43.8477 25.1719 43.8477V33.8477ZM15.6758 26.5859L25.6753 26.4849C25.6809 27.042 25.5447 27.6696 25.2444 28.2504C24.9545 28.811 24.6057 29.1497 24.3857 29.3171C23.9908 29.6177 24.118 29.3242 25.1719 29.3242V19.3242V9.32422C20.6827 9.32422 16.0405 10.5346 12.2725 13.4026C8.34271 16.3938 5.61963 21.0777 5.67629 26.6869L15.6758 26.5859ZM25.1719 24.3945V14.3945C23.2791 14.3945 20.2227 14.6938 17.3499 16.6186C13.868 18.9514 12.0781 22.7134 12.0781 26.5859H22.0781H32.0781C32.0781 27.5645 31.8746 28.8525 31.183 30.1933C30.4818 31.5527 29.4872 32.5606 28.4822 33.234C26.6836 34.439 25.174 34.3945 25.1719 34.3945V24.3945ZM22.0781 26.5859H12.0781C12.0781 30.2378 13.6438 33.9761 17.0199 36.4406C19.9191 38.557 23.0861 38.9492 25.1719 38.9492V28.9492V18.9492C25.367 18.9492 26.9872 18.9547 28.8121 20.2869C29.8004 21.0083 30.6972 22.0221 31.3083 23.2933C31.9072 24.539 32.0781 25.7095 32.0781 26.5859H22.0781ZM25.1719 28.9492V38.9492C27.2709 38.9492 30.2979 38.5519 33.1137 36.6487C36.4054 34.4237 38.4375 30.7494 38.4375 26.5859H28.4375H18.4375C18.4375 25.5031 18.6833 24.2024 19.3762 22.9076C20.0658 21.6191 21.0081 20.691 21.9137 20.0788C23.5693 18.9598 24.9635 18.9492 25.1719 18.9492V28.9492ZM28.4375 26.5859H38.4375C38.4375 22.1711 36.1286 18.5027 32.7853 16.4287C30.0049 14.7038 27.0875 14.3945 25.1719 14.3945V24.3945V34.3945C25.1469 34.3945 23.8623 34.4291 22.242 33.4239C21.3348 32.8611 20.3022 31.949 19.5211 30.5886C18.728 29.2074 18.4375 27.7862 18.4375 26.5859H28.4375ZM47.6875 10.2578L37.6875 10.2578V34.0625H47.6875H57.6875V10.2578H47.6875ZM47.6875 34.0625V24.0625H40.8125V34.0625V44.0625H47.6875V34.0625ZM40.8125 34.0625H50.8125V31.6133H40.8125H30.8125V34.0625H40.8125ZM40.8125 31.6133V21.6133H36.4297V31.6133V41.6133H40.8125V31.6133ZM36.4297 31.6133H46.4297V26.1562H36.4297H26.4297V31.6133H36.4297ZM36.4297 26.1562V36.1562H40.8125V26.1562V16.1562H36.4297V26.1562ZM40.8125 26.1562H50.8125V23.707H40.8125H30.8125V26.1562H40.8125ZM40.8125 23.707V13.707H36.5156V23.707V33.707H40.8125V23.707ZM36.5156 23.707H46.5156V18.25H36.5156H26.5156V23.707H36.5156ZM36.5156 18.25V28.25H40.8125V18.25V8.25H36.5156V18.25ZM40.8125 18.25H50.8125V10.2578L40.8125 10.2578H30.8125V18.25H40.8125ZM40.8125 10.2578V20.2578H47.6875V10.2578V0.257812H40.8125V10.2578ZM27.2344 35.4375H17.2344V37.5859H27.2344H37.2344V35.4375H27.2344ZM27.2344 37.5859V47.5859H40.8555V37.5859V27.5859H27.2344V37.5859ZM40.8555 37.5859H50.8555V35.4375H40.8555H30.8555V37.5859H40.8555ZM40.8555 35.4375V45.4375H47.6875V35.4375V25.4375H40.8555V35.4375ZM47.6875 35.4375H37.6875V49.6602H47.6875H57.6875V35.4375H47.6875ZM47.6875 49.6602V39.6602H20.3164V49.6602V59.6602H47.6875V49.6602ZM20.3164 49.6602H30.3164V35.4375H20.3164H10.3164L10.3164 49.6602H20.3164ZM20.3164 35.4375V45.4375H27.2344V35.4375V25.4375H20.3164V35.4375ZM27.2344 44.375V54.375H40.8555V44.375V34.375H27.2344V44.375ZM40.8555 44.375H50.8555V42.6133H40.8555H30.8555V44.375H40.8555ZM40.8555 42.6133V32.6133H27.2344V42.6133V52.6133H40.8555V42.6133ZM27.2344 42.6133H17.2344V44.375H27.2344H37.2344V42.6133H27.2344ZM73.2969 18.7227L63.7467 21.6882C65.0458 25.8717 68.9164 28.7227 73.2969 28.7227V18.7227ZM78.8398 18.7227V28.7227C84.3627 28.7227 88.8398 24.2455 88.8398 18.7227H78.8398ZM78.8398 10.2578V0.257812C73.317 0.257812 68.8398 4.73496 68.8398 10.2578H78.8398ZM85.7148 10.2578H95.7148C95.7148 4.73496 91.2377 0.257812 85.7148 0.257812V10.2578ZM85.7148 31.6562V41.6562C91.2377 41.6562 95.7148 37.1791 95.7148 31.6562H85.7148ZM78.8398 31.6562H68.8398C68.8398 37.1791 73.317 41.6562 78.8398 41.6562V31.6562ZM78.8398 24.0937H88.8398C88.8398 18.5709 84.3627 14.0937 78.8398 14.0937V24.0937ZM73.3398 24.0938V14.0938C68.9099 14.0938 65.0079 17.0083 63.7509 21.2562L73.3398 24.0938ZM52.3281 21.4297L62.3278 21.5066C62.3282 21.4547 62.3282 21.4028 62.3278 21.351L52.3281 21.4297ZM58.8594 21.4297L68.8579 21.5992C68.8599 21.4862 68.8599 21.3732 68.8579 21.2602L58.8594 21.4297ZM67.1953 21.4297L77.1939 21.5992C77.1958 21.4862 77.1958 21.3732 77.1939 21.2602L67.1953 21.4297ZM65.3906 33.2461H75.3906C75.3906 27.7232 70.9135 23.2461 65.3906 23.2461V33.2461ZM65.3906 36.2969H55.3906C55.3906 41.8197 59.8678 46.2969 65.3906 46.2969V36.2969ZM78.8398 36.2969V46.2969C84.3627 46.2969 88.8398 41.8197 88.8398 36.2969H78.8398ZM78.8398 33.2461V23.2461C73.317 23.2461 68.8398 27.7232 68.8398 33.2461H78.8398ZM85.7148 33.2461H95.7148C95.7148 27.7232 91.2377 23.2461 85.7148 23.2461V33.2461ZM85.7148 49.6602V59.6602C91.2377 59.6602 95.7148 55.183 95.7148 49.6602H85.7148ZM58.6445 49.6602H48.6445C48.6445 55.183 53.1217 59.6602 58.6445 59.6602V49.6602ZM58.6445 33.2461V23.2461C53.1217 23.2461 48.6445 27.7232 48.6445 33.2461H58.6445ZM65.3906 44.1172H55.3906C55.3906 49.64 59.8678 54.1172 65.3906 54.1172V44.1172ZM78.8398 44.1172V54.1172C84.3627 54.1172 88.8398 49.64 88.8398 44.1172H78.8398ZM78.8398 41.5391H88.8398C88.8398 36.0162 84.3627 31.5391 78.8398 31.5391V41.5391ZM65.3906 41.5391V31.5391C59.8678 31.5391 55.3906 36.0162 55.3906 41.5391H65.3906ZM63.0703 11.8477V21.8477C63.6203 21.8477 63.8893 22.0015 63.9408 22.0364C63.967 22.0541 63.9407 22.042 63.8924 21.9784C63.8416 21.9116 63.7851 21.8117 63.7467 21.6882L73.2969 18.7227L82.847 15.7571C80.0896 6.87719 71.67 1.84766 63.0703 1.84766V11.8477ZM73.2969 18.7227V28.7227L78.8398 28.7227V18.7227V8.72266H73.2969V18.7227ZM78.8398 18.7227H88.8398V10.2578H78.8398H68.8398V18.7227L78.8398 18.7227ZM78.8398 10.2578V20.2578H85.7148V10.2578V0.257812L78.8398 0.257812V10.2578ZM85.7148 10.2578H75.7148V31.6562H85.7148H95.7148V10.2578H85.7148ZM85.7148 31.6562V21.6562H78.8398V31.6562V41.6562H85.7148V31.6562ZM78.8398 31.6562H88.8398V24.0937H78.8398L68.8398 24.0938V31.6562H78.8398ZM78.8398 24.0937V14.0937L73.3398 14.0938V24.0938V34.0938H78.8398V24.0937ZM73.3398 24.0938L63.7509 21.2562C63.7769 21.1682 63.8201 21.0849 63.8668 21.0217C63.9113 20.9617 63.9385 20.947 63.9193 20.9602C63.8837 20.9847 63.6277 21.1406 63.0703 21.1406V31.1406V41.1406C71.7847 41.1406 80.2486 35.9884 82.9288 26.9313L73.3398 24.0938ZM63.0703 31.1406V21.1406C62.2306 21.1406 61.9844 20.8713 62.0663 20.9449C62.1041 20.9789 62.1845 21.068 62.2508 21.216C62.2822 21.2862 62.3032 21.3538 62.3154 21.4125C62.3213 21.4409 62.3246 21.4641 62.3262 21.4811C62.3279 21.4981 62.3278 21.5069 62.3278 21.5066L52.3281 21.4297L42.3284 21.3528C42.2347 33.5346 52.4765 41.1406 63.0703 41.1406V31.1406ZM52.3281 21.4297L62.3278 21.351C62.3285 21.4363 62.3065 21.5958 62.2268 21.7711C62.1509 21.9378 62.064 22.0295 62.0316 22.0583C61.9633 22.1192 62.229 21.8477 63.0703 21.8477V11.8477V1.84766C52.5708 1.84766 42.2329 9.37032 42.3284 21.5084L52.3281 21.4297ZM63.0703 17.5625V7.5625C60.153 7.5625 56.5064 8.34082 53.4483 11.0029C50.1694 13.8572 48.7966 17.8115 48.8608 21.5992L58.8594 21.4297L68.8579 21.2602C68.8792 22.5127 68.3658 24.5334 66.58 26.088C65.0151 27.4502 63.4954 27.5625 63.0703 27.5625V17.5625ZM58.8594 21.4297L48.8608 21.2602C48.797 25.028 50.1508 28.9359 53.3275 31.7925C56.3398 34.5015 60.0018 35.3828 63.0703 35.3828V25.3828V15.3828C63.6467 15.3828 65.1817 15.5552 66.7009 16.9213C68.3843 18.4352 68.8788 20.3666 68.8579 21.5992L58.8594 21.4297ZM63.0703 25.3828V35.3828C66.2097 35.3828 69.8522 34.4362 72.8131 31.6945C75.8584 28.8749 77.1341 25.1249 77.1939 21.5992L67.1953 21.4297L57.1967 21.2602C57.2135 20.2697 57.6299 18.4962 59.225 17.0193C60.7357 15.6205 62.3371 15.3828 63.0703 15.3828V25.3828ZM67.1953 21.4297L77.1939 21.2602C77.1338 17.7144 75.8389 13.918 72.6934 11.0988C69.6815 8.39917 66.0527 7.5625 63.0703 7.5625V17.5625V27.5625C62.4941 27.5625 60.9064 27.3918 59.3446 25.9921C57.6494 24.4726 57.2139 22.6098 57.1967 21.5992L67.1953 21.4297ZM65.3906 33.2461H55.3906V36.2969H65.3906H75.3906V33.2461H65.3906ZM65.3906 36.2969V46.2969H78.8398V36.2969V26.2969L65.3906 26.2969V36.2969ZM78.8398 36.2969H88.8398V33.2461H78.8398H68.8398V36.2969H78.8398ZM78.8398 33.2461V43.2461H85.7148V33.2461V23.2461H78.8398V33.2461ZM85.7148 33.2461H75.7148V49.6602H85.7148H95.7148V33.2461H85.7148ZM85.7148 49.6602V39.6602H58.6445V49.6602V59.6602H85.7148V49.6602ZM58.6445 49.6602H68.6445V33.2461H58.6445H48.6445V49.6602H58.6445ZM58.6445 33.2461V43.2461H65.3906V33.2461V23.2461H58.6445V33.2461ZM65.3906 44.1172V54.1172H78.8398V44.1172V34.1172H65.3906V44.1172ZM78.8398 44.1172H88.8398V41.5391H78.8398H68.8398V44.1172H78.8398ZM78.8398 41.5391V31.5391H65.3906V41.5391V51.5391H78.8398V41.5391ZM65.3906 41.5391H55.3906V44.1172H65.3906H75.3906V41.5391H65.3906ZM135.773 32.043L145.773 32.043C145.773 26.5201 141.296 22.043 135.773 22.043V32.043ZM135.773 37.543V47.543C141.296 47.543 145.773 43.0658 145.773 37.543L135.773 37.543ZM127.953 37.543V27.543C122.43 27.543 117.953 32.0201 117.953 37.543H127.953ZM127.953 50.0039V60.0039C133.476 60.0039 137.953 55.5268 137.953 50.0039H127.953ZM120.949 50.0039H110.949C110.949 55.5268 115.426 60.0039 120.949 60.0039V50.0039ZM120.949 37.543H130.949C130.949 32.0201 126.472 27.543 120.949 27.543V37.543ZM114.117 37.543V27.543C108.594 27.543 104.117 32.0201 104.117 37.543H114.117ZM114.117 50.0039V60.0039C119.64 60.0039 124.117 55.5268 124.117 50.0039H114.117ZM107.07 50.0039H97.0703C97.0703 55.5268 101.547 60.0039 107.07 60.0039V50.0039ZM107.07 37.543H117.07C117.07 32.0201 112.593 27.543 107.07 27.543V37.543ZM99.5078 37.543H89.5078C89.5078 43.0658 93.985 47.543 99.5078 47.543V37.543ZM99.5078 32.043V22.043C93.985 22.043 89.5078 26.5201 89.5078 32.043H99.5078ZM117.512 11.4609L117.462 21.4608C117.495 21.461 117.528 21.461 117.561 21.4608L117.512 11.4609ZM102.816 20.6133L112.816 20.6926C112.817 20.6406 112.817 20.5885 112.816 20.5364L102.816 20.6133ZM117.512 24.0937L117.422 34.0933C117.481 34.0939 117.541 34.0939 117.6 34.0934L117.512 24.0937ZM135.773 32.043H125.773V37.543H135.773L145.773 37.543V32.043L135.773 32.043ZM135.773 37.543V27.543H127.953V37.543V47.543H135.773V37.543ZM127.953 37.543H117.953V50.0039H127.953H137.953V37.543H127.953ZM127.953 50.0039V40.0039H120.949V50.0039V60.0039H127.953V50.0039ZM120.949 50.0039H130.949V37.543H120.949H110.949V50.0039H120.949ZM120.949 37.543V27.543H114.117V37.543V47.543H120.949V37.543ZM114.117 37.543H104.117V50.0039H114.117H124.117V37.543H114.117ZM114.117 50.0039V40.0039H107.07V50.0039V60.0039H114.117V50.0039ZM107.07 50.0039H117.07V37.543H107.07H97.0703V50.0039H107.07ZM107.07 37.543V27.543H99.5078V37.543V47.543H107.07V37.543ZM99.5078 37.543H109.508V32.043H99.5078H89.5078V37.543H99.5078ZM99.5078 32.043V42.043H135.773V32.043V22.043H99.5078V32.043ZM117.512 11.4609L117.561 21.4608C120.637 21.4455 122.372 22.109 122.971 22.4733C123.223 22.6261 123.05 22.5866 122.798 22.1907C122.509 21.7368 122.336 21.1517 122.336 20.6133H132.336H142.336C142.336 13.5354 138.221 8.33527 133.354 5.37922C128.701 2.55312 123.023 1.43339 117.462 1.46106L117.512 11.4609ZM132.336 20.6133H122.336C122.336 19.961 122.551 19.2834 122.888 18.7728C123.179 18.3309 123.382 18.2808 123.114 18.4373C122.478 18.8095 120.675 19.4648 117.512 19.4648V29.4648V39.4648C122.985 39.4648 128.595 38.4015 133.211 35.7014C138.031 32.8826 142.336 27.7804 142.336 20.6133H132.336ZM117.512 29.4648V19.4648C114.344 19.4648 112.585 18.8081 111.996 18.4601C111.755 18.3173 111.977 18.3863 112.276 18.8492C112.62 19.3796 112.821 20.0606 112.816 20.6926L102.816 20.6133L92.8167 20.5339C92.76 27.6744 96.9827 32.8191 101.822 35.6786C106.432 38.4028 112.042 39.4648 117.512 39.4648V29.4648ZM102.816 20.6133L112.816 20.5364C112.82 21.0554 112.658 21.6427 112.364 22.1147C112.104 22.53 111.913 22.5882 112.139 22.4495C112.692 22.1104 114.383 21.4455 117.462 21.4608L117.512 11.4609L117.561 1.46106C112.004 1.43341 106.326 2.55175 101.679 5.40304C96.7955 8.39975 92.7625 13.64 92.8167 20.6902L102.816 20.6133ZM117.512 16.918V6.91797C114.609 6.91797 110.976 7.22566 107.704 8.7474C105.957 9.55965 103.941 10.8915 102.353 13.0618C100.684 15.3431 99.9062 17.9871 99.9062 20.6133H109.906H119.906C119.906 21.9719 119.483 23.5202 118.495 24.8709C117.588 26.1107 116.579 26.6772 116.137 26.8825C115.707 27.0824 115.552 27.0671 115.876 27.0157C116.171 26.9689 116.701 26.918 117.512 26.918V16.918ZM109.906 20.6133H99.9062C99.9062 27.0654 104.352 30.8013 107.891 32.3596C111.042 33.7472 114.548 34.0675 117.422 34.0933L117.512 24.0937L117.602 14.0942C116.769 14.0867 116.203 14.0325 115.862 13.9791C115.492 13.9209 115.583 13.8937 115.95 14.0555C116.306 14.2122 117.318 14.723 118.276 15.9383C119.351 17.3011 119.906 18.9859 119.906 20.6133H109.906ZM117.512 24.0937L117.6 34.0934C120.496 34.0677 124.024 33.7523 127.187 32.3596C128.86 31.6229 130.886 30.3858 132.524 28.2914C134.276 26.0521 135.16 23.3642 135.16 20.6133H125.16H115.16C115.16 19.0225 115.695 17.3444 116.772 15.9685C117.735 14.7375 118.759 14.2174 119.127 14.0555C119.503 13.89 119.597 13.9179 119.217 13.9771C118.867 14.0315 118.284 14.0865 117.423 14.0941L117.512 24.0937ZM125.16 20.6133H135.16C135.16 18.0209 134.404 15.3841 132.741 13.0923C131.155 10.9072 129.133 9.56546 127.373 8.7474C124.089 7.22018 120.434 6.91797 117.512 6.91797V16.918V26.918C118.352 26.918 118.898 26.9698 119.203 27.0177C119.538 27.0703 119.379 27.0864 118.94 26.8825C118.486 26.6714 117.466 26.095 116.555 24.8404C115.567 23.4792 115.16 21.9381 115.16 20.6133H125.16ZM171.352 10.3437L181.352 10.3437C181.352 4.8209 176.874 0.34375 171.352 0.34375V10.3437ZM171.352 39.1758V49.1758C176.874 49.1758 181.352 44.6986 181.352 39.1758H171.352ZM164.477 39.1758H154.477C154.477 44.6986 158.954 49.1758 164.477 49.1758V39.1758ZM164.477 30.625H174.477C174.477 25.1022 169.999 20.625 164.477 20.625V30.625ZM156.141 30.625V20.625C153.587 20.625 151.131 21.6017 149.274 23.3549L156.141 30.625ZM137.965 23.0625L147.965 23.1344C147.965 23.087 147.965 23.0395 147.965 22.9921L137.965 23.0625ZM156.184 15.457L149.233 22.6469C151.098 24.4494 153.59 25.457 156.184 25.457V15.457ZM164.477 15.457V25.457C169.999 25.457 174.477 20.9799 174.477 15.457H164.477ZM164.477 10.3437V0.34375C158.954 0.34375 154.477 4.8209 154.477 10.3437H164.477ZM172.211 43.9453H182.211C182.211 38.4225 177.734 33.9453 172.211 33.9453V43.9453ZM172.211 49.4453V59.4453C177.734 59.4453 182.211 54.9682 182.211 49.4453H172.211ZM144.453 49.4453L134.453 49.4453C134.453 54.9682 138.93 59.4453 144.453 59.4453V49.4453ZM144.453 36.3398V26.3398C138.93 26.3398 134.453 30.817 134.453 36.3398L144.453 36.3398ZM151.328 36.3398H161.328C161.328 30.817 156.851 26.3398 151.328 26.3398V36.3398ZM151.328 43.9453H141.328C141.328 49.4682 145.805 53.9453 151.328 53.9453V43.9453ZM148.707 18.6367L148.535 28.6352C148.655 28.6373 148.775 28.6372 148.896 28.6349L148.707 18.6367ZM144.496 23.0625L154.495 23.2117C154.496 23.1137 154.496 23.0156 154.495 22.9176L144.496 23.0625ZM148.707 27.4453L148.535 37.4438C148.655 37.4459 148.775 37.4458 148.896 37.4435L148.707 27.4453ZM152.832 23.0625L162.831 23.2117C162.832 23.1137 162.832 23.0156 162.831 22.9176L152.832 23.0625ZM159.148 25.168L149.331 23.2677C148.763 26.1984 149.535 29.2293 151.435 31.5318C153.334 33.8344 156.163 35.168 159.148 35.168V25.168ZM164.477 25.168V35.168C169.999 35.168 174.477 30.6908 174.477 25.168H164.477ZM164.477 20.9141H174.477C174.477 15.3912 169.999 10.9141 164.477 10.9141V20.9141ZM159.148 20.9141V10.9141C156.174 10.9141 153.353 12.2385 151.453 14.5277C149.553 16.8169 148.771 19.8331 149.32 22.7569L159.148 20.9141ZM171.352 10.3437H161.352V39.1758H171.352H181.352V10.3437L171.352 10.3437ZM171.352 39.1758V29.1758H164.477V39.1758V49.1758H171.352V39.1758ZM164.477 39.1758H174.477V30.625H164.477H154.477V39.1758H164.477ZM164.477 30.625V20.625H156.141V30.625V40.625H164.477V30.625ZM156.141 30.625L149.274 23.3549C149.222 23.4045 149.154 23.4504 149.068 23.4846C148.986 23.5172 148.87 23.5469 148.707 23.5469V33.5469V43.5469C154.164 43.5469 159.235 41.4575 163.007 37.8951L156.141 30.625ZM148.707 33.5469V23.5469C148.44 23.5469 148.268 23.4986 148.171 23.4602C148.072 23.4206 148.025 23.3803 148.008 23.3645C147.993 23.35 147.991 23.3439 147.99 23.3398C147.988 23.3357 147.982 23.3219 147.977 23.2942C147.971 23.2669 147.964 23.2152 147.965 23.1344L137.965 23.0625L127.965 22.9906C127.88 34.8722 137.463 43.5469 148.707 43.5469V33.5469ZM137.965 23.0625L147.965 22.9921C147.963 22.7801 148.001 22.6906 148.005 22.6809C148.011 22.6669 148.013 22.6647 148.019 22.6592C148.026 22.6519 148.064 22.6167 148.159 22.5792C148.251 22.5424 148.428 22.4922 148.707 22.4922V12.4922V2.49219C137.434 2.49219 127.881 11.1509 127.965 23.1329L137.965 23.0625ZM148.707 12.4922V22.4922C148.892 22.4922 149.013 22.5258 149.084 22.5544C149.157 22.5839 149.204 22.6182 149.233 22.6469L156.184 15.457L163.134 8.26715C159.309 4.56936 154.163 2.49219 148.707 2.49219V12.4922ZM156.184 15.457V25.457H164.477V15.457V5.45703H156.184V15.457ZM164.477 15.457H174.477V10.3437L164.477 10.3437H154.477V15.457H164.477ZM164.477 10.3437V20.3437H171.352V10.3437V0.34375L164.477 0.34375V10.3437ZM172.211 43.9453H162.211V49.4453H172.211H182.211V43.9453H172.211ZM172.211 49.4453V39.4453H144.453V49.4453V59.4453H172.211V49.4453ZM144.453 49.4453H154.453V36.3398H144.453L134.453 36.3398V49.4453L144.453 49.4453ZM144.453 36.3398V46.3398H151.328V36.3398V26.3398H144.453V36.3398ZM151.328 36.3398H141.328V43.9453H151.328H161.328V36.3398H151.328ZM151.328 43.9453V53.9453H172.211V43.9453V33.9453H151.328V43.9453ZM148.707 18.6367L148.879 8.6382C145.601 8.58168 141.694 9.55871 138.605 12.6251C135.487 15.7209 134.446 19.7087 134.497 23.2074L144.496 23.0625L154.495 22.9176C154.503 23.4515 154.321 25.2049 152.696 26.8182C151.101 28.4022 149.321 28.6488 148.535 28.6352L148.707 18.6367ZM144.496 23.0625L134.497 22.9133C134.444 26.477 135.55 30.4245 138.657 33.4652C141.673 36.4157 145.429 37.3903 148.535 37.4438L148.707 27.4453L148.879 17.4468C149.492 17.4574 151.122 17.68 152.644 19.1696C154.259 20.7493 154.505 22.5269 154.495 23.2117L144.496 23.0625ZM148.707 27.4453L148.896 37.4435C152.114 37.3828 155.745 36.28 158.627 33.4399C161.565 30.5446 162.778 26.7797 162.831 23.2117L152.832 23.0625L142.833 22.9133C142.843 22.2242 143.133 20.6292 144.588 19.1949C145.988 17.8157 147.577 17.4649 148.518 17.4471L148.707 27.4453ZM152.832 23.0625L162.831 22.9176C162.78 19.4099 161.631 15.6027 158.678 12.6506C155.729 9.70076 151.94 8.57395 148.518 8.6385L148.707 18.6367L148.896 28.6349C147.752 28.6565 146.004 28.2602 144.536 26.7927C143.067 25.3231 142.841 23.7502 142.833 23.2074L152.832 23.0625ZM159.148 25.168V35.168H164.477V25.168V15.168H159.148V25.168ZM164.477 25.168H174.477V20.9141H164.477H154.477V25.168H164.477ZM164.477 20.9141V10.9141H159.148V20.9141V30.9141H164.477V20.9141ZM159.148 20.9141L149.32 22.7569C149.367 23.0079 149.363 23.0815 149.363 23.0625H159.363H169.363C169.363 21.5396 169.188 20.1952 168.977 19.0712L159.148 20.9141ZM159.363 23.0625H149.363C149.363 23.0366 149.365 23.04 149.361 23.0768C149.357 23.1137 149.348 23.1763 149.331 23.2677L159.148 25.168L168.966 27.0682C169.187 25.9271 169.363 24.5681 169.363 23.0625H159.363ZM200.055 27.1016L208.355 32.6792C210.133 30.0333 210.543 26.6981 209.458 23.7003C208.374 20.7025 205.926 18.4013 202.866 17.505L200.055 27.1016ZM196.445 32.4727L193.313 41.9694C197.571 43.374 202.244 41.7721 204.745 38.0503L196.445 32.4727ZM188.066 25.5117L196.986 20.9914C195.258 17.5805 191.736 15.4539 187.912 15.5129C184.089 15.5719 180.634 17.8061 179.011 21.2687L188.066 25.5117ZM178.613 33.7187L170.283 39.2507C172.755 42.9741 177.399 44.6046 181.656 43.2445L178.613 33.7187ZM174.961 28.2187L172.087 18.6405C169.054 19.5505 166.631 21.8435 165.556 24.822C164.48 27.8006 164.879 31.1126 166.63 33.7507L174.961 28.2187ZM184.457 15.5L194.457 15.5833C194.457 15.5556 194.457 15.5278 194.457 15.5H184.457ZM184.457 12.2344V2.23437C178.934 2.23437 174.457 6.71153 174.457 12.2344H184.457ZM191.418 12.2344H201.418C201.418 6.71153 196.941 2.23437 191.418 2.23437V12.2344ZM209.379 10.2578H219.379C219.379 4.73496 214.902 0.257812 209.379 0.257812V10.2578ZM209.379 33.418V43.418C214.902 43.418 219.379 38.9408 219.379 33.418H209.379ZM202.504 33.418H192.504C192.504 38.9408 196.981 43.418 202.504 43.418V33.418ZM202.504 22.375L212.504 22.375C212.504 16.8522 208.027 12.375 202.504 12.375V22.375ZM195.973 22.375H185.973C185.973 27.8978 190.45 32.375 195.973 32.375V22.375ZM195.973 16.7891V6.78906C190.45 6.78906 185.973 11.2662 185.973 16.7891H195.973ZM202.504 16.7891V26.7891C208.027 26.7891 212.504 22.3119 212.504 16.7891L202.504 16.7891ZM202.504 10.2578V0.257812C196.981 0.257812 192.504 4.73496 192.504 10.2578H202.504ZM188.582 42.2266L198.579 42.4704C198.583 42.3116 198.583 42.1528 198.579 41.9941L188.582 42.2266ZM191.418 15.1562H181.418C181.418 18.8455 182.086 23.3918 184.733 27.6149C187.514 32.0537 191.84 35.1152 197.243 36.6981L200.055 27.1016L202.866 17.505C202.125 17.2876 201.801 17.0762 201.714 17.0131C201.643 16.9618 201.66 16.9628 201.68 16.9954C201.695 17.0184 201.418 16.5803 201.418 15.1562H191.418ZM200.055 27.1016L191.755 21.524L188.145 26.895L196.445 32.4727L204.745 38.0503L208.355 32.6792L200.055 27.1016ZM196.445 32.4727L199.578 22.9759C198.624 22.6614 198.098 22.3132 197.799 22.0583C197.504 21.808 197.237 21.4863 196.986 20.9914L188.066 25.5117L179.146 30.032C181.989 35.6417 186.775 39.8129 193.313 41.9694L196.445 32.4727ZM188.066 25.5117L179.011 21.2687C178.379 22.6177 177.445 23.5941 175.57 24.193L178.613 33.7187L181.656 43.2445C189.063 40.8785 194.23 35.9253 197.122 29.7547L188.066 25.5117ZM178.613 33.7187L186.944 28.1868L183.291 22.6868L174.961 28.2187L166.63 33.7507L170.283 39.2507L178.613 33.7187ZM174.961 28.2187L177.834 37.797C183.528 36.0889 187.965 32.8507 190.841 28.3838C193.605 24.09 194.424 19.4468 194.457 15.5833L184.457 15.5L174.457 15.4167C174.447 16.7094 174.171 17.3299 174.024 17.5586C173.958 17.66 173.859 17.7849 173.646 17.9391C173.423 18.1011 172.958 18.3794 172.087 18.6405L174.961 28.2187ZM184.457 15.5H194.457V12.2344H184.457H174.457V15.5H184.457ZM184.457 12.2344V22.2344H191.418V12.2344V2.23437L184.457 2.23437V12.2344ZM191.418 12.2344H181.418V15.1562H191.418H201.418V12.2344H191.418ZM209.379 10.2578H199.379V33.418H209.379H219.379V10.2578H209.379ZM209.379 33.418V23.418L202.504 23.418V33.418V43.418H209.379V33.418ZM202.504 33.418H212.504V22.375L202.504 22.375H192.504V33.418H202.504ZM202.504 22.375V12.375H195.973V22.375V32.375H202.504V22.375ZM195.973 22.375L205.973 22.375V16.7891L195.973 16.7891H185.973V22.375H195.973ZM195.973 16.7891V26.7891H202.504V16.7891V6.78906H195.973V16.7891ZM202.504 16.7891L212.504 16.7891V10.2578H202.504H192.504V16.7891H202.504ZM202.504 10.2578V20.2578L209.379 20.2578V10.2578V0.257812H202.504V10.2578ZM195.543 34.3633V44.3633C197.157 44.3633 198.419 44.5014 199.35 44.6927C200.299 44.8874 200.745 45.1041 200.847 45.1613C200.932 45.2092 200.54 45.009 200.122 44.3674C199.664 43.6623 199.465 42.866 199.465 42.2266H209.465H219.465C219.465 35.4393 215.529 30.4686 210.639 27.7225C206.168 25.2119 200.767 24.3633 195.543 24.3633V34.3633ZM209.465 42.2266H199.465C199.465 41.6145 199.655 40.8241 200.117 40.1118C200.539 39.4622 200.94 39.2559 200.861 39.2996C200.765 39.3537 200.322 39.569 199.369 39.7627C198.433 39.953 197.166 40.0898 195.543 40.0898V50.0898V60.0898C200.744 60.0898 206.146 59.2593 210.624 56.7551C215.548 54.0011 219.465 49.0162 219.465 42.2266H209.465ZM195.543 50.0898V40.0898C193.947 40.0898 192.7 39.9539 191.78 39.7655C190.843 39.5736 190.409 39.3609 190.316 39.309C190.242 39.2672 190.64 39.474 191.059 40.1199C191.517 40.8281 191.707 41.6149 191.707 42.2266H181.707H171.707C171.707 49.0087 175.615 53.99 180.52 56.7457C184.987 59.255 190.371 60.0898 195.543 60.0898V50.0898ZM181.707 42.2266H191.707C191.707 42.8656 191.509 43.6583 191.053 44.3593C190.639 44.9972 190.25 45.1979 190.331 45.1519C190.429 45.0968 190.866 44.8827 191.799 44.6898C192.715 44.5004 193.956 44.3633 195.543 44.3633V34.3633V24.3633C190.348 24.3633 184.966 25.2163 180.506 27.7319C175.634 30.4797 171.707 35.4469 171.707 42.2266H181.707ZM195.543 39.6484V29.6484C193.009 29.6484 189.783 29.7985 186.902 30.8302C185.366 31.3803 183.196 32.4336 181.393 34.5376C179.391 36.8743 178.521 39.7153 178.585 42.4591L188.582 42.2266L198.579 41.9941C198.622 43.814 198.02 45.8709 196.581 47.5509C195.34 48.9983 194.027 49.5226 193.646 49.6591C193.228 49.8087 193.118 49.7793 193.558 49.7305C193.955 49.6865 194.593 49.6484 195.543 49.6484V39.6484ZM188.582 42.2266L178.585 41.9827C178.515 44.8353 179.469 47.6833 181.474 49.9654C183.266 52.0053 185.399 53.0307 186.902 53.5692C189.758 54.5919 192.954 54.7617 195.543 54.7617V44.7617V34.7617C194.61 34.7617 193.979 34.7223 193.588 34.6777C193.156 34.6284 193.249 34.5984 193.646 34.7403C193.994 34.8653 195.271 35.367 196.5 36.7664C197.942 38.408 198.627 40.4986 198.579 42.4704L188.582 42.2266ZM195.543 44.7617V54.7617C198.16 54.7617 201.347 54.5895 204.193 53.5887C205.688 53.0633 207.791 52.0713 209.585 50.1042C211.59 47.9048 212.633 45.1094 212.633 42.2266H202.633H192.633C192.633 40.2245 193.385 38.1865 194.807 36.6276C196.017 35.301 197.242 34.8327 197.56 34.7209C197.926 34.5922 197.991 34.6257 197.544 34.6762C197.135 34.7222 196.488 34.7617 195.543 34.7617V44.7617ZM202.633 42.2266H212.633C212.633 39.4496 211.676 36.6556 209.667 34.3978C207.86 32.3663 205.719 31.3471 204.193 30.8108C201.322 29.8011 198.106 29.6484 195.543 29.6484V39.6484V49.6484C196.505 49.6484 197.159 49.6865 197.573 49.7319C198.029 49.7818 197.947 49.8148 197.56 49.6785C197.21 49.5557 195.947 49.0655 194.724 47.6907C193.3 46.0895 192.633 44.0797 192.633 42.2266H202.633ZM247.148 10.2578H257.148C257.148 4.73496 252.671 0.257812 247.148 0.257812V10.2578ZM247.148 50.1328V60.1328C252.671 60.1328 257.148 55.6557 257.148 50.1328H247.148ZM240.188 50.1328H230.188C230.188 55.6557 234.665 60.1328 240.188 60.1328V50.1328ZM240.188 10.2578V0.257812C234.665 0.257812 230.188 4.73496 230.188 10.2578L240.188 10.2578ZM225.32 12.9219L225.251 22.9216C225.298 22.922 225.344 22.922 225.391 22.9216L225.32 12.9219ZM225.32 19.1523L225.151 29.1509C225.268 29.1529 225.385 29.1528 225.502 29.1507L225.32 19.1523ZM247.148 10.2578H237.148V50.1328H247.148H257.148V10.2578H247.148ZM247.148 50.1328V40.1328H240.188V50.1328V60.1328H247.148V50.1328ZM240.188 50.1328H250.188V10.2578H240.188L230.188 10.2578V50.1328H240.188ZM240.188 10.2578V20.2578H247.148V10.2578V0.257812L240.188 0.257812V10.2578ZM225.32 12.9219L225.391 22.9216C225.323 22.9221 225.154 22.8984 224.979 22.8086C224.817 22.7259 224.826 22.6776 224.947 22.836C225.217 23.1905 225.934 24.4912 225.934 27.2305H235.934H245.934C245.934 21.2041 244.373 15.329 240.851 10.7099C237.204 5.92601 231.671 2.87658 225.249 2.92213L225.32 12.9219ZM235.934 27.2305H225.934C225.934 30.0606 225.204 31.3827 224.934 31.7382C224.813 31.8969 224.802 31.8518 224.956 31.7725C225.122 31.6871 225.275 31.668 225.32 31.668V41.668V51.668C231.694 51.668 237.212 48.6412 240.864 43.8312C244.386 39.1915 245.934 33.2949 245.934 27.2305H235.934ZM225.32 41.668V31.668C225.299 31.668 225.404 31.6713 225.541 31.7408C225.669 31.8057 225.65 31.8393 225.531 31.6843C225.266 31.3394 224.535 30.0417 224.535 27.2305H214.535L204.535 27.2305C204.535 33.3138 206.104 39.2348 209.684 43.8851C213.397 48.7076 218.958 51.668 225.32 51.668V41.668ZM214.535 27.2305H224.535C224.535 24.5104 225.252 23.2341 225.518 22.8899C225.638 22.7352 225.655 22.7717 225.519 22.84C225.458 22.8705 225.392 22.8942 225.33 22.9085C225.268 22.9228 225.238 22.9215 225.251 22.9216L225.32 12.9219L225.39 2.92212C218.981 2.87761 213.405 5.85932 209.696 10.656C206.117 15.2855 204.535 21.1849 204.535 27.2305L214.535 27.2305ZM225.32 19.1523L225.49 9.15378C219.858 9.05833 215.66 12.3324 213.487 16.4014C211.646 19.8478 211.195 23.7964 211.195 27.2305H221.195H231.195C231.195 26.3137 231.263 25.7475 231.316 25.4633C231.373 25.1571 231.379 25.3544 231.128 25.8242C230.861 26.3227 230.235 27.2482 229.021 28.0301C227.743 28.8533 226.346 29.1712 225.151 29.1509L225.32 19.1523ZM221.195 27.2305H211.195C211.195 30.6849 211.639 34.6522 213.494 38.1119C215.709 42.2414 219.884 45.3516 225.32 45.3516V35.3516V25.3516C226.43 25.3516 227.766 25.6544 229.013 26.456C230.21 27.2252 230.842 28.1409 231.12 28.6596C231.379 29.1424 231.374 29.3506 231.318 29.0427C231.265 28.7555 231.195 28.1772 231.195 27.2305H221.195ZM225.32 35.3516V45.3516C230.919 45.3516 234.97 41.9872 237.047 38.0564C238.846 34.6505 239.316 30.7384 239.316 27.2305H229.316H219.316C219.316 28.1618 219.247 28.7385 219.192 29.0302C219.135 29.3421 219.125 29.164 219.362 28.7151C219.611 28.2444 220.207 27.3429 221.379 26.5583C222.619 25.7281 224.028 25.3516 225.32 25.3516V35.3516ZM229.316 27.2305H239.316C239.316 23.7431 238.839 19.8492 237.055 16.4568C235.024 12.5971 230.945 9.04842 225.139 9.154L225.32 19.1523L225.502 29.1507C224.116 29.1759 222.641 28.7795 221.371 27.9276C220.182 27.1301 219.592 26.2192 219.355 25.7688C219.125 25.3328 219.136 25.1656 219.194 25.4758C219.248 25.7648 219.316 26.3293 219.316 27.2305H229.316ZM292.996 10.3008L302.996 10.3008C302.996 4.77793 298.519 0.300781 292.996 0.300781V10.3008ZM292.996 18.3359H282.996C282.996 23.8588 287.473 28.3359 292.996 28.3359V18.3359ZM297.938 18.3359H307.938C307.938 12.8131 303.46 8.33594 297.938 8.33594V18.3359ZM297.938 23.9648V33.9648C303.46 33.9648 307.938 29.4877 307.938 23.9648H297.938ZM292.996 23.9648V13.9648C287.473 13.9648 282.996 18.442 282.996 23.9648H292.996ZM292.996 31.5703V41.5703C298.519 41.5703 302.996 37.0932 302.996 31.5703H292.996ZM286.078 31.5703H276.078C276.078 37.0932 280.555 41.5703 286.078 41.5703V31.5703ZM286.078 10.3008V0.300781C280.555 0.300781 276.078 4.77793 276.078 10.3008H286.078ZM269.492 12.0195H279.492C279.492 6.49668 275.015 2.01953 269.492 2.01953V12.0195ZM269.492 24.7812H259.492C259.492 27.4935 260.594 30.0894 262.545 31.9737C264.495 33.8581 267.128 34.8692 269.839 34.7752L269.492 24.7812ZM283.414 23.1914L293.309 21.7452C292.91 19.0139 291.399 16.569 289.135 14.9897C286.871 13.4104 284.055 12.8372 281.354 13.4059L283.414 23.1914ZM284.23 28.7773L286.267 38.5677C291.446 37.4902 294.89 32.5655 294.125 27.3312L284.23 28.7773ZM262.574 30.4531H252.574C252.574 35.976 257.051 40.4531 262.574 40.4531V30.4531ZM262.574 12.0195V2.01953C257.051 2.01953 252.574 6.49668 252.574 12.0195H262.574ZM293.34 33.0312H303.34C303.34 27.5084 298.863 23.0312 293.34 23.0312V33.0312ZM293.34 38.4023V48.4023C298.863 48.4023 303.34 43.9252 303.34 38.4023H293.34ZM283.672 38.4023V28.4023C280.481 28.4023 277.482 29.9252 275.599 32.5013C273.716 35.0774 273.175 38.3975 274.144 41.4379L283.672 38.4023ZM295.23 44.5039L304.19 48.9464C305.641 46.019 305.571 42.5671 304.002 39.7011C302.432 36.8351 299.562 34.9166 296.313 34.5627L295.23 44.5039ZM292.652 49.7031L291.53 59.6399C295.712 60.1123 299.742 57.916 301.611 54.1456L292.652 49.7031ZM279.848 43.5586L287.942 37.687C286.066 35.1002 283.066 33.566 279.871 33.5586C276.675 33.5513 273.668 35.0717 271.78 37.6499L279.848 43.5586ZM267 49.5742L258.041 54.0167C259.911 57.787 263.941 59.9834 268.122 59.511L267 49.5742ZM264.422 44.375L263.482 34.4193C260.203 34.7289 257.288 36.6326 255.685 39.5094C254.083 42.3862 254 45.8674 255.463 48.8175L264.422 44.375ZM275.938 38.4023L285.511 41.291C286.425 38.262 285.852 34.9792 283.965 32.4394C282.079 29.8996 279.101 28.4023 275.938 28.4023V38.4023ZM266.227 38.4023H256.227C256.227 43.9252 260.704 48.4023 266.227 48.4023V38.4023ZM266.227 33.0312V23.0312C260.704 23.0312 256.227 27.5084 256.227 33.0312H266.227ZM292.996 10.3008H282.996V18.3359H292.996H302.996V10.3008L292.996 10.3008ZM292.996 18.3359V28.3359H297.938V18.3359V8.33594H292.996V18.3359ZM297.938 18.3359H287.938V23.9648H297.938H307.938V18.3359H297.938ZM297.938 23.9648V13.9648H292.996V23.9648V33.9648H297.938V23.9648ZM292.996 23.9648H282.996V31.5703H292.996H302.996V23.9648H292.996ZM292.996 31.5703V21.5703H286.078V31.5703V41.5703H292.996V31.5703ZM286.078 31.5703H296.078V10.3008H286.078H276.078V31.5703H286.078ZM286.078 10.3008V20.3008H292.996V10.3008V0.300781L286.078 0.300781V10.3008ZM269.492 12.0195H259.492V24.7812H269.492H279.492V12.0195H269.492ZM269.492 24.7812L269.839 34.7752C274.551 34.612 279.842 34.1626 285.474 32.9769L283.414 23.1914L281.354 13.4059C277.189 14.2827 273.113 14.6498 269.146 14.7872L269.492 24.7812ZM283.414 23.1914L273.519 24.6376L274.336 30.2235L284.23 28.7773L294.125 27.3312L293.309 21.7452L283.414 23.1914ZM284.23 28.7773L282.194 18.987C276.697 20.1306 271.162 20.4531 266.141 20.4531V30.4531V40.4531C271.947 40.4531 278.96 40.0881 286.267 38.5677L284.23 28.7773ZM266.141 30.4531V20.4531H262.574V30.4531V40.4531H266.141V30.4531ZM262.574 30.4531H272.574V12.0195H262.574H252.574V30.4531H262.574ZM262.574 12.0195V22.0195H269.492V12.0195V2.01953H262.574V12.0195ZM293.34 33.0312H283.34V38.4023H293.34H303.34V33.0312H293.34ZM293.34 38.4023V28.4023H283.672V38.4023V48.4023H293.34V38.4023ZM283.672 38.4023L274.144 41.4379C276.711 49.4959 284.924 53.4403 294.147 54.4451L295.23 44.5039L296.313 34.5627C293.458 34.2517 292.291 33.6505 292.064 33.5122C291.897 33.4104 292.728 33.8848 293.2 35.3668L283.672 38.4023ZM295.23 44.5039L286.271 40.0614L283.693 45.2606L292.652 49.7031L301.611 54.1456L304.19 48.9464L295.23 44.5039ZM292.652 49.7031L293.775 39.7663C289.137 39.2424 288.011 37.7819 287.942 37.687L279.848 43.5586L271.753 49.4301C276.11 55.4368 283.235 58.7029 291.53 59.6399L292.652 49.7031ZM279.848 43.5586L271.78 37.6499C271.776 37.6555 270.722 39.0902 265.878 39.6374L267 49.5742L268.122 59.511C276.212 58.5973 283.451 55.5633 287.915 49.4673L279.848 43.5586ZM267 49.5742L275.959 45.1317L273.381 39.9325L264.422 44.375L255.463 48.8175L258.041 54.0167L267 49.5742ZM264.422 44.375L265.362 54.3307C274.568 53.4613 282.984 49.6658 285.511 41.291L275.938 38.4023L266.364 35.5137C266.572 34.825 266.888 34.2923 267.191 33.9253C267.487 33.5659 267.702 33.4453 267.655 33.4733C267.506 33.5624 266.392 34.1444 263.482 34.4193L264.422 44.375ZM275.938 38.4023V28.4023H266.227V38.4023V48.4023H275.938V38.4023ZM266.227 38.4023H276.227V33.0312H266.227H256.227V38.4023H266.227ZM266.227 33.0312V43.0312H293.34V33.0312V23.0312H266.227V33.0312ZM335.492 30.1953H345.492C345.492 24.6725 341.015 20.1953 335.492 20.1953V30.1953ZM335.492 35.6094V45.6094C341.015 45.6094 345.492 41.1322 345.492 35.6094H335.492ZM299.227 35.6094H289.227C289.227 41.1322 293.704 45.6094 299.227 45.6094V35.6094ZM299.227 30.1953V20.1953C293.704 20.1953 289.227 24.6725 289.227 30.1953H299.227ZM331.281 43.9453H341.281C341.281 38.4225 336.804 33.9453 331.281 33.9453V43.9453ZM331.281 49.4453V59.4453C336.804 59.4453 341.281 54.9682 341.281 49.4453H331.281ZM303.395 49.4453H293.395C293.395 54.9682 297.872 59.4453 303.395 59.4453V49.4453ZM303.395 37.7578V27.7578C297.872 27.7578 293.395 32.235 293.395 37.7578H303.395ZM310.312 37.7578H320.312C320.312 32.235 315.835 27.7578 310.312 27.7578V37.7578ZM310.312 43.9453H300.312C300.312 49.4682 304.79 53.9453 310.312 53.9453V43.9453ZM332.055 19.668L342.054 19.7506C342.055 19.6951 342.055 19.6395 342.054 19.5839L332.055 19.668ZM302.621 19.668L312.621 19.7506C312.621 19.6951 312.621 19.6395 312.621 19.5839L302.621 19.668ZM317.359 16.7891L317.447 6.78945C317.389 6.78894 317.331 6.78893 317.273 6.78943L317.359 16.7891ZM309.797 19.668L319.795 19.8763C319.798 19.7328 319.798 19.5893 319.794 19.4458L309.797 19.668ZM317.359 22.5039L317.447 12.5043C317.389 12.5038 317.331 12.5038 317.273 12.5043L317.359 22.5039ZM335.492 30.1953H325.492V35.6094H335.492H345.492V30.1953H335.492ZM335.492 35.6094V25.6094L299.227 25.6094V35.6094V45.6094H335.492V35.6094ZM299.227 35.6094H309.227V30.1953H299.227H289.227V35.6094H299.227ZM299.227 30.1953V40.1953H335.492V30.1953V20.1953L299.227 20.1953V30.1953ZM331.281 43.9453H321.281V49.4453H331.281H341.281V43.9453H331.281ZM331.281 49.4453V39.4453H303.395V49.4453V59.4453H331.281V49.4453ZM303.395 49.4453H313.395V37.7578H303.395H293.395V49.4453H303.395ZM303.395 37.7578V47.7578H310.312V37.7578V27.7578H303.395V37.7578ZM310.312 37.7578H300.312V43.9453H310.312H320.312V37.7578H310.312ZM310.312 43.9453V53.9453H331.281V43.9453V33.9453H310.312V43.9453ZM317.359 11.375V21.375C320.721 21.375 322.526 22.0133 323.109 22.3387C323.343 22.469 323.071 22.3761 322.716 21.856C322.31 21.2617 322.061 20.4903 322.055 19.752L332.055 19.668L342.054 19.5839C341.995 12.4987 337.652 7.54773 332.847 4.86932C328.285 2.32652 322.763 1.375 317.359 1.375V11.375ZM332.055 19.668L322.055 19.5853C322.061 18.9054 322.287 18.1732 322.675 17.5968C323.016 17.0901 323.279 16.9977 323.054 17.125C322.486 17.4464 320.704 18.0898 317.359 18.0898V28.0898V38.0898C322.78 38.0898 328.325 37.1219 332.902 34.5322C337.741 31.7944 341.996 26.799 342.054 19.7506L332.055 19.668ZM317.359 28.0898V18.0898C313.953 18.0898 312.138 17.4399 311.563 17.1162C311.337 16.9887 311.623 17.0926 311.984 17.6341C312.396 18.2522 312.627 19.033 312.621 19.7506L302.621 19.668L292.621 19.5853C292.562 26.7448 296.883 31.8013 301.746 34.541C306.339 37.1284 311.915 38.0898 317.359 38.0898V28.0898ZM302.621 19.668L312.621 19.5839C312.627 20.3609 312.374 21.1821 311.944 21.8187C311.568 22.3737 311.273 22.4781 311.508 22.3473C312.098 22.0196 313.936 21.375 317.359 21.375V11.375V1.375C311.931 1.375 306.378 2.32024 301.801 4.86072C296.974 7.54019 292.561 12.5526 292.621 19.752L302.621 19.668ZM317.359 16.7891L317.273 6.78943C314.483 6.81349 311.16 7.05032 308.212 8.14491C306.679 8.71408 304.568 9.76021 302.786 11.7639C300.797 14.0015 299.732 16.8711 299.799 19.8901L309.797 19.668L319.794 19.4458C319.84 21.498 319.087 23.5298 317.733 25.053C316.586 26.3423 315.434 26.7976 315.174 26.8942C314.861 27.0101 314.85 26.9666 315.336 26.9045C315.785 26.8471 316.472 26.7971 317.446 26.7887L317.359 16.7891ZM309.797 19.668L299.799 19.4597C299.739 22.3308 300.684 25.2113 302.707 27.5418C304.532 29.6441 306.724 30.717 308.317 31.2884C311.334 32.3703 314.717 32.5271 317.446 32.5035L317.359 22.5039L317.273 12.5043C316.283 12.5128 315.594 12.4758 315.148 12.4274C314.662 12.3746 314.709 12.3336 315.069 12.4626C315.389 12.5774 316.622 13.0622 317.812 14.4327C319.199 16.0314 319.833 18.0364 319.795 19.8763L309.797 19.668ZM317.359 22.5039L317.272 32.5035C319.981 32.5273 323.336 32.3662 326.341 31.2929C327.923 30.7278 330.077 29.6785 331.893 27.6428C333.901 25.3905 334.922 22.5644 334.922 19.668L324.922 19.668H314.922C314.922 17.8028 315.61 15.8522 316.966 14.3317C318.128 13.0278 319.31 12.5667 319.614 12.4581C319.957 12.3355 319.995 12.3763 319.52 12.4283C319.083 12.4761 318.41 12.5127 317.447 12.5043L317.359 22.5039ZM324.922 19.668L334.922 19.668C334.922 16.6293 333.782 13.8196 331.812 11.6638C330.042 9.72571 327.968 8.70309 326.446 8.14014C323.511 7.05501 320.217 6.81375 317.447 6.78945L317.359 16.7891L317.272 26.7887C318.218 26.797 318.889 26.8464 319.331 26.9032C319.806 26.9645 319.805 27.0081 319.51 26.8989C319.265 26.8086 318.164 26.3768 317.046 25.1531C315.729 23.7117 314.922 21.7398 314.922 19.668H324.922Z" fill="white" mask="url(#path-1-outside-1_6526_5758)"/>
</g>
<defs>
<filter id="filter0_d_6526_5758" x="0" y="0" width="349.492" height="68.1328" filterUnits="userSpaceOnUse" color-interpolation-filters="sRGB">
<feFlood flood-opacity="0" result="BackgroundImageFix"/>
<feColorMatrix in="SourceAlpha" type="matrix" values="0 0 0 0 0 0 0 0 0 0 0 0 0 0 0 0 0 0 127 0" result="hardAlpha"/>
<feOffset dy="4"/>
<feGaussianBlur stdDeviation="2"/>
<feComposite in2="hardAlpha" operator="out"/>
<feColorMatrix type="matrix" values="0 0 0 0 0 0 0 0 0 0 0 0 0 0 0 0 0 0 0.07 0"/>
<feBlend mode="normal" in2="BackgroundImageFix" result="effect1_dropShadow_6526_5758"/>
<feBlend mode="normal" in="SourceGraphic" in2="effect1_dropShadow_6526_5758" result="shape"/>
</filter>
</defs>
</svg>
