<svg width="177" height="68" viewBox="0 0 177 68" fill="none" xmlns="http://www.w3.org/2000/svg">
<g filter="url(#filter0_d_6524_1783)">
<mask id="path-1-outside-1_6524_1783" maskUnits="userSpaceOnUse" x="3.09766" y="-0.507813" width="170" height="61" fill="black">
<rect fill="white" x="3.09766" y="-0.507813" width="170" height="61"/>
<path d="M48.7617 14.5117V19.9688H15.418V14.5117H28.6094V10.3438H35.4844V14.5117H48.7617ZM50.3086 40.7227V46.1367H14V40.7227H22.1211V34.6641C19.5645 33.332 18.125 31.334 18.125 28.7773C18.125 23.9219 23.4961 21 32.0469 21C40.5547 21 45.8828 23.9219 45.8828 28.7773C45.8828 31.334 44.4648 33.332 41.9297 34.6641V40.7227H50.3086ZM32.0469 26.2422C27.4062 26.2422 25.2578 26.9727 25.2578 28.7773C25.2578 30.582 27.4062 31.3125 32.0469 31.2695C36.5586 31.3125 38.793 30.582 38.793 28.7773C38.793 26.9727 36.5586 26.2422 32.0469 26.2422ZM29.0391 40.7227H35.1836V36.4258C34.1953 36.5547 33.1426 36.5977 32.0469 36.5977C30.9941 36.5977 29.9844 36.5547 29.0391 36.4688V40.7227ZM70.1602 10.3008C79.4844 10.3437 84.8125 12.6641 84.8555 17.0469C84.8125 21.3867 79.4844 23.75 70.1602 23.75C60.793 23.75 55.3789 21.3867 55.4219 17.0469C55.3789 12.6641 60.793 10.3437 70.1602 10.3008ZM70.1602 15.3281C64.7891 15.3281 62.6406 15.7578 62.6406 17.0469C62.6406 18.4648 64.7891 18.8086 70.1602 18.8086C75.5742 18.8086 77.7227 18.4648 77.7227 17.0469C77.7227 15.7578 75.5742 15.3281 70.1602 15.3281ZM88.293 24.9102V30.2383H79.8711V32.2578H83.9961V43.2148H62.8125V44.5039H84.9414V49.5742H56.0664V38.4883H77.207V37.2852H56.1094V32.2578H60.6641V30.2383H52.0273V24.9102L88.293 24.9102ZM67.4961 32.2578H72.9961V30.2383H67.4961V32.2578ZM113.086 11.9336V17.3477H105.867C106.211 21.3652 108.51 25.4902 114.504 27.4453L111.195 32.7305C106.92 31.4629 104.084 28.9062 102.387 25.6836C100.625 29.25 97.6602 32.1074 93.1055 33.4609L89.582 28.0469C95.9844 26.1348 98.3262 21.5801 98.7344 17.3477H91.4727V11.9336L113.086 11.9336ZM123.871 35.1367V49.7461H116.996V40.5938H96.2422V35.1367H123.871ZM123.871 10V33.6328H116.996V24.6094H112.055V19.0234H116.996V10H123.871ZM161.598 10.0859V38.3164H154.68V10.0859H161.598ZM162.543 43.6875V49.1875L134.398 49.1875V35.4805L141.359 35.4805V43.6875H162.543ZM139.641 12.4492C145.828 12.4492 150.77 16.7461 150.77 22.6328C150.77 28.6484 145.828 32.9023 139.641 32.9023C133.453 32.9023 128.469 28.6484 128.512 22.6328C128.469 16.7461 133.453 12.4492 139.641 12.4492ZM139.641 18.4219C137.105 18.4219 135.215 19.8398 135.215 22.6328C135.215 25.5547 137.105 26.9297 139.641 26.9297C142.047 26.9297 143.938 25.5547 143.938 22.6328C143.938 19.8398 142.047 18.4219 139.641 18.4219Z"/>
</mask>
<path d="M48.7617 14.5117V19.9688H15.418V14.5117H28.6094V10.3438H35.4844V14.5117H48.7617ZM50.3086 40.7227V46.1367H14V40.7227H22.1211V34.6641C19.5645 33.332 18.125 31.334 18.125 28.7773C18.125 23.9219 23.4961 21 32.0469 21C40.5547 21 45.8828 23.9219 45.8828 28.7773C45.8828 31.334 44.4648 33.332 41.9297 34.6641V40.7227H50.3086ZM32.0469 26.2422C27.4062 26.2422 25.2578 26.9727 25.2578 28.7773C25.2578 30.582 27.4062 31.3125 32.0469 31.2695C36.5586 31.3125 38.793 30.582 38.793 28.7773C38.793 26.9727 36.5586 26.2422 32.0469 26.2422ZM29.0391 40.7227H35.1836V36.4258C34.1953 36.5547 33.1426 36.5977 32.0469 36.5977C30.9941 36.5977 29.9844 36.5547 29.0391 36.4688V40.7227ZM70.1602 10.3008C79.4844 10.3437 84.8125 12.6641 84.8555 17.0469C84.8125 21.3867 79.4844 23.75 70.1602 23.75C60.793 23.75 55.3789 21.3867 55.4219 17.0469C55.3789 12.6641 60.793 10.3437 70.1602 10.3008ZM70.1602 15.3281C64.7891 15.3281 62.6406 15.7578 62.6406 17.0469C62.6406 18.4648 64.7891 18.8086 70.1602 18.8086C75.5742 18.8086 77.7227 18.4648 77.7227 17.0469C77.7227 15.7578 75.5742 15.3281 70.1602 15.3281ZM88.293 24.9102V30.2383H79.8711V32.2578H83.9961V43.2148H62.8125V44.5039H84.9414V49.5742H56.0664V38.4883H77.207V37.2852H56.1094V32.2578H60.6641V30.2383H52.0273V24.9102L88.293 24.9102ZM67.4961 32.2578H72.9961V30.2383H67.4961V32.2578ZM113.086 11.9336V17.3477H105.867C106.211 21.3652 108.51 25.4902 114.504 27.4453L111.195 32.7305C106.92 31.4629 104.084 28.9062 102.387 25.6836C100.625 29.25 97.6602 32.1074 93.1055 33.4609L89.582 28.0469C95.9844 26.1348 98.3262 21.5801 98.7344 17.3477H91.4727V11.9336L113.086 11.9336ZM123.871 35.1367V49.7461H116.996V40.5938H96.2422V35.1367H123.871ZM123.871 10V33.6328H116.996V24.6094H112.055V19.0234H116.996V10H123.871ZM161.598 10.0859V38.3164H154.68V10.0859H161.598ZM162.543 43.6875V49.1875L134.398 49.1875V35.4805L141.359 35.4805V43.6875H162.543ZM139.641 12.4492C145.828 12.4492 150.77 16.7461 150.77 22.6328C150.77 28.6484 145.828 32.9023 139.641 32.9023C133.453 32.9023 128.469 28.6484 128.512 22.6328C128.469 16.7461 133.453 12.4492 139.641 12.4492ZM139.641 18.4219C137.105 18.4219 135.215 19.8398 135.215 22.6328C135.215 25.5547 137.105 26.9297 139.641 26.9297C142.047 26.9297 143.938 25.5547 143.938 22.6328C143.938 19.8398 142.047 18.4219 139.641 18.4219Z" fill="#11DCA9"/>
<path d="M48.7617 14.5117H58.7617C58.7617 8.98887 54.2846 4.51172 48.7617 4.51172V14.5117ZM48.7617 19.9688V29.9688C54.2846 29.9688 58.7617 25.4916 58.7617 19.9688H48.7617ZM15.418 19.9688H5.41797C5.41797 25.4916 9.89512 29.9688 15.418 29.9688V19.9688ZM15.418 14.5117V4.51172C9.89512 4.51172 5.41797 8.98887 5.41797 14.5117H15.418ZM28.6094 14.5117V24.5117C34.1322 24.5117 38.6094 20.0346 38.6094 14.5117H28.6094ZM28.6094 10.3438V0.34375C23.0865 0.34375 18.6094 4.8209 18.6094 10.3438H28.6094ZM35.4844 10.3438L45.4844 10.3437C45.4844 4.8209 41.0072 0.34375 35.4844 0.34375V10.3438ZM35.4844 14.5117H25.4844C25.4844 20.0346 29.9615 24.5117 35.4844 24.5117V14.5117ZM50.3086 40.7227H60.3086C60.3086 35.1998 55.8314 30.7227 50.3086 30.7227V40.7227ZM50.3086 46.1367V56.1367C55.8314 56.1367 60.3086 51.6596 60.3086 46.1367H50.3086ZM14 46.1367H4C4 51.6596 8.47715 56.1367 14 56.1367V46.1367ZM14 40.7227V30.7227C8.47715 30.7227 4 35.1998 4 40.7227H14ZM22.1211 40.7227V50.7227C27.6439 50.7227 32.1211 46.2455 32.1211 40.7227H22.1211ZM22.1211 34.6641H32.1211C32.1211 30.9363 30.0476 27.518 26.7417 25.7956L22.1211 34.6641ZM41.9297 34.6641L37.2784 25.8116C33.9895 27.5397 31.9297 30.9488 31.9297 34.6641H41.9297ZM41.9297 40.7227H31.9297C31.9297 46.2455 36.4068 50.7227 41.9297 50.7227V40.7227ZM32.0469 31.2695L32.1421 21.27C32.0795 21.2694 32.0169 21.2694 31.9543 21.27L32.0469 31.2695ZM29.0391 40.7227H19.0391C19.0391 46.2455 23.5162 50.7227 29.0391 50.7227V40.7227ZM35.1836 40.7227V50.7227C40.7064 50.7227 45.1836 46.2455 45.1836 40.7227H35.1836ZM35.1836 36.4258H45.1836C45.1836 33.5481 43.9439 30.81 41.7816 28.9113C39.6192 27.0127 36.7437 26.1376 33.8902 26.5098L35.1836 36.4258ZM29.0391 36.4688L29.9444 26.5098C27.1464 26.2554 24.3704 27.1899 22.2957 29.0845C20.221 30.9791 19.0391 33.6591 19.0391 36.4688H29.0391ZM48.7617 14.5117H38.7617V19.9688H48.7617H58.7617V14.5117H48.7617ZM48.7617 19.9688V9.96875L15.418 9.96875V19.9688V29.9688H48.7617V19.9688ZM15.418 19.9688H25.418V14.5117H15.418H5.41797V19.9688H15.418ZM15.418 14.5117V24.5117H28.6094V14.5117V4.51172H15.418V14.5117ZM28.6094 14.5117H38.6094V10.3438H28.6094H18.6094V14.5117H28.6094ZM28.6094 10.3438V20.3438H35.4844V10.3438V0.34375H28.6094V10.3438ZM35.4844 10.3438H25.4844V14.5117H35.4844H45.4844V10.3437L35.4844 10.3438ZM35.4844 14.5117V24.5117H48.7617V14.5117V4.51172L35.4844 4.51172V14.5117ZM50.3086 40.7227H40.3086V46.1367H50.3086H60.3086V40.7227H50.3086ZM50.3086 46.1367V36.1367H14V46.1367V56.1367H50.3086V46.1367ZM14 46.1367H24V40.7227H14H4V46.1367H14ZM14 40.7227V50.7227H22.1211V40.7227V30.7227H14V40.7227ZM22.1211 40.7227H32.1211V34.6641H22.1211H12.1211V40.7227H22.1211ZM22.1211 34.6641L26.7417 25.7956C26.5761 25.7093 26.9588 25.8677 27.3975 26.5042C27.8916 27.2209 28.125 28.0692 28.125 28.7773H18.125H8.125C8.125 35.9269 12.4827 40.9183 17.5005 43.5326L22.1211 34.6641ZM18.125 28.7773H28.125C28.125 29.5084 27.8925 30.3487 27.421 31.0567C26.9973 31.693 26.6144 31.8768 26.7292 31.8131C26.8545 31.7437 27.3205 31.5239 28.2728 31.3286C29.2076 31.1369 30.4611 31 32.0469 31V21V11C26.8449 11 21.478 11.8557 17.0296 14.3226C12.2225 16.9885 8.125 21.9003 8.125 28.7773H18.125ZM32.0469 21V31C33.6191 31 34.8579 31.1365 35.7779 31.3263C36.7152 31.5196 37.167 31.7359 37.2806 31.7993C37.3825 31.8562 36.9968 31.6659 36.5753 31.0283C36.1081 30.3215 35.8828 29.491 35.8828 28.7773H45.8828H55.8828C55.8828 21.9391 51.838 17.0208 47.03 14.3365C42.5894 11.8573 37.233 11 32.0469 11V21ZM45.8828 28.7773H35.8828C35.8828 28.1023 36.1025 27.2691 36.5923 26.5501C37.0305 25.9068 37.4219 25.7362 37.2784 25.8116L41.9297 34.6641L46.581 43.5165C51.6202 40.8688 55.8828 35.8594 55.8828 28.7773H45.8828ZM41.9297 34.6641H31.9297V40.7227H41.9297H51.9297V34.6641H41.9297ZM41.9297 40.7227V50.7227H50.3086V40.7227V30.7227H41.9297V40.7227ZM32.0469 26.2422V16.2422C29.5497 16.2422 26.3504 16.3916 23.4802 17.4404C21.9348 18.005 19.8108 19.0678 18.0466 21.1434C16.1107 23.4209 15.2578 26.154 15.2578 28.7773H25.2578H35.2578C35.2578 30.4984 34.6734 32.4634 33.2854 34.0964C32.0691 35.5274 30.7722 36.0692 30.344 36.2257C29.8942 36.39 29.7481 36.3669 30.1532 36.3211C30.5164 36.2799 31.1224 36.2422 32.0469 36.2422V26.2422ZM25.2578 28.7773H15.2578C15.2578 31.3987 16.1097 34.1367 18.0533 36.4185C19.8265 38.5003 21.9625 39.5618 23.5201 40.1235C26.4132 41.1666 29.6281 41.2924 32.1395 41.2691L32.0469 31.2695L31.9543 21.27C31.037 21.2785 30.4384 21.2455 30.0837 21.2079C29.687 21.1658 29.8428 21.1428 30.3041 21.3092C30.7446 21.468 32.0533 22.0112 33.2787 23.4498C34.6745 25.0884 35.2578 27.0584 35.2578 28.7773H25.2578ZM32.0469 31.2695L31.9516 41.2691C34.433 41.2927 37.6125 41.161 40.4894 40.1286C42.0237 39.578 44.1407 38.539 45.9157 36.5002C47.8725 34.2525 48.793 31.4981 48.793 28.7773H38.793H28.793C28.793 26.9589 29.4342 24.9726 30.831 23.3681C32.046 21.9724 33.3225 21.4517 33.7342 21.304C34.1756 21.1456 34.3193 21.1681 33.9365 21.2092C33.5938 21.246 33.0175 21.2783 32.1421 21.27L32.0469 31.2695ZM38.793 28.7773H48.793C48.793 26.0546 47.8715 23.3051 45.9225 21.0616C44.1565 19.0288 42.0512 17.9885 40.5292 17.4351C37.6756 16.3974 34.5123 16.2422 32.0469 16.2422V26.2422V36.2422C32.9302 36.2422 33.5144 36.2792 33.8662 36.3195C34.258 36.3644 34.1243 36.3873 33.6944 36.2309C33.295 36.0857 32.0303 35.5664 30.8243 34.1782C29.4352 32.5792 28.793 30.5977 28.793 28.7773H38.793ZM29.0391 40.7227V50.7227H35.1836V40.7227V30.7227H29.0391V40.7227ZM35.1836 40.7227H45.1836V36.4258H35.1836H25.1836V40.7227H35.1836ZM35.1836 36.4258L33.8902 26.5098C33.4922 26.5617 32.911 26.5977 32.0469 26.5977V36.5977V46.5977C33.3741 46.5977 34.8984 46.5477 36.477 46.3418L35.1836 36.4258ZM32.0469 36.5977V26.5977C31.261 26.5977 30.5555 26.5654 29.9444 26.5098L29.0391 36.4688L28.1337 46.4277C29.4133 46.544 30.7272 46.5977 32.0469 46.5977V36.5977ZM29.0391 36.4688H19.0391V40.7227H29.0391H39.0391V36.4688H29.0391ZM70.1602 10.3008L70.2062 0.300887C70.1756 0.300746 70.1449 0.300746 70.1143 0.300886L70.1602 10.3008ZM84.8555 17.0469L94.855 17.1459C94.8556 17.0802 94.8556 17.0145 94.855 16.9488L84.8555 17.0469ZM55.4219 17.0469L65.4214 17.1459C65.422 17.0802 65.422 17.0145 65.4214 16.9488L55.4219 17.0469ZM88.293 24.9102H98.293C98.293 19.3873 93.8158 14.9102 88.293 14.9102V24.9102ZM88.293 30.2383V40.2383C93.8158 40.2383 98.293 35.7611 98.293 30.2383H88.293ZM79.8711 30.2383V20.2383C74.3482 20.2383 69.8711 24.7154 69.8711 30.2383H79.8711ZM79.8711 32.2578H69.8711C69.8711 37.7807 74.3482 42.2578 79.8711 42.2578V32.2578ZM83.9961 32.2578H93.9961C93.9961 26.735 89.5189 22.2578 83.9961 22.2578V32.2578ZM83.9961 43.2148V53.2148C89.5189 53.2148 93.9961 48.7377 93.9961 43.2148H83.9961ZM62.8125 43.2148V33.2148C57.2897 33.2148 52.8125 37.692 52.8125 43.2148H62.8125ZM62.8125 44.5039H52.8125C52.8125 50.0268 57.2897 54.5039 62.8125 54.5039V44.5039ZM84.9414 44.5039H94.9414C94.9414 38.9811 90.4643 34.5039 84.9414 34.5039V44.5039ZM84.9414 49.5742V59.5742C90.4643 59.5742 94.9414 55.0971 94.9414 49.5742H84.9414ZM56.0664 49.5742H46.0664C46.0664 55.0971 50.5436 59.5742 56.0664 59.5742V49.5742ZM56.0664 38.4883V28.4883C50.5436 28.4883 46.0664 32.9654 46.0664 38.4883H56.0664ZM77.207 38.4883V48.4883C82.7299 48.4883 87.207 44.0111 87.207 38.4883H77.207ZM77.207 37.2852H87.207C87.207 31.7623 82.7299 27.2852 77.207 27.2852V37.2852ZM56.1094 37.2852H46.1094C46.1094 42.808 50.5865 47.2852 56.1094 47.2852V37.2852ZM56.1094 32.2578V22.2578C50.5865 22.2578 46.1094 26.735 46.1094 32.2578H56.1094ZM60.6641 32.2578V42.2578C66.1869 42.2578 70.6641 37.7807 70.6641 32.2578H60.6641ZM60.6641 30.2383H70.6641C70.6641 24.7154 66.1869 20.2383 60.6641 20.2383V30.2383ZM52.0273 30.2383H42.0273C42.0273 35.7611 46.5045 40.2383 52.0273 40.2383V30.2383ZM52.0273 24.9102V14.9102C46.5045 14.9102 42.0273 19.3873 42.0273 24.9102H52.0273ZM67.4961 32.2578H57.4961C57.4961 37.7807 61.9732 42.2578 67.4961 42.2578V32.2578ZM72.9961 32.2578V42.2578C78.5189 42.2578 82.9961 37.7807 82.9961 32.2578H72.9961ZM72.9961 30.2383H82.9961C82.9961 24.7154 78.5189 20.2383 72.9961 20.2383V30.2383ZM67.4961 30.2383V20.2383C61.9732 20.2383 57.4961 24.7154 57.4961 30.2383H67.4961ZM70.1602 10.3008L70.1141 20.3007C72.0553 20.3096 73.6043 20.4376 74.7922 20.6292C76.0073 20.8251 76.6405 21.0551 76.8635 21.1561C77.0937 21.2603 76.5791 21.0841 75.9688 20.302C75.2567 19.3894 74.8665 18.2243 74.8559 17.1449L84.8555 17.0469L94.855 16.9488C94.7831 9.614 89.857 5.08471 85.1131 2.93671C80.7333 0.953578 75.4287 0.324954 70.2062 0.300887L70.1602 10.3008ZM84.8555 17.0469L74.856 16.9479C74.867 15.8369 75.2702 14.6653 75.9784 13.7607C76.5855 12.9852 77.094 12.8119 76.8635 12.9162C76.6417 13.0166 76.0117 13.2456 74.8064 13.4381C73.6278 13.6264 72.0887 13.75 70.1602 13.75V23.75V33.75C75.4135 33.75 80.7258 33.1221 85.1131 31.1356C89.832 28.9989 94.7824 24.4795 94.855 17.1459L84.8555 17.0469ZM70.1602 23.75V13.75C68.219 13.75 66.6626 13.6262 65.4662 13.4364C64.2417 13.2422 63.5965 13.0104 63.365 12.9063C63.1195 12.7958 63.6499 12.973 64.2787 13.7804C65.0193 14.7312 65.433 15.9705 65.4214 17.1459L55.4219 17.0469L45.4224 16.9479C45.348 24.4581 50.4579 29.0303 55.1594 31.1455C59.5557 33.1233 64.8918 33.75 70.1602 33.75V23.75ZM55.4219 17.0469L65.4214 16.9488C65.4326 18.0913 65.0326 19.3235 64.2883 20.2822C63.6563 21.0963 63.1197 21.2763 63.365 21.166C63.5977 21.0613 64.2462 20.8285 65.4804 20.6309C66.6859 20.4379 68.2522 20.3096 70.206 20.3007L70.1602 10.3008L70.1143 0.300886C64.8767 0.324912 59.5483 0.952271 55.1594 2.92681C50.4316 5.05379 45.3487 9.63558 45.4224 17.1449L55.4219 17.0469ZM70.1602 15.3281V5.32812C67.496 5.32812 64.6156 5.4092 62.2169 5.94223C61.059 6.19954 58.9322 6.7792 56.9273 8.33597C54.4203 10.2826 52.6406 13.3699 52.6406 17.0469H62.6406H72.6406C72.6406 18.3284 72.3596 19.7648 71.643 21.1633C70.9398 22.5356 70.0081 23.5003 69.1932 24.133C68.4121 24.7395 67.7144 25.0626 67.3176 25.2213C66.9104 25.3842 66.6284 25.4498 66.5555 25.466C66.4429 25.491 66.6387 25.4404 67.3496 25.3955C68.0175 25.3533 68.9298 25.3281 70.1602 25.3281V15.3281ZM62.6406 17.0469H52.6406C52.6406 20.4252 54.1418 23.5607 56.7578 25.6843C58.8375 27.3726 61.0748 27.9727 62.2583 28.2305C64.6717 28.756 67.5936 28.8086 70.1602 28.8086V18.8086V8.80859C68.8993 8.80859 67.9713 8.78775 67.2868 8.74884C66.5539 8.70718 66.3762 8.65846 66.5141 8.68849C66.6028 8.7078 66.9176 8.78025 67.3632 8.96103C67.8025 9.13929 68.5472 9.49438 69.3627 10.1564C70.2204 10.8527 71.1187 11.8611 71.7687 13.2233C72.4193 14.5869 72.6406 15.9268 72.6406 17.0469H62.6406ZM70.1602 18.8086V28.8086C72.7465 28.8086 75.6761 28.7559 78.0906 28.2324C79.2735 27.9759 81.5133 27.3782 83.5959 25.6915C86.219 23.5672 87.7227 20.4277 87.7227 17.0469H77.7227L67.7227 17.0469C67.7227 15.9268 67.944 14.585 68.5966 13.219C69.2485 11.8544 70.1495 10.8451 71.0088 10.1492C71.8256 9.48765 72.5708 9.13369 73.0089 8.95656C73.4533 8.77686 73.7665 8.70524 73.8528 8.68654C73.9859 8.65767 73.8025 8.70681 73.0619 8.74864C72.3698 8.78773 71.4326 8.80859 70.1602 8.80859V18.8086ZM77.7227 17.0469H87.7227C87.7227 13.367 85.94 10.2762 83.4263 8.329C81.4187 6.77377 79.2895 6.19632 78.1318 5.9402C75.7318 5.40921 72.8435 5.32812 70.1602 5.32812V15.3281V25.3281C71.4023 25.3281 72.324 25.3534 72.9995 25.3958C73.7181 25.4409 73.9196 25.4919 73.8115 25.468C73.741 25.4524 73.4605 25.3876 73.0544 25.2257C72.6588 25.068 71.9606 24.746 71.1784 24.14C70.3621 23.5077 69.4277 22.5423 68.7224 21.1677C68.0037 19.7668 67.7227 18.3284 67.7227 17.0469L77.7227 17.0469ZM88.293 24.9102H78.293V30.2383H88.293H98.293V24.9102H88.293ZM88.293 30.2383V20.2383H79.8711V30.2383V40.2383H88.293V30.2383ZM79.8711 30.2383H69.8711V32.2578H79.8711H89.8711V30.2383H79.8711ZM79.8711 32.2578V42.2578H83.9961V32.2578V22.2578H79.8711V32.2578ZM83.9961 32.2578H73.9961V43.2148H83.9961H93.9961V32.2578H83.9961ZM83.9961 43.2148V33.2148H62.8125V43.2148V53.2148H83.9961V43.2148ZM62.8125 43.2148H52.8125V44.5039H62.8125H72.8125V43.2148H62.8125ZM62.8125 44.5039V54.5039H84.9414V44.5039V34.5039H62.8125V44.5039ZM84.9414 44.5039H74.9414V49.5742H84.9414H94.9414V44.5039H84.9414ZM84.9414 49.5742V39.5742H56.0664V49.5742V59.5742H84.9414V49.5742ZM56.0664 49.5742H66.0664V38.4883H56.0664H46.0664V49.5742H56.0664ZM56.0664 38.4883V48.4883H77.207V38.4883V28.4883L56.0664 28.4883V38.4883ZM77.207 38.4883H87.207V37.2852H77.207H67.207V38.4883H77.207ZM77.207 37.2852V27.2852L56.1094 27.2852V37.2852V47.2852H77.207V37.2852ZM56.1094 37.2852H66.1094V32.2578H56.1094H46.1094V37.2852H56.1094ZM56.1094 32.2578V42.2578H60.6641V32.2578V22.2578H56.1094V32.2578ZM60.6641 32.2578H70.6641V30.2383H60.6641H50.6641V32.2578H60.6641ZM60.6641 30.2383V20.2383H52.0273V30.2383V40.2383H60.6641V30.2383ZM52.0273 30.2383H62.0273V24.9102H52.0273H42.0273V30.2383H52.0273ZM52.0273 24.9102V34.9102H88.293V24.9102V14.9102L52.0273 14.9102V24.9102ZM67.4961 32.2578V42.2578H72.9961V32.2578V22.2578H67.4961V32.2578ZM72.9961 32.2578H82.9961V30.2383H72.9961H62.9961V32.2578H72.9961ZM72.9961 30.2383V20.2383H67.4961V30.2383V40.2383H72.9961V30.2383ZM67.4961 30.2383H57.4961V32.2578H67.4961H77.4961V30.2383H67.4961ZM113.086 11.9336H123.086C123.086 6.41075 118.609 1.93359 113.086 1.93359V11.9336ZM113.086 17.3477V27.3477C118.609 27.3477 123.086 22.8705 123.086 17.3477H113.086ZM105.867 17.3477V7.34766C103.067 7.34766 100.395 8.52187 98.5009 10.5847C96.607 12.6475 95.6649 15.41 95.9036 18.2002L105.867 17.3477ZM114.504 27.4453L122.98 32.7515C124.613 30.1428 124.954 26.9274 123.904 24.0343C122.854 21.1411 120.531 18.8926 117.605 17.9382L114.504 27.4453ZM111.195 32.7305L108.353 42.318C112.659 43.5947 117.288 41.8437 119.671 38.0367L111.195 32.7305ZM102.387 25.6836L111.235 21.0237C109.483 17.6983 106.015 15.6357 102.257 15.6844C98.4989 15.7332 95.0855 17.885 93.4209 21.2547L102.387 25.6836ZM93.1055 33.4609L84.7241 38.9155C87.1397 42.6273 91.7089 44.3082 95.954 43.0466L93.1055 33.4609ZM89.582 28.0469L86.7204 18.4651C83.6995 19.3673 81.281 21.6412 80.1946 24.6008C79.1081 27.5604 79.481 30.859 81.2006 33.5014L89.582 28.0469ZM98.7344 17.3477L108.688 18.3077C108.959 15.5015 108.032 12.7115 106.137 10.6246C104.242 8.53762 101.554 7.34766 98.7344 7.34766V17.3477ZM91.4727 17.3477H81.4727C81.4727 22.8705 85.9498 27.3477 91.4727 27.3477V17.3477ZM91.4727 11.9336V1.93359C85.9498 1.93359 81.4727 6.41075 81.4727 11.9336H91.4727ZM123.871 35.1367H133.871C133.871 29.6139 129.394 25.1367 123.871 25.1367V35.1367ZM123.871 49.7461V59.7461C129.394 59.7461 133.871 55.2689 133.871 49.7461H123.871ZM116.996 49.7461H106.996C106.996 55.2689 111.473 59.7461 116.996 59.7461V49.7461ZM116.996 40.5938H126.996C126.996 35.0709 122.519 30.5938 116.996 30.5938V40.5938ZM96.2422 40.5938H86.2422C86.2422 46.1166 90.7193 50.5938 96.2422 50.5938V40.5938ZM96.2422 35.1367V25.1367C90.7193 25.1367 86.2422 29.6139 86.2422 35.1367H96.2422ZM123.871 10H133.871C133.871 4.47715 129.394 0 123.871 0V10ZM123.871 33.6328V43.6328C129.394 43.6328 133.871 39.1557 133.871 33.6328H123.871ZM116.996 33.6328H106.996C106.996 39.1557 111.473 43.6328 116.996 43.6328V33.6328ZM116.996 24.6094H126.996C126.996 19.0865 122.519 14.6094 116.996 14.6094V24.6094ZM112.055 24.6094H102.055C102.055 30.1322 106.532 34.6094 112.055 34.6094V24.6094ZM112.055 19.0234V9.02344C106.532 9.02344 102.055 13.5006 102.055 19.0234H112.055ZM116.996 19.0234V29.0234C122.519 29.0234 126.996 24.5463 126.996 19.0234H116.996ZM116.996 10V0C111.473 0 106.996 4.47715 106.996 10L116.996 10ZM113.086 11.9336L103.086 11.9336V17.3477H113.086H123.086V11.9336H113.086ZM113.086 17.3477V7.34766L105.867 7.34766V17.3477V27.3477H113.086V17.3477ZM105.867 17.3477L95.9036 18.2002C96.2124 21.8092 97.4317 25.7441 100.139 29.2653C102.879 32.8285 106.728 35.4276 111.403 36.9524L114.504 27.4453L117.605 17.9382C116.916 17.7137 116.515 17.4865 116.303 17.3422C116.097 17.2021 116.018 17.1052 115.994 17.0746C115.968 17.0401 115.866 16.9037 115.831 16.4952L105.867 17.3477ZM114.504 27.4453L106.028 22.1391L102.719 27.4243L111.195 32.7305L119.671 38.0367L122.98 32.7515L114.504 27.4453ZM111.195 32.7305L114.038 23.143C113.105 22.8663 112.542 22.5185 112.187 22.2254C111.828 21.9295 111.512 21.55 111.235 21.0237L102.387 25.6836L93.5388 30.3435C96.4751 35.9188 101.459 40.274 108.353 42.318L111.195 32.7305ZM102.387 25.6836L93.4209 21.2547C92.7957 22.5204 91.9426 23.3743 90.2569 23.8752L93.1055 33.4609L95.954 43.0466C103.378 40.8405 108.454 35.9796 111.352 30.1125L102.387 25.6836ZM93.1055 33.4609L101.487 28.0064L97.9634 22.5923L89.582 28.0469L81.2006 33.5014L84.7241 38.9155L93.1055 33.4609ZM89.582 28.0469L92.4437 37.6287C97.5144 36.1143 101.566 33.3369 104.392 29.5854C107.152 25.9231 108.345 21.8708 108.688 18.3077L98.7344 17.3477L88.7806 16.3876C88.716 17.057 88.5335 17.3982 88.4195 17.5494C88.362 17.6258 88.2602 17.7403 88.0518 17.8813C87.838 18.026 87.4303 18.253 86.7204 18.4651L89.582 28.0469ZM98.7344 17.3477V7.34766H91.4727V17.3477V27.3477H98.7344V17.3477ZM91.4727 17.3477H101.473V11.9336H91.4727H81.4727V17.3477H91.4727ZM91.4727 11.9336V21.9336H113.086V11.9336V1.93359L91.4727 1.93359V11.9336ZM123.871 35.1367H113.871V49.7461H123.871H133.871V35.1367H123.871ZM123.871 49.7461V39.7461H116.996V49.7461V59.7461H123.871V49.7461ZM116.996 49.7461H126.996V40.5938H116.996H106.996V49.7461H116.996ZM116.996 40.5938V30.5938H96.2422V40.5938V50.5938H116.996V40.5938ZM96.2422 40.5938H106.242V35.1367H96.2422H86.2422V40.5938H96.2422ZM96.2422 35.1367V45.1367H123.871V35.1367V25.1367H96.2422V35.1367ZM123.871 10H113.871V33.6328H123.871H133.871V10H123.871ZM123.871 33.6328V23.6328H116.996V33.6328V43.6328H123.871V33.6328ZM116.996 33.6328H126.996V24.6094H116.996H106.996V33.6328H116.996ZM116.996 24.6094V14.6094H112.055V24.6094V34.6094H116.996V24.6094ZM112.055 24.6094H122.055V19.0234H112.055H102.055V24.6094H112.055ZM112.055 19.0234V29.0234H116.996V19.0234V9.02344H112.055V19.0234ZM116.996 19.0234H126.996V10H116.996L106.996 10V19.0234H116.996ZM116.996 10V20H123.871V10V0L116.996 0V10ZM161.598 10.0859H171.598C171.598 4.56309 167.12 0.0859375 161.598 0.0859375V10.0859ZM161.598 38.3164V48.3164C167.12 48.3164 171.598 43.8393 171.598 38.3164H161.598ZM154.68 38.3164H144.68C144.68 43.8393 149.157 48.3164 154.68 48.3164V38.3164ZM154.68 10.0859V0.0859375C149.157 0.0859375 144.68 4.56309 144.68 10.0859H154.68ZM162.543 43.6875H172.543C172.543 38.1647 168.066 33.6875 162.543 33.6875V43.6875ZM162.543 49.1875V59.1875C168.066 59.1875 172.543 54.7103 172.543 49.1875H162.543ZM134.398 49.1875H124.398C124.398 54.7103 128.876 59.1875 134.398 59.1875V49.1875ZM134.398 35.4805V25.4805C128.876 25.4805 124.398 29.9576 124.398 35.4805H134.398ZM141.359 35.4805H151.359C151.359 29.9576 146.882 25.4805 141.359 25.4805V35.4805ZM141.359 43.6875L131.359 43.6875C131.359 49.2103 135.837 53.6875 141.359 53.6875V43.6875ZM128.512 22.6328L138.511 22.7042C138.512 22.6561 138.512 22.608 138.511 22.5598L128.512 22.6328ZM161.598 10.0859H151.598V38.3164H161.598H171.598V10.0859H161.598ZM161.598 38.3164V28.3164H154.68V38.3164V48.3164H161.598V38.3164ZM154.68 38.3164H164.68V10.0859H154.68H144.68V38.3164H154.68ZM154.68 10.0859V20.0859H161.598V10.0859V0.0859375H154.68V10.0859ZM162.543 43.6875H152.543V49.1875H162.543H172.543V43.6875H162.543ZM162.543 49.1875V39.1875L134.398 39.1875V49.1875V59.1875L162.543 59.1875V49.1875ZM134.398 49.1875L144.398 49.1875V35.4805L134.398 35.4805H124.398V49.1875H134.398ZM134.398 35.4805V45.4805L141.359 45.4805V35.4805V25.4805H134.398V35.4805ZM141.359 35.4805L131.359 35.4805V43.6875L141.359 43.6875H151.359V35.4805H141.359ZM141.359 43.6875V53.6875H162.543V43.6875V33.6875H141.359V43.6875ZM139.641 12.4492V22.4492C140.427 22.4492 140.778 22.7145 140.831 22.7625C140.857 22.7856 140.83 22.7678 140.799 22.6996C140.764 22.6226 140.77 22.582 140.77 22.6328H150.77H160.77C160.77 10.2688 150.346 2.44922 139.641 2.44922V12.4492ZM150.77 22.6328H140.77C140.77 22.7467 140.751 22.7399 140.781 22.6728C140.808 22.6131 140.836 22.5906 140.82 22.6043C140.79 22.6322 140.452 22.9023 139.641 22.9023V32.9023V42.9023C150.375 42.9023 160.77 35.0994 160.77 22.6328H150.77ZM139.641 32.9023V22.9023C138.823 22.9023 138.471 22.6277 138.435 22.5954C138.42 22.5816 138.454 22.6101 138.488 22.6851C138.525 22.7686 138.511 22.7961 138.511 22.7042L128.512 22.6328L118.512 22.5614C118.422 35.147 128.979 42.9023 139.641 42.9023V32.9023ZM128.512 22.6328L138.511 22.5598C138.511 22.5318 138.513 22.5937 138.47 22.6872C138.432 22.7708 138.398 22.7945 138.424 22.7714C138.482 22.7191 138.848 22.4492 139.641 22.4492V12.4492V2.44922C129.01 2.44922 118.421 10.2208 118.512 22.7058L128.512 22.6328ZM139.641 18.4219V8.42187C136.591 8.42187 132.891 9.281 129.824 12.0143C126.587 14.899 125.215 18.8404 125.215 22.6328H135.215H145.215C145.215 23.6323 144.788 25.4682 143.13 26.9457C141.642 28.2717 140.155 28.4219 139.641 28.4219V18.4219ZM135.215 22.6328H125.215C125.215 26.3614 126.503 30.361 129.796 33.3174C132.915 36.1181 136.663 36.9297 139.641 36.9297V26.9297V16.9297C140.083 16.9297 141.619 17.0538 143.158 18.4365C144.872 19.9749 145.215 21.8261 145.215 22.6328H135.215ZM139.641 26.9297V36.9297C142.672 36.9297 146.388 36.0539 149.449 33.2485C152.655 30.3089 153.938 26.3568 153.938 22.6328H143.938H133.938C133.938 21.8307 134.274 20.027 135.934 18.5054C137.448 17.118 139.015 16.9297 139.641 16.9297V26.9297ZM143.938 22.6328H153.938C153.938 18.8465 152.573 14.9508 149.421 12.0829C146.413 9.347 142.745 8.42187 139.641 8.42187V18.4219V28.4219C138.943 28.4219 137.423 28.2057 135.962 26.8771C134.357 25.4164 133.938 23.6261 133.938 22.6328H143.938Z" fill="white" mask="url(#path-1-outside-1_6524_1783)"/>
</g>
<defs>
<filter id="filter0_d_6524_1783" x="0" y="0" width="176.543" height="67.7461" filterUnits="userSpaceOnUse" color-interpolation-filters="sRGB">
<feFlood flood-opacity="0" result="BackgroundImageFix"/>
<feColorMatrix in="SourceAlpha" type="matrix" values="0 0 0 0 0 0 0 0 0 0 0 0 0 0 0 0 0 0 127 0" result="hardAlpha"/>
<feOffset dy="4"/>
<feGaussianBlur stdDeviation="2"/>
<feComposite in2="hardAlpha" operator="out"/>
<feColorMatrix type="matrix" values="0 0 0 0 0 0 0 0 0 0 0 0 0 0 0 0 0 0 0.07 0"/>
<feBlend mode="normal" in2="BackgroundImageFix" result="effect1_dropShadow_6524_1783"/>
<feBlend mode="normal" in="SourceGraphic" in2="effect1_dropShadow_6524_1783" result="shape"/>
</filter>
</defs>
</svg>
